<?xml version="1.0" encoding="UTF-8" standalone="no"?>
<!DOCTYPE svg PUBLIC "-//W3C//DTD SVG 1.1//EN"
 "http://www.w3.org/Graphics/SVG/1.1/DTD/svg11.dtd">
<!-- Generated by graphviz version 2.44.0 (0)
 -->
<!-- Title: chain_StringProperties.reverse_dropWhile_reverse_isPrefix Pages: 1 -->
<svg width="485pt" height="98pt"
 viewBox="0.00 0.00 485.00 97.92" xmlns="http://www.w3.org/2000/svg" xmlns:xlink="http://www.w3.org/1999/xlink">
<g id="graph0" class="graph" transform="scale(1 1) rotate(0) translate(4 93.92)">
<title>chain_StringProperties.reverse_dropWhile_reverse_isPrefix</title>
<polygon fill="white" stroke="transparent" points="-4,4 -4,-93.92 481,-93.92 481,4 -4,4"/>
<text text-anchor="middle" x="238.5" y="-75.52" font-family="Helvetica Bold" font-size="13.00">Functorial Chains: StringProperties.reverse_dropWhile_reverse_isPrefix</text>
<text text-anchor="middle" x="238.5" y="-61.52" font-family="Helvetica Bold" font-size="13.00">(heuristic: used by 5 proofs)</text>
<!-- L4YAML.Proofs.StringProperties.reverse_dropWhile_reverse_isPrefix -->
<g id="node1" class="node">
<title>L4YAML.Proofs.StringProperties.reverse_dropWhile_reverse_isPrefix</title>
<polygon fill="#fff3cd" stroke="black" points="427.59,-17.46 427.59,-36.46 316.82,-49.89 160.18,-49.89 49.41,-36.46 49.41,-17.46 160.18,-4.03 316.82,-4.03 427.59,-17.46"/>
<polygon fill="none" stroke="black" points="431.59,-13.93 431.59,-40 317.07,-53.88 159.93,-53.88 45.41,-40 45.41,-13.93 159.93,-0.04 317.07,-0.04 431.59,-13.93"/>
<text text-anchor="middle" x="238.5" y="-29.96" font-family="Helvetica" font-size="10.00">StringProperties.reverse_dropWhile_reverse_isPrefix</text>
<text text-anchor="middle" x="238.5" y="-18.96" font-family="Helvetica" font-size="10.00">(no functorial chains found)</text>
</g>
</g>
</svg>
