<?xml version="1.0" encoding="UTF-8" standalone="no"?>
<!DOCTYPE svg PUBLIC "-//W3C//DTD SVG 1.1//EN"
 "http://www.w3.org/Graphics/SVG/1.1/DTD/svg11.dtd">
<!-- Generated by graphviz version 2.44.0 (0)
 -->
<!-- Title: ParserGrammable.AliasFree._proof_2 Pages: 1 -->
<svg width="770pt" height="1066pt"
 viewBox="0.00 0.00 770.29 1066.00" xmlns="http://www.w3.org/2000/svg" xmlns:xlink="http://www.w3.org/1999/xlink">
<g id="graph0" class="graph" transform="scale(1 1) rotate(0) translate(4 1062)">
<title>ParserGrammable.AliasFree._proof_2</title>
<polygon fill="white" stroke="transparent" points="-4,4 -4,-1062 766.29,-1062 766.29,4 -4,4"/>
<text text-anchor="middle" x="381.15" y="-1043.6" font-family="Helvetica Bold" font-size="13.00">ParserGrammable.AliasFree._proof_2</text>
<text text-anchor="middle" x="381.15" y="-1029.6" font-family="Helvetica Bold" font-size="13.00">(heuristic: used by 11 proofs)</text>
<text text-anchor="middle" x="381.15" y="-1015.6" font-family="Helvetica Bold" font-size="13.00">(L4YAML.Proofs.Parser.ParserGrammableBase)</text>
<g id="clust1" class="cluster">
<title>cluster_functions</title>
<polygon fill="none" stroke="#4a90d9" stroke-dasharray="5,2" points="675.29,-466 675.29,-540 755.29,-540 755.29,-466 675.29,-466"/>
<text text-anchor="middle" x="715.29" y="-525.6" font-family="Helvetica Bold" font-size="13.00" fill="#4a90d9">Functions</text>
</g>
<g id="clust2" class="cluster">
<title>cluster_key</title>
<polygon fill="none" stroke="#d4a017" stroke-dasharray="5,2" points="315.78,-462 315.78,-544 630.29,-544 630.29,-462 315.78,-462"/>
<text text-anchor="middle" x="473.04" y="-529.6" font-family="Helvetica Bold" font-size="13.00" fill="#d4a017">Key Theorem</text>
</g>
<g id="clust4" class="cluster">
<title>cluster_stdlib</title>
<polygon fill="none" stroke="#e67e22" stroke-dasharray="5,2" points="8,-8 8,-1000 294.78,-1000 294.78,-8 8,-8"/>
<text text-anchor="middle" x="151.39" y="-985.6" font-family="Helvetica Bold" font-size="13.00" fill="#e67e22">Stdlib Lemmas</text>
</g>
<!-- L4YAML.YamlValue -->
<g id="node1" class="node">
<title>L4YAML.YamlValue</title>
<g id="a_node1"><a xlink:href="../../../api/L4YAML/Spec/Types.html#L4YAML.YamlValue" xlink:title="YamlValue\n(inductive)" target="_blank">
<polygon fill="#dce9f7" stroke="#4a90d9" points="746.29,-510 684.29,-510 684.29,-474 746.29,-474 746.29,-510"/>
<text text-anchor="middle" x="715.29" y="-495" font-family="Helvetica" font-size="10.00">YamlValue</text>
<text text-anchor="middle" x="715.29" y="-484" font-family="Helvetica" font-size="10.00">(inductive)</text>
</a>
</g>
</g>
<!-- L4YAML.Proofs.ParserGrammable.AliasFree._proof_2 -->
<g id="node2" class="node">
<title>L4YAML.Proofs.ParserGrammable.AliasFree._proof_2</title>
<g id="a_node2"><a xlink:href="../../../api/L4YAML/Proofs/Parser/ParserGrammableBase.html#L4YAML.Proofs.ParserGrammable.AliasFree._proof_2" xlink:title="ParserGrammable.AliasFree._proof_2" target="_blank">
<polygon fill="#fff3cd" stroke="#d4a017" points="618.06,-484.54 618.06,-499.46 533.11,-510 412.97,-510 328.02,-499.46 328.02,-484.54 412.97,-474 533.11,-474 618.06,-484.54"/>
<polygon fill="none" stroke="#d4a017" points="622.05,-481.01 622.05,-502.99 533.35,-514 412.73,-514 324.03,-502.99 324.03,-481.01 412.73,-470 533.35,-470 622.05,-481.01"/>
<text text-anchor="middle" x="473.04" y="-488.9" font-family="Helvetica" font-size="12.00">ParserGrammable.AliasFree._proof_2</text>
</a>
</g>
</g>
<!-- L4YAML.Proofs.ParserGrammable.AliasFree._proof_2&#45;&gt;L4YAML.YamlValue -->
<g id="edge1" class="edge">
<title>L4YAML.Proofs.ParserGrammable.AliasFree._proof_2&#45;&gt;L4YAML.YamlValue</title>
<path fill="none" stroke="#4a90d9" stroke-width="2" d="M622.09,-492C642.18,-492 661.16,-492 676.62,-492"/>
<polygon fill="#4a90d9" stroke="#4a90d9" stroke-width="2" points="676.91,-494.45 683.91,-492 676.91,-489.55 676.91,-494.45"/>
<text text-anchor="middle" x="652.79" y="-494.6" font-family="Times-Roman" font-size="8.00" fill="#4a90d9">about</text>
</g>
<!-- Lean.Omega.Constraint.not_sat&#39;_of_isImpossible -->
<g id="node3" class="node">
<title>Lean.Omega.Constraint.not_sat&#39;_of_isImpossible</title>
<g id="a_node3"><a xlink:href="../../../api/Init/Omega/Constraint.html#Lean.Omega.Constraint.not_sat&#39;_of_isImpossible" xlink:title="Lean.Omega.Constraint.not_sat&#39;_of_isImpossible" target="_blank">
<ellipse fill="#fdebd0" stroke="#e67e22" cx="151.39" cy="-952" rx="135.29" ry="18"/>
<text text-anchor="middle" x="151.39" y="-949.5" font-family="Helvetica" font-size="10.00">Lean.Omega.Constraint.not_sat&#39;_of_isImpossible</text>
</a>
</g>
</g>
<!-- Lean.Omega.Constraint.not_sat&#39;_of_isImpossible&#45;&gt;L4YAML.Proofs.ParserGrammable.AliasFree._proof_2 -->
<g id="edge2" class="edge">
<title>Lean.Omega.Constraint.not_sat&#39;_of_isImpossible&#45;&gt;L4YAML.Proofs.ParserGrammable.AliasFree._proof_2</title>
<path fill="none" stroke="#e67e22" stroke-width="2" d="M264.55,-942.08C275.48,-937.88 285.82,-932.32 294.78,-925 425.21,-818.48 460.64,-600.52 469.4,-521.47"/>
<polygon fill="#e67e22" stroke="#e67e22" stroke-width="2" points="471.86,-521.48 470.16,-514.26 466.99,-520.96 471.86,-521.48"/>
</g>
<!-- of_decide_eq_true -->
<g id="node4" class="node">
<title>of_decide_eq_true</title>
<g id="a_node4"><a xlink:href="../../../api/Init/Prelude.html#of_decide_eq_true" xlink:title="of_decide_eq_true" target="_blank">
<ellipse fill="#fdebd0" stroke="#e67e22" cx="151.39" cy="-898" rx="56.52" ry="18"/>
<text text-anchor="middle" x="151.39" y="-895.5" font-family="Helvetica" font-size="10.00">of_decide_eq_true</text>
</a>
</g>
</g>
<!-- of_decide_eq_true&#45;&gt;L4YAML.Proofs.ParserGrammable.AliasFree._proof_2 -->
<g id="edge3" class="edge">
<title>of_decide_eq_true&#45;&gt;L4YAML.Proofs.ParserGrammable.AliasFree._proof_2</title>
<path fill="none" stroke="#e67e22" stroke-width="2" d="M207.97,-899.08C236.52,-896.96 270.34,-889.98 294.78,-871 411.81,-780.11 454.89,-593.42 467.56,-521.31"/>
<polygon fill="#e67e22" stroke="#e67e22" stroke-width="2" points="469.99,-521.61 468.76,-514.3 465.16,-520.79 469.99,-521.61"/>
</g>
<!-- le_of_le_of_eq -->
<g id="node5" class="node">
<title>le_of_le_of_eq</title>
<g id="a_node5"><a xlink:href="../../../api/Init/Core.html#le_of_le_of_eq" xlink:title="le_of_le_of_eq" target="_blank">
<ellipse fill="#fdebd0" stroke="#e67e22" cx="151.39" cy="-844" rx="47.19" ry="18"/>
<text text-anchor="middle" x="151.39" y="-841.5" font-family="Helvetica" font-size="10.00">le_of_le_of_eq</text>
</a>
</g>
</g>
<!-- le_of_le_of_eq&#45;&gt;L4YAML.Proofs.ParserGrammable.AliasFree._proof_2 -->
<g id="edge4" class="edge">
<title>le_of_le_of_eq&#45;&gt;L4YAML.Proofs.ParserGrammable.AliasFree._proof_2</title>
<path fill="none" stroke="#e67e22" stroke-width="2" d="M198.69,-845.04C228.67,-843.51 267.12,-837.14 294.78,-817 398.59,-741.41 448.33,-585.84 465.17,-521.18"/>
<polygon fill="#e67e22" stroke="#e67e22" stroke-width="2" points="467.62,-521.51 466.97,-514.12 462.87,-520.3 467.62,-521.51"/>
</g>
<!-- Lean.Omega.Constraint.combine_sat&#39; -->
<g id="node6" class="node">
<title>Lean.Omega.Constraint.combine_sat&#39;</title>
<g id="a_node6"><a xlink:href="../../../api/Init/Omega/Constraint.html#Lean.Omega.Constraint.combine_sat&#39;" xlink:title="Lean.Omega.Constraint.combine_sat&#39;" target="_blank">
<ellipse fill="#fdebd0" stroke="#e67e22" cx="151.39" cy="-790" rx="105.92" ry="18"/>
<text text-anchor="middle" x="151.39" y="-787.5" font-family="Helvetica" font-size="10.00">Lean.Omega.Constraint.combine_sat&#39;</text>
</a>
</g>
</g>
<!-- Lean.Omega.Constraint.combine_sat&#39;&#45;&gt;L4YAML.Proofs.ParserGrammable.AliasFree._proof_2 -->
<g id="edge5" class="edge">
<title>Lean.Omega.Constraint.combine_sat&#39;&#45;&gt;L4YAML.Proofs.ParserGrammable.AliasFree._proof_2</title>
<path fill="none" stroke="#e67e22" stroke-width="2" d="M248.46,-782.71C264.83,-778.5 280.98,-772.23 294.78,-763 385.53,-702.31 440.6,-577.75 461.9,-521.15"/>
<polygon fill="#e67e22" stroke="#e67e22" stroke-width="2" points="464.32,-521.68 464.45,-514.27 459.72,-519.98 464.32,-521.68"/>
</g>
<!-- Int.add_one_le_of_lt -->
<g id="node7" class="node">
<title>Int.add_one_le_of_lt</title>
<g id="a_node7"><a xlink:href="../../../api/Init/Data/Int/Order.html#Int.add_one_le_of_lt" xlink:title="Int.add_one_le_of_lt" target="_blank">
<ellipse fill="#fdebd0" stroke="#e67e22" cx="151.39" cy="-736" rx="61.44" ry="18"/>
<text text-anchor="middle" x="151.39" y="-733.5" font-family="Helvetica" font-size="10.00">Int.add_one_le_of_lt</text>
</a>
</g>
</g>
<!-- Int.add_one_le_of_lt&#45;&gt;L4YAML.Proofs.ParserGrammable.AliasFree._proof_2 -->
<g id="edge6" class="edge">
<title>Int.add_one_le_of_lt&#45;&gt;L4YAML.Proofs.ParserGrammable.AliasFree._proof_2</title>
<path fill="none" stroke="#e67e22" stroke-width="2" d="M212.47,-733.83C239.2,-730.62 270.13,-723.66 294.78,-709 373.05,-662.45 431.63,-567.95 457.47,-520.51"/>
<polygon fill="#e67e22" stroke="#e67e22" stroke-width="2" points="459.74,-521.47 460.9,-514.14 455.42,-519.14 459.74,-521.47"/>
</g>
<!-- Lean.Omega.Int.add_congr -->
<g id="node8" class="node">
<title>Lean.Omega.Int.add_congr</title>
<g id="a_node8"><a xlink:href="../../../api/Init/Omega/Int.html#Lean.Omega.Int.add_congr" xlink:title="Lean.Omega.Int.add_congr" target="_blank">
<ellipse fill="#fdebd0" stroke="#e67e22" cx="151.39" cy="-682" rx="78.76" ry="18"/>
<text text-anchor="middle" x="151.39" y="-679.5" font-family="Helvetica" font-size="10.00">Lean.Omega.Int.add_congr</text>
</a>
</g>
</g>
<!-- Lean.Omega.Int.add_congr&#45;&gt;L4YAML.Proofs.ParserGrammable.AliasFree._proof_2 -->
<g id="edge7" class="edge">
<title>Lean.Omega.Int.add_congr&#45;&gt;L4YAML.Proofs.ParserGrammable.AliasFree._proof_2</title>
<path fill="none" stroke="#e67e22" stroke-width="2" d="M225.9,-676C248.84,-672.08 273.65,-665.62 294.78,-655 360.74,-621.87 420.03,-556.91 450.48,-519.78"/>
<polygon fill="#e67e22" stroke="#e67e22" stroke-width="2" points="452.61,-521.05 455.12,-514.07 448.8,-517.96 452.61,-521.05"/>
</g>
<!-- Fin.isLt -->
<g id="node9" class="node">
<title>Fin.isLt</title>
<g id="a_node9"><a xlink:href="../../../api/Init/Prelude.html#Fin.isLt" xlink:title="Fin.isLt" target="_blank">
<ellipse fill="#fdebd0" stroke="#e67e22" cx="151.39" cy="-628" rx="28.69" ry="18"/>
<text text-anchor="middle" x="151.39" y="-625.5" font-family="Helvetica" font-size="10.00">Fin.isLt</text>
</a>
</g>
</g>
<!-- Fin.isLt&#45;&gt;L4YAML.Proofs.ParserGrammable.AliasFree._proof_2 -->
<g id="edge8" class="edge">
<title>Fin.isLt&#45;&gt;L4YAML.Proofs.ParserGrammable.AliasFree._proof_2</title>
<path fill="none" stroke="#e67e22" stroke-width="2" d="M180.24,-625.73C209.56,-622.66 256.66,-615.76 294.78,-601 348.29,-580.29 403.63,-543.32 437.93,-518.25"/>
<polygon fill="#e67e22" stroke="#e67e22" stroke-width="2" points="439.49,-520.14 443.67,-514.02 436.58,-516.2 439.49,-520.14"/>
</g>
<!-- Int.sub_nonneg_of_le -->
<g id="node10" class="node">
<title>Int.sub_nonneg_of_le</title>
<g id="a_node10"><a xlink:href="../../../api/Init/Data/Int/Order.html#Int.sub_nonneg_of_le" xlink:title="Int.sub_nonneg_of_le" target="_blank">
<ellipse fill="#fdebd0" stroke="#e67e22" cx="151.39" cy="-574" rx="64.33" ry="18"/>
<text text-anchor="middle" x="151.39" y="-571.5" font-family="Helvetica" font-size="10.00">Int.sub_nonneg_of_le</text>
</a>
</g>
</g>
<!-- Int.sub_nonneg_of_le&#45;&gt;L4YAML.Proofs.ParserGrammable.AliasFree._proof_2 -->
<g id="edge9" class="edge">
<title>Int.sub_nonneg_of_le&#45;&gt;L4YAML.Proofs.ParserGrammable.AliasFree._proof_2</title>
<path fill="none" stroke="#e67e22" stroke-width="2" d="M207.48,-565.06C234.02,-560.37 266.22,-554.12 294.78,-547 330.4,-538.13 369.41,-526.26 401.74,-515.83"/>
<polygon fill="#e67e22" stroke="#e67e22" stroke-width="2" points="402.64,-518.11 408.54,-513.62 401.12,-513.45 402.64,-518.11"/>
</g>
<!-- Lean.Omega.Int.sub_congr -->
<g id="node11" class="node">
<title>Lean.Omega.Int.sub_congr</title>
<g id="a_node11"><a xlink:href="../../../api/Init/Omega/Int.html#Lean.Omega.Int.sub_congr" xlink:title="Lean.Omega.Int.sub_congr" target="_blank">
<ellipse fill="#fdebd0" stroke="#e67e22" cx="151.39" cy="-520" rx="78.76" ry="18"/>
<text text-anchor="middle" x="151.39" y="-517.5" font-family="Helvetica" font-size="10.00">Lean.Omega.Int.sub_congr</text>
</a>
</g>
</g>
<!-- Lean.Omega.Int.sub_congr&#45;&gt;L4YAML.Proofs.ParserGrammable.AliasFree._proof_2 -->
<g id="edge10" class="edge">
<title>Lean.Omega.Int.sub_congr&#45;&gt;L4YAML.Proofs.ParserGrammable.AliasFree._proof_2</title>
<path fill="none" stroke="#e67e22" stroke-width="2" d="M225.33,-513.61C255.3,-510.99 291.12,-507.85 326.06,-504.79"/>
<polygon fill="#e67e22" stroke="#e67e22" stroke-width="2" points="326.28,-507.23 333.04,-504.18 325.85,-502.35 326.28,-507.23"/>
</g>
<!-- Lean.Omega.tidy_sat -->
<g id="node12" class="node">
<title>Lean.Omega.tidy_sat</title>
<g id="a_node12"><a xlink:href="../../../api/Init/Omega/Constraint.html#Lean.Omega.tidy_sat" xlink:title="Lean.Omega.tidy_sat" target="_blank">
<ellipse fill="#fdebd0" stroke="#e67e22" cx="151.39" cy="-466" rx="64.51" ry="18"/>
<text text-anchor="middle" x="151.39" y="-463.5" font-family="Helvetica" font-size="10.00">Lean.Omega.tidy_sat</text>
</a>
</g>
</g>
<!-- Lean.Omega.tidy_sat&#45;&gt;L4YAML.Proofs.ParserGrammable.AliasFree._proof_2 -->
<g id="edge11" class="edge">
<title>Lean.Omega.tidy_sat&#45;&gt;L4YAML.Proofs.ParserGrammable.AliasFree._proof_2</title>
<path fill="none" stroke="#e67e22" stroke-width="2" d="M213.65,-470.98C244.53,-473.49 283.48,-476.66 321.7,-479.77"/>
<polygon fill="#e67e22" stroke="#e67e22" stroke-width="2" points="321.66,-482.23 328.83,-480.35 322.05,-477.34 321.66,-482.23"/>
</g>
<!-- Lean.Omega.LinearCombo.coordinate_eval_0 -->
<g id="node13" class="node">
<title>Lean.Omega.LinearCombo.coordinate_eval_0</title>
<g id="a_node13"><a xlink:href="../../../api/Init/Omega/LinearCombo.html#Lean.Omega.LinearCombo.coordinate_eval_0" xlink:title="Lean.Omega.LinearCombo.coordinate_eval_0" target="_blank">
<ellipse fill="#fdebd0" stroke="#e67e22" cx="151.39" cy="-412" rx="125.95" ry="18"/>
<text text-anchor="middle" x="151.39" y="-409.5" font-family="Helvetica" font-size="10.00">Lean.Omega.LinearCombo.coordinate_eval_0</text>
</a>
</g>
</g>
<!-- Lean.Omega.LinearCombo.coordinate_eval_0&#45;&gt;L4YAML.Proofs.ParserGrammable.AliasFree._proof_2 -->
<g id="edge12" class="edge">
<title>Lean.Omega.LinearCombo.coordinate_eval_0&#45;&gt;L4YAML.Proofs.ParserGrammable.AliasFree._proof_2</title>
<path fill="none" stroke="#e67e22" stroke-width="2" d="M232.91,-425.77C253.19,-429.65 274.86,-434.15 294.78,-439 329.6,-447.48 367.74,-458.64 399.68,-468.52"/>
<polygon fill="#e67e22" stroke="#e67e22" stroke-width="2" points="398.99,-470.87 406.4,-470.61 400.45,-466.2 398.99,-470.87"/>
</g>
<!-- Lean.Omega.LinearCombo.add_eval -->
<g id="node14" class="node">
<title>Lean.Omega.LinearCombo.add_eval</title>
<g id="a_node14"><a xlink:href="../../../api/Init/Omega/LinearCombo.html#Lean.Omega.LinearCombo.add_eval" xlink:title="Lean.Omega.LinearCombo.add_eval" target="_blank">
<ellipse fill="#fdebd0" stroke="#e67e22" cx="151.39" cy="-358" rx="102.35" ry="18"/>
<text text-anchor="middle" x="151.39" y="-355.5" font-family="Helvetica" font-size="10.00">Lean.Omega.LinearCombo.add_eval</text>
</a>
</g>
</g>
<!-- Lean.Omega.LinearCombo.add_eval&#45;&gt;L4YAML.Proofs.ParserGrammable.AliasFree._proof_2 -->
<g id="edge13" class="edge">
<title>Lean.Omega.LinearCombo.add_eval&#45;&gt;L4YAML.Proofs.ParserGrammable.AliasFree._proof_2</title>
<path fill="none" stroke="#e67e22" stroke-width="2" d="M248.64,-363.8C265.17,-368.14 281.34,-374.83 294.78,-385 302.71,-390.99 297.81,-397.92 304.78,-405 332.01,-432.67 369.91,-453.37 402.74,-467.62"/>
<polygon fill="#e67e22" stroke="#e67e22" stroke-width="2" points="401.84,-469.9 409.24,-470.39 403.76,-465.39 401.84,-469.9"/>
</g>
<!-- Lean.Omega.LinearCombo.sub_eval -->
<g id="node15" class="node">
<title>Lean.Omega.LinearCombo.sub_eval</title>
<g id="a_node15"><a xlink:href="../../../api/Init/Omega/LinearCombo.html#Lean.Omega.LinearCombo.sub_eval" xlink:title="Lean.Omega.LinearCombo.sub_eval" target="_blank">
<ellipse fill="#fdebd0" stroke="#e67e22" cx="151.39" cy="-304" rx="102.35" ry="18"/>
<text text-anchor="middle" x="151.39" y="-301.5" font-family="Helvetica" font-size="10.00">Lean.Omega.LinearCombo.sub_eval</text>
</a>
</g>
</g>
<!-- Lean.Omega.LinearCombo.sub_eval&#45;&gt;L4YAML.Proofs.ParserGrammable.AliasFree._proof_2 -->
<g id="edge14" class="edge">
<title>Lean.Omega.LinearCombo.sub_eval&#45;&gt;L4YAML.Proofs.ParserGrammable.AliasFree._proof_2</title>
<path fill="none" stroke="#e67e22" stroke-width="2" d="M251.79,-307.7C267.72,-312.3 282.86,-319.62 294.78,-331 308.66,-344.25 294.06,-357.09 304.78,-373 332.75,-414.48 380.33,-446.25 417.62,-466.49"/>
<polygon fill="#e67e22" stroke="#e67e22" stroke-width="2" points="416.65,-468.75 423.98,-469.89 418.96,-464.43 416.65,-468.75"/>
</g>
<!-- Lean.Omega.Int.ofNat_lt_of_lt -->
<g id="node16" class="node">
<title>Lean.Omega.Int.ofNat_lt_of_lt</title>
<g id="a_node16"><a xlink:href="../../../api/Init/Omega/Int.html#Lean.Omega.Int.ofNat_lt_of_lt" xlink:title="Lean.Omega.Int.ofNat_lt_of_lt" target="_blank">
<ellipse fill="#fdebd0" stroke="#e67e22" cx="151.39" cy="-250" rx="86.57" ry="18"/>
<text text-anchor="middle" x="151.39" y="-247.5" font-family="Helvetica" font-size="10.00">Lean.Omega.Int.ofNat_lt_of_lt</text>
</a>
</g>
</g>
<!-- Lean.Omega.Int.ofNat_lt_of_lt&#45;&gt;L4YAML.Proofs.ParserGrammable.AliasFree._proof_2 -->
<g id="edge15" class="edge">
<title>Lean.Omega.Int.ofNat_lt_of_lt&#45;&gt;L4YAML.Proofs.ParserGrammable.AliasFree._proof_2</title>
<path fill="none" stroke="#e67e22" stroke-width="2" d="M238.01,-249.67C259.02,-253.68 279.77,-261.77 294.78,-277 312.85,-295.31 292.6,-311.35 304.78,-334 334.97,-390.09 392.45,-437.61 431.51,-465.47"/>
<polygon fill="#e67e22" stroke="#e67e22" stroke-width="2" points="430.48,-467.74 437.61,-469.77 433.3,-463.74 430.48,-467.74"/>
</g>
<!-- Lean.Omega.Int.ofNat_le_of_le -->
<g id="node17" class="node">
<title>Lean.Omega.Int.ofNat_le_of_le</title>
<g id="a_node17"><a xlink:href="../../../api/Init/Omega/Int.html#Lean.Omega.Int.ofNat_le_of_le" xlink:title="Lean.Omega.Int.ofNat_le_of_le" target="_blank">
<ellipse fill="#fdebd0" stroke="#e67e22" cx="151.39" cy="-196" rx="89.45" ry="18"/>
<text text-anchor="middle" x="151.39" y="-193.5" font-family="Helvetica" font-size="10.00">Lean.Omega.Int.ofNat_le_of_le</text>
</a>
</g>
</g>
<!-- Lean.Omega.Int.ofNat_le_of_le&#45;&gt;L4YAML.Proofs.ParserGrammable.AliasFree._proof_2 -->
<g id="edge16" class="edge">
<title>Lean.Omega.Int.ofNat_le_of_le&#45;&gt;L4YAML.Proofs.ParserGrammable.AliasFree._proof_2</title>
<path fill="none" stroke="#e67e22" stroke-width="2" d="M240.98,-196.26C260.96,-200.46 280.47,-208.49 294.78,-223 312.85,-241.31 294.28,-256.52 304.78,-280 338.37,-355.04 404.43,-426.76 442.71,-464.49"/>
<polygon fill="#e67e22" stroke="#e67e22" stroke-width="2" points="441.44,-466.67 448.15,-469.81 444.86,-463.16 441.44,-466.67"/>
</g>
<!-- Lean.Omega.Constraint.addInequality_sat -->
<g id="node18" class="node">
<title>Lean.Omega.Constraint.addInequality_sat</title>
<g id="a_node18"><a xlink:href="../../../api/Init/Omega/Constraint.html#Lean.Omega.Constraint.addInequality_sat" xlink:title="Lean.Omega.Constraint.addInequality_sat" target="_blank">
<ellipse fill="#fdebd0" stroke="#e67e22" cx="151.39" cy="-142" rx="117.29" ry="18"/>
<text text-anchor="middle" x="151.39" y="-139.5" font-family="Helvetica" font-size="10.00">Lean.Omega.Constraint.addInequality_sat</text>
</a>
</g>
</g>
<!-- Lean.Omega.Constraint.addInequality_sat&#45;&gt;L4YAML.Proofs.ParserGrammable.AliasFree._proof_2 -->
<g id="edge17" class="edge">
<title>Lean.Omega.Constraint.addInequality_sat&#45;&gt;L4YAML.Proofs.ParserGrammable.AliasFree._proof_2</title>
<path fill="none" stroke="#e67e22" stroke-width="2" d="M258.8,-149.28C271.93,-153.74 284.36,-160.09 294.78,-169 304.83,-177.59 299.28,-184.99 304.78,-197 351.42,-298.85 421.12,-412.26 453.84,-463.78"/>
<polygon fill="#e67e22" stroke="#e67e22" stroke-width="2" points="451.82,-465.17 457.65,-469.76 455.95,-462.53 451.82,-465.17"/>
</g>
<!-- Nat.le_of_not_lt -->
<g id="node19" class="node">
<title>Nat.le_of_not_lt</title>
<g id="a_node19"><a xlink:href="../../../api/Init/Data/Nat/Basic.html#Nat.le_of_not_lt" xlink:title="Nat.le_of_not_lt" target="_blank">
<ellipse fill="#fdebd0" stroke="#e67e22" cx="151.39" cy="-88" rx="50.07" ry="18"/>
<text text-anchor="middle" x="151.39" y="-85.5" font-family="Helvetica" font-size="10.00">Nat.le_of_not_lt</text>
</a>
</g>
</g>
<!-- Nat.le_of_not_lt&#45;&gt;L4YAML.Proofs.ParserGrammable.AliasFree._proof_2 -->
<g id="edge18" class="edge">
<title>Nat.le_of_not_lt&#45;&gt;L4YAML.Proofs.ParserGrammable.AliasFree._proof_2</title>
<path fill="none" stroke="#e67e22" stroke-width="2" d="M201.44,-86.53C231.22,-88.06 268.43,-94.58 294.78,-115 411.4,-205.38 454.72,-391.11 467.5,-462.84"/>
<polygon fill="#e67e22" stroke="#e67e22" stroke-width="2" points="465.1,-463.34 468.72,-469.81 469.93,-462.5 465.1,-463.34"/>
</g>
<!-- Lean.Omega.LinearCombo.coordinate_eval_1 -->
<g id="node20" class="node">
<title>Lean.Omega.LinearCombo.coordinate_eval_1</title>
<g id="a_node20"><a xlink:href="../../../api/Init/Omega/LinearCombo.html#Lean.Omega.LinearCombo.coordinate_eval_1" xlink:title="Lean.Omega.LinearCombo.coordinate_eval_1" target="_blank">
<ellipse fill="#fdebd0" stroke="#e67e22" cx="151.39" cy="-34" rx="125.95" ry="18"/>
<text text-anchor="middle" x="151.39" y="-31.5" font-family="Helvetica" font-size="10.00">Lean.Omega.LinearCombo.coordinate_eval_1</text>
</a>
</g>
</g>
<!-- Lean.Omega.LinearCombo.coordinate_eval_1&#45;&gt;L4YAML.Proofs.ParserGrammable.AliasFree._proof_2 -->
<g id="edge19" class="edge">
<title>Lean.Omega.LinearCombo.coordinate_eval_1&#45;&gt;L4YAML.Proofs.ParserGrammable.AliasFree._proof_2</title>
<path fill="none" stroke="#e67e22" stroke-width="2" d="M261.67,-42.87C273.66,-47.18 285.03,-53.05 294.78,-61 424.78,-166.99 460.48,-383.96 469.35,-462.66"/>
<polygon fill="#e67e22" stroke="#e67e22" stroke-width="2" points="466.94,-463.14 470.13,-469.84 471.81,-462.62 466.94,-463.14"/>
</g>
</g>
</svg>
