<?xml version="1.0" encoding="UTF-8" standalone="no"?>
<!DOCTYPE svg PUBLIC "-//W3C//DTD SVG 1.1//EN"
 "http://www.w3.org/Graphics/SVG/1.1/DTD/svg11.dtd">
<!-- Generated by graphviz version 2.44.0 (0)
 -->
<!-- Title: ParserGrammable.flowBracketBalance_compose Pages: 1 -->
<svg width="1099pt" height="1184pt"
 viewBox="0.00 0.00 1098.86 1184.00" xmlns="http://www.w3.org/2000/svg" xmlns:xlink="http://www.w3.org/1999/xlink">
<g id="graph0" class="graph" transform="scale(1 1) rotate(0) translate(4 1180)">
<title>ParserGrammable.flowBracketBalance_compose</title>
<polygon fill="white" stroke="transparent" points="-4,4 -4,-1180 1094.86,-1180 1094.86,4 -4,4"/>
<text text-anchor="middle" x="545.43" y="-1161.6" font-family="Helvetica Bold" font-size="13.00">ParserGrammable.flowBracketBalance_compose</text>
<text text-anchor="middle" x="545.43" y="-1147.6" font-family="Helvetica Bold" font-size="13.00">(heuristic: used by 6 proofs)</text>
<text text-anchor="middle" x="545.43" y="-1133.6" font-family="Helvetica Bold" font-size="13.00">(L4YAML.Proofs.Parser.ParserGrammableBase)</text>
<g id="clust1" class="cluster">
<title>cluster_functions</title>
<polygon fill="none" stroke="#4a90d9" stroke-dasharray="5,2" points="881.86,-440 881.86,-622 1082.86,-622 1082.86,-440 881.86,-440"/>
<text text-anchor="middle" x="982.36" y="-607.6" font-family="Helvetica Bold" font-size="13.00" fill="#4a90d9">Functions</text>
</g>
<g id="clust2" class="cluster">
<title>cluster_key</title>
<polygon fill="none" stroke="#d4a017" stroke-dasharray="5,2" points="442.39,-490 442.39,-572 836.86,-572 836.86,-490 442.39,-490"/>
<text text-anchor="middle" x="639.63" y="-557.6" font-family="Helvetica Bold" font-size="13.00" fill="#d4a017">Key Theorem</text>
</g>
<g id="clust3" class="cluster">
<title>cluster_proofs</title>
<polygon fill="none" stroke="#28a745" stroke-dasharray="5,2" points="8,-738 8,-1118 421.39,-1118 421.39,-738 8,-738"/>
<text text-anchor="middle" x="214.7" y="-1103.6" font-family="Helvetica Bold" font-size="13.00" fill="#28a745">Proof Dependencies</text>
</g>
<g id="clust4" class="cluster">
<title>cluster_stdlib</title>
<polygon fill="none" stroke="#e67e22" stroke-dasharray="5,2" points="122.52,-8 122.52,-730 306.88,-730 306.88,-8 122.52,-8"/>
<text text-anchor="middle" x="214.7" y="-715.6" font-family="Helvetica Bold" font-size="13.00" fill="#e67e22">Stdlib Lemmas</text>
</g>
<!-- L4YAML.Positioned -->
<g id="node1" class="node">
<title>L4YAML.Positioned</title>
<g id="a_node1"><a xlink:href="../../../api/L4YAML/Token/Token.html#L4YAML.Positioned" xlink:title="Positioned\n(inductive)" target="_blank">
<polygon fill="#dce9f7" stroke="#4a90d9" points="1013.36,-592 951.36,-592 951.36,-556 1013.36,-556 1013.36,-592"/>
<text text-anchor="middle" x="982.36" y="-577" font-family="Helvetica" font-size="10.00">Positioned</text>
<text text-anchor="middle" x="982.36" y="-566" font-family="Helvetica" font-size="10.00">(inductive)</text>
</a>
</g>
</g>
<!-- L4YAML.YamlToken -->
<g id="node2" class="node">
<title>L4YAML.YamlToken</title>
<g id="a_node2"><a xlink:href="../../../api/L4YAML/Token/Token.html#L4YAML.YamlToken" xlink:title="YamlToken\n(inductive)" target="_blank">
<polygon fill="#dce9f7" stroke="#4a90d9" points="1014.36,-538 950.36,-538 950.36,-502 1014.36,-502 1014.36,-538"/>
<text text-anchor="middle" x="982.36" y="-523" font-family="Helvetica" font-size="10.00">YamlToken</text>
<text text-anchor="middle" x="982.36" y="-512" font-family="Helvetica" font-size="10.00">(inductive)</text>
</a>
</g>
</g>
<!-- L4YAML.Proofs.ParserGrammable.flowBracketBalance -->
<g id="node3" class="node">
<title>L4YAML.Proofs.ParserGrammable.flowBracketBalance</title>
<g id="a_node3"><a xlink:href="../../../api/L4YAML/Proofs/Parser/ParserGrammableBase.html#L4YAML.Proofs.ParserGrammable.flowBracketBalance" xlink:title="ParserGrammable.flowBracketBalance\n(def)" target="_blank">
<polygon fill="#dce9f7" stroke="#4a90d9" points="1074.86,-484 889.86,-484 889.86,-448 1074.86,-448 1074.86,-484"/>
<text text-anchor="middle" x="982.36" y="-469" font-family="Helvetica" font-size="10.00">ParserGrammable.flowBracketBalance</text>
<text text-anchor="middle" x="982.36" y="-458" font-family="Helvetica" font-size="10.00">(def)</text>
</a>
</g>
</g>
<!-- L4YAML.Proofs.ParserGrammable.flowBracketBalance_compose -->
<g id="node4" class="node">
<title>L4YAML.Proofs.ParserGrammable.flowBracketBalance_compose</title>
<g id="a_node4"><a xlink:href="../../../api/L4YAML/Proofs/Parser/ParserGrammableBase.html#L4YAML.Proofs.ParserGrammable.flowBracketBalance_compose" xlink:title="ParserGrammable.flowBracketBalance_compose" target="_blank">
<polygon fill="#fff3cd" stroke="#d4a017" points="825.09,-512.54 825.09,-527.46 716.45,-538 562.81,-538 454.17,-527.46 454.17,-512.54 562.81,-502 716.45,-502 825.09,-512.54"/>
<polygon fill="none" stroke="#d4a017" points="829.09,-508.91 829.09,-531.09 716.64,-542 562.61,-542 450.16,-531.09 450.16,-508.91 562.61,-498 716.64,-498 829.09,-508.91"/>
<text text-anchor="middle" x="639.63" y="-516.9" font-family="Helvetica" font-size="12.00">ParserGrammable.flowBracketBalance_compose</text>
</a>
</g>
</g>
<!-- L4YAML.Proofs.ParserGrammable.flowBracketBalance_compose&#45;&gt;L4YAML.Positioned -->
<g id="edge1" class="edge">
<title>L4YAML.Proofs.ParserGrammable.flowBracketBalance_compose&#45;&gt;L4YAML.Positioned</title>
<path fill="none" stroke="#4a90d9" stroke-width="2" d="M755.98,-538.28C821.59,-548.68 899.39,-561.01 944.3,-568.13"/>
<polygon fill="#4a90d9" stroke="#4a90d9" stroke-width="2" points="943.92,-570.55 951.22,-569.22 944.69,-565.71 943.92,-570.55"/>
<text text-anchor="middle" x="859.36" y="-558.6" font-family="Times-Roman" font-size="8.00" fill="#4a90d9">about</text>
</g>
<!-- L4YAML.Proofs.ParserGrammable.flowBracketBalance_compose&#45;&gt;L4YAML.YamlToken -->
<g id="edge2" class="edge">
<title>L4YAML.Proofs.ParserGrammable.flowBracketBalance_compose&#45;&gt;L4YAML.YamlToken</title>
<path fill="none" stroke="#4a90d9" stroke-width="2" d="M828.93,-520C872.49,-520 914.47,-520 943.3,-520"/>
<polygon fill="#4a90d9" stroke="#4a90d9" stroke-width="2" points="943.34,-522.45 950.34,-520 943.34,-517.55 943.34,-522.45"/>
<text text-anchor="middle" x="859.36" y="-522.6" font-family="Times-Roman" font-size="8.00" fill="#4a90d9">about</text>
</g>
<!-- L4YAML.Proofs.ParserGrammable.flowBracketBalance_compose&#45;&gt;L4YAML.Proofs.ParserGrammable.flowBracketBalance -->
<g id="edge3" class="edge">
<title>L4YAML.Proofs.ParserGrammable.flowBracketBalance_compose&#45;&gt;L4YAML.Proofs.ParserGrammable.flowBracketBalance</title>
<path fill="none" stroke="#4a90d9" stroke-width="2" d="M755.98,-501.72C797.06,-495.21 842.92,-487.94 882.49,-481.67"/>
<polygon fill="#4a90d9" stroke="#4a90d9" stroke-width="2" points="883.27,-484.03 889.8,-480.51 882.5,-479.19 883.27,-484.03"/>
<text text-anchor="middle" x="859.36" y="-488.6" font-family="Times-Roman" font-size="8.00" fill="#4a90d9">about</text>
</g>
<!-- L4YAML.Proofs.ParserGrammable.flowBracketBalance_compose._proof_1_2 -->
<g id="node5" class="node">
<title>L4YAML.Proofs.ParserGrammable.flowBracketBalance_compose._proof_1_2</title>
<g id="a_node5"><a xlink:href="../../../api/L4YAML/Proofs/Parser/ParserGrammableBase.html#L4YAML.Proofs.ParserGrammable.flowBracketBalance_compose._proof_1_2" xlink:title="ParserGrammable.flowBracketBalance_compose._proof_1_2\n(Parser.ParserGrammableBase)" target="_blank">
<ellipse fill="#d4edda" stroke="#28a745" cx="214.7" cy="-1067" rx="198.89" ry="21.43"/>
<text text-anchor="middle" x="214.7" y="-1070" font-family="Helvetica" font-size="10.00">ParserGrammable.flowBracketBalance_compose._proof_1_2</text>
<text text-anchor="middle" x="214.7" y="-1059" font-family="Helvetica" font-size="10.00">(Parser.ParserGrammableBase)</text>
</a>
</g>
</g>
<!-- L4YAML.Proofs.ParserGrammable.flowBracketBalance_compose._proof_1_2&#45;&gt;L4YAML.Proofs.ParserGrammable.flowBracketBalance_compose -->
<g id="edge6" class="edge">
<title>L4YAML.Proofs.ParserGrammable.flowBracketBalance_compose._proof_1_2&#45;&gt;L4YAML.Proofs.ParserGrammable.flowBracketBalance_compose</title>
<path fill="none" stroke="#28a745" d="M387.07,-1056.44C399.35,-1051.44 410.98,-1045.07 421.39,-1037 584.61,-910.61 626.48,-638.91 636.05,-549.32"/>
<polygon fill="#28a745" stroke="#28a745" points="638.5,-549.42 636.78,-542.2 633.63,-548.92 638.5,-549.42"/>
</g>
<!-- L4YAML.Proofs.ParserGrammable.flowBracketBalance_compose._proof_1_5 -->
<g id="node6" class="node">
<title>L4YAML.Proofs.ParserGrammable.flowBracketBalance_compose._proof_1_5</title>
<g id="a_node6"><a xlink:href="../../../api/L4YAML/Proofs/Parser/ParserGrammableBase.html#L4YAML.Proofs.ParserGrammable.flowBracketBalance_compose._proof_1_5" xlink:title="ParserGrammable.flowBracketBalance_compose._proof_1_5\n(Parser.ParserGrammableBase)" target="_blank">
<ellipse fill="#d4edda" stroke="#28a745" cx="214.7" cy="-1007" rx="198.89" ry="21.43"/>
<text text-anchor="middle" x="214.7" y="-1010" font-family="Helvetica" font-size="10.00">ParserGrammable.flowBracketBalance_compose._proof_1_5</text>
<text text-anchor="middle" x="214.7" y="-999" font-family="Helvetica" font-size="10.00">(Parser.ParserGrammableBase)</text>
</a>
</g>
</g>
<!-- L4YAML.Proofs.ParserGrammable.flowBracketBalance_compose._proof_1_5&#45;&gt;L4YAML.Proofs.ParserGrammable.flowBracketBalance_compose -->
<g id="edge4" class="edge">
<title>L4YAML.Proofs.ParserGrammable.flowBracketBalance_compose._proof_1_5&#45;&gt;L4YAML.Proofs.ParserGrammable.flowBracketBalance_compose</title>
<path fill="none" stroke="#28a745" d="M385.91,-996.21C398.56,-991.28 410.58,-984.98 421.39,-977 569.24,-867.85 620.51,-631.94 634.32,-549.31"/>
<polygon fill="#28a745" stroke="#28a745" points="636.76,-549.56 635.47,-542.25 631.93,-548.77 636.76,-549.56"/>
</g>
<!-- L4YAML.Proofs.ParserGrammable.flowBracketBalance_compose._proof_1_6 -->
<g id="node7" class="node">
<title>L4YAML.Proofs.ParserGrammable.flowBracketBalance_compose._proof_1_6</title>
<g id="a_node7"><a xlink:href="../../../api/L4YAML/Proofs/Parser/ParserGrammableBase.html#L4YAML.Proofs.ParserGrammable.flowBracketBalance_compose._proof_1_6" xlink:title="ParserGrammable.flowBracketBalance_compose._proof_1_6\n(Parser.ParserGrammableBase)" target="_blank">
<ellipse fill="#d4edda" stroke="#28a745" cx="214.7" cy="-947" rx="198.89" ry="21.43"/>
<text text-anchor="middle" x="214.7" y="-950" font-family="Helvetica" font-size="10.00">ParserGrammable.flowBracketBalance_compose._proof_1_6</text>
<text text-anchor="middle" x="214.7" y="-939" font-family="Helvetica" font-size="10.00">(Parser.ParserGrammableBase)</text>
</a>
</g>
</g>
<!-- L4YAML.Proofs.ParserGrammable.flowBracketBalance_compose._proof_1_6&#45;&gt;L4YAML.Proofs.ParserGrammable.flowBracketBalance_compose -->
<g id="edge8" class="edge">
<title>L4YAML.Proofs.ParserGrammable.flowBracketBalance_compose._proof_1_6&#45;&gt;L4YAML.Proofs.ParserGrammable.flowBracketBalance_compose</title>
<path fill="none" stroke="#28a745" d="M384.39,-935.91C397.52,-931.07 410.06,-924.88 421.39,-917 554.2,-824.68 613.89,-624.12 632.17,-549.1"/>
<polygon fill="#28a745" stroke="#28a745" points="634.57,-549.62 633.82,-542.24 629.8,-548.48 634.57,-549.62"/>
</g>
<!-- L4YAML.Proofs.ParserGrammable.flowBracketBalance_compose._proof_1_4 -->
<g id="node8" class="node">
<title>L4YAML.Proofs.ParserGrammable.flowBracketBalance_compose._proof_1_4</title>
<g id="a_node8"><a xlink:href="../../../api/L4YAML/Proofs/Parser/ParserGrammableBase.html#L4YAML.Proofs.ParserGrammable.flowBracketBalance_compose._proof_1_4" xlink:title="ParserGrammable.flowBracketBalance_compose._proof_1_4\n(Parser.ParserGrammableBase)" target="_blank">
<ellipse fill="#d4edda" stroke="#28a745" cx="214.7" cy="-887" rx="198.89" ry="21.43"/>
<text text-anchor="middle" x="214.7" y="-890" font-family="Helvetica" font-size="10.00">ParserGrammable.flowBracketBalance_compose._proof_1_4</text>
<text text-anchor="middle" x="214.7" y="-879" font-family="Helvetica" font-size="10.00">(Parser.ParserGrammableBase)</text>
</a>
</g>
</g>
<!-- L4YAML.Proofs.ParserGrammable.flowBracketBalance_compose._proof_1_4&#45;&gt;L4YAML.Proofs.ParserGrammable.flowBracketBalance_compose -->
<g id="edge5" class="edge">
<title>L4YAML.Proofs.ParserGrammable.flowBracketBalance_compose._proof_1_4&#45;&gt;L4YAML.Proofs.ParserGrammable.flowBracketBalance_compose</title>
<path fill="none" stroke="#28a745" d="M382.23,-875.56C396.05,-870.83 409.33,-864.76 421.39,-857 539.17,-781.25 605.99,-616.45 629.21,-549.33"/>
<polygon fill="#28a745" stroke="#28a745" points="631.63,-549.81 631.57,-542.39 627,-548.23 631.63,-549.81"/>
</g>
<!-- L4YAML.Proofs.ParserGrammable.foldl_add_shift -->
<g id="node9" class="node">
<title>L4YAML.Proofs.ParserGrammable.foldl_add_shift</title>
<g id="a_node9"><a xlink:href="../../../api/L4YAML/Proofs/Parser/ParserGrammableBase.html#L4YAML.Proofs.ParserGrammable.foldl_add_shift" xlink:title="ParserGrammable.foldl_add_shift\n(Parser.ParserGrammableBase)" target="_blank">
<ellipse fill="#d4edda" stroke="#28a745" cx="214.7" cy="-827" rx="114.6" ry="21.43"/>
<text text-anchor="middle" x="214.7" y="-830" font-family="Helvetica" font-size="10.00">ParserGrammable.foldl_add_shift</text>
<text text-anchor="middle" x="214.7" y="-819" font-family="Helvetica" font-size="10.00">(Parser.ParserGrammableBase)</text>
</a>
</g>
</g>
<!-- L4YAML.Proofs.ParserGrammable.foldl_add_shift&#45;&gt;L4YAML.Proofs.ParserGrammable.flowBracketBalance_compose -->
<g id="edge7" class="edge">
<title>L4YAML.Proofs.ParserGrammable.foldl_add_shift&#45;&gt;L4YAML.Proofs.ParserGrammable.flowBracketBalance_compose</title>
<path fill="none" stroke="#28a745" d="M329.15,-825.85C360.65,-821.54 393.76,-813.02 421.39,-797 525,-736.95 597.27,-606.54 625.48,-548.66"/>
<polygon fill="#28a745" stroke="#28a745" points="627.71,-549.67 628.54,-542.3 623.3,-547.55 627.71,-549.67"/>
</g>
<!-- L4YAML.Proofs.ParserGrammable.flowBracketBalance_compose._proof_1_3 -->
<g id="node10" class="node">
<title>L4YAML.Proofs.ParserGrammable.flowBracketBalance_compose._proof_1_3</title>
<g id="a_node10"><a xlink:href="../../../api/L4YAML/Proofs/Parser/ParserGrammableBase.html#L4YAML.Proofs.ParserGrammable.flowBracketBalance_compose._proof_1_3" xlink:title="ParserGrammable.flowBracketBalance_compose._proof_1_3\n(Parser.ParserGrammableBase)" target="_blank">
<ellipse fill="#d4edda" stroke="#28a745" cx="214.7" cy="-767" rx="198.89" ry="21.43"/>
<text text-anchor="middle" x="214.7" y="-770" font-family="Helvetica" font-size="10.00">ParserGrammable.flowBracketBalance_compose._proof_1_3</text>
<text text-anchor="middle" x="214.7" y="-759" font-family="Helvetica" font-size="10.00">(Parser.ParserGrammableBase)</text>
</a>
</g>
</g>
<!-- L4YAML.Proofs.ParserGrammable.flowBracketBalance_compose._proof_1_3&#45;&gt;L4YAML.Proofs.ParserGrammable.flowBracketBalance_compose -->
<g id="edge9" class="edge">
<title>L4YAML.Proofs.ParserGrammable.flowBracketBalance_compose._proof_1_3&#45;&gt;L4YAML.Proofs.ParserGrammable.flowBracketBalance_compose</title>
<path fill="none" stroke="#28a745" d="M368.22,-753.5C386.69,-748.71 404.86,-742.37 421.39,-734 510.18,-689.07 585.7,-594.75 619.56,-547.79"/>
<polygon fill="#28a745" stroke="#28a745" points="621.6,-549.15 623.68,-542.03 617.62,-546.31 621.6,-549.15"/>
</g>
<!-- List.drop_drop -->
<g id="node11" class="node">
<title>List.drop_drop</title>
<g id="a_node11"><a xlink:href="../../../api/Init/Data/List/TakeDrop.html#List.drop_drop" xlink:title="List.drop_drop" target="_blank">
<ellipse fill="#fdebd0" stroke="#e67e22" cx="214.7" cy="-682" rx="45.15" ry="18"/>
<text text-anchor="middle" x="214.7" y="-679.5" font-family="Helvetica" font-size="10.00">List.drop_drop</text>
</a>
</g>
</g>
<!-- List.drop_drop&#45;&gt;L4YAML.Proofs.ParserGrammable.flowBracketBalance_compose -->
<g id="edge10" class="edge">
<title>List.drop_drop&#45;&gt;L4YAML.Proofs.ParserGrammable.flowBracketBalance_compose</title>
<path fill="none" stroke="#e67e22" stroke-width="2" d="M260.3,-681.55C302.84,-679.88 368.15,-674.03 421.39,-655 492.73,-629.5 565.47,-578.03 606.05,-546.53"/>
<polygon fill="#e67e22" stroke="#e67e22" stroke-width="2" points="607.8,-548.27 611.8,-542.03 604.78,-544.41 607.8,-548.27"/>
</g>
<!-- Lean.Grind.instIsPreorderNat -->
<g id="node12" class="node">
<title>Lean.Grind.instIsPreorderNat</title>
<g id="a_node12"><a xlink:href="../../../api/Init/GrindInstances/Ring/Nat.html#Lean.Grind.instIsPreorderNat" xlink:title="Lean.Grind.instIsPreorderNat" target="_blank">
<ellipse fill="#fdebd0" stroke="#e67e22" cx="214.7" cy="-628" rx="84.36" ry="18"/>
<text text-anchor="middle" x="214.7" y="-625.5" font-family="Helvetica" font-size="10.00">Lean.Grind.instIsPreorderNat</text>
</a>
</g>
</g>
<!-- Lean.Grind.instIsPreorderNat&#45;&gt;L4YAML.Proofs.ParserGrammable.flowBracketBalance_compose -->
<g id="edge11" class="edge">
<title>Lean.Grind.instIsPreorderNat&#45;&gt;L4YAML.Proofs.ParserGrammable.flowBracketBalance_compose</title>
<path fill="none" stroke="#e67e22" stroke-width="2" d="M294.13,-621.91C332.83,-617.85 379.97,-611.3 421.39,-601 477.68,-587 539.43,-563.1 582.66,-544.88"/>
<polygon fill="#e67e22" stroke="#e67e22" stroke-width="2" points="583.68,-547.1 589.17,-542.12 581.77,-542.59 583.68,-547.1"/>
</g>
<!-- Std.instReflLeOfIsPreorder -->
<g id="node13" class="node">
<title>Std.instReflLeOfIsPreorder</title>
<g id="a_node13"><a xlink:href="../../../api/Init/Data/Order/Lemmas.html#Std.instReflLeOfIsPreorder" xlink:title="Std.instReflLeOfIsPreorder" target="_blank">
<ellipse fill="#fdebd0" stroke="#e67e22" cx="214.7" cy="-574" rx="78.76" ry="18"/>
<text text-anchor="middle" x="214.7" y="-571.5" font-family="Helvetica" font-size="10.00">Std.instReflLeOfIsPreorder</text>
</a>
</g>
</g>
<!-- Std.instReflLeOfIsPreorder&#45;&gt;L4YAML.Proofs.ParserGrammable.flowBracketBalance_compose -->
<g id="edge12" class="edge">
<title>Std.instReflLeOfIsPreorder&#45;&gt;L4YAML.Proofs.ParserGrammable.flowBracketBalance_compose</title>
<path fill="none" stroke="#e67e22" stroke-width="2" d="M284.12,-565.26C342.44,-557.82 428.08,-546.88 500.58,-537.63"/>
<polygon fill="#e67e22" stroke="#e67e22" stroke-width="2" points="500.92,-540.05 507.55,-536.74 500.3,-535.19 500.92,-540.05"/>
</g>
<!-- Std.le_refl._simp_1 -->
<g id="node14" class="node">
<title>Std.le_refl._simp_1</title>
<g id="a_node14"><a xlink:href="../../../api/Init/Data/Order/Lemmas.html#Std.le_refl._simp_1" xlink:title="Std.le_refl._simp_1" target="_blank">
<ellipse fill="#fdebd0" stroke="#e67e22" cx="214.7" cy="-520" rx="59.41" ry="18"/>
<text text-anchor="middle" x="214.7" y="-517.5" font-family="Helvetica" font-size="10.00">Std.le_refl._simp_1</text>
</a>
</g>
</g>
<!-- Std.le_refl._simp_1&#45;&gt;L4YAML.Proofs.ParserGrammable.flowBracketBalance_compose -->
<g id="edge13" class="edge">
<title>Std.le_refl._simp_1&#45;&gt;L4YAML.Proofs.ParserGrammable.flowBracketBalance_compose</title>
<path fill="none" stroke="#e67e22" stroke-width="2" d="M274.5,-520C318.65,-520 381.8,-520 443.15,-520"/>
<polygon fill="#e67e22" stroke="#e67e22" stroke-width="2" points="443.24,-522.45 450.24,-520 443.24,-517.55 443.24,-522.45"/>
</g>
<!-- List.take_add -->
<g id="node15" class="node">
<title>List.take_add</title>
<g id="a_node15"><a xlink:href="../../../api/Init/Data/List/Nat/TakeDrop.html#List.take_add" xlink:title="List.take_add" target="_blank">
<ellipse fill="#fdebd0" stroke="#e67e22" cx="214.7" cy="-466" rx="43.62" ry="18"/>
<text text-anchor="middle" x="214.7" y="-463.5" font-family="Helvetica" font-size="10.00">List.take_add</text>
</a>
</g>
</g>
<!-- List.take_add&#45;&gt;L4YAML.Proofs.ParserGrammable.flowBracketBalance_compose -->
<g id="edge14" class="edge">
<title>List.take_add&#45;&gt;L4YAML.Proofs.ParserGrammable.flowBracketBalance_compose</title>
<path fill="none" stroke="#e67e22" stroke-width="2" d="M256.63,-471.23C312.59,-478.37 415.71,-491.54 500.71,-502.39"/>
<polygon fill="#e67e22" stroke="#e67e22" stroke-width="2" points="500.58,-504.84 507.84,-503.3 501.2,-499.98 500.58,-504.84"/>
</g>
<!-- ge_iff_le._simp_1 -->
<g id="node16" class="node">
<title>ge_iff_le._simp_1</title>
<g id="a_node16"><a xlink:href="../../../api/Init/Core.html#ge_iff_le._simp_1" xlink:title="ge_iff_le._simp_1" target="_blank">
<ellipse fill="#fdebd0" stroke="#e67e22" cx="214.7" cy="-412" rx="54.31" ry="18"/>
<text text-anchor="middle" x="214.7" y="-409.5" font-family="Helvetica" font-size="10.00">ge_iff_le._simp_1</text>
</a>
</g>
</g>
<!-- ge_iff_le._simp_1&#45;&gt;L4YAML.Proofs.ParserGrammable.flowBracketBalance_compose -->
<g id="edge15" class="edge">
<title>ge_iff_le._simp_1&#45;&gt;L4YAML.Proofs.ParserGrammable.flowBracketBalance_compose</title>
<path fill="none" stroke="#e67e22" stroke-width="2" d="M267.38,-407.41C311.53,-406.01 375.07,-410.17 421.39,-439 428.2,-443.23 424.99,-449.18 431.39,-454 458.85,-474.68 492.98,-489 525.57,-498.86"/>
<polygon fill="#e67e22" stroke="#e67e22" stroke-width="2" points="525.09,-501.27 532.49,-500.9 526.47,-496.57 525.09,-501.27"/>
</g>
<!-- List.foldl_append -->
<g id="node17" class="node">
<title>List.foldl_append</title>
<g id="a_node17"><a xlink:href="../../../api/Init/Data/List/Lemmas.html#List.foldl_append" xlink:title="List.foldl_append" target="_blank">
<ellipse fill="#fdebd0" stroke="#e67e22" cx="214.7" cy="-358" rx="52.28" ry="18"/>
<text text-anchor="middle" x="214.7" y="-355.5" font-family="Helvetica" font-size="10.00">List.foldl_append</text>
</a>
</g>
</g>
<!-- List.foldl_append&#45;&gt;L4YAML.Proofs.ParserGrammable.flowBracketBalance_compose -->
<g id="edge16" class="edge">
<title>List.foldl_append&#45;&gt;L4YAML.Proofs.ParserGrammable.flowBracketBalance_compose</title>
<path fill="none" stroke="#e67e22" stroke-width="2" d="M262.25,-350.36C308.43,-345.59 378.36,-346.4 421.39,-385 435.36,-397.52 419.42,-411.56 431.39,-426 459.75,-460.22 503.21,-482.51 543.01,-496.76"/>
<polygon fill="#e67e22" stroke="#e67e22" stroke-width="2" points="542.46,-499.16 549.88,-499.15 544.07,-494.53 542.46,-499.16"/>
</g>
<!-- eq_self -->
<g id="node18" class="node">
<title>eq_self</title>
<g id="a_node18"><a xlink:href="../../../api/Init/SimpLemmas.html#eq_self" xlink:title="eq_self" target="_blank">
<ellipse fill="#fdebd0" stroke="#e67e22" cx="214.7" cy="-304" rx="28.01" ry="18"/>
<text text-anchor="middle" x="214.7" y="-301.5" font-family="Helvetica" font-size="10.00">eq_self</text>
</a>
</g>
</g>
<!-- eq_self&#45;&gt;L4YAML.Proofs.ParserGrammable.flowBracketBalance_compose -->
<g id="edge17" class="edge">
<title>eq_self&#45;&gt;L4YAML.Proofs.ParserGrammable.flowBracketBalance_compose</title>
<path fill="none" stroke="#e67e22" stroke-width="2" d="M241.94,-298.6C285.59,-291.3 373.07,-284.08 421.39,-331 441.42,-350.44 415.85,-369.81 431.39,-393 464.04,-441.71 522.31,-474.96 568.76,-495.18"/>
<polygon fill="#e67e22" stroke="#e67e22" stroke-width="2" points="567.83,-497.45 575.23,-497.95 569.76,-492.94 567.83,-497.45"/>
</g>
<!-- Decidable.byContradiction -->
<g id="node19" class="node">
<title>Decidable.byContradiction</title>
<g id="a_node19"><a xlink:href="../../../api/Init/Core.html#Decidable.byContradiction" xlink:title="Decidable.byContradiction" target="_blank">
<ellipse fill="#fdebd0" stroke="#e67e22" cx="214.7" cy="-250" rx="77.23" ry="18"/>
<text text-anchor="middle" x="214.7" y="-247.5" font-family="Helvetica" font-size="10.00">Decidable.byContradiction</text>
</a>
</g>
</g>
<!-- Decidable.byContradiction&#45;&gt;L4YAML.Proofs.ParserGrammable.flowBracketBalance_compose -->
<g id="edge18" class="edge">
<title>Decidable.byContradiction&#45;&gt;L4YAML.Proofs.ParserGrammable.flowBracketBalance_compose</title>
<path fill="none" stroke="#e67e22" stroke-width="2" d="M278.76,-239.91C324.61,-236.43 384.81,-240.49 421.39,-277 445.2,-300.75 414.95,-322.67 431.39,-352 467.78,-416.89 540.09,-466.49 588.92,-494.44"/>
<polygon fill="#e67e22" stroke="#e67e22" stroke-width="2" points="587.76,-496.6 595.06,-497.91 590.17,-492.33 587.76,-496.6"/>
</g>
<!-- of_eq_true -->
<g id="node20" class="node">
<title>of_eq_true</title>
<g id="a_node20"><a xlink:href="../../../api/Init/SimpLemmas.html#of_eq_true" xlink:title="of_eq_true" target="_blank">
<ellipse fill="#fdebd0" stroke="#e67e22" cx="214.7" cy="-196" rx="36.49" ry="18"/>
<text text-anchor="middle" x="214.7" y="-193.5" font-family="Helvetica" font-size="10.00">of_eq_true</text>
</a>
</g>
</g>
<!-- of_eq_true&#45;&gt;L4YAML.Proofs.ParserGrammable.flowBracketBalance_compose -->
<g id="edge19" class="edge">
<title>of_eq_true&#45;&gt;L4YAML.Proofs.ParserGrammable.flowBracketBalance_compose</title>
<path fill="none" stroke="#e67e22" stroke-width="2" d="M249.05,-189.37C294.65,-182.43 375.98,-178.01 421.39,-223 444.03,-245.43 417.79,-265.18 431.39,-294 471.68,-379.35 555.56,-454.88 603.33,-493.25"/>
<polygon fill="#e67e22" stroke="#e67e22" stroke-width="2" points="601.97,-495.3 608.97,-497.74 605.02,-491.47 601.97,-495.3"/>
</g>
<!-- Int.add_zero -->
<g id="node21" class="node">
<title>Int.add_zero</title>
<g id="a_node21"><a xlink:href="../../../api/Init/Data/Int/Lemmas.html#Int.add_zero" xlink:title="Int.add_zero" target="_blank">
<ellipse fill="#fdebd0" stroke="#e67e22" cx="214.7" cy="-142" rx="40.74" ry="18"/>
<text text-anchor="middle" x="214.7" y="-139.5" font-family="Helvetica" font-size="10.00">Int.add_zero</text>
</a>
</g>
</g>
<!-- Int.add_zero&#45;&gt;L4YAML.Proofs.ParserGrammable.flowBracketBalance_compose -->
<g id="edge20" class="edge">
<title>Int.add_zero&#45;&gt;L4YAML.Proofs.ParserGrammable.flowBracketBalance_compose</title>
<path fill="none" stroke="#e67e22" stroke-width="2" d="M252.84,-135.7C298.19,-130.26 374.61,-128.67 421.39,-169 433.65,-179.56 424.66,-189.29 431.39,-204 483.83,-318.53 574.19,-439.02 616.08,-492.1"/>
<polygon fill="#e67e22" stroke="#e67e22" stroke-width="2" points="614.2,-493.67 620.46,-497.63 618.04,-490.63 614.2,-493.67"/>
</g>
<!-- ite_cond_eq_false -->
<g id="node22" class="node">
<title>ite_cond_eq_false</title>
<g id="a_node22"><a xlink:href="../../../api/Init/SimpLemmas.html#ite_cond_eq_false" xlink:title="ite_cond_eq_false" target="_blank">
<ellipse fill="#fdebd0" stroke="#e67e22" cx="214.7" cy="-88" rx="55.85" ry="18"/>
<text text-anchor="middle" x="214.7" y="-85.5" font-family="Helvetica" font-size="10.00">ite_cond_eq_false</text>
</a>
</g>
</g>
<!-- ite_cond_eq_false&#45;&gt;L4YAML.Proofs.ParserGrammable.flowBracketBalance_compose -->
<g id="edge21" class="edge">
<title>ite_cond_eq_false&#45;&gt;L4YAML.Proofs.ParserGrammable.flowBracketBalance_compose</title>
<path fill="none" stroke="#e67e22" stroke-width="2" d="M268.1,-82.32C312.7,-80.22 376.5,-83.99 421.39,-115 556.86,-208.57 615.08,-414.42 632.57,-490.76"/>
<polygon fill="#e67e22" stroke="#e67e22" stroke-width="2" points="630.21,-491.44 634.13,-497.73 634.99,-490.37 630.21,-491.44"/>
</g>
<!-- Int.zero_add -->
<g id="node23" class="node">
<title>Int.zero_add</title>
<g id="a_node23"><a xlink:href="../../../api/Init/Data/Int/Lemmas.html#Int.zero_add" xlink:title="Int.zero_add" target="_blank">
<ellipse fill="#fdebd0" stroke="#e67e22" cx="214.7" cy="-34" rx="40.74" ry="18"/>
<text text-anchor="middle" x="214.7" y="-31.5" font-family="Helvetica" font-size="10.00">Int.zero_add</text>
</a>
</g>
</g>
<!-- Int.zero_add&#45;&gt;L4YAML.Proofs.ParserGrammable.flowBracketBalance_compose -->
<g id="edge22" class="edge">
<title>Int.zero_add&#45;&gt;L4YAML.Proofs.ParserGrammable.flowBracketBalance_compose</title>
<path fill="none" stroke="#e67e22" stroke-width="2" d="M253.77,-28.82C298.31,-24.87 372.2,-25.16 421.39,-61 570.62,-169.72 621.07,-407.75 634.49,-490.75"/>
<polygon fill="#e67e22" stroke="#e67e22" stroke-width="2" points="632.1,-491.3 635.61,-497.83 636.94,-490.54 632.1,-491.3"/>
</g>
</g>
</svg>
