<?xml version="1.0" encoding="UTF-8" standalone="no"?>
<!DOCTYPE svg PUBLIC "-//W3C//DTD SVG 1.1//EN"
 "http://www.w3.org/Graphics/SVG/1.1/DTD/svg11.dtd">
<!-- Generated by graphviz version 2.44.0 (0)
 -->
<!-- Title: chain_ParserGrammable.flowBracketBalance_single Pages: 1 -->
<svg width="1182pt" height="310pt"
 viewBox="0.00 0.00 1182.00 310.00" xmlns="http://www.w3.org/2000/svg" xmlns:xlink="http://www.w3.org/1999/xlink">
<g id="graph0" class="graph" transform="scale(1 1) rotate(0) translate(4 306)">
<title>chain_ParserGrammable.flowBracketBalance_single</title>
<polygon fill="white" stroke="transparent" points="-4,4 -4,-306 1178,-306 1178,4 -4,4"/>
<text text-anchor="middle" x="587" y="-287.6" font-family="Helvetica Bold" font-size="13.00">Functorial Chains: ParserGrammable.flowBracketBalance_single\n(heuristic: used by 7 proofs)</text>
<g id="clust1" class="cluster">
<title>cluster_fns</title>
<polygon fill="none" stroke="#4a90d9" stroke-dasharray="5,2" points="678,-8 678,-163 1166,-163 1166,-8 678,-8"/>
<text text-anchor="middle" x="922" y="-148.6" font-family="Helvetica Bold" font-size="13.00" fill="#4a90d9">Functions (Call Chain)</text>
</g>
<g id="clust2" class="cluster">
<title>cluster_thms</title>
<polygon fill="none" stroke="#28a745" stroke-dasharray="5,2" points="8,-89 8,-272 670,-272 670,-89 8,-89"/>
<text text-anchor="middle" x="339" y="-257.6" font-family="Helvetica Bold" font-size="13.00" fill="#28a745">Theorems (Proof Chain)</text>
</g>
<!-- L4YAML.Positioned -->
<g id="node1" class="node">
<title>L4YAML.Positioned</title>
<g id="a_node1"><a xlink:href="../../../api/L4YAML/Token/Token.html#L4YAML.Positioned" xlink:title="Positioned" target="_blank">
<polygon fill="#dce9f7" stroke="#4a90d9" points="752,-52 690,-52 690,-16 752,-16 752,-52"/>
<text text-anchor="middle" x="721" y="-31.5" font-family="Helvetica" font-size="10.00">Positioned</text>
</a>
</g>
</g>
<!-- L4YAML.Positioned.val -->
<g id="node2" class="node">
<title>L4YAML.Positioned.val</title>
<g id="a_node2"><a xlink:href="../../../api/L4YAML/Token/Token.html#L4YAML.Positioned.val" xlink:title="Positioned.val" target="_blank">
<polygon fill="#dce9f7" stroke="#4a90d9" points="763.5,-133 686.5,-133 686.5,-97 763.5,-97 763.5,-133"/>
<text text-anchor="middle" x="725" y="-112.5" font-family="Helvetica" font-size="10.00">Positioned.val</text>
</a>
</g>
</g>
<!-- L4YAML.Positioned.val&#45;&gt;L4YAML.Positioned -->
<g id="edge11" class="edge">
<title>L4YAML.Positioned.val&#45;&gt;L4YAML.Positioned</title>
<path fill="none" stroke="#4a90d9" stroke-width="2" d="M724.13,-96.86C723.58,-85.88 722.85,-71.48 722.23,-59.33"/>
<polygon fill="#4a90d9" stroke="#4a90d9" stroke-width="2" points="724.67,-58.98 721.87,-52.11 719.77,-59.22 724.67,-58.98"/>
<text text-anchor="middle" x="732.5" y="-72.6" font-family="Times-Roman" font-size="8.00">calls</text>
</g>
<!-- L4YAML.YamlToken -->
<g id="node3" class="node">
<title>L4YAML.YamlToken</title>
<g id="a_node3"><a xlink:href="../../../api/L4YAML/Token/Token.html#L4YAML.YamlToken" xlink:title="YamlToken" target="_blank">
<polygon fill="#dce9f7" stroke="#4a90d9" points="864,-52 800,-52 800,-16 864,-16 864,-52"/>
<text text-anchor="middle" x="832" y="-31.5" font-family="Helvetica" font-size="10.00">YamlToken</text>
</a>
</g>
</g>
<!-- L4YAML.Proofs.ParserGrammable.flowBracketBalance -->
<g id="node4" class="node">
<title>L4YAML.Proofs.ParserGrammable.flowBracketBalance</title>
<g id="a_node4"><a xlink:href="../../../api/L4YAML/Proofs/Parser/ParserGrammableBase.html#L4YAML.Proofs.ParserGrammable.flowBracketBalance" xlink:title="ParserGrammable.flowBracketBalance" target="_blank">
<polygon fill="#dce9f7" stroke="#4a90d9" points="966.5,-133 781.5,-133 781.5,-97 966.5,-97 966.5,-133"/>
<text text-anchor="middle" x="874" y="-112.5" font-family="Helvetica" font-size="10.00">ParserGrammable.flowBracketBalance</text>
</a>
</g>
</g>
<!-- L4YAML.Proofs.ParserGrammable.flowBracketBalance&#45;&gt;L4YAML.Positioned -->
<g id="edge2" class="edge">
<title>L4YAML.Proofs.ParserGrammable.flowBracketBalance&#45;&gt;L4YAML.Positioned</title>
<path fill="none" stroke="#4a90d9" stroke-width="2" d="M840.8,-96.86C816.49,-84.31 783.49,-67.27 758.28,-54.25"/>
<polygon fill="#4a90d9" stroke="#4a90d9" stroke-width="2" points="759.39,-52.07 752.05,-51.03 757.14,-56.42 759.39,-52.07"/>
<text text-anchor="middle" x="811.5" y="-72.6" font-family="Times-Roman" font-size="8.00">calls</text>
</g>
<!-- L4YAML.Proofs.ParserGrammable.flowBracketBalance&#45;&gt;L4YAML.YamlToken -->
<g id="edge13" class="edge">
<title>L4YAML.Proofs.ParserGrammable.flowBracketBalance&#45;&gt;L4YAML.YamlToken</title>
<path fill="none" stroke="#4a90d9" stroke-width="2" d="M864.89,-96.86C858.89,-85.57 850.96,-70.66 844.39,-58.3"/>
<polygon fill="#4a90d9" stroke="#4a90d9" stroke-width="2" points="846.54,-57.14 841.1,-52.11 842.22,-59.44 846.54,-57.14"/>
<text text-anchor="middle" x="863.5" y="-72.6" font-family="Times-Roman" font-size="8.00">calls</text>
</g>
<!-- L4YAML.Proofs.ParserGrammable.flowBracketDelta -->
<g id="node5" class="node">
<title>L4YAML.Proofs.ParserGrammable.flowBracketDelta</title>
<g id="a_node5"><a xlink:href="../../../api/L4YAML/Proofs/Parser/ParserGrammableBase.html#L4YAML.Proofs.ParserGrammable.flowBracketDelta" xlink:title="ParserGrammable.flowBracketDelta" target="_blank">
<polygon fill="#dce9f7" stroke="#4a90d9" points="1157.5,-133 984.5,-133 984.5,-97 1157.5,-97 1157.5,-133"/>
<text text-anchor="middle" x="1071" y="-112.5" font-family="Helvetica" font-size="10.00">ParserGrammable.flowBracketDelta</text>
</a>
</g>
</g>
<!-- L4YAML.Proofs.ParserGrammable.flowBracketDelta&#45;&gt;L4YAML.YamlToken -->
<g id="edge6" class="edge">
<title>L4YAML.Proofs.ParserGrammable.flowBracketDelta&#45;&gt;L4YAML.YamlToken</title>
<path fill="none" stroke="#4a90d9" stroke-width="2" d="M1019.43,-96.96C974.81,-82.21 911.26,-61.2 870.83,-47.83"/>
<polygon fill="#4a90d9" stroke="#4a90d9" stroke-width="2" points="871.47,-45.46 864.05,-45.59 869.93,-50.12 871.47,-45.46"/>
<text text-anchor="middle" x="967.5" y="-72.6" font-family="Times-Roman" font-size="8.00">calls</text>
</g>
<!-- L4YAML.Proofs.ParserGrammable.flowBracketBalance_single -->
<g id="node6" class="node">
<title>L4YAML.Proofs.ParserGrammable.flowBracketBalance_single</title>
<g id="a_node6"><a xlink:href="../../../api/L4YAML/Proofs/Parser/ParserGrammableBase.html#L4YAML.Proofs.ParserGrammable.flowBracketBalance_single" xlink:title="ParserGrammable.flowBracketBalance_single" target="_blank">
<polygon fill="#fff3cd" stroke="#d4a017" points="657.75,-212.54 657.75,-227.46 577.06,-238 462.94,-238 382.25,-227.46 382.25,-212.54 462.94,-202 577.06,-202 657.75,-212.54"/>
<polygon fill="none" stroke="#d4a017" points="661.76,-209.03 661.76,-230.97 577.32,-242 462.68,-242 378.24,-230.97 378.24,-209.03 462.68,-198 577.32,-198 661.76,-209.03"/>
<text text-anchor="middle" x="520" y="-217.5" font-family="Helvetica" font-size="10.00">ParserGrammable.flowBracketBalance_single</text>
</a>
</g>
</g>
<!-- L4YAML.Proofs.ParserGrammable.flowBracketBalance_single&#45;&gt;L4YAML.Positioned.val -->
<g id="edge10" class="edge">
<title>L4YAML.Proofs.ParserGrammable.flowBracketBalance_single&#45;&gt;L4YAML.Positioned.val</title>
<path fill="none" stroke="#6f42c1" stroke-width="2" stroke-dasharray="5,2" d="M590.9,-199.74C617.99,-190.74 648.48,-178.53 674,-163 685.07,-156.26 695.85,-146.88 704.63,-138.27"/>
<polygon fill="#6f42c1" stroke="#6f42c1" stroke-width="2" points="706.63,-139.73 709.82,-133.04 703.15,-136.28 706.63,-139.73"/>
<text text-anchor="middle" x="670.5" y="-173.6" font-family="Times-Roman" font-size="8.00" fill="#6f42c1">about</text>
</g>
<!-- L4YAML.Proofs.ParserGrammable.flowBracketBalance_single&#45;&gt;L4YAML.Proofs.ParserGrammable.flowBracketBalance -->
<g id="edge1" class="edge">
<title>L4YAML.Proofs.ParserGrammable.flowBracketBalance_single&#45;&gt;L4YAML.Proofs.ParserGrammable.flowBracketBalance</title>
<path fill="none" stroke="#6f42c1" stroke-width="2" stroke-dasharray="5,2" d="M615.66,-202.93C663.57,-193.6 722.08,-180.25 773,-163 794.21,-155.81 816.89,-145.51 835.38,-136.39"/>
<polygon fill="#6f42c1" stroke="#6f42c1" stroke-width="2" points="836.82,-138.41 841.99,-133.09 834.63,-134.02 836.82,-138.41"/>
<text text-anchor="middle" x="758.5" y="-173.6" font-family="Times-Roman" font-size="8.00" fill="#6f42c1">about</text>
</g>
<!-- L4YAML.Proofs.ParserGrammable.flowBracketBalance_single&#45;&gt;L4YAML.Proofs.ParserGrammable.flowBracketDelta -->
<g id="edge5" class="edge">
<title>L4YAML.Proofs.ParserGrammable.flowBracketBalance_single&#45;&gt;L4YAML.Proofs.ParserGrammable.flowBracketDelta</title>
<path fill="none" stroke="#6f42c1" stroke-width="2" stroke-dasharray="5,2" d="M661.71,-213.88C753.02,-207.6 873.42,-193.7 976,-163 997.04,-156.7 1019.11,-146.06 1036.67,-136.5"/>
<polygon fill="#6f42c1" stroke="#6f42c1" stroke-width="2" points="1038,-138.57 1042.93,-133.03 1035.62,-134.28 1038,-138.57"/>
<text text-anchor="middle" x="952.5" y="-173.6" font-family="Times-Roman" font-size="8.00" fill="#6f42c1">about</text>
</g>
<!-- L4YAML.Proofs.ParserGrammable.flowBracketBalance_single._proof_1_2 -->
<g id="node7" class="node">
<title>L4YAML.Proofs.ParserGrammable.flowBracketBalance_single._proof_1_2</title>
<g id="a_node7"><a xlink:href="../../../api/L4YAML/Proofs/Parser/ParserGrammableBase.html#L4YAML.Proofs.ParserGrammable.flowBracketBalance_single._proof_1_2" xlink:title="ParserGrammable.flowBracketBalance_single._proof_1_2" target="_blank">
<ellipse fill="#d4edda" stroke="#28a745" cx="173" cy="-115" rx="157.35" ry="18"/>
<text text-anchor="middle" x="173" y="-112.5" font-family="Helvetica" font-size="10.00">ParserGrammable.flowBracketBalance_single._proof_1_2</text>
</a>
</g>
</g>
<!-- L4YAML.Proofs.ParserGrammable.flowBracketBalance_single&#45;&gt;L4YAML.Proofs.ParserGrammable.flowBracketBalance_single._proof_1_2 -->
<g id="edge3" class="edge">
<title>L4YAML.Proofs.ParserGrammable.flowBracketBalance_single&#45;&gt;L4YAML.Proofs.ParserGrammable.flowBracketBalance_single._proof_1_2</title>
<path fill="none" stroke="#28a745" stroke-width="2" d="M453.09,-199.14C389.66,-180.31 295.19,-152.27 233.84,-134.06"/>
<polygon fill="#28a745" stroke="#28a745" stroke-width="2" points="234.31,-131.64 226.9,-132 232.91,-136.34 234.31,-131.64"/>
<text text-anchor="middle" x="397" y="-173.6" font-family="Times-Roman" font-size="8.00">uses</text>
</g>
<!-- L4YAML.Proofs.ParserGrammable.flowBracketBalance_single._proof_1_3 -->
<g id="node8" class="node">
<title>L4YAML.Proofs.ParserGrammable.flowBracketBalance_single._proof_1_3</title>
<g id="a_node8"><a xlink:href="../../../api/L4YAML/Proofs/Parser/ParserGrammableBase.html#L4YAML.Proofs.ParserGrammable.flowBracketBalance_single._proof_1_3" xlink:title="ParserGrammable.flowBracketBalance_single._proof_1_3" target="_blank">
<ellipse fill="#d4edda" stroke="#28a745" cx="505" cy="-115" rx="157.35" ry="18"/>
<text text-anchor="middle" x="505" y="-112.5" font-family="Helvetica" font-size="10.00">ParserGrammable.flowBracketBalance_single._proof_1_3</text>
</a>
</g>
</g>
<!-- L4YAML.Proofs.ParserGrammable.flowBracketBalance_single&#45;&gt;L4YAML.Proofs.ParserGrammable.flowBracketBalance_single._proof_1_3 -->
<g id="edge7" class="edge">
<title>L4YAML.Proofs.ParserGrammable.flowBracketBalance_single&#45;&gt;L4YAML.Proofs.ParserGrammable.flowBracketBalance_single._proof_1_3</title>
<path fill="none" stroke="#28a745" stroke-width="2" d="M516.89,-197.66C514.46,-180.95 511.07,-157.71 508.54,-140.29"/>
<polygon fill="#28a745" stroke="#28a745" stroke-width="2" points="510.94,-139.8 507.51,-133.22 506.09,-140.5 510.94,-139.8"/>
<text text-anchor="middle" x="524" y="-173.6" font-family="Times-Roman" font-size="8.00">uses</text>
</g>
<!-- L4YAML.Proofs.ParserGrammable.flowBracketBalance_single._proof_1_2&#45;&gt;L4YAML.Positioned -->
<g id="edge4" class="edge">
<title>L4YAML.Proofs.ParserGrammable.flowBracketBalance_single._proof_1_2&#45;&gt;L4YAML.Positioned</title>
<path fill="none" stroke="#6f42c1" stroke-width="2" stroke-dasharray="5,2" d="M237.32,-98.55C278.25,-89.18 332.5,-77.6 381,-70 489.94,-52.92 619.89,-42.19 682.93,-37.6"/>
<polygon fill="#6f42c1" stroke="#6f42c1" stroke-width="2" points="683.11,-40.04 689.92,-37.09 682.76,-35.15 683.11,-40.04"/>
<text text-anchor="middle" x="393.5" y="-72.6" font-family="Times-Roman" font-size="8.00" fill="#6f42c1">about</text>
</g>
<!-- L4YAML.Proofs.ParserGrammable.flowBracketBalance_single._proof_1_2&#45;&gt;L4YAML.YamlToken -->
<g id="edge9" class="edge">
<title>L4YAML.Proofs.ParserGrammable.flowBracketBalance_single._proof_1_2&#45;&gt;L4YAML.YamlToken</title>
<path fill="none" stroke="#6f42c1" stroke-width="2" stroke-dasharray="5,2" d="M259.89,-99.94C285.34,-96.09 313.25,-92.12 339,-89 430.72,-77.89 453.97,-78.08 546,-70 641.52,-61.62 666.32,-67.21 761,-52 771.37,-50.33 782.47,-47.97 792.73,-45.52"/>
<polygon fill="#6f42c1" stroke="#6f42c1" stroke-width="2" points="793.47,-47.87 799.69,-43.83 792.31,-43.11 793.47,-47.87"/>
<text text-anchor="middle" x="558.5" y="-72.6" font-family="Times-Roman" font-size="8.00" fill="#6f42c1">about</text>
</g>
<!-- L4YAML.Proofs.ParserGrammable.flowBracketBalance_single._proof_1_3&#45;&gt;L4YAML.Positioned -->
<g id="edge12" class="edge">
<title>L4YAML.Proofs.ParserGrammable.flowBracketBalance_single._proof_1_3&#45;&gt;L4YAML.Positioned</title>
<path fill="none" stroke="#6f42c1" stroke-width="2" stroke-dasharray="5,2" d="M535.98,-97.32C553.31,-88.43 575.48,-77.76 596,-70 624.61,-59.18 658.02,-49.99 683.1,-43.75"/>
<polygon fill="#6f42c1" stroke="#6f42c1" stroke-width="2" points="683.73,-46.12 689.94,-42.07 682.56,-41.36 683.73,-46.12"/>
<text text-anchor="middle" x="608.5" y="-72.6" font-family="Times-Roman" font-size="8.00" fill="#6f42c1">about</text>
</g>
<!-- L4YAML.Proofs.ParserGrammable.flowBracketBalance_single._proof_1_3&#45;&gt;L4YAML.YamlToken -->
<g id="edge8" class="edge">
<title>L4YAML.Proofs.ParserGrammable.flowBracketBalance_single._proof_1_3&#45;&gt;L4YAML.YamlToken</title>
<path fill="none" stroke="#6f42c1" stroke-width="2" stroke-dasharray="5,2" d="M569.21,-98.49C635.75,-82.41 737.58,-57.81 792.91,-44.44"/>
<polygon fill="#6f42c1" stroke="#6f42c1" stroke-width="2" points="793.52,-46.82 799.75,-42.79 792.37,-42.05 793.52,-46.82"/>
<text text-anchor="middle" x="690.5" y="-72.6" font-family="Times-Roman" font-size="8.00" fill="#6f42c1">about</text>
</g>
</g>
</svg>
