<?xml version="1.0" encoding="UTF-8" standalone="no"?>
<!DOCTYPE svg PUBLIC "-//W3C//DTD SVG 1.1//EN"
 "http://www.w3.org/Graphics/SVG/1.1/DTD/svg11.dtd">
<!-- Generated by graphviz version 2.44.0 (0)
 -->
<!-- Title: chain_ScannerPlainScalarValid.FlowContextPSV_of_prefix_and_new Pages: 1 -->
<svg width="2337pt" height="486pt"
 viewBox="0.00 0.00 2337.00 486.00" xmlns="http://www.w3.org/2000/svg" xmlns:xlink="http://www.w3.org/1999/xlink">
<g id="graph0" class="graph" transform="scale(1 1) rotate(0) translate(4 482)">
<title>chain_ScannerPlainScalarValid.FlowContextPSV_of_prefix_and_new</title>
<polygon fill="white" stroke="transparent" points="-4,4 -4,-482 2333,-482 2333,4 -4,4"/>
<text text-anchor="middle" x="1164.5" y="-463.6" font-family="Helvetica Bold" font-size="13.00">Functorial Chains: ScannerPlainScalarValid.FlowContextPSV_of_prefix_and_new</text>
<text text-anchor="middle" x="1164.5" y="-449.6" font-family="Helvetica Bold" font-size="13.00">(heuristic: used by 14 proofs)</text>
<g id="clust1" class="cluster">
<title>cluster_fns</title>
<polygon fill="none" stroke="#4a90d9" stroke-dasharray="5,2" points="2103,-8 2103,-325 2321,-325 2321,-8 2103,-8"/>
<text text-anchor="middle" x="2212" y="-310.6" font-family="Helvetica Bold" font-size="13.00" fill="#4a90d9">Functions (Call Chain)</text>
</g>
<g id="clust2" class="cluster">
<title>cluster_thms</title>
<polygon fill="none" stroke="#28a745" stroke-dasharray="5,2" points="8,-89 8,-434 2095,-434 2095,-89 8,-89"/>
<text text-anchor="middle" x="1051.5" y="-419.6" font-family="Helvetica Bold" font-size="13.00" fill="#28a745">Theorems (Proof Chain)</text>
</g>
<!-- L4YAML.Positioned -->
<g id="node1" class="node">
<title>L4YAML.Positioned</title>
<polygon fill="#dce9f7" stroke="#4a90d9" points="2255,-52 2193,-52 2193,-16 2255,-16 2255,-52"/>
<text text-anchor="middle" x="2224" y="-31.5" font-family="Helvetica" font-size="10.00">Positioned</text>
</g>
<!-- L4YAML.Proofs.ScannerPlainScalarValid.flowNesting -->
<g id="node2" class="node">
<title>L4YAML.Proofs.ScannerPlainScalarValid.flowNesting</title>
<polygon fill="#dce9f7" stroke="#4a90d9" points="2296,-214 2118,-214 2118,-178 2296,-178 2296,-214"/>
<text text-anchor="middle" x="2207" y="-193.5" font-family="Helvetica" font-size="10.00">ScannerPlainScalarValid.flowNesting</text>
</g>
<!-- L4YAML.Proofs.ScannerPlainScalarValid.flowNesting.go -->
<g id="node5" class="node">
<title>L4YAML.Proofs.ScannerPlainScalarValid.flowNesting.go</title>
<polygon fill="#dce9f7" stroke="#4a90d9" points="2302.5,-133 2111.5,-133 2111.5,-97 2302.5,-97 2302.5,-133"/>
<text text-anchor="middle" x="2207" y="-112.5" font-family="Helvetica" font-size="10.00">ScannerPlainScalarValid.flowNesting.go</text>
</g>
<!-- L4YAML.Proofs.ScannerPlainScalarValid.flowNesting&#45;&gt;L4YAML.Proofs.ScannerPlainScalarValid.flowNesting.go -->
<g id="edge5" class="edge">
<title>L4YAML.Proofs.ScannerPlainScalarValid.flowNesting&#45;&gt;L4YAML.Proofs.ScannerPlainScalarValid.flowNesting.go</title>
<path fill="none" stroke="#4a90d9" stroke-width="2" d="M2207,-177.86C2207,-166.88 2207,-152.48 2207,-140.33"/>
<polygon fill="#4a90d9" stroke="#4a90d9" stroke-width="2" points="2209.45,-140.11 2207,-133.11 2204.55,-140.11 2209.45,-140.11"/>
<text text-anchor="middle" x="2216.5" y="-153.6" font-family="Times-Roman" font-size="8.00">calls</text>
</g>
<!-- L4YAML.Proofs.ScannerPlainScalarValid.FlowContextPSV -->
<g id="node3" class="node">
<title>L4YAML.Proofs.ScannerPlainScalarValid.FlowContextPSV</title>
<polygon fill="#dce9f7" stroke="#4a90d9" points="2312.5,-295 2111.5,-295 2111.5,-259 2312.5,-259 2312.5,-295"/>
<text text-anchor="middle" x="2212" y="-274.5" font-family="Helvetica" font-size="10.00">ScannerPlainScalarValid.FlowContextPSV</text>
</g>
<!-- L4YAML.Proofs.ScannerPlainScalarValid.FlowContextPSV&#45;&gt;L4YAML.Proofs.ScannerPlainScalarValid.flowNesting -->
<g id="edge2" class="edge">
<title>L4YAML.Proofs.ScannerPlainScalarValid.FlowContextPSV&#45;&gt;L4YAML.Proofs.ScannerPlainScalarValid.flowNesting</title>
<path fill="none" stroke="#4a90d9" stroke-width="2" d="M2210.92,-258.86C2210.22,-247.88 2209.31,-233.48 2208.54,-221.33"/>
<polygon fill="#4a90d9" stroke="#4a90d9" stroke-width="2" points="2210.97,-220.94 2208.08,-214.11 2206.08,-221.25 2210.97,-220.94"/>
<text text-anchor="middle" x="2218.5" y="-234.6" font-family="Times-Roman" font-size="8.00">calls</text>
</g>
<!-- L4YAML.YamlToken -->
<g id="node4" class="node">
<title>L4YAML.YamlToken</title>
<polygon fill="#dce9f7" stroke="#4a90d9" points="2175,-52 2111,-52 2111,-16 2175,-16 2175,-52"/>
<text text-anchor="middle" x="2143" y="-31.5" font-family="Helvetica" font-size="10.00">YamlToken</text>
</g>
<!-- L4YAML.Proofs.ScannerPlainScalarValid.flowNesting.go&#45;&gt;L4YAML.Positioned -->
<g id="edge11" class="edge">
<title>L4YAML.Proofs.ScannerPlainScalarValid.flowNesting.go&#45;&gt;L4YAML.Positioned</title>
<path fill="none" stroke="#4a90d9" stroke-width="2" d="M2210.69,-96.86C2213.07,-85.78 2216.21,-71.21 2218.84,-58.99"/>
<polygon fill="#4a90d9" stroke="#4a90d9" stroke-width="2" points="2221.24,-59.47 2220.32,-52.11 2216.45,-58.44 2221.24,-59.47"/>
<text text-anchor="middle" x="2225.5" y="-72.6" font-family="Times-Roman" font-size="8.00">calls</text>
</g>
<!-- L4YAML.Proofs.ScannerPlainScalarValid.flowNesting.go&#45;&gt;L4YAML.YamlToken -->
<g id="edge8" class="edge">
<title>L4YAML.Proofs.ScannerPlainScalarValid.flowNesting.go&#45;&gt;L4YAML.YamlToken</title>
<path fill="none" stroke="#4a90d9" stroke-width="2" d="M2193.11,-96.86C2183.8,-85.37 2171.45,-70.11 2161.33,-57.63"/>
<polygon fill="#4a90d9" stroke="#4a90d9" stroke-width="2" points="2163.17,-56.01 2156.86,-52.11 2159.36,-59.09 2163.17,-56.01"/>
<text text-anchor="middle" x="2185.5" y="-72.6" font-family="Times-Roman" font-size="8.00">calls</text>
</g>
<!-- L4YAML.Proofs.ScannerPlainScalarValid.flowNesting_go_prefix_stable._proof_1_1 -->
<g id="node6" class="node">
<title>L4YAML.Proofs.ScannerPlainScalarValid.flowNesting_go_prefix_stable._proof_1_1</title>
<ellipse fill="#d4edda" stroke="#28a745" cx="573" cy="-115" rx="179.58" ry="18"/>
<text text-anchor="middle" x="573" y="-112.5" font-family="Helvetica" font-size="10.00">ScannerPlainScalarValid.flowNesting_go_prefix_stable._proof_1_1</text>
</g>
<!-- L4YAML.Proofs.ScannerPlainScalarValid.flowNesting_go_prefix_stable._proof_1_1&#45;&gt;L4YAML.Positioned -->
<g id="edge19" class="edge">
<title>L4YAML.Proofs.ScannerPlainScalarValid.flowNesting_go_prefix_stable._proof_1_1&#45;&gt;L4YAML.Positioned</title>
<path fill="none" stroke="#999999" stroke-dasharray="1,5" d="M668.96,-99.74C698.43,-95.77 731,-91.78 761,-89 920.98,-74.18 961.43,-75.58 1122,-70 1239.95,-65.9 2068.56,-76.53 2184,-52 2184.65,-51.86 2185.29,-51.72 2185.94,-51.56"/>
<polygon fill="#999999" stroke="#999999" points="2186.88,-53.84 2192.93,-49.54 2185.53,-49.13 2186.88,-53.84"/>
<text text-anchor="middle" x="1134.5" y="-72.6" font-family="Times-Roman" font-size="8.00">about</text>
</g>
<!-- L4YAML.Proofs.ScannerPlainScalarValid.flowNesting_go_prefix_stable._proof_1_1&#45;&gt;L4YAML.YamlToken -->
<g id="edge18" class="edge">
<title>L4YAML.Proofs.ScannerPlainScalarValid.flowNesting_go_prefix_stable._proof_1_1&#45;&gt;L4YAML.YamlToken</title>
<path fill="none" stroke="#999999" stroke-dasharray="1,5" d="M639.7,-98.19C685.15,-88.16 746.86,-75.98 802,-70 1064.03,-41.6 1910.98,-36.06 2103.72,-35.16"/>
<polygon fill="#999999" stroke="#999999" points="2103.84,-37.61 2110.83,-35.12 2103.82,-32.71 2103.84,-37.61"/>
<text text-anchor="middle" x="814.5" y="-72.6" font-family="Times-Roman" font-size="8.00">about</text>
</g>
<!-- L4YAML.Proofs.ScannerPlainScalarValid.flowNesting_go_prefix_stable -->
<g id="node7" class="node">
<title>L4YAML.Proofs.ScannerPlainScalarValid.flowNesting_go_prefix_stable</title>
<ellipse fill="#d4edda" stroke="#28a745" cx="1265" cy="-196" rx="149.54" ry="18"/>
<text text-anchor="middle" x="1265" y="-193.5" font-family="Helvetica" font-size="10.00">ScannerPlainScalarValid.flowNesting_go_prefix_stable</text>
</g>
<!-- L4YAML.Proofs.ScannerPlainScalarValid.flowNesting_go_prefix_stable&#45;&gt;L4YAML.Proofs.ScannerPlainScalarValid.flowNesting.go -->
<g id="edge7" class="edge">
<title>L4YAML.Proofs.ScannerPlainScalarValid.flowNesting_go_prefix_stable&#45;&gt;L4YAML.Proofs.ScannerPlainScalarValid.flowNesting.go</title>
<path fill="none" stroke="#999999" stroke-dasharray="1,5" d="M1400.38,-188.35C1565.64,-179.45 1853.45,-161.4 2099,-133 2100.77,-132.79 2102.56,-132.58 2104.36,-132.36"/>
<polygon fill="#999999" stroke="#999999" points="2104.72,-134.79 2111.36,-131.48 2104.11,-129.92 2104.72,-134.79"/>
<text text-anchor="middle" x="1928.5" y="-153.6" font-family="Times-Roman" font-size="8.00">about</text>
</g>
<!-- L4YAML.Proofs.ScannerPlainScalarValid.flowNesting_go_prefix_stable&#45;&gt;L4YAML.Proofs.ScannerPlainScalarValid.flowNesting_go_prefix_stable._proof_1_1 -->
<g id="edge17" class="edge">
<title>L4YAML.Proofs.ScannerPlainScalarValid.flowNesting_go_prefix_stable&#45;&gt;L4YAML.Proofs.ScannerPlainScalarValid.flowNesting_go_prefix_stable._proof_1_1</title>
<path fill="none" stroke="#28a745" stroke-width="2" d="M1160.65,-183.09C1035.37,-168.78 825.66,-144.84 693.57,-129.76"/>
<polygon fill="#28a745" stroke="#28a745" stroke-width="2" points="693.79,-127.32 686.55,-128.96 693.23,-132.19 693.79,-127.32"/>
<text text-anchor="middle" x="949" y="-153.6" font-family="Times-Roman" font-size="8.00">uses</text>
</g>
<!-- L4YAML.Proofs.ScannerPlainScalarValid.flowNesting.go.eq_def -->
<g id="node8" class="node">
<title>L4YAML.Proofs.ScannerPlainScalarValid.flowNesting.go.eq_def</title>
<ellipse fill="#d4edda" stroke="#28a745" cx="1173" cy="-115" rx="131.72" ry="18"/>
<text text-anchor="middle" x="1173" y="-112.5" font-family="Helvetica" font-size="10.00">ScannerPlainScalarValid.flowNesting.go.eq_def</text>
</g>
<!-- L4YAML.Proofs.ScannerPlainScalarValid.flowNesting_go_prefix_stable&#45;&gt;L4YAML.Proofs.ScannerPlainScalarValid.flowNesting.go.eq_def -->
<g id="edge20" class="edge">
<title>L4YAML.Proofs.ScannerPlainScalarValid.flowNesting_go_prefix_stable&#45;&gt;L4YAML.Proofs.ScannerPlainScalarValid.flowNesting.go.eq_def</title>
<path fill="none" stroke="#28a745" stroke-width="2" d="M1245.04,-177.86C1231.32,-166.08 1213,-150.35 1198.27,-137.7"/>
<polygon fill="#28a745" stroke="#28a745" stroke-width="2" points="1199.51,-135.54 1192.61,-132.84 1196.32,-139.26 1199.51,-135.54"/>
<text text-anchor="middle" x="1231" y="-153.6" font-family="Times-Roman" font-size="8.00">uses</text>
</g>
<!-- L4YAML.Proofs.ScannerPlainScalarValid.PlainScalarsValid_of_prefix_and_new._proof_1 -->
<g id="node10" class="node">
<title>L4YAML.Proofs.ScannerPlainScalarValid.PlainScalarsValid_of_prefix_and_new._proof_1</title>
<ellipse fill="#d4edda" stroke="#28a745" cx="1893" cy="-115" rx="193.84" ry="18"/>
<text text-anchor="middle" x="1893" y="-112.5" font-family="Helvetica" font-size="10.00">ScannerPlainScalarValid.PlainScalarsValid_of_prefix_and_new._proof_1</text>
</g>
<!-- L4YAML.Proofs.ScannerPlainScalarValid.flowNesting_go_prefix_stable&#45;&gt;L4YAML.Proofs.ScannerPlainScalarValid.PlainScalarsValid_of_prefix_and_new._proof_1 -->
<g id="edge12" class="edge">
<title>L4YAML.Proofs.ScannerPlainScalarValid.flowNesting_go_prefix_stable&#45;&gt;L4YAML.Proofs.ScannerPlainScalarValid.PlainScalarsValid_of_prefix_and_new._proof_1</title>
<path fill="none" stroke="#28a745" stroke-width="2" d="M1364.16,-182.53C1475.91,-168.47 1657.4,-145.64 1776,-130.72"/>
<polygon fill="#28a745" stroke="#28a745" stroke-width="2" points="1776.37,-133.14 1783.01,-129.84 1775.76,-128.28 1776.37,-133.14"/>
<text text-anchor="middle" x="1607" y="-153.6" font-family="Times-Roman" font-size="8.00">uses</text>
</g>
<!-- L4YAML.Proofs.ScannerPlainScalarValid.flowNesting_go_prefix_stable._proof_1_4 -->
<g id="node11" class="node">
<title>L4YAML.Proofs.ScannerPlainScalarValid.flowNesting_go_prefix_stable._proof_1_4</title>
<ellipse fill="#d4edda" stroke="#28a745" cx="1502" cy="-115" rx="179.58" ry="18"/>
<text text-anchor="middle" x="1502" y="-112.5" font-family="Helvetica" font-size="10.00">ScannerPlainScalarValid.flowNesting_go_prefix_stable._proof_1_4</text>
</g>
<!-- L4YAML.Proofs.ScannerPlainScalarValid.flowNesting_go_prefix_stable&#45;&gt;L4YAML.Proofs.ScannerPlainScalarValid.flowNesting_go_prefix_stable._proof_1_4 -->
<g id="edge14" class="edge">
<title>L4YAML.Proofs.ScannerPlainScalarValid.flowNesting_go_prefix_stable&#45;&gt;L4YAML.Proofs.ScannerPlainScalarValid.flowNesting_go_prefix_stable._proof_1_4</title>
<path fill="none" stroke="#28a745" stroke-width="2" d="M1313.25,-178.92C1351.76,-166.08 1405.76,-148.08 1446.14,-134.62"/>
<polygon fill="#28a745" stroke="#28a745" stroke-width="2" points="1447.14,-136.87 1453.01,-132.33 1445.59,-132.22 1447.14,-136.87"/>
<text text-anchor="middle" x="1400" y="-153.6" font-family="Times-Roman" font-size="8.00">uses</text>
</g>
<!-- L4YAML.Proofs.ScannerPlainScalarValid.flowNesting_go_prefix_stable._proof_1_3 -->
<g id="node12" class="node">
<title>L4YAML.Proofs.ScannerPlainScalarValid.flowNesting_go_prefix_stable._proof_1_3</title>
<ellipse fill="#d4edda" stroke="#28a745" cx="196" cy="-115" rx="179.58" ry="18"/>
<text text-anchor="middle" x="196" y="-112.5" font-family="Helvetica" font-size="10.00">ScannerPlainScalarValid.flowNesting_go_prefix_stable._proof_1_3</text>
</g>
<!-- L4YAML.Proofs.ScannerPlainScalarValid.flowNesting_go_prefix_stable&#45;&gt;L4YAML.Proofs.ScannerPlainScalarValid.flowNesting_go_prefix_stable._proof_1_3 -->
<g id="edge23" class="edge">
<title>L4YAML.Proofs.ScannerPlainScalarValid.flowNesting_go_prefix_stable&#45;&gt;L4YAML.Proofs.ScannerPlainScalarValid.flowNesting_go_prefix_stable._proof_1_3</title>
<path fill="none" stroke="#28a745" stroke-width="2" d="M1136.55,-186.76C964.95,-175.58 651.46,-154.5 384,-133 366.48,-131.59 348.05,-130.03 329.86,-128.43"/>
<polygon fill="#28a745" stroke="#28a745" stroke-width="2" points="329.82,-125.97 322.63,-127.8 329.39,-130.85 329.82,-125.97"/>
<text text-anchor="middle" x="732" y="-153.6" font-family="Times-Roman" font-size="8.00">uses</text>
</g>
<!-- L4YAML.Proofs.ScannerPlainScalarValid.flowNesting.go.eq_1 -->
<g id="node14" class="node">
<title>L4YAML.Proofs.ScannerPlainScalarValid.flowNesting.go.eq_1</title>
<ellipse fill="#d4edda" stroke="#28a745" cx="897" cy="-115" rx="126.63" ry="18"/>
<text text-anchor="middle" x="897" y="-112.5" font-family="Helvetica" font-size="10.00">ScannerPlainScalarValid.flowNesting.go.eq_1</text>
</g>
<!-- L4YAML.Proofs.ScannerPlainScalarValid.flowNesting_go_prefix_stable&#45;&gt;L4YAML.Proofs.ScannerPlainScalarValid.flowNesting.go.eq_1 -->
<g id="edge9" class="edge">
<title>L4YAML.Proofs.ScannerPlainScalarValid.flowNesting_go_prefix_stable&#45;&gt;L4YAML.Proofs.ScannerPlainScalarValid.flowNesting.go.eq_1</title>
<path fill="none" stroke="#28a745" stroke-width="2" d="M1195.35,-180.05C1131.22,-166.28 1036.37,-145.92 970.92,-131.87"/>
<polygon fill="#28a745" stroke="#28a745" stroke-width="2" points="971.24,-129.43 963.88,-130.36 970.21,-134.22 971.24,-129.43"/>
<text text-anchor="middle" x="1102" y="-153.6" font-family="Times-Roman" font-size="8.00">uses</text>
</g>
<!-- L4YAML.Proofs.ScannerPlainScalarValid.flowNesting.go.eq_def&#45;&gt;L4YAML.Positioned -->
<g id="edge22" class="edge">
<title>L4YAML.Proofs.ScannerPlainScalarValid.flowNesting.go.eq_def&#45;&gt;L4YAML.Positioned</title>
<path fill="none" stroke="#999999" stroke-dasharray="1,5" d="M1241.78,-99.58C1264.37,-95.42 1289.66,-91.37 1313,-89 1486.39,-71.41 1530.89,-86.58 1705,-79 1769.95,-76.17 1786.1,-73.75 1851,-70 1924.98,-65.72 2111.81,-68.75 2184,-52 2184.64,-51.85 2185.29,-51.69 2185.94,-51.52"/>
<polygon fill="#999999" stroke="#999999" points="2186.91,-53.79 2192.9,-49.43 2185.49,-49.1 2186.91,-53.79"/>
<text text-anchor="middle" x="1863.5" y="-72.6" font-family="Times-Roman" font-size="8.00">about</text>
</g>
<!-- L4YAML.Proofs.ScannerPlainScalarValid.flowNesting.go.eq_def&#45;&gt;L4YAML.YamlToken -->
<g id="edge21" class="edge">
<title>L4YAML.Proofs.ScannerPlainScalarValid.flowNesting.go.eq_def&#45;&gt;L4YAML.YamlToken</title>
<path fill="none" stroke="#999999" stroke-dasharray="1,5" d="M1244.37,-99.81C1266.31,-95.83 1290.59,-91.83 1313,-89 1615.75,-50.75 1984.26,-38.85 2103.65,-35.86"/>
<polygon fill="#999999" stroke="#999999" points="2103.88,-38.31 2110.82,-35.69 2103.76,-33.41 2103.88,-38.31"/>
<text text-anchor="middle" x="1483.5" y="-72.6" font-family="Times-Roman" font-size="8.00">about</text>
</g>
<!-- L4YAML.Proofs.ScannerPlainScalarValid.flowNesting_prefix_stable -->
<g id="node9" class="node">
<title>L4YAML.Proofs.ScannerPlainScalarValid.flowNesting_prefix_stable</title>
<ellipse fill="#d4edda" stroke="#28a745" cx="1899" cy="-277" rx="140.88" ry="18"/>
<text text-anchor="middle" x="1899" y="-274.5" font-family="Helvetica" font-size="10.00">ScannerPlainScalarValid.flowNesting_prefix_stable</text>
</g>
<!-- L4YAML.Proofs.ScannerPlainScalarValid.flowNesting_prefix_stable&#45;&gt;L4YAML.Proofs.ScannerPlainScalarValid.flowNesting -->
<g id="edge4" class="edge">
<title>L4YAML.Proofs.ScannerPlainScalarValid.flowNesting_prefix_stable&#45;&gt;L4YAML.Proofs.ScannerPlainScalarValid.flowNesting</title>
<path fill="none" stroke="#999999" stroke-dasharray="1,5" d="M1958.75,-260.67C2008.64,-247.88 2079.98,-229.58 2133.39,-215.88"/>
<polygon fill="#999999" stroke="#999999" points="2134.3,-218.18 2140.47,-214.06 2133.08,-213.43 2134.3,-218.18"/>
<text text-anchor="middle" x="2074.5" y="-234.6" font-family="Times-Roman" font-size="8.00">about</text>
</g>
<!-- L4YAML.Proofs.ScannerPlainScalarValid.flowNesting_prefix_stable&#45;&gt;L4YAML.Proofs.ScannerPlainScalarValid.flowNesting_go_prefix_stable -->
<g id="edge6" class="edge">
<title>L4YAML.Proofs.ScannerPlainScalarValid.flowNesting_prefix_stable&#45;&gt;L4YAML.Proofs.ScannerPlainScalarValid.flowNesting_go_prefix_stable</title>
<path fill="none" stroke="#28a745" stroke-width="2" d="M1802.02,-263.92C1685.96,-249.45 1492.25,-225.32 1371.95,-210.33"/>
<polygon fill="#28a745" stroke="#28a745" stroke-width="2" points="1372.1,-207.88 1364.85,-209.44 1371.49,-212.74 1372.1,-207.88"/>
<text text-anchor="middle" x="1611" y="-234.6" font-family="Times-Roman" font-size="8.00">uses</text>
</g>
<!-- L4YAML.Proofs.ScannerPlainScalarValid.PlainScalarsValid_of_prefix_and_new._proof_1&#45;&gt;L4YAML.Positioned -->
<g id="edge13" class="edge">
<title>L4YAML.Proofs.ScannerPlainScalarValid.PlainScalarsValid_of_prefix_and_new._proof_1&#45;&gt;L4YAML.Positioned</title>
<path fill="none" stroke="#999999" stroke-dasharray="1,5" d="M1984.94,-99.08C2042.79,-88.56 2118.61,-72.65 2184,-52 2184.72,-51.77 2185.44,-51.54 2186.17,-51.29"/>
<polygon fill="#999999" stroke="#999999" points="2187,-53.6 2192.77,-48.94 2185.36,-48.98 2187,-53.6"/>
<text text-anchor="middle" x="2125.5" y="-72.6" font-family="Times-Roman" font-size="8.00">about</text>
</g>
<!-- L4YAML.Proofs.ScannerPlainScalarValid.flowNesting_go_prefix_stable._proof_1_4&#45;&gt;L4YAML.Positioned -->
<g id="edge16" class="edge">
<title>L4YAML.Proofs.ScannerPlainScalarValid.flowNesting_go_prefix_stable._proof_1_4&#45;&gt;L4YAML.Positioned</title>
<path fill="none" stroke="#999999" stroke-dasharray="1,5" d="M1598.94,-99.78C1628.16,-95.85 1660.34,-91.88 1690,-89 1799.57,-78.35 2077.11,-78.33 2184,-52 2184.64,-51.84 2185.29,-51.68 2185.93,-51.5"/>
<polygon fill="#999999" stroke="#999999" points="2186.92,-53.76 2192.88,-49.34 2185.47,-49.08 2186.92,-53.76"/>
<text text-anchor="middle" x="2052.5" y="-72.6" font-family="Times-Roman" font-size="8.00">about</text>
</g>
<!-- L4YAML.Proofs.ScannerPlainScalarValid.flowNesting_go_prefix_stable._proof_1_4&#45;&gt;L4YAML.YamlToken -->
<g id="edge15" class="edge">
<title>L4YAML.Proofs.ScannerPlainScalarValid.flowNesting_go_prefix_stable._proof_1_4&#45;&gt;L4YAML.YamlToken</title>
<path fill="none" stroke="#999999" stroke-dasharray="1,5" d="M1541.28,-97.35C1566,-87.65 1598.82,-76.14 1629,-70 1719.73,-51.54 1999.88,-40.05 2103.73,-36.33"/>
<polygon fill="#999999" stroke="#999999" points="2103.99,-38.77 2110.9,-36.07 2103.82,-33.87 2103.99,-38.77"/>
<text text-anchor="middle" x="1641.5" y="-72.6" font-family="Times-Roman" font-size="8.00">about</text>
</g>
<!-- L4YAML.Proofs.ScannerPlainScalarValid.flowNesting_go_prefix_stable._proof_1_3&#45;&gt;L4YAML.YamlToken -->
<g id="edge24" class="edge">
<title>L4YAML.Proofs.ScannerPlainScalarValid.flowNesting_go_prefix_stable._proof_1_3&#45;&gt;L4YAML.YamlToken</title>
<path fill="none" stroke="#999999" stroke-dasharray="1,5" d="M292.45,-99.78C321.8,-95.83 354.17,-91.85 384,-89 528.03,-75.23 564.43,-75.99 709,-70 1262.17,-47.09 1936.05,-37.57 2103.79,-35.47"/>
<polygon fill="#999999" stroke="#999999" points="2103.97,-37.92 2110.94,-35.38 2103.91,-33.02 2103.97,-37.92"/>
<text text-anchor="middle" x="721.5" y="-72.6" font-family="Times-Roman" font-size="8.00">about</text>
</g>
<!-- L4YAML.Proofs.ScannerPlainScalarValid.FlowContextPSV_of_prefix_and_new -->
<g id="node13" class="node">
<title>L4YAML.Proofs.ScannerPlainScalarValid.FlowContextPSV_of_prefix_and_new</title>
<polygon fill="#fff3cd" stroke="#d4a017" points="2082.51,-374.54 2082.51,-389.46 1975.01,-400 1822.99,-400 1715.49,-389.46 1715.49,-374.54 1822.99,-364 1975.01,-364 2082.51,-374.54"/>
<polygon fill="none" stroke="#d4a017" points="2086.51,-370.92 2086.51,-393.08 1975.21,-404 1822.79,-404 1711.49,-393.08 1711.49,-370.92 1822.79,-360 1975.21,-360 2086.51,-370.92"/>
<text text-anchor="middle" x="1899" y="-379.5" font-family="Helvetica" font-size="10.00">ScannerPlainScalarValid.FlowContextPSV_of_prefix_and_new</text>
</g>
<!-- L4YAML.Proofs.ScannerPlainScalarValid.FlowContextPSV_of_prefix_and_new&#45;&gt;L4YAML.Proofs.ScannerPlainScalarValid.FlowContextPSV -->
<g id="edge1" class="edge">
<title>L4YAML.Proofs.ScannerPlainScalarValid.FlowContextPSV_of_prefix_and_new&#45;&gt;L4YAML.Proofs.ScannerPlainScalarValid.FlowContextPSV</title>
<path fill="none" stroke="#999999" stroke-dasharray="1,5" d="M1980.95,-360.46C2017.41,-350.71 2060.67,-338.28 2099,-325 2122.01,-317.03 2147.06,-306.77 2167.72,-297.88"/>
<polygon fill="#999999" stroke="#999999" points="2168.81,-300.08 2174.26,-295.04 2166.86,-295.58 2168.81,-300.08"/>
<text text-anchor="middle" x="2084.5" y="-335.6" font-family="Times-Roman" font-size="8.00">about</text>
</g>
<!-- L4YAML.Proofs.ScannerPlainScalarValid.FlowContextPSV_of_prefix_and_new&#45;&gt;L4YAML.Proofs.ScannerPlainScalarValid.flowNesting_prefix_stable -->
<g id="edge3" class="edge">
<title>L4YAML.Proofs.ScannerPlainScalarValid.FlowContextPSV_of_prefix_and_new&#45;&gt;L4YAML.Proofs.ScannerPlainScalarValid.flowNesting_prefix_stable</title>
<path fill="none" stroke="#28a745" stroke-width="2" d="M1899,-359.66C1899,-342.95 1899,-319.71 1899,-302.29"/>
<polygon fill="#28a745" stroke="#28a745" stroke-width="2" points="1901.45,-302.22 1899,-295.22 1896.55,-302.22 1901.45,-302.22"/>
<text text-anchor="middle" x="1909" y="-335.6" font-family="Times-Roman" font-size="8.00">uses</text>
</g>
<!-- L4YAML.Proofs.ScannerPlainScalarValid.flowNesting.go.eq_1&#45;&gt;L4YAML.Positioned -->
<g id="edge25" class="edge">
<title>L4YAML.Proofs.ScannerPlainScalarValid.flowNesting.go.eq_1&#45;&gt;L4YAML.Positioned</title>
<path fill="none" stroke="#999999" stroke-dasharray="1,5" d="M962.6,-99.58C984.55,-95.36 1009.23,-91.28 1032,-89 1100.78,-82.13 1586.29,-92.88 1654,-79 1664.35,-76.88 1665.67,-72.22 1676,-70 1896.87,-22.49 1963.46,-101 2184,-52 2184.64,-51.86 2185.29,-51.7 2185.94,-51.54"/>
<polygon fill="#999999" stroke="#999999" points="2186.89,-53.81 2192.92,-49.49 2185.51,-49.11 2186.89,-53.81"/>
<text text-anchor="middle" x="1688.5" y="-72.6" font-family="Times-Roman" font-size="8.00">about</text>
</g>
<!-- L4YAML.Proofs.ScannerPlainScalarValid.flowNesting.go.eq_1&#45;&gt;L4YAML.YamlToken -->
<g id="edge10" class="edge">
<title>L4YAML.Proofs.ScannerPlainScalarValid.flowNesting.go.eq_1&#45;&gt;L4YAML.YamlToken</title>
<path fill="none" stroke="#999999" stroke-dasharray="1,5" d="M964.73,-99.71C986.16,-95.66 1009.99,-91.64 1032,-89 1448.76,-39.01 1958.74,-34.98 2103.19,-34.9"/>
<polygon fill="#999999" stroke="#999999" points="2103.59,-37.35 2110.59,-34.9 2103.59,-32.45 2103.59,-37.35"/>
<text text-anchor="middle" x="1224.5" y="-72.6" font-family="Times-Roman" font-size="8.00">about</text>
</g>
</g>
</svg>
