<?xml version="1.0" encoding="UTF-8" standalone="no"?>
<!DOCTYPE svg PUBLIC "-//W3C//DTD SVG 1.1//EN"
 "http://www.w3.org/Graphics/SVG/1.1/DTD/svg11.dtd">
<!-- Generated by graphviz version 2.44.0 (0)
 -->
<!-- Title: chain_ScalarCoupling.advance_corr Pages: 1 -->
<svg width="2561pt" height="405pt"
 viewBox="0.00 0.00 2561.00 405.00" xmlns="http://www.w3.org/2000/svg" xmlns:xlink="http://www.w3.org/1999/xlink">
<g id="graph0" class="graph" transform="scale(1 1) rotate(0) translate(4 401)">
<title>chain_ScalarCoupling.advance_corr</title>
<polygon fill="white" stroke="transparent" points="-4,4 -4,-401 2557,-401 2557,4 -4,4"/>
<text text-anchor="middle" x="1276.5" y="-382.6" font-family="Helvetica Bold" font-size="13.00">Functorial Chains: ScalarCoupling.advance_corr</text>
<text text-anchor="middle" x="1276.5" y="-368.6" font-family="Helvetica Bold" font-size="13.00">(heuristic: used by 40 proofs)</text>
<g id="clust1" class="cluster">
<title>cluster_fns</title>
<polygon fill="none" stroke="#4a90d9" stroke-dasharray="5,2" points="2180,-8 2180,-244 2545,-244 2545,-8 2180,-8"/>
<text text-anchor="middle" x="2362.5" y="-229.6" font-family="Helvetica Bold" font-size="13.00" fill="#4a90d9">Functions (Call Chain)</text>
</g>
<g id="clust2" class="cluster">
<title>cluster_thms</title>
<polygon fill="none" stroke="#28a745" stroke-dasharray="5,2" points="8,-89 8,-353 2172,-353 2172,-89 8,-89"/>
<text text-anchor="middle" x="1090" y="-338.6" font-family="Helvetica Bold" font-size="13.00" fill="#28a745">Theorems (Proof Chain)</text>
</g>
<!-- L4YAML.Scanner.ScannerState.advance -->
<g id="node1" class="node">
<title>L4YAML.Scanner.ScannerState.advance</title>
<g id="a_node1"><a xlink:href="../../../api/L4YAML/Scanner.html#L4YAML.Scanner.ScannerState.advance" xlink:title="ScannerState.advance" target="_blank">
<polygon fill="#dce9f7" stroke="#4a90d9" points="2321.5,-214 2206.5,-214 2206.5,-178 2321.5,-178 2321.5,-214"/>
<text text-anchor="middle" x="2264" y="-193.5" font-family="Helvetica" font-size="10.00">ScannerState.advance</text>
</a>
</g>
</g>
<!-- L4YAML.Scanner.ScannerState.offset -->
<g id="node3" class="node">
<title>L4YAML.Scanner.ScannerState.offset</title>
<g id="a_node3"><a xlink:href="../../../api/L4YAML/Scanner.html#L4YAML.Scanner.ScannerState.offset" xlink:title="ScannerState.offset" target="_blank">
<polygon fill="#dce9f7" stroke="#4a90d9" points="2291.5,-133 2188.5,-133 2188.5,-97 2291.5,-97 2291.5,-133"/>
<text text-anchor="middle" x="2240" y="-112.5" font-family="Helvetica" font-size="10.00">ScannerState.offset</text>
</a>
</g>
</g>
<!-- L4YAML.Scanner.ScannerState.advance&#45;&gt;L4YAML.Scanner.ScannerState.offset -->
<g id="edge8" class="edge">
<title>L4YAML.Scanner.ScannerState.advance&#45;&gt;L4YAML.Scanner.ScannerState.offset</title>
<path fill="none" stroke="#4a90d9" stroke-width="2" d="M2258.79,-177.86C2255.43,-166.78 2251,-152.21 2247.29,-139.99"/>
<polygon fill="#4a90d9" stroke="#4a90d9" stroke-width="2" points="2249.58,-139.09 2245.2,-133.11 2244.89,-140.52 2249.58,-139.09"/>
<text text-anchor="middle" x="2261.5" y="-153.6" font-family="Times-Roman" font-size="8.00">calls</text>
</g>
<!-- L4YAML.Scanner.ScannerState.col -->
<g id="node4" class="node">
<title>L4YAML.Scanner.ScannerState.col</title>
<g id="a_node4"><a xlink:href="../../../api/L4YAML/Scanner.html#L4YAML.Scanner.ScannerState.col" xlink:title="ScannerState.col" target="_blank">
<polygon fill="#dce9f7" stroke="#4a90d9" points="2537,-133 2445,-133 2445,-97 2537,-97 2537,-133"/>
<text text-anchor="middle" x="2491" y="-112.5" font-family="Helvetica" font-size="10.00">ScannerState.col</text>
</a>
</g>
</g>
<!-- L4YAML.Scanner.ScannerState.advance&#45;&gt;L4YAML.Scanner.ScannerState.col -->
<g id="edge2" class="edge">
<title>L4YAML.Scanner.ScannerState.advance&#45;&gt;L4YAML.Scanner.ScannerState.col</title>
<path fill="none" stroke="#4a90d9" stroke-width="2" d="M2312.98,-177.96C2349.79,-165.15 2400.15,-147.62 2437.92,-134.47"/>
<polygon fill="#4a90d9" stroke="#4a90d9" stroke-width="2" points="2439.02,-136.69 2444.82,-132.07 2437.41,-132.06 2439.02,-136.69"/>
<text text-anchor="middle" x="2393.5" y="-153.6" font-family="Times-Roman" font-size="8.00">calls</text>
</g>
<!-- L4YAML.Scanner.ScannerState.inputEnd -->
<g id="node5" class="node">
<title>L4YAML.Scanner.ScannerState.inputEnd</title>
<g id="a_node5"><a xlink:href="../../../api/L4YAML/Scanner.html#L4YAML.Scanner.ScannerState.inputEnd" xlink:title="ScannerState.inputEnd" target="_blank">
<polygon fill="#dce9f7" stroke="#4a90d9" points="2426.5,-133 2309.5,-133 2309.5,-97 2426.5,-97 2426.5,-133"/>
<text text-anchor="middle" x="2368" y="-112.5" font-family="Helvetica" font-size="10.00">ScannerState.inputEnd</text>
</a>
</g>
</g>
<!-- L4YAML.Scanner.ScannerState.advance&#45;&gt;L4YAML.Scanner.ScannerState.inputEnd -->
<g id="edge16" class="edge">
<title>L4YAML.Scanner.ScannerState.advance&#45;&gt;L4YAML.Scanner.ScannerState.inputEnd</title>
<path fill="none" stroke="#4a90d9" stroke-width="2" d="M2286.57,-177.86C2302.1,-166.06 2322.87,-150.28 2339.54,-137.62"/>
<polygon fill="#4a90d9" stroke="#4a90d9" stroke-width="2" points="2341.39,-139.29 2345.48,-133.11 2338.42,-135.39 2341.39,-139.29"/>
<text text-anchor="middle" x="2328.5" y="-153.6" font-family="Times-Roman" font-size="8.00">calls</text>
</g>
<!-- L4YAML.Scanner.ScannerState -->
<g id="node2" class="node">
<title>L4YAML.Scanner.ScannerState</title>
<g id="a_node2"><a xlink:href="../../../api/L4YAML/Scanner.html#L4YAML.Scanner.ScannerState" xlink:title="ScannerState" target="_blank">
<polygon fill="#dce9f7" stroke="#4a90d9" points="2264,-52 2188,-52 2188,-16 2264,-16 2264,-52"/>
<text text-anchor="middle" x="2226" y="-31.5" font-family="Helvetica" font-size="10.00">ScannerState</text>
</a>
</g>
</g>
<!-- L4YAML.Scanner.ScannerState.offset&#45;&gt;L4YAML.Scanner.ScannerState -->
<g id="edge11" class="edge">
<title>L4YAML.Scanner.ScannerState.offset&#45;&gt;L4YAML.Scanner.ScannerState</title>
<path fill="none" stroke="#4a90d9" stroke-width="2" d="M2236.96,-96.86C2235.02,-85.88 2232.46,-71.48 2230.31,-59.33"/>
<polygon fill="#4a90d9" stroke="#4a90d9" stroke-width="2" points="2232.67,-58.57 2229.03,-52.11 2227.84,-59.43 2232.67,-58.57"/>
<text text-anchor="middle" x="2242.5" y="-72.6" font-family="Times-Roman" font-size="8.00">calls</text>
</g>
<!-- L4YAML.Scanner.ScannerState.col&#45;&gt;L4YAML.Scanner.ScannerState -->
<g id="edge5" class="edge">
<title>L4YAML.Scanner.ScannerState.col&#45;&gt;L4YAML.Scanner.ScannerState</title>
<path fill="none" stroke="#4a90d9" stroke-width="2" d="M2455.87,-96.93C2449.35,-94.08 2442.53,-91.3 2436,-89 2380.35,-69.37 2314.1,-53.53 2271.11,-44.2"/>
<polygon fill="#4a90d9" stroke="#4a90d9" stroke-width="2" points="2271.51,-41.78 2264.15,-42.7 2270.48,-46.57 2271.51,-41.78"/>
<text text-anchor="middle" x="2411.5" y="-72.6" font-family="Times-Roman" font-size="8.00">calls</text>
</g>
<!-- L4YAML.Scanner.ScannerState.inputEnd&#45;&gt;L4YAML.Scanner.ScannerState -->
<g id="edge19" class="edge">
<title>L4YAML.Scanner.ScannerState.inputEnd&#45;&gt;L4YAML.Scanner.ScannerState</title>
<path fill="none" stroke="#4a90d9" stroke-width="2" d="M2337.19,-96.86C2315.42,-84.75 2286.13,-68.45 2263.08,-55.63"/>
<polygon fill="#4a90d9" stroke="#4a90d9" stroke-width="2" points="2264.06,-53.37 2256.75,-52.11 2261.68,-57.65 2264.06,-53.37"/>
<text text-anchor="middle" x="2310.5" y="-72.6" font-family="Times-Roman" font-size="8.00">calls</text>
</g>
<!-- L4YAML.Proofs.CouplingBridge.ScannerSurfCorr.chars_from -->
<g id="node6" class="node">
<title>L4YAML.Proofs.CouplingBridge.ScannerSurfCorr.chars_from</title>
<g id="a_node6"><a xlink:href="../../../api/L4YAML/Proofs/CouplingBridge.html#L4YAML.Proofs.CouplingBridge.ScannerSurfCorr.chars_from" xlink:title="CouplingBridge.ScannerSurfCorr.chars_from" target="_blank">
<ellipse fill="#d4edda" stroke="#28a745" cx="597" cy="-115" rx="124.59" ry="18"/>
<text text-anchor="middle" x="597" y="-112.5" font-family="Helvetica" font-size="10.00">CouplingBridge.ScannerSurfCorr.chars_from</text>
</a>
</g>
</g>
<!-- L4YAML.Proofs.CouplingBridge.ScannerSurfCorr.chars_from&#45;&gt;L4YAML.Scanner.ScannerState -->
<g id="edge21" class="edge">
<title>L4YAML.Proofs.CouplingBridge.ScannerSurfCorr.chars_from&#45;&gt;L4YAML.Scanner.ScannerState</title>
<path fill="none" stroke="#999999" stroke-dasharray="1,5" d="M663.88,-99.79C685.24,-95.72 709.03,-91.66 731,-89 878.6,-71.11 916.46,-76.46 1065,-70 1499.31,-51.1 2025.46,-39.21 2180.79,-35.93"/>
<polygon fill="#999999" stroke="#999999" points="2180.96,-38.38 2187.9,-35.78 2180.85,-33.48 2180.96,-38.38"/>
<text text-anchor="middle" x="1077.5" y="-72.6" font-family="Times-Roman" font-size="8.00">about</text>
</g>
<!-- L4YAML.Proofs.CouplingBridge.ScannerSurfCorr.input_prefix -->
<g id="node7" class="node">
<title>L4YAML.Proofs.CouplingBridge.ScannerSurfCorr.input_prefix</title>
<g id="a_node7"><a xlink:href="../../../api/L4YAML/Proofs/CouplingBridge.html#L4YAML.Proofs.CouplingBridge.ScannerSurfCorr.input_prefix" xlink:title="CouplingBridge.ScannerSurfCorr.input_prefix" target="_blank">
<ellipse fill="#d4edda" stroke="#28a745" cx="865" cy="-115" rx="124.59" ry="18"/>
<text text-anchor="middle" x="865" y="-112.5" font-family="Helvetica" font-size="10.00">CouplingBridge.ScannerSurfCorr.input_prefix</text>
</a>
</g>
</g>
<!-- L4YAML.Proofs.CouplingBridge.ScannerSurfCorr.input_prefix&#45;&gt;L4YAML.Scanner.ScannerState -->
<g id="edge23" class="edge">
<title>L4YAML.Proofs.CouplingBridge.ScannerSurfCorr.input_prefix&#45;&gt;L4YAML.Scanner.ScannerState</title>
<path fill="none" stroke="#999999" stroke-dasharray="1,5" d="M932.59,-99.86C953.77,-95.84 977.29,-91.8 999,-89 1115.23,-74.01 1144.98,-76.35 1262,-70 1615.63,-50.81 2042.81,-39.44 2180.74,-36.07"/>
<polygon fill="#999999" stroke="#999999" points="2180.92,-38.51 2187.86,-35.89 2180.8,-33.61 2180.92,-38.51"/>
<text text-anchor="middle" x="1274.5" y="-72.6" font-family="Times-Roman" font-size="8.00">about</text>
</g>
<!-- L4YAML.Proofs.ScalarCoupling.advance_corr -->
<g id="node8" class="node">
<title>L4YAML.Proofs.ScalarCoupling.advance_corr</title>
<g id="a_node8"><a xlink:href="../../../api/L4YAML/Proofs/ScalarCoupling.html#L4YAML.Proofs.ScalarCoupling.advance_corr" xlink:title="ScalarCoupling.advance_corr" target="_blank">
<polygon fill="#fff3cd" stroke="#d4a017" points="1933.22,-293.54 1933.22,-308.46 1879.79,-319 1804.21,-319 1750.78,-308.46 1750.78,-293.54 1804.21,-283 1879.79,-283 1933.22,-293.54"/>
<polygon fill="none" stroke="#d4a017" points="1937.23,-290.26 1937.23,-311.74 1880.18,-323 1803.82,-323 1746.77,-311.74 1746.77,-290.26 1803.82,-279 1880.18,-279 1937.23,-290.26"/>
<text text-anchor="middle" x="1842" y="-298.5" font-family="Helvetica" font-size="10.00">ScalarCoupling.advance_corr</text>
</a>
</g>
</g>
<!-- L4YAML.Proofs.ScalarCoupling.advance_corr&#45;&gt;L4YAML.Scanner.ScannerState.advance -->
<g id="edge1" class="edge">
<title>L4YAML.Proofs.ScalarCoupling.advance_corr&#45;&gt;L4YAML.Scanner.ScannerState.advance</title>
<path fill="none" stroke="#999999" stroke-dasharray="1,5" d="M1937.23,-292.32C2005.17,-284.85 2097.94,-270.59 2176,-244 2195.11,-237.49 2215.05,-227.17 2231.11,-217.85"/>
<polygon fill="#999999" stroke="#999999" points="2232.51,-219.88 2237.29,-214.21 2230.02,-215.66 2232.51,-219.88"/>
<text text-anchor="middle" x="2161.5" y="-254.6" font-family="Times-Roman" font-size="8.00">about</text>
</g>
<!-- L4YAML.Proofs.CouplingBridge.advance_non_newline_corr -->
<g id="node10" class="node">
<title>L4YAML.Proofs.CouplingBridge.advance_non_newline_corr</title>
<g id="a_node10"><a xlink:href="../../../api/L4YAML/Proofs/CouplingBridge.html#L4YAML.Proofs.CouplingBridge.advance_non_newline_corr" xlink:title="CouplingBridge.advance_non_newline_corr" target="_blank">
<ellipse fill="#d4edda" stroke="#28a745" cx="1106" cy="-196" rx="119.5" ry="18"/>
<text text-anchor="middle" x="1106" y="-193.5" font-family="Helvetica" font-size="10.00">CouplingBridge.advance_non_newline_corr</text>
</a>
</g>
</g>
<!-- L4YAML.Proofs.ScalarCoupling.advance_corr&#45;&gt;L4YAML.Proofs.CouplingBridge.advance_non_newline_corr -->
<g id="edge17" class="edge">
<title>L4YAML.Proofs.ScalarCoupling.advance_corr&#45;&gt;L4YAML.Proofs.CouplingBridge.advance_non_newline_corr</title>
<path fill="none" stroke="#28a745" stroke-width="2" d="M1757.21,-288.13C1617.73,-268.61 1341.02,-229.89 1197.36,-209.78"/>
<polygon fill="#28a745" stroke="#28a745" stroke-width="2" points="1197.47,-207.33 1190.2,-208.78 1196.79,-212.18 1197.47,-207.33"/>
<text text-anchor="middle" x="1571" y="-254.6" font-family="Times-Roman" font-size="8.00">uses</text>
</g>
<!-- L4YAML.Proofs.CouplingBridge.advance_newline_corr -->
<g id="node17" class="node">
<title>L4YAML.Proofs.CouplingBridge.advance_newline_corr</title>
<g id="a_node17"><a xlink:href="../../../api/L4YAML/Proofs/CouplingBridge.html#L4YAML.Proofs.CouplingBridge.advance_newline_corr" xlink:title="CouplingBridge.advance_newline_corr" target="_blank">
<ellipse fill="#d4edda" stroke="#28a745" cx="1785" cy="-196" rx="107.27" ry="18"/>
<text text-anchor="middle" x="1785" y="-193.5" font-family="Helvetica" font-size="10.00">CouplingBridge.advance_newline_corr</text>
</a>
</g>
</g>
<!-- L4YAML.Proofs.ScalarCoupling.advance_corr&#45;&gt;L4YAML.Proofs.CouplingBridge.advance_newline_corr -->
<g id="edge9" class="edge">
<title>L4YAML.Proofs.ScalarCoupling.advance_corr&#45;&gt;L4YAML.Proofs.CouplingBridge.advance_newline_corr</title>
<path fill="none" stroke="#28a745" stroke-width="2" d="M1830.19,-278.66C1820.78,-261.65 1807.62,-237.88 1797.93,-220.37"/>
<polygon fill="#28a745" stroke="#28a745" stroke-width="2" points="1800.06,-219.16 1794.53,-214.22 1795.78,-221.53 1800.06,-219.16"/>
<text text-anchor="middle" x="1830" y="-254.6" font-family="Times-Roman" font-size="8.00">uses</text>
</g>
<!-- L4YAML.Proofs.CouplingBridge.advance_cr_corr -->
<g id="node18" class="node">
<title>L4YAML.Proofs.CouplingBridge.advance_cr_corr</title>
<g id="a_node18"><a xlink:href="../../../api/L4YAML/Proofs/CouplingBridge.html#L4YAML.Proofs.CouplingBridge.advance_cr_corr" xlink:title="CouplingBridge.advance_cr_corr" target="_blank">
<ellipse fill="#d4edda" stroke="#28a745" cx="2018" cy="-196" rx="92.34" ry="18"/>
<text text-anchor="middle" x="2018" y="-193.5" font-family="Helvetica" font-size="10.00">CouplingBridge.advance_cr_corr</text>
</a>
</g>
</g>
<!-- L4YAML.Proofs.ScalarCoupling.advance_corr&#45;&gt;L4YAML.Proofs.CouplingBridge.advance_cr_corr -->
<g id="edge3" class="edge">
<title>L4YAML.Proofs.ScalarCoupling.advance_corr&#45;&gt;L4YAML.Proofs.CouplingBridge.advance_cr_corr</title>
<path fill="none" stroke="#28a745" stroke-width="2" d="M1878.04,-278.91C1909.02,-260.78 1953.4,-234.81 1983.83,-217"/>
<polygon fill="#28a745" stroke="#28a745" stroke-width="2" points="1985.29,-218.98 1990.1,-213.33 1982.82,-214.75 1985.29,-218.98"/>
<text text-anchor="middle" x="1929" y="-254.6" font-family="Times-Roman" font-size="8.00">uses</text>
</g>
<!-- L4YAML.Proofs.CouplingBridge.ScannerSurfCorr.indent_cols_nonneg -->
<g id="node9" class="node">
<title>L4YAML.Proofs.CouplingBridge.ScannerSurfCorr.indent_cols_nonneg</title>
<g id="a_node9"><a xlink:href="../../../api/L4YAML/Proofs/CouplingBridge.html#L4YAML.Proofs.CouplingBridge.ScannerSurfCorr.indent_cols_nonneg" xlink:title="CouplingBridge.ScannerSurfCorr.indent_cols_nonneg" target="_blank">
<ellipse fill="#d4edda" stroke="#28a745" cx="2018" cy="-115" rx="145.98" ry="18"/>
<text text-anchor="middle" x="2018" y="-112.5" font-family="Helvetica" font-size="10.00">CouplingBridge.ScannerSurfCorr.indent_cols_nonneg</text>
</a>
</g>
</g>
<!-- L4YAML.Proofs.CouplingBridge.ScannerSurfCorr.indent_cols_nonneg&#45;&gt;L4YAML.Scanner.ScannerState -->
<g id="edge7" class="edge">
<title>L4YAML.Proofs.CouplingBridge.ScannerSurfCorr.indent_cols_nonneg&#45;&gt;L4YAML.Scanner.ScannerState</title>
<path fill="none" stroke="#999999" stroke-dasharray="1,5" d="M2060.85,-97.73C2095.85,-84.43 2145.2,-65.69 2180.83,-52.16"/>
<polygon fill="#999999" stroke="#999999" points="2182.09,-54.3 2187.76,-49.52 2180.35,-49.72 2182.09,-54.3"/>
<text text-anchor="middle" x="2140.5" y="-72.6" font-family="Times-Roman" font-size="8.00">about</text>
</g>
<!-- L4YAML.Proofs.CouplingBridge.advance_non_newline_corr&#45;&gt;L4YAML.Scanner.ScannerState.inputEnd -->
<g id="edge18" class="edge">
<title>L4YAML.Proofs.CouplingBridge.advance_non_newline_corr&#45;&gt;L4YAML.Scanner.ScannerState.inputEnd</title>
<path fill="none" stroke="#999999" stroke-dasharray="1,5" d="M1221.98,-191.37C1482.15,-183.18 2091.32,-163.67 2113,-160 2126.31,-157.75 2128.79,-153.77 2142,-151 2211.6,-136.4 2231.04,-145.77 2301,-133 2301.42,-132.92 2301.85,-132.84 2302.28,-132.76"/>
<polygon fill="#999999" stroke="#999999" points="2302.88,-135.14 2309.27,-131.38 2301.93,-130.34 2302.88,-135.14"/>
<text text-anchor="middle" x="2154.5" y="-153.6" font-family="Times-Roman" font-size="8.00">about</text>
</g>
<!-- L4YAML.Proofs.CouplingBridge.advance_non_newline_corr&#45;&gt;L4YAML.Proofs.CouplingBridge.ScannerSurfCorr.chars_from -->
<g id="edge20" class="edge">
<title>L4YAML.Proofs.CouplingBridge.advance_non_newline_corr&#45;&gt;L4YAML.Proofs.CouplingBridge.ScannerSurfCorr.chars_from</title>
<path fill="none" stroke="#28a745" stroke-width="2" d="M1025.91,-182.57C933.45,-168.22 781.83,-144.69 685.83,-129.79"/>
<polygon fill="#28a745" stroke="#28a745" stroke-width="2" points="686.02,-127.34 678.73,-128.68 685.27,-132.18 686.02,-127.34"/>
<text text-anchor="middle" x="876" y="-153.6" font-family="Times-Roman" font-size="8.00">uses</text>
</g>
<!-- L4YAML.Proofs.CouplingBridge.advance_non_newline_corr&#45;&gt;L4YAML.Proofs.CouplingBridge.ScannerSurfCorr.input_prefix -->
<g id="edge22" class="edge">
<title>L4YAML.Proofs.CouplingBridge.advance_non_newline_corr&#45;&gt;L4YAML.Proofs.CouplingBridge.ScannerSurfCorr.input_prefix</title>
<path fill="none" stroke="#28a745" stroke-width="2" d="M1058.39,-179.39C1018.49,-166.32 961.53,-147.64 919.76,-133.95"/>
<polygon fill="#28a745" stroke="#28a745" stroke-width="2" points="920.34,-131.56 912.93,-131.71 918.82,-136.22 920.34,-131.56"/>
<text text-anchor="middle" x="1002" y="-153.6" font-family="Times-Roman" font-size="8.00">uses</text>
</g>
<!-- L4YAML.Proofs.CouplingBridge.advance_offset_eq -->
<g id="node12" class="node">
<title>L4YAML.Proofs.CouplingBridge.advance_offset_eq</title>
<g id="a_node12"><a xlink:href="../../../api/L4YAML/Proofs/CouplingBridge.html#L4YAML.Proofs.CouplingBridge.advance_offset_eq" xlink:title="CouplingBridge.advance_offset_eq" target="_blank">
<ellipse fill="#d4edda" stroke="#28a745" cx="1106" cy="-115" rx="98.11" ry="18"/>
<text text-anchor="middle" x="1106" y="-112.5" font-family="Helvetica" font-size="10.00">CouplingBridge.advance_offset_eq</text>
</a>
</g>
</g>
<!-- L4YAML.Proofs.CouplingBridge.advance_non_newline_corr&#45;&gt;L4YAML.Proofs.CouplingBridge.advance_offset_eq -->
<g id="edge28" class="edge">
<title>L4YAML.Proofs.CouplingBridge.advance_non_newline_corr&#45;&gt;L4YAML.Proofs.CouplingBridge.advance_offset_eq</title>
<path fill="none" stroke="#28a745" stroke-width="2" d="M1106,-177.86C1106,-166.88 1106,-152.48 1106,-140.33"/>
<polygon fill="#28a745" stroke="#28a745" stroke-width="2" points="1108.45,-140.11 1106,-133.11 1103.55,-140.11 1108.45,-140.11"/>
<text text-anchor="middle" x="1116" y="-153.6" font-family="Times-Roman" font-size="8.00">uses</text>
</g>
<!-- L4YAML.Proofs.CouplingBridge.advance_input -->
<g id="node13" class="node">
<title>L4YAML.Proofs.CouplingBridge.advance_input</title>
<g id="a_node13"><a xlink:href="../../../api/L4YAML/Proofs/CouplingBridge.html#L4YAML.Proofs.CouplingBridge.advance_input" xlink:title="CouplingBridge.advance_input" target="_blank">
<ellipse fill="#d4edda" stroke="#28a745" cx="1309" cy="-115" rx="87.24" ry="18"/>
<text text-anchor="middle" x="1309" y="-112.5" font-family="Helvetica" font-size="10.00">CouplingBridge.advance_input</text>
</a>
</g>
</g>
<!-- L4YAML.Proofs.CouplingBridge.advance_non_newline_corr&#45;&gt;L4YAML.Proofs.CouplingBridge.advance_input -->
<g id="edge30" class="edge">
<title>L4YAML.Proofs.CouplingBridge.advance_non_newline_corr&#45;&gt;L4YAML.Proofs.CouplingBridge.advance_input</title>
<path fill="none" stroke="#28a745" stroke-width="2" d="M1147.08,-179.01C1180.75,-165.91 1228.37,-147.38 1263.25,-133.8"/>
<polygon fill="#28a745" stroke="#28a745" stroke-width="2" points="1264.41,-135.98 1270.05,-131.16 1262.64,-131.41 1264.41,-135.98"/>
<text text-anchor="middle" x="1223" y="-153.6" font-family="Times-Roman" font-size="8.00">uses</text>
</g>
<!-- L4YAML.Proofs.CouplingBridge.advance_col_non_newline -->
<g id="node14" class="node">
<title>L4YAML.Proofs.CouplingBridge.advance_col_non_newline</title>
<g id="a_node14"><a xlink:href="../../../api/L4YAML/Proofs/CouplingBridge.html#L4YAML.Proofs.CouplingBridge.advance_col_non_newline" xlink:title="CouplingBridge.advance_col_non_newline" target="_blank">
<ellipse fill="#d4edda" stroke="#28a745" cx="133" cy="-115" rx="117.29" ry="18"/>
<text text-anchor="middle" x="133" y="-112.5" font-family="Helvetica" font-size="10.00">CouplingBridge.advance_col_non_newline</text>
</a>
</g>
</g>
<!-- L4YAML.Proofs.CouplingBridge.advance_non_newline_corr&#45;&gt;L4YAML.Proofs.CouplingBridge.advance_col_non_newline -->
<g id="edge26" class="edge">
<title>L4YAML.Proofs.CouplingBridge.advance_non_newline_corr&#45;&gt;L4YAML.Proofs.CouplingBridge.advance_col_non_newline</title>
<path fill="none" stroke="#28a745" stroke-width="2" d="M995.13,-189.28C833.12,-180.39 522.33,-161.26 259,-133 247.26,-131.74 234.92,-130.26 222.75,-128.72"/>
<polygon fill="#28a745" stroke="#28a745" stroke-width="2" points="222.86,-126.26 215.61,-127.8 222.24,-131.12 222.86,-126.26"/>
<text text-anchor="middle" x="548" y="-153.6" font-family="Times-Roman" font-size="8.00">uses</text>
</g>
<!-- L4YAML.Proofs.CouplingBridge.ScannerSurfCorr.end_eq -->
<g id="node15" class="node">
<title>L4YAML.Proofs.CouplingBridge.ScannerSurfCorr.end_eq</title>
<g id="a_node15"><a xlink:href="../../../api/L4YAML/Proofs/CouplingBridge.html#L4YAML.Proofs.CouplingBridge.ScannerSurfCorr.end_eq" xlink:title="CouplingBridge.ScannerSurfCorr.end_eq" target="_blank">
<ellipse fill="#d4edda" stroke="#28a745" cx="1740" cy="-115" rx="114.4" ry="18"/>
<text text-anchor="middle" x="1740" y="-112.5" font-family="Helvetica" font-size="10.00">CouplingBridge.ScannerSurfCorr.end_eq</text>
</a>
</g>
</g>
<!-- L4YAML.Proofs.CouplingBridge.advance_non_newline_corr&#45;&gt;L4YAML.Proofs.CouplingBridge.ScannerSurfCorr.end_eq -->
<g id="edge32" class="edge">
<title>L4YAML.Proofs.CouplingBridge.advance_non_newline_corr&#45;&gt;L4YAML.Proofs.CouplingBridge.ScannerSurfCorr.end_eq</title>
<path fill="none" stroke="#28a745" stroke-width="2" d="M1220.74,-190.91C1348.22,-185.71 1545.75,-175.49 1619,-160 1645.77,-154.34 1674.61,-144.03 1697.41,-134.81"/>
<polygon fill="#28a745" stroke="#28a745" stroke-width="2" points="1698.43,-137.04 1703.98,-132.12 1696.57,-132.51 1698.43,-137.04"/>
<text text-anchor="middle" x="1659" y="-153.6" font-family="Times-Roman" font-size="8.00">uses</text>
</g>
<!-- L4YAML.Proofs.CouplingBridge.advance_indents -->
<g id="node16" class="node">
<title>L4YAML.Proofs.CouplingBridge.advance_indents</title>
<g id="a_node16"><a xlink:href="../../../api/L4YAML/Proofs/CouplingBridge.html#L4YAML.Proofs.CouplingBridge.advance_indents" xlink:title="CouplingBridge.advance_indents" target="_blank">
<ellipse fill="#d4edda" stroke="#28a745" cx="361" cy="-115" rx="93.02" ry="18"/>
<text text-anchor="middle" x="361" y="-112.5" font-family="Helvetica" font-size="10.00">CouplingBridge.advance_indents</text>
</a>
</g>
</g>
<!-- L4YAML.Proofs.CouplingBridge.advance_non_newline_corr&#45;&gt;L4YAML.Proofs.CouplingBridge.advance_indents -->
<g id="edge24" class="edge">
<title>L4YAML.Proofs.CouplingBridge.advance_non_newline_corr&#45;&gt;L4YAML.Proofs.CouplingBridge.advance_indents</title>
<path fill="none" stroke="#28a745" stroke-width="2" d="M1001.62,-187.16C874.21,-177.08 652.31,-157.87 463,-133 453.62,-131.77 443.78,-130.32 434.06,-128.8"/>
<polygon fill="#28a745" stroke="#28a745" stroke-width="2" points="434.31,-126.36 427.02,-127.69 433.55,-131.2 434.31,-126.36"/>
<text text-anchor="middle" x="702" y="-153.6" font-family="Times-Roman" font-size="8.00">uses</text>
</g>
<!-- L4YAML.Proofs.CouplingBridge.advance_inputEnd -->
<g id="node11" class="node">
<title>L4YAML.Proofs.CouplingBridge.advance_inputEnd</title>
<g id="a_node11"><a xlink:href="../../../api/L4YAML/Proofs/CouplingBridge.html#L4YAML.Proofs.CouplingBridge.advance_inputEnd" xlink:title="CouplingBridge.advance_inputEnd" target="_blank">
<ellipse fill="#d4edda" stroke="#28a745" cx="1511" cy="-115" rx="97.26" ry="18"/>
<text text-anchor="middle" x="1511" y="-112.5" font-family="Helvetica" font-size="10.00">CouplingBridge.advance_inputEnd</text>
</a>
</g>
</g>
<!-- L4YAML.Proofs.CouplingBridge.advance_inputEnd&#45;&gt;L4YAML.Scanner.ScannerState -->
<g id="edge13" class="edge">
<title>L4YAML.Proofs.CouplingBridge.advance_inputEnd&#45;&gt;L4YAML.Scanner.ScannerState</title>
<path fill="none" stroke="#999999" stroke-dasharray="1,5" d="M1564.08,-99.91C1580.9,-95.87 1599.64,-91.8 1617,-89 1826.27,-55.22 2079.65,-41.28 2180.97,-36.79"/>
<polygon fill="#999999" stroke="#999999" points="2181.11,-39.23 2187.99,-36.48 2180.89,-34.34 2181.11,-39.23"/>
<text text-anchor="middle" x="1761.5" y="-72.6" font-family="Times-Roman" font-size="8.00">about</text>
</g>
<!-- L4YAML.Proofs.CouplingBridge.advance_offset_eq&#45;&gt;L4YAML.Scanner.ScannerState -->
<g id="edge29" class="edge">
<title>L4YAML.Proofs.CouplingBridge.advance_offset_eq&#45;&gt;L4YAML.Scanner.ScannerState</title>
<path fill="none" stroke="#999999" stroke-dasharray="1,5" d="M1159.58,-99.86C1176.56,-95.82 1195.48,-91.76 1213,-89 1313.44,-73.17 1339.52,-76.49 1441,-70 1722.04,-52.03 2060.26,-40.28 2180.71,-36.41"/>
<polygon fill="#999999" stroke="#999999" points="2181.07,-38.85 2187.99,-36.17 2180.91,-33.95 2181.07,-38.85"/>
<text text-anchor="middle" x="1453.5" y="-72.6" font-family="Times-Roman" font-size="8.00">about</text>
</g>
<!-- L4YAML.Proofs.CouplingBridge.advance_input&#45;&gt;L4YAML.Scanner.ScannerState -->
<g id="edge31" class="edge">
<title>L4YAML.Proofs.CouplingBridge.advance_input&#45;&gt;L4YAML.Scanner.ScannerState</title>
<path fill="none" stroke="#999999" stroke-dasharray="1,5" d="M1356.48,-99.8C1371.84,-95.7 1389.03,-91.63 1405,-89 1697.62,-40.83 2055.6,-35.27 2180.46,-34.9"/>
<polygon fill="#999999" stroke="#999999" points="2180.65,-37.34 2187.64,-34.88 2180.64,-32.44 2180.65,-37.34"/>
<text text-anchor="middle" x="1550.5" y="-72.6" font-family="Times-Roman" font-size="8.00">about</text>
</g>
<!-- L4YAML.Proofs.CouplingBridge.advance_col_non_newline&#45;&gt;L4YAML.Scanner.ScannerState -->
<g id="edge27" class="edge">
<title>L4YAML.Proofs.CouplingBridge.advance_col_non_newline&#45;&gt;L4YAML.Scanner.ScannerState</title>
<path fill="none" stroke="#999999" stroke-dasharray="1,5" d="M196.52,-99.84C216.44,-95.82 238.56,-91.78 259,-89 370.73,-73.78 399.37,-75.38 512,-70 1174.95,-38.36 1983.47,-35.29 2180.93,-35.02"/>
<polygon fill="#999999" stroke="#999999" points="2180.98,-37.47 2187.97,-35.01 2180.97,-32.57 2180.98,-37.47"/>
<text text-anchor="middle" x="524.5" y="-72.6" font-family="Times-Roman" font-size="8.00">about</text>
</g>
<!-- L4YAML.Proofs.CouplingBridge.ScannerSurfCorr.end_eq&#45;&gt;L4YAML.Scanner.ScannerState -->
<g id="edge15" class="edge">
<title>L4YAML.Proofs.CouplingBridge.ScannerSurfCorr.end_eq&#45;&gt;L4YAML.Scanner.ScannerState</title>
<path fill="none" stroke="#999999" stroke-dasharray="1,5" d="M1804.99,-100.12C1823.68,-96.31 1844.11,-92.32 1863,-89 1976.82,-68.98 2111.59,-50.22 2180.48,-40.99"/>
<polygon fill="#999999" stroke="#999999" points="2181.13,-43.37 2187.74,-40.01 2180.48,-38.51 2181.13,-43.37"/>
<text text-anchor="middle" x="1984.5" y="-72.6" font-family="Times-Roman" font-size="8.00">about</text>
</g>
<!-- L4YAML.Proofs.CouplingBridge.advance_indents&#45;&gt;L4YAML.Scanner.ScannerState -->
<g id="edge25" class="edge">
<title>L4YAML.Proofs.CouplingBridge.advance_indents&#45;&gt;L4YAML.Scanner.ScannerState</title>
<path fill="none" stroke="#999999" stroke-dasharray="1,5" d="M410.96,-99.8C427.41,-95.65 445.87,-91.55 463,-89 613.57,-66.56 652.89,-76.1 805,-70 1346.44,-48.3 2004.5,-38.08 2180.78,-35.61"/>
<polygon fill="#999999" stroke="#999999" points="2180.87,-38.05 2187.83,-35.51 2180.8,-33.16 2180.87,-38.05"/>
<text text-anchor="middle" x="817.5" y="-72.6" font-family="Times-Roman" font-size="8.00">about</text>
</g>
<!-- L4YAML.Proofs.CouplingBridge.advance_newline_corr&#45;&gt;L4YAML.Scanner.ScannerState.offset -->
<g id="edge10" class="edge">
<title>L4YAML.Proofs.CouplingBridge.advance_newline_corr&#45;&gt;L4YAML.Scanner.ScannerState.offset</title>
<path fill="none" stroke="#999999" stroke-dasharray="1,5" d="M1867.03,-184.4C1929.2,-176.26 2009.31,-165.51 2042,-160 2049.49,-158.74 2168.6,-134.73 2176,-133 2177.76,-132.59 2179.55,-132.16 2181.36,-131.73"/>
<polygon fill="#999999" stroke="#999999" points="2182.16,-134.05 2188.37,-130 2180.99,-129.3 2182.16,-134.05"/>
<text text-anchor="middle" x="2098.5" y="-153.6" font-family="Times-Roman" font-size="8.00">about</text>
</g>
<!-- L4YAML.Proofs.CouplingBridge.advance_newline_corr&#45;&gt;L4YAML.Proofs.CouplingBridge.advance_inputEnd -->
<g id="edge12" class="edge">
<title>L4YAML.Proofs.CouplingBridge.advance_newline_corr&#45;&gt;L4YAML.Proofs.CouplingBridge.advance_inputEnd</title>
<path fill="none" stroke="#28a745" stroke-width="2" d="M1702.26,-184.48C1669.57,-179.03 1632.01,-171.12 1599,-160 1580.42,-153.74 1560.82,-144.25 1544.84,-135.69"/>
<polygon fill="#28a745" stroke="#28a745" stroke-width="2" points="1545.99,-133.53 1538.68,-132.33 1543.65,-137.83 1545.99,-133.53"/>
<text text-anchor="middle" x="1609" y="-153.6" font-family="Times-Roman" font-size="8.00">uses</text>
</g>
<!-- L4YAML.Proofs.CouplingBridge.advance_newline_corr&#45;&gt;L4YAML.Proofs.CouplingBridge.ScannerSurfCorr.end_eq -->
<g id="edge14" class="edge">
<title>L4YAML.Proofs.CouplingBridge.advance_newline_corr&#45;&gt;L4YAML.Proofs.CouplingBridge.ScannerSurfCorr.end_eq</title>
<path fill="none" stroke="#28a745" stroke-width="2" d="M1775.24,-177.86C1768.81,-166.57 1760.31,-151.66 1753.27,-139.3"/>
<polygon fill="#28a745" stroke="#28a745" stroke-width="2" points="1755.34,-137.98 1749.75,-133.11 1751.08,-140.4 1755.34,-137.98"/>
<text text-anchor="middle" x="1773" y="-153.6" font-family="Times-Roman" font-size="8.00">uses</text>
</g>
<!-- L4YAML.Proofs.CouplingBridge.advance_cr_corr&#45;&gt;L4YAML.Scanner.ScannerState.col -->
<g id="edge4" class="edge">
<title>L4YAML.Proofs.CouplingBridge.advance_cr_corr&#45;&gt;L4YAML.Scanner.ScannerState.col</title>
<path fill="none" stroke="#999999" stroke-dasharray="1,5" d="M2072.2,-181.32C2113.11,-171.48 2170.76,-158.65 2222,-151 2316.4,-136.91 2342.3,-151.2 2436,-133 2436.64,-132.87 2437.29,-132.75 2437.94,-132.61"/>
<polygon fill="#999999" stroke="#999999" points="2438.69,-134.95 2444.97,-131.02 2437.6,-130.18 2438.69,-134.95"/>
<text text-anchor="middle" x="2234.5" y="-153.6" font-family="Times-Roman" font-size="8.00">about</text>
</g>
<!-- L4YAML.Proofs.CouplingBridge.advance_cr_corr&#45;&gt;L4YAML.Proofs.CouplingBridge.ScannerSurfCorr.indent_cols_nonneg -->
<g id="edge6" class="edge">
<title>L4YAML.Proofs.CouplingBridge.advance_cr_corr&#45;&gt;L4YAML.Proofs.CouplingBridge.ScannerSurfCorr.indent_cols_nonneg</title>
<path fill="none" stroke="#28a745" stroke-width="2" d="M2018,-177.86C2018,-166.88 2018,-152.48 2018,-140.33"/>
<polygon fill="#28a745" stroke="#28a745" stroke-width="2" points="2020.45,-140.11 2018,-133.11 2015.55,-140.11 2020.45,-140.11"/>
<text text-anchor="middle" x="2028" y="-153.6" font-family="Times-Roman" font-size="8.00">uses</text>
</g>
</g>
</svg>
