<?xml version="1.0" encoding="UTF-8" standalone="no"?>
<!DOCTYPE svg PUBLIC "-//W3C//DTD SVG 1.1//EN"
 "http://www.w3.org/Graphics/SVG/1.1/DTD/svg11.dtd">
<!-- Generated by graphviz version 2.44.0 (0)
 -->
<!-- Title: chain_Completeness.parseYaml_ok_iff Pages: 1 -->
<svg width="351pt" height="98pt"
 viewBox="0.00 0.00 351.00 97.92" xmlns="http://www.w3.org/2000/svg" xmlns:xlink="http://www.w3.org/1999/xlink">
<g id="graph0" class="graph" transform="scale(1 1) rotate(0) translate(4 93.92)">
<title>chain_Completeness.parseYaml_ok_iff</title>
<polygon fill="white" stroke="transparent" points="-4,4 -4,-93.92 347,-93.92 347,4 -4,4"/>
<text text-anchor="middle" x="171.5" y="-75.52" font-family="Helvetica Bold" font-size="13.00">Functorial Chains: Completeness.parseYaml_ok_iff</text>
<text text-anchor="middle" x="171.5" y="-61.52" font-family="Helvetica Bold" font-size="13.00">parseYaml succeeds iff input is valid YAML</text>
<!-- L4YAML.Proofs.Completeness.parseYaml_ok_iff -->
<g id="node1" class="node">
<title>L4YAML.Proofs.Completeness.parseYaml_ok_iff</title>
<polygon fill="#fff3cd" stroke="black" points="292.36,-17.46 292.36,-36.46 221.56,-49.89 121.44,-49.89 50.64,-36.46 50.64,-17.46 121.44,-4.03 221.56,-4.03 292.36,-17.46"/>
<polygon fill="none" stroke="black" points="296.36,-14.16 296.36,-39.77 221.94,-53.88 121.06,-53.88 46.64,-39.77 46.64,-14.16 121.06,-0.04 221.94,-0.04 296.36,-14.16"/>
<text text-anchor="middle" x="171.5" y="-29.96" font-family="Helvetica" font-size="10.00">Completeness.parseYaml_ok_iff</text>
<text text-anchor="middle" x="171.5" y="-18.96" font-family="Helvetica" font-size="10.00">(no functorial chains found)</text>
</g>
</g>
</svg>
