<?xml version="1.0" encoding="UTF-8" standalone="no"?>
<!DOCTYPE svg PUBLIC "-//W3C//DTD SVG 1.1//EN"
 "http://www.w3.org/Graphics/SVG/1.1/DTD/svg11.dtd">
<!-- Generated by graphviz version 2.44.0 (0)
 -->
<!-- Title: chain_ScannerCorrectness.skipToContent_preserves_tokens Pages: 1 -->
<svg width="1496pt" height="432pt"
 viewBox="0.00 0.00 1495.92 432.00" xmlns="http://www.w3.org/2000/svg" xmlns:xlink="http://www.w3.org/1999/xlink">
<g id="graph0" class="graph" transform="scale(1 1) rotate(0) translate(4 428)">
<title>chain_ScannerCorrectness.skipToContent_preserves_tokens</title>
<polygon fill="white" stroke="transparent" points="-4,4 -4,-428 1491.92,-428 1491.92,4 -4,4"/>
<text text-anchor="middle" x="743.96" y="-409.6" font-family="Helvetica Bold" font-size="13.00">Functorial Chains: ScannerCorrectness.skipToContent_preserves_tokens</text>
<text text-anchor="middle" x="743.96" y="-395.6" font-family="Helvetica Bold" font-size="13.00">(heuristic: used by 9 proofs)</text>
<g id="clust1" class="cluster">
<title>cluster_fns</title>
<polygon fill="none" stroke="#4a90d9" stroke-dasharray="5,2" points="1251.92,-8 1251.92,-271 1479.92,-271 1479.92,-8 1251.92,-8"/>
<text text-anchor="middle" x="1365.92" y="-256.6" font-family="Helvetica Bold" font-size="13.00" fill="#4a90d9">Functions (Call Chain)</text>
</g>
<g id="clust2" class="cluster">
<title>cluster_thms</title>
<polygon fill="none" stroke="#28a745" stroke-dasharray="5,2" points="37.92,-89 37.92,-380 1243.92,-380 1243.92,-89 37.92,-89"/>
<text text-anchor="middle" x="640.92" y="-365.6" font-family="Helvetica Bold" font-size="13.00" fill="#28a745">Theorems (Proof Chain)</text>
</g>
<!-- L4YAML.Scanner.ScannerState -->
<g id="node1" class="node">
<title>L4YAML.Scanner.ScannerState</title>
<polygon fill="#dce9f7" stroke="#4a90d9" points="1335.92,-52 1259.92,-52 1259.92,-16 1335.92,-16 1335.92,-52"/>
<text text-anchor="middle" x="1297.92" y="-31.5" font-family="Helvetica" font-size="10.00">ScannerState</text>
</g>
<!-- L4YAML.Scanner.skipToContent -->
<g id="node2" class="node">
<title>L4YAML.Scanner.skipToContent</title>
<polygon fill="#dce9f7" stroke="#4a90d9" points="1350.92,-241 1270.92,-241 1270.92,-205 1350.92,-205 1350.92,-241"/>
<text text-anchor="middle" x="1310.92" y="-220.5" font-family="Helvetica" font-size="10.00">skipToContent</text>
</g>
<!-- L4YAML.Scanner.skipToContent&#45;&gt;L4YAML.Scanner.ScannerState -->
<g id="edge17" class="edge">
<title>L4YAML.Scanner.skipToContent&#45;&gt;L4YAML.Scanner.ScannerState</title>
<path fill="none" stroke="#4a90d9" stroke-width="2" d="M1324.27,-204.86C1340.47,-183.64 1366.21,-148.42 1370.92,-133 1376.64,-114.3 1379.72,-106.46 1370.92,-89 1364.09,-75.45 1352.08,-64.46 1339.74,-56.01"/>
<polygon fill="#4a90d9" stroke="#4a90d9" stroke-width="2" points="1340.89,-53.83 1333.68,-52.07 1338.22,-57.94 1340.89,-53.83"/>
<text text-anchor="middle" x="1385.42" y="-113.1" font-family="Times-Roman" font-size="8.00">calls</text>
</g>
<!-- L4YAML.Scanner.skipToContentLoop -->
<g id="node4" class="node">
<title>L4YAML.Scanner.skipToContentLoop</title>
<polygon fill="#dce9f7" stroke="#4a90d9" points="1361.42,-133 1260.42,-133 1260.42,-97 1361.42,-97 1361.42,-133"/>
<text text-anchor="middle" x="1310.92" y="-112.5" font-family="Helvetica" font-size="10.00">skipToContentLoop</text>
</g>
<!-- L4YAML.Scanner.skipToContent&#45;&gt;L4YAML.Scanner.skipToContentLoop -->
<g id="edge2" class="edge">
<title>L4YAML.Scanner.skipToContent&#45;&gt;L4YAML.Scanner.skipToContentLoop</title>
<path fill="none" stroke="#4a90d9" stroke-width="2" d="M1310.92,-204.97C1310.92,-187.53 1310.92,-160.26 1310.92,-140.51"/>
<polygon fill="#4a90d9" stroke="#4a90d9" stroke-width="2" points="1313.37,-140.34 1310.92,-133.34 1308.47,-140.34 1313.37,-140.34"/>
<text text-anchor="middle" x="1320.42" y="-167.1" font-family="Times-Roman" font-size="8.00">calls</text>
</g>
<!-- L4YAML.Scanner.ScannerState.tokens -->
<g id="node3" class="node">
<title>L4YAML.Scanner.ScannerState.tokens</title>
<polygon fill="#dce9f7" stroke="#4a90d9" points="1471.42,-187 1364.42,-187 1364.42,-151 1471.42,-151 1471.42,-187"/>
<text text-anchor="middle" x="1417.92" y="-166.5" font-family="Helvetica" font-size="10.00">ScannerState.tokens</text>
</g>
<!-- L4YAML.Scanner.ScannerState.tokens&#45;&gt;L4YAML.Scanner.ScannerState -->
<g id="edge15" class="edge">
<title>L4YAML.Scanner.ScannerState.tokens&#45;&gt;L4YAML.Scanner.ScannerState</title>
<path fill="none" stroke="#4a90d9" stroke-width="2" d="M1422.43,-150.99C1425.92,-134.52 1428.95,-109.15 1420.92,-89 1408.81,-58.61 1373.05,-45.31 1343.19,-39.5"/>
<polygon fill="#4a90d9" stroke="#4a90d9" stroke-width="2" points="1343.46,-37.06 1336.14,-38.24 1342.6,-41.88 1343.46,-37.06"/>
<text text-anchor="middle" x="1435.42" y="-113.1" font-family="Times-Roman" font-size="8.00">calls</text>
</g>
<!-- L4YAML.Scanner.skipToContentLoop&#45;&gt;L4YAML.Scanner.ScannerState -->
<g id="edge5" class="edge">
<title>L4YAML.Scanner.skipToContentLoop&#45;&gt;L4YAML.Scanner.ScannerState</title>
<path fill="none" stroke="#4a90d9" stroke-width="2" d="M1308.1,-96.86C1306.29,-85.88 1303.92,-71.48 1301.92,-59.33"/>
<polygon fill="#4a90d9" stroke="#4a90d9" stroke-width="2" points="1304.29,-58.62 1300.74,-52.11 1299.46,-59.41 1304.29,-58.62"/>
<text text-anchor="middle" x="1314.42" y="-72.6" font-family="Times-Roman" font-size="8.00">calls</text>
</g>
<!-- L4YAML.Scanner.skipToContentLoop.eq_def -->
<g id="node5" class="node">
<title>L4YAML.Scanner.skipToContentLoop.eq_def</title>
<ellipse fill="#d4edda" stroke="#28a745" cx="825.92" cy="-115" rx="78.08" ry="18"/>
<text text-anchor="middle" x="825.92" y="-112.5" font-family="Helvetica" font-size="10.00">skipToContentLoop.eq_def</text>
</g>
<!-- L4YAML.Scanner.skipToContentLoop.eq_def&#45;&gt;L4YAML.Scanner.ScannerState -->
<g id="edge11" class="edge">
<title>L4YAML.Scanner.skipToContentLoop.eq_def&#45;&gt;L4YAML.Scanner.ScannerState</title>
<path fill="none" stroke="#999999" stroke-dasharray="1,5" d="M869.88,-100.07C883.57,-96.08 898.78,-92.01 912.92,-89 1034.51,-63.14 1180.42,-46.54 1252.72,-39.26"/>
<polygon fill="#999999" stroke="#999999" points="1253.18,-41.68 1259.91,-38.54 1252.7,-36.8 1253.18,-41.68"/>
<text text-anchor="middle" x="1020.42" y="-72.6" font-family="Times-Roman" font-size="8.00">about</text>
</g>
<!-- L4YAML.Proofs.ScannerCorrectness.skipToContent_preserves_tokens -->
<g id="node6" class="node">
<title>L4YAML.Proofs.ScannerCorrectness.skipToContent_preserves_tokens</title>
<polygon fill="#fff3cd" stroke="#d4a017" points="1231.6,-320.54 1231.6,-335.46 1136.89,-346 1002.95,-346 908.24,-335.46 908.24,-320.54 1002.95,-310 1136.89,-310 1231.6,-320.54"/>
<polygon fill="none" stroke="#d4a017" points="1235.6,-316.96 1235.6,-339.04 1137.11,-350 1002.73,-350 904.24,-339.04 904.24,-316.96 1002.73,-306 1137.11,-306 1235.6,-316.96"/>
<text text-anchor="middle" x="1069.92" y="-325.5" font-family="Helvetica" font-size="10.00">ScannerCorrectness.skipToContent_preserves_tokens</text>
</g>
<!-- L4YAML.Proofs.ScannerCorrectness.skipToContent_preserves_tokens&#45;&gt;L4YAML.Scanner.skipToContent -->
<g id="edge1" class="edge">
<title>L4YAML.Proofs.ScannerCorrectness.skipToContent_preserves_tokens&#45;&gt;L4YAML.Scanner.skipToContent</title>
<path fill="none" stroke="#999999" stroke-dasharray="1,5" d="M1151.49,-307.58C1182.59,-298.58 1217.78,-286.42 1247.92,-271 1261.37,-264.12 1274.97,-254.4 1286.07,-245.59"/>
<polygon fill="#999999" stroke="#999999" points="1287.74,-247.39 1291.64,-241.08 1284.66,-243.58 1287.74,-247.39"/>
<text text-anchor="middle" x="1242.42" y="-281.6" font-family="Times-Roman" font-size="8.00">about</text>
</g>
<!-- L4YAML.Proofs.ScannerCorrectness.skipToContent_preserves_tokens&#45;&gt;L4YAML.Scanner.ScannerState.tokens -->
<g id="edge14" class="edge">
<title>L4YAML.Proofs.ScannerCorrectness.skipToContent_preserves_tokens&#45;&gt;L4YAML.Scanner.ScannerState.tokens</title>
<path fill="none" stroke="#999999" stroke-dasharray="1,5" d="M1198.37,-312.81C1263.25,-303.58 1333.68,-289.74 1359.92,-271 1386.17,-252.26 1402.22,-217.66 1410.6,-194.25"/>
<polygon fill="#999999" stroke="#999999" points="1413,-194.78 1412.95,-187.37 1408.37,-193.2 1413,-194.78"/>
<text text-anchor="middle" x="1355.42" y="-281.6" font-family="Times-Roman" font-size="8.00">about</text>
</g>
<!-- L4YAML.Proofs.ScannerCorrectness.skipToContentLoop_preserves_tokens -->
<g id="node9" class="node">
<title>L4YAML.Proofs.ScannerCorrectness.skipToContentLoop_preserves_tokens</title>
<ellipse fill="#d4edda" stroke="#28a745" cx="825.92" cy="-223" rx="161.76" ry="18"/>
<text text-anchor="middle" x="825.92" y="-220.5" font-family="Helvetica" font-size="10.00">ScannerCorrectness.skipToContentLoop_preserves_tokens</text>
</g>
<!-- L4YAML.Proofs.ScannerCorrectness.skipToContent_preserves_tokens&#45;&gt;L4YAML.Proofs.ScannerCorrectness.skipToContentLoop_preserves_tokens -->
<g id="edge3" class="edge">
<title>L4YAML.Proofs.ScannerCorrectness.skipToContent_preserves_tokens&#45;&gt;L4YAML.Proofs.ScannerCorrectness.skipToContentLoop_preserves_tokens</title>
<path fill="none" stroke="#28a745" stroke-width="2" d="M1019.96,-305.91C976.41,-287.53 913.8,-261.1 871.58,-243.27"/>
<polygon fill="#28a745" stroke="#28a745" stroke-width="2" points="872.39,-240.96 864.99,-240.49 870.48,-245.47 872.39,-240.96"/>
<text text-anchor="middle" x="987.92" y="-281.6" font-family="Times-Roman" font-size="8.00">uses</text>
</g>
<!-- L4YAML.Proofs.ScannerCorrectness.consumeNewline_preserves_tokens -->
<g id="node7" class="node">
<title>L4YAML.Proofs.ScannerCorrectness.consumeNewline_preserves_tokens</title>
<ellipse fill="#d4edda" stroke="#28a745" cx="1078.92" cy="-115" rx="156.67" ry="18"/>
<text text-anchor="middle" x="1078.92" y="-112.5" font-family="Helvetica" font-size="10.00">ScannerCorrectness.consumeNewline_preserves_tokens</text>
</g>
<!-- L4YAML.Proofs.ScannerCorrectness.consumeNewline_preserves_tokens&#45;&gt;L4YAML.Scanner.ScannerState -->
<g id="edge13" class="edge">
<title>L4YAML.Proofs.ScannerCorrectness.consumeNewline_preserves_tokens&#45;&gt;L4YAML.Scanner.ScannerState</title>
<path fill="none" stroke="#999999" stroke-dasharray="1,5" d="M1124.03,-97.73C1161.75,-84.12 1215.28,-64.81 1252.96,-51.22"/>
<polygon fill="#999999" stroke="#999999" points="1254.05,-53.43 1259.81,-48.75 1252.39,-48.82 1254.05,-53.43"/>
<text text-anchor="middle" x="1208.42" y="-72.6" font-family="Times-Roman" font-size="8.00">about</text>
</g>
<!-- L4YAML.Proofs.ScannerCorrectness.skipToContentWs_preserves_tokens -->
<g id="node8" class="node">
<title>L4YAML.Proofs.ScannerCorrectness.skipToContentWs_preserves_tokens</title>
<ellipse fill="#d4edda" stroke="#28a745" cx="203.92" cy="-115" rx="158.2" ry="18"/>
<text text-anchor="middle" x="203.92" y="-112.5" font-family="Helvetica" font-size="10.00">ScannerCorrectness.skipToContentWs_preserves_tokens</text>
</g>
<!-- L4YAML.Proofs.ScannerCorrectness.skipToContentWs_preserves_tokens&#45;&gt;L4YAML.Scanner.ScannerState -->
<g id="edge7" class="edge">
<title>L4YAML.Proofs.ScannerCorrectness.skipToContentWs_preserves_tokens&#45;&gt;L4YAML.Scanner.ScannerState</title>
<path fill="none" stroke="#999999" stroke-dasharray="1,5" d="M289.2,-99.8C315.65,-95.8 344.94,-91.79 371.92,-89 709.14,-54.15 1117.95,-40.1 1252.56,-36.21"/>
<polygon fill="#999999" stroke="#999999" points="1252.97,-38.65 1259.9,-36 1252.83,-33.75 1252.97,-38.65"/>
<text text-anchor="middle" x="587.42" y="-72.6" font-family="Times-Roman" font-size="8.00">about</text>
</g>
<!-- L4YAML.Proofs.ScannerCorrectness.skipToContentLoop_preserves_tokens&#45;&gt;L4YAML.Scanner.ScannerState -->
<g id="edge16" class="edge">
<title>L4YAML.Proofs.ScannerCorrectness.skipToContentLoop_preserves_tokens&#45;&gt;L4YAML.Scanner.ScannerState</title>
<path fill="none" stroke="#999999" stroke-dasharray="1,5" d="M667.03,-219.47C404.64,-212.51 -81.55,-186.48 11.92,-89 55.72,-43.32 1029.15,-36.2 1252.52,-35.17"/>
<polygon fill="#999999" stroke="#999999" points="1252.85,-37.61 1259.84,-35.13 1252.83,-32.71 1252.85,-37.61"/>
<text text-anchor="middle" x="24.42" y="-113.1" font-family="Times-Roman" font-size="8.00">about</text>
</g>
<!-- L4YAML.Proofs.ScannerCorrectness.skipToContentLoop_preserves_tokens&#45;&gt;L4YAML.Scanner.skipToContentLoop -->
<g id="edge4" class="edge">
<title>L4YAML.Proofs.ScannerCorrectness.skipToContentLoop_preserves_tokens&#45;&gt;L4YAML.Scanner.skipToContentLoop</title>
<path fill="none" stroke="#999999" stroke-dasharray="1,5" d="M908.43,-207.43C941.32,-201.41 979.47,-194.18 1013.92,-187 1118.41,-165.23 1144.38,-158.91 1247.92,-133 1249.7,-132.55 1251.51,-132.1 1253.33,-131.63"/>
<polygon fill="#999999" stroke="#999999" points="1254.25,-133.93 1260.42,-129.8 1253.03,-129.18 1254.25,-133.93"/>
<text text-anchor="middle" x="1184.42" y="-167.1" font-family="Times-Roman" font-size="8.00">about</text>
</g>
<!-- L4YAML.Proofs.ScannerCorrectness.skipToContentLoop_preserves_tokens&#45;&gt;L4YAML.Scanner.skipToContentLoop.eq_def -->
<g id="edge10" class="edge">
<title>L4YAML.Proofs.ScannerCorrectness.skipToContentLoop_preserves_tokens&#45;&gt;L4YAML.Scanner.skipToContentLoop.eq_def</title>
<path fill="none" stroke="#28a745" stroke-width="2" d="M825.92,-204.97C825.92,-187.53 825.92,-160.26 825.92,-140.51"/>
<polygon fill="#28a745" stroke="#28a745" stroke-width="2" points="828.37,-140.34 825.92,-133.34 823.47,-140.34 828.37,-140.34"/>
<text text-anchor="middle" x="835.92" y="-167.1" font-family="Times-Roman" font-size="8.00">uses</text>
</g>
<!-- L4YAML.Proofs.ScannerCorrectness.skipToContentLoop_preserves_tokens&#45;&gt;L4YAML.Proofs.ScannerCorrectness.consumeNewline_preserves_tokens -->
<g id="edge12" class="edge">
<title>L4YAML.Proofs.ScannerCorrectness.skipToContentLoop_preserves_tokens&#45;&gt;L4YAML.Proofs.ScannerCorrectness.consumeNewline_preserves_tokens</title>
<path fill="none" stroke="#28a745" stroke-width="2" d="M865.45,-205.44C910.85,-186.42 985.2,-155.27 1033.09,-135.2"/>
<polygon fill="#28a745" stroke="#28a745" stroke-width="2" points="1034.16,-137.41 1039.67,-132.45 1032.26,-132.89 1034.16,-137.41"/>
<text text-anchor="middle" x="999.92" y="-167.1" font-family="Times-Roman" font-size="8.00">uses</text>
</g>
<!-- L4YAML.Proofs.ScannerCorrectness.skipToContentLoop_preserves_tokens&#45;&gt;L4YAML.Proofs.ScannerCorrectness.skipToContentWs_preserves_tokens -->
<g id="edge6" class="edge">
<title>L4YAML.Proofs.ScannerCorrectness.skipToContentLoop_preserves_tokens&#45;&gt;L4YAML.Proofs.ScannerCorrectness.skipToContentWs_preserves_tokens</title>
<path fill="none" stroke="#28a745" stroke-width="2" d="M741.39,-207.59C624.63,-187.7 414.87,-151.95 294.84,-131.49"/>
<polygon fill="#28a745" stroke="#28a745" stroke-width="2" points="295.08,-129.05 287.77,-130.29 294.26,-133.88 295.08,-129.05"/>
<text text-anchor="middle" x="617.92" y="-167.1" font-family="Times-Roman" font-size="8.00">uses</text>
</g>
<!-- L4YAML.Proofs.ScannerCorrectness.skipToContentComment_preserves_tokens -->
<g id="node10" class="node">
<title>L4YAML.Proofs.ScannerCorrectness.skipToContentComment_preserves_tokens</title>
<ellipse fill="#d4edda" stroke="#28a745" cx="554.92" cy="-115" rx="174.49" ry="18"/>
<text text-anchor="middle" x="554.92" y="-112.5" font-family="Helvetica" font-size="10.00">ScannerCorrectness.skipToContentComment_preserves_tokens</text>
</g>
<!-- L4YAML.Proofs.ScannerCorrectness.skipToContentLoop_preserves_tokens&#45;&gt;L4YAML.Proofs.ScannerCorrectness.skipToContentComment_preserves_tokens -->
<g id="edge8" class="edge">
<title>L4YAML.Proofs.ScannerCorrectness.skipToContentLoop_preserves_tokens&#45;&gt;L4YAML.Proofs.ScannerCorrectness.skipToContentComment_preserves_tokens</title>
<path fill="none" stroke="#28a745" stroke-width="2" d="M783.87,-205.55C735.21,-186.52 655.2,-155.22 603.81,-135.12"/>
<polygon fill="#28a745" stroke="#28a745" stroke-width="2" points="604.48,-132.75 597.07,-132.48 602.69,-137.32 604.48,-132.75"/>
<text text-anchor="middle" x="740.92" y="-167.1" font-family="Times-Roman" font-size="8.00">uses</text>
</g>
<!-- L4YAML.Proofs.ScannerCorrectness.skipToContentComment_preserves_tokens&#45;&gt;L4YAML.Scanner.ScannerState -->
<g id="edge9" class="edge">
<title>L4YAML.Proofs.ScannerCorrectness.skipToContentComment_preserves_tokens&#45;&gt;L4YAML.Scanner.ScannerState</title>
<path fill="none" stroke="#999999" stroke-dasharray="1,5" d="M652.23,-100.06C680.19,-96.25 710.74,-92.27 738.92,-89 929.59,-66.85 1157.59,-46.83 1252.75,-38.77"/>
<polygon fill="#999999" stroke="#999999" points="1253.14,-41.19 1259.91,-38.16 1252.73,-36.31 1253.14,-41.19"/>
<text text-anchor="middle" x="920.42" y="-72.6" font-family="Times-Roman" font-size="8.00">about</text>
</g>
</g>
</svg>
