<?xml version="1.0" encoding="UTF-8" standalone="no"?>
<!DOCTYPE svg PUBLIC "-//W3C//DTD SVG 1.1//EN"
 "http://www.w3.org/Graphics/SVG/1.1/DTD/svg11.dtd">
<!-- Generated by graphviz version 2.44.0 (0)
 -->
<!-- Title: chain_CouplingBridge.advance_newline_corr Pages: 1 -->
<svg width="1192pt" height="432pt"
 viewBox="0.00 0.00 1192.00 432.00" xmlns="http://www.w3.org/2000/svg" xmlns:xlink="http://www.w3.org/1999/xlink">
<g id="graph0" class="graph" transform="scale(1 1) rotate(0) translate(4 428)">
<title>chain_CouplingBridge.advance_newline_corr</title>
<polygon fill="white" stroke="transparent" points="-4,4 -4,-428 1188,-428 1188,4 -4,4"/>
<text text-anchor="middle" x="592" y="-409.6" font-family="Helvetica Bold" font-size="13.00">Functorial Chains: CouplingBridge.advance_newline_corr</text>
<text text-anchor="middle" x="592" y="-395.6" font-family="Helvetica Bold" font-size="13.00">(heuristic: used by 5 proofs)</text>
<g id="clust1" class="cluster">
<title>cluster_fns</title>
<polygon fill="none" stroke="#4a90d9" stroke-dasharray="5,2" points="692,-8 692,-271 1176,-271 1176,-8 692,-8"/>
<text text-anchor="middle" x="934" y="-256.6" font-family="Helvetica Bold" font-size="13.00" fill="#4a90d9">Functions (Call Chain)</text>
</g>
<g id="clust2" class="cluster">
<title>cluster_thms</title>
<polygon fill="none" stroke="#28a745" stroke-dasharray="5,2" points="8,-89 8,-380 601,-380 601,-89 8,-89"/>
<text text-anchor="middle" x="304.5" y="-365.6" font-family="Helvetica Bold" font-size="13.00" fill="#28a745">Theorems (Proof Chain)</text>
</g>
<!-- L4YAML.Scanner.ScannerState.input -->
<g id="node1" class="node">
<title>L4YAML.Scanner.ScannerState.input</title>
<g id="a_node1"><a xlink:href="../../../api/L4YAML/Scanner.html#L4YAML.Scanner.ScannerState.input" xlink:title="ScannerState.input" target="_blank">
<polygon fill="#dce9f7" stroke="#4a90d9" points="922,-133 822,-133 822,-97 922,-97 922,-133"/>
<text text-anchor="middle" x="872" y="-112.5" font-family="Helvetica" font-size="10.00">ScannerState.input</text>
</a>
</g>
</g>
<!-- L4YAML.Scanner.ScannerState -->
<g id="node3" class="node">
<title>L4YAML.Scanner.ScannerState</title>
<g id="a_node3"><a xlink:href="../../../api/L4YAML/Scanner.html#L4YAML.Scanner.ScannerState" xlink:title="ScannerState" target="_blank">
<polygon fill="#dce9f7" stroke="#4a90d9" points="783,-52 707,-52 707,-16 783,-16 783,-52"/>
<text text-anchor="middle" x="745" y="-31.5" font-family="Helvetica" font-size="10.00">ScannerState</text>
</a>
</g>
</g>
<!-- L4YAML.Scanner.ScannerState.input&#45;&gt;L4YAML.Scanner.ScannerState -->
<g id="edge5" class="edge">
<title>L4YAML.Scanner.ScannerState.input&#45;&gt;L4YAML.Scanner.ScannerState</title>
<path fill="none" stroke="#4a90d9" stroke-width="2" d="M844.44,-96.86C825.14,-84.85 799.22,-68.73 778.69,-55.96"/>
<polygon fill="#4a90d9" stroke="#4a90d9" stroke-width="2" points="779.74,-53.73 772.5,-52.11 777.15,-57.89 779.74,-53.73"/>
<text text-anchor="middle" x="822.5" y="-72.6" font-family="Times-Roman" font-size="8.00">calls</text>
</g>
<!-- L4YAML.Scanner.ScannerState.advance -->
<g id="node2" class="node">
<title>L4YAML.Scanner.ScannerState.advance</title>
<g id="a_node2"><a xlink:href="../../../api/L4YAML/Scanner.html#L4YAML.Scanner.ScannerState.advance" xlink:title="ScannerState.advance" target="_blank">
<polygon fill="#dce9f7" stroke="#4a90d9" points="1051.5,-241 936.5,-241 936.5,-205 1051.5,-205 1051.5,-241"/>
<text text-anchor="middle" x="994" y="-220.5" font-family="Helvetica" font-size="10.00">ScannerState.advance</text>
</a>
</g>
</g>
<!-- L4YAML.Scanner.ScannerState.advance&#45;&gt;L4YAML.Scanner.ScannerState.input -->
<g id="edge2" class="edge">
<title>L4YAML.Scanner.ScannerState.advance&#45;&gt;L4YAML.Scanner.ScannerState.input</title>
<path fill="none" stroke="#4a90d9" stroke-width="2" d="M992.98,-204.9C991.15,-188.98 986.06,-165.58 972,-151 968.47,-147.34 949.35,-140.32 928.75,-133.52"/>
<polygon fill="#4a90d9" stroke="#4a90d9" stroke-width="2" points="929.45,-131.16 922.03,-131.32 927.92,-135.82 929.45,-131.16"/>
<text text-anchor="middle" x="999.5" y="-167.1" font-family="Times-Roman" font-size="8.00">calls</text>
</g>
<!-- L4YAML.Scanner.ScannerState.col -->
<g id="node4" class="node">
<title>L4YAML.Scanner.ScannerState.col</title>
<g id="a_node4"><a xlink:href="../../../api/L4YAML/Scanner.html#L4YAML.Scanner.ScannerState.col" xlink:title="ScannerState.col" target="_blank">
<polygon fill="#dce9f7" stroke="#4a90d9" points="1168,-133 1076,-133 1076,-97 1168,-97 1168,-133"/>
<text text-anchor="middle" x="1122" y="-112.5" font-family="Helvetica" font-size="10.00">ScannerState.col</text>
</a>
</g>
</g>
<!-- L4YAML.Scanner.ScannerState.advance&#45;&gt;L4YAML.Scanner.ScannerState.col -->
<g id="edge20" class="edge">
<title>L4YAML.Scanner.ScannerState.advance&#45;&gt;L4YAML.Scanner.ScannerState.col</title>
<path fill="none" stroke="#4a90d9" stroke-width="2" d="M1016.59,-204.76C1023.81,-199.16 1031.79,-192.88 1039,-187 1058.8,-170.85 1080.76,-152.02 1097.11,-137.82"/>
<polygon fill="#4a90d9" stroke="#4a90d9" stroke-width="2" points="1098.76,-139.63 1102.43,-133.19 1095.54,-135.94 1098.76,-139.63"/>
<text text-anchor="middle" x="1089.5" y="-167.1" font-family="Times-Roman" font-size="8.00">calls</text>
</g>
<!-- L4YAML.Scanner.ScannerState.offset -->
<g id="node5" class="node">
<title>L4YAML.Scanner.ScannerState.offset</title>
<g id="a_node5"><a xlink:href="../../../api/L4YAML/Scanner.html#L4YAML.Scanner.ScannerState.offset" xlink:title="ScannerState.offset" target="_blank">
<polygon fill="#dce9f7" stroke="#4a90d9" points="803.5,-133 700.5,-133 700.5,-97 803.5,-97 803.5,-133"/>
<text text-anchor="middle" x="752" y="-112.5" font-family="Helvetica" font-size="10.00">ScannerState.offset</text>
</a>
</g>
</g>
<!-- L4YAML.Scanner.ScannerState.advance&#45;&gt;L4YAML.Scanner.ScannerState.offset -->
<g id="edge15" class="edge">
<title>L4YAML.Scanner.ScannerState.advance&#45;&gt;L4YAML.Scanner.ScannerState.offset</title>
<path fill="none" stroke="#4a90d9" stroke-width="2" d="M968.06,-204.83C961.34,-199.61 954.47,-193.52 949,-187 937.38,-173.14 944.74,-161.5 930,-151 887.15,-120.48 864.43,-144.08 813,-133 812.25,-132.84 811.49,-132.67 810.73,-132.5"/>
<polygon fill="#4a90d9" stroke="#4a90d9" stroke-width="2" points="811.18,-130.09 803.81,-130.89 810.07,-134.86 811.18,-130.09"/>
<text text-anchor="middle" x="958.5" y="-167.1" font-family="Times-Roman" font-size="8.00">calls</text>
</g>
<!-- L4YAML.Scanner.ScannerState.inputEnd -->
<g id="node6" class="node">
<title>L4YAML.Scanner.ScannerState.inputEnd</title>
<g id="a_node6"><a xlink:href="../../../api/L4YAML/Scanner.html#L4YAML.Scanner.ScannerState.inputEnd" xlink:title="ScannerState.inputEnd" target="_blank">
<polygon fill="#dce9f7" stroke="#4a90d9" points="1057.5,-133 940.5,-133 940.5,-97 1057.5,-97 1057.5,-133"/>
<text text-anchor="middle" x="999" y="-112.5" font-family="Helvetica" font-size="10.00">ScannerState.inputEnd</text>
</a>
</g>
</g>
<!-- L4YAML.Scanner.ScannerState.advance&#45;&gt;L4YAML.Scanner.ScannerState.inputEnd -->
<g id="edge12" class="edge">
<title>L4YAML.Scanner.ScannerState.advance&#45;&gt;L4YAML.Scanner.ScannerState.inputEnd</title>
<path fill="none" stroke="#4a90d9" stroke-width="2" d="M1006.07,-204.97C1009.3,-199.49 1012.35,-193.22 1014,-187 1018.11,-171.54 1017.22,-166.67 1014,-151 1013.25,-147.37 1012.12,-143.65 1010.79,-140.06"/>
<polygon fill="#4a90d9" stroke="#4a90d9" stroke-width="2" points="1012.98,-138.92 1008.08,-133.35 1008.44,-140.76 1012.98,-138.92"/>
<text text-anchor="middle" x="1025.5" y="-167.1" font-family="Times-Roman" font-size="8.00">calls</text>
</g>
<!-- L4YAML.Scanner.ScannerState.col&#45;&gt;L4YAML.Scanner.ScannerState -->
<g id="edge22" class="edge">
<title>L4YAML.Scanner.ScannerState.col&#45;&gt;L4YAML.Scanner.ScannerState</title>
<path fill="none" stroke="#4a90d9" stroke-width="2" d="M1088.21,-96.98C1081.32,-93.99 1074.02,-91.14 1067,-89 970.95,-59.67 853.62,-45.07 790.47,-38.86"/>
<polygon fill="#4a90d9" stroke="#4a90d9" stroke-width="2" points="790.62,-36.42 783.41,-38.18 790.15,-41.29 790.62,-36.42"/>
<text text-anchor="middle" x="1033.5" y="-72.6" font-family="Times-Roman" font-size="8.00">calls</text>
</g>
<!-- L4YAML.Scanner.ScannerState.offset&#45;&gt;L4YAML.Scanner.ScannerState -->
<g id="edge17" class="edge">
<title>L4YAML.Scanner.ScannerState.offset&#45;&gt;L4YAML.Scanner.ScannerState</title>
<path fill="none" stroke="#4a90d9" stroke-width="2" d="M750.48,-96.86C749.51,-85.88 748.23,-71.48 747.16,-59.33"/>
<polygon fill="#4a90d9" stroke="#4a90d9" stroke-width="2" points="749.57,-58.86 746.52,-52.11 744.69,-59.3 749.57,-58.86"/>
<text text-anchor="middle" x="758.5" y="-72.6" font-family="Times-Roman" font-size="8.00">calls</text>
</g>
<!-- L4YAML.Scanner.ScannerState.inputEnd&#45;&gt;L4YAML.Scanner.ScannerState -->
<g id="edge14" class="edge">
<title>L4YAML.Scanner.ScannerState.inputEnd&#45;&gt;L4YAML.Scanner.ScannerState</title>
<path fill="none" stroke="#4a90d9" stroke-width="2" d="M953.8,-96.88C946.22,-94.16 938.41,-91.43 931,-89 883.33,-73.34 828.04,-57.59 790.21,-47.17"/>
<polygon fill="#4a90d9" stroke="#4a90d9" stroke-width="2" points="790.75,-44.78 783.36,-45.29 789.46,-49.51 790.75,-44.78"/>
<text text-anchor="middle" x="905.5" y="-72.6" font-family="Times-Roman" font-size="8.00">calls</text>
</g>
<!-- L4YAML.Proofs.CouplingBridge.advance_col_newline._proof_1_1 -->
<g id="node7" class="node">
<title>L4YAML.Proofs.CouplingBridge.advance_col_newline._proof_1_1</title>
<g id="a_node7"><a xlink:href="../../../api/L4YAML/Proofs/CouplingBridge.html#L4YAML.Proofs.CouplingBridge.advance_col_newline._proof_1_1" xlink:title="CouplingBridge.advance_col_newline._proof_1_1" target="_blank">
<ellipse fill="#d4edda" stroke="#28a745" cx="425" cy="-115" rx="134.61" ry="18"/>
<text text-anchor="middle" x="425" y="-112.5" font-family="Helvetica" font-size="10.00">CouplingBridge.advance_col_newline._proof_1_1</text>
</a>
</g>
</g>
<!-- L4YAML.Proofs.CouplingBridge.advance_col_newline._proof_1_1&#45;&gt;L4YAML.Scanner.ScannerState -->
<g id="edge7" class="edge">
<title>L4YAML.Proofs.CouplingBridge.advance_col_newline._proof_1_1&#45;&gt;L4YAML.Scanner.ScannerState</title>
<path fill="none" stroke="#999999" stroke-dasharray="1,5" d="M468.25,-97.91C493.81,-88.82 526.95,-77.77 557,-70 605.26,-57.53 661.59,-47.64 699.91,-41.6"/>
<polygon fill="#999999" stroke="#999999" points="700.32,-44.02 706.85,-40.52 699.56,-39.18 700.32,-44.02"/>
<text text-anchor="middle" x="569.5" y="-72.6" font-family="Times-Roman" font-size="8.00">about</text>
</g>
<!-- L4YAML.Proofs.CouplingBridge.advance_offset_eq._proof_1_1 -->
<g id="node8" class="node">
<title>L4YAML.Proofs.CouplingBridge.advance_offset_eq._proof_1_1</title>
<g id="a_node8"><a xlink:href="../../../api/L4YAML/Proofs/CouplingBridge.html#L4YAML.Proofs.CouplingBridge.advance_offset_eq._proof_1_1" xlink:title="CouplingBridge.advance_offset_eq._proof_1_1" target="_blank">
<ellipse fill="#d4edda" stroke="#28a745" cx="144" cy="-115" rx="128.16" ry="18"/>
<text text-anchor="middle" x="144" y="-112.5" font-family="Helvetica" font-size="10.00">CouplingBridge.advance_offset_eq._proof_1_1</text>
</a>
</g>
</g>
<!-- L4YAML.Proofs.CouplingBridge.advance_offset_eq._proof_1_1&#45;&gt;L4YAML.Scanner.ScannerState -->
<g id="edge11" class="edge">
<title>L4YAML.Proofs.CouplingBridge.advance_offset_eq._proof_1_1&#45;&gt;L4YAML.Scanner.ScannerState</title>
<path fill="none" stroke="#999999" stroke-dasharray="1,5" d="M215.67,-100.02C236.67,-96.17 259.72,-92.18 281,-89 434.15,-66.14 616.96,-47.34 700,-39.26"/>
<polygon fill="#999999" stroke="#999999" points="700.27,-41.7 707,-38.58 699.79,-36.82 700.27,-41.7"/>
<text text-anchor="middle" x="433.5" y="-72.6" font-family="Times-Roman" font-size="8.00">about</text>
</g>
<!-- L4YAML.Proofs.CouplingBridge.advance_col_newline -->
<g id="node9" class="node">
<title>L4YAML.Proofs.CouplingBridge.advance_col_newline</title>
<g id="a_node9"><a xlink:href="../../../api/L4YAML/Proofs/CouplingBridge.html#L4YAML.Proofs.CouplingBridge.advance_col_newline" xlink:title="CouplingBridge.advance_col_newline" target="_blank">
<ellipse fill="#d4edda" stroke="#28a745" cx="488" cy="-223" rx="104.56" ry="18"/>
<text text-anchor="middle" x="488" y="-220.5" font-family="Helvetica" font-size="10.00">CouplingBridge.advance_col_newline</text>
</a>
</g>
</g>
<!-- L4YAML.Proofs.CouplingBridge.advance_col_newline&#45;&gt;L4YAML.Scanner.ScannerState.input -->
<g id="edge4" class="edge">
<title>L4YAML.Proofs.CouplingBridge.advance_col_newline&#45;&gt;L4YAML.Scanner.ScannerState.input</title>
<path fill="none" stroke="#999999" stroke-dasharray="1,5" d="M582.18,-214.99C662.92,-208.32 768.87,-197.73 786,-187 802.09,-176.92 795.17,-164.01 809,-151 814.58,-145.75 821.1,-141.01 827.79,-136.83"/>
<polygon fill="#999999" stroke="#999999" points="829.19,-138.85 833.95,-133.16 826.68,-134.64 829.19,-138.85"/>
<text text-anchor="middle" x="821.5" y="-167.1" font-family="Times-Roman" font-size="8.00">about</text>
</g>
<!-- L4YAML.Proofs.CouplingBridge.advance_col_newline&#45;&gt;L4YAML.Scanner.ScannerState.col -->
<g id="edge21" class="edge">
<title>L4YAML.Proofs.CouplingBridge.advance_col_newline&#45;&gt;L4YAML.Scanner.ScannerState.col</title>
<path fill="none" stroke="#999999" stroke-dasharray="1,5" d="M579.42,-214.15C695.32,-204.15 880.43,-188.04 882,-187 897.06,-176.98 886.03,-161.16 901,-151 931.7,-130.15 1030.66,-140.51 1067,-133 1067.64,-132.87 1068.29,-132.73 1068.94,-132.59"/>
<polygon fill="#999999" stroke="#999999" points="1069.7,-134.93 1075.95,-130.93 1068.58,-130.16 1069.7,-134.93"/>
<text text-anchor="middle" x="913.5" y="-167.1" font-family="Times-Roman" font-size="8.00">about</text>
</g>
<!-- L4YAML.Proofs.CouplingBridge.advance_col_newline&#45;&gt;L4YAML.Scanner.ScannerState.offset -->
<g id="edge18" class="edge">
<title>L4YAML.Proofs.CouplingBridge.advance_col_newline&#45;&gt;L4YAML.Scanner.ScannerState.offset</title>
<path fill="none" stroke="#999999" stroke-dasharray="1,5" d="M577.73,-213.6C622.69,-207.99 671.44,-199.34 690,-187 705.81,-176.49 700.71,-165.47 713,-151 716.73,-146.61 720.99,-142.25 725.31,-138.18"/>
<polygon fill="#999999" stroke="#999999" points="727.25,-139.72 730.76,-133.19 723.94,-136.11 727.25,-139.72"/>
<text text-anchor="middle" x="725.5" y="-167.1" font-family="Times-Roman" font-size="8.00">about</text>
</g>
<!-- L4YAML.Proofs.CouplingBridge.advance_col_newline&#45;&gt;L4YAML.Scanner.ScannerState.inputEnd -->
<g id="edge19" class="edge">
<title>L4YAML.Proofs.CouplingBridge.advance_col_newline&#45;&gt;L4YAML.Scanner.ScannerState.inputEnd</title>
<path fill="none" stroke="#999999" stroke-dasharray="1,5" d="M578.39,-213.82C679.08,-204.57 828.56,-190.35 834,-187 850.17,-177.05 841.55,-162.04 857,-151 884.54,-131.32 898.14,-141.1 931,-133 931.77,-132.81 932.54,-132.62 933.32,-132.43"/>
<polygon fill="#999999" stroke="#999999" points="934.19,-134.74 940.4,-130.68 933.02,-129.98 934.19,-134.74"/>
<text text-anchor="middle" x="869.5" y="-167.1" font-family="Times-Roman" font-size="8.00">about</text>
</g>
<!-- L4YAML.Proofs.CouplingBridge.advance_col_newline&#45;&gt;L4YAML.Proofs.CouplingBridge.advance_col_newline._proof_1_1 -->
<g id="edge6" class="edge">
<title>L4YAML.Proofs.CouplingBridge.advance_col_newline&#45;&gt;L4YAML.Proofs.CouplingBridge.advance_col_newline._proof_1_1</title>
<path fill="none" stroke="#28a745" stroke-width="2" d="M530.81,-206.38C538.86,-201.44 546.24,-195.09 551,-187 559.11,-173.21 560.68,-163.74 551,-151 545.13,-143.27 529.12,-136.8 510.41,-131.61"/>
<polygon fill="#28a745" stroke="#28a745" stroke-width="2" points="510.8,-129.18 503.4,-129.76 509.54,-133.92 510.8,-129.18"/>
<text text-anchor="middle" x="568" y="-167.1" font-family="Times-Roman" font-size="8.00">uses</text>
</g>
<!-- L4YAML.Proofs.CouplingBridge.advance_inputEnd -->
<g id="node10" class="node">
<title>L4YAML.Proofs.CouplingBridge.advance_inputEnd</title>
<g id="a_node10"><a xlink:href="../../../api/L4YAML/Proofs/CouplingBridge.html#L4YAML.Proofs.CouplingBridge.advance_inputEnd" xlink:title="CouplingBridge.advance_inputEnd" target="_blank">
<ellipse fill="#d4edda" stroke="#28a745" cx="156" cy="-169" rx="97.26" ry="18"/>
<text text-anchor="middle" x="156" y="-166.5" font-family="Helvetica" font-size="10.00">CouplingBridge.advance_inputEnd</text>
</a>
</g>
</g>
<!-- L4YAML.Proofs.CouplingBridge.advance_inputEnd&#45;&gt;L4YAML.Scanner.ScannerState -->
<g id="edge28" class="edge">
<title>L4YAML.Proofs.CouplingBridge.advance_inputEnd&#45;&gt;L4YAML.Scanner.ScannerState</title>
<path fill="none" stroke="#999999" stroke-dasharray="1,5" d="M222.14,-155.81C233.72,-153.97 245.69,-152.27 257,-151 291.51,-147.11 539.2,-150.82 569,-133 588.69,-121.22 578.22,-103.5 596,-89 626.03,-64.51 668.12,-50.62 699.91,-43.08"/>
<polygon fill="#999999" stroke="#999999" points="700.66,-45.43 706.94,-41.48 699.57,-40.65 700.66,-45.43"/>
<text text-anchor="middle" x="608.5" y="-113.1" font-family="Times-Roman" font-size="8.00">about</text>
</g>
<!-- L4YAML.Proofs.CouplingBridge.advance_offset_eq -->
<g id="node11" class="node">
<title>L4YAML.Proofs.CouplingBridge.advance_offset_eq</title>
<g id="a_node11"><a xlink:href="../../../api/L4YAML/Proofs/CouplingBridge.html#L4YAML.Proofs.CouplingBridge.advance_offset_eq" xlink:title="CouplingBridge.advance_offset_eq" target="_blank">
<ellipse fill="#d4edda" stroke="#28a745" cx="267" cy="-223" rx="98.11" ry="18"/>
<text text-anchor="middle" x="267" y="-220.5" font-family="Helvetica" font-size="10.00">CouplingBridge.advance_offset_eq</text>
</a>
</g>
</g>
<!-- L4YAML.Proofs.CouplingBridge.advance_offset_eq&#45;&gt;L4YAML.Scanner.ScannerState.input -->
<g id="edge9" class="edge">
<title>L4YAML.Proofs.CouplingBridge.advance_offset_eq&#45;&gt;L4YAML.Scanner.ScannerState.input</title>
<path fill="none" stroke="#999999" stroke-dasharray="1,5" d="M335.95,-210.11C348.58,-208.2 361.66,-206.39 374,-205 403.66,-201.66 616.97,-203.26 642,-187 657.17,-177.14 646.09,-161.24 661,-151 688.85,-131.87 778.86,-139.63 812,-133 812.9,-132.82 813.8,-132.64 814.7,-132.44"/>
<polygon fill="#999999" stroke="#999999" points="815.43,-134.79 821.73,-130.87 814.36,-130.01 815.43,-134.79"/>
<text text-anchor="middle" x="673.5" y="-167.1" font-family="Times-Roman" font-size="8.00">about</text>
</g>
<!-- L4YAML.Proofs.CouplingBridge.advance_offset_eq&#45;&gt;L4YAML.Scanner.ScannerState.offset -->
<g id="edge16" class="edge">
<title>L4YAML.Proofs.CouplingBridge.advance_offset_eq&#45;&gt;L4YAML.Scanner.ScannerState.offset</title>
<path fill="none" stroke="#999999" stroke-dasharray="1,5" d="M336.54,-210.21C348.99,-208.32 361.86,-206.49 374,-205 420.05,-199.36 540.08,-206.88 582,-187 602.16,-177.44 597.71,-162.22 617,-151 617.45,-150.74 657.07,-140.48 693.27,-131.13"/>
<polygon fill="#999999" stroke="#999999" points="694.28,-133.4 700.45,-129.28 693.06,-128.66 694.28,-133.4"/>
<text text-anchor="middle" x="629.5" y="-167.1" font-family="Times-Roman" font-size="8.00">about</text>
</g>
<!-- L4YAML.Proofs.CouplingBridge.advance_offset_eq&#45;&gt;L4YAML.Scanner.ScannerState.inputEnd -->
<g id="edge13" class="edge">
<title>L4YAML.Proofs.CouplingBridge.advance_offset_eq&#45;&gt;L4YAML.Scanner.ScannerState.inputEnd</title>
<path fill="none" stroke="#999999" stroke-dasharray="1,5" d="M335.35,-210.01C348.16,-208.09 361.47,-206.3 374,-205 414.28,-200.82 703.85,-208.76 738,-187 753.26,-177.28 742.01,-161.13 757,-151 789.21,-129.24 892.71,-139.73 931,-133 931.75,-132.87 932.5,-132.73 933.26,-132.59"/>
<polygon fill="#999999" stroke="#999999" points="933.73,-135 940.14,-131.26 932.8,-130.19 933.73,-135"/>
<text text-anchor="middle" x="769.5" y="-167.1" font-family="Times-Roman" font-size="8.00">about</text>
</g>
<!-- L4YAML.Proofs.CouplingBridge.advance_offset_eq&#45;&gt;L4YAML.Proofs.CouplingBridge.advance_offset_eq._proof_1_1 -->
<g id="edge10" class="edge">
<title>L4YAML.Proofs.CouplingBridge.advance_offset_eq&#45;&gt;L4YAML.Proofs.CouplingBridge.advance_offset_eq._proof_1_1</title>
<path fill="none" stroke="#28a745" stroke-width="2" d="M169.87,-220.14C112.77,-216.76 48.28,-208.17 30,-187 19.55,-174.89 20.49,-163.87 30,-151 35.94,-142.96 43.7,-136.71 52.37,-131.86"/>
<polygon fill="#28a745" stroke="#28a745" stroke-width="2" points="53.71,-133.93 58.83,-128.57 51.48,-129.56 53.71,-133.93"/>
<text text-anchor="middle" x="40" y="-167.1" font-family="Times-Roman" font-size="8.00">uses</text>
</g>
<!-- L4YAML.Proofs.CouplingBridge.advance_newline_corr -->
<g id="node12" class="node">
<title>L4YAML.Proofs.CouplingBridge.advance_newline_corr</title>
<g id="a_node12"><a xlink:href="../../../api/L4YAML/Proofs/CouplingBridge.html#L4YAML.Proofs.CouplingBridge.advance_newline_corr" xlink:title="CouplingBridge.advance_newline_corr" target="_blank">
<polygon fill="#fff3cd" stroke="#d4a017" points="588.93,-320.54 588.93,-335.46 521.02,-346 424.98,-346 357.07,-335.46 357.07,-320.54 424.98,-310 521.02,-310 588.93,-320.54"/>
<polygon fill="none" stroke="#d4a017" points="592.93,-317.12 592.93,-338.88 521.33,-350 424.67,-350 353.07,-338.88 353.07,-317.12 424.67,-306 521.33,-306 592.93,-317.12"/>
<text text-anchor="middle" x="473" y="-325.5" font-family="Helvetica" font-size="10.00">CouplingBridge.advance_newline_corr</text>
</a>
</g>
</g>
<!-- L4YAML.Proofs.CouplingBridge.advance_newline_corr&#45;&gt;L4YAML.Scanner.ScannerState.advance -->
<g id="edge1" class="edge">
<title>L4YAML.Proofs.CouplingBridge.advance_newline_corr&#45;&gt;L4YAML.Scanner.ScannerState.advance</title>
<path fill="none" stroke="#999999" stroke-dasharray="1,5" d="M553.83,-311.02C657.28,-290.57 834.44,-255.54 929.39,-236.77"/>
<polygon fill="#999999" stroke="#999999" points="929.97,-239.16 936.37,-235.39 929.02,-234.35 929.97,-239.16"/>
<text text-anchor="middle" x="715.5" y="-281.6" font-family="Times-Roman" font-size="8.00">about</text>
</g>
<!-- L4YAML.Proofs.CouplingBridge.advance_newline_corr&#45;&gt;L4YAML.Scanner.ScannerState.col -->
<g id="edge26" class="edge">
<title>L4YAML.Proofs.CouplingBridge.advance_newline_corr&#45;&gt;L4YAML.Scanner.ScannerState.col</title>
<path fill="none" stroke="#999999" stroke-dasharray="1,5" d="M593.02,-325.87C775.51,-322.86 1105.36,-311.76 1140,-271 1171.28,-234.19 1150.25,-173.46 1134.61,-139.99"/>
<polygon fill="#999999" stroke="#999999" points="1136.62,-138.52 1131.37,-133.28 1132.21,-140.65 1136.62,-138.52"/>
<text text-anchor="middle" x="1168.5" y="-221.1" font-family="Times-Roman" font-size="8.00">about</text>
</g>
<!-- L4YAML.Proofs.CouplingBridge.advance_newline_corr&#45;&gt;L4YAML.Scanner.ScannerState.inputEnd -->
<g id="edge23" class="edge">
<title>L4YAML.Proofs.CouplingBridge.advance_newline_corr&#45;&gt;L4YAML.Scanner.ScannerState.inputEnd</title>
<path fill="none" stroke="#999999" stroke-dasharray="1,5" d="M593.19,-322.01C754.18,-314.35 1024,-297.72 1061,-271 1106.25,-238.33 1130.22,-196.57 1098,-151 1093.3,-144.36 1079.85,-138.09 1064.31,-132.75"/>
<polygon fill="#999999" stroke="#999999" points="1064.96,-130.38 1057.55,-130.52 1063.43,-135.04 1064.96,-130.38"/>
<text text-anchor="middle" x="1123.5" y="-221.1" font-family="Times-Roman" font-size="8.00">about</text>
</g>
<!-- L4YAML.Proofs.CouplingBridge.advance_newline_corr&#45;&gt;L4YAML.Proofs.CouplingBridge.advance_col_newline -->
<g id="edge3" class="edge">
<title>L4YAML.Proofs.CouplingBridge.advance_newline_corr&#45;&gt;L4YAML.Proofs.CouplingBridge.advance_col_newline</title>
<path fill="none" stroke="#28a745" stroke-width="2" d="M476.11,-305.66C478.54,-288.95 481.93,-265.71 484.46,-248.29"/>
<polygon fill="#28a745" stroke="#28a745" stroke-width="2" points="486.91,-248.5 485.49,-241.22 482.06,-247.8 486.91,-248.5"/>
<text text-anchor="middle" x="490" y="-281.6" font-family="Times-Roman" font-size="8.00">uses</text>
</g>
<!-- L4YAML.Proofs.CouplingBridge.advance_newline_corr&#45;&gt;L4YAML.Proofs.CouplingBridge.advance_inputEnd -->
<g id="edge27" class="edge">
<title>L4YAML.Proofs.CouplingBridge.advance_newline_corr&#45;&gt;L4YAML.Proofs.CouplingBridge.advance_inputEnd</title>
<path fill="none" stroke="#28a745" stroke-width="2" d="M352.95,-326.73C272.54,-323.99 176.11,-314.9 146,-288 120.14,-264.89 132.7,-220.99 144.28,-193.74"/>
<polygon fill="#28a745" stroke="#28a745" stroke-width="2" points="146.59,-194.59 147.18,-187.2 142.11,-192.61 146.59,-194.59"/>
<text text-anchor="middle" x="156" y="-281.6" font-family="Times-Roman" font-size="8.00">uses</text>
</g>
<!-- L4YAML.Proofs.CouplingBridge.advance_newline_corr&#45;&gt;L4YAML.Proofs.CouplingBridge.advance_offset_eq -->
<g id="edge8" class="edge">
<title>L4YAML.Proofs.CouplingBridge.advance_newline_corr&#45;&gt;L4YAML.Proofs.CouplingBridge.advance_offset_eq</title>
<path fill="none" stroke="#28a745" stroke-width="2" d="M430.82,-305.91C394.14,-287.57 341.43,-261.21 305.78,-243.39"/>
<polygon fill="#28a745" stroke="#28a745" stroke-width="2" points="306.69,-241.11 299.34,-240.17 304.5,-245.49 306.69,-241.11"/>
<text text-anchor="middle" x="405" y="-281.6" font-family="Times-Roman" font-size="8.00">uses</text>
</g>
<!-- L4YAML.Proofs.CouplingBridge.ScannerSurfCorr.indent_cols_nonneg -->
<g id="node13" class="node">
<title>L4YAML.Proofs.CouplingBridge.ScannerSurfCorr.indent_cols_nonneg</title>
<g id="a_node13"><a xlink:href="../../../api/L4YAML/Proofs/CouplingBridge.html#L4YAML.Proofs.CouplingBridge.ScannerSurfCorr.indent_cols_nonneg" xlink:title="CouplingBridge.ScannerSurfCorr.indent_cols_nonneg" target="_blank">
<ellipse fill="#d4edda" stroke="#28a745" cx="404" cy="-169" rx="145.98" ry="18"/>
<text text-anchor="middle" x="404" y="-166.5" font-family="Helvetica" font-size="10.00">CouplingBridge.ScannerSurfCorr.indent_cols_nonneg</text>
</a>
</g>
</g>
<!-- L4YAML.Proofs.CouplingBridge.advance_newline_corr&#45;&gt;L4YAML.Proofs.CouplingBridge.ScannerSurfCorr.indent_cols_nonneg -->
<g id="edge24" class="edge">
<title>L4YAML.Proofs.CouplingBridge.advance_newline_corr&#45;&gt;L4YAML.Proofs.CouplingBridge.ScannerSurfCorr.indent_cols_nonneg</title>
<path fill="none" stroke="#28a745" stroke-width="2" d="M352.89,-321.11C275.43,-314.5 184.71,-300.53 160,-271 141.17,-248.51 140.79,-227.17 160,-205 164.69,-199.59 231.17,-190.27 293.55,-182.61"/>
<polygon fill="#28a745" stroke="#28a745" stroke-width="2" points="294.09,-185.01 300.74,-181.73 293.49,-180.15 294.09,-185.01"/>
<text text-anchor="middle" x="194" y="-281.6" font-family="Times-Roman" font-size="8.00">uses</text>
</g>
<!-- L4YAML.Proofs.CouplingBridge.ScannerSurfCorr.indent_cols_nonneg&#45;&gt;L4YAML.Scanner.ScannerState -->
<g id="edge25" class="edge">
<title>L4YAML.Proofs.CouplingBridge.ScannerSurfCorr.indent_cols_nonneg&#45;&gt;L4YAML.Scanner.ScannerState</title>
<path fill="none" stroke="#999999" stroke-dasharray="1,5" d="M501.36,-155.56C555.28,-148.14 613.68,-139.02 625,-133 648.6,-120.45 645.73,-106.43 666,-89 679.89,-77.06 696.47,-65.39 710.84,-55.97"/>
<polygon fill="#999999" stroke="#999999" points="712.31,-57.94 716.85,-52.08 709.65,-53.82 712.31,-57.94"/>
<text text-anchor="middle" x="678.5" y="-113.1" font-family="Times-Roman" font-size="8.00">about</text>
</g>
</g>
</svg>
