<?xml version="1.0" encoding="UTF-8" standalone="no"?>
<!DOCTYPE svg PUBLIC "-//W3C//DTD SVG 1.1//EN"
 "http://www.w3.org/Graphics/SVG/1.1/DTD/svg11.dtd">
<!-- Generated by graphviz version 2.44.0 (0)
 -->
<!-- Title: chain_collectTagSuffixLoop.eq_def Pages: 1 -->
<svg width="328pt" height="98pt"
 viewBox="0.00 0.00 328.00 97.92" xmlns="http://www.w3.org/2000/svg" xmlns:xlink="http://www.w3.org/1999/xlink">
<g id="graph0" class="graph" transform="scale(1 1) rotate(0) translate(4 93.92)">
<title>chain_collectTagSuffixLoop.eq_def</title>
<polygon fill="white" stroke="transparent" points="-4,4 -4,-93.92 324,-93.92 324,4 -4,4"/>
<text text-anchor="middle" x="160" y="-75.52" font-family="Helvetica Bold" font-size="13.00">Functorial Chains: collectTagSuffixLoop.eq_def</text>
<text text-anchor="middle" x="160" y="-61.52" font-family="Helvetica Bold" font-size="13.00">(heuristic: used by 7 proofs)</text>
<!-- L4YAML.Scanner.collectTagSuffixLoop.eq_def -->
<g id="node1" class="node">
<title>L4YAML.Scanner.collectTagSuffixLoop.eq_def</title>
<polygon fill="#fff3cd" stroke="black" points="266.28,-17.46 266.28,-36.46 204.02,-49.89 115.98,-49.89 53.72,-36.46 53.72,-17.46 115.98,-4.03 204.02,-4.03 266.28,-17.46"/>
<polygon fill="none" stroke="black" points="270.27,-14.24 270.27,-39.68 204.45,-53.88 115.55,-53.88 49.73,-39.68 49.73,-14.24 115.55,-0.04 204.45,-0.04 270.27,-14.24"/>
<text text-anchor="middle" x="160" y="-29.96" font-family="Helvetica" font-size="10.00">collectTagSuffixLoop.eq_def</text>
<text text-anchor="middle" x="160" y="-18.96" font-family="Helvetica" font-size="10.00">(no functorial chains found)</text>
</g>
</g>
</svg>
