<?xml version="1.0" encoding="UTF-8" standalone="no"?>
<!DOCTYPE svg PUBLIC "-//W3C//DTD SVG 1.1//EN"
 "http://www.w3.org/Graphics/SVG/1.1/DTD/svg11.dtd">
<!-- Generated by graphviz version 2.44.0 (0)
 -->
<!-- Title: chain_ScannerCorrectness.skipSpaces_offset_ge Pages: 1 -->
<svg width="730pt" height="405pt"
 viewBox="0.00 0.00 730.41 405.00" xmlns="http://www.w3.org/2000/svg" xmlns:xlink="http://www.w3.org/1999/xlink">
<g id="graph0" class="graph" transform="scale(1 1) rotate(0) translate(4 401)">
<title>chain_ScannerCorrectness.skipSpaces_offset_ge</title>
<polygon fill="white" stroke="transparent" points="-4,4 -4,-401 726.41,-401 726.41,4 -4,4"/>
<text text-anchor="middle" x="361.2" y="-382.6" font-family="Helvetica Bold" font-size="13.00">Functorial Chains: ScannerCorrectness.skipSpaces_offset_ge</text>
<text text-anchor="middle" x="361.2" y="-368.6" font-family="Helvetica Bold" font-size="13.00">(heuristic: used by 5 proofs)</text>
<g id="clust1" class="cluster">
<title>cluster_fns</title>
<polygon fill="none" stroke="#4a90d9" stroke-dasharray="5,2" points="431.41,-8 431.41,-244 714.41,-244 714.41,-8 431.41,-8"/>
<text text-anchor="middle" x="572.91" y="-229.6" font-family="Helvetica Bold" font-size="13.00" fill="#4a90d9">Functions (Call Chain)</text>
</g>
<g id="clust2" class="cluster">
<title>cluster_thms</title>
<polygon fill="none" stroke="#28a745" stroke-dasharray="5,2" points="39.41,-89 39.41,-353 423.41,-353 423.41,-89 39.41,-89"/>
<text text-anchor="middle" x="231.41" y="-338.6" font-family="Helvetica Bold" font-size="13.00" fill="#28a745">Theorems (Proof Chain)</text>
</g>
<!-- L4YAML.Scanner.skipSpaces -->
<g id="node1" class="node">
<title>L4YAML.Scanner.skipSpaces</title>
<polygon fill="#dce9f7" stroke="#4a90d9" points="576.41,-214 508.41,-214 508.41,-178 576.41,-178 576.41,-214"/>
<text text-anchor="middle" x="542.41" y="-193.5" font-family="Helvetica" font-size="10.00">skipSpaces</text>
</g>
<!-- L4YAML.Scanner.ScannerState -->
<g id="node2" class="node">
<title>L4YAML.Scanner.ScannerState</title>
<polygon fill="#dce9f7" stroke="#4a90d9" points="518.41,-52 442.41,-52 442.41,-16 518.41,-16 518.41,-52"/>
<text text-anchor="middle" x="480.41" y="-31.5" font-family="Helvetica" font-size="10.00">ScannerState</text>
</g>
<!-- L4YAML.Scanner.skipSpaces&#45;&gt;L4YAML.Scanner.ScannerState -->
<g id="edge15" class="edge">
<title>L4YAML.Scanner.skipSpaces&#45;&gt;L4YAML.Scanner.ScannerState</title>
<path fill="none" stroke="#4a90d9" stroke-width="2" d="M545.36,-177.93C548.3,-156.2 550.69,-117.97 537.41,-89 531.71,-76.56 521.71,-65.57 511.66,-56.81"/>
<polygon fill="#4a90d9" stroke="#4a90d9" stroke-width="2" points="513.05,-54.77 506.1,-52.17 509.91,-58.54 513.05,-54.77"/>
<text text-anchor="middle" x="555.91" y="-113.1" font-family="Times-Roman" font-size="8.00">calls</text>
</g>
<!-- L4YAML.Scanner.ScannerState.offset -->
<g id="node3" class="node">
<title>L4YAML.Scanner.ScannerState.offset</title>
<polygon fill="#dce9f7" stroke="#4a90d9" points="705.91,-133 602.91,-133 602.91,-97 705.91,-97 705.91,-133"/>
<text text-anchor="middle" x="654.41" y="-112.5" font-family="Helvetica" font-size="10.00">ScannerState.offset</text>
</g>
<!-- L4YAML.Scanner.skipSpaces&#45;&gt;L4YAML.Scanner.ScannerState.offset -->
<g id="edge2" class="edge">
<title>L4YAML.Scanner.skipSpaces&#45;&gt;L4YAML.Scanner.ScannerState.offset</title>
<path fill="none" stroke="#4a90d9" stroke-width="2" d="M566.71,-177.86C583.59,-165.95 606.2,-150.01 624.23,-137.29"/>
<polygon fill="#4a90d9" stroke="#4a90d9" stroke-width="2" points="625.85,-139.15 630.15,-133.11 623.02,-135.14 625.85,-139.15"/>
<text text-anchor="middle" x="610.91" y="-153.6" font-family="Times-Roman" font-size="8.00">calls</text>
</g>
<!-- L4YAML.Scanner.skipSpacesLoop -->
<g id="node4" class="node">
<title>L4YAML.Scanner.skipSpacesLoop</title>
<polygon fill="#dce9f7" stroke="#4a90d9" points="528.91,-133 439.91,-133 439.91,-97 528.91,-97 528.91,-133"/>
<text text-anchor="middle" x="484.41" y="-112.5" font-family="Helvetica" font-size="10.00">skipSpacesLoop</text>
</g>
<!-- L4YAML.Scanner.skipSpaces&#45;&gt;L4YAML.Scanner.skipSpacesLoop -->
<g id="edge8" class="edge">
<title>L4YAML.Scanner.skipSpaces&#45;&gt;L4YAML.Scanner.skipSpacesLoop</title>
<path fill="none" stroke="#4a90d9" stroke-width="2" d="M529.82,-177.86C521.46,-166.47 510.39,-151.39 501.27,-138.96"/>
<polygon fill="#4a90d9" stroke="#4a90d9" stroke-width="2" points="503.09,-137.3 496.97,-133.11 499.14,-140.2 503.09,-137.3"/>
<text text-anchor="middle" x="524.91" y="-153.6" font-family="Times-Roman" font-size="8.00">calls</text>
</g>
<!-- L4YAML.Scanner.ScannerState.offset&#45;&gt;L4YAML.Scanner.ScannerState -->
<g id="edge5" class="edge">
<title>L4YAML.Scanner.ScannerState.offset&#45;&gt;L4YAML.Scanner.ScannerState</title>
<path fill="none" stroke="#4a90d9" stroke-width="2" d="M623.7,-96.86C607.98,-88.36 588.39,-78.18 570.41,-70 555.85,-63.38 539.65,-56.84 525.04,-51.23"/>
<polygon fill="#4a90d9" stroke="#4a90d9" stroke-width="2" points="525.87,-48.92 518.46,-48.72 524.13,-53.5 525.87,-48.92"/>
<text text-anchor="middle" x="597.91" y="-72.6" font-family="Times-Roman" font-size="8.00">calls</text>
</g>
<!-- L4YAML.Scanner.skipSpacesLoop&#45;&gt;L4YAML.Scanner.ScannerState -->
<g id="edge10" class="edge">
<title>L4YAML.Scanner.skipSpacesLoop&#45;&gt;L4YAML.Scanner.ScannerState</title>
<path fill="none" stroke="#4a90d9" stroke-width="2" d="M483.54,-96.86C482.99,-85.88 482.26,-71.48 481.64,-59.33"/>
<polygon fill="#4a90d9" stroke="#4a90d9" stroke-width="2" points="484.08,-58.98 481.28,-52.11 479.18,-59.22 484.08,-58.98"/>
<text text-anchor="middle" x="492.91" y="-72.6" font-family="Times-Roman" font-size="8.00">calls</text>
</g>
<!-- L4YAML.Proofs.ScannerCorrectness.skipSpacesLoop_offset_ge -->
<g id="node5" class="node">
<title>L4YAML.Proofs.ScannerCorrectness.skipSpacesLoop_offset_ge</title>
<ellipse fill="#d4edda" stroke="#28a745" cx="281.41" cy="-196" rx="133.08" ry="18"/>
<text text-anchor="middle" x="281.41" y="-193.5" font-family="Helvetica" font-size="10.00">ScannerCorrectness.skipSpacesLoop_offset_ge</text>
</g>
<!-- L4YAML.Proofs.ScannerCorrectness.skipSpacesLoop_offset_ge&#45;&gt;L4YAML.Scanner.ScannerState -->
<g id="edge14" class="edge">
<title>L4YAML.Proofs.ScannerCorrectness.skipSpacesLoop_offset_ge&#45;&gt;L4YAML.Scanner.ScannerState</title>
<path fill="none" stroke="#999999" stroke-dasharray="1,5" d="M169.63,-186.13C74.51,-174.4 -39.02,-147.84 13.41,-89 41.2,-57.81 323.28,-41.97 435.1,-36.88"/>
<polygon fill="#999999" stroke="#999999" points="435.33,-39.32 442.22,-36.56 435.11,-34.42 435.33,-39.32"/>
<text text-anchor="middle" x="25.91" y="-113.1" font-family="Times-Roman" font-size="8.00">about</text>
</g>
<!-- L4YAML.Proofs.ScannerCorrectness.skipSpacesLoop_offset_ge&#45;&gt;L4YAML.Scanner.ScannerState.offset -->
<g id="edge4" class="edge">
<title>L4YAML.Proofs.ScannerCorrectness.skipSpacesLoop_offset_ge&#45;&gt;L4YAML.Scanner.ScannerState.offset</title>
<path fill="none" stroke="#999999" stroke-dasharray="1,5" d="M345.85,-180.19C385.44,-171.29 437.26,-159.98 483.41,-151 529.89,-141.96 542.11,-142.91 588.41,-133 590.72,-132.5 593.08,-131.98 595.46,-131.44"/>
<polygon fill="#999999" stroke="#999999" points="596.36,-133.75 602.62,-129.77 595.25,-128.97 596.36,-133.75"/>
<text text-anchor="middle" x="495.91" y="-153.6" font-family="Times-Roman" font-size="8.00">about</text>
</g>
<!-- L4YAML.Proofs.ScannerCorrectness.skipSpacesLoop_offset_ge&#45;&gt;L4YAML.Scanner.skipSpacesLoop -->
<g id="edge9" class="edge">
<title>L4YAML.Proofs.ScannerCorrectness.skipSpacesLoop_offset_ge&#45;&gt;L4YAML.Scanner.skipSpacesLoop</title>
<path fill="none" stroke="#999999" stroke-dasharray="1,5" d="M316.73,-178.56C335.73,-169.95 359.67,-159.46 381.41,-151 397.97,-144.56 416.26,-138.13 432.78,-132.56"/>
<polygon fill="#999999" stroke="#999999" points="433.88,-134.78 439.74,-130.24 432.33,-130.13 433.88,-134.78"/>
<text text-anchor="middle" x="393.91" y="-153.6" font-family="Times-Roman" font-size="8.00">about</text>
</g>
<!-- L4YAML.Proofs.ScannerProgress.advance_offset_ge -->
<g id="node6" class="node">
<title>L4YAML.Proofs.ScannerProgress.advance_offset_ge</title>
<ellipse fill="#d4edda" stroke="#28a745" cx="151.41" cy="-115" rx="103.71" ry="18"/>
<text text-anchor="middle" x="151.41" y="-112.5" font-family="Helvetica" font-size="10.00">ScannerProgress.advance_offset_ge</text>
</g>
<!-- L4YAML.Proofs.ScannerCorrectness.skipSpacesLoop_offset_ge&#45;&gt;L4YAML.Proofs.ScannerProgress.advance_offset_ge -->
<g id="edge6" class="edge">
<title>L4YAML.Proofs.ScannerCorrectness.skipSpacesLoop_offset_ge&#45;&gt;L4YAML.Proofs.ScannerProgress.advance_offset_ge</title>
<path fill="none" stroke="#28a745" stroke-width="2" d="M253.84,-178.25C233.63,-165.96 206.08,-149.22 184.65,-136.2"/>
<polygon fill="#28a745" stroke="#28a745" stroke-width="2" points="185.75,-134 178.49,-132.46 183.2,-138.19 185.75,-134"/>
<text text-anchor="middle" x="230.41" y="-153.6" font-family="Times-Roman" font-size="8.00">uses</text>
</g>
<!-- L4YAML.Scanner.skipSpacesLoop.eq_def -->
<g id="node8" class="node">
<title>L4YAML.Scanner.skipSpacesLoop.eq_def</title>
<ellipse fill="#d4edda" stroke="#28a745" cx="344.41" cy="-115" rx="71.46" ry="18"/>
<text text-anchor="middle" x="344.41" y="-112.5" font-family="Helvetica" font-size="10.00">skipSpacesLoop.eq_def</text>
</g>
<!-- L4YAML.Proofs.ScannerCorrectness.skipSpacesLoop_offset_ge&#45;&gt;L4YAML.Scanner.skipSpacesLoop.eq_def -->
<g id="edge11" class="edge">
<title>L4YAML.Proofs.ScannerCorrectness.skipSpacesLoop_offset_ge&#45;&gt;L4YAML.Scanner.skipSpacesLoop.eq_def</title>
<path fill="none" stroke="#28a745" stroke-width="2" d="M295.08,-177.86C304.31,-166.29 316.58,-150.9 326.57,-138.37"/>
<polygon fill="#28a745" stroke="#28a745" stroke-width="2" points="328.53,-139.84 330.98,-132.84 324.7,-136.78 328.53,-139.84"/>
<text text-anchor="middle" x="325.41" y="-153.6" font-family="Times-Roman" font-size="8.00">uses</text>
</g>
<!-- L4YAML.Proofs.ScannerProgress.advance_offset_ge&#45;&gt;L4YAML.Scanner.ScannerState -->
<g id="edge7" class="edge">
<title>L4YAML.Proofs.ScannerProgress.advance_offset_ge&#45;&gt;L4YAML.Scanner.ScannerState</title>
<path fill="none" stroke="#999999" stroke-dasharray="1,5" d="M209.47,-100.06C273.82,-84.61 376.25,-60.01 435,-45.9"/>
<polygon fill="#999999" stroke="#999999" points="435.71,-48.25 441.94,-44.24 434.56,-43.49 435.71,-48.25"/>
<text text-anchor="middle" x="338.91" y="-72.6" font-family="Times-Roman" font-size="8.00">about</text>
</g>
<!-- L4YAML.Proofs.ScannerCorrectness.skipSpaces_offset_ge -->
<g id="node7" class="node">
<title>L4YAML.Proofs.ScannerCorrectness.skipSpaces_offset_ge</title>
<polygon fill="#fff3cd" stroke="#d4a017" points="411.14,-293.54 411.14,-308.46 334.56,-319 226.26,-319 149.68,-308.46 149.68,-293.54 226.26,-283 334.56,-283 411.14,-293.54"/>
<polygon fill="none" stroke="#d4a017" points="415.15,-290.06 415.15,-311.94 334.84,-323 225.98,-323 145.67,-311.94 145.67,-290.06 225.98,-279 334.84,-279 415.15,-290.06"/>
<text text-anchor="middle" x="280.41" y="-298.5" font-family="Helvetica" font-size="10.00">ScannerCorrectness.skipSpaces_offset_ge</text>
</g>
<!-- L4YAML.Proofs.ScannerCorrectness.skipSpaces_offset_ge&#45;&gt;L4YAML.Scanner.skipSpaces -->
<g id="edge1" class="edge">
<title>L4YAML.Proofs.ScannerCorrectness.skipSpaces_offset_ge&#45;&gt;L4YAML.Scanner.skipSpaces</title>
<path fill="none" stroke="#999999" stroke-dasharray="1,5" d="M336.37,-279.04C363.86,-268.66 397.44,-255.83 427.41,-244 452.14,-234.24 479.71,-222.98 501.66,-213.93"/>
<polygon fill="#999999" stroke="#999999" points="502.74,-216.14 508.28,-211.2 500.87,-211.61 502.74,-216.14"/>
<text text-anchor="middle" x="416.91" y="-254.6" font-family="Times-Roman" font-size="8.00">about</text>
</g>
<!-- L4YAML.Proofs.ScannerCorrectness.skipSpaces_offset_ge&#45;&gt;L4YAML.Scanner.ScannerState.offset -->
<g id="edge13" class="edge">
<title>L4YAML.Proofs.ScannerCorrectness.skipSpaces_offset_ge&#45;&gt;L4YAML.Scanner.ScannerState.offset</title>
<path fill="none" stroke="#999999" stroke-dasharray="1,5" d="M403.13,-288.33C474.66,-279.46 556.35,-265.14 585.41,-244 620.41,-218.53 639.48,-169.76 648.26,-140.32"/>
<polygon fill="#999999" stroke="#999999" points="650.7,-140.68 650.27,-133.28 645.99,-139.34 650.7,-140.68"/>
<text text-anchor="middle" x="645.91" y="-194.1" font-family="Times-Roman" font-size="8.00">about</text>
</g>
<!-- L4YAML.Proofs.ScannerCorrectness.skipSpaces_offset_ge&#45;&gt;L4YAML.Proofs.ScannerCorrectness.skipSpacesLoop_offset_ge -->
<g id="edge3" class="edge">
<title>L4YAML.Proofs.ScannerCorrectness.skipSpaces_offset_ge&#45;&gt;L4YAML.Proofs.ScannerCorrectness.skipSpacesLoop_offset_ge</title>
<path fill="none" stroke="#28a745" stroke-width="2" d="M280.62,-278.66C280.78,-261.95 281,-238.71 281.17,-221.29"/>
<polygon fill="#28a745" stroke="#28a745" stroke-width="2" points="283.62,-221.25 281.24,-214.22 278.72,-221.2 283.62,-221.25"/>
<text text-anchor="middle" x="291.41" y="-254.6" font-family="Times-Roman" font-size="8.00">uses</text>
</g>
<!-- L4YAML.Scanner.skipSpacesLoop.eq_def&#45;&gt;L4YAML.Scanner.ScannerState -->
<g id="edge12" class="edge">
<title>L4YAML.Scanner.skipSpacesLoop.eq_def&#45;&gt;L4YAML.Scanner.ScannerState</title>
<path fill="none" stroke="#999999" stroke-dasharray="1,5" d="M371.6,-98.2C392.58,-86.02 421.77,-69.06 444.64,-55.78"/>
<polygon fill="#999999" stroke="#999999" points="446.08,-57.77 450.91,-52.14 443.62,-53.54 446.08,-57.77"/>
<text text-anchor="middle" x="429.91" y="-72.6" font-family="Times-Roman" font-size="8.00">about</text>
</g>
</g>
</svg>
