<?xml version="1.0" encoding="UTF-8" standalone="no"?>
<!DOCTYPE svg PUBLIC "-//W3C//DTD SVG 1.1//EN"
 "http://www.w3.org/Graphics/SVG/1.1/DTD/svg11.dtd">
<!-- Generated by graphviz version 2.44.0 (0)
 -->
<!-- Title: chain_ScannerCorrectness.ScanHelpers.scanDocumentEnd_preserves_prefix._proof_1 Pages: 1 -->
<svg width="664pt" height="98pt"
 viewBox="0.00 0.00 664.00 97.92" xmlns="http://www.w3.org/2000/svg" xmlns:xlink="http://www.w3.org/1999/xlink">
<g id="graph0" class="graph" transform="scale(1 1) rotate(0) translate(4 93.92)">
<title>chain_ScannerCorrectness.ScanHelpers.scanDocumentEnd_preserves_prefix._proof_1</title>
<polygon fill="white" stroke="transparent" points="-4,4 -4,-93.92 660,-93.92 660,4 -4,4"/>
<text text-anchor="middle" x="328" y="-75.52" font-family="Helvetica Bold" font-size="13.00">Functorial Chains: ScannerCorrectness.ScanHelpers.scanDocumentEnd_preserves_prefix._proof_1</text>
<text text-anchor="middle" x="328" y="-61.52" font-family="Helvetica Bold" font-size="13.00">(heuristic: used by 6 proofs)</text>
<!-- L4YAML.Proofs.ScannerCorrectness.ScanHelpers.scanDocumentEnd_preserves_prefix._proof_1 -->
<g id="node1" class="node">
<title>L4YAML.Proofs.ScannerCorrectness.ScanHelpers.scanDocumentEnd_preserves_prefix._proof_1</title>
<polygon fill="#fff3cd" stroke="black" points="610.34,-17.46 610.34,-36.46 444.95,-49.89 211.05,-49.89 45.66,-36.46 45.66,-17.46 211.05,-4.03 444.95,-4.03 610.34,-17.46"/>
<polygon fill="none" stroke="black" points="614.34,-13.78 614.34,-40.14 445.11,-53.88 210.89,-53.88 41.66,-40.14 41.66,-13.78 210.89,-0.04 445.11,-0.04 614.34,-13.78"/>
<text text-anchor="middle" x="328" y="-29.96" font-family="Helvetica" font-size="10.00">ScannerCorrectness.ScanHelpers.scanDocumentEnd_preserves_prefix._proof_1</text>
<text text-anchor="middle" x="328" y="-18.96" font-family="Helvetica" font-size="10.00">(no functorial chains found)</text>
</g>
</g>
</svg>
