<?xml version="1.0" encoding="UTF-8" standalone="no"?>
<!DOCTYPE svg PUBLIC "-//W3C//DTD SVG 1.1//EN"
 "http://www.w3.org/Graphics/SVG/1.1/DTD/svg11.dtd">
<!-- Generated by graphviz version 2.44.0 (0)
 -->
<!-- Title: chain_ParserNodeProofs.AG.trans Pages: 1 -->
<svg width="598pt" height="405pt"
 viewBox="0.00 0.00 598.00 405.00" xmlns="http://www.w3.org/2000/svg" xmlns:xlink="http://www.w3.org/1999/xlink">
<g id="graph0" class="graph" transform="scale(1 1) rotate(0) translate(4 401)">
<title>chain_ParserNodeProofs.AG.trans</title>
<polygon fill="white" stroke="transparent" points="-4,4 -4,-401 594,-401 594,4 -4,4"/>
<text text-anchor="middle" x="295" y="-382.6" font-family="Helvetica Bold" font-size="13.00">Functorial Chains: ParserNodeProofs.AG.trans</text>
<text text-anchor="middle" x="295" y="-368.6" font-family="Helvetica Bold" font-size="13.00">(heuristic: used by 21 proofs)</text>
<g id="clust1" class="cluster">
<title>cluster_fns</title>
<polygon fill="none" stroke="#4a90d9" stroke-dasharray="5,2" points="8,-8 8,-244 321,-244 321,-8 8,-8"/>
<text text-anchor="middle" x="164.5" y="-229.6" font-family="Helvetica Bold" font-size="13.00" fill="#4a90d9">Functions (Call Chain)</text>
</g>
<g id="clust2" class="cluster">
<title>cluster_thms</title>
<polygon fill="none" stroke="#28a745" stroke-dasharray="5,2" points="380,-89 380,-353 582,-353 582,-89 380,-89"/>
<text text-anchor="middle" x="481" y="-338.6" font-family="Helvetica Bold" font-size="13.00" fill="#28a745">Theorems (Proof Chain)</text>
</g>
<!-- L4YAML.YamlValue -->
<g id="node1" class="node">
<title>L4YAML.YamlValue</title>
<polygon fill="#dce9f7" stroke="#4a90d9" points="133,-133 71,-133 71,-97 133,-97 133,-133"/>
<text text-anchor="middle" x="102" y="-112.5" font-family="Helvetica" font-size="10.00">YamlValue</text>
</g>
<!-- L4YAML.TokenParser.ParseState -->
<g id="node2" class="node">
<title>L4YAML.TokenParser.ParseState</title>
<polygon fill="#dce9f7" stroke="#4a90d9" points="304,-52 180,-52 180,-16 304,-16 304,-52"/>
<text text-anchor="middle" x="242" y="-31.5" font-family="Helvetica" font-size="10.00">TokenParser.ParseState</text>
</g>
<!-- ParserNodeProofs.AG -->
<g id="node3" class="node">
<title>ParserNodeProofs.AG</title>
<polygon fill="#dce9f7" stroke="#4a90d9" points="221,-214 107,-214 107,-178 221,-178 221,-214"/>
<text text-anchor="middle" x="164" y="-193.5" font-family="Helvetica" font-size="10.00">ParserNodeProofs.AG</text>
</g>
<!-- ParserNodeProofs.AG&#45;&gt;L4YAML.YamlValue -->
<g id="edge10" class="edge">
<title>ParserNodeProofs.AG&#45;&gt;L4YAML.YamlValue</title>
<path fill="none" stroke="#4a90d9" stroke-width="2" d="M143.7,-177.84C137.94,-172.45 131.91,-166.26 127,-160 122.02,-153.65 117.39,-146.19 113.51,-139.23"/>
<polygon fill="#4a90d9" stroke="#4a90d9" stroke-width="2" points="115.64,-138.03 110.16,-133.04 111.33,-140.36 115.64,-138.03"/>
<text text-anchor="middle" x="136.5" y="-153.6" font-family="Times-Roman" font-size="8.00">calls</text>
</g>
<!-- ParserNodeProofs.AG&#45;&gt;L4YAML.TokenParser.ParseState -->
<g id="edge8" class="edge">
<title>ParserNodeProofs.AG&#45;&gt;L4YAML.TokenParser.ParseState</title>
<path fill="none" stroke="#4a90d9" stroke-width="2" d="M106.88,-180.25C82.79,-170.9 57.1,-156.06 43,-133 32.8,-116.31 31.12,-104.53 43,-89 58.94,-68.16 121.89,-53.48 172.77,-44.74"/>
<polygon fill="#4a90d9" stroke="#4a90d9" stroke-width="2" points="173.37,-47.12 179.87,-43.54 172.56,-42.29 173.37,-47.12"/>
<text text-anchor="middle" x="52.5" y="-113.1" font-family="Times-Roman" font-size="8.00">calls</text>
</g>
<!-- L4YAML.TokenParser.ParseState.anchors -->
<g id="node4" class="node">
<title>L4YAML.TokenParser.ParseState.anchors</title>
<polygon fill="#dce9f7" stroke="#4a90d9" points="313,-133 151,-133 151,-97 313,-97 313,-133"/>
<text text-anchor="middle" x="232" y="-112.5" font-family="Helvetica" font-size="10.00">TokenParser.ParseState.anchors</text>
</g>
<!-- ParserNodeProofs.AG&#45;&gt;L4YAML.TokenParser.ParseState.anchors -->
<g id="edge2" class="edge">
<title>ParserNodeProofs.AG&#45;&gt;L4YAML.TokenParser.ParseState.anchors</title>
<path fill="none" stroke="#4a90d9" stroke-width="2" d="M176.48,-177.93C182.73,-169.63 190.54,-159.61 198,-151 201.67,-146.77 205.71,-142.39 209.68,-138.22"/>
<polygon fill="#4a90d9" stroke="#4a90d9" stroke-width="2" points="211.55,-139.82 214.65,-133.08 208.03,-136.41 211.55,-139.82"/>
<text text-anchor="middle" x="207.5" y="-153.6" font-family="Times-Roman" font-size="8.00">calls</text>
</g>
<!-- L4YAML.TokenParser.ParseState.anchors&#45;&gt;L4YAML.TokenParser.ParseState -->
<g id="edge5" class="edge">
<title>L4YAML.TokenParser.ParseState.anchors&#45;&gt;L4YAML.TokenParser.ParseState</title>
<path fill="none" stroke="#4a90d9" stroke-width="2" d="M234.17,-96.86C235.56,-85.88 237.38,-71.48 238.92,-59.33"/>
<polygon fill="#4a90d9" stroke="#4a90d9" stroke-width="2" points="241.39,-59.36 239.83,-52.11 236.52,-58.75 241.39,-59.36"/>
<text text-anchor="middle" x="246.5" y="-72.6" font-family="Times-Roman" font-size="8.00">calls</text>
</g>
<!-- ParserNodeProofs.AG.trans -->
<g id="node5" class="node">
<title>ParserNodeProofs.AG.trans</title>
<polygon fill="#fff3cd" stroke="#d4a017" points="569.63,-293.54 569.63,-308.46 517.71,-319 444.29,-319 392.37,-308.46 392.37,-293.54 444.29,-283 517.71,-283 569.63,-293.54"/>
<polygon fill="none" stroke="#d4a017" points="573.63,-290.28 573.63,-311.72 518.11,-323 443.89,-323 388.37,-311.72 388.37,-290.28 443.89,-279 518.11,-279 573.63,-290.28"/>
<text text-anchor="middle" x="481" y="-298.5" font-family="Helvetica" font-size="10.00">ParserNodeProofs.AG.trans</text>
</g>
<!-- ParserNodeProofs.AG.trans&#45;&gt;ParserNodeProofs.AG -->
<g id="edge1" class="edge">
<title>ParserNodeProofs.AG.trans&#45;&gt;ParserNodeProofs.AG</title>
<path fill="none" stroke="#999999" stroke-dasharray="1,5" d="M426.87,-282.41C370.28,-264.02 281.75,-235.26 223.3,-216.27"/>
<polygon fill="#999999" stroke="#999999" points="223.74,-213.84 216.33,-214 222.23,-218.5 223.74,-213.84"/>
<text text-anchor="middle" x="372.5" y="-254.6" font-family="Times-Roman" font-size="8.00">about</text>
</g>
<!-- ParserNodeProofs.AG._proof_2 -->
<g id="node7" class="node">
<title>ParserNodeProofs.AG._proof_2</title>
<ellipse fill="#d4edda" stroke="#28a745" cx="479" cy="-196" rx="91.49" ry="18"/>
<text text-anchor="middle" x="479" y="-193.5" font-family="Helvetica" font-size="10.00">ParserNodeProofs.AG._proof_2</text>
</g>
<!-- ParserNodeProofs.AG.trans&#45;&gt;ParserNodeProofs.AG._proof_2 -->
<g id="edge3" class="edge">
<title>ParserNodeProofs.AG.trans&#45;&gt;ParserNodeProofs.AG._proof_2</title>
<path fill="none" stroke="#28a745" stroke-width="2" d="M480.59,-278.66C480.26,-261.95 479.81,-238.71 479.47,-221.29"/>
<polygon fill="#28a745" stroke="#28a745" stroke-width="2" points="481.92,-221.17 479.33,-214.22 477.02,-221.27 481.92,-221.17"/>
<text text-anchor="middle" x="490" y="-254.6" font-family="Times-Roman" font-size="8.00">uses</text>
</g>
<!-- ParserNodeProofs.AG._proof_1 -->
<g id="node6" class="node">
<title>ParserNodeProofs.AG._proof_1</title>
<ellipse fill="#d4edda" stroke="#28a745" cx="483" cy="-115" rx="91.49" ry="18"/>
<text text-anchor="middle" x="483" y="-112.5" font-family="Helvetica" font-size="10.00">ParserNodeProofs.AG._proof_1</text>
</g>
<!-- ParserNodeProofs.AG._proof_1&#45;&gt;L4YAML.TokenParser.ParseState -->
<g id="edge7" class="edge">
<title>ParserNodeProofs.AG._proof_1&#45;&gt;L4YAML.TokenParser.ParseState</title>
<path fill="none" stroke="#999999" stroke-dasharray="1,5" d="M443.52,-98.73C420.23,-89.93 390.1,-78.87 363,-70 346.21,-64.5 327.97,-58.99 310.87,-54.02"/>
<polygon fill="#999999" stroke="#999999" points="311.53,-51.66 304.12,-52.07 310.17,-56.37 311.53,-51.66"/>
<text text-anchor="middle" x="398.5" y="-72.6" font-family="Times-Roman" font-size="8.00">about</text>
</g>
<!-- ParserNodeProofs.AG._proof_2&#45;&gt;L4YAML.YamlValue -->
<g id="edge11" class="edge">
<title>ParserNodeProofs.AG._proof_2&#45;&gt;L4YAML.YamlValue</title>
<path fill="none" stroke="#999999" stroke-dasharray="1,5" d="M407.28,-184.77C364.42,-178.35 308.95,-169.5 260,-160 246.8,-157.44 154.79,-137.15 142,-133 141.28,-132.77 140.56,-132.53 139.83,-132.28"/>
<polygon fill="#999999" stroke="#999999" points="140.66,-129.97 133.24,-129.9 138.99,-134.58 140.66,-129.97"/>
<text text-anchor="middle" x="272.5" y="-153.6" font-family="Times-Roman" font-size="8.00">about</text>
</g>
<!-- ParserNodeProofs.AG._proof_2&#45;&gt;L4YAML.TokenParser.ParseState -->
<g id="edge9" class="edge">
<title>ParserNodeProofs.AG._proof_2&#45;&gt;L4YAML.TokenParser.ParseState</title>
<path fill="none" stroke="#999999" stroke-dasharray="1,5" d="M439.52,-179.72C414.61,-168.93 382.61,-152.87 358,-133 338.34,-117.13 340.67,-106.03 322,-89 308.57,-76.75 292.15,-65.18 277.69,-55.92"/>
<polygon fill="#999999" stroke="#999999" points="278.86,-53.76 271.63,-52.1 276.24,-57.9 278.86,-53.76"/>
<text text-anchor="middle" x="370.5" y="-113.1" font-family="Times-Roman" font-size="8.00">about</text>
</g>
<!-- ParserNodeProofs.AG._proof_2&#45;&gt;L4YAML.TokenParser.ParseState.anchors -->
<g id="edge4" class="edge">
<title>ParserNodeProofs.AG._proof_2&#45;&gt;L4YAML.TokenParser.ParseState.anchors</title>
<path fill="none" stroke="#999999" stroke-dasharray="1,5" d="M406.49,-185.05C376.08,-179.59 340.72,-171.52 310,-160 294.09,-154.03 277.56,-145.14 263.82,-136.91"/>
<polygon fill="#999999" stroke="#999999" points="264.98,-134.75 257.72,-133.19 262.42,-138.93 264.98,-134.75"/>
<text text-anchor="middle" x="322.5" y="-153.6" font-family="Times-Roman" font-size="8.00">about</text>
</g>
<!-- ParserNodeProofs.AG._proof_2&#45;&gt;ParserNodeProofs.AG._proof_1 -->
<g id="edge6" class="edge">
<title>ParserNodeProofs.AG._proof_2&#45;&gt;ParserNodeProofs.AG._proof_1</title>
<path fill="none" stroke="#28a745" stroke-width="2" d="M479.87,-177.86C480.42,-166.88 481.15,-152.48 481.77,-140.33"/>
<polygon fill="#28a745" stroke="#28a745" stroke-width="2" points="484.23,-140.22 482.13,-133.11 479.33,-139.98 484.23,-140.22"/>
<text text-anchor="middle" x="491" y="-153.6" font-family="Times-Roman" font-size="8.00">uses</text>
</g>
</g>
</svg>
