<?xml version="1.0" encoding="UTF-8" standalone="no"?>
<!DOCTYPE svg PUBLIC "-//W3C//DTD SVG 1.1//EN"
 "http://www.w3.org/Graphics/SVG/1.1/DTD/svg11.dtd">
<!-- Generated by graphviz version 2.44.0 (0)
 -->
<!-- Title: chain_TokenParser.parseImplicitBlockSequenceLoop.eq_def Pages: 1 -->
<svg width="3524pt" height="405pt"
 viewBox="0.00 0.00 3524.00 405.00" xmlns="http://www.w3.org/2000/svg" xmlns:xlink="http://www.w3.org/1999/xlink">
<g id="graph0" class="graph" transform="scale(1 1) rotate(0) translate(4 401)">
<title>chain_TokenParser.parseImplicitBlockSequenceLoop.eq_def</title>
<polygon fill="white" stroke="transparent" points="-4,4 -4,-401 3520,-401 3520,4 -4,4"/>
<text text-anchor="middle" x="1758" y="-382.6" font-family="Helvetica Bold" font-size="13.00">Functorial Chains: TokenParser.parseImplicitBlockSequenceLoop.eq_def</text>
<text text-anchor="middle" x="1758" y="-368.6" font-family="Helvetica Bold" font-size="13.00">(heuristic: used by 5 proofs)</text>
<g id="clust1" class="cluster">
<title>cluster_fns</title>
<polygon fill="none" stroke="#4a90d9" stroke-dasharray="5,2" points="2987,-8 2987,-244 3508,-244 3508,-8 2987,-8"/>
<text text-anchor="middle" x="3247.5" y="-229.6" font-family="Helvetica Bold" font-size="13.00" fill="#4a90d9">Functions (Call Chain)</text>
</g>
<g id="clust2" class="cluster">
<title>cluster_thms</title>
<polygon fill="none" stroke="#28a745" stroke-dasharray="5,2" points="8,-89 8,-353 2979,-353 2979,-89 8,-89"/>
<text text-anchor="middle" x="1493.5" y="-338.6" font-family="Helvetica Bold" font-size="13.00" fill="#28a745">Theorems (Proof Chain)</text>
</g>
<!-- L4YAML.TokenParser.ParseState.advance -->
<g id="node1" class="node">
<title>L4YAML.TokenParser.ParseState.advance</title>
<g id="a_node1"><a xlink:href="../../../api/L4YAML/TokenParser.html#L4YAML.TokenParser.ParseState.advance" xlink:title="TokenParser.ParseState.advance" target="_blank">
<polygon fill="#dce9f7" stroke="#4a90d9" points="3382.5,-52 3219.5,-52 3219.5,-16 3382.5,-16 3382.5,-52"/>
<text text-anchor="middle" x="3301" y="-31.5" font-family="Helvetica" font-size="10.00">TokenParser.ParseState.advance</text>
</a>
</g>
</g>
<!-- L4YAML.YamlToken -->
<g id="node2" class="node">
<title>L4YAML.YamlToken</title>
<g id="a_node2"><a xlink:href="../../../api/L4YAML/Token.html#L4YAML.YamlToken" xlink:title="YamlToken" target="_blank">
<polygon fill="#dce9f7" stroke="#4a90d9" points="3201,-52 3137,-52 3137,-16 3201,-16 3201,-52"/>
<text text-anchor="middle" x="3169" y="-31.5" font-family="Helvetica" font-size="10.00">YamlToken</text>
</a>
</g>
</g>
<!-- L4YAML.TokenParser.ParseState.peek? -->
<g id="node3" class="node">
<title>L4YAML.TokenParser.ParseState.peek?</title>
<g id="a_node3"><a xlink:href="../../../api/L4YAML/TokenParser.html#L4YAML.TokenParser.ParseState.peek?" xlink:title="TokenParser.ParseState.peek?" target="_blank">
<polygon fill="#dce9f7" stroke="#4a90d9" points="3149,-214 2997,-214 2997,-178 3149,-178 3149,-214"/>
<text text-anchor="middle" x="3073" y="-193.5" font-family="Helvetica" font-size="10.00">TokenParser.ParseState.peek?</text>
</a>
</g>
</g>
<!-- L4YAML.instInhabitedYamlToken -->
<g id="node6" class="node">
<title>L4YAML.instInhabitedYamlToken</title>
<g id="a_node6"><a xlink:href="../../../api/L4YAML/Token.html#L4YAML.instInhabitedYamlToken" xlink:title="instInhabitedYamlToken" target="_blank">
<polygon fill="#dce9f7" stroke="#4a90d9" points="3287.5,-133 3168.5,-133 3168.5,-97 3287.5,-97 3287.5,-133"/>
<text text-anchor="middle" x="3228" y="-112.5" font-family="Helvetica" font-size="10.00">instInhabitedYamlToken</text>
</a>
</g>
</g>
<!-- L4YAML.TokenParser.ParseState.peek?&#45;&gt;L4YAML.instInhabitedYamlToken -->
<g id="edge12" class="edge">
<title>L4YAML.TokenParser.ParseState.peek?&#45;&gt;L4YAML.instInhabitedYamlToken</title>
<path fill="none" stroke="#4a90d9" stroke-width="2" d="M3106.63,-177.86C3130.6,-165.64 3162.91,-149.17 3188.17,-136.3"/>
<polygon fill="#4a90d9" stroke="#4a90d9" stroke-width="2" points="3189.31,-138.47 3194.43,-133.11 3187.08,-134.1 3189.31,-138.47"/>
<text text-anchor="middle" x="3164.5" y="-153.6" font-family="Times-Roman" font-size="8.00">calls</text>
</g>
<!-- L4YAML.TokenParser.ParseState.tokens -->
<g id="node9" class="node">
<title>L4YAML.TokenParser.ParseState.tokens</title>
<g id="a_node9"><a xlink:href="../../../api/L4YAML/TokenParser.html#L4YAML.TokenParser.ParseState.tokens" xlink:title="TokenParser.ParseState.tokens" target="_blank">
<polygon fill="#dce9f7" stroke="#4a90d9" points="3150.5,-133 2995.5,-133 2995.5,-97 3150.5,-97 3150.5,-133"/>
<text text-anchor="middle" x="3073" y="-112.5" font-family="Helvetica" font-size="10.00">TokenParser.ParseState.tokens</text>
</a>
</g>
</g>
<!-- L4YAML.TokenParser.ParseState.peek?&#45;&gt;L4YAML.TokenParser.ParseState.tokens -->
<g id="edge17" class="edge">
<title>L4YAML.TokenParser.ParseState.peek?&#45;&gt;L4YAML.TokenParser.ParseState.tokens</title>
<path fill="none" stroke="#4a90d9" stroke-width="2" d="M3073,-177.86C3073,-166.88 3073,-152.48 3073,-140.33"/>
<polygon fill="#4a90d9" stroke="#4a90d9" stroke-width="2" points="3075.45,-140.11 3073,-133.11 3070.55,-140.11 3075.45,-140.11"/>
<text text-anchor="middle" x="3082.5" y="-153.6" font-family="Times-Roman" font-size="8.00">calls</text>
</g>
<!-- L4YAML.TokenParser.ParseState -->
<g id="node4" class="node">
<title>L4YAML.TokenParser.ParseState</title>
<g id="a_node4"><a xlink:href="../../../api/L4YAML/TokenParser.html#L4YAML.TokenParser.ParseState" xlink:title="TokenParser.ParseState" target="_blank">
<polygon fill="#dce9f7" stroke="#4a90d9" points="3119,-52 2995,-52 2995,-16 3119,-16 3119,-52"/>
<text text-anchor="middle" x="3057" y="-31.5" font-family="Helvetica" font-size="10.00">TokenParser.ParseState</text>
</a>
</g>
</g>
<!-- L4YAML.TokenParser.parseNode -->
<g id="node5" class="node">
<title>L4YAML.TokenParser.parseNode</title>
<g id="a_node5"><a xlink:href="../../../api/L4YAML/TokenParser.html#L4YAML.TokenParser.parseNode" xlink:title="TokenParser.parseNode" target="_blank">
<polygon fill="#dce9f7" stroke="#4a90d9" points="3310,-214 3188,-214 3188,-178 3310,-178 3310,-214"/>
<text text-anchor="middle" x="3249" y="-193.5" font-family="Helvetica" font-size="10.00">TokenParser.parseNode</text>
</a>
</g>
</g>
<!-- L4YAML.TokenParser.parseNodeContent._mutual -->
<g id="node8" class="node">
<title>L4YAML.TokenParser.parseNodeContent._mutual</title>
<g id="a_node8"><a xlink:href="../../../api/L4YAML/TokenParser.html#L4YAML.TokenParser.parseNodeContent._mutual" xlink:title="TokenParser.parseNodeContent._mutual" target="_blank">
<polygon fill="#dce9f7" stroke="#4a90d9" points="3500,-133 3306,-133 3306,-97 3500,-97 3500,-133"/>
<text text-anchor="middle" x="3403" y="-112.5" font-family="Helvetica" font-size="10.00">TokenParser.parseNodeContent._mutual</text>
</a>
</g>
</g>
<!-- L4YAML.TokenParser.parseNode&#45;&gt;L4YAML.TokenParser.parseNodeContent._mutual -->
<g id="edge2" class="edge">
<title>L4YAML.TokenParser.parseNode&#45;&gt;L4YAML.TokenParser.parseNodeContent._mutual</title>
<path fill="none" stroke="#4a90d9" stroke-width="2" d="M3282.42,-177.86C3306.13,-165.69 3338.06,-149.31 3363.11,-136.46"/>
<polygon fill="#4a90d9" stroke="#4a90d9" stroke-width="2" points="3364.54,-138.48 3369.65,-133.11 3362.3,-134.12 3364.54,-138.48"/>
<text text-anchor="middle" x="3339.5" y="-153.6" font-family="Times-Roman" font-size="8.00">calls</text>
</g>
<!-- L4YAML.instInhabitedYamlToken&#45;&gt;L4YAML.YamlToken -->
<g id="edge14" class="edge">
<title>L4YAML.instInhabitedYamlToken&#45;&gt;L4YAML.YamlToken</title>
<path fill="none" stroke="#4a90d9" stroke-width="2" d="M3215.2,-96.86C3206.69,-85.47 3195.43,-70.39 3186.15,-57.96"/>
<polygon fill="#4a90d9" stroke="#4a90d9" stroke-width="2" points="3187.93,-56.25 3181.78,-52.11 3184,-59.18 3187.93,-56.25"/>
<text text-anchor="middle" x="3209.5" y="-72.6" font-family="Times-Roman" font-size="8.00">calls</text>
</g>
<!-- L4YAML.YamlPath -->
<g id="node7" class="node">
<title>L4YAML.YamlPath</title>
<g id="a_node7"><a xlink:href="../../../api/L4YAML/Types.html#L4YAML.YamlPath" xlink:title="YamlPath" target="_blank">
<polygon fill="#dce9f7" stroke="#4a90d9" points="3459.5,-52 3400.5,-52 3400.5,-16 3459.5,-16 3459.5,-52"/>
<text text-anchor="middle" x="3430" y="-31.5" font-family="Helvetica" font-size="10.00">YamlPath</text>
</a>
</g>
</g>
<!-- L4YAML.TokenParser.parseNodeContent._mutual&#45;&gt;L4YAML.TokenParser.ParseState.advance -->
<g id="edge5" class="edge">
<title>L4YAML.TokenParser.parseNodeContent._mutual&#45;&gt;L4YAML.TokenParser.ParseState.advance</title>
<path fill="none" stroke="#4a90d9" stroke-width="2" d="M3380.87,-96.86C3365.63,-85.06 3345.27,-69.28 3328.91,-56.62"/>
<polygon fill="#4a90d9" stroke="#4a90d9" stroke-width="2" points="3330.12,-54.46 3323.09,-52.11 3327.12,-58.33 3330.12,-54.46"/>
<text text-anchor="middle" x="3364.5" y="-72.6" font-family="Times-Roman" font-size="8.00">calls</text>
</g>
<!-- L4YAML.TokenParser.parseNodeContent._mutual&#45;&gt;L4YAML.YamlPath -->
<g id="edge8" class="edge">
<title>L4YAML.TokenParser.parseNodeContent._mutual&#45;&gt;L4YAML.YamlPath</title>
<path fill="none" stroke="#4a90d9" stroke-width="2" d="M3408.86,-96.86C3412.64,-85.78 3417.63,-71.21 3421.8,-58.99"/>
<polygon fill="#4a90d9" stroke="#4a90d9" stroke-width="2" points="3424.21,-59.52 3424.15,-52.11 3419.57,-57.94 3424.21,-59.52"/>
<text text-anchor="middle" x="3426.5" y="-72.6" font-family="Times-Roman" font-size="8.00">calls</text>
</g>
<!-- L4YAML.TokenParser.ParseState.tokens&#45;&gt;L4YAML.TokenParser.ParseState -->
<g id="edge19" class="edge">
<title>L4YAML.TokenParser.ParseState.tokens&#45;&gt;L4YAML.TokenParser.ParseState</title>
<path fill="none" stroke="#4a90d9" stroke-width="2" d="M3069.53,-96.86C3067.28,-85.78 3064.33,-71.21 3061.86,-58.99"/>
<polygon fill="#4a90d9" stroke="#4a90d9" stroke-width="2" points="3064.26,-58.48 3060.46,-52.11 3059.45,-59.46 3064.26,-58.48"/>
<text text-anchor="middle" x="3074.5" y="-72.6" font-family="Times-Roman" font-size="8.00">calls</text>
</g>
<!-- L4YAML.TokenParser.parseImplicitBlockSequenceLoop.eq_def -->
<g id="node10" class="node">
<title>L4YAML.TokenParser.parseImplicitBlockSequenceLoop.eq_def</title>
<g id="a_node10"><a xlink:href="../../../api/L4YAML/TokenParser.html#L4YAML.TokenParser.parseImplicitBlockSequenceLoop.eq_def" xlink:title="TokenParser.parseImplicitBlockSequenceLoop.eq_def" target="_blank">
<polygon fill="#fff3cd" stroke="#d4a017" points="2966.63,-293.54 2966.63,-308.46 2872.53,-319 2739.47,-319 2645.37,-308.46 2645.37,-293.54 2739.47,-283 2872.53,-283 2966.63,-293.54"/>
<polygon fill="none" stroke="#d4a017" points="2970.63,-289.97 2970.63,-312.03 2872.76,-323 2739.24,-323 2641.37,-312.03 2641.37,-289.97 2739.24,-279 2872.76,-279 2970.63,-289.97"/>
<text text-anchor="middle" x="2806" y="-298.5" font-family="Helvetica" font-size="10.00">TokenParser.parseImplicitBlockSequenceLoop.eq_def</text>
</a>
</g>
</g>
<!-- L4YAML.TokenParser.parseImplicitBlockSequenceLoop.eq_def&#45;&gt;L4YAML.TokenParser.ParseState.peek? -->
<g id="edge11" class="edge">
<title>L4YAML.TokenParser.parseImplicitBlockSequenceLoop.eq_def&#45;&gt;L4YAML.TokenParser.ParseState.peek?</title>
<path fill="none" stroke="#999999" stroke-dasharray="1,5" d="M2880.23,-279.67C2912.3,-270.08 2949.96,-257.73 2983,-244 3001.39,-236.36 3021.08,-226.3 3037.34,-217.46"/>
<polygon fill="#999999" stroke="#999999" points="3038.67,-219.52 3043.63,-214.01 3036.31,-215.23 3038.67,-219.52"/>
<text text-anchor="middle" x="2971.5" y="-254.6" font-family="Times-Roman" font-size="8.00">about</text>
</g>
<!-- L4YAML.TokenParser.parseImplicitBlockSequenceLoop.eq_def&#45;&gt;L4YAML.TokenParser.parseNode -->
<g id="edge1" class="edge">
<title>L4YAML.TokenParser.parseImplicitBlockSequenceLoop.eq_def&#45;&gt;L4YAML.TokenParser.parseNode</title>
<path fill="none" stroke="#999999" stroke-dasharray="1,5" d="M2950.18,-287.57C3014.86,-279.34 3091.42,-265.86 3158,-244 3177.84,-237.49 3198.62,-227.06 3215.31,-217.68"/>
<polygon fill="#999999" stroke="#999999" points="3216.86,-219.62 3221.73,-214.01 3214.43,-215.36 3216.86,-219.62"/>
<text text-anchor="middle" x="3142.5" y="-254.6" font-family="Times-Roman" font-size="8.00">about</text>
</g>
<!-- L4YAML.TokenParser.parseNodeContent._mutual.eq_def -->
<g id="node20" class="node">
<title>L4YAML.TokenParser.parseNodeContent._mutual.eq_def</title>
<g id="a_node20"><a xlink:href="../../../api/L4YAML/TokenParser.html#L4YAML.TokenParser.parseNodeContent._mutual.eq_def" xlink:title="TokenParser.parseNodeContent._mutual.eq_def" target="_blank">
<ellipse fill="#d4edda" stroke="#28a745" cx="2043" cy="-196" rx="133.08" ry="18"/>
<text text-anchor="middle" x="2043" y="-193.5" font-family="Helvetica" font-size="10.00">TokenParser.parseNodeContent._mutual.eq_def</text>
</a>
</g>
</g>
<!-- L4YAML.TokenParser.parseImplicitBlockSequenceLoop.eq_def&#45;&gt;L4YAML.TokenParser.parseNodeContent._mutual.eq_def -->
<g id="edge3" class="edge">
<title>L4YAML.TokenParser.parseImplicitBlockSequenceLoop.eq_def&#45;&gt;L4YAML.TokenParser.parseNodeContent._mutual.eq_def</title>
<path fill="none" stroke="#28a745" stroke-width="2" d="M2690.53,-284.41C2540.48,-264.16 2281.11,-229.14 2140.47,-210.16"/>
<polygon fill="#28a745" stroke="#28a745" stroke-width="2" points="2140.72,-207.72 2133.45,-209.21 2140.06,-212.57 2140.72,-207.72"/>
<text text-anchor="middle" x="2525" y="-254.6" font-family="Times-Roman" font-size="8.00">uses</text>
</g>
<!-- L4YAML.TokenParser.parseNodeContent._mutual._proof_6 -->
<g id="node11" class="node">
<title>L4YAML.TokenParser.parseNodeContent._mutual._proof_6</title>
<g id="a_node11"><a xlink:href="../../../api/L4YAML/TokenParser.html#L4YAML.TokenParser.parseNodeContent._mutual._proof_6" xlink:title="TokenParser.parseNodeContent._mutual._proof_6" target="_blank">
<ellipse fill="#d4edda" stroke="#28a745" cx="1350" cy="-115" rx="137.99" ry="18"/>
<text text-anchor="middle" x="1350" y="-112.5" font-family="Helvetica" font-size="10.00">TokenParser.parseNodeContent._mutual._proof_6</text>
</a>
</g>
</g>
<!-- L4YAML.TokenParser.parseNodeContent._mutual._proof_6&#45;&gt;L4YAML.TokenParser.ParseState -->
<g id="edge31" class="edge">
<title>L4YAML.TokenParser.parseNodeContent._mutual._proof_6&#45;&gt;L4YAML.TokenParser.ParseState</title>
<path fill="none" stroke="#999999" stroke-dasharray="1,5" d="M1423.28,-99.7C1446.46,-95.65 1472.23,-91.63 1496,-89 1660.1,-70.81 1702.03,-76.65 1867,-70 2292.68,-52.84 2804.34,-40.62 2987.56,-36.51"/>
<polygon fill="#999999" stroke="#999999" points="2987.78,-38.96 2994.72,-36.35 2987.67,-34.06 2987.78,-38.96"/>
<text text-anchor="middle" x="1879.5" y="-72.6" font-family="Times-Roman" font-size="8.00">about</text>
</g>
<!-- L4YAML.TokenParser.parseNodeContent._mutual._proof_17 -->
<g id="node12" class="node">
<title>L4YAML.TokenParser.parseNodeContent._mutual._proof_17</title>
<g id="a_node12"><a xlink:href="../../../api/L4YAML/TokenParser.html#L4YAML.TokenParser.parseNodeContent._mutual._proof_17" xlink:title="TokenParser.parseNodeContent._mutual._proof_17" target="_blank">
<ellipse fill="#d4edda" stroke="#28a745" cx="1054" cy="-115" rx="140.88" ry="18"/>
<text text-anchor="middle" x="1054" y="-112.5" font-family="Helvetica" font-size="10.00">TokenParser.parseNodeContent._mutual._proof_17</text>
</a>
</g>
</g>
<!-- L4YAML.TokenParser.parseNodeContent._mutual._proof_17&#45;&gt;L4YAML.TokenParser.ParseState -->
<g id="edge25" class="edge">
<title>L4YAML.TokenParser.parseNodeContent._mutual._proof_17&#45;&gt;L4YAML.TokenParser.ParseState</title>
<path fill="none" stroke="#999999" stroke-dasharray="1,5" d="M1128.8,-99.71C1152.45,-95.65 1178.75,-91.63 1203,-89 1370.23,-70.83 1412.9,-76.22 1581,-70 2122.68,-49.97 2776.64,-39.15 2987.74,-35.99"/>
<polygon fill="#999999" stroke="#999999" points="2987.79,-38.44 2994.76,-35.89 2987.72,-33.54 2987.79,-38.44"/>
<text text-anchor="middle" x="1593.5" y="-72.6" font-family="Times-Roman" font-size="8.00">about</text>
</g>
<!-- L4YAML.TokenParser.parseNodeContent._mutual._proof_34 -->
<g id="node13" class="node">
<title>L4YAML.TokenParser.parseNodeContent._mutual._proof_34</title>
<g id="a_node13"><a xlink:href="../../../api/L4YAML/TokenParser.html#L4YAML.TokenParser.parseNodeContent._mutual._proof_34" xlink:title="TokenParser.parseNodeContent._mutual._proof_34" target="_blank">
<ellipse fill="#d4edda" stroke="#28a745" cx="2238" cy="-115" rx="140.88" ry="18"/>
<text text-anchor="middle" x="2238" y="-112.5" font-family="Helvetica" font-size="10.00">TokenParser.parseNodeContent._mutual._proof_34</text>
</a>
</g>
</g>
<!-- L4YAML.TokenParser.parseNodeContent._mutual._proof_34&#45;&gt;L4YAML.YamlToken -->
<g id="edge16" class="edge">
<title>L4YAML.TokenParser.parseNodeContent._mutual._proof_34&#45;&gt;L4YAML.YamlToken</title>
<path fill="none" stroke="#999999" stroke-dasharray="1,5" d="M2312.8,-99.71C2336.45,-95.66 2362.75,-91.64 2387,-89 2553.79,-70.87 2596.44,-78.37 2764,-70 2844.89,-65.96 3048.99,-69.77 3128,-52 3128.62,-51.86 3129.25,-51.71 3129.88,-51.55"/>
<polygon fill="#999999" stroke="#999999" points="3130.62,-53.89 3136.66,-49.59 3129.25,-49.18 3130.62,-53.89"/>
<text text-anchor="middle" x="2776.5" y="-72.6" font-family="Times-Roman" font-size="8.00">about</text>
</g>
<!-- L4YAML.TokenParser.parseNodeContent._mutual._proof_9 -->
<g id="node14" class="node">
<title>L4YAML.TokenParser.parseNodeContent._mutual._proof_9</title>
<g id="a_node14"><a xlink:href="../../../api/L4YAML/TokenParser.html#L4YAML.TokenParser.parseNodeContent._mutual._proof_9" xlink:title="TokenParser.parseNodeContent._mutual._proof_9" target="_blank">
<ellipse fill="#d4edda" stroke="#28a745" cx="1942" cy="-115" rx="137.99" ry="18"/>
<text text-anchor="middle" x="1942" y="-112.5" font-family="Helvetica" font-size="10.00">TokenParser.parseNodeContent._mutual._proof_9</text>
</a>
</g>
</g>
<!-- L4YAML.TokenParser.parseNodeContent._mutual._proof_9&#45;&gt;L4YAML.TokenParser.ParseState -->
<g id="edge33" class="edge">
<title>L4YAML.TokenParser.parseNodeContent._mutual._proof_9&#45;&gt;L4YAML.TokenParser.ParseState</title>
<path fill="none" stroke="#999999" stroke-dasharray="1,5" d="M2015.67,-99.7C2038.75,-95.68 2064.36,-91.67 2088,-89 2423.59,-51.04 2827.71,-39.42 2987.31,-36.16"/>
<polygon fill="#999999" stroke="#999999" points="2987.78,-38.6 2994.73,-36.01 2987.68,-33.71 2987.78,-38.6"/>
<text text-anchor="middle" x="2284.5" y="-72.6" font-family="Times-Roman" font-size="8.00">about</text>
</g>
<!-- L4YAML.TokenParser.parseNodeContent._mutual._proof_1 -->
<g id="node15" class="node">
<title>L4YAML.TokenParser.parseNodeContent._mutual._proof_1</title>
<g id="a_node15"><a xlink:href="../../../api/L4YAML/TokenParser.html#L4YAML.TokenParser.parseNodeContent._mutual._proof_1" xlink:title="TokenParser.parseNodeContent._mutual._proof_1" target="_blank">
<ellipse fill="#d4edda" stroke="#28a745" cx="2833" cy="-115" rx="137.99" ry="18"/>
<text text-anchor="middle" x="2833" y="-112.5" font-family="Helvetica" font-size="10.00">TokenParser.parseNodeContent._mutual._proof_1</text>
</a>
</g>
</g>
<!-- L4YAML.TokenParser.parseNodeContent._mutual._proof_1&#45;&gt;L4YAML.YamlPath -->
<g id="edge10" class="edge">
<title>L4YAML.TokenParser.parseNodeContent._mutual._proof_1&#45;&gt;L4YAML.YamlPath</title>
<path fill="none" stroke="#999999" stroke-dasharray="1,5" d="M2891.33,-98.63C2931.44,-88.73 2986.08,-76.52 3035,-70 3192.48,-49.02 3237.52,-89.07 3392,-52 3392.53,-51.87 3393.06,-51.74 3393.59,-51.6"/>
<polygon fill="#999999" stroke="#999999" points="3394.54,-53.87 3400.5,-49.44 3393.09,-49.19 3394.54,-53.87"/>
<text text-anchor="middle" x="3047.5" y="-72.6" font-family="Times-Roman" font-size="8.00">about</text>
</g>
<!-- L4YAML.TokenParser.parseNodeContent._mutual._proof_26 -->
<g id="node16" class="node">
<title>L4YAML.TokenParser.parseNodeContent._mutual._proof_26</title>
<g id="a_node16"><a xlink:href="../../../api/L4YAML/TokenParser.html#L4YAML.TokenParser.parseNodeContent._mutual._proof_26" xlink:title="TokenParser.parseNodeContent._mutual._proof_26" target="_blank">
<ellipse fill="#d4edda" stroke="#28a745" cx="456" cy="-115" rx="140.88" ry="18"/>
<text text-anchor="middle" x="456" y="-112.5" font-family="Helvetica" font-size="10.00">TokenParser.parseNodeContent._mutual._proof_26</text>
</a>
</g>
</g>
<!-- L4YAML.TokenParser.parseNodeContent._mutual._proof_26&#45;&gt;L4YAML.TokenParser.ParseState -->
<g id="edge23" class="edge">
<title>L4YAML.TokenParser.parseNodeContent._mutual._proof_26&#45;&gt;L4YAML.TokenParser.ParseState</title>
<path fill="none" stroke="#999999" stroke-dasharray="1,5" d="M530.8,-99.7C554.45,-95.65 580.75,-91.63 605,-89 772.67,-70.79 815.44,-75.65 984,-70 1770.32,-43.66 2725.13,-36.78 2987.47,-35.34"/>
<polygon fill="#999999" stroke="#999999" points="2987.67,-37.79 2994.66,-35.3 2987.64,-32.89 2987.67,-37.79"/>
<text text-anchor="middle" x="996.5" y="-72.6" font-family="Times-Roman" font-size="8.00">about</text>
</g>
<!-- L4YAML.TokenParser.parseNodeContent._mutual._proof_37 -->
<g id="node17" class="node">
<title>L4YAML.TokenParser.parseNodeContent._mutual._proof_37</title>
<g id="a_node17"><a xlink:href="../../../api/L4YAML/TokenParser.html#L4YAML.TokenParser.parseNodeContent._mutual._proof_37" xlink:title="TokenParser.parseNodeContent._mutual._proof_37" target="_blank">
<ellipse fill="#d4edda" stroke="#28a745" cx="2537" cy="-115" rx="140.88" ry="18"/>
<text text-anchor="middle" x="2537" y="-112.5" font-family="Helvetica" font-size="10.00">TokenParser.parseNodeContent._mutual._proof_37</text>
</a>
</g>
</g>
<!-- L4YAML.TokenParser.parseNodeContent._mutual._proof_37&#45;&gt;L4YAML.TokenParser.ParseState.advance -->
<g id="edge7" class="edge">
<title>L4YAML.TokenParser.parseNodeContent._mutual._proof_37&#45;&gt;L4YAML.TokenParser.ParseState.advance</title>
<path fill="none" stroke="#999999" stroke-dasharray="1,5" d="M2612.98,-99.81C2636.34,-95.84 2662.17,-91.83 2686,-89 2805.01,-74.85 2835.44,-78.44 2955,-70 3068.33,-62 3097.31,-66.46 3210,-52 3210.76,-51.9 3211.52,-51.8 3212.28,-51.7"/>
<polygon fill="#999999" stroke="#999999" points="3212.62,-54.13 3219.22,-50.73 3211.95,-49.28 3212.62,-54.13"/>
<text text-anchor="middle" x="2967.5" y="-72.6" font-family="Times-Roman" font-size="8.00">about</text>
</g>
<!-- L4YAML.TokenParser.parseNodeContent._mutual._proof_19 -->
<g id="node18" class="node">
<title>L4YAML.TokenParser.parseNodeContent._mutual._proof_19</title>
<g id="a_node18"><a xlink:href="../../../api/L4YAML/TokenParser.html#L4YAML.TokenParser.parseNodeContent._mutual._proof_19" xlink:title="TokenParser.parseNodeContent._mutual._proof_19" target="_blank">
<ellipse fill="#d4edda" stroke="#28a745" cx="1646" cy="-115" rx="140.88" ry="18"/>
<text text-anchor="middle" x="1646" y="-112.5" font-family="Helvetica" font-size="10.00">TokenParser.parseNodeContent._mutual._proof_19</text>
</a>
</g>
</g>
<!-- L4YAML.TokenParser.parseNodeContent._mutual._proof_19&#45;&gt;L4YAML.TokenParser.ParseState -->
<g id="edge21" class="edge">
<title>L4YAML.TokenParser.parseNodeContent._mutual._proof_19&#45;&gt;L4YAML.TokenParser.ParseState</title>
<path fill="none" stroke="#999999" stroke-dasharray="1,5" d="M1720.8,-99.73C1744.46,-95.68 1770.75,-91.65 1795,-89 2247.79,-39.49 2796.59,-34.77 2987.55,-34.75"/>
<polygon fill="#999999" stroke="#999999" points="2987.73,-37.2 2994.73,-34.76 2987.73,-32.3 2987.73,-37.2"/>
<text text-anchor="middle" x="1977.5" y="-72.6" font-family="Times-Roman" font-size="8.00">about</text>
</g>
<!-- L4YAML.TokenParser.parseNodeContent._mutual._proof_16 -->
<g id="node19" class="node">
<title>L4YAML.TokenParser.parseNodeContent._mutual._proof_16</title>
<g id="a_node19"><a xlink:href="../../../api/L4YAML/TokenParser.html#L4YAML.TokenParser.parseNodeContent._mutual._proof_16" xlink:title="TokenParser.parseNodeContent._mutual._proof_16" target="_blank">
<ellipse fill="#d4edda" stroke="#28a745" cx="157" cy="-115" rx="140.88" ry="18"/>
<text text-anchor="middle" x="157" y="-112.5" font-family="Helvetica" font-size="10.00">TokenParser.parseNodeContent._mutual._proof_16</text>
</a>
</g>
</g>
<!-- L4YAML.TokenParser.parseNodeContent._mutual._proof_16&#45;&gt;L4YAML.TokenParser.ParseState -->
<g id="edge29" class="edge">
<title>L4YAML.TokenParser.parseNodeContent._mutual._proof_16&#45;&gt;L4YAML.TokenParser.ParseState</title>
<path fill="none" stroke="#999999" stroke-dasharray="1,5" d="M231.8,-99.7C255.45,-95.65 281.75,-91.63 306,-89 473.67,-70.79 516.43,-75.47 685,-70 1594.88,-40.49 2701.89,-35.85 2987.28,-35.13"/>
<polygon fill="#999999" stroke="#999999" points="2987.68,-37.58 2994.68,-35.11 2987.67,-32.68 2987.68,-37.58"/>
<text text-anchor="middle" x="697.5" y="-72.6" font-family="Times-Roman" font-size="8.00">about</text>
</g>
<!-- L4YAML.TokenParser.parseNodeContent._mutual.eq_def&#45;&gt;L4YAML.instInhabitedYamlToken -->
<g id="edge13" class="edge">
<title>L4YAML.TokenParser.parseNodeContent._mutual.eq_def&#45;&gt;L4YAML.instInhabitedYamlToken</title>
<path fill="none" stroke="#999999" stroke-dasharray="1,5" d="M2170.51,-190.83C2326.57,-185.38 2598.86,-174.76 2832,-160 2868.49,-157.69 3123.92,-138.95 3160,-133 3160.43,-132.93 3160.86,-132.86 3161.3,-132.78"/>
<polygon fill="#999999" stroke="#999999" points="3161.97,-135.15 3168.41,-131.48 3161.08,-130.33 3161.97,-135.15"/>
<text text-anchor="middle" x="2964.5" y="-153.6" font-family="Times-Roman" font-size="8.00">about</text>
</g>
<!-- L4YAML.TokenParser.parseNodeContent._mutual.eq_def&#45;&gt;L4YAML.TokenParser.parseNodeContent._mutual -->
<g id="edge4" class="edge">
<title>L4YAML.TokenParser.parseNodeContent._mutual.eq_def&#45;&gt;L4YAML.TokenParser.parseNodeContent._mutual</title>
<path fill="none" stroke="#999999" stroke-dasharray="1,5" d="M2175.7,-194.41C2357.68,-192.61 2694.73,-185.72 2981,-160 3009.17,-157.47 3015.88,-154.01 3044,-151 3156.09,-139.02 3185.02,-145.94 3297,-133 3297.54,-132.94 3298.08,-132.87 3298.62,-132.81"/>
<polygon fill="#999999" stroke="#999999" points="3299.07,-135.22 3305.72,-131.94 3298.47,-130.36 3299.07,-135.22"/>
<text text-anchor="middle" x="3056.5" y="-153.6" font-family="Times-Roman" font-size="8.00">about</text>
</g>
<!-- L4YAML.TokenParser.parseNodeContent._mutual.eq_def&#45;&gt;L4YAML.TokenParser.ParseState.tokens -->
<g id="edge18" class="edge">
<title>L4YAML.TokenParser.parseNodeContent._mutual.eq_def&#45;&gt;L4YAML.TokenParser.ParseState.tokens</title>
<path fill="none" stroke="#999999" stroke-dasharray="1,5" d="M2171.95,-191.43C2353.52,-185.27 2694.61,-169.61 2983,-133 2984.6,-132.8 2986.22,-132.58 2987.85,-132.36"/>
<polygon fill="#999999" stroke="#999999" points="2988.46,-134.75 2995.04,-131.32 2987.76,-129.9 2988.46,-134.75"/>
<text text-anchor="middle" x="2815.5" y="-153.6" font-family="Times-Roman" font-size="8.00">about</text>
</g>
<!-- L4YAML.TokenParser.parseNodeContent._mutual.eq_def&#45;&gt;L4YAML.TokenParser.parseNodeContent._mutual._proof_6 -->
<g id="edge30" class="edge">
<title>L4YAML.TokenParser.parseNodeContent._mutual.eq_def&#45;&gt;L4YAML.TokenParser.parseNodeContent._mutual._proof_6</title>
<path fill="none" stroke="#28a745" stroke-width="2" d="M1944.17,-183.89C1834.61,-171.55 1652.67,-151 1496,-133 1483.05,-131.51 1469.45,-129.94 1455.98,-128.38"/>
<polygon fill="#28a745" stroke="#28a745" stroke-width="2" points="1456.19,-125.94 1448.95,-127.56 1455.62,-130.8 1456.19,-125.94"/>
<text text-anchor="middle" x="1731" y="-153.6" font-family="Times-Roman" font-size="8.00">uses</text>
</g>
<!-- L4YAML.TokenParser.parseNodeContent._mutual.eq_def&#45;&gt;L4YAML.TokenParser.parseNodeContent._mutual._proof_17 -->
<g id="edge24" class="edge">
<title>L4YAML.TokenParser.parseNodeContent._mutual.eq_def&#45;&gt;L4YAML.TokenParser.parseNodeContent._mutual._proof_17</title>
<path fill="none" stroke="#28a745" stroke-width="2" d="M1924.63,-187.76C1761.89,-177.46 1459.97,-157.13 1203,-133 1189.08,-131.69 1174.44,-130.19 1160,-128.62"/>
<polygon fill="#28a745" stroke="#28a745" stroke-width="2" points="1160.15,-126.17 1152.92,-127.85 1159.62,-131.04 1160.15,-126.17"/>
<text text-anchor="middle" x="1513" y="-153.6" font-family="Times-Roman" font-size="8.00">uses</text>
</g>
<!-- L4YAML.TokenParser.parseNodeContent._mutual.eq_def&#45;&gt;L4YAML.TokenParser.parseNodeContent._mutual._proof_34 -->
<g id="edge15" class="edge">
<title>L4YAML.TokenParser.parseNodeContent._mutual.eq_def&#45;&gt;L4YAML.TokenParser.parseNodeContent._mutual._proof_34</title>
<path fill="none" stroke="#28a745" stroke-width="2" d="M2082.93,-178.82C2114.24,-166.14 2157.9,-148.45 2190.91,-135.08"/>
<polygon fill="#28a745" stroke="#28a745" stroke-width="2" points="2192.22,-137.19 2197.79,-132.29 2190.38,-132.65 2192.22,-137.19"/>
<text text-anchor="middle" x="2156" y="-153.6" font-family="Times-Roman" font-size="8.00">uses</text>
</g>
<!-- L4YAML.TokenParser.parseNodeContent._mutual.eq_def&#45;&gt;L4YAML.TokenParser.parseNodeContent._mutual._proof_9 -->
<g id="edge32" class="edge">
<title>L4YAML.TokenParser.parseNodeContent._mutual.eq_def&#45;&gt;L4YAML.TokenParser.parseNodeContent._mutual._proof_9</title>
<path fill="none" stroke="#28a745" stroke-width="2" d="M2021.08,-177.86C2005.89,-165.98 1985.56,-150.07 1969.31,-137.36"/>
<polygon fill="#28a745" stroke="#28a745" stroke-width="2" points="1970.55,-135.22 1963.53,-132.84 1967.53,-139.08 1970.55,-135.22"/>
<text text-anchor="middle" x="2005" y="-153.6" font-family="Times-Roman" font-size="8.00">uses</text>
</g>
<!-- L4YAML.TokenParser.parseNodeContent._mutual.eq_def&#45;&gt;L4YAML.TokenParser.parseNodeContent._mutual._proof_1 -->
<g id="edge9" class="edge">
<title>L4YAML.TokenParser.parseNodeContent._mutual.eq_def&#45;&gt;L4YAML.TokenParser.parseNodeContent._mutual._proof_1</title>
<path fill="none" stroke="#28a745" stroke-width="2" d="M2150.46,-185.31C2278.37,-173.63 2498.38,-153.06 2687,-133 2700.18,-131.6 2714.02,-130.07 2727.72,-128.51"/>
<polygon fill="#28a745" stroke="#28a745" stroke-width="2" points="2728.18,-130.93 2734.86,-127.7 2727.63,-126.06 2728.18,-130.93"/>
<text text-anchor="middle" x="2520" y="-153.6" font-family="Times-Roman" font-size="8.00">uses</text>
</g>
<!-- L4YAML.TokenParser.parseNodeContent._mutual.eq_def&#45;&gt;L4YAML.TokenParser.parseNodeContent._mutual._proof_26 -->
<g id="edge22" class="edge">
<title>L4YAML.TokenParser.parseNodeContent._mutual.eq_def&#45;&gt;L4YAML.TokenParser.parseNodeContent._mutual._proof_26</title>
<path fill="none" stroke="#28a745" stroke-width="2" d="M1911.92,-192.81C1658.89,-187.81 1085.64,-172.76 605,-133 590.73,-131.82 575.71,-130.36 560.93,-128.8"/>
<polygon fill="#28a745" stroke="#28a745" stroke-width="2" points="560.92,-126.33 553.7,-128.03 560.4,-131.21 560.92,-126.33"/>
<text text-anchor="middle" x="1009" y="-153.6" font-family="Times-Roman" font-size="8.00">uses</text>
</g>
<!-- L4YAML.TokenParser.parseNodeContent._mutual.eq_def&#45;&gt;L4YAML.TokenParser.parseNodeContent._mutual._proof_37 -->
<g id="edge6" class="edge">
<title>L4YAML.TokenParser.parseNodeContent._mutual.eq_def&#45;&gt;L4YAML.TokenParser.parseNodeContent._mutual._proof_37</title>
<path fill="none" stroke="#28a745" stroke-width="2" d="M2125.41,-181.82C2213.83,-167.68 2353.9,-145.28 2445.64,-130.61"/>
<polygon fill="#28a745" stroke="#28a745" stroke-width="2" points="2446.18,-133.01 2452.71,-129.48 2445.41,-128.17 2446.18,-133.01"/>
<text text-anchor="middle" x="2314" y="-153.6" font-family="Times-Roman" font-size="8.00">uses</text>
</g>
<!-- L4YAML.TokenParser.parseNodeContent._mutual.eq_def&#45;&gt;L4YAML.TokenParser.parseNodeContent._mutual._proof_19 -->
<g id="edge20" class="edge">
<title>L4YAML.TokenParser.parseNodeContent._mutual.eq_def&#45;&gt;L4YAML.TokenParser.parseNodeContent._mutual._proof_19</title>
<path fill="none" stroke="#28a745" stroke-width="2" d="M1971.57,-180.79C1902.39,-167.02 1797.71,-146.19 1725.82,-131.88"/>
<polygon fill="#28a745" stroke="#28a745" stroke-width="2" points="1725.88,-129.4 1718.54,-130.43 1724.92,-134.2 1725.88,-129.4"/>
<text text-anchor="middle" x="1866" y="-153.6" font-family="Times-Roman" font-size="8.00">uses</text>
</g>
<!-- L4YAML.TokenParser.parseNodeContent._mutual.eq_def&#45;&gt;L4YAML.TokenParser.parseNodeContent._mutual._proof_16 -->
<g id="edge28" class="edge">
<title>L4YAML.TokenParser.parseNodeContent._mutual.eq_def&#45;&gt;L4YAML.TokenParser.parseNodeContent._mutual._proof_16</title>
<path fill="none" stroke="#28a745" stroke-width="2" d="M1910.38,-194.39C1619.42,-192.16 903.38,-181.72 306,-133 291.62,-131.83 276.48,-130.36 261.58,-128.79"/>
<polygon fill="#28a745" stroke="#28a745" stroke-width="2" points="261.51,-126.32 254.29,-128.01 260.99,-131.2 261.51,-126.32"/>
<text text-anchor="middle" x="695" y="-153.6" font-family="Times-Roman" font-size="8.00">uses</text>
</g>
<!-- L4YAML.TokenParser.parseNodeContent._mutual._proof_30 -->
<g id="node21" class="node">
<title>L4YAML.TokenParser.parseNodeContent._mutual._proof_30</title>
<g id="a_node21"><a xlink:href="../../../api/L4YAML/TokenParser.html#L4YAML.TokenParser.parseNodeContent._mutual._proof_30" xlink:title="TokenParser.parseNodeContent._mutual._proof_30" target="_blank">
<ellipse fill="#d4edda" stroke="#28a745" cx="755" cy="-115" rx="140.88" ry="18"/>
<text text-anchor="middle" x="755" y="-112.5" font-family="Helvetica" font-size="10.00">TokenParser.parseNodeContent._mutual._proof_30</text>
</a>
</g>
</g>
<!-- L4YAML.TokenParser.parseNodeContent._mutual.eq_def&#45;&gt;L4YAML.TokenParser.parseNodeContent._mutual._proof_30 -->
<g id="edge26" class="edge">
<title>L4YAML.TokenParser.parseNodeContent._mutual.eq_def&#45;&gt;L4YAML.TokenParser.parseNodeContent._mutual._proof_30</title>
<path fill="none" stroke="#28a745" stroke-width="2" d="M1915.99,-190.61C1705.4,-182.76 1270.78,-164.17 904,-133 889.73,-131.79 874.72,-130.31 859.93,-128.74"/>
<polygon fill="#28a745" stroke="#28a745" stroke-width="2" points="859.92,-126.28 852.7,-127.96 859.4,-131.15 859.92,-126.28"/>
<text text-anchor="middle" x="1289" y="-153.6" font-family="Times-Roman" font-size="8.00">uses</text>
</g>
<!-- L4YAML.TokenParser.parseNodeContent._mutual._proof_30&#45;&gt;L4YAML.TokenParser.ParseState -->
<g id="edge27" class="edge">
<title>L4YAML.TokenParser.parseNodeContent._mutual._proof_30&#45;&gt;L4YAML.TokenParser.ParseState</title>
<path fill="none" stroke="#999999" stroke-dasharray="1,5" d="M829.8,-99.7C853.45,-95.65 879.75,-91.63 904,-89 1071.67,-70.79 1114.45,-75.89 1283,-70 1946.49,-46.83 2750.14,-37.87 2987.72,-35.61"/>
<polygon fill="#999999" stroke="#999999" points="2987.94,-38.06 2994.92,-35.54 2987.9,-33.16 2987.94,-38.06"/>
<text text-anchor="middle" x="1295.5" y="-72.6" font-family="Times-Roman" font-size="8.00">about</text>
</g>
</g>
</svg>
