<?xml version="1.0" encoding="UTF-8" standalone="no"?>
<!DOCTYPE svg PUBLIC "-//W3C//DTD SVG 1.1//EN"
 "http://www.w3.org/Graphics/SVG/1.1/DTD/svg11.dtd">
<!-- Generated by graphviz version 2.44.0 (0)
 -->
<!-- Title: chain_ScannerCorrectness.emitAt_preserves_ScanInv._proof_1 Pages: 1 -->
<svg width="511pt" height="98pt"
 viewBox="0.00 0.00 511.00 97.92" xmlns="http://www.w3.org/2000/svg" xmlns:xlink="http://www.w3.org/1999/xlink">
<g id="graph0" class="graph" transform="scale(1 1) rotate(0) translate(4 93.92)">
<title>chain_ScannerCorrectness.emitAt_preserves_ScanInv._proof_1</title>
<polygon fill="white" stroke="transparent" points="-4,4 -4,-93.92 507,-93.92 507,4 -4,4"/>
<text text-anchor="middle" x="251.5" y="-75.52" font-family="Helvetica Bold" font-size="13.00">Functorial Chains: ScannerCorrectness.emitAt_preserves_ScanInv._proof_1</text>
<text text-anchor="middle" x="251.5" y="-61.52" font-family="Helvetica Bold" font-size="13.00">(heuristic: used by 12 proofs)</text>
<!-- L4YAML.Proofs.ScannerCorrectness.emitAt_preserves_ScanInv._proof_1 -->
<g id="node1" class="node">
<title>L4YAML.Proofs.ScannerCorrectness.emitAt_preserves_ScanInv._proof_1</title>
<polygon fill="#fff3cd" stroke="black" points="455.17,-17.46 455.17,-36.46 335.86,-49.89 167.14,-49.89 47.83,-36.46 47.83,-17.46 167.14,-4.03 335.86,-4.03 455.17,-17.46"/>
<polygon fill="none" stroke="black" points="459.18,-13.89 459.18,-40.03 336.09,-53.88 166.91,-53.88 43.82,-40.03 43.82,-13.89 166.91,-0.04 336.09,-0.04 459.18,-13.89"/>
<text text-anchor="middle" x="251.5" y="-29.96" font-family="Helvetica" font-size="10.00">ScannerCorrectness.emitAt_preserves_ScanInv._proof_1</text>
<text text-anchor="middle" x="251.5" y="-18.96" font-family="Helvetica" font-size="10.00">(no functorial chains found)</text>
</g>
</g>
</svg>
