<?xml version="1.0" encoding="UTF-8" standalone="no"?>
<!DOCTYPE svg PUBLIC "-//W3C//DTD SVG 1.1//EN"
 "http://www.w3.org/Graphics/SVG/1.1/DTD/svg11.dtd">
<!-- Generated by graphviz version 2.44.0 (0)
 -->
<!-- Title: chain_ScannerCorrectness.ScanHelpers.scanPlainScalar_preserves_prefix Pages: 1 -->
<svg width="2896pt" height="405pt"
 viewBox="0.00 0.00 2896.00 405.00" xmlns="http://www.w3.org/2000/svg" xmlns:xlink="http://www.w3.org/1999/xlink">
<g id="graph0" class="graph" transform="scale(1 1) rotate(0) translate(4 401)">
<title>chain_ScannerCorrectness.ScanHelpers.scanPlainScalar_preserves_prefix</title>
<polygon fill="white" stroke="transparent" points="-4,4 -4,-401 2892,-401 2892,4 -4,4"/>
<text text-anchor="middle" x="1444" y="-382.6" font-family="Helvetica Bold" font-size="13.00">Functorial Chains: ScannerCorrectness.ScanHelpers.scanPlainScalar_preserves_prefix</text>
<text text-anchor="middle" x="1444" y="-368.6" font-family="Helvetica Bold" font-size="13.00">(heuristic: used by 5 proofs)</text>
<g id="clust1" class="cluster">
<title>cluster_fns</title>
<polygon fill="none" stroke="#4a90d9" stroke-dasharray="5,2" points="2486,-8 2486,-244 2880,-244 2880,-8 2486,-8"/>
<text text-anchor="middle" x="2683" y="-229.6" font-family="Helvetica Bold" font-size="13.00" fill="#4a90d9">Functions (Call Chain)</text>
</g>
<g id="clust2" class="cluster">
<title>cluster_thms</title>
<polygon fill="none" stroke="#28a745" stroke-dasharray="5,2" points="8,-89 8,-353 2478,-353 2478,-89 8,-89"/>
<text text-anchor="middle" x="1243" y="-338.6" font-family="Helvetica Bold" font-size="13.00" fill="#28a745">Theorems (Proof Chain)</text>
</g>
<!-- L4YAML.Scanner.scanPlainScalar -->
<g id="node1" class="node">
<title>L4YAML.Scanner.scanPlainScalar</title>
<g id="a_node1"><a xlink:href="../../../api/L4YAML/Scanner.html#L4YAML.Scanner.scanPlainScalar" xlink:title="scanPlainScalar" target="_blank">
<polygon fill="#dce9f7" stroke="#4a90d9" points="2634.5,-214 2547.5,-214 2547.5,-178 2634.5,-178 2634.5,-214"/>
<text text-anchor="middle" x="2591" y="-193.5" font-family="Helvetica" font-size="10.00">scanPlainScalar</text>
</a>
</g>
</g>
<!-- L4YAML.Scanner.PlainScalarResult.state -->
<g id="node3" class="node">
<title>L4YAML.Scanner.PlainScalarResult.state</title>
<g id="a_node3"><a xlink:href="../../../api/L4YAML/Scanner.html#L4YAML.Scanner.PlainScalarResult.state" xlink:title="PlainScalarResult.state" target="_blank">
<polygon fill="#dce9f7" stroke="#4a90d9" points="2738,-133 2620,-133 2620,-97 2738,-97 2738,-133"/>
<text text-anchor="middle" x="2679" y="-112.5" font-family="Helvetica" font-size="10.00">PlainScalarResult.state</text>
</a>
</g>
</g>
<!-- L4YAML.Scanner.scanPlainScalar&#45;&gt;L4YAML.Scanner.PlainScalarResult.state -->
<g id="edge14" class="edge">
<title>L4YAML.Scanner.scanPlainScalar&#45;&gt;L4YAML.Scanner.PlainScalarResult.state</title>
<path fill="none" stroke="#4a90d9" stroke-width="2" d="M2610.09,-177.86C2623.13,-166.16 2640.5,-150.56 2654.54,-137.95"/>
<polygon fill="#4a90d9" stroke="#4a90d9" stroke-width="2" points="2656.37,-139.61 2659.94,-133.11 2653.1,-135.96 2656.37,-139.61"/>
<text text-anchor="middle" x="2646.5" y="-153.6" font-family="Times-Roman" font-size="8.00">calls</text>
</g>
<!-- L4YAML.Scanner.collectPlainScalarLoop -->
<g id="node4" class="node">
<title>L4YAML.Scanner.collectPlainScalarLoop</title>
<g id="a_node4"><a xlink:href="../../../api/L4YAML/Scanner.html#L4YAML.Scanner.collectPlainScalarLoop" xlink:title="collectPlainScalarLoop" target="_blank">
<polygon fill="#dce9f7" stroke="#4a90d9" points="2872,-133 2756,-133 2756,-97 2872,-97 2872,-133"/>
<text text-anchor="middle" x="2814" y="-112.5" font-family="Helvetica" font-size="10.00">collectPlainScalarLoop</text>
</a>
</g>
</g>
<!-- L4YAML.Scanner.scanPlainScalar&#45;&gt;L4YAML.Scanner.collectPlainScalarLoop -->
<g id="edge20" class="edge">
<title>L4YAML.Scanner.scanPlainScalar&#45;&gt;L4YAML.Scanner.collectPlainScalarLoop</title>
<path fill="none" stroke="#4a90d9" stroke-width="2" d="M2634.53,-179.58C2670.08,-166.98 2720.56,-149.1 2758.93,-135.51"/>
<polygon fill="#4a90d9" stroke="#4a90d9" stroke-width="2" points="2760.16,-137.67 2765.94,-133.02 2758.53,-133.05 2760.16,-137.67"/>
<text text-anchor="middle" x="2718.5" y="-153.6" font-family="Times-Roman" font-size="8.00">calls</text>
</g>
<!-- L4YAML.Scanner.ScannerState.tokens -->
<g id="node6" class="node">
<title>L4YAML.Scanner.ScannerState.tokens</title>
<g id="a_node6"><a xlink:href="../../../api/L4YAML/Scanner.html#L4YAML.Scanner.ScannerState.tokens" xlink:title="ScannerState.tokens" target="_blank">
<polygon fill="#dce9f7" stroke="#4a90d9" points="2601.5,-133 2494.5,-133 2494.5,-97 2601.5,-97 2601.5,-133"/>
<text text-anchor="middle" x="2548" y="-112.5" font-family="Helvetica" font-size="10.00">ScannerState.tokens</text>
</a>
</g>
</g>
<!-- L4YAML.Scanner.scanPlainScalar&#45;&gt;L4YAML.Scanner.ScannerState.tokens -->
<g id="edge2" class="edge">
<title>L4YAML.Scanner.scanPlainScalar&#45;&gt;L4YAML.Scanner.ScannerState.tokens</title>
<path fill="none" stroke="#4a90d9" stroke-width="2" d="M2581.67,-177.86C2575.53,-166.57 2567.41,-151.66 2560.68,-139.3"/>
<polygon fill="#4a90d9" stroke="#4a90d9" stroke-width="2" points="2562.81,-138.09 2557.31,-133.11 2558.51,-140.43 2562.81,-138.09"/>
<text text-anchor="middle" x="2579.5" y="-153.6" font-family="Times-Roman" font-size="8.00">calls</text>
</g>
<!-- L4YAML.Scanner.ScannerState -->
<g id="node2" class="node">
<title>L4YAML.Scanner.ScannerState</title>
<g id="a_node2"><a xlink:href="../../../api/L4YAML/Scanner.html#L4YAML.Scanner.ScannerState" xlink:title="ScannerState" target="_blank">
<polygon fill="#dce9f7" stroke="#4a90d9" points="2570,-52 2494,-52 2494,-16 2570,-16 2570,-52"/>
<text text-anchor="middle" x="2532" y="-31.5" font-family="Helvetica" font-size="10.00">ScannerState</text>
</a>
</g>
</g>
<!-- L4YAML.Scanner.PlainScalarResult -->
<g id="node7" class="node">
<title>L4YAML.Scanner.PlainScalarResult</title>
<g id="a_node7"><a xlink:href="../../../api/L4YAML/Scanner.html#L4YAML.Scanner.PlainScalarResult" xlink:title="PlainScalarResult" target="_blank">
<polygon fill="#dce9f7" stroke="#4a90d9" points="2704,-52 2610,-52 2610,-16 2704,-16 2704,-52"/>
<text text-anchor="middle" x="2657" y="-31.5" font-family="Helvetica" font-size="10.00">PlainScalarResult</text>
</a>
</g>
</g>
<!-- L4YAML.Scanner.PlainScalarResult.state&#45;&gt;L4YAML.Scanner.PlainScalarResult -->
<g id="edge16" class="edge">
<title>L4YAML.Scanner.PlainScalarResult.state&#45;&gt;L4YAML.Scanner.PlainScalarResult</title>
<path fill="none" stroke="#4a90d9" stroke-width="2" d="M2674.23,-96.86C2671.14,-85.78 2667.08,-71.21 2663.68,-58.99"/>
<polygon fill="#4a90d9" stroke="#4a90d9" stroke-width="2" points="2666,-58.19 2661.76,-52.11 2661.28,-59.51 2666,-58.19"/>
<text text-anchor="middle" x="2677.5" y="-72.6" font-family="Times-Roman" font-size="8.00">calls</text>
</g>
<!-- L4YAML.Scanner.collectPlainScalarLoop&#45;&gt;L4YAML.Scanner.ScannerState -->
<g id="edge22" class="edge">
<title>L4YAML.Scanner.collectPlainScalarLoop&#45;&gt;L4YAML.Scanner.ScannerState</title>
<path fill="none" stroke="#4a90d9" stroke-width="2" d="M2773.42,-96.94C2764.82,-93.87 2755.71,-91.01 2747,-89 2702.19,-78.65 2688.72,-89.73 2644,-79 2620.35,-73.32 2595.06,-63.71 2574.5,-54.92"/>
<polygon fill="#4a90d9" stroke="#4a90d9" stroke-width="2" points="2575.39,-52.64 2568,-52.1 2573.44,-57.13 2575.39,-52.64"/>
<text text-anchor="middle" x="2653.5" y="-72.6" font-family="Times-Roman" font-size="8.00">calls</text>
</g>
<!-- L4YAML.ScanError -->
<g id="node5" class="node">
<title>L4YAML.ScanError</title>
<g id="a_node5"><a xlink:href="../../../api/L4YAML/Token.html#L4YAML.ScanError" xlink:title="ScanError" target="_blank">
<polygon fill="#dce9f7" stroke="#4a90d9" points="2813,-52 2753,-52 2753,-16 2813,-16 2813,-52"/>
<text text-anchor="middle" x="2783" y="-31.5" font-family="Helvetica" font-size="10.00">ScanError</text>
</a>
</g>
</g>
<!-- L4YAML.Scanner.collectPlainScalarLoop&#45;&gt;L4YAML.ScanError -->
<g id="edge30" class="edge">
<title>L4YAML.Scanner.collectPlainScalarLoop&#45;&gt;L4YAML.ScanError</title>
<path fill="none" stroke="#4a90d9" stroke-width="2" d="M2807.27,-96.86C2802.89,-85.68 2797.1,-70.93 2792.28,-58.64"/>
<polygon fill="#4a90d9" stroke="#4a90d9" stroke-width="2" points="2794.55,-57.73 2789.71,-52.11 2789.99,-59.52 2794.55,-57.73"/>
<text text-anchor="middle" x="2808.5" y="-72.6" font-family="Times-Roman" font-size="8.00">calls</text>
</g>
<!-- L4YAML.Scanner.collectPlainScalarLoop&#45;&gt;L4YAML.Scanner.PlainScalarResult -->
<g id="edge29" class="edge">
<title>L4YAML.Scanner.collectPlainScalarLoop&#45;&gt;L4YAML.Scanner.PlainScalarResult</title>
<path fill="none" stroke="#4a90d9" stroke-width="2" d="M2779.93,-96.86C2755.66,-84.64 2722.93,-68.17 2697.34,-55.3"/>
<polygon fill="#4a90d9" stroke="#4a90d9" stroke-width="2" points="2698.35,-53.07 2691,-52.11 2696.15,-57.44 2698.35,-53.07"/>
<text text-anchor="middle" x="2749.5" y="-72.6" font-family="Times-Roman" font-size="8.00">calls</text>
</g>
<!-- L4YAML.Scanner.ScannerState.tokens&#45;&gt;L4YAML.Scanner.ScannerState -->
<g id="edge5" class="edge">
<title>L4YAML.Scanner.ScannerState.tokens&#45;&gt;L4YAML.Scanner.ScannerState</title>
<path fill="none" stroke="#4a90d9" stroke-width="2" d="M2544.53,-96.86C2542.28,-85.78 2539.33,-71.21 2536.86,-58.99"/>
<polygon fill="#4a90d9" stroke="#4a90d9" stroke-width="2" points="2539.26,-58.48 2535.46,-52.11 2534.45,-59.46 2539.26,-58.48"/>
<text text-anchor="middle" x="2549.5" y="-72.6" font-family="Times-Roman" font-size="8.00">calls</text>
</g>
<!-- L4YAML.Proofs.ScannerCorrectness.ScanHelpers.collectPlainScalarLoop_preserves_tokens -->
<g id="node8" class="node">
<title>L4YAML.Proofs.ScannerCorrectness.ScanHelpers.collectPlainScalarLoop_preserves_tokens</title>
<g id="a_node8"><a xlink:href="../../../api/L4YAML/Proofs/ScannerCorrectness.html#L4YAML.Proofs.ScannerCorrectness.ScanHelpers.collectPlainScalarLoop_preserves_tokens" xlink:title="ScannerCorrectness.ScanHelpers.collectPlainScalarLoop_preserves_tokens" target="_blank">
<ellipse fill="#d4edda" stroke="#28a745" cx="2093" cy="-196" rx="206.06" ry="18"/>
<text text-anchor="middle" x="2093" y="-193.5" font-family="Helvetica" font-size="10.00">ScannerCorrectness.ScanHelpers.collectPlainScalarLoop_preserves_tokens</text>
</a>
</g>
</g>
<!-- L4YAML.Proofs.ScannerCorrectness.ScanHelpers.collectPlainScalarLoop_preserves_tokens&#45;&gt;L4YAML.Scanner.PlainScalarResult.state -->
<g id="edge15" class="edge">
<title>L4YAML.Proofs.ScannerCorrectness.ScanHelpers.collectPlainScalarLoop_preserves_tokens&#45;&gt;L4YAML.Scanner.PlainScalarResult.state</title>
<path fill="none" stroke="#999999" stroke-dasharray="1,5" d="M2240.71,-183.43C2295.68,-177.95 2358.43,-170.29 2415,-160 2430.8,-157.12 2434.2,-153.9 2450,-151 2520.82,-138 2540.14,-145.76 2611,-133 2611.54,-132.9 2612.08,-132.8 2612.62,-132.7"/>
<polygon fill="#999999" stroke="#999999" points="2613.36,-135.05 2619.76,-131.3 2612.42,-130.25 2613.36,-135.05"/>
<text text-anchor="middle" x="2462.5" y="-153.6" font-family="Times-Roman" font-size="8.00">about</text>
</g>
<!-- L4YAML.Proofs.ScannerCorrectness.ScanHelpers.collectPlainScalarLoop_preserves_tokens&#45;&gt;L4YAML.Scanner.collectPlainScalarLoop -->
<g id="edge21" class="edge">
<title>L4YAML.Proofs.ScannerCorrectness.ScanHelpers.collectPlainScalarLoop_preserves_tokens&#45;&gt;L4YAML.Scanner.collectPlainScalarLoop</title>
<path fill="none" stroke="#999999" stroke-dasharray="1,5" d="M2239.19,-183.27C2310.42,-177.13 2397.27,-169.02 2475,-160 2503.53,-156.69 2510.46,-154.24 2539,-151 2631.2,-140.54 2655.51,-148.46 2747,-133 2747.53,-132.91 2748.07,-132.82 2748.6,-132.72"/>
<polygon fill="#999999" stroke="#999999" points="2749.23,-135.1 2755.65,-131.4 2748.32,-130.28 2749.23,-135.1"/>
<text text-anchor="middle" x="2551.5" y="-153.6" font-family="Times-Roman" font-size="8.00">about</text>
</g>
<!-- L4YAML.Proofs.ScannerCorrectness.ScanHelpers.collectPlainScalarLoop_preserves_tokens&#45;&gt;L4YAML.Scanner.ScannerState.tokens -->
<g id="edge9" class="edge">
<title>L4YAML.Proofs.ScannerCorrectness.ScanHelpers.collectPlainScalarLoop_preserves_tokens&#45;&gt;L4YAML.Scanner.ScannerState.tokens</title>
<path fill="none" stroke="#999999" stroke-dasharray="1,5" d="M2205.63,-180.85C2283.69,-170.12 2389.75,-153.69 2482,-133 2483.77,-132.6 2485.56,-132.19 2487.37,-131.77"/>
<polygon fill="#999999" stroke="#999999" points="2488.15,-134.11 2494.4,-130.11 2487.02,-129.34 2488.15,-134.11"/>
<text text-anchor="middle" x="2398.5" y="-153.6" font-family="Times-Roman" font-size="8.00">about</text>
</g>
<!-- L4YAML.Proofs.ScannerCorrectness.consumeNewline_preserves_tokens -->
<g id="node10" class="node">
<title>L4YAML.Proofs.ScannerCorrectness.consumeNewline_preserves_tokens</title>
<g id="a_node10"><a xlink:href="../../../api/L4YAML/Proofs/ScannerCorrectness.html#L4YAML.Proofs.ScannerCorrectness.consumeNewline_preserves_tokens" xlink:title="ScannerCorrectness.consumeNewline_preserves_tokens" target="_blank">
<ellipse fill="#d4edda" stroke="#28a745" cx="1413" cy="-115" rx="156.67" ry="18"/>
<text text-anchor="middle" x="1413" y="-112.5" font-family="Helvetica" font-size="10.00">ScannerCorrectness.consumeNewline_preserves_tokens</text>
</a>
</g>
</g>
<!-- L4YAML.Proofs.ScannerCorrectness.ScanHelpers.collectPlainScalarLoop_preserves_tokens&#45;&gt;L4YAML.Proofs.ScannerCorrectness.consumeNewline_preserves_tokens -->
<g id="edge25" class="edge">
<title>L4YAML.Proofs.ScannerCorrectness.ScanHelpers.collectPlainScalarLoop_preserves_tokens&#45;&gt;L4YAML.Proofs.ScannerCorrectness.consumeNewline_preserves_tokens</title>
<path fill="none" stroke="#28a745" stroke-width="2" d="M1975.31,-181.17C1901.19,-172.47 1803.5,-161.04 1717,-151 1654.12,-143.7 1583.92,-135.61 1526.83,-129.05"/>
<polygon fill="#28a745" stroke="#28a745" stroke-width="2" points="1526.81,-126.59 1519.58,-128.22 1526.25,-131.45 1526.81,-126.59"/>
<text text-anchor="middle" x="1798" y="-153.6" font-family="Times-Roman" font-size="8.00">uses</text>
</g>
<!-- L4YAML.Scanner.collectPlainScalarLoop.eq_def -->
<g id="node12" class="node">
<title>L4YAML.Scanner.collectPlainScalarLoop.eq_def</title>
<g id="a_node12"><a xlink:href="../../../api/L4YAML/Proofs/ScalarCoupling.html#L4YAML.Scanner.collectPlainScalarLoop.eq_def" xlink:title="collectPlainScalarLoop.eq_def" target="_blank">
<ellipse fill="#d4edda" stroke="#28a745" cx="2383" cy="-115" rx="87.24" ry="18"/>
<text text-anchor="middle" x="2383" y="-112.5" font-family="Helvetica" font-size="10.00">collectPlainScalarLoop.eq_def</text>
</a>
</g>
</g>
<!-- L4YAML.Proofs.ScannerCorrectness.ScanHelpers.collectPlainScalarLoop_preserves_tokens&#45;&gt;L4YAML.Scanner.collectPlainScalarLoop.eq_def -->
<g id="edge17" class="edge">
<title>L4YAML.Proofs.ScannerCorrectness.ScanHelpers.collectPlainScalarLoop_preserves_tokens&#45;&gt;L4YAML.Scanner.collectPlainScalarLoop.eq_def</title>
<path fill="none" stroke="#28a745" stroke-width="2" d="M2152.74,-178.73C2203.41,-164.92 2275.64,-145.25 2325.63,-131.63"/>
<polygon fill="#28a745" stroke="#28a745" stroke-width="2" points="2326.42,-133.95 2332.53,-129.75 2325.13,-129.23 2326.42,-133.95"/>
<text text-anchor="middle" x="2256" y="-153.6" font-family="Times-Roman" font-size="8.00">uses</text>
</g>
<!-- L4YAML.Proofs.ScannerCorrectness.ScanHelpers.collectPlainScalar_terminates?_state -->
<g id="node13" class="node">
<title>L4YAML.Proofs.ScannerCorrectness.ScanHelpers.collectPlainScalar_terminates?_state</title>
<g id="a_node13"><a xlink:href="../../../api/L4YAML/Proofs/ScannerCorrectness.html#L4YAML.Proofs.ScannerCorrectness.ScanHelpers.collectPlainScalar_terminates?_state" xlink:title="ScannerCorrectness.ScanHelpers.collectPlainScalar_terminates?_state" target="_blank">
<ellipse fill="#d4edda" stroke="#28a745" cx="2084" cy="-115" rx="193.84" ry="18"/>
<text text-anchor="middle" x="2084" y="-112.5" font-family="Helvetica" font-size="10.00">ScannerCorrectness.ScanHelpers.collectPlainScalar_terminates?_state</text>
</a>
</g>
</g>
<!-- L4YAML.Proofs.ScannerCorrectness.ScanHelpers.collectPlainScalarLoop_preserves_tokens&#45;&gt;L4YAML.Proofs.ScannerCorrectness.ScanHelpers.collectPlainScalar_terminates?_state -->
<g id="edge12" class="edge">
<title>L4YAML.Proofs.ScannerCorrectness.ScanHelpers.collectPlainScalarLoop_preserves_tokens&#45;&gt;L4YAML.Proofs.ScannerCorrectness.ScanHelpers.collectPlainScalar_terminates?_state</title>
<path fill="none" stroke="#28a745" stroke-width="2" d="M2091.05,-177.86C2089.8,-166.88 2088.16,-152.48 2086.77,-140.33"/>
<polygon fill="#28a745" stroke="#28a745" stroke-width="2" points="2089.18,-139.79 2085.95,-133.11 2084.31,-140.34 2089.18,-139.79"/>
<text text-anchor="middle" x="2098" y="-153.6" font-family="Times-Roman" font-size="8.00">uses</text>
</g>
<!-- L4YAML.Proofs.ScannerCorrectness.ScanHelpers.skipBlankLinesLoop_preserves_tokens -->
<g id="node14" class="node">
<title>L4YAML.Proofs.ScannerCorrectness.ScanHelpers.skipBlankLinesLoop_preserves_tokens</title>
<g id="a_node14"><a xlink:href="../../../api/L4YAML/Proofs/ScannerCorrectness.html#L4YAML.Proofs.ScannerCorrectness.ScanHelpers.skipBlankLinesLoop_preserves_tokens" xlink:title="ScannerCorrectness.ScanHelpers.skipBlankLinesLoop_preserves_tokens" target="_blank">
<ellipse fill="#d4edda" stroke="#28a745" cx="1039" cy="-115" rx="198.94" ry="18"/>
<text text-anchor="middle" x="1039" y="-112.5" font-family="Helvetica" font-size="10.00">ScannerCorrectness.ScanHelpers.skipBlankLinesLoop_preserves_tokens</text>
</a>
</g>
</g>
<!-- L4YAML.Proofs.ScannerCorrectness.ScanHelpers.collectPlainScalarLoop_preserves_tokens&#45;&gt;L4YAML.Proofs.ScannerCorrectness.ScanHelpers.skipBlankLinesLoop_preserves_tokens -->
<g id="edge27" class="edge">
<title>L4YAML.Proofs.ScannerCorrectness.ScanHelpers.collectPlainScalarLoop_preserves_tokens&#45;&gt;L4YAML.Proofs.ScannerCorrectness.ScanHelpers.skipBlankLinesLoop_preserves_tokens</title>
<path fill="none" stroke="#28a745" stroke-width="2" d="M1948.04,-183.2C1844.08,-174.58 1718.1,-163.77 1693,-160 1674.12,-157.16 1669.93,-153.43 1651,-151 1472.73,-128.09 1426.38,-144.32 1247,-133 1226.61,-131.71 1205.12,-130.17 1183.99,-128.54"/>
<polygon fill="#28a745" stroke="#28a745" stroke-width="2" points="1184.01,-126.09 1176.85,-127.99 1183.63,-130.97 1184.01,-126.09"/>
<text text-anchor="middle" x="1703" y="-153.6" font-family="Times-Roman" font-size="8.00">uses</text>
</g>
<!-- L4YAML.Proofs.ScannerCorrectness.skipSpaces_preserves_tokens -->
<g id="node15" class="node">
<title>L4YAML.Proofs.ScannerCorrectness.skipSpaces_preserves_tokens</title>
<g id="a_node15"><a xlink:href="../../../api/L4YAML/Proofs/ScannerCorrectness.html#L4YAML.Proofs.ScannerCorrectness.skipSpaces_preserves_tokens" xlink:title="ScannerCorrectness.skipSpaces_preserves_tokens" target="_blank">
<ellipse fill="#d4edda" stroke="#28a745" cx="1730" cy="-115" rx="142.41" ry="18"/>
<text text-anchor="middle" x="1730" y="-112.5" font-family="Helvetica" font-size="10.00">ScannerCorrectness.skipSpaces_preserves_tokens</text>
</a>
</g>
</g>
<!-- L4YAML.Proofs.ScannerCorrectness.ScanHelpers.collectPlainScalarLoop_preserves_tokens&#45;&gt;L4YAML.Proofs.ScannerCorrectness.skipSpaces_preserves_tokens -->
<g id="edge23" class="edge">
<title>L4YAML.Proofs.ScannerCorrectness.ScanHelpers.collectPlainScalarLoop_preserves_tokens&#45;&gt;L4YAML.Proofs.ScannerCorrectness.skipSpaces_preserves_tokens</title>
<path fill="none" stroke="#28a745" stroke-width="2" d="M2019.98,-179.11C1957.68,-165.55 1868.45,-146.13 1805.46,-132.42"/>
<polygon fill="#28a745" stroke="#28a745" stroke-width="2" points="1805.66,-129.96 1798.3,-130.86 1804.62,-134.75 1805.66,-129.96"/>
<text text-anchor="middle" x="1932" y="-153.6" font-family="Times-Roman" font-size="8.00">uses</text>
</g>
<!-- L4YAML.Proofs.ScannerCorrectness.ScanHelpers.foldQuotedNewlines_preserves_tokens -->
<g id="node16" class="node">
<title>L4YAML.Proofs.ScannerCorrectness.ScanHelpers.foldQuotedNewlines_preserves_tokens</title>
<g id="a_node16"><a xlink:href="../../../api/L4YAML/Proofs/ScannerCorrectness.html#L4YAML.Proofs.ScannerCorrectness.ScanHelpers.foldQuotedNewlines_preserves_tokens" xlink:title="ScannerCorrectness.ScanHelpers.foldQuotedNewlines_preserves_tokens" target="_blank">
<ellipse fill="#d4edda" stroke="#28a745" cx="623" cy="-115" rx="198.94" ry="18"/>
<text text-anchor="middle" x="623" y="-112.5" font-family="Helvetica" font-size="10.00">ScannerCorrectness.ScanHelpers.foldQuotedNewlines_preserves_tokens</text>
</a>
</g>
</g>
<!-- L4YAML.Proofs.ScannerCorrectness.ScanHelpers.collectPlainScalarLoop_preserves_tokens&#45;&gt;L4YAML.Proofs.ScannerCorrectness.ScanHelpers.foldQuotedNewlines_preserves_tokens -->
<g id="edge10" class="edge">
<title>L4YAML.Proofs.ScannerCorrectness.ScanHelpers.collectPlainScalarLoop_preserves_tokens&#45;&gt;L4YAML.Proofs.ScannerCorrectness.ScanHelpers.foldQuotedNewlines_preserves_tokens</title>
<path fill="none" stroke="#28a745" stroke-width="2" d="M1946.71,-183.29C1923.72,-181.49 1900.22,-179.67 1878,-178 1766.47,-169.59 1738.24,-171.56 1627,-160 1597.55,-156.94 1590.51,-153.37 1561,-151 1237.5,-125.04 1155.09,-150.23 831,-133 809.86,-131.88 787.54,-130.38 765.67,-128.74"/>
<polygon fill="#28a745" stroke="#28a745" stroke-width="2" points="765.75,-126.29 758.59,-128.2 765.38,-131.18 765.75,-126.29"/>
<text text-anchor="middle" x="1637" y="-153.6" font-family="Times-Roman" font-size="8.00">uses</text>
</g>
<!-- L4YAML.Proofs.ScannerCorrectness.ScanHelpers.scanPlainScalar_preserves_prefix -->
<g id="node9" class="node">
<title>L4YAML.Proofs.ScannerCorrectness.ScanHelpers.scanPlainScalar_preserves_prefix</title>
<g id="a_node9"><a xlink:href="../../../api/L4YAML/Proofs/ScannerCorrectness.html#L4YAML.Proofs.ScannerCorrectness.ScanHelpers.scanPlainScalar_preserves_prefix" xlink:title="ScannerCorrectness.ScanHelpers.scanPlainScalar_preserves_prefix" target="_blank">
<polygon fill="#fff3cd" stroke="#d4a017" points="2294.96,-293.54 2294.96,-308.46 2176.66,-319 2009.34,-319 1891.04,-308.46 1891.04,-293.54 2009.34,-283 2176.66,-283 2294.96,-293.54"/>
<polygon fill="none" stroke="#d4a017" points="2298.96,-289.88 2298.96,-312.12 2176.83,-323 2009.17,-323 1887.04,-312.12 1887.04,-289.88 2009.17,-279 2176.83,-279 2298.96,-289.88"/>
<text text-anchor="middle" x="2093" y="-298.5" font-family="Helvetica" font-size="10.00">ScannerCorrectness.ScanHelpers.scanPlainScalar_preserves_prefix</text>
</a>
</g>
</g>
<!-- L4YAML.Proofs.ScannerCorrectness.ScanHelpers.scanPlainScalar_preserves_prefix&#45;&gt;L4YAML.Scanner.scanPlainScalar -->
<g id="edge1" class="edge">
<title>L4YAML.Proofs.ScannerCorrectness.ScanHelpers.scanPlainScalar_preserves_prefix&#45;&gt;L4YAML.Scanner.scanPlainScalar</title>
<path fill="none" stroke="#999999" stroke-dasharray="1,5" d="M2257.3,-286.08C2327.41,-277.65 2409.6,-264.43 2482,-244 2505.62,-237.33 2530.86,-226.7 2551.1,-217.23"/>
<polygon fill="#999999" stroke="#999999" points="2552.21,-219.41 2557.48,-214.2 2550.11,-214.98 2552.21,-219.41"/>
<text text-anchor="middle" x="2463.5" y="-254.6" font-family="Times-Roman" font-size="8.00">about</text>
</g>
<!-- L4YAML.Proofs.ScannerCorrectness.ScanHelpers.scanPlainScalar_preserves_prefix&#45;&gt;L4YAML.Proofs.ScannerCorrectness.ScanHelpers.collectPlainScalarLoop_preserves_tokens -->
<g id="edge8" class="edge">
<title>L4YAML.Proofs.ScannerCorrectness.ScanHelpers.scanPlainScalar_preserves_prefix&#45;&gt;L4YAML.Proofs.ScannerCorrectness.ScanHelpers.collectPlainScalarLoop_preserves_tokens</title>
<path fill="none" stroke="#28a745" stroke-width="2" d="M2093,-278.66C2093,-261.95 2093,-238.71 2093,-221.29"/>
<polygon fill="#28a745" stroke="#28a745" stroke-width="2" points="2095.45,-221.22 2093,-214.22 2090.55,-221.22 2095.45,-221.22"/>
<text text-anchor="middle" x="2103" y="-254.6" font-family="Times-Roman" font-size="8.00">uses</text>
</g>
<!-- L4YAML.Proofs.ScannerCorrectness.ScanHelpers.emitAt_chain_preserves_prefix -->
<g id="node11" class="node">
<title>L4YAML.Proofs.ScannerCorrectness.ScanHelpers.emitAt_chain_preserves_prefix</title>
<g id="a_node11"><a xlink:href="../../../api/L4YAML/Proofs/ScannerCorrectness.html#L4YAML.Proofs.ScannerCorrectness.ScanHelpers.emitAt_chain_preserves_prefix" xlink:title="ScannerCorrectness.ScanHelpers.emitAt_chain_preserves_prefix" target="_blank">
<ellipse fill="#d4edda" stroke="#28a745" cx="1691" cy="-196" rx="178.23" ry="18"/>
<text text-anchor="middle" x="1691" y="-193.5" font-family="Helvetica" font-size="10.00">ScannerCorrectness.ScanHelpers.emitAt_chain_preserves_prefix</text>
</a>
</g>
</g>
<!-- L4YAML.Proofs.ScannerCorrectness.ScanHelpers.scanPlainScalar_preserves_prefix&#45;&gt;L4YAML.Proofs.ScannerCorrectness.ScanHelpers.emitAt_chain_preserves_prefix -->
<g id="edge3" class="edge">
<title>L4YAML.Proofs.ScannerCorrectness.ScanHelpers.scanPlainScalar_preserves_prefix&#45;&gt;L4YAML.Proofs.ScannerCorrectness.ScanHelpers.emitAt_chain_preserves_prefix</title>
<path fill="none" stroke="#28a745" stroke-width="2" d="M2010.68,-278.91C1936.84,-259.99 1829.7,-232.54 1760.19,-214.73"/>
<polygon fill="#28a745" stroke="#28a745" stroke-width="2" points="1760.55,-212.29 1753.16,-212.93 1759.34,-217.04 1760.55,-212.29"/>
<text text-anchor="middle" x="1949" y="-254.6" font-family="Times-Roman" font-size="8.00">uses</text>
</g>
<!-- L4YAML.Proofs.ScannerCorrectness.consumeNewline_preserves_tokens&#45;&gt;L4YAML.Scanner.ScannerState -->
<g id="edge26" class="edge">
<title>L4YAML.Proofs.ScannerCorrectness.consumeNewline_preserves_tokens&#45;&gt;L4YAML.Scanner.ScannerState</title>
<path fill="none" stroke="#999999" stroke-dasharray="1,5" d="M1497.26,-99.76C1523.39,-95.76 1552.33,-91.76 1579,-89 1927.17,-53 2349.57,-39.64 2486.68,-36.07"/>
<polygon fill="#999999" stroke="#999999" points="2486.83,-38.52 2493.77,-35.89 2486.71,-33.62 2486.83,-38.52"/>
<text text-anchor="middle" x="1799.5" y="-72.6" font-family="Times-Roman" font-size="8.00">about</text>
</g>
<!-- L4YAML.Proofs.ScannerCorrectness.ScanHelpers.emitAt_chain_preserves_prefix&#45;&gt;L4YAML.Scanner.ScannerState.tokens -->
<g id="edge4" class="edge">
<title>L4YAML.Proofs.ScannerCorrectness.ScanHelpers.emitAt_chain_preserves_prefix&#45;&gt;L4YAML.Scanner.ScannerState.tokens</title>
<path fill="none" stroke="#999999" stroke-dasharray="1,5" d="M1814.41,-182.99C1835.61,-181.16 1857.43,-179.41 1878,-178 2052,-166.1 2096.93,-181.54 2270,-160 2289.81,-157.53 2294.28,-154.07 2314,-151 2388.2,-139.46 2408.11,-146.4 2482,-133 2483.78,-132.68 2485.59,-132.33 2487.41,-131.97"/>
<polygon fill="#999999" stroke="#999999" points="2488.13,-134.32 2494.47,-130.48 2487.12,-129.52 2488.13,-134.32"/>
<text text-anchor="middle" x="2326.5" y="-153.6" font-family="Times-Roman" font-size="8.00">about</text>
</g>
<!-- L4YAML.Proofs.ScannerCorrectness.ScanHelpers.emitAt_preserves_tokens_at._proof_1 -->
<g id="node17" class="node">
<title>L4YAML.Proofs.ScannerCorrectness.ScanHelpers.emitAt_preserves_tokens_at._proof_1</title>
<g id="a_node17"><a xlink:href="../../../api/L4YAML/Proofs/ScannerCorrectness.html#L4YAML.Proofs.ScannerCorrectness.ScanHelpers.emitAt_preserves_tokens_at._proof_1" xlink:title="ScannerCorrectness.ScanHelpers.emitAt_preserves_tokens_at._proof_1" target="_blank">
<ellipse fill="#d4edda" stroke="#28a745" cx="211" cy="-115" rx="195.37" ry="18"/>
<text text-anchor="middle" x="211" y="-112.5" font-family="Helvetica" font-size="10.00">ScannerCorrectness.ScanHelpers.emitAt_preserves_tokens_at._proof_1</text>
</a>
</g>
</g>
<!-- L4YAML.Proofs.ScannerCorrectness.ScanHelpers.emitAt_chain_preserves_prefix&#45;&gt;L4YAML.Proofs.ScannerCorrectness.ScanHelpers.emitAt_preserves_tokens_at._proof_1 -->
<g id="edge6" class="edge">
<title>L4YAML.Proofs.ScannerCorrectness.ScanHelpers.emitAt_chain_preserves_prefix&#45;&gt;L4YAML.Proofs.ScannerCorrectness.ScanHelpers.emitAt_preserves_tokens_at._proof_1</title>
<path fill="none" stroke="#28a745" stroke-width="2" d="M1527.24,-188.86C1284.31,-179.33 814.19,-159.32 415,-133 395.25,-131.7 374.44,-130.16 353.97,-128.55"/>
<polygon fill="#28a745" stroke="#28a745" stroke-width="2" points="353.92,-126.08 346.75,-127.97 353.53,-130.97 353.92,-126.08"/>
<text text-anchor="middle" x="880" y="-153.6" font-family="Times-Roman" font-size="8.00">uses</text>
</g>
<!-- L4YAML.Scanner.collectPlainScalarLoop.eq_def&#45;&gt;L4YAML.ScanError -->
<g id="edge31" class="edge">
<title>L4YAML.Scanner.collectPlainScalarLoop.eq_def&#45;&gt;L4YAML.ScanError</title>
<path fill="none" stroke="#999999" stroke-dasharray="1,5" d="M2419.55,-98.66C2444.57,-88.83 2478.74,-76.69 2510,-70 2598.57,-51.03 2623.63,-66.73 2713,-52 2723.83,-50.21 2735.46,-47.66 2746.08,-45.06"/>
<polygon fill="#999999" stroke="#999999" points="2746.69,-47.44 2752.88,-43.36 2745.5,-42.68 2746.69,-47.44"/>
<text text-anchor="middle" x="2522.5" y="-72.6" font-family="Times-Roman" font-size="8.00">about</text>
</g>
<!-- L4YAML.Scanner.collectPlainScalarLoop.eq_def&#45;&gt;L4YAML.Scanner.PlainScalarResult -->
<g id="edge18" class="edge">
<title>L4YAML.Scanner.collectPlainScalarLoop.eq_def&#45;&gt;L4YAML.Scanner.PlainScalarResult</title>
<path fill="none" stroke="#999999" stroke-dasharray="1,5" d="M2393.85,-96.97C2400.93,-87.38 2411.06,-76.13 2423,-70 2485.1,-38.15 2510.15,-63.45 2579,-52 2586.64,-50.73 2594.66,-49.2 2602.54,-47.59"/>
<polygon fill="#999999" stroke="#999999" points="2603.36,-49.93 2609.71,-46.1 2602.36,-45.13 2603.36,-49.93"/>
<text text-anchor="middle" x="2435.5" y="-72.6" font-family="Times-Roman" font-size="8.00">about</text>
</g>
<!-- L4YAML.Proofs.ScannerCorrectness.ScanHelpers.collectPlainScalar_terminates?_state&#45;&gt;L4YAML.Scanner.ScannerState -->
<g id="edge13" class="edge">
<title>L4YAML.Proofs.ScannerCorrectness.ScanHelpers.collectPlainScalar_terminates?_state&#45;&gt;L4YAML.Scanner.ScannerState</title>
<path fill="none" stroke="#999999" stroke-dasharray="1,5" d="M2120.84,-97.23C2143.27,-87.73 2172.76,-76.49 2200,-70 2300.57,-46.05 2422.18,-38.48 2486.68,-36.1"/>
<polygon fill="#999999" stroke="#999999" points="2486.97,-38.54 2493.88,-35.84 2486.79,-33.64 2486.97,-38.54"/>
<text text-anchor="middle" x="2212.5" y="-72.6" font-family="Times-Roman" font-size="8.00">about</text>
</g>
<!-- L4YAML.Proofs.ScannerCorrectness.ScanHelpers.collectPlainScalar_terminates?_state&#45;&gt;L4YAML.Scanner.PlainScalarResult -->
<g id="edge19" class="edge">
<title>L4YAML.Proofs.ScannerCorrectness.ScanHelpers.collectPlainScalar_terminates?_state&#45;&gt;L4YAML.Scanner.PlainScalarResult</title>
<path fill="none" stroke="#999999" stroke-dasharray="1,5" d="M2175.78,-99.1C2234.61,-89.89 2312.68,-78.28 2382,-70 2469.3,-59.57 2492.1,-65.39 2579,-52 2586.66,-50.82 2594.69,-49.35 2602.56,-47.76"/>
<polygon fill="#999999" stroke="#999999" points="2603.38,-50.09 2609.74,-46.28 2602.39,-45.3 2603.38,-50.09"/>
<text text-anchor="middle" x="2394.5" y="-72.6" font-family="Times-Roman" font-size="8.00">about</text>
</g>
<!-- L4YAML.Proofs.ScannerCorrectness.ScanHelpers.skipBlankLinesLoop_preserves_tokens&#45;&gt;L4YAML.Scanner.ScannerState -->
<g id="edge28" class="edge">
<title>L4YAML.Proofs.ScannerCorrectness.ScanHelpers.skipBlankLinesLoop_preserves_tokens&#45;&gt;L4YAML.Scanner.ScannerState</title>
<path fill="none" stroke="#999999" stroke-dasharray="1,5" d="M1144.66,-99.73C1177.41,-95.73 1213.65,-91.73 1247,-89 1731.34,-49.3 2320.9,-38.07 2486.71,-35.6"/>
<polygon fill="#999999" stroke="#999999" points="2486.86,-38.05 2493.83,-35.5 2486.79,-33.15 2486.86,-38.05"/>
<text text-anchor="middle" x="1504.5" y="-72.6" font-family="Times-Roman" font-size="8.00">about</text>
</g>
<!-- L4YAML.Proofs.ScannerCorrectness.skipSpaces_preserves_tokens&#45;&gt;L4YAML.Scanner.ScannerState -->
<g id="edge24" class="edge">
<title>L4YAML.Proofs.ScannerCorrectness.skipSpaces_preserves_tokens&#45;&gt;L4YAML.Scanner.ScannerState</title>
<path fill="none" stroke="#999999" stroke-dasharray="1,5" d="M1807.81,-99.88C1831.27,-95.95 1857.14,-91.96 1881,-89 2107.64,-60.89 2380.54,-43.59 2486.68,-37.49"/>
<polygon fill="#999999" stroke="#999999" points="2486.88,-39.93 2493.73,-37.08 2486.6,-35.04 2486.88,-39.93"/>
<text text-anchor="middle" x="2053.5" y="-72.6" font-family="Times-Roman" font-size="8.00">about</text>
</g>
<!-- L4YAML.Proofs.ScannerCorrectness.ScanHelpers.foldQuotedNewlines_preserves_tokens&#45;&gt;L4YAML.Scanner.ScannerState -->
<g id="edge11" class="edge">
<title>L4YAML.Proofs.ScannerCorrectness.ScanHelpers.foldQuotedNewlines_preserves_tokens&#45;&gt;L4YAML.Scanner.ScannerState</title>
<path fill="none" stroke="#999999" stroke-dasharray="1,5" d="M727.85,-99.67C760.8,-95.63 797.37,-91.62 831,-89 1487.5,-37.78 2290.15,-34.82 2486.9,-34.91"/>
<polygon fill="#999999" stroke="#999999" points="2486.91,-37.36 2493.91,-34.91 2486.91,-32.46 2486.91,-37.36"/>
<text text-anchor="middle" x="1120.5" y="-72.6" font-family="Times-Roman" font-size="8.00">about</text>
</g>
<!-- L4YAML.Proofs.ScannerCorrectness.ScanHelpers.emitAt_preserves_tokens_at._proof_1&#45;&gt;L4YAML.Scanner.ScannerState -->
<g id="edge7" class="edge">
<title>L4YAML.Proofs.ScannerCorrectness.ScanHelpers.emitAt_preserves_tokens_at._proof_1&#45;&gt;L4YAML.Scanner.ScannerState</title>
<path fill="none" stroke="#999999" stroke-dasharray="1,5" d="M313.29,-99.66C345.75,-95.6 381.83,-91.58 415,-89 668.15,-69.32 732.18,-77.1 986,-70 1579.22,-53.42 2300.64,-39.38 2486.58,-35.85"/>
<polygon fill="#999999" stroke="#999999" points="2486.8,-38.3 2493.75,-35.72 2486.7,-33.4 2486.8,-38.3"/>
<text text-anchor="middle" x="998.5" y="-72.6" font-family="Times-Roman" font-size="8.00">about</text>
</g>
</g>
</svg>
