<?xml version="1.0" encoding="UTF-8" standalone="no"?>
<!DOCTYPE svg PUBLIC "-//W3C//DTD SVG 1.1//EN"
 "http://www.w3.org/Graphics/SVG/1.1/DTD/svg11.dtd">
<!-- Generated by graphviz version 2.44.0 (0)
 -->
<!-- Title: chain_collectCommentTextLoop.eq_def Pages: 1 -->
<svg width="601pt" height="513pt"
 viewBox="0.00 0.00 601.00 513.00" xmlns="http://www.w3.org/2000/svg" xmlns:xlink="http://www.w3.org/1999/xlink">
<g id="graph0" class="graph" transform="scale(1 1) rotate(0) translate(4 509)">
<title>chain_collectCommentTextLoop.eq_def</title>
<polygon fill="white" stroke="transparent" points="-4,4 -4,-509 597,-509 597,4 -4,4"/>
<text text-anchor="middle" x="296.5" y="-490.6" font-family="Helvetica Bold" font-size="13.00">Functorial Chains: collectCommentTextLoop.eq_def</text>
<text text-anchor="middle" x="296.5" y="-476.6" font-family="Helvetica Bold" font-size="13.00">(heuristic: used by 12 proofs)</text>
<g id="clust1" class="cluster">
<title>cluster_fns</title>
<polygon fill="none" stroke="#4a90d9" stroke-dasharray="5,2" points="8,-8 8,-352 235,-352 235,-8 8,-8"/>
<text text-anchor="middle" x="121.5" y="-337.6" font-family="Helvetica Bold" font-size="13.00" fill="#4a90d9">Functions (Call Chain)</text>
</g>
<g id="clust2" class="cluster">
<title>cluster_thms</title>
<polygon fill="none" stroke="#28a745" stroke-dasharray="5,2" points="243,-170 243,-461 495,-461 495,-170 243,-170"/>
<text text-anchor="middle" x="369" y="-446.6" font-family="Helvetica Bold" font-size="13.00" fill="#28a745">Theorems (Proof Chain)</text>
</g>
<!-- L4YAML.Scanner.ScannerState.advance -->
<g id="node1" class="node">
<title>L4YAML.Scanner.ScannerState.advance</title>
<g id="a_node1"><a xlink:href="../../../api/L4YAML/Scanner.html#L4YAML.Scanner.ScannerState.advance" xlink:title="ScannerState.advance" target="_blank">
<polygon fill="#dce9f7" stroke="#4a90d9" points="226.5,-133 111.5,-133 111.5,-97 226.5,-97 226.5,-133"/>
<text text-anchor="middle" x="169" y="-112.5" font-family="Helvetica" font-size="10.00">ScannerState.advance</text>
</a>
</g>
</g>
<!-- L4YAML.Scanner.ScannerState -->
<g id="node3" class="node">
<title>L4YAML.Scanner.ScannerState</title>
<g id="a_node3"><a xlink:href="../../../api/L4YAML/Scanner.html#L4YAML.Scanner.ScannerState" xlink:title="ScannerState" target="_blank">
<polygon fill="#dce9f7" stroke="#4a90d9" points="159,-52 83,-52 83,-16 159,-16 159,-52"/>
<text text-anchor="middle" x="121" y="-31.5" font-family="Helvetica" font-size="10.00">ScannerState</text>
</a>
</g>
</g>
<!-- L4YAML.Scanner.ScannerState.advance&#45;&gt;L4YAML.Scanner.ScannerState -->
<g id="edge14" class="edge">
<title>L4YAML.Scanner.ScannerState.advance&#45;&gt;L4YAML.Scanner.ScannerState</title>
<path fill="none" stroke="#4a90d9" stroke-width="2" d="M158.58,-96.86C151.73,-85.57 142.67,-70.66 135.16,-58.3"/>
<polygon fill="#4a90d9" stroke="#4a90d9" stroke-width="2" points="137.12,-56.82 131.39,-52.11 132.94,-59.36 137.12,-56.82"/>
<text text-anchor="middle" x="155.5" y="-72.6" font-family="Times-Roman" font-size="8.00">calls</text>
</g>
<!-- L4YAML.Scanner.ScannerState.peek? -->
<g id="node2" class="node">
<title>L4YAML.Scanner.ScannerState.peek?</title>
<g id="a_node2"><a xlink:href="../../../api/L4YAML/Scanner.html#L4YAML.Scanner.ScannerState.peek?" xlink:title="ScannerState.peek?" target="_blank">
<polygon fill="#dce9f7" stroke="#4a90d9" points="227,-268 123,-268 123,-232 227,-232 227,-268"/>
<text text-anchor="middle" x="175" y="-247.5" font-family="Helvetica" font-size="10.00">ScannerState.peek?</text>
</a>
</g>
</g>
<!-- L4YAML.Scanner.ScannerState.peek?&#45;&gt;L4YAML.Scanner.ScannerState -->
<g id="edge11" class="edge">
<title>L4YAML.Scanner.ScannerState.peek?&#45;&gt;L4YAML.Scanner.ScannerState</title>
<path fill="none" stroke="#4a90d9" stroke-width="2" d="M122.82,-233.42C121.19,-232.94 119.59,-232.47 118,-232 90.47,-223.9 73.23,-236.94 56,-214 44.26,-198.36 53.39,-189.38 56,-170 62.19,-124.01 60.96,-109.06 86,-70 88.81,-65.62 92.24,-61.36 95.85,-57.4"/>
<polygon fill="#4a90d9" stroke="#4a90d9" stroke-width="2" points="97.75,-58.96 100.84,-52.21 94.22,-55.56 97.75,-58.96"/>
<text text-anchor="middle" x="68.5" y="-153.6" font-family="Times-Roman" font-size="8.00">calls</text>
</g>
<!-- L4YAML.Scanner.collectCommentTextLoop._unary -->
<g id="node4" class="node">
<title>L4YAML.Scanner.collectCommentTextLoop._unary</title>
<g id="a_node4"><a xlink:href="../../../api/L4YAML/Scanner.html#L4YAML.Scanner.collectCommentTextLoop._unary" xlink:title="collectCommentTextLoop._unary" target="_blank">
<polygon fill="#dce9f7" stroke="#4a90d9" points="226.5,-214 65.5,-214 65.5,-178 226.5,-178 226.5,-214"/>
<text text-anchor="middle" x="146" y="-193.5" font-family="Helvetica" font-size="10.00">collectCommentTextLoop._unary</text>
</a>
</g>
</g>
<!-- L4YAML.Scanner.collectCommentTextLoop._unary&#45;&gt;L4YAML.Scanner.ScannerState.advance -->
<g id="edge8" class="edge">
<title>L4YAML.Scanner.collectCommentTextLoop._unary&#45;&gt;L4YAML.Scanner.ScannerState.advance</title>
<path fill="none" stroke="#4a90d9" stroke-width="2" d="M150.99,-177.86C154.22,-166.78 158.46,-152.21 162.02,-139.99"/>
<polygon fill="#4a90d9" stroke="#4a90d9" stroke-width="2" points="164.41,-140.51 164.02,-133.11 159.71,-139.14 164.41,-140.51"/>
<text text-anchor="middle" x="167.5" y="-153.6" font-family="Times-Roman" font-size="8.00">calls</text>
</g>
<!-- L4YAML.Scanner.collectCommentTextLoop._unary&#45;&gt;L4YAML.Scanner.ScannerState -->
<g id="edge5" class="edge">
<title>L4YAML.Scanner.collectCommentTextLoop._unary&#45;&gt;L4YAML.Scanner.ScannerState</title>
<path fill="none" stroke="#4a90d9" stroke-width="2" d="M125.49,-177.94C108.87,-163.6 87.51,-143.76 83,-133 72.33,-107.53 87.56,-77.92 101.79,-57.97"/>
<polygon fill="#4a90d9" stroke="#4a90d9" stroke-width="2" points="103.94,-59.19 106.15,-52.11 100.01,-56.27 103.94,-59.19"/>
<text text-anchor="middle" x="92.5" y="-113.1" font-family="Times-Roman" font-size="8.00">calls</text>
</g>
<!-- L4YAML.Scanner.collectCommentTextLoop -->
<g id="node5" class="node">
<title>L4YAML.Scanner.collectCommentTextLoop</title>
<g id="a_node5"><a xlink:href="../../../api/L4YAML/Scanner.html#L4YAML.Scanner.collectCommentTextLoop" xlink:title="collectCommentTextLoop" target="_blank">
<polygon fill="#dce9f7" stroke="#4a90d9" points="163,-322 35,-322 35,-286 163,-286 163,-322"/>
<text text-anchor="middle" x="99" y="-301.5" font-family="Helvetica" font-size="10.00">collectCommentTextLoop</text>
</a>
</g>
</g>
<!-- L4YAML.Scanner.collectCommentTextLoop&#45;&gt;L4YAML.Scanner.ScannerState -->
<g id="edge15" class="edge">
<title>L4YAML.Scanner.collectCommentTextLoop&#45;&gt;L4YAML.Scanner.ScannerState</title>
<path fill="none" stroke="#4a90d9" stroke-width="2" d="M84.26,-285.96C62.37,-258.61 24.87,-202.7 35,-151 42.8,-111.2 48.82,-99.16 77,-70 81.48,-65.36 86.58,-60.78 91.68,-56.55"/>
<polygon fill="#4a90d9" stroke="#4a90d9" stroke-width="2" points="93.29,-58.4 97.19,-52.09 90.21,-54.59 93.29,-58.4"/>
<text text-anchor="middle" x="44.5" y="-153.6" font-family="Times-Roman" font-size="8.00">calls</text>
</g>
<!-- L4YAML.Scanner.collectCommentTextLoop&#45;&gt;L4YAML.Scanner.collectCommentTextLoop._unary -->
<g id="edge2" class="edge">
<title>L4YAML.Scanner.collectCommentTextLoop&#45;&gt;L4YAML.Scanner.collectCommentTextLoop._unary</title>
<path fill="none" stroke="#4a90d9" stroke-width="2" d="M93.3,-285.89C89.35,-270.81 86.2,-248.71 95,-232 97.64,-226.99 101.35,-222.56 105.59,-218.68"/>
<polygon fill="#4a90d9" stroke="#4a90d9" stroke-width="2" points="107.35,-220.4 111.19,-214.06 104.23,-216.62 107.35,-220.4"/>
<text text-anchor="middle" x="104.5" y="-248.1" font-family="Times-Roman" font-size="8.00">calls</text>
</g>
<!-- L4YAML.Scanner.collectCommentTextLoop._unary._proof_1 -->
<g id="node6" class="node">
<title>L4YAML.Scanner.collectCommentTextLoop._unary._proof_1</title>
<g id="a_node6"><a xlink:href="../../../api/L4YAML/Scanner.html#L4YAML.Scanner.collectCommentTextLoop._unary._proof_1" xlink:title="collectCommentTextLoop._unary._proof_1" target="_blank">
<ellipse fill="#d4edda" stroke="#28a745" cx="369" cy="-196" rx="117.97" ry="18"/>
<text text-anchor="middle" x="369" y="-193.5" font-family="Helvetica" font-size="10.00">collectCommentTextLoop._unary._proof_1</text>
</a>
</g>
</g>
<!-- L4YAML.Scanner.collectCommentTextLoop._unary._proof_1&#45;&gt;L4YAML.Scanner.ScannerState.advance -->
<g id="edge9" class="edge">
<title>L4YAML.Scanner.collectCommentTextLoop._unary._proof_1&#45;&gt;L4YAML.Scanner.ScannerState.advance</title>
<path fill="none" stroke="#999999" stroke-dasharray="1,5" d="M326.78,-179.18C311.12,-173.24 293.22,-166.39 277,-160 257.29,-152.24 235.64,-143.47 216.94,-135.81"/>
<polygon fill="#999999" stroke="#999999" points="217.6,-133.43 210.19,-133.05 215.74,-137.97 217.6,-133.43"/>
<text text-anchor="middle" x="289.5" y="-153.6" font-family="Times-Roman" font-size="8.00">about</text>
</g>
<!-- L4YAML.Scanner.collectCommentTextLoop._unary._proof_1&#45;&gt;L4YAML.Scanner.ScannerState -->
<g id="edge7" class="edge">
<title>L4YAML.Scanner.collectCommentTextLoop._unary._proof_1&#45;&gt;L4YAML.Scanner.ScannerState</title>
<path fill="none" stroke="#999999" stroke-dasharray="1,5" d="M348,-178.09C322.32,-157.75 277.19,-123.1 236,-97 212.2,-81.92 184.41,-66.87 162.12,-55.38"/>
<polygon fill="#999999" stroke="#999999" points="163.03,-53.1 155.68,-52.08 160.8,-57.46 163.03,-53.1"/>
<text text-anchor="middle" x="300.5" y="-113.1" font-family="Times-Roman" font-size="8.00">about</text>
</g>
<!-- L4YAML.Scanner.collectCommentTextLoop._unary.eq_def -->
<g id="node7" class="node">
<title>L4YAML.Scanner.collectCommentTextLoop._unary.eq_def</title>
<g id="a_node7"><a xlink:href="../../../api/L4YAML/Scanner.html#L4YAML.Scanner.collectCommentTextLoop._unary.eq_def" xlink:title="collectCommentTextLoop._unary.eq_def" target="_blank">
<ellipse fill="#d4edda" stroke="#28a745" cx="366" cy="-304" rx="113.05" ry="18"/>
<text text-anchor="middle" x="366" y="-301.5" font-family="Helvetica" font-size="10.00">collectCommentTextLoop._unary.eq_def</text>
</a>
</g>
</g>
<!-- L4YAML.Scanner.collectCommentTextLoop._unary.eq_def&#45;&gt;L4YAML.Scanner.ScannerState -->
<g id="edge12" class="edge">
<title>L4YAML.Scanner.collectCommentTextLoop._unary.eq_def&#45;&gt;L4YAML.Scanner.ScannerState</title>
<path fill="none" stroke="#999999" stroke-dasharray="1,5" d="M403.37,-286.96C452.26,-263.62 528.15,-217.83 496,-170 422.09,-60.04 248.96,-39.05 166.38,-35.45"/>
<polygon fill="#999999" stroke="#999999" points="166.25,-32.99 159.16,-35.17 166.06,-37.89 166.25,-32.99"/>
<text text-anchor="middle" x="498.5" y="-153.6" font-family="Times-Roman" font-size="8.00">about</text>
</g>
<!-- L4YAML.Scanner.collectCommentTextLoop._unary.eq_def&#45;&gt;L4YAML.Scanner.collectCommentTextLoop._unary -->
<g id="edge4" class="edge">
<title>L4YAML.Scanner.collectCommentTextLoop._unary.eq_def&#45;&gt;L4YAML.Scanner.collectCommentTextLoop._unary</title>
<path fill="none" stroke="#999999" stroke-dasharray="1,5" d="M338.14,-286.42C312.17,-271.29 272.14,-248.81 236,-232 224.46,-226.63 211.84,-221.37 199.81,-216.62"/>
<polygon fill="#999999" stroke="#999999" points="200.6,-214.3 193.19,-214.04 198.82,-218.86 200.6,-214.3"/>
<text text-anchor="middle" x="316.5" y="-248.1" font-family="Times-Roman" font-size="8.00">about</text>
</g>
<!-- L4YAML.Scanner.collectCommentTextLoop._unary.eq_def&#45;&gt;L4YAML.Scanner.collectCommentTextLoop._unary._proof_1 -->
<g id="edge6" class="edge">
<title>L4YAML.Scanner.collectCommentTextLoop._unary.eq_def&#45;&gt;L4YAML.Scanner.collectCommentTextLoop._unary._proof_1</title>
<path fill="none" stroke="#28a745" stroke-width="2" d="M366.48,-285.97C366.98,-268.53 367.75,-241.26 368.31,-221.51"/>
<polygon fill="#28a745" stroke="#28a745" stroke-width="2" points="370.76,-221.41 368.51,-214.34 365.86,-221.27 370.76,-221.41"/>
<text text-anchor="middle" x="377" y="-248.1" font-family="Times-Roman" font-size="8.00">uses</text>
</g>
<!-- L4YAML.Scanner.collectCommentTextLoop.eq_def -->
<g id="node8" class="node">
<title>L4YAML.Scanner.collectCommentTextLoop.eq_def</title>
<g id="a_node8"><a xlink:href="../../../api/L4YAML/Scanner.html#L4YAML.Scanner.collectCommentTextLoop.eq_def" xlink:title="collectCommentTextLoop.eq_def" target="_blank">
<polygon fill="#fff3cd" stroke="#d4a017" points="460.89,-401.54 460.89,-416.46 401.21,-427 316.79,-427 257.11,-416.46 257.11,-401.54 316.79,-391 401.21,-391 460.89,-401.54"/>
<polygon fill="none" stroke="#d4a017" points="464.89,-398.19 464.89,-419.81 401.56,-431 316.44,-431 253.11,-419.81 253.11,-398.19 316.44,-387 401.56,-387 464.89,-398.19"/>
<text text-anchor="middle" x="359" y="-406.5" font-family="Helvetica" font-size="10.00">collectCommentTextLoop.eq_def</text>
</a>
</g>
</g>
<!-- L4YAML.Scanner.collectCommentTextLoop.eq_def&#45;&gt;L4YAML.Scanner.ScannerState.advance -->
<g id="edge13" class="edge">
<title>L4YAML.Scanner.collectCommentTextLoop.eq_def&#45;&gt;L4YAML.Scanner.ScannerState.advance</title>
<path fill="none" stroke="#999999" stroke-dasharray="1,5" d="M422.35,-390.65C445.16,-381.96 469.74,-369.47 488,-352 554.77,-288.14 604.4,-218.2 541,-151 518.55,-127.21 289.96,-137.38 233.81,-132.86"/>
<polygon fill="#999999" stroke="#999999" points="233.81,-130.4 226.57,-132.04 233.26,-135.26 233.81,-130.4"/>
<text text-anchor="middle" x="580.5" y="-248.1" font-family="Times-Roman" font-size="8.00">about</text>
</g>
<!-- L4YAML.Scanner.collectCommentTextLoop.eq_def&#45;&gt;L4YAML.Scanner.ScannerState.peek? -->
<g id="edge10" class="edge">
<title>L4YAML.Scanner.collectCommentTextLoop.eq_def&#45;&gt;L4YAML.Scanner.ScannerState.peek?</title>
<path fill="none" stroke="#999999" stroke-dasharray="1,5" d="M305.46,-388.83C284.81,-379.75 261.9,-367.46 244,-352 218.55,-330.02 198.18,-296.58 186.35,-274.27"/>
<polygon fill="#999999" stroke="#999999" points="188.5,-273.1 183.09,-268.02 184.15,-275.36 188.5,-273.1"/>
<text text-anchor="middle" x="278.5" y="-362.6" font-family="Times-Roman" font-size="8.00">about</text>
</g>
<!-- L4YAML.Scanner.collectCommentTextLoop.eq_def&#45;&gt;L4YAML.Scanner.collectCommentTextLoop -->
<g id="edge1" class="edge">
<title>L4YAML.Scanner.collectCommentTextLoop.eq_def&#45;&gt;L4YAML.Scanner.collectCommentTextLoop</title>
<path fill="none" stroke="#999999" stroke-dasharray="1,5" d="M253.02,-398.9C222.35,-393.18 189.7,-383.93 162,-369 143.63,-359.1 127.24,-342.05 115.79,-328.04"/>
<polygon fill="#999999" stroke="#999999" points="117.46,-326.21 111.19,-322.25 113.63,-329.25 117.46,-326.21"/>
<text text-anchor="middle" x="174.5" y="-362.6" font-family="Times-Roman" font-size="8.00">about</text>
</g>
<!-- L4YAML.Scanner.collectCommentTextLoop.eq_def&#45;&gt;L4YAML.Scanner.collectCommentTextLoop._unary.eq_def -->
<g id="edge3" class="edge">
<title>L4YAML.Scanner.collectCommentTextLoop.eq_def&#45;&gt;L4YAML.Scanner.collectCommentTextLoop._unary.eq_def</title>
<path fill="none" stroke="#28a745" stroke-width="2" d="M360.45,-386.66C361.59,-369.95 363.17,-346.71 364.35,-329.29"/>
<polygon fill="#28a745" stroke="#28a745" stroke-width="2" points="366.8,-329.37 364.83,-322.22 361.91,-329.04 366.8,-329.37"/>
<text text-anchor="middle" x="372" y="-362.6" font-family="Times-Roman" font-size="8.00">uses</text>
</g>
</g>
</svg>
