<?xml version="1.0" encoding="UTF-8" standalone="no"?>
<!DOCTYPE svg PUBLIC "-//W3C//DTD SVG 1.1//EN"
 "http://www.w3.org/Graphics/SVG/1.1/DTD/svg11.dtd">
<!-- Generated by graphviz version 2.44.0 (0)
 -->
<!-- Title: chain_ScannerBound.BoundInv.input_eq Pages: 1 -->
<svg width="367pt" height="98pt"
 viewBox="0.00 0.00 367.00 97.92" xmlns="http://www.w3.org/2000/svg" xmlns:xlink="http://www.w3.org/1999/xlink">
<g id="graph0" class="graph" transform="scale(1 1) rotate(0) translate(4 93.92)">
<title>chain_ScannerBound.BoundInv.input_eq</title>
<polygon fill="white" stroke="transparent" points="-4,4 -4,-93.92 363,-93.92 363,4 -4,4"/>
<text text-anchor="middle" x="179.5" y="-75.52" font-family="Helvetica Bold" font-size="13.00">Functorial Chains: ScannerBound.BoundInv.input_eq</text>
<text text-anchor="middle" x="179.5" y="-61.52" font-family="Helvetica Bold" font-size="13.00">(heuristic: used by 17 proofs)</text>
<!-- L4YAML.Proofs.ScannerBound.BoundInv.input_eq -->
<g id="node1" class="node">
<title>L4YAML.Proofs.ScannerBound.BoundInv.input_eq</title>
<polygon fill="#fff3cd" stroke="black" points="305.04,-17.46 305.04,-36.46 231.5,-49.89 127.5,-49.89 53.96,-36.46 53.96,-17.46 127.5,-4.03 231.5,-4.03 305.04,-17.46"/>
<polygon fill="none" stroke="black" points="309.04,-14.13 309.04,-39.79 231.86,-53.88 127.14,-53.88 49.96,-39.79 49.96,-14.13 127.14,-0.04 231.86,-0.04 309.04,-14.13"/>
<text text-anchor="middle" x="179.5" y="-29.96" font-family="Helvetica" font-size="10.00">ScannerBound.BoundInv.input_eq</text>
<text text-anchor="middle" x="179.5" y="-18.96" font-family="Helvetica" font-size="10.00">(no functorial chains found)</text>
</g>
</g>
</svg>
