<?xml version="1.0" encoding="UTF-8" standalone="no"?>
<!DOCTYPE svg PUBLIC "-//W3C//DTD SVG 1.1//EN"
 "http://www.w3.org/Graphics/SVG/1.1/DTD/svg11.dtd">
<!-- Generated by graphviz version 2.44.0 (0)
 -->
<!-- Title: chain_CouplingBridge.not_isLineBreak_not_newline Pages: 1 -->
<svg width="439pt" height="98pt"
 viewBox="0.00 0.00 439.00 97.92" xmlns="http://www.w3.org/2000/svg" xmlns:xlink="http://www.w3.org/1999/xlink">
<g id="graph0" class="graph" transform="scale(1 1) rotate(0) translate(4 93.92)">
<title>chain_CouplingBridge.not_isLineBreak_not_newline</title>
<polygon fill="white" stroke="transparent" points="-4,4 -4,-93.92 435,-93.92 435,4 -4,4"/>
<text text-anchor="middle" x="215.5" y="-75.52" font-family="Helvetica Bold" font-size="13.00">Functorial Chains: CouplingBridge.not_isLineBreak_not_newline</text>
<text text-anchor="middle" x="215.5" y="-61.52" font-family="Helvetica Bold" font-size="13.00">(heuristic: used by 11 proofs)</text>
<!-- L4YAML.Proofs.CouplingBridge.not_isLineBreak_not_newline -->
<g id="node1" class="node">
<title>L4YAML.Proofs.CouplingBridge.not_isLineBreak_not_newline</title>
<polygon fill="#fff3cd" stroke="black" points="377.52,-17.46 377.52,-36.46 282.61,-49.89 148.39,-49.89 53.48,-36.46 53.48,-17.46 148.39,-4.03 282.61,-4.03 377.52,-17.46"/>
<polygon fill="none" stroke="black" points="381.52,-14 381.52,-39.93 282.89,-53.88 148.11,-53.88 49.48,-39.93 49.48,-14 148.11,-0.04 282.89,-0.04 381.52,-14"/>
<text text-anchor="middle" x="215.5" y="-29.96" font-family="Helvetica" font-size="10.00">CouplingBridge.not_isLineBreak_not_newline</text>
<text text-anchor="middle" x="215.5" y="-18.96" font-family="Helvetica" font-size="10.00">(no functorial chains found)</text>
</g>
</g>
</svg>
