<?xml version="1.0" encoding="UTF-8" standalone="no"?>
<!DOCTYPE svg PUBLIC "-//W3C//DTD SVG 1.1//EN"
 "http://www.w3.org/Graphics/SVG/1.1/DTD/svg11.dtd">
<!-- Generated by graphviz version 2.44.0 (0)
 -->
<!-- Title: chain_ScannerCorrectness.advanceN_preserves_tokens Pages: 1 -->
<svg width="998pt" height="432pt"
 viewBox="0.00 0.00 997.91 432.00" xmlns="http://www.w3.org/2000/svg" xmlns:xlink="http://www.w3.org/1999/xlink">
<g id="graph0" class="graph" transform="scale(1 1) rotate(0) translate(4 428)">
<title>chain_ScannerCorrectness.advanceN_preserves_tokens</title>
<polygon fill="white" stroke="transparent" points="-4,4 -4,-428 993.91,-428 993.91,4 -4,4"/>
<text text-anchor="middle" x="494.96" y="-409.6" font-family="Helvetica Bold" font-size="13.00">Functorial Chains: ScannerCorrectness.advanceN_preserves_tokens</text>
<text text-anchor="middle" x="494.96" y="-395.6" font-family="Helvetica Bold" font-size="13.00">(heuristic: used by 8 proofs)</text>
<g id="clust1" class="cluster">
<title>cluster_fns</title>
<polygon fill="none" stroke="#4a90d9" stroke-dasharray="5,2" points="561.91,-8 561.91,-271 981.91,-271 981.91,-8 561.91,-8"/>
<text text-anchor="middle" x="771.91" y="-256.6" font-family="Helvetica Bold" font-size="13.00" fill="#4a90d9">Functions (Call Chain)</text>
</g>
<g id="clust2" class="cluster">
<title>cluster_thms</title>
<polygon fill="none" stroke="#28a745" stroke-dasharray="5,2" points="44.91,-89 44.91,-380 553.91,-380 553.91,-89 44.91,-89"/>
<text text-anchor="middle" x="299.41" y="-365.6" font-family="Helvetica Bold" font-size="13.00" fill="#28a745">Theorems (Proof Chain)</text>
</g>
<!-- L4YAML.Scanner.ScannerState.advanceN -->
<g id="node1" class="node">
<title>L4YAML.Scanner.ScannerState.advanceN</title>
<polygon fill="#dce9f7" stroke="#4a90d9" points="702.91,-241 580.91,-241 580.91,-205 702.91,-205 702.91,-241"/>
<text text-anchor="middle" x="641.91" y="-220.5" font-family="Helvetica" font-size="10.00">ScannerState.advanceN</text>
</g>
<!-- L4YAML.Scanner.ScannerState -->
<g id="node3" class="node">
<title>L4YAML.Scanner.ScannerState</title>
<polygon fill="#dce9f7" stroke="#4a90d9" points="779.91,-52 703.91,-52 703.91,-16 779.91,-16 779.91,-52"/>
<text text-anchor="middle" x="741.91" y="-31.5" font-family="Helvetica" font-size="10.00">ScannerState</text>
</g>
<!-- L4YAML.Scanner.ScannerState.advanceN&#45;&gt;L4YAML.Scanner.ScannerState -->
<g id="edge15" class="edge">
<title>L4YAML.Scanner.ScannerState.advanceN&#45;&gt;L4YAML.Scanner.ScannerState</title>
<path fill="none" stroke="#4a90d9" stroke-width="2" d="M661.04,-204.81C678.92,-187.93 705.42,-160.75 722.91,-133 738.73,-107.91 746.18,-99.63 744.91,-70 744.76,-66.53 744.53,-62.87 744.26,-59.27"/>
<polygon fill="#4a90d9" stroke="#4a90d9" stroke-width="2" points="746.69,-58.85 743.67,-52.07 741.8,-59.25 746.69,-58.85"/>
<text text-anchor="middle" x="753.41" y="-113.1" font-family="Times-Roman" font-size="8.00">calls</text>
</g>
<!-- L4YAML.Scanner.ScannerState.advanceNLoop -->
<g id="node6" class="node">
<title>L4YAML.Scanner.ScannerState.advanceNLoop</title>
<polygon fill="#dce9f7" stroke="#4a90d9" points="713.41,-133 570.41,-133 570.41,-97 713.41,-97 713.41,-133"/>
<text text-anchor="middle" x="641.91" y="-112.5" font-family="Helvetica" font-size="10.00">ScannerState.advanceNLoop</text>
</g>
<!-- L4YAML.Scanner.ScannerState.advanceN&#45;&gt;L4YAML.Scanner.ScannerState.advanceNLoop -->
<g id="edge2" class="edge">
<title>L4YAML.Scanner.ScannerState.advanceN&#45;&gt;L4YAML.Scanner.ScannerState.advanceNLoop</title>
<path fill="none" stroke="#4a90d9" stroke-width="2" d="M641.91,-204.97C641.91,-187.53 641.91,-160.26 641.91,-140.51"/>
<polygon fill="#4a90d9" stroke="#4a90d9" stroke-width="2" points="644.36,-140.34 641.91,-133.34 639.46,-140.34 644.36,-140.34"/>
<text text-anchor="middle" x="651.41" y="-167.1" font-family="Times-Roman" font-size="8.00">calls</text>
</g>
<!-- L4YAML.Scanner.ScannerState.advance -->
<g id="node2" class="node">
<title>L4YAML.Scanner.ScannerState.advance</title>
<polygon fill="#dce9f7" stroke="#4a90d9" points="685.41,-52 570.41,-52 570.41,-16 685.41,-16 685.41,-52"/>
<text text-anchor="middle" x="627.91" y="-31.5" font-family="Helvetica" font-size="10.00">ScannerState.advance</text>
</g>
<!-- L4YAML.Scanner.ScannerState.peekAt?Loop.match_1 -->
<g id="node4" class="node">
<title>L4YAML.Scanner.ScannerState.peekAt?Loop.match_1</title>
<polygon fill="#dce9f7" stroke="#4a90d9" points="973.91,-52 797.91,-52 797.91,-16 973.91,-16 973.91,-52"/>
<text text-anchor="middle" x="885.91" y="-31.5" font-family="Helvetica" font-size="10.00">ScannerState.peekAt?Loop.match_1</text>
</g>
<!-- L4YAML.Scanner.ScannerState.tokens -->
<g id="node5" class="node">
<title>L4YAML.Scanner.ScannerState.tokens</title>
<polygon fill="#dce9f7" stroke="#4a90d9" points="863.41,-187 756.41,-187 756.41,-151 863.41,-151 863.41,-187"/>
<text text-anchor="middle" x="809.91" y="-166.5" font-family="Helvetica" font-size="10.00">ScannerState.tokens</text>
</g>
<!-- L4YAML.Scanner.ScannerState.tokens&#45;&gt;L4YAML.Scanner.ScannerState -->
<g id="edge18" class="edge">
<title>L4YAML.Scanner.ScannerState.tokens&#45;&gt;L4YAML.Scanner.ScannerState</title>
<path fill="none" stroke="#4a90d9" stroke-width="2" d="M802.38,-150.85C795.17,-134.71 783.81,-109.96 772.91,-89 767.65,-78.87 761.45,-67.91 755.98,-58.52"/>
<polygon fill="#4a90d9" stroke="#4a90d9" stroke-width="2" points="757.99,-57.11 752.34,-52.31 753.77,-59.58 757.99,-57.11"/>
<text text-anchor="middle" x="802.41" y="-113.1" font-family="Times-Roman" font-size="8.00">calls</text>
</g>
<!-- L4YAML.Scanner.ScannerState.advanceNLoop&#45;&gt;L4YAML.Scanner.ScannerState.advance -->
<g id="edge8" class="edge">
<title>L4YAML.Scanner.ScannerState.advanceNLoop&#45;&gt;L4YAML.Scanner.ScannerState.advance</title>
<path fill="none" stroke="#4a90d9" stroke-width="2" d="M636.95,-96.66C635.48,-91.06 633.98,-84.8 632.91,-79 631.75,-72.7 630.81,-65.83 630.08,-59.44"/>
<polygon fill="#4a90d9" stroke="#4a90d9" stroke-width="2" points="632.49,-58.92 629.31,-52.22 627.62,-59.44 632.49,-58.92"/>
<text text-anchor="middle" x="642.41" y="-72.6" font-family="Times-Roman" font-size="8.00">calls</text>
</g>
<!-- L4YAML.Scanner.ScannerState.advanceNLoop&#45;&gt;L4YAML.Scanner.ScannerState -->
<g id="edge10" class="edge">
<title>L4YAML.Scanner.ScannerState.advanceNLoop&#45;&gt;L4YAML.Scanner.ScannerState</title>
<path fill="none" stroke="#4a90d9" stroke-width="2" d="M654.85,-96.92C661.95,-88.22 671.26,-77.86 680.91,-70 687.15,-64.92 694.21,-60.14 701.26,-55.84"/>
<polygon fill="#4a90d9" stroke="#4a90d9" stroke-width="2" points="702.93,-57.7 707.71,-52.03 700.44,-53.48 702.93,-57.7"/>
<text text-anchor="middle" x="690.41" y="-72.6" font-family="Times-Roman" font-size="8.00">calls</text>
</g>
<!-- L4YAML.Scanner.ScannerState.advanceNLoop&#45;&gt;L4YAML.Scanner.ScannerState.peekAt?Loop.match_1 -->
<g id="edge5" class="edge">
<title>L4YAML.Scanner.ScannerState.advanceNLoop&#45;&gt;L4YAML.Scanner.ScannerState.peekAt?Loop.match_1</title>
<path fill="none" stroke="#4a90d9" stroke-width="2" d="M694.56,-96.96C733.36,-84.39 786.18,-67.29 826.5,-54.24"/>
<polygon fill="#4a90d9" stroke="#4a90d9" stroke-width="2" points="827.46,-56.5 833.36,-52.01 825.95,-51.84 827.46,-56.5"/>
<text text-anchor="middle" x="780.41" y="-72.6" font-family="Times-Roman" font-size="8.00">calls</text>
</g>
<!-- L4YAML.Proofs.ScannerCorrectness.advanceN_preserves_tokens -->
<g id="node7" class="node">
<title>L4YAML.Proofs.ScannerCorrectness.advanceN_preserves_tokens</title>
<polygon fill="#fff3cd" stroke="#d4a017" points="542.1,-320.54 542.1,-335.46 454.71,-346 331.12,-346 243.72,-335.46 243.72,-320.54 331.12,-310 454.71,-310 542.1,-320.54"/>
<polygon fill="none" stroke="#d4a017" points="546.11,-317 546.11,-339 454.95,-350 330.88,-350 239.72,-339 239.72,-317 330.88,-306 454.95,-306 546.11,-317"/>
<text text-anchor="middle" x="392.91" y="-325.5" font-family="Helvetica" font-size="10.00">ScannerCorrectness.advanceN_preserves_tokens</text>
</g>
<!-- L4YAML.Proofs.ScannerCorrectness.advanceN_preserves_tokens&#45;&gt;L4YAML.Scanner.ScannerState.advanceN -->
<g id="edge1" class="edge">
<title>L4YAML.Proofs.ScannerCorrectness.advanceN_preserves_tokens&#45;&gt;L4YAML.Scanner.ScannerState.advanceN</title>
<path fill="none" stroke="#999999" stroke-dasharray="1,5" d="M461.82,-306.72C491.82,-297.1 527.1,-284.71 557.91,-271 574.88,-263.45 592.94,-253.6 607.96,-244.87"/>
<polygon fill="#999999" stroke="#999999" points="609.4,-246.86 614.19,-241.2 606.92,-242.64 609.4,-246.86"/>
<text text-anchor="middle" x="549.41" y="-281.6" font-family="Times-Roman" font-size="8.00">about</text>
</g>
<!-- L4YAML.Proofs.ScannerCorrectness.advanceN_preserves_tokens&#45;&gt;L4YAML.Scanner.ScannerState.tokens -->
<g id="edge17" class="edge">
<title>L4YAML.Proofs.ScannerCorrectness.advanceN_preserves_tokens&#45;&gt;L4YAML.Scanner.ScannerState.tokens</title>
<path fill="none" stroke="#999999" stroke-dasharray="1,5" d="M546.13,-319.62C600.89,-312.05 661.48,-297.71 711.91,-271 747.14,-252.34 777.28,-216.43 794.5,-192.85"/>
<polygon fill="#999999" stroke="#999999" points="796.51,-194.25 798.59,-187.14 792.52,-191.4 796.51,-194.25"/>
<text text-anchor="middle" x="707.41" y="-281.6" font-family="Times-Roman" font-size="8.00">about</text>
</g>
<!-- L4YAML.Proofs.ScannerCorrectness.advanceNLoop_preserves_tokens -->
<g id="node9" class="node">
<title>L4YAML.Proofs.ScannerCorrectness.advanceNLoop_preserves_tokens</title>
<ellipse fill="#d4edda" stroke="#28a745" cx="392.91" cy="-223" rx="150.22" ry="18"/>
<text text-anchor="middle" x="392.91" y="-220.5" font-family="Helvetica" font-size="10.00">ScannerCorrectness.advanceNLoop_preserves_tokens</text>
</g>
<!-- L4YAML.Proofs.ScannerCorrectness.advanceN_preserves_tokens&#45;&gt;L4YAML.Proofs.ScannerCorrectness.advanceNLoop_preserves_tokens -->
<g id="edge3" class="edge">
<title>L4YAML.Proofs.ScannerCorrectness.advanceN_preserves_tokens&#45;&gt;L4YAML.Proofs.ScannerCorrectness.advanceNLoop_preserves_tokens</title>
<path fill="none" stroke="#28a745" stroke-width="2" d="M392.91,-305.66C392.91,-288.95 392.91,-265.71 392.91,-248.29"/>
<polygon fill="#28a745" stroke="#28a745" stroke-width="2" points="395.36,-248.22 392.91,-241.22 390.46,-248.22 395.36,-248.22"/>
<text text-anchor="middle" x="402.91" y="-281.6" font-family="Times-Roman" font-size="8.00">uses</text>
</g>
<!-- L4YAML.Proofs.ScannerCorrectness.advance_preserves_tokens -->
<g id="node8" class="node">
<title>L4YAML.Proofs.ScannerCorrectness.advance_preserves_tokens</title>
<ellipse fill="#d4edda" stroke="#28a745" cx="186.91" cy="-115" rx="133.75" ry="18"/>
<text text-anchor="middle" x="186.91" y="-112.5" font-family="Helvetica" font-size="10.00">ScannerCorrectness.advance_preserves_tokens</text>
</g>
<!-- L4YAML.Proofs.ScannerCorrectness.advance_preserves_tokens&#45;&gt;L4YAML.Scanner.ScannerState.advance -->
<g id="edge14" class="edge">
<title>L4YAML.Proofs.ScannerCorrectness.advance_preserves_tokens&#45;&gt;L4YAML.Scanner.ScannerState.advance</title>
<path fill="none" stroke="#999999" stroke-dasharray="1,5" d="M213.32,-97.2C229.81,-87.57 251.83,-76.19 272.91,-70 371.3,-41.11 490.91,-34.95 563.14,-34.2"/>
<polygon fill="#999999" stroke="#999999" points="563.43,-36.65 570.41,-34.14 563.39,-31.75 563.43,-36.65"/>
<text text-anchor="middle" x="285.41" y="-72.6" font-family="Times-Roman" font-size="8.00">about</text>
</g>
<!-- L4YAML.Proofs.ScannerCorrectness.advance_preserves_tokens&#45;&gt;L4YAML.Scanner.ScannerState -->
<g id="edge13" class="edge">
<title>L4YAML.Proofs.ScannerCorrectness.advance_preserves_tokens&#45;&gt;L4YAML.Scanner.ScannerState</title>
<path fill="none" stroke="#999999" stroke-dasharray="1,5" d="M255.49,-99.54C304.22,-89.78 371.32,-77.38 430.91,-70 547.63,-55.54 579.83,-76.24 694.91,-52 695.55,-51.87 696.18,-51.73 696.82,-51.58"/>
<polygon fill="#999999" stroke="#999999" points="697.53,-53.93 703.69,-49.81 696.3,-49.18 697.53,-53.93"/>
<text text-anchor="middle" x="443.41" y="-72.6" font-family="Times-Roman" font-size="8.00">about</text>
</g>
<!-- L4YAML.Proofs.ScannerCorrectness.advanceNLoop_preserves_tokens&#45;&gt;L4YAML.Scanner.ScannerState -->
<g id="edge16" class="edge">
<title>L4YAML.Proofs.ScannerCorrectness.advanceNLoop_preserves_tokens&#45;&gt;L4YAML.Scanner.ScannerState</title>
<path fill="none" stroke="#999999" stroke-dasharray="1,5" d="M256.79,-215.35C120.62,-203.93 -58.31,-172.93 18.91,-89 69.85,-33.64 621.1,-66.47 694.91,-52 695.55,-51.88 696.18,-51.74 696.82,-51.61"/>
<polygon fill="#999999" stroke="#999999" points="697.51,-53.96 703.71,-49.9 696.33,-49.2 697.51,-53.96"/>
<text text-anchor="middle" x="31.41" y="-113.1" font-family="Times-Roman" font-size="8.00">about</text>
</g>
<!-- L4YAML.Proofs.ScannerCorrectness.advanceNLoop_preserves_tokens&#45;&gt;L4YAML.Scanner.ScannerState.advanceNLoop -->
<g id="edge4" class="edge">
<title>L4YAML.Proofs.ScannerCorrectness.advanceNLoop_preserves_tokens&#45;&gt;L4YAML.Scanner.ScannerState.advanceNLoop</title>
<path fill="none" stroke="#999999" stroke-dasharray="1,5" d="M431.55,-205.55C475.77,-186.73 548.19,-155.9 595.46,-135.78"/>
<polygon fill="#999999" stroke="#999999" points="596.47,-138.01 601.95,-133.01 594.55,-133.5 596.47,-138.01"/>
<text text-anchor="middle" x="567.41" y="-167.1" font-family="Times-Roman" font-size="8.00">about</text>
</g>
<!-- L4YAML.Proofs.ScannerCorrectness.advanceNLoop_preserves_tokens&#45;&gt;L4YAML.Proofs.ScannerCorrectness.advance_preserves_tokens -->
<g id="edge12" class="edge">
<title>L4YAML.Proofs.ScannerCorrectness.advanceNLoop_preserves_tokens&#45;&gt;L4YAML.Proofs.ScannerCorrectness.advance_preserves_tokens</title>
<path fill="none" stroke="#28a745" stroke-width="2" d="M360.27,-205.2C323.7,-186.39 264.46,-155.9 225.6,-135.9"/>
<polygon fill="#28a745" stroke="#28a745" stroke-width="2" points="226.41,-133.57 219.06,-132.54 224.17,-137.92 226.41,-133.57"/>
<text text-anchor="middle" x="330.91" y="-167.1" font-family="Times-Roman" font-size="8.00">uses</text>
</g>
<!-- L4YAML.Scanner.ScannerState.advanceNLoop.eq_def -->
<g id="node10" class="node">
<title>L4YAML.Scanner.ScannerState.advanceNLoop.eq_def</title>
<ellipse fill="#d4edda" stroke="#28a745" cx="441.91" cy="-115" rx="103.71" ry="18"/>
<text text-anchor="middle" x="441.91" y="-112.5" font-family="Helvetica" font-size="10.00">ScannerState.advanceNLoop.eq_def</text>
</g>
<!-- L4YAML.Proofs.ScannerCorrectness.advanceNLoop_preserves_tokens&#45;&gt;L4YAML.Scanner.ScannerState.advanceNLoop.eq_def -->
<g id="edge6" class="edge">
<title>L4YAML.Proofs.ScannerCorrectness.advanceNLoop_preserves_tokens&#45;&gt;L4YAML.Scanner.ScannerState.advanceNLoop.eq_def</title>
<path fill="none" stroke="#28a745" stroke-width="2" d="M400.79,-204.97C409,-187.2 421.94,-159.21 431.11,-139.38"/>
<polygon fill="#28a745" stroke="#28a745" stroke-width="2" points="433.35,-140.37 434.06,-132.99 428.9,-138.31 433.35,-140.37"/>
<text text-anchor="middle" x="434.91" y="-167.1" font-family="Times-Roman" font-size="8.00">uses</text>
</g>
<!-- L4YAML.Scanner.ScannerState.advanceNLoop.eq_def&#45;&gt;L4YAML.Scanner.ScannerState.advance -->
<g id="edge9" class="edge">
<title>L4YAML.Scanner.ScannerState.advanceNLoop.eq_def&#45;&gt;L4YAML.Scanner.ScannerState.advance</title>
<path fill="none" stroke="#999999" stroke-dasharray="1,5" d="M448.4,-96.99C452.82,-87.65 459.57,-76.65 468.91,-70 496.1,-50.65 532.01,-41.71 562.83,-37.68"/>
<polygon fill="#999999" stroke="#999999" points="563.48,-40.07 570.14,-36.81 562.9,-35.21 563.48,-40.07"/>
<text text-anchor="middle" x="481.41" y="-72.6" font-family="Times-Roman" font-size="8.00">about</text>
</g>
<!-- L4YAML.Scanner.ScannerState.advanceNLoop.eq_def&#45;&gt;L4YAML.Scanner.ScannerState -->
<g id="edge11" class="edge">
<title>L4YAML.Scanner.ScannerState.advanceNLoop.eq_def&#45;&gt;L4YAML.Scanner.ScannerState</title>
<path fill="none" stroke="#999999" stroke-dasharray="1,5" d="M467.64,-97.48C483.97,-87.82 505.91,-76.32 526.91,-70 598.82,-48.37 621.74,-68.89 694.91,-52 695.54,-51.85 696.17,-51.7 696.81,-51.55"/>
<polygon fill="#999999" stroke="#999999" points="697.55,-53.88 703.67,-49.68 696.27,-49.16 697.55,-53.88"/>
<text text-anchor="middle" x="539.41" y="-72.6" font-family="Times-Roman" font-size="8.00">about</text>
</g>
<!-- L4YAML.Scanner.ScannerState.advanceNLoop.eq_def&#45;&gt;L4YAML.Scanner.ScannerState.peekAt?Loop.match_1 -->
<g id="edge7" class="edge">
<title>L4YAML.Scanner.ScannerState.advanceNLoop.eq_def&#45;&gt;L4YAML.Scanner.ScannerState.peekAt?Loop.match_1</title>
<path fill="none" stroke="#999999" stroke-dasharray="1,5" d="M488.98,-98.86C520.82,-89.18 564.01,-77.14 602.91,-70 684.6,-55 706.62,-63.18 788.91,-52 789.45,-51.93 790,-51.85 790.54,-51.78"/>
<polygon fill="#999999" stroke="#999999" points="791.09,-54.17 797.67,-50.76 790.4,-49.32 791.09,-54.17"/>
<text text-anchor="middle" x="615.41" y="-72.6" font-family="Times-Roman" font-size="8.00">about</text>
</g>
</g>
</svg>
