<?xml version="1.0" encoding="UTF-8" standalone="no"?>
<!DOCTYPE svg PUBLIC "-//W3C//DTD SVG 1.1//EN"
 "http://www.w3.org/Graphics/SVG/1.1/DTD/svg11.dtd">
<!-- Generated by graphviz version 2.44.0 (0)
 -->
<!-- Title: chain_consumeExactSpaces.eq_def Pages: 1 -->
<svg width="334pt" height="98pt"
 viewBox="0.00 0.00 334.00 97.92" xmlns="http://www.w3.org/2000/svg" xmlns:xlink="http://www.w3.org/1999/xlink">
<g id="graph0" class="graph" transform="scale(1 1) rotate(0) translate(4 93.92)">
<title>chain_consumeExactSpaces.eq_def</title>
<polygon fill="white" stroke="transparent" points="-4,4 -4,-93.92 330,-93.92 330,4 -4,4"/>
<text text-anchor="middle" x="163" y="-75.52" font-family="Helvetica Bold" font-size="13.00">Functorial Chains: consumeExactSpaces.eq_def</text>
<text text-anchor="middle" x="163" y="-61.52" font-family="Helvetica Bold" font-size="13.00">(heuristic: used by 9 proofs)</text>
<!-- L4YAML.Scanner.consumeExactSpaces.eq_def -->
<g id="node1" class="node">
<title>L4YAML.Scanner.consumeExactSpaces.eq_def</title>
<polygon fill="#fff3cd" stroke="black" points="274.98,-17.46 274.98,-36.46 209.38,-49.89 116.62,-49.89 51.02,-36.46 51.02,-17.46 116.62,-4.03 209.38,-4.03 274.98,-17.46"/>
<polygon fill="none" stroke="black" points="278.99,-14.21 278.99,-39.71 209.79,-53.88 116.21,-53.88 47.01,-39.71 47.01,-14.21 116.21,-0.04 209.79,-0.04 278.99,-14.21"/>
<text text-anchor="middle" x="163" y="-29.96" font-family="Helvetica" font-size="10.00">consumeExactSpaces.eq_def</text>
<text text-anchor="middle" x="163" y="-18.96" font-family="Helvetica" font-size="10.00">(no functorial chains found)</text>
</g>
</g>
</svg>
