<?xml version="1.0" encoding="UTF-8" standalone="no"?>
<!DOCTYPE svg PUBLIC "-//W3C//DTD SVG 1.1//EN"
 "http://www.w3.org/Graphics/SVG/1.1/DTD/svg11.dtd">
<!-- Generated by graphviz version 2.44.0 (0)
 -->
<!-- Title: chain_ScannerCorrectness.ScanHelpers.collectPlainScalarLoop_preserves_tokens Pages: 1 -->
<svg width="1538pt" height="648pt"
 viewBox="0.00 0.00 1538.00 648.00" xmlns="http://www.w3.org/2000/svg" xmlns:xlink="http://www.w3.org/1999/xlink">
<g id="graph0" class="graph" transform="scale(1 1) rotate(0) translate(4 644)">
<title>chain_ScannerCorrectness.ScanHelpers.collectPlainScalarLoop_preserves_tokens</title>
<polygon fill="white" stroke="transparent" points="-4,4 -4,-644 1534,-644 1534,4 -4,4"/>
<text text-anchor="middle" x="765" y="-625.6" font-family="Helvetica Bold" font-size="13.00">Functorial Chains: ScannerCorrectness.ScanHelpers.collectPlainScalarLoop_preserves_tokens</text>
<text text-anchor="middle" x="765" y="-611.6" font-family="Helvetica Bold" font-size="13.00">(heuristic: used by 6 proofs)</text>
<g id="clust1" class="cluster">
<title>cluster_fns</title>
<polygon fill="none" stroke="#4a90d9" stroke-dasharray="5,2" points="8,-8 8,-487 696,-487 696,-8 8,-8"/>
<text text-anchor="middle" x="352" y="-472.6" font-family="Helvetica Bold" font-size="13.00" fill="#4a90d9">Functions (Call Chain)</text>
</g>
<g id="clust2" class="cluster">
<title>cluster_thms</title>
<polygon fill="none" stroke="#28a745" stroke-dasharray="5,2" points="704,-89 704,-596 1522,-596 1522,-89 704,-89"/>
<text text-anchor="middle" x="1113" y="-581.6" font-family="Helvetica Bold" font-size="13.00" fill="#28a745">Theorems (Proof Chain)</text>
</g>
<!-- L4YAML.Scanner.consumeNewline -->
<g id="node1" class="node">
<title>L4YAML.Scanner.consumeNewline</title>
<polygon fill="#dce9f7" stroke="#4a90d9" points="671,-214 579,-214 579,-178 671,-178 671,-214"/>
<text text-anchor="middle" x="625" y="-193.5" font-family="Helvetica" font-size="10.00">consumeNewline</text>
</g>
<!-- L4YAML.Scanner.ScannerState.advance -->
<g id="node2" class="node">
<title>L4YAML.Scanner.ScannerState.advance</title>
<polygon fill="#dce9f7" stroke="#4a90d9" points="687.5,-133 572.5,-133 572.5,-97 687.5,-97 687.5,-133"/>
<text text-anchor="middle" x="630" y="-112.5" font-family="Helvetica" font-size="10.00">ScannerState.advance</text>
</g>
<!-- L4YAML.Scanner.consumeNewline&#45;&gt;L4YAML.Scanner.ScannerState.advance -->
<g id="edge32" class="edge">
<title>L4YAML.Scanner.consumeNewline&#45;&gt;L4YAML.Scanner.ScannerState.advance</title>
<path fill="none" stroke="#4a90d9" stroke-width="2" d="M626.08,-177.86C626.78,-166.88 627.69,-152.48 628.46,-140.33"/>
<polygon fill="#4a90d9" stroke="#4a90d9" stroke-width="2" points="630.92,-140.25 628.92,-133.11 626.03,-139.94 630.92,-140.25"/>
<text text-anchor="middle" x="636.5" y="-153.6" font-family="Times-Roman" font-size="8.00">calls</text>
</g>
<!-- L4YAML.Scanner.ScannerState -->
<g id="node4" class="node">
<title>L4YAML.Scanner.ScannerState</title>
<polygon fill="#dce9f7" stroke="#4a90d9" points="568,-52 492,-52 492,-16 568,-16 568,-52"/>
<text text-anchor="middle" x="530" y="-31.5" font-family="Helvetica" font-size="10.00">ScannerState</text>
</g>
<!-- L4YAML.Scanner.consumeNewline&#45;&gt;L4YAML.Scanner.ScannerState -->
<g id="edge11" class="edge">
<title>L4YAML.Scanner.consumeNewline&#45;&gt;L4YAML.Scanner.ScannerState</title>
<path fill="none" stroke="#4a90d9" stroke-width="2" d="M578.91,-181.24C518.65,-163.23 420.61,-133.83 420,-133 408.34,-117.3 409.66,-105.6 420,-89 434.23,-66.16 461.26,-52.7 484.97,-44.94"/>
<polygon fill="#4a90d9" stroke="#4a90d9" stroke-width="2" points="485.91,-47.21 491.87,-42.8 484.46,-42.53 485.91,-47.21"/>
<text text-anchor="middle" x="429.5" y="-113.1" font-family="Times-Roman" font-size="8.00">calls</text>
</g>
<!-- L4YAML.Scanner.ScannerState.tokens -->
<g id="node7" class="node">
<title>L4YAML.Scanner.ScannerState.tokens</title>
<polygon fill="#dce9f7" stroke="#4a90d9" points="554.5,-133 447.5,-133 447.5,-97 554.5,-97 554.5,-133"/>
<text text-anchor="middle" x="501" y="-112.5" font-family="Helvetica" font-size="10.00">ScannerState.tokens</text>
</g>
<!-- L4YAML.Scanner.consumeNewline&#45;&gt;L4YAML.Scanner.ScannerState.tokens -->
<g id="edge30" class="edge">
<title>L4YAML.Scanner.consumeNewline&#45;&gt;L4YAML.Scanner.ScannerState.tokens</title>
<path fill="none" stroke="#4a90d9" stroke-width="2" d="M598.09,-177.86C579.24,-165.85 553.94,-149.73 533.89,-136.96"/>
<polygon fill="#4a90d9" stroke="#4a90d9" stroke-width="2" points="535.07,-134.8 527.85,-133.11 532.44,-138.94 535.07,-134.8"/>
<text text-anchor="middle" x="575.5" y="-153.6" font-family="Times-Roman" font-size="8.00">calls</text>
</g>
<!-- L4YAML.Scanner.foldQuotedNewlines -->
<g id="node3" class="node">
<title>L4YAML.Scanner.foldQuotedNewlines</title>
<polygon fill="#dce9f7" stroke="#4a90d9" points="677,-376 573,-376 573,-340 677,-340 677,-376"/>
<text text-anchor="middle" x="625" y="-355.5" font-family="Helvetica" font-size="10.00">foldQuotedNewlines</text>
</g>
<!-- L4YAML.Scanner.skipWhitespace -->
<g id="node5" class="node">
<title>L4YAML.Scanner.skipWhitespace</title>
<polygon fill="#dce9f7" stroke="#4a90d9" points="489,-295 403,-295 403,-259 489,-259 489,-295"/>
<text text-anchor="middle" x="446" y="-274.5" font-family="Helvetica" font-size="10.00">skipWhitespace</text>
</g>
<!-- L4YAML.Scanner.foldQuotedNewlines&#45;&gt;L4YAML.Scanner.skipWhitespace -->
<g id="edge34" class="edge">
<title>L4YAML.Scanner.foldQuotedNewlines&#45;&gt;L4YAML.Scanner.skipWhitespace</title>
<path fill="none" stroke="#4a90d9" stroke-width="2" d="M572.89,-347.18C550.04,-341.66 523.38,-333.51 501,-322 489.55,-316.11 478.21,-307.62 468.83,-299.66"/>
<polygon fill="#4a90d9" stroke="#4a90d9" stroke-width="2" points="470.43,-297.81 463.54,-295.07 467.22,-301.51 470.43,-297.81"/>
<text text-anchor="middle" x="510.5" y="-315.6" font-family="Times-Roman" font-size="8.00">calls</text>
</g>
<!-- L4YAML.Scanner.foldQuotedNewlinesLoop -->
<g id="node10" class="node">
<title>L4YAML.Scanner.foldQuotedNewlinesLoop</title>
<polygon fill="#dce9f7" stroke="#4a90d9" points="687.5,-295 562.5,-295 562.5,-259 687.5,-259 687.5,-295"/>
<text text-anchor="middle" x="625" y="-274.5" font-family="Helvetica" font-size="10.00">foldQuotedNewlinesLoop</text>
</g>
<!-- L4YAML.Scanner.foldQuotedNewlines&#45;&gt;L4YAML.Scanner.foldQuotedNewlinesLoop -->
<g id="edge5" class="edge">
<title>L4YAML.Scanner.foldQuotedNewlines&#45;&gt;L4YAML.Scanner.foldQuotedNewlinesLoop</title>
<path fill="none" stroke="#4a90d9" stroke-width="2" d="M625,-339.86C625,-328.88 625,-314.48 625,-302.33"/>
<polygon fill="#4a90d9" stroke="#4a90d9" stroke-width="2" points="627.45,-302.11 625,-295.11 622.55,-302.11 627.45,-302.11"/>
<text text-anchor="middle" x="634.5" y="-315.6" font-family="Times-Roman" font-size="8.00">calls</text>
</g>
<!-- L4YAML.Scanner.skipSpaces -->
<g id="node11" class="node">
<title>L4YAML.Scanner.skipSpaces</title>
<polygon fill="#dce9f7" stroke="#4a90d9" points="559,-214 491,-214 491,-178 559,-178 559,-214"/>
<text text-anchor="middle" x="525" y="-193.5" font-family="Helvetica" font-size="10.00">skipSpaces</text>
</g>
<!-- L4YAML.Scanner.foldQuotedNewlines&#45;&gt;L4YAML.Scanner.skipSpaces -->
<g id="edge14" class="edge">
<title>L4YAML.Scanner.foldQuotedNewlines&#45;&gt;L4YAML.Scanner.skipSpaces</title>
<path fill="none" stroke="#4a90d9" stroke-width="2" d="M586.07,-339.94C567.44,-329.69 546.7,-314.75 535,-295 521.75,-272.62 520.71,-242.25 522.05,-221.28"/>
<polygon fill="#4a90d9" stroke="#4a90d9" stroke-width="2" points="524.5,-221.45 522.61,-214.28 519.61,-221.06 524.5,-221.45"/>
<text text-anchor="middle" x="544.5" y="-275.1" font-family="Times-Roman" font-size="8.00">calls</text>
</g>
<!-- L4YAML.Scanner.skipWhitespaceLoop -->
<g id="node9" class="node">
<title>L4YAML.Scanner.skipWhitespaceLoop</title>
<polygon fill="#dce9f7" stroke="#4a90d9" points="361.5,-214 254.5,-214 254.5,-178 361.5,-178 361.5,-214"/>
<text text-anchor="middle" x="308" y="-193.5" font-family="Helvetica" font-size="10.00">skipWhitespaceLoop</text>
</g>
<!-- L4YAML.Scanner.skipWhitespace&#45;&gt;L4YAML.Scanner.skipWhitespaceLoop -->
<g id="edge37" class="edge">
<title>L4YAML.Scanner.skipWhitespace&#45;&gt;L4YAML.Scanner.skipWhitespaceLoop</title>
<path fill="none" stroke="#4a90d9" stroke-width="2" d="M416.06,-258.86C394.9,-246.75 366.43,-230.45 344.03,-217.63"/>
<polygon fill="#4a90d9" stroke="#4a90d9" stroke-width="2" points="345.18,-215.46 337.89,-214.11 342.74,-219.71 345.18,-215.46"/>
<text text-anchor="middle" x="390.5" y="-234.6" font-family="Times-Roman" font-size="8.00">calls</text>
</g>
<!-- L4YAML.Scanner.skipSpacesLoop -->
<g id="node6" class="node">
<title>L4YAML.Scanner.skipSpacesLoop</title>
<polygon fill="#dce9f7" stroke="#4a90d9" points="373.5,-133 284.5,-133 284.5,-97 373.5,-97 373.5,-133"/>
<text text-anchor="middle" x="329" y="-112.5" font-family="Helvetica" font-size="10.00">skipSpacesLoop</text>
</g>
<!-- L4YAML.Scanner.skipSpacesLoop&#45;&gt;L4YAML.Scanner.ScannerState -->
<g id="edge23" class="edge">
<title>L4YAML.Scanner.skipSpacesLoop&#45;&gt;L4YAML.Scanner.ScannerState</title>
<path fill="none" stroke="#4a90d9" stroke-width="2" d="M346.93,-96.98C357.55,-87.76 371.69,-76.88 386,-70 417.21,-55 455.41,-46.1 484.62,-41.03"/>
<polygon fill="#4a90d9" stroke="#4a90d9" stroke-width="2" points="485.34,-43.39 491.84,-39.82 484.53,-38.56 485.34,-43.39"/>
<text text-anchor="middle" x="395.5" y="-72.6" font-family="Times-Roman" font-size="8.00">calls</text>
</g>
<!-- L4YAML.Scanner.skipSpacesLoop._unary -->
<g id="node12" class="node">
<title>L4YAML.Scanner.skipSpacesLoop._unary</title>
<polygon fill="#dce9f7" stroke="#4a90d9" points="306,-52 184,-52 184,-16 306,-16 306,-52"/>
<text text-anchor="middle" x="245" y="-31.5" font-family="Helvetica" font-size="10.00">skipSpacesLoop._unary</text>
</g>
<!-- L4YAML.Scanner.skipSpacesLoop&#45;&gt;L4YAML.Scanner.skipSpacesLoop._unary -->
<g id="edge20" class="edge">
<title>L4YAML.Scanner.skipSpacesLoop&#45;&gt;L4YAML.Scanner.skipSpacesLoop._unary</title>
<path fill="none" stroke="#4a90d9" stroke-width="2" d="M310.77,-96.86C298.33,-85.16 281.75,-69.56 268.34,-56.95"/>
<polygon fill="#4a90d9" stroke="#4a90d9" stroke-width="2" points="269.97,-55.12 263.19,-52.11 266.61,-58.69 269.97,-55.12"/>
<text text-anchor="middle" x="298.5" y="-72.6" font-family="Times-Roman" font-size="8.00">calls</text>
</g>
<!-- L4YAML.Scanner.skipWhitespaceLoop._unary -->
<g id="node8" class="node">
<title>L4YAML.Scanner.skipWhitespaceLoop._unary</title>
<polygon fill="#dce9f7" stroke="#4a90d9" points="266,-133 126,-133 126,-97 266,-97 266,-133"/>
<text text-anchor="middle" x="196" y="-112.5" font-family="Helvetica" font-size="10.00">skipWhitespaceLoop._unary</text>
</g>
<!-- L4YAML.Scanner.skipWhitespaceLoop&#45;&gt;L4YAML.Scanner.ScannerState -->
<g id="edge43" class="edge">
<title>L4YAML.Scanner.skipWhitespaceLoop&#45;&gt;L4YAML.Scanner.ScannerState</title>
<path fill="none" stroke="#4a90d9" stroke-width="2" d="M254.18,-191.05C168.14,-182.63 14.28,-157.71 66,-89 84.36,-64.61 101.99,-75.59 132,-70 165.93,-63.69 387.65,-46.04 484.67,-38.49"/>
<polygon fill="#4a90d9" stroke="#4a90d9" stroke-width="2" points="484.92,-40.93 491.71,-37.94 484.54,-36.04 484.92,-40.93"/>
<text text-anchor="middle" x="75.5" y="-113.1" font-family="Times-Roman" font-size="8.00">calls</text>
</g>
<!-- L4YAML.Scanner.skipWhitespaceLoop&#45;&gt;L4YAML.Scanner.skipWhitespaceLoop._unary -->
<g id="edge40" class="edge">
<title>L4YAML.Scanner.skipWhitespaceLoop&#45;&gt;L4YAML.Scanner.skipWhitespaceLoop._unary</title>
<path fill="none" stroke="#4a90d9" stroke-width="2" d="M283.7,-177.86C266.82,-165.95 244.21,-150.01 226.18,-137.29"/>
<polygon fill="#4a90d9" stroke="#4a90d9" stroke-width="2" points="227.39,-135.14 220.25,-133.11 224.56,-139.15 227.39,-135.14"/>
<text text-anchor="middle" x="264.5" y="-153.6" font-family="Times-Roman" font-size="8.00">calls</text>
</g>
<!-- L4YAML.Scanner.foldQuotedNewlinesLoop&#45;&gt;L4YAML.Scanner.consumeNewline -->
<g id="edge8" class="edge">
<title>L4YAML.Scanner.foldQuotedNewlinesLoop&#45;&gt;L4YAML.Scanner.consumeNewline</title>
<path fill="none" stroke="#4a90d9" stroke-width="2" d="M625,-258.86C625,-247.88 625,-233.48 625,-221.33"/>
<polygon fill="#4a90d9" stroke="#4a90d9" stroke-width="2" points="627.45,-221.11 625,-214.11 622.55,-221.11 627.45,-221.11"/>
<text text-anchor="middle" x="634.5" y="-234.6" font-family="Times-Roman" font-size="8.00">calls</text>
</g>
<!-- L4YAML.Scanner.foldQuotedNewlinesLoop&#45;&gt;L4YAML.Scanner.skipSpaces -->
<g id="edge25" class="edge">
<title>L4YAML.Scanner.foldQuotedNewlinesLoop&#45;&gt;L4YAML.Scanner.skipSpaces</title>
<path fill="none" stroke="#4a90d9" stroke-width="2" d="M603.3,-258.86C588.36,-247.06 568.4,-231.28 552.37,-218.62"/>
<polygon fill="#4a90d9" stroke="#4a90d9" stroke-width="2" points="553.67,-216.53 546.66,-214.11 550.63,-220.37 553.67,-216.53"/>
<text text-anchor="middle" x="586.5" y="-234.6" font-family="Times-Roman" font-size="8.00">calls</text>
</g>
<!-- L4YAML.Scanner.skipSpaces&#45;&gt;L4YAML.Scanner.ScannerState -->
<g id="edge27" class="edge">
<title>L4YAML.Scanner.skipSpaces&#45;&gt;L4YAML.Scanner.ScannerState</title>
<path fill="none" stroke="#4a90d9" stroke-width="2" d="M490.88,-191.3C391.85,-180.38 110.62,-148.17 98,-133 85.49,-117.97 85.06,-103.66 98,-89 110.73,-74.58 376.39,-48.95 484.67,-39.05"/>
<polygon fill="#4a90d9" stroke="#4a90d9" stroke-width="2" points="485.13,-41.47 491.88,-38.4 484.68,-36.59 485.13,-41.47"/>
<text text-anchor="middle" x="107.5" y="-113.1" font-family="Times-Roman" font-size="8.00">calls</text>
</g>
<!-- L4YAML.Scanner.skipSpaces&#45;&gt;L4YAML.Scanner.skipSpacesLoop -->
<g id="edge17" class="edge">
<title>L4YAML.Scanner.skipSpaces&#45;&gt;L4YAML.Scanner.skipSpacesLoop</title>
<path fill="none" stroke="#4a90d9" stroke-width="2" d="M490.8,-190.4C461.81,-185.58 419.69,-176.36 386,-160 374.16,-154.25 362.41,-145.78 352.68,-137.81"/>
<polygon fill="#4a90d9" stroke="#4a90d9" stroke-width="2" points="354.14,-135.83 347.21,-133.19 350.98,-139.58 354.14,-135.83"/>
<text text-anchor="middle" x="395.5" y="-153.6" font-family="Times-Roman" font-size="8.00">calls</text>
</g>
<!-- L4YAML.Scanner.collectPlainScalarLoop -->
<g id="node13" class="node">
<title>L4YAML.Scanner.collectPlainScalarLoop</title>
<polygon fill="#dce9f7" stroke="#4a90d9" points="686,-457 570,-457 570,-421 686,-421 686,-457"/>
<text text-anchor="middle" x="628" y="-436.5" font-family="Helvetica" font-size="10.00">collectPlainScalarLoop</text>
</g>
<!-- L4YAML.Scanner.collectPlainScalarLoop&#45;&gt;L4YAML.Scanner.foldQuotedNewlines -->
<g id="edge2" class="edge">
<title>L4YAML.Scanner.collectPlainScalarLoop&#45;&gt;L4YAML.Scanner.foldQuotedNewlines</title>
<path fill="none" stroke="#4a90d9" stroke-width="2" d="M627.35,-420.86C626.93,-409.88 626.39,-395.48 625.92,-383.33"/>
<polygon fill="#4a90d9" stroke="#4a90d9" stroke-width="2" points="628.36,-383.01 625.65,-376.11 623.47,-383.2 628.36,-383.01"/>
<text text-anchor="middle" x="635.5" y="-396.6" font-family="Times-Roman" font-size="8.00">calls</text>
</g>
<!-- L4YAML.Proofs.ScannerCorrectness.ScanHelpers.collectPlainScalarLoop_preserves_tokens -->
<g id="node14" class="node">
<title>L4YAML.Proofs.ScannerCorrectness.ScanHelpers.collectPlainScalarLoop_preserves_tokens</title>
<polygon fill="#fff3cd" stroke="#d4a017" points="1162.01,-536.54 1162.01,-551.46 1031.38,-562 846.62,-562 715.99,-551.46 715.99,-536.54 846.62,-526 1031.38,-526 1162.01,-536.54"/>
<polygon fill="none" stroke="#d4a017" points="1166.01,-532.85 1166.01,-555.15 1031.54,-566 846.46,-566 711.99,-555.15 711.99,-532.85 846.46,-522 1031.54,-522 1166.01,-532.85"/>
<text text-anchor="middle" x="939" y="-541.5" font-family="Helvetica" font-size="10.00">ScannerCorrectness.ScanHelpers.collectPlainScalarLoop_preserves_tokens</text>
</g>
<!-- L4YAML.Proofs.ScannerCorrectness.ScanHelpers.collectPlainScalarLoop_preserves_tokens&#45;&gt;L4YAML.Scanner.collectPlainScalarLoop -->
<g id="edge1" class="edge">
<title>L4YAML.Proofs.ScannerCorrectness.ScanHelpers.collectPlainScalarLoop_preserves_tokens&#45;&gt;L4YAML.Scanner.collectPlainScalarLoop</title>
<path fill="none" stroke="#999999" stroke-dasharray="1,5" d="M821.53,-523.98C781.97,-515.36 738.2,-503.34 700,-487 684.41,-480.33 668.48,-470.32 655.58,-461.26"/>
<polygon fill="#999999" stroke="#999999" points="656.99,-459.26 649.88,-457.17 654.14,-463.24 656.99,-459.26"/>
<text text-anchor="middle" x="755.5" y="-497.6" font-family="Times-Roman" font-size="8.00">about</text>
</g>
<!-- L4YAML.Proofs.ScannerCorrectness.ScanHelpers.foldQuotedNewlines_preserves_tokens -->
<g id="node23" class="node">
<title>L4YAML.Proofs.ScannerCorrectness.ScanHelpers.foldQuotedNewlines_preserves_tokens</title>
<ellipse fill="#d4edda" stroke="#28a745" cx="939" cy="-439" rx="198.94" ry="18"/>
<text text-anchor="middle" x="939" y="-436.5" font-family="Helvetica" font-size="10.00">ScannerCorrectness.ScanHelpers.foldQuotedNewlines_preserves_tokens</text>
</g>
<!-- L4YAML.Proofs.ScannerCorrectness.ScanHelpers.collectPlainScalarLoop_preserves_tokens&#45;&gt;L4YAML.Proofs.ScannerCorrectness.ScanHelpers.foldQuotedNewlines_preserves_tokens -->
<g id="edge3" class="edge">
<title>L4YAML.Proofs.ScannerCorrectness.ScanHelpers.collectPlainScalarLoop_preserves_tokens&#45;&gt;L4YAML.Proofs.ScannerCorrectness.ScanHelpers.foldQuotedNewlines_preserves_tokens</title>
<path fill="none" stroke="#28a745" stroke-width="2" d="M939,-521.66C939,-504.95 939,-481.71 939,-464.29"/>
<polygon fill="#28a745" stroke="#28a745" stroke-width="2" points="941.45,-464.22 939,-457.22 936.55,-464.22 941.45,-464.22"/>
<text text-anchor="middle" x="949" y="-497.6" font-family="Times-Roman" font-size="8.00">uses</text>
</g>
<!-- L4YAML.Scanner.skipSpacesLoop.eq_def -->
<g id="node15" class="node">
<title>L4YAML.Scanner.skipSpacesLoop.eq_def</title>
<ellipse fill="#d4edda" stroke="#28a745" cx="1289" cy="-196" rx="71.46" ry="18"/>
<text text-anchor="middle" x="1289" y="-193.5" font-family="Helvetica" font-size="10.00">skipSpacesLoop.eq_def</text>
</g>
<!-- L4YAML.Scanner.skipSpacesLoop.eq_def&#45;&gt;L4YAML.Scanner.ScannerState -->
<g id="edge28" class="edge">
<title>L4YAML.Scanner.skipSpacesLoop.eq_def&#45;&gt;L4YAML.Scanner.ScannerState</title>
<path fill="none" stroke="#999999" stroke-dasharray="1,5" d="M1259.8,-179.47C1215.31,-156.44 1127.32,-113.32 1048,-89 960.12,-62.05 685.06,-43.85 575.6,-37.49"/>
<polygon fill="#999999" stroke="#999999" points="575.45,-35.03 568.32,-37.08 575.17,-39.92 575.45,-35.03"/>
<text text-anchor="middle" x="1172.5" y="-113.1" font-family="Times-Roman" font-size="8.00">about</text>
</g>
<!-- L4YAML.Scanner.skipSpacesLoop.eq_def&#45;&gt;L4YAML.Scanner.skipSpacesLoop -->
<g id="edge19" class="edge">
<title>L4YAML.Scanner.skipSpacesLoop.eq_def&#45;&gt;L4YAML.Scanner.skipSpacesLoop</title>
<path fill="none" stroke="#999999" stroke-dasharray="1,5" d="M1239.29,-183.06C1229.31,-181.06 1218.86,-179.23 1209,-178 1105.28,-165.09 841.15,-182.13 739,-160 728.68,-157.76 727.31,-153.32 717,-151 574.14,-118.83 532.39,-157.43 388,-133 385.64,-132.6 383.23,-132.14 380.81,-131.63"/>
<polygon fill="#999999" stroke="#999999" points="380.9,-129.14 373.53,-129.98 379.82,-133.92 380.9,-129.14"/>
<text text-anchor="middle" x="751.5" y="-153.6" font-family="Times-Roman" font-size="8.00">about</text>
</g>
<!-- L4YAML.Scanner.skipSpacesLoop._unary.eq_def -->
<g id="node20" class="node">
<title>L4YAML.Scanner.skipSpacesLoop._unary.eq_def</title>
<ellipse fill="#d4edda" stroke="#28a745" cx="802" cy="-115" rx="90.13" ry="18"/>
<text text-anchor="middle" x="802" y="-112.5" font-family="Helvetica" font-size="10.00">skipSpacesLoop._unary.eq_def</text>
</g>
<!-- L4YAML.Scanner.skipSpacesLoop.eq_def&#45;&gt;L4YAML.Scanner.skipSpacesLoop._unary.eq_def -->
<g id="edge21" class="edge">
<title>L4YAML.Scanner.skipSpacesLoop.eq_def&#45;&gt;L4YAML.Scanner.skipSpacesLoop._unary.eq_def</title>
<path fill="none" stroke="#28a745" stroke-width="2" d="M1237.45,-183.56C1228.01,-181.6 1218.22,-179.66 1209,-178 1075.02,-153.84 1040.52,-153.98 906,-133 896.23,-131.48 885.96,-129.84 875.82,-128.2"/>
<polygon fill="#28a745" stroke="#28a745" stroke-width="2" points="876.13,-125.77 868.83,-127.07 875.35,-130.61 876.13,-125.77"/>
<text text-anchor="middle" x="1108" y="-153.6" font-family="Times-Roman" font-size="8.00">uses</text>
</g>
<!-- L4YAML.Scanner.skipWhitespaceLoop.eq_def -->
<g id="node16" class="node">
<title>L4YAML.Scanner.skipWhitespaceLoop.eq_def</title>
<ellipse fill="#d4edda" stroke="#28a745" cx="794" cy="-277" rx="82.33" ry="18"/>
<text text-anchor="middle" x="794" y="-274.5" font-family="Helvetica" font-size="10.00">skipWhitespaceLoop.eq_def</text>
</g>
<!-- L4YAML.Scanner.skipWhitespaceLoop.eq_def&#45;&gt;L4YAML.Scanner.skipWhitespaceLoop -->
<g id="edge39" class="edge">
<title>L4YAML.Scanner.skipWhitespaceLoop.eq_def&#45;&gt;L4YAML.Scanner.skipWhitespaceLoop</title>
<path fill="none" stroke="#999999" stroke-dasharray="1,5" d="M739.35,-263.46C716.13,-257.55 688.95,-249.84 665,-241 656.23,-237.76 655,-234.52 646,-232 639.4,-230.15 464.24,-212.54 368.75,-203.03"/>
<polygon fill="#999999" stroke="#999999" points="368.94,-200.59 361.73,-202.33 368.45,-205.46 368.94,-200.59"/>
<text text-anchor="middle" x="677.5" y="-234.6" font-family="Times-Roman" font-size="8.00">about</text>
</g>
<!-- L4YAML.Scanner.skipWhitespaceLoop._unary.eq_def -->
<g id="node21" class="node">
<title>L4YAML.Scanner.skipWhitespaceLoop._unary.eq_def</title>
<ellipse fill="#d4edda" stroke="#28a745" cx="813" cy="-196" rx="101" ry="18"/>
<text text-anchor="middle" x="813" y="-193.5" font-family="Helvetica" font-size="10.00">skipWhitespaceLoop._unary.eq_def</text>
</g>
<!-- L4YAML.Scanner.skipWhitespaceLoop.eq_def&#45;&gt;L4YAML.Scanner.skipWhitespaceLoop._unary.eq_def -->
<g id="edge41" class="edge">
<title>L4YAML.Scanner.skipWhitespaceLoop.eq_def&#45;&gt;L4YAML.Scanner.skipWhitespaceLoop._unary.eq_def</title>
<path fill="none" stroke="#28a745" stroke-width="2" d="M798.12,-258.86C800.79,-247.78 804.29,-233.21 807.23,-220.99"/>
<polygon fill="#28a745" stroke="#28a745" stroke-width="2" points="809.63,-221.49 808.89,-214.11 804.87,-220.34 809.63,-221.49"/>
<text text-anchor="middle" x="814" y="-234.6" font-family="Times-Roman" font-size="8.00">uses</text>
</g>
<!-- L4YAML.Proofs.ScannerCorrectness.consumeNewline_preserves_tokens -->
<g id="node17" class="node">
<title>L4YAML.Proofs.ScannerCorrectness.consumeNewline_preserves_tokens</title>
<ellipse fill="#d4edda" stroke="#28a745" cx="1051" cy="-277" rx="156.67" ry="18"/>
<text text-anchor="middle" x="1051" y="-274.5" font-family="Helvetica" font-size="10.00">ScannerCorrectness.consumeNewline_preserves_tokens</text>
</g>
<!-- L4YAML.Proofs.ScannerCorrectness.consumeNewline_preserves_tokens&#45;&gt;L4YAML.Scanner.consumeNewline -->
<g id="edge10" class="edge">
<title>L4YAML.Proofs.ScannerCorrectness.consumeNewline_preserves_tokens&#45;&gt;L4YAML.Scanner.consumeNewline</title>
<path fill="none" stroke="#999999" stroke-dasharray="1,5" d="M938.25,-264.41C842.37,-254.52 719.73,-241.77 717,-241 706.31,-237.98 684.02,-227.36 664.05,-217.31"/>
<polygon fill="#999999" stroke="#999999" points="665.02,-215.05 657.66,-214.08 662.8,-219.42 665.02,-215.05"/>
<text text-anchor="middle" x="729.5" y="-234.6" font-family="Times-Roman" font-size="8.00">about</text>
</g>
<!-- L4YAML.Proofs.ScannerCorrectness.advance_preserves_tokens -->
<g id="node19" class="node">
<title>L4YAML.Proofs.ScannerCorrectness.advance_preserves_tokens</title>
<ellipse fill="#d4edda" stroke="#28a745" cx="1066" cy="-196" rx="133.75" ry="18"/>
<text text-anchor="middle" x="1066" y="-193.5" font-family="Helvetica" font-size="10.00">ScannerCorrectness.advance_preserves_tokens</text>
</g>
<!-- L4YAML.Proofs.ScannerCorrectness.consumeNewline_preserves_tokens&#45;&gt;L4YAML.Proofs.ScannerCorrectness.advance_preserves_tokens -->
<g id="edge12" class="edge">
<title>L4YAML.Proofs.ScannerCorrectness.consumeNewline_preserves_tokens&#45;&gt;L4YAML.Proofs.ScannerCorrectness.advance_preserves_tokens</title>
<path fill="none" stroke="#28a745" stroke-width="2" d="M1054.25,-258.86C1056.36,-247.78 1059.13,-233.21 1061.45,-220.99"/>
<polygon fill="#28a745" stroke="#28a745" stroke-width="2" points="1063.85,-221.44 1062.75,-214.11 1059.04,-220.53 1063.85,-221.44"/>
<text text-anchor="middle" x="1068" y="-234.6" font-family="Times-Roman" font-size="8.00">uses</text>
</g>
<!-- L4YAML.Proofs.ScannerCorrectness.skipWhitespace_preserves_tokens -->
<g id="node18" class="node">
<title>L4YAML.Proofs.ScannerCorrectness.skipWhitespace_preserves_tokens</title>
<ellipse fill="#d4edda" stroke="#28a745" cx="865" cy="-358" rx="153.1" ry="18"/>
<text text-anchor="middle" x="865" y="-355.5" font-family="Helvetica" font-size="10.00">ScannerCorrectness.skipWhitespace_preserves_tokens</text>
</g>
<!-- L4YAML.Proofs.ScannerCorrectness.skipWhitespace_preserves_tokens&#45;&gt;L4YAML.Scanner.skipWhitespace -->
<g id="edge36" class="edge">
<title>L4YAML.Proofs.ScannerCorrectness.skipWhitespace_preserves_tokens&#45;&gt;L4YAML.Scanner.skipWhitespace</title>
<path fill="none" stroke="#999999" stroke-dasharray="1,5" d="M790.89,-342.23C759.99,-336.03 723.75,-328.72 691,-322 671.87,-318.07 667.26,-316.21 648,-313 583.94,-302.34 566.56,-308.33 503,-295 500.73,-294.52 498.41,-294 496.08,-293.44"/>
<polygon fill="#999999" stroke="#999999" points="496.45,-291.01 489.07,-291.67 495.25,-295.76 496.45,-291.01"/>
<text text-anchor="middle" x="703.5" y="-315.6" font-family="Times-Roman" font-size="8.00">about</text>
</g>
<!-- L4YAML.Proofs.ScannerCorrectness.skipWhitespace_preserves_tokens&#45;&gt;L4YAML.Scanner.skipWhitespaceLoop.eq_def -->
<g id="edge38" class="edge">
<title>L4YAML.Proofs.ScannerCorrectness.skipWhitespace_preserves_tokens&#45;&gt;L4YAML.Scanner.skipWhitespaceLoop.eq_def</title>
<path fill="none" stroke="#28a745" stroke-width="2" d="M849.59,-339.86C839.2,-328.29 825.37,-312.9 814.11,-300.37"/>
<polygon fill="#28a745" stroke="#28a745" stroke-width="2" points="815.63,-298.41 809.13,-294.84 811.99,-301.68 815.63,-298.41"/>
<text text-anchor="middle" x="841" y="-315.6" font-family="Times-Roman" font-size="8.00">uses</text>
</g>
<!-- L4YAML.Proofs.ScannerCorrectness.advance_preserves_tokens&#45;&gt;L4YAML.Scanner.ScannerState.advance -->
<g id="edge33" class="edge">
<title>L4YAML.Proofs.ScannerCorrectness.advance_preserves_tokens&#45;&gt;L4YAML.Scanner.ScannerState.advance</title>
<path fill="none" stroke="#999999" stroke-dasharray="1,5" d="M968.48,-183.69C929.43,-178.11 884.25,-170.32 844,-160 832.56,-157.07 830.45,-153.9 819,-151 767.14,-137.88 752.49,-143.32 700,-133 698.23,-132.65 696.43,-132.29 694.62,-131.91"/>
<polygon fill="#999999" stroke="#999999" points="694.95,-129.48 687.59,-130.41 693.93,-134.27 694.95,-129.48"/>
<text text-anchor="middle" x="856.5" y="-153.6" font-family="Times-Roman" font-size="8.00">about</text>
</g>
<!-- L4YAML.Proofs.ScannerCorrectness.advance_preserves_tokens&#45;&gt;L4YAML.Scanner.ScannerState -->
<g id="edge13" class="edge">
<title>L4YAML.Proofs.ScannerCorrectness.advance_preserves_tokens&#45;&gt;L4YAML.Scanner.ScannerState</title>
<path fill="none" stroke="#999999" stroke-dasharray="1,5" d="M1054.95,-177.79C1038.79,-154.07 1006.42,-111.68 968,-89 902.26,-50.2 673.49,-39.08 575.32,-36.06"/>
<polygon fill="#999999" stroke="#999999" points="575.27,-33.61 568.2,-35.85 575.12,-38.51 575.27,-33.61"/>
<text text-anchor="middle" x="1031.5" y="-113.1" font-family="Times-Roman" font-size="8.00">about</text>
</g>
<!-- L4YAML.Proofs.ScannerCorrectness.advance_preserves_tokens&#45;&gt;L4YAML.Scanner.ScannerState.tokens -->
<g id="edge31" class="edge">
<title>L4YAML.Proofs.ScannerCorrectness.advance_preserves_tokens&#45;&gt;L4YAML.Scanner.ScannerState.tokens</title>
<path fill="none" stroke="#999999" stroke-dasharray="1,5" d="M970,-183.43C893.88,-174.16 798.85,-162.33 790,-160 779.78,-157.31 778.27,-153.49 768,-151 679.55,-129.53 653.62,-148.92 564,-133 563.25,-132.87 562.49,-132.73 561.73,-132.58"/>
<polygon fill="#999999" stroke="#999999" points="562.16,-130.17 554.82,-131.19 561.19,-134.98 562.16,-130.17"/>
<text text-anchor="middle" x="802.5" y="-153.6" font-family="Times-Roman" font-size="8.00">about</text>
</g>
<!-- L4YAML.Scanner.skipSpacesLoop._unary.eq_def&#45;&gt;L4YAML.Scanner.ScannerState -->
<g id="edge24" class="edge">
<title>L4YAML.Scanner.skipSpacesLoop._unary.eq_def&#45;&gt;L4YAML.Scanner.ScannerState</title>
<path fill="none" stroke="#999999" stroke-dasharray="1,5" d="M753.06,-99.79C702.37,-85.06 623.84,-62.26 574.76,-48"/>
<polygon fill="#999999" stroke="#999999" points="575.44,-45.65 568.03,-46.05 574.07,-50.35 575.44,-45.65"/>
<text text-anchor="middle" x="686.5" y="-72.6" font-family="Times-Roman" font-size="8.00">about</text>
</g>
<!-- L4YAML.Scanner.skipSpacesLoop._unary.eq_def&#45;&gt;L4YAML.Scanner.skipSpacesLoop._unary -->
<g id="edge22" class="edge">
<title>L4YAML.Scanner.skipSpacesLoop._unary.eq_def&#45;&gt;L4YAML.Scanner.skipSpacesLoop._unary</title>
<path fill="none" stroke="#999999" stroke-dasharray="1,5" d="M750.9,-100.18C734.71,-96.15 716.68,-92.02 700,-89 662.91,-82.28 431.34,-55.91 313.59,-42.67"/>
<polygon fill="#999999" stroke="#999999" points="313.58,-40.2 306.35,-41.86 313.03,-45.07 313.58,-40.2"/>
<text text-anchor="middle" x="635.5" y="-72.6" font-family="Times-Roman" font-size="8.00">about</text>
</g>
<!-- L4YAML.Scanner.skipWhitespaceLoop._unary.eq_def&#45;&gt;L4YAML.Scanner.ScannerState -->
<g id="edge44" class="edge">
<title>L4YAML.Scanner.skipWhitespaceLoop._unary.eq_def&#45;&gt;L4YAML.Scanner.ScannerState</title>
<path fill="none" stroke="#999999" stroke-dasharray="1,5" d="M883.8,-183.07C895.66,-177.89 906.52,-170.51 914,-160 926.91,-141.86 973.74,-157.36 901,-89 854.75,-45.54 663.67,-36.96 575.25,-35.33"/>
<polygon fill="#999999" stroke="#999999" points="575.09,-32.88 568.05,-35.21 575,-37.78 575.09,-32.88"/>
<text text-anchor="middle" x="951.5" y="-113.1" font-family="Times-Roman" font-size="8.00">about</text>
</g>
<!-- L4YAML.Scanner.skipWhitespaceLoop._unary.eq_def&#45;&gt;L4YAML.Scanner.skipWhitespaceLoop._unary -->
<g id="edge42" class="edge">
<title>L4YAML.Scanner.skipWhitespaceLoop._unary.eq_def&#45;&gt;L4YAML.Scanner.skipWhitespaceLoop._unary</title>
<path fill="none" stroke="#999999" stroke-dasharray="1,5" d="M763.08,-180.26C723.6,-168.84 671.64,-154.4 650,-151 485.6,-125.17 441.04,-154.36 276,-133 275.09,-132.88 274.17,-132.76 273.25,-132.63"/>
<polygon fill="#999999" stroke="#999999" points="273.41,-130.18 266.13,-131.57 272.69,-135.03 273.41,-130.18"/>
<text text-anchor="middle" x="701.5" y="-153.6" font-family="Times-Roman" font-size="8.00">about</text>
</g>
<!-- L4YAML.Proofs.ScannerCorrectness.skipSpaces_preserves_tokens -->
<g id="node22" class="node">
<title>L4YAML.Proofs.ScannerCorrectness.skipSpaces_preserves_tokens</title>
<ellipse fill="#d4edda" stroke="#28a745" cx="1368" cy="-277" rx="142.41" ry="18"/>
<text text-anchor="middle" x="1368" y="-274.5" font-family="Helvetica" font-size="10.00">ScannerCorrectness.skipSpaces_preserves_tokens</text>
</g>
<!-- L4YAML.Proofs.ScannerCorrectness.skipSpaces_preserves_tokens&#45;&gt;L4YAML.Scanner.skipSpaces -->
<g id="edge16" class="edge">
<title>L4YAML.Proofs.ScannerCorrectness.skipSpaces_preserves_tokens&#45;&gt;L4YAML.Scanner.skipSpaces</title>
<path fill="none" stroke="#999999" stroke-dasharray="1,5" d="M1269.81,-263.91C1252.25,-262.05 1234.1,-260.31 1217,-259 1020.08,-243.94 967.92,-272.76 773,-241 758.84,-238.69 756.08,-234.76 742,-232 666.57,-217.23 644.79,-231.73 570,-214 568.66,-213.68 567.3,-213.33 565.94,-212.96"/>
<polygon fill="#999999" stroke="#999999" points="566.52,-210.58 559.11,-210.92 565.12,-215.27 566.52,-210.58"/>
<text text-anchor="middle" x="785.5" y="-234.6" font-family="Times-Roman" font-size="8.00">about</text>
</g>
<!-- L4YAML.Proofs.ScannerCorrectness.skipSpaces_preserves_tokens&#45;&gt;L4YAML.Scanner.skipSpacesLoop.eq_def -->
<g id="edge18" class="edge">
<title>L4YAML.Proofs.ScannerCorrectness.skipSpaces_preserves_tokens&#45;&gt;L4YAML.Scanner.skipSpacesLoop.eq_def</title>
<path fill="none" stroke="#28a745" stroke-width="2" d="M1350.86,-258.86C1339.1,-247.1 1323.41,-231.41 1310.78,-218.78"/>
<polygon fill="#28a745" stroke="#28a745" stroke-width="2" points="1312.25,-216.78 1305.57,-213.57 1308.78,-220.25 1312.25,-216.78"/>
<text text-anchor="middle" x="1340" y="-234.6" font-family="Times-Roman" font-size="8.00">uses</text>
</g>
<!-- L4YAML.Proofs.ScannerCorrectness.skipSpaces_preserves_tokens&#45;&gt;L4YAML.Proofs.ScannerCorrectness.advance_preserves_tokens -->
<g id="edge29" class="edge">
<title>L4YAML.Proofs.ScannerCorrectness.skipSpaces_preserves_tokens&#45;&gt;L4YAML.Proofs.ScannerCorrectness.advance_preserves_tokens</title>
<path fill="none" stroke="#28a745" stroke-width="2" d="M1309.05,-260.58C1257.96,-247.22 1184.14,-227.9 1131.27,-214.07"/>
<polygon fill="#28a745" stroke="#28a745" stroke-width="2" points="1131.68,-211.65 1124.28,-212.25 1130.44,-216.39 1131.68,-211.65"/>
<text text-anchor="middle" x="1236" y="-234.6" font-family="Times-Roman" font-size="8.00">uses</text>
</g>
<!-- L4YAML.Proofs.ScannerCorrectness.ScanHelpers.foldQuotedNewlines_preserves_tokens&#45;&gt;L4YAML.Scanner.foldQuotedNewlines -->
<g id="edge4" class="edge">
<title>L4YAML.Proofs.ScannerCorrectness.ScanHelpers.foldQuotedNewlines_preserves_tokens&#45;&gt;L4YAML.Scanner.foldQuotedNewlines</title>
<path fill="none" stroke="#999999" stroke-dasharray="1,5" d="M875.08,-421.92C819.11,-407.84 738.43,-387.54 683.98,-373.84"/>
<polygon fill="#999999" stroke="#999999" points="684.52,-371.45 677.14,-372.12 683.33,-376.2 684.52,-371.45"/>
<text text-anchor="middle" x="803.5" y="-396.6" font-family="Times-Roman" font-size="8.00">about</text>
</g>
<!-- L4YAML.Proofs.ScannerCorrectness.ScanHelpers.foldQuotedNewlines_preserves_tokens&#45;&gt;L4YAML.Proofs.ScannerCorrectness.skipWhitespace_preserves_tokens -->
<g id="edge35" class="edge">
<title>L4YAML.Proofs.ScannerCorrectness.ScanHelpers.foldQuotedNewlines_preserves_tokens&#45;&gt;L4YAML.Proofs.ScannerCorrectness.skipWhitespace_preserves_tokens</title>
<path fill="none" stroke="#28a745" stroke-width="2" d="M922.94,-420.86C912.08,-409.26 897.63,-393.84 885.88,-381.29"/>
<polygon fill="#28a745" stroke="#28a745" stroke-width="2" points="887.6,-379.54 881.03,-376.11 884.02,-382.89 887.6,-379.54"/>
<text text-anchor="middle" x="914" y="-396.6" font-family="Times-Roman" font-size="8.00">uses</text>
</g>
<!-- L4YAML.Proofs.ScannerCorrectness.ScanHelpers.foldQuotedNewlines_preserves_tokens&#45;&gt;L4YAML.Proofs.ScannerCorrectness.skipSpaces_preserves_tokens -->
<g id="edge15" class="edge">
<title>L4YAML.Proofs.ScannerCorrectness.ScanHelpers.foldQuotedNewlines_preserves_tokens&#45;&gt;L4YAML.Proofs.ScannerCorrectness.skipSpaces_preserves_tokens</title>
<path fill="none" stroke="#28a745" stroke-width="2" d="M1106.81,-429.32C1252.24,-420.04 1443.08,-402.9 1467,-376 1492.3,-347.56 1449.07,-317.04 1412.01,-297.76"/>
<polygon fill="#28a745" stroke="#28a745" stroke-width="2" points="1413,-295.52 1405.65,-294.53 1410.78,-299.88 1413,-295.52"/>
<text text-anchor="middle" x="1484" y="-356.1" font-family="Times-Roman" font-size="8.00">uses</text>
</g>
<!-- L4YAML.Proofs.ScannerCorrectness.ScanHelpers.foldQuotedNewlinesLoop_preserves_tokens -->
<g id="node24" class="node">
<title>L4YAML.Proofs.ScannerCorrectness.ScanHelpers.foldQuotedNewlinesLoop_preserves_tokens</title>
<ellipse fill="#d4edda" stroke="#28a745" cx="1247" cy="-358" rx="211.16" ry="18"/>
<text text-anchor="middle" x="1247" y="-355.5" font-family="Helvetica" font-size="10.00">ScannerCorrectness.ScanHelpers.foldQuotedNewlinesLoop_preserves_tokens</text>
</g>
<!-- L4YAML.Proofs.ScannerCorrectness.ScanHelpers.foldQuotedNewlines_preserves_tokens&#45;&gt;L4YAML.Proofs.ScannerCorrectness.ScanHelpers.foldQuotedNewlinesLoop_preserves_tokens -->
<g id="edge6" class="edge">
<title>L4YAML.Proofs.ScannerCorrectness.ScanHelpers.foldQuotedNewlines_preserves_tokens&#45;&gt;L4YAML.Proofs.ScannerCorrectness.ScanHelpers.foldQuotedNewlinesLoop_preserves_tokens</title>
<path fill="none" stroke="#28a745" stroke-width="2" d="M1002.07,-421.82C1052.85,-408.8 1124.19,-390.5 1176.78,-377.01"/>
<polygon fill="#28a745" stroke="#28a745" stroke-width="2" points="1177.58,-379.34 1183.75,-375.22 1176.36,-374.59 1177.58,-379.34"/>
<text text-anchor="middle" x="1112" y="-396.6" font-family="Times-Roman" font-size="8.00">uses</text>
</g>
<!-- L4YAML.Proofs.ScannerCorrectness.ScanHelpers.foldQuotedNewlinesLoop_preserves_tokens&#45;&gt;L4YAML.Scanner.foldQuotedNewlinesLoop -->
<g id="edge7" class="edge">
<title>L4YAML.Proofs.ScannerCorrectness.ScanHelpers.foldQuotedNewlinesLoop_preserves_tokens&#45;&gt;L4YAML.Scanner.foldQuotedNewlinesLoop</title>
<path fill="none" stroke="#999999" stroke-dasharray="1,5" d="M1096.47,-345.34C966.73,-335.28 799.88,-322.31 798,-322 761.32,-315.95 721.02,-305.91 688.56,-296.94"/>
<polygon fill="#999999" stroke="#999999" points="689.15,-294.57 681.75,-295.05 687.84,-299.29 689.15,-294.57"/>
<text text-anchor="middle" x="810.5" y="-315.6" font-family="Times-Roman" font-size="8.00">about</text>
</g>
<!-- L4YAML.Proofs.ScannerCorrectness.ScanHelpers.foldQuotedNewlinesLoop_preserves_tokens&#45;&gt;L4YAML.Proofs.ScannerCorrectness.consumeNewline_preserves_tokens -->
<g id="edge9" class="edge">
<title>L4YAML.Proofs.ScannerCorrectness.ScanHelpers.foldQuotedNewlinesLoop_preserves_tokens&#45;&gt;L4YAML.Proofs.ScannerCorrectness.consumeNewline_preserves_tokens</title>
<path fill="none" stroke="#28a745" stroke-width="2" d="M1205.43,-340.25C1174.17,-327.65 1131.28,-310.36 1098.64,-297.2"/>
<polygon fill="#28a745" stroke="#28a745" stroke-width="2" points="1099.24,-294.8 1091.83,-294.46 1097.41,-299.35 1099.24,-294.8"/>
<text text-anchor="middle" x="1164" y="-315.6" font-family="Times-Roman" font-size="8.00">uses</text>
</g>
<!-- L4YAML.Proofs.ScannerCorrectness.ScanHelpers.foldQuotedNewlinesLoop_preserves_tokens&#45;&gt;L4YAML.Proofs.ScannerCorrectness.skipSpaces_preserves_tokens -->
<g id="edge26" class="edge">
<title>L4YAML.Proofs.ScannerCorrectness.ScanHelpers.foldQuotedNewlinesLoop_preserves_tokens&#45;&gt;L4YAML.Proofs.ScannerCorrectness.skipSpaces_preserves_tokens</title>
<path fill="none" stroke="#28a745" stroke-width="2" d="M1272.96,-340.05C1291.46,-327.97 1316.44,-311.66 1336.15,-298.79"/>
<polygon fill="#28a745" stroke="#28a745" stroke-width="2" points="1337.56,-300.8 1342.09,-294.92 1334.88,-296.69 1337.56,-300.8"/>
<text text-anchor="middle" x="1321" y="-315.6" font-family="Times-Roman" font-size="8.00">uses</text>
</g>
</g>
</svg>
