<?xml version="1.0" encoding="UTF-8" standalone="no"?>
<!DOCTYPE svg PUBLIC "-//W3C//DTD SVG 1.1//EN"
 "http://www.w3.org/Graphics/SVG/1.1/DTD/svg11.dtd">
<!-- Generated by graphviz version 2.44.0 (0)
 -->
<!-- Title: chain_ScannerCorrectness.ScanHelpers.collectDoubleQuotedLoop_preserves_tokens Pages: 1 -->
<svg width="1686pt" height="648pt"
 viewBox="0.00 0.00 1686.00 648.00" xmlns="http://www.w3.org/2000/svg" xmlns:xlink="http://www.w3.org/1999/xlink">
<g id="graph0" class="graph" transform="scale(1 1) rotate(0) translate(4 644)">
<title>chain_ScannerCorrectness.ScanHelpers.collectDoubleQuotedLoop_preserves_tokens</title>
<polygon fill="white" stroke="transparent" points="-4,4 -4,-644 1682,-644 1682,4 -4,4"/>
<text text-anchor="middle" x="839" y="-625.6" font-family="Helvetica Bold" font-size="13.00">Functorial Chains: ScannerCorrectness.ScanHelpers.collectDoubleQuotedLoop_preserves_tokens</text>
<text text-anchor="middle" x="839" y="-611.6" font-family="Helvetica Bold" font-size="13.00">(heuristic: used by 8 proofs)</text>
<g id="clust1" class="cluster">
<title>cluster_fns</title>
<polygon fill="none" stroke="#4a90d9" stroke-dasharray="5,2" points="8,-8 8,-487 856,-487 856,-8 8,-8"/>
<text text-anchor="middle" x="432" y="-472.6" font-family="Helvetica Bold" font-size="13.00" fill="#4a90d9">Functions (Call Chain)</text>
</g>
<g id="clust2" class="cluster">
<title>cluster_thms</title>
<polygon fill="none" stroke="#28a745" stroke-dasharray="5,2" points="864,-89 864,-596 1670,-596 1670,-89 864,-89"/>
<text text-anchor="middle" x="1267" y="-581.6" font-family="Helvetica Bold" font-size="13.00" fill="#28a745">Theorems (Proof Chain)</text>
</g>
<!-- L4YAML.Scanner.parseHexEscape -->
<g id="node1" class="node">
<title>L4YAML.Scanner.parseHexEscape</title>
<polygon fill="#dce9f7" stroke="#4a90d9" points="676,-214 584,-214 584,-178 676,-178 676,-214"/>
<text text-anchor="middle" x="630" y="-193.5" font-family="Helvetica" font-size="10.00">parseHexEscape</text>
</g>
<!-- L4YAML.Scanner.collectHexDigitsLoop -->
<g id="node10" class="node">
<title>L4YAML.Scanner.collectHexDigitsLoop</title>
<polygon fill="#dce9f7" stroke="#4a90d9" points="611,-133 501,-133 501,-97 611,-97 611,-133"/>
<text text-anchor="middle" x="556" y="-112.5" font-family="Helvetica" font-size="10.00">collectHexDigitsLoop</text>
</g>
<!-- L4YAML.Scanner.parseHexEscape&#45;&gt;L4YAML.Scanner.collectHexDigitsLoop -->
<g id="edge20" class="edge">
<title>L4YAML.Scanner.parseHexEscape&#45;&gt;L4YAML.Scanner.collectHexDigitsLoop</title>
<path fill="none" stroke="#4a90d9" stroke-width="2" d="M613.94,-177.86C603.08,-166.26 588.63,-150.84 576.88,-138.29"/>
<polygon fill="#4a90d9" stroke="#4a90d9" stroke-width="2" points="578.6,-136.54 572.03,-133.11 575.02,-139.89 578.6,-136.54"/>
<text text-anchor="middle" x="604.5" y="-153.6" font-family="Times-Roman" font-size="8.00">calls</text>
</g>
<!-- L4YAML.Scanner.ScannerState.advance -->
<g id="node2" class="node">
<title>L4YAML.Scanner.ScannerState.advance</title>
<polygon fill="#dce9f7" stroke="#4a90d9" points="613.5,-52 498.5,-52 498.5,-16 613.5,-16 613.5,-52"/>
<text text-anchor="middle" x="556" y="-31.5" font-family="Helvetica" font-size="10.00">ScannerState.advance</text>
</g>
<!-- L4YAML.Scanner.ScannerState.peek? -->
<g id="node3" class="node">
<title>L4YAML.Scanner.ScannerState.peek?</title>
<polygon fill="#dce9f7" stroke="#4a90d9" points="286,-52 182,-52 182,-16 286,-16 286,-52"/>
<text text-anchor="middle" x="234" y="-31.5" font-family="Helvetica" font-size="10.00">ScannerState.peek?</text>
</g>
<!-- L4YAML.Scanner.foldQuotedNewlines -->
<g id="node4" class="node">
<title>L4YAML.Scanner.foldQuotedNewlines</title>
<polygon fill="#dce9f7" stroke="#4a90d9" points="837,-376 733,-376 733,-340 837,-340 837,-376"/>
<text text-anchor="middle" x="785" y="-355.5" font-family="Helvetica" font-size="10.00">foldQuotedNewlines</text>
</g>
<!-- L4YAML.Scanner.foldQuotedNewlinesLoop -->
<g id="node9" class="node">
<title>L4YAML.Scanner.foldQuotedNewlinesLoop</title>
<polygon fill="#dce9f7" stroke="#4a90d9" points="847.5,-295 722.5,-295 722.5,-259 847.5,-259 847.5,-295"/>
<text text-anchor="middle" x="785" y="-274.5" font-family="Helvetica" font-size="10.00">foldQuotedNewlinesLoop</text>
</g>
<!-- L4YAML.Scanner.foldQuotedNewlines&#45;&gt;L4YAML.Scanner.foldQuotedNewlinesLoop -->
<g id="edge5" class="edge">
<title>L4YAML.Scanner.foldQuotedNewlines&#45;&gt;L4YAML.Scanner.foldQuotedNewlinesLoop</title>
<path fill="none" stroke="#4a90d9" stroke-width="2" d="M785,-339.86C785,-328.88 785,-314.48 785,-302.33"/>
<polygon fill="#4a90d9" stroke="#4a90d9" stroke-width="2" points="787.45,-302.11 785,-295.11 782.55,-302.11 787.45,-302.11"/>
<text text-anchor="middle" x="794.5" y="-315.6" font-family="Times-Roman" font-size="8.00">calls</text>
</g>
<!-- L4YAML.Scanner.skipSpaces -->
<g id="node11" class="node">
<title>L4YAML.Scanner.skipSpaces</title>
<polygon fill="#dce9f7" stroke="#4a90d9" points="786,-214 718,-214 718,-178 786,-178 786,-214"/>
<text text-anchor="middle" x="752" y="-193.5" font-family="Helvetica" font-size="10.00">skipSpaces</text>
</g>
<!-- L4YAML.Scanner.foldQuotedNewlines&#45;&gt;L4YAML.Scanner.skipSpaces -->
<g id="edge37" class="edge">
<title>L4YAML.Scanner.foldQuotedNewlines&#45;&gt;L4YAML.Scanner.skipSpaces</title>
<path fill="none" stroke="#4a90d9" stroke-width="2" d="M744.28,-339.91C725.69,-329.79 705.5,-314.99 695,-295 680.99,-268.34 704.1,-238.53 724.95,-218.87"/>
<polygon fill="#4a90d9" stroke="#4a90d9" stroke-width="2" points="726.66,-220.62 730.18,-214.1 723.36,-217 726.66,-220.62"/>
<text text-anchor="middle" x="704.5" y="-275.1" font-family="Times-Roman" font-size="8.00">calls</text>
</g>
<!-- L4YAML.Scanner.ScannerState -->
<g id="node5" class="node">
<title>L4YAML.Scanner.ScannerState</title>
<polygon fill="#dce9f7" stroke="#4a90d9" points="708,-52 632,-52 632,-16 708,-16 708,-52"/>
<text text-anchor="middle" x="670" y="-31.5" font-family="Helvetica" font-size="10.00">ScannerState</text>
</g>
<!-- L4YAML.Scanner.skipWhitespaceLoop.match_1 -->
<g id="node6" class="node">
<title>L4YAML.Scanner.skipWhitespaceLoop.match_1</title>
<polygon fill="#dce9f7" stroke="#4a90d9" points="164,-52 16,-52 16,-16 164,-16 164,-52"/>
<text text-anchor="middle" x="90" y="-31.5" font-family="Helvetica" font-size="10.00">skipWhitespaceLoop.match_1</text>
</g>
<!-- L4YAML.Scanner.collectDoubleQuotedLoop -->
<g id="node7" class="node">
<title>L4YAML.Scanner.collectDoubleQuotedLoop</title>
<polygon fill="#dce9f7" stroke="#4a90d9" points="848,-457 720,-457 720,-421 848,-421 848,-457"/>
<text text-anchor="middle" x="784" y="-436.5" font-family="Helvetica" font-size="10.00">collectDoubleQuotedLoop</text>
</g>
<!-- L4YAML.Scanner.collectDoubleQuotedLoop&#45;&gt;L4YAML.Scanner.foldQuotedNewlines -->
<g id="edge2" class="edge">
<title>L4YAML.Scanner.collectDoubleQuotedLoop&#45;&gt;L4YAML.Scanner.foldQuotedNewlines</title>
<path fill="none" stroke="#4a90d9" stroke-width="2" d="M784.22,-420.86C784.36,-409.88 784.54,-395.48 784.69,-383.33"/>
<polygon fill="#4a90d9" stroke="#4a90d9" stroke-width="2" points="787.14,-383.14 784.78,-376.11 782.24,-383.08 787.14,-383.14"/>
<text text-anchor="middle" x="793.5" y="-396.6" font-family="Times-Roman" font-size="8.00">calls</text>
</g>
<!-- L4YAML.Scanner.processEscape -->
<g id="node12" class="node">
<title>L4YAML.Scanner.processEscape</title>
<polygon fill="#dce9f7" stroke="#4a90d9" points="715,-376 631,-376 631,-340 715,-340 715,-376"/>
<text text-anchor="middle" x="673" y="-355.5" font-family="Helvetica" font-size="10.00">processEscape</text>
</g>
<!-- L4YAML.Scanner.collectDoubleQuotedLoop&#45;&gt;L4YAML.Scanner.processEscape -->
<g id="edge14" class="edge">
<title>L4YAML.Scanner.collectDoubleQuotedLoop&#45;&gt;L4YAML.Scanner.processEscape</title>
<path fill="none" stroke="#4a90d9" stroke-width="2" d="M759.91,-420.86C743.19,-408.95 720.78,-393.01 702.91,-380.29"/>
<polygon fill="#4a90d9" stroke="#4a90d9" stroke-width="2" points="704.16,-378.17 697.04,-376.11 701.32,-382.16 704.16,-378.17"/>
<text text-anchor="middle" x="740.5" y="-396.6" font-family="Times-Roman" font-size="8.00">calls</text>
</g>
<!-- L4YAML.Scanner.skipSpacesLoop -->
<g id="node8" class="node">
<title>L4YAML.Scanner.skipSpacesLoop</title>
<polygon fill="#dce9f7" stroke="#4a90d9" points="796.5,-133 707.5,-133 707.5,-97 796.5,-97 796.5,-133"/>
<text text-anchor="middle" x="752" y="-112.5" font-family="Helvetica" font-size="10.00">skipSpacesLoop</text>
</g>
<!-- L4YAML.Scanner.skipSpacesLoop&#45;&gt;L4YAML.Scanner.ScannerState -->
<g id="edge44" class="edge">
<title>L4YAML.Scanner.skipSpacesLoop&#45;&gt;L4YAML.Scanner.ScannerState</title>
<path fill="none" stroke="#4a90d9" stroke-width="2" d="M734.21,-96.86C722.17,-85.26 706.16,-69.84 693.14,-57.29"/>
<polygon fill="#4a90d9" stroke="#4a90d9" stroke-width="2" points="694.5,-55.2 687.76,-52.11 691.1,-58.73 694.5,-55.2"/>
<text text-anchor="middle" x="722.5" y="-72.6" font-family="Times-Roman" font-size="8.00">calls</text>
</g>
<!-- L4YAML.Scanner.skipSpacesLoop._unary -->
<g id="node14" class="node">
<title>L4YAML.Scanner.skipSpacesLoop._unary</title>
<polygon fill="#dce9f7" stroke="#4a90d9" points="848,-52 726,-52 726,-16 848,-16 848,-52"/>
<text text-anchor="middle" x="787" y="-31.5" font-family="Helvetica" font-size="10.00">skipSpacesLoop._unary</text>
</g>
<!-- L4YAML.Scanner.skipSpacesLoop&#45;&gt;L4YAML.Scanner.skipSpacesLoop._unary -->
<g id="edge41" class="edge">
<title>L4YAML.Scanner.skipSpacesLoop&#45;&gt;L4YAML.Scanner.skipSpacesLoop._unary</title>
<path fill="none" stroke="#4a90d9" stroke-width="2" d="M747.16,-96.64C745.73,-88.27 745.37,-78.27 749,-70 750.98,-65.47 753.87,-61.28 757.19,-57.47"/>
<polygon fill="#4a90d9" stroke="#4a90d9" stroke-width="2" points="759.19,-58.93 762.29,-52.19 755.67,-55.52 759.19,-58.93"/>
<text text-anchor="middle" x="758.5" y="-72.6" font-family="Times-Roman" font-size="8.00">calls</text>
</g>
<!-- L4YAML.Scanner.foldQuotedNewlinesLoop&#45;&gt;L4YAML.Scanner.skipSpaces -->
<g id="edge8" class="edge">
<title>L4YAML.Scanner.foldQuotedNewlinesLoop&#45;&gt;L4YAML.Scanner.skipSpaces</title>
<path fill="none" stroke="#4a90d9" stroke-width="2" d="M777.84,-258.86C773.17,-247.68 767.01,-232.93 761.88,-220.64"/>
<polygon fill="#4a90d9" stroke="#4a90d9" stroke-width="2" points="764.11,-219.62 759.15,-214.11 759.58,-221.51 764.11,-219.62"/>
<text text-anchor="middle" x="778.5" y="-234.6" font-family="Times-Roman" font-size="8.00">calls</text>
</g>
<!-- L4YAML.Scanner.collectHexDigitsLoop&#45;&gt;L4YAML.Scanner.ScannerState.advance -->
<g id="edge23" class="edge">
<title>L4YAML.Scanner.collectHexDigitsLoop&#45;&gt;L4YAML.Scanner.ScannerState.advance</title>
<path fill="none" stroke="#4a90d9" stroke-width="2" d="M556,-96.86C556,-85.88 556,-71.48 556,-59.33"/>
<polygon fill="#4a90d9" stroke="#4a90d9" stroke-width="2" points="558.45,-59.11 556,-52.11 553.55,-59.11 558.45,-59.11"/>
<text text-anchor="middle" x="565.5" y="-72.6" font-family="Times-Roman" font-size="8.00">calls</text>
</g>
<!-- L4YAML.Scanner.collectHexDigitsLoop&#45;&gt;L4YAML.Scanner.ScannerState.peek? -->
<g id="edge26" class="edge">
<title>L4YAML.Scanner.collectHexDigitsLoop&#45;&gt;L4YAML.Scanner.ScannerState.peek?</title>
<path fill="none" stroke="#4a90d9" stroke-width="2" d="M500.86,-101.55C447.93,-89.45 365.8,-70.27 295,-52 294.37,-51.84 293.74,-51.67 293.1,-51.51"/>
<polygon fill="#4a90d9" stroke="#4a90d9" stroke-width="2" points="293.6,-49.11 286.21,-49.69 292.35,-53.84 293.6,-49.11"/>
<text text-anchor="middle" x="411.5" y="-72.6" font-family="Times-Roman" font-size="8.00">calls</text>
</g>
<!-- L4YAML.Scanner.collectHexDigitsLoop&#45;&gt;L4YAML.Scanner.ScannerState -->
<g id="edge31" class="edge">
<title>L4YAML.Scanner.collectHexDigitsLoop&#45;&gt;L4YAML.Scanner.ScannerState</title>
<path fill="none" stroke="#4a90d9" stroke-width="2" d="M580.74,-96.86C597.92,-84.95 620.93,-69.01 639.28,-56.29"/>
<polygon fill="#4a90d9" stroke="#4a90d9" stroke-width="2" points="640.95,-58.11 645.31,-52.11 638.16,-54.08 640.95,-58.11"/>
<text text-anchor="middle" x="625.5" y="-72.6" font-family="Times-Roman" font-size="8.00">calls</text>
</g>
<!-- L4YAML.Scanner.collectHexDigitsLoop&#45;&gt;L4YAML.Scanner.skipWhitespaceLoop.match_1 -->
<g id="edge29" class="edge">
<title>L4YAML.Scanner.collectHexDigitsLoop&#45;&gt;L4YAML.Scanner.skipWhitespaceLoop.match_1</title>
<path fill="none" stroke="#4a90d9" stroke-width="2" d="M500.7,-105.79C426.13,-94.54 289.28,-73.31 173,-52 172.37,-51.88 171.73,-51.77 171.09,-51.65"/>
<polygon fill="#4a90d9" stroke="#4a90d9" stroke-width="2" points="171.51,-49.24 164.18,-50.35 170.61,-54.05 171.51,-49.24"/>
<text text-anchor="middle" x="329.5" y="-72.6" font-family="Times-Roman" font-size="8.00">calls</text>
</g>
<!-- L4YAML.Scanner.ScannerState.peekAt?Loop.match_1 -->
<g id="node13" class="node">
<title>L4YAML.Scanner.ScannerState.peekAt?Loop.match_1</title>
<polygon fill="#dce9f7" stroke="#4a90d9" points="480,-52 304,-52 304,-16 480,-16 480,-52"/>
<text text-anchor="middle" x="392" y="-31.5" font-family="Helvetica" font-size="10.00">ScannerState.peekAt?Loop.match_1</text>
</g>
<!-- L4YAML.Scanner.collectHexDigitsLoop&#45;&gt;L4YAML.Scanner.ScannerState.peekAt?Loop.match_1 -->
<g id="edge33" class="edge">
<title>L4YAML.Scanner.collectHexDigitsLoop&#45;&gt;L4YAML.Scanner.ScannerState.peekAt?Loop.match_1</title>
<path fill="none" stroke="#4a90d9" stroke-width="2" d="M520.41,-96.86C495.06,-84.64 460.87,-68.17 434.14,-55.3"/>
<polygon fill="#4a90d9" stroke="#4a90d9" stroke-width="2" points="434.89,-52.94 427.52,-52.11 432.76,-57.35 434.89,-52.94"/>
<text text-anchor="middle" x="487.5" y="-72.6" font-family="Times-Roman" font-size="8.00">calls</text>
</g>
<!-- L4YAML.Scanner.skipSpaces&#45;&gt;L4YAML.Scanner.ScannerState -->
<g id="edge11" class="edge">
<title>L4YAML.Scanner.skipSpaces&#45;&gt;L4YAML.Scanner.ScannerState</title>
<path fill="none" stroke="#4a90d9" stroke-width="2" d="M722.96,-177.79C707.48,-166.98 689.69,-151.57 680,-133 668.02,-110.04 666.72,-79.96 667.65,-59.21"/>
<polygon fill="#4a90d9" stroke="#4a90d9" stroke-width="2" points="670.1,-59.15 668.08,-52.02 665.21,-58.86 670.1,-59.15"/>
<text text-anchor="middle" x="689.5" y="-113.1" font-family="Times-Roman" font-size="8.00">calls</text>
</g>
<!-- L4YAML.Scanner.skipSpaces&#45;&gt;L4YAML.Scanner.skipSpacesLoop -->
<g id="edge39" class="edge">
<title>L4YAML.Scanner.skipSpaces&#45;&gt;L4YAML.Scanner.skipSpacesLoop</title>
<path fill="none" stroke="#4a90d9" stroke-width="2" d="M752,-177.86C752,-166.88 752,-152.48 752,-140.33"/>
<polygon fill="#4a90d9" stroke="#4a90d9" stroke-width="2" points="754.45,-140.11 752,-133.11 749.55,-140.11 754.45,-140.11"/>
<text text-anchor="middle" x="761.5" y="-153.6" font-family="Times-Roman" font-size="8.00">calls</text>
</g>
<!-- L4YAML.Scanner.processEscape&#45;&gt;L4YAML.Scanner.parseHexEscape -->
<g id="edge17" class="edge">
<title>L4YAML.Scanner.processEscape&#45;&gt;L4YAML.Scanner.parseHexEscape</title>
<path fill="none" stroke="#4a90d9" stroke-width="2" d="M668.4,-339.88C660.74,-311.4 645.37,-254.2 636.58,-221.47"/>
<polygon fill="#4a90d9" stroke="#4a90d9" stroke-width="2" points="638.88,-220.61 634.7,-214.48 634.15,-221.88 638.88,-220.61"/>
<text text-anchor="middle" x="664.5" y="-275.1" font-family="Times-Roman" font-size="8.00">calls</text>
</g>
<!-- L4YAML.Scanner.skipSpacesLoop.eq_def -->
<g id="node15" class="node">
<title>L4YAML.Scanner.skipSpacesLoop.eq_def</title>
<ellipse fill="#d4edda" stroke="#28a745" cx="1427" cy="-196" rx="71.46" ry="18"/>
<text text-anchor="middle" x="1427" y="-193.5" font-family="Helvetica" font-size="10.00">skipSpacesLoop.eq_def</text>
</g>
<!-- L4YAML.Scanner.skipSpacesLoop.eq_def&#45;&gt;L4YAML.Scanner.ScannerState -->
<g id="edge13" class="edge">
<title>L4YAML.Scanner.skipSpacesLoop.eq_def&#45;&gt;L4YAML.Scanner.ScannerState</title>
<path fill="none" stroke="#999999" stroke-dasharray="1,5" d="M1469.69,-181.54C1492.52,-171.91 1518.62,-156.44 1532,-133 1541.69,-116.02 1545.15,-103.48 1532,-89 1472.86,-23.88 1422.79,-75.51 1335,-70 1197.88,-61.4 851.97,-77.69 717,-52 716.37,-51.88 715.73,-51.75 715.09,-51.62"/>
<polygon fill="#999999" stroke="#999999" points="715.58,-49.21 708.19,-49.94 714.42,-53.97 715.58,-49.21"/>
<text text-anchor="middle" x="1552.5" y="-113.1" font-family="Times-Roman" font-size="8.00">about</text>
</g>
<!-- L4YAML.Scanner.skipSpacesLoop.eq_def&#45;&gt;L4YAML.Scanner.skipSpacesLoop -->
<g id="edge40" class="edge">
<title>L4YAML.Scanner.skipSpacesLoop.eq_def&#45;&gt;L4YAML.Scanner.skipSpacesLoop</title>
<path fill="none" stroke="#999999" stroke-dasharray="1,5" d="M1365.75,-186.73C1341.29,-183.64 1312.85,-180.33 1287,-178 1151.76,-165.81 1116.75,-176.79 982,-160 920.22,-152.3 850.05,-138.07 803.64,-127.87"/>
<polygon fill="#999999" stroke="#999999" points="804.04,-125.45 796.68,-126.34 802.99,-130.24 804.04,-125.45"/>
<text text-anchor="middle" x="994.5" y="-153.6" font-family="Times-Roman" font-size="8.00">about</text>
</g>
<!-- L4YAML.Scanner.skipSpacesLoop._unary.eq_def -->
<g id="node22" class="node">
<title>L4YAML.Scanner.skipSpacesLoop._unary.eq_def</title>
<ellipse fill="#d4edda" stroke="#28a745" cx="1433" cy="-115" rx="90.13" ry="18"/>
<text text-anchor="middle" x="1433" y="-112.5" font-family="Helvetica" font-size="10.00">skipSpacesLoop._unary.eq_def</text>
</g>
<!-- L4YAML.Scanner.skipSpacesLoop.eq_def&#45;&gt;L4YAML.Scanner.skipSpacesLoop._unary.eq_def -->
<g id="edge42" class="edge">
<title>L4YAML.Scanner.skipSpacesLoop.eq_def&#45;&gt;L4YAML.Scanner.skipSpacesLoop._unary.eq_def</title>
<path fill="none" stroke="#28a745" stroke-width="2" d="M1428.3,-177.86C1429.14,-166.88 1430.23,-152.48 1431.15,-140.33"/>
<polygon fill="#28a745" stroke="#28a745" stroke-width="2" points="1433.61,-140.27 1431.7,-133.11 1428.73,-139.9 1433.61,-140.27"/>
<text text-anchor="middle" x="1440" y="-153.6" font-family="Times-Roman" font-size="8.00">uses</text>
</g>
<!-- L4YAML.Proofs.ScannerCorrectness.ScanHelpers.collectHexDigitsLoop_preserves_tokens -->
<g id="node16" class="node">
<title>L4YAML.Proofs.ScannerCorrectness.ScanHelpers.collectHexDigitsLoop_preserves_tokens</title>
<ellipse fill="#d4edda" stroke="#28a745" cx="1075" cy="-196" rx="202.5" ry="18"/>
<text text-anchor="middle" x="1075" y="-193.5" font-family="Helvetica" font-size="10.00">ScannerCorrectness.ScanHelpers.collectHexDigitsLoop_preserves_tokens</text>
</g>
<!-- L4YAML.Proofs.ScannerCorrectness.ScanHelpers.collectHexDigitsLoop_preserves_tokens&#45;&gt;L4YAML.Scanner.collectHexDigitsLoop -->
<g id="edge22" class="edge">
<title>L4YAML.Proofs.ScannerCorrectness.ScanHelpers.collectHexDigitsLoop_preserves_tokens&#45;&gt;L4YAML.Scanner.collectHexDigitsLoop</title>
<path fill="none" stroke="#999999" stroke-dasharray="1,5" d="M975.36,-180.26C916.98,-171.66 841.82,-160.64 775,-151 718.58,-142.86 704.26,-142.18 648,-133 638.45,-131.44 628.37,-129.69 618.52,-127.92"/>
<polygon fill="#999999" stroke="#999999" points="618.72,-125.46 611.4,-126.62 617.85,-130.28 618.72,-125.46"/>
<text text-anchor="middle" x="844.5" y="-153.6" font-family="Times-Roman" font-size="8.00">about</text>
</g>
<!-- L4YAML.Scanner.collectHexDigitsLoop.eq_def -->
<g id="node17" class="node">
<title>L4YAML.Scanner.collectHexDigitsLoop.eq_def</title>
<ellipse fill="#d4edda" stroke="#28a745" cx="956" cy="-115" rx="83.68" ry="18"/>
<text text-anchor="middle" x="956" y="-112.5" font-family="Helvetica" font-size="10.00">collectHexDigitsLoop.eq_def</text>
</g>
<!-- L4YAML.Proofs.ScannerCorrectness.ScanHelpers.collectHexDigitsLoop_preserves_tokens&#45;&gt;L4YAML.Scanner.collectHexDigitsLoop.eq_def -->
<g id="edge27" class="edge">
<title>L4YAML.Proofs.ScannerCorrectness.ScanHelpers.collectHexDigitsLoop_preserves_tokens&#45;&gt;L4YAML.Scanner.collectHexDigitsLoop.eq_def</title>
<path fill="none" stroke="#28a745" stroke-width="2" d="M1049.47,-178.05C1031.03,-165.81 1006.04,-149.22 986.53,-136.27"/>
<polygon fill="#28a745" stroke="#28a745" stroke-width="2" points="987.86,-134.21 980.67,-132.38 985.15,-138.29 987.86,-134.21"/>
<text text-anchor="middle" x="1029" y="-153.6" font-family="Times-Roman" font-size="8.00">uses</text>
</g>
<!-- L4YAML.Proofs.ScannerCorrectness.advance_preserves_tokens -->
<g id="node18" class="node">
<title>L4YAML.Proofs.ScannerCorrectness.advance_preserves_tokens</title>
<ellipse fill="#d4edda" stroke="#28a745" cx="1191" cy="-115" rx="133.75" ry="18"/>
<text text-anchor="middle" x="1191" y="-112.5" font-family="Helvetica" font-size="10.00">ScannerCorrectness.advance_preserves_tokens</text>
</g>
<!-- L4YAML.Proofs.ScannerCorrectness.ScanHelpers.collectHexDigitsLoop_preserves_tokens&#45;&gt;L4YAML.Proofs.ScannerCorrectness.advance_preserves_tokens -->
<g id="edge24" class="edge">
<title>L4YAML.Proofs.ScannerCorrectness.ScanHelpers.collectHexDigitsLoop_preserves_tokens&#45;&gt;L4YAML.Proofs.ScannerCorrectness.advance_preserves_tokens</title>
<path fill="none" stroke="#28a745" stroke-width="2" d="M1099.88,-178.05C1117.47,-166.08 1141.16,-149.94 1159.98,-137.13"/>
<polygon fill="#28a745" stroke="#28a745" stroke-width="2" points="1161.75,-138.88 1166.16,-132.92 1158.99,-134.83 1161.75,-138.88"/>
<text text-anchor="middle" x="1146" y="-153.6" font-family="Times-Roman" font-size="8.00">uses</text>
</g>
<!-- L4YAML.Scanner.collectHexDigitsLoop.eq_def&#45;&gt;L4YAML.Scanner.ScannerState.advance -->
<g id="edge35" class="edge">
<title>L4YAML.Scanner.collectHexDigitsLoop.eq_def&#45;&gt;L4YAML.Scanner.ScannerState.advance</title>
<path fill="none" stroke="#999999" stroke-dasharray="1,5" d="M944.18,-97.16C936.29,-87.38 925,-75.86 912,-70 853.35,-43.54 686.57,-61.96 623,-52 622.23,-51.88 621.45,-51.75 620.68,-51.62"/>
<polygon fill="#999999" stroke="#999999" points="620.93,-49.18 613.6,-50.34 620.05,-54 620.93,-49.18"/>
<text text-anchor="middle" x="938.5" y="-72.6" font-family="Times-Roman" font-size="8.00">about</text>
</g>
<!-- L4YAML.Scanner.collectHexDigitsLoop.eq_def&#45;&gt;L4YAML.Scanner.ScannerState.peek? -->
<g id="edge28" class="edge">
<title>L4YAML.Scanner.collectHexDigitsLoop.eq_def&#45;&gt;L4YAML.Scanner.ScannerState.peek?</title>
<path fill="none" stroke="#999999" stroke-dasharray="1,5" d="M903.88,-100.9C882.31,-94.97 857.19,-87.4 835,-79 826.26,-75.69 825.08,-72.21 816,-70 703.43,-42.64 409.49,-69.67 295,-52 294.36,-51.9 293.71,-51.8 293.07,-51.69"/>
<polygon fill="#999999" stroke="#999999" points="293.4,-49.26 286.07,-50.39 292.5,-54.08 293.4,-49.26"/>
<text text-anchor="middle" x="847.5" y="-72.6" font-family="Times-Roman" font-size="8.00">about</text>
</g>
<!-- L4YAML.Scanner.collectHexDigitsLoop.eq_def&#45;&gt;L4YAML.Scanner.ScannerState -->
<g id="edge32" class="edge">
<title>L4YAML.Scanner.collectHexDigitsLoop.eq_def&#45;&gt;L4YAML.Scanner.ScannerState</title>
<path fill="none" stroke="#999999" stroke-dasharray="1,5" d="M963.13,-96.96C965.71,-87.85 966.58,-77.08 960,-70 941.58,-50.16 743.48,-57.66 717,-52 716.37,-51.87 715.73,-51.72 715.1,-51.58"/>
<polygon fill="#999999" stroke="#999999" points="715.62,-49.18 708.22,-49.79 714.38,-53.92 715.62,-49.18"/>
<text text-anchor="middle" x="976.5" y="-72.6" font-family="Times-Roman" font-size="8.00">about</text>
</g>
<!-- L4YAML.Scanner.collectHexDigitsLoop.eq_def&#45;&gt;L4YAML.Scanner.skipWhitespaceLoop.match_1 -->
<g id="edge30" class="edge">
<title>L4YAML.Scanner.collectHexDigitsLoop.eq_def&#45;&gt;L4YAML.Scanner.skipWhitespaceLoop.match_1</title>
<path fill="none" stroke="#999999" stroke-dasharray="1,5" d="M907.42,-100.15C892.31,-96.17 875.54,-92.08 860,-89 827.88,-82.64 818.39,-88.34 787,-79 778.04,-76.33 777.08,-72.19 768,-70 639.39,-39.03 304.39,-67.33 173,-52 172.36,-51.93 171.72,-51.85 171.08,-51.77"/>
<polygon fill="#999999" stroke="#999999" points="171.37,-49.34 164.11,-50.84 170.72,-54.19 171.37,-49.34"/>
<text text-anchor="middle" x="799.5" y="-72.6" font-family="Times-Roman" font-size="8.00">about</text>
</g>
<!-- L4YAML.Scanner.collectHexDigitsLoop.eq_def&#45;&gt;L4YAML.Scanner.ScannerState.peekAt?Loop.match_1 -->
<g id="edge34" class="edge">
<title>L4YAML.Scanner.collectHexDigitsLoop.eq_def&#45;&gt;L4YAML.Scanner.ScannerState.peekAt?Loop.match_1</title>
<path fill="none" stroke="#999999" stroke-dasharray="1,5" d="M923.5,-98.41C897.19,-85.8 864.41,-70.1 864,-70 783.32,-49.65 572.71,-61.13 490,-52 489.08,-51.9 488.16,-51.79 487.24,-51.69"/>
<polygon fill="#999999" stroke="#999999" points="487.32,-49.23 480.08,-50.81 486.72,-54.09 487.32,-49.23"/>
<text text-anchor="middle" x="893.5" y="-72.6" font-family="Times-Roman" font-size="8.00">about</text>
</g>
<!-- L4YAML.Proofs.ScannerCorrectness.advance_preserves_tokens&#45;&gt;L4YAML.Scanner.ScannerState.advance -->
<g id="edge25" class="edge">
<title>L4YAML.Proofs.ScannerCorrectness.advance_preserves_tokens&#45;&gt;L4YAML.Scanner.ScannerState.advance</title>
<path fill="none" stroke="#999999" stroke-dasharray="1,5" d="M1134.28,-98.7C1094.94,-88.75 1041.16,-76.47 993,-70 829.83,-48.06 785.83,-76.37 623,-52 622.23,-51.88 621.45,-51.76 620.67,-51.64"/>
<polygon fill="#999999" stroke="#999999" points="620.91,-49.19 613.59,-50.39 620.06,-54.02 620.91,-49.19"/>
<text text-anchor="middle" x="1054.5" y="-72.6" font-family="Times-Roman" font-size="8.00">about</text>
</g>
<!-- L4YAML.Proofs.ScannerCorrectness.advance_preserves_tokens&#45;&gt;L4YAML.Scanner.ScannerState -->
<g id="edge36" class="edge">
<title>L4YAML.Proofs.ScannerCorrectness.advance_preserves_tokens&#45;&gt;L4YAML.Scanner.ScannerState</title>
<path fill="none" stroke="#999999" stroke-dasharray="1,5" d="M1160.93,-97.29C1141.59,-87.43 1115.55,-75.78 1091,-70 929.02,-31.85 880.18,-84.67 717,-52 716.37,-51.87 715.73,-51.74 715.09,-51.6"/>
<polygon fill="#999999" stroke="#999999" points="715.59,-49.2 708.21,-49.87 714.4,-53.95 715.59,-49.2"/>
<text text-anchor="middle" x="1131.5" y="-72.6" font-family="Times-Roman" font-size="8.00">about</text>
</g>
<!-- L4YAML.Proofs.ScannerCorrectness.ScanHelpers.processEscape_preserves_tokens -->
<g id="node19" class="node">
<title>L4YAML.Proofs.ScannerCorrectness.ScanHelpers.processEscape_preserves_tokens</title>
<ellipse fill="#d4edda" stroke="#28a745" cx="1059" cy="-439" rx="187.39" ry="18"/>
<text text-anchor="middle" x="1059" y="-436.5" font-family="Helvetica" font-size="10.00">ScannerCorrectness.ScanHelpers.processEscape_preserves_tokens</text>
</g>
<!-- L4YAML.Proofs.ScannerCorrectness.ScanHelpers.processEscape_preserves_tokens&#45;&gt;L4YAML.Scanner.processEscape -->
<g id="edge16" class="edge">
<title>L4YAML.Proofs.ScannerCorrectness.ScanHelpers.processEscape_preserves_tokens&#45;&gt;L4YAML.Scanner.processEscape</title>
<path fill="none" stroke="#999999" stroke-dasharray="1,5" d="M970.77,-423.1C887.73,-408.82 769.53,-387.74 724,-376 723.37,-375.84 722.73,-375.67 722.09,-375.5"/>
<polygon fill="#999999" stroke="#999999" points="722.57,-373.09 715.17,-373.56 721.24,-377.81 722.57,-373.09"/>
<text text-anchor="middle" x="867.5" y="-396.6" font-family="Times-Roman" font-size="8.00">about</text>
</g>
<!-- L4YAML.Proofs.ScannerCorrectness.ScanHelpers.parseHexEscape_preserves_tokens -->
<g id="node20" class="node">
<title>L4YAML.Proofs.ScannerCorrectness.ScanHelpers.parseHexEscape_preserves_tokens</title>
<ellipse fill="#d4edda" stroke="#28a745" cx="1064" cy="-277" rx="191.81" ry="18"/>
<text text-anchor="middle" x="1064" y="-274.5" font-family="Helvetica" font-size="10.00">ScannerCorrectness.ScanHelpers.parseHexEscape_preserves_tokens</text>
</g>
<!-- L4YAML.Proofs.ScannerCorrectness.ScanHelpers.processEscape_preserves_tokens&#45;&gt;L4YAML.Proofs.ScannerCorrectness.ScanHelpers.parseHexEscape_preserves_tokens -->
<g id="edge18" class="edge">
<title>L4YAML.Proofs.ScannerCorrectness.ScanHelpers.processEscape_preserves_tokens&#45;&gt;L4YAML.Proofs.ScannerCorrectness.ScanHelpers.parseHexEscape_preserves_tokens</title>
<path fill="none" stroke="#28a745" stroke-width="2" d="M1059.54,-420.88C1060.42,-392.52 1062.2,-335.68 1063.22,-302.88"/>
<polygon fill="#28a745" stroke="#28a745" stroke-width="2" points="1065.68,-302.56 1063.45,-295.48 1060.79,-302.4 1065.68,-302.56"/>
<text text-anchor="middle" x="1071" y="-356.1" font-family="Times-Roman" font-size="8.00">uses</text>
</g>
<!-- L4YAML.Proofs.ScannerCorrectness.ScanHelpers.parseHexEscape_preserves_tokens&#45;&gt;L4YAML.Scanner.parseHexEscape -->
<g id="edge19" class="edge">
<title>L4YAML.Proofs.ScannerCorrectness.ScanHelpers.parseHexEscape_preserves_tokens&#45;&gt;L4YAML.Scanner.parseHexEscape</title>
<path fill="none" stroke="#999999" stroke-dasharray="1,5" d="M972.99,-261.11C901.16,-249.12 798.51,-231.44 709,-214 700.63,-212.37 691.79,-210.56 683.16,-208.74"/>
<polygon fill="#999999" stroke="#999999" points="683.66,-206.34 676.31,-207.28 682.64,-211.13 683.66,-206.34"/>
<text text-anchor="middle" x="867.5" y="-234.6" font-family="Times-Roman" font-size="8.00">about</text>
</g>
<!-- L4YAML.Proofs.ScannerCorrectness.ScanHelpers.parseHexEscape_preserves_tokens&#45;&gt;L4YAML.Proofs.ScannerCorrectness.ScanHelpers.collectHexDigitsLoop_preserves_tokens -->
<g id="edge21" class="edge">
<title>L4YAML.Proofs.ScannerCorrectness.ScanHelpers.parseHexEscape_preserves_tokens&#45;&gt;L4YAML.Proofs.ScannerCorrectness.ScanHelpers.collectHexDigitsLoop_preserves_tokens</title>
<path fill="none" stroke="#28a745" stroke-width="2" d="M1066.39,-258.86C1067.91,-247.88 1069.92,-233.48 1071.61,-221.33"/>
<polygon fill="#28a745" stroke="#28a745" stroke-width="2" points="1074.08,-221.38 1072.62,-214.11 1069.23,-220.7 1074.08,-221.38"/>
<text text-anchor="middle" x="1079" y="-234.6" font-family="Times-Roman" font-size="8.00">uses</text>
</g>
<!-- L4YAML.Proofs.ScannerCorrectness.ScanHelpers.collectDoubleQuotedLoop_preserves_tokens -->
<g id="node21" class="node">
<title>L4YAML.Proofs.ScannerCorrectness.ScanHelpers.collectDoubleQuotedLoop_preserves_tokens</title>
<polygon fill="#fff3cd" stroke="#d4a017" points="1337.8,-536.54 1337.8,-551.46 1202.6,-562 1011.4,-562 876.2,-551.46 876.2,-536.54 1011.4,-526 1202.6,-526 1337.8,-536.54"/>
<polygon fill="none" stroke="#d4a017" points="1341.81,-532.84 1341.81,-555.16 1202.76,-566 1011.24,-566 872.19,-555.16 872.19,-532.84 1011.24,-522 1202.76,-522 1341.81,-532.84"/>
<text text-anchor="middle" x="1107" y="-541.5" font-family="Helvetica" font-size="10.00">ScannerCorrectness.ScanHelpers.collectDoubleQuotedLoop_preserves_tokens</text>
</g>
<!-- L4YAML.Proofs.ScannerCorrectness.ScanHelpers.collectDoubleQuotedLoop_preserves_tokens&#45;&gt;L4YAML.Scanner.collectDoubleQuotedLoop -->
<g id="edge1" class="edge">
<title>L4YAML.Proofs.ScannerCorrectness.ScanHelpers.collectDoubleQuotedLoop_preserves_tokens&#45;&gt;L4YAML.Scanner.collectDoubleQuotedLoop</title>
<path fill="none" stroke="#999999" stroke-dasharray="1,5" d="M986.14,-523.92C945.19,-515.29 899.78,-503.28 860,-487 843.69,-480.33 826.89,-470.32 813.24,-461.25"/>
<polygon fill="#999999" stroke="#999999" points="814.38,-459.06 807.21,-457.17 811.63,-463.12 814.38,-459.06"/>
<text text-anchor="middle" x="917.5" y="-497.6" font-family="Times-Roman" font-size="8.00">about</text>
</g>
<!-- L4YAML.Proofs.ScannerCorrectness.ScanHelpers.collectDoubleQuotedLoop_preserves_tokens&#45;&gt;L4YAML.Proofs.ScannerCorrectness.ScanHelpers.processEscape_preserves_tokens -->
<g id="edge15" class="edge">
<title>L4YAML.Proofs.ScannerCorrectness.ScanHelpers.collectDoubleQuotedLoop_preserves_tokens&#45;&gt;L4YAML.Proofs.ScannerCorrectness.ScanHelpers.processEscape_preserves_tokens</title>
<path fill="none" stroke="#28a745" stroke-width="2" d="M1097.05,-521.66C1089.2,-504.8 1078.24,-481.3 1070.1,-463.83"/>
<polygon fill="#28a745" stroke="#28a745" stroke-width="2" points="1072.2,-462.53 1067.03,-457.22 1067.76,-464.6 1072.2,-462.53"/>
<text text-anchor="middle" x="1098" y="-497.6" font-family="Times-Roman" font-size="8.00">uses</text>
</g>
<!-- L4YAML.Proofs.ScannerCorrectness.ScanHelpers.foldQuotedNewlines_preserves_tokens -->
<g id="node24" class="node">
<title>L4YAML.Proofs.ScannerCorrectness.ScanHelpers.foldQuotedNewlines_preserves_tokens</title>
<ellipse fill="#d4edda" stroke="#28a745" cx="1463" cy="-439" rx="198.94" ry="18"/>
<text text-anchor="middle" x="1463" y="-436.5" font-family="Helvetica" font-size="10.00">ScannerCorrectness.ScanHelpers.foldQuotedNewlines_preserves_tokens</text>
</g>
<!-- L4YAML.Proofs.ScannerCorrectness.ScanHelpers.collectDoubleQuotedLoop_preserves_tokens&#45;&gt;L4YAML.Proofs.ScannerCorrectness.ScanHelpers.foldQuotedNewlines_preserves_tokens -->
<g id="edge3" class="edge">
<title>L4YAML.Proofs.ScannerCorrectness.ScanHelpers.collectDoubleQuotedLoop_preserves_tokens&#45;&gt;L4YAML.Proofs.ScannerCorrectness.ScanHelpers.foldQuotedNewlines_preserves_tokens</title>
<path fill="none" stroke="#28a745" stroke-width="2" d="M1179.9,-521.91C1244.54,-503.21 1337.99,-476.17 1399.59,-458.35"/>
<polygon fill="#28a745" stroke="#28a745" stroke-width="2" points="1400.52,-460.63 1406.56,-456.33 1399.16,-455.92 1400.52,-460.63"/>
<text text-anchor="middle" x="1273" y="-497.6" font-family="Times-Roman" font-size="8.00">uses</text>
</g>
<!-- L4YAML.Scanner.skipSpacesLoop._unary.eq_def&#45;&gt;L4YAML.Scanner.ScannerState -->
<g id="edge45" class="edge">
<title>L4YAML.Scanner.skipSpacesLoop._unary.eq_def&#45;&gt;L4YAML.Scanner.ScannerState</title>
<path fill="none" stroke="#999999" stroke-dasharray="1,5" d="M1383.2,-99.91C1367.55,-95.89 1350.15,-91.84 1334,-89 1290.44,-81.34 1278.99,-83.5 1235,-79 1196.33,-75.05 1186.77,-72.81 1148,-70 1052.39,-63.06 811.06,-70.52 717,-52 716.37,-51.88 715.73,-51.74 715.09,-51.61"/>
<polygon fill="#999999" stroke="#999999" points="715.59,-49.2 708.2,-49.89 714.41,-53.96 715.59,-49.2"/>
<text text-anchor="middle" x="1247.5" y="-72.6" font-family="Times-Roman" font-size="8.00">about</text>
</g>
<!-- L4YAML.Scanner.skipSpacesLoop._unary.eq_def&#45;&gt;L4YAML.Scanner.skipSpacesLoop._unary -->
<g id="edge43" class="edge">
<title>L4YAML.Scanner.skipSpacesLoop._unary.eq_def&#45;&gt;L4YAML.Scanner.skipSpacesLoop._unary</title>
<path fill="none" stroke="#999999" stroke-dasharray="1,5" d="M1386.5,-99.46C1352.83,-89.53 1306.03,-76.95 1264,-70 1119.69,-46.12 948.12,-38.53 855.14,-36.12"/>
<polygon fill="#999999" stroke="#999999" points="855.09,-33.67 848.03,-35.94 854.97,-38.57 855.09,-33.67"/>
<text text-anchor="middle" x="1318.5" y="-72.6" font-family="Times-Roman" font-size="8.00">about</text>
</g>
<!-- L4YAML.Proofs.ScannerCorrectness.skipSpaces_preserves_tokens -->
<g id="node23" class="node">
<title>L4YAML.Proofs.ScannerCorrectness.skipSpaces_preserves_tokens</title>
<ellipse fill="#d4edda" stroke="#28a745" cx="1424" cy="-277" rx="142.41" ry="18"/>
<text text-anchor="middle" x="1424" y="-274.5" font-family="Helvetica" font-size="10.00">ScannerCorrectness.skipSpaces_preserves_tokens</text>
</g>
<!-- L4YAML.Proofs.ScannerCorrectness.skipSpaces_preserves_tokens&#45;&gt;L4YAML.Scanner.skipSpaces -->
<g id="edge10" class="edge">
<title>L4YAML.Proofs.ScannerCorrectness.skipSpaces_preserves_tokens&#45;&gt;L4YAML.Scanner.skipSpaces</title>
<path fill="none" stroke="#999999" stroke-dasharray="1,5" d="M1320.55,-264.53C1302.06,-262.6 1282.97,-260.68 1265,-259 1165.12,-249.67 1139.66,-252.45 1040,-241 959.63,-231.77 939.96,-226.29 860,-214 837.85,-210.6 813.15,-206.71 792.98,-203.52"/>
<polygon fill="#999999" stroke="#999999" points="793.34,-201.1 786.04,-202.42 792.57,-205.94 793.34,-201.1"/>
<text text-anchor="middle" x="1052.5" y="-234.6" font-family="Times-Roman" font-size="8.00">about</text>
</g>
<!-- L4YAML.Proofs.ScannerCorrectness.skipSpaces_preserves_tokens&#45;&gt;L4YAML.Scanner.skipSpacesLoop.eq_def -->
<g id="edge12" class="edge">
<title>L4YAML.Proofs.ScannerCorrectness.skipSpaces_preserves_tokens&#45;&gt;L4YAML.Scanner.skipSpacesLoop.eq_def</title>
<path fill="none" stroke="#28a745" stroke-width="2" d="M1424.65,-258.86C1425.07,-247.88 1425.61,-233.48 1426.08,-221.33"/>
<polygon fill="#28a745" stroke="#28a745" stroke-width="2" points="1428.53,-221.2 1426.35,-214.11 1423.64,-221.01 1428.53,-221.2"/>
<text text-anchor="middle" x="1435" y="-234.6" font-family="Times-Roman" font-size="8.00">uses</text>
</g>
<!-- L4YAML.Proofs.ScannerCorrectness.ScanHelpers.foldQuotedNewlines_preserves_tokens&#45;&gt;L4YAML.Scanner.foldQuotedNewlines -->
<g id="edge4" class="edge">
<title>L4YAML.Proofs.ScannerCorrectness.ScanHelpers.foldQuotedNewlines_preserves_tokens&#45;&gt;L4YAML.Scanner.foldQuotedNewlines</title>
<path fill="none" stroke="#999999" stroke-dasharray="1,5" d="M1326.47,-425.89C1176.9,-412.28 946.71,-390.23 860,-376 854.93,-375.17 849.68,-374.2 844.44,-373.16"/>
<polygon fill="#999999" stroke="#999999" points="844.64,-370.7 837.29,-371.7 843.66,-375.5 844.64,-370.7"/>
<text text-anchor="middle" x="1092.5" y="-396.6" font-family="Times-Roman" font-size="8.00">about</text>
</g>
<!-- L4YAML.Proofs.ScannerCorrectness.ScanHelpers.foldQuotedNewlines_preserves_tokens&#45;&gt;L4YAML.Proofs.ScannerCorrectness.skipSpaces_preserves_tokens -->
<g id="edge38" class="edge">
<title>L4YAML.Proofs.ScannerCorrectness.ScanHelpers.foldQuotedNewlines_preserves_tokens&#45;&gt;L4YAML.Proofs.ScannerCorrectness.skipSpaces_preserves_tokens</title>
<path fill="none" stroke="#28a745" stroke-width="2" d="M1487.66,-421.11C1512.44,-401.93 1544.74,-369.47 1528,-340 1517.09,-320.79 1497.6,-306.9 1478.42,-297.2"/>
<polygon fill="#28a745" stroke="#28a745" stroke-width="2" points="1479.31,-294.91 1471.94,-294.07 1477.18,-299.32 1479.31,-294.91"/>
<text text-anchor="middle" x="1542" y="-356.1" font-family="Times-Roman" font-size="8.00">uses</text>
</g>
<!-- L4YAML.Proofs.ScannerCorrectness.ScanHelpers.foldQuotedNewlinesLoop_preserves_tokens -->
<g id="node25" class="node">
<title>L4YAML.Proofs.ScannerCorrectness.ScanHelpers.foldQuotedNewlinesLoop_preserves_tokens</title>
<ellipse fill="#d4edda" stroke="#28a745" cx="1308" cy="-358" rx="211.16" ry="18"/>
<text text-anchor="middle" x="1308" y="-355.5" font-family="Helvetica" font-size="10.00">ScannerCorrectness.ScanHelpers.foldQuotedNewlinesLoop_preserves_tokens</text>
</g>
<!-- L4YAML.Proofs.ScannerCorrectness.ScanHelpers.foldQuotedNewlines_preserves_tokens&#45;&gt;L4YAML.Proofs.ScannerCorrectness.ScanHelpers.foldQuotedNewlinesLoop_preserves_tokens -->
<g id="edge6" class="edge">
<title>L4YAML.Proofs.ScannerCorrectness.ScanHelpers.foldQuotedNewlines_preserves_tokens&#45;&gt;L4YAML.Proofs.ScannerCorrectness.ScanHelpers.foldQuotedNewlinesLoop_preserves_tokens</title>
<path fill="none" stroke="#28a745" stroke-width="2" d="M1430.13,-421.25C1405.96,-408.93 1373.01,-392.13 1347.43,-379.1"/>
<polygon fill="#28a745" stroke="#28a745" stroke-width="2" points="1348.44,-376.86 1341.09,-375.87 1346.22,-381.23 1348.44,-376.86"/>
<text text-anchor="middle" x="1400" y="-396.6" font-family="Times-Roman" font-size="8.00">uses</text>
</g>
<!-- L4YAML.Proofs.ScannerCorrectness.ScanHelpers.foldQuotedNewlinesLoop_preserves_tokens&#45;&gt;L4YAML.Scanner.foldQuotedNewlinesLoop -->
<g id="edge7" class="edge">
<title>L4YAML.Proofs.ScannerCorrectness.ScanHelpers.foldQuotedNewlinesLoop_preserves_tokens&#45;&gt;L4YAML.Scanner.foldQuotedNewlinesLoop</title>
<path fill="none" stroke="#999999" stroke-dasharray="1,5" d="M1187.76,-343.19C1097.31,-332.11 970.46,-315.13 860,-295 858.22,-294.68 856.42,-294.34 854.6,-293.99"/>
<polygon fill="#999999" stroke="#999999" points="854.87,-291.55 847.53,-292.59 853.92,-296.35 854.87,-291.55"/>
<text text-anchor="middle" x="1031.5" y="-315.6" font-family="Times-Roman" font-size="8.00">about</text>
</g>
<!-- L4YAML.Proofs.ScannerCorrectness.ScanHelpers.foldQuotedNewlinesLoop_preserves_tokens&#45;&gt;L4YAML.Proofs.ScannerCorrectness.skipSpaces_preserves_tokens -->
<g id="edge9" class="edge">
<title>L4YAML.Proofs.ScannerCorrectness.ScanHelpers.foldQuotedNewlinesLoop_preserves_tokens&#45;&gt;L4YAML.Proofs.ScannerCorrectness.skipSpaces_preserves_tokens</title>
<path fill="none" stroke="#28a745" stroke-width="2" d="M1332.88,-340.05C1350.47,-328.08 1374.16,-311.94 1392.98,-299.13"/>
<polygon fill="#28a745" stroke="#28a745" stroke-width="2" points="1394.75,-300.88 1399.16,-294.92 1391.99,-296.83 1394.75,-300.88"/>
<text text-anchor="middle" x="1379" y="-315.6" font-family="Times-Roman" font-size="8.00">uses</text>
</g>
</g>
</svg>
