<?xml version="1.0" encoding="UTF-8" standalone="no"?>
<!DOCTYPE svg PUBLIC "-//W3C//DTD SVG 1.1//EN"
 "http://www.w3.org/Graphics/SVG/1.1/DTD/svg11.dtd">
<!-- Generated by graphviz version 2.44.0 (0)
 -->
<!-- Title: chain_Grammar.ValidTokenStream.lastIsStreamEnd Pages: 1 -->
<svg width="430pt" height="98pt"
 viewBox="0.00 0.00 430.00 97.92" xmlns="http://www.w3.org/2000/svg" xmlns:xlink="http://www.w3.org/1999/xlink">
<g id="graph0" class="graph" transform="scale(1 1) rotate(0) translate(4 93.92)">
<title>chain_Grammar.ValidTokenStream.lastIsStreamEnd</title>
<polygon fill="white" stroke="transparent" points="-4,4 -4,-93.92 426,-93.92 426,4 -4,4"/>
<text text-anchor="middle" x="211" y="-75.52" font-family="Helvetica Bold" font-size="13.00">Functorial Chains: Grammar.ValidTokenStream.lastIsStreamEnd</text>
<text text-anchor="middle" x="211" y="-61.52" font-family="Helvetica Bold" font-size="13.00">(heuristic: used by 5 proofs)</text>
<!-- L4YAML.Grammar.ValidTokenStream.lastIsStreamEnd -->
<g id="node1" class="node">
<title>L4YAML.Grammar.ValidTokenStream.lastIsStreamEnd</title>
<polygon fill="#fff3cd" stroke="black" points="374.58,-17.46 374.58,-36.46 278.76,-49.89 143.24,-49.89 47.42,-36.46 47.42,-17.46 143.24,-4.03 278.76,-4.03 374.58,-17.46"/>
<polygon fill="none" stroke="black" points="378.58,-13.99 378.58,-39.93 279.04,-53.88 142.96,-53.88 43.42,-39.93 43.42,-13.99 142.96,-0.04 279.04,-0.04 378.58,-13.99"/>
<text text-anchor="middle" x="211" y="-29.96" font-family="Helvetica" font-size="10.00">Grammar.ValidTokenStream.lastIsStreamEnd</text>
<text text-anchor="middle" x="211" y="-18.96" font-family="Helvetica" font-size="10.00">(no functorial chains found)</text>
</g>
</g>
</svg>
