<?xml version="1.0" encoding="UTF-8" standalone="no"?>
<!DOCTYPE svg PUBLIC "-//W3C//DTD SVG 1.1//EN"
 "http://www.w3.org/Graphics/SVG/1.1/DTD/svg11.dtd">
<!-- Generated by graphviz version 2.44.0 (0)
 -->
<!-- Title: chain_unwindIndentsLoop.eq_def Pages: 1 -->
<svg width="1591pt" height="513pt"
 viewBox="0.00 0.00 1591.00 513.00" xmlns="http://www.w3.org/2000/svg" xmlns:xlink="http://www.w3.org/1999/xlink">
<g id="graph0" class="graph" transform="scale(1 1) rotate(0) translate(4 509)">
<title>chain_unwindIndentsLoop.eq_def</title>
<polygon fill="white" stroke="transparent" points="-4,4 -4,-509 1587,-509 1587,4 -4,4"/>
<text text-anchor="middle" x="791.5" y="-490.6" font-family="Helvetica Bold" font-size="13.00">Functorial Chains: unwindIndentsLoop.eq_def</text>
<text text-anchor="middle" x="791.5" y="-476.6" font-family="Helvetica Bold" font-size="13.00">(heuristic: used by 22 proofs)</text>
<g id="clust1" class="cluster">
<title>cluster_fns</title>
<polygon fill="none" stroke="#4a90d9" stroke-dasharray="5,2" points="8,-8 8,-352 1320,-352 1320,-8 8,-8"/>
<text text-anchor="middle" x="664" y="-337.6" font-family="Helvetica Bold" font-size="13.00" fill="#4a90d9">Functions (Call Chain)</text>
</g>
<g id="clust2" class="cluster">
<title>cluster_thms</title>
<polygon fill="none" stroke="#28a745" stroke-dasharray="5,2" points="1328,-170 1328,-461 1548,-461 1548,-170 1328,-170"/>
<text text-anchor="middle" x="1438" y="-446.6" font-family="Helvetica Bold" font-size="13.00" fill="#28a745">Theorems (Proof Chain)</text>
</g>
<!-- L4YAML.Scanner.ScannerState.emit -->
<g id="node1" class="node">
<title>L4YAML.Scanner.ScannerState.emit</title>
<polygon fill="#dce9f7" stroke="#4a90d9" points="1109,-268 1011,-268 1011,-232 1109,-232 1109,-268"/>
<text text-anchor="middle" x="1060" y="-247.5" font-family="Helvetica" font-size="10.00">ScannerState.emit</text>
</g>
<!-- L4YAML.Scanner.ScannerState.flowLevel -->
<g id="node4" class="node">
<title>L4YAML.Scanner.ScannerState.flowLevel</title>
<polygon fill="#dce9f7" stroke="#4a90d9" points="1311.5,-133 1192.5,-133 1192.5,-97 1311.5,-97 1311.5,-133"/>
<text text-anchor="middle" x="1252" y="-112.5" font-family="Helvetica" font-size="10.00">ScannerState.flowLevel</text>
</g>
<!-- L4YAML.Scanner.ScannerState.emit&#45;&gt;L4YAML.Scanner.ScannerState.flowLevel -->
<g id="edge9" class="edge">
<title>L4YAML.Scanner.ScannerState.emit&#45;&gt;L4YAML.Scanner.ScannerState.flowLevel</title>
<path fill="none" stroke="#4a90d9" stroke-width="2" d="M1041.33,-231.64C1020.87,-210.54 993.6,-174.81 1015,-151 1040.1,-123.07 1146.02,-139.51 1183,-133 1183.76,-132.87 1184.52,-132.73 1185.29,-132.59"/>
<polygon fill="#4a90d9" stroke="#4a90d9" stroke-width="2" points="1185.86,-134.97 1192.27,-131.24 1184.93,-130.16 1185.86,-134.97"/>
<text text-anchor="middle" x="1034.5" y="-194.1" font-family="Times-Roman" font-size="8.00">calls</text>
</g>
<!-- L4YAML.Scanner.ScannerState.simpleKey -->
<g id="node2" class="node">
<title>L4YAML.Scanner.ScannerState.simpleKey</title>
<polygon fill="#dce9f7" stroke="#4a90d9" points="890,-133 766,-133 766,-97 890,-97 890,-133"/>
<text text-anchor="middle" x="828" y="-112.5" font-family="Helvetica" font-size="10.00">ScannerState.simpleKey</text>
</g>
<!-- L4YAML.Scanner.ScannerState.input -->
<g id="node3" class="node">
<title>L4YAML.Scanner.ScannerState.input</title>
<polygon fill="#dce9f7" stroke="#4a90d9" points="748,-133 648,-133 648,-97 748,-97 748,-133"/>
<text text-anchor="middle" x="698" y="-112.5" font-family="Helvetica" font-size="10.00">ScannerState.input</text>
</g>
<!-- L4YAML.Scanner.ScannerState -->
<g id="node6" class="node">
<title>L4YAML.Scanner.ScannerState</title>
<polygon fill="#dce9f7" stroke="#4a90d9" points="1306,-52 1230,-52 1230,-16 1306,-16 1306,-52"/>
<text text-anchor="middle" x="1268" y="-31.5" font-family="Helvetica" font-size="10.00">ScannerState</text>
</g>
<!-- L4YAML.Scanner.ScannerState.flowLevel&#45;&gt;L4YAML.Scanner.ScannerState -->
<g id="edge11" class="edge">
<title>L4YAML.Scanner.ScannerState.flowLevel&#45;&gt;L4YAML.Scanner.ScannerState</title>
<path fill="none" stroke="#4a90d9" stroke-width="2" d="M1255.47,-96.86C1257.72,-85.78 1260.67,-71.21 1263.14,-58.99"/>
<polygon fill="#4a90d9" stroke="#4a90d9" stroke-width="2" points="1265.55,-59.46 1264.54,-52.11 1260.74,-58.48 1265.55,-59.46"/>
<text text-anchor="middle" x="1269.5" y="-72.6" font-family="Times-Roman" font-size="8.00">calls</text>
</g>
<!-- L4YAML.Scanner.ScannerState.line -->
<g id="node5" class="node">
<title>L4YAML.Scanner.ScannerState.line</title>
<polygon fill="#dce9f7" stroke="#4a90d9" points="454,-133 360,-133 360,-97 454,-97 454,-133"/>
<text text-anchor="middle" x="407" y="-112.5" font-family="Helvetica" font-size="10.00">ScannerState.line</text>
</g>
<!-- L4YAML.Scanner.ScannerState.simpleKeyAllowed -->
<g id="node7" class="node">
<title>L4YAML.Scanner.ScannerState.simpleKeyAllowed</title>
<polygon fill="#dce9f7" stroke="#4a90d9" points="630,-133 472,-133 472,-97 630,-97 630,-133"/>
<text text-anchor="middle" x="551" y="-112.5" font-family="Helvetica" font-size="10.00">ScannerState.simpleKeyAllowed</text>
</g>
<!-- L4YAML.Scanner.ScannerState.seenYamlDirective -->
<g id="node8" class="node">
<title>L4YAML.Scanner.ScannerState.seenYamlDirective</title>
<polygon fill="#dce9f7" stroke="#4a90d9" points="342,-133 182,-133 182,-97 342,-97 342,-133"/>
<text text-anchor="middle" x="262" y="-112.5" font-family="Helvetica" font-size="10.00">ScannerState.seenYamlDirective</text>
</g>
<!-- L4YAML.Scanner.ScannerState.needIndentCheck -->
<g id="node9" class="node">
<title>L4YAML.Scanner.ScannerState.needIndentCheck</title>
<polygon fill="#dce9f7" stroke="#4a90d9" points="1063.5,-133 908.5,-133 908.5,-97 1063.5,-97 1063.5,-133"/>
<text text-anchor="middle" x="986" y="-112.5" font-family="Helvetica" font-size="10.00">ScannerState.needIndentCheck</text>
</g>
<!-- L4YAML.Scanner.unwindIndentsLoop -->
<g id="node10" class="node">
<title>L4YAML.Scanner.unwindIndentsLoop</title>
<polygon fill="#dce9f7" stroke="#4a90d9" points="1072.5,-322 971.5,-322 971.5,-286 1072.5,-286 1072.5,-322"/>
<text text-anchor="middle" x="1022" y="-301.5" font-family="Helvetica" font-size="10.00">unwindIndentsLoop</text>
</g>
<!-- L4YAML.Scanner.unwindIndentsLoop._unary -->
<g id="node12" class="node">
<title>L4YAML.Scanner.unwindIndentsLoop._unary</title>
<polygon fill="#dce9f7" stroke="#4a90d9" points="895,-214 761,-214 761,-178 895,-178 895,-214"/>
<text text-anchor="middle" x="828" y="-193.5" font-family="Helvetica" font-size="10.00">unwindIndentsLoop._unary</text>
</g>
<!-- L4YAML.Scanner.unwindIndentsLoop&#45;&gt;L4YAML.Scanner.unwindIndentsLoop._unary -->
<g id="edge2" class="edge">
<title>L4YAML.Scanner.unwindIndentsLoop&#45;&gt;L4YAML.Scanner.unwindIndentsLoop._unary</title>
<path fill="none" stroke="#4a90d9" stroke-width="2" d="M990.83,-285.97C956.85,-267.4 902.46,-237.69 866,-217.76"/>
<polygon fill="#4a90d9" stroke="#4a90d9" stroke-width="2" points="866.73,-215.37 859.41,-214.16 864.38,-219.67 866.73,-215.37"/>
<text text-anchor="middle" x="962.5" y="-248.1" font-family="Times-Roman" font-size="8.00">calls</text>
</g>
<!-- L4YAML.Scanner.ScannerState.definedAnchors -->
<g id="node11" class="node">
<title>L4YAML.Scanner.ScannerState.definedAnchors</title>
<polygon fill="#dce9f7" stroke="#4a90d9" points="163.5,-133 16.5,-133 16.5,-97 163.5,-97 163.5,-133"/>
<text text-anchor="middle" x="90" y="-112.5" font-family="Helvetica" font-size="10.00">ScannerState.definedAnchors</text>
</g>
<!-- L4YAML.Scanner.unwindIndentsLoop._unary&#45;&gt;L4YAML.Scanner.ScannerState.simpleKey -->
<g id="edge13" class="edge">
<title>L4YAML.Scanner.unwindIndentsLoop._unary&#45;&gt;L4YAML.Scanner.ScannerState.simpleKey</title>
<path fill="none" stroke="#4a90d9" stroke-width="2" d="M828,-177.86C828,-166.88 828,-152.48 828,-140.33"/>
<polygon fill="#4a90d9" stroke="#4a90d9" stroke-width="2" points="830.45,-140.11 828,-133.11 825.55,-140.11 830.45,-140.11"/>
<text text-anchor="middle" x="837.5" y="-153.6" font-family="Times-Roman" font-size="8.00">calls</text>
</g>
<!-- L4YAML.Scanner.unwindIndentsLoop._unary&#45;&gt;L4YAML.Scanner.ScannerState.input -->
<g id="edge27" class="edge">
<title>L4YAML.Scanner.unwindIndentsLoop._unary&#45;&gt;L4YAML.Scanner.ScannerState.input</title>
<path fill="none" stroke="#4a90d9" stroke-width="2" d="M799.79,-177.86C779.95,-165.8 753.28,-149.59 732.21,-136.79"/>
<polygon fill="#4a90d9" stroke="#4a90d9" stroke-width="2" points="733.41,-134.65 726.15,-133.11 730.86,-138.84 733.41,-134.65"/>
<text text-anchor="middle" x="775.5" y="-153.6" font-family="Times-Roman" font-size="8.00">calls</text>
</g>
<!-- L4YAML.Scanner.unwindIndentsLoop._unary&#45;&gt;L4YAML.Scanner.ScannerState.flowLevel -->
<g id="edge21" class="edge">
<title>L4YAML.Scanner.unwindIndentsLoop._unary&#45;&gt;L4YAML.Scanner.ScannerState.flowLevel</title>
<path fill="none" stroke="#4a90d9" stroke-width="2" d="M895.19,-178.9C916.67,-173.37 940.46,-166.83 962,-160 972.86,-156.56 974.89,-153.54 986,-151 1071.71,-131.39 1096.29,-147.56 1183,-133 1183.76,-132.87 1184.52,-132.74 1185.29,-132.61"/>
<polygon fill="#4a90d9" stroke="#4a90d9" stroke-width="2" points="1185.85,-134.99 1192.28,-131.3 1184.94,-130.18 1185.85,-134.99"/>
<text text-anchor="middle" x="995.5" y="-153.6" font-family="Times-Roman" font-size="8.00">calls</text>
</g>
<!-- L4YAML.Scanner.unwindIndentsLoop._unary&#45;&gt;L4YAML.Scanner.ScannerState.line -->
<g id="edge15" class="edge">
<title>L4YAML.Scanner.unwindIndentsLoop._unary&#45;&gt;L4YAML.Scanner.ScannerState.line</title>
<path fill="none" stroke="#4a90d9" stroke-width="2" d="M760.89,-186.2C687.28,-175.94 565.91,-157.26 463,-133 462.37,-132.85 461.74,-132.7 461.11,-132.55"/>
<polygon fill="#4a90d9" stroke="#4a90d9" stroke-width="2" points="461.63,-130.15 454.24,-130.8 460.42,-134.9 461.63,-130.15"/>
<text text-anchor="middle" x="601.5" y="-153.6" font-family="Times-Roman" font-size="8.00">calls</text>
</g>
<!-- L4YAML.Scanner.unwindIndentsLoop._unary&#45;&gt;L4YAML.Scanner.ScannerState.simpleKeyAllowed -->
<g id="edge23" class="edge">
<title>L4YAML.Scanner.unwindIndentsLoop._unary&#45;&gt;L4YAML.Scanner.ScannerState.simpleKeyAllowed</title>
<path fill="none" stroke="#4a90d9" stroke-width="2" d="M768.24,-177.96C723.91,-165.31 663.48,-148.08 617.6,-134.99"/>
<polygon fill="#4a90d9" stroke="#4a90d9" stroke-width="2" points="618.06,-132.58 610.66,-133.01 616.72,-137.29 618.06,-132.58"/>
<text text-anchor="middle" x="706.5" y="-153.6" font-family="Times-Roman" font-size="8.00">calls</text>
</g>
<!-- L4YAML.Scanner.unwindIndentsLoop._unary&#45;&gt;L4YAML.Scanner.ScannerState.seenYamlDirective -->
<g id="edge25" class="edge">
<title>L4YAML.Scanner.unwindIndentsLoop._unary&#45;&gt;L4YAML.Scanner.ScannerState.seenYamlDirective</title>
<path fill="none" stroke="#4a90d9" stroke-width="2" d="M760.82,-187.8C700.17,-181.14 608.51,-170.68 529,-160 449.7,-149.35 429.87,-146.51 351,-133 350.36,-132.89 349.71,-132.78 349.06,-132.67"/>
<polygon fill="#4a90d9" stroke="#4a90d9" stroke-width="2" points="349.34,-130.23 342.03,-131.44 348.5,-135.06 349.34,-130.23"/>
<text text-anchor="middle" x="538.5" y="-153.6" font-family="Times-Roman" font-size="8.00">calls</text>
</g>
<!-- L4YAML.Scanner.unwindIndentsLoop._unary&#45;&gt;L4YAML.Scanner.ScannerState.needIndentCheck -->
<g id="edge19" class="edge">
<title>L4YAML.Scanner.unwindIndentsLoop._unary&#45;&gt;L4YAML.Scanner.ScannerState.needIndentCheck</title>
<path fill="none" stroke="#4a90d9" stroke-width="2" d="M852.62,-177.97C865.76,-169.29 882.39,-158.93 898,-151 908.66,-145.59 920.37,-140.42 931.66,-135.81"/>
<polygon fill="#4a90d9" stroke="#4a90d9" stroke-width="2" points="932.68,-138.04 938.26,-133.15 930.85,-133.49 932.68,-138.04"/>
<text text-anchor="middle" x="907.5" y="-153.6" font-family="Times-Roman" font-size="8.00">calls</text>
</g>
<!-- L4YAML.Scanner.unwindIndentsLoop._unary&#45;&gt;L4YAML.Scanner.ScannerState.definedAnchors -->
<g id="edge17" class="edge">
<title>L4YAML.Scanner.unwindIndentsLoop._unary&#45;&gt;L4YAML.Scanner.ScannerState.definedAnchors</title>
<path fill="none" stroke="#4a90d9" stroke-width="2" d="M760.74,-191.17C641.73,-183.82 386.42,-165.52 173,-133 172.24,-132.88 171.47,-132.76 170.7,-132.64"/>
<polygon fill="#4a90d9" stroke="#4a90d9" stroke-width="2" points="171,-130.21 163.7,-131.5 170.21,-135.05 171,-130.21"/>
<text text-anchor="middle" x="379.5" y="-153.6" font-family="Times-Roman" font-size="8.00">calls</text>
</g>
<!-- L4YAML.Scanner.ScannerState.col -->
<g id="node13" class="node">
<title>L4YAML.Scanner.ScannerState.col</title>
<polygon fill="#dce9f7" stroke="#4a90d9" points="1174,-133 1082,-133 1082,-97 1174,-97 1174,-133"/>
<text text-anchor="middle" x="1128" y="-112.5" font-family="Helvetica" font-size="10.00">ScannerState.col</text>
</g>
<!-- L4YAML.Scanner.unwindIndentsLoop._unary&#45;&gt;L4YAML.Scanner.ScannerState.col -->
<g id="edge5" class="edge">
<title>L4YAML.Scanner.unwindIndentsLoop._unary&#45;&gt;L4YAML.Scanner.ScannerState.col</title>
<path fill="none" stroke="#4a90d9" stroke-width="2" d="M871.11,-177.96C900.58,-166.41 935.6,-152.9 943,-151 999.49,-136.48 1016.06,-145.65 1073,-133 1073.64,-132.86 1074.28,-132.71 1074.93,-132.56"/>
<polygon fill="#4a90d9" stroke="#4a90d9" stroke-width="2" points="1075.72,-134.89 1081.93,-130.83 1074.55,-130.13 1075.72,-134.89"/>
<text text-anchor="middle" x="952.5" y="-153.6" font-family="Times-Roman" font-size="8.00">calls</text>
</g>
<!-- L4YAML.Scanner.unwindIndentsLoop.eq_def -->
<g id="node14" class="node">
<title>L4YAML.Scanner.unwindIndentsLoop.eq_def</title>
<polygon fill="#fff3cd" stroke="#d4a017" points="1509.98,-401.54 1509.98,-416.46 1460.2,-427 1389.8,-427 1340.02,-416.46 1340.02,-401.54 1389.8,-391 1460.2,-391 1509.98,-401.54"/>
<polygon fill="none" stroke="#d4a017" points="1513.99,-398.3 1513.99,-419.7 1460.62,-431 1389.38,-431 1336.01,-419.7 1336.01,-398.3 1389.38,-387 1460.62,-387 1513.99,-398.3"/>
<text text-anchor="middle" x="1425" y="-406.5" font-family="Helvetica" font-size="10.00">unwindIndentsLoop.eq_def</text>
</g>
<!-- L4YAML.Scanner.unwindIndentsLoop.eq_def&#45;&gt;L4YAML.Scanner.ScannerState.emit -->
<g id="edge8" class="edge">
<title>L4YAML.Scanner.unwindIndentsLoop.eq_def&#45;&gt;L4YAML.Scanner.ScannerState.emit</title>
<path fill="none" stroke="#999999" stroke-dasharray="1,5" d="M1380.24,-388.75C1310.54,-358.76 1176.73,-301.21 1106.17,-270.86"/>
<polygon fill="#999999" stroke="#999999" points="1106.94,-268.52 1099.54,-268.01 1105,-273.02 1106.94,-268.52"/>
<text text-anchor="middle" x="1344.5" y="-362.6" font-family="Times-Roman" font-size="8.00">about</text>
</g>
<!-- L4YAML.Scanner.unwindIndentsLoop.eq_def&#45;&gt;L4YAML.Scanner.unwindIndentsLoop -->
<g id="edge1" class="edge">
<title>L4YAML.Scanner.unwindIndentsLoop.eq_def&#45;&gt;L4YAML.Scanner.unwindIndentsLoop</title>
<path fill="none" stroke="#999999" stroke-dasharray="1,5" d="M1345.51,-396.24C1305.21,-389.57 1255.68,-380.29 1212,-369 1164.41,-356.7 1111.51,-338.49 1073.64,-324.64"/>
<polygon fill="#999999" stroke="#999999" points="1074.17,-322.22 1066.75,-322.11 1072.47,-326.82 1074.17,-322.22"/>
<text text-anchor="middle" x="1224.5" y="-362.6" font-family="Times-Roman" font-size="8.00">about</text>
</g>
<!-- L4YAML.Scanner.unwindIndentsLoop._unary.eq_def -->
<g id="node16" class="node">
<title>L4YAML.Scanner.unwindIndentsLoop._unary.eq_def</title>
<ellipse fill="#d4edda" stroke="#28a745" cx="1435" cy="-304" rx="97.26" ry="18"/>
<text text-anchor="middle" x="1435" y="-301.5" font-family="Helvetica" font-size="10.00">unwindIndentsLoop._unary.eq_def</text>
</g>
<!-- L4YAML.Scanner.unwindIndentsLoop.eq_def&#45;&gt;L4YAML.Scanner.unwindIndentsLoop._unary.eq_def -->
<g id="edge3" class="edge">
<title>L4YAML.Scanner.unwindIndentsLoop.eq_def&#45;&gt;L4YAML.Scanner.unwindIndentsLoop._unary.eq_def</title>
<path fill="none" stroke="#28a745" stroke-width="2" d="M1427.07,-386.66C1428.69,-369.95 1430.95,-346.71 1432.64,-329.29"/>
<polygon fill="#28a745" stroke="#28a745" stroke-width="2" points="1435.09,-329.43 1433.33,-322.22 1430.21,-328.95 1435.09,-329.43"/>
<text text-anchor="middle" x="1439" y="-362.6" font-family="Times-Roman" font-size="8.00">uses</text>
</g>
<!-- L4YAML.Scanner.unwindIndentsLoop._unary._proof_1 -->
<g id="node15" class="node">
<title>L4YAML.Scanner.unwindIndentsLoop._unary._proof_1</title>
<ellipse fill="#d4edda" stroke="#28a745" cx="1438" cy="-196" rx="101.68" ry="18"/>
<text text-anchor="middle" x="1438" y="-193.5" font-family="Helvetica" font-size="10.00">unwindIndentsLoop._unary._proof_1</text>
</g>
<!-- L4YAML.Scanner.unwindIndentsLoop._unary._proof_1&#45;&gt;L4YAML.Scanner.ScannerState.simpleKey -->
<g id="edge14" class="edge">
<title>L4YAML.Scanner.unwindIndentsLoop._unary._proof_1&#45;&gt;L4YAML.Scanner.ScannerState.simpleKey</title>
<path fill="none" stroke="#999999" stroke-dasharray="1,5" d="M1377.72,-181.43C1360.4,-177.63 1341.47,-173.56 1324,-170 1300.51,-165.21 1293.8,-167.41 1271,-160 1262.11,-157.11 1261.06,-153.28 1252,-151 1100.1,-112.74 1055.08,-155.09 900,-133 899.11,-132.87 898.21,-132.74 897.3,-132.6"/>
<polygon fill="#999999" stroke="#999999" points="897.62,-130.17 890.31,-131.44 896.81,-135 897.62,-130.17"/>
<text text-anchor="middle" x="1283.5" y="-153.6" font-family="Times-Roman" font-size="8.00">about</text>
</g>
<!-- L4YAML.Scanner.unwindIndentsLoop._unary._proof_1&#45;&gt;L4YAML.Scanner.ScannerState.input -->
<g id="edge28" class="edge">
<title>L4YAML.Scanner.unwindIndentsLoop._unary._proof_1&#45;&gt;L4YAML.Scanner.ScannerState.input</title>
<path fill="none" stroke="#999999" stroke-dasharray="1,5" d="M1380.84,-181.09C1362.74,-177.06 1342.61,-172.95 1324,-170 1279.45,-162.93 1266.47,-172.05 1223,-160 1214,-157.5 1213.07,-153.23 1204,-151 1107.47,-127.24 855.14,-148.88 757,-133 756.36,-132.9 755.71,-132.79 755.06,-132.67"/>
<polygon fill="#999999" stroke="#999999" points="755.37,-130.24 748.03,-131.3 754.43,-135.05 755.37,-130.24"/>
<text text-anchor="middle" x="1235.5" y="-153.6" font-family="Times-Roman" font-size="8.00">about</text>
</g>
<!-- L4YAML.Scanner.unwindIndentsLoop._unary._proof_1&#45;&gt;L4YAML.Scanner.ScannerState.flowLevel -->
<g id="edge22" class="edge">
<title>L4YAML.Scanner.unwindIndentsLoop._unary._proof_1&#45;&gt;L4YAML.Scanner.ScannerState.flowLevel</title>
<path fill="none" stroke="#999999" stroke-dasharray="1,5" d="M1425.78,-178.07C1418.21,-168.76 1407.71,-157.76 1396,-151 1372.58,-137.48 1344.11,-129.16 1318.69,-124.05"/>
<polygon fill="#999999" stroke="#999999" points="1318.95,-121.61 1311.61,-122.69 1318.02,-126.42 1318.95,-121.61"/>
<text text-anchor="middle" x="1420.5" y="-153.6" font-family="Times-Roman" font-size="8.00">about</text>
</g>
<!-- L4YAML.Scanner.unwindIndentsLoop._unary._proof_1&#45;&gt;L4YAML.Scanner.ScannerState.line -->
<g id="edge16" class="edge">
<title>L4YAML.Scanner.unwindIndentsLoop._unary._proof_1&#45;&gt;L4YAML.Scanner.ScannerState.line</title>
<path fill="none" stroke="#999999" stroke-dasharray="1,5" d="M1382.37,-180.87C1363.91,-176.7 1343.18,-172.57 1324,-170 1237.11,-158.35 1212.02,-181.4 1127,-160 1117.94,-157.72 1117.09,-153.18 1108,-151 968.56,-117.59 604.53,-156.03 463,-133 462.36,-132.9 461.72,-132.79 461.08,-132.67"/>
<polygon fill="#999999" stroke="#999999" points="461.49,-130.26 454.15,-131.28 460.53,-135.06 461.49,-130.26"/>
<text text-anchor="middle" x="1139.5" y="-153.6" font-family="Times-Roman" font-size="8.00">about</text>
</g>
<!-- L4YAML.Scanner.unwindIndentsLoop._unary._proof_1&#45;&gt;L4YAML.Scanner.ScannerState -->
<g id="edge12" class="edge">
<title>L4YAML.Scanner.unwindIndentsLoop._unary._proof_1&#45;&gt;L4YAML.Scanner.ScannerState</title>
<path fill="none" stroke="#999999" stroke-dasharray="1,5" d="M1441.15,-177.77C1441.86,-169.24 1441.36,-159.06 1437,-151 1410.53,-102.08 1353.38,-69.66 1312.89,-51.82"/>
<polygon fill="#999999" stroke="#999999" points="1313.69,-49.5 1306.29,-48.98 1311.75,-54 1313.69,-49.5"/>
<text text-anchor="middle" x="1435.5" y="-113.1" font-family="Times-Roman" font-size="8.00">about</text>
</g>
<!-- L4YAML.Scanner.unwindIndentsLoop._unary._proof_1&#45;&gt;L4YAML.Scanner.ScannerState.simpleKeyAllowed -->
<g id="edge24" class="edge">
<title>L4YAML.Scanner.unwindIndentsLoop._unary._proof_1&#45;&gt;L4YAML.Scanner.ScannerState.simpleKeyAllowed</title>
<path fill="none" stroke="#999999" stroke-dasharray="1,5" d="M1381.77,-180.93C1363.45,-176.81 1342.96,-172.7 1324,-170 1258.29,-160.64 1239.23,-176.72 1175,-160 1165.96,-157.65 1165.08,-153.21 1156,-151 1044.3,-123.83 753.23,-145.94 639,-133 638.36,-132.93 637.71,-132.85 637.07,-132.78"/>
<polygon fill="#999999" stroke="#999999" points="637.32,-130.34 630.06,-131.88 636.7,-135.2 637.32,-130.34"/>
<text text-anchor="middle" x="1187.5" y="-153.6" font-family="Times-Roman" font-size="8.00">about</text>
</g>
<!-- L4YAML.Scanner.unwindIndentsLoop._unary._proof_1&#45;&gt;L4YAML.Scanner.ScannerState.seenYamlDirective -->
<g id="edge26" class="edge">
<title>L4YAML.Scanner.unwindIndentsLoop._unary._proof_1&#45;&gt;L4YAML.Scanner.ScannerState.seenYamlDirective</title>
<path fill="none" stroke="#999999" stroke-dasharray="1,5" d="M1382.68,-180.83C1364.15,-176.63 1343.29,-172.49 1324,-170 1269.96,-163.03 1131.91,-173.04 1079,-160 1069.93,-157.76 1069.09,-153.17 1060,-151 906.68,-114.47 507.7,-149.84 351,-133 350.47,-132.94 349.94,-132.89 349.41,-132.83"/>
<polygon fill="#999999" stroke="#999999" points="349.69,-130.39 342.44,-131.98 349.09,-135.25 349.69,-130.39"/>
<text text-anchor="middle" x="1091.5" y="-153.6" font-family="Times-Roman" font-size="8.00">about</text>
</g>
<!-- L4YAML.Scanner.unwindIndentsLoop._unary._proof_1&#45;&gt;L4YAML.Scanner.ScannerState.needIndentCheck -->
<g id="edge20" class="edge">
<title>L4YAML.Scanner.unwindIndentsLoop._unary._proof_1&#45;&gt;L4YAML.Scanner.ScannerState.needIndentCheck</title>
<path fill="none" stroke="#999999" stroke-dasharray="1,5" d="M1383.2,-180.82C1362.81,-175.04 1339.63,-167.86 1319,-160 1310.27,-156.67 1309.03,-153.41 1300,-151 1202.22,-124.91 1173.27,-146.73 1073,-133 1072.24,-132.9 1071.47,-132.79 1070.7,-132.68"/>
<polygon fill="#999999" stroke="#999999" points="1071,-130.25 1063.72,-131.64 1070.28,-135.09 1071,-130.25"/>
<text text-anchor="middle" x="1331.5" y="-153.6" font-family="Times-Roman" font-size="8.00">about</text>
</g>
<!-- L4YAML.Scanner.unwindIndentsLoop._unary._proof_1&#45;&gt;L4YAML.Scanner.ScannerState.definedAnchors -->
<g id="edge18" class="edge">
<title>L4YAML.Scanner.unwindIndentsLoop._unary._proof_1&#45;&gt;L4YAML.Scanner.ScannerState.definedAnchors</title>
<path fill="none" stroke="#999999" stroke-dasharray="1,5" d="M1382.98,-180.82C1364.37,-176.59 1343.4,-172.44 1324,-170 1259.36,-161.88 1094.7,-173.66 1031,-160 1020.67,-157.79 1019.34,-153.15 1009,-151 827.07,-113.19 357.66,-153.73 173,-133 172.23,-132.91 171.46,-132.82 170.69,-132.73"/>
<polygon fill="#999999" stroke="#999999" points="170.92,-130.29 163.66,-131.8 170.28,-135.15 170.92,-130.29"/>
<text text-anchor="middle" x="1043.5" y="-153.6" font-family="Times-Roman" font-size="8.00">about</text>
</g>
<!-- L4YAML.Scanner.unwindIndentsLoop._unary._proof_1&#45;&gt;L4YAML.Scanner.ScannerState.col -->
<g id="edge7" class="edge">
<title>L4YAML.Scanner.unwindIndentsLoop._unary._proof_1&#45;&gt;L4YAML.Scanner.ScannerState.col</title>
<path fill="none" stroke="#999999" stroke-dasharray="1,5" d="M1405.29,-178.85C1380.2,-166.48 1349.57,-151.45 1348,-151 1277.57,-130.59 1255.84,-147.71 1184,-133 1183.1,-132.82 1182.2,-132.62 1181.3,-132.43"/>
<polygon fill="#999999" stroke="#999999" points="1181.65,-129.99 1174.28,-130.77 1180.53,-134.76 1181.65,-129.99"/>
<text text-anchor="middle" x="1378.5" y="-153.6" font-family="Times-Roman" font-size="8.00">about</text>
</g>
<!-- L4YAML.Scanner.unwindIndentsLoop._unary.eq_def&#45;&gt;L4YAML.Scanner.ScannerState.flowLevel -->
<g id="edge10" class="edge">
<title>L4YAML.Scanner.unwindIndentsLoop._unary.eq_def&#45;&gt;L4YAML.Scanner.ScannerState.flowLevel</title>
<path fill="none" stroke="#999999" stroke-dasharray="1,5" d="M1466.59,-286.94C1511.48,-262.06 1584.56,-212.61 1549,-170 1541.61,-161.15 1403.92,-138.93 1318.65,-125.92"/>
<polygon fill="#999999" stroke="#999999" points="1318.87,-123.48 1311.58,-124.84 1318.13,-128.32 1318.87,-123.48"/>
<text text-anchor="middle" x="1570.5" y="-194.1" font-family="Times-Roman" font-size="8.00">about</text>
</g>
<!-- L4YAML.Scanner.unwindIndentsLoop._unary.eq_def&#45;&gt;L4YAML.Scanner.unwindIndentsLoop._unary -->
<g id="edge4" class="edge">
<title>L4YAML.Scanner.unwindIndentsLoop._unary.eq_def&#45;&gt;L4YAML.Scanner.unwindIndentsLoop._unary</title>
<path fill="none" stroke="#999999" stroke-dasharray="1,5" d="M1380.64,-289.08C1317.76,-273.38 1210.96,-247.98 1118,-232 1077.95,-225.12 974.41,-213.14 902.56,-205.14"/>
<polygon fill="#999999" stroke="#999999" points="902.5,-202.67 895.27,-204.33 901.96,-207.54 902.5,-202.67"/>
<text text-anchor="middle" x="1303.5" y="-248.1" font-family="Times-Roman" font-size="8.00">about</text>
</g>
<!-- L4YAML.Scanner.unwindIndentsLoop._unary.eq_def&#45;&gt;L4YAML.Scanner.unwindIndentsLoop._unary._proof_1 -->
<g id="edge6" class="edge">
<title>L4YAML.Scanner.unwindIndentsLoop._unary.eq_def&#45;&gt;L4YAML.Scanner.unwindIndentsLoop._unary._proof_1</title>
<path fill="none" stroke="#28a745" stroke-width="2" d="M1435.48,-285.97C1435.98,-268.53 1436.75,-241.26 1437.31,-221.51"/>
<polygon fill="#28a745" stroke="#28a745" stroke-width="2" points="1439.76,-221.41 1437.51,-214.34 1434.86,-221.27 1439.76,-221.41"/>
<text text-anchor="middle" x="1446" y="-248.1" font-family="Times-Roman" font-size="8.00">uses</text>
</g>
</g>
</svg>
