<?xml version="1.0" encoding="UTF-8" standalone="no"?>
<!DOCTYPE svg PUBLIC "-//W3C//DTD SVG 1.1//EN"
 "http://www.w3.org/Graphics/SVG/1.1/DTD/svg11.dtd">
<!-- Generated by graphviz version 2.44.0 (0)
 -->
<!-- Title: chain_ScannerCorrectness.ScanHelpers.scanPlainScalar_adds_one_token Pages: 1 -->
<svg width="1526pt" height="648pt"
 viewBox="0.00 0.00 1526.00 648.00" xmlns="http://www.w3.org/2000/svg" xmlns:xlink="http://www.w3.org/1999/xlink">
<g id="graph0" class="graph" transform="scale(1 1) rotate(0) translate(4 644)">
<title>chain_ScannerCorrectness.ScanHelpers.scanPlainScalar_adds_one_token</title>
<polygon fill="white" stroke="transparent" points="-4,4 -4,-644 1522,-644 1522,4 -4,4"/>
<text text-anchor="middle" x="759" y="-625.6" font-family="Helvetica Bold" font-size="13.00">Functorial Chains: ScannerCorrectness.ScanHelpers.scanPlainScalar_adds_one_token</text>
<text text-anchor="middle" x="759" y="-611.6" font-family="Helvetica Bold" font-size="13.00">(heuristic: used by 7 proofs)</text>
<g id="clust1" class="cluster">
<title>cluster_fns</title>
<polygon fill="none" stroke="#4a90d9" stroke-dasharray="5,2" points="852,-8 852,-487 1510,-487 1510,-8 852,-8"/>
<text text-anchor="middle" x="1181" y="-472.6" font-family="Helvetica Bold" font-size="13.00" fill="#4a90d9">Functions (Call Chain)</text>
</g>
<g id="clust2" class="cluster">
<title>cluster_thms</title>
<polygon fill="none" stroke="#28a745" stroke-dasharray="5,2" points="8,-89 8,-596 844,-596 844,-89 8,-89"/>
<text text-anchor="middle" x="426" y="-581.6" font-family="Helvetica Bold" font-size="13.00" fill="#28a745">Theorems (Proof Chain)</text>
</g>
<!-- L4YAML.Scanner.scanPlainScalar -->
<g id="node1" class="node">
<title>L4YAML.Scanner.scanPlainScalar</title>
<polygon fill="#dce9f7" stroke="#4a90d9" points="954.5,-457 867.5,-457 867.5,-421 954.5,-421 954.5,-457"/>
<text text-anchor="middle" x="911" y="-436.5" font-family="Helvetica" font-size="10.00">scanPlainScalar</text>
</g>
<!-- L4YAML.Scanner.collectPlainScalarLoop -->
<g id="node13" class="node">
<title>L4YAML.Scanner.collectPlainScalarLoop</title>
<polygon fill="#dce9f7" stroke="#4a90d9" points="976,-376 860,-376 860,-340 976,-340 976,-376"/>
<text text-anchor="middle" x="918" y="-355.5" font-family="Helvetica" font-size="10.00">collectPlainScalarLoop</text>
</g>
<!-- L4YAML.Scanner.scanPlainScalar&#45;&gt;L4YAML.Scanner.collectPlainScalarLoop -->
<g id="edge2" class="edge">
<title>L4YAML.Scanner.scanPlainScalar&#45;&gt;L4YAML.Scanner.collectPlainScalarLoop</title>
<path fill="none" stroke="#4a90d9" stroke-width="2" d="M912.52,-420.86C913.49,-409.88 914.77,-395.48 915.84,-383.33"/>
<polygon fill="#4a90d9" stroke="#4a90d9" stroke-width="2" points="918.31,-383.3 916.48,-376.11 913.43,-382.86 918.31,-383.3"/>
<text text-anchor="middle" x="923.5" y="-396.6" font-family="Times-Roman" font-size="8.00">calls</text>
</g>
<!-- L4YAML.Scanner.consumeNewline -->
<g id="node2" class="node">
<title>L4YAML.Scanner.consumeNewline</title>
<polygon fill="#dce9f7" stroke="#4a90d9" points="1502,-133 1410,-133 1410,-97 1502,-97 1502,-133"/>
<text text-anchor="middle" x="1456" y="-112.5" font-family="Helvetica" font-size="10.00">consumeNewline</text>
</g>
<!-- L4YAML.Scanner.ScannerState.advance -->
<g id="node3" class="node">
<title>L4YAML.Scanner.ScannerState.advance</title>
<polygon fill="#dce9f7" stroke="#4a90d9" points="1451.5,-52 1336.5,-52 1336.5,-16 1451.5,-16 1451.5,-52"/>
<text text-anchor="middle" x="1394" y="-31.5" font-family="Helvetica" font-size="10.00">ScannerState.advance</text>
</g>
<!-- L4YAML.Scanner.consumeNewline&#45;&gt;L4YAML.Scanner.ScannerState.advance -->
<g id="edge20" class="edge">
<title>L4YAML.Scanner.consumeNewline&#45;&gt;L4YAML.Scanner.ScannerState.advance</title>
<path fill="none" stroke="#4a90d9" stroke-width="2" d="M1442.55,-96.86C1433.53,-85.37 1421.56,-70.11 1411.76,-57.63"/>
<polygon fill="#4a90d9" stroke="#4a90d9" stroke-width="2" points="1413.68,-56.1 1407.43,-52.11 1409.82,-59.13 1413.68,-56.1"/>
<text text-anchor="middle" x="1435.5" y="-72.6" font-family="Times-Roman" font-size="8.00">calls</text>
</g>
<!-- L4YAML.Scanner.ScannerState -->
<g id="node6" class="node">
<title>L4YAML.Scanner.ScannerState</title>
<polygon fill="#dce9f7" stroke="#4a90d9" points="1044,-52 968,-52 968,-16 1044,-16 1044,-52"/>
<text text-anchor="middle" x="1006" y="-31.5" font-family="Helvetica" font-size="10.00">ScannerState</text>
</g>
<!-- L4YAML.Scanner.consumeNewline&#45;&gt;L4YAML.Scanner.ScannerState -->
<g id="edge32" class="edge">
<title>L4YAML.Scanner.consumeNewline&#45;&gt;L4YAML.Scanner.ScannerState</title>
<path fill="none" stroke="#4a90d9" stroke-width="2" d="M1422.57,-96.88C1415.59,-93.86 1408.16,-91.03 1401,-89 1366.95,-79.35 1357.08,-83.66 1322,-79 1225.71,-66.2 1113.05,-50.29 1051.64,-41.54"/>
<polygon fill="#4a90d9" stroke="#4a90d9" stroke-width="2" points="1051.68,-39.07 1044.41,-40.5 1050.99,-43.92 1051.68,-39.07"/>
<text text-anchor="middle" x="1331.5" y="-72.6" font-family="Times-Roman" font-size="8.00">calls</text>
</g>
<!-- L4YAML.Scanner.ScannerState.tokens -->
<g id="node9" class="node">
<title>L4YAML.Scanner.ScannerState.tokens</title>
<polygon fill="#dce9f7" stroke="#4a90d9" points="1268.5,-52 1161.5,-52 1161.5,-16 1268.5,-16 1268.5,-52"/>
<text text-anchor="middle" x="1215" y="-31.5" font-family="Helvetica" font-size="10.00">ScannerState.tokens</text>
</g>
<!-- L4YAML.Scanner.consumeNewline&#45;&gt;L4YAML.Scanner.ScannerState.tokens -->
<g id="edge11" class="edge">
<title>L4YAML.Scanner.consumeNewline&#45;&gt;L4YAML.Scanner.ScannerState.tokens</title>
<path fill="none" stroke="#4a90d9" stroke-width="2" d="M1420.51,-96.97C1414.09,-94.14 1407.39,-91.37 1401,-89 1359.91,-73.79 1312.46,-60.07 1275.76,-50.27"/>
<polygon fill="#4a90d9" stroke="#4a90d9" stroke-width="2" points="1275.97,-47.79 1268.58,-48.36 1274.71,-52.52 1275.97,-47.79"/>
<text text-anchor="middle" x="1380.5" y="-72.6" font-family="Times-Roman" font-size="8.00">calls</text>
</g>
<!-- L4YAML.Scanner.ScannerState.peek? -->
<g id="node4" class="node">
<title>L4YAML.Scanner.ScannerState.peek?</title>
<polygon fill="#dce9f7" stroke="#4a90d9" points="1392,-133 1288,-133 1288,-97 1392,-97 1392,-133"/>
<text text-anchor="middle" x="1340" y="-112.5" font-family="Helvetica" font-size="10.00">ScannerState.peek?</text>
</g>
<!-- L4YAML.Scanner.foldQuotedNewlines -->
<g id="node5" class="node">
<title>L4YAML.Scanner.foldQuotedNewlines</title>
<polygon fill="#dce9f7" stroke="#4a90d9" points="970,-295 866,-295 866,-259 970,-259 970,-295"/>
<text text-anchor="middle" x="918" y="-274.5" font-family="Helvetica" font-size="10.00">foldQuotedNewlines</text>
</g>
<!-- L4YAML.Scanner.foldQuotedNewlines&#45;&gt;L4YAML.Scanner.consumeNewline -->
<g id="edge8" class="edge">
<title>L4YAML.Scanner.foldQuotedNewlines&#45;&gt;L4YAML.Scanner.consumeNewline</title>
<path fill="none" stroke="#4a90d9" stroke-width="2" d="M970.22,-263.94C1020.76,-252.04 1099.44,-232.94 1167,-214 1244.56,-192.26 1263.87,-186.3 1340,-160 1361.86,-152.45 1385.78,-143.49 1406.2,-135.64"/>
<polygon fill="#4a90d9" stroke="#4a90d9" stroke-width="2" points="1407.33,-137.83 1412.98,-133.02 1405.57,-133.26 1407.33,-137.83"/>
<text text-anchor="middle" x="1294.5" y="-194.1" font-family="Times-Roman" font-size="8.00">calls</text>
</g>
<!-- L4YAML.Scanner.foldQuotedNewlinesLoop -->
<g id="node11" class="node">
<title>L4YAML.Scanner.foldQuotedNewlinesLoop</title>
<polygon fill="#dce9f7" stroke="#4a90d9" points="1157.5,-214 1032.5,-214 1032.5,-178 1157.5,-178 1157.5,-214"/>
<text text-anchor="middle" x="1095" y="-193.5" font-family="Helvetica" font-size="10.00">foldQuotedNewlinesLoop</text>
</g>
<!-- L4YAML.Scanner.foldQuotedNewlines&#45;&gt;L4YAML.Scanner.foldQuotedNewlinesLoop -->
<g id="edge14" class="edge">
<title>L4YAML.Scanner.foldQuotedNewlines&#45;&gt;L4YAML.Scanner.foldQuotedNewlinesLoop</title>
<path fill="none" stroke="#4a90d9" stroke-width="2" d="M956.41,-258.86C984.01,-246.54 1021.3,-229.89 1050.25,-216.97"/>
<polygon fill="#4a90d9" stroke="#4a90d9" stroke-width="2" points="1051.27,-219.2 1056.67,-214.11 1049.28,-214.72 1051.27,-219.2"/>
<text text-anchor="middle" x="1020.5" y="-234.6" font-family="Times-Roman" font-size="8.00">calls</text>
</g>
<!-- L4YAML.Scanner.skipSpaces -->
<g id="node12" class="node">
<title>L4YAML.Scanner.skipSpaces</title>
<polygon fill="#dce9f7" stroke="#4a90d9" points="928,-133 860,-133 860,-97 928,-97 928,-133"/>
<text text-anchor="middle" x="894" y="-112.5" font-family="Helvetica" font-size="10.00">skipSpaces</text>
</g>
<!-- L4YAML.Scanner.foldQuotedNewlines&#45;&gt;L4YAML.Scanner.skipSpaces -->
<g id="edge22" class="edge">
<title>L4YAML.Scanner.foldQuotedNewlines&#45;&gt;L4YAML.Scanner.skipSpaces</title>
<path fill="none" stroke="#4a90d9" stroke-width="2" d="M919.75,-258.64C921.67,-234.15 923.26,-188.27 913,-151 911.94,-147.17 910.4,-143.29 908.65,-139.58"/>
<polygon fill="#4a90d9" stroke="#4a90d9" stroke-width="2" points="910.71,-138.23 905.32,-133.14 906.36,-140.48 910.71,-138.23"/>
<text text-anchor="middle" x="930.5" y="-194.1" font-family="Times-Roman" font-size="8.00">calls</text>
</g>
<!-- L4YAML.Scanner.skipWhitespaceLoop.match_1 -->
<g id="node7" class="node">
<title>L4YAML.Scanner.skipWhitespaceLoop.match_1</title>
<polygon fill="#dce9f7" stroke="#4a90d9" points="1270,-133 1122,-133 1122,-97 1270,-97 1270,-133"/>
<text text-anchor="middle" x="1196" y="-112.5" font-family="Helvetica" font-size="10.00">skipWhitespaceLoop.match_1</text>
</g>
<!-- L4YAML.Scanner.skipSpacesLoop -->
<g id="node8" class="node">
<title>L4YAML.Scanner.skipSpacesLoop</title>
<polygon fill="#dce9f7" stroke="#4a90d9" points="949.5,-52 860.5,-52 860.5,-16 949.5,-16 949.5,-52"/>
<text text-anchor="middle" x="905" y="-31.5" font-family="Helvetica" font-size="10.00">skipSpacesLoop</text>
</g>
<!-- L4YAML.CharPredicates.isLineBreakBool -->
<g id="node10" class="node">
<title>L4YAML.CharPredicates.isLineBreakBool</title>
<polygon fill="#dce9f7" stroke="#4a90d9" points="1104,-133 946,-133 946,-97 1104,-97 1104,-133"/>
<text text-anchor="middle" x="1025" y="-112.5" font-family="Helvetica" font-size="10.00">CharPredicates.isLineBreakBool</text>
</g>
<!-- L4YAML.Scanner.foldQuotedNewlinesLoop&#45;&gt;L4YAML.Scanner.consumeNewline -->
<g id="edge37" class="edge">
<title>L4YAML.Scanner.foldQuotedNewlinesLoop&#45;&gt;L4YAML.Scanner.consumeNewline</title>
<path fill="none" stroke="#4a90d9" stroke-width="2" d="M1157.54,-184.22C1219.67,-173.07 1317.49,-154.31 1401,-133 1401.64,-132.84 1402.27,-132.67 1402.92,-132.51"/>
<polygon fill="#4a90d9" stroke="#4a90d9" stroke-width="2" points="1403.76,-134.81 1409.88,-130.62 1402.48,-130.08 1403.76,-134.81"/>
<text text-anchor="middle" x="1326.5" y="-153.6" font-family="Times-Roman" font-size="8.00">calls</text>
</g>
<!-- L4YAML.Scanner.foldQuotedNewlinesLoop&#45;&gt;L4YAML.Scanner.ScannerState.peek? -->
<g id="edge33" class="edge">
<title>L4YAML.Scanner.foldQuotedNewlinesLoop&#45;&gt;L4YAML.Scanner.ScannerState.peek?</title>
<path fill="none" stroke="#4a90d9" stroke-width="2" d="M1147.86,-177.96C1186.96,-165.35 1240.22,-148.17 1280.75,-135.1"/>
<polygon fill="#4a90d9" stroke="#4a90d9" stroke-width="2" points="1281.75,-137.36 1287.66,-132.88 1280.24,-132.69 1281.75,-137.36"/>
<text text-anchor="middle" x="1233.5" y="-153.6" font-family="Times-Roman" font-size="8.00">calls</text>
</g>
<!-- L4YAML.Scanner.foldQuotedNewlinesLoop&#45;&gt;L4YAML.Scanner.skipWhitespaceLoop.match_1 -->
<g id="edge35" class="edge">
<title>L4YAML.Scanner.foldQuotedNewlinesLoop&#45;&gt;L4YAML.Scanner.skipWhitespaceLoop.match_1</title>
<path fill="none" stroke="#4a90d9" stroke-width="2" d="M1116.92,-177.86C1132,-166.06 1152.17,-150.28 1168.36,-137.62"/>
<polygon fill="#4a90d9" stroke="#4a90d9" stroke-width="2" points="1170.12,-139.35 1174.13,-133.11 1167.1,-135.49 1170.12,-139.35"/>
<text text-anchor="middle" x="1157.5" y="-153.6" font-family="Times-Roman" font-size="8.00">calls</text>
</g>
<!-- L4YAML.Scanner.foldQuotedNewlinesLoop&#45;&gt;L4YAML.CharPredicates.isLineBreakBool -->
<g id="edge17" class="edge">
<title>L4YAML.Scanner.foldQuotedNewlinesLoop&#45;&gt;L4YAML.CharPredicates.isLineBreakBool</title>
<path fill="none" stroke="#4a90d9" stroke-width="2" d="M1079.81,-177.86C1069.63,-166.37 1056.11,-151.11 1045.05,-138.63"/>
<polygon fill="#4a90d9" stroke="#4a90d9" stroke-width="2" points="1046.64,-136.72 1040.16,-133.11 1042.97,-139.97 1046.64,-136.72"/>
<text text-anchor="middle" x="1071.5" y="-153.6" font-family="Times-Roman" font-size="8.00">calls</text>
</g>
<!-- L4YAML.Scanner.skipSpaces&#45;&gt;L4YAML.Scanner.ScannerState -->
<g id="edge25" class="edge">
<title>L4YAML.Scanner.skipSpaces&#45;&gt;L4YAML.Scanner.ScannerState</title>
<path fill="none" stroke="#4a90d9" stroke-width="2" d="M918.3,-96.86C935.18,-84.95 957.79,-69.01 975.82,-56.29"/>
<polygon fill="#4a90d9" stroke="#4a90d9" stroke-width="2" points="977.44,-58.15 981.75,-52.11 974.61,-54.14 977.44,-58.15"/>
<text text-anchor="middle" x="962.5" y="-72.6" font-family="Times-Roman" font-size="8.00">calls</text>
</g>
<!-- L4YAML.Scanner.skipSpaces&#45;&gt;L4YAML.Scanner.skipSpacesLoop -->
<g id="edge28" class="edge">
<title>L4YAML.Scanner.skipSpaces&#45;&gt;L4YAML.Scanner.skipSpacesLoop</title>
<path fill="none" stroke="#4a90d9" stroke-width="2" d="M896.39,-96.86C897.91,-85.88 899.92,-71.48 901.61,-59.33"/>
<polygon fill="#4a90d9" stroke="#4a90d9" stroke-width="2" points="904.08,-59.38 902.62,-52.11 899.23,-58.7 904.08,-59.38"/>
<text text-anchor="middle" x="908.5" y="-72.6" font-family="Times-Roman" font-size="8.00">calls</text>
</g>
<!-- L4YAML.Scanner.collectPlainScalarLoop&#45;&gt;L4YAML.Scanner.foldQuotedNewlines -->
<g id="edge5" class="edge">
<title>L4YAML.Scanner.collectPlainScalarLoop&#45;&gt;L4YAML.Scanner.foldQuotedNewlines</title>
<path fill="none" stroke="#4a90d9" stroke-width="2" d="M918,-339.86C918,-328.88 918,-314.48 918,-302.33"/>
<polygon fill="#4a90d9" stroke="#4a90d9" stroke-width="2" points="920.45,-302.11 918,-295.11 915.55,-302.11 920.45,-302.11"/>
<text text-anchor="middle" x="927.5" y="-315.6" font-family="Times-Roman" font-size="8.00">calls</text>
</g>
<!-- L4YAML.Scanner.foldQuotedNewlinesLoop.eq_def -->
<g id="node14" class="node">
<title>L4YAML.Scanner.foldQuotedNewlinesLoop.eq_def</title>
<ellipse fill="#d4edda" stroke="#28a745" cx="743" cy="-196" rx="93.02" ry="18"/>
<text text-anchor="middle" x="743" y="-193.5" font-family="Helvetica" font-size="10.00">foldQuotedNewlinesLoop.eq_def</text>
</g>
<!-- L4YAML.Scanner.foldQuotedNewlinesLoop.eq_def&#45;&gt;L4YAML.Scanner.consumeNewline -->
<g id="edge38" class="edge">
<title>L4YAML.Scanner.foldQuotedNewlinesLoop.eq_def&#45;&gt;L4YAML.Scanner.consumeNewline</title>
<path fill="none" stroke="#999999" stroke-dasharray="1,5" d="M811.61,-183.77C823.73,-181.82 836.23,-179.84 848,-178 927.93,-165.54 947.5,-158.96 1028,-151 1193.17,-134.67 1237.54,-161.73 1401,-133 1401.65,-132.89 1402.29,-132.77 1402.95,-132.64"/>
<polygon fill="#999999" stroke="#999999" points="1403.66,-135 1409.99,-131.14 1402.64,-130.2 1403.66,-135"/>
<text text-anchor="middle" x="1040.5" y="-153.6" font-family="Times-Roman" font-size="8.00">about</text>
</g>
<!-- L4YAML.Scanner.foldQuotedNewlinesLoop.eq_def&#45;&gt;L4YAML.Scanner.ScannerState.peek? -->
<g id="edge34" class="edge">
<title>L4YAML.Scanner.foldQuotedNewlinesLoop.eq_def&#45;&gt;L4YAML.Scanner.ScannerState.peek?</title>
<path fill="none" stroke="#999999" stroke-dasharray="1,5" d="M776.42,-179.08C801.75,-167.14 833.32,-152.59 840,-151 934.99,-128.42 1182.55,-148.21 1279,-133 1279.64,-132.9 1280.29,-132.79 1280.93,-132.68"/>
<polygon fill="#999999" stroke="#999999" points="1281.51,-135.07 1287.93,-131.36 1280.6,-130.25 1281.51,-135.07"/>
<text text-anchor="middle" x="852.5" y="-153.6" font-family="Times-Roman" font-size="8.00">about</text>
</g>
<!-- L4YAML.Scanner.foldQuotedNewlinesLoop.eq_def&#45;&gt;L4YAML.Scanner.skipWhitespaceLoop.match_1 -->
<g id="edge36" class="edge">
<title>L4YAML.Scanner.foldQuotedNewlinesLoop.eq_def&#45;&gt;L4YAML.Scanner.skipWhitespaceLoop.match_1</title>
<path fill="none" stroke="#999999" stroke-dasharray="1,5" d="M756.54,-178.11C765.47,-168.31 778.06,-156.79 792,-151 857.98,-123.58 1042.15,-142.19 1113,-133 1113.64,-132.92 1114.28,-132.83 1114.92,-132.75"/>
<polygon fill="#999999" stroke="#999999" points="1115.3,-135.17 1121.88,-131.74 1114.6,-130.32 1115.3,-135.17"/>
<text text-anchor="middle" x="804.5" y="-153.6" font-family="Times-Roman" font-size="8.00">about</text>
</g>
<!-- L4YAML.Scanner.foldQuotedNewlinesLoop.eq_def&#45;&gt;L4YAML.CharPredicates.isLineBreakBool -->
<g id="edge19" class="edge">
<title>L4YAML.Scanner.foldQuotedNewlinesLoop.eq_def&#45;&gt;L4YAML.CharPredicates.isLineBreakBool</title>
<path fill="none" stroke="#999999" stroke-dasharray="1,5" d="M738.43,-177.93C737.09,-168.81 737.44,-158.04 744,-151 758.68,-135.25 915.68,-136.05 937,-133 937.64,-132.91 938.28,-132.82 938.93,-132.72"/>
<polygon fill="#999999" stroke="#999999" points="939.36,-135.13 945.91,-131.66 938.62,-130.29 939.36,-135.13"/>
<text text-anchor="middle" x="756.5" y="-153.6" font-family="Times-Roman" font-size="8.00">about</text>
</g>
<!-- L4YAML.Proofs.ScannerCorrectness.ScanHelpers.collectPlainScalarLoop_preserves_tokens -->
<g id="node15" class="node">
<title>L4YAML.Proofs.ScannerCorrectness.ScanHelpers.collectPlainScalarLoop_preserves_tokens</title>
<ellipse fill="#d4edda" stroke="#28a745" cx="630" cy="-439" rx="206.06" ry="18"/>
<text text-anchor="middle" x="630" y="-436.5" font-family="Helvetica" font-size="10.00">ScannerCorrectness.ScanHelpers.collectPlainScalarLoop_preserves_tokens</text>
</g>
<!-- L4YAML.Proofs.ScannerCorrectness.ScanHelpers.collectPlainScalarLoop_preserves_tokens&#45;&gt;L4YAML.Scanner.collectPlainScalarLoop -->
<g id="edge4" class="edge">
<title>L4YAML.Proofs.ScannerCorrectness.ScanHelpers.collectPlainScalarLoop_preserves_tokens&#45;&gt;L4YAML.Scanner.collectPlainScalarLoop</title>
<path fill="none" stroke="#999999" stroke-dasharray="1,5" d="M689.32,-421.73C736.98,-408.66 803.82,-390.32 852.93,-376.85"/>
<polygon fill="#999999" stroke="#999999" points="853.63,-379.2 859.74,-374.98 852.34,-374.47 853.63,-379.2"/>
<text text-anchor="middle" x="794.5" y="-396.6" font-family="Times-Roman" font-size="8.00">about</text>
</g>
<!-- L4YAML.Proofs.ScannerCorrectness.ScanHelpers.foldQuotedNewlines_preserves_tokens -->
<g id="node21" class="node">
<title>L4YAML.Proofs.ScannerCorrectness.ScanHelpers.foldQuotedNewlines_preserves_tokens</title>
<ellipse fill="#d4edda" stroke="#28a745" cx="625" cy="-358" rx="198.94" ry="18"/>
<text text-anchor="middle" x="625" y="-355.5" font-family="Helvetica" font-size="10.00">ScannerCorrectness.ScanHelpers.foldQuotedNewlines_preserves_tokens</text>
</g>
<!-- L4YAML.Proofs.ScannerCorrectness.ScanHelpers.collectPlainScalarLoop_preserves_tokens&#45;&gt;L4YAML.Proofs.ScannerCorrectness.ScanHelpers.foldQuotedNewlines_preserves_tokens -->
<g id="edge6" class="edge">
<title>L4YAML.Proofs.ScannerCorrectness.ScanHelpers.collectPlainScalarLoop_preserves_tokens&#45;&gt;L4YAML.Proofs.ScannerCorrectness.ScanHelpers.foldQuotedNewlines_preserves_tokens</title>
<path fill="none" stroke="#28a745" stroke-width="2" d="M628.92,-420.86C628.22,-409.88 627.31,-395.48 626.54,-383.33"/>
<polygon fill="#28a745" stroke="#28a745" stroke-width="2" points="628.97,-382.94 626.08,-376.11 624.08,-383.25 628.97,-382.94"/>
<text text-anchor="middle" x="637" y="-396.6" font-family="Times-Roman" font-size="8.00">uses</text>
</g>
<!-- L4YAML.Scanner.skipSpacesLoop.eq_def -->
<g id="node16" class="node">
<title>L4YAML.Scanner.skipSpacesLoop.eq_def</title>
<ellipse fill="#d4edda" stroke="#28a745" cx="479" cy="-115" rx="71.46" ry="18"/>
<text text-anchor="middle" x="479" y="-112.5" font-family="Helvetica" font-size="10.00">skipSpacesLoop.eq_def</text>
</g>
<!-- L4YAML.Scanner.skipSpacesLoop.eq_def&#45;&gt;L4YAML.Scanner.ScannerState -->
<g id="edge27" class="edge">
<title>L4YAML.Scanner.skipSpacesLoop.eq_def&#45;&gt;L4YAML.Scanner.ScannerState</title>
<path fill="none" stroke="#999999" stroke-dasharray="1,5" d="M519.35,-99.99C531.94,-96 545.94,-91.95 559,-89 617.68,-75.76 633.18,-76.26 693,-70 810.85,-57.67 843.04,-76.39 959,-52 959.63,-51.87 960.27,-51.73 960.9,-51.58"/>
<polygon fill="#999999" stroke="#999999" points="961.61,-53.93 967.78,-49.81 960.39,-49.18 961.61,-53.93"/>
<text text-anchor="middle" x="705.5" y="-72.6" font-family="Times-Roman" font-size="8.00">about</text>
</g>
<!-- L4YAML.Scanner.skipSpacesLoop.eq_def&#45;&gt;L4YAML.Scanner.skipSpacesLoop -->
<g id="edge29" class="edge">
<title>L4YAML.Scanner.skipSpacesLoop.eq_def&#45;&gt;L4YAML.Scanner.skipSpacesLoop</title>
<path fill="none" stroke="#999999" stroke-dasharray="1,5" d="M508.51,-98.46C528.43,-88.68 555.64,-76.68 581,-70 674.91,-45.28 788.53,-37.97 853.23,-35.84"/>
<polygon fill="#999999" stroke="#999999" points="853.56,-38.28 860.48,-35.62 853.41,-33.39 853.56,-38.28"/>
<text text-anchor="middle" x="593.5" y="-72.6" font-family="Times-Roman" font-size="8.00">about</text>
</g>
<!-- L4YAML.Proofs.ScannerCorrectness.ScanHelpers.scanPlainScalar_adds_one_token -->
<g id="node17" class="node">
<title>L4YAML.Proofs.ScannerCorrectness.ScanHelpers.scanPlainScalar_adds_one_token</title>
<polygon fill="#fff3cd" stroke="#d4a017" points="830.91,-536.54 830.91,-551.46 713.22,-562 546.78,-562 429.09,-551.46 429.09,-536.54 546.78,-526 713.22,-526 830.91,-536.54"/>
<polygon fill="none" stroke="#d4a017" points="834.91,-532.89 834.91,-555.11 713.4,-566 546.6,-566 425.09,-555.11 425.09,-532.89 546.6,-522 713.4,-522 834.91,-532.89"/>
<text text-anchor="middle" x="630" y="-541.5" font-family="Helvetica" font-size="10.00">ScannerCorrectness.ScanHelpers.scanPlainScalar_adds_one_token</text>
</g>
<!-- L4YAML.Proofs.ScannerCorrectness.ScanHelpers.scanPlainScalar_adds_one_token&#45;&gt;L4YAML.Scanner.scanPlainScalar -->
<g id="edge1" class="edge">
<title>L4YAML.Proofs.ScannerCorrectness.ScanHelpers.scanPlainScalar_adds_one_token&#45;&gt;L4YAML.Scanner.scanPlainScalar</title>
<path fill="none" stroke="#999999" stroke-dasharray="1,5" d="M737.7,-524.09C773.82,-515.48 813.63,-503.44 848,-487 861.73,-480.43 875.46,-470.66 886.58,-461.73"/>
<polygon fill="#999999" stroke="#999999" points="888.29,-463.49 892.14,-457.16 885.18,-459.71 888.29,-463.49"/>
<text text-anchor="middle" x="837.5" y="-497.6" font-family="Times-Roman" font-size="8.00">about</text>
</g>
<!-- L4YAML.Proofs.ScannerCorrectness.ScanHelpers.scanPlainScalar_adds_one_token&#45;&gt;L4YAML.Proofs.ScannerCorrectness.ScanHelpers.collectPlainScalarLoop_preserves_tokens -->
<g id="edge3" class="edge">
<title>L4YAML.Proofs.ScannerCorrectness.ScanHelpers.scanPlainScalar_adds_one_token&#45;&gt;L4YAML.Proofs.ScannerCorrectness.ScanHelpers.collectPlainScalarLoop_preserves_tokens</title>
<path fill="none" stroke="#28a745" stroke-width="2" d="M630,-521.66C630,-504.95 630,-481.71 630,-464.29"/>
<polygon fill="#28a745" stroke="#28a745" stroke-width="2" points="632.45,-464.22 630,-457.22 627.55,-464.22 632.45,-464.22"/>
<text text-anchor="middle" x="640" y="-497.6" font-family="Times-Roman" font-size="8.00">uses</text>
</g>
<!-- L4YAML.Proofs.ScannerCorrectness.consumeNewline_preserves_tokens -->
<g id="node18" class="node">
<title>L4YAML.Proofs.ScannerCorrectness.consumeNewline_preserves_tokens</title>
<ellipse fill="#d4edda" stroke="#28a745" cx="475" cy="-196" rx="156.67" ry="18"/>
<text text-anchor="middle" x="475" y="-193.5" font-family="Helvetica" font-size="10.00">ScannerCorrectness.consumeNewline_preserves_tokens</text>
</g>
<!-- L4YAML.Proofs.ScannerCorrectness.consumeNewline_preserves_tokens&#45;&gt;L4YAML.Scanner.consumeNewline -->
<g id="edge10" class="edge">
<title>L4YAML.Proofs.ScannerCorrectness.consumeNewline_preserves_tokens&#45;&gt;L4YAML.Scanner.consumeNewline</title>
<path fill="none" stroke="#999999" stroke-dasharray="1,5" d="M550.85,-180.18C613.36,-168.06 694.21,-152.67 710,-151 862.75,-134.81 1249.43,-157.91 1401,-133 1401.54,-132.91 1402.07,-132.82 1402.61,-132.72"/>
<polygon fill="#999999" stroke="#999999" points="1403.33,-135.08 1409.7,-131.29 1402.36,-130.28 1403.33,-135.08"/>
<text text-anchor="middle" x="722.5" y="-153.6" font-family="Times-Roman" font-size="8.00">about</text>
</g>
<!-- L4YAML.Proofs.ScannerCorrectness.advance_preserves_tokens -->
<g id="node19" class="node">
<title>L4YAML.Proofs.ScannerCorrectness.advance_preserves_tokens</title>
<ellipse fill="#d4edda" stroke="#28a745" cx="702" cy="-115" rx="133.75" ry="18"/>
<text text-anchor="middle" x="702" y="-112.5" font-family="Helvetica" font-size="10.00">ScannerCorrectness.advance_preserves_tokens</text>
</g>
<!-- L4YAML.Proofs.ScannerCorrectness.consumeNewline_preserves_tokens&#45;&gt;L4YAML.Proofs.ScannerCorrectness.advance_preserves_tokens -->
<g id="edge12" class="edge">
<title>L4YAML.Proofs.ScannerCorrectness.consumeNewline_preserves_tokens&#45;&gt;L4YAML.Proofs.ScannerCorrectness.advance_preserves_tokens</title>
<path fill="none" stroke="#28a745" stroke-width="2" d="M502.25,-178.1C517.82,-169.03 537.98,-158.26 557,-151 577.3,-143.25 599.88,-136.82 621.05,-131.68"/>
<polygon fill="#28a745" stroke="#28a745" stroke-width="2" points="621.63,-134.06 627.87,-130.05 620.49,-129.29 621.63,-134.06"/>
<text text-anchor="middle" x="567" y="-153.6" font-family="Times-Roman" font-size="8.00">uses</text>
</g>
<!-- L4YAML.Proofs.ScannerCorrectness.advance_preserves_tokens&#45;&gt;L4YAML.Scanner.ScannerState.advance -->
<g id="edge21" class="edge">
<title>L4YAML.Proofs.ScannerCorrectness.advance_preserves_tokens&#45;&gt;L4YAML.Scanner.ScannerState.advance</title>
<path fill="none" stroke="#999999" stroke-dasharray="1,5" d="M751.04,-98.21C784.25,-88.26 829.31,-76.16 870,-70 1049.47,-42.85 1097.31,-69.18 1278,-52 1294.67,-50.42 1312.6,-48.09 1329.26,-45.67"/>
<polygon fill="#999999" stroke="#999999" points="1329.75,-48.08 1336.32,-44.63 1329.03,-43.23 1329.75,-48.08"/>
<text text-anchor="middle" x="882.5" y="-72.6" font-family="Times-Roman" font-size="8.00">about</text>
</g>
<!-- L4YAML.Proofs.ScannerCorrectness.advance_preserves_tokens&#45;&gt;L4YAML.Scanner.ScannerState -->
<g id="edge31" class="edge">
<title>L4YAML.Proofs.ScannerCorrectness.advance_preserves_tokens&#45;&gt;L4YAML.Scanner.ScannerState</title>
<path fill="none" stroke="#999999" stroke-dasharray="1,5" d="M709.47,-96.89C714.62,-87.27 722.45,-76.02 733,-70 776.77,-45.04 909.76,-62.66 959,-52 959.63,-51.86 960.26,-51.72 960.9,-51.57"/>
<polygon fill="#999999" stroke="#999999" points="961.62,-53.92 967.77,-49.77 960.38,-49.18 961.62,-53.92"/>
<text text-anchor="middle" x="745.5" y="-72.6" font-family="Times-Roman" font-size="8.00">about</text>
</g>
<!-- L4YAML.Proofs.ScannerCorrectness.advance_preserves_tokens&#45;&gt;L4YAML.Scanner.ScannerState.tokens -->
<g id="edge13" class="edge">
<title>L4YAML.Proofs.ScannerCorrectness.advance_preserves_tokens&#45;&gt;L4YAML.Scanner.ScannerState.tokens</title>
<path fill="none" stroke="#999999" stroke-dasharray="1,5" d="M729.61,-97.22C747.12,-87.46 770.61,-75.95 793,-70 904.95,-40.25 937.6,-62.05 1053,-52 1086.52,-49.08 1123.86,-45.21 1154.25,-41.89"/>
<polygon fill="#999999" stroke="#999999" points="1154.72,-44.3 1161.41,-41.1 1154.19,-39.43 1154.72,-44.3"/>
<text text-anchor="middle" x="805.5" y="-72.6" font-family="Times-Roman" font-size="8.00">about</text>
</g>
<!-- L4YAML.Proofs.ScannerCorrectness.skipSpaces_preserves_tokens -->
<g id="node20" class="node">
<title>L4YAML.Proofs.ScannerCorrectness.skipSpaces_preserves_tokens</title>
<ellipse fill="#d4edda" stroke="#28a745" cx="158" cy="-196" rx="142.41" ry="18"/>
<text text-anchor="middle" x="158" y="-193.5" font-family="Helvetica" font-size="10.00">ScannerCorrectness.skipSpaces_preserves_tokens</text>
</g>
<!-- L4YAML.Proofs.ScannerCorrectness.skipSpaces_preserves_tokens&#45;&gt;L4YAML.Scanner.skipSpaces -->
<g id="edge24" class="edge">
<title>L4YAML.Proofs.ScannerCorrectness.skipSpaces_preserves_tokens&#45;&gt;L4YAML.Scanner.skipSpaces</title>
<path fill="none" stroke="#999999" stroke-dasharray="1,5" d="M257.84,-183.12C274.9,-181.27 292.45,-179.49 309,-178 427.9,-167.32 458.4,-173.65 577,-160 601.61,-157.17 607.42,-154.03 632,-151 727.61,-139.21 753.96,-153.89 848,-133 849.59,-132.65 851.19,-132.25 852.81,-131.82"/>
<polygon fill="#999999" stroke="#999999" points="853.86,-134.07 859.89,-129.76 852.49,-129.37 853.86,-134.07"/>
<text text-anchor="middle" x="644.5" y="-153.6" font-family="Times-Roman" font-size="8.00">about</text>
</g>
<!-- L4YAML.Proofs.ScannerCorrectness.skipSpaces_preserves_tokens&#45;&gt;L4YAML.Scanner.skipSpacesLoop.eq_def -->
<g id="edge26" class="edge">
<title>L4YAML.Proofs.ScannerCorrectness.skipSpaces_preserves_tokens&#45;&gt;L4YAML.Scanner.skipSpacesLoop.eq_def</title>
<path fill="none" stroke="#28a745" stroke-width="2" d="M219.89,-179.77C278.6,-165.32 366.03,-143.8 422.79,-129.83"/>
<polygon fill="#28a745" stroke="#28a745" stroke-width="2" points="423.69,-132.14 429.9,-128.08 422.51,-127.38 423.69,-132.14"/>
<text text-anchor="middle" x="338" y="-153.6" font-family="Times-Roman" font-size="8.00">uses</text>
</g>
<!-- L4YAML.Proofs.ScannerCorrectness.skipSpaces_preserves_tokens&#45;&gt;L4YAML.Proofs.ScannerCorrectness.advance_preserves_tokens -->
<g id="edge30" class="edge">
<title>L4YAML.Proofs.ScannerCorrectness.skipSpaces_preserves_tokens&#45;&gt;L4YAML.Proofs.ScannerCorrectness.advance_preserves_tokens</title>
<path fill="none" stroke="#28a745" stroke-width="2" d="M247.83,-181.95C347.15,-167.53 506.43,-144.4 607.56,-129.71"/>
<polygon fill="#28a745" stroke="#28a745" stroke-width="2" points="608.16,-132.1 614.74,-128.67 607.46,-127.25 608.16,-132.1"/>
<text text-anchor="middle" x="456" y="-153.6" font-family="Times-Roman" font-size="8.00">uses</text>
</g>
<!-- L4YAML.Proofs.ScannerCorrectness.ScanHelpers.foldQuotedNewlines_preserves_tokens&#45;&gt;L4YAML.Scanner.foldQuotedNewlines -->
<g id="edge7" class="edge">
<title>L4YAML.Proofs.ScannerCorrectness.ScanHelpers.foldQuotedNewlines_preserves_tokens&#45;&gt;L4YAML.Scanner.foldQuotedNewlines</title>
<path fill="none" stroke="#999999" stroke-dasharray="1,5" d="M685,-340.82C735.85,-327.11 808.36,-307.56 858.94,-293.92"/>
<polygon fill="#999999" stroke="#999999" points="859.81,-296.23 865.93,-292.04 858.53,-291.5 859.81,-296.23"/>
<text text-anchor="middle" x="792.5" y="-315.6" font-family="Times-Roman" font-size="8.00">about</text>
</g>
<!-- L4YAML.Proofs.ScannerCorrectness.ScanHelpers.foldQuotedNewlines_preserves_tokens&#45;&gt;L4YAML.Proofs.ScannerCorrectness.consumeNewline_preserves_tokens -->
<g id="edge9" class="edge">
<title>L4YAML.Proofs.ScannerCorrectness.ScanHelpers.foldQuotedNewlines_preserves_tokens&#45;&gt;L4YAML.Proofs.ScannerCorrectness.consumeNewline_preserves_tokens</title>
<path fill="none" stroke="#28a745" stroke-width="2" d="M519.61,-342.68C463.28,-332.64 402.06,-317.03 385,-295 362.9,-266.46 401.32,-236.25 434.6,-217.04"/>
<polygon fill="#28a745" stroke="#28a745" stroke-width="2" points="435.85,-219.15 440.74,-213.58 433.44,-214.88 435.85,-219.15"/>
<text text-anchor="middle" x="395" y="-275.1" font-family="Times-Roman" font-size="8.00">uses</text>
</g>
<!-- L4YAML.Proofs.ScannerCorrectness.ScanHelpers.foldQuotedNewlines_preserves_tokens&#45;&gt;L4YAML.Proofs.ScannerCorrectness.skipSpaces_preserves_tokens -->
<g id="edge23" class="edge">
<title>L4YAML.Proofs.ScannerCorrectness.ScanHelpers.foldQuotedNewlines_preserves_tokens&#45;&gt;L4YAML.Proofs.ScannerCorrectness.skipSpaces_preserves_tokens</title>
<path fill="none" stroke="#28a745" stroke-width="2" d="M501.23,-343.85C470.03,-338.72 436.91,-331.66 407,-322 325.23,-295.61 237.04,-245.65 190.72,-217.54"/>
<polygon fill="#28a745" stroke="#28a745" stroke-width="2" points="191.72,-215.28 184.47,-213.73 189.16,-219.47 191.72,-215.28"/>
<text text-anchor="middle" x="345" y="-275.1" font-family="Times-Roman" font-size="8.00">uses</text>
</g>
<!-- L4YAML.Proofs.ScannerCorrectness.ScanHelpers.foldQuotedNewlinesLoop_preserves_tokens -->
<g id="node22" class="node">
<title>L4YAML.Proofs.ScannerCorrectness.ScanHelpers.foldQuotedNewlinesLoop_preserves_tokens</title>
<ellipse fill="#d4edda" stroke="#28a745" cx="625" cy="-277" rx="211.16" ry="18"/>
<text text-anchor="middle" x="625" y="-274.5" font-family="Helvetica" font-size="10.00">ScannerCorrectness.ScanHelpers.foldQuotedNewlinesLoop_preserves_tokens</text>
</g>
<!-- L4YAML.Proofs.ScannerCorrectness.ScanHelpers.foldQuotedNewlines_preserves_tokens&#45;&gt;L4YAML.Proofs.ScannerCorrectness.ScanHelpers.foldQuotedNewlinesLoop_preserves_tokens -->
<g id="edge15" class="edge">
<title>L4YAML.Proofs.ScannerCorrectness.ScanHelpers.foldQuotedNewlines_preserves_tokens&#45;&gt;L4YAML.Proofs.ScannerCorrectness.ScanHelpers.foldQuotedNewlinesLoop_preserves_tokens</title>
<path fill="none" stroke="#28a745" stroke-width="2" d="M625,-339.86C625,-328.88 625,-314.48 625,-302.33"/>
<polygon fill="#28a745" stroke="#28a745" stroke-width="2" points="627.45,-302.11 625,-295.11 622.55,-302.11 627.45,-302.11"/>
<text text-anchor="middle" x="635" y="-315.6" font-family="Times-Roman" font-size="8.00">uses</text>
</g>
<!-- L4YAML.Proofs.ScannerCorrectness.ScanHelpers.foldQuotedNewlinesLoop_preserves_tokens&#45;&gt;L4YAML.Scanner.foldQuotedNewlinesLoop -->
<g id="edge16" class="edge">
<title>L4YAML.Proofs.ScannerCorrectness.ScanHelpers.foldQuotedNewlinesLoop_preserves_tokens&#45;&gt;L4YAML.Scanner.foldQuotedNewlinesLoop</title>
<path fill="none" stroke="#999999" stroke-dasharray="1,5" d="M715.9,-260.72C806.17,-245.55 942.65,-222.61 1024.87,-208.79"/>
<polygon fill="#999999" stroke="#999999" points="1025.67,-211.14 1032.16,-207.56 1024.85,-206.31 1025.67,-211.14"/>
<text text-anchor="middle" x="886.5" y="-234.6" font-family="Times-Roman" font-size="8.00">about</text>
</g>
<!-- L4YAML.Proofs.ScannerCorrectness.ScanHelpers.foldQuotedNewlinesLoop_preserves_tokens&#45;&gt;L4YAML.Scanner.foldQuotedNewlinesLoop.eq_def -->
<g id="edge18" class="edge">
<title>L4YAML.Proofs.ScannerCorrectness.ScanHelpers.foldQuotedNewlinesLoop_preserves_tokens&#45;&gt;L4YAML.Scanner.foldQuotedNewlinesLoop.eq_def</title>
<path fill="none" stroke="#28a745" stroke-width="2" d="M650.31,-259.05C668.52,-246.86 693.17,-230.36 712.47,-217.44"/>
<polygon fill="#28a745" stroke="#28a745" stroke-width="2" points="714.08,-219.31 718.54,-213.38 711.36,-215.24 714.08,-219.31"/>
<text text-anchor="middle" x="697" y="-234.6" font-family="Times-Roman" font-size="8.00">uses</text>
</g>
</g>
</svg>
