<?xml version="1.0" encoding="UTF-8" standalone="no"?>
<!DOCTYPE svg PUBLIC "-//W3C//DTD SVG 1.1//EN"
 "http://www.w3.org/Graphics/SVG/1.1/DTD/svg11.dtd">
<!-- Generated by graphviz version 2.44.0 (0)
 -->
<!-- Title: chain_ScannerCorrectness.skipSpaces_preserves_tokens Pages: 1 -->
<svg width="640pt" height="540pt"
 viewBox="0.00 0.00 640.00 540.00" xmlns="http://www.w3.org/2000/svg" xmlns:xlink="http://www.w3.org/1999/xlink">
<g id="graph0" class="graph" transform="scale(1 1) rotate(0) translate(4 536)">
<title>chain_ScannerCorrectness.skipSpaces_preserves_tokens</title>
<polygon fill="white" stroke="transparent" points="-4,4 -4,-536 636,-536 636,4 -4,4"/>
<text text-anchor="middle" x="316" y="-517.6" font-family="Helvetica Bold" font-size="13.00">Functorial Chains: ScannerCorrectness.skipSpaces_preserves_tokens</text>
<text text-anchor="middle" x="316" y="-503.6" font-family="Helvetica Bold" font-size="13.00">(heuristic: used by 5 proofs)</text>
<g id="clust1" class="cluster">
<title>cluster_fns</title>
<polygon fill="none" stroke="#4a90d9" stroke-dasharray="5,2" points="8,-8 8,-379 241,-379 241,-8 8,-8"/>
<text text-anchor="middle" x="124.5" y="-364.6" font-family="Helvetica Bold" font-size="13.00" fill="#4a90d9">Functions (Call Chain)</text>
</g>
<g id="clust2" class="cluster">
<title>cluster_thms</title>
<polygon fill="none" stroke="#28a745" stroke-dasharray="5,2" points="249,-89 249,-488 581,-488 581,-89 249,-89"/>
<text text-anchor="middle" x="415" y="-473.6" font-family="Helvetica Bold" font-size="13.00" fill="#28a745">Theorems (Proof Chain)</text>
</g>
<!-- L4YAML.Scanner.ScannerState.advance -->
<g id="node1" class="node">
<title>L4YAML.Scanner.ScannerState.advance</title>
<g id="a_node1"><a xlink:href="../../../api/L4YAML/Scanner.html#L4YAML.Scanner.ScannerState.advance" xlink:title="ScannerState.advance" target="_blank">
<polygon fill="#dce9f7" stroke="#4a90d9" points="138.5,-52 23.5,-52 23.5,-16 138.5,-16 138.5,-52"/>
<text text-anchor="middle" x="81" y="-31.5" font-family="Helvetica" font-size="10.00">ScannerState.advance</text>
</a>
</g>
</g>
<!-- L4YAML.Scanner.skipSpaces -->
<g id="node2" class="node">
<title>L4YAML.Scanner.skipSpaces</title>
<g id="a_node2"><a xlink:href="../../../api/L4YAML/Scanner.html#L4YAML.Scanner.skipSpaces" xlink:title="skipSpaces" target="_blank">
<polygon fill="#dce9f7" stroke="#4a90d9" points="135,-349 67,-349 67,-313 135,-313 135,-349"/>
<text text-anchor="middle" x="101" y="-328.5" font-family="Helvetica" font-size="10.00">skipSpaces</text>
</a>
</g>
</g>
<!-- L4YAML.Scanner.ScannerState -->
<g id="node3" class="node">
<title>L4YAML.Scanner.ScannerState</title>
<g id="a_node3"><a xlink:href="../../../api/L4YAML/Scanner.html#L4YAML.Scanner.ScannerState" xlink:title="ScannerState" target="_blank">
<polygon fill="#dce9f7" stroke="#4a90d9" points="233,-52 157,-52 157,-16 233,-16 233,-52"/>
<text text-anchor="middle" x="195" y="-31.5" font-family="Helvetica" font-size="10.00">ScannerState</text>
</a>
</g>
</g>
<!-- L4YAML.Scanner.skipSpaces&#45;&gt;L4YAML.Scanner.ScannerState -->
<g id="edge15" class="edge">
<title>L4YAML.Scanner.skipSpaces&#45;&gt;L4YAML.Scanner.ScannerState</title>
<path fill="none" stroke="#4a90d9" stroke-width="2" d="M89.51,-312.91C62.95,-271.06 3.11,-161.58 51,-89 76.41,-50.49 103.96,-65.76 148,-52 148.72,-51.77 149.45,-51.54 150.19,-51.31"/>
<polygon fill="#4a90d9" stroke="#4a90d9" stroke-width="2" points="150.99,-53.62 156.88,-49.11 149.46,-48.97 150.99,-53.62"/>
<text text-anchor="middle" x="46.5" y="-167.1" font-family="Times-Roman" font-size="8.00">calls</text>
</g>
<!-- L4YAML.Scanner.skipSpacesLoop -->
<g id="node5" class="node">
<title>L4YAML.Scanner.skipSpacesLoop</title>
<g id="a_node5"><a xlink:href="../../../api/L4YAML/Scanner.html#L4YAML.Scanner.skipSpacesLoop" xlink:title="skipSpacesLoop" target="_blank">
<polygon fill="#dce9f7" stroke="#4a90d9" points="158.5,-241 69.5,-241 69.5,-205 158.5,-205 158.5,-241"/>
<text text-anchor="middle" x="114" y="-220.5" font-family="Helvetica" font-size="10.00">skipSpacesLoop</text>
</a>
</g>
</g>
<!-- L4YAML.Scanner.skipSpaces&#45;&gt;L4YAML.Scanner.skipSpacesLoop -->
<g id="edge2" class="edge">
<title>L4YAML.Scanner.skipSpaces&#45;&gt;L4YAML.Scanner.skipSpacesLoop</title>
<path fill="none" stroke="#4a90d9" stroke-width="2" d="M97.86,-312.86C95.77,-298.35 94.06,-277.08 98,-259 98.82,-255.25 100.07,-251.41 101.53,-247.73"/>
<polygon fill="#4a90d9" stroke="#4a90d9" stroke-width="2" points="103.79,-248.69 104.32,-241.29 99.29,-246.74 103.79,-248.69"/>
<text text-anchor="middle" x="107.5" y="-275.1" font-family="Times-Roman" font-size="8.00">calls</text>
</g>
<!-- L4YAML.Scanner.skipSpacesLoop._unary -->
<g id="node4" class="node">
<title>L4YAML.Scanner.skipSpacesLoop._unary</title>
<g id="a_node4"><a xlink:href="../../../api/L4YAML/Scanner.html#L4YAML.Scanner.skipSpacesLoop._unary" xlink:title="skipSpacesLoop._unary" target="_blank">
<polygon fill="#dce9f7" stroke="#4a90d9" points="213,-133 91,-133 91,-97 213,-97 213,-133"/>
<text text-anchor="middle" x="152" y="-112.5" font-family="Helvetica" font-size="10.00">skipSpacesLoop._unary</text>
</a>
</g>
</g>
<!-- L4YAML.Scanner.skipSpacesLoop._unary&#45;&gt;L4YAML.Scanner.ScannerState.advance -->
<g id="edge8" class="edge">
<title>L4YAML.Scanner.skipSpacesLoop._unary&#45;&gt;L4YAML.Scanner.ScannerState.advance</title>
<path fill="none" stroke="#4a90d9" stroke-width="2" d="M136.59,-96.86C126.27,-85.37 112.56,-70.11 101.34,-57.63"/>
<polygon fill="#4a90d9" stroke="#4a90d9" stroke-width="2" points="102.88,-55.68 96.38,-52.11 99.23,-58.95 102.88,-55.68"/>
<text text-anchor="middle" x="127.5" y="-72.6" font-family="Times-Roman" font-size="8.00">calls</text>
</g>
<!-- L4YAML.Scanner.skipSpacesLoop._unary&#45;&gt;L4YAML.Scanner.ScannerState -->
<g id="edge11" class="edge">
<title>L4YAML.Scanner.skipSpacesLoop._unary&#45;&gt;L4YAML.Scanner.ScannerState</title>
<path fill="none" stroke="#4a90d9" stroke-width="2" d="M161.33,-96.86C167.47,-85.57 175.59,-70.66 182.32,-58.3"/>
<polygon fill="#4a90d9" stroke="#4a90d9" stroke-width="2" points="184.49,-59.43 185.69,-52.11 180.19,-57.09 184.49,-59.43"/>
<text text-anchor="middle" x="183.5" y="-72.6" font-family="Times-Roman" font-size="8.00">calls</text>
</g>
<!-- L4YAML.Scanner.skipSpacesLoop&#45;&gt;L4YAML.Scanner.ScannerState -->
<g id="edge13" class="edge">
<title>L4YAML.Scanner.skipSpacesLoop&#45;&gt;L4YAML.Scanner.ScannerState</title>
<path fill="none" stroke="#4a90d9" stroke-width="2" d="M97.77,-204.89C74.68,-178.39 37.78,-126.57 63,-89 65.66,-85.04 112.84,-66.32 150.04,-52.02"/>
<polygon fill="#4a90d9" stroke="#4a90d9" stroke-width="2" points="151.2,-54.2 156.86,-49.41 149.44,-49.63 151.2,-54.2"/>
<text text-anchor="middle" x="72.5" y="-113.1" font-family="Times-Roman" font-size="8.00">calls</text>
</g>
<!-- L4YAML.Scanner.skipSpacesLoop&#45;&gt;L4YAML.Scanner.skipSpacesLoop._unary -->
<g id="edge5" class="edge">
<title>L4YAML.Scanner.skipSpacesLoop&#45;&gt;L4YAML.Scanner.skipSpacesLoop._unary</title>
<path fill="none" stroke="#4a90d9" stroke-width="2" d="M120.11,-204.97C126.41,-187.38 136.3,-159.78 143.4,-139.99"/>
<polygon fill="#4a90d9" stroke="#4a90d9" stroke-width="2" points="145.73,-140.76 145.78,-133.34 141.11,-139.1 145.73,-140.76"/>
<text text-anchor="middle" x="147.5" y="-167.1" font-family="Times-Roman" font-size="8.00">calls</text>
</g>
<!-- L4YAML.Scanner.ScannerState.tokens -->
<g id="node6" class="node">
<title>L4YAML.Scanner.ScannerState.tokens</title>
<g id="a_node6"><a xlink:href="../../../api/L4YAML/Scanner.html#L4YAML.Scanner.ScannerState.tokens" xlink:title="ScannerState.tokens" target="_blank">
<polygon fill="#dce9f7" stroke="#4a90d9" points="232.5,-295 125.5,-295 125.5,-259 232.5,-259 232.5,-295"/>
<text text-anchor="middle" x="179" y="-274.5" font-family="Helvetica" font-size="10.00">ScannerState.tokens</text>
</a>
</g>
</g>
<!-- L4YAML.Scanner.ScannerState.tokens&#45;&gt;L4YAML.Scanner.ScannerState -->
<g id="edge19" class="edge">
<title>L4YAML.Scanner.ScannerState.tokens&#45;&gt;L4YAML.Scanner.ScannerState</title>
<path fill="none" stroke="#4a90d9" stroke-width="2" d="M175.1,-258.58C170.37,-232.78 165.43,-183.93 187,-151 196.58,-136.37 212.89,-147.93 222,-133 232.19,-116.31 226.49,-108.03 222,-89 219.52,-78.49 214.66,-67.7 209.75,-58.55"/>
<polygon fill="#4a90d9" stroke="#4a90d9" stroke-width="2" points="211.75,-57.11 206.19,-52.21 207.48,-59.51 211.75,-57.11"/>
<text text-anchor="middle" x="196.5" y="-167.1" font-family="Times-Roman" font-size="8.00">calls</text>
</g>
<!-- L4YAML.Scanner.skipSpacesLoop._unary._proof_1 -->
<g id="node7" class="node">
<title>L4YAML.Scanner.skipSpacesLoop._unary._proof_1</title>
<g id="a_node7"><a xlink:href="../../../api/L4YAML/Scanner.html#L4YAML.Scanner.skipSpacesLoop._unary._proof_1" xlink:title="skipSpacesLoop._unary._proof_1" target="_blank">
<ellipse fill="#d4edda" stroke="#28a745" cx="352" cy="-115" rx="94.55" ry="18"/>
<text text-anchor="middle" x="352" y="-112.5" font-family="Helvetica" font-size="10.00">skipSpacesLoop._unary._proof_1</text>
</a>
</g>
</g>
<!-- L4YAML.Scanner.skipSpacesLoop._unary._proof_1&#45;&gt;L4YAML.Scanner.ScannerState.advance -->
<g id="edge10" class="edge">
<title>L4YAML.Scanner.skipSpacesLoop._unary._proof_1&#45;&gt;L4YAML.Scanner.ScannerState.advance</title>
<path fill="none" stroke="#999999" stroke-dasharray="1,5" d="M302.61,-99.6C258.52,-86.75 193.66,-67.84 145.49,-53.8"/>
<polygon fill="#999999" stroke="#999999" points="145.92,-51.37 138.51,-51.76 144.54,-56.08 145.92,-51.37"/>
<text text-anchor="middle" x="236.5" y="-72.6" font-family="Times-Roman" font-size="8.00">about</text>
</g>
<!-- L4YAML.Scanner.skipSpacesLoop._unary._proof_1&#45;&gt;L4YAML.Scanner.ScannerState -->
<g id="edge12" class="edge">
<title>L4YAML.Scanner.skipSpacesLoop._unary._proof_1&#45;&gt;L4YAML.Scanner.ScannerState</title>
<path fill="none" stroke="#999999" stroke-dasharray="1,5" d="M334.3,-97.23C324.04,-88.2 310.5,-77.42 297,-70 279.33,-60.29 258.47,-52.55 240.24,-46.85"/>
<polygon fill="#999999" stroke="#999999" points="240.54,-44.38 233.13,-44.69 239.11,-49.07 240.54,-44.38"/>
<text text-anchor="middle" x="322.5" y="-72.6" font-family="Times-Roman" font-size="8.00">about</text>
</g>
<!-- L4YAML.Scanner.skipSpacesLoop.eq_def -->
<g id="node8" class="node">
<title>L4YAML.Scanner.skipSpacesLoop.eq_def</title>
<g id="a_node8"><a xlink:href="../../../api/L4YAML/Scanner.html#L4YAML.Scanner.skipSpacesLoop.eq_def" xlink:title="skipSpacesLoop.eq_def" target="_blank">
<ellipse fill="#d4edda" stroke="#28a745" cx="348" cy="-331" rx="71.46" ry="18"/>
<text text-anchor="middle" x="348" y="-328.5" font-family="Helvetica" font-size="10.00">skipSpacesLoop.eq_def</text>
</a>
</g>
</g>
<!-- L4YAML.Scanner.skipSpacesLoop.eq_def&#45;&gt;L4YAML.Scanner.ScannerState -->
<g id="edge20" class="edge">
<title>L4YAML.Scanner.skipSpacesLoop.eq_def&#45;&gt;L4YAML.Scanner.ScannerState</title>
<path fill="none" stroke="#999999" stroke-dasharray="1,5" d="M395.57,-317.6C453.6,-299.63 549.15,-260.2 591,-187 612.62,-149.19 619.22,-122.18 591,-89 568.52,-62.58 339.48,-44.48 240.34,-37.83"/>
<polygon fill="#999999" stroke="#999999" points="240.29,-35.37 233.14,-37.35 239.97,-40.26 240.29,-35.37"/>
<text text-anchor="middle" x="619.5" y="-167.1" font-family="Times-Roman" font-size="8.00">about</text>
</g>
<!-- L4YAML.Scanner.skipSpacesLoop.eq_def&#45;&gt;L4YAML.Scanner.skipSpacesLoop -->
<g id="edge4" class="edge">
<title>L4YAML.Scanner.skipSpacesLoop.eq_def&#45;&gt;L4YAML.Scanner.skipSpacesLoop</title>
<path fill="none" stroke="#999999" stroke-dasharray="1,5" d="M327.67,-313.45C307.17,-297.48 274.03,-273.63 242,-259 217.87,-247.98 189.56,-239.79 165.7,-234.12"/>
<polygon fill="#999999" stroke="#999999" points="166.15,-231.71 158.78,-232.51 165.04,-236.48 166.15,-231.71"/>
<text text-anchor="middle" x="313.5" y="-275.1" font-family="Times-Roman" font-size="8.00">about</text>
</g>
<!-- L4YAML.Scanner.skipSpacesLoop._unary.eq_def -->
<g id="node10" class="node">
<title>L4YAML.Scanner.skipSpacesLoop._unary.eq_def</title>
<g id="a_node10"><a xlink:href="../../../api/L4YAML/Scanner.html#L4YAML.Scanner.skipSpacesLoop._unary.eq_def" xlink:title="skipSpacesLoop._unary.eq_def" target="_blank">
<ellipse fill="#d4edda" stroke="#28a745" cx="347" cy="-223" rx="90.13" ry="18"/>
<text text-anchor="middle" x="347" y="-220.5" font-family="Helvetica" font-size="10.00">skipSpacesLoop._unary.eq_def</text>
</a>
</g>
</g>
<!-- L4YAML.Scanner.skipSpacesLoop.eq_def&#45;&gt;L4YAML.Scanner.skipSpacesLoop._unary.eq_def -->
<g id="edge6" class="edge">
<title>L4YAML.Scanner.skipSpacesLoop.eq_def&#45;&gt;L4YAML.Scanner.skipSpacesLoop._unary.eq_def</title>
<path fill="none" stroke="#28a745" stroke-width="2" d="M347.84,-312.97C347.67,-295.53 347.42,-268.26 347.23,-248.51"/>
<polygon fill="#28a745" stroke="#28a745" stroke-width="2" points="349.68,-248.32 347.16,-241.34 344.78,-248.36 349.68,-248.32"/>
<text text-anchor="middle" x="357" y="-275.1" font-family="Times-Roman" font-size="8.00">uses</text>
</g>
<!-- L4YAML.Proofs.ScannerCorrectness.advance_preserves_tokens -->
<g id="node9" class="node">
<title>L4YAML.Proofs.ScannerCorrectness.advance_preserves_tokens</title>
<g id="a_node9"><a xlink:href="../../../api/L4YAML/Proofs/ScannerCorrectness.html#L4YAML.Proofs.ScannerCorrectness.advance_preserves_tokens" xlink:title="ScannerCorrectness.advance_preserves_tokens" target="_blank">
<ellipse fill="#d4edda" stroke="#28a745" cx="439" cy="-169" rx="133.75" ry="18"/>
<text text-anchor="middle" x="439" y="-166.5" font-family="Helvetica" font-size="10.00">ScannerCorrectness.advance_preserves_tokens</text>
</a>
</g>
</g>
<!-- L4YAML.Proofs.ScannerCorrectness.advance_preserves_tokens&#45;&gt;L4YAML.Scanner.ScannerState -->
<g id="edge17" class="edge">
<title>L4YAML.Proofs.ScannerCorrectness.advance_preserves_tokens&#45;&gt;L4YAML.Scanner.ScannerState</title>
<path fill="none" stroke="#999999" stroke-dasharray="1,5" d="M450,-151C459.73,-133.58 470.35,-106.62 456,-89 429.29,-56.2 307.6,-42.71 240.22,-37.67"/>
<polygon fill="#999999" stroke="#999999" points="240.24,-35.22 233.08,-37.16 239.89,-40.11 240.24,-35.22"/>
<text text-anchor="middle" x="474.5" y="-113.1" font-family="Times-Roman" font-size="8.00">about</text>
</g>
<!-- L4YAML.Scanner.skipSpacesLoop._unary.eq_def&#45;&gt;L4YAML.Scanner.ScannerState -->
<g id="edge14" class="edge">
<title>L4YAML.Scanner.skipSpacesLoop._unary.eq_def&#45;&gt;L4YAML.Scanner.ScannerState</title>
<path fill="none" stroke="#999999" stroke-dasharray="1,5" d="M435.81,-219.86C491.52,-216.42 556.09,-207.89 574,-187 584.42,-174.85 581.17,-165.3 574,-151 553.37,-109.84 530.76,-112.23 491,-89 472.96,-78.46 468.1,-75.71 448,-70 377.12,-49.86 291.65,-41.12 240.4,-37.47"/>
<polygon fill="#999999" stroke="#999999" points="240.55,-35.02 233.4,-36.98 240.21,-39.91 240.55,-35.02"/>
<text text-anchor="middle" x="574.5" y="-113.1" font-family="Times-Roman" font-size="8.00">about</text>
</g>
<!-- L4YAML.Scanner.skipSpacesLoop._unary.eq_def&#45;&gt;L4YAML.Scanner.skipSpacesLoop._unary -->
<g id="edge7" class="edge">
<title>L4YAML.Scanner.skipSpacesLoop._unary.eq_def&#45;&gt;L4YAML.Scanner.skipSpacesLoop._unary</title>
<path fill="none" stroke="#999999" stroke-dasharray="1,5" d="M288.46,-209.31C271.91,-204.05 254.48,-196.82 240,-187 222.76,-175.31 225.8,-164.57 210,-151 204.12,-145.96 197.44,-141.19 190.74,-136.89"/>
<polygon fill="#999999" stroke="#999999" points="191.85,-134.7 184.61,-133.09 189.26,-138.86 191.85,-134.7"/>
<text text-anchor="middle" x="252.5" y="-167.1" font-family="Times-Roman" font-size="8.00">about</text>
</g>
<!-- L4YAML.Scanner.skipSpacesLoop._unary.eq_def&#45;&gt;L4YAML.Scanner.skipSpacesLoop._unary._proof_1 -->
<g id="edge9" class="edge">
<title>L4YAML.Scanner.skipSpacesLoop._unary.eq_def&#45;&gt;L4YAML.Scanner.skipSpacesLoop._unary._proof_1</title>
<path fill="none" stroke="#28a745" stroke-width="2" d="M299.24,-207.58C290.01,-202.56 281.52,-195.87 276,-187 267.55,-173.41 267.37,-164.47 276,-151 280.53,-143.93 286.89,-138.27 294.02,-133.74"/>
<polygon fill="#28a745" stroke="#28a745" stroke-width="2" points="295.33,-135.81 300.17,-130.19 292.88,-131.56 295.33,-135.81"/>
<text text-anchor="middle" x="286" y="-167.1" font-family="Times-Roman" font-size="8.00">uses</text>
</g>
<!-- L4YAML.Proofs.ScannerCorrectness.skipSpaces_preserves_tokens -->
<g id="node11" class="node">
<title>L4YAML.Proofs.ScannerCorrectness.skipSpaces_preserves_tokens</title>
<g id="a_node11"><a xlink:href="../../../api/L4YAML/Proofs/ScannerCorrectness.html#L4YAML.Proofs.ScannerCorrectness.skipSpaces_preserves_tokens" xlink:title="ScannerCorrectness.skipSpaces_preserves_tokens" target="_blank">
<polygon fill="#fff3cd" stroke="#d4a017" points="569.38,-428.54 569.38,-443.46 478.95,-454 351.05,-454 260.62,-443.46 260.62,-428.54 351.05,-418 478.95,-418 569.38,-428.54"/>
<polygon fill="none" stroke="#d4a017" points="573.39,-424.98 573.39,-447.02 479.18,-458 350.82,-458 256.61,-447.02 256.61,-424.98 350.82,-414 479.18,-414 573.39,-424.98"/>
<text text-anchor="middle" x="415" y="-433.5" font-family="Helvetica" font-size="10.00">ScannerCorrectness.skipSpaces_preserves_tokens</text>
</a>
</g>
</g>
<!-- L4YAML.Proofs.ScannerCorrectness.skipSpaces_preserves_tokens&#45;&gt;L4YAML.Scanner.skipSpaces -->
<g id="edge1" class="edge">
<title>L4YAML.Proofs.ScannerCorrectness.skipSpaces_preserves_tokens&#45;&gt;L4YAML.Scanner.skipSpaces</title>
<path fill="none" stroke="#999999" stroke-dasharray="1,5" d="M256.7,-424.93C225.87,-418.91 194.59,-409.77 167,-396 147.59,-386.31 130.18,-368.86 118.12,-354.63"/>
<polygon fill="#999999" stroke="#999999" points="119.95,-353 113.61,-349.16 116.17,-356.12 119.95,-353"/>
<text text-anchor="middle" x="179.5" y="-389.6" font-family="Times-Roman" font-size="8.00">about</text>
</g>
<!-- L4YAML.Proofs.ScannerCorrectness.skipSpaces_preserves_tokens&#45;&gt;L4YAML.Scanner.ScannerState.tokens -->
<g id="edge18" class="edge">
<title>L4YAML.Proofs.ScannerCorrectness.skipSpaces_preserves_tokens&#45;&gt;L4YAML.Scanner.ScannerState.tokens</title>
<path fill="none" stroke="#999999" stroke-dasharray="1,5" d="M341.64,-414.9C316.96,-406.15 290.11,-394.33 268,-379 237.32,-357.73 210.28,-323.68 194.28,-301.08"/>
<polygon fill="#999999" stroke="#999999" points="196.27,-299.66 190.26,-295.32 192.25,-302.46 196.27,-299.66"/>
<text text-anchor="middle" x="306.5" y="-389.6" font-family="Times-Roman" font-size="8.00">about</text>
</g>
<!-- L4YAML.Proofs.ScannerCorrectness.skipSpaces_preserves_tokens&#45;&gt;L4YAML.Scanner.skipSpacesLoop.eq_def -->
<g id="edge3" class="edge">
<title>L4YAML.Proofs.ScannerCorrectness.skipSpaces_preserves_tokens&#45;&gt;L4YAML.Scanner.skipSpacesLoop.eq_def</title>
<path fill="none" stroke="#28a745" stroke-width="2" d="M401.12,-413.66C389.99,-396.55 374.4,-372.59 362.99,-355.04"/>
<polygon fill="#28a745" stroke="#28a745" stroke-width="2" points="364.86,-353.43 358.99,-348.89 360.75,-356.1 364.86,-353.43"/>
<text text-anchor="middle" x="399" y="-389.6" font-family="Times-Roman" font-size="8.00">uses</text>
</g>
<!-- L4YAML.Proofs.ScannerCorrectness.skipSpaces_preserves_tokens&#45;&gt;L4YAML.Proofs.ScannerCorrectness.advance_preserves_tokens -->
<g id="edge16" class="edge">
<title>L4YAML.Proofs.ScannerCorrectness.skipSpaces_preserves_tokens&#45;&gt;L4YAML.Proofs.ScannerCorrectness.advance_preserves_tokens</title>
<path fill="none" stroke="#28a745" stroke-width="2" d="M420.43,-413.83C422.98,-403.39 425.9,-390.59 428,-379 439.01,-318.13 441.99,-302.72 446,-241 447.04,-225.03 447.58,-220.92 446,-205 445.66,-201.56 445.13,-197.95 444.52,-194.42"/>
<polygon fill="#28a745" stroke="#28a745" stroke-width="2" points="446.89,-193.76 443.17,-187.34 442.08,-194.68 446.89,-193.76"/>
<text text-anchor="middle" x="449" y="-329.1" font-family="Times-Roman" font-size="8.00">uses</text>
</g>
</g>
</svg>
