<?xml version="1.0" encoding="UTF-8" standalone="no"?>
<!DOCTYPE svg PUBLIC "-//W3C//DTD SVG 1.1//EN"
 "http://www.w3.org/Graphics/SVG/1.1/DTD/svg11.dtd">
<!-- Generated by graphviz version 2.44.0 (0)
 -->
<!-- Title: chain_Emit.contentEq.eq_def Pages: 1 -->
<svg width="1103pt" height="324pt"
 viewBox="0.00 0.00 1103.00 324.00" xmlns="http://www.w3.org/2000/svg" xmlns:xlink="http://www.w3.org/1999/xlink">
<g id="graph0" class="graph" transform="scale(1 1) rotate(0) translate(4 320)">
<title>chain_Emit.contentEq.eq_def</title>
<polygon fill="white" stroke="transparent" points="-4,4 -4,-320 1099,-320 1099,4 -4,4"/>
<text text-anchor="middle" x="547.5" y="-301.6" font-family="Helvetica Bold" font-size="13.00">Functorial Chains: Emit.contentEq.eq_def</text>
<text text-anchor="middle" x="547.5" y="-287.6" font-family="Helvetica Bold" font-size="13.00">(heuristic: used by 5 proofs)</text>
<g id="clust1" class="cluster">
<title>cluster_fns</title>
<polygon fill="none" stroke="#4a90d9" stroke-dasharray="5,2" points="188,-8 188,-163 1087,-163 1087,-8 188,-8"/>
<text text-anchor="middle" x="637.5" y="-148.6" font-family="Helvetica Bold" font-size="13.00" fill="#4a90d9">Functions (Call Chain)</text>
</g>
<g id="clust2" class="cluster">
<title>cluster_thms</title>
<polygon fill="none" stroke="#28a745" stroke-dasharray="5,2" points="8,-89 8,-272 180,-272 180,-89 8,-89"/>
<text text-anchor="middle" x="94" y="-257.6" font-family="Helvetica Bold" font-size="13.00" fill="#28a745">Theorems (Proof Chain)</text>
</g>
<!-- L4YAML.YamlValue.below_1 -->
<g id="node1" class="node">
<title>L4YAML.YamlValue.below_1</title>
<polygon fill="#dce9f7" stroke="#4a90d9" points="644.5,-52 543.5,-52 543.5,-16 644.5,-16 644.5,-52"/>
<text text-anchor="middle" x="594" y="-31.5" font-family="Helvetica" font-size="10.00">YamlValue.below_1</text>
</g>
<!-- L4YAML.YamlValue -->
<g id="node2" class="node">
<title>L4YAML.YamlValue</title>
<polygon fill="#dce9f7" stroke="#4a90d9" points="959,-52 897,-52 897,-16 959,-16 959,-52"/>
<text text-anchor="middle" x="928" y="-31.5" font-family="Helvetica" font-size="10.00">YamlValue</text>
</g>
<!-- L4YAML.YamlValue.below_5 -->
<g id="node3" class="node">
<title>L4YAML.YamlValue.below_5</title>
<polygon fill="#dce9f7" stroke="#4a90d9" points="763.5,-52 662.5,-52 662.5,-16 763.5,-16 763.5,-52"/>
<text text-anchor="middle" x="713" y="-31.5" font-family="Helvetica" font-size="10.00">YamlValue.below_5</text>
</g>
<!-- L4YAML.YamlValue.brecOn -->
<g id="node4" class="node">
<title>L4YAML.YamlValue.brecOn</title>
<polygon fill="#dce9f7" stroke="#4a90d9" points="878.5,-52 781.5,-52 781.5,-16 878.5,-16 878.5,-52"/>
<text text-anchor="middle" x="830" y="-31.5" font-family="Helvetica" font-size="10.00">YamlValue.brecOn</text>
</g>
<!-- L4YAML.YamlValue.below_3 -->
<g id="node5" class="node">
<title>L4YAML.YamlValue.below_3</title>
<polygon fill="#dce9f7" stroke="#4a90d9" points="297.5,-52 196.5,-52 196.5,-16 297.5,-16 297.5,-52"/>
<text text-anchor="middle" x="247" y="-31.5" font-family="Helvetica" font-size="10.00">YamlValue.below_3</text>
</g>
<!-- L4YAML.Emit.contentEq.contentEqList -->
<g id="node6" class="node">
<title>L4YAML.Emit.contentEq.contentEqList</title>
<polygon fill="#dce9f7" stroke="#4a90d9" points="846,-133 700,-133 700,-97 846,-97 846,-133"/>
<text text-anchor="middle" x="773" y="-112.5" font-family="Helvetica" font-size="10.00">Emit.contentEq.contentEqList</text>
</g>
<!-- L4YAML.Emit.contentEq.contentEqList&#45;&gt;L4YAML.YamlValue -->
<g id="edge22" class="edge">
<title>L4YAML.Emit.contentEq.contentEqList&#45;&gt;L4YAML.YamlValue</title>
<path fill="none" stroke="#4a90d9" stroke-width="2" d="M837.6,-96.92C866.69,-89.05 895.21,-81 898,-79 905.39,-73.69 911.54,-65.96 916.3,-58.45"/>
<polygon fill="#4a90d9" stroke="#4a90d9" stroke-width="2" points="918.51,-59.53 919.97,-52.26 914.29,-57.03 918.51,-59.53"/>
<text text-anchor="middle" x="916.5" y="-72.6" font-family="Times-Roman" font-size="8.00">calls</text>
</g>
<!-- L4YAML.Emit.contentEq -->
<g id="node7" class="node">
<title>L4YAML.Emit.contentEq</title>
<polygon fill="#dce9f7" stroke="#4a90d9" points="658.5,-133 575.5,-133 575.5,-97 658.5,-97 658.5,-133"/>
<text text-anchor="middle" x="617" y="-112.5" font-family="Helvetica" font-size="10.00">Emit.contentEq</text>
</g>
<!-- L4YAML.Emit.contentEq&#45;&gt;L4YAML.YamlValue.below_1 -->
<g id="edge10" class="edge">
<title>L4YAML.Emit.contentEq&#45;&gt;L4YAML.YamlValue.below_1</title>
<path fill="none" stroke="#4a90d9" stroke-width="2" d="M612.01,-96.86C608.78,-85.78 604.54,-71.21 600.98,-58.99"/>
<polygon fill="#4a90d9" stroke="#4a90d9" stroke-width="2" points="603.29,-58.14 598.98,-52.11 598.59,-59.51 603.29,-58.14"/>
<text text-anchor="middle" x="615.5" y="-72.6" font-family="Times-Roman" font-size="8.00">calls</text>
</g>
<!-- L4YAML.Emit.contentEq&#45;&gt;L4YAML.YamlValue -->
<g id="edge6" class="edge">
<title>L4YAML.Emit.contentEq&#45;&gt;L4YAML.YamlValue</title>
<path fill="none" stroke="#4a90d9" stroke-width="2" d="M658.52,-98.65C669.02,-95.13 680.34,-91.66 691,-89 717.66,-82.36 724.97,-83.9 752,-79 812.64,-68.01 829.11,-70.15 888,-52 888.72,-51.78 889.45,-51.55 890.18,-51.31"/>
<polygon fill="#4a90d9" stroke="#4a90d9" stroke-width="2" points="890.99,-53.62 896.78,-48.99 889.37,-49 890.99,-53.62"/>
<text text-anchor="middle" x="815.5" y="-72.6" font-family="Times-Roman" font-size="8.00">calls</text>
</g>
<!-- L4YAML.Emit.contentEq&#45;&gt;L4YAML.YamlValue.below_5 -->
<g id="edge14" class="edge">
<title>L4YAML.Emit.contentEq&#45;&gt;L4YAML.YamlValue.below_5</title>
<path fill="none" stroke="#4a90d9" stroke-width="2" d="M637.83,-96.86C652.17,-85.06 671.34,-69.28 686.73,-56.62"/>
<polygon fill="#4a90d9" stroke="#4a90d9" stroke-width="2" points="688.36,-58.45 692.21,-52.11 685.25,-54.66 688.36,-58.45"/>
<text text-anchor="middle" x="676.5" y="-72.6" font-family="Times-Roman" font-size="8.00">calls</text>
</g>
<!-- L4YAML.Emit.contentEq&#45;&gt;L4YAML.YamlValue.brecOn -->
<g id="edge8" class="edge">
<title>L4YAML.Emit.contentEq&#45;&gt;L4YAML.YamlValue.brecOn</title>
<path fill="none" stroke="#4a90d9" stroke-width="2" d="M658.57,-98.58C692.54,-85.98 740.75,-68.1 777.4,-54.51"/>
<polygon fill="#4a90d9" stroke="#4a90d9" stroke-width="2" points="778.39,-56.76 784.1,-52.02 776.68,-52.16 778.39,-56.76"/>
<text text-anchor="middle" x="738.5" y="-72.6" font-family="Times-Roman" font-size="8.00">calls</text>
</g>
<!-- L4YAML.Emit.contentEq&#45;&gt;L4YAML.YamlValue.below_3 -->
<g id="edge16" class="edge">
<title>L4YAML.Emit.contentEq&#45;&gt;L4YAML.YamlValue.below_3</title>
<path fill="none" stroke="#4a90d9" stroke-width="2" d="M575.46,-104.72C549.88,-98.51 516.63,-89.57 488,-79 479.23,-75.76 477.99,-72.55 469,-70 399.31,-50.22 378.09,-65.92 307,-52 306.23,-51.85 305.45,-51.69 304.68,-51.53"/>
<polygon fill="#4a90d9" stroke="#4a90d9" stroke-width="2" points="304.96,-49.09 297.6,-49.97 303.9,-53.87 304.96,-49.09"/>
<text text-anchor="middle" x="497.5" y="-72.6" font-family="Times-Roman" font-size="8.00">calls</text>
</g>
<!-- L4YAML.YamlValue.below -->
<g id="node9" class="node">
<title>L4YAML.YamlValue.below</title>
<polygon fill="#dce9f7" stroke="#4a90d9" points="406.5,-52 315.5,-52 315.5,-16 406.5,-16 406.5,-52"/>
<text text-anchor="middle" x="361" y="-31.5" font-family="Helvetica" font-size="10.00">YamlValue.below</text>
</g>
<!-- L4YAML.Emit.contentEq&#45;&gt;L4YAML.YamlValue.below -->
<g id="edge18" class="edge">
<title>L4YAML.Emit.contentEq&#45;&gt;L4YAML.YamlValue.below</title>
<path fill="none" stroke="#4a90d9" stroke-width="2" d="M575.19,-97.77C560.79,-92.02 544.62,-85.4 530,-79 521.44,-75.25 519.88,-72.89 511,-70 470.14,-56.69 457.71,-62.36 416,-52 415.13,-51.78 414.25,-51.56 413.36,-51.33"/>
<polygon fill="#4a90d9" stroke="#4a90d9" stroke-width="2" points="413.9,-48.94 406.51,-49.5 412.64,-53.67 413.9,-48.94"/>
<text text-anchor="middle" x="539.5" y="-72.6" font-family="Times-Roman" font-size="8.00">calls</text>
</g>
<!-- L4YAML.YamlValue.below_4 -->
<g id="node10" class="node">
<title>L4YAML.YamlValue.below_4</title>
<polygon fill="#dce9f7" stroke="#4a90d9" points="1078.5,-52 977.5,-52 977.5,-16 1078.5,-16 1078.5,-52"/>
<text text-anchor="middle" x="1028" y="-31.5" font-family="Helvetica" font-size="10.00">YamlValue.below_4</text>
</g>
<!-- L4YAML.Emit.contentEq&#45;&gt;L4YAML.YamlValue.below_4 -->
<g id="edge20" class="edge">
<title>L4YAML.Emit.contentEq&#45;&gt;L4YAML.YamlValue.below_4</title>
<path fill="none" stroke="#4a90d9" stroke-width="2" d="M658.76,-97.84C669.15,-94.39 680.37,-91.15 691,-89 751.28,-76.84 768.05,-87.14 829,-79 849.65,-76.24 854.55,-73.98 875,-70 916.33,-61.96 927.04,-61.75 968,-52 968.76,-51.82 969.53,-51.63 970.3,-51.45"/>
<polygon fill="#4a90d9" stroke="#4a90d9" stroke-width="2" points="971.15,-53.76 977.34,-49.68 969.95,-49.01 971.15,-53.76"/>
<text text-anchor="middle" x="884.5" y="-72.6" font-family="Times-Roman" font-size="8.00">calls</text>
</g>
<!-- L4YAML.YamlValue.below_2 -->
<g id="node11" class="node">
<title>L4YAML.YamlValue.below_2</title>
<polygon fill="#dce9f7" stroke="#4a90d9" points="525.5,-52 424.5,-52 424.5,-16 525.5,-16 525.5,-52"/>
<text text-anchor="middle" x="475" y="-31.5" font-family="Helvetica" font-size="10.00">YamlValue.below_2</text>
</g>
<!-- L4YAML.Emit.contentEq&#45;&gt;L4YAML.YamlValue.below_2 -->
<g id="edge12" class="edge">
<title>L4YAML.Emit.contentEq&#45;&gt;L4YAML.YamlValue.below_2</title>
<path fill="none" stroke="#4a90d9" stroke-width="2" d="M594.24,-96.87C582.3,-88.26 567.22,-77.99 553,-70 543.66,-64.75 533.38,-59.68 523.45,-55.1"/>
<polygon fill="#4a90d9" stroke="#4a90d9" stroke-width="2" points="524.36,-52.83 516.98,-52.17 522.34,-57.29 524.36,-52.83"/>
<text text-anchor="middle" x="576.5" y="-72.6" font-family="Times-Roman" font-size="8.00">calls</text>
</g>
<!-- L4YAML.Emit.contentEq.contentEqPairList -->
<g id="node8" class="node">
<title>L4YAML.Emit.contentEq.contentEqPairList</title>
<polygon fill="#dce9f7" stroke="#4a90d9" points="1040,-133 876,-133 876,-97 1040,-97 1040,-133"/>
<text text-anchor="middle" x="958" y="-112.5" font-family="Helvetica" font-size="10.00">Emit.contentEq.contentEqPairList</text>
</g>
<!-- L4YAML.Emit.contentEq.contentEqPairList&#45;&gt;L4YAML.YamlValue.below_4 -->
<g id="edge2" class="edge">
<title>L4YAML.Emit.contentEq.contentEqPairList&#45;&gt;L4YAML.YamlValue.below_4</title>
<path fill="none" stroke="#4a90d9" stroke-width="2" d="M973.19,-96.86C983.37,-85.37 996.89,-70.11 1007.95,-57.63"/>
<polygon fill="#4a90d9" stroke="#4a90d9" stroke-width="2" points="1010.03,-58.97 1012.84,-52.11 1006.36,-55.72 1010.03,-58.97"/>
<text text-anchor="middle" x="1004.5" y="-72.6" font-family="Times-Roman" font-size="8.00">calls</text>
</g>
<!-- L4YAML.YamlValue.brecOn.eq -->
<g id="node12" class="node">
<title>L4YAML.YamlValue.brecOn.eq</title>
<ellipse fill="#d4edda" stroke="#28a745" cx="107" cy="-115" rx="64.51" ry="18"/>
<text text-anchor="middle" x="107" y="-112.5" font-family="Helvetica" font-size="10.00">YamlValue.brecOn.eq</text>
</g>
<!-- L4YAML.YamlValue.brecOn.eq&#45;&gt;L4YAML.YamlValue.below_1 -->
<g id="edge11" class="edge">
<title>L4YAML.YamlValue.brecOn.eq&#45;&gt;L4YAML.YamlValue.below_1</title>
<path fill="none" stroke="#999999" stroke-dasharray="1,5" d="M145.95,-100.56C158.07,-96.59 171.53,-92.4 184,-89 203.77,-83.61 209.4,-84.97 229,-79 239.5,-75.8 241.28,-72.38 252,-70 375.04,-42.71 410.83,-73.57 535,-52 535.43,-51.93 535.85,-51.85 536.28,-51.77"/>
<polygon fill="#999999" stroke="#999999" points="536.93,-54.14 543.31,-50.36 535.97,-49.34 536.93,-54.14"/>
<text text-anchor="middle" x="264.5" y="-72.6" font-family="Times-Roman" font-size="8.00">about</text>
</g>
<!-- L4YAML.YamlValue.brecOn.eq&#45;&gt;L4YAML.YamlValue -->
<g id="edge7" class="edge">
<title>L4YAML.YamlValue.brecOn.eq&#45;&gt;L4YAML.YamlValue</title>
<path fill="none" stroke="#999999" stroke-dasharray="1,5" d="M143.31,-100.06C156,-95.76 170.46,-91.51 184,-89 266.71,-73.66 290.78,-96.78 373,-79 383.73,-76.68 385.25,-72.23 396,-70 610.24,-25.5 674.42,-99.58 888,-52 888.64,-51.86 889.29,-51.7 889.94,-51.54"/>
<polygon fill="#999999" stroke="#999999" points="890.9,-53.81 896.92,-49.48 889.51,-49.11 890.9,-53.81"/>
<text text-anchor="middle" x="408.5" y="-72.6" font-family="Times-Roman" font-size="8.00">about</text>
</g>
<!-- L4YAML.YamlValue.brecOn.eq&#45;&gt;L4YAML.YamlValue.below_5 -->
<g id="edge15" class="edge">
<title>L4YAML.YamlValue.brecOn.eq&#45;&gt;L4YAML.YamlValue.below_5</title>
<path fill="none" stroke="#999999" stroke-dasharray="1,5" d="M144.17,-100.21C156.68,-96.04 170.81,-91.82 184,-89 224.65,-80.31 236.62,-88.88 277,-79 287.66,-76.39 289.27,-72.31 300,-70 454.01,-36.87 498.62,-77.98 654,-52 654.43,-51.93 654.86,-51.86 655.29,-51.78"/>
<polygon fill="#999999" stroke="#999999" points="655.92,-54.15 662.32,-50.4 654.98,-49.34 655.92,-54.15"/>
<text text-anchor="middle" x="312.5" y="-72.6" font-family="Times-Roman" font-size="8.00">about</text>
</g>
<!-- L4YAML.YamlValue.brecOn.eq&#45;&gt;L4YAML.YamlValue.brecOn -->
<g id="edge9" class="edge">
<title>L4YAML.YamlValue.brecOn.eq&#45;&gt;L4YAML.YamlValue.brecOn</title>
<path fill="none" stroke="#999999" stroke-dasharray="1,5" d="M143.73,-100.06C156.32,-95.83 170.62,-91.61 184,-89 245.67,-76.99 263.72,-92.83 325,-79 335.71,-76.58 337.26,-72.26 348,-70 533,-31.02 586.54,-83.26 773,-52 773.43,-51.93 773.86,-51.85 774.29,-51.78"/>
<polygon fill="#999999" stroke="#999999" points="774.98,-54.14 781.37,-50.37 774.03,-49.33 774.98,-54.14"/>
<text text-anchor="middle" x="360.5" y="-72.6" font-family="Times-Roman" font-size="8.00">about</text>
</g>
<!-- L4YAML.YamlValue.brecOn.eq&#45;&gt;L4YAML.YamlValue.below_3 -->
<g id="edge17" class="edge">
<title>L4YAML.YamlValue.brecOn.eq&#45;&gt;L4YAML.YamlValue.below_3</title>
<path fill="none" stroke="#999999" stroke-dasharray="1,5" d="M102.81,-96.88C101.67,-87.96 102.09,-77.41 108,-70 118.36,-57.02 155.72,-48.05 189.1,-42.45"/>
<polygon fill="#999999" stroke="#999999" points="189.63,-44.85 196.15,-41.31 188.85,-40.01 189.63,-44.85"/>
<text text-anchor="middle" x="120.5" y="-72.6" font-family="Times-Roman" font-size="8.00">about</text>
</g>
<!-- L4YAML.YamlValue.brecOn.eq&#45;&gt;L4YAML.YamlValue.below -->
<g id="edge19" class="edge">
<title>L4YAML.YamlValue.brecOn.eq&#45;&gt;L4YAML.YamlValue.below</title>
<path fill="none" stroke="#999999" stroke-dasharray="1,5" d="M121.09,-96.97C130.04,-87.38 142.46,-76.13 156,-70 217.57,-42.12 240.92,-66.21 307,-52 307.52,-51.89 308.05,-51.77 308.57,-51.65"/>
<polygon fill="#999999" stroke="#999999" points="309.27,-54.01 315.49,-49.98 308.12,-49.24 309.27,-54.01"/>
<text text-anchor="middle" x="168.5" y="-72.6" font-family="Times-Roman" font-size="8.00">about</text>
</g>
<!-- L4YAML.YamlValue.brecOn.eq&#45;&gt;L4YAML.YamlValue.below_4 -->
<g id="edge4" class="edge">
<title>L4YAML.YamlValue.brecOn.eq&#45;&gt;L4YAML.YamlValue.below_4</title>
<path fill="none" stroke="#999999" stroke-dasharray="1,5" d="M143.3,-99.97C155.98,-95.67 170.44,-91.44 184,-89 287.76,-70.33 318.65,-104.29 421,-79 430.07,-76.76 430.92,-72.2 440,-70 554.09,-42.3 852.01,-70.13 968,-52 968.78,-51.88 969.56,-51.75 970.34,-51.62"/>
<polygon fill="#999999" stroke="#999999" points="971.04,-53.98 977.45,-50.25 970.12,-49.16 971.04,-53.98"/>
<text text-anchor="middle" x="452.5" y="-72.6" font-family="Times-Roman" font-size="8.00">about</text>
</g>
<!-- L4YAML.YamlValue.brecOn.eq&#45;&gt;L4YAML.YamlValue.below_2 -->
<g id="edge13" class="edge">
<title>L4YAML.YamlValue.brecOn.eq&#45;&gt;L4YAML.YamlValue.below_2</title>
<path fill="none" stroke="#999999" stroke-dasharray="1,5" d="M138.4,-99.11C164.06,-87.05 197.18,-71.78 204,-70 295.5,-46.12 323.01,-69.17 416,-52 416.43,-51.92 416.85,-51.84 417.28,-51.76"/>
<polygon fill="#999999" stroke="#999999" points="417.95,-54.12 424.3,-50.29 416.95,-49.33 417.95,-54.12"/>
<text text-anchor="middle" x="216.5" y="-72.6" font-family="Times-Roman" font-size="8.00">about</text>
</g>
<!-- L4YAML.Emit.contentEq.eq_def -->
<g id="node13" class="node">
<title>L4YAML.Emit.contentEq.eq_def</title>
<polygon fill="#fff3cd" stroke="#d4a017" points="167.83,-212.54 167.83,-227.46 124.58,-238 63.42,-238 20.17,-227.46 20.17,-212.54 63.42,-202 124.58,-202 167.83,-212.54"/>
<polygon fill="none" stroke="#d4a017" points="171.82,-209.4 171.82,-230.6 125.06,-242 62.94,-242 16.18,-230.6 16.18,-209.4 62.94,-198 125.06,-198 171.82,-209.4"/>
<text text-anchor="middle" x="94" y="-217.5" font-family="Helvetica" font-size="10.00">Emit.contentEq.eq_def</text>
</g>
<!-- L4YAML.Emit.contentEq.eq_def&#45;&gt;L4YAML.Emit.contentEq.contentEqList -->
<g id="edge21" class="edge">
<title>L4YAML.Emit.contentEq.eq_def&#45;&gt;L4YAML.Emit.contentEq.contentEqList</title>
<path fill="none" stroke="#999999" stroke-dasharray="1,5" d="M172,-219.3C283.74,-217.97 495,-208.85 668,-163 691.24,-156.84 715.85,-146.08 735.39,-136.41"/>
<polygon fill="#999999" stroke="#999999" points="736.66,-138.51 741.81,-133.18 734.46,-134.13 736.66,-138.51"/>
<text text-anchor="middle" x="634.5" y="-173.6" font-family="Times-Roman" font-size="8.00">about</text>
</g>
<!-- L4YAML.Emit.contentEq.eq_def&#45;&gt;L4YAML.Emit.contentEq -->
<g id="edge5" class="edge">
<title>L4YAML.Emit.contentEq.eq_def&#45;&gt;L4YAML.Emit.contentEq</title>
<path fill="none" stroke="#999999" stroke-dasharray="1,5" d="M158.92,-206.22C265.14,-185.3 473.7,-144.22 568.29,-125.59"/>
<polygon fill="#999999" stroke="#999999" points="568.78,-127.99 575.18,-124.24 567.84,-123.19 568.78,-127.99"/>
<text text-anchor="middle" x="336.5" y="-173.6" font-family="Times-Roman" font-size="8.00">about</text>
</g>
<!-- L4YAML.Emit.contentEq.eq_def&#45;&gt;L4YAML.Emit.contentEq.contentEqPairList -->
<g id="edge1" class="edge">
<title>L4YAML.Emit.contentEq.eq_def&#45;&gt;L4YAML.Emit.contentEq.contentEqPairList</title>
<path fill="none" stroke="#999999" stroke-dasharray="1,5" d="M172.04,-216.84C339.34,-211.64 727.63,-196.29 855,-163 878.07,-156.97 902.4,-146.11 921.61,-136.34"/>
<polygon fill="#999999" stroke="#999999" points="922.83,-138.47 927.93,-133.08 920.58,-134.11 922.83,-138.47"/>
<text text-anchor="middle" x="819.5" y="-173.6" font-family="Times-Roman" font-size="8.00">about</text>
</g>
<!-- L4YAML.Emit.contentEq.eq_def&#45;&gt;L4YAML.YamlValue.brecOn.eq -->
<g id="edge3" class="edge">
<title>L4YAML.Emit.contentEq.eq_def&#45;&gt;L4YAML.YamlValue.brecOn.eq</title>
<path fill="none" stroke="#28a745" stroke-width="2" d="M96.69,-197.66C98.8,-180.95 101.74,-157.71 103.93,-140.29"/>
<polygon fill="#28a745" stroke="#28a745" stroke-width="2" points="106.38,-140.47 104.83,-133.22 101.52,-139.86 106.38,-140.47"/>
<text text-anchor="middle" x="110" y="-173.6" font-family="Times-Roman" font-size="8.00">uses</text>
</g>
</g>
</svg>
