<?xml version="1.0" encoding="UTF-8" standalone="no"?>
<!DOCTYPE svg PUBLIC "-//W3C//DTD SVG 1.1//EN"
 "http://www.w3.org/Graphics/SVG/1.1/DTD/svg11.dtd">
<!-- Generated by graphviz version 2.44.0 (0)
 -->
<!-- Title: chain_ScannerCorrectness.ScanHelpers.collectTagHandleLoop_preserves_tokens Pages: 1 -->
<svg width="1393pt" height="324pt"
 viewBox="0.00 0.00 1393.00 324.00" xmlns="http://www.w3.org/2000/svg" xmlns:xlink="http://www.w3.org/1999/xlink">
<g id="graph0" class="graph" transform="scale(1 1) rotate(0) translate(4 320)">
<title>chain_ScannerCorrectness.ScanHelpers.collectTagHandleLoop_preserves_tokens</title>
<polygon fill="white" stroke="transparent" points="-4,4 -4,-320 1389,-320 1389,4 -4,4"/>
<text text-anchor="middle" x="692.5" y="-301.6" font-family="Helvetica Bold" font-size="13.00">Functorial Chains: ScannerCorrectness.ScanHelpers.collectTagHandleLoop_preserves_tokens</text>
<text text-anchor="middle" x="692.5" y="-287.6" font-family="Helvetica Bold" font-size="13.00">(heuristic: used by 6 proofs)</text>
<g id="clust1" class="cluster">
<title>cluster_fns</title>
<polygon fill="none" stroke="#4a90d9" stroke-dasharray="5,2" points="488,-8 488,-163 1377,-163 1377,-8 488,-8"/>
<text text-anchor="middle" x="932.5" y="-148.6" font-family="Helvetica Bold" font-size="13.00" fill="#4a90d9">Functions (Call Chain)</text>
</g>
<g id="clust2" class="cluster">
<title>cluster_thms</title>
<polygon fill="none" stroke="#28a745" stroke-dasharray="5,2" points="8,-89 8,-272 480,-272 480,-89 8,-89"/>
<text text-anchor="middle" x="244" y="-257.6" font-family="Helvetica Bold" font-size="13.00" fill="#28a745">Theorems (Proof Chain)</text>
</g>
<!-- L4YAML.Scanner.ScannerState.advance -->
<g id="node1" class="node">
<title>L4YAML.Scanner.ScannerState.advance</title>
<polygon fill="#dce9f7" stroke="#4a90d9" points="611.5,-52 496.5,-52 496.5,-16 611.5,-16 611.5,-52"/>
<text text-anchor="middle" x="554" y="-31.5" font-family="Helvetica" font-size="10.00">ScannerState.advance</text>
</g>
<!-- L4YAML.Scanner.ScannerState.peek? -->
<g id="node2" class="node">
<title>L4YAML.Scanner.ScannerState.peek?</title>
<polygon fill="#dce9f7" stroke="#4a90d9" points="905,-52 801,-52 801,-16 905,-16 905,-52"/>
<text text-anchor="middle" x="853" y="-31.5" font-family="Helvetica" font-size="10.00">ScannerState.peek?</text>
</g>
<!-- L4YAML.Scanner.collectTagHandleLoop -->
<g id="node3" class="node">
<title>L4YAML.Scanner.collectTagHandleLoop</title>
<polygon fill="#dce9f7" stroke="#4a90d9" points="863.5,-133 750.5,-133 750.5,-97 863.5,-97 863.5,-133"/>
<text text-anchor="middle" x="807" y="-112.5" font-family="Helvetica" font-size="10.00">collectTagHandleLoop</text>
</g>
<!-- L4YAML.Scanner.collectTagHandleLoop&#45;&gt;L4YAML.Scanner.ScannerState.advance -->
<g id="edge2" class="edge">
<title>L4YAML.Scanner.collectTagHandleLoop&#45;&gt;L4YAML.Scanner.ScannerState.advance</title>
<path fill="none" stroke="#4a90d9" stroke-width="2" d="M770.3,-96.93C750.15,-88.03 724.55,-77.48 701,-70 666.26,-58.97 656.44,-60.48 621,-52 620.24,-51.82 619.48,-51.64 618.71,-51.45"/>
<polygon fill="#4a90d9" stroke="#4a90d9" stroke-width="2" points="619.1,-49.02 611.72,-49.75 617.94,-53.78 619.1,-49.02"/>
<text text-anchor="middle" x="733.5" y="-72.6" font-family="Times-Roman" font-size="8.00">calls</text>
</g>
<!-- L4YAML.Scanner.collectTagHandleLoop&#45;&gt;L4YAML.Scanner.ScannerState.peek? -->
<g id="edge10" class="edge">
<title>L4YAML.Scanner.collectTagHandleLoop&#45;&gt;L4YAML.Scanner.ScannerState.peek?</title>
<path fill="none" stroke="#4a90d9" stroke-width="2" d="M804.06,-96.87C803.4,-88.37 803.88,-78.19 808,-70 810.39,-65.26 813.75,-60.97 817.57,-57.15"/>
<polygon fill="#4a90d9" stroke="#4a90d9" stroke-width="2" points="819.46,-58.74 823.02,-52.23 816.18,-55.1 819.46,-58.74"/>
<text text-anchor="middle" x="817.5" y="-72.6" font-family="Times-Roman" font-size="8.00">calls</text>
</g>
<!-- L4YAML.Scanner.ScannerState -->
<g id="node4" class="node">
<title>L4YAML.Scanner.ScannerState</title>
<polygon fill="#dce9f7" stroke="#4a90d9" points="999,-52 923,-52 923,-16 999,-16 999,-52"/>
<text text-anchor="middle" x="961" y="-31.5" font-family="Helvetica" font-size="10.00">ScannerState</text>
</g>
<!-- L4YAML.Scanner.collectTagHandleLoop&#45;&gt;L4YAML.Scanner.ScannerState -->
<g id="edge14" class="edge">
<title>L4YAML.Scanner.collectTagHandleLoop&#45;&gt;L4YAML.Scanner.ScannerState</title>
<path fill="none" stroke="#4a90d9" stroke-width="2" d="M820.05,-96.8C827.83,-87.63 838.43,-76.87 850,-70 875.41,-54.92 885.87,-61.03 914,-52 914.72,-51.77 915.45,-51.53 916.18,-51.29"/>
<polygon fill="#4a90d9" stroke="#4a90d9" stroke-width="2" points="917,-53.6 922.86,-49.06 915.44,-48.96 917,-53.6"/>
<text text-anchor="middle" x="859.5" y="-72.6" font-family="Times-Roman" font-size="8.00">calls</text>
</g>
<!-- L4YAML.Scanner.ScannerState.peekAt?Loop.match_1 -->
<g id="node5" class="node">
<title>L4YAML.Scanner.ScannerState.peekAt?Loop.match_1</title>
<polygon fill="#dce9f7" stroke="#4a90d9" points="1193,-52 1017,-52 1017,-16 1193,-16 1193,-52"/>
<text text-anchor="middle" x="1105" y="-31.5" font-family="Helvetica" font-size="10.00">ScannerState.peekAt?Loop.match_1</text>
</g>
<!-- L4YAML.Scanner.collectTagHandleLoop&#45;&gt;L4YAML.Scanner.ScannerState.peekAt?Loop.match_1 -->
<g id="edge17" class="edge">
<title>L4YAML.Scanner.collectTagHandleLoop&#45;&gt;L4YAML.Scanner.ScannerState.peekAt?Loop.match_1</title>
<path fill="none" stroke="#4a90d9" stroke-width="2" d="M834.34,-96.95C850.53,-87.61 871.78,-76.61 892,-70 941.59,-53.8 956.53,-60.5 1008,-52 1008.65,-51.89 1009.29,-51.79 1009.94,-51.68"/>
<polygon fill="#4a90d9" stroke="#4a90d9" stroke-width="2" points="1010.48,-54.07 1016.98,-50.5 1009.68,-49.24 1010.48,-54.07"/>
<text text-anchor="middle" x="901.5" y="-72.6" font-family="Times-Roman" font-size="8.00">calls</text>
</g>
<!-- L4YAML.CharPredicates.isWordCharBool -->
<g id="node6" class="node">
<title>L4YAML.CharPredicates.isWordCharBool</title>
<polygon fill="#dce9f7" stroke="#4a90d9" points="1369,-52 1211,-52 1211,-16 1369,-16 1369,-52"/>
<text text-anchor="middle" x="1290" y="-31.5" font-family="Helvetica" font-size="10.00">CharPredicates.isWordCharBool</text>
</g>
<!-- L4YAML.Scanner.collectTagHandleLoop&#45;&gt;L4YAML.CharPredicates.isWordCharBool -->
<g id="edge12" class="edge">
<title>L4YAML.Scanner.collectTagHandleLoop&#45;&gt;L4YAML.CharPredicates.isWordCharBool</title>
<path fill="none" stroke="#4a90d9" stroke-width="2" d="M859.28,-96.96C875.88,-91.4 894.26,-85.09 911,-79 921.32,-75.25 923.29,-72.4 934,-70 1050.5,-43.94 1083.61,-67.35 1202,-52 1202.64,-51.92 1203.29,-51.83 1203.93,-51.75"/>
<polygon fill="#4a90d9" stroke="#4a90d9" stroke-width="2" points="1204.33,-54.16 1210.92,-50.76 1203.65,-49.31 1204.33,-54.16"/>
<text text-anchor="middle" x="943.5" y="-72.6" font-family="Times-Roman" font-size="8.00">calls</text>
</g>
<!-- L4YAML.Scanner.collectTagHandleLoop.match_1 -->
<g id="node8" class="node">
<title>L4YAML.Scanner.collectTagHandleLoop.match_1</title>
<polygon fill="#dce9f7" stroke="#4a90d9" points="782.5,-52 629.5,-52 629.5,-16 782.5,-16 782.5,-52"/>
<text text-anchor="middle" x="706" y="-31.5" font-family="Helvetica" font-size="10.00">collectTagHandleLoop.match_1</text>
</g>
<!-- L4YAML.Scanner.collectTagHandleLoop&#45;&gt;L4YAML.Scanner.collectTagHandleLoop.match_1 -->
<g id="edge15" class="edge">
<title>L4YAML.Scanner.collectTagHandleLoop&#45;&gt;L4YAML.Scanner.collectTagHandleLoop.match_1</title>
<path fill="none" stroke="#4a90d9" stroke-width="2" d="M785.08,-96.86C770,-85.06 749.83,-69.28 733.64,-56.62"/>
<polygon fill="#4a90d9" stroke="#4a90d9" stroke-width="2" points="734.9,-54.49 727.87,-52.11 731.88,-58.35 734.9,-54.49"/>
<text text-anchor="middle" x="768.5" y="-72.6" font-family="Times-Roman" font-size="8.00">calls</text>
</g>
<!-- L4YAML.Scanner.ScannerState.tokens -->
<g id="node7" class="node">
<title>L4YAML.Scanner.ScannerState.tokens</title>
<polygon fill="#dce9f7" stroke="#4a90d9" points="1008.5,-133 901.5,-133 901.5,-97 1008.5,-97 1008.5,-133"/>
<text text-anchor="middle" x="955" y="-112.5" font-family="Helvetica" font-size="10.00">ScannerState.tokens</text>
</g>
<!-- L4YAML.Scanner.ScannerState.tokens&#45;&gt;L4YAML.Scanner.ScannerState -->
<g id="edge6" class="edge">
<title>L4YAML.Scanner.ScannerState.tokens&#45;&gt;L4YAML.Scanner.ScannerState</title>
<path fill="none" stroke="#4a90d9" stroke-width="2" d="M956.3,-96.86C957.14,-85.88 958.23,-71.48 959.15,-59.33"/>
<polygon fill="#4a90d9" stroke="#4a90d9" stroke-width="2" points="961.61,-59.27 959.7,-52.11 956.73,-58.9 961.61,-59.27"/>
<text text-anchor="middle" x="967.5" y="-72.6" font-family="Times-Roman" font-size="8.00">calls</text>
</g>
<!-- L4YAML.Proofs.ScannerCorrectness.ScanHelpers.collectTagHandleLoop_preserves_tokens -->
<g id="node9" class="node">
<title>L4YAML.Proofs.ScannerCorrectness.ScanHelpers.collectTagHandleLoop_preserves_tokens</title>
<polygon fill="#fff3cd" stroke="#d4a017" points="468.19,-212.54 468.19,-227.46 338.62,-238 155.38,-238 25.81,-227.46 25.81,-212.54 155.38,-202 338.62,-202 468.19,-212.54"/>
<polygon fill="none" stroke="#d4a017" points="472.19,-208.86 472.19,-231.14 338.78,-242 155.22,-242 21.81,-231.14 21.81,-208.86 155.22,-198 338.78,-198 472.19,-208.86"/>
<text text-anchor="middle" x="247" y="-217.5" font-family="Helvetica" font-size="10.00">ScannerCorrectness.ScanHelpers.collectTagHandleLoop_preserves_tokens</text>
</g>
<!-- L4YAML.Proofs.ScannerCorrectness.ScanHelpers.collectTagHandleLoop_preserves_tokens&#45;&gt;L4YAML.Scanner.collectTagHandleLoop -->
<g id="edge1" class="edge">
<title>L4YAML.Proofs.ScannerCorrectness.ScanHelpers.collectTagHandleLoop_preserves_tokens&#45;&gt;L4YAML.Scanner.collectTagHandleLoop</title>
<path fill="none" stroke="#999999" stroke-dasharray="1,5" d="M354.31,-199.26C469.57,-178.06 648.88,-145.08 743.53,-127.67"/>
<polygon fill="#999999" stroke="#999999" points="744.03,-130.07 750.47,-126.4 743.14,-125.25 744.03,-130.07"/>
<text text-anchor="middle" x="505.5" y="-173.6" font-family="Times-Roman" font-size="8.00">about</text>
</g>
<!-- L4YAML.Proofs.ScannerCorrectness.ScanHelpers.collectTagHandleLoop_preserves_tokens&#45;&gt;L4YAML.Scanner.ScannerState.tokens -->
<g id="edge5" class="edge">
<title>L4YAML.Proofs.ScannerCorrectness.ScanHelpers.collectTagHandleLoop_preserves_tokens&#45;&gt;L4YAML.Scanner.ScannerState.tokens</title>
<path fill="none" stroke="#999999" stroke-dasharray="1,5" d="M472.43,-208.98C620.72,-200.45 800.34,-185.86 873,-163 891.49,-157.18 910.37,-146.73 925.35,-137.15"/>
<polygon fill="#999999" stroke="#999999" points="927,-139 931.52,-133.12 924.32,-134.9 927,-139"/>
<text text-anchor="middle" x="846.5" y="-173.6" font-family="Times-Roman" font-size="8.00">about</text>
</g>
<!-- L4YAML.Proofs.ScannerCorrectness.advance_preserves_tokens -->
<g id="node10" class="node">
<title>L4YAML.Proofs.ScannerCorrectness.advance_preserves_tokens</title>
<ellipse fill="#d4edda" stroke="#28a745" cx="150" cy="-115" rx="133.75" ry="18"/>
<text text-anchor="middle" x="150" y="-112.5" font-family="Helvetica" font-size="10.00">ScannerCorrectness.advance_preserves_tokens</text>
</g>
<!-- L4YAML.Proofs.ScannerCorrectness.ScanHelpers.collectTagHandleLoop_preserves_tokens&#45;&gt;L4YAML.Proofs.ScannerCorrectness.advance_preserves_tokens -->
<g id="edge3" class="edge">
<title>L4YAML.Proofs.ScannerCorrectness.ScanHelpers.collectTagHandleLoop_preserves_tokens&#45;&gt;L4YAML.Proofs.ScannerCorrectness.advance_preserves_tokens</title>
<path fill="none" stroke="#28a745" stroke-width="2" d="M226.9,-197.66C210.51,-180.25 187.43,-155.74 170.84,-138.13"/>
<polygon fill="#28a745" stroke="#28a745" stroke-width="2" points="172.49,-136.31 165.91,-132.89 168.93,-139.67 172.49,-136.31"/>
<text text-anchor="middle" x="220" y="-173.6" font-family="Times-Roman" font-size="8.00">uses</text>
</g>
<!-- L4YAML.Scanner.collectTagHandleLoop.eq_def -->
<g id="node11" class="node">
<title>L4YAML.Scanner.collectTagHandleLoop.eq_def</title>
<ellipse fill="#d4edda" stroke="#28a745" cx="387" cy="-115" rx="85.21" ry="18"/>
<text text-anchor="middle" x="387" y="-112.5" font-family="Helvetica" font-size="10.00">collectTagHandleLoop.eq_def</text>
</g>
<!-- L4YAML.Proofs.ScannerCorrectness.ScanHelpers.collectTagHandleLoop_preserves_tokens&#45;&gt;L4YAML.Scanner.collectTagHandleLoop.eq_def -->
<g id="edge7" class="edge">
<title>L4YAML.Proofs.ScannerCorrectness.ScanHelpers.collectTagHandleLoop_preserves_tokens&#45;&gt;L4YAML.Scanner.collectTagHandleLoop.eq_def</title>
<path fill="none" stroke="#28a745" stroke-width="2" d="M275.67,-197.91C299.86,-180.11 334.31,-154.77 358.46,-137"/>
<polygon fill="#28a745" stroke="#28a745" stroke-width="2" points="360.18,-138.77 364.37,-132.65 357.28,-134.83 360.18,-138.77"/>
<text text-anchor="middle" x="318" y="-173.6" font-family="Times-Roman" font-size="8.00">uses</text>
</g>
<!-- L4YAML.Proofs.ScannerCorrectness.advance_preserves_tokens&#45;&gt;L4YAML.Scanner.ScannerState.advance -->
<g id="edge4" class="edge">
<title>L4YAML.Proofs.ScannerCorrectness.advance_preserves_tokens&#45;&gt;L4YAML.Scanner.ScannerState.advance</title>
<path fill="none" stroke="#999999" stroke-dasharray="1,5" d="M215.1,-99.28C255.09,-90.4 307.42,-79.1 354,-70 398.95,-61.22 449.78,-52.34 488.95,-45.72"/>
<polygon fill="#999999" stroke="#999999" points="489.63,-48.09 496.13,-44.51 488.82,-43.26 489.63,-48.09"/>
<text text-anchor="middle" x="366.5" y="-72.6" font-family="Times-Roman" font-size="8.00">about</text>
</g>
<!-- L4YAML.Proofs.ScannerCorrectness.advance_preserves_tokens&#45;&gt;L4YAML.Scanner.ScannerState -->
<g id="edge9" class="edge">
<title>L4YAML.Proofs.ScannerCorrectness.advance_preserves_tokens&#45;&gt;L4YAML.Scanner.ScannerState</title>
<path fill="none" stroke="#999999" stroke-dasharray="1,5" d="M221.78,-99.81C244.48,-95.76 269.72,-91.72 293,-89 367.29,-80.32 388.54,-97.57 461,-79 470.05,-76.68 470.93,-72.24 480,-70 667.43,-23.75 724.58,-89.27 914,-52 914.63,-51.88 915.27,-51.74 915.91,-51.61"/>
<polygon fill="#999999" stroke="#999999" points="916.59,-53.96 922.8,-49.9 915.41,-49.2 916.59,-53.96"/>
<text text-anchor="middle" x="492.5" y="-72.6" font-family="Times-Roman" font-size="8.00">about</text>
</g>
<!-- L4YAML.Scanner.collectTagHandleLoop.eq_def&#45;&gt;L4YAML.Scanner.ScannerState.advance -->
<g id="edge19" class="edge">
<title>L4YAML.Scanner.collectTagHandleLoop.eq_def&#45;&gt;L4YAML.Scanner.ScannerState.advance</title>
<path fill="none" stroke="#999999" stroke-dasharray="1,5" d="M382.7,-96.78C381.52,-87.84 381.95,-77.29 388,-70 401.03,-54.31 448.54,-45.35 489.41,-40.43"/>
<polygon fill="#999999" stroke="#999999" points="489.76,-42.86 496.43,-39.62 489.2,-37.99 489.76,-42.86"/>
<text text-anchor="middle" x="400.5" y="-72.6" font-family="Times-Roman" font-size="8.00">about</text>
</g>
<!-- L4YAML.Scanner.collectTagHandleLoop.eq_def&#45;&gt;L4YAML.Scanner.ScannerState.peek? -->
<g id="edge11" class="edge">
<title>L4YAML.Scanner.collectTagHandleLoop.eq_def&#45;&gt;L4YAML.Scanner.ScannerState.peek?</title>
<path fill="none" stroke="#999999" stroke-dasharray="1,5" d="M438.08,-100.49C460.05,-94.39 485.94,-86.8 509,-79 519.4,-75.48 521.29,-72.41 532,-70 645.01,-44.6 677.85,-71.65 792,-52 792.64,-51.89 793.28,-51.78 793.93,-51.66"/>
<polygon fill="#999999" stroke="#999999" points="794.53,-54.04 800.91,-50.26 793.57,-49.23 794.53,-54.04"/>
<text text-anchor="middle" x="544.5" y="-72.6" font-family="Times-Roman" font-size="8.00">about</text>
</g>
<!-- L4YAML.Scanner.collectTagHandleLoop.eq_def&#45;&gt;L4YAML.Scanner.ScannerState -->
<g id="edge8" class="edge">
<title>L4YAML.Scanner.collectTagHandleLoop.eq_def&#45;&gt;L4YAML.Scanner.ScannerState</title>
<path fill="none" stroke="#999999" stroke-dasharray="1,5" d="M436.09,-100.17C451.36,-96.18 468.3,-92.09 484,-89 516.13,-82.68 525.31,-87.25 557,-79 567.62,-76.24 569.27,-72.32 580,-70 725.29,-38.51 768.32,-81.6 914,-52 914.63,-51.87 915.27,-51.74 915.91,-51.59"/>
<polygon fill="#999999" stroke="#999999" points="916.6,-53.95 922.79,-49.85 915.4,-49.19 916.6,-53.95"/>
<text text-anchor="middle" x="592.5" y="-72.6" font-family="Times-Roman" font-size="8.00">about</text>
</g>
<!-- L4YAML.Scanner.collectTagHandleLoop.eq_def&#45;&gt;L4YAML.Scanner.ScannerState.peekAt?Loop.match_1 -->
<g id="edge18" class="edge">
<title>L4YAML.Scanner.collectTagHandleLoop.eq_def&#45;&gt;L4YAML.Scanner.ScannerState.peekAt?Loop.match_1</title>
<path fill="none" stroke="#999999" stroke-dasharray="1,5" d="M434.51,-100.04C450.15,-95.9 467.71,-91.75 484,-89 537.21,-80.01 552.43,-91.18 605,-79 615.69,-76.52 617.26,-72.29 628,-70 793.36,-34.73 839.95,-70.63 1008,-52 1008.54,-51.94 1009.08,-51.88 1009.63,-51.82"/>
<polygon fill="#999999" stroke="#999999" points="1010.13,-54.22 1016.78,-50.95 1009.54,-49.36 1010.13,-54.22"/>
<text text-anchor="middle" x="640.5" y="-72.6" font-family="Times-Roman" font-size="8.00">about</text>
</g>
<!-- L4YAML.Scanner.collectTagHandleLoop.eq_def&#45;&gt;L4YAML.CharPredicates.isWordCharBool -->
<g id="edge13" class="edge">
<title>L4YAML.Scanner.collectTagHandleLoop.eq_def&#45;&gt;L4YAML.CharPredicates.isWordCharBool</title>
<path fill="none" stroke="#999999" stroke-dasharray="1,5" d="M433.98,-99.94C449.74,-95.75 467.51,-91.59 484,-89 558.33,-77.33 580.11,-97.67 653,-79 662.05,-76.68 662.92,-72.2 672,-70 786.52,-42.2 1084.9,-65.22 1202,-52 1202.64,-51.93 1203.29,-51.85 1203.93,-51.78"/>
<polygon fill="#999999" stroke="#999999" points="1204.3,-54.2 1210.94,-50.88 1203.68,-49.34 1204.3,-54.2"/>
<text text-anchor="middle" x="684.5" y="-72.6" font-family="Times-Roman" font-size="8.00">about</text>
</g>
<!-- L4YAML.Scanner.collectTagHandleLoop.eq_def&#45;&gt;L4YAML.Scanner.collectTagHandleLoop.match_1 -->
<g id="edge16" class="edge">
<title>L4YAML.Scanner.collectTagHandleLoop.eq_def&#45;&gt;L4YAML.Scanner.collectTagHandleLoop.match_1</title>
<path fill="none" stroke="#999999" stroke-dasharray="1,5" d="M401.04,-96.86C409.97,-87.24 422.39,-75.98 436,-70 511.62,-36.74 539.28,-64.12 621,-52 621.33,-51.95 621.67,-51.9 622.01,-51.85"/>
<polygon fill="#999999" stroke="#999999" points="622.61,-54.23 629.15,-50.73 621.85,-49.39 622.61,-54.23"/>
<text text-anchor="middle" x="448.5" y="-72.6" font-family="Times-Roman" font-size="8.00">about</text>
</g>
</g>
</svg>
