<?xml version="1.0" encoding="UTF-8" standalone="no"?>
<!DOCTYPE svg PUBLIC "-//W3C//DTD SVG 1.1//EN"
 "http://www.w3.org/Graphics/SVG/1.1/DTD/svg11.dtd">
<!-- Generated by graphviz version 2.44.0 (0)
 -->
<!-- Title: chain_skipWhitespaceLoop.eq_def Pages: 1 -->
<svg width="577pt" height="513pt"
 viewBox="0.00 0.00 577.00 513.00" xmlns="http://www.w3.org/2000/svg" xmlns:xlink="http://www.w3.org/1999/xlink">
<g id="graph0" class="graph" transform="scale(1 1) rotate(0) translate(4 509)">
<title>chain_skipWhitespaceLoop.eq_def</title>
<polygon fill="white" stroke="transparent" points="-4,4 -4,-509 573,-509 573,4 -4,4"/>
<text text-anchor="middle" x="284.5" y="-490.6" font-family="Helvetica Bold" font-size="13.00">Functorial Chains: skipWhitespaceLoop.eq_def</text>
<text text-anchor="middle" x="284.5" y="-476.6" font-family="Helvetica Bold" font-size="13.00">(heuristic: used by 20 proofs)</text>
<g id="clust1" class="cluster">
<title>cluster_fns</title>
<polygon fill="none" stroke="#4a90d9" stroke-dasharray="5,2" points="8,-8 8,-352 235,-352 235,-8 8,-8"/>
<text text-anchor="middle" x="121.5" y="-337.6" font-family="Helvetica Bold" font-size="13.00" fill="#4a90d9">Functions (Call Chain)</text>
</g>
<g id="clust2" class="cluster">
<title>cluster_thms</title>
<polygon fill="none" stroke="#28a745" stroke-dasharray="5,2" points="243,-170 243,-461 471,-461 471,-170 243,-170"/>
<text text-anchor="middle" x="357" y="-446.6" font-family="Helvetica Bold" font-size="13.00" fill="#28a745">Theorems (Proof Chain)</text>
</g>
<!-- L4YAML.Scanner.skipWhitespaceLoop -->
<g id="node1" class="node">
<title>L4YAML.Scanner.skipWhitespaceLoop</title>
<polygon fill="#dce9f7" stroke="#4a90d9" points="152.5,-322 45.5,-322 45.5,-286 152.5,-286 152.5,-322"/>
<text text-anchor="middle" x="99" y="-301.5" font-family="Helvetica" font-size="10.00">skipWhitespaceLoop</text>
</g>
<!-- L4YAML.Scanner.ScannerState -->
<g id="node4" class="node">
<title>L4YAML.Scanner.ScannerState</title>
<polygon fill="#dce9f7" stroke="#4a90d9" points="159,-52 83,-52 83,-16 159,-16 159,-52"/>
<text text-anchor="middle" x="121" y="-31.5" font-family="Helvetica" font-size="10.00">ScannerState</text>
</g>
<!-- L4YAML.Scanner.skipWhitespaceLoop&#45;&gt;L4YAML.Scanner.ScannerState -->
<g id="edge15" class="edge">
<title>L4YAML.Scanner.skipWhitespaceLoop&#45;&gt;L4YAML.Scanner.ScannerState</title>
<path fill="none" stroke="#4a90d9" stroke-width="2" d="M86.43,-285.73C67.78,-258.05 35.91,-201.72 45,-151 51.83,-112.9 53.31,-100.61 77,-70 80.69,-65.23 85.17,-60.72 89.83,-56.63"/>
<polygon fill="#4a90d9" stroke="#4a90d9" stroke-width="2" points="91.55,-58.38 95.36,-52.02 88.41,-54.62 91.55,-58.38"/>
<text text-anchor="middle" x="54.5" y="-153.6" font-family="Times-Roman" font-size="8.00">calls</text>
</g>
<!-- L4YAML.Scanner.skipWhitespaceLoop._unary -->
<g id="node5" class="node">
<title>L4YAML.Scanner.skipWhitespaceLoop._unary</title>
<polygon fill="#dce9f7" stroke="#4a90d9" points="227,-214 87,-214 87,-178 227,-178 227,-214"/>
<text text-anchor="middle" x="157" y="-193.5" font-family="Helvetica" font-size="10.00">skipWhitespaceLoop._unary</text>
</g>
<!-- L4YAML.Scanner.skipWhitespaceLoop&#45;&gt;L4YAML.Scanner.skipWhitespaceLoop._unary -->
<g id="edge2" class="edge">
<title>L4YAML.Scanner.skipWhitespaceLoop&#45;&gt;L4YAML.Scanner.skipWhitespaceLoop._unary</title>
<path fill="none" stroke="#4a90d9" stroke-width="2" d="M93.04,-285.99C88.81,-270.78 85.41,-248.42 95,-232 98.05,-226.78 102.19,-222.28 106.9,-218.41"/>
<polygon fill="#4a90d9" stroke="#4a90d9" stroke-width="2" points="108.48,-220.29 112.66,-214.16 105.57,-216.35 108.48,-220.29"/>
<text text-anchor="middle" x="104.5" y="-248.1" font-family="Times-Roman" font-size="8.00">calls</text>
</g>
<!-- L4YAML.Scanner.ScannerState.advance -->
<g id="node2" class="node">
<title>L4YAML.Scanner.ScannerState.advance</title>
<polygon fill="#dce9f7" stroke="#4a90d9" points="226.5,-133 111.5,-133 111.5,-97 226.5,-97 226.5,-133"/>
<text text-anchor="middle" x="169" y="-112.5" font-family="Helvetica" font-size="10.00">ScannerState.advance</text>
</g>
<!-- L4YAML.Scanner.ScannerState.advance&#45;&gt;L4YAML.Scanner.ScannerState -->
<g id="edge14" class="edge">
<title>L4YAML.Scanner.ScannerState.advance&#45;&gt;L4YAML.Scanner.ScannerState</title>
<path fill="none" stroke="#4a90d9" stroke-width="2" d="M158.58,-96.86C151.73,-85.57 142.67,-70.66 135.16,-58.3"/>
<polygon fill="#4a90d9" stroke="#4a90d9" stroke-width="2" points="137.12,-56.82 131.39,-52.11 132.94,-59.36 137.12,-56.82"/>
<text text-anchor="middle" x="155.5" y="-72.6" font-family="Times-Roman" font-size="8.00">calls</text>
</g>
<!-- L4YAML.Scanner.ScannerState.peek? -->
<g id="node3" class="node">
<title>L4YAML.Scanner.ScannerState.peek?</title>
<polygon fill="#dce9f7" stroke="#4a90d9" points="227,-268 123,-268 123,-232 227,-232 227,-268"/>
<text text-anchor="middle" x="175" y="-247.5" font-family="Helvetica" font-size="10.00">ScannerState.peek?</text>
</g>
<!-- L4YAML.Scanner.ScannerState.peek?&#45;&gt;L4YAML.Scanner.ScannerState -->
<g id="edge11" class="edge">
<title>L4YAML.Scanner.ScannerState.peek?&#45;&gt;L4YAML.Scanner.ScannerState</title>
<path fill="none" stroke="#4a90d9" stroke-width="2" d="M122.99,-232.99C101.61,-225.9 81.09,-218.23 78,-214 59.11,-188.13 67.52,-96.85 85,-70 87.88,-65.58 91.41,-61.29 95.12,-57.33"/>
<polygon fill="#4a90d9" stroke="#4a90d9" stroke-width="2" points="97.07,-58.83 100.24,-52.13 93.58,-55.39 97.07,-58.83"/>
<text text-anchor="middle" x="77.5" y="-153.6" font-family="Times-Roman" font-size="8.00">calls</text>
</g>
<!-- L4YAML.Scanner.skipWhitespaceLoop._unary&#45;&gt;L4YAML.Scanner.ScannerState.advance -->
<g id="edge8" class="edge">
<title>L4YAML.Scanner.skipWhitespaceLoop._unary&#45;&gt;L4YAML.Scanner.ScannerState.advance</title>
<path fill="none" stroke="#4a90d9" stroke-width="2" d="M159.6,-177.86C161.27,-166.88 163.46,-152.48 165.3,-140.33"/>
<polygon fill="#4a90d9" stroke="#4a90d9" stroke-width="2" points="167.77,-140.4 166.4,-133.11 162.93,-139.66 167.77,-140.4"/>
<text text-anchor="middle" x="172.5" y="-153.6" font-family="Times-Roman" font-size="8.00">calls</text>
</g>
<!-- L4YAML.Scanner.skipWhitespaceLoop._unary&#45;&gt;L4YAML.Scanner.ScannerState -->
<g id="edge5" class="edge">
<title>L4YAML.Scanner.skipWhitespaceLoop._unary&#45;&gt;L4YAML.Scanner.ScannerState</title>
<path fill="none" stroke="#4a90d9" stroke-width="2" d="M132.18,-177.77C112.81,-163.72 88.32,-144.39 83,-133 71.27,-107.87 86.86,-78.03 101.47,-57.94"/>
<polygon fill="#4a90d9" stroke="#4a90d9" stroke-width="2" points="103.48,-59.35 105.74,-52.29 99.57,-56.39 103.48,-59.35"/>
<text text-anchor="middle" x="92.5" y="-113.1" font-family="Times-Roman" font-size="8.00">calls</text>
</g>
<!-- L4YAML.Scanner.skipWhitespaceLoop._unary._proof_1 -->
<g id="node6" class="node">
<title>L4YAML.Scanner.skipWhitespaceLoop._unary._proof_1</title>
<ellipse fill="#d4edda" stroke="#28a745" cx="357" cy="-196" rx="105.92" ry="18"/>
<text text-anchor="middle" x="357" y="-193.5" font-family="Helvetica" font-size="10.00">skipWhitespaceLoop._unary._proof_1</text>
</g>
<!-- L4YAML.Scanner.skipWhitespaceLoop._unary._proof_1&#45;&gt;L4YAML.Scanner.ScannerState.advance -->
<g id="edge9" class="edge">
<title>L4YAML.Scanner.skipWhitespaceLoop._unary._proof_1&#45;&gt;L4YAML.Scanner.ScannerState.advance</title>
<path fill="none" stroke="#999999" stroke-dasharray="1,5" d="M317.54,-179.14C302.9,-173.2 286.16,-166.36 271,-160 252.63,-152.3 232.48,-143.65 214.97,-136.07"/>
<polygon fill="#999999" stroke="#999999" points="215.55,-133.65 208.15,-133.11 213.6,-138.15 215.55,-133.65"/>
<text text-anchor="middle" x="283.5" y="-153.6" font-family="Times-Roman" font-size="8.00">about</text>
</g>
<!-- L4YAML.Scanner.skipWhitespaceLoop._unary._proof_1&#45;&gt;L4YAML.Scanner.ScannerState -->
<g id="edge7" class="edge">
<title>L4YAML.Scanner.skipWhitespaceLoop._unary._proof_1&#45;&gt;L4YAML.Scanner.ScannerState</title>
<path fill="none" stroke="#999999" stroke-dasharray="1,5" d="M338.56,-178.24C315.54,-157.74 274.47,-122.63 236,-97 212.8,-81.55 185.38,-66.65 163.14,-55.33"/>
<polygon fill="#999999" stroke="#999999" points="164.06,-53.05 156.71,-52.08 161.85,-57.42 164.06,-53.05"/>
<text text-anchor="middle" x="295.5" y="-113.1" font-family="Times-Roman" font-size="8.00">about</text>
</g>
<!-- L4YAML.Scanner.skipWhitespaceLoop.eq_def -->
<g id="node7" class="node">
<title>L4YAML.Scanner.skipWhitespaceLoop.eq_def</title>
<polygon fill="#fff3cd" stroke="#d4a017" points="435.4,-401.54 435.4,-416.46 383.03,-427 308.97,-427 256.6,-416.46 256.6,-401.54 308.97,-391 383.03,-391 435.4,-401.54"/>
<polygon fill="none" stroke="#d4a017" points="439.41,-398.27 439.41,-419.73 383.43,-431 308.57,-431 252.59,-419.73 252.59,-398.27 308.57,-387 383.43,-387 439.41,-398.27"/>
<text text-anchor="middle" x="346" y="-406.5" font-family="Helvetica" font-size="10.00">skipWhitespaceLoop.eq_def</text>
</g>
<!-- L4YAML.Scanner.skipWhitespaceLoop.eq_def&#45;&gt;L4YAML.Scanner.skipWhitespaceLoop -->
<g id="edge1" class="edge">
<title>L4YAML.Scanner.skipWhitespaceLoop.eq_def&#45;&gt;L4YAML.Scanner.skipWhitespaceLoop</title>
<path fill="none" stroke="#999999" stroke-dasharray="1,5" d="M252.43,-400.55C220.59,-395.01 185.8,-385.45 157,-369 139.57,-359.04 124.51,-342 114.1,-328"/>
<polygon fill="#999999" stroke="#999999" points="116.02,-326.46 109.94,-322.22 112.04,-329.33 116.02,-326.46"/>
<text text-anchor="middle" x="169.5" y="-362.6" font-family="Times-Roman" font-size="8.00">about</text>
</g>
<!-- L4YAML.Scanner.skipWhitespaceLoop.eq_def&#45;&gt;L4YAML.Scanner.ScannerState.advance -->
<g id="edge13" class="edge">
<title>L4YAML.Scanner.skipWhitespaceLoop.eq_def&#45;&gt;L4YAML.Scanner.ScannerState.advance</title>
<path fill="none" stroke="#999999" stroke-dasharray="1,5" d="M401.56,-390.64C423.09,-381.76 446.67,-369.14 464,-352 529.68,-287.03 580.23,-218.35 517,-151 496.39,-129.04 286.33,-137.2 233.63,-132.84"/>
<polygon fill="#999999" stroke="#999999" points="233.81,-130.4 226.58,-132.03 233.25,-135.27 233.81,-130.4"/>
<text text-anchor="middle" x="556.5" y="-248.1" font-family="Times-Roman" font-size="8.00">about</text>
</g>
<!-- L4YAML.Scanner.skipWhitespaceLoop.eq_def&#45;&gt;L4YAML.Scanner.ScannerState.peek? -->
<g id="edge10" class="edge">
<title>L4YAML.Scanner.skipWhitespaceLoop.eq_def&#45;&gt;L4YAML.Scanner.ScannerState.peek?</title>
<path fill="none" stroke="#999999" stroke-dasharray="1,5" d="M300.12,-388.57C281.41,-379.26 260.38,-366.86 244,-352 219.23,-329.53 198.83,-296.49 186.79,-274.39"/>
<polygon fill="#999999" stroke="#999999" points="188.94,-273.2 183.48,-268.18 184.61,-275.51 188.94,-273.2"/>
<text text-anchor="middle" x="277.5" y="-362.6" font-family="Times-Roman" font-size="8.00">about</text>
</g>
<!-- L4YAML.Scanner.skipWhitespaceLoop._unary.eq_def -->
<g id="node8" class="node">
<title>L4YAML.Scanner.skipWhitespaceLoop._unary.eq_def</title>
<ellipse fill="#d4edda" stroke="#28a745" cx="354" cy="-304" rx="101" ry="18"/>
<text text-anchor="middle" x="354" y="-301.5" font-family="Helvetica" font-size="10.00">skipWhitespaceLoop._unary.eq_def</text>
</g>
<!-- L4YAML.Scanner.skipWhitespaceLoop.eq_def&#45;&gt;L4YAML.Scanner.skipWhitespaceLoop._unary.eq_def -->
<g id="edge3" class="edge">
<title>L4YAML.Scanner.skipWhitespaceLoop.eq_def&#45;&gt;L4YAML.Scanner.skipWhitespaceLoop._unary.eq_def</title>
<path fill="none" stroke="#28a745" stroke-width="2" d="M347.66,-386.66C348.96,-369.95 350.76,-346.71 352.11,-329.29"/>
<polygon fill="#28a745" stroke="#28a745" stroke-width="2" points="354.56,-329.39 352.66,-322.22 349.68,-329.01 354.56,-329.39"/>
<text text-anchor="middle" x="359" y="-362.6" font-family="Times-Roman" font-size="8.00">uses</text>
</g>
<!-- L4YAML.Scanner.skipWhitespaceLoop._unary.eq_def&#45;&gt;L4YAML.Scanner.ScannerState -->
<g id="edge12" class="edge">
<title>L4YAML.Scanner.skipWhitespaceLoop._unary.eq_def&#45;&gt;L4YAML.Scanner.ScannerState</title>
<path fill="none" stroke="#999999" stroke-dasharray="1,5" d="M387.34,-286.95C431.89,-263.24 501.96,-216.61 472,-170 405.22,-66.12 245.5,-42.05 166.64,-36.56"/>
<polygon fill="#999999" stroke="#999999" points="166.41,-34.09 159.27,-36.08 166.1,-38.98 166.41,-34.09"/>
<text text-anchor="middle" x="475.5" y="-153.6" font-family="Times-Roman" font-size="8.00">about</text>
</g>
<!-- L4YAML.Scanner.skipWhitespaceLoop._unary.eq_def&#45;&gt;L4YAML.Scanner.skipWhitespaceLoop._unary -->
<g id="edge4" class="edge">
<title>L4YAML.Scanner.skipWhitespaceLoop._unary.eq_def&#45;&gt;L4YAML.Scanner.skipWhitespaceLoop._unary</title>
<path fill="none" stroke="#999999" stroke-dasharray="1,5" d="M328.75,-286.55C305.2,-271.51 268.88,-249.09 236,-232 225.97,-226.79 215,-221.61 204.51,-216.9"/>
<polygon fill="#999999" stroke="#999999" points="205.45,-214.63 198.05,-214.03 203.46,-219.11 205.45,-214.63"/>
<text text-anchor="middle" x="309.5" y="-248.1" font-family="Times-Roman" font-size="8.00">about</text>
</g>
<!-- L4YAML.Scanner.skipWhitespaceLoop._unary.eq_def&#45;&gt;L4YAML.Scanner.skipWhitespaceLoop._unary._proof_1 -->
<g id="edge6" class="edge">
<title>L4YAML.Scanner.skipWhitespaceLoop._unary.eq_def&#45;&gt;L4YAML.Scanner.skipWhitespaceLoop._unary._proof_1</title>
<path fill="none" stroke="#28a745" stroke-width="2" d="M354.48,-285.97C354.98,-268.53 355.75,-241.26 356.31,-221.51"/>
<polygon fill="#28a745" stroke="#28a745" stroke-width="2" points="358.76,-221.41 356.51,-214.34 353.86,-221.27 358.76,-221.41"/>
<text text-anchor="middle" x="365" y="-248.1" font-family="Times-Roman" font-size="8.00">uses</text>
</g>
</g>
</svg>
