<?xml version="1.0" encoding="UTF-8" standalone="no"?>
<!DOCTYPE svg PUBLIC "-//W3C//DTD SVG 1.1//EN"
 "http://www.w3.org/Graphics/SVG/1.1/DTD/svg11.dtd">
<!-- Generated by graphviz version 2.44.0 (0)
 -->
<!-- Title: chain_CouplingBridge.initial_corr Pages: 1 -->
<svg width="320pt" height="98pt"
 viewBox="0.00 0.00 320.00 97.92" xmlns="http://www.w3.org/2000/svg" xmlns:xlink="http://www.w3.org/1999/xlink">
<g id="graph0" class="graph" transform="scale(1 1) rotate(0) translate(4 93.92)">
<title>chain_CouplingBridge.initial_corr</title>
<polygon fill="white" stroke="transparent" points="-4,4 -4,-93.92 316,-93.92 316,4 -4,4"/>
<text text-anchor="middle" x="156" y="-75.52" font-family="Helvetica Bold" font-size="13.00">Functorial Chains: CouplingBridge.initial_corr</text>
<text text-anchor="middle" x="156" y="-61.52" font-family="Helvetica Bold" font-size="13.00">(heuristic: used by 10 proofs)</text>
<!-- L4YAML.Proofs.CouplingBridge.initial_corr -->
<g id="node1" class="node">
<title>L4YAML.Proofs.CouplingBridge.initial_corr</title>
<polygon fill="#fff3cd" stroke="black" points="259.16,-17.46 259.16,-36.46 198.73,-49.89 113.27,-49.89 52.84,-36.46 52.84,-17.46 113.27,-4.03 198.73,-4.03 259.16,-17.46"/>
<polygon fill="none" stroke="black" points="263.15,-14.26 263.15,-39.66 199.17,-53.88 112.83,-53.88 48.85,-39.66 48.85,-14.26 112.83,-0.04 199.17,-0.04 263.15,-14.26"/>
<text text-anchor="middle" x="156" y="-29.96" font-family="Helvetica" font-size="10.00">CouplingBridge.initial_corr</text>
<text text-anchor="middle" x="156" y="-18.96" font-family="Helvetica" font-size="10.00">(no functorial chains found)</text>
</g>
</g>
</svg>
