<?xml version="1.0" encoding="UTF-8" standalone="no"?>
<!DOCTYPE svg PUBLIC "-//W3C//DTD SVG 1.1//EN"
 "http://www.w3.org/Graphics/SVG/1.1/DTD/svg11.dtd">
<!-- Generated by graphviz version 2.44.0 (0)
 -->
<!-- Title: chain_skipSpacesLoop.eq_def Pages: 1 -->
<svg width="554pt" height="513pt"
 viewBox="0.00 0.00 554.00 513.00" xmlns="http://www.w3.org/2000/svg" xmlns:xlink="http://www.w3.org/1999/xlink">
<g id="graph0" class="graph" transform="scale(1 1) rotate(0) translate(4 509)">
<title>chain_skipSpacesLoop.eq_def</title>
<polygon fill="white" stroke="transparent" points="-4,4 -4,-509 550,-509 550,4 -4,4"/>
<text text-anchor="middle" x="273" y="-490.6" font-family="Helvetica Bold" font-size="13.00">Functorial Chains: skipSpacesLoop.eq_def</text>
<text text-anchor="middle" x="273" y="-476.6" font-family="Helvetica Bold" font-size="13.00">(heuristic: used by 16 proofs)</text>
<g id="clust1" class="cluster">
<title>cluster_fns</title>
<polygon fill="none" stroke="#4a90d9" stroke-dasharray="5,2" points="8,-8 8,-352 235,-352 235,-8 8,-8"/>
<text text-anchor="middle" x="121.5" y="-337.6" font-family="Helvetica Bold" font-size="13.00" fill="#4a90d9">Functions (Call Chain)</text>
</g>
<g id="clust2" class="cluster">
<title>cluster_thms</title>
<polygon fill="none" stroke="#28a745" stroke-dasharray="5,2" points="243,-170 243,-461 449,-461 449,-170 243,-170"/>
<text text-anchor="middle" x="346" y="-446.6" font-family="Helvetica Bold" font-size="13.00" fill="#28a745">Theorems (Proof Chain)</text>
</g>
<!-- L4YAML.Scanner.ScannerState.advance -->
<g id="node1" class="node">
<title>L4YAML.Scanner.ScannerState.advance</title>
<g id="a_node1"><a xlink:href="../../../api/L4YAML/Scanner.html#L4YAML.Scanner.ScannerState.advance" xlink:title="ScannerState.advance" target="_blank">
<polygon fill="#dce9f7" stroke="#4a90d9" points="226.5,-133 111.5,-133 111.5,-97 226.5,-97 226.5,-133"/>
<text text-anchor="middle" x="169" y="-112.5" font-family="Helvetica" font-size="10.00">ScannerState.advance</text>
</a>
</g>
</g>
<!-- L4YAML.Scanner.ScannerState -->
<g id="node3" class="node">
<title>L4YAML.Scanner.ScannerState</title>
<g id="a_node3"><a xlink:href="../../../api/L4YAML/Scanner.html#L4YAML.Scanner.ScannerState" xlink:title="ScannerState" target="_blank">
<polygon fill="#dce9f7" stroke="#4a90d9" points="159,-52 83,-52 83,-16 159,-16 159,-52"/>
<text text-anchor="middle" x="121" y="-31.5" font-family="Helvetica" font-size="10.00">ScannerState</text>
</a>
</g>
</g>
<!-- L4YAML.Scanner.ScannerState.advance&#45;&gt;L4YAML.Scanner.ScannerState -->
<g id="edge14" class="edge">
<title>L4YAML.Scanner.ScannerState.advance&#45;&gt;L4YAML.Scanner.ScannerState</title>
<path fill="none" stroke="#4a90d9" stroke-width="2" d="M158.58,-96.86C151.73,-85.57 142.67,-70.66 135.16,-58.3"/>
<polygon fill="#4a90d9" stroke="#4a90d9" stroke-width="2" points="137.12,-56.82 131.39,-52.11 132.94,-59.36 137.12,-56.82"/>
<text text-anchor="middle" x="155.5" y="-72.6" font-family="Times-Roman" font-size="8.00">calls</text>
</g>
<!-- L4YAML.Scanner.ScannerState.peek? -->
<g id="node2" class="node">
<title>L4YAML.Scanner.ScannerState.peek?</title>
<g id="a_node2"><a xlink:href="../../../api/L4YAML/Scanner.html#L4YAML.Scanner.ScannerState.peek?" xlink:title="ScannerState.peek?" target="_blank">
<polygon fill="#dce9f7" stroke="#4a90d9" points="227,-268 123,-268 123,-232 227,-232 227,-268"/>
<text text-anchor="middle" x="175" y="-247.5" font-family="Helvetica" font-size="10.00">ScannerState.peek?</text>
</a>
</g>
</g>
<!-- L4YAML.Scanner.ScannerState.peek?&#45;&gt;L4YAML.Scanner.ScannerState -->
<g id="edge11" class="edge">
<title>L4YAML.Scanner.ScannerState.peek?&#45;&gt;L4YAML.Scanner.ScannerState</title>
<path fill="none" stroke="#4a90d9" stroke-width="2" d="M122.98,-232.36C107.89,-226.58 94.1,-220.03 89,-214 55.2,-173.99 65.76,-148.55 75,-97 77.26,-84.4 78.02,-80.72 85,-70 87.88,-65.58 91.41,-61.29 95.12,-57.33"/>
<polygon fill="#4a90d9" stroke="#4a90d9" stroke-width="2" points="97.07,-58.83 100.24,-52.13 93.58,-55.39 97.07,-58.83"/>
<text text-anchor="middle" x="75.5" y="-153.6" font-family="Times-Roman" font-size="8.00">calls</text>
</g>
<!-- L4YAML.Scanner.skipSpacesLoop._unary -->
<g id="node4" class="node">
<title>L4YAML.Scanner.skipSpacesLoop._unary</title>
<g id="a_node4"><a xlink:href="../../../api/L4YAML/Scanner.html#L4YAML.Scanner.skipSpacesLoop._unary" xlink:title="skipSpacesLoop._unary" target="_blank">
<polygon fill="#dce9f7" stroke="#4a90d9" points="220,-214 98,-214 98,-178 220,-178 220,-214"/>
<text text-anchor="middle" x="159" y="-193.5" font-family="Helvetica" font-size="10.00">skipSpacesLoop._unary</text>
</a>
</g>
</g>
<!-- L4YAML.Scanner.skipSpacesLoop._unary&#45;&gt;L4YAML.Scanner.ScannerState.advance -->
<g id="edge8" class="edge">
<title>L4YAML.Scanner.skipSpacesLoop._unary&#45;&gt;L4YAML.Scanner.ScannerState.advance</title>
<path fill="none" stroke="#4a90d9" stroke-width="2" d="M161.17,-177.86C162.56,-166.88 164.38,-152.48 165.92,-140.33"/>
<polygon fill="#4a90d9" stroke="#4a90d9" stroke-width="2" points="168.39,-140.36 166.83,-133.11 163.52,-139.75 168.39,-140.36"/>
<text text-anchor="middle" x="173.5" y="-153.6" font-family="Times-Roman" font-size="8.00">calls</text>
</g>
<!-- L4YAML.Scanner.skipSpacesLoop._unary&#45;&gt;L4YAML.Scanner.ScannerState -->
<g id="edge5" class="edge">
<title>L4YAML.Scanner.skipSpacesLoop._unary&#45;&gt;L4YAML.Scanner.ScannerState</title>
<path fill="none" stroke="#4a90d9" stroke-width="2" d="M133.52,-177.85C113.63,-163.84 88.48,-144.54 83,-133 71.1,-107.94 86.73,-78.09 101.39,-57.98"/>
<polygon fill="#4a90d9" stroke="#4a90d9" stroke-width="2" points="103.4,-59.38 105.68,-52.32 99.5,-56.42 103.4,-59.38"/>
<text text-anchor="middle" x="92.5" y="-113.1" font-family="Times-Roman" font-size="8.00">calls</text>
</g>
<!-- L4YAML.Scanner.skipSpacesLoop -->
<g id="node5" class="node">
<title>L4YAML.Scanner.skipSpacesLoop</title>
<g id="a_node5"><a xlink:href="../../../api/L4YAML/Scanner.html#L4YAML.Scanner.skipSpacesLoop" xlink:title="skipSpacesLoop" target="_blank">
<polygon fill="#dce9f7" stroke="#4a90d9" points="143.5,-322 54.5,-322 54.5,-286 143.5,-286 143.5,-322"/>
<text text-anchor="middle" x="99" y="-301.5" font-family="Helvetica" font-size="10.00">skipSpacesLoop</text>
</a>
</g>
</g>
<!-- L4YAML.Scanner.skipSpacesLoop&#45;&gt;L4YAML.Scanner.ScannerState -->
<g id="edge15" class="edge">
<title>L4YAML.Scanner.skipSpacesLoop&#45;&gt;L4YAML.Scanner.ScannerState</title>
<path fill="none" stroke="#4a90d9" stroke-width="2" d="M85.84,-285.74C66.33,-258.09 33.05,-201.78 43,-151 50.47,-112.85 52.53,-100.99 76,-70 79.61,-65.24 84.02,-60.77 88.65,-56.73"/>
<polygon fill="#4a90d9" stroke="#4a90d9" stroke-width="2" points="90.31,-58.54 94.15,-52.19 87.19,-54.76 90.31,-58.54"/>
<text text-anchor="middle" x="52.5" y="-153.6" font-family="Times-Roman" font-size="8.00">calls</text>
</g>
<!-- L4YAML.Scanner.skipSpacesLoop&#45;&gt;L4YAML.Scanner.skipSpacesLoop._unary -->
<g id="edge2" class="edge">
<title>L4YAML.Scanner.skipSpacesLoop&#45;&gt;L4YAML.Scanner.skipSpacesLoop._unary</title>
<path fill="none" stroke="#4a90d9" stroke-width="2" d="M92.98,-285.96C88.72,-270.73 85.3,-248.35 95,-232 98.11,-226.75 102.31,-222.24 107.09,-218.38"/>
<polygon fill="#4a90d9" stroke="#4a90d9" stroke-width="2" points="108.71,-220.23 112.93,-214.13 105.83,-216.27 108.71,-220.23"/>
<text text-anchor="middle" x="104.5" y="-248.1" font-family="Times-Roman" font-size="8.00">calls</text>
</g>
<!-- L4YAML.Scanner.skipSpacesLoop._unary._proof_1 -->
<g id="node6" class="node">
<title>L4YAML.Scanner.skipSpacesLoop._unary._proof_1</title>
<g id="a_node6"><a xlink:href="../../../api/L4YAML/Scanner.html#L4YAML.Scanner.skipSpacesLoop._unary._proof_1" xlink:title="skipSpacesLoop._unary._proof_1" target="_blank">
<ellipse fill="#d4edda" stroke="#28a745" cx="346" cy="-196" rx="94.55" ry="18"/>
<text text-anchor="middle" x="346" y="-193.5" font-family="Helvetica" font-size="10.00">skipSpacesLoop._unary._proof_1</text>
</a>
</g>
</g>
<!-- L4YAML.Scanner.skipSpacesLoop._unary._proof_1&#45;&gt;L4YAML.Scanner.ScannerState.advance -->
<g id="edge9" class="edge">
<title>L4YAML.Scanner.skipSpacesLoop._unary._proof_1&#45;&gt;L4YAML.Scanner.ScannerState.advance</title>
<path fill="none" stroke="#999999" stroke-dasharray="1,5" d="M310.61,-179.2C282.75,-166.77 243.76,-149.37 213.74,-135.97"/>
<polygon fill="#999999" stroke="#999999" points="214.48,-133.62 207.09,-133 212.48,-138.09 214.48,-133.62"/>
<text text-anchor="middle" x="274.5" y="-153.6" font-family="Times-Roman" font-size="8.00">about</text>
</g>
<!-- L4YAML.Scanner.skipSpacesLoop._unary._proof_1&#45;&gt;L4YAML.Scanner.ScannerState -->
<g id="edge7" class="edge">
<title>L4YAML.Scanner.skipSpacesLoop._unary._proof_1&#45;&gt;L4YAML.Scanner.ScannerState</title>
<path fill="none" stroke="#999999" stroke-dasharray="1,5" d="M329.52,-178.06C308.87,-157.39 271.82,-122.1 236,-97 213.43,-81.19 186.38,-66.42 164.18,-55.26"/>
<polygon fill="#999999" stroke="#999999" points="165.12,-52.99 157.76,-52.07 162.94,-57.38 165.12,-52.99"/>
<text text-anchor="middle" x="292.5" y="-113.1" font-family="Times-Roman" font-size="8.00">about</text>
</g>
<!-- L4YAML.Scanner.skipSpacesLoop.eq_def -->
<g id="node7" class="node">
<title>L4YAML.Scanner.skipSpacesLoop.eq_def</title>
<g id="a_node7"><a xlink:href="../../../api/L4YAML/Scanner.html#L4YAML.Scanner.skipSpacesLoop.eq_def" xlink:title="skipSpacesLoop.eq_def" target="_blank">
<polygon fill="#fff3cd" stroke="#d4a017" points="411.19,-401.54 411.19,-416.46 365.97,-427 302.03,-427 256.81,-416.46 256.81,-401.54 302.03,-391 365.97,-391 411.19,-401.54"/>
<polygon fill="none" stroke="#d4a017" points="415.19,-398.37 415.19,-419.63 366.43,-431 301.57,-431 252.81,-419.63 252.81,-398.37 301.57,-387 366.43,-387 415.19,-398.37"/>
<text text-anchor="middle" x="334" y="-406.5" font-family="Helvetica" font-size="10.00">skipSpacesLoop.eq_def</text>
</a>
</g>
</g>
<!-- L4YAML.Scanner.skipSpacesLoop.eq_def&#45;&gt;L4YAML.Scanner.ScannerState.advance -->
<g id="edge13" class="edge">
<title>L4YAML.Scanner.skipSpacesLoop.eq_def&#45;&gt;L4YAML.Scanner.ScannerState.advance</title>
<path fill="none" stroke="#999999" stroke-dasharray="1,5" d="M382.66,-390.72C402.94,-381.65 425.55,-368.85 442,-352 506.53,-285.88 558.06,-218.52 495,-151 476.1,-130.76 283.73,-137.03 233.76,-132.86"/>
<polygon fill="#999999" stroke="#999999" points="233.82,-130.4 226.58,-132.02 233.25,-135.26 233.82,-130.4"/>
<text text-anchor="middle" x="533.5" y="-248.1" font-family="Times-Roman" font-size="8.00">about</text>
</g>
<!-- L4YAML.Scanner.skipSpacesLoop.eq_def&#45;&gt;L4YAML.Scanner.ScannerState.peek? -->
<g id="edge10" class="edge">
<title>L4YAML.Scanner.skipSpacesLoop.eq_def&#45;&gt;L4YAML.Scanner.ScannerState.peek?</title>
<path fill="none" stroke="#999999" stroke-dasharray="1,5" d="M294.73,-388.31C277.97,-378.76 258.88,-366.26 244,-352 220,-329 199.55,-296.36 187.28,-274.47"/>
<polygon fill="#999999" stroke="#999999" points="189.42,-273.27 183.89,-268.32 185.13,-275.64 189.42,-273.27"/>
<text text-anchor="middle" x="275.5" y="-362.6" font-family="Times-Roman" font-size="8.00">about</text>
</g>
<!-- L4YAML.Scanner.skipSpacesLoop.eq_def&#45;&gt;L4YAML.Scanner.skipSpacesLoop -->
<g id="edge1" class="edge">
<title>L4YAML.Scanner.skipSpacesLoop.eq_def&#45;&gt;L4YAML.Scanner.skipSpacesLoop</title>
<path fill="none" stroke="#999999" stroke-dasharray="1,5" d="M252.75,-401.97C219.96,-396.71 182.89,-386.96 153,-369 136.47,-359.07 122.57,-342.24 113.01,-328.33"/>
<polygon fill="#999999" stroke="#999999" points="114.84,-326.66 108.93,-322.18 110.76,-329.37 114.84,-326.66"/>
<text text-anchor="middle" x="165.5" y="-362.6" font-family="Times-Roman" font-size="8.00">about</text>
</g>
<!-- L4YAML.Scanner.skipSpacesLoop._unary.eq_def -->
<g id="node8" class="node">
<title>L4YAML.Scanner.skipSpacesLoop._unary.eq_def</title>
<g id="a_node8"><a xlink:href="../../../api/L4YAML/Scanner.html#L4YAML.Scanner.skipSpacesLoop._unary.eq_def" xlink:title="skipSpacesLoop._unary.eq_def" target="_blank">
<ellipse fill="#d4edda" stroke="#28a745" cx="343" cy="-304" rx="90.13" ry="18"/>
<text text-anchor="middle" x="343" y="-301.5" font-family="Helvetica" font-size="10.00">skipSpacesLoop._unary.eq_def</text>
</a>
</g>
</g>
<!-- L4YAML.Scanner.skipSpacesLoop.eq_def&#45;&gt;L4YAML.Scanner.skipSpacesLoop._unary.eq_def -->
<g id="edge3" class="edge">
<title>L4YAML.Scanner.skipSpacesLoop.eq_def&#45;&gt;L4YAML.Scanner.skipSpacesLoop._unary.eq_def</title>
<path fill="none" stroke="#28a745" stroke-width="2" d="M335.86,-386.66C337.32,-369.95 339.36,-346.71 340.88,-329.29"/>
<polygon fill="#28a745" stroke="#28a745" stroke-width="2" points="343.33,-329.41 341.5,-322.22 338.45,-328.98 343.33,-329.41"/>
<text text-anchor="middle" x="347" y="-362.6" font-family="Times-Roman" font-size="8.00">uses</text>
</g>
<!-- L4YAML.Scanner.skipSpacesLoop._unary.eq_def&#45;&gt;L4YAML.Scanner.ScannerState -->
<g id="edge12" class="edge">
<title>L4YAML.Scanner.skipSpacesLoop._unary.eq_def&#45;&gt;L4YAML.Scanner.ScannerState</title>
<path fill="none" stroke="#999999" stroke-dasharray="1,5" d="M373.02,-286.84C413.56,-262.81 477.72,-215.57 450,-170 389.85,-71.13 241.39,-44.67 166.19,-37.59"/>
<polygon fill="#999999" stroke="#999999" points="166.34,-35.14 159.15,-36.96 165.91,-40.02 166.34,-35.14"/>
<text text-anchor="middle" x="453.5" y="-153.6" font-family="Times-Roman" font-size="8.00">about</text>
</g>
<!-- L4YAML.Scanner.skipSpacesLoop._unary.eq_def&#45;&gt;L4YAML.Scanner.skipSpacesLoop._unary -->
<g id="edge4" class="edge">
<title>L4YAML.Scanner.skipSpacesLoop._unary.eq_def&#45;&gt;L4YAML.Scanner.skipSpacesLoop._unary</title>
<path fill="none" stroke="#999999" stroke-dasharray="1,5" d="M320.29,-286.39C299.07,-271.25 266.22,-248.76 236,-232 226.62,-226.8 216.33,-221.72 206.41,-217.12"/>
<polygon fill="#999999" stroke="#999999" points="207.34,-214.85 199.96,-214.16 205.3,-219.3 207.34,-214.85"/>
<text text-anchor="middle" x="304.5" y="-248.1" font-family="Times-Roman" font-size="8.00">about</text>
</g>
<!-- L4YAML.Scanner.skipSpacesLoop._unary.eq_def&#45;&gt;L4YAML.Scanner.skipSpacesLoop._unary._proof_1 -->
<g id="edge6" class="edge">
<title>L4YAML.Scanner.skipSpacesLoop._unary.eq_def&#45;&gt;L4YAML.Scanner.skipSpacesLoop._unary._proof_1</title>
<path fill="none" stroke="#28a745" stroke-width="2" d="M343.48,-285.97C343.98,-268.53 344.75,-241.26 345.31,-221.51"/>
<polygon fill="#28a745" stroke="#28a745" stroke-width="2" points="347.76,-221.41 345.51,-214.34 342.86,-221.27 347.76,-221.41"/>
<text text-anchor="middle" x="354" y="-248.1" font-family="Times-Roman" font-size="8.00">uses</text>
</g>
</g>
</svg>
