<?xml version="1.0" encoding="UTF-8" standalone="no"?>
<!DOCTYPE svg PUBLIC "-//W3C//DTD SVG 1.1//EN"
 "http://www.w3.org/Graphics/SVG/1.1/DTD/svg11.dtd">
<!-- Generated by graphviz version 2.44.0 (0)
 -->
<!-- Title: chain_ScannerBound.BoundInv.offset_le Pages: 1 -->
<svg width="366pt" height="98pt"
 viewBox="0.00 0.00 366.00 97.92" xmlns="http://www.w3.org/2000/svg" xmlns:xlink="http://www.w3.org/1999/xlink">
<g id="graph0" class="graph" transform="scale(1 1) rotate(0) translate(4 93.92)">
<title>chain_ScannerBound.BoundInv.offset_le</title>
<polygon fill="white" stroke="transparent" points="-4,4 -4,-93.92 362,-93.92 362,4 -4,4"/>
<text text-anchor="middle" x="179" y="-75.52" font-family="Helvetica Bold" font-size="13.00">Functorial Chains: ScannerBound.BoundInv.offset_le</text>
<text text-anchor="middle" x="179" y="-61.52" font-family="Helvetica Bold" font-size="13.00">(heuristic: used by 17 proofs)</text>
<!-- L4YAML.Proofs.ScannerBound.BoundInv.offset_le -->
<g id="node1" class="node">
<title>L4YAML.Proofs.ScannerBound.BoundInv.offset_le</title>
<polygon fill="#fff3cd" stroke="black" points="304.54,-17.46 304.54,-36.46 231,-49.89 127,-49.89 53.46,-36.46 53.46,-17.46 127,-4.03 231,-4.03 304.54,-17.46"/>
<polygon fill="none" stroke="black" points="308.54,-14.13 308.54,-39.79 231.36,-53.88 126.64,-53.88 49.46,-39.79 49.46,-14.13 126.64,-0.04 231.36,-0.04 308.54,-14.13"/>
<text text-anchor="middle" x="179" y="-29.96" font-family="Helvetica" font-size="10.00">ScannerBound.BoundInv.offset_le</text>
<text text-anchor="middle" x="179" y="-18.96" font-family="Helvetica" font-size="10.00">(no functorial chains found)</text>
</g>
</g>
</svg>
