<?xml version="1.0" encoding="UTF-8" standalone="no"?>
<!DOCTYPE svg PUBLIC "-//W3C//DTD SVG 1.1//EN"
 "http://www.w3.org/Graphics/SVG/1.1/DTD/svg11.dtd">
<!-- Generated by graphviz version 2.44.0 (0)
 -->
<!-- Title: chain_CouplingBridge.advance_input Pages: 1 -->
<svg width="345pt" height="98pt"
 viewBox="0.00 0.00 345.00 97.92" xmlns="http://www.w3.org/2000/svg" xmlns:xlink="http://www.w3.org/1999/xlink">
<g id="graph0" class="graph" transform="scale(1 1) rotate(0) translate(4 93.92)">
<title>chain_CouplingBridge.advance_input</title>
<polygon fill="white" stroke="transparent" points="-4,4 -4,-93.92 341,-93.92 341,4 -4,4"/>
<text text-anchor="middle" x="168.5" y="-75.52" font-family="Helvetica Bold" font-size="13.00">Functorial Chains: CouplingBridge.advance_input</text>
<text text-anchor="middle" x="168.5" y="-61.52" font-family="Helvetica Bold" font-size="13.00">(heuristic: used by 6 proofs)</text>
<!-- L4YAML.Proofs.CouplingBridge.advance_input -->
<g id="node1" class="node">
<title>L4YAML.Proofs.CouplingBridge.advance_input</title>
<polygon fill="#fff3cd" stroke="black" points="281.56,-17.46 281.56,-36.46 215.33,-49.89 121.67,-49.89 55.44,-36.46 55.44,-17.46 121.67,-4.03 215.33,-4.03 281.56,-17.46"/>
<polygon fill="none" stroke="black" points="285.55,-14.2 285.55,-39.72 215.73,-53.88 121.27,-53.88 51.45,-39.72 51.45,-14.2 121.27,-0.04 215.73,-0.04 285.55,-14.2"/>
<text text-anchor="middle" x="168.5" y="-29.96" font-family="Helvetica" font-size="10.00">CouplingBridge.advance_input</text>
<text text-anchor="middle" x="168.5" y="-18.96" font-family="Helvetica" font-size="10.00">(no functorial chains found)</text>
</g>
</g>
</svg>
