<?xml version="1.0" encoding="UTF-8" standalone="no"?>
<!DOCTYPE svg PUBLIC "-//W3C//DTD SVG 1.1//EN"
 "http://www.w3.org/Graphics/SVG/1.1/DTD/svg11.dtd">
<!-- Generated by graphviz version 2.44.0 (0)
 -->
<!-- Title: chain_CouplingBridge.CharsFromOffset_unique Pages: 1 -->
<svg width="412pt" height="98pt"
 viewBox="0.00 0.00 412.00 97.92" xmlns="http://www.w3.org/2000/svg" xmlns:xlink="http://www.w3.org/1999/xlink">
<g id="graph0" class="graph" transform="scale(1 1) rotate(0) translate(4 93.92)">
<title>chain_CouplingBridge.CharsFromOffset_unique</title>
<polygon fill="white" stroke="transparent" points="-4,4 -4,-93.92 408,-93.92 408,4 -4,4"/>
<text text-anchor="middle" x="202" y="-75.52" font-family="Helvetica Bold" font-size="13.00">Functorial Chains: CouplingBridge.CharsFromOffset_unique</text>
<text text-anchor="middle" x="202" y="-61.52" font-family="Helvetica Bold" font-size="13.00">(heuristic: used by 6 proofs)</text>
<!-- L4YAML.Proofs.CouplingBridge.CharsFromOffset_unique -->
<g id="node1" class="node">
<title>L4YAML.Proofs.CouplingBridge.CharsFromOffset_unique</title>
<polygon fill="#fff3cd" stroke="black" points="351.49,-17.46 351.49,-36.46 263.92,-49.89 140.08,-49.89 52.51,-36.46 52.51,-17.46 140.08,-4.03 263.92,-4.03 351.49,-17.46"/>
<polygon fill="none" stroke="black" points="355.49,-14.04 355.49,-39.88 264.23,-53.88 139.77,-53.88 48.51,-39.88 48.51,-14.04 139.77,-0.04 264.23,-0.04 355.49,-14.04"/>
<text text-anchor="middle" x="202" y="-29.96" font-family="Helvetica" font-size="10.00">CouplingBridge.CharsFromOffset_unique</text>
<text text-anchor="middle" x="202" y="-18.96" font-family="Helvetica" font-size="10.00">(no functorial chains found)</text>
</g>
</g>
</svg>
