<?xml version="1.0" encoding="UTF-8" standalone="no"?>
<!DOCTYPE svg PUBLIC "-//W3C//DTD SVG 1.1//EN"
 "http://www.w3.org/Graphics/SVG/1.1/DTD/svg11.dtd">
<!-- Generated by graphviz version 2.44.0 (0)
 -->
<!-- Title: chain_ScannerBound.emit_BoundInv Pages: 1 -->
<svg width="1595pt" height="324pt"
 viewBox="0.00 0.00 1595.00 324.00" xmlns="http://www.w3.org/2000/svg" xmlns:xlink="http://www.w3.org/1999/xlink">
<g id="graph0" class="graph" transform="scale(1 1) rotate(0) translate(4 320)">
<title>chain_ScannerBound.emit_BoundInv</title>
<polygon fill="white" stroke="transparent" points="-4,4 -4,-320 1591,-320 1591,4 -4,4"/>
<text text-anchor="middle" x="793.5" y="-301.6" font-family="Helvetica Bold" font-size="13.00">Functorial Chains: ScannerBound.emit_BoundInv</text>
<text text-anchor="middle" x="793.5" y="-287.6" font-family="Helvetica Bold" font-size="13.00">(heuristic: used by 7 proofs)</text>
<g id="clust1" class="cluster">
<title>cluster_fns</title>
<polygon fill="none" stroke="#4a90d9" stroke-dasharray="5,2" points="1029,-8 1029,-163 1579,-163 1579,-8 1029,-8"/>
<text text-anchor="middle" x="1304" y="-148.6" font-family="Helvetica Bold" font-size="13.00" fill="#4a90d9">Functions (Call Chain)</text>
</g>
<g id="clust2" class="cluster">
<title>cluster_thms</title>
<polygon fill="none" stroke="#28a745" stroke-dasharray="5,2" points="8,-89 8,-272 1021,-272 1021,-89 8,-89"/>
<text text-anchor="middle" x="514.5" y="-257.6" font-family="Helvetica Bold" font-size="13.00" fill="#28a745">Theorems (Proof Chain)</text>
</g>
<!-- L4YAML.Scanner.ScannerState.input -->
<g id="node1" class="node">
<title>L4YAML.Scanner.ScannerState.input</title>
<polygon fill="#dce9f7" stroke="#4a90d9" points="1571,-52 1471,-52 1471,-16 1571,-16 1571,-52"/>
<text text-anchor="middle" x="1521" y="-31.5" font-family="Helvetica" font-size="10.00">ScannerState.input</text>
</g>
<!-- L4YAML.Scanner.ScannerState.emit -->
<g id="node2" class="node">
<title>L4YAML.Scanner.ScannerState.emit</title>
<polygon fill="#dce9f7" stroke="#4a90d9" points="1284,-133 1186,-133 1186,-97 1284,-97 1284,-133"/>
<text text-anchor="middle" x="1235" y="-112.5" font-family="Helvetica" font-size="10.00">ScannerState.emit</text>
</g>
<!-- L4YAML.Scanner.ScannerState.emit&#45;&gt;L4YAML.Scanner.ScannerState.input -->
<g id="edge11" class="edge">
<title>L4YAML.Scanner.ScannerState.emit&#45;&gt;L4YAML.Scanner.ScannerState.input</title>
<path fill="none" stroke="#4a90d9" stroke-width="2" d="M1284.21,-100.77C1330.22,-88.35 1400.84,-69.16 1462,-52 1462.63,-51.82 1463.26,-51.65 1463.9,-51.47"/>
<polygon fill="#4a90d9" stroke="#4a90d9" stroke-width="2" points="1464.73,-53.78 1470.8,-49.52 1463.4,-49.06 1464.73,-53.78"/>
<text text-anchor="middle" x="1402.5" y="-72.6" font-family="Times-Roman" font-size="8.00">calls</text>
</g>
<!-- L4YAML.Scanner.ScannerState -->
<g id="node3" class="node">
<title>L4YAML.Scanner.ScannerState</title>
<polygon fill="#dce9f7" stroke="#4a90d9" points="1331,-52 1255,-52 1255,-16 1331,-16 1331,-52"/>
<text text-anchor="middle" x="1293" y="-31.5" font-family="Helvetica" font-size="10.00">ScannerState</text>
</g>
<!-- L4YAML.Scanner.ScannerState.emit&#45;&gt;L4YAML.Scanner.ScannerState -->
<g id="edge5" class="edge">
<title>L4YAML.Scanner.ScannerState.emit&#45;&gt;L4YAML.Scanner.ScannerState</title>
<path fill="none" stroke="#4a90d9" stroke-width="2" d="M1247.59,-96.86C1255.95,-85.47 1267.02,-70.39 1276.14,-57.96"/>
<polygon fill="#4a90d9" stroke="#4a90d9" stroke-width="2" points="1278.27,-59.2 1280.44,-52.11 1274.32,-56.3 1278.27,-59.2"/>
<text text-anchor="middle" x="1274.5" y="-72.6" font-family="Times-Roman" font-size="8.00">calls</text>
</g>
<!-- L4YAML.YamlToken -->
<g id="node4" class="node">
<title>L4YAML.YamlToken</title>
<polygon fill="#dce9f7" stroke="#4a90d9" points="1101,-52 1037,-52 1037,-16 1101,-16 1101,-52"/>
<text text-anchor="middle" x="1069" y="-31.5" font-family="Helvetica" font-size="10.00">YamlToken</text>
</g>
<!-- L4YAML.Scanner.ScannerState.emit&#45;&gt;L4YAML.YamlToken -->
<g id="edge2" class="edge">
<title>L4YAML.Scanner.ScannerState.emit&#45;&gt;L4YAML.YamlToken</title>
<path fill="none" stroke="#4a90d9" stroke-width="2" d="M1198.98,-96.86C1171.97,-84 1135.05,-66.44 1107.47,-53.31"/>
<polygon fill="#4a90d9" stroke="#4a90d9" stroke-width="2" points="1108.4,-51.04 1101.02,-50.24 1106.29,-55.46 1108.4,-51.04"/>
<text text-anchor="middle" x="1165.5" y="-72.6" font-family="Times-Roman" font-size="8.00">calls</text>
</g>
<!-- L4YAML.Scanner.ScannerState.offset -->
<g id="node5" class="node">
<title>L4YAML.Scanner.ScannerState.offset</title>
<polygon fill="#dce9f7" stroke="#4a90d9" points="1452.5,-52 1349.5,-52 1349.5,-16 1452.5,-16 1452.5,-52"/>
<text text-anchor="middle" x="1401" y="-31.5" font-family="Helvetica" font-size="10.00">ScannerState.offset</text>
</g>
<!-- L4YAML.Scanner.ScannerState.emit&#45;&gt;L4YAML.Scanner.ScannerState.offset -->
<g id="edge9" class="edge">
<title>L4YAML.Scanner.ScannerState.emit&#45;&gt;L4YAML.Scanner.ScannerState.offset</title>
<path fill="none" stroke="#4a90d9" stroke-width="2" d="M1271.02,-96.86C1296.8,-84.59 1331.59,-68.03 1358.69,-55.14"/>
<polygon fill="#4a90d9" stroke="#4a90d9" stroke-width="2" points="1359.78,-57.33 1365.05,-52.11 1357.68,-52.9 1359.78,-57.33"/>
<text text-anchor="middle" x="1331.5" y="-72.6" font-family="Times-Roman" font-size="8.00">calls</text>
</g>
<!-- L4YAML.Scanner.ScannerState.inputEnd -->
<g id="node6" class="node">
<title>L4YAML.Scanner.ScannerState.inputEnd</title>
<polygon fill="#dce9f7" stroke="#4a90d9" points="1236.5,-52 1119.5,-52 1119.5,-16 1236.5,-16 1236.5,-52"/>
<text text-anchor="middle" x="1178" y="-31.5" font-family="Helvetica" font-size="10.00">ScannerState.inputEnd</text>
</g>
<!-- L4YAML.Scanner.ScannerState.emit&#45;&gt;L4YAML.Scanner.ScannerState.inputEnd -->
<g id="edge18" class="edge">
<title>L4YAML.Scanner.ScannerState.emit&#45;&gt;L4YAML.Scanner.ScannerState.inputEnd</title>
<path fill="none" stroke="#4a90d9" stroke-width="2" d="M1222.63,-96.86C1214.42,-85.47 1203.53,-70.39 1194.57,-57.96"/>
<polygon fill="#4a90d9" stroke="#4a90d9" stroke-width="2" points="1196.43,-56.35 1190.34,-52.11 1192.45,-59.22 1196.43,-56.35"/>
<text text-anchor="middle" x="1217.5" y="-72.6" font-family="Times-Roman" font-size="8.00">calls</text>
</g>
<!-- L4YAML.Proofs.ScannerBound.BoundInv.inputEnd_eq -->
<g id="node7" class="node">
<title>L4YAML.Proofs.ScannerBound.BoundInv.inputEnd_eq</title>
<ellipse fill="#d4edda" stroke="#28a745" cx="695" cy="-115" rx="106.6" ry="18"/>
<text text-anchor="middle" x="695" y="-112.5" font-family="Helvetica" font-size="10.00">ScannerBound.BoundInv.inputEnd_eq</text>
</g>
<!-- L4YAML.Proofs.ScannerBound.BoundInv.inputEnd_eq&#45;&gt;L4YAML.Scanner.ScannerState -->
<g id="edge21" class="edge">
<title>L4YAML.Proofs.ScannerBound.BoundInv.inputEnd_eq&#45;&gt;L4YAML.Scanner.ScannerState</title>
<path fill="none" stroke="#999999" stroke-dasharray="1,5" d="M717.94,-97.19C732.83,-87.29 753.1,-75.63 773,-70 874.21,-41.35 1142.76,-72.13 1246,-52 1246.63,-51.88 1247.27,-51.75 1247.91,-51.61"/>
<polygon fill="#999999" stroke="#999999" points="1248.59,-53.96 1254.8,-49.91 1247.42,-49.21 1248.59,-53.96"/>
<text text-anchor="middle" x="785.5" y="-72.6" font-family="Times-Roman" font-size="8.00">about</text>
</g>
<!-- L4YAML.Proofs.ScannerProgress.emit_inputEnd -->
<g id="node8" class="node">
<title>L4YAML.Proofs.ScannerProgress.emit_inputEnd</title>
<ellipse fill="#d4edda" stroke="#28a745" cx="291" cy="-115" rx="92.34" ry="18"/>
<text text-anchor="middle" x="291" y="-112.5" font-family="Helvetica" font-size="10.00">ScannerProgress.emit_inputEnd</text>
</g>
<!-- L4YAML.Proofs.ScannerProgress.emit_inputEnd&#45;&gt;L4YAML.Scanner.ScannerState -->
<g id="edge16" class="edge">
<title>L4YAML.Proofs.ScannerProgress.emit_inputEnd&#45;&gt;L4YAML.Scanner.ScannerState</title>
<path fill="none" stroke="#999999" stroke-dasharray="1,5" d="M343.19,-100.14C359.11,-96.2 376.71,-92.13 393,-89 452.5,-77.55 467.61,-74.99 528,-70 687.06,-56.86 1089.15,-81.53 1246,-52 1246.63,-51.88 1247.27,-51.75 1247.91,-51.62"/>
<polygon fill="#999999" stroke="#999999" points="1248.58,-53.98 1254.81,-49.95 1247.43,-49.22 1248.58,-53.98"/>
<text text-anchor="middle" x="540.5" y="-72.6" font-family="Times-Roman" font-size="8.00">about</text>
</g>
<!-- L4YAML.Proofs.ScannerProgress.emit_inputEnd&#45;&gt;L4YAML.YamlToken -->
<g id="edge17" class="edge">
<title>L4YAML.Proofs.ScannerProgress.emit_inputEnd&#45;&gt;L4YAML.YamlToken</title>
<path fill="none" stroke="#999999" stroke-dasharray="1,5" d="M302.09,-97.1C309.55,-87.3 320.32,-75.79 333,-70 396.45,-41.05 885.98,-36.02 1029.55,-35.17"/>
<polygon fill="#999999" stroke="#999999" points="1029.93,-37.62 1036.92,-35.13 1029.91,-32.72 1029.93,-37.62"/>
<text text-anchor="middle" x="345.5" y="-72.6" font-family="Times-Roman" font-size="8.00">about</text>
</g>
<!-- L4YAML.Proofs.ScannerProgress.emit_inputEnd&#45;&gt;L4YAML.Scanner.ScannerState.inputEnd -->
<g id="edge19" class="edge">
<title>L4YAML.Proofs.ScannerProgress.emit_inputEnd&#45;&gt;L4YAML.Scanner.ScannerState.inputEnd</title>
<path fill="none" stroke="#999999" stroke-dasharray="1,5" d="M323.82,-98C346.36,-87.89 377.27,-75.69 406,-70 559.51,-39.6 954.93,-73.1 1110,-52 1110.75,-51.9 1111.51,-51.79 1112.27,-51.68"/>
<polygon fill="#999999" stroke="#999999" points="1112.67,-54.09 1119.18,-50.54 1111.88,-49.26 1112.67,-54.09"/>
<text text-anchor="middle" x="418.5" y="-72.6" font-family="Times-Roman" font-size="8.00">about</text>
</g>
<!-- L4YAML.Proofs.ScannerProgress.emit_input -->
<g id="node9" class="node">
<title>L4YAML.Proofs.ScannerProgress.emit_input</title>
<ellipse fill="#d4edda" stroke="#28a745" cx="98" cy="-115" rx="82.33" ry="18"/>
<text text-anchor="middle" x="98" y="-112.5" font-family="Helvetica" font-size="10.00">ScannerProgress.emit_input</text>
</g>
<!-- L4YAML.Proofs.ScannerProgress.emit_input&#45;&gt;L4YAML.YamlToken -->
<g id="edge4" class="edge">
<title>L4YAML.Proofs.ScannerProgress.emit_input&#45;&gt;L4YAML.YamlToken</title>
<path fill="none" stroke="#999999" stroke-dasharray="1,5" d="M145.48,-100.14C184.25,-89.56 240.65,-75.84 291,-70 572.57,-37.35 914.73,-34.7 1029.41,-34.82"/>
<polygon fill="#999999" stroke="#999999" points="1029.63,-37.27 1036.63,-34.83 1029.64,-32.37 1029.63,-37.27"/>
<text text-anchor="middle" x="303.5" y="-72.6" font-family="Times-Roman" font-size="8.00">about</text>
</g>
<!-- L4YAML.Proofs.ScannerBound.emit_BoundInv -->
<g id="node10" class="node">
<title>L4YAML.Proofs.ScannerBound.emit_BoundInv</title>
<polygon fill="#fff3cd" stroke="#d4a017" points="684.88,-212.54 684.88,-227.46 629.3,-238 550.7,-238 495.12,-227.46 495.12,-212.54 550.7,-202 629.3,-202 684.88,-212.54"/>
<polygon fill="none" stroke="#d4a017" points="688.87,-209.23 688.87,-230.77 629.68,-242 550.32,-242 491.13,-230.77 491.13,-209.23 550.32,-198 629.68,-198 688.87,-209.23"/>
<text text-anchor="middle" x="590" y="-217.5" font-family="Helvetica" font-size="10.00">ScannerBound.emit_BoundInv</text>
</g>
<!-- L4YAML.Proofs.ScannerBound.emit_BoundInv&#45;&gt;L4YAML.Scanner.ScannerState.emit -->
<g id="edge1" class="edge">
<title>L4YAML.Proofs.ScannerBound.emit_BoundInv&#45;&gt;L4YAML.Scanner.ScannerState.emit</title>
<path fill="none" stroke="#999999" stroke-dasharray="1,5" d="M688,-208.99C776.42,-199.35 909.89,-183.25 1025,-163 1077.46,-153.77 1136.61,-140.25 1178.74,-130.07"/>
<polygon fill="#999999" stroke="#999999" points="1179.39,-132.44 1185.62,-128.4 1178.23,-127.67 1179.39,-132.44"/>
<text text-anchor="middle" x="978.5" y="-173.6" font-family="Times-Roman" font-size="8.00">about</text>
</g>
<!-- L4YAML.Proofs.ScannerBound.emit_BoundInv&#45;&gt;L4YAML.Proofs.ScannerBound.BoundInv.inputEnd_eq -->
<g id="edge20" class="edge">
<title>L4YAML.Proofs.ScannerBound.emit_BoundInv&#45;&gt;L4YAML.Proofs.ScannerBound.BoundInv.inputEnd_eq</title>
<path fill="none" stroke="#28a745" stroke-width="2" d="M611.5,-197.91C629.23,-180.52 654.3,-155.93 672.34,-138.23"/>
<polygon fill="#28a745" stroke="#28a745" stroke-width="2" points="674.41,-139.63 677.69,-132.98 670.98,-136.13 674.41,-139.63"/>
<text text-anchor="middle" x="646" y="-173.6" font-family="Times-Roman" font-size="8.00">uses</text>
</g>
<!-- L4YAML.Proofs.ScannerBound.emit_BoundInv&#45;&gt;L4YAML.Proofs.ScannerProgress.emit_inputEnd -->
<g id="edge15" class="edge">
<title>L4YAML.Proofs.ScannerBound.emit_BoundInv&#45;&gt;L4YAML.Proofs.ScannerProgress.emit_inputEnd</title>
<path fill="none" stroke="#28a745" stroke-width="2" d="M523.96,-202.96C485.32,-192.9 435.85,-178.85 393,-163 371.5,-155.05 348.24,-144.49 329.36,-135.39"/>
<polygon fill="#28a745" stroke="#28a745" stroke-width="2" points="329.99,-132.97 322.62,-132.11 327.85,-137.38 329.99,-132.97"/>
<text text-anchor="middle" x="451" y="-173.6" font-family="Times-Roman" font-size="8.00">uses</text>
</g>
<!-- L4YAML.Proofs.ScannerBound.emit_BoundInv&#45;&gt;L4YAML.Proofs.ScannerProgress.emit_input -->
<g id="edge3" class="edge">
<title>L4YAML.Proofs.ScannerBound.emit_BoundInv&#45;&gt;L4YAML.Proofs.ScannerProgress.emit_input</title>
<path fill="none" stroke="#28a745" stroke-width="2" d="M491,-214.31C408.79,-208.26 289.64,-194.44 190,-163 169.13,-156.41 147.25,-145.43 130.07,-135.73"/>
<polygon fill="#28a745" stroke="#28a745" stroke-width="2" points="131.26,-133.59 123.97,-132.23 128.82,-137.84 131.26,-133.59"/>
<text text-anchor="middle" x="253" y="-173.6" font-family="Times-Roman" font-size="8.00">uses</text>
</g>
<!-- L4YAML.Proofs.ScannerProgress.emit_offset -->
<g id="node11" class="node">
<title>L4YAML.Proofs.ScannerProgress.emit_offset</title>
<ellipse fill="#d4edda" stroke="#28a745" cx="486" cy="-115" rx="84.36" ry="18"/>
<text text-anchor="middle" x="486" y="-112.5" font-family="Helvetica" font-size="10.00">ScannerProgress.emit_offset</text>
</g>
<!-- L4YAML.Proofs.ScannerBound.emit_BoundInv&#45;&gt;L4YAML.Proofs.ScannerProgress.emit_offset -->
<g id="edge6" class="edge">
<title>L4YAML.Proofs.ScannerBound.emit_BoundInv&#45;&gt;L4YAML.Proofs.ScannerProgress.emit_offset</title>
<path fill="none" stroke="#28a745" stroke-width="2" d="M568.7,-197.91C551.04,-180.41 526.01,-155.62 508.12,-137.91"/>
<polygon fill="#28a745" stroke="#28a745" stroke-width="2" points="509.51,-135.84 502.81,-132.65 506.06,-139.32 509.51,-135.84"/>
<text text-anchor="middle" x="560" y="-173.6" font-family="Times-Roman" font-size="8.00">uses</text>
</g>
<!-- L4YAML.Proofs.ScannerBound.BoundInv.input_eq -->
<g id="node12" class="node">
<title>L4YAML.Proofs.ScannerBound.BoundInv.input_eq</title>
<ellipse fill="#d4edda" stroke="#28a745" cx="916" cy="-115" rx="96.58" ry="18"/>
<text text-anchor="middle" x="916" y="-112.5" font-family="Helvetica" font-size="10.00">ScannerBound.BoundInv.input_eq</text>
</g>
<!-- L4YAML.Proofs.ScannerBound.emit_BoundInv&#45;&gt;L4YAML.Proofs.ScannerBound.BoundInv.input_eq -->
<g id="edge12" class="edge">
<title>L4YAML.Proofs.ScannerBound.emit_BoundInv&#45;&gt;L4YAML.Proofs.ScannerBound.BoundInv.input_eq</title>
<path fill="none" stroke="#28a745" stroke-width="2" d="M662.09,-204.05C705.73,-194.18 762.21,-179.96 811,-163 833.54,-155.16 857.92,-144.4 877.5,-135.16"/>
<polygon fill="#28a745" stroke="#28a745" stroke-width="2" points="878.69,-137.31 883.95,-132.08 876.58,-132.88 878.69,-137.31"/>
<text text-anchor="middle" x="791" y="-173.6" font-family="Times-Roman" font-size="8.00">uses</text>
</g>
<!-- L4YAML.Proofs.ScannerProgress.emit_offset&#45;&gt;L4YAML.Scanner.ScannerState -->
<g id="edge7" class="edge">
<title>L4YAML.Proofs.ScannerProgress.emit_offset&#45;&gt;L4YAML.Scanner.ScannerState</title>
<path fill="none" stroke="#999999" stroke-dasharray="1,5" d="M533.51,-99.96C548.02,-96.01 564.08,-91.99 579,-89 641.43,-76.49 657.55,-75.32 721,-70 837.33,-60.25 1131.38,-74.12 1246,-52 1246.63,-51.88 1247.27,-51.75 1247.91,-51.61"/>
<polygon fill="#999999" stroke="#999999" points="1248.59,-53.97 1254.8,-49.92 1247.42,-49.21 1248.59,-53.97"/>
<text text-anchor="middle" x="733.5" y="-72.6" font-family="Times-Roman" font-size="8.00">about</text>
</g>
<!-- L4YAML.Proofs.ScannerProgress.emit_offset&#45;&gt;L4YAML.YamlToken -->
<g id="edge8" class="edge">
<title>L4YAML.Proofs.ScannerProgress.emit_offset&#45;&gt;L4YAML.YamlToken</title>
<path fill="none" stroke="#999999" stroke-dasharray="1,5" d="M514,-97.92C532.64,-88.04 558.02,-76.14 582,-70 666.42,-48.38 929.37,-38.91 1029.63,-36.02"/>
<polygon fill="#999999" stroke="#999999" points="1029.92,-38.46 1036.84,-35.82 1029.78,-33.57 1029.92,-38.46"/>
<text text-anchor="middle" x="594.5" y="-72.6" font-family="Times-Roman" font-size="8.00">about</text>
</g>
<!-- L4YAML.Proofs.ScannerProgress.emit_offset&#45;&gt;L4YAML.Scanner.ScannerState.offset -->
<g id="edge10" class="edge">
<title>L4YAML.Proofs.ScannerProgress.emit_offset&#45;&gt;L4YAML.Scanner.ScannerState.offset</title>
<path fill="none" stroke="#999999" stroke-dasharray="1,5" d="M531.46,-99.67C546.45,-95.51 563.31,-91.44 579,-89 675.28,-74.04 700.75,-84.96 798,-79 850.06,-75.81 862.94,-73.1 915,-70 1103.72,-58.75 1153.27,-81.57 1340,-52 1340.76,-51.88 1341.52,-51.75 1342.29,-51.62"/>
<polygon fill="#999999" stroke="#999999" points="1342.85,-54.01 1349.26,-50.29 1341.93,-49.2 1342.85,-54.01"/>
<text text-anchor="middle" x="927.5" y="-72.6" font-family="Times-Roman" font-size="8.00">about</text>
</g>
<!-- L4YAML.Proofs.ScannerBound.BoundInv.input_eq&#45;&gt;L4YAML.Scanner.ScannerState.input -->
<g id="edge13" class="edge">
<title>L4YAML.Proofs.ScannerBound.BoundInv.input_eq&#45;&gt;L4YAML.Scanner.ScannerState.input</title>
<path fill="none" stroke="#999999" stroke-dasharray="1,5" d="M973.64,-100.51C990.2,-96.71 1008.3,-92.62 1025,-89 1066.23,-80.06 1076.15,-75.34 1118,-70 1269.87,-50.62 1311.02,-77.36 1462,-52 1462.64,-51.89 1463.29,-51.78 1463.94,-51.66"/>
<polygon fill="#999999" stroke="#999999" points="1464.58,-54.03 1470.97,-50.26 1463.62,-49.23 1464.58,-54.03"/>
<text text-anchor="middle" x="1130.5" y="-72.6" font-family="Times-Roman" font-size="8.00">about</text>
</g>
<!-- L4YAML.Proofs.ScannerBound.BoundInv.input_eq&#45;&gt;L4YAML.Scanner.ScannerState -->
<g id="edge14" class="edge">
<title>L4YAML.Proofs.ScannerBound.BoundInv.input_eq&#45;&gt;L4YAML.Scanner.ScannerState</title>
<path fill="none" stroke="#999999" stroke-dasharray="1,5" d="M927.82,-96.72C935.49,-87.04 946.38,-75.79 959,-70 1017.09,-43.37 1183.43,-65 1246,-52 1246.63,-51.87 1247.27,-51.73 1247.9,-51.59"/>
<polygon fill="#999999" stroke="#999999" points="1248.61,-53.93 1254.78,-49.83 1247.39,-49.19 1248.61,-53.93"/>
<text text-anchor="middle" x="971.5" y="-72.6" font-family="Times-Roman" font-size="8.00">about</text>
</g>
</g>
</svg>
