<?xml version="1.0" encoding="UTF-8" standalone="no"?>
<!DOCTYPE svg PUBLIC "-//W3C//DTD SVG 1.1//EN"
 "http://www.w3.org/Graphics/SVG/1.1/DTD/svg11.dtd">
<!-- Generated by graphviz version 2.44.0 (0)
 -->
<!-- Title: chain_ScannerPlainScalarValid.SimpleKeyPlaceholderInv_mono._proof_1 Pages: 1 -->
<svg width="571pt" height="98pt"
 viewBox="0.00 0.00 571.00 97.92" xmlns="http://www.w3.org/2000/svg" xmlns:xlink="http://www.w3.org/1999/xlink">
<g id="graph0" class="graph" transform="scale(1 1) rotate(0) translate(4 93.92)">
<title>chain_ScannerPlainScalarValid.SimpleKeyPlaceholderInv_mono._proof_1</title>
<polygon fill="white" stroke="transparent" points="-4,4 -4,-93.92 567,-93.92 567,4 -4,4"/>
<text text-anchor="middle" x="281.5" y="-75.52" font-family="Helvetica Bold" font-size="13.00">Functorial Chains: ScannerPlainScalarValid.SimpleKeyPlaceholderInv_mono._proof_1</text>
<text text-anchor="middle" x="281.5" y="-61.52" font-family="Helvetica Bold" font-size="13.00">(heuristic: used by 8 proofs)</text>
<!-- L4YAML.Proofs.ScannerPlainScalarValid.SimpleKeyPlaceholderInv_mono._proof_1 -->
<g id="node1" class="node">
<title>L4YAML.Proofs.ScannerPlainScalarValid.SimpleKeyPlaceholderInv_mono._proof_1</title>
<polygon fill="#fff3cd" stroke="black" points="516.44,-17.46 516.44,-36.46 378.81,-49.89 184.19,-49.89 46.56,-36.46 46.56,-17.46 184.19,-4.03 378.81,-4.03 516.44,-17.46"/>
<polygon fill="none" stroke="black" points="520.44,-13.84 520.44,-40.08 379.01,-53.88 183.99,-53.88 42.56,-40.08 42.56,-13.84 183.99,-0.04 379.01,-0.04 520.44,-13.84"/>
<text text-anchor="middle" x="281.5" y="-29.96" font-family="Helvetica" font-size="10.00">ScannerPlainScalarValid.SimpleKeyPlaceholderInv_mono._proof_1</text>
<text text-anchor="middle" x="281.5" y="-18.96" font-family="Helvetica" font-size="10.00">(no functorial chains found)</text>
</g>
</g>
</svg>
