<?xml version="1.0" encoding="UTF-8" standalone="no"?>
<!DOCTYPE svg PUBLIC "-//W3C//DTD SVG 1.1//EN"
 "http://www.w3.org/Graphics/SVG/1.1/DTD/svg11.dtd">
<!-- Generated by graphviz version 2.44.0 (0)
 -->
<!-- Title: chain_ScannerCorrectness.ScanHelpers.parseBlockHeaderLoop_preserves_tokens Pages: 1 -->
<svg width="1542pt" height="324pt"
 viewBox="0.00 0.00 1542.00 324.00" xmlns="http://www.w3.org/2000/svg" xmlns:xlink="http://www.w3.org/1999/xlink">
<g id="graph0" class="graph" transform="scale(1 1) rotate(0) translate(4 320)">
<title>chain_ScannerCorrectness.ScanHelpers.parseBlockHeaderLoop_preserves_tokens</title>
<polygon fill="white" stroke="transparent" points="-4,4 -4,-320 1538,-320 1538,4 -4,4"/>
<text text-anchor="middle" x="767" y="-301.6" font-family="Helvetica Bold" font-size="13.00">Functorial Chains: ScannerCorrectness.ScanHelpers.parseBlockHeaderLoop_preserves_tokens</text>
<text text-anchor="middle" x="767" y="-287.6" font-family="Helvetica Bold" font-size="13.00">(heuristic: used by 5 proofs)</text>
<g id="clust1" class="cluster">
<title>cluster_fns</title>
<polygon fill="none" stroke="#4a90d9" stroke-dasharray="5,2" points="496,-8 496,-163 1526,-163 1526,-8 496,-8"/>
<text text-anchor="middle" x="1011" y="-148.6" font-family="Helvetica Bold" font-size="13.00" fill="#4a90d9">Functions (Call Chain)</text>
</g>
<g id="clust2" class="cluster">
<title>cluster_thms</title>
<polygon fill="none" stroke="#28a745" stroke-dasharray="5,2" points="8,-89 8,-272 488,-272 488,-89 8,-89"/>
<text text-anchor="middle" x="248" y="-257.6" font-family="Helvetica Bold" font-size="13.00" fill="#28a745">Theorems (Proof Chain)</text>
</g>
<!-- L4YAML.Scanner.parseBlockHeaderLoop.match_1 -->
<g id="node1" class="node">
<title>L4YAML.Scanner.parseBlockHeaderLoop.match_1</title>
<polygon fill="#dce9f7" stroke="#4a90d9" points="1201.5,-52 1042.5,-52 1042.5,-16 1201.5,-16 1201.5,-52"/>
<text text-anchor="middle" x="1122" y="-31.5" font-family="Helvetica" font-size="10.00">parseBlockHeaderLoop.match_1</text>
</g>
<!-- L4YAML.ChompStyle -->
<g id="node2" class="node">
<title>L4YAML.ChompStyle</title>
<polygon fill="#dce9f7" stroke="#4a90d9" points="1290.5,-52 1219.5,-52 1219.5,-16 1290.5,-16 1290.5,-52"/>
<text text-anchor="middle" x="1255" y="-31.5" font-family="Helvetica" font-size="10.00">ChompStyle</text>
</g>
<!-- L4YAML.Scanner.ScannerState.advance -->
<g id="node3" class="node">
<title>L4YAML.Scanner.ScannerState.advance</title>
<polygon fill="#dce9f7" stroke="#4a90d9" points="1423.5,-52 1308.5,-52 1308.5,-16 1423.5,-16 1423.5,-52"/>
<text text-anchor="middle" x="1366" y="-31.5" font-family="Helvetica" font-size="10.00">ScannerState.advance</text>
</g>
<!-- L4YAML.Scanner.ScannerState.peek? -->
<g id="node4" class="node">
<title>L4YAML.Scanner.ScannerState.peek?</title>
<polygon fill="#dce9f7" stroke="#4a90d9" points="914,-52 810,-52 810,-16 914,-16 914,-52"/>
<text text-anchor="middle" x="862" y="-31.5" font-family="Helvetica" font-size="10.00">ScannerState.peek?</text>
</g>
<!-- L4YAML.Scanner.ScannerState -->
<g id="node5" class="node">
<title>L4YAML.Scanner.ScannerState</title>
<polygon fill="#dce9f7" stroke="#4a90d9" points="1518,-52 1442,-52 1442,-16 1518,-16 1518,-52"/>
<text text-anchor="middle" x="1480" y="-31.5" font-family="Helvetica" font-size="10.00">ScannerState</text>
</g>
<!-- L4YAML.Scanner.parseBlockHeaderLoop -->
<g id="node6" class="node">
<title>L4YAML.Scanner.parseBlockHeaderLoop</title>
<polygon fill="#dce9f7" stroke="#4a90d9" points="1037.5,-133 918.5,-133 918.5,-97 1037.5,-97 1037.5,-133"/>
<text text-anchor="middle" x="978" y="-112.5" font-family="Helvetica" font-size="10.00">parseBlockHeaderLoop</text>
</g>
<!-- L4YAML.Scanner.parseBlockHeaderLoop&#45;&gt;L4YAML.Scanner.parseBlockHeaderLoop.match_1 -->
<g id="edge14" class="edge">
<title>L4YAML.Scanner.parseBlockHeaderLoop&#45;&gt;L4YAML.Scanner.parseBlockHeaderLoop.match_1</title>
<path fill="none" stroke="#4a90d9" stroke-width="2" d="M1009.25,-96.86C1031.32,-84.75 1061.02,-68.45 1084.4,-55.63"/>
<polygon fill="#4a90d9" stroke="#4a90d9" stroke-width="2" points="1085.86,-57.62 1090.82,-52.11 1083.5,-53.33 1085.86,-57.62"/>
<text text-anchor="middle" x="1063.5" y="-72.6" font-family="Times-Roman" font-size="8.00">calls</text>
</g>
<!-- L4YAML.Scanner.parseBlockHeaderLoop&#45;&gt;L4YAML.ChompStyle -->
<g id="edge19" class="edge">
<title>L4YAML.Scanner.parseBlockHeaderLoop&#45;&gt;L4YAML.ChompStyle</title>
<path fill="none" stroke="#4a90d9" stroke-width="2" d="M1037.9,-99.96C1085.27,-88.41 1152.88,-70.9 1211,-52 1211.41,-51.87 1211.83,-51.73 1212.25,-51.59"/>
<polygon fill="#4a90d9" stroke="#4a90d9" stroke-width="2" points="1213.27,-53.83 1219.1,-49.24 1211.68,-49.2 1213.27,-53.83"/>
<text text-anchor="middle" x="1156.5" y="-72.6" font-family="Times-Roman" font-size="8.00">calls</text>
</g>
<!-- L4YAML.Scanner.parseBlockHeaderLoop&#45;&gt;L4YAML.Scanner.ScannerState.advance -->
<g id="edge2" class="edge">
<title>L4YAML.Scanner.parseBlockHeaderLoop&#45;&gt;L4YAML.Scanner.ScannerState.advance</title>
<path fill="none" stroke="#4a90d9" stroke-width="2" d="M1037.74,-98.95C1053.38,-95.34 1070.26,-91.75 1086,-89 1123.04,-82.53 1132.89,-85.05 1170,-79 1228.24,-69.5 1242.52,-65.36 1300,-52 1300.52,-51.88 1301.04,-51.76 1301.56,-51.64"/>
<polygon fill="#4a90d9" stroke="#4a90d9" stroke-width="2" points="1302.2,-54 1308.45,-50 1301.07,-49.23 1302.2,-54"/>
<text text-anchor="middle" x="1228.5" y="-72.6" font-family="Times-Roman" font-size="8.00">calls</text>
</g>
<!-- L4YAML.Scanner.parseBlockHeaderLoop&#45;&gt;L4YAML.Scanner.ScannerState.peek? -->
<g id="edge12" class="edge">
<title>L4YAML.Scanner.parseBlockHeaderLoop&#45;&gt;L4YAML.Scanner.ScannerState.peek?</title>
<path fill="none" stroke="#4a90d9" stroke-width="2" d="M952.83,-96.86C935.35,-84.95 911.94,-69.01 893.26,-56.29"/>
<polygon fill="#4a90d9" stroke="#4a90d9" stroke-width="2" points="894.29,-54.02 887.12,-52.11 891.53,-58.07 894.29,-54.02"/>
<text text-anchor="middle" x="932.5" y="-72.6" font-family="Times-Roman" font-size="8.00">calls</text>
</g>
<!-- L4YAML.Scanner.parseBlockHeaderLoop&#45;&gt;L4YAML.Scanner.ScannerState -->
<g id="edge18" class="edge">
<title>L4YAML.Scanner.parseBlockHeaderLoop&#45;&gt;L4YAML.Scanner.ScannerState</title>
<path fill="none" stroke="#4a90d9" stroke-width="2" d="M1037.65,-98.36C1053.29,-94.76 1070.2,-91.32 1086,-89 1154.74,-78.91 1172.89,-86.09 1242,-79 1327.29,-70.25 1349.8,-72.69 1433,-52 1433.74,-51.82 1434.48,-51.63 1435.22,-51.43"/>
<polygon fill="#4a90d9" stroke="#4a90d9" stroke-width="2" points="1435.93,-53.78 1441.98,-49.49 1434.58,-49.06 1435.93,-53.78"/>
<text text-anchor="middle" x="1344.5" y="-72.6" font-family="Times-Roman" font-size="8.00">calls</text>
</g>
<!-- L4YAML.Scanner.ScannerState.peekAt?Loop.match_1 -->
<g id="node7" class="node">
<title>L4YAML.Scanner.ScannerState.peekAt?Loop.match_1</title>
<polygon fill="#dce9f7" stroke="#4a90d9" points="680,-52 504,-52 504,-16 680,-16 680,-52"/>
<text text-anchor="middle" x="592" y="-31.5" font-family="Helvetica" font-size="10.00">ScannerState.peekAt?Loop.match_1</text>
</g>
<!-- L4YAML.Scanner.parseBlockHeaderLoop&#45;&gt;L4YAML.Scanner.ScannerState.peekAt?Loop.match_1 -->
<g id="edge21" class="edge">
<title>L4YAML.Scanner.parseBlockHeaderLoop&#45;&gt;L4YAML.Scanner.ScannerState.peekAt?Loop.match_1</title>
<path fill="none" stroke="#4a90d9" stroke-width="2" d="M918.11,-101.74C855.03,-88.83 754.96,-68.35 682.3,-53.48"/>
<polygon fill="#4a90d9" stroke="#4a90d9" stroke-width="2" points="682.7,-51.06 675.35,-52.06 681.72,-55.86 682.7,-51.06"/>
<text text-anchor="middle" x="805.5" y="-72.6" font-family="Times-Roman" font-size="8.00">calls</text>
</g>
<!-- L4YAML.ChompStyle.keep -->
<g id="node8" class="node">
<title>L4YAML.ChompStyle.keep</title>
<polygon fill="#dce9f7" stroke="#4a90d9" points="792,-52 698,-52 698,-16 792,-16 792,-52"/>
<text text-anchor="middle" x="745" y="-31.5" font-family="Helvetica" font-size="10.00">ChompStyle.keep</text>
</g>
<!-- L4YAML.Scanner.parseBlockHeaderLoop&#45;&gt;L4YAML.ChompStyle.keep -->
<g id="edge16" class="edge">
<title>L4YAML.Scanner.parseBlockHeaderLoop&#45;&gt;L4YAML.ChompStyle.keep</title>
<path fill="none" stroke="#4a90d9" stroke-width="2" d="M927.73,-96.96C889.82,-84.1 837.9,-66.5 799.09,-53.34"/>
<polygon fill="#4a90d9" stroke="#4a90d9" stroke-width="2" points="799.42,-50.87 792.01,-50.94 797.85,-55.51 799.42,-50.87"/>
<text text-anchor="middle" x="877.5" y="-72.6" font-family="Times-Roman" font-size="8.00">calls</text>
</g>
<!-- L4YAML.ChompStyle.strip -->
<g id="node10" class="node">
<title>L4YAML.ChompStyle.strip</title>
<polygon fill="#dce9f7" stroke="#4a90d9" points="1024,-52 932,-52 932,-16 1024,-16 1024,-52"/>
<text text-anchor="middle" x="978" y="-31.5" font-family="Helvetica" font-size="10.00">ChompStyle.strip</text>
</g>
<!-- L4YAML.Scanner.parseBlockHeaderLoop&#45;&gt;L4YAML.ChompStyle.strip -->
<g id="edge10" class="edge">
<title>L4YAML.Scanner.parseBlockHeaderLoop&#45;&gt;L4YAML.ChompStyle.strip</title>
<path fill="none" stroke="#4a90d9" stroke-width="2" d="M978,-96.86C978,-85.88 978,-71.48 978,-59.33"/>
<polygon fill="#4a90d9" stroke="#4a90d9" stroke-width="2" points="980.45,-59.11 978,-52.11 975.55,-59.11 980.45,-59.11"/>
<text text-anchor="middle" x="987.5" y="-72.6" font-family="Times-Roman" font-size="8.00">calls</text>
</g>
<!-- L4YAML.Scanner.ScannerState.tokens -->
<g id="node9" class="node">
<title>L4YAML.Scanner.ScannerState.tokens</title>
<polygon fill="#dce9f7" stroke="#4a90d9" points="1201.5,-133 1094.5,-133 1094.5,-97 1201.5,-97 1201.5,-133"/>
<text text-anchor="middle" x="1148" y="-112.5" font-family="Helvetica" font-size="10.00">ScannerState.tokens</text>
</g>
<!-- L4YAML.Scanner.ScannerState.tokens&#45;&gt;L4YAML.Scanner.ScannerState -->
<g id="edge6" class="edge">
<title>L4YAML.Scanner.ScannerState.tokens&#45;&gt;L4YAML.Scanner.ScannerState</title>
<path fill="none" stroke="#4a90d9" stroke-width="2" d="M1201.75,-113.6C1256.07,-111.65 1341.66,-104.31 1411,-79 1425.8,-73.6 1440.72,-64.63 1452.88,-56.18"/>
<polygon fill="#4a90d9" stroke="#4a90d9" stroke-width="2" points="1454.33,-58.16 1458.62,-52.1 1451.49,-54.16 1454.33,-58.16"/>
<text text-anchor="middle" x="1438.5" y="-72.6" font-family="Times-Roman" font-size="8.00">calls</text>
</g>
<!-- L4YAML.Scanner.parseBlockHeaderLoop.eq_def -->
<g id="node11" class="node">
<title>L4YAML.Scanner.parseBlockHeaderLoop.eq_def</title>
<ellipse fill="#d4edda" stroke="#28a745" cx="105" cy="-115" rx="88.78" ry="18"/>
<text text-anchor="middle" x="105" y="-112.5" font-family="Helvetica" font-size="10.00">parseBlockHeaderLoop.eq_def</text>
</g>
<!-- L4YAML.Scanner.parseBlockHeaderLoop.eq_def&#45;&gt;L4YAML.Scanner.parseBlockHeaderLoop.match_1 -->
<g id="edge15" class="edge">
<title>L4YAML.Scanner.parseBlockHeaderLoop.eq_def&#45;&gt;L4YAML.Scanner.parseBlockHeaderLoop.match_1</title>
<path fill="none" stroke="#999999" stroke-dasharray="1,5" d="M153.5,-99.89C169.18,-95.8 186.72,-91.71 203,-89 257.98,-79.86 273.6,-91.12 328,-79 339.12,-76.52 340.82,-72.18 352,-70 500.59,-41.02 882.49,-68.25 1033,-52 1033.65,-51.93 1034.3,-51.86 1034.96,-51.78"/>
<polygon fill="#999999" stroke="#999999" points="1035.39,-54.2 1042.04,-50.91 1034.79,-49.33 1035.39,-54.2"/>
<text text-anchor="middle" x="364.5" y="-72.6" font-family="Times-Roman" font-size="8.00">about</text>
</g>
<!-- L4YAML.Scanner.parseBlockHeaderLoop.eq_def&#45;&gt;L4YAML.ChompStyle -->
<g id="edge20" class="edge">
<title>L4YAML.Scanner.parseBlockHeaderLoop.eq_def&#45;&gt;L4YAML.ChompStyle</title>
<path fill="none" stroke="#999999" stroke-dasharray="1,5" d="M152.97,-99.8C168.77,-95.65 186.52,-91.55 203,-89 279.55,-77.15 301.33,-95.54 377,-79 387.72,-76.66 389.24,-72.15 400,-70 576.76,-34.61 1034.17,-87.01 1211,-52 1211.43,-51.92 1211.85,-51.83 1212.28,-51.74"/>
<polygon fill="#999999" stroke="#999999" points="1213.1,-54.06 1219.28,-49.96 1211.9,-49.31 1213.1,-54.06"/>
<text text-anchor="middle" x="412.5" y="-72.6" font-family="Times-Roman" font-size="8.00">about</text>
</g>
<!-- L4YAML.Scanner.parseBlockHeaderLoop.eq_def&#45;&gt;L4YAML.Scanner.ScannerState.peek? -->
<g id="edge13" class="edge">
<title>L4YAML.Scanner.parseBlockHeaderLoop.eq_def&#45;&gt;L4YAML.Scanner.ScannerState.peek?</title>
<path fill="none" stroke="#999999" stroke-dasharray="1,5" d="M155.64,-100.13C177.65,-93.94 203.68,-86.38 227,-79 238.66,-75.31 240.98,-72.23 253,-70 492.62,-25.64 560.13,-88.97 801,-52 801.64,-51.9 802.29,-51.8 802.93,-51.69"/>
<polygon fill="#999999" stroke="#999999" points="803.5,-54.08 809.94,-50.39 802.61,-49.26 803.5,-54.08"/>
<text text-anchor="middle" x="265.5" y="-72.6" font-family="Times-Roman" font-size="8.00">about</text>
</g>
<!-- L4YAML.Scanner.parseBlockHeaderLoop.eq_def&#45;&gt;L4YAML.Scanner.ScannerState -->
<g id="edge8" class="edge">
<title>L4YAML.Scanner.parseBlockHeaderLoop.eq_def&#45;&gt;L4YAML.Scanner.ScannerState</title>
<path fill="none" stroke="#999999" stroke-dasharray="1,5" d="M152.95,-99.68C168.75,-95.52 186.5,-91.45 203,-89 300.7,-74.49 329.15,-102.83 425,-79 434.07,-76.75 434.9,-72.13 444,-70 551.01,-44.91 1324.92,-71.96 1433,-52 1433.63,-51.88 1434.27,-51.76 1434.91,-51.63"/>
<polygon fill="#999999" stroke="#999999" points="1435.58,-53.99 1441.81,-49.97 1434.43,-49.22 1435.58,-53.99"/>
<text text-anchor="middle" x="456.5" y="-72.6" font-family="Times-Roman" font-size="8.00">about</text>
</g>
<!-- L4YAML.Scanner.parseBlockHeaderLoop.eq_def&#45;&gt;L4YAML.Scanner.ScannerState.peekAt?Loop.match_1 -->
<g id="edge22" class="edge">
<title>L4YAML.Scanner.parseBlockHeaderLoop.eq_def&#45;&gt;L4YAML.Scanner.ScannerState.peekAt?Loop.match_1</title>
<path fill="none" stroke="#999999" stroke-dasharray="1,5" d="M116.5,-96.8C123.96,-87.15 134.6,-75.89 147,-70 206.76,-41.61 384.77,-35.52 496.71,-34.61"/>
<polygon fill="#999999" stroke="#999999" points="497,-37.06 503.98,-34.56 496.96,-32.16 497,-37.06"/>
<text text-anchor="middle" x="159.5" y="-72.6" font-family="Times-Roman" font-size="8.00">about</text>
</g>
<!-- L4YAML.Scanner.parseBlockHeaderLoop.eq_def&#45;&gt;L4YAML.ChompStyle.keep -->
<g id="edge17" class="edge">
<title>L4YAML.Scanner.parseBlockHeaderLoop.eq_def&#45;&gt;L4YAML.ChompStyle.keep</title>
<path fill="none" stroke="#999999" stroke-dasharray="1,5" d="M132.82,-97.86C151.68,-87.83 177.52,-75.77 202,-70 307.41,-45.16 582.19,-69.88 689,-52 689.64,-51.89 690.27,-51.78 690.92,-51.67"/>
<polygon fill="#999999" stroke="#999999" points="691.48,-54.05 697.85,-50.25 690.5,-49.25 691.48,-54.05"/>
<text text-anchor="middle" x="214.5" y="-72.6" font-family="Times-Roman" font-size="8.00">about</text>
</g>
<!-- L4YAML.Scanner.parseBlockHeaderLoop.eq_def&#45;&gt;L4YAML.ChompStyle.strip -->
<g id="edge11" class="edge">
<title>L4YAML.Scanner.parseBlockHeaderLoop.eq_def&#45;&gt;L4YAML.ChompStyle.strip</title>
<path fill="none" stroke="#999999" stroke-dasharray="1,5" d="M154.85,-100.08C170.21,-96.12 187.23,-92.05 203,-89 236.02,-82.61 245.33,-86.96 278,-79 289.47,-76.2 291.4,-72.2 303,-70 438.43,-44.34 787.02,-74.56 923,-52 923.54,-51.91 924.07,-51.82 924.61,-51.72"/>
<polygon fill="#999999" stroke="#999999" points="925.33,-54.08 931.7,-50.28 924.35,-49.27 925.33,-54.08"/>
<text text-anchor="middle" x="315.5" y="-72.6" font-family="Times-Roman" font-size="8.00">about</text>
</g>
<!-- L4YAML.Proofs.ScannerCorrectness.ScanHelpers.parseBlockHeaderLoop_preserves_tokens -->
<g id="node12" class="node">
<title>L4YAML.Proofs.ScannerCorrectness.ScanHelpers.parseBlockHeaderLoop_preserves_tokens</title>
<polygon fill="#fff3cd" stroke="#d4a017" points="475.84,-212.54 475.84,-227.46 344.13,-238 157.87,-238 26.16,-227.46 26.16,-212.54 157.87,-202 344.13,-202 475.84,-212.54"/>
<polygon fill="none" stroke="#d4a017" points="479.84,-208.85 479.84,-231.15 344.29,-242 157.71,-242 22.16,-231.15 22.16,-208.85 157.71,-198 344.29,-198 479.84,-208.85"/>
<text text-anchor="middle" x="251" y="-217.5" font-family="Helvetica" font-size="10.00">ScannerCorrectness.ScanHelpers.parseBlockHeaderLoop_preserves_tokens</text>
</g>
<!-- L4YAML.Proofs.ScannerCorrectness.ScanHelpers.parseBlockHeaderLoop_preserves_tokens&#45;&gt;L4YAML.Scanner.parseBlockHeaderLoop -->
<g id="edge1" class="edge">
<title>L4YAML.Proofs.ScannerCorrectness.ScanHelpers.parseBlockHeaderLoop_preserves_tokens&#45;&gt;L4YAML.Scanner.parseBlockHeaderLoop</title>
<path fill="none" stroke="#999999" stroke-dasharray="1,5" d="M379.72,-200.76C535.26,-178.73 791.07,-142.48 911.44,-125.43"/>
<polygon fill="#999999" stroke="#999999" points="911.89,-127.84 918.47,-124.43 911.2,-122.99 911.89,-127.84"/>
<text text-anchor="middle" x="582.5" y="-173.6" font-family="Times-Roman" font-size="8.00">about</text>
</g>
<!-- L4YAML.Proofs.ScannerCorrectness.ScanHelpers.parseBlockHeaderLoop_preserves_tokens&#45;&gt;L4YAML.Scanner.ScannerState.tokens -->
<g id="edge5" class="edge">
<title>L4YAML.Proofs.ScannerCorrectness.ScanHelpers.parseBlockHeaderLoop_preserves_tokens&#45;&gt;L4YAML.Scanner.ScannerState.tokens</title>
<path fill="none" stroke="#999999" stroke-dasharray="1,5" d="M480.21,-212.13C676.64,-204.53 943.72,-189.69 1047,-163 1069.51,-157.18 1093.16,-146.46 1111.91,-136.73"/>
<polygon fill="#999999" stroke="#999999" points="1113.54,-138.64 1118.58,-133.2 1111.25,-134.3 1113.54,-138.64"/>
<text text-anchor="middle" x="1009.5" y="-173.6" font-family="Times-Roman" font-size="8.00">about</text>
</g>
<!-- L4YAML.Proofs.ScannerCorrectness.ScanHelpers.parseBlockHeaderLoop_preserves_tokens&#45;&gt;L4YAML.Scanner.parseBlockHeaderLoop.eq_def -->
<g id="edge7" class="edge">
<title>L4YAML.Proofs.ScannerCorrectness.ScanHelpers.parseBlockHeaderLoop_preserves_tokens&#45;&gt;L4YAML.Scanner.parseBlockHeaderLoop.eq_def</title>
<path fill="none" stroke="#28a745" stroke-width="2" d="M221.1,-197.91C195.77,-180.04 159.65,-154.55 134.44,-136.77"/>
<polygon fill="#28a745" stroke="#28a745" stroke-width="2" points="135.74,-134.69 128.6,-132.65 132.91,-138.69 135.74,-134.69"/>
<text text-anchor="middle" x="205" y="-173.6" font-family="Times-Roman" font-size="8.00">uses</text>
</g>
<!-- L4YAML.Proofs.ScannerCorrectness.advance_preserves_tokens -->
<g id="node13" class="node">
<title>L4YAML.Proofs.ScannerCorrectness.advance_preserves_tokens</title>
<ellipse fill="#d4edda" stroke="#28a745" cx="346" cy="-115" rx="133.75" ry="18"/>
<text text-anchor="middle" x="346" y="-112.5" font-family="Helvetica" font-size="10.00">ScannerCorrectness.advance_preserves_tokens</text>
</g>
<!-- L4YAML.Proofs.ScannerCorrectness.ScanHelpers.parseBlockHeaderLoop_preserves_tokens&#45;&gt;L4YAML.Proofs.ScannerCorrectness.advance_preserves_tokens -->
<g id="edge3" class="edge">
<title>L4YAML.Proofs.ScannerCorrectness.ScanHelpers.parseBlockHeaderLoop_preserves_tokens&#45;&gt;L4YAML.Proofs.ScannerCorrectness.advance_preserves_tokens</title>
<path fill="none" stroke="#28a745" stroke-width="2" d="M270.68,-197.66C286.74,-180.25 309.34,-155.74 325.59,-138.13"/>
<polygon fill="#28a745" stroke="#28a745" stroke-width="2" points="327.47,-139.7 330.42,-132.89 323.87,-136.38 327.47,-139.7"/>
<text text-anchor="middle" x="302" y="-173.6" font-family="Times-Roman" font-size="8.00">uses</text>
</g>
<!-- L4YAML.Proofs.ScannerCorrectness.advance_preserves_tokens&#45;&gt;L4YAML.Scanner.ScannerState.advance -->
<g id="edge4" class="edge">
<title>L4YAML.Proofs.ScannerCorrectness.advance_preserves_tokens&#45;&gt;L4YAML.Scanner.ScannerState.advance</title>
<path fill="none" stroke="#999999" stroke-dasharray="1,5" d="M405.83,-98.89C427.17,-93.13 451.3,-86.21 473,-79 483.42,-75.54 485.24,-72.16 496,-70 671.23,-34.9 1122.97,-76.45 1300,-52 1300.42,-51.94 1300.84,-51.88 1301.27,-51.82"/>
<polygon fill="#999999" stroke="#999999" points="1301.69,-54.23 1308.2,-50.69 1300.9,-49.4 1301.69,-54.23"/>
<text text-anchor="middle" x="508.5" y="-72.6" font-family="Times-Roman" font-size="8.00">about</text>
</g>
<!-- L4YAML.Proofs.ScannerCorrectness.advance_preserves_tokens&#45;&gt;L4YAML.Scanner.ScannerState -->
<g id="edge9" class="edge">
<title>L4YAML.Proofs.ScannerCorrectness.advance_preserves_tokens&#45;&gt;L4YAML.Scanner.ScannerState</title>
<path fill="none" stroke="#999999" stroke-dasharray="1,5" d="M420.07,-99.92C443.06,-95.93 468.52,-91.89 492,-89 603.48,-75.28 631.83,-75.69 744,-70 896.97,-62.24 1282.5,-80.41 1433,-52 1433.63,-51.88 1434.27,-51.75 1434.91,-51.62"/>
<polygon fill="#999999" stroke="#999999" points="1435.58,-53.98 1441.81,-49.95 1434.43,-49.22 1435.58,-53.98"/>
<text text-anchor="middle" x="756.5" y="-72.6" font-family="Times-Roman" font-size="8.00">about</text>
</g>
</g>
</svg>
