<?xml version="1.0" encoding="UTF-8" standalone="no"?>
<!DOCTYPE svg PUBLIC "-//W3C//DTD SVG 1.1//EN"
 "http://www.w3.org/Graphics/SVG/1.1/DTD/svg11.dtd">
<!-- Generated by graphviz version 2.44.0 (0)
 -->
<!-- Title: chain_ScannerCorrectness.unwindIndents_preserves_prefix Pages: 1 -->
<svg width="2166pt" height="432pt"
 viewBox="0.00 0.00 2166.00 432.00" xmlns="http://www.w3.org/2000/svg" xmlns:xlink="http://www.w3.org/1999/xlink">
<g id="graph0" class="graph" transform="scale(1 1) rotate(0) translate(4 428)">
<title>chain_ScannerCorrectness.unwindIndents_preserves_prefix</title>
<polygon fill="white" stroke="transparent" points="-4,4 -4,-428 2162,-428 2162,4 -4,4"/>
<text text-anchor="middle" x="1079" y="-409.6" font-family="Helvetica Bold" font-size="13.00">Functorial Chains: ScannerCorrectness.unwindIndents_preserves_prefix</text>
<text text-anchor="middle" x="1079" y="-395.6" font-family="Helvetica Bold" font-size="13.00">(heuristic: used by 9 proofs)</text>
<g id="clust1" class="cluster">
<title>cluster_fns</title>
<polygon fill="none" stroke="#4a90d9" stroke-dasharray="5,2" points="8,-8 8,-271 236,-271 236,-8 8,-8"/>
<text text-anchor="middle" x="122" y="-256.6" font-family="Helvetica Bold" font-size="13.00" fill="#4a90d9">Functions (Call Chain)</text>
</g>
<g id="clust2" class="cluster">
<title>cluster_thms</title>
<polygon fill="none" stroke="#28a745" stroke-dasharray="5,2" points="299,-89 299,-380 2080,-380 2080,-89 299,-89"/>
<text text-anchor="middle" x="1189.5" y="-365.6" font-family="Helvetica Bold" font-size="13.00" fill="#28a745">Theorems (Proof Chain)</text>
</g>
<!-- L4YAML.Scanner.ScannerState -->
<g id="node1" class="node">
<title>L4YAML.Scanner.ScannerState</title>
<polygon fill="#dce9f7" stroke="#4a90d9" points="228,-52 152,-52 152,-16 228,-16 228,-52"/>
<text text-anchor="middle" x="190" y="-31.5" font-family="Helvetica" font-size="10.00">ScannerState</text>
</g>
<!-- L4YAML.Scanner.unwindIndents -->
<g id="node2" class="node">
<title>L4YAML.Scanner.unwindIndents</title>
<polygon fill="#dce9f7" stroke="#4a90d9" points="136,-241 56,-241 56,-205 136,-205 136,-241"/>
<text text-anchor="middle" x="96" y="-220.5" font-family="Helvetica" font-size="10.00">unwindIndents</text>
</g>
<!-- L4YAML.Scanner.unwindIndents&#45;&gt;L4YAML.Scanner.ScannerState -->
<g id="edge18" class="edge">
<title>L4YAML.Scanner.unwindIndents&#45;&gt;L4YAML.Scanner.ScannerState</title>
<path fill="none" stroke="#4a90d9" stroke-width="2" d="M79.18,-204.82C55.24,-178.24 16.97,-126.3 43,-89 65.74,-56.43 110.4,-43.44 144.56,-38.3"/>
<polygon fill="#4a90d9" stroke="#4a90d9" stroke-width="2" points="145.08,-40.7 151.68,-37.32 144.41,-35.85 145.08,-40.7"/>
<text text-anchor="middle" x="52.5" y="-113.1" font-family="Times-Roman" font-size="8.00">calls</text>
</g>
<!-- L4YAML.Scanner.unwindIndentsLoop -->
<g id="node4" class="node">
<title>L4YAML.Scanner.unwindIndentsLoop</title>
<polygon fill="#dce9f7" stroke="#4a90d9" points="172.5,-133 71.5,-133 71.5,-97 172.5,-97 172.5,-133"/>
<text text-anchor="middle" x="122" y="-112.5" font-family="Helvetica" font-size="10.00">unwindIndentsLoop</text>
</g>
<!-- L4YAML.Scanner.unwindIndents&#45;&gt;L4YAML.Scanner.unwindIndentsLoop -->
<g id="edge2" class="edge">
<title>L4YAML.Scanner.unwindIndents&#45;&gt;L4YAML.Scanner.unwindIndentsLoop</title>
<path fill="none" stroke="#4a90d9" stroke-width="2" d="M91.27,-204.79C88.09,-190.04 85.53,-168.48 92,-151 93.57,-146.76 95.9,-142.69 98.59,-138.92"/>
<polygon fill="#4a90d9" stroke="#4a90d9" stroke-width="2" points="100.64,-140.28 103.04,-133.26 96.79,-137.25 100.64,-140.28"/>
<text text-anchor="middle" x="101.5" y="-167.1" font-family="Times-Roman" font-size="8.00">calls</text>
</g>
<!-- L4YAML.Scanner.ScannerState.tokens -->
<g id="node3" class="node">
<title>L4YAML.Scanner.ScannerState.tokens</title>
<polygon fill="#dce9f7" stroke="#4a90d9" points="227.5,-187 120.5,-187 120.5,-151 227.5,-151 227.5,-187"/>
<text text-anchor="middle" x="174" y="-166.5" font-family="Helvetica" font-size="10.00">ScannerState.tokens</text>
</g>
<!-- L4YAML.Scanner.ScannerState.tokens&#45;&gt;L4YAML.Scanner.ScannerState -->
<g id="edge22" class="edge">
<title>L4YAML.Scanner.ScannerState.tokens&#45;&gt;L4YAML.Scanner.ScannerState</title>
<path fill="none" stroke="#4a90d9" stroke-width="2" d="M178.48,-150.65C179.79,-145.05 181.11,-138.79 182,-133 185.85,-108.02 187.93,-79.15 188.99,-59.24"/>
<polygon fill="#4a90d9" stroke="#4a90d9" stroke-width="2" points="191.44,-59.2 189.35,-52.08 186.55,-58.95 191.44,-59.2"/>
<text text-anchor="middle" x="195.5" y="-113.1" font-family="Times-Roman" font-size="8.00">calls</text>
</g>
<!-- L4YAML.Scanner.unwindIndentsLoop&#45;&gt;L4YAML.Scanner.ScannerState -->
<g id="edge5" class="edge">
<title>L4YAML.Scanner.unwindIndentsLoop&#45;&gt;L4YAML.Scanner.ScannerState</title>
<path fill="none" stroke="#4a90d9" stroke-width="2" d="M136.75,-96.86C146.65,-85.37 159.78,-70.11 170.52,-57.63"/>
<polygon fill="#4a90d9" stroke="#4a90d9" stroke-width="2" points="172.56,-59.01 175.27,-52.11 168.85,-55.82 172.56,-59.01"/>
<text text-anchor="middle" x="167.5" y="-72.6" font-family="Times-Roman" font-size="8.00">calls</text>
</g>
<!-- L4YAML.Proofs.ScannerProofs.emit_tokens_size -->
<g id="node5" class="node">
<title>L4YAML.Proofs.ScannerProofs.emit_tokens_size</title>
<ellipse fill="#d4edda" stroke="#28a745" cx="401" cy="-115" rx="93.69" ry="18"/>
<text text-anchor="middle" x="401" y="-112.5" font-family="Helvetica" font-size="10.00">ScannerProofs.emit_tokens_size</text>
</g>
<!-- L4YAML.Proofs.ScannerProofs.emit_tokens_size&#45;&gt;L4YAML.Scanner.ScannerState -->
<g id="edge17" class="edge">
<title>L4YAML.Proofs.ScannerProofs.emit_tokens_size&#45;&gt;L4YAML.Scanner.ScannerState</title>
<path fill="none" stroke="#999999" stroke-dasharray="1,5" d="M360.32,-98.77C324.35,-85.3 271.98,-65.7 234.83,-51.78"/>
<polygon fill="#999999" stroke="#999999" points="235.49,-49.41 228.07,-49.25 233.77,-54 235.49,-49.41"/>
<text text-anchor="middle" x="313.5" y="-72.6" font-family="Times-Roman" font-size="8.00">about</text>
</g>
<!-- L4YAML.Proofs.ScannerCorrectness.unwindIndentsLoop_preserves_prefix._proof_1 -->
<g id="node6" class="node">
<title>L4YAML.Proofs.ScannerCorrectness.unwindIndentsLoop_preserves_prefix._proof_1</title>
<ellipse fill="#d4edda" stroke="#28a745" cx="695" cy="-115" rx="182.47" ry="18"/>
<text text-anchor="middle" x="695" y="-112.5" font-family="Helvetica" font-size="10.00">ScannerCorrectness.unwindIndentsLoop_preserves_prefix._proof_1</text>
</g>
<!-- L4YAML.Proofs.ScannerCorrectness.unwindIndentsLoop_preserves_prefix._proof_1&#45;&gt;L4YAML.Scanner.ScannerState -->
<g id="edge13" class="edge">
<title>L4YAML.Proofs.ScannerCorrectness.unwindIndentsLoop_preserves_prefix._proof_1&#45;&gt;L4YAML.Scanner.ScannerState</title>
<path fill="none" stroke="#999999" stroke-dasharray="1,5" d="M602.08,-99.46C493.41,-82.46 317.91,-55.01 235.49,-42.12"/>
<polygon fill="#999999" stroke="#999999" points="235.59,-39.65 228.29,-40.99 234.83,-44.49 235.59,-39.65"/>
<text text-anchor="middle" x="469.5" y="-72.6" font-family="Times-Roman" font-size="8.00">about</text>
</g>
<!-- L4YAML.Proofs.ScannerCorrectness.unwindIndents_preserves_prefix._proof_1 -->
<g id="node7" class="node">
<title>L4YAML.Proofs.ScannerCorrectness.unwindIndents_preserves_prefix._proof_1</title>
<ellipse fill="#d4edda" stroke="#28a745" cx="477" cy="-169" rx="170.25" ry="18"/>
<text text-anchor="middle" x="477" y="-166.5" font-family="Helvetica" font-size="10.00">ScannerCorrectness.unwindIndents_preserves_prefix._proof_1</text>
</g>
<!-- L4YAML.Proofs.ScannerCorrectness.unwindIndents_preserves_prefix._proof_1&#45;&gt;L4YAML.Scanner.ScannerState -->
<g id="edge20" class="edge">
<title>L4YAML.Proofs.ScannerCorrectness.unwindIndents_preserves_prefix._proof_1&#45;&gt;L4YAML.Scanner.ScannerState</title>
<path fill="none" stroke="#999999" stroke-dasharray="1,5" d="M364.08,-155.48C326.11,-149.82 289.26,-142.29 273,-133 241.85,-115.21 217.08,-81.08 202.96,-58.17"/>
<polygon fill="#999999" stroke="#999999" points="204.98,-56.76 199.27,-52.03 200.78,-59.29 204.98,-56.76"/>
<text text-anchor="middle" x="285.5" y="-113.1" font-family="Times-Roman" font-size="8.00">about</text>
</g>
<!-- L4YAML.Proofs.ScannerCorrectness.unwindIndentsLoop_tokens_monotonic -->
<g id="node8" class="node">
<title>L4YAML.Proofs.ScannerCorrectness.unwindIndentsLoop_tokens_monotonic</title>
<ellipse fill="#d4edda" stroke="#28a745" cx="1059" cy="-115" rx="163.12" ry="18"/>
<text text-anchor="middle" x="1059" y="-112.5" font-family="Helvetica" font-size="10.00">ScannerCorrectness.unwindIndentsLoop_tokens_monotonic</text>
</g>
<!-- L4YAML.Proofs.ScannerCorrectness.unwindIndentsLoop_tokens_monotonic&#45;&gt;L4YAML.Scanner.ScannerState -->
<g id="edge7" class="edge">
<title>L4YAML.Proofs.ScannerCorrectness.unwindIndentsLoop_tokens_monotonic&#45;&gt;L4YAML.Scanner.ScannerState</title>
<path fill="none" stroke="#999999" stroke-dasharray="1,5" d="M969.35,-99.9C942.59,-95.99 913.15,-92.01 886,-89 641.13,-61.84 346.27,-43.76 235.23,-37.47"/>
<polygon fill="#999999" stroke="#999999" points="235.31,-35.02 228.18,-37.07 235.03,-39.91 235.31,-35.02"/>
<text text-anchor="middle" x="784.5" y="-72.6" font-family="Times-Roman" font-size="8.00">about</text>
</g>
<!-- L4YAML.Proofs.ScannerCorrectness.unwindIndents_adds_tokens -->
<g id="node9" class="node">
<title>L4YAML.Proofs.ScannerCorrectness.unwindIndents_adds_tokens</title>
<ellipse fill="#d4edda" stroke="#28a745" cx="1784" cy="-169" rx="136.64" ry="18"/>
<text text-anchor="middle" x="1784" y="-166.5" font-family="Helvetica" font-size="10.00">ScannerCorrectness.unwindIndents_adds_tokens</text>
</g>
<!-- L4YAML.Proofs.ScannerCorrectness.unwindIndents_adds_tokens&#45;&gt;L4YAML.Scanner.ScannerState -->
<g id="edge25" class="edge">
<title>L4YAML.Proofs.ScannerCorrectness.unwindIndents_adds_tokens&#45;&gt;L4YAML.Scanner.ScannerState</title>
<path fill="none" stroke="#999999" stroke-dasharray="1,5" d="M1907.13,-161.11C1983.41,-155.54 2069.08,-146.41 2081,-133 2093.99,-118.39 2094.48,-103.17 2081,-89 2048.16,-54.49 520.9,-38.17 235.63,-35.42"/>
<polygon fill="#999999" stroke="#999999" points="235.36,-32.97 228.34,-35.35 235.31,-37.87 235.36,-32.97"/>
<text text-anchor="middle" x="2102.5" y="-113.1" font-family="Times-Roman" font-size="8.00">about</text>
</g>
<!-- L4YAML.Scanner.unwindIndentsLoop.eq_def -->
<g id="node10" class="node">
<title>L4YAML.Scanner.unwindIndentsLoop.eq_def</title>
<ellipse fill="#d4edda" stroke="#28a745" cx="1318" cy="-115" rx="78.08" ry="18"/>
<text text-anchor="middle" x="1318" y="-112.5" font-family="Helvetica" font-size="10.00">unwindIndentsLoop.eq_def</text>
</g>
<!-- L4YAML.Scanner.unwindIndentsLoop.eq_def&#45;&gt;L4YAML.Scanner.ScannerState -->
<g id="edge9" class="edge">
<title>L4YAML.Scanner.unwindIndentsLoop.eq_def&#45;&gt;L4YAML.Scanner.ScannerState</title>
<path fill="none" stroke="#999999" stroke-dasharray="1,5" d="M1275.52,-99.7C1261.5,-95.54 1245.72,-91.46 1231,-89 1035.02,-56.2 409.28,-39.94 235.28,-35.98"/>
<polygon fill="#999999" stroke="#999999" points="235.11,-33.52 228.06,-35.81 235,-38.42 235.11,-33.52"/>
<text text-anchor="middle" x="1158.5" y="-72.6" font-family="Times-Roman" font-size="8.00">about</text>
</g>
<!-- L4YAML.Proofs.ScannerCorrectness.unwindIndentsLoop_preserves_prefix -->
<g id="node11" class="node">
<title>L4YAML.Proofs.ScannerCorrectness.unwindIndentsLoop_preserves_prefix</title>
<ellipse fill="#d4edda" stroke="#28a745" cx="1059" cy="-223" rx="158.88" ry="18"/>
<text text-anchor="middle" x="1059" y="-220.5" font-family="Helvetica" font-size="10.00">ScannerCorrectness.unwindIndentsLoop_preserves_prefix</text>
</g>
<!-- L4YAML.Proofs.ScannerCorrectness.unwindIndentsLoop_preserves_prefix&#45;&gt;L4YAML.Scanner.ScannerState -->
<g id="edge23" class="edge">
<title>L4YAML.Proofs.ScannerCorrectness.unwindIndentsLoop_preserves_prefix&#45;&gt;L4YAML.Scanner.ScannerState</title>
<path fill="none" stroke="#999999" stroke-dasharray="1,5" d="M1216.16,-220.17C1428.9,-216.91 1797.2,-208.33 1930,-187 2023.42,-172 2181.5,-160.04 2119,-89 2075.19,-39.21 2037.14,-74.88 1971,-70 1618.81,-44.01 477.54,-36.54 235.41,-35.23"/>
<polygon fill="#999999" stroke="#999999" points="235.19,-32.78 228.18,-35.19 235.16,-37.68 235.19,-32.78"/>
<text text-anchor="middle" x="2145.5" y="-113.1" font-family="Times-Roman" font-size="8.00">about</text>
</g>
<!-- L4YAML.Proofs.ScannerCorrectness.unwindIndentsLoop_preserves_prefix&#45;&gt;L4YAML.Scanner.unwindIndentsLoop -->
<g id="edge4" class="edge">
<title>L4YAML.Proofs.ScannerCorrectness.unwindIndentsLoop_preserves_prefix&#45;&gt;L4YAML.Scanner.unwindIndentsLoop</title>
<path fill="none" stroke="#999999" stroke-dasharray="1,5" d="M900.95,-221.07C687.9,-218.87 328.7,-211.54 273,-187 252.29,-177.88 256.4,-162.64 237,-151 231.58,-147.75 205.53,-139.73 179.59,-132.19"/>
<polygon fill="#999999" stroke="#999999" points="180.05,-129.78 172.65,-130.19 178.69,-134.48 180.05,-129.78"/>
<text text-anchor="middle" x="285.5" y="-167.1" font-family="Times-Roman" font-size="8.00">about</text>
</g>
<!-- L4YAML.Proofs.ScannerCorrectness.unwindIndentsLoop_preserves_prefix&#45;&gt;L4YAML.Proofs.ScannerProofs.emit_tokens_size -->
<g id="edge16" class="edge">
<title>L4YAML.Proofs.ScannerCorrectness.unwindIndentsLoop_preserves_prefix&#45;&gt;L4YAML.Proofs.ScannerProofs.emit_tokens_size</title>
<path fill="none" stroke="#28a745" stroke-width="2" d="M948.81,-209.96C902.37,-204.16 847.86,-196.41 799,-187 734.64,-174.61 720.45,-162.88 656,-151 589.1,-138.67 571.36,-142.54 504,-133 494.69,-131.68 484.92,-130.2 475.26,-128.67"/>
<polygon fill="#28a745" stroke="#28a745" stroke-width="2" points="475.55,-126.24 468.25,-127.55 474.78,-131.08 475.55,-126.24"/>
<text text-anchor="middle" x="809" y="-167.1" font-family="Times-Roman" font-size="8.00">uses</text>
</g>
<!-- L4YAML.Proofs.ScannerCorrectness.unwindIndentsLoop_preserves_prefix&#45;&gt;L4YAML.Proofs.ScannerCorrectness.unwindIndentsLoop_preserves_prefix._proof_1 -->
<g id="edge12" class="edge">
<title>L4YAML.Proofs.ScannerCorrectness.unwindIndentsLoop_preserves_prefix&#45;&gt;L4YAML.Proofs.ScannerCorrectness.unwindIndentsLoop_preserves_prefix._proof_1</title>
<path fill="none" stroke="#28a745" stroke-width="2" d="M1004.11,-206.02C937.96,-186.75 827.07,-154.46 757.64,-134.24"/>
<polygon fill="#28a745" stroke="#28a745" stroke-width="2" points="758.04,-131.81 750.63,-132.2 756.67,-136.51 758.04,-131.81"/>
<text text-anchor="middle" x="940" y="-167.1" font-family="Times-Roman" font-size="8.00">uses</text>
</g>
<!-- L4YAML.Proofs.ScannerCorrectness.unwindIndentsLoop_preserves_prefix&#45;&gt;L4YAML.Proofs.ScannerCorrectness.unwindIndentsLoop_tokens_monotonic -->
<g id="edge6" class="edge">
<title>L4YAML.Proofs.ScannerCorrectness.unwindIndentsLoop_preserves_prefix&#45;&gt;L4YAML.Proofs.ScannerCorrectness.unwindIndentsLoop_tokens_monotonic</title>
<path fill="none" stroke="#28a745" stroke-width="2" d="M1059,-204.97C1059,-187.53 1059,-160.26 1059,-140.51"/>
<polygon fill="#28a745" stroke="#28a745" stroke-width="2" points="1061.45,-140.34 1059,-133.34 1056.55,-140.34 1061.45,-140.34"/>
<text text-anchor="middle" x="1069" y="-167.1" font-family="Times-Roman" font-size="8.00">uses</text>
</g>
<!-- L4YAML.Proofs.ScannerCorrectness.unwindIndentsLoop_preserves_prefix&#45;&gt;L4YAML.Scanner.unwindIndentsLoop.eq_def -->
<g id="edge8" class="edge">
<title>L4YAML.Proofs.ScannerCorrectness.unwindIndentsLoop_preserves_prefix&#45;&gt;L4YAML.Scanner.unwindIndentsLoop.eq_def</title>
<path fill="none" stroke="#28a745" stroke-width="2" d="M1099.18,-205.55C1146.82,-186.06 1225.88,-153.7 1274.8,-133.68"/>
<polygon fill="#28a745" stroke="#28a745" stroke-width="2" points="1275.94,-135.86 1281.49,-130.94 1274.09,-131.33 1275.94,-135.86"/>
<text text-anchor="middle" x="1236" y="-167.1" font-family="Times-Roman" font-size="8.00">uses</text>
</g>
<!-- L4YAML.Proofs.ScannerCorrectness.unwindIndentsLoop_preserves_prefix._proof_1_1 -->
<g id="node13" class="node">
<title>L4YAML.Proofs.ScannerCorrectness.unwindIndentsLoop_preserves_prefix._proof_1_1</title>
<ellipse fill="#d4edda" stroke="#28a745" cx="1603" cy="-115" rx="188.24" ry="18"/>
<text text-anchor="middle" x="1603" y="-112.5" font-family="Helvetica" font-size="10.00">ScannerCorrectness.unwindIndentsLoop_preserves_prefix._proof_1_1</text>
</g>
<!-- L4YAML.Proofs.ScannerCorrectness.unwindIndentsLoop_preserves_prefix&#45;&gt;L4YAML.Proofs.ScannerCorrectness.unwindIndentsLoop_preserves_prefix._proof_1_1 -->
<g id="edge10" class="edge">
<title>L4YAML.Proofs.ScannerCorrectness.unwindIndentsLoop_preserves_prefix&#45;&gt;L4YAML.Proofs.ScannerCorrectness.unwindIndentsLoop_preserves_prefix._proof_1_1</title>
<path fill="none" stroke="#28a745" stroke-width="2" d="M1139.91,-207.49C1173.93,-201.31 1213.91,-193.93 1250,-187 1342.74,-169.18 1448.94,-147.67 1520.43,-133.03"/>
<polygon fill="#28a745" stroke="#28a745" stroke-width="2" points="1521.31,-135.35 1527.67,-131.54 1520.32,-130.55 1521.31,-135.35"/>
<text text-anchor="middle" x="1433" y="-167.1" font-family="Times-Roman" font-size="8.00">uses</text>
</g>
<!-- L4YAML.Proofs.ScannerCorrectness.emit_preserves_tokens_at -->
<g id="node14" class="node">
<title>L4YAML.Proofs.ScannerCorrectness.emit_preserves_tokens_at</title>
<ellipse fill="#d4edda" stroke="#28a745" cx="1941" cy="-115" rx="131.04" ry="18"/>
<text text-anchor="middle" x="1941" y="-112.5" font-family="Helvetica" font-size="10.00">ScannerCorrectness.emit_preserves_tokens_at</text>
</g>
<!-- L4YAML.Proofs.ScannerCorrectness.unwindIndentsLoop_preserves_prefix&#45;&gt;L4YAML.Proofs.ScannerCorrectness.emit_preserves_tokens_at -->
<g id="edge14" class="edge">
<title>L4YAML.Proofs.ScannerCorrectness.unwindIndentsLoop_preserves_prefix&#45;&gt;L4YAML.Proofs.ScannerCorrectness.emit_preserves_tokens_at</title>
<path fill="none" stroke="#28a745" stroke-width="2" d="M1195.04,-213.66C1269.68,-208.1 1363.72,-199.48 1447,-187 1523.81,-175.49 1541.24,-162.84 1618,-151 1698.33,-138.61 1719.2,-141.87 1800,-133 1812.94,-131.58 1826.54,-130.02 1839.98,-128.45"/>
<polygon fill="#28a745" stroke="#28a745" stroke-width="2" points="1840.32,-130.87 1846.98,-127.62 1839.75,-126.01 1840.32,-130.87"/>
<text text-anchor="middle" x="1628" y="-167.1" font-family="Times-Roman" font-size="8.00">uses</text>
</g>
<!-- L4YAML.Proofs.ScannerCorrectness.unwindIndents_preserves_prefix -->
<g id="node12" class="node">
<title>L4YAML.Proofs.ScannerCorrectness.unwindIndents_preserves_prefix</title>
<polygon fill="#fff3cd" stroke="#d4a017" points="635.8,-320.54 635.8,-335.46 542.78,-346 411.22,-346 318.2,-335.46 318.2,-320.54 411.22,-310 542.78,-310 635.8,-320.54"/>
<polygon fill="none" stroke="#d4a017" points="639.81,-316.97 639.81,-339.03 543.01,-350 410.99,-350 314.19,-339.03 314.19,-316.97 410.99,-306 543.01,-306 639.81,-316.97"/>
<text text-anchor="middle" x="477" y="-325.5" font-family="Helvetica" font-size="10.00">ScannerCorrectness.unwindIndents_preserves_prefix</text>
</g>
<!-- L4YAML.Proofs.ScannerCorrectness.unwindIndents_preserves_prefix&#45;&gt;L4YAML.Scanner.unwindIndents -->
<g id="edge1" class="edge">
<title>L4YAML.Proofs.ScannerCorrectness.unwindIndents_preserves_prefix&#45;&gt;L4YAML.Scanner.unwindIndents</title>
<path fill="none" stroke="#999999" stroke-dasharray="1,5" d="M361.35,-311.56C326.5,-305.62 288.38,-297.85 254,-288 213.76,-276.47 169.75,-258.15 138.43,-244.05"/>
<polygon fill="#999999" stroke="#999999" points="139.33,-241.77 131.94,-241.11 137.31,-246.23 139.33,-241.77"/>
<text text-anchor="middle" x="266.5" y="-281.6" font-family="Times-Roman" font-size="8.00">about</text>
</g>
<!-- L4YAML.Proofs.ScannerCorrectness.unwindIndents_preserves_prefix&#45;&gt;L4YAML.Scanner.ScannerState.tokens -->
<g id="edge21" class="edge">
<title>L4YAML.Proofs.ScannerCorrectness.unwindIndents_preserves_prefix&#45;&gt;L4YAML.Scanner.ScannerState.tokens</title>
<path fill="none" stroke="#999999" stroke-dasharray="1,5" d="M436.45,-305.99C378.07,-275.74 271.02,-220.27 213.33,-190.38"/>
<polygon fill="#999999" stroke="#999999" points="214.22,-188.08 206.88,-187.04 211.97,-192.43 214.22,-188.08"/>
<text text-anchor="middle" x="412.5" y="-281.6" font-family="Times-Roman" font-size="8.00">about</text>
</g>
<!-- L4YAML.Proofs.ScannerCorrectness.unwindIndents_preserves_prefix&#45;&gt;L4YAML.Proofs.ScannerCorrectness.unwindIndents_preserves_prefix._proof_1 -->
<g id="edge19" class="edge">
<title>L4YAML.Proofs.ScannerCorrectness.unwindIndents_preserves_prefix&#45;&gt;L4YAML.Proofs.ScannerCorrectness.unwindIndents_preserves_prefix._proof_1</title>
<path fill="none" stroke="#28a745" stroke-width="2" d="M477,-305.83C477,-276.97 477,-225.38 477,-194.77"/>
<polygon fill="#28a745" stroke="#28a745" stroke-width="2" points="479.45,-194.46 477,-187.46 474.55,-194.46 479.45,-194.46"/>
<text text-anchor="middle" x="487" y="-281.6" font-family="Times-Roman" font-size="8.00">uses</text>
</g>
<!-- L4YAML.Proofs.ScannerCorrectness.unwindIndents_preserves_prefix&#45;&gt;L4YAML.Proofs.ScannerCorrectness.unwindIndents_adds_tokens -->
<g id="edge24" class="edge">
<title>L4YAML.Proofs.ScannerCorrectness.unwindIndents_preserves_prefix&#45;&gt;L4YAML.Proofs.ScannerCorrectness.unwindIndents_adds_tokens</title>
<path fill="none" stroke="#28a745" stroke-width="2" d="M639.89,-319.77C792.15,-311.85 1025.6,-296.71 1227,-271 1400.85,-248.81 1602.79,-208.52 1709.31,-186.12"/>
<polygon fill="#28a745" stroke="#28a745" stroke-width="2" points="1709.85,-188.51 1716.19,-184.67 1708.83,-183.72 1709.85,-188.51"/>
<text text-anchor="middle" x="1164" y="-281.6" font-family="Times-Roman" font-size="8.00">uses</text>
</g>
<!-- L4YAML.Proofs.ScannerCorrectness.unwindIndents_preserves_prefix&#45;&gt;L4YAML.Proofs.ScannerCorrectness.unwindIndentsLoop_preserves_prefix -->
<g id="edge3" class="edge">
<title>L4YAML.Proofs.ScannerCorrectness.unwindIndents_preserves_prefix&#45;&gt;L4YAML.Proofs.ScannerCorrectness.unwindIndentsLoop_preserves_prefix</title>
<path fill="none" stroke="#28a745" stroke-width="2" d="M575.4,-309.59C685.93,-290.02 863.76,-258.55 970.2,-239.72"/>
<polygon fill="#28a745" stroke="#28a745" stroke-width="2" points="970.64,-242.13 977.11,-238.49 969.79,-237.3 970.64,-242.13"/>
<text text-anchor="middle" x="743" y="-281.6" font-family="Times-Roman" font-size="8.00">uses</text>
</g>
<!-- L4YAML.Proofs.ScannerCorrectness.unwindIndentsLoop_preserves_prefix._proof_1_1&#45;&gt;L4YAML.Scanner.ScannerState -->
<g id="edge11" class="edge">
<title>L4YAML.Proofs.ScannerCorrectness.unwindIndentsLoop_preserves_prefix._proof_1_1&#45;&gt;L4YAML.Scanner.ScannerState</title>
<path fill="none" stroke="#999999" stroke-dasharray="1,5" d="M1498.8,-99.99C1468.57,-96.15 1435.5,-92.18 1405,-89 950.47,-41.55 396.02,-35.74 235.51,-35.07"/>
<polygon fill="#999999" stroke="#999999" points="235.18,-32.62 228.17,-35.04 235.16,-37.52 235.18,-32.62"/>
<text text-anchor="middle" x="1285.5" y="-72.6" font-family="Times-Roman" font-size="8.00">about</text>
</g>
<!-- L4YAML.Proofs.ScannerCorrectness.emit_preserves_tokens_at&#45;&gt;L4YAML.Scanner.ScannerState -->
<g id="edge15" class="edge">
<title>L4YAML.Proofs.ScannerCorrectness.emit_preserves_tokens_at&#45;&gt;L4YAML.Scanner.ScannerState</title>
<path fill="none" stroke="#999999" stroke-dasharray="1,5" d="M1871.35,-99.7C1848.69,-95.57 1823.36,-91.5 1800,-89 1484.51,-55.17 463.4,-38.89 235.42,-35.62"/>
<polygon fill="#999999" stroke="#999999" points="235.31,-33.17 228.27,-35.52 235.24,-38.07 235.31,-33.17"/>
<text text-anchor="middle" x="1680.5" y="-72.6" font-family="Times-Roman" font-size="8.00">about</text>
</g>
</g>
</svg>
