<?xml version="1.0" encoding="UTF-8" standalone="no"?>
<!DOCTYPE svg PUBLIC "-//W3C//DTD SVG 1.1//EN"
 "http://www.w3.org/Graphics/SVG/1.1/DTD/svg11.dtd">
<!-- Generated by graphviz version 2.44.0 (0)
 -->
<!-- Title: chain_TokenParser.parseFlowMappingLoop.eq_def Pages: 1 -->
<svg width="2594pt" height="405pt"
 viewBox="0.00 0.00 2594.00 405.00" xmlns="http://www.w3.org/2000/svg" xmlns:xlink="http://www.w3.org/1999/xlink">
<g id="graph0" class="graph" transform="scale(1 1) rotate(0) translate(4 401)">
<title>chain_TokenParser.parseFlowMappingLoop.eq_def</title>
<polygon fill="white" stroke="transparent" points="-4,4 -4,-401 2590,-401 2590,4 -4,4"/>
<text text-anchor="middle" x="1293" y="-382.6" font-family="Helvetica Bold" font-size="13.00">Functorial Chains: TokenParser.parseFlowMappingLoop.eq_def</text>
<text text-anchor="middle" x="1293" y="-368.6" font-family="Helvetica Bold" font-size="13.00">(heuristic: used by 8 proofs)</text>
<g id="clust1" class="cluster">
<title>cluster_fns</title>
<polygon fill="none" stroke="#4a90d9" stroke-dasharray="5,2" points="906,-8 906,-244 2578,-244 2578,-8 906,-8"/>
<text text-anchor="middle" x="1742" y="-229.6" font-family="Helvetica Bold" font-size="13.00" fill="#4a90d9">Functions (Call Chain)</text>
</g>
<g id="clust2" class="cluster">
<title>cluster_thms</title>
<polygon fill="none" stroke="#28a745" stroke-dasharray="5,2" points="8,-89 8,-353 898,-353 898,-89 8,-89"/>
<text text-anchor="middle" x="453" y="-338.6" font-family="Helvetica Bold" font-size="13.00" fill="#28a745">Theorems (Proof Chain)</text>
</g>
<!-- L4YAML.TokenParser.ParseState.currentPath -->
<g id="node1" class="node">
<title>L4YAML.TokenParser.ParseState.currentPath</title>
<polygon fill="#dce9f7" stroke="#4a90d9" points="1672.5,-52 1495.5,-52 1495.5,-16 1672.5,-16 1672.5,-52"/>
<text text-anchor="middle" x="1584" y="-31.5" font-family="Helvetica" font-size="10.00">TokenParser.ParseState.currentPath</text>
</g>
<!-- L4YAML.TokenParser.parseNode -->
<g id="node2" class="node">
<title>L4YAML.TokenParser.parseNode</title>
<polygon fill="#dce9f7" stroke="#4a90d9" points="1168,-214 1046,-214 1046,-178 1168,-178 1168,-214"/>
<text text-anchor="middle" x="1107" y="-193.5" font-family="Helvetica" font-size="10.00">TokenParser.parseNode</text>
</g>
<!-- L4YAML.TokenParser.parseNodeContent._mutual -->
<g id="node12" class="node">
<title>L4YAML.TokenParser.parseNodeContent._mutual</title>
<polygon fill="#dce9f7" stroke="#4a90d9" points="1504,-133 1310,-133 1310,-97 1504,-97 1504,-133"/>
<text text-anchor="middle" x="1407" y="-112.5" font-family="Helvetica" font-size="10.00">TokenParser.parseNodeContent._mutual</text>
</g>
<!-- L4YAML.TokenParser.parseNode&#45;&gt;L4YAML.TokenParser.parseNodeContent._mutual -->
<g id="edge2" class="edge">
<title>L4YAML.TokenParser.parseNode&#45;&gt;L4YAML.TokenParser.parseNodeContent._mutual</title>
<path fill="none" stroke="#4a90d9" stroke-width="2" d="M1168.07,-178.92C1216.6,-166.14 1284.57,-148.24 1335.61,-134.8"/>
<polygon fill="#4a90d9" stroke="#4a90d9" stroke-width="2" points="1336.24,-137.17 1342.38,-133.02 1334.99,-132.43 1336.24,-137.17"/>
<text text-anchor="middle" x="1274.5" y="-153.6" font-family="Times-Roman" font-size="8.00">calls</text>
</g>
<!-- L4YAML.TokenParser.ParseState -->
<g id="node3" class="node">
<title>L4YAML.TokenParser.ParseState</title>
<polygon fill="#dce9f7" stroke="#4a90d9" points="2202,-52 2078,-52 2078,-16 2202,-16 2202,-52"/>
<text text-anchor="middle" x="2140" y="-31.5" font-family="Helvetica" font-size="10.00">TokenParser.ParseState</text>
</g>
<!-- L4YAML.TokenParser.ParseState.trackPositions -->
<g id="node4" class="node">
<title>L4YAML.TokenParser.ParseState.trackPositions</title>
<polygon fill="#dce9f7" stroke="#4a90d9" points="1879.5,-52 1690.5,-52 1690.5,-16 1879.5,-16 1879.5,-52"/>
<text text-anchor="middle" x="1785" y="-31.5" font-family="Helvetica" font-size="10.00">TokenParser.ParseState.trackPositions</text>
</g>
<!-- L4YAML.TokenParser.ParseState.anchors -->
<g id="node5" class="node">
<title>L4YAML.TokenParser.ParseState.anchors</title>
<polygon fill="#dce9f7" stroke="#4a90d9" points="2060,-52 1898,-52 1898,-16 2060,-16 2060,-52"/>
<text text-anchor="middle" x="1979" y="-31.5" font-family="Helvetica" font-size="10.00">TokenParser.ParseState.anchors</text>
</g>
<!-- L4YAML.TokenParser.ParseState.mk -->
<g id="node6" class="node">
<title>L4YAML.TokenParser.ParseState.mk</title>
<polygon fill="#dce9f7" stroke="#4a90d9" points="1477,-52 1337,-52 1337,-16 1477,-16 1477,-52"/>
<text text-anchor="middle" x="1407" y="-31.5" font-family="Helvetica" font-size="10.00">TokenParser.ParseState.mk</text>
</g>
<!-- L4YAML.TokenParser.ParseState.tagHandles -->
<g id="node7" class="node">
<title>L4YAML.TokenParser.ParseState.tagHandles</title>
<polygon fill="#dce9f7" stroke="#4a90d9" points="2396,-52 2220,-52 2220,-16 2396,-16 2396,-52"/>
<text text-anchor="middle" x="2308" y="-31.5" font-family="Helvetica" font-size="10.00">TokenParser.ParseState.tagHandles</text>
</g>
<!-- L4YAML.TokenParser.parseFlowMappingLoop -->
<g id="node8" class="node">
<title>L4YAML.TokenParser.parseFlowMappingLoop</title>
<polygon fill="#dce9f7" stroke="#4a90d9" points="1430,-214 1252,-214 1252,-178 1430,-178 1430,-214"/>
<text text-anchor="middle" x="1341" y="-193.5" font-family="Helvetica" font-size="10.00">TokenParser.parseFlowMappingLoop</text>
</g>
<!-- L4YAML.TokenParser.parseFlowMappingLoop&#45;&gt;L4YAML.TokenParser.parseNodeContent._mutual -->
<g id="edge12" class="edge">
<title>L4YAML.TokenParser.parseFlowMappingLoop&#45;&gt;L4YAML.TokenParser.parseNodeContent._mutual</title>
<path fill="none" stroke="#4a90d9" stroke-width="2" d="M1355.32,-177.86C1364.92,-166.37 1377.67,-151.11 1388.1,-138.63"/>
<polygon fill="#4a90d9" stroke="#4a90d9" stroke-width="2" points="1390.1,-140.05 1392.71,-133.11 1386.34,-136.91 1390.1,-140.05"/>
<text text-anchor="middle" x="1384.5" y="-153.6" font-family="Times-Roman" font-size="8.00">calls</text>
</g>
<!-- L4YAML.TokenParser.ParseState.advance -->
<g id="node9" class="node">
<title>L4YAML.TokenParser.ParseState.advance</title>
<polygon fill="#dce9f7" stroke="#4a90d9" points="1238.5,-52 1075.5,-52 1075.5,-16 1238.5,-16 1238.5,-52"/>
<text text-anchor="middle" x="1157" y="-31.5" font-family="Helvetica" font-size="10.00">TokenParser.ParseState.advance</text>
</g>
<!-- L4YAML.YamlValue -->
<g id="node10" class="node">
<title>L4YAML.YamlValue</title>
<polygon fill="#dce9f7" stroke="#4a90d9" points="1319,-52 1257,-52 1257,-16 1319,-16 1319,-52"/>
<text text-anchor="middle" x="1288" y="-31.5" font-family="Helvetica" font-size="10.00">YamlValue</text>
</g>
<!-- L4YAML.TokenParser.NodeProperties -->
<g id="node11" class="node">
<title>L4YAML.TokenParser.NodeProperties</title>
<polygon fill="#dce9f7" stroke="#4a90d9" points="1057.5,-52 914.5,-52 914.5,-16 1057.5,-16 1057.5,-52"/>
<text text-anchor="middle" x="986" y="-31.5" font-family="Helvetica" font-size="10.00">TokenParser.NodeProperties</text>
</g>
<!-- L4YAML.TokenParser.parseNodeContent._mutual&#45;&gt;L4YAML.TokenParser.ParseState.currentPath -->
<g id="edge28" class="edge">
<title>L4YAML.TokenParser.parseNodeContent._mutual&#45;&gt;L4YAML.TokenParser.ParseState.currentPath</title>
<path fill="none" stroke="#4a90d9" stroke-width="2" d="M1445.41,-96.86C1473.01,-84.54 1510.3,-67.89 1539.25,-54.97"/>
<polygon fill="#4a90d9" stroke="#4a90d9" stroke-width="2" points="1540.27,-57.2 1545.67,-52.11 1538.28,-52.72 1540.27,-57.2"/>
<text text-anchor="middle" x="1509.5" y="-72.6" font-family="Times-Roman" font-size="8.00">calls</text>
</g>
<!-- L4YAML.TokenParser.parseNodeContent._mutual&#45;&gt;L4YAML.TokenParser.ParseState -->
<g id="edge16" class="edge">
<title>L4YAML.TokenParser.parseNodeContent._mutual&#45;&gt;L4YAML.TokenParser.ParseState</title>
<path fill="none" stroke="#4a90d9" stroke-width="2" d="M1504.03,-109.22C1633.53,-101.87 1869.71,-85.02 2069,-52 2069.54,-51.91 2070.08,-51.82 2070.62,-51.73"/>
<polygon fill="#4a90d9" stroke="#4a90d9" stroke-width="2" points="2071.31,-54.09 2077.76,-50.43 2070.44,-49.27 2071.31,-54.09"/>
<text text-anchor="middle" x="1952.5" y="-72.6" font-family="Times-Roman" font-size="8.00">calls</text>
</g>
<!-- L4YAML.TokenParser.parseNodeContent._mutual&#45;&gt;L4YAML.TokenParser.ParseState.trackPositions -->
<g id="edge22" class="edge">
<title>L4YAML.TokenParser.parseNodeContent._mutual&#45;&gt;L4YAML.TokenParser.ParseState.trackPositions</title>
<path fill="none" stroke="#4a90d9" stroke-width="2" d="M1488.55,-96.96C1549.79,-84.16 1633.55,-66.65 1696.42,-53.51"/>
<polygon fill="#4a90d9" stroke="#4a90d9" stroke-width="2" points="1697.24,-55.84 1703.59,-52.01 1696.24,-51.05 1697.24,-55.84"/>
<text text-anchor="middle" x="1616.5" y="-72.6" font-family="Times-Roman" font-size="8.00">calls</text>
</g>
<!-- L4YAML.TokenParser.parseNodeContent._mutual&#45;&gt;L4YAML.TokenParser.ParseState.anchors -->
<g id="edge24" class="edge">
<title>L4YAML.TokenParser.parseNodeContent._mutual&#45;&gt;L4YAML.TokenParser.ParseState.anchors</title>
<path fill="none" stroke="#4a90d9" stroke-width="2" d="M1504.18,-103.2C1601.69,-91.96 1756.09,-73.08 1889,-52 1889.53,-51.92 1890.06,-51.83 1890.59,-51.75"/>
<polygon fill="#4a90d9" stroke="#4a90d9" stroke-width="2" points="1891.09,-54.15 1897.6,-50.6 1890.3,-49.31 1891.09,-54.15"/>
<text text-anchor="middle" x="1765.5" y="-72.6" font-family="Times-Roman" font-size="8.00">calls</text>
</g>
<!-- L4YAML.TokenParser.parseNodeContent._mutual&#45;&gt;L4YAML.TokenParser.ParseState.mk -->
<g id="edge26" class="edge">
<title>L4YAML.TokenParser.parseNodeContent._mutual&#45;&gt;L4YAML.TokenParser.ParseState.mk</title>
<path fill="none" stroke="#4a90d9" stroke-width="2" d="M1407,-96.86C1407,-85.88 1407,-71.48 1407,-59.33"/>
<polygon fill="#4a90d9" stroke="#4a90d9" stroke-width="2" points="1409.45,-59.11 1407,-52.11 1404.55,-59.11 1409.45,-59.11"/>
<text text-anchor="middle" x="1416.5" y="-72.6" font-family="Times-Roman" font-size="8.00">calls</text>
</g>
<!-- L4YAML.TokenParser.parseNodeContent._mutual&#45;&gt;L4YAML.TokenParser.ParseState.tagHandles -->
<g id="edge13" class="edge">
<title>L4YAML.TokenParser.parseNodeContent._mutual&#45;&gt;L4YAML.TokenParser.ParseState.tagHandles</title>
<path fill="none" stroke="#4a90d9" stroke-width="2" d="M1504.28,-110.56C1655.92,-104.28 1957.54,-88.14 2211,-52 2211.54,-51.92 2212.08,-51.85 2212.62,-51.77"/>
<polygon fill="#4a90d9" stroke="#4a90d9" stroke-width="2" points="2213.18,-54.16 2219.75,-50.71 2212.47,-49.31 2213.18,-54.16"/>
<text text-anchor="middle" x="2066.5" y="-72.6" font-family="Times-Roman" font-size="8.00">calls</text>
</g>
<!-- L4YAML.TokenParser.parseNodeContent._mutual&#45;&gt;L4YAML.TokenParser.ParseState.advance -->
<g id="edge5" class="edge">
<title>L4YAML.TokenParser.parseNodeContent._mutual&#45;&gt;L4YAML.TokenParser.ParseState.advance</title>
<path fill="none" stroke="#4a90d9" stroke-width="2" d="M1353.06,-96.96C1313.22,-84.37 1258.96,-67.22 1217.62,-54.16"/>
<polygon fill="#4a90d9" stroke="#4a90d9" stroke-width="2" points="1218.25,-51.79 1210.84,-52.01 1216.78,-56.46 1218.25,-51.79"/>
<text text-anchor="middle" x="1298.5" y="-72.6" font-family="Times-Roman" font-size="8.00">calls</text>
</g>
<!-- L4YAML.TokenParser.parseNodeContent._mutual&#45;&gt;L4YAML.YamlValue -->
<g id="edge20" class="edge">
<title>L4YAML.TokenParser.parseNodeContent._mutual&#45;&gt;L4YAML.YamlValue</title>
<path fill="none" stroke="#4a90d9" stroke-width="2" d="M1381.18,-96.86C1363.17,-84.9 1339.02,-68.87 1319.82,-56.12"/>
<polygon fill="#4a90d9" stroke="#4a90d9" stroke-width="2" points="1320.96,-53.94 1313.77,-52.11 1318.25,-58.02 1320.96,-53.94"/>
<text text-anchor="middle" x="1360.5" y="-72.6" font-family="Times-Roman" font-size="8.00">calls</text>
</g>
<!-- L4YAML.TokenParser.parseNodeContent._mutual&#45;&gt;L4YAML.TokenParser.NodeProperties -->
<g id="edge8" class="edge">
<title>L4YAML.TokenParser.parseNodeContent._mutual&#45;&gt;L4YAML.TokenParser.NodeProperties</title>
<path fill="none" stroke="#4a90d9" stroke-width="2" d="M1309.78,-96.98C1241.71,-84.89 1148.7,-68.02 1067,-52 1066.22,-51.85 1065.44,-51.69 1064.66,-51.54"/>
<polygon fill="#4a90d9" stroke="#4a90d9" stroke-width="2" points="1064.88,-49.08 1057.53,-50.12 1063.92,-53.89 1064.88,-49.08"/>
<text text-anchor="middle" x="1215.5" y="-72.6" font-family="Times-Roman" font-size="8.00">calls</text>
</g>
<!-- L4YAML.TokenParser.ParseState.tokens -->
<g id="node13" class="node">
<title>L4YAML.TokenParser.ParseState.tokens</title>
<polygon fill="#dce9f7" stroke="#4a90d9" points="2569.5,-52 2414.5,-52 2414.5,-16 2569.5,-16 2569.5,-52"/>
<text text-anchor="middle" x="2492" y="-31.5" font-family="Helvetica" font-size="10.00">TokenParser.ParseState.tokens</text>
</g>
<!-- L4YAML.TokenParser.parseNodeContent._mutual&#45;&gt;L4YAML.TokenParser.ParseState.tokens -->
<g id="edge18" class="edge">
<title>L4YAML.TokenParser.parseNodeContent._mutual&#45;&gt;L4YAML.TokenParser.ParseState.tokens</title>
<path fill="none" stroke="#4a90d9" stroke-width="2" d="M1504.18,-112.85C1683.2,-109.65 2076.79,-97.56 2405,-52 2405.76,-51.89 2406.53,-51.79 2407.3,-51.68"/>
<polygon fill="#4a90d9" stroke="#4a90d9" stroke-width="2" points="2407.72,-54.09 2414.28,-50.63 2407,-49.24 2407.72,-54.09"/>
<text text-anchor="middle" x="2251.5" y="-72.6" font-family="Times-Roman" font-size="8.00">calls</text>
</g>
<!-- L4YAML.TokenParser.parseFlowMappingLoop.eq_def -->
<g id="node14" class="node">
<title>L4YAML.TokenParser.parseFlowMappingLoop.eq_def</title>
<polygon fill="#fff3cd" stroke="#d4a017" points="885.61,-293.54 885.61,-308.46 807.35,-319 696.65,-319 618.39,-308.46 618.39,-293.54 696.65,-283 807.35,-283 885.61,-293.54"/>
<polygon fill="none" stroke="#d4a017" points="889.61,-290.05 889.61,-311.95 807.61,-323 696.39,-323 614.39,-311.95 614.39,-290.05 696.39,-279 807.61,-279 889.61,-290.05"/>
<text text-anchor="middle" x="752" y="-298.5" font-family="Helvetica" font-size="10.00">TokenParser.parseFlowMappingLoop.eq_def</text>
</g>
<!-- L4YAML.TokenParser.parseFlowMappingLoop.eq_def&#45;&gt;L4YAML.TokenParser.parseNode -->
<g id="edge1" class="edge">
<title>L4YAML.TokenParser.parseFlowMappingLoop.eq_def&#45;&gt;L4YAML.TokenParser.parseNode</title>
<path fill="none" stroke="#999999" stroke-dasharray="1,5" d="M819.19,-280.51C883,-261.99 978.32,-234.34 1041.54,-215.99"/>
<polygon fill="#999999" stroke="#999999" points="1042.29,-218.33 1048.33,-214.02 1040.92,-213.62 1042.29,-218.33"/>
<text text-anchor="middle" x="920.5" y="-254.6" font-family="Times-Roman" font-size="8.00">about</text>
</g>
<!-- L4YAML.TokenParser.parseFlowMappingLoop.eq_def&#45;&gt;L4YAML.TokenParser.parseFlowMappingLoop -->
<g id="edge11" class="edge">
<title>L4YAML.TokenParser.parseFlowMappingLoop.eq_def&#45;&gt;L4YAML.TokenParser.parseFlowMappingLoop</title>
<path fill="none" stroke="#999999" stroke-dasharray="1,5" d="M877.88,-288.36C962.9,-279.29 1077.36,-264.72 1177,-244 1212.32,-236.65 1251.15,-225.66 1282.16,-216.15"/>
<polygon fill="#999999" stroke="#999999" points="1283.09,-218.43 1289.05,-214.02 1281.64,-213.75 1283.09,-218.43"/>
<text text-anchor="middle" x="1143.5" y="-254.6" font-family="Times-Roman" font-size="8.00">about</text>
</g>
<!-- L4YAML.TokenParser.parseNodeContent._mutual.eq_def -->
<g id="node18" class="node">
<title>L4YAML.TokenParser.parseNodeContent._mutual.eq_def</title>
<ellipse fill="#d4edda" stroke="#28a745" cx="749" cy="-196" rx="133.08" ry="18"/>
<text text-anchor="middle" x="749" y="-193.5" font-family="Helvetica" font-size="10.00">TokenParser.parseNodeContent._mutual.eq_def</text>
</g>
<!-- L4YAML.TokenParser.parseFlowMappingLoop.eq_def&#45;&gt;L4YAML.TokenParser.parseNodeContent._mutual.eq_def -->
<g id="edge3" class="edge">
<title>L4YAML.TokenParser.parseFlowMappingLoop.eq_def&#45;&gt;L4YAML.TokenParser.parseNodeContent._mutual.eq_def</title>
<path fill="none" stroke="#28a745" stroke-width="2" d="M751.38,-278.66C750.89,-261.95 750.21,-238.71 749.71,-221.29"/>
<polygon fill="#28a745" stroke="#28a745" stroke-width="2" points="752.15,-221.15 749.5,-214.22 747.26,-221.29 752.15,-221.15"/>
<text text-anchor="middle" x="760" y="-254.6" font-family="Times-Roman" font-size="8.00">uses</text>
</g>
<!-- L4YAML.TokenParser.parseNodeContent._mutual._proof_1 -->
<g id="node15" class="node">
<title>L4YAML.TokenParser.parseNodeContent._mutual._proof_1</title>
<ellipse fill="#d4edda" stroke="#28a745" cx="154" cy="-115" rx="137.99" ry="18"/>
<text text-anchor="middle" x="154" y="-112.5" font-family="Helvetica" font-size="10.00">TokenParser.parseNodeContent._mutual._proof_1</text>
</g>
<!-- L4YAML.TokenParser.parseNodeContent._mutual._proof_1&#45;&gt;L4YAML.TokenParser.NodeProperties -->
<g id="edge10" class="edge">
<title>L4YAML.TokenParser.parseNodeContent._mutual._proof_1&#45;&gt;L4YAML.TokenParser.NodeProperties</title>
<path fill="none" stroke="#999999" stroke-dasharray="1,5" d="M228.83,-99.84C251.62,-95.89 276.78,-91.9 300,-89 519.02,-61.68 779.22,-45.67 907.07,-38.87"/>
<polygon fill="#999999" stroke="#999999" points="907.32,-41.31 914.18,-38.5 907.06,-36.42 907.32,-41.31"/>
<text text-anchor="middle" x="480.5" y="-72.6" font-family="Times-Roman" font-size="8.00">about</text>
</g>
<!-- L4YAML.TokenParser.parseNodeContent._mutual._proof_37 -->
<g id="node16" class="node">
<title>L4YAML.TokenParser.parseNodeContent._mutual._proof_37</title>
<ellipse fill="#d4edda" stroke="#28a745" cx="450" cy="-115" rx="140.88" ry="18"/>
<text text-anchor="middle" x="450" y="-112.5" font-family="Helvetica" font-size="10.00">TokenParser.parseNodeContent._mutual._proof_37</text>
</g>
<!-- L4YAML.TokenParser.parseNodeContent._mutual._proof_37&#45;&gt;L4YAML.TokenParser.ParseState.advance -->
<g id="edge7" class="edge">
<title>L4YAML.TokenParser.parseNodeContent._mutual._proof_37&#45;&gt;L4YAML.TokenParser.ParseState.advance</title>
<path fill="none" stroke="#999999" stroke-dasharray="1,5" d="M530.37,-100.18C552.59,-96.45 576.71,-92.49 599,-89 657.12,-79.91 671.45,-75.8 730,-70 879.26,-55.22 918.09,-69.96 1067,-52 1067.34,-51.96 1067.67,-51.92 1068.01,-51.88"/>
<polygon fill="#999999" stroke="#999999" points="1068.53,-54.28 1075.16,-50.94 1067.9,-49.42 1068.53,-54.28"/>
<text text-anchor="middle" x="742.5" y="-72.6" font-family="Times-Roman" font-size="8.00">about</text>
</g>
<!-- L4YAML.TokenParser.parseNodeContent._mutual._proof_19 -->
<g id="node17" class="node">
<title>L4YAML.TokenParser.parseNodeContent._mutual._proof_19</title>
<ellipse fill="#d4edda" stroke="#28a745" cx="749" cy="-115" rx="140.88" ry="18"/>
<text text-anchor="middle" x="749" y="-112.5" font-family="Helvetica" font-size="10.00">TokenParser.parseNodeContent._mutual._proof_19</text>
</g>
<!-- L4YAML.TokenParser.parseNodeContent._mutual._proof_19&#45;&gt;L4YAML.TokenParser.ParseState.currentPath -->
<g id="edge29" class="edge">
<title>L4YAML.TokenParser.parseNodeContent._mutual._proof_19&#45;&gt;L4YAML.TokenParser.ParseState.currentPath</title>
<path fill="none" stroke="#999999" stroke-dasharray="1,5" d="M795.14,-97.9C830.39,-85.66 873.65,-70.79 878,-70 1011.01,-45.91 1351.51,-65.59 1486,-52 1486.77,-51.92 1487.55,-51.84 1488.33,-51.76"/>
<polygon fill="#999999" stroke="#999999" points="1488.73,-54.18 1495.4,-50.95 1488.17,-49.31 1488.73,-54.18"/>
<text text-anchor="middle" x="890.5" y="-72.6" font-family="Times-Roman" font-size="8.00">about</text>
</g>
<!-- L4YAML.TokenParser.parseNodeContent._mutual._proof_19&#45;&gt;L4YAML.TokenParser.ParseState -->
<g id="edge17" class="edge">
<title>L4YAML.TokenParser.parseNodeContent._mutual._proof_19&#45;&gt;L4YAML.TokenParser.ParseState</title>
<path fill="none" stroke="#999999" stroke-dasharray="1,5" d="M828.27,-100.08C851.94,-96.19 877.98,-92.16 902,-89 946.28,-83.17 958.5,-89.15 1002,-79 1013.09,-76.41 1014.81,-72.13 1026,-70 1253.73,-26.67 1839.03,-81.16 2069,-52 2069.54,-51.93 2070.09,-51.86 2070.63,-51.79"/>
<polygon fill="#999999" stroke="#999999" points="2071.25,-54.17 2077.8,-50.7 2070.52,-49.33 2071.25,-54.17"/>
<text text-anchor="middle" x="1038.5" y="-72.6" font-family="Times-Roman" font-size="8.00">about</text>
</g>
<!-- L4YAML.TokenParser.parseNodeContent._mutual._proof_19&#45;&gt;L4YAML.TokenParser.ParseState.trackPositions -->
<g id="edge23" class="edge">
<title>L4YAML.TokenParser.parseNodeContent._mutual._proof_19&#45;&gt;L4YAML.TokenParser.ParseState.trackPositions</title>
<path fill="none" stroke="#999999" stroke-dasharray="1,5" d="M821.16,-99.51C847.14,-93.79 876.55,-86.73 903,-79 914.33,-75.69 916.39,-72.17 928,-70 1092.75,-39.22 1515.13,-67.68 1682,-52 1682.44,-51.96 1682.87,-51.92 1683.31,-51.87"/>
<polygon fill="#999999" stroke="#999999" points="1683.78,-54.29 1690.49,-51.12 1683.28,-49.42 1683.78,-54.29"/>
<text text-anchor="middle" x="940.5" y="-72.6" font-family="Times-Roman" font-size="8.00">about</text>
</g>
<!-- L4YAML.TokenParser.parseNodeContent._mutual._proof_19&#45;&gt;L4YAML.TokenParser.ParseState.anchors -->
<g id="edge25" class="edge">
<title>L4YAML.TokenParser.parseNodeContent._mutual._proof_19&#45;&gt;L4YAML.TokenParser.ParseState.anchors</title>
<path fill="none" stroke="#999999" stroke-dasharray="1,5" d="M832.28,-100.47C883.32,-92.05 941.1,-82.22 953,-79 964,-76.02 965.81,-72.14 977,-70 1176.09,-31.87 1687.37,-72.88 1889,-52 1889.53,-51.94 1890.07,-51.89 1890.61,-51.83"/>
<polygon fill="#999999" stroke="#999999" points="1890.99,-54.25 1897.65,-51 1890.41,-49.39 1890.99,-54.25"/>
<text text-anchor="middle" x="989.5" y="-72.6" font-family="Times-Roman" font-size="8.00">about</text>
</g>
<!-- L4YAML.TokenParser.parseNodeContent._mutual._proof_19&#45;&gt;L4YAML.TokenParser.ParseState.mk -->
<g id="edge27" class="edge">
<title>L4YAML.TokenParser.parseNodeContent._mutual._proof_19&#45;&gt;L4YAML.TokenParser.ParseState.mk</title>
<path fill="none" stroke="#999999" stroke-dasharray="1,5" d="M771.28,-97.17C785.76,-87.27 805.51,-75.61 825,-70 932.48,-39.06 1217.01,-65.82 1328,-52 1328.64,-51.92 1329.28,-51.84 1329.93,-51.75"/>
<polygon fill="#999999" stroke="#999999" points="1330.32,-54.17 1336.9,-50.76 1329.62,-49.32 1330.32,-54.17"/>
<text text-anchor="middle" x="837.5" y="-72.6" font-family="Times-Roman" font-size="8.00">about</text>
</g>
<!-- L4YAML.TokenParser.parseNodeContent._mutual._proof_19&#45;&gt;L4YAML.TokenParser.ParseState.tagHandles -->
<g id="edge15" class="edge">
<title>L4YAML.TokenParser.parseNodeContent._mutual._proof_19&#45;&gt;L4YAML.TokenParser.ParseState.tagHandles</title>
<path fill="none" stroke="#999999" stroke-dasharray="1,5" d="M826.24,-99.91C850.43,-95.9 877.27,-91.84 902,-89 967.94,-81.42 986.23,-93.48 1051,-79 1061.71,-76.6 1063.23,-72.12 1074,-70 1197.97,-45.59 2085.22,-63.94 2211,-52 2211.54,-51.95 2212.09,-51.9 2212.63,-51.84"/>
<polygon fill="#999999" stroke="#999999" points="2213.1,-54.26 2219.79,-51.07 2212.57,-49.38 2213.1,-54.26"/>
<text text-anchor="middle" x="1086.5" y="-72.6" font-family="Times-Roman" font-size="8.00">about</text>
</g>
<!-- L4YAML.TokenParser.parseNodeContent._mutual._proof_19&#45;&gt;L4YAML.YamlValue -->
<g id="edge21" class="edge">
<title>L4YAML.TokenParser.parseNodeContent._mutual._proof_19&#45;&gt;L4YAML.YamlValue</title>
<path fill="none" stroke="#999999" stroke-dasharray="1,5" d="M751.79,-96.96C754.31,-87.36 759.07,-76.11 768,-70 812.04,-39.85 1195.91,-63.63 1248,-52 1248.64,-51.86 1249.29,-51.7 1249.94,-51.54"/>
<polygon fill="#999999" stroke="#999999" points="1250.9,-53.81 1256.92,-49.48 1249.51,-49.11 1250.9,-53.81"/>
<text text-anchor="middle" x="780.5" y="-72.6" font-family="Times-Roman" font-size="8.00">about</text>
</g>
<!-- L4YAML.TokenParser.parseNodeContent._mutual._proof_19&#45;&gt;L4YAML.TokenParser.ParseState.tokens -->
<g id="edge19" class="edge">
<title>L4YAML.TokenParser.parseNodeContent._mutual._proof_19&#45;&gt;L4YAML.TokenParser.ParseState.tokens</title>
<path fill="none" stroke="#999999" stroke-dasharray="1,5" d="M825.43,-99.8C849.82,-95.73 876.98,-91.67 902,-89 989.17,-79.69 1012.11,-90.66 1099,-79 1117.49,-76.52 1121.47,-72.14 1140,-70 1419.28,-37.7 2125.37,-81.07 2405,-52 2405.77,-51.92 2406.53,-51.84 2407.31,-51.75"/>
<polygon fill="#999999" stroke="#999999" points="2407.66,-54.18 2414.32,-50.89 2407.07,-49.31 2407.66,-54.18"/>
<text text-anchor="middle" x="1152.5" y="-72.6" font-family="Times-Roman" font-size="8.00">about</text>
</g>
<!-- L4YAML.TokenParser.parseNodeContent._mutual.eq_def&#45;&gt;L4YAML.TokenParser.parseNodeContent._mutual -->
<g id="edge4" class="edge">
<title>L4YAML.TokenParser.parseNodeContent._mutual.eq_def&#45;&gt;L4YAML.TokenParser.parseNodeContent._mutual</title>
<path fill="none" stroke="#999999" stroke-dasharray="1,5" d="M845.03,-183.47C967.12,-168.81 1177.12,-143.6 1302.93,-128.49"/>
<polygon fill="#999999" stroke="#999999" points="1303.32,-130.92 1309.98,-127.65 1302.74,-126.05 1303.32,-130.92"/>
<text text-anchor="middle" x="1109.5" y="-153.6" font-family="Times-Roman" font-size="8.00">about</text>
</g>
<!-- L4YAML.TokenParser.parseNodeContent._mutual.eq_def&#45;&gt;L4YAML.TokenParser.parseNodeContent._mutual._proof_1 -->
<g id="edge9" class="edge">
<title>L4YAML.TokenParser.parseNodeContent._mutual.eq_def&#45;&gt;L4YAML.TokenParser.parseNodeContent._mutual._proof_1</title>
<path fill="none" stroke="#28a745" stroke-width="2" d="M657.66,-182.87C548.53,-168.38 366.6,-144.23 253.85,-129.26"/>
<polygon fill="#28a745" stroke="#28a745" stroke-width="2" points="254.12,-126.82 246.86,-128.33 253.47,-131.68 254.12,-126.82"/>
<text text-anchor="middle" x="479" y="-153.6" font-family="Times-Roman" font-size="8.00">uses</text>
</g>
<!-- L4YAML.TokenParser.parseNodeContent._mutual.eq_def&#45;&gt;L4YAML.TokenParser.parseNodeContent._mutual._proof_37 -->
<g id="edge6" class="edge">
<title>L4YAML.TokenParser.parseNodeContent._mutual.eq_def&#45;&gt;L4YAML.TokenParser.parseNodeContent._mutual._proof_37</title>
<path fill="none" stroke="#28a745" stroke-width="2" d="M691.35,-179.77C640.92,-166.44 567.73,-147.11 515.19,-133.22"/>
<polygon fill="#28a745" stroke="#28a745" stroke-width="2" points="515.63,-130.81 508.24,-131.39 514.38,-135.54 515.63,-130.81"/>
<text text-anchor="middle" x="618" y="-153.6" font-family="Times-Roman" font-size="8.00">uses</text>
</g>
<!-- L4YAML.TokenParser.parseNodeContent._mutual.eq_def&#45;&gt;L4YAML.TokenParser.parseNodeContent._mutual._proof_19 -->
<g id="edge14" class="edge">
<title>L4YAML.TokenParser.parseNodeContent._mutual.eq_def&#45;&gt;L4YAML.TokenParser.parseNodeContent._mutual._proof_19</title>
<path fill="none" stroke="#28a745" stroke-width="2" d="M749,-177.86C749,-166.88 749,-152.48 749,-140.33"/>
<polygon fill="#28a745" stroke="#28a745" stroke-width="2" points="751.45,-140.11 749,-133.11 746.55,-140.11 751.45,-140.11"/>
<text text-anchor="middle" x="759" y="-153.6" font-family="Times-Roman" font-size="8.00">uses</text>
</g>
</g>
</svg>
