<?xml version="1.0" encoding="UTF-8" standalone="no"?>
<!DOCTYPE svg PUBLIC "-//W3C//DTD SVG 1.1//EN"
 "http://www.w3.org/Graphics/SVG/1.1/DTD/svg11.dtd">
<!-- Generated by graphviz version 2.44.0 (0)
 -->
<!-- Title: chain_skipWhitespaceLoop.eq_1 Pages: 1 -->
<svg width="381pt" height="324pt"
 viewBox="0.00 0.00 381.00 324.00" xmlns="http://www.w3.org/2000/svg" xmlns:xlink="http://www.w3.org/1999/xlink">
<g id="graph0" class="graph" transform="scale(1 1) rotate(0) translate(4 320)">
<title>chain_skipWhitespaceLoop.eq_1</title>
<polygon fill="white" stroke="transparent" points="-4,4 -4,-320 377,-320 377,4 -4,4"/>
<text text-anchor="middle" x="186.5" y="-301.6" font-family="Helvetica Bold" font-size="13.00">Functorial Chains: skipWhitespaceLoop.eq_1</text>
<text text-anchor="middle" x="186.5" y="-287.6" font-family="Helvetica Bold" font-size="13.00">(heuristic: used by 5 proofs)</text>
<g id="clust1" class="cluster">
<title>cluster_fns</title>
<polygon fill="none" stroke="#4a90d9" stroke-dasharray="5,2" points="206,-8 206,-163 365,-163 365,-8 206,-8"/>
<text text-anchor="middle" x="285.5" y="-148.6" font-family="Helvetica Bold" font-size="13.00" fill="#4a90d9">Functions (Call Chain)</text>
</g>
<g id="clust2" class="cluster">
<title>cluster_thms</title>
<polygon fill="none" stroke="#28a745" stroke-dasharray="5,2" points="8,-89 8,-272 198,-272 198,-89 8,-89"/>
<text text-anchor="middle" x="103" y="-257.6" font-family="Helvetica Bold" font-size="13.00" fill="#28a745">Theorems (Proof Chain)</text>
</g>
<!-- L4YAML.Scanner.skipWhitespaceLoop -->
<g id="node1" class="node">
<title>L4YAML.Scanner.skipWhitespaceLoop</title>
<polygon fill="#dce9f7" stroke="#4a90d9" points="321.5,-133 214.5,-133 214.5,-97 321.5,-97 321.5,-133"/>
<text text-anchor="middle" x="268" y="-112.5" font-family="Helvetica" font-size="10.00">skipWhitespaceLoop</text>
</g>
<!-- L4YAML.Scanner.ScannerState -->
<g id="node2" class="node">
<title>L4YAML.Scanner.ScannerState</title>
<polygon fill="#dce9f7" stroke="#4a90d9" points="298,-52 222,-52 222,-16 298,-16 298,-52"/>
<text text-anchor="middle" x="260" y="-31.5" font-family="Helvetica" font-size="10.00">ScannerState</text>
</g>
<!-- L4YAML.Scanner.skipWhitespaceLoop&#45;&gt;L4YAML.Scanner.ScannerState -->
<g id="edge2" class="edge">
<title>L4YAML.Scanner.skipWhitespaceLoop&#45;&gt;L4YAML.Scanner.ScannerState</title>
<path fill="none" stroke="#4a90d9" stroke-width="2" d="M266.26,-96.86C265.15,-85.88 263.69,-71.48 262.46,-59.33"/>
<polygon fill="#4a90d9" stroke="#4a90d9" stroke-width="2" points="264.88,-58.83 261.73,-52.11 260,-59.32 264.88,-58.83"/>
<text text-anchor="middle" x="273.5" y="-72.6" font-family="Times-Roman" font-size="8.00">calls</text>
</g>
<!-- L4YAML.Scanner.skipWhitespaceLoop.eq_def -->
<g id="node3" class="node">
<title>L4YAML.Scanner.skipWhitespaceLoop.eq_def</title>
<ellipse fill="#d4edda" stroke="#28a745" cx="106" cy="-115" rx="82.33" ry="18"/>
<text text-anchor="middle" x="106" y="-112.5" font-family="Helvetica" font-size="10.00">skipWhitespaceLoop.eq_def</text>
</g>
<!-- L4YAML.Scanner.skipWhitespaceLoop.eq_def&#45;&gt;L4YAML.Scanner.ScannerState -->
<g id="edge4" class="edge">
<title>L4YAML.Scanner.skipWhitespaceLoop.eq_def&#45;&gt;L4YAML.Scanner.ScannerState</title>
<path fill="none" stroke="#999999" stroke-dasharray="1,5" d="M136.79,-98.2C160.83,-85.87 194.39,-68.66 220.42,-55.31"/>
<polygon fill="#999999" stroke="#999999" points="221.75,-57.38 226.86,-52 219.51,-53.02 221.75,-57.38"/>
<text text-anchor="middle" x="199.5" y="-72.6" font-family="Times-Roman" font-size="8.00">about</text>
</g>
<!-- L4YAML.Scanner.skipWhitespaceLoop.eq_1 -->
<g id="node4" class="node">
<title>L4YAML.Scanner.skipWhitespaceLoop.eq_1</title>
<polygon fill="#fff3cd" stroke="#d4a017" points="186.44,-212.54 186.44,-227.46 137.56,-238 68.44,-238 19.56,-227.46 19.56,-212.54 68.44,-202 137.56,-202 186.44,-212.54"/>
<polygon fill="none" stroke="#d4a017" points="190.44,-209.31 190.44,-230.69 137.99,-242 68.01,-242 15.56,-230.69 15.56,-209.31 68.01,-198 137.99,-198 190.44,-209.31"/>
<text text-anchor="middle" x="103" y="-217.5" font-family="Helvetica" font-size="10.00">skipWhitespaceLoop.eq_1</text>
</g>
<!-- L4YAML.Scanner.skipWhitespaceLoop.eq_1&#45;&gt;L4YAML.Scanner.skipWhitespaceLoop -->
<g id="edge1" class="edge">
<title>L4YAML.Scanner.skipWhitespaceLoop.eq_1&#45;&gt;L4YAML.Scanner.skipWhitespaceLoop</title>
<path fill="none" stroke="#999999" stroke-dasharray="1,5" d="M141.15,-198.63C159.77,-188.39 182.34,-175.51 202,-163 214.53,-155.02 227.95,-145.63 239.4,-137.35"/>
<polygon fill="#999999" stroke="#999999" points="240.97,-139.23 245.19,-133.13 238.09,-135.27 240.97,-139.23"/>
<text text-anchor="middle" x="200.5" y="-173.6" font-family="Times-Roman" font-size="8.00">about</text>
</g>
<!-- L4YAML.Scanner.skipWhitespaceLoop.eq_1&#45;&gt;L4YAML.Scanner.skipWhitespaceLoop.eq_def -->
<g id="edge3" class="edge">
<title>L4YAML.Scanner.skipWhitespaceLoop.eq_1&#45;&gt;L4YAML.Scanner.skipWhitespaceLoop.eq_def</title>
<path fill="none" stroke="#28a745" stroke-width="2" d="M103.62,-197.66C104.11,-180.95 104.79,-157.71 105.29,-140.29"/>
<polygon fill="#28a745" stroke="#28a745" stroke-width="2" points="107.74,-140.29 105.5,-133.22 102.85,-140.15 107.74,-140.29"/>
<text text-anchor="middle" x="114" y="-173.6" font-family="Times-Roman" font-size="8.00">uses</text>
</g>
</g>
</svg>
