<?xml version="1.0" encoding="UTF-8" standalone="no"?>
<!DOCTYPE svg PUBLIC "-//W3C//DTD SVG 1.1//EN"
 "http://www.w3.org/Graphics/SVG/1.1/DTD/svg11.dtd">
<!-- Generated by graphviz version 2.44.0 (0)
 -->
<!-- Title: chain_ScannerCoupling.raw_next_gt Pages: 1 -->
<svg width="337pt" height="98pt"
 viewBox="0.00 0.00 337.00 97.92" xmlns="http://www.w3.org/2000/svg" xmlns:xlink="http://www.w3.org/1999/xlink">
<g id="graph0" class="graph" transform="scale(1 1) rotate(0) translate(4 93.92)">
<title>chain_ScannerCoupling.raw_next_gt</title>
<polygon fill="white" stroke="transparent" points="-4,4 -4,-93.92 333,-93.92 333,4 -4,4"/>
<text text-anchor="middle" x="164.5" y="-75.52" font-family="Helvetica Bold" font-size="13.00">Functorial Chains: ScannerCoupling.raw_next_gt</text>
<text text-anchor="middle" x="164.5" y="-61.52" font-family="Helvetica Bold" font-size="13.00">(heuristic: used by 7 proofs)</text>
<!-- L4YAML.Proofs.ScannerCoupling.raw_next_gt -->
<g id="node1" class="node">
<title>L4YAML.Proofs.ScannerCoupling.raw_next_gt</title>
<polygon fill="#fff3cd" stroke="black" points="277.02,-17.46 277.02,-36.46 211.11,-49.89 117.89,-49.89 51.98,-36.46 51.98,-17.46 117.89,-4.03 211.11,-4.03 277.02,-17.46"/>
<polygon fill="none" stroke="black" points="281.02,-14.2 281.02,-39.72 211.51,-53.88 117.49,-53.88 47.98,-39.72 47.98,-14.2 117.49,-0.04 211.51,-0.04 281.02,-14.2"/>
<text text-anchor="middle" x="164.5" y="-29.96" font-family="Helvetica" font-size="10.00">ScannerCoupling.raw_next_gt</text>
<text text-anchor="middle" x="164.5" y="-18.96" font-family="Helvetica" font-size="10.00">(no functorial chains found)</text>
</g>
</g>
</svg>
