<?xml version="1.0" encoding="UTF-8" standalone="no"?>
<!DOCTYPE svg PUBLIC "-//W3C//DTD SVG 1.1//EN"
 "http://www.w3.org/Graphics/SVG/1.1/DTD/svg11.dtd">
<!-- Generated by graphviz version 2.44.0 (0)
 -->
<!-- Title: chain_RoundTrip.contentEq_refl Pages: 1 -->
<svg width="1264pt" height="324pt"
 viewBox="0.00 0.00 1264.00 324.00" xmlns="http://www.w3.org/2000/svg" xmlns:xlink="http://www.w3.org/1999/xlink">
<g id="graph0" class="graph" transform="scale(1 1) rotate(0) translate(4 320)">
<title>chain_RoundTrip.contentEq_refl</title>
<polygon fill="white" stroke="transparent" points="-4,4 -4,-320 1260,-320 1260,4 -4,4"/>
<text text-anchor="middle" x="628" y="-301.6" font-family="Helvetica Bold" font-size="13.00">Functorial Chains: RoundTrip.contentEq_refl</text>
<text text-anchor="middle" x="628" y="-287.6" font-family="Helvetica Bold" font-size="13.00">Content equality is reflexive</text>
<g id="clust1" class="cluster">
<title>cluster_fns</title>
<polygon fill="none" stroke="#4a90d9" stroke-dasharray="5,2" points="823,-8 823,-163 1248,-163 1248,-8 823,-8"/>
<text text-anchor="middle" x="1035.5" y="-148.6" font-family="Helvetica Bold" font-size="13.00" fill="#4a90d9">Functions (Call Chain)</text>
</g>
<g id="clust2" class="cluster">
<title>cluster_thms</title>
<polygon fill="none" stroke="#28a745" stroke-dasharray="5,2" points="8,-89 8,-272 815,-272 815,-89 8,-89"/>
<text text-anchor="middle" x="411.5" y="-257.6" font-family="Helvetica Bold" font-size="13.00" fill="#28a745">Theorems (Proof Chain)</text>
</g>
<!-- L4YAML.YamlValue.mapping -->
<g id="node1" class="node">
<title>L4YAML.YamlValue.mapping</title>
<polygon fill="#dce9f7" stroke="#4a90d9" points="1240,-52 1138,-52 1138,-16 1240,-16 1240,-52"/>
<text text-anchor="middle" x="1189" y="-31.5" font-family="Helvetica" font-size="10.00">YamlValue.mapping</text>
</g>
<!-- L4YAML.CollectionStyle -->
<g id="node2" class="node">
<title>L4YAML.CollectionStyle</title>
<polygon fill="#dce9f7" stroke="#4a90d9" points="994.5,-52 911.5,-52 911.5,-16 994.5,-16 994.5,-52"/>
<text text-anchor="middle" x="953" y="-31.5" font-family="Helvetica" font-size="10.00">CollectionStyle</text>
</g>
<!-- L4YAML.YamlValue -->
<g id="node3" class="node">
<title>L4YAML.YamlValue</title>
<polygon fill="#dce9f7" stroke="#4a90d9" points="893,-52 831,-52 831,-16 893,-16 893,-52"/>
<text text-anchor="middle" x="862" y="-31.5" font-family="Helvetica" font-size="10.00">YamlValue</text>
</g>
<!-- L4YAML.YamlValue.sequence -->
<g id="node4" class="node">
<title>L4YAML.YamlValue.sequence</title>
<polygon fill="#dce9f7" stroke="#4a90d9" points="1119.5,-52 1012.5,-52 1012.5,-16 1119.5,-16 1119.5,-52"/>
<text text-anchor="middle" x="1066" y="-31.5" font-family="Helvetica" font-size="10.00">YamlValue.sequence</text>
</g>
<!-- L4YAML.Emit.contentEq -->
<g id="node5" class="node">
<title>L4YAML.Emit.contentEq</title>
<polygon fill="#dce9f7" stroke="#4a90d9" points="994.5,-133 911.5,-133 911.5,-97 994.5,-97 994.5,-133"/>
<text text-anchor="middle" x="953" y="-112.5" font-family="Helvetica" font-size="10.00">Emit.contentEq</text>
</g>
<!-- L4YAML.Emit.contentEq&#45;&gt;L4YAML.YamlValue.mapping -->
<g id="edge11" class="edge">
<title>L4YAML.Emit.contentEq&#45;&gt;L4YAML.YamlValue.mapping</title>
<path fill="none" stroke="#4a90d9" stroke-width="2" d="M994.65,-100.06C1032.58,-87.36 1088.96,-68.49 1131.24,-54.33"/>
<polygon fill="#4a90d9" stroke="#4a90d9" stroke-width="2" points="1132.04,-56.65 1137.9,-52.1 1130.49,-52 1132.04,-56.65"/>
<text text-anchor="middle" x="1087.5" y="-72.6" font-family="Times-Roman" font-size="8.00">calls</text>
</g>
<!-- L4YAML.Emit.contentEq&#45;&gt;L4YAML.CollectionStyle -->
<g id="edge9" class="edge">
<title>L4YAML.Emit.contentEq&#45;&gt;L4YAML.CollectionStyle</title>
<path fill="none" stroke="#4a90d9" stroke-width="2" d="M953,-96.86C953,-85.88 953,-71.48 953,-59.33"/>
<polygon fill="#4a90d9" stroke="#4a90d9" stroke-width="2" points="955.45,-59.11 953,-52.11 950.55,-59.11 955.45,-59.11"/>
<text text-anchor="middle" x="962.5" y="-72.6" font-family="Times-Roman" font-size="8.00">calls</text>
</g>
<!-- L4YAML.Emit.contentEq&#45;&gt;L4YAML.YamlValue -->
<g id="edge2" class="edge">
<title>L4YAML.Emit.contentEq&#45;&gt;L4YAML.YamlValue</title>
<path fill="none" stroke="#4a90d9" stroke-width="2" d="M933.25,-96.86C919.78,-85.16 901.81,-69.56 887.29,-56.95"/>
<polygon fill="#4a90d9" stroke="#4a90d9" stroke-width="2" points="888.6,-54.85 881.71,-52.11 885.39,-58.55 888.6,-54.85"/>
<text text-anchor="middle" x="919.5" y="-72.6" font-family="Times-Roman" font-size="8.00">calls</text>
</g>
<!-- L4YAML.Emit.contentEq&#45;&gt;L4YAML.YamlValue.sequence -->
<g id="edge16" class="edge">
<title>L4YAML.Emit.contentEq&#45;&gt;L4YAML.YamlValue.sequence</title>
<path fill="none" stroke="#4a90d9" stroke-width="2" d="M977.52,-96.86C994.55,-84.95 1017.36,-69.01 1035.55,-56.29"/>
<polygon fill="#4a90d9" stroke="#4a90d9" stroke-width="2" points="1037.2,-58.13 1041.53,-52.11 1034.39,-54.11 1037.2,-58.13"/>
<text text-anchor="middle" x="1021.5" y="-72.6" font-family="Times-Roman" font-size="8.00">calls</text>
</g>
<!-- L4YAML.YamlValue.mapping.sizeOf_spec -->
<g id="node6" class="node">
<title>L4YAML.YamlValue.mapping.sizeOf_spec</title>
<ellipse fill="#d4edda" stroke="#28a745" cx="713" cy="-115" rx="93.69" ry="18"/>
<text text-anchor="middle" x="713" y="-112.5" font-family="Helvetica" font-size="10.00">YamlValue.mapping.sizeOf_spec</text>
</g>
<!-- L4YAML.YamlValue.mapping.sizeOf_spec&#45;&gt;L4YAML.YamlValue.mapping -->
<g id="edge12" class="edge">
<title>L4YAML.YamlValue.mapping.sizeOf_spec&#45;&gt;L4YAML.YamlValue.mapping</title>
<path fill="none" stroke="#999999" stroke-dasharray="1,5" d="M763.55,-99.74C806.83,-87.62 863.87,-71.89 875,-70 986.58,-51.08 1017.53,-71.53 1129,-52 1129.63,-51.89 1130.26,-51.78 1130.9,-51.66"/>
<polygon fill="#999999" stroke="#999999" points="1131.4,-54.06 1137.77,-50.26 1130.43,-49.25 1131.4,-54.06"/>
<text text-anchor="middle" x="887.5" y="-72.6" font-family="Times-Roman" font-size="8.00">about</text>
</g>
<!-- L4YAML.YamlValue.mapping.sizeOf_spec&#45;&gt;L4YAML.CollectionStyle -->
<g id="edge10" class="edge">
<title>L4YAML.YamlValue.mapping.sizeOf_spec&#45;&gt;L4YAML.CollectionStyle</title>
<path fill="none" stroke="#999999" stroke-dasharray="1,5" d="M747.19,-98.02C770.8,-87.16 800.16,-74.07 813,-70 851.47,-57.8 863.01,-62.4 902,-52 902.86,-51.77 903.73,-51.53 904.61,-51.29"/>
<polygon fill="#999999" stroke="#999999" points="905.33,-53.63 911.38,-49.34 903.97,-48.92 905.33,-53.63"/>
<text text-anchor="middle" x="825.5" y="-72.6" font-family="Times-Roman" font-size="8.00">about</text>
</g>
<!-- L4YAML.YamlValue.mapping.sizeOf_spec&#45;&gt;L4YAML.YamlValue -->
<g id="edge8" class="edge">
<title>L4YAML.YamlValue.mapping.sizeOf_spec&#45;&gt;L4YAML.YamlValue</title>
<path fill="none" stroke="#999999" stroke-dasharray="1,5" d="M709.23,-96.8C708.3,-87.86 708.96,-77.31 715,-70 728.7,-53.45 785.05,-43.75 823.86,-38.91"/>
<polygon fill="#999999" stroke="#999999" points="824.24,-41.33 830.89,-38.06 823.65,-36.47 824.24,-41.33"/>
<text text-anchor="middle" x="727.5" y="-72.6" font-family="Times-Roman" font-size="8.00">about</text>
</g>
<!-- L4YAML.YamlValue.sequence.sizeOf_spec -->
<g id="node7" class="node">
<title>L4YAML.YamlValue.sequence.sizeOf_spec</title>
<ellipse fill="#d4edda" stroke="#28a745" cx="505" cy="-115" rx="96.58" ry="18"/>
<text text-anchor="middle" x="505" y="-112.5" font-family="Helvetica" font-size="10.00">YamlValue.sequence.sizeOf_spec</text>
</g>
<!-- L4YAML.YamlValue.sequence.sizeOf_spec&#45;&gt;L4YAML.CollectionStyle -->
<g id="edge15" class="edge">
<title>L4YAML.YamlValue.sequence.sizeOf_spec&#45;&gt;L4YAML.CollectionStyle</title>
<path fill="none" stroke="#999999" stroke-dasharray="1,5" d="M554.24,-99.39C589.28,-89.56 637.65,-77.14 681,-70 778.24,-54 805.45,-71.72 902,-52 902.87,-51.82 903.75,-51.63 904.64,-51.43"/>
<polygon fill="#999999" stroke="#999999" points="905.26,-53.8 911.47,-49.75 904.09,-49.05 905.26,-53.8"/>
<text text-anchor="middle" x="693.5" y="-72.6" font-family="Times-Roman" font-size="8.00">about</text>
</g>
<!-- L4YAML.YamlValue.sequence.sizeOf_spec&#45;&gt;L4YAML.YamlValue -->
<g id="edge14" class="edge">
<title>L4YAML.YamlValue.sequence.sizeOf_spec&#45;&gt;L4YAML.YamlValue</title>
<path fill="none" stroke="#999999" stroke-dasharray="1,5" d="M521.89,-96.97C532.49,-87.38 546.95,-76.13 562,-70 608.56,-51.04 753.7,-40.84 823.61,-36.92"/>
<polygon fill="#999999" stroke="#999999" points="824.09,-39.35 830.94,-36.52 823.82,-34.46 824.09,-39.35"/>
<text text-anchor="middle" x="574.5" y="-72.6" font-family="Times-Roman" font-size="8.00">about</text>
</g>
<!-- L4YAML.YamlValue.sequence.sizeOf_spec&#45;&gt;L4YAML.YamlValue.sequence -->
<g id="edge17" class="edge">
<title>L4YAML.YamlValue.sequence.sizeOf_spec&#45;&gt;L4YAML.YamlValue.sequence</title>
<path fill="none" stroke="#999999" stroke-dasharray="1,5" d="M557.29,-99.84C574.02,-95.77 592.69,-91.71 610,-89 667.25,-80.04 683.61,-92.35 740,-79 750.28,-76.57 751.72,-72.42 762,-70 866.98,-45.28 897.72,-70.35 1004,-52 1004.43,-51.93 1004.86,-51.85 1005.29,-51.77"/>
<polygon fill="#999999" stroke="#999999" points="1005.98,-54.14 1012.37,-50.39 1005.03,-49.33 1005.98,-54.14"/>
<text text-anchor="middle" x="774.5" y="-72.6" font-family="Times-Roman" font-size="8.00">about</text>
</g>
<!-- L4YAML.Proofs.RoundTrip.contentEqPairList_refl -->
<g id="node8" class="node">
<title>L4YAML.Proofs.RoundTrip.contentEqPairList_refl</title>
<ellipse fill="#d4edda" stroke="#28a745" cx="110" cy="-115" rx="94.37" ry="18"/>
<text text-anchor="middle" x="110" y="-112.5" font-family="Helvetica" font-size="10.00">RoundTrip.contentEqPairList_refl</text>
</g>
<!-- L4YAML.Proofs.RoundTrip.contentEqPairList_refl&#45;&gt;L4YAML.YamlValue -->
<g id="edge6" class="edge">
<title>L4YAML.Proofs.RoundTrip.contentEqPairList_refl&#45;&gt;L4YAML.YamlValue</title>
<path fill="none" stroke="#999999" stroke-dasharray="1,5" d="M161.56,-99.86C177.9,-95.82 196.11,-91.77 213,-89 442.68,-51.39 722.61,-39.35 823.48,-36.07"/>
<polygon fill="#999999" stroke="#999999" points="823.79,-38.52 830.71,-35.85 823.64,-33.62 823.79,-38.52"/>
<text text-anchor="middle" x="348.5" y="-72.6" font-family="Times-Roman" font-size="8.00">about</text>
</g>
<!-- L4YAML.Proofs.RoundTrip.contentEq_refl -->
<g id="node9" class="node">
<title>L4YAML.Proofs.RoundTrip.contentEq_refl</title>
<polygon fill="#fff3cd" stroke="#d4a017" points="585.84,-212.54 585.84,-227.46 538.49,-238 471.51,-238 424.16,-227.46 424.16,-212.54 471.51,-202 538.49,-202 585.84,-212.54"/>
<polygon fill="none" stroke="#d4a017" points="589.84,-209.34 589.84,-230.66 538.93,-242 471.07,-242 420.16,-230.66 420.16,-209.34 471.07,-198 538.93,-198 589.84,-209.34"/>
<text text-anchor="middle" x="505" y="-217.5" font-family="Helvetica" font-size="10.00">RoundTrip.contentEq_refl</text>
</g>
<!-- L4YAML.Proofs.RoundTrip.contentEq_refl&#45;&gt;L4YAML.Emit.contentEq -->
<g id="edge1" class="edge">
<title>L4YAML.Proofs.RoundTrip.contentEq_refl&#45;&gt;L4YAML.Emit.contentEq</title>
<path fill="none" stroke="#999999" stroke-dasharray="1,5" d="M585.46,-208.29C649.36,-198.92 740.67,-183.58 819,-163 847.89,-155.41 879.46,-144.47 904.69,-135.06"/>
<polygon fill="#999999" stroke="#999999" points="905.6,-137.34 911.29,-132.58 903.88,-132.75 905.6,-137.34"/>
<text text-anchor="middle" x="797.5" y="-173.6" font-family="Times-Roman" font-size="8.00">about</text>
</g>
<!-- L4YAML.Proofs.RoundTrip.contentEq_refl&#45;&gt;L4YAML.YamlValue.mapping.sizeOf_spec -->
<g id="edge7" class="edge">
<title>L4YAML.Proofs.RoundTrip.contentEq_refl&#45;&gt;L4YAML.YamlValue.mapping.sizeOf_spec</title>
<path fill="none" stroke="#28a745" stroke-width="2" d="M545.1,-199.14C582.33,-180.7 637.4,-153.44 674.21,-135.21"/>
<polygon fill="#28a745" stroke="#28a745" stroke-width="2" points="675.67,-137.22 680.86,-131.92 673.5,-132.83 675.67,-137.22"/>
<text text-anchor="middle" x="606" y="-173.6" font-family="Times-Roman" font-size="8.00">uses</text>
</g>
<!-- L4YAML.Proofs.RoundTrip.contentEq_refl&#45;&gt;L4YAML.YamlValue.sequence.sizeOf_spec -->
<g id="edge13" class="edge">
<title>L4YAML.Proofs.RoundTrip.contentEq_refl&#45;&gt;L4YAML.YamlValue.sequence.sizeOf_spec</title>
<path fill="none" stroke="#28a745" stroke-width="2" d="M505,-197.66C505,-180.95 505,-157.71 505,-140.29"/>
<polygon fill="#28a745" stroke="#28a745" stroke-width="2" points="507.45,-140.22 505,-133.22 502.55,-140.22 507.45,-140.22"/>
<text text-anchor="middle" x="515" y="-173.6" font-family="Times-Roman" font-size="8.00">uses</text>
</g>
<!-- L4YAML.Proofs.RoundTrip.contentEq_refl&#45;&gt;L4YAML.Proofs.RoundTrip.contentEqPairList_refl -->
<g id="edge5" class="edge">
<title>L4YAML.Proofs.RoundTrip.contentEq_refl&#45;&gt;L4YAML.Proofs.RoundTrip.contentEqPairList_refl</title>
<path fill="none" stroke="#28a745" stroke-width="2" d="M423.14,-208.64C363.88,-199.86 282.34,-185.12 213,-163 190.29,-155.75 165.98,-144.82 146.68,-135.33"/>
<polygon fill="#28a745" stroke="#28a745" stroke-width="2" points="147.69,-133.1 140.34,-132.17 145.51,-137.48 147.69,-133.1"/>
<text text-anchor="middle" x="277" y="-173.6" font-family="Times-Roman" font-size="8.00">uses</text>
</g>
<!-- L4YAML.Proofs.RoundTrip.contentEqList_refl -->
<g id="node10" class="node">
<title>L4YAML.Proofs.RoundTrip.contentEqList_refl</title>
<ellipse fill="#d4edda" stroke="#28a745" cx="306" cy="-115" rx="84.36" ry="18"/>
<text text-anchor="middle" x="306" y="-112.5" font-family="Helvetica" font-size="10.00">RoundTrip.contentEqList_refl</text>
</g>
<!-- L4YAML.Proofs.RoundTrip.contentEq_refl&#45;&gt;L4YAML.Proofs.RoundTrip.contentEqList_refl -->
<g id="edge3" class="edge">
<title>L4YAML.Proofs.RoundTrip.contentEq_refl&#45;&gt;L4YAML.Proofs.RoundTrip.contentEqList_refl</title>
<path fill="none" stroke="#28a745" stroke-width="2" d="M466.16,-198.9C430.49,-180.43 377.99,-153.26 342.94,-135.12"/>
<polygon fill="#28a745" stroke="#28a745" stroke-width="2" points="343.95,-132.88 336.6,-131.84 341.69,-137.23 343.95,-132.88"/>
<text text-anchor="middle" x="439" y="-173.6" font-family="Times-Roman" font-size="8.00">uses</text>
</g>
<!-- L4YAML.Proofs.RoundTrip.contentEqList_refl&#45;&gt;L4YAML.YamlValue -->
<g id="edge4" class="edge">
<title>L4YAML.Proofs.RoundTrip.contentEqList_refl&#45;&gt;L4YAML.YamlValue</title>
<path fill="none" stroke="#999999" stroke-dasharray="1,5" d="M354.04,-100.07C368.42,-96.18 384.29,-92.15 399,-89 554.23,-55.73 743.43,-41.74 823.39,-37.02"/>
<polygon fill="#999999" stroke="#999999" points="823.94,-39.44 830.78,-36.59 823.65,-34.55 823.94,-39.44"/>
<text text-anchor="middle" x="511.5" y="-72.6" font-family="Times-Roman" font-size="8.00">about</text>
</g>
</g>
</svg>
