<?xml version="1.0" encoding="UTF-8" standalone="no"?>
<!DOCTYPE svg PUBLIC "-//W3C//DTD SVG 1.1//EN"
 "http://www.w3.org/Graphics/SVG/1.1/DTD/svg11.dtd">
<!-- Generated by graphviz version 2.44.0 (0)
 -->
<!-- Title: chain_CouplingBridge.ScannerSurfCorr.input_prefix Pages: 1 -->
<svg width="440pt" height="98pt"
 viewBox="0.00 0.00 440.00 97.92" xmlns="http://www.w3.org/2000/svg" xmlns:xlink="http://www.w3.org/1999/xlink">
<g id="graph0" class="graph" transform="scale(1 1) rotate(0) translate(4 93.92)">
<title>chain_CouplingBridge.ScannerSurfCorr.input_prefix</title>
<polygon fill="white" stroke="transparent" points="-4,4 -4,-93.92 436,-93.92 436,4 -4,4"/>
<text text-anchor="middle" x="216" y="-75.52" font-family="Helvetica Bold" font-size="13.00">Functorial Chains: CouplingBridge.ScannerSurfCorr.input_prefix</text>
<text text-anchor="middle" x="216" y="-61.52" font-family="Helvetica Bold" font-size="13.00">(heuristic: used by 83 proofs)</text>
<!-- L4YAML.Proofs.CouplingBridge.ScannerSurfCorr.input_prefix -->
<g id="node1" class="node">
<title>L4YAML.Proofs.CouplingBridge.ScannerSurfCorr.input_prefix</title>
<polygon fill="#fff3cd" stroke="black" points="378.02,-17.46 378.02,-36.46 283.11,-49.89 148.89,-49.89 53.98,-36.46 53.98,-17.46 148.89,-4.03 283.11,-4.03 378.02,-17.46"/>
<polygon fill="none" stroke="black" points="382.02,-14 382.02,-39.93 283.39,-53.88 148.61,-53.88 49.98,-39.93 49.98,-14 148.61,-0.04 283.39,-0.04 382.02,-14"/>
<text text-anchor="middle" x="216" y="-29.96" font-family="Helvetica" font-size="10.00">CouplingBridge.ScannerSurfCorr.input_prefix</text>
<text text-anchor="middle" x="216" y="-18.96" font-family="Helvetica" font-size="10.00">(no functorial chains found)</text>
</g>
</g>
</svg>
