<?xml version="1.0" encoding="UTF-8" standalone="no"?>
<!DOCTYPE svg PUBLIC "-//W3C//DTD SVG 1.1//EN"
 "http://www.w3.org/Graphics/SVG/1.1/DTD/svg11.dtd">
<!-- Generated by graphviz version 2.44.0 (0)
 -->
<!-- Title: chain_CouplingBridge.peek_corr Pages: 1 -->
<svg width="1208pt" height="432pt"
 viewBox="0.00 0.00 1208.00 432.00" xmlns="http://www.w3.org/2000/svg" xmlns:xlink="http://www.w3.org/1999/xlink">
<g id="graph0" class="graph" transform="scale(1 1) rotate(0) translate(4 428)">
<title>chain_CouplingBridge.peek_corr</title>
<polygon fill="white" stroke="transparent" points="-4,4 -4,-428 1204,-428 1204,4 -4,4"/>
<text text-anchor="middle" x="600" y="-409.6" font-family="Helvetica Bold" font-size="13.00">Functorial Chains: CouplingBridge.peek_corr</text>
<text text-anchor="middle" x="600" y="-395.6" font-family="Helvetica Bold" font-size="13.00">(heuristic: used by 8 proofs)</text>
<g id="clust1" class="cluster">
<title>cluster_fns</title>
<polygon fill="none" stroke="#4a90d9" stroke-dasharray="5,2" points="8,-8 8,-271 409,-271 409,-8 8,-8"/>
<text text-anchor="middle" x="208.5" y="-256.6" font-family="Helvetica Bold" font-size="13.00" fill="#4a90d9">Functions (Call Chain)</text>
</g>
<g id="clust2" class="cluster">
<title>cluster_thms</title>
<polygon fill="none" stroke="#28a745" stroke-dasharray="5,2" points="417,-197 417,-380 1158,-380 1158,-197 417,-197"/>
<text text-anchor="middle" x="787.5" y="-365.6" font-family="Helvetica Bold" font-size="13.00" fill="#28a745">Theorems (Proof Chain)</text>
</g>
<!-- L4YAML.Scanner.ScannerState.input -->
<g id="node1" class="node">
<title>L4YAML.Scanner.ScannerState.input</title>
<g id="a_node1"><a xlink:href="../../../api/L4YAML/Scanner.html#L4YAML.Scanner.ScannerState.input" xlink:title="ScannerState.input" target="_blank">
<polygon fill="#dce9f7" stroke="#4a90d9" points="116,-133 16,-133 16,-97 116,-97 116,-133"/>
<text text-anchor="middle" x="66" y="-112.5" font-family="Helvetica" font-size="10.00">ScannerState.input</text>
</a>
</g>
</g>
<!-- L4YAML.Scanner.ScannerState.peek? -->
<g id="node2" class="node">
<title>L4YAML.Scanner.ScannerState.peek?</title>
<g id="a_node2"><a xlink:href="../../../api/L4YAML/Scanner.html#L4YAML.Scanner.ScannerState.peek?" xlink:title="ScannerState.peek?" target="_blank">
<polygon fill="#dce9f7" stroke="#4a90d9" points="369,-241 265,-241 265,-205 369,-205 369,-241"/>
<text text-anchor="middle" x="317" y="-220.5" font-family="Helvetica" font-size="10.00">ScannerState.peek?</text>
</a>
</g>
</g>
<!-- L4YAML.Scanner.ScannerState.peek?&#45;&gt;L4YAML.Scanner.ScannerState.input -->
<g id="edge18" class="edge">
<title>L4YAML.Scanner.ScannerState.peek?&#45;&gt;L4YAML.Scanner.ScannerState.input</title>
<path fill="none" stroke="#4a90d9" stroke-width="2" d="M279.77,-204.98C272.04,-201.95 263.85,-199.09 256,-197 223.51,-188.33 212.67,-198.3 181,-187 148.54,-175.42 115.47,-153.75 93.18,-137.39"/>
<polygon fill="#4a90d9" stroke="#4a90d9" stroke-width="2" points="94.55,-135.35 87.47,-133.14 91.62,-139.28 94.55,-135.35"/>
<text text-anchor="middle" x="190.5" y="-167.1" font-family="Times-Roman" font-size="8.00">calls</text>
</g>
<!-- L4YAML.Scanner.ScannerState.offset -->
<g id="node4" class="node">
<title>L4YAML.Scanner.ScannerState.offset</title>
<g id="a_node4"><a xlink:href="../../../api/L4YAML/Scanner.html#L4YAML.Scanner.ScannerState.offset" xlink:title="ScannerState.offset" target="_blank">
<polygon fill="#dce9f7" stroke="#4a90d9" points="400.5,-133 297.5,-133 297.5,-97 400.5,-97 400.5,-133"/>
<text text-anchor="middle" x="349" y="-112.5" font-family="Helvetica" font-size="10.00">ScannerState.offset</text>
</a>
</g>
</g>
<!-- L4YAML.Scanner.ScannerState.peek?&#45;&gt;L4YAML.Scanner.ScannerState.offset -->
<g id="edge2" class="edge">
<title>L4YAML.Scanner.ScannerState.peek?&#45;&gt;L4YAML.Scanner.ScannerState.offset</title>
<path fill="none" stroke="#4a90d9" stroke-width="2" d="M273.92,-204.93C261.58,-199.12 250.5,-192.66 247,-187 238.59,-173.39 237.7,-164.02 247,-151 250.01,-146.79 269.43,-139.69 290.54,-132.98"/>
<polygon fill="#4a90d9" stroke="#4a90d9" stroke-width="2" points="291.49,-135.25 297.43,-130.82 290.02,-130.58 291.49,-135.25"/>
<text text-anchor="middle" x="256.5" y="-167.1" font-family="Times-Roman" font-size="8.00">calls</text>
</g>
<!-- L4YAML.Scanner.ScannerState -->
<g id="node3" class="node">
<title>L4YAML.Scanner.ScannerState</title>
<g id="a_node3"><a xlink:href="../../../api/L4YAML/Scanner.html#L4YAML.Scanner.ScannerState" xlink:title="ScannerState" target="_blank">
<polygon fill="#dce9f7" stroke="#4a90d9" points="401,-52 325,-52 325,-16 401,-16 401,-52"/>
<text text-anchor="middle" x="363" y="-31.5" font-family="Helvetica" font-size="10.00">ScannerState</text>
</a>
</g>
</g>
<!-- L4YAML.Scanner.ScannerState.offset&#45;&gt;L4YAML.Scanner.ScannerState -->
<g id="edge12" class="edge">
<title>L4YAML.Scanner.ScannerState.offset&#45;&gt;L4YAML.Scanner.ScannerState</title>
<path fill="none" stroke="#4a90d9" stroke-width="2" d="M352.04,-96.86C353.98,-85.88 356.54,-71.48 358.69,-59.33"/>
<polygon fill="#4a90d9" stroke="#4a90d9" stroke-width="2" points="361.16,-59.43 359.97,-52.11 356.33,-58.57 361.16,-59.43"/>
<text text-anchor="middle" x="365.5" y="-72.6" font-family="Times-Roman" font-size="8.00">calls</text>
</g>
<!-- L4YAML.Surface.SurfPos -->
<g id="node5" class="node">
<title>L4YAML.Surface.SurfPos</title>
<g id="a_node5"><a xlink:href="../../../api/L4YAML/Surface/Combinators.html#L4YAML.Surface.SurfPos" xlink:title="Surface.SurfPos" target="_blank">
<polygon fill="#dce9f7" stroke="#4a90d9" points="279,-133 189,-133 189,-97 279,-97 279,-133"/>
<text text-anchor="middle" x="234" y="-112.5" font-family="Helvetica" font-size="10.00">Surface.SurfPos</text>
</a>
</g>
</g>
<!-- L4YAML.Scanner.ScannerState.inputEnd -->
<g id="node6" class="node">
<title>L4YAML.Scanner.ScannerState.inputEnd</title>
<g id="a_node6"><a xlink:href="../../../api/L4YAML/Scanner.html#L4YAML.Scanner.ScannerState.inputEnd" xlink:title="ScannerState.inputEnd" target="_blank">
<polygon fill="#dce9f7" stroke="#4a90d9" points="392.5,-187 275.5,-187 275.5,-151 392.5,-151 392.5,-187"/>
<text text-anchor="middle" x="334" y="-166.5" font-family="Helvetica" font-size="10.00">ScannerState.inputEnd</text>
</a>
</g>
</g>
<!-- L4YAML.Scanner.ScannerState.inputEnd&#45;&gt;L4YAML.Scanner.ScannerState -->
<g id="edge17" class="edge">
<title>L4YAML.Scanner.ScannerState.inputEnd&#45;&gt;L4YAML.Scanner.ScannerState</title>
<path fill="none" stroke="#4a90d9" stroke-width="2" d="M275.46,-152.21C273.62,-151.79 271.8,-151.39 270,-151 246,-145.84 176.88,-151.72 161,-133 150.65,-120.8 151.49,-109.87 161,-97 196.88,-48.46 270.09,-36.7 317.82,-34.5"/>
<polygon fill="#4a90d9" stroke="#4a90d9" stroke-width="2" points="318.06,-36.94 324.96,-34.23 317.88,-32.05 318.06,-36.94"/>
<text text-anchor="middle" x="170.5" y="-113.1" font-family="Times-Roman" font-size="8.00">calls</text>
</g>
<!-- L4YAML.Surface.SurfPos.chars -->
<g id="node7" class="node">
<title>L4YAML.Surface.SurfPos.chars</title>
<g id="a_node7"><a xlink:href="../../../api/L4YAML/Surface/Combinators.html#L4YAML.Surface.SurfPos.chars" xlink:title="Surface.SurfPos.chars" target="_blank">
<polygon fill="#dce9f7" stroke="#4a90d9" points="247,-241 129,-241 129,-205 247,-205 247,-241"/>
<text text-anchor="middle" x="188" y="-220.5" font-family="Helvetica" font-size="10.00">Surface.SurfPos.chars</text>
</a>
</g>
</g>
<!-- L4YAML.Surface.SurfPos.chars&#45;&gt;L4YAML.Surface.SurfPos -->
<g id="edge6" class="edge">
<title>L4YAML.Surface.SurfPos.chars&#45;&gt;L4YAML.Surface.SurfPos</title>
<path fill="none" stroke="#4a90d9" stroke-width="2" d="M195.14,-204.72C201.13,-190.31 209.97,-169.25 218,-151 219.61,-147.33 221.35,-143.46 223.06,-139.68"/>
<polygon fill="#4a90d9" stroke="#4a90d9" stroke-width="2" points="225.41,-140.43 226.09,-133.05 220.95,-138.4 225.41,-140.43"/>
<text text-anchor="middle" x="227.5" y="-167.1" font-family="Times-Roman" font-size="8.00">calls</text>
</g>
<!-- L4YAML.Proofs.CouplingBridge.ScannerSurfCorr.chars_from -->
<g id="node8" class="node">
<title>L4YAML.Proofs.CouplingBridge.ScannerSurfCorr.chars_from</title>
<g id="a_node8"><a xlink:href="../../../api/L4YAML/Proofs/CouplingBridge.html#L4YAML.Proofs.CouplingBridge.ScannerSurfCorr.chars_from" xlink:title="CouplingBridge.ScannerSurfCorr.chars_from" target="_blank">
<ellipse fill="#d4edda" stroke="#28a745" cx="550" cy="-223" rx="124.59" ry="18"/>
<text text-anchor="middle" x="550" y="-220.5" font-family="Helvetica" font-size="10.00">CouplingBridge.ScannerSurfCorr.chars_from</text>
</a>
</g>
</g>
<!-- L4YAML.Proofs.CouplingBridge.ScannerSurfCorr.chars_from&#45;&gt;L4YAML.Scanner.ScannerState.input -->
<g id="edge19" class="edge">
<title>L4YAML.Proofs.CouplingBridge.ScannerSurfCorr.chars_from&#45;&gt;L4YAML.Scanner.ScannerState.input</title>
<path fill="none" stroke="#999999" stroke-dasharray="1,5" d="M460.21,-210.49C443.32,-205.29 426.69,-197.79 413,-187 398.79,-175.8 409.17,-160.86 394,-151 344.71,-118.94 188.02,-142.59 130,-133 127.73,-132.62 125.43,-132.2 123.11,-131.75"/>
<polygon fill="#999999" stroke="#999999" points="123.46,-129.32 116.11,-130.28 122.46,-134.12 123.46,-129.32"/>
<text text-anchor="middle" x="425.5" y="-167.1" font-family="Times-Roman" font-size="8.00">about</text>
</g>
<!-- L4YAML.Proofs.CouplingBridge.ScannerSurfCorr.chars_from&#45;&gt;L4YAML.Scanner.ScannerState -->
<g id="edge13" class="edge">
<title>L4YAML.Proofs.CouplingBridge.ScannerSurfCorr.chars_from&#45;&gt;L4YAML.Scanner.ScannerState</title>
<path fill="none" stroke="#999999" stroke-dasharray="1,5" d="M573.06,-204.97C578.29,-199.83 583.15,-193.74 586,-187 592.23,-172.26 594.3,-164.68 586,-151 547.42,-87.45 461.44,-57.11 408.23,-43.92"/>
<polygon fill="#999999" stroke="#999999" points="408.64,-41.51 401.27,-42.25 407.5,-46.27 408.64,-41.51"/>
<text text-anchor="middle" x="585.5" y="-113.1" font-family="Times-Roman" font-size="8.00">about</text>
</g>
<!-- L4YAML.Proofs.CouplingBridge.ScannerSurfCorr.chars_from&#45;&gt;L4YAML.Surface.SurfPos -->
<g id="edge8" class="edge">
<title>L4YAML.Proofs.CouplingBridge.ScannerSurfCorr.chars_from&#45;&gt;L4YAML.Surface.SurfPos</title>
<path fill="none" stroke="#999999" stroke-dasharray="1,5" d="M498.16,-206.54C486.47,-201.52 474.67,-195.09 465,-187 450.43,-174.82 458.09,-161.07 442,-151 383.59,-114.44 355.39,-147.41 288,-133 287.37,-132.87 286.74,-132.73 286.1,-132.58"/>
<polygon fill="#999999" stroke="#999999" points="286.59,-130.18 279.21,-130.91 285.43,-134.94 286.59,-130.18"/>
<text text-anchor="middle" x="477.5" y="-167.1" font-family="Times-Roman" font-size="8.00">about</text>
</g>
<!-- L4YAML.Proofs.CouplingBridge.ScannerSurfCorr.end_eq -->
<g id="node9" class="node">
<title>L4YAML.Proofs.CouplingBridge.ScannerSurfCorr.end_eq</title>
<g id="a_node9"><a xlink:href="../../../api/L4YAML/Proofs/CouplingBridge.html#L4YAML.Proofs.CouplingBridge.ScannerSurfCorr.end_eq" xlink:title="CouplingBridge.ScannerSurfCorr.end_eq" target="_blank">
<ellipse fill="#d4edda" stroke="#28a745" cx="807" cy="-223" rx="114.4" ry="18"/>
<text text-anchor="middle" x="807" y="-220.5" font-family="Helvetica" font-size="10.00">CouplingBridge.ScannerSurfCorr.end_eq</text>
</a>
</g>
</g>
<!-- L4YAML.Proofs.CouplingBridge.ScannerSurfCorr.end_eq&#45;&gt;L4YAML.Scanner.ScannerState -->
<g id="edge14" class="edge">
<title>L4YAML.Proofs.CouplingBridge.ScannerSurfCorr.end_eq&#45;&gt;L4YAML.Scanner.ScannerState</title>
<path fill="none" stroke="#999999" stroke-dasharray="1,5" d="M784.14,-205.21C747.41,-178.92 672.23,-127.83 602,-97 562.2,-79.53 550.03,-81.1 508,-70 474.76,-61.22 437.01,-52.13 408.35,-45.42"/>
<polygon fill="#999999" stroke="#999999" points="408.65,-42.97 401.27,-43.77 407.53,-47.74 408.65,-42.97"/>
<text text-anchor="middle" x="682.5" y="-113.1" font-family="Times-Roman" font-size="8.00">about</text>
</g>
<!-- L4YAML.Proofs.CouplingBridge.ScannerSurfCorr.end_eq&#45;&gt;L4YAML.Surface.SurfPos -->
<g id="edge10" class="edge">
<title>L4YAML.Proofs.CouplingBridge.ScannerSurfCorr.end_eq&#45;&gt;L4YAML.Surface.SurfPos</title>
<path fill="none" stroke="#999999" stroke-dasharray="1,5" d="M745.66,-207.75C726.06,-203.67 704.2,-199.63 684,-197 665.13,-194.54 529.42,-196.63 513,-187 496.62,-177.4 506.23,-160.85 490,-151 451.48,-127.61 332.2,-141.82 288,-133 287.37,-132.87 286.73,-132.74 286.09,-132.61"/>
<polygon fill="#999999" stroke="#999999" points="286.56,-130.2 279.19,-131.01 285.45,-134.97 286.56,-130.2"/>
<text text-anchor="middle" x="525.5" y="-167.1" font-family="Times-Roman" font-size="8.00">about</text>
</g>
<!-- L4YAML.Proofs.CouplingBridge.peek_corr -->
<g id="node10" class="node">
<title>L4YAML.Proofs.CouplingBridge.peek_corr</title>
<g id="a_node10"><a xlink:href="../../../api/L4YAML/Proofs/CouplingBridge.html#L4YAML.Proofs.CouplingBridge.peek_corr" xlink:title="CouplingBridge.peek_corr" target="_blank">
<polygon fill="#fff3cd" stroke="#d4a017" points="631.61,-320.54 631.61,-335.46 583.8,-346 516.2,-346 468.39,-335.46 468.39,-320.54 516.2,-310 583.8,-310 631.61,-320.54"/>
<polygon fill="none" stroke="#d4a017" points="635.61,-317.33 635.61,-338.67 584.24,-350 515.76,-350 464.39,-338.67 464.39,-317.33 515.76,-306 584.24,-306 635.61,-317.33"/>
<text text-anchor="middle" x="550" y="-325.5" font-family="Helvetica" font-size="10.00">CouplingBridge.peek_corr</text>
</a>
</g>
</g>
<!-- L4YAML.Proofs.CouplingBridge.peek_corr&#45;&gt;L4YAML.Scanner.ScannerState.peek? -->
<g id="edge1" class="edge">
<title>L4YAML.Proofs.CouplingBridge.peek_corr&#45;&gt;L4YAML.Scanner.ScannerState.peek?</title>
<path fill="none" stroke="#999999" stroke-dasharray="1,5" d="M464.38,-317.8C418.7,-311.45 368.22,-301.67 350,-288 336.97,-278.23 328.66,-261.82 323.63,-248.07"/>
<polygon fill="#999999" stroke="#999999" points="325.86,-247.02 321.3,-241.17 321.22,-248.59 325.86,-247.02"/>
<text text-anchor="middle" x="362.5" y="-281.6" font-family="Times-Roman" font-size="8.00">about</text>
</g>
<!-- L4YAML.Proofs.CouplingBridge.peek_corr&#45;&gt;L4YAML.Scanner.ScannerState.offset -->
<g id="edge11" class="edge">
<title>L4YAML.Proofs.CouplingBridge.peek_corr&#45;&gt;L4YAML.Scanner.ScannerState.offset</title>
<path fill="none" stroke="#999999" stroke-dasharray="1,5" d="M635.6,-325.39C795.01,-321.49 1124.43,-308.9 1159,-271 1181.17,-246.7 1180.16,-222.18 1159,-197 1102.94,-130.28 548,-134.29 530,-133 489.29,-130.09 443.53,-125.78 408.21,-122.23"/>
<polygon fill="#999999" stroke="#999999" points="408.04,-119.75 400.83,-121.49 407.55,-124.63 408.04,-119.75"/>
<text text-anchor="middle" x="1187.5" y="-221.1" font-family="Times-Roman" font-size="8.00">about</text>
</g>
<!-- L4YAML.Proofs.CouplingBridge.peek_corr&#45;&gt;L4YAML.Scanner.ScannerState.inputEnd -->
<g id="edge16" class="edge">
<title>L4YAML.Proofs.CouplingBridge.peek_corr&#45;&gt;L4YAML.Scanner.ScannerState.inputEnd</title>
<path fill="none" stroke="#999999" stroke-dasharray="1,5" d="M489.51,-311.74C464.47,-303.05 436.55,-290 416,-271 388.85,-245.9 403.13,-224.12 378,-197 376.25,-195.11 374.34,-193.31 372.33,-191.6"/>
<polygon fill="#999999" stroke="#999999" points="373.83,-189.66 366.81,-187.27 370.81,-193.52 373.83,-189.66"/>
<text text-anchor="middle" x="450.5" y="-281.6" font-family="Times-Roman" font-size="8.00">about</text>
</g>
<!-- L4YAML.Proofs.CouplingBridge.peek_corr&#45;&gt;L4YAML.Surface.SurfPos.chars -->
<g id="edge5" class="edge">
<title>L4YAML.Proofs.CouplingBridge.peek_corr&#45;&gt;L4YAML.Surface.SurfPos.chars</title>
<path fill="none" stroke="#999999" stroke-dasharray="1,5" d="M464.33,-322.34C403.66,-316.31 321.7,-302.52 256,-271 241.54,-264.07 226.76,-254.23 214.68,-245.35"/>
<polygon fill="#999999" stroke="#999999" points="216.05,-243.32 208.98,-241.08 213.11,-247.24 216.05,-243.32"/>
<text text-anchor="middle" x="306.5" y="-281.6" font-family="Times-Roman" font-size="8.00">about</text>
</g>
<!-- L4YAML.Proofs.CouplingBridge.peek_corr&#45;&gt;L4YAML.Proofs.CouplingBridge.ScannerSurfCorr.chars_from -->
<g id="edge7" class="edge">
<title>L4YAML.Proofs.CouplingBridge.peek_corr&#45;&gt;L4YAML.Proofs.CouplingBridge.ScannerSurfCorr.chars_from</title>
<path fill="none" stroke="#28a745" stroke-width="2" d="M550,-305.66C550,-288.95 550,-265.71 550,-248.29"/>
<polygon fill="#28a745" stroke="#28a745" stroke-width="2" points="552.45,-248.22 550,-241.22 547.55,-248.22 552.45,-248.22"/>
<text text-anchor="middle" x="560" y="-281.6" font-family="Times-Roman" font-size="8.00">uses</text>
</g>
<!-- L4YAML.Proofs.CouplingBridge.peek_corr&#45;&gt;L4YAML.Proofs.CouplingBridge.ScannerSurfCorr.end_eq -->
<g id="edge9" class="edge">
<title>L4YAML.Proofs.CouplingBridge.peek_corr&#45;&gt;L4YAML.Proofs.CouplingBridge.ScannerSurfCorr.end_eq</title>
<path fill="none" stroke="#28a745" stroke-width="2" d="M596.24,-308.47C642.66,-289.86 713.79,-261.36 760.35,-242.7"/>
<polygon fill="#28a745" stroke="#28a745" stroke-width="2" points="761.45,-244.9 767.03,-240.02 759.63,-240.35 761.45,-244.9"/>
<text text-anchor="middle" x="673" y="-281.6" font-family="Times-Roman" font-size="8.00">uses</text>
</g>
<!-- L4YAML.Proofs.CouplingBridge.peek_corr._proof_1_3 -->
<g id="node11" class="node">
<title>L4YAML.Proofs.CouplingBridge.peek_corr._proof_1_3</title>
<g id="a_node11"><a xlink:href="../../../api/L4YAML/Proofs/CouplingBridge.html#L4YAML.Proofs.CouplingBridge.peek_corr._proof_1_3" xlink:title="CouplingBridge.peek_corr._proof_1_3" target="_blank">
<ellipse fill="#d4edda" stroke="#28a745" cx="1045" cy="-223" rx="105.24" ry="18"/>
<text text-anchor="middle" x="1045" y="-220.5" font-family="Helvetica" font-size="10.00">CouplingBridge.peek_corr._proof_1_3</text>
</a>
</g>
</g>
<!-- L4YAML.Proofs.CouplingBridge.peek_corr&#45;&gt;L4YAML.Proofs.CouplingBridge.peek_corr._proof_1_3 -->
<g id="edge3" class="edge">
<title>L4YAML.Proofs.CouplingBridge.peek_corr&#45;&gt;L4YAML.Proofs.CouplingBridge.peek_corr._proof_1_3</title>
<path fill="none" stroke="#28a745" stroke-width="2" d="M635.73,-320.32C713.55,-312.87 830.95,-298.11 930,-271 955.64,-263.98 983.25,-252.83 1004.98,-243.15"/>
<polygon fill="#28a745" stroke="#28a745" stroke-width="2" points="1006.16,-245.31 1011.53,-240.2 1004.14,-240.84 1006.16,-245.31"/>
<text text-anchor="middle" x="899" y="-281.6" font-family="Times-Roman" font-size="8.00">uses</text>
</g>
<!-- L4YAML.Proofs.CouplingBridge.peek_corr._proof_1_3&#45;&gt;L4YAML.Scanner.ScannerState -->
<g id="edge15" class="edge">
<title>L4YAML.Proofs.CouplingBridge.peek_corr._proof_1_3&#45;&gt;L4YAML.Scanner.ScannerState</title>
<path fill="none" stroke="#999999" stroke-dasharray="1,5" d="M1007.51,-206.15C944.71,-180.12 813.82,-128.11 699,-97 596.73,-69.29 473.61,-50.07 408.51,-40.98"/>
<polygon fill="#999999" stroke="#999999" points="408.52,-38.5 401.25,-39.97 407.85,-43.36 408.52,-38.5"/>
<text text-anchor="middle" x="823.5" y="-113.1" font-family="Times-Roman" font-size="8.00">about</text>
</g>
<!-- L4YAML.Proofs.CouplingBridge.peek_corr._proof_1_3&#45;&gt;L4YAML.Scanner.ScannerState.offset -->
<g id="edge4" class="edge">
<title>L4YAML.Proofs.CouplingBridge.peek_corr._proof_1_3&#45;&gt;L4YAML.Scanner.ScannerState.offset</title>
<path fill="none" stroke="#999999" stroke-dasharray="1,5" d="M985.19,-208.1C967.47,-204.23 948,-200.21 930,-197 739.85,-163.13 512.59,-134.99 407.55,-122.68"/>
<polygon fill="#999999" stroke="#999999" points="407.74,-120.23 400.5,-121.85 407.17,-125.1 407.74,-120.23"/>
<text text-anchor="middle" x="879.5" y="-167.1" font-family="Times-Roman" font-size="8.00">about</text>
</g>
</g>
</svg>
