<?xml version="1.0" encoding="UTF-8" standalone="no"?>
<!DOCTYPE svg PUBLIC "-//W3C//DTD SVG 1.1//EN"
 "http://www.w3.org/Graphics/SVG/1.1/DTD/svg11.dtd">
<!-- Generated by graphviz version 2.44.0 (0)
 -->
<!-- Title: chain_collectDoubleQuotedLoop.eq_def Pages: 1 -->
<svg width="361pt" height="98pt"
 viewBox="0.00 0.00 361.00 97.92" xmlns="http://www.w3.org/2000/svg" xmlns:xlink="http://www.w3.org/1999/xlink">
<g id="graph0" class="graph" transform="scale(1 1) rotate(0) translate(4 93.92)">
<title>chain_collectDoubleQuotedLoop.eq_def</title>
<polygon fill="white" stroke="transparent" points="-4,4 -4,-93.92 357,-93.92 357,4 -4,4"/>
<text text-anchor="middle" x="176.5" y="-75.52" font-family="Helvetica Bold" font-size="13.00">Functorial Chains: collectDoubleQuotedLoop.eq_def</text>
<text text-anchor="middle" x="176.5" y="-61.52" font-family="Helvetica Bold" font-size="13.00">(heuristic: used by 11 proofs)</text>
<!-- L4YAML.Scanner.collectDoubleQuotedLoop.eq_def -->
<g id="node1" class="node">
<title>L4YAML.Scanner.collectDoubleQuotedLoop.eq_def</title>
<polygon fill="#fff3cd" stroke="black" points="299.94,-17.46 299.94,-36.46 227.63,-49.89 125.37,-49.89 53.06,-36.46 53.06,-17.46 125.37,-4.03 227.63,-4.03 299.94,-17.46"/>
<polygon fill="none" stroke="black" points="303.95,-14.15 303.95,-39.78 228,-53.88 125,-53.88 49.05,-39.78 49.05,-14.15 125,-0.04 228,-0.04 303.95,-14.15"/>
<text text-anchor="middle" x="176.5" y="-29.96" font-family="Helvetica" font-size="10.00">collectDoubleQuotedLoop.eq_def</text>
<text text-anchor="middle" x="176.5" y="-18.96" font-family="Helvetica" font-size="10.00">(no functorial chains found)</text>
</g>
</g>
</svg>
