<?xml version="1.0" encoding="UTF-8" standalone="no"?>
<!DOCTYPE svg PUBLIC "-//W3C//DTD SVG 1.1//EN"
 "http://www.w3.org/Graphics/SVG/1.1/DTD/svg11.dtd">
<!-- Generated by graphviz version 2.44.0 (0)
 -->
<!-- Title: chain_CouplingBridge.listByteSize_append Pages: 1 -->
<svg width="382pt" height="98pt"
 viewBox="0.00 0.00 382.00 97.92" xmlns="http://www.w3.org/2000/svg" xmlns:xlink="http://www.w3.org/1999/xlink">
<g id="graph0" class="graph" transform="scale(1 1) rotate(0) translate(4 93.92)">
<title>chain_CouplingBridge.listByteSize_append</title>
<polygon fill="white" stroke="transparent" points="-4,4 -4,-93.92 378,-93.92 378,4 -4,4"/>
<text text-anchor="middle" x="187" y="-75.52" font-family="Helvetica Bold" font-size="13.00">Functorial Chains: CouplingBridge.listByteSize_append</text>
<text text-anchor="middle" x="187" y="-61.52" font-family="Helvetica Bold" font-size="13.00">(heuristic: used by 6 proofs)</text>
<!-- L4YAML.Proofs.CouplingBridge.listByteSize_append -->
<g id="node1" class="node">
<title>L4YAML.Proofs.CouplingBridge.listByteSize_append</title>
<polygon fill="#fff3cd" stroke="black" points="320.34,-17.46 320.34,-36.46 242.23,-49.89 131.77,-49.89 53.66,-36.46 53.66,-17.46 131.77,-4.03 242.23,-4.03 320.34,-17.46"/>
<polygon fill="none" stroke="black" points="324.35,-14.1 324.35,-39.82 242.58,-53.88 131.42,-53.88 49.65,-39.82 49.65,-14.1 131.42,-0.04 242.58,-0.04 324.35,-14.1"/>
<text text-anchor="middle" x="187" y="-29.96" font-family="Helvetica" font-size="10.00">CouplingBridge.listByteSize_append</text>
<text text-anchor="middle" x="187" y="-18.96" font-family="Helvetica" font-size="10.00">(no functorial chains found)</text>
</g>
</g>
</svg>
