<?xml version="1.0" encoding="UTF-8" standalone="no"?>
<!DOCTYPE svg PUBLIC "-//W3C//DTD SVG 1.1//EN"
 "http://www.w3.org/Graphics/SVG/1.1/DTD/svg11.dtd">
<!-- Generated by graphviz version 2.44.0 (0)
 -->
<!-- Title: chain_ScannerCoupling.consumeNewline_offset_advance Pages: 1 -->
<svg width="951pt" height="513pt"
 viewBox="0.00 0.00 951.00 513.00" xmlns="http://www.w3.org/2000/svg" xmlns:xlink="http://www.w3.org/1999/xlink">
<g id="graph0" class="graph" transform="scale(1 1) rotate(0) translate(4 509)">
<title>chain_ScannerCoupling.consumeNewline_offset_advance</title>
<polygon fill="white" stroke="transparent" points="-4,4 -4,-509 947,-509 947,4 -4,4"/>
<text text-anchor="middle" x="471.5" y="-490.6" font-family="Helvetica Bold" font-size="13.00">Functorial Chains: ScannerCoupling.consumeNewline_offset_advance</text>
<text text-anchor="middle" x="471.5" y="-476.6" font-family="Helvetica Bold" font-size="13.00">(heuristic: used by 5 proofs)</text>
<g id="clust1" class="cluster">
<title>cluster_fns</title>
<polygon fill="none" stroke="#4a90d9" stroke-dasharray="5,2" points="8,-8 8,-352 478,-352 478,-8 8,-8"/>
<text text-anchor="middle" x="243" y="-337.6" font-family="Helvetica Bold" font-size="13.00" fill="#4a90d9">Functions (Call Chain)</text>
</g>
<g id="clust2" class="cluster">
<title>cluster_thms</title>
<polygon fill="none" stroke="#28a745" stroke-dasharray="5,2" points="607,-170 607,-461 935,-461 935,-170 607,-170"/>
<text text-anchor="middle" x="771" y="-446.6" font-family="Helvetica Bold" font-size="13.00" fill="#28a745">Theorems (Proof Chain)</text>
</g>
<!-- L4YAML.Scanner.ScannerState.input -->
<g id="node1" class="node">
<title>L4YAML.Scanner.ScannerState.input</title>
<g id="a_node1"><a xlink:href="../../../api/L4YAML/Scanner.html#L4YAML.Scanner.ScannerState.input" xlink:title="ScannerState.input" target="_blank">
<polygon fill="#dce9f7" stroke="#4a90d9" points="226,-214 126,-214 126,-178 226,-178 226,-214"/>
<text text-anchor="middle" x="176" y="-193.5" font-family="Helvetica" font-size="10.00">ScannerState.input</text>
</a>
</g>
</g>
<!-- L4YAML.Scanner.ScannerState -->
<g id="node5" class="node">
<title>L4YAML.Scanner.ScannerState</title>
<g id="a_node5"><a xlink:href="../../../api/L4YAML/Scanner.html#L4YAML.Scanner.ScannerState" xlink:title="ScannerState" target="_blank">
<polygon fill="#dce9f7" stroke="#4a90d9" points="321,-52 245,-52 245,-16 321,-16 321,-52"/>
<text text-anchor="middle" x="283" y="-31.5" font-family="Helvetica" font-size="10.00">ScannerState</text>
</a>
</g>
</g>
<!-- L4YAML.Scanner.ScannerState.input&#45;&gt;L4YAML.Scanner.ScannerState -->
<g id="edge12" class="edge">
<title>L4YAML.Scanner.ScannerState.input&#45;&gt;L4YAML.Scanner.ScannerState</title>
<path fill="none" stroke="#4a90d9" stroke-width="2" d="M171.19,-177.93C166.42,-157.43 161.58,-122.62 175,-97 187.79,-72.58 214.64,-57.11 238.36,-47.72"/>
<polygon fill="#4a90d9" stroke="#4a90d9" stroke-width="2" points="239.27,-50 244.95,-45.24 237.54,-45.41 239.27,-50"/>
<text text-anchor="middle" x="184.5" y="-113.1" font-family="Times-Roman" font-size="8.00">calls</text>
</g>
<!-- L4YAML.Scanner.ScannerState.advance -->
<g id="node2" class="node">
<title>L4YAML.Scanner.ScannerState.advance</title>
<g id="a_node2"><a xlink:href="../../../api/L4YAML/Scanner.html#L4YAML.Scanner.ScannerState.advance" xlink:title="ScannerState.advance" target="_blank">
<polygon fill="#dce9f7" stroke="#4a90d9" points="414.5,-214 299.5,-214 299.5,-178 414.5,-178 414.5,-214"/>
<text text-anchor="middle" x="357" y="-193.5" font-family="Helvetica" font-size="10.00">ScannerState.advance</text>
</a>
</g>
</g>
<!-- L4YAML.Scanner.ScannerState.advance&#45;&gt;L4YAML.Scanner.ScannerState -->
<g id="edge8" class="edge">
<title>L4YAML.Scanner.ScannerState.advance&#45;&gt;L4YAML.Scanner.ScannerState</title>
<path fill="none" stroke="#4a90d9" stroke-width="2" d="M307.24,-177.96C264.99,-163 210.21,-142.21 204,-133 185.19,-105.08 217.62,-75.28 246.44,-55.97"/>
<polygon fill="#4a90d9" stroke="#4a90d9" stroke-width="2" points="247.98,-57.88 252.51,-52.01 245.31,-53.78 247.98,-57.88"/>
<text text-anchor="middle" x="213.5" y="-113.1" font-family="Times-Roman" font-size="8.00">calls</text>
</g>
<!-- L4YAML.Scanner.ScannerState.offset -->
<g id="node6" class="node">
<title>L4YAML.Scanner.ScannerState.offset</title>
<g id="a_node6"><a xlink:href="../../../api/L4YAML/Scanner.html#L4YAML.Scanner.ScannerState.offset" xlink:title="ScannerState.offset" target="_blank">
<polygon fill="#dce9f7" stroke="#4a90d9" points="334.5,-133 231.5,-133 231.5,-97 334.5,-97 334.5,-133"/>
<text text-anchor="middle" x="283" y="-112.5" font-family="Helvetica" font-size="10.00">ScannerState.offset</text>
</a>
</g>
</g>
<!-- L4YAML.Scanner.ScannerState.advance&#45;&gt;L4YAML.Scanner.ScannerState.offset -->
<g id="edge21" class="edge">
<title>L4YAML.Scanner.ScannerState.advance&#45;&gt;L4YAML.Scanner.ScannerState.offset</title>
<path fill="none" stroke="#4a90d9" stroke-width="2" d="M340.94,-177.86C330.08,-166.26 315.63,-150.84 303.88,-138.29"/>
<polygon fill="#4a90d9" stroke="#4a90d9" stroke-width="2" points="305.6,-136.54 299.03,-133.11 302.02,-139.89 305.6,-136.54"/>
<text text-anchor="middle" x="331.5" y="-153.6" font-family="Times-Roman" font-size="8.00">calls</text>
</g>
<!-- L4YAML.Scanner.ScannerState.inputEnd -->
<g id="node7" class="node">
<title>L4YAML.Scanner.ScannerState.inputEnd</title>
<g id="a_node7"><a xlink:href="../../../api/L4YAML/Scanner.html#L4YAML.Scanner.ScannerState.inputEnd" xlink:title="ScannerState.inputEnd" target="_blank">
<polygon fill="#dce9f7" stroke="#4a90d9" points="469.5,-133 352.5,-133 352.5,-97 469.5,-97 469.5,-133"/>
<text text-anchor="middle" x="411" y="-112.5" font-family="Helvetica" font-size="10.00">ScannerState.inputEnd</text>
</a>
</g>
</g>
<!-- L4YAML.Scanner.ScannerState.advance&#45;&gt;L4YAML.Scanner.ScannerState.inputEnd -->
<g id="edge5" class="edge">
<title>L4YAML.Scanner.ScannerState.advance&#45;&gt;L4YAML.Scanner.ScannerState.inputEnd</title>
<path fill="none" stroke="#4a90d9" stroke-width="2" d="M368.72,-177.86C376.5,-166.47 386.81,-151.39 395.3,-138.96"/>
<polygon fill="#4a90d9" stroke="#4a90d9" stroke-width="2" points="397.38,-140.27 399.31,-133.11 393.33,-137.5 397.38,-140.27"/>
<text text-anchor="middle" x="394.5" y="-153.6" font-family="Times-Roman" font-size="8.00">calls</text>
</g>
<!-- L4YAML.Scanner.consumeNewline -->
<g id="node3" class="node">
<title>L4YAML.Scanner.consumeNewline</title>
<g id="a_node3"><a xlink:href="../../../api/L4YAML/Scanner.html#L4YAML.Scanner.consumeNewline" xlink:title="consumeNewline" target="_blank">
<polygon fill="#dce9f7" stroke="#4a90d9" points="403,-322 311,-322 311,-286 403,-286 403,-322"/>
<text text-anchor="middle" x="357" y="-301.5" font-family="Helvetica" font-size="10.00">consumeNewline</text>
</a>
</g>
</g>
<!-- L4YAML.Scanner.consumeNewline&#45;&gt;L4YAML.Scanner.ScannerState.input -->
<g id="edge10" class="edge">
<title>L4YAML.Scanner.consumeNewline&#45;&gt;L4YAML.Scanner.ScannerState.input</title>
<path fill="none" stroke="#4a90d9" stroke-width="2" d="M310.93,-295.79C287.73,-290.64 259.94,-282.05 238,-268 218.78,-255.69 202.1,-235.72 190.89,-220.09"/>
<polygon fill="#4a90d9" stroke="#4a90d9" stroke-width="2" points="192.74,-218.46 186.73,-214.12 188.73,-221.26 192.74,-218.46"/>
<text text-anchor="middle" x="247.5" y="-248.1" font-family="Times-Roman" font-size="8.00">calls</text>
</g>
<!-- L4YAML.Scanner.consumeNewline&#45;&gt;L4YAML.Scanner.ScannerState.advance -->
<g id="edge2" class="edge">
<title>L4YAML.Scanner.consumeNewline&#45;&gt;L4YAML.Scanner.ScannerState.advance</title>
<path fill="none" stroke="#4a90d9" stroke-width="2" d="M357,-285.97C357,-268.53 357,-241.26 357,-221.51"/>
<polygon fill="#4a90d9" stroke="#4a90d9" stroke-width="2" points="359.45,-221.34 357,-214.34 354.55,-221.34 359.45,-221.34"/>
<text text-anchor="middle" x="366.5" y="-248.1" font-family="Times-Roman" font-size="8.00">calls</text>
</g>
<!-- L4YAML.Scanner.consumeNewline&#45;&gt;L4YAML.Scanner.ScannerState.offset -->
<g id="edge16" class="edge">
<title>L4YAML.Scanner.consumeNewline&#45;&gt;L4YAML.Scanner.ScannerState.offset</title>
<path fill="none" stroke="#4a90d9" stroke-width="2" d="M332.3,-285.79C311.78,-269.87 284.08,-244.15 272,-214 262.43,-190.12 267.88,-160.5 274.02,-140.12"/>
<polygon fill="#4a90d9" stroke="#4a90d9" stroke-width="2" points="276.4,-140.73 276.2,-133.31 271.73,-139.23 276.4,-140.73"/>
<text text-anchor="middle" x="281.5" y="-194.1" font-family="Times-Roman" font-size="8.00">calls</text>
</g>
<!-- L4YAML.Scanner.consumeNewline&#45;&gt;L4YAML.Scanner.ScannerState.inputEnd -->
<g id="edge13" class="edge">
<title>L4YAML.Scanner.consumeNewline&#45;&gt;L4YAML.Scanner.ScannerState.inputEnd</title>
<path fill="none" stroke="#4a90d9" stroke-width="2" d="M375.3,-285.97C391.65,-269.4 414.43,-242.61 424,-214 432.18,-189.54 426.27,-160.02 420,-139.82"/>
<polygon fill="#4a90d9" stroke="#4a90d9" stroke-width="2" points="422.3,-138.97 417.79,-133.09 417.65,-140.5 422.3,-138.97"/>
<text text-anchor="middle" x="436.5" y="-194.1" font-family="Times-Roman" font-size="8.00">calls</text>
</g>
<!-- L4YAML.Scanner.ScannerState.peek? -->
<g id="node4" class="node">
<title>L4YAML.Scanner.ScannerState.peek?</title>
<g id="a_node4"><a xlink:href="../../../api/L4YAML/Scanner.html#L4YAML.Scanner.ScannerState.peek?" xlink:title="ScannerState.peek?" target="_blank">
<polygon fill="#dce9f7" stroke="#4a90d9" points="163,-322 59,-322 59,-286 163,-286 163,-322"/>
<text text-anchor="middle" x="111" y="-301.5" font-family="Helvetica" font-size="10.00">ScannerState.peek?</text>
</a>
</g>
</g>
<!-- L4YAML.Scanner.ScannerState.peek?&#45;&gt;L4YAML.Scanner.ScannerState.input -->
<g id="edge20" class="edge">
<title>L4YAML.Scanner.ScannerState.peek?&#45;&gt;L4YAML.Scanner.ScannerState.input</title>
<path fill="none" stroke="#4a90d9" stroke-width="2" d="M121.44,-285.97C132.32,-268.23 149.45,-240.3 161.61,-220.47"/>
<polygon fill="#4a90d9" stroke="#4a90d9" stroke-width="2" points="163.8,-221.59 165.37,-214.34 159.62,-219.03 163.8,-221.59"/>
<text text-anchor="middle" x="162.5" y="-248.1" font-family="Times-Roman" font-size="8.00">calls</text>
</g>
<!-- L4YAML.Scanner.ScannerState.peek?&#45;&gt;L4YAML.Scanner.ScannerState.offset -->
<g id="edge24" class="edge">
<title>L4YAML.Scanner.ScannerState.peek?&#45;&gt;L4YAML.Scanner.ScannerState.offset</title>
<path fill="none" stroke="#4a90d9" stroke-width="2" d="M91.35,-285.57C63.35,-258.64 18.47,-206.25 48,-170 97.8,-108.86 145.4,-150.44 224.26,-133.53"/>
<polygon fill="#4a90d9" stroke="#4a90d9" stroke-width="2" points="225.23,-135.82 231.48,-131.83 224.11,-131.05 225.23,-135.82"/>
<text text-anchor="middle" x="57.5" y="-194.1" font-family="Times-Roman" font-size="8.00">calls</text>
</g>
<!-- L4YAML.Scanner.ScannerState.peek?&#45;&gt;L4YAML.Scanner.ScannerState.inputEnd -->
<g id="edge23" class="edge">
<title>L4YAML.Scanner.ScannerState.peek?&#45;&gt;L4YAML.Scanner.ScannerState.inputEnd</title>
<path fill="none" stroke="#4a90d9" stroke-width="2" d="M101.94,-285.61C88.58,-257.29 68.23,-201.24 98,-170 113.96,-153.25 283.43,-165.1 306,-160 328.69,-154.87 352.71,-145.16 372.04,-136.16"/>
<polygon fill="#4a90d9" stroke="#4a90d9" stroke-width="2" points="373.13,-138.35 378.41,-133.14 371.03,-133.92 373.13,-138.35"/>
<text text-anchor="middle" x="107.5" y="-194.1" font-family="Times-Roman" font-size="8.00">calls</text>
</g>
<!-- L4YAML.Scanner.ScannerState.offset&#45;&gt;L4YAML.Scanner.ScannerState -->
<g id="edge18" class="edge">
<title>L4YAML.Scanner.ScannerState.offset&#45;&gt;L4YAML.Scanner.ScannerState</title>
<path fill="none" stroke="#4a90d9" stroke-width="2" d="M283,-96.86C283,-85.88 283,-71.48 283,-59.33"/>
<polygon fill="#4a90d9" stroke="#4a90d9" stroke-width="2" points="285.45,-59.11 283,-52.11 280.55,-59.11 285.45,-59.11"/>
<text text-anchor="middle" x="292.5" y="-72.6" font-family="Times-Roman" font-size="8.00">calls</text>
</g>
<!-- L4YAML.Scanner.ScannerState.inputEnd&#45;&gt;L4YAML.Scanner.ScannerState -->
<g id="edge15" class="edge">
<title>L4YAML.Scanner.ScannerState.inputEnd&#45;&gt;L4YAML.Scanner.ScannerState</title>
<path fill="none" stroke="#4a90d9" stroke-width="2" d="M383.23,-96.86C363.68,-84.8 337.43,-68.59 316.69,-55.79"/>
<polygon fill="#4a90d9" stroke="#4a90d9" stroke-width="2" points="317.96,-53.7 310.72,-52.11 315.39,-57.87 317.96,-53.7"/>
<text text-anchor="middle" x="359.5" y="-72.6" font-family="Times-Roman" font-size="8.00">calls</text>
</g>
<!-- L4YAML.Proofs.CouplingBridge.advance_offset_eq._proof_1_1 -->
<g id="node8" class="node">
<title>L4YAML.Proofs.CouplingBridge.advance_offset_eq._proof_1_1</title>
<g id="a_node8"><a xlink:href="../../../api/L4YAML/Proofs/CouplingBridge.html#L4YAML.Proofs.CouplingBridge.advance_offset_eq._proof_1_1" xlink:title="CouplingBridge.advance_offset_eq._proof_1_1" target="_blank">
<ellipse fill="#d4edda" stroke="#28a745" cx="799" cy="-196" rx="128.16" ry="18"/>
<text text-anchor="middle" x="799" y="-193.5" font-family="Helvetica" font-size="10.00">CouplingBridge.advance_offset_eq._proof_1_1</text>
</a>
</g>
</g>
<!-- L4YAML.Proofs.CouplingBridge.advance_offset_eq._proof_1_1&#45;&gt;L4YAML.Scanner.ScannerState -->
<g id="edge9" class="edge">
<title>L4YAML.Proofs.CouplingBridge.advance_offset_eq._proof_1_1&#45;&gt;L4YAML.Scanner.ScannerState</title>
<path fill="none" stroke="#999999" stroke-dasharray="1,5" d="M766.95,-178.34C749.04,-169.46 726.13,-158.79 705,-151 571.18,-101.69 406.74,-62.33 328.52,-44.84"/>
<polygon fill="#999999" stroke="#999999" points="328.58,-42.34 321.22,-43.21 327.52,-47.13 328.58,-42.34"/>
<text text-anchor="middle" x="660.5" y="-113.1" font-family="Times-Roman" font-size="8.00">about</text>
</g>
<!-- L4YAML.Proofs.CouplingBridge.advance_offset_eq._proof_1_1&#45;&gt;L4YAML.Scanner.ScannerState.offset -->
<g id="edge22" class="edge">
<title>L4YAML.Proofs.CouplingBridge.advance_offset_eq._proof_1_1&#45;&gt;L4YAML.Scanner.ScannerState.offset</title>
<path fill="none" stroke="#999999" stroke-dasharray="1,5" d="M725.05,-181.26C703.17,-177.39 679.15,-173.33 657,-170 589.68,-159.87 572.61,-159 505,-151 433.5,-142.53 414.68,-146.71 344,-133 343.24,-132.85 342.48,-132.7 341.72,-132.55"/>
<polygon fill="#999999" stroke="#999999" points="342.14,-130.13 334.78,-131.04 341.1,-134.92 342.14,-130.13"/>
<text text-anchor="middle" x="593.5" y="-153.6" font-family="Times-Roman" font-size="8.00">about</text>
</g>
<!-- L4YAML.Proofs.CouplingBridge.advance_offset_eq._proof_1_1&#45;&gt;L4YAML.Scanner.ScannerState.inputEnd -->
<g id="edge7" class="edge">
<title>L4YAML.Proofs.CouplingBridge.advance_offset_eq._proof_1_1&#45;&gt;L4YAML.Scanner.ScannerState.inputEnd</title>
<path fill="none" stroke="#999999" stroke-dasharray="1,5" d="M749.19,-179.35C718.52,-170.13 678.25,-158.8 642,-151 586.74,-139.12 523.2,-129.8 476.76,-123.78"/>
<polygon fill="#999999" stroke="#999999" points="477,-121.34 469.75,-122.88 476.38,-126.2 477,-121.34"/>
<text text-anchor="middle" x="688.5" y="-153.6" font-family="Times-Roman" font-size="8.00">about</text>
</g>
<!-- L4YAML.Proofs.CouplingBridge.advance_inputEnd -->
<g id="node9" class="node">
<title>L4YAML.Proofs.CouplingBridge.advance_inputEnd</title>
<g id="a_node9"><a xlink:href="../../../api/L4YAML/Proofs/CouplingBridge.html#L4YAML.Proofs.CouplingBridge.advance_inputEnd" xlink:title="CouplingBridge.advance_inputEnd" target="_blank">
<ellipse fill="#d4edda" stroke="#28a745" cx="830" cy="-250" rx="97.26" ry="18"/>
<text text-anchor="middle" x="830" y="-247.5" font-family="Helvetica" font-size="10.00">CouplingBridge.advance_inputEnd</text>
</a>
</g>
</g>
<!-- L4YAML.Proofs.CouplingBridge.advance_inputEnd&#45;&gt;L4YAML.Scanner.ScannerState.inputEnd -->
<g id="edge26" class="edge">
<title>L4YAML.Proofs.CouplingBridge.advance_inputEnd&#45;&gt;L4YAML.Scanner.ScannerState.inputEnd</title>
<path fill="none" stroke="#999999" stroke-dasharray="1,5" d="M760.2,-237.44C707.22,-228.49 642.54,-217.11 637,-214 604.34,-195.65 613.44,-169.73 581,-151 549.45,-132.78 509.78,-123.97 476.7,-119.74"/>
<polygon fill="#999999" stroke="#999999" points="476.99,-117.3 469.75,-118.9 476.41,-122.17 476.99,-117.3"/>
<text text-anchor="middle" x="649.5" y="-194.1" font-family="Times-Roman" font-size="8.00">about</text>
</g>
<!-- L4YAML.Proofs.CouplingBridge.advance_offset_eq -->
<g id="node10" class="node">
<title>L4YAML.Proofs.CouplingBridge.advance_offset_eq</title>
<g id="a_node10"><a xlink:href="../../../api/L4YAML/Proofs/CouplingBridge.html#L4YAML.Proofs.CouplingBridge.advance_offset_eq" xlink:title="CouplingBridge.advance_offset_eq" target="_blank">
<ellipse fill="#d4edda" stroke="#28a745" cx="713" cy="-304" rx="98.11" ry="18"/>
<text text-anchor="middle" x="713" y="-301.5" font-family="Helvetica" font-size="10.00">CouplingBridge.advance_offset_eq</text>
</a>
</g>
</g>
<!-- L4YAML.Proofs.CouplingBridge.advance_offset_eq&#45;&gt;L4YAML.Scanner.ScannerState.input -->
<g id="edge11" class="edge">
<title>L4YAML.Proofs.CouplingBridge.advance_offset_eq&#45;&gt;L4YAML.Scanner.ScannerState.input</title>
<path fill="none" stroke="#999999" stroke-dasharray="1,5" d="M615.06,-301.97C560.04,-298.66 490.99,-289.86 433,-268 406.35,-257.96 406.63,-242.09 380,-232 321.34,-209.77 301.56,-226.08 240,-214 237.74,-213.56 235.45,-213.08 233.14,-212.58"/>
<polygon fill="#999999" stroke="#999999" points="233.53,-210.15 226.16,-210.99 232.45,-214.93 233.53,-210.15"/>
<text text-anchor="middle" x="445.5" y="-248.1" font-family="Times-Roman" font-size="8.00">about</text>
</g>
<!-- L4YAML.Proofs.CouplingBridge.advance_offset_eq&#45;&gt;L4YAML.Scanner.ScannerState.advance -->
<g id="edge4" class="edge">
<title>L4YAML.Proofs.CouplingBridge.advance_offset_eq&#45;&gt;L4YAML.Scanner.ScannerState.advance</title>
<path fill="none" stroke="#999999" stroke-dasharray="1,5" d="M622.93,-296.76C569.36,-291.61 507.57,-282.7 485,-268 469.09,-257.64 476.98,-243.67 462,-232 454.91,-226.47 438.97,-220.31 421.6,-214.71"/>
<polygon fill="#999999" stroke="#999999" points="422.04,-212.28 414.63,-212.52 420.57,-216.96 422.04,-212.28"/>
<text text-anchor="middle" x="497.5" y="-248.1" font-family="Times-Roman" font-size="8.00">about</text>
</g>
<!-- L4YAML.Proofs.CouplingBridge.advance_offset_eq&#45;&gt;L4YAML.Scanner.ScannerState.offset -->
<g id="edge17" class="edge">
<title>L4YAML.Proofs.CouplingBridge.advance_offset_eq&#45;&gt;L4YAML.Scanner.ScannerState.offset</title>
<path fill="none" stroke="#999999" stroke-dasharray="1,5" d="M648.34,-290.39C627.24,-284.99 604.08,-277.65 584,-268 517.5,-236.03 513.73,-207.18 450,-170 432.3,-159.68 427.25,-158 408,-151 407.12,-150.68 373.63,-141.31 341.54,-132.34"/>
<polygon fill="#999999" stroke="#999999" points="342.13,-129.96 334.73,-130.44 340.81,-134.68 342.13,-129.96"/>
<text text-anchor="middle" x="519.5" y="-194.1" font-family="Times-Roman" font-size="8.00">about</text>
</g>
<!-- L4YAML.Proofs.CouplingBridge.advance_offset_eq&#45;&gt;L4YAML.Scanner.ScannerState.inputEnd -->
<g id="edge14" class="edge">
<title>L4YAML.Proofs.CouplingBridge.advance_offset_eq&#45;&gt;L4YAML.Scanner.ScannerState.inputEnd</title>
<path fill="none" stroke="#999999" stroke-dasharray="1,5" d="M673.7,-287.49C641.89,-273.01 598.2,-248.44 572,-214 554.29,-190.72 574.2,-171.14 553,-151 532.64,-131.66 503.36,-122.49 476.67,-118.33"/>
<polygon fill="#999999" stroke="#999999" points="476.86,-115.88 469.59,-117.33 476.18,-120.73 476.86,-115.88"/>
<text text-anchor="middle" x="584.5" y="-194.1" font-family="Times-Roman" font-size="8.00">about</text>
</g>
<!-- L4YAML.Proofs.CouplingBridge.advance_offset_eq&#45;&gt;L4YAML.Proofs.CouplingBridge.advance_offset_eq._proof_1_1 -->
<g id="edge6" class="edge">
<title>L4YAML.Proofs.CouplingBridge.advance_offset_eq&#45;&gt;L4YAML.Proofs.CouplingBridge.advance_offset_eq._proof_1_1</title>
<path fill="none" stroke="#28a745" stroke-width="2" d="M704.76,-285.94C698.61,-270.49 692.98,-247.8 704,-232 708.95,-224.9 715.51,-219.24 722.87,-214.73"/>
<polygon fill="#28a745" stroke="#28a745" stroke-width="2" points="724.3,-216.74 729.23,-211.2 721.92,-212.45 724.3,-216.74"/>
<text text-anchor="middle" x="714" y="-248.1" font-family="Times-Roman" font-size="8.00">uses</text>
</g>
<!-- L4YAML.Proofs.ScannerCoupling.consumeNewline_offset_advance -->
<g id="node11" class="node">
<title>L4YAML.Proofs.ScannerCoupling.consumeNewline_offset_advance</title>
<g id="a_node11"><a xlink:href="../../../api/L4YAML/Proofs/ScannerCoupling.html#L4YAML.Proofs.ScannerCoupling.consumeNewline_offset_advance" xlink:title="ScannerCoupling.consumeNewline_offset_advance" target="_blank">
<polygon fill="#fff3cd" stroke="#d4a017" points="923.07,-401.54 923.07,-416.46 833.99,-427 708.01,-427 618.93,-416.46 618.93,-401.54 708.01,-391 833.99,-391 923.07,-401.54"/>
<polygon fill="none" stroke="#d4a017" points="927.06,-397.99 927.06,-420.01 834.22,-431 707.78,-431 614.94,-420.01 614.94,-397.99 707.78,-387 834.22,-387 927.06,-397.99"/>
<text text-anchor="middle" x="771" y="-406.5" font-family="Helvetica" font-size="10.00">ScannerCoupling.consumeNewline_offset_advance</text>
</a>
</g>
</g>
<!-- L4YAML.Proofs.ScannerCoupling.consumeNewline_offset_advance&#45;&gt;L4YAML.Scanner.consumeNewline -->
<g id="edge1" class="edge">
<title>L4YAML.Proofs.ScannerCoupling.consumeNewline_offset_advance&#45;&gt;L4YAML.Scanner.consumeNewline</title>
<path fill="none" stroke="#999999" stroke-dasharray="1,5" d="M693.13,-388.63C610.47,-368.06 482.08,-336.12 410.27,-318.25"/>
<polygon fill="#999999" stroke="#999999" points="410.46,-315.77 403.07,-316.46 409.27,-320.53 410.46,-315.77"/>
<text text-anchor="middle" x="625.5" y="-362.6" font-family="Times-Roman" font-size="8.00">about</text>
</g>
<!-- L4YAML.Proofs.ScannerCoupling.consumeNewline_offset_advance&#45;&gt;L4YAML.Scanner.ScannerState.peek? -->
<g id="edge19" class="edge">
<title>L4YAML.Proofs.ScannerCoupling.consumeNewline_offset_advance&#45;&gt;L4YAML.Scanner.ScannerState.peek?</title>
<path fill="none" stroke="#999999" stroke-dasharray="1,5" d="M632.07,-395.91C538.38,-386.66 412.22,-372.06 302,-352 257.4,-343.88 207.7,-331.55 170.18,-321.55"/>
<polygon fill="#999999" stroke="#999999" points="170.72,-319.16 163.32,-319.71 169.45,-323.89 170.72,-319.16"/>
<text text-anchor="middle" x="416.5" y="-362.6" font-family="Times-Roman" font-size="8.00">about</text>
</g>
<!-- L4YAML.Proofs.ScannerCoupling.consumeNewline_offset_advance&#45;&gt;L4YAML.Proofs.CouplingBridge.advance_inputEnd -->
<g id="edge25" class="edge">
<title>L4YAML.Proofs.ScannerCoupling.consumeNewline_offset_advance&#45;&gt;L4YAML.Proofs.CouplingBridge.advance_inputEnd</title>
<path fill="none" stroke="#28a745" stroke-width="2" d="M795.12,-386.86C804.51,-377.21 814.35,-365.04 820,-352 830.65,-327.41 832.18,-296.4 831.66,-275.27"/>
<polygon fill="#28a745" stroke="#28a745" stroke-width="2" points="834.11,-275.14 831.4,-268.23 829.21,-275.32 834.11,-275.14"/>
<text text-anchor="middle" x="825" y="-362.6" font-family="Times-Roman" font-size="8.00">uses</text>
</g>
<!-- L4YAML.Proofs.ScannerCoupling.consumeNewline_offset_advance&#45;&gt;L4YAML.Proofs.CouplingBridge.advance_offset_eq -->
<g id="edge3" class="edge">
<title>L4YAML.Proofs.ScannerCoupling.consumeNewline_offset_advance&#45;&gt;L4YAML.Proofs.CouplingBridge.advance_offset_eq</title>
<path fill="none" stroke="#28a745" stroke-width="2" d="M758.98,-386.66C749.41,-369.65 736.02,-345.88 726.16,-328.37"/>
<polygon fill="#28a745" stroke="#28a745" stroke-width="2" points="728.27,-327.12 722.7,-322.22 724,-329.52 728.27,-327.12"/>
<text text-anchor="middle" x="758" y="-362.6" font-family="Times-Roman" font-size="8.00">uses</text>
</g>
</g>
</svg>
