<?xml version="1.0" encoding="UTF-8" standalone="no"?>
<!DOCTYPE svg PUBLIC "-//W3C//DTD SVG 1.1//EN"
 "http://www.w3.org/Graphics/SVG/1.1/DTD/svg11.dtd">
<!-- Generated by graphviz version 2.44.0 (0)
 -->
<!-- Title: chain_CouplingBridge.ScannerSurfCorr.end_eq Pages: 1 -->
<svg width="410pt" height="98pt"
 viewBox="0.00 0.00 410.00 97.92" xmlns="http://www.w3.org/2000/svg" xmlns:xlink="http://www.w3.org/1999/xlink">
<g id="graph0" class="graph" transform="scale(1 1) rotate(0) translate(4 93.92)">
<title>chain_CouplingBridge.ScannerSurfCorr.end_eq</title>
<polygon fill="white" stroke="transparent" points="-4,4 -4,-93.92 406,-93.92 406,4 -4,4"/>
<text text-anchor="middle" x="201" y="-75.52" font-family="Helvetica Bold" font-size="13.00">Functorial Chains: CouplingBridge.ScannerSurfCorr.end_eq</text>
<text text-anchor="middle" x="201" y="-61.52" font-family="Helvetica Bold" font-size="13.00">(heuristic: used by 94 proofs)</text>
<!-- L4YAML.Proofs.CouplingBridge.ScannerSurfCorr.end_eq -->
<g id="node1" class="node">
<title>L4YAML.Proofs.CouplingBridge.ScannerSurfCorr.end_eq</title>
<polygon fill="#fff3cd" stroke="black" points="349.46,-17.46 349.46,-36.46 262.5,-49.89 139.5,-49.89 52.54,-36.46 52.54,-17.46 139.5,-4.03 262.5,-4.03 349.46,-17.46"/>
<polygon fill="none" stroke="black" points="353.46,-14.04 353.46,-39.88 262.8,-53.88 139.2,-53.88 48.54,-39.88 48.54,-14.04 139.2,-0.04 262.8,-0.04 353.46,-14.04"/>
<text text-anchor="middle" x="201" y="-29.96" font-family="Helvetica" font-size="10.00">CouplingBridge.ScannerSurfCorr.end_eq</text>
<text text-anchor="middle" x="201" y="-18.96" font-family="Helvetica" font-size="10.00">(no functorial chains found)</text>
</g>
</g>
</svg>
