<?xml version="1.0" encoding="UTF-8" standalone="no"?>
<!DOCTYPE svg PUBLIC "-//W3C//DTD SVG 1.1//EN"
 "http://www.w3.org/Graphics/SVG/1.1/DTD/svg11.dtd">
<!-- Generated by graphviz version 2.44.0 (0)
 -->
<!-- Title: chain_ScannerCorrectness.ScanHelpers.scanBlockScalarSkipComment_preserves_tokens Pages: 1 -->
<svg width="1006pt" height="513pt"
 viewBox="0.00 0.00 1006.00 513.00" xmlns="http://www.w3.org/2000/svg" xmlns:xlink="http://www.w3.org/1999/xlink">
<g id="graph0" class="graph" transform="scale(1 1) rotate(0) translate(4 509)">
<title>chain_ScannerCorrectness.ScanHelpers.scanBlockScalarSkipComment_preserves_tokens</title>
<polygon fill="white" stroke="transparent" points="-4,4 -4,-509 1002,-509 1002,4 -4,4"/>
<text text-anchor="middle" x="499" y="-490.6" font-family="Helvetica Bold" font-size="13.00">Functorial Chains: ScannerCorrectness.ScanHelpers.scanBlockScalarSkipComment_preserves_tokens</text>
<text text-anchor="middle" x="499" y="-476.6" font-family="Helvetica Bold" font-size="13.00">(heuristic: used by 5 proofs)</text>
<g id="clust1" class="cluster">
<title>cluster_fns</title>
<polygon fill="none" stroke="#4a90d9" stroke-dasharray="5,2" points="8,-8 8,-271 466,-271 466,-8 8,-8"/>
<text text-anchor="middle" x="237" y="-256.6" font-family="Helvetica Bold" font-size="13.00" fill="#4a90d9">Functions (Call Chain)</text>
</g>
<g id="clust2" class="cluster">
<title>cluster_thms</title>
<polygon fill="none" stroke="#28a745" stroke-dasharray="5,2" points="474,-143 474,-461 990,-461 990,-143 474,-143"/>
<text text-anchor="middle" x="732" y="-446.6" font-family="Helvetica Bold" font-size="13.00" fill="#28a745">Theorems (Proof Chain)</text>
</g>
<!-- L4YAML.Scanner.ScannerState.advance -->
<g id="node1" class="node">
<title>L4YAML.Scanner.ScannerState.advance</title>
<polygon fill="#dce9f7" stroke="#4a90d9" points="332.5,-133 217.5,-133 217.5,-97 332.5,-97 332.5,-133"/>
<text text-anchor="middle" x="275" y="-112.5" font-family="Helvetica" font-size="10.00">ScannerState.advance</text>
</g>
<!-- L4YAML.Scanner.scanBlockScalarSkipComment -->
<g id="node2" class="node">
<title>L4YAML.Scanner.scanBlockScalarSkipComment</title>
<polygon fill="#dce9f7" stroke="#4a90d9" points="330,-241 178,-241 178,-205 330,-205 330,-241"/>
<text text-anchor="middle" x="254" y="-220.5" font-family="Helvetica" font-size="10.00">scanBlockScalarSkipComment</text>
</g>
<!-- L4YAML.Scanner.scanBlockScalarSkipComment&#45;&gt;L4YAML.Scanner.ScannerState.advance -->
<g id="edge18" class="edge">
<title>L4YAML.Scanner.scanBlockScalarSkipComment&#45;&gt;L4YAML.Scanner.ScannerState.advance</title>
<path fill="none" stroke="#4a90d9" stroke-width="2" d="M257.37,-204.97C260.84,-187.46 266.28,-160.02 270.2,-140.25"/>
<polygon fill="#4a90d9" stroke="#4a90d9" stroke-width="2" points="272.61,-140.68 271.56,-133.34 267.8,-139.73 272.61,-140.68"/>
<text text-anchor="middle" x="279.5" y="-167.1" font-family="Times-Roman" font-size="8.00">calls</text>
</g>
<!-- L4YAML.Scanner.ScannerState -->
<g id="node3" class="node">
<title>L4YAML.Scanner.ScannerState</title>
<polygon fill="#dce9f7" stroke="#4a90d9" points="454,-52 378,-52 378,-16 454,-16 454,-52"/>
<text text-anchor="middle" x="416" y="-31.5" font-family="Helvetica" font-size="10.00">ScannerState</text>
</g>
<!-- L4YAML.Scanner.scanBlockScalarSkipComment&#45;&gt;L4YAML.Scanner.ScannerState -->
<g id="edge15" class="edge">
<title>L4YAML.Scanner.scanBlockScalarSkipComment&#45;&gt;L4YAML.Scanner.ScannerState</title>
<path fill="none" stroke="#4a90d9" stroke-width="2" d="M177.86,-206.68C100.21,-187.69 -2.83,-151.08 43,-97 84.58,-47.94 281.03,-37.66 370.91,-35.53"/>
<polygon fill="#4a90d9" stroke="#4a90d9" stroke-width="2" points="371.03,-37.98 377.98,-35.38 370.92,-33.08 371.03,-37.98"/>
<text text-anchor="middle" x="52.5" y="-113.1" font-family="Times-Roman" font-size="8.00">calls</text>
</g>
<!-- L4YAML.Scanner.ScannerState.tokens -->
<g id="node4" class="node">
<title>L4YAML.Scanner.ScannerState.tokens</title>
<polygon fill="#dce9f7" stroke="#4a90d9" points="457.5,-133 350.5,-133 350.5,-97 457.5,-97 457.5,-133"/>
<text text-anchor="middle" x="404" y="-112.5" font-family="Helvetica" font-size="10.00">ScannerState.tokens</text>
</g>
<!-- L4YAML.Scanner.scanBlockScalarSkipComment&#45;&gt;L4YAML.Scanner.ScannerState.tokens -->
<g id="edge2" class="edge">
<title>L4YAML.Scanner.scanBlockScalarSkipComment&#45;&gt;L4YAML.Scanner.ScannerState.tokens</title>
<path fill="none" stroke="#4a90d9" stroke-width="2" d="M274.97,-204.9C295.6,-188.36 328.24,-162.94 358,-143 360.92,-141.04 363.99,-139.07 367.1,-137.13"/>
<polygon fill="#4a90d9" stroke="#4a90d9" stroke-width="2" points="368.81,-138.96 373.5,-133.22 366.25,-134.78 368.81,-138.96"/>
<text text-anchor="middle" x="367.5" y="-167.1" font-family="Times-Roman" font-size="8.00">calls</text>
</g>
<!-- L4YAML.Scanner.collectCommentTextLoop -->
<g id="node5" class="node">
<title>L4YAML.Scanner.collectCommentTextLoop</title>
<polygon fill="#dce9f7" stroke="#4a90d9" points="199,-133 71,-133 71,-97 199,-97 199,-133"/>
<text text-anchor="middle" x="135" y="-112.5" font-family="Helvetica" font-size="10.00">collectCommentTextLoop</text>
</g>
<!-- L4YAML.Scanner.scanBlockScalarSkipComment&#45;&gt;L4YAML.Scanner.collectCommentTextLoop -->
<g id="edge8" class="edge">
<title>L4YAML.Scanner.scanBlockScalarSkipComment&#45;&gt;L4YAML.Scanner.collectCommentTextLoop</title>
<path fill="none" stroke="#4a90d9" stroke-width="2" d="M234.88,-204.97C214.53,-186.84 182.25,-158.08 159.92,-138.19"/>
<polygon fill="#4a90d9" stroke="#4a90d9" stroke-width="2" points="161.32,-136.17 154.47,-133.34 158.06,-139.83 161.32,-136.17"/>
<text text-anchor="middle" x="222.5" y="-167.1" font-family="Times-Roman" font-size="8.00">calls</text>
</g>
<!-- L4YAML.Scanner.ScannerState.tokens&#45;&gt;L4YAML.Scanner.ScannerState -->
<g id="edge5" class="edge">
<title>L4YAML.Scanner.ScannerState.tokens&#45;&gt;L4YAML.Scanner.ScannerState</title>
<path fill="none" stroke="#4a90d9" stroke-width="2" d="M406.6,-96.86C408.27,-85.88 410.46,-71.48 412.3,-59.33"/>
<polygon fill="#4a90d9" stroke="#4a90d9" stroke-width="2" points="414.77,-59.4 413.4,-52.11 409.93,-58.66 414.77,-59.4"/>
<text text-anchor="middle" x="419.5" y="-72.6" font-family="Times-Roman" font-size="8.00">calls</text>
</g>
<!-- L4YAML.Scanner.collectCommentTextLoop&#45;&gt;L4YAML.Scanner.ScannerState -->
<g id="edge10" class="edge">
<title>L4YAML.Scanner.collectCommentTextLoop&#45;&gt;L4YAML.Scanner.ScannerState</title>
<path fill="none" stroke="#4a90d9" stroke-width="2" d="M195.63,-96.96C248.37,-82.13 323.61,-60.98 371.11,-47.62"/>
<polygon fill="#4a90d9" stroke="#4a90d9" stroke-width="2" points="371.83,-49.96 377.91,-45.71 370.51,-45.25 371.83,-49.96"/>
<text text-anchor="middle" x="293.5" y="-72.6" font-family="Times-Roman" font-size="8.00">calls</text>
</g>
<!-- L4YAML.Proofs.ScannerCorrectness.ScanHelpers.scanBlockScalarSkipComment_preserves_tokens -->
<g id="node6" class="node">
<title>L4YAML.Proofs.ScannerCorrectness.ScanHelpers.scanBlockScalarSkipComment_preserves_tokens</title>
<polygon fill="#fff3cd" stroke="#d4a017" points="977.89,-401.54 977.89,-416.46 833.85,-427 630.15,-427 486.11,-416.46 486.11,-401.54 630.15,-391 833.85,-391 977.89,-401.54"/>
<polygon fill="none" stroke="#d4a017" points="981.89,-397.83 981.89,-420.17 834,-431 630,-431 482.11,-420.17 482.11,-397.83 630,-387 834,-387 981.89,-397.83"/>
<text text-anchor="middle" x="732" y="-406.5" font-family="Helvetica" font-size="10.00">ScannerCorrectness.ScanHelpers.scanBlockScalarSkipComment_preserves_tokens</text>
</g>
<!-- L4YAML.Proofs.ScannerCorrectness.ScanHelpers.scanBlockScalarSkipComment_preserves_tokens&#45;&gt;L4YAML.Scanner.scanBlockScalarSkipComment -->
<g id="edge1" class="edge">
<title>L4YAML.Proofs.ScannerCorrectness.ScanHelpers.scanBlockScalarSkipComment_preserves_tokens&#45;&gt;L4YAML.Scanner.scanBlockScalarSkipComment</title>
<path fill="none" stroke="#999999" stroke-dasharray="1,5" d="M606.28,-388.72C580.44,-383.4 553.61,-376.87 529,-369 446.6,-342.65 427.76,-329.77 352,-288 328.5,-275.04 303.16,-258.42 284.14,-245.36"/>
<polygon fill="#999999" stroke="#999999" points="285.09,-243.05 277.94,-241.08 282.31,-247.08 285.09,-243.05"/>
<text text-anchor="middle" x="466.5" y="-322.1" font-family="Times-Roman" font-size="8.00">about</text>
</g>
<!-- L4YAML.Proofs.ScannerCorrectness.ScanHelpers.scanBlockScalarSkipComment_preserves_tokens&#45;&gt;L4YAML.Scanner.ScannerState.tokens -->
<g id="edge17" class="edge">
<title>L4YAML.Proofs.ScannerCorrectness.ScanHelpers.scanBlockScalarSkipComment_preserves_tokens&#45;&gt;L4YAML.Scanner.ScannerState.tokens</title>
<path fill="none" stroke="#999999" stroke-dasharray="1,5" d="M842.04,-387.44C865.95,-377.67 888.42,-363.26 903,-342 912.05,-328.81 908.86,-320.89 903,-306 884.85,-259.92 795.98,-163.74 751,-143 727.97,-132.38 548.25,-135.35 523,-133 504.11,-131.24 483.62,-128.59 465.06,-125.89"/>
<polygon fill="#999999" stroke="#999999" points="465.06,-123.42 457.78,-124.82 464.34,-128.27 465.06,-123.42"/>
<text text-anchor="middle" x="905.5" y="-281.6" font-family="Times-Roman" font-size="8.00">about</text>
</g>
<!-- L4YAML.Proofs.ScannerCorrectness.collectCommentTextLoop_preserves_tokens -->
<g id="node7" class="node">
<title>L4YAML.Proofs.ScannerCorrectness.collectCommentTextLoop_preserves_tokens</title>
<ellipse fill="#d4edda" stroke="#28a745" cx="716" cy="-324" rx="177.55" ry="18"/>
<text text-anchor="middle" x="716" y="-321.5" font-family="Helvetica" font-size="10.00">ScannerCorrectness.collectCommentTextLoop_preserves_tokens</text>
</g>
<!-- L4YAML.Proofs.ScannerCorrectness.ScanHelpers.scanBlockScalarSkipComment_preserves_tokens&#45;&gt;L4YAML.Proofs.ScannerCorrectness.collectCommentTextLoop_preserves_tokens -->
<g id="edge3" class="edge">
<title>L4YAML.Proofs.ScannerCorrectness.ScanHelpers.scanBlockScalarSkipComment_preserves_tokens&#45;&gt;L4YAML.Proofs.ScannerCorrectness.collectCommentTextLoop_preserves_tokens</title>
<path fill="none" stroke="#28a745" stroke-width="2" d="M727.88,-386.63C725.67,-375.17 722.94,-361.01 720.66,-349.16"/>
<polygon fill="#28a745" stroke="#28a745" stroke-width="2" points="723.03,-348.53 719.3,-342.12 718.22,-349.46 723.03,-348.53"/>
<text text-anchor="middle" x="734" y="-362.6" font-family="Times-Roman" font-size="8.00">uses</text>
</g>
<!-- L4YAML.Proofs.ScannerCorrectness.advance_preserves_tokens -->
<g id="node8" class="node">
<title>L4YAML.Proofs.ScannerCorrectness.advance_preserves_tokens</title>
<ellipse fill="#d4edda" stroke="#28a745" cx="616" cy="-223" rx="133.75" ry="18"/>
<text text-anchor="middle" x="616" y="-220.5" font-family="Helvetica" font-size="10.00">ScannerCorrectness.advance_preserves_tokens</text>
</g>
<!-- L4YAML.Proofs.ScannerCorrectness.ScanHelpers.scanBlockScalarSkipComment_preserves_tokens&#45;&gt;L4YAML.Proofs.ScannerCorrectness.advance_preserves_tokens -->
<g id="edge13" class="edge">
<title>L4YAML.Proofs.ScannerCorrectness.ScanHelpers.scanBlockScalarSkipComment_preserves_tokens&#45;&gt;L4YAML.Proofs.ScannerCorrectness.advance_preserves_tokens</title>
<path fill="none" stroke="#28a745" stroke-width="2" d="M619.58,-387.71C571.54,-376.53 523.22,-361.04 509,-342 481.53,-305.23 534.66,-266.53 575.42,-243.87"/>
<polygon fill="#28a745" stroke="#28a745" stroke-width="2" points="576.62,-246.01 581.59,-240.51 574.27,-241.71 576.62,-246.01"/>
<text text-anchor="middle" x="519" y="-322.1" font-family="Times-Roman" font-size="8.00">uses</text>
</g>
<!-- L4YAML.Proofs.ScannerCorrectness.collectCommentTextLoop_preserves_tokens&#45;&gt;L4YAML.Scanner.ScannerState -->
<g id="edge16" class="edge">
<title>L4YAML.Proofs.ScannerCorrectness.collectCommentTextLoop_preserves_tokens&#45;&gt;L4YAML.Scanner.ScannerState</title>
<path fill="none" stroke="#999999" stroke-dasharray="1,5" d="M812.69,-308.73C822.5,-303.63 831.3,-296.89 838,-288 892.22,-216.03 835.97,-158.38 770,-97 725.83,-55.91 546.42,-41.52 461.27,-36.94"/>
<polygon fill="#999999" stroke="#999999" points="461.19,-34.48 454.07,-36.56 460.94,-39.37 461.19,-34.48"/>
<text text-anchor="middle" x="859.5" y="-167.1" font-family="Times-Roman" font-size="8.00">about</text>
</g>
<!-- L4YAML.Proofs.ScannerCorrectness.collectCommentTextLoop_preserves_tokens&#45;&gt;L4YAML.Scanner.ScannerState.tokens -->
<g id="edge4" class="edge">
<title>L4YAML.Proofs.ScannerCorrectness.collectCommentTextLoop_preserves_tokens&#45;&gt;L4YAML.Scanner.ScannerState.tokens</title>
<path fill="none" stroke="#999999" stroke-dasharray="1,5" d="M586,-311.66C527.85,-303.89 467.93,-291.2 448,-271 407.41,-229.85 448.54,-195.79 425,-143 424.44,-141.74 423.8,-140.48 423.12,-139.25"/>
<polygon fill="#999999" stroke="#999999" points="425.13,-137.84 419.32,-133.22 420.98,-140.45 425.13,-137.84"/>
<text text-anchor="middle" x="460.5" y="-221.1" font-family="Times-Roman" font-size="8.00">about</text>
</g>
<!-- L4YAML.Proofs.ScannerCorrectness.collectCommentTextLoop_preserves_tokens&#45;&gt;L4YAML.Scanner.collectCommentTextLoop -->
<g id="edge9" class="edge">
<title>L4YAML.Proofs.ScannerCorrectness.collectCommentTextLoop_preserves_tokens&#45;&gt;L4YAML.Scanner.collectCommentTextLoop</title>
<path fill="none" stroke="#999999" stroke-dasharray="1,5" d="M600.13,-310.29C516.13,-300.01 414.78,-285.01 400,-271 355.9,-229.21 400.71,-179.32 352,-143 339.14,-133.41 223.86,-135.38 208,-133 207.47,-132.92 206.94,-132.84 206.4,-132.76"/>
<polygon fill="#999999" stroke="#999999" points="206.69,-130.32 199.38,-131.58 205.88,-135.15 206.69,-130.32"/>
<text text-anchor="middle" x="412.5" y="-221.1" font-family="Times-Roman" font-size="8.00">about</text>
</g>
<!-- L4YAML.Proofs.ScannerCorrectness.collectCommentTextLoop_preserves_tokens&#45;&gt;L4YAML.Proofs.ScannerCorrectness.advance_preserves_tokens -->
<g id="edge11" class="edge">
<title>L4YAML.Proofs.ScannerCorrectness.collectCommentTextLoop_preserves_tokens&#45;&gt;L4YAML.Proofs.ScannerCorrectness.advance_preserves_tokens</title>
<path fill="none" stroke="#28a745" stroke-width="2" d="M698.58,-305.76C681.95,-289.29 656.79,-264.39 638.62,-246.39"/>
<polygon fill="#28a745" stroke="#28a745" stroke-width="2" points="639.92,-244.23 633.22,-241.05 636.47,-247.71 639.92,-244.23"/>
<text text-anchor="middle" x="687" y="-281.6" font-family="Times-Roman" font-size="8.00">uses</text>
</g>
<!-- L4YAML.Scanner.collectCommentTextLoop.eq_def -->
<g id="node9" class="node">
<title>L4YAML.Scanner.collectCommentTextLoop.eq_def</title>
<ellipse fill="#d4edda" stroke="#28a745" cx="648" cy="-169" rx="94.37" ry="18"/>
<text text-anchor="middle" x="648" y="-166.5" font-family="Helvetica" font-size="10.00">collectCommentTextLoop.eq_def</text>
</g>
<!-- L4YAML.Proofs.ScannerCorrectness.collectCommentTextLoop_preserves_tokens&#45;&gt;L4YAML.Scanner.collectCommentTextLoop.eq_def -->
<g id="edge6" class="edge">
<title>L4YAML.Proofs.ScannerCorrectness.collectCommentTextLoop_preserves_tokens&#45;&gt;L4YAML.Scanner.collectCommentTextLoop.eq_def</title>
<path fill="none" stroke="#28a745" stroke-width="2" d="M735.48,-305.76C744.49,-296.48 754.24,-284.23 759,-271 768.93,-243.4 776.34,-228.66 759,-205 751.71,-195.06 741.59,-187.86 730.4,-182.68"/>
<polygon fill="#28a745" stroke="#28a745" stroke-width="2" points="731.1,-180.31 723.7,-179.85 729.19,-184.83 731.1,-180.31"/>
<text text-anchor="middle" x="765" y="-281.6" font-family="Times-Roman" font-size="8.00">uses</text>
</g>
<!-- L4YAML.Proofs.ScannerCorrectness.advance_preserves_tokens&#45;&gt;L4YAML.Scanner.ScannerState.advance -->
<g id="edge19" class="edge">
<title>L4YAML.Proofs.ScannerCorrectness.advance_preserves_tokens&#45;&gt;L4YAML.Scanner.ScannerState.advance</title>
<path fill="none" stroke="#999999" stroke-dasharray="1,5" d="M505.37,-212.88C477.78,-207.67 448.97,-199.57 424,-187 398.44,-174.13 402.03,-156.86 377,-143 375.97,-142.43 359.3,-137.96 339.72,-132.81"/>
<polygon fill="#999999" stroke="#999999" points="340.09,-130.38 332.69,-130.97 338.84,-135.12 340.09,-130.38"/>
<text text-anchor="middle" x="436.5" y="-167.1" font-family="Times-Roman" font-size="8.00">about</text>
</g>
<!-- L4YAML.Proofs.ScannerCorrectness.advance_preserves_tokens&#45;&gt;L4YAML.Scanner.ScannerState -->
<g id="edge12" class="edge">
<title>L4YAML.Proofs.ScannerCorrectness.advance_preserves_tokens&#45;&gt;L4YAML.Scanner.ScannerState</title>
<path fill="none" stroke="#999999" stroke-dasharray="1,5" d="M699.59,-208.93C722.91,-203.49 743.85,-196.24 751,-187 762.97,-171.53 762.43,-158.86 751,-143 684.11,-50.19 535.9,-35.37 461.08,-34.1"/>
<polygon fill="#999999" stroke="#999999" points="461.1,-31.65 454.07,-34.02 461.04,-36.55 461.1,-31.65"/>
<text text-anchor="middle" x="753.5" y="-113.1" font-family="Times-Roman" font-size="8.00">about</text>
</g>
<!-- L4YAML.Proofs.ScannerCorrectness.advance_preserves_tokens&#45;&gt;L4YAML.Scanner.ScannerState.tokens -->
<g id="edge14" class="edge">
<title>L4YAML.Proofs.ScannerCorrectness.advance_preserves_tokens&#45;&gt;L4YAML.Scanner.ScannerState.tokens</title>
<path fill="none" stroke="#999999" stroke-dasharray="1,5" d="M565.75,-206.15C550.73,-200.76 534.43,-194.24 520,-187 488.16,-171.01 483.51,-161.39 453,-143 449.48,-140.88 445.79,-138.72 442.08,-136.6"/>
<polygon fill="#999999" stroke="#999999" points="443.13,-134.39 435.84,-133.07 440.72,-138.65 443.13,-134.39"/>
<text text-anchor="middle" x="532.5" y="-167.1" font-family="Times-Roman" font-size="8.00">about</text>
</g>
<!-- L4YAML.Scanner.collectCommentTextLoop.eq_def&#45;&gt;L4YAML.Scanner.ScannerState -->
<g id="edge7" class="edge">
<title>L4YAML.Scanner.collectCommentTextLoop.eq_def&#45;&gt;L4YAML.Scanner.ScannerState</title>
<path fill="none" stroke="#999999" stroke-dasharray="1,5" d="M619.55,-151.69C577.37,-127.51 498.27,-82.16 452.07,-55.68"/>
<polygon fill="#999999" stroke="#999999" points="453.07,-53.43 445.78,-52.07 450.64,-57.68 453.07,-53.43"/>
<text text-anchor="middle" x="596.5" y="-113.1" font-family="Times-Roman" font-size="8.00">about</text>
</g>
</g>
</svg>
