<?xml version="1.0" encoding="UTF-8" standalone="no"?>
<!DOCTYPE svg PUBLIC "-//W3C//DTD SVG 1.1//EN"
 "http://www.w3.org/Graphics/SVG/1.1/DTD/svg11.dtd">
<!-- Generated by graphviz version 2.44.0 (0)
 -->
<!-- Title: chain_ScannerProgress.emit_offset Pages: 1 -->
<svg width="332pt" height="98pt"
 viewBox="0.00 0.00 332.00 97.92" xmlns="http://www.w3.org/2000/svg" xmlns:xlink="http://www.w3.org/1999/xlink">
<g id="graph0" class="graph" transform="scale(1 1) rotate(0) translate(4 93.92)">
<title>chain_ScannerProgress.emit_offset</title>
<polygon fill="white" stroke="transparent" points="-4,4 -4,-93.92 328,-93.92 328,4 -4,4"/>
<text text-anchor="middle" x="162" y="-75.52" font-family="Helvetica Bold" font-size="13.00">Functorial Chains: ScannerProgress.emit_offset</text>
<text text-anchor="middle" x="162" y="-61.52" font-family="Helvetica Bold" font-size="13.00">(heuristic: used by 9 proofs)</text>
<!-- L4YAML.Proofs.ScannerProgress.emit_offset -->
<g id="node1" class="node">
<title>L4YAML.Proofs.ScannerProgress.emit_offset</title>
<polygon fill="#fff3cd" stroke="black" points="271.4,-17.46 271.4,-36.46 207.31,-49.89 116.69,-49.89 52.6,-36.46 52.6,-17.46 116.69,-4.03 207.31,-4.03 271.4,-17.46"/>
<polygon fill="none" stroke="black" points="275.39,-14.22 275.39,-39.7 207.73,-53.88 116.27,-53.88 48.61,-39.7 48.61,-14.22 116.27,-0.04 207.73,-0.04 275.39,-14.22"/>
<text text-anchor="middle" x="162" y="-29.96" font-family="Helvetica" font-size="10.00">ScannerProgress.emit_offset</text>
<text text-anchor="middle" x="162" y="-18.96" font-family="Helvetica" font-size="10.00">(no functorial chains found)</text>
</g>
</g>
</svg>
