<?xml version="1.0" encoding="UTF-8" standalone="no"?>
<!DOCTYPE svg PUBLIC "-//W3C//DTD SVG 1.1//EN"
 "http://www.w3.org/Graphics/SVG/1.1/DTD/svg11.dtd">
<!-- Generated by graphviz version 2.44.0 (0)
 -->
<!-- Title: CharPredicates.isLineBreak_iff Pages: 1 -->
<svg width="648pt" height="256pt"
 viewBox="0.00 0.00 647.94 256.00" xmlns="http://www.w3.org/2000/svg" xmlns:xlink="http://www.w3.org/1999/xlink">
<g id="graph0" class="graph" transform="scale(1 1) rotate(0) translate(4 252)">
<title>CharPredicates.isLineBreak_iff</title>
<polygon fill="white" stroke="transparent" points="-4,4 -4,-252 643.94,-252 643.94,4 -4,4"/>
<text text-anchor="middle" x="319.97" y="-233.6" font-family="Helvetica Bold" font-size="13.00">CharPredicates.isLineBreak_iff</text>
<text text-anchor="middle" x="319.97" y="-219.6" font-family="Helvetica Bold" font-size="13.00">(heuristic: used by 6 proofs)</text>
<text text-anchor="middle" x="319.97" y="-205.6" font-family="Helvetica Bold" font-size="13.00">(L4YAML.CharPredicates)</text>
<g id="clust1" class="cluster">
<title>cluster_functions</title>
<polygon fill="none" stroke="#4a90d9" stroke-dasharray="5,2" points="457.94,-32 457.94,-160 631.94,-160 631.94,-32 457.94,-32"/>
<text text-anchor="middle" x="544.94" y="-145.6" font-family="Helvetica Bold" font-size="13.00" fill="#4a90d9">Functions</text>
</g>
<g id="clust2" class="cluster">
<title>cluster_key</title>
<polygon fill="none" stroke="#d4a017" stroke-dasharray="5,2" points="145.07,-58 145.07,-140 412.94,-140 412.94,-58 145.07,-58"/>
<text text-anchor="middle" x="279.01" y="-125.6" font-family="Helvetica Bold" font-size="13.00" fill="#d4a017">Key Theorem</text>
</g>
<g id="clust4" class="cluster">
<title>cluster_stdlib</title>
<polygon fill="none" stroke="#e67e22" stroke-dasharray="5,2" points="8,-8 8,-190 124.07,-190 124.07,-8 8,-8"/>
<text text-anchor="middle" x="66.04" y="-175.6" font-family="Helvetica Bold" font-size="13.00" fill="#e67e22">Stdlib Lemmas</text>
</g>
<!-- L4YAML.CharPredicates.isLineBreakBool -->
<g id="node1" class="node">
<title>L4YAML.CharPredicates.isLineBreakBool</title>
<polygon fill="#dce9f7" stroke="#4a90d9" points="623.94,-130 465.94,-130 465.94,-94 623.94,-94 623.94,-130"/>
<text text-anchor="middle" x="544.94" y="-115" font-family="Helvetica" font-size="10.00">CharPredicates.isLineBreakBool</text>
<text text-anchor="middle" x="544.94" y="-104" font-family="Helvetica" font-size="10.00">(def)</text>
</g>
<!-- L4YAML.CharPredicates.isLineBreakProp -->
<g id="node2" class="node">
<title>L4YAML.CharPredicates.isLineBreakProp</title>
<polygon fill="#dce9f7" stroke="#4a90d9" points="623.94,-76 465.94,-76 465.94,-40 623.94,-40 623.94,-76"/>
<text text-anchor="middle" x="544.94" y="-61" font-family="Helvetica" font-size="10.00">CharPredicates.isLineBreakProp</text>
<text text-anchor="middle" x="544.94" y="-50" font-family="Helvetica" font-size="10.00">(def)</text>
</g>
<!-- L4YAML.CharPredicates.isLineBreak_iff -->
<g id="node3" class="node">
<title>L4YAML.CharPredicates.isLineBreak_iff</title>
<polygon fill="#fff3cd" stroke="#d4a017" points="400.88,-80.54 400.88,-95.46 329.49,-106 228.53,-106 157.14,-95.46 157.14,-80.54 228.53,-70 329.49,-70 400.88,-80.54"/>
<polygon fill="none" stroke="#d4a017" points="404.88,-77.09 404.88,-98.91 329.78,-110 228.23,-110 153.14,-98.91 153.14,-77.09 228.23,-66 329.78,-66 404.88,-77.09"/>
<text text-anchor="middle" x="279.01" y="-84.9" font-family="Helvetica" font-size="12.00">CharPredicates.isLineBreak_iff</text>
</g>
<!-- L4YAML.CharPredicates.isLineBreak_iff&#45;&gt;L4YAML.CharPredicates.isLineBreakBool -->
<g id="edge2" class="edge">
<title>L4YAML.CharPredicates.isLineBreak_iff&#45;&gt;L4YAML.CharPredicates.isLineBreakBool</title>
<path fill="none" stroke="#4a90d9" stroke-width="2" d="M403.09,-99.19C421.95,-100.91 441.06,-102.64 458.86,-104.26"/>
<polygon fill="#4a90d9" stroke="#4a90d9" stroke-width="2" points="458.68,-106.71 465.87,-104.9 459.12,-101.83 458.68,-106.71"/>
<text text-anchor="middle" x="435.44" y="-104.6" font-family="Times-Roman" font-size="8.00" fill="#4a90d9">about</text>
</g>
<!-- L4YAML.CharPredicates.isLineBreak_iff&#45;&gt;L4YAML.CharPredicates.isLineBreakProp -->
<g id="edge1" class="edge">
<title>L4YAML.CharPredicates.isLineBreak_iff&#45;&gt;L4YAML.CharPredicates.isLineBreakProp</title>
<path fill="none" stroke="#4a90d9" stroke-width="2" d="M392.32,-75.23C414.51,-72.71 437.45,-70.1 458.57,-67.7"/>
<polygon fill="#4a90d9" stroke="#4a90d9" stroke-width="2" points="458.98,-70.12 465.66,-66.9 458.42,-65.25 458.98,-70.12"/>
<text text-anchor="middle" x="435.44" y="-73.6" font-family="Times-Roman" font-size="8.00" fill="#4a90d9">about</text>
</g>
<!-- iff_self -->
<g id="node4" class="node">
<title>iff_self</title>
<ellipse fill="#fdebd0" stroke="#e67e22" cx="66.04" cy="-142" rx="27" ry="18"/>
<text text-anchor="middle" x="66.04" y="-139.5" font-family="Helvetica" font-size="10.00">iff_self</text>
</g>
<!-- iff_self&#45;&gt;L4YAML.CharPredicates.isLineBreak_iff -->
<g id="edge3" class="edge">
<title>iff_self&#45;&gt;L4YAML.CharPredicates.isLineBreak_iff</title>
<path fill="none" stroke="#e67e22" stroke-width="2" d="M91.65,-135.7C117.74,-129.02 160.34,-118.12 198.22,-108.42"/>
<polygon fill="#e67e22" stroke="#e67e22" stroke-width="2" points="199.06,-110.74 205.23,-106.63 197.84,-105.99 199.06,-110.74"/>
</g>
<!-- Bool.or_eq_true -->
<g id="node5" class="node">
<title>Bool.or_eq_true</title>
<ellipse fill="#fdebd0" stroke="#e67e22" cx="66.04" cy="-88" rx="50.07" ry="18"/>
<text text-anchor="middle" x="66.04" y="-85.5" font-family="Helvetica" font-size="10.00">Bool.or_eq_true</text>
</g>
<!-- Bool.or_eq_true&#45;&gt;L4YAML.CharPredicates.isLineBreak_iff -->
<g id="edge4" class="edge">
<title>Bool.or_eq_true&#45;&gt;L4YAML.CharPredicates.isLineBreak_iff</title>
<path fill="none" stroke="#e67e22" stroke-width="2" d="M116.23,-88C125.43,-88 135.44,-88 145.82,-88"/>
<polygon fill="#e67e22" stroke="#e67e22" stroke-width="2" points="146.06,-90.45 153.06,-88 146.06,-85.55 146.06,-90.45"/>
</g>
<!-- of_eq_true -->
<g id="node6" class="node">
<title>of_eq_true</title>
<ellipse fill="#fdebd0" stroke="#e67e22" cx="66.04" cy="-34" rx="36.49" ry="18"/>
<text text-anchor="middle" x="66.04" y="-31.5" font-family="Helvetica" font-size="10.00">of_eq_true</text>
</g>
<!-- of_eq_true&#45;&gt;L4YAML.CharPredicates.isLineBreak_iff -->
<g id="edge5" class="edge">
<title>of_eq_true&#45;&gt;L4YAML.CharPredicates.isLineBreak_iff</title>
<path fill="none" stroke="#e67e22" stroke-width="2" d="M99.08,-42.2C125.34,-48.92 163.65,-58.73 198.1,-67.55"/>
<polygon fill="#e67e22" stroke="#e67e22" stroke-width="2" points="197.54,-69.93 204.93,-69.3 198.76,-65.19 197.54,-69.93"/>
</g>
</g>
</svg>
