<?xml version="1.0" encoding="UTF-8" standalone="no"?>
<!DOCTYPE svg PUBLIC "-//W3C//DTD SVG 1.1//EN"
 "http://www.w3.org/Graphics/SVG/1.1/DTD/svg11.dtd">
<!-- Generated by graphviz version 2.44.0 (0)
 -->
<!-- Title: collectTagSuffixLoop.eq_def Pages: 1 -->
<svg width="639pt" height="472pt"
 viewBox="0.00 0.00 638.73 472.00" xmlns="http://www.w3.org/2000/svg" xmlns:xlink="http://www.w3.org/1999/xlink">
<g id="graph0" class="graph" transform="scale(1 1) rotate(0) translate(4 468)">
<title>collectTagSuffixLoop.eq_def</title>
<polygon fill="white" stroke="transparent" points="-4,4 -4,-468 634.73,-468 634.73,4 -4,4"/>
<text text-anchor="middle" x="315.37" y="-449.6" font-family="Helvetica Bold" font-size="13.00">collectTagSuffixLoop.eq_def</text>
<text text-anchor="middle" x="315.37" y="-435.6" font-family="Helvetica Bold" font-size="13.00">(heuristic: used by 7 proofs)</text>
<text text-anchor="middle" x="315.37" y="-421.6" font-family="Helvetica Bold" font-size="13.00">(L4YAML.Proofs.StructureCoupling)</text>
<g id="clust1" class="cluster">
<title>cluster_functions</title>
<polygon fill="none" stroke="#4a90d9" stroke-dasharray="5,2" points="430.73,-8 430.73,-406 622.73,-406 622.73,-8 430.73,-8"/>
<text text-anchor="middle" x="526.73" y="-391.6" font-family="Helvetica Bold" font-size="13.00" fill="#4a90d9">Functions</text>
</g>
<g id="clust2" class="cluster">
<title>cluster_key</title>
<polygon fill="none" stroke="#d4a017" stroke-dasharray="5,2" points="139.19,-166 139.19,-248 385.73,-248 385.73,-166 139.19,-166"/>
<text text-anchor="middle" x="262.46" y="-233.6" font-family="Helvetica Bold" font-size="13.00" fill="#d4a017">Key Theorem</text>
</g>
<g id="clust4" class="cluster">
<title>cluster_stdlib</title>
<polygon fill="none" stroke="#e67e22" stroke-dasharray="5,2" points="8,-170 8,-244 118.19,-244 118.19,-170 8,-170"/>
<text text-anchor="middle" x="63.09" y="-229.6" font-family="Helvetica Bold" font-size="13.00" fill="#e67e22">Stdlib Lemmas</text>
</g>
<!-- L4YAML.Scanner.ScannerState.advance -->
<g id="node1" class="node">
<title>L4YAML.Scanner.ScannerState.advance</title>
<g id="a_node1"><a xlink:href="../../../api/L4YAML/Scanner.html#L4YAML.Scanner.ScannerState.advance" xlink:title="ScannerState.advance\n(def)" target="_blank">
<polygon fill="#dce9f7" stroke="#4a90d9" points="584.23,-376 469.23,-376 469.23,-340 584.23,-340 584.23,-376"/>
<text text-anchor="middle" x="526.73" y="-361" font-family="Helvetica" font-size="10.00">ScannerState.advance</text>
<text text-anchor="middle" x="526.73" y="-350" font-family="Helvetica" font-size="10.00">(def)</text>
</a>
</g>
</g>
<!-- L4YAML.Scanner.ScannerState.peek? -->
<g id="node2" class="node">
<title>L4YAML.Scanner.ScannerState.peek?</title>
<g id="a_node2"><a xlink:href="../../../api/L4YAML/Scanner.html#L4YAML.Scanner.ScannerState.peek?" xlink:title="ScannerState.peek?\n(def)" target="_blank">
<polygon fill="#dce9f7" stroke="#4a90d9" points="578.73,-322 474.73,-322 474.73,-286 578.73,-286 578.73,-322"/>
<text text-anchor="middle" x="526.73" y="-307" font-family="Helvetica" font-size="10.00">ScannerState.peek?</text>
<text text-anchor="middle" x="526.73" y="-296" font-family="Helvetica" font-size="10.00">(def)</text>
</a>
</g>
</g>
<!-- L4YAML.Scanner.skipWhitespaceLoop.match_1 -->
<g id="node3" class="node">
<title>L4YAML.Scanner.skipWhitespaceLoop.match_1</title>
<g id="a_node3"><a xlink:href="../../../api/L4YAML/Scanner.html#L4YAML.Scanner.skipWhitespaceLoop.match_1" xlink:title="skipWhitespaceLoop.match_1\n(def)" target="_blank">
<polygon fill="#dce9f7" stroke="#4a90d9" points="600.73,-268 452.73,-268 452.73,-232 600.73,-232 600.73,-268"/>
<text text-anchor="middle" x="526.73" y="-253" font-family="Helvetica" font-size="10.00">skipWhitespaceLoop.match_1</text>
<text text-anchor="middle" x="526.73" y="-242" font-family="Helvetica" font-size="10.00">(def)</text>
</a>
</g>
</g>
<!-- L4YAML.Scanner.ScannerState -->
<g id="node4" class="node">
<title>L4YAML.Scanner.ScannerState</title>
<g id="a_node4"><a xlink:href="../../../api/L4YAML/Scanner.html#L4YAML.Scanner.ScannerState" xlink:title="ScannerState\n(inductive)" target="_blank">
<polygon fill="#dce9f7" stroke="#4a90d9" points="564.73,-214 488.73,-214 488.73,-178 564.73,-178 564.73,-214"/>
<text text-anchor="middle" x="526.73" y="-199" font-family="Helvetica" font-size="10.00">ScannerState</text>
<text text-anchor="middle" x="526.73" y="-188" font-family="Helvetica" font-size="10.00">(inductive)</text>
</a>
</g>
</g>
<!-- L4YAML.Scanner.ScannerState.peekAt?Loop.match_1 -->
<g id="node5" class="node">
<title>L4YAML.Scanner.ScannerState.peekAt?Loop.match_1</title>
<g id="a_node5"><a xlink:href="../../../api/L4YAML/Scanner.html#L4YAML.Scanner.ScannerState.peekAt?Loop.match_1" xlink:title="ScannerState.peekAt?Loop.match_1\n(def)" target="_blank">
<polygon fill="#dce9f7" stroke="#4a90d9" points="614.73,-160 438.73,-160 438.73,-124 614.73,-124 614.73,-160"/>
<text text-anchor="middle" x="526.73" y="-145" font-family="Helvetica" font-size="10.00">ScannerState.peekAt?Loop.match_1</text>
<text text-anchor="middle" x="526.73" y="-134" font-family="Helvetica" font-size="10.00">(def)</text>
</a>
</g>
</g>
<!-- L4YAML.CharPredicates.isTagCharBool -->
<g id="node6" class="node">
<title>L4YAML.CharPredicates.isTagCharBool</title>
<g id="a_node6"><a xlink:href="../../../api/L4YAML/CharPredicates.html#L4YAML.CharPredicates.isTagCharBool" xlink:title="CharPredicates.isTagCharBool\n(def)" target="_blank">
<polygon fill="#dce9f7" stroke="#4a90d9" points="602.23,-106 451.23,-106 451.23,-70 602.23,-70 602.23,-106"/>
<text text-anchor="middle" x="526.73" y="-91" font-family="Helvetica" font-size="10.00">CharPredicates.isTagCharBool</text>
<text text-anchor="middle" x="526.73" y="-80" font-family="Helvetica" font-size="10.00">(def)</text>
</a>
</g>
</g>
<!-- L4YAML.Scanner.collectTagSuffixLoop -->
<g id="node7" class="node">
<title>L4YAML.Scanner.collectTagSuffixLoop</title>
<g id="a_node7"><a xlink:href="../../../api/L4YAML/Scanner.html#L4YAML.Scanner.collectTagSuffixLoop" xlink:title="collectTagSuffixLoop\n(def)" target="_blank">
<polygon fill="#dce9f7" stroke="#4a90d9" points="580.23,-52 473.23,-52 473.23,-16 580.23,-16 580.23,-52"/>
<text text-anchor="middle" x="526.73" y="-37" font-family="Helvetica" font-size="10.00">collectTagSuffixLoop</text>
<text text-anchor="middle" x="526.73" y="-26" font-family="Helvetica" font-size="10.00">(def)</text>
</a>
</g>
</g>
<!-- L4YAML.Scanner.collectTagSuffixLoop.eq_def -->
<g id="node8" class="node">
<title>L4YAML.Scanner.collectTagSuffixLoop.eq_def</title>
<g id="a_node8"><a xlink:href="../../../api/L4YAML/Proofs/StructureCoupling.html#L4YAML.Scanner.collectTagSuffixLoop.eq_def" xlink:title="collectTagSuffixLoop.eq_def" target="_blank">
<polygon fill="#fff3cd" stroke="#d4a017" points="373.51,-188.54 373.51,-203.46 308.46,-214 216.46,-214 151.4,-203.46 151.4,-188.54 216.46,-178 308.46,-178 373.51,-188.54"/>
<polygon fill="none" stroke="#d4a017" points="377.51,-185.14 377.51,-206.86 308.78,-218 216.14,-218 147.41,-206.86 147.41,-185.14 216.14,-174 308.78,-174 377.51,-185.14"/>
<text text-anchor="middle" x="262.46" y="-192.9" font-family="Helvetica" font-size="12.00">collectTagSuffixLoop.eq_def</text>
</a>
</g>
</g>
<!-- L4YAML.Scanner.collectTagSuffixLoop.eq_def&#45;&gt;L4YAML.Scanner.ScannerState.advance -->
<g id="edge1" class="edge">
<title>L4YAML.Scanner.collectTagSuffixLoop.eq_def&#45;&gt;L4YAML.Scanner.ScannerState.advance</title>
<path fill="none" stroke="#4a90d9" stroke-width="2" d="M284.91,-218.21C314.9,-248.01 372.25,-300.7 430.73,-331 440.57,-336.09 451.49,-340.34 462.32,-343.83"/>
<polygon fill="#4a90d9" stroke="#4a90d9" stroke-width="2" points="461.63,-346.18 469.04,-345.91 463.08,-341.5 461.63,-346.18"/>
<text text-anchor="middle" x="408.23" y="-327.6" font-family="Times-Roman" font-size="8.00" fill="#4a90d9">about</text>
</g>
<!-- L4YAML.Scanner.collectTagSuffixLoop.eq_def&#45;&gt;L4YAML.Scanner.ScannerState.peek? -->
<g id="edge7" class="edge">
<title>L4YAML.Scanner.collectTagSuffixLoop.eq_def&#45;&gt;L4YAML.Scanner.ScannerState.peek?</title>
<path fill="none" stroke="#4a90d9" stroke-width="2" d="M303.83,-218.01C337.17,-235.59 386.11,-260 430.73,-277 442.49,-281.48 455.32,-285.61 467.64,-289.22"/>
<polygon fill="#4a90d9" stroke="#4a90d9" stroke-width="2" points="467.01,-291.59 474.42,-291.18 468.37,-286.89 467.01,-291.59"/>
<text text-anchor="middle" x="408.23" y="-273.6" font-family="Times-Roman" font-size="8.00" fill="#4a90d9">about</text>
</g>
<!-- L4YAML.Scanner.collectTagSuffixLoop.eq_def&#45;&gt;L4YAML.Scanner.skipWhitespaceLoop.match_1 -->
<g id="edge6" class="edge">
<title>L4YAML.Scanner.collectTagSuffixLoop.eq_def&#45;&gt;L4YAML.Scanner.skipWhitespaceLoop.match_1</title>
<path fill="none" stroke="#4a90d9" stroke-width="2" d="M343.22,-212.42C375.72,-219.11 413.22,-226.84 445.75,-233.53"/>
<polygon fill="#4a90d9" stroke="#4a90d9" stroke-width="2" points="445.26,-235.93 452.61,-234.94 446.25,-231.13 445.26,-235.93"/>
<text text-anchor="middle" x="408.23" y="-229.6" font-family="Times-Roman" font-size="8.00" fill="#4a90d9">about</text>
</g>
<!-- L4YAML.Scanner.collectTagSuffixLoop.eq_def&#45;&gt;L4YAML.Scanner.ScannerState -->
<g id="edge4" class="edge">
<title>L4YAML.Scanner.collectTagSuffixLoop.eq_def&#45;&gt;L4YAML.Scanner.ScannerState</title>
<path fill="none" stroke="#4a90d9" stroke-width="2" d="M377.73,-196C414.51,-196 453.09,-196 481.63,-196"/>
<polygon fill="#4a90d9" stroke="#4a90d9" stroke-width="2" points="481.67,-198.45 488.67,-196 481.67,-193.55 481.67,-198.45"/>
<text text-anchor="middle" x="408.23" y="-198.6" font-family="Times-Roman" font-size="8.00" fill="#4a90d9">about</text>
</g>
<!-- L4YAML.Scanner.collectTagSuffixLoop.eq_def&#45;&gt;L4YAML.Scanner.ScannerState.peekAt?Loop.match_1 -->
<g id="edge2" class="edge">
<title>L4YAML.Scanner.collectTagSuffixLoop.eq_def&#45;&gt;L4YAML.Scanner.ScannerState.peekAt?Loop.match_1</title>
<path fill="none" stroke="#4a90d9" stroke-width="2" d="M343.22,-179.58C371.12,-173.83 402.71,-167.33 431.68,-161.37"/>
<polygon fill="#4a90d9" stroke="#4a90d9" stroke-width="2" points="432.23,-163.75 438.59,-159.94 431.24,-158.95 432.23,-163.75"/>
<text text-anchor="middle" x="408.23" y="-169.6" font-family="Times-Roman" font-size="8.00" fill="#4a90d9">about</text>
</g>
<!-- L4YAML.Scanner.collectTagSuffixLoop.eq_def&#45;&gt;L4YAML.CharPredicates.isTagCharBool -->
<g id="edge5" class="edge">
<title>L4YAML.Scanner.collectTagSuffixLoop.eq_def&#45;&gt;L4YAML.CharPredicates.isTagCharBool</title>
<path fill="none" stroke="#4a90d9" stroke-width="2" d="M303.83,-173.99C337.17,-156.41 386.11,-132 430.73,-115 436.85,-112.67 443.26,-110.43 449.73,-108.32"/>
<polygon fill="#4a90d9" stroke="#4a90d9" stroke-width="2" points="450.85,-110.53 456.77,-106.06 449.36,-105.86 450.85,-110.53"/>
<text text-anchor="middle" x="408.23" y="-130.6" font-family="Times-Roman" font-size="8.00" fill="#4a90d9">about</text>
</g>
<!-- L4YAML.Scanner.collectTagSuffixLoop.eq_def&#45;&gt;L4YAML.Scanner.collectTagSuffixLoop -->
<g id="edge3" class="edge">
<title>L4YAML.Scanner.collectTagSuffixLoop.eq_def&#45;&gt;L4YAML.Scanner.collectTagSuffixLoop</title>
<path fill="none" stroke="#4a90d9" stroke-width="2" d="M284.91,-173.79C314.9,-143.99 372.25,-91.3 430.73,-61 441.68,-55.33 453.97,-50.72 465.98,-47.01"/>
<polygon fill="#4a90d9" stroke="#4a90d9" stroke-width="2" points="467,-49.27 473.01,-44.93 465.61,-44.57 467,-49.27"/>
<text text-anchor="middle" x="408.23" y="-80.6" font-family="Times-Roman" font-size="8.00" fill="#4a90d9">about</text>
</g>
<!-- Nat.brecOn.eq -->
<g id="node9" class="node">
<title>Nat.brecOn.eq</title>
<g id="a_node9"><a xlink:href="../../../api/Init/Prelude.html#Nat.brecOn.eq" xlink:title="Nat.brecOn.eq" target="_blank">
<ellipse fill="#fdebd0" stroke="#e67e22" cx="63.09" cy="-196" rx="47.19" ry="18"/>
<text text-anchor="middle" x="63.09" y="-193.5" font-family="Helvetica" font-size="10.00">Nat.brecOn.eq</text>
</a>
</g>
</g>
<!-- Nat.brecOn.eq&#45;&gt;L4YAML.Scanner.collectTagSuffixLoop.eq_def -->
<g id="edge8" class="edge">
<title>Nat.brecOn.eq&#45;&gt;L4YAML.Scanner.collectTagSuffixLoop.eq_def</title>
<path fill="none" stroke="#e67e22" stroke-width="2" d="M110.37,-196C119.53,-196 129.55,-196 139.92,-196"/>
<polygon fill="#e67e22" stroke="#e67e22" stroke-width="2" points="140.15,-198.45 147.15,-196 140.15,-193.55 140.15,-198.45"/>
</g>
</g>
</svg>
