<?xml version="1.0" encoding="UTF-8" standalone="no"?>
<!DOCTYPE svg PUBLIC "-//W3C//DTD SVG 1.1//EN"
 "http://www.w3.org/Graphics/SVG/1.1/DTD/svg11.dtd">
<!-- Generated by graphviz version 2.44.0 (0)
 -->
<!-- Title: collectVersionMajorLoop.eq_def Pages: 1 -->
<svg width="667pt" height="418pt"
 viewBox="0.00 0.00 666.72 418.00" xmlns="http://www.w3.org/2000/svg" xmlns:xlink="http://www.w3.org/1999/xlink">
<g id="graph0" class="graph" transform="scale(1 1) rotate(0) translate(4 414)">
<title>collectVersionMajorLoop.eq_def</title>
<polygon fill="white" stroke="transparent" points="-4,4 -4,-414 662.72,-414 662.72,4 -4,4"/>
<text text-anchor="middle" x="329.36" y="-395.6" font-family="Helvetica Bold" font-size="13.00">collectVersionMajorLoop.eq_def</text>
<text text-anchor="middle" x="329.36" y="-381.6" font-family="Helvetica Bold" font-size="13.00">(heuristic: used by 8 proofs)</text>
<text text-anchor="middle" x="329.36" y="-367.6" font-family="Helvetica Bold" font-size="13.00">(L4YAML.Proofs.StructureCoupling)</text>
<g id="clust1" class="cluster">
<title>cluster_functions</title>
<polygon fill="none" stroke="#4a90d9" stroke-dasharray="5,2" points="458.72,-8 458.72,-352 650.72,-352 650.72,-8 458.72,-8"/>
<text text-anchor="middle" x="554.72" y="-337.6" font-family="Helvetica Bold" font-size="13.00" fill="#4a90d9">Functions</text>
</g>
<g id="clust2" class="cluster">
<title>cluster_key</title>
<polygon fill="none" stroke="#d4a017" stroke-dasharray="5,2" points="139.19,-138 139.19,-220 413.72,-220 413.72,-138 139.19,-138"/>
<text text-anchor="middle" x="276.45" y="-205.6" font-family="Helvetica Bold" font-size="13.00" fill="#d4a017">Key Theorem</text>
</g>
<g id="clust4" class="cluster">
<title>cluster_stdlib</title>
<polygon fill="none" stroke="#e67e22" stroke-dasharray="5,2" points="8,-142 8,-216 118.19,-216 118.19,-142 8,-142"/>
<text text-anchor="middle" x="63.09" y="-201.6" font-family="Helvetica Bold" font-size="13.00" fill="#e67e22">Stdlib Lemmas</text>
</g>
<!-- L4YAML.Scanner.collectVersionMajorLoop.match_1 -->
<g id="node1" class="node">
<title>L4YAML.Scanner.collectVersionMajorLoop.match_1</title>
<g id="a_node1"><a xlink:href="../../../api/L4YAML/Scanner.html#L4YAML.Scanner.collectVersionMajorLoop.match_1" xlink:title="collectVersionMajorLoop.match_1\n(def)" target="_blank">
<polygon fill="#dce9f7" stroke="#4a90d9" points="636.72,-322 472.72,-322 472.72,-286 636.72,-286 636.72,-322"/>
<text text-anchor="middle" x="554.72" y="-307" font-family="Helvetica" font-size="10.00">collectVersionMajorLoop.match_1</text>
<text text-anchor="middle" x="554.72" y="-296" font-family="Helvetica" font-size="10.00">(def)</text>
</a>
</g>
</g>
<!-- L4YAML.Scanner.ScannerState.advance -->
<g id="node2" class="node">
<title>L4YAML.Scanner.ScannerState.advance</title>
<g id="a_node2"><a xlink:href="../../../api/L4YAML/Scanner.html#L4YAML.Scanner.ScannerState.advance" xlink:title="ScannerState.advance\n(def)" target="_blank">
<polygon fill="#dce9f7" stroke="#4a90d9" points="612.22,-268 497.22,-268 497.22,-232 612.22,-232 612.22,-268"/>
<text text-anchor="middle" x="554.72" y="-253" font-family="Helvetica" font-size="10.00">ScannerState.advance</text>
<text text-anchor="middle" x="554.72" y="-242" font-family="Helvetica" font-size="10.00">(def)</text>
</a>
</g>
</g>
<!-- L4YAML.Scanner.ScannerState.peek? -->
<g id="node3" class="node">
<title>L4YAML.Scanner.ScannerState.peek?</title>
<g id="a_node3"><a xlink:href="../../../api/L4YAML/Scanner.html#L4YAML.Scanner.ScannerState.peek?" xlink:title="ScannerState.peek?\n(def)" target="_blank">
<polygon fill="#dce9f7" stroke="#4a90d9" points="606.72,-214 502.72,-214 502.72,-178 606.72,-178 606.72,-214"/>
<text text-anchor="middle" x="554.72" y="-199" font-family="Helvetica" font-size="10.00">ScannerState.peek?</text>
<text text-anchor="middle" x="554.72" y="-188" font-family="Helvetica" font-size="10.00">(def)</text>
</a>
</g>
</g>
<!-- L4YAML.Scanner.ScannerState -->
<g id="node4" class="node">
<title>L4YAML.Scanner.ScannerState</title>
<g id="a_node4"><a xlink:href="../../../api/L4YAML/Scanner.html#L4YAML.Scanner.ScannerState" xlink:title="ScannerState\n(inductive)" target="_blank">
<polygon fill="#dce9f7" stroke="#4a90d9" points="592.72,-160 516.72,-160 516.72,-124 592.72,-124 592.72,-160"/>
<text text-anchor="middle" x="554.72" y="-145" font-family="Helvetica" font-size="10.00">ScannerState</text>
<text text-anchor="middle" x="554.72" y="-134" font-family="Helvetica" font-size="10.00">(inductive)</text>
</a>
</g>
</g>
<!-- L4YAML.Scanner.ScannerState.peekAt?Loop.match_1 -->
<g id="node5" class="node">
<title>L4YAML.Scanner.ScannerState.peekAt?Loop.match_1</title>
<g id="a_node5"><a xlink:href="../../../api/L4YAML/Scanner.html#L4YAML.Scanner.ScannerState.peekAt?Loop.match_1" xlink:title="ScannerState.peekAt?Loop.match_1\n(def)" target="_blank">
<polygon fill="#dce9f7" stroke="#4a90d9" points="642.72,-106 466.72,-106 466.72,-70 642.72,-70 642.72,-106"/>
<text text-anchor="middle" x="554.72" y="-91" font-family="Helvetica" font-size="10.00">ScannerState.peekAt?Loop.match_1</text>
<text text-anchor="middle" x="554.72" y="-80" font-family="Helvetica" font-size="10.00">(def)</text>
</a>
</g>
</g>
<!-- L4YAML.Scanner.collectVersionMajorLoop -->
<g id="node6" class="node">
<title>L4YAML.Scanner.collectVersionMajorLoop</title>
<g id="a_node6"><a xlink:href="../../../api/L4YAML/Scanner.html#L4YAML.Scanner.collectVersionMajorLoop" xlink:title="collectVersionMajorLoop\n(def)" target="_blank">
<polygon fill="#dce9f7" stroke="#4a90d9" points="616.22,-52 493.22,-52 493.22,-16 616.22,-16 616.22,-52"/>
<text text-anchor="middle" x="554.72" y="-37" font-family="Helvetica" font-size="10.00">collectVersionMajorLoop</text>
<text text-anchor="middle" x="554.72" y="-26" font-family="Helvetica" font-size="10.00">(def)</text>
</a>
</g>
</g>
<!-- L4YAML.Scanner.collectVersionMajorLoop.eq_def -->
<g id="node7" class="node">
<title>L4YAML.Scanner.collectVersionMajorLoop.eq_def</title>
<g id="a_node7"><a xlink:href="../../../api/L4YAML/Proofs/StructureCoupling.html#L4YAML.Scanner.collectVersionMajorLoop.eq_def" xlink:title="collectVersionMajorLoop.eq_def" target="_blank">
<polygon fill="#fff3cd" stroke="#d4a017" points="401.49,-160.54 401.49,-175.46 328.24,-186 224.66,-186 151.41,-175.46 151.41,-160.54 224.66,-150 328.24,-150 401.49,-160.54"/>
<polygon fill="none" stroke="#d4a017" points="405.48,-157.08 405.48,-178.92 328.53,-190 224.37,-190 147.42,-178.92 147.42,-157.08 224.37,-146 328.53,-146 405.48,-157.08"/>
<text text-anchor="middle" x="276.45" y="-164.9" font-family="Helvetica" font-size="12.00">collectVersionMajorLoop.eq_def</text>
</a>
</g>
</g>
<!-- L4YAML.Scanner.collectVersionMajorLoop.eq_def&#45;&gt;L4YAML.Scanner.collectVersionMajorLoop.match_1 -->
<g id="edge5" class="edge">
<title>L4YAML.Scanner.collectVersionMajorLoop.eq_def&#45;&gt;L4YAML.Scanner.collectVersionMajorLoop.match_1</title>
<path fill="none" stroke="#4a90d9" stroke-width="2" d="M308.49,-190.17C343.54,-214.35 402.96,-252.82 458.72,-277 464.14,-279.35 469.83,-281.56 475.62,-283.62"/>
<polygon fill="#4a90d9" stroke="#4a90d9" stroke-width="2" points="475.02,-286.01 482.44,-285.98 476.62,-281.38 475.02,-286.01"/>
<text text-anchor="middle" x="436.22" y="-274.6" font-family="Times-Roman" font-size="8.00" fill="#4a90d9">about</text>
</g>
<!-- L4YAML.Scanner.collectVersionMajorLoop.eq_def&#45;&gt;L4YAML.Scanner.ScannerState.advance -->
<g id="edge1" class="edge">
<title>L4YAML.Scanner.collectVersionMajorLoop.eq_def&#45;&gt;L4YAML.Scanner.ScannerState.advance</title>
<path fill="none" stroke="#4a90d9" stroke-width="2" d="M342.39,-188.01C376.9,-198.56 420.07,-211.64 458.72,-223 468.91,-225.99 479.73,-229.12 490.27,-232.14"/>
<polygon fill="#4a90d9" stroke="#4a90d9" stroke-width="2" points="489.75,-234.54 497.16,-234.1 491.1,-229.82 489.75,-234.54"/>
<text text-anchor="middle" x="436.22" y="-220.6" font-family="Times-Roman" font-size="8.00" fill="#4a90d9">about</text>
</g>
<!-- L4YAML.Scanner.collectVersionMajorLoop.eq_def&#45;&gt;L4YAML.Scanner.ScannerState.peek? -->
<g id="edge6" class="edge">
<title>L4YAML.Scanner.collectVersionMajorLoop.eq_def&#45;&gt;L4YAML.Scanner.ScannerState.peek?</title>
<path fill="none" stroke="#4a90d9" stroke-width="2" d="M397.42,-180.16C431.38,-183.6 466.84,-187.19 495.38,-190.09"/>
<polygon fill="#4a90d9" stroke="#4a90d9" stroke-width="2" points="495.27,-192.54 502.48,-190.81 495.76,-187.66 495.27,-192.54"/>
<text text-anchor="middle" x="436.22" y="-187.6" font-family="Times-Roman" font-size="8.00" fill="#4a90d9">about</text>
</g>
<!-- L4YAML.Scanner.collectVersionMajorLoop.eq_def&#45;&gt;L4YAML.Scanner.ScannerState -->
<g id="edge3" class="edge">
<title>L4YAML.Scanner.collectVersionMajorLoop.eq_def&#45;&gt;L4YAML.Scanner.ScannerState</title>
<path fill="none" stroke="#4a90d9" stroke-width="2" d="M401.04,-156.37C439.71,-152.73 479.92,-148.94 509.37,-146.17"/>
<polygon fill="#4a90d9" stroke="#4a90d9" stroke-width="2" points="509.87,-148.59 516.61,-145.49 509.41,-143.71 509.87,-148.59"/>
<text text-anchor="middle" x="436.22" y="-156.6" font-family="Times-Roman" font-size="8.00" fill="#4a90d9">about</text>
</g>
<!-- L4YAML.Scanner.collectVersionMajorLoop.eq_def&#45;&gt;L4YAML.Scanner.ScannerState.peekAt?Loop.match_1 -->
<g id="edge2" class="edge">
<title>L4YAML.Scanner.collectVersionMajorLoop.eq_def&#45;&gt;L4YAML.Scanner.ScannerState.peekAt?Loop.match_1</title>
<path fill="none" stroke="#4a90d9" stroke-width="2" d="M344.56,-148.25C378.72,-138.23 420.91,-125.9 458.72,-115 466.63,-112.72 474.92,-110.34 483.17,-107.99"/>
<polygon fill="#4a90d9" stroke="#4a90d9" stroke-width="2" points="484.02,-110.29 490.08,-106.02 482.67,-105.58 484.02,-110.29"/>
<text text-anchor="middle" x="436.22" y="-127.6" font-family="Times-Roman" font-size="8.00" fill="#4a90d9">about</text>
</g>
<!-- L4YAML.Scanner.collectVersionMajorLoop.eq_def&#45;&gt;L4YAML.Scanner.collectVersionMajorLoop -->
<g id="edge4" class="edge">
<title>L4YAML.Scanner.collectVersionMajorLoop.eq_def&#45;&gt;L4YAML.Scanner.collectVersionMajorLoop</title>
<path fill="none" stroke="#4a90d9" stroke-width="2" d="M309.19,-145.84C344.38,-122.12 403.47,-84.69 458.72,-61 467.47,-57.25 476.89,-53.85 486.28,-50.84"/>
<polygon fill="#4a90d9" stroke="#4a90d9" stroke-width="2" points="487.15,-53.13 493.11,-48.71 485.7,-48.46 487.15,-53.13"/>
<text text-anchor="middle" x="436.22" y="-77.6" font-family="Times-Roman" font-size="8.00" fill="#4a90d9">about</text>
</g>
<!-- Nat.brecOn.eq -->
<g id="node8" class="node">
<title>Nat.brecOn.eq</title>
<g id="a_node8"><a xlink:href="../../../api/Init/Prelude.html#Nat.brecOn.eq" xlink:title="Nat.brecOn.eq" target="_blank">
<ellipse fill="#fdebd0" stroke="#e67e22" cx="63.09" cy="-168" rx="47.19" ry="18"/>
<text text-anchor="middle" x="63.09" y="-165.5" font-family="Helvetica" font-size="10.00">Nat.brecOn.eq</text>
</a>
</g>
</g>
<!-- Nat.brecOn.eq&#45;&gt;L4YAML.Scanner.collectVersionMajorLoop.eq_def -->
<g id="edge7" class="edge">
<title>Nat.brecOn.eq&#45;&gt;L4YAML.Scanner.collectVersionMajorLoop.eq_def</title>
<path fill="none" stroke="#e67e22" stroke-width="2" d="M110.22,-168C119.48,-168 129.66,-168 140.26,-168"/>
<polygon fill="#e67e22" stroke="#e67e22" stroke-width="2" points="140.29,-170.45 147.29,-168 140.29,-165.55 140.29,-170.45"/>
</g>
</g>
</svg>
