<?xml version="1.0" encoding="UTF-8" standalone="no"?>
<!DOCTYPE svg PUBLIC "-//W3C//DTD SVG 1.1//EN"
 "http://www.w3.org/Graphics/SVG/1.1/DTD/svg11.dtd">
<!-- Generated by graphviz version 2.44.0 (0)
 -->
<!-- Title: collectTagHandleLoop.eq_def Pages: 1 -->
<svg width="651pt" height="472pt"
 viewBox="0.00 0.00 650.73 472.00" xmlns="http://www.w3.org/2000/svg" xmlns:xlink="http://www.w3.org/1999/xlink">
<g id="graph0" class="graph" transform="scale(1 1) rotate(0) translate(4 468)">
<title>collectTagHandleLoop.eq_def</title>
<polygon fill="white" stroke="transparent" points="-4,4 -4,-468 646.73,-468 646.73,4 -4,4"/>
<text text-anchor="middle" x="321.36" y="-449.6" font-family="Helvetica Bold" font-size="13.00">collectTagHandleLoop.eq_def</text>
<text text-anchor="middle" x="321.36" y="-435.6" font-family="Helvetica Bold" font-size="13.00">(heuristic: used by 7 proofs)</text>
<text text-anchor="middle" x="321.36" y="-421.6" font-family="Helvetica Bold" font-size="13.00">(L4YAML.Proofs.StructureCoupling)</text>
<g id="clust1" class="cluster">
<title>cluster_functions</title>
<polygon fill="none" stroke="#4a90d9" stroke-dasharray="5,2" points="442.73,-8 442.73,-406 634.73,-406 634.73,-8 442.73,-8"/>
<text text-anchor="middle" x="538.73" y="-391.6" font-family="Helvetica Bold" font-size="13.00" fill="#4a90d9">Functions</text>
</g>
<g id="clust2" class="cluster">
<title>cluster_key</title>
<polygon fill="none" stroke="#d4a017" stroke-dasharray="5,2" points="139.19,-166 139.19,-248 397.73,-248 397.73,-166 139.19,-166"/>
<text text-anchor="middle" x="268.46" y="-233.6" font-family="Helvetica Bold" font-size="13.00" fill="#d4a017">Key Theorem</text>
</g>
<g id="clust4" class="cluster">
<title>cluster_stdlib</title>
<polygon fill="none" stroke="#e67e22" stroke-dasharray="5,2" points="8,-170 8,-244 118.19,-244 118.19,-170 8,-170"/>
<text text-anchor="middle" x="63.09" y="-229.6" font-family="Helvetica Bold" font-size="13.00" fill="#e67e22">Stdlib Lemmas</text>
</g>
<!-- L4YAML.Scanner.ScannerState.advance -->
<g id="node1" class="node">
<title>L4YAML.Scanner.ScannerState.advance</title>
<g id="a_node1"><a xlink:href="../../../api/L4YAML/Scanner.html#L4YAML.Scanner.ScannerState.advance" xlink:title="ScannerState.advance\n(def)" target="_blank">
<polygon fill="#dce9f7" stroke="#4a90d9" points="596.23,-376 481.23,-376 481.23,-340 596.23,-340 596.23,-376"/>
<text text-anchor="middle" x="538.73" y="-361" font-family="Helvetica" font-size="10.00">ScannerState.advance</text>
<text text-anchor="middle" x="538.73" y="-350" font-family="Helvetica" font-size="10.00">(def)</text>
</a>
</g>
</g>
<!-- L4YAML.Scanner.ScannerState.peek? -->
<g id="node2" class="node">
<title>L4YAML.Scanner.ScannerState.peek?</title>
<g id="a_node2"><a xlink:href="../../../api/L4YAML/Scanner.html#L4YAML.Scanner.ScannerState.peek?" xlink:title="ScannerState.peek?\n(def)" target="_blank">
<polygon fill="#dce9f7" stroke="#4a90d9" points="590.73,-322 486.73,-322 486.73,-286 590.73,-286 590.73,-322"/>
<text text-anchor="middle" x="538.73" y="-307" font-family="Helvetica" font-size="10.00">ScannerState.peek?</text>
<text text-anchor="middle" x="538.73" y="-296" font-family="Helvetica" font-size="10.00">(def)</text>
</a>
</g>
</g>
<!-- L4YAML.Scanner.collectTagHandleLoop -->
<g id="node3" class="node">
<title>L4YAML.Scanner.collectTagHandleLoop</title>
<g id="a_node3"><a xlink:href="../../../api/L4YAML/Scanner.html#L4YAML.Scanner.collectTagHandleLoop" xlink:title="collectTagHandleLoop\n(def)" target="_blank">
<polygon fill="#dce9f7" stroke="#4a90d9" points="595.23,-268 482.23,-268 482.23,-232 595.23,-232 595.23,-268"/>
<text text-anchor="middle" x="538.73" y="-253" font-family="Helvetica" font-size="10.00">collectTagHandleLoop</text>
<text text-anchor="middle" x="538.73" y="-242" font-family="Helvetica" font-size="10.00">(def)</text>
</a>
</g>
</g>
<!-- L4YAML.Scanner.ScannerState -->
<g id="node4" class="node">
<title>L4YAML.Scanner.ScannerState</title>
<g id="a_node4"><a xlink:href="../../../api/L4YAML/Scanner.html#L4YAML.Scanner.ScannerState" xlink:title="ScannerState\n(inductive)" target="_blank">
<polygon fill="#dce9f7" stroke="#4a90d9" points="576.73,-214 500.73,-214 500.73,-178 576.73,-178 576.73,-214"/>
<text text-anchor="middle" x="538.73" y="-199" font-family="Helvetica" font-size="10.00">ScannerState</text>
<text text-anchor="middle" x="538.73" y="-188" font-family="Helvetica" font-size="10.00">(inductive)</text>
</a>
</g>
</g>
<!-- L4YAML.Scanner.ScannerState.peekAt?Loop.match_1 -->
<g id="node5" class="node">
<title>L4YAML.Scanner.ScannerState.peekAt?Loop.match_1</title>
<g id="a_node5"><a xlink:href="../../../api/L4YAML/Scanner.html#L4YAML.Scanner.ScannerState.peekAt?Loop.match_1" xlink:title="ScannerState.peekAt?Loop.match_1\n(def)" target="_blank">
<polygon fill="#dce9f7" stroke="#4a90d9" points="626.73,-160 450.73,-160 450.73,-124 626.73,-124 626.73,-160"/>
<text text-anchor="middle" x="538.73" y="-145" font-family="Helvetica" font-size="10.00">ScannerState.peekAt?Loop.match_1</text>
<text text-anchor="middle" x="538.73" y="-134" font-family="Helvetica" font-size="10.00">(def)</text>
</a>
</g>
</g>
<!-- L4YAML.CharPredicates.isWordCharBool -->
<g id="node6" class="node">
<title>L4YAML.CharPredicates.isWordCharBool</title>
<g id="a_node6"><a xlink:href="../../../api/L4YAML/CharPredicates.html#L4YAML.CharPredicates.isWordCharBool" xlink:title="CharPredicates.isWordCharBool\n(def)" target="_blank">
<polygon fill="#dce9f7" stroke="#4a90d9" points="617.73,-106 459.73,-106 459.73,-70 617.73,-70 617.73,-106"/>
<text text-anchor="middle" x="538.73" y="-91" font-family="Helvetica" font-size="10.00">CharPredicates.isWordCharBool</text>
<text text-anchor="middle" x="538.73" y="-80" font-family="Helvetica" font-size="10.00">(def)</text>
</a>
</g>
</g>
<!-- L4YAML.Scanner.collectTagHandleLoop.match_1 -->
<g id="node7" class="node">
<title>L4YAML.Scanner.collectTagHandleLoop.match_1</title>
<g id="a_node7"><a xlink:href="../../../api/L4YAML/Scanner.html#L4YAML.Scanner.collectTagHandleLoop.match_1" xlink:title="collectTagHandleLoop.match_1\n(def)" target="_blank">
<polygon fill="#dce9f7" stroke="#4a90d9" points="615.23,-52 462.23,-52 462.23,-16 615.23,-16 615.23,-52"/>
<text text-anchor="middle" x="538.73" y="-37" font-family="Helvetica" font-size="10.00">collectTagHandleLoop.match_1</text>
<text text-anchor="middle" x="538.73" y="-26" font-family="Helvetica" font-size="10.00">(def)</text>
</a>
</g>
</g>
<!-- L4YAML.Scanner.collectTagHandleLoop.eq_def -->
<g id="node8" class="node">
<title>L4YAML.Scanner.collectTagHandleLoop.eq_def</title>
<g id="a_node8"><a xlink:href="../../../api/L4YAML/Proofs/StructureCoupling.html#L4YAML.Scanner.collectTagHandleLoop.eq_def" xlink:title="collectTagHandleLoop.eq_def" target="_blank">
<polygon fill="#fff3cd" stroke="#d4a017" points="385.5,-188.54 385.5,-203.46 316.94,-214 219.97,-214 151.41,-203.46 151.41,-188.54 219.97,-178 316.94,-178 385.5,-188.54"/>
<polygon fill="none" stroke="#d4a017" points="389.5,-185.11 389.5,-206.89 317.24,-218 219.67,-218 147.42,-206.89 147.42,-185.11 219.67,-174 317.24,-174 389.5,-185.11"/>
<text text-anchor="middle" x="268.46" y="-192.9" font-family="Helvetica" font-size="12.00">collectTagHandleLoop.eq_def</text>
</a>
</g>
</g>
<!-- L4YAML.Scanner.collectTagHandleLoop.eq_def&#45;&gt;L4YAML.Scanner.ScannerState.advance -->
<g id="edge1" class="edge">
<title>L4YAML.Scanner.collectTagHandleLoop.eq_def&#45;&gt;L4YAML.Scanner.ScannerState.advance</title>
<path fill="none" stroke="#4a90d9" stroke-width="2" d="M291.84,-218.16C323.08,-247.92 382.7,-300.55 442.73,-331 452.6,-336.01 463.54,-340.21 474.38,-343.69"/>
<polygon fill="#4a90d9" stroke="#4a90d9" stroke-width="2" points="473.7,-346.04 481.11,-345.77 475.14,-341.36 473.7,-346.04"/>
<text text-anchor="middle" x="420.23" y="-327.6" font-family="Times-Roman" font-size="8.00" fill="#4a90d9">about</text>
</g>
<!-- L4YAML.Scanner.collectTagHandleLoop.eq_def&#45;&gt;L4YAML.Scanner.ScannerState.peek? -->
<g id="edge7" class="edge">
<title>L4YAML.Scanner.collectTagHandleLoop.eq_def&#45;&gt;L4YAML.Scanner.ScannerState.peek?</title>
<path fill="none" stroke="#4a90d9" stroke-width="2" d="M311.72,-218.09C346.31,-235.6 396.84,-259.88 442.73,-277 454.52,-281.4 467.36,-285.5 479.68,-289.1"/>
<polygon fill="#4a90d9" stroke="#4a90d9" stroke-width="2" points="479.05,-291.47 486.46,-291.05 480.41,-286.76 479.05,-291.47"/>
<text text-anchor="middle" x="420.23" y="-273.6" font-family="Times-Roman" font-size="8.00" fill="#4a90d9">about</text>
</g>
<!-- L4YAML.Scanner.collectTagHandleLoop.eq_def&#45;&gt;L4YAML.Scanner.collectTagHandleLoop -->
<g id="edge5" class="edge">
<title>L4YAML.Scanner.collectTagHandleLoop.eq_def&#45;&gt;L4YAML.Scanner.collectTagHandleLoop</title>
<path fill="none" stroke="#4a90d9" stroke-width="2" d="M352.13,-212.64C391.68,-220.6 438.26,-229.98 474.86,-237.35"/>
<polygon fill="#4a90d9" stroke="#4a90d9" stroke-width="2" points="474.7,-239.81 482.05,-238.79 475.67,-235.01 474.7,-239.81"/>
<text text-anchor="middle" x="420.23" y="-229.6" font-family="Times-Roman" font-size="8.00" fill="#4a90d9">about</text>
</g>
<!-- L4YAML.Scanner.collectTagHandleLoop.eq_def&#45;&gt;L4YAML.Scanner.ScannerState -->
<g id="edge4" class="edge">
<title>L4YAML.Scanner.collectTagHandleLoop.eq_def&#45;&gt;L4YAML.Scanner.ScannerState</title>
<path fill="none" stroke="#4a90d9" stroke-width="2" d="M389.86,-196C426.68,-196 464.9,-196 493.26,-196"/>
<polygon fill="#4a90d9" stroke="#4a90d9" stroke-width="2" points="493.62,-198.45 500.62,-196 493.62,-193.55 493.62,-198.45"/>
<text text-anchor="middle" x="420.23" y="-198.6" font-family="Times-Roman" font-size="8.00" fill="#4a90d9">about</text>
</g>
<!-- L4YAML.Scanner.collectTagHandleLoop.eq_def&#45;&gt;L4YAML.Scanner.ScannerState.peekAt?Loop.match_1 -->
<g id="edge2" class="edge">
<title>L4YAML.Scanner.collectTagHandleLoop.eq_def&#45;&gt;L4YAML.Scanner.ScannerState.peekAt?Loop.match_1</title>
<path fill="none" stroke="#4a90d9" stroke-width="2" d="M352.13,-179.36C381.07,-173.53 413.77,-166.95 443.57,-160.95"/>
<polygon fill="#4a90d9" stroke="#4a90d9" stroke-width="2" points="444.3,-163.31 450.67,-159.52 443.33,-158.5 444.3,-163.31"/>
<text text-anchor="middle" x="420.23" y="-169.6" font-family="Times-Roman" font-size="8.00" fill="#4a90d9">about</text>
</g>
<!-- L4YAML.Scanner.collectTagHandleLoop.eq_def&#45;&gt;L4YAML.CharPredicates.isWordCharBool -->
<g id="edge6" class="edge">
<title>L4YAML.Scanner.collectTagHandleLoop.eq_def&#45;&gt;L4YAML.CharPredicates.isWordCharBool</title>
<path fill="none" stroke="#4a90d9" stroke-width="2" d="M311.72,-173.91C346.31,-156.4 396.84,-132.12 442.73,-115 449.11,-112.62 455.8,-110.32 462.56,-108.15"/>
<polygon fill="#4a90d9" stroke="#4a90d9" stroke-width="2" points="463.38,-110.46 469.32,-106.01 461.9,-105.79 463.38,-110.46"/>
<text text-anchor="middle" x="420.23" y="-130.6" font-family="Times-Roman" font-size="8.00" fill="#4a90d9">about</text>
</g>
<!-- L4YAML.Scanner.collectTagHandleLoop.eq_def&#45;&gt;L4YAML.Scanner.collectTagHandleLoop.match_1 -->
<g id="edge3" class="edge">
<title>L4YAML.Scanner.collectTagHandleLoop.eq_def&#45;&gt;L4YAML.Scanner.collectTagHandleLoop.match_1</title>
<path fill="none" stroke="#4a90d9" stroke-width="2" d="M291.84,-173.84C323.08,-144.08 382.7,-91.45 442.73,-61 447.25,-58.71 451.99,-56.58 456.84,-54.62"/>
<polygon fill="#4a90d9" stroke="#4a90d9" stroke-width="2" points="457.87,-56.85 463.52,-52.04 456.11,-52.28 457.87,-56.85"/>
<text text-anchor="middle" x="420.23" y="-80.6" font-family="Times-Roman" font-size="8.00" fill="#4a90d9">about</text>
</g>
<!-- Nat.brecOn.eq -->
<g id="node9" class="node">
<title>Nat.brecOn.eq</title>
<g id="a_node9"><a xlink:href="../../../api/Init/Prelude.html#Nat.brecOn.eq" xlink:title="Nat.brecOn.eq" target="_blank">
<ellipse fill="#fdebd0" stroke="#e67e22" cx="63.09" cy="-196" rx="47.19" ry="18"/>
<text text-anchor="middle" x="63.09" y="-193.5" font-family="Helvetica" font-size="10.00">Nat.brecOn.eq</text>
</a>
</g>
</g>
<!-- Nat.brecOn.eq&#45;&gt;L4YAML.Scanner.collectTagHandleLoop.eq_def -->
<g id="edge8" class="edge">
<title>Nat.brecOn.eq&#45;&gt;L4YAML.Scanner.collectTagHandleLoop.eq_def</title>
<path fill="none" stroke="#e67e22" stroke-width="2" d="M110.24,-196C119.38,-196 129.38,-196 139.78,-196"/>
<polygon fill="#e67e22" stroke="#e67e22" stroke-width="2" points="140.03,-198.45 147.03,-196 140.03,-193.55 140.03,-198.45"/>
</g>
</g>
</svg>
