<?xml version="1.0" encoding="UTF-8" standalone="no"?>
<!DOCTYPE svg PUBLIC "-//W3C//DTD SVG 1.1//EN"
 "http://www.w3.org/Graphics/SVG/1.1/DTD/svg11.dtd">
<!-- Generated by graphviz version 2.44.0 (0)
 -->
<!-- Title: collectPlainScalarLoop.eq_def Pages: 1 -->
<svg width="676pt" height="1228pt"
 viewBox="0.00 0.00 675.72 1228.00" xmlns="http://www.w3.org/2000/svg" xmlns:xlink="http://www.w3.org/1999/xlink">
<g id="graph0" class="graph" transform="scale(1 1) rotate(0) translate(4 1224)">
<title>collectPlainScalarLoop.eq_def</title>
<polygon fill="white" stroke="transparent" points="-4,4 -4,-1224 671.72,-1224 671.72,4 -4,4"/>
<text text-anchor="middle" x="333.86" y="-1205.6" font-family="Helvetica Bold" font-size="13.00">collectPlainScalarLoop.eq_def</text>
<text text-anchor="middle" x="333.86" y="-1191.6" font-family="Helvetica Bold" font-size="13.00">(heuristic: used by 12 proofs)</text>
<text text-anchor="middle" x="333.86" y="-1177.6" font-family="Helvetica Bold" font-size="13.00">(L4YAML.Proofs.ScalarCoupling)</text>
<g id="clust1" class="cluster">
<title>cluster_functions</title>
<polygon fill="none" stroke="#4a90d9" stroke-dasharray="5,2" points="446.72,-8 446.72,-1162 659.72,-1162 659.72,-8 446.72,-8"/>
<text text-anchor="middle" x="553.22" y="-1147.6" font-family="Helvetica Bold" font-size="13.00" fill="#4a90d9">Functions</text>
</g>
<g id="clust2" class="cluster">
<title>cluster_key</title>
<polygon fill="none" stroke="#d4a017" stroke-dasharray="5,2" points="139.19,-544 139.19,-626 401.72,-626 401.72,-544 139.19,-544"/>
<text text-anchor="middle" x="270.45" y="-611.6" font-family="Helvetica Bold" font-size="13.00" fill="#d4a017">Key Theorem</text>
</g>
<g id="clust4" class="cluster">
<title>cluster_stdlib</title>
<polygon fill="none" stroke="#e67e22" stroke-dasharray="5,2" points="8,-548 8,-622 118.19,-622 118.19,-548 8,-548"/>
<text text-anchor="middle" x="63.09" y="-607.6" font-family="Helvetica Bold" font-size="13.00" fill="#e67e22">Stdlib Lemmas</text>
</g>
<!-- L4YAML.Scanner.collectPlainScalar_handleBlockLineBreak -->
<g id="node1" class="node">
<title>L4YAML.Scanner.collectPlainScalar_handleBlockLineBreak</title>
<g id="a_node1"><a xlink:href="../../../api/L4YAML/Scanner.html#L4YAML.Scanner.collectPlainScalar_handleBlockLineBreak" xlink:title="collectPlainScalar_handleBlockLineBreak\n(def)" target="_blank">
<polygon fill="#dce9f7" stroke="#4a90d9" points="651.72,-1132 454.72,-1132 454.72,-1096 651.72,-1096 651.72,-1132"/>
<text text-anchor="middle" x="553.22" y="-1117" font-family="Helvetica" font-size="10.00">collectPlainScalar_handleBlockLineBreak</text>
<text text-anchor="middle" x="553.22" y="-1106" font-family="Helvetica" font-size="10.00">(def)</text>
</a>
</g>
</g>
<!-- L4YAML.Scanner.ScannerState.advance -->
<g id="node2" class="node">
<title>L4YAML.Scanner.ScannerState.advance</title>
<g id="a_node2"><a xlink:href="../../../api/L4YAML/Scanner.html#L4YAML.Scanner.ScannerState.advance" xlink:title="ScannerState.advance\n(def)" target="_blank">
<polygon fill="#dce9f7" stroke="#4a90d9" points="610.72,-1078 495.72,-1078 495.72,-1042 610.72,-1042 610.72,-1078"/>
<text text-anchor="middle" x="553.22" y="-1063" font-family="Helvetica" font-size="10.00">ScannerState.advance</text>
<text text-anchor="middle" x="553.22" y="-1052" font-family="Helvetica" font-size="10.00">(def)</text>
</a>
</g>
</g>
<!-- L4YAML.Scanner.ScannerState.peek? -->
<g id="node3" class="node">
<title>L4YAML.Scanner.ScannerState.peek?</title>
<g id="a_node3"><a xlink:href="../../../api/L4YAML/Scanner.html#L4YAML.Scanner.ScannerState.peek?" xlink:title="ScannerState.peek?\n(def)" target="_blank">
<polygon fill="#dce9f7" stroke="#4a90d9" points="605.22,-1024 501.22,-1024 501.22,-988 605.22,-988 605.22,-1024"/>
<text text-anchor="middle" x="553.22" y="-1009" font-family="Helvetica" font-size="10.00">ScannerState.peek?</text>
<text text-anchor="middle" x="553.22" y="-998" font-family="Helvetica" font-size="10.00">(def)</text>
</a>
</g>
</g>
<!-- L4YAML.Scanner.PlainScalarResult.mk -->
<g id="node4" class="node">
<title>L4YAML.Scanner.PlainScalarResult.mk</title>
<g id="a_node4"><a xlink:href="../../../api/L4YAML/Scanner.html#L4YAML.Scanner.PlainScalarResult.mk" xlink:title="PlainScalarResult.mk\n(ctor)" target="_blank">
<polygon fill="#dce9f7" stroke="#4a90d9" points="608.22,-970 498.22,-970 498.22,-934 608.22,-934 608.22,-970"/>
<text text-anchor="middle" x="553.22" y="-955" font-family="Helvetica" font-size="10.00">PlainScalarResult.mk</text>
<text text-anchor="middle" x="553.22" y="-944" font-family="Helvetica" font-size="10.00">(ctor)</text>
</a>
</g>
</g>
<!-- L4YAML.Scanner.foldQuotedNewlines -->
<g id="node5" class="node">
<title>L4YAML.Scanner.foldQuotedNewlines</title>
<g id="a_node5"><a xlink:href="../../../api/L4YAML/Scanner.html#L4YAML.Scanner.foldQuotedNewlines" xlink:title="foldQuotedNewlines\n(def)" target="_blank">
<polygon fill="#dce9f7" stroke="#4a90d9" points="605.22,-916 501.22,-916 501.22,-880 605.22,-880 605.22,-916"/>
<text text-anchor="middle" x="553.22" y="-901" font-family="Helvetica" font-size="10.00">foldQuotedNewlines</text>
<text text-anchor="middle" x="553.22" y="-890" font-family="Helvetica" font-size="10.00">(def)</text>
</a>
</g>
</g>
<!-- L4YAML.Scanner.ScannerState -->
<g id="node6" class="node">
<title>L4YAML.Scanner.ScannerState</title>
<g id="a_node6"><a xlink:href="../../../api/L4YAML/Scanner.html#L4YAML.Scanner.ScannerState" xlink:title="ScannerState\n(inductive)" target="_blank">
<polygon fill="#dce9f7" stroke="#4a90d9" points="591.22,-862 515.22,-862 515.22,-826 591.22,-826 591.22,-862"/>
<text text-anchor="middle" x="553.22" y="-847" font-family="Helvetica" font-size="10.00">ScannerState</text>
<text text-anchor="middle" x="553.22" y="-836" font-family="Helvetica" font-size="10.00">(inductive)</text>
</a>
</g>
</g>
<!-- L4YAML.Scanner.skipToContentComment.match_3 -->
<g id="node7" class="node">
<title>L4YAML.Scanner.skipToContentComment.match_3</title>
<g id="a_node7"><a xlink:href="../../../api/L4YAML/Scanner.html#L4YAML.Scanner.skipToContentComment.match_3" xlink:title="skipToContentComment.match_3\n(def)" target="_blank">
<polygon fill="#dce9f7" stroke="#4a90d9" points="634.22,-808 472.22,-808 472.22,-772 634.22,-772 634.22,-808"/>
<text text-anchor="middle" x="553.22" y="-793" font-family="Helvetica" font-size="10.00">skipToContentComment.match_3</text>
<text text-anchor="middle" x="553.22" y="-782" font-family="Helvetica" font-size="10.00">(def)</text>
</a>
</g>
</g>
<!-- L4YAML.Scanner.PlainScalarResult.content -->
<g id="node8" class="node">
<title>L4YAML.Scanner.PlainScalarResult.content</title>
<g id="a_node8"><a xlink:href="../../../api/L4YAML/Scanner.html#L4YAML.Scanner.PlainScalarResult.content" xlink:title="PlainScalarResult.content\n(def)" target="_blank">
<polygon fill="#dce9f7" stroke="#4a90d9" points="617.22,-754 489.22,-754 489.22,-718 617.22,-718 617.22,-754"/>
<text text-anchor="middle" x="553.22" y="-739" font-family="Helvetica" font-size="10.00">PlainScalarResult.content</text>
<text text-anchor="middle" x="553.22" y="-728" font-family="Helvetica" font-size="10.00">(def)</text>
</a>
</g>
</g>
<!-- L4YAML.Scanner.collectPlainScalarLoop.match_5 -->
<g id="node9" class="node">
<title>L4YAML.Scanner.collectPlainScalarLoop.match_5</title>
<g id="a_node9"><a xlink:href="../../../api/L4YAML/Scanner.html#L4YAML.Scanner.collectPlainScalarLoop.match_5" xlink:title="collectPlainScalarLoop.match_5\n(def)" target="_blank">
<polygon fill="#dce9f7" stroke="#4a90d9" points="631.22,-700 475.22,-700 475.22,-664 631.22,-664 631.22,-700"/>
<text text-anchor="middle" x="553.22" y="-685" font-family="Helvetica" font-size="10.00">collectPlainScalarLoop.match_5</text>
<text text-anchor="middle" x="553.22" y="-674" font-family="Helvetica" font-size="10.00">(def)</text>
</a>
</g>
</g>
<!-- L4YAML.Scanner.skipToContentComment.match_1 -->
<g id="node10" class="node">
<title>L4YAML.Scanner.skipToContentComment.match_1</title>
<g id="a_node10"><a xlink:href="../../../api/L4YAML/Scanner.html#L4YAML.Scanner.skipToContentComment.match_1" xlink:title="skipToContentComment.match_1\n(def)" target="_blank">
<polygon fill="#dce9f7" stroke="#4a90d9" points="634.22,-646 472.22,-646 472.22,-610 634.22,-610 634.22,-646"/>
<text text-anchor="middle" x="553.22" y="-631" font-family="Helvetica" font-size="10.00">skipToContentComment.match_1</text>
<text text-anchor="middle" x="553.22" y="-620" font-family="Helvetica" font-size="10.00">(def)</text>
</a>
</g>
</g>
<!-- L4YAML.CharPredicates.isWhiteSpaceBool -->
<g id="node11" class="node">
<title>L4YAML.CharPredicates.isWhiteSpaceBool</title>
<g id="a_node11"><a xlink:href="../../../api/L4YAML/CharPredicates.html#L4YAML.CharPredicates.isWhiteSpaceBool" xlink:title="CharPredicates.isWhiteSpaceBool\n(def)" target="_blank">
<polygon fill="#dce9f7" stroke="#4a90d9" points="636.72,-592 469.72,-592 469.72,-556 636.72,-556 636.72,-592"/>
<text text-anchor="middle" x="553.22" y="-577" font-family="Helvetica" font-size="10.00">CharPredicates.isWhiteSpaceBool</text>
<text text-anchor="middle" x="553.22" y="-566" font-family="Helvetica" font-size="10.00">(def)</text>
</a>
</g>
</g>
<!-- L4YAML.CharPredicates.isLineBreakBool -->
<g id="node12" class="node">
<title>L4YAML.CharPredicates.isLineBreakBool</title>
<g id="a_node12"><a xlink:href="../../../api/L4YAML/CharPredicates.html#L4YAML.CharPredicates.isLineBreakBool" xlink:title="CharPredicates.isLineBreakBool\n(def)" target="_blank">
<polygon fill="#dce9f7" stroke="#4a90d9" points="632.22,-538 474.22,-538 474.22,-502 632.22,-502 632.22,-538"/>
<text text-anchor="middle" x="553.22" y="-523" font-family="Helvetica" font-size="10.00">CharPredicates.isLineBreakBool</text>
<text text-anchor="middle" x="553.22" y="-512" font-family="Helvetica" font-size="10.00">(def)</text>
</a>
</g>
</g>
<!-- L4YAML.Scanner.ScannerState.peekAt?Loop.match_1 -->
<g id="node13" class="node">
<title>L4YAML.Scanner.ScannerState.peekAt?Loop.match_1</title>
<g id="a_node13"><a xlink:href="../../../api/L4YAML/Scanner.html#L4YAML.Scanner.ScannerState.peekAt?Loop.match_1" xlink:title="ScannerState.peekAt?Loop.match_1\n(def)" target="_blank">
<polygon fill="#dce9f7" stroke="#4a90d9" points="641.22,-484 465.22,-484 465.22,-448 641.22,-448 641.22,-484"/>
<text text-anchor="middle" x="553.22" y="-469" font-family="Helvetica" font-size="10.00">ScannerState.peekAt?Loop.match_1</text>
<text text-anchor="middle" x="553.22" y="-458" font-family="Helvetica" font-size="10.00">(def)</text>
</a>
</g>
</g>
<!-- L4YAML.Scanner.collectPlainScalar_terminates? -->
<g id="node14" class="node">
<title>L4YAML.Scanner.collectPlainScalar_terminates?</title>
<g id="a_node14"><a xlink:href="../../../api/L4YAML/Scanner.html#L4YAML.Scanner.collectPlainScalar_terminates?" xlink:title="collectPlainScalar_terminates?\n(def)" target="_blank">
<polygon fill="#dce9f7" stroke="#4a90d9" points="628.22,-430 478.22,-430 478.22,-394 628.22,-394 628.22,-430"/>
<text text-anchor="middle" x="553.22" y="-415" font-family="Helvetica" font-size="10.00">collectPlainScalar_terminates?</text>
<text text-anchor="middle" x="553.22" y="-404" font-family="Helvetica" font-size="10.00">(def)</text>
</a>
</g>
</g>
<!-- L4YAML.Scanner.collectPlainScalarLoop.match_3 -->
<g id="node15" class="node">
<title>L4YAML.Scanner.collectPlainScalarLoop.match_3</title>
<g id="a_node15"><a xlink:href="../../../api/L4YAML/Scanner.html#L4YAML.Scanner.collectPlainScalarLoop.match_3" xlink:title="collectPlainScalarLoop.match_3\n(def)" target="_blank">
<polygon fill="#dce9f7" stroke="#4a90d9" points="631.22,-376 475.22,-376 475.22,-340 631.22,-340 631.22,-376"/>
<text text-anchor="middle" x="553.22" y="-361" font-family="Helvetica" font-size="10.00">collectPlainScalarLoop.match_3</text>
<text text-anchor="middle" x="553.22" y="-350" font-family="Helvetica" font-size="10.00">(def)</text>
</a>
</g>
</g>
<!-- L4YAML.Scanner.collectPlainScalarLoop -->
<g id="node16" class="node">
<title>L4YAML.Scanner.collectPlainScalarLoop</title>
<g id="a_node16"><a xlink:href="../../../api/L4YAML/Scanner.html#L4YAML.Scanner.collectPlainScalarLoop" xlink:title="collectPlainScalarLoop\n(def)" target="_blank">
<polygon fill="#dce9f7" stroke="#4a90d9" points="611.22,-322 495.22,-322 495.22,-286 611.22,-286 611.22,-322"/>
<text text-anchor="middle" x="553.22" y="-307" font-family="Helvetica" font-size="10.00">collectPlainScalarLoop</text>
<text text-anchor="middle" x="553.22" y="-296" font-family="Helvetica" font-size="10.00">(def)</text>
</a>
</g>
</g>
<!-- L4YAML.ScanError -->
<g id="node17" class="node">
<title>L4YAML.ScanError</title>
<g id="a_node17"><a xlink:href="../../../api/L4YAML/Token.html#L4YAML.ScanError" xlink:title="ScanError\n(inductive)" target="_blank">
<polygon fill="#dce9f7" stroke="#4a90d9" points="584.22,-268 522.22,-268 522.22,-232 584.22,-232 584.22,-268"/>
<text text-anchor="middle" x="553.22" y="-253" font-family="Helvetica" font-size="10.00">ScanError</text>
<text text-anchor="middle" x="553.22" y="-242" font-family="Helvetica" font-size="10.00">(inductive)</text>
</a>
</g>
</g>
<!-- L4YAML.CharPredicates.isPlainSafeBool -->
<g id="node18" class="node">
<title>L4YAML.CharPredicates.isPlainSafeBool</title>
<g id="a_node18"><a xlink:href="../../../api/L4YAML/CharPredicates.html#L4YAML.CharPredicates.isPlainSafeBool" xlink:title="CharPredicates.isPlainSafeBool\n(def)" target="_blank">
<polygon fill="#dce9f7" stroke="#4a90d9" points="631.22,-214 475.22,-214 475.22,-178 631.22,-178 631.22,-214"/>
<text text-anchor="middle" x="553.22" y="-199" font-family="Helvetica" font-size="10.00">CharPredicates.isPlainSafeBool</text>
<text text-anchor="middle" x="553.22" y="-188" font-family="Helvetica" font-size="10.00">(def)</text>
</a>
</g>
</g>
<!-- L4YAML.Scanner.collectPlainScalarLoop.match_1 -->
<g id="node19" class="node">
<title>L4YAML.Scanner.collectPlainScalarLoop.match_1</title>
<g id="a_node19"><a xlink:href="../../../api/L4YAML/Scanner.html#L4YAML.Scanner.collectPlainScalarLoop.match_1" xlink:title="collectPlainScalarLoop.match_1\n(def)" target="_blank">
<polygon fill="#dce9f7" stroke="#4a90d9" points="631.22,-160 475.22,-160 475.22,-124 631.22,-124 631.22,-160"/>
<text text-anchor="middle" x="553.22" y="-145" font-family="Helvetica" font-size="10.00">collectPlainScalarLoop.match_1</text>
<text text-anchor="middle" x="553.22" y="-134" font-family="Helvetica" font-size="10.00">(def)</text>
</a>
</g>
</g>
<!-- L4YAML.Scanner.PlainScalarResult -->
<g id="node20" class="node">
<title>L4YAML.Scanner.PlainScalarResult</title>
<g id="a_node20"><a xlink:href="../../../api/L4YAML/Scanner.html#L4YAML.Scanner.PlainScalarResult" xlink:title="PlainScalarResult\n(inductive)" target="_blank">
<polygon fill="#dce9f7" stroke="#4a90d9" points="600.22,-106 506.22,-106 506.22,-70 600.22,-70 600.22,-106"/>
<text text-anchor="middle" x="553.22" y="-91" font-family="Helvetica" font-size="10.00">PlainScalarResult</text>
<text text-anchor="middle" x="553.22" y="-80" font-family="Helvetica" font-size="10.00">(inductive)</text>
</a>
</g>
</g>
<!-- L4YAML.Scanner.atDocumentStart.match_1 -->
<g id="node21" class="node">
<title>L4YAML.Scanner.atDocumentStart.match_1</title>
<g id="a_node21"><a xlink:href="../../../api/L4YAML/Scanner.html#L4YAML.Scanner.atDocumentStart.match_1" xlink:title="atDocumentStart.match_1\n(def)" target="_blank">
<polygon fill="#dce9f7" stroke="#4a90d9" points="618.72,-52 487.72,-52 487.72,-16 618.72,-16 618.72,-52"/>
<text text-anchor="middle" x="553.22" y="-37" font-family="Helvetica" font-size="10.00">atDocumentStart.match_1</text>
<text text-anchor="middle" x="553.22" y="-26" font-family="Helvetica" font-size="10.00">(def)</text>
</a>
</g>
</g>
<!-- L4YAML.Scanner.collectPlainScalarLoop.eq_def -->
<g id="node22" class="node">
<title>L4YAML.Scanner.collectPlainScalarLoop.eq_def</title>
<g id="a_node22"><a xlink:href="../../../api/L4YAML/Proofs/ScalarCoupling.html#L4YAML.Scanner.collectPlainScalarLoop.eq_def" xlink:title="collectPlainScalarLoop.eq_def" target="_blank">
<polygon fill="#fff3cd" stroke="#d4a017" points="389.5,-566.54 389.5,-581.46 319.77,-592 221.14,-592 151.41,-581.46 151.41,-566.54 221.14,-556 319.77,-556 389.5,-566.54"/>
<polygon fill="none" stroke="#d4a017" points="393.49,-563.1 393.49,-584.9 320.06,-596 220.85,-596 147.42,-584.9 147.42,-563.1 220.85,-552 320.06,-552 393.49,-563.1"/>
<text text-anchor="middle" x="270.45" y="-570.9" font-family="Helvetica" font-size="12.00">collectPlainScalarLoop.eq_def</text>
</a>
</g>
</g>
<!-- L4YAML.Scanner.collectPlainScalarLoop.eq_def&#45;&gt;L4YAML.Scanner.collectPlainScalar_handleBlockLineBreak -->
<g id="edge17" class="edge">
<title>L4YAML.Scanner.collectPlainScalarLoop.eq_def&#45;&gt;L4YAML.Scanner.collectPlainScalar_handleBlockLineBreak</title>
<path fill="none" stroke="#4a90d9" stroke-width="2" d="M275.56,-596.14C288.77,-664.43 333.88,-876.86 411.72,-1037 423.58,-1061.4 424.42,-1071.57 446.72,-1087 449.63,-1089.01 452.68,-1090.87 455.83,-1092.6"/>
<polygon fill="#4a90d9" stroke="#4a90d9" stroke-width="2" points="455.07,-1094.96 462.42,-1095.94 457.29,-1090.59 455.07,-1094.96"/>
<text text-anchor="middle" x="424.22" y="-1081.6" font-family="Times-Roman" font-size="8.00" fill="#4a90d9">about</text>
</g>
<!-- L4YAML.Scanner.collectPlainScalarLoop.eq_def&#45;&gt;L4YAML.Scanner.ScannerState.advance -->
<g id="edge2" class="edge">
<title>L4YAML.Scanner.collectPlainScalarLoop.eq_def&#45;&gt;L4YAML.Scanner.ScannerState.advance</title>
<path fill="none" stroke="#4a90d9" stroke-width="2" d="M277.26,-596.09C293.91,-657.98 344.99,-837.7 411.72,-977 424.4,-1003.47 423.03,-1015.68 446.72,-1033 458.92,-1041.92 473.79,-1047.9 488.46,-1051.91"/>
<polygon fill="#4a90d9" stroke="#4a90d9" stroke-width="2" points="488.25,-1054.38 495.64,-1053.72 489.45,-1049.63 488.25,-1054.38"/>
<text text-anchor="middle" x="424.22" y="-1026.6" font-family="Times-Roman" font-size="8.00" fill="#4a90d9">about</text>
</g>
<!-- L4YAML.Scanner.collectPlainScalarLoop.eq_def&#45;&gt;L4YAML.Scanner.ScannerState.peek? -->
<g id="edge20" class="edge">
<title>L4YAML.Scanner.collectPlainScalarLoop.eq_def&#45;&gt;L4YAML.Scanner.ScannerState.peek?</title>
<path fill="none" stroke="#4a90d9" stroke-width="2" d="M273.41,-596.38C280.87,-666.64 314.21,-883.77 446.72,-979 460.56,-988.94 477.73,-995.23 494.17,-999.21"/>
<polygon fill="#4a90d9" stroke="#4a90d9" stroke-width="2" points="493.8,-1001.63 501.16,-1000.77 494.87,-996.85 493.8,-1001.63"/>
<text text-anchor="middle" x="424.22" y="-966.6" font-family="Times-Roman" font-size="8.00" fill="#4a90d9">about</text>
</g>
<!-- L4YAML.Scanner.collectPlainScalarLoop.eq_def&#45;&gt;L4YAML.Scanner.PlainScalarResult.mk -->
<g id="edge1" class="edge">
<title>L4YAML.Scanner.collectPlainScalarLoop.eq_def&#45;&gt;L4YAML.Scanner.PlainScalarResult.mk</title>
<path fill="none" stroke="#4a90d9" stroke-width="2" d="M275.2,-596.34C287.12,-659.86 330.49,-842.22 446.72,-925 459.68,-934.23 475.51,-940.3 490.93,-944.31"/>
<polygon fill="#4a90d9" stroke="#4a90d9" stroke-width="2" points="490.59,-946.75 497.97,-946 491.74,-941.98 490.59,-946.75"/>
<text text-anchor="middle" x="424.22" y="-914.6" font-family="Times-Roman" font-size="8.00" fill="#4a90d9">about</text>
</g>
<!-- L4YAML.Scanner.collectPlainScalarLoop.eq_def&#45;&gt;L4YAML.Scanner.foldQuotedNewlines -->
<g id="edge21" class="edge">
<title>L4YAML.Scanner.collectPlainScalarLoop.eq_def&#45;&gt;L4YAML.Scanner.foldQuotedNewlines</title>
<path fill="none" stroke="#4a90d9" stroke-width="2" d="M277.57,-596.29C294.25,-652.54 346.12,-800.69 446.72,-871 460.62,-880.71 477.73,-886.93 494.1,-890.92"/>
<polygon fill="#4a90d9" stroke="#4a90d9" stroke-width="2" points="493.68,-893.34 501.05,-892.49 494.77,-888.56 493.68,-893.34"/>
<text text-anchor="middle" x="424.22" y="-861.6" font-family="Times-Roman" font-size="8.00" fill="#4a90d9">about</text>
</g>
<!-- L4YAML.Scanner.collectPlainScalarLoop.eq_def&#45;&gt;L4YAML.Scanner.ScannerState -->
<g id="edge13" class="edge">
<title>L4YAML.Scanner.collectPlainScalarLoop.eq_def&#45;&gt;L4YAML.Scanner.ScannerState</title>
<path fill="none" stroke="#4a90d9" stroke-width="2" d="M280.93,-596.11C302.73,-644.2 361.19,-758.7 446.72,-817 464.75,-829.29 487.96,-835.98 508.02,-839.63"/>
<polygon fill="#4a90d9" stroke="#4a90d9" stroke-width="2" points="507.66,-842.06 514.97,-840.8 508.47,-837.22 507.66,-842.06"/>
<text text-anchor="middle" x="424.22" y="-809.6" font-family="Times-Roman" font-size="8.00" fill="#4a90d9">about</text>
</g>
<!-- L4YAML.Scanner.collectPlainScalarLoop.eq_def&#45;&gt;L4YAML.Scanner.skipToContentComment.match_3 -->
<g id="edge4" class="edge">
<title>L4YAML.Scanner.collectPlainScalarLoop.eq_def&#45;&gt;L4YAML.Scanner.skipToContentComment.match_3</title>
<path fill="none" stroke="#4a90d9" stroke-width="2" d="M285.62,-596.22C312.18,-636.03 373.47,-719.4 446.72,-763 452.63,-766.52 458.99,-769.58 465.56,-772.25"/>
<polygon fill="#4a90d9" stroke="#4a90d9" stroke-width="2" points="464.77,-774.57 472.18,-774.78 466.52,-769.99 464.77,-774.57"/>
<text text-anchor="middle" x="424.22" y="-757.6" font-family="Times-Roman" font-size="8.00" fill="#4a90d9">about</text>
</g>
<!-- L4YAML.Scanner.collectPlainScalarLoop.eq_def&#45;&gt;L4YAML.Scanner.PlainScalarResult.content -->
<g id="edge15" class="edge">
<title>L4YAML.Scanner.collectPlainScalarLoop.eq_def&#45;&gt;L4YAML.Scanner.PlainScalarResult.content</title>
<path fill="none" stroke="#4a90d9" stroke-width="2" d="M293.77,-596.13C325.22,-626.08 385.61,-679.22 446.72,-709 457.84,-714.42 470.16,-718.83 482.34,-722.39"/>
<polygon fill="#4a90d9" stroke="#4a90d9" stroke-width="2" points="481.69,-724.75 489.09,-724.29 483.01,-720.04 481.69,-724.75"/>
<text text-anchor="middle" x="424.22" y="-705.6" font-family="Times-Roman" font-size="8.00" fill="#4a90d9">about</text>
</g>
<!-- L4YAML.Scanner.collectPlainScalarLoop.eq_def&#45;&gt;L4YAML.Scanner.collectPlainScalarLoop.match_5 -->
<g id="edge3" class="edge">
<title>L4YAML.Scanner.collectPlainScalarLoop.eq_def&#45;&gt;L4YAML.Scanner.collectPlainScalarLoop.match_5</title>
<path fill="none" stroke="#4a90d9" stroke-width="2" d="M313.41,-596.03C348.36,-613.73 399.82,-638.32 446.72,-655 453.68,-657.47 460.97,-659.82 468.32,-662.02"/>
<polygon fill="#4a90d9" stroke="#4a90d9" stroke-width="2" points="467.69,-664.39 475.09,-664 469.06,-659.69 467.69,-664.39"/>
<text text-anchor="middle" x="424.22" y="-651.6" font-family="Times-Roman" font-size="8.00" fill="#4a90d9">about</text>
</g>
<!-- L4YAML.Scanner.collectPlainScalarLoop.eq_def&#45;&gt;L4YAML.Scanner.skipToContentComment.match_1 -->
<g id="edge7" class="edge">
<title>L4YAML.Scanner.collectPlainScalarLoop.eq_def&#45;&gt;L4YAML.Scanner.skipToContentComment.match_1</title>
<path fill="none" stroke="#4a90d9" stroke-width="2" d="M357.22,-590.5C391.25,-597.04 430.34,-604.56 464.56,-611.14"/>
<polygon fill="#4a90d9" stroke="#4a90d9" stroke-width="2" points="464.44,-613.61 471.78,-612.53 465.37,-608.8 464.44,-613.61"/>
<text text-anchor="middle" x="424.22" y="-606.6" font-family="Times-Roman" font-size="8.00" fill="#4a90d9">about</text>
</g>
<!-- L4YAML.Scanner.collectPlainScalarLoop.eq_def&#45;&gt;L4YAML.CharPredicates.isWhiteSpaceBool -->
<g id="edge18" class="edge">
<title>L4YAML.Scanner.collectPlainScalarLoop.eq_def&#45;&gt;L4YAML.CharPredicates.isWhiteSpaceBool</title>
<path fill="none" stroke="#4a90d9" stroke-width="2" d="M393.79,-574C416.86,-574 440.59,-574 462.43,-574"/>
<polygon fill="#4a90d9" stroke="#4a90d9" stroke-width="2" points="462.45,-576.45 469.45,-574 462.45,-571.55 462.45,-576.45"/>
<text text-anchor="middle" x="424.22" y="-576.6" font-family="Times-Roman" font-size="8.00" fill="#4a90d9">about</text>
</g>
<!-- L4YAML.Scanner.collectPlainScalarLoop.eq_def&#45;&gt;L4YAML.CharPredicates.isLineBreakBool -->
<g id="edge10" class="edge">
<title>L4YAML.Scanner.collectPlainScalarLoop.eq_def&#45;&gt;L4YAML.CharPredicates.isLineBreakBool</title>
<path fill="none" stroke="#4a90d9" stroke-width="2" d="M357.22,-557.5C392.14,-550.79 432.41,-543.04 467.26,-536.34"/>
<polygon fill="#4a90d9" stroke="#4a90d9" stroke-width="2" points="467.74,-538.74 474.15,-535.02 466.81,-533.93 467.74,-538.74"/>
<text text-anchor="middle" x="424.22" y="-549.6" font-family="Times-Roman" font-size="8.00" fill="#4a90d9">about</text>
</g>
<!-- L4YAML.Scanner.collectPlainScalarLoop.eq_def&#45;&gt;L4YAML.Scanner.ScannerState.peekAt?Loop.match_1 -->
<g id="edge6" class="edge">
<title>L4YAML.Scanner.collectPlainScalarLoop.eq_def&#45;&gt;L4YAML.Scanner.ScannerState.peekAt?Loop.match_1</title>
<path fill="none" stroke="#4a90d9" stroke-width="2" d="M313.41,-551.97C348.36,-534.27 399.82,-509.68 446.72,-493 453.47,-490.6 460.53,-488.32 467.66,-486.18"/>
<polygon fill="#4a90d9" stroke="#4a90d9" stroke-width="2" points="468.78,-488.4 474.81,-484.08 467.4,-483.7 468.78,-488.4"/>
<text text-anchor="middle" x="424.22" y="-508.6" font-family="Times-Roman" font-size="8.00" fill="#4a90d9">about</text>
</g>
<!-- L4YAML.Scanner.collectPlainScalarLoop.eq_def&#45;&gt;L4YAML.Scanner.collectPlainScalar_terminates? -->
<g id="edge5" class="edge">
<title>L4YAML.Scanner.collectPlainScalarLoop.eq_def&#45;&gt;L4YAML.Scanner.collectPlainScalar_terminates?</title>
<path fill="none" stroke="#4a90d9" stroke-width="2" d="M293.77,-551.87C325.22,-521.92 385.61,-468.78 446.72,-439 454.5,-435.21 462.87,-431.91 471.37,-429.05"/>
<polygon fill="#4a90d9" stroke="#4a90d9" stroke-width="2" points="472.29,-431.33 478.21,-426.85 470.79,-426.66 472.29,-431.33"/>
<text text-anchor="middle" x="424.22" y="-458.6" font-family="Times-Roman" font-size="8.00" fill="#4a90d9">about</text>
</g>
<!-- L4YAML.Scanner.collectPlainScalarLoop.eq_def&#45;&gt;L4YAML.Scanner.collectPlainScalarLoop.match_3 -->
<g id="edge16" class="edge">
<title>L4YAML.Scanner.collectPlainScalarLoop.eq_def&#45;&gt;L4YAML.Scanner.collectPlainScalarLoop.match_3</title>
<path fill="none" stroke="#4a90d9" stroke-width="2" d="M285.62,-551.78C312.18,-511.97 373.47,-428.6 446.72,-385 453.44,-381 460.74,-377.59 468.26,-374.68"/>
<polygon fill="#4a90d9" stroke="#4a90d9" stroke-width="2" points="469.47,-376.85 475.21,-372.15 467.8,-372.24 469.47,-376.85"/>
<text text-anchor="middle" x="424.22" y="-410.6" font-family="Times-Roman" font-size="8.00" fill="#4a90d9">about</text>
</g>
<!-- L4YAML.Scanner.collectPlainScalarLoop.eq_def&#45;&gt;L4YAML.Scanner.collectPlainScalarLoop -->
<g id="edge9" class="edge">
<title>L4YAML.Scanner.collectPlainScalarLoop.eq_def&#45;&gt;L4YAML.Scanner.collectPlainScalarLoop</title>
<path fill="none" stroke="#4a90d9" stroke-width="2" d="M280.91,-551.86C302.66,-503.7 361.04,-389.08 446.72,-331 458.96,-322.7 473.57,-316.96 487.95,-312.98"/>
<polygon fill="#4a90d9" stroke="#4a90d9" stroke-width="2" points="488.82,-315.28 494.99,-311.16 487.6,-310.54 488.82,-315.28"/>
<text text-anchor="middle" x="424.22" y="-357.6" font-family="Times-Roman" font-size="8.00" fill="#4a90d9">about</text>
</g>
<!-- L4YAML.Scanner.collectPlainScalarLoop.eq_def&#45;&gt;L4YAML.ScanError -->
<g id="edge14" class="edge">
<title>L4YAML.Scanner.collectPlainScalarLoop.eq_def&#45;&gt;L4YAML.ScanError</title>
<path fill="none" stroke="#4a90d9" stroke-width="2" d="M277.53,-551.65C294.12,-495.28 345.79,-346.84 446.72,-277 466.84,-263.08 493.57,-256.34 515.09,-253.07"/>
<polygon fill="#4a90d9" stroke="#4a90d9" stroke-width="2" points="515.57,-255.47 522.17,-252.09 514.9,-250.62 515.57,-255.47"/>
<text text-anchor="middle" x="424.22" y="-302.6" font-family="Times-Roman" font-size="8.00" fill="#4a90d9">about</text>
</g>
<!-- L4YAML.Scanner.collectPlainScalarLoop.eq_def&#45;&gt;L4YAML.CharPredicates.isPlainSafeBool -->
<g id="edge11" class="edge">
<title>L4YAML.Scanner.collectPlainScalarLoop.eq_def&#45;&gt;L4YAML.CharPredicates.isPlainSafeBool</title>
<path fill="none" stroke="#4a90d9" stroke-width="2" d="M275.16,-551.61C286.99,-487.95 330.13,-305.27 446.72,-223 453.23,-218.41 460.45,-214.6 467.97,-211.44"/>
<polygon fill="#4a90d9" stroke="#4a90d9" stroke-width="2" points="469.32,-213.54 474.95,-208.71 467.54,-208.97 469.32,-213.54"/>
<text text-anchor="middle" x="424.22" y="-251.6" font-family="Times-Roman" font-size="8.00" fill="#4a90d9">about</text>
</g>
<!-- L4YAML.Scanner.collectPlainScalarLoop.eq_def&#45;&gt;L4YAML.Scanner.collectPlainScalarLoop.match_1 -->
<g id="edge8" class="edge">
<title>L4YAML.Scanner.collectPlainScalarLoop.eq_def&#45;&gt;L4YAML.Scanner.collectPlainScalarLoop.match_1</title>
<path fill="none" stroke="#4a90d9" stroke-width="2" d="M273.38,-551.57C280.74,-481.17 313.8,-263.67 446.72,-169 453.4,-164.24 460.84,-160.33 468.6,-157.1"/>
<polygon fill="#4a90d9" stroke="#4a90d9" stroke-width="2" points="469.54,-159.36 475.18,-154.54 467.77,-154.79 469.54,-159.36"/>
<text text-anchor="middle" x="424.22" y="-193.6" font-family="Times-Roman" font-size="8.00" fill="#4a90d9">about</text>
</g>
<!-- L4YAML.Scanner.collectPlainScalarLoop.eq_def&#45;&gt;L4YAML.Scanner.PlainScalarResult -->
<g id="edge19" class="edge">
<title>L4YAML.Scanner.collectPlainScalarLoop.eq_def&#45;&gt;L4YAML.Scanner.PlainScalarResult</title>
<path fill="none" stroke="#4a90d9" stroke-width="2" d="M277.19,-551.83C293.67,-489.7 344.33,-309.36 411.72,-170 424.34,-143.92 423.27,-132.01 446.72,-115 461.93,-103.98 481.21,-97.44 499.12,-93.58"/>
<polygon fill="#4a90d9" stroke="#4a90d9" stroke-width="2" points="499.79,-95.94 506.17,-92.17 498.83,-91.14 499.79,-95.94"/>
<text text-anchor="middle" x="424.22" y="-172.6" font-family="Times-Roman" font-size="8.00" fill="#4a90d9">about</text>
</g>
<!-- L4YAML.Scanner.collectPlainScalarLoop.eq_def&#45;&gt;L4YAML.Scanner.atDocumentStart.match_1 -->
<g id="edge12" class="edge">
<title>L4YAML.Scanner.collectPlainScalarLoop.eq_def&#45;&gt;L4YAML.Scanner.atDocumentStart.match_1</title>
<path fill="none" stroke="#4a90d9" stroke-width="2" d="M275.49,-551.78C288.47,-483.24 333.01,-270.11 411.72,-110 423.53,-85.98 424.64,-76.12 446.72,-61 456.83,-54.08 468.58,-48.93 480.49,-45.1"/>
<polygon fill="#4a90d9" stroke="#4a90d9" stroke-width="2" points="481.51,-47.36 487.51,-43 480.1,-42.66 481.51,-47.36"/>
<text text-anchor="middle" x="424.22" y="-112.6" font-family="Times-Roman" font-size="8.00" fill="#4a90d9">about</text>
</g>
<!-- Nat.brecOn.eq -->
<g id="node23" class="node">
<title>Nat.brecOn.eq</title>
<g id="a_node23"><a xlink:href="../../../api/Init/Prelude.html#Nat.brecOn.eq" xlink:title="Nat.brecOn.eq" target="_blank">
<ellipse fill="#fdebd0" stroke="#e67e22" cx="63.09" cy="-574" rx="47.19" ry="18"/>
<text text-anchor="middle" x="63.09" y="-571.5" font-family="Helvetica" font-size="10.00">Nat.brecOn.eq</text>
</a>
</g>
</g>
<!-- Nat.brecOn.eq&#45;&gt;L4YAML.Scanner.collectPlainScalarLoop.eq_def -->
<g id="edge22" class="edge">
<title>Nat.brecOn.eq&#45;&gt;L4YAML.Scanner.collectPlainScalarLoop.eq_def</title>
<path fill="none" stroke="#e67e22" stroke-width="2" d="M110.44,-574C119.57,-574 129.56,-574 139.95,-574"/>
<polygon fill="#e67e22" stroke="#e67e22" stroke-width="2" points="140.19,-576.45 147.19,-574 140.19,-571.55 140.19,-576.45"/>
</g>
</g>
</svg>
