<?xml version="1.0" encoding="UTF-8" standalone="no"?>
<!DOCTYPE svg PUBLIC "-//W3C//DTD SVG 1.1//EN"
 "http://www.w3.org/Graphics/SVG/1.1/DTD/svg11.dtd">
<!-- Generated by graphviz version 2.44.0 (0)
 -->
<!-- Title: collectTagHandleDirectiveLoop.eq_def Pages: 1 -->
<svg width="713pt" height="472pt"
 viewBox="0.00 0.00 713.36 472.00" xmlns="http://www.w3.org/2000/svg" xmlns:xlink="http://www.w3.org/1999/xlink">
<g id="graph0" class="graph" transform="scale(1 1) rotate(0) translate(4 468)">
<title>collectTagHandleDirectiveLoop.eq_def</title>
<polygon fill="white" stroke="transparent" points="-4,4 -4,-468 709.36,-468 709.36,4 -4,4"/>
<text text-anchor="middle" x="352.68" y="-449.6" font-family="Helvetica Bold" font-size="13.00">collectTagHandleDirectiveLoop.eq_def</text>
<text text-anchor="middle" x="352.68" y="-435.6" font-family="Helvetica Bold" font-size="13.00">(heuristic: used by 8 proofs)</text>
<text text-anchor="middle" x="352.68" y="-421.6" font-family="Helvetica Bold" font-size="13.00">(L4YAML.Proofs.StructureCoupling)</text>
<g id="clust1" class="cluster">
<title>cluster_functions</title>
<polygon fill="none" stroke="#4a90d9" stroke-dasharray="5,2" points="505.36,-8 505.36,-406 697.36,-406 697.36,-8 505.36,-8"/>
<text text-anchor="middle" x="601.36" y="-391.6" font-family="Helvetica Bold" font-size="13.00" fill="#4a90d9">Functions</text>
</g>
<g id="clust2" class="cluster">
<title>cluster_key</title>
<polygon fill="none" stroke="#d4a017" stroke-dasharray="5,2" points="139.19,-166 139.19,-248 460.36,-248 460.36,-166 139.19,-166"/>
<text text-anchor="middle" x="299.77" y="-233.6" font-family="Helvetica Bold" font-size="13.00" fill="#d4a017">Key Theorem</text>
</g>
<g id="clust4" class="cluster">
<title>cluster_stdlib</title>
<polygon fill="none" stroke="#e67e22" stroke-dasharray="5,2" points="8,-170 8,-244 118.19,-244 118.19,-170 8,-170"/>
<text text-anchor="middle" x="63.09" y="-229.6" font-family="Helvetica Bold" font-size="13.00" fill="#e67e22">Stdlib Lemmas</text>
</g>
<!-- L4YAML.Scanner.ScannerState.advance -->
<g id="node1" class="node">
<title>L4YAML.Scanner.ScannerState.advance</title>
<g id="a_node1"><a xlink:href="../../../api/L4YAML/Scanner.html#L4YAML.Scanner.ScannerState.advance" xlink:title="ScannerState.advance\n(def)" target="_blank">
<polygon fill="#dce9f7" stroke="#4a90d9" points="658.86,-376 543.86,-376 543.86,-340 658.86,-340 658.86,-376"/>
<text text-anchor="middle" x="601.36" y="-361" font-family="Helvetica" font-size="10.00">ScannerState.advance</text>
<text text-anchor="middle" x="601.36" y="-350" font-family="Helvetica" font-size="10.00">(def)</text>
</a>
</g>
</g>
<!-- L4YAML.Scanner.ScannerState.peek? -->
<g id="node2" class="node">
<title>L4YAML.Scanner.ScannerState.peek?</title>
<g id="a_node2"><a xlink:href="../../../api/L4YAML/Scanner.html#L4YAML.Scanner.ScannerState.peek?" xlink:title="ScannerState.peek?\n(def)" target="_blank">
<polygon fill="#dce9f7" stroke="#4a90d9" points="653.36,-322 549.36,-322 549.36,-286 653.36,-286 653.36,-322"/>
<text text-anchor="middle" x="601.36" y="-307" font-family="Helvetica" font-size="10.00">ScannerState.peek?</text>
<text text-anchor="middle" x="601.36" y="-296" font-family="Helvetica" font-size="10.00">(def)</text>
</a>
</g>
</g>
<!-- L4YAML.Scanner.skipWhitespaceLoop.match_1 -->
<g id="node3" class="node">
<title>L4YAML.Scanner.skipWhitespaceLoop.match_1</title>
<g id="a_node3"><a xlink:href="../../../api/L4YAML/Scanner.html#L4YAML.Scanner.skipWhitespaceLoop.match_1" xlink:title="skipWhitespaceLoop.match_1\n(def)" target="_blank">
<polygon fill="#dce9f7" stroke="#4a90d9" points="675.36,-268 527.36,-268 527.36,-232 675.36,-232 675.36,-268"/>
<text text-anchor="middle" x="601.36" y="-253" font-family="Helvetica" font-size="10.00">skipWhitespaceLoop.match_1</text>
<text text-anchor="middle" x="601.36" y="-242" font-family="Helvetica" font-size="10.00">(def)</text>
</a>
</g>
</g>
<!-- L4YAML.Scanner.ScannerState -->
<g id="node4" class="node">
<title>L4YAML.Scanner.ScannerState</title>
<g id="a_node4"><a xlink:href="../../../api/L4YAML/Scanner.html#L4YAML.Scanner.ScannerState" xlink:title="ScannerState\n(inductive)" target="_blank">
<polygon fill="#dce9f7" stroke="#4a90d9" points="639.36,-214 563.36,-214 563.36,-178 639.36,-178 639.36,-214"/>
<text text-anchor="middle" x="601.36" y="-199" font-family="Helvetica" font-size="10.00">ScannerState</text>
<text text-anchor="middle" x="601.36" y="-188" font-family="Helvetica" font-size="10.00">(inductive)</text>
</a>
</g>
</g>
<!-- L4YAML.Scanner.ScannerState.peekAt?Loop.match_1 -->
<g id="node5" class="node">
<title>L4YAML.Scanner.ScannerState.peekAt?Loop.match_1</title>
<g id="a_node5"><a xlink:href="../../../api/L4YAML/Scanner.html#L4YAML.Scanner.ScannerState.peekAt?Loop.match_1" xlink:title="ScannerState.peekAt?Loop.match_1\n(def)" target="_blank">
<polygon fill="#dce9f7" stroke="#4a90d9" points="689.36,-160 513.36,-160 513.36,-124 689.36,-124 689.36,-160"/>
<text text-anchor="middle" x="601.36" y="-145" font-family="Helvetica" font-size="10.00">ScannerState.peekAt?Loop.match_1</text>
<text text-anchor="middle" x="601.36" y="-134" font-family="Helvetica" font-size="10.00">(def)</text>
</a>
</g>
</g>
<!-- L4YAML.Scanner.collectTagHandleDirectiveLoop -->
<g id="node6" class="node">
<title>L4YAML.Scanner.collectTagHandleDirectiveLoop</title>
<g id="a_node6"><a xlink:href="../../../api/L4YAML/Scanner.html#L4YAML.Scanner.collectTagHandleDirectiveLoop" xlink:title="collectTagHandleDirectiveLoop\n(def)" target="_blank">
<polygon fill="#dce9f7" stroke="#4a90d9" points="676.86,-106 525.86,-106 525.86,-70 676.86,-70 676.86,-106"/>
<text text-anchor="middle" x="601.36" y="-91" font-family="Helvetica" font-size="10.00">collectTagHandleDirectiveLoop</text>
<text text-anchor="middle" x="601.36" y="-80" font-family="Helvetica" font-size="10.00">(def)</text>
</a>
</g>
</g>
<!-- L4YAML.CharPredicates.isWordCharBool -->
<g id="node7" class="node">
<title>L4YAML.CharPredicates.isWordCharBool</title>
<g id="a_node7"><a xlink:href="../../../api/L4YAML/CharPredicates.html#L4YAML.CharPredicates.isWordCharBool" xlink:title="CharPredicates.isWordCharBool\n(def)" target="_blank">
<polygon fill="#dce9f7" stroke="#4a90d9" points="680.36,-52 522.36,-52 522.36,-16 680.36,-16 680.36,-52"/>
<text text-anchor="middle" x="601.36" y="-37" font-family="Helvetica" font-size="10.00">CharPredicates.isWordCharBool</text>
<text text-anchor="middle" x="601.36" y="-26" font-family="Helvetica" font-size="10.00">(def)</text>
</a>
</g>
</g>
<!-- L4YAML.Scanner.collectTagHandleDirectiveLoop.eq_def -->
<g id="node8" class="node">
<title>L4YAML.Scanner.collectTagHandleDirectiveLoop.eq_def</title>
<g id="a_node8"><a xlink:href="../../../api/L4YAML/Proofs/StructureCoupling.html#L4YAML.Scanner.collectTagHandleDirectiveLoop.eq_def" xlink:title="collectTagHandleDirectiveLoop.eq_def" target="_blank">
<polygon fill="#fff3cd" stroke="#d4a017" points="448.44,-188.54 448.44,-203.46 361.35,-214 238.19,-214 151.1,-203.46 151.1,-188.54 238.19,-178 361.35,-178 448.44,-188.54"/>
<polygon fill="none" stroke="#d4a017" points="452.45,-185 452.45,-207 361.6,-218 237.95,-218 147.1,-207 147.1,-185 237.95,-174 361.6,-174 452.45,-185"/>
<text text-anchor="middle" x="299.77" y="-192.9" font-family="Helvetica" font-size="12.00">collectTagHandleDirectiveLoop.eq_def</text>
</a>
</g>
</g>
<!-- L4YAML.Scanner.collectTagHandleDirectiveLoop.eq_def&#45;&gt;L4YAML.Scanner.ScannerState.advance -->
<g id="edge1" class="edge">
<title>L4YAML.Scanner.collectTagHandleDirectiveLoop.eq_def&#45;&gt;L4YAML.Scanner.ScannerState.advance</title>
<path fill="none" stroke="#4a90d9" stroke-width="2" d="M328.28,-218.16C366.11,-247.67 437.28,-299.77 505.36,-331 515.2,-335.52 525.97,-339.45 536.61,-342.81"/>
<polygon fill="#4a90d9" stroke="#4a90d9" stroke-width="2" points="536.16,-345.23 543.57,-344.93 537.59,-340.55 536.16,-345.23"/>
<text text-anchor="middle" x="482.86" y="-327.6" font-family="Times-Roman" font-size="8.00" fill="#4a90d9">about</text>
</g>
<!-- L4YAML.Scanner.collectTagHandleDirectiveLoop.eq_def&#45;&gt;L4YAML.Scanner.ScannerState.peek? -->
<g id="edge7" class="edge">
<title>L4YAML.Scanner.collectTagHandleDirectiveLoop.eq_def&#45;&gt;L4YAML.Scanner.ScannerState.peek?</title>
<path fill="none" stroke="#4a90d9" stroke-width="2" d="M352.37,-218.09C393.42,-235.26 452.54,-259.09 505.36,-277 517.28,-281.04 530.17,-284.99 542.5,-288.56"/>
<polygon fill="#4a90d9" stroke="#4a90d9" stroke-width="2" points="541.88,-290.93 549.29,-290.5 543.23,-286.22 541.88,-290.93"/>
<text text-anchor="middle" x="482.86" y="-275.6" font-family="Times-Roman" font-size="8.00" fill="#4a90d9">about</text>
</g>
<!-- L4YAML.Scanner.collectTagHandleDirectiveLoop.eq_def&#45;&gt;L4YAML.Scanner.skipWhitespaceLoop.match_1 -->
<g id="edge4" class="edge">
<title>L4YAML.Scanner.collectTagHandleDirectiveLoop.eq_def&#45;&gt;L4YAML.Scanner.skipWhitespaceLoop.match_1</title>
<path fill="none" stroke="#4a90d9" stroke-width="2" d="M398.45,-213.61C437.84,-220.71 482.71,-228.79 520.14,-235.54"/>
<polygon fill="#4a90d9" stroke="#4a90d9" stroke-width="2" points="519.71,-237.95 527.03,-236.78 520.58,-233.13 519.71,-237.95"/>
<text text-anchor="middle" x="482.86" y="-232.6" font-family="Times-Roman" font-size="8.00" fill="#4a90d9">about</text>
</g>
<!-- L4YAML.Scanner.collectTagHandleDirectiveLoop.eq_def&#45;&gt;L4YAML.Scanner.ScannerState -->
<g id="edge3" class="edge">
<title>L4YAML.Scanner.collectTagHandleDirectiveLoop.eq_def&#45;&gt;L4YAML.Scanner.ScannerState</title>
<path fill="none" stroke="#4a90d9" stroke-width="2" d="M452.76,-196C490.52,-196 528.09,-196 555.88,-196"/>
<polygon fill="#4a90d9" stroke="#4a90d9" stroke-width="2" points="556.09,-198.45 563.09,-196 556.09,-193.55 556.09,-198.45"/>
<text text-anchor="middle" x="482.86" y="-198.6" font-family="Times-Roman" font-size="8.00" fill="#4a90d9">about</text>
</g>
<!-- L4YAML.Scanner.collectTagHandleDirectiveLoop.eq_def&#45;&gt;L4YAML.Scanner.ScannerState.peekAt?Loop.match_1 -->
<g id="edge2" class="edge">
<title>L4YAML.Scanner.collectTagHandleDirectiveLoop.eq_def&#45;&gt;L4YAML.Scanner.ScannerState.peekAt?Loop.match_1</title>
<path fill="none" stroke="#4a90d9" stroke-width="2" d="M398.45,-178.39C432.89,-172.19 471.52,-165.22 505.7,-159.06"/>
<polygon fill="#4a90d9" stroke="#4a90d9" stroke-width="2" points="506.47,-161.41 512.92,-157.76 505.6,-156.59 506.47,-161.41"/>
<text text-anchor="middle" x="482.86" y="-166.6" font-family="Times-Roman" font-size="8.00" fill="#4a90d9">about</text>
</g>
<!-- L4YAML.Scanner.collectTagHandleDirectiveLoop.eq_def&#45;&gt;L4YAML.Scanner.collectTagHandleDirectiveLoop -->
<g id="edge5" class="edge">
<title>L4YAML.Scanner.collectTagHandleDirectiveLoop.eq_def&#45;&gt;L4YAML.Scanner.collectTagHandleDirectiveLoop</title>
<path fill="none" stroke="#4a90d9" stroke-width="2" d="M352.37,-173.91C393.42,-156.74 452.54,-132.91 505.36,-115 512.32,-112.64 519.62,-110.31 526.94,-108.07"/>
<polygon fill="#4a90d9" stroke="#4a90d9" stroke-width="2" points="527.67,-110.41 533.66,-106.04 526.25,-105.72 527.67,-110.41"/>
<text text-anchor="middle" x="482.86" y="-128.6" font-family="Times-Roman" font-size="8.00" fill="#4a90d9">about</text>
</g>
<!-- L4YAML.Scanner.collectTagHandleDirectiveLoop.eq_def&#45;&gt;L4YAML.CharPredicates.isWordCharBool -->
<g id="edge6" class="edge">
<title>L4YAML.Scanner.collectTagHandleDirectiveLoop.eq_def&#45;&gt;L4YAML.CharPredicates.isWordCharBool</title>
<path fill="none" stroke="#4a90d9" stroke-width="2" d="M328.28,-173.84C366.11,-144.33 437.28,-92.23 505.36,-61 510.4,-58.69 515.68,-56.53 521.07,-54.52"/>
<polygon fill="#4a90d9" stroke="#4a90d9" stroke-width="2" points="522.17,-56.73 527.93,-52.06 520.51,-52.12 522.17,-56.73"/>
<text text-anchor="middle" x="482.86" y="-77.6" font-family="Times-Roman" font-size="8.00" fill="#4a90d9">about</text>
</g>
<!-- Nat.brecOn.eq -->
<g id="node9" class="node">
<title>Nat.brecOn.eq</title>
<g id="a_node9"><a xlink:href="../../../api/Init/Prelude.html#Nat.brecOn.eq" xlink:title="Nat.brecOn.eq" target="_blank">
<ellipse fill="#fdebd0" stroke="#e67e22" cx="63.09" cy="-196" rx="47.19" ry="18"/>
<text text-anchor="middle" x="63.09" y="-193.5" font-family="Helvetica" font-size="10.00">Nat.brecOn.eq</text>
</a>
</g>
</g>
<!-- Nat.brecOn.eq&#45;&gt;L4YAML.Scanner.collectTagHandleDirectiveLoop.eq_def -->
<g id="edge8" class="edge">
<title>Nat.brecOn.eq&#45;&gt;L4YAML.Scanner.collectTagHandleDirectiveLoop.eq_def</title>
<path fill="none" stroke="#e67e22" stroke-width="2" d="M110.46,-196C119.47,-196 129.37,-196 139.77,-196"/>
<polygon fill="#e67e22" stroke="#e67e22" stroke-width="2" points="140.05,-198.45 147.05,-196 140.05,-193.55 140.05,-198.45"/>
</g>
</g>
</svg>
