<?xml version="1.0" encoding="UTF-8" standalone="no"?>
<!DOCTYPE svg PUBLIC "-//W3C//DTD SVG 1.1//EN"
 "http://www.w3.org/Graphics/SVG/1.1/DTD/svg11.dtd">
<!-- Generated by graphviz version 2.44.0 (0)
 -->
<!-- Title: collectSingleQuotedLoop.eq_def Pages: 1 -->
<svg width="672pt" height="1390pt"
 viewBox="0.00 0.00 672.05 1390.00" xmlns="http://www.w3.org/2000/svg" xmlns:xlink="http://www.w3.org/1999/xlink">
<g id="graph0" class="graph" transform="scale(1 1) rotate(0) translate(4 1386)">
<title>collectSingleQuotedLoop.eq_def</title>
<polygon fill="white" stroke="transparent" points="-4,4 -4,-1386 668.05,-1386 668.05,4 -4,4"/>
<text text-anchor="middle" x="332.02" y="-1367.6" font-family="Helvetica Bold" font-size="13.00">collectSingleQuotedLoop.eq_def</text>
<text text-anchor="middle" x="332.02" y="-1353.6" font-family="Helvetica Bold" font-size="13.00">(heuristic: used by 7 proofs)</text>
<text text-anchor="middle" x="332.02" y="-1339.6" font-family="Helvetica Bold" font-size="13.00">(L4YAML.Proofs.ScalarCoupling)</text>
<g id="clust1" class="cluster">
<title>cluster_functions</title>
<polygon fill="none" stroke="#4a90d9" stroke-dasharray="5,2" points="464.05,-8 464.05,-1324 656.05,-1324 656.05,-8 464.05,-8"/>
<text text-anchor="middle" x="560.05" y="-1309.6" font-family="Helvetica Bold" font-size="13.00" fill="#4a90d9">Functions</text>
</g>
<g id="clust2" class="cluster">
<title>cluster_key</title>
<polygon fill="none" stroke="#d4a017" stroke-dasharray="5,2" points="139.19,-624 139.19,-706 419.05,-706 419.05,-624 139.19,-624"/>
<text text-anchor="middle" x="279.12" y="-691.6" font-family="Helvetica Bold" font-size="13.00" fill="#d4a017">Key Theorem</text>
</g>
<g id="clust4" class="cluster">
<title>cluster_stdlib</title>
<polygon fill="none" stroke="#e67e22" stroke-dasharray="5,2" points="8,-628 8,-702 118.19,-702 118.19,-628 8,-628"/>
<text text-anchor="middle" x="63.09" y="-687.6" font-family="Helvetica Bold" font-size="13.00" fill="#e67e22">Stdlib Lemmas</text>
</g>
<!-- L4YAML.Scanner.trimTrailingWS -->
<g id="node1" class="node">
<title>L4YAML.Scanner.trimTrailingWS</title>
<polygon fill="#dce9f7" stroke="#4a90d9" points="600.05,-1294 520.05,-1294 520.05,-1258 600.05,-1258 600.05,-1294"/>
<text text-anchor="middle" x="560.05" y="-1279" font-family="Helvetica" font-size="10.00">trimTrailingWS</text>
<text text-anchor="middle" x="560.05" y="-1268" font-family="Helvetica" font-size="10.00">(def)</text>
</g>
<!-- L4YAML.Scanner.collectSingleQuotedLoop -->
<g id="node2" class="node">
<title>L4YAML.Scanner.collectSingleQuotedLoop</title>
<polygon fill="#dce9f7" stroke="#4a90d9" points="622.55,-1240 497.55,-1240 497.55,-1204 622.55,-1204 622.55,-1240"/>
<text text-anchor="middle" x="560.05" y="-1225" font-family="Helvetica" font-size="10.00">collectSingleQuotedLoop</text>
<text text-anchor="middle" x="560.05" y="-1214" font-family="Helvetica" font-size="10.00">(def)</text>
</g>
<!-- L4YAML.Scanner.ScannerState.advance -->
<g id="node3" class="node">
<title>L4YAML.Scanner.ScannerState.advance</title>
<polygon fill="#dce9f7" stroke="#4a90d9" points="617.55,-1186 502.55,-1186 502.55,-1150 617.55,-1150 617.55,-1186"/>
<text text-anchor="middle" x="560.05" y="-1171" font-family="Helvetica" font-size="10.00">ScannerState.advance</text>
<text text-anchor="middle" x="560.05" y="-1160" font-family="Helvetica" font-size="10.00">(def)</text>
</g>
<!-- L4YAML.Scanner.ScannerState.line -->
<g id="node4" class="node">
<title>L4YAML.Scanner.ScannerState.line</title>
<polygon fill="#dce9f7" stroke="#4a90d9" points="607.05,-1132 513.05,-1132 513.05,-1096 607.05,-1096 607.05,-1132"/>
<text text-anchor="middle" x="560.05" y="-1117" font-family="Helvetica" font-size="10.00">ScannerState.line</text>
<text text-anchor="middle" x="560.05" y="-1106" font-family="Helvetica" font-size="10.00">(def)</text>
</g>
<!-- L4YAML.Scanner.ScannerState.peek? -->
<g id="node5" class="node">
<title>L4YAML.Scanner.ScannerState.peek?</title>
<polygon fill="#dce9f7" stroke="#4a90d9" points="612.05,-1078 508.05,-1078 508.05,-1042 612.05,-1042 612.05,-1078"/>
<text text-anchor="middle" x="560.05" y="-1063" font-family="Helvetica" font-size="10.00">ScannerState.peek?</text>
<text text-anchor="middle" x="560.05" y="-1052" font-family="Helvetica" font-size="10.00">(def)</text>
</g>
<!-- L4YAML.YamlPos.line -->
<g id="node6" class="node">
<title>L4YAML.YamlPos.line</title>
<polygon fill="#dce9f7" stroke="#4a90d9" points="597.05,-1024 523.05,-1024 523.05,-988 597.05,-988 597.05,-1024"/>
<text text-anchor="middle" x="560.05" y="-1009" font-family="Helvetica" font-size="10.00">YamlPos.line</text>
<text text-anchor="middle" x="560.05" y="-998" font-family="Helvetica" font-size="10.00">(def)</text>
</g>
<!-- L4YAML.CharPredicates.isNbJsonBool -->
<g id="node7" class="node">
<title>L4YAML.CharPredicates.isNbJsonBool</title>
<polygon fill="#dce9f7" stroke="#4a90d9" points="634.05,-970 486.05,-970 486.05,-934 634.05,-934 634.05,-970"/>
<text text-anchor="middle" x="560.05" y="-955" font-family="Helvetica" font-size="10.00">CharPredicates.isNbJsonBool</text>
<text text-anchor="middle" x="560.05" y="-944" font-family="Helvetica" font-size="10.00">(def)</text>
</g>
<!-- L4YAML.Scanner.foldQuotedNewlines -->
<g id="node8" class="node">
<title>L4YAML.Scanner.foldQuotedNewlines</title>
<polygon fill="#dce9f7" stroke="#4a90d9" points="612.05,-916 508.05,-916 508.05,-880 612.05,-880 612.05,-916"/>
<text text-anchor="middle" x="560.05" y="-901" font-family="Helvetica" font-size="10.00">foldQuotedNewlines</text>
<text text-anchor="middle" x="560.05" y="-890" font-family="Helvetica" font-size="10.00">(def)</text>
</g>
<!-- L4YAML.Scanner.ScannerState -->
<g id="node9" class="node">
<title>L4YAML.Scanner.ScannerState</title>
<polygon fill="#dce9f7" stroke="#4a90d9" points="598.05,-862 522.05,-862 522.05,-826 598.05,-826 598.05,-862"/>
<text text-anchor="middle" x="560.05" y="-847" font-family="Helvetica" font-size="10.00">ScannerState</text>
<text text-anchor="middle" x="560.05" y="-836" font-family="Helvetica" font-size="10.00">(inductive)</text>
</g>
<!-- L4YAML.Scanner.atDocumentEnd -->
<g id="node10" class="node">
<title>L4YAML.Scanner.atDocumentEnd</title>
<polygon fill="#dce9f7" stroke="#4a90d9" points="603.55,-808 516.55,-808 516.55,-772 603.55,-772 603.55,-808"/>
<text text-anchor="middle" x="560.05" y="-793" font-family="Helvetica" font-size="10.00">atDocumentEnd</text>
<text text-anchor="middle" x="560.05" y="-782" font-family="Helvetica" font-size="10.00">(def)</text>
</g>
<!-- L4YAML.Scanner.collectSingleQuotedLoop.match_1 -->
<g id="node11" class="node">
<title>L4YAML.Scanner.collectSingleQuotedLoop.match_1</title>
<polygon fill="#dce9f7" stroke="#4a90d9" points="642.55,-754 477.55,-754 477.55,-718 642.55,-718 642.55,-754"/>
<text text-anchor="middle" x="560.05" y="-739" font-family="Helvetica" font-size="10.00">collectSingleQuotedLoop.match_1</text>
<text text-anchor="middle" x="560.05" y="-728" font-family="Helvetica" font-size="10.00">(def)</text>
</g>
<!-- L4YAML.ScanError.underIndentedScalar -->
<g id="node12" class="node">
<title>L4YAML.ScanError.underIndentedScalar</title>
<polygon fill="#dce9f7" stroke="#4a90d9" points="636.05,-700 484.05,-700 484.05,-664 636.05,-664 636.05,-700"/>
<text text-anchor="middle" x="560.05" y="-685" font-family="Helvetica" font-size="10.00">ScanError.underIndentedScalar</text>
<text text-anchor="middle" x="560.05" y="-674" font-family="Helvetica" font-size="10.00">(ctor)</text>
</g>
<!-- L4YAML.Scanner.collectSingleQuotedLoop.match_3 -->
<g id="node13" class="node">
<title>L4YAML.Scanner.collectSingleQuotedLoop.match_3</title>
<polygon fill="#dce9f7" stroke="#4a90d9" points="642.55,-646 477.55,-646 477.55,-610 642.55,-610 642.55,-646"/>
<text text-anchor="middle" x="560.05" y="-631" font-family="Helvetica" font-size="10.00">collectSingleQuotedLoop.match_3</text>
<text text-anchor="middle" x="560.05" y="-620" font-family="Helvetica" font-size="10.00">(def)</text>
</g>
<!-- L4YAML.ScalarStyle.singleQuoted -->
<g id="node14" class="node">
<title>L4YAML.ScalarStyle.singleQuoted</title>
<polygon fill="#dce9f7" stroke="#4a90d9" points="623.55,-592 496.55,-592 496.55,-556 623.55,-556 623.55,-592"/>
<text text-anchor="middle" x="560.05" y="-577" font-family="Helvetica" font-size="10.00">ScalarStyle.singleQuoted</text>
<text text-anchor="middle" x="560.05" y="-566" font-family="Helvetica" font-size="10.00">(ctor)</text>
</g>
<!-- L4YAML.Scanner.skipToContentComment.match_1 -->
<g id="node15" class="node">
<title>L4YAML.Scanner.skipToContentComment.match_1</title>
<polygon fill="#dce9f7" stroke="#4a90d9" points="641.05,-538 479.05,-538 479.05,-502 641.05,-502 641.05,-538"/>
<text text-anchor="middle" x="560.05" y="-523" font-family="Helvetica" font-size="10.00">skipToContentComment.match_1</text>
<text text-anchor="middle" x="560.05" y="-512" font-family="Helvetica" font-size="10.00">(def)</text>
</g>
<!-- L4YAML.ScanError.unterminatedScalar -->
<g id="node16" class="node">
<title>L4YAML.ScanError.unterminatedScalar</title>
<polygon fill="#dce9f7" stroke="#4a90d9" points="633.55,-484 486.55,-484 486.55,-448 633.55,-448 633.55,-484"/>
<text text-anchor="middle" x="560.05" y="-469" font-family="Helvetica" font-size="10.00">ScanError.unterminatedScalar</text>
<text text-anchor="middle" x="560.05" y="-458" font-family="Helvetica" font-size="10.00">(ctor)</text>
</g>
<!-- L4YAML.CharPredicates.isLineBreakBool -->
<g id="node17" class="node">
<title>L4YAML.CharPredicates.isLineBreakBool</title>
<polygon fill="#dce9f7" stroke="#4a90d9" points="639.05,-430 481.05,-430 481.05,-394 639.05,-394 639.05,-430"/>
<text text-anchor="middle" x="560.05" y="-415" font-family="Helvetica" font-size="10.00">CharPredicates.isLineBreakBool</text>
<text text-anchor="middle" x="560.05" y="-404" font-family="Helvetica" font-size="10.00">(def)</text>
</g>
<!-- L4YAML.ScanError.documentMarkerInScalar -->
<g id="node18" class="node">
<title>L4YAML.ScanError.documentMarkerInScalar</title>
<polygon fill="#dce9f7" stroke="#4a90d9" points="646.05,-376 474.05,-376 474.05,-340 646.05,-340 646.05,-376"/>
<text text-anchor="middle" x="560.05" y="-361" font-family="Helvetica" font-size="10.00">ScanError.documentMarkerInScalar</text>
<text text-anchor="middle" x="560.05" y="-350" font-family="Helvetica" font-size="10.00">(ctor)</text>
</g>
<!-- L4YAML.Scanner.ScannerState.peekAt?Loop.match_1 -->
<g id="node19" class="node">
<title>L4YAML.Scanner.ScannerState.peekAt?Loop.match_1</title>
<polygon fill="#dce9f7" stroke="#4a90d9" points="648.05,-322 472.05,-322 472.05,-286 648.05,-286 648.05,-322"/>
<text text-anchor="middle" x="560.05" y="-307" font-family="Helvetica" font-size="10.00">ScannerState.peekAt?Loop.match_1</text>
<text text-anchor="middle" x="560.05" y="-296" font-family="Helvetica" font-size="10.00">(def)</text>
</g>
<!-- L4YAML.Scanner.atDocumentStart -->
<g id="node20" class="node">
<title>L4YAML.Scanner.atDocumentStart</title>
<polygon fill="#dce9f7" stroke="#4a90d9" points="606.05,-268 514.05,-268 514.05,-232 606.05,-232 606.05,-268"/>
<text text-anchor="middle" x="560.05" y="-253" font-family="Helvetica" font-size="10.00">atDocumentStart</text>
<text text-anchor="middle" x="560.05" y="-242" font-family="Helvetica" font-size="10.00">(def)</text>
</g>
<!-- L4YAML.Scanner.ScannerState.col -->
<g id="node21" class="node">
<title>L4YAML.Scanner.ScannerState.col</title>
<polygon fill="#dce9f7" stroke="#4a90d9" points="606.05,-214 514.05,-214 514.05,-178 606.05,-178 606.05,-214"/>
<text text-anchor="middle" x="560.05" y="-199" font-family="Helvetica" font-size="10.00">ScannerState.col</text>
<text text-anchor="middle" x="560.05" y="-188" font-family="Helvetica" font-size="10.00">(def)</text>
</g>
<!-- L4YAML.ScanError.invalidControlChar -->
<g id="node22" class="node">
<title>L4YAML.ScanError.invalidControlChar</title>
<polygon fill="#dce9f7" stroke="#4a90d9" points="631.55,-160 488.55,-160 488.55,-124 631.55,-124 631.55,-160"/>
<text text-anchor="middle" x="560.05" y="-145" font-family="Helvetica" font-size="10.00">ScanError.invalidControlChar</text>
<text text-anchor="middle" x="560.05" y="-134" font-family="Helvetica" font-size="10.00">(ctor)</text>
</g>
<!-- L4YAML.YamlPos -->
<g id="node23" class="node">
<title>L4YAML.YamlPos</title>
<polygon fill="#dce9f7" stroke="#4a90d9" points="591.05,-106 529.05,-106 529.05,-70 591.05,-70 591.05,-106"/>
<text text-anchor="middle" x="560.05" y="-91" font-family="Helvetica" font-size="10.00">YamlPos</text>
<text text-anchor="middle" x="560.05" y="-80" font-family="Helvetica" font-size="10.00">(inductive)</text>
</g>
<!-- L4YAML.ScanError -->
<g id="node24" class="node">
<title>L4YAML.ScanError</title>
<polygon fill="#dce9f7" stroke="#4a90d9" points="591.05,-52 529.05,-52 529.05,-16 591.05,-16 591.05,-52"/>
<text text-anchor="middle" x="560.05" y="-37" font-family="Helvetica" font-size="10.00">ScanError</text>
<text text-anchor="middle" x="560.05" y="-26" font-family="Helvetica" font-size="10.00">(inductive)</text>
</g>
<!-- L4YAML.Scanner.collectSingleQuotedLoop.eq_def -->
<g id="node25" class="node">
<title>L4YAML.Scanner.collectSingleQuotedLoop.eq_def</title>
<polygon fill="#fff3cd" stroke="#d4a017" points="406.98,-646.54 406.98,-661.46 332.08,-672 226.15,-672 151.25,-661.46 151.25,-646.54 226.15,-636 332.08,-636 406.98,-646.54"/>
<polygon fill="none" stroke="#d4a017" points="410.98,-643.07 410.98,-664.93 332.36,-676 225.87,-676 147.26,-664.93 147.26,-643.07 225.87,-632 332.36,-632 410.98,-643.07"/>
<text text-anchor="middle" x="279.12" y="-650.9" font-family="Helvetica" font-size="12.00">collectSingleQuotedLoop.eq_def</text>
</g>
<!-- L4YAML.Scanner.collectSingleQuotedLoop.eq_def&#45;&gt;L4YAML.Scanner.trimTrailingWS -->
<g id="edge16" class="edge">
<title>L4YAML.Scanner.collectSingleQuotedLoop.eq_def&#45;&gt;L4YAML.Scanner.trimTrailingWS</title>
<path fill="none" stroke="#4a90d9" stroke-width="2" d="M283.38,-676.24C295.1,-752.25 339.25,-1007.64 429.05,-1199 440.57,-1223.56 441.95,-1233.27 464.05,-1249 478.35,-1259.18 496.41,-1265.53 512.93,-1269.5"/>
<polygon fill="#4a90d9" stroke="#4a90d9" stroke-width="2" points="512.53,-1271.92 519.9,-1271.05 513.6,-1267.14 512.53,-1271.92"/>
<text text-anchor="middle" x="441.55" y="-1242.6" font-family="Times-Roman" font-size="8.00" fill="#4a90d9">about</text>
</g>
<!-- L4YAML.Scanner.collectSingleQuotedLoop.eq_def&#45;&gt;L4YAML.Scanner.collectSingleQuotedLoop -->
<g id="edge8" class="edge">
<title>L4YAML.Scanner.collectSingleQuotedLoop.eq_def&#45;&gt;L4YAML.Scanner.collectSingleQuotedLoop</title>
<path fill="none" stroke="#4a90d9" stroke-width="2" d="M284.29,-676.46C298.07,-747.77 346.07,-974.37 429.05,-1145 440.91,-1169.39 441.95,-1179.27 464.05,-1195 472.03,-1200.68 481.18,-1205.17 490.58,-1208.72"/>
<polygon fill="#4a90d9" stroke="#4a90d9" stroke-width="2" points="490.04,-1211.12 497.46,-1211.14 491.67,-1206.5 490.04,-1211.12"/>
<text text-anchor="middle" x="441.55" y="-1188.6" font-family="Times-Roman" font-size="8.00" fill="#4a90d9">about</text>
</g>
<!-- L4YAML.Scanner.collectSingleQuotedLoop.eq_def&#45;&gt;L4YAML.Scanner.ScannerState.advance -->
<g id="edge2" class="edge">
<title>L4YAML.Scanner.collectSingleQuotedLoop.eq_def&#45;&gt;L4YAML.Scanner.ScannerState.advance</title>
<path fill="none" stroke="#4a90d9" stroke-width="2" d="M285.4,-676.16C301.5,-741.72 353.5,-939.52 429.05,-1090 441.38,-1114.57 441.72,-1124.96 464.05,-1141 473.39,-1147.71 484.36,-1152.76 495.46,-1156.56"/>
<polygon fill="#4a90d9" stroke="#4a90d9" stroke-width="2" points="494.96,-1158.97 502.37,-1158.76 496.45,-1154.3 494.96,-1158.97"/>
<text text-anchor="middle" x="441.55" y="-1134.6" font-family="Times-Roman" font-size="8.00" fill="#4a90d9">about</text>
</g>
<!-- L4YAML.Scanner.collectSingleQuotedLoop.eq_def&#45;&gt;L4YAML.Scanner.ScannerState.line -->
<g id="edge22" class="edge">
<title>L4YAML.Scanner.collectSingleQuotedLoop.eq_def&#45;&gt;L4YAML.Scanner.ScannerState.line</title>
<path fill="none" stroke="#4a90d9" stroke-width="2" d="M287.32,-676.28C306.82,-735.53 363.57,-901.27 429.05,-1031 442.27,-1057.2 440.59,-1069.37 464.05,-1087 476.18,-1096.12 491.28,-1102.16 505.84,-1106.16"/>
<polygon fill="#4a90d9" stroke="#4a90d9" stroke-width="2" points="505.55,-1108.61 512.94,-1107.97 506.76,-1103.87 505.55,-1108.61"/>
<text text-anchor="middle" x="441.55" y="-1079.6" font-family="Times-Roman" font-size="8.00" fill="#4a90d9">about</text>
</g>
<!-- L4YAML.Scanner.collectSingleQuotedLoop.eq_def&#45;&gt;L4YAML.Scanner.ScannerState.peek? -->
<g id="edge21" class="edge">
<title>L4YAML.Scanner.collectSingleQuotedLoop.eq_def&#45;&gt;L4YAML.Scanner.ScannerState.peek?</title>
<path fill="none" stroke="#4a90d9" stroke-width="2" d="M283.58,-676.04C295.25,-742.35 339.64,-941.08 464.05,-1033 474.85,-1040.98 487.94,-1046.61 500.9,-1050.57"/>
<polygon fill="#4a90d9" stroke="#4a90d9" stroke-width="2" points="500.25,-1052.93 507.66,-1052.5 501.6,-1048.22 500.25,-1052.93"/>
<text text-anchor="middle" x="441.55" y="-1020.6" font-family="Times-Roman" font-size="8.00" fill="#4a90d9">about</text>
</g>
<!-- L4YAML.Scanner.collectSingleQuotedLoop.eq_def&#45;&gt;L4YAML.YamlPos.line -->
<g id="edge3" class="edge">
<title>L4YAML.Scanner.collectSingleQuotedLoop.eq_def&#45;&gt;L4YAML.YamlPos.line</title>
<path fill="none" stroke="#4a90d9" stroke-width="2" d="M285.7,-676.07C301.95,-735.55 355.16,-900 464.05,-979 478.98,-989.84 498.15,-996.33 515.35,-1000.22"/>
<polygon fill="#4a90d9" stroke="#4a90d9" stroke-width="2" points="515.24,-1002.7 522.59,-1001.74 516.24,-997.91 515.24,-1002.7"/>
<text text-anchor="middle" x="441.55" y="-968.6" font-family="Times-Roman" font-size="8.00" fill="#4a90d9">about</text>
</g>
<!-- L4YAML.Scanner.collectSingleQuotedLoop.eq_def&#45;&gt;L4YAML.CharPredicates.isNbJsonBool -->
<g id="edge24" class="edge">
<title>L4YAML.Scanner.collectSingleQuotedLoop.eq_def&#45;&gt;L4YAML.CharPredicates.isNbJsonBool</title>
<path fill="none" stroke="#4a90d9" stroke-width="2" d="M288.72,-676.2C310.05,-728.17 370.46,-858.4 464.05,-925 468.66,-928.29 473.67,-931.17 478.89,-933.71"/>
<polygon fill="#4a90d9" stroke="#4a90d9" stroke-width="2" points="478.22,-936.09 485.61,-936.74 480.23,-931.63 478.22,-936.09"/>
<text text-anchor="middle" x="441.55" y="-916.6" font-family="Times-Roman" font-size="8.00" fill="#4a90d9">about</text>
</g>
<!-- L4YAML.Scanner.collectSingleQuotedLoop.eq_def&#45;&gt;L4YAML.Scanner.foldQuotedNewlines -->
<g id="edge23" class="edge">
<title>L4YAML.Scanner.collectSingleQuotedLoop.eq_def&#45;&gt;L4YAML.Scanner.foldQuotedNewlines</title>
<path fill="none" stroke="#4a90d9" stroke-width="2" d="M292.68,-676.21C318.75,-720.24 383.09,-818.85 464.05,-871 475.12,-878.13 488.09,-883.41 500.83,-887.31"/>
<polygon fill="#4a90d9" stroke="#4a90d9" stroke-width="2" points="500.47,-889.76 507.87,-889.34 501.82,-885.05 500.47,-889.76"/>
<text text-anchor="middle" x="441.55" y="-864.6" font-family="Times-Roman" font-size="8.00" fill="#4a90d9">about</text>
</g>
<!-- L4YAML.Scanner.collectSingleQuotedLoop.eq_def&#45;&gt;L4YAML.Scanner.ScannerState -->
<g id="edge14" class="edge">
<title>L4YAML.Scanner.collectSingleQuotedLoop.eq_def&#45;&gt;L4YAML.Scanner.ScannerState</title>
<path fill="none" stroke="#4a90d9" stroke-width="2" d="M298.99,-676.19C329.94,-711.21 395,-779.19 464.05,-817 479.71,-825.58 498.34,-831.64 514.95,-835.82"/>
<polygon fill="#4a90d9" stroke="#4a90d9" stroke-width="2" points="514.54,-838.24 521.92,-837.5 515.69,-833.48 514.54,-838.24"/>
<text text-anchor="middle" x="441.55" y="-812.6" font-family="Times-Roman" font-size="8.00" fill="#4a90d9">about</text>
</g>
<!-- L4YAML.Scanner.collectSingleQuotedLoop.eq_def&#45;&gt;L4YAML.Scanner.atDocumentEnd -->
<g id="edge17" class="edge">
<title>L4YAML.Scanner.collectSingleQuotedLoop.eq_def&#45;&gt;L4YAML.Scanner.atDocumentEnd</title>
<path fill="none" stroke="#4a90d9" stroke-width="2" d="M311.66,-676.14C347.27,-700.29 407.61,-738.74 464.05,-763 478.26,-769.11 494.26,-774.27 509.02,-778.38"/>
<polygon fill="#4a90d9" stroke="#4a90d9" stroke-width="2" points="508.75,-780.85 516.15,-780.32 510.03,-776.12 508.75,-780.85"/>
<text text-anchor="middle" x="441.55" y="-760.6" font-family="Times-Roman" font-size="8.00" fill="#4a90d9">about</text>
</g>
<!-- L4YAML.Scanner.collectSingleQuotedLoop.eq_def&#45;&gt;L4YAML.Scanner.collectSingleQuotedLoop.match_1 -->
<g id="edge7" class="edge">
<title>L4YAML.Scanner.collectSingleQuotedLoop.eq_def&#45;&gt;L4YAML.Scanner.collectSingleQuotedLoop.match_1</title>
<path fill="none" stroke="#4a90d9" stroke-width="2" d="M346.46,-674.08C381.41,-684.59 425.01,-697.62 464.05,-709 471.89,-711.29 480.11,-713.66 488.29,-716"/>
<polygon fill="#4a90d9" stroke="#4a90d9" stroke-width="2" points="487.73,-718.39 495.14,-717.97 489.08,-713.68 487.73,-718.39"/>
<text text-anchor="middle" x="441.55" y="-706.6" font-family="Times-Roman" font-size="8.00" fill="#4a90d9">about</text>
</g>
<!-- L4YAML.Scanner.collectSingleQuotedLoop.eq_def&#45;&gt;L4YAML.ScanError.underIndentedScalar -->
<g id="edge19" class="edge">
<title>L4YAML.Scanner.collectSingleQuotedLoop.eq_def&#45;&gt;L4YAML.ScanError.underIndentedScalar</title>
<path fill="none" stroke="#4a90d9" stroke-width="2" d="M402.05,-666.24C427.3,-668.77 453.32,-671.39 476.74,-673.74"/>
<polygon fill="#4a90d9" stroke="#4a90d9" stroke-width="2" points="476.71,-676.2 483.92,-674.46 477.2,-671.32 476.71,-676.2"/>
<text text-anchor="middle" x="441.55" y="-673.6" font-family="Times-Roman" font-size="8.00" fill="#4a90d9">about</text>
</g>
<!-- L4YAML.Scanner.collectSingleQuotedLoop.eq_def&#45;&gt;L4YAML.Scanner.collectSingleQuotedLoop.match_3 -->
<g id="edge4" class="edge">
<title>L4YAML.Scanner.collectSingleQuotedLoop.eq_def&#45;&gt;L4YAML.Scanner.collectSingleQuotedLoop.match_3</title>
<path fill="none" stroke="#4a90d9" stroke-width="2" d="M405.71,-642.29C427.44,-640.27 449.63,-638.2 470.13,-636.29"/>
<polygon fill="#4a90d9" stroke="#4a90d9" stroke-width="2" points="470.56,-638.71 477.3,-635.62 470.11,-633.83 470.56,-638.71"/>
<text text-anchor="middle" x="441.55" y="-641.6" font-family="Times-Roman" font-size="8.00" fill="#4a90d9">about</text>
</g>
<!-- L4YAML.Scanner.collectSingleQuotedLoop.eq_def&#45;&gt;L4YAML.ScalarStyle.singleQuoted -->
<g id="edge12" class="edge">
<title>L4YAML.Scanner.collectSingleQuotedLoop.eq_def&#45;&gt;L4YAML.ScalarStyle.singleQuoted</title>
<path fill="none" stroke="#4a90d9" stroke-width="2" d="M348.67,-634.18C383.25,-624.2 425.87,-611.93 464.05,-601 472.31,-598.64 480.97,-596.16 489.57,-593.71"/>
<polygon fill="#4a90d9" stroke="#4a90d9" stroke-width="2" points="490.38,-596.03 496.44,-591.76 489.04,-591.32 490.38,-596.03"/>
<text text-anchor="middle" x="441.55" y="-611.6" font-family="Times-Roman" font-size="8.00" fill="#4a90d9">about</text>
</g>
<!-- L4YAML.Scanner.collectSingleQuotedLoop.eq_def&#45;&gt;L4YAML.Scanner.skipToContentComment.match_1 -->
<g id="edge6" class="edge">
<title>L4YAML.Scanner.collectSingleQuotedLoop.eq_def&#45;&gt;L4YAML.Scanner.skipToContentComment.match_1</title>
<path fill="none" stroke="#4a90d9" stroke-width="2" d="M312.38,-631.87C348.12,-608.17 408.12,-570.77 464.05,-547 469.55,-544.66 475.31,-542.46 481.17,-540.4"/>
<polygon fill="#4a90d9" stroke="#4a90d9" stroke-width="2" points="482.23,-542.63 488.07,-538.05 480.65,-537.99 482.23,-542.63"/>
<text text-anchor="middle" x="441.55" y="-563.6" font-family="Times-Roman" font-size="8.00" fill="#4a90d9">about</text>
</g>
<!-- L4YAML.Scanner.collectSingleQuotedLoop.eq_def&#45;&gt;L4YAML.ScanError.unterminatedScalar -->
<g id="edge10" class="edge">
<title>L4YAML.Scanner.collectSingleQuotedLoop.eq_def&#45;&gt;L4YAML.ScanError.unterminatedScalar</title>
<path fill="none" stroke="#4a90d9" stroke-width="2" d="M299.3,-631.81C330.44,-597.15 395.45,-530.3 464.05,-493 468.92,-490.35 474.08,-487.94 479.37,-485.75"/>
<polygon fill="#4a90d9" stroke="#4a90d9" stroke-width="2" points="480.52,-487.93 486.14,-483.09 478.72,-483.37 480.52,-487.93"/>
<text text-anchor="middle" x="441.55" y="-515.6" font-family="Times-Roman" font-size="8.00" fill="#4a90d9">about</text>
</g>
<!-- L4YAML.Scanner.collectSingleQuotedLoop.eq_def&#45;&gt;L4YAML.CharPredicates.isLineBreakBool -->
<g id="edge11" class="edge">
<title>L4YAML.Scanner.collectSingleQuotedLoop.eq_def&#45;&gt;L4YAML.CharPredicates.isLineBreakBool</title>
<path fill="none" stroke="#4a90d9" stroke-width="2" d="M292.94,-631.66C319.23,-587.88 383.61,-490.56 464.05,-439 467.3,-436.92 470.71,-434.99 474.23,-433.21"/>
<polygon fill="#4a90d9" stroke="#4a90d9" stroke-width="2" points="475.39,-435.38 480.67,-430.17 473.29,-430.95 475.39,-435.38"/>
<text text-anchor="middle" x="441.55" y="-463.6" font-family="Times-Roman" font-size="8.00" fill="#4a90d9">about</text>
</g>
<!-- L4YAML.Scanner.collectSingleQuotedLoop.eq_def&#45;&gt;L4YAML.ScanError.documentMarkerInScalar -->
<g id="edge18" class="edge">
<title>L4YAML.Scanner.collectSingleQuotedLoop.eq_def&#45;&gt;L4YAML.ScanError.documentMarkerInScalar</title>
<path fill="none" stroke="#4a90d9" stroke-width="2" d="M288.75,-631.93C310.11,-580.25 370.62,-450.82 464.05,-385 466.88,-383.01 469.85,-381.16 472.93,-379.45"/>
<polygon fill="#4a90d9" stroke="#4a90d9" stroke-width="2" points="474.28,-381.51 479.38,-376.12 472.04,-377.15 474.28,-381.51"/>
<text text-anchor="middle" x="441.55" y="-414.6" font-family="Times-Roman" font-size="8.00" fill="#4a90d9">about</text>
</g>
<!-- L4YAML.Scanner.collectSingleQuotedLoop.eq_def&#45;&gt;L4YAML.Scanner.ScannerState.peekAt?Loop.match_1 -->
<g id="edge5" class="edge">
<title>L4YAML.Scanner.collectSingleQuotedLoop.eq_def&#45;&gt;L4YAML.Scanner.ScannerState.peekAt?Loop.match_1</title>
<path fill="none" stroke="#4a90d9" stroke-width="2" d="M285.83,-631.6C302.26,-572.03 355.57,-408.95 464.05,-331 466.86,-328.98 469.82,-327.11 472.88,-325.38"/>
<polygon fill="#4a90d9" stroke="#4a90d9" stroke-width="2" points="474.24,-327.44 479.31,-322.02 471.97,-323.09 474.24,-327.44"/>
<text text-anchor="middle" x="441.55" y="-358.6" font-family="Times-Roman" font-size="8.00" fill="#4a90d9">about</text>
</g>
<!-- L4YAML.Scanner.collectSingleQuotedLoop.eq_def&#45;&gt;L4YAML.Scanner.atDocumentStart -->
<g id="edge20" class="edge">
<title>L4YAML.Scanner.collectSingleQuotedLoop.eq_def&#45;&gt;L4YAML.Scanner.atDocumentStart</title>
<path fill="none" stroke="#4a90d9" stroke-width="2" d="M283.68,-631.56C295.51,-565.03 340.07,-367.78 464.05,-277 476.64,-267.78 492.3,-261.7 507.24,-257.7"/>
<polygon fill="#4a90d9" stroke="#4a90d9" stroke-width="2" points="507.85,-260.07 514.04,-256 506.66,-255.32 507.85,-260.07"/>
<text text-anchor="middle" x="441.55" y="-308.6" font-family="Times-Roman" font-size="8.00" fill="#4a90d9">about</text>
</g>
<!-- L4YAML.Scanner.collectSingleQuotedLoop.eq_def&#45;&gt;L4YAML.Scanner.ScannerState.col -->
<g id="edge1" class="edge">
<title>L4YAML.Scanner.collectSingleQuotedLoop.eq_def&#45;&gt;L4YAML.Scanner.ScannerState.col</title>
<path fill="none" stroke="#4a90d9" stroke-width="2" d="M287.2,-631.66C306.41,-572.26 362.5,-406.19 429.05,-277 442.14,-251.57 441.04,-240 464.05,-223 476.6,-213.72 492.25,-207.63 507.19,-203.63"/>
<polygon fill="#4a90d9" stroke="#4a90d9" stroke-width="2" points="507.8,-206 514,-201.93 506.61,-201.25 507.8,-206"/>
<text text-anchor="middle" x="441.55" y="-279.6" font-family="Times-Roman" font-size="8.00" fill="#4a90d9">about</text>
</g>
<!-- L4YAML.Scanner.collectSingleQuotedLoop.eq_def&#45;&gt;L4YAML.ScanError.invalidControlChar -->
<g id="edge9" class="edge">
<title>L4YAML.Scanner.collectSingleQuotedLoop.eq_def&#45;&gt;L4YAML.ScanError.invalidControlChar</title>
<path fill="none" stroke="#4a90d9" stroke-width="2" d="M285.27,-631.77C301,-566.02 352.09,-367.76 429.05,-218 441.28,-194.2 442.17,-184.41 464.05,-169 469.4,-165.23 475.27,-161.98 481.38,-159.19"/>
<polygon fill="#4a90d9" stroke="#4a90d9" stroke-width="2" points="482.62,-161.32 488.1,-156.33 480.7,-156.82 482.62,-161.32"/>
<text text-anchor="middle" x="441.55" y="-220.6" font-family="Times-Roman" font-size="8.00" fill="#4a90d9">about</text>
</g>
<!-- L4YAML.Scanner.collectSingleQuotedLoop.eq_def&#45;&gt;L4YAML.YamlPos -->
<g id="edge13" class="edge">
<title>L4YAML.Scanner.collectSingleQuotedLoop.eq_def&#45;&gt;L4YAML.YamlPos</title>
<path fill="none" stroke="#4a90d9" stroke-width="2" d="M284.23,-631.55C297.84,-560.29 345.37,-333.89 429.05,-164 440.87,-139.99 442.17,-130.41 464.05,-115 481,-103.06 503.14,-96.37 521.78,-92.64"/>
<polygon fill="#4a90d9" stroke="#4a90d9" stroke-width="2" points="522.56,-94.99 529,-91.31 521.67,-90.17 522.56,-94.99"/>
<text text-anchor="middle" x="441.55" y="-166.6" font-family="Times-Roman" font-size="8.00" fill="#4a90d9">about</text>
</g>
<!-- L4YAML.Scanner.collectSingleQuotedLoop.eq_def&#45;&gt;L4YAML.ScanError -->
<g id="edge15" class="edge">
<title>L4YAML.Scanner.collectSingleQuotedLoop.eq_def&#45;&gt;L4YAML.ScanError</title>
<path fill="none" stroke="#4a90d9" stroke-width="2" d="M283.32,-631.77C294.85,-555.79 338.45,-300.58 429.05,-110 440.54,-85.83 442.17,-76.41 464.05,-61 481,-49.06 503.14,-42.37 521.78,-38.64"/>
<polygon fill="#4a90d9" stroke="#4a90d9" stroke-width="2" points="522.56,-40.99 529,-37.31 521.67,-36.17 522.56,-40.99"/>
<text text-anchor="middle" x="441.55" y="-112.6" font-family="Times-Roman" font-size="8.00" fill="#4a90d9">about</text>
</g>
<!-- Nat.brecOn.eq -->
<g id="node26" class="node">
<title>Nat.brecOn.eq</title>
<ellipse fill="#fdebd0" stroke="#e67e22" cx="63.09" cy="-654" rx="47.19" ry="18"/>
<text text-anchor="middle" x="63.09" y="-651.5" font-family="Helvetica" font-size="10.00">Nat.brecOn.eq</text>
</g>
<!-- Nat.brecOn.eq&#45;&gt;L4YAML.Scanner.collectSingleQuotedLoop.eq_def -->
<g id="edge25" class="edge">
<title>Nat.brecOn.eq&#45;&gt;L4YAML.Scanner.collectSingleQuotedLoop.eq_def</title>
<path fill="none" stroke="#e67e22" stroke-width="2" d="M110.27,-654C119.36,-654 129.32,-654 139.71,-654"/>
<polygon fill="#e67e22" stroke="#e67e22" stroke-width="2" points="139.97,-656.45 146.97,-654 139.97,-651.55 139.97,-656.45"/>
</g>
</g>
</svg>
