<?xml version="1.0" encoding="UTF-8" standalone="no"?>
<!DOCTYPE svg PUBLIC "-//W3C//DTD SVG 1.1//EN"
 "http://www.w3.org/Graphics/SVG/1.1/DTD/svg11.dtd">
<!-- Generated by graphviz version 2.44.0 (0)
 -->
<!-- Title: RoundTrip.contentEq_symm Pages: 1 -->
<svg width="695pt" height="225pt"
 viewBox="0.00 0.00 694.87 225.00" xmlns="http://www.w3.org/2000/svg" xmlns:xlink="http://www.w3.org/1999/xlink">
<g id="graph0" class="graph" transform="scale(1 1) rotate(0) translate(4 221)">
<title>RoundTrip.contentEq_symm</title>
<polygon fill="white" stroke="transparent" points="-4,4 -4,-221 690.87,-221 690.87,4 -4,4"/>
<text text-anchor="middle" x="343.44" y="-202.6" font-family="Helvetica Bold" font-size="13.00">RoundTrip.contentEq_symm</text>
<text text-anchor="middle" x="343.44" y="-188.6" font-family="Helvetica Bold" font-size="13.00">Content equality is symmetric</text>
<text text-anchor="middle" x="343.44" y="-174.6" font-family="Helvetica Bold" font-size="13.00">(L4YAML.Proofs.RoundTrip)</text>
<g id="clust1" class="cluster">
<title>cluster_functions</title>
<polygon fill="none" stroke="#4a90d9" stroke-dasharray="5,2" points="579.87,-23 579.87,-151 678.87,-151 678.87,-23 579.87,-23"/>
<text text-anchor="middle" x="629.37" y="-136.6" font-family="Helvetica Bold" font-size="13.00" fill="#4a90d9">Functions</text>
</g>
<g id="clust2" class="cluster">
<title>cluster_key</title>
<polygon fill="none" stroke="#d4a017" stroke-dasharray="5,2" points="289.66,-8 289.66,-90 534.87,-90 534.87,-8 289.66,-8"/>
<text text-anchor="middle" x="412.27" y="-75.6" font-family="Helvetica Bold" font-size="13.00" fill="#d4a017">Key Theorem</text>
</g>
<g id="clust3" class="cluster">
<title>cluster_proofs</title>
<polygon fill="none" stroke="#28a745" stroke-dasharray="5,2" points="8,-79 8,-159 268.66,-159 268.66,-79 8,-79"/>
<text text-anchor="middle" x="138.33" y="-144.6" font-family="Helvetica Bold" font-size="13.00" fill="#28a745">Proof Dependencies</text>
</g>
<!-- L4YAML.YamlValue -->
<g id="node1" class="node">
<title>L4YAML.YamlValue</title>
<g id="a_node1"><a xlink:href="../../../api/L4YAML/Types.html#L4YAML.YamlValue" xlink:title="YamlValue\n(inductive)" target="_blank">
<polygon fill="#dce9f7" stroke="#4a90d9" points="660.37,-121 598.37,-121 598.37,-85 660.37,-85 660.37,-121"/>
<text text-anchor="middle" x="629.37" y="-106" font-family="Helvetica" font-size="10.00">YamlValue</text>
<text text-anchor="middle" x="629.37" y="-95" font-family="Helvetica" font-size="10.00">(inductive)</text>
</a>
</g>
</g>
<!-- L4YAML.Emit.contentEq -->
<g id="node2" class="node">
<title>L4YAML.Emit.contentEq</title>
<g id="a_node2"><a xlink:href="../../../api/L4YAML/Emitter.html#L4YAML.Emit.contentEq" xlink:title="Emit.contentEq\n(def)" target="_blank">
<polygon fill="#dce9f7" stroke="#4a90d9" points="670.87,-67 587.87,-67 587.87,-31 670.87,-31 670.87,-67"/>
<text text-anchor="middle" x="629.37" y="-52" font-family="Helvetica" font-size="10.00">Emit.contentEq</text>
<text text-anchor="middle" x="629.37" y="-41" font-family="Helvetica" font-size="10.00">(def)</text>
</a>
</g>
</g>
<!-- L4YAML.Proofs.RoundTrip.contentEq_symm -->
<g id="node3" class="node">
<title>L4YAML.Proofs.RoundTrip.contentEq_symm</title>
<g id="a_node3"><a xlink:href="../../../api/L4YAML/Proofs/RoundTrip.html#L4YAML.Proofs.RoundTrip.contentEq_symm" xlink:title="RoundTrip.contentEq_symm" target="_blank">
<polygon fill="#fff3cd" stroke="#d4a017" points="522.98,-30.54 522.98,-45.46 458.12,-56 366.41,-56 301.56,-45.46 301.56,-30.54 366.41,-20 458.12,-20 522.98,-30.54"/>
<polygon fill="none" stroke="#d4a017" points="526.98,-27.14 526.98,-48.86 458.45,-60 366.08,-60 297.55,-48.86 297.55,-27.14 366.08,-16 458.45,-16 526.98,-27.14"/>
<text text-anchor="middle" x="412.27" y="-34.9" font-family="Helvetica" font-size="12.00">RoundTrip.contentEq_symm</text>
</a>
</g>
</g>
<!-- L4YAML.Proofs.RoundTrip.contentEq_symm&#45;&gt;L4YAML.YamlValue -->
<g id="edge2" class="edge">
<title>L4YAML.Proofs.RoundTrip.contentEq_symm&#45;&gt;L4YAML.YamlValue</title>
<path fill="none" stroke="#4a90d9" stroke-width="2" d="M476.64,-57.15C513.97,-68.43 559.89,-82.31 591.38,-91.82"/>
<polygon fill="#4a90d9" stroke="#4a90d9" stroke-width="2" points="590.86,-94.22 598.26,-93.9 592.27,-89.53 590.86,-94.22"/>
<text text-anchor="middle" x="557.37" y="-85.6" font-family="Times-Roman" font-size="8.00" fill="#4a90d9">about</text>
</g>
<!-- L4YAML.Proofs.RoundTrip.contentEq_symm&#45;&gt;L4YAML.Emit.contentEq -->
<g id="edge1" class="edge">
<title>L4YAML.Proofs.RoundTrip.contentEq_symm&#45;&gt;L4YAML.Emit.contentEq</title>
<path fill="none" stroke="#4a90d9" stroke-width="2" d="M527.12,-43.82C545.99,-44.79 564.61,-45.74 580.63,-46.56"/>
<polygon fill="#4a90d9" stroke="#4a90d9" stroke-width="2" points="580.69,-49.01 587.8,-46.93 580.94,-44.12 580.69,-49.01"/>
<text text-anchor="middle" x="557.37" y="-48.6" font-family="Times-Roman" font-size="8.00" fill="#4a90d9">about</text>
</g>
<!-- L4YAML.Proofs.RoundTrip.contentEq_symm._unary -->
<g id="node4" class="node">
<title>L4YAML.Proofs.RoundTrip.contentEq_symm._unary</title>
<g id="a_node4"><a xlink:href="../../../api/L4YAML/Proofs/RoundTrip.html#L4YAML.Proofs.RoundTrip.contentEq_symm._unary" xlink:title="RoundTrip.contentEq_symm._unary\n(RoundTrip)" target="_blank">
<ellipse fill="#d4edda" stroke="#28a745" cx="138.33" cy="-108" rx="122.16" ry="21.43"/>
<text text-anchor="middle" x="138.33" y="-111" font-family="Helvetica" font-size="10.00">RoundTrip.contentEq_symm._unary</text>
<text text-anchor="middle" x="138.33" y="-100" font-family="Helvetica" font-size="10.00">(RoundTrip)</text>
</a>
</g>
</g>
<!-- L4YAML.Proofs.RoundTrip.contentEq_symm._unary&#45;&gt;L4YAML.YamlValue -->
<g id="edge5" class="edge">
<title>L4YAML.Proofs.RoundTrip.contentEq_symm._unary&#45;&gt;L4YAML.YamlValue</title>
<path fill="none" stroke="#999999" stroke-dasharray="1,5" d="M241.58,-119.46C254.06,-120.5 266.64,-121.4 278.66,-122 407.93,-128.48 442.04,-142.24 569.87,-122 577.5,-120.79 585.49,-118.75 593.02,-116.44"/>
<polygon fill="#999999" stroke="#999999" points="593.92,-117.99 598.15,-114.81 592.86,-114.66 593.92,-117.99"/>
</g>
<!-- L4YAML.Proofs.RoundTrip.contentEq_symm._unary&#45;&gt;L4YAML.Emit.contentEq -->
<g id="edge4" class="edge">
<title>L4YAML.Proofs.RoundTrip.contentEq_symm._unary&#45;&gt;L4YAML.Emit.contentEq</title>
<path fill="none" stroke="#999999" stroke-dasharray="1,5" d="M250.44,-116.52C359.98,-122.8 518.25,-125.52 569.87,-94 577.68,-89.23 573.4,-82.47 579.87,-76 581.92,-73.95 584.15,-72.02 586.49,-70.19"/>
<polygon fill="#999999" stroke="#999999" points="587.82,-71.39 590.82,-67.03 585.75,-68.56 587.82,-71.39"/>
</g>
<!-- L4YAML.Proofs.RoundTrip.contentEq_symm._unary&#45;&gt;L4YAML.Proofs.RoundTrip.contentEq_symm -->
<g id="edge3" class="edge">
<title>L4YAML.Proofs.RoundTrip.contentEq_symm._unary&#45;&gt;L4YAML.Proofs.RoundTrip.contentEq_symm</title>
<path fill="none" stroke="#28a745" d="M207.6,-90.43C246.12,-80.51 294.37,-68.09 334.24,-57.83"/>
<polygon fill="#28a745" stroke="#28a745" points="334.9,-60.19 341.07,-56.07 333.68,-55.44 334.9,-60.19"/>
</g>
</g>
</svg>
