<?xml version="1.0" encoding="UTF-8" standalone="no"?>
<!DOCTYPE svg PUBLIC "-//W3C//DTD SVG 1.1//EN"
 "http://www.w3.org/Graphics/SVG/1.1/DTD/svg11.dtd">
<!-- Generated by graphviz version 2.44.0 (0)
 -->
<!-- Title: RoundTrip.contentEq_trans Pages: 1 -->
<svg width="681pt" height="225pt"
 viewBox="0.00 0.00 681.14 225.00" xmlns="http://www.w3.org/2000/svg" xmlns:xlink="http://www.w3.org/1999/xlink">
<g id="graph0" class="graph" transform="scale(1 1) rotate(0) translate(4 221)">
<title>RoundTrip.contentEq_trans</title>
<polygon fill="white" stroke="transparent" points="-4,4 -4,-221 677.14,-221 677.14,4 -4,4"/>
<text text-anchor="middle" x="336.57" y="-202.6" font-family="Helvetica Bold" font-size="13.00">RoundTrip.contentEq_trans</text>
<text text-anchor="middle" x="336.57" y="-188.6" font-family="Helvetica Bold" font-size="13.00">Content equality is transitive</text>
<text text-anchor="middle" x="336.57" y="-174.6" font-family="Helvetica Bold" font-size="13.00">(L4YAML.Proofs.RoundTrip)</text>
<g id="clust1" class="cluster">
<title>cluster_functions</title>
<polygon fill="none" stroke="#4a90d9" stroke-dasharray="5,2" points="566.14,-23 566.14,-151 665.14,-151 665.14,-23 566.14,-23"/>
<text text-anchor="middle" x="615.64" y="-136.6" font-family="Helvetica Bold" font-size="13.00" fill="#4a90d9">Functions</text>
</g>
<g id="clust2" class="cluster">
<title>cluster_key</title>
<polygon fill="none" stroke="#d4a017" stroke-dasharray="5,2" points="282.59,-8 282.59,-90 521.14,-90 521.14,-8 282.59,-8"/>
<text text-anchor="middle" x="401.86" y="-75.6" font-family="Helvetica Bold" font-size="13.00" fill="#d4a017">Key Theorem</text>
</g>
<g id="clust3" class="cluster">
<title>cluster_proofs</title>
<polygon fill="none" stroke="#28a745" stroke-dasharray="5,2" points="8,-79 8,-159 261.59,-159 261.59,-79 8,-79"/>
<text text-anchor="middle" x="134.79" y="-144.6" font-family="Helvetica Bold" font-size="13.00" fill="#28a745">Proof Dependencies</text>
</g>
<!-- L4YAML.YamlValue -->
<g id="node1" class="node">
<title>L4YAML.YamlValue</title>
<g id="a_node1"><a xlink:href="../../../api/L4YAML/Types.html#L4YAML.YamlValue" xlink:title="YamlValue\n(inductive)" target="_blank">
<polygon fill="#dce9f7" stroke="#4a90d9" points="646.64,-121 584.64,-121 584.64,-85 646.64,-85 646.64,-121"/>
<text text-anchor="middle" x="615.64" y="-106" font-family="Helvetica" font-size="10.00">YamlValue</text>
<text text-anchor="middle" x="615.64" y="-95" font-family="Helvetica" font-size="10.00">(inductive)</text>
</a>
</g>
</g>
<!-- L4YAML.Emit.contentEq -->
<g id="node2" class="node">
<title>L4YAML.Emit.contentEq</title>
<g id="a_node2"><a xlink:href="../../../api/L4YAML/Emitter.html#L4YAML.Emit.contentEq" xlink:title="Emit.contentEq\n(def)" target="_blank">
<polygon fill="#dce9f7" stroke="#4a90d9" points="657.14,-67 574.14,-67 574.14,-31 657.14,-31 657.14,-67"/>
<text text-anchor="middle" x="615.64" y="-52" font-family="Helvetica" font-size="10.00">Emit.contentEq</text>
<text text-anchor="middle" x="615.64" y="-41" font-family="Helvetica" font-size="10.00">(def)</text>
</a>
</g>
</g>
<!-- L4YAML.Proofs.RoundTrip.contentEq_trans -->
<g id="node3" class="node">
<title>L4YAML.Proofs.RoundTrip.contentEq_trans</title>
<g id="a_node3"><a xlink:href="../../../api/L4YAML/Proofs/RoundTrip.html#L4YAML.Proofs.RoundTrip.contentEq_trans" xlink:title="RoundTrip.contentEq_trans" target="_blank">
<polygon fill="#fff3cd" stroke="#d4a017" points="508.92,-30.54 508.92,-45.46 446.21,-56 357.52,-56 294.8,-45.46 294.8,-30.54 357.52,-20 446.21,-20 508.92,-30.54"/>
<polygon fill="none" stroke="#d4a017" points="512.91,-27.16 512.91,-48.84 446.54,-60 357.19,-60 290.81,-48.84 290.81,-27.16 357.19,-16 446.54,-16 512.91,-27.16"/>
<text text-anchor="middle" x="401.86" y="-34.9" font-family="Helvetica" font-size="12.00">RoundTrip.contentEq_trans</text>
</a>
</g>
</g>
<!-- L4YAML.Proofs.RoundTrip.contentEq_trans&#45;&gt;L4YAML.YamlValue -->
<g id="edge2" class="edge">
<title>L4YAML.Proofs.RoundTrip.contentEq_trans&#45;&gt;L4YAML.YamlValue</title>
<path fill="none" stroke="#4a90d9" stroke-width="2" d="M464.69,-56.98C501.35,-68.23 546.59,-82.11 577.73,-91.67"/>
<polygon fill="#4a90d9" stroke="#4a90d9" stroke-width="2" points="577.13,-94.05 584.54,-93.76 578.57,-89.37 577.13,-94.05"/>
<text text-anchor="middle" x="543.64" y="-85.6" font-family="Times-Roman" font-size="8.00" fill="#4a90d9">about</text>
</g>
<!-- L4YAML.Proofs.RoundTrip.contentEq_trans&#45;&gt;L4YAML.Emit.contentEq -->
<g id="edge1" class="edge">
<title>L4YAML.Proofs.RoundTrip.contentEq_trans&#45;&gt;L4YAML.Emit.contentEq</title>
<path fill="none" stroke="#4a90d9" stroke-width="2" d="M513.09,-43.73C531.92,-44.7 550.56,-45.67 566.63,-46.51"/>
<polygon fill="#4a90d9" stroke="#4a90d9" stroke-width="2" points="566.71,-48.96 573.83,-46.88 566.97,-44.07 566.71,-48.96"/>
<text text-anchor="middle" x="543.64" y="-48.6" font-family="Times-Roman" font-size="8.00" fill="#4a90d9">about</text>
</g>
<!-- L4YAML.Proofs.RoundTrip.contentEq_trans._unary -->
<g id="node4" class="node">
<title>L4YAML.Proofs.RoundTrip.contentEq_trans._unary</title>
<g id="a_node4"><a xlink:href="../../../api/L4YAML/Proofs/RoundTrip.html#L4YAML.Proofs.RoundTrip.contentEq_trans._unary" xlink:title="RoundTrip.contentEq_trans._unary\n(RoundTrip)" target="_blank">
<ellipse fill="#d4edda" stroke="#28a745" cx="134.79" cy="-108" rx="118.59" ry="21.43"/>
<text text-anchor="middle" x="134.79" y="-111" font-family="Helvetica" font-size="10.00">RoundTrip.contentEq_trans._unary</text>
<text text-anchor="middle" x="134.79" y="-100" font-family="Helvetica" font-size="10.00">(RoundTrip)</text>
</a>
</g>
</g>
<!-- L4YAML.Proofs.RoundTrip.contentEq_trans._unary&#45;&gt;L4YAML.YamlValue -->
<g id="edge5" class="edge">
<title>L4YAML.Proofs.RoundTrip.contentEq_trans._unary&#45;&gt;L4YAML.YamlValue</title>
<path fill="none" stroke="#999999" stroke-dasharray="1,5" d="M235.08,-119.42C247.36,-120.49 259.75,-121.39 271.59,-122 397.89,-128.49 431.23,-141.78 556.14,-122 563.77,-120.79 571.75,-118.75 579.28,-116.44"/>
<polygon fill="#999999" stroke="#999999" points="580.18,-117.99 584.42,-114.81 579.12,-114.66 580.18,-117.99"/>
</g>
<!-- L4YAML.Proofs.RoundTrip.contentEq_trans._unary&#45;&gt;L4YAML.Emit.contentEq -->
<g id="edge4" class="edge">
<title>L4YAML.Proofs.RoundTrip.contentEq_trans._unary&#45;&gt;L4YAML.Emit.contentEq</title>
<path fill="none" stroke="#999999" stroke-dasharray="1,5" d="M244.77,-116.25C351.7,-122.27 505.83,-124.74 556.14,-94 563.95,-89.23 559.67,-82.47 566.14,-76 568.18,-73.95 570.41,-72.02 572.76,-70.19"/>
<polygon fill="#999999" stroke="#999999" points="574.09,-71.39 577.09,-67.03 572.02,-68.56 574.09,-71.39"/>
</g>
<!-- L4YAML.Proofs.RoundTrip.contentEq_trans._unary&#45;&gt;L4YAML.Proofs.RoundTrip.contentEq_trans -->
<g id="edge3" class="edge">
<title>L4YAML.Proofs.RoundTrip.contentEq_trans._unary&#45;&gt;L4YAML.Proofs.RoundTrip.contentEq_trans</title>
<path fill="none" stroke="#28a745" d="M202.34,-90.43C239.88,-80.51 286.89,-68.1 325.75,-57.84"/>
<polygon fill="#28a745" stroke="#28a745" points="326.76,-60.1 332.91,-55.95 325.51,-55.37 326.76,-60.1"/>
</g>
</g>
</svg>
