<?xml version="1.0" encoding="UTF-8" standalone="no"?>
<!DOCTYPE svg PUBLIC "-//W3C//DTD SVG 1.1//EN"
 "http://www.w3.org/Graphics/SVG/1.1/DTD/svg11.dtd">
<!-- Generated by graphviz version 2.44.0 (0)
 -->
<!-- Title: CouplingBridge.listByteSize_append Pages: 1 -->
<svg width="884pt" height="398pt"
 viewBox="0.00 0.00 883.71 398.00" xmlns="http://www.w3.org/2000/svg" xmlns:xlink="http://www.w3.org/1999/xlink">
<g id="graph0" class="graph" transform="scale(1 1) rotate(0) translate(4 394)">
<title>CouplingBridge.listByteSize_append</title>
<polygon fill="white" stroke="transparent" points="-4,4 -4,-394 879.71,-394 879.71,4 -4,4"/>
<text text-anchor="middle" x="437.86" y="-375.6" font-family="Helvetica Bold" font-size="13.00">CouplingBridge.listByteSize_append</text>
<text text-anchor="middle" x="437.86" y="-361.6" font-family="Helvetica Bold" font-size="13.00">(heuristic: used by 6 proofs)</text>
<text text-anchor="middle" x="437.86" y="-347.6" font-family="Helvetica Bold" font-size="13.00">(L4YAML.Proofs.CouplingBridge)</text>
<g id="clust1" class="cluster">
<title>cluster_functions</title>
<polygon fill="none" stroke="#4a90d9" stroke-dasharray="5,2" points="714.71,-211 714.71,-285 867.71,-285 867.71,-211 714.71,-211"/>
<text text-anchor="middle" x="791.21" y="-270.6" font-family="Helvetica Bold" font-size="13.00" fill="#4a90d9">Functions</text>
</g>
<g id="clust2" class="cluster">
<title>cluster_key</title>
<polygon fill="none" stroke="#d4a017" stroke-dasharray="5,2" points="363.2,-137 363.2,-219 669.71,-219 669.71,-137 363.2,-137"/>
<text text-anchor="middle" x="516.46" y="-204.6" font-family="Helvetica Bold" font-size="13.00" fill="#d4a017">Key Theorem</text>
</g>
<g id="clust3" class="cluster">
<title>cluster_proofs</title>
<polygon fill="none" stroke="#28a745" stroke-dasharray="5,2" points="8,-252 8,-332 342.2,-332 342.2,-252 8,-252"/>
<text text-anchor="middle" x="175.1" y="-317.6" font-family="Helvetica Bold" font-size="13.00" fill="#28a745">Proof Dependencies</text>
</g>
<g id="clust4" class="cluster">
<title>cluster_stdlib</title>
<polygon fill="none" stroke="#e67e22" stroke-dasharray="5,2" points="89.98,-8 89.98,-244 260.21,-244 260.21,-8 89.98,-8"/>
<text text-anchor="middle" x="175.1" y="-229.6" font-family="Helvetica Bold" font-size="13.00" fill="#e67e22">Stdlib Lemmas</text>
</g>
<!-- L4YAML.Proofs.CouplingBridge.listByteSize -->
<g id="node1" class="node">
<title>L4YAML.Proofs.CouplingBridge.listByteSize</title>
<g id="a_node1"><a xlink:href="../../../api/L4YAML/Proofs/CouplingBridge.html#L4YAML.Proofs.CouplingBridge.listByteSize" xlink:title="CouplingBridge.listByteSize\n(def)" target="_blank">
<polygon fill="#dce9f7" stroke="#4a90d9" points="859.71,-255 722.71,-255 722.71,-219 859.71,-219 859.71,-255"/>
<text text-anchor="middle" x="791.21" y="-240" font-family="Helvetica" font-size="10.00">CouplingBridge.listByteSize</text>
<text text-anchor="middle" x="791.21" y="-229" font-family="Helvetica" font-size="10.00">(def)</text>
</a>
</g>
</g>
<!-- L4YAML.Proofs.CouplingBridge.listByteSize_append -->
<g id="node2" class="node">
<title>L4YAML.Proofs.CouplingBridge.listByteSize_append</title>
<g id="a_node2"><a xlink:href="../../../api/L4YAML/Proofs/CouplingBridge.html#L4YAML.Proofs.CouplingBridge.listByteSize_append" xlink:title="CouplingBridge.listByteSize_append" target="_blank">
<polygon fill="#fff3cd" stroke="#d4a017" points="657.48,-159.54 657.48,-174.46 574.87,-185 458.04,-185 375.43,-174.46 375.43,-159.54 458.04,-149 574.87,-149 657.48,-159.54"/>
<polygon fill="none" stroke="#d4a017" points="661.47,-156.02 661.47,-177.98 575.12,-189 457.79,-189 371.44,-177.98 371.44,-156.02 457.79,-145 575.12,-145 661.47,-156.02"/>
<text text-anchor="middle" x="516.46" y="-163.9" font-family="Helvetica" font-size="12.00">CouplingBridge.listByteSize_append</text>
</a>
</g>
</g>
<!-- L4YAML.Proofs.CouplingBridge.listByteSize_append&#45;&gt;L4YAML.Proofs.CouplingBridge.listByteSize -->
<g id="edge1" class="edge">
<title>L4YAML.Proofs.CouplingBridge.listByteSize_append&#45;&gt;L4YAML.Proofs.CouplingBridge.listByteSize</title>
<path fill="none" stroke="#4a90d9" stroke-width="2" d="M594.16,-186.69C632.13,-196.43 677.8,-208.15 715.5,-217.82"/>
<polygon fill="#4a90d9" stroke="#4a90d9" stroke-width="2" points="715.05,-220.24 722.44,-219.61 716.27,-215.49 715.05,-220.24"/>
<text text-anchor="middle" x="692.21" y="-216.6" font-family="Times-Roman" font-size="8.00" fill="#4a90d9">about</text>
</g>
<!-- L4YAML.Proofs.CouplingBridge.listByteSize_append._proof_1_4 -->
<g id="node3" class="node">
<title>L4YAML.Proofs.CouplingBridge.listByteSize_append._proof_1_4</title>
<g id="a_node3"><a xlink:href="../../../api/L4YAML/Proofs/CouplingBridge.html#L4YAML.Proofs.CouplingBridge.listByteSize_append._proof_1_4" xlink:title="CouplingBridge.listByteSize_append._proof_1_4\n(CouplingBridge)" target="_blank">
<ellipse fill="#d4edda" stroke="#28a745" cx="175.1" cy="-281" rx="159.2" ry="21.43"/>
<text text-anchor="middle" x="175.1" y="-284" font-family="Helvetica" font-size="10.00">CouplingBridge.listByteSize_append._proof_1_4</text>
<text text-anchor="middle" x="175.1" y="-273" font-family="Helvetica" font-size="10.00">(CouplingBridge)</text>
</a>
</g>
</g>
<!-- L4YAML.Proofs.CouplingBridge.listByteSize_append._proof_1_4&#45;&gt;L4YAML.Proofs.CouplingBridge.listByteSize -->
<g id="edge7" class="edge">
<title>L4YAML.Proofs.CouplingBridge.listByteSize_append._proof_1_4&#45;&gt;L4YAML.Proofs.CouplingBridge.listByteSize</title>
<path fill="none" stroke="#999999" stroke-dasharray="1,5" d="M315.83,-270.99C440.67,-262.04 618.62,-249.29 717.27,-242.23"/>
<polygon fill="#999999" stroke="#999999" points="717.62,-243.96 722.49,-241.85 717.37,-240.46 717.62,-243.96"/>
</g>
<!-- L4YAML.Proofs.CouplingBridge.listByteSize_append._proof_1_4&#45;&gt;L4YAML.Proofs.CouplingBridge.listByteSize_append -->
<g id="edge2" class="edge">
<title>L4YAML.Proofs.CouplingBridge.listByteSize_append._proof_1_4&#45;&gt;L4YAML.Proofs.CouplingBridge.listByteSize_append</title>
<path fill="none" stroke="#28a745" d="M278.12,-264.77C299.53,-260.24 321.8,-254.68 342.2,-248 386.9,-233.35 435.19,-210.1 469.41,-192.27"/>
<polygon fill="#28a745" stroke="#28a745" points="470.57,-194.42 475.63,-189 468.29,-190.08 470.57,-194.42"/>
</g>
<!-- eq_self -->
<g id="node4" class="node">
<title>eq_self</title>
<g id="a_node4"><a xlink:href="../../../api/Init/SimpLemmas.html#eq_self" xlink:title="eq_self" target="_blank">
<ellipse fill="#fdebd0" stroke="#e67e22" cx="175.1" cy="-196" rx="28.01" ry="18"/>
<text text-anchor="middle" x="175.1" y="-193.5" font-family="Helvetica" font-size="10.00">eq_self</text>
</a>
</g>
</g>
<!-- eq_self&#45;&gt;L4YAML.Proofs.CouplingBridge.listByteSize_append -->
<g id="edge3" class="edge">
<title>eq_self&#45;&gt;L4YAML.Proofs.CouplingBridge.listByteSize_append</title>
<path fill="none" stroke="#e67e22" stroke-width="2" d="M203.3,-193.68C239.79,-190.56 307.33,-184.79 370.28,-179.41"/>
<polygon fill="#e67e22" stroke="#e67e22" stroke-width="2" points="370.77,-181.82 377.53,-178.79 370.35,-176.94 370.77,-181.82"/>
</g>
<!-- Decidable.byContradiction -->
<g id="node5" class="node">
<title>Decidable.byContradiction</title>
<g id="a_node5"><a xlink:href="../../../api/Init/Core.html#Decidable.byContradiction" xlink:title="Decidable.byContradiction" target="_blank">
<ellipse fill="#fdebd0" stroke="#e67e22" cx="175.1" cy="-142" rx="77.23" ry="18"/>
<text text-anchor="middle" x="175.1" y="-139.5" font-family="Helvetica" font-size="10.00">Decidable.byContradiction</text>
</a>
</g>
</g>
<!-- Decidable.byContradiction&#45;&gt;L4YAML.Proofs.CouplingBridge.listByteSize_append -->
<g id="edge4" class="edge">
<title>Decidable.byContradiction&#45;&gt;L4YAML.Proofs.CouplingBridge.listByteSize_append</title>
<path fill="none" stroke="#e67e22" stroke-width="2" d="M248.9,-147.36C282.54,-149.84 323.83,-152.88 363.77,-155.83"/>
<polygon fill="#e67e22" stroke="#e67e22" stroke-width="2" points="364.05,-158.3 371.21,-156.37 364.41,-153.42 364.05,-158.3"/>
</g>
<!-- of_eq_true -->
<g id="node6" class="node">
<title>of_eq_true</title>
<g id="a_node6"><a xlink:href="../../../api/Init/SimpLemmas.html#of_eq_true" xlink:title="of_eq_true" target="_blank">
<ellipse fill="#fdebd0" stroke="#e67e22" cx="175.1" cy="-88" rx="36.49" ry="18"/>
<text text-anchor="middle" x="175.1" y="-85.5" font-family="Helvetica" font-size="10.00">of_eq_true</text>
</a>
</g>
</g>
<!-- of_eq_true&#45;&gt;L4YAML.Proofs.CouplingBridge.listByteSize_append -->
<g id="edge5" class="edge">
<title>of_eq_true&#45;&gt;L4YAML.Proofs.CouplingBridge.listByteSize_append</title>
<path fill="none" stroke="#e67e22" stroke-width="2" d="M210.71,-92.29C244.49,-96.78 297.22,-104.64 342.2,-115 376.34,-122.86 413.63,-133.75 444.84,-143.53"/>
<polygon fill="#e67e22" stroke="#e67e22" stroke-width="2" points="444.4,-145.96 451.81,-145.73 445.87,-141.29 444.4,-145.96"/>
</g>
<!-- Nat.zero_add -->
<g id="node7" class="node">
<title>Nat.zero_add</title>
<g id="a_node7"><a xlink:href="../../../api/Init/Data/Nat/Basic.html#Nat.zero_add" xlink:title="Nat.zero_add" target="_blank">
<ellipse fill="#fdebd0" stroke="#e67e22" cx="175.1" cy="-34" rx="43.62" ry="18"/>
<text text-anchor="middle" x="175.1" y="-31.5" font-family="Helvetica" font-size="10.00">Nat.zero_add</text>
</a>
</g>
</g>
<!-- Nat.zero_add&#45;&gt;L4YAML.Proofs.CouplingBridge.listByteSize_append -->
<g id="edge6" class="edge">
<title>Nat.zero_add&#45;&gt;L4YAML.Proofs.CouplingBridge.listByteSize_append</title>
<path fill="none" stroke="#e67e22" stroke-width="2" d="M218.54,-36.36C252.81,-39.34 301.79,-46.02 342.2,-61 394.18,-80.27 447.66,-115.85 481.19,-140.44"/>
<polygon fill="#e67e22" stroke="#e67e22" stroke-width="2" points="480.13,-142.7 487.21,-144.9 483.04,-138.76 480.13,-142.7"/>
</g>
</g>
</svg>
