<?xml version="1.0" encoding="UTF-8" standalone="no"?>
<!DOCTYPE svg PUBLIC "-//W3C//DTD SVG 1.1//EN"
 "http://www.w3.org/Graphics/SVG/1.1/DTD/svg11.dtd">
<!-- Generated by graphviz version 2.44.0 (0)
 -->
<!-- Title: CouplingBridge.advance_explicitKeyLine Pages: 1 -->
<svg width="567pt" height="256pt"
 viewBox="0.00 0.00 567.50 256.00" xmlns="http://www.w3.org/2000/svg" xmlns:xlink="http://www.w3.org/1999/xlink">
<g id="graph0" class="graph" transform="scale(1 1) rotate(0) translate(4 252)">
<title>CouplingBridge.advance_explicitKeyLine</title>
<polygon fill="white" stroke="transparent" points="-4,4 -4,-252 563.5,-252 563.5,4 -4,4"/>
<text text-anchor="middle" x="279.75" y="-233.6" font-family="Helvetica Bold" font-size="13.00">CouplingBridge.advance_explicitKeyLine</text>
<text text-anchor="middle" x="279.75" y="-219.6" font-family="Helvetica Bold" font-size="13.00">(heuristic: used by 14 proofs)</text>
<text text-anchor="middle" x="279.75" y="-205.6" font-family="Helvetica Bold" font-size="13.00">(L4YAML.Proofs.CouplingBridge)</text>
<g id="clust1" class="cluster">
<title>cluster_functions</title>
<polygon fill="none" stroke="#4a90d9" stroke-dasharray="5,2" points="391.5,-8 391.5,-190 551.5,-190 551.5,-8 391.5,-8"/>
<text text-anchor="middle" x="471.5" y="-175.6" font-family="Helvetica Bold" font-size="13.00" fill="#4a90d9">Functions</text>
</g>
<g id="clust2" class="cluster">
<title>cluster_key</title>
<polygon fill="none" stroke="#d4a017" stroke-dasharray="5,2" points="8,-58 8,-140 346.5,-140 346.5,-58 8,-58"/>
<text text-anchor="middle" x="177.25" y="-125.6" font-family="Helvetica Bold" font-size="13.00" fill="#d4a017">Key Theorem</text>
</g>
<!-- L4YAML.Scanner.ScannerState.advance -->
<g id="node1" class="node">
<title>L4YAML.Scanner.ScannerState.advance</title>
<polygon fill="#dce9f7" stroke="#4a90d9" points="529,-160 414,-160 414,-124 529,-124 529,-160"/>
<text text-anchor="middle" x="471.5" y="-145" font-family="Helvetica" font-size="10.00">ScannerState.advance</text>
<text text-anchor="middle" x="471.5" y="-134" font-family="Helvetica" font-size="10.00">(def)</text>
</g>
<!-- L4YAML.Scanner.ScannerState.explicitKeyLine -->
<g id="node2" class="node">
<title>L4YAML.Scanner.ScannerState.explicitKeyLine</title>
<polygon fill="#dce9f7" stroke="#4a90d9" points="543.5,-106 399.5,-106 399.5,-70 543.5,-70 543.5,-106"/>
<text text-anchor="middle" x="471.5" y="-91" font-family="Helvetica" font-size="10.00">ScannerState.explicitKeyLine</text>
<text text-anchor="middle" x="471.5" y="-80" font-family="Helvetica" font-size="10.00">(def)</text>
</g>
<!-- L4YAML.Scanner.ScannerState -->
<g id="node3" class="node">
<title>L4YAML.Scanner.ScannerState</title>
<polygon fill="#dce9f7" stroke="#4a90d9" points="509.5,-52 433.5,-52 433.5,-16 509.5,-16 509.5,-52"/>
<text text-anchor="middle" x="471.5" y="-37" font-family="Helvetica" font-size="10.00">ScannerState</text>
<text text-anchor="middle" x="471.5" y="-26" font-family="Helvetica" font-size="10.00">(inductive)</text>
</g>
<!-- L4YAML.Proofs.CouplingBridge.advance_explicitKeyLine -->
<g id="node4" class="node">
<title>L4YAML.Proofs.CouplingBridge.advance_explicitKeyLine</title>
<polygon fill="#fff3cd" stroke="#d4a017" points="334.74,-80.54 334.74,-95.46 242.48,-106 112.01,-106 19.76,-95.46 19.76,-80.54 112.01,-70 242.48,-70 334.74,-80.54"/>
<polygon fill="none" stroke="#d4a017" points="338.75,-76.98 338.75,-99.02 242.71,-110 111.78,-110 15.75,-99.02 15.75,-76.98 111.78,-66 242.71,-66 338.75,-76.98"/>
<text text-anchor="middle" x="177.25" y="-84.9" font-family="Helvetica" font-size="12.00">CouplingBridge.advance_explicitKeyLine</text>
</g>
<!-- L4YAML.Proofs.CouplingBridge.advance_explicitKeyLine&#45;&gt;L4YAML.Scanner.ScannerState.advance -->
<g id="edge1" class="edge">
<title>L4YAML.Proofs.CouplingBridge.advance_explicitKeyLine&#45;&gt;L4YAML.Scanner.ScannerState.advance</title>
<path fill="none" stroke="#4a90d9" stroke-width="2" d="M276.78,-106.21C319.68,-114.13 368.73,-123.2 406.73,-130.22"/>
<polygon fill="#4a90d9" stroke="#4a90d9" stroke-width="2" points="406.37,-132.64 413.7,-131.5 407.26,-127.82 406.37,-132.64"/>
<text text-anchor="middle" x="369" y="-126.6" font-family="Times-Roman" font-size="8.00" fill="#4a90d9">about</text>
</g>
<!-- L4YAML.Proofs.CouplingBridge.advance_explicitKeyLine&#45;&gt;L4YAML.Scanner.ScannerState.explicitKeyLine -->
<g id="edge2" class="edge">
<title>L4YAML.Proofs.CouplingBridge.advance_explicitKeyLine&#45;&gt;L4YAML.Scanner.ScannerState.explicitKeyLine</title>
<path fill="none" stroke="#4a90d9" stroke-width="2" d="M338.91,-88C357.36,-88 375.5,-88 392.14,-88"/>
<polygon fill="#4a90d9" stroke="#4a90d9" stroke-width="2" points="392.17,-90.45 399.17,-88 392.17,-85.55 392.17,-90.45"/>
<text text-anchor="middle" x="369" y="-90.6" font-family="Times-Roman" font-size="8.00" fill="#4a90d9">about</text>
</g>
<!-- L4YAML.Proofs.CouplingBridge.advance_explicitKeyLine&#45;&gt;L4YAML.Scanner.ScannerState -->
<g id="edge3" class="edge">
<title>L4YAML.Proofs.CouplingBridge.advance_explicitKeyLine&#45;&gt;L4YAML.Scanner.ScannerState</title>
<path fill="none" stroke="#4a90d9" stroke-width="2" d="M276.78,-69.79C327.48,-60.43 386.76,-49.47 426.26,-42.17"/>
<polygon fill="#4a90d9" stroke="#4a90d9" stroke-width="2" points="426.96,-44.54 433.4,-40.85 426.07,-39.72 426.96,-44.54"/>
<text text-anchor="middle" x="369" y="-56.6" font-family="Times-Roman" font-size="8.00" fill="#4a90d9">about</text>
</g>
</g>
</svg>
