<?xml version="1.0" encoding="UTF-8" standalone="no"?>
<!DOCTYPE svg PUBLIC "-//W3C//DTD SVG 1.1//EN"
 "http://www.w3.org/Graphics/SVG/1.1/DTD/svg11.dtd">
<!-- Generated by graphviz version 2.44.0 (0)
 -->
<!-- Title: CouplingBridge.not_isLineBreak_gives_SNbChar Pages: 1 -->
<svg width="967pt" height="310pt"
 viewBox="0.00 0.00 966.80 310.00" xmlns="http://www.w3.org/2000/svg" xmlns:xlink="http://www.w3.org/1999/xlink">
<g id="graph0" class="graph" transform="scale(1 1) rotate(0) translate(4 306)">
<title>CouplingBridge.not_isLineBreak_gives_SNbChar</title>
<polygon fill="white" stroke="transparent" points="-4,4 -4,-306 962.8,-306 962.8,4 -4,4"/>
<text text-anchor="middle" x="479.4" y="-287.6" font-family="Helvetica Bold" font-size="13.00">CouplingBridge.not_isLineBreak_gives_SNbChar</text>
<text text-anchor="middle" x="479.4" y="-273.6" font-family="Helvetica Bold" font-size="13.00">(heuristic: used by 11 proofs)</text>
<text text-anchor="middle" x="479.4" y="-259.6" font-family="Helvetica Bold" font-size="13.00">(L4YAML.Proofs.CouplingBridge)</text>
<g id="clust1" class="cluster">
<title>cluster_functions</title>
<polygon fill="none" stroke="#4a90d9" stroke-dasharray="5,2" points="776.8,-8 776.8,-244 950.8,-244 950.8,-8 776.8,-8"/>
<text text-anchor="middle" x="863.8" y="-229.6" font-family="Helvetica Bold" font-size="13.00" fill="#4a90d9">Functions</text>
</g>
<g id="clust2" class="cluster">
<title>cluster_key</title>
<polygon fill="none" stroke="#d4a017" stroke-dasharray="5,2" points="330.67,-67 330.67,-149 731.8,-149 731.8,-67 330.67,-67"/>
<text text-anchor="middle" x="531.24" y="-134.6" font-family="Helvetica Bold" font-size="13.00" fill="#d4a017">Key Theorem</text>
</g>
<g id="clust3" class="cluster">
<title>cluster_proofs</title>
<polygon fill="none" stroke="#28a745" stroke-dasharray="5,2" points="8,-138 8,-218 309.67,-218 309.67,-138 8,-138"/>
<text text-anchor="middle" x="158.84" y="-203.6" font-family="Helvetica Bold" font-size="13.00" fill="#28a745">Proof Dependencies</text>
</g>
<!-- L4YAML.CharPredicates.isLineBreakBool -->
<g id="node1" class="node">
<title>L4YAML.CharPredicates.isLineBreakBool</title>
<g id="a_node1"><a xlink:href="../../../api/L4YAML/CharPredicates.html#L4YAML.CharPredicates.isLineBreakBool" xlink:title="CharPredicates.isLineBreakBool\n(def)" target="_blank">
<polygon fill="#dce9f7" stroke="#4a90d9" points="942.8,-160 784.8,-160 784.8,-124 942.8,-124 942.8,-160"/>
<text text-anchor="middle" x="863.8" y="-145" font-family="Helvetica" font-size="10.00">CharPredicates.isLineBreakBool</text>
<text text-anchor="middle" x="863.8" y="-134" font-family="Helvetica" font-size="10.00">(def)</text>
</a>
</g>
</g>
<!-- L4YAML.Surface.SurfPos.mk -->
<g id="node2" class="node">
<title>L4YAML.Surface.SurfPos.mk</title>
<g id="a_node2"><a xlink:href="../../../api/L4YAML/Surface/Combinators.html#L4YAML.Surface.SurfPos.mk" xlink:title="Surface.SurfPos.mk\n(ctor)" target="_blank">
<polygon fill="#dce9f7" stroke="#4a90d9" points="917.3,-52 810.3,-52 810.3,-16 917.3,-16 917.3,-52"/>
<text text-anchor="middle" x="863.8" y="-37" font-family="Helvetica" font-size="10.00">Surface.SurfPos.mk</text>
<text text-anchor="middle" x="863.8" y="-26" font-family="Helvetica" font-size="10.00">(ctor)</text>
</a>
</g>
</g>
<!-- L4YAML.Surface.isNbChar -->
<g id="node3" class="node">
<title>L4YAML.Surface.isNbChar</title>
<g id="a_node3"><a xlink:href="../../../api/L4YAML/Surface/Basic.html#L4YAML.Surface.isNbChar" xlink:title="Surface.isNbChar\n(def)" target="_blank">
<polygon fill="#dce9f7" stroke="#4a90d9" points="911.3,-214 816.3,-214 816.3,-178 911.3,-178 911.3,-214"/>
<text text-anchor="middle" x="863.8" y="-199" font-family="Helvetica" font-size="10.00">Surface.isNbChar</text>
<text text-anchor="middle" x="863.8" y="-188" font-family="Helvetica" font-size="10.00">(def)</text>
</a>
</g>
</g>
<!-- L4YAML.Surface.GChar -->
<g id="node4" class="node">
<title>L4YAML.Surface.GChar</title>
<g id="a_node4"><a xlink:href="../../../api/L4YAML/Surface/Combinators.html#L4YAML.Surface.GChar" xlink:title="Surface.GChar\n(inductive)" target="_blank">
<polygon fill="#dce9f7" stroke="#4a90d9" points="905.3,-106 822.3,-106 822.3,-70 905.3,-70 905.3,-106"/>
<text text-anchor="middle" x="863.8" y="-91" font-family="Helvetica" font-size="10.00">Surface.GChar</text>
<text text-anchor="middle" x="863.8" y="-80" font-family="Helvetica" font-size="10.00">(inductive)</text>
</a>
</g>
</g>
<!-- L4YAML.Proofs.CouplingBridge.not_isLineBreak_gives_SNbChar -->
<g id="node5" class="node">
<title>L4YAML.Proofs.CouplingBridge.not_isLineBreak_gives_SNbChar</title>
<g id="a_node5"><a xlink:href="../../../api/L4YAML/Proofs/CouplingBridge.html#L4YAML.Proofs.CouplingBridge.not_isLineBreak_gives_SNbChar" xlink:title="CouplingBridge.not_isLineBreak_gives_SNbChar" target="_blank">
<polygon fill="#fff3cd" stroke="#d4a017" points="719.86,-89.54 719.86,-104.46 609.37,-115 453.1,-115 342.61,-104.46 342.61,-89.54 453.1,-79 609.37,-79 719.86,-89.54"/>
<polygon fill="none" stroke="#d4a017" points="723.87,-85.91 723.87,-108.09 609.56,-119 452.91,-119 338.61,-108.09 338.61,-85.91 452.91,-75 609.56,-75 723.87,-85.91"/>
<text text-anchor="middle" x="531.24" y="-93.9" font-family="Helvetica" font-size="12.00">CouplingBridge.not_isLineBreak_gives_SNbChar</text>
</a>
</g>
</g>
<!-- L4YAML.Proofs.CouplingBridge.not_isLineBreak_gives_SNbChar&#45;&gt;L4YAML.CharPredicates.isLineBreakBool -->
<g id="edge3" class="edge">
<title>L4YAML.Proofs.CouplingBridge.not_isLineBreak_gives_SNbChar&#45;&gt;L4YAML.CharPredicates.isLineBreakBool</title>
<path fill="none" stroke="#4a90d9" stroke-width="2" d="M724.08,-105.49C738.59,-107.29 752.96,-109.43 766.8,-112 767.84,-112.19 781.78,-116.52 798.73,-121.83"/>
<polygon fill="#4a90d9" stroke="#4a90d9" stroke-width="2" points="798.21,-124.23 805.62,-123.98 799.67,-119.55 798.21,-124.23"/>
<text text-anchor="middle" x="754.3" y="-114.6" font-family="Times-Roman" font-size="8.00" fill="#4a90d9">about</text>
</g>
<!-- L4YAML.Proofs.CouplingBridge.not_isLineBreak_gives_SNbChar&#45;&gt;L4YAML.Surface.SurfPos.mk -->
<g id="edge4" class="edge">
<title>L4YAML.Proofs.CouplingBridge.not_isLineBreak_gives_SNbChar&#45;&gt;L4YAML.Surface.SurfPos.mk</title>
<path fill="none" stroke="#4a90d9" stroke-width="2" d="M635.02,-77.41C690.18,-66.9 756.24,-54.31 802.98,-45.4"/>
<polygon fill="#4a90d9" stroke="#4a90d9" stroke-width="2" points="803.6,-47.78 810.02,-44.06 802.68,-42.96 803.6,-47.78"/>
<text text-anchor="middle" x="754.3" y="-59.6" font-family="Times-Roman" font-size="8.00" fill="#4a90d9">about</text>
</g>
<!-- L4YAML.Proofs.CouplingBridge.not_isLineBreak_gives_SNbChar&#45;&gt;L4YAML.Surface.isNbChar -->
<g id="edge2" class="edge">
<title>L4YAML.Proofs.CouplingBridge.not_isLineBreak_gives_SNbChar&#45;&gt;L4YAML.Surface.isNbChar</title>
<path fill="none" stroke="#4a90d9" stroke-width="2" d="M606.01,-119.09C667.69,-137.57 754.19,-163.47 809.37,-180"/>
<polygon fill="#4a90d9" stroke="#4a90d9" stroke-width="2" points="808.86,-182.4 816.27,-182.06 810.27,-177.71 808.86,-182.4"/>
<text text-anchor="middle" x="754.3" y="-169.6" font-family="Times-Roman" font-size="8.00" fill="#4a90d9">about</text>
</g>
<!-- L4YAML.Proofs.CouplingBridge.not_isLineBreak_gives_SNbChar&#45;&gt;L4YAML.Surface.GChar -->
<g id="edge1" class="edge">
<title>L4YAML.Proofs.CouplingBridge.not_isLineBreak_gives_SNbChar&#45;&gt;L4YAML.Surface.GChar</title>
<path fill="none" stroke="#4a90d9" stroke-width="2" d="M676.37,-81.37C706.24,-79.58 737.53,-78.78 766.8,-80 782.45,-80.65 799.5,-81.9 814.83,-83.21"/>
<polygon fill="#4a90d9" stroke="#4a90d9" stroke-width="2" points="815.02,-85.69 822.21,-83.87 815.45,-80.81 815.02,-85.69"/>
<text text-anchor="middle" x="754.3" y="-82.6" font-family="Times-Roman" font-size="8.00" fill="#4a90d9">about</text>
</g>
<!-- L4YAML.Proofs.CouplingBridge.not_isLineBreak_isNbChar -->
<g id="node6" class="node">
<title>L4YAML.Proofs.CouplingBridge.not_isLineBreak_isNbChar</title>
<g id="a_node6"><a xlink:href="../../../api/L4YAML/Proofs/CouplingBridge.html#L4YAML.Proofs.CouplingBridge.not_isLineBreak_isNbChar" xlink:title="CouplingBridge.not_isLineBreak_isNbChar\n(CouplingBridge)" target="_blank">
<ellipse fill="#d4edda" stroke="#28a745" cx="158.84" cy="-167" rx="142.67" ry="21.43"/>
<text text-anchor="middle" x="158.84" y="-170" font-family="Helvetica" font-size="10.00">CouplingBridge.not_isLineBreak_isNbChar</text>
<text text-anchor="middle" x="158.84" y="-159" font-family="Helvetica" font-size="10.00">(CouplingBridge)</text>
</a>
</g>
</g>
<!-- L4YAML.Proofs.CouplingBridge.not_isLineBreak_isNbChar&#45;&gt;L4YAML.CharPredicates.isLineBreakBool -->
<g id="edge7" class="edge">
<title>L4YAML.Proofs.CouplingBridge.not_isLineBreak_isNbChar&#45;&gt;L4YAML.CharPredicates.isLineBreakBool</title>
<path fill="none" stroke="#999999" stroke-dasharray="1,5" d="M301.65,-167.37C424.77,-166.83 607.75,-163.92 766.8,-153 771.01,-152.71 775.32,-152.37 779.67,-152"/>
<polygon fill="#999999" stroke="#999999" points="779.97,-153.73 784.79,-151.54 779.65,-150.24 779.97,-153.73"/>
</g>
<!-- L4YAML.Proofs.CouplingBridge.not_isLineBreak_isNbChar&#45;&gt;L4YAML.Surface.isNbChar -->
<g id="edge6" class="edge">
<title>L4YAML.Proofs.CouplingBridge.not_isLineBreak_isNbChar&#45;&gt;L4YAML.Surface.isNbChar</title>
<path fill="none" stroke="#999999" stroke-dasharray="1,5" d="M277.17,-178.93C291.48,-180.11 305.9,-181.18 319.67,-182 500.05,-192.78 714.61,-195.26 811.19,-195.83"/>
<polygon fill="#999999" stroke="#999999" points="811.25,-197.58 816.26,-195.86 811.27,-194.08 811.25,-197.58"/>
</g>
<!-- L4YAML.Proofs.CouplingBridge.not_isLineBreak_isNbChar&#45;&gt;L4YAML.Proofs.CouplingBridge.not_isLineBreak_gives_SNbChar -->
<g id="edge5" class="edge">
<title>L4YAML.Proofs.CouplingBridge.not_isLineBreak_isNbChar&#45;&gt;L4YAML.Proofs.CouplingBridge.not_isLineBreak_gives_SNbChar</title>
<path fill="none" stroke="#28a745" d="M248.09,-150.32C299.59,-140.59 365.03,-128.22 419.92,-117.85"/>
<polygon fill="#28a745" stroke="#28a745" points="420.47,-120.24 426.9,-116.53 419.56,-115.42 420.47,-120.24"/>
</g>
</g>
</svg>
