<?xml version="1.0" encoding="UTF-8" standalone="no"?>
<!DOCTYPE svg PUBLIC "-//W3C//DTD SVG 1.1//EN"
 "http://www.w3.org/Graphics/SVG/1.1/DTD/svg11.dtd">
<!-- Generated by graphviz version 2.44.0 (0)
 -->
<!-- Title: CouplingBridge.ScannerSurfCorr.input_prefix Pages: 1 -->
<svg width="613pt" height="472pt"
 viewBox="0.00 0.00 613.15 472.00" xmlns="http://www.w3.org/2000/svg" xmlns:xlink="http://www.w3.org/1999/xlink">
<g id="graph0" class="graph" transform="scale(1 1) rotate(0) translate(4 468)">
<title>CouplingBridge.ScannerSurfCorr.input_prefix</title>
<polygon fill="white" stroke="transparent" points="-4,4 -4,-468 609.15,-468 609.15,4 -4,4"/>
<text text-anchor="middle" x="302.57" y="-449.6" font-family="Helvetica Bold" font-size="13.00">CouplingBridge.ScannerSurfCorr.input_prefix</text>
<text text-anchor="middle" x="302.57" y="-435.6" font-family="Helvetica Bold" font-size="13.00">(heuristic: used by 81 proofs)</text>
<text text-anchor="middle" x="302.57" y="-421.6" font-family="Helvetica Bold" font-size="13.00">(L4YAML.Proofs.CouplingBridge)</text>
<g id="clust1" class="cluster">
<title>cluster_functions</title>
<polygon fill="none" stroke="#4a90d9" stroke-dasharray="5,2" points="422.15,-8 422.15,-406 597.15,-406 597.15,-8 422.15,-8"/>
<text text-anchor="middle" x="509.65" y="-391.6" font-family="Helvetica Bold" font-size="13.00" fill="#4a90d9">Functions</text>
</g>
<g id="clust2" class="cluster">
<title>cluster_key</title>
<polygon fill="none" stroke="#d4a017" stroke-dasharray="5,2" points="8,-166 8,-248 377.15,-248 377.15,-166 8,-166"/>
<text text-anchor="middle" x="192.57" y="-233.6" font-family="Helvetica Bold" font-size="13.00" fill="#d4a017">Key Theorem</text>
</g>
<!-- L4YAML.Scanner.ScannerState.input -->
<g id="node1" class="node">
<title>L4YAML.Scanner.ScannerState.input</title>
<polygon fill="#dce9f7" stroke="#4a90d9" points="559.65,-376 459.65,-376 459.65,-340 559.65,-340 559.65,-376"/>
<text text-anchor="middle" x="509.65" y="-361" font-family="Helvetica" font-size="10.00">ScannerState.input</text>
<text text-anchor="middle" x="509.65" y="-350" font-family="Helvetica" font-size="10.00">(def)</text>
</g>
<!-- L4YAML.Scanner.ScannerState -->
<g id="node2" class="node">
<title>L4YAML.Scanner.ScannerState</title>
<polygon fill="#dce9f7" stroke="#4a90d9" points="547.65,-322 471.65,-322 471.65,-286 547.65,-286 547.65,-322"/>
<text text-anchor="middle" x="509.65" y="-307" font-family="Helvetica" font-size="10.00">ScannerState</text>
<text text-anchor="middle" x="509.65" y="-296" font-family="Helvetica" font-size="10.00">(inductive)</text>
</g>
<!-- L4YAML.Proofs.CouplingBridge.ScannerSurfCorr -->
<g id="node3" class="node">
<title>L4YAML.Proofs.CouplingBridge.ScannerSurfCorr</title>
<polygon fill="#dce9f7" stroke="#4a90d9" points="589.15,-268 430.15,-268 430.15,-232 589.15,-232 589.15,-268"/>
<text text-anchor="middle" x="509.65" y="-253" font-family="Helvetica" font-size="10.00">CouplingBridge.ScannerSurfCorr</text>
<text text-anchor="middle" x="509.65" y="-242" font-family="Helvetica" font-size="10.00">(inductive)</text>
</g>
<!-- L4YAML.Scanner.ScannerState.offset -->
<g id="node4" class="node">
<title>L4YAML.Scanner.ScannerState.offset</title>
<polygon fill="#dce9f7" stroke="#4a90d9" points="561.15,-214 458.15,-214 458.15,-178 561.15,-178 561.15,-214"/>
<text text-anchor="middle" x="509.65" y="-199" font-family="Helvetica" font-size="10.00">ScannerState.offset</text>
<text text-anchor="middle" x="509.65" y="-188" font-family="Helvetica" font-size="10.00">(def)</text>
</g>
<!-- L4YAML.Surface.SurfPos -->
<g id="node5" class="node">
<title>L4YAML.Surface.SurfPos</title>
<polygon fill="#dce9f7" stroke="#4a90d9" points="554.65,-160 464.65,-160 464.65,-124 554.65,-124 554.65,-160"/>
<text text-anchor="middle" x="509.65" y="-145" font-family="Helvetica" font-size="10.00">Surface.SurfPos</text>
<text text-anchor="middle" x="509.65" y="-134" font-family="Helvetica" font-size="10.00">(inductive)</text>
</g>
<!-- L4YAML.Surface.SurfPos.chars -->
<g id="node6" class="node">
<title>L4YAML.Surface.SurfPos.chars</title>
<polygon fill="#dce9f7" stroke="#4a90d9" points="568.65,-106 450.65,-106 450.65,-70 568.65,-70 568.65,-106"/>
<text text-anchor="middle" x="509.65" y="-91" font-family="Helvetica" font-size="10.00">Surface.SurfPos.chars</text>
<text text-anchor="middle" x="509.65" y="-80" font-family="Helvetica" font-size="10.00">(def)</text>
</g>
<!-- L4YAML.Proofs.CouplingBridge.listByteSize -->
<g id="node7" class="node">
<title>L4YAML.Proofs.CouplingBridge.listByteSize</title>
<polygon fill="#dce9f7" stroke="#4a90d9" points="578.15,-52 441.15,-52 441.15,-16 578.15,-16 578.15,-52"/>
<text text-anchor="middle" x="509.65" y="-37" font-family="Helvetica" font-size="10.00">CouplingBridge.listByteSize</text>
<text text-anchor="middle" x="509.65" y="-26" font-family="Helvetica" font-size="10.00">(def)</text>
</g>
<!-- L4YAML.Proofs.CouplingBridge.ScannerSurfCorr.input_prefix -->
<g id="node8" class="node">
<title>L4YAML.Proofs.CouplingBridge.ScannerSurfCorr.input_prefix</title>
<polygon fill="#fff3cd" stroke="#d4a017" points="365.22,-188.54 365.22,-203.46 264.09,-214 121.06,-214 19.93,-203.46 19.93,-188.54 121.06,-178 264.09,-178 365.22,-188.54"/>
<polygon fill="none" stroke="#d4a017" points="369.22,-184.94 369.22,-207.06 264.29,-218 120.85,-218 15.93,-207.06 15.93,-184.94 120.85,-174 264.29,-174 369.22,-184.94"/>
<text text-anchor="middle" x="192.57" y="-192.9" font-family="Helvetica" font-size="12.00">CouplingBridge.ScannerSurfCorr.input_prefix</text>
</g>
<!-- L4YAML.Proofs.CouplingBridge.ScannerSurfCorr.input_prefix&#45;&gt;L4YAML.Scanner.ScannerState.input -->
<g id="edge6" class="edge">
<title>L4YAML.Proofs.CouplingBridge.ScannerSurfCorr.input_prefix&#45;&gt;L4YAML.Scanner.ScannerState.input</title>
<path fill="none" stroke="#4a90d9" stroke-width="2" d="M225.6,-218.16C268.69,-247.2 348.44,-298.26 422.15,-331 431.82,-335.3 442.38,-339.2 452.69,-342.62"/>
<polygon fill="#4a90d9" stroke="#4a90d9" stroke-width="2" points="452.01,-344.97 459.43,-344.79 453.52,-340.31 452.01,-344.97"/>
<text text-anchor="middle" x="399.65" y="-327.6" font-family="Times-Roman" font-size="8.00" fill="#4a90d9">about</text>
</g>
<!-- L4YAML.Proofs.CouplingBridge.ScannerSurfCorr.input_prefix&#45;&gt;L4YAML.Scanner.ScannerState -->
<g id="edge4" class="edge">
<title>L4YAML.Proofs.CouplingBridge.ScannerSurfCorr.input_prefix&#45;&gt;L4YAML.Scanner.ScannerState</title>
<path fill="none" stroke="#4a90d9" stroke-width="2" d="M253.99,-218.12C299.95,-234.77 364.83,-257.91 422.15,-277 435.87,-281.57 450.9,-286.34 464.52,-290.58"/>
<polygon fill="#4a90d9" stroke="#4a90d9" stroke-width="2" points="464.09,-293.01 471.51,-292.75 465.54,-288.33 464.09,-293.01"/>
<text text-anchor="middle" x="399.65" y="-274.6" font-family="Times-Roman" font-size="8.00" fill="#4a90d9">about</text>
</g>
<!-- L4YAML.Proofs.CouplingBridge.ScannerSurfCorr.input_prefix&#45;&gt;L4YAML.Proofs.CouplingBridge.ScannerSurfCorr -->
<g id="edge2" class="edge">
<title>L4YAML.Proofs.CouplingBridge.ScannerSurfCorr.input_prefix&#45;&gt;L4YAML.Proofs.CouplingBridge.ScannerSurfCorr</title>
<path fill="none" stroke="#4a90d9" stroke-width="2" d="M300.24,-214.28C340.24,-221.14 385.14,-228.83 423,-235.32"/>
<polygon fill="#4a90d9" stroke="#4a90d9" stroke-width="2" points="422.67,-237.75 429.98,-236.52 423.49,-232.92 422.67,-237.75"/>
<text text-anchor="middle" x="399.65" y="-234.6" font-family="Times-Roman" font-size="8.00" fill="#4a90d9">about</text>
</g>
<!-- L4YAML.Proofs.CouplingBridge.ScannerSurfCorr.input_prefix&#45;&gt;L4YAML.Scanner.ScannerState.offset -->
<g id="edge3" class="edge">
<title>L4YAML.Proofs.CouplingBridge.ScannerSurfCorr.input_prefix&#45;&gt;L4YAML.Scanner.ScannerState.offset</title>
<path fill="none" stroke="#4a90d9" stroke-width="2" d="M369.53,-196C398.92,-196 427.43,-196 450.91,-196"/>
<polygon fill="#4a90d9" stroke="#4a90d9" stroke-width="2" points="451.04,-198.45 458.04,-196 451.04,-193.55 451.04,-198.45"/>
<text text-anchor="middle" x="399.65" y="-198.6" font-family="Times-Roman" font-size="8.00" fill="#4a90d9">about</text>
</g>
<!-- L4YAML.Proofs.CouplingBridge.ScannerSurfCorr.input_prefix&#45;&gt;L4YAML.Surface.SurfPos -->
<g id="edge5" class="edge">
<title>L4YAML.Proofs.CouplingBridge.ScannerSurfCorr.input_prefix&#45;&gt;L4YAML.Surface.SurfPos</title>
<path fill="none" stroke="#4a90d9" stroke-width="2" d="M300.24,-177.72C353.34,-168.62 415.08,-158.04 457.5,-150.77"/>
<polygon fill="#4a90d9" stroke="#4a90d9" stroke-width="2" points="457.92,-153.18 464.4,-149.58 457.09,-148.35 457.92,-153.18"/>
<text text-anchor="middle" x="399.65" y="-164.6" font-family="Times-Roman" font-size="8.00" fill="#4a90d9">about</text>
</g>
<!-- L4YAML.Proofs.CouplingBridge.ScannerSurfCorr.input_prefix&#45;&gt;L4YAML.Surface.SurfPos.chars -->
<g id="edge1" class="edge">
<title>L4YAML.Proofs.CouplingBridge.ScannerSurfCorr.input_prefix&#45;&gt;L4YAML.Surface.SurfPos.chars</title>
<path fill="none" stroke="#4a90d9" stroke-width="2" d="M253.99,-173.88C299.95,-157.23 364.83,-134.09 422.15,-115 429.12,-112.68 436.42,-110.3 443.71,-107.98"/>
<polygon fill="#4a90d9" stroke="#4a90d9" stroke-width="2" points="444.46,-110.31 450.39,-105.85 442.97,-105.64 444.46,-110.31"/>
<text text-anchor="middle" x="399.65" y="-127.6" font-family="Times-Roman" font-size="8.00" fill="#4a90d9">about</text>
</g>
<!-- L4YAML.Proofs.CouplingBridge.ScannerSurfCorr.input_prefix&#45;&gt;L4YAML.Proofs.CouplingBridge.listByteSize -->
<g id="edge7" class="edge">
<title>L4YAML.Proofs.CouplingBridge.ScannerSurfCorr.input_prefix&#45;&gt;L4YAML.Proofs.CouplingBridge.listByteSize</title>
<path fill="none" stroke="#4a90d9" stroke-width="2" d="M225.6,-173.84C268.69,-144.8 348.44,-93.74 422.15,-61 427.2,-58.75 432.5,-56.62 437.88,-54.6"/>
<polygon fill="#4a90d9" stroke="#4a90d9" stroke-width="2" points="438.98,-56.81 444.72,-52.11 437.31,-52.2 438.98,-56.81"/>
<text text-anchor="middle" x="399.65" y="-78.6" font-family="Times-Roman" font-size="8.00" fill="#4a90d9">about</text>
</g>
</g>
</svg>
