<?xml version="1.0" encoding="UTF-8" standalone="no"?>
<!DOCTYPE svg PUBLIC "-//W3C//DTD SVG 1.1//EN"
 "http://www.w3.org/Graphics/SVG/1.1/DTD/svg11.dtd">
<!-- Generated by graphviz version 2.44.0 (0)
 -->
<!-- Title: CouplingBridge.ScannerSurfCorr.chars_from Pages: 1 -->
<svg width="611pt" height="472pt"
 viewBox="0.00 0.00 611.15 472.00" xmlns="http://www.w3.org/2000/svg" xmlns:xlink="http://www.w3.org/1999/xlink">
<g id="graph0" class="graph" transform="scale(1 1) rotate(0) translate(4 468)">
<title>CouplingBridge.ScannerSurfCorr.chars_from</title>
<polygon fill="white" stroke="transparent" points="-4,4 -4,-468 607.15,-468 607.15,4 -4,4"/>
<text text-anchor="middle" x="301.57" y="-449.6" font-family="Helvetica Bold" font-size="13.00">CouplingBridge.ScannerSurfCorr.chars_from</text>
<text text-anchor="middle" x="301.57" y="-435.6" font-family="Helvetica Bold" font-size="13.00">(heuristic: used by 101 proofs)</text>
<text text-anchor="middle" x="301.57" y="-421.6" font-family="Helvetica Bold" font-size="13.00">(L4YAML.Proofs.CouplingBridge)</text>
<g id="clust1" class="cluster">
<title>cluster_functions</title>
<polygon fill="none" stroke="#4a90d9" stroke-dasharray="5,2" points="418.15,-8 418.15,-406 595.15,-406 595.15,-8 418.15,-8"/>
<text text-anchor="middle" x="506.65" y="-391.6" font-family="Helvetica Bold" font-size="13.00" fill="#4a90d9">Functions</text>
</g>
<g id="clust2" class="cluster">
<title>cluster_key</title>
<polygon fill="none" stroke="#d4a017" stroke-dasharray="5,2" points="8,-166 8,-248 373.15,-248 373.15,-166 8,-166"/>
<text text-anchor="middle" x="190.57" y="-233.6" font-family="Helvetica Bold" font-size="13.00" fill="#d4a017">Key Theorem</text>
</g>
<!-- L4YAML.Scanner.ScannerState.input -->
<g id="node1" class="node">
<title>L4YAML.Scanner.ScannerState.input</title>
<g id="a_node1"><a xlink:href="../../../api/L4YAML/Scanner.html#L4YAML.Scanner.ScannerState.input" xlink:title="ScannerState.input\n(def)" target="_blank">
<polygon fill="#dce9f7" stroke="#4a90d9" points="556.65,-376 456.65,-376 456.65,-340 556.65,-340 556.65,-376"/>
<text text-anchor="middle" x="506.65" y="-361" font-family="Helvetica" font-size="10.00">ScannerState.input</text>
<text text-anchor="middle" x="506.65" y="-350" font-family="Helvetica" font-size="10.00">(def)</text>
</a>
</g>
</g>
<!-- L4YAML.Scanner.ScannerState -->
<g id="node2" class="node">
<title>L4YAML.Scanner.ScannerState</title>
<g id="a_node2"><a xlink:href="../../../api/L4YAML/Scanner.html#L4YAML.Scanner.ScannerState" xlink:title="ScannerState\n(inductive)" target="_blank">
<polygon fill="#dce9f7" stroke="#4a90d9" points="544.65,-322 468.65,-322 468.65,-286 544.65,-286 544.65,-322"/>
<text text-anchor="middle" x="506.65" y="-307" font-family="Helvetica" font-size="10.00">ScannerState</text>
<text text-anchor="middle" x="506.65" y="-296" font-family="Helvetica" font-size="10.00">(inductive)</text>
</a>
</g>
</g>
<!-- L4YAML.Proofs.CouplingBridge.ScannerSurfCorr -->
<g id="node3" class="node">
<title>L4YAML.Proofs.CouplingBridge.ScannerSurfCorr</title>
<g id="a_node3"><a xlink:href="../../../api/L4YAML/Proofs/CouplingBridge.html#L4YAML.Proofs.CouplingBridge.ScannerSurfCorr" xlink:title="CouplingBridge.ScannerSurfCorr\n(inductive)" target="_blank">
<polygon fill="#dce9f7" stroke="#4a90d9" points="586.15,-268 427.15,-268 427.15,-232 586.15,-232 586.15,-268"/>
<text text-anchor="middle" x="506.65" y="-253" font-family="Helvetica" font-size="10.00">CouplingBridge.ScannerSurfCorr</text>
<text text-anchor="middle" x="506.65" y="-242" font-family="Helvetica" font-size="10.00">(inductive)</text>
</a>
</g>
</g>
<!-- L4YAML.Scanner.ScannerState.offset -->
<g id="node4" class="node">
<title>L4YAML.Scanner.ScannerState.offset</title>
<g id="a_node4"><a xlink:href="../../../api/L4YAML/Scanner.html#L4YAML.Scanner.ScannerState.offset" xlink:title="ScannerState.offset\n(def)" target="_blank">
<polygon fill="#dce9f7" stroke="#4a90d9" points="558.15,-214 455.15,-214 455.15,-178 558.15,-178 558.15,-214"/>
<text text-anchor="middle" x="506.65" y="-199" font-family="Helvetica" font-size="10.00">ScannerState.offset</text>
<text text-anchor="middle" x="506.65" y="-188" font-family="Helvetica" font-size="10.00">(def)</text>
</a>
</g>
</g>
<!-- L4YAML.Surface.SurfPos -->
<g id="node5" class="node">
<title>L4YAML.Surface.SurfPos</title>
<g id="a_node5"><a xlink:href="../../../api/L4YAML/Surface/Combinators.html#L4YAML.Surface.SurfPos" xlink:title="Surface.SurfPos\n(inductive)" target="_blank">
<polygon fill="#dce9f7" stroke="#4a90d9" points="551.65,-160 461.65,-160 461.65,-124 551.65,-124 551.65,-160"/>
<text text-anchor="middle" x="506.65" y="-145" font-family="Helvetica" font-size="10.00">Surface.SurfPos</text>
<text text-anchor="middle" x="506.65" y="-134" font-family="Helvetica" font-size="10.00">(inductive)</text>
</a>
</g>
</g>
<!-- L4YAML.Proofs.CouplingBridge.CharsFromOffset -->
<g id="node6" class="node">
<title>L4YAML.Proofs.CouplingBridge.CharsFromOffset</title>
<g id="a_node6"><a xlink:href="../../../api/L4YAML/Proofs/CouplingBridge.html#L4YAML.Proofs.CouplingBridge.CharsFromOffset" xlink:title="CouplingBridge.CharsFromOffset\n(inductive)" target="_blank">
<polygon fill="#dce9f7" stroke="#4a90d9" points="587.15,-106 426.15,-106 426.15,-70 587.15,-70 587.15,-106"/>
<text text-anchor="middle" x="506.65" y="-91" font-family="Helvetica" font-size="10.00">CouplingBridge.CharsFromOffset</text>
<text text-anchor="middle" x="506.65" y="-80" font-family="Helvetica" font-size="10.00">(inductive)</text>
</a>
</g>
</g>
<!-- L4YAML.Surface.SurfPos.chars -->
<g id="node7" class="node">
<title>L4YAML.Surface.SurfPos.chars</title>
<g id="a_node7"><a xlink:href="../../../api/L4YAML/Surface/Combinators.html#L4YAML.Surface.SurfPos.chars" xlink:title="Surface.SurfPos.chars\n(def)" target="_blank">
<polygon fill="#dce9f7" stroke="#4a90d9" points="565.65,-52 447.65,-52 447.65,-16 565.65,-16 565.65,-52"/>
<text text-anchor="middle" x="506.65" y="-37" font-family="Helvetica" font-size="10.00">Surface.SurfPos.chars</text>
<text text-anchor="middle" x="506.65" y="-26" font-family="Helvetica" font-size="10.00">(def)</text>
</a>
</g>
</g>
<!-- L4YAML.Proofs.CouplingBridge.ScannerSurfCorr.chars_from -->
<g id="node8" class="node">
<title>L4YAML.Proofs.CouplingBridge.ScannerSurfCorr.chars_from</title>
<g id="a_node8"><a xlink:href="../../../api/L4YAML/Proofs/CouplingBridge.html#L4YAML.Proofs.CouplingBridge.ScannerSurfCorr.chars_from" xlink:title="CouplingBridge.ScannerSurfCorr.chars_from" target="_blank">
<polygon fill="#fff3cd" stroke="#d4a017" points="361.22,-188.54 361.22,-203.46 261.26,-214 119.89,-214 19.93,-203.46 19.93,-188.54 119.89,-178 261.26,-178 361.22,-188.54"/>
<polygon fill="none" stroke="#d4a017" points="365.22,-184.94 365.22,-207.06 261.47,-218 119.68,-218 15.93,-207.06 15.93,-184.94 119.68,-174 261.47,-174 365.22,-184.94"/>
<text text-anchor="middle" x="190.57" y="-192.9" font-family="Helvetica" font-size="12.00">CouplingBridge.ScannerSurfCorr.chars_from</text>
</a>
</g>
</g>
<!-- L4YAML.Proofs.CouplingBridge.ScannerSurfCorr.chars_from&#45;&gt;L4YAML.Scanner.ScannerState.input -->
<g id="edge6" class="edge">
<title>L4YAML.Proofs.CouplingBridge.ScannerSurfCorr.chars_from&#45;&gt;L4YAML.Scanner.ScannerState.input</title>
<path fill="none" stroke="#4a90d9" stroke-width="2" d="M223.28,-218.22C265.94,-247.32 344.93,-298.45 418.15,-331 428.04,-335.4 438.86,-339.37 449.41,-342.82"/>
<polygon fill="#4a90d9" stroke="#4a90d9" stroke-width="2" points="448.88,-345.22 456.3,-345.02 450.37,-340.56 448.88,-345.22"/>
<text text-anchor="middle" x="395.65" y="-327.6" font-family="Times-Roman" font-size="8.00" fill="#4a90d9">about</text>
</g>
<!-- L4YAML.Proofs.CouplingBridge.ScannerSurfCorr.chars_from&#45;&gt;L4YAML.Scanner.ScannerState -->
<g id="edge4" class="edge">
<title>L4YAML.Proofs.CouplingBridge.ScannerSurfCorr.chars_from&#45;&gt;L4YAML.Scanner.ScannerState</title>
<path fill="none" stroke="#4a90d9" stroke-width="2" d="M250.96,-218.04C296.52,-234.75 361.07,-258 418.15,-277 432.28,-281.7 447.78,-286.58 461.76,-290.87"/>
<polygon fill="#4a90d9" stroke="#4a90d9" stroke-width="2" points="461.08,-293.23 468.49,-292.93 462.52,-288.54 461.08,-293.23"/>
<text text-anchor="middle" x="395.65" y="-274.6" font-family="Times-Roman" font-size="8.00" fill="#4a90d9">about</text>
</g>
<!-- L4YAML.Proofs.CouplingBridge.ScannerSurfCorr.chars_from&#45;&gt;L4YAML.Proofs.CouplingBridge.ScannerSurfCorr -->
<g id="edge2" class="edge">
<title>L4YAML.Proofs.CouplingBridge.ScannerSurfCorr.chars_from&#45;&gt;L4YAML.Proofs.CouplingBridge.ScannerSurfCorr</title>
<path fill="none" stroke="#4a90d9" stroke-width="2" d="M297.47,-214.21C337.37,-221.07 382.21,-228.78 420.04,-235.28"/>
<polygon fill="#4a90d9" stroke="#4a90d9" stroke-width="2" points="419.7,-237.71 427.01,-236.48 420.53,-232.88 419.7,-237.71"/>
<text text-anchor="middle" x="395.65" y="-234.6" font-family="Times-Roman" font-size="8.00" fill="#4a90d9">about</text>
</g>
<!-- L4YAML.Proofs.CouplingBridge.ScannerSurfCorr.chars_from&#45;&gt;L4YAML.Scanner.ScannerState.offset -->
<g id="edge3" class="edge">
<title>L4YAML.Proofs.CouplingBridge.ScannerSurfCorr.chars_from&#45;&gt;L4YAML.Scanner.ScannerState.offset</title>
<path fill="none" stroke="#4a90d9" stroke-width="2" d="M365.6,-196C395.23,-196 424.05,-196 447.76,-196"/>
<polygon fill="#4a90d9" stroke="#4a90d9" stroke-width="2" points="447.95,-198.45 454.95,-196 447.95,-193.55 447.95,-198.45"/>
<text text-anchor="middle" x="395.65" y="-198.6" font-family="Times-Roman" font-size="8.00" fill="#4a90d9">about</text>
</g>
<!-- L4YAML.Proofs.CouplingBridge.ScannerSurfCorr.chars_from&#45;&gt;L4YAML.Surface.SurfPos -->
<g id="edge5" class="edge">
<title>L4YAML.Proofs.CouplingBridge.ScannerSurfCorr.chars_from&#45;&gt;L4YAML.Surface.SurfPos</title>
<path fill="none" stroke="#4a90d9" stroke-width="2" d="M297.47,-177.79C350.33,-168.7 411.87,-158.12 454.26,-150.84"/>
<polygon fill="#4a90d9" stroke="#4a90d9" stroke-width="2" points="454.93,-153.21 461.42,-149.61 454.1,-148.38 454.93,-153.21"/>
<text text-anchor="middle" x="395.65" y="-164.6" font-family="Times-Roman" font-size="8.00" fill="#4a90d9">about</text>
</g>
<!-- L4YAML.Proofs.CouplingBridge.ScannerSurfCorr.chars_from&#45;&gt;L4YAML.Proofs.CouplingBridge.CharsFromOffset -->
<g id="edge7" class="edge">
<title>L4YAML.Proofs.CouplingBridge.ScannerSurfCorr.chars_from&#45;&gt;L4YAML.Proofs.CouplingBridge.CharsFromOffset</title>
<path fill="none" stroke="#4a90d9" stroke-width="2" d="M250.96,-173.96C296.52,-157.25 361.07,-134 418.15,-115 424.82,-112.78 431.81,-110.52 438.79,-108.3"/>
<polygon fill="#4a90d9" stroke="#4a90d9" stroke-width="2" points="439.82,-110.54 445.76,-106.1 438.35,-105.87 439.82,-110.54"/>
<text text-anchor="middle" x="395.65" y="-127.6" font-family="Times-Roman" font-size="8.00" fill="#4a90d9">about</text>
</g>
<!-- L4YAML.Proofs.CouplingBridge.ScannerSurfCorr.chars_from&#45;&gt;L4YAML.Surface.SurfPos.chars -->
<g id="edge1" class="edge">
<title>L4YAML.Proofs.CouplingBridge.ScannerSurfCorr.chars_from&#45;&gt;L4YAML.Surface.SurfPos.chars</title>
<path fill="none" stroke="#4a90d9" stroke-width="2" d="M223.28,-173.78C265.94,-144.68 344.93,-93.55 418.15,-61 425.27,-57.84 432.87,-54.89 440.5,-52.2"/>
<polygon fill="#4a90d9" stroke="#4a90d9" stroke-width="2" points="441.68,-54.39 447.51,-49.81 440.09,-49.75 441.68,-54.39"/>
<text text-anchor="middle" x="395.65" y="-78.6" font-family="Times-Roman" font-size="8.00" fill="#4a90d9">about</text>
</g>
</g>
</svg>
