<?xml version="1.0" encoding="UTF-8" standalone="no"?>
<!DOCTYPE svg PUBLIC "-//W3C//DTD SVG 1.1//EN"
 "http://www.w3.org/Graphics/SVG/1.1/DTD/svg11.dtd">
<!-- Generated by graphviz version 2.44.0 (0)
 -->
<!-- Title: CouplingBridge.next_byteIdx Pages: 1 -->
<svg width="275pt" height="156pt"
 viewBox="0.00 0.00 274.54 156.00" xmlns="http://www.w3.org/2000/svg" xmlns:xlink="http://www.w3.org/1999/xlink">
<g id="graph0" class="graph" transform="scale(1 1) rotate(0) translate(4 152)">
<title>CouplingBridge.next_byteIdx</title>
<polygon fill="white" stroke="transparent" points="-4,4 -4,-152 270.54,-152 270.54,4 -4,4"/>
<text text-anchor="middle" x="133.27" y="-133.6" font-family="Helvetica Bold" font-size="13.00">CouplingBridge.next_byteIdx</text>
<text text-anchor="middle" x="133.27" y="-119.6" font-family="Helvetica Bold" font-size="13.00">(heuristic: used by 6 proofs)</text>
<text text-anchor="middle" x="133.27" y="-105.6" font-family="Helvetica Bold" font-size="13.00">(L4YAML.Proofs.CouplingBridge)</text>
<g id="clust2" class="cluster">
<title>cluster_key</title>
<polygon fill="none" stroke="#d4a017" stroke-dasharray="5,2" points="8,-8 8,-90 258.54,-90 258.54,-8 8,-8"/>
<text text-anchor="middle" x="133.27" y="-75.6" font-family="Helvetica Bold" font-size="13.00" fill="#d4a017">Key Theorem</text>
</g>
<!-- L4YAML.Proofs.CouplingBridge.next_byteIdx -->
<g id="node1" class="node">
<title>L4YAML.Proofs.CouplingBridge.next_byteIdx</title>
<polygon fill="#fff3cd" stroke="#d4a017" points="246.32,-30.54 246.32,-45.46 180.1,-56 86.44,-56 20.22,-45.46 20.22,-30.54 86.44,-20 180.1,-20 246.32,-30.54"/>
<polygon fill="none" stroke="#d4a017" points="250.32,-27.13 250.32,-48.87 180.42,-60 86.13,-60 16.23,-48.87 16.23,-27.13 86.13,-16 180.42,-16 250.32,-27.13"/>
<text text-anchor="middle" x="133.27" y="-34.9" font-family="Helvetica" font-size="12.00">CouplingBridge.next_byteIdx</text>
</g>
</g>
</svg>
