<?xml version="1.0" encoding="UTF-8" standalone="no"?>
<!DOCTYPE svg PUBLIC "-//W3C//DTD SVG 1.1//EN"
 "http://www.w3.org/Graphics/SVG/1.1/DTD/svg11.dtd">
<!-- Generated by graphviz version 2.44.0 (0)
 -->
<!-- Title: CouplingBridge.peek_corr Pages: 1 -->
<svg width="814pt" height="740pt"
 viewBox="0.00 0.00 814.03 740.13" xmlns="http://www.w3.org/2000/svg" xmlns:xlink="http://www.w3.org/1999/xlink">
<g id="graph0" class="graph" transform="scale(1 1) rotate(0) translate(4 736.13)">
<title>CouplingBridge.peek_corr</title>
<polygon fill="white" stroke="transparent" points="-4,4 -4,-736.13 810.03,-736.13 810.03,4 -4,4"/>
<text text-anchor="middle" x="403.02" y="-717.73" font-family="Helvetica Bold" font-size="13.00">CouplingBridge.peek_corr</text>
<text text-anchor="middle" x="403.02" y="-703.73" font-family="Helvetica Bold" font-size="13.00">(heuristic: used by 8 proofs)</text>
<text text-anchor="middle" x="403.02" y="-689.73" font-family="Helvetica Bold" font-size="13.00">(L4YAML.Proofs.CouplingBridge)</text>
<g id="clust1" class="cluster">
<title>cluster_functions</title>
<polygon fill="none" stroke="#4a90d9" stroke-dasharray="5,2" points="372.92,-175 372.92,-573 798.03,-573 798.03,-175 372.92,-175"/>
<text text-anchor="middle" x="585.48" y="-558.6" font-family="Helvetica Bold" font-size="13.00" fill="#4a90d9">Functions</text>
</g>
<g id="clust2" class="cluster">
<title>cluster_key</title>
<polygon fill="none" stroke="#d4a017" stroke-dasharray="5,2" points="344.81,-85 344.81,-167 578.03,-167 578.03,-85 344.81,-85"/>
<text text-anchor="middle" x="461.42" y="-152.6" font-family="Helvetica Bold" font-size="13.00" fill="#d4a017">Key Theorem</text>
</g>
<g id="clust3" class="cluster">
<title>cluster_proofs</title>
<polygon fill="none" stroke="#28a745" stroke-dasharray="5,2" points="8,-365 8,-565 323.81,-565 323.81,-365 8,-365"/>
<text text-anchor="middle" x="165.91" y="-550.6" font-family="Helvetica Bold" font-size="13.00" fill="#28a745">Proof Dependencies</text>
</g>
<g id="clust4" class="cluster">
<title>cluster_stdlib</title>
<polygon fill="none" stroke="#e67e22" stroke-dasharray="5,2" points="82.56,-8 82.56,-190 249.26,-190 249.26,-8 82.56,-8"/>
<text text-anchor="middle" x="165.91" y="-175.6" font-family="Helvetica Bold" font-size="13.00" fill="#e67e22">Stdlib Lemmas</text>
</g>
<!-- L4YAML.Scanner.ScannerState.input -->
<g id="node1" class="node">
<title>L4YAML.Scanner.ScannerState.input</title>
<polygon fill="#dce9f7" stroke="#4a90d9" points="511.42,-543 411.42,-543 411.42,-507 511.42,-507 511.42,-543"/>
<text text-anchor="middle" x="461.42" y="-528" font-family="Helvetica" font-size="10.00">ScannerState.input</text>
<text text-anchor="middle" x="461.42" y="-517" font-family="Helvetica" font-size="10.00">(def)</text>
</g>
<!-- L4YAML.Scanner.ScannerState.peek? -->
<g id="node2" class="node">
<title>L4YAML.Scanner.ScannerState.peek?</title>
<polygon fill="#dce9f7" stroke="#4a90d9" points="762.53,-219 658.53,-219 658.53,-183 762.53,-183 762.53,-219"/>
<text text-anchor="middle" x="710.53" y="-204" font-family="Helvetica" font-size="10.00">ScannerState.peek?</text>
<text text-anchor="middle" x="710.53" y="-193" font-family="Helvetica" font-size="10.00">(def)</text>
</g>
<!-- L4YAML.Scanner.ScannerState -->
<g id="node3" class="node">
<title>L4YAML.Scanner.ScannerState</title>
<polygon fill="#dce9f7" stroke="#4a90d9" points="748.53,-543 672.53,-543 672.53,-507 748.53,-507 748.53,-543"/>
<text text-anchor="middle" x="710.53" y="-528" font-family="Helvetica" font-size="10.00">ScannerState</text>
<text text-anchor="middle" x="710.53" y="-517" font-family="Helvetica" font-size="10.00">(inductive)</text>
</g>
<!-- L4YAML.Proofs.CouplingBridge.ScannerSurfCorr -->
<g id="node4" class="node">
<title>L4YAML.Proofs.CouplingBridge.ScannerSurfCorr</title>
<polygon fill="#dce9f7" stroke="#4a90d9" points="790.03,-327 631.03,-327 631.03,-291 790.03,-291 790.03,-327"/>
<text text-anchor="middle" x="710.53" y="-312" font-family="Helvetica" font-size="10.00">CouplingBridge.ScannerSurfCorr</text>
<text text-anchor="middle" x="710.53" y="-301" font-family="Helvetica" font-size="10.00">(inductive)</text>
</g>
<!-- L4YAML.Scanner.ScannerState.offset -->
<g id="node5" class="node">
<title>L4YAML.Scanner.ScannerState.offset</title>
<polygon fill="#dce9f7" stroke="#4a90d9" points="762.03,-489 659.03,-489 659.03,-453 762.03,-453 762.03,-489"/>
<text text-anchor="middle" x="710.53" y="-474" font-family="Helvetica" font-size="10.00">ScannerState.offset</text>
<text text-anchor="middle" x="710.53" y="-463" font-family="Helvetica" font-size="10.00">(def)</text>
</g>
<!-- L4YAML.Surface.SurfPos -->
<g id="node6" class="node">
<title>L4YAML.Surface.SurfPos</title>
<polygon fill="#dce9f7" stroke="#4a90d9" points="755.53,-381 665.53,-381 665.53,-345 755.53,-345 755.53,-381"/>
<text text-anchor="middle" x="710.53" y="-366" font-family="Helvetica" font-size="10.00">Surface.SurfPos</text>
<text text-anchor="middle" x="710.53" y="-355" font-family="Helvetica" font-size="10.00">(inductive)</text>
</g>
<!-- L4YAML.Proofs.CouplingBridge.CharsFromOffset -->
<g id="node7" class="node">
<title>L4YAML.Proofs.CouplingBridge.CharsFromOffset</title>
<polygon fill="#dce9f7" stroke="#4a90d9" points="541.92,-489 380.92,-489 380.92,-453 541.92,-453 541.92,-489"/>
<text text-anchor="middle" x="461.42" y="-474" font-family="Helvetica" font-size="10.00">CouplingBridge.CharsFromOffset</text>
<text text-anchor="middle" x="461.42" y="-463" font-family="Helvetica" font-size="10.00">(inductive)</text>
</g>
<!-- L4YAML.Scanner.ScannerState.inputEnd -->
<g id="node8" class="node">
<title>L4YAML.Scanner.ScannerState.inputEnd</title>
<polygon fill="#dce9f7" stroke="#4a90d9" points="769.03,-435 652.03,-435 652.03,-399 769.03,-399 769.03,-435"/>
<text text-anchor="middle" x="710.53" y="-420" font-family="Helvetica" font-size="10.00">ScannerState.inputEnd</text>
<text text-anchor="middle" x="710.53" y="-409" font-family="Helvetica" font-size="10.00">(def)</text>
</g>
<!-- L4YAML.Surface.SurfPos.chars -->
<g id="node9" class="node">
<title>L4YAML.Surface.SurfPos.chars</title>
<polygon fill="#dce9f7" stroke="#4a90d9" points="769.53,-273 651.53,-273 651.53,-237 769.53,-237 769.53,-273"/>
<text text-anchor="middle" x="710.53" y="-258" font-family="Helvetica" font-size="10.00">Surface.SurfPos.chars</text>
<text text-anchor="middle" x="710.53" y="-247" font-family="Helvetica" font-size="10.00">(def)</text>
</g>
<!-- L4YAML.Proofs.CouplingBridge.peek_corr -->
<g id="node10" class="node">
<title>L4YAML.Proofs.CouplingBridge.peek_corr</title>
<polygon fill="#fff3cd" stroke="#d4a017" points="566.14,-107.54 566.14,-122.46 504.8,-133 418.05,-133 356.71,-122.46 356.71,-107.54 418.05,-97 504.8,-97 566.14,-107.54"/>
<polygon fill="none" stroke="#d4a017" points="570.14,-104.17 570.14,-125.83 505.14,-137 417.71,-137 352.7,-125.83 352.7,-104.17 417.71,-93 505.14,-93 570.14,-104.17"/>
<text text-anchor="middle" x="461.42" y="-111.9" font-family="Helvetica" font-size="12.00">CouplingBridge.peek_corr</text>
</g>
<!-- L4YAML.Proofs.CouplingBridge.peek_corr&#45;&gt;L4YAML.Scanner.ScannerState.peek? -->
<g id="edge7" class="edge">
<title>L4YAML.Proofs.CouplingBridge.peek_corr&#45;&gt;L4YAML.Scanner.ScannerState.peek?</title>
<path fill="none" stroke="#4a90d9" stroke-width="2" d="M519.17,-95.32C548.28,-88.47 583.7,-85.29 613.03,-98 649.93,-113.99 679.17,-151.8 695.42,-176.89"/>
<polygon fill="#4a90d9" stroke="#4a90d9" stroke-width="2" points="693.45,-178.36 699.26,-182.97 697.59,-175.75 693.45,-178.36"/>
<text text-anchor="middle" x="600.53" y="-100.6" font-family="Times-Roman" font-size="8.00" fill="#4a90d9">about</text>
</g>
<!-- L4YAML.Proofs.CouplingBridge.peek_corr&#45;&gt;L4YAML.Scanner.ScannerState -->
<g id="edge5" class="edge">
<title>L4YAML.Proofs.CouplingBridge.peek_corr&#45;&gt;L4YAML.Scanner.ScannerState</title>
<path fill="none" stroke="#4a90d9" stroke-width="2" d="M529.11,-133.04C547.99,-141.46 566.51,-153.62 578.03,-171 590.08,-189.18 582.31,-345.96 588.03,-367 594.35,-390.21 604.86,-392.38 613.03,-415 625.87,-450.5 605.96,-469.79 631.03,-498 639.92,-508 652.68,-514.3 665.34,-518.26"/>
<polygon fill="#4a90d9" stroke="#4a90d9" stroke-width="2" points="664.93,-520.69 672.33,-520.23 666.26,-515.98 664.93,-520.69"/>
<text text-anchor="middle" x="600.53" y="-417.6" font-family="Times-Roman" font-size="8.00" fill="#4a90d9">about</text>
</g>
<!-- L4YAML.Proofs.CouplingBridge.peek_corr&#45;&gt;L4YAML.Proofs.CouplingBridge.ScannerSurfCorr -->
<g id="edge2" class="edge">
<title>L4YAML.Proofs.CouplingBridge.peek_corr&#45;&gt;L4YAML.Proofs.CouplingBridge.ScannerSurfCorr</title>
<path fill="none" stroke="#4a90d9" stroke-width="2" d="M531.04,-132.57C560.53,-143.53 592.79,-160.7 613.03,-187 639.25,-221.05 602.91,-249.51 631.03,-282 632.4,-283.58 633.87,-285.07 635.42,-286.48"/>
<polygon fill="#4a90d9" stroke="#4a90d9" stroke-width="2" points="633.99,-288.47 640.98,-290.92 637.04,-284.64 633.99,-288.47"/>
<text text-anchor="middle" x="600.53" y="-189.6" font-family="Times-Roman" font-size="8.00" fill="#4a90d9">about</text>
</g>
<!-- L4YAML.Proofs.CouplingBridge.peek_corr&#45;&gt;L4YAML.Scanner.ScannerState.offset -->
<g id="edge3" class="edge">
<title>L4YAML.Proofs.CouplingBridge.peek_corr&#45;&gt;L4YAML.Scanner.ScannerState.offset</title>
<path fill="none" stroke="#4a90d9" stroke-width="2" d="M528.59,-133.05C547.56,-141.49 566.27,-153.65 578.03,-171 595.41,-196.63 579.59,-280.2 588.03,-310 594.59,-333.14 604.94,-335.35 613.03,-358 626.18,-394.77 605.2,-414.72 631.03,-444 636.77,-450.5 644.14,-455.44 652.07,-459.19"/>
<polygon fill="#4a90d9" stroke="#4a90d9" stroke-width="2" points="651.43,-461.58 658.84,-462.06 653.35,-457.07 651.43,-461.58"/>
<text text-anchor="middle" x="600.53" y="-360.6" font-family="Times-Roman" font-size="8.00" fill="#4a90d9">about</text>
</g>
<!-- L4YAML.Proofs.CouplingBridge.peek_corr&#45;&gt;L4YAML.Surface.SurfPos -->
<g id="edge6" class="edge">
<title>L4YAML.Proofs.CouplingBridge.peek_corr&#45;&gt;L4YAML.Surface.SurfPos</title>
<path fill="none" stroke="#4a90d9" stroke-width="2" d="M523.6,-133.98C543.18,-142.62 563.53,-154.65 578.03,-171 587.08,-181.2 583.49,-187.15 588.03,-200 598.91,-230.75 603.24,-237.89 613.03,-269 622.29,-298.41 609.99,-313.46 631.03,-336 638.46,-343.95 648.32,-349.56 658.55,-353.52"/>
<polygon fill="#4a90d9" stroke="#4a90d9" stroke-width="2" points="657.88,-355.88 665.3,-355.89 659.51,-351.26 657.88,-355.88"/>
<text text-anchor="middle" x="600.53" y="-271.6" font-family="Times-Roman" font-size="8.00" fill="#4a90d9">about</text>
</g>
<!-- L4YAML.Proofs.CouplingBridge.peek_corr&#45;&gt;L4YAML.Scanner.ScannerState.inputEnd -->
<g id="edge4" class="edge">
<title>L4YAML.Proofs.CouplingBridge.peek_corr&#45;&gt;L4YAML.Scanner.ScannerState.inputEnd</title>
<path fill="none" stroke="#4a90d9" stroke-width="2" d="M528.06,-133.07C547.12,-141.52 566.02,-153.68 578.03,-171 591.64,-190.62 577.43,-256.6 588.03,-278 594.74,-291.53 605.62,-287.85 613.03,-301 632.85,-336.16 604.44,-359.65 631.03,-390 635.13,-394.67 640.07,-398.54 645.46,-401.74"/>
<polygon fill="#4a90d9" stroke="#4a90d9" stroke-width="2" points="644.64,-404.07 651.97,-405.19 646.94,-399.75 644.64,-404.07"/>
<text text-anchor="middle" x="600.53" y="-303.6" font-family="Times-Roman" font-size="8.00" fill="#4a90d9">about</text>
</g>
<!-- L4YAML.Proofs.CouplingBridge.peek_corr&#45;&gt;L4YAML.Surface.SurfPos.chars -->
<g id="edge1" class="edge">
<title>L4YAML.Proofs.CouplingBridge.peek_corr&#45;&gt;L4YAML.Surface.SurfPos.chars</title>
<path fill="none" stroke="#4a90d9" stroke-width="2" d="M570.16,-108.77C586.04,-112.39 601.05,-118.96 613.03,-130 645.61,-160 602.15,-194.43 631.03,-228 635.02,-232.63 639.84,-236.47 645.11,-239.65"/>
<polygon fill="#4a90d9" stroke="#4a90d9" stroke-width="2" points="644.15,-241.92 651.47,-243.09 646.48,-237.61 644.15,-241.92"/>
<text text-anchor="middle" x="600.53" y="-132.6" font-family="Times-Roman" font-size="8.00" fill="#4a90d9">about</text>
</g>
<!-- L4YAML.Proofs.CouplingBridge.ScannerSurfCorr.chars_from -->
<g id="node11" class="node">
<title>L4YAML.Proofs.CouplingBridge.ScannerSurfCorr.chars_from</title>
<ellipse fill="#d4edda" stroke="#28a745" cx="165.91" cy="-394" rx="149.81" ry="21.43"/>
<text text-anchor="middle" x="165.91" y="-397" font-family="Helvetica" font-size="10.00">CouplingBridge.ScannerSurfCorr.chars_from</text>
<text text-anchor="middle" x="165.91" y="-386" font-family="Helvetica" font-size="10.00">(CouplingBridge)</text>
</g>
<!-- L4YAML.Proofs.CouplingBridge.ScannerSurfCorr.chars_from&#45;&gt;L4YAML.Scanner.ScannerState.input -->
<g id="edge19" class="edge">
<title>L4YAML.Proofs.CouplingBridge.ScannerSurfCorr.chars_from&#45;&gt;L4YAML.Scanner.ScannerState.input</title>
<path fill="none" stroke="#999999" stroke-dasharray="1,5" d="M294.14,-405.18C304.99,-409.89 315.12,-416.04 323.81,-424 349.02,-447.09 320.08,-474.4 344.81,-498 361.11,-513.54 384.54,-520.74 406.07,-523.88"/>
<polygon fill="#999999" stroke="#999999" points="406.01,-525.64 411.2,-524.56 406.47,-522.17 406.01,-525.64"/>
</g>
<!-- L4YAML.Proofs.CouplingBridge.ScannerSurfCorr.chars_from&#45;&gt;L4YAML.Scanner.ScannerState -->
<g id="edge17" class="edge">
<title>L4YAML.Proofs.CouplingBridge.ScannerSurfCorr.chars_from&#45;&gt;L4YAML.Scanner.ScannerState</title>
<path fill="none" stroke="#999999" stroke-dasharray="1,5" d="M304.78,-385.9C386.62,-385.65 491.04,-393.43 578.03,-426 596.18,-432.8 601.27,-436.6 613.03,-452 626.36,-469.44 615.19,-482.8 631.03,-498 640.95,-507.51 654.37,-513.68 667.31,-517.68"/>
<polygon fill="#999999" stroke="#999999" points="667.13,-519.46 672.42,-519.16 668.11,-516.09 667.13,-519.46"/>
</g>
<!-- L4YAML.Proofs.CouplingBridge.ScannerSurfCorr.chars_from&#45;&gt;L4YAML.Proofs.CouplingBridge.ScannerSurfCorr -->
<g id="edge15" class="edge">
<title>L4YAML.Proofs.CouplingBridge.ScannerSurfCorr.chars_from&#45;&gt;L4YAML.Proofs.CouplingBridge.ScannerSurfCorr</title>
<path fill="none" stroke="#999999" stroke-dasharray="1,5" d="M184.34,-372.85C212.18,-340.74 270.08,-280.51 333.81,-253 391.09,-228.28 562.81,-187 613.03,-224 634.76,-240.01 612.24,-262.63 631.03,-282 633.04,-284.07 635.21,-285.98 637.51,-287.74"/>
<polygon fill="#999999" stroke="#999999" points="636.69,-289.3 641.78,-290.76 638.71,-286.45 636.69,-289.3"/>
</g>
<!-- L4YAML.Proofs.CouplingBridge.ScannerSurfCorr.chars_from&#45;&gt;L4YAML.Scanner.ScannerState.offset -->
<g id="edge16" class="edge">
<title>L4YAML.Proofs.CouplingBridge.ScannerSurfCorr.chars_from&#45;&gt;L4YAML.Scanner.ScannerState.offset</title>
<path fill="none" stroke="#999999" stroke-dasharray="1,5" d="M256.58,-377.07C361.63,-359.34 527.74,-338.46 578.03,-373 588.24,-380.01 581.41,-388.54 588.03,-399 591.74,-404.84 625.21,-440.27 631.03,-444 638.07,-448.51 645.94,-452.36 653.92,-455.62"/>
<polygon fill="#999999" stroke="#999999" points="653.59,-457.37 658.89,-457.57 654.87,-454.11 653.59,-457.37"/>
</g>
<!-- L4YAML.Proofs.CouplingBridge.ScannerSurfCorr.chars_from&#45;&gt;L4YAML.Surface.SurfPos -->
<g id="edge18" class="edge">
<title>L4YAML.Proofs.CouplingBridge.ScannerSurfCorr.chars_from&#45;&gt;L4YAML.Surface.SurfPos</title>
<path fill="none" stroke="#999999" stroke-dasharray="1,5" d="M211.13,-373.71C244.15,-359.72 290.8,-342.38 333.81,-335 440.79,-316.65 474.51,-302.37 578.03,-335 583.21,-336.63 583.02,-339.93 588.03,-342 610.85,-351.4 637.75,-356.6 660.44,-359.46"/>
<polygon fill="#999999" stroke="#999999" points="660.34,-361.21 665.51,-360.08 660.76,-357.74 660.34,-361.21"/>
</g>
<!-- L4YAML.Proofs.CouplingBridge.ScannerSurfCorr.chars_from&#45;&gt;L4YAML.Proofs.CouplingBridge.CharsFromOffset -->
<g id="edge20" class="edge">
<title>L4YAML.Proofs.CouplingBridge.ScannerSurfCorr.chars_from&#45;&gt;L4YAML.Proofs.CouplingBridge.CharsFromOffset</title>
<path fill="none" stroke="#999999" stroke-dasharray="1,5" d="M263.24,-410.17C283.37,-414.18 304.38,-418.83 323.81,-424 352.1,-431.53 382.99,-441.96 408.23,-451.09"/>
<polygon fill="#999999" stroke="#999999" points="407.91,-452.83 413.2,-452.89 409.1,-449.54 407.91,-452.83"/>
</g>
<!-- L4YAML.Proofs.CouplingBridge.ScannerSurfCorr.chars_from&#45;&gt;L4YAML.Surface.SurfPos.chars -->
<g id="edge14" class="edge">
<title>L4YAML.Proofs.CouplingBridge.ScannerSurfCorr.chars_from&#45;&gt;L4YAML.Surface.SurfPos.chars</title>
<path fill="none" stroke="#999999" stroke-dasharray="1,5" d="M178.66,-372.86C203.15,-331.27 264.15,-239.85 344.81,-205 399.54,-181.36 559.7,-182.37 613.03,-209 623.44,-214.2 621.25,-221.7 631.03,-228 635.96,-231.17 641.29,-234.01 646.79,-236.55"/>
<polygon fill="#999999" stroke="#999999" points="646.16,-238.19 651.44,-238.62 647.58,-234.99 646.16,-238.19"/>
</g>
<!-- L4YAML.Proofs.CouplingBridge.ScannerSurfCorr.chars_from&#45;&gt;L4YAML.Proofs.CouplingBridge.peek_corr -->
<g id="edge10" class="edge">
<title>L4YAML.Proofs.CouplingBridge.ScannerSurfCorr.chars_from&#45;&gt;L4YAML.Proofs.CouplingBridge.peek_corr</title>
<path fill="none" stroke="#28a745" d="M188.79,-372.79C222.91,-338.46 288.53,-267.14 323.81,-194 332.15,-176.72 320.59,-165.91 333.81,-152 341.99,-143.4 352.05,-136.76 362.89,-131.65"/>
<polygon fill="#28a745" stroke="#28a745" points="363.92,-133.87 369.35,-128.81 361.95,-129.38 363.92,-133.87"/>
</g>
<!-- L4YAML.Proofs.CouplingBridge.ScannerSurfCorr.end_eq -->
<g id="node12" class="node">
<title>L4YAML.Proofs.CouplingBridge.ScannerSurfCorr.end_eq</title>
<ellipse fill="#d4edda" stroke="#28a745" cx="165.91" cy="-454" rx="137.36" ry="21.43"/>
<text text-anchor="middle" x="165.91" y="-457" font-family="Helvetica" font-size="10.00">CouplingBridge.ScannerSurfCorr.end_eq</text>
<text text-anchor="middle" x="165.91" y="-446" font-family="Helvetica" font-size="10.00">(CouplingBridge)</text>
</g>
<!-- L4YAML.Proofs.CouplingBridge.ScannerSurfCorr.end_eq&#45;&gt;L4YAML.Scanner.ScannerState.input -->
<g id="edge25" class="edge">
<title>L4YAML.Proofs.CouplingBridge.ScannerSurfCorr.end_eq&#45;&gt;L4YAML.Scanner.ScannerState.input</title>
<path fill="none" stroke="#999999" stroke-dasharray="1,5" d="M270.74,-467.78C288.8,-471.88 307.13,-477.17 323.81,-484 334.19,-488.25 334.52,-493.54 344.81,-498 364.17,-506.38 386.52,-512.38 406.38,-516.55"/>
<polygon fill="#999999" stroke="#999999" points="406.13,-518.29 411.38,-517.58 406.83,-514.86 406.13,-518.29"/>
</g>
<!-- L4YAML.Proofs.CouplingBridge.ScannerSurfCorr.end_eq&#45;&gt;L4YAML.Scanner.ScannerState -->
<g id="edge23" class="edge">
<title>L4YAML.Proofs.CouplingBridge.ScannerSurfCorr.end_eq&#45;&gt;L4YAML.Scanner.ScannerState</title>
<path fill="none" stroke="#999999" stroke-dasharray="1,5" d="M276.22,-441.37C379.32,-431.24 525.61,-422 578.03,-444 609.04,-457.01 602.6,-480.05 631.03,-498 642.12,-504.99 655.23,-510.43 667.53,-514.52"/>
<polygon fill="#999999" stroke="#999999" points="667.09,-516.22 672.38,-516.09 668.16,-512.89 667.09,-516.22"/>
</g>
<!-- L4YAML.Proofs.CouplingBridge.ScannerSurfCorr.end_eq&#45;&gt;L4YAML.Proofs.CouplingBridge.ScannerSurfCorr -->
<g id="edge21" class="edge">
<title>L4YAML.Proofs.CouplingBridge.ScannerSurfCorr.end_eq&#45;&gt;L4YAML.Proofs.CouplingBridge.ScannerSurfCorr</title>
<path fill="none" stroke="#999999" stroke-dasharray="1,5" d="M267.32,-439.56C286.37,-435.49 305.92,-430.38 323.81,-424 449.58,-379.16 458.59,-313.78 588.03,-281 598.8,-278.27 602.03,-279.44 613.03,-281 625.92,-282.83 639.49,-285.97 652.25,-289.51"/>
<polygon fill="#999999" stroke="#999999" points="652,-291.25 657.28,-290.93 652.95,-287.89 652,-291.25"/>
</g>
<!-- L4YAML.Proofs.CouplingBridge.ScannerSurfCorr.end_eq&#45;&gt;L4YAML.Surface.SurfPos -->
<g id="edge24" class="edge">
<title>L4YAML.Proofs.CouplingBridge.ScannerSurfCorr.end_eq&#45;&gt;L4YAML.Surface.SurfPos</title>
<path fill="none" stroke="#999999" stroke-dasharray="1,5" d="M289.3,-463.5C301.93,-468.38 313.79,-475.03 323.81,-484 335.6,-494.55 332.18,-542.48 344.81,-552 392.42,-587.88 568.68,-596.83 613.03,-557 640.81,-532.06 607.75,-419.18 631.03,-390 638.43,-380.73 649.17,-374.64 660.35,-370.62"/>
<polygon fill="#999999" stroke="#999999" points="660.97,-372.26 665.16,-369.03 659.87,-368.94 660.97,-372.26"/>
</g>
<!-- L4YAML.Proofs.CouplingBridge.ScannerSurfCorr.end_eq&#45;&gt;L4YAML.Scanner.ScannerState.inputEnd -->
<g id="edge22" class="edge">
<title>L4YAML.Proofs.CouplingBridge.ScannerSurfCorr.end_eq&#45;&gt;L4YAML.Scanner.ScannerState.inputEnd</title>
<path fill="none" stroke="#999999" stroke-dasharray="1,5" d="M292.67,-462.28C304.38,-467.44 315.11,-474.49 323.81,-484 338.74,-500.31 318.81,-566.76 333.81,-583 375.96,-628.62 566.59,-636.23 613.03,-595 638.3,-572.56 609.81,-470.3 631.03,-444 635.43,-438.55 640.99,-434.19 647.11,-430.72"/>
<polygon fill="#999999" stroke="#999999" points="648.27,-432.09 651.89,-428.22 646.65,-428.98 648.27,-432.09"/>
</g>
<!-- L4YAML.Proofs.CouplingBridge.ScannerSurfCorr.end_eq&#45;&gt;L4YAML.Proofs.CouplingBridge.peek_corr -->
<g id="edge9" class="edge">
<title>L4YAML.Proofs.CouplingBridge.ScannerSurfCorr.end_eq&#45;&gt;L4YAML.Proofs.CouplingBridge.peek_corr</title>
<path fill="none" stroke="#28a745" d="M293.45,-445.92C304.94,-440.7 315.4,-433.59 323.81,-424 336.37,-409.69 331.99,-271.95 333.81,-253 337.33,-216.4 323.25,-200.79 344.81,-171 355.78,-155.85 371.97,-144.61 388.78,-136.36"/>
<polygon fill="#28a745" stroke="#28a745" points="390.19,-138.4 395.5,-133.22 388.12,-133.96 390.19,-138.4"/>
</g>
<!-- L4YAML.Proofs.CouplingBridge.peek_corr._proof_1_3 -->
<g id="node13" class="node">
<title>L4YAML.Proofs.CouplingBridge.peek_corr._proof_1_3</title>
<ellipse fill="#d4edda" stroke="#28a745" cx="165.91" cy="-514" rx="126.64" ry="21.43"/>
<text text-anchor="middle" x="165.91" y="-517" font-family="Helvetica" font-size="10.00">CouplingBridge.peek_corr._proof_1_3</text>
<text text-anchor="middle" x="165.91" y="-506" font-family="Helvetica" font-size="10.00">(CouplingBridge)</text>
</g>
<!-- L4YAML.Proofs.CouplingBridge.peek_corr._proof_1_3&#45;&gt;L4YAML.Scanner.ScannerState.input -->
<g id="edge28" class="edge">
<title>L4YAML.Proofs.CouplingBridge.peek_corr._proof_1_3&#45;&gt;L4YAML.Scanner.ScannerState.input</title>
<path fill="none" stroke="#999999" stroke-dasharray="1,5" d="M239.34,-531.33C268.83,-536.67 303.33,-540.75 334.81,-539 358.24,-537.7 384.01,-535.04 406.08,-532.39"/>
<polygon fill="#999999" stroke="#999999" points="406.56,-534.09 411.31,-531.75 406.14,-530.62 406.56,-534.09"/>
</g>
<!-- L4YAML.Proofs.CouplingBridge.peek_corr._proof_1_3&#45;&gt;L4YAML.Scanner.ScannerState -->
<g id="edge27" class="edge">
<title>L4YAML.Proofs.CouplingBridge.peek_corr._proof_1_3&#45;&gt;L4YAML.Scanner.ScannerState</title>
<path fill="none" stroke="#999999" stroke-dasharray="1,5" d="M182.78,-535.25C209.55,-569.16 267.31,-634.39 333.81,-661 438.79,-703.01 474.98,-668.78 588.03,-671 599.14,-671.22 603.25,-676.26 613.03,-671 661.75,-644.8 689.98,-582.03 702.22,-547.95"/>
<polygon fill="#999999" stroke="#999999" points="703.91,-548.44 703.91,-543.14 700.61,-547.28 703.91,-548.44"/>
</g>
<!-- L4YAML.Proofs.CouplingBridge.peek_corr._proof_1_3&#45;&gt;L4YAML.Scanner.ScannerState.offset -->
<g id="edge26" class="edge">
<title>L4YAML.Proofs.CouplingBridge.peek_corr._proof_1_3&#45;&gt;L4YAML.Scanner.ScannerState.offset</title>
<path fill="none" stroke="#999999" stroke-dasharray="1,5" d="M192.36,-534.95C225.23,-560.61 285.33,-602.9 344.81,-621 401.89,-638.37 568.14,-672.3 613.03,-633 658.58,-593.13 592.69,-544.84 631.03,-498 637.04,-490.66 645.15,-485.31 653.88,-481.41"/>
<polygon fill="#999999" stroke="#999999" points="654.83,-482.91 658.78,-479.39 653.49,-479.68 654.83,-482.91"/>
</g>
<!-- L4YAML.Proofs.CouplingBridge.peek_corr._proof_1_3&#45;&gt;L4YAML.Proofs.CouplingBridge.peek_corr -->
<g id="edge8" class="edge">
<title>L4YAML.Proofs.CouplingBridge.peek_corr._proof_1_3&#45;&gt;L4YAML.Proofs.CouplingBridge.peek_corr</title>
<path fill="none" stroke="#28a745" d="M288.05,-508.09C301.64,-502.74 314.07,-495.01 323.81,-484 346.91,-457.9 325.32,-199.9 344.81,-171 355.16,-155.66 370.95,-144.38 387.56,-136.14"/>
<polygon fill="#28a745" stroke="#28a745" points="388.92,-138.21 394.21,-133.01 386.83,-133.77 388.92,-138.21"/>
</g>
<!-- Classical.byContradiction -->
<g id="node14" class="node">
<title>Classical.byContradiction</title>
<ellipse fill="#fdebd0" stroke="#e67e22" cx="165.91" cy="-34" rx="75.2" ry="18"/>
<text text-anchor="middle" x="165.91" y="-31.5" font-family="Helvetica" font-size="10.00">Classical.byContradiction</text>
</g>
<!-- Classical.byContradiction&#45;&gt;L4YAML.Proofs.CouplingBridge.peek_corr -->
<g id="edge11" class="edge">
<title>Classical.byContradiction&#45;&gt;L4YAML.Proofs.CouplingBridge.peek_corr</title>
<path fill="none" stroke="#e67e22" stroke-width="2" d="M233.23,-42.32C261.45,-46.65 294.54,-52.79 323.81,-61 351.88,-68.87 382.11,-80.48 406.98,-90.91"/>
<polygon fill="#e67e22" stroke="#e67e22" stroke-width="2" points="406.12,-93.21 413.52,-93.68 408.03,-88.69 406.12,-93.21"/>
</g>
<!-- eq_self -->
<g id="node15" class="node">
<title>eq_self</title>
<ellipse fill="#fdebd0" stroke="#e67e22" cx="165.91" cy="-142" rx="28.01" ry="18"/>
<text text-anchor="middle" x="165.91" y="-139.5" font-family="Helvetica" font-size="10.00">eq_self</text>
</g>
<!-- eq_self&#45;&gt;L4YAML.Proofs.CouplingBridge.peek_corr -->
<g id="edge12" class="edge">
<title>eq_self&#45;&gt;L4YAML.Proofs.CouplingBridge.peek_corr</title>
<path fill="none" stroke="#e67e22" stroke-width="2" d="M193.99,-139.51C228.49,-136.33 290.3,-130.65 345.7,-125.55"/>
<polygon fill="#e67e22" stroke="#e67e22" stroke-width="2" points="346.02,-127.98 352.77,-124.9 345.57,-123.1 346.02,-127.98"/>
</g>
<!-- of_eq_true -->
<g id="node16" class="node">
<title>of_eq_true</title>
<ellipse fill="#fdebd0" stroke="#e67e22" cx="165.91" cy="-88" rx="36.49" ry="18"/>
<text text-anchor="middle" x="165.91" y="-85.5" font-family="Helvetica" font-size="10.00">of_eq_true</text>
</g>
<!-- of_eq_true&#45;&gt;L4YAML.Proofs.CouplingBridge.peek_corr -->
<g id="edge13" class="edge">
<title>of_eq_true&#45;&gt;L4YAML.Proofs.CouplingBridge.peek_corr</title>
<path fill="none" stroke="#e67e22" stroke-width="2" d="M202.02,-91.23C237.48,-94.49 294.19,-99.71 345.47,-104.43"/>
<polygon fill="#e67e22" stroke="#e67e22" stroke-width="2" points="345.47,-106.89 352.66,-105.09 345.92,-102.01 345.47,-106.89"/>
</g>
</g>
</svg>
