<?xml version="1.0" encoding="UTF-8" standalone="no"?>
<!DOCTYPE svg PUBLIC "-//W3C//DTD SVG 1.1//EN"
 "http://www.w3.org/Graphics/SVG/1.1/DTD/svg11.dtd">
<!-- Generated by graphviz version 2.44.0 (0)
 -->
<!-- Title: CouplingBridge.chars_from_zero_toList Pages: 1 -->
<svg width="947pt" height="1130pt"
 viewBox="0.00 0.00 947.42 1130.00" xmlns="http://www.w3.org/2000/svg" xmlns:xlink="http://www.w3.org/1999/xlink">
<g id="graph0" class="graph" transform="scale(1 1) rotate(0) translate(4 1126)">
<title>CouplingBridge.chars_from_zero_toList</title>
<polygon fill="white" stroke="transparent" points="-4,4 -4,-1126 943.42,-1126 943.42,4 -4,4"/>
<text text-anchor="middle" x="469.71" y="-1107.6" font-family="Helvetica Bold" font-size="13.00">CouplingBridge.chars_from_zero_toList</text>
<text text-anchor="middle" x="469.71" y="-1093.6" font-family="Helvetica Bold" font-size="13.00">(heuristic: used by 13 proofs)</text>
<text text-anchor="middle" x="469.71" y="-1079.6" font-family="Helvetica Bold" font-size="13.00">(L4YAML.Proofs.CouplingBridge)</text>
<g id="clust1" class="cluster">
<title>cluster_functions</title>
<polygon fill="none" stroke="#4a90d9" stroke-dasharray="5,2" points="469,-867 469,-941 931.42,-941 931.42,-867 469,-867"/>
<text text-anchor="middle" x="700.21" y="-926.6" font-family="Helvetica Bold" font-size="13.00" fill="#4a90d9">Functions</text>
</g>
<g id="clust2" class="cluster">
<title>cluster_key</title>
<polygon fill="none" stroke="#d4a017" stroke-dasharray="5,2" points="381.58,-490 381.58,-572 709.42,-572 709.42,-490 381.58,-490"/>
<text text-anchor="middle" x="545.5" y="-557.6" font-family="Helvetica Bold" font-size="13.00" fill="#d4a017">Key Theorem</text>
</g>
<g id="clust3" class="cluster">
<title>cluster_proofs</title>
<polygon fill="none" stroke="#28a745" stroke-dasharray="5,2" points="8,-684 8,-1064 360.58,-1064 360.58,-684 8,-684"/>
<text text-anchor="middle" x="184.29" y="-1049.6" font-family="Helvetica Bold" font-size="13.00" fill="#28a745">Proof Dependencies</text>
</g>
<g id="clust4" class="cluster">
<title>cluster_stdlib</title>
<polygon fill="none" stroke="#e67e22" stroke-dasharray="5,2" points="83.28,-8 83.28,-676 285.3,-676 285.3,-8 83.28,-8"/>
<text text-anchor="middle" x="184.29" y="-661.6" font-family="Helvetica Bold" font-size="13.00" fill="#e67e22">Stdlib Lemmas</text>
</g>
<!-- L4YAML.Proofs.CouplingBridge.CharsFromOffset -->
<g id="node1" class="node">
<title>L4YAML.Proofs.CouplingBridge.CharsFromOffset</title>
<g id="a_node1"><a xlink:href="../../../api/L4YAML/Proofs/CouplingBridge.html#L4YAML.Proofs.CouplingBridge.CharsFromOffset" xlink:title="CouplingBridge.CharsFromOffset\n(inductive)" target="_blank">
<polygon fill="#dce9f7" stroke="#4a90d9" points="923.42,-911 762.42,-911 762.42,-875 923.42,-875 923.42,-911"/>
<text text-anchor="middle" x="842.92" y="-896" font-family="Helvetica" font-size="10.00">CouplingBridge.CharsFromOffset</text>
<text text-anchor="middle" x="842.92" y="-885" font-family="Helvetica" font-size="10.00">(inductive)</text>
</a>
</g>
</g>
<!-- L4YAML.Proofs.CouplingBridge.listByteSize -->
<g id="node2" class="node">
<title>L4YAML.Proofs.CouplingBridge.listByteSize</title>
<g id="a_node2"><a xlink:href="../../../api/L4YAML/Proofs/CouplingBridge.html#L4YAML.Proofs.CouplingBridge.listByteSize" xlink:title="CouplingBridge.listByteSize\n(def)" target="_blank">
<polygon fill="#dce9f7" stroke="#4a90d9" points="614,-911 477,-911 477,-875 614,-875 614,-911"/>
<text text-anchor="middle" x="545.5" y="-896" font-family="Helvetica" font-size="10.00">CouplingBridge.listByteSize</text>
<text text-anchor="middle" x="545.5" y="-885" font-family="Helvetica" font-size="10.00">(def)</text>
</a>
</g>
</g>
<!-- L4YAML.Proofs.CouplingBridge.chars_from_zero_toList -->
<g id="node3" class="node">
<title>L4YAML.Proofs.CouplingBridge.chars_from_zero_toList</title>
<g id="a_node3"><a xlink:href="../../../api/L4YAML/Proofs/CouplingBridge.html#L4YAML.Proofs.CouplingBridge.chars_from_zero_toList" xlink:title="CouplingBridge.chars_from_zero_toList" target="_blank">
<polygon fill="#fff3cd" stroke="#d4a017" points="697.34,-512.54 697.34,-527.46 608.39,-538 482.61,-538 393.66,-527.46 393.66,-512.54 482.61,-502 608.39,-502 697.34,-512.54"/>
<polygon fill="none" stroke="#d4a017" points="701.34,-508.99 701.34,-531.01 608.63,-542 482.37,-542 389.66,-531.01 389.66,-508.99 482.37,-498 608.63,-498 701.34,-508.99"/>
<text text-anchor="middle" x="545.5" y="-516.9" font-family="Helvetica" font-size="12.00">CouplingBridge.chars_from_zero_toList</text>
</a>
</g>
</g>
<!-- L4YAML.Proofs.CouplingBridge.chars_from_zero_toList&#45;&gt;L4YAML.Proofs.CouplingBridge.CharsFromOffset -->
<g id="edge1" class="edge">
<title>L4YAML.Proofs.CouplingBridge.chars_from_zero_toList&#45;&gt;L4YAML.Proofs.CouplingBridge.CharsFromOffset</title>
<path fill="none" stroke="#4a90d9" stroke-width="2" d="M564.1,-542.22C616.18,-607.98 769.32,-801.33 823.03,-869.16"/>
<polygon fill="#4a90d9" stroke="#4a90d9" stroke-width="2" points="821.35,-870.98 827.62,-874.95 825.19,-867.94 821.35,-870.98"/>
<text text-anchor="middle" x="731.92" y="-763.6" font-family="Times-Roman" font-size="8.00" fill="#4a90d9">about</text>
</g>
<!-- L4YAML.Proofs.CouplingBridge.utf8ByteSize_eq_listByteSize -->
<g id="node4" class="node">
<title>L4YAML.Proofs.CouplingBridge.utf8ByteSize_eq_listByteSize</title>
<g id="a_node4"><a xlink:href="../../../api/L4YAML/Proofs/CouplingBridge.html#L4YAML.Proofs.CouplingBridge.utf8ByteSize_eq_listByteSize" xlink:title="CouplingBridge.utf8ByteSize_eq_listByteSize\n(CouplingBridge)" target="_blank">
<ellipse fill="#d4edda" stroke="#28a745" cx="184.29" cy="-1013" rx="151.14" ry="21.43"/>
<text text-anchor="middle" x="184.29" y="-1016" font-family="Helvetica" font-size="10.00">CouplingBridge.utf8ByteSize_eq_listByteSize</text>
<text text-anchor="middle" x="184.29" y="-1005" font-family="Helvetica" font-size="10.00">(CouplingBridge)</text>
</a>
</g>
</g>
<!-- L4YAML.Proofs.CouplingBridge.utf8ByteSize_eq_listByteSize&#45;&gt;L4YAML.Proofs.CouplingBridge.listByteSize -->
<g id="edge20" class="edge">
<title>L4YAML.Proofs.CouplingBridge.utf8ByteSize_eq_listByteSize&#45;&gt;L4YAML.Proofs.CouplingBridge.listByteSize</title>
<path fill="none" stroke="#999999" stroke-dasharray="1,5" d="M327.01,-1005.87C342.25,-1003.17 357.37,-999.63 371.58,-995 427.41,-976.83 484.63,-938.41 517.24,-914.26"/>
<polygon fill="#999999" stroke="#999999" points="518.52,-915.49 521.48,-911.1 516.43,-912.68 518.52,-915.49"/>
</g>
<!-- L4YAML.Proofs.CouplingBridge.utf8ByteSize_eq_listByteSize&#45;&gt;L4YAML.Proofs.CouplingBridge.chars_from_zero_toList -->
<g id="edge6" class="edge">
<title>L4YAML.Proofs.CouplingBridge.utf8ByteSize_eq_listByteSize&#45;&gt;L4YAML.Proofs.CouplingBridge.chars_from_zero_toList</title>
<path fill="none" stroke="#28a745" d="M326.07,-1005.33C338.85,-1000 350.69,-992.75 360.58,-983 399.15,-945 365.43,-914.68 381.58,-863 419.84,-740.61 494.01,-606.2 527.44,-548.68"/>
<polygon fill="#28a745" stroke="#28a745" points="529.7,-549.66 531.12,-542.38 525.47,-547.19 529.7,-549.66"/>
</g>
<!-- L4YAML.Proofs.CouplingBridge.listByteSize_append -->
<g id="node5" class="node">
<title>L4YAML.Proofs.CouplingBridge.listByteSize_append</title>
<g id="a_node5"><a xlink:href="../../../api/L4YAML/Proofs/CouplingBridge.html#L4YAML.Proofs.CouplingBridge.listByteSize_append" xlink:title="CouplingBridge.listByteSize_append\n(CouplingBridge)" target="_blank">
<ellipse fill="#d4edda" stroke="#28a745" cx="184.29" cy="-953" rx="123.07" ry="21.43"/>
<text text-anchor="middle" x="184.29" y="-956" font-family="Helvetica" font-size="10.00">CouplingBridge.listByteSize_append</text>
<text text-anchor="middle" x="184.29" y="-945" font-family="Helvetica" font-size="10.00">(CouplingBridge)</text>
</a>
</g>
</g>
<!-- L4YAML.Proofs.CouplingBridge.listByteSize_append&#45;&gt;L4YAML.Proofs.CouplingBridge.listByteSize -->
<g id="edge21" class="edge">
<title>L4YAML.Proofs.CouplingBridge.listByteSize_append&#45;&gt;L4YAML.Proofs.CouplingBridge.listByteSize</title>
<path fill="none" stroke="#999999" stroke-dasharray="1,5" d="M299.44,-945.36C323.36,-942.99 348.37,-939.92 371.58,-936 406.62,-930.08 445.02,-920.82 476.72,-912.4"/>
<polygon fill="#999999" stroke="#999999" points="477.37,-914.04 481.75,-911.06 476.47,-910.66 477.37,-914.04"/>
</g>
<!-- L4YAML.Proofs.CouplingBridge.listByteSize_append&#45;&gt;L4YAML.Proofs.CouplingBridge.chars_from_zero_toList -->
<g id="edge5" class="edge">
<title>L4YAML.Proofs.CouplingBridge.listByteSize_append&#45;&gt;L4YAML.Proofs.CouplingBridge.chars_from_zero_toList</title>
<path fill="none" stroke="#28a745" d="M305.92,-949.69C325.83,-944.52 345.02,-936.16 360.58,-923 382.16,-904.76 370.84,-889.13 381.58,-863 430.58,-743.82 499.74,-606.67 529.7,-548.47"/>
<polygon fill="#28a745" stroke="#28a745" points="531.95,-549.45 532.99,-542.1 527.6,-547.2 531.95,-549.45"/>
</g>
<!-- L4YAML.Proofs.CouplingBridge.utf8GetAux_at_boundary -->
<g id="node6" class="node">
<title>L4YAML.Proofs.CouplingBridge.utf8GetAux_at_boundary</title>
<g id="a_node6"><a xlink:href="../../../api/L4YAML/Proofs/CouplingBridge.html#L4YAML.Proofs.CouplingBridge.utf8GetAux_at_boundary" xlink:title="CouplingBridge.utf8GetAux_at_boundary\n(CouplingBridge)" target="_blank">
<ellipse fill="#d4edda" stroke="#28a745" cx="184.29" cy="-893" rx="137.36" ry="21.43"/>
<text text-anchor="middle" x="184.29" y="-896" font-family="Helvetica" font-size="10.00">CouplingBridge.utf8GetAux_at_boundary</text>
<text text-anchor="middle" x="184.29" y="-885" font-family="Helvetica" font-size="10.00">(CouplingBridge)</text>
</a>
</g>
</g>
<!-- L4YAML.Proofs.CouplingBridge.utf8GetAux_at_boundary&#45;&gt;L4YAML.Proofs.CouplingBridge.listByteSize -->
<g id="edge22" class="edge">
<title>L4YAML.Proofs.CouplingBridge.utf8GetAux_at_boundary&#45;&gt;L4YAML.Proofs.CouplingBridge.listByteSize</title>
<path fill="none" stroke="#999999" stroke-dasharray="1,5" d="M321.61,-893C372.53,-893 428.39,-893 471.45,-893"/>
<polygon fill="#999999" stroke="#999999" points="471.63,-894.75 476.63,-893 471.63,-891.25 471.63,-894.75"/>
</g>
<!-- L4YAML.Proofs.CouplingBridge.utf8GetAux_at_boundary&#45;&gt;L4YAML.Proofs.CouplingBridge.chars_from_zero_toList -->
<g id="edge4" class="edge">
<title>L4YAML.Proofs.CouplingBridge.utf8GetAux_at_boundary&#45;&gt;L4YAML.Proofs.CouplingBridge.chars_from_zero_toList</title>
<path fill="none" stroke="#28a745" d="M312.49,-885.44C329.69,-880.47 346.3,-873.28 360.58,-863 471.16,-783.38 521.65,-616.37 538.1,-549.05"/>
<polygon fill="#28a745" stroke="#28a745" points="540.52,-549.47 539.77,-542.09 535.76,-548.33 540.52,-549.47"/>
</g>
<!-- L4YAML.Proofs.CouplingBridge.get_eq_utf8GetAux -->
<g id="node7" class="node">
<title>L4YAML.Proofs.CouplingBridge.get_eq_utf8GetAux</title>
<g id="a_node7"><a xlink:href="../../../api/L4YAML/Proofs/CouplingBridge.html#L4YAML.Proofs.CouplingBridge.get_eq_utf8GetAux" xlink:title="CouplingBridge.get_eq_utf8GetAux\n(CouplingBridge)" target="_blank">
<ellipse fill="#d4edda" stroke="#28a745" cx="184.29" cy="-773" rx="120.42" ry="21.43"/>
<text text-anchor="middle" x="184.29" y="-776" font-family="Helvetica" font-size="10.00">CouplingBridge.get_eq_utf8GetAux</text>
<text text-anchor="middle" x="184.29" y="-765" font-family="Helvetica" font-size="10.00">(CouplingBridge)</text>
</a>
</g>
</g>
<!-- L4YAML.Proofs.CouplingBridge.get_eq_utf8GetAux&#45;&gt;L4YAML.Proofs.CouplingBridge.chars_from_zero_toList -->
<g id="edge7" class="edge">
<title>L4YAML.Proofs.CouplingBridge.get_eq_utf8GetAux&#45;&gt;L4YAML.Proofs.CouplingBridge.chars_from_zero_toList</title>
<path fill="none" stroke="#28a745" d="M297.9,-765.87C319.69,-761.2 341.62,-753.99 360.58,-743 442.44,-695.55 503.48,-597.04 529.97,-548.41"/>
<polygon fill="#28a745" stroke="#28a745" points="532.17,-549.5 533.33,-542.17 527.85,-547.18 532.17,-549.5"/>
</g>
<!-- L4YAML.Proofs.CouplingBridge.next_byteIdx -->
<g id="node8" class="node">
<title>L4YAML.Proofs.CouplingBridge.next_byteIdx</title>
<g id="a_node8"><a xlink:href="../../../api/L4YAML/Proofs/CouplingBridge.html#L4YAML.Proofs.CouplingBridge.next_byteIdx" xlink:title="CouplingBridge.next_byteIdx\n(CouplingBridge)" target="_blank">
<ellipse fill="#d4edda" stroke="#28a745" cx="184.29" cy="-713" rx="100.32" ry="21.43"/>
<text text-anchor="middle" x="184.29" y="-716" font-family="Helvetica" font-size="10.00">CouplingBridge.next_byteIdx</text>
<text text-anchor="middle" x="184.29" y="-705" font-family="Helvetica" font-size="10.00">(CouplingBridge)</text>
</a>
</g>
</g>
<!-- L4YAML.Proofs.CouplingBridge.next_byteIdx&#45;&gt;L4YAML.Proofs.CouplingBridge.chars_from_zero_toList -->
<g id="edge3" class="edge">
<title>L4YAML.Proofs.CouplingBridge.next_byteIdx&#45;&gt;L4YAML.Proofs.CouplingBridge.chars_from_zero_toList</title>
<path fill="none" stroke="#28a745" d="M277.37,-705.01C305.09,-700.17 334.94,-692.42 360.58,-680 427.47,-647.61 489.13,-584.37 521.27,-547.84"/>
<polygon fill="#28a745" stroke="#28a745" points="523.42,-549.11 526.17,-542.22 519.72,-545.89 523.42,-549.11"/>
</g>
<!-- L4YAML.Proofs.CouplingBridge.chars_from_zero_toList._proof_1_4 -->
<g id="node9" class="node">
<title>L4YAML.Proofs.CouplingBridge.chars_from_zero_toList._proof_1_4</title>
<g id="a_node9"><a xlink:href="../../../api/L4YAML/Proofs/CouplingBridge.html#L4YAML.Proofs.CouplingBridge.chars_from_zero_toList._proof_1_4" xlink:title="CouplingBridge.chars_from_zero_toList._proof_1_4\n(CouplingBridge)" target="_blank">
<ellipse fill="#d4edda" stroke="#28a745" cx="184.29" cy="-833" rx="168.08" ry="21.43"/>
<text text-anchor="middle" x="184.29" y="-836" font-family="Helvetica" font-size="10.00">CouplingBridge.chars_from_zero_toList._proof_1_4</text>
<text text-anchor="middle" x="184.29" y="-825" font-family="Helvetica" font-size="10.00">(CouplingBridge)</text>
</a>
</g>
</g>
<!-- L4YAML.Proofs.CouplingBridge.chars_from_zero_toList._proof_1_4&#45;&gt;L4YAML.Proofs.CouplingBridge.listByteSize -->
<g id="edge23" class="edge">
<title>L4YAML.Proofs.CouplingBridge.chars_from_zero_toList._proof_1_4&#45;&gt;L4YAML.Proofs.CouplingBridge.listByteSize</title>
<path fill="none" stroke="#999999" stroke-dasharray="1,5" d="M286.31,-849.87C345.31,-859.73 418.4,-871.94 471.74,-880.85"/>
<polygon fill="#999999" stroke="#999999" points="471.62,-882.6 476.84,-881.7 472.2,-879.15 471.62,-882.6"/>
</g>
<!-- L4YAML.Proofs.CouplingBridge.chars_from_zero_toList._proof_1_4&#45;&gt;L4YAML.Proofs.CouplingBridge.chars_from_zero_toList -->
<g id="edge2" class="edge">
<title>L4YAML.Proofs.CouplingBridge.chars_from_zero_toList._proof_1_4&#45;&gt;L4YAML.Proofs.CouplingBridge.chars_from_zero_toList</title>
<path fill="none" stroke="#28a745" d="M323.03,-820.87C336.32,-816.39 349.11,-810.55 360.58,-803 456.54,-739.86 513.38,-607.48 534.75,-548.92"/>
<polygon fill="#28a745" stroke="#28a745" points="537.12,-549.57 537.18,-542.15 532.51,-547.91 537.12,-549.57"/>
</g>
<!-- Lean.Grind.instIsPreorderNat -->
<g id="node10" class="node">
<title>Lean.Grind.instIsPreorderNat</title>
<g id="a_node10"><a xlink:href="../../../api/Init/GrindInstances/Ring/Nat.html#Lean.Grind.instIsPreorderNat" xlink:title="Lean.Grind.instIsPreorderNat" target="_blank">
<ellipse fill="#fdebd0" stroke="#e67e22" cx="184.29" cy="-196" rx="84.36" ry="18"/>
<text text-anchor="middle" x="184.29" y="-193.5" font-family="Helvetica" font-size="10.00">Lean.Grind.instIsPreorderNat</text>
</a>
</g>
</g>
<!-- Lean.Grind.instIsPreorderNat&#45;&gt;L4YAML.Proofs.CouplingBridge.chars_from_zero_toList -->
<g id="edge8" class="edge">
<title>Lean.Grind.instIsPreorderNat&#45;&gt;L4YAML.Proofs.CouplingBridge.chars_from_zero_toList</title>
<path fill="none" stroke="#e67e22" stroke-width="2" d="M260.93,-188.54C295.82,-189.39 335.06,-197.14 360.58,-223 382.97,-245.68 358.23,-264.62 370.58,-294 404.82,-375.46 475.86,-453.19 515.74,-492.79"/>
<polygon fill="#e67e22" stroke="#e67e22" stroke-width="2" points="514.21,-494.73 520.92,-497.89 517.65,-491.24 514.21,-494.73"/>
</g>
<!-- List.append_assoc -->
<g id="node11" class="node">
<title>List.append_assoc</title>
<g id="a_node11"><a xlink:href="../../../api/Init/Data/List/Basic.html#List.append_assoc" xlink:title="List.append_assoc" target="_blank">
<ellipse fill="#fdebd0" stroke="#e67e22" cx="184.29" cy="-142" rx="57.88" ry="18"/>
<text text-anchor="middle" x="184.29" y="-139.5" font-family="Helvetica" font-size="10.00">List.append_assoc</text>
</a>
</g>
</g>
<!-- List.append_assoc&#45;&gt;L4YAML.Proofs.CouplingBridge.chars_from_zero_toList -->
<g id="edge9" class="edge">
<title>List.append_assoc&#45;&gt;L4YAML.Proofs.CouplingBridge.chars_from_zero_toList</title>
<path fill="none" stroke="#e67e22" stroke-width="2" d="M239.11,-136.09C277.44,-134.94 327.79,-140.08 360.58,-169 372.72,-179.7 364.42,-189.04 370.58,-204 416.51,-315.51 491.76,-438.07 526.22,-491.96"/>
<polygon fill="#e67e22" stroke="#e67e22" stroke-width="2" points="524.18,-493.31 530.02,-497.88 528.3,-490.66 524.18,-493.31"/>
</g>
<!-- Nat.lt_add_right_iff_pos._simp_1 -->
<g id="node12" class="node">
<title>Nat.lt_add_right_iff_pos._simp_1</title>
<g id="a_node12"><a xlink:href="../../../api/Init/Data/Nat/Lemmas.html#Nat.lt_add_right_iff_pos._simp_1" xlink:title="Nat.lt_add_right_iff_pos._simp_1" target="_blank">
<ellipse fill="#fdebd0" stroke="#e67e22" cx="184.29" cy="-88" rx="93.02" ry="18"/>
<text text-anchor="middle" x="184.29" y="-85.5" font-family="Helvetica" font-size="10.00">Nat.lt_add_right_iff_pos._simp_1</text>
</a>
</g>
</g>
<!-- Nat.lt_add_right_iff_pos._simp_1&#45;&gt;L4YAML.Proofs.CouplingBridge.chars_from_zero_toList -->
<g id="edge10" class="edge">
<title>Nat.lt_add_right_iff_pos._simp_1&#45;&gt;L4YAML.Proofs.CouplingBridge.chars_from_zero_toList</title>
<path fill="none" stroke="#e67e22" stroke-width="2" d="M276.61,-85.43C305.85,-88.71 336.78,-96.96 360.58,-115 487.31,-211.07 529.16,-414.64 540.69,-490.6"/>
<polygon fill="#e67e22" stroke="#e67e22" stroke-width="2" points="538.33,-491.4 541.77,-497.97 543.18,-490.69 538.33,-491.4"/>
</g>
<!-- Std.instReflLeOfIsPreorder -->
<g id="node13" class="node">
<title>Std.instReflLeOfIsPreorder</title>
<g id="a_node13"><a xlink:href="../../../api/Init/Data/Order/Lemmas.html#Std.instReflLeOfIsPreorder" xlink:title="Std.instReflLeOfIsPreorder" target="_blank">
<ellipse fill="#fdebd0" stroke="#e67e22" cx="184.29" cy="-34" rx="78.76" ry="18"/>
<text text-anchor="middle" x="184.29" y="-31.5" font-family="Helvetica" font-size="10.00">Std.instReflLeOfIsPreorder</text>
</a>
</g>
</g>
<!-- Std.instReflLeOfIsPreorder&#45;&gt;L4YAML.Proofs.CouplingBridge.chars_from_zero_toList -->
<g id="edge11" class="edge">
<title>Std.instReflLeOfIsPreorder&#45;&gt;L4YAML.Proofs.CouplingBridge.chars_from_zero_toList</title>
<path fill="none" stroke="#e67e22" stroke-width="2" d="M261.01,-29.51C294.67,-31.29 332.86,-38.98 360.58,-61 501.2,-172.69 534.81,-408.33 542.41,-490.77"/>
<polygon fill="#e67e22" stroke="#e67e22" stroke-width="2" points="539.97,-491.05 543.02,-497.81 544.85,-490.62 539.97,-491.05"/>
</g>
<!-- Std.le_refl._simp_1 -->
<g id="node14" class="node">
<title>Std.le_refl._simp_1</title>
<g id="a_node14"><a xlink:href="../../../api/Init/Data/Order/Lemmas.html#Std.le_refl._simp_1" xlink:title="Std.le_refl._simp_1" target="_blank">
<ellipse fill="#fdebd0" stroke="#e67e22" cx="184.29" cy="-628" rx="59.41" ry="18"/>
<text text-anchor="middle" x="184.29" y="-625.5" font-family="Helvetica" font-size="10.00">Std.le_refl._simp_1</text>
</a>
</g>
</g>
<!-- Std.le_refl._simp_1&#45;&gt;L4YAML.Proofs.CouplingBridge.chars_from_zero_toList -->
<g id="edge12" class="edge">
<title>Std.le_refl._simp_1&#45;&gt;L4YAML.Proofs.CouplingBridge.chars_from_zero_toList</title>
<path fill="none" stroke="#e67e22" stroke-width="2" d="M241.76,-623.1C276.52,-619.15 321.71,-612.34 360.58,-601 408.35,-587.06 459.98,-563.52 496.34,-545.39"/>
<polygon fill="#e67e22" stroke="#e67e22" stroke-width="2" points="497.79,-547.4 502.95,-542.07 495.59,-543.02 497.79,-547.4"/>
</g>
<!-- Nat.add_left_cancel_iff._simp_1 -->
<g id="node15" class="node">
<title>Nat.add_left_cancel_iff._simp_1</title>
<g id="a_node15"><a xlink:href="../../../api/Init/Data/Nat/Lemmas.html#Nat.add_left_cancel_iff._simp_1" xlink:title="Nat.add_left_cancel_iff._simp_1" target="_blank">
<ellipse fill="#fdebd0" stroke="#e67e22" cx="184.29" cy="-574" rx="91.49" ry="18"/>
<text text-anchor="middle" x="184.29" y="-571.5" font-family="Helvetica" font-size="10.00">Nat.add_left_cancel_iff._simp_1</text>
</a>
</g>
</g>
<!-- Nat.add_left_cancel_iff._simp_1&#45;&gt;L4YAML.Proofs.CouplingBridge.chars_from_zero_toList -->
<g id="edge13" class="edge">
<title>Nat.add_left_cancel_iff._simp_1&#45;&gt;L4YAML.Proofs.CouplingBridge.chars_from_zero_toList</title>
<path fill="none" stroke="#e67e22" stroke-width="2" d="M257.55,-563.14C306.37,-555.8 371.91,-545.95 428.03,-537.51"/>
<polygon fill="#e67e22" stroke="#e67e22" stroke-width="2" points="428.62,-539.9 435.18,-536.43 427.89,-535.05 428.62,-539.9"/>
</g>
<!-- ge_iff_le._simp_1 -->
<g id="node16" class="node">
<title>ge_iff_le._simp_1</title>
<g id="a_node16"><a xlink:href="../../../api/Init/Core.html#ge_iff_le._simp_1" xlink:title="ge_iff_le._simp_1" target="_blank">
<ellipse fill="#fdebd0" stroke="#e67e22" cx="184.29" cy="-520" rx="54.31" ry="18"/>
<text text-anchor="middle" x="184.29" y="-517.5" font-family="Helvetica" font-size="10.00">ge_iff_le._simp_1</text>
</a>
</g>
</g>
<!-- ge_iff_le._simp_1&#45;&gt;L4YAML.Proofs.CouplingBridge.chars_from_zero_toList -->
<g id="edge14" class="edge">
<title>ge_iff_le._simp_1&#45;&gt;L4YAML.Proofs.CouplingBridge.chars_from_zero_toList</title>
<path fill="none" stroke="#e67e22" stroke-width="2" d="M238.68,-520C276.85,-520 330.4,-520 382.05,-520"/>
<polygon fill="#e67e22" stroke="#e67e22" stroke-width="2" points="382.32,-522.45 389.32,-520 382.32,-517.55 382.32,-522.45"/>
</g>
<!-- eq_self -->
<g id="node17" class="node">
<title>eq_self</title>
<g id="a_node17"><a xlink:href="../../../api/Init/SimpLemmas.html#eq_self" xlink:title="eq_self" target="_blank">
<ellipse fill="#fdebd0" stroke="#e67e22" cx="184.29" cy="-466" rx="28.01" ry="18"/>
<text text-anchor="middle" x="184.29" y="-463.5" font-family="Helvetica" font-size="10.00">eq_self</text>
</a>
</g>
</g>
<!-- eq_self&#45;&gt;L4YAML.Proofs.CouplingBridge.chars_from_zero_toList -->
<g id="edge15" class="edge">
<title>eq_self&#45;&gt;L4YAML.Proofs.CouplingBridge.chars_from_zero_toList</title>
<path fill="none" stroke="#e67e22" stroke-width="2" d="M212,-470.01C257.12,-476.8 351.03,-490.92 427.58,-502.42"/>
<polygon fill="#e67e22" stroke="#e67e22" stroke-width="2" points="427.64,-504.91 434.93,-503.53 428.37,-500.06 427.64,-504.91"/>
</g>
<!-- Decidable.byContradiction -->
<g id="node18" class="node">
<title>Decidable.byContradiction</title>
<g id="a_node18"><a xlink:href="../../../api/Init/Core.html#Decidable.byContradiction" xlink:title="Decidable.byContradiction" target="_blank">
<ellipse fill="#fdebd0" stroke="#e67e22" cx="184.29" cy="-412" rx="77.23" ry="18"/>
<text text-anchor="middle" x="184.29" y="-409.5" font-family="Helvetica" font-size="10.00">Decidable.byContradiction</text>
</a>
</g>
</g>
<!-- Decidable.byContradiction&#45;&gt;L4YAML.Proofs.CouplingBridge.chars_from_zero_toList -->
<g id="edge16" class="edge">
<title>Decidable.byContradiction&#45;&gt;L4YAML.Proofs.CouplingBridge.chars_from_zero_toList</title>
<path fill="none" stroke="#e67e22" stroke-width="2" d="M261.25,-410.38C293.99,-412.9 331.38,-420.37 360.58,-439 367.34,-443.31 364.32,-449.01 370.58,-454 395.14,-473.56 426.12,-487.78 455.11,-497.9"/>
<polygon fill="#e67e22" stroke="#e67e22" stroke-width="2" points="454.62,-500.32 462.04,-500.26 456.2,-495.68 454.62,-500.32"/>
</g>
<!-- of_eq_true -->
<g id="node19" class="node">
<title>of_eq_true</title>
<g id="a_node19"><a xlink:href="../../../api/Init/SimpLemmas.html#of_eq_true" xlink:title="of_eq_true" target="_blank">
<ellipse fill="#fdebd0" stroke="#e67e22" cx="184.29" cy="-358" rx="36.49" ry="18"/>
<text text-anchor="middle" x="184.29" y="-355.5" font-family="Helvetica" font-size="10.00">of_eq_true</text>
</a>
</g>
</g>
<!-- of_eq_true&#45;&gt;L4YAML.Proofs.CouplingBridge.chars_from_zero_toList -->
<g id="edge17" class="edge">
<title>of_eq_true&#45;&gt;L4YAML.Proofs.CouplingBridge.chars_from_zero_toList</title>
<path fill="none" stroke="#e67e22" stroke-width="2" d="M219.68,-352.98C258.88,-349.33 322.46,-350.04 360.58,-385 374.41,-397.68 359.12,-411.15 370.58,-426 395.55,-458.36 434.93,-480.95 469.9,-495.87"/>
<polygon fill="#e67e22" stroke="#e67e22" stroke-width="2" points="468.97,-498.13 476.38,-498.56 470.86,-493.61 468.97,-498.13"/>
</g>
<!-- Char.utf8Size_pos -->
<g id="node20" class="node">
<title>Char.utf8Size_pos</title>
<g id="a_node20"><a xlink:href="../../../api/Init/Data/String/Decode.html#Char.utf8Size_pos" xlink:title="Char.utf8Size_pos" target="_blank">
<ellipse fill="#fdebd0" stroke="#e67e22" cx="184.29" cy="-304" rx="57.2" ry="18"/>
<text text-anchor="middle" x="184.29" y="-301.5" font-family="Helvetica" font-size="10.00">Char.utf8Size_pos</text>
</a>
</g>
</g>
<!-- Char.utf8Size_pos&#45;&gt;L4YAML.Proofs.CouplingBridge.chars_from_zero_toList -->
<g id="edge18" class="edge">
<title>Char.utf8Size_pos&#45;&gt;L4YAML.Proofs.CouplingBridge.chars_from_zero_toList</title>
<path fill="none" stroke="#e67e22" stroke-width="2" d="M237.31,-297.1C276.51,-295.03 328.79,-299.43 360.58,-331 380.39,-350.67 355.99,-369.2 370.58,-393 398.69,-438.84 450.1,-473.25 489.76,-494.61"/>
<polygon fill="#e67e22" stroke="#e67e22" stroke-width="2" points="488.69,-496.82 496.02,-497.93 490.98,-492.49 488.69,-496.82"/>
</g>
<!-- Nat.zero_add -->
<g id="node21" class="node">
<title>Nat.zero_add</title>
<g id="a_node21"><a xlink:href="../../../api/Init/Data/Nat/Basic.html#Nat.zero_add" xlink:title="Nat.zero_add" target="_blank">
<ellipse fill="#fdebd0" stroke="#e67e22" cx="184.29" cy="-250" rx="43.62" ry="18"/>
<text text-anchor="middle" x="184.29" y="-247.5" font-family="Helvetica" font-size="10.00">Nat.zero_add</text>
</a>
</g>
</g>
<!-- Nat.zero_add&#45;&gt;L4YAML.Proofs.CouplingBridge.chars_from_zero_toList -->
<g id="edge19" class="edge">
<title>Nat.zero_add&#45;&gt;L4YAML.Proofs.CouplingBridge.chars_from_zero_toList</title>
<path fill="none" stroke="#e67e22" stroke-width="2" d="M225.46,-243.77C265.5,-240.04 325.89,-241.59 360.58,-277 384.12,-301.02 355.42,-321.98 370.58,-352 401.43,-413.08 463.49,-464.48 504.52,-493.77"/>
<polygon fill="#e67e22" stroke="#e67e22" stroke-width="2" points="503.28,-495.9 510.41,-497.93 506.11,-491.89 503.28,-495.9"/>
</g>
</g>
</svg>
