<?xml version="1.0" encoding="UTF-8" standalone="no"?>
<!DOCTYPE svg PUBLIC "-//W3C//DTD SVG 1.1//EN"
 "http://www.w3.org/Graphics/SVG/1.1/DTD/svg11.dtd">
<!-- Generated by graphviz version 2.44.0 (0)
 -->
<!-- Title: EmitterScannability.EndLineOnLine_saveSimpleKey_flow Pages: 1 -->
<svg width="843pt" height="256pt"
 viewBox="0.00 0.00 843.09 256.00" xmlns="http://www.w3.org/2000/svg" xmlns:xlink="http://www.w3.org/1999/xlink">
<g id="graph0" class="graph" transform="scale(1 1) rotate(0) translate(4 252)">
<title>EmitterScannability.EndLineOnLine_saveSimpleKey_flow</title>
<polygon fill="white" stroke="transparent" points="-4,4 -4,-252 839.09,-252 839.09,4 -4,4"/>
<text text-anchor="middle" x="417.54" y="-233.6" font-family="Helvetica Bold" font-size="13.00">EmitterScannability.EndLineOnLine_saveSimpleKey_flow</text>
<text text-anchor="middle" x="417.54" y="-219.6" font-family="Helvetica Bold" font-size="13.00">(heuristic: used by 5 proofs)</text>
<text text-anchor="middle" x="417.54" y="-205.6" font-family="Helvetica Bold" font-size="13.00">(L4YAML.Proofs.EmitterScannability)</text>
<g id="clust1" class="cluster">
<title>cluster_functions</title>
<polygon fill="none" stroke="#4a90d9" stroke-dasharray="5,2" points="641.09,-8 641.09,-190 827.09,-190 827.09,-8 641.09,-8"/>
<text text-anchor="middle" x="734.09" y="-175.6" font-family="Helvetica Bold" font-size="13.00" fill="#4a90d9">Functions</text>
</g>
<g id="clust2" class="cluster">
<title>cluster_key</title>
<polygon fill="none" stroke="#d4a017" stroke-dasharray="5,2" points="137.65,-58 137.65,-140 596.09,-140 596.09,-58 137.65,-58"/>
<text text-anchor="middle" x="366.87" y="-125.6" font-family="Helvetica Bold" font-size="13.00" fill="#d4a017">Key Theorem</text>
</g>
<g id="clust4" class="cluster">
<title>cluster_stdlib</title>
<polygon fill="none" stroke="#e67e22" stroke-dasharray="5,2" points="6,-62 6,-136 116.65,-136 116.65,-62 6,-62"/>
<text text-anchor="middle" x="61.33" y="-121.6" font-family="Helvetica Bold" font-size="13.00" fill="#e67e22">Stdlib Lemmas</text>
</g>
<!-- L4YAML.Scanner.ScannerState -->
<g id="node1" class="node">
<title>L4YAML.Scanner.ScannerState</title>
<g id="a_node1"><a xlink:href="../../../api/L4YAML/Scanner.html#L4YAML.Scanner.ScannerState" xlink:title="ScannerState\n(inductive)" target="_blank">
<polygon fill="#dce9f7" stroke="#4a90d9" points="772.09,-160 696.09,-160 696.09,-124 772.09,-124 772.09,-160"/>
<text text-anchor="middle" x="734.09" y="-145" font-family="Helvetica" font-size="10.00">ScannerState</text>
<text text-anchor="middle" x="734.09" y="-134" font-family="Helvetica" font-size="10.00">(inductive)</text>
</a>
</g>
</g>
<!-- L4YAML.Proofs.EmitterScannability.EndLineOnLine -->
<g id="node2" class="node">
<title>L4YAML.Proofs.EmitterScannability.EndLineOnLine</title>
<g id="a_node2"><a xlink:href="../../../api/L4YAML/Proofs/EmitterScannability.html#L4YAML.Proofs.EmitterScannability.EndLineOnLine" xlink:title="EmitterScannability.EndLineOnLine\n(def)" target="_blank">
<polygon fill="#dce9f7" stroke="#4a90d9" points="819.09,-106 649.09,-106 649.09,-70 819.09,-70 819.09,-106"/>
<text text-anchor="middle" x="734.09" y="-91" font-family="Helvetica" font-size="10.00">EmitterScannability.EndLineOnLine</text>
<text text-anchor="middle" x="734.09" y="-80" font-family="Helvetica" font-size="10.00">(def)</text>
</a>
</g>
</g>
<!-- L4YAML.Scanner.saveSimpleKey -->
<g id="node3" class="node">
<title>L4YAML.Scanner.saveSimpleKey</title>
<g id="a_node3"><a xlink:href="../../../api/L4YAML/Scanner.html#L4YAML.Scanner.saveSimpleKey" xlink:title="saveSimpleKey\n(def)" target="_blank">
<polygon fill="#dce9f7" stroke="#4a90d9" points="775.59,-52 692.59,-52 692.59,-16 775.59,-16 775.59,-52"/>
<text text-anchor="middle" x="734.09" y="-37" font-family="Helvetica" font-size="10.00">saveSimpleKey</text>
<text text-anchor="middle" x="734.09" y="-26" font-family="Helvetica" font-size="10.00">(def)</text>
</a>
</g>
</g>
<!-- L4YAML.Proofs.EmitterScannability.EndLineOnLine_saveSimpleKey_flow -->
<g id="node4" class="node">
<title>L4YAML.Proofs.EmitterScannability.EndLineOnLine_saveSimpleKey_flow</title>
<g id="a_node4"><a xlink:href="../../../api/L4YAML/Proofs/EmitterScannability.html#L4YAML.Proofs.EmitterScannability.EndLineOnLine_saveSimpleKey_flow" xlink:title="EmitterScannability.EndLineOnLine_saveSimpleKey_flow" target="_blank">
<polygon fill="#fff3cd" stroke="#d4a017" points="584.3,-80.54 584.3,-95.46 456.93,-106 276.81,-106 149.44,-95.46 149.44,-80.54 276.81,-70 456.93,-70 584.3,-80.54"/>
<polygon fill="none" stroke="#d4a017" points="588.3,-76.86 588.3,-99.14 457.1,-110 276.64,-110 145.44,-99.14 145.44,-76.86 276.64,-66 457.1,-66 588.3,-76.86"/>
<text text-anchor="middle" x="366.87" y="-84.9" font-family="Helvetica" font-size="12.00">EmitterScannability.EndLineOnLine_saveSimpleKey_flow</text>
</a>
</g>
</g>
<!-- L4YAML.Proofs.EmitterScannability.EndLineOnLine_saveSimpleKey_flow&#45;&gt;L4YAML.Scanner.ScannerState -->
<g id="edge2" class="edge">
<title>L4YAML.Proofs.EmitterScannability.EndLineOnLine_saveSimpleKey_flow&#45;&gt;L4YAML.Scanner.ScannerState</title>
<path fill="none" stroke="#4a90d9" stroke-width="2" d="M495.35,-106.85C562.68,-116.8 641.05,-128.39 688.85,-135.46"/>
<polygon fill="#4a90d9" stroke="#4a90d9" stroke-width="2" points="688.68,-137.91 695.96,-136.51 689.39,-133.06 688.68,-137.91"/>
<text text-anchor="middle" x="618.59" y="-128.6" font-family="Times-Roman" font-size="8.00" fill="#4a90d9">about</text>
</g>
<!-- L4YAML.Proofs.EmitterScannability.EndLineOnLine_saveSimpleKey_flow&#45;&gt;L4YAML.Proofs.EmitterScannability.EndLineOnLine -->
<g id="edge3" class="edge">
<title>L4YAML.Proofs.EmitterScannability.EndLineOnLine_saveSimpleKey_flow&#45;&gt;L4YAML.Proofs.EmitterScannability.EndLineOnLine</title>
<path fill="none" stroke="#4a90d9" stroke-width="2" d="M588.22,-88C606.94,-88 625.1,-88 641.88,-88"/>
<polygon fill="#4a90d9" stroke="#4a90d9" stroke-width="2" points="641.98,-90.45 648.98,-88 641.98,-85.55 641.98,-90.45"/>
<text text-anchor="middle" x="618.59" y="-90.6" font-family="Times-Roman" font-size="8.00" fill="#4a90d9">about</text>
</g>
<!-- L4YAML.Proofs.EmitterScannability.EndLineOnLine_saveSimpleKey_flow&#45;&gt;L4YAML.Scanner.saveSimpleKey -->
<g id="edge1" class="edge">
<title>L4YAML.Proofs.EmitterScannability.EndLineOnLine_saveSimpleKey_flow&#45;&gt;L4YAML.Scanner.saveSimpleKey</title>
<path fill="none" stroke="#4a90d9" stroke-width="2" d="M495.35,-69.15C560.92,-59.46 636.95,-48.21 685.03,-41.11"/>
<polygon fill="#4a90d9" stroke="#4a90d9" stroke-width="2" points="685.64,-43.49 692.21,-40.04 684.93,-38.64 685.64,-43.49"/>
<text text-anchor="middle" x="618.59" y="-53.6" font-family="Times-Roman" font-size="8.00" fill="#4a90d9">about</text>
</g>
<!-- implies_congr -->
<g id="node5" class="node">
<title>implies_congr</title>
<g id="a_node5"><a xlink:href="../../../api/Init/SimpLemmas.html#implies_congr" xlink:title="implies_congr" target="_blank">
<ellipse fill="#fdebd0" stroke="#e67e22" cx="61.33" cy="-88" rx="45.15" ry="18"/>
<text text-anchor="middle" x="61.33" y="-85.5" font-family="Helvetica" font-size="10.00">implies_congr</text>
</a>
</g>
</g>
<!-- implies_congr&#45;&gt;L4YAML.Proofs.EmitterScannability.EndLineOnLine_saveSimpleKey_flow -->
<g id="edge4" class="edge">
<title>implies_congr&#45;&gt;L4YAML.Proofs.EmitterScannability.EndLineOnLine_saveSimpleKey_flow</title>
<path fill="none" stroke="#e67e22" stroke-width="2" d="M106.79,-88C116.27,-88 126.89,-88 138.28,-88"/>
<polygon fill="#e67e22" stroke="#e67e22" stroke-width="2" points="138.46,-90.45 145.46,-88 138.46,-85.55 138.46,-90.45"/>
</g>
</g>
</svg>
