<?xml version="1.0" encoding="UTF-8" standalone="no"?>
<!DOCTYPE svg PUBLIC "-//W3C//DTD SVG 1.1//EN"
 "http://www.w3.org/Graphics/SVG/1.1/DTD/svg11.dtd">
<!-- Generated by graphviz version 2.44.0 (0)
 -->
<!-- Title: EmitterScannability.dispatchStructural_none_flow Pages: 1 -->
<svg width="1089pt" height="1382pt"
 viewBox="0.00 0.00 1088.61 1382.00" xmlns="http://www.w3.org/2000/svg" xmlns:xlink="http://www.w3.org/1999/xlink">
<g id="graph0" class="graph" transform="scale(1 1) rotate(0) translate(4 1378)">
<title>EmitterScannability.dispatchStructural_none_flow</title>
<polygon fill="white" stroke="transparent" points="-4,4 -4,-1378 1084.61,-1378 1084.61,4 -4,4"/>
<text text-anchor="middle" x="540.3" y="-1359.6" font-family="Helvetica Bold" font-size="13.00">EmitterScannability.dispatchStructural_none_flow</text>
<text text-anchor="middle" x="540.3" y="-1345.6" font-family="Helvetica Bold" font-size="13.00">(heuristic: used by 9 proofs)</text>
<text text-anchor="middle" x="540.3" y="-1331.6" font-family="Helvetica Bold" font-size="13.00">(L4YAML.Proofs.EmitterScannability)</text>
<g id="clust1" class="cluster">
<title>cluster_functions</title>
<polygon fill="none" stroke="#4a90d9" stroke-dasharray="5,2" points="888.61,-806 888.61,-1150 1072.61,-1150 1072.61,-806 888.61,-806"/>
<text text-anchor="middle" x="980.61" y="-1135.6" font-family="Helvetica Bold" font-size="13.00" fill="#4a90d9">Functions</text>
</g>
<g id="clust2" class="cluster">
<title>cluster_key</title>
<polygon fill="none" stroke="#d4a017" stroke-dasharray="5,2" points="443.81,-760 443.81,-842 843.61,-842 843.61,-760 443.81,-760"/>
<text text-anchor="middle" x="643.71" y="-827.6" font-family="Helvetica Bold" font-size="13.00" fill="#d4a017">Key Theorem</text>
</g>
<g id="clust3" class="cluster">
<title>cluster_proofs</title>
<polygon fill="none" stroke="#28a745" stroke-dasharray="5,2" points="8,-1116 8,-1316 422.81,-1316 422.81,-1116 8,-1116"/>
<text text-anchor="middle" x="215.4" y="-1301.6" font-family="Helvetica Bold" font-size="13.00" fill="#28a745">Proof Dependencies</text>
</g>
<g id="clust4" class="cluster">
<title>cluster_stdlib</title>
<polygon fill="none" stroke="#e67e22" stroke-dasharray="5,2" points="122.05,-8 122.05,-1108 308.76,-1108 308.76,-8 122.05,-8"/>
<text text-anchor="middle" x="215.4" y="-1093.6" font-family="Helvetica Bold" font-size="13.00" fill="#e67e22">Stdlib Lemmas</text>
</g>
<!-- L4YAML.Scanner.ScannerState.inFlow -->
<g id="node1" class="node">
<title>L4YAML.Scanner.ScannerState.inFlow</title>
<polygon fill="#dce9f7" stroke="#4a90d9" points="1034.11,-850 927.11,-850 927.11,-814 1034.11,-814 1034.11,-850"/>
<text text-anchor="middle" x="980.61" y="-835" font-family="Helvetica" font-size="10.00">ScannerState.inFlow</text>
<text text-anchor="middle" x="980.61" y="-824" font-family="Helvetica" font-size="10.00">(def)</text>
</g>
<!-- L4YAML.Scanner.scanNextToken_dispatchStructural -->
<g id="node2" class="node">
<title>L4YAML.Scanner.scanNextToken_dispatchStructural</title>
<polygon fill="#dce9f7" stroke="#4a90d9" points="1064.61,-958 896.61,-958 896.61,-922 1064.61,-922 1064.61,-958"/>
<text text-anchor="middle" x="980.61" y="-943" font-family="Helvetica" font-size="10.00">scanNextToken_dispatchStructural</text>
<text text-anchor="middle" x="980.61" y="-932" font-family="Helvetica" font-size="10.00">(def)</text>
</g>
<!-- L4YAML.Scanner.ScannerState -->
<g id="node3" class="node">
<title>L4YAML.Scanner.ScannerState</title>
<polygon fill="#dce9f7" stroke="#4a90d9" points="1018.61,-1066 942.61,-1066 942.61,-1030 1018.61,-1030 1018.61,-1066"/>
<text text-anchor="middle" x="980.61" y="-1051" font-family="Helvetica" font-size="10.00">ScannerState</text>
<text text-anchor="middle" x="980.61" y="-1040" font-family="Helvetica" font-size="10.00">(inductive)</text>
</g>
<!-- L4YAML.Scanner.ScannerState.col -->
<g id="node4" class="node">
<title>L4YAML.Scanner.ScannerState.col</title>
<polygon fill="#dce9f7" stroke="#4a90d9" points="1026.61,-1120 934.61,-1120 934.61,-1084 1026.61,-1084 1026.61,-1120"/>
<text text-anchor="middle" x="980.61" y="-1105" font-family="Helvetica" font-size="10.00">ScannerState.col</text>
<text text-anchor="middle" x="980.61" y="-1094" font-family="Helvetica" font-size="10.00">(def)</text>
</g>
<!-- L4YAML.Scanner.ScannerState.currentIndent -->
<g id="node5" class="node">
<title>L4YAML.Scanner.ScannerState.currentIndent</title>
<polygon fill="#dce9f7" stroke="#4a90d9" points="1048.61,-1012 912.61,-1012 912.61,-976 1048.61,-976 1048.61,-1012"/>
<text text-anchor="middle" x="980.61" y="-997" font-family="Helvetica" font-size="10.00">ScannerState.currentIndent</text>
<text text-anchor="middle" x="980.61" y="-986" font-family="Helvetica" font-size="10.00">(def)</text>
</g>
<!-- L4YAML.ScanError -->
<g id="node6" class="node">
<title>L4YAML.ScanError</title>
<polygon fill="#dce9f7" stroke="#4a90d9" points="1011.61,-904 949.61,-904 949.61,-868 1011.61,-868 1011.61,-904"/>
<text text-anchor="middle" x="980.61" y="-889" font-family="Helvetica" font-size="10.00">ScanError</text>
<text text-anchor="middle" x="980.61" y="-878" font-family="Helvetica" font-size="10.00">(inductive)</text>
</g>
<!-- L4YAML.Proofs.EmitterScannability.dispatchStructural_none_flow -->
<g id="node7" class="node">
<title>L4YAML.Proofs.EmitterScannability.dispatchStructural_none_flow</title>
<polygon fill="#fff3cd" stroke="#d4a017" points="831.51,-782.54 831.51,-797.46 721.5,-808 565.92,-808 455.91,-797.46 455.91,-782.54 565.92,-772 721.5,-772 831.51,-782.54"/>
<polygon fill="none" stroke="#d4a017" points="835.5,-778.91 835.5,-801.09 721.69,-812 565.73,-812 451.91,-801.09 451.91,-778.91 565.73,-768 721.69,-768 835.5,-778.91"/>
<text text-anchor="middle" x="643.71" y="-786.9" font-family="Helvetica" font-size="12.00">EmitterScannability.dispatchStructural_none_flow</text>
</g>
<!-- L4YAML.Proofs.EmitterScannability.dispatchStructural_none_flow&#45;&gt;L4YAML.Scanner.ScannerState.inFlow -->
<g id="edge5" class="edge">
<title>L4YAML.Proofs.EmitterScannability.dispatchStructural_none_flow&#45;&gt;L4YAML.Scanner.ScannerState.inFlow</title>
<path fill="none" stroke="#4a90d9" stroke-width="2" d="M777.55,-806.66C826.72,-812.83 880.05,-819.51 919.57,-824.47"/>
<polygon fill="#4a90d9" stroke="#4a90d9" stroke-width="2" points="919.53,-826.94 926.78,-825.38 920.14,-822.07 919.53,-826.94"/>
<text text-anchor="middle" x="866.11" y="-820.6" font-family="Times-Roman" font-size="8.00" fill="#4a90d9">about</text>
</g>
<!-- L4YAML.Proofs.EmitterScannability.dispatchStructural_none_flow&#45;&gt;L4YAML.Scanner.scanNextToken_dispatchStructural -->
<g id="edge6" class="edge">
<title>L4YAML.Proofs.EmitterScannability.dispatchStructural_none_flow&#45;&gt;L4YAML.Scanner.scanNextToken_dispatchStructural</title>
<path fill="none" stroke="#4a90d9" stroke-width="2" d="M697.55,-812.02C746.14,-833.17 819.4,-867.4 878.61,-905 883.41,-908.05 883.56,-910.36 888.61,-913 892.82,-915.21 897.25,-917.26 901.78,-919.16"/>
<polygon fill="#4a90d9" stroke="#4a90d9" stroke-width="2" points="901.08,-921.52 908.49,-921.85 902.9,-916.97 901.08,-921.52"/>
<text text-anchor="middle" x="866.11" y="-907.6" font-family="Times-Roman" font-size="8.00" fill="#4a90d9">about</text>
</g>
<!-- L4YAML.Proofs.EmitterScannability.dispatchStructural_none_flow&#45;&gt;L4YAML.Scanner.ScannerState -->
<g id="edge2" class="edge">
<title>L4YAML.Proofs.EmitterScannability.dispatchStructural_none_flow&#45;&gt;L4YAML.Scanner.ScannerState</title>
<path fill="none" stroke="#4a90d9" stroke-width="2" d="M661.74,-812C698.3,-857.74 789.09,-963.58 888.61,-1021 902.96,-1029.28 920.09,-1035.23 935.59,-1039.39"/>
<polygon fill="#4a90d9" stroke="#4a90d9" stroke-width="2" points="935.19,-1041.82 942.58,-1041.18 936.41,-1037.07 935.19,-1041.82"/>
<text text-anchor="middle" x="866.11" y="-1013.6" font-family="Times-Roman" font-size="8.00" fill="#4a90d9">about</text>
</g>
<!-- L4YAML.Proofs.EmitterScannability.dispatchStructural_none_flow&#45;&gt;L4YAML.Scanner.ScannerState.col -->
<g id="edge1" class="edge">
<title>L4YAML.Proofs.EmitterScannability.dispatchStructural_none_flow&#45;&gt;L4YAML.Scanner.ScannerState.col</title>
<path fill="none" stroke="#4a90d9" stroke-width="2" d="M657.48,-812.33C689.33,-865.99 777.71,-1003.03 888.61,-1075 900.26,-1082.56 914.11,-1088.07 927.44,-1092.06"/>
<polygon fill="#4a90d9" stroke="#4a90d9" stroke-width="2" points="926.95,-1094.47 934.35,-1094.01 928.28,-1089.75 926.95,-1094.47"/>
<text text-anchor="middle" x="866.11" y="-1065.6" font-family="Times-Roman" font-size="8.00" fill="#4a90d9">about</text>
</g>
<!-- L4YAML.Proofs.EmitterScannability.dispatchStructural_none_flow&#45;&gt;L4YAML.Scanner.ScannerState.currentIndent -->
<g id="edge4" class="edge">
<title>L4YAML.Proofs.EmitterScannability.dispatchStructural_none_flow&#45;&gt;L4YAML.Scanner.ScannerState.currentIndent</title>
<path fill="none" stroke="#4a90d9" stroke-width="2" d="M686.72,-812.15C746.45,-844.36 851.7,-903.99 878.61,-938 887.06,-948.69 878.76,-957.57 888.61,-967 893.69,-971.87 899.62,-975.87 905.96,-979.15"/>
<polygon fill="#4a90d9" stroke="#4a90d9" stroke-width="2" points="905.05,-981.43 912.43,-982.19 907.14,-977 905.05,-981.43"/>
<text text-anchor="middle" x="866.11" y="-940.6" font-family="Times-Roman" font-size="8.00" fill="#4a90d9">about</text>
</g>
<!-- L4YAML.Proofs.EmitterScannability.dispatchStructural_none_flow&#45;&gt;L4YAML.ScanError -->
<g id="edge3" class="edge">
<title>L4YAML.Proofs.EmitterScannability.dispatchStructural_none_flow&#45;&gt;L4YAML.ScanError</title>
<path fill="none" stroke="#4a90d9" stroke-width="2" d="M721.54,-812.02C790.66,-831.84 889.26,-860.1 942.34,-875.32"/>
<polygon fill="#4a90d9" stroke="#4a90d9" stroke-width="2" points="941.8,-877.71 949.21,-877.29 943.15,-873 941.8,-877.71"/>
<text text-anchor="middle" x="866.11" y="-856.6" font-family="Times-Roman" font-size="8.00" fill="#4a90d9">about</text>
</g>
<!-- L4YAML.Proofs.EmitterScannability.dispatchStructural_none_flow._proof_1_2 -->
<g id="node8" class="node">
<title>L4YAML.Proofs.EmitterScannability.dispatchStructural_none_flow._proof_1_2</title>
<ellipse fill="#d4edda" stroke="#28a745" cx="215.4" cy="-1205" rx="199.31" ry="21.43"/>
<text text-anchor="middle" x="215.4" y="-1208" font-family="Helvetica" font-size="10.00">EmitterScannability.dispatchStructural_none_flow._proof_1_2</text>
<text text-anchor="middle" x="215.4" y="-1197" font-family="Helvetica" font-size="10.00">(EmitterScannability)</text>
</g>
<!-- L4YAML.Proofs.EmitterScannability.dispatchStructural_none_flow._proof_1_2&#45;&gt;L4YAML.Scanner.ScannerState -->
<g id="edge31" class="edge">
<title>L4YAML.Proofs.EmitterScannability.dispatchStructural_none_flow._proof_1_2&#45;&gt;L4YAML.Scanner.ScannerState</title>
<path fill="none" stroke="#999999" stroke-dasharray="1,5" d="M386.68,-1194.01C399.53,-1189.13 411.76,-1182.9 422.81,-1175 439.46,-1163.09 426.86,-1145.49 443.81,-1134 604.47,-1025.09 716.13,-1199.19 878.61,-1093 886.27,-1087.99 881.47,-1080.73 888.61,-1075 902.47,-1063.88 920.8,-1057.34 937.38,-1053.49"/>
<polygon fill="#999999" stroke="#999999" points="937.95,-1055.16 942.46,-1052.38 937.2,-1051.74 937.95,-1055.16"/>
</g>
<!-- L4YAML.Proofs.EmitterScannability.dispatchStructural_none_flow._proof_1_2&#45;&gt;L4YAML.Scanner.ScannerState.col -->
<g id="edge30" class="edge">
<title>L4YAML.Proofs.EmitterScannability.dispatchStructural_none_flow._proof_1_2&#45;&gt;L4YAML.Scanner.ScannerState.col</title>
<path fill="none" stroke="#999999" stroke-dasharray="1,5" d="M375.02,-1192.27C502.27,-1180.81 685.16,-1161.51 843.61,-1134 872.28,-1129.02 903.96,-1121.68 929.52,-1115.28"/>
<polygon fill="#999999" stroke="#999999" points="930.13,-1116.93 934.55,-1114.02 929.27,-1113.54 930.13,-1116.93"/>
</g>
<!-- L4YAML.Proofs.EmitterScannability.dispatchStructural_none_flow._proof_1_2&#45;&gt;L4YAML.Scanner.ScannerState.currentIndent -->
<g id="edge32" class="edge">
<title>L4YAML.Proofs.EmitterScannability.dispatchStructural_none_flow._proof_1_2&#45;&gt;L4YAML.Scanner.ScannerState.currentIndent</title>
<path fill="none" stroke="#999999" stroke-dasharray="1,5" d="M392.11,-1194.92C403.22,-1189.73 413.61,-1183.19 422.81,-1175 436.37,-1162.92 430.51,-1108.38 443.81,-1096 460.77,-1080.21 765.23,-1028.9 907.48,-1005.65"/>
<polygon fill="#999999" stroke="#999999" points="907.81,-1007.37 912.47,-1004.83 907.25,-1003.91 907.81,-1007.37"/>
</g>
<!-- L4YAML.Proofs.EmitterScannability.dispatchStructural_none_flow._proof_1_2&#45;&gt;L4YAML.Proofs.EmitterScannability.dispatchStructural_none_flow -->
<g id="edge8" class="edge">
<title>L4YAML.Proofs.EmitterScannability.dispatchStructural_none_flow._proof_1_2&#45;&gt;L4YAML.Proofs.EmitterScannability.dispatchStructural_none_flow</title>
<path fill="none" stroke="#28a745" d="M395.61,-1195.58C405.62,-1190.17 414.83,-1183.4 422.81,-1175 439.26,-1157.69 424.17,-1090.27 432.81,-1068 473.55,-962.95 566.17,-863.55 613.57,-817.23"/>
<polygon fill="#28a745" stroke="#28a745" points="615.53,-818.74 618.85,-812.11 612.12,-815.23 615.53,-818.74"/>
</g>
<!-- L4YAML.Proofs.EmitterScannability.dispatchStructural_none_flow._proof_1_3 -->
<g id="node9" class="node">
<title>L4YAML.Proofs.EmitterScannability.dispatchStructural_none_flow._proof_1_3</title>
<ellipse fill="#d4edda" stroke="#28a745" cx="215.4" cy="-1265" rx="199.31" ry="21.43"/>
<text text-anchor="middle" x="215.4" y="-1268" font-family="Helvetica" font-size="10.00">EmitterScannability.dispatchStructural_none_flow._proof_1_3</text>
<text text-anchor="middle" x="215.4" y="-1257" font-family="Helvetica" font-size="10.00">(EmitterScannability)</text>
</g>
<!-- L4YAML.Proofs.EmitterScannability.dispatchStructural_none_flow._proof_1_3&#45;&gt;L4YAML.Scanner.ScannerState -->
<g id="edge34" class="edge">
<title>L4YAML.Proofs.EmitterScannability.dispatchStructural_none_flow._proof_1_3&#45;&gt;L4YAML.Scanner.ScannerState</title>
<path fill="none" stroke="#999999" stroke-dasharray="1,5" d="M343.1,-1248.68C369.53,-1244.69 397.14,-1240.08 422.81,-1235 612,-1197.53 680.35,-1231.68 843.61,-1129 870.05,-1112.37 862.51,-1092.18 888.61,-1075 903.2,-1065.39 921.32,-1059.11 937.53,-1055.05"/>
<polygon fill="#999999" stroke="#999999" points="938.04,-1056.73 942.5,-1053.86 937.23,-1053.32 938.04,-1056.73"/>
</g>
<!-- L4YAML.Proofs.EmitterScannability.dispatchStructural_none_flow._proof_1_3&#45;&gt;L4YAML.Scanner.ScannerState.col -->
<g id="edge33" class="edge">
<title>L4YAML.Proofs.EmitterScannability.dispatchStructural_none_flow._proof_1_3&#45;&gt;L4YAML.Scanner.ScannerState.col</title>
<path fill="none" stroke="#999999" stroke-dasharray="1,5" d="M317.65,-1283.24C446.08,-1301.55 671.51,-1317.29 843.61,-1241 899.43,-1216.25 944.26,-1157.08 965.77,-1124.49"/>
<polygon fill="#999999" stroke="#999999" points="967.26,-1125.41 968.52,-1120.27 964.32,-1123.5 967.26,-1125.41"/>
</g>
<!-- L4YAML.Proofs.EmitterScannability.dispatchStructural_none_flow._proof_1_3&#45;&gt;L4YAML.Proofs.EmitterScannability.dispatchStructural_none_flow -->
<g id="edge7" class="edge">
<title>L4YAML.Proofs.EmitterScannability.dispatchStructural_none_flow._proof_1_3&#45;&gt;L4YAML.Proofs.EmitterScannability.dispatchStructural_none_flow</title>
<path fill="none" stroke="#28a745" d="M387.86,-1254.26C400.33,-1249.31 412.17,-1242.99 422.81,-1235 431.4,-1228.55 428.2,-1222.7 432.81,-1213 503.74,-1063.74 593.11,-887.27 627.9,-818.99"/>
<polygon fill="#28a745" stroke="#28a745" points="630.29,-819.69 631.29,-812.34 625.92,-817.46 630.29,-819.69"/>
</g>
<!-- L4YAML.Proofs.EmitterScannability.dispatchStructural_none_flow._proof_1_1 -->
<g id="node10" class="node">
<title>L4YAML.Proofs.EmitterScannability.dispatchStructural_none_flow._proof_1_1</title>
<ellipse fill="#d4edda" stroke="#28a745" cx="215.4" cy="-1145" rx="199.31" ry="21.43"/>
<text text-anchor="middle" x="215.4" y="-1148" font-family="Helvetica" font-size="10.00">EmitterScannability.dispatchStructural_none_flow._proof_1_1</text>
<text text-anchor="middle" x="215.4" y="-1137" font-family="Helvetica" font-size="10.00">(EmitterScannability)</text>
</g>
<!-- L4YAML.Proofs.EmitterScannability.dispatchStructural_none_flow._proof_1_1&#45;&gt;L4YAML.Scanner.ScannerState -->
<g id="edge35" class="edge">
<title>L4YAML.Proofs.EmitterScannability.dispatchStructural_none_flow._proof_1_1&#45;&gt;L4YAML.Scanner.ScannerState</title>
<path fill="none" stroke="#999999" stroke-dasharray="1,5" d="M388.62,-1134.48C401.12,-1128.79 412.75,-1121.43 422.81,-1112 437.44,-1098.29 417.37,-1080.8 432.81,-1068 508.94,-1004.92 822.78,-1031.2 937.42,-1043.22"/>
<polygon fill="#999999" stroke="#999999" points="937.25,-1044.97 942.4,-1043.75 937.62,-1041.49 937.25,-1044.97"/>
</g>
<!-- L4YAML.Proofs.EmitterScannability.dispatchStructural_none_flow._proof_1_1&#45;&gt;L4YAML.Scanner.ScannerState.currentIndent -->
<g id="edge36" class="edge">
<title>L4YAML.Proofs.EmitterScannability.dispatchStructural_none_flow._proof_1_1&#45;&gt;L4YAML.Scanner.ScannerState.currentIndent</title>
<path fill="none" stroke="#999999" stroke-dasharray="1,5" d="M389.3,-1134.45C401.57,-1128.74 412.96,-1121.39 422.81,-1112 438.57,-1096.96 427.76,-1085.2 432.81,-1064 437.18,-1045.65 429.15,-1034.88 443.81,-1023 512.94,-966.94 777.43,-978.41 907.09,-987.84"/>
<polygon fill="#999999" stroke="#999999" points="907.29,-989.61 912.4,-988.23 907.54,-986.12 907.29,-989.61"/>
</g>
<!-- L4YAML.Proofs.EmitterScannability.dispatchStructural_none_flow._proof_1_1&#45;&gt;L4YAML.Proofs.EmitterScannability.dispatchStructural_none_flow -->
<g id="edge9" class="edge">
<title>L4YAML.Proofs.EmitterScannability.dispatchStructural_none_flow._proof_1_1&#45;&gt;L4YAML.Proofs.EmitterScannability.dispatchStructural_none_flow</title>
<path fill="none" stroke="#28a745" d="M392.09,-1135.05C403.51,-1129.16 413.95,-1121.6 422.81,-1112 442.3,-1090.86 420.24,-1008.86 432.81,-983 469.3,-907.91 548.8,-848 598.81,-815.85"/>
<polygon fill="#28a745" stroke="#28a745" points="600.17,-817.89 604.76,-812.07 597.54,-813.76 600.17,-817.89"/>
</g>
<!-- Bool.and_false -->
<g id="node11" class="node">
<title>Bool.and_false</title>
<ellipse fill="#fdebd0" stroke="#e67e22" cx="215.4" cy="-1006" rx="47.86" ry="18"/>
<text text-anchor="middle" x="215.4" y="-1003.5" font-family="Helvetica" font-size="10.00">Bool.and_false</text>
</g>
<!-- Bool.and_false&#45;&gt;L4YAML.Proofs.EmitterScannability.dispatchStructural_none_flow -->
<g id="edge10" class="edge">
<title>Bool.and_false&#45;&gt;L4YAML.Proofs.EmitterScannability.dispatchStructural_none_flow</title>
<path fill="none" stroke="#e67e22" stroke-width="2" d="M259.14,-1013.54C305.6,-1019.1 379.04,-1019.76 422.81,-979 439.07,-963.85 420.41,-948.44 432.81,-930 468.95,-876.25 533.36,-837.89 581.33,-815.07"/>
<polygon fill="#e67e22" stroke="#e67e22" stroke-width="2" points="582.39,-817.28 587.69,-812.09 580.31,-812.84 582.39,-817.28"/>
</g>
<!-- of_decide_eq_true -->
<g id="node12" class="node">
<title>of_decide_eq_true</title>
<ellipse fill="#fdebd0" stroke="#e67e22" cx="215.4" cy="-952" rx="56.52" ry="18"/>
<text text-anchor="middle" x="215.4" y="-949.5" font-family="Helvetica" font-size="10.00">of_decide_eq_true</text>
</g>
<!-- of_decide_eq_true&#45;&gt;L4YAML.Proofs.EmitterScannability.dispatchStructural_none_flow -->
<g id="edge11" class="edge">
<title>of_decide_eq_true&#45;&gt;L4YAML.Proofs.EmitterScannability.dispatchStructural_none_flow</title>
<path fill="none" stroke="#e67e22" stroke-width="2" d="M268.3,-958.56C313.54,-961.41 378.64,-958.26 422.81,-925 431.71,-918.3 425.25,-910.19 432.81,-902 469.98,-861.73 525.01,-833.11 569.4,-814.89"/>
<polygon fill="#e67e22" stroke="#e67e22" stroke-width="2" points="570.57,-817.06 576.14,-812.17 568.73,-812.52 570.57,-817.06"/>
</g>
<!-- Decidable.decide.congr_simp -->
<g id="node13" class="node">
<title>Decidable.decide.congr_simp</title>
<ellipse fill="#fdebd0" stroke="#e67e22" cx="215.4" cy="-898" rx="85.21" ry="18"/>
<text text-anchor="middle" x="215.4" y="-895.5" font-family="Helvetica" font-size="10.00">Decidable.decide.congr_simp</text>
</g>
<!-- Decidable.decide.congr_simp&#45;&gt;L4YAML.Proofs.EmitterScannability.dispatchStructural_none_flow -->
<g id="edge12" class="edge">
<title>Decidable.decide.congr_simp&#45;&gt;L4YAML.Proofs.EmitterScannability.dispatchStructural_none_flow</title>
<path fill="none" stroke="#e67e22" stroke-width="2" d="M295.58,-891.81C334.31,-887.73 381.4,-881.2 422.81,-871 479.73,-856.98 542.25,-833.08 586.02,-814.86"/>
<polygon fill="#e67e22" stroke="#e67e22" stroke-width="2" points="587.1,-817.07 592.61,-812.1 585.21,-812.55 587.1,-817.07"/>
</g>
<!-- instLawfulBEqChar -->
<g id="node14" class="node">
<title>instLawfulBEqChar</title>
<ellipse fill="#fdebd0" stroke="#e67e22" cx="215.4" cy="-844" rx="59.41" ry="18"/>
<text text-anchor="middle" x="215.4" y="-841.5" font-family="Helvetica" font-size="10.00">instLawfulBEqChar</text>
</g>
<!-- instLawfulBEqChar&#45;&gt;L4YAML.Proofs.EmitterScannability.dispatchStructural_none_flow -->
<g id="edge13" class="edge">
<title>instLawfulBEqChar&#45;&gt;L4YAML.Proofs.EmitterScannability.dispatchStructural_none_flow</title>
<path fill="none" stroke="#e67e22" stroke-width="2" d="M270.83,-837.11C329.11,-829.72 423.93,-817.71 503.23,-807.67"/>
<polygon fill="#e67e22" stroke="#e67e22" stroke-width="2" points="503.73,-810.07 510.37,-806.76 503.11,-805.21 503.73,-810.07"/>
</g>
<!-- false_and -->
<g id="node15" class="node">
<title>false_and</title>
<ellipse fill="#fdebd0" stroke="#e67e22" cx="215.4" cy="-790" rx="34.96" ry="18"/>
<text text-anchor="middle" x="215.4" y="-787.5" font-family="Helvetica" font-size="10.00">false_and</text>
</g>
<!-- false_and&#45;&gt;L4YAML.Proofs.EmitterScannability.dispatchStructural_none_flow -->
<g id="edge14" class="edge">
<title>false_and&#45;&gt;L4YAML.Proofs.EmitterScannability.dispatchStructural_none_flow</title>
<path fill="none" stroke="#e67e22" stroke-width="2" d="M250.21,-790C292.95,-790 369.96,-790 444.52,-790"/>
<polygon fill="#e67e22" stroke="#e67e22" stroke-width="2" points="444.73,-792.45 451.73,-790 444.73,-787.55 444.73,-792.45"/>
</g>
<!-- Bool.and_true -->
<g id="node16" class="node">
<title>Bool.and_true</title>
<ellipse fill="#fdebd0" stroke="#e67e22" cx="215.4" cy="-736" rx="45.15" ry="18"/>
<text text-anchor="middle" x="215.4" y="-733.5" font-family="Helvetica" font-size="10.00">Bool.and_true</text>
</g>
<!-- Bool.and_true&#45;&gt;L4YAML.Proofs.EmitterScannability.dispatchStructural_none_flow -->
<g id="edge15" class="edge">
<title>Bool.and_true&#45;&gt;L4YAML.Proofs.EmitterScannability.dispatchStructural_none_flow</title>
<path fill="none" stroke="#e67e22" stroke-width="2" d="M258.84,-741.38C315.37,-748.54 418.16,-761.56 503.14,-772.32"/>
<polygon fill="#e67e22" stroke="#e67e22" stroke-width="2" points="503.02,-774.77 510.27,-773.22 503.63,-769.91 503.02,-774.77"/>
</g>
<!-- Bool.false_eq_true -->
<g id="node17" class="node">
<title>Bool.false_eq_true</title>
<ellipse fill="#fdebd0" stroke="#e67e22" cx="215.4" cy="-682" rx="57.88" ry="18"/>
<text text-anchor="middle" x="215.4" y="-679.5" font-family="Helvetica" font-size="10.00">Bool.false_eq_true</text>
</g>
<!-- Bool.false_eq_true&#45;&gt;L4YAML.Proofs.EmitterScannability.dispatchStructural_none_flow -->
<g id="edge16" class="edge">
<title>Bool.false_eq_true&#45;&gt;L4YAML.Proofs.EmitterScannability.dispatchStructural_none_flow</title>
<path fill="none" stroke="#e67e22" stroke-width="2" d="M271.78,-685.87C313.7,-689.62 372.45,-696.6 422.81,-709 479.73,-723.02 542.25,-746.92 586.02,-765.14"/>
<polygon fill="#e67e22" stroke="#e67e22" stroke-width="2" points="585.21,-767.45 592.61,-767.9 587.1,-762.93 585.21,-767.45"/>
</g>
<!-- decide_false -->
<g id="node18" class="node">
<title>decide_false</title>
<ellipse fill="#fdebd0" stroke="#e67e22" cx="215.4" cy="-628" rx="41.59" ry="18"/>
<text text-anchor="middle" x="215.4" y="-625.5" font-family="Helvetica" font-size="10.00">decide_false</text>
</g>
<!-- decide_false&#45;&gt;L4YAML.Proofs.EmitterScannability.dispatchStructural_none_flow -->
<g id="edge17" class="edge">
<title>decide_false&#45;&gt;L4YAML.Proofs.EmitterScannability.dispatchStructural_none_flow</title>
<path fill="none" stroke="#e67e22" stroke-width="2" d="M257.53,-628.36C300.04,-629.87 367.79,-635.52 422.81,-655 495,-680.56 568.84,-732.19 609.93,-763.67"/>
<polygon fill="#e67e22" stroke="#e67e22" stroke-width="2" points="608.47,-765.64 615.51,-767.97 611.46,-761.76 608.47,-765.64"/>
</g>
<!-- Bool.and_self -->
<g id="node19" class="node">
<title>Bool.and_self</title>
<ellipse fill="#fdebd0" stroke="#e67e22" cx="215.4" cy="-574" rx="44.98" ry="18"/>
<text text-anchor="middle" x="215.4" y="-571.5" font-family="Helvetica" font-size="10.00">Bool.and_self</text>
</g>
<!-- Bool.and_self&#45;&gt;L4YAML.Proofs.EmitterScannability.dispatchStructural_none_flow -->
<g id="edge18" class="edge">
<title>Bool.and_self&#45;&gt;L4YAML.Proofs.EmitterScannability.dispatchStructural_none_flow</title>
<path fill="none" stroke="#e67e22" stroke-width="2" d="M260.25,-572.6C303.43,-572.83 370.34,-577.57 422.81,-601 507.27,-638.72 583.77,-719.66 620.23,-762.35"/>
<polygon fill="#e67e22" stroke="#e67e22" stroke-width="2" points="618.5,-764.1 624.89,-767.86 622.24,-760.93 618.5,-764.1"/>
</g>
<!-- decide_true -->
<g id="node20" class="node">
<title>decide_true</title>
<ellipse fill="#fdebd0" stroke="#e67e22" cx="215.4" cy="-520" rx="39.38" ry="18"/>
<text text-anchor="middle" x="215.4" y="-517.5" font-family="Helvetica" font-size="10.00">decide_true</text>
</g>
<!-- decide_true&#45;&gt;L4YAML.Proofs.EmitterScannability.dispatchStructural_none_flow -->
<g id="edge19" class="edge">
<title>decide_true&#45;&gt;L4YAML.Proofs.EmitterScannability.dispatchStructural_none_flow</title>
<path fill="none" stroke="#e67e22" stroke-width="2" d="M254.52,-517.36C297.8,-516.03 369.35,-518.99 422.81,-547 519.66,-597.75 595.03,-709.26 626.58,-761.69"/>
<polygon fill="#e67e22" stroke="#e67e22" stroke-width="2" points="624.53,-763.03 630.21,-767.79 628.74,-760.52 624.53,-763.03"/>
</g>
<!-- Bool.or_eq_true -->
<g id="node21" class="node">
<title>Bool.or_eq_true</title>
<ellipse fill="#fdebd0" stroke="#e67e22" cx="215.4" cy="-466" rx="50.07" ry="18"/>
<text text-anchor="middle" x="215.4" y="-463.5" font-family="Helvetica" font-size="10.00">Bool.or_eq_true</text>
</g>
<!-- Bool.or_eq_true&#45;&gt;L4YAML.Proofs.EmitterScannability.dispatchStructural_none_flow -->
<g id="edge20" class="edge">
<title>Bool.or_eq_true&#45;&gt;L4YAML.Proofs.EmitterScannability.dispatchStructural_none_flow</title>
<path fill="none" stroke="#e67e22" stroke-width="2" d="M264.46,-462.04C308.62,-460.66 374.37,-464.5 422.81,-493 532.23,-557.37 603.87,-699.67 630.77,-760.97"/>
<polygon fill="#e67e22" stroke="#e67e22" stroke-width="2" points="628.65,-762.24 633.68,-767.69 633.14,-760.29 628.65,-762.24"/>
</g>
<!-- ge_iff_le._simp_1 -->
<g id="node22" class="node">
<title>ge_iff_le._simp_1</title>
<ellipse fill="#fdebd0" stroke="#e67e22" cx="215.4" cy="-412" rx="54.31" ry="18"/>
<text text-anchor="middle" x="215.4" y="-409.5" font-family="Helvetica" font-size="10.00">ge_iff_le._simp_1</text>
</g>
<!-- ge_iff_le._simp_1&#45;&gt;L4YAML.Proofs.EmitterScannability.dispatchStructural_none_flow -->
<g id="edge21" class="edge">
<title>ge_iff_le._simp_1&#45;&gt;L4YAML.Proofs.EmitterScannability.dispatchStructural_none_flow</title>
<path fill="none" stroke="#e67e22" stroke-width="2" d="M267.59,-407.07C312.06,-405.35 376.43,-409.23 422.81,-439 545.67,-517.86 611.97,-692.4 634.14,-761.26"/>
<polygon fill="#e67e22" stroke="#e67e22" stroke-width="2" points="631.82,-762.04 636.27,-767.97 636.49,-760.56 631.82,-762.04"/>
</g>
<!-- Bool.and_eq_true -->
<g id="node23" class="node">
<title>Bool.and_eq_true</title>
<ellipse fill="#fdebd0" stroke="#e67e22" cx="215.4" cy="-358" rx="54.31" ry="18"/>
<text text-anchor="middle" x="215.4" y="-355.5" font-family="Helvetica" font-size="10.00">Bool.and_eq_true</text>
</g>
<!-- Bool.and_eq_true&#45;&gt;L4YAML.Proofs.EmitterScannability.dispatchStructural_none_flow -->
<g id="edge22" class="edge">
<title>Bool.and_eq_true&#45;&gt;L4YAML.Proofs.EmitterScannability.dispatchStructural_none_flow</title>
<path fill="none" stroke="#e67e22" stroke-width="2" d="M267.18,-352.42C311.98,-350.15 377.08,-353.6 422.81,-385 558.9,-478.45 618.47,-684.38 636.46,-760.75"/>
<polygon fill="#e67e22" stroke="#e67e22" stroke-width="2" points="634.11,-761.46 638.07,-767.72 638.88,-760.35 634.11,-761.46"/>
</g>
<!-- eq_self -->
<g id="node24" class="node">
<title>eq_self</title>
<ellipse fill="#fdebd0" stroke="#e67e22" cx="215.4" cy="-304" rx="28.01" ry="18"/>
<text text-anchor="middle" x="215.4" y="-301.5" font-family="Helvetica" font-size="10.00">eq_self</text>
</g>
<!-- eq_self&#45;&gt;L4YAML.Proofs.EmitterScannability.dispatchStructural_none_flow -->
<g id="edge23" class="edge">
<title>eq_self&#45;&gt;L4YAML.Proofs.EmitterScannability.dispatchStructural_none_flow</title>
<path fill="none" stroke="#e67e22" stroke-width="2" d="M243.08,-299.99C285.44,-295.12 368.82,-291.88 422.81,-331 572.66,-439.58 624.5,-677.7 638.4,-760.74"/>
<polygon fill="#e67e22" stroke="#e67e22" stroke-width="2" points="636.01,-761.31 639.56,-767.82 640.85,-760.52 636.01,-761.31"/>
</g>
<!-- of_eq_true -->
<g id="node25" class="node">
<title>of_eq_true</title>
<ellipse fill="#fdebd0" stroke="#e67e22" cx="215.4" cy="-250" rx="36.49" ry="18"/>
<text text-anchor="middle" x="215.4" y="-247.5" font-family="Helvetica" font-size="10.00">of_eq_true</text>
</g>
<!-- of_eq_true&#45;&gt;L4YAML.Proofs.EmitterScannability.dispatchStructural_none_flow -->
<g id="edge24" class="edge">
<title>of_eq_true&#45;&gt;L4YAML.Proofs.EmitterScannability.dispatchStructural_none_flow</title>
<path fill="none" stroke="#e67e22" stroke-width="2" d="M250.55,-244.89C294.89,-240.22 372.53,-238.94 422.81,-277 586.63,-401.01 629.93,-671.53 639.97,-760.78"/>
<polygon fill="#e67e22" stroke="#e67e22" stroke-width="2" points="637.55,-761.18 640.74,-767.87 642.42,-760.65 637.55,-761.18"/>
</g>
<!-- beq_iff_eq._simp_1 -->
<g id="node26" class="node">
<title>beq_iff_eq._simp_1</title>
<ellipse fill="#fdebd0" stroke="#e67e22" cx="215.4" cy="-196" rx="59.41" ry="18"/>
<text text-anchor="middle" x="215.4" y="-193.5" font-family="Helvetica" font-size="10.00">beq_iff_eq._simp_1</text>
</g>
<!-- beq_iff_eq._simp_1&#45;&gt;L4YAML.Proofs.EmitterScannability.dispatchStructural_none_flow -->
<g id="edge25" class="edge">
<title>beq_iff_eq._simp_1&#45;&gt;L4YAML.Proofs.EmitterScannability.dispatchStructural_none_flow</title>
<path fill="none" stroke="#e67e22" stroke-width="2" d="M270.42,-188.9C315.78,-185.97 379.88,-189.31 422.81,-223 600.69,-362.61 634.85,-665.47 641.26,-760.72"/>
<polygon fill="#e67e22" stroke="#e67e22" stroke-width="2" points="638.82,-760.9 641.71,-767.73 643.71,-760.59 638.82,-760.9"/>
</g>
<!-- and_false -->
<g id="node27" class="node">
<title>and_false</title>
<ellipse fill="#fdebd0" stroke="#e67e22" cx="215.4" cy="-142" rx="34.96" ry="18"/>
<text text-anchor="middle" x="215.4" y="-139.5" font-family="Helvetica" font-size="10.00">and_false</text>
</g>
<!-- and_false&#45;&gt;L4YAML.Proofs.EmitterScannability.dispatchStructural_none_flow -->
<g id="edge26" class="edge">
<title>and_false&#45;&gt;L4YAML.Proofs.EmitterScannability.dispatchStructural_none_flow</title>
<path fill="none" stroke="#e67e22" stroke-width="2" d="M248.66,-136.68C293,-131.27 372.94,-128.65 422.81,-169 614.94,-324.46 639.39,-659.95 642.35,-760.76"/>
<polygon fill="#e67e22" stroke="#e67e22" stroke-width="2" points="639.9,-760.95 642.53,-767.89 644.8,-760.83 639.9,-760.95"/>
</g>
<!-- Nat.instLawfulBEq -->
<g id="node28" class="node">
<title>Nat.instLawfulBEq</title>
<ellipse fill="#fdebd0" stroke="#e67e22" cx="215.4" cy="-88" rx="57.88" ry="18"/>
<text text-anchor="middle" x="215.4" y="-85.5" font-family="Helvetica" font-size="10.00">Nat.instLawfulBEq</text>
</g>
<!-- Nat.instLawfulBEq&#45;&gt;L4YAML.Proofs.EmitterScannability.dispatchStructural_none_flow -->
<g id="edge27" class="edge">
<title>Nat.instLawfulBEq&#45;&gt;L4YAML.Proofs.EmitterScannability.dispatchStructural_none_flow</title>
<path fill="none" stroke="#e67e22" stroke-width="2" d="M268.2,-80.51C313.99,-76.9 379.99,-79.45 422.81,-115 629.31,-286.46 643.61,-654.67 643.27,-760.81"/>
<polygon fill="#e67e22" stroke="#e67e22" stroke-width="2" points="640.82,-760.98 643.23,-768 645.72,-761.01 640.82,-760.98"/>
</g>
<!-- ite_cond_eq_false -->
<g id="node29" class="node">
<title>ite_cond_eq_false</title>
<ellipse fill="#fdebd0" stroke="#e67e22" cx="215.4" cy="-34" rx="55.85" ry="18"/>
<text text-anchor="middle" x="215.4" y="-31.5" font-family="Helvetica" font-size="10.00">ite_cond_eq_false</text>
</g>
<!-- ite_cond_eq_false&#45;&gt;L4YAML.Proofs.EmitterScannability.dispatchStructural_none_flow -->
<g id="edge28" class="edge">
<title>ite_cond_eq_false&#45;&gt;L4YAML.Proofs.EmitterScannability.dispatchStructural_none_flow</title>
<path fill="none" stroke="#e67e22" stroke-width="2" d="M266.61,-26.44C312.59,-22.47 379.83,-24.51 422.81,-61 534.95,-156.22 618.31,-636.89 638.17,-760.82"/>
<polygon fill="#e67e22" stroke="#e67e22" stroke-width="2" points="635.76,-761.27 639.28,-767.79 640.6,-760.49 635.76,-761.27"/>
</g>
<!-- gt_iff_lt._simp_1 -->
<g id="node30" class="node">
<title>gt_iff_lt._simp_1</title>
<ellipse fill="#fdebd0" stroke="#e67e22" cx="215.4" cy="-1060" rx="51.43" ry="18"/>
<text text-anchor="middle" x="215.4" y="-1057.5" font-family="Helvetica" font-size="10.00">gt_iff_lt._simp_1</text>
</g>
<!-- gt_iff_lt._simp_1&#45;&gt;L4YAML.Proofs.EmitterScannability.dispatchStructural_none_flow -->
<g id="edge29" class="edge">
<title>gt_iff_lt._simp_1&#45;&gt;L4YAML.Proofs.EmitterScannability.dispatchStructural_none_flow</title>
<path fill="none" stroke="#e67e22" stroke-width="2" d="M260.97,-1068.28C307.97,-1074.19 380.88,-1074.89 422.81,-1033 446.91,-1008.92 416.03,-986.65 432.81,-957 469.42,-892.28 542.01,-843.33 591.46,-815.65"/>
<polygon fill="#e67e22" stroke="#e67e22" stroke-width="2" points="592.74,-817.75 597.68,-812.22 590.37,-813.46 592.74,-817.75"/>
</g>
</g>
</svg>
