<?xml version="1.0" encoding="UTF-8" standalone="no"?>
<!DOCTYPE svg PUBLIC "-//W3C//DTD SVG 1.1//EN"
 "http://www.w3.org/Graphics/SVG/1.1/DTD/svg11.dtd">
<!-- Generated by graphviz version 2.44.0 (0)
 -->
<!-- Title: EmitterScannability.scanNextToken_preprocess_flow Pages: 1 -->
<svg width="1134pt" height="1127pt"
 viewBox="0.00 0.00 1134.22 1127.38" xmlns="http://www.w3.org/2000/svg" xmlns:xlink="http://www.w3.org/1999/xlink">
<g id="graph0" class="graph" transform="scale(1 1) rotate(0) translate(4 1123.38)">
<title>EmitterScannability.scanNextToken_preprocess_flow</title>
<polygon fill="white" stroke="transparent" points="-4,4 -4,-1123.38 1130.22,-1123.38 1130.22,4 -4,4"/>
<text text-anchor="middle" x="563.11" y="-1104.98" font-family="Helvetica Bold" font-size="13.00">EmitterScannability.scanNextToken_preprocess_flow</text>
<text text-anchor="middle" x="563.11" y="-1090.98" font-family="Helvetica Bold" font-size="13.00">(heuristic: used by 11 proofs)</text>
<text text-anchor="middle" x="563.11" y="-1076.98" font-family="Helvetica Bold" font-size="13.00">(L4YAML.Proofs.EmitterScannability)</text>
<g id="clust1" class="cluster">
<title>cluster_functions</title>
<polygon fill="none" stroke="#4a90d9" stroke-dasharray="5,2" points="611.83,-281 611.83,-787 1118.22,-787 1118.22,-281 611.83,-281"/>
<text text-anchor="middle" x="865.02" y="-772.6" font-family="Helvetica Bold" font-size="13.00" fill="#4a90d9">Functions</text>
</g>
<g id="clust2" class="cluster">
<title>cluster_key</title>
<polygon fill="none" stroke="#d4a017" stroke-dasharray="5,2" points="466.44,-191 466.44,-273 890.22,-273 890.22,-191 466.44,-191"/>
<text text-anchor="middle" x="678.33" y="-258.6" font-family="Helvetica Bold" font-size="13.00" fill="#d4a017">Key Theorem</text>
</g>
<g id="clust3" class="cluster">
<title>cluster_proofs</title>
<polygon fill="none" stroke="#28a745" stroke-dasharray="5,2" points="8,-560 8,-820 445.44,-820 445.44,-560 8,-560"/>
<text text-anchor="middle" x="226.72" y="-805.6" font-family="Helvetica Bold" font-size="13.00" fill="#28a745">Proof Dependencies</text>
</g>
<g id="clust4" class="cluster">
<title>cluster_stdlib</title>
<polygon fill="none" stroke="#e67e22" stroke-dasharray="5,2" points="133.36,-8 133.36,-406 320.07,-406 320.07,-8 133.36,-8"/>
<text text-anchor="middle" x="226.72" y="-391.6" font-family="Helvetica Bold" font-size="13.00" fill="#e67e22">Stdlib Lemmas</text>
</g>
<!-- L4YAML.Scanner.ScannerState.peek? -->
<g id="node1" class="node">
<title>L4YAML.Scanner.ScannerState.peek?</title>
<g id="a_node1"><a xlink:href="../../../api/L4YAML/Scanner.html#L4YAML.Scanner.ScannerState.peek?" xlink:title="ScannerState.peek?\n(def)" target="_blank">
<polygon fill="#dce9f7" stroke="#4a90d9" points="730.33,-756 626.33,-756 626.33,-720 730.33,-720 730.33,-756"/>
<text text-anchor="middle" x="678.33" y="-741" font-family="Helvetica" font-size="10.00">ScannerState.peek?</text>
<text text-anchor="middle" x="678.33" y="-730" font-family="Helvetica" font-size="10.00">(def)</text>
</a>
</g>
</g>
<!-- L4YAML.Proofs.CouplingBridge.ScannerSurfCorr -->
<g id="node2" class="node">
<title>L4YAML.Proofs.CouplingBridge.ScannerSurfCorr</title>
<g id="a_node2"><a xlink:href="../../../api/L4YAML/Proofs/CouplingBridge.html#L4YAML.Proofs.CouplingBridge.ScannerSurfCorr" xlink:title="CouplingBridge.ScannerSurfCorr\n(inductive)" target="_blank">
<polygon fill="#dce9f7" stroke="#4a90d9" points="1106.22,-757 947.22,-757 947.22,-721 1106.22,-721 1106.22,-757"/>
<text text-anchor="middle" x="1026.72" y="-742" font-family="Helvetica" font-size="10.00">CouplingBridge.ScannerSurfCorr</text>
<text text-anchor="middle" x="1026.72" y="-731" font-family="Helvetica" font-size="10.00">(inductive)</text>
</a>
</g>
</g>
<!-- L4YAML.Scanner.ScannerState -->
<g id="node3" class="node">
<title>L4YAML.Scanner.ScannerState</title>
<g id="a_node3"><a xlink:href="../../../api/L4YAML/Scanner.html#L4YAML.Scanner.ScannerState" xlink:title="ScannerState\n(inductive)" target="_blank">
<polygon fill="#dce9f7" stroke="#4a90d9" points="1064.72,-703 988.72,-703 988.72,-667 1064.72,-667 1064.72,-703"/>
<text text-anchor="middle" x="1026.72" y="-688" font-family="Helvetica" font-size="10.00">ScannerState</text>
<text text-anchor="middle" x="1026.72" y="-677" font-family="Helvetica" font-size="10.00">(inductive)</text>
</a>
</g>
</g>
<!-- L4YAML.Scanner.IndentEntry -->
<g id="node4" class="node">
<title>L4YAML.Scanner.IndentEntry</title>
<g id="a_node4"><a xlink:href="../../../api/L4YAML/Scanner.html#L4YAML.Scanner.IndentEntry" xlink:title="IndentEntry\n(inductive)" target="_blank">
<polygon fill="#dce9f7" stroke="#4a90d9" points="712.33,-486 644.33,-486 644.33,-450 712.33,-450 712.33,-486"/>
<text text-anchor="middle" x="678.33" y="-471" font-family="Helvetica" font-size="10.00">IndentEntry</text>
<text text-anchor="middle" x="678.33" y="-460" font-family="Helvetica" font-size="10.00">(inductive)</text>
</a>
</g>
</g>
<!-- L4YAML.Scanner.ScannerState.indents -->
<g id="node5" class="node">
<title>L4YAML.Scanner.ScannerState.indents</title>
<g id="a_node5"><a xlink:href="../../../api/L4YAML/Scanner.html#L4YAML.Scanner.ScannerState.indents" xlink:title="ScannerState.indents\n(def)" target="_blank">
<polygon fill="#dce9f7" stroke="#4a90d9" points="733.33,-540 623.33,-540 623.33,-504 733.33,-504 733.33,-540"/>
<text text-anchor="middle" x="678.33" y="-525" font-family="Helvetica" font-size="10.00">ScannerState.indents</text>
<text text-anchor="middle" x="678.33" y="-514" font-family="Helvetica" font-size="10.00">(def)</text>
</a>
</g>
</g>
<!-- L4YAML.CharPredicates.isWhiteSpaceBool -->
<g id="node6" class="node">
<title>L4YAML.CharPredicates.isWhiteSpaceBool</title>
<g id="a_node6"><a xlink:href="../../../api/L4YAML/CharPredicates.html#L4YAML.CharPredicates.isWhiteSpaceBool" xlink:title="CharPredicates.isWhiteSpaceBool\n(def)" target="_blank">
<polygon fill="#dce9f7" stroke="#4a90d9" points="1110.22,-433 943.22,-433 943.22,-397 1110.22,-397 1110.22,-433"/>
<text text-anchor="middle" x="1026.72" y="-418" font-family="Helvetica" font-size="10.00">CharPredicates.isWhiteSpaceBool</text>
<text text-anchor="middle" x="1026.72" y="-407" font-family="Helvetica" font-size="10.00">(def)</text>
</a>
</g>
</g>
<!-- L4YAML.CharPredicates.isLineBreakBool -->
<g id="node7" class="node">
<title>L4YAML.CharPredicates.isLineBreakBool</title>
<g id="a_node7"><a xlink:href="../../../api/L4YAML/CharPredicates.html#L4YAML.CharPredicates.isLineBreakBool" xlink:title="CharPredicates.isLineBreakBool\n(def)" target="_blank">
<polygon fill="#dce9f7" stroke="#4a90d9" points="1105.72,-487 947.72,-487 947.72,-451 1105.72,-451 1105.72,-487"/>
<text text-anchor="middle" x="1026.72" y="-472" font-family="Helvetica" font-size="10.00">CharPredicates.isLineBreakBool</text>
<text text-anchor="middle" x="1026.72" y="-461" font-family="Helvetica" font-size="10.00">(def)</text>
</a>
</g>
</g>
<!-- L4YAML.Scanner.ScannerState.inFlow -->
<g id="node8" class="node">
<title>L4YAML.Scanner.ScannerState.inFlow</title>
<g id="a_node8"><a xlink:href="../../../api/L4YAML/Scanner.html#L4YAML.Scanner.ScannerState.inFlow" xlink:title="ScannerState.inFlow\n(def)" target="_blank">
<polygon fill="#dce9f7" stroke="#4a90d9" points="1080.22,-325 973.22,-325 973.22,-289 1080.22,-289 1080.22,-325"/>
<text text-anchor="middle" x="1026.72" y="-310" font-family="Helvetica" font-size="10.00">ScannerState.inFlow</text>
<text text-anchor="middle" x="1026.72" y="-299" font-family="Helvetica" font-size="10.00">(def)</text>
</a>
</g>
</g>
<!-- L4YAML.Surface.SurfPos.mk -->
<g id="node9" class="node">
<title>L4YAML.Surface.SurfPos.mk</title>
<g id="a_node9"><a xlink:href="../../../api/L4YAML/Surface/Combinators.html#L4YAML.Surface.SurfPos.mk" xlink:title="Surface.SurfPos.mk\n(ctor)" target="_blank">
<polygon fill="#dce9f7" stroke="#4a90d9" points="1080.22,-649 973.22,-649 973.22,-613 1080.22,-613 1080.22,-649"/>
<text text-anchor="middle" x="1026.72" y="-634" font-family="Helvetica" font-size="10.00">Surface.SurfPos.mk</text>
<text text-anchor="middle" x="1026.72" y="-623" font-family="Helvetica" font-size="10.00">(ctor)</text>
</a>
</g>
</g>
<!-- L4YAML.Scanner.scanNextToken_preprocess -->
<g id="node10" class="node">
<title>L4YAML.Scanner.scanNextToken_preprocess</title>
<g id="a_node10"><a xlink:href="../../../api/L4YAML/Scanner.html#L4YAML.Scanner.scanNextToken_preprocess" xlink:title="scanNextToken_preprocess\n(def)" target="_blank">
<polygon fill="#dce9f7" stroke="#4a90d9" points="1095.22,-379 958.22,-379 958.22,-343 1095.22,-343 1095.22,-379"/>
<text text-anchor="middle" x="1026.72" y="-364" font-family="Helvetica" font-size="10.00">scanNextToken_preprocess</text>
<text text-anchor="middle" x="1026.72" y="-353" font-family="Helvetica" font-size="10.00">(def)</text>
</a>
</g>
</g>
<!-- L4YAML.Scanner.ScannerState.offset -->
<g id="node11" class="node">
<title>L4YAML.Scanner.ScannerState.offset</title>
<g id="a_node11"><a xlink:href="../../../api/L4YAML/Scanner.html#L4YAML.Scanner.ScannerState.offset" xlink:title="ScannerState.offset\n(def)" target="_blank">
<polygon fill="#dce9f7" stroke="#4a90d9" points="729.83,-702 626.83,-702 626.83,-666 729.83,-666 729.83,-702"/>
<text text-anchor="middle" x="678.33" y="-687" font-family="Helvetica" font-size="10.00">ScannerState.offset</text>
<text text-anchor="middle" x="678.33" y="-676" font-family="Helvetica" font-size="10.00">(def)</text>
</a>
</g>
</g>
<!-- L4YAML.Scanner.skipToContent -->
<g id="node12" class="node">
<title>L4YAML.Scanner.skipToContent</title>
<g id="a_node12"><a xlink:href="../../../api/L4YAML/Scanner.html#L4YAML.Scanner.skipToContent" xlink:title="skipToContent\n(def)" target="_blank">
<polygon fill="#dce9f7" stroke="#4a90d9" points="718.33,-594 638.33,-594 638.33,-558 718.33,-558 718.33,-594"/>
<text text-anchor="middle" x="678.33" y="-579" font-family="Helvetica" font-size="10.00">skipToContent</text>
<text text-anchor="middle" x="678.33" y="-568" font-family="Helvetica" font-size="10.00">(def)</text>
</a>
</g>
</g>
<!-- L4YAML.ScanError -->
<g id="node13" class="node">
<title>L4YAML.ScanError</title>
<g id="a_node13"><a xlink:href="../../../api/L4YAML/Token.html#L4YAML.ScanError" xlink:title="ScanError\n(inductive)" target="_blank">
<polygon fill="#dce9f7" stroke="#4a90d9" points="1057.72,-541 995.72,-541 995.72,-505 1057.72,-505 1057.72,-541"/>
<text text-anchor="middle" x="1026.72" y="-526" font-family="Helvetica" font-size="10.00">ScanError</text>
<text text-anchor="middle" x="1026.72" y="-515" font-family="Helvetica" font-size="10.00">(inductive)</text>
</a>
</g>
</g>
<!-- L4YAML.Scanner.ScannerState.inputEnd -->
<g id="node14" class="node">
<title>L4YAML.Scanner.ScannerState.inputEnd</title>
<g id="a_node14"><a xlink:href="../../../api/L4YAML/Scanner.html#L4YAML.Scanner.ScannerState.inputEnd" xlink:title="ScannerState.inputEnd\n(def)" target="_blank">
<polygon fill="#dce9f7" stroke="#4a90d9" points="736.83,-648 619.83,-648 619.83,-612 736.83,-612 736.83,-648"/>
<text text-anchor="middle" x="678.33" y="-633" font-family="Helvetica" font-size="10.00">ScannerState.inputEnd</text>
<text text-anchor="middle" x="678.33" y="-622" font-family="Helvetica" font-size="10.00">(def)</text>
</a>
</g>
</g>
<!-- L4YAML.Scanner.saveSimpleKey -->
<g id="node15" class="node">
<title>L4YAML.Scanner.saveSimpleKey</title>
<g id="a_node15"><a xlink:href="../../../api/L4YAML/Scanner.html#L4YAML.Scanner.saveSimpleKey" xlink:title="saveSimpleKey\n(def)" target="_blank">
<polygon fill="#dce9f7" stroke="#4a90d9" points="1068.22,-595 985.22,-595 985.22,-559 1068.22,-559 1068.22,-595"/>
<text text-anchor="middle" x="1026.72" y="-580" font-family="Helvetica" font-size="10.00">saveSimpleKey</text>
<text text-anchor="middle" x="1026.72" y="-569" font-family="Helvetica" font-size="10.00">(def)</text>
</a>
</g>
</g>
<!-- L4YAML.Proofs.EmitterScannability.scanNextToken_preprocess_flow -->
<g id="node16" class="node">
<title>L4YAML.Proofs.EmitterScannability.scanNextToken_preprocess_flow</title>
<g id="a_node16"><a xlink:href="../../../api/L4YAML/Proofs/EmitterScannability.html#L4YAML.Proofs.EmitterScannability.scanNextToken_preprocess_flow" xlink:title="EmitterScannability.scanNextToken_preprocess_flow" target="_blank">
<polygon fill="#fff3cd" stroke="#d4a017" points="878.11,-213.54 878.11,-228.46 761.08,-239 595.57,-239 478.54,-228.46 478.54,-213.54 595.57,-203 761.08,-203 878.11,-213.54"/>
<polygon fill="none" stroke="#d4a017" points="882.11,-209.89 882.11,-232.11 761.26,-243 595.39,-243 474.54,-232.11 474.54,-209.89 595.39,-199 761.26,-199 882.11,-209.89"/>
<text text-anchor="middle" x="678.33" y="-217.9" font-family="Helvetica" font-size="12.00">EmitterScannability.scanNextToken_preprocess_flow</text>
</a>
</g>
</g>
<!-- L4YAML.Proofs.EmitterScannability.scanNextToken_preprocess_flow&#45;&gt;L4YAML.Proofs.CouplingBridge.ScannerSurfCorr -->
<g id="edge1" class="edge">
<title>L4YAML.Proofs.EmitterScannability.scanNextToken_preprocess_flow&#45;&gt;L4YAML.Proofs.CouplingBridge.ScannerSurfCorr</title>
<path fill="none" stroke="#4a90d9" stroke-width="2" d="M830.64,-236.86C853.44,-245.59 874.54,-258.39 890.22,-277 898.27,-286.55 898.84,-376.58 900.22,-389 916.22,-532.94 850.65,-600.62 943.22,-712 944.44,-713.47 945.75,-714.86 947.12,-716.18"/>
<polygon fill="#4a90d9" stroke="#4a90d9" stroke-width="2" points="945.81,-718.27 952.75,-720.89 948.95,-714.52 945.81,-718.27"/>
<text text-anchor="middle" x="912.72" y="-688.6" font-family="Times-Roman" font-size="8.00" fill="#4a90d9">about</text>
</g>
<!-- L4YAML.Proofs.EmitterScannability.scanNextToken_preprocess_flow&#45;&gt;L4YAML.Scanner.ScannerState -->
<g id="edge4" class="edge">
<title>L4YAML.Proofs.EmitterScannability.scanNextToken_preprocess_flow&#45;&gt;L4YAML.Scanner.ScannerState</title>
<path fill="none" stroke="#4a90d9" stroke-width="2" d="M829.02,-236.93C852.29,-245.62 873.96,-258.38 890.22,-277 913.79,-303.99 883.81,-325.15 900.22,-357 907.13,-370.42 918.71,-366.38 925.22,-380 951.92,-435.86 905.28,-609.08 943.22,-658 952.43,-669.87 966.97,-676.59 981.3,-680.37"/>
<polygon fill="#4a90d9" stroke="#4a90d9" stroke-width="2" points="980.92,-682.8 988.3,-682 982.04,-678.03 980.92,-682.8"/>
<text text-anchor="middle" x="912.72" y="-382.6" font-family="Times-Roman" font-size="8.00" fill="#4a90d9">about</text>
</g>
<!-- L4YAML.Proofs.EmitterScannability.scanNextToken_preprocess_flow&#45;&gt;L4YAML.CharPredicates.isWhiteSpaceBool -->
<g id="edge8" class="edge">
<title>L4YAML.Proofs.EmitterScannability.scanNextToken_preprocess_flow&#45;&gt;L4YAML.CharPredicates.isWhiteSpaceBool</title>
<path fill="none" stroke="#4a90d9" stroke-width="2" d="M722.8,-198.8C777.33,-174.44 870.32,-144.98 925.22,-195 957.06,-224.01 916.34,-354.34 943.22,-388 944.37,-389.44 945.6,-390.81 946.9,-392.1"/>
<polygon fill="#4a90d9" stroke="#4a90d9" stroke-width="2" points="945.34,-393.99 952.23,-396.75 948.56,-390.3 945.34,-393.99"/>
<text text-anchor="middle" x="912.72" y="-197.6" font-family="Times-Roman" font-size="8.00" fill="#4a90d9">about</text>
</g>
<!-- L4YAML.Proofs.EmitterScannability.scanNextToken_preprocess_flow&#45;&gt;L4YAML.CharPredicates.isLineBreakBool -->
<g id="edge2" class="edge">
<title>L4YAML.Proofs.EmitterScannability.scanNextToken_preprocess_flow&#45;&gt;L4YAML.CharPredicates.isLineBreakBool</title>
<path fill="none" stroke="#4a90d9" stroke-width="2" d="M754.79,-198.99C809.27,-188.15 880.78,-185.12 925.22,-227 960.11,-259.89 913.48,-404.39 943.22,-442 944.36,-443.45 945.59,-444.82 946.88,-446.12"/>
<polygon fill="#4a90d9" stroke="#4a90d9" stroke-width="2" points="945.31,-448 952.19,-450.78 948.54,-444.32 945.31,-448"/>
<text text-anchor="middle" x="912.72" y="-229.6" font-family="Times-Roman" font-size="8.00" fill="#4a90d9">about</text>
</g>
<!-- L4YAML.Proofs.EmitterScannability.scanNextToken_preprocess_flow&#45;&gt;L4YAML.Scanner.ScannerState.inFlow -->
<g id="edge6" class="edge">
<title>L4YAML.Proofs.EmitterScannability.scanNextToken_preprocess_flow&#45;&gt;L4YAML.Scanner.ScannerState.inFlow</title>
<path fill="none" stroke="#4a90d9" stroke-width="2" d="M703.59,-198.72C749.16,-159.71 849.74,-87.18 925.22,-131 981.65,-163.76 1009.07,-241.42 1019.89,-281.74"/>
<polygon fill="#4a90d9" stroke="#4a90d9" stroke-width="2" points="1017.59,-282.65 1021.72,-288.81 1022.34,-281.42 1017.59,-282.65"/>
<text text-anchor="middle" x="912.72" y="-133.6" font-family="Times-Roman" font-size="8.00" fill="#4a90d9">about</text>
</g>
<!-- L4YAML.Proofs.EmitterScannability.scanNextToken_preprocess_flow&#45;&gt;L4YAML.Surface.SurfPos.mk -->
<g id="edge7" class="edge">
<title>L4YAML.Proofs.EmitterScannability.scanNextToken_preprocess_flow&#45;&gt;L4YAML.Surface.SurfPos.mk</title>
<path fill="none" stroke="#4a90d9" stroke-width="2" d="M815.86,-238.13C842.73,-246.5 869.11,-258.85 890.22,-277 898.67,-284.27 895.42,-289.94 900.22,-300 910.58,-321.71 918.68,-324.85 925.22,-348 940.72,-402.88 908.15,-559.03 943.22,-604 949.19,-611.65 957.37,-617.16 966.28,-621.12"/>
<polygon fill="#4a90d9" stroke="#4a90d9" stroke-width="2" points="965.46,-623.43 972.87,-623.74 967.27,-618.88 965.46,-623.43"/>
<text text-anchor="middle" x="912.72" y="-350.6" font-family="Times-Roman" font-size="8.00" fill="#4a90d9">about</text>
</g>
<!-- L4YAML.Proofs.EmitterScannability.scanNextToken_preprocess_flow&#45;&gt;L4YAML.Scanner.scanNextToken_preprocess -->
<g id="edge9" class="edge">
<title>L4YAML.Proofs.EmitterScannability.scanNextToken_preprocess_flow&#45;&gt;L4YAML.Scanner.scanNextToken_preprocess</title>
<path fill="none" stroke="#4a90d9" stroke-width="2" d="M709.59,-198.95C760.6,-164.67 864.1,-107.98 925.22,-163 953.62,-188.57 919.2,-304.28 943.22,-334 945.77,-337.15 948.69,-339.94 951.87,-342.4"/>
<polygon fill="#4a90d9" stroke="#4a90d9" stroke-width="2" points="950.72,-344.58 957.88,-346.5 953.48,-340.53 950.72,-344.58"/>
<text text-anchor="middle" x="912.72" y="-165.6" font-family="Times-Roman" font-size="8.00" fill="#4a90d9">about</text>
</g>
<!-- L4YAML.Proofs.EmitterScannability.scanNextToken_preprocess_flow&#45;&gt;L4YAML.ScanError -->
<g id="edge5" class="edge">
<title>L4YAML.Proofs.EmitterScannability.scanNextToken_preprocess_flow&#45;&gt;L4YAML.ScanError</title>
<path fill="none" stroke="#4a90d9" stroke-width="2" d="M882.29,-228.62C898.35,-235.95 913.04,-245.84 925.22,-259 961.09,-297.77 910.62,-454.44 943.22,-496 954.04,-509.8 972.08,-516.63 988.53,-519.98"/>
<polygon fill="#4a90d9" stroke="#4a90d9" stroke-width="2" points="988.13,-522.4 995.45,-521.21 988.99,-517.57 988.13,-522.4"/>
<text text-anchor="middle" x="912.72" y="-261.6" font-family="Times-Roman" font-size="8.00" fill="#4a90d9">about</text>
</g>
<!-- L4YAML.Proofs.EmitterScannability.scanNextToken_preprocess_flow&#45;&gt;L4YAML.Scanner.saveSimpleKey -->
<g id="edge3" class="edge">
<title>L4YAML.Proofs.EmitterScannability.scanNextToken_preprocess_flow&#45;&gt;L4YAML.Scanner.saveSimpleKey</title>
<path fill="none" stroke="#4a90d9" stroke-width="2" d="M795.44,-239.97C851.05,-251.71 909.04,-268.81 925.22,-291 959.2,-337.62 907.76,-504.49 943.22,-550 951.74,-560.93 964.78,-567.5 978.01,-571.42"/>
<polygon fill="#4a90d9" stroke="#4a90d9" stroke-width="2" points="977.52,-573.82 984.91,-573.23 978.77,-569.08 977.52,-573.82"/>
<text text-anchor="middle" x="912.72" y="-293.6" font-family="Times-Roman" font-size="8.00" fill="#4a90d9">about</text>
</g>
<!-- L4YAML.Proofs.EmitterScannability.scanNextToken_preprocess_flow._proof_1_4 -->
<g id="node17" class="node">
<title>L4YAML.Proofs.EmitterScannability.scanNextToken_preprocess_flow._proof_1_4</title>
<g id="a_node17"><a xlink:href="../../../api/L4YAML/Proofs/EmitterScannability.html#L4YAML.Proofs.EmitterScannability.scanNextToken_preprocess_flow._proof_1_4" xlink:title="EmitterScannability.scanNextToken_preprocess_flow._proof_1_4\n(EmitterScannability)" target="_blank">
<ellipse fill="#d4edda" stroke="#28a745" cx="226.72" cy="-589" rx="210.94" ry="21.43"/>
<text text-anchor="middle" x="226.72" y="-592" font-family="Helvetica" font-size="10.00">EmitterScannability.scanNextToken_preprocess_flow._proof_1_4</text>
<text text-anchor="middle" x="226.72" y="-581" font-family="Helvetica" font-size="10.00">(EmitterScannability)</text>
</a>
</g>
</g>
<!-- L4YAML.Proofs.EmitterScannability.scanNextToken_preprocess_flow._proof_1_4&#45;&gt;L4YAML.Scanner.ScannerState -->
<g id="edge23" class="edge">
<title>L4YAML.Proofs.EmitterScannability.scanNextToken_preprocess_flow._proof_1_4&#45;&gt;L4YAML.Scanner.ScannerState</title>
<path fill="none" stroke="#999999" stroke-dasharray="1,5" d="M247.14,-567.72C284.82,-528.22 372.42,-444.77 466.44,-414 645.44,-355.42 716.21,-341.92 890.22,-414 895.3,-416.1 922.9,-444.01 925.22,-449 944.89,-491.26 914.26,-621.47 943.22,-658 952.98,-670.31 968.46,-677.07 983.39,-680.76"/>
<polygon fill="#999999" stroke="#999999" points="983.17,-682.5 988.43,-681.9 983.94,-679.09 983.17,-682.5"/>
</g>
<!-- L4YAML.Proofs.EmitterScannability.scanNextToken_preprocess_flow._proof_1_4&#45;&gt;L4YAML.Scanner.IndentEntry -->
<g id="edge21" class="edge">
<title>L4YAML.Proofs.EmitterScannability.scanNextToken_preprocess_flow._proof_1_4&#45;&gt;L4YAML.Scanner.IndentEntry</title>
<path fill="none" stroke="#999999" stroke-dasharray="1,5" d="M271.07,-568.14C318.09,-546.43 395.9,-513.1 466.44,-495 525.53,-479.83 596.23,-473 638.91,-470.06"/>
<polygon fill="#999999" stroke="#999999" points="639.1,-471.8 643.97,-469.72 638.87,-468.3 639.1,-471.8"/>
</g>
<!-- L4YAML.Proofs.EmitterScannability.scanNextToken_preprocess_flow._proof_1_4&#45;&gt;L4YAML.Scanner.ScannerState.indents -->
<g id="edge22" class="edge">
<title>L4YAML.Proofs.EmitterScannability.scanNextToken_preprocess_flow._proof_1_4&#45;&gt;L4YAML.Scanner.ScannerState.indents</title>
<path fill="none" stroke="#999999" stroke-dasharray="1,5" d="M332.16,-570.6C373.87,-563.49 422.37,-555.51 466.44,-549 517.49,-541.46 575.68,-534.1 617.99,-528.98"/>
<polygon fill="#999999" stroke="#999999" points="618.31,-530.7 623.07,-528.36 617.89,-527.22 618.31,-530.7"/>
</g>
<!-- L4YAML.Proofs.EmitterScannability.scanNextToken_preprocess_flow._proof_1_4&#45;&gt;L4YAML.Proofs.EmitterScannability.scanNextToken_preprocess_flow -->
<g id="edge11" class="edge">
<title>L4YAML.Proofs.EmitterScannability.scanNextToken_preprocess_flow._proof_1_4&#45;&gt;L4YAML.Proofs.EmitterScannability.scanNextToken_preprocess_flow</title>
<path fill="none" stroke="#28a745" d="M269.39,-568.05C320.61,-539.83 405.62,-484.43 445.44,-410 473.66,-357.23 422.82,-317.98 466.44,-277 484.21,-260.3 506.39,-248.45 529.63,-240.08"/>
<polygon fill="#28a745" stroke="#28a745" points="530.72,-242.3 536.54,-237.7 529.12,-237.66 530.72,-242.3"/>
</g>
<!-- L4YAML.Proofs.EmitterScannability.skipToContent_of_content_char -->
<g id="node18" class="node">
<title>L4YAML.Proofs.EmitterScannability.skipToContent_of_content_char</title>
<g id="a_node18"><a xlink:href="../../../api/L4YAML/Proofs/EmitterScannability.html#L4YAML.Proofs.EmitterScannability.skipToContent_of_content_char" xlink:title="EmitterScannability.skipToContent_of_content_char\n(EmitterScannability)" target="_blank">
<ellipse fill="#d4edda" stroke="#28a745" cx="226.72" cy="-649" rx="171.24" ry="21.43"/>
<text text-anchor="middle" x="226.72" y="-652" font-family="Helvetica" font-size="10.00">EmitterScannability.skipToContent_of_content_char</text>
<text text-anchor="middle" x="226.72" y="-641" font-family="Helvetica" font-size="10.00">(EmitterScannability)</text>
</a>
</g>
</g>
<!-- L4YAML.Proofs.EmitterScannability.skipToContent_of_content_char&#45;&gt;L4YAML.Scanner.ScannerState.peek? -->
<g id="edge30" class="edge">
<title>L4YAML.Proofs.EmitterScannability.skipToContent_of_content_char&#45;&gt;L4YAML.Scanner.ScannerState.peek?</title>
<path fill="none" stroke="#999999" stroke-dasharray="1,5" d="M389.9,-655.52C409.54,-660.8 428.58,-668.35 445.44,-679 459.82,-688.09 452.01,-701.98 466.44,-711 512.7,-739.92 575.84,-744.45 620.95,-743.11"/>
<polygon fill="#999999" stroke="#999999" points="621.15,-744.85 626.08,-742.93 621.02,-741.35 621.15,-744.85"/>
</g>
<!-- L4YAML.Proofs.EmitterScannability.skipToContent_of_content_char&#45;&gt;L4YAML.Scanner.ScannerState -->
<g id="edge27" class="edge">
<title>L4YAML.Proofs.EmitterScannability.skipToContent_of_content_char&#45;&gt;L4YAML.Scanner.ScannerState</title>
<path fill="none" stroke="#999999" stroke-dasharray="1,5" d="M397.82,-648.45C415.63,-642.07 432.08,-632.62 445.44,-619 473.32,-590.56 436.67,-467.46 466.44,-441 501.63,-409.72 853.18,-411.92 890.22,-441 968.31,-502.31 875.76,-585.16 943.22,-658 953.71,-669.33 969.01,-675.91 983.59,-679.73"/>
<polygon fill="#999999" stroke="#999999" points="983.23,-681.45 988.5,-680.93 984.06,-678.05 983.23,-681.45"/>
</g>
<!-- L4YAML.Proofs.EmitterScannability.skipToContent_of_content_char&#45;&gt;L4YAML.CharPredicates.isWhiteSpaceBool -->
<g id="edge29" class="edge">
<title>L4YAML.Proofs.EmitterScannability.skipToContent_of_content_char&#45;&gt;L4YAML.CharPredicates.isWhiteSpaceBool</title>
<path fill="none" stroke="#999999" stroke-dasharray="1,5" d="M398.02,-649.34C415.92,-642.84 432.33,-633.12 445.44,-619 457.55,-605.94 452.75,-476.61 455.44,-459 458.53,-438.65 451.06,-427.69 466.44,-414 619.78,-277.47 745.02,-261.62 925.22,-360 938.2,-367.09 931.51,-378.95 943.22,-388 946.17,-390.28 949.32,-392.37 952.61,-394.29"/>
<polygon fill="#999999" stroke="#999999" points="951.94,-395.92 957.17,-396.8 953.63,-392.86 951.94,-395.92"/>
</g>
<!-- L4YAML.Proofs.EmitterScannability.skipToContent_of_content_char&#45;&gt;L4YAML.CharPredicates.isLineBreakBool -->
<g id="edge25" class="edge">
<title>L4YAML.Proofs.EmitterScannability.skipToContent_of_content_char&#45;&gt;L4YAML.CharPredicates.isLineBreakBool</title>
<path fill="none" stroke="#999999" stroke-dasharray="1,5" d="M396.79,-651.37C414.67,-657.47 431.41,-666.35 445.44,-679 460.04,-692.18 451.03,-752.76 466.44,-765 506.35,-796.71 888.01,-804.85 925.22,-770 969.76,-728.29 905.8,-544.2 943.22,-496 944.76,-494.02 946.44,-492.18 948.25,-490.48"/>
<polygon fill="#999999" stroke="#999999" points="949.46,-491.75 952.12,-487.17 947.18,-489.09 949.46,-491.75"/>
</g>
<!-- L4YAML.Proofs.EmitterScannability.skipToContent_of_content_char&#45;&gt;L4YAML.Scanner.ScannerState.offset -->
<g id="edge24" class="edge">
<title>L4YAML.Proofs.EmitterScannability.skipToContent_of_content_char&#45;&gt;L4YAML.Scanner.ScannerState.offset</title>
<path fill="none" stroke="#999999" stroke-dasharray="1,5" d="M372.14,-660.24C457.06,-666.85 559.6,-674.84 621.57,-679.66"/>
<polygon fill="#999999" stroke="#999999" points="621.58,-681.42 626.7,-680.06 621.85,-677.93 621.58,-681.42"/>
</g>
<!-- L4YAML.Proofs.EmitterScannability.skipToContent_of_content_char&#45;&gt;L4YAML.Scanner.skipToContent -->
<g id="edge31" class="edge">
<title>L4YAML.Proofs.EmitterScannability.skipToContent_of_content_char&#45;&gt;L4YAML.Scanner.skipToContent</title>
<path fill="none" stroke="#999999" stroke-dasharray="1,5" d="M377.12,-638.79C400.53,-634.26 424.03,-627.9 445.44,-619 456.27,-614.5 455.58,-607.45 466.44,-603 520.75,-580.72 588.97,-575.71 632.86,-575.1"/>
<polygon fill="#999999" stroke="#999999" points="633.1,-576.85 638.09,-575.05 633.07,-573.35 633.1,-576.85"/>
</g>
<!-- L4YAML.Proofs.EmitterScannability.skipToContent_of_content_char&#45;&gt;L4YAML.ScanError -->
<g id="edge28" class="edge">
<title>L4YAML.Proofs.EmitterScannability.skipToContent_of_content_char&#45;&gt;L4YAML.ScanError</title>
<path fill="none" stroke="#999999" stroke-dasharray="1,5" d="M398,-649.03C415.84,-655.48 432.24,-665.09 445.44,-679 463.7,-698.26 436.1,-779.82 455.44,-798 493.47,-833.77 887.04,-843.61 925.22,-808 967.25,-768.8 907.89,-595.33 943.22,-550 954.39,-535.67 973.33,-528.85 990.24,-525.64"/>
<polygon fill="#999999" stroke="#999999" points="990.78,-527.33 995.42,-524.76 990.2,-523.88 990.78,-527.33"/>
</g>
<!-- L4YAML.Proofs.EmitterScannability.skipToContent_of_content_char&#45;&gt;L4YAML.Scanner.ScannerState.inputEnd -->
<g id="edge26" class="edge">
<title>L4YAML.Proofs.EmitterScannability.skipToContent_of_content_char&#45;&gt;L4YAML.Scanner.ScannerState.inputEnd</title>
<path fill="none" stroke="#999999" stroke-dasharray="1,5" d="M389.08,-642.18C467.08,-638.89 556.16,-635.12 614.4,-632.66"/>
<polygon fill="#999999" stroke="#999999" points="614.66,-634.4 619.58,-632.44 614.51,-630.9 614.66,-634.4"/>
</g>
<!-- L4YAML.Proofs.EmitterScannability.skipToContent_of_content_char&#45;&gt;L4YAML.Proofs.EmitterScannability.scanNextToken_preprocess_flow -->
<g id="edge12" class="edge">
<title>L4YAML.Proofs.EmitterScannability.skipToContent_of_content_char&#45;&gt;L4YAML.Proofs.EmitterScannability.scanNextToken_preprocess_flow</title>
<path fill="none" stroke="#28a745" d="M397.87,-649.88C415.91,-643.32 432.39,-633.44 445.44,-619 456.02,-607.28 453.68,-350.69 455.44,-335 456.89,-321.96 457.5,-286.6 466.44,-277 482.04,-260.22 502.05,-248.25 523.51,-239.74"/>
<polygon fill="#28a745" stroke="#28a745" points="524.53,-241.98 530.21,-237.21 522.8,-237.39 524.53,-241.98"/>
</g>
<!-- L4YAML.Proofs.EmitterScannability.peek_of_chars_cons -->
<g id="node19" class="node">
<title>L4YAML.Proofs.EmitterScannability.peek_of_chars_cons</title>
<g id="a_node19"><a xlink:href="../../../api/L4YAML/Proofs/EmitterScannability.html#L4YAML.Proofs.EmitterScannability.peek_of_chars_cons" xlink:title="EmitterScannability.peek_of_chars_cons\n(EmitterScannability)" target="_blank">
<ellipse fill="#d4edda" stroke="#28a745" cx="226.72" cy="-769" rx="137.36" ry="21.43"/>
<text text-anchor="middle" x="226.72" y="-772" font-family="Helvetica" font-size="10.00">EmitterScannability.peek_of_chars_cons</text>
<text text-anchor="middle" x="226.72" y="-761" font-family="Helvetica" font-size="10.00">(EmitterScannability)</text>
</a>
</g>
</g>
<!-- L4YAML.Proofs.EmitterScannability.peek_of_chars_cons&#45;&gt;L4YAML.Scanner.ScannerState.peek? -->
<g id="edge37" class="edge">
<title>L4YAML.Proofs.EmitterScannability.peek_of_chars_cons&#45;&gt;L4YAML.Scanner.ScannerState.peek?</title>
<path fill="none" stroke="#999999" stroke-dasharray="1,5" d="M247.29,-790.1C285.7,-828.85 374.39,-905.24 456.44,-881 537.17,-857.15 616.14,-793.53 654.04,-759.76"/>
<polygon fill="#999999" stroke="#999999" points="655.47,-760.84 658.02,-756.19 653.13,-758.23 655.47,-760.84"/>
</g>
<!-- L4YAML.Proofs.EmitterScannability.peek_of_chars_cons&#45;&gt;L4YAML.Proofs.CouplingBridge.ScannerSurfCorr -->
<g id="edge32" class="edge">
<title>L4YAML.Proofs.EmitterScannability.peek_of_chars_cons&#45;&gt;L4YAML.Proofs.CouplingBridge.ScannerSurfCorr</title>
<path fill="none" stroke="#999999" stroke-dasharray="1,5" d="M241.33,-790.15C272.54,-836.45 354.4,-945.97 455.44,-988 648.26,-1068.21 752.89,-1115.98 925.22,-998 1005.06,-943.34 1021.48,-815.3 1024.85,-762.45"/>
<polygon fill="#999999" stroke="#999999" points="1026.61,-762.37 1025.16,-757.28 1023.12,-762.17 1026.61,-762.37"/>
</g>
<!-- L4YAML.Proofs.EmitterScannability.peek_of_chars_cons&#45;&gt;L4YAML.Scanner.ScannerState -->
<g id="edge35" class="edge">
<title>L4YAML.Proofs.EmitterScannability.peek_of_chars_cons&#45;&gt;L4YAML.Scanner.ScannerState</title>
<path fill="none" stroke="#999999" stroke-dasharray="1,5" d="M244.64,-790.31C279.05,-831.74 361.91,-922.04 455.44,-956 504.5,-973.81 887,-995.55 925.22,-960 965.68,-922.37 909.19,-755.53 943.22,-712 952.89,-699.63 968.36,-692.85 983.31,-689.17"/>
<polygon fill="#999999" stroke="#999999" points="983.85,-690.84 988.35,-688.04 983.08,-687.43 983.85,-690.84"/>
</g>
<!-- L4YAML.Proofs.EmitterScannability.peek_of_chars_cons&#45;&gt;L4YAML.Surface.SurfPos.mk -->
<g id="edge36" class="edge">
<title>L4YAML.Proofs.EmitterScannability.peek_of_chars_cons&#45;&gt;L4YAML.Surface.SurfPos.mk</title>
<path fill="none" stroke="#999999" stroke-dasharray="1,5" d="M254.51,-789.84C295.2,-820.03 376.25,-874.55 455.44,-895 556.65,-921.13 850.09,-943.68 925.22,-871 959.36,-837.97 913.74,-695.25 943.22,-658 949.65,-649.88 958.57,-644.17 968.19,-640.16"/>
<polygon fill="#999999" stroke="#999999" points="968.92,-641.76 972.96,-638.33 967.67,-638.49 968.92,-641.76"/>
</g>
<!-- L4YAML.Proofs.EmitterScannability.peek_of_chars_cons&#45;&gt;L4YAML.Scanner.ScannerState.offset -->
<g id="edge33" class="edge">
<title>L4YAML.Proofs.EmitterScannability.peek_of_chars_cons&#45;&gt;L4YAML.Scanner.ScannerState.offset</title>
<path fill="none" stroke="#999999" stroke-dasharray="1,5" d="M362.88,-771.77C393.32,-772.28 425.48,-772.74 455.44,-773 455.88,-773 456.1,-773.29 456.44,-773 477.69,-754.9 446.38,-730.41 466.44,-711 506.87,-671.86 573.93,-669.76 621.57,-674.47"/>
<polygon fill="#999999" stroke="#999999" points="621.54,-676.23 626.7,-675.01 621.91,-672.74 621.54,-676.23"/>
</g>
<!-- L4YAML.Proofs.EmitterScannability.peek_of_chars_cons&#45;&gt;L4YAML.Scanner.ScannerState.inputEnd -->
<g id="edge34" class="edge">
<title>L4YAML.Proofs.EmitterScannability.peek_of_chars_cons&#45;&gt;L4YAML.Scanner.ScannerState.inputEnd</title>
<path fill="none" stroke="#999999" stroke-dasharray="1,5" d="M357.94,-775.28C389.7,-770.72 421.4,-760.2 445.44,-739 459.58,-726.52 451.76,-716.28 456.44,-698 461.09,-679.83 452.45,-669.5 466.44,-657 506.13,-621.52 568.05,-617.45 614.54,-620.66"/>
<polygon fill="#999999" stroke="#999999" points="614.44,-622.4 619.56,-621.04 614.71,-618.91 614.44,-622.4"/>
</g>
<!-- L4YAML.Proofs.EmitterScannability.peek_of_chars_cons&#45;&gt;L4YAML.Proofs.EmitterScannability.scanNextToken_preprocess_flow -->
<g id="edge10" class="edge">
<title>L4YAML.Proofs.EmitterScannability.peek_of_chars_cons&#45;&gt;L4YAML.Proofs.EmitterScannability.scanNextToken_preprocess_flow</title>
<path fill="none" stroke="#28a745" d="M341.6,-780.6C379.84,-778.14 419.34,-767.49 445.44,-739 462.27,-720.62 455.3,-539.89 456.44,-515 457.04,-501.78 458.15,-287.32 466.44,-277 479.97,-260.14 497.96,-248.02 517.73,-239.35"/>
<polygon fill="#28a745" stroke="#28a745" points="518.69,-241.61 524.21,-236.66 516.81,-237.09 518.69,-241.61"/>
</g>
<!-- L4YAML.Proofs.EmitterScannability.saveSimpleKey_preserves_peek -->
<g id="node20" class="node">
<title>L4YAML.Proofs.EmitterScannability.saveSimpleKey_preserves_peek</title>
<g id="a_node20"><a xlink:href="../../../api/L4YAML/Proofs/EmitterScannability.html#L4YAML.Proofs.EmitterScannability.saveSimpleKey_preserves_peek" xlink:title="EmitterScannability.saveSimpleKey_preserves_peek\n(EmitterScannability)" target="_blank">
<ellipse fill="#d4edda" stroke="#28a745" cx="226.72" cy="-709" rx="173.48" ry="21.43"/>
<text text-anchor="middle" x="226.72" y="-712" font-family="Helvetica" font-size="10.00">EmitterScannability.saveSimpleKey_preserves_peek</text>
<text text-anchor="middle" x="226.72" y="-701" font-family="Helvetica" font-size="10.00">(EmitterScannability)</text>
</a>
</g>
</g>
<!-- L4YAML.Proofs.EmitterScannability.saveSimpleKey_preserves_peek&#45;&gt;L4YAML.Scanner.ScannerState.peek? -->
<g id="edge40" class="edge">
<title>L4YAML.Proofs.EmitterScannability.saveSimpleKey_preserves_peek&#45;&gt;L4YAML.Scanner.ScannerState.peek?</title>
<path fill="none" stroke="#999999" stroke-dasharray="1,5" d="M380.25,-718.84C463.19,-724.19 560.81,-730.48 620.88,-734.36"/>
<polygon fill="#999999" stroke="#999999" points="621.11,-736.13 626.22,-734.7 621.34,-732.64 621.11,-736.13"/>
</g>
<!-- L4YAML.Proofs.EmitterScannability.saveSimpleKey_preserves_peek&#45;&gt;L4YAML.Scanner.ScannerState -->
<g id="edge39" class="edge">
<title>L4YAML.Proofs.EmitterScannability.saveSimpleKey_preserves_peek&#45;&gt;L4YAML.Scanner.ScannerState</title>
<path fill="none" stroke="#999999" stroke-dasharray="1,5" d="M400.1,-709.83C417.13,-716.27 432.76,-725.65 445.44,-739 463.4,-757.92 447.3,-831.2 455.44,-856 458.36,-864.91 458.38,-869.21 466.44,-874 554.17,-926.17 849.61,-964.57 925.22,-896 955.65,-868.4 917.51,-744.05 943.22,-712 953.05,-699.75 968.55,-693 983.47,-689.3"/>
<polygon fill="#999999" stroke="#999999" points="984.01,-690.97 988.5,-688.16 983.24,-687.56 984.01,-690.97"/>
</g>
<!-- L4YAML.Proofs.EmitterScannability.saveSimpleKey_preserves_peek&#45;&gt;L4YAML.Scanner.saveSimpleKey -->
<g id="edge38" class="edge">
<title>L4YAML.Proofs.EmitterScannability.saveSimpleKey_preserves_peek&#45;&gt;L4YAML.Scanner.saveSimpleKey</title>
<path fill="none" stroke="#999999" stroke-dasharray="1,5" d="M399.71,-710.57C416.75,-716.89 432.49,-726.04 445.44,-739 457.01,-750.58 450.12,-796.51 455.44,-812 458.6,-821.23 458.07,-825.98 466.44,-831 510.17,-857.23 887.84,-880.7 925.22,-846 964.74,-809.31 909.97,-646.46 943.22,-604 952.16,-592.59 966.03,-585.94 979.86,-582.09"/>
<polygon fill="#999999" stroke="#999999" points="980.53,-583.72 984.94,-580.79 979.67,-580.33 980.53,-583.72"/>
</g>
<!-- L4YAML.Proofs.EmitterScannability.saveSimpleKey_preserves_peek&#45;&gt;L4YAML.Proofs.EmitterScannability.scanNextToken_preprocess_flow -->
<g id="edge13" class="edge">
<title>L4YAML.Proofs.EmitterScannability.saveSimpleKey_preserves_peek&#45;&gt;L4YAML.Proofs.EmitterScannability.scanNextToken_preprocess_flow</title>
<path fill="none" stroke="#28a745" d="M400.01,-708.78C417.17,-702.27 432.85,-692.7 445.44,-679 460.57,-662.53 452.34,-294.37 466.44,-277 480.11,-260.15 498.23,-248.03 518.12,-239.38"/>
<polygon fill="#28a745" stroke="#28a745" points="519.1,-241.62 524.64,-236.69 517.23,-237.09 519.1,-241.62"/>
</g>
<!-- Decidable.decide.congr_simp -->
<g id="node21" class="node">
<title>Decidable.decide.congr_simp</title>
<g id="a_node21"><a xlink:href="../../../api/Init/SimpLemmas.html#Decidable.decide.congr_simp" xlink:title="Decidable.decide.congr_simp" target="_blank">
<ellipse fill="#fdebd0" stroke="#e67e22" cx="226.72" cy="-142" rx="85.21" ry="18"/>
<text text-anchor="middle" x="226.72" y="-139.5" font-family="Helvetica" font-size="10.00">Decidable.decide.congr_simp</text>
</a>
</g>
</g>
<!-- Decidable.decide.congr_simp&#45;&gt;L4YAML.Proofs.EmitterScannability.scanNextToken_preprocess_flow -->
<g id="edge14" class="edge">
<title>Decidable.decide.congr_simp&#45;&gt;L4YAML.Proofs.EmitterScannability.scanNextToken_preprocess_flow</title>
<path fill="none" stroke="#e67e22" stroke-width="2" d="M304.06,-149.63C345.94,-154.28 398.72,-160.88 445.44,-169 491.16,-176.94 541.48,-187.95 583.52,-197.79"/>
<polygon fill="#e67e22" stroke="#e67e22" stroke-width="2" points="583.09,-200.2 590.46,-199.42 584.21,-195.43 583.09,-200.2"/>
</g>
<!-- decide_eq_true -->
<g id="node22" class="node">
<title>decide_eq_true</title>
<g id="a_node22"><a xlink:href="../../../api/Init/Prelude.html#decide_eq_true" xlink:title="decide_eq_true" target="_blank">
<ellipse fill="#fdebd0" stroke="#e67e22" cx="226.72" cy="-88" rx="48.72" ry="18"/>
<text text-anchor="middle" x="226.72" y="-85.5" font-family="Helvetica" font-size="10.00">decide_eq_true</text>
</a>
</g>
</g>
<!-- decide_eq_true&#45;&gt;L4YAML.Proofs.EmitterScannability.scanNextToken_preprocess_flow -->
<g id="edge15" class="edge">
<title>decide_eq_true&#45;&gt;L4YAML.Proofs.EmitterScannability.scanNextToken_preprocess_flow</title>
<path fill="none" stroke="#e67e22" stroke-width="2" d="M275.69,-89.75C320.36,-92.36 388.45,-98.86 445.44,-115 513.37,-134.24 586.66,-170.66 632.27,-195.37"/>
<polygon fill="#e67e22" stroke="#e67e22" stroke-width="2" points="631.2,-197.58 638.52,-198.78 633.55,-193.28 631.2,-197.58"/>
</g>
<!-- Bool.false_eq_true -->
<g id="node23" class="node">
<title>Bool.false_eq_true</title>
<g id="a_node23"><a xlink:href="../../../api/Init/Data/Bool.html#Bool.false_eq_true" xlink:title="Bool.false_eq_true" target="_blank">
<ellipse fill="#fdebd0" stroke="#e67e22" cx="226.72" cy="-34" rx="57.88" ry="18"/>
<text text-anchor="middle" x="226.72" y="-31.5" font-family="Helvetica" font-size="10.00">Bool.false_eq_true</text>
</a>
</g>
</g>
<!-- Bool.false_eq_true&#45;&gt;L4YAML.Proofs.EmitterScannability.scanNextToken_preprocess_flow -->
<g id="edge16" class="edge">
<title>Bool.false_eq_true&#45;&gt;L4YAML.Proofs.EmitterScannability.scanNextToken_preprocess_flow</title>
<path fill="none" stroke="#e67e22" stroke-width="2" d="M284.52,-33.7C329.52,-35.18 393.29,-41.15 445.44,-61 526.81,-91.97 607.14,-157.23 648.53,-194.12"/>
<polygon fill="#e67e22" stroke="#e67e22" stroke-width="2" points="647.02,-196.06 653.87,-198.91 650.3,-192.41 647.02,-196.06"/>
</g>
<!-- decide_false -->
<g id="node24" class="node">
<title>decide_false</title>
<g id="a_node24"><a xlink:href="../../../api/Init/Core.html#decide_false" xlink:title="decide_false" target="_blank">
<ellipse fill="#fdebd0" stroke="#e67e22" cx="226.72" cy="-358" rx="41.59" ry="18"/>
<text text-anchor="middle" x="226.72" y="-355.5" font-family="Helvetica" font-size="10.00">decide_false</text>
</a>
</g>
</g>
<!-- decide_false&#45;&gt;L4YAML.Proofs.EmitterScannability.scanNextToken_preprocess_flow -->
<g id="edge17" class="edge">
<title>decide_false&#45;&gt;L4YAML.Proofs.EmitterScannability.scanNextToken_preprocess_flow</title>
<path fill="none" stroke="#e67e22" stroke-width="2" d="M265.36,-365.22C313.5,-372.1 396.5,-375.69 445.44,-331 460.89,-316.89 444,-302.52 455.44,-285 458.74,-279.94 460.98,-279.6 466.44,-277 497.17,-262.37 532.32,-251.11 564.98,-242.66"/>
<polygon fill="#e67e22" stroke="#e67e22" stroke-width="2" points="565.73,-245 571.91,-240.9 564.53,-240.25 565.73,-245"/>
</g>
<!-- Bool.false_and -->
<g id="node25" class="node">
<title>Bool.false_and</title>
<g id="a_node25"><a xlink:href="../../../api/Init/SimpLemmas.html#Bool.false_and" xlink:title="Bool.false_and" target="_blank">
<ellipse fill="#fdebd0" stroke="#e67e22" cx="226.72" cy="-304" rx="47.86" ry="18"/>
<text text-anchor="middle" x="226.72" y="-301.5" font-family="Helvetica" font-size="10.00">Bool.false_and</text>
</a>
</g>
</g>
<!-- Bool.false_and&#45;&gt;L4YAML.Proofs.EmitterScannability.scanNextToken_preprocess_flow -->
<g id="edge18" class="edge">
<title>Bool.false_and&#45;&gt;L4YAML.Proofs.EmitterScannability.scanNextToken_preprocess_flow</title>
<path fill="none" stroke="#e67e22" stroke-width="2" d="M272.5,-309.39C319.47,-312.71 393.55,-311.09 445.44,-277 452.76,-272.19 448.23,-265 455.44,-260 469,-250.59 484.13,-243.22 499.93,-237.48"/>
<polygon fill="#e67e22" stroke="#e67e22" stroke-width="2" points="500.94,-239.72 506.75,-235.11 499.33,-235.09 500.94,-239.72"/>
</g>
<!-- ite_cond_eq_false -->
<g id="node26" class="node">
<title>ite_cond_eq_false</title>
<g id="a_node26"><a xlink:href="../../../api/Init/SimpLemmas.html#ite_cond_eq_false" xlink:title="ite_cond_eq_false" target="_blank">
<ellipse fill="#fdebd0" stroke="#e67e22" cx="226.72" cy="-250" rx="55.85" ry="18"/>
<text text-anchor="middle" x="226.72" y="-247.5" font-family="Helvetica" font-size="10.00">ite_cond_eq_false</text>
</a>
</g>
</g>
<!-- ite_cond_eq_false&#45;&gt;L4YAML.Proofs.EmitterScannability.scanNextToken_preprocess_flow -->
<g id="edge19" class="edge">
<title>ite_cond_eq_false&#45;&gt;L4YAML.Proofs.EmitterScannability.scanNextToken_preprocess_flow</title>
<path fill="none" stroke="#e67e22" stroke-width="2" d="M281.55,-246.41C327.69,-243.35 395.93,-238.84 455.44,-235 462.88,-234.52 470.47,-234.03 478.13,-233.54"/>
<polygon fill="#e67e22" stroke="#e67e22" stroke-width="2" points="478.36,-235.98 485.19,-233.09 478.05,-231.09 478.36,-235.98"/>
</g>
<!-- Bool.not_true -->
<g id="node27" class="node">
<title>Bool.not_true</title>
<g id="a_node27"><a xlink:href="../../../api/Init/SimpLemmas.html#Bool.not_true" xlink:title="Bool.not_true" target="_blank">
<ellipse fill="#fdebd0" stroke="#e67e22" cx="226.72" cy="-196" rx="43.62" ry="18"/>
<text text-anchor="middle" x="226.72" y="-193.5" font-family="Helvetica" font-size="10.00">Bool.not_true</text>
</a>
</g>
</g>
<!-- Bool.not_true&#45;&gt;L4YAML.Proofs.EmitterScannability.scanNextToken_preprocess_flow -->
<g id="edge20" class="edge">
<title>Bool.not_true&#45;&gt;L4YAML.Proofs.EmitterScannability.scanNextToken_preprocess_flow</title>
<path fill="none" stroke="#e67e22" stroke-width="2" d="M270.02,-198.35C316.13,-200.92 393.38,-205.21 468.29,-209.38"/>
<polygon fill="#e67e22" stroke="#e67e22" stroke-width="2" points="468.41,-211.84 475.53,-209.78 468.68,-206.94 468.41,-211.84"/>
</g>
</g>
</svg>
