<?xml version="1.0" encoding="UTF-8" standalone="no"?>
<!DOCTYPE svg PUBLIC "-//W3C//DTD SVG 1.1//EN"
 "http://www.w3.org/Graphics/SVG/1.1/DTD/svg11.dtd">
<!-- Generated by graphviz version 2.44.0 (0)
 -->
<!-- Title: EmitterScannability.saveSimpleKey_preserves_inputEnd Pages: 1 -->
<svg width="655pt" height="256pt"
 viewBox="0.00 0.00 655.10 256.00" xmlns="http://www.w3.org/2000/svg" xmlns:xlink="http://www.w3.org/1999/xlink">
<g id="graph0" class="graph" transform="scale(1 1) rotate(0) translate(4 252)">
<title>EmitterScannability.saveSimpleKey_preserves_inputEnd</title>
<polygon fill="white" stroke="transparent" points="-4,4 -4,-252 651.1,-252 651.1,4 -4,4"/>
<text text-anchor="middle" x="323.55" y="-233.6" font-family="Helvetica Bold" font-size="13.00">EmitterScannability.saveSimpleKey_preserves_inputEnd</text>
<text text-anchor="middle" x="323.55" y="-219.6" font-family="Helvetica Bold" font-size="13.00">(heuristic: used by 11 proofs)</text>
<text text-anchor="middle" x="323.55" y="-205.6" font-family="Helvetica Bold" font-size="13.00">(L4YAML.Proofs.EmitterScannability)</text>
<g id="clust1" class="cluster">
<title>cluster_functions</title>
<polygon fill="none" stroke="#4a90d9" stroke-dasharray="5,2" points="506.1,-8 506.1,-190 639.1,-190 639.1,-8 506.1,-8"/>
<text text-anchor="middle" x="572.6" y="-175.6" font-family="Helvetica Bold" font-size="13.00" fill="#4a90d9">Functions</text>
</g>
<g id="clust2" class="cluster">
<title>cluster_key</title>
<polygon fill="none" stroke="#d4a017" stroke-dasharray="5,2" points="8,-58 8,-140 461.1,-140 461.1,-58 8,-58"/>
<text text-anchor="middle" x="234.55" y="-125.6" font-family="Helvetica Bold" font-size="13.00" fill="#d4a017">Key Theorem</text>
</g>
<!-- L4YAML.Scanner.ScannerState -->
<g id="node1" class="node">
<title>L4YAML.Scanner.ScannerState</title>
<g id="a_node1"><a xlink:href="../../../api/L4YAML/Scanner.html#L4YAML.Scanner.ScannerState" xlink:title="ScannerState\n(inductive)" target="_blank">
<polygon fill="#dce9f7" stroke="#4a90d9" points="610.6,-160 534.6,-160 534.6,-124 610.6,-124 610.6,-160"/>
<text text-anchor="middle" x="572.6" y="-145" font-family="Helvetica" font-size="10.00">ScannerState</text>
<text text-anchor="middle" x="572.6" y="-134" font-family="Helvetica" font-size="10.00">(inductive)</text>
</a>
</g>
</g>
<!-- L4YAML.Scanner.ScannerState.inputEnd -->
<g id="node2" class="node">
<title>L4YAML.Scanner.ScannerState.inputEnd</title>
<g id="a_node2"><a xlink:href="../../../api/L4YAML/Scanner.html#L4YAML.Scanner.ScannerState.inputEnd" xlink:title="ScannerState.inputEnd\n(def)" target="_blank">
<polygon fill="#dce9f7" stroke="#4a90d9" points="631.1,-106 514.1,-106 514.1,-70 631.1,-70 631.1,-106"/>
<text text-anchor="middle" x="572.6" y="-91" font-family="Helvetica" font-size="10.00">ScannerState.inputEnd</text>
<text text-anchor="middle" x="572.6" y="-80" font-family="Helvetica" font-size="10.00">(def)</text>
</a>
</g>
</g>
<!-- L4YAML.Scanner.saveSimpleKey -->
<g id="node3" class="node">
<title>L4YAML.Scanner.saveSimpleKey</title>
<g id="a_node3"><a xlink:href="../../../api/L4YAML/Scanner.html#L4YAML.Scanner.saveSimpleKey" xlink:title="saveSimpleKey\n(def)" target="_blank">
<polygon fill="#dce9f7" stroke="#4a90d9" points="614.1,-52 531.1,-52 531.1,-16 614.1,-16 614.1,-52"/>
<text text-anchor="middle" x="572.6" y="-37" font-family="Helvetica" font-size="10.00">saveSimpleKey</text>
<text text-anchor="middle" x="572.6" y="-26" font-family="Helvetica" font-size="10.00">(def)</text>
</a>
</g>
</g>
<!-- L4YAML.Proofs.EmitterScannability.saveSimpleKey_preserves_inputEnd -->
<g id="node4" class="node">
<title>L4YAML.Proofs.EmitterScannability.saveSimpleKey_preserves_inputEnd</title>
<g id="a_node4"><a xlink:href="../../../api/L4YAML/Proofs/EmitterScannability.html#L4YAML.Proofs.EmitterScannability.saveSimpleKey_preserves_inputEnd" xlink:title="EmitterScannability.saveSimpleKey_preserves_inputEnd" target="_blank">
<polygon fill="#fff3cd" stroke="#d4a017" points="449.15,-80.54 449.15,-95.46 323.44,-106 145.66,-106 19.95,-95.46 19.95,-80.54 145.66,-70 323.44,-70 449.15,-80.54"/>
<polygon fill="none" stroke="#d4a017" points="453.15,-76.87 453.15,-99.13 323.61,-110 145.49,-110 15.95,-99.13 15.95,-76.87 145.49,-66 323.61,-66 453.15,-76.87"/>
<text text-anchor="middle" x="234.55" y="-84.9" font-family="Helvetica" font-size="12.00">EmitterScannability.saveSimpleKey_preserves_inputEnd</text>
</a>
</g>
</g>
<!-- L4YAML.Proofs.EmitterScannability.saveSimpleKey_preserves_inputEnd&#45;&gt;L4YAML.Scanner.ScannerState -->
<g id="edge3" class="edge">
<title>L4YAML.Proofs.EmitterScannability.saveSimpleKey_preserves_inputEnd&#45;&gt;L4YAML.Scanner.ScannerState</title>
<path fill="none" stroke="#4a90d9" stroke-width="2" d="M355.92,-107.34C415.51,-116.92 483.81,-127.89 527.3,-134.88"/>
<polygon fill="#4a90d9" stroke="#4a90d9" stroke-width="2" points="527.03,-137.32 534.33,-136.01 527.81,-132.48 527.03,-137.32"/>
<text text-anchor="middle" x="483.6" y="-130.6" font-family="Times-Roman" font-size="8.00" fill="#4a90d9">about</text>
</g>
<!-- L4YAML.Proofs.EmitterScannability.saveSimpleKey_preserves_inputEnd&#45;&gt;L4YAML.Scanner.ScannerState.inputEnd -->
<g id="edge2" class="edge">
<title>L4YAML.Proofs.EmitterScannability.saveSimpleKey_preserves_inputEnd&#45;&gt;L4YAML.Scanner.ScannerState.inputEnd</title>
<path fill="none" stroke="#4a90d9" stroke-width="2" d="M453.12,-88C472.27,-88 490.48,-88 506.62,-88"/>
<polygon fill="#4a90d9" stroke="#4a90d9" stroke-width="2" points="506.88,-90.45 513.88,-88 506.88,-85.55 506.88,-90.45"/>
<text text-anchor="middle" x="483.6" y="-90.6" font-family="Times-Roman" font-size="8.00" fill="#4a90d9">about</text>
</g>
<!-- L4YAML.Proofs.EmitterScannability.saveSimpleKey_preserves_inputEnd&#45;&gt;L4YAML.Scanner.saveSimpleKey -->
<g id="edge1" class="edge">
<title>L4YAML.Proofs.EmitterScannability.saveSimpleKey_preserves_inputEnd&#45;&gt;L4YAML.Scanner.saveSimpleKey</title>
<path fill="none" stroke="#4a90d9" stroke-width="2" d="M355.92,-68.66C413.9,-59.34 480.14,-48.7 523.73,-41.69"/>
<polygon fill="#4a90d9" stroke="#4a90d9" stroke-width="2" points="524.28,-44.09 530.8,-40.56 523.5,-39.25 524.28,-44.09"/>
<text text-anchor="middle" x="483.6" y="-51.6" font-family="Times-Roman" font-size="8.00" fill="#4a90d9">about</text>
</g>
</g>
</svg>
