<?xml version="1.0" encoding="UTF-8" standalone="no"?>
<!DOCTYPE svg PUBLIC "-//W3C//DTD SVG 1.1//EN"
 "http://www.w3.org/Graphics/SVG/1.1/DTD/svg11.dtd">
<!-- Generated by graphviz version 2.44.0 (0)
 -->
<!-- Title: EmitterScannability.advance_preserves_indents Pages: 1 -->
<svg width="590pt" height="310pt"
 viewBox="0.00 0.00 590.47 310.00" xmlns="http://www.w3.org/2000/svg" xmlns:xlink="http://www.w3.org/1999/xlink">
<g id="graph0" class="graph" transform="scale(1 1) rotate(0) translate(4 306)">
<title>EmitterScannability.advance_preserves_indents</title>
<polygon fill="white" stroke="transparent" points="-4,4 -4,-306 586.47,-306 586.47,4 -4,4"/>
<text text-anchor="middle" x="291.23" y="-287.6" font-family="Helvetica Bold" font-size="13.00">EmitterScannability.advance_preserves_indents</text>
<text text-anchor="middle" x="291.23" y="-273.6" font-family="Helvetica Bold" font-size="13.00">(heuristic: used by 13 proofs)</text>
<text text-anchor="middle" x="291.23" y="-259.6" font-family="Helvetica Bold" font-size="13.00">(L4YAML.Proofs.EmitterScannability)</text>
<g id="clust1" class="cluster">
<title>cluster_functions</title>
<polygon fill="none" stroke="#4a90d9" stroke-dasharray="5,2" points="443.47,-8 443.47,-244 574.47,-244 574.47,-8 443.47,-8"/>
<text text-anchor="middle" x="508.97" y="-229.6" font-family="Helvetica Bold" font-size="13.00" fill="#4a90d9">Functions</text>
</g>
<g id="clust2" class="cluster">
<title>cluster_key</title>
<polygon fill="none" stroke="#d4a017" stroke-dasharray="5,2" points="8,-84 8,-166 398.47,-166 398.47,-84 8,-84"/>
<text text-anchor="middle" x="203.23" y="-151.6" font-family="Helvetica Bold" font-size="13.00" fill="#d4a017">Key Theorem</text>
</g>
<!-- L4YAML.Scanner.ScannerState.advance -->
<g id="node1" class="node">
<title>L4YAML.Scanner.ScannerState.advance</title>
<polygon fill="#dce9f7" stroke="#4a90d9" points="566.47,-214 451.47,-214 451.47,-178 566.47,-178 566.47,-214"/>
<text text-anchor="middle" x="508.97" y="-199" font-family="Helvetica" font-size="10.00">ScannerState.advance</text>
<text text-anchor="middle" x="508.97" y="-188" font-family="Helvetica" font-size="10.00">(def)</text>
</g>
<!-- L4YAML.Scanner.ScannerState -->
<g id="node2" class="node">
<title>L4YAML.Scanner.ScannerState</title>
<polygon fill="#dce9f7" stroke="#4a90d9" points="546.97,-160 470.97,-160 470.97,-124 546.97,-124 546.97,-160"/>
<text text-anchor="middle" x="508.97" y="-145" font-family="Helvetica" font-size="10.00">ScannerState</text>
<text text-anchor="middle" x="508.97" y="-134" font-family="Helvetica" font-size="10.00">(inductive)</text>
</g>
<!-- L4YAML.Scanner.ScannerState.indents -->
<g id="node3" class="node">
<title>L4YAML.Scanner.ScannerState.indents</title>
<polygon fill="#dce9f7" stroke="#4a90d9" points="563.97,-106 453.97,-106 453.97,-70 563.97,-70 563.97,-106"/>
<text text-anchor="middle" x="508.97" y="-91" font-family="Helvetica" font-size="10.00">ScannerState.indents</text>
<text text-anchor="middle" x="508.97" y="-80" font-family="Helvetica" font-size="10.00">(def)</text>
</g>
<!-- L4YAML.Scanner.IndentEntry -->
<g id="node4" class="node">
<title>L4YAML.Scanner.IndentEntry</title>
<polygon fill="#dce9f7" stroke="#4a90d9" points="542.97,-52 474.97,-52 474.97,-16 542.97,-16 542.97,-52"/>
<text text-anchor="middle" x="508.97" y="-37" font-family="Helvetica" font-size="10.00">IndentEntry</text>
<text text-anchor="middle" x="508.97" y="-26" font-family="Helvetica" font-size="10.00">(inductive)</text>
</g>
<!-- L4YAML.Proofs.EmitterScannability.advance_preserves_indents -->
<g id="node5" class="node">
<title>L4YAML.Proofs.EmitterScannability.advance_preserves_indents</title>
<polygon fill="#fff3cd" stroke="#d4a017" points="386.7,-106.54 386.7,-121.46 279.23,-132 127.24,-132 19.77,-121.46 19.77,-106.54 127.24,-96 279.23,-96 386.7,-106.54"/>
<polygon fill="none" stroke="#d4a017" points="390.7,-102.92 390.7,-125.08 279.42,-136 127.04,-136 15.77,-125.08 15.77,-102.92 127.04,-92 279.42,-92 390.7,-102.92"/>
<text text-anchor="middle" x="203.23" y="-110.9" font-family="Helvetica" font-size="12.00">EmitterScannability.advance_preserves_indents</text>
</g>
<!-- L4YAML.Proofs.EmitterScannability.advance_preserves_indents&#45;&gt;L4YAML.Scanner.ScannerState.advance -->
<g id="edge2" class="edge">
<title>L4YAML.Proofs.EmitterScannability.advance_preserves_indents&#45;&gt;L4YAML.Scanner.ScannerState.advance</title>
<path fill="none" stroke="#4a90d9" stroke-width="2" d="M284.43,-135.65C334.42,-149.15 397.84,-166.27 444.36,-178.83"/>
<polygon fill="#4a90d9" stroke="#4a90d9" stroke-width="2" points="443.99,-181.26 451.38,-180.72 445.26,-176.53 443.99,-181.26"/>
<text text-anchor="middle" x="420.97" y="-176.6" font-family="Times-Roman" font-size="8.00" fill="#4a90d9">about</text>
</g>
<!-- L4YAML.Proofs.EmitterScannability.advance_preserves_indents&#45;&gt;L4YAML.Scanner.ScannerState -->
<g id="edge4" class="edge">
<title>L4YAML.Proofs.EmitterScannability.advance_preserves_indents&#45;&gt;L4YAML.Scanner.ScannerState</title>
<path fill="none" stroke="#4a90d9" stroke-width="2" d="M358.77,-128.25C397.25,-131.79 435.49,-135.32 463.63,-137.91"/>
<polygon fill="#4a90d9" stroke="#4a90d9" stroke-width="2" points="463.73,-140.38 470.92,-138.58 464.18,-135.5 463.73,-140.38"/>
<text text-anchor="middle" x="420.97" y="-136.6" font-family="Times-Roman" font-size="8.00" fill="#4a90d9">about</text>
</g>
<!-- L4YAML.Proofs.EmitterScannability.advance_preserves_indents&#45;&gt;L4YAML.Scanner.ScannerState.indents -->
<g id="edge3" class="edge">
<title>L4YAML.Proofs.EmitterScannability.advance_preserves_indents&#45;&gt;L4YAML.Scanner.ScannerState.indents</title>
<path fill="none" stroke="#4a90d9" stroke-width="2" d="M364.55,-100.28C393.88,-97.77 422.8,-95.29 446.89,-93.23"/>
<polygon fill="#4a90d9" stroke="#4a90d9" stroke-width="2" points="447.12,-95.67 453.88,-92.63 446.7,-90.79 447.12,-95.67"/>
<text text-anchor="middle" x="420.97" y="-98.6" font-family="Times-Roman" font-size="8.00" fill="#4a90d9">about</text>
</g>
<!-- L4YAML.Proofs.EmitterScannability.advance_preserves_indents&#45;&gt;L4YAML.Scanner.IndentEntry -->
<g id="edge1" class="edge">
<title>L4YAML.Proofs.EmitterScannability.advance_preserves_indents&#45;&gt;L4YAML.Scanner.IndentEntry</title>
<path fill="none" stroke="#4a90d9" stroke-width="2" d="M285.63,-92.56C344.63,-77.02 421.87,-56.68 468.05,-44.52"/>
<polygon fill="#4a90d9" stroke="#4a90d9" stroke-width="2" points="468.76,-46.86 474.91,-42.71 467.51,-42.12 468.76,-46.86"/>
<text text-anchor="middle" x="420.97" y="-61.6" font-family="Times-Roman" font-size="8.00" fill="#4a90d9">about</text>
</g>
</g>
</svg>
