<?xml version="1.0" encoding="UTF-8" standalone="no"?>
<!DOCTYPE svg PUBLIC "-//W3C//DTD SVG 1.1//EN"
 "http://www.w3.org/Graphics/SVG/1.1/DTD/svg11.dtd">
<!-- Generated by graphviz version 2.44.0 (0)
 -->
<!-- Title: EmitterScannability.advance_preserves_dp Pages: 1 -->
<svg width="596pt" height="256pt"
 viewBox="0.00 0.00 596.15 256.00" xmlns="http://www.w3.org/2000/svg" xmlns:xlink="http://www.w3.org/1999/xlink">
<g id="graph0" class="graph" transform="scale(1 1) rotate(0) translate(4 252)">
<title>EmitterScannability.advance_preserves_dp</title>
<polygon fill="white" stroke="transparent" points="-4,4 -4,-252 592.15,-252 592.15,4 -4,4"/>
<text text-anchor="middle" x="294.08" y="-233.6" font-family="Helvetica Bold" font-size="13.00">EmitterScannability.advance_preserves_dp</text>
<text text-anchor="middle" x="294.08" y="-219.6" font-family="Helvetica Bold" font-size="13.00">(heuristic: used by 14 proofs)</text>
<text text-anchor="middle" x="294.08" y="-205.6" font-family="Helvetica Bold" font-size="13.00">(L4YAML.Proofs.EmitterScannability)</text>
<g id="clust1" class="cluster">
<title>cluster_functions</title>
<polygon fill="none" stroke="#4a90d9" stroke-dasharray="5,2" points="410.15,-8 410.15,-190 580.15,-190 580.15,-8 410.15,-8"/>
<text text-anchor="middle" x="495.15" y="-175.6" font-family="Helvetica Bold" font-size="13.00" fill="#4a90d9">Functions</text>
</g>
<g id="clust2" class="cluster">
<title>cluster_key</title>
<polygon fill="none" stroke="#d4a017" stroke-dasharray="5,2" points="8,-58 8,-140 365.15,-140 365.15,-58 8,-58"/>
<text text-anchor="middle" x="186.58" y="-125.6" font-family="Helvetica Bold" font-size="13.00" fill="#d4a017">Key Theorem</text>
</g>
<!-- L4YAML.Scanner.ScannerState.advance -->
<g id="node1" class="node">
<title>L4YAML.Scanner.ScannerState.advance</title>
<g id="a_node1"><a xlink:href="../../../api/L4YAML/Scanner.html#L4YAML.Scanner.ScannerState.advance" xlink:title="ScannerState.advance\n(def)" target="_blank">
<polygon fill="#dce9f7" stroke="#4a90d9" points="552.65,-160 437.65,-160 437.65,-124 552.65,-124 552.65,-160"/>
<text text-anchor="middle" x="495.15" y="-145" font-family="Helvetica" font-size="10.00">ScannerState.advance</text>
<text text-anchor="middle" x="495.15" y="-134" font-family="Helvetica" font-size="10.00">(def)</text>
</a>
</g>
</g>
<!-- L4YAML.Scanner.ScannerState -->
<g id="node2" class="node">
<title>L4YAML.Scanner.ScannerState</title>
<g id="a_node2"><a xlink:href="../../../api/L4YAML/Scanner.html#L4YAML.Scanner.ScannerState" xlink:title="ScannerState\n(inductive)" target="_blank">
<polygon fill="#dce9f7" stroke="#4a90d9" points="533.15,-106 457.15,-106 457.15,-70 533.15,-70 533.15,-106"/>
<text text-anchor="middle" x="495.15" y="-91" font-family="Helvetica" font-size="10.00">ScannerState</text>
<text text-anchor="middle" x="495.15" y="-80" font-family="Helvetica" font-size="10.00">(inductive)</text>
</a>
</g>
</g>
<!-- L4YAML.Scanner.ScannerState.directivesPresent -->
<g id="node3" class="node">
<title>L4YAML.Scanner.ScannerState.directivesPresent</title>
<g id="a_node3"><a xlink:href="../../../api/L4YAML/Scanner.html#L4YAML.Scanner.ScannerState.directivesPresent" xlink:title="ScannerState.directivesPresent\n(def)" target="_blank">
<polygon fill="#dce9f7" stroke="#4a90d9" points="572.15,-52 418.15,-52 418.15,-16 572.15,-16 572.15,-52"/>
<text text-anchor="middle" x="495.15" y="-37" font-family="Helvetica" font-size="10.00">ScannerState.directivesPresent</text>
<text text-anchor="middle" x="495.15" y="-26" font-family="Helvetica" font-size="10.00">(def)</text>
</a>
</g>
</g>
<!-- L4YAML.Proofs.EmitterScannability.advance_preserves_dp -->
<g id="node4" class="node">
<title>L4YAML.Proofs.EmitterScannability.advance_preserves_dp</title>
<g id="a_node4"><a xlink:href="../../../api/L4YAML/Proofs/EmitterScannability.html#L4YAML.Proofs.EmitterScannability.advance_preserves_dp" xlink:title="EmitterScannability.advance_preserves_dp" target="_blank">
<polygon fill="#fff3cd" stroke="#d4a017" points="353.23,-80.54 353.23,-95.46 255.61,-106 117.55,-106 19.93,-95.46 19.93,-80.54 117.55,-70 255.61,-70 353.23,-80.54"/>
<polygon fill="none" stroke="#d4a017" points="357.23,-76.95 357.23,-99.05 255.82,-110 117.33,-110 15.92,-99.05 15.92,-76.95 117.33,-66 255.82,-66 357.23,-76.95"/>
<text text-anchor="middle" x="186.58" y="-84.9" font-family="Helvetica" font-size="12.00">EmitterScannability.advance_preserves_dp</text>
</a>
</g>
</g>
<!-- L4YAML.Proofs.EmitterScannability.advance_preserves_dp&#45;&gt;L4YAML.Scanner.ScannerState.advance -->
<g id="edge1" class="edge">
<title>L4YAML.Proofs.EmitterScannability.advance_preserves_dp&#45;&gt;L4YAML.Scanner.ScannerState.advance</title>
<path fill="none" stroke="#4a90d9" stroke-width="2" d="M290.94,-106.21C337.19,-114.35 390.24,-123.7 430.53,-130.79"/>
<polygon fill="#4a90d9" stroke="#4a90d9" stroke-width="2" points="430.33,-133.25 437.65,-132.05 431.18,-128.42 430.33,-133.25"/>
<text text-anchor="middle" x="387.65" y="-126.6" font-family="Times-Roman" font-size="8.00" fill="#4a90d9">about</text>
</g>
<!-- L4YAML.Proofs.EmitterScannability.advance_preserves_dp&#45;&gt;L4YAML.Scanner.ScannerState -->
<g id="edge3" class="edge">
<title>L4YAML.Proofs.EmitterScannability.advance_preserves_dp&#45;&gt;L4YAML.Scanner.ScannerState</title>
<path fill="none" stroke="#4a90d9" stroke-width="2" d="M357.45,-88C391.65,-88 424.74,-88 449.79,-88"/>
<polygon fill="#4a90d9" stroke="#4a90d9" stroke-width="2" points="449.97,-90.45 456.97,-88 449.97,-85.55 449.97,-90.45"/>
<text text-anchor="middle" x="387.65" y="-90.6" font-family="Times-Roman" font-size="8.00" fill="#4a90d9">about</text>
</g>
<!-- L4YAML.Proofs.EmitterScannability.advance_preserves_dp&#45;&gt;L4YAML.Scanner.ScannerState.directivesPresent -->
<g id="edge2" class="edge">
<title>L4YAML.Proofs.EmitterScannability.advance_preserves_dp&#45;&gt;L4YAML.Scanner.ScannerState.directivesPresent</title>
<path fill="none" stroke="#4a90d9" stroke-width="2" d="M290.94,-69.79C329.89,-62.93 373.67,-55.22 410.59,-48.72"/>
<polygon fill="#4a90d9" stroke="#4a90d9" stroke-width="2" points="411.41,-51.06 417.88,-47.44 410.56,-46.24 411.41,-51.06"/>
<text text-anchor="middle" x="387.65" y="-56.6" font-family="Times-Roman" font-size="8.00" fill="#4a90d9">about</text>
</g>
</g>
</svg>
