<?xml version="1.0" encoding="UTF-8" standalone="no"?>
<!DOCTYPE svg PUBLIC "-//W3C//DTD SVG 1.1//EN"
 "http://www.w3.org/Graphics/SVG/1.1/DTD/svg11.dtd">
<!-- Generated by graphviz version 2.44.0 (0)
 -->
<!-- Title: EmitterScannability.nat_beq_zero_false Pages: 1 -->
<svg width="728pt" height="236pt"
 viewBox="0.00 0.00 728.50 236.00" xmlns="http://www.w3.org/2000/svg" xmlns:xlink="http://www.w3.org/1999/xlink">
<g id="graph0" class="graph" transform="scale(1 1) rotate(0) translate(4 232)">
<title>EmitterScannability.nat_beq_zero_false</title>
<polygon fill="white" stroke="transparent" points="-4,4 -4,-232 724.5,-232 724.5,4 -4,4"/>
<text text-anchor="middle" x="360.25" y="-213.6" font-family="Helvetica Bold" font-size="13.00">EmitterScannability.nat_beq_zero_false</text>
<text text-anchor="middle" x="360.25" y="-199.6" font-family="Helvetica Bold" font-size="13.00">(heuristic: used by 6 proofs)</text>
<text text-anchor="middle" x="360.25" y="-185.6" font-family="Helvetica Bold" font-size="13.00">(L4YAML.Proofs.EmitterScannability)</text>
<g id="clust2" class="cluster">
<title>cluster_key</title>
<polygon fill="none" stroke="#d4a017" stroke-dasharray="5,2" points="382,-47 382,-129 712.5,-129 712.5,-47 382,-47"/>
<text text-anchor="middle" x="547.25" y="-114.6" font-family="Helvetica Bold" font-size="13.00" fill="#d4a017">Key Theorem</text>
</g>
<g id="clust3" class="cluster">
<title>cluster_proofs</title>
<polygon fill="none" stroke="#28a745" stroke-dasharray="5,2" points="8,-90 8,-170 362,-170 362,-90 8,-90"/>
<text text-anchor="middle" x="185" y="-155.6" font-family="Helvetica Bold" font-size="13.00" fill="#28a745">Proof Dependencies</text>
</g>
<g id="clust4" class="cluster">
<title>cluster_stdlib</title>
<polygon fill="none" stroke="#e67e22" stroke-dasharray="5,2" points="99.88,-8 99.88,-82 270.11,-82 270.11,-8 99.88,-8"/>
<text text-anchor="middle" x="185" y="-67.6" font-family="Helvetica Bold" font-size="13.00" fill="#e67e22">Stdlib Lemmas</text>
</g>
<!-- L4YAML.Proofs.EmitterScannability.nat_beq_zero_false -->
<g id="node1" class="node">
<title>L4YAML.Proofs.EmitterScannability.nat_beq_zero_false</title>
<g id="a_node1"><a xlink:href="../../../api/L4YAML/Proofs/EmitterScannability.html#L4YAML.Proofs.EmitterScannability.nat_beq_zero_false" xlink:title="EmitterScannability.nat_beq_zero_false" target="_blank">
<polygon fill="#fff3cd" stroke="#d4a017" points="700.26,-69.54 700.26,-84.46 610.63,-95 483.87,-95 394.24,-84.46 394.24,-69.54 483.87,-59 610.63,-59 700.26,-69.54"/>
<polygon fill="none" stroke="#d4a017" points="704.25,-65.99 704.25,-88.01 610.86,-99 483.64,-99 390.25,-88.01 390.25,-65.99 483.64,-55 610.86,-55 704.25,-65.99"/>
<text text-anchor="middle" x="547.25" y="-73.9" font-family="Helvetica" font-size="12.00">EmitterScannability.nat_beq_zero_false</text>
</a>
</g>
</g>
<!-- L4YAML.Proofs.EmitterScannability.nat_beq_zero_false._proof_1_1 -->
<g id="node2" class="node">
<title>L4YAML.Proofs.EmitterScannability.nat_beq_zero_false._proof_1_1</title>
<g id="a_node2"><a xlink:href="../../../api/L4YAML/Proofs/EmitterScannability.html#L4YAML.Proofs.EmitterScannability.nat_beq_zero_false._proof_1_1" xlink:title="EmitterScannability.nat_beq_zero_false._proof_1_1\n(EmitterScannability)" target="_blank">
<ellipse fill="#d4edda" stroke="#28a745" cx="185" cy="-119" rx="169" ry="21.43"/>
<text text-anchor="middle" x="185" y="-122" font-family="Helvetica" font-size="10.00">EmitterScannability.nat_beq_zero_false._proof_1_1</text>
<text text-anchor="middle" x="185" y="-111" font-family="Helvetica" font-size="10.00">(EmitterScannability)</text>
</a>
</g>
</g>
<!-- L4YAML.Proofs.EmitterScannability.nat_beq_zero_false._proof_1_1&#45;&gt;L4YAML.Proofs.EmitterScannability.nat_beq_zero_false -->
<g id="edge1" class="edge">
<title>L4YAML.Proofs.EmitterScannability.nat_beq_zero_false._proof_1_1&#45;&gt;L4YAML.Proofs.EmitterScannability.nat_beq_zero_false</title>
<path fill="none" stroke="#28a745" d="M309.47,-104.6C343.03,-100.69 379.52,-96.44 413.57,-92.47"/>
<polygon fill="#28a745" stroke="#28a745" points="414.12,-94.87 420.79,-91.63 413.56,-90 414.12,-94.87"/>
</g>
<!-- Decidable.byContradiction -->
<g id="node3" class="node">
<title>Decidable.byContradiction</title>
<g id="a_node3"><a xlink:href="../../../api/Init/Core.html#Decidable.byContradiction" xlink:title="Decidable.byContradiction" target="_blank">
<ellipse fill="#fdebd0" stroke="#e67e22" cx="185" cy="-34" rx="77.23" ry="18"/>
<text text-anchor="middle" x="185" y="-31.5" font-family="Helvetica" font-size="10.00">Decidable.byContradiction</text>
</a>
</g>
</g>
<!-- Decidable.byContradiction&#45;&gt;L4YAML.Proofs.EmitterScannability.nat_beq_zero_false -->
<g id="edge2" class="edge">
<title>Decidable.byContradiction&#45;&gt;L4YAML.Proofs.EmitterScannability.nat_beq_zero_false</title>
<path fill="none" stroke="#e67e22" stroke-width="2" d="M254.18,-42.14C299.57,-47.56 360.66,-54.85 415.23,-61.36"/>
<polygon fill="#e67e22" stroke="#e67e22" stroke-width="2" points="414.96,-63.8 422.2,-62.19 415.54,-58.93 414.96,-63.8"/>
</g>
</g>
</svg>
