<?xml version="1.0" encoding="UTF-8" standalone="no"?>
<!DOCTYPE svg PUBLIC "-//W3C//DTD SVG 1.1//EN"
 "http://www.w3.org/Graphics/SVG/1.1/DTD/svg11.dtd">
<!-- Generated by graphviz version 2.44.0 (0)
 -->
<!-- Title: EmitterScannability.emitScalar_toList Pages: 1 -->
<svg width="655pt" height="310pt"
 viewBox="0.00 0.00 654.64 310.00" xmlns="http://www.w3.org/2000/svg" xmlns:xlink="http://www.w3.org/1999/xlink">
<g id="graph0" class="graph" transform="scale(1 1) rotate(0) translate(4 306)">
<title>EmitterScannability.emitScalar_toList</title>
<polygon fill="white" stroke="transparent" points="-4,4 -4,-306 650.64,-306 650.64,4 -4,4"/>
<text text-anchor="middle" x="323.32" y="-287.6" font-family="Helvetica Bold" font-size="13.00">EmitterScannability.emitScalar_toList</text>
<text text-anchor="middle" x="323.32" y="-273.6" font-family="Helvetica Bold" font-size="13.00">(heuristic: used by 5 proofs)</text>
<text text-anchor="middle" x="323.32" y="-259.6" font-family="Helvetica Bold" font-size="13.00">(L4YAML.Proofs.EmitterScannability)</text>
<g id="clust1" class="cluster">
<title>cluster_functions</title>
<polygon fill="none" stroke="#4a90d9" stroke-dasharray="5,2" points="526.64,-58 526.64,-186 638.64,-186 638.64,-58 526.64,-58"/>
<text text-anchor="middle" x="582.64" y="-171.6" font-family="Helvetica Bold" font-size="13.00" fill="#4a90d9">Functions</text>
</g>
<g id="clust2" class="cluster">
<title>cluster_key</title>
<polygon fill="none" stroke="#d4a017" stroke-dasharray="5,2" points="169.8,-84 169.8,-166 481.64,-166 481.64,-84 169.8,-84"/>
<text text-anchor="middle" x="325.72" y="-151.6" font-family="Helvetica Bold" font-size="13.00" fill="#d4a017">Key Theorem</text>
</g>
<g id="clust4" class="cluster">
<title>cluster_stdlib</title>
<polygon fill="none" stroke="#e67e22" stroke-dasharray="5,2" points="8,-8 8,-244 148.8,-244 148.8,-8 8,-8"/>
<text text-anchor="middle" x="78.4" y="-229.6" font-family="Helvetica Bold" font-size="13.00" fill="#e67e22">Stdlib Lemmas</text>
</g>
<!-- L4YAML.Emit.escapeString -->
<g id="node1" class="node">
<title>L4YAML.Emit.escapeString</title>
<polygon fill="#dce9f7" stroke="#4a90d9" points="630.64,-156 534.64,-156 534.64,-120 630.64,-120 630.64,-156"/>
<text text-anchor="middle" x="582.64" y="-141" font-family="Helvetica" font-size="10.00">Emit.escapeString</text>
<text text-anchor="middle" x="582.64" y="-130" font-family="Helvetica" font-size="10.00">(def)</text>
</g>
<!-- L4YAML.Emit.emitScalar -->
<g id="node2" class="node">
<title>L4YAML.Emit.emitScalar</title>
<polygon fill="#dce9f7" stroke="#4a90d9" points="625.64,-102 539.64,-102 539.64,-66 625.64,-66 625.64,-102"/>
<text text-anchor="middle" x="582.64" y="-87" font-family="Helvetica" font-size="10.00">Emit.emitScalar</text>
<text text-anchor="middle" x="582.64" y="-76" font-family="Helvetica" font-size="10.00">(def)</text>
</g>
<!-- L4YAML.Proofs.EmitterScannability.emitScalar_toList -->
<g id="node3" class="node">
<title>L4YAML.Proofs.EmitterScannability.emitScalar_toList</title>
<polygon fill="#fff3cd" stroke="#d4a017" points="469.57,-106.54 469.57,-121.46 385.3,-132 266.14,-132 181.87,-121.46 181.87,-106.54 266.14,-96 385.3,-96 469.57,-106.54"/>
<polygon fill="none" stroke="#d4a017" points="473.56,-103.01 473.56,-124.99 385.55,-136 265.89,-136 177.87,-124.99 177.87,-103.01 265.89,-92 385.55,-92 473.56,-103.01"/>
<text text-anchor="middle" x="325.72" y="-110.9" font-family="Helvetica" font-size="12.00">EmitterScannability.emitScalar_toList</text>
</g>
<!-- L4YAML.Proofs.EmitterScannability.emitScalar_toList&#45;&gt;L4YAML.Emit.escapeString -->
<g id="edge2" class="edge">
<title>L4YAML.Proofs.EmitterScannability.emitScalar_toList&#45;&gt;L4YAML.Emit.escapeString</title>
<path fill="none" stroke="#4a90d9" stroke-width="2" d="M460.9,-126.63C484.4,-128.85 507.6,-131.03 527.28,-132.88"/>
<polygon fill="#4a90d9" stroke="#4a90d9" stroke-width="2" points="527.17,-135.33 534.37,-133.55 527.63,-130.45 527.17,-135.33"/>
<text text-anchor="middle" x="504.14" y="-133.6" font-family="Times-Roman" font-size="8.00" fill="#4a90d9">about</text>
</g>
<!-- L4YAML.Proofs.EmitterScannability.emitScalar_toList&#45;&gt;L4YAML.Emit.emitScalar -->
<g id="edge1" class="edge">
<title>L4YAML.Proofs.EmitterScannability.emitScalar_toList&#45;&gt;L4YAML.Emit.emitScalar</title>
<path fill="none" stroke="#4a90d9" stroke-width="2" d="M447.83,-99.75C477.77,-96.22 508.17,-92.65 532.41,-89.79"/>
<polygon fill="#4a90d9" stroke="#4a90d9" stroke-width="2" points="532.74,-92.22 539.4,-88.97 532.16,-87.36 532.74,-92.22"/>
<text text-anchor="middle" x="504.14" y="-96.6" font-family="Times-Roman" font-size="8.00" fill="#4a90d9">about</text>
</g>
<!-- of_decide_eq_true -->
<g id="node4" class="node">
<title>of_decide_eq_true</title>
<ellipse fill="#fdebd0" stroke="#e67e22" cx="78.4" cy="-196" rx="56.52" ry="18"/>
<text text-anchor="middle" x="78.4" y="-193.5" font-family="Helvetica" font-size="10.00">of_decide_eq_true</text>
</g>
<!-- of_decide_eq_true&#45;&gt;L4YAML.Proofs.EmitterScannability.emitScalar_toList -->
<g id="edge3" class="edge">
<title>of_decide_eq_true&#45;&gt;L4YAML.Proofs.EmitterScannability.emitScalar_toList</title>
<path fill="none" stroke="#e67e22" stroke-width="2" d="M118,-183.1C154.32,-170.96 209.59,-152.48 253.84,-137.69"/>
<polygon fill="#e67e22" stroke="#e67e22" stroke-width="2" points="254.71,-139.99 260.57,-135.44 253.15,-135.34 254.71,-139.99"/>
</g>
<!-- eq_self -->
<g id="node5" class="node">
<title>eq_self</title>
<ellipse fill="#fdebd0" stroke="#e67e22" cx="78.4" cy="-142" rx="28.01" ry="18"/>
<text text-anchor="middle" x="78.4" y="-139.5" font-family="Helvetica" font-size="10.00">eq_self</text>
</g>
<!-- eq_self&#45;&gt;L4YAML.Proofs.EmitterScannability.emitScalar_toList -->
<g id="edge4" class="edge">
<title>eq_self&#45;&gt;L4YAML.Proofs.EmitterScannability.emitScalar_toList</title>
<path fill="none" stroke="#e67e22" stroke-width="2" d="M106.59,-138.9C128.6,-136.38 161.35,-132.65 194.82,-128.83"/>
<polygon fill="#e67e22" stroke="#e67e22" stroke-width="2" points="195.29,-131.24 201.97,-128.01 194.73,-126.37 195.29,-131.24"/>
</g>
<!-- of_eq_true -->
<g id="node6" class="node">
<title>of_eq_true</title>
<ellipse fill="#fdebd0" stroke="#e67e22" cx="78.4" cy="-88" rx="36.49" ry="18"/>
<text text-anchor="middle" x="78.4" y="-85.5" font-family="Helvetica" font-size="10.00">of_eq_true</text>
</g>
<!-- of_eq_true&#45;&gt;L4YAML.Proofs.EmitterScannability.emitScalar_toList -->
<g id="edge5" class="edge">
<title>of_eq_true&#45;&gt;L4YAML.Proofs.EmitterScannability.emitScalar_toList</title>
<path fill="none" stroke="#e67e22" stroke-width="2" d="M114.29,-91.7C134.77,-93.87 162.12,-96.77 190.3,-99.75"/>
<polygon fill="#e67e22" stroke="#e67e22" stroke-width="2" points="190.26,-102.21 197.48,-100.52 190.78,-97.34 190.26,-102.21"/>
</g>
<!-- String.toList_append -->
<g id="node7" class="node">
<title>String.toList_append</title>
<ellipse fill="#fdebd0" stroke="#e67e22" cx="78.4" cy="-34" rx="62.3" ry="18"/>
<text text-anchor="middle" x="78.4" y="-31.5" font-family="Helvetica" font-size="10.00">String.toList_append</text>
</g>
<!-- String.toList_append&#45;&gt;L4YAML.Proofs.EmitterScannability.emitScalar_toList -->
<g id="edge6" class="edge">
<title>String.toList_append&#45;&gt;L4YAML.Proofs.EmitterScannability.emitScalar_toList</title>
<path fill="none" stroke="#e67e22" stroke-width="2" d="M120.46,-47.39C156.45,-59.13 209.6,-76.46 252.66,-90.5"/>
<polygon fill="#e67e22" stroke="#e67e22" stroke-width="2" points="252.07,-92.89 259.48,-92.73 253.59,-88.23 252.07,-92.89"/>
</g>
</g>
</svg>
