<?xml version="1.0" encoding="UTF-8" standalone="no"?>
<!DOCTYPE svg PUBLIC "-//W3C//DTD SVG 1.1//EN"
 "http://www.w3.org/Graphics/SVG/1.1/DTD/svg11.dtd">
<!-- Generated by graphviz version 2.44.0 (0)
 -->
<!-- Title: EmitterScannability.saveSimpleKey_preserves_flowLevel Pages: 1 -->
<svg width="661pt" height="256pt"
 viewBox="0.00 0.00 661.10 256.00" xmlns="http://www.w3.org/2000/svg" xmlns:xlink="http://www.w3.org/1999/xlink">
<g id="graph0" class="graph" transform="scale(1 1) rotate(0) translate(4 252)">
<title>EmitterScannability.saveSimpleKey_preserves_flowLevel</title>
<polygon fill="white" stroke="transparent" points="-4,4 -4,-252 657.1,-252 657.1,4 -4,4"/>
<text text-anchor="middle" x="326.55" y="-233.6" font-family="Helvetica Bold" font-size="13.00">EmitterScannability.saveSimpleKey_preserves_flowLevel</text>
<text text-anchor="middle" x="326.55" y="-219.6" font-family="Helvetica Bold" font-size="13.00">(heuristic: used by 10 proofs)</text>
<text text-anchor="middle" x="326.55" y="-205.6" font-family="Helvetica Bold" font-size="13.00">(L4YAML.Proofs.EmitterScannability)</text>
<g id="clust1" class="cluster">
<title>cluster_functions</title>
<polygon fill="none" stroke="#4a90d9" stroke-dasharray="5,2" points="510.1,-8 510.1,-190 645.1,-190 645.1,-8 510.1,-8"/>
<text text-anchor="middle" x="577.6" y="-175.6" font-family="Helvetica Bold" font-size="13.00" fill="#4a90d9">Functions</text>
</g>
<g id="clust2" class="cluster">
<title>cluster_key</title>
<polygon fill="none" stroke="#d4a017" stroke-dasharray="5,2" points="8,-58 8,-140 465.1,-140 465.1,-58 8,-58"/>
<text text-anchor="middle" x="236.55" y="-125.6" font-family="Helvetica Bold" font-size="13.00" fill="#d4a017">Key Theorem</text>
</g>
<!-- L4YAML.Scanner.ScannerState.flowLevel -->
<g id="node1" class="node">
<title>L4YAML.Scanner.ScannerState.flowLevel</title>
<g id="a_node1"><a xlink:href="../../../api/L4YAML/Scanner.html#L4YAML.Scanner.ScannerState.flowLevel" xlink:title="ScannerState.flowLevel\n(def)" target="_blank">
<polygon fill="#dce9f7" stroke="#4a90d9" points="637.1,-160 518.1,-160 518.1,-124 637.1,-124 637.1,-160"/>
<text text-anchor="middle" x="577.6" y="-145" font-family="Helvetica" font-size="10.00">ScannerState.flowLevel</text>
<text text-anchor="middle" x="577.6" y="-134" font-family="Helvetica" font-size="10.00">(def)</text>
</a>
</g>
</g>
<!-- L4YAML.Scanner.ScannerState -->
<g id="node2" class="node">
<title>L4YAML.Scanner.ScannerState</title>
<g id="a_node2"><a xlink:href="../../../api/L4YAML/Scanner.html#L4YAML.Scanner.ScannerState" xlink:title="ScannerState\n(inductive)" target="_blank">
<polygon fill="#dce9f7" stroke="#4a90d9" points="615.6,-106 539.6,-106 539.6,-70 615.6,-70 615.6,-106"/>
<text text-anchor="middle" x="577.6" y="-91" font-family="Helvetica" font-size="10.00">ScannerState</text>
<text text-anchor="middle" x="577.6" y="-80" font-family="Helvetica" font-size="10.00">(inductive)</text>
</a>
</g>
</g>
<!-- L4YAML.Scanner.saveSimpleKey -->
<g id="node3" class="node">
<title>L4YAML.Scanner.saveSimpleKey</title>
<g id="a_node3"><a xlink:href="../../../api/L4YAML/Scanner.html#L4YAML.Scanner.saveSimpleKey" xlink:title="saveSimpleKey\n(def)" target="_blank">
<polygon fill="#dce9f7" stroke="#4a90d9" points="619.1,-52 536.1,-52 536.1,-16 619.1,-16 619.1,-52"/>
<text text-anchor="middle" x="577.6" y="-37" font-family="Helvetica" font-size="10.00">saveSimpleKey</text>
<text text-anchor="middle" x="577.6" y="-26" font-family="Helvetica" font-size="10.00">(def)</text>
</a>
</g>
</g>
<!-- L4YAML.Proofs.EmitterScannability.saveSimpleKey_preserves_flowLevel -->
<g id="node4" class="node">
<title>L4YAML.Proofs.EmitterScannability.saveSimpleKey_preserves_flowLevel</title>
<g id="a_node4"><a xlink:href="../../../api/L4YAML/Proofs/EmitterScannability.html#L4YAML.Proofs.EmitterScannability.saveSimpleKey_preserves_flowLevel" xlink:title="EmitterScannability.saveSimpleKey_preserves_flowLevel" target="_blank">
<polygon fill="#fff3cd" stroke="#d4a017" points="453.15,-80.54 453.15,-95.46 326.27,-106 146.83,-106 19.95,-95.46 19.95,-80.54 146.83,-70 326.27,-70 453.15,-80.54"/>
<polygon fill="none" stroke="#d4a017" points="457.15,-76.86 457.15,-99.14 326.43,-110 146.67,-110 15.95,-99.14 15.95,-76.86 146.67,-66 326.43,-66 457.15,-76.86"/>
<text text-anchor="middle" x="236.55" y="-84.9" font-family="Helvetica" font-size="12.00">EmitterScannability.saveSimpleKey_preserves_flowLevel</text>
</a>
</g>
</g>
<!-- L4YAML.Proofs.EmitterScannability.saveSimpleKey_preserves_flowLevel&#45;&gt;L4YAML.Scanner.ScannerState.flowLevel -->
<g id="edge3" class="edge">
<title>L4YAML.Proofs.EmitterScannability.saveSimpleKey_preserves_flowLevel&#45;&gt;L4YAML.Scanner.ScannerState.flowLevel</title>
<path fill="none" stroke="#4a90d9" stroke-width="2" d="M359,-107.34C410.11,-115.48 467.59,-124.64 510.63,-131.49"/>
<polygon fill="#4a90d9" stroke="#4a90d9" stroke-width="2" points="510.38,-133.93 517.68,-132.62 511.15,-129.1 510.38,-133.93"/>
<text text-anchor="middle" x="487.6" y="-130.6" font-family="Times-Roman" font-size="8.00" fill="#4a90d9">about</text>
</g>
<!-- L4YAML.Proofs.EmitterScannability.saveSimpleKey_preserves_flowLevel&#45;&gt;L4YAML.Scanner.ScannerState -->
<g id="edge2" class="edge">
<title>L4YAML.Proofs.EmitterScannability.saveSimpleKey_preserves_flowLevel&#45;&gt;L4YAML.Scanner.ScannerState</title>
<path fill="none" stroke="#4a90d9" stroke-width="2" d="M457.54,-88C485.69,-88 511.8,-88 532.35,-88"/>
<polygon fill="#4a90d9" stroke="#4a90d9" stroke-width="2" points="532.38,-90.45 539.38,-88 532.38,-85.55 532.38,-90.45"/>
<text text-anchor="middle" x="487.6" y="-90.6" font-family="Times-Roman" font-size="8.00" fill="#4a90d9">about</text>
</g>
<!-- L4YAML.Proofs.EmitterScannability.saveSimpleKey_preserves_flowLevel&#45;&gt;L4YAML.Scanner.saveSimpleKey -->
<g id="edge1" class="edge">
<title>L4YAML.Proofs.EmitterScannability.saveSimpleKey_preserves_flowLevel&#45;&gt;L4YAML.Scanner.saveSimpleKey</title>
<path fill="none" stroke="#4a90d9" stroke-width="2" d="M359,-68.66C417.67,-59.31 484.73,-48.63 528.71,-41.63"/>
<polygon fill="#4a90d9" stroke="#4a90d9" stroke-width="2" points="529.31,-44.01 535.84,-40.49 528.54,-39.17 529.31,-44.01"/>
<text text-anchor="middle" x="487.6" y="-51.6" font-family="Times-Roman" font-size="8.00" fill="#4a90d9">about</text>
</g>
</g>
</svg>
