<?xml version="1.0" encoding="UTF-8" standalone="no"?>
<!DOCTYPE svg PUBLIC "-//W3C//DTD SVG 1.1//EN"
 "http://www.w3.org/Graphics/SVG/1.1/DTD/svg11.dtd">
<!-- Generated by graphviz version 2.44.0 (0)
 -->
<!-- Title: EmitterScannability.AllTokensOnLine_saveSimpleKey Pages: 1 -->
<svg width="851pt" height="472pt"
 viewBox="0.00 0.00 850.89 472.00" xmlns="http://www.w3.org/2000/svg" xmlns:xlink="http://www.w3.org/1999/xlink">
<g id="graph0" class="graph" transform="scale(1 1) rotate(0) translate(4 468)">
<title>EmitterScannability.AllTokensOnLine_saveSimpleKey</title>
<polygon fill="white" stroke="transparent" points="-4,4 -4,-468 846.89,-468 846.89,4 -4,4"/>
<text text-anchor="middle" x="421.44" y="-449.6" font-family="Helvetica Bold" font-size="13.00">EmitterScannability.AllTokensOnLine_saveSimpleKey</text>
<text text-anchor="middle" x="421.44" y="-435.6" font-family="Helvetica Bold" font-size="13.00">(heuristic: used by 8 proofs)</text>
<text text-anchor="middle" x="421.44" y="-421.6" font-family="Helvetica Bold" font-size="13.00">(L4YAML.Proofs.EmitterScannability)</text>
<g id="clust1" class="cluster">
<title>cluster_functions</title>
<polygon fill="none" stroke="#4a90d9" stroke-dasharray="5,2" points="642.89,-90 642.89,-326 834.89,-326 834.89,-90 642.89,-90"/>
<text text-anchor="middle" x="738.89" y="-311.6" font-family="Helvetica Bold" font-size="13.00" fill="#4a90d9">Functions</text>
</g>
<g id="clust2" class="cluster">
<title>cluster_key</title>
<polygon fill="none" stroke="#d4a017" stroke-dasharray="5,2" points="167.44,-166 167.44,-248 597.89,-248 597.89,-166 167.44,-166"/>
<text text-anchor="middle" x="382.67" y="-233.6" font-family="Helvetica Bold" font-size="13.00" fill="#d4a017">Key Theorem</text>
</g>
<g id="clust4" class="cluster">
<title>cluster_stdlib</title>
<polygon fill="none" stroke="#e67e22" stroke-dasharray="5,2" points="8,-8 8,-406 146.44,-406 146.44,-8 8,-8"/>
<text text-anchor="middle" x="77.22" y="-391.6" font-family="Helvetica Bold" font-size="13.00" fill="#e67e22">Stdlib Lemmas</text>
</g>
<!-- L4YAML.Scanner.ScannerState.line -->
<g id="node1" class="node">
<title>L4YAML.Scanner.ScannerState.line</title>
<polygon fill="#dce9f7" stroke="#4a90d9" points="785.89,-296 691.89,-296 691.89,-260 785.89,-260 785.89,-296"/>
<text text-anchor="middle" x="738.89" y="-281" font-family="Helvetica" font-size="10.00">ScannerState.line</text>
<text text-anchor="middle" x="738.89" y="-270" font-family="Helvetica" font-size="10.00">(def)</text>
</g>
<!-- L4YAML.Scanner.ScannerState -->
<g id="node2" class="node">
<title>L4YAML.Scanner.ScannerState</title>
<polygon fill="#dce9f7" stroke="#4a90d9" points="776.89,-242 700.89,-242 700.89,-206 776.89,-206 776.89,-242"/>
<text text-anchor="middle" x="738.89" y="-227" font-family="Helvetica" font-size="10.00">ScannerState</text>
<text text-anchor="middle" x="738.89" y="-216" font-family="Helvetica" font-size="10.00">(inductive)</text>
</g>
<!-- L4YAML.Proofs.EmitterScannability.AllTokensOnLine -->
<g id="node3" class="node">
<title>L4YAML.Proofs.EmitterScannability.AllTokensOnLine</title>
<polygon fill="#dce9f7" stroke="#4a90d9" points="826.89,-188 650.89,-188 650.89,-152 826.89,-152 826.89,-188"/>
<text text-anchor="middle" x="738.89" y="-173" font-family="Helvetica" font-size="10.00">EmitterScannability.AllTokensOnLine</text>
<text text-anchor="middle" x="738.89" y="-162" font-family="Helvetica" font-size="10.00">(def)</text>
</g>
<!-- L4YAML.Scanner.saveSimpleKey -->
<g id="node4" class="node">
<title>L4YAML.Scanner.saveSimpleKey</title>
<polygon fill="#dce9f7" stroke="#4a90d9" points="780.39,-134 697.39,-134 697.39,-98 780.39,-98 780.39,-134"/>
<text text-anchor="middle" x="738.89" y="-119" font-family="Helvetica" font-size="10.00">saveSimpleKey</text>
<text text-anchor="middle" x="738.89" y="-108" font-family="Helvetica" font-size="10.00">(def)</text>
</g>
<!-- L4YAML.Proofs.EmitterScannability.AllTokensOnLine_saveSimpleKey -->
<g id="node5" class="node">
<title>L4YAML.Proofs.EmitterScannability.AllTokensOnLine_saveSimpleKey</title>
<polygon fill="#fff3cd" stroke="#d4a017" points="586.11,-188.54 586.11,-203.46 466.93,-214 298.4,-214 179.22,-203.46 179.22,-188.54 298.4,-178 466.93,-178 586.11,-188.54"/>
<polygon fill="none" stroke="#d4a017" points="590.11,-184.88 590.11,-207.12 467.11,-218 298.22,-218 175.22,-207.12 175.22,-184.88 298.22,-174 467.11,-174 590.11,-184.88"/>
<text text-anchor="middle" x="382.67" y="-192.9" font-family="Helvetica" font-size="12.00">EmitterScannability.AllTokensOnLine_saveSimpleKey</text>
</g>
<!-- L4YAML.Proofs.EmitterScannability.AllTokensOnLine_saveSimpleKey&#45;&gt;L4YAML.Scanner.ScannerState.line -->
<g id="edge3" class="edge">
<title>L4YAML.Proofs.EmitterScannability.AllTokensOnLine_saveSimpleKey&#45;&gt;L4YAML.Scanner.ScannerState.line</title>
<path fill="none" stroke="#4a90d9" stroke-width="2" d="M475.81,-217.33C542.25,-232.71 629.61,-252.93 684.77,-265.7"/>
<polygon fill="#4a90d9" stroke="#4a90d9" stroke-width="2" points="684.29,-268.11 691.66,-267.3 685.4,-263.33 684.29,-268.11"/>
<text text-anchor="middle" x="620.39" y="-253.6" font-family="Times-Roman" font-size="8.00" fill="#4a90d9">about</text>
</g>
<!-- L4YAML.Proofs.EmitterScannability.AllTokensOnLine_saveSimpleKey&#45;&gt;L4YAML.Scanner.ScannerState -->
<g id="edge2" class="edge">
<title>L4YAML.Proofs.EmitterScannability.AllTokensOnLine_saveSimpleKey&#45;&gt;L4YAML.Scanner.ScannerState</title>
<path fill="none" stroke="#4a90d9" stroke-width="2" d="M559.22,-209.88C609.08,-213.82 659.11,-217.77 693.49,-220.49"/>
<polygon fill="#4a90d9" stroke="#4a90d9" stroke-width="2" points="693.41,-222.94 700.58,-221.05 693.8,-218.06 693.41,-222.94"/>
<text text-anchor="middle" x="620.39" y="-216.6" font-family="Times-Roman" font-size="8.00" fill="#4a90d9">about</text>
</g>
<!-- L4YAML.Proofs.EmitterScannability.AllTokensOnLine_saveSimpleKey&#45;&gt;L4YAML.Proofs.EmitterScannability.AllTokensOnLine -->
<g id="edge4" class="edge">
<title>L4YAML.Proofs.EmitterScannability.AllTokensOnLine_saveSimpleKey&#45;&gt;L4YAML.Proofs.EmitterScannability.AllTokensOnLine</title>
<path fill="none" stroke="#4a90d9" stroke-width="2" d="M565.19,-182.68C592.27,-180.69 619.22,-178.71 643.49,-176.93"/>
<polygon fill="#4a90d9" stroke="#4a90d9" stroke-width="2" points="643.8,-179.36 650.6,-176.41 643.44,-174.48 643.8,-179.36"/>
<text text-anchor="middle" x="620.39" y="-181.6" font-family="Times-Roman" font-size="8.00" fill="#4a90d9">about</text>
</g>
<!-- L4YAML.Proofs.EmitterScannability.AllTokensOnLine_saveSimpleKey&#45;&gt;L4YAML.Scanner.saveSimpleKey -->
<g id="edge1" class="edge">
<title>L4YAML.Proofs.EmitterScannability.AllTokensOnLine_saveSimpleKey&#45;&gt;L4YAML.Scanner.saveSimpleKey</title>
<path fill="none" stroke="#4a90d9" stroke-width="2" d="M477.2,-174.88C545.66,-159.41 635.74,-139.07 690.1,-126.79"/>
<polygon fill="#4a90d9" stroke="#4a90d9" stroke-width="2" points="690.91,-129.12 697.2,-125.19 689.83,-124.34 690.91,-129.12"/>
<text text-anchor="middle" x="620.39" y="-146.6" font-family="Times-Roman" font-size="8.00" fill="#4a90d9">about</text>
</g>
<!-- dite_congr -->
<g id="node6" class="node">
<title>dite_congr</title>
<ellipse fill="#fdebd0" stroke="#e67e22" cx="77.22" cy="-358" rx="36.49" ry="18"/>
<text text-anchor="middle" x="77.22" y="-355.5" font-family="Helvetica" font-size="10.00">dite_congr</text>
</g>
<!-- dite_congr&#45;&gt;L4YAML.Proofs.EmitterScannability.AllTokensOnLine_saveSimpleKey -->
<g id="edge5" class="edge">
<title>dite_congr&#45;&gt;L4YAML.Proofs.EmitterScannability.AllTokensOnLine_saveSimpleKey</title>
<path fill="none" stroke="#e67e22" stroke-width="2" d="M107.16,-347.6C119.45,-342.92 133.82,-337.08 146.44,-331 216.67,-297.17 294.45,-250.63 340.64,-221.97"/>
<polygon fill="#e67e22" stroke="#e67e22" stroke-width="2" points="342.01,-224 346.66,-218.22 339.42,-219.84 342.01,-224"/>
</g>
<!-- dif_pos -->
<g id="node7" class="node">
<title>dif_pos</title>
<ellipse fill="#fdebd0" stroke="#e67e22" cx="77.22" cy="-304" rx="28.01" ry="18"/>
<text text-anchor="middle" x="77.22" y="-301.5" font-family="Helvetica" font-size="10.00">dif_pos</text>
</g>
<!-- dif_pos&#45;&gt;L4YAML.Proofs.EmitterScannability.AllTokensOnLine_saveSimpleKey -->
<g id="edge6" class="edge">
<title>dif_pos&#45;&gt;L4YAML.Proofs.EmitterScannability.AllTokensOnLine_saveSimpleKey</title>
<path fill="none" stroke="#e67e22" stroke-width="2" d="M102.29,-295.44C147.28,-279.42 245.66,-244.41 312.81,-220.51"/>
<polygon fill="#e67e22" stroke="#e67e22" stroke-width="2" points="313.84,-222.74 319.61,-218.09 312.19,-218.13 313.84,-222.74"/>
</g>
<!-- dif_neg -->
<g id="node8" class="node">
<title>dif_neg</title>
<ellipse fill="#fdebd0" stroke="#e67e22" cx="77.22" cy="-250" rx="28.01" ry="18"/>
<text text-anchor="middle" x="77.22" y="-247.5" font-family="Helvetica" font-size="10.00">dif_neg</text>
</g>
<!-- dif_neg&#45;&gt;L4YAML.Proofs.EmitterScannability.AllTokensOnLine_saveSimpleKey -->
<g id="edge7" class="edge">
<title>dif_neg&#45;&gt;L4YAML.Proofs.EmitterScannability.AllTokensOnLine_saveSimpleKey</title>
<path fill="none" stroke="#e67e22" stroke-width="2" d="M104.62,-245.3C140.16,-238.98 205.69,-227.32 264.09,-216.92"/>
<polygon fill="#e67e22" stroke="#e67e22" stroke-width="2" points="264.72,-219.3 271.18,-215.66 263.86,-214.48 264.72,-219.3"/>
</g>
<!-- eq_self -->
<g id="node9" class="node">
<title>eq_self</title>
<ellipse fill="#fdebd0" stroke="#e67e22" cx="77.22" cy="-196" rx="28.01" ry="18"/>
<text text-anchor="middle" x="77.22" y="-193.5" font-family="Helvetica" font-size="10.00">eq_self</text>
</g>
<!-- eq_self&#45;&gt;L4YAML.Proofs.EmitterScannability.AllTokensOnLine_saveSimpleKey -->
<g id="edge8" class="edge">
<title>eq_self&#45;&gt;L4YAML.Proofs.EmitterScannability.AllTokensOnLine_saveSimpleKey</title>
<path fill="none" stroke="#e67e22" stroke-width="2" d="M105.68,-196C121.69,-196 143.49,-196 167.89,-196"/>
<polygon fill="#e67e22" stroke="#e67e22" stroke-width="2" points="168.19,-198.45 175.19,-196 168.19,-193.55 168.19,-198.45"/>
</g>
<!-- of_eq_true -->
<g id="node10" class="node">
<title>of_eq_true</title>
<ellipse fill="#fdebd0" stroke="#e67e22" cx="77.22" cy="-142" rx="36.49" ry="18"/>
<text text-anchor="middle" x="77.22" y="-139.5" font-family="Helvetica" font-size="10.00">of_eq_true</text>
</g>
<!-- of_eq_true&#45;&gt;L4YAML.Proofs.EmitterScannability.AllTokensOnLine_saveSimpleKey -->
<g id="edge9" class="edge">
<title>of_eq_true&#45;&gt;L4YAML.Proofs.EmitterScannability.AllTokensOnLine_saveSimpleKey</title>
<path fill="none" stroke="#e67e22" stroke-width="2" d="M111.85,-147.99C148.63,-154.53 209.62,-165.38 264.32,-175.12"/>
<polygon fill="#e67e22" stroke="#e67e22" stroke-width="2" points="263.98,-177.55 271.3,-176.36 264.84,-172.72 263.98,-177.55"/>
</g>
<!-- Array.getElem_push -->
<g id="node11" class="node">
<title>Array.getElem_push</title>
<ellipse fill="#fdebd0" stroke="#e67e22" cx="77.22" cy="-88" rx="61.44" ry="18"/>
<text text-anchor="middle" x="77.22" y="-85.5" font-family="Helvetica" font-size="10.00">Array.getElem_push</text>
</g>
<!-- Array.getElem_push&#45;&gt;L4YAML.Proofs.EmitterScannability.AllTokensOnLine_saveSimpleKey -->
<g id="edge10" class="edge">
<title>Array.getElem_push&#45;&gt;L4YAML.Proofs.EmitterScannability.AllTokensOnLine_saveSimpleKey</title>
<path fill="none" stroke="#e67e22" stroke-width="2" d="M116.96,-101.79C166.27,-119.34 252.3,-149.96 312.88,-171.52"/>
<polygon fill="#e67e22" stroke="#e67e22" stroke-width="2" points="312.35,-173.93 319.77,-173.97 313.99,-169.31 312.35,-173.93"/>
</g>
<!-- Eq.mpr_prop -->
<g id="node12" class="node">
<title>Eq.mpr_prop</title>
<ellipse fill="#fdebd0" stroke="#e67e22" cx="77.22" cy="-34" rx="42.27" ry="18"/>
<text text-anchor="middle" x="77.22" y="-31.5" font-family="Helvetica" font-size="10.00">Eq.mpr_prop</text>
</g>
<!-- Eq.mpr_prop&#45;&gt;L4YAML.Proofs.EmitterScannability.AllTokensOnLine_saveSimpleKey -->
<g id="edge11" class="edge">
<title>Eq.mpr_prop&#45;&gt;L4YAML.Proofs.EmitterScannability.AllTokensOnLine_saveSimpleKey</title>
<path fill="none" stroke="#e67e22" stroke-width="2" d="M110.22,-45.57C121.79,-50.04 134.85,-55.42 146.44,-61 216.67,-94.83 294.45,-141.37 340.64,-170.03"/>
<polygon fill="#e67e22" stroke="#e67e22" stroke-width="2" points="339.42,-172.16 346.66,-173.78 342.01,-168 339.42,-172.16"/>
</g>
</g>
</svg>
