<?xml version="1.0" encoding="UTF-8" standalone="no"?>
<!DOCTYPE svg PUBLIC "-//W3C//DTD SVG 1.1//EN"
 "http://www.w3.org/Graphics/SVG/1.1/DTD/svg11.dtd">
<!-- Generated by graphviz version 2.44.0 (0)
 -->
<!-- Title: EmitterScannability.scanFlowMappingEnd_flowLevel Pages: 1 -->
<svg width="1005pt" height="519pt"
 viewBox="0.00 0.00 1005.45 518.53" xmlns="http://www.w3.org/2000/svg" xmlns:xlink="http://www.w3.org/1999/xlink">
<g id="graph0" class="graph" transform="scale(1 1) rotate(0) translate(4 514.53)">
<title>EmitterScannability.scanFlowMappingEnd_flowLevel</title>
<polygon fill="white" stroke="transparent" points="-4,4 -4,-514.53 1001.45,-514.53 1001.45,4 -4,4"/>
<text text-anchor="middle" x="498.72" y="-496.13" font-family="Helvetica Bold" font-size="13.00">EmitterScannability.scanFlowMappingEnd_flowLevel</text>
<text text-anchor="middle" x="498.72" y="-482.13" font-family="Helvetica Bold" font-size="13.00">(heuristic: used by 5 proofs)</text>
<text text-anchor="middle" x="498.72" y="-468.13" font-family="Helvetica Bold" font-size="13.00">(L4YAML.Proofs.EmitterScannability)</text>
<g id="clust1" class="cluster">
<title>cluster_functions</title>
<polygon fill="none" stroke="#4a90d9" stroke-dasharray="5,2" points="530.72,-213 530.72,-395 989.45,-395 989.45,-213 530.72,-213"/>
<text text-anchor="middle" x="760.08" y="-380.6" font-family="Helvetica Bold" font-size="13.00" fill="#4a90d9">Functions</text>
</g>
<g id="clust2" class="cluster">
<title>cluster_key</title>
<polygon fill="none" stroke="#d4a017" stroke-dasharray="5,2" points="383,-55 383,-137 809.45,-137 809.45,-55 383,-55"/>
<text text-anchor="middle" x="596.22" y="-122.6" font-family="Helvetica Bold" font-size="13.00" fill="#d4a017">Key Theorem</text>
</g>
<g id="clust3" class="cluster">
<title>cluster_proofs</title>
<polygon fill="none" stroke="#28a745" stroke-dasharray="5,2" points="8,-210 8,-350 362,-350 362,-210 8,-210"/>
<text text-anchor="middle" x="185" y="-335.6" font-family="Helvetica Bold" font-size="13.00" fill="#28a745">Proof Dependencies</text>
</g>
<g id="clust4" class="cluster">
<title>cluster_stdlib</title>
<polygon fill="none" stroke="#e67e22" stroke-dasharray="5,2" points="129.5,-8 129.5,-136 240.5,-136 240.5,-8 129.5,-8"/>
<text text-anchor="middle" x="185" y="-121.6" font-family="Helvetica Bold" font-size="13.00" fill="#e67e22">Stdlib Lemmas</text>
</g>
<!-- L4YAML.Scanner.ScannerState.emit -->
<g id="node1" class="node">
<title>L4YAML.Scanner.ScannerState.emit</title>
<g id="a_node1"><a xlink:href="../../../api/L4YAML/Scanner.html#L4YAML.Scanner.ScannerState.emit" xlink:title="ScannerState.emit\n(def)" target="_blank">
<polygon fill="#dce9f7" stroke="#4a90d9" points="645.22,-257 547.22,-257 547.22,-221 645.22,-221 645.22,-257"/>
<text text-anchor="middle" x="596.22" y="-242" font-family="Helvetica" font-size="10.00">ScannerState.emit</text>
<text text-anchor="middle" x="596.22" y="-231" font-family="Helvetica" font-size="10.00">(def)</text>
</a>
</g>
</g>
<!-- L4YAML.Scanner.ScannerState.advance -->
<g id="node2" class="node">
<title>L4YAML.Scanner.ScannerState.advance</title>
<g id="a_node2"><a xlink:href="../../../api/L4YAML/Scanner.html#L4YAML.Scanner.ScannerState.advance" xlink:title="ScannerState.advance\n(def)" target="_blank">
<polygon fill="#dce9f7" stroke="#4a90d9" points="653.72,-365 538.72,-365 538.72,-329 653.72,-329 653.72,-365"/>
<text text-anchor="middle" x="596.22" y="-350" font-family="Helvetica" font-size="10.00">ScannerState.advance</text>
<text text-anchor="middle" x="596.22" y="-339" font-family="Helvetica" font-size="10.00">(def)</text>
</a>
</g>
</g>
<!-- L4YAML.Scanner.ScannerState.flowLevel -->
<g id="node3" class="node">
<title>L4YAML.Scanner.ScannerState.flowLevel</title>
<g id="a_node3"><a xlink:href="../../../api/L4YAML/Scanner.html#L4YAML.Scanner.ScannerState.flowLevel" xlink:title="ScannerState.flowLevel\n(def)" target="_blank">
<polygon fill="#dce9f7" stroke="#4a90d9" points="981.45,-365 862.45,-365 862.45,-329 981.45,-329 981.45,-365"/>
<text text-anchor="middle" x="921.95" y="-350" font-family="Helvetica" font-size="10.00">ScannerState.flowLevel</text>
<text text-anchor="middle" x="921.95" y="-339" font-family="Helvetica" font-size="10.00">(def)</text>
</a>
</g>
</g>
<!-- L4YAML.YamlToken -->
<g id="node4" class="node">
<title>L4YAML.YamlToken</title>
<g id="a_node4"><a xlink:href="../../../api/L4YAML/Token.html#L4YAML.YamlToken" xlink:title="YamlToken\n(inductive)" target="_blank">
<polygon fill="#dce9f7" stroke="#4a90d9" points="628.22,-311 564.22,-311 564.22,-275 628.22,-275 628.22,-311"/>
<text text-anchor="middle" x="596.22" y="-296" font-family="Helvetica" font-size="10.00">YamlToken</text>
<text text-anchor="middle" x="596.22" y="-285" font-family="Helvetica" font-size="10.00">(inductive)</text>
</a>
</g>
</g>
<!-- L4YAML.Scanner.ScannerState -->
<g id="node5" class="node">
<title>L4YAML.Scanner.ScannerState</title>
<g id="a_node5"><a xlink:href="../../../api/L4YAML/Scanner.html#L4YAML.Scanner.ScannerState" xlink:title="ScannerState\n(inductive)" target="_blank">
<polygon fill="#dce9f7" stroke="#4a90d9" points="959.95,-311 883.95,-311 883.95,-275 959.95,-275 959.95,-311"/>
<text text-anchor="middle" x="921.95" y="-296" font-family="Helvetica" font-size="10.00">ScannerState</text>
<text text-anchor="middle" x="921.95" y="-285" font-family="Helvetica" font-size="10.00">(inductive)</text>
</a>
</g>
</g>
<!-- L4YAML.Scanner.scanFlowMappingEnd -->
<g id="node6" class="node">
<title>L4YAML.Scanner.scanFlowMappingEnd</title>
<g id="a_node6"><a xlink:href="../../../api/L4YAML/Scanner.html#L4YAML.Scanner.scanFlowMappingEnd" xlink:title="scanFlowMappingEnd\n(def)" target="_blank">
<polygon fill="#dce9f7" stroke="#4a90d9" points="978.45,-257 865.45,-257 865.45,-221 978.45,-221 978.45,-257"/>
<text text-anchor="middle" x="921.95" y="-242" font-family="Helvetica" font-size="10.00">scanFlowMappingEnd</text>
<text text-anchor="middle" x="921.95" y="-231" font-family="Helvetica" font-size="10.00">(def)</text>
</a>
</g>
</g>
<!-- L4YAML.Proofs.EmitterScannability.scanFlowMappingEnd_flowLevel -->
<g id="node7" class="node">
<title>L4YAML.Proofs.EmitterScannability.scanFlowMappingEnd_flowLevel</title>
<g id="a_node7"><a xlink:href="../../../api/L4YAML/Proofs/EmitterScannability.html#L4YAML.Proofs.EmitterScannability.scanFlowMappingEnd_flowLevel" xlink:title="EmitterScannability.scanFlowMappingEnd_flowLevel" target="_blank">
<polygon fill="#fff3cd" stroke="#d4a017" points="797.67,-77.54 797.67,-92.46 679.66,-103 512.78,-103 394.78,-92.46 394.78,-77.54 512.78,-67 679.66,-67 797.67,-77.54"/>
<polygon fill="none" stroke="#d4a017" points="801.67,-73.89 801.67,-96.11 679.84,-107 512.6,-107 390.77,-96.11 390.77,-73.89 512.6,-63 679.84,-63 801.67,-73.89"/>
<text text-anchor="middle" x="596.22" y="-81.9" font-family="Helvetica" font-size="12.00">EmitterScannability.scanFlowMappingEnd_flowLevel</text>
</a>
</g>
</g>
<!-- L4YAML.Proofs.EmitterScannability.scanFlowMappingEnd_flowLevel&#45;&gt;L4YAML.Scanner.ScannerState.flowLevel -->
<g id="edge3" class="edge">
<title>L4YAML.Proofs.EmitterScannability.scanFlowMappingEnd_flowLevel&#45;&gt;L4YAML.Scanner.ScannerState.flowLevel</title>
<path fill="none" stroke="#4a90d9" stroke-width="2" d="M705.18,-104.8C755.15,-119.59 810.78,-145.13 844.45,-189 880.23,-235.62 827.47,-272.77 862.45,-320 863.52,-321.46 864.7,-322.83 865.96,-324.14"/>
<polygon fill="#4a90d9" stroke="#4a90d9" stroke-width="2" points="864.32,-325.97 871.17,-328.83 867.6,-322.33 864.32,-325.97"/>
<text text-anchor="middle" x="831.95" y="-191.6" font-family="Times-Roman" font-size="8.00" fill="#4a90d9">about</text>
</g>
<!-- L4YAML.Proofs.EmitterScannability.scanFlowMappingEnd_flowLevel&#45;&gt;L4YAML.Scanner.ScannerState -->
<g id="edge1" class="edge">
<title>L4YAML.Proofs.EmitterScannability.scanFlowMappingEnd_flowLevel&#45;&gt;L4YAML.Scanner.ScannerState</title>
<path fill="none" stroke="#4a90d9" stroke-width="2" d="M791.87,-97.01C811.58,-105.14 829.73,-116.46 844.45,-132 885.77,-175.63 826.76,-217.66 862.45,-266 866.4,-271.35 871.67,-275.68 877.44,-279.16"/>
<polygon fill="#4a90d9" stroke="#4a90d9" stroke-width="2" points="876.53,-281.45 883.85,-282.62 878.86,-277.14 876.53,-281.45"/>
<text text-anchor="middle" x="831.95" y="-134.6" font-family="Times-Roman" font-size="8.00" fill="#4a90d9">about</text>
</g>
<!-- L4YAML.Proofs.EmitterScannability.scanFlowMappingEnd_flowLevel&#45;&gt;L4YAML.Scanner.scanFlowMappingEnd -->
<g id="edge2" class="edge">
<title>L4YAML.Proofs.EmitterScannability.scanFlowMappingEnd_flowLevel&#45;&gt;L4YAML.Scanner.scanFlowMappingEnd</title>
<path fill="none" stroke="#4a90d9" stroke-width="2" d="M730.44,-67.5C769.67,-68.43 811.01,-75.91 844.45,-97 886.07,-123.24 906.59,-180.36 915.37,-213.6"/>
<polygon fill="#4a90d9" stroke="#4a90d9" stroke-width="2" points="913.08,-214.52 917.17,-220.71 917.83,-213.33 913.08,-214.52"/>
<text text-anchor="middle" x="831.95" y="-99.6" font-family="Times-Roman" font-size="8.00" fill="#4a90d9">about</text>
</g>
<!-- L4YAML.Proofs.ScannerCorrectness.emit_preserves_flowLevel -->
<g id="node8" class="node">
<title>L4YAML.Proofs.ScannerCorrectness.emit_preserves_flowLevel</title>
<g id="a_node8"><a xlink:href="../../../api/L4YAML/Proofs/ScannerCorrectness.html#L4YAML.Proofs.ScannerCorrectness.emit_preserves_flowLevel" xlink:title="ScannerCorrectness.emit_preserves_flowLevel\n(ScannerCorrectness)" target="_blank">
<ellipse fill="#d4edda" stroke="#28a745" cx="185" cy="-239" rx="156.04" ry="21.43"/>
<text text-anchor="middle" x="185" y="-242" font-family="Helvetica" font-size="10.00">ScannerCorrectness.emit_preserves_flowLevel</text>
<text text-anchor="middle" x="185" y="-231" font-family="Helvetica" font-size="10.00">(ScannerCorrectness)</text>
</a>
</g>
</g>
<!-- L4YAML.Proofs.ScannerCorrectness.emit_preserves_flowLevel&#45;&gt;L4YAML.Scanner.ScannerState.emit -->
<g id="edge8" class="edge">
<title>L4YAML.Proofs.ScannerCorrectness.emit_preserves_flowLevel&#45;&gt;L4YAML.Scanner.ScannerState.emit</title>
<path fill="none" stroke="#999999" stroke-dasharray="1,5" d="M341.29,-239C411.9,-239 490.84,-239 541.68,-239"/>
<polygon fill="#999999" stroke="#999999" points="541.82,-240.75 546.82,-239 541.82,-237.25 541.82,-240.75"/>
</g>
<!-- L4YAML.Proofs.ScannerCorrectness.emit_preserves_flowLevel&#45;&gt;L4YAML.Scanner.ScannerState.flowLevel -->
<g id="edge11" class="edge">
<title>L4YAML.Proofs.ScannerCorrectness.emit_preserves_flowLevel&#45;&gt;L4YAML.Scanner.ScannerState.flowLevel</title>
<path fill="none" stroke="#999999" stroke-dasharray="1,5" d="M280.55,-222.2C432.79,-197.21 723.82,-158.64 809.45,-212 854.82,-240.28 824.19,-282.64 862.45,-320 864.55,-322.05 866.83,-323.97 869.24,-325.75"/>
<polygon fill="#999999" stroke="#999999" points="868.59,-327.43 873.7,-328.82 870.58,-324.54 868.59,-327.43"/>
</g>
<!-- L4YAML.Proofs.ScannerCorrectness.emit_preserves_flowLevel&#45;&gt;L4YAML.YamlToken -->
<g id="edge9" class="edge">
<title>L4YAML.Proofs.ScannerCorrectness.emit_preserves_flowLevel&#45;&gt;L4YAML.YamlToken</title>
<path fill="none" stroke="#999999" stroke-dasharray="1,5" d="M294.87,-254.11C323.53,-258.04 354.42,-262.22 383,-266 444.74,-274.16 516.65,-283.21 558.92,-288.49"/>
<polygon fill="#999999" stroke="#999999" points="558.75,-290.23 563.93,-289.11 559.18,-286.76 558.75,-290.23"/>
</g>
<!-- L4YAML.Proofs.ScannerCorrectness.emit_preserves_flowLevel&#45;&gt;L4YAML.Scanner.ScannerState -->
<g id="edge10" class="edge">
<title>L4YAML.Proofs.ScannerCorrectness.emit_preserves_flowLevel&#45;&gt;L4YAML.Scanner.ScannerState</title>
<path fill="none" stroke="#999999" stroke-dasharray="1,5" d="M235.15,-218.82C272.09,-204.73 324.32,-187.05 372,-179 423.77,-170.26 804.07,-135.43 844.45,-169 878.16,-197.03 835.53,-231.39 862.45,-266 866.91,-271.74 872.88,-276.31 879.3,-279.92"/>
<polygon fill="#999999" stroke="#999999" points="878.56,-281.51 883.8,-282.28 880.18,-278.41 878.56,-281.51"/>
</g>
<!-- L4YAML.Proofs.ScannerCorrectness.emit_preserves_flowLevel&#45;&gt;L4YAML.Proofs.EmitterScannability.scanFlowMappingEnd_flowLevel -->
<g id="edge5" class="edge">
<title>L4YAML.Proofs.ScannerCorrectness.emit_preserves_flowLevel&#45;&gt;L4YAML.Proofs.EmitterScannability.scanFlowMappingEnd_flowLevel</title>
<path fill="none" stroke="#28a745" d="M239.8,-219.06C277.93,-202.67 328.13,-176.25 362,-140 369.05,-132.45 363.7,-125.16 372,-119 381.8,-111.72 392.52,-105.71 403.78,-100.77"/>
<polygon fill="#28a745" stroke="#28a745" points="404.96,-102.93 410.48,-97.98 403.08,-98.41 404.96,-102.93"/>
</g>
<!-- L4YAML.Proofs.ScannerCorrectness.advance_preserves_flowLevel -->
<g id="node9" class="node">
<title>L4YAML.Proofs.ScannerCorrectness.advance_preserves_flowLevel</title>
<g id="a_node9"><a xlink:href="../../../api/L4YAML/Proofs/ScannerCorrectness.html#L4YAML.Proofs.ScannerCorrectness.advance_preserves_flowLevel" xlink:title="ScannerCorrectness.advance_preserves_flowLevel\n(ScannerCorrectness)" target="_blank">
<ellipse fill="#d4edda" stroke="#28a745" cx="185" cy="-299" rx="169" ry="21.43"/>
<text text-anchor="middle" x="185" y="-302" font-family="Helvetica" font-size="10.00">ScannerCorrectness.advance_preserves_flowLevel</text>
<text text-anchor="middle" x="185" y="-291" font-family="Helvetica" font-size="10.00">(ScannerCorrectness)</text>
</a>
</g>
</g>
<!-- L4YAML.Proofs.ScannerCorrectness.advance_preserves_flowLevel&#45;&gt;L4YAML.Scanner.ScannerState.advance -->
<g id="edge12" class="edge">
<title>L4YAML.Proofs.ScannerCorrectness.advance_preserves_flowLevel&#45;&gt;L4YAML.Scanner.ScannerState.advance</title>
<path fill="none" stroke="#999999" stroke-dasharray="1,5" d="M309.06,-313.43C383.09,-322.12 474.15,-332.8 533.38,-339.75"/>
<polygon fill="#999999" stroke="#999999" points="533.49,-341.52 538.65,-340.36 533.89,-338.04 533.49,-341.52"/>
</g>
<!-- L4YAML.Proofs.ScannerCorrectness.advance_preserves_flowLevel&#45;&gt;L4YAML.Scanner.ScannerState.flowLevel -->
<g id="edge14" class="edge">
<title>L4YAML.Proofs.ScannerCorrectness.advance_preserves_flowLevel&#45;&gt;L4YAML.Scanner.ScannerState.flowLevel</title>
<path fill="none" stroke="#999999" stroke-dasharray="1,5" d="M214.54,-319.97C251.32,-345.61 318.26,-387.74 383,-405 581.23,-457.85 653.21,-491.29 844.45,-417 869.04,-407.44 890.55,-385.88 904.45,-369.2"/>
<polygon fill="#999999" stroke="#999999" points="906.01,-370.05 907.81,-365.07 903.3,-367.84 906.01,-370.05"/>
</g>
<!-- L4YAML.Proofs.ScannerCorrectness.advance_preserves_flowLevel&#45;&gt;L4YAML.Scanner.ScannerState -->
<g id="edge13" class="edge">
<title>L4YAML.Proofs.ScannerCorrectness.advance_preserves_flowLevel&#45;&gt;L4YAML.Scanner.ScannerState</title>
<path fill="none" stroke="#999999" stroke-dasharray="1,5" d="M227.39,-319.69C266.42,-337.99 327.09,-363.39 383,-374 483.75,-393.13 762.03,-440.02 844.45,-379 866.48,-362.69 844.43,-340.66 862.45,-320 867.02,-314.76 872.82,-310.47 878.98,-306.99"/>
<polygon fill="#999999" stroke="#999999" points="880.14,-308.35 883.75,-304.47 878.51,-305.26 880.14,-308.35"/>
</g>
<!-- L4YAML.Proofs.ScannerCorrectness.advance_preserves_flowLevel&#45;&gt;L4YAML.Proofs.EmitterScannability.scanFlowMappingEnd_flowLevel -->
<g id="edge4" class="edge">
<title>L4YAML.Proofs.ScannerCorrectness.advance_preserves_flowLevel&#45;&gt;L4YAML.Proofs.EmitterScannability.scanFlowMappingEnd_flowLevel</title>
<path fill="none" stroke="#28a745" d="M330.22,-288.06C341.72,-283.23 352.53,-277 362,-269 383.58,-250.77 365.03,-230.8 383,-209 420.97,-162.93 480.83,-130.17 527.31,-109.95"/>
<polygon fill="#28a745" stroke="#28a745" points="528.31,-112.18 533.78,-107.17 526.38,-107.68 528.31,-112.18"/>
</g>
<!-- eq_self -->
<g id="node10" class="node">
<title>eq_self</title>
<g id="a_node10"><a xlink:href="../../../api/Init/SimpLemmas.html#eq_self" xlink:title="eq_self" target="_blank">
<ellipse fill="#fdebd0" stroke="#e67e22" cx="185" cy="-88" rx="28.01" ry="18"/>
<text text-anchor="middle" x="185" y="-85.5" font-family="Helvetica" font-size="10.00">eq_self</text>
</a>
</g>
</g>
<!-- eq_self&#45;&gt;L4YAML.Proofs.EmitterScannability.scanFlowMappingEnd_flowLevel -->
<g id="edge6" class="edge">
<title>eq_self&#45;&gt;L4YAML.Proofs.EmitterScannability.scanFlowMappingEnd_flowLevel</title>
<path fill="none" stroke="#e67e22" stroke-width="2" d="M213.48,-87.8C249.49,-87.53 316.03,-87.05 383.59,-86.55"/>
<polygon fill="#e67e22" stroke="#e67e22" stroke-width="2" points="383.99,-89 390.97,-86.5 383.96,-84.1 383.99,-89"/>
</g>
<!-- of_eq_true -->
<g id="node11" class="node">
<title>of_eq_true</title>
<g id="a_node11"><a xlink:href="../../../api/Init/SimpLemmas.html#of_eq_true" xlink:title="of_eq_true" target="_blank">
<ellipse fill="#fdebd0" stroke="#e67e22" cx="185" cy="-34" rx="36.49" ry="18"/>
<text text-anchor="middle" x="185" y="-31.5" font-family="Helvetica" font-size="10.00">of_eq_true</text>
</a>
</g>
</g>
<!-- of_eq_true&#45;&gt;L4YAML.Proofs.EmitterScannability.scanFlowMappingEnd_flowLevel -->
<g id="edge7" class="edge">
<title>of_eq_true&#45;&gt;L4YAML.Proofs.EmitterScannability.scanFlowMappingEnd_flowLevel</title>
<path fill="none" stroke="#e67e22" stroke-width="2" d="M220.54,-38.3C270.95,-44.59 367.66,-56.64 450.2,-66.93"/>
<polygon fill="#e67e22" stroke="#e67e22" stroke-width="2" points="450.38,-69.42 457.63,-67.85 450.99,-64.56 450.38,-69.42"/>
</g>
</g>
</svg>
