<?xml version="1.0" encoding="UTF-8" standalone="no"?>
<!DOCTYPE svg PUBLIC "-//W3C//DTD SVG 1.1//EN"
 "http://www.w3.org/Graphics/SVG/1.1/DTD/svg11.dtd">
<!-- Generated by graphviz version 2.44.0 (0)
 -->
<!-- Title: RoundTrip.escapeTag_roundtrip Pages: 1 -->
<svg width="1062pt" height="958pt"
 viewBox="0.00 0.00 1062.34 958.00" xmlns="http://www.w3.org/2000/svg" xmlns:xlink="http://www.w3.org/1999/xlink">
<g id="graph0" class="graph" transform="scale(1 1) rotate(0) translate(4 954)">
<title>RoundTrip.escapeTag_roundtrip</title>
<polygon fill="white" stroke="transparent" points="-4,4 -4,-954 1058.34,-954 1058.34,4 -4,4"/>
<text text-anchor="middle" x="527.17" y="-935.6" font-family="Helvetica Bold" font-size="13.00">RoundTrip.escapeTag_roundtrip</text>
<text text-anchor="middle" x="527.17" y="-921.6" font-family="Helvetica Bold" font-size="13.00">Tag escape/unescape round&#45;trips correctly</text>
<text text-anchor="middle" x="527.17" y="-907.6" font-family="Helvetica Bold" font-size="13.00">(L4YAML.Proofs.RoundTrip)</text>
<g id="clust1" class="cluster">
<title>cluster_functions</title>
<polygon fill="none" stroke="#4a90d9" stroke-dasharray="5,2" points="600.24,-513 600.24,-695 1046.34,-695 1046.34,-513 600.24,-513"/>
<text text-anchor="middle" x="823.29" y="-680.6" font-family="Helvetica Bold" font-size="13.00" fill="#4a90d9">Functions</text>
</g>
<g id="clust2" class="cluster">
<title>cluster_key</title>
<polygon fill="none" stroke="#d4a017" stroke-dasharray="5,2" points="557.14,-423 557.14,-505 830.34,-505 830.34,-423 557.14,-423"/>
<text text-anchor="middle" x="693.74" y="-490.6" font-family="Helvetica Bold" font-size="13.00" fill="#d4a017">Key Theorem</text>
</g>
<g id="clust4" class="cluster">
<title>cluster_stdlib</title>
<polygon fill="none" stroke="#e67e22" stroke-dasharray="5,2" points="8,-8 8,-892 536.14,-892 536.14,-8 8,-8"/>
<text text-anchor="middle" x="272.07" y="-877.6" font-family="Helvetica Bold" font-size="13.00" fill="#e67e22">Stdlib Lemmas</text>
</g>
<!-- L4YAML.Proofs.RoundTrip.escapeTag -->
<g id="node1" class="node">
<title>L4YAML.Proofs.RoundTrip.escapeTag</title>
<polygon fill="#dce9f7" stroke="#4a90d9" points="1016.34,-665 905.34,-665 905.34,-629 1016.34,-629 1016.34,-665"/>
<text text-anchor="middle" x="960.84" y="-650" font-family="Helvetica" font-size="10.00">RoundTrip.escapeTag</text>
<text text-anchor="middle" x="960.84" y="-639" font-family="Helvetica" font-size="10.00">(def)</text>
</g>
<!-- L4YAML.Grammar.resolveNamedEscape -->
<g id="node2" class="node">
<title>L4YAML.Grammar.resolveNamedEscape</title>
<polygon fill="#dce9f7" stroke="#4a90d9" points="1038.34,-611 883.34,-611 883.34,-575 1038.34,-575 1038.34,-611"/>
<text text-anchor="middle" x="960.84" y="-596" font-family="Helvetica" font-size="10.00">Grammar.resolveNamedEscape</text>
<text text-anchor="middle" x="960.84" y="-585" font-family="Helvetica" font-size="10.00">(def)</text>
</g>
<!-- L4YAML.Emit.escapeChar -->
<g id="node3" class="node">
<title>L4YAML.Emit.escapeChar</title>
<polygon fill="#dce9f7" stroke="#4a90d9" points="1006.84,-557 914.84,-557 914.84,-521 1006.84,-521 1006.84,-557"/>
<text text-anchor="middle" x="960.84" y="-542" font-family="Helvetica" font-size="10.00">Emit.escapeChar</text>
<text text-anchor="middle" x="960.84" y="-531" font-family="Helvetica" font-size="10.00">(def)</text>
</g>
<!-- L4YAML.Proofs.RoundTrip.isEscapedChar.match_1 -->
<g id="node4" class="node">
<title>L4YAML.Proofs.RoundTrip.isEscapedChar.match_1</title>
<polygon fill="#dce9f7" stroke="#4a90d9" points="779.24,-665 608.24,-665 608.24,-629 779.24,-629 779.24,-665"/>
<text text-anchor="middle" x="693.74" y="-650" font-family="Helvetica" font-size="10.00">RoundTrip.isEscapedChar.match_1</text>
<text text-anchor="middle" x="693.74" y="-639" font-family="Helvetica" font-size="10.00">(def)</text>
</g>
<!-- L4YAML.Proofs.RoundTrip.escapeTag_roundtrip -->
<g id="node5" class="node">
<title>L4YAML.Proofs.RoundTrip.escapeTag_roundtrip</title>
<polygon fill="#fff3cd" stroke="#d4a017" points="818.43,-445.54 818.43,-460.46 745.39,-471 642.09,-471 569.04,-460.46 569.04,-445.54 642.09,-435 745.39,-435 818.43,-445.54"/>
<polygon fill="none" stroke="#d4a017" points="822.43,-442.08 822.43,-463.92 745.67,-475 641.8,-475 565.04,-463.92 565.04,-442.08 641.8,-431 745.67,-431 822.43,-442.08"/>
<text text-anchor="middle" x="693.74" y="-449.9" font-family="Helvetica" font-size="12.00">RoundTrip.escapeTag_roundtrip</text>
</g>
<!-- L4YAML.Proofs.RoundTrip.escapeTag_roundtrip&#45;&gt;L4YAML.Proofs.RoundTrip.escapeTag -->
<g id="edge1" class="edge">
<title>L4YAML.Proofs.RoundTrip.escapeTag_roundtrip&#45;&gt;L4YAML.Proofs.RoundTrip.escapeTag</title>
<path fill="none" stroke="#4a90d9" stroke-width="2" d="M774.18,-471.05C795.16,-479.39 815.94,-491.49 830.34,-509 844.73,-526.5 831.39,-538.18 840.34,-559 853.43,-589.48 856.89,-599.98 883.34,-620 888.02,-623.54 893.2,-626.65 898.6,-629.37"/>
<polygon fill="#4a90d9" stroke="#4a90d9" stroke-width="2" points="897.65,-631.62 905.02,-632.38 899.73,-627.19 897.65,-631.62"/>
<text text-anchor="middle" x="852.84" y="-605.6" font-family="Times-Roman" font-size="8.00" fill="#4a90d9">about</text>
</g>
<!-- L4YAML.Proofs.RoundTrip.escapeTag_roundtrip&#45;&gt;L4YAML.Grammar.resolveNamedEscape -->
<g id="edge3" class="edge">
<title>L4YAML.Proofs.RoundTrip.escapeTag_roundtrip&#45;&gt;L4YAML.Grammar.resolveNamedEscape</title>
<path fill="none" stroke="#4a90d9" stroke-width="2" d="M759.05,-473.07C782.62,-482.06 808.78,-494.04 830.34,-509 837.44,-513.93 876.1,-561.26 883.34,-566 886.5,-568.08 889.84,-570.01 893.29,-571.82"/>
<polygon fill="#4a90d9" stroke="#4a90d9" stroke-width="2" points="892.24,-574.03 899.6,-574.93 894.41,-569.64 892.24,-574.03"/>
<text text-anchor="middle" x="852.84" y="-548.6" font-family="Times-Roman" font-size="8.00" fill="#4a90d9">about</text>
</g>
<!-- L4YAML.Proofs.RoundTrip.escapeTag_roundtrip&#45;&gt;L4YAML.Emit.escapeChar -->
<g id="edge2" class="edge">
<title>L4YAML.Proofs.RoundTrip.escapeTag_roundtrip&#45;&gt;L4YAML.Emit.escapeChar</title>
<path fill="none" stroke="#4a90d9" stroke-width="2" d="M757.56,-473.38C803.34,-488.23 864.64,-508.12 907.71,-522.09"/>
<polygon fill="#4a90d9" stroke="#4a90d9" stroke-width="2" points="907.05,-524.45 914.46,-524.28 908.56,-519.79 907.05,-524.45"/>
<text text-anchor="middle" x="852.84" y="-508.6" font-family="Times-Roman" font-size="8.00" fill="#4a90d9">about</text>
</g>
<!-- of_decide_eq_true -->
<g id="node6" class="node">
<title>of_decide_eq_true</title>
<ellipse fill="#fdebd0" stroke="#e67e22" cx="272.07" cy="-142" rx="56.52" ry="18"/>
<text text-anchor="middle" x="272.07" y="-139.5" font-family="Helvetica" font-size="10.00">of_decide_eq_true</text>
</g>
<!-- of_decide_eq_true&#45;&gt;L4YAML.Proofs.RoundTrip.escapeTag_roundtrip -->
<g id="edge4" class="edge">
<title>of_decide_eq_true&#45;&gt;L4YAML.Proofs.RoundTrip.escapeTag_roundtrip</title>
<path fill="none" stroke="#e67e22" stroke-width="2" d="M323.16,-134.18C379.73,-128.09 472.2,-126.69 536.14,-169 628.41,-230.06 671.3,-364.72 686.25,-424.01"/>
<polygon fill="#e67e22" stroke="#e67e22" stroke-width="2" points="683.88,-424.65 687.93,-430.86 688.64,-423.48 683.88,-424.65"/>
</g>
<!-- _private.L4YAML.Proofs.RoundTrip.0.L4YAML.Proofs.RoundTrip.isEscapedChar.match_1.eq_2 -->
<g id="node7" class="node">
<title>_private.L4YAML.Proofs.RoundTrip.0.L4YAML.Proofs.RoundTrip.isEscapedChar.match_1.eq_2</title>
<ellipse fill="#fdebd0" stroke="#e67e22" cx="272.07" cy="-844" rx="253.25" ry="18"/>
<text text-anchor="middle" x="272.07" y="-841.5" font-family="Helvetica" font-size="10.00">_private.L4YAML.Proofs.RoundTrip.0.L4YAML.Proofs.RoundTrip.isEscapedChar.match_1.eq_2</text>
</g>
<!-- _private.L4YAML.Proofs.RoundTrip.0.L4YAML.Proofs.RoundTrip.isEscapedChar.match_1.eq_2&#45;&gt;L4YAML.Proofs.RoundTrip.isEscapedChar.match_1 -->
<g id="edge28" class="edge">
<title>_private.L4YAML.Proofs.RoundTrip.0.L4YAML.Proofs.RoundTrip.isEscapedChar.match_1.eq_2&#45;&gt;L4YAML.Proofs.RoundTrip.isEscapedChar.match_1</title>
<path fill="none" stroke="#999999" stroke-dasharray="1,5" d="M489.59,-834.76C505.75,-830.17 521.46,-824.35 536.14,-817 603.54,-783.24 656.35,-707.48 679.69,-669.54"/>
<polygon fill="#999999" stroke="#999999" points="681.28,-670.29 682.38,-665.11 678.29,-668.47 681.28,-670.29"/>
</g>
<!-- _private.L4YAML.Proofs.RoundTrip.0.L4YAML.Proofs.RoundTrip.isEscapedChar.match_1.eq_2&#45;&gt;L4YAML.Proofs.RoundTrip.escapeTag_roundtrip -->
<g id="edge5" class="edge">
<title>_private.L4YAML.Proofs.RoundTrip.0.L4YAML.Proofs.RoundTrip.isEscapedChar.match_1.eq_2&#45;&gt;L4YAML.Proofs.RoundTrip.escapeTag_roundtrip</title>
<path fill="none" stroke="#e67e22" stroke-width="2" d="M359.27,-860.93C417.51,-866.94 491.63,-863.06 536.14,-817 559.97,-792.33 537.11,-536.85 557.14,-509 568.66,-492.98 585.63,-481.53 603.7,-473.34"/>
<polygon fill="#e67e22" stroke="#e67e22" stroke-width="2" points="604.92,-475.48 610.39,-470.48 602.99,-470.98 604.92,-475.48"/>
</g>
<!-- _private.L4YAML.Proofs.RoundTrip.0.L4YAML.Proofs.RoundTrip.isEscapedChar.match_1.eq_5 -->
<g id="node8" class="node">
<title>_private.L4YAML.Proofs.RoundTrip.0.L4YAML.Proofs.RoundTrip.isEscapedChar.match_1.eq_5</title>
<ellipse fill="#fdebd0" stroke="#e67e22" cx="272.07" cy="-574" rx="253.25" ry="18"/>
<text text-anchor="middle" x="272.07" y="-571.5" font-family="Helvetica" font-size="10.00">_private.L4YAML.Proofs.RoundTrip.0.L4YAML.Proofs.RoundTrip.isEscapedChar.match_1.eq_5</text>
</g>
<!-- _private.L4YAML.Proofs.RoundTrip.0.L4YAML.Proofs.RoundTrip.isEscapedChar.match_1.eq_5&#45;&gt;L4YAML.Proofs.RoundTrip.isEscapedChar.match_1 -->
<g id="edge30" class="edge">
<title>_private.L4YAML.Proofs.RoundTrip.0.L4YAML.Proofs.RoundTrip.isEscapedChar.match_1.eq_5&#45;&gt;L4YAML.Proofs.RoundTrip.isEscapedChar.match_1</title>
<path fill="none" stroke="#999999" stroke-dasharray="1,5" d="M366.81,-557.29C423.2,-552.95 492.32,-558.64 536.14,-601 559.68,-623.76 521.46,-652.47 546.14,-674 576.99,-700.92 625.71,-684.25 658.42,-667.59"/>
<polygon fill="#999999" stroke="#999999" points="659.5,-669 663.12,-665.14 657.88,-665.9 659.5,-669"/>
</g>
<!-- _private.L4YAML.Proofs.RoundTrip.0.L4YAML.Proofs.RoundTrip.isEscapedChar.match_1.eq_5&#45;&gt;L4YAML.Proofs.RoundTrip.escapeTag_roundtrip -->
<g id="edge6" class="edge">
<title>_private.L4YAML.Proofs.RoundTrip.0.L4YAML.Proofs.RoundTrip.isEscapedChar.match_1.eq_5&#45;&gt;L4YAML.Proofs.RoundTrip.escapeTag_roundtrip</title>
<path fill="none" stroke="#e67e22" stroke-width="2" d="M506.65,-567.15C517.21,-561.66 527.13,-555.01 536.14,-547 551.44,-533.38 532.42,-517.22 546.14,-502 558.35,-488.45 574.41,-478.64 591.42,-471.54"/>
<polygon fill="#e67e22" stroke="#e67e22" stroke-width="2" points="592.62,-473.7 598.24,-468.85 590.82,-469.14 592.62,-473.7"/>
</g>
<!-- _private.L4YAML.Proofs.RoundTrip.0.L4YAML.Proofs.RoundTrip.isEscapedChar.match_1.eq_12 -->
<g id="node9" class="node">
<title>_private.L4YAML.Proofs.RoundTrip.0.L4YAML.Proofs.RoundTrip.isEscapedChar.match_1.eq_12</title>
<ellipse fill="#fdebd0" stroke="#e67e22" cx="272.07" cy="-682" rx="256.14" ry="18"/>
<text text-anchor="middle" x="272.07" y="-679.5" font-family="Helvetica" font-size="10.00">_private.L4YAML.Proofs.RoundTrip.0.L4YAML.Proofs.RoundTrip.isEscapedChar.match_1.eq_12</text>
</g>
<!-- _private.L4YAML.Proofs.RoundTrip.0.L4YAML.Proofs.RoundTrip.isEscapedChar.match_1.eq_12&#45;&gt;L4YAML.Proofs.RoundTrip.isEscapedChar.match_1 -->
<g id="edge21" class="edge">
<title>_private.L4YAML.Proofs.RoundTrip.0.L4YAML.Proofs.RoundTrip.isEscapedChar.match_1.eq_12&#45;&gt;L4YAML.Proofs.RoundTrip.isEscapedChar.match_1</title>
<path fill="none" stroke="#999999" stroke-dasharray="1,5" d="M458.17,-694.44C484.54,-698.1 511.17,-702.85 536.14,-709 541.19,-710.24 542.05,-714.1 547.14,-713 587.44,-704.29 629.99,-683.47 658.62,-667.52"/>
<polygon fill="#999999" stroke="#999999" points="659.59,-668.98 663.09,-665 657.87,-665.93 659.59,-668.98"/>
</g>
<!-- _private.L4YAML.Proofs.RoundTrip.0.L4YAML.Proofs.RoundTrip.isEscapedChar.match_1.eq_12&#45;&gt;L4YAML.Proofs.RoundTrip.escapeTag_roundtrip -->
<g id="edge7" class="edge">
<title>_private.L4YAML.Proofs.RoundTrip.0.L4YAML.Proofs.RoundTrip.isEscapedChar.match_1.eq_12&#45;&gt;L4YAML.Proofs.RoundTrip.escapeTag_roundtrip</title>
<path fill="none" stroke="#e67e22" stroke-width="2" d="M362.32,-698.86C419.82,-704.18 491.86,-699.52 536.14,-655 552.35,-638.69 542.16,-574.65 546.14,-552 549.54,-532.57 544.21,-523.9 557.14,-509 570.71,-493.36 589.34,-482.01 608.45,-473.79"/>
<polygon fill="#e67e22" stroke="#e67e22" stroke-width="2" points="609.39,-476.05 614.94,-471.13 607.53,-471.52 609.39,-476.05"/>
</g>
<!-- _private.L4YAML.Proofs.RoundTrip.0.L4YAML.Proofs.RoundTrip.isEscapedChar.match_1.eq_10 -->
<g id="node10" class="node">
<title>_private.L4YAML.Proofs.RoundTrip.0.L4YAML.Proofs.RoundTrip.isEscapedChar.match_1.eq_10</title>
<ellipse fill="#fdebd0" stroke="#e67e22" cx="272.07" cy="-790" rx="256.14" ry="18"/>
<text text-anchor="middle" x="272.07" y="-787.5" font-family="Helvetica" font-size="10.00">_private.L4YAML.Proofs.RoundTrip.0.L4YAML.Proofs.RoundTrip.isEscapedChar.match_1.eq_10</text>
</g>
<!-- _private.L4YAML.Proofs.RoundTrip.0.L4YAML.Proofs.RoundTrip.isEscapedChar.match_1.eq_10&#45;&gt;L4YAML.Proofs.RoundTrip.isEscapedChar.match_1 -->
<g id="edge24" class="edge">
<title>_private.L4YAML.Proofs.RoundTrip.0.L4YAML.Proofs.RoundTrip.isEscapedChar.match_1.eq_10&#45;&gt;L4YAML.Proofs.RoundTrip.isEscapedChar.match_1</title>
<path fill="none" stroke="#999999" stroke-dasharray="1,5" d="M479.88,-779.48C499.23,-775.32 518.27,-769.93 536.14,-763 590.78,-741.81 643.17,-696.19 671.34,-668.9"/>
<polygon fill="#999999" stroke="#999999" points="672.64,-670.08 674.99,-665.33 670.19,-667.58 672.64,-670.08"/>
</g>
<!-- _private.L4YAML.Proofs.RoundTrip.0.L4YAML.Proofs.RoundTrip.isEscapedChar.match_1.eq_10&#45;&gt;L4YAML.Proofs.RoundTrip.escapeTag_roundtrip -->
<g id="edge8" class="edge">
<title>_private.L4YAML.Proofs.RoundTrip.0.L4YAML.Proofs.RoundTrip.isEscapedChar.match_1.eq_10&#45;&gt;L4YAML.Proofs.RoundTrip.escapeTag_roundtrip</title>
<path fill="none" stroke="#e67e22" stroke-width="2" d="M358.73,-806.95C417.11,-813.08 491.61,-809.36 536.14,-763 548.55,-750.07 544.53,-619.85 546.14,-602 547.07,-591.64 550.85,-517.29 557.14,-509 569.12,-493.18 586.38,-481.8 604.58,-473.63"/>
<polygon fill="#e67e22" stroke="#e67e22" stroke-width="2" points="605.84,-475.75 611.33,-470.76 603.92,-471.25 605.84,-475.75"/>
</g>
<!-- Option.some.injEq -->
<g id="node11" class="node">
<title>Option.some.injEq</title>
<ellipse fill="#fdebd0" stroke="#e67e22" cx="272.07" cy="-34" rx="57.2" ry="18"/>
<text text-anchor="middle" x="272.07" y="-31.5" font-family="Helvetica" font-size="10.00">Option.some.injEq</text>
</g>
<!-- Option.some.injEq&#45;&gt;L4YAML.Proofs.RoundTrip.escapeTag_roundtrip -->
<g id="edge9" class="edge">
<title>Option.some.injEq&#45;&gt;L4YAML.Proofs.RoundTrip.escapeTag_roundtrip</title>
<path fill="none" stroke="#e67e22" stroke-width="2" d="M321.85,-25.07C379.11,-17.47 474.11,-14.19 536.14,-61 656.03,-151.48 684.32,-348.35 690.84,-423.26"/>
<polygon fill="#e67e22" stroke="#e67e22" stroke-width="2" points="688.42,-423.76 691.44,-430.53 693.31,-423.36 688.42,-423.76"/>
</g>
<!-- _private.L4YAML.Proofs.RoundTrip.0.L4YAML.Proofs.RoundTrip.isEscapedChar.match_1.eq_9 -->
<g id="node12" class="node">
<title>_private.L4YAML.Proofs.RoundTrip.0.L4YAML.Proofs.RoundTrip.isEscapedChar.match_1.eq_9</title>
<ellipse fill="#fdebd0" stroke="#e67e22" cx="272.07" cy="-250" rx="253.25" ry="18"/>
<text text-anchor="middle" x="272.07" y="-247.5" font-family="Helvetica" font-size="10.00">_private.L4YAML.Proofs.RoundTrip.0.L4YAML.Proofs.RoundTrip.isEscapedChar.match_1.eq_9</text>
</g>
<!-- _private.L4YAML.Proofs.RoundTrip.0.L4YAML.Proofs.RoundTrip.isEscapedChar.match_1.eq_9&#45;&gt;L4YAML.Proofs.RoundTrip.isEscapedChar.match_1 -->
<g id="edge26" class="edge">
<title>_private.L4YAML.Proofs.RoundTrip.0.L4YAML.Proofs.RoundTrip.isEscapedChar.match_1.eq_9&#45;&gt;L4YAML.Proofs.RoundTrip.isEscapedChar.match_1</title>
<path fill="none" stroke="#999999" stroke-dasharray="1,5" d="M368.27,-233.32C424.31,-229.26 492.53,-235.24 536.14,-277 554.83,-294.9 546.58,-485.37 557.14,-509 579.56,-559.19 628.73,-601.6 661.28,-625.68"/>
<polygon fill="#999999" stroke="#999999" points="660.49,-627.27 665.56,-628.81 662.56,-624.44 660.49,-627.27"/>
</g>
<!-- _private.L4YAML.Proofs.RoundTrip.0.L4YAML.Proofs.RoundTrip.isEscapedChar.match_1.eq_9&#45;&gt;L4YAML.Proofs.RoundTrip.escapeTag_roundtrip -->
<g id="edge10" class="edge">
<title>_private.L4YAML.Proofs.RoundTrip.0.L4YAML.Proofs.RoundTrip.isEscapedChar.match_1.eq_9&#45;&gt;L4YAML.Proofs.RoundTrip.escapeTag_roundtrip</title>
<path fill="none" stroke="#e67e22" stroke-width="2" d="M490.41,-259.16C506.3,-263.77 521.73,-269.63 536.14,-277 601.8,-310.6 652.67,-384.21 677,-424.78"/>
<polygon fill="#e67e22" stroke="#e67e22" stroke-width="2" points="675,-426.22 680.67,-431 679.22,-423.72 675,-426.22"/>
</g>
<!-- _private.L4YAML.Proofs.RoundTrip.0.L4YAML.Proofs.RoundTrip.isEscapedChar.match_1.eq_4 -->
<g id="node13" class="node">
<title>_private.L4YAML.Proofs.RoundTrip.0.L4YAML.Proofs.RoundTrip.isEscapedChar.match_1.eq_4</title>
<ellipse fill="#fdebd0" stroke="#e67e22" cx="272.07" cy="-628" rx="253.25" ry="18"/>
<text text-anchor="middle" x="272.07" y="-625.5" font-family="Helvetica" font-size="10.00">_private.L4YAML.Proofs.RoundTrip.0.L4YAML.Proofs.RoundTrip.isEscapedChar.match_1.eq_4</text>
</g>
<!-- _private.L4YAML.Proofs.RoundTrip.0.L4YAML.Proofs.RoundTrip.isEscapedChar.match_1.eq_4&#45;&gt;L4YAML.Proofs.RoundTrip.isEscapedChar.match_1 -->
<g id="edge22" class="edge">
<title>_private.L4YAML.Proofs.RoundTrip.0.L4YAML.Proofs.RoundTrip.isEscapedChar.match_1.eq_4&#45;&gt;L4YAML.Proofs.RoundTrip.isEscapedChar.match_1</title>
<path fill="none" stroke="#999999" stroke-dasharray="1,5" d="M506.61,-634.9C517.18,-640.37 527.11,-647.01 536.14,-655 551.23,-668.36 527.28,-702.44 547.14,-699 582.51,-692.87 620.67,-678.95 649.05,-667.05"/>
<polygon fill="#999999" stroke="#999999" points="649.95,-668.57 653.87,-665.01 648.58,-665.35 649.95,-668.57"/>
</g>
<!-- _private.L4YAML.Proofs.RoundTrip.0.L4YAML.Proofs.RoundTrip.isEscapedChar.match_1.eq_4&#45;&gt;L4YAML.Proofs.RoundTrip.escapeTag_roundtrip -->
<g id="edge11" class="edge">
<title>_private.L4YAML.Proofs.RoundTrip.0.L4YAML.Proofs.RoundTrip.isEscapedChar.match_1.eq_4&#45;&gt;L4YAML.Proofs.RoundTrip.escapeTag_roundtrip</title>
<path fill="none" stroke="#e67e22" stroke-width="2" d="M366.52,-644.71C422.98,-649.11 492.27,-643.48 536.14,-601 548.06,-589.46 540.58,-542.64 546.14,-527 549.28,-518.17 550.01,-515.09 557.14,-509 574.17,-494.45 595.52,-483.28 616.19,-474.9"/>
<polygon fill="#e67e22" stroke="#e67e22" stroke-width="2" points="617.26,-477.11 622.88,-472.27 615.47,-472.55 617.26,-477.11"/>
</g>
<!-- _private.L4YAML.Proofs.RoundTrip.0.L4YAML.Proofs.RoundTrip.isEscapedChar.match_1.eq_3 -->
<g id="node14" class="node">
<title>_private.L4YAML.Proofs.RoundTrip.0.L4YAML.Proofs.RoundTrip.isEscapedChar.match_1.eq_3</title>
<ellipse fill="#fdebd0" stroke="#e67e22" cx="272.07" cy="-736" rx="253.25" ry="18"/>
<text text-anchor="middle" x="272.07" y="-733.5" font-family="Helvetica" font-size="10.00">_private.L4YAML.Proofs.RoundTrip.0.L4YAML.Proofs.RoundTrip.isEscapedChar.match_1.eq_3</text>
</g>
<!-- _private.L4YAML.Proofs.RoundTrip.0.L4YAML.Proofs.RoundTrip.isEscapedChar.match_1.eq_3&#45;&gt;L4YAML.Proofs.RoundTrip.isEscapedChar.match_1 -->
<g id="edge23" class="edge">
<title>_private.L4YAML.Proofs.RoundTrip.0.L4YAML.Proofs.RoundTrip.isEscapedChar.match_1.eq_3&#45;&gt;L4YAML.Proofs.RoundTrip.isEscapedChar.match_1</title>
<path fill="none" stroke="#999999" stroke-dasharray="1,5" d="M521.83,-733C530.42,-731.26 538.87,-729.27 547.14,-727 590.97,-714.98 636,-687.45 664.15,-668.06"/>
<polygon fill="#999999" stroke="#999999" points="665.42,-669.31 668.52,-665.02 663.42,-666.43 665.42,-669.31"/>
</g>
<!-- _private.L4YAML.Proofs.RoundTrip.0.L4YAML.Proofs.RoundTrip.isEscapedChar.match_1.eq_3&#45;&gt;L4YAML.Proofs.RoundTrip.escapeTag_roundtrip -->
<g id="edge12" class="edge">
<title>_private.L4YAML.Proofs.RoundTrip.0.L4YAML.Proofs.RoundTrip.isEscapedChar.match_1.eq_3&#45;&gt;L4YAML.Proofs.RoundTrip.escapeTag_roundtrip</title>
<path fill="none" stroke="#e67e22" stroke-width="2" d="M359.79,-752.89C417.89,-758.75 491.62,-754.72 536.14,-709 546.4,-698.46 544.41,-591.61 546.14,-577 547.94,-561.8 547.63,-521 557.14,-509 569.6,-493.26 587.24,-481.91 605.69,-473.73"/>
<polygon fill="#e67e22" stroke="#e67e22" stroke-width="2" points="607.02,-475.83 612.52,-470.85 605.12,-471.31 607.02,-475.83"/>
</g>
<!-- _private.L4YAML.Proofs.RoundTrip.0.L4YAML.Proofs.RoundTrip.isEscapedChar.match_1.eq_11 -->
<g id="node15" class="node">
<title>_private.L4YAML.Proofs.RoundTrip.0.L4YAML.Proofs.RoundTrip.isEscapedChar.match_1.eq_11</title>
<ellipse fill="#fdebd0" stroke="#e67e22" cx="272.07" cy="-412" rx="256.14" ry="18"/>
<text text-anchor="middle" x="272.07" y="-409.5" font-family="Helvetica" font-size="10.00">_private.L4YAML.Proofs.RoundTrip.0.L4YAML.Proofs.RoundTrip.isEscapedChar.match_1.eq_11</text>
</g>
<!-- _private.L4YAML.Proofs.RoundTrip.0.L4YAML.Proofs.RoundTrip.isEscapedChar.match_1.eq_11&#45;&gt;L4YAML.Proofs.RoundTrip.isEscapedChar.match_1 -->
<g id="edge27" class="edge">
<title>_private.L4YAML.Proofs.RoundTrip.0.L4YAML.Proofs.RoundTrip.isEscapedChar.match_1.eq_11&#45;&gt;L4YAML.Proofs.RoundTrip.isEscapedChar.match_1</title>
<path fill="none" stroke="#999999" stroke-dasharray="1,5" d="M505.65,-419.5C516.5,-424.81 526.76,-431.25 536.14,-439 561.17,-459.7 540.6,-481.04 557.14,-509 585.53,-557.01 634.13,-600.79 664.79,-625.64"/>
<polygon fill="#999999" stroke="#999999" points="663.81,-627.1 668.81,-628.87 666.01,-624.37 663.81,-627.1"/>
</g>
<!-- _private.L4YAML.Proofs.RoundTrip.0.L4YAML.Proofs.RoundTrip.isEscapedChar.match_1.eq_11&#45;&gt;L4YAML.Proofs.RoundTrip.escapeTag_roundtrip -->
<g id="edge13" class="edge">
<title>_private.L4YAML.Proofs.RoundTrip.0.L4YAML.Proofs.RoundTrip.isEscapedChar.match_1.eq_11&#45;&gt;L4YAML.Proofs.RoundTrip.escapeTag_roundtrip</title>
<path fill="none" stroke="#e67e22" stroke-width="2" d="M381.84,-395.71C432.44,-390.96 493.22,-389.32 547.14,-399 578.82,-404.69 612.61,-416.81 639.66,-428.14"/>
<polygon fill="#e67e22" stroke="#e67e22" stroke-width="2" points="638.99,-430.51 646.39,-430.99 640.9,-426 638.99,-430.51"/>
</g>
<!-- _private.L4YAML.Proofs.RoundTrip.0.L4YAML.Proofs.RoundTrip.isEscapedChar.match_1.eq_6 -->
<g id="node16" class="node">
<title>_private.L4YAML.Proofs.RoundTrip.0.L4YAML.Proofs.RoundTrip.isEscapedChar.match_1.eq_6</title>
<ellipse fill="#fdebd0" stroke="#e67e22" cx="272.07" cy="-358" rx="253.25" ry="18"/>
<text text-anchor="middle" x="272.07" y="-355.5" font-family="Helvetica" font-size="10.00">_private.L4YAML.Proofs.RoundTrip.0.L4YAML.Proofs.RoundTrip.isEscapedChar.match_1.eq_6</text>
</g>
<!-- _private.L4YAML.Proofs.RoundTrip.0.L4YAML.Proofs.RoundTrip.isEscapedChar.match_1.eq_6&#45;&gt;L4YAML.Proofs.RoundTrip.isEscapedChar.match_1 -->
<g id="edge20" class="edge">
<title>_private.L4YAML.Proofs.RoundTrip.0.L4YAML.Proofs.RoundTrip.isEscapedChar.match_1.eq_6&#45;&gt;L4YAML.Proofs.RoundTrip.isEscapedChar.match_1</title>
<path fill="none" stroke="#999999" stroke-dasharray="1,5" d="M507.67,-364.71C517.9,-370.25 527.48,-376.95 536.14,-385 577.08,-423.05 531.91,-459.12 557.14,-509 582.09,-558.34 631.02,-601.28 662.77,-625.66"/>
<polygon fill="#999999" stroke="#999999" points="661.9,-627.2 666.94,-628.83 664.02,-624.41 661.9,-627.2"/>
</g>
<!-- _private.L4YAML.Proofs.RoundTrip.0.L4YAML.Proofs.RoundTrip.isEscapedChar.match_1.eq_6&#45;&gt;L4YAML.Proofs.RoundTrip.escapeTag_roundtrip -->
<g id="edge14" class="edge">
<title>_private.L4YAML.Proofs.RoundTrip.0.L4YAML.Proofs.RoundTrip.isEscapedChar.match_1.eq_6&#45;&gt;L4YAML.Proofs.RoundTrip.escapeTag_roundtrip</title>
<path fill="none" stroke="#e67e22" stroke-width="2" d="M460.45,-370.08C486.11,-373.8 511.93,-378.66 536.14,-385 574.15,-394.95 614.79,-412.83 645.14,-427.76"/>
<polygon fill="#e67e22" stroke="#e67e22" stroke-width="2" points="644.1,-429.98 651.45,-430.9 646.28,-425.59 644.1,-429.98"/>
</g>
<!-- implies_congr -->
<g id="node17" class="node">
<title>implies_congr</title>
<ellipse fill="#fdebd0" stroke="#e67e22" cx="272.07" cy="-196" rx="45.15" ry="18"/>
<text text-anchor="middle" x="272.07" y="-193.5" font-family="Helvetica" font-size="10.00">implies_congr</text>
</g>
<!-- implies_congr&#45;&gt;L4YAML.Proofs.RoundTrip.escapeTag_roundtrip -->
<g id="edge15" class="edge">
<title>implies_congr&#45;&gt;L4YAML.Proofs.RoundTrip.escapeTag_roundtrip</title>
<path fill="none" stroke="#e67e22" stroke-width="2" d="M315.16,-189.99C370.09,-184.33 467.32,-181.97 536.14,-223 614.8,-269.9 662.84,-373.47 682.47,-424.06"/>
<polygon fill="#e67e22" stroke="#e67e22" stroke-width="2" points="680.27,-425.17 685.05,-430.83 684.85,-423.42 680.27,-425.17"/>
</g>
<!-- _private.L4YAML.Proofs.RoundTrip.0.L4YAML.Proofs.RoundTrip.isEscapedChar.match_1.eq_8 -->
<g id="node18" class="node">
<title>_private.L4YAML.Proofs.RoundTrip.0.L4YAML.Proofs.RoundTrip.isEscapedChar.match_1.eq_8</title>
<ellipse fill="#fdebd0" stroke="#e67e22" cx="272.07" cy="-520" rx="253.25" ry="18"/>
<text text-anchor="middle" x="272.07" y="-517.5" font-family="Helvetica" font-size="10.00">_private.L4YAML.Proofs.RoundTrip.0.L4YAML.Proofs.RoundTrip.isEscapedChar.match_1.eq_8</text>
</g>
<!-- _private.L4YAML.Proofs.RoundTrip.0.L4YAML.Proofs.RoundTrip.isEscapedChar.match_1.eq_8&#45;&gt;L4YAML.Proofs.RoundTrip.isEscapedChar.match_1 -->
<g id="edge31" class="edge">
<title>_private.L4YAML.Proofs.RoundTrip.0.L4YAML.Proofs.RoundTrip.isEscapedChar.match_1.eq_8&#45;&gt;L4YAML.Proofs.RoundTrip.isEscapedChar.match_1</title>
<path fill="none" stroke="#999999" stroke-dasharray="1,5" d="M362.3,-503.15C419.8,-497.84 491.84,-502.5 536.14,-547 552.2,-563.14 529.26,-633.7 546.14,-649 568.15,-668.96 600.57,-670.3 629.34,-665.85"/>
<polygon fill="#999999" stroke="#999999" points="629.64,-667.57 634.29,-665.02 629.07,-664.12 629.64,-667.57"/>
</g>
<!-- _private.L4YAML.Proofs.RoundTrip.0.L4YAML.Proofs.RoundTrip.isEscapedChar.match_1.eq_8&#45;&gt;L4YAML.Proofs.RoundTrip.escapeTag_roundtrip -->
<g id="edge16" class="edge">
<title>_private.L4YAML.Proofs.RoundTrip.0.L4YAML.Proofs.RoundTrip.isEscapedChar.match_1.eq_8&#45;&gt;L4YAML.Proofs.RoundTrip.escapeTag_roundtrip</title>
<path fill="none" stroke="#e67e22" stroke-width="2" d="M497.18,-511.65C510.84,-506.72 523.96,-500.59 536.14,-493 543.25,-488.57 539.16,-481.65 546.14,-477 551.58,-473.38 557.38,-470.24 563.41,-467.52"/>
<polygon fill="#e67e22" stroke="#e67e22" stroke-width="2" points="564.54,-469.71 570.04,-464.74 562.64,-465.19 564.54,-469.71"/>
</g>
<!-- _private.L4YAML.Proofs.RoundTrip.0.L4YAML.Proofs.RoundTrip.isEscapedChar.match_1.eq_1 -->
<g id="node19" class="node">
<title>_private.L4YAML.Proofs.RoundTrip.0.L4YAML.Proofs.RoundTrip.isEscapedChar.match_1.eq_1</title>
<ellipse fill="#fdebd0" stroke="#e67e22" cx="272.07" cy="-304" rx="253.25" ry="18"/>
<text text-anchor="middle" x="272.07" y="-301.5" font-family="Helvetica" font-size="10.00">_private.L4YAML.Proofs.RoundTrip.0.L4YAML.Proofs.RoundTrip.isEscapedChar.match_1.eq_1</text>
</g>
<!-- _private.L4YAML.Proofs.RoundTrip.0.L4YAML.Proofs.RoundTrip.isEscapedChar.match_1.eq_1&#45;&gt;L4YAML.Proofs.RoundTrip.isEscapedChar.match_1 -->
<g id="edge29" class="edge">
<title>_private.L4YAML.Proofs.RoundTrip.0.L4YAML.Proofs.RoundTrip.isEscapedChar.match_1.eq_1&#45;&gt;L4YAML.Proofs.RoundTrip.isEscapedChar.match_1</title>
<path fill="none" stroke="#999999" stroke-dasharray="1,5" d="M507.67,-310.71C517.9,-316.25 527.48,-322.95 536.14,-331 565.31,-358.11 540.49,-472.82 557.14,-509 580.18,-559.08 629.42,-601.67 661.79,-625.79"/>
<polygon fill="#999999" stroke="#999999" points="660.98,-627.37 666.04,-628.92 663.05,-624.55 660.98,-627.37"/>
</g>
<!-- _private.L4YAML.Proofs.RoundTrip.0.L4YAML.Proofs.RoundTrip.isEscapedChar.match_1.eq_1&#45;&gt;L4YAML.Proofs.RoundTrip.escapeTag_roundtrip -->
<g id="edge17" class="edge">
<title>_private.L4YAML.Proofs.RoundTrip.0.L4YAML.Proofs.RoundTrip.isEscapedChar.match_1.eq_1&#45;&gt;L4YAML.Proofs.RoundTrip.escapeTag_roundtrip</title>
<path fill="none" stroke="#e67e22" stroke-width="2" d="M480.75,-314.22C499.82,-318.45 518.56,-323.94 536.14,-331 588.82,-352.17 638.55,-396.62 667.31,-425.62"/>
<polygon fill="#e67e22" stroke="#e67e22" stroke-width="2" points="665.78,-427.56 672.43,-430.84 669.28,-424.13 665.78,-427.56"/>
</g>
<!-- _private.L4YAML.Proofs.RoundTrip.0.L4YAML.Proofs.RoundTrip.isEscapedChar.match_1.eq_7 -->
<g id="node20" class="node">
<title>_private.L4YAML.Proofs.RoundTrip.0.L4YAML.Proofs.RoundTrip.isEscapedChar.match_1.eq_7</title>
<ellipse fill="#fdebd0" stroke="#e67e22" cx="272.07" cy="-466" rx="253.25" ry="18"/>
<text text-anchor="middle" x="272.07" y="-463.5" font-family="Helvetica" font-size="10.00">_private.L4YAML.Proofs.RoundTrip.0.L4YAML.Proofs.RoundTrip.isEscapedChar.match_1.eq_7</text>
</g>
<!-- _private.L4YAML.Proofs.RoundTrip.0.L4YAML.Proofs.RoundTrip.isEscapedChar.match_1.eq_7&#45;&gt;L4YAML.Proofs.RoundTrip.isEscapedChar.match_1 -->
<g id="edge25" class="edge">
<title>_private.L4YAML.Proofs.RoundTrip.0.L4YAML.Proofs.RoundTrip.isEscapedChar.match_1.eq_7&#45;&gt;L4YAML.Proofs.RoundTrip.isEscapedChar.match_1</title>
<path fill="none" stroke="#999999" stroke-dasharray="1,5" d="M487.15,-475.51C504.12,-479.99 520.66,-485.72 536.14,-493 552.81,-500.84 633.56,-584.61 672.14,-625.2"/>
<polygon fill="#999999" stroke="#999999" points="671.02,-626.57 675.73,-628.99 673.56,-624.16 671.02,-626.57"/>
</g>
<!-- _private.L4YAML.Proofs.RoundTrip.0.L4YAML.Proofs.RoundTrip.isEscapedChar.match_1.eq_7&#45;&gt;L4YAML.Proofs.RoundTrip.escapeTag_roundtrip -->
<g id="edge18" class="edge">
<title>_private.L4YAML.Proofs.RoundTrip.0.L4YAML.Proofs.RoundTrip.isEscapedChar.match_1.eq_7&#45;&gt;L4YAML.Proofs.RoundTrip.escapeTag_roundtrip</title>
<path fill="none" stroke="#e67e22" stroke-width="2" d="M458.39,-453.79C488.06,-452.62 518.43,-451.9 547.14,-452 550.68,-452.01 554.27,-452.03 557.89,-452.04"/>
<polygon fill="#e67e22" stroke="#e67e22" stroke-width="2" points="557.89,-454.49 564.9,-452.07 557.91,-449.59 557.89,-454.49"/>
</g>
<!-- eq_false&#39; -->
<g id="node21" class="node">
<title>eq_false&#39;</title>
<ellipse fill="#fdebd0" stroke="#e67e22" cx="272.07" cy="-88" rx="32.93" ry="18"/>
<text text-anchor="middle" x="272.07" y="-85.5" font-family="Helvetica" font-size="10.00">eq_false&#39;</text>
</g>
<!-- eq_false&#39;&#45;&gt;L4YAML.Proofs.RoundTrip.escapeTag_roundtrip -->
<g id="edge19" class="edge">
<title>eq_false&#39;&#45;&gt;L4YAML.Proofs.RoundTrip.escapeTag_roundtrip</title>
<path fill="none" stroke="#e67e22" stroke-width="2" d="M303.6,-82.16C356.35,-73.86 465.68,-64.74 536.14,-115 642.31,-190.73 678.38,-356.88 688.91,-424.01"/>
<polygon fill="#e67e22" stroke="#e67e22" stroke-width="2" points="686.49,-424.39 689.97,-430.94 691.34,-423.65 686.49,-424.39"/>
</g>
</g>
</svg>
