<?xml version="1.0" encoding="UTF-8" standalone="no"?>
<!DOCTYPE svg PUBLIC "-//W3C//DTD SVG 1.1//EN"
 "http://www.w3.org/Graphics/SVG/1.1/DTD/svg11.dtd">
<!-- Generated by graphviz version 2.44.0 (0)
 -->
<!-- Title: foldQuotedNewlinesLoop.eq_def Pages: 1 -->
<svg width="673pt" height="526pt"
 viewBox="0.00 0.00 673.38 526.00" xmlns="http://www.w3.org/2000/svg" xmlns:xlink="http://www.w3.org/1999/xlink">
<g id="graph0" class="graph" transform="scale(1 1) rotate(0) translate(4 522)">
<title>foldQuotedNewlinesLoop.eq_def</title>
<polygon fill="white" stroke="transparent" points="-4,4 -4,-522 669.38,-522 669.38,4 -4,4"/>
<text text-anchor="middle" x="332.69" y="-503.6" font-family="Helvetica Bold" font-size="13.00">foldQuotedNewlinesLoop.eq_def</text>
<text text-anchor="middle" x="332.69" y="-489.6" font-family="Helvetica Bold" font-size="13.00">(heuristic: used by 10 proofs)</text>
<text text-anchor="middle" x="332.69" y="-475.6" font-family="Helvetica Bold" font-size="13.00">(L4YAML.Proofs.ScalarCoupling)</text>
<g id="clust1" class="cluster">
<title>cluster_functions</title>
<polygon fill="none" stroke="#4a90d9" stroke-dasharray="5,2" points="465.38,-8 465.38,-460 657.38,-460 657.38,-8 465.38,-8"/>
<text text-anchor="middle" x="561.38" y="-445.6" font-family="Helvetica Bold" font-size="13.00" fill="#4a90d9">Functions</text>
</g>
<g id="clust2" class="cluster">
<title>cluster_key</title>
<polygon fill="none" stroke="#d4a017" stroke-dasharray="5,2" points="139.19,-192 139.19,-274 420.38,-274 420.38,-192 139.19,-192"/>
<text text-anchor="middle" x="279.78" y="-259.6" font-family="Helvetica Bold" font-size="13.00" fill="#d4a017">Key Theorem</text>
</g>
<g id="clust4" class="cluster">
<title>cluster_stdlib</title>
<polygon fill="none" stroke="#e67e22" stroke-dasharray="5,2" points="8,-196 8,-270 118.19,-270 118.19,-196 8,-196"/>
<text text-anchor="middle" x="63.09" y="-255.6" font-family="Helvetica Bold" font-size="13.00" fill="#e67e22">Stdlib Lemmas</text>
</g>
<!-- L4YAML.CharPredicates.isLineBreakBool -->
<g id="node1" class="node">
<title>L4YAML.CharPredicates.isLineBreakBool</title>
<polygon fill="#dce9f7" stroke="#4a90d9" points="640.38,-430 482.38,-430 482.38,-394 640.38,-394 640.38,-430"/>
<text text-anchor="middle" x="561.38" y="-415" font-family="Helvetica" font-size="10.00">CharPredicates.isLineBreakBool</text>
<text text-anchor="middle" x="561.38" y="-404" font-family="Helvetica" font-size="10.00">(def)</text>
</g>
<!-- L4YAML.Scanner.foldQuotedNewlinesLoop -->
<g id="node2" class="node">
<title>L4YAML.Scanner.foldQuotedNewlinesLoop</title>
<polygon fill="#dce9f7" stroke="#4a90d9" points="623.88,-376 498.88,-376 498.88,-340 623.88,-340 623.88,-376"/>
<text text-anchor="middle" x="561.38" y="-361" font-family="Helvetica" font-size="10.00">foldQuotedNewlinesLoop</text>
<text text-anchor="middle" x="561.38" y="-350" font-family="Helvetica" font-size="10.00">(def)</text>
</g>
<!-- L4YAML.Scanner.consumeNewline -->
<g id="node3" class="node">
<title>L4YAML.Scanner.consumeNewline</title>
<polygon fill="#dce9f7" stroke="#4a90d9" points="607.38,-322 515.38,-322 515.38,-286 607.38,-286 607.38,-322"/>
<text text-anchor="middle" x="561.38" y="-307" font-family="Helvetica" font-size="10.00">consumeNewline</text>
<text text-anchor="middle" x="561.38" y="-296" font-family="Helvetica" font-size="10.00">(def)</text>
</g>
<!-- L4YAML.Scanner.ScannerState.peek? -->
<g id="node4" class="node">
<title>L4YAML.Scanner.ScannerState.peek?</title>
<polygon fill="#dce9f7" stroke="#4a90d9" points="613.38,-268 509.38,-268 509.38,-232 613.38,-232 613.38,-268"/>
<text text-anchor="middle" x="561.38" y="-253" font-family="Helvetica" font-size="10.00">ScannerState.peek?</text>
<text text-anchor="middle" x="561.38" y="-242" font-family="Helvetica" font-size="10.00">(def)</text>
</g>
<!-- L4YAML.Scanner.skipSpaces -->
<g id="node5" class="node">
<title>L4YAML.Scanner.skipSpaces</title>
<polygon fill="#dce9f7" stroke="#4a90d9" points="595.38,-214 527.38,-214 527.38,-178 595.38,-178 595.38,-214"/>
<text text-anchor="middle" x="561.38" y="-199" font-family="Helvetica" font-size="10.00">skipSpaces</text>
<text text-anchor="middle" x="561.38" y="-188" font-family="Helvetica" font-size="10.00">(def)</text>
</g>
<!-- L4YAML.Scanner.skipWhitespaceLoop.match_1 -->
<g id="node6" class="node">
<title>L4YAML.Scanner.skipWhitespaceLoop.match_1</title>
<polygon fill="#dce9f7" stroke="#4a90d9" points="635.38,-160 487.38,-160 487.38,-124 635.38,-124 635.38,-160"/>
<text text-anchor="middle" x="561.38" y="-145" font-family="Helvetica" font-size="10.00">skipWhitespaceLoop.match_1</text>
<text text-anchor="middle" x="561.38" y="-134" font-family="Helvetica" font-size="10.00">(def)</text>
</g>
<!-- L4YAML.Scanner.ScannerState -->
<g id="node7" class="node">
<title>L4YAML.Scanner.ScannerState</title>
<polygon fill="#dce9f7" stroke="#4a90d9" points="599.38,-106 523.38,-106 523.38,-70 599.38,-70 599.38,-106"/>
<text text-anchor="middle" x="561.38" y="-91" font-family="Helvetica" font-size="10.00">ScannerState</text>
<text text-anchor="middle" x="561.38" y="-80" font-family="Helvetica" font-size="10.00">(inductive)</text>
</g>
<!-- L4YAML.Scanner.ScannerState.peekAt?Loop.match_1 -->
<g id="node8" class="node">
<title>L4YAML.Scanner.ScannerState.peekAt?Loop.match_1</title>
<polygon fill="#dce9f7" stroke="#4a90d9" points="649.38,-52 473.38,-52 473.38,-16 649.38,-16 649.38,-52"/>
<text text-anchor="middle" x="561.38" y="-37" font-family="Helvetica" font-size="10.00">ScannerState.peekAt?Loop.match_1</text>
<text text-anchor="middle" x="561.38" y="-26" font-family="Helvetica" font-size="10.00">(def)</text>
</g>
<!-- L4YAML.Scanner.foldQuotedNewlinesLoop.eq_def -->
<g id="node9" class="node">
<title>L4YAML.Scanner.foldQuotedNewlinesLoop.eq_def</title>
<polygon fill="#fff3cd" stroke="#d4a017" points="408.47,-214.54 408.47,-229.46 333.09,-240 226.48,-240 151.09,-229.46 151.09,-214.54 226.48,-204 333.09,-204 408.47,-214.54"/>
<polygon fill="none" stroke="#d4a017" points="412.48,-211.07 412.48,-232.93 333.37,-244 226.2,-244 147.09,-232.93 147.09,-211.07 226.2,-200 333.37,-200 412.48,-211.07"/>
<text text-anchor="middle" x="279.78" y="-218.9" font-family="Helvetica" font-size="12.00">foldQuotedNewlinesLoop.eq_def</text>
</g>
<!-- L4YAML.Scanner.foldQuotedNewlinesLoop.eq_def&#45;&gt;L4YAML.CharPredicates.isLineBreakBool -->
<g id="edge3" class="edge">
<title>L4YAML.Scanner.foldQuotedNewlinesLoop.eq_def&#45;&gt;L4YAML.CharPredicates.isLineBreakBool</title>
<path fill="none" stroke="#4a90d9" stroke-width="2" d="M299.74,-244.19C330.83,-279.21 396.16,-347.17 465.38,-385 469.53,-387.26 473.88,-389.36 478.35,-391.28"/>
<polygon fill="#4a90d9" stroke="#4a90d9" stroke-width="2" points="477.56,-393.61 484.96,-393.99 479.41,-389.07 477.56,-393.61"/>
<text text-anchor="middle" x="442.88" y="-380.6" font-family="Times-Roman" font-size="8.00" fill="#4a90d9">about</text>
</g>
<!-- L4YAML.Scanner.foldQuotedNewlinesLoop.eq_def&#45;&gt;L4YAML.Scanner.foldQuotedNewlinesLoop -->
<g id="edge7" class="edge">
<title>L4YAML.Scanner.foldQuotedNewlinesLoop.eq_def&#45;&gt;L4YAML.Scanner.foldQuotedNewlinesLoop</title>
<path fill="none" stroke="#4a90d9" stroke-width="2" d="M312.46,-244.13C348.2,-268.28 408.77,-306.72 465.38,-331 473.79,-334.61 482.83,-337.89 491.86,-340.81"/>
<polygon fill="#4a90d9" stroke="#4a90d9" stroke-width="2" points="491.35,-343.22 498.76,-342.98 492.82,-338.55 491.35,-343.22"/>
<text text-anchor="middle" x="442.88" y="-328.6" font-family="Times-Roman" font-size="8.00" fill="#4a90d9">about</text>
</g>
<!-- L4YAML.Scanner.foldQuotedNewlinesLoop.eq_def&#45;&gt;L4YAML.Scanner.consumeNewline -->
<g id="edge5" class="edge">
<title>L4YAML.Scanner.foldQuotedNewlinesLoop.eq_def&#45;&gt;L4YAML.Scanner.consumeNewline</title>
<path fill="none" stroke="#4a90d9" stroke-width="2" d="M347.37,-242.06C382.45,-252.57 426.21,-265.6 465.38,-277 479.25,-281.04 494.27,-285.34 508.19,-289.3"/>
<polygon fill="#4a90d9" stroke="#4a90d9" stroke-width="2" points="507.52,-291.65 514.92,-291.21 508.86,-286.94 507.52,-291.65"/>
<text text-anchor="middle" x="442.88" y="-274.6" font-family="Times-Roman" font-size="8.00" fill="#4a90d9">about</text>
</g>
<!-- L4YAML.Scanner.foldQuotedNewlinesLoop.eq_def&#45;&gt;L4YAML.Scanner.ScannerState.peek? -->
<g id="edge8" class="edge">
<title>L4YAML.Scanner.foldQuotedNewlinesLoop.eq_def&#45;&gt;L4YAML.Scanner.ScannerState.peek?</title>
<path fill="none" stroke="#4a90d9" stroke-width="2" d="M403.42,-234.28C437.78,-237.72 473.54,-241.3 502.23,-244.18"/>
<polygon fill="#4a90d9" stroke="#4a90d9" stroke-width="2" points="502.16,-246.63 509.37,-244.89 502.65,-241.76 502.16,-246.63"/>
<text text-anchor="middle" x="442.88" y="-241.6" font-family="Times-Roman" font-size="8.00" fill="#4a90d9">about</text>
</g>
<!-- L4YAML.Scanner.foldQuotedNewlinesLoop.eq_def&#45;&gt;L4YAML.Scanner.skipSpaces -->
<g id="edge2" class="edge">
<title>L4YAML.Scanner.foldQuotedNewlinesLoop.eq_def&#45;&gt;L4YAML.Scanner.skipSpaces</title>
<path fill="none" stroke="#4a90d9" stroke-width="2" d="M407.08,-210.26C447.78,-206.47 490.01,-202.54 519.81,-199.77"/>
<polygon fill="#4a90d9" stroke="#4a90d9" stroke-width="2" points="520.37,-202.18 527.11,-199.09 519.92,-197.3 520.37,-202.18"/>
<text text-anchor="middle" x="442.88" y="-209.6" font-family="Times-Roman" font-size="8.00" fill="#4a90d9">about</text>
</g>
<!-- L4YAML.Scanner.foldQuotedNewlinesLoop.eq_def&#45;&gt;L4YAML.Scanner.skipWhitespaceLoop.match_1 -->
<g id="edge6" class="edge">
<title>L4YAML.Scanner.foldQuotedNewlinesLoop.eq_def&#45;&gt;L4YAML.Scanner.skipWhitespaceLoop.match_1</title>
<path fill="none" stroke="#4a90d9" stroke-width="2" d="M349.58,-202.2C384.3,-192.22 427.07,-179.94 465.38,-169 473.3,-166.74 481.6,-164.37 489.84,-162.02"/>
<polygon fill="#4a90d9" stroke="#4a90d9" stroke-width="2" points="490.69,-164.33 496.75,-160.06 489.35,-159.62 490.69,-164.33"/>
<text text-anchor="middle" x="442.88" y="-179.6" font-family="Times-Roman" font-size="8.00" fill="#4a90d9">about</text>
</g>
<!-- L4YAML.Scanner.foldQuotedNewlinesLoop.eq_def&#45;&gt;L4YAML.Scanner.ScannerState -->
<g id="edge4" class="edge">
<title>L4YAML.Scanner.foldQuotedNewlinesLoop.eq_def&#45;&gt;L4YAML.Scanner.ScannerState</title>
<path fill="none" stroke="#4a90d9" stroke-width="2" d="M313.17,-199.88C349.06,-176.19 409.28,-138.79 465.38,-115 481.54,-108.15 499.97,-102.46 516.27,-98.1"/>
<polygon fill="#4a90d9" stroke="#4a90d9" stroke-width="2" points="516.95,-100.45 523.11,-96.31 515.72,-95.71 516.95,-100.45"/>
<text text-anchor="middle" x="442.88" y="-131.6" font-family="Times-Roman" font-size="8.00" fill="#4a90d9">about</text>
</g>
<!-- L4YAML.Scanner.foldQuotedNewlinesLoop.eq_def&#45;&gt;L4YAML.Scanner.ScannerState.peekAt?Loop.match_1 -->
<g id="edge1" class="edge">
<title>L4YAML.Scanner.foldQuotedNewlinesLoop.eq_def&#45;&gt;L4YAML.Scanner.ScannerState.peekAt?Loop.match_1</title>
<path fill="none" stroke="#4a90d9" stroke-width="2" d="M300.05,-199.81C331.33,-165.16 396.6,-98.31 465.38,-61 469.53,-58.75 473.89,-56.67 478.36,-54.75"/>
<polygon fill="#4a90d9" stroke="#4a90d9" stroke-width="2" points="479.43,-56.96 484.99,-52.05 477.58,-52.42 479.43,-56.96"/>
<text text-anchor="middle" x="442.88" y="-83.6" font-family="Times-Roman" font-size="8.00" fill="#4a90d9">about</text>
</g>
<!-- Nat.brecOn.eq -->
<g id="node10" class="node">
<title>Nat.brecOn.eq</title>
<ellipse fill="#fdebd0" stroke="#e67e22" cx="63.09" cy="-222" rx="47.19" ry="18"/>
<text text-anchor="middle" x="63.09" y="-219.5" font-family="Helvetica" font-size="10.00">Nat.brecOn.eq</text>
</g>
<!-- Nat.brecOn.eq&#45;&gt;L4YAML.Scanner.foldQuotedNewlinesLoop.eq_def -->
<g id="edge9" class="edge">
<title>Nat.brecOn.eq&#45;&gt;L4YAML.Scanner.foldQuotedNewlinesLoop.eq_def</title>
<path fill="none" stroke="#e67e22" stroke-width="2" d="M110.41,-222C119.43,-222 129.3,-222 139.6,-222"/>
<polygon fill="#e67e22" stroke="#e67e22" stroke-width="2" points="139.8,-224.45 146.8,-222 139.8,-219.55 139.8,-224.45"/>
</g>
</g>
</svg>
