<?xml version="1.0" encoding="UTF-8" standalone="no"?>
<!DOCTYPE svg PUBLIC "-//W3C//DTD SVG 1.1//EN"
 "http://www.w3.org/Graphics/SVG/1.1/DTD/svg11.dtd">
<!-- Generated by graphviz version 2.44.0 (0)
 -->
<!-- Title: Soundness.nodeToValue_deterministic Pages: 1 -->
<svg width="874pt" height="346pt"
 viewBox="0.00 0.00 873.55 346.00" xmlns="http://www.w3.org/2000/svg" xmlns:xlink="http://www.w3.org/1999/xlink">
<g id="graph0" class="graph" transform="scale(1 1) rotate(0) translate(4 342)">
<title>Soundness.nodeToValue_deterministic</title>
<polygon fill="white" stroke="transparent" points="-4,4 -4,-342 869.55,-342 869.55,4 -4,4"/>
<text text-anchor="middle" x="432.78" y="-323.6" font-family="Helvetica Bold" font-size="13.00">Soundness.nodeToValue_deterministic</text>
<text text-anchor="middle" x="432.78" y="-309.6" font-family="Helvetica Bold" font-size="13.00">AST&#45;to&#45;value conversion is deterministic</text>
<text text-anchor="middle" x="432.78" y="-295.6" font-family="Helvetica Bold" font-size="13.00">(L4YAML.Proofs.Soundness)</text>
<g id="clust1" class="cluster">
<title>cluster_functions</title>
<polygon fill="none" stroke="#4a90d9" stroke-dasharray="5,2" points="451.63,-98 451.63,-280 857.55,-280 857.55,-98 451.63,-98"/>
<text text-anchor="middle" x="654.59" y="-265.6" font-family="Helvetica Bold" font-size="13.00" fill="#4a90d9">Functions</text>
</g>
<g id="clust2" class="cluster">
<title>cluster_key</title>
<polygon fill="none" stroke="#d4a017" stroke-dasharray="5,2" points="354.71,-8 354.71,-90 678.55,-90 678.55,-8 354.71,-8"/>
<text text-anchor="middle" x="516.63" y="-75.6" font-family="Helvetica Bold" font-size="13.00" fill="#d4a017">Key Theorem</text>
</g>
<g id="clust3" class="cluster">
<title>cluster_proofs</title>
<polygon fill="none" stroke="#28a745" stroke-dasharray="5,2" points="8,-119 8,-199 333.71,-199 333.71,-119 8,-119"/>
<text text-anchor="middle" x="170.86" y="-184.6" font-family="Helvetica Bold" font-size="13.00" fill="#28a745">Proof Dependencies</text>
</g>
<!-- L4YAML.YamlValue -->
<g id="node1" class="node">
<title>L4YAML.YamlValue</title>
<g id="a_node1"><a xlink:href="../../../api/L4YAML/Types.html#L4YAML.YamlValue" xlink:title="YamlValue\n(inductive)" target="_blank">
<polygon fill="#dce9f7" stroke="#4a90d9" points="821.55,-250 759.55,-250 759.55,-214 821.55,-214 821.55,-250"/>
<text text-anchor="middle" x="790.55" y="-235" font-family="Helvetica" font-size="10.00">YamlValue</text>
<text text-anchor="middle" x="790.55" y="-224" font-family="Helvetica" font-size="10.00">(inductive)</text>
</a>
</g>
</g>
<!-- L4YAML.Grammar.ValidNode -->
<g id="node2" class="node">
<title>L4YAML.Grammar.ValidNode</title>
<g id="a_node2"><a xlink:href="../../../api/L4YAML/Grammar.html#L4YAML.Grammar.ValidNode" xlink:title="Grammar.ValidNode\n(inductive)" target="_blank">
<polygon fill="#dce9f7" stroke="#4a90d9" points="842.55,-196 738.55,-196 738.55,-160 842.55,-160 842.55,-196"/>
<text text-anchor="middle" x="790.55" y="-181" font-family="Helvetica" font-size="10.00">Grammar.ValidNode</text>
<text text-anchor="middle" x="790.55" y="-170" font-family="Helvetica" font-size="10.00">(inductive)</text>
</a>
</g>
</g>
<!-- L4YAML.Grammar.NodeToValue -->
<g id="node3" class="node">
<title>L4YAML.Grammar.NodeToValue</title>
<g id="a_node3"><a xlink:href="../../../api/L4YAML/Grammar.html#L4YAML.Grammar.NodeToValue" xlink:title="Grammar.NodeToValue\n(inductive)" target="_blank">
<polygon fill="#dce9f7" stroke="#4a90d9" points="849.55,-142 731.55,-142 731.55,-106 849.55,-106 849.55,-142"/>
<text text-anchor="middle" x="790.55" y="-127" font-family="Helvetica" font-size="10.00">Grammar.NodeToValue</text>
<text text-anchor="middle" x="790.55" y="-116" font-family="Helvetica" font-size="10.00">(inductive)</text>
</a>
</g>
</g>
<!-- L4YAML.Grammar.toYamlValue -->
<g id="node4" class="node">
<title>L4YAML.Grammar.toYamlValue</title>
<g id="a_node4"><a xlink:href="../../../api/L4YAML/Grammar.html#L4YAML.Grammar.toYamlValue" xlink:title="Grammar.toYamlValue\n(def)" target="_blank">
<polygon fill="#dce9f7" stroke="#4a90d9" points="573.63,-250 459.63,-250 459.63,-214 573.63,-214 573.63,-250"/>
<text text-anchor="middle" x="516.63" y="-235" font-family="Helvetica" font-size="10.00">Grammar.toYamlValue</text>
<text text-anchor="middle" x="516.63" y="-224" font-family="Helvetica" font-size="10.00">(def)</text>
</a>
</g>
</g>
<!-- L4YAML.Proofs.Soundness.nodeToValue_deterministic -->
<g id="node5" class="node">
<title>L4YAML.Proofs.Soundness.nodeToValue_deterministic</title>
<g id="a_node5"><a xlink:href="../../../api/L4YAML/Proofs/Soundness.html#L4YAML.Proofs.Soundness.nodeToValue_deterministic" xlink:title="Soundness.nodeToValue_deterministic" target="_blank">
<polygon fill="#fff3cd" stroke="#d4a017" points="666.47,-30.54 666.47,-45.46 578.7,-56 454.57,-56 366.79,-45.46 366.79,-30.54 454.57,-20 578.7,-20 666.47,-30.54"/>
<polygon fill="none" stroke="#d4a017" points="670.47,-27 670.47,-49 578.94,-60 454.33,-60 362.79,-49 362.79,-27 454.33,-16 578.94,-16 670.47,-27"/>
<text text-anchor="middle" x="516.63" y="-34.9" font-family="Helvetica" font-size="12.00">Soundness.nodeToValue_deterministic</text>
</a>
</g>
</g>
<!-- L4YAML.Proofs.Soundness.nodeToValue_deterministic&#45;&gt;L4YAML.YamlValue -->
<g id="edge3" class="edge">
<title>L4YAML.Proofs.Soundness.nodeToValue_deterministic&#45;&gt;L4YAML.YamlValue</title>
<path fill="none" stroke="#4a90d9" stroke-width="2" d="M609.95,-56.4C634.38,-64.72 659.27,-76.73 678.55,-94 686.25,-100.9 683.94,-105.75 688.55,-115 699.28,-136.53 703.25,-141.26 713.55,-163 722.25,-181.35 717.41,-190.42 731.55,-205 737.53,-211.17 745.19,-216.07 752.97,-219.92"/>
<polygon fill="#4a90d9" stroke="#4a90d9" stroke-width="2" points="752.12,-222.22 759.5,-222.9 754.15,-217.76 752.12,-222.22"/>
<text text-anchor="middle" x="701.05" y="-165.6" font-family="Times-Roman" font-size="8.00" fill="#4a90d9">about</text>
</g>
<!-- L4YAML.Proofs.Soundness.nodeToValue_deterministic&#45;&gt;L4YAML.Grammar.ValidNode -->
<g id="edge1" class="edge">
<title>L4YAML.Proofs.Soundness.nodeToValue_deterministic&#45;&gt;L4YAML.Grammar.ValidNode</title>
<path fill="none" stroke="#4a90d9" stroke-width="2" d="M618.21,-55.28C651.92,-65.32 687.51,-81.14 713.55,-106 729.13,-120.87 716.75,-135.35 731.55,-151 733.02,-152.55 734.59,-154.02 736.25,-155.41"/>
<polygon fill="#4a90d9" stroke="#4a90d9" stroke-width="2" points="735.09,-157.61 742.16,-159.85 738.04,-153.69 735.09,-157.61"/>
<text text-anchor="middle" x="701.05" y="-108.6" font-family="Times-Roman" font-size="8.00" fill="#4a90d9">about</text>
</g>
<!-- L4YAML.Proofs.Soundness.nodeToValue_deterministic&#45;&gt;L4YAML.Grammar.NodeToValue -->
<g id="edge2" class="edge">
<title>L4YAML.Proofs.Soundness.nodeToValue_deterministic&#45;&gt;L4YAML.Grammar.NodeToValue</title>
<path fill="none" stroke="#4a90d9" stroke-width="2" d="M670.53,-33.85C685.43,-36.74 700.02,-40.98 713.55,-47 738.68,-58.19 759.93,-81.77 773.51,-99.91"/>
<polygon fill="#4a90d9" stroke="#4a90d9" stroke-width="2" points="771.72,-101.61 777.82,-105.83 775.68,-98.73 771.72,-101.61"/>
<text text-anchor="middle" x="701.05" y="-49.6" font-family="Times-Roman" font-size="8.00" fill="#4a90d9">about</text>
</g>
<!-- L4YAML.Proofs.Soundness.nodeToValue_implies_toYamlValue -->
<g id="node6" class="node">
<title>L4YAML.Proofs.Soundness.nodeToValue_implies_toYamlValue</title>
<g id="a_node6"><a xlink:href="../../../api/L4YAML/Proofs/Soundness.html#L4YAML.Proofs.Soundness.nodeToValue_implies_toYamlValue" xlink:title="Soundness.nodeToValue_implies_toYamlValue\n(Soundness)" target="_blank">
<ellipse fill="#d4edda" stroke="#28a745" cx="170.86" cy="-148" rx="154.71" ry="21.43"/>
<text text-anchor="middle" x="170.86" y="-151" font-family="Helvetica" font-size="10.00">Soundness.nodeToValue_implies_toYamlValue</text>
<text text-anchor="middle" x="170.86" y="-140" font-family="Helvetica" font-size="10.00">(Soundness)</text>
</a>
</g>
</g>
<!-- L4YAML.Proofs.Soundness.nodeToValue_implies_toYamlValue&#45;&gt;L4YAML.YamlValue -->
<g id="edge8" class="edge">
<title>L4YAML.Proofs.Soundness.nodeToValue_implies_toYamlValue&#45;&gt;L4YAML.YamlValue</title>
<path fill="none" stroke="#999999" stroke-dasharray="1,5" d="M281.54,-162.92C305.63,-166.05 331.02,-169.24 354.71,-172 498.41,-188.75 535.96,-180.51 678.55,-205 704.07,-209.38 732.42,-216.32 754.09,-222.06"/>
<polygon fill="#999999" stroke="#999999" points="753.88,-223.81 759.16,-223.42 754.78,-220.43 753.88,-223.81"/>
</g>
<!-- L4YAML.Proofs.Soundness.nodeToValue_implies_toYamlValue&#45;&gt;L4YAML.Grammar.ValidNode -->
<g id="edge5" class="edge">
<title>L4YAML.Proofs.Soundness.nodeToValue_implies_toYamlValue&#45;&gt;L4YAML.Grammar.ValidNode</title>
<path fill="none" stroke="#999999" stroke-dasharray="1,5" d="M317.94,-154.66C419.17,-159.34 557.07,-165.84 678.55,-172 696.28,-172.9 715.6,-173.93 733.08,-174.87"/>
<polygon fill="#999999" stroke="#999999" points="733.35,-176.64 738.44,-175.17 733.54,-173.15 733.35,-176.64"/>
</g>
<!-- L4YAML.Proofs.Soundness.nodeToValue_implies_toYamlValue&#45;&gt;L4YAML.Grammar.NodeToValue -->
<g id="edge7" class="edge">
<title>L4YAML.Proofs.Soundness.nodeToValue_implies_toYamlValue&#45;&gt;L4YAML.Grammar.NodeToValue</title>
<path fill="none" stroke="#999999" stroke-dasharray="1,5" d="M302.72,-136.86C316.55,-135.83 330.42,-134.85 343.71,-134 496.83,-124.21 535.17,-121.56 688.55,-118 699.66,-117.74 702.45,-117.56 713.55,-118 717.73,-118.16 722.04,-118.38 726.38,-118.63"/>
<polygon fill="#999999" stroke="#999999" points="726.39,-120.39 731.49,-118.94 726.6,-116.89 726.39,-120.39"/>
</g>
<!-- L4YAML.Proofs.Soundness.nodeToValue_implies_toYamlValue&#45;&gt;L4YAML.Grammar.toYamlValue -->
<g id="edge6" class="edge">
<title>L4YAML.Proofs.Soundness.nodeToValue_implies_toYamlValue&#45;&gt;L4YAML.Grammar.toYamlValue</title>
<path fill="none" stroke="#999999" stroke-dasharray="1,5" d="M231.06,-167.67C263.99,-178.16 305.85,-190.78 343.71,-200 380.11,-208.87 421.37,-216.62 454.34,-222.27"/>
<polygon fill="#999999" stroke="#999999" points="454.33,-224.05 459.55,-223.16 454.92,-220.6 454.33,-224.05"/>
</g>
<!-- L4YAML.Proofs.Soundness.nodeToValue_implies_toYamlValue&#45;&gt;L4YAML.Proofs.Soundness.nodeToValue_deterministic -->
<g id="edge4" class="edge">
<title>L4YAML.Proofs.Soundness.nodeToValue_implies_toYamlValue&#45;&gt;L4YAML.Proofs.Soundness.nodeToValue_deterministic</title>
<path fill="none" stroke="#28a745" d="M232.92,-128.46C291.37,-109.76 379.64,-81.51 441.97,-61.57"/>
<polygon fill="#28a745" stroke="#28a745" points="442.75,-63.89 448.67,-59.42 441.26,-59.22 442.75,-63.89"/>
</g>
</g>
</svg>
