<?xml version="1.0" encoding="UTF-8" standalone="no"?>
<!DOCTYPE svg PUBLIC "-//W3C//DTD SVG 1.1//EN"
 "http://www.w3.org/Graphics/SVG/1.1/DTD/svg11.dtd">
<!-- Generated by graphviz version 2.44.0 (0)
 -->
<!-- Title: NodeProduction.flowContent_flowNode Pages: 1 -->
<svg width="529pt" height="310pt"
 viewBox="0.00 0.00 528.84 310.00" xmlns="http://www.w3.org/2000/svg" xmlns:xlink="http://www.w3.org/1999/xlink">
<g id="graph0" class="graph" transform="scale(1 1) rotate(0) translate(4 306)">
<title>NodeProduction.flowContent_flowNode</title>
<polygon fill="white" stroke="transparent" points="-4,4 -4,-306 524.84,-306 524.84,4 -4,4"/>
<text text-anchor="middle" x="260.42" y="-287.6" font-family="Helvetica Bold" font-size="13.00">NodeProduction.flowContent_flowNode</text>
<text text-anchor="middle" x="260.42" y="-273.6" font-family="Helvetica Bold" font-size="13.00">(heuristic: used by 5 proofs)</text>
<text text-anchor="middle" x="260.42" y="-259.6" font-family="Helvetica Bold" font-size="13.00">(L4YAML.Proofs.NodeProduction)</text>
<g id="clust1" class="cluster">
<title>cluster_functions</title>
<polygon fill="none" stroke="#4a90d9" stroke-dasharray="5,2" points="380.84,-8 380.84,-244 512.84,-244 512.84,-8 380.84,-8"/>
<text text-anchor="middle" x="446.84" y="-229.6" font-family="Helvetica Bold" font-size="13.00" fill="#4a90d9">Functions</text>
</g>
<g id="clust2" class="cluster">
<title>cluster_key</title>
<polygon fill="none" stroke="#d4a017" stroke-dasharray="5,2" points="8,-84 8,-166 335.84,-166 335.84,-84 8,-84"/>
<text text-anchor="middle" x="171.92" y="-151.6" font-family="Helvetica Bold" font-size="13.00" fill="#d4a017">Key Theorem</text>
</g>
<!-- L4YAML.Surface.SFlowContent -->
<g id="node1" class="node">
<title>L4YAML.Surface.SFlowContent</title>
<polygon fill="#dce9f7" stroke="#4a90d9" points="504.84,-214 388.84,-214 388.84,-178 504.84,-178 504.84,-214"/>
<text text-anchor="middle" x="446.84" y="-199" font-family="Helvetica" font-size="10.00">Surface.SFlowContent</text>
<text text-anchor="middle" x="446.84" y="-188" font-family="Helvetica" font-size="10.00">(inductive)</text>
</g>
<!-- L4YAML.YamlContext -->
<g id="node2" class="node">
<title>L4YAML.YamlContext</title>
<polygon fill="#dce9f7" stroke="#4a90d9" points="483.34,-160 410.34,-160 410.34,-124 483.34,-124 483.34,-160"/>
<text text-anchor="middle" x="446.84" y="-145" font-family="Helvetica" font-size="10.00">YamlContext</text>
<text text-anchor="middle" x="446.84" y="-134" font-family="Helvetica" font-size="10.00">(inductive)</text>
</g>
<!-- L4YAML.Surface.SFlowNode -->
<g id="node3" class="node">
<title>L4YAML.Surface.SFlowNode</title>
<polygon fill="#dce9f7" stroke="#4a90d9" points="499.34,-106 394.34,-106 394.34,-70 499.34,-70 499.34,-106"/>
<text text-anchor="middle" x="446.84" y="-91" font-family="Helvetica" font-size="10.00">Surface.SFlowNode</text>
<text text-anchor="middle" x="446.84" y="-80" font-family="Helvetica" font-size="10.00">(inductive)</text>
</g>
<!-- L4YAML.Surface.SurfPos -->
<g id="node4" class="node">
<title>L4YAML.Surface.SurfPos</title>
<polygon fill="#dce9f7" stroke="#4a90d9" points="491.84,-52 401.84,-52 401.84,-16 491.84,-16 491.84,-52"/>
<text text-anchor="middle" x="446.84" y="-37" font-family="Helvetica" font-size="10.00">Surface.SurfPos</text>
<text text-anchor="middle" x="446.84" y="-26" font-family="Helvetica" font-size="10.00">(inductive)</text>
</g>
<!-- L4YAML.Proofs.NodeProduction.flowContent_flowNode -->
<g id="node5" class="node">
<title>L4YAML.Proofs.NodeProduction.flowContent_flowNode</title>
<polygon fill="#fff3cd" stroke="#d4a017" points="323.76,-106.54 323.76,-121.46 234.81,-132 109.02,-132 20.08,-121.46 20.08,-106.54 109.02,-96 234.81,-96 323.76,-106.54"/>
<polygon fill="none" stroke="#d4a017" points="327.75,-102.99 327.75,-125.01 235.05,-136 108.79,-136 16.08,-125.01 16.08,-102.99 108.79,-92 235.05,-92 327.75,-102.99"/>
<text text-anchor="middle" x="171.92" y="-110.9" font-family="Helvetica" font-size="12.00">NodeProduction.flowContent_flowNode</text>
</g>
<!-- L4YAML.Proofs.NodeProduction.flowContent_flowNode&#45;&gt;L4YAML.Surface.SFlowContent -->
<g id="edge3" class="edge">
<title>L4YAML.Proofs.NodeProduction.flowContent_flowNode&#45;&gt;L4YAML.Surface.SFlowContent</title>
<path fill="none" stroke="#4a90d9" stroke-width="2" d="M243.2,-135.12C285.99,-147.97 340.23,-164.27 381.82,-176.77"/>
<polygon fill="#4a90d9" stroke="#4a90d9" stroke-width="2" points="381.24,-179.15 388.65,-178.82 382.65,-174.46 381.24,-179.15"/>
<text text-anchor="middle" x="358.34" y="-173.6" font-family="Times-Roman" font-size="8.00" fill="#4a90d9">about</text>
</g>
<!-- L4YAML.Proofs.NodeProduction.flowContent_flowNode&#45;&gt;L4YAML.YamlContext -->
<g id="edge1" class="edge">
<title>L4YAML.Proofs.NodeProduction.flowContent_flowNode&#45;&gt;L4YAML.YamlContext</title>
<path fill="none" stroke="#4a90d9" stroke-width="2" d="M305.78,-127.63C340.97,-131.24 376.48,-134.88 402.94,-137.6"/>
<polygon fill="#4a90d9" stroke="#4a90d9" stroke-width="2" points="402.94,-140.06 410.15,-138.34 403.44,-135.19 402.94,-140.06"/>
<text text-anchor="middle" x="358.34" y="-135.6" font-family="Times-Roman" font-size="8.00" fill="#4a90d9">about</text>
</g>
<!-- L4YAML.Proofs.NodeProduction.flowContent_flowNode&#45;&gt;L4YAML.Surface.SFlowNode -->
<g id="edge2" class="edge">
<title>L4YAML.Proofs.NodeProduction.flowContent_flowNode&#45;&gt;L4YAML.Surface.SFlowNode</title>
<path fill="none" stroke="#4a90d9" stroke-width="2" d="M310.58,-100.89C337.47,-98.32 364.31,-95.77 386.9,-93.61"/>
<polygon fill="#4a90d9" stroke="#4a90d9" stroke-width="2" points="387.34,-96.03 394.08,-92.93 386.88,-91.16 387.34,-96.03"/>
<text text-anchor="middle" x="358.34" y="-99.6" font-family="Times-Roman" font-size="8.00" fill="#4a90d9">about</text>
</g>
<!-- L4YAML.Proofs.NodeProduction.flowContent_flowNode&#45;&gt;L4YAML.Surface.SurfPos -->
<g id="edge4" class="edge">
<title>L4YAML.Proofs.NodeProduction.flowContent_flowNode&#45;&gt;L4YAML.Surface.SurfPos</title>
<path fill="none" stroke="#4a90d9" stroke-width="2" d="M244.27,-93.09C291.54,-79.23 352.44,-61.38 394.87,-48.94"/>
<polygon fill="#4a90d9" stroke="#4a90d9" stroke-width="2" points="395.75,-51.24 401.78,-46.92 394.37,-46.53 395.75,-51.24"/>
<text text-anchor="middle" x="358.34" y="-64.6" font-family="Times-Roman" font-size="8.00" fill="#4a90d9">about</text>
</g>
</g>
</svg>
