<?xml version="1.0" encoding="UTF-8" standalone="no"?>
<!DOCTYPE svg PUBLIC "-//W3C//DTD SVG 1.1//EN"
 "http://www.w3.org/Graphics/SVG/1.1/DTD/svg11.dtd">
<!-- Generated by graphviz version 2.44.0 (0)
 -->
<!-- Title: ParserGrammable.parseNodeWB_apply Pages: 1 -->
<svg width="644pt" height="742pt"
 viewBox="0.00 0.00 643.50 742.00" xmlns="http://www.w3.org/2000/svg" xmlns:xlink="http://www.w3.org/1999/xlink">
<g id="graph0" class="graph" transform="scale(1 1) rotate(0) translate(4 738)">
<title>ParserGrammable.parseNodeWB_apply</title>
<polygon fill="white" stroke="transparent" points="-4,4 -4,-738 639.5,-738 639.5,4 -4,4"/>
<text text-anchor="middle" x="317.75" y="-719.6" font-family="Helvetica Bold" font-size="13.00">ParserGrammable.parseNodeWB_apply</text>
<text text-anchor="middle" x="317.75" y="-705.6" font-family="Helvetica Bold" font-size="13.00">(heuristic: used by 11 proofs)</text>
<text text-anchor="middle" x="317.75" y="-691.6" font-family="Helvetica Bold" font-size="13.00">(L4YAML.Proofs.ParserWellBehaved)</text>
<g id="clust1" class="cluster">
<title>cluster_functions</title>
<polygon fill="none" stroke="#4a90d9" stroke-dasharray="5,2" points="383.5,-8 383.5,-676 627.5,-676 627.5,-8 383.5,-8"/>
<text text-anchor="middle" x="505.5" y="-661.6" font-family="Helvetica Bold" font-size="13.00" fill="#4a90d9">Functions</text>
</g>
<g id="clust2" class="cluster">
<title>cluster_key</title>
<polygon fill="none" stroke="#d4a017" stroke-dasharray="5,2" points="8,-300 8,-382 338.5,-382 338.5,-300 8,-300"/>
<text text-anchor="middle" x="173.25" y="-367.6" font-family="Helvetica Bold" font-size="13.00" fill="#d4a017">Key Theorem</text>
</g>
<!-- L4YAML.Positioned -->
<g id="node1" class="node">
<title>L4YAML.Positioned</title>
<polygon fill="#dce9f7" stroke="#4a90d9" points="536.5,-646 474.5,-646 474.5,-610 536.5,-610 536.5,-646"/>
<text text-anchor="middle" x="505.5" y="-631" font-family="Helvetica" font-size="10.00">Positioned</text>
<text text-anchor="middle" x="505.5" y="-620" font-family="Helvetica" font-size="10.00">(inductive)</text>
</g>
<!-- L4YAML.Proofs.ScannerPlainScalarValid.flowNesting -->
<g id="node2" class="node">
<title>L4YAML.Proofs.ScannerPlainScalarValid.flowNesting</title>
<polygon fill="#dce9f7" stroke="#4a90d9" points="594.5,-592 416.5,-592 416.5,-556 594.5,-556 594.5,-592"/>
<text text-anchor="middle" x="505.5" y="-577" font-family="Helvetica" font-size="10.00">ScannerPlainScalarValid.flowNesting</text>
<text text-anchor="middle" x="505.5" y="-566" font-family="Helvetica" font-size="10.00">(def)</text>
</g>
<!-- L4YAML.Proofs.ParserGrammable.ParseNodeWB -->
<g id="node3" class="node">
<title>L4YAML.Proofs.ParserGrammable.ParseNodeWB</title>
<polygon fill="#dce9f7" stroke="#4a90d9" points="587.5,-538 423.5,-538 423.5,-502 587.5,-502 587.5,-538"/>
<text text-anchor="middle" x="505.5" y="-523" font-family="Helvetica" font-size="10.00">ParserGrammable.ParseNodeWB</text>
<text text-anchor="middle" x="505.5" y="-512" font-family="Helvetica" font-size="10.00">(def)</text>
</g>
<!-- L4YAML.Grammar.Scannable -->
<g id="node4" class="node">
<title>L4YAML.Grammar.Scannable</title>
<polygon fill="#dce9f7" stroke="#4a90d9" points="558.5,-484 452.5,-484 452.5,-448 558.5,-448 558.5,-484"/>
<text text-anchor="middle" x="505.5" y="-469" font-family="Helvetica" font-size="10.00">Grammar.Scannable</text>
<text text-anchor="middle" x="505.5" y="-458" font-family="Helvetica" font-size="10.00">(inductive)</text>
</g>
<!-- L4YAML.YamlToken -->
<g id="node5" class="node">
<title>L4YAML.YamlToken</title>
<polygon fill="#dce9f7" stroke="#4a90d9" points="537.5,-430 473.5,-430 473.5,-394 537.5,-394 537.5,-430"/>
<text text-anchor="middle" x="505.5" y="-415" font-family="Helvetica" font-size="10.00">YamlToken</text>
<text text-anchor="middle" x="505.5" y="-404" font-family="Helvetica" font-size="10.00">(inductive)</text>
</g>
<!-- L4YAML.TokenParser.ParseState -->
<g id="node6" class="node">
<title>L4YAML.TokenParser.ParseState</title>
<polygon fill="#dce9f7" stroke="#4a90d9" points="567.5,-376 443.5,-376 443.5,-340 567.5,-340 567.5,-376"/>
<text text-anchor="middle" x="505.5" y="-361" font-family="Helvetica" font-size="10.00">TokenParser.ParseState</text>
<text text-anchor="middle" x="505.5" y="-350" font-family="Helvetica" font-size="10.00">(inductive)</text>
</g>
<!-- L4YAML.YamlValue -->
<g id="node7" class="node">
<title>L4YAML.YamlValue</title>
<polygon fill="#dce9f7" stroke="#4a90d9" points="536.5,-322 474.5,-322 474.5,-286 536.5,-286 536.5,-322"/>
<text text-anchor="middle" x="505.5" y="-307" font-family="Helvetica" font-size="10.00">YamlValue</text>
<text text-anchor="middle" x="505.5" y="-296" font-family="Helvetica" font-size="10.00">(inductive)</text>
</g>
<!-- L4YAML.TokenParser.parseNode -->
<g id="node8" class="node">
<title>L4YAML.TokenParser.parseNode</title>
<polygon fill="#dce9f7" stroke="#4a90d9" points="566.5,-268 444.5,-268 444.5,-232 566.5,-232 566.5,-268"/>
<text text-anchor="middle" x="505.5" y="-253" font-family="Helvetica" font-size="10.00">TokenParser.parseNode</text>
<text text-anchor="middle" x="505.5" y="-242" font-family="Helvetica" font-size="10.00">(def)</text>
</g>
<!-- L4YAML.TokenParser.ParseState.pos -->
<g id="node9" class="node">
<title>L4YAML.TokenParser.ParseState.pos</title>
<polygon fill="#dce9f7" stroke="#4a90d9" points="577,-214 434,-214 434,-178 577,-178 577,-214"/>
<text text-anchor="middle" x="505.5" y="-199" font-family="Helvetica" font-size="10.00">TokenParser.ParseState.pos</text>
<text text-anchor="middle" x="505.5" y="-188" font-family="Helvetica" font-size="10.00">(def)</text>
</g>
<!-- L4YAML.ScanError -->
<g id="node10" class="node">
<title>L4YAML.ScanError</title>
<polygon fill="#dce9f7" stroke="#4a90d9" points="536.5,-160 474.5,-160 474.5,-124 536.5,-124 536.5,-160"/>
<text text-anchor="middle" x="505.5" y="-145" font-family="Helvetica" font-size="10.00">ScanError</text>
<text text-anchor="middle" x="505.5" y="-134" font-family="Helvetica" font-size="10.00">(inductive)</text>
</g>
<!-- L4YAML.TokenParser.ParseState.tokens -->
<g id="node11" class="node">
<title>L4YAML.TokenParser.ParseState.tokens</title>
<polygon fill="#dce9f7" stroke="#4a90d9" points="583,-106 428,-106 428,-70 583,-70 583,-106"/>
<text text-anchor="middle" x="505.5" y="-91" font-family="Helvetica" font-size="10.00">TokenParser.ParseState.tokens</text>
<text text-anchor="middle" x="505.5" y="-80" font-family="Helvetica" font-size="10.00">(def)</text>
</g>
<!-- L4YAML.Proofs.ParserGrammable.parseNodeWB_apply._auto_1 -->
<g id="node12" class="node">
<title>L4YAML.Proofs.ParserGrammable.parseNodeWB_apply._auto_1</title>
<polygon fill="#dce9f7" stroke="#4a90d9" points="619.5,-52 391.5,-52 391.5,-16 619.5,-16 619.5,-52"/>
<text text-anchor="middle" x="505.5" y="-37" font-family="Helvetica" font-size="10.00">ParserGrammable.parseNodeWB_apply._auto_1</text>
<text text-anchor="middle" x="505.5" y="-26" font-family="Helvetica" font-size="10.00">(def)</text>
</g>
<!-- L4YAML.Proofs.ParserGrammable.parseNodeWB_apply -->
<g id="node13" class="node">
<title>L4YAML.Proofs.ParserGrammable.parseNodeWB_apply</title>
<polygon fill="#fff3cd" stroke="#d4a017" points="326.26,-322.54 326.26,-337.46 236.63,-348 109.87,-348 20.24,-337.46 20.24,-322.54 109.87,-312 236.63,-312 326.26,-322.54"/>
<polygon fill="none" stroke="#d4a017" points="330.25,-318.99 330.25,-341.01 236.86,-352 109.64,-352 16.25,-341.01 16.25,-318.99 109.64,-308 236.86,-308 330.25,-318.99"/>
<text text-anchor="middle" x="173.25" y="-326.9" font-family="Helvetica" font-size="12.00">ParserGrammable.parseNodeWB_apply</text>
</g>
<!-- L4YAML.Proofs.ParserGrammable.parseNodeWB_apply&#45;&gt;L4YAML.Positioned -->
<g id="edge3" class="edge">
<title>L4YAML.Proofs.ParserGrammable.parseNodeWB_apply&#45;&gt;L4YAML.Positioned</title>
<path fill="none" stroke="#4a90d9" stroke-width="2" d="M184.54,-352.1C210.12,-404.44 281.93,-536.41 383.5,-601 408.63,-616.98 441.93,-623.57 467.24,-626.26"/>
<polygon fill="#4a90d9" stroke="#4a90d9" stroke-width="2" points="467.29,-628.72 474.49,-626.94 467.75,-623.84 467.29,-628.72"/>
<text text-anchor="middle" x="361" y="-592.6" font-family="Times-Roman" font-size="8.00" fill="#4a90d9">about</text>
</g>
<!-- L4YAML.Proofs.ParserGrammable.parseNodeWB_apply&#45;&gt;L4YAML.Proofs.ScannerPlainScalarValid.flowNesting -->
<g id="edge12" class="edge">
<title>L4YAML.Proofs.ParserGrammable.parseNodeWB_apply&#45;&gt;L4YAML.Proofs.ScannerPlainScalarValid.flowNesting</title>
<path fill="none" stroke="#4a90d9" stroke-width="2" d="M188.84,-352.24C219.3,-396.77 294.28,-496.91 383.5,-547 391.66,-551.58 400.53,-555.38 409.64,-558.54"/>
<polygon fill="#4a90d9" stroke="#4a90d9" stroke-width="2" points="408.9,-560.87 416.31,-560.72 410.42,-556.22 408.9,-560.87"/>
<text text-anchor="middle" x="361" y="-540.6" font-family="Times-Roman" font-size="8.00" fill="#4a90d9">about</text>
</g>
<!-- L4YAML.Proofs.ParserGrammable.parseNodeWB_apply&#45;&gt;L4YAML.Proofs.ParserGrammable.ParseNodeWB -->
<g id="edge7" class="edge">
<title>L4YAML.Proofs.ParserGrammable.parseNodeWB_apply&#45;&gt;L4YAML.Proofs.ParserGrammable.ParseNodeWB</title>
<path fill="none" stroke="#4a90d9" stroke-width="2" d="M195.83,-352.27C231.48,-387.72 306.45,-456.66 383.5,-493 393.82,-497.87 405.05,-501.87 416.38,-505.17"/>
<polygon fill="#4a90d9" stroke="#4a90d9" stroke-width="2" points="416.03,-507.62 423.43,-507.13 417.34,-502.9 416.03,-507.62"/>
<text text-anchor="middle" x="361" y="-488.6" font-family="Times-Roman" font-size="8.00" fill="#4a90d9">about</text>
</g>
<!-- L4YAML.Proofs.ParserGrammable.parseNodeWB_apply&#45;&gt;L4YAML.Grammar.Scannable -->
<g id="edge4" class="edge">
<title>L4YAML.Proofs.ParserGrammable.parseNodeWB_apply&#45;&gt;L4YAML.Grammar.Scannable</title>
<path fill="none" stroke="#4a90d9" stroke-width="2" d="M209.6,-352.08C250.19,-376.55 319.43,-415.62 383.5,-439 403.22,-446.19 425.47,-451.82 445.46,-456.04"/>
<polygon fill="#4a90d9" stroke="#4a90d9" stroke-width="2" points="445.08,-458.46 452.43,-457.47 446.07,-453.66 445.08,-458.46"/>
<text text-anchor="middle" x="361" y="-436.6" font-family="Times-Roman" font-size="8.00" fill="#4a90d9">about</text>
</g>
<!-- L4YAML.Proofs.ParserGrammable.parseNodeWB_apply&#45;&gt;L4YAML.YamlToken -->
<g id="edge5" class="edge">
<title>L4YAML.Proofs.ParserGrammable.parseNodeWB_apply&#45;&gt;L4YAML.YamlToken</title>
<path fill="none" stroke="#4a90d9" stroke-width="2" d="M249.62,-350.54C289.36,-361.19 338.97,-374.18 383.5,-385 411.08,-391.7 442.35,-398.66 466.19,-403.84"/>
<polygon fill="#4a90d9" stroke="#4a90d9" stroke-width="2" points="465.98,-406.3 473.34,-405.38 467.02,-401.51 465.98,-406.3"/>
<text text-anchor="middle" x="361" y="-384.6" font-family="Times-Roman" font-size="8.00" fill="#4a90d9">about</text>
</g>
<!-- L4YAML.Proofs.ParserGrammable.parseNodeWB_apply&#45;&gt;L4YAML.TokenParser.ParseState -->
<g id="edge11" class="edge">
<title>L4YAML.Proofs.ParserGrammable.parseNodeWB_apply&#45;&gt;L4YAML.TokenParser.ParseState</title>
<path fill="none" stroke="#4a90d9" stroke-width="2" d="M319.58,-342.32C360.14,-345.76 402.3,-349.34 436.11,-352.2"/>
<polygon fill="#4a90d9" stroke="#4a90d9" stroke-width="2" points="436.01,-354.65 443.2,-352.8 436.43,-349.77 436.01,-354.65"/>
<text text-anchor="middle" x="361" y="-348.6" font-family="Times-Roman" font-size="8.00" fill="#4a90d9">about</text>
</g>
<!-- L4YAML.Proofs.ParserGrammable.parseNodeWB_apply&#45;&gt;L4YAML.YamlValue -->
<g id="edge9" class="edge">
<title>L4YAML.Proofs.ParserGrammable.parseNodeWB_apply&#45;&gt;L4YAML.YamlValue</title>
<path fill="none" stroke="#4a90d9" stroke-width="2" d="M323.92,-318.22C376.81,-314.05 431.85,-309.72 467.04,-306.95"/>
<polygon fill="#4a90d9" stroke="#4a90d9" stroke-width="2" points="467.46,-309.37 474.24,-306.38 467.07,-304.49 467.46,-309.37"/>
<text text-anchor="middle" x="361" y="-318.6" font-family="Times-Roman" font-size="8.00" fill="#4a90d9">about</text>
</g>
<!-- L4YAML.Proofs.ParserGrammable.parseNodeWB_apply&#45;&gt;L4YAML.TokenParser.parseNode -->
<g id="edge8" class="edge">
<title>L4YAML.Proofs.ParserGrammable.parseNodeWB_apply&#45;&gt;L4YAML.TokenParser.parseNode</title>
<path fill="none" stroke="#4a90d9" stroke-width="2" d="M252.13,-309.71C291.45,-299.61 339.94,-287.38 383.5,-277 400.97,-272.84 419.9,-268.52 437.49,-264.6"/>
<polygon fill="#4a90d9" stroke="#4a90d9" stroke-width="2" points="438.12,-266.97 444.42,-263.05 437.05,-262.18 438.12,-266.97"/>
<text text-anchor="middle" x="361" y="-287.6" font-family="Times-Roman" font-size="8.00" fill="#4a90d9">about</text>
</g>
<!-- L4YAML.Proofs.ParserGrammable.parseNodeWB_apply&#45;&gt;L4YAML.TokenParser.ParseState.pos -->
<g id="edge2" class="edge">
<title>L4YAML.Proofs.ParserGrammable.parseNodeWB_apply&#45;&gt;L4YAML.TokenParser.ParseState.pos</title>
<path fill="none" stroke="#4a90d9" stroke-width="2" d="M210.4,-307.93C251.13,-283.92 319.98,-245.91 383.5,-223 397.25,-218.04 412.21,-213.82 426.78,-210.28"/>
<polygon fill="#4a90d9" stroke="#4a90d9" stroke-width="2" points="427.65,-212.59 433.9,-208.6 426.52,-207.83 427.65,-212.59"/>
<text text-anchor="middle" x="361" y="-236.6" font-family="Times-Roman" font-size="8.00" fill="#4a90d9">about</text>
</g>
<!-- L4YAML.Proofs.ParserGrammable.parseNodeWB_apply&#45;&gt;L4YAML.ScanError -->
<g id="edge6" class="edge">
<title>L4YAML.Proofs.ParserGrammable.parseNodeWB_apply&#45;&gt;L4YAML.ScanError</title>
<path fill="none" stroke="#4a90d9" stroke-width="2" d="M196.18,-307.73C232.03,-272.65 306.9,-204.84 383.5,-169 410.12,-156.55 442.76,-149.7 467.43,-146.02"/>
<polygon fill="#4a90d9" stroke="#4a90d9" stroke-width="2" points="467.9,-148.42 474.49,-145.02 467.21,-143.57 467.9,-148.42"/>
<text text-anchor="middle" x="361" y="-187.6" font-family="Times-Roman" font-size="8.00" fill="#4a90d9">about</text>
</g>
<!-- L4YAML.Proofs.ParserGrammable.parseNodeWB_apply&#45;&gt;L4YAML.TokenParser.ParseState.tokens -->
<g id="edge10" class="edge">
<title>L4YAML.Proofs.ParserGrammable.parseNodeWB_apply&#45;&gt;L4YAML.TokenParser.ParseState.tokens</title>
<path fill="none" stroke="#4a90d9" stroke-width="2" d="M188.89,-307.97C219.44,-263.85 294.59,-164.64 383.5,-115 395.02,-108.57 407.97,-103.67 420.99,-99.93"/>
<polygon fill="#4a90d9" stroke="#4a90d9" stroke-width="2" points="421.69,-102.28 427.8,-98.09 420.4,-97.55 421.69,-102.28"/>
<text text-anchor="middle" x="361" y="-138.6" font-family="Times-Roman" font-size="8.00" fill="#4a90d9">about</text>
</g>
<!-- L4YAML.Proofs.ParserGrammable.parseNodeWB_apply&#45;&gt;L4YAML.Proofs.ParserGrammable.parseNodeWB_apply._auto_1 -->
<g id="edge1" class="edge">
<title>L4YAML.Proofs.ParserGrammable.parseNodeWB_apply&#45;&gt;L4YAML.Proofs.ParserGrammable.parseNodeWB_apply._auto_1</title>
<path fill="none" stroke="#4a90d9" stroke-width="2" d="M184.78,-307.68C210.62,-255.46 282.53,-124.95 383.5,-61 386.85,-58.88 390.35,-56.92 393.95,-55.11"/>
<polygon fill="#4a90d9" stroke="#4a90d9" stroke-width="2" points="395.25,-57.21 400.55,-52.03 393.17,-52.78 395.25,-57.21"/>
<text text-anchor="middle" x="361" y="-84.6" font-family="Times-Roman" font-size="8.00" fill="#4a90d9">about</text>
</g>
</g>
</svg>
