<?xml version="1.0" encoding="UTF-8" standalone="no"?>
<!DOCTYPE svg PUBLIC "-//W3C//DTD SVG 1.1//EN"
 "http://www.w3.org/Graphics/SVG/1.1/DTD/svg11.dtd">
<!-- Generated by graphviz version 2.44.0 (0)
 -->
<!-- Title: ParserNodeProofs.emptyNode_aar Pages: 1 -->
<svg width="558pt" height="256pt"
 viewBox="0.00 0.00 557.85 256.00" xmlns="http://www.w3.org/2000/svg" xmlns:xlink="http://www.w3.org/1999/xlink">
<g id="graph0" class="graph" transform="scale(1 1) rotate(0) translate(4 252)">
<title>ParserNodeProofs.emptyNode_aar</title>
<polygon fill="white" stroke="transparent" points="-4,4 -4,-252 553.85,-252 553.85,4 -4,4"/>
<text text-anchor="middle" x="274.93" y="-233.6" font-family="Helvetica Bold" font-size="13.00">ParserNodeProofs.emptyNode_aar</text>
<text text-anchor="middle" x="274.93" y="-219.6" font-family="Helvetica Bold" font-size="13.00">(heuristic: used by 9 proofs)</text>
<text text-anchor="middle" x="274.93" y="-205.6" font-family="Helvetica Bold" font-size="13.00">(L4YAML.Proofs.ParserNodeProofs)</text>
<g id="clust1" class="cluster">
<title>cluster_functions</title>
<polygon fill="none" stroke="#4a90d9" stroke-dasharray="5,2" points="348.85,-8 348.85,-190 541.85,-190 541.85,-8 348.85,-8"/>
<text text-anchor="middle" x="445.35" y="-175.6" font-family="Helvetica Bold" font-size="13.00" fill="#4a90d9">Functions</text>
</g>
<g id="clust2" class="cluster">
<title>cluster_key</title>
<polygon fill="none" stroke="#d4a017" stroke-dasharray="5,2" points="8,-58 8,-140 303.85,-140 303.85,-58 8,-58"/>
<text text-anchor="middle" x="155.93" y="-125.6" font-family="Helvetica Bold" font-size="13.00" fill="#d4a017">Key Theorem</text>
</g>
<!-- L4YAML.TokenParser.emptyNode -->
<g id="node1" class="node">
<title>L4YAML.TokenParser.emptyNode</title>
<polygon fill="#dce9f7" stroke="#4a90d9" points="507.85,-160 382.85,-160 382.85,-124 507.85,-124 507.85,-160"/>
<text text-anchor="middle" x="445.35" y="-145" font-family="Helvetica" font-size="10.00">TokenParser.emptyNode</text>
<text text-anchor="middle" x="445.35" y="-134" font-family="Helvetica" font-size="10.00">(def)</text>
</g>
<!-- L4YAML.YamlValue -->
<g id="node2" class="node">
<title>L4YAML.YamlValue</title>
<polygon fill="#dce9f7" stroke="#4a90d9" points="476.35,-106 414.35,-106 414.35,-70 476.35,-70 476.35,-106"/>
<text text-anchor="middle" x="445.35" y="-91" font-family="Helvetica" font-size="10.00">YamlValue</text>
<text text-anchor="middle" x="445.35" y="-80" font-family="Helvetica" font-size="10.00">(inductive)</text>
</g>
<!-- L4YAML.Proofs.ParserGrammable.AllAliasesResolve -->
<g id="node3" class="node">
<title>L4YAML.Proofs.ParserGrammable.AllAliasesResolve</title>
<polygon fill="#dce9f7" stroke="#4a90d9" points="533.85,-52 356.85,-52 356.85,-16 533.85,-16 533.85,-52"/>
<text text-anchor="middle" x="445.35" y="-37" font-family="Helvetica" font-size="10.00">ParserGrammable.AllAliasesResolve</text>
<text text-anchor="middle" x="445.35" y="-26" font-family="Helvetica" font-size="10.00">(inductive)</text>
</g>
<!-- ParserNodeProofs.emptyNode_aar -->
<g id="node4" class="node">
<title>ParserNodeProofs.emptyNode_aar</title>
<polygon fill="#fff3cd" stroke="#d4a017" points="291.78,-80.54 291.78,-95.46 212.2,-106 99.65,-106 20.07,-95.46 20.07,-80.54 99.65,-70 212.2,-70 291.78,-80.54"/>
<polygon fill="none" stroke="#d4a017" points="295.78,-77.04 295.78,-98.96 212.46,-110 99.39,-110 16.07,-98.96 16.07,-77.04 99.39,-66 212.46,-66 295.78,-77.04"/>
<text text-anchor="middle" x="155.93" y="-84.9" font-family="Helvetica" font-size="12.00">ParserNodeProofs.emptyNode_aar</text>
</g>
<!-- ParserNodeProofs.emptyNode_aar&#45;&gt;L4YAML.TokenParser.emptyNode -->
<g id="edge1" class="edge">
<title>ParserNodeProofs.emptyNode_aar&#45;&gt;L4YAML.TokenParser.emptyNode</title>
<path fill="none" stroke="#4a90d9" stroke-width="2" d="M248.66,-105.23C289.8,-112.96 337.51,-121.93 375.52,-129.07"/>
<polygon fill="#4a90d9" stroke="#4a90d9" stroke-width="2" points="375.17,-131.5 382.5,-130.38 376.08,-126.68 375.17,-131.5"/>
<text text-anchor="middle" x="326.35" y="-123.6" font-family="Times-Roman" font-size="8.00" fill="#4a90d9">about</text>
</g>
<!-- ParserNodeProofs.emptyNode_aar&#45;&gt;L4YAML.YamlValue -->
<g id="edge2" class="edge">
<title>ParserNodeProofs.emptyNode_aar&#45;&gt;L4YAML.YamlValue</title>
<path fill="none" stroke="#4a90d9" stroke-width="2" d="M296.01,-88C336.92,-88 378.33,-88 406.96,-88"/>
<polygon fill="#4a90d9" stroke="#4a90d9" stroke-width="2" points="407.32,-90.45 414.32,-88 407.32,-85.55 407.32,-90.45"/>
<text text-anchor="middle" x="326.35" y="-90.6" font-family="Times-Roman" font-size="8.00" fill="#4a90d9">about</text>
</g>
<!-- ParserNodeProofs.emptyNode_aar&#45;&gt;L4YAML.Proofs.ParserGrammable.AllAliasesResolve -->
<g id="edge3" class="edge">
<title>ParserNodeProofs.emptyNode_aar&#45;&gt;L4YAML.Proofs.ParserGrammable.AllAliasesResolve</title>
<path fill="none" stroke="#4a90d9" stroke-width="2" d="M248.66,-70.77C280.74,-64.74 316.8,-57.96 349.16,-51.89"/>
<polygon fill="#4a90d9" stroke="#4a90d9" stroke-width="2" points="350,-54.22 356.43,-50.52 349.1,-49.4 350,-54.22"/>
<text text-anchor="middle" x="326.35" y="-59.6" font-family="Times-Roman" font-size="8.00" fill="#4a90d9">about</text>
</g>
</g>
</svg>
