<?xml version="1.0" encoding="UTF-8" standalone="no"?>
<!DOCTYPE svg PUBLIC "-//W3C//DTD SVG 1.1//EN"
 "http://www.w3.org/Graphics/SVG/1.1/DTD/svg11.dtd">
<!-- Generated by graphviz version 2.44.0 (0)
 -->
<!-- Title: ParserNodeProofs.aar_mono Pages: 1 -->
<svg width="827pt" height="632pt"
 viewBox="0.00 0.00 826.57 632.00" xmlns="http://www.w3.org/2000/svg" xmlns:xlink="http://www.w3.org/1999/xlink">
<g id="graph0" class="graph" transform="scale(1 1) rotate(0) translate(4 628)">
<title>ParserNodeProofs.aar_mono</title>
<polygon fill="white" stroke="transparent" points="-4,4 -4,-628 822.57,-628 822.57,4 -4,4"/>
<text text-anchor="middle" x="409.28" y="-609.6" font-family="Helvetica Bold" font-size="13.00">ParserNodeProofs.aar_mono</text>
<text text-anchor="middle" x="409.28" y="-595.6" font-family="Helvetica Bold" font-size="13.00">(heuristic: used by 11 proofs)</text>
<text text-anchor="middle" x="409.28" y="-581.6" font-family="Helvetica Bold" font-size="13.00">(L4YAML.Proofs.ParserNodeProofs)</text>
<g id="clust1" class="cluster">
<title>cluster_functions</title>
<polygon fill="none" stroke="#4a90d9" stroke-dasharray="5,2" points="617.57,-290 617.57,-418 810.57,-418 810.57,-290 617.57,-290"/>
<text text-anchor="middle" x="714.07" y="-403.6" font-family="Helvetica Bold" font-size="13.00" fill="#4a90d9">Functions</text>
</g>
<g id="clust2" class="cluster">
<title>cluster_key</title>
<polygon fill="none" stroke="#d4a017" stroke-dasharray="5,2" points="319.36,-245 319.36,-327 572.57,-327 572.57,-245 319.36,-245"/>
<text text-anchor="middle" x="445.96" y="-312.6" font-family="Helvetica Bold" font-size="13.00" fill="#d4a017">Key Theorem</text>
</g>
<g id="clust3" class="cluster">
<title>cluster_proofs</title>
<polygon fill="none" stroke="#28a745" stroke-dasharray="5,2" points="8,-306 8,-566 298.36,-566 298.36,-306 8,-306"/>
<text text-anchor="middle" x="153.18" y="-551.6" font-family="Helvetica Bold" font-size="13.00" fill="#28a745">Proof Dependencies</text>
</g>
<g id="clust4" class="cluster">
<title>cluster_stdlib</title>
<polygon fill="none" stroke="#e67e22" stroke-dasharray="5,2" points="62.77,-8 62.77,-298 243.59,-298 243.59,-8 62.77,-8"/>
<text text-anchor="middle" x="153.18" y="-283.6" font-family="Helvetica Bold" font-size="13.00" fill="#e67e22">Stdlib Lemmas</text>
</g>
<!-- L4YAML.YamlValue -->
<g id="node1" class="node">
<title>L4YAML.YamlValue</title>
<polygon fill="#dce9f7" stroke="#4a90d9" points="745.07,-388 683.07,-388 683.07,-352 745.07,-352 745.07,-388"/>
<text text-anchor="middle" x="714.07" y="-373" font-family="Helvetica" font-size="10.00">YamlValue</text>
<text text-anchor="middle" x="714.07" y="-362" font-family="Helvetica" font-size="10.00">(inductive)</text>
</g>
<!-- L4YAML.Proofs.ParserGrammable.AllAliasesResolve -->
<g id="node2" class="node">
<title>L4YAML.Proofs.ParserGrammable.AllAliasesResolve</title>
<polygon fill="#dce9f7" stroke="#4a90d9" points="802.57,-334 625.57,-334 625.57,-298 802.57,-298 802.57,-334"/>
<text text-anchor="middle" x="714.07" y="-319" font-family="Helvetica" font-size="10.00">ParserGrammable.AllAliasesResolve</text>
<text text-anchor="middle" x="714.07" y="-308" font-family="Helvetica" font-size="10.00">(inductive)</text>
</g>
<!-- ParserNodeProofs.aar_mono -->
<g id="node3" class="node">
<title>ParserNodeProofs.aar_mono</title>
<polygon fill="#fff3cd" stroke="#d4a017" points="560.67,-267.54 560.67,-282.46 493.47,-293 398.45,-293 331.26,-282.46 331.26,-267.54 398.45,-257 493.47,-257 560.67,-267.54"/>
<polygon fill="none" stroke="#d4a017" points="564.67,-264.12 564.67,-285.88 493.79,-297 398.14,-297 327.25,-285.88 327.25,-264.12 398.14,-253 493.79,-253 564.67,-264.12"/>
<text text-anchor="middle" x="445.96" y="-271.9" font-family="Helvetica" font-size="12.00">ParserNodeProofs.aar_mono</text>
</g>
<!-- ParserNodeProofs.aar_mono&#45;&gt;L4YAML.YamlValue -->
<g id="edge1" class="edge">
<title>ParserNodeProofs.aar_mono&#45;&gt;L4YAML.YamlValue</title>
<path fill="none" stroke="#4a90d9" stroke-width="2" d="M543.55,-289.21C566.44,-296.18 589.43,-306.55 607.57,-322 615.44,-328.7 609.67,-336.33 617.57,-343 633.87,-356.76 656.74,-363.52 676.01,-366.84"/>
<polygon fill="#4a90d9" stroke="#4a90d9" stroke-width="2" points="675.63,-369.26 682.93,-367.91 676.38,-364.42 675.63,-369.26"/>
<text text-anchor="middle" x="595.07" y="-324.6" font-family="Times-Roman" font-size="8.00" fill="#4a90d9">about</text>
</g>
<!-- ParserNodeProofs.aar_mono&#45;&gt;L4YAML.Proofs.ParserGrammable.AllAliasesResolve -->
<g id="edge2" class="edge">
<title>ParserNodeProofs.aar_mono&#45;&gt;L4YAML.Proofs.ParserGrammable.AllAliasesResolve</title>
<path fill="none" stroke="#4a90d9" stroke-width="2" d="M564.82,-281.17C579.27,-282.7 593.79,-284.62 607.57,-287 620.88,-289.3 634.93,-292.57 648.29,-296.07"/>
<polygon fill="#4a90d9" stroke="#4a90d9" stroke-width="2" points="647.81,-298.48 655.21,-297.93 649.08,-293.75 647.81,-298.48"/>
<text text-anchor="middle" x="595.07" y="-289.6" font-family="Times-Roman" font-size="8.00" fill="#4a90d9">about</text>
</g>
<!-- L4YAML.Proofs.ParserGrammable.AliasFree._proof_1 -->
<g id="node4" class="node">
<title>L4YAML.Proofs.ParserGrammable.AliasFree._proof_1</title>
<ellipse fill="#d4edda" stroke="#28a745" cx="153.18" cy="-335" rx="127.97" ry="21.43"/>
<text text-anchor="middle" x="153.18" y="-338" font-family="Helvetica" font-size="10.00">ParserGrammable.AliasFree._proof_1</text>
<text text-anchor="middle" x="153.18" y="-327" font-family="Helvetica" font-size="10.00">(ParserGrammableBase)</text>
</g>
<!-- L4YAML.Proofs.ParserGrammable.AliasFree._proof_1&#45;&gt;L4YAML.YamlValue -->
<g id="edge12" class="edge">
<title>L4YAML.Proofs.ParserGrammable.AliasFree._proof_1&#45;&gt;L4YAML.YamlValue</title>
<path fill="none" stroke="#999999" stroke-dasharray="1,5" d="M273.05,-342.44C401.47,-350.49 598.39,-362.82 677.93,-367.8"/>
<polygon fill="#999999" stroke="#999999" points="677.9,-369.55 683,-368.12 678.12,-366.06 677.9,-369.55"/>
</g>
<!-- L4YAML.Proofs.ParserGrammable.AliasFree._proof_1&#45;&gt;ParserNodeProofs.aar_mono -->
<g id="edge5" class="edge">
<title>L4YAML.Proofs.ParserGrammable.AliasFree._proof_1&#45;&gt;ParserNodeProofs.aar_mono</title>
<path fill="none" stroke="#28a745" d="M234.02,-318.53C272.09,-310.67 317.74,-301.25 356.82,-293.19"/>
<polygon fill="#28a745" stroke="#28a745" points="357.67,-295.51 364.03,-291.7 356.68,-290.71 357.67,-295.51"/>
</g>
<!-- ParserNodeProofs.aar_mono._proof_1_1 -->
<g id="node5" class="node">
<title>ParserNodeProofs.aar_mono._proof_1_1</title>
<ellipse fill="#d4edda" stroke="#28a745" cx="153.18" cy="-395" rx="137.36" ry="21.43"/>
<text text-anchor="middle" x="153.18" y="-398" font-family="Helvetica" font-size="10.00">ParserNodeProofs.aar_mono._proof_1_1</text>
<text text-anchor="middle" x="153.18" y="-387" font-family="Helvetica" font-size="10.00">(ParserNodeProofs)</text>
</g>
<!-- ParserNodeProofs.aar_mono._proof_1_1&#45;&gt;L4YAML.YamlValue -->
<g id="edge13" class="edge">
<title>ParserNodeProofs.aar_mono._proof_1_1&#45;&gt;L4YAML.YamlValue</title>
<path fill="none" stroke="#999999" stroke-dasharray="1,5" d="M285.21,-389.14C413.45,-383.4 600.42,-375.04 677.66,-371.58"/>
<polygon fill="#999999" stroke="#999999" points="678.12,-373.32 683.03,-371.34 677.96,-369.82 678.12,-373.32"/>
</g>
<!-- ParserNodeProofs.aar_mono._proof_1_1&#45;&gt;ParserNodeProofs.aar_mono -->
<g id="edge4" class="edge">
<title>ParserNodeProofs.aar_mono._proof_1_1&#45;&gt;ParserNodeProofs.aar_mono</title>
<path fill="none" stroke="#28a745" d="M250.16,-379.87C266.53,-375.93 283.15,-371.04 298.36,-365 339.17,-348.8 381.47,-321.52 410.08,-301.23"/>
<polygon fill="#28a745" stroke="#28a745" points="411.7,-303.08 415.97,-297.01 408.85,-299.09 411.7,-303.08"/>
</g>
<!-- L4YAML.Proofs.ParserGrammable.AliasFree._proof_2 -->
<g id="node6" class="node">
<title>L4YAML.Proofs.ParserGrammable.AliasFree._proof_2</title>
<ellipse fill="#d4edda" stroke="#28a745" cx="153.18" cy="-515" rx="127.97" ry="21.43"/>
<text text-anchor="middle" x="153.18" y="-518" font-family="Helvetica" font-size="10.00">ParserGrammable.AliasFree._proof_2</text>
<text text-anchor="middle" x="153.18" y="-507" font-family="Helvetica" font-size="10.00">(ParserGrammableBase)</text>
</g>
<!-- L4YAML.Proofs.ParserGrammable.AliasFree._proof_2&#45;&gt;L4YAML.YamlValue -->
<g id="edge14" class="edge">
<title>L4YAML.Proofs.ParserGrammable.AliasFree._proof_2&#45;&gt;L4YAML.YamlValue</title>
<path fill="none" stroke="#999999" stroke-dasharray="1,5" d="M250.42,-501.07C336.22,-487.22 464.58,-462.98 572.57,-428 609.35,-416.09 650.06,-398.81 678.14,-386.21"/>
<polygon fill="#999999" stroke="#999999" points="679.05,-387.72 682.89,-384.08 677.61,-384.53 679.05,-387.72"/>
</g>
<!-- L4YAML.Proofs.ParserGrammable.AliasFree._proof_2&#45;&gt;ParserNodeProofs.aar_mono -->
<g id="edge6" class="edge">
<title>L4YAML.Proofs.ParserGrammable.AliasFree._proof_2&#45;&gt;ParserNodeProofs.aar_mono</title>
<path fill="none" stroke="#28a745" d="M259.17,-503C273.03,-498.65 286.51,-492.81 298.36,-485 367.16,-439.6 413.19,-349.83 433.36,-303.76"/>
<polygon fill="#28a745" stroke="#28a745" points="435.62,-304.69 436.14,-297.29 431.12,-302.75 435.62,-304.69"/>
</g>
<!-- ParserNodeProofs.aar_mono._proof_1 -->
<g id="node7" class="node">
<title>ParserNodeProofs.aar_mono._proof_1</title>
<ellipse fill="#d4edda" stroke="#28a745" cx="153.18" cy="-455" rx="130.22" ry="21.43"/>
<text text-anchor="middle" x="153.18" y="-458" font-family="Helvetica" font-size="10.00">ParserNodeProofs.aar_mono._proof_1</text>
<text text-anchor="middle" x="153.18" y="-447" font-family="Helvetica" font-size="10.00">(ParserNodeProofs)</text>
</g>
<!-- ParserNodeProofs.aar_mono._proof_1&#45;&gt;L4YAML.YamlValue -->
<g id="edge15" class="edge">
<title>ParserNodeProofs.aar_mono._proof_1&#45;&gt;L4YAML.YamlValue</title>
<path fill="none" stroke="#999999" stroke-dasharray="1,5" d="M256.19,-441.9C348.26,-429.65 487.31,-410.14 607.57,-389 631.05,-384.87 657.46,-380.12 677.98,-376.4"/>
<polygon fill="#999999" stroke="#999999" points="678.46,-378.09 683.07,-375.47 677.83,-374.64 678.46,-378.09"/>
</g>
<!-- ParserNodeProofs.aar_mono._proof_1&#45;&gt;ParserNodeProofs.aar_mono -->
<g id="edge3" class="edge">
<title>ParserNodeProofs.aar_mono._proof_1&#45;&gt;ParserNodeProofs.aar_mono</title>
<path fill="none" stroke="#28a745" d="M255.79,-441.81C270.59,-437.65 285.24,-432.18 298.36,-425 353.46,-394.83 400.87,-337.2 425.94,-302.82"/>
<polygon fill="#28a745" stroke="#28a745" points="427.96,-304.21 430.06,-297.1 423.98,-301.35 427.96,-304.21"/>
</g>
<!-- Fin.isLt -->
<g id="node8" class="node">
<title>Fin.isLt</title>
<ellipse fill="#fdebd0" stroke="#e67e22" cx="153.18" cy="-196" rx="28.69" ry="18"/>
<text text-anchor="middle" x="153.18" y="-193.5" font-family="Helvetica" font-size="10.00">Fin.isLt</text>
</g>
<!-- Fin.isLt&#45;&gt;ParserNodeProofs.aar_mono -->
<g id="edge7" class="edge">
<title>Fin.isLt&#45;&gt;ParserNodeProofs.aar_mono</title>
<path fill="none" stroke="#e67e22" stroke-width="2" d="M181.57,-199.83C210.78,-204.21 258.27,-212.21 298.36,-223 327.45,-230.83 359.02,-241.71 385.39,-251.49"/>
<polygon fill="#e67e22" stroke="#e67e22" stroke-width="2" points="384.56,-253.8 391.98,-253.96 386.28,-249.21 384.56,-253.8"/>
</g>
<!-- Array.findSome?_isSome_iff -->
<g id="node9" class="node">
<title>Array.findSome?_isSome_iff</title>
<ellipse fill="#fdebd0" stroke="#e67e22" cx="153.18" cy="-142" rx="82.33" ry="18"/>
<text text-anchor="middle" x="153.18" y="-139.5" font-family="Helvetica" font-size="10.00">Array.findSome?_isSome_iff</text>
</g>
<!-- Array.findSome?_isSome_iff&#45;&gt;ParserNodeProofs.aar_mono -->
<g id="edge8" class="edge">
<title>Array.findSome?_isSome_iff&#45;&gt;ParserNodeProofs.aar_mono</title>
<path fill="none" stroke="#e67e22" stroke-width="2" d="M228.26,-149.47C251.35,-153.47 276.48,-159.61 298.36,-169 343.54,-188.4 388.29,-223.72 416.24,-248.23"/>
<polygon fill="#e67e22" stroke="#e67e22" stroke-width="2" points="414.74,-250.17 421.6,-252.98 417.99,-246.5 414.74,-250.17"/>
</g>
<!-- Decidable.byContradiction -->
<g id="node10" class="node">
<title>Decidable.byContradiction</title>
<ellipse fill="#fdebd0" stroke="#e67e22" cx="153.18" cy="-88" rx="77.23" ry="18"/>
<text text-anchor="middle" x="153.18" y="-85.5" font-family="Helvetica" font-size="10.00">Decidable.byContradiction</text>
</g>
<!-- Decidable.byContradiction&#45;&gt;ParserNodeProofs.aar_mono -->
<g id="edge9" class="edge">
<title>Decidable.byContradiction&#45;&gt;ParserNodeProofs.aar_mono</title>
<path fill="none" stroke="#e67e22" stroke-width="2" d="M228.06,-92.6C251.64,-96.43 277.1,-103.19 298.36,-115 355.95,-147 403.27,-209.95 427.48,-246.63"/>
<polygon fill="#e67e22" stroke="#e67e22" stroke-width="2" points="425.57,-248.19 431.45,-252.72 429.68,-245.51 425.57,-248.19"/>
</g>
<!-- Array.mem_iff_getElem -->
<g id="node11" class="node">
<title>Array.mem_iff_getElem</title>
<ellipse fill="#fdebd0" stroke="#e67e22" cx="153.18" cy="-34" rx="69.42" ry="18"/>
<text text-anchor="middle" x="153.18" y="-31.5" font-family="Helvetica" font-size="10.00">Array.mem_iff_getElem</text>
</g>
<!-- Array.mem_iff_getElem&#45;&gt;ParserNodeProofs.aar_mono -->
<g id="edge10" class="edge">
<title>Array.mem_iff_getElem&#45;&gt;ParserNodeProofs.aar_mono</title>
<path fill="none" stroke="#e67e22" stroke-width="2" d="M222.47,-35.91C247.95,-39.3 276.06,-46.47 298.36,-61 368.66,-106.82 414.29,-199.32 433.92,-246.26"/>
<polygon fill="#e67e22" stroke="#e67e22" stroke-width="2" points="431.7,-247.31 436.63,-252.85 436.23,-245.44 431.7,-247.31"/>
</g>
<!-- Array.getElem_mem -->
<g id="node12" class="node">
<title>Array.getElem_mem</title>
<ellipse fill="#fdebd0" stroke="#e67e22" cx="153.18" cy="-250" rx="61.62" ry="18"/>
<text text-anchor="middle" x="153.18" y="-247.5" font-family="Helvetica" font-size="10.00">Array.getElem_mem</text>
</g>
<!-- Array.getElem_mem&#45;&gt;ParserNodeProofs.aar_mono -->
<g id="edge11" class="edge">
<title>Array.getElem_mem&#45;&gt;ParserNodeProofs.aar_mono</title>
<path fill="none" stroke="#e67e22" stroke-width="2" d="M212.67,-255.03C243.46,-257.68 282.45,-261.03 319.66,-264.23"/>
<polygon fill="#e67e22" stroke="#e67e22" stroke-width="2" points="319.89,-266.71 327.07,-264.86 320.31,-261.82 319.89,-266.71"/>
</g>
</g>
</svg>
