<?xml version="1.0" encoding="UTF-8" standalone="no"?>
<!DOCTYPE svg PUBLIC "-//W3C//DTD SVG 1.1//EN"
 "http://www.w3.org/Graphics/SVG/1.1/DTD/svg11.dtd">
<!-- Generated by graphviz version 2.44.0 (0)
 -->
<!-- Title: ParserGrammable.empty_scalar_scannable Pages: 1 -->
<svg width="709pt" height="364pt"
 viewBox="0.00 0.00 708.93 364.00" xmlns="http://www.w3.org/2000/svg" xmlns:xlink="http://www.w3.org/1999/xlink">
<g id="graph0" class="graph" transform="scale(1 1) rotate(0) translate(4 360)">
<title>ParserGrammable.empty_scalar_scannable</title>
<polygon fill="white" stroke="transparent" points="-4,4 -4,-360 704.93,-360 704.93,4 -4,4"/>
<text text-anchor="middle" x="350.46" y="-341.6" font-family="Helvetica Bold" font-size="13.00">ParserGrammable.empty_scalar_scannable</text>
<text text-anchor="middle" x="350.46" y="-327.6" font-family="Helvetica Bold" font-size="13.00">(heuristic: used by 11 proofs)</text>
<text text-anchor="middle" x="350.46" y="-313.6" font-family="Helvetica Bold" font-size="13.00">(L4YAML.Proofs.ParserWellBehaved)</text>
<g id="clust1" class="cluster">
<title>cluster_functions</title>
<polygon fill="none" stroke="#4a90d9" stroke-dasharray="5,2" points="570.93,-8 570.93,-298 692.93,-298 692.93,-8 570.93,-8"/>
<text text-anchor="middle" x="631.93" y="-283.6" font-family="Helvetica Bold" font-size="13.00" fill="#4a90d9">Functions</text>
</g>
<g id="clust2" class="cluster">
<title>cluster_key</title>
<polygon fill="none" stroke="#d4a017" stroke-dasharray="5,2" points="167.44,-112 167.44,-194 525.93,-194 525.93,-112 167.44,-112"/>
<text text-anchor="middle" x="346.68" y="-179.6" font-family="Helvetica Bold" font-size="13.00" fill="#d4a017">Key Theorem</text>
</g>
<g id="clust4" class="cluster">
<title>cluster_stdlib</title>
<polygon fill="none" stroke="#e67e22" stroke-dasharray="5,2" points="8,-62 8,-244 146.44,-244 146.44,-62 8,-62"/>
<text text-anchor="middle" x="77.22" y="-229.6" font-family="Helvetica Bold" font-size="13.00" fill="#e67e22">Stdlib Lemmas</text>
</g>
<!-- L4YAML.Scalar.mk -->
<g id="node1" class="node">
<title>L4YAML.Scalar.mk</title>
<g id="a_node1"><a xlink:href="../../../api/L4YAML/Types.html#L4YAML.Scalar.mk" xlink:title="Scalar.mk\n(ctor)" target="_blank">
<polygon fill="#dce9f7" stroke="#4a90d9" points="662.43,-268 601.43,-268 601.43,-232 662.43,-232 662.43,-268"/>
<text text-anchor="middle" x="631.93" y="-253" font-family="Helvetica" font-size="10.00">Scalar.mk</text>
<text text-anchor="middle" x="631.93" y="-242" font-family="Helvetica" font-size="10.00">(ctor)</text>
</a>
</g>
</g>
<!-- L4YAML.Grammar.Scannable -->
<g id="node2" class="node">
<title>L4YAML.Grammar.Scannable</title>
<g id="a_node2"><a xlink:href="../../../api/L4YAML/Grammar.html#L4YAML.Grammar.Scannable" xlink:title="Grammar.Scannable\n(inductive)" target="_blank">
<polygon fill="#dce9f7" stroke="#4a90d9" points="684.93,-214 578.93,-214 578.93,-178 684.93,-178 684.93,-214"/>
<text text-anchor="middle" x="631.93" y="-199" font-family="Helvetica" font-size="10.00">Grammar.Scannable</text>
<text text-anchor="middle" x="631.93" y="-188" font-family="Helvetica" font-size="10.00">(inductive)</text>
</a>
</g>
</g>
<!-- L4YAML.BlockScalarMeta -->
<g id="node3" class="node">
<title>L4YAML.BlockScalarMeta</title>
<g id="a_node3"><a xlink:href="../../../api/L4YAML/Types.html#L4YAML.BlockScalarMeta" xlink:title="BlockScalarMeta\n(inductive)" target="_blank">
<polygon fill="#dce9f7" stroke="#4a90d9" points="677.43,-160 586.43,-160 586.43,-124 677.43,-124 677.43,-160"/>
<text text-anchor="middle" x="631.93" y="-145" font-family="Helvetica" font-size="10.00">BlockScalarMeta</text>
<text text-anchor="middle" x="631.93" y="-134" font-family="Helvetica" font-size="10.00">(inductive)</text>
</a>
</g>
</g>
<!-- L4YAML.ScalarStyle.plain -->
<g id="node4" class="node">
<title>L4YAML.ScalarStyle.plain</title>
<g id="a_node4"><a xlink:href="../../../api/L4YAML/Types.html#L4YAML.ScalarStyle.plain" xlink:title="ScalarStyle.plain\n(ctor)" target="_blank">
<polygon fill="#dce9f7" stroke="#4a90d9" points="676.93,-106 586.93,-106 586.93,-70 676.93,-70 676.93,-106"/>
<text text-anchor="middle" x="631.93" y="-91" font-family="Helvetica" font-size="10.00">ScalarStyle.plain</text>
<text text-anchor="middle" x="631.93" y="-80" font-family="Helvetica" font-size="10.00">(ctor)</text>
</a>
</g>
</g>
<!-- L4YAML.YamlValue.scalar -->
<g id="node5" class="node">
<title>L4YAML.YamlValue.scalar</title>
<g id="a_node5"><a xlink:href="../../../api/L4YAML/Types.html#L4YAML.YamlValue.scalar" xlink:title="YamlValue.scalar\n(ctor)" target="_blank">
<polygon fill="#dce9f7" stroke="#4a90d9" points="677.93,-52 585.93,-52 585.93,-16 677.93,-16 677.93,-52"/>
<text text-anchor="middle" x="631.93" y="-37" font-family="Helvetica" font-size="10.00">YamlValue.scalar</text>
<text text-anchor="middle" x="631.93" y="-26" font-family="Helvetica" font-size="10.00">(ctor)</text>
</a>
</g>
</g>
<!-- L4YAML.Proofs.ParserGrammable.empty_scalar_scannable -->
<g id="node6" class="node">
<title>L4YAML.Proofs.ParserGrammable.empty_scalar_scannable</title>
<g id="a_node6"><a xlink:href="../../../api/L4YAML/Proofs/ParserWellBehaved.html#L4YAML.Proofs.ParserGrammable.empty_scalar_scannable" xlink:title="ParserGrammable.empty_scalar_scannable" target="_blank">
<polygon fill="#fff3cd" stroke="#d4a017" points="514.17,-134.54 514.17,-149.46 416.06,-160 277.31,-160 179.2,-149.46 179.2,-134.54 277.31,-124 416.06,-124 514.17,-134.54"/>
<polygon fill="none" stroke="#d4a017" points="518.17,-130.95 518.17,-153.05 416.27,-164 277.1,-164 175.2,-153.05 175.2,-130.95 277.1,-120 416.27,-120 518.17,-130.95"/>
<text text-anchor="middle" x="346.68" y="-138.9" font-family="Helvetica" font-size="12.00">ParserGrammable.empty_scalar_scannable</text>
</a>
</g>
</g>
<!-- L4YAML.Proofs.ParserGrammable.empty_scalar_scannable&#45;&gt;L4YAML.Scalar.mk -->
<g id="edge4" class="edge">
<title>L4YAML.Proofs.ParserGrammable.empty_scalar_scannable&#45;&gt;L4YAML.Scalar.mk</title>
<path fill="none" stroke="#4a90d9" stroke-width="2" d="M405.69,-164.12C462.3,-185.7 546.69,-217.88 594.48,-236.1"/>
<polygon fill="#4a90d9" stroke="#4a90d9" stroke-width="2" points="593.84,-238.48 601.26,-238.69 595.59,-233.9 593.84,-238.48"/>
<text text-anchor="middle" x="548.43" y="-223.6" font-family="Times-Roman" font-size="8.00" fill="#4a90d9">about</text>
</g>
<!-- L4YAML.Proofs.ParserGrammable.empty_scalar_scannable&#45;&gt;L4YAML.Grammar.Scannable -->
<g id="edge3" class="edge">
<title>L4YAML.Proofs.ParserGrammable.empty_scalar_scannable&#45;&gt;L4YAML.Grammar.Scannable</title>
<path fill="none" stroke="#4a90d9" stroke-width="2" d="M446.35,-160.81C488.11,-168.77 535.38,-177.78 571.62,-184.69"/>
<polygon fill="#4a90d9" stroke="#4a90d9" stroke-width="2" points="571.38,-187.14 578.72,-186.05 572.3,-182.33 571.38,-187.14"/>
<text text-anchor="middle" x="548.43" y="-183.6" font-family="Times-Roman" font-size="8.00" fill="#4a90d9">about</text>
</g>
<!-- L4YAML.Proofs.ParserGrammable.empty_scalar_scannable&#45;&gt;L4YAML.BlockScalarMeta -->
<g id="edge2" class="edge">
<title>L4YAML.Proofs.ParserGrammable.empty_scalar_scannable&#45;&gt;L4YAML.BlockScalarMeta</title>
<path fill="none" stroke="#4a90d9" stroke-width="2" d="M518.17,-142C540.11,-142 561.08,-142 578.86,-142"/>
<polygon fill="#4a90d9" stroke="#4a90d9" stroke-width="2" points="579.28,-144.45 586.28,-142 579.28,-139.55 579.28,-144.45"/>
<text text-anchor="middle" x="548.43" y="-144.6" font-family="Times-Roman" font-size="8.00" fill="#4a90d9">about</text>
</g>
<!-- L4YAML.Proofs.ParserGrammable.empty_scalar_scannable&#45;&gt;L4YAML.ScalarStyle.plain -->
<g id="edge5" class="edge">
<title>L4YAML.Proofs.ParserGrammable.empty_scalar_scannable&#45;&gt;L4YAML.ScalarStyle.plain</title>
<path fill="none" stroke="#4a90d9" stroke-width="2" d="M446.35,-123.19C491.25,-114.63 542.52,-104.85 579.61,-97.78"/>
<polygon fill="#4a90d9" stroke="#4a90d9" stroke-width="2" points="580.42,-100.12 586.83,-96.41 579.5,-95.31 580.42,-100.12"/>
<text text-anchor="middle" x="548.43" y="-107.6" font-family="Times-Roman" font-size="8.00" fill="#4a90d9">about</text>
</g>
<!-- L4YAML.Proofs.ParserGrammable.empty_scalar_scannable&#45;&gt;L4YAML.YamlValue.scalar -->
<g id="edge1" class="edge">
<title>L4YAML.Proofs.ParserGrammable.empty_scalar_scannable&#45;&gt;L4YAML.YamlValue.scalar</title>
<path fill="none" stroke="#4a90d9" stroke-width="2" d="M405.69,-119.88C456.54,-100.49 529.81,-72.56 578.83,-53.86"/>
<polygon fill="#4a90d9" stroke="#4a90d9" stroke-width="2" points="579.91,-56.07 585.58,-51.29 578.17,-51.5 579.91,-56.07"/>
<text text-anchor="middle" x="548.43" y="-70.6" font-family="Times-Roman" font-size="8.00" fill="#4a90d9">about</text>
</g>
<!-- String.length_empty -->
<g id="node7" class="node">
<title>String.length_empty</title>
<g id="a_node7"><a xlink:href="../../../api/Init/Data/String/Basic.html#String.length_empty" xlink:title="String.length_empty" target="_blank">
<ellipse fill="#fdebd0" stroke="#e67e22" cx="77.22" cy="-196" rx="61.44" ry="18"/>
<text text-anchor="middle" x="77.22" y="-193.5" font-family="Helvetica" font-size="10.00">String.length_empty</text>
</a>
</g>
</g>
<!-- String.length_empty&#45;&gt;L4YAML.Proofs.ParserGrammable.empty_scalar_scannable -->
<g id="edge6" class="edge">
<title>String.length_empty&#45;&gt;L4YAML.Proofs.ParserGrammable.empty_scalar_scannable</title>
<path fill="none" stroke="#e67e22" stroke-width="2" d="M128.22,-185.91C160.6,-179.37 203.94,-170.62 243.41,-162.65"/>
<polygon fill="#e67e22" stroke="#e67e22" stroke-width="2" points="244.35,-164.96 250.73,-161.17 243.38,-160.16 244.35,-164.96"/>
</g>
<!-- Nat.lt_irrefl._simp_1 -->
<g id="node8" class="node">
<title>Nat.lt_irrefl._simp_1</title>
<g id="a_node8"><a xlink:href="../../../api/Init/Data/Nat/Basic.html#Nat.lt_irrefl._simp_1" xlink:title="Nat.lt_irrefl._simp_1" target="_blank">
<ellipse fill="#fdebd0" stroke="#e67e22" cx="77.22" cy="-142" rx="61.44" ry="18"/>
<text text-anchor="middle" x="77.22" y="-139.5" font-family="Helvetica" font-size="10.00">Nat.lt_irrefl._simp_1</text>
</a>
</g>
</g>
<!-- Nat.lt_irrefl._simp_1&#45;&gt;L4YAML.Proofs.ParserGrammable.empty_scalar_scannable -->
<g id="edge7" class="edge">
<title>Nat.lt_irrefl._simp_1&#45;&gt;L4YAML.Proofs.ParserGrammable.empty_scalar_scannable</title>
<path fill="none" stroke="#e67e22" stroke-width="2" d="M138.58,-142C147.84,-142 157.79,-142 168.12,-142"/>
<polygon fill="#e67e22" stroke="#e67e22" stroke-width="2" points="168.34,-144.45 175.34,-142 168.34,-139.55 168.34,-144.45"/>
</g>
<!-- gt_iff_lt._simp_1 -->
<g id="node9" class="node">
<title>gt_iff_lt._simp_1</title>
<g id="a_node9"><a xlink:href="../../../api/Init/Core.html#gt_iff_lt._simp_1" xlink:title="gt_iff_lt._simp_1" target="_blank">
<ellipse fill="#fdebd0" stroke="#e67e22" cx="77.22" cy="-88" rx="51.43" ry="18"/>
<text text-anchor="middle" x="77.22" y="-85.5" font-family="Helvetica" font-size="10.00">gt_iff_lt._simp_1</text>
</a>
</g>
</g>
<!-- gt_iff_lt._simp_1&#45;&gt;L4YAML.Proofs.ParserGrammable.empty_scalar_scannable -->
<g id="edge8" class="edge">
<title>gt_iff_lt._simp_1&#45;&gt;L4YAML.Proofs.ParserGrammable.empty_scalar_scannable</title>
<path fill="none" stroke="#e67e22" stroke-width="2" d="M122.09,-96.86C155.08,-103.52 201.65,-112.92 243.75,-121.42"/>
<polygon fill="#e67e22" stroke="#e67e22" stroke-width="2" points="243.4,-123.85 250.74,-122.83 244.37,-119.04 243.4,-123.85"/>
</g>
</g>
</svg>
