<?xml version="1.0" encoding="UTF-8" standalone="no"?>
<!DOCTYPE svg PUBLIC "-//W3C//DTD SVG 1.1//EN"
 "http://www.w3.org/Graphics/SVG/1.1/DTD/svg11.dtd">
<!-- Generated by graphviz version 2.44.0 (0)
 -->
<!-- Title: ParserNodeProofs.AG.advance Pages: 1 -->
<svg width="752pt" height="388pt"
 viewBox="0.00 0.00 752.27 388.00" xmlns="http://www.w3.org/2000/svg" xmlns:xlink="http://www.w3.org/1999/xlink">
<g id="graph0" class="graph" transform="scale(1 1) rotate(0) translate(4 384)">
<title>ParserNodeProofs.AG.advance</title>
<polygon fill="white" stroke="transparent" points="-4,4 -4,-384 748.27,-384 748.27,4 -4,4"/>
<text text-anchor="middle" x="372.14" y="-365.6" font-family="Helvetica Bold" font-size="13.00">ParserNodeProofs.AG.advance</text>
<text text-anchor="middle" x="372.14" y="-351.6" font-family="Helvetica Bold" font-size="13.00">(heuristic: used by 20 proofs)</text>
<text text-anchor="middle" x="372.14" y="-337.6" font-family="Helvetica Bold" font-size="13.00">(L4YAML.Proofs.ParserNodeProofs)</text>
<g id="clust1" class="cluster">
<title>cluster_functions</title>
<polygon fill="none" stroke="#4a90d9" stroke-dasharray="5,2" points="289.34,-140 289.34,-322 736.27,-322 736.27,-140 289.34,-140"/>
<text text-anchor="middle" x="512.81" y="-307.6" font-family="Helvetica Bold" font-size="13.00" fill="#4a90d9">Functions</text>
</g>
<g id="clust2" class="cluster">
<title>cluster_key</title>
<polygon fill="none" stroke="#d4a017" stroke-dasharray="5,2" points="244.4,-36 244.4,-118 512.27,-118 512.27,-36 244.4,-36"/>
<text text-anchor="middle" x="378.34" y="-103.6" font-family="Helvetica Bold" font-size="13.00" fill="#d4a017">Key Theorem</text>
</g>
<g id="clust3" class="cluster">
<title>cluster_proofs</title>
<polygon fill="none" stroke="#28a745" stroke-dasharray="5,2" points="8,-145 8,-225 223.4,-225 223.4,-145 8,-145"/>
<text text-anchor="middle" x="115.7" y="-210.6" font-family="Helvetica Bold" font-size="13.00" fill="#28a745">Proof Dependencies</text>
</g>
<g id="clust4" class="cluster">
<title>cluster_stdlib</title>
<polygon fill="none" stroke="#e67e22" stroke-dasharray="5,2" points="60.2,-8 60.2,-136 171.2,-136 171.2,-8 60.2,-8"/>
<text text-anchor="middle" x="115.7" y="-121.6" font-family="Helvetica Bold" font-size="13.00" fill="#e67e22">Stdlib Lemmas</text>
</g>
<!-- L4YAML.TokenParser.ParseState.advance -->
<g id="node1" class="node">
<title>L4YAML.TokenParser.ParseState.advance</title>
<polygon fill="#dce9f7" stroke="#4a90d9" points="728.27,-184 565.27,-184 565.27,-148 728.27,-148 728.27,-184"/>
<text text-anchor="middle" x="646.77" y="-169" font-family="Helvetica" font-size="10.00">TokenParser.ParseState.advance</text>
<text text-anchor="middle" x="646.77" y="-158" font-family="Helvetica" font-size="10.00">(def)</text>
</g>
<!-- L4YAML.YamlValue -->
<g id="node2" class="node">
<title>L4YAML.YamlValue</title>
<polygon fill="#dce9f7" stroke="#4a90d9" points="409.34,-292 347.34,-292 347.34,-256 409.34,-256 409.34,-292"/>
<text text-anchor="middle" x="378.34" y="-277" font-family="Helvetica" font-size="10.00">YamlValue</text>
<text text-anchor="middle" x="378.34" y="-266" font-family="Helvetica" font-size="10.00">(inductive)</text>
</g>
<!-- L4YAML.TokenParser.ParseState -->
<g id="node3" class="node">
<title>L4YAML.TokenParser.ParseState</title>
<polygon fill="#dce9f7" stroke="#4a90d9" points="708.77,-292 584.77,-292 584.77,-256 708.77,-256 708.77,-292"/>
<text text-anchor="middle" x="646.77" y="-277" font-family="Helvetica" font-size="10.00">TokenParser.ParseState</text>
<text text-anchor="middle" x="646.77" y="-266" font-family="Helvetica" font-size="10.00">(inductive)</text>
</g>
<!-- ParserNodeProofs.AG -->
<g id="node4" class="node">
<title>ParserNodeProofs.AG</title>
<polygon fill="#dce9f7" stroke="#4a90d9" points="703.77,-238 589.77,-238 589.77,-202 703.77,-202 703.77,-238"/>
<text text-anchor="middle" x="646.77" y="-223" font-family="Helvetica" font-size="10.00">ParserNodeProofs.AG</text>
<text text-anchor="middle" x="646.77" y="-212" font-family="Helvetica" font-size="10.00">(def)</text>
</g>
<!-- L4YAML.TokenParser.ParseState.anchors -->
<g id="node5" class="node">
<title>L4YAML.TokenParser.ParseState.anchors</title>
<polygon fill="#dce9f7" stroke="#4a90d9" points="459.34,-238 297.34,-238 297.34,-202 459.34,-202 459.34,-238"/>
<text text-anchor="middle" x="378.34" y="-223" font-family="Helvetica" font-size="10.00">TokenParser.ParseState.anchors</text>
<text text-anchor="middle" x="378.34" y="-212" font-family="Helvetica" font-size="10.00">(def)</text>
</g>
<!-- ParserNodeProofs.AG.advance -->
<g id="node6" class="node">
<title>ParserNodeProofs.AG.advance</title>
<polygon fill="#fff3cd" stroke="#d4a017" points="500.21,-58.54 500.21,-73.46 428.82,-84 327.86,-84 256.47,-73.46 256.47,-58.54 327.86,-48 428.82,-48 500.21,-58.54"/>
<polygon fill="none" stroke="#d4a017" points="504.21,-55.09 504.21,-76.91 429.11,-88 327.56,-88 252.47,-76.91 252.47,-55.09 327.56,-44 429.11,-44 504.21,-55.09"/>
<text text-anchor="middle" x="378.34" y="-62.9" font-family="Helvetica" font-size="12.00">ParserNodeProofs.AG.advance</text>
</g>
<!-- ParserNodeProofs.AG.advance&#45;&gt;L4YAML.TokenParser.ParseState.advance -->
<g id="edge1" class="edge">
<title>ParserNodeProofs.AG.advance&#45;&gt;L4YAML.TokenParser.ParseState.advance</title>
<path fill="none" stroke="#4a90d9" stroke-width="2" d="M504.41,-65.74C519.2,-68.38 533.81,-72.31 547.27,-78 580.04,-91.86 609.26,-121.24 627.21,-142.24"/>
<polygon fill="#4a90d9" stroke="#4a90d9" stroke-width="2" points="625.37,-143.86 631.74,-147.65 629.12,-140.71 625.37,-143.86"/>
<text text-anchor="middle" x="534.77" y="-80.6" font-family="Times-Roman" font-size="8.00" fill="#4a90d9">about</text>
</g>
<!-- ParserNodeProofs.AG.advance&#45;&gt;L4YAML.TokenParser.ParseState -->
<g id="edge3" class="edge">
<title>ParserNodeProofs.AG.advance&#45;&gt;L4YAML.TokenParser.ParseState</title>
<path fill="none" stroke="#4a90d9" stroke-width="2" d="M429.31,-88.1C455.12,-100.54 486.52,-117.31 512.27,-136 529.82,-148.74 536.6,-151.12 547.27,-170 564.58,-200.59 541.62,-221.01 565.27,-247 569.04,-251.14 573.46,-254.64 578.26,-257.61"/>
<polygon fill="#4a90d9" stroke="#4a90d9" stroke-width="2" points="577.21,-259.83 584.51,-261.09 579.59,-255.55 577.21,-259.83"/>
<text text-anchor="middle" x="534.77" y="-172.6" font-family="Times-Roman" font-size="8.00" fill="#4a90d9">about</text>
</g>
<!-- ParserNodeProofs.AG.advance&#45;&gt;ParserNodeProofs.AG -->
<g id="edge2" class="edge">
<title>ParserNodeProofs.AG.advance&#45;&gt;ParserNodeProofs.AG</title>
<path fill="none" stroke="#4a90d9" stroke-width="2" d="M490.33,-79C511.58,-86.12 531.95,-96.86 547.27,-113 572.37,-139.43 540.85,-165.95 565.27,-193 570.34,-198.61 576.61,-203.06 583.39,-206.59"/>
<polygon fill="#4a90d9" stroke="#4a90d9" stroke-width="2" points="582.37,-208.81 589.75,-209.57 584.45,-204.38 582.37,-208.81"/>
<text text-anchor="middle" x="534.77" y="-115.6" font-family="Times-Roman" font-size="8.00" fill="#4a90d9">about</text>
</g>
<!-- ParserNodeProofs.AG.of_eq -->
<g id="node7" class="node">
<title>ParserNodeProofs.AG.of_eq</title>
<ellipse fill="#d4edda" stroke="#28a745" cx="115.7" cy="-174" rx="99.9" ry="21.43"/>
<text text-anchor="middle" x="115.7" y="-177" font-family="Helvetica" font-size="10.00">ParserNodeProofs.AG.of_eq</text>
<text text-anchor="middle" x="115.7" y="-166" font-family="Helvetica" font-size="10.00">(ParserNodeProofs)</text>
</g>
<!-- ParserNodeProofs.AG.of_eq&#45;&gt;L4YAML.YamlValue -->
<g id="edge9" class="edge">
<title>ParserNodeProofs.AG.of_eq&#45;&gt;L4YAML.YamlValue</title>
<path fill="none" stroke="#999999" stroke-dasharray="1,5" d="M145.81,-194.24C170.87,-210.77 208.55,-233.51 244.4,-247 276.46,-259.06 315,-266.13 342.31,-269.99"/>
<polygon fill="#999999" stroke="#999999" points="342.09,-271.73 347.28,-270.67 342.56,-268.26 342.09,-271.73"/>
</g>
<!-- ParserNodeProofs.AG.of_eq&#45;&gt;L4YAML.TokenParser.ParseState -->
<g id="edge10" class="edge">
<title>ParserNodeProofs.AG.of_eq&#45;&gt;L4YAML.TokenParser.ParseState</title>
<path fill="none" stroke="#999999" stroke-dasharray="1,5" d="M214.23,-170.64C313.85,-168.64 460.98,-170.01 512.27,-193 542.96,-206.75 536.77,-229.16 565.27,-247 569.86,-249.87 574.8,-252.48 579.88,-254.83"/>
<polygon fill="#999999" stroke="#999999" points="579.3,-256.49 584.58,-256.93 580.72,-253.29 579.3,-256.49"/>
</g>
<!-- ParserNodeProofs.AG.of_eq&#45;&gt;ParserNodeProofs.AG -->
<g id="edge8" class="edge">
<title>ParserNodeProofs.AG.of_eq&#45;&gt;ParserNodeProofs.AG</title>
<path fill="none" stroke="#999999" stroke-dasharray="1,5" d="M189.62,-159.68C296.86,-140.31 490.55,-112.26 547.27,-150 564.52,-161.48 550.1,-178.89 565.27,-193 570.89,-198.22 577.54,-202.43 584.58,-205.83"/>
<polygon fill="#999999" stroke="#999999" points="584.23,-207.59 589.51,-208.06 585.67,-204.41 584.23,-207.59"/>
</g>
<!-- ParserNodeProofs.AG.of_eq&#45;&gt;L4YAML.TokenParser.ParseState.anchors -->
<g id="edge7" class="edge">
<title>ParserNodeProofs.AG.of_eq&#45;&gt;L4YAML.TokenParser.ParseState.anchors</title>
<path fill="none" stroke="#999999" stroke-dasharray="1,5" d="M193.14,-187.49C224.22,-192.98 260.27,-199.34 292.19,-204.97"/>
<polygon fill="#999999" stroke="#999999" points="292.05,-206.72 297.27,-205.87 292.65,-203.28 292.05,-206.72"/>
</g>
<!-- ParserNodeProofs.AG.of_eq&#45;&gt;ParserNodeProofs.AG.advance -->
<g id="edge4" class="edge">
<title>ParserNodeProofs.AG.of_eq&#45;&gt;ParserNodeProofs.AG.advance</title>
<path fill="none" stroke="#28a745" d="M188.55,-159.37C201.03,-154.61 213.25,-148.31 223.4,-140 230.49,-134.2 226.51,-128.02 233.4,-122 251.07,-106.58 273.47,-95.17 295.3,-86.81"/>
<polygon fill="#28a745" stroke="#28a745" points="296.33,-89.04 302.05,-84.32 294.63,-84.45 296.33,-89.04"/>
</g>
<!-- eq_self -->
<g id="node8" class="node">
<title>eq_self</title>
<ellipse fill="#fdebd0" stroke="#e67e22" cx="115.7" cy="-34" rx="28.01" ry="18"/>
<text text-anchor="middle" x="115.7" y="-31.5" font-family="Helvetica" font-size="10.00">eq_self</text>
</g>
<!-- eq_self&#45;&gt;ParserNodeProofs.AG.advance -->
<g id="edge5" class="edge">
<title>eq_self&#45;&gt;ParserNodeProofs.AG.advance</title>
<path fill="none" stroke="#e67e22" stroke-width="2" d="M143.61,-37.3C171.76,-40.76 217.87,-46.42 261.73,-51.81"/>
<polygon fill="#e67e22" stroke="#e67e22" stroke-width="2" points="261.5,-54.25 268.75,-52.67 262.1,-49.38 261.5,-54.25"/>
</g>
<!-- of_eq_true -->
<g id="node9" class="node">
<title>of_eq_true</title>
<ellipse fill="#fdebd0" stroke="#e67e22" cx="115.7" cy="-88" rx="36.49" ry="18"/>
<text text-anchor="middle" x="115.7" y="-85.5" font-family="Helvetica" font-size="10.00">of_eq_true</text>
</g>
<!-- of_eq_true&#45;&gt;ParserNodeProofs.AG.advance -->
<g id="edge6" class="edge">
<title>of_eq_true&#45;&gt;ParserNodeProofs.AG.advance</title>
<path fill="none" stroke="#e67e22" stroke-width="2" d="M151.85,-85.03C176.31,-82.97 210.59,-80.08 245.05,-77.17"/>
<polygon fill="#e67e22" stroke="#e67e22" stroke-width="2" points="245.64,-79.58 252.41,-76.55 245.23,-74.69 245.64,-79.58"/>
</g>
</g>
</svg>
