<?xml version="1.0" encoding="UTF-8" standalone="no"?>
<!DOCTYPE svg PUBLIC "-//W3C//DTD SVG 1.1//EN"
 "http://www.w3.org/Graphics/SVG/1.1/DTD/svg11.dtd">
<!-- Generated by graphviz version 2.44.0 (0)
 -->
<!-- Title: ParserNodeProofs.parseNode_anchors_grow Pages: 1 -->
<svg width="908pt" height="454pt"
 viewBox="0.00 0.00 907.62 454.00" xmlns="http://www.w3.org/2000/svg" xmlns:xlink="http://www.w3.org/1999/xlink">
<g id="graph0" class="graph" transform="scale(1 1) rotate(0) translate(4 450)">
<title>ParserNodeProofs.parseNode_anchors_grow</title>
<polygon fill="white" stroke="transparent" points="-4,4 -4,-450 903.62,-450 903.62,4 -4,4"/>
<text text-anchor="middle" x="449.81" y="-431.6" font-family="Helvetica Bold" font-size="13.00">ParserNodeProofs.parseNode_anchors_grow</text>
<text text-anchor="middle" x="449.81" y="-417.6" font-family="Helvetica Bold" font-size="13.00">Anchor set grows monotonically through parseNode</text>
<text text-anchor="middle" x="449.81" y="-403.6" font-family="Helvetica Bold" font-size="13.00">(L4YAML.Proofs.ParserNodeProofs)</text>
<g id="clust1" class="cluster">
<title>cluster_functions</title>
<polygon fill="none" stroke="#4a90d9" stroke-dasharray="5,2" points="393.38,-98 393.38,-388 891.62,-388 891.62,-98 393.38,-98"/>
<text text-anchor="middle" x="642.5" y="-373.6" font-family="Helvetica Bold" font-size="13.00" fill="#4a90d9">Functions</text>
</g>
<g id="clust2" class="cluster">
<title>cluster_key</title>
<polygon fill="none" stroke="#d4a017" stroke-dasharray="5,2" points="298.14,-8 298.14,-90 668.62,-90 668.62,-8 298.14,-8"/>
<text text-anchor="middle" x="483.38" y="-75.6" font-family="Helvetica Bold" font-size="13.00" fill="#d4a017">Key Theorem</text>
</g>
<g id="clust3" class="cluster">
<title>cluster_proofs</title>
<polygon fill="none" stroke="#28a745" stroke-dasharray="5,2" points="8,-59 8,-139 277.14,-139 277.14,-59 8,-59"/>
<text text-anchor="middle" x="142.57" y="-124.6" font-family="Helvetica Bold" font-size="13.00" fill="#28a745">Proof Dependencies</text>
</g>
<!-- ParserNodeProofs.ParseNodeAG -->
<g id="node1" class="node">
<title>ParserNodeProofs.ParseNodeAG</title>
<polygon fill="#dce9f7" stroke="#4a90d9" points="565.38,-142 401.38,-142 401.38,-106 565.38,-106 565.38,-142"/>
<text text-anchor="middle" x="483.38" y="-127" font-family="Helvetica" font-size="10.00">ParserNodeProofs.ParseNodeAG</text>
<text text-anchor="middle" x="483.38" y="-116" font-family="Helvetica" font-size="10.00">(def)</text>
</g>
<!-- L4YAML.TokenParser.ParseState -->
<g id="node2" class="node">
<title>L4YAML.TokenParser.ParseState</title>
<polygon fill="#dce9f7" stroke="#4a90d9" points="864.62,-358 740.62,-358 740.62,-322 864.62,-322 864.62,-358"/>
<text text-anchor="middle" x="802.62" y="-343" font-family="Helvetica" font-size="10.00">TokenParser.ParseState</text>
<text text-anchor="middle" x="802.62" y="-332" font-family="Helvetica" font-size="10.00">(inductive)</text>
</g>
<!-- L4YAML.YamlValue -->
<g id="node3" class="node">
<title>L4YAML.YamlValue</title>
<polygon fill="#dce9f7" stroke="#4a90d9" points="833.62,-304 771.62,-304 771.62,-268 833.62,-268 833.62,-304"/>
<text text-anchor="middle" x="802.62" y="-289" font-family="Helvetica" font-size="10.00">YamlValue</text>
<text text-anchor="middle" x="802.62" y="-278" font-family="Helvetica" font-size="10.00">(inductive)</text>
</g>
<!-- L4YAML.TokenParser.parseNode -->
<g id="node4" class="node">
<title>L4YAML.TokenParser.parseNode</title>
<polygon fill="#dce9f7" stroke="#4a90d9" points="863.62,-250 741.62,-250 741.62,-214 863.62,-214 863.62,-250"/>
<text text-anchor="middle" x="802.62" y="-235" font-family="Helvetica" font-size="10.00">TokenParser.parseNode</text>
<text text-anchor="middle" x="802.62" y="-224" font-family="Helvetica" font-size="10.00">(def)</text>
</g>
<!-- L4YAML.TokenParser.ParseState.anchors -->
<g id="node5" class="node">
<title>L4YAML.TokenParser.ParseState.anchors</title>
<polygon fill="#dce9f7" stroke="#4a90d9" points="883.62,-196 721.62,-196 721.62,-160 883.62,-160 883.62,-196"/>
<text text-anchor="middle" x="802.62" y="-181" font-family="Helvetica" font-size="10.00">TokenParser.ParseState.anchors</text>
<text text-anchor="middle" x="802.62" y="-170" font-family="Helvetica" font-size="10.00">(def)</text>
</g>
<!-- L4YAML.ScanError -->
<g id="node6" class="node">
<title>L4YAML.ScanError</title>
<polygon fill="#dce9f7" stroke="#4a90d9" points="833.62,-142 771.62,-142 771.62,-106 833.62,-106 833.62,-142"/>
<text text-anchor="middle" x="802.62" y="-127" font-family="Helvetica" font-size="10.00">ScanError</text>
<text text-anchor="middle" x="802.62" y="-116" font-family="Helvetica" font-size="10.00">(inductive)</text>
</g>
<!-- ParserNodeProofs.parseNode_anchors_grow -->
<g id="node7" class="node">
<title>ParserNodeProofs.parseNode_anchors_grow</title>
<polygon fill="#fff3cd" stroke="#d4a017" points="656.86,-30.54 656.86,-45.46 555.24,-56 411.53,-56 309.91,-45.46 309.91,-30.54 411.53,-20 555.24,-20 656.86,-30.54"/>
<polygon fill="none" stroke="#d4a017" points="660.86,-26.94 660.86,-49.06 555.45,-60 411.32,-60 305.9,-49.06 305.9,-26.94 411.32,-16 555.45,-16 660.86,-26.94"/>
<text text-anchor="middle" x="483.38" y="-34.9" font-family="Helvetica" font-size="12.00">ParserNodeProofs.parseNode_anchors_grow</text>
</g>
<!-- ParserNodeProofs.parseNode_anchors_grow&#45;&gt;L4YAML.TokenParser.ParseState -->
<g id="edge5" class="edge">
<title>ParserNodeProofs.parseNode_anchors_grow&#45;&gt;L4YAML.TokenParser.ParseState</title>
<path fill="none" stroke="#4a90d9" stroke-width="2" d="M610.92,-54.28C633.19,-62.77 653.91,-75.37 668.62,-94 691.12,-122.48 665.91,-223.01 678.62,-257 689.62,-286.39 696.1,-294.75 721.62,-313 725.47,-315.75 729.62,-318.23 733.93,-320.48"/>
<polygon fill="#4a90d9" stroke="#4a90d9" stroke-width="2" points="732.97,-322.74 740.34,-323.6 735.12,-318.33 732.97,-322.74"/>
<text text-anchor="middle" x="691.12" y="-300.6" font-family="Times-Roman" font-size="8.00" fill="#4a90d9">about</text>
</g>
<!-- ParserNodeProofs.parseNode_anchors_grow&#45;&gt;L4YAML.YamlValue -->
<g id="edge4" class="edge">
<title>ParserNodeProofs.parseNode_anchors_grow&#45;&gt;L4YAML.YamlValue</title>
<path fill="none" stroke="#4a90d9" stroke-width="2" d="M610.01,-54.46C632.49,-62.92 653.53,-75.47 668.62,-94 683.99,-112.86 669.76,-180.35 678.62,-203 690.06,-232.22 696.1,-240.75 721.62,-259 734.33,-268.09 750.32,-274.29 764.66,-278.43"/>
<polygon fill="#4a90d9" stroke="#4a90d9" stroke-width="2" points="764.14,-280.83 771.54,-280.3 765.43,-276.1 764.14,-280.83"/>
<text text-anchor="middle" x="691.12" y="-246.6" font-family="Times-Roman" font-size="8.00" fill="#4a90d9">about</text>
</g>
<!-- ParserNodeProofs.parseNode_anchors_grow&#45;&gt;L4YAML.TokenParser.parseNode -->
<g id="edge3" class="edge">
<title>ParserNodeProofs.parseNode_anchors_grow&#45;&gt;L4YAML.TokenParser.parseNode</title>
<path fill="none" stroke="#4a90d9" stroke-width="2" d="M606.91,-54.79C630.17,-63.19 652.31,-75.63 668.62,-94 685.41,-112.9 668.31,-126.92 678.62,-150 691.28,-178.33 696.3,-187.06 721.62,-205 725.82,-207.97 730.36,-210.63 735.09,-213.02"/>
<polygon fill="#4a90d9" stroke="#4a90d9" stroke-width="2" points="734.24,-215.33 741.62,-216.1 736.33,-210.9 734.24,-215.33"/>
<text text-anchor="middle" x="691.12" y="-192.6" font-family="Times-Roman" font-size="8.00" fill="#4a90d9">about</text>
</g>
<!-- ParserNodeProofs.parseNode_anchors_grow&#45;&gt;L4YAML.TokenParser.ParseState.anchors -->
<g id="edge2" class="edge">
<title>ParserNodeProofs.parseNode_anchors_grow&#45;&gt;L4YAML.TokenParser.ParseState.anchors</title>
<path fill="none" stroke="#4a90d9" stroke-width="2" d="M589.68,-56.6C617.18,-64.91 645.54,-76.85 668.62,-94 675.06,-98.78 673.51,-102.83 678.62,-109 695.68,-129.56 698.84,-137.05 721.62,-151 725.07,-153.11 728.7,-155.08 732.43,-156.91"/>
<polygon fill="#4a90d9" stroke="#4a90d9" stroke-width="2" points="731.42,-159.14 738.8,-159.87 733.48,-154.7 731.42,-159.14"/>
<text text-anchor="middle" x="691.12" y="-139.6" font-family="Times-Roman" font-size="8.00" fill="#4a90d9">about</text>
</g>
<!-- ParserNodeProofs.parseNode_anchors_grow&#45;&gt;L4YAML.ScanError -->
<g id="edge1" class="edge">
<title>ParserNodeProofs.parseNode_anchors_grow&#45;&gt;L4YAML.ScanError</title>
<path fill="none" stroke="#4a90d9" stroke-width="2" d="M562.8,-59.26C627.16,-76.7 715.42,-100.63 764.63,-113.97"/>
<polygon fill="#4a90d9" stroke="#4a90d9" stroke-width="2" points="764.2,-116.39 771.6,-115.86 765.48,-111.66 764.2,-116.39"/>
<text text-anchor="middle" x="691.12" y="-98.6" font-family="Times-Roman" font-size="8.00" fill="#4a90d9">about</text>
</g>
<!-- ParserNodeProofs.parseNode_ag_all -->
<g id="node8" class="node">
<title>ParserNodeProofs.parseNode_ag_all</title>
<ellipse fill="#d4edda" stroke="#28a745" cx="142.57" cy="-88" rx="126.64" ry="21.43"/>
<text text-anchor="middle" x="142.57" y="-91" font-family="Helvetica" font-size="10.00">ParserNodeProofs.parseNode_ag_all</text>
<text text-anchor="middle" x="142.57" y="-80" font-family="Helvetica" font-size="10.00">(ParserNodeProofs)</text>
</g>
<!-- ParserNodeProofs.parseNode_ag_all&#45;&gt;ParserNodeProofs.ParseNodeAG -->
<g id="edge7" class="edge">
<title>ParserNodeProofs.parseNode_ag_all&#45;&gt;ParserNodeProofs.ParseNodeAG</title>
<path fill="none" stroke="#999999" stroke-dasharray="1,5" d="M249.84,-99.29C296.93,-104.3 351.62,-110.11 396.12,-114.83"/>
<polygon fill="#999999" stroke="#999999" points="396.07,-116.59 401.22,-115.38 396.44,-113.11 396.07,-116.59"/>
</g>
<!-- ParserNodeProofs.parseNode_ag_all&#45;&gt;ParserNodeProofs.parseNode_anchors_grow -->
<g id="edge6" class="edge">
<title>ParserNodeProofs.parseNode_ag_all&#45;&gt;ParserNodeProofs.parseNode_anchors_grow</title>
<path fill="none" stroke="#28a745" d="M238.4,-74.01C275.44,-68.54 318.43,-62.2 357.91,-56.37"/>
<polygon fill="#28a745" stroke="#28a745" points="358.67,-58.73 365.24,-55.29 357.96,-53.89 358.67,-58.73"/>
</g>
</g>
</svg>
