<?xml version="1.0" encoding="UTF-8" standalone="no"?>
<!DOCTYPE svg PUBLIC "-//W3C//DTD SVG 1.1//EN"
 "http://www.w3.org/Graphics/SVG/1.1/DTD/svg11.dtd">
<!-- Generated by graphviz version 2.44.0 (0)
 -->
<!-- Title: ParserGrammable.advance_tokens Pages: 1 -->
<svg width="668pt" height="364pt"
 viewBox="0.00 0.00 667.85 364.00" xmlns="http://www.w3.org/2000/svg" xmlns:xlink="http://www.w3.org/1999/xlink">
<g id="graph0" class="graph" transform="scale(1 1) rotate(0) translate(4 360)">
<title>ParserGrammable.advance_tokens</title>
<polygon fill="white" stroke="transparent" points="-4,4 -4,-360 663.85,-360 663.85,4 -4,4"/>
<text text-anchor="middle" x="329.92" y="-341.6" font-family="Helvetica Bold" font-size="13.00">ParserGrammable.advance_tokens</text>
<text text-anchor="middle" x="329.92" y="-327.6" font-family="Helvetica Bold" font-size="13.00">(heuristic: used by 14 proofs)</text>
<text text-anchor="middle" x="329.92" y="-313.6" font-family="Helvetica Bold" font-size="13.00">(L4YAML.Proofs.ParserWfaProofs)</text>
<g id="clust1" class="cluster">
<title>cluster_functions</title>
<polygon fill="none" stroke="#4a90d9" stroke-dasharray="5,2" points="472.85,-8 472.85,-298 651.85,-298 651.85,-8 472.85,-8"/>
<text text-anchor="middle" x="562.35" y="-283.6" font-family="Helvetica Bold" font-size="13.00" fill="#4a90d9">Functions</text>
</g>
<g id="clust2" class="cluster">
<title>cluster_key</title>
<polygon fill="none" stroke="#d4a017" stroke-dasharray="5,2" points="131.99,-112 131.99,-194 427.85,-194 427.85,-112 131.99,-112"/>
<text text-anchor="middle" x="279.92" y="-179.6" font-family="Helvetica Bold" font-size="13.00" fill="#d4a017">Key Theorem</text>
</g>
<g id="clust4" class="cluster">
<title>cluster_stdlib</title>
<polygon fill="none" stroke="#e67e22" stroke-dasharray="5,2" points="0,-82 0,-210 110.99,-210 110.99,-82 0,-82"/>
<text text-anchor="middle" x="55.5" y="-195.6" font-family="Helvetica Bold" font-size="13.00" fill="#e67e22">Stdlib Lemmas</text>
</g>
<!-- L4YAML.Positioned -->
<g id="node1" class="node">
<title>L4YAML.Positioned</title>
<polygon fill="#dce9f7" stroke="#4a90d9" points="593.35,-268 531.35,-268 531.35,-232 593.35,-232 593.35,-268"/>
<text text-anchor="middle" x="562.35" y="-253" font-family="Helvetica" font-size="10.00">Positioned</text>
<text text-anchor="middle" x="562.35" y="-242" font-family="Helvetica" font-size="10.00">(inductive)</text>
</g>
<!-- L4YAML.TokenParser.ParseState.advance -->
<g id="node2" class="node">
<title>L4YAML.TokenParser.ParseState.advance</title>
<polygon fill="#dce9f7" stroke="#4a90d9" points="643.85,-214 480.85,-214 480.85,-178 643.85,-178 643.85,-214"/>
<text text-anchor="middle" x="562.35" y="-199" font-family="Helvetica" font-size="10.00">TokenParser.ParseState.advance</text>
<text text-anchor="middle" x="562.35" y="-188" font-family="Helvetica" font-size="10.00">(def)</text>
</g>
<!-- L4YAML.YamlToken -->
<g id="node3" class="node">
<title>L4YAML.YamlToken</title>
<polygon fill="#dce9f7" stroke="#4a90d9" points="594.35,-160 530.35,-160 530.35,-124 594.35,-124 594.35,-160"/>
<text text-anchor="middle" x="562.35" y="-145" font-family="Helvetica" font-size="10.00">YamlToken</text>
<text text-anchor="middle" x="562.35" y="-134" font-family="Helvetica" font-size="10.00">(inductive)</text>
</g>
<!-- L4YAML.TokenParser.ParseState -->
<g id="node4" class="node">
<title>L4YAML.TokenParser.ParseState</title>
<polygon fill="#dce9f7" stroke="#4a90d9" points="624.35,-106 500.35,-106 500.35,-70 624.35,-70 624.35,-106"/>
<text text-anchor="middle" x="562.35" y="-91" font-family="Helvetica" font-size="10.00">TokenParser.ParseState</text>
<text text-anchor="middle" x="562.35" y="-80" font-family="Helvetica" font-size="10.00">(inductive)</text>
</g>
<!-- L4YAML.TokenParser.ParseState.tokens -->
<g id="node5" class="node">
<title>L4YAML.TokenParser.ParseState.tokens</title>
<polygon fill="#dce9f7" stroke="#4a90d9" points="639.85,-52 484.85,-52 484.85,-16 639.85,-16 639.85,-52"/>
<text text-anchor="middle" x="562.35" y="-37" font-family="Helvetica" font-size="10.00">TokenParser.ParseState.tokens</text>
<text text-anchor="middle" x="562.35" y="-26" font-family="Helvetica" font-size="10.00">(def)</text>
</g>
<!-- L4YAML.Proofs.ParserGrammable.advance_tokens -->
<g id="node6" class="node">
<title>L4YAML.Proofs.ParserGrammable.advance_tokens</title>
<polygon fill="#fff3cd" stroke="#d4a017" points="415.78,-134.54 415.78,-149.46 336.19,-160 223.65,-160 144.07,-149.46 144.07,-134.54 223.65,-124 336.19,-124 415.78,-134.54"/>
<polygon fill="none" stroke="#d4a017" points="419.77,-131.04 419.77,-152.96 336.46,-164 223.38,-164 140.07,-152.96 140.07,-131.04 223.38,-120 336.46,-120 419.77,-131.04"/>
<text text-anchor="middle" x="279.92" y="-138.9" font-family="Helvetica" font-size="12.00">ParserGrammable.advance_tokens</text>
</g>
<!-- L4YAML.Proofs.ParserGrammable.advance_tokens&#45;&gt;L4YAML.Positioned -->
<g id="edge1" class="edge">
<title>L4YAML.Proofs.ParserGrammable.advance_tokens&#45;&gt;L4YAML.Positioned</title>
<path fill="none" stroke="#4a90d9" stroke-width="2" d="M329.28,-164.05C367.76,-181.19 423.2,-205.01 472.85,-223 489.48,-229.03 508.18,-234.87 524.09,-239.56"/>
<polygon fill="#4a90d9" stroke="#4a90d9" stroke-width="2" points="523.78,-242.03 531.19,-241.64 525.16,-237.32 523.78,-242.03"/>
<text text-anchor="middle" x="450.35" y="-221.6" font-family="Times-Roman" font-size="8.00" fill="#4a90d9">about</text>
</g>
<!-- L4YAML.Proofs.ParserGrammable.advance_tokens&#45;&gt;L4YAML.TokenParser.ParseState.advance -->
<g id="edge3" class="edge">
<title>L4YAML.Proofs.ParserGrammable.advance_tokens&#45;&gt;L4YAML.TokenParser.ParseState.advance</title>
<path fill="none" stroke="#4a90d9" stroke-width="2" d="M371.58,-159.46C404.16,-165.73 440.84,-172.79 473.2,-179.03"/>
<polygon fill="#4a90d9" stroke="#4a90d9" stroke-width="2" points="473.13,-181.51 480.47,-180.43 474.06,-176.7 473.13,-181.51"/>
<text text-anchor="middle" x="450.35" y="-178.6" font-family="Times-Roman" font-size="8.00" fill="#4a90d9">about</text>
</g>
<!-- L4YAML.Proofs.ParserGrammable.advance_tokens&#45;&gt;L4YAML.YamlToken -->
<g id="edge2" class="edge">
<title>L4YAML.Proofs.ParserGrammable.advance_tokens&#45;&gt;L4YAML.YamlToken</title>
<path fill="none" stroke="#4a90d9" stroke-width="2" d="M419.9,-142C457.79,-142 495.81,-142 522.87,-142"/>
<polygon fill="#4a90d9" stroke="#4a90d9" stroke-width="2" points="523.2,-144.45 530.2,-142 523.2,-139.55 523.2,-144.45"/>
<text text-anchor="middle" x="450.35" y="-144.6" font-family="Times-Roman" font-size="8.00" fill="#4a90d9">about</text>
</g>
<!-- L4YAML.Proofs.ParserGrammable.advance_tokens&#45;&gt;L4YAML.TokenParser.ParseState -->
<g id="edge5" class="edge">
<title>L4YAML.Proofs.ParserGrammable.advance_tokens&#45;&gt;L4YAML.TokenParser.ParseState</title>
<path fill="none" stroke="#4a90d9" stroke-width="2" d="M371.58,-124.54C411.04,-116.94 456.5,-108.19 493.03,-101.15"/>
<polygon fill="#4a90d9" stroke="#4a90d9" stroke-width="2" points="493.81,-103.5 500.22,-99.77 492.88,-98.69 493.81,-103.5"/>
<text text-anchor="middle" x="450.35" y="-113.6" font-family="Times-Roman" font-size="8.00" fill="#4a90d9">about</text>
</g>
<!-- L4YAML.Proofs.ParserGrammable.advance_tokens&#45;&gt;L4YAML.TokenParser.ParseState.tokens -->
<g id="edge4" class="edge">
<title>L4YAML.Proofs.ParserGrammable.advance_tokens&#45;&gt;L4YAML.TokenParser.ParseState.tokens</title>
<path fill="none" stroke="#4a90d9" stroke-width="2" d="M329.28,-119.95C367.76,-102.81 423.2,-78.99 472.85,-61 479.19,-58.7 485.83,-56.43 492.51,-54.24"/>
<polygon fill="#4a90d9" stroke="#4a90d9" stroke-width="2" points="493.28,-56.56 499.18,-52.08 491.77,-51.9 493.28,-56.56"/>
<text text-anchor="middle" x="450.35" y="-75.6" font-family="Times-Roman" font-size="8.00" fill="#4a90d9">about</text>
</g>
<!-- eq_self -->
<g id="node7" class="node">
<title>eq_self</title>
<ellipse fill="#fdebd0" stroke="#e67e22" cx="55.5" cy="-162" rx="28.01" ry="18"/>
<text text-anchor="middle" x="55.5" y="-159.5" font-family="Helvetica" font-size="10.00">eq_self</text>
</g>
<!-- eq_self&#45;&gt;L4YAML.Proofs.ParserGrammable.advance_tokens -->
<g id="edge6" class="edge">
<title>eq_self&#45;&gt;L4YAML.Proofs.ParserGrammable.advance_tokens</title>
<path fill="none" stroke="#e67e22" stroke-width="2" d="M83.77,-159.55C98.67,-158.21 118.39,-156.44 139.55,-154.53"/>
<polygon fill="#e67e22" stroke="#e67e22" stroke-width="2" points="140.03,-156.95 146.78,-153.88 139.59,-152.07 140.03,-156.95"/>
</g>
<!-- of_eq_true -->
<g id="node8" class="node">
<title>of_eq_true</title>
<ellipse fill="#fdebd0" stroke="#e67e22" cx="55.5" cy="-108" rx="36.49" ry="18"/>
<text text-anchor="middle" x="55.5" y="-105.5" font-family="Helvetica" font-size="10.00">of_eq_true</text>
</g>
<!-- of_eq_true&#45;&gt;L4YAML.Proofs.ParserGrammable.advance_tokens -->
<g id="edge7" class="edge">
<title>of_eq_true&#45;&gt;L4YAML.Proofs.ParserGrammable.advance_tokens</title>
<path fill="none" stroke="#e67e22" stroke-width="2" d="M90.76,-113.24C111.88,-116.47 140.26,-120.8 168.57,-125.13"/>
<polygon fill="#e67e22" stroke="#e67e22" stroke-width="2" points="168.47,-127.59 175.76,-126.23 169.21,-122.75 168.47,-127.59"/>
</g>
</g>
</svg>
