<?xml version="1.0" encoding="UTF-8" standalone="no"?>
<!DOCTYPE svg PUBLIC "-//W3C//DTD SVG 1.1//EN"
 "http://www.w3.org/Graphics/SVG/1.1/DTD/svg11.dtd">
<!-- Generated by graphviz version 2.44.0 (0)
 -->
<!-- Title: PreprocessProduction.GStar_SSWhite_to_SSeparateInLine Pages: 1 -->
<svg width="939pt" height="400pt"
 viewBox="0.00 0.00 939.12 400.00" xmlns="http://www.w3.org/2000/svg" xmlns:xlink="http://www.w3.org/1999/xlink">
<g id="graph0" class="graph" transform="scale(1 1) rotate(0) translate(4 396)">
<title>PreprocessProduction.GStar_SSWhite_to_SSeparateInLine</title>
<polygon fill="white" stroke="transparent" points="-4,4 -4,-396 935.12,-396 935.12,4 -4,4"/>
<text text-anchor="middle" x="465.56" y="-377.6" font-family="Helvetica Bold" font-size="13.00">PreprocessProduction.GStar_SSWhite_to_SSeparateInLine</text>
<text text-anchor="middle" x="465.56" y="-363.6" font-family="Helvetica Bold" font-size="13.00">(heuristic: used by 5 proofs)</text>
<text text-anchor="middle" x="465.56" y="-349.6" font-family="Helvetica Bold" font-size="13.00">(L4YAML.Proofs.PreprocessProduction)</text>
<g id="clust1" class="cluster">
<title>cluster_functions</title>
<polygon fill="none" stroke="#4a90d9" stroke-dasharray="5,2" points="453.08,-98 453.08,-334 923.12,-334 923.12,-98 453.08,-98"/>
<text text-anchor="middle" x="688.1" y="-319.6" font-family="Helvetica Bold" font-size="13.00" fill="#4a90d9">Functions</text>
</g>
<g id="clust2" class="cluster">
<title>cluster_key</title>
<polygon fill="none" stroke="#d4a017" stroke-dasharray="5,2" points="267.03,-8 267.03,-90 736.12,-90 736.12,-8 267.03,-8"/>
<text text-anchor="middle" x="501.58" y="-75.6" font-family="Helvetica Bold" font-size="13.00" fill="#d4a017">Key Theorem</text>
</g>
<g id="clust3" class="cluster">
<title>cluster_proofs</title>
<polygon fill="none" stroke="#28a745" stroke-dasharray="5,2" points="8,-182 8,-262 246.03,-262 246.03,-182 8,-182"/>
<text text-anchor="middle" x="127.02" y="-247.6" font-family="Helvetica Bold" font-size="13.00" fill="#28a745">Proof Dependencies</text>
</g>
<!-- L4YAML.Surface.SSWhite -->
<g id="node1" class="node">
<title>L4YAML.Surface.SSWhite</title>
<g id="a_node1"><a xlink:href="../../../api/L4YAML/Surface/Basic.html#L4YAML.Surface.SSWhite" xlink:title="Surface.SSWhite\n(inductive)" target="_blank">
<polygon fill="#dce9f7" stroke="#4a90d9" points="898.62,-142 805.62,-142 805.62,-106 898.62,-106 898.62,-142"/>
<text text-anchor="middle" x="852.12" y="-127" font-family="Helvetica" font-size="10.00">Surface.SSWhite</text>
<text text-anchor="middle" x="852.12" y="-116" font-family="Helvetica" font-size="10.00">(inductive)</text>
</a>
</g>
</g>
<!-- L4YAML.Surface.SSeparateInLine -->
<g id="node2" class="node">
<title>L4YAML.Surface.SSeparateInLine</title>
<g id="a_node2"><a xlink:href="../../../api/L4YAML/Surface/Basic.html#L4YAML.Surface.SSeparateInLine" xlink:title="Surface.SSeparateInLine\n(inductive)" target="_blank">
<polygon fill="#dce9f7" stroke="#4a90d9" points="915.12,-196 789.12,-196 789.12,-160 915.12,-160 915.12,-196"/>
<text text-anchor="middle" x="852.12" y="-181" font-family="Helvetica" font-size="10.00">Surface.SSeparateInLine</text>
<text text-anchor="middle" x="852.12" y="-170" font-family="Helvetica" font-size="10.00">(inductive)</text>
</a>
</g>
</g>
<!-- L4YAML.Surface.SurfPos -->
<g id="node3" class="node">
<title>L4YAML.Surface.SurfPos</title>
<g id="a_node3"><a xlink:href="../../../api/L4YAML/Surface/Combinators.html#L4YAML.Surface.SurfPos" xlink:title="Surface.SurfPos\n(inductive)" target="_blank">
<polygon fill="#dce9f7" stroke="#4a90d9" points="897.12,-304 807.12,-304 807.12,-268 897.12,-268 897.12,-304"/>
<text text-anchor="middle" x="852.12" y="-289" font-family="Helvetica" font-size="10.00">Surface.SurfPos</text>
<text text-anchor="middle" x="852.12" y="-278" font-family="Helvetica" font-size="10.00">(inductive)</text>
</a>
</g>
</g>
<!-- L4YAML.Surface.GPlus -->
<g id="node4" class="node">
<title>L4YAML.Surface.GPlus</title>
<g id="a_node4"><a xlink:href="../../../api/L4YAML/Surface/Combinators.html#L4YAML.Surface.GPlus" xlink:title="Surface.GPlus\n(inductive)" target="_blank">
<polygon fill="#dce9f7" stroke="#4a90d9" points="542.08,-304 461.08,-304 461.08,-268 542.08,-268 542.08,-304"/>
<text text-anchor="middle" x="501.58" y="-289" font-family="Helvetica" font-size="10.00">Surface.GPlus</text>
<text text-anchor="middle" x="501.58" y="-278" font-family="Helvetica" font-size="10.00">(inductive)</text>
</a>
</g>
</g>
<!-- L4YAML.Surface.GStar -->
<g id="node5" class="node">
<title>L4YAML.Surface.GStar</title>
<g id="a_node5"><a xlink:href="../../../api/L4YAML/Surface/Combinators.html#L4YAML.Surface.GStar" xlink:title="Surface.GStar\n(inductive)" target="_blank">
<polygon fill="#dce9f7" stroke="#4a90d9" points="892.12,-250 812.12,-250 812.12,-214 892.12,-214 892.12,-250"/>
<text text-anchor="middle" x="852.12" y="-235" font-family="Helvetica" font-size="10.00">Surface.GStar</text>
<text text-anchor="middle" x="852.12" y="-224" font-family="Helvetica" font-size="10.00">(inductive)</text>
</a>
</g>
</g>
<!-- L4YAML.Proofs.PreprocessProduction.GStar_SSWhite_to_SSeparateInLine -->
<g id="node6" class="node">
<title>L4YAML.Proofs.PreprocessProduction.GStar_SSWhite_to_SSeparateInLine</title>
<g id="a_node6"><a xlink:href="../../../api/L4YAML/Proofs/PreprocessProduction.html#L4YAML.Proofs.PreprocessProduction.GStar_SSWhite_to_SSeparateInLine" xlink:title="PreprocessProduction.GStar_SSWhite_to_SSeparateInLine" target="_blank">
<polygon fill="#fff3cd" stroke="#d4a017" points="724.17,-30.54 724.17,-45.46 593.78,-56 409.38,-56 278.99,-45.46 278.99,-30.54 409.38,-20 593.78,-20 724.17,-30.54"/>
<polygon fill="none" stroke="#d4a017" points="728.17,-26.85 728.17,-49.15 593.94,-60 409.22,-60 274.99,-49.15 274.99,-26.85 409.22,-16 593.94,-16 728.17,-26.85"/>
<text text-anchor="middle" x="501.58" y="-34.9" font-family="Helvetica" font-size="12.00">PreprocessProduction.GStar_SSWhite_to_SSeparateInLine</text>
</a>
</g>
</g>
<!-- L4YAML.Proofs.PreprocessProduction.GStar_SSWhite_to_SSeparateInLine&#45;&gt;L4YAML.Surface.SSWhite -->
<g id="edge1" class="edge">
<title>L4YAML.Proofs.PreprocessProduction.GStar_SSWhite_to_SSeparateInLine&#45;&gt;L4YAML.Surface.SSWhite</title>
<path fill="none" stroke="#4a90d9" stroke-width="2" d="M684.52,-52.69C713.97,-58 743.76,-65.22 771.12,-75 788.97,-81.38 807.13,-92.08 821.62,-101.86"/>
<polygon fill="#4a90d9" stroke="#4a90d9" stroke-width="2" points="820.44,-104.03 827.59,-105.98 823.22,-99.99 820.44,-104.03"/>
<text text-anchor="middle" x="758.62" y="-77.6" font-family="Times-Roman" font-size="8.00" fill="#4a90d9">about</text>
</g>
<!-- L4YAML.Proofs.PreprocessProduction.GStar_SSWhite_to_SSeparateInLine&#45;&gt;L4YAML.Surface.SSeparateInLine -->
<g id="edge4" class="edge">
<title>L4YAML.Proofs.PreprocessProduction.GStar_SSWhite_to_SSeparateInLine&#45;&gt;L4YAML.Surface.SSeparateInLine</title>
<path fill="none" stroke="#4a90d9" stroke-width="2" d="M626.22,-57.47C662.71,-65.88 701.99,-77.67 736.12,-94 753.85,-102.48 758.07,-106.32 771.12,-121 781.46,-132.62 777.44,-140.74 789.12,-151 791.14,-152.77 793.29,-154.44 795.53,-156.01"/>
<polygon fill="#4a90d9" stroke="#4a90d9" stroke-width="2" points="794.45,-158.23 801.66,-159.95 797.1,-154.1 794.45,-158.23"/>
<text text-anchor="middle" x="758.62" y="-123.6" font-family="Times-Roman" font-size="8.00" fill="#4a90d9">about</text>
</g>
<!-- L4YAML.Proofs.PreprocessProduction.GStar_SSWhite_to_SSeparateInLine&#45;&gt;L4YAML.Surface.SurfPos -->
<g id="edge2" class="edge">
<title>L4YAML.Proofs.PreprocessProduction.GStar_SSWhite_to_SSeparateInLine&#45;&gt;L4YAML.Surface.SurfPos</title>
<path fill="none" stroke="#4a90d9" stroke-width="2" d="M674.58,-53.56C697.91,-62.5 719.5,-75.45 736.12,-94 747.93,-107.18 740.54,-156.21 746.12,-173 753.23,-194.34 761.12,-196.85 771.12,-217 780.15,-235.19 774.81,-244.6 789.12,-259 792.57,-262.47 796.54,-265.52 800.77,-268.21"/>
<polygon fill="#4a90d9" stroke="#4a90d9" stroke-width="2" points="799.83,-270.49 807.11,-271.88 802.28,-266.25 799.83,-270.49"/>
<text text-anchor="middle" x="758.62" y="-219.6" font-family="Times-Roman" font-size="8.00" fill="#4a90d9">about</text>
</g>
<!-- L4YAML.Proofs.PreprocessProduction.GStar_SSWhite_to_SSeparateInLine&#45;&gt;L4YAML.Surface.GStar -->
<g id="edge3" class="edge">
<title>L4YAML.Proofs.PreprocessProduction.GStar_SSWhite_to_SSeparateInLine&#45;&gt;L4YAML.Surface.GStar</title>
<path fill="none" stroke="#4a90d9" stroke-width="2" d="M667.53,-54.08C692.91,-62.8 717,-75.54 736.12,-94 748.07,-105.53 738.41,-115.29 746.12,-130 754.18,-145.37 762.24,-145.09 771.12,-160 782.16,-178.5 774.12,-189.54 789.12,-205 793.75,-209.76 799.35,-213.74 805.28,-217.05"/>
<polygon fill="#4a90d9" stroke="#4a90d9" stroke-width="2" points="804.46,-219.38 811.81,-220.37 806.69,-215.01 804.46,-219.38"/>
<text text-anchor="middle" x="758.62" y="-162.6" font-family="Times-Roman" font-size="8.00" fill="#4a90d9">about</text>
</g>
<!-- L4YAML.Proofs.CouplingBridge.GStar_to_GPlus -->
<g id="node7" class="node">
<title>L4YAML.Proofs.CouplingBridge.GStar_to_GPlus</title>
<g id="a_node7"><a xlink:href="../../../api/L4YAML/Proofs/CouplingBridge.html#L4YAML.Proofs.CouplingBridge.GStar_to_GPlus" xlink:title="CouplingBridge.GStar_to_GPlus\n(CouplingBridge)" target="_blank">
<ellipse fill="#d4edda" stroke="#28a745" cx="127.02" cy="-211" rx="111.03" ry="21.43"/>
<text text-anchor="middle" x="127.02" y="-214" font-family="Helvetica" font-size="10.00">CouplingBridge.GStar_to_GPlus</text>
<text text-anchor="middle" x="127.02" y="-203" font-family="Helvetica" font-size="10.00">(CouplingBridge)</text>
</a>
</g>
</g>
<!-- L4YAML.Proofs.CouplingBridge.GStar_to_GPlus&#45;&gt;L4YAML.Surface.SurfPos -->
<g id="edge6" class="edge">
<title>L4YAML.Proofs.CouplingBridge.GStar_to_GPlus&#45;&gt;L4YAML.Surface.SurfPos</title>
<path fill="none" stroke="#999999" stroke-dasharray="1,5" d="M230.2,-219.02C402.62,-232.55 733.03,-258.52 736.12,-259 757.89,-262.39 781.63,-267.69 801.86,-272.7"/>
<polygon fill="#999999" stroke="#999999" points="801.65,-274.45 806.93,-273.96 802.5,-271.05 801.65,-274.45"/>
</g>
<!-- L4YAML.Proofs.CouplingBridge.GStar_to_GPlus&#45;&gt;L4YAML.Surface.GPlus -->
<g id="edge8" class="edge">
<title>L4YAML.Proofs.CouplingBridge.GStar_to_GPlus&#45;&gt;L4YAML.Surface.GPlus</title>
<path fill="none" stroke="#999999" stroke-dasharray="1,5" d="M177.22,-230.02C200.76,-238.47 229.53,-247.88 256.03,-254 324.66,-269.86 406.07,-278.55 455.49,-282.74"/>
<polygon fill="#999999" stroke="#999999" points="455.64,-284.5 460.77,-283.18 455.93,-281.02 455.64,-284.5"/>
</g>
<!-- L4YAML.Proofs.CouplingBridge.GStar_to_GPlus&#45;&gt;L4YAML.Surface.GStar -->
<g id="edge7" class="edge">
<title>L4YAML.Proofs.CouplingBridge.GStar_to_GPlus&#45;&gt;L4YAML.Surface.GStar</title>
<path fill="none" stroke="#999999" stroke-dasharray="1,5" d="M236.87,-207.79C360.33,-204.32 567.69,-199.02 746.12,-197 757.23,-196.87 760.26,-194.69 771.12,-197 779.69,-198.82 781.11,-201.47 789.12,-205 795.03,-207.6 801.26,-210.33 807.41,-213.01"/>
<polygon fill="#999999" stroke="#999999" points="806.8,-214.65 812.08,-215.05 808.2,-211.45 806.8,-214.65"/>
</g>
<!-- L4YAML.Proofs.CouplingBridge.GStar_to_GPlus&#45;&gt;L4YAML.Proofs.PreprocessProduction.GStar_SSWhite_to_SSeparateInLine -->
<g id="edge5" class="edge">
<title>L4YAML.Proofs.CouplingBridge.GStar_to_GPlus&#45;&gt;L4YAML.Proofs.PreprocessProduction.GStar_SSWhite_to_SSeparateInLine</title>
<path fill="none" stroke="#28a745" d="M147.02,-189.83C171.96,-163.38 218.31,-118.59 267.03,-94 297.79,-78.48 333.02,-67.14 366.63,-58.9"/>
<polygon fill="#28a745" stroke="#28a745" points="367.54,-61.21 373.77,-57.19 366.4,-56.44 367.54,-61.21"/>
</g>
</g>
</svg>
