<?xml version="1.0" encoding="UTF-8" standalone="no"?>
<!DOCTYPE svg PUBLIC "-//W3C//DTD SVG 1.1//EN"
 "http://www.w3.org/Graphics/SVG/1.1/DTD/svg11.dtd">
<!-- Generated by graphviz version 2.44.0 (0)
 -->
<!-- Title: ScannerCorrectness.advanceN_preserves_tokens Pages: 1 -->
<svg width="1010pt" height="454pt"
 viewBox="0.00 0.00 1009.75 454.00" xmlns="http://www.w3.org/2000/svg" xmlns:xlink="http://www.w3.org/1999/xlink">
<g id="graph0" class="graph" transform="scale(1 1) rotate(0) translate(4 450)">
<title>ScannerCorrectness.advanceN_preserves_tokens</title>
<polygon fill="white" stroke="transparent" points="-4,4 -4,-450 1005.75,-450 1005.75,4 -4,4"/>
<text text-anchor="middle" x="500.88" y="-431.6" font-family="Helvetica Bold" font-size="13.00">ScannerCorrectness.advanceN_preserves_tokens</text>
<text text-anchor="middle" x="500.88" y="-417.6" font-family="Helvetica Bold" font-size="13.00">(heuristic: used by 8 proofs)</text>
<text text-anchor="middle" x="500.88" y="-403.6" font-family="Helvetica Bold" font-size="13.00">(L4YAML.Proofs.ScannerCorrectness)</text>
<g id="clust1" class="cluster">
<title>cluster_functions</title>
<polygon fill="none" stroke="#4a90d9" stroke-dasharray="5,2" points="528.69,-98 528.69,-388 993.75,-388 993.75,-98 528.69,-98"/>
<text text-anchor="middle" x="761.22" y="-373.6" font-family="Helvetica Bold" font-size="13.00" fill="#4a90d9">Functions</text>
</g>
<g id="clust2" class="cluster">
<title>cluster_key</title>
<polygon fill="none" stroke="#d4a017" stroke-dasharray="5,2" points="405.62,-8 405.62,-90 810.75,-90 810.75,-8 405.62,-8"/>
<text text-anchor="middle" x="608.19" y="-75.6" font-family="Helvetica Bold" font-size="13.00" fill="#d4a017">Key Theorem</text>
</g>
<g id="clust3" class="cluster">
<title>cluster_proofs</title>
<polygon fill="none" stroke="#28a745" stroke-dasharray="5,2" points="8,-205 8,-285 384.62,-285 384.62,-205 8,-205"/>
<text text-anchor="middle" x="196.31" y="-270.6" font-family="Helvetica Bold" font-size="13.00" fill="#28a745">Proof Dependencies</text>
</g>
<!-- L4YAML.Scanner.ScannerState.advanceN -->
<g id="node1" class="node">
<title>L4YAML.Scanner.ScannerState.advanceN</title>
<polygon fill="#dce9f7" stroke="#4a90d9" points="985.75,-142 863.75,-142 863.75,-106 985.75,-106 985.75,-142"/>
<text text-anchor="middle" x="924.75" y="-127" font-family="Helvetica" font-size="10.00">ScannerState.advanceN</text>
<text text-anchor="middle" x="924.75" y="-116" font-family="Helvetica" font-size="10.00">(def)</text>
</g>
<!-- L4YAML.Positioned -->
<g id="node2" class="node">
<title>L4YAML.Positioned</title>
<polygon fill="#dce9f7" stroke="#4a90d9" points="955.75,-358 893.75,-358 893.75,-322 955.75,-322 955.75,-358"/>
<text text-anchor="middle" x="924.75" y="-343" font-family="Helvetica" font-size="10.00">Positioned</text>
<text text-anchor="middle" x="924.75" y="-332" font-family="Helvetica" font-size="10.00">(inductive)</text>
</g>
<!-- L4YAML.Scanner.ScannerState -->
<g id="node3" class="node">
<title>L4YAML.Scanner.ScannerState</title>
<polygon fill="#dce9f7" stroke="#4a90d9" points="962.75,-304 886.75,-304 886.75,-268 962.75,-268 962.75,-304"/>
<text text-anchor="middle" x="924.75" y="-289" font-family="Helvetica" font-size="10.00">ScannerState</text>
<text text-anchor="middle" x="924.75" y="-278" font-family="Helvetica" font-size="10.00">(inductive)</text>
</g>
<!-- L4YAML.YamlToken -->
<g id="node4" class="node">
<title>L4YAML.YamlToken</title>
<polygon fill="#dce9f7" stroke="#4a90d9" points="956.75,-250 892.75,-250 892.75,-214 956.75,-214 956.75,-250"/>
<text text-anchor="middle" x="924.75" y="-235" font-family="Helvetica" font-size="10.00">YamlToken</text>
<text text-anchor="middle" x="924.75" y="-224" font-family="Helvetica" font-size="10.00">(inductive)</text>
</g>
<!-- L4YAML.Scanner.ScannerState.tokens -->
<g id="node5" class="node">
<title>L4YAML.Scanner.ScannerState.tokens</title>
<polygon fill="#dce9f7" stroke="#4a90d9" points="978.25,-196 871.25,-196 871.25,-160 978.25,-160 978.25,-196"/>
<text text-anchor="middle" x="924.75" y="-181" font-family="Helvetica" font-size="10.00">ScannerState.tokens</text>
<text text-anchor="middle" x="924.75" y="-170" font-family="Helvetica" font-size="10.00">(def)</text>
</g>
<!-- L4YAML.Scanner.ScannerState.advanceNLoop -->
<g id="node6" class="node">
<title>L4YAML.Scanner.ScannerState.advanceNLoop</title>
<polygon fill="#dce9f7" stroke="#4a90d9" points="679.69,-358 536.69,-358 536.69,-322 679.69,-322 679.69,-358"/>
<text text-anchor="middle" x="608.19" y="-343" font-family="Helvetica" font-size="10.00">ScannerState.advanceNLoop</text>
<text text-anchor="middle" x="608.19" y="-332" font-family="Helvetica" font-size="10.00">(def)</text>
</g>
<!-- L4YAML.Proofs.ScannerCorrectness.advanceN_preserves_tokens -->
<g id="node7" class="node">
<title>L4YAML.Proofs.ScannerCorrectness.advanceN_preserves_tokens</title>
<polygon fill="#fff3cd" stroke="#d4a017" points="798.81,-30.54 798.81,-45.46 687.15,-56 529.23,-56 417.56,-45.46 417.56,-30.54 529.23,-20 687.15,-20 798.81,-30.54"/>
<polygon fill="none" stroke="#d4a017" points="802.82,-26.9 802.82,-49.1 687.34,-60 529.04,-60 413.56,-49.1 413.56,-26.9 529.04,-16 687.34,-16 802.82,-26.9"/>
<text text-anchor="middle" x="608.19" y="-34.9" font-family="Helvetica" font-size="12.00">ScannerCorrectness.advanceN_preserves_tokens</text>
</g>
<!-- L4YAML.Proofs.ScannerCorrectness.advanceN_preserves_tokens&#45;&gt;L4YAML.Scanner.ScannerState.advanceN -->
<g id="edge5" class="edge">
<title>L4YAML.Proofs.ScannerCorrectness.advanceN_preserves_tokens&#45;&gt;L4YAML.Scanner.ScannerState.advanceN</title>
<path fill="none" stroke="#4a90d9" stroke-width="2" d="M803.01,-43.41C817.74,-46.88 832.16,-51.33 845.75,-57 868.5,-66.48 889.39,-85.22 903.82,-100.47"/>
<polygon fill="#4a90d9" stroke="#4a90d9" stroke-width="2" points="902.29,-102.43 908.84,-105.91 905.89,-99.11 902.29,-102.43"/>
<text text-anchor="middle" x="833.25" y="-59.6" font-family="Times-Roman" font-size="8.00" fill="#4a90d9">about</text>
</g>
<!-- L4YAML.Proofs.ScannerCorrectness.advanceN_preserves_tokens&#45;&gt;L4YAML.Positioned -->
<g id="edge2" class="edge">
<title>L4YAML.Proofs.ScannerCorrectness.advanceN_preserves_tokens&#45;&gt;L4YAML.Positioned</title>
<path fill="none" stroke="#4a90d9" stroke-width="2" d="M751.79,-53.97C774.43,-62.61 795.4,-75.35 810.75,-94 829.02,-116.2 812.84,-195.36 820.75,-223 827.37,-246.12 835.45,-249.26 845.75,-271 854.45,-289.35 849.52,-298.51 863.75,-313 870.26,-319.62 878.68,-324.76 887.15,-328.69"/>
<polygon fill="#4a90d9" stroke="#4a90d9" stroke-width="2" points="886.2,-330.95 893.6,-331.47 888.14,-326.45 886.2,-330.95"/>
<text text-anchor="middle" x="833.25" y="-273.6" font-family="Times-Roman" font-size="8.00" fill="#4a90d9">about</text>
</g>
<!-- L4YAML.Proofs.ScannerCorrectness.advanceN_preserves_tokens&#45;&gt;L4YAML.Scanner.ScannerState -->
<g id="edge4" class="edge">
<title>L4YAML.Proofs.ScannerCorrectness.advanceN_preserves_tokens&#45;&gt;L4YAML.Scanner.ScannerState</title>
<path fill="none" stroke="#4a90d9" stroke-width="2" d="M749.33,-54.18C772.64,-62.75 794.49,-75.41 810.75,-94 832.03,-118.31 810.92,-135.22 820.75,-166 828.07,-188.91 835.72,-192.14 845.75,-214 854.74,-233.58 848.85,-243.45 863.75,-259 868.4,-263.84 874.07,-267.89 880.05,-271.24"/>
<polygon fill="#4a90d9" stroke="#4a90d9" stroke-width="2" points="879.29,-273.6 886.63,-274.62 881.52,-269.24 879.29,-273.6"/>
<text text-anchor="middle" x="833.25" y="-216.6" font-family="Times-Roman" font-size="8.00" fill="#4a90d9">about</text>
</g>
<!-- L4YAML.Proofs.ScannerCorrectness.advanceN_preserves_tokens&#45;&gt;L4YAML.YamlToken -->
<g id="edge3" class="edge">
<title>L4YAML.Proofs.ScannerCorrectness.advanceN_preserves_tokens&#45;&gt;L4YAML.YamlToken</title>
<path fill="none" stroke="#4a90d9" stroke-width="2" d="M732.43,-55.75C760.22,-64.03 788.14,-76.19 810.75,-94 823.33,-103.91 839.03,-142.46 845.75,-157 855.31,-177.68 848.17,-188.38 863.75,-205 869.8,-211.44 877.66,-216.46 885.7,-220.32"/>
<polygon fill="#4a90d9" stroke="#4a90d9" stroke-width="2" points="885.07,-222.72 892.46,-223.3 887.04,-218.23 885.07,-222.72"/>
<text text-anchor="middle" x="833.25" y="-159.6" font-family="Times-Roman" font-size="8.00" fill="#4a90d9">about</text>
</g>
<!-- L4YAML.Proofs.ScannerCorrectness.advanceN_preserves_tokens&#45;&gt;L4YAML.Scanner.ScannerState.tokens -->
<g id="edge1" class="edge">
<title>L4YAML.Proofs.ScannerCorrectness.advanceN_preserves_tokens&#45;&gt;L4YAML.Scanner.ScannerState.tokens</title>
<path fill="none" stroke="#4a90d9" stroke-width="2" d="M765.23,-52.65C794.74,-61.57 823.34,-75.23 845.75,-96 864.62,-113.48 846.56,-131.87 863.75,-151 865.15,-152.55 866.65,-154.02 868.24,-155.41"/>
<polygon fill="#4a90d9" stroke="#4a90d9" stroke-width="2" points="866.89,-157.47 873.92,-159.83 869.9,-153.6 866.89,-157.47"/>
<text text-anchor="middle" x="833.25" y="-98.6" font-family="Times-Roman" font-size="8.00" fill="#4a90d9">about</text>
</g>
<!-- L4YAML.Proofs.ScannerCorrectness.advanceNLoop_preserves_tokens -->
<g id="node8" class="node">
<title>L4YAML.Proofs.ScannerCorrectness.advanceNLoop_preserves_tokens</title>
<ellipse fill="#d4edda" stroke="#28a745" cx="196.31" cy="-234" rx="180.12" ry="21.43"/>
<text text-anchor="middle" x="196.31" y="-237" font-family="Helvetica" font-size="10.00">ScannerCorrectness.advanceNLoop_preserves_tokens</text>
<text text-anchor="middle" x="196.31" y="-226" font-family="Helvetica" font-size="10.00">(ScannerCorrectness)</text>
</g>
<!-- L4YAML.Proofs.ScannerCorrectness.advanceNLoop_preserves_tokens&#45;&gt;L4YAML.Positioned -->
<g id="edge8" class="edge">
<title>L4YAML.Proofs.ScannerCorrectness.advanceNLoop_preserves_tokens&#45;&gt;L4YAML.Positioned</title>
<path fill="none" stroke="#999999" stroke-dasharray="1,5" d="M278.05,-252.92C316.5,-261.35 363.24,-270.76 405.62,-277 584.46,-303.32 632.34,-283.92 810.75,-313 837.03,-317.28 866.26,-324.33 888.4,-330.15"/>
<polygon fill="#999999" stroke="#999999" points="888.02,-331.86 893.3,-331.45 888.92,-328.48 888.02,-331.86"/>
</g>
<!-- L4YAML.Proofs.ScannerCorrectness.advanceNLoop_preserves_tokens&#45;&gt;L4YAML.Scanner.ScannerState -->
<g id="edge10" class="edge">
<title>L4YAML.Proofs.ScannerCorrectness.advanceNLoop_preserves_tokens&#45;&gt;L4YAML.Scanner.ScannerState</title>
<path fill="none" stroke="#999999" stroke-dasharray="1,5" d="M350.93,-245C519.66,-257.07 780.15,-275.72 881.44,-282.97"/>
<polygon fill="#999999" stroke="#999999" points="881.61,-284.74 886.72,-283.35 881.86,-281.25 881.61,-284.74"/>
</g>
<!-- L4YAML.Proofs.ScannerCorrectness.advanceNLoop_preserves_tokens&#45;&gt;L4YAML.YamlToken -->
<g id="edge9" class="edge">
<title>L4YAML.Proofs.ScannerCorrectness.advanceNLoop_preserves_tokens&#45;&gt;L4YAML.YamlToken</title>
<path fill="none" stroke="#999999" stroke-dasharray="1,5" d="M375,-231.11C499.73,-229.24 670.43,-226.96 820.75,-226 831.86,-225.93 834.65,-225.57 845.75,-226 859.41,-226.52 874.38,-227.56 887.53,-228.63"/>
<polygon fill="#999999" stroke="#999999" points="887.53,-230.39 892.66,-229.06 887.82,-226.9 887.53,-230.39"/>
</g>
<!-- L4YAML.Proofs.ScannerCorrectness.advanceNLoop_preserves_tokens&#45;&gt;L4YAML.Scanner.ScannerState.tokens -->
<g id="edge7" class="edge">
<title>L4YAML.Proofs.ScannerCorrectness.advanceNLoop_preserves_tokens&#45;&gt;L4YAML.Scanner.ScannerState.tokens</title>
<path fill="none" stroke="#999999" stroke-dasharray="1,5" d="M315.1,-218.03C440.24,-201.93 644.02,-178.19 820.75,-169 835.36,-168.24 851.11,-168.88 865.78,-170.1"/>
<polygon fill="#999999" stroke="#999999" points="866,-171.87 871.14,-170.57 866.31,-168.39 866,-171.87"/>
</g>
<!-- L4YAML.Proofs.ScannerCorrectness.advanceNLoop_preserves_tokens&#45;&gt;L4YAML.Scanner.ScannerState.advanceNLoop -->
<g id="edge11" class="edge">
<title>L4YAML.Proofs.ScannerCorrectness.advanceNLoop_preserves_tokens&#45;&gt;L4YAML.Scanner.ScannerState.advanceNLoop</title>
<path fill="none" stroke="#999999" stroke-dasharray="1,5" d="M243.86,-254.63C283.29,-271.32 341.69,-294.25 394.62,-308 439.31,-319.61 490.44,-327.47 531.36,-332.49"/>
<polygon fill="#999999" stroke="#999999" points="531.38,-334.26 536.55,-333.12 531.8,-330.78 531.38,-334.26"/>
</g>
<!-- L4YAML.Proofs.ScannerCorrectness.advanceNLoop_preserves_tokens&#45;&gt;L4YAML.Proofs.ScannerCorrectness.advanceN_preserves_tokens -->
<g id="edge6" class="edge">
<title>L4YAML.Proofs.ScannerCorrectness.advanceNLoop_preserves_tokens&#45;&gt;L4YAML.Proofs.ScannerCorrectness.advanceN_preserves_tokens</title>
<path fill="none" stroke="#28a745" d="M222.65,-212.98C260.33,-182.69 334.38,-126.79 405.62,-94 436.27,-79.89 471.22,-68.65 503.31,-60.05"/>
<polygon fill="#28a745" stroke="#28a745" points="503.96,-62.41 510.11,-58.26 502.71,-57.67 503.96,-62.41"/>
</g>
</g>
</svg>
