<?xml version="1.0" encoding="UTF-8" standalone="no"?>
<!DOCTYPE svg PUBLIC "-//W3C//DTD SVG 1.1//EN"
 "http://www.w3.org/Graphics/SVG/1.1/DTD/svg11.dtd">
<!-- Generated by graphviz version 2.44.0 (0)
 -->
<!-- Title: ScannerCorrectness.ScanHelpers.scanDoubleQuoted_adds_one_token Pages: 1 -->
<svg width="1659pt" height="846pt"
 viewBox="0.00 0.00 1658.68 846.39" xmlns="http://www.w3.org/2000/svg" xmlns:xlink="http://www.w3.org/1999/xlink">
<g id="graph0" class="graph" transform="scale(1 1) rotate(0) translate(4 842.39)">
<title>ScannerCorrectness.ScanHelpers.scanDoubleQuoted_adds_one_token</title>
<polygon fill="white" stroke="transparent" points="-4,4 -4,-842.39 1654.68,-842.39 1654.68,4 -4,4"/>
<text text-anchor="middle" x="825.34" y="-823.99" font-family="Helvetica Bold" font-size="13.00">ScannerCorrectness.ScanHelpers.scanDoubleQuoted_adds_one_token</text>
<text text-anchor="middle" x="825.34" y="-809.99" font-family="Helvetica Bold" font-size="13.00">(heuristic: used by 7 proofs)</text>
<text text-anchor="middle" x="825.34" y="-795.99" font-family="Helvetica Bold" font-size="13.00">(L4YAML.Proofs.ScannerCorrectness)</text>
<g id="clust1" class="cluster">
<title>cluster_functions</title>
<polygon fill="none" stroke="#4a90d9" stroke-dasharray="5,2" points="564.5,-181.26 564.5,-525.26 1642.68,-525.26 1642.68,-181.26 564.5,-181.26"/>
<text text-anchor="middle" x="1103.59" y="-510.86" font-family="Helvetica Bold" font-size="13.00" fill="#4a90d9">Functions</text>
</g>
<g id="clust2" class="cluster">
<title>cluster_key</title>
<polygon fill="none" stroke="#d4a017" stroke-dasharray="5,2" points="914.97,-685.26 914.97,-767.26 1474.68,-767.26 1474.68,-685.26 914.97,-685.26"/>
<text text-anchor="middle" x="1194.83" y="-752.86" font-family="Helvetica Bold" font-size="13.00" fill="#d4a017">Key Theorem</text>
</g>
<g id="clust3" class="cluster">
<title>cluster_proofs</title>
<polygon fill="none" stroke="#28a745" stroke-dasharray="5,2" points="8,-533.26 8,-673.26 893.97,-673.26 893.97,-533.26 8,-533.26"/>
<text text-anchor="middle" x="450.99" y="-658.86" font-family="Helvetica Bold" font-size="13.00" fill="#28a745">Proof Dependencies</text>
</g>
<!-- L4YAML.Positioned -->
<g id="node1" class="node">
<title>L4YAML.Positioned</title>
<g id="a_node1"><a xlink:href="../../../api/L4YAML/Token.html#L4YAML.Positioned" xlink:title="Positioned\n(inductive)" target="_blank">
<polygon fill="#dce9f7" stroke="#4a90d9" points="1612.18,-225.26 1550.18,-225.26 1550.18,-189.26 1612.18,-189.26 1612.18,-225.26"/>
<text text-anchor="middle" x="1581.18" y="-210.26" font-family="Helvetica" font-size="10.00">Positioned</text>
<text text-anchor="middle" x="1581.18" y="-199.26" font-family="Helvetica" font-size="10.00">(inductive)</text>
</a>
</g>
</g>
<!-- L4YAML.Scanner.ScannerState.advance -->
<g id="node2" class="node">
<title>L4YAML.Scanner.ScannerState.advance</title>
<g id="a_node2"><a xlink:href="../../../api/L4YAML/Scanner.html#L4YAML.Scanner.ScannerState.advance" xlink:title="ScannerState.advance\n(def)" target="_blank">
<polygon fill="#dce9f7" stroke="#4a90d9" points="687.5,-495.26 572.5,-495.26 572.5,-459.26 687.5,-459.26 687.5,-495.26"/>
<text text-anchor="middle" x="630" y="-480.26" font-family="Helvetica" font-size="10.00">ScannerState.advance</text>
<text text-anchor="middle" x="630" y="-469.26" font-family="Helvetica" font-size="10.00">(def)</text>
</a>
</g>
</g>
<!-- L4YAML.Scanner.ScannerState -->
<g id="node3" class="node">
<title>L4YAML.Scanner.ScannerState</title>
<g id="a_node3"><a xlink:href="../../../api/L4YAML/Scanner.html#L4YAML.Scanner.ScannerState" xlink:title="ScannerState\n(inductive)" target="_blank">
<polygon fill="#dce9f7" stroke="#4a90d9" points="1619.18,-279.26 1543.18,-279.26 1543.18,-243.26 1619.18,-243.26 1619.18,-279.26"/>
<text text-anchor="middle" x="1581.18" y="-264.26" font-family="Helvetica" font-size="10.00">ScannerState</text>
<text text-anchor="middle" x="1581.18" y="-253.26" font-family="Helvetica" font-size="10.00">(inductive)</text>
</a>
</g>
</g>
<!-- L4YAML.YamlToken -->
<g id="node4" class="node">
<title>L4YAML.YamlToken</title>
<g id="a_node4"><a xlink:href="../../../api/L4YAML/Token.html#L4YAML.YamlToken" xlink:title="YamlToken\n(inductive)" target="_blank">
<polygon fill="#dce9f7" stroke="#4a90d9" points="1613.18,-333.26 1549.18,-333.26 1549.18,-297.26 1613.18,-297.26 1613.18,-333.26"/>
<text text-anchor="middle" x="1581.18" y="-318.26" font-family="Helvetica" font-size="10.00">YamlToken</text>
<text text-anchor="middle" x="1581.18" y="-307.26" font-family="Helvetica" font-size="10.00">(inductive)</text>
</a>
</g>
</g>
<!-- L4YAML.Scanner.collectDoubleQuotedLoop -->
<g id="node5" class="node">
<title>L4YAML.Scanner.collectDoubleQuotedLoop</title>
<g id="a_node5"><a xlink:href="../../../api/L4YAML/Scanner.html#L4YAML.Scanner.collectDoubleQuotedLoop" xlink:title="collectDoubleQuotedLoop\n(def)" target="_blank">
<polygon fill="#dce9f7" stroke="#4a90d9" points="1258.83,-333.26 1130.83,-333.26 1130.83,-297.26 1258.83,-297.26 1258.83,-333.26"/>
<text text-anchor="middle" x="1194.83" y="-318.26" font-family="Helvetica" font-size="10.00">collectDoubleQuotedLoop</text>
<text text-anchor="middle" x="1194.83" y="-307.26" font-family="Helvetica" font-size="10.00">(def)</text>
</a>
</g>
</g>
<!-- L4YAML.YamlPos -->
<g id="node6" class="node">
<title>L4YAML.YamlPos</title>
<g id="a_node6"><a xlink:href="../../../api/L4YAML/Types.html#L4YAML.YamlPos" xlink:title="YamlPos\n(inductive)" target="_blank">
<polygon fill="#dce9f7" stroke="#4a90d9" points="1225.83,-279.26 1163.83,-279.26 1163.83,-243.26 1225.83,-243.26 1225.83,-279.26"/>
<text text-anchor="middle" x="1194.83" y="-264.26" font-family="Helvetica" font-size="10.00">YamlPos</text>
<text text-anchor="middle" x="1194.83" y="-253.26" font-family="Helvetica" font-size="10.00">(inductive)</text>
</a>
</g>
</g>
<!-- L4YAML.Scanner.scanDoubleQuoted -->
<g id="node7" class="node">
<title>L4YAML.Scanner.scanDoubleQuoted</title>
<g id="a_node7"><a xlink:href="../../../api/L4YAML/Scanner.html#L4YAML.Scanner.scanDoubleQuoted" xlink:title="scanDoubleQuoted\n(def)" target="_blank">
<polygon fill="#dce9f7" stroke="#4a90d9" points="1631.18,-495.26 1531.18,-495.26 1531.18,-459.26 1631.18,-459.26 1631.18,-495.26"/>
<text text-anchor="middle" x="1581.18" y="-480.26" font-family="Helvetica" font-size="10.00">scanDoubleQuoted</text>
<text text-anchor="middle" x="1581.18" y="-469.26" font-family="Helvetica" font-size="10.00">(def)</text>
</a>
</g>
</g>
<!-- L4YAML.Scanner.ScannerState.emitAt -->
<g id="node8" class="node">
<title>L4YAML.Scanner.ScannerState.emitAt</title>
<g id="a_node8"><a xlink:href="../../../api/L4YAML/Scanner.html#L4YAML.Scanner.ScannerState.emitAt" xlink:title="ScannerState.emitAt\n(def)" target="_blank">
<polygon fill="#dce9f7" stroke="#4a90d9" points="1248.33,-225.26 1141.33,-225.26 1141.33,-189.26 1248.33,-189.26 1248.33,-225.26"/>
<text text-anchor="middle" x="1194.83" y="-210.26" font-family="Helvetica" font-size="10.00">ScannerState.emitAt</text>
<text text-anchor="middle" x="1194.83" y="-199.26" font-family="Helvetica" font-size="10.00">(def)</text>
</a>
</g>
</g>
<!-- L4YAML.ScanError -->
<g id="node9" class="node">
<title>L4YAML.ScanError</title>
<g id="a_node9"><a xlink:href="../../../api/L4YAML/Token.html#L4YAML.ScanError" xlink:title="ScanError\n(inductive)" target="_blank">
<polygon fill="#dce9f7" stroke="#4a90d9" points="1612.18,-441.26 1550.18,-441.26 1550.18,-405.26 1612.18,-405.26 1612.18,-441.26"/>
<text text-anchor="middle" x="1581.18" y="-426.26" font-family="Helvetica" font-size="10.00">ScanError</text>
<text text-anchor="middle" x="1581.18" y="-415.26" font-family="Helvetica" font-size="10.00">(inductive)</text>
</a>
</g>
</g>
<!-- L4YAML.Scanner.ScannerState.tokens -->
<g id="node10" class="node">
<title>L4YAML.Scanner.ScannerState.tokens</title>
<g id="a_node10"><a xlink:href="../../../api/L4YAML/Scanner.html#L4YAML.Scanner.ScannerState.tokens" xlink:title="ScannerState.tokens\n(def)" target="_blank">
<polygon fill="#dce9f7" stroke="#4a90d9" points="1634.68,-387.26 1527.68,-387.26 1527.68,-351.26 1634.68,-351.26 1634.68,-387.26"/>
<text text-anchor="middle" x="1581.18" y="-372.26" font-family="Helvetica" font-size="10.00">ScannerState.tokens</text>
<text text-anchor="middle" x="1581.18" y="-361.26" font-family="Helvetica" font-size="10.00">(def)</text>
</a>
</g>
</g>
<!-- L4YAML.Proofs.ScannerCorrectness.ScanHelpers.scanDoubleQuoted_adds_one_token -->
<g id="node11" class="node">
<title>L4YAML.Proofs.ScannerCorrectness.ScanHelpers.scanDoubleQuoted_adds_one_token</title>
<g id="a_node11"><a xlink:href="../../../api/L4YAML/Proofs/ScannerCorrectness.html#L4YAML.Proofs.ScannerCorrectness.ScanHelpers.scanDoubleQuoted_adds_one_token" xlink:title="ScannerCorrectness.ScanHelpers.scanDoubleQuoted_adds_one_token" target="_blank">
<polygon fill="#fff3cd" stroke="#d4a017" points="1462.54,-707.8 1462.54,-722.71 1305.72,-733.26 1083.94,-733.26 927.11,-722.71 927.11,-707.8 1083.94,-697.26 1305.72,-697.26 1462.54,-707.8"/>
<polygon fill="none" stroke="#d4a017" points="1466.54,-704.06 1466.54,-726.45 1305.85,-737.26 1083.8,-737.26 923.12,-726.45 923.12,-704.06 1083.8,-693.26 1305.85,-693.26 1466.54,-704.06"/>
<text text-anchor="middle" x="1194.83" y="-712.16" font-family="Helvetica" font-size="12.00">ScannerCorrectness.ScanHelpers.scanDoubleQuoted_adds_one_token</text>
</a>
</g>
</g>
<!-- L4YAML.Proofs.ScannerCorrectness.ScanHelpers.scanDoubleQuoted_adds_one_token&#45;&gt;L4YAML.Positioned -->
<g id="edge2" class="edge">
<title>L4YAML.Proofs.ScannerCorrectness.ScanHelpers.scanDoubleQuoted_adds_one_token&#45;&gt;L4YAML.Positioned</title>
<path fill="none" stroke="#4a90d9" stroke-width="2" d="M1313.27,-693.68C1382.47,-674.42 1464.97,-638.68 1509.68,-573.26 1552.25,-510.97 1486.69,-297.59 1527.68,-234.26 1531.61,-228.19 1537.35,-223.42 1543.62,-219.69"/>
<polygon fill="#4a90d9" stroke="#4a90d9" stroke-width="2" points="1544.98,-221.74 1550.01,-216.29 1542.68,-217.41 1544.98,-221.74"/>
<text text-anchor="middle" x="1497.18" y="-603.86" font-family="Times-Roman" font-size="8.00" fill="#4a90d9">about</text>
</g>
<!-- L4YAML.Proofs.ScannerCorrectness.ScanHelpers.scanDoubleQuoted_adds_one_token&#45;&gt;L4YAML.Scanner.ScannerState -->
<g id="edge4" class="edge">
<title>L4YAML.Proofs.ScannerCorrectness.ScanHelpers.scanDoubleQuoted_adds_one_token&#45;&gt;L4YAML.Scanner.ScannerState</title>
<path fill="none" stroke="#4a90d9" stroke-width="2" d="M1355.32,-696.47C1413.02,-681.29 1472.96,-654.04 1509.68,-605.26 1552.11,-548.88 1489.24,-347.42 1527.68,-288.26 1530.17,-284.42 1533.39,-281.1 1537.01,-278.24"/>
<polygon fill="#4a90d9" stroke="#4a90d9" stroke-width="2" points="1538.62,-280.1 1542.97,-274.1 1535.82,-276.08 1538.62,-280.1"/>
<text text-anchor="middle" x="1497.18" y="-632.86" font-family="Times-Roman" font-size="8.00" fill="#4a90d9">about</text>
</g>
<!-- L4YAML.Proofs.ScannerCorrectness.ScanHelpers.scanDoubleQuoted_adds_one_token&#45;&gt;L4YAML.YamlToken -->
<g id="edge3" class="edge">
<title>L4YAML.Proofs.ScannerCorrectness.ScanHelpers.scanDoubleQuoted_adds_one_token&#45;&gt;L4YAML.YamlToken</title>
<path fill="none" stroke="#4a90d9" stroke-width="2" d="M1409.89,-700.19C1448.18,-687.82 1484,-668.11 1509.68,-637.26 1551.69,-586.77 1491.78,-397.25 1527.68,-342.26 1531.39,-336.58 1536.68,-332.04 1542.49,-328.42"/>
<polygon fill="#4a90d9" stroke="#4a90d9" stroke-width="2" points="1544.01,-330.38 1548.95,-324.85 1541.64,-326.09 1544.01,-330.38"/>
<text text-anchor="middle" x="1497.18" y="-662.86" font-family="Times-Roman" font-size="8.00" fill="#4a90d9">about</text>
</g>
<!-- L4YAML.Proofs.ScannerCorrectness.ScanHelpers.scanDoubleQuoted_adds_one_token&#45;&gt;L4YAML.Scanner.scanDoubleQuoted -->
<g id="edge6" class="edge">
<title>L4YAML.Proofs.ScannerCorrectness.ScanHelpers.scanDoubleQuoted_adds_one_token&#45;&gt;L4YAML.Scanner.scanDoubleQuoted</title>
<path fill="none" stroke="#4a90d9" stroke-width="2" d="M1235.3,-737.26C1299.89,-769.97 1429.03,-821.18 1509.68,-758.26 1550.27,-726.6 1571.02,-565.93 1577.71,-502.79"/>
<polygon fill="#4a90d9" stroke="#4a90d9" stroke-width="2" points="1580.17,-502.8 1578.46,-495.59 1575.3,-502.3 1580.17,-502.8"/>
<text text-anchor="middle" x="1497.18" y="-773.86" font-family="Times-Roman" font-size="8.00" fill="#4a90d9">about</text>
</g>
<!-- L4YAML.Proofs.ScannerCorrectness.ScanHelpers.scanDoubleQuoted_adds_one_token&#45;&gt;L4YAML.ScanError -->
<g id="edge5" class="edge">
<title>L4YAML.Proofs.ScannerCorrectness.ScanHelpers.scanDoubleQuoted_adds_one_token&#45;&gt;L4YAML.ScanError</title>
<path fill="none" stroke="#4a90d9" stroke-width="2" d="M1249,-737.35C1318.61,-762.31 1439.95,-791.58 1509.68,-726.26 1554.54,-684.23 1493.98,-501.65 1527.68,-450.26 1531.64,-444.21 1537.41,-439.45 1543.68,-435.72"/>
<polygon fill="#4a90d9" stroke="#4a90d9" stroke-width="2" points="1545.03,-437.78 1550.07,-432.33 1542.74,-433.45 1545.03,-437.78"/>
<text text-anchor="middle" x="1497.18" y="-743.86" font-family="Times-Roman" font-size="8.00" fill="#4a90d9">about</text>
</g>
<!-- L4YAML.Proofs.ScannerCorrectness.ScanHelpers.scanDoubleQuoted_adds_one_token&#45;&gt;L4YAML.Scanner.ScannerState.tokens -->
<g id="edge1" class="edge">
<title>L4YAML.Proofs.ScannerCorrectness.ScanHelpers.scanDoubleQuoted_adds_one_token&#45;&gt;L4YAML.Scanner.ScannerState.tokens</title>
<path fill="none" stroke="#4a90d9" stroke-width="2" d="M1463.37,-703.82C1480.58,-695.04 1496.33,-683.72 1509.68,-669.26 1550.93,-624.59 1494.32,-447.08 1527.68,-396.26 1528.48,-395.03 1529.36,-393.87 1530.3,-392.75"/>
<polygon fill="#4a90d9" stroke="#4a90d9" stroke-width="2" points="1532.25,-394.25 1535.46,-387.56 1528.78,-390.79 1532.25,-394.25"/>
<text text-anchor="middle" x="1497.18" y="-687.86" font-family="Times-Roman" font-size="8.00" fill="#4a90d9">about</text>
</g>
<!-- L4YAML.Proofs.ScannerCorrectness.advance_preserves_tokens -->
<g id="node12" class="node">
<title>L4YAML.Proofs.ScannerCorrectness.advance_preserves_tokens</title>
<g id="a_node12"><a xlink:href="../../../api/L4YAML/Proofs/ScannerCorrectness.html#L4YAML.Proofs.ScannerCorrectness.advance_preserves_tokens" xlink:title="ScannerCorrectness.advance_preserves_tokens\n(ScannerCorrectness)" target="_blank">
<ellipse fill="#d4edda" stroke="#28a745" cx="176.51" cy="-562.26" rx="160.53" ry="21.43"/>
<text text-anchor="middle" x="176.51" y="-565.26" font-family="Helvetica" font-size="10.00">ScannerCorrectness.advance_preserves_tokens</text>
<text text-anchor="middle" x="176.51" y="-554.26" font-family="Helvetica" font-size="10.00">(ScannerCorrectness)</text>
</a>
</g>
</g>
<!-- L4YAML.Proofs.ScannerCorrectness.advance_preserves_tokens&#45;&gt;L4YAML.Positioned -->
<g id="edge12" class="edge">
<title>L4YAML.Proofs.ScannerCorrectness.advance_preserves_tokens&#45;&gt;L4YAML.Positioned</title>
<path fill="none" stroke="#999999" stroke-dasharray="1,5" d="M177.67,-540.85C179.59,-460.29 198.91,-175.97 374.03,-98.26 821.15,100.18 987.26,-56.78 1474.68,-98.26 1490.41,-99.59 1496.4,-95.74 1509.68,-104.26 1539.61,-123.45 1560.13,-160.34 1571.01,-184.37"/>
<polygon fill="#999999" stroke="#999999" points="1569.44,-185.13 1573.06,-188.99 1572.64,-183.71 1569.44,-185.13"/>
</g>
<!-- L4YAML.Proofs.ScannerCorrectness.advance_preserves_tokens&#45;&gt;L4YAML.Scanner.ScannerState.advance -->
<g id="edge11" class="edge">
<title>L4YAML.Proofs.ScannerCorrectness.advance_preserves_tokens&#45;&gt;L4YAML.Scanner.ScannerState.advance</title>
<path fill="none" stroke="#999999" stroke-dasharray="1,5" d="M269.42,-544.95C358.23,-528.23 490.28,-503.37 567.2,-488.89"/>
<polygon fill="#999999" stroke="#999999" points="567.6,-490.6 572.19,-487.95 566.95,-487.16 567.6,-490.6"/>
</g>
<!-- L4YAML.Proofs.ScannerCorrectness.advance_preserves_tokens&#45;&gt;L4YAML.Scanner.ScannerState -->
<g id="edge14" class="edge">
<title>L4YAML.Proofs.ScannerCorrectness.advance_preserves_tokens&#45;&gt;L4YAML.Scanner.ScannerState</title>
<path fill="none" stroke="#999999" stroke-dasharray="1,5" d="M179.06,-540.87C185.77,-465.73 219.49,-212.81 374.03,-110.26 390.28,-99.47 1474.62,-104.23 1474.68,-104.26 1494.78,-112.41 1499.43,-119.15 1509.68,-138.26 1530.21,-176.5 1501.74,-199.45 1527.68,-234.26 1530.71,-238.32 1534.54,-241.83 1538.73,-244.83"/>
<polygon fill="#999999" stroke="#999999" points="1537.9,-246.38 1543.03,-247.68 1539.83,-243.46 1537.9,-246.38"/>
</g>
<!-- L4YAML.Proofs.ScannerCorrectness.advance_preserves_tokens&#45;&gt;L4YAML.YamlToken -->
<g id="edge13" class="edge">
<title>L4YAML.Proofs.ScannerCorrectness.advance_preserves_tokens&#45;&gt;L4YAML.YamlToken</title>
<path fill="none" stroke="#999999" stroke-dasharray="1,5" d="M181.21,-540.59C193.9,-473.58 242.42,-268.97 374.03,-181.26 475.87,-113.38 1365.3,-82.33 1474.68,-137.26 1497.96,-148.94 1499.4,-160.33 1509.68,-184.26 1528.2,-227.36 1499.91,-250.45 1527.68,-288.26 1532.02,-294.16 1538.03,-298.87 1544.44,-302.6"/>
<polygon fill="#999999" stroke="#999999" points="1543.7,-304.19 1548.93,-305.02 1545.36,-301.11 1543.7,-304.19"/>
</g>
<!-- L4YAML.Proofs.ScannerCorrectness.advance_preserves_tokens&#45;&gt;L4YAML.Scanner.ScannerState.tokens -->
<g id="edge10" class="edge">
<title>L4YAML.Proofs.ScannerCorrectness.advance_preserves_tokens&#45;&gt;L4YAML.Scanner.ScannerState.tokens</title>
<path fill="none" stroke="#999999" stroke-dasharray="1,5" d="M205.31,-541.23C298.9,-471.96 613.59,-251.29 914.97,-180.26 1036.03,-151.72 1373.98,-107.25 1474.68,-180.26 1536.01,-224.72 1478.53,-284.61 1527.68,-342.26 1529.47,-344.35 1531.46,-346.31 1533.59,-348.12"/>
<polygon fill="#999999" stroke="#999999" points="1532.55,-349.53 1537.57,-351.25 1534.72,-346.78 1532.55,-349.53"/>
</g>
<!-- L4YAML.Proofs.ScannerCorrectness.advance_preserves_tokens&#45;&gt;L4YAML.Proofs.ScannerCorrectness.ScanHelpers.scanDoubleQuoted_adds_one_token -->
<g id="edge7" class="edge">
<title>L4YAML.Proofs.ScannerCorrectness.advance_preserves_tokens&#45;&gt;L4YAML.Proofs.ScannerCorrectness.ScanHelpers.scanDoubleQuoted_adds_one_token</title>
<path fill="none" stroke="#28a745" d="M214.3,-583.05C252.87,-603.9 315.85,-635.27 374.03,-652.26 602.73,-719.04 666.76,-730.79 904.97,-726.26 908.56,-726.19 912.18,-726.11 915.82,-726.04"/>
<polygon fill="#28a745" stroke="#28a745" points="915.9,-728.49 922.84,-725.88 915.79,-723.59 915.9,-728.49"/>
</g>
<!-- L4YAML.Proofs.ScannerCorrectness.ScanHelpers.collectDoubleQuotedLoop_preserves_tokens -->
<g id="node13" class="node">
<title>L4YAML.Proofs.ScannerCorrectness.ScanHelpers.collectDoubleQuotedLoop_preserves_tokens</title>
<g id="a_node13"><a xlink:href="../../../api/L4YAML/Proofs/ScannerCorrectness.html#L4YAML.Proofs.ScannerCorrectness.ScanHelpers.collectDoubleQuotedLoop_preserves_tokens" xlink:title="ScannerCorrectness.ScanHelpers.collectDoubleQuotedLoop_preserves_tokens\n(ScannerCorrectness)" target="_blank">
<ellipse fill="#d4edda" stroke="#28a745" cx="630" cy="-622.26" rx="255.95" ry="21.43"/>
<text text-anchor="middle" x="630" y="-625.26" font-family="Helvetica" font-size="10.00">ScannerCorrectness.ScanHelpers.collectDoubleQuotedLoop_preserves_tokens</text>
<text text-anchor="middle" x="630" y="-614.26" font-family="Helvetica" font-size="10.00">(ScannerCorrectness)</text>
</a>
</g>
</g>
<!-- L4YAML.Proofs.ScannerCorrectness.advance_preserves_tokens&#45;&gt;L4YAML.Proofs.ScannerCorrectness.ScanHelpers.collectDoubleQuotedLoop_preserves_tokens -->
<g id="edge28" class="edge">
<title>L4YAML.Proofs.ScannerCorrectness.advance_preserves_tokens&#45;&gt;L4YAML.Proofs.ScannerCorrectness.ScanHelpers.collectDoubleQuotedLoop_preserves_tokens</title>
<path fill="none" stroke="#cccccc" stroke-dasharray="5,2" d="M279.66,-578.53C310,-583.18 343.33,-588.11 374.03,-592.26 405.97,-596.57 440.21,-600.84 472.9,-604.75"/>
<polygon fill="#cccccc" stroke="#cccccc" points="472.74,-606.14 476.88,-605.22 473.07,-603.36 472.74,-606.14"/>
</g>
<!-- L4YAML.Proofs.ScannerCorrectness.ScanHelpers.collectDoubleQuotedLoop_preserves_tokens&#45;&gt;L4YAML.Positioned -->
<g id="edge16" class="edge">
<title>L4YAML.Proofs.ScannerCorrectness.ScanHelpers.collectDoubleQuotedLoop_preserves_tokens&#45;&gt;L4YAML.Positioned</title>
<path fill="none" stroke="#999999" stroke-dasharray="1,5" d="M860.91,-612.94C872.7,-607.37 883.84,-600.55 893.97,-592.26 917.46,-573.03 891.66,-546.7 914.97,-527.26 1119.73,-356.47 1325.73,-641.28 1509.68,-448.26 1542.61,-413.71 1501.14,-273.91 1527.68,-234.26 1532.04,-227.75 1538.47,-222.72 1545.34,-218.87"/>
<polygon fill="#999999" stroke="#999999" points="1546.52,-220.24 1550.16,-216.39 1544.91,-217.13 1546.52,-220.24"/>
</g>
<!-- L4YAML.Proofs.ScannerCorrectness.ScanHelpers.collectDoubleQuotedLoop_preserves_tokens&#45;&gt;L4YAML.Scanner.ScannerState -->
<g id="edge19" class="edge">
<title>L4YAML.Proofs.ScannerCorrectness.ScanHelpers.collectDoubleQuotedLoop_preserves_tokens&#45;&gt;L4YAML.Scanner.ScannerState</title>
<path fill="none" stroke="#999999" stroke-dasharray="1,5" d="M849.55,-611.28C865.06,-606.32 880.05,-600.07 893.97,-592.26 907.23,-584.81 901.55,-572.39 914.97,-565.26 1025.04,-506.72 1367.23,-590.47 1474.68,-527.26 1499.33,-512.75 1500.25,-500.26 1509.68,-473.26 1523.3,-434.26 1504.48,-322.43 1527.68,-288.26 1530.62,-283.93 1534.47,-280.26 1538.75,-277.15"/>
<polygon fill="#999999" stroke="#999999" points="1539.96,-278.45 1543.16,-274.22 1538.03,-275.53 1539.96,-278.45"/>
</g>
<!-- L4YAML.Proofs.ScannerCorrectness.ScanHelpers.collectDoubleQuotedLoop_preserves_tokens&#45;&gt;L4YAML.YamlToken -->
<g id="edge18" class="edge">
<title>L4YAML.Proofs.ScannerCorrectness.ScanHelpers.collectDoubleQuotedLoop_preserves_tokens&#45;&gt;L4YAML.YamlToken</title>
<path fill="none" stroke="#999999" stroke-dasharray="1,5" d="M829.48,-608.92C1078.76,-592.16 1474.27,-565.54 1474.68,-565.26 1483.23,-559.44 1479.99,-553.47 1484.68,-544.26 1495.24,-523.52 1502.66,-520.44 1509.68,-498.26 1530.73,-431.71 1487.97,-399.65 1527.68,-342.26 1531.9,-336.16 1537.92,-331.36 1544.4,-327.6"/>
<polygon fill="#999999" stroke="#999999" points="1545.36,-329.07 1548.93,-325.16 1543.7,-325.98 1545.36,-329.07"/>
</g>
<!-- L4YAML.Proofs.ScannerCorrectness.ScanHelpers.collectDoubleQuotedLoop_preserves_tokens&#45;&gt;L4YAML.Scanner.collectDoubleQuotedLoop -->
<g id="edge21" class="edge">
<title>L4YAML.Proofs.ScannerCorrectness.ScanHelpers.collectDoubleQuotedLoop_preserves_tokens&#45;&gt;L4YAML.Scanner.collectDoubleQuotedLoop</title>
<path fill="none" stroke="#999999" stroke-dasharray="1,5" d="M863.04,-613.39C874.14,-607.66 884.57,-600.69 893.97,-592.26 894.46,-591.81 914.6,-499.8 914.97,-499.26 971.54,-417.41 1077.5,-362.64 1141.26,-335.4"/>
<polygon fill="#999999" stroke="#999999" points="1142.23,-336.89 1146.16,-333.33 1140.87,-333.67 1142.23,-336.89"/>
</g>
<!-- L4YAML.Proofs.ScannerCorrectness.ScanHelpers.collectDoubleQuotedLoop_preserves_tokens&#45;&gt;L4YAML.YamlPos -->
<g id="edge17" class="edge">
<title>L4YAML.Proofs.ScannerCorrectness.ScanHelpers.collectDoubleQuotedLoop_preserves_tokens&#45;&gt;L4YAML.YamlPos</title>
<path fill="none" stroke="#999999" stroke-dasharray="1,5" d="M865.86,-613.97C876.06,-608.04 885.53,-600.88 893.97,-592.26 903.26,-582.77 904,-486.5 904.97,-473.26 906.48,-452.72 900.73,-303.12 914.97,-288.26 978.31,-222.16 1099.24,-238.66 1158.85,-252.03"/>
<polygon fill="#999999" stroke="#999999" points="1158.46,-253.74 1163.72,-253.15 1159.24,-250.32 1158.46,-253.74"/>
</g>
<!-- L4YAML.Proofs.ScannerCorrectness.ScanHelpers.collectDoubleQuotedLoop_preserves_tokens&#45;&gt;L4YAML.ScanError -->
<g id="edge20" class="edge">
<title>L4YAML.Proofs.ScannerCorrectness.ScanHelpers.collectDoubleQuotedLoop_preserves_tokens&#45;&gt;L4YAML.ScanError</title>
<path fill="none" stroke="#999999" stroke-dasharray="1,5" d="M820.18,-636.53C845.11,-639.71 870.23,-643.57 893.97,-648.26 898.52,-649.15 899.4,-650.46 903.97,-651.26 1029.1,-672.99 1368.44,-611.67 1474.68,-681.26 1483,-686.7 1476.23,-696.03 1484.68,-701.26 1494.13,-707.1 1501.55,-708.83 1509.68,-701.26 1550.61,-663.15 1496.86,-496.92 1527.68,-450.26 1532,-443.72 1538.41,-438.69 1545.28,-434.83"/>
<polygon fill="#999999" stroke="#999999" points="1546.46,-436.2 1550.1,-432.35 1544.85,-433.09 1546.46,-436.2"/>
</g>
<!-- L4YAML.Proofs.ScannerCorrectness.ScanHelpers.collectDoubleQuotedLoop_preserves_tokens&#45;&gt;L4YAML.Scanner.ScannerState.tokens -->
<g id="edge15" class="edge">
<title>L4YAML.Proofs.ScannerCorrectness.ScanHelpers.collectDoubleQuotedLoop_preserves_tokens&#45;&gt;L4YAML.Scanner.ScannerState.tokens</title>
<path fill="none" stroke="#999999" stroke-dasharray="1,5" d="M875.33,-628.37C1105.84,-632.26 1423.55,-632.08 1474.68,-603.26 1499.92,-589.03 1499.96,-575.55 1509.68,-548.26 1532.52,-484.17 1488.89,-452.14 1527.68,-396.26 1529.07,-394.26 1530.65,-392.39 1532.38,-390.66"/>
<polygon fill="#999999" stroke="#999999" points="1533.58,-391.94 1536.12,-387.29 1531.24,-389.34 1533.58,-391.94"/>
</g>
<!-- L4YAML.Proofs.ScannerCorrectness.ScanHelpers.collectDoubleQuotedLoop_preserves_tokens&#45;&gt;L4YAML.Proofs.ScannerCorrectness.ScanHelpers.scanDoubleQuoted_adds_one_token -->
<g id="edge9" class="edge">
<title>L4YAML.Proofs.ScannerCorrectness.ScanHelpers.collectDoubleQuotedLoop_preserves_tokens&#45;&gt;L4YAML.Proofs.ScannerCorrectness.ScanHelpers.scanDoubleQuoted_adds_one_token</title>
<path fill="none" stroke="#28a745" d="M687.88,-642.94C742.48,-661.79 827.69,-688.55 903.97,-701.26 907.85,-701.9 911.77,-702.52 915.71,-703.12"/>
<polygon fill="#28a745" stroke="#28a745" points="915.56,-705.57 922.84,-704.16 916.27,-700.72 915.56,-705.57"/>
</g>
<!-- L4YAML.Proofs.ScannerCorrectness.emitAt_tokens_size -->
<g id="node14" class="node">
<title>L4YAML.Proofs.ScannerCorrectness.emitAt_tokens_size</title>
<g id="a_node14"><a xlink:href="../../../api/L4YAML/Proofs/ScannerCorrectness.html#L4YAML.Proofs.ScannerCorrectness.emitAt_tokens_size" xlink:title="ScannerCorrectness.emitAt_tokens_size\n(ScannerCorrectness)" target="_blank">
<ellipse fill="#d4edda" stroke="#28a745" cx="630" cy="-562.26" rx="137.36" ry="21.43"/>
<text text-anchor="middle" x="630" y="-565.26" font-family="Helvetica" font-size="10.00">ScannerCorrectness.emitAt_tokens_size</text>
<text text-anchor="middle" x="630" y="-554.26" font-family="Helvetica" font-size="10.00">(ScannerCorrectness)</text>
</a>
</g>
</g>
<!-- L4YAML.Proofs.ScannerCorrectness.emitAt_tokens_size&#45;&gt;L4YAML.Positioned -->
<g id="edge23" class="edge">
<title>L4YAML.Proofs.ScannerCorrectness.emitAt_tokens_size&#45;&gt;L4YAML.Positioned</title>
<path fill="none" stroke="#999999" stroke-dasharray="1,5" d="M731.2,-576.62C786.34,-578.62 851.91,-570.32 893.97,-529.26 938.99,-485.3 868.77,-431.97 914.97,-389.26 1012.25,-299.32 1411.99,-436.75 1509.68,-347.26 1547.18,-312.9 1497.85,-275.44 1527.68,-234.26 1532.18,-228.05 1538.52,-223.17 1545.26,-219.36"/>
<polygon fill="#999999" stroke="#999999" points="1546.34,-220.77 1549.96,-216.9 1544.72,-217.67 1546.34,-220.77"/>
</g>
<!-- L4YAML.Proofs.ScannerCorrectness.emitAt_tokens_size&#45;&gt;L4YAML.Scanner.ScannerState -->
<g id="edge26" class="edge">
<title>L4YAML.Proofs.ScannerCorrectness.emitAt_tokens_size&#45;&gt;L4YAML.Scanner.ScannerState</title>
<path fill="none" stroke="#999999" stroke-dasharray="1,5" d="M740.19,-574.91C792.44,-574.95 852.5,-565.36 893.97,-529.26 921.05,-505.68 887.73,-474.63 914.97,-451.26 1116.79,-278.08 1314.9,-566.32 1509.68,-385.26 1541.8,-355.4 1501.51,-323.43 1527.68,-288.26 1530.71,-284.19 1534.53,-280.68 1538.72,-277.67"/>
<polygon fill="#999999" stroke="#999999" points="1539.82,-279.05 1543.02,-274.83 1537.89,-276.13 1539.82,-279.05"/>
</g>
<!-- L4YAML.Proofs.ScannerCorrectness.emitAt_tokens_size&#45;&gt;L4YAML.YamlToken -->
<g id="edge25" class="edge">
<title>L4YAML.Proofs.ScannerCorrectness.emitAt_tokens_size&#45;&gt;L4YAML.YamlToken</title>
<path fill="none" stroke="#999999" stroke-dasharray="1,5" d="M762.17,-556.56C805.05,-551.88 852.33,-543.64 893.97,-529.26 898.87,-527.56 899.11,-525.04 903.97,-523.26 1160.09,-429.18 1311.51,-610.81 1509.68,-423.26 1536.47,-397.91 1505.15,-371.45 1527.68,-342.26 1532.16,-336.45 1538.23,-331.79 1544.66,-328.07"/>
<polygon fill="#999999" stroke="#999999" points="1545.58,-329.57 1549.15,-325.65 1543.92,-326.48 1545.58,-329.57"/>
</g>
<!-- L4YAML.Proofs.ScannerCorrectness.emitAt_tokens_size&#45;&gt;L4YAML.YamlPos -->
<g id="edge24" class="edge">
<title>L4YAML.Proofs.ScannerCorrectness.emitAt_tokens_size&#45;&gt;L4YAML.YamlPos</title>
<path fill="none" stroke="#999999" stroke-dasharray="1,5" d="M725.66,-577.51C782.58,-580.88 851.92,-573.71 893.97,-529.26 904.99,-517.6 902.51,-401.23 903.97,-385.26 905.95,-363.65 899.51,-303.47 914.97,-288.26 979.93,-224.35 1099.16,-239.52 1158.43,-252.25"/>
<polygon fill="#999999" stroke="#999999" points="1158.37,-254.03 1163.63,-253.4 1159.13,-250.61 1158.37,-254.03"/>
</g>
<!-- L4YAML.Proofs.ScannerCorrectness.emitAt_tokens_size&#45;&gt;L4YAML.Scanner.ScannerState.emitAt -->
<g id="edge27" class="edge">
<title>L4YAML.Proofs.ScannerCorrectness.emitAt_tokens_size&#45;&gt;L4YAML.Scanner.ScannerState.emitAt</title>
<path fill="none" stroke="#999999" stroke-dasharray="1,5" d="M724.6,-577.64C781.84,-581.28 851.92,-574.35 893.97,-529.26 907.78,-514.44 902.43,-367.45 903.97,-347.26 905.89,-322.1 897.13,-252.09 914.97,-234.26 972.11,-177.15 1072.47,-182.78 1135.93,-193.77"/>
<polygon fill="#999999" stroke="#999999" points="1135.96,-195.56 1141.19,-194.71 1136.58,-192.11 1135.96,-195.56"/>
</g>
<!-- L4YAML.Proofs.ScannerCorrectness.emitAt_tokens_size&#45;&gt;L4YAML.Scanner.ScannerState.tokens -->
<g id="edge22" class="edge">
<title>L4YAML.Proofs.ScannerCorrectness.emitAt_tokens_size&#45;&gt;L4YAML.Scanner.ScannerState.tokens</title>
<path fill="none" stroke="#999999" stroke-dasharray="1,5" d="M743.4,-574.21C954.84,-594.06 1400.37,-622.5 1509.68,-523.26 1551.89,-484.93 1494.64,-442.71 1527.68,-396.26 1529.09,-394.27 1530.69,-392.42 1532.44,-390.7"/>
<polygon fill="#999999" stroke="#999999" points="1533.63,-391.98 1536.2,-387.35 1531.31,-389.37 1533.63,-391.98"/>
</g>
<!-- L4YAML.Proofs.ScannerCorrectness.emitAt_tokens_size&#45;&gt;L4YAML.Proofs.ScannerCorrectness.ScanHelpers.scanDoubleQuoted_adds_one_token -->
<g id="edge8" class="edge">
<title>L4YAML.Proofs.ScannerCorrectness.emitAt_tokens_size&#45;&gt;L4YAML.Proofs.ScannerCorrectness.ScanHelpers.scanDoubleQuoted_adds_one_token</title>
<path fill="none" stroke="#28a745" d="M723.19,-546.63C780.06,-542.62 850.24,-548.74 893.97,-592.26 920.62,-618.78 877.59,-649.47 903.97,-676.26 912.83,-685.25 922.71,-692.87 933.31,-699.29"/>
<polygon fill="#28a745" stroke="#28a745" points="932.35,-701.56 939.64,-702.93 934.8,-697.32 932.35,-701.56"/>
</g>
</g>
</svg>
