<?xml version="1.0" encoding="UTF-8" standalone="no"?>
<!DOCTYPE svg PUBLIC "-//W3C//DTD SVG 1.1//EN"
 "http://www.w3.org/Graphics/SVG/1.1/DTD/svg11.dtd">
<!-- Generated by graphviz version 2.44.0 (0)
 -->
<!-- Title: ScannerBound.BoundInv.offset_le Pages: 1 -->
<svg width="499pt" height="310pt"
 viewBox="0.00 0.00 499.19 310.00" xmlns="http://www.w3.org/2000/svg" xmlns:xlink="http://www.w3.org/1999/xlink">
<g id="graph0" class="graph" transform="scale(1 1) rotate(0) translate(4 306)">
<title>ScannerBound.BoundInv.offset_le</title>
<polygon fill="white" stroke="transparent" points="-4,4 -4,-306 495.19,-306 495.19,4 -4,4"/>
<text text-anchor="middle" x="245.6" y="-287.6" font-family="Helvetica Bold" font-size="13.00">ScannerBound.BoundInv.offset_le</text>
<text text-anchor="middle" x="245.6" y="-273.6" font-family="Helvetica Bold" font-size="13.00">(heuristic: used by 17 proofs)</text>
<text text-anchor="middle" x="245.6" y="-259.6" font-family="Helvetica Bold" font-size="13.00">(L4YAML.Proofs.ScannerBound)</text>
<g id="clust1" class="cluster">
<title>cluster_functions</title>
<polygon fill="none" stroke="#4a90d9" stroke-dasharray="5,2" points="342.19,-8 342.19,-244 483.19,-244 483.19,-8 342.19,-8"/>
<text text-anchor="middle" x="412.69" y="-229.6" font-family="Helvetica Bold" font-size="13.00" fill="#4a90d9">Functions</text>
</g>
<g id="clust2" class="cluster">
<title>cluster_key</title>
<polygon fill="none" stroke="#d4a017" stroke-dasharray="5,2" points="8,-84 8,-166 297.19,-166 297.19,-84 8,-84"/>
<text text-anchor="middle" x="152.6" y="-151.6" font-family="Helvetica Bold" font-size="13.00" fill="#d4a017">Key Theorem</text>
</g>
<!-- L4YAML.Scanner.ScannerState -->
<g id="node1" class="node">
<title>L4YAML.Scanner.ScannerState</title>
<g id="a_node1"><a xlink:href="../../../api/L4YAML/Scanner.html#L4YAML.Scanner.ScannerState" xlink:title="ScannerState\n(inductive)" target="_blank">
<polygon fill="#dce9f7" stroke="#4a90d9" points="450.69,-214 374.69,-214 374.69,-178 450.69,-178 450.69,-214"/>
<text text-anchor="middle" x="412.69" y="-199" font-family="Helvetica" font-size="10.00">ScannerState</text>
<text text-anchor="middle" x="412.69" y="-188" font-family="Helvetica" font-size="10.00">(inductive)</text>
</a>
</g>
</g>
<!-- L4YAML.Proofs.ScannerBound.BoundInv -->
<g id="node2" class="node">
<title>L4YAML.Proofs.ScannerBound.BoundInv</title>
<g id="a_node2"><a xlink:href="../../../api/L4YAML/Proofs/ScannerBound.html#L4YAML.Proofs.ScannerBound.BoundInv" xlink:title="ScannerBound.BoundInv\n(inductive)" target="_blank">
<polygon fill="#dce9f7" stroke="#4a90d9" points="475.19,-160 350.19,-160 350.19,-124 475.19,-124 475.19,-160"/>
<text text-anchor="middle" x="412.69" y="-145" font-family="Helvetica" font-size="10.00">ScannerBound.BoundInv</text>
<text text-anchor="middle" x="412.69" y="-134" font-family="Helvetica" font-size="10.00">(inductive)</text>
</a>
</g>
</g>
<!-- L4YAML.Scanner.ScannerState.offset -->
<g id="node3" class="node">
<title>L4YAML.Scanner.ScannerState.offset</title>
<g id="a_node3"><a xlink:href="../../../api/L4YAML/Scanner.html#L4YAML.Scanner.ScannerState.offset" xlink:title="ScannerState.offset\n(def)" target="_blank">
<polygon fill="#dce9f7" stroke="#4a90d9" points="464.19,-106 361.19,-106 361.19,-70 464.19,-70 464.19,-106"/>
<text text-anchor="middle" x="412.69" y="-91" font-family="Helvetica" font-size="10.00">ScannerState.offset</text>
<text text-anchor="middle" x="412.69" y="-80" font-family="Helvetica" font-size="10.00">(def)</text>
</a>
</g>
</g>
<!-- L4YAML.Scanner.ScannerState.inputEnd -->
<g id="node4" class="node">
<title>L4YAML.Scanner.ScannerState.inputEnd</title>
<g id="a_node4"><a xlink:href="../../../api/L4YAML/Scanner.html#L4YAML.Scanner.ScannerState.inputEnd" xlink:title="ScannerState.inputEnd\n(def)" target="_blank">
<polygon fill="#dce9f7" stroke="#4a90d9" points="471.19,-52 354.19,-52 354.19,-16 471.19,-16 471.19,-52"/>
<text text-anchor="middle" x="412.69" y="-37" font-family="Helvetica" font-size="10.00">ScannerState.inputEnd</text>
<text text-anchor="middle" x="412.69" y="-26" font-family="Helvetica" font-size="10.00">(def)</text>
</a>
</g>
</g>
<!-- L4YAML.Proofs.ScannerBound.BoundInv.offset_le -->
<g id="node5" class="node">
<title>L4YAML.Proofs.ScannerBound.BoundInv.offset_le</title>
<g id="a_node5"><a xlink:href="../../../api/L4YAML/Proofs/ScannerBound.html#L4YAML.Proofs.ScannerBound.BoundInv.offset_le" xlink:title="ScannerBound.BoundInv.offset_le" target="_blank">
<polygon fill="#fff3cd" stroke="#d4a017" points="285.28,-106.54 285.28,-121.46 207.56,-132 97.63,-132 19.91,-121.46 19.91,-106.54 97.63,-96 207.56,-96 285.28,-106.54"/>
<polygon fill="none" stroke="#d4a017" points="289.29,-103.05 289.29,-124.95 207.83,-136 97.36,-136 15.9,-124.95 15.9,-103.05 97.36,-92 207.83,-92 289.29,-103.05"/>
<text text-anchor="middle" x="152.6" y="-110.9" font-family="Helvetica" font-size="12.00">ScannerBound.BoundInv.offset_le</text>
</a>
</g>
</g>
<!-- L4YAML.Proofs.ScannerBound.BoundInv.offset_le&#45;&gt;L4YAML.Scanner.ScannerState -->
<g id="edge4" class="edge">
<title>L4YAML.Proofs.ScannerBound.BoundInv.offset_le&#45;&gt;L4YAML.Scanner.ScannerState</title>
<path fill="none" stroke="#4a90d9" stroke-width="2" d="M218.39,-134.59C264.97,-149.39 326.55,-168.95 367.56,-181.98"/>
<polygon fill="#4a90d9" stroke="#4a90d9" stroke-width="2" points="367.05,-184.39 374.46,-184.17 368.53,-179.72 367.05,-184.39"/>
<text text-anchor="middle" x="319.69" y="-171.6" font-family="Times-Roman" font-size="8.00" fill="#4a90d9">about</text>
</g>
<!-- L4YAML.Proofs.ScannerBound.BoundInv.offset_le&#45;&gt;L4YAML.Proofs.ScannerBound.BoundInv -->
<g id="edge1" class="edge">
<title>L4YAML.Proofs.ScannerBound.BoundInv.offset_le&#45;&gt;L4YAML.Proofs.ScannerBound.BoundInv</title>
<path fill="none" stroke="#4a90d9" stroke-width="2" d="M273.95,-127.06C297.57,-129.62 321.57,-132.22 342.78,-134.52"/>
<polygon fill="#4a90d9" stroke="#4a90d9" stroke-width="2" points="342.64,-136.97 349.86,-135.29 343.17,-132.1 342.64,-136.97"/>
<text text-anchor="middle" x="319.69" y="-134.6" font-family="Times-Roman" font-size="8.00" fill="#4a90d9">about</text>
</g>
<!-- L4YAML.Proofs.ScannerBound.BoundInv.offset_le&#45;&gt;L4YAML.Scanner.ScannerState.offset -->
<g id="edge2" class="edge">
<title>L4YAML.Proofs.ScannerBound.BoundInv.offset_le&#45;&gt;L4YAML.Scanner.ScannerState.offset</title>
<path fill="none" stroke="#4a90d9" stroke-width="2" d="M278.11,-101.46C304.63,-98.79 331.4,-96.09 353.95,-93.82"/>
<polygon fill="#4a90d9" stroke="#4a90d9" stroke-width="2" points="354.39,-96.23 361.11,-93.1 353.9,-91.36 354.39,-96.23"/>
<text text-anchor="middle" x="319.69" y="-99.6" font-family="Times-Roman" font-size="8.00" fill="#4a90d9">about</text>
</g>
<!-- L4YAML.Proofs.ScannerBound.BoundInv.offset_le&#45;&gt;L4YAML.Scanner.ScannerState.inputEnd -->
<g id="edge3" class="edge">
<title>L4YAML.Proofs.ScannerBound.BoundInv.offset_le&#45;&gt;L4YAML.Scanner.ScannerState.inputEnd</title>
<path fill="none" stroke="#4a90d9" stroke-width="2" d="M219.73,-93.5C258.81,-81.39 308.1,-66.11 346.94,-54.07"/>
<polygon fill="#4a90d9" stroke="#4a90d9" stroke-width="2" points="348.11,-56.27 354.07,-51.86 346.66,-51.59 348.11,-56.27"/>
<text text-anchor="middle" x="319.69" y="-66.6" font-family="Times-Roman" font-size="8.00" fill="#4a90d9">about</text>
</g>
</g>
</svg>
