<?xml version="1.0" encoding="UTF-8" standalone="no"?>
<!DOCTYPE svg PUBLIC "-//W3C//DTD SVG 1.1//EN"
 "http://www.w3.org/Graphics/SVG/1.1/DTD/svg11.dtd">
<!-- Generated by graphviz version 2.44.0 (0)
 -->
<!-- Title: ScannerCorrectness.skipWhitespace_preserves_flowLevel Pages: 1 -->
<svg width="1045pt" height="637pt"
 viewBox="0.00 0.00 1045.42 636.96" xmlns="http://www.w3.org/2000/svg" xmlns:xlink="http://www.w3.org/1999/xlink">
<g id="graph0" class="graph" transform="scale(1 1) rotate(0) translate(4 632.96)">
<title>ScannerCorrectness.skipWhitespace_preserves_flowLevel</title>
<polygon fill="white" stroke="transparent" points="-4,4 -4,-632.96 1041.42,-632.96 1041.42,4 -4,4"/>
<text text-anchor="middle" x="518.71" y="-614.56" font-family="Helvetica Bold" font-size="13.00">ScannerCorrectness.skipWhitespace_preserves_flowLevel</text>
<text text-anchor="middle" x="518.71" y="-600.56" font-family="Helvetica Bold" font-size="13.00">(heuristic: used by 5 proofs)</text>
<text text-anchor="middle" x="518.71" y="-586.56" font-family="Helvetica Bold" font-size="13.00">(L4YAML.Proofs.ScannerCorrectness)</text>
<g id="clust1" class="cluster">
<title>cluster_functions</title>
<polygon fill="none" stroke="#4a90d9" stroke-dasharray="5,2" points="520.21,-226.96 520.21,-570.96 1029.42,-570.96 1029.42,-226.96 520.21,-226.96"/>
<text text-anchor="middle" x="774.82" y="-556.56" font-family="Helvetica Bold" font-size="13.00" fill="#4a90d9">Functions</text>
</g>
<g id="clust2" class="cluster">
<title>cluster_key</title>
<polygon fill="none" stroke="#d4a017" stroke-dasharray="5,2" points="383,-106.96 383,-188.96 849.42,-188.96 849.42,-106.96 383,-106.96"/>
<text text-anchor="middle" x="616.21" y="-174.56" font-family="Helvetica Bold" font-size="13.00" fill="#d4a017">Key Theorem</text>
</g>
<g id="clust3" class="cluster">
<title>cluster_proofs</title>
<polygon fill="none" stroke="#28a745" stroke-dasharray="5,2" points="8,-158.96 8,-298.96 362,-298.96 362,-158.96 8,-158.96"/>
<text text-anchor="middle" x="185" y="-284.56" font-family="Helvetica Bold" font-size="13.00" fill="#28a745">Proof Dependencies</text>
</g>
<!-- L4YAML.Scanner.skipWhitespaceLoop -->
<g id="node1" class="node">
<title>L4YAML.Scanner.skipWhitespaceLoop</title>
<g id="a_node1"><a xlink:href="../../../api/L4YAML/Scanner.html#L4YAML.Scanner.skipWhitespaceLoop" xlink:title="skipWhitespaceLoop\n(def)" target="_blank">
<polygon fill="#dce9f7" stroke="#4a90d9" points="669.71,-432.96 562.71,-432.96 562.71,-396.96 669.71,-396.96 669.71,-432.96"/>
<text text-anchor="middle" x="616.21" y="-417.96" font-family="Helvetica" font-size="10.00">skipWhitespaceLoop</text>
<text text-anchor="middle" x="616.21" y="-406.96" font-family="Helvetica" font-size="10.00">(def)</text>
</a>
</g>
</g>
<!-- L4YAML.Scanner.ScannerState.advance -->
<g id="node2" class="node">
<title>L4YAML.Scanner.ScannerState.advance</title>
<g id="a_node2"><a xlink:href="../../../api/L4YAML/Scanner.html#L4YAML.Scanner.ScannerState.advance" xlink:title="ScannerState.advance\n(def)" target="_blank">
<polygon fill="#dce9f7" stroke="#4a90d9" points="673.71,-270.96 558.71,-270.96 558.71,-234.96 673.71,-234.96 673.71,-270.96"/>
<text text-anchor="middle" x="616.21" y="-255.96" font-family="Helvetica" font-size="10.00">ScannerState.advance</text>
<text text-anchor="middle" x="616.21" y="-244.96" font-family="Helvetica" font-size="10.00">(def)</text>
</a>
</g>
</g>
<!-- L4YAML.Scanner.ScannerState.peek? -->
<g id="node3" class="node">
<title>L4YAML.Scanner.ScannerState.peek?</title>
<g id="a_node3"><a xlink:href="../../../api/L4YAML/Scanner.html#L4YAML.Scanner.ScannerState.peek?" xlink:title="ScannerState.peek?\n(def)" target="_blank">
<polygon fill="#dce9f7" stroke="#4a90d9" points="668.21,-378.96 564.21,-378.96 564.21,-342.96 668.21,-342.96 668.21,-378.96"/>
<text text-anchor="middle" x="616.21" y="-363.96" font-family="Helvetica" font-size="10.00">ScannerState.peek?</text>
<text text-anchor="middle" x="616.21" y="-352.96" font-family="Helvetica" font-size="10.00">(def)</text>
</a>
</g>
</g>
<!-- L4YAML.Scanner.ScannerState.flowLevel -->
<g id="node4" class="node">
<title>L4YAML.Scanner.ScannerState.flowLevel</title>
<g id="a_node4"><a xlink:href="../../../api/L4YAML/Scanner.html#L4YAML.Scanner.ScannerState.flowLevel" xlink:title="ScannerState.flowLevel\n(def)" target="_blank">
<polygon fill="#dce9f7" stroke="#4a90d9" points="1021.42,-270.96 902.42,-270.96 902.42,-234.96 1021.42,-234.96 1021.42,-270.96"/>
<text text-anchor="middle" x="961.92" y="-255.96" font-family="Helvetica" font-size="10.00">ScannerState.flowLevel</text>
<text text-anchor="middle" x="961.92" y="-244.96" font-family="Helvetica" font-size="10.00">(def)</text>
</a>
</g>
</g>
<!-- L4YAML.Scanner.skipWhitespaceLoop.match_1 -->
<g id="node5" class="node">
<title>L4YAML.Scanner.skipWhitespaceLoop.match_1</title>
<g id="a_node5"><a xlink:href="../../../api/L4YAML/Scanner.html#L4YAML.Scanner.skipWhitespaceLoop.match_1" xlink:title="skipWhitespaceLoop.match_1\n(def)" target="_blank">
<polygon fill="#dce9f7" stroke="#4a90d9" points="690.21,-324.96 542.21,-324.96 542.21,-288.96 690.21,-288.96 690.21,-324.96"/>
<text text-anchor="middle" x="616.21" y="-309.96" font-family="Helvetica" font-size="10.00">skipWhitespaceLoop.match_1</text>
<text text-anchor="middle" x="616.21" y="-298.96" font-family="Helvetica" font-size="10.00">(def)</text>
</a>
</g>
</g>
<!-- L4YAML.Scanner.ScannerState -->
<g id="node6" class="node">
<title>L4YAML.Scanner.ScannerState</title>
<g id="a_node6"><a xlink:href="../../../api/L4YAML/Scanner.html#L4YAML.Scanner.ScannerState" xlink:title="ScannerState\n(inductive)" target="_blank">
<polygon fill="#dce9f7" stroke="#4a90d9" points="999.92,-324.96 923.92,-324.96 923.92,-288.96 999.92,-288.96 999.92,-324.96"/>
<text text-anchor="middle" x="961.92" y="-309.96" font-family="Helvetica" font-size="10.00">ScannerState</text>
<text text-anchor="middle" x="961.92" y="-298.96" font-family="Helvetica" font-size="10.00">(inductive)</text>
</a>
</g>
</g>
<!-- L4YAML.Scanner.ScannerState.peekAt?Loop.match_1 -->
<g id="node7" class="node">
<title>L4YAML.Scanner.ScannerState.peekAt?Loop.match_1</title>
<g id="a_node7"><a xlink:href="../../../api/L4YAML/Scanner.html#L4YAML.Scanner.ScannerState.peekAt?Loop.match_1" xlink:title="ScannerState.peekAt?Loop.match_1\n(def)" target="_blank">
<polygon fill="#dce9f7" stroke="#4a90d9" points="704.21,-540.96 528.21,-540.96 528.21,-504.96 704.21,-504.96 704.21,-540.96"/>
<text text-anchor="middle" x="616.21" y="-525.96" font-family="Helvetica" font-size="10.00">ScannerState.peekAt?Loop.match_1</text>
<text text-anchor="middle" x="616.21" y="-514.96" font-family="Helvetica" font-size="10.00">(def)</text>
</a>
</g>
</g>
<!-- L4YAML.Scanner.skipWhitespace -->
<g id="node8" class="node">
<title>L4YAML.Scanner.skipWhitespace</title>
<g id="a_node8"><a xlink:href="../../../api/L4YAML/Scanner.html#L4YAML.Scanner.skipWhitespace" xlink:title="skipWhitespace\n(def)" target="_blank">
<polygon fill="#dce9f7" stroke="#4a90d9" points="1004.92,-378.96 918.92,-378.96 918.92,-342.96 1004.92,-342.96 1004.92,-378.96"/>
<text text-anchor="middle" x="961.92" y="-363.96" font-family="Helvetica" font-size="10.00">skipWhitespace</text>
<text text-anchor="middle" x="961.92" y="-352.96" font-family="Helvetica" font-size="10.00">(def)</text>
</a>
</g>
</g>
<!-- L4YAML.CharPredicates.isWhiteSpaceBool -->
<g id="node9" class="node">
<title>L4YAML.CharPredicates.isWhiteSpaceBool</title>
<g id="a_node9"><a xlink:href="../../../api/L4YAML/CharPredicates.html#L4YAML.CharPredicates.isWhiteSpaceBool" xlink:title="CharPredicates.isWhiteSpaceBool\n(def)" target="_blank">
<polygon fill="#dce9f7" stroke="#4a90d9" points="699.71,-486.96 532.71,-486.96 532.71,-450.96 699.71,-450.96 699.71,-486.96"/>
<text text-anchor="middle" x="616.21" y="-471.96" font-family="Helvetica" font-size="10.00">CharPredicates.isWhiteSpaceBool</text>
<text text-anchor="middle" x="616.21" y="-460.96" font-family="Helvetica" font-size="10.00">(def)</text>
</a>
</g>
</g>
<!-- L4YAML.Proofs.ScannerCorrectness.skipWhitespace_preserves_flowLevel -->
<g id="node10" class="node">
<title>L4YAML.Proofs.ScannerCorrectness.skipWhitespace_preserves_flowLevel</title>
<g id="a_node10"><a xlink:href="../../../api/L4YAML/Proofs/ScannerCorrectness.html#L4YAML.Proofs.ScannerCorrectness.skipWhitespace_preserves_flowLevel" xlink:title="ScannerCorrectness.skipWhitespace_preserves_flowLevel" target="_blank">
<polygon fill="#fff3cd" stroke="#d4a017" points="837.63,-129.51 837.63,-144.42 707.93,-154.96 524.49,-154.96 394.79,-144.42 394.79,-129.51 524.49,-118.96 707.93,-118.96 837.63,-129.51"/>
<polygon fill="none" stroke="#d4a017" points="841.64,-125.82 841.64,-148.11 708.09,-158.96 524.33,-158.96 390.78,-148.11 390.78,-125.82 524.33,-114.96 708.09,-114.96 841.64,-125.82"/>
<text text-anchor="middle" x="616.21" y="-133.86" font-family="Helvetica" font-size="12.00">ScannerCorrectness.skipWhitespace_preserves_flowLevel</text>
</a>
</g>
</g>
<!-- L4YAML.Proofs.ScannerCorrectness.skipWhitespace_preserves_flowLevel&#45;&gt;L4YAML.Scanner.ScannerState.flowLevel -->
<g id="edge3" class="edge">
<title>L4YAML.Proofs.ScannerCorrectness.skipWhitespace_preserves_flowLevel&#45;&gt;L4YAML.Scanner.ScannerState.flowLevel</title>
<path fill="none" stroke="#4a90d9" stroke-width="2" d="M679.2,-114.9C736.4,-98.58 821.71,-84.82 884.42,-120.96 924.32,-143.95 945.31,-196.59 954.67,-228.01"/>
<polygon fill="#4a90d9" stroke="#4a90d9" stroke-width="2" points="952.32,-228.7 956.6,-234.75 957.03,-227.35 952.32,-228.7"/>
<text text-anchor="middle" x="871.92" y="-123.56" font-family="Times-Roman" font-size="8.00" fill="#4a90d9">about</text>
</g>
<!-- L4YAML.Proofs.ScannerCorrectness.skipWhitespace_preserves_flowLevel&#45;&gt;L4YAML.Scanner.ScannerState -->
<g id="edge1" class="edge">
<title>L4YAML.Proofs.ScannerCorrectness.skipWhitespace_preserves_flowLevel&#45;&gt;L4YAML.Scanner.ScannerState</title>
<path fill="none" stroke="#4a90d9" stroke-width="2" d="M712.81,-115.32C769.69,-108.42 839.33,-111.38 884.42,-152.96 926.33,-191.61 868.4,-234.22 902.42,-279.96 906.4,-285.3 911.68,-289.62 917.45,-293.1"/>
<polygon fill="#4a90d9" stroke="#4a90d9" stroke-width="2" points="916.54,-295.39 923.87,-296.55 918.87,-291.08 916.54,-295.39"/>
<text text-anchor="middle" x="871.92" y="-155.56" font-family="Times-Roman" font-size="8.00" fill="#4a90d9">about</text>
</g>
<!-- L4YAML.Proofs.ScannerCorrectness.skipWhitespace_preserves_flowLevel&#45;&gt;L4YAML.Scanner.skipWhitespace -->
<g id="edge2" class="edge">
<title>L4YAML.Proofs.ScannerCorrectness.skipWhitespace_preserves_flowLevel&#45;&gt;L4YAML.Scanner.skipWhitespace</title>
<path fill="none" stroke="#4a90d9" stroke-width="2" d="M723.28,-157.77C766.5,-170.62 814.42,-191 849.42,-222.96 889.8,-259.83 863.52,-295.56 902.42,-333.96 905.43,-336.93 908.83,-339.61 912.43,-342.03"/>
<polygon fill="#4a90d9" stroke="#4a90d9" stroke-width="2" points="911.41,-344.27 918.66,-345.84 913.97,-340.1 911.41,-344.27"/>
<text text-anchor="middle" x="871.92" y="-308.56" font-family="Times-Roman" font-size="8.00" fill="#4a90d9">about</text>
</g>
<!-- L4YAML.Scanner.skipWhitespaceLoop.eq_def -->
<g id="node11" class="node">
<title>L4YAML.Scanner.skipWhitespaceLoop.eq_def</title>
<g id="a_node11"><a xlink:href="../../../api/L4YAML/Scanner.html#L4YAML.Scanner.skipWhitespaceLoop.eq_def" xlink:title="skipWhitespaceLoop.eq_def\n(Scanner)" target="_blank">
<ellipse fill="#d4edda" stroke="#28a745" cx="185" cy="-247.96" rx="98.99" ry="21.43"/>
<text text-anchor="middle" x="185" y="-250.96" font-family="Helvetica" font-size="10.00">skipWhitespaceLoop.eq_def</text>
<text text-anchor="middle" x="185" y="-239.96" font-family="Helvetica" font-size="10.00">(Scanner)</text>
</a>
</g>
</g>
<!-- L4YAML.Scanner.skipWhitespaceLoop.eq_def&#45;&gt;L4YAML.Scanner.skipWhitespaceLoop -->
<g id="edge8" class="edge">
<title>L4YAML.Scanner.skipWhitespaceLoop.eq_def&#45;&gt;L4YAML.Scanner.skipWhitespaceLoop</title>
<path fill="none" stroke="#999999" stroke-dasharray="1,5" d="M207.16,-268.64C241.07,-300.39 311.13,-360.35 383,-387.96 439.47,-409.66 508.92,-415.24 557.07,-416.12"/>
<polygon fill="#999999" stroke="#999999" points="557.22,-417.87 562.25,-416.2 557.28,-414.38 557.22,-417.87"/>
</g>
<!-- L4YAML.Scanner.skipWhitespaceLoop.eq_def&#45;&gt;L4YAML.Scanner.ScannerState.advance -->
<g id="edge6" class="edge">
<title>L4YAML.Scanner.skipWhitespaceLoop.eq_def&#45;&gt;L4YAML.Scanner.ScannerState.advance</title>
<path fill="none" stroke="#999999" stroke-dasharray="1,5" d="M283.93,-249.1C366.64,-250.07 482.57,-251.42 553.08,-252.24"/>
<polygon fill="#999999" stroke="#999999" points="553.48,-253.99 558.5,-252.3 553.52,-250.49 553.48,-253.99"/>
</g>
<!-- L4YAML.Scanner.skipWhitespaceLoop.eq_def&#45;&gt;L4YAML.Scanner.ScannerState.peek? -->
<g id="edge12" class="edge">
<title>L4YAML.Scanner.skipWhitespaceLoop.eq_def&#45;&gt;L4YAML.Scanner.ScannerState.peek?</title>
<path fill="none" stroke="#999999" stroke-dasharray="1,5" d="M222.21,-267.67C260.86,-287.77 324.45,-318.16 383,-333.96 441.79,-349.83 511.43,-356.38 559.01,-359.07"/>
<polygon fill="#999999" stroke="#999999" points="559.03,-360.83 564.12,-359.35 559.22,-357.33 559.03,-360.83"/>
</g>
<!-- L4YAML.Scanner.skipWhitespaceLoop.eq_def&#45;&gt;L4YAML.Scanner.skipWhitespaceLoop.match_1 -->
<g id="edge11" class="edge">
<title>L4YAML.Scanner.skipWhitespaceLoop.eq_def&#45;&gt;L4YAML.Scanner.skipWhitespaceLoop.match_1</title>
<path fill="none" stroke="#999999" stroke-dasharray="1,5" d="M262.59,-261.23C299.01,-267.33 343.19,-274.42 383,-279.96 434.19,-287.09 491.91,-293.81 537,-298.76"/>
<polygon fill="#999999" stroke="#999999" points="536.99,-300.52 542.15,-299.33 537.37,-297.04 536.99,-300.52"/>
</g>
<!-- L4YAML.Scanner.skipWhitespaceLoop.eq_def&#45;&gt;L4YAML.Scanner.ScannerState -->
<g id="edge9" class="edge">
<title>L4YAML.Scanner.skipWhitespaceLoop.eq_def&#45;&gt;L4YAML.Scanner.ScannerState</title>
<path fill="none" stroke="#999999" stroke-dasharray="1,5" d="M269.03,-236.69C423.14,-217.15 747.08,-183.01 849.42,-225.96 880.43,-238.98 874.93,-260.6 902.42,-279.96 907.67,-283.66 913.51,-287.05 919.4,-290.1"/>
<polygon fill="#999999" stroke="#999999" points="918.65,-291.68 923.91,-292.36 920.22,-288.55 918.65,-291.68"/>
</g>
<!-- L4YAML.Scanner.skipWhitespaceLoop.eq_def&#45;&gt;L4YAML.Scanner.ScannerState.peekAt?Loop.match_1 -->
<g id="edge7" class="edge">
<title>L4YAML.Scanner.skipWhitespaceLoop.eq_def&#45;&gt;L4YAML.Scanner.ScannerState.peekAt?Loop.match_1</title>
<path fill="none" stroke="#999999" stroke-dasharray="1,5" d="M195.64,-269.2C219.39,-318.77 285.93,-441.97 383,-495.96 425.18,-519.42 478.27,-526.91 523.05,-528.21"/>
<polygon fill="#999999" stroke="#999999" points="523.15,-529.96 528.19,-528.33 523.23,-526.46 523.15,-529.96"/>
</g>
<!-- L4YAML.Scanner.skipWhitespaceLoop.eq_def&#45;&gt;L4YAML.CharPredicates.isWhiteSpaceBool -->
<g id="edge10" class="edge">
<title>L4YAML.Scanner.skipWhitespaceLoop.eq_def&#45;&gt;L4YAML.CharPredicates.isWhiteSpaceBool</title>
<path fill="none" stroke="#999999" stroke-dasharray="1,5" d="M200.07,-269.19C228.83,-310.6 298.8,-401.63 383,-441.96 427.58,-463.32 482.31,-470.47 527.44,-472.09"/>
<polygon fill="#999999" stroke="#999999" points="527.56,-473.84 532.61,-472.25 527.67,-470.35 527.56,-473.84"/>
</g>
<!-- L4YAML.Scanner.skipWhitespaceLoop.eq_def&#45;&gt;L4YAML.Proofs.ScannerCorrectness.skipWhitespace_preserves_flowLevel -->
<g id="edge5" class="edge">
<title>L4YAML.Scanner.skipWhitespaceLoop.eq_def&#45;&gt;L4YAML.Proofs.ScannerCorrectness.skipWhitespace_preserves_flowLevel</title>
<path fill="none" stroke="#28a745" d="M284.22,-247.37C311.5,-243.12 339.71,-234.48 362,-217.96 369.98,-212.04 364.84,-204.86 372,-197.96 375.86,-194.24 377.92,-194.71 383,-192.96 421.48,-179.71 464.58,-168.39 503.11,-159.47"/>
<polygon fill="#28a745" stroke="#28a745" points="503.98,-161.78 510.25,-157.83 502.88,-157.01 503.98,-161.78"/>
</g>
<!-- L4YAML.Proofs.ScannerCorrectness.advance_preserves_flowLevel -->
<g id="node12" class="node">
<title>L4YAML.Proofs.ScannerCorrectness.advance_preserves_flowLevel</title>
<g id="a_node12"><a xlink:href="../../../api/L4YAML/Proofs/ScannerCorrectness.html#L4YAML.Proofs.ScannerCorrectness.advance_preserves_flowLevel" xlink:title="ScannerCorrectness.advance_preserves_flowLevel\n(ScannerCorrectness)" target="_blank">
<ellipse fill="#d4edda" stroke="#28a745" cx="185" cy="-187.96" rx="169" ry="21.43"/>
<text text-anchor="middle" x="185" y="-190.96" font-family="Helvetica" font-size="10.00">ScannerCorrectness.advance_preserves_flowLevel</text>
<text text-anchor="middle" x="185" y="-179.96" font-family="Helvetica" font-size="10.00">(ScannerCorrectness)</text>
</a>
</g>
</g>
<!-- L4YAML.Proofs.ScannerCorrectness.advance_preserves_flowLevel&#45;&gt;L4YAML.Scanner.ScannerState.advance -->
<g id="edge13" class="edge">
<title>L4YAML.Proofs.ScannerCorrectness.advance_preserves_flowLevel&#45;&gt;L4YAML.Scanner.ScannerState.advance</title>
<path fill="none" stroke="#999999" stroke-dasharray="1,5" d="M293.48,-204.24C375.52,-216.66 485.65,-233.34 553.46,-243.61"/>
<polygon fill="#999999" stroke="#999999" points="553.46,-245.38 558.67,-244.4 553.99,-241.92 553.46,-245.38"/>
</g>
<!-- L4YAML.Proofs.ScannerCorrectness.advance_preserves_flowLevel&#45;&gt;L4YAML.Scanner.ScannerState.flowLevel -->
<g id="edge15" class="edge">
<title>L4YAML.Proofs.ScannerCorrectness.advance_preserves_flowLevel&#45;&gt;L4YAML.Scanner.ScannerState.flowLevel</title>
<path fill="none" stroke="#999999" stroke-dasharray="1,5" d="M210.02,-166.88C243.55,-139 307.54,-91.28 372,-72.96 591.07,-10.71 694.48,52.7 884.42,-72.96 937.95,-108.37 954.14,-189.62 958.95,-229.71"/>
<polygon fill="#999999" stroke="#999999" points="957.23,-230.08 959.53,-234.86 960.71,-229.69 957.23,-230.08"/>
</g>
<!-- L4YAML.Proofs.ScannerCorrectness.advance_preserves_flowLevel&#45;&gt;L4YAML.Scanner.ScannerState -->
<g id="edge14" class="edge">
<title>L4YAML.Proofs.ScannerCorrectness.advance_preserves_flowLevel&#45;&gt;L4YAML.Scanner.ScannerState</title>
<path fill="none" stroke="#999999" stroke-dasharray="1,5" d="M221.92,-167.13C260.32,-146.15 323.72,-115.21 383,-102.96 492.13,-80.42 806.03,-27.77 884.42,-106.96 911.62,-134.43 879.93,-248.53 902.42,-279.96 906.71,-285.95 912.66,-290.64 919.13,-294.31"/>
<polygon fill="#999999" stroke="#999999" points="918.44,-295.93 923.68,-296.69 920.06,-292.82 918.44,-295.93"/>
</g>
<!-- L4YAML.Proofs.ScannerCorrectness.advance_preserves_flowLevel&#45;&gt;L4YAML.Proofs.ScannerCorrectness.skipWhitespace_preserves_flowLevel -->
<g id="edge4" class="edge">
<title>L4YAML.Proofs.ScannerCorrectness.advance_preserves_flowLevel&#45;&gt;L4YAML.Proofs.ScannerCorrectness.skipWhitespace_preserves_flowLevel</title>
<path fill="none" stroke="#28a745" d="M266.62,-169.39C299.18,-162.55 337.21,-155.4 372,-150.96 376.79,-150.35 381.64,-149.77 386.53,-149.21"/>
<polygon fill="#28a745" stroke="#28a745" points="387.04,-151.62 393.72,-148.41 386.49,-146.75 387.04,-151.62"/>
</g>
</g>
</svg>
