<?xml version="1.0" encoding="UTF-8" standalone="no"?>
<!DOCTYPE svg PUBLIC "-//W3C//DTD SVG 1.1//EN"
 "http://www.w3.org/Graphics/SVG/1.1/DTD/svg11.dtd">
<!-- Generated by graphviz version 2.44.0 (0)
 -->
<!-- Title: ScannerCorrectness.ScanHelpers.collectVersionMajorLoop_preserves_tokens Pages: 1 -->
<svg width="1409pt" height="637pt"
 viewBox="0.00 0.00 1409.25 637.24" xmlns="http://www.w3.org/2000/svg" xmlns:xlink="http://www.w3.org/1999/xlink">
<g id="graph0" class="graph" transform="scale(1 1) rotate(0) translate(4 633.24)">
<title>ScannerCorrectness.ScanHelpers.collectVersionMajorLoop_preserves_tokens</title>
<polygon fill="white" stroke="transparent" points="-4,4 -4,-633.24 1405.25,-633.24 1405.25,4 -4,4"/>
<text text-anchor="middle" x="700.62" y="-614.84" font-family="Helvetica Bold" font-size="13.00">ScannerCorrectness.ScanHelpers.collectVersionMajorLoop_preserves_tokens</text>
<text text-anchor="middle" x="700.62" y="-600.84" font-family="Helvetica Bold" font-size="13.00">(heuristic: used by 6 proofs)</text>
<text text-anchor="middle" x="700.62" y="-586.84" font-family="Helvetica Bold" font-size="13.00">(L4YAML.Proofs.ScannerCorrectness)</text>
<g id="clust1" class="cluster">
<title>cluster_functions</title>
<polygon fill="none" stroke="#4a90d9" stroke-dasharray="5,2" points="810.74,-112 810.74,-402 1393.25,-402 1393.25,-112 810.74,-112"/>
<text text-anchor="middle" x="1101.99" y="-387.6" font-family="Helvetica Bold" font-size="13.00" fill="#4a90d9">Functions</text>
</g>
<g id="clust2" class="cluster">
<title>cluster_key</title>
<polygon fill="none" stroke="#d4a017" stroke-dasharray="5,2" points="604.23,-8 604.23,-90 1209.25,-90 1209.25,-8 604.23,-8"/>
<text text-anchor="middle" x="906.74" y="-75.6" font-family="Helvetica Bold" font-size="13.00" fill="#d4a017">Key Theorem</text>
</g>
<g id="clust3" class="cluster">
<title>cluster_proofs</title>
<polygon fill="none" stroke="#28a745" stroke-dasharray="5,2" points="127.1,-265 127.1,-405 464.13,-405 464.13,-265 127.1,-265"/>
<text text-anchor="middle" x="295.61" y="-390.6" font-family="Helvetica Bold" font-size="13.00" fill="#28a745">Proof Dependencies</text>
</g>
<g id="clust4" class="cluster">
<title>cluster_stdlib</title>
<polygon fill="none" stroke="#e67e22" stroke-dasharray="5,2" points="8,-62 8,-190 583.23,-190 583.23,-62 8,-62"/>
<text text-anchor="middle" x="295.61" y="-175.6" font-family="Helvetica Bold" font-size="13.00" fill="#e67e22">Stdlib Lemmas</text>
</g>
<!-- L4YAML.Scanner.collectVersionMajorLoop.match_1 -->
<g id="node1" class="node">
<title>L4YAML.Scanner.collectVersionMajorLoop.match_1</title>
<g id="a_node1"><a xlink:href="../../../api/L4YAML/Scanner.html#L4YAML.Scanner.collectVersionMajorLoop.match_1" xlink:title="collectVersionMajorLoop.match_1\n(def)" target="_blank">
<polygon fill="#dce9f7" stroke="#4a90d9" points="988.74,-210 824.74,-210 824.74,-174 988.74,-174 988.74,-210"/>
<text text-anchor="middle" x="906.74" y="-195" font-family="Helvetica" font-size="10.00">collectVersionMajorLoop.match_1</text>
<text text-anchor="middle" x="906.74" y="-184" font-family="Helvetica" font-size="10.00">(def)</text>
</a>
</g>
</g>
<!-- L4YAML.Positioned -->
<g id="node2" class="node">
<title>L4YAML.Positioned</title>
<g id="a_node2"><a xlink:href="../../../api/L4YAML/Token.html#L4YAML.Positioned" xlink:title="Positioned\n(inductive)" target="_blank">
<polygon fill="#dce9f7" stroke="#4a90d9" points="1354.75,-372 1292.75,-372 1292.75,-336 1354.75,-336 1354.75,-372"/>
<text text-anchor="middle" x="1323.75" y="-357" font-family="Helvetica" font-size="10.00">Positioned</text>
<text text-anchor="middle" x="1323.75" y="-346" font-family="Helvetica" font-size="10.00">(inductive)</text>
</a>
</g>
</g>
<!-- L4YAML.Scanner.ScannerState.advance -->
<g id="node3" class="node">
<title>L4YAML.Scanner.ScannerState.advance</title>
<g id="a_node3"><a xlink:href="../../../api/L4YAML/Scanner.html#L4YAML.Scanner.ScannerState.advance" xlink:title="ScannerState.advance\n(def)" target="_blank">
<polygon fill="#dce9f7" stroke="#4a90d9" points="964.24,-372 849.24,-372 849.24,-336 964.24,-336 964.24,-372"/>
<text text-anchor="middle" x="906.74" y="-357" font-family="Helvetica" font-size="10.00">ScannerState.advance</text>
<text text-anchor="middle" x="906.74" y="-346" font-family="Helvetica" font-size="10.00">(def)</text>
</a>
</g>
</g>
<!-- L4YAML.Scanner.ScannerState.peek? -->
<g id="node4" class="node">
<title>L4YAML.Scanner.ScannerState.peek?</title>
<g id="a_node4"><a xlink:href="../../../api/L4YAML/Scanner.html#L4YAML.Scanner.ScannerState.peek?" xlink:title="ScannerState.peek?\n(def)" target="_blank">
<polygon fill="#dce9f7" stroke="#4a90d9" points="958.74,-318 854.74,-318 854.74,-282 958.74,-282 958.74,-318"/>
<text text-anchor="middle" x="906.74" y="-303" font-family="Helvetica" font-size="10.00">ScannerState.peek?</text>
<text text-anchor="middle" x="906.74" y="-292" font-family="Helvetica" font-size="10.00">(def)</text>
</a>
</g>
</g>
<!-- L4YAML.Scanner.ScannerState -->
<g id="node5" class="node">
<title>L4YAML.Scanner.ScannerState</title>
<g id="a_node5"><a xlink:href="../../../api/L4YAML/Scanner.html#L4YAML.Scanner.ScannerState" xlink:title="ScannerState\n(inductive)" target="_blank">
<polygon fill="#dce9f7" stroke="#4a90d9" points="1361.75,-264 1285.75,-264 1285.75,-228 1361.75,-228 1361.75,-264"/>
<text text-anchor="middle" x="1323.75" y="-249" font-family="Helvetica" font-size="10.00">ScannerState</text>
<text text-anchor="middle" x="1323.75" y="-238" font-family="Helvetica" font-size="10.00">(inductive)</text>
</a>
</g>
</g>
<!-- L4YAML.YamlToken -->
<g id="node6" class="node">
<title>L4YAML.YamlToken</title>
<g id="a_node6"><a xlink:href="../../../api/L4YAML/Token.html#L4YAML.YamlToken" xlink:title="YamlToken\n(inductive)" target="_blank">
<polygon fill="#dce9f7" stroke="#4a90d9" points="1355.75,-318 1291.75,-318 1291.75,-282 1355.75,-282 1355.75,-318"/>
<text text-anchor="middle" x="1323.75" y="-303" font-family="Helvetica" font-size="10.00">YamlToken</text>
<text text-anchor="middle" x="1323.75" y="-292" font-family="Helvetica" font-size="10.00">(inductive)</text>
</a>
</g>
</g>
<!-- L4YAML.Scanner.ScannerState.peekAt?Loop.match_1 -->
<g id="node7" class="node">
<title>L4YAML.Scanner.ScannerState.peekAt?Loop.match_1</title>
<g id="a_node7"><a xlink:href="../../../api/L4YAML/Scanner.html#L4YAML.Scanner.ScannerState.peekAt?Loop.match_1" xlink:title="ScannerState.peekAt?Loop.match_1\n(def)" target="_blank">
<polygon fill="#dce9f7" stroke="#4a90d9" points="994.74,-264 818.74,-264 818.74,-228 994.74,-228 994.74,-264"/>
<text text-anchor="middle" x="906.74" y="-249" font-family="Helvetica" font-size="10.00">ScannerState.peekAt?Loop.match_1</text>
<text text-anchor="middle" x="906.74" y="-238" font-family="Helvetica" font-size="10.00">(def)</text>
</a>
</g>
</g>
<!-- L4YAML.Scanner.collectVersionMajorLoop -->
<g id="node8" class="node">
<title>L4YAML.Scanner.collectVersionMajorLoop</title>
<g id="a_node8"><a xlink:href="../../../api/L4YAML/Scanner.html#L4YAML.Scanner.collectVersionMajorLoop" xlink:title="collectVersionMajorLoop\n(def)" target="_blank">
<polygon fill="#dce9f7" stroke="#4a90d9" points="1385.25,-156 1262.25,-156 1262.25,-120 1385.25,-120 1385.25,-156"/>
<text text-anchor="middle" x="1323.75" y="-141" font-family="Helvetica" font-size="10.00">collectVersionMajorLoop</text>
<text text-anchor="middle" x="1323.75" y="-130" font-family="Helvetica" font-size="10.00">(def)</text>
</a>
</g>
</g>
<!-- L4YAML.Scanner.ScannerState.tokens -->
<g id="node9" class="node">
<title>L4YAML.Scanner.ScannerState.tokens</title>
<g id="a_node9"><a xlink:href="../../../api/L4YAML/Scanner.html#L4YAML.Scanner.ScannerState.tokens" xlink:title="ScannerState.tokens\n(def)" target="_blank">
<polygon fill="#dce9f7" stroke="#4a90d9" points="1377.25,-210 1270.25,-210 1270.25,-174 1377.25,-174 1377.25,-210"/>
<text text-anchor="middle" x="1323.75" y="-195" font-family="Helvetica" font-size="10.00">ScannerState.tokens</text>
<text text-anchor="middle" x="1323.75" y="-184" font-family="Helvetica" font-size="10.00">(def)</text>
</a>
</g>
</g>
<!-- L4YAML.Proofs.ScannerCorrectness.ScanHelpers.collectVersionMajorLoop_preserves_tokens -->
<g id="node10" class="node">
<title>L4YAML.Proofs.ScannerCorrectness.ScanHelpers.collectVersionMajorLoop_preserves_tokens</title>
<g id="a_node10"><a xlink:href="../../../api/L4YAML/Proofs/ScannerCorrectness.html#L4YAML.Proofs.ScannerCorrectness.ScanHelpers.collectVersionMajorLoop_preserves_tokens" xlink:title="ScannerCorrectness.ScanHelpers.collectVersionMajorLoop_preserves_tokens" target="_blank">
<polygon fill="#fff3cd" stroke="#d4a017" points="1197.26,-30.54 1197.26,-45.46 1027.08,-56 786.4,-56 616.22,-45.46 616.22,-30.54 786.4,-20 1027.08,-20 1197.26,-30.54"/>
<polygon fill="none" stroke="#d4a017" points="1201.26,-26.78 1201.26,-49.22 1027.2,-60 786.28,-60 612.22,-49.22 612.22,-26.78 786.28,-16 1027.2,-16 1201.26,-26.78"/>
<text text-anchor="middle" x="906.74" y="-34.9" font-family="Helvetica" font-size="12.00">ScannerCorrectness.ScanHelpers.collectVersionMajorLoop_preserves_tokens</text>
</a>
</g>
</g>
<!-- L4YAML.Proofs.ScannerCorrectness.ScanHelpers.collectVersionMajorLoop_preserves_tokens&#45;&gt;L4YAML.Positioned -->
<g id="edge2" class="edge">
<title>L4YAML.Proofs.ScannerCorrectness.ScanHelpers.collectVersionMajorLoop_preserves_tokens&#45;&gt;L4YAML.Positioned</title>
<path fill="none" stroke="#4a90d9" stroke-width="2" d="M1127.64,-53.89C1158.91,-65.37 1187.71,-82.59 1209.25,-108 1220.55,-121.33 1213.5,-248.49 1219.25,-265 1230.27,-296.67 1236.43,-305.6 1262.25,-327 1269.17,-332.73 1277.5,-337.48 1285.73,-341.31"/>
<polygon fill="#4a90d9" stroke="#4a90d9" stroke-width="2" points="1285.2,-343.76 1292.6,-344.32 1287.17,-339.27 1285.2,-343.76"/>
<text text-anchor="middle" x="1231.75" y="-312.6" font-family="Times-Roman" font-size="8.00" fill="#4a90d9">about</text>
</g>
<!-- L4YAML.Proofs.ScannerCorrectness.ScanHelpers.collectVersionMajorLoop_preserves_tokens&#45;&gt;L4YAML.Scanner.ScannerState -->
<g id="edge4" class="edge">
<title>L4YAML.Proofs.ScannerCorrectness.ScanHelpers.collectVersionMajorLoop_preserves_tokens&#45;&gt;L4YAML.Scanner.ScannerState</title>
<path fill="none" stroke="#4a90d9" stroke-width="2" d="M1116.46,-54.5C1151,-65.62 1183.79,-82.55 1209.25,-108 1223.13,-121.87 1209.37,-134.05 1219.25,-151 1226.85,-164.04 1235.68,-161.57 1244.25,-174 1256.48,-191.73 1247.32,-203.47 1262.25,-219 1267.09,-224.04 1273.04,-228.2 1279.3,-231.63"/>
<polygon fill="#4a90d9" stroke="#4a90d9" stroke-width="2" points="1278.28,-233.86 1285.64,-234.81 1280.49,-229.48 1278.28,-233.86"/>
<text text-anchor="middle" x="1231.75" y="-176.6" font-family="Times-Roman" font-size="8.00" fill="#4a90d9">about</text>
</g>
<!-- L4YAML.Proofs.ScannerCorrectness.ScanHelpers.collectVersionMajorLoop_preserves_tokens&#45;&gt;L4YAML.YamlToken -->
<g id="edge3" class="edge">
<title>L4YAML.Proofs.ScannerCorrectness.ScanHelpers.collectVersionMajorLoop_preserves_tokens&#45;&gt;L4YAML.YamlToken</title>
<path fill="none" stroke="#4a90d9" stroke-width="2" d="M1123.63,-54.11C1156.07,-65.46 1186.29,-82.57 1209.25,-108 1221.11,-121.14 1214.11,-170.07 1219.25,-187 1231.66,-227.89 1231.38,-243.45 1262.25,-273 1268.68,-279.15 1276.74,-284.05 1284.87,-287.89"/>
<polygon fill="#4a90d9" stroke="#4a90d9" stroke-width="2" points="1284.28,-290.31 1291.68,-290.87 1286.25,-285.82 1284.28,-290.31"/>
<text text-anchor="middle" x="1231.75" y="-254.6" font-family="Times-Roman" font-size="8.00" fill="#4a90d9">about</text>
</g>
<!-- L4YAML.Proofs.ScannerCorrectness.ScanHelpers.collectVersionMajorLoop_preserves_tokens&#45;&gt;L4YAML.Scanner.collectVersionMajorLoop -->
<g id="edge5" class="edge">
<title>L4YAML.Proofs.ScannerCorrectness.ScanHelpers.collectVersionMajorLoop_preserves_tokens&#45;&gt;L4YAML.Scanner.collectVersionMajorLoop</title>
<path fill="none" stroke="#4a90d9" stroke-width="2" d="M1126.83,-53.88C1166.71,-60.88 1207.35,-70.84 1244.25,-85 1262.79,-92.11 1281.3,-104.31 1295.69,-115.21"/>
<polygon fill="#4a90d9" stroke="#4a90d9" stroke-width="2" points="1294.56,-117.43 1301.59,-119.78 1297.56,-113.56 1294.56,-117.43"/>
<text text-anchor="middle" x="1231.75" y="-87.6" font-family="Times-Roman" font-size="8.00" fill="#4a90d9">about</text>
</g>
<!-- L4YAML.Proofs.ScannerCorrectness.ScanHelpers.collectVersionMajorLoop_preserves_tokens&#45;&gt;L4YAML.Scanner.ScannerState.tokens -->
<g id="edge1" class="edge">
<title>L4YAML.Proofs.ScannerCorrectness.ScanHelpers.collectVersionMajorLoop_preserves_tokens&#45;&gt;L4YAML.Scanner.ScannerState.tokens</title>
<path fill="none" stroke="#4a90d9" stroke-width="2" d="M1064.65,-57.72C1113.04,-68.11 1165.14,-83.93 1209.25,-108 1228.29,-118.39 1229.76,-125.87 1244.25,-142 1252.92,-151.66 1252.02,-157.01 1262.25,-165 1264.59,-166.83 1267.08,-168.57 1269.66,-170.21"/>
<polygon fill="#4a90d9" stroke="#4a90d9" stroke-width="2" points="1268.56,-172.41 1275.82,-173.88 1271.06,-168.19 1268.56,-172.41"/>
<text text-anchor="middle" x="1231.75" y="-144.6" font-family="Times-Roman" font-size="8.00" fill="#4a90d9">about</text>
</g>
<!-- L4YAML.Scanner.collectVersionMajorLoop.eq_def -->
<g id="node11" class="node">
<title>L4YAML.Scanner.collectVersionMajorLoop.eq_def</title>
<g id="a_node11"><a xlink:href="../../../api/L4YAML/Proofs/StructureCoupling.html#L4YAML.Scanner.collectVersionMajorLoop.eq_def" xlink:title="collectVersionMajorLoop.eq_def\n(StructureCoupling)" target="_blank">
<ellipse fill="#d4edda" stroke="#28a745" cx="295.61" cy="-294" rx="109.7" ry="21.43"/>
<text text-anchor="middle" x="295.61" y="-297" font-family="Helvetica" font-size="10.00">collectVersionMajorLoop.eq_def</text>
<text text-anchor="middle" x="295.61" y="-286" font-family="Helvetica" font-size="10.00">(StructureCoupling)</text>
</a>
</g>
</g>
<!-- L4YAML.Scanner.collectVersionMajorLoop.eq_def&#45;&gt;L4YAML.Scanner.collectVersionMajorLoop.match_1 -->
<g id="edge14" class="edge">
<title>L4YAML.Scanner.collectVersionMajorLoop.eq_def&#45;&gt;L4YAML.Scanner.collectVersionMajorLoop.match_1</title>
<path fill="none" stroke="#999999" stroke-dasharray="1,5" d="M357.05,-276.42C418.68,-259.16 517.33,-233.4 604.23,-219 676.34,-207.05 759.1,-200.11 819.65,-196.27"/>
<polygon fill="#999999" stroke="#999999" points="819.82,-198.02 824.7,-195.96 819.6,-194.52 819.82,-198.02"/>
</g>
<!-- L4YAML.Scanner.collectVersionMajorLoop.eq_def&#45;&gt;L4YAML.Scanner.ScannerState.advance -->
<g id="edge10" class="edge">
<title>L4YAML.Scanner.collectVersionMajorLoop.eq_def&#45;&gt;L4YAML.Scanner.ScannerState.advance</title>
<path fill="none" stroke="#999999" stroke-dasharray="1,5" d="M394.22,-303.3C449.7,-308.81 520.42,-316.23 583.23,-324 592.59,-325.16 594.86,-325.91 604.23,-327 687,-336.61 782.89,-344.67 843.9,-349.42"/>
<polygon fill="#999999" stroke="#999999" points="843.85,-351.17 848.97,-349.81 844.12,-347.68 843.85,-351.17"/>
</g>
<!-- L4YAML.Scanner.collectVersionMajorLoop.eq_def&#45;&gt;L4YAML.Scanner.ScannerState.peek? -->
<g id="edge15" class="edge">
<title>L4YAML.Scanner.collectVersionMajorLoop.eq_def&#45;&gt;L4YAML.Scanner.ScannerState.peek?</title>
<path fill="none" stroke="#999999" stroke-dasharray="1,5" d="M405.16,-295.07C535.33,-296.35 748.56,-298.45 849.45,-299.45"/>
<polygon fill="#999999" stroke="#999999" points="849.45,-301.2 854.47,-299.49 849.48,-297.7 849.45,-301.2"/>
</g>
<!-- L4YAML.Scanner.collectVersionMajorLoop.eq_def&#45;&gt;L4YAML.Scanner.ScannerState -->
<g id="edge12" class="edge">
<title>L4YAML.Scanner.collectVersionMajorLoop.eq_def&#45;&gt;L4YAML.Scanner.ScannerState</title>
<path fill="none" stroke="#999999" stroke-dasharray="1,5" d="M376.65,-279.71C437.83,-265.74 521.82,-239.71 583.23,-194 596,-184.5 590.06,-172.24 604.23,-165 664.1,-134.43 1151.31,-130.91 1209.25,-165 1217.14,-169.64 1213.42,-175.94 1219.25,-183 1235.12,-202.22 1241.11,-205.79 1262.25,-219 1268,-222.59 1274.31,-225.96 1280.62,-229.02"/>
<polygon fill="#999999" stroke="#999999" points="1280.17,-230.75 1285.44,-231.3 1281.67,-227.58 1280.17,-230.75"/>
</g>
<!-- L4YAML.Scanner.collectVersionMajorLoop.eq_def&#45;&gt;L4YAML.Scanner.ScannerState.peekAt?Loop.match_1 -->
<g id="edge11" class="edge">
<title>L4YAML.Scanner.collectVersionMajorLoop.eq_def&#45;&gt;L4YAML.Scanner.ScannerState.peekAt?Loop.match_1</title>
<path fill="none" stroke="#999999" stroke-dasharray="1,5" d="M397.54,-286.05C513.2,-276.93 701.15,-262.12 813.18,-253.29"/>
<polygon fill="#999999" stroke="#999999" points="813.61,-255.02 818.45,-252.88 813.33,-251.53 813.61,-255.02"/>
</g>
<!-- L4YAML.Scanner.collectVersionMajorLoop.eq_def&#45;&gt;L4YAML.Scanner.collectVersionMajorLoop -->
<g id="edge13" class="edge">
<title>L4YAML.Scanner.collectVersionMajorLoop.eq_def&#45;&gt;L4YAML.Scanner.collectVersionMajorLoop</title>
<path fill="none" stroke="#999999" stroke-dasharray="1,5" d="M388.85,-282.7C451.11,-270.55 531.13,-245.5 583.23,-194 602.73,-174.73 581.97,-152 604.23,-136 715.25,-56.23 1082.55,-123.56 1219.25,-122 1230.36,-121.87 1233.19,-120.88 1244.25,-122 1248.43,-122.42 1252.71,-122.97 1257.02,-123.6"/>
<polygon fill="#999999" stroke="#999999" points="1256.87,-125.35 1262.08,-124.38 1257.4,-121.89 1256.87,-125.35"/>
</g>
<!-- L4YAML.Scanner.collectVersionMajorLoop.eq_def&#45;&gt;L4YAML.Proofs.ScannerCorrectness.ScanHelpers.collectVersionMajorLoop_preserves_tokens -->
<g id="edge7" class="edge">
<title>L4YAML.Scanner.collectVersionMajorLoop.eq_def&#45;&gt;L4YAML.Proofs.ScannerCorrectness.ScanHelpers.collectVersionMajorLoop_preserves_tokens</title>
<path fill="none" stroke="#28a745" d="M397.53,-286C461.13,-275.3 539.28,-250.61 583.23,-194 599.23,-173.39 575.14,-95.81 593.23,-77 601.78,-68.11 611.26,-60.48 621.43,-53.96"/>
<polygon fill="#28a745" stroke="#28a745" points="622.8,-55.99 627.49,-50.25 620.24,-51.81 622.8,-55.99"/>
</g>
<!-- L4YAML.Proofs.ScannerCorrectness.advance_preserves_tokens -->
<g id="node12" class="node">
<title>L4YAML.Proofs.ScannerCorrectness.advance_preserves_tokens</title>
<g id="a_node12"><a xlink:href="../../../api/L4YAML/Proofs/ScannerCorrectness.html#L4YAML.Proofs.ScannerCorrectness.advance_preserves_tokens" xlink:title="ScannerCorrectness.advance_preserves_tokens\n(ScannerCorrectness)" target="_blank">
<ellipse fill="#d4edda" stroke="#28a745" cx="295.61" cy="-354" rx="160.53" ry="21.43"/>
<text text-anchor="middle" x="295.61" y="-357" font-family="Helvetica" font-size="10.00">ScannerCorrectness.advance_preserves_tokens</text>
<text text-anchor="middle" x="295.61" y="-346" font-family="Helvetica" font-size="10.00">(ScannerCorrectness)</text>
</a>
</g>
</g>
<!-- L4YAML.Proofs.ScannerCorrectness.advance_preserves_tokens&#45;&gt;L4YAML.Positioned -->
<g id="edge19" class="edge">
<title>L4YAML.Proofs.ScannerCorrectness.advance_preserves_tokens&#45;&gt;L4YAML.Positioned</title>
<path fill="none" stroke="#999999" stroke-dasharray="1,5" d="M329.68,-374.75C382.82,-406.78 491.57,-466.95 593.23,-490 875.44,-553.98 995.86,-648.46 1244.25,-500 1289.03,-473.23 1309.76,-411.15 1318.04,-377.2"/>
<polygon fill="#999999" stroke="#999999" points="1319.82,-377.27 1319.26,-372 1316.41,-376.47 1319.82,-377.27"/>
</g>
<!-- L4YAML.Proofs.ScannerCorrectness.advance_preserves_tokens&#45;&gt;L4YAML.Scanner.ScannerState.advance -->
<g id="edge18" class="edge">
<title>L4YAML.Proofs.ScannerCorrectness.advance_preserves_tokens&#45;&gt;L4YAML.Scanner.ScannerState.advance</title>
<path fill="none" stroke="#999999" stroke-dasharray="1,5" d="M456.26,-354C583.22,-354 754,-354 844.11,-354"/>
<polygon fill="#999999" stroke="#999999" points="844.13,-355.75 849.13,-354 844.13,-352.25 844.13,-355.75"/>
</g>
<!-- L4YAML.Proofs.ScannerCorrectness.advance_preserves_tokens&#45;&gt;L4YAML.Scanner.ScannerState -->
<g id="edge21" class="edge">
<title>L4YAML.Proofs.ScannerCorrectness.advance_preserves_tokens&#45;&gt;L4YAML.Scanner.ScannerState</title>
<path fill="none" stroke="#999999" stroke-dasharray="1,5" d="M370.38,-372.85C430.04,-387.14 516.45,-405.69 593.23,-414 665.15,-421.78 1190.15,-472.03 1244.25,-424 1269.52,-401.56 1242.21,-300.21 1262.25,-273 1267.05,-266.48 1273.79,-261.51 1281.03,-257.72"/>
<polygon fill="#999999" stroke="#999999" points="1281.85,-259.26 1285.59,-255.51 1280.33,-256.11 1281.85,-259.26"/>
</g>
<!-- L4YAML.Proofs.ScannerCorrectness.advance_preserves_tokens&#45;&gt;L4YAML.YamlToken -->
<g id="edge20" class="edge">
<title>L4YAML.Proofs.ScannerCorrectness.advance_preserves_tokens&#45;&gt;L4YAML.YamlToken</title>
<path fill="none" stroke="#999999" stroke-dasharray="1,5" d="M343.26,-374.33C400.76,-398.23 502.06,-436.58 593.23,-452 664.56,-464.06 1189.82,-509.65 1244.25,-462 1289.79,-422.13 1226.01,-375.49 1262.25,-327 1268.35,-318.84 1277.47,-313.1 1286.79,-309.07"/>
<polygon fill="#999999" stroke="#999999" points="1287.67,-310.6 1291.66,-307.12 1286.37,-307.35 1287.67,-310.6"/>
</g>
<!-- L4YAML.Proofs.ScannerCorrectness.advance_preserves_tokens&#45;&gt;L4YAML.Scanner.ScannerState.tokens -->
<g id="edge17" class="edge">
<title>L4YAML.Proofs.ScannerCorrectness.advance_preserves_tokens&#45;&gt;L4YAML.Scanner.ScannerState.tokens</title>
<path fill="none" stroke="#999999" stroke-dasharray="1,5" d="M419.88,-367.48C662.63,-392.69 1184.35,-439.79 1244.25,-386 1272.02,-361.06 1240.28,-249.18 1262.25,-219 1263.7,-217.01 1265.32,-215.17 1267.09,-213.46"/>
<polygon fill="#999999" stroke="#999999" points="1268.28,-214.74 1270.9,-210.13 1265.98,-212.1 1268.28,-214.74"/>
</g>
<!-- L4YAML.Proofs.ScannerCorrectness.advance_preserves_tokens&#45;&gt;L4YAML.Proofs.ScannerCorrectness.ScanHelpers.collectVersionMajorLoop_preserves_tokens -->
<g id="edge6" class="edge">
<title>L4YAML.Proofs.ScannerCorrectness.advance_preserves_tokens&#45;&gt;L4YAML.Proofs.ScannerCorrectness.ScanHelpers.collectVersionMajorLoop_preserves_tokens</title>
<path fill="none" stroke="#28a745" d="M387.07,-371.48C450.76,-378.12 533.27,-374.33 583.23,-324 617.21,-289.77 572.44,-144.26 604.23,-108 624.98,-84.33 652.02,-67.83 681.38,-56.46"/>
<polygon fill="#28a745" stroke="#28a745" points="682.37,-58.7 688.08,-53.96 680.66,-54.11 682.37,-58.7"/>
</g>
<!-- _private.L4YAML.Proofs.ScannerCorrectness.0.L4YAML.Scanner.collectVersionMajorLoop.match_1.eq_2 -->
<g id="node13" class="node">
<title>_private.L4YAML.Proofs.ScannerCorrectness.0.L4YAML.Scanner.collectVersionMajorLoop.match_1.eq_2</title>
<g id="a_node13"><a xlink:href="../../../api/L4YAML/Proofs/ScannerCorrectness.html#_private.L4YAML.Proofs.ScannerCorrectness.0.L4YAML.Scanner.collectVersionMajorLoop.match_1.eq_2" xlink:title="_private.L4YAML.Proofs.ScannerCorrectness.0.L4YAML.Scanner.collectVersionMajorLoop.match_1.eq_2" target="_blank">
<ellipse fill="#fdebd0" stroke="#e67e22" cx="295.61" cy="-142" rx="279.73" ry="18"/>
<text text-anchor="middle" x="295.61" y="-139.5" font-family="Helvetica" font-size="10.00">_private.L4YAML.Proofs.ScannerCorrectness.0.L4YAML.Scanner.collectVersionMajorLoop.match_1.eq_2</text>
</a>
</g>
</g>
<!-- _private.L4YAML.Proofs.ScannerCorrectness.0.L4YAML.Scanner.collectVersionMajorLoop.match_1.eq_2&#45;&gt;L4YAML.Scanner.collectVersionMajorLoop.match_1 -->
<g id="edge16" class="edge">
<title>_private.L4YAML.Proofs.ScannerCorrectness.0.L4YAML.Scanner.collectVersionMajorLoop.match_1.eq_2&#45;&gt;L4YAML.Scanner.collectVersionMajorLoop.match_1</title>
<path fill="none" stroke="#999999" stroke-dasharray="1,5" d="M401,-158.73C457.71,-167.14 529.15,-176.67 593.23,-182 669.52,-188.35 756.6,-190.74 819.43,-191.6"/>
<polygon fill="#999999" stroke="#999999" points="819.65,-193.35 824.67,-191.67 819.69,-189.86 819.65,-193.35"/>
</g>
<!-- _private.L4YAML.Proofs.ScannerCorrectness.0.L4YAML.Scanner.collectVersionMajorLoop.match_1.eq_2&#45;&gt;L4YAML.Proofs.ScannerCorrectness.ScanHelpers.collectVersionMajorLoop_preserves_tokens -->
<g id="edge8" class="edge">
<title>_private.L4YAML.Proofs.ScannerCorrectness.0.L4YAML.Scanner.collectVersionMajorLoop.match_1.eq_2&#45;&gt;L4YAML.Proofs.ScannerCorrectness.ScanHelpers.collectVersionMajorLoop_preserves_tokens</title>
<path fill="none" stroke="#e67e22" stroke-width="2" d="M381.74,-159.14C445.45,-166.67 530.38,-164.59 583.23,-115 603.9,-95.6 572.09,-70.89 593.23,-52 652.95,1.34 747.53,-2.11 817.02,-14.64"/>
<polygon fill="#e67e22" stroke="#e67e22" stroke-width="2" points="816.76,-17.08 824.09,-15.96 817.66,-12.26 816.76,-17.08"/>
</g>
<!-- _private.L4YAML.Proofs.ScannerCorrectness.0.L4YAML.Scanner.collectVersionMajorLoop.match_1.eq_1 -->
<g id="node14" class="node">
<title>_private.L4YAML.Proofs.ScannerCorrectness.0.L4YAML.Scanner.collectVersionMajorLoop.match_1.eq_1</title>
<g id="a_node14"><a xlink:href="../../../api/L4YAML/Proofs/ScannerCorrectness.html#_private.L4YAML.Proofs.ScannerCorrectness.0.L4YAML.Scanner.collectVersionMajorLoop.match_1.eq_1" xlink:title="_private.L4YAML.Proofs.ScannerCorrectness.0.L4YAML.Scanner.collectVersionMajorLoop.match_1.eq_1" target="_blank">
<ellipse fill="#fdebd0" stroke="#e67e22" cx="295.61" cy="-88" rx="279.73" ry="18"/>
<text text-anchor="middle" x="295.61" y="-85.5" font-family="Helvetica" font-size="10.00">_private.L4YAML.Proofs.ScannerCorrectness.0.L4YAML.Scanner.collectVersionMajorLoop.match_1.eq_1</text>
</a>
</g>
</g>
<!-- _private.L4YAML.Proofs.ScannerCorrectness.0.L4YAML.Scanner.collectVersionMajorLoop.match_1.eq_1&#45;&gt;L4YAML.Scanner.collectVersionMajorLoop.match_1 -->
<g id="edge22" class="edge">
<title>_private.L4YAML.Proofs.ScannerCorrectness.0.L4YAML.Scanner.collectVersionMajorLoop.match_1.eq_1&#45;&gt;L4YAML.Scanner.collectVersionMajorLoop.match_1</title>
<path fill="none" stroke="#999999" stroke-dasharray="1,5" d="M480.97,-101.51C515.08,-105.1 550.32,-109.55 583.23,-115 671.79,-129.67 772.12,-155.04 837.03,-172.63"/>
<polygon fill="#999999" stroke="#999999" points="836.75,-174.36 842.03,-173.99 837.66,-170.99 836.75,-174.36"/>
</g>
<!-- _private.L4YAML.Proofs.ScannerCorrectness.0.L4YAML.Scanner.collectVersionMajorLoop.match_1.eq_1&#45;&gt;L4YAML.Proofs.ScannerCorrectness.ScanHelpers.collectVersionMajorLoop_preserves_tokens -->
<g id="edge9" class="edge">
<title>_private.L4YAML.Proofs.ScannerCorrectness.0.L4YAML.Scanner.collectVersionMajorLoop.match_1.eq_1&#45;&gt;L4YAML.Proofs.ScannerCorrectness.ScanHelpers.collectVersionMajorLoop_preserves_tokens</title>
<path fill="none" stroke="#e67e22" stroke-width="2" d="M362.29,-70.5C422,-55.54 512.81,-35.18 593.23,-27 618.04,-24.48 644,-23.21 669.91,-22.84"/>
<polygon fill="#e67e22" stroke="#e67e22" stroke-width="2" points="670.25,-25.28 677.22,-22.75 670.19,-20.38 670.25,-25.28"/>
</g>
</g>
</svg>
