<?xml version="1.0" encoding="UTF-8" standalone="no"?>
<!DOCTYPE svg PUBLIC "-//W3C//DTD SVG 1.1//EN"
 "http://www.w3.org/Graphics/SVG/1.1/DTD/svg11.dtd">
<!-- Generated by graphviz version 2.44.0 (0)
 -->
<!-- Title: ScannerProofs.emit_tokens_size Pages: 1 -->
<svg width="690pt" height="364pt"
 viewBox="0.00 0.00 690.01 364.00" xmlns="http://www.w3.org/2000/svg" xmlns:xlink="http://www.w3.org/1999/xlink">
<g id="graph0" class="graph" transform="scale(1 1) rotate(0) translate(4 360)">
<title>ScannerProofs.emit_tokens_size</title>
<polygon fill="white" stroke="transparent" points="-4,4 -4,-360 686.01,-360 686.01,4 -4,4"/>
<text text-anchor="middle" x="341.01" y="-341.6" font-family="Helvetica Bold" font-size="13.00">ScannerProofs.emit_tokens_size</text>
<text text-anchor="middle" x="341.01" y="-327.6" font-family="Helvetica Bold" font-size="13.00">(heuristic: used by 33 proofs)</text>
<text text-anchor="middle" x="341.01" y="-313.6" font-family="Helvetica Bold" font-size="13.00">(L4YAML.Proofs.ScannerProofs)</text>
<g id="clust1" class="cluster">
<title>cluster_functions</title>
<polygon fill="none" stroke="#4a90d9" stroke-dasharray="5,2" points="551.01,-8 551.01,-298 674.01,-298 674.01,-8 551.01,-8"/>
<text text-anchor="middle" x="612.51" y="-283.6" font-family="Helvetica Bold" font-size="13.00" fill="#4a90d9">Functions</text>
</g>
<g id="clust2" class="cluster">
<title>cluster_key</title>
<polygon fill="none" stroke="#d4a017" stroke-dasharray="5,2" points="227.49,-112 227.49,-194 506.01,-194 506.01,-112 227.49,-112"/>
<text text-anchor="middle" x="366.75" y="-179.6" font-family="Helvetica Bold" font-size="13.00" fill="#d4a017">Key Theorem</text>
</g>
<g id="clust4" class="cluster">
<title>cluster_stdlib</title>
<polygon fill="none" stroke="#e67e22" stroke-dasharray="5,2" points="8,-36 8,-272 206.49,-272 206.49,-36 8,-36"/>
<text text-anchor="middle" x="107.24" y="-257.6" font-family="Helvetica Bold" font-size="13.00" fill="#e67e22">Stdlib Lemmas</text>
</g>
<!-- L4YAML.Positioned -->
<g id="node1" class="node">
<title>L4YAML.Positioned</title>
<polygon fill="#dce9f7" stroke="#4a90d9" points="643.51,-268 581.51,-268 581.51,-232 643.51,-232 643.51,-268"/>
<text text-anchor="middle" x="612.51" y="-253" font-family="Helvetica" font-size="10.00">Positioned</text>
<text text-anchor="middle" x="612.51" y="-242" font-family="Helvetica" font-size="10.00">(inductive)</text>
</g>
<!-- L4YAML.Scanner.ScannerState.emit -->
<g id="node2" class="node">
<title>L4YAML.Scanner.ScannerState.emit</title>
<polygon fill="#dce9f7" stroke="#4a90d9" points="661.51,-214 563.51,-214 563.51,-178 661.51,-178 661.51,-214"/>
<text text-anchor="middle" x="612.51" y="-199" font-family="Helvetica" font-size="10.00">ScannerState.emit</text>
<text text-anchor="middle" x="612.51" y="-188" font-family="Helvetica" font-size="10.00">(def)</text>
</g>
<!-- L4YAML.Scanner.ScannerState -->
<g id="node3" class="node">
<title>L4YAML.Scanner.ScannerState</title>
<polygon fill="#dce9f7" stroke="#4a90d9" points="650.51,-160 574.51,-160 574.51,-124 650.51,-124 650.51,-160"/>
<text text-anchor="middle" x="612.51" y="-145" font-family="Helvetica" font-size="10.00">ScannerState</text>
<text text-anchor="middle" x="612.51" y="-134" font-family="Helvetica" font-size="10.00">(inductive)</text>
</g>
<!-- L4YAML.YamlToken -->
<g id="node4" class="node">
<title>L4YAML.YamlToken</title>
<polygon fill="#dce9f7" stroke="#4a90d9" points="644.51,-106 580.51,-106 580.51,-70 644.51,-70 644.51,-106"/>
<text text-anchor="middle" x="612.51" y="-91" font-family="Helvetica" font-size="10.00">YamlToken</text>
<text text-anchor="middle" x="612.51" y="-80" font-family="Helvetica" font-size="10.00">(inductive)</text>
</g>
<!-- L4YAML.Scanner.ScannerState.tokens -->
<g id="node5" class="node">
<title>L4YAML.Scanner.ScannerState.tokens</title>
<polygon fill="#dce9f7" stroke="#4a90d9" points="666.01,-52 559.01,-52 559.01,-16 666.01,-16 666.01,-52"/>
<text text-anchor="middle" x="612.51" y="-37" font-family="Helvetica" font-size="10.00">ScannerState.tokens</text>
<text text-anchor="middle" x="612.51" y="-26" font-family="Helvetica" font-size="10.00">(def)</text>
</g>
<!-- L4YAML.Proofs.ScannerProofs.emit_tokens_size -->
<g id="node6" class="node">
<title>L4YAML.Proofs.ScannerProofs.emit_tokens_size</title>
<polygon fill="#fff3cd" stroke="#d4a017" points="493.79,-134.54 493.79,-149.46 419.37,-160 314.13,-160 239.71,-149.46 239.71,-134.54 314.13,-124 419.37,-124 493.79,-134.54"/>
<polygon fill="none" stroke="#d4a017" points="497.78,-131.07 497.78,-152.93 419.65,-164 313.85,-164 235.72,-152.93 235.72,-131.07 313.85,-120 419.65,-120 497.78,-131.07"/>
<text text-anchor="middle" x="366.75" y="-138.9" font-family="Helvetica" font-size="12.00">ScannerProofs.emit_tokens_size</text>
</g>
<!-- L4YAML.Proofs.ScannerProofs.emit_tokens_size&#45;&gt;L4YAML.Positioned -->
<g id="edge3" class="edge">
<title>L4YAML.Proofs.ScannerProofs.emit_tokens_size&#45;&gt;L4YAML.Positioned</title>
<path fill="none" stroke="#4a90d9" stroke-width="2" d="M417.67,-164.12C464.34,-184.79 532.95,-215.19 574.79,-233.73"/>
<polygon fill="#4a90d9" stroke="#4a90d9" stroke-width="2" points="573.88,-236 581.27,-236.6 575.86,-231.52 573.88,-236"/>
<text text-anchor="middle" x="528.51" y="-220.6" font-family="Times-Roman" font-size="8.00" fill="#4a90d9">about</text>
</g>
<!-- L4YAML.Proofs.ScannerProofs.emit_tokens_size&#45;&gt;L4YAML.Scanner.ScannerState.emit -->
<g id="edge2" class="edge">
<title>L4YAML.Proofs.ScannerProofs.emit_tokens_size&#45;&gt;L4YAML.Scanner.ScannerState.emit</title>
<path fill="none" stroke="#4a90d9" stroke-width="2" d="M448.58,-159.91C483.88,-167.73 524.39,-176.7 556.18,-183.74"/>
<polygon fill="#4a90d9" stroke="#4a90d9" stroke-width="2" points="555.88,-186.18 563.24,-185.31 556.94,-181.4 555.88,-186.18"/>
<text text-anchor="middle" x="528.51" y="-182.6" font-family="Times-Roman" font-size="8.00" fill="#4a90d9">about</text>
</g>
<!-- L4YAML.Proofs.ScannerProofs.emit_tokens_size&#45;&gt;L4YAML.Scanner.ScannerState -->
<g id="edge5" class="edge">
<title>L4YAML.Proofs.ScannerProofs.emit_tokens_size&#45;&gt;L4YAML.Scanner.ScannerState</title>
<path fill="none" stroke="#4a90d9" stroke-width="2" d="M497.84,-142C522.9,-142 547.49,-142 567.36,-142"/>
<polygon fill="#4a90d9" stroke="#4a90d9" stroke-width="2" points="567.45,-144.45 574.45,-142 567.45,-139.55 567.45,-144.45"/>
<text text-anchor="middle" x="528.51" y="-144.6" font-family="Times-Roman" font-size="8.00" fill="#4a90d9">about</text>
</g>
<!-- L4YAML.Proofs.ScannerProofs.emit_tokens_size&#45;&gt;L4YAML.YamlToken -->
<g id="edge4" class="edge">
<title>L4YAML.Proofs.ScannerProofs.emit_tokens_size&#45;&gt;L4YAML.YamlToken</title>
<path fill="none" stroke="#4a90d9" stroke-width="2" d="M448.58,-124.09C490.63,-114.78 540.06,-103.83 573.36,-96.45"/>
<polygon fill="#4a90d9" stroke="#4a90d9" stroke-width="2" points="573.91,-98.84 580.21,-94.93 572.85,-94.06 573.91,-98.84"/>
<text text-anchor="middle" x="528.51" y="-110.6" font-family="Times-Roman" font-size="8.00" fill="#4a90d9">about</text>
</g>
<!-- L4YAML.Proofs.ScannerProofs.emit_tokens_size&#45;&gt;L4YAML.Scanner.ScannerState.tokens -->
<g id="edge1" class="edge">
<title>L4YAML.Proofs.ScannerProofs.emit_tokens_size&#45;&gt;L4YAML.Scanner.ScannerState.tokens</title>
<path fill="none" stroke="#4a90d9" stroke-width="2" d="M417.67,-119.88C460.51,-100.9 521.82,-73.74 563.96,-55.07"/>
<polygon fill="#4a90d9" stroke="#4a90d9" stroke-width="2" points="565.15,-57.22 570.56,-52.15 563.16,-52.74 565.15,-57.22"/>
<text text-anchor="middle" x="528.51" y="-77.6" font-family="Times-Roman" font-size="8.00" fill="#4a90d9">about</text>
</g>
<!-- Nat.add_left_cancel_iff._simp_1 -->
<g id="node7" class="node">
<title>Nat.add_left_cancel_iff._simp_1</title>
<ellipse fill="#fdebd0" stroke="#e67e22" cx="107.24" cy="-224" rx="91.49" ry="18"/>
<text text-anchor="middle" x="107.24" y="-221.5" font-family="Helvetica" font-size="10.00">Nat.add_left_cancel_iff._simp_1</text>
</g>
<!-- Nat.add_left_cancel_iff._simp_1&#45;&gt;L4YAML.Proofs.ScannerProofs.emit_tokens_size -->
<g id="edge6" class="edge">
<title>Nat.add_left_cancel_iff._simp_1&#45;&gt;L4YAML.Proofs.ScannerProofs.emit_tokens_size</title>
<path fill="none" stroke="#e67e22" stroke-width="2" d="M162.73,-209.7C177.02,-205.76 192.38,-201.37 206.49,-197 237.66,-187.35 271.91,-175.66 300.63,-165.55"/>
<polygon fill="#e67e22" stroke="#e67e22" stroke-width="2" points="301.64,-167.79 307.43,-163.15 300.01,-163.17 301.64,-167.79"/>
</g>
<!-- eq_self -->
<g id="node8" class="node">
<title>eq_self</title>
<ellipse fill="#fdebd0" stroke="#e67e22" cx="107.24" cy="-170" rx="28.01" ry="18"/>
<text text-anchor="middle" x="107.24" y="-167.5" font-family="Helvetica" font-size="10.00">eq_self</text>
</g>
<!-- eq_self&#45;&gt;L4YAML.Proofs.ScannerProofs.emit_tokens_size -->
<g id="edge7" class="edge">
<title>eq_self&#45;&gt;L4YAML.Proofs.ScannerProofs.emit_tokens_size</title>
<path fill="none" stroke="#e67e22" stroke-width="2" d="M135.31,-167.06C160.9,-164.27 201.2,-159.89 240.99,-155.57"/>
<polygon fill="#e67e22" stroke="#e67e22" stroke-width="2" points="241.72,-157.95 248.41,-154.76 241.19,-153.08 241.72,-157.95"/>
</g>
<!-- of_eq_true -->
<g id="node9" class="node">
<title>of_eq_true</title>
<ellipse fill="#fdebd0" stroke="#e67e22" cx="107.24" cy="-116" rx="36.49" ry="18"/>
<text text-anchor="middle" x="107.24" y="-113.5" font-family="Helvetica" font-size="10.00">of_eq_true</text>
</g>
<!-- of_eq_true&#45;&gt;L4YAML.Proofs.ScannerProofs.emit_tokens_size -->
<g id="edge8" class="edge">
<title>of_eq_true&#45;&gt;L4YAML.Proofs.ScannerProofs.emit_tokens_size</title>
<path fill="none" stroke="#e67e22" stroke-width="2" d="M143.24,-119.53C167.89,-122.02 202.55,-125.52 237.2,-129.02"/>
<polygon fill="#e67e22" stroke="#e67e22" stroke-width="2" points="237.37,-131.5 244.58,-129.77 237.87,-126.63 237.37,-131.5"/>
</g>
<!-- Array.size_push -->
<g id="node10" class="node">
<title>Array.size_push</title>
<ellipse fill="#fdebd0" stroke="#e67e22" cx="107.24" cy="-62" rx="50.75" ry="18"/>
<text text-anchor="middle" x="107.24" y="-59.5" font-family="Helvetica" font-size="10.00">Array.size_push</text>
</g>
<!-- Array.size_push&#45;&gt;L4YAML.Proofs.ScannerProofs.emit_tokens_size -->
<g id="edge9" class="edge">
<title>Array.size_push&#45;&gt;L4YAML.Proofs.ScannerProofs.emit_tokens_size</title>
<path fill="none" stroke="#e67e22" stroke-width="2" d="M148.53,-72.56C166.35,-77.36 187.53,-83.25 206.49,-89 236.95,-98.25 270.41,-109.25 298.77,-118.83"/>
<polygon fill="#e67e22" stroke="#e67e22" stroke-width="2" points="298.07,-121.18 305.49,-121.11 299.64,-116.54 298.07,-121.18"/>
</g>
</g>
</svg>
