<?xml version="1.0" encoding="UTF-8" standalone="no"?>
<!DOCTYPE svg PUBLIC "-//W3C//DTD SVG 1.1//EN"
 "http://www.w3.org/Graphics/SVG/1.1/DTD/svg11.dtd">
<!-- Generated by graphviz version 2.44.0 (0)
 -->
<!-- Title: ScannerCorrectness.skipSpaces_preserves_simpleKey Pages: 1 -->
<svg width="1083pt" height="400pt"
 viewBox="0.00 0.00 1083.01 400.00" xmlns="http://www.w3.org/2000/svg" xmlns:xlink="http://www.w3.org/1999/xlink">
<g id="graph0" class="graph" transform="scale(1 1) rotate(0) translate(4 396)">
<title>ScannerCorrectness.skipSpaces_preserves_simpleKey</title>
<polygon fill="white" stroke="transparent" points="-4,4 -4,-396 1079.01,-396 1079.01,4 -4,4"/>
<text text-anchor="middle" x="537.5" y="-377.6" font-family="Helvetica Bold" font-size="13.00">ScannerCorrectness.skipSpaces_preserves_simpleKey</text>
<text text-anchor="middle" x="537.5" y="-363.6" font-family="Helvetica Bold" font-size="13.00">(heuristic: used by 5 proofs)</text>
<text text-anchor="middle" x="537.5" y="-349.6" font-family="Helvetica Bold" font-size="13.00">(L4YAML.Proofs.ScannerCorrectness)</text>
<g id="clust1" class="cluster">
<title>cluster_functions</title>
<polygon fill="none" stroke="#4a90d9" stroke-dasharray="5,2" points="608.29,-98 608.29,-334 1067.01,-334 1067.01,-98 608.29,-98"/>
<text text-anchor="middle" x="837.65" y="-319.6" font-family="Helvetica Bold" font-size="13.00" fill="#4a90d9">Functions</text>
</g>
<g id="clust2" class="cluster">
<title>cluster_key</title>
<polygon fill="none" stroke="#d4a017" stroke-dasharray="5,2" points="439.57,-8 439.57,-90 882.01,-90 882.01,-8 439.57,-8"/>
<text text-anchor="middle" x="660.79" y="-75.6" font-family="Helvetica Bold" font-size="13.00" fill="#d4a017">Key Theorem</text>
</g>
<g id="clust3" class="cluster">
<title>cluster_proofs</title>
<polygon fill="none" stroke="#28a745" stroke-dasharray="5,2" points="8,-173 8,-253 418.57,-253 418.57,-173 8,-173"/>
<text text-anchor="middle" x="213.28" y="-238.6" font-family="Helvetica Bold" font-size="13.00" fill="#28a745">Proof Dependencies</text>
</g>
<!-- L4YAML.Scanner.ScannerState.simpleKey -->
<g id="node1" class="node">
<title>L4YAML.Scanner.ScannerState.simpleKey</title>
<g id="a_node1"><a xlink:href="../../../api/L4YAML/Scanner.html#L4YAML.Scanner.ScannerState.simpleKey" xlink:title="ScannerState.simpleKey\n(def)" target="_blank">
<polygon fill="#dce9f7" stroke="#4a90d9" points="1059.01,-250 935.01,-250 935.01,-214 1059.01,-214 1059.01,-250"/>
<text text-anchor="middle" x="997.01" y="-235" font-family="Helvetica" font-size="10.00">ScannerState.simpleKey</text>
<text text-anchor="middle" x="997.01" y="-224" font-family="Helvetica" font-size="10.00">(def)</text>
</a>
</g>
</g>
<!-- L4YAML.Scanner.skipSpaces -->
<g id="node2" class="node">
<title>L4YAML.Scanner.skipSpaces</title>
<g id="a_node2"><a xlink:href="../../../api/L4YAML/Scanner.html#L4YAML.Scanner.skipSpaces" xlink:title="skipSpaces\n(def)" target="_blank">
<polygon fill="#dce9f7" stroke="#4a90d9" points="1031.01,-142 963.01,-142 963.01,-106 1031.01,-106 1031.01,-142"/>
<text text-anchor="middle" x="997.01" y="-127" font-family="Helvetica" font-size="10.00">skipSpaces</text>
<text text-anchor="middle" x="997.01" y="-116" font-family="Helvetica" font-size="10.00">(def)</text>
</a>
</g>
</g>
<!-- L4YAML.Scanner.ScannerState -->
<g id="node3" class="node">
<title>L4YAML.Scanner.ScannerState</title>
<g id="a_node3"><a xlink:href="../../../api/L4YAML/Scanner.html#L4YAML.Scanner.ScannerState" xlink:title="ScannerState\n(inductive)" target="_blank">
<polygon fill="#dce9f7" stroke="#4a90d9" points="1035.01,-304 959.01,-304 959.01,-268 1035.01,-268 1035.01,-304"/>
<text text-anchor="middle" x="997.01" y="-289" font-family="Helvetica" font-size="10.00">ScannerState</text>
<text text-anchor="middle" x="997.01" y="-278" font-family="Helvetica" font-size="10.00">(inductive)</text>
</a>
</g>
</g>
<!-- L4YAML.Scanner.skipSpacesLoop -->
<g id="node4" class="node">
<title>L4YAML.Scanner.skipSpacesLoop</title>
<g id="a_node4"><a xlink:href="../../../api/L4YAML/Scanner.html#L4YAML.Scanner.skipSpacesLoop" xlink:title="skipSpacesLoop\n(def)" target="_blank">
<polygon fill="#dce9f7" stroke="#4a90d9" points="705.29,-304 616.29,-304 616.29,-268 705.29,-268 705.29,-304"/>
<text text-anchor="middle" x="660.79" y="-289" font-family="Helvetica" font-size="10.00">skipSpacesLoop</text>
<text text-anchor="middle" x="660.79" y="-278" font-family="Helvetica" font-size="10.00">(def)</text>
</a>
</g>
</g>
<!-- L4YAML.Scanner.SimpleKeyState -->
<g id="node5" class="node">
<title>L4YAML.Scanner.SimpleKeyState</title>
<g id="a_node5"><a xlink:href="../../../api/L4YAML/Scanner.html#L4YAML.Scanner.SimpleKeyState" xlink:title="SimpleKeyState\n(inductive)" target="_blank">
<polygon fill="#dce9f7" stroke="#4a90d9" points="1040.01,-196 954.01,-196 954.01,-160 1040.01,-160 1040.01,-196"/>
<text text-anchor="middle" x="997.01" y="-181" font-family="Helvetica" font-size="10.00">SimpleKeyState</text>
<text text-anchor="middle" x="997.01" y="-170" font-family="Helvetica" font-size="10.00">(inductive)</text>
</a>
</g>
</g>
<!-- L4YAML.Proofs.ScannerCorrectness.skipSpaces_preserves_simpleKey -->
<g id="node6" class="node">
<title>L4YAML.Proofs.ScannerCorrectness.skipSpaces_preserves_simpleKey</title>
<g id="a_node6"><a xlink:href="../../../api/L4YAML/Proofs/ScannerCorrectness.html#L4YAML.Proofs.ScannerCorrectness.skipSpaces_preserves_simpleKey" xlink:title="ScannerCorrectness.skipSpaces_preserves_simpleKey" target="_blank">
<polygon fill="#fff3cd" stroke="#d4a017" points="870.22,-30.54 870.22,-45.46 747.54,-56 574.03,-56 451.35,-45.46 451.35,-30.54 574.03,-20 747.54,-20 870.22,-30.54"/>
<polygon fill="none" stroke="#d4a017" points="874.23,-26.87 874.23,-49.13 747.71,-60 573.86,-60 447.35,-49.13 447.35,-26.87 573.86,-16 747.71,-16 874.23,-26.87"/>
<text text-anchor="middle" x="660.79" y="-34.9" font-family="Helvetica" font-size="12.00">ScannerCorrectness.skipSpaces_preserves_simpleKey</text>
</a>
</g>
</g>
<!-- L4YAML.Proofs.ScannerCorrectness.skipSpaces_preserves_simpleKey&#45;&gt;L4YAML.Scanner.ScannerState.simpleKey -->
<g id="edge4" class="edge">
<title>L4YAML.Proofs.ScannerCorrectness.skipSpaces_preserves_simpleKey&#45;&gt;L4YAML.Scanner.ScannerState.simpleKey</title>
<path fill="none" stroke="#4a90d9" stroke-width="2" d="M797.05,-55.79C826.88,-64.08 857.01,-76.23 882.01,-94 905.01,-110.36 904.92,-121.49 917.01,-147 928.56,-171.39 917.06,-184.84 935.01,-205 936.41,-206.58 937.93,-208.07 939.54,-209.48"/>
<polygon fill="#4a90d9" stroke="#4a90d9" stroke-width="2" points="938.27,-211.6 945.3,-213.96 941.27,-207.73 938.27,-211.6"/>
<text text-anchor="middle" x="904.51" y="-149.6" font-family="Times-Roman" font-size="8.00" fill="#4a90d9">about</text>
</g>
<!-- L4YAML.Proofs.ScannerCorrectness.skipSpaces_preserves_simpleKey&#45;&gt;L4YAML.Scanner.skipSpaces -->
<g id="edge1" class="edge">
<title>L4YAML.Proofs.ScannerCorrectness.skipSpaces_preserves_simpleKey&#45;&gt;L4YAML.Scanner.skipSpaces</title>
<path fill="none" stroke="#4a90d9" stroke-width="2" d="M874.33,-37.4C889.04,-40.82 903.41,-45.28 917.01,-51 941.75,-61.41 963.61,-83.15 978.03,-100.21"/>
<polygon fill="#4a90d9" stroke="#4a90d9" stroke-width="2" points="976.29,-101.95 982.63,-105.79 980.07,-98.83 976.29,-101.95"/>
<text text-anchor="middle" x="904.51" y="-53.6" font-family="Times-Roman" font-size="8.00" fill="#4a90d9">about</text>
</g>
<!-- L4YAML.Proofs.ScannerCorrectness.skipSpaces_preserves_simpleKey&#45;&gt;L4YAML.Scanner.ScannerState -->
<g id="edge2" class="edge">
<title>L4YAML.Proofs.ScannerCorrectness.skipSpaces_preserves_simpleKey&#45;&gt;L4YAML.Scanner.ScannerState</title>
<path fill="none" stroke="#4a90d9" stroke-width="2" d="M819.12,-53.91C842.86,-62.65 865.03,-75.44 882.01,-94 900.84,-114.6 884.35,-129.16 892.01,-156 892.43,-157.49 933.92,-257.89 935.01,-259 939.99,-264.09 946.1,-268.29 952.5,-271.74"/>
<polygon fill="#4a90d9" stroke="#4a90d9" stroke-width="2" points="951.62,-274.03 958.98,-274.94 953.79,-269.64 951.62,-274.03"/>
<text text-anchor="middle" x="904.51" y="-215.6" font-family="Times-Roman" font-size="8.00" fill="#4a90d9">about</text>
</g>
<!-- L4YAML.Proofs.ScannerCorrectness.skipSpaces_preserves_simpleKey&#45;&gt;L4YAML.Scanner.SimpleKeyState -->
<g id="edge3" class="edge">
<title>L4YAML.Proofs.ScannerCorrectness.skipSpaces_preserves_simpleKey&#45;&gt;L4YAML.Scanner.SimpleKeyState</title>
<path fill="none" stroke="#4a90d9" stroke-width="2" d="M852.9,-51C876.51,-59.31 898.72,-71.2 917.01,-88 938.45,-107.7 915.89,-129.03 935.01,-151 938.64,-155.18 943.05,-158.74 947.81,-161.76"/>
<polygon fill="#4a90d9" stroke="#4a90d9" stroke-width="2" points="946.71,-163.95 954,-165.31 949.15,-159.7 946.71,-163.95"/>
<text text-anchor="middle" x="904.51" y="-90.6" font-family="Times-Roman" font-size="8.00" fill="#4a90d9">about</text>
</g>
<!-- L4YAML.Proofs.ScannerCorrectness.skipSpacesLoop_preserves_simpleKey -->
<g id="node7" class="node">
<title>L4YAML.Proofs.ScannerCorrectness.skipSpacesLoop_preserves_simpleKey</title>
<g id="a_node7"><a xlink:href="../../../api/L4YAML/Proofs/ScannerCorrectness.html#L4YAML.Proofs.ScannerCorrectness.skipSpacesLoop_preserves_simpleKey" xlink:title="ScannerCorrectness.skipSpacesLoop_preserves_simpleKey\n(ScannerCorrectness)" target="_blank">
<ellipse fill="#d4edda" stroke="#28a745" cx="213.28" cy="-202" rx="197.07" ry="21.43"/>
<text text-anchor="middle" x="213.28" y="-205" font-family="Helvetica" font-size="10.00">ScannerCorrectness.skipSpacesLoop_preserves_simpleKey</text>
<text text-anchor="middle" x="213.28" y="-194" font-family="Helvetica" font-size="10.00">(ScannerCorrectness)</text>
</a>
</g>
</g>
<!-- L4YAML.Proofs.ScannerCorrectness.skipSpacesLoop_preserves_simpleKey&#45;&gt;L4YAML.Scanner.ScannerState.simpleKey -->
<g id="edge9" class="edge">
<title>L4YAML.Proofs.ScannerCorrectness.skipSpacesLoop_preserves_simpleKey&#45;&gt;L4YAML.Scanner.ScannerState.simpleKey</title>
<path fill="none" stroke="#999999" stroke-dasharray="1,5" d="M406.38,-206.4C547.69,-210.17 744.38,-216.5 917.01,-226 921.15,-226.23 925.42,-226.49 929.72,-226.76"/>
<polygon fill="#999999" stroke="#999999" points="929.68,-228.51 934.78,-227.1 929.91,-225.02 929.68,-228.51"/>
</g>
<!-- L4YAML.Proofs.ScannerCorrectness.skipSpacesLoop_preserves_simpleKey&#45;&gt;L4YAML.Scanner.ScannerState -->
<g id="edge7" class="edge">
<title>L4YAML.Proofs.ScannerCorrectness.skipSpacesLoop_preserves_simpleKey&#45;&gt;L4YAML.Scanner.ScannerState</title>
<path fill="none" stroke="#999999" stroke-dasharray="1,5" d="M350.92,-217.26C380.15,-220.33 410.87,-223.4 439.57,-226 635.95,-243.78 687.14,-228.85 882.01,-259 906.01,-262.71 932.43,-268.84 953.78,-274.32"/>
<polygon fill="#999999" stroke="#999999" points="953.54,-276.06 958.82,-275.62 954.42,-272.67 953.54,-276.06"/>
</g>
<!-- L4YAML.Proofs.ScannerCorrectness.skipSpacesLoop_preserves_simpleKey&#45;&gt;L4YAML.Scanner.skipSpacesLoop -->
<g id="edge6" class="edge">
<title>L4YAML.Proofs.ScannerCorrectness.skipSpacesLoop_preserves_simpleKey&#45;&gt;L4YAML.Scanner.skipSpacesLoop</title>
<path fill="none" stroke="#999999" stroke-dasharray="1,5" d="M287.77,-221.77C328.95,-232.36 381.37,-245.03 428.57,-254 491.18,-265.9 564.12,-275.25 611.08,-280.7"/>
<polygon fill="#999999" stroke="#999999" points="610.94,-282.45 616.11,-281.28 611.34,-278.97 610.94,-282.45"/>
</g>
<!-- L4YAML.Proofs.ScannerCorrectness.skipSpacesLoop_preserves_simpleKey&#45;&gt;L4YAML.Scanner.SimpleKeyState -->
<g id="edge8" class="edge">
<title>L4YAML.Proofs.ScannerCorrectness.skipSpacesLoop_preserves_simpleKey&#45;&gt;L4YAML.Scanner.SimpleKeyState</title>
<path fill="none" stroke="#999999" stroke-dasharray="1,5" d="M382.14,-190.99C397.83,-189.97 413.5,-188.96 428.57,-188 634.52,-174.83 685.73,-165.45 892.01,-159 903.11,-158.65 905.97,-157.69 917.01,-159 927.36,-160.23 938.32,-162.33 948.67,-164.7"/>
<polygon fill="#999999" stroke="#999999" points="948.43,-166.44 953.7,-165.88 949.23,-163.03 948.43,-166.44"/>
</g>
<!-- L4YAML.Proofs.ScannerCorrectness.skipSpacesLoop_preserves_simpleKey&#45;&gt;L4YAML.Proofs.ScannerCorrectness.skipSpaces_preserves_simpleKey -->
<g id="edge5" class="edge">
<title>L4YAML.Proofs.ScannerCorrectness.skipSpacesLoop_preserves_simpleKey&#45;&gt;L4YAML.Proofs.ScannerCorrectness.skipSpaces_preserves_simpleKey</title>
<path fill="none" stroke="#28a745" d="M251.95,-181.09C295.9,-157.37 371.27,-118.78 439.57,-94 475.9,-80.82 516.67,-69.53 553.17,-60.61"/>
<polygon fill="#28a745" stroke="#28a745" points="554.18,-62.88 560.41,-58.85 553.03,-58.12 554.18,-62.88"/>
</g>
</g>
</svg>
