<?xml version="1.0" encoding="UTF-8" standalone="no"?>
<!DOCTYPE svg PUBLIC "-//W3C//DTD SVG 1.1//EN"
 "http://www.w3.org/Graphics/SVG/1.1/DTD/svg11.dtd">
<!-- Generated by graphviz version 2.44.0 (0)
 -->
<!-- Title: ScannerCorrectness.ScanHelpers.collectTagHandleDirectiveLoop_preserves_tokens Pages: 1 -->
<svg width="1244pt" height="702pt"
 viewBox="0.00 0.00 1244.35 701.62" xmlns="http://www.w3.org/2000/svg" xmlns:xlink="http://www.w3.org/1999/xlink">
<g id="graph0" class="graph" transform="scale(1 1) rotate(0) translate(4 697.62)">
<title>ScannerCorrectness.ScanHelpers.collectTagHandleDirectiveLoop_preserves_tokens</title>
<polygon fill="white" stroke="transparent" points="-4,4 -4,-697.62 1240.35,-697.62 1240.35,4 -4,4"/>
<text text-anchor="middle" x="618.18" y="-679.22" font-family="Helvetica Bold" font-size="13.00">ScannerCorrectness.ScanHelpers.collectTagHandleDirectiveLoop_preserves_tokens</text>
<text text-anchor="middle" x="618.18" y="-665.22" font-family="Helvetica Bold" font-size="13.00">(heuristic: used by 6 proofs)</text>
<text text-anchor="middle" x="618.18" y="-651.22" font-family="Helvetica Bold" font-size="13.00">(L4YAML.Proofs.ScannerCorrectness)</text>
<g id="clust1" class="cluster">
<title>cluster_functions</title>
<polygon fill="none" stroke="#4a90d9" stroke-dasharray="5,2" points="595.19,-345.62 595.19,-635.62 1228.35,-635.62 1228.35,-345.62 595.19,-345.62"/>
<text text-anchor="middle" x="911.77" y="-621.22" font-family="Helvetica Bold" font-size="13.00" fill="#4a90d9">Functions</text>
</g>
<g id="clust2" class="cluster">
<title>cluster_key</title>
<polygon fill="none" stroke="#d4a017" stroke-dasharray="5,2" points="366.03,-187.62 366.03,-269.62 1016.35,-269.62 1016.35,-187.62 366.03,-187.62"/>
<text text-anchor="middle" x="691.19" y="-255.22" font-family="Helvetica Bold" font-size="13.00" fill="#d4a017">Key Theorem</text>
</g>
<g id="clust3" class="cluster">
<title>cluster_proofs</title>
<polygon fill="none" stroke="#28a745" stroke-dasharray="5,2" points="8,-216.62 8,-356.62 345.03,-356.62 345.03,-216.62 8,-216.62"/>
<text text-anchor="middle" x="176.51" y="-342.22" font-family="Helvetica Bold" font-size="13.00" fill="#28a745">Proof Dependencies</text>
</g>
<!-- L4YAML.Positioned -->
<g id="node1" class="node">
<title>L4YAML.Positioned</title>
<polygon fill="#dce9f7" stroke="#4a90d9" points="1175.85,-497.62 1113.85,-497.62 1113.85,-461.62 1175.85,-461.62 1175.85,-497.62"/>
<text text-anchor="middle" x="1144.85" y="-482.62" font-family="Helvetica" font-size="10.00">Positioned</text>
<text text-anchor="middle" x="1144.85" y="-471.62" font-family="Helvetica" font-size="10.00">(inductive)</text>
</g>
<!-- L4YAML.Scanner.ScannerState.advance -->
<g id="node2" class="node">
<title>L4YAML.Scanner.ScannerState.advance</title>
<polygon fill="#dce9f7" stroke="#4a90d9" points="748.69,-389.62 633.69,-389.62 633.69,-353.62 748.69,-353.62 748.69,-389.62"/>
<text text-anchor="middle" x="691.19" y="-374.62" font-family="Helvetica" font-size="10.00">ScannerState.advance</text>
<text text-anchor="middle" x="691.19" y="-363.62" font-family="Helvetica" font-size="10.00">(def)</text>
</g>
<!-- L4YAML.Scanner.ScannerState.peek? -->
<g id="node3" class="node">
<title>L4YAML.Scanner.ScannerState.peek?</title>
<polygon fill="#dce9f7" stroke="#4a90d9" points="743.19,-551.62 639.19,-551.62 639.19,-515.62 743.19,-515.62 743.19,-551.62"/>
<text text-anchor="middle" x="691.19" y="-536.62" font-family="Helvetica" font-size="10.00">ScannerState.peek?</text>
<text text-anchor="middle" x="691.19" y="-525.62" font-family="Helvetica" font-size="10.00">(def)</text>
</g>
<!-- L4YAML.Scanner.skipWhitespaceLoop.match_1 -->
<g id="node4" class="node">
<title>L4YAML.Scanner.skipWhitespaceLoop.match_1</title>
<polygon fill="#dce9f7" stroke="#4a90d9" points="765.19,-497.62 617.19,-497.62 617.19,-461.62 765.19,-461.62 765.19,-497.62"/>
<text text-anchor="middle" x="691.19" y="-482.62" font-family="Helvetica" font-size="10.00">skipWhitespaceLoop.match_1</text>
<text text-anchor="middle" x="691.19" y="-471.62" font-family="Helvetica" font-size="10.00">(def)</text>
</g>
<!-- L4YAML.Scanner.ScannerState -->
<g id="node5" class="node">
<title>L4YAML.Scanner.ScannerState</title>
<polygon fill="#dce9f7" stroke="#4a90d9" points="1182.85,-551.62 1106.85,-551.62 1106.85,-515.62 1182.85,-515.62 1182.85,-551.62"/>
<text text-anchor="middle" x="1144.85" y="-536.62" font-family="Helvetica" font-size="10.00">ScannerState</text>
<text text-anchor="middle" x="1144.85" y="-525.62" font-family="Helvetica" font-size="10.00">(inductive)</text>
</g>
<!-- L4YAML.YamlToken -->
<g id="node6" class="node">
<title>L4YAML.YamlToken</title>
<polygon fill="#dce9f7" stroke="#4a90d9" points="1176.85,-443.62 1112.85,-443.62 1112.85,-407.62 1176.85,-407.62 1176.85,-443.62"/>
<text text-anchor="middle" x="1144.85" y="-428.62" font-family="Helvetica" font-size="10.00">YamlToken</text>
<text text-anchor="middle" x="1144.85" y="-417.62" font-family="Helvetica" font-size="10.00">(inductive)</text>
</g>
<!-- L4YAML.Scanner.ScannerState.peekAt?Loop.match_1 -->
<g id="node7" class="node">
<title>L4YAML.Scanner.ScannerState.peekAt?Loop.match_1</title>
<polygon fill="#dce9f7" stroke="#4a90d9" points="779.19,-443.62 603.19,-443.62 603.19,-407.62 779.19,-407.62 779.19,-443.62"/>
<text text-anchor="middle" x="691.19" y="-428.62" font-family="Helvetica" font-size="10.00">ScannerState.peekAt?Loop.match_1</text>
<text text-anchor="middle" x="691.19" y="-417.62" font-family="Helvetica" font-size="10.00">(def)</text>
</g>
<!-- L4YAML.Scanner.collectTagHandleDirectiveLoop -->
<g id="node8" class="node">
<title>L4YAML.Scanner.collectTagHandleDirectiveLoop</title>
<polygon fill="#dce9f7" stroke="#4a90d9" points="1220.35,-605.62 1069.35,-605.62 1069.35,-569.62 1220.35,-569.62 1220.35,-605.62"/>
<text text-anchor="middle" x="1144.85" y="-590.62" font-family="Helvetica" font-size="10.00">collectTagHandleDirectiveLoop</text>
<text text-anchor="middle" x="1144.85" y="-579.62" font-family="Helvetica" font-size="10.00">(def)</text>
</g>
<!-- L4YAML.CharPredicates.isWordCharBool -->
<g id="node9" class="node">
<title>L4YAML.CharPredicates.isWordCharBool</title>
<polygon fill="#dce9f7" stroke="#4a90d9" points="770.19,-605.62 612.19,-605.62 612.19,-569.62 770.19,-569.62 770.19,-605.62"/>
<text text-anchor="middle" x="691.19" y="-590.62" font-family="Helvetica" font-size="10.00">CharPredicates.isWordCharBool</text>
<text text-anchor="middle" x="691.19" y="-579.62" font-family="Helvetica" font-size="10.00">(def)</text>
</g>
<!-- L4YAML.Scanner.ScannerState.tokens -->
<g id="node10" class="node">
<title>L4YAML.Scanner.ScannerState.tokens</title>
<polygon fill="#dce9f7" stroke="#4a90d9" points="1198.35,-389.62 1091.35,-389.62 1091.35,-353.62 1198.35,-353.62 1198.35,-389.62"/>
<text text-anchor="middle" x="1144.85" y="-374.62" font-family="Helvetica" font-size="10.00">ScannerState.tokens</text>
<text text-anchor="middle" x="1144.85" y="-363.62" font-family="Helvetica" font-size="10.00">(def)</text>
</g>
<!-- L4YAML.Proofs.ScannerCorrectness.ScanHelpers.collectTagHandleDirectiveLoop_preserves_tokens -->
<g id="node11" class="node">
<title>L4YAML.Proofs.ScannerCorrectness.ScanHelpers.collectTagHandleDirectiveLoop_preserves_tokens</title>
<polygon fill="#fff3cd" stroke="#d4a017" points="1004.52,-210.17 1004.52,-225.08 820.97,-235.62 561.41,-235.62 377.86,-225.08 377.86,-210.17 561.41,-199.62 820.97,-199.62 1004.52,-210.17"/>
<polygon fill="none" stroke="#d4a017" points="1008.52,-206.39 1008.52,-228.85 821.09,-239.62 561.29,-239.62 373.86,-228.85 373.86,-206.39 561.29,-195.62 821.09,-195.62 1008.52,-206.39"/>
<text text-anchor="middle" x="691.19" y="-214.52" font-family="Helvetica" font-size="12.00">ScannerCorrectness.ScanHelpers.collectTagHandleDirectiveLoop_preserves_tokens</text>
</g>
<!-- L4YAML.Proofs.ScannerCorrectness.ScanHelpers.collectTagHandleDirectiveLoop_preserves_tokens&#45;&gt;L4YAML.Positioned -->
<g id="edge2" class="edge">
<title>L4YAML.Proofs.ScannerCorrectness.ScanHelpers.collectTagHandleDirectiveLoop_preserves_tokens&#45;&gt;L4YAML.Positioned</title>
<path fill="none" stroke="#4a90d9" stroke-width="2" d="M754.72,-195.56C834.61,-171.81 972.03,-146.59 1051.35,-220.62 1089.16,-255.9 1038.05,-411.46 1069.35,-452.62 1078.29,-464.37 1092.82,-471.01 1106.69,-474.77"/>
<polygon fill="#4a90d9" stroke="#4a90d9" stroke-width="2" points="1106.47,-477.23 1113.85,-476.48 1107.61,-472.47 1106.47,-477.23"/>
<text text-anchor="middle" x="1038.85" y="-223.22" font-family="Times-Roman" font-size="8.00" fill="#4a90d9">about</text>
</g>
<!-- L4YAML.Proofs.ScannerCorrectness.ScanHelpers.collectTagHandleDirectiveLoop_preserves_tokens&#45;&gt;L4YAML.Scanner.ScannerState -->
<g id="edge4" class="edge">
<title>L4YAML.Proofs.ScannerCorrectness.ScanHelpers.collectTagHandleDirectiveLoop_preserves_tokens&#45;&gt;L4YAML.Scanner.ScannerState</title>
<path fill="none" stroke="#4a90d9" stroke-width="2" d="M795.48,-195.59C876.73,-184.88 986.66,-186.2 1051.35,-252.62 1090.84,-293.16 1035.25,-461.47 1069.35,-506.62 1076.77,-516.44 1088.1,-522.69 1099.7,-526.68"/>
<polygon fill="#4a90d9" stroke="#4a90d9" stroke-width="2" points="1099.13,-529.06 1106.54,-528.77 1100.56,-524.38 1099.13,-529.06"/>
<text text-anchor="middle" x="1038.85" y="-255.22" font-family="Times-Roman" font-size="8.00" fill="#4a90d9">about</text>
</g>
<!-- L4YAML.Proofs.ScannerCorrectness.ScanHelpers.collectTagHandleDirectiveLoop_preserves_tokens&#45;&gt;L4YAML.YamlToken -->
<g id="edge3" class="edge">
<title>L4YAML.Proofs.ScannerCorrectness.ScanHelpers.collectTagHandleDirectiveLoop_preserves_tokens&#45;&gt;L4YAML.YamlToken</title>
<path fill="none" stroke="#4a90d9" stroke-width="2" d="M736.71,-195.6C812.03,-161.87 964.83,-109.2 1051.35,-188.62 1085.86,-220.3 1040.85,-361.46 1069.35,-398.62 1078.12,-410.06 1092.19,-416.65 1105.75,-420.46"/>
<polygon fill="#4a90d9" stroke="#4a90d9" stroke-width="2" points="1105.38,-422.89 1112.76,-422.2 1106.56,-418.13 1105.38,-422.89"/>
<text text-anchor="middle" x="1038.85" y="-191.22" font-family="Times-Roman" font-size="8.00" fill="#4a90d9">about</text>
</g>
<!-- L4YAML.Proofs.ScannerCorrectness.ScanHelpers.collectTagHandleDirectiveLoop_preserves_tokens&#45;&gt;L4YAML.Scanner.collectTagHandleDirectiveLoop -->
<g id="edge5" class="edge">
<title>L4YAML.Proofs.ScannerCorrectness.ScanHelpers.collectTagHandleDirectiveLoop_preserves_tokens&#45;&gt;L4YAML.Scanner.collectTagHandleDirectiveLoop</title>
<path fill="none" stroke="#4a90d9" stroke-width="2" d="M926.36,-233.72C974.14,-247.95 1019.48,-271.46 1051.35,-309.62 1087.2,-352.54 1035.63,-516.01 1069.35,-560.62 1070.48,-562.11 1071.69,-563.52 1072.99,-564.85"/>
<polygon fill="#4a90d9" stroke="#4a90d9" stroke-width="2" points="1071.47,-566.77 1078.33,-569.6 1074.73,-563.11 1071.47,-566.77"/>
<text text-anchor="middle" x="1038.85" y="-312.22" font-family="Times-Roman" font-size="8.00" fill="#4a90d9">about</text>
</g>
<!-- L4YAML.Proofs.ScannerCorrectness.ScanHelpers.collectTagHandleDirectiveLoop_preserves_tokens&#45;&gt;L4YAML.Scanner.ScannerState.tokens -->
<g id="edge1" class="edge">
<title>L4YAML.Proofs.ScannerCorrectness.ScanHelpers.collectTagHandleDirectiveLoop_preserves_tokens&#45;&gt;L4YAML.Scanner.ScannerState.tokens</title>
<path fill="none" stroke="#4a90d9" stroke-width="2" d="M723.03,-195.32C789.07,-150.52 946.68,-59.79 1051.35,-131.62 1123.47,-181.11 1139.38,-295.36 1142.88,-346.31"/>
<polygon fill="#4a90d9" stroke="#4a90d9" stroke-width="2" points="1140.44,-346.51 1143.31,-353.35 1145.33,-346.21 1140.44,-346.51"/>
<text text-anchor="middle" x="1038.85" y="-134.22" font-family="Times-Roman" font-size="8.00" fill="#4a90d9">about</text>
</g>
<!-- L4YAML.Scanner.collectTagHandleDirectiveLoop.eq_def -->
<g id="node12" class="node">
<title>L4YAML.Scanner.collectTagHandleDirectiveLoop.eq_def</title>
<ellipse fill="#d4edda" stroke="#28a745" cx="176.51" cy="-305.62" rx="129.3" ry="21.43"/>
<text text-anchor="middle" x="176.51" y="-308.62" font-family="Helvetica" font-size="10.00">collectTagHandleDirectiveLoop.eq_def</text>
<text text-anchor="middle" x="176.51" y="-297.62" font-family="Helvetica" font-size="10.00">(StructureCoupling)</text>
</g>
<!-- L4YAML.Scanner.collectTagHandleDirectiveLoop.eq_def&#45;&gt;L4YAML.Scanner.ScannerState.advance -->
<g id="edge8" class="edge">
<title>L4YAML.Scanner.collectTagHandleDirectiveLoop.eq_def&#45;&gt;L4YAML.Scanner.ScannerState.advance</title>
<path fill="none" stroke="#999999" stroke-dasharray="1,5" d="M247.94,-323.4C280.36,-330.99 319.45,-339.31 355.03,-344.62 449.84,-358.79 560.93,-365.89 628.4,-369.16"/>
<polygon fill="#999999" stroke="#999999" points="628.51,-370.92 633.59,-369.41 628.68,-367.42 628.51,-370.92"/>
</g>
<!-- L4YAML.Scanner.collectTagHandleDirectiveLoop.eq_def&#45;&gt;L4YAML.Scanner.ScannerState.peek? -->
<g id="edge14" class="edge">
<title>L4YAML.Scanner.collectTagHandleDirectiveLoop.eq_def&#45;&gt;L4YAML.Scanner.ScannerState.peek?</title>
<path fill="none" stroke="#999999" stroke-dasharray="1,5" d="M189.81,-326.84C215.95,-369.67 281.6,-465.81 366.03,-506.62 452.25,-548.3 566.49,-546.61 633.79,-540.72"/>
<polygon fill="#999999" stroke="#999999" points="634.13,-542.44 638.95,-540.25 633.81,-538.96 634.13,-542.44"/>
</g>
<!-- L4YAML.Scanner.collectTagHandleDirectiveLoop.eq_def&#45;&gt;L4YAML.Scanner.skipWhitespaceLoop.match_1 -->
<g id="edge11" class="edge">
<title>L4YAML.Scanner.collectTagHandleDirectiveLoop.eq_def&#45;&gt;L4YAML.Scanner.skipWhitespaceLoop.match_1</title>
<path fill="none" stroke="#999999" stroke-dasharray="1,5" d="M196.47,-326.82C227.91,-360.35 294.52,-424.66 366.03,-452.62 445.61,-483.74 544.36,-487.5 611.82,-485.38"/>
<polygon fill="#999999" stroke="#999999" points="612.09,-487.12 617.03,-485.2 611.97,-483.62 612.09,-487.12"/>
</g>
<!-- L4YAML.Scanner.collectTagHandleDirectiveLoop.eq_def&#45;&gt;L4YAML.Scanner.ScannerState -->
<g id="edge10" class="edge">
<title>L4YAML.Scanner.collectTagHandleDirectiveLoop.eq_def&#45;&gt;L4YAML.Scanner.ScannerState</title>
<path fill="none" stroke="#999999" stroke-dasharray="1,5" d="M293.93,-296.57C456.59,-286.17 760.66,-274.88 1016.35,-311.62 1032.37,-313.92 1041,-309.19 1051.35,-321.62 1077.8,-353.35 1044.03,-473.99 1069.35,-506.62 1077.32,-516.89 1089.55,-523.25 1101.82,-527.2"/>
<polygon fill="#999999" stroke="#999999" points="1101.4,-528.9 1106.69,-528.65 1102.4,-525.55 1101.4,-528.9"/>
</g>
<!-- L4YAML.Scanner.collectTagHandleDirectiveLoop.eq_def&#45;&gt;L4YAML.Scanner.ScannerState.peekAt?Loop.match_1 -->
<g id="edge9" class="edge">
<title>L4YAML.Scanner.collectTagHandleDirectiveLoop.eq_def&#45;&gt;L4YAML.Scanner.ScannerState.peekAt?Loop.match_1</title>
<path fill="none" stroke="#999999" stroke-dasharray="1,5" d="M209.71,-326.22C246.09,-348.33 307.83,-382.47 366.03,-398.62 442.26,-419.78 532.14,-425.87 597.9,-427.04"/>
<polygon fill="#999999" stroke="#999999" points="597.96,-428.79 602.99,-427.12 598.02,-425.29 597.96,-428.79"/>
</g>
<!-- L4YAML.Scanner.collectTagHandleDirectiveLoop.eq_def&#45;&gt;L4YAML.Scanner.collectTagHandleDirectiveLoop -->
<g id="edge12" class="edge">
<title>L4YAML.Scanner.collectTagHandleDirectiveLoop.eq_def&#45;&gt;L4YAML.Scanner.collectTagHandleDirectiveLoop</title>
<path fill="none" stroke="#999999" stroke-dasharray="1,5" d="M302.78,-310.49C535.01,-319.66 1009.55,-339.03 1016.35,-344.62 1092.7,-407.41 1003.3,-487.09 1069.35,-560.62 1071.25,-562.73 1073.32,-564.68 1075.54,-566.47"/>
<polygon fill="#999999" stroke="#999999" points="1074.6,-567.96 1079.66,-569.54 1076.69,-565.15 1074.6,-567.96"/>
</g>
<!-- L4YAML.Scanner.collectTagHandleDirectiveLoop.eq_def&#45;&gt;L4YAML.CharPredicates.isWordCharBool -->
<g id="edge13" class="edge">
<title>L4YAML.Scanner.collectTagHandleDirectiveLoop.eq_def&#45;&gt;L4YAML.CharPredicates.isWordCharBool</title>
<path fill="none" stroke="#999999" stroke-dasharray="1,5" d="M185.86,-326.89C207.07,-377.74 268.41,-506.19 366.03,-560.62 439.7,-601.7 537.75,-604.04 606.65,-598.85"/>
<polygon fill="#999999" stroke="#999999" points="607.13,-600.57 611.98,-598.43 606.86,-597.08 607.13,-600.57"/>
</g>
<!-- L4YAML.Scanner.collectTagHandleDirectiveLoop.eq_def&#45;&gt;L4YAML.Proofs.ScannerCorrectness.ScanHelpers.collectTagHandleDirectiveLoop_preserves_tokens -->
<g id="edge7" class="edge">
<title>L4YAML.Scanner.collectTagHandleDirectiveLoop.eq_def&#45;&gt;L4YAML.Proofs.ScannerCorrectness.ScanHelpers.collectTagHandleDirectiveLoop_preserves_tokens</title>
<path fill="none" stroke="#28a745" d="M287.98,-294.84C307.6,-290.43 327.38,-284.26 345.03,-275.62 350.4,-272.99 349.61,-269.16 355.03,-266.62 384.47,-252.8 416.84,-242.66 449.49,-235.26"/>
<polygon fill="#28a745" stroke="#28a745" points="450.16,-237.62 456.47,-233.72 449.1,-232.84 450.16,-237.62"/>
</g>
<!-- L4YAML.Proofs.ScannerCorrectness.advance_preserves_tokens -->
<g id="node13" class="node">
<title>L4YAML.Proofs.ScannerCorrectness.advance_preserves_tokens</title>
<ellipse fill="#d4edda" stroke="#28a745" cx="176.51" cy="-245.62" rx="160.53" ry="21.43"/>
<text text-anchor="middle" x="176.51" y="-248.62" font-family="Helvetica" font-size="10.00">ScannerCorrectness.advance_preserves_tokens</text>
<text text-anchor="middle" x="176.51" y="-237.62" font-family="Helvetica" font-size="10.00">(ScannerCorrectness)</text>
</g>
<!-- L4YAML.Proofs.ScannerCorrectness.advance_preserves_tokens&#45;&gt;L4YAML.Positioned -->
<g id="edge17" class="edge">
<title>L4YAML.Proofs.ScannerCorrectness.advance_preserves_tokens&#45;&gt;L4YAML.Positioned</title>
<path fill="none" stroke="#999999" stroke-dasharray="1,5" d="M206.84,-224.77C240.68,-202.11 298.88,-167.31 355.03,-153.62 640.59,-84.02 727.73,-98.04 1016.35,-153.62 1032.81,-156.79 1041.53,-154.05 1051.35,-167.62 1088.57,-219.02 1031.3,-401.84 1069.35,-452.62 1078.69,-465.08 1094.34,-471.8 1108.89,-475.42"/>
<polygon fill="#999999" stroke="#999999" points="1108.51,-477.13 1113.77,-476.54 1109.29,-473.72 1108.51,-477.13"/>
</g>
<!-- L4YAML.Proofs.ScannerCorrectness.advance_preserves_tokens&#45;&gt;L4YAML.Scanner.ScannerState.advance -->
<g id="edge16" class="edge">
<title>L4YAML.Proofs.ScannerCorrectness.advance_preserves_tokens&#45;&gt;L4YAML.Scanner.ScannerState.advance</title>
<path fill="none" stroke="#999999" stroke-dasharray="1,5" d="M278.36,-262.1C300.41,-266.14 323.57,-270.73 345.03,-275.62 445.26,-298.48 559.94,-331.84 628.64,-352.61"/>
<polygon fill="#999999" stroke="#999999" points="628.21,-354.31 633.5,-354.09 629.23,-350.96 628.21,-354.31"/>
</g>
<!-- L4YAML.Proofs.ScannerCorrectness.advance_preserves_tokens&#45;&gt;L4YAML.Scanner.ScannerState -->
<g id="edge19" class="edge">
<title>L4YAML.Proofs.ScannerCorrectness.advance_preserves_tokens&#45;&gt;L4YAML.Scanner.ScannerState</title>
<path fill="none" stroke="#999999" stroke-dasharray="1,5" d="M224.89,-225.37C262.4,-210.5 316.53,-191.55 366.03,-183.62 508.72,-160.76 875.51,-151.23 1016.35,-183.62 1033.21,-187.5 1041.75,-186.24 1051.35,-200.62 1089.18,-257.27 1028.62,-452.02 1069.35,-506.62 1077.2,-517.14 1089.53,-523.56 1101.93,-527.49"/>
<polygon fill="#999999" stroke="#999999" points="1101.56,-529.21 1106.85,-528.92 1102.54,-525.85 1101.56,-529.21"/>
</g>
<!-- L4YAML.Proofs.ScannerCorrectness.advance_preserves_tokens&#45;&gt;L4YAML.YamlToken -->
<g id="edge18" class="edge">
<title>L4YAML.Proofs.ScannerCorrectness.advance_preserves_tokens&#45;&gt;L4YAML.YamlToken</title>
<path fill="none" stroke="#999999" stroke-dasharray="1,5" d="M197.12,-224.48C227.44,-193.51 289.13,-137.17 355.03,-115.62 502.1,-67.53 941.56,-8.58 1051.35,-117.62 1095.75,-161.71 1031.81,-348.56 1069.35,-398.62 1078.4,-410.68 1093.34,-417.36 1107.48,-421.06"/>
<polygon fill="#999999" stroke="#999999" points="1107.37,-422.83 1112.64,-422.29 1108.19,-419.43 1107.37,-422.83"/>
</g>
<!-- L4YAML.Proofs.ScannerCorrectness.advance_preserves_tokens&#45;&gt;L4YAML.Scanner.ScannerState.tokens -->
<g id="edge15" class="edge">
<title>L4YAML.Proofs.ScannerCorrectness.advance_preserves_tokens&#45;&gt;L4YAML.Scanner.ScannerState.tokens</title>
<path fill="none" stroke="#999999" stroke-dasharray="1,5" d="M189.47,-224.38C214.12,-183.08 275.03,-92.98 355.03,-58.62 497.2,2.45 927.4,34 1051.35,-58.62 1098.93,-94.17 1130.61,-281.34 1140.53,-348.01"/>
<polygon fill="#999999" stroke="#999999" points="1138.85,-348.65 1141.31,-353.34 1142.32,-348.14 1138.85,-348.65"/>
</g>
<!-- L4YAML.Proofs.ScannerCorrectness.advance_preserves_tokens&#45;&gt;L4YAML.Proofs.ScannerCorrectness.ScanHelpers.collectTagHandleDirectiveLoop_preserves_tokens -->
<g id="edge6" class="edge">
<title>L4YAML.Proofs.ScannerCorrectness.advance_preserves_tokens&#45;&gt;L4YAML.Proofs.ScannerCorrectness.ScanHelpers.collectTagHandleDirectiveLoop_preserves_tokens</title>
<path fill="none" stroke="#28a745" d="M325.11,-237.56C355.22,-235.92 387.77,-234.14 420.62,-232.34"/>
<polygon fill="#28a745" stroke="#28a745" points="420.78,-234.79 427.63,-231.96 420.51,-229.9 420.78,-234.79"/>
</g>
</g>
</svg>
