<?xml version="1.0" encoding="UTF-8" standalone="no"?>
<!DOCTYPE svg PUBLIC "-//W3C//DTD SVG 1.1//EN"
 "http://www.w3.org/Graphics/SVG/1.1/DTD/svg11.dtd">
<!-- Generated by graphviz version 2.44.0 (0)
 -->
<!-- Title: ScannerCorrectness.emitAt_preserves_ScanInv._proof_1 Pages: 1 -->
<svg width="953pt" height="1066pt"
 viewBox="0.00 0.00 952.89 1066.00" xmlns="http://www.w3.org/2000/svg" xmlns:xlink="http://www.w3.org/1999/xlink">
<g id="graph0" class="graph" transform="scale(1 1) rotate(0) translate(4 1062)">
<title>ScannerCorrectness.emitAt_preserves_ScanInv._proof_1</title>
<polygon fill="white" stroke="transparent" points="-4,4 -4,-1062 948.89,-1062 948.89,4 -4,4"/>
<text text-anchor="middle" x="472.44" y="-1043.6" font-family="Helvetica Bold" font-size="13.00">ScannerCorrectness.emitAt_preserves_ScanInv._proof_1</text>
<text text-anchor="middle" x="472.44" y="-1029.6" font-family="Helvetica Bold" font-size="13.00">(heuristic: used by 12 proofs)</text>
<text text-anchor="middle" x="472.44" y="-1015.6" font-family="Helvetica Bold" font-size="13.00">(L4YAML.Proofs.ScannerCorrectness)</text>
<g id="clust1" class="cluster">
<title>cluster_functions</title>
<polygon fill="none" stroke="#4a90d9" stroke-dasharray="5,2" points="813.89,-358 813.89,-648 936.89,-648 936.89,-358 813.89,-358"/>
<text text-anchor="middle" x="875.39" y="-633.6" font-family="Helvetica Bold" font-size="13.00" fill="#4a90d9">Functions</text>
</g>
<g id="clust2" class="cluster">
<title>cluster_key</title>
<polygon fill="none" stroke="#d4a017" stroke-dasharray="5,2" points="315.78,-462 315.78,-544 768.89,-544 768.89,-462 315.78,-462"/>
<text text-anchor="middle" x="542.34" y="-529.6" font-family="Helvetica Bold" font-size="13.00" fill="#d4a017">Key Theorem</text>
</g>
<g id="clust4" class="cluster">
<title>cluster_stdlib</title>
<polygon fill="none" stroke="#e67e22" stroke-dasharray="5,2" points="8,-8 8,-1000 294.78,-1000 294.78,-8 8,-8"/>
<text text-anchor="middle" x="151.39" y="-985.6" font-family="Helvetica Bold" font-size="13.00" fill="#e67e22">Stdlib Lemmas</text>
</g>
<!-- L4YAML.Positioned -->
<g id="node1" class="node">
<title>L4YAML.Positioned</title>
<g id="a_node1"><a xlink:href="../../../api/L4YAML/Token.html#L4YAML.Positioned" xlink:title="Positioned\n(inductive)" target="_blank">
<polygon fill="#dce9f7" stroke="#4a90d9" points="906.39,-618 844.39,-618 844.39,-582 906.39,-582 906.39,-618"/>
<text text-anchor="middle" x="875.39" y="-603" font-family="Helvetica" font-size="10.00">Positioned</text>
<text text-anchor="middle" x="875.39" y="-592" font-family="Helvetica" font-size="10.00">(inductive)</text>
</a>
</g>
</g>
<!-- L4YAML.Scanner.ScannerState -->
<g id="node2" class="node">
<title>L4YAML.Scanner.ScannerState</title>
<g id="a_node2"><a xlink:href="../../../api/L4YAML/Scanner.html#L4YAML.Scanner.ScannerState" xlink:title="ScannerState\n(inductive)" target="_blank">
<polygon fill="#dce9f7" stroke="#4a90d9" points="913.39,-564 837.39,-564 837.39,-528 913.39,-528 913.39,-564"/>
<text text-anchor="middle" x="875.39" y="-549" font-family="Helvetica" font-size="10.00">ScannerState</text>
<text text-anchor="middle" x="875.39" y="-538" font-family="Helvetica" font-size="10.00">(inductive)</text>
</a>
</g>
</g>
<!-- L4YAML.YamlToken -->
<g id="node3" class="node">
<title>L4YAML.YamlToken</title>
<g id="a_node3"><a xlink:href="../../../api/L4YAML/Token.html#L4YAML.YamlToken" xlink:title="YamlToken\n(inductive)" target="_blank">
<polygon fill="#dce9f7" stroke="#4a90d9" points="907.39,-510 843.39,-510 843.39,-474 907.39,-474 907.39,-510"/>
<text text-anchor="middle" x="875.39" y="-495" font-family="Helvetica" font-size="10.00">YamlToken</text>
<text text-anchor="middle" x="875.39" y="-484" font-family="Helvetica" font-size="10.00">(inductive)</text>
</a>
</g>
</g>
<!-- L4YAML.YamlPos -->
<g id="node4" class="node">
<title>L4YAML.YamlPos</title>
<g id="a_node4"><a xlink:href="../../../api/L4YAML/Types.html#L4YAML.YamlPos" xlink:title="YamlPos\n(inductive)" target="_blank">
<polygon fill="#dce9f7" stroke="#4a90d9" points="906.39,-456 844.39,-456 844.39,-420 906.39,-420 906.39,-456"/>
<text text-anchor="middle" x="875.39" y="-441" font-family="Helvetica" font-size="10.00">YamlPos</text>
<text text-anchor="middle" x="875.39" y="-430" font-family="Helvetica" font-size="10.00">(inductive)</text>
</a>
</g>
</g>
<!-- L4YAML.Scanner.ScannerState.tokens -->
<g id="node5" class="node">
<title>L4YAML.Scanner.ScannerState.tokens</title>
<g id="a_node5"><a xlink:href="../../../api/L4YAML/Scanner.html#L4YAML.Scanner.ScannerState.tokens" xlink:title="ScannerState.tokens\n(def)" target="_blank">
<polygon fill="#dce9f7" stroke="#4a90d9" points="928.89,-402 821.89,-402 821.89,-366 928.89,-366 928.89,-402"/>
<text text-anchor="middle" x="875.39" y="-387" font-family="Helvetica" font-size="10.00">ScannerState.tokens</text>
<text text-anchor="middle" x="875.39" y="-376" font-family="Helvetica" font-size="10.00">(def)</text>
</a>
</g>
</g>
<!-- L4YAML.Proofs.ScannerCorrectness.emitAt_preserves_ScanInv._proof_1 -->
<g id="node6" class="node">
<title>L4YAML.Proofs.ScannerCorrectness.emitAt_preserves_ScanInv._proof_1</title>
<g id="a_node6"><a xlink:href="../../../api/L4YAML/Proofs/ScannerCorrectness.html#L4YAML.Proofs.ScannerCorrectness.emitAt_preserves_ScanInv._proof_1" xlink:title="ScannerCorrectness.emitAt_preserves_ScanInv._proof_1" target="_blank">
<polygon fill="#fff3cd" stroke="#d4a017" points="756.94,-484.54 756.94,-499.46 631.23,-510 453.45,-510 327.74,-499.46 327.74,-484.54 453.45,-474 631.23,-474 756.94,-484.54"/>
<polygon fill="none" stroke="#d4a017" points="760.94,-480.87 760.94,-503.13 631.39,-514 453.28,-514 323.73,-503.13 323.73,-480.87 453.28,-470 631.39,-470 760.94,-480.87"/>
<text text-anchor="middle" x="542.34" y="-488.9" font-family="Helvetica" font-size="12.00">ScannerCorrectness.emitAt_preserves_ScanInv._proof_1</text>
</a>
</g>
</g>
<!-- L4YAML.Proofs.ScannerCorrectness.emitAt_preserves_ScanInv._proof_1&#45;&gt;L4YAML.Positioned -->
<g id="edge2" class="edge">
<title>L4YAML.Proofs.ScannerCorrectness.emitAt_preserves_ScanInv._proof_1&#45;&gt;L4YAML.Positioned</title>
<path fill="none" stroke="#4a90d9" stroke-width="2" d="M611.13,-514.12C679.52,-536.43 782.59,-570.05 837.26,-587.89"/>
<polygon fill="#4a90d9" stroke="#4a90d9" stroke-width="2" points="836.59,-590.25 844,-590.09 838.11,-585.59 836.59,-590.25"/>
<text text-anchor="middle" x="791.39" y="-578.6" font-family="Times-Roman" font-size="8.00" fill="#4a90d9">about</text>
</g>
<!-- L4YAML.Proofs.ScannerCorrectness.emitAt_preserves_ScanInv._proof_1&#45;&gt;L4YAML.Scanner.ScannerState -->
<g id="edge5" class="edge">
<title>L4YAML.Proofs.ScannerCorrectness.emitAt_preserves_ScanInv._proof_1&#45;&gt;L4YAML.Scanner.ScannerState</title>
<path fill="none" stroke="#4a90d9" stroke-width="2" d="M662.38,-511.42C720.68,-520.93 787.35,-531.8 830.11,-538.78"/>
<polygon fill="#4a90d9" stroke="#4a90d9" stroke-width="2" points="829.72,-541.2 837.02,-539.91 830.51,-536.36 829.72,-541.2"/>
<text text-anchor="middle" x="791.39" y="-536.6" font-family="Times-Roman" font-size="8.00" fill="#4a90d9">about</text>
</g>
<!-- L4YAML.Proofs.ScannerCorrectness.emitAt_preserves_ScanInv._proof_1&#45;&gt;L4YAML.YamlToken -->
<g id="edge4" class="edge">
<title>L4YAML.Proofs.ScannerCorrectness.emitAt_preserves_ScanInv._proof_1&#45;&gt;L4YAML.YamlToken</title>
<path fill="none" stroke="#4a90d9" stroke-width="2" d="M760.92,-492C789.7,-492 816.14,-492 836.24,-492"/>
<polygon fill="#4a90d9" stroke="#4a90d9" stroke-width="2" points="836.35,-494.45 843.35,-492 836.35,-489.55 836.35,-494.45"/>
<text text-anchor="middle" x="791.39" y="-494.6" font-family="Times-Roman" font-size="8.00" fill="#4a90d9">about</text>
</g>
<!-- L4YAML.Proofs.ScannerCorrectness.emitAt_preserves_ScanInv._proof_1&#45;&gt;L4YAML.YamlPos -->
<g id="edge3" class="edge">
<title>L4YAML.Proofs.ScannerCorrectness.emitAt_preserves_ScanInv._proof_1&#45;&gt;L4YAML.YamlPos</title>
<path fill="none" stroke="#4a90d9" stroke-width="2" d="M662.38,-472.58C724.07,-462.52 795.12,-450.93 837.31,-444.05"/>
<polygon fill="#4a90d9" stroke="#4a90d9" stroke-width="2" points="837.82,-446.45 844.33,-442.9 837.03,-441.61 837.82,-446.45"/>
<text text-anchor="middle" x="791.39" y="-454.6" font-family="Times-Roman" font-size="8.00" fill="#4a90d9">about</text>
</g>
<!-- L4YAML.Proofs.ScannerCorrectness.emitAt_preserves_ScanInv._proof_1&#45;&gt;L4YAML.Scanner.ScannerState.tokens -->
<g id="edge1" class="edge">
<title>L4YAML.Proofs.ScannerCorrectness.emitAt_preserves_ScanInv._proof_1&#45;&gt;L4YAML.Scanner.ScannerState.tokens</title>
<path fill="none" stroke="#4a90d9" stroke-width="2" d="M611.13,-469.88C671.02,-450.34 757.52,-422.13 814.81,-403.44"/>
<polygon fill="#4a90d9" stroke="#4a90d9" stroke-width="2" points="815.75,-405.71 821.65,-401.21 814.23,-401.05 815.75,-405.71"/>
<text text-anchor="middle" x="791.39" y="-414.6" font-family="Times-Roman" font-size="8.00" fill="#4a90d9">about</text>
</g>
<!-- Lean.Omega.Constraint.not_sat&#39;_of_isImpossible -->
<g id="node7" class="node">
<title>Lean.Omega.Constraint.not_sat&#39;_of_isImpossible</title>
<g id="a_node7"><a xlink:href="../../../api/Init/Omega/Constraint.html#Lean.Omega.Constraint.not_sat&#39;_of_isImpossible" xlink:title="Lean.Omega.Constraint.not_sat&#39;_of_isImpossible" target="_blank">
<ellipse fill="#fdebd0" stroke="#e67e22" cx="151.39" cy="-952" rx="135.29" ry="18"/>
<text text-anchor="middle" x="151.39" y="-949.5" font-family="Helvetica" font-size="10.00">Lean.Omega.Constraint.not_sat&#39;_of_isImpossible</text>
</a>
</g>
</g>
<!-- Lean.Omega.Constraint.not_sat&#39;_of_isImpossible&#45;&gt;L4YAML.Proofs.ScannerCorrectness.emitAt_preserves_ScanInv._proof_1 -->
<g id="edge6" class="edge">
<title>Lean.Omega.Constraint.not_sat&#39;_of_isImpossible&#45;&gt;L4YAML.Proofs.ScannerCorrectness.emitAt_preserves_ScanInv._proof_1</title>
<path fill="none" stroke="#e67e22" stroke-width="2" d="M261.82,-941.52C273.58,-937.47 284.85,-932.09 294.78,-925 441.18,-820.42 512.43,-599.99 534.02,-520.96"/>
<polygon fill="#e67e22" stroke="#e67e22" stroke-width="2" points="536.38,-521.59 535.84,-514.2 531.65,-520.32 536.38,-521.59"/>
</g>
<!-- of_decide_eq_true -->
<g id="node8" class="node">
<title>of_decide_eq_true</title>
<g id="a_node8"><a xlink:href="../../../api/Init/Prelude.html#of_decide_eq_true" xlink:title="of_decide_eq_true" target="_blank">
<ellipse fill="#fdebd0" stroke="#e67e22" cx="151.39" cy="-898" rx="56.52" ry="18"/>
<text text-anchor="middle" x="151.39" y="-895.5" font-family="Helvetica" font-size="10.00">of_decide_eq_true</text>
</a>
</g>
</g>
<!-- of_decide_eq_true&#45;&gt;L4YAML.Proofs.ScannerCorrectness.emitAt_preserves_ScanInv._proof_1 -->
<g id="edge7" class="edge">
<title>of_decide_eq_true&#45;&gt;L4YAML.Proofs.ScannerCorrectness.emitAt_preserves_ScanInv._proof_1</title>
<path fill="none" stroke="#e67e22" stroke-width="2" d="M207.98,-897.57C236.03,-894.97 269.39,-888.03 294.78,-871 428.05,-781.64 505.69,-593.35 531.57,-521.09"/>
<polygon fill="#e67e22" stroke="#e67e22" stroke-width="2" points="533.89,-521.88 533.91,-514.46 529.27,-520.25 533.89,-521.88"/>
</g>
<!-- le_of_le_of_eq -->
<g id="node9" class="node">
<title>le_of_le_of_eq</title>
<g id="a_node9"><a xlink:href="../../../api/Init/Core.html#le_of_le_of_eq" xlink:title="le_of_le_of_eq" target="_blank">
<ellipse fill="#fdebd0" stroke="#e67e22" cx="151.39" cy="-844" rx="47.19" ry="18"/>
<text text-anchor="middle" x="151.39" y="-841.5" font-family="Helvetica" font-size="10.00">le_of_le_of_eq</text>
</a>
</g>
</g>
<!-- le_of_le_of_eq&#45;&gt;L4YAML.Proofs.ScannerCorrectness.emitAt_preserves_ScanInv._proof_1 -->
<g id="edge8" class="edge">
<title>le_of_le_of_eq&#45;&gt;L4YAML.Proofs.ScannerCorrectness.emitAt_preserves_ScanInv._proof_1</title>
<path fill="none" stroke="#e67e22" stroke-width="2" d="M198.73,-843.57C228.17,-841.37 266.02,-834.82 294.78,-817 415.32,-742.33 498.12,-585.68 528.48,-520.94"/>
<polygon fill="#e67e22" stroke="#e67e22" stroke-width="2" points="530.87,-521.62 531.59,-514.24 526.42,-519.56 530.87,-521.62"/>
</g>
<!-- Lean.Omega.Constraint.combine_sat&#39; -->
<g id="node10" class="node">
<title>Lean.Omega.Constraint.combine_sat&#39;</title>
<g id="a_node10"><a xlink:href="../../../api/Init/Omega/Constraint.html#Lean.Omega.Constraint.combine_sat&#39;" xlink:title="Lean.Omega.Constraint.combine_sat&#39;" target="_blank">
<ellipse fill="#fdebd0" stroke="#e67e22" cx="151.39" cy="-790" rx="105.92" ry="18"/>
<text text-anchor="middle" x="151.39" y="-787.5" font-family="Helvetica" font-size="10.00">Lean.Omega.Constraint.combine_sat&#39;</text>
</a>
</g>
</g>
<!-- Lean.Omega.Constraint.combine_sat&#39;&#45;&gt;L4YAML.Proofs.ScannerCorrectness.emitAt_preserves_ScanInv._proof_1 -->
<g id="edge9" class="edge">
<title>Lean.Omega.Constraint.combine_sat&#39;&#45;&gt;L4YAML.Proofs.ScannerCorrectness.emitAt_preserves_ScanInv._proof_1</title>
<path fill="none" stroke="#e67e22" stroke-width="2" d="M245.07,-781.39C262.3,-777.34 279.63,-771.48 294.78,-763 403.03,-702.46 489.41,-576.92 524.44,-520.53"/>
<polygon fill="#e67e22" stroke="#e67e22" stroke-width="2" points="526.68,-521.57 528.26,-514.32 522.51,-519 526.68,-521.57"/>
</g>
<!-- Int.add_one_le_of_lt -->
<g id="node11" class="node">
<title>Int.add_one_le_of_lt</title>
<g id="a_node11"><a xlink:href="../../../api/Init/Data/Int/Order.html#Int.add_one_le_of_lt" xlink:title="Int.add_one_le_of_lt" target="_blank">
<ellipse fill="#fdebd0" stroke="#e67e22" cx="151.39" cy="-736" rx="61.44" ry="18"/>
<text text-anchor="middle" x="151.39" y="-733.5" font-family="Helvetica" font-size="10.00">Int.add_one_le_of_lt</text>
</a>
</g>
</g>
<!-- Int.add_one_le_of_lt&#45;&gt;L4YAML.Proofs.ScannerCorrectness.emitAt_preserves_ScanInv._proof_1 -->
<g id="edge10" class="edge">
<title>Int.add_one_le_of_lt&#45;&gt;L4YAML.Proofs.ScannerCorrectness.emitAt_preserves_ScanInv._proof_1</title>
<path fill="none" stroke="#e67e22" stroke-width="2" d="M211.09,-731.97C237.69,-728.38 268.9,-721.65 294.78,-709 391.28,-661.85 479.24,-566.62 518.99,-519.58"/>
<polygon fill="#e67e22" stroke="#e67e22" stroke-width="2" points="520.98,-521.02 523.6,-514.09 517.23,-517.87 520.98,-521.02"/>
</g>
<!-- Lean.Omega.Int.add_congr -->
<g id="node12" class="node">
<title>Lean.Omega.Int.add_congr</title>
<g id="a_node12"><a xlink:href="../../../api/Init/Omega/Int.html#Lean.Omega.Int.add_congr" xlink:title="Lean.Omega.Int.add_congr" target="_blank">
<ellipse fill="#fdebd0" stroke="#e67e22" cx="151.39" cy="-682" rx="78.76" ry="18"/>
<text text-anchor="middle" x="151.39" y="-679.5" font-family="Helvetica" font-size="10.00">Lean.Omega.Int.add_congr</text>
</a>
</g>
</g>
<!-- Lean.Omega.Int.add_congr&#45;&gt;L4YAML.Proofs.ScannerCorrectness.emitAt_preserves_ScanInv._proof_1 -->
<g id="edge11" class="edge">
<title>Lean.Omega.Int.add_congr&#45;&gt;L4YAML.Proofs.ScannerCorrectness.emitAt_preserves_ScanInv._proof_1</title>
<path fill="none" stroke="#e67e22" stroke-width="2" d="M222.78,-674.32C246.25,-670.28 272.17,-664.18 294.78,-655 379.36,-620.65 465.45,-555.33 510.1,-518.67"/>
<polygon fill="#e67e22" stroke="#e67e22" stroke-width="2" points="511.77,-520.47 515.6,-514.13 508.65,-516.7 511.77,-520.47"/>
</g>
<!-- Fin.isLt -->
<g id="node13" class="node">
<title>Fin.isLt</title>
<g id="a_node13"><a xlink:href="../../../api/Init/Prelude.html#Fin.isLt" xlink:title="Fin.isLt" target="_blank">
<ellipse fill="#fdebd0" stroke="#e67e22" cx="151.39" cy="-628" rx="28.69" ry="18"/>
<text text-anchor="middle" x="151.39" y="-625.5" font-family="Helvetica" font-size="10.00">Fin.isLt</text>
</a>
</g>
</g>
<!-- Fin.isLt&#45;&gt;L4YAML.Proofs.ScannerCorrectness.emitAt_preserves_ScanInv._proof_1 -->
<g id="edge12" class="edge">
<title>Fin.isLt&#45;&gt;L4YAML.Proofs.ScannerCorrectness.emitAt_preserves_ScanInv._proof_1</title>
<path fill="none" stroke="#e67e22" stroke-width="2" d="M179.88,-624.69C208.89,-620.76 255.75,-613.15 294.78,-601 365.99,-578.83 444.07,-542.03 492.89,-517.4"/>
<polygon fill="#e67e22" stroke="#e67e22" stroke-width="2" points="494.15,-519.51 499.28,-514.16 491.93,-515.14 494.15,-519.51"/>
</g>
<!-- Lean.Omega.LinearCombo.coordinate_eval_2 -->
<g id="node14" class="node">
<title>Lean.Omega.LinearCombo.coordinate_eval_2</title>
<g id="a_node14"><a xlink:href="../../../api/Init/Omega/LinearCombo.html#Lean.Omega.LinearCombo.coordinate_eval_2" xlink:title="Lean.Omega.LinearCombo.coordinate_eval_2" target="_blank">
<ellipse fill="#fdebd0" stroke="#e67e22" cx="151.39" cy="-574" rx="125.95" ry="18"/>
<text text-anchor="middle" x="151.39" y="-571.5" font-family="Helvetica" font-size="10.00">Lean.Omega.LinearCombo.coordinate_eval_2</text>
</a>
</g>
</g>
<!-- Lean.Omega.LinearCombo.coordinate_eval_2&#45;&gt;L4YAML.Proofs.ScannerCorrectness.emitAt_preserves_ScanInv._proof_1 -->
<g id="edge13" class="edge">
<title>Lean.Omega.LinearCombo.coordinate_eval_2&#45;&gt;L4YAML.Proofs.ScannerCorrectness.emitAt_preserves_ScanInv._proof_1</title>
<path fill="none" stroke="#e67e22" stroke-width="2" d="M229.71,-559.81C250.84,-555.8 273.72,-551.35 294.78,-547 342.89,-537.08 396.1,-525.31 440.74,-515.21"/>
<polygon fill="#e67e22" stroke="#e67e22" stroke-width="2" points="441.54,-517.54 447.83,-513.6 440.46,-512.76 441.54,-517.54"/>
</g>
<!-- Int.sub_nonneg_of_le -->
<g id="node15" class="node">
<title>Int.sub_nonneg_of_le</title>
<g id="a_node15"><a xlink:href="../../../api/Init/Data/Int/Order.html#Int.sub_nonneg_of_le" xlink:title="Int.sub_nonneg_of_le" target="_blank">
<ellipse fill="#fdebd0" stroke="#e67e22" cx="151.39" cy="-520" rx="64.33" ry="18"/>
<text text-anchor="middle" x="151.39" y="-517.5" font-family="Helvetica" font-size="10.00">Int.sub_nonneg_of_le</text>
</a>
</g>
</g>
<!-- Int.sub_nonneg_of_le&#45;&gt;L4YAML.Proofs.ScannerCorrectness.emitAt_preserves_ScanInv._proof_1 -->
<g id="edge14" class="edge">
<title>Int.sub_nonneg_of_le&#45;&gt;L4YAML.Proofs.ScannerCorrectness.emitAt_preserves_ScanInv._proof_1</title>
<path fill="none" stroke="#e67e22" stroke-width="2" d="M214.02,-515.56C250.06,-512.97 297.75,-509.54 345.54,-506.1"/>
<polygon fill="#e67e22" stroke="#e67e22" stroke-width="2" points="345.79,-508.53 352.6,-505.59 345.44,-503.65 345.79,-508.53"/>
</g>
<!-- Lean.Omega.Int.sub_congr -->
<g id="node16" class="node">
<title>Lean.Omega.Int.sub_congr</title>
<g id="a_node16"><a xlink:href="../../../api/Init/Omega/Int.html#Lean.Omega.Int.sub_congr" xlink:title="Lean.Omega.Int.sub_congr" target="_blank">
<ellipse fill="#fdebd0" stroke="#e67e22" cx="151.39" cy="-466" rx="78.76" ry="18"/>
<text text-anchor="middle" x="151.39" y="-463.5" font-family="Helvetica" font-size="10.00">Lean.Omega.Int.sub_congr</text>
</a>
</g>
</g>
<!-- Lean.Omega.Int.sub_congr&#45;&gt;L4YAML.Proofs.ScannerCorrectness.emitAt_preserves_ScanInv._proof_1 -->
<g id="edge15" class="edge">
<title>Lean.Omega.Int.sub_congr&#45;&gt;L4YAML.Proofs.ScannerCorrectness.emitAt_preserves_ScanInv._proof_1</title>
<path fill="none" stroke="#e67e22" stroke-width="2" d="M227.38,-471.01C259.6,-473.17 298.95,-475.8 338.75,-478.46"/>
<polygon fill="#e67e22" stroke="#e67e22" stroke-width="2" points="339.04,-480.93 346.19,-478.95 339.37,-476.04 339.04,-480.93"/>
</g>
<!-- Lean.Omega.tidy_sat -->
<g id="node17" class="node">
<title>Lean.Omega.tidy_sat</title>
<g id="a_node17"><a xlink:href="../../../api/Init/Omega/Constraint.html#Lean.Omega.tidy_sat" xlink:title="Lean.Omega.tidy_sat" target="_blank">
<ellipse fill="#fdebd0" stroke="#e67e22" cx="151.39" cy="-412" rx="64.51" ry="18"/>
<text text-anchor="middle" x="151.39" y="-409.5" font-family="Helvetica" font-size="10.00">Lean.Omega.tidy_sat</text>
</a>
</g>
</g>
<!-- Lean.Omega.tidy_sat&#45;&gt;L4YAML.Proofs.ScannerCorrectness.emitAt_preserves_ScanInv._proof_1 -->
<g id="edge16" class="edge">
<title>Lean.Omega.tidy_sat&#45;&gt;L4YAML.Proofs.ScannerCorrectness.emitAt_preserves_ScanInv._proof_1</title>
<path fill="none" stroke="#e67e22" stroke-width="2" d="M205.87,-421.82C232.61,-426.81 265.44,-433.06 294.78,-439 341.83,-448.52 393.8,-459.6 437.85,-469.17"/>
<polygon fill="#e67e22" stroke="#e67e22" stroke-width="2" points="437.49,-471.6 444.85,-470.69 438.53,-466.81 437.49,-471.6"/>
</g>
<!-- Lean.Omega.LinearCombo.add_eval -->
<g id="node18" class="node">
<title>Lean.Omega.LinearCombo.add_eval</title>
<g id="a_node18"><a xlink:href="../../../api/Init/Omega/LinearCombo.html#Lean.Omega.LinearCombo.add_eval" xlink:title="Lean.Omega.LinearCombo.add_eval" target="_blank">
<ellipse fill="#fdebd0" stroke="#e67e22" cx="151.39" cy="-358" rx="102.35" ry="18"/>
<text text-anchor="middle" x="151.39" y="-355.5" font-family="Helvetica" font-size="10.00">Lean.Omega.LinearCombo.add_eval</text>
</a>
</g>
</g>
<!-- Lean.Omega.LinearCombo.add_eval&#45;&gt;L4YAML.Proofs.ScannerCorrectness.emitAt_preserves_ScanInv._proof_1 -->
<g id="edge17" class="edge">
<title>Lean.Omega.LinearCombo.add_eval&#45;&gt;L4YAML.Proofs.ScannerCorrectness.emitAt_preserves_ScanInv._proof_1</title>
<path fill="none" stroke="#e67e22" stroke-width="2" d="M248.64,-363.8C265.17,-368.14 281.34,-374.83 294.78,-385 302.71,-390.99 297.38,-398.37 304.78,-405 339.46,-436.02 386.13,-456.27 428.85,-469.36"/>
<polygon fill="#e67e22" stroke="#e67e22" stroke-width="2" points="428.26,-471.74 435.67,-471.4 429.67,-467.05 428.26,-471.74"/>
</g>
<!-- Lean.Omega.LinearCombo.sub_eval -->
<g id="node19" class="node">
<title>Lean.Omega.LinearCombo.sub_eval</title>
<g id="a_node19"><a xlink:href="../../../api/Init/Omega/LinearCombo.html#Lean.Omega.LinearCombo.sub_eval" xlink:title="Lean.Omega.LinearCombo.sub_eval" target="_blank">
<ellipse fill="#fdebd0" stroke="#e67e22" cx="151.39" cy="-304" rx="102.35" ry="18"/>
<text text-anchor="middle" x="151.39" y="-301.5" font-family="Helvetica" font-size="10.00">Lean.Omega.LinearCombo.sub_eval</text>
</a>
</g>
</g>
<!-- Lean.Omega.LinearCombo.sub_eval&#45;&gt;L4YAML.Proofs.ScannerCorrectness.emitAt_preserves_ScanInv._proof_1 -->
<g id="edge18" class="edge">
<title>Lean.Omega.LinearCombo.sub_eval&#45;&gt;L4YAML.Proofs.ScannerCorrectness.emitAt_preserves_ScanInv._proof_1</title>
<path fill="none" stroke="#e67e22" stroke-width="2" d="M251.79,-307.7C267.72,-312.3 282.86,-319.62 294.78,-331 308.66,-344.25 292.88,-357.95 304.78,-373 341.63,-419.58 401.54,-449.46 451.84,-467.62"/>
<polygon fill="#e67e22" stroke="#e67e22" stroke-width="2" points="451.14,-469.97 458.56,-470 452.78,-465.35 451.14,-469.97"/>
</g>
<!-- Lean.Omega.Int.ofNat_lt_of_lt -->
<g id="node20" class="node">
<title>Lean.Omega.Int.ofNat_lt_of_lt</title>
<g id="a_node20"><a xlink:href="../../../api/Init/Omega/Int.html#Lean.Omega.Int.ofNat_lt_of_lt" xlink:title="Lean.Omega.Int.ofNat_lt_of_lt" target="_blank">
<ellipse fill="#fdebd0" stroke="#e67e22" cx="151.39" cy="-250" rx="86.57" ry="18"/>
<text text-anchor="middle" x="151.39" y="-247.5" font-family="Helvetica" font-size="10.00">Lean.Omega.Int.ofNat_lt_of_lt</text>
</a>
</g>
</g>
<!-- Lean.Omega.Int.ofNat_lt_of_lt&#45;&gt;L4YAML.Proofs.ScannerCorrectness.emitAt_preserves_ScanInv._proof_1 -->
<g id="edge19" class="edge">
<title>Lean.Omega.Int.ofNat_lt_of_lt&#45;&gt;L4YAML.Proofs.ScannerCorrectness.emitAt_preserves_ScanInv._proof_1</title>
<path fill="none" stroke="#e67e22" stroke-width="2" d="M238.01,-249.67C259.02,-253.68 279.77,-261.77 294.78,-277 312.85,-295.31 290.74,-312.45 304.78,-334 346.26,-397.61 423.24,-441.8 478.12,-466.96"/>
<polygon fill="#e67e22" stroke="#e67e22" stroke-width="2" points="477.31,-469.28 484.7,-469.93 479.33,-464.82 477.31,-469.28"/>
</g>
<!-- Lean.Omega.Int.ofNat_le_of_le -->
<g id="node21" class="node">
<title>Lean.Omega.Int.ofNat_le_of_le</title>
<g id="a_node21"><a xlink:href="../../../api/Init/Omega/Int.html#Lean.Omega.Int.ofNat_le_of_le" xlink:title="Lean.Omega.Int.ofNat_le_of_le" target="_blank">
<ellipse fill="#fdebd0" stroke="#e67e22" cx="151.39" cy="-196" rx="89.45" ry="18"/>
<text text-anchor="middle" x="151.39" y="-193.5" font-family="Helvetica" font-size="10.00">Lean.Omega.Int.ofNat_le_of_le</text>
</a>
</g>
</g>
<!-- Lean.Omega.Int.ofNat_le_of_le&#45;&gt;L4YAML.Proofs.ScannerCorrectness.emitAt_preserves_ScanInv._proof_1 -->
<g id="edge20" class="edge">
<title>Lean.Omega.Int.ofNat_le_of_le&#45;&gt;L4YAML.Proofs.ScannerCorrectness.emitAt_preserves_ScanInv._proof_1</title>
<path fill="none" stroke="#e67e22" stroke-width="2" d="M240.98,-196.26C260.96,-200.46 280.47,-208.49 294.78,-223 312.85,-241.31 292.3,-257.51 304.78,-280 351.18,-363.56 443.18,-431.15 497.77,-466.09"/>
<polygon fill="#e67e22" stroke="#e67e22" stroke-width="2" points="496.69,-468.31 503.91,-469.99 499.31,-464.17 496.69,-468.31"/>
</g>
<!-- Lean.Omega.LinearCombo.coordinate_eval_3 -->
<g id="node22" class="node">
<title>Lean.Omega.LinearCombo.coordinate_eval_3</title>
<g id="a_node22"><a xlink:href="../../../api/Init/Omega/LinearCombo.html#Lean.Omega.LinearCombo.coordinate_eval_3" xlink:title="Lean.Omega.LinearCombo.coordinate_eval_3" target="_blank">
<ellipse fill="#fdebd0" stroke="#e67e22" cx="151.39" cy="-142" rx="125.95" ry="18"/>
<text text-anchor="middle" x="151.39" y="-139.5" font-family="Helvetica" font-size="10.00">Lean.Omega.LinearCombo.coordinate_eval_3</text>
</a>
</g>
</g>
<!-- Lean.Omega.LinearCombo.coordinate_eval_3&#45;&gt;L4YAML.Proofs.ScannerCorrectness.emitAt_preserves_ScanInv._proof_1 -->
<g id="edge21" class="edge">
<title>Lean.Omega.LinearCombo.coordinate_eval_3&#45;&gt;L4YAML.Proofs.ScannerCorrectness.emitAt_preserves_ScanInv._proof_1</title>
<path fill="none" stroke="#e67e22" stroke-width="2" d="M262.4,-150.56C274.19,-154.93 285.32,-160.9 294.78,-169 304.83,-177.59 298.34,-185.46 304.78,-197 365.48,-305.66 466.02,-415.17 514.09,-464.68"/>
<polygon fill="#e67e22" stroke="#e67e22" stroke-width="2" points="512.49,-466.55 519.14,-469.85 516,-463.13 512.49,-466.55"/>
</g>
<!-- Lean.Omega.Constraint.addInequality_sat -->
<g id="node23" class="node">
<title>Lean.Omega.Constraint.addInequality_sat</title>
<g id="a_node23"><a xlink:href="../../../api/Init/Omega/Constraint.html#Lean.Omega.Constraint.addInequality_sat" xlink:title="Lean.Omega.Constraint.addInequality_sat" target="_blank">
<ellipse fill="#fdebd0" stroke="#e67e22" cx="151.39" cy="-88" rx="117.29" ry="18"/>
<text text-anchor="middle" x="151.39" y="-85.5" font-family="Helvetica" font-size="10.00">Lean.Omega.Constraint.addInequality_sat</text>
</a>
</g>
</g>
<!-- Lean.Omega.Constraint.addInequality_sat&#45;&gt;L4YAML.Proofs.ScannerCorrectness.emitAt_preserves_ScanInv._proof_1 -->
<g id="edge22" class="edge">
<title>Lean.Omega.Constraint.addInequality_sat&#45;&gt;L4YAML.Proofs.ScannerCorrectness.emitAt_preserves_ScanInv._proof_1</title>
<path fill="none" stroke="#e67e22" stroke-width="2" d="M254.03,-96.8C268.47,-100.96 282.55,-106.82 294.78,-115 427.39,-203.69 505.22,-390.42 531.36,-462.63"/>
<polygon fill="#e67e22" stroke="#e67e22" stroke-width="2" points="529.21,-463.89 533.87,-469.65 533.82,-462.24 529.21,-463.89"/>
</g>
<!-- Nat.le_of_not_lt -->
<g id="node24" class="node">
<title>Nat.le_of_not_lt</title>
<g id="a_node24"><a xlink:href="../../../api/Init/Data/Nat/Basic.html#Nat.le_of_not_lt" xlink:title="Nat.le_of_not_lt" target="_blank">
<ellipse fill="#fdebd0" stroke="#e67e22" cx="151.39" cy="-34" rx="50.07" ry="18"/>
<text text-anchor="middle" x="151.39" y="-31.5" font-family="Helvetica" font-size="10.00">Nat.le_of_not_lt</text>
</a>
</g>
</g>
<!-- Nat.le_of_not_lt&#45;&gt;L4YAML.Proofs.ScannerCorrectness.emitAt_preserves_ScanInv._proof_1 -->
<g id="edge23" class="edge">
<title>Nat.le_of_not_lt&#45;&gt;L4YAML.Proofs.ScannerCorrectness.emitAt_preserves_ScanInv._proof_1</title>
<path fill="none" stroke="#e67e22" stroke-width="2" d="M201.55,-33.32C231.01,-35.2 267.84,-41.79 294.78,-61 440.31,-164.73 511.83,-383.11 533.77,-462.42"/>
<polygon fill="#e67e22" stroke="#e67e22" stroke-width="2" points="531.53,-463.54 535.73,-469.65 536.26,-462.25 531.53,-463.54"/>
</g>
</g>
</svg>
