<?xml version="1.0" encoding="UTF-8" standalone="no"?>
<!DOCTYPE svg PUBLIC "-//W3C//DTD SVG 1.1//EN"
 "http://www.w3.org/Graphics/SVG/1.1/DTD/svg11.dtd">
<!-- Generated by graphviz version 2.44.0 (0)
 -->
<!-- Title: ScannerCorrectness.ScanHelpers.scanPlainScalar_preserves_prefix Pages: 1 -->
<svg width="1821pt" height="1290pt"
 viewBox="0.00 0.00 1821.29 1290.07" xmlns="http://www.w3.org/2000/svg" xmlns:xlink="http://www.w3.org/1999/xlink">
<g id="graph0" class="graph" transform="scale(1 1) rotate(0) translate(4 1286.07)">
<title>ScannerCorrectness.ScanHelpers.scanPlainScalar_preserves_prefix</title>
<polygon fill="white" stroke="transparent" points="-4,4 -4,-1286.07 1817.29,-1286.07 1817.29,4 -4,4"/>
<text text-anchor="middle" x="906.64" y="-1267.67" font-family="Helvetica Bold" font-size="13.00">ScannerCorrectness.ScanHelpers.scanPlainScalar_preserves_prefix</text>
<text text-anchor="middle" x="906.64" y="-1253.67" font-family="Helvetica Bold" font-size="13.00">(heuristic: used by 5 proofs)</text>
<text text-anchor="middle" x="906.64" y="-1239.67" font-family="Helvetica Bold" font-size="13.00">(L4YAML.Proofs.ScannerCorrectness)</text>
<g id="clust1" class="cluster">
<title>cluster_functions</title>
<polygon fill="none" stroke="#4a90d9" stroke-dasharray="5,2" points="742.6,-880.07 742.6,-1224.07 1805.29,-1224.07 1805.29,-880.07 742.6,-880.07"/>
<text text-anchor="middle" x="1273.95" y="-1209.67" font-family="Helvetica Bold" font-size="13.00" fill="#4a90d9">Functions</text>
</g>
<g id="clust2" class="cluster">
<title>cluster_key</title>
<polygon fill="none" stroke="#d4a017" stroke-dasharray="5,2" points="1100.23,-790.07 1100.23,-872.07 1637.29,-872.07 1637.29,-790.07 1100.23,-790.07"/>
<text text-anchor="middle" x="1368.76" y="-857.67" font-family="Helvetica Bold" font-size="13.00" fill="#d4a017">Key Theorem</text>
</g>
<g id="clust3" class="cluster">
<title>cluster_proofs</title>
<polygon fill="none" stroke="#28a745" stroke-dasharray="5,2" points="8,-472.07 8,-672.07 1079.23,-672.07 1079.23,-472.07 8,-472.07"/>
<text text-anchor="middle" x="543.62" y="-657.67" font-family="Helvetica Bold" font-size="13.00" fill="#28a745">Proof Dependencies</text>
</g>
<g id="clust4" class="cluster">
<title>cluster_stdlib</title>
<polygon fill="none" stroke="#e67e22" stroke-dasharray="5,2" points="724.49,-258.07 724.49,-332.07 894.72,-332.07 894.72,-258.07 724.49,-258.07"/>
<text text-anchor="middle" x="809.6" y="-317.67" font-family="Helvetica Bold" font-size="13.00" fill="#e67e22">Stdlib Lemmas</text>
</g>
<!-- L4YAML.Positioned -->
<g id="node1" class="node">
<title>L4YAML.Positioned</title>
<g id="a_node1"><a xlink:href="../../../api/L4YAML/Token.html#L4YAML.Positioned" xlink:title="Positioned\n(inductive)" target="_blank">
<polygon fill="#dce9f7" stroke="#4a90d9" points="1774.79,-1140.07 1712.79,-1140.07 1712.79,-1104.07 1774.79,-1104.07 1774.79,-1140.07"/>
<text text-anchor="middle" x="1743.79" y="-1125.07" font-family="Helvetica" font-size="10.00">Positioned</text>
<text text-anchor="middle" x="1743.79" y="-1114.07" font-family="Helvetica" font-size="10.00">(inductive)</text>
</a>
</g>
</g>
<!-- L4YAML.Scanner.scanPlainScalar -->
<g id="node2" class="node">
<title>L4YAML.Scanner.scanPlainScalar</title>
<g id="a_node2"><a xlink:href="../../../api/L4YAML/Scanner.html#L4YAML.Scanner.scanPlainScalar" xlink:title="scanPlainScalar\n(def)" target="_blank">
<polygon fill="#dce9f7" stroke="#4a90d9" points="1787.29,-1194.07 1700.29,-1194.07 1700.29,-1158.07 1787.29,-1158.07 1787.29,-1194.07"/>
<text text-anchor="middle" x="1743.79" y="-1179.07" font-family="Helvetica" font-size="10.00">scanPlainScalar</text>
<text text-anchor="middle" x="1743.79" y="-1168.07" font-family="Helvetica" font-size="10.00">(def)</text>
</a>
</g>
</g>
<!-- L4YAML.Scanner.ScannerState -->
<g id="node3" class="node">
<title>L4YAML.Scanner.ScannerState</title>
<g id="a_node3"><a xlink:href="../../../api/L4YAML/Scanner.html#L4YAML.Scanner.ScannerState" xlink:title="ScannerState\n(inductive)" target="_blank">
<polygon fill="#dce9f7" stroke="#4a90d9" points="1781.79,-978.07 1705.79,-978.07 1705.79,-942.07 1781.79,-942.07 1781.79,-978.07"/>
<text text-anchor="middle" x="1743.79" y="-963.07" font-family="Helvetica" font-size="10.00">ScannerState</text>
<text text-anchor="middle" x="1743.79" y="-952.07" font-family="Helvetica" font-size="10.00">(inductive)</text>
</a>
</g>
</g>
<!-- L4YAML.YamlToken -->
<g id="node4" class="node">
<title>L4YAML.YamlToken</title>
<g id="a_node4"><a xlink:href="../../../api/L4YAML/Token.html#L4YAML.YamlToken" xlink:title="YamlToken\n(inductive)" target="_blank">
<polygon fill="#dce9f7" stroke="#4a90d9" points="1775.79,-924.07 1711.79,-924.07 1711.79,-888.07 1775.79,-888.07 1775.79,-924.07"/>
<text text-anchor="middle" x="1743.79" y="-909.07" font-family="Helvetica" font-size="10.00">YamlToken</text>
<text text-anchor="middle" x="1743.79" y="-898.07" font-family="Helvetica" font-size="10.00">(inductive)</text>
</a>
</g>
</g>
<!-- L4YAML.Scanner.PlainScalarResult.state -->
<g id="node5" class="node">
<title>L4YAML.Scanner.PlainScalarResult.state</title>
<g id="a_node5"><a xlink:href="../../../api/L4YAML/Scanner.html#L4YAML.Scanner.PlainScalarResult.state" xlink:title="PlainScalarResult.state\n(def)" target="_blank">
<polygon fill="#dce9f7" stroke="#4a90d9" points="868.6,-978.07 750.6,-978.07 750.6,-942.07 868.6,-942.07 868.6,-978.07"/>
<text text-anchor="middle" x="809.6" y="-963.07" font-family="Helvetica" font-size="10.00">PlainScalarResult.state</text>
<text text-anchor="middle" x="809.6" y="-952.07" font-family="Helvetica" font-size="10.00">(def)</text>
</a>
</g>
</g>
<!-- L4YAML.YamlPos -->
<g id="node6" class="node">
<title>L4YAML.YamlPos</title>
<g id="a_node6"><a xlink:href="../../../api/L4YAML/Types.html#L4YAML.YamlPos" xlink:title="YamlPos\n(inductive)" target="_blank">
<polygon fill="#dce9f7" stroke="#4a90d9" points="1399.76,-924.07 1337.76,-924.07 1337.76,-888.07 1399.76,-888.07 1399.76,-924.07"/>
<text text-anchor="middle" x="1368.76" y="-909.07" font-family="Helvetica" font-size="10.00">YamlPos</text>
<text text-anchor="middle" x="1368.76" y="-898.07" font-family="Helvetica" font-size="10.00">(inductive)</text>
</a>
</g>
</g>
<!-- L4YAML.Scanner.collectPlainScalarLoop -->
<g id="node7" class="node">
<title>L4YAML.Scanner.collectPlainScalarLoop</title>
<g id="a_node7"><a xlink:href="../../../api/L4YAML/Scanner.html#L4YAML.Scanner.collectPlainScalarLoop" xlink:title="collectPlainScalarLoop\n(def)" target="_blank">
<polygon fill="#dce9f7" stroke="#4a90d9" points="867.6,-924.07 751.6,-924.07 751.6,-888.07 867.6,-888.07 867.6,-924.07"/>
<text text-anchor="middle" x="809.6" y="-909.07" font-family="Helvetica" font-size="10.00">collectPlainScalarLoop</text>
<text text-anchor="middle" x="809.6" y="-898.07" font-family="Helvetica" font-size="10.00">(def)</text>
</a>
</g>
</g>
<!-- L4YAML.Scanner.ScannerState.emitAt -->
<g id="node8" class="node">
<title>L4YAML.Scanner.ScannerState.emitAt</title>
<g id="a_node8"><a xlink:href="../../../api/L4YAML/Scanner.html#L4YAML.Scanner.ScannerState.emitAt" xlink:title="ScannerState.emitAt\n(def)" target="_blank">
<polygon fill="#dce9f7" stroke="#4a90d9" points="1422.26,-978.07 1315.26,-978.07 1315.26,-942.07 1422.26,-942.07 1422.26,-978.07"/>
<text text-anchor="middle" x="1368.76" y="-963.07" font-family="Helvetica" font-size="10.00">ScannerState.emitAt</text>
<text text-anchor="middle" x="1368.76" y="-952.07" font-family="Helvetica" font-size="10.00">(def)</text>
</a>
</g>
</g>
<!-- L4YAML.ScanError -->
<g id="node9" class="node">
<title>L4YAML.ScanError</title>
<g id="a_node9"><a xlink:href="../../../api/L4YAML/Token.html#L4YAML.ScanError" xlink:title="ScanError\n(inductive)" target="_blank">
<polygon fill="#dce9f7" stroke="#4a90d9" points="1774.79,-1032.07 1712.79,-1032.07 1712.79,-996.07 1774.79,-996.07 1774.79,-1032.07"/>
<text text-anchor="middle" x="1743.79" y="-1017.07" font-family="Helvetica" font-size="10.00">ScanError</text>
<text text-anchor="middle" x="1743.79" y="-1006.07" font-family="Helvetica" font-size="10.00">(inductive)</text>
</a>
</g>
</g>
<!-- L4YAML.Scanner.ScannerState.tokens -->
<g id="node10" class="node">
<title>L4YAML.Scanner.ScannerState.tokens</title>
<g id="a_node10"><a xlink:href="../../../api/L4YAML/Scanner.html#L4YAML.Scanner.ScannerState.tokens" xlink:title="ScannerState.tokens\n(def)" target="_blank">
<polygon fill="#dce9f7" stroke="#4a90d9" points="1797.29,-1086.07 1690.29,-1086.07 1690.29,-1050.07 1797.29,-1050.07 1797.29,-1086.07"/>
<text text-anchor="middle" x="1743.79" y="-1071.07" font-family="Helvetica" font-size="10.00">ScannerState.tokens</text>
<text text-anchor="middle" x="1743.79" y="-1060.07" font-family="Helvetica" font-size="10.00">(def)</text>
</a>
</g>
</g>
<!-- L4YAML.Scanner.PlainScalarResult -->
<g id="node11" class="node">
<title>L4YAML.Scanner.PlainScalarResult</title>
<g id="a_node11"><a xlink:href="../../../api/L4YAML/Scanner.html#L4YAML.Scanner.PlainScalarResult" xlink:title="PlainScalarResult\n(inductive)" target="_blank">
<polygon fill="#dce9f7" stroke="#4a90d9" points="856.6,-1032.07 762.6,-1032.07 762.6,-996.07 856.6,-996.07 856.6,-1032.07"/>
<text text-anchor="middle" x="809.6" y="-1017.07" font-family="Helvetica" font-size="10.00">PlainScalarResult</text>
<text text-anchor="middle" x="809.6" y="-1006.07" font-family="Helvetica" font-size="10.00">(inductive)</text>
</a>
</g>
</g>
<!-- L4YAML.Proofs.ScannerCorrectness.ScanHelpers.scanPlainScalar_preserves_prefix -->
<g id="node12" class="node">
<title>L4YAML.Proofs.ScannerCorrectness.ScanHelpers.scanPlainScalar_preserves_prefix</title>
<g id="a_node12"><a xlink:href="../../../api/L4YAML/Proofs/ScannerCorrectness.html#L4YAML.Proofs.ScannerCorrectness.ScanHelpers.scanPlainScalar_preserves_prefix" xlink:title="ScannerCorrectness.ScanHelpers.scanPlainScalar_preserves_prefix" target="_blank">
<polygon fill="#fff3cd" stroke="#d4a017" points="1625.32,-812.62 1625.32,-827.53 1475.03,-838.07 1262.49,-838.07 1112.21,-827.53 1112.21,-812.62 1262.49,-802.07 1475.03,-802.07 1625.32,-812.62"/>
<polygon fill="none" stroke="#d4a017" points="1629.32,-808.89 1629.32,-831.26 1475.17,-842.07 1262.35,-842.07 1108.21,-831.26 1108.21,-808.89 1262.35,-798.07 1475.17,-798.07 1629.32,-808.89"/>
<text text-anchor="middle" x="1368.76" y="-816.97" font-family="Helvetica" font-size="12.00">ScannerCorrectness.ScanHelpers.scanPlainScalar_preserves_prefix</text>
</a>
</g>
</g>
<!-- L4YAML.Proofs.ScannerCorrectness.ScanHelpers.scanPlainScalar_preserves_prefix&#45;&gt;L4YAML.Positioned -->
<g id="edge3" class="edge">
<title>L4YAML.Proofs.ScannerCorrectness.ScanHelpers.scanPlainScalar_preserves_prefix&#45;&gt;L4YAML.Positioned</title>
<path fill="none" stroke="#4a90d9" stroke-width="2" d="M1568.38,-835.62C1593.83,-844.71 1617.77,-857.7 1637.29,-876.07 1639.97,-878.6 1671.45,-1000.49 1672.29,-1004.07 1681.73,-1044.21 1665.49,-1062.14 1690.29,-1095.07 1694.54,-1100.72 1700.32,-1105.29 1706.49,-1108.94"/>
<polygon fill="#4a90d9" stroke="#4a90d9" stroke-width="2" points="1705.42,-1111.15 1712.74,-1112.3 1707.73,-1106.83 1705.42,-1111.15"/>
<text text-anchor="middle" x="1659.79" y="-1006.67" font-family="Times-Roman" font-size="8.00" fill="#4a90d9">about</text>
</g>
<!-- L4YAML.Proofs.ScannerCorrectness.ScanHelpers.scanPlainScalar_preserves_prefix&#45;&gt;L4YAML.Scanner.scanPlainScalar -->
<g id="edge2" class="edge">
<title>L4YAML.Proofs.ScannerCorrectness.ScanHelpers.scanPlainScalar_preserves_prefix&#45;&gt;L4YAML.Scanner.scanPlainScalar</title>
<path fill="none" stroke="#4a90d9" stroke-width="2" d="M1576.78,-835.1C1599.66,-844.48 1620.65,-857.69 1637.29,-876.07 1651.24,-891.48 1643.76,-948.59 1647.29,-969.07 1661.27,-1050.13 1639.53,-1084.36 1690.29,-1149.07 1691.59,-1150.74 1693.03,-1152.31 1694.57,-1153.79"/>
<polygon fill="#4a90d9" stroke="#4a90d9" stroke-width="2" points="1693.21,-1155.85 1700.14,-1158.49 1696.37,-1152.1 1693.21,-1155.85"/>
<text text-anchor="middle" x="1659.79" y="-1121.67" font-family="Times-Roman" font-size="8.00" fill="#4a90d9">about</text>
</g>
<!-- L4YAML.Proofs.ScannerCorrectness.ScanHelpers.scanPlainScalar_preserves_prefix&#45;&gt;L4YAML.Scanner.ScannerState -->
<g id="edge5" class="edge">
<title>L4YAML.Proofs.ScannerCorrectness.ScanHelpers.scanPlainScalar_preserves_prefix&#45;&gt;L4YAML.Scanner.ScannerState</title>
<path fill="none" stroke="#4a90d9" stroke-width="2" d="M1459.08,-798.07C1525.83,-787.32 1615.06,-785.87 1672.29,-836.07 1705.25,-864.99 1664.12,-897.89 1690.29,-933.07 1692.94,-936.64 1696.2,-939.77 1699.78,-942.51"/>
<polygon fill="#4a90d9" stroke="#4a90d9" stroke-width="2" points="1698.47,-944.58 1705.63,-946.5 1701.23,-940.53 1698.47,-944.58"/>
<text text-anchor="middle" x="1659.79" y="-838.67" font-family="Times-Roman" font-size="8.00" fill="#4a90d9">about</text>
</g>
<!-- L4YAML.Proofs.ScannerCorrectness.ScanHelpers.scanPlainScalar_preserves_prefix&#45;&gt;L4YAML.YamlToken -->
<g id="edge4" class="edge">
<title>L4YAML.Proofs.ScannerCorrectness.ScanHelpers.scanPlainScalar_preserves_prefix&#45;&gt;L4YAML.YamlToken</title>
<path fill="none" stroke="#4a90d9" stroke-width="2" d="M1435.86,-798.03C1500.08,-780.72 1598.46,-765.36 1672.29,-804.07 1703.13,-820.25 1723.15,-856.72 1733.7,-881.37"/>
<polygon fill="#4a90d9" stroke="#4a90d9" stroke-width="2" points="1731.5,-882.45 1736.43,-887.98 1736.03,-880.58 1731.5,-882.45"/>
<text text-anchor="middle" x="1659.79" y="-806.67" font-family="Times-Roman" font-size="8.00" fill="#4a90d9">about</text>
</g>
<!-- L4YAML.Proofs.ScannerCorrectness.ScanHelpers.scanPlainScalar_preserves_prefix&#45;&gt;L4YAML.ScanError -->
<g id="edge6" class="edge">
<title>L4YAML.Proofs.ScannerCorrectness.ScanHelpers.scanPlainScalar_preserves_prefix&#45;&gt;L4YAML.ScanError</title>
<path fill="none" stroke="#4a90d9" stroke-width="2" d="M1618.99,-832.03C1638.73,-840.85 1656.93,-852.6 1672.29,-868.07 1709.98,-906.03 1659.08,-943.63 1690.29,-987.07 1694.42,-992.82 1700.13,-997.43 1706.28,-1001.1"/>
<polygon fill="#4a90d9" stroke="#4a90d9" stroke-width="2" points="1705.21,-1003.3 1712.53,-1004.46 1707.53,-998.98 1705.21,-1003.3"/>
<text text-anchor="middle" x="1659.79" y="-870.67" font-family="Times-Roman" font-size="8.00" fill="#4a90d9">about</text>
</g>
<!-- L4YAML.Proofs.ScannerCorrectness.ScanHelpers.scanPlainScalar_preserves_prefix&#45;&gt;L4YAML.Scanner.ScannerState.tokens -->
<g id="edge1" class="edge">
<title>L4YAML.Proofs.ScannerCorrectness.ScanHelpers.scanPlainScalar_preserves_prefix&#45;&gt;L4YAML.Scanner.ScannerState.tokens</title>
<path fill="none" stroke="#4a90d9" stroke-width="2" d="M1513.88,-839.44C1554.78,-847.79 1598.67,-859.58 1637.29,-876.07 1654.63,-883.48 1662.46,-883.98 1672.29,-900.07 1705.22,-953.99 1654.03,-989.34 1690.29,-1041.07 1691.25,-1042.44 1692.29,-1043.74 1693.41,-1044.98"/>
<polygon fill="#4a90d9" stroke="#4a90d9" stroke-width="2" points="1691.99,-1047 1698.76,-1050.02 1695.35,-1043.43 1691.99,-1047"/>
<text text-anchor="middle" x="1659.79" y="-902.67" font-family="Times-Roman" font-size="8.00" fill="#4a90d9">about</text>
</g>
<!-- L4YAML.Proofs.ScannerCorrectness.ScanHelpers.collectPlainScalarLoop_preserves_tokens -->
<g id="node13" class="node">
<title>L4YAML.Proofs.ScannerCorrectness.ScanHelpers.collectPlainScalarLoop_preserves_tokens</title>
<g id="a_node13"><a xlink:href="../../../api/L4YAML/Proofs/ScannerCorrectness.html#L4YAML.Proofs.ScannerCorrectness.ScanHelpers.collectPlainScalarLoop_preserves_tokens" xlink:title="ScannerCorrectness.ScanHelpers.collectPlainScalarLoop_preserves_tokens\n(ScannerCorrectness)" target="_blank">
<ellipse fill="#d4edda" stroke="#28a745" cx="263.49" cy="-501.07" rx="247.47" ry="21.43"/>
<text text-anchor="middle" x="263.49" y="-504.07" font-family="Helvetica" font-size="10.00">ScannerCorrectness.ScanHelpers.collectPlainScalarLoop_preserves_tokens</text>
<text text-anchor="middle" x="263.49" y="-493.07" font-family="Helvetica" font-size="10.00">(ScannerCorrectness)</text>
</a>
</g>
</g>
<!-- L4YAML.Proofs.ScannerCorrectness.ScanHelpers.collectPlainScalarLoop_preserves_tokens&#45;&gt;L4YAML.Positioned -->
<g id="edge14" class="edge">
<title>L4YAML.Proofs.ScannerCorrectness.ScanHelpers.collectPlainScalarLoop_preserves_tokens&#45;&gt;L4YAML.Positioned</title>
<path fill="none" stroke="#999999" stroke-dasharray="1,5" d="M279.95,-479.67C318.34,-428.63 423.88,-300.55 547.97,-254.07 778.34,-167.79 1465.13,-275.36 1637.29,-451.07 1672.01,-486.51 1663.59,-508.23 1672.29,-557.07 1682.77,-615.96 1658.29,-1044.55 1690.29,-1095.07 1694.48,-1101.69 1700.84,-1106.76 1707.71,-1110.62"/>
<polygon fill="#999999" stroke="#999999" points="1707.27,-1112.36 1712.52,-1113.1 1708.88,-1109.25 1707.27,-1112.36"/>
</g>
<!-- L4YAML.Proofs.ScannerCorrectness.ScanHelpers.collectPlainScalarLoop_preserves_tokens&#45;&gt;L4YAML.Scanner.ScannerState -->
<g id="edge17" class="edge">
<title>L4YAML.Proofs.ScannerCorrectness.ScanHelpers.collectPlainScalarLoop_preserves_tokens&#45;&gt;L4YAML.Scanner.ScannerState</title>
<path fill="none" stroke="#999999" stroke-dasharray="1,5" d="M272.37,-479.81C297.68,-415.13 383.78,-220.71 528.97,-148.07 642.58,-91.24 1581.44,-59.28 1672.29,-148.07 1703.49,-178.56 1667.14,-896.1 1690.29,-933.07 1693.16,-937.66 1697.09,-941.51 1701.5,-944.72"/>
<polygon fill="#999999" stroke="#999999" points="1700.55,-946.19 1705.68,-947.5 1702.49,-943.27 1700.55,-946.19"/>
</g>
<!-- L4YAML.Proofs.ScannerCorrectness.ScanHelpers.collectPlainScalarLoop_preserves_tokens&#45;&gt;L4YAML.YamlToken -->
<g id="edge16" class="edge">
<title>L4YAML.Proofs.ScannerCorrectness.ScanHelpers.collectPlainScalarLoop_preserves_tokens&#45;&gt;L4YAML.YamlToken</title>
<path fill="none" stroke="#999999" stroke-dasharray="1,5" d="M271,-479.59C293.32,-410.28 374.07,-192.31 528.97,-110.07 753.38,9.06 1484.88,61.47 1672.29,-110.07 1730.78,-163.61 1741.03,-756.27 1742.55,-882.51"/>
<polygon fill="#999999" stroke="#999999" points="1740.8,-882.85 1742.61,-887.83 1744.3,-882.81 1740.8,-882.85"/>
</g>
<!-- L4YAML.Proofs.ScannerCorrectness.ScanHelpers.collectPlainScalarLoop_preserves_tokens&#45;&gt;L4YAML.Scanner.PlainScalarResult.state -->
<g id="edge15" class="edge">
<title>L4YAML.Proofs.ScannerCorrectness.ScanHelpers.collectPlainScalarLoop_preserves_tokens&#45;&gt;L4YAML.Scanner.PlainScalarResult.state</title>
<path fill="none" stroke="#999999" stroke-dasharray="1,5" d="M271.05,-522.29C294.63,-594.6 382.64,-832.47 547.97,-933.07 607.67,-969.4 689.57,-971.85 745.53,-968"/>
<polygon fill="#999999" stroke="#999999" points="745.66,-969.75 750.52,-967.64 745.41,-966.26 745.66,-969.75"/>
</g>
<!-- L4YAML.Proofs.ScannerCorrectness.ScanHelpers.collectPlainScalarLoop_preserves_tokens&#45;&gt;L4YAML.Scanner.collectPlainScalarLoop -->
<g id="edge13" class="edge">
<title>L4YAML.Proofs.ScannerCorrectness.ScanHelpers.collectPlainScalarLoop_preserves_tokens&#45;&gt;L4YAML.Scanner.collectPlainScalarLoop</title>
<path fill="none" stroke="#999999" stroke-dasharray="1,5" d="M292.98,-522.28C386.92,-592.2 686.25,-815 780.15,-884.89"/>
<polygon fill="#999999" stroke="#999999" points="779.14,-886.32 784.2,-887.91 781.23,-883.52 779.14,-886.32"/>
</g>
<!-- L4YAML.Proofs.ScannerCorrectness.ScanHelpers.collectPlainScalarLoop_preserves_tokens&#45;&gt;L4YAML.ScanError -->
<g id="edge18" class="edge">
<title>L4YAML.Proofs.ScannerCorrectness.ScanHelpers.collectPlainScalarLoop_preserves_tokens&#45;&gt;L4YAML.ScanError</title>
<path fill="none" stroke="#999999" stroke-dasharray="1,5" d="M274.28,-479.5C303.02,-419.18 393.7,-249.13 528.97,-186.07 644.12,-132.41 1581.46,-97.26 1672.29,-186.07 1704.12,-217.19 1666.68,-949.34 1690.29,-987.07 1694.57,-993.91 1701.17,-999.09 1708.27,-1003"/>
<polygon fill="#999999" stroke="#999999" points="1707.49,-1004.56 1712.74,-1005.26 1709.07,-1001.44 1707.49,-1004.56"/>
</g>
<!-- L4YAML.Proofs.ScannerCorrectness.ScanHelpers.collectPlainScalarLoop_preserves_tokens&#45;&gt;L4YAML.Scanner.ScannerState.tokens -->
<g id="edge12" class="edge">
<title>L4YAML.Proofs.ScannerCorrectness.ScanHelpers.collectPlainScalarLoop_preserves_tokens&#45;&gt;L4YAML.Scanner.ScannerState.tokens</title>
<path fill="none" stroke="#999999" stroke-dasharray="1,5" d="M276.4,-479.67C308.52,-424.48 403.04,-277.95 528.97,-224.07 642.19,-175.64 1541.2,-147.05 1637.29,-224.07 1693.07,-268.79 1663.5,-310.13 1672.29,-381.07 1676.8,-417.48 1670.76,-1010.03 1690.29,-1041.07 1691.46,-1042.93 1692.79,-1044.66 1694.27,-1046.28"/>
<polygon fill="#999999" stroke="#999999" points="1693.13,-1047.61 1697.93,-1049.85 1695.57,-1045.11 1693.13,-1047.61"/>
</g>
<!-- L4YAML.Proofs.ScannerCorrectness.ScanHelpers.collectPlainScalarLoop_preserves_tokens&#45;&gt;L4YAML.Scanner.PlainScalarResult -->
<g id="edge19" class="edge">
<title>L4YAML.Proofs.ScannerCorrectness.ScanHelpers.collectPlainScalarLoop_preserves_tokens&#45;&gt;L4YAML.Scanner.PlainScalarResult</title>
<path fill="none" stroke="#999999" stroke-dasharray="1,5" d="M269.54,-522.39C289.28,-600.37 369.04,-871.63 547.97,-987.07 611.05,-1027.77 701.11,-1027.22 757.15,-1021.69"/>
<polygon fill="#999999" stroke="#999999" points="757.33,-1023.43 762.13,-1021.17 756.97,-1019.95 757.33,-1023.43"/>
</g>
<!-- L4YAML.Proofs.ScannerCorrectness.ScanHelpers.collectPlainScalarLoop_preserves_tokens&#45;&gt;L4YAML.Proofs.ScannerCorrectness.ScanHelpers.scanPlainScalar_preserves_prefix -->
<g id="edge10" class="edge">
<title>L4YAML.Proofs.ScannerCorrectness.ScanHelpers.collectPlainScalarLoop_preserves_tokens&#45;&gt;L4YAML.Proofs.ScannerCorrectness.ScanHelpers.scanPlainScalar_preserves_prefix</title>
<path fill="none" stroke="#28a745" d="M326.3,-480.49C467.69,-437.17 822.31,-350.12 1079.23,-471.07 1224.62,-539.52 1321.79,-721.16 1355.04,-791.6"/>
<polygon fill="#28a745" stroke="#28a745" points="1352.88,-792.76 1358.06,-798.06 1357.32,-790.68 1352.88,-792.76"/>
</g>
<!-- L4YAML.Proofs.ScannerCorrectness.ScanHelpers.scanPlainScalar_adds_one_token -->
<g id="node14" class="node">
<title>L4YAML.Proofs.ScannerCorrectness.ScanHelpers.scanPlainScalar_adds_one_token</title>
<g id="a_node14"><a xlink:href="../../../api/L4YAML/Proofs/ScannerCorrectness.html#L4YAML.Proofs.ScannerCorrectness.ScanHelpers.scanPlainScalar_adds_one_token" xlink:title="ScannerCorrectness.ScanHelpers.scanPlainScalar_adds_one_token\n(ScannerCorrectness)" target="_blank">
<ellipse fill="#d4edda" stroke="#28a745" cx="809.6" cy="-561.07" rx="222.98" ry="21.43"/>
<text text-anchor="middle" x="809.6" y="-564.07" font-family="Helvetica" font-size="10.00">ScannerCorrectness.ScanHelpers.scanPlainScalar_adds_one_token</text>
<text text-anchor="middle" x="809.6" y="-553.07" font-family="Helvetica" font-size="10.00">(ScannerCorrectness)</text>
</a>
</g>
</g>
<!-- L4YAML.Proofs.ScannerCorrectness.ScanHelpers.collectPlainScalarLoop_preserves_tokens&#45;&gt;L4YAML.Proofs.ScannerCorrectness.ScanHelpers.scanPlainScalar_adds_one_token -->
<g id="edge36" class="edge">
<title>L4YAML.Proofs.ScannerCorrectness.ScanHelpers.collectPlainScalarLoop_preserves_tokens&#45;&gt;L4YAML.Proofs.ScannerCorrectness.ScanHelpers.scanPlainScalar_adds_one_token</title>
<path fill="none" stroke="#cccccc" stroke-dasharray="5,2" d="M416.05,-517.79C491.9,-526.15 583.39,-536.24 658.96,-544.57"/>
<polygon fill="#cccccc" stroke="#cccccc" points="658.88,-545.97 663.01,-545.02 659.18,-543.19 658.88,-545.97"/>
</g>
<!-- L4YAML.Proofs.ScannerCorrectness.ScanHelpers.scanPlainScalar_adds_one_token&#45;&gt;L4YAML.Positioned -->
<g id="edge22" class="edge">
<title>L4YAML.Proofs.ScannerCorrectness.ScanHelpers.scanPlainScalar_adds_one_token&#45;&gt;L4YAML.Positioned</title>
<path fill="none" stroke="#999999" stroke-dasharray="1,5" d="M1031.31,-558.94C1260.53,-558.85 1592.08,-565.56 1637.29,-604.07 1693.69,-652.13 1662.45,-693.63 1672.29,-767.07 1677.14,-803.25 1670.43,-1064.45 1690.29,-1095.07 1694.55,-1101.64 1700.94,-1106.69 1707.81,-1110.55"/>
<polygon fill="#999999" stroke="#999999" points="1707.38,-1112.3 1712.62,-1113.03 1708.98,-1109.19 1707.38,-1112.3"/>
</g>
<!-- L4YAML.Proofs.ScannerCorrectness.ScanHelpers.scanPlainScalar_adds_one_token&#45;&gt;L4YAML.Scanner.scanPlainScalar -->
<g id="edge21" class="edge">
<title>L4YAML.Proofs.ScannerCorrectness.ScanHelpers.scanPlainScalar_adds_one_token&#45;&gt;L4YAML.Scanner.scanPlainScalar</title>
<path fill="none" stroke="#999999" stroke-dasharray="1,5" d="M982.82,-574.49C1015.07,-578.64 1048.35,-584.05 1079.23,-591.07 1335.42,-649.36 1478.39,-576.84 1637.29,-786.07 1658.17,-813.56 1633.96,-909.24 1647.29,-941.07 1653.73,-956.46 1665.57,-953.8 1672.29,-969.07 1704.65,-1042.67 1645.04,-1082.61 1690.29,-1149.07 1691.95,-1151.51 1693.9,-1153.74 1696.05,-1155.78"/>
<polygon fill="#999999" stroke="#999999" points="1695.18,-1157.34 1700.12,-1159.24 1697.45,-1154.67 1695.18,-1157.34"/>
</g>
<!-- L4YAML.Proofs.ScannerCorrectness.ScanHelpers.scanPlainScalar_adds_one_token&#45;&gt;L4YAML.Scanner.ScannerState -->
<g id="edge24" class="edge">
<title>L4YAML.Proofs.ScannerCorrectness.ScanHelpers.scanPlainScalar_adds_one_token&#45;&gt;L4YAML.Scanner.ScannerState</title>
<path fill="none" stroke="#999999" stroke-dasharray="1,5" d="M1031.83,-559.39C1049.09,-552.61 1065.23,-543.39 1079.23,-531.07 1093.32,-518.69 1074.48,-501.66 1089.23,-490.07 1191.13,-410.04 1578.83,-400.33 1672.29,-490.07 1707.82,-524.19 1663.78,-891.55 1690.29,-933.07 1693.2,-937.64 1697.15,-941.47 1701.58,-944.67"/>
<polygon fill="#999999" stroke="#999999" points="1700.63,-946.14 1705.77,-947.44 1702.56,-943.22 1700.63,-946.14"/>
</g>
<!-- L4YAML.Proofs.ScannerCorrectness.ScanHelpers.scanPlainScalar_adds_one_token&#45;&gt;L4YAML.YamlToken -->
<g id="edge23" class="edge">
<title>L4YAML.Proofs.ScannerCorrectness.ScanHelpers.scanPlainScalar_adds_one_token&#45;&gt;L4YAML.YamlToken</title>
<path fill="none" stroke="#999999" stroke-dasharray="1,5" d="M1032.37,-561.4C1049.68,-554.25 1065.67,-544.39 1079.23,-531.07 1103.85,-506.89 1065.46,-479.09 1089.23,-454.07 1267.77,-266.25 1475.49,-283.48 1672.29,-452.07 1738.37,-508.69 1743.02,-798.57 1742.96,-882.98"/>
<polygon fill="#999999" stroke="#999999" points="1741.21,-883.01 1742.95,-888.01 1744.71,-883.02 1741.21,-883.01"/>
</g>
<!-- L4YAML.Proofs.ScannerCorrectness.ScanHelpers.scanPlainScalar_adds_one_token&#45;&gt;L4YAML.ScanError -->
<g id="edge25" class="edge">
<title>L4YAML.Proofs.ScannerCorrectness.ScanHelpers.scanPlainScalar_adds_one_token&#45;&gt;L4YAML.ScanError</title>
<path fill="none" stroke="#999999" stroke-dasharray="1,5" d="M977.92,-547.11C1011.64,-542.97 1046.7,-537.71 1079.23,-531.07 1083.78,-530.15 1084.65,-528.79 1089.23,-528.07 1334.34,-489.85 1399.24,-520.3 1647.29,-518.07 1658.4,-517.97 1664.28,-510.37 1672.29,-518.07 1709.87,-554.24 1662.28,-943.09 1690.29,-987.07 1694.49,-993.68 1700.86,-998.74 1707.73,-1002.6"/>
<polygon fill="#999999" stroke="#999999" points="1707.3,-1004.35 1712.54,-1005.08 1708.9,-1001.24 1707.3,-1004.35"/>
</g>
<!-- L4YAML.Proofs.ScannerCorrectness.ScanHelpers.scanPlainScalar_adds_one_token&#45;&gt;L4YAML.Scanner.ScannerState.tokens -->
<g id="edge20" class="edge">
<title>L4YAML.Proofs.ScannerCorrectness.ScanHelpers.scanPlainScalar_adds_one_token&#45;&gt;L4YAML.Scanner.ScannerState.tokens</title>
<path fill="none" stroke="#999999" stroke-dasharray="1,5" d="M993.05,-549.02C1231.57,-535.24 1624.77,-520.05 1672.29,-566.07 1710.23,-602.82 1661.93,-996.52 1690.29,-1041.07 1691.47,-1042.92 1692.81,-1044.65 1694.29,-1046.26"/>
<polygon fill="#999999" stroke="#999999" points="1693.16,-1047.6 1697.97,-1049.83 1695.6,-1045.09 1693.16,-1047.6"/>
</g>
<!-- L4YAML.Proofs.ScannerCorrectness.ScanHelpers.scanPlainScalar_adds_one_token&#45;&gt;L4YAML.Proofs.ScannerCorrectness.ScanHelpers.scanPlainScalar_preserves_prefix -->
<g id="edge8" class="edge">
<title>L4YAML.Proofs.ScannerCorrectness.ScanHelpers.scanPlainScalar_adds_one_token&#45;&gt;L4YAML.Proofs.ScannerCorrectness.ScanHelpers.scanPlainScalar_preserves_prefix</title>
<path fill="none" stroke="#28a745" d="M1032.26,-561.8C1049.49,-568.76 1065.49,-578.29 1079.23,-591.07 1097.1,-607.7 1075.52,-624.88 1089.23,-645.07 1139.79,-719.53 1233.65,-768.63 1298.34,-795.38"/>
<polygon fill="#28a745" stroke="#28a745" points="1297.49,-797.68 1304.9,-798.06 1299.34,-793.15 1297.49,-797.68"/>
</g>
<!-- L4YAML.Proofs.ScannerCorrectness.ScanHelpers.emitAt_chain_preserves_prefix -->
<g id="node15" class="node">
<title>L4YAML.Proofs.ScannerCorrectness.ScanHelpers.emitAt_chain_preserves_prefix</title>
<g id="a_node15"><a xlink:href="../../../api/L4YAML/Proofs/ScannerCorrectness.html#L4YAML.Proofs.ScannerCorrectness.ScanHelpers.emitAt_chain_preserves_prefix" xlink:title="ScannerCorrectness.ScanHelpers.emitAt_chain_preserves_prefix\n(ScannerCorrectness)" target="_blank">
<ellipse fill="#d4edda" stroke="#28a745" cx="809.6" cy="-621.07" rx="214.01" ry="21.43"/>
<text text-anchor="middle" x="809.6" y="-624.07" font-family="Helvetica" font-size="10.00">ScannerCorrectness.ScanHelpers.emitAt_chain_preserves_prefix</text>
<text text-anchor="middle" x="809.6" y="-613.07" font-family="Helvetica" font-size="10.00">(ScannerCorrectness)</text>
</a>
</g>
</g>
<!-- L4YAML.Proofs.ScannerCorrectness.ScanHelpers.emitAt_chain_preserves_prefix&#45;&gt;L4YAML.Positioned -->
<g id="edge27" class="edge">
<title>L4YAML.Proofs.ScannerCorrectness.ScanHelpers.emitAt_chain_preserves_prefix&#45;&gt;L4YAML.Positioned</title>
<path fill="none" stroke="#999999" stroke-dasharray="1,5" d="M856.97,-641.76C913.32,-665.99 1011.82,-705.42 1100.23,-726.07 1224.8,-755.18 1584.35,-697.18 1672.29,-790.07 1718.96,-839.38 1653.23,-1038.18 1690.29,-1095.07 1694.56,-1101.63 1700.96,-1106.68 1707.83,-1110.54"/>
<polygon fill="#999999" stroke="#999999" points="1707.4,-1112.28 1712.64,-1113.02 1709,-1109.17 1707.4,-1112.28"/>
</g>
<!-- L4YAML.Proofs.ScannerCorrectness.ScanHelpers.emitAt_chain_preserves_prefix&#45;&gt;L4YAML.Scanner.ScannerState -->
<g id="edge30" class="edge">
<title>L4YAML.Proofs.ScannerCorrectness.ScanHelpers.emitAt_chain_preserves_prefix&#45;&gt;L4YAML.Scanner.ScannerState</title>
<path fill="none" stroke="#999999" stroke-dasharray="1,5" d="M963.94,-635.86C1208.32,-659.76 1660.06,-705.49 1672.29,-718.07 1705.7,-752.46 1663.63,-893.23 1690.29,-933.07 1693.2,-937.42 1697.03,-941.1 1701.3,-944.22"/>
<polygon fill="#999999" stroke="#999999" points="1700.57,-945.84 1705.71,-947.15 1702.51,-942.92 1700.57,-945.84"/>
</g>
<!-- L4YAML.Proofs.ScannerCorrectness.ScanHelpers.emitAt_chain_preserves_prefix&#45;&gt;L4YAML.YamlToken -->
<g id="edge29" class="edge">
<title>L4YAML.Proofs.ScannerCorrectness.ScanHelpers.emitAt_chain_preserves_prefix&#45;&gt;L4YAML.YamlToken</title>
<path fill="none" stroke="#999999" stroke-dasharray="1,5" d="M993.91,-610.21C1215.35,-601 1570.86,-599.98 1672.29,-680.07 1735.5,-729.98 1743.25,-835.9 1743.41,-882.84"/>
<polygon fill="#999999" stroke="#999999" points="1741.66,-882.99 1743.39,-888 1745.16,-883 1741.66,-882.99"/>
</g>
<!-- L4YAML.Proofs.ScannerCorrectness.ScanHelpers.emitAt_chain_preserves_prefix&#45;&gt;L4YAML.YamlPos -->
<g id="edge28" class="edge">
<title>L4YAML.Proofs.ScannerCorrectness.ScanHelpers.emitAt_chain_preserves_prefix&#45;&gt;L4YAML.YamlPos</title>
<path fill="none" stroke="#999999" stroke-dasharray="1,5" d="M840.99,-642.21C895.37,-681.02 1011.04,-768.14 1090.23,-860.07 1095.71,-866.43 1093.14,-871.61 1100.23,-876.07 1172.65,-921.67 1278.33,-917.39 1332.65,-911.25"/>
<polygon fill="#999999" stroke="#999999" points="1332.98,-912.98 1337.74,-910.66 1332.57,-909.5 1332.98,-912.98"/>
</g>
<!-- L4YAML.Proofs.ScannerCorrectness.ScanHelpers.emitAt_chain_preserves_prefix&#45;&gt;L4YAML.Scanner.ScannerState.emitAt -->
<g id="edge31" class="edge">
<title>L4YAML.Proofs.ScannerCorrectness.ScanHelpers.emitAt_chain_preserves_prefix&#45;&gt;L4YAML.Scanner.ScannerState.emitAt</title>
<path fill="none" stroke="#999999" stroke-dasharray="1,5" d="M840.7,-642.2C895.4,-682.03 1011.7,-773.49 1079.23,-876.07 1094.08,-898.62 1078.89,-916.54 1100.23,-933.07 1159.87,-979.28 1250.84,-977.91 1309.81,-970.61"/>
<polygon fill="#999999" stroke="#999999" points="1310.32,-972.31 1315.06,-969.94 1309.87,-968.84 1310.32,-972.31"/>
</g>
<!-- L4YAML.Proofs.ScannerCorrectness.ScanHelpers.emitAt_chain_preserves_prefix&#45;&gt;L4YAML.Scanner.ScannerState.tokens -->
<g id="edge26" class="edge">
<title>L4YAML.Proofs.ScannerCorrectness.ScanHelpers.emitAt_chain_preserves_prefix&#45;&gt;L4YAML.Scanner.ScannerState.tokens</title>
<path fill="none" stroke="#999999" stroke-dasharray="1,5" d="M880.27,-641.18C938.59,-657.34 1024.23,-679.51 1100.23,-693.07 1226.14,-715.55 1583.99,-663.56 1672.29,-756.07 1716.1,-801.98 1655.54,-987.97 1690.29,-1041.07 1691.49,-1042.91 1692.85,-1044.62 1694.35,-1046.23"/>
<polygon fill="#999999" stroke="#999999" points="1693.23,-1047.58 1698.06,-1049.77 1695.65,-1045.05 1693.23,-1047.58"/>
</g>
<!-- L4YAML.Proofs.ScannerCorrectness.ScanHelpers.emitAt_chain_preserves_prefix&#45;&gt;L4YAML.Proofs.ScannerCorrectness.ScanHelpers.scanPlainScalar_preserves_prefix -->
<g id="edge7" class="edge">
<title>L4YAML.Proofs.ScannerCorrectness.ScanHelpers.emitAt_chain_preserves_prefix&#45;&gt;L4YAML.Proofs.ScannerCorrectness.ScanHelpers.scanPlainScalar_preserves_prefix</title>
<path fill="none" stroke="#28a745" d="M832.89,-642.17C877.4,-682.76 982.24,-770.83 1089.23,-806.07 1093.21,-807.38 1097.24,-808.62 1101.3,-809.79"/>
<polygon fill="#28a745" stroke="#28a745" points="1100.79,-812.19 1108.19,-811.69 1102.09,-807.47 1100.79,-812.19"/>
</g>
<!-- L4YAML.Proofs.ScannerCorrectness.ScanHelpers.scanAnchorOrAlias_preserves_prefix._proof_1 -->
<g id="node16" class="node">
<title>L4YAML.Proofs.ScannerCorrectness.ScanHelpers.scanAnchorOrAlias_preserves_prefix._proof_1</title>
<g id="a_node16"><a xlink:href="../../../api/L4YAML/Proofs/ScannerCorrectness.html#L4YAML.Proofs.ScannerCorrectness.ScanHelpers.scanAnchorOrAlias_preserves_prefix._proof_1" xlink:title="ScannerCorrectness.ScanHelpers.scanAnchorOrAlias_preserves_prefix._proof_1\n(ScannerCorrectness)" target="_blank">
<ellipse fill="#d4edda" stroke="#28a745" cx="809.6" cy="-501.07" rx="261.76" ry="21.43"/>
<text text-anchor="middle" x="809.6" y="-504.07" font-family="Helvetica" font-size="10.00">ScannerCorrectness.ScanHelpers.scanAnchorOrAlias_preserves_prefix._proof_1</text>
<text text-anchor="middle" x="809.6" y="-493.07" font-family="Helvetica" font-size="10.00">(ScannerCorrectness)</text>
</a>
</g>
</g>
<!-- L4YAML.Proofs.ScannerCorrectness.ScanHelpers.scanAnchorOrAlias_preserves_prefix._proof_1&#45;&gt;L4YAML.Positioned -->
<g id="edge33" class="edge">
<title>L4YAML.Proofs.ScannerCorrectness.ScanHelpers.scanAnchorOrAlias_preserves_prefix._proof_1&#45;&gt;L4YAML.Positioned</title>
<path fill="none" stroke="#999999" stroke-dasharray="1,5" d="M906.21,-481.35C1068.89,-453.13 1404.52,-418.54 1637.29,-555.07 1661.96,-569.54 1663.67,-581.8 1672.29,-609.07 1688.57,-660.6 1661.29,-1049.48 1690.29,-1095.07 1694.49,-1101.68 1700.86,-1106.75 1707.72,-1110.61"/>
<polygon fill="#999999" stroke="#999999" points="1707.29,-1112.35 1712.54,-1113.09 1708.9,-1109.24 1707.29,-1112.35"/>
</g>
<!-- L4YAML.Proofs.ScannerCorrectness.ScanHelpers.scanAnchorOrAlias_preserves_prefix._proof_1&#45;&gt;L4YAML.Scanner.ScannerState -->
<g id="edge35" class="edge">
<title>L4YAML.Proofs.ScannerCorrectness.ScanHelpers.scanAnchorOrAlias_preserves_prefix._proof_1&#45;&gt;L4YAML.Scanner.ScannerState</title>
<path fill="none" stroke="#999999" stroke-dasharray="1,5" d="M836.12,-479.71C882.76,-442.22 986.46,-365.93 1089.23,-338.07 1214.29,-304.18 1579.3,-247.85 1672.29,-338.07 1696.03,-361.1 1672.64,-905.11 1690.29,-933.07 1693.18,-937.65 1697.11,-941.49 1701.53,-944.7"/>
<polygon fill="#999999" stroke="#999999" points="1700.58,-946.17 1705.72,-947.47 1702.52,-943.25 1700.58,-946.17"/>
</g>
<!-- L4YAML.Proofs.ScannerCorrectness.ScanHelpers.scanAnchorOrAlias_preserves_prefix._proof_1&#45;&gt;L4YAML.YamlToken -->
<g id="edge34" class="edge">
<title>L4YAML.Proofs.ScannerCorrectness.ScanHelpers.scanAnchorOrAlias_preserves_prefix._proof_1&#45;&gt;L4YAML.YamlToken</title>
<path fill="none" stroke="#999999" stroke-dasharray="1,5" d="M868.06,-480.31C929.21,-455.32 1024.53,-407.58 1079.23,-336.07 1088.8,-323.56 1077.52,-312.61 1089.23,-302.07 1281.94,-128.82 1478.75,-127.75 1672.29,-300.07 1716.73,-339.64 1737.47,-776.65 1741.88,-882.9"/>
<polygon fill="#999999" stroke="#999999" points="1740.13,-883.07 1742.09,-887.99 1743.63,-882.92 1740.13,-883.07"/>
</g>
<!-- L4YAML.Proofs.ScannerCorrectness.ScanHelpers.scanAnchorOrAlias_preserves_prefix._proof_1&#45;&gt;L4YAML.Scanner.ScannerState.tokens -->
<g id="edge32" class="edge">
<title>L4YAML.Proofs.ScannerCorrectness.ScanHelpers.scanAnchorOrAlias_preserves_prefix._proof_1&#45;&gt;L4YAML.Scanner.ScannerState.tokens</title>
<path fill="none" stroke="#999999" stroke-dasharray="1,5" d="M845.02,-479.85C896.08,-449.73 995.91,-396.05 1089.23,-376.07 1208.33,-350.58 1543.02,-298.97 1637.29,-376.07 1698.01,-425.74 1663.05,-471.17 1672.29,-549.07 1678.73,-603.4 1660.95,-994.91 1690.29,-1041.07 1691.46,-1042.92 1692.81,-1044.65 1694.29,-1046.27"/>
<polygon fill="#999999" stroke="#999999" points="1693.16,-1047.61 1697.96,-1049.83 1695.59,-1045.09 1693.16,-1047.61"/>
</g>
<!-- L4YAML.Proofs.ScannerCorrectness.ScanHelpers.scanAnchorOrAlias_preserves_prefix._proof_1&#45;&gt;L4YAML.Proofs.ScannerCorrectness.ScanHelpers.scanPlainScalar_preserves_prefix -->
<g id="edge9" class="edge">
<title>L4YAML.Proofs.ScannerCorrectness.ScanHelpers.scanAnchorOrAlias_preserves_prefix._proof_1&#45;&gt;L4YAML.Proofs.ScannerCorrectness.ScanHelpers.scanPlainScalar_preserves_prefix</title>
<path fill="none" stroke="#28a745" d="M1028.98,-512.65C1046.4,-517.4 1063.38,-523.44 1079.23,-531.07 1205.84,-592.03 1309.35,-731.82 1349.64,-791.85"/>
<polygon fill="#28a745" stroke="#28a745" points="1347.64,-793.27 1353.56,-797.74 1351.72,-790.56 1347.64,-793.27"/>
</g>
<!-- Decidable.byContradiction -->
<g id="node17" class="node">
<title>Decidable.byContradiction</title>
<g id="a_node17"><a xlink:href="../../../api/Init/Core.html#Decidable.byContradiction" xlink:title="Decidable.byContradiction" target="_blank">
<ellipse fill="#fdebd0" stroke="#e67e22" cx="809.6" cy="-284.07" rx="77.23" ry="18"/>
<text text-anchor="middle" x="809.6" y="-281.57" font-family="Helvetica" font-size="10.00">Decidable.byContradiction</text>
</a>
</g>
</g>
<!-- Decidable.byContradiction&#45;&gt;L4YAML.Proofs.ScannerCorrectness.ScanHelpers.scanPlainScalar_preserves_prefix -->
<g id="edge11" class="edge">
<title>Decidable.byContradiction&#45;&gt;L4YAML.Proofs.ScannerCorrectness.ScanHelpers.scanPlainScalar_preserves_prefix</title>
<path fill="none" stroke="#e67e22" stroke-width="2" d="M865.03,-296.64C925.33,-312.73 1022.92,-345.4 1090.23,-401.07 1228.32,-515.28 1323.46,-715.91 1355.7,-790.8"/>
<polygon fill="#e67e22" stroke="#e67e22" stroke-width="2" points="1353.62,-792.17 1358.62,-797.64 1358.12,-790.24 1353.62,-792.17"/>
</g>
</g>
</svg>
