<?xml version="1.0" encoding="UTF-8" standalone="no"?>
<!DOCTYPE svg PUBLIC "-//W3C//DTD SVG 1.1//EN"
 "http://www.w3.org/Graphics/SVG/1.1/DTD/svg11.dtd">
<!-- Generated by graphviz version 2.44.0 (0)
 -->
<!-- Title: ScannerCorrectness.consumeNewline_preserves_simpleKeyStack Pages: 1 -->
<svg width="1315pt" height="505pt"
 viewBox="0.00 0.00 1314.95 505.24" xmlns="http://www.w3.org/2000/svg" xmlns:xlink="http://www.w3.org/1999/xlink">
<g id="graph0" class="graph" transform="scale(1 1) rotate(0) translate(4 501.24)">
<title>ScannerCorrectness.consumeNewline_preserves_simpleKeyStack</title>
<polygon fill="white" stroke="transparent" points="-4,4 -4,-501.24 1310.95,-501.24 1310.95,4 -4,4"/>
<text text-anchor="middle" x="653.48" y="-482.84" font-family="Helvetica Bold" font-size="13.00">ScannerCorrectness.consumeNewline_preserves_simpleKeyStack</text>
<text text-anchor="middle" x="653.48" y="-468.84" font-family="Helvetica Bold" font-size="13.00">(heuristic: used by 8 proofs)</text>
<text text-anchor="middle" x="653.48" y="-454.84" font-family="Helvetica Bold" font-size="13.00">(L4YAML.Proofs.ScannerCorrectness)</text>
<g id="clust1" class="cluster">
<title>cluster_functions</title>
<polygon fill="none" stroke="#4a90d9" stroke-dasharray="5,2" points="753.75,-49.24 753.75,-285.24 1298.95,-285.24 1298.95,-49.24 753.75,-49.24"/>
<text text-anchor="middle" x="1026.35" y="-270.84" font-family="Helvetica Bold" font-size="13.00" fill="#4a90d9">Functions</text>
</g>
<g id="clust2" class="cluster">
<title>cluster_key</title>
<polygon fill="none" stroke="#d4a017" stroke-dasharray="5,2" points="566.56,-293.24 566.56,-375.24 1088.95,-375.24 1088.95,-293.24 566.56,-293.24"/>
<text text-anchor="middle" x="827.75" y="-360.84" font-family="Helvetica Bold" font-size="13.00" fill="#d4a017">Key Theorem</text>
</g>
<g id="clust3" class="cluster">
<title>cluster_proofs</title>
<polygon fill="none" stroke="#28a745" stroke-dasharray="5,2" points="78.57,-54.24 78.57,-134.24 474.99,-134.24 474.99,-54.24 78.57,-54.24"/>
<text text-anchor="middle" x="276.78" y="-119.84" font-family="Helvetica Bold" font-size="13.00" fill="#28a745">Proof Dependencies</text>
</g>
<g id="clust4" class="cluster">
<title>cluster_stdlib</title>
<polygon fill="none" stroke="#e67e22" stroke-dasharray="5,2" points="8,-149.24 8,-439.24 545.56,-439.24 545.56,-149.24 8,-149.24"/>
<text text-anchor="middle" x="276.78" y="-424.84" font-family="Helvetica Bold" font-size="13.00" fill="#e67e22">Stdlib Lemmas</text>
</g>
<!-- L4YAML.Scanner.ScannerState.advance -->
<g id="node1" class="node">
<title>L4YAML.Scanner.ScannerState.advance</title>
<g id="a_node1"><a xlink:href="../../../api/L4YAML/Scanner.html#L4YAML.Scanner.ScannerState.advance" xlink:title="ScannerState.advance\n(def)" target="_blank">
<polygon fill="#dce9f7" stroke="#4a90d9" points="885.25,-147.24 770.25,-147.24 770.25,-111.24 885.25,-111.24 885.25,-147.24"/>
<text text-anchor="middle" x="827.75" y="-132.24" font-family="Helvetica" font-size="10.00">ScannerState.advance</text>
<text text-anchor="middle" x="827.75" y="-121.24" font-family="Helvetica" font-size="10.00">(def)</text>
</a>
</g>
</g>
<!-- L4YAML.Scanner.consumeNewline -->
<g id="node2" class="node">
<title>L4YAML.Scanner.consumeNewline</title>
<g id="a_node2"><a xlink:href="../../../api/L4YAML/Scanner.html#L4YAML.Scanner.consumeNewline" xlink:title="consumeNewline\n(def)" target="_blank">
<polygon fill="#dce9f7" stroke="#4a90d9" points="1262.45,-255.24 1170.45,-255.24 1170.45,-219.24 1262.45,-219.24 1262.45,-255.24"/>
<text text-anchor="middle" x="1216.45" y="-240.24" font-family="Helvetica" font-size="10.00">consumeNewline</text>
<text text-anchor="middle" x="1216.45" y="-229.24" font-family="Helvetica" font-size="10.00">(def)</text>
</a>
</g>
</g>
<!-- L4YAML.Scanner.ScannerState -->
<g id="node3" class="node">
<title>L4YAML.Scanner.ScannerState</title>
<g id="a_node3"><a xlink:href="../../../api/L4YAML/Scanner.html#L4YAML.Scanner.ScannerState" xlink:title="ScannerState\n(inductive)" target="_blank">
<polygon fill="#dce9f7" stroke="#4a90d9" points="1254.45,-201.24 1178.45,-201.24 1178.45,-165.24 1254.45,-165.24 1254.45,-201.24"/>
<text text-anchor="middle" x="1216.45" y="-186.24" font-family="Helvetica" font-size="10.00">ScannerState</text>
<text text-anchor="middle" x="1216.45" y="-175.24" font-family="Helvetica" font-size="10.00">(inductive)</text>
</a>
</g>
</g>
<!-- L4YAML.Scanner.ScannerState.simpleKeyStack -->
<g id="node4" class="node">
<title>L4YAML.Scanner.ScannerState.simpleKeyStack</title>
<g id="a_node4"><a xlink:href="../../../api/L4YAML/Scanner.html#L4YAML.Scanner.ScannerState.simpleKeyStack" xlink:title="ScannerState.simpleKeyStack\n(def)" target="_blank">
<polygon fill="#dce9f7" stroke="#4a90d9" points="1290.95,-147.24 1141.95,-147.24 1141.95,-111.24 1290.95,-111.24 1290.95,-147.24"/>
<text text-anchor="middle" x="1216.45" y="-132.24" font-family="Helvetica" font-size="10.00">ScannerState.simpleKeyStack</text>
<text text-anchor="middle" x="1216.45" y="-121.24" font-family="Helvetica" font-size="10.00">(def)</text>
</a>
</g>
</g>
<!-- L4YAML.Scanner.consumeNewline.match_1 -->
<g id="node5" class="node">
<title>L4YAML.Scanner.consumeNewline.match_1</title>
<g id="a_node5"><a xlink:href="../../../api/L4YAML/Scanner.html#L4YAML.Scanner.consumeNewline.match_1" xlink:title="consumeNewline.match_1\n(def)" target="_blank">
<polygon fill="#dce9f7" stroke="#4a90d9" points="893.75,-255.24 761.75,-255.24 761.75,-219.24 893.75,-219.24 893.75,-255.24"/>
<text text-anchor="middle" x="827.75" y="-240.24" font-family="Helvetica" font-size="10.00">consumeNewline.match_1</text>
<text text-anchor="middle" x="827.75" y="-229.24" font-family="Helvetica" font-size="10.00">(def)</text>
</a>
</g>
</g>
<!-- L4YAML.Scanner.consumeNewline.match_3 -->
<g id="node6" class="node">
<title>L4YAML.Scanner.consumeNewline.match_3</title>
<g id="a_node6"><a xlink:href="../../../api/L4YAML/Scanner.html#L4YAML.Scanner.consumeNewline.match_3" xlink:title="consumeNewline.match_3\n(def)" target="_blank">
<polygon fill="#dce9f7" stroke="#4a90d9" points="893.75,-201.24 761.75,-201.24 761.75,-165.24 893.75,-165.24 893.75,-201.24"/>
<text text-anchor="middle" x="827.75" y="-186.24" font-family="Helvetica" font-size="10.00">consumeNewline.match_3</text>
<text text-anchor="middle" x="827.75" y="-175.24" font-family="Helvetica" font-size="10.00">(def)</text>
</a>
</g>
</g>
<!-- L4YAML.Scanner.SimpleKeyState -->
<g id="node7" class="node">
<title>L4YAML.Scanner.SimpleKeyState</title>
<g id="a_node7"><a xlink:href="../../../api/L4YAML/Scanner.html#L4YAML.Scanner.SimpleKeyState" xlink:title="SimpleKeyState\n(inductive)" target="_blank">
<polygon fill="#dce9f7" stroke="#4a90d9" points="1259.45,-93.24 1173.45,-93.24 1173.45,-57.24 1259.45,-57.24 1259.45,-93.24"/>
<text text-anchor="middle" x="1216.45" y="-78.24" font-family="Helvetica" font-size="10.00">SimpleKeyState</text>
<text text-anchor="middle" x="1216.45" y="-67.24" font-family="Helvetica" font-size="10.00">(inductive)</text>
</a>
</g>
</g>
<!-- L4YAML.Proofs.ScannerCorrectness.consumeNewline_preserves_simpleKeyStack -->
<g id="node8" class="node">
<title>L4YAML.Proofs.ScannerCorrectness.consumeNewline_preserves_simpleKeyStack</title>
<g id="a_node8"><a xlink:href="../../../api/L4YAML/Proofs/ScannerCorrectness.html#L4YAML.Proofs.ScannerCorrectness.consumeNewline_preserves_simpleKeyStack" xlink:title="ScannerCorrectness.consumeNewline_preserves_simpleKeyStack" target="_blank">
<polygon fill="#fff3cd" stroke="#d4a017" points="1077.15,-315.78 1077.15,-330.69 931.06,-341.24 724.45,-341.24 578.36,-330.69 578.36,-315.78 724.45,-305.24 931.06,-305.24 1077.15,-315.78"/>
<polygon fill="none" stroke="#d4a017" points="1081.15,-312.06 1081.15,-334.41 931.2,-345.24 724.31,-345.24 574.36,-334.41 574.36,-312.06 724.31,-301.24 931.2,-301.24 1081.15,-312.06"/>
<text text-anchor="middle" x="827.75" y="-320.14" font-family="Helvetica" font-size="12.00">ScannerCorrectness.consumeNewline_preserves_simpleKeyStack</text>
</a>
</g>
</g>
<!-- L4YAML.Proofs.ScannerCorrectness.consumeNewline_preserves_simpleKeyStack&#45;&gt;L4YAML.Scanner.consumeNewline -->
<g id="edge3" class="edge">
<title>L4YAML.Proofs.ScannerCorrectness.consumeNewline_preserves_simpleKeyStack&#45;&gt;L4YAML.Scanner.consumeNewline</title>
<path fill="none" stroke="#4a90d9" stroke-width="2" d="M1004.93,-306.54C1033.27,-302.05 1062.1,-296.38 1088.95,-289.24 1117.48,-281.65 1148.13,-269.17 1172.12,-258.34"/>
<polygon fill="#4a90d9" stroke="#4a90d9" stroke-width="2" points="1173.35,-260.47 1178.7,-255.33 1171.31,-256.01 1173.35,-260.47"/>
<text text-anchor="middle" x="1111.45" y="-287.84" font-family="Times-Roman" font-size="8.00" fill="#4a90d9">about</text>
</g>
<!-- L4YAML.Proofs.ScannerCorrectness.consumeNewline_preserves_simpleKeyStack&#45;&gt;L4YAML.Scanner.ScannerState -->
<g id="edge2" class="edge">
<title>L4YAML.Proofs.ScannerCorrectness.consumeNewline_preserves_simpleKeyStack&#45;&gt;L4YAML.Scanner.ScannerState</title>
<path fill="none" stroke="#4a90d9" stroke-width="2" d="M1046.05,-309.52C1061.11,-304.18 1075.59,-297.52 1088.95,-289.24 1124.89,-266.96 1108.71,-236.36 1141.95,-210.24 1150.63,-203.42 1161.2,-198.2 1171.59,-194.27"/>
<polygon fill="#4a90d9" stroke="#4a90d9" stroke-width="2" points="1172.59,-196.51 1178.37,-191.86 1170.95,-191.9 1172.59,-196.51"/>
<text text-anchor="middle" x="1111.45" y="-282.84" font-family="Times-Roman" font-size="8.00" fill="#4a90d9">about</text>
</g>
<!-- L4YAML.Proofs.ScannerCorrectness.consumeNewline_preserves_simpleKeyStack&#45;&gt;L4YAML.Scanner.ScannerState.simpleKeyStack -->
<g id="edge1" class="edge">
<title>L4YAML.Proofs.ScannerCorrectness.consumeNewline_preserves_simpleKeyStack&#45;&gt;L4YAML.Scanner.ScannerState.simpleKeyStack</title>
<path fill="none" stroke="#4a90d9" stroke-width="2" d="M1054.15,-310C1066.52,-304.4 1078.25,-297.55 1088.95,-289.24 1090.52,-288.02 1140.53,-157.62 1141.95,-156.24 1143.66,-154.58 1145.47,-153.02 1147.38,-151.55"/>
<polygon fill="#4a90d9" stroke="#4a90d9" stroke-width="2" points="1148.96,-153.44 1153.32,-147.44 1146.17,-149.41 1148.96,-153.44"/>
<text text-anchor="middle" x="1111.45" y="-265.84" font-family="Times-Roman" font-size="8.00" fill="#4a90d9">about</text>
</g>
<!-- L4YAML.Proofs.ScannerCorrectness.consumeNewline_preserves_simpleKeyStack&#45;&gt;L4YAML.Scanner.SimpleKeyState -->
<g id="edge4" class="edge">
<title>L4YAML.Proofs.ScannerCorrectness.consumeNewline_preserves_simpleKeyStack&#45;&gt;L4YAML.Scanner.SimpleKeyState</title>
<path fill="none" stroke="#4a90d9" stroke-width="2" d="M1060.75,-310.55C1070.95,-304.68 1080.45,-297.64 1088.95,-289.24 1100.13,-278.19 1094.96,-234.43 1098.95,-219.24 1106.72,-189.7 1113.48,-183.92 1123.95,-155.24 1132.48,-131.87 1124.58,-120.04 1141.95,-102.24 1148.75,-95.27 1157.5,-90.08 1166.57,-86.23"/>
<polygon fill="#4a90d9" stroke="#4a90d9" stroke-width="2" points="1167.57,-88.47 1173.21,-83.66 1165.8,-83.91 1167.57,-88.47"/>
<text text-anchor="middle" x="1111.45" y="-221.84" font-family="Times-Roman" font-size="8.00" fill="#4a90d9">about</text>
</g>
<!-- L4YAML.Proofs.ScannerCorrectness.advance_preserves_simpleKeyStack -->
<g id="node9" class="node">
<title>L4YAML.Proofs.ScannerCorrectness.advance_preserves_simpleKeyStack</title>
<g id="a_node9"><a xlink:href="../../../api/L4YAML/Proofs/ScannerCorrectness.html#L4YAML.Proofs.ScannerCorrectness.advance_preserves_simpleKeyStack" xlink:title="ScannerCorrectness.advance_preserves_simpleKeyStack\n(ScannerCorrectness)" target="_blank">
<ellipse fill="#d4edda" stroke="#28a745" cx="276.78" cy="-83.24" rx="190.42" ry="21.43"/>
<text text-anchor="middle" x="276.78" y="-86.24" font-family="Helvetica" font-size="10.00">ScannerCorrectness.advance_preserves_simpleKeyStack</text>
<text text-anchor="middle" x="276.78" y="-75.24" font-family="Helvetica" font-size="10.00">(ScannerCorrectness)</text>
</a>
</g>
</g>
<!-- L4YAML.Proofs.ScannerCorrectness.advance_preserves_simpleKeyStack&#45;&gt;L4YAML.Scanner.ScannerState.advance -->
<g id="edge15" class="edge">
<title>L4YAML.Proofs.ScannerCorrectness.advance_preserves_simpleKeyStack&#45;&gt;L4YAML.Scanner.ScannerState.advance</title>
<path fill="none" stroke="#999999" stroke-dasharray="1,5" d="M429.24,-95.93C539.8,-105.19 683.93,-117.27 764.77,-124.04"/>
<polygon fill="#999999" stroke="#999999" points="764.87,-125.81 770,-124.48 765.16,-122.32 764.87,-125.81"/>
</g>
<!-- L4YAML.Proofs.ScannerCorrectness.advance_preserves_simpleKeyStack&#45;&gt;L4YAML.Scanner.ScannerState -->
<g id="edge17" class="edge">
<title>L4YAML.Proofs.ScannerCorrectness.advance_preserves_simpleKeyStack&#45;&gt;L4YAML.Scanner.ScannerState</title>
<path fill="none" stroke="#999999" stroke-dasharray="1,5" d="M465.49,-80.24C687.31,-77.85 1033.46,-78.18 1088.95,-102.24 1119.81,-115.61 1113.7,-137.99 1141.95,-156.24 1151.56,-162.44 1162.79,-167.48 1173.54,-171.45"/>
<polygon fill="#999999" stroke="#999999" points="1173.14,-173.17 1178.43,-173.21 1174.31,-169.87 1173.14,-173.17"/>
</g>
<!-- L4YAML.Proofs.ScannerCorrectness.advance_preserves_simpleKeyStack&#45;&gt;L4YAML.Scanner.ScannerState.simpleKeyStack -->
<g id="edge16" class="edge">
<title>L4YAML.Proofs.ScannerCorrectness.advance_preserves_simpleKeyStack&#45;&gt;L4YAML.Scanner.ScannerState.simpleKeyStack</title>
<path fill="none" stroke="#999999" stroke-dasharray="1,5" d="M445.55,-73.42C481.81,-71.67 519.96,-70.13 555.56,-69.24 681.83,-66.06 1015.34,-4.76 1123.95,-69.24 1138.32,-77.76 1129.3,-91.32 1141.95,-102.24 1144.52,-104.45 1147.28,-106.49 1150.18,-108.37"/>
<polygon fill="#999999" stroke="#999999" points="1149.66,-110.09 1154.84,-111.18 1151.47,-107.1 1149.66,-110.09"/>
</g>
<!-- L4YAML.Proofs.ScannerCorrectness.advance_preserves_simpleKeyStack&#45;&gt;L4YAML.Scanner.SimpleKeyState -->
<g id="edge18" class="edge">
<title>L4YAML.Proofs.ScannerCorrectness.advance_preserves_simpleKeyStack&#45;&gt;L4YAML.Scanner.SimpleKeyState</title>
<path fill="none" stroke="#999999" stroke-dasharray="1,5" d="M358.35,-64.07C413.51,-51.96 488.5,-37.46 555.56,-31.24 807.1,-7.89 877.65,24.91 1123.95,-31.24 1144.22,-35.86 1165.23,-45.55 1181.99,-54.67"/>
<polygon fill="#999999" stroke="#999999" points="1181.39,-56.34 1186.61,-57.22 1183.08,-53.27 1181.39,-56.34"/>
</g>
<!-- L4YAML.Proofs.ScannerCorrectness.advance_preserves_simpleKeyStack&#45;&gt;L4YAML.Proofs.ScannerCorrectness.consumeNewline_preserves_simpleKeyStack -->
<g id="edge5" class="edge">
<title>L4YAML.Proofs.ScannerCorrectness.advance_preserves_simpleKeyStack&#45;&gt;L4YAML.Proofs.ScannerCorrectness.consumeNewline_preserves_simpleKeyStack</title>
<path fill="none" stroke="#28a745" d="M450.26,-91.94C486.09,-101.61 520.51,-118.03 545.56,-145.24 589.36,-192.82 520.48,-243.84 566.56,-289.24 573.34,-295.92 580.76,-301.75 588.66,-306.8"/>
<polygon fill="#28a745" stroke="#28a745" points="587.53,-308.98 594.79,-310.52 590.07,-304.79 587.53,-308.98"/>
</g>
<!-- _private.L4YAML.Proofs.ScannerCorrectness.0.L4YAML.Scanner.consumeNewline.match_1.eq_1 -->
<g id="node10" class="node">
<title>_private.L4YAML.Proofs.ScannerCorrectness.0.L4YAML.Scanner.consumeNewline.match_1.eq_1</title>
<g id="a_node10"><a xlink:href="../../../api/L4YAML/Proofs/ScannerCorrectness.html#_private.L4YAML.Proofs.ScannerCorrectness.0.L4YAML.Scanner.consumeNewline.match_1.eq_1" xlink:title="_private.L4YAML.Proofs.ScannerCorrectness.0.L4YAML.Scanner.consumeNewline.match_1.eq_1" target="_blank">
<ellipse fill="#fdebd0" stroke="#e67e22" cx="276.78" cy="-337.24" rx="260.56" ry="18"/>
<text text-anchor="middle" x="276.78" y="-334.74" font-family="Helvetica" font-size="10.00">_private.L4YAML.Proofs.ScannerCorrectness.0.L4YAML.Scanner.consumeNewline.match_1.eq_1</text>
</a>
</g>
</g>
<!-- _private.L4YAML.Proofs.ScannerCorrectness.0.L4YAML.Scanner.consumeNewline.match_1.eq_1&#45;&gt;L4YAML.Scanner.consumeNewline.match_1 -->
<g id="edge12" class="edge">
<title>_private.L4YAML.Proofs.ScannerCorrectness.0.L4YAML.Scanner.consumeNewline.match_1.eq_1&#45;&gt;L4YAML.Scanner.consumeNewline.match_1</title>
<path fill="none" stroke="#999999" stroke-dasharray="1,5" d="M367.86,-354.12C426.25,-359.51 499.72,-354.92 545.56,-310.24 570.9,-285.53 529.01,-254.64 555.56,-231.24 555.89,-230.94 556.11,-231.23 556.56,-231.24 624.39,-231.99 701.79,-233.81 756.31,-235.24"/>
<polygon fill="#999999" stroke="#999999" points="756.47,-237 761.52,-235.38 756.57,-233.5 756.47,-237"/>
</g>
<!-- _private.L4YAML.Proofs.ScannerCorrectness.0.L4YAML.Scanner.consumeNewline.match_1.eq_1&#45;&gt;L4YAML.Proofs.ScannerCorrectness.consumeNewline_preserves_simpleKeyStack -->
<g id="edge6" class="edge">
<title>_private.L4YAML.Proofs.ScannerCorrectness.0.L4YAML.Scanner.consumeNewline.match_1.eq_1&#45;&gt;L4YAML.Proofs.ScannerCorrectness.consumeNewline_preserves_simpleKeyStack</title>
<path fill="none" stroke="#e67e22" stroke-width="2" d="M426.79,-352C468.76,-354.47 514.44,-355.57 556.56,-353.24 595.15,-351.1 636.71,-347.26 675.38,-343.02"/>
<polygon fill="#e67e22" stroke="#e67e22" stroke-width="2" points="675.88,-345.43 682.57,-342.23 675.34,-340.56 675.88,-345.43"/>
</g>
<!-- _private.L4YAML.Proofs.ScannerCorrectness.0.L4YAML.Scanner.consumeNewline.match_3.eq_3 -->
<g id="node11" class="node">
<title>_private.L4YAML.Proofs.ScannerCorrectness.0.L4YAML.Scanner.consumeNewline.match_3.eq_3</title>
<g id="a_node11"><a xlink:href="../../../api/L4YAML/Proofs/ScannerCorrectness.html#_private.L4YAML.Proofs.ScannerCorrectness.0.L4YAML.Scanner.consumeNewline.match_3.eq_3" xlink:title="_private.L4YAML.Proofs.ScannerCorrectness.0.L4YAML.Scanner.consumeNewline.match_3.eq_3" target="_blank">
<ellipse fill="#fdebd0" stroke="#e67e22" cx="276.78" cy="-175.24" rx="260.56" ry="18"/>
<text text-anchor="middle" x="276.78" y="-172.74" font-family="Helvetica" font-size="10.00">_private.L4YAML.Proofs.ScannerCorrectness.0.L4YAML.Scanner.consumeNewline.match_3.eq_3</text>
</a>
</g>
</g>
<!-- _private.L4YAML.Proofs.ScannerCorrectness.0.L4YAML.Scanner.consumeNewline.match_3.eq_3&#45;&gt;L4YAML.Scanner.consumeNewline.match_3 -->
<g id="edge11" class="edge">
<title>_private.L4YAML.Proofs.ScannerCorrectness.0.L4YAML.Scanner.consumeNewline.match_3.eq_3&#45;&gt;L4YAML.Scanner.consumeNewline.match_3</title>
<path fill="none" stroke="#999999" stroke-dasharray="1,5" d="M410.66,-159.78C456.83,-156.11 508.95,-153.86 556.56,-156.24 624.63,-159.63 702,-167.8 756.45,-174.27"/>
<polygon fill="#999999" stroke="#999999" points="756.47,-176.04 761.65,-174.89 756.89,-172.56 756.47,-176.04"/>
</g>
<!-- _private.L4YAML.Proofs.ScannerCorrectness.0.L4YAML.Scanner.consumeNewline.match_3.eq_3&#45;&gt;L4YAML.Proofs.ScannerCorrectness.consumeNewline_preserves_simpleKeyStack -->
<g id="edge7" class="edge">
<title>_private.L4YAML.Proofs.ScannerCorrectness.0.L4YAML.Scanner.consumeNewline.match_3.eq_3&#45;&gt;L4YAML.Proofs.ScannerCorrectness.consumeNewline_preserves_simpleKeyStack</title>
<path fill="none" stroke="#e67e22" stroke-width="2" d="M368.42,-158.36C426.69,-153.1 499.78,-157.83 545.56,-202.24 557.78,-214.1 548.02,-262.96 555.56,-278.24 558.61,-284.44 560.35,-286.18 566.56,-289.24 580.95,-296.33 596.31,-302.11 612.09,-306.81"/>
<polygon fill="#e67e22" stroke="#e67e22" stroke-width="2" points="611.48,-309.18 618.88,-308.76 612.83,-304.47 611.48,-309.18"/>
</g>
<!-- _private.L4YAML.Proofs.ScannerCorrectness.0.L4YAML.Scanner.consumeNewline.match_3.eq_2 -->
<g id="node12" class="node">
<title>_private.L4YAML.Proofs.ScannerCorrectness.0.L4YAML.Scanner.consumeNewline.match_3.eq_2</title>
<g id="a_node12"><a xlink:href="../../../api/L4YAML/Proofs/ScannerCorrectness.html#_private.L4YAML.Proofs.ScannerCorrectness.0.L4YAML.Scanner.consumeNewline.match_3.eq_2" xlink:title="_private.L4YAML.Proofs.ScannerCorrectness.0.L4YAML.Scanner.consumeNewline.match_3.eq_2" target="_blank">
<ellipse fill="#fdebd0" stroke="#e67e22" cx="276.78" cy="-283.24" rx="260.56" ry="18"/>
<text text-anchor="middle" x="276.78" y="-280.74" font-family="Helvetica" font-size="10.00">_private.L4YAML.Proofs.ScannerCorrectness.0.L4YAML.Scanner.consumeNewline.match_3.eq_2</text>
</a>
</g>
</g>
<!-- _private.L4YAML.Proofs.ScannerCorrectness.0.L4YAML.Scanner.consumeNewline.match_3.eq_2&#45;&gt;L4YAML.Scanner.consumeNewline.match_3 -->
<g id="edge13" class="edge">
<title>_private.L4YAML.Proofs.ScannerCorrectness.0.L4YAML.Scanner.consumeNewline.match_3.eq_2&#45;&gt;L4YAML.Scanner.consumeNewline.match_3</title>
<path fill="none" stroke="#999999" stroke-dasharray="1,5" d="M514.23,-275.69C525.35,-270.39 535.89,-263.97 545.56,-256.24 556.53,-247.46 549.29,-238.82 555.56,-226.24 559.4,-218.51 559.14,-214.64 566.56,-210.24 623.86,-176.2 700.98,-172.31 756.36,-175.2"/>
<polygon fill="#999999" stroke="#999999" points="756.56,-176.96 761.65,-175.5 756.76,-173.47 756.56,-176.96"/>
</g>
<!-- _private.L4YAML.Proofs.ScannerCorrectness.0.L4YAML.Scanner.consumeNewline.match_3.eq_2&#45;&gt;L4YAML.Proofs.ScannerCorrectness.consumeNewline_preserves_simpleKeyStack -->
<g id="edge8" class="edge">
<title>_private.L4YAML.Proofs.ScannerCorrectness.0.L4YAML.Scanner.consumeNewline.match_3.eq_2&#45;&gt;L4YAML.Proofs.ScannerCorrectness.consumeNewline_preserves_simpleKeyStack</title>
<path fill="none" stroke="#e67e22" stroke-width="2" d="M509,-291.57C521.84,-296.57 534.14,-302.72 545.56,-310.24 553.2,-315.27 547.67,-323.59 555.56,-328.24 555.94,-328.46 556.11,-328.24 556.56,-328.24 560.04,-328.2 563.54,-328.17 567.07,-328.13"/>
<polygon fill="#e67e22" stroke="#e67e22" stroke-width="2" points="567.37,-330.58 574.34,-328.05 567.32,-325.68 567.37,-330.58"/>
</g>
<!-- _private.L4YAML.Proofs.ScannerCorrectness.0.L4YAML.Scanner.consumeNewline.match_1.eq_2 -->
<g id="node13" class="node">
<title>_private.L4YAML.Proofs.ScannerCorrectness.0.L4YAML.Scanner.consumeNewline.match_1.eq_2</title>
<g id="a_node13"><a xlink:href="../../../api/L4YAML/Proofs/ScannerCorrectness.html#_private.L4YAML.Proofs.ScannerCorrectness.0.L4YAML.Scanner.consumeNewline.match_1.eq_2" xlink:title="_private.L4YAML.Proofs.ScannerCorrectness.0.L4YAML.Scanner.consumeNewline.match_1.eq_2" target="_blank">
<ellipse fill="#fdebd0" stroke="#e67e22" cx="276.78" cy="-391.24" rx="260.56" ry="18"/>
<text text-anchor="middle" x="276.78" y="-388.74" font-family="Helvetica" font-size="10.00">_private.L4YAML.Proofs.ScannerCorrectness.0.L4YAML.Scanner.consumeNewline.match_1.eq_2</text>
</a>
</g>
</g>
<!-- _private.L4YAML.Proofs.ScannerCorrectness.0.L4YAML.Scanner.consumeNewline.match_1.eq_2&#45;&gt;L4YAML.Scanner.consumeNewline.match_1 -->
<g id="edge14" class="edge">
<title>_private.L4YAML.Proofs.ScannerCorrectness.0.L4YAML.Scanner.consumeNewline.match_1.eq_2&#45;&gt;L4YAML.Scanner.consumeNewline.match_1</title>
<path fill="none" stroke="#999999" stroke-dasharray="1,5" d="M515.31,-383.95C526.09,-378.56 536.26,-372.05 545.56,-364.24 572.05,-341.96 541.17,-312.77 566.56,-289.24 617.39,-242.12 698.35,-232.42 756.46,-232.44"/>
<polygon fill="#999999" stroke="#999999" points="756.65,-234.19 761.66,-232.46 756.67,-230.69 756.65,-234.19"/>
</g>
<!-- _private.L4YAML.Proofs.ScannerCorrectness.0.L4YAML.Scanner.consumeNewline.match_1.eq_2&#45;&gt;L4YAML.Proofs.ScannerCorrectness.consumeNewline_preserves_simpleKeyStack -->
<g id="edge9" class="edge">
<title>_private.L4YAML.Proofs.ScannerCorrectness.0.L4YAML.Scanner.consumeNewline.match_1.eq_2&#45;&gt;L4YAML.Proofs.ScannerCorrectness.consumeNewline_preserves_simpleKeyStack</title>
<path fill="none" stroke="#e67e22" stroke-width="2" d="M454.59,-378.04C488.48,-374.94 523.65,-371.33 556.56,-367.24 604.56,-361.27 657.1,-353.09 702.98,-345.41"/>
<polygon fill="#e67e22" stroke="#e67e22" stroke-width="2" points="703.5,-347.8 709.99,-344.23 702.68,-342.97 703.5,-347.8"/>
</g>
<!-- _private.L4YAML.Proofs.ScannerCorrectness.0.L4YAML.Scanner.consumeNewline.match_3.eq_1 -->
<g id="node14" class="node">
<title>_private.L4YAML.Proofs.ScannerCorrectness.0.L4YAML.Scanner.consumeNewline.match_3.eq_1</title>
<g id="a_node14"><a xlink:href="../../../api/L4YAML/Proofs/ScannerCorrectness.html#_private.L4YAML.Proofs.ScannerCorrectness.0.L4YAML.Scanner.consumeNewline.match_3.eq_1" xlink:title="_private.L4YAML.Proofs.ScannerCorrectness.0.L4YAML.Scanner.consumeNewline.match_3.eq_1" target="_blank">
<ellipse fill="#fdebd0" stroke="#e67e22" cx="276.78" cy="-229.24" rx="260.56" ry="18"/>
<text text-anchor="middle" x="276.78" y="-226.74" font-family="Helvetica" font-size="10.00">_private.L4YAML.Proofs.ScannerCorrectness.0.L4YAML.Scanner.consumeNewline.match_3.eq_1</text>
</a>
</g>
</g>
<!-- _private.L4YAML.Proofs.ScannerCorrectness.0.L4YAML.Scanner.consumeNewline.match_3.eq_1&#45;&gt;L4YAML.Scanner.consumeNewline.match_3 -->
<g id="edge19" class="edge">
<title>_private.L4YAML.Proofs.ScannerCorrectness.0.L4YAML.Scanner.consumeNewline.match_3.eq_1&#45;&gt;L4YAML.Scanner.consumeNewline.match_3</title>
<path fill="none" stroke="#999999" stroke-dasharray="1,5" d="M510.86,-221.19C523.09,-216.09 534.76,-209.83 545.56,-202.24 554.01,-196.28 546.81,-186.76 555.56,-181.24 555.93,-181 556.11,-181.23 556.56,-181.24 624.38,-181.49 701.78,-182.09 756.31,-182.57"/>
<polygon fill="#999999" stroke="#999999" points="756.5,-184.32 761.51,-182.62 756.53,-180.82 756.5,-184.32"/>
</g>
<!-- _private.L4YAML.Proofs.ScannerCorrectness.0.L4YAML.Scanner.consumeNewline.match_3.eq_1&#45;&gt;L4YAML.Proofs.ScannerCorrectness.consumeNewline_preserves_simpleKeyStack -->
<g id="edge10" class="edge">
<title>_private.L4YAML.Proofs.ScannerCorrectness.0.L4YAML.Scanner.consumeNewline.match_3.eq_1&#45;&gt;L4YAML.Proofs.ScannerCorrectness.consumeNewline_preserves_simpleKeyStack</title>
<path fill="none" stroke="#e67e22" stroke-width="2" d="M516.84,-236.31C527.11,-241.78 536.77,-248.36 545.56,-256.24 561.46,-270.49 539.46,-289.2 555.56,-303.24 594.88,-337.55 650.82,-345.96 701.68,-344.43"/>
<polygon fill="#e67e22" stroke="#e67e22" stroke-width="2" points="701.93,-346.87 708.83,-344.15 701.74,-341.98 701.93,-346.87"/>
</g>
</g>
</svg>
