<?xml version="1.0" encoding="UTF-8" standalone="no"?>
<!DOCTYPE svg PUBLIC "-//W3C//DTD SVG 1.1//EN"
 "http://www.w3.org/Graphics/SVG/1.1/DTD/svg11.dtd">
<!-- Generated by graphviz version 2.44.0 (0)
 -->
<!-- Title: ScannerCorrectness.ScanHelpers.scanAnchorOrAlias_preserves_prefix._proof_1 Pages: 1 -->
<svg width="1126pt" height="1336pt"
 viewBox="0.00 0.00 1126.13 1336.00" xmlns="http://www.w3.org/2000/svg" xmlns:xlink="http://www.w3.org/1999/xlink">
<g id="graph0" class="graph" transform="scale(1 1) rotate(0) translate(4 1332)">
<title>ScannerCorrectness.ScanHelpers.scanAnchorOrAlias_preserves_prefix._proof_1</title>
<polygon fill="white" stroke="transparent" points="-4,4 -4,-1332 1122.13,-1332 1122.13,4 -4,4"/>
<text text-anchor="middle" x="559.06" y="-1313.6" font-family="Helvetica Bold" font-size="13.00">ScannerCorrectness.ScanHelpers.scanAnchorOrAlias_preserves_prefix._proof_1</text>
<text text-anchor="middle" x="559.06" y="-1299.6" font-family="Helvetica Bold" font-size="13.00">(heuristic: used by 9 proofs)</text>
<text text-anchor="middle" x="559.06" y="-1285.6" font-family="Helvetica Bold" font-size="13.00">(L4YAML.Proofs.ScannerCorrectness)</text>
<g id="clust1" class="cluster">
<title>cluster_functions</title>
<polygon fill="none" stroke="#4a90d9" stroke-dasharray="5,2" points="987.13,-522 987.13,-758 1110.13,-758 1110.13,-522 987.13,-522"/>
<text text-anchor="middle" x="1048.63" y="-743.6" font-family="Helvetica Bold" font-size="13.00" fill="#4a90d9">Functions</text>
</g>
<g id="clust2" class="cluster">
<title>cluster_key</title>
<polygon fill="none" stroke="#d4a017" stroke-dasharray="5,2" points="315.78,-598 315.78,-680 942.13,-680 942.13,-598 315.78,-598"/>
<text text-anchor="middle" x="628.96" y="-665.6" font-family="Helvetica Bold" font-size="13.00" fill="#d4a017">Key Theorem</text>
</g>
<g id="clust4" class="cluster">
<title>cluster_stdlib</title>
<polygon fill="none" stroke="#e67e22" stroke-dasharray="5,2" points="8,-8 8,-1270 294.78,-1270 294.78,-8 8,-8"/>
<text text-anchor="middle" x="151.39" y="-1255.6" font-family="Helvetica Bold" font-size="13.00" fill="#e67e22">Stdlib Lemmas</text>
</g>
<!-- L4YAML.Positioned -->
<g id="node1" class="node">
<title>L4YAML.Positioned</title>
<polygon fill="#dce9f7" stroke="#4a90d9" points="1079.63,-728 1017.63,-728 1017.63,-692 1079.63,-692 1079.63,-728"/>
<text text-anchor="middle" x="1048.63" y="-713" font-family="Helvetica" font-size="10.00">Positioned</text>
<text text-anchor="middle" x="1048.63" y="-702" font-family="Helvetica" font-size="10.00">(inductive)</text>
</g>
<!-- L4YAML.Scanner.ScannerState -->
<g id="node2" class="node">
<title>L4YAML.Scanner.ScannerState</title>
<polygon fill="#dce9f7" stroke="#4a90d9" points="1086.63,-674 1010.63,-674 1010.63,-638 1086.63,-638 1086.63,-674"/>
<text text-anchor="middle" x="1048.63" y="-659" font-family="Helvetica" font-size="10.00">ScannerState</text>
<text text-anchor="middle" x="1048.63" y="-648" font-family="Helvetica" font-size="10.00">(inductive)</text>
</g>
<!-- L4YAML.YamlToken -->
<g id="node3" class="node">
<title>L4YAML.YamlToken</title>
<polygon fill="#dce9f7" stroke="#4a90d9" points="1080.63,-620 1016.63,-620 1016.63,-584 1080.63,-584 1080.63,-620"/>
<text text-anchor="middle" x="1048.63" y="-605" font-family="Helvetica" font-size="10.00">YamlToken</text>
<text text-anchor="middle" x="1048.63" y="-594" font-family="Helvetica" font-size="10.00">(inductive)</text>
</g>
<!-- L4YAML.Scanner.ScannerState.tokens -->
<g id="node4" class="node">
<title>L4YAML.Scanner.ScannerState.tokens</title>
<polygon fill="#dce9f7" stroke="#4a90d9" points="1102.13,-566 995.13,-566 995.13,-530 1102.13,-530 1102.13,-566"/>
<text text-anchor="middle" x="1048.63" y="-551" font-family="Helvetica" font-size="10.00">ScannerState.tokens</text>
<text text-anchor="middle" x="1048.63" y="-540" font-family="Helvetica" font-size="10.00">(def)</text>
</g>
<!-- L4YAML.Proofs.ScannerCorrectness.ScanHelpers.scanAnchorOrAlias_preserves_prefix._proof_1 -->
<g id="node5" class="node">
<title>L4YAML.Proofs.ScannerCorrectness.ScanHelpers.scanAnchorOrAlias_preserves_prefix._proof_1</title>
<polygon fill="#fff3cd" stroke="#d4a017" points="930.29,-620.54 930.29,-635.46 753.77,-646 504.14,-646 327.62,-635.46 327.62,-620.54 504.14,-610 753.77,-610 930.29,-620.54"/>
<polygon fill="none" stroke="#d4a017" points="934.3,-616.78 934.3,-639.22 753.89,-650 504.02,-650 323.61,-639.22 323.61,-616.78 504.02,-606 753.89,-606 934.3,-616.78"/>
<text text-anchor="middle" x="628.96" y="-624.9" font-family="Helvetica" font-size="12.00">ScannerCorrectness.ScanHelpers.scanAnchorOrAlias_preserves_prefix._proof_1</text>
</g>
<!-- L4YAML.Proofs.ScannerCorrectness.ScanHelpers.scanAnchorOrAlias_preserves_prefix._proof_1&#45;&gt;L4YAML.Positioned -->
<g id="edge2" class="edge">
<title>L4YAML.Proofs.ScannerCorrectness.ScanHelpers.scanAnchorOrAlias_preserves_prefix._proof_1&#45;&gt;L4YAML.Positioned</title>
<path fill="none" stroke="#4a90d9" stroke-width="2" d="M742.16,-650.03C831.32,-667.53 950.63,-690.96 1010.32,-702.68"/>
<polygon fill="#4a90d9" stroke="#4a90d9" stroke-width="2" points="1009.95,-705.1 1017.29,-704.04 1010.9,-700.29 1009.95,-705.1"/>
<text text-anchor="middle" x="964.63" y="-696.6" font-family="Times-Roman" font-size="8.00" fill="#4a90d9">about</text>
</g>
<!-- L4YAML.Proofs.ScannerCorrectness.ScanHelpers.scanAnchorOrAlias_preserves_prefix._proof_1&#45;&gt;L4YAML.Scanner.ScannerState -->
<g id="edge4" class="edge">
<title>L4YAML.Proofs.ScannerCorrectness.ScanHelpers.scanAnchorOrAlias_preserves_prefix._proof_1&#45;&gt;L4YAML.Scanner.ScannerState</title>
<path fill="none" stroke="#4a90d9" stroke-width="2" d="M862,-643.56C916.16,-647.19 968.22,-650.68 1003.35,-653.03"/>
<polygon fill="#4a90d9" stroke="#4a90d9" stroke-width="2" points="1003.44,-655.49 1010.58,-653.52 1003.76,-650.6 1003.44,-655.49"/>
<text text-anchor="middle" x="964.63" y="-652.6" font-family="Times-Roman" font-size="8.00" fill="#4a90d9">about</text>
</g>
<!-- L4YAML.Proofs.ScannerCorrectness.ScanHelpers.scanAnchorOrAlias_preserves_prefix._proof_1&#45;&gt;L4YAML.YamlToken -->
<g id="edge3" class="edge">
<title>L4YAML.Proofs.ScannerCorrectness.ScanHelpers.scanAnchorOrAlias_preserves_prefix._proof_1&#45;&gt;L4YAML.YamlToken</title>
<path fill="none" stroke="#4a90d9" stroke-width="2" d="M871.1,-612.99C925.08,-609.63 976.1,-606.45 1009.28,-604.39"/>
<polygon fill="#4a90d9" stroke="#4a90d9" stroke-width="2" points="1009.66,-606.82 1016.5,-603.94 1009.36,-601.93 1009.66,-606.82"/>
<text text-anchor="middle" x="964.63" y="-609.6" font-family="Times-Roman" font-size="8.00" fill="#4a90d9">about</text>
</g>
<!-- L4YAML.Proofs.ScannerCorrectness.ScanHelpers.scanAnchorOrAlias_preserves_prefix._proof_1&#45;&gt;L4YAML.Scanner.ScannerState.tokens -->
<g id="edge1" class="edge">
<title>L4YAML.Proofs.ScannerCorrectness.ScanHelpers.scanAnchorOrAlias_preserves_prefix._proof_1&#45;&gt;L4YAML.Scanner.ScannerState.tokens</title>
<path fill="none" stroke="#4a90d9" stroke-width="2" d="M744.91,-605.98C823.62,-590.91 924.8,-571.53 987.93,-559.43"/>
<polygon fill="#4a90d9" stroke="#4a90d9" stroke-width="2" points="988.65,-561.79 995.06,-558.07 987.73,-556.98 988.65,-561.79"/>
<text text-anchor="middle" x="964.63" y="-567.6" font-family="Times-Roman" font-size="8.00" fill="#4a90d9">about</text>
</g>
<!-- Lean.Omega.Constraint.not_sat&#39;_of_isImpossible -->
<g id="node6" class="node">
<title>Lean.Omega.Constraint.not_sat&#39;_of_isImpossible</title>
<ellipse fill="#fdebd0" stroke="#e67e22" cx="151.39" cy="-1222" rx="135.29" ry="18"/>
<text text-anchor="middle" x="151.39" y="-1219.5" font-family="Helvetica" font-size="10.00">Lean.Omega.Constraint.not_sat&#39;_of_isImpossible</text>
</g>
<!-- Lean.Omega.Constraint.not_sat&#39;_of_isImpossible&#45;&gt;L4YAML.Proofs.ScannerCorrectness.ScanHelpers.scanAnchorOrAlias_preserves_prefix._proof_1 -->
<g id="edge5" class="edge">
<title>Lean.Omega.Constraint.not_sat&#39;_of_isImpossible&#45;&gt;L4YAML.Proofs.ScannerCorrectness.ScanHelpers.scanAnchorOrAlias_preserves_prefix._proof_1</title>
<path fill="none" stroke="#e67e22" stroke-width="2" d="M261.72,-1211.39C273.5,-1207.36 284.81,-1202.03 294.78,-1195 494.72,-1054.22 593.31,-752.15 620.19,-657.19"/>
<polygon fill="#e67e22" stroke="#e67e22" stroke-width="2" points="622.62,-657.6 622.15,-650.2 617.9,-656.28 622.62,-657.6"/>
</g>
<!-- Int.natCast_add -->
<g id="node7" class="node">
<title>Int.natCast_add</title>
<ellipse fill="#fdebd0" stroke="#e67e22" cx="151.39" cy="-1168" rx="50.07" ry="18"/>
<text text-anchor="middle" x="151.39" y="-1165.5" font-family="Helvetica" font-size="10.00">Int.natCast_add</text>
</g>
<!-- Int.natCast_add&#45;&gt;L4YAML.Proofs.ScannerCorrectness.ScanHelpers.scanAnchorOrAlias_preserves_prefix._proof_1 -->
<g id="edge6" class="edge">
<title>Int.natCast_add&#45;&gt;L4YAML.Proofs.ScannerCorrectness.ScanHelpers.scanAnchorOrAlias_preserves_prefix._proof_1</title>
<path fill="none" stroke="#e67e22" stroke-width="2" d="M201.51,-1168.11C230.77,-1166.01 267.42,-1159.37 294.78,-1141 481.95,-1015.39 587.78,-745.42 618.49,-656.82"/>
<polygon fill="#e67e22" stroke="#e67e22" stroke-width="2" points="620.87,-657.44 620.82,-650.03 616.23,-655.85 620.87,-657.44"/>
</g>
<!-- of_decide_eq_true -->
<g id="node8" class="node">
<title>of_decide_eq_true</title>
<ellipse fill="#fdebd0" stroke="#e67e22" cx="151.39" cy="-1114" rx="56.52" ry="18"/>
<text text-anchor="middle" x="151.39" y="-1111.5" font-family="Helvetica" font-size="10.00">of_decide_eq_true</text>
</g>
<!-- of_decide_eq_true&#45;&gt;L4YAML.Proofs.ScannerCorrectness.ScanHelpers.scanAnchorOrAlias_preserves_prefix._proof_1 -->
<g id="edge7" class="edge">
<title>of_decide_eq_true&#45;&gt;L4YAML.Proofs.ScannerCorrectness.ScanHelpers.scanAnchorOrAlias_preserves_prefix._proof_1</title>
<path fill="none" stroke="#e67e22" stroke-width="2" d="M207.97,-1113C235.86,-1110.23 269.07,-1103.3 294.78,-1087 469.29,-976.34 581.58,-738.67 616.39,-656.58"/>
<polygon fill="#e67e22" stroke="#e67e22" stroke-width="2" points="618.69,-657.44 619.14,-650.03 614.17,-655.54 618.69,-657.44"/>
</g>
<!-- le_of_le_of_eq -->
<g id="node9" class="node">
<title>le_of_le_of_eq</title>
<ellipse fill="#fdebd0" stroke="#e67e22" cx="151.39" cy="-1060" rx="47.19" ry="18"/>
<text text-anchor="middle" x="151.39" y="-1057.5" font-family="Helvetica" font-size="10.00">le_of_le_of_eq</text>
</g>
<!-- le_of_le_of_eq&#45;&gt;L4YAML.Proofs.ScannerCorrectness.ScanHelpers.scanAnchorOrAlias_preserves_prefix._proof_1 -->
<g id="edge8" class="edge">
<title>le_of_le_of_eq&#45;&gt;L4YAML.Proofs.ScannerCorrectness.ScanHelpers.scanAnchorOrAlias_preserves_prefix._proof_1</title>
<path fill="none" stroke="#e67e22" stroke-width="2" d="M198.5,-1059.19C227.84,-1056.83 265.67,-1050.25 294.78,-1033 456.74,-937.04 574.42,-731.9 613.69,-656.54"/>
<polygon fill="#e67e22" stroke="#e67e22" stroke-width="2" points="616,-657.42 617.04,-650.07 611.64,-655.17 616,-657.42"/>
</g>
<!-- Lean.Omega.Constraint.combine_sat&#39; -->
<g id="node10" class="node">
<title>Lean.Omega.Constraint.combine_sat&#39;</title>
<ellipse fill="#fdebd0" stroke="#e67e22" cx="151.39" cy="-1006" rx="105.92" ry="18"/>
<text text-anchor="middle" x="151.39" y="-1003.5" font-family="Helvetica" font-size="10.00">Lean.Omega.Constraint.combine_sat&#39;</text>
</g>
<!-- Lean.Omega.Constraint.combine_sat&#39;&#45;&gt;L4YAML.Proofs.ScannerCorrectness.ScanHelpers.scanAnchorOrAlias_preserves_prefix._proof_1 -->
<g id="edge9" class="edge">
<title>Lean.Omega.Constraint.combine_sat&#39;&#45;&gt;L4YAML.Proofs.ScannerCorrectness.ScanHelpers.scanAnchorOrAlias_preserves_prefix._proof_1</title>
<path fill="none" stroke="#e67e22" stroke-width="2" d="M244.56,-997.22C261.92,-993.19 279.43,-987.37 294.78,-979 444.48,-897.34 566.22,-724.55 610.25,-656.45"/>
<polygon fill="#e67e22" stroke="#e67e22" stroke-width="2" points="612.55,-657.41 614.27,-650.19 608.42,-654.76 612.55,-657.41"/>
</g>
<!-- Int.add_one_le_of_lt -->
<g id="node11" class="node">
<title>Int.add_one_le_of_lt</title>
<ellipse fill="#fdebd0" stroke="#e67e22" cx="151.39" cy="-952" rx="61.44" ry="18"/>
<text text-anchor="middle" x="151.39" y="-949.5" font-family="Helvetica" font-size="10.00">Int.add_one_le_of_lt</text>
</g>
<!-- Int.add_one_le_of_lt&#45;&gt;L4YAML.Proofs.ScannerCorrectness.ScanHelpers.scanAnchorOrAlias_preserves_prefix._proof_1 -->
<g id="edge10" class="edge">
<title>Int.add_one_le_of_lt&#45;&gt;L4YAML.Proofs.ScannerCorrectness.ScanHelpers.scanAnchorOrAlias_preserves_prefix._proof_1</title>
<path fill="none" stroke="#e67e22" stroke-width="2" d="M211.12,-948.04C237.73,-944.48 268.94,-937.73 294.78,-925 432.83,-857 557.2,-715.77 606.03,-655.85"/>
<polygon fill="#e67e22" stroke="#e67e22" stroke-width="2" points="608.02,-657.29 610.52,-650.31 604.21,-654.2 608.02,-657.29"/>
</g>
<!-- Lean.Omega.Int.add_congr -->
<g id="node12" class="node">
<title>Lean.Omega.Int.add_congr</title>
<ellipse fill="#fdebd0" stroke="#e67e22" cx="151.39" cy="-898" rx="78.76" ry="18"/>
<text text-anchor="middle" x="151.39" y="-895.5" font-family="Helvetica" font-size="10.00">Lean.Omega.Int.add_congr</text>
</g>
<!-- Lean.Omega.Int.add_congr&#45;&gt;L4YAML.Proofs.ScannerCorrectness.ScanHelpers.scanAnchorOrAlias_preserves_prefix._proof_1 -->
<g id="edge11" class="edge">
<title>Lean.Omega.Int.add_congr&#45;&gt;L4YAML.Proofs.ScannerCorrectness.ScanHelpers.scanAnchorOrAlias_preserves_prefix._proof_1</title>
<path fill="none" stroke="#e67e22" stroke-width="2" d="M223.76,-890.79C247.06,-886.8 272.62,-880.6 294.78,-871 421.18,-816.25 545.77,-706.55 599.88,-655.41"/>
<polygon fill="#e67e22" stroke="#e67e22" stroke-width="2" points="601.81,-656.95 605.2,-650.35 598.44,-653.4 601.81,-656.95"/>
</g>
<!-- Lean.Omega.LinearCombo.coordinate_eval_2 -->
<g id="node13" class="node">
<title>Lean.Omega.LinearCombo.coordinate_eval_2</title>
<ellipse fill="#fdebd0" stroke="#e67e22" cx="151.39" cy="-844" rx="125.95" ry="18"/>
<text text-anchor="middle" x="151.39" y="-841.5" font-family="Helvetica" font-size="10.00">Lean.Omega.LinearCombo.coordinate_eval_2</text>
</g>
<!-- Lean.Omega.LinearCombo.coordinate_eval_2&#45;&gt;L4YAML.Proofs.ScannerCorrectness.ScanHelpers.scanAnchorOrAlias_preserves_prefix._proof_1 -->
<g id="edge12" class="edge">
<title>Lean.Omega.LinearCombo.coordinate_eval_2&#45;&gt;L4YAML.Proofs.ScannerCorrectness.ScanHelpers.scanAnchorOrAlias_preserves_prefix._proof_1</title>
<path fill="none" stroke="#e67e22" stroke-width="2" d="M242.48,-831.56C260.11,-827.84 278.25,-823.07 294.78,-817 409.77,-774.81 531.75,-695.5 591.15,-654.32"/>
<polygon fill="#e67e22" stroke="#e67e22" stroke-width="2" points="592.7,-656.23 597.04,-650.22 589.9,-652.21 592.7,-656.23"/>
</g>
<!-- Lean.Omega.combo_sat&#39; -->
<g id="node14" class="node">
<title>Lean.Omega.combo_sat&#39;</title>
<ellipse fill="#fdebd0" stroke="#e67e22" cx="151.39" cy="-790" rx="73.67" ry="18"/>
<text text-anchor="middle" x="151.39" y="-787.5" font-family="Helvetica" font-size="10.00">Lean.Omega.combo_sat&#39;</text>
</g>
<!-- Lean.Omega.combo_sat&#39;&#45;&gt;L4YAML.Proofs.ScannerCorrectness.ScanHelpers.scanAnchorOrAlias_preserves_prefix._proof_1 -->
<g id="edge13" class="edge">
<title>Lean.Omega.combo_sat&#39;&#45;&gt;L4YAML.Proofs.ScannerCorrectness.ScanHelpers.scanAnchorOrAlias_preserves_prefix._proof_1</title>
<path fill="none" stroke="#e67e22" stroke-width="2" d="M215.06,-780.87C240.12,-776.51 269.08,-770.56 294.78,-763 396.81,-732.98 510.62,-683.11 575.33,-653.12"/>
<polygon fill="#e67e22" stroke="#e67e22" stroke-width="2" points="576.51,-655.27 581.82,-650.1 574.44,-650.83 576.51,-655.27"/>
</g>
<!-- Int.sub_nonneg_of_le -->
<g id="node15" class="node">
<title>Int.sub_nonneg_of_le</title>
<ellipse fill="#fdebd0" stroke="#e67e22" cx="151.39" cy="-736" rx="64.33" ry="18"/>
<text text-anchor="middle" x="151.39" y="-733.5" font-family="Helvetica" font-size="10.00">Int.sub_nonneg_of_le</text>
</g>
<!-- Int.sub_nonneg_of_le&#45;&gt;L4YAML.Proofs.ScannerCorrectness.ScanHelpers.scanAnchorOrAlias_preserves_prefix._proof_1 -->
<g id="edge14" class="edge">
<title>Int.sub_nonneg_of_le&#45;&gt;L4YAML.Proofs.ScannerCorrectness.ScanHelpers.scanAnchorOrAlias_preserves_prefix._proof_1</title>
<path fill="none" stroke="#e67e22" stroke-width="2" d="M205.94,-726.52C232.69,-721.61 265.52,-715.33 294.78,-709 376.46,-691.34 468.75,-668.69 535.45,-651.83"/>
<polygon fill="#e67e22" stroke="#e67e22" stroke-width="2" points="536.45,-654.11 542.64,-650.02 535.25,-649.36 536.45,-654.11"/>
</g>
<!-- Lean.Omega.Int.sub_congr -->
<g id="node16" class="node">
<title>Lean.Omega.Int.sub_congr</title>
<ellipse fill="#fdebd0" stroke="#e67e22" cx="151.39" cy="-682" rx="78.76" ry="18"/>
<text text-anchor="middle" x="151.39" y="-679.5" font-family="Helvetica" font-size="10.00">Lean.Omega.Int.sub_congr</text>
</g>
<!-- Lean.Omega.Int.sub_congr&#45;&gt;L4YAML.Proofs.ScannerCorrectness.ScanHelpers.scanAnchorOrAlias_preserves_prefix._proof_1 -->
<g id="edge15" class="edge">
<title>Lean.Omega.Int.sub_congr&#45;&gt;L4YAML.Proofs.ScannerCorrectness.ScanHelpers.scanAnchorOrAlias_preserves_prefix._proof_1</title>
<path fill="none" stroke="#e67e22" stroke-width="2" d="M222.31,-674.06C282.33,-667.25 371.48,-657.12 450.93,-648.1"/>
<polygon fill="#e67e22" stroke="#e67e22" stroke-width="2" points="451.42,-650.51 458.1,-647.29 450.86,-645.64 451.42,-650.51"/>
</g>
<!-- Lean.Omega.tidy_sat -->
<g id="node17" class="node">
<title>Lean.Omega.tidy_sat</title>
<ellipse fill="#fdebd0" stroke="#e67e22" cx="151.39" cy="-628" rx="64.51" ry="18"/>
<text text-anchor="middle" x="151.39" y="-625.5" font-family="Helvetica" font-size="10.00">Lean.Omega.tidy_sat</text>
</g>
<!-- Lean.Omega.tidy_sat&#45;&gt;L4YAML.Proofs.ScannerCorrectness.ScanHelpers.scanAnchorOrAlias_preserves_prefix._proof_1 -->
<g id="edge16" class="edge">
<title>Lean.Omega.tidy_sat&#45;&gt;L4YAML.Proofs.ScannerCorrectness.ScanHelpers.scanAnchorOrAlias_preserves_prefix._proof_1</title>
<path fill="none" stroke="#e67e22" stroke-width="2" d="M216.53,-628C244.33,-628 279.11,-628 316.58,-628"/>
<polygon fill="#e67e22" stroke="#e67e22" stroke-width="2" points="316.61,-630.45 323.61,-628 316.61,-625.55 316.61,-630.45"/>
</g>
<!-- Lean.Omega.LinearCombo.coordinate_eval_0 -->
<g id="node18" class="node">
<title>Lean.Omega.LinearCombo.coordinate_eval_0</title>
<ellipse fill="#fdebd0" stroke="#e67e22" cx="151.39" cy="-574" rx="125.95" ry="18"/>
<text text-anchor="middle" x="151.39" y="-571.5" font-family="Helvetica" font-size="10.00">Lean.Omega.LinearCombo.coordinate_eval_0</text>
</g>
<!-- Lean.Omega.LinearCombo.coordinate_eval_0&#45;&gt;L4YAML.Proofs.ScannerCorrectness.ScanHelpers.scanAnchorOrAlias_preserves_prefix._proof_1 -->
<g id="edge17" class="edge">
<title>Lean.Omega.LinearCombo.coordinate_eval_0&#45;&gt;L4YAML.Proofs.ScannerCorrectness.ScanHelpers.scanAnchorOrAlias_preserves_prefix._proof_1</title>
<path fill="none" stroke="#e67e22" stroke-width="2" d="M250.64,-585.16C308.49,-591.72 383.39,-600.23 451.19,-607.93"/>
<polygon fill="#e67e22" stroke="#e67e22" stroke-width="2" points="450.92,-610.36 458.15,-608.72 451.47,-605.49 450.92,-610.36"/>
</g>
<!-- Lean.Omega.Constraint.addEquality_sat -->
<g id="node19" class="node">
<title>Lean.Omega.Constraint.addEquality_sat</title>
<ellipse fill="#fdebd0" stroke="#e67e22" cx="151.39" cy="-520" rx="113.05" ry="18"/>
<text text-anchor="middle" x="151.39" y="-517.5" font-family="Helvetica" font-size="10.00">Lean.Omega.Constraint.addEquality_sat</text>
</g>
<!-- Lean.Omega.Constraint.addEquality_sat&#45;&gt;L4YAML.Proofs.ScannerCorrectness.ScanHelpers.scanAnchorOrAlias_preserves_prefix._proof_1 -->
<g id="edge18" class="edge">
<title>Lean.Omega.Constraint.addEquality_sat&#45;&gt;L4YAML.Proofs.ScannerCorrectness.ScanHelpers.scanAnchorOrAlias_preserves_prefix._proof_1</title>
<path fill="none" stroke="#e67e22" stroke-width="2" d="M253.27,-527.97C268.06,-532.21 282.44,-538.31 294.78,-547 301.95,-552.04 297.64,-558.93 304.78,-564 334.41,-585.03 369.23,-599.56 404.84,-609.53"/>
<polygon fill="#e67e22" stroke="#e67e22" stroke-width="2" points="404.57,-611.99 411.97,-611.46 405.85,-607.26 404.57,-611.99"/>
</g>
<!-- Lean.Omega.LinearCombo.add_eval -->
<g id="node20" class="node">
<title>Lean.Omega.LinearCombo.add_eval</title>
<ellipse fill="#fdebd0" stroke="#e67e22" cx="151.39" cy="-466" rx="102.35" ry="18"/>
<text text-anchor="middle" x="151.39" y="-463.5" font-family="Helvetica" font-size="10.00">Lean.Omega.LinearCombo.add_eval</text>
</g>
<!-- Lean.Omega.LinearCombo.add_eval&#45;&gt;L4YAML.Proofs.ScannerCorrectness.ScanHelpers.scanAnchorOrAlias_preserves_prefix._proof_1 -->
<g id="edge19" class="edge">
<title>Lean.Omega.LinearCombo.add_eval&#45;&gt;L4YAML.Proofs.ScannerCorrectness.ScanHelpers.scanAnchorOrAlias_preserves_prefix._proof_1</title>
<path fill="none" stroke="#e67e22" stroke-width="2" d="M251.93,-469.55C267.85,-474.16 282.95,-481.53 294.78,-493 309.5,-507.26 290.69,-523.13 304.78,-538 337.83,-572.84 383.11,-594.57 429.31,-608.03"/>
<polygon fill="#e67e22" stroke="#e67e22" stroke-width="2" points="428.73,-610.41 436.13,-609.96 430.06,-605.7 428.73,-610.41"/>
</g>
<!-- Lean.Omega.LinearCombo.sub_eval -->
<g id="node21" class="node">
<title>Lean.Omega.LinearCombo.sub_eval</title>
<ellipse fill="#fdebd0" stroke="#e67e22" cx="151.39" cy="-412" rx="102.35" ry="18"/>
<text text-anchor="middle" x="151.39" y="-409.5" font-family="Helvetica" font-size="10.00">Lean.Omega.LinearCombo.sub_eval</text>
</g>
<!-- Lean.Omega.LinearCombo.sub_eval&#45;&gt;L4YAML.Proofs.ScannerCorrectness.ScanHelpers.scanAnchorOrAlias_preserves_prefix._proof_1 -->
<g id="edge20" class="edge">
<title>Lean.Omega.LinearCombo.sub_eval&#45;&gt;L4YAML.Proofs.ScannerCorrectness.ScanHelpers.scanAnchorOrAlias_preserves_prefix._proof_1</title>
<path fill="none" stroke="#e67e22" stroke-width="2" d="M252.73,-414.75C268.57,-419.45 283.43,-427.05 294.78,-439 317.34,-462.74 284.16,-486.56 304.78,-512 344.72,-561.27 407.29,-589.62 466.77,-605.94"/>
<polygon fill="#e67e22" stroke="#e67e22" stroke-width="2" points="466.24,-608.33 473.64,-607.77 467.5,-603.6 466.24,-608.33"/>
</g>
<!-- Lean.Omega.Int.ofNat_lt_of_lt -->
<g id="node22" class="node">
<title>Lean.Omega.Int.ofNat_lt_of_lt</title>
<ellipse fill="#fdebd0" stroke="#e67e22" cx="151.39" cy="-358" rx="86.57" ry="18"/>
<text text-anchor="middle" x="151.39" y="-355.5" font-family="Helvetica" font-size="10.00">Lean.Omega.Int.ofNat_lt_of_lt</text>
</g>
<!-- Lean.Omega.Int.ofNat_lt_of_lt&#45;&gt;L4YAML.Proofs.ScannerCorrectness.ScanHelpers.scanAnchorOrAlias_preserves_prefix._proof_1 -->
<g id="edge21" class="edge">
<title>Lean.Omega.Int.ofNat_lt_of_lt&#45;&gt;L4YAML.Proofs.ScannerCorrectness.ScanHelpers.scanAnchorOrAlias_preserves_prefix._proof_1</title>
<path fill="none" stroke="#e67e22" stroke-width="2" d="M238.02,-356.82C259.28,-360.78 280.15,-369.06 294.78,-385 309.59,-401.13 291.97,-465.25 304.78,-483 351.25,-547.35 433.01,-583.67 502.66,-603.87"/>
<polygon fill="#e67e22" stroke="#e67e22" stroke-width="2" points="502.39,-606.34 509.79,-605.89 503.73,-601.62 502.39,-606.34"/>
</g>
<!-- Lean.Omega.Int.ofNat_le_of_le -->
<g id="node23" class="node">
<title>Lean.Omega.Int.ofNat_le_of_le</title>
<ellipse fill="#fdebd0" stroke="#e67e22" cx="151.39" cy="-304" rx="89.45" ry="18"/>
<text text-anchor="middle" x="151.39" y="-301.5" font-family="Helvetica" font-size="10.00">Lean.Omega.Int.ofNat_le_of_le</text>
</g>
<!-- Lean.Omega.Int.ofNat_le_of_le&#45;&gt;L4YAML.Proofs.ScannerCorrectness.ScanHelpers.scanAnchorOrAlias_preserves_prefix._proof_1 -->
<g id="edge22" class="edge">
<title>Lean.Omega.Int.ofNat_le_of_le&#45;&gt;L4YAML.Proofs.ScannerCorrectness.ScanHelpers.scanAnchorOrAlias_preserves_prefix._proof_1</title>
<path fill="none" stroke="#e67e22" stroke-width="2" d="M240.78,-303.16C261.14,-307.31 280.88,-315.59 294.78,-331 312.27,-350.37 290.62,-426.09 304.78,-448 357.84,-530.06 461.99,-578.16 537.76,-603.68"/>
<polygon fill="#e67e22" stroke="#e67e22" stroke-width="2" points="537.13,-606.05 544.54,-605.93 538.67,-601.4 537.13,-606.05"/>
</g>
<!-- Lean.Omega.Int.ofNat_congr -->
<g id="node24" class="node">
<title>Lean.Omega.Int.ofNat_congr</title>
<ellipse fill="#fdebd0" stroke="#e67e22" cx="151.39" cy="-250" rx="83.68" ry="18"/>
<text text-anchor="middle" x="151.39" y="-247.5" font-family="Helvetica" font-size="10.00">Lean.Omega.Int.ofNat_congr</text>
</g>
<!-- Lean.Omega.Int.ofNat_congr&#45;&gt;L4YAML.Proofs.ScannerCorrectness.ScanHelpers.scanAnchorOrAlias_preserves_prefix._proof_1 -->
<g id="edge23" class="edge">
<title>Lean.Omega.Int.ofNat_congr&#45;&gt;L4YAML.Proofs.ScannerCorrectness.ScanHelpers.scanAnchorOrAlias_preserves_prefix._proof_1</title>
<path fill="none" stroke="#e67e22" stroke-width="2" d="M234.54,-247.95C257.08,-251.62 279.49,-259.96 294.78,-277 313.54,-297.91 290.81,-378.64 304.78,-403 362.66,-503.87 486.32,-570.04 562.78,-603.08"/>
<polygon fill="#e67e22" stroke="#e67e22" stroke-width="2" points="562.18,-605.48 569.58,-605.98 564.1,-600.98 562.18,-605.48"/>
</g>
<!-- Lean.Omega.Constraint.addInequality_sat -->
<g id="node25" class="node">
<title>Lean.Omega.Constraint.addInequality_sat</title>
<ellipse fill="#fdebd0" stroke="#e67e22" cx="151.39" cy="-196" rx="117.29" ry="18"/>
<text text-anchor="middle" x="151.39" y="-193.5" font-family="Helvetica" font-size="10.00">Lean.Omega.Constraint.addInequality_sat</text>
</g>
<!-- Lean.Omega.Constraint.addInequality_sat&#45;&gt;L4YAML.Proofs.ScannerCorrectness.ScanHelpers.scanAnchorOrAlias_preserves_prefix._proof_1 -->
<g id="edge24" class="edge">
<title>Lean.Omega.Constraint.addInequality_sat&#45;&gt;L4YAML.Proofs.ScannerCorrectness.ScanHelpers.scanAnchorOrAlias_preserves_prefix._proof_1</title>
<path fill="none" stroke="#e67e22" stroke-width="2" d="M262.83,-201.62C274.93,-206.42 286.01,-213.29 294.78,-223 311.99,-242.03 293.33,-315.05 304.78,-338 367.06,-462.72 507.99,-558.57 581.45,-602.19"/>
<polygon fill="#e67e22" stroke="#e67e22" stroke-width="2" points="580.64,-604.55 587.91,-605.99 583.12,-600.33 580.64,-604.55"/>
</g>
<!-- Nat.le_of_not_lt -->
<g id="node26" class="node">
<title>Nat.le_of_not_lt</title>
<ellipse fill="#fdebd0" stroke="#e67e22" cx="151.39" cy="-142" rx="50.07" ry="18"/>
<text text-anchor="middle" x="151.39" y="-139.5" font-family="Helvetica" font-size="10.00">Nat.le_of_not_lt</text>
</g>
<!-- Nat.le_of_not_lt&#45;&gt;L4YAML.Proofs.ScannerCorrectness.ScanHelpers.scanAnchorOrAlias_preserves_prefix._proof_1 -->
<g id="edge25" class="edge">
<title>Nat.le_of_not_lt&#45;&gt;L4YAML.Proofs.ScannerCorrectness.ScanHelpers.scanAnchorOrAlias_preserves_prefix._proof_1</title>
<path fill="none" stroke="#e67e22" stroke-width="2" d="M200.21,-138.02C231.43,-138.2 270.72,-144.14 294.78,-169 314.81,-189.68 293.04,-206.72 304.78,-233 376.35,-393.11 530.45,-541.77 596.67,-600.97"/>
<polygon fill="#e67e22" stroke="#e67e22" stroke-width="2" points="595.18,-602.92 602.04,-605.75 598.44,-599.26 595.18,-602.92"/>
</g>
<!-- Int.sub_eq_zero_of_eq -->
<g id="node27" class="node">
<title>Int.sub_eq_zero_of_eq</title>
<ellipse fill="#fdebd0" stroke="#e67e22" cx="151.39" cy="-88" rx="67.22" ry="18"/>
<text text-anchor="middle" x="151.39" y="-85.5" font-family="Helvetica" font-size="10.00">Int.sub_eq_zero_of_eq</text>
</g>
<!-- Int.sub_eq_zero_of_eq&#45;&gt;L4YAML.Proofs.ScannerCorrectness.ScanHelpers.scanAnchorOrAlias_preserves_prefix._proof_1 -->
<g id="edge26" class="edge">
<title>Int.sub_eq_zero_of_eq&#45;&gt;L4YAML.Proofs.ScannerCorrectness.ScanHelpers.scanAnchorOrAlias_preserves_prefix._proof_1</title>
<path fill="none" stroke="#e67e22" stroke-width="2" d="M218.59,-89.59C244.15,-92.89 272.53,-100.07 294.78,-115 481.95,-240.61 587.78,-510.58 618.49,-599.18"/>
<polygon fill="#e67e22" stroke="#e67e22" stroke-width="2" points="616.23,-600.15 620.82,-605.97 620.87,-598.56 616.23,-600.15"/>
</g>
<!-- Lean.Omega.LinearCombo.coordinate_eval_1 -->
<g id="node28" class="node">
<title>Lean.Omega.LinearCombo.coordinate_eval_1</title>
<ellipse fill="#fdebd0" stroke="#e67e22" cx="151.39" cy="-34" rx="125.95" ry="18"/>
<text text-anchor="middle" x="151.39" y="-31.5" font-family="Helvetica" font-size="10.00">Lean.Omega.LinearCombo.coordinate_eval_1</text>
</g>
<!-- Lean.Omega.LinearCombo.coordinate_eval_1&#45;&gt;L4YAML.Proofs.ScannerCorrectness.ScanHelpers.scanAnchorOrAlias_preserves_prefix._proof_1 -->
<g id="edge27" class="edge">
<title>Lean.Omega.LinearCombo.coordinate_eval_1&#45;&gt;L4YAML.Proofs.ScannerCorrectness.ScanHelpers.scanAnchorOrAlias_preserves_prefix._proof_1</title>
<path fill="none" stroke="#e67e22" stroke-width="2" d="M258.43,-43.52C271.39,-47.67 283.88,-53.32 294.78,-61 494.72,-201.78 593.31,-503.85 620.19,-598.81"/>
<polygon fill="#e67e22" stroke="#e67e22" stroke-width="2" points="617.9,-599.72 622.15,-605.8 622.62,-598.4 617.9,-599.72"/>
</g>
</g>
</svg>
