<?xml version="1.0" encoding="UTF-8" standalone="no"?>
<!DOCTYPE svg PUBLIC "-//W3C//DTD SVG 1.1//EN"
 "http://www.w3.org/Graphics/SVG/1.1/DTD/svg11.dtd">
<!-- Generated by graphviz version 2.44.0 (0)
 -->
<!-- Title: ScannerCorrectness.saveSimpleKey_preserves_simpleKeyStack Pages: 1 -->
<svg width="744pt" height="310pt"
 viewBox="0.00 0.00 744.40 310.00" xmlns="http://www.w3.org/2000/svg" xmlns:xlink="http://www.w3.org/1999/xlink">
<g id="graph0" class="graph" transform="scale(1 1) rotate(0) translate(4 306)">
<title>ScannerCorrectness.saveSimpleKey_preserves_simpleKeyStack</title>
<polygon fill="white" stroke="transparent" points="-4,4 -4,-306 740.4,-306 740.4,4 -4,4"/>
<text text-anchor="middle" x="368.2" y="-287.6" font-family="Helvetica Bold" font-size="13.00">ScannerCorrectness.saveSimpleKey_preserves_simpleKeyStack</text>
<text text-anchor="middle" x="368.2" y="-273.6" font-family="Helvetica Bold" font-size="13.00">(heuristic: used by 8 proofs)</text>
<text text-anchor="middle" x="368.2" y="-259.6" font-family="Helvetica Bold" font-size="13.00">(L4YAML.Proofs.ScannerCorrectness)</text>
<g id="clust1" class="cluster">
<title>cluster_functions</title>
<polygon fill="none" stroke="#4a90d9" stroke-dasharray="5,2" points="563.4,-8 563.4,-244 728.4,-244 728.4,-8 563.4,-8"/>
<text text-anchor="middle" x="645.9" y="-229.6" font-family="Helvetica Bold" font-size="13.00" fill="#4a90d9">Functions</text>
</g>
<g id="clust2" class="cluster">
<title>cluster_key</title>
<polygon fill="none" stroke="#d4a017" stroke-dasharray="5,2" points="8,-84 8,-166 518.4,-166 518.4,-84 8,-84"/>
<text text-anchor="middle" x="263.2" y="-151.6" font-family="Helvetica Bold" font-size="13.00" fill="#d4a017">Key Theorem</text>
</g>
<!-- L4YAML.Scanner.ScannerState -->
<g id="node1" class="node">
<title>L4YAML.Scanner.ScannerState</title>
<polygon fill="#dce9f7" stroke="#4a90d9" points="683.9,-214 607.9,-214 607.9,-178 683.9,-178 683.9,-214"/>
<text text-anchor="middle" x="645.9" y="-199" font-family="Helvetica" font-size="10.00">ScannerState</text>
<text text-anchor="middle" x="645.9" y="-188" font-family="Helvetica" font-size="10.00">(inductive)</text>
</g>
<!-- L4YAML.Scanner.ScannerState.simpleKeyStack -->
<g id="node2" class="node">
<title>L4YAML.Scanner.ScannerState.simpleKeyStack</title>
<polygon fill="#dce9f7" stroke="#4a90d9" points="720.4,-160 571.4,-160 571.4,-124 720.4,-124 720.4,-160"/>
<text text-anchor="middle" x="645.9" y="-145" font-family="Helvetica" font-size="10.00">ScannerState.simpleKeyStack</text>
<text text-anchor="middle" x="645.9" y="-134" font-family="Helvetica" font-size="10.00">(def)</text>
</g>
<!-- L4YAML.Scanner.saveSimpleKey -->
<g id="node3" class="node">
<title>L4YAML.Scanner.saveSimpleKey</title>
<polygon fill="#dce9f7" stroke="#4a90d9" points="687.4,-106 604.4,-106 604.4,-70 687.4,-70 687.4,-106"/>
<text text-anchor="middle" x="645.9" y="-91" font-family="Helvetica" font-size="10.00">saveSimpleKey</text>
<text text-anchor="middle" x="645.9" y="-80" font-family="Helvetica" font-size="10.00">(def)</text>
</g>
<!-- L4YAML.Scanner.SimpleKeyState -->
<g id="node4" class="node">
<title>L4YAML.Scanner.SimpleKeyState</title>
<polygon fill="#dce9f7" stroke="#4a90d9" points="688.9,-52 602.9,-52 602.9,-16 688.9,-16 688.9,-52"/>
<text text-anchor="middle" x="645.9" y="-37" font-family="Helvetica" font-size="10.00">SimpleKeyState</text>
<text text-anchor="middle" x="645.9" y="-26" font-family="Helvetica" font-size="10.00">(inductive)</text>
</g>
<!-- L4YAML.Proofs.ScannerCorrectness.saveSimpleKey_preserves_simpleKeyStack -->
<g id="node5" class="node">
<title>L4YAML.Proofs.ScannerCorrectness.saveSimpleKey_preserves_simpleKeyStack</title>
<polygon fill="#fff3cd" stroke="#d4a017" points="506.6,-106.54 506.6,-121.46 364.02,-132 162.38,-132 19.8,-121.46 19.8,-106.54 162.38,-96 364.02,-96 506.6,-106.54"/>
<polygon fill="none" stroke="#d4a017" points="510.61,-102.83 510.61,-125.17 364.17,-136 162.23,-136 15.8,-125.17 15.8,-102.83 162.23,-92 364.17,-92 510.61,-102.83"/>
<text text-anchor="middle" x="263.2" y="-110.9" font-family="Helvetica" font-size="12.00">ScannerCorrectness.saveSimpleKey_preserves_simpleKeyStack</text>
</g>
<!-- L4YAML.Proofs.ScannerCorrectness.saveSimpleKey_preserves_simpleKeyStack&#45;&gt;L4YAML.Scanner.ScannerState -->
<g id="edge3" class="edge">
<title>L4YAML.Proofs.ScannerCorrectness.saveSimpleKey_preserves_simpleKeyStack&#45;&gt;L4YAML.Scanner.ScannerState</title>
<path fill="none" stroke="#4a90d9" stroke-width="2" d="M366.22,-135.97C442.68,-152.44 543.58,-174.17 600.62,-186.46"/>
<polygon fill="#4a90d9" stroke="#4a90d9" stroke-width="2" points="600.33,-188.91 607.69,-187.98 601.36,-184.12 600.33,-188.91"/>
<text text-anchor="middle" x="540.9" y="-178.6" font-family="Times-Roman" font-size="8.00" fill="#4a90d9">about</text>
</g>
<!-- L4YAML.Proofs.ScannerCorrectness.saveSimpleKey_preserves_simpleKeyStack&#45;&gt;L4YAML.Scanner.ScannerState.simpleKeyStack -->
<g id="edge1" class="edge">
<title>L4YAML.Proofs.ScannerCorrectness.saveSimpleKey_preserves_simpleKeyStack&#45;&gt;L4YAML.Scanner.ScannerState.simpleKeyStack</title>
<path fill="none" stroke="#4a90d9" stroke-width="2" d="M463.75,-128.68C499.36,-131.3 534.53,-133.88 564.27,-136.07"/>
<polygon fill="#4a90d9" stroke="#4a90d9" stroke-width="2" points="564.16,-138.52 571.32,-136.59 564.52,-133.63 564.16,-138.52"/>
<text text-anchor="middle" x="540.9" y="-137.6" font-family="Times-Roman" font-size="8.00" fill="#4a90d9">about</text>
</g>
<!-- L4YAML.Proofs.ScannerCorrectness.saveSimpleKey_preserves_simpleKeyStack&#45;&gt;L4YAML.Scanner.saveSimpleKey -->
<g id="edge2" class="edge">
<title>L4YAML.Proofs.ScannerCorrectness.saveSimpleKey_preserves_simpleKeyStack&#45;&gt;L4YAML.Scanner.saveSimpleKey</title>
<path fill="none" stroke="#4a90d9" stroke-width="2" d="M470.99,-99.88C518.22,-96.65 564.1,-93.52 596.86,-91.28"/>
<polygon fill="#4a90d9" stroke="#4a90d9" stroke-width="2" points="597.25,-93.71 604.07,-90.79 596.92,-88.82 597.25,-93.71"/>
<text text-anchor="middle" x="540.9" y="-97.6" font-family="Times-Roman" font-size="8.00" fill="#4a90d9">about</text>
</g>
<!-- L4YAML.Proofs.ScannerCorrectness.saveSimpleKey_preserves_simpleKeyStack&#45;&gt;L4YAML.Scanner.SimpleKeyState -->
<g id="edge4" class="edge">
<title>L4YAML.Proofs.ScannerCorrectness.saveSimpleKey_preserves_simpleKeyStack&#45;&gt;L4YAML.Scanner.SimpleKeyState</title>
<path fill="none" stroke="#4a90d9" stroke-width="2" d="M367.73,-92.25C441.84,-76.67 538.31,-56.4 595.7,-44.34"/>
<polygon fill="#4a90d9" stroke="#4a90d9" stroke-width="2" points="596.5,-46.68 602.84,-42.84 595.49,-41.88 596.5,-46.68"/>
<text text-anchor="middle" x="540.9" y="-59.6" font-family="Times-Roman" font-size="8.00" fill="#4a90d9">about</text>
</g>
</g>
</svg>
