<?xml version="1.0" encoding="UTF-8" standalone="no"?>
<!DOCTYPE svg PUBLIC "-//W3C//DTD SVG 1.1//EN"
 "http://www.w3.org/Graphics/SVG/1.1/DTD/svg11.dtd">
<!-- Generated by graphviz version 2.44.0 (0)
 -->
<!-- Title: ScannerCorrectness.SimpleKeyStackValid_mono Pages: 1 -->
<svg width="1121pt" height="953pt"
 viewBox="0.00 0.00 1121.27 953.45" xmlns="http://www.w3.org/2000/svg" xmlns:xlink="http://www.w3.org/1999/xlink">
<g id="graph0" class="graph" transform="scale(1 1) rotate(0) translate(4 949.45)">
<title>ScannerCorrectness.SimpleKeyStackValid_mono</title>
<polygon fill="white" stroke="transparent" points="-4,4 -4,-949.45 1117.27,-949.45 1117.27,4 -4,4"/>
<text text-anchor="middle" x="556.64" y="-931.05" font-family="Helvetica Bold" font-size="13.00">ScannerCorrectness.SimpleKeyStackValid_mono</text>
<text text-anchor="middle" x="556.64" y="-917.05" font-family="Helvetica Bold" font-size="13.00">(heuristic: used by 6 proofs)</text>
<text text-anchor="middle" x="556.64" y="-903.05" font-family="Helvetica Bold" font-size="13.00">(L4YAML.Proofs.ScannerCorrectness)</text>
<g id="clust1" class="cluster">
<title>cluster_functions</title>
<polygon fill="none" stroke="#4a90d9" stroke-dasharray="5,2" points="566.54,-343 566.54,-741 1105.27,-741 1105.27,-343 566.54,-343"/>
<text text-anchor="middle" x="835.91" y="-726.6" font-family="Helvetica Bold" font-size="13.00" fill="#4a90d9">Functions</text>
</g>
<g id="clust2" class="cluster">
<title>cluster_key</title>
<polygon fill="none" stroke="#d4a017" stroke-dasharray="5,2" points="443.81,-129 443.81,-211 842.27,-211 842.27,-129 443.81,-129"/>
<text text-anchor="middle" x="643.04" y="-196.6" font-family="Helvetica Bold" font-size="13.00" fill="#d4a017">Key Theorem</text>
</g>
<g id="clust3" class="cluster">
<title>cluster_proofs</title>
<polygon fill="none" stroke="#28a745" stroke-dasharray="5,2" points="8,-444 8,-644 422.81,-644 422.81,-444 8,-444"/>
<text text-anchor="middle" x="215.4" y="-629.6" font-family="Helvetica Bold" font-size="13.00" fill="#28a745">Proof Dependencies</text>
</g>
<g id="clust4" class="cluster">
<title>cluster_stdlib</title>
<polygon fill="none" stroke="#e67e22" stroke-dasharray="5,2" points="120.87,-8 120.87,-244 309.94,-244 309.94,-8 120.87,-8"/>
<text text-anchor="middle" x="215.4" y="-229.6" font-family="Helvetica Bold" font-size="13.00" fill="#e67e22">Stdlib Lemmas</text>
</g>
<!-- L4YAML.Positioned -->
<g id="node1" class="node">
<title>L4YAML.Positioned</title>
<g id="a_node1"><a xlink:href="../../../api/L4YAML/Token.html#L4YAML.Positioned" xlink:title="Positioned\n(inductive)" target="_blank">
<polygon fill="#dce9f7" stroke="#4a90d9" points="1027.27,-603 965.27,-603 965.27,-567 1027.27,-567 1027.27,-603"/>
<text text-anchor="middle" x="996.27" y="-588" font-family="Helvetica" font-size="10.00">Positioned</text>
<text text-anchor="middle" x="996.27" y="-577" font-family="Helvetica" font-size="10.00">(inductive)</text>
</a>
</g>
</g>
<!-- L4YAML.Scanner.SimpleKeyState.tokenIndex -->
<g id="node2" class="node">
<title>L4YAML.Scanner.SimpleKeyState.tokenIndex</title>
<g id="a_node2"><a xlink:href="../../../api/L4YAML/Scanner.html#L4YAML.Scanner.SimpleKeyState.tokenIndex" xlink:title="SimpleKeyState.tokenIndex\n(def)" target="_blank">
<polygon fill="#dce9f7" stroke="#4a90d9" points="711.54,-711 574.54,-711 574.54,-675 711.54,-675 711.54,-711"/>
<text text-anchor="middle" x="643.04" y="-696" font-family="Helvetica" font-size="10.00">SimpleKeyState.tokenIndex</text>
<text text-anchor="middle" x="643.04" y="-685" font-family="Helvetica" font-size="10.00">(def)</text>
</a>
</g>
</g>
<!-- L4YAML.Scanner.ScannerState -->
<g id="node3" class="node">
<title>L4YAML.Scanner.ScannerState</title>
<g id="a_node3"><a xlink:href="../../../api/L4YAML/Scanner.html#L4YAML.Scanner.ScannerState" xlink:title="ScannerState\n(inductive)" target="_blank">
<polygon fill="#dce9f7" stroke="#4a90d9" points="1034.27,-495 958.27,-495 958.27,-459 1034.27,-459 1034.27,-495"/>
<text text-anchor="middle" x="996.27" y="-480" font-family="Helvetica" font-size="10.00">ScannerState</text>
<text text-anchor="middle" x="996.27" y="-469" font-family="Helvetica" font-size="10.00">(inductive)</text>
</a>
</g>
</g>
<!-- L4YAML.YamlToken -->
<g id="node4" class="node">
<title>L4YAML.YamlToken</title>
<g id="a_node4"><a xlink:href="../../../api/L4YAML/Token.html#L4YAML.YamlToken" xlink:title="YamlToken\n(inductive)" target="_blank">
<polygon fill="#dce9f7" stroke="#4a90d9" points="1028.27,-657 964.27,-657 964.27,-621 1028.27,-621 1028.27,-657"/>
<text text-anchor="middle" x="996.27" y="-642" font-family="Helvetica" font-size="10.00">YamlToken</text>
<text text-anchor="middle" x="996.27" y="-631" font-family="Helvetica" font-size="10.00">(inductive)</text>
</a>
</g>
</g>
<!-- L4YAML.Scanner.ScannerState.simpleKeyStack -->
<g id="node5" class="node">
<title>L4YAML.Scanner.ScannerState.simpleKeyStack</title>
<g id="a_node5"><a xlink:href="../../../api/L4YAML/Scanner.html#L4YAML.Scanner.ScannerState.simpleKeyStack" xlink:title="ScannerState.simpleKeyStack\n(def)" target="_blank">
<polygon fill="#dce9f7" stroke="#4a90d9" points="1070.77,-549 921.77,-549 921.77,-513 1070.77,-513 1070.77,-549"/>
<text text-anchor="middle" x="996.27" y="-534" font-family="Helvetica" font-size="10.00">ScannerState.simpleKeyStack</text>
<text text-anchor="middle" x="996.27" y="-523" font-family="Helvetica" font-size="10.00">(def)</text>
</a>
</g>
</g>
<!-- L4YAML.Scanner.ScannerState.tokens -->
<g id="node6" class="node">
<title>L4YAML.Scanner.ScannerState.tokens</title>
<g id="a_node6"><a xlink:href="../../../api/L4YAML/Scanner.html#L4YAML.Scanner.ScannerState.tokens" xlink:title="ScannerState.tokens\n(def)" target="_blank">
<polygon fill="#dce9f7" stroke="#4a90d9" points="1049.77,-711 942.77,-711 942.77,-675 1049.77,-675 1049.77,-711"/>
<text text-anchor="middle" x="996.27" y="-696" font-family="Helvetica" font-size="10.00">ScannerState.tokens</text>
<text text-anchor="middle" x="996.27" y="-685" font-family="Helvetica" font-size="10.00">(def)</text>
</a>
</g>
</g>
<!-- L4YAML.Scanner.SimpleKeyState -->
<g id="node7" class="node">
<title>L4YAML.Scanner.SimpleKeyState</title>
<g id="a_node7"><a xlink:href="../../../api/L4YAML/Scanner.html#L4YAML.Scanner.SimpleKeyState" xlink:title="SimpleKeyState\n(inductive)" target="_blank">
<polygon fill="#dce9f7" stroke="#4a90d9" points="1039.27,-441 953.27,-441 953.27,-405 1039.27,-405 1039.27,-441"/>
<text text-anchor="middle" x="996.27" y="-426" font-family="Helvetica" font-size="10.00">SimpleKeyState</text>
<text text-anchor="middle" x="996.27" y="-415" font-family="Helvetica" font-size="10.00">(inductive)</text>
</a>
</g>
</g>
<!-- L4YAML.Proofs.ScannerCorrectness.SimpleKeyStackValid -->
<g id="node8" class="node">
<title>L4YAML.Proofs.ScannerCorrectness.SimpleKeyStackValid</title>
<g id="a_node8"><a xlink:href="../../../api/L4YAML/Proofs/ScannerCorrectness.html#L4YAML.Proofs.ScannerCorrectness.SimpleKeyStackValid" xlink:title="ScannerCorrectness.SimpleKeyStackValid\n(def)" target="_blank">
<polygon fill="#dce9f7" stroke="#4a90d9" points="1097.27,-387 895.27,-387 895.27,-351 1097.27,-351 1097.27,-387"/>
<text text-anchor="middle" x="996.27" y="-372" font-family="Helvetica" font-size="10.00">ScannerCorrectness.SimpleKeyStackValid</text>
<text text-anchor="middle" x="996.27" y="-361" font-family="Helvetica" font-size="10.00">(def)</text>
</a>
</g>
</g>
<!-- L4YAML.Proofs.ScannerCorrectness.SimpleKeyStackValid_mono -->
<g id="node9" class="node">
<title>L4YAML.Proofs.ScannerCorrectness.SimpleKeyStackValid_mono</title>
<g id="a_node9"><a xlink:href="../../../api/L4YAML/Proofs/ScannerCorrectness.html#L4YAML.Proofs.ScannerCorrectness.SimpleKeyStackValid_mono" xlink:title="ScannerCorrectness.SimpleKeyStackValid_mono" target="_blank">
<polygon fill="#fff3cd" stroke="#d4a017" points="830.5,-151.54 830.5,-166.46 720.69,-177 565.39,-177 455.58,-166.46 455.58,-151.54 565.39,-141 720.69,-141 830.5,-151.54"/>
<polygon fill="none" stroke="#d4a017" points="834.5,-147.91 834.5,-170.09 720.88,-181 565.2,-181 451.58,-170.09 451.58,-147.91 565.2,-137 720.88,-137 834.5,-147.91"/>
<text text-anchor="middle" x="643.04" y="-155.9" font-family="Helvetica" font-size="12.00">ScannerCorrectness.SimpleKeyStackValid_mono</text>
</a>
</g>
</g>
<!-- L4YAML.Proofs.ScannerCorrectness.SimpleKeyStackValid_mono&#45;&gt;L4YAML.Positioned -->
<g id="edge4" class="edge">
<title>L4YAML.Proofs.ScannerCorrectness.SimpleKeyStackValid_mono&#45;&gt;L4YAML.Positioned</title>
<path fill="none" stroke="#4a90d9" stroke-width="2" d="M672.85,-181.24C730.26,-226.28 855.3,-328.2 877.27,-378 893.5,-414.78 869.27,-527.34 895.27,-558 910.53,-575.99 936.41,-582.63 958.01,-584.83"/>
<polygon fill="#4a90d9" stroke="#4a90d9" stroke-width="2" points="957.98,-587.29 965.16,-585.42 958.38,-582.41 957.98,-587.29"/>
<text text-anchor="middle" x="864.77" y="-380.6" font-family="Times-Roman" font-size="8.00" fill="#4a90d9">about</text>
</g>
<!-- L4YAML.Proofs.ScannerCorrectness.SimpleKeyStackValid_mono&#45;&gt;L4YAML.Scanner.ScannerState -->
<g id="edge6" class="edge">
<title>L4YAML.Proofs.ScannerCorrectness.SimpleKeyStackValid_mono&#45;&gt;L4YAML.Scanner.ScannerState</title>
<path fill="none" stroke="#4a90d9" stroke-width="2" d="M774.46,-175.9C813.28,-187.46 852.12,-206.77 877.27,-239 906.23,-276.1 865.1,-413.89 895.27,-450 908.78,-466.17 930.88,-473.19 950.87,-476.06"/>
<polygon fill="#4a90d9" stroke="#4a90d9" stroke-width="2" points="950.59,-478.49 957.83,-476.9 951.18,-473.63 950.59,-478.49"/>
<text text-anchor="middle" x="864.77" y="-241.6" font-family="Times-Roman" font-size="8.00" fill="#4a90d9">about</text>
</g>
<!-- L4YAML.Proofs.ScannerCorrectness.SimpleKeyStackValid_mono&#45;&gt;L4YAML.YamlToken -->
<g id="edge5" class="edge">
<title>L4YAML.Proofs.ScannerCorrectness.SimpleKeyStackValid_mono&#45;&gt;L4YAML.YamlToken</title>
<path fill="none" stroke="#4a90d9" stroke-width="2" d="M680.23,-181.12C725.76,-211 802.77,-268.68 842.27,-339 853.8,-359.52 847.02,-368.06 852.27,-391 861.92,-433.14 868.67,-442.63 877.27,-485 882.95,-512.93 876.39,-590.64 895.27,-612 910.58,-629.31 935.7,-636.05 956.94,-638.46"/>
<polygon fill="#4a90d9" stroke="#4a90d9" stroke-width="2" points="956.78,-640.91 963.98,-639.12 957.24,-636.03 956.78,-640.91"/>
<text text-anchor="middle" x="864.77" y="-487.6" font-family="Times-Roman" font-size="8.00" fill="#4a90d9">about</text>
</g>
<!-- L4YAML.Proofs.ScannerCorrectness.SimpleKeyStackValid_mono&#45;&gt;L4YAML.Scanner.ScannerState.simpleKeyStack -->
<g id="edge2" class="edge">
<title>L4YAML.Proofs.ScannerCorrectness.SimpleKeyStackValid_mono&#45;&gt;L4YAML.Scanner.ScannerState.simpleKeyStack</title>
<path fill="none" stroke="#4a90d9" stroke-width="2" d="M699.96,-181.09C755.2,-206.12 837.09,-252.55 877.27,-321 897.96,-356.24 868.87,-472.81 895.27,-504 900.76,-510.49 907.64,-515.5 915.19,-519.36"/>
<polygon fill="#4a90d9" stroke="#4a90d9" stroke-width="2" points="914.3,-521.65 921.69,-522.34 916.35,-517.19 914.3,-521.65"/>
<text text-anchor="middle" x="864.77" y="-323.6" font-family="Times-Roman" font-size="8.00" fill="#4a90d9">about</text>
</g>
<!-- L4YAML.Proofs.ScannerCorrectness.SimpleKeyStackValid_mono&#45;&gt;L4YAML.Scanner.ScannerState.tokens -->
<g id="edge1" class="edge">
<title>L4YAML.Proofs.ScannerCorrectness.SimpleKeyStackValid_mono&#45;&gt;L4YAML.Scanner.ScannerState.tokens</title>
<path fill="none" stroke="#4a90d9" stroke-width="2" d="M682.87,-181.15C730.05,-210.46 807.62,-266.94 842.27,-339 857.61,-370.91 845.06,-463.34 852.27,-498 858.92,-529.93 868.77,-535.51 877.27,-567 888.93,-610.18 865,-633.08 895.27,-666 905.83,-677.48 920.71,-684.28 935.77,-688.25"/>
<polygon fill="#4a90d9" stroke="#4a90d9" stroke-width="2" points="935.31,-690.66 942.69,-689.89 936.44,-685.89 935.31,-690.66"/>
<text text-anchor="middle" x="864.77" y="-569.6" font-family="Times-Roman" font-size="8.00" fill="#4a90d9">about</text>
</g>
<!-- L4YAML.Proofs.ScannerCorrectness.SimpleKeyStackValid_mono&#45;&gt;L4YAML.Scanner.SimpleKeyState -->
<g id="edge7" class="edge">
<title>L4YAML.Proofs.ScannerCorrectness.SimpleKeyStackValid_mono&#45;&gt;L4YAML.Scanner.SimpleKeyState</title>
<path fill="none" stroke="#4a90d9" stroke-width="2" d="M738.38,-138.63C786.23,-134.16 841.62,-138.93 877.27,-174 912.56,-208.71 863.61,-357.95 895.27,-396 907.61,-410.83 927.16,-417.97 945.72,-421.26"/>
<polygon fill="#4a90d9" stroke="#4a90d9" stroke-width="2" points="945.75,-423.75 953.04,-422.38 946.49,-418.9 945.75,-423.75"/>
<text text-anchor="middle" x="864.77" y="-176.6" font-family="Times-Roman" font-size="8.00" fill="#4a90d9">about</text>
</g>
<!-- L4YAML.Proofs.ScannerCorrectness.SimpleKeyStackValid_mono&#45;&gt;L4YAML.Proofs.ScannerCorrectness.SimpleKeyStackValid -->
<g id="edge3" class="edge">
<title>L4YAML.Proofs.ScannerCorrectness.SimpleKeyStackValid_mono&#45;&gt;L4YAML.Proofs.ScannerCorrectness.SimpleKeyStackValid</title>
<path fill="none" stroke="#4a90d9" stroke-width="2" d="M702.62,-136.86C752.67,-121.89 824.7,-110.08 877.27,-142 951.12,-186.84 980.87,-294.59 990.9,-343.77"/>
<polygon fill="#4a90d9" stroke="#4a90d9" stroke-width="2" points="988.54,-344.46 992.29,-350.86 993.35,-343.52 988.54,-344.46"/>
<text text-anchor="middle" x="864.77" y="-144.6" font-family="Times-Roman" font-size="8.00" fill="#4a90d9">about</text>
</g>
<!-- L4YAML.Proofs.ScannerCorrectness.SimpleKeyValid_mono._proof_1 -->
<g id="node10" class="node">
<title>L4YAML.Proofs.ScannerCorrectness.SimpleKeyValid_mono._proof_1</title>
<g id="a_node10"><a xlink:href="../../../api/L4YAML/Proofs/ScannerCorrectness.html#L4YAML.Proofs.ScannerCorrectness.SimpleKeyValid_mono._proof_1" xlink:title="ScannerCorrectness.SimpleKeyValid_mono._proof_1\n(ScannerCorrectness)" target="_blank">
<ellipse fill="#d4edda" stroke="#28a745" cx="215.4" cy="-533" rx="173.9" ry="21.43"/>
<text text-anchor="middle" x="215.4" y="-536" font-family="Helvetica" font-size="10.00">ScannerCorrectness.SimpleKeyValid_mono._proof_1</text>
<text text-anchor="middle" x="215.4" y="-525" font-family="Helvetica" font-size="10.00">(ScannerCorrectness)</text>
</a>
</g>
</g>
<!-- L4YAML.Proofs.ScannerCorrectness.SimpleKeyValid_mono._proof_1&#45;&gt;L4YAML.Positioned -->
<g id="edge16" class="edge">
<title>L4YAML.Proofs.ScannerCorrectness.SimpleKeyValid_mono._proof_1&#45;&gt;L4YAML.Positioned</title>
<path fill="none" stroke="#999999" stroke-dasharray="1,5" d="M384.69,-527.67C398.78,-521.79 411.81,-513.77 422.81,-503 442.12,-484.08 412.24,-460.55 432.81,-443 470.38,-410.94 839.81,-407.82 877.27,-440 917.51,-474.57 859.92,-518.44 895.27,-558 911.36,-576 938.07,-582.55 959.84,-584.7"/>
<polygon fill="#999999" stroke="#999999" points="959.84,-586.46 964.97,-585.14 960.14,-582.97 959.84,-586.46"/>
</g>
<!-- L4YAML.Proofs.ScannerCorrectness.SimpleKeyValid_mono._proof_1&#45;&gt;L4YAML.Scanner.ScannerState -->
<g id="edge18" class="edge">
<title>L4YAML.Proofs.ScannerCorrectness.SimpleKeyValid_mono._proof_1&#45;&gt;L4YAML.Scanner.ScannerState</title>
<path fill="none" stroke="#999999" stroke-dasharray="1,5" d="M384.8,-527.79C398.87,-521.88 411.87,-513.82 422.81,-503 433.04,-492.88 428.86,-452.84 432.81,-439 436.25,-426.93 434.37,-421.26 443.81,-413 585.44,-289.01 665.71,-326.11 852.27,-301 863.28,-299.52 868.96,-293.63 877.27,-301 927.19,-345.25 851.61,-399.57 895.27,-450 909.49,-466.42 932.55,-473.35 952.94,-476.1"/>
<polygon fill="#999999" stroke="#999999" points="952.89,-477.86 958.06,-476.71 953.3,-474.38 952.89,-477.86"/>
</g>
<!-- L4YAML.Proofs.ScannerCorrectness.SimpleKeyValid_mono._proof_1&#45;&gt;L4YAML.YamlToken -->
<g id="edge17" class="edge">
<title>L4YAML.Proofs.ScannerCorrectness.SimpleKeyValid_mono._proof_1&#45;&gt;L4YAML.YamlToken</title>
<path fill="none" stroke="#999999" stroke-dasharray="1,5" d="M381.06,-526.41C564.06,-520.66 839.05,-517.28 877.27,-547 900.94,-565.4 874.01,-590.87 895.27,-612 912.04,-628.66 937.96,-635.33 959.21,-637.88"/>
<polygon fill="#999999" stroke="#999999" points="959.06,-639.62 964.22,-638.41 959.43,-636.14 959.06,-639.62"/>
</g>
<!-- L4YAML.Proofs.ScannerCorrectness.SimpleKeyValid_mono._proof_1&#45;&gt;L4YAML.Scanner.ScannerState.tokens -->
<g id="edge15" class="edge">
<title>L4YAML.Proofs.ScannerCorrectness.SimpleKeyValid_mono._proof_1&#45;&gt;L4YAML.Scanner.ScannerState.tokens</title>
<path fill="none" stroke="#999999" stroke-dasharray="1,5" d="M377.69,-540.66C393.83,-545.95 409.23,-553.19 422.81,-563 430.86,-568.82 424.9,-576.98 432.81,-583 442.93,-590.7 796.06,-656.34 937.53,-682.4"/>
<polygon fill="#999999" stroke="#999999" points="937.23,-684.12 942.47,-683.31 937.87,-680.68 937.23,-684.12"/>
</g>
<!-- L4YAML.Proofs.ScannerCorrectness.SimpleKeyValid_mono._proof_1&#45;&gt;L4YAML.Proofs.ScannerCorrectness.SimpleKeyStackValid_mono -->
<g id="edge10" class="edge">
<title>L4YAML.Proofs.ScannerCorrectness.SimpleKeyValid_mono._proof_1&#45;&gt;L4YAML.Proofs.ScannerCorrectness.SimpleKeyStackValid_mono</title>
<path fill="none" stroke="#28a745" d="M386.54,-528.77C400.17,-522.64 412.59,-514.26 422.81,-503 438.65,-485.53 420.94,-311.38 432.81,-291 463.01,-239.16 522.54,-204.6 570.41,-183.89"/>
<polygon fill="#28a745" stroke="#28a745" points="571.6,-186.04 577.08,-181.05 569.68,-181.53 571.6,-186.04"/>
</g>
<!-- L4YAML.Proofs.ScannerCorrectness.SimpleKeyStackValid_mono._proof_1_3 -->
<g id="node11" class="node">
<title>L4YAML.Proofs.ScannerCorrectness.SimpleKeyStackValid_mono._proof_1_3</title>
<g id="a_node11"><a xlink:href="../../../api/L4YAML/Proofs/ScannerCorrectness.html#L4YAML.Proofs.ScannerCorrectness.SimpleKeyStackValid_mono._proof_1_3" xlink:title="ScannerCorrectness.SimpleKeyStackValid_mono._proof_1_3\n(ScannerCorrectness)" target="_blank">
<ellipse fill="#d4edda" stroke="#28a745" cx="215.4" cy="-473" rx="199.31" ry="21.43"/>
<text text-anchor="middle" x="215.4" y="-476" font-family="Helvetica" font-size="10.00">ScannerCorrectness.SimpleKeyStackValid_mono._proof_1_3</text>
<text text-anchor="middle" x="215.4" y="-465" font-family="Helvetica" font-size="10.00">(ScannerCorrectness)</text>
</a>
</g>
</g>
<!-- L4YAML.Proofs.ScannerCorrectness.SimpleKeyStackValid_mono._proof_1_3&#45;&gt;L4YAML.Positioned -->
<g id="edge22" class="edge">
<title>L4YAML.Proofs.ScannerCorrectness.SimpleKeyStackValid_mono._proof_1_3&#45;&gt;L4YAML.Positioned</title>
<path fill="none" stroke="#999999" stroke-dasharray="1,5" d="M276.37,-452.64C321.73,-438.35 385.9,-420.51 443.81,-413 619.43,-390.22 667.97,-381.67 842.27,-413 858.6,-415.94 866.9,-413.05 877.27,-426 914.29,-472.21 856.17,-513.54 895.27,-558 911.21,-576.13 937.93,-582.67 959.74,-584.79"/>
<polygon fill="#999999" stroke="#999999" points="959.76,-586.55 964.89,-585.22 960.05,-583.06 959.76,-586.55"/>
</g>
<!-- L4YAML.Proofs.ScannerCorrectness.SimpleKeyStackValid_mono._proof_1_3&#45;&gt;L4YAML.Scanner.SimpleKeyState.tokenIndex -->
<g id="edge20" class="edge">
<title>L4YAML.Proofs.ScannerCorrectness.SimpleKeyStackValid_mono._proof_1_3&#45;&gt;L4YAML.Scanner.SimpleKeyState.tokenIndex</title>
<path fill="none" stroke="#999999" stroke-dasharray="1,5" d="M394.86,-482.43C405.12,-487.82 414.58,-494.58 422.81,-503 448.47,-529.26 411.84,-554.86 432.81,-585 464.91,-631.15 522.91,-658.88 569.71,-674.67"/>
<polygon fill="#999999" stroke="#999999" points="569.19,-676.34 574.49,-676.25 570.3,-673.02 569.19,-676.34"/>
</g>
<!-- L4YAML.Proofs.ScannerCorrectness.SimpleKeyStackValid_mono._proof_1_3&#45;&gt;L4YAML.Scanner.ScannerState -->
<g id="edge24" class="edge">
<title>L4YAML.Proofs.ScannerCorrectness.SimpleKeyStackValid_mono._proof_1_3&#45;&gt;L4YAML.Scanner.ScannerState</title>
<path fill="none" stroke="#999999" stroke-dasharray="1,5" d="M232.95,-451.86C265.89,-411.65 344.16,-325.13 432.81,-291 478.92,-273.25 840.58,-242.91 877.27,-276 906.14,-302.03 870.08,-420.4 895.27,-450 909.35,-466.54 932.4,-473.48 952.82,-476.2"/>
<polygon fill="#999999" stroke="#999999" points="952.78,-477.96 957.95,-476.81 953.19,-474.48 952.78,-477.96"/>
</g>
<!-- L4YAML.Proofs.ScannerCorrectness.SimpleKeyStackValid_mono._proof_1_3&#45;&gt;L4YAML.YamlToken -->
<g id="edge23" class="edge">
<title>L4YAML.Proofs.ScannerCorrectness.SimpleKeyStackValid_mono._proof_1_3&#45;&gt;L4YAML.YamlToken</title>
<path fill="none" stroke="#999999" stroke-dasharray="1,5" d="M413.51,-470.49C538.05,-472.98 701.48,-483.79 842.27,-518 858.72,-522 866.44,-520 877.27,-533 900.33,-560.66 870.32,-586.04 895.27,-612 911.65,-629.04 937.58,-635.7 958.93,-638.15"/>
<polygon fill="#999999" stroke="#999999" points="958.82,-639.9 963.97,-638.66 959.17,-636.41 958.82,-639.9"/>
</g>
<!-- L4YAML.Proofs.ScannerCorrectness.SimpleKeyStackValid_mono._proof_1_3&#45;&gt;L4YAML.Scanner.ScannerState.simpleKeyStack -->
<g id="edge21" class="edge">
<title>L4YAML.Proofs.ScannerCorrectness.SimpleKeyStackValid_mono._proof_1_3&#45;&gt;L4YAML.Scanner.ScannerState.simpleKeyStack</title>
<path fill="none" stroke="#999999" stroke-dasharray="1,5" d="M248.12,-451.87C352.63,-385.09 690.14,-192.52 877.27,-358 926.25,-401.31 852.41,-454.63 895.27,-504 901.24,-510.87 908.76,-516.09 916.98,-520.02"/>
<polygon fill="#999999" stroke="#999999" points="916.34,-521.65 921.62,-522.08 917.76,-518.45 916.34,-521.65"/>
</g>
<!-- L4YAML.Proofs.ScannerCorrectness.SimpleKeyStackValid_mono._proof_1_3&#45;&gt;L4YAML.Scanner.ScannerState.tokens -->
<g id="edge19" class="edge">
<title>L4YAML.Proofs.ScannerCorrectness.SimpleKeyStackValid_mono._proof_1_3&#45;&gt;L4YAML.Scanner.ScannerState.tokens</title>
<path fill="none" stroke="#999999" stroke-dasharray="1,5" d="M341.95,-489.42C368.71,-493.43 396.76,-498.02 422.81,-503 432.23,-504.8 434.43,-505.98 443.81,-508 620.13,-546.01 692.51,-484.48 842.27,-585 877.99,-608.98 860.45,-640.74 895.27,-666 907.63,-674.96 922.79,-680.95 937.54,-684.95"/>
<polygon fill="#999999" stroke="#999999" points="937.24,-686.68 942.52,-686.23 938.11,-683.29 937.24,-686.68"/>
</g>
<!-- L4YAML.Proofs.ScannerCorrectness.SimpleKeyStackValid_mono._proof_1_3&#45;&gt;L4YAML.Scanner.SimpleKeyState -->
<g id="edge25" class="edge">
<title>L4YAML.Proofs.ScannerCorrectness.SimpleKeyStackValid_mono._proof_1_3&#45;&gt;L4YAML.Scanner.SimpleKeyState</title>
<path fill="none" stroke="#999999" stroke-dasharray="1,5" d="M230.26,-451.71C261.66,-405.72 343.35,-297.97 443.81,-258 533.32,-222.39 810.33,-194.72 877.27,-264 918.42,-306.58 856.17,-351.54 895.27,-396 908.41,-410.94 928.86,-418.01 947.85,-421.22"/>
<polygon fill="#999999" stroke="#999999" points="947.96,-423 953.16,-422.03 948.48,-419.54 947.96,-423"/>
</g>
<!-- L4YAML.Proofs.ScannerCorrectness.SimpleKeyStackValid_mono._proof_1_3&#45;&gt;L4YAML.Proofs.ScannerCorrectness.SimpleKeyStackValid_mono -->
<g id="edge9" class="edge">
<title>L4YAML.Proofs.ScannerCorrectness.SimpleKeyStackValid_mono._proof_1_3&#45;&gt;L4YAML.Proofs.ScannerCorrectness.SimpleKeyStackValid_mono</title>
<path fill="none" stroke="#28a745" d="M243.89,-451.74C288.96,-415.28 378.05,-336.15 422.81,-248 433.07,-227.79 416.68,-213.92 432.81,-198 442.24,-188.69 453.13,-181.23 464.9,-175.27"/>
<polygon fill="#28a745" stroke="#28a745" points="466.25,-177.34 471.52,-172.11 464.14,-172.92 466.25,-177.34"/>
</g>
<!-- L4YAML.Proofs.ScannerCorrectness.SimpleKeyStackValid_mono._proof_1_4 -->
<g id="node12" class="node">
<title>L4YAML.Proofs.ScannerCorrectness.SimpleKeyStackValid_mono._proof_1_4</title>
<g id="a_node12"><a xlink:href="../../../api/L4YAML/Proofs/ScannerCorrectness.html#L4YAML.Proofs.ScannerCorrectness.SimpleKeyStackValid_mono._proof_1_4" xlink:title="ScannerCorrectness.SimpleKeyStackValid_mono._proof_1_4\n(ScannerCorrectness)" target="_blank">
<ellipse fill="#d4edda" stroke="#28a745" cx="215.4" cy="-593" rx="199.31" ry="21.43"/>
<text text-anchor="middle" x="215.4" y="-596" font-family="Helvetica" font-size="10.00">ScannerCorrectness.SimpleKeyStackValid_mono._proof_1_4</text>
<text text-anchor="middle" x="215.4" y="-585" font-family="Helvetica" font-size="10.00">(ScannerCorrectness)</text>
</a>
</g>
</g>
<!-- L4YAML.Proofs.ScannerCorrectness.SimpleKeyStackValid_mono._proof_1_4&#45;&gt;L4YAML.Positioned -->
<g id="edge29" class="edge">
<title>L4YAML.Proofs.ScannerCorrectness.SimpleKeyStackValid_mono._proof_1_4&#45;&gt;L4YAML.Positioned</title>
<path fill="none" stroke="#999999" stroke-dasharray="1,5" d="M365.31,-607.02C387.91,-608.67 410.96,-610.09 432.81,-611 632.23,-619.28 871.35,-597.81 959.98,-588.78"/>
<polygon fill="#999999" stroke="#999999" points="960.3,-590.51 965.1,-588.26 959.94,-587.03 960.3,-590.51"/>
</g>
<!-- L4YAML.Proofs.ScannerCorrectness.SimpleKeyStackValid_mono._proof_1_4&#45;&gt;L4YAML.Scanner.SimpleKeyState.tokenIndex -->
<g id="edge27" class="edge">
<title>L4YAML.Proofs.ScannerCorrectness.SimpleKeyStackValid_mono._proof_1_4&#45;&gt;L4YAML.Scanner.SimpleKeyState.tokenIndex</title>
<path fill="none" stroke="#999999" stroke-dasharray="1,5" d="M273.16,-613.45C316.43,-628.4 377.76,-648.22 432.81,-661 477.51,-671.38 528.4,-679.25 568.79,-684.58"/>
<polygon fill="#999999" stroke="#999999" points="568.98,-686.37 574.17,-685.29 569.44,-682.9 568.98,-686.37"/>
</g>
<!-- L4YAML.Proofs.ScannerCorrectness.SimpleKeyStackValid_mono._proof_1_4&#45;&gt;L4YAML.Scanner.ScannerState -->
<g id="edge31" class="edge">
<title>L4YAML.Proofs.ScannerCorrectness.SimpleKeyStackValid_mono._proof_1_4&#45;&gt;L4YAML.Scanner.ScannerState</title>
<path fill="none" stroke="#999999" stroke-dasharray="1,5" d="M341.1,-576.52C368.11,-572.49 396.47,-567.91 422.81,-563 615.27,-527.11 657.72,-486.92 852.27,-465 886.07,-461.19 924.48,-464.86 952.98,-469.11"/>
<polygon fill="#999999" stroke="#999999" points="952.97,-470.88 958.18,-469.91 953.5,-467.42 952.97,-470.88"/>
</g>
<!-- L4YAML.Proofs.ScannerCorrectness.SimpleKeyStackValid_mono._proof_1_4&#45;&gt;L4YAML.YamlToken -->
<g id="edge30" class="edge">
<title>L4YAML.Proofs.ScannerCorrectness.SimpleKeyStackValid_mono._proof_1_4&#45;&gt;L4YAML.YamlToken</title>
<path fill="none" stroke="#999999" stroke-dasharray="1,5" d="M231.23,-614.39C262.55,-657.48 340.21,-753.75 432.81,-791 524.47,-827.87 802.94,-866.08 877.27,-801 922.82,-761.13 855.37,-711.51 895.27,-666 910.97,-648.1 937.17,-641.49 958.82,-639.29"/>
<polygon fill="#999999" stroke="#999999" points="959.1,-641.02 963.93,-638.84 958.8,-637.53 959.1,-641.02"/>
</g>
<!-- L4YAML.Proofs.ScannerCorrectness.SimpleKeyStackValid_mono._proof_1_4&#45;&gt;L4YAML.Scanner.ScannerState.simpleKeyStack -->
<g id="edge28" class="edge">
<title>L4YAML.Proofs.ScannerCorrectness.SimpleKeyStackValid_mono._proof_1_4&#45;&gt;L4YAML.Scanner.ScannerState.simpleKeyStack</title>
<path fill="none" stroke="#999999" stroke-dasharray="1,5" d="M235.95,-614.26C271.13,-650.8 349.27,-724.36 432.81,-753 479.54,-769.02 840.85,-796.37 877.27,-763 910.99,-732.11 865.91,-593.06 895.27,-558 901.17,-550.96 908.69,-545.66 916.95,-541.68"/>
<polygon fill="#999999" stroke="#999999" points="917.76,-543.23 921.61,-539.6 916.33,-540.04 917.76,-543.23"/>
</g>
<!-- L4YAML.Proofs.ScannerCorrectness.SimpleKeyStackValid_mono._proof_1_4&#45;&gt;L4YAML.Scanner.ScannerState.tokens -->
<g id="edge26" class="edge">
<title>L4YAML.Proofs.ScannerCorrectness.SimpleKeyStackValid_mono._proof_1_4&#45;&gt;L4YAML.Scanner.ScannerState.tokens</title>
<path fill="none" stroke="#999999" stroke-dasharray="1,5" d="M228.63,-614.37C258.13,-663.49 338.62,-783.77 443.81,-830 620.22,-907.52 703.39,-922.04 877.27,-839 930.95,-813.37 968.07,-750.07 984.96,-715.84"/>
<polygon fill="#999999" stroke="#999999" points="986.69,-716.27 987.3,-711.01 983.54,-714.75 986.69,-716.27"/>
</g>
<!-- L4YAML.Proofs.ScannerCorrectness.SimpleKeyStackValid_mono._proof_1_4&#45;&gt;L4YAML.Scanner.SimpleKeyState -->
<g id="edge32" class="edge">
<title>L4YAML.Proofs.ScannerCorrectness.SimpleKeyStackValid_mono._proof_1_4&#45;&gt;L4YAML.Scanner.SimpleKeyState</title>
<path fill="none" stroke="#999999" stroke-dasharray="1,5" d="M243.5,-614.13C284.24,-644.45 364.95,-698.95 443.81,-720 490.35,-732.42 842.12,-757.93 877.27,-725 921.97,-683.13 856.47,-497.38 895.27,-450 907.98,-434.49 928.59,-427.36 947.81,-424.27"/>
<polygon fill="#999999" stroke="#999999" points="948.48,-425.94 953.19,-423.5 947.99,-422.47 948.48,-425.94"/>
</g>
<!-- L4YAML.Proofs.ScannerCorrectness.SimpleKeyStackValid_mono._proof_1_4&#45;&gt;L4YAML.Proofs.ScannerCorrectness.SimpleKeyStackValid_mono -->
<g id="edge8" class="edge">
<title>L4YAML.Proofs.ScannerCorrectness.SimpleKeyStackValid_mono._proof_1_4&#45;&gt;L4YAML.Proofs.ScannerCorrectness.SimpleKeyStackValid_mono</title>
<path fill="none" stroke="#28a745" d="M395.7,-583.68C405.69,-578.24 414.87,-571.44 422.81,-563 431.98,-553.25 431.55,-456.32 432.81,-443 437.18,-396.73 422.78,-380.45 443.81,-339 478.53,-270.56 550.91,-215.53 597.93,-185.08"/>
<polygon fill="#28a745" stroke="#28a745" points="599.53,-186.97 604.11,-181.13 596.89,-182.84 599.53,-186.97"/>
</g>
<!-- GetElem.getElem.congr_simp -->
<g id="node13" class="node">
<title>GetElem.getElem.congr_simp</title>
<g id="a_node13"><a xlink:href="../../../api/Init/GetElem.html#GetElem.getElem.congr_simp" xlink:title="GetElem.getElem.congr_simp" target="_blank">
<ellipse fill="#fdebd0" stroke="#e67e22" cx="215.4" cy="-88" rx="86.57" ry="18"/>
<text text-anchor="middle" x="215.4" y="-85.5" font-family="Helvetica" font-size="10.00">GetElem.getElem.congr_simp</text>
</a>
</g>
</g>
<!-- GetElem.getElem.congr_simp&#45;&gt;L4YAML.Proofs.ScannerCorrectness.SimpleKeyStackValid_mono -->
<g id="edge11" class="edge">
<title>GetElem.getElem.congr_simp&#45;&gt;L4YAML.Proofs.ScannerCorrectness.SimpleKeyStackValid_mono</title>
<path fill="none" stroke="#e67e22" stroke-width="2" d="M291.59,-96.59C330.8,-101.38 379.49,-107.83 422.81,-115 461.57,-121.42 503.94,-129.64 541.02,-137.23"/>
<polygon fill="#e67e22" stroke="#e67e22" stroke-width="2" points="540.53,-139.63 547.88,-138.64 541.51,-134.83 540.53,-139.63"/>
</g>
<!-- eq_self -->
<g id="node14" class="node">
<title>eq_self</title>
<g id="a_node14"><a xlink:href="../../../api/Init/SimpLemmas.html#eq_self" xlink:title="eq_self" target="_blank">
<ellipse fill="#fdebd0" stroke="#e67e22" cx="215.4" cy="-34" rx="28.01" ry="18"/>
<text text-anchor="middle" x="215.4" y="-31.5" font-family="Helvetica" font-size="10.00">eq_self</text>
</a>
</g>
</g>
<!-- eq_self&#45;&gt;L4YAML.Proofs.ScannerCorrectness.SimpleKeyStackValid_mono -->
<g id="edge12" class="edge">
<title>eq_self&#45;&gt;L4YAML.Proofs.ScannerCorrectness.SimpleKeyStackValid_mono</title>
<path fill="none" stroke="#e67e22" stroke-width="2" d="M243.62,-35.05C283.59,-37.16 360.21,-43.32 422.81,-61 485.14,-78.6 552.56,-110.93 595.93,-133.63"/>
<polygon fill="#e67e22" stroke="#e67e22" stroke-width="2" points="594.82,-135.81 602.16,-136.91 597.1,-131.48 594.82,-135.81"/>
</g>
<!-- Decidable.byContradiction -->
<g id="node15" class="node">
<title>Decidable.byContradiction</title>
<g id="a_node15"><a xlink:href="../../../api/Init/Core.html#Decidable.byContradiction" xlink:title="Decidable.byContradiction" target="_blank">
<ellipse fill="#fdebd0" stroke="#e67e22" cx="215.4" cy="-196" rx="77.23" ry="18"/>
<text text-anchor="middle" x="215.4" y="-193.5" font-family="Helvetica" font-size="10.00">Decidable.byContradiction</text>
</a>
</g>
</g>
<!-- Decidable.byContradiction&#45;&gt;L4YAML.Proofs.ScannerCorrectness.SimpleKeyStackValid_mono -->
<g id="edge13" class="edge">
<title>Decidable.byContradiction&#45;&gt;L4YAML.Proofs.ScannerCorrectness.SimpleKeyStackValid_mono</title>
<path fill="none" stroke="#e67e22" stroke-width="2" d="M285.05,-188.01C327.56,-183.24 383.31,-177.28 432.81,-173 439.13,-172.45 445.57,-171.91 452.07,-171.39"/>
<polygon fill="#e67e22" stroke="#e67e22" stroke-width="2" points="452.37,-173.82 459.15,-170.82 451.97,-168.94 452.37,-173.82"/>
</g>
<!-- of_eq_true -->
<g id="node16" class="node">
<title>of_eq_true</title>
<g id="a_node16"><a xlink:href="../../../api/Init/SimpLemmas.html#of_eq_true" xlink:title="of_eq_true" target="_blank">
<ellipse fill="#fdebd0" stroke="#e67e22" cx="215.4" cy="-142" rx="36.49" ry="18"/>
<text text-anchor="middle" x="215.4" y="-139.5" font-family="Helvetica" font-size="10.00">of_eq_true</text>
</a>
</g>
</g>
<!-- of_eq_true&#45;&gt;L4YAML.Proofs.ScannerCorrectness.SimpleKeyStackValid_mono -->
<g id="edge14" class="edge">
<title>of_eq_true&#45;&gt;L4YAML.Proofs.ScannerCorrectness.SimpleKeyStackValid_mono</title>
<path fill="none" stroke="#e67e22" stroke-width="2" d="M252.19,-142.71C295.29,-143.63 369.86,-145.43 433.81,-148 437.39,-148.14 441.01,-148.29 444.65,-148.45"/>
<polygon fill="#e67e22" stroke="#e67e22" stroke-width="2" points="444.59,-150.9 451.69,-148.75 444.8,-146 444.59,-150.9"/>
</g>
</g>
</svg>
