<?xml version="1.0" encoding="UTF-8" standalone="no"?>
<!DOCTYPE svg PUBLIC "-//W3C//DTD SVG 1.1//EN"
 "http://www.w3.org/Graphics/SVG/1.1/DTD/svg11.dtd">
<!-- Generated by graphviz version 2.44.0 (0)
 -->
<!-- Title: ScannerCorrectness.scanValue_adds_tokens Pages: 1 -->
<svg width="988pt" height="1297pt"
 viewBox="0.00 0.00 988.39 1297.25" xmlns="http://www.w3.org/2000/svg" xmlns:xlink="http://www.w3.org/1999/xlink">
<g id="graph0" class="graph" transform="scale(1 1) rotate(0) translate(4 1293.25)">
<title>ScannerCorrectness.scanValue_adds_tokens</title>
<polygon fill="white" stroke="transparent" points="-4,4 -4,-1293.25 984.39,-1293.25 984.39,4 -4,4"/>
<text text-anchor="middle" x="490.19" y="-1274.85" font-family="Helvetica Bold" font-size="13.00">ScannerCorrectness.scanValue_adds_tokens</text>
<text text-anchor="middle" x="490.19" y="-1260.85" font-family="Helvetica Bold" font-size="13.00">(heuristic: used by 6 proofs)</text>
<text text-anchor="middle" x="490.19" y="-1246.85" font-family="Helvetica Bold" font-size="13.00">(L4YAML.Proofs.ScannerCorrectness)</text>
<g id="clust1" class="cluster">
<title>cluster_functions</title>
<polygon fill="none" stroke="#4a90d9" stroke-dasharray="5,2" points="553.65,-887.25 553.65,-1231.25 972.39,-1231.25 972.39,-887.25 553.65,-887.25"/>
<text text-anchor="middle" x="763.02" y="-1216.85" font-family="Helvetica Bold" font-size="13.00" fill="#4a90d9">Functions</text>
</g>
<g id="clust2" class="cluster">
<title>cluster_key</title>
<polygon fill="none" stroke="#d4a017" stroke-dasharray="5,2" points="433.91,-797.25 433.91,-879.25 804.39,-879.25 804.39,-797.25 433.91,-797.25"/>
<text text-anchor="middle" x="619.15" y="-864.85" font-family="Helvetica Bold" font-size="13.00" fill="#d4a017">Key Theorem</text>
</g>
<g id="clust3" class="cluster">
<title>cluster_proofs</title>
<polygon fill="none" stroke="#28a745" stroke-dasharray="5,2" points="8,-330.25 8,-650.25 412.91,-650.25 412.91,-330.25 8,-330.25"/>
<text text-anchor="middle" x="210.45" y="-635.85" font-family="Helvetica Bold" font-size="13.00" fill="#28a745">Proof Dependencies</text>
</g>
<g id="clust4" class="cluster">
<title>cluster_stdlib</title>
<polygon fill="none" stroke="#e67e22" stroke-dasharray="5,2" points="125.34,-851.25 125.34,-925.25 295.57,-925.25 295.57,-851.25 125.34,-851.25"/>
<text text-anchor="middle" x="210.45" y="-910.85" font-family="Helvetica Bold" font-size="13.00" fill="#e67e22">Stdlib Lemmas</text>
</g>
<!-- L4YAML.Scanner.ScannerState.emit -->
<g id="node1" class="node">
<title>L4YAML.Scanner.ScannerState.emit</title>
<polygon fill="#dce9f7" stroke="#4a90d9" points="668.15,-931.25 570.15,-931.25 570.15,-895.25 668.15,-895.25 668.15,-931.25"/>
<text text-anchor="middle" x="619.15" y="-916.25" font-family="Helvetica" font-size="10.00">ScannerState.emit</text>
<text text-anchor="middle" x="619.15" y="-905.25" font-family="Helvetica" font-size="10.00">(def)</text>
</g>
<!-- L4YAML.Positioned -->
<g id="node2" class="node">
<title>L4YAML.Positioned</title>
<polygon fill="#dce9f7" stroke="#4a90d9" points="941.89,-985.25 879.89,-985.25 879.89,-949.25 941.89,-949.25 941.89,-985.25"/>
<text text-anchor="middle" x="910.89" y="-970.25" font-family="Helvetica" font-size="10.00">Positioned</text>
<text text-anchor="middle" x="910.89" y="-959.25" font-family="Helvetica" font-size="10.00">(inductive)</text>
</g>
<!-- L4YAML.Scanner.ScannerState.advance -->
<g id="node3" class="node">
<title>L4YAML.Scanner.ScannerState.advance</title>
<polygon fill="#dce9f7" stroke="#4a90d9" points="676.65,-985.25 561.65,-985.25 561.65,-949.25 676.65,-949.25 676.65,-985.25"/>
<text text-anchor="middle" x="619.15" y="-970.25" font-family="Helvetica" font-size="10.00">ScannerState.advance</text>
<text text-anchor="middle" x="619.15" y="-959.25" font-family="Helvetica" font-size="10.00">(def)</text>
</g>
<!-- L4YAML.Scanner.ScannerState -->
<g id="node4" class="node">
<title>L4YAML.Scanner.ScannerState</title>
<polygon fill="#dce9f7" stroke="#4a90d9" points="948.89,-931.25 872.89,-931.25 872.89,-895.25 948.89,-895.25 948.89,-931.25"/>
<text text-anchor="middle" x="910.89" y="-916.25" font-family="Helvetica" font-size="10.00">ScannerState</text>
<text text-anchor="middle" x="910.89" y="-905.25" font-family="Helvetica" font-size="10.00">(inductive)</text>
</g>
<!-- L4YAML.YamlToken -->
<g id="node5" class="node">
<title>L4YAML.YamlToken</title>
<polygon fill="#dce9f7" stroke="#4a90d9" points="942.89,-1039.25 878.89,-1039.25 878.89,-1003.25 942.89,-1003.25 942.89,-1039.25"/>
<text text-anchor="middle" x="910.89" y="-1024.25" font-family="Helvetica" font-size="10.00">YamlToken</text>
<text text-anchor="middle" x="910.89" y="-1013.25" font-family="Helvetica" font-size="10.00">(inductive)</text>
</g>
<!-- L4YAML.ScanError -->
<g id="node6" class="node">
<title>L4YAML.ScanError</title>
<polygon fill="#dce9f7" stroke="#4a90d9" points="941.89,-1201.25 879.89,-1201.25 879.89,-1165.25 941.89,-1165.25 941.89,-1201.25"/>
<text text-anchor="middle" x="910.89" y="-1186.25" font-family="Helvetica" font-size="10.00">ScanError</text>
<text text-anchor="middle" x="910.89" y="-1175.25" font-family="Helvetica" font-size="10.00">(inductive)</text>
</g>
<!-- L4YAML.Scanner.ScannerState.tokens -->
<g id="node7" class="node">
<title>L4YAML.Scanner.ScannerState.tokens</title>
<polygon fill="#dce9f7" stroke="#4a90d9" points="964.39,-1093.25 857.39,-1093.25 857.39,-1057.25 964.39,-1057.25 964.39,-1093.25"/>
<text text-anchor="middle" x="910.89" y="-1078.25" font-family="Helvetica" font-size="10.00">ScannerState.tokens</text>
<text text-anchor="middle" x="910.89" y="-1067.25" font-family="Helvetica" font-size="10.00">(def)</text>
</g>
<!-- L4YAML.Scanner.scanValuePrepare -->
<g id="node8" class="node">
<title>L4YAML.Scanner.scanValuePrepare</title>
<polygon fill="#dce9f7" stroke="#4a90d9" points="666.65,-1039.25 571.65,-1039.25 571.65,-1003.25 666.65,-1003.25 666.65,-1039.25"/>
<text text-anchor="middle" x="619.15" y="-1024.25" font-family="Helvetica" font-size="10.00">scanValuePrepare</text>
<text text-anchor="middle" x="619.15" y="-1013.25" font-family="Helvetica" font-size="10.00">(def)</text>
</g>
<!-- L4YAML.Scanner.scanValue -->
<g id="node9" class="node">
<title>L4YAML.Scanner.scanValue</title>
<polygon fill="#dce9f7" stroke="#4a90d9" points="941.89,-1147.25 879.89,-1147.25 879.89,-1111.25 941.89,-1111.25 941.89,-1147.25"/>
<text text-anchor="middle" x="910.89" y="-1132.25" font-family="Helvetica" font-size="10.00">scanValue</text>
<text text-anchor="middle" x="910.89" y="-1121.25" font-family="Helvetica" font-size="10.00">(def)</text>
</g>
<!-- L4YAML.Scanner.scanValueClearKey -->
<g id="node10" class="node">
<title>L4YAML.Scanner.scanValueClearKey</title>
<polygon fill="#dce9f7" stroke="#4a90d9" points="669.65,-1093.25 568.65,-1093.25 568.65,-1057.25 669.65,-1057.25 669.65,-1093.25"/>
<text text-anchor="middle" x="619.15" y="-1078.25" font-family="Helvetica" font-size="10.00">scanValueClearKey</text>
<text text-anchor="middle" x="619.15" y="-1067.25" font-family="Helvetica" font-size="10.00">(def)</text>
</g>
<!-- L4YAML.Proofs.ScannerCorrectness.scanValue_adds_tokens -->
<g id="node11" class="node">
<title>L4YAML.Proofs.ScannerCorrectness.scanValue_adds_tokens</title>
<polygon fill="#fff3cd" stroke="#d4a017" points="792.62,-819.79 792.62,-834.7 691,-845.25 547.29,-845.25 445.67,-834.7 445.67,-819.79 547.29,-809.25 691,-809.25 792.62,-819.79"/>
<polygon fill="none" stroke="#d4a017" points="796.63,-816.18 796.63,-838.31 691.21,-849.25 547.09,-849.25 441.67,-838.31 441.67,-816.18 547.09,-805.25 691.21,-805.25 796.63,-816.18"/>
<text text-anchor="middle" x="619.15" y="-824.15" font-family="Helvetica" font-size="12.00">ScannerCorrectness.scanValue_adds_tokens</text>
</g>
<!-- L4YAML.Proofs.ScannerCorrectness.scanValue_adds_tokens&#45;&gt;L4YAML.Positioned -->
<g id="edge3" class="edge">
<title>L4YAML.Proofs.ScannerCorrectness.scanValue_adds_tokens&#45;&gt;L4YAML.Positioned</title>
<path fill="none" stroke="#4a90d9" stroke-width="2" d="M696.78,-805.77C743.35,-797.68 801.03,-797.2 839.39,-830.25 876.92,-862.58 828.24,-900.19 857.39,-940.25 861.55,-945.96 867.28,-950.56 873.43,-954.23"/>
<polygon fill="#4a90d9" stroke="#4a90d9" stroke-width="2" points="872.36,-956.43 879.69,-957.59 874.68,-952.12 872.36,-956.43"/>
<text text-anchor="middle" x="826.89" y="-832.85" font-family="Times-Roman" font-size="8.00" fill="#4a90d9">about</text>
</g>
<!-- L4YAML.Proofs.ScannerCorrectness.scanValue_adds_tokens&#45;&gt;L4YAML.Scanner.ScannerState -->
<g id="edge5" class="edge">
<title>L4YAML.Proofs.ScannerCorrectness.scanValue_adds_tokens&#45;&gt;L4YAML.Scanner.ScannerState</title>
<path fill="none" stroke="#4a90d9" stroke-width="2" d="M667.34,-805.24C714,-786.95 785.96,-768.33 839.39,-798.25 873.67,-817.44 893.3,-860.87 902.76,-888.53"/>
<polygon fill="#4a90d9" stroke="#4a90d9" stroke-width="2" points="900.43,-889.31 904.94,-895.19 905.09,-887.78 900.43,-889.31"/>
<text text-anchor="middle" x="826.89" y="-800.85" font-family="Times-Roman" font-size="8.00" fill="#4a90d9">about</text>
</g>
<!-- L4YAML.Proofs.ScannerCorrectness.scanValue_adds_tokens&#45;&gt;L4YAML.YamlToken -->
<g id="edge4" class="edge">
<title>L4YAML.Proofs.ScannerCorrectness.scanValue_adds_tokens&#45;&gt;L4YAML.YamlToken</title>
<path fill="none" stroke="#4a90d9" stroke-width="2" d="M731.46,-845.07C757.55,-853.35 783.73,-865.48 804.39,-883.25 825.11,-901.07 838.35,-974.63 857.39,-994.25 861.7,-998.69 866.9,-1002.53 872.32,-1005.82"/>
<polygon fill="#4a90d9" stroke="#4a90d9" stroke-width="2" points="871.45,-1008.14 878.76,-1009.42 873.85,-1003.87 871.45,-1008.14"/>
<text text-anchor="middle" x="826.89" y="-958.85" font-family="Times-Roman" font-size="8.00" fill="#4a90d9">about</text>
</g>
<!-- L4YAML.Proofs.ScannerCorrectness.scanValue_adds_tokens&#45;&gt;L4YAML.ScanError -->
<g id="edge6" class="edge">
<title>L4YAML.Proofs.ScannerCorrectness.scanValue_adds_tokens&#45;&gt;L4YAML.ScanError</title>
<path fill="none" stroke="#4a90d9" stroke-width="2" d="M747.35,-843.56C769.43,-852.05 789.9,-864.65 804.39,-883.25 818.67,-901.59 807.08,-1070.17 814.39,-1092.25 825.16,-1124.78 831.79,-1133.47 857.39,-1156.25 862.17,-1160.5 867.74,-1164.28 873.43,-1167.57"/>
<polygon fill="#4a90d9" stroke="#4a90d9" stroke-width="2" points="872.3,-1169.75 879.62,-1170.95 874.65,-1165.45 872.3,-1169.75"/>
<text text-anchor="middle" x="826.89" y="-1140.85" font-family="Times-Roman" font-size="8.00" fill="#4a90d9">about</text>
</g>
<!-- L4YAML.Proofs.ScannerCorrectness.scanValue_adds_tokens&#45;&gt;L4YAML.Scanner.ScannerState.tokens -->
<g id="edge1" class="edge">
<title>L4YAML.Proofs.ScannerCorrectness.scanValue_adds_tokens&#45;&gt;L4YAML.Scanner.ScannerState.tokens</title>
<path fill="none" stroke="#4a90d9" stroke-width="2" d="M737.5,-844.61C762.07,-852.93 786.04,-865.19 804.39,-883.25 818.11,-896.75 844.93,-1033.56 857.39,-1048.25 858.61,-1049.68 859.92,-1051.05 861.31,-1052.36"/>
<polygon fill="#4a90d9" stroke="#4a90d9" stroke-width="2" points="860.05,-1054.49 867,-1057.07 863.17,-1050.72 860.05,-1054.49"/>
<text text-anchor="middle" x="826.89" y="-993.85" font-family="Times-Roman" font-size="8.00" fill="#4a90d9">about</text>
</g>
<!-- L4YAML.Proofs.ScannerCorrectness.scanValue_adds_tokens&#45;&gt;L4YAML.Scanner.scanValue -->
<g id="edge2" class="edge">
<title>L4YAML.Proofs.ScannerCorrectness.scanValue_adds_tokens&#45;&gt;L4YAML.Scanner.scanValue</title>
<path fill="none" stroke="#4a90d9" stroke-width="2" d="M745.91,-843.6C768.38,-852.07 789.37,-864.65 804.39,-883.25 821.33,-904.24 807.77,-978.09 814.39,-1004.25 826.06,-1050.35 824.81,-1067.59 857.39,-1102.25 861.93,-1107.07 867.52,-1111.18 873.34,-1114.63"/>
<polygon fill="#4a90d9" stroke="#4a90d9" stroke-width="2" points="872.4,-1116.9 879.72,-1118.11 874.75,-1112.61 872.4,-1116.9"/>
<text text-anchor="middle" x="826.89" y="-1081.85" font-family="Times-Roman" font-size="8.00" fill="#4a90d9">about</text>
</g>
<!-- L4YAML.Proofs.ScannerProofs.emit_tokens_size -->
<g id="node12" class="node">
<title>L4YAML.Proofs.ScannerProofs.emit_tokens_size</title>
<ellipse fill="#d4edda" stroke="#28a745" cx="210.45" cy="-359.25" rx="112.36" ry="21.43"/>
<text text-anchor="middle" x="210.45" y="-362.25" font-family="Helvetica" font-size="10.00">ScannerProofs.emit_tokens_size</text>
<text text-anchor="middle" x="210.45" y="-351.25" font-family="Helvetica" font-size="10.00">(ScannerProofs)</text>
</g>
<!-- L4YAML.Proofs.ScannerProofs.emit_tokens_size&#45;&gt;L4YAML.Scanner.ScannerState.emit -->
<g id="edge14" class="edge">
<title>L4YAML.Proofs.ScannerProofs.emit_tokens_size&#45;&gt;L4YAML.Scanner.ScannerState.emit</title>
<path fill="none" stroke="#999999" stroke-dasharray="1,5" d="M312.51,-350.26C348.93,-352.59 387.31,-362.48 412.91,-389.25 445.65,-423.47 420.85,-447.98 423.91,-495.25 425.3,-516.76 419.73,-867 433.91,-883.25 465.55,-919.49 522.45,-923.79 564.68,-921"/>
<polygon fill="#999999" stroke="#999999" points="564.9,-922.74 569.75,-920.63 564.64,-919.25 564.9,-922.74"/>
</g>
<!-- L4YAML.Proofs.ScannerProofs.emit_tokens_size&#45;&gt;L4YAML.Positioned -->
<g id="edge15" class="edge">
<title>L4YAML.Proofs.ScannerProofs.emit_tokens_size&#45;&gt;L4YAML.Positioned</title>
<path fill="none" stroke="#999999" stroke-dasharray="1,5" d="M221.82,-338.08C247.61,-288.19 320.04,-163.97 422.91,-117.25 507.18,-78.97 773.23,-52.52 839.39,-117.25 872.08,-149.23 833.14,-901.47 857.39,-940.25 861.66,-947.08 868.27,-952.27 875.37,-956.17"/>
<polygon fill="#999999" stroke="#999999" points="874.59,-957.73 879.84,-958.44 876.17,-954.61 874.59,-957.73"/>
</g>
<!-- L4YAML.Proofs.ScannerProofs.emit_tokens_size&#45;&gt;L4YAML.Scanner.ScannerState -->
<g id="edge17" class="edge">
<title>L4YAML.Proofs.ScannerProofs.emit_tokens_size&#45;&gt;L4YAML.Scanner.ScannerState</title>
<path fill="none" stroke="#999999" stroke-dasharray="1,5" d="M219.65,-337.78C242.11,-282.4 310.58,-135.18 422.91,-79.25 588.61,3.26 703.1,46.01 839.39,-79.25 900.72,-135.62 908.74,-760.22 909.75,-889.8"/>
<polygon fill="#999999" stroke="#999999" points="908,-889.91 909.79,-894.9 911.5,-889.88 908,-889.91"/>
</g>
<!-- L4YAML.Proofs.ScannerProofs.emit_tokens_size&#45;&gt;L4YAML.YamlToken -->
<g id="edge16" class="edge">
<title>L4YAML.Proofs.ScannerProofs.emit_tokens_size&#45;&gt;L4YAML.YamlToken</title>
<path fill="none" stroke="#999999" stroke-dasharray="1,5" d="M224.9,-338.06C254.36,-293.9 329.49,-192.96 422.91,-155.25 501.52,-123.51 738.24,-102.22 804.39,-155.25 860.17,-199.96 830.63,-241.29 839.39,-312.25 844.03,-349.86 837.22,-962.15 857.39,-994.25 861.42,-1000.66 867.5,-1005.62 874.11,-1009.44"/>
<polygon fill="#999999" stroke="#999999" points="873.52,-1011.1 878.76,-1011.9 875.16,-1008.01 873.52,-1011.1"/>
</g>
<!-- L4YAML.Proofs.ScannerProofs.emit_tokens_size&#45;&gt;L4YAML.Scanner.ScannerState.tokens -->
<g id="edge13" class="edge">
<title>L4YAML.Proofs.ScannerProofs.emit_tokens_size&#45;&gt;L4YAML.Scanner.ScannerState.tokens</title>
<path fill="none" stroke="#999999" stroke-dasharray="1,5" d="M287.43,-343.72C407.69,-323.52 644.63,-301.97 804.39,-405.25 831.61,-422.85 830.87,-437.96 839.39,-469.25 856.29,-531.35 823.01,-993.83 857.39,-1048.25 858.56,-1050.1 859.9,-1051.83 861.37,-1053.45"/>
<polygon fill="#999999" stroke="#999999" points="860.24,-1054.78 865.04,-1057.02 862.68,-1052.27 860.24,-1054.78"/>
</g>
<!-- L4YAML.Proofs.ScannerProofs.emit_tokens_size&#45;&gt;L4YAML.Proofs.ScannerCorrectness.scanValue_adds_tokens -->
<g id="edge8" class="edge">
<title>L4YAML.Proofs.ScannerProofs.emit_tokens_size&#45;&gt;L4YAML.Proofs.ScannerCorrectness.scanValue_adds_tokens</title>
<path fill="none" stroke="#28a745" d="M322.22,-356.58C354.01,-360.62 387.03,-369.97 412.91,-389.25 553.01,-493.61 600.95,-717.61 613.99,-797.87"/>
<polygon fill="#28a745" stroke="#28a745" points="611.63,-798.65 615.14,-805.18 616.47,-797.89 611.63,-798.65"/>
</g>
<!-- L4YAML.Proofs.ScannerCorrectness.scanValueClearKey_preserves_tokens -->
<g id="node13" class="node">
<title>L4YAML.Proofs.ScannerCorrectness.scanValueClearKey_preserves_tokens</title>
<ellipse fill="#d4edda" stroke="#28a745" cx="210.45" cy="-479.25" rx="194.41" ry="21.43"/>
<text text-anchor="middle" x="210.45" y="-482.25" font-family="Helvetica" font-size="10.00">ScannerCorrectness.scanValueClearKey_preserves_tokens</text>
<text text-anchor="middle" x="210.45" y="-471.25" font-family="Helvetica" font-size="10.00">(ScannerCorrectness)</text>
</g>
<!-- L4YAML.Proofs.ScannerCorrectness.scanValueClearKey_preserves_tokens&#45;&gt;L4YAML.Positioned -->
<g id="edge19" class="edge">
<title>L4YAML.Proofs.ScannerCorrectness.scanValueClearKey_preserves_tokens&#45;&gt;L4YAML.Positioned</title>
<path fill="none" stroke="#999999" stroke-dasharray="1,5" d="M379.58,-468.71C391.54,-463.7 402.84,-457.32 412.91,-449.25 422.57,-441.5 413.37,-431.14 422.91,-423.25 426.74,-420.08 428.96,-421.69 433.91,-421.25 613.39,-405.06 709.77,-296.04 839.39,-421.25 880.89,-461.33 826.48,-891.52 857.39,-940.25 861.58,-946.86 867.94,-951.93 874.81,-955.78"/>
<polygon fill="#999999" stroke="#999999" points="874.38,-957.53 879.62,-958.27 875.98,-954.42 874.38,-957.53"/>
</g>
<!-- L4YAML.Proofs.ScannerCorrectness.scanValueClearKey_preserves_tokens&#45;&gt;L4YAML.Scanner.ScannerState -->
<g id="edge21" class="edge">
<title>L4YAML.Proofs.ScannerCorrectness.scanValueClearKey_preserves_tokens&#45;&gt;L4YAML.Scanner.ScannerState</title>
<path fill="none" stroke="#999999" stroke-dasharray="1,5" d="M383.58,-469.43C394.28,-464.18 404.22,-457.55 412.91,-449.25 435.17,-427.98 406.45,-397.16 433.91,-383.25 594.66,-301.79 703.82,-264.51 839.39,-383.25 878.2,-417.23 902.77,-791.83 908.56,-889.87"/>
<polygon fill="#999999" stroke="#999999" points="906.83,-890.24 908.87,-895.13 910.32,-890.04 906.83,-890.24"/>
</g>
<!-- L4YAML.Proofs.ScannerCorrectness.scanValueClearKey_preserves_tokens&#45;&gt;L4YAML.YamlToken -->
<g id="edge20" class="edge">
<title>L4YAML.Proofs.ScannerCorrectness.scanValueClearKey_preserves_tokens&#45;&gt;L4YAML.YamlToken</title>
<path fill="none" stroke="#999999" stroke-dasharray="1,5" d="M324.14,-462.01C368.9,-455.3 412.32,-449.02 422.91,-448.25 507.49,-442.08 738.99,-405.25 804.39,-459.25 859.52,-504.76 829.88,-545.39 839.39,-616.25 844.98,-657.92 834.64,-958.88 857.39,-994.25 861.49,-1000.62 867.6,-1005.56 874.22,-1009.37"/>
<polygon fill="#999999" stroke="#999999" points="873.62,-1011.04 878.86,-1011.83 875.26,-1007.94 873.62,-1011.04"/>
</g>
<!-- L4YAML.Proofs.ScannerCorrectness.scanValueClearKey_preserves_tokens&#45;&gt;L4YAML.Scanner.ScannerState.tokens -->
<g id="edge18" class="edge">
<title>L4YAML.Proofs.ScannerCorrectness.scanValueClearKey_preserves_tokens&#45;&gt;L4YAML.Scanner.ScannerState.tokens</title>
<path fill="none" stroke="#999999" stroke-dasharray="1,5" d="M371.04,-467.27C504.09,-466.39 689.78,-487.77 804.39,-597.25 847.04,-637.98 829.92,-667.03 839.39,-725.25 845.16,-760.72 837.82,-1018.1 857.39,-1048.25 858.58,-1050.08 859.94,-1051.8 861.43,-1053.41"/>
<polygon fill="#999999" stroke="#999999" points="860.31,-1054.76 865.13,-1056.96 862.73,-1052.23 860.31,-1054.76"/>
</g>
<!-- L4YAML.Proofs.ScannerCorrectness.scanValueClearKey_preserves_tokens&#45;&gt;L4YAML.Scanner.scanValueClearKey -->
<g id="edge22" class="edge">
<title>L4YAML.Proofs.ScannerCorrectness.scanValueClearKey_preserves_tokens&#45;&gt;L4YAML.Scanner.scanValueClearKey</title>
<path fill="none" stroke="#999999" stroke-dasharray="1,5" d="M386.45,-488.35C396.27,-493.82 405.24,-500.69 412.91,-509.25 452.92,-553.87 393.85,-1003.67 433.91,-1048.25 465.58,-1083.48 521.36,-1087.22 563.27,-1083.98"/>
<polygon fill="#999999" stroke="#999999" points="563.48,-1085.72 568.31,-1083.55 563.18,-1082.23 563.48,-1085.72"/>
</g>
<!-- L4YAML.Proofs.ScannerCorrectness.scanValueClearKey_preserves_tokens&#45;&gt;L4YAML.Proofs.ScannerCorrectness.scanValue_adds_tokens -->
<g id="edge9" class="edge">
<title>L4YAML.Proofs.ScannerCorrectness.scanValueClearKey_preserves_tokens&#45;&gt;L4YAML.Proofs.ScannerCorrectness.scanValue_adds_tokens</title>
<path fill="none" stroke="#28a745" d="M374.05,-490.82C387.77,-495.5 400.95,-501.53 412.91,-509.25 523.2,-580.37 586.32,-734.07 608.74,-798.21"/>
<polygon fill="#28a745" stroke="#28a745" points="606.44,-799.04 611.03,-804.86 611.07,-797.44 606.44,-799.04"/>
</g>
<!-- L4YAML.Proofs.ScannerCorrectness.advance_preserves_tokens -->
<g id="node14" class="node">
<title>L4YAML.Proofs.ScannerCorrectness.advance_preserves_tokens</title>
<ellipse fill="#d4edda" stroke="#28a745" cx="210.45" cy="-539.25" rx="160.53" ry="21.43"/>
<text text-anchor="middle" x="210.45" y="-542.25" font-family="Helvetica" font-size="10.00">ScannerCorrectness.advance_preserves_tokens</text>
<text text-anchor="middle" x="210.45" y="-531.25" font-family="Helvetica" font-size="10.00">(ScannerCorrectness)</text>
</g>
<!-- L4YAML.Proofs.ScannerCorrectness.advance_preserves_tokens&#45;&gt;L4YAML.Positioned -->
<g id="edge25" class="edge">
<title>L4YAML.Proofs.ScannerCorrectness.advance_preserves_tokens&#45;&gt;L4YAML.Positioned</title>
<path fill="none" stroke="#999999" stroke-dasharray="1,5" d="M370.4,-537.02C545.56,-536.24 806.97,-540.67 839.39,-573.25 868.18,-602.19 835.27,-905.93 857.39,-940.25 861.63,-946.83 868.01,-951.88 874.88,-955.74"/>
<polygon fill="#999999" stroke="#999999" points="874.45,-957.49 879.69,-958.22 876.05,-954.38 874.45,-957.49"/>
</g>
<!-- L4YAML.Proofs.ScannerCorrectness.advance_preserves_tokens&#45;&gt;L4YAML.Scanner.ScannerState.advance -->
<g id="edge24" class="edge">
<title>L4YAML.Proofs.ScannerCorrectness.advance_preserves_tokens&#45;&gt;L4YAML.Scanner.ScannerState.advance</title>
<path fill="none" stroke="#999999" stroke-dasharray="1,5" d="M370.68,-541.27C386.64,-547.45 401.23,-556.45 412.91,-569.25 426.83,-584.49 419.97,-925.01 433.91,-940.25 463.98,-973.12 515.07,-978.42 555.83,-976.31"/>
<polygon fill="#999999" stroke="#999999" points="556.37,-978.03 561.25,-975.99 556.16,-974.54 556.37,-978.03"/>
</g>
<!-- L4YAML.Proofs.ScannerCorrectness.advance_preserves_tokens&#45;&gt;L4YAML.Scanner.ScannerState -->
<g id="edge27" class="edge">
<title>L4YAML.Proofs.ScannerCorrectness.advance_preserves_tokens&#45;&gt;L4YAML.Scanner.ScannerState</title>
<path fill="none" stroke="#999999" stroke-dasharray="1,5" d="M315.18,-523.13C472.78,-501.14 762.4,-471.29 839.39,-535.25 894.42,-580.97 906.72,-815.14 909.27,-890.12"/>
<polygon fill="#999999" stroke="#999999" points="907.52,-890.3 909.43,-895.24 911.02,-890.18 907.52,-890.3"/>
</g>
<!-- L4YAML.Proofs.ScannerCorrectness.advance_preserves_tokens&#45;&gt;L4YAML.YamlToken -->
<g id="edge26" class="edge">
<title>L4YAML.Proofs.ScannerCorrectness.advance_preserves_tokens&#45;&gt;L4YAML.YamlToken</title>
<path fill="none" stroke="#999999" stroke-dasharray="1,5" d="M335.6,-552.56C506.85,-571.17 795.63,-603.56 804.39,-611.25 851.32,-652.39 829.3,-685.65 839.39,-747.25 848.28,-801.56 827.03,-948.34 857.39,-994.25 861.52,-1000.5 867.58,-1005.38 874.12,-1009.17"/>
<polygon fill="#999999" stroke="#999999" points="873.48,-1010.81 878.71,-1011.62 875.12,-1007.72 873.48,-1010.81"/>
</g>
<!-- L4YAML.Proofs.ScannerCorrectness.advance_preserves_tokens&#45;&gt;L4YAML.Scanner.ScannerState.tokens -->
<g id="edge23" class="edge">
<title>L4YAML.Proofs.ScannerCorrectness.advance_preserves_tokens&#45;&gt;L4YAML.Scanner.ScannerState.tokens</title>
<path fill="none" stroke="#999999" stroke-dasharray="1,5" d="M360.53,-546.8C379.07,-551.88 397.05,-559.1 412.91,-569.25 427.24,-578.41 420.37,-590.94 433.91,-601.25 571.54,-705.97 671.07,-610.08 804.39,-720.25 829.38,-740.9 830.3,-753.13 839.39,-784.25 855.88,-840.69 825.07,-999.12 857.39,-1048.25 858.59,-1050.08 859.96,-1051.79 861.46,-1053.39"/>
<polygon fill="#999999" stroke="#999999" points="860.35,-1054.75 865.17,-1056.93 862.76,-1052.21 860.35,-1054.75"/>
</g>
<!-- L4YAML.Proofs.ScannerCorrectness.advance_preserves_tokens&#45;&gt;L4YAML.Proofs.ScannerCorrectness.scanValue_adds_tokens -->
<g id="edge7" class="edge">
<title>L4YAML.Proofs.ScannerCorrectness.advance_preserves_tokens&#45;&gt;L4YAML.Proofs.ScannerCorrectness.scanValue_adds_tokens</title>
<path fill="none" stroke="#28a745" d="M369.02,-542.89C385.27,-548.79 400.38,-557.28 412.91,-569.25 429.61,-585.2 414.79,-598.62 422.91,-620.25 426.34,-629.38 428,-631.48 433.91,-639.25 481.49,-701.83 548.33,-765.2 587.05,-800.04"/>
<polygon fill="#28a745" stroke="#28a745" points="585.7,-802.12 592.55,-804.97 588.97,-798.47 585.7,-802.12"/>
</g>
<!-- L4YAML.Proofs.ScannerCorrectness.scanValue_adds_tokens._proof_1_2 -->
<g id="node15" class="node">
<title>L4YAML.Proofs.ScannerCorrectness.scanValue_adds_tokens._proof_1_2</title>
<ellipse fill="#d4edda" stroke="#28a745" cx="210.45" cy="-599.25" rx="187.27" ry="21.43"/>
<text text-anchor="middle" x="210.45" y="-602.25" font-family="Helvetica" font-size="10.00">ScannerCorrectness.scanValue_adds_tokens._proof_1_2</text>
<text text-anchor="middle" x="210.45" y="-591.25" font-family="Helvetica" font-size="10.00">(ScannerCorrectness)</text>
</g>
<!-- L4YAML.Proofs.ScannerCorrectness.scanValue_adds_tokens._proof_1_2&#45;&gt;L4YAML.Positioned -->
<g id="edge29" class="edge">
<title>L4YAML.Proofs.ScannerCorrectness.scanValue_adds_tokens._proof_1_2&#45;&gt;L4YAML.Positioned</title>
<path fill="none" stroke="#999999" stroke-dasharray="1,5" d="M293.18,-618.35C335.17,-627.98 387.19,-639.62 433.91,-649.25 613.49,-686.24 716.5,-589.17 839.39,-725.25 871.52,-760.83 830.73,-900.4 857.39,-940.25 861.74,-946.75 868.17,-951.78 875.05,-955.63"/>
<polygon fill="#999999" stroke="#999999" points="874.62,-957.38 879.86,-958.11 876.22,-954.27 874.62,-957.38"/>
</g>
<!-- L4YAML.Proofs.ScannerCorrectness.scanValue_adds_tokens._proof_1_2&#45;&gt;L4YAML.Scanner.ScannerState -->
<g id="edge32" class="edge">
<title>L4YAML.Proofs.ScannerCorrectness.scanValue_adds_tokens._proof_1_2&#45;&gt;L4YAML.Scanner.ScannerState</title>
<path fill="none" stroke="#999999" stroke-dasharray="1,5" d="M394.08,-603.6C555.07,-611.16 773.93,-631.68 839.39,-687.25 900.64,-739.24 909.45,-843.59 910.2,-890.03"/>
<polygon fill="#999999" stroke="#999999" points="908.45,-890.16 910.25,-895.14 911.95,-890.12 908.45,-890.16"/>
</g>
<!-- L4YAML.Proofs.ScannerCorrectness.scanValue_adds_tokens._proof_1_2&#45;&gt;L4YAML.YamlToken -->
<g id="edge31" class="edge">
<title>L4YAML.Proofs.ScannerCorrectness.scanValue_adds_tokens._proof_1_2&#45;&gt;L4YAML.YamlToken</title>
<path fill="none" stroke="#999999" stroke-dasharray="1,5" d="M258.88,-619.83C303.43,-638.57 372.26,-666.01 433.91,-684.25 611.9,-736.88 741.12,-626.78 839.39,-784.25 888.98,-863.71 805.22,-916.44 857.39,-994.25 861.56,-1000.47 867.63,-1005.34 874.18,-1009.13"/>
<polygon fill="#999999" stroke="#999999" points="873.54,-1010.77 878.77,-1011.57 875.18,-1007.68 873.54,-1010.77"/>
</g>
<!-- L4YAML.Proofs.ScannerCorrectness.scanValue_adds_tokens._proof_1_2&#45;&gt;L4YAML.Scanner.ScannerState.tokens -->
<g id="edge28" class="edge">
<title>L4YAML.Proofs.ScannerCorrectness.scanValue_adds_tokens._proof_1_2&#45;&gt;L4YAML.Scanner.ScannerState.tokens</title>
<path fill="none" stroke="#999999" stroke-dasharray="1,5" d="M241.22,-620.21C282.51,-648.26 360.41,-697.58 433.91,-724.25 591.36,-781.37 689.36,-671.51 804.39,-793.25 816.39,-805.95 807.66,-855.12 814.39,-871.25 821.34,-887.9 832.47,-886.58 839.39,-903.25 864.28,-963.22 820.21,-995 857.39,-1048.25 858.78,-1050.24 860.37,-1052.1 862.1,-1053.83"/>
<polygon fill="#999999" stroke="#999999" points="860.96,-1055.15 865.85,-1057.2 863.3,-1052.55 860.96,-1055.15"/>
</g>
<!-- L4YAML.Proofs.ScannerCorrectness.scanValue_adds_tokens._proof_1_2&#45;&gt;L4YAML.Scanner.scanValuePrepare -->
<g id="edge30" class="edge">
<title>L4YAML.Proofs.ScannerCorrectness.scanValue_adds_tokens._proof_1_2&#45;&gt;L4YAML.Scanner.scanValuePrepare</title>
<path fill="none" stroke="#999999" stroke-dasharray="1,5" d="M235.62,-620.31C279.22,-659.9 370.48,-750.16 412.91,-847.25 426.12,-877.48 410.62,-970.87 433.91,-994.25 467.89,-1028.35 524.7,-1031.91 566.27,-1028.92"/>
<polygon fill="#999999" stroke="#999999" points="566.41,-1030.67 571.26,-1028.53 566.14,-1027.18 566.41,-1030.67"/>
</g>
<!-- L4YAML.Proofs.ScannerCorrectness.scanValue_adds_tokens._proof_1_2&#45;&gt;L4YAML.Scanner.scanValueClearKey -->
<g id="edge33" class="edge">
<title>L4YAML.Proofs.ScannerCorrectness.scanValue_adds_tokens._proof_1_2&#45;&gt;L4YAML.Scanner.scanValueClearKey</title>
<path fill="none" stroke="#999999" stroke-dasharray="1,5" d="M236.32,-620.47C280.64,-659.97 372.43,-749.64 412.91,-847.25 430.11,-888.73 402.82,-1015.84 433.91,-1048.25 466.6,-1082.32 521.96,-1086.3 563.48,-1083.44"/>
<polygon fill="#999999" stroke="#999999" points="563.63,-1085.18 568.48,-1083.05 563.36,-1081.69 563.63,-1085.18"/>
</g>
<!-- L4YAML.Proofs.ScannerCorrectness.scanValue_adds_tokens._proof_1_2&#45;&gt;L4YAML.Proofs.ScannerCorrectness.scanValue_adds_tokens -->
<g id="edge10" class="edge">
<title>L4YAML.Proofs.ScannerCorrectness.scanValue_adds_tokens._proof_1_2&#45;&gt;L4YAML.Proofs.ScannerCorrectness.scanValue_adds_tokens</title>
<path fill="none" stroke="#28a745" d="M229.18,-620.62C262.84,-659.8 340.06,-743.22 422.91,-788.25 439.75,-797.4 458.45,-804.41 477.42,-809.79"/>
<polygon fill="#28a745" stroke="#28a745" points="477.02,-812.22 484.41,-811.7 478.31,-807.49 477.02,-812.22"/>
</g>
<!-- L4YAML.Proofs.ScannerCorrectness.scanValuePrepare_tokens_monotonic -->
<g id="node16" class="node">
<title>L4YAML.Proofs.ScannerCorrectness.scanValuePrepare_tokens_monotonic</title>
<ellipse fill="#d4edda" stroke="#28a745" cx="210.45" cy="-419.25" rx="192.17" ry="21.43"/>
<text text-anchor="middle" x="210.45" y="-422.25" font-family="Helvetica" font-size="10.00">ScannerCorrectness.scanValuePrepare_tokens_monotonic</text>
<text text-anchor="middle" x="210.45" y="-411.25" font-family="Helvetica" font-size="10.00">(ScannerCorrectness)</text>
</g>
<!-- L4YAML.Proofs.ScannerCorrectness.scanValuePrepare_tokens_monotonic&#45;&gt;L4YAML.Positioned -->
<g id="edge35" class="edge">
<title>L4YAML.Proofs.ScannerCorrectness.scanValuePrepare_tokens_monotonic&#45;&gt;L4YAML.Positioned</title>
<path fill="none" stroke="#999999" stroke-dasharray="1,5" d="M385.1,-410.24C395.38,-404.78 404.81,-397.89 412.91,-389.25 431.21,-369.72 403.22,-287.36 422.91,-269.25 491.02,-206.58 773.07,-204.69 839.39,-269.25 866.11,-295.26 837.54,-908.68 857.39,-940.25 861.68,-947.07 868.29,-952.25 875.39,-956.15"/>
<polygon fill="#999999" stroke="#999999" points="874.61,-957.72 879.86,-958.42 876.19,-954.6 874.61,-957.72"/>
</g>
<!-- L4YAML.Proofs.ScannerCorrectness.scanValuePrepare_tokens_monotonic&#45;&gt;L4YAML.Scanner.ScannerState -->
<g id="edge38" class="edge">
<title>L4YAML.Proofs.ScannerCorrectness.scanValuePrepare_tokens_monotonic&#45;&gt;L4YAML.Scanner.ScannerState</title>
<path fill="none" stroke="#999999" stroke-dasharray="1,5" d="M385.75,-410.17C395.8,-404.71 405.01,-397.83 412.91,-389.25 436.42,-363.67 399.81,-259.19 422.91,-233.25 546,-95 701.94,-107.27 839.39,-231.25 889.42,-276.37 906.1,-775.11 909.29,-889.82"/>
<polygon fill="#999999" stroke="#999999" points="907.54,-890.04 909.43,-894.99 911.04,-889.94 907.54,-890.04"/>
</g>
<!-- L4YAML.Proofs.ScannerCorrectness.scanValuePrepare_tokens_monotonic&#45;&gt;L4YAML.YamlToken -->
<g id="edge37" class="edge">
<title>L4YAML.Proofs.ScannerCorrectness.scanValuePrepare_tokens_monotonic&#45;&gt;L4YAML.YamlToken</title>
<path fill="none" stroke="#999999" stroke-dasharray="1,5" d="M384.86,-410.01C395.19,-404.6 404.7,-397.79 412.91,-389.25 427.16,-374.42 407.6,-310.98 422.91,-297.25 486.03,-240.61 738.96,-253.3 804.39,-307.25 859.88,-353 830.35,-393.89 839.39,-465.25 843.08,-494.42 841.65,-969.41 857.39,-994.25 861.44,-1000.65 867.54,-1005.6 874.15,-1009.41"/>
<polygon fill="#999999" stroke="#999999" points="873.56,-1011.08 878.8,-1011.87 875.2,-1007.99 873.56,-1011.08"/>
</g>
<!-- L4YAML.Proofs.ScannerCorrectness.scanValuePrepare_tokens_monotonic&#45;&gt;L4YAML.Scanner.ScannerState.tokens -->
<g id="edge34" class="edge">
<title>L4YAML.Proofs.ScannerCorrectness.scanValuePrepare_tokens_monotonic&#45;&gt;L4YAML.Scanner.ScannerState.tokens</title>
<path fill="none" stroke="#999999" stroke-dasharray="1,5" d="M386.56,-410.67C538.41,-407.07 743.14,-412.67 804.39,-464.25 853.12,-505.28 830.27,-540.19 839.39,-603.25 846.47,-652.22 830.76,-1006.53 857.39,-1048.25 858.57,-1050.09 859.91,-1051.82 861.4,-1053.43"/>
<polygon fill="#999999" stroke="#999999" points="860.26,-1054.77 865.07,-1057 862.7,-1052.26 860.26,-1054.77"/>
</g>
<!-- L4YAML.Proofs.ScannerCorrectness.scanValuePrepare_tokens_monotonic&#45;&gt;L4YAML.Scanner.scanValuePrepare -->
<g id="edge36" class="edge">
<title>L4YAML.Proofs.ScannerCorrectness.scanValuePrepare_tokens_monotonic&#45;&gt;L4YAML.Scanner.scanValuePrepare</title>
<path fill="none" stroke="#999999" stroke-dasharray="1,5" d="M386,-428.1C395.99,-433.61 405.12,-440.56 412.91,-449.25 433.13,-471.81 413.66,-971.7 433.91,-994.25 466.4,-1030.41 524.3,-1033.4 566.54,-1029.72"/>
<polygon fill="#999999" stroke="#999999" points="566.8,-1031.45 571.61,-1029.24 566.47,-1027.97 566.8,-1031.45"/>
</g>
<!-- L4YAML.Proofs.ScannerCorrectness.scanValuePrepare_tokens_monotonic&#45;&gt;L4YAML.Proofs.ScannerCorrectness.scanValue_adds_tokens -->
<g id="edge11" class="edge">
<title>L4YAML.Proofs.ScannerCorrectness.scanValuePrepare_tokens_monotonic&#45;&gt;L4YAML.Proofs.ScannerCorrectness.scanValue_adds_tokens</title>
<path fill="none" stroke="#28a745" d="M375.7,-430.23C388.92,-435.07 401.54,-441.29 412.91,-449.25 538.01,-536.79 594.2,-725.64 611.76,-798.11"/>
<polygon fill="#28a745" stroke="#28a745" points="609.43,-798.91 613.43,-805.16 614.2,-797.78 609.43,-798.91"/>
</g>
<!-- Decidable.byContradiction -->
<g id="node17" class="node">
<title>Decidable.byContradiction</title>
<ellipse fill="#fdebd0" stroke="#e67e22" cx="210.45" cy="-877.25" rx="77.23" ry="18"/>
<text text-anchor="middle" x="210.45" y="-874.75" font-family="Helvetica" font-size="10.00">Decidable.byContradiction</text>
</g>
<!-- Decidable.byContradiction&#45;&gt;L4YAML.Proofs.ScannerCorrectness.scanValue_adds_tokens -->
<g id="edge12" class="edge">
<title>Decidable.byContradiction&#45;&gt;L4YAML.Proofs.ScannerCorrectness.scanValue_adds_tokens</title>
<path fill="none" stroke="#e67e22" stroke-width="2" d="M279.07,-868.93C333.99,-862.18 413.22,-852.44 481.28,-844.07"/>
<polygon fill="#e67e22" stroke="#e67e22" stroke-width="2" points="481.61,-846.5 488.25,-843.21 481.01,-841.64 481.61,-846.5"/>
</g>
</g>
</svg>
