<?xml version="1.0" encoding="UTF-8" standalone="no"?>
<!DOCTYPE svg PUBLIC "-//W3C//DTD SVG 1.1//EN"
 "http://www.w3.org/Graphics/SVG/1.1/DTD/svg11.dtd">
<!-- Generated by graphviz version 2.44.0 (0)
 -->
<!-- Title: ScannerPlainScalarValid.PlainScalarsValid_of_prefix_and_new Pages: 1 -->
<svg width="1344pt" height="580pt"
 viewBox="0.00 0.00 1344.24 580.00" xmlns="http://www.w3.org/2000/svg" xmlns:xlink="http://www.w3.org/1999/xlink">
<g id="graph0" class="graph" transform="scale(1 1) rotate(0) translate(4 576)">
<title>ScannerPlainScalarValid.PlainScalarsValid_of_prefix_and_new</title>
<polygon fill="white" stroke="transparent" points="-4,4 -4,-576 1340.24,-576 1340.24,4 -4,4"/>
<text text-anchor="middle" x="668.12" y="-557.6" font-family="Helvetica Bold" font-size="13.00">ScannerPlainScalarValid.PlainScalarsValid_of_prefix_and_new</text>
<text text-anchor="middle" x="668.12" y="-543.6" font-family="Helvetica Bold" font-size="13.00">(heuristic: used by 6 proofs)</text>
<text text-anchor="middle" x="668.12" y="-529.6" font-family="Helvetica Bold" font-size="13.00">(L4YAML.Proofs.ScannerPlainScalarValid)</text>
<g id="clust1" class="cluster">
<title>cluster_functions</title>
<polygon fill="none" stroke="#4a90d9" stroke-dasharray="5,2" points="1069.24,-8 1069.24,-514 1328.24,-514 1328.24,-8 1069.24,-8"/>
<text text-anchor="middle" x="1198.74" y="-499.6" font-family="Helvetica Bold" font-size="13.00" fill="#4a90d9">Functions</text>
</g>
<g id="clust2" class="cluster">
<title>cluster_key</title>
<polygon fill="none" stroke="#d4a017" stroke-dasharray="5,2" points="525.83,-188 525.83,-270 1024.24,-270 1024.24,-188 525.83,-188"/>
<text text-anchor="middle" x="775.04" y="-255.6" font-family="Helvetica Bold" font-size="13.00" fill="#d4a017">Key Theorem</text>
</g>
<g id="clust3" class="cluster">
<title>cluster_proofs</title>
<polygon fill="none" stroke="#28a745" stroke-dasharray="5,2" points="8,-24 8,-164 504.83,-164 504.83,-24 8,-24"/>
<text text-anchor="middle" x="256.42" y="-149.6" font-family="Helvetica Bold" font-size="13.00" fill="#28a745">Proof Dependencies</text>
</g>
<g id="clust4" class="cluster">
<title>cluster_stdlib</title>
<polygon fill="none" stroke="#e67e22" stroke-dasharray="5,2" points="171.3,-192 171.3,-266 341.53,-266 341.53,-192 171.3,-192"/>
<text text-anchor="middle" x="256.42" y="-251.6" font-family="Helvetica Bold" font-size="13.00" fill="#e67e22">Stdlib Lemmas</text>
</g>
<!-- L4YAML.Positioned -->
<g id="node1" class="node">
<title>L4YAML.Positioned</title>
<polygon fill="#dce9f7" stroke="#4a90d9" points="1229.74,-106 1167.74,-106 1167.74,-70 1229.74,-70 1229.74,-106"/>
<text text-anchor="middle" x="1198.74" y="-91" font-family="Helvetica" font-size="10.00">Positioned</text>
<text text-anchor="middle" x="1198.74" y="-80" font-family="Helvetica" font-size="10.00">(inductive)</text>
</g>
<!-- L4YAML.Positioned.val -->
<g id="node2" class="node">
<title>L4YAML.Positioned.val</title>
<polygon fill="#dce9f7" stroke="#4a90d9" points="1237.24,-430 1160.24,-430 1160.24,-394 1237.24,-394 1237.24,-430"/>
<text text-anchor="middle" x="1198.74" y="-415" font-family="Helvetica" font-size="10.00">Positioned.val</text>
<text text-anchor="middle" x="1198.74" y="-404" font-family="Helvetica" font-size="10.00">(def)</text>
</g>
<!-- L4YAML.Scalar.mk -->
<g id="node3" class="node">
<title>L4YAML.Scalar.mk</title>
<polygon fill="#dce9f7" stroke="#4a90d9" points="1229.24,-376 1168.24,-376 1168.24,-340 1229.24,-340 1229.24,-376"/>
<text text-anchor="middle" x="1198.74" y="-361" font-family="Helvetica" font-size="10.00">Scalar.mk</text>
<text text-anchor="middle" x="1198.74" y="-350" font-family="Helvetica" font-size="10.00">(ctor)</text>
</g>
<!-- L4YAML.YamlToken -->
<g id="node4" class="node">
<title>L4YAML.YamlToken</title>
<polygon fill="#dce9f7" stroke="#4a90d9" points="1230.74,-52 1166.74,-52 1166.74,-16 1230.74,-16 1230.74,-52"/>
<text text-anchor="middle" x="1198.74" y="-37" font-family="Helvetica" font-size="10.00">YamlToken</text>
<text text-anchor="middle" x="1198.74" y="-26" font-family="Helvetica" font-size="10.00">(inductive)</text>
</g>
<!-- L4YAML.Proofs.ScannerPlainScalarValid.PlainScalarsValid -->
<g id="node5" class="node">
<title>L4YAML.Proofs.ScannerPlainScalarValid.PlainScalarsValid</title>
<polygon fill="#dce9f7" stroke="#4a90d9" points="1300.24,-322 1097.24,-322 1097.24,-286 1300.24,-286 1300.24,-322"/>
<text text-anchor="middle" x="1198.74" y="-307" font-family="Helvetica" font-size="10.00">ScannerPlainScalarValid.PlainScalarsValid</text>
<text text-anchor="middle" x="1198.74" y="-296" font-family="Helvetica" font-size="10.00">(def)</text>
</g>
<!-- L4YAML.BlockScalarMeta -->
<g id="node6" class="node">
<title>L4YAML.BlockScalarMeta</title>
<polygon fill="#dce9f7" stroke="#4a90d9" points="1244.24,-268 1153.24,-268 1153.24,-232 1244.24,-232 1244.24,-268"/>
<text text-anchor="middle" x="1198.74" y="-253" font-family="Helvetica" font-size="10.00">BlockScalarMeta</text>
<text text-anchor="middle" x="1198.74" y="-242" font-family="Helvetica" font-size="10.00">(inductive)</text>
</g>
<!-- L4YAML.ScalarStyle.plain -->
<g id="node7" class="node">
<title>L4YAML.ScalarStyle.plain</title>
<polygon fill="#dce9f7" stroke="#4a90d9" points="1243.74,-214 1153.74,-214 1153.74,-178 1243.74,-178 1243.74,-214"/>
<text text-anchor="middle" x="1198.74" y="-199" font-family="Helvetica" font-size="10.00">ScalarStyle.plain</text>
<text text-anchor="middle" x="1198.74" y="-188" font-family="Helvetica" font-size="10.00">(ctor)</text>
</g>
<!-- L4YAML.Grammar.ScalarScannable -->
<g id="node8" class="node">
<title>L4YAML.Grammar.ScalarScannable</title>
<polygon fill="#dce9f7" stroke="#4a90d9" points="1265.74,-160 1131.74,-160 1131.74,-124 1265.74,-124 1265.74,-160"/>
<text text-anchor="middle" x="1198.74" y="-145" font-family="Helvetica" font-size="10.00">Grammar.ScalarScannable</text>
<text text-anchor="middle" x="1198.74" y="-134" font-family="Helvetica" font-size="10.00">(def)</text>
</g>
<!-- L4YAML.Proofs.ScannerPlainScalarValid.PlainScalarsValid.match_1 -->
<g id="node9" class="node">
<title>L4YAML.Proofs.ScannerPlainScalarValid.PlainScalarsValid.match_1</title>
<polygon fill="#dce9f7" stroke="#4a90d9" points="1320.24,-484 1077.24,-484 1077.24,-448 1320.24,-448 1320.24,-484"/>
<text text-anchor="middle" x="1198.74" y="-469" font-family="Helvetica" font-size="10.00">ScannerPlainScalarValid.PlainScalarsValid.match_1</text>
<text text-anchor="middle" x="1198.74" y="-458" font-family="Helvetica" font-size="10.00">(def)</text>
</g>
<!-- L4YAML.Proofs.ScannerPlainScalarValid.PlainScalarsValid_of_prefix_and_new -->
<g id="node10" class="node">
<title>L4YAML.Proofs.ScannerPlainScalarValid.PlainScalarsValid_of_prefix_and_new</title>
<polygon fill="#fff3cd" stroke="#d4a017" points="1012.44,-210.54 1012.44,-225.46 873.37,-236 676.7,-236 537.63,-225.46 537.63,-210.54 676.7,-200 873.37,-200 1012.44,-210.54"/>
<polygon fill="none" stroke="#d4a017" points="1016.45,-206.84 1016.45,-229.16 873.53,-240 676.55,-240 533.63,-229.16 533.63,-206.84 676.55,-196 873.53,-196 1016.45,-206.84"/>
<text text-anchor="middle" x="775.04" y="-214.9" font-family="Helvetica" font-size="12.00">ScannerPlainScalarValid.PlainScalarsValid_of_prefix_and_new</text>
</g>
<!-- L4YAML.Proofs.ScannerPlainScalarValid.PlainScalarsValid_of_prefix_and_new&#45;&gt;L4YAML.Positioned -->
<g id="edge3" class="edge">
<title>L4YAML.Proofs.ScannerPlainScalarValid.PlainScalarsValid_of_prefix_and_new&#45;&gt;L4YAML.Positioned</title>
<path fill="none" stroke="#4a90d9" stroke-width="2" d="M909.71,-198.73C960.54,-186.23 1016.45,-165.69 1059.24,-132 1066.13,-126.58 1062.12,-120.12 1069.24,-115 1095.84,-95.89 1133.05,-89.72 1160.59,-87.99"/>
<polygon fill="#4a90d9" stroke="#4a90d9" stroke-width="2" points="1160.86,-90.43 1167.73,-87.63 1160.61,-85.54 1160.86,-90.43"/>
<text text-anchor="middle" x="1046.74" y="-147.6" font-family="Times-Roman" font-size="8.00" fill="#4a90d9">about</text>
</g>
<!-- L4YAML.Proofs.ScannerPlainScalarValid.PlainScalarsValid_of_prefix_and_new&#45;&gt;L4YAML.Positioned.val -->
<g id="edge5" class="edge">
<title>L4YAML.Proofs.ScannerPlainScalarValid.PlainScalarsValid_of_prefix_and_new&#45;&gt;L4YAML.Positioned.val</title>
<path fill="none" stroke="#4a90d9" stroke-width="2" d="M807.38,-240.25C859.33,-276.1 967.63,-346.47 1069.24,-385 1096.23,-395.23 1127.95,-401.95 1153.12,-406.12"/>
<polygon fill="#4a90d9" stroke="#4a90d9" stroke-width="2" points="1152.74,-408.54 1160.04,-407.23 1153.52,-403.7 1152.74,-408.54"/>
<text text-anchor="middle" x="1046.74" y="-380.6" font-family="Times-Roman" font-size="8.00" fill="#4a90d9">about</text>
</g>
<!-- L4YAML.Proofs.ScannerPlainScalarValid.PlainScalarsValid_of_prefix_and_new&#45;&gt;L4YAML.Scalar.mk -->
<g id="edge4" class="edge">
<title>L4YAML.Proofs.ScannerPlainScalarValid.PlainScalarsValid_of_prefix_and_new&#45;&gt;L4YAML.Scalar.mk</title>
<path fill="none" stroke="#4a90d9" stroke-width="2" d="M826.03,-240.11C883.72,-264.95 981.88,-305.17 1069.24,-331 1099.72,-340.01 1135.1,-347.21 1161.02,-351.91"/>
<polygon fill="#4a90d9" stroke="#4a90d9" stroke-width="2" points="1160.74,-354.35 1168.06,-353.16 1161.6,-349.52 1160.74,-354.35"/>
<text text-anchor="middle" x="1046.74" y="-328.6" font-family="Times-Roman" font-size="8.00" fill="#4a90d9">about</text>
</g>
<!-- L4YAML.Proofs.ScannerPlainScalarValid.PlainScalarsValid_of_prefix_and_new&#45;&gt;L4YAML.YamlToken -->
<g id="edge6" class="edge">
<title>L4YAML.Proofs.ScannerPlainScalarValid.PlainScalarsValid_of_prefix_and_new&#45;&gt;L4YAML.YamlToken</title>
<path fill="none" stroke="#4a90d9" stroke-width="2" d="M829.66,-195.98C881.2,-173.87 960.44,-137.37 1024.24,-97 1045.89,-83.3 1046.08,-71.93 1069.24,-61 1097.79,-47.53 1133.06,-40.73 1159.42,-37.33"/>
<polygon fill="#4a90d9" stroke="#4a90d9" stroke-width="2" points="1159.95,-39.73 1166.6,-36.46 1159.36,-34.87 1159.95,-39.73"/>
<text text-anchor="middle" x="1046.74" y="-91.6" font-family="Times-Roman" font-size="8.00" fill="#4a90d9">about</text>
</g>
<!-- L4YAML.Proofs.ScannerPlainScalarValid.PlainScalarsValid_of_prefix_and_new&#45;&gt;L4YAML.Proofs.ScannerPlainScalarValid.PlainScalarsValid -->
<g id="edge1" class="edge">
<title>L4YAML.Proofs.ScannerPlainScalarValid.PlainScalarsValid_of_prefix_and_new&#45;&gt;L4YAML.Proofs.ScannerPlainScalarValid.PlainScalarsValid</title>
<path fill="none" stroke="#4a90d9" stroke-width="2" d="M881.36,-239.48C949.15,-253.3 1036.55,-271.13 1102.3,-284.54"/>
<polygon fill="#4a90d9" stroke="#4a90d9" stroke-width="2" points="1102.06,-286.99 1109.4,-285.98 1103.03,-282.19 1102.06,-286.99"/>
<text text-anchor="middle" x="1046.74" y="-275.6" font-family="Times-Roman" font-size="8.00" fill="#4a90d9">about</text>
</g>
<!-- L4YAML.Proofs.ScannerPlainScalarValid.PlainScalarsValid_of_prefix_and_new&#45;&gt;L4YAML.BlockScalarMeta -->
<g id="edge2" class="edge">
<title>L4YAML.Proofs.ScannerPlainScalarValid.PlainScalarsValid_of_prefix_and_new&#45;&gt;L4YAML.BlockScalarMeta</title>
<path fill="none" stroke="#4a90d9" stroke-width="2" d="M969.92,-232.71C1034.68,-237.63 1101.59,-242.7 1146,-246.07"/>
<polygon fill="#4a90d9" stroke="#4a90d9" stroke-width="2" points="1146.04,-248.53 1153.2,-246.62 1146.41,-243.65 1146.04,-248.53"/>
<text text-anchor="middle" x="1046.74" y="-240.6" font-family="Times-Roman" font-size="8.00" fill="#4a90d9">about</text>
</g>
<!-- L4YAML.Proofs.ScannerPlainScalarValid.PlainScalarsValid_of_prefix_and_new&#45;&gt;L4YAML.ScalarStyle.plain -->
<g id="edge9" class="edge">
<title>L4YAML.Proofs.ScannerPlainScalarValid.PlainScalarsValid_of_prefix_and_new&#45;&gt;L4YAML.ScalarStyle.plain</title>
<path fill="none" stroke="#4a90d9" stroke-width="2" d="M1005.71,-206.02C1058.71,-203.25 1110.12,-200.57 1146.38,-198.68"/>
<polygon fill="#4a90d9" stroke="#4a90d9" stroke-width="2" points="1146.57,-201.12 1153.43,-198.31 1146.31,-196.23 1146.57,-201.12"/>
<text text-anchor="middle" x="1046.74" y="-206.6" font-family="Times-Roman" font-size="8.00" fill="#4a90d9">about</text>
</g>
<!-- L4YAML.Proofs.ScannerPlainScalarValid.PlainScalarsValid_of_prefix_and_new&#45;&gt;L4YAML.Grammar.ScalarScannable -->
<g id="edge8" class="edge">
<title>L4YAML.Proofs.ScannerPlainScalarValid.PlainScalarsValid_of_prefix_and_new&#45;&gt;L4YAML.Grammar.ScalarScannable</title>
<path fill="none" stroke="#4a90d9" stroke-width="2" d="M890.99,-197.28C965.47,-183.86 1060.22,-166.78 1124.58,-155.19"/>
<polygon fill="#4a90d9" stroke="#4a90d9" stroke-width="2" points="1125.03,-157.59 1131.49,-153.94 1124.16,-152.77 1125.03,-157.59"/>
<text text-anchor="middle" x="1046.74" y="-172.6" font-family="Times-Roman" font-size="8.00" fill="#4a90d9">about</text>
</g>
<!-- L4YAML.Proofs.ScannerPlainScalarValid.PlainScalarsValid_of_prefix_and_new&#45;&gt;L4YAML.Proofs.ScannerPlainScalarValid.PlainScalarsValid.match_1 -->
<g id="edge7" class="edge">
<title>L4YAML.Proofs.ScannerPlainScalarValid.PlainScalarsValid_of_prefix_and_new&#45;&gt;L4YAML.Proofs.ScannerPlainScalarValid.PlainScalarsValid.match_1</title>
<path fill="none" stroke="#4a90d9" stroke-width="2" d="M798.06,-240.21C844.05,-285.23 955.5,-387.32 1069.24,-439 1074.61,-441.44 1080.21,-443.66 1085.93,-445.69"/>
<polygon fill="#4a90d9" stroke="#4a90d9" stroke-width="2" points="1085.29,-448.06 1092.71,-447.97 1086.86,-443.41 1085.29,-448.06"/>
<text text-anchor="middle" x="1046.74" y="-432.6" font-family="Times-Roman" font-size="8.00" fill="#4a90d9">about</text>
</g>
<!-- L4YAML.Proofs.ScannerPlainScalarValid.PlainScalarsValid_of_prefix_and_new._proof_1_1 -->
<g id="node11" class="node">
<title>L4YAML.Proofs.ScannerPlainScalarValid.PlainScalarsValid_of_prefix_and_new._proof_1_1</title>
<ellipse fill="#d4edda" stroke="#28a745" cx="256.42" cy="-53" rx="240.33" ry="21.43"/>
<text text-anchor="middle" x="256.42" y="-56" font-family="Helvetica" font-size="10.00">ScannerPlainScalarValid.PlainScalarsValid_of_prefix_and_new._proof_1_1</text>
<text text-anchor="middle" x="256.42" y="-45" font-family="Helvetica" font-size="10.00">(ScannerPlainScalarValid)</text>
</g>
<!-- L4YAML.Proofs.ScannerPlainScalarValid.PlainScalarsValid_of_prefix_and_new._proof_1_1&#45;&gt;L4YAML.Positioned -->
<g id="edge13" class="edge">
<title>L4YAML.Proofs.ScannerPlainScalarValid.PlainScalarsValid_of_prefix_and_new._proof_1_1&#45;&gt;L4YAML.Positioned</title>
<path fill="none" stroke="#999999" stroke-dasharray="1,5" d="M496.21,-54.6C655.76,-56.81 870.24,-61.99 1059.24,-74 1094.44,-76.24 1134.51,-80.47 1162.46,-83.7"/>
<polygon fill="#999999" stroke="#999999" points="1162.37,-85.45 1167.54,-84.29 1162.77,-81.98 1162.37,-85.45"/>
</g>
<!-- L4YAML.Proofs.ScannerPlainScalarValid.PlainScalarsValid_of_prefix_and_new._proof_1_1&#45;&gt;L4YAML.YamlToken -->
<g id="edge14" class="edge">
<title>L4YAML.Proofs.ScannerPlainScalarValid.PlainScalarsValid_of_prefix_and_new._proof_1_1&#45;&gt;L4YAML.YamlToken</title>
<path fill="none" stroke="#999999" stroke-dasharray="1,5" d="M420.37,-37.44C451.7,-34.91 484.26,-32.6 514.83,-31 745.41,-18.94 803.36,-23.22 1034.24,-21 1045.35,-20.89 1048.14,-20.48 1059.24,-21 1094.1,-22.63 1133.74,-26.56 1161.65,-29.68"/>
<polygon fill="#999999" stroke="#999999" points="1161.56,-31.43 1166.72,-30.25 1161.95,-27.95 1161.56,-31.43"/>
</g>
<!-- L4YAML.Proofs.ScannerPlainScalarValid.PlainScalarsValid_of_prefix_and_new._proof_1_1&#45;&gt;L4YAML.Proofs.ScannerPlainScalarValid.PlainScalarsValid_of_prefix_and_new -->
<g id="edge10" class="edge">
<title>L4YAML.Proofs.ScannerPlainScalarValid.PlainScalarsValid_of_prefix_and_new._proof_1_1&#45;&gt;L4YAML.Proofs.ScannerPlainScalarValid.PlainScalarsValid_of_prefix_and_new</title>
<path fill="none" stroke="#28a745" d="M435.99,-67.19C459.41,-71.22 482.88,-76.38 504.83,-83 590.7,-108.88 682.36,-160.69 733.5,-192.06"/>
<polygon fill="#28a745" stroke="#28a745" points="732.28,-194.19 739.53,-195.78 734.86,-190.02 732.28,-194.19"/>
</g>
<!-- L4YAML.Proofs.ScannerPlainScalarValid.PlainScalarsValid_of_prefix_and_new._proof_1 -->
<g id="node12" class="node">
<title>L4YAML.Proofs.ScannerPlainScalarValid.PlainScalarsValid_of_prefix_and_new._proof_1</title>
<ellipse fill="#d4edda" stroke="#28a745" cx="256.42" cy="-113" rx="232.78" ry="21.43"/>
<text text-anchor="middle" x="256.42" y="-116" font-family="Helvetica" font-size="10.00">ScannerPlainScalarValid.PlainScalarsValid_of_prefix_and_new._proof_1</text>
<text text-anchor="middle" x="256.42" y="-105" font-family="Helvetica" font-size="10.00">(ScannerPlainScalarValid)</text>
</g>
<!-- L4YAML.Proofs.ScannerPlainScalarValid.PlainScalarsValid_of_prefix_and_new._proof_1&#45;&gt;L4YAML.Positioned -->
<g id="edge15" class="edge">
<title>L4YAML.Proofs.ScannerPlainScalarValid.PlainScalarsValid_of_prefix_and_new._proof_1&#45;&gt;L4YAML.Positioned</title>
<path fill="none" stroke="#999999" stroke-dasharray="1,5" d="M487.88,-115.15C648.23,-115.34 866.91,-113.02 1059.24,-102 1094.45,-99.98 1134.52,-95.72 1162.47,-92.42"/>
<polygon fill="#999999" stroke="#999999" points="1162.78,-94.15 1167.54,-91.82 1162.37,-90.67 1162.78,-94.15"/>
</g>
<!-- L4YAML.Proofs.ScannerPlainScalarValid.PlainScalarsValid_of_prefix_and_new._proof_1&#45;&gt;L4YAML.YamlToken -->
<g id="edge16" class="edge">
<title>L4YAML.Proofs.ScannerPlainScalarValid.PlainScalarsValid_of_prefix_and_new._proof_1&#45;&gt;L4YAML.YamlToken</title>
<path fill="none" stroke="#999999" stroke-dasharray="1,5" d="M427.97,-98.67C654.88,-79.61 1041.36,-47.14 1161.21,-37.07"/>
<polygon fill="#999999" stroke="#999999" points="1161.54,-38.8 1166.37,-36.64 1161.24,-35.31 1161.54,-38.8"/>
</g>
<!-- L4YAML.Proofs.ScannerPlainScalarValid.PlainScalarsValid_of_prefix_and_new._proof_1&#45;&gt;L4YAML.Proofs.ScannerPlainScalarValid.PlainScalarsValid_of_prefix_and_new -->
<g id="edge11" class="edge">
<title>L4YAML.Proofs.ScannerPlainScalarValid.PlainScalarsValid_of_prefix_and_new._proof_1&#45;&gt;L4YAML.Proofs.ScannerPlainScalarValid.PlainScalarsValid_of_prefix_and_new</title>
<path fill="none" stroke="#28a745" d="M351.23,-132.44C400.01,-142.51 460.62,-154.98 514.83,-166 562.43,-175.67 614.96,-186.23 660.22,-195.3"/>
<polygon fill="#28a745" stroke="#28a745" points="659.79,-197.71 667.13,-196.68 660.75,-192.9 659.79,-197.71"/>
</g>
<!-- Decidable.byContradiction -->
<g id="node13" class="node">
<title>Decidable.byContradiction</title>
<ellipse fill="#fdebd0" stroke="#e67e22" cx="256.42" cy="-218" rx="77.23" ry="18"/>
<text text-anchor="middle" x="256.42" y="-215.5" font-family="Helvetica" font-size="10.00">Decidable.byContradiction</text>
</g>
<!-- Decidable.byContradiction&#45;&gt;L4YAML.Proofs.ScannerPlainScalarValid.PlainScalarsValid_of_prefix_and_new -->
<g id="edge12" class="edge">
<title>Decidable.byContradiction&#45;&gt;L4YAML.Proofs.ScannerPlainScalarValid.PlainScalarsValid_of_prefix_and_new</title>
<path fill="none" stroke="#e67e22" stroke-width="2" d="M333.65,-218C385.14,-218 456.27,-218 526.35,-218"/>
<polygon fill="#e67e22" stroke="#e67e22" stroke-width="2" points="526.57,-220.45 533.57,-218 526.57,-215.55 526.57,-220.45"/>
</g>
</g>
</svg>
