<?xml version="1.0" encoding="UTF-8" standalone="no"?>
<!DOCTYPE svg PUBLIC "-//W3C//DTD SVG 1.1//EN"
 "http://www.w3.org/Graphics/SVG/1.1/DTD/svg11.dtd">
<!-- Generated by graphviz version 2.44.0 (0)
 -->
<!-- Title: ScannerPlainScalarValid.FlowNestingInv_emit_non_flow Pages: 1 -->
<svg width="1118pt" height="984pt"
 viewBox="0.00 0.00 1118.49 984.22" xmlns="http://www.w3.org/2000/svg" xmlns:xlink="http://www.w3.org/1999/xlink">
<g id="graph0" class="graph" transform="scale(1 1) rotate(0) translate(4 980.22)">
<title>ScannerPlainScalarValid.FlowNestingInv_emit_non_flow</title>
<polygon fill="white" stroke="transparent" points="-4,4 -4,-980.22 1114.49,-980.22 1114.49,4 -4,4"/>
<text text-anchor="middle" x="555.25" y="-961.82" font-family="Helvetica Bold" font-size="13.00">ScannerPlainScalarValid.FlowNestingInv_emit_non_flow</text>
<text text-anchor="middle" x="555.25" y="-947.82" font-family="Helvetica Bold" font-size="13.00">(heuristic: used by 7 proofs)</text>
<text text-anchor="middle" x="555.25" y="-933.82" font-family="Helvetica Bold" font-size="13.00">(L4YAML.Proofs.ScannerPlainScalarValid)</text>
<g id="clust1" class="cluster">
<title>cluster_functions</title>
<polygon fill="none" stroke="#4a90d9" stroke-dasharray="5,2" points="524.61,-466.22 524.61,-918.22 1102.49,-918.22 1102.49,-466.22 524.61,-466.22"/>
<text text-anchor="middle" x="813.55" y="-903.82" font-family="Helvetica Bold" font-size="13.00" fill="#4a90d9">Functions</text>
</g>
<g id="clust2" class="cluster">
<title>cluster_key</title>
<polygon fill="none" stroke="#d4a017" stroke-dasharray="5,2" points="395.72,-376.22 395.72,-458.22 847.49,-458.22 847.49,-376.22 395.72,-376.22"/>
<text text-anchor="middle" x="621.61" y="-443.82" font-family="Helvetica Bold" font-size="13.00" fill="#d4a017">Key Theorem</text>
</g>
<g id="clust3" class="cluster">
<title>cluster_proofs</title>
<polygon fill="none" stroke="#28a745" stroke-dasharray="5,2" points="8,-315.22 8,-515.22 374.72,-515.22 374.72,-315.22 8,-315.22"/>
<text text-anchor="middle" x="191.36" y="-500.82" font-family="Helvetica Bold" font-size="13.00" fill="#28a745">Proof Dependencies</text>
</g>
<!-- L4YAML.Scanner.ScannerState.emit -->
<g id="node1" class="node">
<title>L4YAML.Scanner.ScannerState.emit</title>
<polygon fill="#dce9f7" stroke="#4a90d9" points="1046.49,-834.22 948.49,-834.22 948.49,-798.22 1046.49,-798.22 1046.49,-834.22"/>
<text text-anchor="middle" x="997.49" y="-819.22" font-family="Helvetica" font-size="10.00">ScannerState.emit</text>
<text text-anchor="middle" x="997.49" y="-808.22" font-family="Helvetica" font-size="10.00">(def)</text>
</g>
<!-- L4YAML.Scanner.ScannerState.flowLevel -->
<g id="node2" class="node">
<title>L4YAML.Scanner.ScannerState.flowLevel</title>
<polygon fill="#dce9f7" stroke="#4a90d9" points="681.11,-755.22 562.11,-755.22 562.11,-719.22 681.11,-719.22 681.11,-755.22"/>
<text text-anchor="middle" x="621.61" y="-740.22" font-family="Helvetica" font-size="10.00">ScannerState.flowLevel</text>
<text text-anchor="middle" x="621.61" y="-729.22" font-family="Helvetica" font-size="10.00">(def)</text>
</g>
<!-- L4YAML.Positioned.val -->
<g id="node3" class="node">
<title>L4YAML.Positioned.val</title>
<polygon fill="#dce9f7" stroke="#4a90d9" points="660.11,-701.22 583.11,-701.22 583.11,-665.22 660.11,-665.22 660.11,-701.22"/>
<text text-anchor="middle" x="621.61" y="-686.22" font-family="Helvetica" font-size="10.00">Positioned.val</text>
<text text-anchor="middle" x="621.61" y="-675.22" font-family="Helvetica" font-size="10.00">(def)</text>
</g>
<!-- L4YAML.Proofs.ScannerPlainScalarValid.flowNesting -->
<g id="node4" class="node">
<title>L4YAML.Proofs.ScannerPlainScalarValid.flowNesting</title>
<polygon fill="#dce9f7" stroke="#4a90d9" points="710.61,-647.22 532.61,-647.22 532.61,-611.22 710.61,-611.22 710.61,-647.22"/>
<text text-anchor="middle" x="621.61" y="-632.22" font-family="Helvetica" font-size="10.00">ScannerPlainScalarValid.flowNesting</text>
<text text-anchor="middle" x="621.61" y="-621.22" font-family="Helvetica" font-size="10.00">(def)</text>
</g>
<!-- L4YAML.Scanner.ScannerState -->
<g id="node5" class="node">
<title>L4YAML.Scanner.ScannerState</title>
<polygon fill="#dce9f7" stroke="#4a90d9" points="1035.49,-888.22 959.49,-888.22 959.49,-852.22 1035.49,-852.22 1035.49,-888.22"/>
<text text-anchor="middle" x="997.49" y="-873.22" font-family="Helvetica" font-size="10.00">ScannerState</text>
<text text-anchor="middle" x="997.49" y="-862.22" font-family="Helvetica" font-size="10.00">(inductive)</text>
</g>
<!-- L4YAML.Scanner.ScannerState.tokens -->
<g id="node6" class="node">
<title>L4YAML.Scanner.ScannerState.tokens</title>
<polygon fill="#dce9f7" stroke="#4a90d9" points="675.11,-863.22 568.11,-863.22 568.11,-827.22 675.11,-827.22 675.11,-863.22"/>
<text text-anchor="middle" x="621.61" y="-848.22" font-family="Helvetica" font-size="10.00">ScannerState.tokens</text>
<text text-anchor="middle" x="621.61" y="-837.22" font-family="Helvetica" font-size="10.00">(def)</text>
</g>
<!-- L4YAML.YamlToken.flowSequenceEnd -->
<g id="node7" class="node">
<title>L4YAML.YamlToken.flowSequenceEnd</title>
<polygon fill="#dce9f7" stroke="#4a90d9" points="1070.49,-672.22 924.49,-672.22 924.49,-636.22 1070.49,-636.22 1070.49,-672.22"/>
<text text-anchor="middle" x="997.49" y="-657.22" font-family="Helvetica" font-size="10.00">YamlToken.flowSequenceEnd</text>
<text text-anchor="middle" x="997.49" y="-646.22" font-family="Helvetica" font-size="10.00">(ctor)</text>
</g>
<!-- L4YAML.Proofs.ScannerPlainScalarValid.FlowNestingInv -->
<g id="node8" class="node">
<title>L4YAML.Proofs.ScannerPlainScalarValid.FlowNestingInv</title>
<polygon fill="#dce9f7" stroke="#4a90d9" points="1094.49,-780.22 900.49,-780.22 900.49,-744.22 1094.49,-744.22 1094.49,-780.22"/>
<text text-anchor="middle" x="997.49" y="-765.22" font-family="Helvetica" font-size="10.00">ScannerPlainScalarValid.FlowNestingInv</text>
<text text-anchor="middle" x="997.49" y="-754.22" font-family="Helvetica" font-size="10.00">(def)</text>
</g>
<!-- L4YAML.Positioned -->
<g id="node9" class="node">
<title>L4YAML.Positioned</title>
<polygon fill="#dce9f7" stroke="#4a90d9" points="652.61,-809.22 590.61,-809.22 590.61,-773.22 652.61,-773.22 652.61,-809.22"/>
<text text-anchor="middle" x="621.61" y="-794.22" font-family="Helvetica" font-size="10.00">Positioned</text>
<text text-anchor="middle" x="621.61" y="-783.22" font-family="Helvetica" font-size="10.00">(inductive)</text>
</g>
<!-- L4YAML.YamlToken -->
<g id="node10" class="node">
<title>L4YAML.YamlToken</title>
<polygon fill="#dce9f7" stroke="#4a90d9" points="1029.49,-726.22 965.49,-726.22 965.49,-690.22 1029.49,-690.22 1029.49,-726.22"/>
<text text-anchor="middle" x="997.49" y="-711.22" font-family="Helvetica" font-size="10.00">YamlToken</text>
<text text-anchor="middle" x="997.49" y="-700.22" font-family="Helvetica" font-size="10.00">(inductive)</text>
</g>
<!-- L4YAML.YamlToken.flowMappingEnd -->
<g id="node11" class="node">
<title>L4YAML.YamlToken.flowMappingEnd</title>
<polygon fill="#dce9f7" stroke="#4a90d9" points="1066.99,-618.22 927.99,-618.22 927.99,-582.22 1066.99,-582.22 1066.99,-618.22"/>
<text text-anchor="middle" x="997.49" y="-603.22" font-family="Helvetica" font-size="10.00">YamlToken.flowMappingEnd</text>
<text text-anchor="middle" x="997.49" y="-592.22" font-family="Helvetica" font-size="10.00">(ctor)</text>
</g>
<!-- L4YAML.YamlToken.flowMappingStart -->
<g id="node12" class="node">
<title>L4YAML.YamlToken.flowMappingStart</title>
<polygon fill="#dce9f7" stroke="#4a90d9" points="1068.99,-564.22 925.99,-564.22 925.99,-528.22 1068.99,-528.22 1068.99,-564.22"/>
<text text-anchor="middle" x="997.49" y="-549.22" font-family="Helvetica" font-size="10.00">YamlToken.flowMappingStart</text>
<text text-anchor="middle" x="997.49" y="-538.22" font-family="Helvetica" font-size="10.00">(ctor)</text>
</g>
<!-- L4YAML.YamlToken.flowSequenceStart -->
<g id="node13" class="node">
<title>L4YAML.YamlToken.flowSequenceStart</title>
<polygon fill="#dce9f7" stroke="#4a90d9" points="1072.49,-510.22 922.49,-510.22 922.49,-474.22 1072.49,-474.22 1072.49,-510.22"/>
<text text-anchor="middle" x="997.49" y="-495.22" font-family="Helvetica" font-size="10.00">YamlToken.flowSequenceStart</text>
<text text-anchor="middle" x="997.49" y="-484.22" font-family="Helvetica" font-size="10.00">(ctor)</text>
</g>
<!-- L4YAML.Proofs.ScannerPlainScalarValid.FlowNestingInv_emit_non_flow -->
<g id="node14" class="node">
<title>L4YAML.Proofs.ScannerPlainScalarValid.FlowNestingInv_emit_non_flow</title>
<polygon fill="#fff3cd" stroke="#d4a017" points="835.38,-398.76 835.38,-413.67 710.16,-424.22 533.06,-424.22 407.84,-413.67 407.84,-398.76 533.06,-388.22 710.16,-388.22 835.38,-398.76"/>
<polygon fill="none" stroke="#d4a017" points="839.38,-395.09 839.38,-417.35 710.32,-428.22 532.89,-428.22 403.84,-417.35 403.84,-395.09 532.89,-384.22 710.32,-384.22 839.38,-395.09"/>
<text text-anchor="middle" x="621.61" y="-403.12" font-family="Helvetica" font-size="12.00">ScannerPlainScalarValid.FlowNestingInv_emit_non_flow</text>
</g>
<!-- L4YAML.Proofs.ScannerPlainScalarValid.FlowNestingInv_emit_non_flow&#45;&gt;L4YAML.Scanner.ScannerState.emit -->
<g id="edge2" class="edge">
<title>L4YAML.Proofs.ScannerPlainScalarValid.FlowNestingInv_emit_non_flow&#45;&gt;L4YAML.Scanner.ScannerState.emit</title>
<path fill="none" stroke="#4a90d9" stroke-width="2" d="M754.17,-424.6C786.28,-432.87 819.44,-444.86 847.49,-462.22 867.87,-474.83 873.5,-481.01 882.49,-503.22 906.39,-562.24 860.46,-739.69 900.49,-789.22 910.5,-801.6 925.69,-808.57 941.07,-812.42"/>
<polygon fill="#4a90d9" stroke="#4a90d9" stroke-width="2" points="940.76,-814.86 948.12,-813.97 941.81,-810.07 940.76,-814.86"/>
<text text-anchor="middle" x="869.99" y="-505.82" font-family="Times-Roman" font-size="8.00" fill="#4a90d9">about</text>
</g>
<!-- L4YAML.Proofs.ScannerPlainScalarValid.FlowNestingInv_emit_non_flow&#45;&gt;L4YAML.Scanner.ScannerState -->
<g id="edge5" class="edge">
<title>L4YAML.Proofs.ScannerPlainScalarValid.FlowNestingInv_emit_non_flow&#45;&gt;L4YAML.Scanner.ScannerState</title>
<path fill="none" stroke="#4a90d9" stroke-width="2" d="M782.64,-422.14C806.95,-430.88 829.78,-443.66 847.49,-462.22 863.14,-478.61 849.96,-490.84 857.49,-512.22 865.49,-534.9 876.04,-537.05 882.49,-560.22 890.95,-590.57 880.68,-818.72 900.49,-843.22 912.89,-858.55 933.26,-865.58 952.05,-868.67"/>
<polygon fill="#4a90d9" stroke="#4a90d9" stroke-width="2" points="952.15,-871.16 959.43,-869.7 952.83,-866.3 952.15,-871.16"/>
<text text-anchor="middle" x="869.99" y="-562.82" font-family="Times-Roman" font-size="8.00" fill="#4a90d9">about</text>
</g>
<!-- L4YAML.Proofs.ScannerPlainScalarValid.FlowNestingInv_emit_non_flow&#45;&gt;L4YAML.YamlToken.flowSequenceEnd -->
<g id="edge3" class="edge">
<title>L4YAML.Proofs.ScannerPlainScalarValid.FlowNestingInv_emit_non_flow&#45;&gt;L4YAML.YamlToken.flowSequenceEnd</title>
<path fill="none" stroke="#4a90d9" stroke-width="2" d="M649.69,-384.02C701.73,-344.12 816.38,-270.02 882.49,-332.22 930.33,-377.22 859.26,-576.1 900.49,-627.22 905.32,-633.2 911.36,-637.92 918.05,-641.64"/>
<polygon fill="#4a90d9" stroke="#4a90d9" stroke-width="2" points="917,-643.85 924.36,-644.77 919.18,-639.46 917,-643.85"/>
<text text-anchor="middle" x="869.99" y="-334.82" font-family="Times-Roman" font-size="8.00" fill="#4a90d9">about</text>
</g>
<!-- L4YAML.Proofs.ScannerPlainScalarValid.FlowNestingInv_emit_non_flow&#45;&gt;L4YAML.Proofs.ScannerPlainScalarValid.FlowNestingInv -->
<g id="edge8" class="edge">
<title>L4YAML.Proofs.ScannerPlainScalarValid.FlowNestingInv_emit_non_flow&#45;&gt;L4YAML.Proofs.ScannerPlainScalarValid.FlowNestingInv</title>
<path fill="none" stroke="#4a90d9" stroke-width="2" d="M712.05,-384.32C768.67,-376.24 839.12,-377.83 882.49,-421.22 931.91,-470.65 856.71,-680.74 900.49,-735.22 901.68,-736.69 902.94,-738.09 904.27,-739.42"/>
<polygon fill="#4a90d9" stroke="#4a90d9" stroke-width="2" points="902.81,-741.4 909.68,-744.18 906.04,-737.72 902.81,-741.4"/>
<text text-anchor="middle" x="869.99" y="-423.82" font-family="Times-Roman" font-size="8.00" fill="#4a90d9">about</text>
</g>
<!-- L4YAML.Proofs.ScannerPlainScalarValid.FlowNestingInv_emit_non_flow&#45;&gt;L4YAML.YamlToken -->
<g id="edge4" class="edge">
<title>L4YAML.Proofs.ScannerPlainScalarValid.FlowNestingInv_emit_non_flow&#45;&gt;L4YAML.YamlToken</title>
<path fill="none" stroke="#4a90d9" stroke-width="2" d="M658.67,-384.16C714.44,-353.17 821.53,-306.62 882.49,-364.22 908.14,-388.45 878.4,-653.71 900.49,-681.22 914.17,-698.24 937.67,-705.05 958,-707.57"/>
<polygon fill="#4a90d9" stroke="#4a90d9" stroke-width="2" points="957.82,-710.01 965.04,-708.29 958.32,-705.14 957.82,-710.01"/>
<text text-anchor="middle" x="869.99" y="-366.82" font-family="Times-Roman" font-size="8.00" fill="#4a90d9">about</text>
</g>
<!-- L4YAML.Proofs.ScannerPlainScalarValid.FlowNestingInv_emit_non_flow&#45;&gt;L4YAML.YamlToken.flowMappingEnd -->
<g id="edge6" class="edge">
<title>L4YAML.Proofs.ScannerPlainScalarValid.FlowNestingInv_emit_non_flow&#45;&gt;L4YAML.YamlToken.flowMappingEnd</title>
<path fill="none" stroke="#4a90d9" stroke-width="2" d="M638.21,-383.89C681.11,-325 802.97,-175.01 882.49,-250.22 908.61,-274.92 878,-545.18 900.49,-573.22 906,-580.08 913.09,-585.28 920.93,-589.2"/>
<polygon fill="#4a90d9" stroke="#4a90d9" stroke-width="2" points="920.29,-591.6 927.68,-592.22 922.29,-587.12 920.29,-591.6"/>
<text text-anchor="middle" x="869.99" y="-252.82" font-family="Times-Roman" font-size="8.00" fill="#4a90d9">about</text>
</g>
<!-- L4YAML.Proofs.ScannerPlainScalarValid.FlowNestingInv_emit_non_flow&#45;&gt;L4YAML.YamlToken.flowMappingStart -->
<g id="edge1" class="edge">
<title>L4YAML.Proofs.ScannerPlainScalarValid.FlowNestingInv_emit_non_flow&#45;&gt;L4YAML.YamlToken.flowMappingStart</title>
<path fill="none" stroke="#4a90d9" stroke-width="2" d="M635.67,-383.83C675.3,-318.46 796.76,-137.46 882.49,-218.22 931.27,-264.16 858.45,-467.04 900.49,-519.22 905.57,-525.52 911.98,-530.41 919.09,-534.21"/>
<polygon fill="#4a90d9" stroke="#4a90d9" stroke-width="2" points="918.41,-536.6 925.78,-537.4 920.52,-532.18 918.41,-536.6"/>
<text text-anchor="middle" x="869.99" y="-220.82" font-family="Times-Roman" font-size="8.00" fill="#4a90d9">about</text>
</g>
<!-- L4YAML.Proofs.ScannerPlainScalarValid.FlowNestingInv_emit_non_flow&#45;&gt;L4YAML.YamlToken.flowSequenceStart -->
<g id="edge7" class="edge">
<title>L4YAML.Proofs.ScannerPlainScalarValid.FlowNestingInv_emit_non_flow&#45;&gt;L4YAML.YamlToken.flowSequenceStart</title>
<path fill="none" stroke="#4a90d9" stroke-width="2" d="M631.79,-384.19C663.66,-310.81 773.58,-83.54 882.49,-161.22 984.01,-233.62 996.03,-402.56 996.8,-466.81"/>
<polygon fill="#4a90d9" stroke="#4a90d9" stroke-width="2" points="994.35,-467.12 996.85,-474.11 999.25,-467.09 994.35,-467.12"/>
<text text-anchor="middle" x="869.99" y="-163.82" font-family="Times-Roman" font-size="8.00" fill="#4a90d9">about</text>
</g>
<!-- L4YAML.Proofs.ScannerProofs.emit_tokens_size -->
<g id="node15" class="node">
<title>L4YAML.Proofs.ScannerProofs.emit_tokens_size</title>
<ellipse fill="#d4edda" stroke="#28a745" cx="191.36" cy="-464.22" rx="112.36" ry="21.43"/>
<text text-anchor="middle" x="191.36" y="-467.22" font-family="Helvetica" font-size="10.00">ScannerProofs.emit_tokens_size</text>
<text text-anchor="middle" x="191.36" y="-456.22" font-family="Helvetica" font-size="10.00">(ScannerProofs)</text>
</g>
<!-- L4YAML.Proofs.ScannerProofs.emit_tokens_size&#45;&gt;L4YAML.Scanner.ScannerState.emit -->
<g id="edge13" class="edge">
<title>L4YAML.Proofs.ScannerProofs.emit_tokens_size&#45;&gt;L4YAML.Scanner.ScannerState.emit</title>
<path fill="none" stroke="#999999" stroke-dasharray="1,5" d="M282.06,-476.79C466.56,-502.85 872.29,-561.25 882.49,-572.22 915.45,-607.65 869.7,-751.89 900.49,-789.22 911.08,-802.05 927.23,-809.05 943.29,-812.79"/>
<polygon fill="#999999" stroke="#999999" points="943.01,-814.52 948.27,-813.85 943.74,-811.1 943.01,-814.52"/>
</g>
<!-- L4YAML.Proofs.ScannerProofs.emit_tokens_size&#45;&gt;L4YAML.Scanner.ScannerState -->
<g id="edge16" class="edge">
<title>L4YAML.Proofs.ScannerProofs.emit_tokens_size&#45;&gt;L4YAML.Scanner.ScannerState</title>
<path fill="none" stroke="#999999" stroke-dasharray="1,5" d="M235.47,-483.84C276.01,-501.49 338.82,-526.8 395.72,-541.22 493.93,-566.09 772.98,-533.59 847.49,-602.22 928.17,-676.51 825.21,-763.47 900.49,-843.22 914.29,-857.83 935.31,-864.75 954.17,-867.94"/>
<polygon fill="#999999" stroke="#999999" points="954.22,-869.71 959.43,-868.74 954.75,-866.25 954.22,-869.71"/>
</g>
<!-- L4YAML.Proofs.ScannerProofs.emit_tokens_size&#45;&gt;L4YAML.Scanner.ScannerState.tokens -->
<g id="edge12" class="edge">
<title>L4YAML.Proofs.ScannerProofs.emit_tokens_size&#45;&gt;L4YAML.Scanner.ScannerState.tokens</title>
<path fill="none" stroke="#999999" stroke-dasharray="1,5" d="M197.44,-485.54C213.72,-548.73 270.99,-735.71 395.72,-818.22 445.09,-850.87 514.15,-854.46 562.67,-851.88"/>
<polygon fill="#999999" stroke="#999999" points="563.01,-853.61 567.89,-851.57 562.8,-850.12 563.01,-853.61"/>
</g>
<!-- L4YAML.Proofs.ScannerProofs.emit_tokens_size&#45;&gt;L4YAML.Positioned -->
<g id="edge14" class="edge">
<title>L4YAML.Proofs.ScannerProofs.emit_tokens_size&#45;&gt;L4YAML.Positioned</title>
<path fill="none" stroke="#999999" stroke-dasharray="1,5" d="M199.64,-485.53C220.18,-542.13 284.5,-696.44 395.72,-764.22 454.57,-800.08 538.24,-799.49 585.16,-795.56"/>
<polygon fill="#999999" stroke="#999999" points="585.6,-797.28 590.42,-795.09 585.28,-793.79 585.6,-797.28"/>
</g>
<!-- L4YAML.Proofs.ScannerProofs.emit_tokens_size&#45;&gt;L4YAML.YamlToken -->
<g id="edge15" class="edge">
<title>L4YAML.Proofs.ScannerProofs.emit_tokens_size&#45;&gt;L4YAML.YamlToken</title>
<path fill="none" stroke="#999999" stroke-dasharray="1,5" d="M303.96,-463.61C488.68,-463.72 841.8,-469.12 882.49,-508.22 910.37,-535 875.59,-651.66 900.49,-681.22 914.99,-698.43 939.52,-705.12 960.15,-707.54"/>
<polygon fill="#999999" stroke="#999999" points="960.15,-709.3 965.3,-708.07 960.51,-705.82 960.15,-709.3"/>
</g>
<!-- L4YAML.Proofs.ScannerProofs.emit_tokens_size&#45;&gt;L4YAML.Proofs.ScannerPlainScalarValid.FlowNestingInv_emit_non_flow -->
<g id="edge9" class="edge">
<title>L4YAML.Proofs.ScannerProofs.emit_tokens_size&#45;&gt;L4YAML.Proofs.ScannerPlainScalarValid.FlowNestingInv_emit_non_flow</title>
<path fill="none" stroke="#28a745" d="M283.18,-451.92C340.27,-444.19 415.1,-434.05 479.79,-425.29"/>
<polygon fill="#28a745" stroke="#28a745" points="480.21,-427.71 486.82,-424.34 479.55,-422.85 480.21,-427.71"/>
</g>
<!-- L4YAML.Proofs.ScannerCorrectness.emit_preserves_flowLevel -->
<g id="node16" class="node">
<title>L4YAML.Proofs.ScannerCorrectness.emit_preserves_flowLevel</title>
<ellipse fill="#d4edda" stroke="#28a745" cx="191.36" cy="-404.22" rx="156.04" ry="21.43"/>
<text text-anchor="middle" x="191.36" y="-407.22" font-family="Helvetica" font-size="10.00">ScannerCorrectness.emit_preserves_flowLevel</text>
<text text-anchor="middle" x="191.36" y="-396.22" font-family="Helvetica" font-size="10.00">(ScannerCorrectness)</text>
</g>
<!-- L4YAML.Proofs.ScannerCorrectness.emit_preserves_flowLevel&#45;&gt;L4YAML.Scanner.ScannerState.emit -->
<g id="edge17" class="edge">
<title>L4YAML.Proofs.ScannerCorrectness.emit_preserves_flowLevel&#45;&gt;L4YAML.Scanner.ScannerState.emit</title>
<path fill="none" stroke="#999999" stroke-dasharray="1,5" d="M333.34,-395.08C348.17,-390.12 362.33,-383.36 374.72,-374.22 382.73,-368.32 379.09,-362.41 384.72,-354.22 388.83,-348.26 389.1,-345.13 395.72,-342.22 487.62,-301.79 771.14,-277.03 847.49,-342.22 858.27,-351.42 853.59,-391.59 857.49,-405.22 865.34,-432.6 876.05,-436.48 882.49,-464.22 890.67,-499.45 877.87,-761.01 900.49,-789.22 910.9,-802.19 927.01,-809.23 943.09,-812.96"/>
<polygon fill="#999999" stroke="#999999" points="942.81,-814.69 948.07,-814.02 943.54,-811.27 942.81,-814.69"/>
</g>
<!-- L4YAML.Proofs.ScannerCorrectness.emit_preserves_flowLevel&#45;&gt;L4YAML.Scanner.ScannerState.flowLevel -->
<g id="edge20" class="edge">
<title>L4YAML.Proofs.ScannerCorrectness.emit_preserves_flowLevel&#45;&gt;L4YAML.Scanner.ScannerState.flowLevel</title>
<path fill="none" stroke="#999999" stroke-dasharray="1,5" d="M340.79,-410.45C353.54,-416.09 365.19,-423.81 374.72,-434.22 376.02,-435.64 394.4,-708.83 395.72,-710.22 436.21,-752.51 505.67,-754.74 556.71,-749.2"/>
<polygon fill="#999999" stroke="#999999" points="557.13,-750.92 561.9,-748.61 556.73,-747.44 557.13,-750.92"/>
</g>
<!-- L4YAML.Proofs.ScannerCorrectness.emit_preserves_flowLevel&#45;&gt;L4YAML.Scanner.ScannerState -->
<g id="edge19" class="edge">
<title>L4YAML.Proofs.ScannerCorrectness.emit_preserves_flowLevel&#45;&gt;L4YAML.Scanner.ScannerState</title>
<path fill="none" stroke="#999999" stroke-dasharray="1,5" d="M288.68,-387.6C330.61,-380.67 374.88,-373.85 395.72,-372.22 495.81,-364.39 773.49,-304.37 847.49,-372.22 866.4,-389.55 847.32,-463.67 857.49,-487.22 864.11,-502.53 876.12,-499.8 882.49,-515.22 896.43,-548.95 877.66,-814.74 900.49,-843.22 913.26,-859.15 934.64,-866.13 953.98,-869.03"/>
<polygon fill="#999999" stroke="#999999" points="954.18,-870.82 959.37,-869.74 954.64,-867.35 954.18,-870.82"/>
</g>
<!-- L4YAML.Proofs.ScannerCorrectness.emit_preserves_flowLevel&#45;&gt;L4YAML.YamlToken -->
<g id="edge18" class="edge">
<title>L4YAML.Proofs.ScannerCorrectness.emit_preserves_flowLevel&#45;&gt;L4YAML.YamlToken</title>
<path fill="none" stroke="#999999" stroke-dasharray="1,5" d="M339.66,-397.51C352.71,-391.98 364.74,-384.42 374.72,-374.22 396.71,-351.76 360.98,-324.81 384.72,-304.22 462.41,-236.84 754.37,-260.6 847.49,-304.22 853.78,-307.16 852.96,-310.96 857.49,-316.22 868.39,-328.85 876.13,-328.8 882.49,-344.22 896.79,-378.88 877.06,-651.94 900.49,-681.22 914.66,-698.91 939.44,-705.57 960.27,-707.85"/>
<polygon fill="#999999" stroke="#999999" points="960.33,-709.62 965.48,-708.34 960.66,-706.13 960.33,-709.62"/>
</g>
<!-- L4YAML.Proofs.ScannerCorrectness.emit_preserves_flowLevel&#45;&gt;L4YAML.Proofs.ScannerPlainScalarValid.FlowNestingInv_emit_non_flow -->
<g id="edge10" class="edge">
<title>L4YAML.Proofs.ScannerCorrectness.emit_preserves_flowLevel&#45;&gt;L4YAML.Proofs.ScannerPlainScalarValid.FlowNestingInv_emit_non_flow</title>
<path fill="none" stroke="#28a745" d="M347.57,-404.94C363.6,-405.02 380.1,-405.1 396.68,-405.17"/>
<polygon fill="#28a745" stroke="#28a745" points="396.77,-407.62 403.78,-405.21 396.8,-402.72 396.77,-407.62"/>
</g>
<!-- L4YAML.Proofs.ScannerPlainScalarValid.flowNesting_push_non_flow -->
<g id="node17" class="node">
<title>L4YAML.Proofs.ScannerPlainScalarValid.flowNesting_push_non_flow</title>
<ellipse fill="#d4edda" stroke="#28a745" cx="191.36" cy="-344.22" rx="175.23" ry="21.43"/>
<text text-anchor="middle" x="191.36" y="-347.22" font-family="Helvetica" font-size="10.00">ScannerPlainScalarValid.flowNesting_push_non_flow</text>
<text text-anchor="middle" x="191.36" y="-336.22" font-family="Helvetica" font-size="10.00">(ScannerPlainScalarValid)</text>
</g>
<!-- L4YAML.Proofs.ScannerPlainScalarValid.flowNesting_push_non_flow&#45;&gt;L4YAML.Positioned.val -->
<g id="edge24" class="edge">
<title>L4YAML.Proofs.ScannerPlainScalarValid.flowNesting_push_non_flow&#45;&gt;L4YAML.Positioned.val</title>
<path fill="none" stroke="#999999" stroke-dasharray="1,5" d="M348.06,-353.94C357.97,-359.17 367.04,-365.82 374.72,-374.22 385.33,-385.81 384.87,-644.86 395.72,-656.22 442.09,-704.72 526.56,-700.56 577.74,-692.39"/>
<polygon fill="#999999" stroke="#999999" points="578.24,-694.08 582.89,-691.54 577.67,-690.63 578.24,-694.08"/>
</g>
<!-- L4YAML.Proofs.ScannerPlainScalarValid.flowNesting_push_non_flow&#45;&gt;L4YAML.Proofs.ScannerPlainScalarValid.flowNesting -->
<g id="edge28" class="edge">
<title>L4YAML.Proofs.ScannerPlainScalarValid.flowNesting_push_non_flow&#45;&gt;L4YAML.Proofs.ScannerPlainScalarValid.flowNesting</title>
<path fill="none" stroke="#999999" stroke-dasharray="1,5" d="M344.89,-354.56C355.78,-359.58 365.92,-366.02 374.72,-374.22 404.15,-401.62 373.58,-428.65 395.72,-462.22 441.34,-531.37 525.84,-582.44 577.26,-608.87"/>
<polygon fill="#999999" stroke="#999999" points="576.58,-610.49 581.83,-611.2 578.16,-607.37 576.58,-610.49"/>
</g>
<!-- L4YAML.Proofs.ScannerPlainScalarValid.flowNesting_push_non_flow&#45;&gt;L4YAML.YamlToken.flowSequenceEnd -->
<g id="edge23" class="edge">
<title>L4YAML.Proofs.ScannerPlainScalarValid.flowNesting_push_non_flow&#45;&gt;L4YAML.YamlToken.flowSequenceEnd</title>
<path fill="none" stroke="#999999" stroke-dasharray="1,5" d="M217.01,-323.18C251.72,-295.09 318.22,-246.72 384.72,-228.22 491.29,-198.57 804.74,-151.54 882.49,-230.22 913.53,-261.63 873.04,-592.63 900.49,-627.22 905.66,-633.73 912.27,-638.75 919.6,-642.61"/>
<polygon fill="#999999" stroke="#999999" points="918.99,-644.26 924.25,-644.86 920.51,-641.11 918.99,-644.26"/>
</g>
<!-- L4YAML.Proofs.ScannerPlainScalarValid.flowNesting_push_non_flow&#45;&gt;L4YAML.Positioned -->
<g id="edge22" class="edge">
<title>L4YAML.Proofs.ScannerPlainScalarValid.flowNesting_push_non_flow&#45;&gt;L4YAML.Positioned</title>
<path fill="none" stroke="#999999" stroke-dasharray="1,5" d="M348.26,-353.77C358.12,-359.03 367.12,-365.74 374.72,-374.22 389.21,-390.38 380.89,-748.38 395.72,-764.22 444.06,-815.83 535.45,-808.26 585.56,-799.18"/>
<polygon fill="#999999" stroke="#999999" points="585.98,-800.88 590.58,-798.24 585.34,-797.44 585.98,-800.88"/>
</g>
<!-- L4YAML.Proofs.ScannerPlainScalarValid.flowNesting_push_non_flow&#45;&gt;L4YAML.YamlToken -->
<g id="edge25" class="edge">
<title>L4YAML.Proofs.ScannerPlainScalarValid.flowNesting_push_non_flow&#45;&gt;L4YAML.YamlToken</title>
<path fill="none" stroke="#999999" stroke-dasharray="1,5" d="M228.74,-323.29C268.32,-301.81 334.22,-269.82 395.72,-257.22 494.07,-237.06 767.11,-197.07 847.49,-257.22 860.11,-266.65 849.84,-277.45 857.49,-291.22 865.6,-305.8 876.16,-303.78 882.49,-319.22 897.78,-356.48 875.39,-649.73 900.49,-681.22 914.62,-698.94 939.41,-705.6 960.25,-707.87"/>
<polygon fill="#999999" stroke="#999999" points="960.31,-709.64 965.46,-708.36 960.64,-706.15 960.31,-709.64"/>
</g>
<!-- L4YAML.Proofs.ScannerPlainScalarValid.flowNesting_push_non_flow&#45;&gt;L4YAML.YamlToken.flowMappingEnd -->
<g id="edge26" class="edge">
<title>L4YAML.Proofs.ScannerPlainScalarValid.flowNesting_push_non_flow&#45;&gt;L4YAML.YamlToken.flowMappingEnd</title>
<path fill="none" stroke="#999999" stroke-dasharray="1,5" d="M209.81,-323.03C240.67,-287.42 308.84,-216.85 384.72,-190.22 489.12,-153.58 813.76,-113.52 882.49,-200.22 934.05,-265.25 848.8,-508.3 900.49,-573.22 906.41,-580.65 914.19,-586.13 922.78,-590.16"/>
<polygon fill="#999999" stroke="#999999" points="922.34,-591.88 927.62,-592.26 923.73,-588.67 922.34,-591.88"/>
</g>
<!-- L4YAML.Proofs.ScannerPlainScalarValid.flowNesting_push_non_flow&#45;&gt;L4YAML.YamlToken.flowMappingStart -->
<g id="edge21" class="edge">
<title>L4YAML.Proofs.ScannerPlainScalarValid.flowNesting_push_non_flow&#45;&gt;L4YAML.YamlToken.flowMappingStart</title>
<path fill="none" stroke="#999999" stroke-dasharray="1,5" d="M204.63,-322.96C231,-279.65 297.84,-182.18 384.72,-145.22 486.51,-101.92 802.42,-67.9 882.49,-144.22 912.69,-173 874.51,-486.58 900.49,-519.22 905.94,-526.06 912.98,-531.25 920.76,-535.18"/>
<polygon fill="#999999" stroke="#999999" points="920.42,-536.96 925.7,-537.47 921.9,-533.78 920.42,-536.96"/>
</g>
<!-- L4YAML.Proofs.ScannerPlainScalarValid.flowNesting_push_non_flow&#45;&gt;L4YAML.YamlToken.flowSequenceStart -->
<g id="edge27" class="edge">
<title>L4YAML.Proofs.ScannerPlainScalarValid.flowNesting_push_non_flow&#45;&gt;L4YAML.YamlToken.flowSequenceStart</title>
<path fill="none" stroke="#999999" stroke-dasharray="1,5" d="M200.54,-322.71C221.66,-270.72 283.51,-138.77 384.72,-88.22 582.64,10.63 706.09,45.29 882.49,-88.22 945.06,-135.57 983.03,-389.1 993.51,-468.46"/>
<polygon fill="#999999" stroke="#999999" points="991.84,-469.13 994.22,-473.86 995.31,-468.68 991.84,-469.13"/>
</g>
<!-- L4YAML.Proofs.ScannerPlainScalarValid.flowNesting_push_non_flow&#45;&gt;L4YAML.Proofs.ScannerPlainScalarValid.FlowNestingInv_emit_non_flow -->
<g id="edge11" class="edge">
<title>L4YAML.Proofs.ScannerPlainScalarValid.flowNesting_push_non_flow&#45;&gt;L4YAML.Proofs.ScannerPlainScalarValid.FlowNestingInv_emit_non_flow</title>
<path fill="none" stroke="#28a745" d="M304.6,-360.47C359.85,-368.47 426.9,-378.17 485,-386.58"/>
<polygon fill="#28a745" stroke="#28a745" points="484.76,-389.03 492.04,-387.6 485.46,-384.18 484.76,-389.03"/>
</g>
</g>
</svg>
