<?xml version="1.0" encoding="UTF-8" standalone="no"?>
<!DOCTYPE svg PUBLIC "-//W3C//DTD SVG 1.1//EN"
 "http://www.w3.org/Graphics/SVG/1.1/DTD/svg11.dtd">
<!-- Generated by graphviz version 2.44.0 (0)
 -->
<!-- Title: ScannerCorrectness.scanLoop_success_emits_streamEnd Pages: 1 -->
<svg width="832pt" height="1151pt"
 viewBox="0.00 0.00 832.12 1151.16" xmlns="http://www.w3.org/2000/svg" xmlns:xlink="http://www.w3.org/1999/xlink">
<g id="graph0" class="graph" transform="scale(1 1) rotate(0) translate(4 1147.16)">
<title>ScannerCorrectness.scanLoop_success_emits_streamEnd</title>
<polygon fill="white" stroke="transparent" points="-4,4 -4,-1147.16 828.12,-1147.16 828.12,4 -4,4"/>
<text text-anchor="middle" x="412.06" y="-1128.76" font-family="Helvetica Bold" font-size="13.00">ScannerCorrectness.scanLoop_success_emits_streamEnd</text>
<text text-anchor="middle" x="412.06" y="-1114.76" font-family="Helvetica Bold" font-size="13.00">Successful scan loop always emits STREAM_END</text>
<text text-anchor="middle" x="412.06" y="-1100.76" font-family="Helvetica Bold" font-size="13.00">(L4YAML.Proofs.ScannerCorrectness)</text>
<g id="clust1" class="cluster">
<title>cluster_functions</title>
<polygon fill="none" stroke="#4a90d9" stroke-dasharray="5,2" points="307.91,-417.16 307.91,-1085.16 816.12,-1085.16 816.12,-417.16 307.91,-417.16"/>
<text text-anchor="middle" x="562.01" y="-1070.76" font-family="Helvetica Bold" font-size="13.00" fill="#4a90d9">Functions</text>
</g>
<g id="clust2" class="cluster">
<title>cluster_key</title>
<polygon fill="none" stroke="#d4a017" stroke-dasharray="5,2" points="174.69,-22.16 174.69,-104.16 641.12,-104.16 641.12,-22.16 174.69,-22.16"/>
<text text-anchor="middle" x="407.91" y="-89.76" font-family="Helvetica Bold" font-size="13.00" fill="#d4a017">Key Theorem</text>
</g>
<g id="clust3" class="cluster">
<title>cluster_proofs</title>
<polygon fill="none" stroke="#28a745" stroke-dasharray="5,2" points="7,-468.16 7,-548.16 153.69,-548.16 153.69,-468.16 7,-468.16"/>
<text text-anchor="middle" x="80.35" y="-533.76" font-family="Helvetica Bold" font-size="13.00" fill="#28a745">Proof Dependencies</text>
</g>
<!-- L4YAML.Scanner.scanNextToken -->
<g id="node1" class="node">
<title>L4YAML.Scanner.scanNextToken</title>
<polygon fill="#dce9f7" stroke="#4a90d9" points="449.91,-1055.16 365.91,-1055.16 365.91,-1019.16 449.91,-1019.16 449.91,-1055.16"/>
<text text-anchor="middle" x="407.91" y="-1040.16" font-family="Helvetica" font-size="10.00">scanNextToken</text>
<text text-anchor="middle" x="407.91" y="-1029.16" font-family="Helvetica" font-size="10.00">(def)</text>
</g>
<!-- L4YAML.Scanner.ScannerState.emit -->
<g id="node2" class="node">
<title>L4YAML.Scanner.ScannerState.emit</title>
<polygon fill="#dce9f7" stroke="#4a90d9" points="800.12,-839.16 702.12,-839.16 702.12,-803.16 800.12,-803.16 800.12,-839.16"/>
<text text-anchor="middle" x="751.12" y="-824.16" font-family="Helvetica" font-size="10.00">ScannerState.emit</text>
<text text-anchor="middle" x="751.12" y="-813.16" font-family="Helvetica" font-size="10.00">(def)</text>
</g>
<!-- L4YAML.ScanError.unterminatedFlowCollection -->
<g id="node3" class="node">
<title>L4YAML.ScanError.unterminatedFlowCollection</title>
<polygon fill="#dce9f7" stroke="#4a90d9" points="499.91,-1001.16 315.91,-1001.16 315.91,-965.16 499.91,-965.16 499.91,-1001.16"/>
<text text-anchor="middle" x="407.91" y="-986.16" font-family="Helvetica" font-size="10.00">ScanError.unterminatedFlowCollection</text>
<text text-anchor="middle" x="407.91" y="-975.16" font-family="Helvetica" font-size="10.00">(ctor)</text>
</g>
<!-- L4YAML.Scanner.ScannerState.line -->
<g id="node4" class="node">
<title>L4YAML.Scanner.ScannerState.line</title>
<polygon fill="#dce9f7" stroke="#4a90d9" points="454.91,-947.16 360.91,-947.16 360.91,-911.16 454.91,-911.16 454.91,-947.16"/>
<text text-anchor="middle" x="407.91" y="-932.16" font-family="Helvetica" font-size="10.00">ScannerState.line</text>
<text text-anchor="middle" x="407.91" y="-921.16" font-family="Helvetica" font-size="10.00">(def)</text>
</g>
<!-- L4YAML.Scanner.ScannerState.flowLevel -->
<g id="node5" class="node">
<title>L4YAML.Scanner.ScannerState.flowLevel</title>
<polygon fill="#dce9f7" stroke="#4a90d9" points="467.41,-893.16 348.41,-893.16 348.41,-857.16 467.41,-857.16 467.41,-893.16"/>
<text text-anchor="middle" x="407.91" y="-878.16" font-family="Helvetica" font-size="10.00">ScannerState.flowLevel</text>
<text text-anchor="middle" x="407.91" y="-867.16" font-family="Helvetica" font-size="10.00">(def)</text>
</g>
<!-- L4YAML.Scanner.ScannerState -->
<g id="node6" class="node">
<title>L4YAML.Scanner.ScannerState</title>
<polygon fill="#dce9f7" stroke="#4a90d9" points="789.12,-677.16 713.12,-677.16 713.12,-641.16 789.12,-641.16 789.12,-677.16"/>
<text text-anchor="middle" x="751.12" y="-662.16" font-family="Helvetica" font-size="10.00">ScannerState</text>
<text text-anchor="middle" x="751.12" y="-651.16" font-family="Helvetica" font-size="10.00">(inductive)</text>
</g>
<!-- L4YAML.Scanner.ScannerState.documentEverStarted -->
<g id="node7" class="node">
<title>L4YAML.Scanner.ScannerState.documentEverStarted</title>
<polygon fill="#dce9f7" stroke="#4a90d9" points="494.41,-839.16 321.41,-839.16 321.41,-803.16 494.41,-803.16 494.41,-839.16"/>
<text text-anchor="middle" x="407.91" y="-824.16" font-family="Helvetica" font-size="10.00">ScannerState.documentEverStarted</text>
<text text-anchor="middle" x="407.91" y="-813.16" font-family="Helvetica" font-size="10.00">(def)</text>
</g>
<!-- L4YAML.Scanner.scanLoop -->
<g id="node8" class="node">
<title>L4YAML.Scanner.scanLoop</title>
<polygon fill="#dce9f7" stroke="#4a90d9" points="780.62,-515.16 721.62,-515.16 721.62,-479.16 780.62,-479.16 780.62,-515.16"/>
<text text-anchor="middle" x="751.12" y="-500.16" font-family="Helvetica" font-size="10.00">scanLoop</text>
<text text-anchor="middle" x="751.12" y="-489.16" font-family="Helvetica" font-size="10.00">(def)</text>
</g>
<!-- L4YAML.Scanner.scanLoop.match_1 -->
<g id="node9" class="node">
<title>L4YAML.Scanner.scanLoop.match_1</title>
<polygon fill="#dce9f7" stroke="#4a90d9" points="457.41,-785.16 358.41,-785.16 358.41,-749.16 457.41,-749.16 457.41,-785.16"/>
<text text-anchor="middle" x="407.91" y="-770.16" font-family="Helvetica" font-size="10.00">scanLoop.match_1</text>
<text text-anchor="middle" x="407.91" y="-759.16" font-family="Helvetica" font-size="10.00">(def)</text>
</g>
<!-- L4YAML.Scanner.ScannerState.tokens -->
<g id="node10" class="node">
<title>L4YAML.Scanner.ScannerState.tokens</title>
<polygon fill="#dce9f7" stroke="#4a90d9" points="804.62,-785.16 697.62,-785.16 697.62,-749.16 804.62,-749.16 804.62,-785.16"/>
<text text-anchor="middle" x="751.12" y="-770.16" font-family="Helvetica" font-size="10.00">ScannerState.tokens</text>
<text text-anchor="middle" x="751.12" y="-759.16" font-family="Helvetica" font-size="10.00">(def)</text>
</g>
<!-- L4YAML.YamlToken.streamEnd -->
<g id="node11" class="node">
<title>L4YAML.YamlToken.streamEnd</title>
<polygon fill="#dce9f7" stroke="#4a90d9" points="808.12,-731.16 694.12,-731.16 694.12,-695.16 808.12,-695.16 808.12,-731.16"/>
<text text-anchor="middle" x="751.12" y="-716.16" font-family="Helvetica" font-size="10.00">YamlToken.streamEnd</text>
<text text-anchor="middle" x="751.12" y="-705.16" font-family="Helvetica" font-size="10.00">(ctor)</text>
</g>
<!-- L4YAML.ScanError.directiveWithoutDocument -->
<g id="node12" class="node">
<title>L4YAML.ScanError.directiveWithoutDocument</title>
<polygon fill="#dce9f7" stroke="#4a90d9" points="496.91,-731.16 318.91,-731.16 318.91,-695.16 496.91,-695.16 496.91,-731.16"/>
<text text-anchor="middle" x="407.91" y="-716.16" font-family="Helvetica" font-size="10.00">ScanError.directiveWithoutDocument</text>
<text text-anchor="middle" x="407.91" y="-705.16" font-family="Helvetica" font-size="10.00">(ctor)</text>
</g>
<!-- L4YAML.Positioned -->
<g id="node13" class="node">
<title>L4YAML.Positioned</title>
<polygon fill="#dce9f7" stroke="#4a90d9" points="782.12,-461.16 720.12,-461.16 720.12,-425.16 782.12,-425.16 782.12,-461.16"/>
<text text-anchor="middle" x="751.12" y="-446.16" font-family="Helvetica" font-size="10.00">Positioned</text>
<text text-anchor="middle" x="751.12" y="-435.16" font-family="Helvetica" font-size="10.00">(inductive)</text>
</g>
<!-- L4YAML.ScanError.fuelExhausted -->
<g id="node14" class="node">
<title>L4YAML.ScanError.fuelExhausted</title>
<polygon fill="#dce9f7" stroke="#4a90d9" points="470.41,-677.16 345.41,-677.16 345.41,-641.16 470.41,-641.16 470.41,-677.16"/>
<text text-anchor="middle" x="407.91" y="-662.16" font-family="Helvetica" font-size="10.00">ScanError.fuelExhausted</text>
<text text-anchor="middle" x="407.91" y="-651.16" font-family="Helvetica" font-size="10.00">(ctor)</text>
</g>
<!-- L4YAML.Scanner.unwindIndents -->
<g id="node15" class="node">
<title>L4YAML.Scanner.unwindIndents</title>
<polygon fill="#dce9f7" stroke="#4a90d9" points="447.91,-623.16 367.91,-623.16 367.91,-587.16 447.91,-587.16 447.91,-623.16"/>
<text text-anchor="middle" x="407.91" y="-608.16" font-family="Helvetica" font-size="10.00">unwindIndents</text>
<text text-anchor="middle" x="407.91" y="-597.16" font-family="Helvetica" font-size="10.00">(def)</text>
</g>
<!-- L4YAML.YamlToken -->
<g id="node16" class="node">
<title>L4YAML.YamlToken</title>
<polygon fill="#dce9f7" stroke="#4a90d9" points="783.12,-569.16 719.12,-569.16 719.12,-533.16 783.12,-533.16 783.12,-569.16"/>
<text text-anchor="middle" x="751.12" y="-554.16" font-family="Helvetica" font-size="10.00">YamlToken</text>
<text text-anchor="middle" x="751.12" y="-543.16" font-family="Helvetica" font-size="10.00">(inductive)</text>
</g>
<!-- L4YAML.Scanner.ScannerState.peekAt?Loop.match_1 -->
<g id="node17" class="node">
<title>L4YAML.Scanner.ScannerState.peekAt?Loop.match_1</title>
<polygon fill="#dce9f7" stroke="#4a90d9" points="495.91,-569.16 319.91,-569.16 319.91,-533.16 495.91,-533.16 495.91,-569.16"/>
<text text-anchor="middle" x="407.91" y="-554.16" font-family="Helvetica" font-size="10.00">ScannerState.peekAt?Loop.match_1</text>
<text text-anchor="middle" x="407.91" y="-543.16" font-family="Helvetica" font-size="10.00">(def)</text>
</g>
<!-- L4YAML.Scanner.ScannerState.col -->
<g id="node18" class="node">
<title>L4YAML.Scanner.ScannerState.col</title>
<polygon fill="#dce9f7" stroke="#4a90d9" points="453.91,-515.16 361.91,-515.16 361.91,-479.16 453.91,-479.16 453.91,-515.16"/>
<text text-anchor="middle" x="407.91" y="-500.16" font-family="Helvetica" font-size="10.00">ScannerState.col</text>
<text text-anchor="middle" x="407.91" y="-489.16" font-family="Helvetica" font-size="10.00">(def)</text>
</g>
<!-- L4YAML.ScanError -->
<g id="node19" class="node">
<title>L4YAML.ScanError</title>
<polygon fill="#dce9f7" stroke="#4a90d9" points="782.12,-623.16 720.12,-623.16 720.12,-587.16 782.12,-587.16 782.12,-623.16"/>
<text text-anchor="middle" x="751.12" y="-608.16" font-family="Helvetica" font-size="10.00">ScanError</text>
<text text-anchor="middle" x="751.12" y="-597.16" font-family="Helvetica" font-size="10.00">(inductive)</text>
</g>
<!-- L4YAML.Scanner.ScannerState.directivesPresent -->
<g id="node20" class="node">
<title>L4YAML.Scanner.ScannerState.directivesPresent</title>
<polygon fill="#dce9f7" stroke="#4a90d9" points="484.91,-461.16 330.91,-461.16 330.91,-425.16 484.91,-425.16 484.91,-461.16"/>
<text text-anchor="middle" x="407.91" y="-446.16" font-family="Helvetica" font-size="10.00">ScannerState.directivesPresent</text>
<text text-anchor="middle" x="407.91" y="-435.16" font-family="Helvetica" font-size="10.00">(def)</text>
</g>
<!-- L4YAML.Proofs.ScannerCorrectness.scanLoop_success_emits_streamEnd -->
<g id="node21" class="node">
<title>L4YAML.Proofs.ScannerCorrectness.scanLoop_success_emits_streamEnd</title>
<polygon fill="#fff3cd" stroke="#d4a017" points="629.33,-44.71 629.33,-59.62 499.62,-70.16 316.19,-70.16 186.48,-59.62 186.48,-44.71 316.19,-34.16 499.62,-34.16 629.33,-44.71"/>
<polygon fill="none" stroke="#d4a017" points="633.33,-41.02 633.33,-63.31 499.79,-74.16 316.03,-74.16 182.48,-63.31 182.48,-41.02 316.03,-30.16 499.79,-30.16 633.33,-41.02"/>
<text text-anchor="middle" x="407.91" y="-49.06" font-family="Helvetica" font-size="12.00">ScannerCorrectness.scanLoop_success_emits_streamEnd</text>
</g>
<!-- L4YAML.Proofs.ScannerCorrectness.scanLoop_success_emits_streamEnd&#45;&gt;L4YAML.Scanner.ScannerState.emit -->
<g id="edge2" class="edge">
<title>L4YAML.Proofs.ScannerCorrectness.scanLoop_success_emits_streamEnd&#45;&gt;L4YAML.Scanner.ScannerState.emit</title>
<path fill="none" stroke="#4a90d9" stroke-width="2" d="M425.79,-74.36C482.3,-148.82 662,-387.39 676.12,-428.16 689.45,-466.64 671.63,-760.22 694.12,-794.16 694.93,-795.38 695.8,-796.54 696.74,-797.65"/>
<polygon fill="#4a90d9" stroke="#4a90d9" stroke-width="2" points="695.2,-799.58 701.89,-802.79 698.67,-796.11 695.2,-799.58"/>
<text text-anchor="middle" x="663.62" y="-430.76" font-family="Times-Roman" font-size="8.00" fill="#4a90d9">about</text>
</g>
<!-- L4YAML.Proofs.ScannerCorrectness.scanLoop_success_emits_streamEnd&#45;&gt;L4YAML.Scanner.ScannerState -->
<g id="edge6" class="edge">
<title>L4YAML.Proofs.ScannerCorrectness.scanLoop_success_emits_streamEnd&#45;&gt;L4YAML.Scanner.ScannerState</title>
<path fill="none" stroke="#4a90d9" stroke-width="2" d="M459.34,-74.17C522.76,-104.89 629.01,-167.15 676.12,-257.16 714.81,-331.08 648.07,-562.6 694.12,-632.16 697.42,-637.14 701.91,-641.23 706.92,-644.58"/>
<polygon fill="#4a90d9" stroke="#4a90d9" stroke-width="2" points="705.73,-646.73 713,-648.19 708.23,-642.51 705.73,-646.73"/>
<text text-anchor="middle" x="663.62" y="-259.76" font-family="Times-Roman" font-size="8.00" fill="#4a90d9">about</text>
</g>
<!-- L4YAML.Proofs.ScannerCorrectness.scanLoop_success_emits_streamEnd&#45;&gt;L4YAML.Scanner.scanLoop -->
<g id="edge4" class="edge">
<title>L4YAML.Proofs.ScannerCorrectness.scanLoop_success_emits_streamEnd&#45;&gt;L4YAML.Scanner.scanLoop</title>
<path fill="none" stroke="#4a90d9" stroke-width="2" d="M633.36,-55.44C649.32,-62.92 663.91,-72.93 676.12,-86.16 705.1,-117.55 670.56,-434.53 694.12,-470.16 699.05,-477.62 706.65,-483.08 714.68,-487.05"/>
<polygon fill="#4a90d9" stroke="#4a90d9" stroke-width="2" points="714.08,-489.46 721.47,-490.05 716.06,-484.98 714.08,-489.46"/>
<text text-anchor="middle" x="663.62" y="-88.76" font-family="Times-Roman" font-size="8.00" fill="#4a90d9">about</text>
</g>
<!-- L4YAML.Proofs.ScannerCorrectness.scanLoop_success_emits_streamEnd&#45;&gt;L4YAML.Scanner.ScannerState.tokens -->
<g id="edge1" class="edge">
<title>L4YAML.Proofs.ScannerCorrectness.scanLoop_success_emits_streamEnd&#45;&gt;L4YAML.Scanner.ScannerState.tokens</title>
<path fill="none" stroke="#4a90d9" stroke-width="2" d="M430.68,-74.22C489.45,-134.33 648.74,-301.19 676.12,-371.16 691.08,-409.39 671.45,-705.94 694.12,-740.16 694.93,-741.38 695.8,-742.54 696.74,-743.65"/>
<polygon fill="#4a90d9" stroke="#4a90d9" stroke-width="2" points="695.2,-745.58 701.89,-748.79 698.66,-742.11 695.2,-745.58"/>
<text text-anchor="middle" x="663.62" y="-373.76" font-family="Times-Roman" font-size="8.00" fill="#4a90d9">about</text>
</g>
<!-- L4YAML.Proofs.ScannerCorrectness.scanLoop_success_emits_streamEnd&#45;&gt;L4YAML.YamlToken.streamEnd -->
<g id="edge8" class="edge">
<title>L4YAML.Proofs.ScannerCorrectness.scanLoop_success_emits_streamEnd&#45;&gt;L4YAML.YamlToken.streamEnd</title>
<path fill="none" stroke="#4a90d9" stroke-width="2" d="M444.87,-74.21C505.45,-113.66 626.11,-202.72 676.12,-314.16 710,-389.67 648.42,-617.16 694.12,-686.16 694.93,-687.38 695.8,-688.54 696.74,-689.65"/>
<polygon fill="#4a90d9" stroke="#4a90d9" stroke-width="2" points="695.2,-691.58 701.89,-694.79 698.66,-688.11 695.2,-691.58"/>
<text text-anchor="middle" x="663.62" y="-316.76" font-family="Times-Roman" font-size="8.00" fill="#4a90d9">about</text>
</g>
<!-- L4YAML.Proofs.ScannerCorrectness.scanLoop_success_emits_streamEnd&#45;&gt;L4YAML.Positioned -->
<g id="edge3" class="edge">
<title>L4YAML.Proofs.ScannerCorrectness.scanLoop_success_emits_streamEnd&#45;&gt;L4YAML.Positioned</title>
<path fill="none" stroke="#4a90d9" stroke-width="2" d="M455.74,-30.07C514.33,-6.05 614.44,22.47 676.12,-29.16 736.05,-79.33 747.5,-335.14 749.64,-417.55"/>
<polygon fill="#4a90d9" stroke="#4a90d9" stroke-width="2" points="747.2,-418.03 749.82,-424.97 752.1,-417.91 747.2,-418.03"/>
<text text-anchor="middle" x="663.62" y="-31.76" font-family="Times-Roman" font-size="8.00" fill="#4a90d9">about</text>
</g>
<!-- L4YAML.Proofs.ScannerCorrectness.scanLoop_success_emits_streamEnd&#45;&gt;L4YAML.YamlToken -->
<g id="edge5" class="edge">
<title>L4YAML.Proofs.ScannerCorrectness.scanLoop_success_emits_streamEnd&#45;&gt;L4YAML.YamlToken</title>
<path fill="none" stroke="#4a90d9" stroke-width="2" d="M555.98,-69.6C601.56,-82.56 647.32,-104.88 676.12,-143.16 727.07,-210.9 647.36,-453.47 694.12,-524.16 698.54,-530.85 705.11,-535.93 712.21,-539.77"/>
<polygon fill="#4a90d9" stroke="#4a90d9" stroke-width="2" points="711.46,-542.13 718.83,-542.96 713.59,-537.71 711.46,-542.13"/>
<text text-anchor="middle" x="663.62" y="-145.76" font-family="Times-Roman" font-size="8.00" fill="#4a90d9">about</text>
</g>
<!-- L4YAML.Proofs.ScannerCorrectness.scanLoop_success_emits_streamEnd&#45;&gt;L4YAML.ScanError -->
<g id="edge7" class="edge">
<title>L4YAML.Proofs.ScannerCorrectness.scanLoop_success_emits_streamEnd&#45;&gt;L4YAML.ScanError</title>
<path fill="none" stroke="#4a90d9" stroke-width="2" d="M491.87,-74.24C554.07,-95.52 635.24,-134.41 676.12,-200.16 720.53,-271.58 647.71,-508.03 694.12,-578.16 698.82,-585.26 705.94,-590.55 713.55,-594.47"/>
<polygon fill="#4a90d9" stroke="#4a90d9" stroke-width="2" points="712.63,-596.75 720.01,-597.45 714.68,-592.3 712.63,-596.75"/>
<text text-anchor="middle" x="663.62" y="-202.76" font-family="Times-Roman" font-size="8.00" fill="#4a90d9">about</text>
</g>
<!-- L4YAML.Scanner.scanLoop.eq_def -->
<g id="node22" class="node">
<title>L4YAML.Scanner.scanLoop.eq_def</title>
<ellipse fill="#d4edda" stroke="#28a745" cx="80.35" cy="-497.16" rx="64.19" ry="21.43"/>
<text text-anchor="middle" x="80.35" y="-500.16" font-family="Helvetica" font-size="10.00">scanLoop.eq_def</text>
<text text-anchor="middle" x="80.35" y="-489.16" font-family="Helvetica" font-size="10.00">(Scanner)</text>
</g>
<!-- L4YAML.Scanner.scanLoop.eq_def&#45;&gt;L4YAML.Scanner.scanNextToken -->
<g id="edge23" class="edge">
<title>L4YAML.Scanner.scanLoop.eq_def&#45;&gt;L4YAML.Scanner.scanNextToken</title>
<path fill="none" stroke="#999999" stroke-dasharray="1,5" d="M81.93,-518.62C84.8,-607.16 100.51,-942.56 174.69,-1010.16 224.87,-1055.89 308.6,-1053.39 360.63,-1046.16"/>
<polygon fill="#999999" stroke="#999999" points="361.17,-1047.85 365.87,-1045.4 360.67,-1044.39 361.17,-1047.85"/>
</g>
<!-- L4YAML.Scanner.scanLoop.eq_def&#45;&gt;L4YAML.Scanner.ScannerState.emit -->
<g id="edge15" class="edge">
<title>L4YAML.Scanner.scanLoop.eq_def&#45;&gt;L4YAML.Scanner.ScannerState.emit</title>
<path fill="none" stroke="#999999" stroke-dasharray="1,5" d="M97.31,-476.6C114.11,-456.81 142.53,-428.17 174.69,-416.16 271.8,-379.91 562.91,-348.15 641.12,-416.16 673.12,-443.99 669.12,-759.9 694.12,-794.16 695.56,-796.13 697.17,-797.96 698.93,-799.66"/>
<polygon fill="#999999" stroke="#999999" points="697.8,-801 702.72,-802.98 700.11,-798.37 697.8,-801"/>
</g>
<!-- L4YAML.Scanner.scanLoop.eq_def&#45;&gt;L4YAML.ScanError.unterminatedFlowCollection -->
<g id="edge22" class="edge">
<title>L4YAML.Scanner.scanLoop.eq_def&#45;&gt;L4YAML.ScanError.unterminatedFlowCollection</title>
<path fill="none" stroke="#999999" stroke-dasharray="1,5" d="M82.47,-518.54C87.24,-600.87 108.77,-895.85 174.69,-956.16 210.74,-989.14 264.22,-997.07 310.78,-996.23"/>
<polygon fill="#999999" stroke="#999999" points="310.88,-997.97 315.84,-996.1 310.8,-994.47 310.88,-997.97"/>
</g>
<!-- L4YAML.Scanner.scanLoop.eq_def&#45;&gt;L4YAML.Scanner.ScannerState.line -->
<g id="edge26" class="edge">
<title>L4YAML.Scanner.scanLoop.eq_def&#45;&gt;L4YAML.Scanner.ScannerState.line</title>
<path fill="none" stroke="#999999" stroke-dasharray="1,5" d="M83.1,-518.6C89.79,-594.67 116.29,-849.89 174.69,-902.16 223.52,-945.86 303.13,-945.18 355.26,-938.72"/>
<polygon fill="#999999" stroke="#999999" points="355.8,-940.41 360.54,-938.03 355.35,-936.94 355.8,-940.41"/>
</g>
<!-- L4YAML.Scanner.scanLoop.eq_def&#45;&gt;L4YAML.Scanner.ScannerState.flowLevel -->
<g id="edge24" class="edge">
<title>L4YAML.Scanner.scanLoop.eq_def&#45;&gt;L4YAML.Scanner.ScannerState.flowLevel</title>
<path fill="none" stroke="#999999" stroke-dasharray="1,5" d="M83.88,-518.36C92.58,-587.39 123.55,-803.91 174.69,-848.16 220.39,-887.7 291.48,-890.38 342.97,-885.7"/>
<polygon fill="#999999" stroke="#999999" points="343.39,-887.42 348.2,-885.2 343.05,-883.94 343.39,-887.42"/>
</g>
<!-- L4YAML.Scanner.scanLoop.eq_def&#45;&gt;L4YAML.Scanner.ScannerState -->
<g id="edge20" class="edge">
<title>L4YAML.Scanner.scanLoop.eq_def&#45;&gt;L4YAML.Scanner.ScannerState</title>
<path fill="none" stroke="#999999" stroke-dasharray="1,5" d="M83.24,-475.86C88.16,-434.82 105.39,-345.44 163.69,-307.16 252.38,-248.94 538.29,-281.05 641.12,-307.16 658.28,-311.52 666.63,-311.22 676.12,-326.16 712.66,-383.65 656.21,-575.57 694.12,-632.16 697.81,-637.67 702.94,-642.08 708.62,-645.61"/>
<polygon fill="#999999" stroke="#999999" points="707.85,-647.19 713.06,-648.15 709.58,-644.15 707.85,-647.19"/>
</g>
<!-- L4YAML.Scanner.scanLoop.eq_def&#45;&gt;L4YAML.Scanner.ScannerState.documentEverStarted -->
<g id="edge17" class="edge">
<title>L4YAML.Scanner.scanLoop.eq_def&#45;&gt;L4YAML.Scanner.ScannerState.documentEverStarted</title>
<path fill="none" stroke="#999999" stroke-dasharray="1,5" d="M80.82,-518.61C80.73,-574.13 88.89,-723.2 174.69,-794.16 213.47,-826.23 269.15,-833.57 316.27,-832.61"/>
<polygon fill="#999999" stroke="#999999" points="316.44,-834.36 321.39,-832.48 316.34,-830.86 316.44,-834.36"/>
</g>
<!-- L4YAML.Scanner.scanLoop.eq_def&#45;&gt;L4YAML.Scanner.scanLoop -->
<g id="edge18" class="edge">
<title>L4YAML.Scanner.scanLoop.eq_def&#45;&gt;L4YAML.Scanner.scanLoop</title>
<path fill="none" stroke="#999999" stroke-dasharray="1,5" d="M83.69,-475.91C91.27,-411.65 117.28,-221.49 163.69,-184.16 208.1,-148.46 634.66,-125.07 676.12,-164.16 700.9,-187.53 675.17,-441.86 694.12,-470.16 699.49,-478.18 707.95,-483.89 716.67,-487.93"/>
<polygon fill="#999999" stroke="#999999" points="716.25,-489.65 721.53,-490.01 717.62,-486.43 716.25,-489.65"/>
</g>
<!-- L4YAML.Scanner.scanLoop.eq_def&#45;&gt;L4YAML.Scanner.scanLoop.match_1 -->
<g id="edge27" class="edge">
<title>L4YAML.Scanner.scanLoop.eq_def&#45;&gt;L4YAML.Scanner.scanLoop.match_1</title>
<path fill="none" stroke="#999999" stroke-dasharray="1,5" d="M82.51,-518.64C86.39,-567.02 103.1,-684.61 174.69,-740.16 225.38,-779.49 302.01,-780.55 353.21,-775.6"/>
<polygon fill="#999999" stroke="#999999" points="353.6,-777.32 358.4,-775.07 353.25,-773.84 353.6,-777.32"/>
</g>
<!-- L4YAML.Scanner.scanLoop.eq_def&#45;&gt;L4YAML.Scanner.ScannerState.tokens -->
<g id="edge10" class="edge">
<title>L4YAML.Scanner.scanLoop.eq_def&#45;&gt;L4YAML.Scanner.ScannerState.tokens</title>
<path fill="none" stroke="#999999" stroke-dasharray="1,5" d="M89.44,-475.99C101.14,-448.74 125.65,-402.61 163.69,-383.16 258.16,-334.87 554.73,-321.57 641.12,-383.16 652.22,-391.08 644.22,-400.4 651.12,-412.16 659.56,-426.55 669.71,-424.76 676.12,-440.16 701.78,-501.82 656.92,-684.69 694.12,-740.16 695.34,-741.98 696.71,-743.67 698.21,-745.26"/>
<polygon fill="#999999" stroke="#999999" points="697.09,-746.61 701.93,-748.76 699.49,-744.06 697.09,-746.61"/>
</g>
<!-- L4YAML.Scanner.scanLoop.eq_def&#45;&gt;L4YAML.YamlToken.streamEnd -->
<g id="edge29" class="edge">
<title>L4YAML.Scanner.scanLoop.eq_def&#45;&gt;L4YAML.YamlToken.streamEnd</title>
<path fill="none" stroke="#999999" stroke-dasharray="1,5" d="M85.63,-475.97C93.88,-441.39 115.6,-373.8 163.69,-345.16 254.85,-290.87 543.96,-302.56 641.12,-345.16 642.44,-345.74 675.56,-381.84 676.12,-383.16 702.5,-445.24 656.57,-630.13 694.12,-686.16 695.34,-687.98 696.71,-689.68 698.21,-691.26"/>
<polygon fill="#999999" stroke="#999999" points="697.09,-692.61 701.92,-694.77 699.49,-690.06 697.09,-692.61"/>
</g>
<!-- L4YAML.Scanner.scanLoop.eq_def&#45;&gt;L4YAML.ScanError.directiveWithoutDocument -->
<g id="edge12" class="edge">
<title>L4YAML.Scanner.scanLoop.eq_def&#45;&gt;L4YAML.ScanError.directiveWithoutDocument</title>
<path fill="none" stroke="#999999" stroke-dasharray="1,5" d="M85.03,-518.48C93.22,-558.71 116.96,-645.48 174.69,-686.16 214.46,-714.19 267.91,-721.89 313.5,-722.15"/>
<polygon fill="#999999" stroke="#999999" points="313.74,-723.9 318.73,-722.15 313.73,-720.4 313.74,-723.9"/>
</g>
<!-- L4YAML.Scanner.scanLoop.eq_def&#45;&gt;L4YAML.Positioned -->
<g id="edge16" class="edge">
<title>L4YAML.Scanner.scanLoop.eq_def&#45;&gt;L4YAML.Positioned</title>
<path fill="none" stroke="#999999" stroke-dasharray="1,5" d="M83.63,-475.94C91.64,-405.76 120.94,-183.22 174.69,-140.16 196.46,-122.73 654.33,-99.76 676.12,-117.16 723.97,-155.37 743.21,-352.06 748.5,-420.03"/>
<polygon fill="#999999" stroke="#999999" points="746.76,-420.22 748.89,-425.07 750.25,-419.95 746.76,-420.22"/>
</g>
<!-- L4YAML.Scanner.scanLoop.eq_def&#45;&gt;L4YAML.ScanError.fuelExhausted -->
<g id="edge28" class="edge">
<title>L4YAML.Scanner.scanLoop.eq_def&#45;&gt;L4YAML.ScanError.fuelExhausted</title>
<path fill="none" stroke="#999999" stroke-dasharray="1,5" d="M89.3,-518.3C102.12,-549.12 130.48,-605.61 174.69,-632.16 224.48,-662.06 291.16,-666.97 340.29,-665.49"/>
<polygon fill="#999999" stroke="#999999" points="340.35,-667.24 345.29,-665.31 340.23,-663.74 340.35,-667.24"/>
</g>
<!-- L4YAML.Scanner.scanLoop.eq_def&#45;&gt;L4YAML.Scanner.unwindIndents -->
<g id="edge25" class="edge">
<title>L4YAML.Scanner.scanLoop.eq_def&#45;&gt;L4YAML.Scanner.unwindIndents</title>
<path fill="none" stroke="#999999" stroke-dasharray="1,5" d="M98.27,-517.67C115.39,-536.84 143.67,-564.49 174.69,-578.16 235.79,-605.1 314.25,-608.56 362.54,-607.6"/>
<polygon fill="#999999" stroke="#999999" points="362.73,-609.35 367.69,-607.48 362.65,-605.85 362.73,-609.35"/>
</g>
<!-- L4YAML.Scanner.scanLoop.eq_def&#45;&gt;L4YAML.YamlToken -->
<g id="edge19" class="edge">
<title>L4YAML.Scanner.scanLoop.eq_def&#45;&gt;L4YAML.YamlToken</title>
<path fill="none" stroke="#999999" stroke-dasharray="1,5" d="M80.44,-475.71C79.55,-423.69 85.42,-290.75 163.69,-231.16 209.02,-196.66 634.69,-177.08 676.12,-216.16 701.06,-239.68 675.05,-495.68 694.12,-524.16 698.94,-531.37 706.25,-536.71 714.02,-540.65"/>
<polygon fill="#999999" stroke="#999999" points="713.62,-542.39 718.89,-542.92 715.1,-539.22 713.62,-542.39"/>
</g>
<!-- L4YAML.Scanner.scanLoop.eq_def&#45;&gt;L4YAML.Scanner.ScannerState.peekAt?Loop.match_1 -->
<g id="edge13" class="edge">
<title>L4YAML.Scanner.scanLoop.eq_def&#45;&gt;L4YAML.Scanner.ScannerState.peekAt?Loop.match_1</title>
<path fill="none" stroke="#999999" stroke-dasharray="1,5" d="M127.03,-512.01C142.08,-516.47 158.98,-521 174.69,-524.16 220.38,-533.36 271.81,-539.74 314.63,-543.98"/>
<polygon fill="#999999" stroke="#999999" points="314.66,-545.74 319.81,-544.48 315,-542.26 314.66,-545.74"/>
</g>
<!-- L4YAML.Scanner.scanLoop.eq_def&#45;&gt;L4YAML.Scanner.ScannerState.col -->
<g id="edge11" class="edge">
<title>L4YAML.Scanner.scanLoop.eq_def&#45;&gt;L4YAML.Scanner.ScannerState.col</title>
<path fill="none" stroke="#999999" stroke-dasharray="1,5" d="M144.89,-497.16C206.86,-497.16 299.86,-497.16 356.79,-497.16"/>
<polygon fill="#999999" stroke="#999999" points="356.84,-498.91 361.84,-497.16 356.84,-495.41 356.84,-498.91"/>
</g>
<!-- L4YAML.Scanner.scanLoop.eq_def&#45;&gt;L4YAML.ScanError -->
<g id="edge21" class="edge">
<title>L4YAML.Scanner.scanLoop.eq_def&#45;&gt;L4YAML.ScanError</title>
<path fill="none" stroke="#999999" stroke-dasharray="1,5" d="M81.57,-475.8C83.35,-428.92 94.98,-317.41 163.69,-269.16 210.29,-236.45 634.71,-230.09 676.12,-269.16 701.14,-292.76 674.99,-549.58 694.12,-578.16 699.24,-585.81 707.15,-591.35 715.44,-595.35"/>
<polygon fill="#999999" stroke="#999999" points="714.78,-596.98 720.06,-597.42 716.21,-593.78 714.78,-596.98"/>
</g>
<!-- L4YAML.Scanner.scanLoop.eq_def&#45;&gt;L4YAML.Scanner.ScannerState.directivesPresent -->
<g id="edge14" class="edge">
<title>L4YAML.Scanner.scanLoop.eq_def&#45;&gt;L4YAML.Scanner.ScannerState.directivesPresent</title>
<path fill="none" stroke="#999999" stroke-dasharray="1,5" d="M127.03,-482.31C142.08,-477.86 158.98,-473.33 174.69,-470.16 224.4,-460.16 280.9,-453.49 325.72,-449.28"/>
<polygon fill="#999999" stroke="#999999" points="326.03,-451.01 330.85,-448.8 325.71,-447.52 326.03,-451.01"/>
</g>
<!-- L4YAML.Scanner.scanLoop.eq_def&#45;&gt;L4YAML.Proofs.ScannerCorrectness.scanLoop_success_emits_streamEnd -->
<g id="edge9" class="edge">
<title>L4YAML.Scanner.scanLoop.eq_def&#45;&gt;L4YAML.Proofs.ScannerCorrectness.scanLoop_success_emits_streamEnd</title>
<path fill="none" stroke="#28a745" d="M82.9,-475.79C88.69,-402.27 111.38,-161.41 163.69,-108.16 180.55,-91 201.54,-78.65 224.07,-69.83"/>
<polygon fill="#28a745" stroke="#28a745" points="225.08,-72.07 230.78,-67.32 223.37,-67.48 225.08,-72.07"/>
</g>
</g>
</svg>
