<?xml version="1.0" encoding="UTF-8" standalone="no"?>
<!DOCTYPE svg PUBLIC "-//W3C//DTD SVG 1.1//EN"
 "http://www.w3.org/Graphics/SVG/1.1/DTD/svg11.dtd">
<!-- Generated by graphviz version 2.44.0 (0)
 -->
<!-- Title: ScannerCorrectness.field_update_preserves_ScanInv Pages: 1 -->
<svg width="963pt" height="418pt"
 viewBox="0.00 0.00 963.32 418.00" xmlns="http://www.w3.org/2000/svg" xmlns:xlink="http://www.w3.org/1999/xlink">
<g id="graph0" class="graph" transform="scale(1 1) rotate(0) translate(4 414)">
<title>ScannerCorrectness.field_update_preserves_ScanInv</title>
<polygon fill="white" stroke="transparent" points="-4,4 -4,-414 959.32,-414 959.32,4 -4,4"/>
<text text-anchor="middle" x="477.66" y="-395.6" font-family="Helvetica Bold" font-size="13.00">ScannerCorrectness.field_update_preserves_ScanInv</text>
<text text-anchor="middle" x="477.66" y="-381.6" font-family="Helvetica Bold" font-size="13.00">(heuristic: used by 30 proofs)</text>
<text text-anchor="middle" x="477.66" y="-367.6" font-family="Helvetica Bold" font-size="13.00">(L4YAML.Proofs.ScannerCorrectness)</text>
<g id="clust1" class="cluster">
<title>cluster_functions</title>
<polygon fill="none" stroke="#4a90d9" stroke-dasharray="5,2" points="786.32,-8 786.32,-352 947.32,-352 947.32,-8 786.32,-8"/>
<text text-anchor="middle" x="866.82" y="-337.6" font-family="Helvetica Bold" font-size="13.00" fill="#4a90d9">Functions</text>
</g>
<g id="clust2" class="cluster">
<title>cluster_key</title>
<polygon fill="none" stroke="#d4a017" stroke-dasharray="5,2" points="310.87,-148 310.87,-230 741.32,-230 741.32,-148 310.87,-148"/>
<text text-anchor="middle" x="526.1" y="-215.6" font-family="Helvetica Bold" font-size="13.00" fill="#d4a017">Key Theorem</text>
</g>
<g id="clust3" class="cluster">
<title>cluster_proofs</title>
<polygon fill="none" stroke="#28a745" stroke-dasharray="5,2" points="8,-219 8,-299 289.87,-299 289.87,-219 8,-219"/>
<text text-anchor="middle" x="148.94" y="-284.6" font-family="Helvetica Bold" font-size="13.00" fill="#28a745">Proof Dependencies</text>
</g>
<!-- L4YAML.Proofs.ScannerCorrectness.ScanInv -->
<g id="node1" class="node">
<title>L4YAML.Proofs.ScannerCorrectness.ScanInv</title>
<polygon fill="#dce9f7" stroke="#4a90d9" points="939.32,-106 794.32,-106 794.32,-70 939.32,-70 939.32,-106"/>
<text text-anchor="middle" x="866.82" y="-91" font-family="Helvetica" font-size="10.00">ScannerCorrectness.ScanInv</text>
<text text-anchor="middle" x="866.82" y="-80" font-family="Helvetica" font-size="10.00">(def)</text>
</g>
<!-- L4YAML.Positioned -->
<g id="node2" class="node">
<title>L4YAML.Positioned</title>
<polygon fill="#dce9f7" stroke="#4a90d9" points="897.82,-322 835.82,-322 835.82,-286 897.82,-286 897.82,-322"/>
<text text-anchor="middle" x="866.82" y="-307" font-family="Helvetica" font-size="10.00">Positioned</text>
<text text-anchor="middle" x="866.82" y="-296" font-family="Helvetica" font-size="10.00">(inductive)</text>
</g>
<!-- L4YAML.Scanner.ScannerState -->
<g id="node3" class="node">
<title>L4YAML.Scanner.ScannerState</title>
<polygon fill="#dce9f7" stroke="#4a90d9" points="904.82,-52 828.82,-52 828.82,-16 904.82,-16 904.82,-52"/>
<text text-anchor="middle" x="866.82" y="-37" font-family="Helvetica" font-size="10.00">ScannerState</text>
<text text-anchor="middle" x="866.82" y="-26" font-family="Helvetica" font-size="10.00">(inductive)</text>
</g>
<!-- L4YAML.YamlToken -->
<g id="node4" class="node">
<title>L4YAML.YamlToken</title>
<polygon fill="#dce9f7" stroke="#4a90d9" points="898.82,-268 834.82,-268 834.82,-232 898.82,-232 898.82,-268"/>
<text text-anchor="middle" x="866.82" y="-253" font-family="Helvetica" font-size="10.00">YamlToken</text>
<text text-anchor="middle" x="866.82" y="-242" font-family="Helvetica" font-size="10.00">(inductive)</text>
</g>
<!-- L4YAML.Scanner.ScannerState.offset -->
<g id="node5" class="node">
<title>L4YAML.Scanner.ScannerState.offset</title>
<polygon fill="#dce9f7" stroke="#4a90d9" points="918.32,-214 815.32,-214 815.32,-178 918.32,-178 918.32,-214"/>
<text text-anchor="middle" x="866.82" y="-199" font-family="Helvetica" font-size="10.00">ScannerState.offset</text>
<text text-anchor="middle" x="866.82" y="-188" font-family="Helvetica" font-size="10.00">(def)</text>
</g>
<!-- L4YAML.Scanner.ScannerState.tokens -->
<g id="node6" class="node">
<title>L4YAML.Scanner.ScannerState.tokens</title>
<polygon fill="#dce9f7" stroke="#4a90d9" points="920.32,-160 813.32,-160 813.32,-124 920.32,-124 920.32,-160"/>
<text text-anchor="middle" x="866.82" y="-145" font-family="Helvetica" font-size="10.00">ScannerState.tokens</text>
<text text-anchor="middle" x="866.82" y="-134" font-family="Helvetica" font-size="10.00">(def)</text>
</g>
<!-- L4YAML.Proofs.ScannerCorrectness.field_update_preserves_ScanInv -->
<g id="node7" class="node">
<title>L4YAML.Proofs.ScannerCorrectness.field_update_preserves_ScanInv</title>
<polygon fill="#fff3cd" stroke="#d4a017" points="729.54,-170.54 729.54,-185.46 610.36,-196 441.83,-196 322.65,-185.46 322.65,-170.54 441.83,-160 610.36,-160 729.54,-170.54"/>
<polygon fill="none" stroke="#d4a017" points="733.54,-166.88 733.54,-189.12 610.54,-200 441.65,-200 318.65,-189.12 318.65,-166.88 441.65,-156 610.54,-156 733.54,-166.88"/>
<text text-anchor="middle" x="526.1" y="-174.9" font-family="Helvetica" font-size="12.00">ScannerCorrectness.field_update_preserves_ScanInv</text>
</g>
<!-- L4YAML.Proofs.ScannerCorrectness.field_update_preserves_ScanInv&#45;&gt;L4YAML.Proofs.ScannerCorrectness.ScanInv -->
<g id="edge2" class="edge">
<title>L4YAML.Proofs.ScannerCorrectness.field_update_preserves_ScanInv&#45;&gt;L4YAML.Proofs.ScannerCorrectness.ScanInv</title>
<path fill="none" stroke="#4a90d9" stroke-width="2" d="M609.96,-155.98C665.36,-141.26 737.66,-122.05 791.26,-107.81"/>
<polygon fill="#4a90d9" stroke="#4a90d9" stroke-width="2" points="791.9,-110.18 798.03,-106.01 790.64,-105.44 791.9,-110.18"/>
<text text-anchor="middle" x="763.82" y="-120.6" font-family="Times-Roman" font-size="8.00" fill="#4a90d9">about</text>
</g>
<!-- L4YAML.Proofs.ScannerCorrectness.field_update_preserves_ScanInv&#45;&gt;L4YAML.Positioned -->
<g id="edge3" class="edge">
<title>L4YAML.Proofs.ScannerCorrectness.field_update_preserves_ScanInv&#45;&gt;L4YAML.Positioned</title>
<path fill="none" stroke="#4a90d9" stroke-width="2" d="M583,-200.04C635.35,-220.52 715.85,-251.59 786.32,-277 800.1,-281.97 815.31,-287.2 828.7,-291.72"/>
<polygon fill="#4a90d9" stroke="#4a90d9" stroke-width="2" points="828.11,-294.1 835.53,-294.01 829.67,-289.46 828.11,-294.1"/>
<text text-anchor="middle" x="763.82" y="-273.6" font-family="Times-Roman" font-size="8.00" fill="#4a90d9">about</text>
</g>
<!-- L4YAML.Proofs.ScannerCorrectness.field_update_preserves_ScanInv&#45;&gt;L4YAML.Scanner.ScannerState -->
<g id="edge6" class="edge">
<title>L4YAML.Proofs.ScannerCorrectness.field_update_preserves_ScanInv&#45;&gt;L4YAML.Scanner.ScannerState</title>
<path fill="none" stroke="#4a90d9" stroke-width="2" d="M572.41,-155.94C623.71,-131.34 710.07,-91.07 786.32,-61 797.77,-56.48 810.31,-52.01 821.98,-48.04"/>
<polygon fill="#4a90d9" stroke="#4a90d9" stroke-width="2" points="822.89,-50.32 828.74,-45.77 821.32,-45.68 822.89,-50.32"/>
<text text-anchor="middle" x="763.82" y="-75.6" font-family="Times-Roman" font-size="8.00" fill="#4a90d9">about</text>
</g>
<!-- L4YAML.Proofs.ScannerCorrectness.field_update_preserves_ScanInv&#45;&gt;L4YAML.YamlToken -->
<g id="edge5" class="edge">
<title>L4YAML.Proofs.ScannerCorrectness.field_update_preserves_ScanInv&#45;&gt;L4YAML.YamlToken</title>
<path fill="none" stroke="#4a90d9" stroke-width="2" d="M641.05,-197.36C683.66,-205.16 732.37,-214.74 776.32,-225 793.21,-228.94 811.71,-233.99 827.47,-238.51"/>
<polygon fill="#4a90d9" stroke="#4a90d9" stroke-width="2" points="827.11,-240.95 834.51,-240.54 828.47,-236.24 827.11,-240.95"/>
<text text-anchor="middle" x="763.82" y="-227.6" font-family="Times-Roman" font-size="8.00" fill="#4a90d9">about</text>
</g>
<!-- L4YAML.Proofs.ScannerCorrectness.field_update_preserves_ScanInv&#45;&gt;L4YAML.Scanner.ScannerState.offset -->
<g id="edge4" class="edge">
<title>L4YAML.Proofs.ScannerCorrectness.field_update_preserves_ScanInv&#45;&gt;L4YAML.Scanner.ScannerState.offset</title>
<path fill="none" stroke="#4a90d9" stroke-width="2" d="M733.49,-187.64C747.98,-188.41 762.37,-189.2 776.32,-190 786.55,-190.59 797.44,-191.27 807.97,-191.96"/>
<polygon fill="#4a90d9" stroke="#4a90d9" stroke-width="2" points="808.04,-194.42 815.18,-192.44 808.36,-189.53 808.04,-194.42"/>
<text text-anchor="middle" x="763.82" y="-192.6" font-family="Times-Roman" font-size="8.00" fill="#4a90d9">about</text>
</g>
<!-- L4YAML.Proofs.ScannerCorrectness.field_update_preserves_ScanInv&#45;&gt;L4YAML.Scanner.ScannerState.tokens -->
<g id="edge1" class="edge">
<title>L4YAML.Proofs.ScannerCorrectness.field_update_preserves_ScanInv&#45;&gt;L4YAML.Scanner.ScannerState.tokens</title>
<path fill="none" stroke="#4a90d9" stroke-width="2" d="M678.13,-161.95C723.45,-157.13 770.54,-152.13 806.21,-148.34"/>
<polygon fill="#4a90d9" stroke="#4a90d9" stroke-width="2" points="806.49,-150.77 813.19,-147.59 805.97,-145.9 806.49,-150.77"/>
<text text-anchor="middle" x="763.82" y="-156.6" font-family="Times-Roman" font-size="8.00" fill="#4a90d9">about</text>
</g>
<!-- L4YAML.Proofs.ScannerCorrectness.ScanInv&#39;._proof_2 -->
<g id="node8" class="node">
<title>L4YAML.Proofs.ScannerCorrectness.ScanInv&#39;._proof_2</title>
<ellipse fill="#d4edda" stroke="#28a745" cx="148.94" cy="-248" rx="132.87" ry="21.43"/>
<text text-anchor="middle" x="148.94" y="-251" font-family="Helvetica" font-size="10.00">ScannerCorrectness.ScanInv&#39;._proof_2</text>
<text text-anchor="middle" x="148.94" y="-240" font-family="Helvetica" font-size="10.00">(ScannerCorrectness)</text>
</g>
<!-- L4YAML.Proofs.ScannerCorrectness.ScanInv&#39;._proof_2&#45;&gt;L4YAML.Positioned -->
<g id="edge8" class="edge">
<title>L4YAML.Proofs.ScannerCorrectness.ScanInv&#39;._proof_2&#45;&gt;L4YAML.Positioned</title>
<path fill="none" stroke="#999999" stroke-dasharray="1,5" d="M264.13,-258.69C276.2,-259.81 288.29,-260.93 299.87,-262 500.43,-280.48 741.57,-296.23 830.59,-301.82"/>
<polygon fill="#999999" stroke="#999999" points="830.62,-303.58 835.72,-302.15 830.84,-300.09 830.62,-303.58"/>
</g>
<!-- L4YAML.Proofs.ScannerCorrectness.ScanInv&#39;._proof_2&#45;&gt;L4YAML.YamlToken -->
<g id="edge9" class="edge">
<title>L4YAML.Proofs.ScannerCorrectness.ScanInv&#39;._proof_2&#45;&gt;L4YAML.YamlToken</title>
<path fill="none" stroke="#999999" stroke-dasharray="1,5" d="M282.07,-248.37C449.96,-248.84 729.87,-249.62 829.36,-249.9"/>
<polygon fill="#999999" stroke="#999999" points="829.52,-251.65 834.53,-249.91 829.53,-248.15 829.52,-251.65"/>
</g>
<!-- L4YAML.Proofs.ScannerCorrectness.ScanInv&#39;._proof_2&#45;&gt;L4YAML.Proofs.ScannerCorrectness.field_update_preserves_ScanInv -->
<g id="edge7" class="edge">
<title>L4YAML.Proofs.ScannerCorrectness.ScanInv&#39;._proof_2&#45;&gt;L4YAML.Proofs.ScannerCorrectness.field_update_preserves_ScanInv</title>
<path fill="none" stroke="#28a745" d="M236.01,-231.94C287.87,-222.26 354.55,-209.82 410.8,-199.33"/>
<polygon fill="#28a745" stroke="#28a745" points="411.52,-201.68 417.95,-197.99 410.62,-196.87 411.52,-201.68"/>
</g>
</g>
</svg>
