<?xml version="1.0" encoding="UTF-8" standalone="no"?>
<!DOCTYPE svg PUBLIC "-//W3C//DTD SVG 1.1//EN"
 "http://www.w3.org/Graphics/SVG/1.1/DTD/svg11.dtd">
<!-- Generated by graphviz version 2.44.0 (0)
 -->
<!-- Title: ScannerCorrectness.ScanHelpers.scanFlowEntry_adds_one_token Pages: 1 -->
<svg width="1269pt" height="970pt"
 viewBox="0.00 0.00 1268.67 969.87" xmlns="http://www.w3.org/2000/svg" xmlns:xlink="http://www.w3.org/1999/xlink">
<g id="graph0" class="graph" transform="scale(1 1) rotate(0) translate(4 965.87)">
<title>ScannerCorrectness.ScanHelpers.scanFlowEntry_adds_one_token</title>
<polygon fill="white" stroke="transparent" points="-4,4 -4,-965.87 1264.67,-965.87 1264.67,4 -4,4"/>
<text text-anchor="middle" x="630.34" y="-947.47" font-family="Helvetica Bold" font-size="13.00">ScannerCorrectness.ScanHelpers.scanFlowEntry_adds_one_token</text>
<text text-anchor="middle" x="630.34" y="-933.47" font-family="Helvetica Bold" font-size="13.00">(heuristic: used by 5 proofs)</text>
<text text-anchor="middle" x="630.34" y="-919.47" font-family="Helvetica Bold" font-size="13.00">(L4YAML.Proofs.ScannerCorrectness)</text>
<g id="clust1" class="cluster">
<title>cluster_functions</title>
<polygon fill="none" stroke="#4a90d9" stroke-dasharray="5,2" points="751.81,-559.87 751.81,-903.87 1252.67,-903.87 1252.67,-559.87 751.81,-559.87"/>
<text text-anchor="middle" x="1002.24" y="-889.47" font-family="Helvetica Bold" font-size="13.00" fill="#4a90d9">Functions</text>
</g>
<g id="clust2" class="cluster">
<title>cluster_key</title>
<polygon fill="none" stroke="#d4a017" stroke-dasharray="5,2" points="556.95,-469.87 556.95,-551.87 1084.67,-551.87 1084.67,-469.87 556.95,-469.87"/>
<text text-anchor="middle" x="820.81" y="-537.47" font-family="Helvetica Bold" font-size="13.00" fill="#d4a017">Key Theorem</text>
</g>
<g id="clust3" class="cluster">
<title>cluster_proofs</title>
<polygon fill="none" stroke="#28a745" stroke-dasharray="5,2" points="8,-248.87 8,-448.87 535.95,-448.87 535.95,-248.87 8,-248.87"/>
<text text-anchor="middle" x="271.97" y="-434.47" font-family="Helvetica Bold" font-size="13.00" fill="#28a745">Proof Dependencies</text>
</g>
<g id="clust4" class="cluster">
<title>cluster_stdlib</title>
<polygon fill="none" stroke="#e67e22" stroke-dasharray="5,2" points="8.49,-523.87 8.49,-705.87 535.45,-705.87 535.45,-523.87 8.49,-523.87"/>
<text text-anchor="middle" x="271.97" y="-691.47" font-family="Helvetica Bold" font-size="13.00" fill="#e67e22">Stdlib Lemmas</text>
</g>
<!-- L4YAML.Scanner.ScannerState.emit -->
<g id="node1" class="node">
<title>L4YAML.Scanner.ScannerState.emit</title>
<polygon fill="#dce9f7" stroke="#4a90d9" points="869.81,-603.87 771.81,-603.87 771.81,-567.87 869.81,-567.87 869.81,-603.87"/>
<text text-anchor="middle" x="820.81" y="-588.87" font-family="Helvetica" font-size="10.00">ScannerState.emit</text>
<text text-anchor="middle" x="820.81" y="-577.87" font-family="Helvetica" font-size="10.00">(def)</text>
</g>
<!-- L4YAML.Positioned -->
<g id="node2" class="node">
<title>L4YAML.Positioned</title>
<polygon fill="#dce9f7" stroke="#4a90d9" points="1222.17,-711.87 1160.17,-711.87 1160.17,-675.87 1222.17,-675.87 1222.17,-711.87"/>
<text text-anchor="middle" x="1191.17" y="-696.87" font-family="Helvetica" font-size="10.00">Positioned</text>
<text text-anchor="middle" x="1191.17" y="-685.87" font-family="Helvetica" font-size="10.00">(inductive)</text>
</g>
<!-- L4YAML.Scanner.ScannerState.advance -->
<g id="node3" class="node">
<title>L4YAML.Scanner.ScannerState.advance</title>
<polygon fill="#dce9f7" stroke="#4a90d9" points="878.31,-657.87 763.31,-657.87 763.31,-621.87 878.31,-621.87 878.31,-657.87"/>
<text text-anchor="middle" x="820.81" y="-642.87" font-family="Helvetica" font-size="10.00">ScannerState.advance</text>
<text text-anchor="middle" x="820.81" y="-631.87" font-family="Helvetica" font-size="10.00">(def)</text>
</g>
<!-- L4YAML.Scanner.scanFlowEntry.match_1 -->
<g id="node4" class="node">
<title>L4YAML.Scanner.scanFlowEntry.match_1</title>
<polygon fill="#dce9f7" stroke="#4a90d9" points="881.81,-711.87 759.81,-711.87 759.81,-675.87 881.81,-675.87 881.81,-711.87"/>
<text text-anchor="middle" x="820.81" y="-696.87" font-family="Helvetica" font-size="10.00">scanFlowEntry.match_1</text>
<text text-anchor="middle" x="820.81" y="-685.87" font-family="Helvetica" font-size="10.00">(def)</text>
</g>
<!-- L4YAML.Scanner.ScannerState -->
<g id="node5" class="node">
<title>L4YAML.Scanner.ScannerState</title>
<polygon fill="#dce9f7" stroke="#4a90d9" points="1229.17,-603.87 1153.17,-603.87 1153.17,-567.87 1229.17,-567.87 1229.17,-603.87"/>
<text text-anchor="middle" x="1191.17" y="-588.87" font-family="Helvetica" font-size="10.00">ScannerState</text>
<text text-anchor="middle" x="1191.17" y="-577.87" font-family="Helvetica" font-size="10.00">(inductive)</text>
</g>
<!-- L4YAML.YamlToken -->
<g id="node6" class="node">
<title>L4YAML.YamlToken</title>
<polygon fill="#dce9f7" stroke="#4a90d9" points="1223.17,-765.87 1159.17,-765.87 1159.17,-729.87 1223.17,-729.87 1223.17,-765.87"/>
<text text-anchor="middle" x="1191.17" y="-750.87" font-family="Helvetica" font-size="10.00">YamlToken</text>
<text text-anchor="middle" x="1191.17" y="-739.87" font-family="Helvetica" font-size="10.00">(inductive)</text>
</g>
<!-- L4YAML.Scanner.scanFlowEntry -->
<g id="node7" class="node">
<title>L4YAML.Scanner.scanFlowEntry</title>
<polygon fill="#dce9f7" stroke="#4a90d9" points="1232.67,-873.87 1149.67,-873.87 1149.67,-837.87 1232.67,-837.87 1232.67,-873.87"/>
<text text-anchor="middle" x="1191.17" y="-858.87" font-family="Helvetica" font-size="10.00">scanFlowEntry</text>
<text text-anchor="middle" x="1191.17" y="-847.87" font-family="Helvetica" font-size="10.00">(def)</text>
</g>
<!-- L4YAML.ScanError -->
<g id="node8" class="node">
<title>L4YAML.ScanError</title>
<polygon fill="#dce9f7" stroke="#4a90d9" points="1222.17,-819.87 1160.17,-819.87 1160.17,-783.87 1222.17,-783.87 1222.17,-819.87"/>
<text text-anchor="middle" x="1191.17" y="-804.87" font-family="Helvetica" font-size="10.00">ScanError</text>
<text text-anchor="middle" x="1191.17" y="-793.87" font-family="Helvetica" font-size="10.00">(inductive)</text>
</g>
<!-- L4YAML.Scanner.ScannerState.tokens -->
<g id="node9" class="node">
<title>L4YAML.Scanner.ScannerState.tokens</title>
<polygon fill="#dce9f7" stroke="#4a90d9" points="1244.67,-657.87 1137.67,-657.87 1137.67,-621.87 1244.67,-621.87 1244.67,-657.87"/>
<text text-anchor="middle" x="1191.17" y="-642.87" font-family="Helvetica" font-size="10.00">ScannerState.tokens</text>
<text text-anchor="middle" x="1191.17" y="-631.87" font-family="Helvetica" font-size="10.00">(def)</text>
</g>
<!-- L4YAML.Proofs.ScannerCorrectness.ScanHelpers.scanFlowEntry_adds_one_token -->
<g id="node10" class="node">
<title>L4YAML.Proofs.ScannerCorrectness.ScanHelpers.scanFlowEntry_adds_one_token</title>
<polygon fill="#fff3cd" stroke="#d4a017" points="1072.54,-492.41 1072.54,-507.32 925.08,-517.87 716.54,-517.87 569.08,-507.32 569.08,-492.41 716.54,-481.87 925.08,-481.87 1072.54,-492.41"/>
<polygon fill="none" stroke="#d4a017" points="1076.54,-488.69 1076.54,-511.05 925.22,-521.87 716.4,-521.87 565.08,-511.05 565.08,-488.69 716.4,-477.87 925.22,-477.87 1076.54,-488.69"/>
<text text-anchor="middle" x="820.81" y="-496.77" font-family="Helvetica" font-size="12.00">ScannerCorrectness.ScanHelpers.scanFlowEntry_adds_one_token</text>
</g>
<!-- L4YAML.Proofs.ScannerCorrectness.ScanHelpers.scanFlowEntry_adds_one_token&#45;&gt;L4YAML.Positioned -->
<g id="edge2" class="edge">
<title>L4YAML.Proofs.ScannerCorrectness.ScanHelpers.scanFlowEntry_adds_one_token&#45;&gt;L4YAML.Positioned</title>
<path fill="none" stroke="#4a90d9" stroke-width="2" d="M1037.95,-513.84C1068.68,-524.46 1097.36,-540.37 1119.67,-563.87 1151.67,-597.57 1110.13,-629.44 1137.67,-666.87 1141.86,-672.56 1147.61,-677.15 1153.77,-680.81"/>
<polygon fill="#4a90d9" stroke="#4a90d9" stroke-width="2" points="1152.7,-683.02 1160.02,-684.17 1155.02,-678.7 1152.7,-683.02"/>
<text text-anchor="middle" x="1107.17" y="-566.47" font-family="Times-Roman" font-size="8.00" fill="#4a90d9">about</text>
</g>
<!-- L4YAML.Proofs.ScannerCorrectness.ScanHelpers.scanFlowEntry_adds_one_token&#45;&gt;L4YAML.Scanner.ScannerState -->
<g id="edge4" class="edge">
<title>L4YAML.Proofs.ScannerCorrectness.ScanHelpers.scanFlowEntry_adds_one_token&#45;&gt;L4YAML.Scanner.ScannerState</title>
<path fill="none" stroke="#4a90d9" stroke-width="2" d="M873.43,-477.84C935.92,-454.82 1042.38,-427.59 1119.67,-470.87 1153.96,-490.06 1173.58,-533.49 1183.04,-561.15"/>
<polygon fill="#4a90d9" stroke="#4a90d9" stroke-width="2" points="1180.72,-561.93 1185.23,-567.81 1185.37,-560.4 1180.72,-561.93"/>
<text text-anchor="middle" x="1107.17" y="-473.47" font-family="Times-Roman" font-size="8.00" fill="#4a90d9">about</text>
</g>
<!-- L4YAML.Proofs.ScannerCorrectness.ScanHelpers.scanFlowEntry_adds_one_token&#45;&gt;L4YAML.YamlToken -->
<g id="edge3" class="edge">
<title>L4YAML.Proofs.ScannerCorrectness.ScanHelpers.scanFlowEntry_adds_one_token&#45;&gt;L4YAML.YamlToken</title>
<path fill="none" stroke="#4a90d9" stroke-width="2" d="M1002.79,-516.43C1032.13,-525.07 1060.71,-537.66 1084.67,-555.87 1088.02,-558.41 1118.31,-618.9 1119.67,-622.87 1134.09,-664.74 1111.27,-685.31 1137.67,-720.87 1141.62,-726.18 1146.92,-730.54 1152.64,-734.08"/>
<polygon fill="#4a90d9" stroke="#4a90d9" stroke-width="2" points="1151.66,-736.33 1158.97,-737.6 1154.04,-732.05 1151.66,-736.33"/>
<text text-anchor="middle" x="1107.17" y="-625.47" font-family="Times-Roman" font-size="8.00" fill="#4a90d9">about</text>
</g>
<!-- L4YAML.Proofs.ScannerCorrectness.ScanHelpers.scanFlowEntry_adds_one_token&#45;&gt;L4YAML.Scanner.scanFlowEntry -->
<g id="edge6" class="edge">
<title>L4YAML.Proofs.ScannerCorrectness.ScanHelpers.scanFlowEntry_adds_one_token&#45;&gt;L4YAML.Scanner.scanFlowEntry</title>
<path fill="none" stroke="#4a90d9" stroke-width="2" d="M1025.04,-514.77C1047.69,-524.15 1068.41,-537.39 1084.67,-555.87 1102.5,-576.12 1089.87,-650.32 1094.67,-676.87 1107.18,-745.95 1093.22,-774.53 1137.67,-828.87 1139.43,-831.02 1141.41,-833.01 1143.53,-834.86"/>
<polygon fill="#4a90d9" stroke="#4a90d9" stroke-width="2" points="1142.42,-837.1 1149.46,-839.44 1145.41,-833.22 1142.42,-837.1"/>
<text text-anchor="middle" x="1107.17" y="-803.47" font-family="Times-Roman" font-size="8.00" fill="#4a90d9">about</text>
</g>
<!-- L4YAML.Proofs.ScannerCorrectness.ScanHelpers.scanFlowEntry_adds_one_token&#45;&gt;L4YAML.ScanError -->
<g id="edge5" class="edge">
<title>L4YAML.Proofs.ScannerCorrectness.ScanHelpers.scanFlowEntry_adds_one_token&#45;&gt;L4YAML.ScanError</title>
<path fill="none" stroke="#4a90d9" stroke-width="2" d="M1022.91,-515C1046.19,-524.29 1067.65,-537.45 1084.67,-555.87 1096.23,-568.38 1088.53,-615.98 1094.67,-631.87 1101.7,-650.04 1112.32,-649.83 1119.67,-667.87 1137.87,-712.53 1109.21,-735.94 1137.67,-774.87 1141.85,-780.58 1147.58,-785.17 1153.74,-788.83"/>
<polygon fill="#4a90d9" stroke="#4a90d9" stroke-width="2" points="1152.67,-791.04 1159.99,-792.19 1154.99,-786.72 1152.67,-791.04"/>
<text text-anchor="middle" x="1107.17" y="-670.47" font-family="Times-Roman" font-size="8.00" fill="#4a90d9">about</text>
</g>
<!-- L4YAML.Proofs.ScannerCorrectness.ScanHelpers.scanFlowEntry_adds_one_token&#45;&gt;L4YAML.Scanner.ScannerState.tokens -->
<g id="edge1" class="edge">
<title>L4YAML.Proofs.ScannerCorrectness.ScanHelpers.scanFlowEntry_adds_one_token&#45;&gt;L4YAML.Scanner.ScannerState.tokens</title>
<path fill="none" stroke="#4a90d9" stroke-width="2" d="M890.51,-477.84C957.17,-461.16 1057.18,-449.23 1119.67,-502.87 1157.26,-535.13 1108.53,-572.81 1137.67,-612.87 1138.65,-614.21 1139.72,-615.5 1140.86,-616.72"/>
<polygon fill="#4a90d9" stroke="#4a90d9" stroke-width="2" points="1139.46,-618.77 1146.27,-621.72 1142.79,-615.17 1139.46,-618.77"/>
<text text-anchor="middle" x="1107.17" y="-505.47" font-family="Times-Roman" font-size="8.00" fill="#4a90d9">about</text>
</g>
<!-- L4YAML.Proofs.ScannerProofs.emit_tokens_size -->
<g id="node11" class="node">
<title>L4YAML.Proofs.ScannerProofs.emit_tokens_size</title>
<ellipse fill="#d4edda" stroke="#28a745" cx="271.97" cy="-337.87" rx="112.36" ry="21.43"/>
<text text-anchor="middle" x="271.97" y="-340.87" font-family="Helvetica" font-size="10.00">ScannerProofs.emit_tokens_size</text>
<text text-anchor="middle" x="271.97" y="-329.87" font-family="Helvetica" font-size="10.00">(ScannerProofs)</text>
</g>
<!-- L4YAML.Proofs.ScannerProofs.emit_tokens_size&#45;&gt;L4YAML.Scanner.ScannerState.emit -->
<g id="edge14" class="edge">
<title>L4YAML.Proofs.ScannerProofs.emit_tokens_size&#45;&gt;L4YAML.Scanner.ScannerState.emit</title>
<path fill="none" stroke="#999999" stroke-dasharray="1,5" d="M353.1,-323.17C411.85,-317.39 489.21,-321.02 535.95,-367.87 565.64,-397.63 527.26,-526.11 556.95,-555.87 611.3,-610.35 707.09,-606.37 766.81,-597.11"/>
<polygon fill="#999999" stroke="#999999" points="767.1,-598.84 771.76,-596.32 766.54,-595.38 767.1,-598.84"/>
</g>
<!-- L4YAML.Proofs.ScannerProofs.emit_tokens_size&#45;&gt;L4YAML.Positioned -->
<g id="edge15" class="edge">
<title>L4YAML.Proofs.ScannerProofs.emit_tokens_size&#45;&gt;L4YAML.Positioned</title>
<path fill="none" stroke="#999999" stroke-dasharray="1,5" d="M367.56,-326.63C420.03,-320.96 486.51,-314.69 545.95,-311.87 665.55,-306.18 987.77,-251.53 1084.67,-321.87 1123.12,-349.77 1110.07,-376.34 1119.67,-422.87 1130.67,-476.11 1107.66,-621.53 1137.67,-666.87 1141.99,-673.39 1148.41,-678.43 1155.29,-682.28"/>
<polygon fill="#999999" stroke="#999999" points="1154.85,-684.03 1160.1,-684.77 1156.46,-680.92 1154.85,-684.03"/>
</g>
<!-- L4YAML.Proofs.ScannerProofs.emit_tokens_size&#45;&gt;L4YAML.Scanner.ScannerState -->
<g id="edge17" class="edge">
<title>L4YAML.Proofs.ScannerProofs.emit_tokens_size&#45;&gt;L4YAML.Scanner.ScannerState</title>
<path fill="none" stroke="#999999" stroke-dasharray="1,5" d="M355.2,-352.15C413.27,-357.21 488.83,-352.85 535.95,-307.87 556.13,-288.59 524.7,-263.96 545.95,-245.87 740.08,-80.54 921.91,-84.9 1119.67,-245.87 1169.11,-286.11 1184.98,-491.91 1189,-562.26"/>
<polygon fill="#999999" stroke="#999999" points="1187.27,-562.58 1189.3,-567.47 1190.76,-562.38 1187.27,-562.58"/>
</g>
<!-- L4YAML.Proofs.ScannerProofs.emit_tokens_size&#45;&gt;L4YAML.YamlToken -->
<g id="edge16" class="edge">
<title>L4YAML.Proofs.ScannerProofs.emit_tokens_size&#45;&gt;L4YAML.YamlToken</title>
<path fill="none" stroke="#999999" stroke-dasharray="1,5" d="M376.61,-329.97C535.92,-321.95 847.41,-322.78 1084.67,-425.87 1103.46,-434.03 1110.49,-437.55 1119.67,-455.87 1146.14,-508.62 1105.24,-671.55 1137.67,-720.87 1141.79,-727.13 1147.84,-732.02 1154.38,-735.8"/>
<polygon fill="#999999" stroke="#999999" points="1153.74,-737.44 1158.97,-738.25 1155.38,-734.35 1153.74,-737.44"/>
</g>
<!-- L4YAML.Proofs.ScannerProofs.emit_tokens_size&#45;&gt;L4YAML.Scanner.ScannerState.tokens -->
<g id="edge13" class="edge">
<title>L4YAML.Proofs.ScannerProofs.emit_tokens_size&#45;&gt;L4YAML.Scanner.ScannerState.tokens</title>
<path fill="none" stroke="#999999" stroke-dasharray="1,5" d="M366.68,-349.31C421.13,-350.95 488.2,-343.77 535.95,-307.87 545.18,-300.92 536.33,-290.28 545.95,-283.87 652.03,-213.14 1027.09,-196.21 1119.67,-283.87 1146.26,-309.04 1117.76,-582.15 1137.67,-612.87 1138.86,-614.7 1140.22,-616.42 1141.71,-618.03"/>
<polygon fill="#999999" stroke="#999999" points="1140.59,-619.38 1145.41,-621.58 1143.02,-616.86 1140.59,-619.38"/>
</g>
<!-- L4YAML.Proofs.ScannerProofs.emit_tokens_size&#45;&gt;L4YAML.Proofs.ScannerCorrectness.ScanHelpers.scanFlowEntry_adds_one_token -->
<g id="edge8" class="edge">
<title>L4YAML.Proofs.ScannerProofs.emit_tokens_size&#45;&gt;L4YAML.Proofs.ScannerCorrectness.ScanHelpers.scanFlowEntry_adds_one_token</title>
<path fill="none" stroke="#28a745" d="M381.96,-342.43C429.88,-346.43 486.41,-353.92 535.95,-367.87 625.36,-393.04 721.91,-443.44 776.21,-474.16"/>
<polygon fill="#28a745" stroke="#28a745" points="775,-476.29 782.3,-477.62 777.43,-472.03 775,-476.29"/>
</g>
<!-- L4YAML.Proofs.ScannerCorrectness.ScanHelpers.scanFlowEntry_adds_one_token._proof_1_3 -->
<g id="node12" class="node">
<title>L4YAML.Proofs.ScannerCorrectness.ScanHelpers.scanFlowEntry_adds_one_token._proof_1_3</title>
<ellipse fill="#d4edda" stroke="#28a745" cx="271.97" cy="-277.87" rx="255.95" ry="21.43"/>
<text text-anchor="middle" x="271.97" y="-280.87" font-family="Helvetica" font-size="10.00">ScannerCorrectness.ScanHelpers.scanFlowEntry_adds_one_token._proof_1_3</text>
<text text-anchor="middle" x="271.97" y="-269.87" font-family="Helvetica" font-size="10.00">(ScannerCorrectness)</text>
</g>
<!-- L4YAML.Proofs.ScannerCorrectness.ScanHelpers.scanFlowEntry_adds_one_token._proof_1_3&#45;&gt;L4YAML.Positioned -->
<g id="edge21" class="edge">
<title>L4YAML.Proofs.ScannerCorrectness.ScanHelpers.scanFlowEntry_adds_one_token._proof_1_3&#45;&gt;L4YAML.Positioned</title>
<path fill="none" stroke="#999999" stroke-dasharray="1,5" d="M312.24,-256.83C364.03,-230.4 458.83,-186.47 545.95,-169.87 663.54,-147.45 991.21,-95.05 1084.67,-169.87 1140.15,-214.27 1109.99,-255.47 1119.67,-325.87 1124.84,-363.45 1117.06,-635.01 1137.67,-666.87 1141.93,-673.44 1148.31,-678.49 1155.18,-682.35"/>
<polygon fill="#999999" stroke="#999999" points="1154.75,-684.1 1160,-684.83 1156.36,-680.98 1154.75,-684.1"/>
</g>
<!-- L4YAML.Proofs.ScannerCorrectness.ScanHelpers.scanFlowEntry_adds_one_token._proof_1_3&#45;&gt;L4YAML.Scanner.ScannerState -->
<g id="edge23" class="edge">
<title>L4YAML.Proofs.ScannerCorrectness.ScanHelpers.scanFlowEntry_adds_one_token._proof_1_3&#45;&gt;L4YAML.Scanner.ScannerState</title>
<path fill="none" stroke="#999999" stroke-dasharray="1,5" d="M294.59,-256.42C337.82,-215.23 439.91,-126.27 545.95,-93.87 789.81,-19.35 927,73.16 1119.67,-93.87 1191.27,-155.94 1191.91,-473.62 1190.64,-562.65"/>
<polygon fill="#999999" stroke="#999999" points="1188.89,-562.67 1190.57,-567.69 1192.39,-562.72 1188.89,-562.67"/>
</g>
<!-- L4YAML.Proofs.ScannerCorrectness.ScanHelpers.scanFlowEntry_adds_one_token._proof_1_3&#45;&gt;L4YAML.YamlToken -->
<g id="edge22" class="edge">
<title>L4YAML.Proofs.ScannerCorrectness.ScanHelpers.scanFlowEntry_adds_one_token._proof_1_3&#45;&gt;L4YAML.YamlToken</title>
<path fill="none" stroke="#999999" stroke-dasharray="1,5" d="M345.69,-257.51C499.63,-219.14 862.51,-154.22 1084.67,-322.87 1123.18,-352.1 1110.34,-378.43 1119.67,-425.87 1126.01,-458.09 1119.72,-693.37 1137.67,-720.87 1141.77,-727.14 1147.81,-732.04 1154.35,-735.82"/>
<polygon fill="#999999" stroke="#999999" points="1153.7,-737.46 1158.94,-738.27 1155.35,-734.38 1153.7,-737.46"/>
</g>
<!-- L4YAML.Proofs.ScannerCorrectness.ScanHelpers.scanFlowEntry_adds_one_token._proof_1_3&#45;&gt;L4YAML.Scanner.ScannerState.tokens -->
<g id="edge20" class="edge">
<title>L4YAML.Proofs.ScannerCorrectness.ScanHelpers.scanFlowEntry_adds_one_token._proof_1_3&#45;&gt;L4YAML.Scanner.ScannerState.tokens</title>
<path fill="none" stroke="#999999" stroke-dasharray="1,5" d="M301.29,-256.54C348.82,-222.23 448.98,-156.17 545.95,-131.87 669.62,-100.87 1027.85,-43.42 1119.67,-131.87 1158.19,-168.97 1108.97,-567.74 1137.67,-612.87 1138.85,-614.71 1140.19,-616.44 1141.67,-618.06"/>
<polygon fill="#999999" stroke="#999999" points="1140.54,-619.4 1145.35,-621.62 1142.98,-616.89 1140.54,-619.4"/>
</g>
<!-- L4YAML.Proofs.ScannerCorrectness.ScanHelpers.scanFlowEntry_adds_one_token._proof_1_3&#45;&gt;L4YAML.Proofs.ScannerCorrectness.ScanHelpers.scanFlowEntry_adds_one_token -->
<g id="edge9" class="edge">
<title>L4YAML.Proofs.ScannerCorrectness.ScanHelpers.scanFlowEntry_adds_one_token._proof_1_3&#45;&gt;L4YAML.Proofs.ScannerCorrectness.ScanHelpers.scanFlowEntry_adds_one_token</title>
<path fill="none" stroke="#28a745" d="M474.9,-290.8C495.85,-295.12 516.55,-300.7 535.95,-307.87 639.38,-346.11 741.85,-429.63 790.52,-472.81"/>
<polygon fill="#28a745" stroke="#28a745" points="789.05,-474.78 795.91,-477.62 792.32,-471.13 789.05,-474.78"/>
</g>
<!-- L4YAML.Proofs.ScannerCorrectness.advance_preserves_tokens -->
<g id="node13" class="node">
<title>L4YAML.Proofs.ScannerCorrectness.advance_preserves_tokens</title>
<ellipse fill="#d4edda" stroke="#28a745" cx="271.97" cy="-397.87" rx="160.53" ry="21.43"/>
<text text-anchor="middle" x="271.97" y="-400.87" font-family="Helvetica" font-size="10.00">ScannerCorrectness.advance_preserves_tokens</text>
<text text-anchor="middle" x="271.97" y="-389.87" font-family="Helvetica" font-size="10.00">(ScannerCorrectness)</text>
</g>
<!-- L4YAML.Proofs.ScannerCorrectness.advance_preserves_tokens&#45;&gt;L4YAML.Positioned -->
<g id="edge26" class="edge">
<title>L4YAML.Proofs.ScannerCorrectness.advance_preserves_tokens&#45;&gt;L4YAML.Positioned</title>
<path fill="none" stroke="#999999" stroke-dasharray="1,5" d="M362.39,-415.44C421.52,-431.98 495.36,-463.04 535.95,-519.87 562.05,-556.41 523.72,-690.65 556.95,-720.87 601.15,-761.07 1034.92,-725.59 1094.67,-725.87 1105.78,-725.92 1108.81,-728.22 1119.67,-725.87 1131.74,-723.26 1144.23,-718.4 1155.28,-713.24"/>
<polygon fill="#999999" stroke="#999999" points="1156.17,-714.76 1159.92,-711.02 1154.66,-711.6 1156.17,-714.76"/>
</g>
<!-- L4YAML.Proofs.ScannerCorrectness.advance_preserves_tokens&#45;&gt;L4YAML.Scanner.ScannerState.advance -->
<g id="edge25" class="edge">
<title>L4YAML.Proofs.ScannerCorrectness.advance_preserves_tokens&#45;&gt;L4YAML.Scanner.ScannerState.advance</title>
<path fill="none" stroke="#999999" stroke-dasharray="1,5" d="M356.57,-415.91C415.32,-432.92 491.13,-464.36 535.95,-519.87 562.57,-552.84 525.24,-584.75 556.95,-612.87 611.25,-661.03 698.84,-659.97 757.83,-652.14"/>
<polygon fill="#999999" stroke="#999999" points="758.38,-653.83 763.09,-651.41 757.9,-650.36 758.38,-653.83"/>
</g>
<!-- L4YAML.Proofs.ScannerCorrectness.advance_preserves_tokens&#45;&gt;L4YAML.Scanner.ScannerState -->
<g id="edge28" class="edge">
<title>L4YAML.Proofs.ScannerCorrectness.advance_preserves_tokens&#45;&gt;L4YAML.Scanner.ScannerState</title>
<path fill="none" stroke="#999999" stroke-dasharray="1,5" d="M417.96,-389.01C644.81,-376.46 1063.68,-359.06 1119.67,-397.87 1174.21,-435.66 1186.62,-521.2 1189.4,-562.58"/>
<polygon fill="#999999" stroke="#999999" points="1187.66,-562.75 1189.71,-567.64 1191.15,-562.54 1187.66,-562.75"/>
</g>
<!-- L4YAML.Proofs.ScannerCorrectness.advance_preserves_tokens&#45;&gt;L4YAML.YamlToken -->
<g id="edge27" class="edge">
<title>L4YAML.Proofs.ScannerCorrectness.advance_preserves_tokens&#45;&gt;L4YAML.YamlToken</title>
<path fill="none" stroke="#999999" stroke-dasharray="1,5" d="M390.29,-412.26C441.43,-418.23 502.1,-424.91 556.95,-429.87 615.48,-435.16 1041.9,-425.56 1084.67,-465.87 1097.39,-477.85 1087.42,-527.97 1094.67,-543.87 1101.6,-559.04 1112.8,-556.66 1119.67,-571.87 1147.15,-632.65 1099.57,-666.12 1137.67,-720.87 1141.91,-726.95 1147.94,-731.75 1154.41,-735.51"/>
<polygon fill="#999999" stroke="#999999" points="1153.72,-737.12 1158.95,-737.95 1155.37,-734.04 1153.72,-737.12"/>
</g>
<!-- L4YAML.Proofs.ScannerCorrectness.advance_preserves_tokens&#45;&gt;L4YAML.Scanner.ScannerState.tokens -->
<g id="edge24" class="edge">
<title>L4YAML.Proofs.ScannerCorrectness.advance_preserves_tokens&#45;&gt;L4YAML.Scanner.ScannerState.tokens</title>
<path fill="none" stroke="#999999" stroke-dasharray="1,5" d="M432.32,-396.52C633.23,-396.34 966.65,-401.55 1084.67,-435.87 1101.88,-440.87 1109.81,-440.91 1119.67,-455.87 1158.33,-514.5 1097.73,-555.1 1137.67,-612.87 1139.06,-614.87 1140.64,-616.73 1142.36,-618.46"/>
<polygon fill="#999999" stroke="#999999" points="1141.21,-619.79 1146.1,-621.84 1143.56,-617.19 1141.21,-619.79"/>
</g>
<!-- L4YAML.Proofs.ScannerCorrectness.advance_preserves_tokens&#45;&gt;L4YAML.Proofs.ScannerCorrectness.ScanHelpers.scanFlowEntry_adds_one_token -->
<g id="edge7" class="edge">
<title>L4YAML.Proofs.ScannerCorrectness.advance_preserves_tokens&#45;&gt;L4YAML.Proofs.ScannerCorrectness.ScanHelpers.scanFlowEntry_adds_one_token</title>
<path fill="none" stroke="#28a745" d="M345.84,-416.76C402.97,-431.09 484.64,-450.54 556.95,-463.87 590.04,-469.96 625.65,-475.51 659.65,-480.33"/>
<polygon fill="#28a745" stroke="#28a745" points="659.6,-482.8 666.88,-481.35 660.29,-477.95 659.6,-482.8"/>
</g>
<!-- implies_congr -->
<g id="node14" class="node">
<title>implies_congr</title>
<ellipse fill="#fdebd0" stroke="#e67e22" cx="271.97" cy="-549.87" rx="45.15" ry="18"/>
<text text-anchor="middle" x="271.97" y="-547.37" font-family="Helvetica" font-size="10.00">implies_congr</text>
</g>
<!-- implies_congr&#45;&gt;L4YAML.Proofs.ScannerCorrectness.ScanHelpers.scanFlowEntry_adds_one_token -->
<g id="edge10" class="edge">
<title>implies_congr&#45;&gt;L4YAML.Proofs.ScannerCorrectness.ScanHelpers.scanFlowEntry_adds_one_token</title>
<path fill="none" stroke="#e67e22" stroke-width="2" d="M316.34,-545.9C384.07,-539.71 518.95,-527.38 632.06,-517.03"/>
<polygon fill="#e67e22" stroke="#e67e22" stroke-width="2" points="632.39,-519.46 639.14,-516.39 631.94,-514.58 632.39,-519.46"/>
</g>
<!-- _private.L4YAML.Proofs.ScannerCorrectness.0.L4YAML.Scanner.scanFlowEntry.match_1.eq_2 -->
<g id="node15" class="node">
<title>_private.L4YAML.Proofs.ScannerCorrectness.0.L4YAML.Scanner.scanFlowEntry.match_1.eq_2</title>
<ellipse fill="#fdebd0" stroke="#e67e22" cx="271.97" cy="-657.87" rx="255.46" ry="18"/>
<text text-anchor="middle" x="271.97" y="-655.37" font-family="Helvetica" font-size="10.00">_private.L4YAML.Proofs.ScannerCorrectness.0.L4YAML.Scanner.scanFlowEntry.match_1.eq_2</text>
</g>
<!-- _private.L4YAML.Proofs.ScannerCorrectness.0.L4YAML.Scanner.scanFlowEntry.match_1.eq_2&#45;&gt;L4YAML.Scanner.scanFlowEntry.match_1 -->
<g id="edge19" class="edge">
<title>_private.L4YAML.Proofs.ScannerCorrectness.0.L4YAML.Scanner.scanFlowEntry.match_1.eq_2&#45;&gt;L4YAML.Scanner.scanFlowEntry.match_1</title>
<path fill="none" stroke="#999999" stroke-dasharray="1,5" d="M459.25,-670.13C561.57,-676.87 682.06,-684.8 754.61,-689.57"/>
<polygon fill="#999999" stroke="#999999" points="754.65,-691.33 759.75,-689.91 754.88,-687.84 754.65,-691.33"/>
</g>
<!-- _private.L4YAML.Proofs.ScannerCorrectness.0.L4YAML.Scanner.scanFlowEntry.match_1.eq_2&#45;&gt;L4YAML.YamlToken -->
<g id="edge18" class="edge">
<title>_private.L4YAML.Proofs.ScannerCorrectness.0.L4YAML.Scanner.scanFlowEntry.match_1.eq_2&#45;&gt;L4YAML.YamlToken</title>
<path fill="none" stroke="#999999" stroke-dasharray="1,5" d="M311.23,-675.74C363.09,-698.92 459.18,-738.24 545.95,-753.87 786,-797.1 850.76,-761.64 1094.67,-763.87 1105.78,-763.97 1108.63,-765.1 1119.67,-763.87 1130.92,-762.61 1142.99,-760.25 1153.92,-757.72"/>
<polygon fill="#999999" stroke="#999999" points="1154.38,-759.41 1158.84,-756.55 1153.58,-756 1154.38,-759.41"/>
</g>
<!-- _private.L4YAML.Proofs.ScannerCorrectness.0.L4YAML.Scanner.scanFlowEntry.match_1.eq_2&#45;&gt;L4YAML.Proofs.ScannerCorrectness.ScanHelpers.scanFlowEntry_adds_one_token -->
<g id="edge11" class="edge">
<title>_private.L4YAML.Proofs.ScannerCorrectness.0.L4YAML.Scanner.scanFlowEntry.match_1.eq_2&#45;&gt;L4YAML.Proofs.ScannerCorrectness.ScanHelpers.scanFlowEntry_adds_one_token</title>
<path fill="none" stroke="#e67e22" stroke-width="2" d="M505.65,-650.57C516.45,-645.2 526.64,-638.7 535.95,-630.87 549.18,-619.72 544.33,-567.71 556.95,-555.87 574.75,-539.15 596.26,-526.93 619.21,-518.07"/>
<polygon fill="#e67e22" stroke="#e67e22" stroke-width="2" points="620.34,-520.26 626.05,-515.54 618.64,-515.67 620.34,-520.26"/>
</g>
<!-- Decidable.byContradiction -->
<g id="node16" class="node">
<title>Decidable.byContradiction</title>
<ellipse fill="#fdebd0" stroke="#e67e22" cx="271.97" cy="-603.87" rx="77.23" ry="18"/>
<text text-anchor="middle" x="271.97" y="-601.37" font-family="Helvetica" font-size="10.00">Decidable.byContradiction</text>
</g>
<!-- Decidable.byContradiction&#45;&gt;L4YAML.Proofs.ScannerCorrectness.ScanHelpers.scanFlowEntry_adds_one_token -->
<g id="edge12" class="edge">
<title>Decidable.byContradiction&#45;&gt;L4YAML.Proofs.ScannerCorrectness.ScanHelpers.scanFlowEntry_adds_one_token</title>
<path fill="none" stroke="#e67e22" stroke-width="2" d="M345.66,-609.18C400.51,-610.24 476.26,-605.25 535.95,-576.87 547.87,-571.2 545.35,-562.17 556.95,-555.87 586.99,-539.54 621.38,-527.98 655.16,-519.78"/>
<polygon fill="#e67e22" stroke="#e67e22" stroke-width="2" points="656.11,-522.07 662.36,-518.08 654.98,-517.3 656.11,-522.07"/>
</g>
</g>
</svg>
