<?xml version="1.0" encoding="UTF-8" standalone="no"?>
<!DOCTYPE svg PUBLIC "-//W3C//DTD SVG 1.1//EN"
 "http://www.w3.org/Graphics/SVG/1.1/DTD/svg11.dtd">
<!-- Generated by graphviz version 2.44.0 (0)
 -->
<!-- Title: ScannerPlainScalarValid.flowNesting_push_non_flow Pages: 1 -->
<svg width="1019pt" height="666pt"
 viewBox="0.00 0.00 1018.95 666.00" xmlns="http://www.w3.org/2000/svg" xmlns:xlink="http://www.w3.org/1999/xlink">
<g id="graph0" class="graph" transform="scale(1 1) rotate(0) translate(4 662)">
<title>ScannerPlainScalarValid.flowNesting_push_non_flow</title>
<polygon fill="white" stroke="transparent" points="-4,4 -4,-662 1014.95,-662 1014.95,4 -4,4"/>
<text text-anchor="middle" x="505.47" y="-643.6" font-family="Helvetica Bold" font-size="13.00">ScannerPlainScalarValid.flowNesting_push_non_flow</text>
<text text-anchor="middle" x="505.47" y="-629.6" font-family="Helvetica Bold" font-size="13.00">(heuristic: used by 10 proofs)</text>
<text text-anchor="middle" x="505.47" y="-615.6" font-family="Helvetica Bold" font-size="13.00">(L4YAML.Proofs.ScannerPlainScalarValid)</text>
<g id="clust1" class="cluster">
<title>cluster_functions</title>
<polygon fill="none" stroke="#4a90d9" stroke-dasharray="5,2" points="431.72,-148 431.72,-600 1002.95,-600 1002.95,-148 431.72,-148"/>
<text text-anchor="middle" x="717.33" y="-585.6" font-family="Helvetica Bold" font-size="13.00" fill="#4a90d9">Functions</text>
</g>
<g id="clust2" class="cluster">
<title>cluster_key</title>
<polygon fill="none" stroke="#d4a017" stroke-dasharray="5,2" points="333.5,-58 333.5,-140 763.95,-140 763.95,-58 333.5,-58"/>
<text text-anchor="middle" x="548.72" y="-125.6" font-family="Helvetica Bold" font-size="13.00" fill="#d4a017">Key Theorem</text>
</g>
<g id="clust3" class="cluster">
<title>cluster_proofs</title>
<polygon fill="none" stroke="#28a745" stroke-dasharray="5,2" points="8,-417 8,-497 312.5,-497 312.5,-417 8,-417"/>
<text text-anchor="middle" x="160.25" y="-482.6" font-family="Helvetica Bold" font-size="13.00" fill="#28a745">Proof Dependencies</text>
</g>
<g id="clust4" class="cluster">
<title>cluster_stdlib</title>
<polygon fill="none" stroke="#e67e22" stroke-dasharray="5,2" points="96.92,-8 96.92,-190 223.58,-190 223.58,-8 96.92,-8"/>
<text text-anchor="middle" x="160.25" y="-175.6" font-family="Helvetica Bold" font-size="13.00" fill="#e67e22">Stdlib Lemmas</text>
</g>
<!-- L4YAML.Positioned -->
<g id="node1" class="node">
<title>L4YAML.Positioned</title>
<g id="a_node1"><a xlink:href="../../../api/L4YAML/Token.html#L4YAML.Positioned" xlink:title="Positioned\n(inductive)" target="_blank">
<polygon fill="#dce9f7" stroke="#4a90d9" points="936.95,-408 874.95,-408 874.95,-372 936.95,-372 936.95,-408"/>
<text text-anchor="middle" x="905.95" y="-393" font-family="Helvetica" font-size="10.00">Positioned</text>
<text text-anchor="middle" x="905.95" y="-382" font-family="Helvetica" font-size="10.00">(inductive)</text>
</a>
</g>
</g>
<!-- L4YAML.Proofs.ScannerPlainScalarValid.flowNesting.match_1 -->
<g id="node2" class="node">
<title>L4YAML.Proofs.ScannerPlainScalarValid.flowNesting.match_1</title>
<g id="a_node2"><a xlink:href="../../../api/L4YAML/Proofs/ScannerPlainScalarValid.html#L4YAML.Proofs.ScannerPlainScalarValid.flowNesting.match_1" xlink:title="ScannerPlainScalarValid.flowNesting.match_1\n(def)" target="_blank">
<polygon fill="#dce9f7" stroke="#4a90d9" points="657.72,-570 439.72,-570 439.72,-534 657.72,-534 657.72,-570"/>
<text text-anchor="middle" x="548.72" y="-555" font-family="Helvetica" font-size="10.00">ScannerPlainScalarValid.flowNesting.match_1</text>
<text text-anchor="middle" x="548.72" y="-544" font-family="Helvetica" font-size="10.00">(def)</text>
</a>
</g>
</g>
<!-- L4YAML.Proofs.ScannerPlainScalarValid.flowNesting -->
<g id="node3" class="node">
<title>L4YAML.Proofs.ScannerPlainScalarValid.flowNesting</title>
<g id="a_node3"><a xlink:href="../../../api/L4YAML/Proofs/ScannerPlainScalarValid.html#L4YAML.Proofs.ScannerPlainScalarValid.flowNesting" xlink:title="ScannerPlainScalarValid.flowNesting\n(def)" target="_blank">
<polygon fill="#dce9f7" stroke="#4a90d9" points="994.95,-570 816.95,-570 816.95,-534 994.95,-534 994.95,-570"/>
<text text-anchor="middle" x="905.95" y="-555" font-family="Helvetica" font-size="10.00">ScannerPlainScalarValid.flowNesting</text>
<text text-anchor="middle" x="905.95" y="-544" font-family="Helvetica" font-size="10.00">(def)</text>
</a>
</g>
</g>
<!-- L4YAML.Positioned.val -->
<g id="node4" class="node">
<title>L4YAML.Positioned.val</title>
<g id="a_node4"><a xlink:href="../../../api/L4YAML/Token.html#L4YAML.Positioned.val" xlink:title="Positioned.val\n(def)" target="_blank">
<polygon fill="#dce9f7" stroke="#4a90d9" points="944.45,-462 867.45,-462 867.45,-426 944.45,-426 944.45,-462"/>
<text text-anchor="middle" x="905.95" y="-447" font-family="Helvetica" font-size="10.00">Positioned.val</text>
<text text-anchor="middle" x="905.95" y="-436" font-family="Helvetica" font-size="10.00">(def)</text>
</a>
</g>
</g>
<!-- L4YAML.YamlToken -->
<g id="node5" class="node">
<title>L4YAML.YamlToken</title>
<g id="a_node5"><a xlink:href="../../../api/L4YAML/Token.html#L4YAML.YamlToken" xlink:title="YamlToken\n(inductive)" target="_blank">
<polygon fill="#dce9f7" stroke="#4a90d9" points="937.95,-516 873.95,-516 873.95,-480 937.95,-480 937.95,-516"/>
<text text-anchor="middle" x="905.95" y="-501" font-family="Helvetica" font-size="10.00">YamlToken</text>
<text text-anchor="middle" x="905.95" y="-490" font-family="Helvetica" font-size="10.00">(inductive)</text>
</a>
</g>
</g>
<!-- L4YAML.YamlToken.flowMappingEnd -->
<g id="node6" class="node">
<title>L4YAML.YamlToken.flowMappingEnd</title>
<g id="a_node6"><a xlink:href="../../../api/L4YAML/Token.html#L4YAML.YamlToken.flowMappingEnd" xlink:title="YamlToken.flowMappingEnd\n(ctor)" target="_blank">
<polygon fill="#dce9f7" stroke="#4a90d9" points="975.45,-354 836.45,-354 836.45,-318 975.45,-318 975.45,-354"/>
<text text-anchor="middle" x="905.95" y="-339" font-family="Helvetica" font-size="10.00">YamlToken.flowMappingEnd</text>
<text text-anchor="middle" x="905.95" y="-328" font-family="Helvetica" font-size="10.00">(ctor)</text>
</a>
</g>
</g>
<!-- L4YAML.YamlToken.flowMappingStart -->
<g id="node7" class="node">
<title>L4YAML.YamlToken.flowMappingStart</title>
<g id="a_node7"><a xlink:href="../../../api/L4YAML/Token.html#L4YAML.YamlToken.flowMappingStart" xlink:title="YamlToken.flowMappingStart\n(ctor)" target="_blank">
<polygon fill="#dce9f7" stroke="#4a90d9" points="977.45,-300 834.45,-300 834.45,-264 977.45,-264 977.45,-300"/>
<text text-anchor="middle" x="905.95" y="-285" font-family="Helvetica" font-size="10.00">YamlToken.flowMappingStart</text>
<text text-anchor="middle" x="905.95" y="-274" font-family="Helvetica" font-size="10.00">(ctor)</text>
</a>
</g>
</g>
<!-- L4YAML.YamlToken.flowSequenceStart -->
<g id="node8" class="node">
<title>L4YAML.YamlToken.flowSequenceStart</title>
<g id="a_node8"><a xlink:href="../../../api/L4YAML/Token.html#L4YAML.YamlToken.flowSequenceStart" xlink:title="YamlToken.flowSequenceStart\n(ctor)" target="_blank">
<polygon fill="#dce9f7" stroke="#4a90d9" points="980.95,-246 830.95,-246 830.95,-210 980.95,-210 980.95,-246"/>
<text text-anchor="middle" x="905.95" y="-231" font-family="Helvetica" font-size="10.00">YamlToken.flowSequenceStart</text>
<text text-anchor="middle" x="905.95" y="-220" font-family="Helvetica" font-size="10.00">(ctor)</text>
</a>
</g>
</g>
<!-- L4YAML.YamlToken.flowSequenceEnd -->
<g id="node9" class="node">
<title>L4YAML.YamlToken.flowSequenceEnd</title>
<g id="a_node9"><a xlink:href="../../../api/L4YAML/Token.html#L4YAML.YamlToken.flowSequenceEnd" xlink:title="YamlToken.flowSequenceEnd\n(ctor)" target="_blank">
<polygon fill="#dce9f7" stroke="#4a90d9" points="978.95,-192 832.95,-192 832.95,-156 978.95,-156 978.95,-192"/>
<text text-anchor="middle" x="905.95" y="-177" font-family="Helvetica" font-size="10.00">YamlToken.flowSequenceEnd</text>
<text text-anchor="middle" x="905.95" y="-166" font-family="Helvetica" font-size="10.00">(ctor)</text>
</a>
</g>
</g>
<!-- L4YAML.Proofs.ScannerPlainScalarValid.flowNesting_push_non_flow -->
<g id="node10" class="node">
<title>L4YAML.Proofs.ScannerPlainScalarValid.flowNesting_push_non_flow</title>
<g id="a_node10"><a xlink:href="../../../api/L4YAML/Proofs/ScannerPlainScalarValid.html#L4YAML.Proofs.ScannerPlainScalarValid.flowNesting_push_non_flow" xlink:title="ScannerPlainScalarValid.flowNesting_push_non_flow" target="_blank">
<polygon fill="#fff3cd" stroke="#d4a017" points="752.17,-80.54 752.17,-95.46 632.99,-106 464.45,-106 345.28,-95.46 345.28,-80.54 464.45,-70 632.99,-70 752.17,-80.54"/>
<polygon fill="none" stroke="#d4a017" points="756.17,-76.88 756.17,-99.12 633.17,-110 464.28,-110 341.28,-99.12 341.28,-76.88 464.28,-66 633.17,-66 756.17,-76.88"/>
<text text-anchor="middle" x="548.72" y="-84.9" font-family="Helvetica" font-size="12.00">ScannerPlainScalarValid.flowNesting_push_non_flow</text>
</a>
</g>
</g>
<!-- L4YAML.Proofs.ScannerPlainScalarValid.flowNesting_push_non_flow&#45;&gt;L4YAML.Positioned -->
<g id="edge2" class="edge">
<title>L4YAML.Proofs.ScannerPlainScalarValid.flowNesting_push_non_flow&#45;&gt;L4YAML.Positioned</title>
<path fill="none" stroke="#4a90d9" stroke-width="2" d="M705.02,-103.73C727.64,-112.52 748.47,-125.37 763.95,-144 783.88,-167.99 761.27,-255.5 773.95,-284 780.46,-298.65 790.61,-296.3 798.95,-310 811.88,-331.25 799.1,-345.67 816.95,-363 830.49,-376.15 850.27,-382.91 867.65,-386.38"/>
<polygon fill="#4a90d9" stroke="#4a90d9" stroke-width="2" points="867.61,-388.86 874.93,-387.68 868.46,-384.04 867.61,-388.86"/>
<text text-anchor="middle" x="786.45" y="-312.6" font-family="Times-Roman" font-size="8.00" fill="#4a90d9">about</text>
</g>
<!-- L4YAML.Proofs.ScannerPlainScalarValid.flowNesting_push_non_flow&#45;&gt;L4YAML.Proofs.ScannerPlainScalarValid.flowNesting -->
<g id="edge8" class="edge">
<title>L4YAML.Proofs.ScannerPlainScalarValid.flowNesting_push_non_flow&#45;&gt;L4YAML.Proofs.ScannerPlainScalarValid.flowNesting</title>
<path fill="none" stroke="#4a90d9" stroke-width="2" d="M706.42,-103.57C728.65,-112.4 749,-125.31 763.95,-144 784.16,-169.26 765.72,-403.71 773.95,-435 780.07,-458.26 788.65,-461.26 798.95,-483 807.64,-501.35 801.84,-511.43 816.95,-525 818.9,-526.76 820.97,-528.4 823.13,-529.94"/>
<polygon fill="#4a90d9" stroke="#4a90d9" stroke-width="2" points="821.84,-532.02 829.05,-533.76 824.5,-527.9 821.84,-532.02"/>
<text text-anchor="middle" x="786.45" y="-485.6" font-family="Times-Roman" font-size="8.00" fill="#4a90d9">about</text>
</g>
<!-- L4YAML.Proofs.ScannerPlainScalarValid.flowNesting_push_non_flow&#45;&gt;L4YAML.Positioned.val -->
<g id="edge4" class="edge">
<title>L4YAML.Proofs.ScannerPlainScalarValid.flowNesting_push_non_flow&#45;&gt;L4YAML.Positioned.val</title>
<path fill="none" stroke="#4a90d9" stroke-width="2" d="M705.52,-103.65C728,-112.46 748.66,-125.34 763.95,-144 776.29,-159.07 768.93,-300.18 773.95,-319 780.34,-343.01 789.02,-346.23 798.95,-369 808.05,-389.88 800.35,-401.39 816.95,-417 828.76,-428.11 845.03,-434.65 860.37,-438.51"/>
<polygon fill="#4a90d9" stroke="#4a90d9" stroke-width="2" points="859.96,-440.93 867.33,-440.09 861.05,-436.15 859.96,-440.93"/>
<text text-anchor="middle" x="786.45" y="-371.6" font-family="Times-Roman" font-size="8.00" fill="#4a90d9">about</text>
</g>
<!-- L4YAML.Proofs.ScannerPlainScalarValid.flowNesting_push_non_flow&#45;&gt;L4YAML.YamlToken -->
<g id="edge5" class="edge">
<title>L4YAML.Proofs.ScannerPlainScalarValid.flowNesting_push_non_flow&#45;&gt;L4YAML.YamlToken</title>
<path fill="none" stroke="#4a90d9" stroke-width="2" d="M706.02,-103.57C728.37,-112.4 748.86,-125.3 763.95,-144 780.29,-164.25 767.22,-352.86 773.95,-378 780.16,-401.24 788.91,-404.14 798.95,-426 807.93,-445.58 801.1,-456.41 816.95,-471 830.53,-483.5 849.77,-490.22 866.79,-493.82"/>
<polygon fill="#4a90d9" stroke="#4a90d9" stroke-width="2" points="866.6,-496.28 873.93,-495.19 867.52,-491.47 866.6,-496.28"/>
<text text-anchor="middle" x="786.45" y="-428.6" font-family="Times-Roman" font-size="8.00" fill="#4a90d9">about</text>
</g>
<!-- L4YAML.Proofs.ScannerPlainScalarValid.flowNesting_push_non_flow&#45;&gt;L4YAML.YamlToken.flowMappingEnd -->
<g id="edge6" class="edge">
<title>L4YAML.Proofs.ScannerPlainScalarValid.flowNesting_push_non_flow&#45;&gt;L4YAML.YamlToken.flowMappingEnd</title>
<path fill="none" stroke="#4a90d9" stroke-width="2" d="M703.8,-103.77C726.77,-112.53 748.04,-125.36 763.95,-144 778.73,-161.33 764.98,-225.06 773.95,-246 780.65,-261.64 789.35,-260.95 798.95,-275 808.59,-289.12 803.77,-298.11 816.95,-309 820.93,-312.29 825.3,-315.18 829.91,-317.72"/>
<polygon fill="#4a90d9" stroke="#4a90d9" stroke-width="2" points="828.98,-319.99 836.33,-320.97 831.19,-315.62 828.98,-319.99"/>
<text text-anchor="middle" x="786.45" y="-277.6" font-family="Times-Roman" font-size="8.00" fill="#4a90d9">about</text>
</g>
<!-- L4YAML.Proofs.ScannerPlainScalarValid.flowNesting_push_non_flow&#45;&gt;L4YAML.YamlToken.flowMappingStart -->
<g id="edge1" class="edge">
<title>L4YAML.Proofs.ScannerPlainScalarValid.flowNesting_push_non_flow&#45;&gt;L4YAML.YamlToken.flowMappingStart</title>
<path fill="none" stroke="#4a90d9" stroke-width="2" d="M699.91,-104.15C723.97,-112.79 746.61,-125.48 763.95,-144 780.03,-161.18 764.57,-174.41 773.95,-196 780.41,-210.88 803.74,-245.58 816.95,-255 820.36,-257.44 824.01,-259.66 827.79,-261.68"/>
<polygon fill="#4a90d9" stroke="#4a90d9" stroke-width="2" points="826.92,-263.99 834.28,-264.9 829.1,-259.6 826.92,-263.99"/>
<text text-anchor="middle" x="786.45" y="-236.6" font-family="Times-Roman" font-size="8.00" fill="#4a90d9">about</text>
</g>
<!-- L4YAML.Proofs.ScannerPlainScalarValid.flowNesting_push_non_flow&#45;&gt;L4YAML.YamlToken.flowSequenceStart -->
<g id="edge7" class="edge">
<title>L4YAML.Proofs.ScannerPlainScalarValid.flowNesting_push_non_flow&#45;&gt;L4YAML.YamlToken.flowSequenceStart</title>
<path fill="none" stroke="#4a90d9" stroke-width="2" d="M669.84,-106.78C701.89,-115.09 735.49,-126.99 763.95,-144 793.64,-161.75 787.63,-182.63 816.95,-201 820.25,-203.07 823.72,-204.99 827.29,-206.77"/>
<polygon fill="#4a90d9" stroke="#4a90d9" stroke-width="2" points="826.46,-209.08 833.84,-209.82 828.53,-204.64 826.46,-209.08"/>
<text text-anchor="middle" x="786.45" y="-185.6" font-family="Times-Roman" font-size="8.00" fill="#4a90d9">about</text>
</g>
<!-- L4YAML.Proofs.ScannerPlainScalarValid.flowNesting_push_non_flow&#45;&gt;L4YAML.YamlToken.flowSequenceEnd -->
<g id="edge3" class="edge">
<title>L4YAML.Proofs.ScannerPlainScalarValid.flowNesting_push_non_flow&#45;&gt;L4YAML.YamlToken.flowSequenceEnd</title>
<path fill="none" stroke="#4a90d9" stroke-width="2" d="M674,-106.44C714.21,-113.61 758.79,-122.81 798.95,-134 817.77,-139.24 837.94,-146.44 855.58,-153.28"/>
<polygon fill="#4a90d9" stroke="#4a90d9" stroke-width="2" points="855.05,-155.71 862.46,-155.98 856.84,-151.14 855.05,-155.71"/>
<text text-anchor="middle" x="786.45" y="-136.6" font-family="Times-Roman" font-size="8.00" fill="#4a90d9">about</text>
</g>
<!-- L4YAML.Proofs.ScannerPlainScalarValid.flowNesting_push -->
<g id="node11" class="node">
<title>L4YAML.Proofs.ScannerPlainScalarValid.flowNesting_push</title>
<g id="a_node11"><a xlink:href="../../../api/L4YAML/Proofs/ScannerPlainScalarValid.html#L4YAML.Proofs.ScannerPlainScalarValid.flowNesting_push" xlink:title="ScannerPlainScalarValid.flowNesting_push\n(ScannerPlainScalarValid)" target="_blank">
<ellipse fill="#d4edda" stroke="#28a745" cx="160.25" cy="-446" rx="144.5" ry="21.43"/>
<text text-anchor="middle" x="160.25" y="-449" font-family="Helvetica" font-size="10.00">ScannerPlainScalarValid.flowNesting_push</text>
<text text-anchor="middle" x="160.25" y="-438" font-family="Helvetica" font-size="10.00">(ScannerPlainScalarValid)</text>
</a>
</g>
</g>
<!-- L4YAML.Proofs.ScannerPlainScalarValid.flowNesting_push&#45;&gt;L4YAML.Positioned -->
<g id="edge13" class="edge">
<title>L4YAML.Proofs.ScannerPlainScalarValid.flowNesting_push&#45;&gt;L4YAML.Positioned</title>
<path fill="none" stroke="#999999" stroke-dasharray="1,5" d="M265.87,-431.5C387.63,-415.41 594.89,-390.47 773.95,-381 806.39,-379.28 843.3,-382.27 869.66,-385.25"/>
<polygon fill="#999999" stroke="#999999" points="869.62,-387.01 874.78,-385.84 870.02,-383.53 869.62,-387.01"/>
</g>
<!-- L4YAML.Proofs.ScannerPlainScalarValid.flowNesting_push&#45;&gt;L4YAML.Proofs.ScannerPlainScalarValid.flowNesting.match_1 -->
<g id="edge16" class="edge">
<title>L4YAML.Proofs.ScannerPlainScalarValid.flowNesting_push&#45;&gt;L4YAML.Proofs.ScannerPlainScalarValid.flowNesting.match_1</title>
<path fill="none" stroke="#999999" stroke-dasharray="1,5" d="M197.86,-466.52C229.79,-483.5 277.87,-506.89 322.5,-520 358.17,-530.48 398.05,-537.57 434.23,-542.36"/>
<polygon fill="#999999" stroke="#999999" points="434.36,-544.14 439.54,-543.05 434.81,-540.67 434.36,-544.14"/>
</g>
<!-- L4YAML.Proofs.ScannerPlainScalarValid.flowNesting_push&#45;&gt;L4YAML.Proofs.ScannerPlainScalarValid.flowNesting -->
<g id="edge17" class="edge">
<title>L4YAML.Proofs.ScannerPlainScalarValid.flowNesting_push&#45;&gt;L4YAML.Proofs.ScannerPlainScalarValid.flowNesting</title>
<path fill="none" stroke="#999999" stroke-dasharray="1,5" d="M229.52,-464.67C260.97,-472.64 298.91,-481.39 333.5,-487 523.07,-517.76 573.74,-498.46 763.95,-525 779.94,-527.23 796.87,-530.06 813.24,-533.05"/>
<polygon fill="#999999" stroke="#999999" points="813.07,-534.8 818.3,-533.98 813.7,-531.35 813.07,-534.8"/>
</g>
<!-- L4YAML.Proofs.ScannerPlainScalarValid.flowNesting_push&#45;&gt;L4YAML.Positioned.val -->
<g id="edge14" class="edge">
<title>L4YAML.Proofs.ScannerPlainScalarValid.flowNesting_push&#45;&gt;L4YAML.Positioned.val</title>
<path fill="none" stroke="#999999" stroke-dasharray="1,5" d="M303.62,-443.62C427.79,-441.66 612.78,-439.05 773.95,-438 785.06,-437.93 787.84,-437.69 798.95,-438 819.66,-438.59 842.63,-439.81 861.87,-441.01"/>
<polygon fill="#999999" stroke="#999999" points="862.09,-442.78 867.19,-441.34 862.31,-439.28 862.09,-442.78"/>
</g>
<!-- L4YAML.Proofs.ScannerPlainScalarValid.flowNesting_push&#45;&gt;L4YAML.YamlToken -->
<g id="edge15" class="edge">
<title>L4YAML.Proofs.ScannerPlainScalarValid.flowNesting_push&#45;&gt;L4YAML.YamlToken</title>
<path fill="none" stroke="#999999" stroke-dasharray="1,5" d="M290.79,-455.06C465.13,-467.25 765.34,-488.24 868.72,-495.47"/>
<polygon fill="#999999" stroke="#999999" points="868.68,-497.22 873.79,-495.82 868.92,-493.73 868.68,-497.22"/>
</g>
<!-- L4YAML.Proofs.ScannerPlainScalarValid.flowNesting_push&#45;&gt;L4YAML.Proofs.ScannerPlainScalarValid.flowNesting_push_non_flow -->
<g id="edge9" class="edge">
<title>L4YAML.Proofs.ScannerPlainScalarValid.flowNesting_push&#45;&gt;L4YAML.Proofs.ScannerPlainScalarValid.flowNesting_push_non_flow</title>
<path fill="none" stroke="#28a745" d="M175.47,-424.68C203.63,-382 267.63,-282.52 312.5,-194 323.4,-172.5 315.29,-159.79 333.5,-144 352.68,-127.37 376.22,-115.59 400.59,-107.27"/>
<polygon fill="#28a745" stroke="#28a745" points="401.6,-109.52 407.49,-105.01 400.07,-104.86 401.6,-109.52"/>
</g>
<!-- not_true_eq_false -->
<g id="node12" class="node">
<title>not_true_eq_false</title>
<g id="a_node12"><a xlink:href="../../../api/Init/SimpLemmas.html#not_true_eq_false" xlink:title="not_true_eq_false" target="_blank">
<ellipse fill="#fdebd0" stroke="#e67e22" cx="160.25" cy="-34" rx="55.17" ry="18"/>
<text text-anchor="middle" x="160.25" y="-31.5" font-family="Helvetica" font-size="10.00">not_true_eq_false</text>
</a>
</g>
</g>
<!-- not_true_eq_false&#45;&gt;L4YAML.Proofs.ScannerPlainScalarValid.flowNesting_push_non_flow -->
<g id="edge10" class="edge">
<title>not_true_eq_false&#45;&gt;L4YAML.Proofs.ScannerPlainScalarValid.flowNesting_push_non_flow</title>
<path fill="none" stroke="#e67e22" stroke-width="2" d="M211.38,-41C261.93,-48.07 342.2,-59.28 411.65,-68.99"/>
<polygon fill="#e67e22" stroke="#e67e22" stroke-width="2" points="411.49,-71.44 418.76,-69.98 412.17,-66.59 411.49,-71.44"/>
</g>
<!-- eq_self -->
<g id="node13" class="node">
<title>eq_self</title>
<g id="a_node13"><a xlink:href="../../../api/Init/SimpLemmas.html#eq_self" xlink:title="eq_self" target="_blank">
<ellipse fill="#fdebd0" stroke="#e67e22" cx="160.25" cy="-142" rx="28.01" ry="18"/>
<text text-anchor="middle" x="160.25" y="-139.5" font-family="Helvetica" font-size="10.00">eq_self</text>
</a>
</g>
</g>
<!-- eq_self&#45;&gt;L4YAML.Proofs.ScannerPlainScalarValid.flowNesting_push_non_flow -->
<g id="edge11" class="edge">
<title>eq_self&#45;&gt;L4YAML.Proofs.ScannerPlainScalarValid.flowNesting_push_non_flow</title>
<path fill="none" stroke="#e67e22" stroke-width="2" d="M188.12,-138.25C233.9,-131.85 329.96,-118.43 411.29,-107.06"/>
<polygon fill="#e67e22" stroke="#e67e22" stroke-width="2" points="412.02,-109.44 418.61,-106.04 411.34,-104.58 412.02,-109.44"/>
</g>
<!-- of_eq_true -->
<g id="node14" class="node">
<title>of_eq_true</title>
<g id="a_node14"><a xlink:href="../../../api/Init/SimpLemmas.html#of_eq_true" xlink:title="of_eq_true" target="_blank">
<ellipse fill="#fdebd0" stroke="#e67e22" cx="160.25" cy="-88" rx="36.49" ry="18"/>
<text text-anchor="middle" x="160.25" y="-85.5" font-family="Helvetica" font-size="10.00">of_eq_true</text>
</a>
</g>
</g>
<!-- of_eq_true&#45;&gt;L4YAML.Proofs.ScannerPlainScalarValid.flowNesting_push_non_flow -->
<g id="edge12" class="edge">
<title>of_eq_true&#45;&gt;L4YAML.Proofs.ScannerPlainScalarValid.flowNesting_push_non_flow</title>
<path fill="none" stroke="#e67e22" stroke-width="2" d="M196.92,-88C229.55,-88 280.75,-88 334.04,-88"/>
<polygon fill="#e67e22" stroke="#e67e22" stroke-width="2" points="334.23,-90.45 341.23,-88 334.23,-85.55 334.23,-90.45"/>
</g>
</g>
</svg>
