<?xml version="1.0" encoding="UTF-8" standalone="no"?>
<!DOCTYPE svg PUBLIC "-//W3C//DTD SVG 1.1//EN"
 "http://www.w3.org/Graphics/SVG/1.1/DTD/svg11.dtd">
<!-- Generated by graphviz version 2.44.0 (0)
 -->
<!-- Title: ScannerCorrectness.scanKey_adds_one_token Pages: 1 -->
<svg width="1139pt" height="1296pt"
 viewBox="0.00 0.00 1139.23 1296.13" xmlns="http://www.w3.org/2000/svg" xmlns:xlink="http://www.w3.org/1999/xlink">
<g id="graph0" class="graph" transform="scale(1 1) rotate(0) translate(4 1292.13)">
<title>ScannerCorrectness.scanKey_adds_one_token</title>
<polygon fill="white" stroke="transparent" points="-4,4 -4,-1292.13 1135.23,-1292.13 1135.23,4 -4,4"/>
<text text-anchor="middle" x="565.61" y="-1273.73" font-family="Helvetica Bold" font-size="13.00">ScannerCorrectness.scanKey_adds_one_token</text>
<text text-anchor="middle" x="565.61" y="-1259.73" font-family="Helvetica Bold" font-size="13.00">(heuristic: used by 6 proofs)</text>
<text text-anchor="middle" x="565.61" y="-1245.73" font-family="Helvetica Bold" font-size="13.00">(L4YAML.Proofs.ScannerCorrectness)</text>
<g id="clust1" class="cluster">
<title>cluster_functions</title>
<polygon fill="none" stroke="#4a90d9" stroke-dasharray="5,2" points="687.16,-886.13 687.16,-1230.13 1123.23,-1230.13 1123.23,-886.13 687.16,-886.13"/>
<text text-anchor="middle" x="905.19" y="-1215.73" font-family="Helvetica Bold" font-size="13.00" fill="#4a90d9">Functions</text>
</g>
<g id="clust2" class="cluster">
<title>cluster_key</title>
<polygon fill="none" stroke="#d4a017" stroke-dasharray="5,2" points="570.09,-796.13 570.09,-878.13 955.23,-878.13 955.23,-796.13 570.09,-796.13"/>
<text text-anchor="middle" x="762.66" y="-863.73" font-family="Helvetica Bold" font-size="13.00" fill="#d4a017">Key Theorem</text>
</g>
<g id="clust3" class="cluster">
<title>cluster_proofs</title>
<polygon fill="none" stroke="#28a745" stroke-dasharray="5,2" points="73.97,-330.13 73.97,-650.13 483.12,-650.13 483.12,-330.13 73.97,-330.13"/>
<text text-anchor="middle" x="278.54" y="-635.73" font-family="Helvetica Bold" font-size="13.00" fill="#28a745">Proof Dependencies</text>
</g>
<g id="clust4" class="cluster">
<title>cluster_stdlib</title>
<polygon fill="none" stroke="#e67e22" stroke-dasharray="5,2" points="8,-842.13 8,-1078.13 549.09,-1078.13 549.09,-842.13 8,-842.13"/>
<text text-anchor="middle" x="278.54" y="-1063.73" font-family="Helvetica Bold" font-size="13.00" fill="#e67e22">Stdlib Lemmas</text>
</g>
<!-- L4YAML.Scanner.ScannerState.emit -->
<g id="node1" class="node">
<title>L4YAML.Scanner.ScannerState.emit</title>
<g id="a_node1"><a xlink:href="../../../api/L4YAML/Scanner.html#L4YAML.Scanner.ScannerState.emit" xlink:title="ScannerState.emit\n(def)" target="_blank">
<polygon fill="#dce9f7" stroke="#4a90d9" points="811.66,-1038.13 713.66,-1038.13 713.66,-1002.13 811.66,-1002.13 811.66,-1038.13"/>
<text text-anchor="middle" x="762.66" y="-1023.13" font-family="Helvetica" font-size="10.00">ScannerState.emit</text>
<text text-anchor="middle" x="762.66" y="-1012.13" font-family="Helvetica" font-size="10.00">(def)</text>
</a>
</g>
</g>
<!-- L4YAML.Positioned -->
<g id="node2" class="node">
<title>L4YAML.Positioned</title>
<g id="a_node2"><a xlink:href="../../../api/L4YAML/Token.html#L4YAML.Positioned" xlink:title="Positioned\n(inductive)" target="_blank">
<polygon fill="#dce9f7" stroke="#4a90d9" points="1092.73,-930.13 1030.73,-930.13 1030.73,-894.13 1092.73,-894.13 1092.73,-930.13"/>
<text text-anchor="middle" x="1061.73" y="-915.13" font-family="Helvetica" font-size="10.00">Positioned</text>
<text text-anchor="middle" x="1061.73" y="-904.13" font-family="Helvetica" font-size="10.00">(inductive)</text>
</a>
</g>
</g>
<!-- L4YAML.Scanner.ScannerState.advance -->
<g id="node3" class="node">
<title>L4YAML.Scanner.ScannerState.advance</title>
<g id="a_node3"><a xlink:href="../../../api/L4YAML/Scanner.html#L4YAML.Scanner.ScannerState.advance" xlink:title="ScannerState.advance\n(def)" target="_blank">
<polygon fill="#dce9f7" stroke="#4a90d9" points="820.16,-930.13 705.16,-930.13 705.16,-894.13 820.16,-894.13 820.16,-930.13"/>
<text text-anchor="middle" x="762.66" y="-915.13" font-family="Helvetica" font-size="10.00">ScannerState.advance</text>
<text text-anchor="middle" x="762.66" y="-904.13" font-family="Helvetica" font-size="10.00">(def)</text>
</a>
</g>
</g>
<!-- L4YAML.Scanner.ScannerState -->
<g id="node4" class="node">
<title>L4YAML.Scanner.ScannerState</title>
<g id="a_node4"><a xlink:href="../../../api/L4YAML/Scanner.html#L4YAML.Scanner.ScannerState" xlink:title="ScannerState\n(inductive)" target="_blank">
<polygon fill="#dce9f7" stroke="#4a90d9" points="1099.73,-1092.13 1023.73,-1092.13 1023.73,-1056.13 1099.73,-1056.13 1099.73,-1092.13"/>
<text text-anchor="middle" x="1061.73" y="-1077.13" font-family="Helvetica" font-size="10.00">ScannerState</text>
<text text-anchor="middle" x="1061.73" y="-1066.13" font-family="Helvetica" font-size="10.00">(inductive)</text>
</a>
</g>
</g>
<!-- L4YAML.YamlToken -->
<g id="node5" class="node">
<title>L4YAML.YamlToken</title>
<g id="a_node5"><a xlink:href="../../../api/L4YAML/Token.html#L4YAML.YamlToken" xlink:title="YamlToken\n(inductive)" target="_blank">
<polygon fill="#dce9f7" stroke="#4a90d9" points="1093.73,-1038.13 1029.73,-1038.13 1029.73,-1002.13 1093.73,-1002.13 1093.73,-1038.13"/>
<text text-anchor="middle" x="1061.73" y="-1023.13" font-family="Helvetica" font-size="10.00">YamlToken</text>
<text text-anchor="middle" x="1061.73" y="-1012.13" font-family="Helvetica" font-size="10.00">(inductive)</text>
</a>
</g>
</g>
<!-- L4YAML.Scanner.ScannerState.col -->
<g id="node6" class="node">
<title>L4YAML.Scanner.ScannerState.col</title>
<g id="a_node6"><a xlink:href="../../../api/L4YAML/Scanner.html#L4YAML.Scanner.ScannerState.col" xlink:title="ScannerState.col\n(def)" target="_blank">
<polygon fill="#dce9f7" stroke="#4a90d9" points="808.66,-1092.13 716.66,-1092.13 716.66,-1056.13 808.66,-1056.13 808.66,-1092.13"/>
<text text-anchor="middle" x="762.66" y="-1077.13" font-family="Helvetica" font-size="10.00">ScannerState.col</text>
<text text-anchor="middle" x="762.66" y="-1066.13" font-family="Helvetica" font-size="10.00">(def)</text>
</a>
</g>
</g>
<!-- L4YAML.Scanner.skipToContentWs.match_3 -->
<g id="node7" class="node">
<title>L4YAML.Scanner.skipToContentWs.match_3</title>
<g id="a_node7"><a xlink:href="../../../api/L4YAML/Scanner.html#L4YAML.Scanner.skipToContentWs.match_3" xlink:title="skipToContentWs.match_3\n(def)" target="_blank">
<polygon fill="#dce9f7" stroke="#4a90d9" points="830.16,-1146.13 695.16,-1146.13 695.16,-1110.13 830.16,-1110.13 830.16,-1146.13"/>
<text text-anchor="middle" x="762.66" y="-1131.13" font-family="Helvetica" font-size="10.00">skipToContentWs.match_3</text>
<text text-anchor="middle" x="762.66" y="-1120.13" font-family="Helvetica" font-size="10.00">(def)</text>
</a>
</g>
</g>
<!-- L4YAML.ScanError -->
<g id="node8" class="node">
<title>L4YAML.ScanError</title>
<g id="a_node8"><a xlink:href="../../../api/L4YAML/Token.html#L4YAML.ScanError" xlink:title="ScanError\n(inductive)" target="_blank">
<polygon fill="#dce9f7" stroke="#4a90d9" points="1092.73,-1200.13 1030.73,-1200.13 1030.73,-1164.13 1092.73,-1164.13 1092.73,-1200.13"/>
<text text-anchor="middle" x="1061.73" y="-1185.13" font-family="Helvetica" font-size="10.00">ScanError</text>
<text text-anchor="middle" x="1061.73" y="-1174.13" font-family="Helvetica" font-size="10.00">(inductive)</text>
</a>
</g>
</g>
<!-- L4YAML.Scanner.ScannerState.tokens -->
<g id="node9" class="node">
<title>L4YAML.Scanner.ScannerState.tokens</title>
<g id="a_node9"><a xlink:href="../../../api/L4YAML/Scanner.html#L4YAML.Scanner.ScannerState.tokens" xlink:title="ScannerState.tokens\n(def)" target="_blank">
<polygon fill="#dce9f7" stroke="#4a90d9" points="1115.23,-984.13 1008.23,-984.13 1008.23,-948.13 1115.23,-948.13 1115.23,-984.13"/>
<text text-anchor="middle" x="1061.73" y="-969.13" font-family="Helvetica" font-size="10.00">ScannerState.tokens</text>
<text text-anchor="middle" x="1061.73" y="-958.13" font-family="Helvetica" font-size="10.00">(def)</text>
</a>
</g>
</g>
<!-- L4YAML.Scanner.pushMappingIndent -->
<g id="node10" class="node">
<title>L4YAML.Scanner.pushMappingIndent</title>
<g id="a_node10"><a xlink:href="../../../api/L4YAML/Scanner.html#L4YAML.Scanner.pushMappingIndent" xlink:title="pushMappingIndent\n(def)" target="_blank">
<polygon fill="#dce9f7" stroke="#4a90d9" points="813.16,-984.13 712.16,-984.13 712.16,-948.13 813.16,-948.13 813.16,-984.13"/>
<text text-anchor="middle" x="762.66" y="-969.13" font-family="Helvetica" font-size="10.00">pushMappingIndent</text>
<text text-anchor="middle" x="762.66" y="-958.13" font-family="Helvetica" font-size="10.00">(def)</text>
</a>
</g>
</g>
<!-- L4YAML.Scanner.scanKey -->
<g id="node11" class="node">
<title>L4YAML.Scanner.scanKey</title>
<g id="a_node11"><a xlink:href="../../../api/L4YAML/Scanner.html#L4YAML.Scanner.scanKey" xlink:title="scanKey\n(def)" target="_blank">
<polygon fill="#dce9f7" stroke="#4a90d9" points="1088.73,-1146.13 1034.73,-1146.13 1034.73,-1110.13 1088.73,-1110.13 1088.73,-1146.13"/>
<text text-anchor="middle" x="1061.73" y="-1131.13" font-family="Helvetica" font-size="10.00">scanKey</text>
<text text-anchor="middle" x="1061.73" y="-1120.13" font-family="Helvetica" font-size="10.00">(def)</text>
</a>
</g>
</g>
<!-- L4YAML.Proofs.ScannerCorrectness.scanKey_adds_one_token -->
<g id="node12" class="node">
<title>L4YAML.Proofs.ScannerCorrectness.scanKey_adds_one_token</title>
<g id="a_node12"><a xlink:href="../../../api/L4YAML/Proofs/ScannerCorrectness.html#L4YAML.Proofs.ScannerCorrectness.scanKey_adds_one_token" xlink:title="ScannerCorrectness.scanKey_adds_one_token" target="_blank">
<polygon fill="#fff3cd" stroke="#d4a017" points="943.29,-818.67 943.29,-833.58 837.48,-844.13 687.83,-844.13 582.02,-833.58 582.02,-818.67 687.83,-808.13 837.48,-808.13 943.29,-818.67"/>
<polygon fill="none" stroke="#d4a017" points="947.29,-815.05 947.29,-837.2 837.68,-848.13 687.64,-848.13 578.02,-837.2 578.02,-815.05 687.64,-804.13 837.68,-804.13 947.29,-815.05"/>
<text text-anchor="middle" x="762.66" y="-823.03" font-family="Helvetica" font-size="12.00">ScannerCorrectness.scanKey_adds_one_token</text>
</a>
</g>
</g>
<!-- L4YAML.Proofs.ScannerCorrectness.scanKey_adds_one_token&#45;&gt;L4YAML.Positioned -->
<g id="edge3" class="edge">
<title>L4YAML.Proofs.ScannerCorrectness.scanKey_adds_one_token&#45;&gt;L4YAML.Positioned</title>
<path fill="none" stroke="#4a90d9" stroke-width="2" d="M811.54,-804.05C859.73,-785.33 934.69,-766.03 990.23,-797.13 1024.51,-816.32 1044.14,-859.75 1053.59,-887.41"/>
<polygon fill="#4a90d9" stroke="#4a90d9" stroke-width="2" points="1051.27,-888.19 1055.78,-894.07 1055.93,-886.66 1051.27,-888.19"/>
<text text-anchor="middle" x="977.73" y="-799.73" font-family="Times-Roman" font-size="8.00" fill="#4a90d9">about</text>
</g>
<!-- L4YAML.Proofs.ScannerCorrectness.scanKey_adds_one_token&#45;&gt;L4YAML.Scanner.ScannerState -->
<g id="edge5" class="edge">
<title>L4YAML.Proofs.ScannerCorrectness.scanKey_adds_one_token&#45;&gt;L4YAML.Scanner.ScannerState</title>
<path fill="none" stroke="#4a90d9" stroke-width="2" d="M887.61,-843.33C912.46,-851.68 936.61,-863.99 955.23,-882.13 969.02,-895.56 995.77,-1032.44 1008.23,-1047.13 1010.94,-1050.33 1014.14,-1053.2 1017.58,-1055.76"/>
<polygon fill="#4a90d9" stroke="#4a90d9" stroke-width="2" points="1016.41,-1057.93 1023.59,-1059.79 1019.14,-1053.86 1016.41,-1057.93"/>
<text text-anchor="middle" x="977.73" y="-992.73" font-family="Times-Roman" font-size="8.00" fill="#4a90d9">about</text>
</g>
<!-- L4YAML.Proofs.ScannerCorrectness.scanKey_adds_one_token&#45;&gt;L4YAML.YamlToken -->
<g id="edge4" class="edge">
<title>L4YAML.Proofs.ScannerCorrectness.scanKey_adds_one_token&#45;&gt;L4YAML.YamlToken</title>
<path fill="none" stroke="#4a90d9" stroke-width="2" d="M881.35,-843.83C907.82,-852.11 934.24,-864.28 955.23,-882.13 976.05,-899.84 989.18,-973.51 1008.23,-993.13 1012.54,-997.57 1017.73,-1001.41 1023.16,-1004.7"/>
<polygon fill="#4a90d9" stroke="#4a90d9" stroke-width="2" points="1022.29,-1007.02 1029.6,-1008.3 1024.68,-1002.75 1022.29,-1007.02"/>
<text text-anchor="middle" x="977.73" y="-957.73" font-family="Times-Roman" font-size="8.00" fill="#4a90d9">about</text>
</g>
<!-- L4YAML.Proofs.ScannerCorrectness.scanKey_adds_one_token&#45;&gt;L4YAML.ScanError -->
<g id="edge6" class="edge">
<title>L4YAML.Proofs.ScannerCorrectness.scanKey_adds_one_token&#45;&gt;L4YAML.ScanError</title>
<path fill="none" stroke="#4a90d9" stroke-width="2" d="M897.78,-842.23C920,-850.8 940.54,-863.48 955.23,-882.13 969.61,-900.39 957.92,-1069.06 965.23,-1091.13 976,-1123.66 982.62,-1132.35 1008.23,-1155.13 1013.01,-1159.38 1018.58,-1163.16 1024.27,-1166.45"/>
<polygon fill="#4a90d9" stroke="#4a90d9" stroke-width="2" points="1023.14,-1168.63 1030.46,-1169.83 1025.49,-1164.33 1023.14,-1168.63"/>
<text text-anchor="middle" x="977.73" y="-1139.73" font-family="Times-Roman" font-size="8.00" fill="#4a90d9">about</text>
</g>
<!-- L4YAML.Proofs.ScannerCorrectness.scanKey_adds_one_token&#45;&gt;L4YAML.Scanner.ScannerState.tokens -->
<g id="edge1" class="edge">
<title>L4YAML.Proofs.ScannerCorrectness.scanKey_adds_one_token&#45;&gt;L4YAML.Scanner.ScannerState.tokens</title>
<path fill="none" stroke="#4a90d9" stroke-width="2" d="M840.42,-804.33C888.95,-795.54 949.91,-794.41 990.23,-829.13 1027.76,-861.45 979.08,-899.07 1008.23,-939.13 1009.21,-940.47 1010.27,-941.76 1011.41,-942.98"/>
<polygon fill="#4a90d9" stroke="#4a90d9" stroke-width="2" points="1010.02,-945.03 1016.82,-947.98 1013.34,-941.43 1010.02,-945.03"/>
<text text-anchor="middle" x="977.73" y="-831.73" font-family="Times-Roman" font-size="8.00" fill="#4a90d9">about</text>
</g>
<!-- L4YAML.Proofs.ScannerCorrectness.scanKey_adds_one_token&#45;&gt;L4YAML.Scanner.scanKey -->
<g id="edge2" class="edge">
<title>L4YAML.Proofs.ScannerCorrectness.scanKey_adds_one_token&#45;&gt;L4YAML.Scanner.scanKey</title>
<path fill="none" stroke="#4a90d9" stroke-width="2" d="M896.78,-842.46C919.23,-851 940.11,-863.6 955.23,-882.13 972.28,-903.03 958.6,-976.97 965.23,-1003.13 976.9,-1049.24 975.64,-1066.48 1008.23,-1101.13 1013.76,-1107.01 1020.87,-1111.84 1028.05,-1115.69"/>
<polygon fill="#4a90d9" stroke="#4a90d9" stroke-width="2" points="1027.27,-1118.04 1034.63,-1118.96 1029.46,-1113.65 1027.27,-1118.04"/>
<text text-anchor="middle" x="977.73" y="-1080.73" font-family="Times-Roman" font-size="8.00" fill="#4a90d9">about</text>
</g>
<!-- L4YAML.Proofs.ScannerProofs.emit_tokens_size -->
<g id="node13" class="node">
<title>L4YAML.Proofs.ScannerProofs.emit_tokens_size</title>
<g id="a_node13"><a xlink:href="../../../api/L4YAML/Proofs/ScannerProofs.html#L4YAML.Proofs.ScannerProofs.emit_tokens_size" xlink:title="ScannerProofs.emit_tokens_size\n(ScannerProofs)" target="_blank">
<ellipse fill="#d4edda" stroke="#28a745" cx="278.54" cy="-539.13" rx="112.36" ry="21.43"/>
<text text-anchor="middle" x="278.54" y="-542.13" font-family="Helvetica" font-size="10.00">ScannerProofs.emit_tokens_size</text>
<text text-anchor="middle" x="278.54" y="-531.13" font-family="Helvetica" font-size="10.00">(ScannerProofs)</text>
</a>
</g>
</g>
<!-- L4YAML.Proofs.ScannerProofs.emit_tokens_size&#45;&gt;L4YAML.Scanner.ScannerState.emit -->
<g id="edge17" class="edge">
<title>L4YAML.Proofs.ScannerProofs.emit_tokens_size&#45;&gt;L4YAML.Scanner.ScannerState.emit</title>
<path fill="none" stroke="#999999" stroke-dasharray="1,5" d="M355.95,-523.72C417.32,-516.24 500.94,-517.93 549.09,-569.13 565.24,-586.31 554.18,-975.71 570.09,-993.13 604.22,-1030.5 664.55,-1033.23 708.4,-1029.15"/>
<polygon fill="#999999" stroke="#999999" points="708.6,-1030.89 713.4,-1028.65 708.25,-1027.41 708.6,-1030.89"/>
</g>
<!-- L4YAML.Proofs.ScannerProofs.emit_tokens_size&#45;&gt;L4YAML.Positioned -->
<g id="edge18" class="edge">
<title>L4YAML.Proofs.ScannerProofs.emit_tokens_size&#45;&gt;L4YAML.Positioned</title>
<path fill="none" stroke="#999999" stroke-dasharray="1,5" d="M383.14,-531.17C569.16,-517.93 944.76,-496.36 990.23,-534.13 1045.26,-579.85 1057.56,-814.02 1060.1,-889"/>
<polygon fill="#999999" stroke="#999999" points="1058.36,-889.18 1060.27,-894.12 1061.86,-889.07 1058.36,-889.18"/>
</g>
<!-- L4YAML.Proofs.ScannerProofs.emit_tokens_size&#45;&gt;L4YAML.Scanner.ScannerState -->
<g id="edge20" class="edge">
<title>L4YAML.Proofs.ScannerProofs.emit_tokens_size&#45;&gt;L4YAML.Scanner.ScannerState</title>
<path fill="none" stroke="#999999" stroke-dasharray="1,5" d="M382.85,-531.09C435.89,-531.6 499.58,-539.76 549.09,-569.13 563.08,-577.43 557.17,-589.22 570.09,-599.13 714.6,-709.98 807.39,-632.75 955.23,-739.13 975.51,-753.72 981.19,-759.83 990.23,-783.13 1011.49,-837.95 975.91,-998 1008.23,-1047.13 1011.1,-1051.49 1014.91,-1055.19 1019.17,-1058.31"/>
<polygon fill="#999999" stroke="#999999" points="1018.44,-1059.93 1023.57,-1061.25 1020.38,-1057.02 1018.44,-1059.93"/>
</g>
<!-- L4YAML.Proofs.ScannerProofs.emit_tokens_size&#45;&gt;L4YAML.YamlToken -->
<g id="edge19" class="edge">
<title>L4YAML.Proofs.ScannerProofs.emit_tokens_size&#45;&gt;L4YAML.YamlToken</title>
<path fill="none" stroke="#999999" stroke-dasharray="1,5" d="M383.3,-546.87C567.43,-561.05 934.1,-591.45 955.23,-610.13 1006.84,-655.75 979.75,-693.04 990.23,-761.13 998.09,-812.24 979.6,-950.06 1008.23,-993.13 1012.37,-999.37 1018.44,-1004.25 1024.98,-1008.03"/>
<polygon fill="#999999" stroke="#999999" points="1024.34,-1009.67 1029.57,-1010.48 1025.98,-1006.58 1024.34,-1009.67"/>
</g>
<!-- L4YAML.Proofs.ScannerProofs.emit_tokens_size&#45;&gt;L4YAML.Scanner.ScannerState.tokens -->
<g id="edge16" class="edge">
<title>L4YAML.Proofs.ScannerProofs.emit_tokens_size&#45;&gt;L4YAML.Scanner.ScannerState.tokens</title>
<path fill="none" stroke="#999999" stroke-dasharray="1,5" d="M390.11,-536.28C579.29,-532.58 948.8,-530.8 990.23,-572.13 1019.13,-600.96 986.11,-904.81 1008.23,-939.13 1009.41,-940.97 1010.77,-942.69 1012.25,-944.3"/>
<polygon fill="#999999" stroke="#999999" points="1011.13,-945.65 1015.94,-947.86 1013.56,-943.13 1011.13,-945.65"/>
</g>
<!-- L4YAML.Proofs.ScannerProofs.emit_tokens_size&#45;&gt;L4YAML.Proofs.ScannerCorrectness.scanKey_adds_one_token -->
<g id="edge8" class="edge">
<title>L4YAML.Proofs.ScannerProofs.emit_tokens_size&#45;&gt;L4YAML.Proofs.ScannerCorrectness.scanKey_adds_one_token</title>
<path fill="none" stroke="#28a745" d="M361.78,-524.85C421.25,-519.51 499.55,-523.53 549.09,-569.13 566.08,-584.77 550.71,-598.6 559.09,-620.13 562.49,-628.86 564.25,-630.79 570.09,-638.13 619.98,-700.88 689.33,-764.19 729.45,-798.97"/>
<polygon fill="#28a745" stroke="#28a745" points="728.26,-801.18 735.16,-803.9 731.46,-797.47 728.26,-801.18"/>
</g>
<!-- L4YAML.Proofs.ScannerCorrectness.pushMappingIndent_tokens_monotonic -->
<g id="node14" class="node">
<title>L4YAML.Proofs.ScannerCorrectness.pushMappingIndent_tokens_monotonic</title>
<g id="a_node14"><a xlink:href="../../../api/L4YAML/Proofs/ScannerCorrectness.html#L4YAML.Proofs.ScannerCorrectness.pushMappingIndent_tokens_monotonic" xlink:title="ScannerCorrectness.pushMappingIndent_tokens_monotonic\n(ScannerCorrectness)" target="_blank">
<ellipse fill="#d4edda" stroke="#28a745" cx="278.54" cy="-419.13" rx="196.65" ry="21.43"/>
<text text-anchor="middle" x="278.54" y="-422.13" font-family="Helvetica" font-size="10.00">ScannerCorrectness.pushMappingIndent_tokens_monotonic</text>
<text text-anchor="middle" x="278.54" y="-411.13" font-family="Helvetica" font-size="10.00">(ScannerCorrectness)</text>
</a>
</g>
</g>
<!-- L4YAML.Proofs.ScannerCorrectness.pushMappingIndent_tokens_monotonic&#45;&gt;L4YAML.Positioned -->
<g id="edge23" class="edge">
<title>L4YAML.Proofs.ScannerCorrectness.pushMappingIndent_tokens_monotonic&#45;&gt;L4YAML.Positioned</title>
<path fill="none" stroke="#999999" stroke-dasharray="1,5" d="M385.14,-436.96C441.7,-440.07 507.99,-432.24 549.09,-389.13 573.51,-363.5 533.28,-254.36 559.09,-230.13 698.77,-98.95 847.94,-101.79 990.23,-230.13 1040.26,-275.25 1056.94,-773.99 1060.12,-888.7"/>
<polygon fill="#999999" stroke="#999999" points="1058.38,-888.92 1060.26,-893.87 1061.88,-888.82 1058.38,-888.92"/>
</g>
<!-- L4YAML.Proofs.ScannerCorrectness.pushMappingIndent_tokens_monotonic&#45;&gt;L4YAML.Scanner.ScannerState -->
<g id="edge25" class="edge">
<title>L4YAML.Proofs.ScannerCorrectness.pushMappingIndent_tokens_monotonic&#45;&gt;L4YAML.Scanner.ScannerState</title>
<path fill="none" stroke="#999999" stroke-dasharray="1,5" d="M433.43,-406C608.16,-394.56 878.9,-388.47 955.23,-452.13 1007.8,-495.98 981.02,-534.29 990.23,-602.13 996.88,-651.16 981.6,-1005.41 1008.23,-1047.13 1011.14,-1051.69 1015.09,-1055.52 1019.51,-1058.73"/>
<polygon fill="#999999" stroke="#999999" points="1018.57,-1060.2 1023.7,-1061.5 1020.5,-1057.28 1018.57,-1060.2"/>
</g>
<!-- L4YAML.Proofs.ScannerCorrectness.pushMappingIndent_tokens_monotonic&#45;&gt;L4YAML.YamlToken -->
<g id="edge24" class="edge">
<title>L4YAML.Proofs.ScannerCorrectness.pushMappingIndent_tokens_monotonic&#45;&gt;L4YAML.YamlToken</title>
<path fill="none" stroke="#999999" stroke-dasharray="1,5" d="M391.14,-436.55C445.94,-438.47 508.71,-429.65 549.09,-389.13 563.76,-374.4 543.62,-310.02 559.09,-296.13 624.6,-237.28 887.26,-250.14 955.23,-306.13 1010.74,-351.86 981.19,-392.77 990.23,-464.13 993.92,-493.3 992.48,-968.29 1008.23,-993.13 1012.28,-999.53 1018.38,-1004.48 1024.99,-1008.29"/>
<polygon fill="#999999" stroke="#999999" points="1024.4,-1009.96 1029.63,-1010.75 1026.03,-1006.87 1024.4,-1009.96"/>
</g>
<!-- L4YAML.Proofs.ScannerCorrectness.pushMappingIndent_tokens_monotonic&#45;&gt;L4YAML.Scanner.ScannerState.tokens -->
<g id="edge22" class="edge">
<title>L4YAML.Proofs.ScannerCorrectness.pushMappingIndent_tokens_monotonic&#45;&gt;L4YAML.Scanner.ScannerState.tokens</title>
<path fill="none" stroke="#999999" stroke-dasharray="1,5" d="M387.5,-436.79C443.36,-439.41 508.23,-431.16 549.09,-389.13 567.89,-369.78 539.24,-286.4 559.09,-268.13 629.57,-203.23 921.58,-201.29 990.23,-268.13 1016.95,-294.14 988.38,-907.56 1008.23,-939.13 1009.39,-940.98 1010.73,-942.71 1012.2,-944.33"/>
<polygon fill="#999999" stroke="#999999" points="1011.06,-945.67 1015.86,-947.91 1013.51,-943.16 1011.06,-945.67"/>
</g>
<!-- L4YAML.Proofs.ScannerCorrectness.pushMappingIndent_tokens_monotonic&#45;&gt;L4YAML.Scanner.pushMappingIndent -->
<g id="edge26" class="edge">
<title>L4YAML.Proofs.ScannerCorrectness.pushMappingIndent_tokens_monotonic&#45;&gt;L4YAML.Scanner.pushMappingIndent</title>
<path fill="none" stroke="#999999" stroke-dasharray="1,5" d="M382.79,-401.14C440.03,-397.53 507.78,-404.91 549.09,-449.13 586.29,-488.95 533.47,-898.77 570.09,-939.13 603.77,-976.25 663.29,-979.27 707.07,-975.32"/>
<polygon fill="#999999" stroke="#999999" points="707.26,-977.06 712.06,-974.84 706.92,-973.58 707.26,-977.06"/>
</g>
<!-- L4YAML.Proofs.ScannerCorrectness.pushMappingIndent_tokens_monotonic&#45;&gt;L4YAML.Proofs.ScannerCorrectness.scanKey_adds_one_token -->
<g id="edge11" class="edge">
<title>L4YAML.Proofs.ScannerCorrectness.pushMappingIndent_tokens_monotonic&#45;&gt;L4YAML.Proofs.ScannerCorrectness.scanKey_adds_one_token</title>
<path fill="none" stroke="#28a745" d="M475.41,-418.74C501.6,-424.89 526.99,-434.52 549.09,-449.13 677.26,-533.85 736.29,-723.75 754.87,-796.76"/>
<polygon fill="#28a745" stroke="#28a745" points="752.57,-797.66 756.64,-803.86 757.32,-796.47 752.57,-797.66"/>
</g>
<!-- L4YAML.Proofs.ScannerCorrectness.scanKey_adds_one_token._proof_1_3 -->
<g id="node15" class="node">
<title>L4YAML.Proofs.ScannerCorrectness.scanKey_adds_one_token._proof_1_3</title>
<g id="a_node15"><a xlink:href="../../../api/L4YAML/Proofs/ScannerCorrectness.html#L4YAML.Proofs.ScannerCorrectness.scanKey_adds_one_token._proof_1_3" xlink:title="ScannerCorrectness.scanKey_adds_one_token._proof_1_3\n(ScannerCorrectness)" target="_blank">
<ellipse fill="#d4edda" stroke="#28a745" cx="278.54" cy="-359.13" rx="193.08" ry="21.43"/>
<text text-anchor="middle" x="278.54" y="-362.13" font-family="Helvetica" font-size="10.00">ScannerCorrectness.scanKey_adds_one_token._proof_1_3</text>
<text text-anchor="middle" x="278.54" y="-351.13" font-family="Helvetica" font-size="10.00">(ScannerCorrectness)</text>
</a>
</g>
</g>
<!-- L4YAML.Proofs.ScannerCorrectness.scanKey_adds_one_token._proof_1_3&#45;&gt;L4YAML.Positioned -->
<g id="edge28" class="edge">
<title>L4YAML.Proofs.ScannerCorrectness.scanKey_adds_one_token._proof_1_3&#45;&gt;L4YAML.Positioned</title>
<path fill="none" stroke="#999999" stroke-dasharray="1,5" d="M292.14,-337.79C326.45,-282.06 427.87,-132.68 559.09,-78.13 736.02,-4.57 849.14,51.54 990.23,-78.13 1051.56,-134.5 1059.58,-759.1 1060.59,-888.68"/>
<polygon fill="#999999" stroke="#999999" points="1058.84,-888.79 1060.62,-893.78 1062.34,-888.77 1058.84,-888.79"/>
</g>
<!-- L4YAML.Proofs.ScannerCorrectness.scanKey_adds_one_token._proof_1_3&#45;&gt;L4YAML.Scanner.ScannerState -->
<g id="edge30" class="edge">
<title>L4YAML.Proofs.ScannerCorrectness.scanKey_adds_one_token._proof_1_3&#45;&gt;L4YAML.Scanner.ScannerState</title>
<path fill="none" stroke="#999999" stroke-dasharray="1,5" d="M360.54,-339.88C495.33,-312.64 769.23,-278.1 955.23,-394.13 982.4,-411.08 981.72,-426.25 990.23,-457.13 1007.64,-520.36 973.21,-991.67 1008.23,-1047.13 1011.12,-1051.7 1015.05,-1055.54 1019.47,-1058.75"/>
<polygon fill="#999999" stroke="#999999" points="1018.52,-1060.22 1023.65,-1061.53 1020.45,-1057.3 1018.52,-1060.22"/>
</g>
<!-- L4YAML.Proofs.ScannerCorrectness.scanKey_adds_one_token._proof_1_3&#45;&gt;L4YAML.YamlToken -->
<g id="edge29" class="edge">
<title>L4YAML.Proofs.ScannerCorrectness.scanKey_adds_one_token._proof_1_3&#45;&gt;L4YAML.YamlToken</title>
<path fill="none" stroke="#999999" stroke-dasharray="1,5" d="M298.97,-337.7C341.08,-293.04 446.12,-191.11 559.09,-154.13 642.75,-126.74 886.54,-99.07 955.23,-154.13 1011.01,-198.84 981.46,-240.17 990.23,-311.13 994.87,-348.74 988.06,-961.04 1008.23,-993.13 1012.26,-999.54 1018.34,-1004.5 1024.95,-1008.32"/>
<polygon fill="#999999" stroke="#999999" points="1024.36,-1009.98 1029.6,-1010.78 1026,-1006.89 1024.36,-1009.98"/>
</g>
<!-- L4YAML.Proofs.ScannerCorrectness.scanKey_adds_one_token._proof_1_3&#45;&gt;L4YAML.Scanner.ScannerState.tokens -->
<g id="edge27" class="edge">
<title>L4YAML.Proofs.ScannerCorrectness.scanKey_adds_one_token._proof_1_3&#45;&gt;L4YAML.Scanner.ScannerState.tokens</title>
<path fill="none" stroke="#999999" stroke-dasharray="1,5" d="M295.09,-337.7C333.2,-287.23 437.12,-161.73 559.09,-116.13 648.83,-82.57 921.74,-49.12 990.23,-116.13 1022.92,-148.11 983.98,-900.35 1008.23,-939.13 1009.39,-940.98 1010.72,-942.72 1012.19,-944.34"/>
<polygon fill="#999999" stroke="#999999" points="1011.05,-945.67 1015.84,-947.92 1013.5,-943.17 1011.05,-945.67"/>
</g>
<!-- L4YAML.Proofs.ScannerCorrectness.scanKey_adds_one_token._proof_1_3&#45;&gt;L4YAML.Proofs.ScannerCorrectness.scanKey_adds_one_token -->
<g id="edge10" class="edge">
<title>L4YAML.Proofs.ScannerCorrectness.scanKey_adds_one_token._proof_1_3&#45;&gt;L4YAML.Proofs.ScannerCorrectness.scanKey_adds_one_token</title>
<path fill="none" stroke="#28a745" d="M469.62,-356.01C498.03,-362.2 525.62,-372.57 549.09,-389.13 692.5,-490.31 743.21,-715.64 757.17,-796.51"/>
<polygon fill="#28a745" stroke="#28a745" points="754.83,-797.38 758.41,-803.88 759.66,-796.57 754.83,-797.38"/>
</g>
<!-- L4YAML.Proofs.ScannerCorrectness.advance_preserves_tokens -->
<g id="node16" class="node">
<title>L4YAML.Proofs.ScannerCorrectness.advance_preserves_tokens</title>
<g id="a_node16"><a xlink:href="../../../api/L4YAML/Proofs/ScannerCorrectness.html#L4YAML.Proofs.ScannerCorrectness.advance_preserves_tokens" xlink:title="ScannerCorrectness.advance_preserves_tokens\n(ScannerCorrectness)" target="_blank">
<ellipse fill="#d4edda" stroke="#28a745" cx="278.54" cy="-479.13" rx="160.53" ry="21.43"/>
<text text-anchor="middle" x="278.54" y="-482.13" font-family="Helvetica" font-size="10.00">ScannerCorrectness.advance_preserves_tokens</text>
<text text-anchor="middle" x="278.54" y="-471.13" font-family="Helvetica" font-size="10.00">(ScannerCorrectness)</text>
</a>
</g>
</g>
<!-- L4YAML.Proofs.ScannerCorrectness.advance_preserves_tokens&#45;&gt;L4YAML.Positioned -->
<g id="edge34" class="edge">
<title>L4YAML.Proofs.ScannerCorrectness.advance_preserves_tokens&#45;&gt;L4YAML.Positioned</title>
<path fill="none" stroke="#999999" stroke-dasharray="1,5" d="M385.7,-494.94C441.03,-497.01 505.96,-488.83 549.09,-449.13 572.05,-427.99 542.47,-396.65 570.09,-382.13 735.35,-295.2 849.75,-259.1 990.23,-382.13 1029.03,-416.11 1053.6,-790.71 1059.4,-888.75"/>
<polygon fill="#999999" stroke="#999999" points="1057.67,-889.13 1059.71,-894.01 1061.16,-888.92 1057.67,-889.13"/>
</g>
<!-- L4YAML.Proofs.ScannerCorrectness.advance_preserves_tokens&#45;&gt;L4YAML.Scanner.ScannerState.advance -->
<g id="edge33" class="edge">
<title>L4YAML.Proofs.ScannerCorrectness.advance_preserves_tokens&#45;&gt;L4YAML.Scanner.ScannerState.advance</title>
<path fill="none" stroke="#999999" stroke-dasharray="1,5" d="M373.65,-461.99C432.55,-457.13 505.3,-462.88 549.09,-509.13 606.17,-569.41 514.36,-820.59 570.09,-882.13 602.01,-917.38 657.03,-922.86 699.94,-920.69"/>
<polygon fill="#999999" stroke="#999999" points="700.22,-922.43 705.11,-920.39 700.01,-918.94 700.22,-922.43"/>
</g>
<!-- L4YAML.Proofs.ScannerCorrectness.advance_preserves_tokens&#45;&gt;L4YAML.Scanner.ScannerState -->
<g id="edge36" class="edge">
<title>L4YAML.Proofs.ScannerCorrectness.advance_preserves_tokens&#45;&gt;L4YAML.Scanner.ScannerState</title>
<path fill="none" stroke="#999999" stroke-dasharray="1,5" d="M384.67,-463.17C533.87,-447.06 805.51,-442.92 955.23,-595.13 1002.32,-643.01 980.43,-675.68 990.23,-742.13 995.18,-775.71 989.7,-1018.68 1008.23,-1047.13 1011.08,-1051.51 1014.88,-1055.21 1019.13,-1058.34"/>
<polygon fill="#999999" stroke="#999999" points="1018.4,-1059.95 1023.53,-1061.28 1020.34,-1057.04 1018.4,-1059.95"/>
</g>
<!-- L4YAML.Proofs.ScannerCorrectness.advance_preserves_tokens&#45;&gt;L4YAML.YamlToken -->
<g id="edge35" class="edge">
<title>L4YAML.Proofs.ScannerCorrectness.advance_preserves_tokens&#45;&gt;L4YAML.YamlToken</title>
<path fill="none" stroke="#999999" stroke-dasharray="1,5" d="M401.49,-465.45C474.86,-457.25 554.91,-448.36 559.09,-448.13 734.94,-438.41 819.21,-346.24 955.23,-458.13 1010.44,-503.54 980.71,-544.27 990.23,-615.13 995.82,-656.8 985.48,-957.76 1008.23,-993.13 1012.33,-999.5 1018.44,-1004.44 1025.06,-1008.25"/>
<polygon fill="#999999" stroke="#999999" points="1024.46,-1009.92 1029.7,-1010.71 1026.1,-1006.83 1024.46,-1009.92"/>
</g>
<!-- L4YAML.Proofs.ScannerCorrectness.advance_preserves_tokens&#45;&gt;L4YAML.Scanner.ScannerState.tokens -->
<g id="edge32" class="edge">
<title>L4YAML.Proofs.ScannerCorrectness.advance_preserves_tokens&#45;&gt;L4YAML.Scanner.ScannerState.tokens</title>
<path fill="none" stroke="#999999" stroke-dasharray="1,5" d="M408.02,-491.7C456.57,-490 509.57,-479.62 549.09,-449.13 558.89,-441.56 549.9,-431.43 559.09,-423.13 562.85,-419.73 565.06,-420.8 570.09,-420.13 755.16,-395.34 855.92,-290.4 990.23,-420.13 1031.73,-460.21 977.32,-890.4 1008.23,-939.13 1009.4,-940.98 1010.74,-942.71 1012.22,-944.32"/>
<polygon fill="#999999" stroke="#999999" points="1011.09,-945.66 1015.89,-947.89 1013.52,-943.15 1011.09,-945.66"/>
</g>
<!-- L4YAML.Proofs.ScannerCorrectness.advance_preserves_tokens&#45;&gt;L4YAML.Proofs.ScannerCorrectness.scanKey_adds_one_token -->
<g id="edge7" class="edge">
<title>L4YAML.Proofs.ScannerCorrectness.advance_preserves_tokens&#45;&gt;L4YAML.Proofs.ScannerCorrectness.scanKey_adds_one_token</title>
<path fill="none" stroke="#28a745" d="M390.16,-463.87C444.91,-461.73 509.85,-467.76 560.09,-498.13 675.16,-567.68 733.85,-730.46 753.71,-797"/>
<polygon fill="#28a745" stroke="#28a745" points="751.41,-797.86 755.73,-803.89 756.11,-796.48 751.41,-797.86"/>
</g>
<!-- L4YAML.Proofs.ScannerCorrectness.scanKey_adds_one_token._proof_1_2 -->
<g id="node17" class="node">
<title>L4YAML.Proofs.ScannerCorrectness.scanKey_adds_one_token._proof_1_2</title>
<g id="a_node17"><a xlink:href="../../../api/L4YAML/Proofs/ScannerCorrectness.html#L4YAML.Proofs.ScannerCorrectness.scanKey_adds_one_token._proof_1_2" xlink:title="ScannerCorrectness.scanKey_adds_one_token._proof_1_2\n(ScannerCorrectness)" target="_blank">
<ellipse fill="#d4edda" stroke="#28a745" cx="278.54" cy="-599.13" rx="193.08" ry="21.43"/>
<text text-anchor="middle" x="278.54" y="-602.13" font-family="Helvetica" font-size="10.00">ScannerCorrectness.scanKey_adds_one_token._proof_1_2</text>
<text text-anchor="middle" x="278.54" y="-591.13" font-family="Helvetica" font-size="10.00">(ScannerCorrectness)</text>
</a>
</g>
</g>
<!-- L4YAML.Proofs.ScannerCorrectness.scanKey_adds_one_token._proof_1_2&#45;&gt;L4YAML.Positioned -->
<g id="edge39" class="edge">
<title>L4YAML.Proofs.ScannerCorrectness.scanKey_adds_one_token._proof_1_2&#45;&gt;L4YAML.Positioned</title>
<path fill="none" stroke="#999999" stroke-dasharray="1,5" d="M471.76,-599.77C654.93,-604.35 913.8,-622.39 990.23,-686.13 1051.92,-737.58 1060.5,-842.22 1061.11,-888.82"/>
<polygon fill="#999999" stroke="#999999" points="1059.36,-888.96 1061.15,-893.95 1062.86,-888.94 1059.36,-888.96"/>
</g>
<!-- L4YAML.Proofs.ScannerCorrectness.scanKey_adds_one_token._proof_1_2&#45;&gt;L4YAML.Scanner.ScannerState -->
<g id="edge41" class="edge">
<title>L4YAML.Proofs.ScannerCorrectness.scanKey_adds_one_token._proof_1_2&#45;&gt;L4YAML.Scanner.ScannerState</title>
<path fill="none" stroke="#999999" stroke-dasharray="1,5" d="M312.46,-620.05C364.79,-652.22 471.2,-713.26 570.09,-743.13 652.68,-768.07 894.19,-731.15 955.23,-792.13 967.59,-804.48 958.5,-854 965.23,-870.13 972.18,-886.78 983.31,-885.46 990.23,-902.13 1015.12,-962.11 971.04,-993.89 1008.23,-1047.13 1011.17,-1051.35 1014.99,-1054.95 1019.21,-1058.02"/>
<polygon fill="#999999" stroke="#999999" points="1018.43,-1059.6 1023.56,-1060.91 1020.37,-1056.69 1018.43,-1059.6"/>
</g>
<!-- L4YAML.Proofs.ScannerCorrectness.scanKey_adds_one_token._proof_1_2&#45;&gt;L4YAML.YamlToken -->
<g id="edge40" class="edge">
<title>L4YAML.Proofs.ScannerCorrectness.scanKey_adds_one_token._proof_1_2&#45;&gt;L4YAML.YamlToken</title>
<path fill="none" stroke="#999999" stroke-dasharray="1,5" d="M332.64,-619.58C390.34,-641.16 485.63,-674.92 570.09,-696.13 738.53,-738.41 792.39,-701.75 955.23,-762.13 972.23,-768.43 980.62,-767.74 990.23,-783.13 1039.82,-862.6 956.06,-915.32 1008.23,-993.13 1012.4,-999.35 1018.47,-1004.22 1025.02,-1008.01"/>
<polygon fill="#999999" stroke="#999999" points="1024.37,-1009.65 1029.61,-1010.46 1026.02,-1006.56 1024.37,-1009.65"/>
</g>
<!-- L4YAML.Proofs.ScannerCorrectness.scanKey_adds_one_token._proof_1_2&#45;&gt;L4YAML.Scanner.ScannerState.col -->
<g id="edge38" class="edge">
<title>L4YAML.Proofs.ScannerCorrectness.scanKey_adds_one_token._proof_1_2&#45;&gt;L4YAML.Scanner.ScannerState.col</title>
<path fill="none" stroke="#999999" stroke-dasharray="1,5" d="M317.59,-620.02C378.46,-655.75 496.26,-734.84 549.09,-838.13 559.71,-858.91 553.92,-1030.3 570.09,-1047.13 605.76,-1084.25 667.38,-1086.6 711.1,-1082.5"/>
<polygon fill="#999999" stroke="#999999" points="711.54,-1084.22 716.34,-1081.98 711.19,-1080.74 711.54,-1084.22"/>
</g>
<!-- L4YAML.Proofs.ScannerCorrectness.scanKey_adds_one_token._proof_1_2&#45;&gt;L4YAML.Scanner.ScannerState.tokens -->
<g id="edge37" class="edge">
<title>L4YAML.Proofs.ScannerCorrectness.scanKey_adds_one_token._proof_1_2&#45;&gt;L4YAML.Scanner.ScannerState.tokens</title>
<path fill="none" stroke="#999999" stroke-dasharray="1,5" d="M385.03,-616.84C581.7,-649.98 985.12,-718.53 990.23,-724.13 1022.56,-759.53 981.56,-899.28 1008.23,-939.13 1009.44,-940.95 1010.82,-942.65 1012.33,-944.25"/>
<polygon fill="#999999" stroke="#999999" points="1011.23,-945.61 1016.06,-947.78 1013.63,-943.07 1011.23,-945.61"/>
</g>
<!-- L4YAML.Proofs.ScannerCorrectness.scanKey_adds_one_token._proof_1_2&#45;&gt;L4YAML.Scanner.pushMappingIndent -->
<g id="edge42" class="edge">
<title>L4YAML.Proofs.ScannerCorrectness.scanKey_adds_one_token._proof_1_2&#45;&gt;L4YAML.Scanner.pushMappingIndent</title>
<path fill="none" stroke="#999999" stroke-dasharray="1,5" d="M315.43,-620.09C374.28,-656.48 490.61,-737.21 549.09,-838.13 572.08,-877.8 536.63,-907.78 570.09,-939.13 606.12,-972.89 663.95,-976.78 706.66,-973.97"/>
<polygon fill="#999999" stroke="#999999" points="706.93,-975.7 711.79,-973.6 706.67,-972.21 706.93,-975.7"/>
</g>
<!-- L4YAML.Proofs.ScannerCorrectness.scanKey_adds_one_token._proof_1_2&#45;&gt;L4YAML.Proofs.ScannerCorrectness.scanKey_adds_one_token -->
<g id="edge9" class="edge">
<title>L4YAML.Proofs.ScannerCorrectness.scanKey_adds_one_token._proof_1_2&#45;&gt;L4YAML.Proofs.ScannerCorrectness.scanKey_adds_one_token</title>
<path fill="none" stroke="#28a745" d="M299.92,-620.3C344.06,-664.24 453.9,-763.41 570.09,-790.13 594.81,-795.81 621.47,-801.25 646.83,-806.11"/>
<polygon fill="#28a745" stroke="#28a745" points="646.61,-808.56 653.94,-807.46 647.52,-803.74 646.61,-808.56"/>
</g>
<!-- _private.L4YAML.Proofs.ScannerCorrectness.0.L4YAML.Scanner.skipToContentWs.match_3.eq_2 -->
<g id="node18" class="node">
<title>_private.L4YAML.Proofs.ScannerCorrectness.0.L4YAML.Scanner.skipToContentWs.match_3.eq_2</title>
<g id="a_node18"><a xlink:href="../../../api/L4YAML/Proofs/ScannerCorrectness.html#_private.L4YAML.Proofs.ScannerCorrectness.0.L4YAML.Scanner.skipToContentWs.match_3.eq_2" xlink:title="_private.L4YAML.Proofs.ScannerCorrectness.0.L4YAML.Scanner.skipToContentWs.match_3.eq_2" target="_blank">
<ellipse fill="#fdebd0" stroke="#e67e22" cx="278.54" cy="-1030.13" rx="262.59" ry="18"/>
<text text-anchor="middle" x="278.54" y="-1027.63" font-family="Helvetica" font-size="10.00">_private.L4YAML.Proofs.ScannerCorrectness.0.L4YAML.Scanner.skipToContentWs.match_3.eq_2</text>
</a>
</g>
</g>
<!-- _private.L4YAML.Proofs.ScannerCorrectness.0.L4YAML.Scanner.skipToContentWs.match_3.eq_2&#45;&gt;L4YAML.Scanner.skipToContentWs.match_3 -->
<g id="edge21" class="edge">
<title>_private.L4YAML.Proofs.ScannerCorrectness.0.L4YAML.Scanner.skipToContentWs.match_3.eq_2&#45;&gt;L4YAML.Scanner.skipToContentWs.match_3</title>
<path fill="none" stroke="#999999" stroke-dasharray="1,5" d="M343.19,-1047.62C401.79,-1063.26 491.3,-1085.99 570.09,-1101.13 609.38,-1108.68 653.6,-1115.05 689.64,-1119.7"/>
<polygon fill="#999999" stroke="#999999" points="689.71,-1121.48 694.89,-1120.38 690.16,-1118 689.71,-1121.48"/>
</g>
<!-- _private.L4YAML.Proofs.ScannerCorrectness.0.L4YAML.Scanner.skipToContentWs.match_3.eq_2&#45;&gt;L4YAML.Proofs.ScannerCorrectness.scanKey_adds_one_token -->
<g id="edge12" class="edge">
<title>_private.L4YAML.Proofs.ScannerCorrectness.0.L4YAML.Scanner.skipToContentWs.match_3.eq_2&#45;&gt;L4YAML.Proofs.ScannerCorrectness.scanKey_adds_one_token</title>
<path fill="none" stroke="#e67e22" stroke-width="2" d="M374.38,-1046.9C432.06,-1051.38 503.21,-1045.82 549.09,-1003.13 569.07,-984.54 551.91,-902.48 570.09,-882.13 585.05,-865.38 604.7,-853.53 625.73,-845.16"/>
<polygon fill="#e67e22" stroke="#e67e22" stroke-width="2" points="626.61,-847.44 632.29,-842.67 624.88,-842.86 626.61,-847.44"/>
</g>
<!-- implies_congr -->
<g id="node19" class="node">
<title>implies_congr</title>
<g id="a_node19"><a xlink:href="../../../api/Init/SimpLemmas.html#implies_congr" xlink:title="implies_congr" target="_blank">
<ellipse fill="#fdebd0" stroke="#e67e22" cx="278.54" cy="-922.13" rx="45.15" ry="18"/>
<text text-anchor="middle" x="278.54" y="-919.63" font-family="Helvetica" font-size="10.00">implies_congr</text>
</a>
</g>
</g>
<!-- implies_congr&#45;&gt;L4YAML.Proofs.ScannerCorrectness.scanKey_adds_one_token -->
<g id="edge13" class="edge">
<title>implies_congr&#45;&gt;L4YAML.Proofs.ScannerCorrectness.scanKey_adds_one_token</title>
<path fill="none" stroke="#e67e22" stroke-width="2" d="M323.77,-923.72C378.25,-924.33 472.93,-920.96 549.09,-895.13 559.48,-891.6 560.06,-886.6 570.09,-882.13 600.25,-868.68 634.5,-857.49 665.61,-848.73"/>
<polygon fill="#e67e22" stroke="#e67e22" stroke-width="2" points="666.53,-851.02 672.62,-846.78 665.22,-846.3 666.53,-851.02"/>
</g>
<!-- Decidable.byContradiction -->
<g id="node20" class="node">
<title>Decidable.byContradiction</title>
<g id="a_node20"><a xlink:href="../../../api/Init/Core.html#Decidable.byContradiction" xlink:title="Decidable.byContradiction" target="_blank">
<ellipse fill="#fdebd0" stroke="#e67e22" cx="278.54" cy="-868.13" rx="77.23" ry="18"/>
<text text-anchor="middle" x="278.54" y="-865.63" font-family="Helvetica" font-size="10.00">Decidable.byContradiction</text>
</a>
</g>
</g>
<!-- Decidable.byContradiction&#45;&gt;L4YAML.Proofs.ScannerCorrectness.scanKey_adds_one_token -->
<g id="edge14" class="edge">
<title>Decidable.byContradiction&#45;&gt;L4YAML.Proofs.ScannerCorrectness.scanKey_adds_one_token</title>
<path fill="none" stroke="#e67e22" stroke-width="2" d="M350.94,-861.91C415.63,-856.27 513.4,-847.75 597.31,-840.44"/>
<polygon fill="#e67e22" stroke="#e67e22" stroke-width="2" points="597.6,-842.88 604.36,-839.83 597.17,-838 597.6,-842.88"/>
</g>
<!-- _private.L4YAML.Proofs.ScannerCorrectness.0.L4YAML.Scanner.skipToContentWs.match_3.eq_1 -->
<g id="node21" class="node">
<title>_private.L4YAML.Proofs.ScannerCorrectness.0.L4YAML.Scanner.skipToContentWs.match_3.eq_1</title>
<g id="a_node21"><a xlink:href="../../../api/L4YAML/Proofs/ScannerCorrectness.html#_private.L4YAML.Proofs.ScannerCorrectness.0.L4YAML.Scanner.skipToContentWs.match_3.eq_1" xlink:title="_private.L4YAML.Proofs.ScannerCorrectness.0.L4YAML.Scanner.skipToContentWs.match_3.eq_1" target="_blank">
<ellipse fill="#fdebd0" stroke="#e67e22" cx="278.54" cy="-976.13" rx="262.59" ry="18"/>
<text text-anchor="middle" x="278.54" y="-973.63" font-family="Helvetica" font-size="10.00">_private.L4YAML.Proofs.ScannerCorrectness.0.L4YAML.Scanner.skipToContentWs.match_3.eq_1</text>
</a>
</g>
</g>
<!-- _private.L4YAML.Proofs.ScannerCorrectness.0.L4YAML.Scanner.skipToContentWs.match_3.eq_1&#45;&gt;L4YAML.Scanner.skipToContentWs.match_3 -->
<g id="edge31" class="edge">
<title>_private.L4YAML.Proofs.ScannerCorrectness.0.L4YAML.Scanner.skipToContentWs.match_3.eq_1&#45;&gt;L4YAML.Scanner.skipToContentWs.match_3</title>
<path fill="none" stroke="#999999" stroke-dasharray="1,5" d="M380.66,-959.53C436.83,-956.24 504.22,-962.99 549.09,-1003.13 582.29,-1032.82 537.49,-1070.77 570.09,-1101.13 601.61,-1130.48 649.62,-1137.2 689.69,-1136.6"/>
<polygon fill="#999999" stroke="#999999" points="690.08,-1138.34 695.04,-1136.47 690,-1134.84 690.08,-1138.34"/>
</g>
<!-- _private.L4YAML.Proofs.ScannerCorrectness.0.L4YAML.Scanner.skipToContentWs.match_3.eq_1&#45;&gt;L4YAML.Proofs.ScannerCorrectness.scanKey_adds_one_token -->
<g id="edge15" class="edge">
<title>_private.L4YAML.Proofs.ScannerCorrectness.0.L4YAML.Scanner.skipToContentWs.match_3.eq_1&#45;&gt;L4YAML.Proofs.ScannerCorrectness.scanKey_adds_one_token</title>
<path fill="none" stroke="#e67e22" stroke-width="2" d="M518.35,-968.6C529.27,-963.28 539.61,-956.85 549.09,-949.13 573.28,-929.42 547.81,-903.98 570.09,-882.13 586.97,-865.56 608.47,-853.85 630.93,-845.58"/>
<polygon fill="#e67e22" stroke="#e67e22" stroke-width="2" points="631.81,-847.87 637.6,-843.23 630.19,-843.25 631.81,-847.87"/>
</g>
</g>
</svg>
