<?xml version="1.0" encoding="UTF-8" standalone="no"?>
<!DOCTYPE svg PUBLIC "-//W3C//DTD SVG 1.1//EN"
 "http://www.w3.org/Graphics/SVG/1.1/DTD/svg11.dtd">
<!-- Generated by graphviz version 2.44.0 (0)
 -->
<!-- Title: ScannerCoupling.peek_some_chars Pages: 1 -->
<svg width="852pt" height="722pt"
 viewBox="0.00 0.00 851.97 721.75" xmlns="http://www.w3.org/2000/svg" xmlns:xlink="http://www.w3.org/1999/xlink">
<g id="graph0" class="graph" transform="scale(1 1) rotate(0) translate(4 717.75)">
<title>ScannerCoupling.peek_some_chars</title>
<polygon fill="white" stroke="transparent" points="-4,4 -4,-717.75 847.97,-717.75 847.97,4 -4,4"/>
<text text-anchor="middle" x="421.99" y="-699.35" font-family="Helvetica Bold" font-size="13.00">ScannerCoupling.peek_some_chars</text>
<text text-anchor="middle" x="421.99" y="-685.35" font-family="Helvetica Bold" font-size="13.00">(heuristic: used by 8 proofs)</text>
<text text-anchor="middle" x="421.99" y="-671.35" font-family="Helvetica Bold" font-size="13.00">(L4YAML.Proofs.ScannerCoupling)</text>
<g id="clust1" class="cluster">
<title>cluster_functions</title>
<polygon fill="none" stroke="#4a90d9" stroke-dasharray="5,2" points="396.21,-365.75 396.21,-655.75 835.97,-655.75 835.97,-365.75 396.21,-365.75"/>
<text text-anchor="middle" x="616.09" y="-641.35" font-family="Helvetica Bold" font-size="13.00" fill="#4a90d9">Functions</text>
</g>
<g id="clust2" class="cluster">
<title>cluster_key</title>
<polygon fill="none" stroke="#d4a017" stroke-dasharray="5,2" points="309.46,-275.75 309.46,-357.75 615.97,-357.75 615.97,-275.75 309.46,-275.75"/>
<text text-anchor="middle" x="462.71" y="-343.35" font-family="Helvetica Bold" font-size="13.00" fill="#d4a017">Key Theorem</text>
</g>
<g id="clust3" class="cluster">
<title>cluster_proofs</title>
<polygon fill="none" stroke="#28a745" stroke-dasharray="5,2" points="8,-182.75 8,-322.75 288.46,-322.75 288.46,-182.75 8,-182.75"/>
<text text-anchor="middle" x="148.23" y="-308.35" font-family="Helvetica Bold" font-size="13.00" fill="#28a745">Proof Dependencies</text>
</g>
<g id="clust4" class="cluster">
<title>cluster_stdlib</title>
<polygon fill="none" stroke="#e67e22" stroke-dasharray="5,2" points="90.19,-385.75 90.19,-459.75 206.27,-459.75 206.27,-385.75 90.19,-385.75"/>
<text text-anchor="middle" x="148.23" y="-445.35" font-family="Helvetica Bold" font-size="13.00" fill="#e67e22">Stdlib Lemmas</text>
</g>
<!-- L4YAML.Scanner.ScannerState.peek? -->
<g id="node1" class="node">
<title>L4YAML.Scanner.ScannerState.peek?</title>
<g id="a_node1"><a xlink:href="../../../api/L4YAML/Scanner.html#L4YAML.Scanner.ScannerState.peek?" xlink:title="ScannerState.peek?\n(def)" target="_blank">
<polygon fill="#dce9f7" stroke="#4a90d9" points="800.47,-409.75 696.47,-409.75 696.47,-373.75 800.47,-373.75 800.47,-409.75"/>
<text text-anchor="middle" x="748.47" y="-394.75" font-family="Helvetica" font-size="10.00">ScannerState.peek?</text>
<text text-anchor="middle" x="748.47" y="-383.75" font-family="Helvetica" font-size="10.00">(def)</text>
</a>
</g>
</g>
<!-- L4YAML.Scanner.ScannerState -->
<g id="node2" class="node">
<title>L4YAML.Scanner.ScannerState</title>
<g id="a_node2"><a xlink:href="../../../api/L4YAML/Scanner.html#L4YAML.Scanner.ScannerState" xlink:title="ScannerState\n(inductive)" target="_blank">
<polygon fill="#dce9f7" stroke="#4a90d9" points="786.47,-517.75 710.47,-517.75 710.47,-481.75 786.47,-481.75 786.47,-517.75"/>
<text text-anchor="middle" x="748.47" y="-502.75" font-family="Helvetica" font-size="10.00">ScannerState</text>
<text text-anchor="middle" x="748.47" y="-491.75" font-family="Helvetica" font-size="10.00">(inductive)</text>
</a>
</g>
</g>
<!-- L4YAML.Proofs.CouplingBridge.ScannerSurfCorr -->
<g id="node3" class="node">
<title>L4YAML.Proofs.CouplingBridge.ScannerSurfCorr</title>
<g id="a_node3"><a xlink:href="../../../api/L4YAML/Proofs/CouplingBridge.html#L4YAML.Proofs.CouplingBridge.ScannerSurfCorr" xlink:title="CouplingBridge.ScannerSurfCorr\n(inductive)" target="_blank">
<polygon fill="#dce9f7" stroke="#4a90d9" points="827.97,-463.75 668.97,-463.75 668.97,-427.75 827.97,-427.75 827.97,-463.75"/>
<text text-anchor="middle" x="748.47" y="-448.75" font-family="Helvetica" font-size="10.00">CouplingBridge.ScannerSurfCorr</text>
<text text-anchor="middle" x="748.47" y="-437.75" font-family="Helvetica" font-size="10.00">(inductive)</text>
</a>
</g>
</g>
<!-- L4YAML.Scanner.ScannerState.offset -->
<g id="node4" class="node">
<title>L4YAML.Scanner.ScannerState.offset</title>
<g id="a_node4"><a xlink:href="../../../api/L4YAML/Scanner.html#L4YAML.Scanner.ScannerState.offset" xlink:title="ScannerState.offset\n(def)" target="_blank">
<polygon fill="#dce9f7" stroke="#4a90d9" points="514.21,-409.75 411.21,-409.75 411.21,-373.75 514.21,-373.75 514.21,-409.75"/>
<text text-anchor="middle" x="462.71" y="-394.75" font-family="Helvetica" font-size="10.00">ScannerState.offset</text>
<text text-anchor="middle" x="462.71" y="-383.75" font-family="Helvetica" font-size="10.00">(def)</text>
</a>
</g>
</g>
<!-- L4YAML.Surface.SurfPos -->
<g id="node5" class="node">
<title>L4YAML.Surface.SurfPos</title>
<g id="a_node5"><a xlink:href="../../../api/L4YAML/Surface/Combinators.html#L4YAML.Surface.SurfPos" xlink:title="Surface.SurfPos\n(inductive)" target="_blank">
<polygon fill="#dce9f7" stroke="#4a90d9" points="793.47,-625.75 703.47,-625.75 703.47,-589.75 793.47,-589.75 793.47,-625.75"/>
<text text-anchor="middle" x="748.47" y="-610.75" font-family="Helvetica" font-size="10.00">Surface.SurfPos</text>
<text text-anchor="middle" x="748.47" y="-599.75" font-family="Helvetica" font-size="10.00">(inductive)</text>
</a>
</g>
</g>
<!-- L4YAML.Scanner.ScannerState.inputEnd -->
<g id="node6" class="node">
<title>L4YAML.Scanner.ScannerState.inputEnd</title>
<g id="a_node6"><a xlink:href="../../../api/L4YAML/Scanner.html#L4YAML.Scanner.ScannerState.inputEnd" xlink:title="ScannerState.inputEnd\n(def)" target="_blank">
<polygon fill="#dce9f7" stroke="#4a90d9" points="521.21,-463.75 404.21,-463.75 404.21,-427.75 521.21,-427.75 521.21,-463.75"/>
<text text-anchor="middle" x="462.71" y="-448.75" font-family="Helvetica" font-size="10.00">ScannerState.inputEnd</text>
<text text-anchor="middle" x="462.71" y="-437.75" font-family="Helvetica" font-size="10.00">(def)</text>
</a>
</g>
</g>
<!-- L4YAML.Surface.SurfPos.chars -->
<g id="node7" class="node">
<title>L4YAML.Surface.SurfPos.chars</title>
<g id="a_node7"><a xlink:href="../../../api/L4YAML/Surface/Combinators.html#L4YAML.Surface.SurfPos.chars" xlink:title="Surface.SurfPos.chars\n(def)" target="_blank">
<polygon fill="#dce9f7" stroke="#4a90d9" points="807.47,-571.75 689.47,-571.75 689.47,-535.75 807.47,-535.75 807.47,-571.75"/>
<text text-anchor="middle" x="748.47" y="-556.75" font-family="Helvetica" font-size="10.00">Surface.SurfPos.chars</text>
<text text-anchor="middle" x="748.47" y="-545.75" font-family="Helvetica" font-size="10.00">(def)</text>
</a>
</g>
</g>
<!-- L4YAML.Proofs.ScannerCoupling.peek_some_chars -->
<g id="node8" class="node">
<title>L4YAML.Proofs.ScannerCoupling.peek_some_chars</title>
<g id="a_node8"><a xlink:href="../../../api/L4YAML/Proofs/ScannerCoupling.html#L4YAML.Proofs.ScannerCoupling.peek_some_chars" xlink:title="ScannerCoupling.peek_some_chars" target="_blank">
<polygon fill="#fff3cd" stroke="#d4a017" points="603.74,-298.3 603.74,-313.21 521.13,-323.75 404.3,-323.75 321.69,-313.21 321.69,-298.3 404.3,-287.75 521.13,-287.75 603.74,-298.3"/>
<polygon fill="none" stroke="#d4a017" points="607.73,-294.77 607.73,-316.73 521.38,-327.75 404.05,-327.75 317.7,-316.73 317.7,-294.77 404.05,-283.75 521.38,-283.75 607.73,-294.77"/>
<text text-anchor="middle" x="462.71" y="-302.65" font-family="Helvetica" font-size="12.00">ScannerCoupling.peek_some_chars</text>
</a>
</g>
</g>
<!-- L4YAML.Proofs.ScannerCoupling.peek_some_chars&#45;&gt;L4YAML.Scanner.ScannerState.peek? -->
<g id="edge5" class="edge">
<title>L4YAML.Proofs.ScannerCoupling.peek_some_chars&#45;&gt;L4YAML.Scanner.ScannerState.peek?</title>
<path fill="none" stroke="#4a90d9" stroke-width="2" d="M496.75,-283.73C535.44,-260.93 600.64,-231.97 650.97,-257.75 695.57,-280.59 724.25,-334.71 737.96,-366.75"/>
<polygon fill="#4a90d9" stroke="#4a90d9" stroke-width="2" points="735.87,-368.09 740.82,-373.61 740.39,-366.21 735.87,-368.09"/>
<text text-anchor="middle" x="638.47" y="-260.35" font-family="Times-Roman" font-size="8.00" fill="#4a90d9">about</text>
</g>
<!-- L4YAML.Proofs.ScannerCoupling.peek_some_chars&#45;&gt;L4YAML.Scanner.ScannerState -->
<g id="edge3" class="edge">
<title>L4YAML.Proofs.ScannerCoupling.peek_some_chars&#45;&gt;L4YAML.Scanner.ScannerState</title>
<path fill="none" stroke="#4a90d9" stroke-width="2" d="M544.61,-324.79C569.27,-333.29 595.29,-345.23 615.97,-361.75 638.32,-379.6 638.78,-389.88 650.97,-415.75 662.3,-439.78 650.43,-453.73 668.97,-472.75 678.22,-482.24 690.96,-488.4 703.48,-492.39"/>
<polygon fill="#4a90d9" stroke="#4a90d9" stroke-width="2" points="702.99,-494.8 710.39,-494.4 704.35,-490.09 702.99,-494.8"/>
<text text-anchor="middle" x="638.47" y="-418.35" font-family="Times-Roman" font-size="8.00" fill="#4a90d9">about</text>
</g>
<!-- L4YAML.Proofs.ScannerCoupling.peek_some_chars&#45;&gt;L4YAML.Proofs.CouplingBridge.ScannerSurfCorr -->
<g id="edge2" class="edge">
<title>L4YAML.Proofs.ScannerCoupling.peek_some_chars&#45;&gt;L4YAML.Proofs.CouplingBridge.ScannerSurfCorr</title>
<path fill="none" stroke="#4a90d9" stroke-width="2" d="M554.14,-287.89C588.23,-286.39 625,-291.8 650.97,-314.75 686.12,-345.82 638.56,-383.04 668.97,-418.75 670.33,-420.35 671.79,-421.85 673.33,-423.26"/>
<polygon fill="#4a90d9" stroke="#4a90d9" stroke-width="2" points="671.87,-425.24 678.86,-427.73 674.95,-421.42 671.87,-425.24"/>
<text text-anchor="middle" x="638.47" y="-317.35" font-family="Times-Roman" font-size="8.00" fill="#4a90d9">about</text>
</g>
<!-- L4YAML.Proofs.ScannerCoupling.peek_some_chars&#45;&gt;L4YAML.Surface.SurfPos -->
<g id="edge4" class="edge">
<title>L4YAML.Proofs.ScannerCoupling.peek_some_chars&#45;&gt;L4YAML.Surface.SurfPos</title>
<path fill="none" stroke="#4a90d9" stroke-width="2" d="M560.09,-322.9C581.56,-331.2 602.05,-343.5 615.97,-361.75 631.8,-382.5 619.72,-453.42 625.97,-478.75 637.77,-526.51 633.03,-547.16 668.97,-580.75 676.75,-588.02 686.56,-593.34 696.6,-597.23"/>
<polygon fill="#4a90d9" stroke="#4a90d9" stroke-width="2" points="695.79,-599.54 703.21,-599.59 697.44,-594.93 695.79,-599.54"/>
<text text-anchor="middle" x="638.47" y="-562.35" font-family="Times-Roman" font-size="8.00" fill="#4a90d9">about</text>
</g>
<!-- L4YAML.Proofs.ScannerCoupling.peek_some_chars&#45;&gt;L4YAML.Surface.SurfPos.chars -->
<g id="edge1" class="edge">
<title>L4YAML.Proofs.ScannerCoupling.peek_some_chars&#45;&gt;L4YAML.Surface.SurfPos.chars</title>
<path fill="none" stroke="#4a90d9" stroke-width="2" d="M558,-323.17C579.91,-331.46 601.13,-343.69 615.97,-361.75 633.97,-383.66 616.72,-397.95 625.97,-424.75 633.43,-446.38 641.93,-448.74 650.97,-469.75 661.48,-494.15 650.43,-507.73 668.97,-526.75 673.09,-530.98 677.91,-534.55 683.08,-537.55"/>
<polygon fill="#4a90d9" stroke="#4a90d9" stroke-width="2" points="681.97,-539.74 689.31,-540.84 684.26,-535.4 681.97,-539.74"/>
<text text-anchor="middle" x="638.47" y="-472.35" font-family="Times-Roman" font-size="8.00" fill="#4a90d9">about</text>
</g>
<!-- L4YAML.Proofs.ScannerCoupling.peek_some_hasMore -->
<g id="node9" class="node">
<title>L4YAML.Proofs.ScannerCoupling.peek_some_hasMore</title>
<g id="a_node9"><a xlink:href="../../../api/L4YAML/Proofs/ScannerCoupling.html#L4YAML.Proofs.ScannerCoupling.peek_some_hasMore" xlink:title="ScannerCoupling.peek_some_hasMore\n(ScannerCoupling)" target="_blank">
<ellipse fill="#d4edda" stroke="#28a745" cx="148.23" cy="-271.75" rx="132.46" ry="21.43"/>
<text text-anchor="middle" x="148.23" y="-274.75" font-family="Helvetica" font-size="10.00">ScannerCoupling.peek_some_hasMore</text>
<text text-anchor="middle" x="148.23" y="-263.75" font-family="Helvetica" font-size="10.00">(ScannerCoupling)</text>
</a>
</g>
</g>
<!-- L4YAML.Proofs.ScannerCoupling.peek_some_hasMore&#45;&gt;L4YAML.Scanner.ScannerState.peek? -->
<g id="edge12" class="edge">
<title>L4YAML.Proofs.ScannerCoupling.peek_some_hasMore&#45;&gt;L4YAML.Scanner.ScannerState.peek?</title>
<path fill="none" stroke="#999999" stroke-dasharray="1,5" d="M225.43,-254.5C251.89,-249.31 281.84,-244.32 309.46,-241.75 460.6,-227.73 520.6,-167.01 650.97,-244.75 698.58,-273.14 727.2,-335.21 739.82,-368.9"/>
<polygon fill="#999999" stroke="#999999" points="738.2,-369.57 741.56,-373.66 741.48,-368.36 738.2,-369.57"/>
</g>
<!-- L4YAML.Proofs.ScannerCoupling.peek_some_hasMore&#45;&gt;L4YAML.Scanner.ScannerState -->
<g id="edge11" class="edge">
<title>L4YAML.Proofs.ScannerCoupling.peek_some_hasMore&#45;&gt;L4YAML.Scanner.ScannerState</title>
<path fill="none" stroke="#999999" stroke-dasharray="1,5" d="M240.93,-256.53C336.71,-244.12 490.21,-234.13 615.97,-271.75 633.8,-277.09 641.32,-278.84 650.97,-294.75 692.2,-362.74 619.59,-410.43 668.97,-472.75 677.9,-484.02 691.79,-490.61 705.42,-494.45"/>
<polygon fill="#999999" stroke="#999999" points="705.14,-496.18 710.42,-495.74 706.02,-492.79 705.14,-496.18"/>
</g>
<!-- L4YAML.Proofs.ScannerCoupling.peek_some_hasMore&#45;&gt;L4YAML.Scanner.ScannerState.offset -->
<g id="edge9" class="edge">
<title>L4YAML.Proofs.ScannerCoupling.peek_some_hasMore&#45;&gt;L4YAML.Scanner.ScannerState.offset</title>
<path fill="none" stroke="#999999" stroke-dasharray="1,5" d="M179.14,-292.4C210.31,-312.97 261.26,-343.99 309.46,-361.75 340.4,-373.16 376.57,-380.52 405.89,-385.09"/>
<polygon fill="#999999" stroke="#999999" points="405.7,-386.83 410.9,-385.86 406.23,-383.37 405.7,-386.83"/>
</g>
<!-- L4YAML.Proofs.ScannerCoupling.peek_some_hasMore&#45;&gt;L4YAML.Scanner.ScannerState.inputEnd -->
<g id="edge10" class="edge">
<title>L4YAML.Proofs.ScannerCoupling.peek_some_hasMore&#45;&gt;L4YAML.Scanner.ScannerState.inputEnd</title>
<path fill="none" stroke="#999999" stroke-dasharray="1,5" d="M182.04,-292.3C212.31,-312.41 257.16,-345.28 288.46,-381.75 300.77,-396.1 294.01,-407.84 309.46,-418.75 335.26,-436.98 369.52,-444.16 399.01,-446.59"/>
<polygon fill="#999999" stroke="#999999" points="398.96,-448.34 404.07,-446.96 399.22,-444.85 398.96,-448.34"/>
</g>
<!-- L4YAML.Proofs.ScannerCoupling.peek_some_hasMore&#45;&gt;L4YAML.Proofs.ScannerCoupling.peek_some_chars -->
<g id="edge7" class="edge">
<title>L4YAML.Proofs.ScannerCoupling.peek_some_hasMore&#45;&gt;L4YAML.Proofs.ScannerCoupling.peek_some_chars</title>
<path fill="none" stroke="#28a745" d="M258.08,-283.6C281.41,-286.13 306.29,-288.84 330.36,-291.46"/>
<polygon fill="#28a745" stroke="#28a745" points="330.24,-293.91 337.47,-292.23 330.77,-289.04 330.24,-293.91"/>
</g>
<!-- L4YAML.Proofs.CouplingBridge.peek_corr -->
<g id="node10" class="node">
<title>L4YAML.Proofs.CouplingBridge.peek_corr</title>
<g id="a_node10"><a xlink:href="../../../api/L4YAML/Proofs/CouplingBridge.html#L4YAML.Proofs.CouplingBridge.peek_corr" xlink:title="CouplingBridge.peek_corr\n(CouplingBridge)" target="_blank">
<ellipse fill="#d4edda" stroke="#28a745" cx="148.23" cy="-211.75" rx="90.52" ry="21.43"/>
<text text-anchor="middle" x="148.23" y="-214.75" font-family="Helvetica" font-size="10.00">CouplingBridge.peek_corr</text>
<text text-anchor="middle" x="148.23" y="-203.75" font-family="Helvetica" font-size="10.00">(CouplingBridge)</text>
</a>
</g>
</g>
<!-- L4YAML.Proofs.CouplingBridge.peek_corr&#45;&gt;L4YAML.Scanner.ScannerState.peek? -->
<g id="edge19" class="edge">
<title>L4YAML.Proofs.CouplingBridge.peek_corr&#45;&gt;L4YAML.Scanner.ScannerState.peek?</title>
<path fill="none" stroke="#999999" stroke-dasharray="1,5" d="M161.01,-190.49C182.66,-153.94 232.62,-80.38 298.46,-51.75 427.87,4.51 499.57,28.03 615.97,-51.75 724.63,-126.23 743.53,-304.37 746.8,-368.36"/>
<polygon fill="#999999" stroke="#999999" points="745.05,-368.57 747.04,-373.48 748.55,-368.41 745.05,-368.57"/>
</g>
<!-- L4YAML.Proofs.CouplingBridge.peek_corr&#45;&gt;L4YAML.Scanner.ScannerState -->
<g id="edge17" class="edge">
<title>L4YAML.Proofs.CouplingBridge.peek_corr&#45;&gt;L4YAML.Scanner.ScannerState</title>
<path fill="none" stroke="#999999" stroke-dasharray="1,5" d="M186.25,-192.47C272.21,-150.67 487.74,-63.4 615.97,-165.75 631.65,-178.26 619.93,-190.63 625.97,-209.75 634.8,-237.69 644.04,-242.29 650.97,-270.75 661.64,-314.54 641.19,-437.27 668.97,-472.75 677.83,-484.07 691.71,-490.67 705.34,-494.51"/>
<polygon fill="#999999" stroke="#999999" points="705.07,-496.24 710.35,-495.8 705.94,-492.85 705.07,-496.24"/>
</g>
<!-- L4YAML.Proofs.CouplingBridge.peek_corr&#45;&gt;L4YAML.Proofs.CouplingBridge.ScannerSurfCorr -->
<g id="edge14" class="edge">
<title>L4YAML.Proofs.CouplingBridge.peek_corr&#45;&gt;L4YAML.Proofs.CouplingBridge.ScannerSurfCorr</title>
<path fill="none" stroke="#999999" stroke-dasharray="1,5" d="M166.3,-190.74C191.56,-161.51 242.04,-109.88 298.46,-89.75 364.91,-66.04 560.86,-45.7 615.97,-89.75 671.14,-133.85 639.54,-175.06 650.97,-244.75 657.26,-283.11 644.79,-388.31 668.97,-418.75 670.57,-420.76 672.32,-422.62 674.21,-424.35"/>
<polygon fill="#999999" stroke="#999999" points="673.28,-425.85 678.24,-427.69 675.51,-423.15 673.28,-425.85"/>
</g>
<!-- L4YAML.Proofs.CouplingBridge.peek_corr&#45;&gt;L4YAML.Scanner.ScannerState.offset -->
<g id="edge15" class="edge">
<title>L4YAML.Proofs.CouplingBridge.peek_corr&#45;&gt;L4YAML.Scanner.ScannerState.offset</title>
<path fill="none" stroke="#999999" stroke-dasharray="1,5" d="M237.81,-214.84C256.71,-219.53 275,-227.76 288.46,-241.75 307.22,-261.26 290.52,-342.41 309.46,-361.75 334.15,-386.97 373.43,-394.24 405.92,-395.32"/>
<polygon fill="#999999" stroke="#999999" points="406.03,-397.07 411.07,-395.44 406.11,-393.57 406.03,-397.07"/>
</g>
<!-- L4YAML.Proofs.CouplingBridge.peek_corr&#45;&gt;L4YAML.Surface.SurfPos -->
<g id="edge18" class="edge">
<title>L4YAML.Proofs.CouplingBridge.peek_corr&#45;&gt;L4YAML.Surface.SurfPos</title>
<path fill="none" stroke="#999999" stroke-dasharray="1,5" d="M238.82,-210.68C359.43,-211.28 564.83,-220.13 615.97,-271.75 629.2,-285.11 621.45,-337.51 625.97,-355.75 633.41,-385.8 643.63,-390.68 650.97,-420.75 659.46,-455.51 646.59,-552.84 668.97,-580.75 676.39,-590 687.14,-596.09 698.32,-600.1"/>
<polygon fill="#999999" stroke="#999999" points="697.83,-601.79 703.13,-601.7 698.94,-598.46 697.83,-601.79"/>
</g>
<!-- L4YAML.Proofs.CouplingBridge.peek_corr&#45;&gt;L4YAML.Scanner.ScannerState.inputEnd -->
<g id="edge16" class="edge">
<title>L4YAML.Proofs.CouplingBridge.peek_corr&#45;&gt;L4YAML.Scanner.ScannerState.inputEnd</title>
<path fill="none" stroke="#999999" stroke-dasharray="1,5" d="M238.37,-214.32C257.25,-219.02 275.39,-227.4 288.46,-241.75 301.79,-256.4 295.86,-404.35 309.46,-418.75 331.93,-442.56 367.54,-449.81 398.68,-450.88"/>
<polygon fill="#999999" stroke="#999999" points="398.99,-452.64 404.03,-451 399.07,-449.14 398.99,-452.64"/>
</g>
<!-- L4YAML.Proofs.CouplingBridge.peek_corr&#45;&gt;L4YAML.Surface.SurfPos.chars -->
<g id="edge13" class="edge">
<title>L4YAML.Proofs.CouplingBridge.peek_corr&#45;&gt;L4YAML.Surface.SurfPos.chars</title>
<path fill="none" stroke="#999999" stroke-dasharray="1,5" d="M220.97,-199.08C337.42,-180.33 560.21,-152.59 615.97,-203.75 631.61,-218.1 621.16,-278.08 625.97,-298.75 633.27,-330.12 643.56,-335.42 650.97,-366.75 659.2,-401.57 646.59,-498.84 668.97,-526.75 673.28,-532.13 678.72,-536.44 684.72,-539.89"/>
<polygon fill="#999999" stroke="#999999" points="684.16,-541.58 689.4,-542.37 685.8,-538.49 684.16,-541.58"/>
</g>
<!-- L4YAML.Proofs.CouplingBridge.peek_corr&#45;&gt;L4YAML.Proofs.ScannerCoupling.peek_some_chars -->
<g id="edge6" class="edge">
<title>L4YAML.Proofs.CouplingBridge.peek_corr&#45;&gt;L4YAML.Proofs.ScannerCoupling.peek_some_chars</title>
<path fill="none" stroke="#28a745" d="M219.47,-224.87C241.7,-229.55 266.26,-235.3 288.46,-241.75 326.55,-252.83 368.28,-268.15 401.24,-281.02"/>
<polygon fill="#28a745" stroke="#28a745" points="400.73,-283.45 408.14,-283.72 402.52,-278.89 400.73,-283.45"/>
</g>
<!-- Option.some.inj -->
<g id="node11" class="node">
<title>Option.some.inj</title>
<g id="a_node11"><a xlink:href="../../../api/Init/Core.html#Option.some.inj" xlink:title="Option.some.inj" target="_blank">
<ellipse fill="#fdebd0" stroke="#e67e22" cx="148.23" cy="-411.75" rx="50.07" ry="18"/>
<text text-anchor="middle" x="148.23" y="-409.25" font-family="Helvetica" font-size="10.00">Option.some.inj</text>
</a>
</g>
</g>
<!-- Option.some.inj&#45;&gt;L4YAML.Proofs.ScannerCoupling.peek_some_chars -->
<g id="edge8" class="edge">
<title>Option.some.inj&#45;&gt;L4YAML.Proofs.ScannerCoupling.peek_some_chars</title>
<path fill="none" stroke="#e67e22" stroke-width="2" d="M185.38,-399.49C235.68,-382.43 327.8,-351.18 391.78,-329.48"/>
<polygon fill="#e67e22" stroke="#e67e22" stroke-width="2" points="392.81,-331.71 398.65,-327.14 391.24,-327.07 392.81,-331.71"/>
</g>
</g>
</svg>
