<?xml version="1.0" encoding="UTF-8" standalone="no"?>
<!DOCTYPE svg PUBLIC "-//W3C//DTD SVG 1.1//EN"
 "http://www.w3.org/Graphics/SVG/1.1/DTD/svg11.dtd">
<!-- Generated by graphviz version 2.44.0 (0)
 -->
<!-- Title: ScannerCorrectness.skipToEndOfLine_preserves_tokens Pages: 1 -->
<svg width="1004pt" height="723pt"
 viewBox="0.00 0.00 1004.46 722.93" xmlns="http://www.w3.org/2000/svg" xmlns:xlink="http://www.w3.org/1999/xlink">
<g id="graph0" class="graph" transform="scale(1 1) rotate(0) translate(4 718.93)">
<title>ScannerCorrectness.skipToEndOfLine_preserves_tokens</title>
<polygon fill="white" stroke="transparent" points="-4,4 -4,-718.93 1000.46,-718.93 1000.46,4 -4,4"/>
<text text-anchor="middle" x="498.23" y="-700.53" font-family="Helvetica Bold" font-size="13.00">ScannerCorrectness.skipToEndOfLine_preserves_tokens</text>
<text text-anchor="middle" x="498.23" y="-686.53" font-family="Helvetica Bold" font-size="13.00">(heuristic: used by 5 proofs)</text>
<text text-anchor="middle" x="498.23" y="-672.53" font-family="Helvetica Bold" font-size="13.00">(L4YAML.Proofs.ScannerCorrectness)</text>
<g id="clust1" class="cluster">
<title>cluster_functions</title>
<polygon fill="none" stroke="#4a90d9" stroke-dasharray="5,2" points="497.24,-312.93 497.24,-656.93 988.46,-656.93 988.46,-312.93 497.24,-312.93"/>
<text text-anchor="middle" x="742.85" y="-642.53" font-family="Helvetica Bold" font-size="13.00" fill="#4a90d9">Functions</text>
</g>
<g id="clust2" class="cluster">
<title>cluster_key</title>
<polygon fill="none" stroke="#d4a017" stroke-dasharray="5,2" points="366.03,-192.93 366.03,-274.93 820.46,-274.93 820.46,-192.93 366.03,-192.93"/>
<text text-anchor="middle" x="593.24" y="-260.53" font-family="Helvetica Bold" font-size="13.00" fill="#d4a017">Key Theorem</text>
</g>
<g id="clust3" class="cluster">
<title>cluster_proofs</title>
<polygon fill="none" stroke="#28a745" stroke-dasharray="5,2" points="8,-220.93 8,-360.93 345.03,-360.93 345.03,-220.93 8,-220.93"/>
<text text-anchor="middle" x="176.51" y="-346.53" font-family="Helvetica Bold" font-size="13.00" fill="#28a745">Proof Dependencies</text>
</g>
<!-- L4YAML.CharPredicates.isLineBreakBool -->
<g id="node1" class="node">
<title>L4YAML.CharPredicates.isLineBreakBool</title>
<polygon fill="#dce9f7" stroke="#4a90d9" points="672.24,-464.93 514.24,-464.93 514.24,-428.93 672.24,-428.93 672.24,-464.93"/>
<text text-anchor="middle" x="593.24" y="-449.93" font-family="Helvetica" font-size="10.00">CharPredicates.isLineBreakBool</text>
<text text-anchor="middle" x="593.24" y="-438.93" font-family="Helvetica" font-size="10.00">(def)</text>
</g>
<!-- L4YAML.Positioned -->
<g id="node2" class="node">
<title>L4YAML.Positioned</title>
<polygon fill="#dce9f7" stroke="#4a90d9" points="957.96,-464.93 895.96,-464.93 895.96,-428.93 957.96,-428.93 957.96,-464.93"/>
<text text-anchor="middle" x="926.96" y="-449.93" font-family="Helvetica" font-size="10.00">Positioned</text>
<text text-anchor="middle" x="926.96" y="-438.93" font-family="Helvetica" font-size="10.00">(inductive)</text>
</g>
<!-- L4YAML.Scanner.ScannerState.advance -->
<g id="node3" class="node">
<title>L4YAML.Scanner.ScannerState.advance</title>
<polygon fill="#dce9f7" stroke="#4a90d9" points="650.74,-356.93 535.74,-356.93 535.74,-320.93 650.74,-320.93 650.74,-356.93"/>
<text text-anchor="middle" x="593.24" y="-341.93" font-family="Helvetica" font-size="10.00">ScannerState.advance</text>
<text text-anchor="middle" x="593.24" y="-330.93" font-family="Helvetica" font-size="10.00">(def)</text>
</g>
<!-- L4YAML.Scanner.ScannerState.peek? -->
<g id="node4" class="node">
<title>L4YAML.Scanner.ScannerState.peek?</title>
<polygon fill="#dce9f7" stroke="#4a90d9" points="645.24,-410.93 541.24,-410.93 541.24,-374.93 645.24,-374.93 645.24,-410.93"/>
<text text-anchor="middle" x="593.24" y="-395.93" font-family="Helvetica" font-size="10.00">ScannerState.peek?</text>
<text text-anchor="middle" x="593.24" y="-384.93" font-family="Helvetica" font-size="10.00">(def)</text>
</g>
<!-- L4YAML.Scanner.skipWhitespaceLoop.match_1 -->
<g id="node5" class="node">
<title>L4YAML.Scanner.skipWhitespaceLoop.match_1</title>
<polygon fill="#dce9f7" stroke="#4a90d9" points="667.24,-626.93 519.24,-626.93 519.24,-590.93 667.24,-590.93 667.24,-626.93"/>
<text text-anchor="middle" x="593.24" y="-611.93" font-family="Helvetica" font-size="10.00">skipWhitespaceLoop.match_1</text>
<text text-anchor="middle" x="593.24" y="-600.93" font-family="Helvetica" font-size="10.00">(def)</text>
</g>
<!-- L4YAML.Scanner.ScannerState -->
<g id="node6" class="node">
<title>L4YAML.Scanner.ScannerState</title>
<polygon fill="#dce9f7" stroke="#4a90d9" points="964.96,-572.93 888.96,-572.93 888.96,-536.93 964.96,-536.93 964.96,-572.93"/>
<text text-anchor="middle" x="926.96" y="-557.93" font-family="Helvetica" font-size="10.00">ScannerState</text>
<text text-anchor="middle" x="926.96" y="-546.93" font-family="Helvetica" font-size="10.00">(inductive)</text>
</g>
<!-- L4YAML.YamlToken -->
<g id="node7" class="node">
<title>L4YAML.YamlToken</title>
<polygon fill="#dce9f7" stroke="#4a90d9" points="958.96,-410.93 894.96,-410.93 894.96,-374.93 958.96,-374.93 958.96,-410.93"/>
<text text-anchor="middle" x="926.96" y="-395.93" font-family="Helvetica" font-size="10.00">YamlToken</text>
<text text-anchor="middle" x="926.96" y="-384.93" font-family="Helvetica" font-size="10.00">(inductive)</text>
</g>
<!-- L4YAML.Scanner.ScannerState.peekAt?Loop.match_1 -->
<g id="node8" class="node">
<title>L4YAML.Scanner.ScannerState.peekAt?Loop.match_1</title>
<polygon fill="#dce9f7" stroke="#4a90d9" points="681.24,-572.93 505.24,-572.93 505.24,-536.93 681.24,-536.93 681.24,-572.93"/>
<text text-anchor="middle" x="593.24" y="-557.93" font-family="Helvetica" font-size="10.00">ScannerState.peekAt?Loop.match_1</text>
<text text-anchor="middle" x="593.24" y="-546.93" font-family="Helvetica" font-size="10.00">(def)</text>
</g>
<!-- L4YAML.Scanner.skipToEndOfLine -->
<g id="node9" class="node">
<title>L4YAML.Scanner.skipToEndOfLine</title>
<polygon fill="#dce9f7" stroke="#4a90d9" points="972.46,-518.93 881.46,-518.93 881.46,-482.93 972.46,-482.93 972.46,-518.93"/>
<text text-anchor="middle" x="926.96" y="-503.93" font-family="Helvetica" font-size="10.00">skipToEndOfLine</text>
<text text-anchor="middle" x="926.96" y="-492.93" font-family="Helvetica" font-size="10.00">(def)</text>
</g>
<!-- L4YAML.Scanner.skipToEndOfLineLoop -->
<g id="node10" class="node">
<title>L4YAML.Scanner.skipToEndOfLineLoop</title>
<polygon fill="#dce9f7" stroke="#4a90d9" points="649.24,-518.93 537.24,-518.93 537.24,-482.93 649.24,-482.93 649.24,-518.93"/>
<text text-anchor="middle" x="593.24" y="-503.93" font-family="Helvetica" font-size="10.00">skipToEndOfLineLoop</text>
<text text-anchor="middle" x="593.24" y="-492.93" font-family="Helvetica" font-size="10.00">(def)</text>
</g>
<!-- L4YAML.Scanner.ScannerState.tokens -->
<g id="node11" class="node">
<title>L4YAML.Scanner.ScannerState.tokens</title>
<polygon fill="#dce9f7" stroke="#4a90d9" points="980.46,-356.93 873.46,-356.93 873.46,-320.93 980.46,-320.93 980.46,-356.93"/>
<text text-anchor="middle" x="926.96" y="-341.93" font-family="Helvetica" font-size="10.00">ScannerState.tokens</text>
<text text-anchor="middle" x="926.96" y="-330.93" font-family="Helvetica" font-size="10.00">(def)</text>
</g>
<!-- L4YAML.Proofs.ScannerCorrectness.skipToEndOfLine_preserves_tokens -->
<g id="node12" class="node">
<title>L4YAML.Proofs.ScannerCorrectness.skipToEndOfLine_preserves_tokens</title>
<polygon fill="#fff3cd" stroke="#d4a017" points="808.67,-215.48 808.67,-230.39 682.48,-240.93 504.01,-240.93 377.81,-230.39 377.81,-215.48 504.01,-204.93 682.48,-204.93 808.67,-215.48"/>
<polygon fill="none" stroke="#d4a017" points="812.68,-211.8 812.68,-234.07 682.64,-244.93 503.84,-244.93 373.81,-234.07 373.81,-211.8 503.84,-200.93 682.64,-200.93 812.68,-211.8"/>
<text text-anchor="middle" x="593.24" y="-219.83" font-family="Helvetica" font-size="12.00">ScannerCorrectness.skipToEndOfLine_preserves_tokens</text>
</g>
<!-- L4YAML.Proofs.ScannerCorrectness.skipToEndOfLine_preserves_tokens&#45;&gt;L4YAML.Positioned -->
<g id="edge3" class="edge">
<title>L4YAML.Proofs.ScannerCorrectness.skipToEndOfLine_preserves_tokens&#45;&gt;L4YAML.Positioned</title>
<path fill="none" stroke="#4a90d9" stroke-width="2" d="M792.17,-235.81C816.06,-244.95 838.09,-258.14 855.46,-276.93 898.94,-323.97 836.74,-367.45 873.46,-419.93 877.56,-425.79 883.32,-430.46 889.54,-434.16"/>
<polygon fill="#4a90d9" stroke="#4a90d9" stroke-width="2" points="888.53,-436.4 895.86,-437.53 890.84,-432.07 888.53,-436.4"/>
<text text-anchor="middle" x="842.96" y="-279.53" font-family="Times-Roman" font-size="8.00" fill="#4a90d9">about</text>
</g>
<!-- L4YAML.Proofs.ScannerCorrectness.skipToEndOfLine_preserves_tokens&#45;&gt;L4YAML.Scanner.ScannerState -->
<g id="edge5" class="edge">
<title>L4YAML.Proofs.ScannerCorrectness.skipToEndOfLine_preserves_tokens&#45;&gt;L4YAML.Scanner.ScannerState</title>
<path fill="none" stroke="#4a90d9" stroke-width="2" d="M716.29,-242.21C751.15,-250.59 788.36,-262.4 820.46,-278.93 825.01,-281.28 853.13,-304.37 855.46,-308.93 877.67,-352.42 846.34,-487.33 873.46,-527.93 876,-531.74 879.25,-535.04 882.89,-537.89"/>
<polygon fill="#4a90d9" stroke="#4a90d9" stroke-width="2" points="881.72,-540.06 888.87,-542.01 884.5,-536.02 881.72,-540.06"/>
<text text-anchor="middle" x="842.96" y="-311.53" font-family="Times-Roman" font-size="8.00" fill="#4a90d9">about</text>
</g>
<!-- L4YAML.Proofs.ScannerCorrectness.skipToEndOfLine_preserves_tokens&#45;&gt;L4YAML.YamlToken -->
<g id="edge4" class="edge">
<title>L4YAML.Proofs.ScannerCorrectness.skipToEndOfLine_preserves_tokens&#45;&gt;L4YAML.YamlToken</title>
<path fill="none" stroke="#4a90d9" stroke-width="2" d="M633.49,-200.91C690.04,-172.44 794.36,-132.7 855.46,-187.93 884.95,-214.59 851.07,-333.08 873.46,-365.93 877.28,-371.53 882.62,-376.04 888.45,-379.64"/>
<polygon fill="#4a90d9" stroke="#4a90d9" stroke-width="2" points="887.61,-381.98 894.92,-383.21 889.97,-377.69 887.61,-381.98"/>
<text text-anchor="middle" x="842.96" y="-190.53" font-family="Times-Roman" font-size="8.00" fill="#4a90d9">about</text>
</g>
<!-- L4YAML.Proofs.ScannerCorrectness.skipToEndOfLine_preserves_tokens&#45;&gt;L4YAML.Scanner.skipToEndOfLine -->
<g id="edge2" class="edge">
<title>L4YAML.Proofs.ScannerCorrectness.skipToEndOfLine_preserves_tokens&#45;&gt;L4YAML.Scanner.skipToEndOfLine</title>
<path fill="none" stroke="#4a90d9" stroke-width="2" d="M700.87,-202.41C754.4,-198.64 816.07,-205.32 855.46,-244.93 891.45,-281.13 845.18,-431.44 873.46,-473.93 874.27,-475.15 875.15,-476.31 876.09,-477.43"/>
<polygon fill="#4a90d9" stroke="#4a90d9" stroke-width="2" points="874.59,-479.39 881.28,-482.6 878.05,-475.92 874.59,-479.39"/>
<text text-anchor="middle" x="842.96" y="-247.53" font-family="Times-Roman" font-size="8.00" fill="#4a90d9">about</text>
</g>
<!-- L4YAML.Proofs.ScannerCorrectness.skipToEndOfLine_preserves_tokens&#45;&gt;L4YAML.Scanner.ScannerState.tokens -->
<g id="edge1" class="edge">
<title>L4YAML.Proofs.ScannerCorrectness.skipToEndOfLine_preserves_tokens&#45;&gt;L4YAML.Scanner.ScannerState.tokens</title>
<path fill="none" stroke="#4a90d9" stroke-width="2" d="M618.32,-200.77C667.01,-158.7 779.07,-76.16 855.46,-130.93 914.61,-173.34 924.75,-268.14 926.08,-313.63"/>
<polygon fill="#4a90d9" stroke="#4a90d9" stroke-width="2" points="923.63,-313.81 926.23,-320.75 928.53,-313.7 923.63,-313.81"/>
<text text-anchor="middle" x="842.96" y="-133.53" font-family="Times-Roman" font-size="8.00" fill="#4a90d9">about</text>
</g>
<!-- L4YAML.Scanner.skipToEndOfLineLoop.eq_def -->
<g id="node13" class="node">
<title>L4YAML.Scanner.skipToEndOfLineLoop.eq_def</title>
<ellipse fill="#d4edda" stroke="#28a745" cx="176.51" cy="-309.93" rx="101.65" ry="21.43"/>
<text text-anchor="middle" x="176.51" y="-312.93" font-family="Helvetica" font-size="10.00">skipToEndOfLineLoop.eq_def</text>
<text text-anchor="middle" x="176.51" y="-301.93" font-family="Helvetica" font-size="10.00">(Scanner)</text>
</g>
<!-- L4YAML.Scanner.skipToEndOfLineLoop.eq_def&#45;&gt;L4YAML.CharPredicates.isLineBreakBool -->
<g id="edge10" class="edge">
<title>L4YAML.Scanner.skipToEndOfLineLoop.eq_def&#45;&gt;L4YAML.CharPredicates.isLineBreakBool</title>
<path fill="none" stroke="#999999" stroke-dasharray="1,5" d="M204.51,-330.55C239.63,-356.19 303.87,-399.1 366.03,-419.93 411.79,-435.28 465.33,-442.13 508.84,-445.1"/>
<polygon fill="#999999" stroke="#999999" points="508.99,-446.86 514.09,-445.44 509.21,-443.37 508.99,-446.86"/>
</g>
<!-- L4YAML.Scanner.skipToEndOfLineLoop.eq_def&#45;&gt;L4YAML.Scanner.ScannerState.advance -->
<g id="edge8" class="edge">
<title>L4YAML.Scanner.skipToEndOfLineLoop.eq_def&#45;&gt;L4YAML.Scanner.ScannerState.advance</title>
<path fill="none" stroke="#999999" stroke-dasharray="1,5" d="M273.18,-316.62C352.33,-322.16 462.43,-329.86 530.43,-334.61"/>
<polygon fill="#999999" stroke="#999999" points="530.54,-336.37 535.65,-334.98 530.79,-332.88 530.54,-336.37"/>
</g>
<!-- L4YAML.Scanner.skipToEndOfLineLoop.eq_def&#45;&gt;L4YAML.Scanner.ScannerState.peek? -->
<g id="edge14" class="edge">
<title>L4YAML.Scanner.skipToEndOfLineLoop.eq_def&#45;&gt;L4YAML.Scanner.ScannerState.peek?</title>
<path fill="none" stroke="#999999" stroke-dasharray="1,5" d="M229.72,-328.05C267.23,-340.42 319.22,-356.26 366.03,-365.93 423.28,-377.76 489.83,-384.93 535.85,-388.88"/>
<polygon fill="#999999" stroke="#999999" points="535.95,-390.65 541.08,-389.32 536.25,-387.16 535.95,-390.65"/>
</g>
<!-- L4YAML.Scanner.skipToEndOfLineLoop.eq_def&#45;&gt;L4YAML.Scanner.skipWhitespaceLoop.match_1 -->
<g id="edge13" class="edge">
<title>L4YAML.Scanner.skipToEndOfLineLoop.eq_def&#45;&gt;L4YAML.Scanner.skipWhitespaceLoop.match_1</title>
<path fill="none" stroke="#999999" stroke-dasharray="1,5" d="M185.11,-331.17C205.23,-383.99 265.36,-521.35 366.03,-581.93 410.08,-608.45 467.72,-615 513.79,-615.02"/>
<polygon fill="#999999" stroke="#999999" points="514.07,-616.77 519.07,-614.99 514.06,-613.27 514.07,-616.77"/>
</g>
<!-- L4YAML.Scanner.skipToEndOfLineLoop.eq_def&#45;&gt;L4YAML.Scanner.ScannerState -->
<g id="edge11" class="edge">
<title>L4YAML.Scanner.skipToEndOfLineLoop.eq_def&#45;&gt;L4YAML.Scanner.ScannerState</title>
<path fill="none" stroke="#999999" stroke-dasharray="1,5" d="M274.04,-303.8C443.05,-294.01 778.68,-279.06 820.46,-311.93 898.14,-373.06 812.22,-450.34 873.46,-527.93 876.56,-531.86 880.38,-535.26 884.53,-538.21"/>
<polygon fill="#999999" stroke="#999999" points="883.65,-539.72 888.79,-541 885.57,-536.8 883.65,-539.72"/>
</g>
<!-- L4YAML.Scanner.skipToEndOfLineLoop.eq_def&#45;&gt;L4YAML.Scanner.ScannerState.peekAt?Loop.match_1 -->
<g id="edge9" class="edge">
<title>L4YAML.Scanner.skipToEndOfLineLoop.eq_def&#45;&gt;L4YAML.Scanner.ScannerState.peekAt?Loop.match_1</title>
<path fill="none" stroke="#999999" stroke-dasharray="1,5" d="M188.69,-331.28C213.61,-376.47 278.53,-481.46 366.03,-527.93 406.64,-549.51 457.03,-557.06 499.93,-558.87"/>
<polygon fill="#999999" stroke="#999999" points="500.07,-560.62 505.13,-559.06 500.2,-557.12 500.07,-560.62"/>
</g>
<!-- L4YAML.Scanner.skipToEndOfLineLoop.eq_def&#45;&gt;L4YAML.Scanner.skipToEndOfLineLoop -->
<g id="edge12" class="edge">
<title>L4YAML.Scanner.skipToEndOfLineLoop.eq_def&#45;&gt;L4YAML.Scanner.skipToEndOfLineLoop</title>
<path fill="none" stroke="#999999" stroke-dasharray="1,5" d="M194.09,-330.92C224.04,-367.15 291.08,-440.7 366.03,-473.93 418.7,-497.29 484.69,-502.81 531.78,-503.23"/>
<polygon fill="#999999" stroke="#999999" points="531.84,-504.98 536.85,-503.25 531.86,-501.48 531.84,-504.98"/>
</g>
<!-- L4YAML.Scanner.skipToEndOfLineLoop.eq_def&#45;&gt;L4YAML.Proofs.ScannerCorrectness.skipToEndOfLine_preserves_tokens -->
<g id="edge7" class="edge">
<title>L4YAML.Scanner.skipToEndOfLineLoop.eq_def&#45;&gt;L4YAML.Proofs.ScannerCorrectness.skipToEndOfLine_preserves_tokens</title>
<path fill="none" stroke="#28a745" d="M256.07,-296.69C284.19,-291.73 316.08,-285.86 345.03,-279.93 394.69,-269.77 449.67,-257.22 495.14,-246.49"/>
<polygon fill="#28a745" stroke="#28a745" points="495.82,-248.85 502.06,-244.85 494.69,-244.08 495.82,-248.85"/>
</g>
<!-- L4YAML.Proofs.ScannerCorrectness.advance_preserves_tokens -->
<g id="node14" class="node">
<title>L4YAML.Proofs.ScannerCorrectness.advance_preserves_tokens</title>
<ellipse fill="#d4edda" stroke="#28a745" cx="176.51" cy="-249.93" rx="160.53" ry="21.43"/>
<text text-anchor="middle" x="176.51" y="-252.93" font-family="Helvetica" font-size="10.00">ScannerCorrectness.advance_preserves_tokens</text>
<text text-anchor="middle" x="176.51" y="-241.93" font-family="Helvetica" font-size="10.00">(ScannerCorrectness)</text>
</g>
<!-- L4YAML.Proofs.ScannerCorrectness.advance_preserves_tokens&#45;&gt;L4YAML.Positioned -->
<g id="edge17" class="edge">
<title>L4YAML.Proofs.ScannerCorrectness.advance_preserves_tokens&#45;&gt;L4YAML.Positioned</title>
<path fill="none" stroke="#999999" stroke-dasharray="1,5" d="M207.19,-229.1C241.09,-206.68 299.14,-172.42 355.03,-158.93 455.57,-134.66 731.49,-106.19 820.46,-158.93 827.43,-163.07 853.1,-215.18 855.46,-222.93 868.27,-264.99 848.88,-383.49 873.46,-419.93 877.79,-426.35 884.14,-431.34 890.94,-435.17"/>
<polygon fill="#999999" stroke="#999999" points="890.45,-436.89 895.7,-437.65 892.07,-433.79 890.45,-436.89"/>
</g>
<!-- L4YAML.Proofs.ScannerCorrectness.advance_preserves_tokens&#45;&gt;L4YAML.Scanner.ScannerState.advance -->
<g id="edge16" class="edge">
<title>L4YAML.Proofs.ScannerCorrectness.advance_preserves_tokens&#45;&gt;L4YAML.Scanner.ScannerState.advance</title>
<path fill="none" stroke="#999999" stroke-dasharray="1,5" d="M276.02,-266.61C298.73,-270.72 322.76,-275.29 345.03,-279.93 408.5,-293.18 480.57,-310.66 530.44,-323.15"/>
<polygon fill="#999999" stroke="#999999" points="530.22,-324.9 535.5,-324.42 531.08,-321.5 530.22,-324.9"/>
</g>
<!-- L4YAML.Proofs.ScannerCorrectness.advance_preserves_tokens&#45;&gt;L4YAML.Scanner.ScannerState -->
<g id="edge19" class="edge">
<title>L4YAML.Proofs.ScannerCorrectness.advance_preserves_tokens&#45;&gt;L4YAML.Scanner.ScannerState</title>
<path fill="none" stroke="#999999" stroke-dasharray="1,5" d="M225.7,-229.71C263.19,-215.12 316.93,-196.68 366.03,-188.93 415.9,-181.07 780.66,-157.86 820.46,-188.93 834.9,-200.21 821.89,-212.74 830.46,-228.93 838.27,-243.68 849,-241.55 855.46,-256.93 878.83,-312.58 840.33,-477.48 873.46,-527.93 876.33,-532.3 880.14,-536 884.4,-539.13"/>
<polygon fill="#999999" stroke="#999999" points="883.67,-540.74 888.79,-542.06 885.61,-537.83 883.67,-540.74"/>
</g>
<!-- L4YAML.Proofs.ScannerCorrectness.advance_preserves_tokens&#45;&gt;L4YAML.YamlToken -->
<g id="edge18" class="edge">
<title>L4YAML.Proofs.ScannerCorrectness.advance_preserves_tokens&#45;&gt;L4YAML.YamlToken</title>
<path fill="none" stroke="#999999" stroke-dasharray="1,5" d="M197.44,-228.78C227.93,-198.11 289.56,-142.59 355.03,-120.93 460.61,-86.01 774.05,-40.17 855.46,-115.93 896.24,-153.88 842.76,-319.46 873.46,-365.93 877.59,-372.19 883.65,-377.07 890.19,-380.86"/>
<polygon fill="#999999" stroke="#999999" points="889.54,-382.5 894.78,-383.31 891.19,-379.41 889.54,-382.5"/>
</g>
<!-- L4YAML.Proofs.ScannerCorrectness.advance_preserves_tokens&#45;&gt;L4YAML.Scanner.ScannerState.tokens -->
<g id="edge15" class="edge">
<title>L4YAML.Proofs.ScannerCorrectness.advance_preserves_tokens&#45;&gt;L4YAML.Scanner.ScannerState.tokens</title>
<path fill="none" stroke="#999999" stroke-dasharray="1,5" d="M191.71,-228.57C218.39,-190.61 280.09,-112.64 355.03,-82.93 561.79,-0.96 678.54,51.85 855.46,-82.93 892.94,-111.49 915.51,-257.65 923.09,-315.41"/>
<polygon fill="#999999" stroke="#999999" points="921.4,-315.98 923.78,-320.72 924.87,-315.53 921.4,-315.98"/>
</g>
<!-- L4YAML.Proofs.ScannerCorrectness.advance_preserves_tokens&#45;&gt;L4YAML.Proofs.ScannerCorrectness.skipToEndOfLine_preserves_tokens -->
<g id="edge6" class="edge">
<title>L4YAML.Proofs.ScannerCorrectness.advance_preserves_tokens&#45;&gt;L4YAML.Proofs.ScannerCorrectness.skipToEndOfLine_preserves_tokens</title>
<path fill="none" stroke="#28a745" d="M300.61,-236.44C318.84,-234.73 337.41,-233.16 355.03,-231.93 358.88,-231.67 362.77,-231.41 366.69,-231.15"/>
<polygon fill="#28a745" stroke="#28a745" points="366.94,-233.59 373.77,-230.7 366.63,-228.7 366.94,-233.59"/>
</g>
</g>
</svg>
