<?xml version="1.0" encoding="UTF-8" standalone="no"?>
<!DOCTYPE svg PUBLIC "-//W3C//DTD SVG 1.1//EN"
 "http://www.w3.org/Graphics/SVG/1.1/DTD/svg11.dtd">
<!-- Generated by graphviz version 2.44.0 (0)
 -->
<!-- Title: ScannerPlainScalarValid.FlowContextPSV_of_prefix_and_new Pages: 1 -->
<svg width="1838pt" height="808pt"
 viewBox="0.00 0.00 1838.36 807.68" xmlns="http://www.w3.org/2000/svg" xmlns:xlink="http://www.w3.org/1999/xlink">
<g id="graph0" class="graph" transform="scale(1 1) rotate(0) translate(4 803.68)">
<title>ScannerPlainScalarValid.FlowContextPSV_of_prefix_and_new</title>
<polygon fill="white" stroke="transparent" points="-4,4 -4,-803.68 1834.36,-803.68 1834.36,4 -4,4"/>
<text text-anchor="middle" x="915.18" y="-785.28" font-family="Helvetica Bold" font-size="13.00">ScannerPlainScalarValid.FlowContextPSV_of_prefix_and_new</text>
<text text-anchor="middle" x="915.18" y="-771.28" font-family="Helvetica Bold" font-size="13.00">(heuristic: used by 14 proofs)</text>
<text text-anchor="middle" x="915.18" y="-757.28" font-family="Helvetica Bold" font-size="13.00">(L4YAML.Proofs.ScannerPlainScalarValid)</text>
<g id="clust1" class="cluster">
<title>cluster_functions</title>
<polygon fill="none" stroke="#4a90d9" stroke-dasharray="5,2" points="1563.36,-8 1563.36,-568 1822.36,-568 1822.36,-8 1563.36,-8"/>
<text text-anchor="middle" x="1692.86" y="-553.6" font-family="Helvetica Bold" font-size="13.00" fill="#4a90d9">Functions</text>
</g>
<g id="clust2" class="cluster">
<title>cluster_key</title>
<polygon fill="none" stroke="#d4a017" stroke-dasharray="5,2" points="1025.28,-276 1025.28,-358 1518.36,-358 1518.36,-276 1025.28,-276"/>
<text text-anchor="middle" x="1271.82" y="-343.6" font-family="Helvetica Bold" font-size="13.00" fill="#d4a017">Key Theorem</text>
</g>
<g id="clust3" class="cluster">
<title>cluster_proofs</title>
<polygon fill="none" stroke="#28a745" stroke-dasharray="5,2" points="8,-388 8,-648 1004.28,-648 1004.28,-388 8,-388"/>
<text text-anchor="middle" x="506.14" y="-633.6" font-family="Helvetica Bold" font-size="13.00" fill="#28a745">Proof Dependencies</text>
</g>
<g id="clust4" class="cluster">
<title>cluster_stdlib</title>
<polygon fill="none" stroke="#e67e22" stroke-dasharray="5,2" points="672.16,-276 672.16,-350 842.39,-350 842.39,-276 672.16,-276"/>
<text text-anchor="middle" x="757.28" y="-335.6" font-family="Helvetica Bold" font-size="13.00" fill="#e67e22">Stdlib Lemmas</text>
</g>
<!-- L4YAML.Positioned -->
<g id="node1" class="node">
<title>L4YAML.Positioned</title>
<g id="a_node1"><a xlink:href="../../../api/L4YAML/Token.html#L4YAML.Positioned" xlink:title="Positioned\n(inductive)" target="_blank">
<polygon fill="#dce9f7" stroke="#4a90d9" points="1723.86,-538 1661.86,-538 1661.86,-502 1723.86,-502 1723.86,-538"/>
<text text-anchor="middle" x="1692.86" y="-523" font-family="Helvetica" font-size="10.00">Positioned</text>
<text text-anchor="middle" x="1692.86" y="-512" font-family="Helvetica" font-size="10.00">(inductive)</text>
</a>
</g>
</g>
<!-- L4YAML.Proofs.ScannerPlainScalarValid.flowNesting -->
<g id="node2" class="node">
<title>L4YAML.Proofs.ScannerPlainScalarValid.flowNesting</title>
<g id="a_node2"><a xlink:href="../../../api/L4YAML/Proofs/ScannerPlainScalarValid.html#L4YAML.Proofs.ScannerPlainScalarValid.flowNesting" xlink:title="ScannerPlainScalarValid.flowNesting\n(def)" target="_blank">
<polygon fill="#dce9f7" stroke="#4a90d9" points="1781.86,-430 1603.86,-430 1603.86,-394 1781.86,-394 1781.86,-430"/>
<text text-anchor="middle" x="1692.86" y="-415" font-family="Helvetica" font-size="10.00">ScannerPlainScalarValid.flowNesting</text>
<text text-anchor="middle" x="1692.86" y="-404" font-family="Helvetica" font-size="10.00">(def)</text>
</a>
</g>
</g>
<!-- L4YAML.Positioned.val -->
<g id="node3" class="node">
<title>L4YAML.Positioned.val</title>
<g id="a_node3"><a xlink:href="../../../api/L4YAML/Token.html#L4YAML.Positioned.val" xlink:title="Positioned.val\n(def)" target="_blank">
<polygon fill="#dce9f7" stroke="#4a90d9" points="1731.36,-376 1654.36,-376 1654.36,-340 1731.36,-340 1731.36,-376"/>
<text text-anchor="middle" x="1692.86" y="-361" font-family="Helvetica" font-size="10.00">Positioned.val</text>
<text text-anchor="middle" x="1692.86" y="-350" font-family="Helvetica" font-size="10.00">(def)</text>
</a>
</g>
</g>
<!-- L4YAML.Scalar.mk -->
<g id="node4" class="node">
<title>L4YAML.Scalar.mk</title>
<g id="a_node4"><a xlink:href="../../../api/L4YAML/Types.html#L4YAML.Scalar.mk" xlink:title="Scalar.mk\n(ctor)" target="_blank">
<polygon fill="#dce9f7" stroke="#4a90d9" points="1723.36,-160 1662.36,-160 1662.36,-124 1723.36,-124 1723.36,-160"/>
<text text-anchor="middle" x="1692.86" y="-145" font-family="Helvetica" font-size="10.00">Scalar.mk</text>
<text text-anchor="middle" x="1692.86" y="-134" font-family="Helvetica" font-size="10.00">(ctor)</text>
</a>
</g>
</g>
<!-- L4YAML.Proofs.ScannerPlainScalarValid.FlowContextPSV -->
<g id="node5" class="node">
<title>L4YAML.Proofs.ScannerPlainScalarValid.FlowContextPSV</title>
<g id="a_node5"><a xlink:href="../../../api/L4YAML/Proofs/ScannerPlainScalarValid.html#L4YAML.Proofs.ScannerPlainScalarValid.FlowContextPSV" xlink:title="ScannerPlainScalarValid.FlowContextPSV\n(def)" target="_blank">
<polygon fill="#dce9f7" stroke="#4a90d9" points="1793.36,-106 1592.36,-106 1592.36,-70 1793.36,-70 1793.36,-106"/>
<text text-anchor="middle" x="1692.86" y="-91" font-family="Helvetica" font-size="10.00">ScannerPlainScalarValid.FlowContextPSV</text>
<text text-anchor="middle" x="1692.86" y="-80" font-family="Helvetica" font-size="10.00">(def)</text>
</a>
</g>
</g>
<!-- L4YAML.YamlToken -->
<g id="node6" class="node">
<title>L4YAML.YamlToken</title>
<g id="a_node6"><a xlink:href="../../../api/L4YAML/Token.html#L4YAML.YamlToken" xlink:title="YamlToken\n(inductive)" target="_blank">
<polygon fill="#dce9f7" stroke="#4a90d9" points="1724.86,-484 1660.86,-484 1660.86,-448 1724.86,-448 1724.86,-484"/>
<text text-anchor="middle" x="1692.86" y="-469" font-family="Helvetica" font-size="10.00">YamlToken</text>
<text text-anchor="middle" x="1692.86" y="-458" font-family="Helvetica" font-size="10.00">(inductive)</text>
</a>
</g>
</g>
<!-- L4YAML.BlockScalarMeta -->
<g id="node7" class="node">
<title>L4YAML.BlockScalarMeta</title>
<g id="a_node7"><a xlink:href="../../../api/L4YAML/Types.html#L4YAML.BlockScalarMeta" xlink:title="BlockScalarMeta\n(inductive)" target="_blank">
<polygon fill="#dce9f7" stroke="#4a90d9" points="1738.36,-52 1647.36,-52 1647.36,-16 1738.36,-16 1738.36,-52"/>
<text text-anchor="middle" x="1692.86" y="-37" font-family="Helvetica" font-size="10.00">BlockScalarMeta</text>
<text text-anchor="middle" x="1692.86" y="-26" font-family="Helvetica" font-size="10.00">(inductive)</text>
</a>
</g>
</g>
<!-- L4YAML.ScalarStyle.plain -->
<g id="node8" class="node">
<title>L4YAML.ScalarStyle.plain</title>
<g id="a_node8"><a xlink:href="../../../api/L4YAML/Types.html#L4YAML.ScalarStyle.plain" xlink:title="ScalarStyle.plain\n(ctor)" target="_blank">
<polygon fill="#dce9f7" stroke="#4a90d9" points="1737.86,-322 1647.86,-322 1647.86,-286 1737.86,-286 1737.86,-322"/>
<text text-anchor="middle" x="1692.86" y="-307" font-family="Helvetica" font-size="10.00">ScalarStyle.plain</text>
<text text-anchor="middle" x="1692.86" y="-296" font-family="Helvetica" font-size="10.00">(ctor)</text>
</a>
</g>
</g>
<!-- L4YAML.Grammar.ScalarScannable -->
<g id="node9" class="node">
<title>L4YAML.Grammar.ScalarScannable</title>
<g id="a_node9"><a xlink:href="../../../api/L4YAML/Grammar.html#L4YAML.Grammar.ScalarScannable" xlink:title="Grammar.ScalarScannable\n(def)" target="_blank">
<polygon fill="#dce9f7" stroke="#4a90d9" points="1759.86,-268 1625.86,-268 1625.86,-232 1759.86,-232 1759.86,-268"/>
<text text-anchor="middle" x="1692.86" y="-253" font-family="Helvetica" font-size="10.00">Grammar.ScalarScannable</text>
<text text-anchor="middle" x="1692.86" y="-242" font-family="Helvetica" font-size="10.00">(def)</text>
</a>
</g>
</g>
<!-- L4YAML.Proofs.ScannerPlainScalarValid.PlainScalarsValid.match_1 -->
<g id="node10" class="node">
<title>L4YAML.Proofs.ScannerPlainScalarValid.PlainScalarsValid.match_1</title>
<g id="a_node10"><a xlink:href="../../../api/L4YAML/Proofs/ScannerPlainScalarValid.html#L4YAML.Proofs.ScannerPlainScalarValid.PlainScalarsValid.match_1" xlink:title="ScannerPlainScalarValid.PlainScalarsValid.match_1\n(def)" target="_blank">
<polygon fill="#dce9f7" stroke="#4a90d9" points="1814.36,-214 1571.36,-214 1571.36,-178 1814.36,-178 1814.36,-214"/>
<text text-anchor="middle" x="1692.86" y="-199" font-family="Helvetica" font-size="10.00">ScannerPlainScalarValid.PlainScalarsValid.match_1</text>
<text text-anchor="middle" x="1692.86" y="-188" font-family="Helvetica" font-size="10.00">(def)</text>
</a>
</g>
</g>
<!-- L4YAML.Proofs.ScannerPlainScalarValid.FlowContextPSV_of_prefix_and_new -->
<g id="node11" class="node">
<title>L4YAML.Proofs.ScannerPlainScalarValid.FlowContextPSV_of_prefix_and_new</title>
<g id="a_node11"><a xlink:href="../../../api/L4YAML/Proofs/ScannerPlainScalarValid.html#L4YAML.Proofs.ScannerPlainScalarValid.FlowContextPSV_of_prefix_and_new" xlink:title="ScannerPlainScalarValid.FlowContextPSV_of_prefix_and_new" target="_blank">
<polygon fill="#fff3cd" stroke="#d4a017" points="1506.4,-298.54 1506.4,-313.46 1368.99,-324 1174.65,-324 1037.24,-313.46 1037.24,-298.54 1174.65,-288 1368.99,-288 1506.4,-298.54"/>
<polygon fill="none" stroke="#d4a017" points="1510.4,-294.84 1510.4,-317.16 1369.14,-328 1174.5,-328 1033.24,-317.16 1033.24,-294.84 1174.5,-284 1369.14,-284 1510.4,-294.84"/>
<text text-anchor="middle" x="1271.82" y="-302.9" font-family="Helvetica" font-size="12.00">ScannerPlainScalarValid.FlowContextPSV_of_prefix_and_new</text>
</a>
</g>
</g>
<!-- L4YAML.Proofs.ScannerPlainScalarValid.FlowContextPSV_of_prefix_and_new&#45;&gt;L4YAML.Positioned -->
<g id="edge3" class="edge">
<title>L4YAML.Proofs.ScannerPlainScalarValid.FlowContextPSV_of_prefix_and_new&#45;&gt;L4YAML.Positioned</title>
<path fill="none" stroke="#4a90d9" stroke-width="2" d="M1298.24,-328.31C1346.23,-369 1455.1,-454.58 1563.36,-493 1593.21,-503.59 1628.51,-510.64 1654.55,-514.87"/>
<polygon fill="#4a90d9" stroke="#4a90d9" stroke-width="2" points="1654.34,-517.32 1661.64,-515.99 1655.1,-512.48 1654.34,-517.32"/>
<text text-anchor="middle" x="1540.86" y="-488.6" font-family="Times-Roman" font-size="8.00" fill="#4a90d9">about</text>
</g>
<!-- L4YAML.Proofs.ScannerPlainScalarValid.FlowContextPSV_of_prefix_and_new&#45;&gt;L4YAML.Proofs.ScannerPlainScalarValid.flowNesting -->
<g id="edge9" class="edge">
<title>L4YAML.Proofs.ScannerPlainScalarValid.FlowContextPSV_of_prefix_and_new&#45;&gt;L4YAML.Proofs.ScannerPlainScalarValid.flowNesting</title>
<path fill="none" stroke="#4a90d9" stroke-width="2" d="M1478.86,-319.6C1505.95,-328.35 1531.76,-340.98 1553.36,-359 1562.87,-366.93 1553.93,-376.97 1563.36,-385 1573.1,-393.29 1584.74,-399.25 1596.99,-403.49"/>
<polygon fill="#4a90d9" stroke="#4a90d9" stroke-width="2" points="1596.43,-405.88 1603.84,-405.67 1597.92,-401.21 1596.43,-405.88"/>
<text text-anchor="middle" x="1540.86" y="-361.6" font-family="Times-Roman" font-size="8.00" fill="#4a90d9">about</text>
</g>
<!-- L4YAML.Proofs.ScannerPlainScalarValid.FlowContextPSV_of_prefix_and_new&#45;&gt;L4YAML.Positioned.val -->
<g id="edge5" class="edge">
<title>L4YAML.Proofs.ScannerPlainScalarValid.FlowContextPSV_of_prefix_and_new&#45;&gt;L4YAML.Positioned.val</title>
<path fill="none" stroke="#4a90d9" stroke-width="2" d="M1341.55,-283.94C1402.88,-268.78 1492.18,-258.38 1553.36,-302 1564.46,-309.91 1553.14,-321.98 1563.36,-331 1586.11,-351.07 1619.95,-357.57 1647.18,-359.19"/>
<polygon fill="#4a90d9" stroke="#4a90d9" stroke-width="2" points="1647.21,-361.64 1654.31,-359.51 1647.43,-356.74 1647.21,-361.64"/>
<text text-anchor="middle" x="1540.86" y="-304.6" font-family="Times-Roman" font-size="8.00" fill="#4a90d9">about</text>
</g>
<!-- L4YAML.Proofs.ScannerPlainScalarValid.FlowContextPSV_of_prefix_and_new&#45;&gt;L4YAML.Scalar.mk -->
<g id="edge4" class="edge">
<title>L4YAML.Proofs.ScannerPlainScalarValid.FlowContextPSV_of_prefix_and_new&#45;&gt;L4YAML.Scalar.mk</title>
<path fill="none" stroke="#4a90d9" stroke-width="2" d="M1312.01,-283.89C1366.72,-253.88 1469.78,-200.41 1563.36,-169 1593.58,-158.85 1629.13,-151.74 1655.17,-147.37"/>
<polygon fill="#4a90d9" stroke="#4a90d9" stroke-width="2" points="1655.74,-149.75 1662.25,-146.2 1654.95,-144.92 1655.74,-149.75"/>
<text text-anchor="middle" x="1540.86" y="-182.6" font-family="Times-Roman" font-size="8.00" fill="#4a90d9">about</text>
</g>
<!-- L4YAML.Proofs.ScannerPlainScalarValid.FlowContextPSV_of_prefix_and_new&#45;&gt;L4YAML.Proofs.ScannerPlainScalarValid.FlowContextPSV -->
<g id="edge2" class="edge">
<title>L4YAML.Proofs.ScannerPlainScalarValid.FlowContextPSV_of_prefix_and_new&#45;&gt;L4YAML.Proofs.ScannerPlainScalarValid.FlowContextPSV</title>
<path fill="none" stroke="#4a90d9" stroke-width="2" d="M1298.91,-283.88C1347.57,-243.82 1456.91,-159.3 1563.36,-115 1570.37,-112.08 1577.73,-109.47 1585.23,-107.13"/>
<polygon fill="#4a90d9" stroke="#4a90d9" stroke-width="2" points="1586.15,-109.41 1592.15,-105.05 1584.75,-104.71 1586.15,-109.41"/>
<text text-anchor="middle" x="1540.86" y="-132.6" font-family="Times-Roman" font-size="8.00" fill="#4a90d9">about</text>
</g>
<!-- L4YAML.Proofs.ScannerPlainScalarValid.FlowContextPSV_of_prefix_and_new&#45;&gt;L4YAML.YamlToken -->
<g id="edge6" class="edge">
<title>L4YAML.Proofs.ScannerPlainScalarValid.FlowContextPSV_of_prefix_and_new&#45;&gt;L4YAML.YamlToken</title>
<path fill="none" stroke="#4a90d9" stroke-width="2" d="M1431.43,-323.33C1476.39,-335.65 1521.67,-356.36 1553.36,-391 1568.07,-407.08 1547.96,-423.58 1563.36,-439 1586.74,-462.42 1624.94,-467.96 1653.62,-468.37"/>
<polygon fill="#4a90d9" stroke="#4a90d9" stroke-width="2" points="1653.69,-470.82 1660.69,-468.37 1653.69,-465.92 1653.69,-470.82"/>
<text text-anchor="middle" x="1540.86" y="-393.6" font-family="Times-Roman" font-size="8.00" fill="#4a90d9">about</text>
</g>
<!-- L4YAML.Proofs.ScannerPlainScalarValid.FlowContextPSV_of_prefix_and_new&#45;&gt;L4YAML.BlockScalarMeta -->
<g id="edge1" class="edge">
<title>L4YAML.Proofs.ScannerPlainScalarValid.FlowContextPSV_of_prefix_and_new&#45;&gt;L4YAML.BlockScalarMeta</title>
<path fill="none" stroke="#4a90d9" stroke-width="2" d="M1291.74,-283.9C1334.69,-235.26 1445.05,-118.71 1563.36,-61 1587.23,-49.36 1615.99,-42.72 1640.24,-38.94"/>
<polygon fill="#4a90d9" stroke="#4a90d9" stroke-width="2" points="1640.71,-41.35 1647.28,-37.91 1640,-36.5 1640.71,-41.35"/>
<text text-anchor="middle" x="1540.86" y="-78.6" font-family="Times-Roman" font-size="8.00" fill="#4a90d9">about</text>
</g>
<!-- L4YAML.Proofs.ScannerPlainScalarValid.FlowContextPSV_of_prefix_and_new&#45;&gt;L4YAML.ScalarStyle.plain -->
<g id="edge10" class="edge">
<title>L4YAML.Proofs.ScannerPlainScalarValid.FlowContextPSV_of_prefix_and_new&#45;&gt;L4YAML.ScalarStyle.plain</title>
<path fill="none" stroke="#4a90d9" stroke-width="2" d="M1305.26,-283.91C1361.34,-248.73 1477.66,-189.35 1553.36,-245 1565.37,-253.83 1552.33,-266.98 1563.36,-277 1584.1,-295.85 1614.56,-302.82 1640.61,-304.97"/>
<polygon fill="#4a90d9" stroke="#4a90d9" stroke-width="2" points="1640.69,-307.43 1647.84,-305.46 1641.02,-302.55 1640.69,-307.43"/>
<text text-anchor="middle" x="1540.86" y="-247.6" font-family="Times-Roman" font-size="8.00" fill="#4a90d9">about</text>
</g>
<!-- L4YAML.Proofs.ScannerPlainScalarValid.FlowContextPSV_of_prefix_and_new&#45;&gt;L4YAML.Grammar.ScalarScannable -->
<g id="edge8" class="edge">
<title>L4YAML.Proofs.ScannerPlainScalarValid.FlowContextPSV_of_prefix_and_new&#45;&gt;L4YAML.Grammar.ScalarScannable</title>
<path fill="none" stroke="#4a90d9" stroke-width="2" d="M1308.77,-283.99C1361.36,-254.35 1462.89,-206.72 1553.36,-220 1557.95,-220.67 1558.86,-221.86 1563.36,-223 1581.11,-227.52 1600.37,-231.86 1618.45,-235.69"/>
<polygon fill="#4a90d9" stroke="#4a90d9" stroke-width="2" points="1618.23,-238.15 1625.58,-237.19 1619.23,-233.35 1618.23,-238.15"/>
<text text-anchor="middle" x="1540.86" y="-222.6" font-family="Times-Roman" font-size="8.00" fill="#4a90d9">about</text>
</g>
<!-- L4YAML.Proofs.ScannerPlainScalarValid.FlowContextPSV_of_prefix_and_new&#45;&gt;L4YAML.Proofs.ScannerPlainScalarValid.PlainScalarsValid.match_1 -->
<g id="edge7" class="edge">
<title>L4YAML.Proofs.ScannerPlainScalarValid.FlowContextPSV_of_prefix_and_new&#45;&gt;L4YAML.Proofs.ScannerPlainScalarValid.PlainScalarsValid.match_1</title>
<path fill="none" stroke="#4a90d9" stroke-width="2" d="M1315.29,-283.96C1364.91,-259.43 1450.18,-221.02 1528.36,-204 1539.85,-201.5 1551.9,-199.6 1564.02,-198.17"/>
<polygon fill="#4a90d9" stroke="#4a90d9" stroke-width="2" points="1564.48,-200.58 1571.17,-197.38 1563.94,-195.71 1564.48,-200.58"/>
<text text-anchor="middle" x="1540.86" y="-206.6" font-family="Times-Roman" font-size="8.00" fill="#4a90d9">about</text>
</g>
<!-- L4YAML.Proofs.ScannerPlainScalarValid.flowNesting_prefix_stable -->
<g id="node12" class="node">
<title>L4YAML.Proofs.ScannerPlainScalarValid.flowNesting_prefix_stable</title>
<g id="a_node12"><a xlink:href="../../../api/L4YAML/Proofs/ScannerPlainScalarValid.html#L4YAML.Proofs.ScannerPlainScalarValid.flowNesting_prefix_stable" xlink:title="ScannerPlainScalarValid.flowNesting_prefix_stable\n(ScannerPlainScalarValid)" target="_blank">
<ellipse fill="#d4edda" stroke="#28a745" cx="757.28" cy="-477" rx="169" ry="21.43"/>
<text text-anchor="middle" x="757.28" y="-480" font-family="Helvetica" font-size="10.00">ScannerPlainScalarValid.flowNesting_prefix_stable</text>
<text text-anchor="middle" x="757.28" y="-469" font-family="Helvetica" font-size="10.00">(ScannerPlainScalarValid)</text>
</a>
</g>
</g>
<!-- L4YAML.Proofs.ScannerPlainScalarValid.flowNesting_prefix_stable&#45;&gt;L4YAML.Positioned -->
<g id="edge17" class="edge">
<title>L4YAML.Proofs.ScannerPlainScalarValid.flowNesting_prefix_stable&#45;&gt;L4YAML.Positioned</title>
<path fill="none" stroke="#999999" stroke-dasharray="1,5" d="M908.95,-467.61C943.64,-472.49 978.01,-483.93 1004.28,-507 1017.73,-518.81 1001.72,-533.25 1014.28,-546 1017.84,-549.61 1020.26,-548.33 1025.28,-549 1242.49,-578.09 1299.96,-567.13 1518.36,-549 1566.66,-544.99 1621.75,-534.81 1656.65,-527.65"/>
<polygon fill="#999999" stroke="#999999" points="1657.11,-529.34 1661.65,-526.61 1656.4,-525.91 1657.11,-529.34"/>
</g>
<!-- L4YAML.Proofs.ScannerPlainScalarValid.flowNesting_prefix_stable&#45;&gt;L4YAML.Proofs.ScannerPlainScalarValid.flowNesting -->
<g id="edge20" class="edge">
<title>L4YAML.Proofs.ScannerPlainScalarValid.flowNesting_prefix_stable&#45;&gt;L4YAML.Proofs.ScannerPlainScalarValid.flowNesting</title>
<path fill="none" stroke="#999999" stroke-dasharray="1,5" d="M905.43,-466.75C1099.67,-453.23 1435.97,-429.82 1598.54,-418.5"/>
<polygon fill="#999999" stroke="#999999" points="1598.91,-420.23 1603.77,-418.13 1598.66,-416.73 1598.91,-420.23"/>
</g>
<!-- L4YAML.Proofs.ScannerPlainScalarValid.flowNesting_prefix_stable&#45;&gt;L4YAML.Positioned.val -->
<g id="edge18" class="edge">
<title>L4YAML.Proofs.ScannerPlainScalarValid.flowNesting_prefix_stable&#45;&gt;L4YAML.Positioned.val</title>
<path fill="none" stroke="#999999" stroke-dasharray="1,5" d="M925.42,-474.6C952.97,-469.24 980.32,-460.58 1004.28,-447 1017.51,-439.51 1011.96,-427.33 1025.28,-420 1123.67,-365.81 1416.47,-380.9 1528.36,-371 1569.28,-367.38 1616.01,-363.71 1649.01,-361.2"/>
<polygon fill="#999999" stroke="#999999" points="1649.33,-362.93 1654.18,-360.81 1649.06,-359.44 1649.33,-362.93"/>
</g>
<!-- L4YAML.Proofs.ScannerPlainScalarValid.flowNesting_prefix_stable&#45;&gt;L4YAML.YamlToken -->
<g id="edge19" class="edge">
<title>L4YAML.Proofs.ScannerPlainScalarValid.flowNesting_prefix_stable&#45;&gt;L4YAML.YamlToken</title>
<path fill="none" stroke="#999999" stroke-dasharray="1,5" d="M922.96,-472.72C952.24,-478.45 980.84,-488.96 1004.28,-507 1013.76,-514.3 1004.37,-525.29 1014.28,-532 1113.66,-599.29 1438.73,-534.56 1553.36,-499 1558.31,-497.46 1558.54,-494.89 1563.36,-493 1593.3,-481.26 1629.27,-474.26 1655.53,-470.34"/>
<polygon fill="#999999" stroke="#999999" points="1655.95,-472.05 1660.65,-469.59 1655.45,-468.58 1655.95,-472.05"/>
</g>
<!-- L4YAML.Proofs.ScannerPlainScalarValid.flowNesting_prefix_stable&#45;&gt;L4YAML.Proofs.ScannerPlainScalarValid.FlowContextPSV_of_prefix_and_new -->
<g id="edge15" class="edge">
<title>L4YAML.Proofs.ScannerPlainScalarValid.flowNesting_prefix_stable&#45;&gt;L4YAML.Proofs.ScannerPlainScalarValid.FlowContextPSV_of_prefix_and_new</title>
<path fill="none" stroke="#28a745" d="M886.72,-490.66C929.25,-488.24 973.52,-477.08 1004.28,-447 1026.44,-425.34 1002.99,-406.86 1014.28,-378 1017.43,-369.96 1018.14,-366.85 1025.28,-362 1049.73,-345.4 1078.38,-333.67 1107.31,-325.38"/>
<polygon fill="#28a745" stroke="#28a745" points="1108.18,-327.68 1114.28,-323.45 1106.88,-322.96 1108.18,-327.68"/>
</g>
<!-- L4YAML.Proofs.ScannerPlainScalarValid.PlainScalarsValid_of_prefix_and_new._proof_1 -->
<g id="node13" class="node">
<title>L4YAML.Proofs.ScannerPlainScalarValid.PlainScalarsValid_of_prefix_and_new._proof_1</title>
<g id="a_node13"><a xlink:href="../../../api/L4YAML/Proofs/ScannerPlainScalarValid.html#L4YAML.Proofs.ScannerPlainScalarValid.PlainScalarsValid_of_prefix_and_new._proof_1" xlink:title="ScannerPlainScalarValid.PlainScalarsValid_of_prefix_and_new._proof_1\n(ScannerPlainScalarValid)" target="_blank">
<ellipse fill="#d4edda" stroke="#28a745" cx="248.64" cy="-417" rx="232.78" ry="21.43"/>
<text text-anchor="middle" x="248.64" y="-420" font-family="Helvetica" font-size="10.00">ScannerPlainScalarValid.PlainScalarsValid_of_prefix_and_new._proof_1</text>
<text text-anchor="middle" x="248.64" y="-409" font-family="Helvetica" font-size="10.00">(ScannerPlainScalarValid)</text>
</a>
</g>
</g>
<!-- L4YAML.Proofs.ScannerPlainScalarValid.PlainScalarsValid_of_prefix_and_new._proof_1&#45;&gt;L4YAML.Positioned -->
<g id="edge21" class="edge">
<title>L4YAML.Proofs.ScannerPlainScalarValid.PlainScalarsValid_of_prefix_and_new._proof_1&#45;&gt;L4YAML.Positioned</title>
<path fill="none" stroke="#999999" stroke-dasharray="1,5" d="M277.47,-395.82C324.2,-361.75 422.7,-296.15 518.28,-272 733.75,-217.56 1355.38,-120.9 1518.36,-272 1529.15,-282 1525.08,-389.66 1528.36,-404 1530.73,-414.36 1555.24,-486.14 1563.36,-493 1589.18,-514.82 1628.19,-520.42 1656.46,-521.27"/>
<polygon fill="#999999" stroke="#999999" points="1656.57,-523.02 1661.61,-521.38 1656.65,-519.52 1656.57,-523.02"/>
</g>
<!-- L4YAML.Proofs.ScannerPlainScalarValid.PlainScalarsValid_of_prefix_and_new._proof_1&#45;&gt;L4YAML.YamlToken -->
<g id="edge22" class="edge">
<title>L4YAML.Proofs.ScannerPlainScalarValid.PlainScalarsValid_of_prefix_and_new._proof_1&#45;&gt;L4YAML.YamlToken</title>
<path fill="none" stroke="#999999" stroke-dasharray="1,5" d="M270.16,-395.7C309.92,-356.16 402.11,-272.66 499.28,-242 931.2,-105.69 1164.38,40.56 1518.36,-242 1534.03,-254.51 1521.68,-267.09 1528.36,-286 1536.77,-309.8 1546.46,-312.72 1553.36,-337 1559.58,-358.91 1548.16,-422.04 1563.36,-439 1586.06,-464.33 1625.95,-469.31 1655.29,-469.05"/>
<polygon fill="#999999" stroke="#999999" points="1655.67,-470.79 1660.63,-468.94 1655.6,-467.29 1655.67,-470.79"/>
</g>
<!-- L4YAML.Proofs.ScannerPlainScalarValid.PlainScalarsValid_of_prefix_and_new._proof_1&#45;&gt;L4YAML.Proofs.ScannerPlainScalarValid.FlowContextPSV_of_prefix_and_new -->
<g id="edge14" class="edge">
<title>L4YAML.Proofs.ScannerPlainScalarValid.PlainScalarsValid_of_prefix_and_new._proof_1&#45;&gt;L4YAML.Proofs.ScannerPlainScalarValid.FlowContextPSV_of_prefix_and_new</title>
<path fill="none" stroke="#28a745" d="M390.34,-400.12C431.53,-395.5 476.68,-390.73 518.28,-387 733.91,-367.65 795.38,-410.85 1004.28,-354 1009.08,-352.7 1009.56,-350.54 1014.28,-349 1045.35,-338.88 1079.35,-331.05 1112.14,-325.02"/>
<polygon fill="#28a745" stroke="#28a745" points="1112.66,-327.41 1119.12,-323.76 1111.79,-322.59 1112.66,-327.41"/>
</g>
<!-- L4YAML.Proofs.ScannerPlainScalarValid.PlainScalarsValid_of_prefix_and_new._proof_1&#45;&gt;L4YAML.Proofs.ScannerPlainScalarValid.flowNesting_prefix_stable -->
<g id="edge29" class="edge">
<title>L4YAML.Proofs.ScannerPlainScalarValid.PlainScalarsValid_of_prefix_and_new._proof_1&#45;&gt;L4YAML.Proofs.ScannerPlainScalarValid.flowNesting_prefix_stable</title>
<path fill="none" stroke="#cccccc" stroke-dasharray="5,2" d="M391.44,-433.79C466.21,-442.65 557.17,-453.42 629.57,-461.99"/>
<polygon fill="#cccccc" stroke="#cccccc" points="629.73,-463.42 633.87,-462.5 630.06,-460.64 629.73,-463.42"/>
</g>
<!-- L4YAML.Proofs.ScannerPlainScalarValid.FlowContextPSV_of_prefix_and_new._proof_1_2 -->
<g id="node14" class="node">
<title>L4YAML.Proofs.ScannerPlainScalarValid.FlowContextPSV_of_prefix_and_new._proof_1_2</title>
<g id="a_node14"><a xlink:href="../../../api/L4YAML/Proofs/ScannerPlainScalarValid.html#L4YAML.Proofs.ScannerPlainScalarValid.FlowContextPSV_of_prefix_and_new._proof_1_2" xlink:title="ScannerPlainScalarValid.FlowContextPSV_of_prefix_and_new._proof_1_2\n(ScannerPlainScalarValid)" target="_blank">
<ellipse fill="#d4edda" stroke="#28a745" cx="757.28" cy="-597" rx="239" ry="21.43"/>
<text text-anchor="middle" x="757.28" y="-600" font-family="Helvetica" font-size="10.00">ScannerPlainScalarValid.FlowContextPSV_of_prefix_and_new._proof_1_2</text>
<text text-anchor="middle" x="757.28" y="-589" font-family="Helvetica" font-size="10.00">(ScannerPlainScalarValid)</text>
</a>
</g>
</g>
<!-- L4YAML.Proofs.ScannerPlainScalarValid.FlowContextPSV_of_prefix_and_new._proof_1_2&#45;&gt;L4YAML.Positioned -->
<g id="edge23" class="edge">
<title>L4YAML.Proofs.ScannerPlainScalarValid.FlowContextPSV_of_prefix_and_new._proof_1_2&#45;&gt;L4YAML.Positioned</title>
<path fill="none" stroke="#999999" stroke-dasharray="1,5" d="M800.21,-617.96C923.18,-676.27 1290.68,-827.88 1553.36,-699 1620.48,-666.07 1664.33,-583.21 1682.43,-542.83"/>
<polygon fill="#999999" stroke="#999999" points="1684.09,-543.4 1684.51,-538.12 1680.89,-541.99 1684.09,-543.4"/>
</g>
<!-- L4YAML.Proofs.ScannerPlainScalarValid.FlowContextPSV_of_prefix_and_new._proof_1_2&#45;&gt;L4YAML.YamlToken -->
<g id="edge24" class="edge">
<title>L4YAML.Proofs.ScannerPlainScalarValid.FlowContextPSV_of_prefix_and_new._proof_1_2&#45;&gt;L4YAML.YamlToken</title>
<path fill="none" stroke="#999999" stroke-dasharray="1,5" d="M864.52,-615.97C1015.77,-638.17 1299.1,-661.79 1518.36,-575 1537.68,-567.35 1543.04,-562.04 1553.36,-544 1564.83,-523.95 1547.14,-509.44 1563.36,-493 1587.1,-468.94 1626.45,-463.69 1655.36,-463.54"/>
<polygon fill="#999999" stroke="#999999" points="1655.62,-465.29 1660.63,-463.56 1655.64,-461.79 1655.62,-465.29"/>
</g>
<!-- L4YAML.Proofs.ScannerPlainScalarValid.FlowContextPSV_of_prefix_and_new._proof_1_2&#45;&gt;L4YAML.Proofs.ScannerPlainScalarValid.FlowContextPSV_of_prefix_and_new -->
<g id="edge13" class="edge">
<title>L4YAML.Proofs.ScannerPlainScalarValid.FlowContextPSV_of_prefix_and_new._proof_1_2&#45;&gt;L4YAML.Proofs.ScannerPlainScalarValid.FlowContextPSV_of_prefix_and_new</title>
<path fill="none" stroke="#28a745" d="M954.69,-584.98C971.89,-580.39 988.67,-574.5 1004.28,-567 1118.04,-512.31 1213.08,-389.61 1251.96,-334.16"/>
<polygon fill="#28a745" stroke="#28a745" points="1254,-335.52 1255.98,-328.37 1249.98,-332.72 1254,-335.52"/>
</g>
<!-- L4YAML.Proofs.ScannerPlainScalarValid.FlowContextPSV_of_prefix_and_new._proof_1_3 -->
<g id="node15" class="node">
<title>L4YAML.Proofs.ScannerPlainScalarValid.FlowContextPSV_of_prefix_and_new._proof_1_3</title>
<g id="a_node15"><a xlink:href="../../../api/L4YAML/Proofs/ScannerPlainScalarValid.html#L4YAML.Proofs.ScannerPlainScalarValid.FlowContextPSV_of_prefix_and_new._proof_1_3" xlink:title="ScannerPlainScalarValid.FlowContextPSV_of_prefix_and_new._proof_1_3\n(ScannerPlainScalarValid)" target="_blank">
<ellipse fill="#d4edda" stroke="#28a745" cx="757.28" cy="-417" rx="239" ry="21.43"/>
<text text-anchor="middle" x="757.28" y="-420" font-family="Helvetica" font-size="10.00">ScannerPlainScalarValid.FlowContextPSV_of_prefix_and_new._proof_1_3</text>
<text text-anchor="middle" x="757.28" y="-409" font-family="Helvetica" font-size="10.00">(ScannerPlainScalarValid)</text>
</a>
</g>
</g>
<!-- L4YAML.Proofs.ScannerPlainScalarValid.FlowContextPSV_of_prefix_and_new._proof_1_3&#45;&gt;L4YAML.Positioned -->
<g id="edge25" class="edge">
<title>L4YAML.Proofs.ScannerPlainScalarValid.FlowContextPSV_of_prefix_and_new._proof_1_3&#45;&gt;L4YAML.Positioned</title>
<path fill="none" stroke="#999999" stroke-dasharray="1,5" d="M930.53,-431.69C955.49,-435.64 980.7,-440.65 1004.28,-447 1014.09,-449.64 1015.44,-453.48 1025.28,-456 1260.7,-516.19 1556.04,-520.76 1656.52,-520.41"/>
<polygon fill="#999999" stroke="#999999" points="1656.74,-522.16 1661.73,-520.38 1656.72,-518.66 1656.74,-522.16"/>
</g>
<!-- L4YAML.Proofs.ScannerPlainScalarValid.FlowContextPSV_of_prefix_and_new._proof_1_3&#45;&gt;L4YAML.YamlToken -->
<g id="edge26" class="edge">
<title>L4YAML.Proofs.ScannerPlainScalarValid.FlowContextPSV_of_prefix_and_new._proof_1_3&#45;&gt;L4YAML.YamlToken</title>
<path fill="none" stroke="#999999" stroke-dasharray="1,5" d="M969.71,-426.74C985.13,-427.49 1000.45,-428.25 1015.28,-429 1259.97,-441.4 1554.34,-458.11 1655.6,-463.91"/>
<polygon fill="#999999" stroke="#999999" points="1655.75,-465.68 1660.84,-464.22 1655.95,-462.18 1655.75,-465.68"/>
</g>
<!-- L4YAML.Proofs.ScannerPlainScalarValid.FlowContextPSV_of_prefix_and_new._proof_1_3&#45;&gt;L4YAML.Proofs.ScannerPlainScalarValid.FlowContextPSV_of_prefix_and_new -->
<g id="edge11" class="edge">
<title>L4YAML.Proofs.ScannerPlainScalarValid.FlowContextPSV_of_prefix_and_new._proof_1_3&#45;&gt;L4YAML.Proofs.ScannerPlainScalarValid.FlowContextPSV_of_prefix_and_new</title>
<path fill="none" stroke="#28a745" d="M963.62,-406.16C978.27,-400.01 992.05,-392.09 1004.28,-382 1014.8,-373.32 1003.94,-361.89 1014.28,-353 1029.27,-340.12 1046.6,-330.27 1065.04,-322.78"/>
<polygon fill="#28a745" stroke="#28a745" points="1066.24,-324.94 1071.88,-320.13 1064.47,-320.37 1066.24,-324.94"/>
</g>
<!-- L4YAML.Proofs.ScannerPlainScalarValid.FlowContextPSV_of_prefix_and_new._proof_1_1 -->
<g id="node16" class="node">
<title>L4YAML.Proofs.ScannerPlainScalarValid.FlowContextPSV_of_prefix_and_new._proof_1_1</title>
<g id="a_node16"><a xlink:href="../../../api/L4YAML/Proofs/ScannerPlainScalarValid.html#L4YAML.Proofs.ScannerPlainScalarValid.FlowContextPSV_of_prefix_and_new._proof_1_1" xlink:title="ScannerPlainScalarValid.FlowContextPSV_of_prefix_and_new._proof_1_1\n(ScannerPlainScalarValid)" target="_blank">
<ellipse fill="#d4edda" stroke="#28a745" cx="757.28" cy="-537" rx="239" ry="21.43"/>
<text text-anchor="middle" x="757.28" y="-540" font-family="Helvetica" font-size="10.00">ScannerPlainScalarValid.FlowContextPSV_of_prefix_and_new._proof_1_1</text>
<text text-anchor="middle" x="757.28" y="-529" font-family="Helvetica" font-size="10.00">(ScannerPlainScalarValid)</text>
</a>
</g>
</g>
<!-- L4YAML.Proofs.ScannerPlainScalarValid.FlowContextPSV_of_prefix_and_new._proof_1_1&#45;&gt;L4YAML.Positioned -->
<g id="edge27" class="edge">
<title>L4YAML.Proofs.ScannerPlainScalarValid.FlowContextPSV_of_prefix_and_new._proof_1_1&#45;&gt;L4YAML.Positioned</title>
<path fill="none" stroke="#999999" stroke-dasharray="1,5" d="M975.25,-545.88C985.77,-551.57 995.56,-558.53 1004.28,-567 1025.56,-587.67 994.55,-610.84 1014.28,-633 1166.96,-804.48 1299.02,-673.08 1528.36,-684 1539.46,-684.53 1543.28,-688.68 1553.36,-684 1616.6,-654.63 1661.38,-580.59 1680.91,-542.86"/>
<polygon fill="#999999" stroke="#999999" points="1682.67,-543.26 1683.38,-538.01 1679.55,-541.67 1682.67,-543.26"/>
</g>
<!-- L4YAML.Proofs.ScannerPlainScalarValid.FlowContextPSV_of_prefix_and_new._proof_1_1&#45;&gt;L4YAML.YamlToken -->
<g id="edge28" class="edge">
<title>L4YAML.Proofs.ScannerPlainScalarValid.FlowContextPSV_of_prefix_and_new._proof_1_1&#45;&gt;L4YAML.YamlToken</title>
<path fill="none" stroke="#999999" stroke-dasharray="1,5" d="M912.29,-553.21C1102,-570.81 1412.18,-591.16 1518.36,-549 1538.23,-541.11 1541.07,-533.49 1553.36,-516 1559.77,-506.88 1554.72,-500.04 1563.36,-493 1589.23,-471.92 1627.53,-466.12 1655.59,-465.01"/>
<polygon fill="#999999" stroke="#999999" points="1655.76,-466.76 1660.7,-464.86 1655.65,-463.26 1655.76,-466.76"/>
</g>
<!-- L4YAML.Proofs.ScannerPlainScalarValid.FlowContextPSV_of_prefix_and_new._proof_1_1&#45;&gt;L4YAML.Proofs.ScannerPlainScalarValid.FlowContextPSV_of_prefix_and_new -->
<g id="edge12" class="edge">
<title>L4YAML.Proofs.ScannerPlainScalarValid.FlowContextPSV_of_prefix_and_new._proof_1_1&#45;&gt;L4YAML.Proofs.ScannerPlainScalarValid.FlowContextPSV_of_prefix_and_new</title>
<path fill="none" stroke="#28a745" d="M969.54,-527.19C981.9,-521.84 993.62,-515.2 1004.28,-507 1013.76,-499.7 1006.8,-491.34 1014.28,-482 1069.45,-413.08 1158.75,-360.42 1216.11,-331.35"/>
<polygon fill="#28a745" stroke="#28a745" points="1217.44,-333.43 1222.59,-328.1 1215.24,-329.05 1217.44,-333.43"/>
</g>
<!-- Decidable.byContradiction -->
<g id="node17" class="node">
<title>Decidable.byContradiction</title>
<g id="a_node17"><a xlink:href="../../../api/Init/Core.html#Decidable.byContradiction" xlink:title="Decidable.byContradiction" target="_blank">
<ellipse fill="#fdebd0" stroke="#e67e22" cx="757.28" cy="-302" rx="77.23" ry="18"/>
<text text-anchor="middle" x="757.28" y="-299.5" font-family="Helvetica" font-size="10.00">Decidable.byContradiction</text>
</a>
</g>
</g>
<!-- Decidable.byContradiction&#45;&gt;L4YAML.Proofs.ScannerPlainScalarValid.FlowContextPSV_of_prefix_and_new -->
<g id="edge16" class="edge">
<title>Decidable.byContradiction&#45;&gt;L4YAML.Proofs.ScannerPlainScalarValid.FlowContextPSV_of_prefix_and_new</title>
<path fill="none" stroke="#e67e22" stroke-width="2" d="M834.47,-302.14C885.61,-302.27 954.49,-302.52 1015.28,-303 1018.86,-303.03 1022.47,-303.06 1026.11,-303.09"/>
<polygon fill="#e67e22" stroke="#e67e22" stroke-width="2" points="1026.1,-305.54 1033.12,-303.15 1026.14,-300.64 1026.1,-305.54"/>
</g>
</g>
</svg>
