<?xml version="1.0" encoding="UTF-8" standalone="no"?>
<!DOCTYPE svg PUBLIC "-//W3C//DTD SVG 1.1//EN"
 "http://www.w3.org/Graphics/SVG/1.1/DTD/svg11.dtd">
<!-- Generated by graphviz version 2.44.0 (0)
 -->
<!-- Title: ScannerCorrectness.scanFlowMappingStart_adds_one_token Pages: 1 -->
<svg width="1049pt" height="504pt"
 viewBox="0.00 0.00 1049.11 504.00" xmlns="http://www.w3.org/2000/svg" xmlns:xlink="http://www.w3.org/1999/xlink">
<g id="graph0" class="graph" transform="scale(1 1) rotate(0) translate(4 500)">
<title>ScannerCorrectness.scanFlowMappingStart_adds_one_token</title>
<polygon fill="white" stroke="transparent" points="-4,4 -4,-500 1045.11,-500 1045.11,4 -4,4"/>
<text text-anchor="middle" x="520.55" y="-481.6" font-family="Helvetica Bold" font-size="13.00">ScannerCorrectness.scanFlowMappingStart_adds_one_token</text>
<text text-anchor="middle" x="520.55" y="-467.6" font-family="Helvetica Bold" font-size="13.00">(heuristic: used by 6 proofs)</text>
<text text-anchor="middle" x="520.55" y="-453.6" font-family="Helvetica Bold" font-size="13.00">(L4YAML.Proofs.ScannerCorrectness)</text>
<g id="clust1" class="cluster">
<title>cluster_functions</title>
<polygon fill="none" stroke="#4a90d9" stroke-dasharray="5,2" points="545.07,-148 545.07,-438 1033.11,-438 1033.11,-148 545.07,-148"/>
<text text-anchor="middle" x="789.09" y="-423.6" font-family="Helvetica Bold" font-size="13.00" fill="#4a90d9">Functions</text>
</g>
<g id="clust2" class="cluster">
<title>cluster_key</title>
<polygon fill="none" stroke="#d4a017" stroke-dasharray="5,2" points="366.03,-58 366.03,-140 855.11,-140 855.11,-58 366.03,-58"/>
<text text-anchor="middle" x="610.57" y="-125.6" font-family="Helvetica Bold" font-size="13.00" fill="#d4a017">Key Theorem</text>
</g>
<g id="clust3" class="cluster">
<title>cluster_proofs</title>
<polygon fill="none" stroke="#28a745" stroke-dasharray="5,2" points="8,-249 8,-329 345.03,-329 345.03,-249 8,-249"/>
<text text-anchor="middle" x="176.51" y="-314.6" font-family="Helvetica Bold" font-size="13.00" fill="#28a745">Proof Dependencies</text>
</g>
<g id="clust4" class="cluster">
<title>cluster_stdlib</title>
<polygon fill="none" stroke="#e67e22" stroke-dasharray="5,2" points="117.89,-8 117.89,-190 235.14,-190 235.14,-8 117.89,-8"/>
<text text-anchor="middle" x="176.51" y="-175.6" font-family="Helvetica Bold" font-size="13.00" fill="#e67e22">Stdlib Lemmas</text>
</g>
<!-- L4YAML.Positioned -->
<g id="node1" class="node">
<title>L4YAML.Positioned</title>
<g id="a_node1"><a xlink:href="../../../api/L4YAML/Token.html#L4YAML.Positioned" xlink:title="Positioned\n(inductive)" target="_blank">
<polygon fill="#dce9f7" stroke="#4a90d9" points="997.61,-300 935.61,-300 935.61,-264 997.61,-264 997.61,-300"/>
<text text-anchor="middle" x="966.61" y="-285" font-family="Helvetica" font-size="10.00">Positioned</text>
<text text-anchor="middle" x="966.61" y="-274" font-family="Helvetica" font-size="10.00">(inductive)</text>
</a>
</g>
</g>
<!-- L4YAML.Scanner.ScannerState.advance -->
<g id="node2" class="node">
<title>L4YAML.Scanner.ScannerState.advance</title>
<g id="a_node2"><a xlink:href="../../../api/L4YAML/Scanner.html#L4YAML.Scanner.ScannerState.advance" xlink:title="ScannerState.advance\n(def)" target="_blank">
<polygon fill="#dce9f7" stroke="#4a90d9" points="668.07,-408 553.07,-408 553.07,-372 668.07,-372 668.07,-408"/>
<text text-anchor="middle" x="610.57" y="-393" font-family="Helvetica" font-size="10.00">ScannerState.advance</text>
<text text-anchor="middle" x="610.57" y="-382" font-family="Helvetica" font-size="10.00">(def)</text>
</a>
</g>
</g>
<!-- L4YAML.Scanner.scanFlowMappingStart -->
<g id="node3" class="node">
<title>L4YAML.Scanner.scanFlowMappingStart</title>
<g id="a_node3"><a xlink:href="../../../api/L4YAML/Scanner.html#L4YAML.Scanner.scanFlowMappingStart" xlink:title="scanFlowMappingStart\n(def)" target="_blank">
<polygon fill="#dce9f7" stroke="#4a90d9" points="1025.11,-192 908.11,-192 908.11,-156 1025.11,-156 1025.11,-192"/>
<text text-anchor="middle" x="966.61" y="-177" font-family="Helvetica" font-size="10.00">scanFlowMappingStart</text>
<text text-anchor="middle" x="966.61" y="-166" font-family="Helvetica" font-size="10.00">(def)</text>
</a>
</g>
</g>
<!-- L4YAML.Scanner.ScannerState -->
<g id="node4" class="node">
<title>L4YAML.Scanner.ScannerState</title>
<g id="a_node4"><a xlink:href="../../../api/L4YAML/Scanner.html#L4YAML.Scanner.ScannerState" xlink:title="ScannerState\n(inductive)" target="_blank">
<polygon fill="#dce9f7" stroke="#4a90d9" points="1004.61,-246 928.61,-246 928.61,-210 1004.61,-210 1004.61,-246"/>
<text text-anchor="middle" x="966.61" y="-231" font-family="Helvetica" font-size="10.00">ScannerState</text>
<text text-anchor="middle" x="966.61" y="-220" font-family="Helvetica" font-size="10.00">(inductive)</text>
</a>
</g>
</g>
<!-- L4YAML.YamlToken -->
<g id="node5" class="node">
<title>L4YAML.YamlToken</title>
<g id="a_node5"><a xlink:href="../../../api/L4YAML/Token.html#L4YAML.YamlToken" xlink:title="YamlToken\n(inductive)" target="_blank">
<polygon fill="#dce9f7" stroke="#4a90d9" points="998.61,-354 934.61,-354 934.61,-318 998.61,-318 998.61,-354"/>
<text text-anchor="middle" x="966.61" y="-339" font-family="Helvetica" font-size="10.00">YamlToken</text>
<text text-anchor="middle" x="966.61" y="-328" font-family="Helvetica" font-size="10.00">(inductive)</text>
</a>
</g>
</g>
<!-- L4YAML.Scanner.ScannerState.tokens -->
<g id="node6" class="node">
<title>L4YAML.Scanner.ScannerState.tokens</title>
<g id="a_node6"><a xlink:href="../../../api/L4YAML/Scanner.html#L4YAML.Scanner.ScannerState.tokens" xlink:title="ScannerState.tokens\n(def)" target="_blank">
<polygon fill="#dce9f7" stroke="#4a90d9" points="1020.11,-408 913.11,-408 913.11,-372 1020.11,-372 1020.11,-408"/>
<text text-anchor="middle" x="966.61" y="-393" font-family="Helvetica" font-size="10.00">ScannerState.tokens</text>
<text text-anchor="middle" x="966.61" y="-382" font-family="Helvetica" font-size="10.00">(def)</text>
</a>
</g>
</g>
<!-- L4YAML.Proofs.ScannerCorrectness.scanFlowMappingStart_adds_one_token -->
<g id="node7" class="node">
<title>L4YAML.Proofs.ScannerCorrectness.scanFlowMappingStart_adds_one_token</title>
<g id="a_node7"><a xlink:href="../../../api/L4YAML/Proofs/ScannerCorrectness.html#L4YAML.Proofs.ScannerCorrectness.scanFlowMappingStart_adds_one_token" xlink:title="ScannerCorrectness.scanFlowMappingStart_adds_one_token" target="_blank">
<polygon fill="#fff3cd" stroke="#d4a017" points="843.15,-80.54 843.15,-95.46 706.91,-106 514.23,-106 377.99,-95.46 377.99,-80.54 514.23,-70 706.91,-70 843.15,-80.54"/>
<polygon fill="none" stroke="#d4a017" points="847.15,-76.84 847.15,-99.16 707.06,-110 514.07,-110 373.99,-99.16 373.99,-76.84 514.07,-66 707.06,-66 847.15,-76.84"/>
<text text-anchor="middle" x="610.57" y="-84.9" font-family="Helvetica" font-size="12.00">ScannerCorrectness.scanFlowMappingStart_adds_one_token</text>
</a>
</g>
</g>
<!-- L4YAML.Proofs.ScannerCorrectness.scanFlowMappingStart_adds_one_token&#45;&gt;L4YAML.Positioned -->
<g id="edge2" class="edge">
<title>L4YAML.Proofs.ScannerCorrectness.scanFlowMappingStart_adds_one_token&#45;&gt;L4YAML.Positioned</title>
<path fill="none" stroke="#4a90d9" stroke-width="2" d="M787.14,-103.92C812.33,-112.76 836.1,-125.58 855.11,-144 867.65,-156.15 858.39,-165.88 865.11,-182 866.92,-186.34 904.63,-251.83 908.11,-255 914.1,-260.46 921.39,-265.01 928.74,-268.72"/>
<polygon fill="#4a90d9" stroke="#4a90d9" stroke-width="2" points="928.1,-271.13 935.47,-271.9 930.19,-266.69 928.1,-271.13"/>
<text text-anchor="middle" x="877.61" y="-227.6" font-family="Times-Roman" font-size="8.00" fill="#4a90d9">about</text>
</g>
<!-- L4YAML.Proofs.ScannerCorrectness.scanFlowMappingStart_adds_one_token&#45;&gt;L4YAML.Scanner.scanFlowMappingStart -->
<g id="edge5" class="edge">
<title>L4YAML.Proofs.ScannerCorrectness.scanFlowMappingStart_adds_one_token&#45;&gt;L4YAML.Scanner.scanFlowMappingStart</title>
<path fill="none" stroke="#4a90d9" stroke-width="2" d="M805.32,-102.43C834.26,-107.81 863.34,-115.11 890.11,-125 907.01,-131.25 924.01,-141.81 937.59,-151.53"/>
<polygon fill="#4a90d9" stroke="#4a90d9" stroke-width="2" points="936.48,-153.76 943.57,-155.92 939.38,-149.81 936.48,-153.76"/>
<text text-anchor="middle" x="877.61" y="-127.6" font-family="Times-Roman" font-size="8.00" fill="#4a90d9">about</text>
</g>
<!-- L4YAML.Proofs.ScannerCorrectness.scanFlowMappingStart_adds_one_token&#45;&gt;L4YAML.Scanner.ScannerState -->
<g id="edge4" class="edge">
<title>L4YAML.Proofs.ScannerCorrectness.scanFlowMappingStart_adds_one_token&#45;&gt;L4YAML.Scanner.ScannerState</title>
<path fill="none" stroke="#4a90d9" stroke-width="2" d="M739.49,-107.53C777.7,-115.96 819.01,-127.74 855.11,-144 872.54,-151.85 877.34,-154.77 890.11,-169 901.01,-181.14 896.15,-189.89 908.11,-201 912.26,-204.85 917.05,-208.25 922.07,-211.21"/>
<polygon fill="#4a90d9" stroke="#4a90d9" stroke-width="2" points="921.19,-213.52 928.51,-214.74 923.55,-209.23 921.19,-213.52"/>
<text text-anchor="middle" x="877.61" y="-171.6" font-family="Times-Roman" font-size="8.00" fill="#4a90d9">about</text>
</g>
<!-- L4YAML.Proofs.ScannerCorrectness.scanFlowMappingStart_adds_one_token&#45;&gt;L4YAML.YamlToken -->
<g id="edge3" class="edge">
<title>L4YAML.Proofs.ScannerCorrectness.scanFlowMappingStart_adds_one_token&#45;&gt;L4YAML.YamlToken</title>
<path fill="none" stroke="#4a90d9" stroke-width="2" d="M794.52,-103.36C817.53,-112.46 838.7,-125.5 855.11,-144 869.04,-159.72 858.4,-218.09 865.11,-238 868.06,-246.74 901.25,-302.83 908.11,-309 913.88,-314.2 920.83,-318.58 927.87,-322.2"/>
<polygon fill="#4a90d9" stroke="#4a90d9" stroke-width="2" points="926.97,-324.48 934.34,-325.31 929.09,-320.06 926.97,-324.48"/>
<text text-anchor="middle" x="877.61" y="-284.6" font-family="Times-Roman" font-size="8.00" fill="#4a90d9">about</text>
</g>
<!-- L4YAML.Proofs.ScannerCorrectness.scanFlowMappingStart_adds_one_token&#45;&gt;L4YAML.Scanner.ScannerState.tokens -->
<g id="edge1" class="edge">
<title>L4YAML.Proofs.ScannerCorrectness.scanFlowMappingStart_adds_one_token&#45;&gt;L4YAML.Scanner.ScannerState.tokens</title>
<path fill="none" stroke="#4a90d9" stroke-width="2" d="M796.1,-103.14C818.66,-112.3 839.29,-125.42 855.11,-144 866.01,-156.8 859.9,-279.01 865.11,-295 867.88,-303.5 901.41,-357.09 908.11,-363 910.09,-364.74 912.19,-366.4 914.39,-367.96"/>
<polygon fill="#4a90d9" stroke="#4a90d9" stroke-width="2" points="913.2,-370.11 920.4,-371.9 915.89,-366.01 913.2,-370.11"/>
<text text-anchor="middle" x="877.61" y="-339.6" font-family="Times-Roman" font-size="8.00" fill="#4a90d9">about</text>
</g>
<!-- L4YAML.Proofs.ScannerCorrectness.advance_preserves_tokens -->
<g id="node8" class="node">
<title>L4YAML.Proofs.ScannerCorrectness.advance_preserves_tokens</title>
<g id="a_node8"><a xlink:href="../../../api/L4YAML/Proofs/ScannerCorrectness.html#L4YAML.Proofs.ScannerCorrectness.advance_preserves_tokens" xlink:title="ScannerCorrectness.advance_preserves_tokens\n(ScannerCorrectness)" target="_blank">
<ellipse fill="#d4edda" stroke="#28a745" cx="176.51" cy="-278" rx="160.53" ry="21.43"/>
<text text-anchor="middle" x="176.51" y="-281" font-family="Helvetica" font-size="10.00">ScannerCorrectness.advance_preserves_tokens</text>
<text text-anchor="middle" x="176.51" y="-270" font-family="Helvetica" font-size="10.00">(ScannerCorrectness)</text>
</a>
</g>
</g>
<!-- L4YAML.Proofs.ScannerCorrectness.advance_preserves_tokens&#45;&gt;L4YAML.Positioned -->
<g id="edge12" class="edge">
<title>L4YAML.Proofs.ScannerCorrectness.advance_preserves_tokens&#45;&gt;L4YAML.Positioned</title>
<path fill="none" stroke="#999999" stroke-dasharray="1,5" d="M333.84,-273.62C473.19,-269.94 682.73,-264.99 865.11,-263 876.22,-262.88 879.08,-261.63 890.11,-263 903.49,-264.66 917.91,-267.91 930.52,-271.26"/>
<polygon fill="#999999" stroke="#999999" points="930.16,-272.97 935.44,-272.6 931.08,-269.6 930.16,-272.97"/>
</g>
<!-- L4YAML.Proofs.ScannerCorrectness.advance_preserves_tokens&#45;&gt;L4YAML.Scanner.ScannerState.advance -->
<g id="edge11" class="edge">
<title>L4YAML.Proofs.ScannerCorrectness.advance_preserves_tokens&#45;&gt;L4YAML.Scanner.ScannerState.advance</title>
<path fill="none" stroke="#999999" stroke-dasharray="1,5" d="M214.71,-298.73C249.8,-317.31 304.43,-343.77 355.03,-358 419.28,-376.07 495.53,-383.95 547.71,-387.38"/>
<polygon fill="#999999" stroke="#999999" points="547.9,-389.15 553,-387.72 548.12,-385.65 547.9,-389.15"/>
</g>
<!-- L4YAML.Proofs.ScannerCorrectness.advance_preserves_tokens&#45;&gt;L4YAML.Scanner.ScannerState -->
<g id="edge14" class="edge">
<title>L4YAML.Proofs.ScannerCorrectness.advance_preserves_tokens&#45;&gt;L4YAML.Scanner.ScannerState</title>
<path fill="none" stroke="#999999" stroke-dasharray="1,5" d="M288.58,-262.76C424.29,-244.98 661.04,-216.66 865.11,-206 876.2,-205.42 879.11,-204.43 890.11,-206 901.13,-207.57 912.78,-210.37 923.55,-213.46"/>
<polygon fill="#999999" stroke="#999999" points="923.14,-215.17 928.43,-214.9 924.13,-211.81 923.14,-215.17"/>
</g>
<!-- L4YAML.Proofs.ScannerCorrectness.advance_preserves_tokens&#45;&gt;L4YAML.YamlToken -->
<g id="edge13" class="edge">
<title>L4YAML.Proofs.ScannerCorrectness.advance_preserves_tokens&#45;&gt;L4YAML.YamlToken</title>
<path fill="none" stroke="#999999" stroke-dasharray="1,5" d="M326.55,-285.59C519.07,-295.58 836.03,-312.72 890.11,-320 903.01,-321.74 916.98,-324.46 929.37,-327.17"/>
<polygon fill="#999999" stroke="#999999" points="929.31,-328.95 934.57,-328.33 930.07,-325.53 929.31,-328.95"/>
</g>
<!-- L4YAML.Proofs.ScannerCorrectness.advance_preserves_tokens&#45;&gt;L4YAML.Scanner.ScannerState.tokens -->
<g id="edge10" class="edge">
<title>L4YAML.Proofs.ScannerCorrectness.advance_preserves_tokens&#45;&gt;L4YAML.Scanner.ScannerState.tokens</title>
<path fill="none" stroke="#999999" stroke-dasharray="1,5" d="M258.85,-296.3C291.96,-303.26 330.69,-310.75 366.03,-316 582.03,-348.06 639.8,-326.54 855.11,-363 872.4,-365.93 891,-370.07 907.91,-374.24"/>
<polygon fill="#999999" stroke="#999999" points="907.82,-376.02 913.1,-375.53 908.67,-372.63 907.82,-376.02"/>
</g>
<!-- L4YAML.Proofs.ScannerCorrectness.advance_preserves_tokens&#45;&gt;L4YAML.Proofs.ScannerCorrectness.scanFlowMappingStart_adds_one_token -->
<g id="edge6" class="edge">
<title>L4YAML.Proofs.ScannerCorrectness.advance_preserves_tokens&#45;&gt;L4YAML.Proofs.ScannerCorrectness.scanFlowMappingStart_adds_one_token</title>
<path fill="none" stroke="#28a745" d="M240.76,-258.5C275.36,-245.09 316.81,-224.18 345.03,-194 361.49,-176.39 347.59,-159.52 366.03,-144 385.99,-127.2 410,-115.21 435.07,-106.68"/>
<polygon fill="#28a745" stroke="#28a745" points="435.92,-108.98 441.82,-104.48 434.4,-104.33 435.92,-108.98"/>
</g>
<!-- eq_self -->
<g id="node9" class="node">
<title>eq_self</title>
<g id="a_node9"><a xlink:href="../../../api/Init/SimpLemmas.html#eq_self" xlink:title="eq_self" target="_blank">
<ellipse fill="#fdebd0" stroke="#e67e22" cx="176.51" cy="-142" rx="28.01" ry="18"/>
<text text-anchor="middle" x="176.51" y="-139.5" font-family="Helvetica" font-size="10.00">eq_self</text>
</a>
</g>
</g>
<!-- eq_self&#45;&gt;L4YAML.Proofs.ScannerCorrectness.scanFlowMappingStart_adds_one_token -->
<g id="edge7" class="edge">
<title>eq_self&#45;&gt;L4YAML.Proofs.ScannerCorrectness.scanFlowMappingStart_adds_one_token</title>
<path fill="none" stroke="#e67e22" stroke-width="2" d="M204.54,-138.62C254.41,-132.39 364.3,-118.65 457.05,-107.06"/>
<polygon fill="#e67e22" stroke="#e67e22" stroke-width="2" points="457.62,-109.46 464.26,-106.16 457.01,-104.6 457.62,-109.46"/>
</g>
<!-- of_eq_true -->
<g id="node10" class="node">
<title>of_eq_true</title>
<g id="a_node10"><a xlink:href="../../../api/Init/SimpLemmas.html#of_eq_true" xlink:title="of_eq_true" target="_blank">
<ellipse fill="#fdebd0" stroke="#e67e22" cx="176.51" cy="-88" rx="36.49" ry="18"/>
<text text-anchor="middle" x="176.51" y="-85.5" font-family="Helvetica" font-size="10.00">of_eq_true</text>
</a>
</g>
</g>
<!-- of_eq_true&#45;&gt;L4YAML.Proofs.ScannerCorrectness.scanFlowMappingStart_adds_one_token -->
<g id="edge8" class="edge">
<title>of_eq_true&#45;&gt;L4YAML.Proofs.ScannerCorrectness.scanFlowMappingStart_adds_one_token</title>
<path fill="none" stroke="#e67e22" stroke-width="2" d="M213.24,-88C248.72,-88 306.43,-88 366.98,-88"/>
<polygon fill="#e67e22" stroke="#e67e22" stroke-width="2" points="366.99,-90.45 373.99,-88 366.99,-85.55 366.99,-90.45"/>
</g>
<!-- Array.size_push -->
<g id="node11" class="node">
<title>Array.size_push</title>
<g id="a_node11"><a xlink:href="../../../api/Init/Data/Array/Basic.html#Array.size_push" xlink:title="Array.size_push" target="_blank">
<ellipse fill="#fdebd0" stroke="#e67e22" cx="176.51" cy="-34" rx="50.75" ry="18"/>
<text text-anchor="middle" x="176.51" y="-31.5" font-family="Helvetica" font-size="10.00">Array.size_push</text>
</a>
</g>
</g>
<!-- Array.size_push&#45;&gt;L4YAML.Proofs.ScannerCorrectness.scanFlowMappingStart_adds_one_token -->
<g id="edge9" class="edge">
<title>Array.size_push&#45;&gt;L4YAML.Proofs.ScannerCorrectness.scanFlowMappingStart_adds_one_token</title>
<path fill="none" stroke="#e67e22" stroke-width="2" d="M224.57,-39.88C279.98,-46.81 374.83,-58.66 456.51,-68.87"/>
<polygon fill="#e67e22" stroke="#e67e22" stroke-width="2" points="456.62,-71.35 463.87,-69.79 457.22,-66.49 456.62,-71.35"/>
</g>
</g>
</svg>
