<?xml version="1.0" encoding="UTF-8" standalone="no"?>
<!DOCTYPE svg PUBLIC "-//W3C//DTD SVG 1.1//EN"
 "http://www.w3.org/Graphics/SVG/1.1/DTD/svg11.dtd">
<!-- Generated by graphviz version 2.44.0 (0)
 -->
<!-- Title: ScannerCorrectness.ScanHelpers.parseBlockHeaderLoop_preserves_tokens Pages: 1 -->
<svg width="1393pt" height="757pt"
 viewBox="0.00 0.00 1392.70 756.98" xmlns="http://www.w3.org/2000/svg" xmlns:xlink="http://www.w3.org/1999/xlink">
<g id="graph0" class="graph" transform="scale(1 1) rotate(0) translate(4 752.98)">
<title>ScannerCorrectness.ScanHelpers.parseBlockHeaderLoop_preserves_tokens</title>
<polygon fill="white" stroke="transparent" points="-4,4 -4,-752.98 1388.7,-752.98 1388.7,4 -4,4"/>
<text text-anchor="middle" x="692.35" y="-734.58" font-family="Helvetica Bold" font-size="13.00">ScannerCorrectness.ScanHelpers.parseBlockHeaderLoop_preserves_tokens</text>
<text text-anchor="middle" x="692.35" y="-720.58" font-family="Helvetica Bold" font-size="13.00">(heuristic: used by 5 proofs)</text>
<text text-anchor="middle" x="692.35" y="-706.58" font-family="Helvetica Bold" font-size="13.00">(L4YAML.Proofs.ScannerCorrectness)</text>
<g id="clust1" class="cluster">
<title>cluster_functions</title>
<polygon fill="none" stroke="#4a90d9" stroke-dasharray="5,2" points="801.52,-98 801.52,-442 1376.7,-442 1376.7,-98 801.52,-98"/>
<text text-anchor="middle" x="1089.11" y="-427.6" font-family="Helvetica Bold" font-size="13.00" fill="#4a90d9">Functions</text>
</g>
<g id="clust2" class="cluster">
<title>cluster_key</title>
<polygon fill="none" stroke="#d4a017" stroke-dasharray="5,2" points="598.34,-8 598.34,-90 1196.7,-90 1196.7,-8 598.34,-8"/>
<text text-anchor="middle" x="897.52" y="-75.6" font-family="Helvetica Bold" font-size="13.00" fill="#d4a017">Key Theorem</text>
</g>
<g id="clust3" class="cluster">
<title>cluster_proofs</title>
<polygon fill="none" stroke="#28a745" stroke-dasharray="5,2" points="124.16,-381 124.16,-521 461.18,-521 461.18,-381 124.16,-381"/>
<text text-anchor="middle" x="292.67" y="-506.6" font-family="Helvetica Bold" font-size="13.00" fill="#28a745">Proof Dependencies</text>
</g>
<g id="clust4" class="cluster">
<title>cluster_stdlib</title>
<polygon fill="none" stroke="#e67e22" stroke-dasharray="5,2" points="8,-14 8,-196 577.34,-196 577.34,-14 8,-14"/>
<text text-anchor="middle" x="292.67" y="-181.6" font-family="Helvetica Bold" font-size="13.00" fill="#e67e22">Stdlib Lemmas</text>
</g>
<!-- L4YAML.Scanner.parseBlockHeaderLoop.match_1 -->
<g id="node1" class="node">
<title>L4YAML.Scanner.parseBlockHeaderLoop.match_1</title>
<polygon fill="#dce9f7" stroke="#4a90d9" points="977.02,-142 818.02,-142 818.02,-106 977.02,-106 977.02,-142"/>
<text text-anchor="middle" x="897.52" y="-127" font-family="Helvetica" font-size="10.00">parseBlockHeaderLoop.match_1</text>
<text text-anchor="middle" x="897.52" y="-116" font-family="Helvetica" font-size="10.00">(def)</text>
</g>
<!-- L4YAML.ChompStyle -->
<g id="node2" class="node">
<title>L4YAML.ChompStyle</title>
<polygon fill="#dce9f7" stroke="#4a90d9" points="1344.7,-196 1273.7,-196 1273.7,-160 1344.7,-160 1344.7,-196"/>
<text text-anchor="middle" x="1309.2" y="-181" font-family="Helvetica" font-size="10.00">ChompStyle</text>
<text text-anchor="middle" x="1309.2" y="-170" font-family="Helvetica" font-size="10.00">(inductive)</text>
</g>
<!-- L4YAML.Positioned -->
<g id="node3" class="node">
<title>L4YAML.Positioned</title>
<polygon fill="#dce9f7" stroke="#4a90d9" points="1340.2,-250 1278.2,-250 1278.2,-214 1340.2,-214 1340.2,-250"/>
<text text-anchor="middle" x="1309.2" y="-235" font-family="Helvetica" font-size="10.00">Positioned</text>
<text text-anchor="middle" x="1309.2" y="-224" font-family="Helvetica" font-size="10.00">(inductive)</text>
</g>
<!-- L4YAML.Scanner.ScannerState.advance -->
<g id="node4" class="node">
<title>L4YAML.Scanner.ScannerState.advance</title>
<polygon fill="#dce9f7" stroke="#4a90d9" points="955.02,-412 840.02,-412 840.02,-376 955.02,-376 955.02,-412"/>
<text text-anchor="middle" x="897.52" y="-397" font-family="Helvetica" font-size="10.00">ScannerState.advance</text>
<text text-anchor="middle" x="897.52" y="-386" font-family="Helvetica" font-size="10.00">(def)</text>
</g>
<!-- L4YAML.Scanner.ScannerState.peek? -->
<g id="node5" class="node">
<title>L4YAML.Scanner.ScannerState.peek?</title>
<polygon fill="#dce9f7" stroke="#4a90d9" points="949.52,-358 845.52,-358 845.52,-322 949.52,-322 949.52,-358"/>
<text text-anchor="middle" x="897.52" y="-343" font-family="Helvetica" font-size="10.00">ScannerState.peek?</text>
<text text-anchor="middle" x="897.52" y="-332" font-family="Helvetica" font-size="10.00">(def)</text>
</g>
<!-- L4YAML.Scanner.parseBlockHeaderLoop -->
<g id="node6" class="node">
<title>L4YAML.Scanner.parseBlockHeaderLoop</title>
<polygon fill="#dce9f7" stroke="#4a90d9" points="1368.7,-142 1249.7,-142 1249.7,-106 1368.7,-106 1368.7,-142"/>
<text text-anchor="middle" x="1309.2" y="-127" font-family="Helvetica" font-size="10.00">parseBlockHeaderLoop</text>
<text text-anchor="middle" x="1309.2" y="-116" font-family="Helvetica" font-size="10.00">(def)</text>
</g>
<!-- L4YAML.Scanner.ScannerState -->
<g id="node7" class="node">
<title>L4YAML.Scanner.ScannerState</title>
<polygon fill="#dce9f7" stroke="#4a90d9" points="1347.2,-358 1271.2,-358 1271.2,-322 1347.2,-322 1347.2,-358"/>
<text text-anchor="middle" x="1309.2" y="-343" font-family="Helvetica" font-size="10.00">ScannerState</text>
<text text-anchor="middle" x="1309.2" y="-332" font-family="Helvetica" font-size="10.00">(inductive)</text>
</g>
<!-- L4YAML.YamlToken -->
<g id="node8" class="node">
<title>L4YAML.YamlToken</title>
<polygon fill="#dce9f7" stroke="#4a90d9" points="1341.2,-412 1277.2,-412 1277.2,-376 1341.2,-376 1341.2,-412"/>
<text text-anchor="middle" x="1309.2" y="-397" font-family="Helvetica" font-size="10.00">YamlToken</text>
<text text-anchor="middle" x="1309.2" y="-386" font-family="Helvetica" font-size="10.00">(inductive)</text>
</g>
<!-- L4YAML.ChompStyle.keep -->
<g id="node9" class="node">
<title>L4YAML.ChompStyle.keep</title>
<polygon fill="#dce9f7" stroke="#4a90d9" points="944.52,-304 850.52,-304 850.52,-268 944.52,-268 944.52,-304"/>
<text text-anchor="middle" x="897.52" y="-289" font-family="Helvetica" font-size="10.00">ChompStyle.keep</text>
<text text-anchor="middle" x="897.52" y="-278" font-family="Helvetica" font-size="10.00">(ctor)</text>
</g>
<!-- L4YAML.Scanner.ScannerState.peekAt?Loop.match_1 -->
<g id="node10" class="node">
<title>L4YAML.Scanner.ScannerState.peekAt?Loop.match_1</title>
<polygon fill="#dce9f7" stroke="#4a90d9" points="985.52,-250 809.52,-250 809.52,-214 985.52,-214 985.52,-250"/>
<text text-anchor="middle" x="897.52" y="-235" font-family="Helvetica" font-size="10.00">ScannerState.peekAt?Loop.match_1</text>
<text text-anchor="middle" x="897.52" y="-224" font-family="Helvetica" font-size="10.00">(def)</text>
</g>
<!-- L4YAML.Scanner.ScannerState.tokens -->
<g id="node11" class="node">
<title>L4YAML.Scanner.ScannerState.tokens</title>
<polygon fill="#dce9f7" stroke="#4a90d9" points="1362.7,-304 1255.7,-304 1255.7,-268 1362.7,-268 1362.7,-304"/>
<text text-anchor="middle" x="1309.2" y="-289" font-family="Helvetica" font-size="10.00">ScannerState.tokens</text>
<text text-anchor="middle" x="1309.2" y="-278" font-family="Helvetica" font-size="10.00">(def)</text>
</g>
<!-- L4YAML.ChompStyle.strip -->
<g id="node12" class="node">
<title>L4YAML.ChompStyle.strip</title>
<polygon fill="#dce9f7" stroke="#4a90d9" points="943.52,-196 851.52,-196 851.52,-160 943.52,-160 943.52,-196"/>
<text text-anchor="middle" x="897.52" y="-181" font-family="Helvetica" font-size="10.00">ChompStyle.strip</text>
<text text-anchor="middle" x="897.52" y="-170" font-family="Helvetica" font-size="10.00">(ctor)</text>
</g>
<!-- L4YAML.Proofs.ScannerCorrectness.ScanHelpers.parseBlockHeaderLoop_preserves_tokens -->
<g id="node13" class="node">
<title>L4YAML.Proofs.ScannerCorrectness.ScanHelpers.parseBlockHeaderLoop_preserves_tokens</title>
<polygon fill="#fff3cd" stroke="#d4a017" points="1184.88,-30.54 1184.88,-45.46 1016.55,-56 778.5,-56 610.17,-45.46 610.17,-30.54 778.5,-20 1016.55,-20 1184.88,-30.54"/>
<polygon fill="none" stroke="#d4a017" points="1188.88,-26.79 1188.88,-49.21 1016.67,-60 778.37,-60 606.16,-49.21 606.16,-26.79 778.37,-16 1016.67,-16 1188.88,-26.79"/>
<text text-anchor="middle" x="897.52" y="-34.9" font-family="Helvetica" font-size="12.00">ScannerCorrectness.ScanHelpers.parseBlockHeaderLoop_preserves_tokens</text>
</g>
<!-- L4YAML.Proofs.ScannerCorrectness.ScanHelpers.parseBlockHeaderLoop_preserves_tokens&#45;&gt;L4YAML.ChompStyle -->
<g id="edge3" class="edge">
<title>L4YAML.Proofs.ScannerCorrectness.ScanHelpers.parseBlockHeaderLoop_preserves_tokens&#45;&gt;L4YAML.ChompStyle</title>
<path fill="none" stroke="#4a90d9" stroke-width="2" d="M1117.63,-53.81C1146.16,-62.88 1173.49,-75.8 1196.7,-94 1205.15,-100.63 1200.14,-107.5 1206.7,-116 1221.75,-135.51 1228.79,-137.96 1249.7,-151 1255.14,-154.39 1261.07,-157.62 1267,-160.58"/>
<polygon fill="#4a90d9" stroke="#4a90d9" stroke-width="2" points="1266.05,-162.84 1273.42,-163.69 1268.19,-158.43 1266.05,-162.84"/>
<text text-anchor="middle" x="1219.2" y="-141.6" font-family="Times-Roman" font-size="8.00" fill="#4a90d9">about</text>
</g>
<!-- L4YAML.Proofs.ScannerCorrectness.ScanHelpers.parseBlockHeaderLoop_preserves_tokens&#45;&gt;L4YAML.Positioned -->
<g id="edge2" class="edge">
<title>L4YAML.Proofs.ScannerCorrectness.ScanHelpers.parseBlockHeaderLoop_preserves_tokens&#45;&gt;L4YAML.Positioned</title>
<path fill="none" stroke="#4a90d9" stroke-width="2" d="M1133.31,-52.86C1156.93,-62.49 1178.77,-75.8 1196.7,-94 1215.06,-112.63 1195.89,-128.18 1206.7,-152 1219.24,-179.62 1225.75,-186.38 1249.7,-205 1256.32,-210.15 1264.09,-214.6 1271.75,-218.32"/>
<polygon fill="#4a90d9" stroke="#4a90d9" stroke-width="2" points="1270.76,-220.56 1278.14,-221.27 1272.82,-216.11 1270.76,-220.56"/>
<text text-anchor="middle" x="1219.2" y="-191.6" font-family="Times-Roman" font-size="8.00" fill="#4a90d9">about</text>
</g>
<!-- L4YAML.Proofs.ScannerCorrectness.ScanHelpers.parseBlockHeaderLoop_preserves_tokens&#45;&gt;L4YAML.Scanner.parseBlockHeaderLoop -->
<g id="edge6" class="edge">
<title>L4YAML.Proofs.ScannerCorrectness.ScanHelpers.parseBlockHeaderLoop_preserves_tokens&#45;&gt;L4YAML.Scanner.parseBlockHeaderLoop</title>
<path fill="none" stroke="#4a90d9" stroke-width="2" d="M1024.83,-59.49C1078.07,-69.13 1140.6,-81.2 1196.7,-94 1211.7,-97.42 1227.73,-101.49 1242.82,-105.5"/>
<polygon fill="#4a90d9" stroke="#4a90d9" stroke-width="2" points="1242.28,-107.9 1249.68,-107.34 1243.55,-103.16 1242.28,-107.9"/>
<text text-anchor="middle" x="1219.2" y="-105.6" font-family="Times-Roman" font-size="8.00" fill="#4a90d9">about</text>
</g>
<!-- L4YAML.Proofs.ScannerCorrectness.ScanHelpers.parseBlockHeaderLoop_preserves_tokens&#45;&gt;L4YAML.Scanner.ScannerState -->
<g id="edge5" class="edge">
<title>L4YAML.Proofs.ScannerCorrectness.ScanHelpers.parseBlockHeaderLoop_preserves_tokens&#45;&gt;L4YAML.Scanner.ScannerState</title>
<path fill="none" stroke="#4a90d9" stroke-width="2" d="M1138.54,-52.4C1160.54,-62.25 1180.57,-75.74 1196.7,-94 1208.64,-107.52 1200.45,-239.08 1206.7,-256 1217.7,-285.77 1224.99,-293.08 1249.7,-313 1254.27,-316.68 1259.42,-319.99 1264.73,-322.92"/>
<polygon fill="#4a90d9" stroke="#4a90d9" stroke-width="2" points="1263.66,-325.13 1271,-326.19 1265.93,-320.78 1263.66,-325.13"/>
<text text-anchor="middle" x="1219.2" y="-299.6" font-family="Times-Roman" font-size="8.00" fill="#4a90d9">about</text>
</g>
<!-- L4YAML.Proofs.ScannerCorrectness.ScanHelpers.parseBlockHeaderLoop_preserves_tokens&#45;&gt;L4YAML.YamlToken -->
<g id="edge4" class="edge">
<title>L4YAML.Proofs.ScannerCorrectness.ScanHelpers.parseBlockHeaderLoop_preserves_tokens&#45;&gt;L4YAML.YamlToken</title>
<path fill="none" stroke="#4a90d9" stroke-width="2" d="M1139.54,-52.48C1161.2,-62.34 1180.89,-75.82 1196.7,-94 1212.46,-112.13 1198.55,-287.4 1206.7,-310 1217.47,-339.85 1224.99,-347.08 1249.7,-367 1255.9,-372 1263.18,-376.31 1270.45,-379.92"/>
<polygon fill="#4a90d9" stroke="#4a90d9" stroke-width="2" points="1269.72,-382.28 1277.1,-383.04 1271.81,-377.85 1269.72,-382.28"/>
<text text-anchor="middle" x="1219.2" y="-353.6" font-family="Times-Roman" font-size="8.00" fill="#4a90d9">about</text>
</g>
<!-- L4YAML.Proofs.ScannerCorrectness.ScanHelpers.parseBlockHeaderLoop_preserves_tokens&#45;&gt;L4YAML.Scanner.ScannerState.tokens -->
<g id="edge1" class="edge">
<title>L4YAML.Proofs.ScannerCorrectness.ScanHelpers.parseBlockHeaderLoop_preserves_tokens&#45;&gt;L4YAML.Scanner.ScannerState.tokens</title>
<path fill="none" stroke="#4a90d9" stroke-width="2" d="M1137.27,-52.59C1159.65,-62.37 1180.12,-75.79 1196.7,-94 1212.93,-111.82 1198,-179.52 1206.7,-202 1218.15,-231.59 1224.99,-239.08 1249.7,-259 1252,-260.86 1254.45,-262.62 1257,-264.28"/>
<polygon fill="#4a90d9" stroke="#4a90d9" stroke-width="2" points="1255.82,-266.44 1263.08,-267.99 1258.38,-262.25 1255.82,-266.44"/>
<text text-anchor="middle" x="1219.2" y="-245.6" font-family="Times-Roman" font-size="8.00" fill="#4a90d9">about</text>
</g>
<!-- L4YAML.Scanner.parseBlockHeaderLoop.eq_def -->
<g id="node14" class="node">
<title>L4YAML.Scanner.parseBlockHeaderLoop.eq_def</title>
<ellipse fill="#d4edda" stroke="#28a745" cx="292.67" cy="-410" rx="106.55" ry="21.43"/>
<text text-anchor="middle" x="292.67" y="-413" font-family="Helvetica" font-size="10.00">parseBlockHeaderLoop.eq_def</text>
<text text-anchor="middle" x="292.67" y="-402" font-family="Helvetica" font-size="10.00">(ScalarCoupling)</text>
</g>
<!-- L4YAML.Scanner.parseBlockHeaderLoop.eq_def&#45;&gt;L4YAML.Scanner.parseBlockHeaderLoop.match_1 -->
<g id="edge19" class="edge">
<title>L4YAML.Scanner.parseBlockHeaderLoop.eq_def&#45;&gt;L4YAML.Scanner.parseBlockHeaderLoop.match_1</title>
<path fill="none" stroke="#999999" stroke-dasharray="1,5" d="M332.26,-390.23C392.08,-357.85 507.59,-288.19 577.34,-200 592.04,-181.42 579.17,-164.92 598.34,-151 659.83,-106.35 748.33,-103.89 812.94,-110"/>
<polygon fill="#999999" stroke="#999999" points="812.79,-111.74 817.94,-110.49 813.14,-108.26 812.79,-111.74"/>
</g>
<!-- L4YAML.Scanner.parseBlockHeaderLoop.eq_def&#45;&gt;L4YAML.ChompStyle -->
<g id="edge15" class="edge">
<title>L4YAML.Scanner.parseBlockHeaderLoop.eq_def&#45;&gt;L4YAML.ChompStyle</title>
<path fill="none" stroke="#999999" stroke-dasharray="1,5" d="M392.91,-402.6C449.96,-402.57 521.22,-410.01 577.34,-440 583.47,-443.27 581.35,-448.5 587.34,-452 591.64,-454.5 593.4,-453.51 598.34,-454 867.46,-480.5 936.29,-461.78 1206.7,-464 1217.81,-464.09 1223.57,-471.58 1231.7,-464 1273.89,-424.64 1216.94,-252.49 1249.7,-205 1254.43,-198.14 1261.37,-192.98 1268.82,-189.12"/>
<polygon fill="#999999" stroke="#999999" points="1269.76,-190.62 1273.52,-186.88 1268.25,-187.46 1269.76,-190.62"/>
</g>
<!-- L4YAML.Scanner.parseBlockHeaderLoop.eq_def&#45;&gt;L4YAML.Scanner.ScannerState.advance -->
<g id="edge13" class="edge">
<title>L4YAML.Scanner.parseBlockHeaderLoop.eq_def&#45;&gt;L4YAML.Scanner.ScannerState.advance</title>
<path fill="none" stroke="#999999" stroke-dasharray="1,5" d="M398.68,-407.21C524.74,-403.87 731.99,-398.37 834.76,-395.64"/>
<polygon fill="#999999" stroke="#999999" points="834.92,-397.39 839.87,-395.5 834.83,-393.89 834.92,-397.39"/>
</g>
<!-- L4YAML.Scanner.parseBlockHeaderLoop.eq_def&#45;&gt;L4YAML.Scanner.ScannerState.peek? -->
<g id="edge20" class="edge">
<title>L4YAML.Scanner.parseBlockHeaderLoop.eq_def&#45;&gt;L4YAML.Scanner.ScannerState.peek?</title>
<path fill="none" stroke="#999999" stroke-dasharray="1,5" d="M377.58,-397.01C438.7,-387.83 523.52,-375.66 598.34,-367 682.3,-357.28 779.89,-349.02 839.93,-344.28"/>
<polygon fill="#999999" stroke="#999999" points="840.41,-346 845.26,-343.86 840.14,-342.51 840.41,-346"/>
</g>
<!-- L4YAML.Scanner.parseBlockHeaderLoop.eq_def&#45;&gt;L4YAML.Scanner.parseBlockHeaderLoop -->
<g id="edge18" class="edge">
<title>L4YAML.Scanner.parseBlockHeaderLoop.eq_def&#45;&gt;L4YAML.Scanner.parseBlockHeaderLoop</title>
<path fill="none" stroke="#999999" stroke-dasharray="1,5" d="M389.46,-419C616.21,-439.28 1171.33,-482.54 1231.7,-426 1276.4,-384.13 1215.02,-201.48 1249.7,-151 1250.98,-149.13 1252.43,-147.39 1254,-145.77"/>
<polygon fill="#999999" stroke="#999999" points="1255.4,-146.87 1257.9,-142.19 1253.03,-144.29 1255.4,-146.87"/>
</g>
<!-- L4YAML.Scanner.parseBlockHeaderLoop.eq_def&#45;&gt;L4YAML.Scanner.ScannerState -->
<g id="edge16" class="edge">
<title>L4YAML.Scanner.parseBlockHeaderLoop.eq_def&#45;&gt;L4YAML.Scanner.ScannerState</title>
<path fill="none" stroke="#999999" stroke-dasharray="1,5" d="M372.68,-395.87C435.57,-389.39 521.93,-391.83 577.34,-440 591.17,-452.02 578.66,-463.86 587.34,-480 590.77,-486.37 591.84,-488.83 598.34,-492 725.21,-553.88 1126.85,-634.5 1231.7,-540 1260.41,-514.12 1227.21,-398.43 1249.7,-367 1253.98,-361.01 1259.93,-356.32 1266.4,-352.65"/>
<polygon fill="#999999" stroke="#999999" points="1267.33,-354.14 1270.95,-350.27 1265.71,-351.04 1267.33,-354.14"/>
</g>
<!-- L4YAML.Scanner.parseBlockHeaderLoop.eq_def&#45;&gt;L4YAML.ChompStyle.keep -->
<g id="edge17" class="edge">
<title>L4YAML.Scanner.parseBlockHeaderLoop.eq_def&#45;&gt;L4YAML.ChompStyle.keep</title>
<path fill="none" stroke="#999999" stroke-dasharray="1,5" d="M341.62,-391.14C400.92,-368.65 505.43,-331.76 598.34,-313 683.78,-295.75 785.23,-289.51 845.05,-287.26"/>
<polygon fill="#999999" stroke="#999999" points="845.42,-289 850.36,-287.07 845.29,-285.5 845.42,-289"/>
</g>
<!-- L4YAML.Scanner.parseBlockHeaderLoop.eq_def&#45;&gt;L4YAML.Scanner.ScannerState.peekAt?Loop.match_1 -->
<g id="edge14" class="edge">
<title>L4YAML.Scanner.parseBlockHeaderLoop.eq_def&#45;&gt;L4YAML.Scanner.ScannerState.peekAt?Loop.match_1</title>
<path fill="none" stroke="#999999" stroke-dasharray="1,5" d="M343.15,-391.22C403.62,-367.15 507.82,-322.02 588.34,-268 593.31,-264.67 592.86,-261.39 598.34,-259 663.21,-230.69 743.44,-224.85 804.33,-225.6"/>
<polygon fill="#999999" stroke="#999999" points="804.39,-227.35 809.42,-225.68 804.45,-223.85 804.39,-227.35"/>
</g>
<!-- L4YAML.Scanner.parseBlockHeaderLoop.eq_def&#45;&gt;L4YAML.ChompStyle.strip -->
<g id="edge21" class="edge">
<title>L4YAML.Scanner.parseBlockHeaderLoop.eq_def&#45;&gt;L4YAML.ChompStyle.strip</title>
<path fill="none" stroke="#999999" stroke-dasharray="1,5" d="M315.9,-389.05C363.37,-345.77 479.99,-247.04 598.34,-205 681.6,-175.43 785.74,-173.22 846.34,-175.08"/>
<polygon fill="#999999" stroke="#999999" points="846.29,-176.83 851.35,-175.25 846.41,-173.33 846.29,-176.83"/>
</g>
<!-- L4YAML.Scanner.parseBlockHeaderLoop.eq_def&#45;&gt;L4YAML.Proofs.ScannerCorrectness.ScanHelpers.parseBlockHeaderLoop_preserves_tokens -->
<g id="edge8" class="edge">
<title>L4YAML.Scanner.parseBlockHeaderLoop.eq_def&#45;&gt;L4YAML.Proofs.ScannerCorrectness.ScanHelpers.parseBlockHeaderLoop_preserves_tokens</title>
<path fill="none" stroke="#28a745" d="M337.17,-390.61C400.77,-359.88 518,-293.7 577.34,-200 603.04,-159.43 564.21,-127.79 598.34,-94 615.05,-77.46 634.99,-64.98 656.54,-55.66"/>
<polygon fill="#28a745" stroke="#28a745" points="657.75,-57.81 663.28,-52.87 655.87,-53.28 657.75,-57.81"/>
</g>
<!-- L4YAML.Proofs.ScannerCorrectness.advance_preserves_tokens -->
<g id="node15" class="node">
<title>L4YAML.Proofs.ScannerCorrectness.advance_preserves_tokens</title>
<ellipse fill="#d4edda" stroke="#28a745" cx="292.67" cy="-470" rx="160.53" ry="21.43"/>
<text text-anchor="middle" x="292.67" y="-473" font-family="Helvetica" font-size="10.00">ScannerCorrectness.advance_preserves_tokens</text>
<text text-anchor="middle" x="292.67" y="-462" font-family="Helvetica" font-size="10.00">(ScannerCorrectness)</text>
</g>
<!-- L4YAML.Proofs.ScannerCorrectness.advance_preserves_tokens&#45;&gt;L4YAML.Positioned -->
<g id="edge25" class="edge">
<title>L4YAML.Proofs.ScannerCorrectness.advance_preserves_tokens&#45;&gt;L4YAML.Positioned</title>
<path fill="none" stroke="#999999" stroke-dasharray="1,5" d="M416.3,-483.6C657.06,-508.95 1173.34,-556.19 1231.7,-502 1271.38,-465.15 1218.85,-303.5 1249.7,-259 1255.4,-250.78 1264.25,-245.01 1273.36,-240.98"/>
<polygon fill="#999999" stroke="#999999" points="1274.17,-242.54 1278.13,-239.02 1272.84,-239.3 1274.17,-242.54"/>
</g>
<!-- L4YAML.Proofs.ScannerCorrectness.advance_preserves_tokens&#45;&gt;L4YAML.Scanner.ScannerState.advance -->
<g id="edge24" class="edge">
<title>L4YAML.Proofs.ScannerCorrectness.advance_preserves_tokens&#45;&gt;L4YAML.Scanner.ScannerState.advance</title>
<path fill="none" stroke="#999999" stroke-dasharray="1,5" d="M422.29,-457.44C470.92,-452.41 526.73,-446.32 577.34,-440 666.91,-428.81 770.25,-413.47 834.49,-403.65"/>
<polygon fill="#999999" stroke="#999999" points="835.14,-405.32 839.82,-402.83 834.61,-401.86 835.14,-405.32"/>
</g>
<!-- L4YAML.Proofs.ScannerCorrectness.advance_preserves_tokens&#45;&gt;L4YAML.Scanner.ScannerState -->
<g id="edge27" class="edge">
<title>L4YAML.Proofs.ScannerCorrectness.advance_preserves_tokens&#45;&gt;L4YAML.Scanner.ScannerState</title>
<path fill="none" stroke="#999999" stroke-dasharray="1,5" d="M326.38,-490.75C378.94,-522.77 486.56,-582.94 587.34,-606 657.14,-621.97 1179.27,-664.77 1231.7,-616 1272.32,-578.21 1218.13,-412.62 1249.7,-367 1253.94,-360.87 1259.94,-356.1 1266.49,-352.4"/>
<polygon fill="#999999" stroke="#999999" points="1267.46,-353.87 1271.09,-350.01 1265.85,-350.76 1267.46,-353.87"/>
</g>
<!-- L4YAML.Proofs.ScannerCorrectness.advance_preserves_tokens&#45;&gt;L4YAML.YamlToken -->
<g id="edge26" class="edge">
<title>L4YAML.Proofs.ScannerCorrectness.advance_preserves_tokens&#45;&gt;L4YAML.YamlToken</title>
<path fill="none" stroke="#999999" stroke-dasharray="1,5" d="M318.65,-491.08C366.83,-530.22 477.57,-612.97 587.34,-644 725.15,-682.96 1117.03,-739.79 1231.7,-654 1270.37,-625.07 1296.22,-475.32 1304.94,-417.15"/>
<polygon fill="#999999" stroke="#999999" points="1306.68,-417.34 1305.68,-412.14 1303.22,-416.82 1306.68,-417.34"/>
</g>
<!-- L4YAML.Proofs.ScannerCorrectness.advance_preserves_tokens&#45;&gt;L4YAML.Scanner.ScannerState.tokens -->
<g id="edge23" class="edge">
<title>L4YAML.Proofs.ScannerCorrectness.advance_preserves_tokens&#45;&gt;L4YAML.Scanner.ScannerState.tokens</title>
<path fill="none" stroke="#999999" stroke-dasharray="1,5" d="M373.43,-488.33C434.65,-501.77 521.44,-519.43 598.34,-530 668.26,-539.61 1180.13,-626.18 1231.7,-578 1274.83,-537.7 1216.22,-361.61 1249.7,-313 1250.98,-311.13 1252.43,-309.4 1254.01,-307.77"/>
<polygon fill="#999999" stroke="#999999" points="1255.4,-308.87 1257.91,-304.2 1253.04,-306.29 1255.4,-308.87"/>
</g>
<!-- L4YAML.Proofs.ScannerCorrectness.advance_preserves_tokens&#45;&gt;L4YAML.Proofs.ScannerCorrectness.ScanHelpers.parseBlockHeaderLoop_preserves_tokens -->
<g id="edge7" class="edge">
<title>L4YAML.Proofs.ScannerCorrectness.advance_preserves_tokens&#45;&gt;L4YAML.Proofs.ScannerCorrectness.ScanHelpers.parseBlockHeaderLoop_preserves_tokens</title>
<path fill="none" stroke="#28a745" d="M382.75,-487.62C446.2,-494.52 528.57,-491 577.34,-440 603.96,-412.16 572.86,-122.88 598.34,-94 612.89,-77.52 630.61,-64.92 650.09,-55.38"/>
<polygon fill="#28a745" stroke="#28a745" points="651.18,-57.57 656.48,-52.39 649.1,-53.14 651.18,-57.57"/>
</g>
<!-- _private.L4YAML.Proofs.ScannerCorrectness.0.L4YAML.Scanner.parseBlockHeaderLoop.match_1.eq_2 -->
<g id="node16" class="node">
<title>_private.L4YAML.Proofs.ScannerCorrectness.0.L4YAML.Scanner.parseBlockHeaderLoop.match_1.eq_2</title>
<ellipse fill="#fdebd0" stroke="#e67e22" cx="292.67" cy="-40" rx="276.84" ry="18"/>
<text text-anchor="middle" x="292.67" y="-37.5" font-family="Helvetica" font-size="10.00">_private.L4YAML.Proofs.ScannerCorrectness.0.L4YAML.Scanner.parseBlockHeaderLoop.match_1.eq_2</text>
</g>
<!-- _private.L4YAML.Proofs.ScannerCorrectness.0.L4YAML.Scanner.parseBlockHeaderLoop.match_1.eq_2&#45;&gt;L4YAML.Scanner.parseBlockHeaderLoop.match_1 -->
<g id="edge12" class="edge">
<title>_private.L4YAML.Proofs.ScannerCorrectness.0.L4YAML.Scanner.parseBlockHeaderLoop.match_1.eq_2&#45;&gt;L4YAML.Scanner.parseBlockHeaderLoop.match_1</title>
<path fill="none" stroke="#999999" stroke-dasharray="1,5" d="M534.72,-48.8C549.56,-53.62 563.9,-59.62 577.34,-67 590.67,-74.32 585.04,-86.64 598.34,-94 663.78,-130.18 749.71,-135.19 812.51,-132.63"/>
<polygon fill="#999999" stroke="#999999" points="812.83,-134.37 817.75,-132.39 812.68,-130.87 812.83,-134.37"/>
</g>
<!-- _private.L4YAML.Proofs.ScannerCorrectness.0.L4YAML.Scanner.parseBlockHeaderLoop.match_1.eq_2&#45;&gt;L4YAML.Proofs.ScannerCorrectness.ScanHelpers.parseBlockHeaderLoop_preserves_tokens -->
<g id="edge9" class="edge">
<title>_private.L4YAML.Proofs.ScannerCorrectness.0.L4YAML.Scanner.parseBlockHeaderLoop.match_1.eq_2&#45;&gt;L4YAML.Proofs.ScannerCorrectness.ScanHelpers.parseBlockHeaderLoop_preserves_tokens</title>
<path fill="none" stroke="#e67e22" stroke-width="2" d="M481.2,-26.79C516.45,-24.79 553.01,-23.05 587.34,-22 614.58,-21.17 643.16,-21.29 671.48,-22.03"/>
<polygon fill="#e67e22" stroke="#e67e22" stroke-width="2" points="671.6,-24.48 678.67,-22.23 671.74,-19.58 671.6,-24.48"/>
</g>
<!-- _private.L4YAML.Proofs.ScannerCorrectness.0.L4YAML.Scanner.parseBlockHeaderLoop.match_1.eq_3 -->
<g id="node17" class="node">
<title>_private.L4YAML.Proofs.ScannerCorrectness.0.L4YAML.Scanner.parseBlockHeaderLoop.match_1.eq_3</title>
<ellipse fill="#fdebd0" stroke="#e67e22" cx="292.67" cy="-94" rx="276.84" ry="18"/>
<text text-anchor="middle" x="292.67" y="-91.5" font-family="Helvetica" font-size="10.00">_private.L4YAML.Proofs.ScannerCorrectness.0.L4YAML.Scanner.parseBlockHeaderLoop.match_1.eq_3</text>
</g>
<!-- _private.L4YAML.Proofs.ScannerCorrectness.0.L4YAML.Scanner.parseBlockHeaderLoop.match_1.eq_3&#45;&gt;L4YAML.Scanner.parseBlockHeaderLoop.match_1 -->
<g id="edge22" class="edge">
<title>_private.L4YAML.Proofs.ScannerCorrectness.0.L4YAML.Scanner.parseBlockHeaderLoop.match_1.eq_3&#45;&gt;L4YAML.Scanner.parseBlockHeaderLoop.match_1</title>
<path fill="none" stroke="#999999" stroke-dasharray="1,5" d="M446.34,-109C491.68,-112.91 541.48,-116.68 587.34,-119 663.61,-122.86 750.58,-123.97 812.82,-124.2"/>
<polygon fill="#999999" stroke="#999999" points="813,-125.95 818,-124.22 813.01,-122.45 813,-125.95"/>
</g>
<!-- _private.L4YAML.Proofs.ScannerCorrectness.0.L4YAML.Scanner.parseBlockHeaderLoop.match_1.eq_3&#45;&gt;L4YAML.Proofs.ScannerCorrectness.ScanHelpers.parseBlockHeaderLoop_preserves_tokens -->
<g id="edge10" class="edge">
<title>_private.L4YAML.Proofs.ScannerCorrectness.0.L4YAML.Scanner.parseBlockHeaderLoop.match_1.eq_3&#45;&gt;L4YAML.Proofs.ScannerCorrectness.ScanHelpers.parseBlockHeaderLoop_preserves_tokens</title>
<path fill="none" stroke="#e67e22" stroke-width="2" d="M541.75,-86.11C554.26,-80.93 566.22,-74.62 577.34,-67 585.54,-61.38 578.97,-52.35 587.34,-47 646.18,-9.44 724.98,-7.71 788.3,-15.1"/>
<polygon fill="#e67e22" stroke="#e67e22" stroke-width="2" points="788.31,-17.56 795.55,-15.99 788.91,-12.7 788.31,-17.56"/>
</g>
<!-- _private.L4YAML.Proofs.ScannerCorrectness.0.L4YAML.Scanner.parseBlockHeaderLoop.match_1.eq_1 -->
<g id="node18" class="node">
<title>_private.L4YAML.Proofs.ScannerCorrectness.0.L4YAML.Scanner.parseBlockHeaderLoop.match_1.eq_1</title>
<ellipse fill="#fdebd0" stroke="#e67e22" cx="292.67" cy="-148" rx="276.84" ry="18"/>
<text text-anchor="middle" x="292.67" y="-145.5" font-family="Helvetica" font-size="10.00">_private.L4YAML.Proofs.ScannerCorrectness.0.L4YAML.Scanner.parseBlockHeaderLoop.match_1.eq_1</text>
</g>
<!-- _private.L4YAML.Proofs.ScannerCorrectness.0.L4YAML.Scanner.parseBlockHeaderLoop.match_1.eq_1&#45;&gt;L4YAML.Scanner.parseBlockHeaderLoop.match_1 -->
<g id="edge28" class="edge">
<title>_private.L4YAML.Proofs.ScannerCorrectness.0.L4YAML.Scanner.parseBlockHeaderLoop.match_1.eq_1&#45;&gt;L4YAML.Scanner.parseBlockHeaderLoop.match_1</title>
<path fill="none" stroke="#999999" stroke-dasharray="1,5" d="M565.43,-144.83C573.15,-144.57 580.8,-144.3 588.34,-144 664.29,-141.02 750.63,-135.21 812.56,-130.61"/>
<polygon fill="#999999" stroke="#999999" points="812.87,-132.35 817.73,-130.23 812.61,-128.86 812.87,-132.35"/>
</g>
<!-- _private.L4YAML.Proofs.ScannerCorrectness.0.L4YAML.Scanner.parseBlockHeaderLoop.match_1.eq_1&#45;&gt;L4YAML.Proofs.ScannerCorrectness.ScanHelpers.parseBlockHeaderLoop_preserves_tokens -->
<g id="edge11" class="edge">
<title>_private.L4YAML.Proofs.ScannerCorrectness.0.L4YAML.Scanner.parseBlockHeaderLoop.match_1.eq_1&#45;&gt;L4YAML.Proofs.ScannerCorrectness.ScanHelpers.parseBlockHeaderLoop_preserves_tokens</title>
<path fill="none" stroke="#e67e22" stroke-width="2" d="M384.89,-165.01C446.68,-170.99 526.11,-167.05 577.34,-121 593.87,-106.14 570.92,-86.98 587.34,-72 594.96,-65.05 603.16,-58.95 611.82,-53.61"/>
<polygon fill="#e67e22" stroke="#e67e22" stroke-width="2" points="613.1,-55.7 617.88,-50.03 610.61,-51.48 613.1,-55.7"/>
</g>
</g>
</svg>
