<?xml version="1.0" encoding="UTF-8" standalone="no"?>
<!DOCTYPE svg PUBLIC "-//W3C//DTD SVG 1.1//EN"
 "http://www.w3.org/Graphics/SVG/1.1/DTD/svg11.dtd">
<!-- Generated by graphviz version 2.44.0 (0)
 -->
<!-- Title: ScannerPlainScalarValid.flowNesting.go.eq_def Pages: 1 -->
<svg width="1089pt" height="454pt"
 viewBox="0.00 0.00 1088.51 454.00" xmlns="http://www.w3.org/2000/svg" xmlns:xlink="http://www.w3.org/1999/xlink">
<g id="graph0" class="graph" transform="scale(1 1) rotate(0) translate(4 450)">
<title>ScannerPlainScalarValid.flowNesting.go.eq_def</title>
<polygon fill="white" stroke="transparent" points="-4,4 -4,-450 1084.51,-450 1084.51,4 -4,4"/>
<text text-anchor="middle" x="540.25" y="-431.6" font-family="Helvetica Bold" font-size="13.00">ScannerPlainScalarValid.flowNesting.go.eq_def</text>
<text text-anchor="middle" x="540.25" y="-417.6" font-family="Helvetica Bold" font-size="13.00">(heuristic: used by 8 proofs)</text>
<text text-anchor="middle" x="540.25" y="-403.6" font-family="Helvetica Bold" font-size="13.00">(L4YAML.Proofs.ScannerPlainScalarValid)</text>
<g id="clust1" class="cluster">
<title>cluster_functions</title>
<polygon fill="none" stroke="#4a90d9" stroke-dasharray="5,2" points="480.27,-98 480.27,-388 1072.51,-388 1072.51,-98 480.27,-98"/>
<text text-anchor="middle" x="776.39" y="-373.6" font-family="Helvetica Bold" font-size="13.00" fill="#4a90d9">Functions</text>
</g>
<g id="clust2" class="cluster">
<title>cluster_key</title>
<polygon fill="none" stroke="#d4a017" stroke-dasharray="5,2" points="407.04,-8 407.04,-90 793.51,-90 793.51,-8 407.04,-8"/>
<text text-anchor="middle" x="600.27" y="-75.6" font-family="Helvetica Bold" font-size="13.00" fill="#d4a017">Key Theorem</text>
</g>
<g id="clust3" class="cluster">
<title>cluster_proofs</title>
<polygon fill="none" stroke="#28a745" stroke-dasharray="5,2" points="8,-205 8,-285 386.04,-285 386.04,-205 8,-205"/>
<text text-anchor="middle" x="197.02" y="-270.6" font-family="Helvetica Bold" font-size="13.00" fill="#28a745">Proof Dependencies</text>
</g>
<!-- L4YAML.Proofs.ScannerPlainScalarValid.flowNesting.go._unary -->
<g id="node1" class="node">
<title>L4YAML.Proofs.ScannerPlainScalarValid.flowNesting.go._unary</title>
<polygon fill="#dce9f7" stroke="#4a90d9" points="712.27,-358 488.27,-358 488.27,-322 712.27,-322 712.27,-358"/>
<text text-anchor="middle" x="600.27" y="-343" font-family="Helvetica" font-size="10.00">ScannerPlainScalarValid.flowNesting.go._unary</text>
<text text-anchor="middle" x="600.27" y="-332" font-family="Helvetica" font-size="10.00">(def)</text>
</g>
<!-- L4YAML.Positioned -->
<g id="node2" class="node">
<title>L4YAML.Positioned</title>
<polygon fill="#dce9f7" stroke="#4a90d9" points="986.51,-304 924.51,-304 924.51,-268 986.51,-268 986.51,-304"/>
<text text-anchor="middle" x="955.51" y="-289" font-family="Helvetica" font-size="10.00">Positioned</text>
<text text-anchor="middle" x="955.51" y="-278" font-family="Helvetica" font-size="10.00">(inductive)</text>
</g>
<!-- L4YAML.Proofs.ScannerPlainScalarValid.flowNesting.match_1 -->
<g id="node3" class="node">
<title>L4YAML.Proofs.ScannerPlainScalarValid.flowNesting.match_1</title>
<polygon fill="#dce9f7" stroke="#4a90d9" points="1064.51,-358 846.51,-358 846.51,-322 1064.51,-322 1064.51,-358"/>
<text text-anchor="middle" x="955.51" y="-343" font-family="Helvetica" font-size="10.00">ScannerPlainScalarValid.flowNesting.match_1</text>
<text text-anchor="middle" x="955.51" y="-332" font-family="Helvetica" font-size="10.00">(def)</text>
</g>
<!-- L4YAML.Positioned.val -->
<g id="node4" class="node">
<title>L4YAML.Positioned.val</title>
<polygon fill="#dce9f7" stroke="#4a90d9" points="994.01,-250 917.01,-250 917.01,-214 994.01,-214 994.01,-250"/>
<text text-anchor="middle" x="955.51" y="-235" font-family="Helvetica" font-size="10.00">Positioned.val</text>
<text text-anchor="middle" x="955.51" y="-224" font-family="Helvetica" font-size="10.00">(def)</text>
</g>
<!-- L4YAML.YamlToken -->
<g id="node5" class="node">
<title>L4YAML.YamlToken</title>
<polygon fill="#dce9f7" stroke="#4a90d9" points="987.51,-196 923.51,-196 923.51,-160 987.51,-160 987.51,-196"/>
<text text-anchor="middle" x="955.51" y="-181" font-family="Helvetica" font-size="10.00">YamlToken</text>
<text text-anchor="middle" x="955.51" y="-170" font-family="Helvetica" font-size="10.00">(inductive)</text>
</g>
<!-- L4YAML.Proofs.ScannerPlainScalarValid.flowNesting.go -->
<g id="node6" class="node">
<title>L4YAML.Proofs.ScannerPlainScalarValid.flowNesting.go</title>
<polygon fill="#dce9f7" stroke="#4a90d9" points="1051.01,-142 860.01,-142 860.01,-106 1051.01,-106 1051.01,-142"/>
<text text-anchor="middle" x="955.51" y="-127" font-family="Helvetica" font-size="10.00">ScannerPlainScalarValid.flowNesting.go</text>
<text text-anchor="middle" x="955.51" y="-116" font-family="Helvetica" font-size="10.00">(def)</text>
</g>
<!-- L4YAML.Proofs.ScannerPlainScalarValid.flowNesting.go.eq_def -->
<g id="node7" class="node">
<title>L4YAML.Proofs.ScannerPlainScalarValid.flowNesting.go.eq_def</title>
<polygon fill="#fff3cd" stroke="#d4a017" points="781.74,-30.54 781.74,-45.46 675.44,-56 525.11,-56 418.81,-45.46 418.81,-30.54 525.11,-20 675.44,-20 781.74,-30.54"/>
<polygon fill="none" stroke="#d4a017" points="785.75,-26.92 785.75,-49.08 675.64,-60 524.91,-60 414.8,-49.08 414.8,-26.92 524.91,-16 675.64,-16 785.75,-26.92"/>
<text text-anchor="middle" x="600.27" y="-34.9" font-family="Helvetica" font-size="12.00">ScannerPlainScalarValid.flowNesting.go.eq_def</text>
</g>
<!-- L4YAML.Proofs.ScannerPlainScalarValid.flowNesting.go.eq_def&#45;&gt;L4YAML.Positioned -->
<g id="edge1" class="edge">
<title>L4YAML.Proofs.ScannerPlainScalarValid.flowNesting.go.eq_def&#45;&gt;L4YAML.Positioned</title>
<path fill="none" stroke="#4a90d9" stroke-width="2" d="M732.56,-54.39C755.71,-62.88 777.49,-75.46 793.51,-94 814.63,-118.44 793.68,-135.22 803.51,-166 810.83,-188.91 818.47,-192.14 828.51,-214 837.5,-233.58 830.28,-244.83 846.51,-259 865.82,-275.86 894.12,-282.5 916.9,-284.98"/>
<polygon fill="#4a90d9" stroke="#4a90d9" stroke-width="2" points="916.89,-287.44 924.09,-285.64 917.34,-282.56 916.89,-287.44"/>
<text text-anchor="middle" x="816.01" y="-216.6" font-family="Times-Roman" font-size="8.00" fill="#4a90d9">about</text>
</g>
<!-- L4YAML.Proofs.ScannerPlainScalarValid.flowNesting.go.eq_def&#45;&gt;L4YAML.Proofs.ScannerPlainScalarValid.flowNesting.match_1 -->
<g id="edge5" class="edge">
<title>L4YAML.Proofs.ScannerPlainScalarValid.flowNesting.go.eq_def&#45;&gt;L4YAML.Proofs.ScannerPlainScalarValid.flowNesting.match_1</title>
<path fill="none" stroke="#4a90d9" stroke-width="2" d="M734.93,-54.19C757.45,-62.74 778.38,-75.39 793.51,-94 811.64,-116.31 795.6,-195.36 803.51,-223 810.13,-246.12 818.21,-249.26 828.51,-271 837.21,-289.35 831.05,-299.83 846.51,-313 848.62,-314.8 850.83,-316.48 853.13,-318.05"/>
<polygon fill="#4a90d9" stroke="#4a90d9" stroke-width="2" points="852.16,-320.33 859.4,-321.96 854.76,-316.18 852.16,-320.33"/>
<text text-anchor="middle" x="816.01" y="-273.6" font-family="Times-Roman" font-size="8.00" fill="#4a90d9">about</text>
</g>
<!-- L4YAML.Proofs.ScannerPlainScalarValid.flowNesting.go.eq_def&#45;&gt;L4YAML.Positioned.val -->
<g id="edge3" class="edge">
<title>L4YAML.Proofs.ScannerPlainScalarValid.flowNesting.go.eq_def&#45;&gt;L4YAML.Positioned.val</title>
<path fill="none" stroke="#4a90d9" stroke-width="2" d="M716.6,-55.95C743.84,-64.23 771.37,-76.33 793.51,-94 806.03,-103.99 821.79,-142.46 828.51,-157 838.07,-177.68 829.51,-189.83 846.51,-205 863.74,-220.38 888.42,-227.28 909.83,-230.27"/>
<polygon fill="#4a90d9" stroke="#4a90d9" stroke-width="2" points="909.71,-232.72 916.96,-231.14 910.3,-227.86 909.71,-232.72"/>
<text text-anchor="middle" x="816.01" y="-159.6" font-family="Times-Roman" font-size="8.00" fill="#4a90d9">about</text>
</g>
<!-- L4YAML.Proofs.ScannerPlainScalarValid.flowNesting.go.eq_def&#45;&gt;L4YAML.YamlToken -->
<g id="edge4" class="edge">
<title>L4YAML.Proofs.ScannerPlainScalarValid.flowNesting.go.eq_def&#45;&gt;L4YAML.YamlToken</title>
<path fill="none" stroke="#4a90d9" stroke-width="2" d="M748.58,-52.87C777.86,-61.7 806.36,-75.27 828.51,-96 847.29,-113.57 827.69,-133.47 846.51,-151 865.14,-168.35 893.2,-174.99 916.05,-177.36"/>
<polygon fill="#4a90d9" stroke="#4a90d9" stroke-width="2" points="916.08,-179.82 923.26,-177.98 916.5,-174.94 916.08,-179.82"/>
<text text-anchor="middle" x="816.01" y="-98.6" font-family="Times-Roman" font-size="8.00" fill="#4a90d9">about</text>
</g>
<!-- L4YAML.Proofs.ScannerPlainScalarValid.flowNesting.go.eq_def&#45;&gt;L4YAML.Proofs.ScannerPlainScalarValid.flowNesting.go -->
<g id="edge2" class="edge">
<title>L4YAML.Proofs.ScannerPlainScalarValid.flowNesting.go.eq_def&#45;&gt;L4YAML.Proofs.ScannerPlainScalarValid.flowNesting.go</title>
<path fill="none" stroke="#4a90d9" stroke-width="2" d="M785.7,-47.01C800.32,-49.67 814.74,-52.95 828.51,-57 862.25,-66.93 897.32,-86.45 921.87,-101.87"/>
<polygon fill="#4a90d9" stroke="#4a90d9" stroke-width="2" points="920.65,-104 927.87,-105.69 923.28,-99.87 920.65,-104"/>
<text text-anchor="middle" x="816.01" y="-59.6" font-family="Times-Roman" font-size="8.00" fill="#4a90d9">about</text>
</g>
<!-- L4YAML.Proofs.ScannerPlainScalarValid.flowNesting.go._unary.eq_def -->
<g id="node8" class="node">
<title>L4YAML.Proofs.ScannerPlainScalarValid.flowNesting.go._unary.eq_def</title>
<ellipse fill="#d4edda" stroke="#28a745" cx="197.02" cy="-234" rx="181.04" ry="21.43"/>
<text text-anchor="middle" x="197.02" y="-237" font-family="Helvetica" font-size="10.00">ScannerPlainScalarValid.flowNesting.go._unary.eq_def</text>
<text text-anchor="middle" x="197.02" y="-226" font-family="Helvetica" font-size="10.00">(ScannerPlainScalarValid)</text>
</g>
<!-- L4YAML.Proofs.ScannerPlainScalarValid.flowNesting.go._unary.eq_def&#45;&gt;L4YAML.Proofs.ScannerPlainScalarValid.flowNesting.go._unary -->
<g id="edge7" class="edge">
<title>L4YAML.Proofs.ScannerPlainScalarValid.flowNesting.go._unary.eq_def&#45;&gt;L4YAML.Proofs.ScannerPlainScalarValid.flowNesting.go._unary</title>
<path fill="none" stroke="#999999" stroke-dasharray="1,5" d="M244.77,-254.53C284.35,-271.16 342.97,-294.06 396.04,-308 423.96,-315.34 454.51,-321.23 483.24,-325.86"/>
<polygon fill="#999999" stroke="#999999" points="483,-327.59 488.21,-326.65 483.55,-324.14 483,-327.59"/>
</g>
<!-- L4YAML.Proofs.ScannerPlainScalarValid.flowNesting.go._unary.eq_def&#45;&gt;L4YAML.Positioned -->
<g id="edge8" class="edge">
<title>L4YAML.Proofs.ScannerPlainScalarValid.flowNesting.go._unary.eq_def&#45;&gt;L4YAML.Positioned</title>
<path fill="none" stroke="#999999" stroke-dasharray="1,5" d="M353.85,-244.71C534.44,-257.12 819.94,-276.75 919.15,-283.57"/>
<polygon fill="#999999" stroke="#999999" points="919.19,-285.33 924.3,-283.92 919.43,-281.83 919.19,-285.33"/>
</g>
<!-- L4YAML.Proofs.ScannerPlainScalarValid.flowNesting.go._unary.eq_def&#45;&gt;L4YAML.Proofs.ScannerPlainScalarValid.flowNesting.match_1 -->
<g id="edge11" class="edge">
<title>L4YAML.Proofs.ScannerPlainScalarValid.flowNesting.go._unary.eq_def&#45;&gt;L4YAML.Proofs.ScannerPlainScalarValid.flowNesting.match_1</title>
<path fill="none" stroke="#999999" stroke-dasharray="1,5" d="M283.38,-252.66C321.13,-260.42 366.15,-268.99 407.04,-275 577.8,-300.08 622.42,-290.27 793.51,-313 811.23,-315.35 829.99,-318.19 848.2,-321.12"/>
<polygon fill="#999999" stroke="#999999" points="848.11,-322.88 853.32,-321.95 848.67,-319.42 848.11,-322.88"/>
</g>
<!-- L4YAML.Proofs.ScannerPlainScalarValid.flowNesting.go._unary.eq_def&#45;&gt;L4YAML.Positioned.val -->
<g id="edge9" class="edge">
<title>L4YAML.Proofs.ScannerPlainScalarValid.flowNesting.go._unary.eq_def&#45;&gt;L4YAML.Positioned.val</title>
<path fill="none" stroke="#999999" stroke-dasharray="1,5" d="M376.52,-231.02C497.1,-229.16 659.88,-226.95 803.51,-226 814.62,-225.93 817.4,-225.74 828.51,-226 856.21,-226.66 887.3,-228.13 911.66,-229.45"/>
<polygon fill="#999999" stroke="#999999" points="911.67,-231.21 916.76,-229.73 911.86,-227.71 911.67,-231.21"/>
</g>
<!-- L4YAML.Proofs.ScannerPlainScalarValid.flowNesting.go._unary.eq_def&#45;&gt;L4YAML.YamlToken -->
<g id="edge10" class="edge">
<title>L4YAML.Proofs.ScannerPlainScalarValid.flowNesting.go._unary.eq_def&#45;&gt;L4YAML.YamlToken</title>
<path fill="none" stroke="#999999" stroke-dasharray="1,5" d="M314.08,-217.81C435.75,-201.72 632.61,-178.15 803.51,-169 842.68,-166.9 887.54,-170.32 918.12,-173.52"/>
<polygon fill="#999999" stroke="#999999" points="918.12,-175.28 923.28,-174.08 918.5,-171.8 918.12,-175.28"/>
</g>
<!-- L4YAML.Proofs.ScannerPlainScalarValid.flowNesting.go._unary.eq_def&#45;&gt;L4YAML.Proofs.ScannerPlainScalarValid.flowNesting.go.eq_def -->
<g id="edge6" class="edge">
<title>L4YAML.Proofs.ScannerPlainScalarValid.flowNesting.go._unary.eq_def&#45;&gt;L4YAML.Proofs.ScannerPlainScalarValid.flowNesting.go.eq_def</title>
<path fill="none" stroke="#28a745" d="M223.83,-212.85C261.82,-182.65 336,-127.17 407.04,-94 436.61,-80.19 470.36,-68.98 501.23,-60.31"/>
<polygon fill="#28a745" stroke="#28a745" points="502.09,-62.62 508.18,-58.39 500.78,-57.9 502.09,-62.62"/>
</g>
</g>
</svg>
