<?xml version="1.0" encoding="UTF-8" standalone="no"?>
<!DOCTYPE svg PUBLIC "-//W3C//DTD SVG 1.1//EN"
 "http://www.w3.org/Graphics/SVG/1.1/DTD/svg11.dtd">
<!-- Generated by graphviz version 2.44.0 (0)
 -->
<!-- Title: ScannerCoupling.advance_fuel_budget Pages: 1 -->
<svg width="902pt" height="832pt"
 viewBox="0.00 0.00 901.92 832.32" xmlns="http://www.w3.org/2000/svg" xmlns:xlink="http://www.w3.org/1999/xlink">
<g id="graph0" class="graph" transform="scale(1 1) rotate(0) translate(4 828.32)">
<title>ScannerCoupling.advance_fuel_budget</title>
<polygon fill="white" stroke="transparent" points="-4,4 -4,-828.32 897.92,-828.32 897.92,4 -4,4"/>
<text text-anchor="middle" x="446.96" y="-809.92" font-family="Helvetica Bold" font-size="13.00">ScannerCoupling.advance_fuel_budget</text>
<text text-anchor="middle" x="446.96" y="-795.92" font-family="Helvetica Bold" font-size="13.00">(heuristic: used by 5 proofs)</text>
<text text-anchor="middle" x="446.96" y="-781.92" font-family="Helvetica Bold" font-size="13.00">(L4YAML.Proofs.ScannerCoupling)</text>
<g id="clust1" class="cluster">
<title>cluster_functions</title>
<polygon fill="none" stroke="#4a90d9" stroke-dasharray="5,2" points="485.34,-530.32 485.34,-766.32 885.92,-766.32 885.92,-530.32 485.34,-530.32"/>
<text text-anchor="middle" x="685.63" y="-751.92" font-family="Helvetica Bold" font-size="13.00" fill="#4a90d9">Functions</text>
</g>
<g id="clust2" class="cluster">
<title>cluster_key</title>
<polygon fill="none" stroke="#d4a017" stroke-dasharray="5,2" points="378.75,-440.32 378.75,-522.32 707.92,-522.32 707.92,-440.32 378.75,-440.32"/>
<text text-anchor="middle" x="543.34" y="-507.92" font-family="Helvetica Bold" font-size="13.00" fill="#d4a017">Key Theorem</text>
</g>
<g id="clust3" class="cluster">
<title>cluster_proofs</title>
<polygon fill="none" stroke="#28a745" stroke-dasharray="5,2" points="8,-193.32 8,-453.32 357.75,-453.32 357.75,-193.32 8,-193.32"/>
<text text-anchor="middle" x="182.88" y="-438.92" font-family="Helvetica Bold" font-size="13.00" fill="#28a745">Proof Dependencies</text>
</g>
<g id="clust4" class="cluster">
<title>cluster_stdlib</title>
<polygon fill="none" stroke="#e67e22" stroke-dasharray="5,2" points="97.76,-469.32 97.76,-543.32 267.99,-543.32 267.99,-469.32 97.76,-469.32"/>
<text text-anchor="middle" x="182.88" y="-528.92" font-family="Helvetica Bold" font-size="13.00" fill="#e67e22">Stdlib Lemmas</text>
</g>
<!-- L4YAML.Scanner.ScannerState.input -->
<g id="node1" class="node">
<title>L4YAML.Scanner.ScannerState.input</title>
<g id="a_node1"><a xlink:href="../../../api/L4YAML/Scanner.html#L4YAML.Scanner.ScannerState.input" xlink:title="ScannerState.input\n(def)" target="_blank">
<polygon fill="#dce9f7" stroke="#4a90d9" points="593.34,-574.32 493.34,-574.32 493.34,-538.32 593.34,-538.32 593.34,-574.32"/>
<text text-anchor="middle" x="543.34" y="-559.32" font-family="Helvetica" font-size="10.00">ScannerState.input</text>
<text text-anchor="middle" x="543.34" y="-548.32" font-family="Helvetica" font-size="10.00">(def)</text>
</a>
</g>
</g>
<!-- L4YAML.Scanner.ScannerState.advance -->
<g id="node2" class="node">
<title>L4YAML.Scanner.ScannerState.advance</title>
<g id="a_node2"><a xlink:href="../../../api/L4YAML/Scanner.html#L4YAML.Scanner.ScannerState.advance" xlink:title="ScannerState.advance\n(def)" target="_blank">
<polygon fill="#dce9f7" stroke="#4a90d9" points="876.92,-682.32 761.92,-682.32 761.92,-646.32 876.92,-646.32 876.92,-682.32"/>
<text text-anchor="middle" x="819.42" y="-667.32" font-family="Helvetica" font-size="10.00">ScannerState.advance</text>
<text text-anchor="middle" x="819.42" y="-656.32" font-family="Helvetica" font-size="10.00">(def)</text>
</a>
</g>
</g>
<!-- L4YAML.Scanner.ScannerState -->
<g id="node3" class="node">
<title>L4YAML.Scanner.ScannerState</title>
<g id="a_node3"><a xlink:href="../../../api/L4YAML/Scanner.html#L4YAML.Scanner.ScannerState" xlink:title="ScannerState\n(inductive)" target="_blank">
<polygon fill="#dce9f7" stroke="#4a90d9" points="857.42,-628.32 781.42,-628.32 781.42,-592.32 857.42,-592.32 857.42,-628.32"/>
<text text-anchor="middle" x="819.42" y="-613.32" font-family="Helvetica" font-size="10.00">ScannerState</text>
<text text-anchor="middle" x="819.42" y="-602.32" font-family="Helvetica" font-size="10.00">(inductive)</text>
</a>
</g>
</g>
<!-- L4YAML.Scanner.ScannerState.offset -->
<g id="node4" class="node">
<title>L4YAML.Scanner.ScannerState.offset</title>
<g id="a_node4"><a xlink:href="../../../api/L4YAML/Scanner.html#L4YAML.Scanner.ScannerState.offset" xlink:title="ScannerState.offset\n(def)" target="_blank">
<polygon fill="#dce9f7" stroke="#4a90d9" points="870.92,-574.32 767.92,-574.32 767.92,-538.32 870.92,-538.32 870.92,-574.32"/>
<text text-anchor="middle" x="819.42" y="-559.32" font-family="Helvetica" font-size="10.00">ScannerState.offset</text>
<text text-anchor="middle" x="819.42" y="-548.32" font-family="Helvetica" font-size="10.00">(def)</text>
</a>
</g>
</g>
<!-- L4YAML.Scanner.ScannerState.inputEnd -->
<g id="node5" class="node">
<title>L4YAML.Scanner.ScannerState.inputEnd</title>
<g id="a_node5"><a xlink:href="../../../api/L4YAML/Scanner.html#L4YAML.Scanner.ScannerState.inputEnd" xlink:title="ScannerState.inputEnd\n(def)" target="_blank">
<polygon fill="#dce9f7" stroke="#4a90d9" points="877.92,-736.32 760.92,-736.32 760.92,-700.32 877.92,-700.32 877.92,-736.32"/>
<text text-anchor="middle" x="819.42" y="-721.32" font-family="Helvetica" font-size="10.00">ScannerState.inputEnd</text>
<text text-anchor="middle" x="819.42" y="-710.32" font-family="Helvetica" font-size="10.00">(def)</text>
</a>
</g>
</g>
<!-- L4YAML.Proofs.ScannerCoupling.advance_fuel_budget -->
<g id="node6" class="node">
<title>L4YAML.Proofs.ScannerCoupling.advance_fuel_budget</title>
<g id="a_node6"><a xlink:href="../../../api/L4YAML/Proofs/ScannerCoupling.html#L4YAML.Proofs.ScannerCoupling.advance_fuel_budget" xlink:title="ScannerCoupling.advance_fuel_budget" target="_blank">
<polygon fill="#fff3cd" stroke="#d4a017" points="696,-462.86 696,-477.77 606.58,-488.32 480.1,-488.32 390.67,-477.77 390.67,-462.86 480.1,-452.32 606.58,-452.32 696,-462.86"/>
<polygon fill="none" stroke="#d4a017" points="700.01,-459.31 700.01,-481.33 606.81,-492.32 479.87,-492.32 386.67,-481.33 386.67,-459.31 479.87,-448.32 606.81,-448.32 700.01,-459.31"/>
<text text-anchor="middle" x="543.34" y="-467.22" font-family="Helvetica" font-size="12.00">ScannerCoupling.advance_fuel_budget</text>
</a>
</g>
</g>
<!-- L4YAML.Proofs.ScannerCoupling.advance_fuel_budget&#45;&gt;L4YAML.Scanner.ScannerState.advance -->
<g id="edge1" class="edge">
<title>L4YAML.Proofs.ScannerCoupling.advance_fuel_budget&#45;&gt;L4YAML.Scanner.ScannerState.advance</title>
<path fill="none" stroke="#4a90d9" stroke-width="2" d="M630.25,-489.67C656.68,-498.18 684.87,-510.05 707.92,-526.32 728.34,-540.72 731.67,-548.01 742.92,-570.32 756.81,-597.85 741.13,-613.68 760.92,-637.32 762.25,-638.9 763.69,-640.4 765.22,-641.82"/>
<polygon fill="#4a90d9" stroke="#4a90d9" stroke-width="2" points="763.77,-643.79 770.74,-646.31 766.86,-639.99 763.77,-643.79"/>
<text text-anchor="middle" x="730.42" y="-572.92" font-family="Times-Roman" font-size="8.00" fill="#4a90d9">about</text>
</g>
<!-- L4YAML.Proofs.ScannerCoupling.advance_fuel_budget&#45;&gt;L4YAML.Scanner.ScannerState -->
<g id="edge4" class="edge">
<title>L4YAML.Proofs.ScannerCoupling.advance_fuel_budget&#45;&gt;L4YAML.Scanner.ScannerState</title>
<path fill="none" stroke="#4a90d9" stroke-width="2" d="M620.51,-449.9C661.41,-443.77 710.03,-444.94 742.92,-473.32 780.43,-505.68 731.06,-543.79 760.92,-583.32 764.65,-588.25 769.5,-592.32 774.81,-595.66"/>
<polygon fill="#4a90d9" stroke="#4a90d9" stroke-width="2" points="773.9,-597.96 781.2,-599.26 776.31,-593.69 773.9,-597.96"/>
<text text-anchor="middle" x="730.42" y="-475.92" font-family="Times-Roman" font-size="8.00" fill="#4a90d9">about</text>
</g>
<!-- L4YAML.Proofs.ScannerCoupling.advance_fuel_budget&#45;&gt;L4YAML.Scanner.ScannerState.offset -->
<g id="edge2" class="edge">
<title>L4YAML.Proofs.ScannerCoupling.advance_fuel_budget&#45;&gt;L4YAML.Scanner.ScannerState.offset</title>
<path fill="none" stroke="#4a90d9" stroke-width="2" d="M590.9,-448.2C633.03,-431.61 695.55,-415.75 742.92,-441.32 778.19,-460.35 799.66,-503.83 810.27,-531.54"/>
<polygon fill="#4a90d9" stroke="#4a90d9" stroke-width="2" points="808.01,-532.5 812.73,-538.22 812.61,-530.81 808.01,-532.5"/>
<text text-anchor="middle" x="730.42" y="-443.92" font-family="Times-Roman" font-size="8.00" fill="#4a90d9">about</text>
</g>
<!-- L4YAML.Proofs.ScannerCoupling.advance_fuel_budget&#45;&gt;L4YAML.Scanner.ScannerState.inputEnd -->
<g id="edge3" class="edge">
<title>L4YAML.Proofs.ScannerCoupling.advance_fuel_budget&#45;&gt;L4YAML.Scanner.ScannerState.inputEnd</title>
<path fill="none" stroke="#4a90d9" stroke-width="2" d="M643.58,-488.11C667.14,-496.39 690.47,-508.53 707.92,-526.32 734.89,-553.81 735.49,-662.4 760.92,-691.32 762.29,-692.87 763.76,-694.34 765.32,-695.73"/>
<polygon fill="#4a90d9" stroke="#4a90d9" stroke-width="2" points="763.91,-697.74 770.92,-700.16 766.95,-693.9 763.91,-697.74"/>
<text text-anchor="middle" x="730.42" y="-646.92" font-family="Times-Roman" font-size="8.00" fill="#4a90d9">about</text>
</g>
<!-- L4YAML.Proofs.CouplingBridge.advance_offset_eq -->
<g id="node7" class="node">
<title>L4YAML.Proofs.CouplingBridge.advance_offset_eq</title>
<g id="a_node7"><a xlink:href="../../../api/L4YAML/Proofs/CouplingBridge.html#L4YAML.Proofs.CouplingBridge.advance_offset_eq" xlink:title="CouplingBridge.advance_offset_eq\n(CouplingBridge)" target="_blank">
<ellipse fill="#d4edda" stroke="#28a745" cx="182.88" cy="-282.32" rx="118.17" ry="21.43"/>
<text text-anchor="middle" x="182.88" y="-285.32" font-family="Helvetica" font-size="10.00">CouplingBridge.advance_offset_eq</text>
<text text-anchor="middle" x="182.88" y="-274.32" font-family="Helvetica" font-size="10.00">(CouplingBridge)</text>
</a>
</g>
</g>
<!-- L4YAML.Proofs.CouplingBridge.advance_offset_eq&#45;&gt;L4YAML.Scanner.ScannerState.input -->
<g id="edge14" class="edge">
<title>L4YAML.Proofs.CouplingBridge.advance_offset_eq&#45;&gt;L4YAML.Scanner.ScannerState.input</title>
<path fill="none" stroke="#999999" stroke-dasharray="1,5" d="M300.96,-281.5C322.41,-286.72 342.74,-296.16 357.75,-312.32 374.02,-329.82 362.58,-508.73 378.75,-526.32 405.86,-555.79 451.6,-562.13 487.84,-561.76"/>
<polygon fill="#999999" stroke="#999999" points="488.15,-563.5 493.11,-561.66 488.08,-560 488.15,-563.5"/>
</g>
<!-- L4YAML.Proofs.CouplingBridge.advance_offset_eq&#45;&gt;L4YAML.Scanner.ScannerState.advance -->
<g id="edge10" class="edge">
<title>L4YAML.Proofs.CouplingBridge.advance_offset_eq&#45;&gt;L4YAML.Scanner.ScannerState.advance</title>
<path fill="none" stroke="#999999" stroke-dasharray="1,5" d="M281.89,-270.66C415.12,-257.03 644.16,-242.2 707.92,-292.32 749.26,-324.81 733.05,-353.68 742.92,-405.32 752.63,-456.11 731.53,-594.77 760.92,-637.32 762.23,-639.21 763.7,-640.97 765.3,-642.61"/>
<polygon fill="#999999" stroke="#999999" points="764.4,-644.14 769.27,-646.22 766.75,-641.56 764.4,-644.14"/>
</g>
<!-- L4YAML.Proofs.CouplingBridge.advance_offset_eq&#45;&gt;L4YAML.Scanner.ScannerState -->
<g id="edge13" class="edge">
<title>L4YAML.Proofs.CouplingBridge.advance_offset_eq&#45;&gt;L4YAML.Scanner.ScannerState</title>
<path fill="none" stroke="#999999" stroke-dasharray="1,5" d="M288.93,-272.93C312.26,-268.48 336.38,-261.93 357.75,-252.32 362.94,-249.98 362.38,-246.2 367.75,-244.32 368.17,-244.17 368.31,-244.31 368.75,-244.32 535.1,-246.54 623.66,-138.34 742.92,-254.32 769.17,-279.84 740.46,-552.96 760.92,-583.32 764.85,-589.15 770.39,-593.75 776.49,-597.37"/>
<polygon fill="#999999" stroke="#999999" points="776.02,-599.1 781.25,-599.95 777.69,-596.03 776.02,-599.1"/>
</g>
<!-- L4YAML.Proofs.CouplingBridge.advance_offset_eq&#45;&gt;L4YAML.Scanner.ScannerState.offset -->
<g id="edge11" class="edge">
<title>L4YAML.Proofs.CouplingBridge.advance_offset_eq&#45;&gt;L4YAML.Scanner.ScannerState.offset</title>
<path fill="none" stroke="#999999" stroke-dasharray="1,5" d="M300.51,-280.41C321.49,-275.29 341.74,-266.58 357.75,-252.32 369.51,-241.84 356.04,-228.85 367.75,-218.32 491.75,-106.84 612.86,-111.97 742.92,-216.32 792.8,-256.33 811.79,-462.28 816.89,-532.69"/>
<polygon fill="#999999" stroke="#999999" points="815.16,-533.04 817.26,-537.91 818.65,-532.8 815.16,-533.04"/>
</g>
<!-- L4YAML.Proofs.CouplingBridge.advance_offset_eq&#45;&gt;L4YAML.Scanner.ScannerState.inputEnd -->
<g id="edge12" class="edge">
<title>L4YAML.Proofs.CouplingBridge.advance_offset_eq&#45;&gt;L4YAML.Scanner.ScannerState.inputEnd</title>
<path fill="none" stroke="#999999" stroke-dasharray="1,5" d="M298.96,-286.32C410.08,-294.61 579.88,-319.23 707.92,-391.32 727.37,-402.26 733.83,-406.94 742.92,-427.32 766.88,-481.02 727.72,-642.78 760.92,-691.32 762.22,-693.21 763.68,-694.98 765.28,-696.62"/>
<polygon fill="#999999" stroke="#999999" points="764.37,-698.16 769.24,-700.24 766.73,-695.57 764.37,-698.16"/>
</g>
<!-- L4YAML.Proofs.CouplingBridge.advance_offset_eq&#45;&gt;L4YAML.Proofs.ScannerCoupling.advance_fuel_budget -->
<g id="edge8" class="edge">
<title>L4YAML.Proofs.CouplingBridge.advance_offset_eq&#45;&gt;L4YAML.Proofs.ScannerCoupling.advance_fuel_budget</title>
<path fill="none" stroke="#28a745" d="M290.09,-291.35C313.11,-295.83 336.82,-302.48 357.75,-312.32 424.79,-343.83 486.71,-406.45 518.99,-442.68"/>
<polygon fill="#28a745" stroke="#28a745" points="517.45,-444.63 523.92,-448.26 521.12,-441.39 517.45,-444.63"/>
</g>
<!-- L4YAML.Proofs.CouplingBridge.advance_inputEnd -->
<g id="node8" class="node">
<title>L4YAML.Proofs.CouplingBridge.advance_inputEnd</title>
<g id="a_node8"><a xlink:href="../../../api/L4YAML/Proofs/CouplingBridge.html#L4YAML.Proofs.CouplingBridge.advance_inputEnd" xlink:title="CouplingBridge.advance_inputEnd\n(CouplingBridge)" target="_blank">
<ellipse fill="#d4edda" stroke="#28a745" cx="182.88" cy="-342.32" rx="116.85" ry="21.43"/>
<text text-anchor="middle" x="182.88" y="-345.32" font-family="Helvetica" font-size="10.00">CouplingBridge.advance_inputEnd</text>
<text text-anchor="middle" x="182.88" y="-334.32" font-family="Helvetica" font-size="10.00">(CouplingBridge)</text>
</a>
</g>
</g>
<!-- L4YAML.Proofs.CouplingBridge.advance_inputEnd&#45;&gt;L4YAML.Scanner.ScannerState.advance -->
<g id="edge15" class="edge">
<title>L4YAML.Proofs.CouplingBridge.advance_inputEnd&#45;&gt;L4YAML.Scanner.ScannerState.advance</title>
<path fill="none" stroke="#999999" stroke-dasharray="1,5" d="M291.47,-350.15C421.83,-360.56 633.27,-380.67 707.92,-406.32 725.08,-412.21 733.32,-411.93 742.92,-427.32 767.72,-467.05 734.14,-598.89 760.92,-637.32 762.24,-639.2 763.71,-640.96 765.32,-642.59"/>
<polygon fill="#999999" stroke="#999999" points="764.42,-644.14 769.3,-646.2 766.77,-641.54 764.42,-644.14"/>
</g>
<!-- L4YAML.Proofs.CouplingBridge.advance_inputEnd&#45;&gt;L4YAML.Scanner.ScannerState -->
<g id="edge17" class="edge">
<title>L4YAML.Proofs.CouplingBridge.advance_inputEnd&#45;&gt;L4YAML.Scanner.ScannerState</title>
<path fill="none" stroke="#999999" stroke-dasharray="1,5" d="M284.6,-331.89C427.76,-319.5 679.78,-307.47 742.92,-368.32 777.45,-401.59 733.55,-543.96 760.92,-583.32 765.02,-589.2 770.74,-593.84 777,-597.48"/>
<polygon fill="#999999" stroke="#999999" points="776.17,-599.03 781.4,-599.85 777.83,-595.94 776.17,-599.03"/>
</g>
<!-- L4YAML.Proofs.CouplingBridge.advance_inputEnd&#45;&gt;L4YAML.Scanner.ScannerState.inputEnd -->
<g id="edge16" class="edge">
<title>L4YAML.Proofs.CouplingBridge.advance_inputEnd&#45;&gt;L4YAML.Scanner.ScannerState.inputEnd</title>
<path fill="none" stroke="#999999" stroke-dasharray="1,5" d="M292.42,-349.74C314.95,-354.33 337.87,-361.43 357.75,-372.32 369.9,-378.96 366.46,-388.96 378.75,-395.32 444.23,-429.18 655.71,-384.29 707.92,-436.32 720.3,-448.65 710.67,-498.42 717.92,-514.32 724.85,-529.49 736.05,-527.12 742.92,-542.32 770.4,-603.1 721.84,-637.26 760.92,-691.32 762.38,-693.33 764.03,-695.2 765.82,-696.94"/>
<polygon fill="#999999" stroke="#999999" points="764.77,-698.35 769.69,-700.31 767.07,-695.71 764.77,-698.35"/>
</g>
<!-- L4YAML.Proofs.CouplingBridge.advance_inputEnd&#45;&gt;L4YAML.Proofs.ScannerCoupling.advance_fuel_budget -->
<g id="edge5" class="edge">
<title>L4YAML.Proofs.CouplingBridge.advance_inputEnd&#45;&gt;L4YAML.Proofs.ScannerCoupling.advance_fuel_budget</title>
<path fill="none" stroke="#28a745" d="M299.65,-342.22C321.33,-347.36 342.07,-356.59 357.75,-372.32 376.53,-391.15 349.9,-411.61 367.75,-431.32 376.38,-440.83 386.77,-448.29 398.13,-454.11"/>
<polygon fill="#28a745" stroke="#28a745" points="397.17,-456.36 404.54,-457.18 399.28,-451.94 397.17,-456.36"/>
</g>
<!-- L4YAML.Proofs.ScannerCoupling.raw_next_gt -->
<g id="node9" class="node">
<title>L4YAML.Proofs.ScannerCoupling.raw_next_gt</title>
<g id="a_node9"><a xlink:href="../../../api/L4YAML/Proofs/ScannerCoupling.html#L4YAML.Proofs.ScannerCoupling.raw_next_gt" xlink:title="ScannerCoupling.raw_next_gt\n(ScannerCoupling)" target="_blank">
<ellipse fill="#d4edda" stroke="#28a745" cx="182.88" cy="-402.32" rx="103.89" ry="21.43"/>
<text text-anchor="middle" x="182.88" y="-405.32" font-family="Helvetica" font-size="10.00">ScannerCoupling.raw_next_gt</text>
<text text-anchor="middle" x="182.88" y="-394.32" font-family="Helvetica" font-size="10.00">(ScannerCoupling)</text>
</a>
</g>
</g>
<!-- L4YAML.Proofs.ScannerCoupling.raw_next_gt&#45;&gt;L4YAML.Proofs.ScannerCoupling.advance_fuel_budget -->
<g id="edge7" class="edge">
<title>L4YAML.Proofs.ScannerCoupling.raw_next_gt&#45;&gt;L4YAML.Proofs.ScannerCoupling.advance_fuel_budget</title>
<path fill="none" stroke="#28a745" d="M235.89,-420.71C272.34,-432.82 322.44,-447.94 367.75,-456.32 371.59,-457.03 375.47,-457.7 379.39,-458.34"/>
<polygon fill="#28a745" stroke="#28a745" points="379.2,-460.79 386.5,-459.45 379.96,-455.95 379.2,-460.79"/>
</g>
<!-- L4YAML.Proofs.ScannerCoupling.advance_fuel_budget._proof_1_1 -->
<g id="node10" class="node">
<title>L4YAML.Proofs.ScannerCoupling.advance_fuel_budget._proof_1_1</title>
<g id="a_node10"><a xlink:href="../../../api/L4YAML/Proofs/ScannerCoupling.html#L4YAML.Proofs.ScannerCoupling.advance_fuel_budget._proof_1_1" xlink:title="ScannerCoupling.advance_fuel_budget._proof_1_1\n(ScannerCoupling)" target="_blank">
<ellipse fill="#d4edda" stroke="#28a745" cx="182.88" cy="-222.32" rx="166.75" ry="21.43"/>
<text text-anchor="middle" x="182.88" y="-225.32" font-family="Helvetica" font-size="10.00">ScannerCoupling.advance_fuel_budget._proof_1_1</text>
<text text-anchor="middle" x="182.88" y="-214.32" font-family="Helvetica" font-size="10.00">(ScannerCoupling)</text>
</a>
</g>
</g>
<!-- L4YAML.Proofs.ScannerCoupling.advance_fuel_budget._proof_1_1&#45;&gt;L4YAML.Scanner.ScannerState.input -->
<g id="edge22" class="edge">
<title>L4YAML.Proofs.ScannerCoupling.advance_fuel_budget._proof_1_1&#45;&gt;L4YAML.Scanner.ScannerState.input</title>
<path fill="none" stroke="#999999" stroke-dasharray="1,5" d="M331.16,-232.21C341.07,-237.35 350.13,-243.93 357.75,-252.32 360.32,-255.14 376.2,-523.48 378.75,-526.32 405.64,-556.18 451.63,-562.44 488.01,-561.94"/>
<polygon fill="#999999" stroke="#999999" points="488.35,-563.68 493.31,-561.81 488.27,-560.18 488.35,-563.68"/>
</g>
<!-- L4YAML.Proofs.ScannerCoupling.advance_fuel_budget._proof_1_1&#45;&gt;L4YAML.Scanner.ScannerState.advance -->
<g id="edge18" class="edge">
<title>L4YAML.Proofs.ScannerCoupling.advance_fuel_budget._proof_1_1&#45;&gt;L4YAML.Scanner.ScannerState.advance</title>
<path fill="none" stroke="#999999" stroke-dasharray="1,5" d="M218.64,-201.47C254.54,-181.26 312.88,-152 367.75,-140.32 441.69,-124.58 648.94,-93.04 707.92,-140.32 763.7,-185.03 733.22,-226.49 742.92,-297.32 748.06,-334.8 739.8,-605.93 760.92,-637.32 762.2,-639.22 763.66,-640.99 765.25,-642.65"/>
<polygon fill="#999999" stroke="#999999" points="764.32,-644.17 769.18,-646.28 766.69,-641.6 764.32,-644.17"/>
</g>
<!-- L4YAML.Proofs.ScannerCoupling.advance_fuel_budget._proof_1_1&#45;&gt;L4YAML.Scanner.ScannerState -->
<g id="edge21" class="edge">
<title>L4YAML.Proofs.ScannerCoupling.advance_fuel_budget._proof_1_1&#45;&gt;L4YAML.Scanner.ScannerState</title>
<path fill="none" stroke="#999999" stroke-dasharray="1,5" d="M206.57,-201.07C239.23,-172.12 302.72,-121.66 367.75,-102.32 447.67,-78.55 682.88,-44.48 742.92,-102.32 781.44,-139.42 731.41,-538.72 760.92,-583.32 764.8,-589.18 770.32,-593.8 776.41,-597.43"/>
<polygon fill="#999999" stroke="#999999" points="775.93,-599.16 781.16,-600.01 777.61,-596.09 775.93,-599.16"/>
</g>
<!-- L4YAML.Proofs.ScannerCoupling.advance_fuel_budget._proof_1_1&#45;&gt;L4YAML.Scanner.ScannerState.offset -->
<g id="edge19" class="edge">
<title>L4YAML.Proofs.ScannerCoupling.advance_fuel_budget._proof_1_1&#45;&gt;L4YAML.Scanner.ScannerState.offset</title>
<path fill="none" stroke="#999999" stroke-dasharray="1,5" d="M199.74,-201.2C228.49,-164.91 293.16,-91.96 367.75,-64.32 524.1,-6.37 616.39,44.28 742.92,-64.32 814.93,-126.12 818.96,-444 818.64,-533.08"/>
<polygon fill="#999999" stroke="#999999" points="816.89,-533.12 818.62,-538.13 820.39,-533.14 816.89,-533.12"/>
</g>
<!-- L4YAML.Proofs.ScannerCoupling.advance_fuel_budget._proof_1_1&#45;&gt;L4YAML.Scanner.ScannerState.inputEnd -->
<g id="edge20" class="edge">
<title>L4YAML.Proofs.ScannerCoupling.advance_fuel_budget._proof_1_1&#45;&gt;L4YAML.Scanner.ScannerState.inputEnd</title>
<path fill="none" stroke="#999999" stroke-dasharray="1,5" d="M288.9,-205.91C404.63,-194.01 589.95,-194.01 707.92,-290.32 745.05,-320.63 733.62,-345.3 742.92,-392.32 749.38,-424.97 742.24,-663.77 760.92,-691.32 762.21,-693.22 763.67,-694.99 765.26,-696.63"/>
<polygon fill="#999999" stroke="#999999" points="764.34,-698.16 769.21,-700.26 766.71,-695.59 764.34,-698.16"/>
</g>
<!-- L4YAML.Proofs.ScannerCoupling.advance_fuel_budget._proof_1_1&#45;&gt;L4YAML.Proofs.ScannerCoupling.advance_fuel_budget -->
<g id="edge6" class="edge">
<title>L4YAML.Proofs.ScannerCoupling.advance_fuel_budget._proof_1_1&#45;&gt;L4YAML.Proofs.ScannerCoupling.advance_fuel_budget</title>
<path fill="none" stroke="#28a745" d="M316.43,-235.09C330.9,-239.4 344.99,-245.02 357.75,-252.32 438.71,-298.62 500.33,-394.53 527.34,-442.19"/>
<polygon fill="#28a745" stroke="#28a745" points="525.21,-443.39 530.77,-448.3 529.48,-441 525.21,-443.39"/>
</g>
<!-- Decidable.byContradiction -->
<g id="node11" class="node">
<title>Decidable.byContradiction</title>
<g id="a_node11"><a xlink:href="../../../api/Init/Core.html#Decidable.byContradiction" xlink:title="Decidable.byContradiction" target="_blank">
<ellipse fill="#fdebd0" stroke="#e67e22" cx="182.88" cy="-495.32" rx="77.23" ry="18"/>
<text text-anchor="middle" x="182.88" y="-492.82" font-family="Helvetica" font-size="10.00">Decidable.byContradiction</text>
</a>
</g>
</g>
<!-- Decidable.byContradiction&#45;&gt;L4YAML.Proofs.ScannerCoupling.advance_fuel_budget -->
<g id="edge9" class="edge">
<title>Decidable.byContradiction&#45;&gt;L4YAML.Proofs.ScannerCoupling.advance_fuel_budget</title>
<path fill="none" stroke="#e67e22" stroke-width="2" d="M256.85,-490.23C292.33,-487.75 336.52,-484.67 379.44,-481.68"/>
<polygon fill="#e67e22" stroke="#e67e22" stroke-width="2" points="379.78,-484.11 386.6,-481.18 379.44,-479.22 379.78,-484.11"/>
</g>
</g>
</svg>
