<?xml version="1.0" encoding="UTF-8" standalone="no"?>
<!DOCTYPE svg PUBLIC "-//W3C//DTD SVG 1.1//EN"
 "http://www.w3.org/Graphics/SVG/1.1/DTD/svg11.dtd">
<!-- Generated by graphviz version 2.44.0 (0)
 -->
<!-- Title: skipWhitespaceLoop.eq_def Pages: 1 -->
<svg width="789pt" height="562pt"
 viewBox="0.00 0.00 789.12 562.00" xmlns="http://www.w3.org/2000/svg" xmlns:xlink="http://www.w3.org/1999/xlink">
<g id="graph0" class="graph" transform="scale(1 1) rotate(0) translate(4 558)">
<title>skipWhitespaceLoop.eq_def</title>
<polygon fill="white" stroke="transparent" points="-4,4 -4,-558 785.12,-558 785.12,4 -4,4"/>
<text text-anchor="middle" x="390.56" y="-539.6" font-family="Helvetica Bold" font-size="13.00">skipWhitespaceLoop.eq_def</text>
<text text-anchor="middle" x="390.56" y="-525.6" font-family="Helvetica Bold" font-size="13.00">(heuristic: used by 20 proofs)</text>
<text text-anchor="middle" x="390.56" y="-511.6" font-family="Helvetica Bold" font-size="13.00">(L4YAML.Scanner)</text>
<g id="clust1" class="cluster">
<title>cluster_functions</title>
<polygon fill="none" stroke="#4a90d9" stroke-dasharray="5,2" points="334.18,-98 334.18,-496 773.12,-496 773.12,-98 334.18,-98"/>
<text text-anchor="middle" x="553.65" y="-481.6" font-family="Helvetica Bold" font-size="13.00" fill="#4a90d9">Functions</text>
</g>
<g id="clust2" class="cluster">
<title>cluster_key</title>
<polygon fill="none" stroke="#d4a017" stroke-dasharray="5,2" points="288.24,-8 288.24,-90 536.12,-90 536.12,-8 288.24,-8"/>
<text text-anchor="middle" x="412.18" y="-75.6" font-family="Helvetica Bold" font-size="13.00" fill="#d4a017">Key Theorem</text>
</g>
<g id="clust3" class="cluster">
<title>cluster_proofs</title>
<polygon fill="none" stroke="#28a745" stroke-dasharray="5,2" points="8,-265 8,-345 267.24,-345 267.24,-265 8,-265"/>
<text text-anchor="middle" x="137.62" y="-330.6" font-family="Helvetica Bold" font-size="13.00" fill="#28a745">Proof Dependencies</text>
</g>
<!-- L4YAML.Scanner.skipWhitespaceLoop -->
<g id="node1" class="node">
<title>L4YAML.Scanner.skipWhitespaceLoop</title>
<polygon fill="#dce9f7" stroke="#4a90d9" points="730.62,-142 623.62,-142 623.62,-106 730.62,-106 730.62,-142"/>
<text text-anchor="middle" x="677.12" y="-127" font-family="Helvetica" font-size="10.00">skipWhitespaceLoop</text>
<text text-anchor="middle" x="677.12" y="-116" font-family="Helvetica" font-size="10.00">(def)</text>
</g>
<!-- L4YAML.Scanner.ScannerState.advance -->
<g id="node2" class="node">
<title>L4YAML.Scanner.ScannerState.advance</title>
<polygon fill="#dce9f7" stroke="#4a90d9" points="734.62,-196 619.62,-196 619.62,-160 734.62,-160 734.62,-196"/>
<text text-anchor="middle" x="677.12" y="-181" font-family="Helvetica" font-size="10.00">ScannerState.advance</text>
<text text-anchor="middle" x="677.12" y="-170" font-family="Helvetica" font-size="10.00">(def)</text>
</g>
<!-- L4YAML.Scanner.ScannerState.peek? -->
<g id="node3" class="node">
<title>L4YAML.Scanner.ScannerState.peek?</title>
<polygon fill="#dce9f7" stroke="#4a90d9" points="729.12,-466 625.12,-466 625.12,-430 729.12,-430 729.12,-466"/>
<text text-anchor="middle" x="677.12" y="-451" font-family="Helvetica" font-size="10.00">ScannerState.peek?</text>
<text text-anchor="middle" x="677.12" y="-440" font-family="Helvetica" font-size="10.00">(def)</text>
</g>
<!-- L4YAML.Scanner.skipWhitespaceLoop.match_1 -->
<g id="node4" class="node">
<title>L4YAML.Scanner.skipWhitespaceLoop.match_1</title>
<polygon fill="#dce9f7" stroke="#4a90d9" points="751.12,-250 603.12,-250 603.12,-214 751.12,-214 751.12,-250"/>
<text text-anchor="middle" x="677.12" y="-235" font-family="Helvetica" font-size="10.00">skipWhitespaceLoop.match_1</text>
<text text-anchor="middle" x="677.12" y="-224" font-family="Helvetica" font-size="10.00">(def)</text>
</g>
<!-- L4YAML.Scanner.ScannerState -->
<g id="node5" class="node">
<title>L4YAML.Scanner.ScannerState</title>
<polygon fill="#dce9f7" stroke="#4a90d9" points="715.12,-412 639.12,-412 639.12,-376 715.12,-376 715.12,-412"/>
<text text-anchor="middle" x="677.12" y="-397" font-family="Helvetica" font-size="10.00">ScannerState</text>
<text text-anchor="middle" x="677.12" y="-386" font-family="Helvetica" font-size="10.00">(inductive)</text>
</g>
<!-- L4YAML.Scanner.ScannerState.peekAt?Loop.match_1 -->
<g id="node6" class="node">
<title>L4YAML.Scanner.ScannerState.peekAt?Loop.match_1</title>
<polygon fill="#dce9f7" stroke="#4a90d9" points="765.12,-358 589.12,-358 589.12,-322 765.12,-322 765.12,-358"/>
<text text-anchor="middle" x="677.12" y="-343" font-family="Helvetica" font-size="10.00">ScannerState.peekAt?Loop.match_1</text>
<text text-anchor="middle" x="677.12" y="-332" font-family="Helvetica" font-size="10.00">(def)</text>
</g>
<!-- L4YAML.Scanner.skipWhitespaceLoop._unary -->
<g id="node7" class="node">
<title>L4YAML.Scanner.skipWhitespaceLoop._unary</title>
<polygon fill="#dce9f7" stroke="#4a90d9" points="482.18,-466 342.18,-466 342.18,-430 482.18,-430 482.18,-466"/>
<text text-anchor="middle" x="412.18" y="-451" font-family="Helvetica" font-size="10.00">skipWhitespaceLoop._unary</text>
<text text-anchor="middle" x="412.18" y="-440" font-family="Helvetica" font-size="10.00">(def)</text>
</g>
<!-- L4YAML.CharPredicates.isWhiteSpaceBool -->
<g id="node8" class="node">
<title>L4YAML.CharPredicates.isWhiteSpaceBool</title>
<polygon fill="#dce9f7" stroke="#4a90d9" points="760.62,-304 593.62,-304 593.62,-268 760.62,-268 760.62,-304"/>
<text text-anchor="middle" x="677.12" y="-289" font-family="Helvetica" font-size="10.00">CharPredicates.isWhiteSpaceBool</text>
<text text-anchor="middle" x="677.12" y="-278" font-family="Helvetica" font-size="10.00">(def)</text>
</g>
<!-- L4YAML.Scanner.skipWhitespaceLoop.eq_def -->
<g id="node9" class="node">
<title>L4YAML.Scanner.skipWhitespaceLoop.eq_def</title>
<polygon fill="#fff3cd" stroke="#d4a017" points="524.07,-30.54 524.07,-45.46 458.53,-56 365.84,-56 300.3,-45.46 300.3,-30.54 365.84,-20 458.53,-20 524.07,-30.54"/>
<polygon fill="none" stroke="#d4a017" points="528.06,-27.14 528.06,-48.86 458.85,-60 365.52,-60 296.31,-48.86 296.31,-27.14 365.52,-16 458.85,-16 528.06,-27.14"/>
<text text-anchor="middle" x="412.18" y="-34.9" font-family="Helvetica" font-size="12.00">skipWhitespaceLoop.eq_def</text>
</g>
<!-- L4YAML.Scanner.skipWhitespaceLoop.eq_def&#45;&gt;L4YAML.Scanner.skipWhitespaceLoop -->
<g id="edge3" class="edge">
<title>L4YAML.Scanner.skipWhitespaceLoop.eq_def&#45;&gt;L4YAML.Scanner.skipWhitespaceLoop</title>
<path fill="none" stroke="#4a90d9" stroke-width="2" d="M528.06,-44.77C542.8,-47.47 557.48,-51.11 571.12,-56 599.97,-66.34 628.91,-85.93 649.08,-101.44"/>
<polygon fill="#4a90d9" stroke="#4a90d9" stroke-width="2" points="647.76,-103.52 654.79,-105.9 650.78,-99.66 647.76,-103.52"/>
<text text-anchor="middle" x="558.62" y="-58.6" font-family="Times-Roman" font-size="8.00" fill="#4a90d9">about</text>
</g>
<!-- L4YAML.Scanner.skipWhitespaceLoop.eq_def&#45;&gt;L4YAML.Scanner.ScannerState.advance -->
<g id="edge1" class="edge">
<title>L4YAML.Scanner.skipWhitespaceLoop.eq_def&#45;&gt;L4YAML.Scanner.ScannerState.advance</title>
<path fill="none" stroke="#4a90d9" stroke-width="2" d="M500.47,-53.39C526.07,-61.69 552.23,-74.43 571.12,-94 589.58,-113.11 570.29,-132.26 589.12,-151 595.73,-157.58 603.92,-162.56 612.59,-166.33"/>
<polygon fill="#4a90d9" stroke="#4a90d9" stroke-width="2" points="611.9,-168.69 619.31,-168.98 613.7,-164.13 611.9,-168.69"/>
<text text-anchor="middle" x="558.62" y="-96.6" font-family="Times-Roman" font-size="8.00" fill="#4a90d9">about</text>
</g>
<!-- L4YAML.Scanner.skipWhitespaceLoop.eq_def&#45;&gt;L4YAML.Scanner.ScannerState.peek? -->
<g id="edge7" class="edge">
<title>L4YAML.Scanner.skipWhitespaceLoop.eq_def&#45;&gt;L4YAML.Scanner.ScannerState.peek?</title>
<path fill="none" stroke="#4a90d9" stroke-width="2" d="M485.71,-55.74C505.23,-64.1 524.21,-76.3 536.12,-94 551.03,-116.14 539.24,-308.21 546.12,-334 552.33,-357.24 560.53,-360.41 571.12,-382 579.54,-399.14 574.77,-408.42 589.12,-421 597.42,-428.27 607.65,-433.58 618.14,-437.46"/>
<polygon fill="#4a90d9" stroke="#4a90d9" stroke-width="2" points="617.64,-439.88 625.06,-439.81 619.22,-435.24 617.64,-439.88"/>
<text text-anchor="middle" x="558.62" y="-384.6" font-family="Times-Roman" font-size="8.00" fill="#4a90d9">about</text>
</g>
<!-- L4YAML.Scanner.skipWhitespaceLoop.eq_def&#45;&gt;L4YAML.Scanner.skipWhitespaceLoop.match_1 -->
<g id="edge6" class="edge">
<title>L4YAML.Scanner.skipWhitespaceLoop.eq_def&#45;&gt;L4YAML.Scanner.skipWhitespaceLoop.match_1</title>
<path fill="none" stroke="#4a90d9" stroke-width="2" d="M475.12,-57.52C496.16,-66.29 518.73,-78.27 536.12,-94 559.02,-114.7 558.15,-125.99 571.12,-154 581.22,-175.81 571.8,-188.33 589.12,-205 591.56,-207.34 594.19,-209.48 596.98,-211.44"/>
<polygon fill="#4a90d9" stroke="#4a90d9" stroke-width="2" points="595.67,-213.51 602.89,-215.2 598.3,-209.37 595.67,-213.51"/>
<text text-anchor="middle" x="558.62" y="-156.6" font-family="Times-Roman" font-size="8.00" fill="#4a90d9">about</text>
</g>
<!-- L4YAML.Scanner.skipWhitespaceLoop.eq_def&#45;&gt;L4YAML.Scanner.ScannerState -->
<g id="edge4" class="edge">
<title>L4YAML.Scanner.skipWhitespaceLoop.eq_def&#45;&gt;L4YAML.Scanner.ScannerState</title>
<path fill="none" stroke="#4a90d9" stroke-width="2" d="M485.57,-55.83C505.08,-64.2 524.09,-76.37 536.12,-94 547.6,-110.82 540.74,-257.36 546.12,-277 552.48,-300.2 560.82,-303.26 571.12,-325 579.82,-343.35 574.04,-353.41 589.12,-367 600.94,-377.65 616.91,-384.1 631.93,-388"/>
<polygon fill="#4a90d9" stroke="#4a90d9" stroke-width="2" points="631.38,-390.39 638.75,-389.63 632.51,-385.62 631.38,-390.39"/>
<text text-anchor="middle" x="558.62" y="-327.6" font-family="Times-Roman" font-size="8.00" fill="#4a90d9">about</text>
</g>
<!-- L4YAML.Scanner.skipWhitespaceLoop.eq_def&#45;&gt;L4YAML.Scanner.ScannerState.peekAt?Loop.match_1 -->
<g id="edge2" class="edge">
<title>L4YAML.Scanner.skipWhitespaceLoop.eq_def&#45;&gt;L4YAML.Scanner.ScannerState.peekAt?Loop.match_1</title>
<path fill="none" stroke="#4a90d9" stroke-width="2" d="M484.98,-55.88C504.59,-64.26 523.81,-76.43 536.12,-94 552.24,-117 538.37,-193 546.12,-220 552.76,-243.12 561.09,-246.14 571.12,-268 580.11,-287.58 573.3,-298.39 589.12,-313 590.92,-314.66 592.83,-316.22 594.81,-317.69"/>
<polygon fill="#4a90d9" stroke="#4a90d9" stroke-width="2" points="593.8,-319.96 600.99,-321.8 596.52,-315.88 593.8,-319.96"/>
<text text-anchor="middle" x="558.62" y="-270.6" font-family="Times-Roman" font-size="8.00" fill="#4a90d9">about</text>
</g>
<!-- L4YAML.Scanner.skipWhitespaceLoop.eq_def&#45;&gt;L4YAML.CharPredicates.isWhiteSpaceBool -->
<g id="edge5" class="edge">
<title>L4YAML.Scanner.skipWhitespaceLoop.eq_def&#45;&gt;L4YAML.CharPredicates.isWhiteSpaceBool</title>
<path fill="none" stroke="#4a90d9" stroke-width="2" d="M483.64,-56.11C503.44,-64.52 523.1,-76.65 536.12,-94 554.72,-118.79 536.61,-133.51 546.12,-163 553.51,-185.89 561.33,-189.03 571.12,-211 580.4,-231.81 572.55,-243.36 589.12,-259 590.91,-260.68 592.79,-262.26 594.76,-263.74"/>
<polygon fill="#4a90d9" stroke="#4a90d9" stroke-width="2" points="593.73,-266 600.9,-267.89 596.48,-261.94 593.73,-266"/>
<text text-anchor="middle" x="558.62" y="-213.6" font-family="Times-Roman" font-size="8.00" fill="#4a90d9">about</text>
</g>
<!-- L4YAML.Scanner.skipWhitespaceLoop._unary.eq_def -->
<g id="node10" class="node">
<title>L4YAML.Scanner.skipWhitespaceLoop._unary.eq_def</title>
<ellipse fill="#d4edda" stroke="#28a745" cx="137.62" cy="-294" rx="121.74" ry="21.43"/>
<text text-anchor="middle" x="137.62" y="-297" font-family="Helvetica" font-size="10.00">skipWhitespaceLoop._unary.eq_def</text>
<text text-anchor="middle" x="137.62" y="-286" font-family="Helvetica" font-size="10.00">(Scanner)</text>
</g>
<!-- L4YAML.Scanner.skipWhitespaceLoop._unary.eq_def&#45;&gt;L4YAML.Scanner.ScannerState.advance -->
<g id="edge9" class="edge">
<title>L4YAML.Scanner.skipWhitespaceLoop._unary.eq_def&#45;&gt;L4YAML.Scanner.ScannerState.advance</title>
<path fill="none" stroke="#999999" stroke-dasharray="1,5" d="M172.86,-273.58C202.48,-256.73 246.93,-233.32 288.24,-219 398.8,-180.68 429.72,-177.84 546.12,-166 568.36,-163.74 592.75,-165 614.34,-167.4"/>
<polygon fill="#999999" stroke="#999999" points="614.3,-169.16 619.47,-168 614.71,-165.69 614.3,-169.16"/>
</g>
<!-- L4YAML.Scanner.skipWhitespaceLoop._unary.eq_def&#45;&gt;L4YAML.Scanner.ScannerState.peek? -->
<g id="edge15" class="edge">
<title>L4YAML.Scanner.skipWhitespaceLoop._unary.eq_def&#45;&gt;L4YAML.Scanner.ScannerState.peek?</title>
<path fill="none" stroke="#999999" stroke-dasharray="1,5" d="M174.48,-314.28C204.16,-330.32 247.86,-352.24 288.24,-366 319.36,-376.6 520.01,-417.04 619.86,-436.88"/>
<polygon fill="#999999" stroke="#999999" points="619.58,-438.61 624.83,-437.87 620.27,-435.18 619.58,-438.61"/>
</g>
<!-- L4YAML.Scanner.skipWhitespaceLoop._unary.eq_def&#45;&gt;L4YAML.Scanner.skipWhitespaceLoop.match_1 -->
<g id="edge13" class="edge">
<title>L4YAML.Scanner.skipWhitespaceLoop._unary.eq_def&#45;&gt;L4YAML.Scanner.skipWhitespaceLoop.match_1</title>
<path fill="none" stroke="#999999" stroke-dasharray="1,5" d="M212.48,-277.17C293.73,-259.59 428.43,-233.18 546.12,-223 562.77,-221.56 580.63,-221.7 597.62,-222.63"/>
<polygon fill="#999999" stroke="#999999" points="597.77,-224.39 602.87,-222.94 597.98,-220.9 597.77,-224.39"/>
</g>
<!-- L4YAML.Scanner.skipWhitespaceLoop._unary.eq_def&#45;&gt;L4YAML.Scanner.ScannerState -->
<g id="edge11" class="edge">
<title>L4YAML.Scanner.skipWhitespaceLoop._unary.eq_def&#45;&gt;L4YAML.Scanner.ScannerState</title>
<path fill="none" stroke="#999999" stroke-dasharray="1,5" d="M205.39,-311.75C231.17,-318.27 260.98,-325.42 288.24,-331 413.24,-356.56 562.61,-378.4 634.03,-388.31"/>
<polygon fill="#999999" stroke="#999999" points="633.85,-390.05 639.04,-389 634.33,-386.58 633.85,-390.05"/>
</g>
<!-- L4YAML.Scanner.skipWhitespaceLoop._unary.eq_def&#45;&gt;L4YAML.Scanner.ScannerState.peekAt?Loop.match_1 -->
<g id="edge10" class="edge">
<title>L4YAML.Scanner.skipWhitespaceLoop._unary.eq_def&#45;&gt;L4YAML.Scanner.ScannerState.peekAt?Loop.match_1</title>
<path fill="none" stroke="#999999" stroke-dasharray="1,5" d="M247.07,-303.28C345.94,-311.74 490.42,-324.11 583.87,-332.1"/>
<polygon fill="#999999" stroke="#999999" points="583.98,-333.87 589.11,-332.55 584.28,-330.38 583.98,-333.87"/>
</g>
<!-- L4YAML.Scanner.skipWhitespaceLoop._unary.eq_def&#45;&gt;L4YAML.Scanner.skipWhitespaceLoop._unary -->
<g id="edge14" class="edge">
<title>L4YAML.Scanner.skipWhitespaceLoop._unary.eq_def&#45;&gt;L4YAML.Scanner.skipWhitespaceLoop._unary</title>
<path fill="none" stroke="#999999" stroke-dasharray="1,5" d="M156.51,-315.16C180.94,-342.65 227.43,-390.19 277.24,-416 295.64,-425.53 316.93,-432.28 337.04,-437.03"/>
<polygon fill="#999999" stroke="#999999" points="336.87,-438.79 342.13,-438.2 337.65,-435.37 336.87,-438.79"/>
</g>
<!-- L4YAML.Scanner.skipWhitespaceLoop._unary.eq_def&#45;&gt;L4YAML.CharPredicates.isWhiteSpaceBool -->
<g id="edge12" class="edge">
<title>L4YAML.Scanner.skipWhitespaceLoop._unary.eq_def&#45;&gt;L4YAML.CharPredicates.isWhiteSpaceBool</title>
<path fill="none" stroke="#999999" stroke-dasharray="1,5" d="M251.99,-286.56C339.23,-281.75 462.8,-276.91 571.12,-280 576.71,-280.16 582.47,-280.37 588.27,-280.61"/>
<polygon fill="#999999" stroke="#999999" points="588.53,-282.37 593.61,-280.84 588.69,-278.87 588.53,-282.37"/>
</g>
<!-- L4YAML.Scanner.skipWhitespaceLoop._unary.eq_def&#45;&gt;L4YAML.Scanner.skipWhitespaceLoop.eq_def -->
<g id="edge8" class="edge">
<title>L4YAML.Scanner.skipWhitespaceLoop._unary.eq_def&#45;&gt;L4YAML.Scanner.skipWhitespaceLoop.eq_def</title>
<path fill="none" stroke="#28a745" d="M149.67,-272.85C171.39,-233.06 223.23,-146.36 288.24,-94 305.15,-80.39 325.9,-69.3 345.5,-60.69"/>
<polygon fill="#28a745" stroke="#28a745" points="346.63,-62.87 352.1,-57.86 344.7,-58.37 346.63,-62.87"/>
</g>
</g>
</svg>
