<?xml version="1.0" encoding="UTF-8" standalone="no"?>
<!DOCTYPE svg PUBLIC "-//W3C//DTD SVG 1.1//EN"
 "http://www.w3.org/Graphics/SVG/1.1/DTD/svg11.dtd">
<!-- Generated by graphviz version 2.44.0 (0)
 -->
<!-- Title: skipSpacesLoop.eq_def Pages: 1 -->
<svg width="733pt" height="508pt"
 viewBox="0.00 0.00 732.94 508.00" xmlns="http://www.w3.org/2000/svg" xmlns:xlink="http://www.w3.org/1999/xlink">
<g id="graph0" class="graph" transform="scale(1 1) rotate(0) translate(4 504)">
<title>skipSpacesLoop.eq_def</title>
<polygon fill="white" stroke="transparent" points="-4,4 -4,-504 728.94,-504 728.94,4 -4,4"/>
<text text-anchor="middle" x="362.47" y="-485.6" font-family="Helvetica Bold" font-size="13.00">skipSpacesLoop.eq_def</text>
<text text-anchor="middle" x="362.47" y="-471.6" font-family="Helvetica Bold" font-size="13.00">(heuristic: used by 16 proofs)</text>
<text text-anchor="middle" x="362.47" y="-457.6" font-family="Helvetica Bold" font-size="13.00">(L4YAML.Scanner)</text>
<g id="clust1" class="cluster">
<title>cluster_functions</title>
<polygon fill="none" stroke="#4a90d9" stroke-dasharray="5,2" points="301.66,-98 301.66,-442 716.94,-442 716.94,-98 301.66,-98"/>
<text text-anchor="middle" x="509.3" y="-427.6" font-family="Helvetica Bold" font-size="13.00" fill="#4a90d9">Functions</text>
</g>
<g id="clust2" class="cluster">
<title>cluster_key</title>
<polygon fill="none" stroke="#d4a017" stroke-dasharray="5,2" points="261.37,-8 261.37,-90 479.94,-90 479.94,-8 261.37,-8"/>
<text text-anchor="middle" x="370.66" y="-75.6" font-family="Helvetica Bold" font-size="13.00" fill="#d4a017">Key Theorem</text>
</g>
<g id="clust3" class="cluster">
<title>cluster_proofs</title>
<polygon fill="none" stroke="#28a745" stroke-dasharray="5,2" points="8,-237 8,-317 240.37,-317 240.37,-237 8,-237"/>
<text text-anchor="middle" x="124.19" y="-302.6" font-family="Helvetica Bold" font-size="13.00" fill="#28a745">Proof Dependencies</text>
</g>
<!-- L4YAML.Scanner.ScannerState.advance -->
<g id="node1" class="node">
<title>L4YAML.Scanner.ScannerState.advance</title>
<g id="a_node1"><a xlink:href="../../../api/L4YAML/Scanner.html#L4YAML.Scanner.ScannerState.advance" xlink:title="ScannerState.advance\n(def)" target="_blank">
<polygon fill="#dce9f7" stroke="#4a90d9" points="678.44,-412 563.44,-412 563.44,-376 678.44,-376 678.44,-412"/>
<text text-anchor="middle" x="620.94" y="-397" font-family="Helvetica" font-size="10.00">ScannerState.advance</text>
<text text-anchor="middle" x="620.94" y="-386" font-family="Helvetica" font-size="10.00">(def)</text>
</a>
</g>
</g>
<!-- L4YAML.Scanner.ScannerState.peek? -->
<g id="node2" class="node">
<title>L4YAML.Scanner.ScannerState.peek?</title>
<g id="a_node2"><a xlink:href="../../../api/L4YAML/Scanner.html#L4YAML.Scanner.ScannerState.peek?" xlink:title="ScannerState.peek?\n(def)" target="_blank">
<polygon fill="#dce9f7" stroke="#4a90d9" points="672.94,-250 568.94,-250 568.94,-214 672.94,-214 672.94,-250"/>
<text text-anchor="middle" x="620.94" y="-235" font-family="Helvetica" font-size="10.00">ScannerState.peek?</text>
<text text-anchor="middle" x="620.94" y="-224" font-family="Helvetica" font-size="10.00">(def)</text>
</a>
</g>
</g>
<!-- L4YAML.Scanner.ScannerState -->
<g id="node3" class="node">
<title>L4YAML.Scanner.ScannerState</title>
<g id="a_node3"><a xlink:href="../../../api/L4YAML/Scanner.html#L4YAML.Scanner.ScannerState" xlink:title="ScannerState\n(inductive)" target="_blank">
<polygon fill="#dce9f7" stroke="#4a90d9" points="658.94,-358 582.94,-358 582.94,-322 658.94,-322 658.94,-358"/>
<text text-anchor="middle" x="620.94" y="-343" font-family="Helvetica" font-size="10.00">ScannerState</text>
<text text-anchor="middle" x="620.94" y="-332" font-family="Helvetica" font-size="10.00">(inductive)</text>
</a>
</g>
</g>
<!-- L4YAML.Scanner.ScannerState.peekAt?Loop.match_1 -->
<g id="node4" class="node">
<title>L4YAML.Scanner.ScannerState.peekAt?Loop.match_1</title>
<g id="a_node4"><a xlink:href="../../../api/L4YAML/Scanner.html#L4YAML.Scanner.ScannerState.peekAt?Loop.match_1" xlink:title="ScannerState.peekAt?Loop.match_1\n(def)" target="_blank">
<polygon fill="#dce9f7" stroke="#4a90d9" points="708.94,-196 532.94,-196 532.94,-160 708.94,-160 708.94,-196"/>
<text text-anchor="middle" x="620.94" y="-181" font-family="Helvetica" font-size="10.00">ScannerState.peekAt?Loop.match_1</text>
<text text-anchor="middle" x="620.94" y="-170" font-family="Helvetica" font-size="10.00">(def)</text>
</a>
</g>
</g>
<!-- L4YAML.Scanner.skipSpacesLoop._unary -->
<g id="node5" class="node">
<title>L4YAML.Scanner.skipSpacesLoop._unary</title>
<g id="a_node5"><a xlink:href="../../../api/L4YAML/Scanner.html#L4YAML.Scanner.skipSpacesLoop._unary" xlink:title="skipSpacesLoop._unary\n(def)" target="_blank">
<polygon fill="#dce9f7" stroke="#4a90d9" points="431.66,-412 309.66,-412 309.66,-376 431.66,-376 431.66,-412"/>
<text text-anchor="middle" x="370.66" y="-397" font-family="Helvetica" font-size="10.00">skipSpacesLoop._unary</text>
<text text-anchor="middle" x="370.66" y="-386" font-family="Helvetica" font-size="10.00">(def)</text>
</a>
</g>
</g>
<!-- L4YAML.Scanner.skipSpacesLoop -->
<g id="node6" class="node">
<title>L4YAML.Scanner.skipSpacesLoop</title>
<g id="a_node6"><a xlink:href="../../../api/L4YAML/Scanner.html#L4YAML.Scanner.skipSpacesLoop" xlink:title="skipSpacesLoop\n(def)" target="_blank">
<polygon fill="#dce9f7" stroke="#4a90d9" points="665.44,-142 576.44,-142 576.44,-106 665.44,-106 665.44,-142"/>
<text text-anchor="middle" x="620.94" y="-127" font-family="Helvetica" font-size="10.00">skipSpacesLoop</text>
<text text-anchor="middle" x="620.94" y="-116" font-family="Helvetica" font-size="10.00">(def)</text>
</a>
</g>
</g>
<!-- L4YAML.Scanner.skipSpacesLoop.match_1 -->
<g id="node7" class="node">
<title>L4YAML.Scanner.skipSpacesLoop.match_1</title>
<g id="a_node7"><a xlink:href="../../../api/L4YAML/Scanner.html#L4YAML.Scanner.skipSpacesLoop.match_1" xlink:title="skipSpacesLoop.match_1\n(def)" target="_blank">
<polygon fill="#dce9f7" stroke="#4a90d9" points="685.44,-304 556.44,-304 556.44,-268 685.44,-268 685.44,-304"/>
<text text-anchor="middle" x="620.94" y="-289" font-family="Helvetica" font-size="10.00">skipSpacesLoop.match_1</text>
<text text-anchor="middle" x="620.94" y="-278" font-family="Helvetica" font-size="10.00">(def)</text>
</a>
</g>
</g>
<!-- L4YAML.Scanner.skipSpacesLoop.eq_def -->
<g id="node8" class="node">
<title>L4YAML.Scanner.skipSpacesLoop.eq_def</title>
<g id="a_node8"><a xlink:href="../../../api/L4YAML/Scanner.html#L4YAML.Scanner.skipSpacesLoop.eq_def" xlink:title="skipSpacesLoop.eq_def" target="_blank">
<polygon fill="#fff3cd" stroke="#d4a017" points="467.73,-30.54 467.73,-45.46 410.86,-56 330.45,-56 273.58,-45.46 273.58,-30.54 330.45,-20 410.86,-20 467.73,-30.54"/>
<polygon fill="none" stroke="#d4a017" points="471.72,-27.22 471.72,-48.78 411.23,-60 330.08,-60 269.59,-48.78 269.59,-27.22 330.08,-16 411.23,-16 471.72,-27.22"/>
<text text-anchor="middle" x="370.66" y="-34.9" font-family="Helvetica" font-size="12.00">skipSpacesLoop.eq_def</text>
</a>
</g>
</g>
<!-- L4YAML.Scanner.skipSpacesLoop.eq_def&#45;&gt;L4YAML.Scanner.ScannerState.advance -->
<g id="edge1" class="edge">
<title>L4YAML.Scanner.skipSpacesLoop.eq_def&#45;&gt;L4YAML.Scanner.ScannerState.advance</title>
<path fill="none" stroke="#4a90d9" stroke-width="2" d="M432.46,-56.16C450.73,-64.67 468.85,-76.85 479.94,-94 490.99,-111.1 484.56,-257.36 489.94,-277 496.29,-300.2 504.64,-303.26 514.94,-325 523.63,-343.35 517.85,-353.41 532.94,-367 539.77,-373.16 547.99,-377.91 556.62,-381.58"/>
<polygon fill="#4a90d9" stroke="#4a90d9" stroke-width="2" points="555.86,-383.92 563.27,-384.18 557.64,-379.35 555.86,-383.92"/>
<text text-anchor="middle" x="502.44" y="-327.6" font-family="Times-Roman" font-size="8.00" fill="#4a90d9">about</text>
</g>
<!-- L4YAML.Scanner.skipSpacesLoop.eq_def&#45;&gt;L4YAML.Scanner.ScannerState.peek? -->
<g id="edge6" class="edge">
<title>L4YAML.Scanner.skipSpacesLoop.eq_def&#45;&gt;L4YAML.Scanner.ScannerState.peek?</title>
<path fill="none" stroke="#4a90d9" stroke-width="2" d="M423.97,-57.75C443.12,-66.75 463.98,-78.84 479.94,-94 502.31,-115.27 501.96,-125.99 514.94,-154 525.04,-175.81 515.62,-188.33 532.94,-205 541.05,-212.81 551.39,-218.36 562.07,-222.31"/>
<polygon fill="#4a90d9" stroke="#4a90d9" stroke-width="2" points="561.34,-224.65 568.76,-224.57 562.91,-220.01 561.34,-224.65"/>
<text text-anchor="middle" x="502.44" y="-156.6" font-family="Times-Roman" font-size="8.00" fill="#4a90d9">about</text>
</g>
<!-- L4YAML.Scanner.skipSpacesLoop.eq_def&#45;&gt;L4YAML.Scanner.ScannerState -->
<g id="edge5" class="edge">
<title>L4YAML.Scanner.skipSpacesLoop.eq_def&#45;&gt;L4YAML.Scanner.ScannerState</title>
<path fill="none" stroke="#4a90d9" stroke-width="2" d="M431.93,-56.18C450.28,-64.72 468.58,-76.9 479.94,-94 495.48,-117.4 482.18,-193 489.94,-220 496.58,-243.12 504.9,-246.14 514.94,-268 523.92,-287.58 517.11,-298.39 532.94,-313 544.72,-323.89 560.83,-330.38 575.99,-334.26"/>
<polygon fill="#4a90d9" stroke="#4a90d9" stroke-width="2" points="575.49,-336.66 582.87,-335.87 576.61,-331.89 575.49,-336.66"/>
<text text-anchor="middle" x="502.44" y="-270.6" font-family="Times-Roman" font-size="8.00" fill="#4a90d9">about</text>
</g>
<!-- L4YAML.Scanner.skipSpacesLoop.eq_def&#45;&gt;L4YAML.Scanner.ScannerState.peekAt?Loop.match_1 -->
<g id="edge2" class="edge">
<title>L4YAML.Scanner.skipSpacesLoop.eq_def&#45;&gt;L4YAML.Scanner.ScannerState.peekAt?Loop.match_1</title>
<path fill="none" stroke="#4a90d9" stroke-width="2" d="M446.85,-53.57C471.35,-61.94 496.87,-74.69 514.94,-94 533.08,-113.4 514.1,-132.26 532.94,-151 534.62,-152.67 536.4,-154.24 538.27,-155.72"/>
<polygon fill="#4a90d9" stroke="#4a90d9" stroke-width="2" points="536.98,-157.8 544.1,-159.85 539.81,-153.8 536.98,-157.8"/>
<text text-anchor="middle" x="502.44" y="-96.6" font-family="Times-Roman" font-size="8.00" fill="#4a90d9">about</text>
</g>
<!-- L4YAML.Scanner.skipSpacesLoop.eq_def&#45;&gt;L4YAML.Scanner.skipSpacesLoop -->
<g id="edge4" class="edge">
<title>L4YAML.Scanner.skipSpacesLoop.eq_def&#45;&gt;L4YAML.Scanner.skipSpacesLoop</title>
<path fill="none" stroke="#4a90d9" stroke-width="2" d="M472.07,-44.77C486.71,-47.43 501.39,-51.06 514.94,-56 543.72,-66.5 572.67,-86.08 592.85,-101.54"/>
<polygon fill="#4a90d9" stroke="#4a90d9" stroke-width="2" points="591.54,-103.62 598.57,-105.99 594.55,-99.75 591.54,-103.62"/>
<text text-anchor="middle" x="502.44" y="-58.6" font-family="Times-Roman" font-size="8.00" fill="#4a90d9">about</text>
</g>
<!-- L4YAML.Scanner.skipSpacesLoop.eq_def&#45;&gt;L4YAML.Scanner.skipSpacesLoop.match_1 -->
<g id="edge3" class="edge">
<title>L4YAML.Scanner.skipSpacesLoop.eq_def&#45;&gt;L4YAML.Scanner.skipSpacesLoop.match_1</title>
<path fill="none" stroke="#4a90d9" stroke-width="2" d="M431.02,-56.49C449.41,-65.06 467.97,-77.19 479.94,-94 497.91,-119.24 480.42,-133.51 489.94,-163 497.32,-185.89 505.14,-189.03 514.94,-211 524.22,-231.81 516.37,-243.36 532.94,-259 537.84,-263.62 543.51,-267.46 549.57,-270.63"/>
<polygon fill="#4a90d9" stroke="#4a90d9" stroke-width="2" points="548.91,-273.03 556.28,-273.83 551.02,-268.61 548.91,-273.03"/>
<text text-anchor="middle" x="502.44" y="-213.6" font-family="Times-Roman" font-size="8.00" fill="#4a90d9">about</text>
</g>
<!-- L4YAML.Scanner.skipSpacesLoop._unary.eq_def -->
<g id="node9" class="node">
<title>L4YAML.Scanner.skipSpacesLoop._unary.eq_def</title>
<g id="a_node9"><a xlink:href="../../../api/L4YAML/Scanner.html#L4YAML.Scanner.skipSpacesLoop._unary.eq_def" xlink:title="skipSpacesLoop._unary.eq_def\n(Scanner)" target="_blank">
<ellipse fill="#d4edda" stroke="#28a745" cx="124.19" cy="-266" rx="108.38" ry="21.43"/>
<text text-anchor="middle" x="124.19" y="-269" font-family="Helvetica" font-size="10.00">skipSpacesLoop._unary.eq_def</text>
<text text-anchor="middle" x="124.19" y="-258" font-family="Helvetica" font-size="10.00">(Scanner)</text>
</a>
</g>
</g>
<!-- L4YAML.Scanner.skipSpacesLoop._unary.eq_def&#45;&gt;L4YAML.Scanner.ScannerState.advance -->
<g id="edge8" class="edge">
<title>L4YAML.Scanner.skipSpacesLoop._unary.eq_def&#45;&gt;L4YAML.Scanner.ScannerState.advance</title>
<path fill="none" stroke="#999999" stroke-dasharray="1,5" d="M171.26,-285.18C197.38,-295.56 230.85,-308.06 261.37,-317 316.27,-333.08 470.73,-364.52 557.96,-381.83"/>
<polygon fill="#999999" stroke="#999999" points="557.84,-383.6 563.09,-382.85 558.52,-380.16 557.84,-383.6"/>
</g>
<!-- L4YAML.Scanner.skipSpacesLoop._unary.eq_def&#45;&gt;L4YAML.Scanner.ScannerState.peek? -->
<g id="edge12" class="edge">
<title>L4YAML.Scanner.skipSpacesLoop._unary.eq_def&#45;&gt;L4YAML.Scanner.ScannerState.peek?</title>
<path fill="none" stroke="#999999" stroke-dasharray="1,5" d="M200.4,-250.83C278.73,-236.64 405.1,-218.3 514.94,-223 530.7,-223.67 547.76,-224.92 563.46,-226.27"/>
<polygon fill="#999999" stroke="#999999" points="563.59,-228.03 568.72,-226.73 563.89,-224.55 563.59,-228.03"/>
</g>
<!-- L4YAML.Scanner.skipSpacesLoop._unary.eq_def&#45;&gt;L4YAML.Scanner.ScannerState -->
<g id="edge11" class="edge">
<title>L4YAML.Scanner.skipSpacesLoop._unary.eq_def&#45;&gt;L4YAML.Scanner.ScannerState</title>
<path fill="none" stroke="#999999" stroke-dasharray="1,5" d="M207.61,-279.53C225.34,-282.38 243.97,-285.33 261.37,-288 375.6,-305.51 510.54,-324.67 577.64,-334.09"/>
<polygon fill="#999999" stroke="#999999" points="577.55,-335.85 582.74,-334.81 578.03,-332.38 577.55,-335.85"/>
</g>
<!-- L4YAML.Scanner.skipSpacesLoop._unary.eq_def&#45;&gt;L4YAML.Scanner.ScannerState.peekAt?Loop.match_1 -->
<g id="edge9" class="edge">
<title>L4YAML.Scanner.skipSpacesLoop._unary.eq_def&#45;&gt;L4YAML.Scanner.ScannerState.peekAt?Loop.match_1</title>
<path fill="none" stroke="#999999" stroke-dasharray="1,5" d="M174.67,-247.12C243.92,-221.93 374.28,-178.99 489.94,-166 502.17,-164.63 515.05,-164.38 527.77,-164.83"/>
<polygon fill="#999999" stroke="#999999" points="527.76,-166.58 532.83,-165.05 527.91,-163.09 527.76,-166.58"/>
</g>
<!-- L4YAML.Scanner.skipSpacesLoop._unary.eq_def&#45;&gt;L4YAML.Scanner.skipSpacesLoop._unary -->
<g id="edge13" class="edge">
<title>L4YAML.Scanner.skipSpacesLoop._unary.eq_def&#45;&gt;L4YAML.Scanner.skipSpacesLoop._unary</title>
<path fill="none" stroke="#999999" stroke-dasharray="1,5" d="M146.9,-286.99C170.53,-308.73 210.34,-342.25 250.37,-362 267.16,-370.28 286.37,-376.63 304.39,-381.41"/>
<polygon fill="#999999" stroke="#999999" points="304.16,-383.16 309.44,-382.72 305.04,-379.77 304.16,-383.16"/>
</g>
<!-- L4YAML.Scanner.skipSpacesLoop._unary.eq_def&#45;&gt;L4YAML.Scanner.skipSpacesLoop.match_1 -->
<g id="edge10" class="edge">
<title>L4YAML.Scanner.skipSpacesLoop._unary.eq_def&#45;&gt;L4YAML.Scanner.skipSpacesLoop.match_1</title>
<path fill="none" stroke="#999999" stroke-dasharray="1,5" d="M231.5,-269.21C309.87,-271.73 419.06,-275.54 514.94,-280 526.67,-280.55 539.13,-281.2 551.22,-281.86"/>
<polygon fill="#999999" stroke="#999999" points="551.28,-283.62 556.37,-282.15 551.48,-280.13 551.28,-283.62"/>
</g>
<!-- L4YAML.Scanner.skipSpacesLoop._unary.eq_def&#45;&gt;L4YAML.Scanner.skipSpacesLoop.eq_def -->
<g id="edge7" class="edge">
<title>L4YAML.Scanner.skipSpacesLoop._unary.eq_def&#45;&gt;L4YAML.Scanner.skipSpacesLoop.eq_def</title>
<path fill="none" stroke="#28a745" d="M137.73,-244.84C159.33,-209.81 206.55,-139.17 261.37,-94 276.94,-81.17 295.92,-70.14 313.62,-61.34"/>
<polygon fill="#28a745" stroke="#28a745" points="314.85,-63.46 320.07,-58.19 312.71,-59.05 314.85,-63.46"/>
</g>
</g>
</svg>
