<?xml version="1.0" encoding="UTF-8" standalone="no"?>
<!DOCTYPE svg PUBLIC "-//W3C//DTD SVG 1.1//EN"
 "http://www.w3.org/Graphics/SVG/1.1/DTD/svg11.dtd">
<!-- Generated by graphviz version 2.44.0 (0)
 -->
<!-- Title: StreamAccum.ssl_comments_extend_stream Pages: 1 -->
<svg width="929pt" height="360pt"
 viewBox="0.00 0.00 929.18 360.00" xmlns="http://www.w3.org/2000/svg" xmlns:xlink="http://www.w3.org/1999/xlink">
<g id="graph0" class="graph" transform="scale(1 1) rotate(0) translate(4 356)">
<title>StreamAccum.ssl_comments_extend_stream</title>
<polygon fill="white" stroke="transparent" points="-4,4 -4,-356 925.18,-356 925.18,4 -4,4"/>
<text text-anchor="middle" x="460.59" y="-337.6" font-family="Helvetica Bold" font-size="13.00">StreamAccum.ssl_comments_extend_stream</text>
<text text-anchor="middle" x="460.59" y="-323.6" font-family="Helvetica Bold" font-size="13.00">(heuristic: used by 5 proofs)</text>
<text text-anchor="middle" x="460.59" y="-309.6" font-family="Helvetica Bold" font-size="13.00">(L4YAML.Proofs.StreamAccum)</text>
<g id="clust1" class="cluster">
<title>cluster_functions</title>
<polygon fill="none" stroke="#4a90d9" stroke-dasharray="5,2" points="486.1,-112 486.1,-294 913.18,-294 913.18,-112 486.1,-112"/>
<text text-anchor="middle" x="699.64" y="-279.6" font-family="Helvetica Bold" font-size="13.00" fill="#4a90d9">Functions</text>
</g>
<g id="clust2" class="cluster">
<title>cluster_key</title>
<polygon fill="none" stroke="#d4a017" stroke-dasharray="5,2" points="366.03,-8 366.03,-90 731.18,-90 731.18,-8 366.03,-8"/>
<text text-anchor="middle" x="548.6" y="-75.6" font-family="Helvetica Bold" font-size="13.00" fill="#d4a017">Key Theorem</text>
</g>
<g id="clust3" class="cluster">
<title>cluster_proofs</title>
<polygon fill="none" stroke="#28a745" stroke-dasharray="5,2" points="8,-117 8,-197 345.03,-197 345.03,-117 8,-117"/>
<text text-anchor="middle" x="176.51" y="-182.6" font-family="Helvetica Bold" font-size="13.00" fill="#28a745">Proof Dependencies</text>
</g>
<!-- L4YAML.Surface.SLComment -->
<g id="node1" class="node">
<title>L4YAML.Surface.SLComment</title>
<g id="a_node1"><a xlink:href="../../../api/L4YAML/Surface/Basic.html#L4YAML.Surface.SLComment" xlink:title="Surface.SLComment\n(inductive)" target="_blank">
<polygon fill="#dce9f7" stroke="#4a90d9" points="603.1,-264 494.1,-264 494.1,-228 603.1,-228 603.1,-264"/>
<text text-anchor="middle" x="548.6" y="-249" font-family="Helvetica" font-size="10.00">Surface.SLComment</text>
<text text-anchor="middle" x="548.6" y="-238" font-family="Helvetica" font-size="10.00">(inductive)</text>
</a>
</g>
</g>
<!-- L4YAML.Surface.SurfPos -->
<g id="node2" class="node">
<title>L4YAML.Surface.SurfPos</title>
<g id="a_node2"><a xlink:href="../../../api/L4YAML/Surface/Combinators.html#L4YAML.Surface.SurfPos" xlink:title="Surface.SurfPos\n(inductive)" target="_blank">
<polygon fill="#dce9f7" stroke="#4a90d9" points="889.68,-264 799.68,-264 799.68,-228 889.68,-228 889.68,-264"/>
<text text-anchor="middle" x="844.68" y="-249" font-family="Helvetica" font-size="10.00">Surface.SurfPos</text>
<text text-anchor="middle" x="844.68" y="-238" font-family="Helvetica" font-size="10.00">(inductive)</text>
</a>
</g>
</g>
<!-- L4YAML.Surface.SLYamlStream -->
<g id="node3" class="node">
<title>L4YAML.Surface.SLYamlStream</title>
<g id="a_node3"><a xlink:href="../../../api/L4YAML/Surface/Document.html#L4YAML.Surface.SLYamlStream" xlink:title="Surface.SLYamlStream\n(inductive)" target="_blank">
<polygon fill="#dce9f7" stroke="#4a90d9" points="904.18,-156 785.18,-156 785.18,-120 904.18,-120 904.18,-156"/>
<text text-anchor="middle" x="844.68" y="-141" font-family="Helvetica" font-size="10.00">Surface.SLYamlStream</text>
<text text-anchor="middle" x="844.68" y="-130" font-family="Helvetica" font-size="10.00">(inductive)</text>
</a>
</g>
</g>
<!-- L4YAML.Surface.GStar -->
<g id="node4" class="node">
<title>L4YAML.Surface.GStar</title>
<g id="a_node4"><a xlink:href="../../../api/L4YAML/Surface/Combinators.html#L4YAML.Surface.GStar" xlink:title="Surface.GStar\n(inductive)" target="_blank">
<polygon fill="#dce9f7" stroke="#4a90d9" points="588.6,-210 508.6,-210 508.6,-174 588.6,-174 588.6,-210"/>
<text text-anchor="middle" x="548.6" y="-195" font-family="Helvetica" font-size="10.00">Surface.GStar</text>
<text text-anchor="middle" x="548.6" y="-184" font-family="Helvetica" font-size="10.00">(inductive)</text>
</a>
</g>
</g>
<!-- L4YAML.Surface.SSLComments -->
<g id="node5" class="node">
<title>L4YAML.Surface.SSLComments</title>
<g id="a_node5"><a xlink:href="../../../api/L4YAML/Surface/Basic.html#L4YAML.Surface.SSLComments" xlink:title="Surface.SSLComments\n(inductive)" target="_blank">
<polygon fill="#dce9f7" stroke="#4a90d9" points="905.18,-210 784.18,-210 784.18,-174 905.18,-174 905.18,-210"/>
<text text-anchor="middle" x="844.68" y="-195" font-family="Helvetica" font-size="10.00">Surface.SSLComments</text>
<text text-anchor="middle" x="844.68" y="-184" font-family="Helvetica" font-size="10.00">(inductive)</text>
</a>
</g>
</g>
<!-- L4YAML.Proofs.StreamAccum.ssl_comments_extend_stream -->
<g id="node6" class="node">
<title>L4YAML.Proofs.StreamAccum.ssl_comments_extend_stream</title>
<g id="a_node6"><a xlink:href="../../../api/L4YAML/Proofs/StreamAccum.html#L4YAML.Proofs.StreamAccum.ssl_comments_extend_stream" xlink:title="StreamAccum.ssl_comments_extend_stream" target="_blank">
<polygon fill="#fff3cd" stroke="#d4a017" points="719.25,-30.54 719.25,-45.46 619.29,-56 477.92,-56 377.95,-45.46 377.95,-30.54 477.92,-20 619.29,-20 719.25,-30.54"/>
<polygon fill="none" stroke="#d4a017" points="723.25,-26.94 723.25,-49.06 619.5,-60 477.71,-60 373.95,-49.06 373.95,-26.94 477.71,-16 619.5,-16 723.25,-26.94"/>
<text text-anchor="middle" x="548.6" y="-34.9" font-family="Helvetica" font-size="12.00">StreamAccum.ssl_comments_extend_stream</text>
</a>
</g>
</g>
<!-- L4YAML.Proofs.StreamAccum.ssl_comments_extend_stream&#45;&gt;L4YAML.Surface.SurfPos -->
<g id="edge2" class="edge">
<title>L4YAML.Proofs.StreamAccum.ssl_comments_extend_stream&#45;&gt;L4YAML.Surface.SurfPos</title>
<path fill="none" stroke="#4a90d9" stroke-width="2" d="M655.71,-56.25C696.09,-68.51 738.89,-88.96 766.18,-123 793.32,-156.87 757.39,-184.84 784.18,-219 786.82,-222.37 789.98,-225.34 793.45,-227.95"/>
<polygon fill="#4a90d9" stroke="#4a90d9" stroke-width="2" points="792.35,-230.16 799.54,-232 795.07,-226.08 792.35,-230.16"/>
<text text-anchor="middle" x="753.68" y="-125.6" font-family="Times-Roman" font-size="8.00" fill="#4a90d9">about</text>
</g>
<!-- L4YAML.Proofs.StreamAccum.ssl_comments_extend_stream&#45;&gt;L4YAML.Surface.SLYamlStream -->
<g id="edge1" class="edge">
<title>L4YAML.Proofs.StreamAccum.ssl_comments_extend_stream&#45;&gt;L4YAML.Surface.SLYamlStream</title>
<path fill="none" stroke="#4a90d9" stroke-width="2" d="M611.65,-15.94C657.09,-3.72 718.83,4.43 766.18,-21 802.19,-40.34 824.29,-84.59 835.24,-112.78"/>
<polygon fill="#4a90d9" stroke="#4a90d9" stroke-width="2" points="833.04,-113.89 837.78,-119.58 837.62,-112.17 833.04,-113.89"/>
<text text-anchor="middle" x="753.68" y="-23.6" font-family="Times-Roman" font-size="8.00" fill="#4a90d9">about</text>
</g>
<!-- L4YAML.Proofs.StreamAccum.ssl_comments_extend_stream&#45;&gt;L4YAML.Surface.SSLComments -->
<g id="edge3" class="edge">
<title>L4YAML.Proofs.StreamAccum.ssl_comments_extend_stream&#45;&gt;L4YAML.Surface.SSLComments</title>
<path fill="none" stroke="#4a90d9" stroke-width="2" d="M654.6,-19.67C694.08,-18.78 736.54,-25.93 766.18,-53 803.4,-87.01 753.58,-124.93 784.18,-165 785.29,-166.46 786.5,-167.84 787.79,-169.15"/>
<polygon fill="#4a90d9" stroke="#4a90d9" stroke-width="2" points="786.26,-171.07 793.14,-173.85 789.5,-167.39 786.26,-171.07"/>
<text text-anchor="middle" x="753.68" y="-55.6" font-family="Times-Roman" font-size="8.00" fill="#4a90d9">about</text>
</g>
<!-- L4YAML.Proofs.PreprocessProduction.SSLComments_to_GStar -->
<g id="node7" class="node">
<title>L4YAML.Proofs.PreprocessProduction.SSLComments_to_GStar</title>
<g id="a_node7"><a xlink:href="../../../api/L4YAML/Proofs/PreprocessProduction.html#L4YAML.Proofs.PreprocessProduction.SSLComments_to_GStar" xlink:title="PreprocessProduction.SSLComments_to_GStar\n(PreprocessProduction)" target="_blank">
<ellipse fill="#d4edda" stroke="#28a745" cx="176.51" cy="-146" rx="160.53" ry="21.43"/>
<text text-anchor="middle" x="176.51" y="-149" font-family="Helvetica" font-size="10.00">PreprocessProduction.SSLComments_to_GStar</text>
<text text-anchor="middle" x="176.51" y="-138" font-family="Helvetica" font-size="10.00">(PreprocessProduction)</text>
</a>
</g>
</g>
<!-- L4YAML.Proofs.PreprocessProduction.SSLComments_to_GStar&#45;&gt;L4YAML.Surface.SLComment -->
<g id="edge5" class="edge">
<title>L4YAML.Proofs.PreprocessProduction.SSLComments_to_GStar&#45;&gt;L4YAML.Surface.SLComment</title>
<path fill="none" stroke="#999999" stroke-dasharray="1,5" d="M221.91,-166.43C259.53,-182.94 315.3,-205.59 366.03,-219 406.26,-229.64 452.69,-236.45 488.53,-240.57"/>
<polygon fill="#999999" stroke="#999999" points="488.57,-242.34 493.74,-241.16 488.96,-238.86 488.57,-242.34"/>
</g>
<!-- L4YAML.Proofs.PreprocessProduction.SSLComments_to_GStar&#45;&gt;L4YAML.Surface.SurfPos -->
<g id="edge6" class="edge">
<title>L4YAML.Proofs.PreprocessProduction.SSLComments_to_GStar&#45;&gt;L4YAML.Surface.SurfPos</title>
<path fill="none" stroke="#999999" stroke-dasharray="1,5" d="M327.57,-138.79C466.41,-134.33 661.52,-134.35 731.18,-165 761.96,-178.54 756.62,-199.73 784.18,-219 787.58,-221.38 791.23,-223.64 794.99,-225.75"/>
<polygon fill="#999999" stroke="#999999" points="794.21,-227.32 799.44,-228.17 795.88,-224.24 794.21,-227.32"/>
</g>
<!-- L4YAML.Proofs.PreprocessProduction.SSLComments_to_GStar&#45;&gt;L4YAML.Surface.GStar -->
<g id="edge7" class="edge">
<title>L4YAML.Proofs.PreprocessProduction.SSLComments_to_GStar&#45;&gt;L4YAML.Surface.GStar</title>
<path fill="none" stroke="#999999" stroke-dasharray="1,5" d="M294.1,-160.49C365.18,-169.33 451.95,-180.11 503.33,-186.5"/>
<polygon fill="#999999" stroke="#999999" points="503.32,-188.26 508.49,-187.14 503.75,-184.79 503.32,-188.26"/>
</g>
<!-- L4YAML.Proofs.PreprocessProduction.SSLComments_to_GStar&#45;&gt;L4YAML.Surface.SSLComments -->
<g id="edge8" class="edge">
<title>L4YAML.Proofs.PreprocessProduction.SSLComments_to_GStar&#45;&gt;L4YAML.Surface.SSLComments</title>
<path fill="none" stroke="#999999" stroke-dasharray="1,5" d="M310.72,-134.35C325.66,-133.39 340.66,-132.57 355.03,-132 446.32,-128.41 687.61,-85.36 766.18,-132 780.54,-140.53 771.94,-153.63 784.18,-165 786.52,-167.18 789.07,-169.21 791.75,-171.09"/>
<polygon fill="#999999" stroke="#999999" points="790.93,-172.64 796.07,-173.93 792.85,-169.72 790.93,-172.64"/>
</g>
<!-- L4YAML.Proofs.PreprocessProduction.SSLComments_to_GStar&#45;&gt;L4YAML.Proofs.StreamAccum.ssl_comments_extend_stream -->
<g id="edge4" class="edge">
<title>L4YAML.Proofs.PreprocessProduction.SSLComments_to_GStar&#45;&gt;L4YAML.Proofs.StreamAccum.ssl_comments_extend_stream</title>
<path fill="none" stroke="#28a745" d="M243.26,-126.71C276.72,-116.9 318.03,-104.8 355.03,-94 391.53,-83.35 431.94,-71.59 466.28,-61.61"/>
<polygon fill="#28a745" stroke="#28a745" points="467.02,-63.95 473.06,-59.64 465.65,-59.24 467.02,-63.95"/>
</g>
</g>
</svg>
