<?xml version="1.0" encoding="UTF-8" standalone="no"?>
<!DOCTYPE svg PUBLIC "-//W3C//DTD SVG 1.1//EN"
 "http://www.w3.org/Graphics/SVG/1.1/DTD/svg11.dtd">
<!-- Generated by graphviz version 2.44.0 (0)
 -->
<!-- Title: Soundness.toYamlValue_correct Pages: 1 -->
<svg width="827pt" height="310pt"
 viewBox="0.00 0.00 826.91 310.00" xmlns="http://www.w3.org/2000/svg" xmlns:xlink="http://www.w3.org/1999/xlink">
<g id="graph0" class="graph" transform="scale(1 1) rotate(0) translate(4 306)">
<title>Soundness.toYamlValue_correct</title>
<polygon fill="white" stroke="transparent" points="-4,4 -4,-306 822.91,-306 822.91,4 -4,4"/>
<text text-anchor="middle" x="409.45" y="-287.6" font-family="Helvetica Bold" font-size="13.00">Soundness.toYamlValue_correct</text>
<text text-anchor="middle" x="409.45" y="-273.6" font-family="Helvetica Bold" font-size="13.00">AST&#45;to&#45;value conversion matches specification</text>
<text text-anchor="middle" x="409.45" y="-259.6" font-family="Helvetica Bold" font-size="13.00">(L4YAML.Proofs.Soundness)</text>
<g id="clust1" class="cluster">
<title>cluster_functions</title>
<polygon fill="none" stroke="#4a90d9" stroke-dasharray="5,2" points="676.91,-8 676.91,-244 810.91,-244 810.91,-8 676.91,-8"/>
<text text-anchor="middle" x="743.91" y="-229.6" font-family="Helvetica Bold" font-size="13.00" fill="#4a90d9">Functions</text>
</g>
<g id="clust2" class="cluster">
<title>cluster_key</title>
<polygon fill="none" stroke="#d4a017" stroke-dasharray="5,2" points="354.71,-9 354.71,-91 631.91,-91 631.91,-9 354.71,-9"/>
<text text-anchor="middle" x="493.31" y="-76.6" font-family="Helvetica Bold" font-size="13.00" fill="#d4a017">Key Theorem</text>
</g>
<g id="clust3" class="cluster">
<title>cluster_proofs</title>
<polygon fill="none" stroke="#28a745" stroke-dasharray="5,2" points="8,-118 8,-198 333.71,-198 333.71,-118 8,-118"/>
<text text-anchor="middle" x="170.86" y="-183.6" font-family="Helvetica Bold" font-size="13.00" fill="#28a745">Proof Dependencies</text>
</g>
<!-- L4YAML.YamlValue -->
<g id="node1" class="node">
<title>L4YAML.YamlValue</title>
<g id="a_node1"><a xlink:href="../../../api/L4YAML/Types.html#L4YAML.YamlValue" xlink:title="YamlValue\n(inductive)" target="_blank">
<polygon fill="#dce9f7" stroke="#4a90d9" points="774.91,-160 712.91,-160 712.91,-124 774.91,-124 774.91,-160"/>
<text text-anchor="middle" x="743.91" y="-145" font-family="Helvetica" font-size="10.00">YamlValue</text>
<text text-anchor="middle" x="743.91" y="-134" font-family="Helvetica" font-size="10.00">(inductive)</text>
</a>
</g>
</g>
<!-- L4YAML.Grammar.ValidNode -->
<g id="node2" class="node">
<title>L4YAML.Grammar.ValidNode</title>
<g id="a_node2"><a xlink:href="../../../api/L4YAML/Grammar.html#L4YAML.Grammar.ValidNode" xlink:title="Grammar.ValidNode\n(inductive)" target="_blank">
<polygon fill="#dce9f7" stroke="#4a90d9" points="795.91,-214 691.91,-214 691.91,-178 795.91,-178 795.91,-214"/>
<text text-anchor="middle" x="743.91" y="-199" font-family="Helvetica" font-size="10.00">Grammar.ValidNode</text>
<text text-anchor="middle" x="743.91" y="-188" font-family="Helvetica" font-size="10.00">(inductive)</text>
</a>
</g>
</g>
<!-- L4YAML.Grammar.NodeToValue -->
<g id="node3" class="node">
<title>L4YAML.Grammar.NodeToValue</title>
<g id="a_node3"><a xlink:href="../../../api/L4YAML/Grammar.html#L4YAML.Grammar.NodeToValue" xlink:title="Grammar.NodeToValue\n(inductive)" target="_blank">
<polygon fill="#dce9f7" stroke="#4a90d9" points="802.91,-52 684.91,-52 684.91,-16 802.91,-16 802.91,-52"/>
<text text-anchor="middle" x="743.91" y="-37" font-family="Helvetica" font-size="10.00">Grammar.NodeToValue</text>
<text text-anchor="middle" x="743.91" y="-26" font-family="Helvetica" font-size="10.00">(inductive)</text>
</a>
</g>
</g>
<!-- L4YAML.Grammar.toYamlValue -->
<g id="node4" class="node">
<title>L4YAML.Grammar.toYamlValue</title>
<g id="a_node4"><a xlink:href="../../../api/L4YAML/Grammar.html#L4YAML.Grammar.toYamlValue" xlink:title="Grammar.toYamlValue\n(def)" target="_blank">
<polygon fill="#dce9f7" stroke="#4a90d9" points="800.91,-106 686.91,-106 686.91,-70 800.91,-70 800.91,-106"/>
<text text-anchor="middle" x="743.91" y="-91" font-family="Helvetica" font-size="10.00">Grammar.toYamlValue</text>
<text text-anchor="middle" x="743.91" y="-80" font-family="Helvetica" font-size="10.00">(def)</text>
</a>
</g>
</g>
<!-- L4YAML.Proofs.Soundness.toYamlValue_correct -->
<g id="node5" class="node">
<title>L4YAML.Proofs.Soundness.toYamlValue_correct</title>
<g id="a_node5"><a xlink:href="../../../api/L4YAML/Proofs/Soundness.html#L4YAML.Proofs.Soundness.toYamlValue_correct" xlink:title="Soundness.toYamlValue_correct" target="_blank">
<polygon fill="#fff3cd" stroke="#d4a017" points="620,-31.54 620,-46.46 545.79,-57 440.83,-57 366.62,-46.46 366.62,-31.54 440.83,-21 545.79,-21 620,-31.54"/>
<polygon fill="none" stroke="#d4a017" points="624.01,-28.07 624.01,-49.93 546.07,-61 440.55,-61 362.61,-49.93 362.61,-28.07 440.55,-17 546.07,-17 624.01,-28.07"/>
<text text-anchor="middle" x="493.31" y="-35.9" font-family="Helvetica" font-size="12.00">Soundness.toYamlValue_correct</text>
</a>
</g>
</g>
<!-- L4YAML.Proofs.Soundness.toYamlValue_correct&#45;&gt;L4YAML.YamlValue -->
<g id="edge4" class="edge">
<title>L4YAML.Proofs.Soundness.toYamlValue_correct&#45;&gt;L4YAML.YamlValue</title>
<path fill="none" stroke="#4a90d9" stroke-width="2" d="M547.01,-61.04C583.47,-76.25 633.11,-96.92 676.91,-115 686.3,-118.88 696.46,-123.04 705.92,-126.91"/>
<polygon fill="#4a90d9" stroke="#4a90d9" stroke-width="2" points="705.26,-129.29 712.67,-129.67 707.11,-124.76 705.26,-129.29"/>
<text text-anchor="middle" x="654.41" y="-110.6" font-family="Times-Roman" font-size="8.00" fill="#4a90d9">about</text>
</g>
<!-- L4YAML.Proofs.Soundness.toYamlValue_correct&#45;&gt;L4YAML.Grammar.ValidNode -->
<g id="edge1" class="edge">
<title>L4YAML.Proofs.Soundness.toYamlValue_correct&#45;&gt;L4YAML.Grammar.ValidNode</title>
<path fill="none" stroke="#4a90d9" stroke-width="2" d="M521.15,-61.13C555.65,-88.85 618.11,-136.61 676.91,-169 680.68,-171.08 684.65,-173.09 688.68,-175.01"/>
<polygon fill="#4a90d9" stroke="#4a90d9" stroke-width="2" points="687.68,-177.25 695.07,-177.96 689.74,-172.8 687.68,-177.25"/>
<text text-anchor="middle" x="654.41" y="-165.6" font-family="Times-Roman" font-size="8.00" fill="#4a90d9">about</text>
</g>
<!-- L4YAML.Proofs.Soundness.toYamlValue_correct&#45;&gt;L4YAML.Grammar.NodeToValue -->
<g id="edge3" class="edge">
<title>L4YAML.Proofs.Soundness.toYamlValue_correct&#45;&gt;L4YAML.Grammar.NodeToValue</title>
<path fill="none" stroke="#4a90d9" stroke-width="2" d="M624.3,-35.35C630.25,-35.23 636.14,-35.11 641.91,-35 653.38,-34.79 665.58,-34.62 677.4,-34.48"/>
<polygon fill="#4a90d9" stroke="#4a90d9" stroke-width="2" points="677.72,-36.93 684.69,-34.41 677.67,-32.03 677.72,-36.93"/>
<text text-anchor="middle" x="654.41" y="-37.6" font-family="Times-Roman" font-size="8.00" fill="#4a90d9">about</text>
</g>
<!-- L4YAML.Proofs.Soundness.toYamlValue_correct&#45;&gt;L4YAML.Grammar.toYamlValue -->
<g id="edge2" class="edge">
<title>L4YAML.Proofs.Soundness.toYamlValue_correct&#45;&gt;L4YAML.Grammar.toYamlValue</title>
<path fill="none" stroke="#4a90d9" stroke-width="2" d="M580.91,-56.07C613.34,-62.46 649.56,-69.6 679.51,-75.5"/>
<polygon fill="#4a90d9" stroke="#4a90d9" stroke-width="2" points="679.24,-77.95 686.58,-76.9 680.19,-73.14 679.24,-77.95"/>
<text text-anchor="middle" x="654.41" y="-75.6" font-family="Times-Roman" font-size="8.00" fill="#4a90d9">about</text>
</g>
<!-- L4YAML.Proofs.Soundness.nodeToValue_implies_toYamlValue -->
<g id="node6" class="node">
<title>L4YAML.Proofs.Soundness.nodeToValue_implies_toYamlValue</title>
<g id="a_node6"><a xlink:href="../../../api/L4YAML/Proofs/Soundness.html#L4YAML.Proofs.Soundness.nodeToValue_implies_toYamlValue" xlink:title="Soundness.nodeToValue_implies_toYamlValue\n(Soundness)" target="_blank">
<ellipse fill="#d4edda" stroke="#28a745" cx="170.86" cy="-147" rx="154.71" ry="21.43"/>
<text text-anchor="middle" x="170.86" y="-150" font-family="Helvetica" font-size="10.00">Soundness.nodeToValue_implies_toYamlValue</text>
<text text-anchor="middle" x="170.86" y="-139" font-family="Helvetica" font-size="10.00">(Soundness)</text>
</a>
</g>
</g>
<!-- L4YAML.Proofs.Soundness.nodeToValue_implies_toYamlValue&#45;&gt;L4YAML.YamlValue -->
<g id="edge9" class="edge">
<title>L4YAML.Proofs.Soundness.nodeToValue_implies_toYamlValue&#45;&gt;L4YAML.YamlValue</title>
<path fill="none" stroke="#999999" stroke-dasharray="1,5" d="M303.19,-158.12C316.87,-159.15 330.57,-160.13 343.71,-161 476.13,-169.72 509.25,-172.67 641.91,-176 653.02,-176.28 656.31,-179.34 666.91,-176 672.08,-174.37 672.15,-171.6 676.91,-169 686.62,-163.7 697.6,-158.81 707.77,-154.69"/>
<polygon fill="#999999" stroke="#999999" points="708.69,-156.21 712.69,-152.73 707.4,-152.95 708.69,-156.21"/>
</g>
<!-- L4YAML.Proofs.Soundness.nodeToValue_implies_toYamlValue&#45;&gt;L4YAML.Grammar.ValidNode -->
<g id="edge6" class="edge">
<title>L4YAML.Proofs.Soundness.nodeToValue_implies_toYamlValue&#45;&gt;L4YAML.Grammar.ValidNode</title>
<path fill="none" stroke="#999999" stroke-dasharray="1,5" d="M252.01,-165.09C283.82,-171.55 320.83,-178.17 354.71,-182 472.18,-195.28 610.79,-196.94 686.51,-196.66"/>
<polygon fill="#999999" stroke="#999999" points="686.86,-198.41 691.86,-196.64 686.85,-194.91 686.86,-198.41"/>
</g>
<!-- L4YAML.Proofs.Soundness.nodeToValue_implies_toYamlValue&#45;&gt;L4YAML.Grammar.NodeToValue -->
<g id="edge8" class="edge">
<title>L4YAML.Proofs.Soundness.nodeToValue_implies_toYamlValue&#45;&gt;L4YAML.Grammar.NodeToValue</title>
<path fill="none" stroke="#999999" stroke-dasharray="1,5" d="M281.54,-132.06C305.63,-128.93 331.02,-125.75 354.71,-123 477.71,-108.72 513.58,-131.48 631.91,-95 648.82,-89.79 653.84,-87.94 666.91,-76 672.83,-70.6 670.71,-66.07 676.91,-61 679.68,-58.74 682.66,-56.64 685.77,-54.7"/>
<polygon fill="#999999" stroke="#999999" points="686.67,-56.2 690.09,-52.16 684.9,-53.19 686.67,-56.2"/>
</g>
<!-- L4YAML.Proofs.Soundness.nodeToValue_implies_toYamlValue&#45;&gt;L4YAML.Grammar.toYamlValue -->
<g id="edge7" class="edge">
<title>L4YAML.Proofs.Soundness.nodeToValue_implies_toYamlValue&#45;&gt;L4YAML.Grammar.toYamlValue</title>
<path fill="none" stroke="#999999" stroke-dasharray="1,5" d="M316.39,-139.64C407.02,-134.99 526.29,-128.77 631.91,-123 647.47,-122.15 652.02,-125.59 666.91,-121 671.86,-119.47 672.28,-117.32 676.91,-115 681.66,-112.62 686.66,-110.28 691.71,-108.04"/>
<polygon fill="#999999" stroke="#999999" points="692.48,-109.61 696.35,-106 691.07,-106.41 692.48,-109.61"/>
</g>
<!-- L4YAML.Proofs.Soundness.nodeToValue_implies_toYamlValue&#45;&gt;L4YAML.Proofs.Soundness.toYamlValue_correct -->
<g id="edge5" class="edge">
<title>L4YAML.Proofs.Soundness.nodeToValue_implies_toYamlValue&#45;&gt;L4YAML.Proofs.Soundness.toYamlValue_correct</title>
<path fill="none" stroke="#28a745" d="M230.26,-127.32C284.9,-108.9 366.53,-81.39 424.13,-61.98"/>
<polygon fill="#28a745" stroke="#28a745" points="425.18,-64.21 431.04,-59.65 423.62,-59.57 425.18,-64.21"/>
</g>
</g>
</svg>
