<?xml version="1.0" encoding="UTF-8" standalone="no"?>
<!DOCTYPE svg PUBLIC "-//W3C//DTD SVG 1.1//EN"
 "http://www.w3.org/Graphics/SVG/1.1/DTD/svg11.dtd">
<!-- Generated by graphviz version 2.44.0 (0)
 -->
<!-- Title: YamlValue.sequence.injEq Pages: 1 -->
<svg width="635pt" height="294pt"
 viewBox="0.00 0.00 634.59 294.00" xmlns="http://www.w3.org/2000/svg" xmlns:xlink="http://www.w3.org/1999/xlink">
<g id="graph0" class="graph" transform="scale(1 1) rotate(0) translate(4 290)">
<title>YamlValue.sequence.injEq</title>
<polygon fill="white" stroke="transparent" points="-4,4 -4,-290 630.59,-290 630.59,4 -4,4"/>
<text text-anchor="middle" x="313.3" y="-271.6" font-family="Helvetica Bold" font-size="13.00">YamlValue.sequence.injEq</text>
<text text-anchor="middle" x="313.3" y="-257.6" font-family="Helvetica Bold" font-size="13.00">(heuristic: used by 5 proofs)</text>
<text text-anchor="middle" x="313.3" y="-243.6" font-family="Helvetica Bold" font-size="13.00">(L4YAML.Types)</text>
<g id="clust1" class="cluster">
<title>cluster_functions</title>
<polygon fill="none" stroke="#4a90d9" stroke-dasharray="5,2" points="495.59,-44 495.59,-226 618.59,-226 618.59,-44 495.59,-44"/>
<text text-anchor="middle" x="557.09" y="-211.6" font-family="Helvetica Bold" font-size="13.00" fill="#4a90d9">Functions</text>
</g>
<g id="clust2" class="cluster">
<title>cluster_key</title>
<polygon fill="none" stroke="#d4a017" stroke-dasharray="5,2" points="214.71,-36 214.71,-118 450.59,-118 450.59,-36 214.71,-36"/>
<text text-anchor="middle" x="332.65" y="-103.6" font-family="Helvetica Bold" font-size="13.00" fill="#d4a017">Key Theorem</text>
</g>
<g id="clust3" class="cluster">
<title>cluster_proofs</title>
<polygon fill="none" stroke="#28a745" stroke-dasharray="5,2" points="8,-148 8,-228 193.71,-228 193.71,-148 8,-148"/>
<text text-anchor="middle" x="100.85" y="-213.6" font-family="Helvetica Bold" font-size="13.00" fill="#28a745">Proof Dependencies</text>
</g>
<g id="clust4" class="cluster">
<title>cluster_stdlib</title>
<polygon fill="none" stroke="#e67e22" stroke-dasharray="5,2" points="37.52,-8 37.52,-136 164.19,-136 164.19,-8 37.52,-8"/>
<text text-anchor="middle" x="100.85" y="-121.6" font-family="Helvetica Bold" font-size="13.00" fill="#e67e22">Stdlib Lemmas</text>
</g>
<!-- L4YAML.CollectionStyle -->
<g id="node1" class="node">
<title>L4YAML.CollectionStyle</title>
<polygon fill="#dce9f7" stroke="#4a90d9" points="598.59,-142 515.59,-142 515.59,-106 598.59,-106 598.59,-142"/>
<text text-anchor="middle" x="557.09" y="-127" font-family="Helvetica" font-size="10.00">CollectionStyle</text>
<text text-anchor="middle" x="557.09" y="-116" font-family="Helvetica" font-size="10.00">(inductive)</text>
</g>
<!-- L4YAML.YamlValue -->
<g id="node2" class="node">
<title>L4YAML.YamlValue</title>
<polygon fill="#dce9f7" stroke="#4a90d9" points="588.09,-196 526.09,-196 526.09,-160 588.09,-160 588.09,-196"/>
<text text-anchor="middle" x="557.09" y="-181" font-family="Helvetica" font-size="10.00">YamlValue</text>
<text text-anchor="middle" x="557.09" y="-170" font-family="Helvetica" font-size="10.00">(inductive)</text>
</g>
<!-- L4YAML.YamlValue.sequence -->
<g id="node3" class="node">
<title>L4YAML.YamlValue.sequence</title>
<polygon fill="#dce9f7" stroke="#4a90d9" points="610.59,-88 503.59,-88 503.59,-52 610.59,-52 610.59,-88"/>
<text text-anchor="middle" x="557.09" y="-73" font-family="Helvetica" font-size="10.00">YamlValue.sequence</text>
<text text-anchor="middle" x="557.09" y="-62" font-family="Helvetica" font-size="10.00">(ctor)</text>
</g>
<!-- L4YAML.YamlValue.sequence.injEq -->
<g id="node4" class="node">
<title>L4YAML.YamlValue.sequence.injEq</title>
<polygon fill="#fff3cd" stroke="#d4a017" points="438.54,-58.54 438.54,-73.46 376.51,-84 288.79,-84 226.76,-73.46 226.76,-58.54 288.79,-48 376.51,-48 438.54,-58.54"/>
<polygon fill="none" stroke="#d4a017" points="442.53,-55.17 442.53,-76.83 376.85,-88 288.45,-88 222.76,-76.83 222.76,-55.17 288.45,-44 376.85,-44 442.53,-55.17"/>
<text text-anchor="middle" x="332.65" y="-62.9" font-family="Helvetica" font-size="12.00">YamlValue.sequence.injEq</text>
</g>
<!-- L4YAML.YamlValue.sequence.injEq&#45;&gt;L4YAML.CollectionStyle -->
<g id="edge2" class="edge">
<title>L4YAML.YamlValue.sequence.injEq&#45;&gt;L4YAML.CollectionStyle</title>
<path fill="none" stroke="#4a90d9" stroke-width="2" d="M401.9,-83.8C436.45,-92.8 477.54,-103.52 508.61,-111.62"/>
<polygon fill="#4a90d9" stroke="#4a90d9" stroke-width="2" points="508.09,-114.02 515.48,-113.41 509.32,-109.27 508.09,-114.02"/>
<text text-anchor="middle" x="473.09" y="-107.6" font-family="Times-Roman" font-size="8.00" fill="#4a90d9">about</text>
</g>
<!-- L4YAML.YamlValue.sequence.injEq&#45;&gt;L4YAML.YamlValue -->
<g id="edge3" class="edge">
<title>L4YAML.YamlValue.sequence.injEq&#45;&gt;L4YAML.YamlValue</title>
<path fill="none" stroke="#4a90d9" stroke-width="2" d="M373.88,-88.03C406.43,-105.63 453.59,-130.63 495.59,-151 503.27,-154.73 511.58,-158.56 519.52,-162.13"/>
<polygon fill="#4a90d9" stroke="#4a90d9" stroke-width="2" points="518.68,-164.44 526.07,-165.05 520.68,-159.96 518.68,-164.44"/>
<text text-anchor="middle" x="473.09" y="-146.6" font-family="Times-Roman" font-size="8.00" fill="#4a90d9">about</text>
</g>
<!-- L4YAML.YamlValue.sequence.injEq&#45;&gt;L4YAML.YamlValue.sequence -->
<g id="edge1" class="edge">
<title>L4YAML.YamlValue.sequence.injEq&#45;&gt;L4YAML.YamlValue.sequence</title>
<path fill="none" stroke="#4a90d9" stroke-width="2" d="M442.8,-66.25C457.19,-66.42 471.75,-66.66 485.59,-67 489.1,-67.09 492.7,-67.19 496.34,-67.31"/>
<polygon fill="#4a90d9" stroke="#4a90d9" stroke-width="2" points="496.28,-69.76 503.36,-67.55 496.45,-64.86 496.28,-69.76"/>
<text text-anchor="middle" x="473.09" y="-69.6" font-family="Times-Roman" font-size="8.00" fill="#4a90d9">about</text>
</g>
<!-- L4YAML.YamlValue.sequence.inj -->
<g id="node5" class="node">
<title>L4YAML.YamlValue.sequence.inj</title>
<ellipse fill="#d4edda" stroke="#28a745" cx="100.85" cy="-177" rx="84.71" ry="21.43"/>
<text text-anchor="middle" x="100.85" y="-180" font-family="Helvetica" font-size="10.00">YamlValue.sequence.inj</text>
<text text-anchor="middle" x="100.85" y="-169" font-family="Helvetica" font-size="10.00">(Types)</text>
</g>
<!-- L4YAML.YamlValue.sequence.inj&#45;&gt;L4YAML.CollectionStyle -->
<g id="edge8" class="edge">
<title>L4YAML.YamlValue.sequence.inj&#45;&gt;L4YAML.CollectionStyle</title>
<path fill="none" stroke="#999999" stroke-dasharray="1,5" d="M181.31,-183.88C260.29,-188.18 383.98,-188.01 485.59,-157 490.55,-155.49 490.99,-153.39 495.59,-151 500.43,-148.48 505.56,-145.96 510.7,-143.54"/>
<polygon fill="#999999" stroke="#999999" points="511.62,-145.04 515.42,-141.34 510.14,-141.87 511.62,-145.04"/>
</g>
<!-- L4YAML.YamlValue.sequence.inj&#45;&gt;L4YAML.YamlValue -->
<g id="edge9" class="edge">
<title>L4YAML.YamlValue.sequence.inj&#45;&gt;L4YAML.YamlValue</title>
<path fill="none" stroke="#999999" stroke-dasharray="1,5" d="M170.44,-189.27C181.53,-190.82 192.91,-192.16 203.71,-193 328.61,-202.75 361,-206.11 485.59,-193 497.14,-191.79 509.58,-189.48 520.74,-187.04"/>
<polygon fill="#999999" stroke="#999999" points="521.28,-188.71 525.78,-185.91 520.52,-185.29 521.28,-188.71"/>
</g>
<!-- L4YAML.YamlValue.sequence.inj&#45;&gt;L4YAML.YamlValue.sequence -->
<g id="edge7" class="edge">
<title>L4YAML.YamlValue.sequence.inj&#45;&gt;L4YAML.YamlValue.sequence</title>
<path fill="none" stroke="#999999" stroke-dasharray="1,5" d="M176.47,-167.23C263.05,-155.54 400.36,-135.82 450.59,-122 466.74,-117.56 471.83,-117.55 485.59,-108 491.02,-104.23 490.24,-100.87 495.59,-97 498.67,-94.77 501.95,-92.67 505.35,-90.7"/>
<polygon fill="#999999" stroke="#999999" points="506.51,-92.06 510.03,-88.1 504.81,-89 506.51,-92.06"/>
</g>
<!-- L4YAML.YamlValue.sequence.inj&#45;&gt;L4YAML.YamlValue.sequence.injEq -->
<g id="edge4" class="edge">
<title>L4YAML.YamlValue.sequence.inj&#45;&gt;L4YAML.YamlValue.sequence.injEq</title>
<path fill="none" stroke="#28a745" d="M158.26,-161.29C170.88,-155.95 183.52,-148.99 193.71,-140 200.57,-133.94 196.94,-128.16 203.71,-122 220.05,-107.13 240.97,-95.75 261.14,-87.26"/>
<polygon fill="#28a745" stroke="#28a745" points="262.1,-89.52 267.66,-84.6 260.25,-84.98 262.1,-89.52"/>
</g>
<!-- Eq.propIntro -->
<g id="node6" class="node">
<title>Eq.propIntro</title>
<ellipse fill="#fdebd0" stroke="#e67e22" cx="100.85" cy="-88" rx="41.41" ry="18"/>
<text text-anchor="middle" x="100.85" y="-85.5" font-family="Helvetica" font-size="10.00">Eq.propIntro</text>
</g>
<!-- Eq.propIntro&#45;&gt;L4YAML.YamlValue.sequence.injEq -->
<g id="edge5" class="edge">
<title>Eq.propIntro&#45;&gt;L4YAML.YamlValue.sequence.injEq</title>
<path fill="none" stroke="#e67e22" stroke-width="2" d="M141.36,-84.22C162.09,-82.23 188.68,-79.69 215.38,-77.13"/>
<polygon fill="#e67e22" stroke="#e67e22" stroke-width="2" points="215.8,-79.55 222.53,-76.45 215.33,-74.67 215.8,-79.55"/>
</g>
<!-- Lean.injEq_helper -->
<g id="node7" class="node">
<title>Lean.injEq_helper</title>
<ellipse fill="#fdebd0" stroke="#e67e22" cx="100.85" cy="-34" rx="55.17" ry="18"/>
<text text-anchor="middle" x="100.85" y="-31.5" font-family="Helvetica" font-size="10.00">Lean.injEq_helper</text>
</g>
<!-- Lean.injEq_helper&#45;&gt;L4YAML.YamlValue.sequence.injEq -->
<g id="edge6" class="edge">
<title>Lean.injEq_helper&#45;&gt;L4YAML.YamlValue.sequence.injEq</title>
<path fill="none" stroke="#e67e22" stroke-width="2" d="M152,-40.98C174.79,-44.16 202.63,-48.03 229.52,-51.78"/>
<polygon fill="#e67e22" stroke="#e67e22" stroke-width="2" points="229.43,-54.24 236.7,-52.78 230.11,-49.39 229.43,-54.24"/>
</g>
</g>
</svg>
