<?xml version="1.0" encoding="UTF-8" standalone="no"?>
<!DOCTYPE svg PUBLIC "-//W3C//DTD SVG 1.1//EN"
 "http://www.w3.org/Graphics/SVG/1.1/DTD/svg11.dtd">
<!-- Generated by graphviz version 2.44.0 (0)
 -->
<!-- Title: YamlValue.sequence.sizeOf_spec Pages: 1 -->
<svg width="725pt" height="454pt"
 viewBox="0.00 0.00 725.30 454.00" xmlns="http://www.w3.org/2000/svg" xmlns:xlink="http://www.w3.org/1999/xlink">
<g id="graph0" class="graph" transform="scale(1 1) rotate(0) translate(4 450)">
<title>YamlValue.sequence.sizeOf_spec</title>
<polygon fill="white" stroke="transparent" points="-4,4 -4,-450 721.3,-450 721.3,4 -4,4"/>
<text text-anchor="middle" x="358.65" y="-431.6" font-family="Helvetica Bold" font-size="13.00">YamlValue.sequence.sizeOf_spec</text>
<text text-anchor="middle" x="358.65" y="-417.6" font-family="Helvetica Bold" font-size="13.00">(heuristic: used by 11 proofs)</text>
<text text-anchor="middle" x="358.65" y="-403.6" font-family="Helvetica Bold" font-size="13.00">(L4YAML.Types)</text>
<g id="clust1" class="cluster">
<title>cluster_functions</title>
<polygon fill="none" stroke="#4a90d9" stroke-dasharray="5,2" points="302.54,-98 302.54,-388 709.3,-388 709.3,-98 302.54,-98"/>
<text text-anchor="middle" x="505.92" y="-373.6" font-family="Helvetica Bold" font-size="13.00" fill="#4a90d9">Functions</text>
</g>
<g id="clust2" class="cluster">
<title>cluster_key</title>
<polygon fill="none" stroke="#d4a017" stroke-dasharray="5,2" points="221.78,-8 221.78,-90 508.3,-90 508.3,-8 221.78,-8"/>
<text text-anchor="middle" x="365.04" y="-75.6" font-family="Helvetica Bold" font-size="13.00" fill="#d4a017">Key Theorem</text>
</g>
<g id="clust3" class="cluster">
<title>cluster_proofs</title>
<polygon fill="none" stroke="#28a745" stroke-dasharray="5,2" points="8,-246 8,-326 200.78,-326 200.78,-246 8,-246"/>
<text text-anchor="middle" x="104.39" y="-311.6" font-family="Helvetica Bold" font-size="13.00" fill="#28a745">Proof Dependencies</text>
</g>
<!-- L4YAML.YamlValue._sizeOf_2 -->
<g id="node1" class="node">
<title>L4YAML.YamlValue._sizeOf_2</title>
<g id="a_node1"><a xlink:href="../../../api/L4YAML/Types.html#L4YAML.YamlValue._sizeOf_2" xlink:title="YamlValue._sizeOf_2\n(def)" target="_blank">
<polygon fill="#dce9f7" stroke="#4a90d9" points="419.54,-358 310.54,-358 310.54,-322 419.54,-322 419.54,-358"/>
<text text-anchor="middle" x="365.04" y="-343" font-family="Helvetica" font-size="10.00">YamlValue._sizeOf_2</text>
<text text-anchor="middle" x="365.04" y="-332" font-family="Helvetica" font-size="10.00">(def)</text>
</a>
</g>
</g>
<!-- L4YAML.YamlValue._sizeOf_inst -->
<g id="node2" class="node">
<title>L4YAML.YamlValue._sizeOf_inst</title>
<g id="a_node2"><a xlink:href="../../../api/L4YAML/Types.html#L4YAML.YamlValue._sizeOf_inst" xlink:title="YamlValue._sizeOf_inst\n(def)" target="_blank">
<polygon fill="#dce9f7" stroke="#4a90d9" points="690.8,-304 571.8,-304 571.8,-268 690.8,-268 690.8,-304"/>
<text text-anchor="middle" x="631.3" y="-289" font-family="Helvetica" font-size="10.00">YamlValue._sizeOf_inst</text>
<text text-anchor="middle" x="631.3" y="-278" font-family="Helvetica" font-size="10.00">(def)</text>
</a>
</g>
</g>
<!-- L4YAML.CollectionStyle -->
<g id="node3" class="node">
<title>L4YAML.CollectionStyle</title>
<g id="a_node3"><a xlink:href="../../../api/L4YAML/Types.html#L4YAML.CollectionStyle" xlink:title="CollectionStyle\n(inductive)" target="_blank">
<polygon fill="#dce9f7" stroke="#4a90d9" points="672.8,-142 589.8,-142 589.8,-106 672.8,-106 672.8,-142"/>
<text text-anchor="middle" x="631.3" y="-127" font-family="Helvetica" font-size="10.00">CollectionStyle</text>
<text text-anchor="middle" x="631.3" y="-116" font-family="Helvetica" font-size="10.00">(inductive)</text>
</a>
</g>
</g>
<!-- L4YAML.YamlValue -->
<g id="node4" class="node">
<title>L4YAML.YamlValue</title>
<g id="a_node4"><a xlink:href="../../../api/L4YAML/Types.html#L4YAML.YamlValue" xlink:title="YamlValue\n(inductive)" target="_blank">
<polygon fill="#dce9f7" stroke="#4a90d9" points="662.3,-358 600.3,-358 600.3,-322 662.3,-322 662.3,-358"/>
<text text-anchor="middle" x="631.3" y="-343" font-family="Helvetica" font-size="10.00">YamlValue</text>
<text text-anchor="middle" x="631.3" y="-332" font-family="Helvetica" font-size="10.00">(inductive)</text>
</a>
</g>
</g>
<!-- L4YAML.YamlValue.sequence -->
<g id="node5" class="node">
<title>L4YAML.YamlValue.sequence</title>
<g id="a_node5"><a xlink:href="../../../api/L4YAML/Types.html#L4YAML.YamlValue.sequence" xlink:title="YamlValue.sequence\n(ctor)" target="_blank">
<polygon fill="#dce9f7" stroke="#4a90d9" points="684.8,-250 577.8,-250 577.8,-214 684.8,-214 684.8,-250"/>
<text text-anchor="middle" x="631.3" y="-235" font-family="Helvetica" font-size="10.00">YamlValue.sequence</text>
<text text-anchor="middle" x="631.3" y="-224" font-family="Helvetica" font-size="10.00">(ctor)</text>
</a>
</g>
</g>
<!-- L4YAML.CollectionStyle._sizeOf_inst -->
<g id="node6" class="node">
<title>L4YAML.CollectionStyle._sizeOf_inst</title>
<g id="a_node6"><a xlink:href="../../../api/L4YAML/Types.html#L4YAML.CollectionStyle._sizeOf_inst" xlink:title="CollectionStyle._sizeOf_inst\n(def)" target="_blank">
<polygon fill="#dce9f7" stroke="#4a90d9" points="701.3,-196 561.3,-196 561.3,-160 701.3,-160 701.3,-196"/>
<text text-anchor="middle" x="631.3" y="-181" font-family="Helvetica" font-size="10.00">CollectionStyle._sizeOf_inst</text>
<text text-anchor="middle" x="631.3" y="-170" font-family="Helvetica" font-size="10.00">(def)</text>
</a>
</g>
</g>
<!-- L4YAML.YamlValue.sequence.sizeOf_spec -->
<g id="node7" class="node">
<title>L4YAML.YamlValue.sequence.sizeOf_spec</title>
<g id="a_node7"><a xlink:href="../../../api/L4YAML/Types.html#L4YAML.YamlValue.sequence.sizeOf_spec" xlink:title="YamlValue.sequence.sizeOf_spec" target="_blank">
<polygon fill="#fff3cd" stroke="#d4a017" points="496.07,-30.54 496.07,-45.46 419.31,-56 310.76,-56 234.01,-45.46 234.01,-30.54 310.76,-20 419.31,-20 496.07,-30.54"/>
<polygon fill="none" stroke="#d4a017" points="500.06,-27.06 500.06,-48.94 419.59,-60 310.49,-60 230.01,-48.94 230.01,-27.06 310.49,-16 419.59,-16 500.06,-27.06"/>
<text text-anchor="middle" x="365.04" y="-34.9" font-family="Helvetica" font-size="12.00">YamlValue.sequence.sizeOf_spec</text>
</a>
</g>
</g>
<!-- L4YAML.YamlValue.sequence.sizeOf_spec&#45;&gt;L4YAML.YamlValue._sizeOf_inst -->
<g id="edge1" class="edge">
<title>L4YAML.YamlValue.sequence.sizeOf_spec&#45;&gt;L4YAML.YamlValue._sizeOf_inst</title>
<path fill="none" stroke="#4a90d9" stroke-width="2" d="M452.74,-55.61C473.86,-63.9 494.36,-76.09 508.3,-94 529.78,-121.58 503.5,-140.34 518.3,-172 525.23,-186.82 535.19,-184.8 543.3,-199 557.12,-223.17 542.43,-238.53 561.3,-259 562.87,-260.7 564.56,-262.3 566.35,-263.8"/>
<polygon fill="#4a90d9" stroke="#4a90d9" stroke-width="2" points="564.89,-265.77 571.96,-268 567.82,-261.84 564.89,-265.77"/>
<text text-anchor="middle" x="530.8" y="-201.6" font-family="Times-Roman" font-size="8.00" fill="#4a90d9">about</text>
</g>
<!-- L4YAML.YamlValue.sequence.sizeOf_spec&#45;&gt;L4YAML.CollectionStyle -->
<g id="edge3" class="edge">
<title>L4YAML.YamlValue.sequence.sizeOf_spec&#45;&gt;L4YAML.CollectionStyle</title>
<path fill="none" stroke="#4a90d9" stroke-width="2" d="M467.41,-53.58C492.64,-58.97 519.32,-65.99 543.3,-75 561.93,-82 581.34,-92.57 597.08,-102.1"/>
<polygon fill="#4a90d9" stroke="#4a90d9" stroke-width="2" points="595.91,-104.25 603.15,-105.83 598.47,-100.08 595.91,-104.25"/>
<text text-anchor="middle" x="530.8" y="-77.6" font-family="Times-Roman" font-size="8.00" fill="#4a90d9">about</text>
</g>
<!-- L4YAML.YamlValue.sequence.sizeOf_spec&#45;&gt;L4YAML.YamlValue -->
<g id="edge5" class="edge">
<title>L4YAML.YamlValue.sequence.sizeOf_spec&#45;&gt;L4YAML.YamlValue</title>
<path fill="none" stroke="#4a90d9" stroke-width="2" d="M453.59,-55.39C474.58,-63.68 494.8,-75.93 508.3,-94 523.52,-114.37 512.3,-183.29 518.3,-208 519.04,-211.06 559.06,-310.79 561.3,-313 570.11,-321.68 582.04,-327.64 593.49,-331.71"/>
<polygon fill="#4a90d9" stroke="#4a90d9" stroke-width="2" points="592.74,-334.04 600.16,-333.9 594.27,-329.39 592.74,-334.04"/>
<text text-anchor="middle" x="530.8" y="-271.6" font-family="Times-Roman" font-size="8.00" fill="#4a90d9">about</text>
</g>
<!-- L4YAML.YamlValue.sequence.sizeOf_spec&#45;&gt;L4YAML.YamlValue.sequence -->
<g id="edge2" class="edge">
<title>L4YAML.YamlValue.sequence.sizeOf_spec&#45;&gt;L4YAML.YamlValue.sequence</title>
<path fill="none" stroke="#4a90d9" stroke-width="2" d="M449.01,-56C470.88,-64.33 492.7,-76.44 508.3,-94 519.9,-107.05 510.42,-116.41 518.3,-132 526.29,-147.8 534.17,-147.83 543.3,-163 553.77,-180.4 546.71,-190.87 561.3,-205 564.32,-207.92 567.69,-210.54 571.28,-212.88"/>
<polygon fill="#4a90d9" stroke="#4a90d9" stroke-width="2" points="570.22,-215.1 577.49,-216.57 572.72,-210.89 570.22,-215.1"/>
<text text-anchor="middle" x="530.8" y="-165.6" font-family="Times-Roman" font-size="8.00" fill="#4a90d9">about</text>
</g>
<!-- L4YAML.YamlValue.sequence.sizeOf_spec&#45;&gt;L4YAML.CollectionStyle._sizeOf_inst -->
<g id="edge4" class="edge">
<title>L4YAML.YamlValue.sequence.sizeOf_spec&#45;&gt;L4YAML.CollectionStyle._sizeOf_inst</title>
<path fill="none" stroke="#4a90d9" stroke-width="2" d="M430.73,-58.54C455.79,-67.75 484.19,-79.76 508.3,-94 525.7,-104.27 529.9,-107.88 543.3,-123 553.11,-134.07 549.86,-141.63 561.3,-151 563.6,-152.88 566.04,-154.64 568.58,-156.29"/>
<polygon fill="#4a90d9" stroke="#4a90d9" stroke-width="2" points="567.41,-158.44 574.68,-159.93 569.92,-154.23 567.41,-158.44"/>
<text text-anchor="middle" x="530.8" y="-125.6" font-family="Times-Roman" font-size="8.00" fill="#4a90d9">about</text>
</g>
<!-- L4YAML.YamlValue._sizeOf_2_eq -->
<g id="node8" class="node">
<title>L4YAML.YamlValue._sizeOf_2_eq</title>
<g id="a_node8"><a xlink:href="../../../api/L4YAML/Types.html#L4YAML.YamlValue._sizeOf_2_eq" xlink:title="YamlValue._sizeOf_2_eq\n(Types)" target="_blank">
<ellipse fill="#d4edda" stroke="#28a745" cx="104.39" cy="-275" rx="88.28" ry="21.43"/>
<text text-anchor="middle" x="104.39" y="-278" font-family="Helvetica" font-size="10.00">YamlValue._sizeOf_2_eq</text>
<text text-anchor="middle" x="104.39" y="-267" font-family="Helvetica" font-size="10.00">(Types)</text>
</a>
</g>
</g>
<!-- L4YAML.YamlValue._sizeOf_2_eq&#45;&gt;L4YAML.YamlValue._sizeOf_2 -->
<g id="edge8" class="edge">
<title>L4YAML.YamlValue._sizeOf_2_eq&#45;&gt;L4YAML.YamlValue._sizeOf_2</title>
<path fill="none" stroke="#999999" stroke-dasharray="1,5" d="M156.56,-292.13C173.69,-297.56 192.96,-303.36 210.78,-308 241.74,-316.06 276.62,-323.47 305.28,-329.13"/>
<polygon fill="#999999" stroke="#999999" points="304.95,-330.85 310.19,-330.09 305.62,-327.41 304.95,-330.85"/>
</g>
<!-- L4YAML.YamlValue._sizeOf_2_eq&#45;&gt;L4YAML.YamlValue._sizeOf_inst -->
<g id="edge7" class="edge">
<title>L4YAML.YamlValue._sizeOf_2_eq&#45;&gt;L4YAML.YamlValue._sizeOf_inst</title>
<path fill="none" stroke="#999999" stroke-dasharray="1,5" d="M193.08,-274.52C281.52,-274.39 421.94,-275.13 543.3,-280 550.68,-280.3 558.4,-280.7 566.07,-281.15"/>
<polygon fill="#999999" stroke="#999999" points="566.26,-282.92 571.36,-281.48 566.48,-279.42 566.26,-282.92"/>
</g>
<!-- L4YAML.YamlValue._sizeOf_2_eq&#45;&gt;L4YAML.YamlValue -->
<g id="edge9" class="edge">
<title>L4YAML.YamlValue._sizeOf_2_eq&#45;&gt;L4YAML.YamlValue</title>
<path fill="none" stroke="#999999" stroke-dasharray="1,5" d="M190.66,-279.97C272.48,-285.46 399.33,-295.87 508.3,-313 537.81,-317.64 570.87,-325.1 595.13,-331"/>
<polygon fill="#999999" stroke="#999999" points="594.89,-332.75 600.17,-332.24 595.73,-329.35 594.89,-332.75"/>
</g>
<!-- L4YAML.YamlValue._sizeOf_2_eq&#45;&gt;L4YAML.YamlValue.sequence.sizeOf_spec -->
<g id="edge6" class="edge">
<title>L4YAML.YamlValue._sizeOf_2_eq&#45;&gt;L4YAML.YamlValue.sequence.sizeOf_spec</title>
<path fill="none" stroke="#28a745" d="M113.79,-253.8C129.57,-216.51 167.05,-138.91 221.78,-94 239.63,-79.35 261.78,-68.19 283.24,-59.84"/>
<polygon fill="#28a745" stroke="#28a745" points="284.19,-62.1 289.87,-57.34 282.46,-57.52 284.19,-62.1"/>
</g>
</g>
</svg>
