<?xml version="1.0" encoding="UTF-8" standalone="no"?>
<!DOCTYPE svg PUBLIC "-//W3C//DTD SVG 1.1//EN"
 "http://www.w3.org/Graphics/SVG/1.1/DTD/svg11.dtd">
<!-- Generated by graphviz version 2.44.0 (0)
 -->
<!-- Title: chain_ScannerCoupling.advance_fuel_budget Pages: 1 -->
<svg width="989pt" height="432pt"
 viewBox="0.00 0.00 989.00 432.00" xmlns="http://www.w3.org/2000/svg" xmlns:xlink="http://www.w3.org/1999/xlink">
<g id="graph0" class="graph" transform="scale(1 1) rotate(0) translate(4 428)">
<title>chain_ScannerCoupling.advance_fuel_budget</title>
<polygon fill="white" stroke="transparent" points="-4,4 -4,-428 985,-428 985,4 -4,4"/>
<text text-anchor="middle" x="490.5" y="-409.6" font-family="Helvetica Bold" font-size="13.00">Functorial Chains: ScannerCoupling.advance_fuel_budget</text>
<text text-anchor="middle" x="490.5" y="-395.6" font-family="Helvetica Bold" font-size="13.00">(heuristic: used by 5 proofs)</text>
<g id="clust1" class="cluster">
<title>cluster_fns</title>
<polygon fill="none" stroke="#4a90d9" stroke-dasharray="5,2" points="8,-8 8,-271 437,-271 437,-8 8,-8"/>
<text text-anchor="middle" x="222.5" y="-256.6" font-family="Helvetica Bold" font-size="13.00" fill="#4a90d9">Functions (Call Chain)</text>
</g>
<g id="clust2" class="cluster">
<title>cluster_thms</title>
<polygon fill="none" stroke="#28a745" stroke-dasharray="5,2" points="445,-89 445,-380 973,-380 973,-89 445,-89"/>
<text text-anchor="middle" x="709" y="-365.6" font-family="Helvetica Bold" font-size="13.00" fill="#28a745">Theorems (Proof Chain)</text>
</g>
<!-- L4YAML.Scanner.ScannerState.input -->
<g id="node1" class="node">
<title>L4YAML.Scanner.ScannerState.input</title>
<g id="a_node1"><a xlink:href="../../../api/L4YAML/Scanner/State.html#L4YAML.Scanner.ScannerState.input" xlink:title="ScannerState.input" target="_blank">
<polygon fill="#dce9f7" stroke="#4a90d9" points="307,-133 207,-133 207,-97 307,-97 307,-133"/>
<text text-anchor="middle" x="257" y="-112.5" font-family="Helvetica" font-size="10.00">ScannerState.input</text>
</a>
</g>
</g>
<!-- L4YAML.Scanner.ScannerState -->
<g id="node3" class="node">
<title>L4YAML.Scanner.ScannerState</title>
<g id="a_node3"><a xlink:href="../../../api/L4YAML/Scanner/State.html#L4YAML.Scanner.ScannerState" xlink:title="ScannerState" target="_blank">
<polygon fill="#dce9f7" stroke="#4a90d9" points="425,-52 349,-52 349,-16 425,-16 425,-52"/>
<text text-anchor="middle" x="387" y="-31.5" font-family="Helvetica" font-size="10.00">ScannerState</text>
</a>
</g>
</g>
<!-- L4YAML.Scanner.ScannerState.input&#45;&gt;L4YAML.Scanner.ScannerState -->
<g id="edge10" class="edge">
<title>L4YAML.Scanner.ScannerState.input&#45;&gt;L4YAML.Scanner.ScannerState</title>
<path fill="none" stroke="#4a90d9" stroke-width="2" d="M285.21,-96.86C305.05,-84.8 331.72,-68.59 352.79,-55.79"/>
<polygon fill="#4a90d9" stroke="#4a90d9" stroke-width="2" points="354.14,-57.84 358.85,-52.11 351.59,-53.65 354.14,-57.84"/>
<text text-anchor="middle" x="334.5" y="-72.6" font-family="Times-Roman" font-size="8.00">calls</text>
</g>
<!-- L4YAML.Scanner.ScannerState.advance -->
<g id="node2" class="node">
<title>L4YAML.Scanner.ScannerState.advance</title>
<g id="a_node2"><a xlink:href="../../../api/L4YAML/Scanner/State.html#L4YAML.Scanner.ScannerState.advance" xlink:title="ScannerState.advance" target="_blank">
<polygon fill="#dce9f7" stroke="#4a90d9" points="223.5,-241 108.5,-241 108.5,-205 223.5,-205 223.5,-241"/>
<text text-anchor="middle" x="166" y="-220.5" font-family="Helvetica" font-size="10.00">ScannerState.advance</text>
</a>
</g>
</g>
<!-- L4YAML.Scanner.ScannerState.advance&#45;&gt;L4YAML.Scanner.ScannerState.input -->
<g id="edge8" class="edge">
<title>L4YAML.Scanner.ScannerState.advance&#45;&gt;L4YAML.Scanner.ScannerState.input</title>
<path fill="none" stroke="#4a90d9" stroke-width="2" d="M165.76,-204.99C166.4,-189.36 169.64,-166.35 182,-151 187.04,-144.74 193.45,-139.55 200.4,-135.26"/>
<polygon fill="#4a90d9" stroke="#4a90d9" stroke-width="2" points="202.03,-137.15 206.9,-131.56 199.61,-132.89 202.03,-137.15"/>
<text text-anchor="middle" x="191.5" y="-167.1" font-family="Times-Roman" font-size="8.00">calls</text>
</g>
<!-- L4YAML.Scanner.ScannerState.advance&#45;&gt;L4YAML.Scanner.ScannerState -->
<g id="edge17" class="edge">
<title>L4YAML.Scanner.ScannerState.advance&#45;&gt;L4YAML.Scanner.ScannerState</title>
<path fill="none" stroke="#4a90d9" stroke-width="2" d="M129.78,-204.96C81.54,-180.03 6.31,-131.9 43,-89 80.94,-44.64 257.41,-36.48 341.8,-35.14"/>
<polygon fill="#4a90d9" stroke="#4a90d9" stroke-width="2" points="341.98,-37.59 348.94,-35.04 341.91,-32.69 341.98,-37.59"/>
<text text-anchor="middle" x="52.5" y="-113.1" font-family="Times-Roman" font-size="8.00">calls</text>
</g>
<!-- L4YAML.Scanner.ScannerState.offset -->
<g id="node4" class="node">
<title>L4YAML.Scanner.ScannerState.offset</title>
<g id="a_node4"><a xlink:href="../../../api/L4YAML/Scanner/State.html#L4YAML.Scanner.ScannerState.offset" xlink:title="ScannerState.offset" target="_blank">
<polygon fill="#dce9f7" stroke="#4a90d9" points="428.5,-133 325.5,-133 325.5,-97 428.5,-97 428.5,-133"/>
<text text-anchor="middle" x="377" y="-112.5" font-family="Helvetica" font-size="10.00">ScannerState.offset</text>
</a>
</g>
</g>
<!-- L4YAML.Scanner.ScannerState.advance&#45;&gt;L4YAML.Scanner.ScannerState.offset -->
<g id="edge11" class="edge">
<title>L4YAML.Scanner.ScannerState.advance&#45;&gt;L4YAML.Scanner.ScannerState.offset</title>
<path fill="none" stroke="#4a90d9" stroke-width="2" d="M182.24,-204.98C198.48,-188.89 224.89,-165.17 252,-151 252.42,-150.78 286.16,-141.34 318.47,-132.32"/>
<polygon fill="#4a90d9" stroke="#4a90d9" stroke-width="2" points="319.25,-134.64 325.34,-130.4 317.94,-129.92 319.25,-134.64"/>
<text text-anchor="middle" x="261.5" y="-167.1" font-family="Times-Roman" font-size="8.00">calls</text>
</g>
<!-- L4YAML.Scanner.ScannerState.inputEnd -->
<g id="node5" class="node">
<title>L4YAML.Scanner.ScannerState.inputEnd</title>
<g id="a_node5"><a xlink:href="../../../api/L4YAML/Scanner/State.html#L4YAML.Scanner.ScannerState.inputEnd" xlink:title="ScannerState.inputEnd" target="_blank">
<polygon fill="#dce9f7" stroke="#4a90d9" points="188.5,-133 71.5,-133 71.5,-97 188.5,-97 188.5,-133"/>
<text text-anchor="middle" x="130" y="-112.5" font-family="Helvetica" font-size="10.00">ScannerState.inputEnd</text>
</a>
</g>
</g>
<!-- L4YAML.Scanner.ScannerState.advance&#45;&gt;L4YAML.Scanner.ScannerState.inputEnd -->
<g id="edge2" class="edge">
<title>L4YAML.Scanner.ScannerState.advance&#45;&gt;L4YAML.Scanner.ScannerState.inputEnd</title>
<path fill="none" stroke="#4a90d9" stroke-width="2" d="M146.04,-204.83C141.26,-199.62 136.75,-193.53 134,-187 127.8,-172.27 126.85,-154.29 127.42,-140.1"/>
<polygon fill="#4a90d9" stroke="#4a90d9" stroke-width="2" points="129.87,-140.2 127.84,-133.07 124.98,-139.91 129.87,-140.2"/>
<text text-anchor="middle" x="143.5" y="-167.1" font-family="Times-Roman" font-size="8.00">calls</text>
</g>
<!-- L4YAML.Scanner.ScannerState.offset&#45;&gt;L4YAML.Scanner.ScannerState -->
<g id="edge13" class="edge">
<title>L4YAML.Scanner.ScannerState.offset&#45;&gt;L4YAML.Scanner.ScannerState</title>
<path fill="none" stroke="#4a90d9" stroke-width="2" d="M379.17,-96.86C380.56,-85.88 382.38,-71.48 383.92,-59.33"/>
<polygon fill="#4a90d9" stroke="#4a90d9" stroke-width="2" points="386.39,-59.36 384.83,-52.11 381.52,-58.75 386.39,-59.36"/>
<text text-anchor="middle" x="391.5" y="-72.6" font-family="Times-Roman" font-size="8.00">calls</text>
</g>
<!-- L4YAML.Scanner.ScannerState.inputEnd&#45;&gt;L4YAML.Scanner.ScannerState -->
<g id="edge5" class="edge">
<title>L4YAML.Scanner.ScannerState.inputEnd&#45;&gt;L4YAML.Scanner.ScannerState</title>
<path fill="none" stroke="#4a90d9" stroke-width="2" d="M174.83,-96.99C182.52,-94.22 190.47,-91.46 198,-89 246.71,-73.11 303.3,-57.28 341.77,-46.91"/>
<polygon fill="#4a90d9" stroke="#4a90d9" stroke-width="2" points="342.61,-49.22 348.74,-45.04 341.34,-44.49 342.61,-49.22"/>
<text text-anchor="middle" x="263.5" y="-72.6" font-family="Times-Roman" font-size="8.00">calls</text>
</g>
<!-- L4YAML.Proofs.CouplingBridge.advance_offset_eq._proof_1_1 -->
<g id="node6" class="node">
<title>L4YAML.Proofs.CouplingBridge.advance_offset_eq._proof_1_1</title>
<g id="a_node6"><a xlink:href="../../../api/L4YAML/Proofs/Coupling/CouplingBridge.html#L4YAML.Proofs.CouplingBridge.advance_offset_eq._proof_1_1" xlink:title="CouplingBridge.advance_offset_eq._proof_1_1" target="_blank">
<ellipse fill="#d4edda" stroke="#28a745" cx="581" cy="-115" rx="128.16" ry="18"/>
<text text-anchor="middle" x="581" y="-112.5" font-family="Helvetica" font-size="10.00">CouplingBridge.advance_offset_eq._proof_1_1</text>
</a>
</g>
</g>
<!-- L4YAML.Proofs.CouplingBridge.advance_offset_eq._proof_1_1&#45;&gt;L4YAML.Scanner.ScannerState -->
<g id="edge7" class="edge">
<title>L4YAML.Proofs.CouplingBridge.advance_offset_eq._proof_1_1&#45;&gt;L4YAML.Scanner.ScannerState</title>
<path fill="none" stroke="#6f42c1" stroke-width="2" stroke-dasharray="5,2" d="M541.27,-97.82C509.5,-84.88 464.96,-66.75 431.9,-53.28"/>
<polygon fill="#6f42c1" stroke="#6f42c1" stroke-width="2" points="432.43,-50.85 425.02,-50.48 430.58,-55.39 432.43,-50.85"/>
<text text-anchor="middle" x="501.5" y="-72.6" font-family="Times-Roman" font-size="8.00" fill="#6f42c1">about</text>
</g>
<!-- L4YAML.Proofs.ScannerCoupling.advance_fuel_budget -->
<g id="node7" class="node">
<title>L4YAML.Proofs.ScannerCoupling.advance_fuel_budget</title>
<g id="a_node7"><a xlink:href="../../../api/L4YAML/Proofs/Coupling/ScannerCoupling.html#L4YAML.Proofs.ScannerCoupling.advance_fuel_budget" xlink:title="ScannerCoupling.advance_fuel_budget" target="_blank">
<polygon fill="#fff3cd" stroke="#d4a017" points="709.75,-320.54 709.75,-335.46 640.78,-346 543.22,-346 474.25,-335.46 474.25,-320.54 543.22,-310 640.78,-310 709.75,-320.54"/>
<polygon fill="none" stroke="#d4a017" points="713.75,-317.11 713.75,-338.89 641.08,-350 542.92,-350 470.25,-338.89 470.25,-317.11 542.92,-306 641.08,-306 713.75,-317.11"/>
<text text-anchor="middle" x="592" y="-325.5" font-family="Helvetica" font-size="10.00">ScannerCoupling.advance_fuel_budget</text>
</a>
</g>
</g>
<!-- L4YAML.Proofs.ScannerCoupling.advance_fuel_budget&#45;&gt;L4YAML.Scanner.ScannerState.advance -->
<g id="edge1" class="edge">
<title>L4YAML.Proofs.ScannerCoupling.advance_fuel_budget&#45;&gt;L4YAML.Scanner.ScannerState.advance</title>
<path fill="none" stroke="#6f42c1" stroke-width="2" stroke-dasharray="5,2" d="M469.96,-323.81C378.84,-319.65 263.09,-310.06 221,-288 203.4,-278.78 189.01,-261.36 179.37,-247.03"/>
<polygon fill="#6f42c1" stroke="#6f42c1" stroke-width="2" points="181.4,-245.65 175.54,-241.1 177.29,-248.31 181.4,-245.65"/>
<text text-anchor="middle" x="233.5" y="-281.6" font-family="Times-Roman" font-size="8.00" fill="#6f42c1">about</text>
</g>
<!-- L4YAML.Proofs.ScannerCoupling.advance_fuel_budget&#45;&gt;L4YAML.Scanner.ScannerState.inputEnd -->
<g id="edge14" class="edge">
<title>L4YAML.Proofs.ScannerCoupling.advance_fuel_budget&#45;&gt;L4YAML.Scanner.ScannerState.inputEnd</title>
<path fill="none" stroke="#6f42c1" stroke-width="2" stroke-dasharray="5,2" d="M524.22,-308.69C491.78,-299.02 452.74,-286.03 419,-271 350.97,-240.69 330.12,-235.96 274,-187 258.73,-173.67 262.71,-162.47 246,-151 241.24,-147.74 219.27,-140.85 195.71,-134.03"/>
<polygon fill="#6f42c1" stroke="#6f42c1" stroke-width="2" points="196.1,-131.6 188.7,-132.02 194.75,-136.31 196.1,-131.6"/>
<text text-anchor="middle" x="431.5" y="-221.1" font-family="Times-Roman" font-size="8.00" fill="#6f42c1">about</text>
</g>
<!-- L4YAML.Proofs.CouplingBridge.advance_inputEnd -->
<g id="node8" class="node">
<title>L4YAML.Proofs.CouplingBridge.advance_inputEnd</title>
<g id="a_node8"><a xlink:href="../../../api/L4YAML/Proofs/Coupling/CouplingBridge.html#L4YAML.Proofs.CouplingBridge.advance_inputEnd" xlink:title="CouplingBridge.advance_inputEnd" target="_blank">
<ellipse fill="#d4edda" stroke="#28a745" cx="703" cy="-169" rx="97.26" ry="18"/>
<text text-anchor="middle" x="703" y="-166.5" font-family="Helvetica" font-size="10.00">CouplingBridge.advance_inputEnd</text>
</a>
</g>
</g>
<!-- L4YAML.Proofs.ScannerCoupling.advance_fuel_budget&#45;&gt;L4YAML.Proofs.CouplingBridge.advance_inputEnd -->
<g id="edge15" class="edge">
<title>L4YAML.Proofs.ScannerCoupling.advance_fuel_budget&#45;&gt;L4YAML.Proofs.CouplingBridge.advance_inputEnd</title>
<path fill="none" stroke="#28a745" stroke-width="2" d="M714.1,-324.61C806.77,-319.91 923.32,-306.79 954,-271 973.09,-248.73 973.26,-227.13 954,-205 934.71,-182.83 867.22,-174.27 807.08,-171.15"/>
<polygon fill="#28a745" stroke="#28a745" stroke-width="2" points="806.89,-168.69 799.78,-170.8 806.66,-173.58 806.89,-168.69"/>
<text text-anchor="middle" x="952" y="-281.6" font-family="Times-Roman" font-size="8.00">uses</text>
</g>
<!-- L4YAML.Proofs.CouplingBridge.advance_offset_eq -->
<g id="node9" class="node">
<title>L4YAML.Proofs.CouplingBridge.advance_offset_eq</title>
<g id="a_node9"><a xlink:href="../../../api/L4YAML/Proofs/Coupling/CouplingBridge.html#L4YAML.Proofs.CouplingBridge.advance_offset_eq" xlink:title="CouplingBridge.advance_offset_eq" target="_blank">
<ellipse fill="#d4edda" stroke="#28a745" cx="847" cy="-223" rx="98.11" ry="18"/>
<text text-anchor="middle" x="847" y="-220.5" font-family="Helvetica" font-size="10.00">CouplingBridge.advance_offset_eq</text>
</a>
</g>
</g>
<!-- L4YAML.Proofs.ScannerCoupling.advance_fuel_budget&#45;&gt;L4YAML.Proofs.CouplingBridge.advance_offset_eq -->
<g id="edge3" class="edge">
<title>L4YAML.Proofs.ScannerCoupling.advance_fuel_budget&#45;&gt;L4YAML.Proofs.CouplingBridge.advance_offset_eq</title>
<path fill="none" stroke="#28a745" stroke-width="2" d="M647.44,-306.8C675.34,-296.44 709.61,-283.41 740,-271 761.77,-262.11 785.76,-251.63 805.5,-242.83"/>
<polygon fill="#28a745" stroke="#28a745" stroke-width="2" points="806.63,-245.01 812.02,-239.92 804.63,-240.54 806.63,-245.01"/>
<text text-anchor="middle" x="730" y="-281.6" font-family="Times-Roman" font-size="8.00">uses</text>
</g>
<!-- L4YAML.Proofs.ScannerCoupling.advance_fuel_budget._proof_1_1 -->
<g id="node10" class="node">
<title>L4YAML.Proofs.ScannerCoupling.advance_fuel_budget._proof_1_1</title>
<g id="a_node10"><a xlink:href="../../../api/L4YAML/Proofs/Coupling/ScannerCoupling.html#L4YAML.Proofs.ScannerCoupling.advance_fuel_budget._proof_1_1" xlink:title="ScannerCoupling.advance_fuel_budget._proof_1_1" target="_blank">
<ellipse fill="#d4edda" stroke="#28a745" cx="592" cy="-223" rx="138.85" ry="18"/>
<text text-anchor="middle" x="592" y="-220.5" font-family="Helvetica" font-size="10.00">ScannerCoupling.advance_fuel_budget._proof_1_1</text>
</a>
</g>
</g>
<!-- L4YAML.Proofs.ScannerCoupling.advance_fuel_budget&#45;&gt;L4YAML.Proofs.ScannerCoupling.advance_fuel_budget._proof_1_1 -->
<g id="edge19" class="edge">
<title>L4YAML.Proofs.ScannerCoupling.advance_fuel_budget&#45;&gt;L4YAML.Proofs.ScannerCoupling.advance_fuel_budget._proof_1_1</title>
<path fill="none" stroke="#28a745" stroke-width="2" d="M592,-305.66C592,-288.95 592,-265.71 592,-248.29"/>
<polygon fill="#28a745" stroke="#28a745" stroke-width="2" points="594.45,-248.22 592,-241.22 589.55,-248.22 594.45,-248.22"/>
<text text-anchor="middle" x="602" y="-281.6" font-family="Times-Roman" font-size="8.00">uses</text>
</g>
<!-- L4YAML.Proofs.CouplingBridge.advance_inputEnd&#45;&gt;L4YAML.Scanner.ScannerState -->
<g id="edge16" class="edge">
<title>L4YAML.Proofs.CouplingBridge.advance_inputEnd&#45;&gt;L4YAML.Scanner.ScannerState</title>
<path fill="none" stroke="#6f42c1" stroke-width="2" stroke-dasharray="5,2" d="M713.51,-150.84C722.75,-133.29 732.65,-106.23 718,-89 681.85,-46.48 514.21,-37.36 432.3,-35.46"/>
<polygon fill="#6f42c1" stroke="#6f42c1" stroke-width="2" points="432.17,-33.01 425.12,-35.31 432.07,-37.91 432.17,-33.01"/>
<text text-anchor="middle" x="737.5" y="-113.1" font-family="Times-Roman" font-size="8.00" fill="#6f42c1">about</text>
</g>
<!-- L4YAML.Proofs.CouplingBridge.advance_offset_eq&#45;&gt;L4YAML.Scanner.ScannerState.input -->
<g id="edge9" class="edge">
<title>L4YAML.Proofs.CouplingBridge.advance_offset_eq&#45;&gt;L4YAML.Scanner.ScannerState.input</title>
<path fill="none" stroke="#6f42c1" stroke-width="2" stroke-dasharray="5,2" d="M778.35,-210.06C765.63,-208.15 752.44,-206.35 740,-205 706.14,-201.32 462.64,-205.44 434,-187 418.79,-177.21 429.58,-161.71 415,-151 379.31,-124.79 360.13,-143.05 317,-133 316.11,-132.79 315.21,-132.58 314.31,-132.36"/>
<polygon fill="#6f42c1" stroke="#6f42c1" stroke-width="2" points="314.71,-129.94 307.33,-130.63 313.53,-134.69 314.71,-129.94"/>
<text text-anchor="middle" x="446.5" y="-167.1" font-family="Times-Roman" font-size="8.00" fill="#6f42c1">about</text>
</g>
<!-- L4YAML.Proofs.CouplingBridge.advance_offset_eq&#45;&gt;L4YAML.Scanner.ScannerState -->
<g id="edge18" class="edge">
<title>L4YAML.Proofs.CouplingBridge.advance_offset_eq&#45;&gt;L4YAML.Scanner.ScannerState</title>
<path fill="none" stroke="#6f42c1" stroke-width="2" stroke-dasharray="5,2" d="M849.21,-204.67C851.76,-176.44 852.29,-120.5 822,-89 795.29,-61.22 538.42,-43.59 432.41,-37.44"/>
<polygon fill="#6f42c1" stroke="#6f42c1" stroke-width="2" points="432.47,-34.99 425.34,-37.04 432.19,-39.88 432.47,-34.99"/>
<text text-anchor="middle" x="856.5" y="-113.1" font-family="Times-Roman" font-size="8.00" fill="#6f42c1">about</text>
</g>
<!-- L4YAML.Proofs.CouplingBridge.advance_offset_eq&#45;&gt;L4YAML.Scanner.ScannerState.offset -->
<g id="edge12" class="edge">
<title>L4YAML.Proofs.CouplingBridge.advance_offset_eq&#45;&gt;L4YAML.Scanner.ScannerState.offset</title>
<path fill="none" stroke="#6f42c1" stroke-width="2" stroke-dasharray="5,2" d="M777.45,-210.25C765,-208.34 752.13,-206.51 740,-205 695.5,-199.48 578.37,-208.48 539,-187 521.21,-177.29 527.95,-162.12 511,-151 484.14,-133.38 472.08,-141.12 441,-133 439.25,-132.54 437.47,-132.08 435.67,-131.61"/>
<polygon fill="#6f42c1" stroke="#6f42c1" stroke-width="2" points="436.08,-129.18 428.69,-129.77 434.83,-133.92 436.08,-129.18"/>
<text text-anchor="middle" x="551.5" y="-167.1" font-family="Times-Roman" font-size="8.00" fill="#6f42c1">about</text>
</g>
<!-- L4YAML.Proofs.CouplingBridge.advance_offset_eq&#45;&gt;L4YAML.Scanner.ScannerState.inputEnd -->
<g id="edge4" class="edge">
<title>L4YAML.Proofs.CouplingBridge.advance_offset_eq&#45;&gt;L4YAML.Scanner.ScannerState.inputEnd</title>
<path fill="none" stroke="#6f42c1" stroke-width="2" stroke-dasharray="5,2" d="M778.94,-210.01C766.04,-208.07 752.63,-206.28 740,-205 695.52,-200.48 375.76,-210.94 338,-187 322.72,-177.31 333.76,-161.46 319,-151 274.64,-119.57 251.33,-143.61 198,-133 197.22,-132.85 196.44,-132.69 195.66,-132.53"/>
<polygon fill="#6f42c1" stroke="#6f42c1" stroke-width="2" points="195.88,-130.07 188.52,-131.02 194.86,-134.86 195.88,-130.07"/>
<text text-anchor="middle" x="350.5" y="-167.1" font-family="Times-Roman" font-size="8.00" fill="#6f42c1">about</text>
</g>
<!-- L4YAML.Proofs.CouplingBridge.advance_offset_eq&#45;&gt;L4YAML.Proofs.CouplingBridge.advance_offset_eq._proof_1_1 -->
<g id="edge6" class="edge">
<title>L4YAML.Proofs.CouplingBridge.advance_offset_eq&#45;&gt;L4YAML.Proofs.CouplingBridge.advance_offset_eq._proof_1_1</title>
<path fill="none" stroke="#28a745" stroke-width="2" d="M776.85,-210.37C764.58,-208.47 751.93,-206.61 740,-205 703.88,-200.14 601.31,-214.15 577,-187 565.79,-174.48 567.63,-155.19 571.82,-139.88"/>
<polygon fill="#28a745" stroke="#28a745" stroke-width="2" points="574.17,-140.57 573.87,-133.16 569.48,-139.14 574.17,-140.57"/>
<text text-anchor="middle" x="587" y="-167.1" font-family="Times-Roman" font-size="8.00">uses</text>
</g>
<!-- L4YAML.Proofs.ScannerCoupling.advance_fuel_budget._proof_1_1&#45;&gt;L4YAML.Scanner.ScannerState.input -->
<g id="edge20" class="edge">
<title>L4YAML.Proofs.ScannerCoupling.advance_fuel_budget._proof_1_1&#45;&gt;L4YAML.Scanner.ScannerState.input</title>
<path fill="none" stroke="#6f42c1" stroke-width="2" stroke-dasharray="5,2" d="M485.47,-211.37C445.71,-205.79 406.26,-197.82 390,-187 374.19,-176.49 382.06,-162.57 367,-151 362.3,-147.39 338.43,-139.63 314.12,-132.34"/>
<polygon fill="#6f42c1" stroke="#6f42c1" stroke-width="2" points="314.67,-129.95 307.26,-130.3 313.27,-134.64 314.67,-129.95"/>
<text text-anchor="middle" x="402.5" y="-167.1" font-family="Times-Roman" font-size="8.00" fill="#6f42c1">about</text>
</g>
<!-- L4YAML.Proofs.ScannerCoupling.advance_fuel_budget._proof_1_1&#45;&gt;L4YAML.Scanner.ScannerState -->
<g id="edge21" class="edge">
<title>L4YAML.Proofs.ScannerCoupling.advance_fuel_budget._proof_1_1&#45;&gt;L4YAML.Scanner.ScannerState</title>
<path fill="none" stroke="#6f42c1" stroke-width="2" stroke-dasharray="5,2" d="M694.34,-210.78C743.57,-204.33 793.57,-195.78 801,-187 811.34,-174.79 806.1,-166.17 801,-151 783.96,-100.3 763.6,-84.06 712,-70 614.73,-43.49 495.95,-36.92 432.36,-35.38"/>
<polygon fill="#6f42c1" stroke="#6f42c1" stroke-width="2" points="432.31,-32.93 425.25,-35.22 432.2,-37.83 432.31,-32.93"/>
<text text-anchor="middle" x="805.5" y="-113.1" font-family="Times-Roman" font-size="8.00" fill="#6f42c1">about</text>
</g>
<!-- L4YAML.Proofs.ScannerCoupling.advance_fuel_budget._proof_1_1&#45;&gt;L4YAML.Scanner.ScannerState.offset -->
<g id="edge23" class="edge">
<title>L4YAML.Proofs.ScannerCoupling.advance_fuel_budget._proof_1_1&#45;&gt;L4YAML.Scanner.ScannerState.offset</title>
<path fill="none" stroke="#6f42c1" stroke-width="2" stroke-dasharray="5,2" d="M524.07,-207.22C510.59,-202.26 497.17,-195.68 486,-187 471.01,-175.35 477.59,-163.15 463,-151 454.77,-144.15 445.02,-138.49 435.09,-133.88"/>
<polygon fill="#6f42c1" stroke="#6f42c1" stroke-width="2" points="435.95,-131.58 428.55,-130.99 433.97,-136.06 435.95,-131.58"/>
<text text-anchor="middle" x="498.5" y="-167.1" font-family="Times-Roman" font-size="8.00" fill="#6f42c1">about</text>
</g>
<!-- L4YAML.Proofs.ScannerCoupling.advance_fuel_budget._proof_1_1&#45;&gt;L4YAML.Scanner.ScannerState.inputEnd -->
<g id="edge22" class="edge">
<title>L4YAML.Proofs.ScannerCoupling.advance_fuel_budget._proof_1_1&#45;&gt;L4YAML.Scanner.ScannerState.inputEnd</title>
<path fill="none" stroke="#6f42c1" stroke-width="2" stroke-dasharray="5,2" d="M490.86,-210.63C405.28,-200.93 296.14,-188.34 294,-187 277.91,-176.92 286.43,-162.06 271,-151 243.84,-131.53 230.43,-141.05 198,-133 197.23,-132.81 196.46,-132.62 195.68,-132.42"/>
<polygon fill="#6f42c1" stroke="#6f42c1" stroke-width="2" points="195.99,-129.98 188.6,-130.66 194.8,-134.73 195.99,-129.98"/>
<text text-anchor="middle" x="306.5" y="-167.1" font-family="Times-Roman" font-size="8.00" fill="#6f42c1">about</text>
</g>
</g>
</svg>
