<?xml version="1.0" encoding="UTF-8" standalone="no"?>
<!DOCTYPE svg PUBLIC "-//W3C//DTD SVG 1.1//EN"
 "http://www.w3.org/Graphics/SVG/1.1/DTD/svg11.dtd">
<!-- Generated by graphviz version 2.44.0 (0)
 -->
<!-- Title: chain_ScanStrictCoupling.saveSimpleKey_peek Pages: 1 -->
<svg width="1271pt" height="324pt"
 viewBox="0.00 0.00 1271.00 324.00" xmlns="http://www.w3.org/2000/svg" xmlns:xlink="http://www.w3.org/1999/xlink">
<g id="graph0" class="graph" transform="scale(1 1) rotate(0) translate(4 320)">
<title>chain_ScanStrictCoupling.saveSimpleKey_peek</title>
<polygon fill="white" stroke="transparent" points="-4,4 -4,-320 1267,-320 1267,4 -4,4"/>
<text text-anchor="middle" x="631.5" y="-301.6" font-family="Helvetica Bold" font-size="13.00">Functorial Chains: ScanStrictCoupling.saveSimpleKey_peek</text>
<text text-anchor="middle" x="631.5" y="-287.6" font-family="Helvetica Bold" font-size="13.00">(heuristic: used by 6 proofs)</text>
<g id="clust1" class="cluster">
<title>cluster_fns</title>
<polygon fill="none" stroke="#4a90d9" stroke-dasharray="5,2" points="788,-8 788,-163 1255,-163 1255,-8 788,-8"/>
<text text-anchor="middle" x="1021.5" y="-148.6" font-family="Helvetica Bold" font-size="13.00" fill="#4a90d9">Functions (Call Chain)</text>
</g>
<g id="clust2" class="cluster">
<title>cluster_thms</title>
<polygon fill="none" stroke="#28a745" stroke-dasharray="5,2" points="8,-89 8,-272 780,-272 780,-89 8,-89"/>
<text text-anchor="middle" x="394" y="-257.6" font-family="Helvetica Bold" font-size="13.00" fill="#28a745">Theorems (Proof Chain)</text>
</g>
<!-- L4YAML.Scanner.ScannerState.input -->
<g id="node1" class="node">
<title>L4YAML.Scanner.ScannerState.input</title>
<g id="a_node1"><a xlink:href="../../../api/L4YAML/Scanner/State.html#L4YAML.Scanner.ScannerState.input" xlink:title="ScannerState.input" target="_blank">
<polygon fill="#dce9f7" stroke="#4a90d9" points="990,-52 890,-52 890,-16 990,-16 990,-52"/>
<text text-anchor="middle" x="940" y="-31.5" font-family="Helvetica" font-size="10.00">ScannerState.input</text>
</a>
</g>
</g>
<!-- L4YAML.Scanner.ScannerState.peek? -->
<g id="node2" class="node">
<title>L4YAML.Scanner.ScannerState.peek?</title>
<g id="a_node2"><a xlink:href="../../../api/L4YAML/Scanner/State.html#L4YAML.Scanner.ScannerState.peek?" xlink:title="ScannerState.peek?" target="_blank">
<polygon fill="#dce9f7" stroke="#4a90d9" points="955,-133 851,-133 851,-97 955,-97 955,-133"/>
<text text-anchor="middle" x="903" y="-112.5" font-family="Helvetica" font-size="10.00">ScannerState.peek?</text>
</a>
</g>
</g>
<!-- L4YAML.Scanner.ScannerState.peek?&#45;&gt;L4YAML.Scanner.ScannerState.input -->
<g id="edge19" class="edge">
<title>L4YAML.Scanner.ScannerState.peek?&#45;&gt;L4YAML.Scanner.ScannerState.input</title>
<path fill="none" stroke="#4a90d9" stroke-width="2" d="M911.03,-96.86C916.26,-85.68 923.17,-70.93 928.93,-58.64"/>
<polygon fill="#4a90d9" stroke="#4a90d9" stroke-width="2" points="931.24,-59.49 931.99,-52.11 926.8,-57.41 931.24,-59.49"/>
<text text-anchor="middle" x="931.5" y="-72.6" font-family="Times-Roman" font-size="8.00">calls</text>
</g>
<!-- L4YAML.Scanner.ScannerState -->
<g id="node3" class="node">
<title>L4YAML.Scanner.ScannerState</title>
<g id="a_node3"><a xlink:href="../../../api/L4YAML/Scanner/State.html#L4YAML.Scanner.ScannerState" xlink:title="ScannerState" target="_blank">
<polygon fill="#dce9f7" stroke="#4a90d9" points="872,-52 796,-52 796,-16 872,-16 872,-52"/>
<text text-anchor="middle" x="834" y="-31.5" font-family="Helvetica" font-size="10.00">ScannerState</text>
</a>
</g>
</g>
<!-- L4YAML.Scanner.ScannerState.peek?&#45;&gt;L4YAML.Scanner.ScannerState -->
<g id="edge17" class="edge">
<title>L4YAML.Scanner.ScannerState.peek?&#45;&gt;L4YAML.Scanner.ScannerState</title>
<path fill="none" stroke="#4a90d9" stroke-width="2" d="M872.01,-96.97C864.75,-91.91 857.53,-85.85 852,-79 847.26,-73.12 843.61,-65.83 840.87,-58.87"/>
<polygon fill="#4a90d9" stroke="#4a90d9" stroke-width="2" points="843.11,-57.86 838.44,-52.1 838.5,-59.52 843.11,-57.86"/>
<text text-anchor="middle" x="861.5" y="-72.6" font-family="Times-Roman" font-size="8.00">calls</text>
</g>
<!-- L4YAML.Scanner.ScannerState.offset -->
<g id="node4" class="node">
<title>L4YAML.Scanner.ScannerState.offset</title>
<g id="a_node4"><a xlink:href="../../../api/L4YAML/Scanner/State.html#L4YAML.Scanner.ScannerState.offset" xlink:title="ScannerState.offset" target="_blank">
<polygon fill="#dce9f7" stroke="#4a90d9" points="1246.5,-52 1143.5,-52 1143.5,-16 1246.5,-16 1246.5,-52"/>
<text text-anchor="middle" x="1195" y="-31.5" font-family="Helvetica" font-size="10.00">ScannerState.offset</text>
</a>
</g>
</g>
<!-- L4YAML.Scanner.ScannerState.peek?&#45;&gt;L4YAML.Scanner.ScannerState.offset -->
<g id="edge2" class="edge">
<title>L4YAML.Scanner.ScannerState.peek?&#45;&gt;L4YAML.Scanner.ScannerState.offset</title>
<path fill="none" stroke="#4a90d9" stroke-width="2" d="M940.46,-96.88C948.42,-93.81 956.88,-90.97 965,-89 1011.41,-77.73 1025.37,-89.35 1072,-79 1098,-73.23 1126.02,-63.5 1148.74,-54.65"/>
<polygon fill="#4a90d9" stroke="#4a90d9" stroke-width="2" points="1149.7,-56.91 1155.31,-52.06 1147.9,-52.35 1149.7,-56.91"/>
<text text-anchor="middle" x="1112.5" y="-72.6" font-family="Times-Roman" font-size="8.00">calls</text>
</g>
<!-- L4YAML.Scanner.ScannerState.inputEnd -->
<g id="node5" class="node">
<title>L4YAML.Scanner.ScannerState.inputEnd</title>
<g id="a_node5"><a xlink:href="../../../api/L4YAML/Scanner/State.html#L4YAML.Scanner.ScannerState.inputEnd" xlink:title="ScannerState.inputEnd" target="_blank">
<polygon fill="#dce9f7" stroke="#4a90d9" points="1125.5,-52 1008.5,-52 1008.5,-16 1125.5,-16 1125.5,-52"/>
<text text-anchor="middle" x="1067" y="-31.5" font-family="Helvetica" font-size="10.00">ScannerState.inputEnd</text>
</a>
</g>
</g>
<!-- L4YAML.Scanner.ScannerState.peek?&#45;&gt;L4YAML.Scanner.ScannerState.inputEnd -->
<g id="edge18" class="edge">
<title>L4YAML.Scanner.ScannerState.peek?&#45;&gt;L4YAML.Scanner.ScannerState.inputEnd</title>
<path fill="none" stroke="#4a90d9" stroke-width="2" d="M943.43,-96.89C950.56,-94.11 957.96,-91.36 965,-89 981.15,-83.58 986.51,-86.09 1002,-79 1015.07,-73.01 1028.4,-64.49 1039.56,-56.54"/>
<polygon fill="#4a90d9" stroke="#4a90d9" stroke-width="2" points="1041.31,-58.3 1045.52,-52.2 1038.42,-54.34 1041.31,-58.3"/>
<text text-anchor="middle" x="1026.5" y="-72.6" font-family="Times-Roman" font-size="8.00">calls</text>
</g>
<!-- L4YAML.Scanner.saveSimpleKey -->
<g id="node6" class="node">
<title>L4YAML.Scanner.saveSimpleKey</title>
<g id="a_node6"><a xlink:href="../../../api/L4YAML/Scanner/SimpleKey.html#L4YAML.Scanner.saveSimpleKey" xlink:title="saveSimpleKey" target="_blank">
<polygon fill="#dce9f7" stroke="#4a90d9" points="1056.5,-133 973.5,-133 973.5,-97 1056.5,-97 1056.5,-133"/>
<text text-anchor="middle" x="1015" y="-112.5" font-family="Helvetica" font-size="10.00">saveSimpleKey</text>
</a>
</g>
</g>
<!-- L4YAML.Scanner.saveSimpleKey&#45;&gt;L4YAML.Scanner.ScannerState.input -->
<g id="edge11" class="edge">
<title>L4YAML.Scanner.saveSimpleKey&#45;&gt;L4YAML.Scanner.ScannerState.input</title>
<path fill="none" stroke="#4a90d9" stroke-width="2" d="M998.73,-96.86C987.72,-85.26 973.07,-69.84 961.16,-57.29"/>
<polygon fill="#4a90d9" stroke="#4a90d9" stroke-width="2" points="962.84,-55.5 956.24,-52.11 959.28,-58.87 962.84,-55.5"/>
<text text-anchor="middle" x="988.5" y="-72.6" font-family="Times-Roman" font-size="8.00">calls</text>
</g>
<!-- L4YAML.Scanner.saveSimpleKey&#45;&gt;L4YAML.Scanner.ScannerState -->
<g id="edge6" class="edge">
<title>L4YAML.Scanner.saveSimpleKey&#45;&gt;L4YAML.Scanner.ScannerState</title>
<path fill="none" stroke="#4a90d9" stroke-width="2" d="M984.07,-96.96C977.58,-93.93 970.68,-91.08 964,-89 935.25,-80.05 924.97,-90.14 897,-79 883.51,-73.63 870.1,-64.87 859.15,-56.58"/>
<polygon fill="#4a90d9" stroke="#4a90d9" stroke-width="2" points="860.35,-54.41 853.33,-52.04 857.34,-58.28 860.35,-54.41"/>
<text text-anchor="middle" x="906.5" y="-72.6" font-family="Times-Roman" font-size="8.00">calls</text>
</g>
<!-- L4YAML.Scanner.saveSimpleKey&#45;&gt;L4YAML.Scanner.ScannerState.offset -->
<g id="edge16" class="edge">
<title>L4YAML.Scanner.saveSimpleKey&#45;&gt;L4YAML.Scanner.ScannerState.offset</title>
<path fill="none" stroke="#4a90d9" stroke-width="2" d="M1056.54,-109.61C1085.2,-105.15 1123.33,-96.32 1153,-79 1162.16,-73.65 1170.59,-65.73 1177.46,-58.08"/>
<polygon fill="#4a90d9" stroke="#4a90d9" stroke-width="2" points="1179.7,-59.23 1182.4,-52.32 1175.98,-56.04 1179.7,-59.23"/>
<text text-anchor="middle" x="1174.5" y="-72.6" font-family="Times-Roman" font-size="8.00">calls</text>
</g>
<!-- L4YAML.Scanner.saveSimpleKey&#45;&gt;L4YAML.Scanner.ScannerState.inputEnd -->
<g id="edge9" class="edge">
<title>L4YAML.Scanner.saveSimpleKey&#45;&gt;L4YAML.Scanner.ScannerState.inputEnd</title>
<path fill="none" stroke="#4a90d9" stroke-width="2" d="M1030.51,-96.76C1035.1,-91.27 1039.98,-85.05 1044,-79 1048.22,-72.65 1052.28,-65.43 1055.77,-58.7"/>
<polygon fill="#4a90d9" stroke="#4a90d9" stroke-width="2" points="1058.09,-59.54 1059.06,-52.19 1053.72,-57.33 1058.09,-59.54"/>
<text text-anchor="middle" x="1058.5" y="-72.6" font-family="Times-Roman" font-size="8.00">calls</text>
</g>
<!-- L4YAML.Proofs.ScanStrictCoupling.saveSimpleKey_inputEnd -->
<g id="node7" class="node">
<title>L4YAML.Proofs.ScanStrictCoupling.saveSimpleKey_inputEnd</title>
<g id="a_node7"><a xlink:href="../../../api/L4YAML/Proofs/Scanner/ScanStrictCoupling.html#L4YAML.Proofs.ScanStrictCoupling.saveSimpleKey_inputEnd" xlink:title="ScanStrictCoupling.saveSimpleKey_inputEnd" target="_blank">
<ellipse fill="#d4edda" stroke="#28a745" cx="392" cy="-115" rx="125.95" ry="18"/>
<text text-anchor="middle" x="392" y="-112.5" font-family="Helvetica" font-size="10.00">ScanStrictCoupling.saveSimpleKey_inputEnd</text>
</a>
</g>
</g>
<!-- L4YAML.Proofs.ScanStrictCoupling.saveSimpleKey_inputEnd&#45;&gt;L4YAML.Scanner.ScannerState -->
<g id="edge8" class="edge">
<title>L4YAML.Proofs.ScanStrictCoupling.saveSimpleKey_inputEnd&#45;&gt;L4YAML.Scanner.ScannerState</title>
<path fill="none" stroke="#6f42c1" stroke-width="2" stroke-dasharray="5,2" d="M462.07,-100.03C507.35,-91.13 567.59,-79.52 621,-70 678.84,-59.69 745.72,-48.88 788.87,-42.05"/>
<polygon fill="#6f42c1" stroke="#6f42c1" stroke-width="2" points="789.32,-44.46 795.86,-40.95 788.56,-39.62 789.32,-44.46"/>
<text text-anchor="middle" x="633.5" y="-72.6" font-family="Times-Roman" font-size="8.00" fill="#6f42c1">about</text>
</g>
<!-- L4YAML.Proofs.ScanStrictCoupling.saveSimpleKey_inputEnd&#45;&gt;L4YAML.Scanner.ScannerState.inputEnd -->
<g id="edge10" class="edge">
<title>L4YAML.Proofs.ScanStrictCoupling.saveSimpleKey_inputEnd&#45;&gt;L4YAML.Scanner.ScannerState.inputEnd</title>
<path fill="none" stroke="#6f42c1" stroke-width="2" stroke-dasharray="5,2" d="M459.37,-99.7C480.89,-95.62 504.86,-91.59 527,-89 615.84,-78.61 641.04,-99.94 728,-79 737.48,-76.72 738.55,-72.39 748,-70 856.44,-42.63 888.56,-69.63 999,-52 999.75,-51.88 1000.51,-51.76 1001.26,-51.63"/>
<polygon fill="#6f42c1" stroke="#6f42c1" stroke-width="2" points="1001.71,-54.04 1008.16,-50.37 1000.83,-49.22 1001.71,-54.04"/>
<text text-anchor="middle" x="760.5" y="-72.6" font-family="Times-Roman" font-size="8.00" fill="#6f42c1">about</text>
</g>
<!-- L4YAML.Proofs.ScanStrictCoupling.saveSimpleKey_offset -->
<g id="node8" class="node">
<title>L4YAML.Proofs.ScanStrictCoupling.saveSimpleKey_offset</title>
<g id="a_node8"><a xlink:href="../../../api/L4YAML/Proofs/Scanner/ScanStrictCoupling.html#L4YAML.Proofs.ScanStrictCoupling.saveSimpleKey_offset" xlink:title="ScanStrictCoupling.saveSimpleKey_offset" target="_blank">
<ellipse fill="#d4edda" stroke="#28a745" cx="654" cy="-115" rx="117.97" ry="18"/>
<text text-anchor="middle" x="654" y="-112.5" font-family="Helvetica" font-size="10.00">ScanStrictCoupling.saveSimpleKey_offset</text>
</a>
</g>
</g>
<!-- L4YAML.Proofs.ScanStrictCoupling.saveSimpleKey_offset&#45;&gt;L4YAML.Scanner.ScannerState -->
<g id="edge15" class="edge">
<title>L4YAML.Proofs.ScanStrictCoupling.saveSimpleKey_offset&#45;&gt;L4YAML.Scanner.ScannerState</title>
<path fill="none" stroke="#6f42c1" stroke-width="2" stroke-dasharray="5,2" d="M649.65,-96.75C648.47,-87.79 648.89,-77.25 655,-70 671.84,-50.02 741.35,-41.26 788.63,-37.55"/>
<polygon fill="#6f42c1" stroke="#6f42c1" stroke-width="2" points="788.93,-39.98 795.73,-37.02 788.56,-35.1 788.93,-39.98"/>
<text text-anchor="middle" x="667.5" y="-72.6" font-family="Times-Roman" font-size="8.00" fill="#6f42c1">about</text>
</g>
<!-- L4YAML.Proofs.ScanStrictCoupling.saveSimpleKey_offset&#45;&gt;L4YAML.Scanner.ScannerState.offset -->
<g id="edge4" class="edge">
<title>L4YAML.Proofs.ScanStrictCoupling.saveSimpleKey_offset&#45;&gt;L4YAML.Scanner.ScannerState.offset</title>
<path fill="none" stroke="#6f42c1" stroke-width="2" stroke-dasharray="5,2" d="M705.92,-98.73C745.14,-87.43 795.73,-73.43 817,-70 956.75,-47.43 995.39,-75.44 1135,-52 1135.52,-51.91 1136.04,-51.82 1136.57,-51.73"/>
<polygon fill="#6f42c1" stroke="#6f42c1" stroke-width="2" points="1137.05,-54.13 1143.45,-50.38 1136.11,-49.32 1137.05,-54.13"/>
<text text-anchor="middle" x="829.5" y="-72.6" font-family="Times-Roman" font-size="8.00" fill="#6f42c1">about</text>
</g>
<!-- L4YAML.Proofs.ScanStrictCoupling.saveSimpleKey_peek -->
<g id="node9" class="node">
<title>L4YAML.Proofs.ScanStrictCoupling.saveSimpleKey_peek</title>
<g id="a_node9"><a xlink:href="../../../api/L4YAML/Proofs/Scanner/ScanStrictCoupling.html#L4YAML.Proofs.ScanStrictCoupling.saveSimpleKey_peek" xlink:title="ScanStrictCoupling.saveSimpleKey_peek" target="_blank">
<polygon fill="#fff3cd" stroke="#d4a017" points="767.54,-212.54 767.54,-227.46 694,-238 590,-238 516.46,-227.46 516.46,-212.54 590,-202 694,-202 767.54,-212.54"/>
<polygon fill="none" stroke="#d4a017" points="771.54,-209.08 771.54,-230.92 694.29,-242 589.71,-242 512.46,-230.92 512.46,-209.08 589.71,-198 694.29,-198 771.54,-209.08"/>
<text text-anchor="middle" x="642" y="-217.5" font-family="Helvetica" font-size="10.00">ScanStrictCoupling.saveSimpleKey_peek</text>
</a>
</g>
</g>
<!-- L4YAML.Proofs.ScanStrictCoupling.saveSimpleKey_peek&#45;&gt;L4YAML.Scanner.ScannerState.peek? -->
<g id="edge1" class="edge">
<title>L4YAML.Proofs.ScanStrictCoupling.saveSimpleKey_peek&#45;&gt;L4YAML.Scanner.ScannerState.peek?</title>
<path fill="none" stroke="#6f42c1" stroke-width="2" stroke-dasharray="5,2" d="M695.27,-198C721.92,-187.49 754.67,-174.58 784,-163 806.65,-154.06 831.73,-144.16 853,-135.76"/>
<polygon fill="#6f42c1" stroke="#6f42c1" stroke-width="2" points="854.15,-137.93 859.76,-133.08 852.35,-133.38 854.15,-137.93"/>
<text text-anchor="middle" x="772.5" y="-173.6" font-family="Times-Roman" font-size="8.00" fill="#6f42c1">about</text>
</g>
<!-- L4YAML.Proofs.ScanStrictCoupling.saveSimpleKey_peek&#45;&gt;L4YAML.Scanner.saveSimpleKey -->
<g id="edge5" class="edge">
<title>L4YAML.Proofs.ScanStrictCoupling.saveSimpleKey_peek&#45;&gt;L4YAML.Scanner.saveSimpleKey</title>
<path fill="none" stroke="#6f42c1" stroke-width="2" stroke-dasharray="5,2" d="M771.83,-213.29C832.71,-206.48 904.72,-192.25 964,-163 975.91,-157.12 987.03,-147.58 995.83,-138.62"/>
<polygon fill="#6f42c1" stroke="#6f42c1" stroke-width="2" points="997.69,-140.22 1000.73,-133.45 994.13,-136.85 997.69,-140.22"/>
<text text-anchor="middle" x="951.5" y="-173.6" font-family="Times-Roman" font-size="8.00" fill="#6f42c1">about</text>
</g>
<!-- L4YAML.Proofs.ScanStrictCoupling.saveSimpleKey_peek&#45;&gt;L4YAML.Proofs.ScanStrictCoupling.saveSimpleKey_inputEnd -->
<g id="edge7" class="edge">
<title>L4YAML.Proofs.ScanStrictCoupling.saveSimpleKey_peek&#45;&gt;L4YAML.Proofs.ScanStrictCoupling.saveSimpleKey_inputEnd</title>
<path fill="none" stroke="#28a745" stroke-width="2" d="M590.81,-197.91C545.83,-179.38 480.99,-152.67 437.73,-134.84"/>
<polygon fill="#28a745" stroke="#28a745" stroke-width="2" points="438.65,-132.57 431.24,-132.17 436.78,-137.1 438.65,-132.57"/>
<text text-anchor="middle" x="556" y="-173.6" font-family="Times-Roman" font-size="8.00">uses</text>
</g>
<!-- L4YAML.Proofs.ScanStrictCoupling.saveSimpleKey_peek&#45;&gt;L4YAML.Proofs.ScanStrictCoupling.saveSimpleKey_offset -->
<g id="edge3" class="edge">
<title>L4YAML.Proofs.ScanStrictCoupling.saveSimpleKey_peek&#45;&gt;L4YAML.Proofs.ScanStrictCoupling.saveSimpleKey_offset</title>
<path fill="none" stroke="#28a745" stroke-width="2" d="M644.49,-197.66C646.43,-180.95 649.14,-157.71 651.17,-140.29"/>
<polygon fill="#28a745" stroke="#28a745" stroke-width="2" points="653.62,-140.46 651.99,-133.22 648.75,-139.89 653.62,-140.46"/>
<text text-anchor="middle" x="657" y="-173.6" font-family="Times-Roman" font-size="8.00">uses</text>
</g>
<!-- L4YAML.Proofs.ScanStrictCoupling.saveSimpleKey_input -->
<g id="node10" class="node">
<title>L4YAML.Proofs.ScanStrictCoupling.saveSimpleKey_input</title>
<g id="a_node10"><a xlink:href="../../../api/L4YAML/Proofs/Scanner/ScanStrictCoupling.html#L4YAML.Proofs.ScanStrictCoupling.saveSimpleKey_input" xlink:title="ScanStrictCoupling.saveSimpleKey_input" target="_blank">
<ellipse fill="#d4edda" stroke="#28a745" cx="132" cy="-115" rx="115.93" ry="18"/>
<text text-anchor="middle" x="132" y="-112.5" font-family="Helvetica" font-size="10.00">ScanStrictCoupling.saveSimpleKey_input</text>
</a>
</g>
</g>
<!-- L4YAML.Proofs.ScanStrictCoupling.saveSimpleKey_peek&#45;&gt;L4YAML.Proofs.ScanStrictCoupling.saveSimpleKey_input -->
<g id="edge12" class="edge">
<title>L4YAML.Proofs.ScanStrictCoupling.saveSimpleKey_peek&#45;&gt;L4YAML.Proofs.ScanStrictCoupling.saveSimpleKey_input</title>
<path fill="none" stroke="#28a745" stroke-width="2" d="M519.73,-208.01C443.38,-199.48 343.5,-185.28 257,-163 229.09,-155.81 198.81,-144.52 175.04,-134.81"/>
<polygon fill="#28a745" stroke="#28a745" stroke-width="2" points="175.93,-132.52 168.52,-132.12 174.06,-137.05 175.93,-132.52"/>
<text text-anchor="middle" x="339" y="-173.6" font-family="Times-Roman" font-size="8.00">uses</text>
</g>
<!-- L4YAML.Proofs.ScanStrictCoupling.saveSimpleKey_input&#45;&gt;L4YAML.Scanner.ScannerState.input -->
<g id="edge13" class="edge">
<title>L4YAML.Proofs.ScanStrictCoupling.saveSimpleKey_input&#45;&gt;L4YAML.Scanner.ScannerState.input</title>
<path fill="none" stroke="#6f42c1" stroke-width="2" stroke-dasharray="5,2" d="M192.7,-99.66C213.03,-95.44 235.88,-91.34 257,-89 350.45,-78.63 588.51,-100.71 680,-79 689.09,-76.84 690,-72.5 699,-70 777.33,-48.28 801.17,-67.32 881,-52 881.64,-51.88 882.29,-51.75 882.93,-51.62"/>
<polygon fill="#6f42c1" stroke="#6f42c1" stroke-width="2" points="883.62,-53.98 889.94,-50.1 882.58,-49.19 883.62,-53.98"/>
<text text-anchor="middle" x="711.5" y="-72.6" font-family="Times-Roman" font-size="8.00" fill="#6f42c1">about</text>
</g>
<!-- L4YAML.Proofs.ScanStrictCoupling.saveSimpleKey_input&#45;&gt;L4YAML.Scanner.ScannerState -->
<g id="edge14" class="edge">
<title>L4YAML.Proofs.ScanStrictCoupling.saveSimpleKey_input&#45;&gt;L4YAML.Scanner.ScannerState</title>
<path fill="none" stroke="#6f42c1" stroke-width="2" stroke-dasharray="5,2" d="M195.69,-99.93C215.28,-95.96 236.96,-91.93 257,-89 453.91,-60.17 691,-43.66 788.62,-37.63"/>
<polygon fill="#6f42c1" stroke="#6f42c1" stroke-width="2" points="788.85,-40.08 795.69,-37.2 788.55,-35.18 788.85,-40.08"/>
<text text-anchor="middle" x="410.5" y="-72.6" font-family="Times-Roman" font-size="8.00" fill="#6f42c1">about</text>
</g>
</g>
</svg>
