<?xml version="1.0" encoding="UTF-8" standalone="no"?>
<!DOCTYPE svg PUBLIC "-//W3C//DTD SVG 1.1//EN"
 "http://www.w3.org/Graphics/SVG/1.1/DTD/svg11.dtd">
<!-- Generated by graphviz version 2.44.0 (0)
 -->
<!-- Title: ScanStrictCoupling.unwindIndentsLoop_offset Pages: 1 -->
<svg width="810pt" height="1658pt"
 viewBox="0.00 0.00 809.90 1658.00" xmlns="http://www.w3.org/2000/svg" xmlns:xlink="http://www.w3.org/1999/xlink">
<g id="graph0" class="graph" transform="scale(1 1) rotate(0) translate(4 1654)">
<title>ScanStrictCoupling.unwindIndentsLoop_offset</title>
<polygon fill="white" stroke="transparent" points="-4,4 -4,-1654 805.9,-1654 805.9,4 -4,4"/>
<text text-anchor="middle" x="400.95" y="-1635.6" font-family="Helvetica Bold" font-size="13.00">ScanStrictCoupling.unwindIndentsLoop_offset</text>
<text text-anchor="middle" x="400.95" y="-1621.6" font-family="Helvetica Bold" font-size="13.00">(heuristic: used by 6 proofs)</text>
<text text-anchor="middle" x="400.95" y="-1607.6" font-family="Helvetica Bold" font-size="13.00">(L4YAML.Proofs.Scanner.ScanStrictCoupling)</text>
<g id="clust1" class="cluster">
<title>cluster_functions</title>
<polygon fill="none" stroke="#4a90d9" stroke-dasharray="5,2" points="347.5,-222 347.5,-1592 793.9,-1592 793.9,-222 347.5,-222"/>
<text text-anchor="middle" x="570.7" y="-1577.6" font-family="Helvetica Bold" font-size="13.00" fill="#4a90d9">Functions</text>
</g>
<g id="clust2" class="cluster">
<title>cluster_key</title>
<polygon fill="none" stroke="#d4a017" stroke-dasharray="5,2" points="254.09,-8 254.09,-90 629.9,-90 629.9,-8 254.09,-8"/>
<text text-anchor="middle" x="442" y="-75.6" font-family="Helvetica Bold" font-size="13.00" fill="#d4a017">Key Theorem</text>
</g>
<g id="clust3" class="cluster">
<title>cluster_proofs</title>
<polygon fill="none" stroke="#28a745" stroke-dasharray="5,2" points="8,-759 8,-839 212.09,-839 212.09,-759 8,-759"/>
<text text-anchor="middle" x="110.05" y="-824.6" font-family="Helvetica Bold" font-size="13.00" fill="#28a745">Proof Dependencies</text>
</g>
<!-- L4YAML.Scanner.ScannerState.line -->
<g id="node1" class="node">
<title>L4YAML.Scanner.ScannerState.line</title>
<g id="a_node1"><a xlink:href="../../../api/L4YAML/Scanner/State.html#L4YAML.Scanner.ScannerState.line" xlink:title="ScannerState.line\n(def)" target="_blank">
<polygon fill="#dce9f7" stroke="#4a90d9" points="489,-1562 395,-1562 395,-1526 489,-1526 489,-1562"/>
<text text-anchor="middle" x="442" y="-1547" font-family="Helvetica" font-size="10.00">ScannerState.line</text>
<text text-anchor="middle" x="442" y="-1536" font-family="Helvetica" font-size="10.00">(def)</text>
</a>
</g>
</g>
<!-- L4YAML.Scanner.ScannerState.flowLevel -->
<g id="node2" class="node">
<title>L4YAML.Scanner.ScannerState.flowLevel</title>
<g id="a_node2"><a xlink:href="../../../api/L4YAML/Scanner/State.html#L4YAML.Scanner.ScannerState.flowLevel" xlink:title="ScannerState.flowLevel\n(def)" target="_blank">
<polygon fill="#dce9f7" stroke="#4a90d9" points="501.5,-1508 382.5,-1508 382.5,-1472 501.5,-1472 501.5,-1508"/>
<text text-anchor="middle" x="442" y="-1493" font-family="Helvetica" font-size="10.00">ScannerState.flowLevel</text>
<text text-anchor="middle" x="442" y="-1482" font-family="Helvetica" font-size="10.00">(def)</text>
</a>
</g>
</g>
<!-- L4YAML.Scanner.ScannerState.documentEverStarted -->
<g id="node3" class="node">
<title>L4YAML.Scanner.ScannerState.documentEverStarted</title>
<g id="a_node3"><a xlink:href="../../../api/L4YAML/Scanner/State.html#L4YAML.Scanner.ScannerState.documentEverStarted" xlink:title="ScannerState.documentEverStarted\n(def)" target="_blank">
<polygon fill="#dce9f7" stroke="#4a90d9" points="528.5,-1454 355.5,-1454 355.5,-1418 528.5,-1418 528.5,-1454"/>
<text text-anchor="middle" x="442" y="-1439" font-family="Helvetica" font-size="10.00">ScannerState.documentEverStarted</text>
<text text-anchor="middle" x="442" y="-1428" font-family="Helvetica" font-size="10.00">(def)</text>
</a>
</g>
</g>
<!-- L4YAML.Scanner.ScannerState.simpleKeyAllowed -->
<g id="node4" class="node">
<title>L4YAML.Scanner.ScannerState.simpleKeyAllowed</title>
<g id="a_node4"><a xlink:href="../../../api/L4YAML/Scanner/State.html#L4YAML.Scanner.ScannerState.simpleKeyAllowed" xlink:title="ScannerState.simpleKeyAllowed\n(def)" target="_blank">
<polygon fill="#dce9f7" stroke="#4a90d9" points="521,-1400 363,-1400 363,-1364 521,-1364 521,-1400"/>
<text text-anchor="middle" x="442" y="-1385" font-family="Helvetica" font-size="10.00">ScannerState.simpleKeyAllowed</text>
<text text-anchor="middle" x="442" y="-1374" font-family="Helvetica" font-size="10.00">(def)</text>
</a>
</g>
</g>
<!-- L4YAML.Scanner.ScannerState.currentIndent -->
<g id="node5" class="node">
<title>L4YAML.Scanner.ScannerState.currentIndent</title>
<g id="a_node5"><a xlink:href="../../../api/L4YAML/Scanner/State.html#L4YAML.Scanner.ScannerState.currentIndent" xlink:title="ScannerState.currentIndent\n(def)" target="_blank">
<polygon fill="#dce9f7" stroke="#4a90d9" points="510,-1346 374,-1346 374,-1310 510,-1310 510,-1346"/>
<text text-anchor="middle" x="442" y="-1331" font-family="Helvetica" font-size="10.00">ScannerState.currentIndent</text>
<text text-anchor="middle" x="442" y="-1320" font-family="Helvetica" font-size="10.00">(def)</text>
</a>
</g>
</g>
<!-- L4YAML.YamlToken.blockEnd -->
<g id="node6" class="node">
<title>L4YAML.YamlToken.blockEnd</title>
<g id="a_node6"><a xlink:href="../../../api/L4YAML/Token/Token.html#L4YAML.YamlToken.blockEnd" xlink:title="YamlToken.blockEnd\n(ctor)" target="_blank">
<polygon fill="#dce9f7" stroke="#4a90d9" points="495.5,-1292 388.5,-1292 388.5,-1256 495.5,-1256 495.5,-1292"/>
<text text-anchor="middle" x="442" y="-1277" font-family="Helvetica" font-size="10.00">YamlToken.blockEnd</text>
<text text-anchor="middle" x="442" y="-1266" font-family="Helvetica" font-size="10.00">(ctor)</text>
</a>
</g>
</g>
<!-- L4YAML.Scanner.ScannerState.tokens -->
<g id="node7" class="node">
<title>L4YAML.Scanner.ScannerState.tokens</title>
<g id="a_node7"><a xlink:href="../../../api/L4YAML/Scanner/State.html#L4YAML.Scanner.ScannerState.tokens" xlink:title="ScannerState.tokens\n(def)" target="_blank">
<polygon fill="#dce9f7" stroke="#4a90d9" points="495.5,-1238 388.5,-1238 388.5,-1202 495.5,-1202 495.5,-1238"/>
<text text-anchor="middle" x="442" y="-1223" font-family="Helvetica" font-size="10.00">ScannerState.tokens</text>
<text text-anchor="middle" x="442" y="-1212" font-family="Helvetica" font-size="10.00">(def)</text>
</a>
</g>
</g>
<!-- L4YAML.Scanner.unwindIndentsLoop -->
<g id="node8" class="node">
<title>L4YAML.Scanner.unwindIndentsLoop</title>
<g id="a_node8"><a xlink:href="../../../api/L4YAML/Scanner/Indent.html#L4YAML.Scanner.unwindIndentsLoop" xlink:title="unwindIndentsLoop\n(def)" target="_blank">
<polygon fill="#dce9f7" stroke="#4a90d9" points="784.9,-374 683.9,-374 683.9,-338 784.9,-338 784.9,-374"/>
<text text-anchor="middle" x="734.4" y="-359" font-family="Helvetica" font-size="10.00">unwindIndentsLoop</text>
<text text-anchor="middle" x="734.4" y="-348" font-family="Helvetica" font-size="10.00">(def)</text>
</a>
</g>
</g>
<!-- L4YAML.Scanner.ScannerState.comments -->
<g id="node9" class="node">
<title>L4YAML.Scanner.ScannerState.comments</title>
<g id="a_node9"><a xlink:href="../../../api/L4YAML/Scanner/State.html#L4YAML.Scanner.ScannerState.comments" xlink:title="ScannerState.comments\n(def)" target="_blank">
<polygon fill="#dce9f7" stroke="#4a90d9" points="504.5,-1184 379.5,-1184 379.5,-1148 504.5,-1148 504.5,-1184"/>
<text text-anchor="middle" x="442" y="-1169" font-family="Helvetica" font-size="10.00">ScannerState.comments</text>
<text text-anchor="middle" x="442" y="-1158" font-family="Helvetica" font-size="10.00">(def)</text>
</a>
</g>
</g>
<!-- L4YAML.Scanner.ScannerState.allowDirectives -->
<g id="node10" class="node">
<title>L4YAML.Scanner.ScannerState.allowDirectives</title>
<g id="a_node10"><a xlink:href="../../../api/L4YAML/Scanner/State.html#L4YAML.Scanner.ScannerState.allowDirectives" xlink:title="ScannerState.allowDirectives\n(def)" target="_blank">
<polygon fill="#dce9f7" stroke="#4a90d9" points="514.5,-1130 369.5,-1130 369.5,-1094 514.5,-1094 514.5,-1130"/>
<text text-anchor="middle" x="442" y="-1115" font-family="Helvetica" font-size="10.00">ScannerState.allowDirectives</text>
<text text-anchor="middle" x="442" y="-1104" font-family="Helvetica" font-size="10.00">(def)</text>
</a>
</g>
</g>
<!-- L4YAML.Scanner.ScannerState.flowStack -->
<g id="node11" class="node">
<title>L4YAML.Scanner.ScannerState.flowStack</title>
<g id="a_node11"><a xlink:href="../../../api/L4YAML/Scanner/State.html#L4YAML.Scanner.ScannerState.flowStack" xlink:title="ScannerState.flowStack\n(def)" target="_blank">
<polygon fill="#dce9f7" stroke="#4a90d9" points="503,-1076 381,-1076 381,-1040 503,-1040 503,-1076"/>
<text text-anchor="middle" x="442" y="-1061" font-family="Helvetica" font-size="10.00">ScannerState.flowStack</text>
<text text-anchor="middle" x="442" y="-1050" font-family="Helvetica" font-size="10.00">(def)</text>
</a>
</g>
</g>
<!-- L4YAML.Scanner.ScannerState.inputEnd -->
<g id="node12" class="node">
<title>L4YAML.Scanner.ScannerState.inputEnd</title>
<g id="a_node12"><a xlink:href="../../../api/L4YAML/Scanner/State.html#L4YAML.Scanner.ScannerState.inputEnd" xlink:title="ScannerState.inputEnd\n(def)" target="_blank">
<polygon fill="#dce9f7" stroke="#4a90d9" points="500.5,-1022 383.5,-1022 383.5,-986 500.5,-986 500.5,-1022"/>
<text text-anchor="middle" x="442" y="-1007" font-family="Helvetica" font-size="10.00">ScannerState.inputEnd</text>
<text text-anchor="middle" x="442" y="-996" font-family="Helvetica" font-size="10.00">(def)</text>
</a>
</g>
</g>
<!-- L4YAML.Scanner.ScannerState.simpleKey -->
<g id="node13" class="node">
<title>L4YAML.Scanner.ScannerState.simpleKey</title>
<g id="a_node13"><a xlink:href="../../../api/L4YAML/Scanner/State.html#L4YAML.Scanner.ScannerState.simpleKey" xlink:title="ScannerState.simpleKey\n(def)" target="_blank">
<polygon fill="#dce9f7" stroke="#4a90d9" points="504,-968 380,-968 380,-932 504,-932 504,-968"/>
<text text-anchor="middle" x="442" y="-953" font-family="Helvetica" font-size="10.00">ScannerState.simpleKey</text>
<text text-anchor="middle" x="442" y="-942" font-family="Helvetica" font-size="10.00">(def)</text>
</a>
</g>
</g>
<!-- L4YAML.Scanner.ScannerState.emit -->
<g id="node14" class="node">
<title>L4YAML.Scanner.ScannerState.emit</title>
<g id="a_node14"><a xlink:href="../../../api/L4YAML/Scanner/State.html#L4YAML.Scanner.ScannerState.emit" xlink:title="ScannerState.emit\n(def)" target="_blank">
<polygon fill="#dce9f7" stroke="#4a90d9" points="491,-914 393,-914 393,-878 491,-878 491,-914"/>
<text text-anchor="middle" x="442" y="-899" font-family="Helvetica" font-size="10.00">ScannerState.emit</text>
<text text-anchor="middle" x="442" y="-888" font-family="Helvetica" font-size="10.00">(def)</text>
</a>
</g>
</g>
<!-- L4YAML.Scanner.ScannerState.input -->
<g id="node15" class="node">
<title>L4YAML.Scanner.ScannerState.input</title>
<g id="a_node15"><a xlink:href="../../../api/L4YAML/Scanner/State.html#L4YAML.Scanner.ScannerState.input" xlink:title="ScannerState.input\n(def)" target="_blank">
<polygon fill="#dce9f7" stroke="#4a90d9" points="492,-860 392,-860 392,-824 492,-824 492,-860"/>
<text text-anchor="middle" x="442" y="-845" font-family="Helvetica" font-size="10.00">ScannerState.input</text>
<text text-anchor="middle" x="442" y="-834" font-family="Helvetica" font-size="10.00">(def)</text>
</a>
</g>
</g>
<!-- L4YAML.Scanner.ScannerState.explicitKeyLine -->
<g id="node16" class="node">
<title>L4YAML.Scanner.ScannerState.explicitKeyLine</title>
<g id="a_node16"><a xlink:href="../../../api/L4YAML/Scanner/State.html#L4YAML.Scanner.ScannerState.explicitKeyLine" xlink:title="ScannerState.explicitKeyLine\n(def)" target="_blank">
<polygon fill="#dce9f7" stroke="#4a90d9" points="514,-806 370,-806 370,-770 514,-770 514,-806"/>
<text text-anchor="middle" x="442" y="-791" font-family="Helvetica" font-size="10.00">ScannerState.explicitKeyLine</text>
<text text-anchor="middle" x="442" y="-780" font-family="Helvetica" font-size="10.00">(def)</text>
</a>
</g>
</g>
<!-- L4YAML.Scanner.ScannerState.mk -->
<g id="node17" class="node">
<title>L4YAML.Scanner.ScannerState.mk</title>
<g id="a_node17"><a xlink:href="../../../api/L4YAML/Scanner/State.html#L4YAML.Scanner.ScannerState.mk" xlink:title="ScannerState.mk\n(ctor)" target="_blank">
<polygon fill="#dce9f7" stroke="#4a90d9" points="488,-752 396,-752 396,-716 488,-716 488,-752"/>
<text text-anchor="middle" x="442" y="-737" font-family="Helvetica" font-size="10.00">ScannerState.mk</text>
<text text-anchor="middle" x="442" y="-726" font-family="Helvetica" font-size="10.00">(ctor)</text>
</a>
</g>
</g>
<!-- L4YAML.Scanner.ScannerState -->
<g id="node18" class="node">
<title>L4YAML.Scanner.ScannerState</title>
<g id="a_node18"><a xlink:href="../../../api/L4YAML/Scanner/State.html#L4YAML.Scanner.ScannerState" xlink:title="ScannerState\n(inductive)" target="_blank">
<polygon fill="#dce9f7" stroke="#4a90d9" points="772.4,-320 696.4,-320 696.4,-284 772.4,-284 772.4,-320"/>
<text text-anchor="middle" x="734.4" y="-305" font-family="Helvetica" font-size="10.00">ScannerState</text>
<text text-anchor="middle" x="734.4" y="-294" font-family="Helvetica" font-size="10.00">(inductive)</text>
</a>
</g>
</g>
<!-- L4YAML.Scanner.ScannerState.seenYamlDirective -->
<g id="node19" class="node">
<title>L4YAML.Scanner.ScannerState.seenYamlDirective</title>
<g id="a_node19"><a xlink:href="../../../api/L4YAML/Scanner/State.html#L4YAML.Scanner.ScannerState.seenYamlDirective" xlink:title="ScannerState.seenYamlDirective\n(def)" target="_blank">
<polygon fill="#dce9f7" stroke="#4a90d9" points="522,-698 362,-698 362,-662 522,-662 522,-698"/>
<text text-anchor="middle" x="442" y="-683" font-family="Helvetica" font-size="10.00">ScannerState.seenYamlDirective</text>
<text text-anchor="middle" x="442" y="-672" font-family="Helvetica" font-size="10.00">(def)</text>
</a>
</g>
</g>
<!-- L4YAML.Scanner.ScannerState.indents -->
<g id="node20" class="node">
<title>L4YAML.Scanner.ScannerState.indents</title>
<g id="a_node20"><a xlink:href="../../../api/L4YAML/Scanner/State.html#L4YAML.Scanner.ScannerState.indents" xlink:title="ScannerState.indents\n(def)" target="_blank">
<polygon fill="#dce9f7" stroke="#4a90d9" points="497,-644 387,-644 387,-608 497,-608 497,-644"/>
<text text-anchor="middle" x="442" y="-629" font-family="Helvetica" font-size="10.00">ScannerState.indents</text>
<text text-anchor="middle" x="442" y="-618" font-family="Helvetica" font-size="10.00">(def)</text>
</a>
</g>
</g>
<!-- L4YAML.Scanner.IndentEntry -->
<g id="node21" class="node">
<title>L4YAML.Scanner.IndentEntry</title>
<g id="a_node21"><a xlink:href="../../../api/L4YAML/Scanner/State.html#L4YAML.Scanner.IndentEntry" xlink:title="IndentEntry\n(inductive)" target="_blank">
<polygon fill="#dce9f7" stroke="#4a90d9" points="476,-590 408,-590 408,-554 476,-554 476,-590"/>
<text text-anchor="middle" x="442" y="-575" font-family="Helvetica" font-size="10.00">IndentEntry</text>
<text text-anchor="middle" x="442" y="-564" font-family="Helvetica" font-size="10.00">(inductive)</text>
</a>
</g>
</g>
<!-- L4YAML.Scanner.ScannerState.needIndentCheck -->
<g id="node22" class="node">
<title>L4YAML.Scanner.ScannerState.needIndentCheck</title>
<g id="a_node22"><a xlink:href="../../../api/L4YAML/Scanner/State.html#L4YAML.Scanner.ScannerState.needIndentCheck" xlink:title="ScannerState.needIndentCheck\n(def)" target="_blank">
<polygon fill="#dce9f7" stroke="#4a90d9" points="519.5,-536 364.5,-536 364.5,-500 519.5,-500 519.5,-536"/>
<text text-anchor="middle" x="442" y="-521" font-family="Helvetica" font-size="10.00">ScannerState.needIndentCheck</text>
<text text-anchor="middle" x="442" y="-510" font-family="Helvetica" font-size="10.00">(def)</text>
</a>
</g>
</g>
<!-- L4YAML.Scanner.unwindIndentsLoop.match_1 -->
<g id="node23" class="node">
<title>L4YAML.Scanner.unwindIndentsLoop.match_1</title>
<g id="a_node23"><a xlink:href="../../../api/L4YAML/Scanner/Indent.html#L4YAML.Scanner.unwindIndentsLoop.match_1" xlink:title="unwindIndentsLoop.match_1\n(def)" target="_blank">
<polygon fill="#dce9f7" stroke="#4a90d9" points="512.5,-482 371.5,-482 371.5,-446 512.5,-446 512.5,-482"/>
<text text-anchor="middle" x="442" y="-467" font-family="Helvetica" font-size="10.00">unwindIndentsLoop.match_1</text>
<text text-anchor="middle" x="442" y="-456" font-family="Helvetica" font-size="10.00">(def)</text>
</a>
</g>
</g>
<!-- L4YAML.Scanner.ScannerState.definedAnchors -->
<g id="node24" class="node">
<title>L4YAML.Scanner.ScannerState.definedAnchors</title>
<g id="a_node24"><a xlink:href="../../../api/L4YAML/Scanner/State.html#L4YAML.Scanner.ScannerState.definedAnchors" xlink:title="ScannerState.definedAnchors\n(def)" target="_blank">
<polygon fill="#dce9f7" stroke="#4a90d9" points="515.5,-428 368.5,-428 368.5,-392 515.5,-392 515.5,-428"/>
<text text-anchor="middle" x="442" y="-413" font-family="Helvetica" font-size="10.00">ScannerState.definedAnchors</text>
<text text-anchor="middle" x="442" y="-402" font-family="Helvetica" font-size="10.00">(def)</text>
</a>
</g>
</g>
<!-- L4YAML.Scanner.ScannerState.simpleKeyStack -->
<g id="node25" class="node">
<title>L4YAML.Scanner.ScannerState.simpleKeyStack</title>
<g id="a_node25"><a xlink:href="../../../api/L4YAML/Scanner/State.html#L4YAML.Scanner.ScannerState.simpleKeyStack" xlink:title="ScannerState.simpleKeyStack\n(def)" target="_blank">
<polygon fill="#dce9f7" stroke="#4a90d9" points="516.5,-374 367.5,-374 367.5,-338 516.5,-338 516.5,-374"/>
<text text-anchor="middle" x="442" y="-359" font-family="Helvetica" font-size="10.00">ScannerState.simpleKeyStack</text>
<text text-anchor="middle" x="442" y="-348" font-family="Helvetica" font-size="10.00">(def)</text>
</a>
</g>
</g>
<!-- L4YAML.Scanner.ScannerState.col -->
<g id="node26" class="node">
<title>L4YAML.Scanner.ScannerState.col</title>
<g id="a_node26"><a xlink:href="../../../api/L4YAML/Scanner/State.html#L4YAML.Scanner.ScannerState.col" xlink:title="ScannerState.col\n(def)" target="_blank">
<polygon fill="#dce9f7" stroke="#4a90d9" points="488,-320 396,-320 396,-284 488,-284 488,-320"/>
<text text-anchor="middle" x="442" y="-305" font-family="Helvetica" font-size="10.00">ScannerState.col</text>
<text text-anchor="middle" x="442" y="-294" font-family="Helvetica" font-size="10.00">(def)</text>
</a>
</g>
</g>
<!-- L4YAML.Scanner.ScannerState.offset -->
<g id="node27" class="node">
<title>L4YAML.Scanner.ScannerState.offset</title>
<g id="a_node27"><a xlink:href="../../../api/L4YAML/Scanner/State.html#L4YAML.Scanner.ScannerState.offset" xlink:title="ScannerState.offset\n(def)" target="_blank">
<polygon fill="#dce9f7" stroke="#4a90d9" points="785.9,-266 682.9,-266 682.9,-230 785.9,-230 785.9,-266"/>
<text text-anchor="middle" x="734.4" y="-251" font-family="Helvetica" font-size="10.00">ScannerState.offset</text>
<text text-anchor="middle" x="734.4" y="-240" font-family="Helvetica" font-size="10.00">(def)</text>
</a>
</g>
</g>
<!-- L4YAML.Scanner.ScannerState.directivesPresent -->
<g id="node28" class="node">
<title>L4YAML.Scanner.ScannerState.directivesPresent</title>
<g id="a_node28"><a xlink:href="../../../api/L4YAML/Scanner/State.html#L4YAML.Scanner.ScannerState.directivesPresent" xlink:title="ScannerState.directivesPresent\n(def)" target="_blank">
<polygon fill="#dce9f7" stroke="#4a90d9" points="519,-266 365,-266 365,-230 519,-230 519,-266"/>
<text text-anchor="middle" x="442" y="-251" font-family="Helvetica" font-size="10.00">ScannerState.directivesPresent</text>
<text text-anchor="middle" x="442" y="-240" font-family="Helvetica" font-size="10.00">(def)</text>
</a>
</g>
</g>
<!-- L4YAML.Proofs.ScanStrictCoupling.unwindIndentsLoop_offset -->
<g id="node29" class="node">
<title>L4YAML.Proofs.ScanStrictCoupling.unwindIndentsLoop_offset</title>
<g id="a_node29"><a xlink:href="../../../api/L4YAML/Proofs/Scanner/ScanStrictCoupling.html#L4YAML.Proofs.ScanStrictCoupling.unwindIndentsLoop_offset" xlink:title="ScanStrictCoupling.unwindIndentsLoop_offset" target="_blank">
<polygon fill="#fff3cd" stroke="#d4a017" points="617.81,-30.54 617.81,-45.46 514.82,-56 369.17,-56 266.18,-45.46 266.18,-30.54 369.17,-20 514.82,-20 617.81,-30.54"/>
<polygon fill="none" stroke="#d4a017" points="621.81,-26.93 621.81,-49.07 515.02,-60 368.97,-60 262.19,-49.07 262.19,-26.93 368.97,-16 515.02,-16 621.81,-26.93"/>
<text text-anchor="middle" x="442" y="-34.9" font-family="Helvetica" font-size="12.00">ScanStrictCoupling.unwindIndentsLoop_offset</text>
</a>
</g>
</g>
<!-- L4YAML.Proofs.ScanStrictCoupling.unwindIndentsLoop_offset&#45;&gt;L4YAML.Scanner.unwindIndentsLoop -->
<g id="edge1" class="edge">
<title>L4YAML.Proofs.ScanStrictCoupling.unwindIndentsLoop_offset&#45;&gt;L4YAML.Scanner.unwindIndentsLoop</title>
<path fill="none" stroke="#4a90d9" stroke-width="2" d="M563.22,-55.17C587.79,-63.51 611.67,-75.82 629.9,-94 640.75,-104.82 634.45,-112.68 639.9,-127 649.31,-151.72 657.66,-155.56 664.9,-181 683.04,-244.73 645.46,-274.33 682.9,-329 683.81,-330.33 684.81,-331.61 685.89,-332.82"/>
<polygon fill="#4a90d9" stroke="#4a90d9" stroke-width="2" points="684.28,-334.67 691.01,-337.78 687.69,-331.15 684.28,-334.67"/>
<text text-anchor="middle" x="652.4" y="-183.6" font-family="Times-Roman" font-size="8.00" fill="#4a90d9">about</text>
</g>
<!-- L4YAML.Proofs.ScanStrictCoupling.unwindIndentsLoop_offset&#45;&gt;L4YAML.Scanner.ScannerState -->
<g id="edge3" class="edge">
<title>L4YAML.Proofs.ScanStrictCoupling.unwindIndentsLoop_offset&#45;&gt;L4YAML.Scanner.ScannerState</title>
<path fill="none" stroke="#4a90d9" stroke-width="2" d="M573.55,-54.04C610.04,-65.58 645.1,-85.11 664.9,-118 701.13,-178.17 643.42,-216.91 682.9,-275 685.07,-278.19 687.73,-281.03 690.7,-283.55"/>
<polygon fill="#4a90d9" stroke="#4a90d9" stroke-width="2" points="689.25,-285.53 696.32,-287.77 692.19,-281.61 689.25,-285.53"/>
<text text-anchor="middle" x="652.4" y="-120.6" font-family="Times-Roman" font-size="8.00" fill="#4a90d9">about</text>
</g>
<!-- L4YAML.Proofs.ScanStrictCoupling.unwindIndentsLoop_offset&#45;&gt;L4YAML.Scanner.ScannerState.offset -->
<g id="edge2" class="edge">
<title>L4YAML.Proofs.ScanStrictCoupling.unwindIndentsLoop_offset&#45;&gt;L4YAML.Scanner.ScannerState.offset</title>
<path fill="none" stroke="#4a90d9" stroke-width="2" d="M621.94,-33.99C637.4,-38.99 652.02,-46.12 664.9,-56 717.48,-96.35 729.79,-180.4 732.61,-222.63"/>
<polygon fill="#4a90d9" stroke="#4a90d9" stroke-width="2" points="730.17,-222.92 733.02,-229.77 735.06,-222.64 730.17,-222.92"/>
<text text-anchor="middle" x="652.4" y="-58.6" font-family="Times-Roman" font-size="8.00" fill="#4a90d9">about</text>
</g>
<!-- L4YAML.Scanner.unwindIndentsLoop.eq_def -->
<g id="node30" class="node">
<title>L4YAML.Scanner.unwindIndentsLoop.eq_def</title>
<g id="a_node30"><a xlink:href="../../../api/L4YAML/Scanner/Indent.html#L4YAML.Scanner.unwindIndentsLoop.eq_def" xlink:title="unwindIndentsLoop.eq_def\n(Scanner.Indent)" target="_blank">
<ellipse fill="#d4edda" stroke="#28a745" cx="110.05" cy="-788" rx="94.09" ry="21.43"/>
<text text-anchor="middle" x="110.05" y="-791" font-family="Helvetica" font-size="10.00">unwindIndentsLoop.eq_def</text>
<text text-anchor="middle" x="110.05" y="-780" font-family="Helvetica" font-size="10.00">(Scanner.Indent)</text>
</a>
</g>
</g>
<!-- L4YAML.Scanner.unwindIndentsLoop.eq_def&#45;&gt;L4YAML.Scanner.ScannerState.line -->
<g id="edge31" class="edge">
<title>L4YAML.Scanner.unwindIndentsLoop.eq_def&#45;&gt;L4YAML.Scanner.ScannerState.line</title>
<path fill="none" stroke="#6f42c1" stroke-width="2" stroke-dasharray="5,2" d="M111.43,-809.36C113.58,-895.04 127.9,-1221.03 222.09,-1467 231.53,-1491.64 231.91,-1502.71 254.09,-1517 294.31,-1542.92 349.42,-1548.06 389.37,-1547.69"/>
<polygon fill="#6f42c1" stroke="#6f42c1" stroke-width="2" points="389.68,-1549.44 394.65,-1547.61 389.63,-1545.94 389.68,-1549.44"/>
<text text-anchor="middle" x="233.09" y="-1511.4" font-family="Times-Roman" font-size="7.00" fill="#6f42c1">about</text>
</g>
<!-- L4YAML.Scanner.unwindIndentsLoop.eq_def&#45;&gt;L4YAML.Scanner.ScannerState.flowLevel -->
<g id="edge28" class="edge">
<title>L4YAML.Scanner.unwindIndentsLoop.eq_def&#45;&gt;L4YAML.Scanner.ScannerState.flowLevel</title>
<path fill="none" stroke="#6f42c1" stroke-width="2" stroke-dasharray="5,2" d="M111.83,-809.31C115.43,-890.63 134.23,-1188.21 222.09,-1413 231.69,-1437.57 231.91,-1448.71 254.09,-1463 290.35,-1486.37 338.72,-1492.85 377.17,-1493.63"/>
<polygon fill="#6f42c1" stroke="#6f42c1" stroke-width="2" points="377.26,-1495.38 382.29,-1493.7 377.31,-1491.88 377.26,-1495.38"/>
<text text-anchor="middle" x="233.09" y="-1457.4" font-family="Times-Roman" font-size="7.00" fill="#6f42c1">about</text>
</g>
<!-- L4YAML.Scanner.unwindIndentsLoop.eq_def&#45;&gt;L4YAML.Scanner.ScannerState.documentEverStarted -->
<g id="edge14" class="edge">
<title>L4YAML.Scanner.unwindIndentsLoop.eq_def&#45;&gt;L4YAML.Scanner.ScannerState.documentEverStarted</title>
<path fill="none" stroke="#6f42c1" stroke-width="2" stroke-dasharray="5,2" d="M112.37,-809.22C117.75,-885.83 141.58,-1154.3 222.09,-1358 231.93,-1382.89 231.66,-1394.4 254.09,-1409 282.13,-1427.25 317.51,-1435.24 349.93,-1438.25"/>
<polygon fill="#6f42c1" stroke="#6f42c1" stroke-width="2" points="349.97,-1440.01 355.1,-1438.69 350.27,-1436.52 349.97,-1440.01"/>
<text text-anchor="middle" x="233.09" y="-1403.4" font-family="Times-Roman" font-size="7.00" fill="#6f42c1">about</text>
</g>
<!-- L4YAML.Scanner.unwindIndentsLoop.eq_def&#45;&gt;L4YAML.Scanner.ScannerState.simpleKeyAllowed -->
<g id="edge27" class="edge">
<title>L4YAML.Scanner.unwindIndentsLoop.eq_def&#45;&gt;L4YAML.Scanner.ScannerState.simpleKeyAllowed</title>
<path fill="none" stroke="#6f42c1" stroke-width="2" stroke-dasharray="5,2" d="M112.87,-809.24C119.64,-881.32 146.88,-1122.26 222.09,-1305 232.13,-1329.4 231.91,-1340.71 254.09,-1355 284.43,-1374.55 323.24,-1382.28 357.62,-1384.74"/>
<polygon fill="#6f42c1" stroke="#6f42c1" stroke-width="2" points="357.56,-1386.49 362.66,-1385.07 357.78,-1383 357.56,-1386.49"/>
<text text-anchor="middle" x="233.09" y="-1348.4" font-family="Times-Roman" font-size="7.00" fill="#6f42c1">about</text>
</g>
<!-- L4YAML.Scanner.unwindIndentsLoop.eq_def&#45;&gt;L4YAML.Scanner.ScannerState.currentIndent -->
<g id="edge24" class="edge">
<title>L4YAML.Scanner.unwindIndentsLoop.eq_def&#45;&gt;L4YAML.Scanner.ScannerState.currentIndent</title>
<path fill="none" stroke="#6f42c1" stroke-width="2" stroke-dasharray="5,2" d="M113.69,-809.49C122.48,-876.75 154.13,-1088.41 222.09,-1250 232.46,-1274.67 231.66,-1286.4 254.09,-1301 287.61,-1322.82 331.63,-1329.97 368.53,-1331.49"/>
<polygon fill="#6f42c1" stroke="#6f42c1" stroke-width="2" points="368.87,-1333.25 373.92,-1331.67 368.98,-1329.75 368.87,-1333.25"/>
<text text-anchor="middle" x="233.09" y="-1295.4" font-family="Times-Roman" font-size="7.00" fill="#6f42c1">about</text>
</g>
<!-- L4YAML.Scanner.unwindIndentsLoop.eq_def&#45;&gt;L4YAML.YamlToken.blockEnd -->
<g id="edge11" class="edge">
<title>L4YAML.Scanner.unwindIndentsLoop.eq_def&#45;&gt;L4YAML.YamlToken.blockEnd</title>
<path fill="none" stroke="#6f42c1" stroke-width="2" stroke-dasharray="5,2" d="M114.19,-809.33C126.98,-892.8 178.1,-1195.28 254.09,-1247 291.7,-1272.6 343.46,-1278.38 382.97,-1278.3"/>
<polygon fill="#6f42c1" stroke="#6f42c1" stroke-width="2" points="383.23,-1280.05 388.22,-1278.26 383.2,-1276.55 383.23,-1280.05"/>
<text text-anchor="middle" x="233.09" y="-1240.4" font-family="Times-Roman" font-size="7.00" fill="#6f42c1">about</text>
</g>
<!-- L4YAML.Scanner.unwindIndentsLoop.eq_def&#45;&gt;L4YAML.Scanner.ScannerState.tokens -->
<g id="edge5" class="edge">
<title>L4YAML.Scanner.unwindIndentsLoop.eq_def&#45;&gt;L4YAML.Scanner.ScannerState.tokens</title>
<path fill="none" stroke="#6f42c1" stroke-width="2" stroke-dasharray="5,2" d="M110.62,-809.47C110.56,-879.83 121.15,-1104.06 254.09,-1193 291.9,-1218.3 343.64,-1224.1 383.1,-1224.12"/>
<polygon fill="#6f42c1" stroke="#6f42c1" stroke-width="2" points="383.35,-1225.86 388.34,-1224.08 383.32,-1222.36 383.35,-1225.86"/>
<text text-anchor="middle" x="233.09" y="-1181.4" font-family="Times-Roman" font-size="7.00" fill="#6f42c1">about</text>
</g>
<!-- L4YAML.Scanner.unwindIndentsLoop.eq_def&#45;&gt;L4YAML.Scanner.unwindIndentsLoop -->
<g id="edge12" class="edge">
<title>L4YAML.Scanner.unwindIndentsLoop.eq_def&#45;&gt;L4YAML.Scanner.unwindIndentsLoop</title>
<path fill="none" stroke="#6f42c1" stroke-width="2" stroke-dasharray="5,2" d="M112.59,-766.49C120.08,-669.41 156.35,-274.24 254.09,-213 324.86,-168.66 559.64,-167.86 629.9,-213 677.59,-243.64 644.09,-287.69 682.9,-329 684.81,-331.04 686.92,-332.95 689.15,-334.75"/>
<polygon fill="#6f42c1" stroke="#6f42c1" stroke-width="2" points="688.23,-336.25 693.28,-337.85 690.33,-333.45 688.23,-336.25"/>
<text text-anchor="middle" x="442" y="-215.4" font-family="Times-Roman" font-size="7.00" fill="#6f42c1">about</text>
</g>
<!-- L4YAML.Scanner.unwindIndentsLoop.eq_def&#45;&gt;L4YAML.Scanner.ScannerState.comments -->
<g id="edge18" class="edge">
<title>L4YAML.Scanner.unwindIndentsLoop.eq_def&#45;&gt;L4YAML.Scanner.ScannerState.comments</title>
<path fill="none" stroke="#6f42c1" stroke-width="2" stroke-dasharray="5,2" d="M112.02,-809.61C116.23,-873.58 138.37,-1062.27 254.09,-1139 289.26,-1162.32 336.32,-1169.02 374.41,-1169.91"/>
<polygon fill="#6f42c1" stroke="#6f42c1" stroke-width="2" points="374.46,-1171.66 379.49,-1170 374.52,-1168.16 374.46,-1171.66"/>
<text text-anchor="middle" x="233.09" y="-1129.4" font-family="Times-Roman" font-size="7.00" fill="#6f42c1">about</text>
</g>
<!-- L4YAML.Scanner.unwindIndentsLoop.eq_def&#45;&gt;L4YAML.Scanner.ScannerState.allowDirectives -->
<g id="edge10" class="edge">
<title>L4YAML.Scanner.unwindIndentsLoop.eq_def&#45;&gt;L4YAML.Scanner.ScannerState.allowDirectives</title>
<path fill="none" stroke="#6f42c1" stroke-width="2" stroke-dasharray="5,2" d="M113.85,-809.38C122.55,-866.08 154.8,-1020.38 254.09,-1085 286.3,-1105.97 328.21,-1113.39 364.18,-1115.28"/>
<polygon fill="#6f42c1" stroke="#6f42c1" stroke-width="2" points="364.36,-1117.04 369.44,-1115.52 364.52,-1113.55 364.36,-1117.04"/>
<text text-anchor="middle" x="233.09" y="-1076.4" font-family="Times-Roman" font-size="7.00" fill="#6f42c1">about</text>
</g>
<!-- L4YAML.Scanner.unwindIndentsLoop.eq_def&#45;&gt;L4YAML.Scanner.ScannerState.flowStack -->
<g id="edge20" class="edge">
<title>L4YAML.Scanner.unwindIndentsLoop.eq_def&#45;&gt;L4YAML.Scanner.ScannerState.flowStack</title>
<path fill="none" stroke="#6f42c1" stroke-width="2" stroke-dasharray="5,2" d="M116.53,-809.5C130.26,-858.46 171.14,-978.08 254.09,-1031 289.93,-1053.87 337.42,-1060.49 375.56,-1061.47"/>
<polygon fill="#6f42c1" stroke="#6f42c1" stroke-width="2" points="375.61,-1063.22 380.64,-1061.57 375.68,-1059.72 375.61,-1063.22"/>
<text text-anchor="middle" x="233.09" y="-1024.4" font-family="Times-Roman" font-size="7.00" fill="#6f42c1">about</text>
</g>
<!-- L4YAML.Scanner.unwindIndentsLoop.eq_def&#45;&gt;L4YAML.Scanner.ScannerState.inputEnd -->
<g id="edge17" class="edge">
<title>L4YAML.Scanner.unwindIndentsLoop.eq_def&#45;&gt;L4YAML.Scanner.ScannerState.inputEnd</title>
<path fill="none" stroke="#6f42c1" stroke-width="2" stroke-dasharray="5,2" d="M120.34,-809.37C139.12,-849.71 185.69,-936.63 254.09,-977 291.38,-999.01 339.94,-1005.5 378.22,-1006.62"/>
<polygon fill="#6f42c1" stroke="#6f42c1" stroke-width="2" points="378.27,-1008.37 383.31,-1006.74 378.35,-1004.87 378.27,-1008.37"/>
<text text-anchor="middle" x="233.09" y="-972.4" font-family="Times-Roman" font-size="7.00" fill="#6f42c1">about</text>
</g>
<!-- L4YAML.Scanner.unwindIndentsLoop.eq_def&#45;&gt;L4YAML.Scanner.ScannerState.simpleKey -->
<g id="edge32" class="edge">
<title>L4YAML.Scanner.unwindIndentsLoop.eq_def&#45;&gt;L4YAML.Scanner.ScannerState.simpleKey</title>
<path fill="none" stroke="#6f42c1" stroke-width="2" stroke-dasharray="5,2" d="M126.35,-809.05C149.97,-839.76 198.44,-896.12 254.09,-923 291.37,-941.01 337.36,-947.82 374.38,-950.1"/>
<polygon fill="#6f42c1" stroke="#6f42c1" stroke-width="2" points="374.69,-951.87 379.78,-950.4 374.89,-948.37 374.69,-951.87"/>
<text text-anchor="middle" x="233.09" y="-917.4" font-family="Times-Roman" font-size="7.00" fill="#6f42c1">about</text>
</g>
<!-- L4YAML.Scanner.unwindIndentsLoop.eq_def&#45;&gt;L4YAML.Scanner.ScannerState.emit -->
<g id="edge13" class="edge">
<title>L4YAML.Scanner.unwindIndentsLoop.eq_def&#45;&gt;L4YAML.Scanner.ScannerState.emit</title>
<path fill="none" stroke="#6f42c1" stroke-width="2" stroke-dasharray="5,2" d="M139.39,-808.29C167.22,-827.15 211.56,-854.46 254.09,-869 297.59,-883.87 349.5,-890.55 387.57,-893.55"/>
<polygon fill="#6f42c1" stroke="#6f42c1" stroke-width="2" points="387.49,-895.3 392.61,-893.93 387.75,-891.81 387.49,-895.3"/>
<text text-anchor="middle" x="233.09" y="-866.4" font-family="Times-Roman" font-size="7.00" fill="#6f42c1">about</text>
</g>
<!-- L4YAML.Scanner.unwindIndentsLoop.eq_def&#45;&gt;L4YAML.Scanner.ScannerState.input -->
<g id="edge25" class="edge">
<title>L4YAML.Scanner.unwindIndentsLoop.eq_def&#45;&gt;L4YAML.Scanner.ScannerState.input</title>
<path fill="none" stroke="#6f42c1" stroke-width="2" stroke-dasharray="5,2" d="M181.51,-801.93C204.6,-806.32 230.41,-811.06 254.09,-815 298.48,-822.39 348.99,-829.62 386.31,-834.73"/>
<polygon fill="#6f42c1" stroke="#6f42c1" stroke-width="2" points="386.52,-836.53 391.72,-835.47 387,-833.06 386.52,-836.53"/>
<text text-anchor="middle" x="233.09" y="-815.4" font-family="Times-Roman" font-size="7.00" fill="#6f42c1">about</text>
</g>
<!-- L4YAML.Scanner.unwindIndentsLoop.eq_def&#45;&gt;L4YAML.Scanner.ScannerState.explicitKeyLine -->
<g id="edge19" class="edge">
<title>L4YAML.Scanner.unwindIndentsLoop.eq_def&#45;&gt;L4YAML.Scanner.ScannerState.explicitKeyLine</title>
<path fill="none" stroke="#6f42c1" stroke-width="2" stroke-dasharray="5,2" d="M204.27,-788C254.93,-788 316.79,-788 364.57,-788"/>
<polygon fill="#6f42c1" stroke="#6f42c1" stroke-width="2" points="364.74,-789.75 369.74,-788 364.74,-786.25 364.74,-789.75"/>
<text text-anchor="middle" x="233.09" y="-790.4" font-family="Times-Roman" font-size="7.00" fill="#6f42c1">about</text>
</g>
<!-- L4YAML.Scanner.unwindIndentsLoop.eq_def&#45;&gt;L4YAML.Scanner.ScannerState.mk -->
<g id="edge23" class="edge">
<title>L4YAML.Scanner.unwindIndentsLoop.eq_def&#45;&gt;L4YAML.Scanner.ScannerState.mk</title>
<path fill="none" stroke="#6f42c1" stroke-width="2" stroke-dasharray="5,2" d="M181.51,-774.07C204.6,-769.68 230.41,-764.94 254.09,-761 300.36,-753.29 353.29,-745.77 390.99,-740.63"/>
<polygon fill="#6f42c1" stroke="#6f42c1" stroke-width="2" points="391.25,-742.36 395.97,-739.95 390.78,-738.89 391.25,-742.36"/>
<text text-anchor="middle" x="233.09" y="-768.4" font-family="Times-Roman" font-size="7.00" fill="#6f42c1">about</text>
</g>
<!-- L4YAML.Scanner.unwindIndentsLoop.eq_def&#45;&gt;L4YAML.Scanner.ScannerState -->
<g id="edge21" class="edge">
<title>L4YAML.Scanner.unwindIndentsLoop.eq_def&#45;&gt;L4YAML.Scanner.ScannerState</title>
<path fill="none" stroke="#6f42c1" stroke-width="2" stroke-dasharray="5,2" d="M111.98,-766.55C116.96,-664.08 144.54,-226.95 254.09,-167 327.35,-126.91 555.83,-128.43 629.9,-167 653.96,-179.53 652.96,-192.64 664.9,-217 676.78,-241.23 665.71,-254.19 682.9,-275 685.59,-278.25 688.77,-281.17 692.21,-283.77"/>
<polygon fill="#6f42c1" stroke="#6f42c1" stroke-width="2" points="691.25,-285.23 696.35,-286.68 693.26,-282.37 691.25,-285.23"/>
<text text-anchor="middle" x="442" y="-169.4" font-family="Times-Roman" font-size="7.00" fill="#6f42c1">about</text>
</g>
<!-- L4YAML.Scanner.unwindIndentsLoop.eq_def&#45;&gt;L4YAML.Scanner.ScannerState.seenYamlDirective -->
<g id="edge26" class="edge">
<title>L4YAML.Scanner.unwindIndentsLoop.eq_def&#45;&gt;L4YAML.Scanner.ScannerState.seenYamlDirective</title>
<path fill="none" stroke="#6f42c1" stroke-width="2" stroke-dasharray="5,2" d="M139.39,-767.71C167.22,-748.85 211.56,-721.54 254.09,-707 286.63,-695.88 323.88,-689.34 356.52,-685.49"/>
<polygon fill="#6f42c1" stroke="#6f42c1" stroke-width="2" points="356.95,-687.2 361.72,-684.9 356.55,-683.73 356.95,-687.2"/>
<text text-anchor="middle" x="233.09" y="-720.4" font-family="Times-Roman" font-size="7.00" fill="#6f42c1">about</text>
</g>
<!-- L4YAML.Scanner.unwindIndentsLoop.eq_def&#45;&gt;L4YAML.Scanner.ScannerState.indents -->
<g id="edge15" class="edge">
<title>L4YAML.Scanner.unwindIndentsLoop.eq_def&#45;&gt;L4YAML.Scanner.ScannerState.indents</title>
<path fill="none" stroke="#6f42c1" stroke-width="2" stroke-dasharray="5,2" d="M126.35,-766.95C149.97,-736.24 198.44,-679.88 254.09,-653 293.93,-633.76 343.7,-627.3 381.86,-625.49"/>
<polygon fill="#6f42c1" stroke="#6f42c1" stroke-width="2" points="382.01,-627.24 386.93,-625.28 381.86,-623.74 382.01,-627.24"/>
<text text-anchor="middle" x="233.09" y="-670.4" font-family="Times-Roman" font-size="7.00" fill="#6f42c1">about</text>
</g>
<!-- L4YAML.Scanner.unwindIndentsLoop.eq_def&#45;&gt;L4YAML.Scanner.IndentEntry -->
<g id="edge6" class="edge">
<title>L4YAML.Scanner.unwindIndentsLoop.eq_def&#45;&gt;L4YAML.Scanner.IndentEntry</title>
<path fill="none" stroke="#6f42c1" stroke-width="2" stroke-dasharray="5,2" d="M120.34,-766.63C139.12,-726.29 185.69,-639.37 254.09,-599 299.89,-571.97 362.69,-568.35 402.56,-569.33"/>
<polygon fill="#6f42c1" stroke="#6f42c1" stroke-width="2" points="402.74,-571.09 407.79,-569.49 402.85,-567.59 402.74,-571.09"/>
<text text-anchor="middle" x="233.09" y="-623.4" font-family="Times-Roman" font-size="7.00" fill="#6f42c1">about</text>
</g>
<!-- L4YAML.Scanner.unwindIndentsLoop.eq_def&#45;&gt;L4YAML.Scanner.ScannerState.needIndentCheck -->
<g id="edge29" class="edge">
<title>L4YAML.Scanner.unwindIndentsLoop.eq_def&#45;&gt;L4YAML.Scanner.ScannerState.needIndentCheck</title>
<path fill="none" stroke="#6f42c1" stroke-width="2" stroke-dasharray="5,2" d="M116.39,-766.81C129.95,-717.97 170.68,-597.66 254.09,-545 285.01,-525.48 324.45,-517.85 359.13,-515.44"/>
<polygon fill="#6f42c1" stroke="#6f42c1" stroke-width="2" points="359.33,-517.18 364.21,-515.12 359.11,-513.69 359.33,-517.18"/>
<text text-anchor="middle" x="233.09" y="-570.4" font-family="Times-Roman" font-size="7.00" fill="#6f42c1">about</text>
</g>
<!-- L4YAML.Scanner.unwindIndentsLoop.eq_def&#45;&gt;L4YAML.Scanner.unwindIndentsLoop.match_1 -->
<g id="edge22" class="edge">
<title>L4YAML.Scanner.unwindIndentsLoop.eq_def&#45;&gt;L4YAML.Scanner.unwindIndentsLoop.match_1</title>
<path fill="none" stroke="#6f42c1" stroke-width="2" stroke-dasharray="5,2" d="M113.82,-766.58C122.44,-709.75 154.51,-555.18 254.09,-491 286.92,-469.84 329.68,-462.53 366.01,-460.76"/>
<polygon fill="#6f42c1" stroke="#6f42c1" stroke-width="2" points="366.4,-462.49 371.32,-460.53 366.25,-458.99 366.4,-462.49"/>
<text text-anchor="middle" x="233.09" y="-514.4" font-family="Times-Roman" font-size="7.00" fill="#6f42c1">about</text>
</g>
<!-- L4YAML.Scanner.unwindIndentsLoop.eq_def&#45;&gt;L4YAML.Scanner.ScannerState.definedAnchors -->
<g id="edge30" class="edge">
<title>L4YAML.Scanner.unwindIndentsLoop.eq_def&#45;&gt;L4YAML.Scanner.ScannerState.definedAnchors</title>
<path fill="none" stroke="#6f42c1" stroke-width="2" stroke-dasharray="5,2" d="M111.99,-766.34C116.12,-702.25 138.05,-513.24 254.09,-437 285.95,-416.07 327.43,-408.58 363.22,-406.64"/>
<polygon fill="#6f42c1" stroke="#6f42c1" stroke-width="2" points="363.54,-408.38 368.45,-406.4 363.38,-404.88 363.54,-408.38"/>
<text text-anchor="middle" x="233.09" y="-464.4" font-family="Times-Roman" font-size="7.00" fill="#6f42c1">about</text>
</g>
<!-- L4YAML.Scanner.unwindIndentsLoop.eq_def&#45;&gt;L4YAML.Scanner.ScannerState.simpleKeyStack -->
<g id="edge8" class="edge">
<title>L4YAML.Scanner.unwindIndentsLoop.eq_def&#45;&gt;L4YAML.Scanner.ScannerState.simpleKeyStack</title>
<path fill="none" stroke="#6f42c1" stroke-width="2" stroke-dasharray="5,2" d="M110.59,-766.49C110.44,-695.99 120.78,-471.4 254.09,-383 285.6,-362.1 326.65,-354.56 362.26,-352.57"/>
<polygon fill="#6f42c1" stroke="#6f42c1" stroke-width="2" points="362.56,-354.31 367.47,-352.32 362.39,-350.81 362.56,-354.31"/>
<text text-anchor="middle" x="233.09" y="-405.4" font-family="Times-Roman" font-size="7.00" fill="#6f42c1">about</text>
</g>
<!-- L4YAML.Scanner.unwindIndentsLoop.eq_def&#45;&gt;L4YAML.Scanner.ScannerState.col -->
<g id="edge7" class="edge">
<title>L4YAML.Scanner.unwindIndentsLoop.eq_def&#45;&gt;L4YAML.Scanner.ScannerState.col</title>
<path fill="none" stroke="#6f42c1" stroke-width="2" stroke-dasharray="5,2" d="M114.18,-766.65C126.93,-683.12 177.9,-380.42 254.09,-329 294.27,-301.88 350.39,-297.08 390.63,-297.87"/>
<polygon fill="#6f42c1" stroke="#6f42c1" stroke-width="2" points="390.91,-299.62 395.95,-298 391,-296.13 390.91,-299.62"/>
<text text-anchor="middle" x="233.09" y="-365.4" font-family="Times-Roman" font-size="7.00" fill="#6f42c1">about</text>
</g>
<!-- L4YAML.Scanner.unwindIndentsLoop.eq_def&#45;&gt;L4YAML.Scanner.ScannerState.offset -->
<g id="edge16" class="edge">
<title>L4YAML.Scanner.unwindIndentsLoop.eq_def&#45;&gt;L4YAML.Scanner.ScannerState.offset</title>
<path fill="none" stroke="#6f42c1" stroke-width="2" stroke-dasharray="5,2" d="M111.58,-766.44C114.79,-659.33 135.62,-187.12 254.09,-126 294.66,-105.07 626.7,-105.01 664.9,-130 698.68,-152.1 717.84,-197.06 726.87,-224.65"/>
<polygon fill="#6f42c1" stroke="#6f42c1" stroke-width="2" points="725.26,-225.36 728.45,-229.59 728.6,-224.3 725.26,-225.36"/>
<text text-anchor="middle" x="442" y="-128.4" font-family="Times-Roman" font-size="7.00" fill="#6f42c1">about</text>
</g>
<!-- L4YAML.Scanner.unwindIndentsLoop.eq_def&#45;&gt;L4YAML.Scanner.ScannerState.directivesPresent -->
<g id="edge9" class="edge">
<title>L4YAML.Scanner.unwindIndentsLoop.eq_def&#45;&gt;L4YAML.Scanner.ScannerState.directivesPresent</title>
<path fill="none" stroke="#6f42c1" stroke-width="2" stroke-dasharray="5,2" d="M113.62,-766.44C122.2,-698.95 153.31,-486.63 222.09,-325 232.42,-300.72 231.91,-289.29 254.09,-275 285.08,-255.03 324.92,-247.39 359.85,-245.11"/>
<polygon fill="#6f42c1" stroke="#6f42c1" stroke-width="2" points="360.07,-246.85 364.96,-244.81 359.87,-243.35 360.07,-246.85"/>
<text text-anchor="middle" x="233.09" y="-327.4" font-family="Times-Roman" font-size="7.00" fill="#6f42c1">about</text>
</g>
<!-- L4YAML.Scanner.unwindIndentsLoop.eq_def&#45;&gt;L4YAML.Proofs.ScanStrictCoupling.unwindIndentsLoop_offset -->
<g id="edge4" class="edge">
<title>L4YAML.Scanner.unwindIndentsLoop.eq_def&#45;&gt;L4YAML.Proofs.ScanStrictCoupling.unwindIndentsLoop_offset</title>
<path fill="none" stroke="#28a745" d="M111.54,-766.5C114.36,-661.6 131.75,-204.3 222.09,-102 241.62,-79.88 268.34,-65.22 296.39,-55.54"/>
<polygon fill="#28a745" stroke="#28a745" points="297.28,-57.83 303.16,-53.31 295.75,-53.18 297.28,-57.83"/>
</g>
</g>
</svg>
