<?xml version="1.0" encoding="UTF-8" standalone="no"?>
<!DOCTYPE svg PUBLIC "-//W3C//DTD SVG 1.1//EN"
 "http://www.w3.org/Graphics/SVG/1.1/DTD/svg11.dtd">
<!-- Generated by graphviz version 2.44.0 (0)
 -->
<!-- Title: chain_ScannerState.advanceNLoop.eq_def Pages: 1 -->
<svg width="905pt" height="201pt"
 viewBox="0.00 0.00 905.00 200.92" xmlns="http://www.w3.org/2000/svg" xmlns:xlink="http://www.w3.org/1999/xlink">
<g id="graph0" class="graph" transform="scale(1 1) rotate(0) translate(4 196.92)">
<title>chain_ScannerState.advanceNLoop.eq_def</title>
<polygon fill="white" stroke="transparent" points="-4,4 -4,-196.92 901,-196.92 901,4 -4,4"/>
<text text-anchor="middle" x="448.5" y="-178.52" font-family="Helvetica Bold" font-size="13.00">Structural theorem: ScannerState.advanceNLoop.eq_def\nProof is a witness / injection — no fibration depth\n(heuristic: used by 7 proofs)</text>
<g id="clust1" class="cluster">
<title>cluster_direct</title>
<polygon fill="none" stroke="#4a90d9" stroke-dasharray="5,2" points="157.5,-8 157.5,-82 739.5,-82 739.5,-8 157.5,-8"/>
<text text-anchor="middle" x="448.5" y="-67.6" font-family="Helvetica Bold" font-size="13.00" fill="#4a90d9">About (no chain extends — proof is structural)</text>
</g>
<!-- L4YAML.Scanner.ScannerState.advanceNLoop.eq_def -->
<g id="node1" class="node">
<title>L4YAML.Scanner.ScannerState.advanceNLoop.eq_def</title>
<polygon fill="#fff3cd" stroke="#d4a017" points="570.4,-134.46 570.4,-153.46 491.38,-166.89 379.62,-166.89 300.6,-153.46 300.6,-134.46 379.62,-121.03 491.38,-121.03 570.4,-134.46"/>
<polygon fill="none" stroke="#d4a017" points="574.41,-131.09 574.41,-156.83 491.72,-170.88 379.28,-170.88 296.59,-156.83 296.59,-131.09 379.28,-117.04 491.72,-117.04 574.41,-131.09"/>
<text text-anchor="middle" x="435.5" y="-146.96" font-family="Helvetica" font-size="10.00">ScannerState.advanceNLoop.eq_def</text>
<text text-anchor="middle" x="435.5" y="-135.96" font-family="Helvetica" font-size="10.00">(structural)</text>
</g>
<!-- L4YAML.Scanner.ScannerState.advance -->
<g id="node2" class="node">
<title>L4YAML.Scanner.ScannerState.advance</title>
<g id="a_node2"><a xlink:href="../../../api/L4YAML/Scanner/State.html#L4YAML.Scanner.ScannerState.advance" xlink:title="ScannerState.advance" target="_blank">
<polygon fill="#dce9f7" stroke="#4a90d9" points="281,-52 166,-52 166,-16 281,-16 281,-52"/>
<text text-anchor="middle" x="223.5" y="-31.5" font-family="Helvetica" font-size="10.00">ScannerState.advance</text>
</a>
</g>
</g>
<!-- L4YAML.Scanner.ScannerState.advanceNLoop.eq_def&#45;&gt;L4YAML.Scanner.ScannerState.advance -->
<g id="edge1" class="edge">
<title>L4YAML.Scanner.ScannerState.advanceNLoop.eq_def&#45;&gt;L4YAML.Scanner.ScannerState.advance</title>
<path fill="none" stroke="#4a90d9" stroke-width="2" d="M369.5,-118.68C344.22,-108.49 315.48,-95.8 290.5,-82 277.05,-74.57 263.01,-65.03 251.27,-56.49"/>
<polygon fill="#4a90d9" stroke="#4a90d9" stroke-width="2" points="252.45,-54.31 245.36,-52.13 249.54,-58.25 252.45,-54.31"/>
<text text-anchor="middle" x="334" y="-92.6" font-family="Times-Roman" font-size="8.00" fill="#4a90d9">about</text>
</g>
<!-- L4YAML.Scanner.ScannerState.peekAt?Loop.match_1 -->
<g id="node3" class="node">
<title>L4YAML.Scanner.ScannerState.peekAt?Loop.match_1</title>
<g id="a_node3"><a xlink:href="../../../api/L4YAML/Scanner/State.html#L4YAML.Scanner.ScannerState.peekAt?Loop.match_1" xlink:title="ScannerState.peekAt?Loop.match_1" target="_blank">
<polygon fill="#dce9f7" stroke="#4a90d9" points="475.5,-52 299.5,-52 299.5,-16 475.5,-16 475.5,-52"/>
<text text-anchor="middle" x="387.5" y="-31.5" font-family="Helvetica" font-size="10.00">ScannerState.peekAt?Loop.match_1</text>
</a>
</g>
</g>
<!-- L4YAML.Scanner.ScannerState.advanceNLoop.eq_def&#45;&gt;L4YAML.Scanner.ScannerState.peekAt?Loop.match_1 -->
<g id="edge2" class="edge">
<title>L4YAML.Scanner.ScannerState.advanceNLoop.eq_def&#45;&gt;L4YAML.Scanner.ScannerState.peekAt?Loop.match_1</title>
<path fill="none" stroke="#4a90d9" stroke-width="2" d="M423.88,-116.83C415.99,-99.09 405.65,-75.82 398.01,-58.64"/>
<polygon fill="#4a90d9" stroke="#4a90d9" stroke-width="2" points="400.2,-57.54 395.12,-52.14 395.73,-59.53 400.2,-57.54"/>
<text text-anchor="middle" x="428" y="-92.6" font-family="Times-Roman" font-size="8.00" fill="#4a90d9">about</text>
</g>
<!-- L4YAML.Scanner.ScannerState -->
<g id="node4" class="node">
<title>L4YAML.Scanner.ScannerState</title>
<g id="a_node4"><a xlink:href="../../../api/L4YAML/Scanner/State.html#L4YAML.Scanner.ScannerState" xlink:title="ScannerState" target="_blank">
<polygon fill="#dce9f7" stroke="#4a90d9" points="569.5,-52 493.5,-52 493.5,-16 569.5,-16 569.5,-52"/>
<text text-anchor="middle" x="531.5" y="-31.5" font-family="Helvetica" font-size="10.00">ScannerState</text>
</a>
</g>
</g>
<!-- L4YAML.Scanner.ScannerState.advanceNLoop.eq_def&#45;&gt;L4YAML.Scanner.ScannerState -->
<g id="edge3" class="edge">
<title>L4YAML.Scanner.ScannerState.advanceNLoop.eq_def&#45;&gt;L4YAML.Scanner.ScannerState</title>
<path fill="none" stroke="#4a90d9" stroke-width="2" d="M458.74,-116.83C474.79,-98.77 495.93,-75 511.29,-57.73"/>
<polygon fill="#4a90d9" stroke="#4a90d9" stroke-width="2" points="513.44,-59 516.26,-52.14 509.78,-55.74 513.44,-59"/>
<text text-anchor="middle" x="493" y="-92.6" font-family="Times-Roman" font-size="8.00" fill="#4a90d9">about</text>
</g>
<!-- L4YAML.Scanner.ScannerState.advanceNLoop -->
<g id="node5" class="node">
<title>L4YAML.Scanner.ScannerState.advanceNLoop</title>
<g id="a_node5"><a xlink:href="../../../api/L4YAML/Scanner/State.html#L4YAML.Scanner.ScannerState.advanceNLoop" xlink:title="ScannerState.advanceNLoop" target="_blank">
<polygon fill="#dce9f7" stroke="#4a90d9" points="731,-52 588,-52 588,-16 731,-16 731,-52"/>
<text text-anchor="middle" x="659.5" y="-31.5" font-family="Helvetica" font-size="10.00">ScannerState.advanceNLoop</text>
</a>
</g>
</g>
<!-- L4YAML.Scanner.ScannerState.advanceNLoop.eq_def&#45;&gt;L4YAML.Scanner.ScannerState.advanceNLoop -->
<g id="edge4" class="edge">
<title>L4YAML.Scanner.ScannerState.advanceNLoop.eq_def&#45;&gt;L4YAML.Scanner.ScannerState.advanceNLoop</title>
<path fill="none" stroke="#4a90d9" stroke-width="2" d="M498.55,-118.04C523.74,-107.59 552.8,-94.87 578.5,-82 594.26,-74.11 611.19,-64.47 625.48,-55.98"/>
<polygon fill="#4a90d9" stroke="#4a90d9" stroke-width="2" points="627.1,-57.87 631.85,-52.18 624.59,-53.67 627.1,-57.87"/>
<text text-anchor="middle" x="571" y="-92.6" font-family="Times-Roman" font-size="8.00" fill="#4a90d9">about</text>
</g>
</g>
</svg>
