<?xml version="1.0" encoding="UTF-8" standalone="no"?>
<!DOCTYPE svg PUBLIC "-//W3C//DTD SVG 1.1//EN"
 "http://www.w3.org/Graphics/SVG/1.1/DTD/svg11.dtd">
<!-- Generated by graphviz version 2.44.0 (0)
 -->
<!-- Title: collectPlainScalarLoop.eq_def Pages: 1 -->
<svg width="676pt" height="1228pt"
 viewBox="0.00 0.00 675.72 1228.00" xmlns="http://www.w3.org/2000/svg" xmlns:xlink="http://www.w3.org/1999/xlink">
<g id="graph0" class="graph" transform="scale(1 1) rotate(0) translate(4 1224)">
<title>collectPlainScalarLoop.eq_def</title>
<polygon fill="white" stroke="transparent" points="-4,4 -4,-1224 671.72,-1224 671.72,4 -4,4"/>
<text text-anchor="middle" x="333.86" y="-1205.6" font-family="Helvetica Bold" font-size="13.00">collectPlainScalarLoop.eq_def</text>
<text text-anchor="middle" x="333.86" y="-1191.6" font-family="Helvetica Bold" font-size="13.00">(heuristic: used by 13 proofs)</text>
<text text-anchor="middle" x="333.86" y="-1177.6" font-family="Helvetica Bold" font-size="13.00">(L4YAML.Proofs.Coupling.ScalarCoupling)</text>
<g id="clust1" class="cluster">
<title>cluster_functions</title>
<polygon fill="none" stroke="#4a90d9" stroke-dasharray="5,2" points="446.72,-8 446.72,-1162 659.72,-1162 659.72,-8 446.72,-8"/>
<text text-anchor="middle" x="553.22" y="-1147.6" font-family="Helvetica Bold" font-size="13.00" fill="#4a90d9">Functions</text>
</g>
<g id="clust2" class="cluster">
<title>cluster_key</title>
<polygon fill="none" stroke="#d4a017" stroke-dasharray="5,2" points="139.19,-544 139.19,-626 401.72,-626 401.72,-544 139.19,-544"/>
<text text-anchor="middle" x="270.45" y="-611.6" font-family="Helvetica Bold" font-size="13.00" fill="#d4a017">Key Theorem</text>
</g>
<g id="clust4" class="cluster">
<title>cluster_stdlib</title>
<polygon fill="none" stroke="#e67e22" stroke-dasharray="5,2" points="8,-548 8,-622 118.19,-622 118.19,-548 8,-548"/>
<text text-anchor="middle" x="63.09" y="-607.6" font-family="Helvetica Bold" font-size="13.00" fill="#e67e22">Stdlib Lemmas</text>
</g>
<!-- L4YAML.Scanner.collectPlainScalar_handleBlockLineBreak -->
<g id="node1" class="node">
<title>L4YAML.Scanner.collectPlainScalar_handleBlockLineBreak</title>
<g id="a_node1"><a xlink:href="../../../api/L4YAML/Scanner/Scalar.html#L4YAML.Scanner.collectPlainScalar_handleBlockLineBreak" xlink:title="collectPlainScalar_handleBlockLineBreak\n(def)" target="_blank">
<polygon fill="#dce9f7" stroke="#4a90d9" points="651.72,-1132 454.72,-1132 454.72,-1096 651.72,-1096 651.72,-1132"/>
<text text-anchor="middle" x="553.22" y="-1117" font-family="Helvetica" font-size="10.00">collectPlainScalar_handleBlockLineBreak</text>
<text text-anchor="middle" x="553.22" y="-1106" font-family="Helvetica" font-size="10.00">(def)</text>
</a>
</g>
</g>
<!-- L4YAML.Scanner.collectHexDigitsLoop.match_3 -->
<g id="node2" class="node">
<title>L4YAML.Scanner.collectHexDigitsLoop.match_3</title>
<g id="a_node2"><a xlink:href="../../../api/L4YAML/Scanner/Scalar.html#L4YAML.Scanner.collectHexDigitsLoop.match_3" xlink:title="collectHexDigitsLoop.match_3\n(def)" target="_blank">
<polygon fill="#dce9f7" stroke="#4a90d9" points="628.22,-1078 478.22,-1078 478.22,-1042 628.22,-1042 628.22,-1078"/>
<text text-anchor="middle" x="553.22" y="-1063" font-family="Helvetica" font-size="10.00">collectHexDigitsLoop.match_3</text>
<text text-anchor="middle" x="553.22" y="-1052" font-family="Helvetica" font-size="10.00">(def)</text>
</a>
</g>
</g>
<!-- L4YAML.Scanner.ScannerState.advance -->
<g id="node3" class="node">
<title>L4YAML.Scanner.ScannerState.advance</title>
<g id="a_node3"><a xlink:href="../../../api/L4YAML/Scanner/State.html#L4YAML.Scanner.ScannerState.advance" xlink:title="ScannerState.advance\n(def)" target="_blank">
<polygon fill="#dce9f7" stroke="#4a90d9" points="610.72,-1024 495.72,-1024 495.72,-988 610.72,-988 610.72,-1024"/>
<text text-anchor="middle" x="553.22" y="-1009" font-family="Helvetica" font-size="10.00">ScannerState.advance</text>
<text text-anchor="middle" x="553.22" y="-998" font-family="Helvetica" font-size="10.00">(def)</text>
</a>
</g>
</g>
<!-- L4YAML.Scanner.ScannerState.peek? -->
<g id="node4" class="node">
<title>L4YAML.Scanner.ScannerState.peek?</title>
<g id="a_node4"><a xlink:href="../../../api/L4YAML/Scanner/State.html#L4YAML.Scanner.ScannerState.peek?" xlink:title="ScannerState.peek?\n(def)" target="_blank">
<polygon fill="#dce9f7" stroke="#4a90d9" points="605.22,-970 501.22,-970 501.22,-934 605.22,-934 605.22,-970"/>
<text text-anchor="middle" x="553.22" y="-955" font-family="Helvetica" font-size="10.00">ScannerState.peek?</text>
<text text-anchor="middle" x="553.22" y="-944" font-family="Helvetica" font-size="10.00">(def)</text>
</a>
</g>
</g>
<!-- L4YAML.Scanner.PlainScalarResult.mk -->
<g id="node5" class="node">
<title>L4YAML.Scanner.PlainScalarResult.mk</title>
<g id="a_node5"><a xlink:href="../../../api/L4YAML/Scanner/Scalar.html#L4YAML.Scanner.PlainScalarResult.mk" xlink:title="PlainScalarResult.mk\n(ctor)" target="_blank">
<polygon fill="#dce9f7" stroke="#4a90d9" points="608.22,-916 498.22,-916 498.22,-880 608.22,-880 608.22,-916"/>
<text text-anchor="middle" x="553.22" y="-901" font-family="Helvetica" font-size="10.00">PlainScalarResult.mk</text>
<text text-anchor="middle" x="553.22" y="-890" font-family="Helvetica" font-size="10.00">(ctor)</text>
</a>
</g>
</g>
<!-- L4YAML.Scanner.foldQuotedNewlines -->
<g id="node6" class="node">
<title>L4YAML.Scanner.foldQuotedNewlines</title>
<g id="a_node6"><a xlink:href="../../../api/L4YAML/Scanner/Scalar.html#L4YAML.Scanner.foldQuotedNewlines" xlink:title="foldQuotedNewlines\n(def)" target="_blank">
<polygon fill="#dce9f7" stroke="#4a90d9" points="605.22,-862 501.22,-862 501.22,-826 605.22,-826 605.22,-862"/>
<text text-anchor="middle" x="553.22" y="-847" font-family="Helvetica" font-size="10.00">foldQuotedNewlines</text>
<text text-anchor="middle" x="553.22" y="-836" font-family="Helvetica" font-size="10.00">(def)</text>
</a>
</g>
</g>
<!-- L4YAML.Scanner.ScannerState -->
<g id="node7" class="node">
<title>L4YAML.Scanner.ScannerState</title>
<g id="a_node7"><a xlink:href="../../../api/L4YAML/Scanner/State.html#L4YAML.Scanner.ScannerState" xlink:title="ScannerState\n(inductive)" target="_blank">
<polygon fill="#dce9f7" stroke="#4a90d9" points="591.22,-808 515.22,-808 515.22,-772 591.22,-772 591.22,-808"/>
<text text-anchor="middle" x="553.22" y="-793" font-family="Helvetica" font-size="10.00">ScannerState</text>
<text text-anchor="middle" x="553.22" y="-782" font-family="Helvetica" font-size="10.00">(inductive)</text>
</a>
</g>
</g>
<!-- L4YAML.Scanner.PlainScalarResult.content -->
<g id="node8" class="node">
<title>L4YAML.Scanner.PlainScalarResult.content</title>
<g id="a_node8"><a xlink:href="../../../api/L4YAML/Scanner/Scalar.html#L4YAML.Scanner.PlainScalarResult.content" xlink:title="PlainScalarResult.content\n(def)" target="_blank">
<polygon fill="#dce9f7" stroke="#4a90d9" points="617.22,-754 489.22,-754 489.22,-718 617.22,-718 617.22,-754"/>
<text text-anchor="middle" x="553.22" y="-739" font-family="Helvetica" font-size="10.00">PlainScalarResult.content</text>
<text text-anchor="middle" x="553.22" y="-728" font-family="Helvetica" font-size="10.00">(def)</text>
</a>
</g>
</g>
<!-- L4YAML.Scanner.collectPlainScalarLoop.match_5 -->
<g id="node9" class="node">
<title>L4YAML.Scanner.collectPlainScalarLoop.match_5</title>
<g id="a_node9"><a xlink:href="../../../api/L4YAML/Scanner/Scalar.html#L4YAML.Scanner.collectPlainScalarLoop.match_5" xlink:title="collectPlainScalarLoop.match_5\n(def)" target="_blank">
<polygon fill="#dce9f7" stroke="#4a90d9" points="631.22,-700 475.22,-700 475.22,-664 631.22,-664 631.22,-700"/>
<text text-anchor="middle" x="553.22" y="-685" font-family="Helvetica" font-size="10.00">collectPlainScalarLoop.match_5</text>
<text text-anchor="middle" x="553.22" y="-674" font-family="Helvetica" font-size="10.00">(def)</text>
</a>
</g>
</g>
<!-- L4YAML.Scanner.processEscape.match_3 -->
<g id="node10" class="node">
<title>L4YAML.Scanner.processEscape.match_3</title>
<g id="a_node10"><a xlink:href="../../../api/L4YAML/Scanner/Scalar.html#L4YAML.Scanner.processEscape.match_3" xlink:title="processEscape.match_3\n(def)" target="_blank">
<polygon fill="#dce9f7" stroke="#4a90d9" points="615.72,-646 490.72,-646 490.72,-610 615.72,-610 615.72,-646"/>
<text text-anchor="middle" x="553.22" y="-631" font-family="Helvetica" font-size="10.00">processEscape.match_3</text>
<text text-anchor="middle" x="553.22" y="-620" font-family="Helvetica" font-size="10.00">(def)</text>
</a>
</g>
</g>
<!-- L4YAML.CharPredicates.isWhiteSpaceBool -->
<g id="node11" class="node">
<title>L4YAML.CharPredicates.isWhiteSpaceBool</title>
<g id="a_node11"><a xlink:href="../../../api/L4YAML/Spec/CharPredicates.html#L4YAML.CharPredicates.isWhiteSpaceBool" xlink:title="CharPredicates.isWhiteSpaceBool\n(def)" target="_blank">
<polygon fill="#dce9f7" stroke="#4a90d9" points="636.72,-592 469.72,-592 469.72,-556 636.72,-556 636.72,-592"/>
<text text-anchor="middle" x="553.22" y="-577" font-family="Helvetica" font-size="10.00">CharPredicates.isWhiteSpaceBool</text>
<text text-anchor="middle" x="553.22" y="-566" font-family="Helvetica" font-size="10.00">(def)</text>
</a>
</g>
</g>
<!-- L4YAML.Scanner.collectPlainScalarLoop.match_7 -->
<g id="node12" class="node">
<title>L4YAML.Scanner.collectPlainScalarLoop.match_7</title>
<g id="a_node12"><a xlink:href="../../../api/L4YAML/Scanner/Scalar.html#L4YAML.Scanner.collectPlainScalarLoop.match_7" xlink:title="collectPlainScalarLoop.match_7\n(def)" target="_blank">
<polygon fill="#dce9f7" stroke="#4a90d9" points="631.22,-538 475.22,-538 475.22,-502 631.22,-502 631.22,-538"/>
<text text-anchor="middle" x="553.22" y="-523" font-family="Helvetica" font-size="10.00">collectPlainScalarLoop.match_7</text>
<text text-anchor="middle" x="553.22" y="-512" font-family="Helvetica" font-size="10.00">(def)</text>
</a>
</g>
</g>
<!-- L4YAML.CharPredicates.isLineBreakBool -->
<g id="node13" class="node">
<title>L4YAML.CharPredicates.isLineBreakBool</title>
<g id="a_node13"><a xlink:href="../../../api/L4YAML/Spec/CharPredicates.html#L4YAML.CharPredicates.isLineBreakBool" xlink:title="CharPredicates.isLineBreakBool\n(def)" target="_blank">
<polygon fill="#dce9f7" stroke="#4a90d9" points="632.22,-484 474.22,-484 474.22,-448 632.22,-448 632.22,-484"/>
<text text-anchor="middle" x="553.22" y="-469" font-family="Helvetica" font-size="10.00">CharPredicates.isLineBreakBool</text>
<text text-anchor="middle" x="553.22" y="-458" font-family="Helvetica" font-size="10.00">(def)</text>
</a>
</g>
</g>
<!-- L4YAML.Scanner.parseHexEscape.match_1 -->
<g id="node14" class="node">
<title>L4YAML.Scanner.parseHexEscape.match_1</title>
<g id="a_node14"><a xlink:href="../../../api/L4YAML/Scanner/Scalar.html#L4YAML.Scanner.parseHexEscape.match_1" xlink:title="parseHexEscape.match_1\n(def)" target="_blank">
<polygon fill="#dce9f7" stroke="#4a90d9" points="619.72,-430 486.72,-430 486.72,-394 619.72,-394 619.72,-430"/>
<text text-anchor="middle" x="553.22" y="-415" font-family="Helvetica" font-size="10.00">parseHexEscape.match_1</text>
<text text-anchor="middle" x="553.22" y="-404" font-family="Helvetica" font-size="10.00">(def)</text>
</a>
</g>
</g>
<!-- L4YAML.Scanner.collectPlainScalar_terminates? -->
<g id="node15" class="node">
<title>L4YAML.Scanner.collectPlainScalar_terminates?</title>
<g id="a_node15"><a xlink:href="../../../api/L4YAML/Scanner/Scalar.html#L4YAML.Scanner.collectPlainScalar_terminates?" xlink:title="collectPlainScalar_terminates?\n(def)" target="_blank">
<polygon fill="#dce9f7" stroke="#4a90d9" points="628.22,-376 478.22,-376 478.22,-340 628.22,-340 628.22,-376"/>
<text text-anchor="middle" x="553.22" y="-361" font-family="Helvetica" font-size="10.00">collectPlainScalar_terminates?</text>
<text text-anchor="middle" x="553.22" y="-350" font-family="Helvetica" font-size="10.00">(def)</text>
</a>
</g>
</g>
<!-- L4YAML.Scanner.collectPlainScalarLoop.match_3 -->
<g id="node16" class="node">
<title>L4YAML.Scanner.collectPlainScalarLoop.match_3</title>
<g id="a_node16"><a xlink:href="../../../api/L4YAML/Scanner/Scalar.html#L4YAML.Scanner.collectPlainScalarLoop.match_3" xlink:title="collectPlainScalarLoop.match_3\n(def)" target="_blank">
<polygon fill="#dce9f7" stroke="#4a90d9" points="631.22,-322 475.22,-322 475.22,-286 631.22,-286 631.22,-322"/>
<text text-anchor="middle" x="553.22" y="-307" font-family="Helvetica" font-size="10.00">collectPlainScalarLoop.match_3</text>
<text text-anchor="middle" x="553.22" y="-296" font-family="Helvetica" font-size="10.00">(def)</text>
</a>
</g>
</g>
<!-- L4YAML.Scanner.collectPlainScalarLoop -->
<g id="node17" class="node">
<title>L4YAML.Scanner.collectPlainScalarLoop</title>
<g id="a_node17"><a xlink:href="../../../api/L4YAML/Scanner/Scalar.html#L4YAML.Scanner.collectPlainScalarLoop" xlink:title="collectPlainScalarLoop\n(def)" target="_blank">
<polygon fill="#dce9f7" stroke="#4a90d9" points="611.22,-268 495.22,-268 495.22,-232 611.22,-232 611.22,-268"/>
<text text-anchor="middle" x="553.22" y="-253" font-family="Helvetica" font-size="10.00">collectPlainScalarLoop</text>
<text text-anchor="middle" x="553.22" y="-242" font-family="Helvetica" font-size="10.00">(def)</text>
</a>
</g>
</g>
<!-- L4YAML.CharPredicates.isPlainSafeBool -->
<g id="node18" class="node">
<title>L4YAML.CharPredicates.isPlainSafeBool</title>
<g id="a_node18"><a xlink:href="../../../api/L4YAML/Spec/CharPredicates.html#L4YAML.CharPredicates.isPlainSafeBool" xlink:title="CharPredicates.isPlainSafeBool\n(def)" target="_blank">
<polygon fill="#dce9f7" stroke="#4a90d9" points="631.22,-214 475.22,-214 475.22,-178 631.22,-178 631.22,-214"/>
<text text-anchor="middle" x="553.22" y="-199" font-family="Helvetica" font-size="10.00">CharPredicates.isPlainSafeBool</text>
<text text-anchor="middle" x="553.22" y="-188" font-family="Helvetica" font-size="10.00">(def)</text>
</a>
</g>
</g>
<!-- L4YAML.ScanError -->
<g id="node19" class="node">
<title>L4YAML.ScanError</title>
<g id="a_node19"><a xlink:href="../../../api/L4YAML/Token/Token.html#L4YAML.ScanError" xlink:title="ScanError\n(inductive)" target="_blank">
<polygon fill="#dce9f7" stroke="#4a90d9" points="584.22,-160 522.22,-160 522.22,-124 584.22,-124 584.22,-160"/>
<text text-anchor="middle" x="553.22" y="-145" font-family="Helvetica" font-size="10.00">ScanError</text>
<text text-anchor="middle" x="553.22" y="-134" font-family="Helvetica" font-size="10.00">(inductive)</text>
</a>
</g>
</g>
<!-- L4YAML.Scanner.collectPlainScalarLoop.match_1 -->
<g id="node20" class="node">
<title>L4YAML.Scanner.collectPlainScalarLoop.match_1</title>
<g id="a_node20"><a xlink:href="../../../api/L4YAML/Scanner/Scalar.html#L4YAML.Scanner.collectPlainScalarLoop.match_1" xlink:title="collectPlainScalarLoop.match_1\n(def)" target="_blank">
<polygon fill="#dce9f7" stroke="#4a90d9" points="631.22,-106 475.22,-106 475.22,-70 631.22,-70 631.22,-106"/>
<text text-anchor="middle" x="553.22" y="-91" font-family="Helvetica" font-size="10.00">collectPlainScalarLoop.match_1</text>
<text text-anchor="middle" x="553.22" y="-80" font-family="Helvetica" font-size="10.00">(def)</text>
</a>
</g>
</g>
<!-- L4YAML.Scanner.PlainScalarResult -->
<g id="node21" class="node">
<title>L4YAML.Scanner.PlainScalarResult</title>
<g id="a_node21"><a xlink:href="../../../api/L4YAML/Scanner/Scalar.html#L4YAML.Scanner.PlainScalarResult" xlink:title="PlainScalarResult\n(inductive)" target="_blank">
<polygon fill="#dce9f7" stroke="#4a90d9" points="600.22,-52 506.22,-52 506.22,-16 600.22,-16 600.22,-52"/>
<text text-anchor="middle" x="553.22" y="-37" font-family="Helvetica" font-size="10.00">PlainScalarResult</text>
<text text-anchor="middle" x="553.22" y="-26" font-family="Helvetica" font-size="10.00">(inductive)</text>
</a>
</g>
</g>
<!-- L4YAML.Scanner.collectPlainScalarLoop.eq_def -->
<g id="node22" class="node">
<title>L4YAML.Scanner.collectPlainScalarLoop.eq_def</title>
<g id="a_node22"><a xlink:href="../../../api/L4YAML/Proofs/Coupling/ScalarCoupling.html#L4YAML.Scanner.collectPlainScalarLoop.eq_def" xlink:title="collectPlainScalarLoop.eq_def" target="_blank">
<polygon fill="#fff3cd" stroke="#d4a017" points="389.5,-566.54 389.5,-581.46 319.77,-592 221.14,-592 151.41,-581.46 151.41,-566.54 221.14,-556 319.77,-556 389.5,-566.54"/>
<polygon fill="none" stroke="#d4a017" points="393.49,-563.1 393.49,-584.9 320.06,-596 220.85,-596 147.42,-584.9 147.42,-563.1 220.85,-552 320.06,-552 393.49,-563.1"/>
<text text-anchor="middle" x="270.45" y="-570.9" font-family="Helvetica" font-size="12.00">collectPlainScalarLoop.eq_def</text>
</a>
</g>
</g>
<!-- L4YAML.Scanner.collectPlainScalarLoop.eq_def&#45;&gt;L4YAML.Scanner.collectPlainScalar_handleBlockLineBreak -->
<g id="edge17" class="edge">
<title>L4YAML.Scanner.collectPlainScalarLoop.eq_def&#45;&gt;L4YAML.Scanner.collectPlainScalar_handleBlockLineBreak</title>
<path fill="none" stroke="#4a90d9" stroke-width="2" d="M275.56,-596.14C288.77,-664.43 333.88,-876.86 411.72,-1037 423.58,-1061.4 424.42,-1071.57 446.72,-1087 449.63,-1089.01 452.68,-1090.87 455.83,-1092.6"/>
<polygon fill="#4a90d9" stroke="#4a90d9" stroke-width="2" points="455.07,-1094.96 462.42,-1095.94 457.29,-1090.59 455.07,-1094.96"/>
<text text-anchor="middle" x="424.22" y="-1081.6" font-family="Times-Roman" font-size="8.00" fill="#4a90d9">about</text>
</g>
<!-- L4YAML.Scanner.collectPlainScalarLoop.eq_def&#45;&gt;L4YAML.Scanner.collectHexDigitsLoop.match_3 -->
<g id="edge10" class="edge">
<title>L4YAML.Scanner.collectPlainScalarLoop.eq_def&#45;&gt;L4YAML.Scanner.collectHexDigitsLoop.match_3</title>
<path fill="none" stroke="#4a90d9" stroke-width="2" d="M277.26,-596.09C293.91,-657.98 344.99,-837.7 411.72,-977 424.4,-1003.47 423.03,-1015.68 446.72,-1033 454.14,-1038.42 462.55,-1042.76 471.3,-1046.23"/>
<polygon fill="#4a90d9" stroke="#4a90d9" stroke-width="2" points="470.63,-1048.6 478.04,-1048.72 472.32,-1044 470.63,-1048.6"/>
<text text-anchor="middle" x="424.22" y="-1026.6" font-family="Times-Roman" font-size="8.00" fill="#4a90d9">about</text>
</g>
<!-- L4YAML.Scanner.collectPlainScalarLoop.eq_def&#45;&gt;L4YAML.Scanner.ScannerState.advance -->
<g id="edge3" class="edge">
<title>L4YAML.Scanner.collectPlainScalarLoop.eq_def&#45;&gt;L4YAML.Scanner.ScannerState.advance</title>
<path fill="none" stroke="#4a90d9" stroke-width="2" d="M273.41,-596.38C280.87,-666.64 314.21,-883.77 446.72,-979 458.93,-987.77 473.73,-993.7 488.33,-997.7"/>
<polygon fill="#4a90d9" stroke="#4a90d9" stroke-width="2" points="488.08,-1000.17 495.47,-999.52 489.29,-995.42 488.08,-1000.17"/>
<text text-anchor="middle" x="424.22" y="-966.6" font-family="Times-Roman" font-size="8.00" fill="#4a90d9">about</text>
</g>
<!-- L4YAML.Scanner.collectPlainScalarLoop.eq_def&#45;&gt;L4YAML.Scanner.ScannerState.peek? -->
<g id="edge20" class="edge">
<title>L4YAML.Scanner.collectPlainScalarLoop.eq_def&#45;&gt;L4YAML.Scanner.ScannerState.peek?</title>
<path fill="none" stroke="#4a90d9" stroke-width="2" d="M275.2,-596.34C287.12,-659.86 330.49,-842.22 446.72,-925 460.6,-934.88 477.79,-941.16 494.23,-945.13"/>
<polygon fill="#4a90d9" stroke="#4a90d9" stroke-width="2" points="493.85,-947.56 501.21,-946.7 494.92,-942.78 493.85,-947.56"/>
<text text-anchor="middle" x="424.22" y="-914.6" font-family="Times-Roman" font-size="8.00" fill="#4a90d9">about</text>
</g>
<!-- L4YAML.Scanner.collectPlainScalarLoop.eq_def&#45;&gt;L4YAML.Scanner.PlainScalarResult.mk -->
<g id="edge2" class="edge">
<title>L4YAML.Scanner.collectPlainScalarLoop.eq_def&#45;&gt;L4YAML.Scanner.PlainScalarResult.mk</title>
<path fill="none" stroke="#4a90d9" stroke-width="2" d="M277.57,-596.29C294.25,-652.54 346.12,-800.69 446.72,-871 459.76,-880.11 475.62,-886.15 491.04,-890.15"/>
<polygon fill="#4a90d9" stroke="#4a90d9" stroke-width="2" points="490.7,-892.59 498.08,-891.85 491.85,-887.83 490.7,-892.59"/>
<text text-anchor="middle" x="424.22" y="-861.6" font-family="Times-Roman" font-size="8.00" fill="#4a90d9">about</text>
</g>
<!-- L4YAML.Scanner.collectPlainScalarLoop.eq_def&#45;&gt;L4YAML.Scanner.foldQuotedNewlines -->
<g id="edge21" class="edge">
<title>L4YAML.Scanner.collectPlainScalarLoop.eq_def&#45;&gt;L4YAML.Scanner.foldQuotedNewlines</title>
<path fill="none" stroke="#4a90d9" stroke-width="2" d="M280.93,-596.11C302.73,-644.2 361.19,-758.7 446.72,-817 460.74,-826.55 477.88,-832.72 494.24,-836.71"/>
<polygon fill="#4a90d9" stroke="#4a90d9" stroke-width="2" points="493.82,-839.13 501.19,-838.29 494.91,-834.35 493.82,-839.13"/>
<text text-anchor="middle" x="424.22" y="-809.6" font-family="Times-Roman" font-size="8.00" fill="#4a90d9">about</text>
</g>
<!-- L4YAML.Scanner.collectPlainScalarLoop.eq_def&#45;&gt;L4YAML.Scanner.ScannerState -->
<g id="edge11" class="edge">
<title>L4YAML.Scanner.collectPlainScalarLoop.eq_def&#45;&gt;L4YAML.Scanner.ScannerState</title>
<path fill="none" stroke="#4a90d9" stroke-width="2" d="M285.62,-596.22C312.18,-636.03 373.47,-719.4 446.72,-763 465.25,-774.02 488.19,-780.58 507.95,-784.47"/>
<polygon fill="#4a90d9" stroke="#4a90d9" stroke-width="2" points="507.74,-786.92 515.07,-785.78 508.63,-782.1 507.74,-786.92"/>
<text text-anchor="middle" x="424.22" y="-757.6" font-family="Times-Roman" font-size="8.00" fill="#4a90d9">about</text>
</g>
<!-- L4YAML.Scanner.collectPlainScalarLoop.eq_def&#45;&gt;L4YAML.Scanner.PlainScalarResult.content -->
<g id="edge14" class="edge">
<title>L4YAML.Scanner.collectPlainScalarLoop.eq_def&#45;&gt;L4YAML.Scanner.PlainScalarResult.content</title>
<path fill="none" stroke="#4a90d9" stroke-width="2" d="M293.77,-596.13C325.22,-626.08 385.61,-679.22 446.72,-709 457.84,-714.42 470.16,-718.83 482.34,-722.39"/>
<polygon fill="#4a90d9" stroke="#4a90d9" stroke-width="2" points="481.69,-724.75 489.09,-724.29 483.01,-720.04 481.69,-724.75"/>
<text text-anchor="middle" x="424.22" y="-705.6" font-family="Times-Roman" font-size="8.00" fill="#4a90d9">about</text>
</g>
<!-- L4YAML.Scanner.collectPlainScalarLoop.eq_def&#45;&gt;L4YAML.Scanner.collectPlainScalarLoop.match_5 -->
<g id="edge4" class="edge">
<title>L4YAML.Scanner.collectPlainScalarLoop.eq_def&#45;&gt;L4YAML.Scanner.collectPlainScalarLoop.match_5</title>
<path fill="none" stroke="#4a90d9" stroke-width="2" d="M313.41,-596.03C348.36,-613.73 399.82,-638.32 446.72,-655 453.68,-657.47 460.97,-659.82 468.32,-662.02"/>
<polygon fill="#4a90d9" stroke="#4a90d9" stroke-width="2" points="467.69,-664.39 475.09,-664 469.06,-659.69 467.69,-664.39"/>
<text text-anchor="middle" x="424.22" y="-651.6" font-family="Times-Roman" font-size="8.00" fill="#4a90d9">about</text>
</g>
<!-- L4YAML.Scanner.collectPlainScalarLoop.eq_def&#45;&gt;L4YAML.Scanner.processEscape.match_3 -->
<g id="edge1" class="edge">
<title>L4YAML.Scanner.collectPlainScalarLoop.eq_def&#45;&gt;L4YAML.Scanner.processEscape.match_3</title>
<path fill="none" stroke="#4a90d9" stroke-width="2" d="M357.22,-590.5C397.76,-598.29 445.49,-607.47 483.58,-614.8"/>
<polygon fill="#4a90d9" stroke="#4a90d9" stroke-width="2" points="483.24,-617.23 490.58,-616.14 484.17,-612.42 483.24,-617.23"/>
<text text-anchor="middle" x="424.22" y="-606.6" font-family="Times-Roman" font-size="8.00" fill="#4a90d9">about</text>
</g>
<!-- L4YAML.Scanner.collectPlainScalarLoop.eq_def&#45;&gt;L4YAML.CharPredicates.isWhiteSpaceBool -->
<g id="edge18" class="edge">
<title>L4YAML.Scanner.collectPlainScalarLoop.eq_def&#45;&gt;L4YAML.CharPredicates.isWhiteSpaceBool</title>
<path fill="none" stroke="#4a90d9" stroke-width="2" d="M393.79,-574C416.86,-574 440.59,-574 462.43,-574"/>
<polygon fill="#4a90d9" stroke="#4a90d9" stroke-width="2" points="462.45,-576.45 469.45,-574 462.45,-571.55 462.45,-576.45"/>
<text text-anchor="middle" x="424.22" y="-576.6" font-family="Times-Roman" font-size="8.00" fill="#4a90d9">about</text>
</g>
<!-- L4YAML.Scanner.collectPlainScalarLoop.eq_def&#45;&gt;L4YAML.Scanner.collectPlainScalarLoop.match_7 -->
<g id="edge16" class="edge">
<title>L4YAML.Scanner.collectPlainScalarLoop.eq_def&#45;&gt;L4YAML.Scanner.collectPlainScalarLoop.match_7</title>
<path fill="none" stroke="#4a90d9" stroke-width="2" d="M357.22,-557.5C392.45,-550.73 433.11,-542.91 468.16,-536.17"/>
<polygon fill="#4a90d9" stroke="#4a90d9" stroke-width="2" points="468.68,-538.56 475.09,-534.83 467.75,-533.75 468.68,-538.56"/>
<text text-anchor="middle" x="424.22" y="-549.6" font-family="Times-Roman" font-size="8.00" fill="#4a90d9">about</text>
</g>
<!-- L4YAML.Scanner.collectPlainScalarLoop.eq_def&#45;&gt;L4YAML.CharPredicates.isLineBreakBool -->
<g id="edge8" class="edge">
<title>L4YAML.Scanner.collectPlainScalarLoop.eq_def&#45;&gt;L4YAML.CharPredicates.isLineBreakBool</title>
<path fill="none" stroke="#4a90d9" stroke-width="2" d="M313.41,-551.97C348.36,-534.27 399.82,-509.68 446.72,-493 453.47,-490.6 460.53,-488.32 467.66,-486.18"/>
<polygon fill="#4a90d9" stroke="#4a90d9" stroke-width="2" points="468.78,-488.4 474.81,-484.08 467.4,-483.7 468.78,-488.4"/>
<text text-anchor="middle" x="424.22" y="-508.6" font-family="Times-Roman" font-size="8.00" fill="#4a90d9">about</text>
</g>
<!-- L4YAML.Scanner.collectPlainScalarLoop.eq_def&#45;&gt;L4YAML.Scanner.parseHexEscape.match_1 -->
<g id="edge12" class="edge">
<title>L4YAML.Scanner.collectPlainScalarLoop.eq_def&#45;&gt;L4YAML.Scanner.parseHexEscape.match_1</title>
<path fill="none" stroke="#4a90d9" stroke-width="2" d="M293.77,-551.87C325.22,-521.92 385.61,-468.78 446.72,-439 457,-433.99 468.3,-429.85 479.58,-426.43"/>
<polygon fill="#4a90d9" stroke="#4a90d9" stroke-width="2" points="480.55,-428.7 486.59,-424.4 479.18,-423.99 480.55,-428.7"/>
<text text-anchor="middle" x="424.22" y="-458.6" font-family="Times-Roman" font-size="8.00" fill="#4a90d9">about</text>
</g>
<!-- L4YAML.Scanner.collectPlainScalarLoop.eq_def&#45;&gt;L4YAML.Scanner.collectPlainScalar_terminates? -->
<g id="edge5" class="edge">
<title>L4YAML.Scanner.collectPlainScalarLoop.eq_def&#45;&gt;L4YAML.Scanner.collectPlainScalar_terminates?</title>
<path fill="none" stroke="#4a90d9" stroke-width="2" d="M285.62,-551.78C312.18,-511.97 373.47,-428.6 446.72,-385 454.36,-380.45 462.75,-376.67 471.36,-373.51"/>
<polygon fill="#4a90d9" stroke="#4a90d9" stroke-width="2" points="472.17,-375.83 477.98,-371.22 470.57,-371.2 472.17,-375.83"/>
<text text-anchor="middle" x="424.22" y="-410.6" font-family="Times-Roman" font-size="8.00" fill="#4a90d9">about</text>
</g>
<!-- L4YAML.Scanner.collectPlainScalarLoop.eq_def&#45;&gt;L4YAML.Scanner.collectPlainScalarLoop.match_3 -->
<g id="edge15" class="edge">
<title>L4YAML.Scanner.collectPlainScalarLoop.eq_def&#45;&gt;L4YAML.Scanner.collectPlainScalarLoop.match_3</title>
<path fill="none" stroke="#4a90d9" stroke-width="2" d="M280.91,-551.86C302.66,-503.7 361.04,-389.08 446.72,-331 453.45,-326.44 460.89,-322.65 468.61,-319.5"/>
<polygon fill="#4a90d9" stroke="#4a90d9" stroke-width="2" points="469.49,-321.79 475.16,-317.01 467.75,-317.21 469.49,-321.79"/>
<text text-anchor="middle" x="424.22" y="-357.6" font-family="Times-Roman" font-size="8.00" fill="#4a90d9">about</text>
</g>
<!-- L4YAML.Scanner.collectPlainScalarLoop.eq_def&#45;&gt;L4YAML.Scanner.collectPlainScalarLoop -->
<g id="edge7" class="edge">
<title>L4YAML.Scanner.collectPlainScalarLoop.eq_def&#45;&gt;L4YAML.Scanner.collectPlainScalarLoop</title>
<path fill="none" stroke="#4a90d9" stroke-width="2" d="M277.53,-551.65C294.12,-495.28 345.79,-346.84 446.72,-277 458.95,-268.54 473.62,-262.73 488.08,-258.74"/>
<polygon fill="#4a90d9" stroke="#4a90d9" stroke-width="2" points="488.97,-261.04 495.14,-256.92 487.75,-256.29 488.97,-261.04"/>
<text text-anchor="middle" x="424.22" y="-302.6" font-family="Times-Roman" font-size="8.00" fill="#4a90d9">about</text>
</g>
<!-- L4YAML.Scanner.collectPlainScalarLoop.eq_def&#45;&gt;L4YAML.CharPredicates.isPlainSafeBool -->
<g id="edge9" class="edge">
<title>L4YAML.Scanner.collectPlainScalarLoop.eq_def&#45;&gt;L4YAML.CharPredicates.isPlainSafeBool</title>
<path fill="none" stroke="#4a90d9" stroke-width="2" d="M275.16,-551.61C286.99,-487.95 330.13,-305.27 446.72,-223 453.23,-218.41 460.45,-214.6 467.97,-211.44"/>
<polygon fill="#4a90d9" stroke="#4a90d9" stroke-width="2" points="469.32,-213.54 474.95,-208.71 467.54,-208.97 469.32,-213.54"/>
<text text-anchor="middle" x="424.22" y="-251.6" font-family="Times-Roman" font-size="8.00" fill="#4a90d9">about</text>
</g>
<!-- L4YAML.Scanner.collectPlainScalarLoop.eq_def&#45;&gt;L4YAML.ScanError -->
<g id="edge13" class="edge">
<title>L4YAML.Scanner.collectPlainScalarLoop.eq_def&#45;&gt;L4YAML.ScanError</title>
<path fill="none" stroke="#4a90d9" stroke-width="2" d="M273.38,-551.57C280.74,-481.17 313.8,-263.67 446.72,-169 466.65,-154.81 493.38,-148.07 514.95,-144.87"/>
<polygon fill="#4a90d9" stroke="#4a90d9" stroke-width="2" points="515.44,-147.27 522.05,-143.91 514.78,-142.42 515.44,-147.27"/>
<text text-anchor="middle" x="424.22" y="-193.6" font-family="Times-Roman" font-size="8.00" fill="#4a90d9">about</text>
</g>
<!-- L4YAML.Scanner.collectPlainScalarLoop.eq_def&#45;&gt;L4YAML.Scanner.collectPlainScalarLoop.match_1 -->
<g id="edge6" class="edge">
<title>L4YAML.Scanner.collectPlainScalarLoop.eq_def&#45;&gt;L4YAML.Scanner.collectPlainScalarLoop.match_1</title>
<path fill="none" stroke="#4a90d9" stroke-width="2" d="M277.19,-551.83C293.67,-489.7 344.33,-309.36 411.72,-170 424.34,-143.92 423.27,-132.01 446.72,-115 453.36,-110.19 460.78,-106.23 468.52,-102.98"/>
<polygon fill="#4a90d9" stroke="#4a90d9" stroke-width="2" points="469.46,-105.24 475.08,-100.41 467.67,-100.68 469.46,-105.24"/>
<text text-anchor="middle" x="424.22" y="-172.6" font-family="Times-Roman" font-size="8.00" fill="#4a90d9">about</text>
</g>
<!-- L4YAML.Scanner.collectPlainScalarLoop.eq_def&#45;&gt;L4YAML.Scanner.PlainScalarResult -->
<g id="edge19" class="edge">
<title>L4YAML.Scanner.collectPlainScalarLoop.eq_def&#45;&gt;L4YAML.Scanner.PlainScalarResult</title>
<path fill="none" stroke="#4a90d9" stroke-width="2" d="M275.49,-551.78C288.47,-483.24 333.01,-270.11 411.72,-110 423.53,-85.98 424.64,-76.12 446.72,-61 462.15,-50.44 481.39,-44.01 499.21,-40.09"/>
<polygon fill="#4a90d9" stroke="#4a90d9" stroke-width="2" points="499.85,-42.46 506.22,-38.66 498.87,-37.66 499.85,-42.46"/>
<text text-anchor="middle" x="424.22" y="-112.6" font-family="Times-Roman" font-size="8.00" fill="#4a90d9">about</text>
</g>
<!-- Nat.brecOn.eq -->
<g id="node23" class="node">
<title>Nat.brecOn.eq</title>
<g id="a_node23"><a xlink:href="../../../api/Init/Prelude.html#Nat.brecOn.eq" xlink:title="Nat.brecOn.eq" target="_blank">
<ellipse fill="#fdebd0" stroke="#e67e22" cx="63.09" cy="-574" rx="47.19" ry="18"/>
<text text-anchor="middle" x="63.09" y="-571.5" font-family="Helvetica" font-size="10.00">Nat.brecOn.eq</text>
</a>
</g>
</g>
<!-- Nat.brecOn.eq&#45;&gt;L4YAML.Scanner.collectPlainScalarLoop.eq_def -->
<g id="edge22" class="edge">
<title>Nat.brecOn.eq&#45;&gt;L4YAML.Scanner.collectPlainScalarLoop.eq_def</title>
<path fill="none" stroke="#e67e22" stroke-width="2" d="M110.44,-574C119.57,-574 129.56,-574 139.95,-574"/>
<polygon fill="#e67e22" stroke="#e67e22" stroke-width="2" points="140.19,-576.45 147.19,-574 140.19,-571.55 140.19,-576.45"/>
</g>
</g>
</svg>
