<?xml version="1.0" encoding="UTF-8" standalone="no"?>
<!DOCTYPE svg PUBLIC "-//W3C//DTD SVG 1.1//EN"
 "http://www.w3.org/Graphics/SVG/1.1/DTD/svg11.dtd">
<!-- Generated by graphviz version 2.44.0 (0)
 -->
<!-- Title: chain_skipToContentLoop.eq_1 Pages: 1 -->
<svg width="499pt" height="310pt"
 viewBox="0.00 0.00 499.00 310.00" xmlns="http://www.w3.org/2000/svg" xmlns:xlink="http://www.w3.org/1999/xlink">
<g id="graph0" class="graph" transform="scale(1 1) rotate(0) translate(4 306)">
<title>chain_skipToContentLoop.eq_1</title>
<polygon fill="white" stroke="transparent" points="-4,4 -4,-306 495,-306 495,4 -4,4"/>
<text text-anchor="middle" x="245.5" y="-287.6" font-family="Helvetica Bold" font-size="13.00">Functorial Chains: skipToContentLoop.eq_1\n(heuristic: used by 6 proofs)</text>
<g id="clust1" class="cluster">
<title>cluster_fns</title>
<polygon fill="none" stroke="#4a90d9" stroke-dasharray="5,2" points="262,-8 262,-163 421,-163 421,-8 262,-8"/>
<text text-anchor="middle" x="341.5" y="-148.6" font-family="Helvetica Bold" font-size="13.00" fill="#4a90d9">Functions (Call Chain)</text>
</g>
<g id="clust2" class="cluster">
<title>cluster_thms</title>
<polygon fill="none" stroke="#28a745" stroke-dasharray="5,2" points="70,-89 70,-272 254,-272 254,-89 70,-89"/>
<text text-anchor="middle" x="162" y="-257.6" font-family="Helvetica Bold" font-size="13.00" fill="#28a745">Theorems (Proof Chain)</text>
</g>
<!-- L4YAML.Scanner.ScannerState -->
<g id="node1" class="node">
<title>L4YAML.Scanner.ScannerState</title>
<g id="a_node1"><a xlink:href="../../../api/L4YAML/Scanner/State.html#L4YAML.Scanner.ScannerState" xlink:title="ScannerState" target="_blank">
<polygon fill="#dce9f7" stroke="#4a90d9" points="352,-52 276,-52 276,-16 352,-16 352,-52"/>
<text text-anchor="middle" x="314" y="-31.5" font-family="Helvetica" font-size="10.00">ScannerState</text>
</a>
</g>
</g>
<!-- L4YAML.Scanner.skipToContentLoop -->
<g id="node2" class="node">
<title>L4YAML.Scanner.skipToContentLoop</title>
<g id="a_node2"><a xlink:href="../../../api/L4YAML/Scanner/Whitespace.html#L4YAML.Scanner.skipToContentLoop" xlink:title="skipToContentLoop" target="_blank">
<polygon fill="#dce9f7" stroke="#4a90d9" points="371.5,-133 270.5,-133 270.5,-97 371.5,-97 371.5,-133"/>
<text text-anchor="middle" x="321" y="-112.5" font-family="Helvetica" font-size="10.00">skipToContentLoop</text>
</a>
</g>
</g>
<!-- L4YAML.Scanner.skipToContentLoop&#45;&gt;L4YAML.Scanner.ScannerState -->
<g id="edge2" class="edge">
<title>L4YAML.Scanner.skipToContentLoop&#45;&gt;L4YAML.Scanner.ScannerState</title>
<path fill="none" stroke="#4a90d9" stroke-width="2" d="M319.48,-96.86C318.51,-85.88 317.23,-71.48 316.16,-59.33"/>
<polygon fill="#4a90d9" stroke="#4a90d9" stroke-width="2" points="318.57,-58.86 315.52,-52.11 313.69,-59.3 318.57,-58.86"/>
<text text-anchor="middle" x="326.5" y="-72.6" font-family="Times-Roman" font-size="8.00">calls</text>
</g>
<!-- L4YAML.Scanner.skipToContentLoop.eq_def -->
<g id="node3" class="node">
<title>L4YAML.Scanner.skipToContentLoop.eq_def</title>
<g id="a_node3"><a xlink:href="../../../api/L4YAML/Scanner/Whitespace.html#L4YAML.Scanner.skipToContentLoop.eq_def" xlink:title="skipToContentLoop.eq_def" target="_blank">
<ellipse fill="#d4edda" stroke="#28a745" cx="166" cy="-115" rx="78.08" ry="18"/>
<text text-anchor="middle" x="166" y="-112.5" font-family="Helvetica" font-size="10.00">skipToContentLoop.eq_def</text>
</a>
</g>
</g>
<!-- L4YAML.Scanner.skipToContentLoop.eq_def&#45;&gt;L4YAML.Scanner.ScannerState -->
<g id="edge4" class="edge">
<title>L4YAML.Scanner.skipToContentLoop.eq_def&#45;&gt;L4YAML.Scanner.ScannerState</title>
<path fill="none" stroke="#6f42c1" stroke-width="2" stroke-dasharray="5,2" d="M195.59,-98.2C218.69,-85.87 250.95,-68.66 275.96,-55.31"/>
<polygon fill="#6f42c1" stroke="#6f42c1" stroke-width="2" points="277.13,-57.46 282.15,-52 274.82,-53.14 277.13,-57.46"/>
<text text-anchor="middle" x="256.5" y="-72.6" font-family="Times-Roman" font-size="8.00" fill="#6f42c1">about</text>
</g>
<!-- L4YAML.Scanner.skipToContentLoop.eq_1 -->
<g id="node4" class="node">
<title>L4YAML.Scanner.skipToContentLoop.eq_1</title>
<g id="a_node4"><a xlink:href="../../../api/L4YAML/Proofs/Coupling/ScannerCoupling.html#L4YAML.Scanner.skipToContentLoop.eq_1" xlink:title="skipToContentLoop.eq_1" target="_blank">
<polygon fill="#fff3cd" stroke="#d4a017" points="241.78,-212.54 241.78,-227.46 195.05,-238 128.95,-238 82.22,-227.46 82.22,-212.54 128.95,-202 195.05,-202 241.78,-212.54"/>
<polygon fill="none" stroke="#d4a017" points="245.79,-209.35 245.79,-230.65 195.49,-242 128.51,-242 78.21,-230.65 78.21,-209.35 128.51,-198 195.49,-198 245.79,-209.35"/>
<text text-anchor="middle" x="162" y="-217.5" font-family="Helvetica" font-size="10.00">skipToContentLoop.eq_1</text>
</a>
</g>
</g>
<!-- L4YAML.Scanner.skipToContentLoop.eq_1&#45;&gt;L4YAML.Scanner.skipToContentLoop -->
<g id="edge1" class="edge">
<title>L4YAML.Scanner.skipToContentLoop.eq_1&#45;&gt;L4YAML.Scanner.skipToContentLoop</title>
<path fill="none" stroke="#6f42c1" stroke-width="2" stroke-dasharray="5,2" d="M199.06,-198.68C217.13,-188.44 239.01,-175.56 258,-163 269.91,-155.12 282.6,-145.83 293.46,-137.6"/>
<polygon fill="#6f42c1" stroke="#6f42c1" stroke-width="2" points="295.2,-139.35 299.28,-133.15 292.23,-135.46 295.2,-139.35"/>
<text text-anchor="middle" x="257.5" y="-173.6" font-family="Times-Roman" font-size="8.00" fill="#6f42c1">about</text>
</g>
<!-- L4YAML.Scanner.skipToContentLoop.eq_1&#45;&gt;L4YAML.Scanner.skipToContentLoop.eq_def -->
<g id="edge3" class="edge">
<title>L4YAML.Scanner.skipToContentLoop.eq_1&#45;&gt;L4YAML.Scanner.skipToContentLoop.eq_def</title>
<path fill="none" stroke="#28a745" stroke-width="2" d="M162.83,-197.66C163.48,-180.95 164.38,-157.71 165.06,-140.29"/>
<polygon fill="#28a745" stroke="#28a745" stroke-width="2" points="167.51,-140.31 165.33,-133.22 162.61,-140.12 167.51,-140.31"/>
<text text-anchor="middle" x="173" y="-173.6" font-family="Times-Roman" font-size="8.00">uses</text>
</g>
</g>
</svg>
