<?xml version="1.0" encoding="UTF-8" standalone="no"?>
<!DOCTYPE svg PUBLIC "-//W3C//DTD SVG 1.1//EN"
 "http://www.w3.org/Graphics/SVG/1.1/DTD/svg11.dtd">
<!-- Generated by graphviz version 2.44.0 (0)
 -->
<!-- Title: chain_ScannerCoupling.peek_some_hasMore Pages: 1 -->
<svg width="930pt" height="201pt"
 viewBox="0.00 0.00 930.00 200.92" xmlns="http://www.w3.org/2000/svg" xmlns:xlink="http://www.w3.org/1999/xlink">
<g id="graph0" class="graph" transform="scale(1 1) rotate(0) translate(4 196.92)">
<title>chain_ScannerCoupling.peek_some_hasMore</title>
<polygon fill="white" stroke="transparent" points="-4,4 -4,-196.92 926,-196.92 926,4 -4,4"/>
<text text-anchor="middle" x="461" y="-178.52" font-family="Helvetica Bold" font-size="13.00">Structural theorem: ScannerCoupling.peek_some_hasMore\nProof is a witness / injection — no fibration depth\n(heuristic: used by 24 proofs)</text>
<g id="clust1" class="cluster">
<title>cluster_direct</title>
<polygon fill="none" stroke="#4a90d9" stroke-dasharray="5,2" points="225.5,-8 225.5,-82 696.5,-82 696.5,-8 225.5,-8"/>
<text text-anchor="middle" x="461" y="-67.6" font-family="Helvetica Bold" font-size="13.00" fill="#4a90d9">About (no chain extends — proof is structural)</text>
</g>
<!-- L4YAML.Proofs.ScannerCoupling.peek_some_hasMore -->
<g id="node1" class="node">
<title>L4YAML.Proofs.ScannerCoupling.peek_some_hasMore</title>
<polygon fill="#fff3cd" stroke="#d4a017" points="597.74,-134.46 597.74,-153.46 513.83,-166.89 395.17,-166.89 311.26,-153.46 311.26,-134.46 395.17,-121.03 513.83,-121.03 597.74,-134.46"/>
<polygon fill="none" stroke="#d4a017" points="601.75,-131.06 601.75,-156.86 514.15,-170.88 394.85,-170.88 307.25,-156.86 307.25,-131.06 394.85,-117.04 514.15,-117.04 601.75,-131.06"/>
<text text-anchor="middle" x="454.5" y="-146.96" font-family="Helvetica" font-size="10.00">ScannerCoupling.peek_some_hasMore</text>
<text text-anchor="middle" x="454.5" y="-135.96" font-family="Helvetica" font-size="10.00">(structural)</text>
</g>
<!-- L4YAML.Scanner.ScannerState.offset -->
<g id="node2" class="node">
<title>L4YAML.Scanner.ScannerState.offset</title>
<g id="a_node2"><a xlink:href="../../../api/L4YAML/Scanner/State.html#L4YAML.Scanner.ScannerState.offset" xlink:title="ScannerState.offset" target="_blank">
<polygon fill="#dce9f7" stroke="#4a90d9" points="337,-52 234,-52 234,-16 337,-16 337,-52"/>
<text text-anchor="middle" x="285.5" y="-31.5" font-family="Helvetica" font-size="10.00">ScannerState.offset</text>
</a>
</g>
</g>
<!-- L4YAML.Proofs.ScannerCoupling.peek_some_hasMore&#45;&gt;L4YAML.Scanner.ScannerState.offset -->
<g id="edge1" class="edge">
<title>L4YAML.Proofs.ScannerCoupling.peek_some_hasMore&#45;&gt;L4YAML.Scanner.ScannerState.offset</title>
<path fill="none" stroke="#4a90d9" stroke-width="2" d="M404.16,-116.92C385.37,-106.66 364.09,-94.37 345.5,-82 333.88,-74.27 321.65,-64.93 311.29,-56.62"/>
<polygon fill="#4a90d9" stroke="#4a90d9" stroke-width="2" points="312.72,-54.63 305.74,-52.13 309.64,-58.44 312.72,-54.63"/>
<text text-anchor="middle" x="385" y="-92.6" font-family="Times-Roman" font-size="8.00" fill="#4a90d9">about</text>
</g>
<!-- L4YAML.Scanner.ScannerState.inputEnd -->
<g id="node3" class="node">
<title>L4YAML.Scanner.ScannerState.inputEnd</title>
<g id="a_node3"><a xlink:href="../../../api/L4YAML/Scanner/State.html#L4YAML.Scanner.ScannerState.inputEnd" xlink:title="ScannerState.inputEnd" target="_blank">
<polygon fill="#dce9f7" stroke="#4a90d9" points="472,-52 355,-52 355,-16 472,-16 472,-52"/>
<text text-anchor="middle" x="413.5" y="-31.5" font-family="Helvetica" font-size="10.00">ScannerState.inputEnd</text>
</a>
</g>
</g>
<!-- L4YAML.Proofs.ScannerCoupling.peek_some_hasMore&#45;&gt;L4YAML.Scanner.ScannerState.inputEnd -->
<g id="edge2" class="edge">
<title>L4YAML.Proofs.ScannerCoupling.peek_some_hasMore&#45;&gt;L4YAML.Scanner.ScannerState.inputEnd</title>
<path fill="none" stroke="#4a90d9" stroke-width="2" d="M444.58,-116.83C437.9,-99.24 429.16,-76.23 422.65,-59.09"/>
<polygon fill="#4a90d9" stroke="#4a90d9" stroke-width="2" points="424.78,-57.81 420.01,-52.14 420.2,-59.55 424.78,-57.81"/>
<text text-anchor="middle" x="450" y="-92.6" font-family="Times-Roman" font-size="8.00" fill="#4a90d9">about</text>
</g>
<!-- L4YAML.Scanner.ScannerState -->
<g id="node4" class="node">
<title>L4YAML.Scanner.ScannerState</title>
<g id="a_node4"><a xlink:href="../../../api/L4YAML/Scanner/State.html#L4YAML.Scanner.ScannerState" xlink:title="ScannerState" target="_blank">
<polygon fill="#dce9f7" stroke="#4a90d9" points="566.5,-52 490.5,-52 490.5,-16 566.5,-16 566.5,-52"/>
<text text-anchor="middle" x="528.5" y="-31.5" font-family="Helvetica" font-size="10.00">ScannerState</text>
</a>
</g>
</g>
<!-- L4YAML.Proofs.ScannerCoupling.peek_some_hasMore&#45;&gt;L4YAML.Scanner.ScannerState -->
<g id="edge3" class="edge">
<title>L4YAML.Proofs.ScannerCoupling.peek_some_hasMore&#45;&gt;L4YAML.Scanner.ScannerState</title>
<path fill="none" stroke="#4a90d9" stroke-width="2" d="M472.41,-116.83C484.68,-98.93 500.8,-75.41 512.61,-58.18"/>
<polygon fill="#4a90d9" stroke="#4a90d9" stroke-width="2" points="514.81,-59.3 516.75,-52.14 510.77,-56.53 514.81,-59.3"/>
<text text-anchor="middle" x="501" y="-92.6" font-family="Times-Roman" font-size="8.00" fill="#4a90d9">about</text>
</g>
<!-- L4YAML.Scanner.ScannerState.peek? -->
<g id="node5" class="node">
<title>L4YAML.Scanner.ScannerState.peek?</title>
<g id="a_node5"><a xlink:href="../../../api/L4YAML/Scanner/State.html#L4YAML.Scanner.ScannerState.peek?" xlink:title="ScannerState.peek?" target="_blank">
<polygon fill="#dce9f7" stroke="#4a90d9" points="688.5,-52 584.5,-52 584.5,-16 688.5,-16 688.5,-52"/>
<text text-anchor="middle" x="636.5" y="-31.5" font-family="Helvetica" font-size="10.00">ScannerState.peek?</text>
</a>
</g>
</g>
<!-- L4YAML.Proofs.ScannerCoupling.peek_some_hasMore&#45;&gt;L4YAML.Scanner.ScannerState.peek? -->
<g id="edge4" class="edge">
<title>L4YAML.Proofs.ScannerCoupling.peek_some_hasMore&#45;&gt;L4YAML.Scanner.ScannerState.peek?</title>
<path fill="none" stroke="#4a90d9" stroke-width="2" d="M511.74,-116.89C532.32,-106.81 555.39,-94.65 575.5,-82 587.53,-74.43 600.09,-65.04 610.66,-56.65"/>
<polygon fill="#4a90d9" stroke="#4a90d9" stroke-width="2" points="612.39,-58.4 616.32,-52.11 609.32,-54.58 612.39,-58.4"/>
<text text-anchor="middle" x="572" y="-92.6" font-family="Times-Roman" font-size="8.00" fill="#4a90d9">about</text>
</g>
</g>
</svg>
