<?xml version="1.0" encoding="UTF-8" standalone="no"?>
<!DOCTYPE svg PUBLIC "-//W3C//DTD SVG 1.1//EN"
 "http://www.w3.org/Graphics/SVG/1.1/DTD/svg11.dtd">
<!-- Generated by graphviz version 2.44.0 (0)
 -->
<!-- Title: ScannerCoupling.skipWhitespace_corr Pages: 1 -->
<svg width="917pt" height="558pt"
 viewBox="0.00 0.00 917.17 558.00" xmlns="http://www.w3.org/2000/svg" xmlns:xlink="http://www.w3.org/1999/xlink">
<g id="graph0" class="graph" transform="scale(1 1) rotate(0) translate(4 554)">
<title>ScannerCoupling.skipWhitespace_corr</title>
<polygon fill="white" stroke="transparent" points="-4,4 -4,-554 913.17,-554 913.17,4 -4,4"/>
<text text-anchor="middle" x="454.58" y="-535.6" font-family="Helvetica Bold" font-size="13.00">ScannerCoupling.skipWhitespace_corr</text>
<text text-anchor="middle" x="454.58" y="-521.6" font-family="Helvetica Bold" font-size="13.00">(heuristic: used by 13 proofs)</text>
<text text-anchor="middle" x="454.58" y="-507.6" font-family="Helvetica Bold" font-size="13.00">(L4YAML.Proofs.Coupling.ScannerCoupling)</text>
<g id="clust1" class="cluster">
<title>cluster_functions</title>
<polygon fill="none" stroke="#4a90d9" stroke-dasharray="5,2" points="452.75,-148 452.75,-492 901.17,-492 901.17,-148 452.75,-148"/>
<text text-anchor="middle" x="676.96" y="-477.6" font-family="Helvetica Bold" font-size="13.00" fill="#4a90d9">Functions</text>
</g>
<g id="clust2" class="cluster">
<title>cluster_key</title>
<polygon fill="none" stroke="#d4a017" stroke-dasharray="5,2" points="357.33,-8 357.33,-90 681.17,-90 681.17,-8 357.33,-8"/>
<text text-anchor="middle" x="519.25" y="-75.6" font-family="Helvetica Bold" font-size="13.00" fill="#d4a017">Key Theorem</text>
</g>
<g id="clust3" class="cluster">
<title>cluster_proofs</title>
<polygon fill="none" stroke="#28a745" stroke-dasharray="5,2" points="8,-219 8,-299 315.33,-299 315.33,-219 8,-219"/>
<text text-anchor="middle" x="161.66" y="-284.6" font-family="Helvetica Bold" font-size="13.00" fill="#28a745">Proof Dependencies</text>
</g>
<g id="clust4" class="cluster">
<title>cluster_stdlib</title>
<polygon fill="none" stroke="#e67e22" stroke-dasharray="5,2" points="106.76,-12 106.76,-86 217.57,-86 217.57,-12 106.76,-12"/>
<text text-anchor="middle" x="162.16" y="-71.6" font-family="Helvetica Bold" font-size="13.00" fill="#e67e22">Stdlib Lemmas</text>
</g>
<!-- L4YAML.Scanner.skipWhitespaceLoop -->
<g id="node1" class="node">
<title>L4YAML.Scanner.skipWhitespaceLoop</title>
<g id="a_node1"><a xlink:href="../../../api/L4YAML/Scanner/Whitespace.html#L4YAML.Scanner.skipWhitespaceLoop" xlink:title="skipWhitespaceLoop\n(def)" target="_blank">
<polygon fill="#dce9f7" stroke="#4a90d9" points="572.75,-462 465.75,-462 465.75,-426 572.75,-426 572.75,-462"/>
<text text-anchor="middle" x="519.25" y="-447" font-family="Helvetica" font-size="10.00">skipWhitespaceLoop</text>
<text text-anchor="middle" x="519.25" y="-436" font-family="Helvetica" font-size="10.00">(def)</text>
</a>
</g>
</g>
<!-- L4YAML.Scanner.ScannerState -->
<g id="node2" class="node">
<title>L4YAML.Scanner.ScannerState</title>
<g id="a_node2"><a xlink:href="../../../api/L4YAML/Scanner/State.html#L4YAML.Scanner.ScannerState" xlink:title="ScannerState\n(inductive)" target="_blank">
<polygon fill="#dce9f7" stroke="#4a90d9" points="851.67,-462 775.67,-462 775.67,-426 851.67,-426 851.67,-462"/>
<text text-anchor="middle" x="813.67" y="-447" font-family="Helvetica" font-size="10.00">ScannerState</text>
<text text-anchor="middle" x="813.67" y="-436" font-family="Helvetica" font-size="10.00">(inductive)</text>
</a>
</g>
</g>
<!-- L4YAML.Proofs.CouplingBridge.ScannerSurfCorr -->
<g id="node3" class="node">
<title>L4YAML.Proofs.CouplingBridge.ScannerSurfCorr</title>
<g id="a_node3"><a xlink:href="../../../api/L4YAML/Proofs/Coupling/CouplingBridge.html#L4YAML.Proofs.CouplingBridge.ScannerSurfCorr" xlink:title="CouplingBridge.ScannerSurfCorr\n(inductive)" target="_blank">
<polygon fill="#dce9f7" stroke="#4a90d9" points="893.17,-300 734.17,-300 734.17,-264 893.17,-264 893.17,-300"/>
<text text-anchor="middle" x="813.67" y="-285" font-family="Helvetica" font-size="10.00">CouplingBridge.ScannerSurfCorr</text>
<text text-anchor="middle" x="813.67" y="-274" font-family="Helvetica" font-size="10.00">(inductive)</text>
</a>
</g>
</g>
<!-- L4YAML.Surface.SSWhite -->
<g id="node4" class="node">
<title>L4YAML.Surface.SSWhite</title>
<g id="a_node4"><a xlink:href="../../../api/L4YAML/Surface/Basic.html#L4YAML.Surface.SSWhite" xlink:title="Surface.SSWhite\n(inductive)" target="_blank">
<polygon fill="#dce9f7" stroke="#4a90d9" points="860.17,-408 767.17,-408 767.17,-372 860.17,-372 860.17,-408"/>
<text text-anchor="middle" x="813.67" y="-393" font-family="Helvetica" font-size="10.00">Surface.SSWhite</text>
<text text-anchor="middle" x="813.67" y="-382" font-family="Helvetica" font-size="10.00">(inductive)</text>
</a>
</g>
</g>
<!-- L4YAML.Scanner.skipWhitespace -->
<g id="node5" class="node">
<title>L4YAML.Scanner.skipWhitespace</title>
<g id="a_node5"><a xlink:href="../../../api/L4YAML/Scanner/Whitespace.html#L4YAML.Scanner.skipWhitespace" xlink:title="skipWhitespace\n(def)" target="_blank">
<polygon fill="#dce9f7" stroke="#4a90d9" points="856.67,-192 770.67,-192 770.67,-156 856.67,-156 856.67,-192"/>
<text text-anchor="middle" x="813.67" y="-177" font-family="Helvetica" font-size="10.00">skipWhitespace</text>
<text text-anchor="middle" x="813.67" y="-166" font-family="Helvetica" font-size="10.00">(def)</text>
</a>
</g>
</g>
<!-- L4YAML.Scanner.ScannerState.offset -->
<g id="node6" class="node">
<title>L4YAML.Scanner.ScannerState.offset</title>
<g id="a_node6"><a xlink:href="../../../api/L4YAML/Scanner/State.html#L4YAML.Scanner.ScannerState.offset" xlink:title="ScannerState.offset\n(def)" target="_blank">
<polygon fill="#dce9f7" stroke="#4a90d9" points="570.75,-408 467.75,-408 467.75,-372 570.75,-372 570.75,-408"/>
<text text-anchor="middle" x="519.25" y="-393" font-family="Helvetica" font-size="10.00">ScannerState.offset</text>
<text text-anchor="middle" x="519.25" y="-382" font-family="Helvetica" font-size="10.00">(def)</text>
</a>
</g>
</g>
<!-- L4YAML.Surface.SurfPos -->
<g id="node7" class="node">
<title>L4YAML.Surface.SurfPos</title>
<g id="a_node7"><a xlink:href="../../../api/L4YAML/Surface/Combinators.html#L4YAML.Surface.SurfPos" xlink:title="Surface.SurfPos\n(inductive)" target="_blank">
<polygon fill="#dce9f7" stroke="#4a90d9" points="858.67,-246 768.67,-246 768.67,-210 858.67,-210 858.67,-246"/>
<text text-anchor="middle" x="813.67" y="-231" font-family="Helvetica" font-size="10.00">Surface.SurfPos</text>
<text text-anchor="middle" x="813.67" y="-220" font-family="Helvetica" font-size="10.00">(inductive)</text>
</a>
</g>
</g>
<!-- L4YAML.Scanner.ScannerState.inputEnd -->
<g id="node8" class="node">
<title>L4YAML.Scanner.ScannerState.inputEnd</title>
<g id="a_node8"><a xlink:href="../../../api/L4YAML/Scanner/State.html#L4YAML.Scanner.ScannerState.inputEnd" xlink:title="ScannerState.inputEnd\n(def)" target="_blank">
<polygon fill="#dce9f7" stroke="#4a90d9" points="577.75,-354 460.75,-354 460.75,-318 577.75,-318 577.75,-354"/>
<text text-anchor="middle" x="519.25" y="-339" font-family="Helvetica" font-size="10.00">ScannerState.inputEnd</text>
<text text-anchor="middle" x="519.25" y="-328" font-family="Helvetica" font-size="10.00">(def)</text>
</a>
</g>
</g>
<!-- L4YAML.Surface.GStar -->
<g id="node9" class="node">
<title>L4YAML.Surface.GStar</title>
<g id="a_node9"><a xlink:href="../../../api/L4YAML/Surface/Combinators.html#L4YAML.Surface.GStar" xlink:title="Surface.GStar\n(inductive)" target="_blank">
<polygon fill="#dce9f7" stroke="#4a90d9" points="853.67,-354 773.67,-354 773.67,-318 853.67,-318 853.67,-354"/>
<text text-anchor="middle" x="813.67" y="-339" font-family="Helvetica" font-size="10.00">Surface.GStar</text>
<text text-anchor="middle" x="813.67" y="-328" font-family="Helvetica" font-size="10.00">(inductive)</text>
</a>
</g>
</g>
<!-- L4YAML.Proofs.ScannerCoupling.skipWhitespace_corr -->
<g id="node10" class="node">
<title>L4YAML.Proofs.ScannerCoupling.skipWhitespace_corr</title>
<g id="a_node10"><a xlink:href="../../../api/L4YAML/Proofs/Coupling/ScannerCoupling.html#L4YAML.Proofs.ScannerCoupling.skipWhitespace_corr" xlink:title="ScannerCoupling.skipWhitespace_corr" target="_blank">
<polygon fill="#fff3cd" stroke="#d4a017" points="669.09,-30.54 669.09,-45.46 581.31,-56 457.18,-56 369.41,-45.46 369.41,-30.54 457.18,-20 581.31,-20 669.09,-30.54"/>
<polygon fill="none" stroke="#d4a017" points="673.08,-27 673.08,-49 581.55,-60 456.94,-60 365.41,-49 365.41,-27 456.94,-16 581.55,-16 673.08,-27"/>
<text text-anchor="middle" x="519.25" y="-34.9" font-family="Helvetica" font-size="12.00">ScannerCoupling.skipWhitespace_corr</text>
</a>
</g>
</g>
<!-- L4YAML.Proofs.ScannerCoupling.skipWhitespace_corr&#45;&gt;L4YAML.Scanner.ScannerState -->
<g id="edge2" class="edge">
<title>L4YAML.Proofs.ScannerCoupling.skipWhitespace_corr&#45;&gt;L4YAML.Scanner.ScannerState</title>
<path fill="none" stroke="#4a90d9" stroke-width="2" d="M624.65,-54.88C646.41,-63.2 667.02,-75.59 681.17,-94 699.36,-117.68 682.99,-199.28 691.17,-228 697.75,-251.13 708.98,-253.05 716.17,-276 725.61,-306.14 714.22,-392.5 734.17,-417 742.69,-427.47 755.48,-433.89 768.28,-437.83"/>
<polygon fill="#4a90d9" stroke="#4a90d9" stroke-width="2" points="767.96,-440.28 775.36,-439.77 769.26,-435.55 767.96,-440.28"/>
<text text-anchor="middle" x="703.67" y="-278.6" font-family="Times-Roman" font-size="8.00" fill="#4a90d9">about</text>
</g>
<!-- L4YAML.Proofs.ScannerCoupling.skipWhitespace_corr&#45;&gt;L4YAML.Proofs.CouplingBridge.ScannerSurfCorr -->
<g id="edge1" class="edge">
<title>L4YAML.Proofs.ScannerCoupling.skipWhitespace_corr&#45;&gt;L4YAML.Proofs.CouplingBridge.ScannerSurfCorr</title>
<path fill="none" stroke="#4a90d9" stroke-width="2" d="M633.6,-53.85C664.71,-63.67 695.53,-79.5 716.17,-105 758.4,-157.19 691.97,-202.77 734.17,-255 735.35,-256.47 736.63,-257.86 737.97,-259.18"/>
<polygon fill="#4a90d9" stroke="#4a90d9" stroke-width="2" points="736.58,-261.21 743.5,-263.89 739.76,-257.48 736.58,-261.21"/>
<text text-anchor="middle" x="703.67" y="-107.6" font-family="Times-Roman" font-size="8.00" fill="#4a90d9">about</text>
</g>
<!-- L4YAML.Proofs.ScannerCoupling.skipWhitespace_corr&#45;&gt;L4YAML.Surface.SSWhite -->
<g id="edge3" class="edge">
<title>L4YAML.Proofs.ScannerCoupling.skipWhitespace_corr&#45;&gt;L4YAML.Surface.SSWhite</title>
<path fill="none" stroke="#4a90d9" stroke-width="2" d="M623.1,-55.13C645.19,-63.44 666.33,-75.75 681.17,-94 692.05,-107.39 685.99,-154.54 691.17,-171 698.38,-193.95 709.01,-196.04 716.17,-219 725.77,-249.79 713.84,-337.96 734.17,-363 740.87,-371.26 750.24,-377 760.17,-380.99"/>
<polygon fill="#4a90d9" stroke="#4a90d9" stroke-width="2" points="759.35,-383.3 766.76,-383.37 761.01,-378.69 759.35,-383.3"/>
<text text-anchor="middle" x="703.67" y="-221.6" font-family="Times-Roman" font-size="8.00" fill="#4a90d9">about</text>
</g>
<!-- L4YAML.Proofs.ScannerCoupling.skipWhitespace_corr&#45;&gt;L4YAML.Scanner.skipWhitespace -->
<g id="edge5" class="edge">
<title>L4YAML.Proofs.ScannerCoupling.skipWhitespace_corr&#45;&gt;L4YAML.Scanner.skipWhitespace</title>
<path fill="none" stroke="#4a90d9" stroke-width="2" d="M573.11,-15.9C614.59,-2.22 672.43,8.53 716.17,-16 767.02,-44.53 794.26,-111.96 805.81,-148.84"/>
<polygon fill="#4a90d9" stroke="#4a90d9" stroke-width="2" points="803.54,-149.8 807.92,-155.79 808.23,-148.38 803.54,-149.8"/>
<text text-anchor="middle" x="703.67" y="-18.6" font-family="Times-Roman" font-size="8.00" fill="#4a90d9">about</text>
</g>
<!-- L4YAML.Proofs.ScannerCoupling.skipWhitespace_corr&#45;&gt;L4YAML.Surface.SurfPos -->
<g id="edge4" class="edge">
<title>L4YAML.Proofs.ScannerCoupling.skipWhitespace_corr&#45;&gt;L4YAML.Surface.SurfPos</title>
<path fill="none" stroke="#4a90d9" stroke-width="2" d="M609.05,-19.26C646.6,-16.67 688.07,-21.7 716.17,-48 766.15,-94.79 691.2,-147.69 734.17,-201 741.14,-209.65 751.03,-215.54 761.46,-219.55"/>
<polygon fill="#4a90d9" stroke="#4a90d9" stroke-width="2" points="760.94,-221.96 768.36,-221.92 762.53,-217.33 760.94,-221.96"/>
<text text-anchor="middle" x="703.67" y="-50.6" font-family="Times-Roman" font-size="8.00" fill="#4a90d9">about</text>
</g>
<!-- L4YAML.Proofs.ScannerCoupling.skipWhitespace_corr&#45;&gt;L4YAML.Surface.GStar -->
<g id="edge6" class="edge">
<title>L4YAML.Proofs.ScannerCoupling.skipWhitespace_corr&#45;&gt;L4YAML.Surface.GStar</title>
<path fill="none" stroke="#4a90d9" stroke-width="2" d="M611.93,-56.5C636.49,-64.83 661.61,-76.82 681.17,-94 688.63,-100.56 686.65,-105.15 691.17,-114 702.1,-135.42 709.03,-139.03 716.17,-162 725.92,-193.43 713.45,-283.42 734.17,-309 742.28,-319.02 754.3,-325.33 766.52,-329.31"/>
<polygon fill="#4a90d9" stroke="#4a90d9" stroke-width="2" points="765.89,-331.68 773.3,-331.28 767.26,-326.97 765.89,-331.68"/>
<text text-anchor="middle" x="703.67" y="-164.6" font-family="Times-Roman" font-size="8.00" fill="#4a90d9">about</text>
</g>
<!-- L4YAML.Proofs.ScannerCoupling.skipWhitespaceLoop_corr -->
<g id="node11" class="node">
<title>L4YAML.Proofs.ScannerCoupling.skipWhitespaceLoop_corr</title>
<g id="a_node11"><a xlink:href="../../../api/L4YAML/Proofs/Coupling/ScannerCoupling.html#L4YAML.Proofs.ScannerCoupling.skipWhitespaceLoop_corr" xlink:title="ScannerCoupling.skipWhitespaceLoop_corr\n(Coupling.ScannerCoupling)" target="_blank">
<ellipse fill="#d4edda" stroke="#28a745" cx="161.66" cy="-248" rx="145.83" ry="21.43"/>
<text text-anchor="middle" x="161.66" y="-251" font-family="Helvetica" font-size="10.00">ScannerCoupling.skipWhitespaceLoop_corr</text>
<text text-anchor="middle" x="161.66" y="-240" font-family="Helvetica" font-size="10.00">(Coupling.ScannerCoupling)</text>
</a>
</g>
</g>
<!-- L4YAML.Proofs.ScannerCoupling.skipWhitespaceLoop_corr&#45;&gt;L4YAML.Scanner.skipWhitespaceLoop -->
<g id="edge10" class="edge">
<title>L4YAML.Proofs.ScannerCoupling.skipWhitespaceLoop_corr&#45;&gt;L4YAML.Scanner.skipWhitespaceLoop</title>
<path fill="none" stroke="#6f42c1" stroke-width="2" stroke-dasharray="5,2" d="M179.96,-269.26C211.18,-306 280.82,-380.93 357.33,-417 389.55,-432.19 428.96,-438.98 460.7,-441.94"/>
<polygon fill="#6f42c1" stroke="#6f42c1" stroke-width="2" points="460.6,-443.69 465.73,-442.39 460.91,-440.2 460.6,-443.69"/>
<text text-anchor="middle" x="336.33" y="-412.4" font-family="Times-Roman" font-size="7.00" fill="#6f42c1">about</text>
</g>
<!-- L4YAML.Proofs.ScannerCoupling.skipWhitespaceLoop_corr&#45;&gt;L4YAML.Scanner.ScannerState -->
<g id="edge13" class="edge">
<title>L4YAML.Proofs.ScannerCoupling.skipWhitespaceLoop_corr&#45;&gt;L4YAML.Scanner.ScannerState</title>
<path fill="none" stroke="#6f42c1" stroke-width="2" stroke-dasharray="5,2" d="M276.11,-261.15C302.75,-264.15 331.03,-267.26 357.33,-270 429.23,-277.5 622.28,-259.06 681.17,-301 727.34,-333.88 692.18,-378.92 734.17,-417 744.25,-426.15 757.58,-432.22 770.39,-436.24"/>
<polygon fill="#6f42c1" stroke="#6f42c1" stroke-width="2" points="770.16,-438 775.45,-437.74 771.15,-434.64 770.16,-438"/>
<text text-anchor="middle" x="519.25" y="-303.4" font-family="Times-Roman" font-size="7.00" fill="#6f42c1">about</text>
</g>
<!-- L4YAML.Proofs.ScannerCoupling.skipWhitespaceLoop_corr&#45;&gt;L4YAML.Proofs.CouplingBridge.ScannerSurfCorr -->
<g id="edge9" class="edge">
<title>L4YAML.Proofs.ScannerCoupling.skipWhitespaceLoop_corr&#45;&gt;L4YAML.Proofs.CouplingBridge.ScannerSurfCorr</title>
<path fill="none" stroke="#6f42c1" stroke-width="2" stroke-dasharray="5,2" d="M203.17,-227.61C241.7,-209.44 301.85,-184.19 357.33,-174 435.76,-159.6 653.96,-124.1 716.17,-174 744.93,-197.08 709.6,-227.5 734.17,-255 736.03,-257.08 738.05,-259 740.21,-260.78"/>
<polygon fill="#6f42c1" stroke="#6f42c1" stroke-width="2" points="739.19,-262.2 744.24,-263.81 741.3,-259.41 739.19,-262.2"/>
<text text-anchor="middle" x="519.25" y="-176.4" font-family="Times-Roman" font-size="7.00" fill="#6f42c1">about</text>
</g>
<!-- L4YAML.Proofs.ScannerCoupling.skipWhitespaceLoop_corr&#45;&gt;L4YAML.Surface.SSWhite -->
<g id="edge14" class="edge">
<title>L4YAML.Proofs.ScannerCoupling.skipWhitespaceLoop_corr&#45;&gt;L4YAML.Surface.SSWhite</title>
<path fill="none" stroke="#6f42c1" stroke-width="2" stroke-dasharray="5,2" d="M302.27,-242.38C431.61,-238.87 613.83,-238.71 681.17,-262 699.48,-268.33 705.49,-271.83 716.17,-288 735.06,-316.6 711.11,-337.63 734.17,-363 741.65,-371.23 751.75,-376.96 762.22,-380.93"/>
<polygon fill="#6f42c1" stroke="#6f42c1" stroke-width="2" points="761.75,-382.62 767.04,-382.64 762.91,-379.32 761.75,-382.62"/>
<text text-anchor="middle" x="519.25" y="-264.4" font-family="Times-Roman" font-size="7.00" fill="#6f42c1">about</text>
</g>
<!-- L4YAML.Proofs.ScannerCoupling.skipWhitespaceLoop_corr&#45;&gt;L4YAML.Scanner.ScannerState.offset -->
<g id="edge11" class="edge">
<title>L4YAML.Proofs.ScannerCoupling.skipWhitespaceLoop_corr&#45;&gt;L4YAML.Scanner.ScannerState.offset</title>
<path fill="none" stroke="#6f42c1" stroke-width="2" stroke-dasharray="5,2" d="M190.35,-268.86C226.68,-295.13 293.35,-339.65 357.33,-363 391.18,-375.35 431.11,-382.1 462.74,-385.75"/>
<polygon fill="#6f42c1" stroke="#6f42c1" stroke-width="2" points="462.57,-387.5 467.74,-386.31 462.96,-384.02 462.57,-387.5"/>
<text text-anchor="middle" x="336.33" y="-360.4" font-family="Times-Roman" font-size="7.00" fill="#6f42c1">about</text>
</g>
<!-- L4YAML.Proofs.ScannerCoupling.skipWhitespaceLoop_corr&#45;&gt;L4YAML.Surface.SurfPos -->
<g id="edge15" class="edge">
<title>L4YAML.Proofs.ScannerCoupling.skipWhitespaceLoop_corr&#45;&gt;L4YAML.Surface.SurfPos</title>
<path fill="none" stroke="#6f42c1" stroke-width="2" stroke-dasharray="5,2" d="M186.6,-226.93C221.32,-197.99 289,-147.54 357.33,-130 395.97,-120.08 685.14,-91.92 716.17,-117 745.86,-141 708.84,-172.43 734.17,-201 741.95,-209.78 752.71,-215.7 763.78,-219.7"/>
<polygon fill="#6f42c1" stroke="#6f42c1" stroke-width="2" points="763.24,-221.36 768.53,-221.3 764.35,-218.05 763.24,-221.36"/>
<text text-anchor="middle" x="519.25" y="-132.4" font-family="Times-Roman" font-size="7.00" fill="#6f42c1">about</text>
</g>
<!-- L4YAML.Proofs.ScannerCoupling.skipWhitespaceLoop_corr&#45;&gt;L4YAML.Scanner.ScannerState.inputEnd -->
<g id="edge12" class="edge">
<title>L4YAML.Proofs.ScannerCoupling.skipWhitespaceLoop_corr&#45;&gt;L4YAML.Scanner.ScannerState.inputEnd</title>
<path fill="none" stroke="#6f42c1" stroke-width="2" stroke-dasharray="5,2" d="M211.39,-268.09C243.32,-280.58 286.24,-296.09 325.33,-306 368.25,-316.89 417.6,-324.47 455.64,-329.29"/>
<polygon fill="#6f42c1" stroke="#6f42c1" stroke-width="2" points="455.52,-331.04 460.7,-329.93 455.95,-327.57 455.52,-331.04"/>
<text text-anchor="middle" x="336.33" y="-312.4" font-family="Times-Roman" font-size="7.00" fill="#6f42c1">about</text>
</g>
<!-- L4YAML.Proofs.ScannerCoupling.skipWhitespaceLoop_corr&#45;&gt;L4YAML.Surface.GStar -->
<g id="edge16" class="edge">
<title>L4YAML.Proofs.ScannerCoupling.skipWhitespaceLoop_corr&#45;&gt;L4YAML.Surface.GStar</title>
<path fill="none" stroke="#6f42c1" stroke-width="2" stroke-dasharray="5,2" d="M248.27,-230.86C351.68,-212.95 530.52,-190.93 681.17,-218 697.5,-220.94 705.21,-218.54 716.17,-231 739.65,-257.72 710.36,-282.56 734.17,-309 743.11,-318.93 755.86,-325.2 768.5,-329.17"/>
<polygon fill="#6f42c1" stroke="#6f42c1" stroke-width="2" points="768.23,-330.92 773.52,-330.64 769.21,-327.56 768.23,-330.92"/>
<text text-anchor="middle" x="519.25" y="-220.4" font-family="Times-Roman" font-size="7.00" fill="#6f42c1">about</text>
</g>
<!-- L4YAML.Proofs.ScannerCoupling.skipWhitespaceLoop_corr&#45;&gt;L4YAML.Proofs.ScannerCoupling.skipWhitespace_corr -->
<g id="edge7" class="edge">
<title>L4YAML.Proofs.ScannerCoupling.skipWhitespaceLoop_corr&#45;&gt;L4YAML.Proofs.ScannerCoupling.skipWhitespace_corr</title>
<path fill="none" stroke="#28a745" d="M180.84,-226.89C208.89,-195.51 265.76,-136.57 325.33,-102 356.96,-83.64 394.59,-69.66 428.18,-59.52"/>
<polygon fill="#28a745" stroke="#28a745" points="429.27,-61.75 435.29,-57.41 427.88,-57.05 429.27,-61.75"/>
</g>
<!-- Nat.le_refl -->
<g id="node12" class="node">
<title>Nat.le_refl</title>
<g id="a_node12"><a xlink:href="../../../api/Init/Prelude.html#Nat.le_refl" xlink:title="Nat.le_refl" target="_blank">
<ellipse fill="#fdebd0" stroke="#e67e22" cx="161.66" cy="-38" rx="35.82" ry="18"/>
<text text-anchor="middle" x="161.66" y="-35.5" font-family="Helvetica" font-size="10.00">Nat.le_refl</text>
</a>
</g>
</g>
<!-- Nat.le_refl&#45;&gt;L4YAML.Proofs.ScannerCoupling.skipWhitespace_corr -->
<g id="edge8" class="edge">
<title>Nat.le_refl&#45;&gt;L4YAML.Proofs.ScannerCoupling.skipWhitespace_corr</title>
<path fill="none" stroke="#e67e22" stroke-width="2" d="M197.73,-38C235.45,-38 298.1,-38 358.06,-38"/>
<polygon fill="#e67e22" stroke="#e67e22" stroke-width="2" points="358.35,-40.45 365.35,-38 358.35,-35.55 358.35,-40.45"/>
</g>
</g>
</svg>
