<?xml version="1.0" encoding="UTF-8" standalone="no"?>
<!DOCTYPE svg PUBLIC "-//W3C//DTD SVG 1.1//EN"
 "http://www.w3.org/Graphics/SVG/1.1/DTD/svg11.dtd">
<!-- Generated by graphviz version 2.44.0 (0)
 -->
<!-- Title: chain_ScannerCoupling.skipToContentComment_offset_mono Pages: 1 -->
<svg width="1887pt" height="391pt"
 viewBox="0.00 0.00 1887.00 391.00" xmlns="http://www.w3.org/2000/svg" xmlns:xlink="http://www.w3.org/1999/xlink">
<g id="graph0" class="graph" transform="scale(1 1) rotate(0) translate(4 387)">
<title>chain_ScannerCoupling.skipToContentComment_offset_mono</title>
<polygon fill="white" stroke="transparent" points="-4,4 -4,-387 1883,-387 1883,4 -4,4"/>
<text text-anchor="middle" x="939.5" y="-368.6" font-family="Helvetica Bold" font-size="13.00">Functorial Chains: ScannerCoupling.skipToContentComment_offset_mono\n(heuristic: used by 5 proofs)</text>
<g id="clust1" class="cluster">
<title>cluster_fns</title>
<polygon fill="none" stroke="#4a90d9" stroke-dasharray="5,2" points="1470,-8 1470,-244 1871,-244 1871,-8 1470,-8"/>
<text text-anchor="middle" x="1670.5" y="-229.6" font-family="Helvetica Bold" font-size="13.00" fill="#4a90d9">Functions (Call Chain)</text>
</g>
<g id="clust2" class="cluster">
<title>cluster_thms</title>
<polygon fill="none" stroke="#28a745" stroke-dasharray="5,2" points="8,-89 8,-353 1462,-353 1462,-89 8,-89"/>
<text text-anchor="middle" x="735" y="-338.6" font-family="Helvetica Bold" font-size="13.00" fill="#28a745">Theorems (Proof Chain)</text>
</g>
<!-- L4YAML.Scanner.ScannerState -->
<g id="node1" class="node">
<title>L4YAML.Scanner.ScannerState</title>
<g id="a_node1"><a xlink:href="../../../api/L4YAML/Scanner/State.html#L4YAML.Scanner.ScannerState" xlink:title="ScannerState" target="_blank">
<polygon fill="#dce9f7" stroke="#4a90d9" points="1554,-52 1478,-52 1478,-16 1554,-16 1554,-52"/>
<text text-anchor="middle" x="1516" y="-31.5" font-family="Helvetica" font-size="10.00">ScannerState</text>
</a>
</g>
</g>
<!-- L4YAML.Scanner.ScannerState.offset -->
<g id="node2" class="node">
<title>L4YAML.Scanner.ScannerState.offset</title>
<g id="a_node2"><a xlink:href="../../../api/L4YAML/Scanner/State.html#L4YAML.Scanner.ScannerState.offset" xlink:title="ScannerState.offset" target="_blank">
<polygon fill="#dce9f7" stroke="#4a90d9" points="1581.5,-133 1478.5,-133 1478.5,-97 1581.5,-97 1581.5,-133"/>
<text text-anchor="middle" x="1530" y="-112.5" font-family="Helvetica" font-size="10.00">ScannerState.offset</text>
</a>
</g>
</g>
<!-- L4YAML.Scanner.ScannerState.offset&#45;&gt;L4YAML.Scanner.ScannerState -->
<g id="edge10" class="edge">
<title>L4YAML.Scanner.ScannerState.offset&#45;&gt;L4YAML.Scanner.ScannerState</title>
<path fill="none" stroke="#4a90d9" stroke-width="2" d="M1526.96,-96.86C1525.02,-85.88 1522.46,-71.48 1520.31,-59.33"/>
<polygon fill="#4a90d9" stroke="#4a90d9" stroke-width="2" points="1522.67,-58.57 1519.03,-52.11 1517.84,-59.43 1522.67,-58.57"/>
<text text-anchor="middle" x="1532.5" y="-72.6" font-family="Times-Roman" font-size="8.00">calls</text>
</g>
<!-- L4YAML.Scanner.ScannerState.inputEnd -->
<g id="node3" class="node">
<title>L4YAML.Scanner.ScannerState.inputEnd</title>
<g id="a_node3"><a xlink:href="../../../api/L4YAML/Scanner/State.html#L4YAML.Scanner.ScannerState.inputEnd" xlink:title="ScannerState.inputEnd" target="_blank">
<polygon fill="#dce9f7" stroke="#4a90d9" points="1716.5,-133 1599.5,-133 1599.5,-97 1716.5,-97 1716.5,-133"/>
<text text-anchor="middle" x="1658" y="-112.5" font-family="Helvetica" font-size="10.00">ScannerState.inputEnd</text>
</a>
</g>
</g>
<!-- L4YAML.Scanner.ScannerState.inputEnd&#45;&gt;L4YAML.Scanner.ScannerState -->
<g id="edge5" class="edge">
<title>L4YAML.Scanner.ScannerState.inputEnd&#45;&gt;L4YAML.Scanner.ScannerState</title>
<path fill="none" stroke="#4a90d9" stroke-width="2" d="M1627.19,-96.86C1605.42,-84.75 1576.13,-68.45 1553.08,-55.63"/>
<polygon fill="#4a90d9" stroke="#4a90d9" stroke-width="2" points="1554.06,-53.37 1546.75,-52.11 1551.68,-57.65 1554.06,-53.37"/>
<text text-anchor="middle" x="1600.5" y="-72.6" font-family="Times-Roman" font-size="8.00">calls</text>
</g>
<!-- L4YAML.Scanner.skipToContentComment -->
<g id="node4" class="node">
<title>L4YAML.Scanner.skipToContentComment</title>
<g id="a_node4"><a xlink:href="../../../api/L4YAML/Scanner/Whitespace.html#L4YAML.Scanner.skipToContentComment" xlink:title="skipToContentComment" target="_blank">
<polygon fill="#dce9f7" stroke="#4a90d9" points="1655,-214 1533,-214 1533,-178 1655,-178 1655,-214"/>
<text text-anchor="middle" x="1594" y="-193.5" font-family="Helvetica" font-size="10.00">skipToContentComment</text>
</a>
</g>
</g>
<!-- L4YAML.Scanner.skipToContentComment&#45;&gt;L4YAML.Scanner.ScannerState.offset -->
<g id="edge8" class="edge">
<title>L4YAML.Scanner.skipToContentComment&#45;&gt;L4YAML.Scanner.ScannerState.offset</title>
<path fill="none" stroke="#4a90d9" stroke-width="2" d="M1580.11,-177.86C1570.8,-166.37 1558.45,-151.11 1548.33,-138.63"/>
<polygon fill="#4a90d9" stroke="#4a90d9" stroke-width="2" points="1550.17,-137.01 1543.86,-133.11 1546.36,-140.09 1550.17,-137.01"/>
<text text-anchor="middle" x="1572.5" y="-153.6" font-family="Times-Roman" font-size="8.00">calls</text>
</g>
<!-- L4YAML.Scanner.skipToContentComment&#45;&gt;L4YAML.Scanner.ScannerState.inputEnd -->
<g id="edge2" class="edge">
<title>L4YAML.Scanner.skipToContentComment&#45;&gt;L4YAML.Scanner.ScannerState.inputEnd</title>
<path fill="none" stroke="#4a90d9" stroke-width="2" d="M1607.89,-177.86C1617.2,-166.37 1629.55,-151.11 1639.67,-138.63"/>
<polygon fill="#4a90d9" stroke="#4a90d9" stroke-width="2" points="1641.64,-140.09 1644.14,-133.11 1637.83,-137.01 1641.64,-140.09"/>
<text text-anchor="middle" x="1636.5" y="-153.6" font-family="Times-Roman" font-size="8.00">calls</text>
</g>
<!-- L4YAML.Scanner.collectCommentTextLoop -->
<g id="node5" class="node">
<title>L4YAML.Scanner.collectCommentTextLoop</title>
<g id="a_node5"><a xlink:href="../../../api/L4YAML/Scanner/Whitespace.html#L4YAML.Scanner.collectCommentTextLoop" xlink:title="collectCommentTextLoop" target="_blank">
<polygon fill="#dce9f7" stroke="#4a90d9" points="1863,-133 1735,-133 1735,-97 1863,-97 1863,-133"/>
<text text-anchor="middle" x="1799" y="-112.5" font-family="Helvetica" font-size="10.00">collectCommentTextLoop</text>
</a>
</g>
</g>
<!-- L4YAML.Scanner.skipToContentComment&#45;&gt;L4YAML.Scanner.collectCommentTextLoop -->
<g id="edge13" class="edge">
<title>L4YAML.Scanner.skipToContentComment&#45;&gt;L4YAML.Scanner.collectCommentTextLoop</title>
<path fill="none" stroke="#4a90d9" stroke-width="2" d="M1638.23,-177.96C1670.56,-165.5 1714.48,-148.57 1748.24,-135.56"/>
<polygon fill="#4a90d9" stroke="#4a90d9" stroke-width="2" points="1749.2,-137.82 1754.85,-133.01 1747.44,-133.25 1749.2,-137.82"/>
<text text-anchor="middle" x="1711.5" y="-153.6" font-family="Times-Roman" font-size="8.00">calls</text>
</g>
<!-- L4YAML.Scanner.collectCommentTextLoop&#45;&gt;L4YAML.Scanner.ScannerState -->
<g id="edge15" class="edge">
<title>L4YAML.Scanner.collectCommentTextLoop&#45;&gt;L4YAML.Scanner.ScannerState</title>
<path fill="none" stroke="#4a90d9" stroke-width="2" d="M1750.87,-96.92C1742.61,-94.16 1734.09,-91.42 1726,-89 1669.63,-72.13 1603.81,-55.73 1561.1,-45.52"/>
<polygon fill="#4a90d9" stroke="#4a90d9" stroke-width="2" points="1561.56,-43.11 1554.18,-43.87 1560.43,-47.87 1561.56,-43.11"/>
<text text-anchor="middle" x="1695.5" y="-72.6" font-family="Times-Roman" font-size="8.00">calls</text>
</g>
<!-- L4YAML.Proofs.ScannerCoupling.skipToContentComment_offset_mono -->
<g id="node6" class="node">
<title>L4YAML.Proofs.ScannerCoupling.skipToContentComment_offset_mono</title>
<g id="a_node6"><a xlink:href="../../../api/L4YAML/Proofs/Coupling/ScannerCoupling.html#L4YAML.Proofs.ScannerCoupling.skipToContentComment_offset_mono" xlink:title="ScannerCoupling.skipToContentComment_offset_mono" target="_blank">
<polygon fill="#fff3cd" stroke="#d4a017" points="1365.28,-293.54 1365.28,-308.46 1269.05,-319 1132.95,-319 1036.72,-308.46 1036.72,-293.54 1132.95,-283 1269.05,-283 1365.28,-293.54"/>
<polygon fill="none" stroke="#d4a017" points="1369.28,-289.96 1369.28,-312.04 1269.26,-323 1132.74,-323 1032.72,-312.04 1032.72,-289.96 1132.74,-279 1269.26,-279 1369.28,-289.96"/>
<text text-anchor="middle" x="1201" y="-298.5" font-family="Helvetica" font-size="10.00">ScannerCoupling.skipToContentComment_offset_mono</text>
</a>
</g>
</g>
<!-- L4YAML.Proofs.ScannerCoupling.skipToContentComment_offset_mono&#45;&gt;L4YAML.Scanner.skipToContentComment -->
<g id="edge1" class="edge">
<title>L4YAML.Proofs.ScannerCoupling.skipToContentComment_offset_mono&#45;&gt;L4YAML.Scanner.skipToContentComment</title>
<path fill="none" stroke="#6f42c1" stroke-width="2" stroke-dasharray="5,2" d="M1300.93,-282.4C1350.92,-272.71 1412.11,-259.5 1466,-244 1492.72,-236.31 1521.87,-225.79 1545.59,-216.64"/>
<polygon fill="#6f42c1" stroke="#6f42c1" stroke-width="2" points="1546.49,-218.92 1552.13,-214.1 1544.72,-214.35 1546.49,-218.92"/>
<text text-anchor="middle" x="1442.5" y="-254.6" font-family="Times-Roman" font-size="8.00" fill="#6f42c1">about</text>
</g>
<!-- L4YAML.Proofs.ScannerCoupling.collectCommentTextLoop_offset_mono -->
<g id="node11" class="node">
<title>L4YAML.Proofs.ScannerCoupling.collectCommentTextLoop_offset_mono</title>
<g id="a_node11"><a xlink:href="../../../api/L4YAML/Proofs/Coupling/ScannerCoupling.html#L4YAML.Proofs.ScannerCoupling.collectCommentTextLoop_offset_mono" xlink:title="ScannerCoupling.collectCommentTextLoop_offset_mono" target="_blank">
<ellipse fill="#d4edda" stroke="#28a745" cx="1089" cy="-196" rx="154.64" ry="18"/>
<text text-anchor="middle" x="1089" y="-193.5" font-family="Helvetica" font-size="10.00">ScannerCoupling.collectCommentTextLoop_offset_mono</text>
</a>
</g>
</g>
<!-- L4YAML.Proofs.ScannerCoupling.skipToContentComment_offset_mono&#45;&gt;L4YAML.Proofs.ScannerCoupling.collectCommentTextLoop_offset_mono -->
<g id="edge3" class="edge">
<title>L4YAML.Proofs.ScannerCoupling.skipToContentComment_offset_mono&#45;&gt;L4YAML.Proofs.ScannerCoupling.collectCommentTextLoop_offset_mono</title>
<path fill="none" stroke="#28a745" stroke-width="2" d="M1178.06,-278.91C1158.99,-261.37 1131.95,-236.5 1112.68,-218.78"/>
<polygon fill="#28a745" stroke="#28a745" stroke-width="2" points="1114.27,-216.91 1107.46,-213.98 1110.96,-220.52 1114.27,-216.91"/>
<text text-anchor="middle" x="1168" y="-254.6" font-family="Times-Roman" font-size="8.00">uses</text>
</g>
<!-- L4YAML.Proofs.CouplingBridge.advance_offset_eq -->
<g id="node7" class="node">
<title>L4YAML.Proofs.CouplingBridge.advance_offset_eq</title>
<g id="a_node7"><a xlink:href="../../../api/L4YAML/Proofs/Coupling/CouplingBridge.html#L4YAML.Proofs.CouplingBridge.advance_offset_eq" xlink:title="CouplingBridge.advance_offset_eq" target="_blank">
<ellipse fill="#d4edda" stroke="#28a745" cx="114" cy="-115" rx="98.11" ry="18"/>
<text text-anchor="middle" x="114" y="-112.5" font-family="Helvetica" font-size="10.00">CouplingBridge.advance_offset_eq</text>
</a>
</g>
</g>
<!-- L4YAML.Proofs.CouplingBridge.advance_offset_eq&#45;&gt;L4YAML.Scanner.ScannerState -->
<g id="edge19" class="edge">
<title>L4YAML.Proofs.CouplingBridge.advance_offset_eq&#45;&gt;L4YAML.Scanner.ScannerState</title>
<path fill="none" stroke="#6f42c1" stroke-width="2" stroke-dasharray="5,2" d="M167.29,-99.81C184.34,-95.74 203.37,-91.68 221,-89 335.98,-71.49 365.86,-76.19 482,-70 864.31,-49.62 1326.81,-38.91 1470.93,-35.9"/>
<polygon fill="#6f42c1" stroke="#6f42c1" stroke-width="2" points="1471,-38.35 1477.95,-35.75 1470.9,-33.45 1471,-38.35"/>
<text text-anchor="middle" x="494.5" y="-72.6" font-family="Times-Roman" font-size="8.00" fill="#6f42c1">about</text>
</g>
<!-- L4YAML.Proofs.CouplingBridge.advance_inputEnd -->
<g id="node8" class="node">
<title>L4YAML.Proofs.CouplingBridge.advance_inputEnd</title>
<g id="a_node8"><a xlink:href="../../../api/L4YAML/Proofs/Coupling/CouplingBridge.html#L4YAML.Proofs.CouplingBridge.advance_inputEnd" xlink:title="CouplingBridge.advance_inputEnd" target="_blank">
<ellipse fill="#d4edda" stroke="#28a745" cx="327" cy="-115" rx="97.26" ry="18"/>
<text text-anchor="middle" x="327" y="-112.5" font-family="Helvetica" font-size="10.00">CouplingBridge.advance_inputEnd</text>
</a>
</g>
</g>
<!-- L4YAML.Proofs.CouplingBridge.advance_inputEnd&#45;&gt;L4YAML.Scanner.ScannerState -->
<g id="edge7" class="edge">
<title>L4YAML.Proofs.CouplingBridge.advance_inputEnd&#45;&gt;L4YAML.Scanner.ScannerState</title>
<path fill="none" stroke="#6f42c1" stroke-width="2" stroke-dasharray="5,2" d="M380.3,-99.89C397.35,-95.82 416.38,-91.74 434,-89 539.29,-72.61 566.64,-76.43 673,-70 977.28,-51.6 1343.93,-39.98 1470.47,-36.28"/>
<polygon fill="#6f42c1" stroke="#6f42c1" stroke-width="2" points="1470.82,-38.73 1477.74,-36.07 1470.68,-33.83 1470.82,-38.73"/>
<text text-anchor="middle" x="685.5" y="-72.6" font-family="Times-Roman" font-size="8.00" fill="#6f42c1">about</text>
</g>
<!-- L4YAML.Scanner.collectCommentTextLoop.eq_1 -->
<g id="node9" class="node">
<title>L4YAML.Scanner.collectCommentTextLoop.eq_1</title>
<g id="a_node9"><a xlink:href="../../../api/L4YAML/Proofs/Coupling/ScannerCoupling.html#L4YAML.Scanner.collectCommentTextLoop.eq_1" xlink:title="collectCommentTextLoop.eq_1" target="_blank">
<ellipse fill="#d4edda" stroke="#28a745" cx="532" cy="-115" rx="89.45" ry="18"/>
<text text-anchor="middle" x="532" y="-112.5" font-family="Helvetica" font-size="10.00">collectCommentTextLoop.eq_1</text>
</a>
</g>
</g>
<!-- L4YAML.Scanner.collectCommentTextLoop.eq_1&#45;&gt;L4YAML.Scanner.ScannerState -->
<g id="edge21" class="edge">
<title>L4YAML.Scanner.collectCommentTextLoop.eq_1&#45;&gt;L4YAML.Scanner.ScannerState</title>
<path fill="none" stroke="#6f42c1" stroke-width="2" stroke-dasharray="5,2" d="M580.73,-99.81C596.63,-95.68 614.45,-91.6 631,-89 949.64,-38.97 1339.57,-34.66 1470.62,-34.75"/>
<polygon fill="#6f42c1" stroke="#6f42c1" stroke-width="2" points="1470.77,-37.2 1477.77,-34.76 1470.77,-32.3 1470.77,-37.2"/>
<text text-anchor="middle" x="762.5" y="-72.6" font-family="Times-Roman" font-size="8.00" fill="#6f42c1">about</text>
</g>
<!-- L4YAML.Proofs.ScannerCoupling.peek_some_hasMore -->
<g id="node10" class="node">
<title>L4YAML.Proofs.ScannerCoupling.peek_some_hasMore</title>
<g id="a_node10"><a xlink:href="../../../api/L4YAML/Proofs/Coupling/ScannerCoupling.html#L4YAML.Proofs.ScannerCoupling.peek_some_hasMore" xlink:title="ScannerCoupling.peek_some_hasMore" target="_blank">
<ellipse fill="#d4edda" stroke="#28a745" cx="750" cy="-115" rx="110.16" ry="18"/>
<text text-anchor="middle" x="750" y="-112.5" font-family="Helvetica" font-size="10.00">ScannerCoupling.peek_some_hasMore</text>
</a>
</g>
</g>
<!-- L4YAML.Proofs.ScannerCoupling.peek_some_hasMore&#45;&gt;L4YAML.Scanner.ScannerState -->
<g id="edge17" class="edge">
<title>L4YAML.Proofs.ScannerCoupling.peek_some_hasMore&#45;&gt;L4YAML.Scanner.ScannerState</title>
<path fill="none" stroke="#6f42c1" stroke-width="2" stroke-dasharray="5,2" d="M809.97,-99.89C828.78,-95.87 849.68,-91.82 869,-89 1093.59,-56.16 1365.19,-41.57 1470.87,-36.84"/>
<polygon fill="#6f42c1" stroke="#6f42c1" stroke-width="2" points="1471.01,-39.29 1477.89,-36.53 1470.79,-34.39 1471.01,-39.29"/>
<text text-anchor="middle" x="1022.5" y="-72.6" font-family="Times-Roman" font-size="8.00" fill="#6f42c1">about</text>
</g>
<!-- L4YAML.Proofs.ScannerCoupling.collectCommentTextLoop_offset_mono&#45;&gt;L4YAML.Scanner.ScannerState.offset -->
<g id="edge9" class="edge">
<title>L4YAML.Proofs.ScannerCoupling.collectCommentTextLoop_offset_mono&#45;&gt;L4YAML.Scanner.ScannerState.offset</title>
<path fill="none" stroke="#6f42c1" stroke-width="2" stroke-dasharray="5,2" d="M1176.47,-181.07C1278.91,-164.69 1438.23,-138.96 1466,-133 1467.77,-132.62 1469.57,-132.22 1471.37,-131.81"/>
<polygon fill="#6f42c1" stroke="#6f42c1" stroke-width="2" points="1472.15,-134.15 1478.41,-130.16 1471.03,-129.38 1472.15,-134.15"/>
<text text-anchor="middle" x="1368.5" y="-153.6" font-family="Times-Roman" font-size="8.00" fill="#6f42c1">about</text>
</g>
<!-- L4YAML.Proofs.ScannerCoupling.collectCommentTextLoop_offset_mono&#45;&gt;L4YAML.Scanner.ScannerState.inputEnd -->
<g id="edge4" class="edge">
<title>L4YAML.Proofs.ScannerCoupling.collectCommentTextLoop_offset_mono&#45;&gt;L4YAML.Scanner.ScannerState.inputEnd</title>
<path fill="none" stroke="#6f42c1" stroke-width="2" stroke-dasharray="5,2" d="M1203.91,-183.94C1258.88,-178 1325.53,-169.87 1385,-160 1403.83,-156.88 1408.15,-154.05 1427,-151 1499.39,-139.3 1518.84,-146.05 1591,-133 1591.42,-132.92 1591.85,-132.85 1592.28,-132.77"/>
<polygon fill="#6f42c1" stroke="#6f42c1" stroke-width="2" points="1592.88,-135.15 1599.28,-131.39 1591.93,-130.34 1592.88,-135.15"/>
<text text-anchor="middle" x="1439.5" y="-153.6" font-family="Times-Roman" font-size="8.00" fill="#6f42c1">about</text>
</g>
<!-- L4YAML.Proofs.ScannerCoupling.collectCommentTextLoop_offset_mono&#45;&gt;L4YAML.Scanner.collectCommentTextLoop -->
<g id="edge14" class="edge">
<title>L4YAML.Proofs.ScannerCoupling.collectCommentTextLoop_offset_mono&#45;&gt;L4YAML.Scanner.collectCommentTextLoop</title>
<path fill="none" stroke="#6f42c1" stroke-width="2" stroke-dasharray="5,2" d="M1206.35,-184.2C1277.46,-177.53 1369.99,-168.62 1452,-160 1487.14,-156.3 1495.85,-154.62 1531,-151 1617.58,-142.07 1640.08,-146.9 1726,-133 1726.53,-132.91 1727.06,-132.83 1727.6,-132.74"/>
<polygon fill="#6f42c1" stroke="#6f42c1" stroke-width="2" points="1728.14,-135.13 1734.61,-131.5 1727.29,-130.3 1728.14,-135.13"/>
<text text-anchor="middle" x="1543.5" y="-153.6" font-family="Times-Roman" font-size="8.00" fill="#6f42c1">about</text>
</g>
<!-- L4YAML.Proofs.ScannerCoupling.collectCommentTextLoop_offset_mono&#45;&gt;L4YAML.Proofs.CouplingBridge.advance_offset_eq -->
<g id="edge18" class="edge">
<title>L4YAML.Proofs.ScannerCoupling.collectCommentTextLoop_offset_mono&#45;&gt;L4YAML.Proofs.CouplingBridge.advance_offset_eq</title>
<path fill="none" stroke="#28a745" stroke-width="2" d="M946.54,-188.85C774.26,-180.48 475.69,-163.01 221,-133 211.06,-131.83 200.63,-130.41 190.34,-128.9"/>
<polygon fill="#28a745" stroke="#28a745" stroke-width="2" points="190.53,-126.45 183.24,-127.84 189.81,-131.29 190.53,-126.45"/>
<text text-anchor="middle" x="492" y="-153.6" font-family="Times-Roman" font-size="8.00">uses</text>
</g>
<!-- L4YAML.Proofs.ScannerCoupling.collectCommentTextLoop_offset_mono&#45;&gt;L4YAML.Proofs.CouplingBridge.advance_inputEnd -->
<g id="edge6" class="edge">
<title>L4YAML.Proofs.ScannerCoupling.collectCommentTextLoop_offset_mono&#45;&gt;L4YAML.Proofs.CouplingBridge.advance_inputEnd</title>
<path fill="none" stroke="#28a745" stroke-width="2" d="M963.17,-185.46C831.11,-174.9 617.58,-156.25 434,-133 424.07,-131.74 413.64,-130.27 403.36,-128.73"/>
<polygon fill="#28a745" stroke="#28a745" stroke-width="2" points="403.55,-126.29 396.27,-127.66 402.82,-131.13 403.55,-126.29"/>
<text text-anchor="middle" x="677" y="-153.6" font-family="Times-Roman" font-size="8.00">uses</text>
</g>
<!-- L4YAML.Proofs.ScannerCoupling.collectCommentTextLoop_offset_mono&#45;&gt;L4YAML.Scanner.collectCommentTextLoop.eq_1 -->
<g id="edge20" class="edge">
<title>L4YAML.Proofs.ScannerCoupling.collectCommentTextLoop_offset_mono&#45;&gt;L4YAML.Scanner.collectCommentTextLoop.eq_1</title>
<path fill="none" stroke="#28a745" stroke-width="2" d="M987.89,-182.36C894.98,-170.5 753.53,-151.81 631,-133 622.21,-131.65 612.99,-130.16 603.87,-128.65"/>
<polygon fill="#28a745" stroke="#28a745" stroke-width="2" points="604.22,-126.22 596.92,-127.49 603.42,-131.06 604.22,-126.22"/>
<text text-anchor="middle" x="817" y="-153.6" font-family="Times-Roman" font-size="8.00">uses</text>
</g>
<!-- L4YAML.Proofs.ScannerCoupling.collectCommentTextLoop_offset_mono&#45;&gt;L4YAML.Proofs.ScannerCoupling.peek_some_hasMore -->
<g id="edge16" class="edge">
<title>L4YAML.Proofs.ScannerCoupling.collectCommentTextLoop_offset_mono&#45;&gt;L4YAML.Proofs.ScannerCoupling.peek_some_hasMore</title>
<path fill="none" stroke="#28a745" stroke-width="2" d="M1023.24,-179.67C964.03,-165.88 877.38,-145.68 817.61,-131.76"/>
<polygon fill="#28a745" stroke="#28a745" stroke-width="2" points="817.83,-129.29 810.46,-130.09 816.72,-134.06 817.83,-129.29"/>
<text text-anchor="middle" x="939" y="-153.6" font-family="Times-Roman" font-size="8.00">uses</text>
</g>
<!-- L4YAML.Proofs.ScannerCoupling.collectCommentTextLoop_offset_mono._proof_1_7 -->
<g id="node12" class="node">
<title>L4YAML.Proofs.ScannerCoupling.collectCommentTextLoop_offset_mono._proof_1_7</title>
<g id="a_node12"><a xlink:href="../../../api/L4YAML/Proofs/Coupling/ScannerCoupling.html#L4YAML.Proofs.ScannerCoupling.collectCommentTextLoop_offset_mono._proof_1_7" xlink:title="ScannerCoupling.collectCommentTextLoop_offset_mono._proof_1_7" target="_blank">
<ellipse fill="#d4edda" stroke="#28a745" cx="1063" cy="-115" rx="184.68" ry="18"/>
<text text-anchor="middle" x="1063" y="-112.5" font-family="Helvetica" font-size="10.00">ScannerCoupling.collectCommentTextLoop_offset_mono._proof_1_7</text>
</a>
</g>
</g>
<!-- L4YAML.Proofs.ScannerCoupling.collectCommentTextLoop_offset_mono&#45;&gt;L4YAML.Proofs.ScannerCoupling.collectCommentTextLoop_offset_mono._proof_1_7 -->
<g id="edge11" class="edge">
<title>L4YAML.Proofs.ScannerCoupling.collectCommentTextLoop_offset_mono&#45;&gt;L4YAML.Proofs.ScannerCoupling.collectCommentTextLoop_offset_mono._proof_1_7</title>
<path fill="none" stroke="#28a745" stroke-width="2" d="M1083.36,-177.86C1079.71,-166.78 1074.92,-152.21 1070.89,-139.99"/>
<polygon fill="#28a745" stroke="#28a745" stroke-width="2" points="1073.15,-138.99 1068.63,-133.11 1068.49,-140.52 1073.15,-138.99"/>
<text text-anchor="middle" x="1086" y="-153.6" font-family="Times-Roman" font-size="8.00">uses</text>
</g>
<!-- L4YAML.Scanner.collectCommentTextLoop.eq_def -->
<g id="node13" class="node">
<title>L4YAML.Scanner.collectCommentTextLoop.eq_def</title>
<g id="a_node13"><a xlink:href="../../../api/L4YAML/Scanner/Whitespace.html#L4YAML.Scanner.collectCommentTextLoop.eq_def" xlink:title="collectCommentTextLoop.eq_def" target="_blank">
<ellipse fill="#d4edda" stroke="#28a745" cx="1360" cy="-115" rx="94.37" ry="18"/>
<text text-anchor="middle" x="1360" y="-112.5" font-family="Helvetica" font-size="10.00">collectCommentTextLoop.eq_def</text>
</a>
</g>
</g>
<!-- L4YAML.Proofs.ScannerCoupling.collectCommentTextLoop_offset_mono&#45;&gt;L4YAML.Scanner.collectCommentTextLoop.eq_def -->
<g id="edge22" class="edge">
<title>L4YAML.Proofs.ScannerCoupling.collectCommentTextLoop_offset_mono&#45;&gt;L4YAML.Scanner.collectCommentTextLoop.eq_def</title>
<path fill="none" stroke="#28a745" stroke-width="2" d="M1143.51,-179.11C1190.07,-165.54 1256.76,-146.09 1303.8,-132.38"/>
<polygon fill="#28a745" stroke="#28a745" stroke-width="2" points="1304.55,-134.72 1310.59,-130.4 1303.18,-130.01 1304.55,-134.72"/>
<text text-anchor="middle" x="1242" y="-153.6" font-family="Times-Roman" font-size="8.00">uses</text>
</g>
<!-- L4YAML.Proofs.ScannerCoupling.collectCommentTextLoop_offset_mono._proof_1_7&#45;&gt;L4YAML.Scanner.ScannerState -->
<g id="edge12" class="edge">
<title>L4YAML.Proofs.ScannerCoupling.collectCommentTextLoop_offset_mono._proof_1_7&#45;&gt;L4YAML.Scanner.ScannerState</title>
<path fill="none" stroke="#6f42c1" stroke-width="2" stroke-dasharray="5,2" d="M1148.74,-99.05C1244.53,-82.34 1395.97,-55.93 1470.92,-42.86"/>
<polygon fill="#6f42c1" stroke="#6f42c1" stroke-width="2" points="1471.45,-45.26 1477.93,-41.64 1470.61,-40.43 1471.45,-45.26"/>
<text text-anchor="middle" x="1315.5" y="-72.6" font-family="Times-Roman" font-size="8.00" fill="#6f42c1">about</text>
</g>
<!-- L4YAML.Scanner.collectCommentTextLoop.eq_def&#45;&gt;L4YAML.Scanner.ScannerState -->
<g id="edge23" class="edge">
<title>L4YAML.Scanner.collectCommentTextLoop.eq_def&#45;&gt;L4YAML.Scanner.ScannerState</title>
<path fill="none" stroke="#6f42c1" stroke-width="2" stroke-dasharray="5,2" d="M1391.57,-98.01C1415.86,-85.71 1449.61,-68.62 1475.82,-55.35"/>
<polygon fill="#6f42c1" stroke="#6f42c1" stroke-width="2" points="1477.18,-57.4 1482.32,-52.06 1474.97,-53.03 1477.18,-57.4"/>
<text text-anchor="middle" x="1454.5" y="-72.6" font-family="Times-Roman" font-size="8.00" fill="#6f42c1">about</text>
</g>
</g>
</svg>
