<?xml version="1.0" encoding="UTF-8" standalone="no"?>
<!DOCTYPE svg PUBLIC "-//W3C//DTD SVG 1.1//EN"
 "http://www.w3.org/Graphics/SVG/1.1/DTD/svg11.dtd">
<!-- Generated by graphviz version 2.44.0 (0)
 -->
<!-- Title: collectTagSuffixLoop.eq_def Pages: 1 -->
<svg width="627pt" height="472pt"
 viewBox="0.00 0.00 626.73 472.00" xmlns="http://www.w3.org/2000/svg" xmlns:xlink="http://www.w3.org/1999/xlink">
<g id="graph0" class="graph" transform="scale(1 1) rotate(0) translate(4 468)">
<title>collectTagSuffixLoop.eq_def</title>
<polygon fill="white" stroke="transparent" points="-4,4 -4,-468 622.73,-468 622.73,4 -4,4"/>
<text text-anchor="middle" x="309.37" y="-449.6" font-family="Helvetica Bold" font-size="13.00">collectTagSuffixLoop.eq_def</text>
<text text-anchor="middle" x="309.37" y="-435.6" font-family="Helvetica Bold" font-size="13.00">(heuristic: used by 8 proofs)</text>
<text text-anchor="middle" x="309.37" y="-421.6" font-family="Helvetica Bold" font-size="13.00">(L4YAML.Proofs.Coupling.StructureCoupling)</text>
<g id="clust1" class="cluster">
<title>cluster_functions</title>
<polygon fill="none" stroke="#4a90d9" stroke-dasharray="5,2" points="430.73,-8 430.73,-406 610.73,-406 610.73,-8 430.73,-8"/>
<text text-anchor="middle" x="520.73" y="-391.6" font-family="Helvetica Bold" font-size="13.00" fill="#4a90d9">Functions</text>
</g>
<g id="clust2" class="cluster">
<title>cluster_key</title>
<polygon fill="none" stroke="#d4a017" stroke-dasharray="5,2" points="139.19,-166 139.19,-248 385.73,-248 385.73,-166 139.19,-166"/>
<text text-anchor="middle" x="262.46" y="-233.6" font-family="Helvetica Bold" font-size="13.00" fill="#d4a017">Key Theorem</text>
</g>
<g id="clust4" class="cluster">
<title>cluster_stdlib</title>
<polygon fill="none" stroke="#e67e22" stroke-dasharray="5,2" points="8,-170 8,-244 118.19,-244 118.19,-170 8,-170"/>
<text text-anchor="middle" x="63.09" y="-229.6" font-family="Helvetica Bold" font-size="13.00" fill="#e67e22">Stdlib Lemmas</text>
</g>
<!-- L4YAML.Scanner.ScannerState.advance -->
<g id="node1" class="node">
<title>L4YAML.Scanner.ScannerState.advance</title>
<g id="a_node1"><a xlink:href="../../../api/L4YAML/Scanner/State.html#L4YAML.Scanner.ScannerState.advance" xlink:title="ScannerState.advance\n(def)" target="_blank">
<polygon fill="#dce9f7" stroke="#4a90d9" points="578.23,-376 463.23,-376 463.23,-340 578.23,-340 578.23,-376"/>
<text text-anchor="middle" x="520.73" y="-361" font-family="Helvetica" font-size="10.00">ScannerState.advance</text>
<text text-anchor="middle" x="520.73" y="-350" font-family="Helvetica" font-size="10.00">(def)</text>
</a>
</g>
</g>
<!-- L4YAML.Scanner.ScannerState.peek? -->
<g id="node2" class="node">
<title>L4YAML.Scanner.ScannerState.peek?</title>
<g id="a_node2"><a xlink:href="../../../api/L4YAML/Scanner/State.html#L4YAML.Scanner.ScannerState.peek?" xlink:title="ScannerState.peek?\n(def)" target="_blank">
<polygon fill="#dce9f7" stroke="#4a90d9" points="572.73,-322 468.73,-322 468.73,-286 572.73,-286 572.73,-322"/>
<text text-anchor="middle" x="520.73" y="-307" font-family="Helvetica" font-size="10.00">ScannerState.peek?</text>
<text text-anchor="middle" x="520.73" y="-296" font-family="Helvetica" font-size="10.00">(def)</text>
</a>
</g>
</g>
<!-- L4YAML.Scanner.ScannerState -->
<g id="node3" class="node">
<title>L4YAML.Scanner.ScannerState</title>
<g id="a_node3"><a xlink:href="../../../api/L4YAML/Scanner/State.html#L4YAML.Scanner.ScannerState" xlink:title="ScannerState\n(inductive)" target="_blank">
<polygon fill="#dce9f7" stroke="#4a90d9" points="558.73,-268 482.73,-268 482.73,-232 558.73,-232 558.73,-268"/>
<text text-anchor="middle" x="520.73" y="-253" font-family="Helvetica" font-size="10.00">ScannerState</text>
<text text-anchor="middle" x="520.73" y="-242" font-family="Helvetica" font-size="10.00">(inductive)</text>
</a>
</g>
</g>
<!-- L4YAML.Scanner.collectAnchorNameLoop.match_1 -->
<g id="node4" class="node">
<title>L4YAML.Scanner.collectAnchorNameLoop.match_1</title>
<g id="a_node4"><a xlink:href="../../../api/L4YAML/Scanner/NodeProperties.html#L4YAML.Scanner.collectAnchorNameLoop.match_1" xlink:title="collectAnchorNameLoop.match_1\n(def)" target="_blank">
<polygon fill="#dce9f7" stroke="#4a90d9" points="602.73,-214 438.73,-214 438.73,-178 602.73,-178 602.73,-214"/>
<text text-anchor="middle" x="520.73" y="-199" font-family="Helvetica" font-size="10.00">collectAnchorNameLoop.match_1</text>
<text text-anchor="middle" x="520.73" y="-188" font-family="Helvetica" font-size="10.00">(def)</text>
</a>
</g>
</g>
<!-- L4YAML.CharPredicates.isTagCharBool -->
<g id="node5" class="node">
<title>L4YAML.CharPredicates.isTagCharBool</title>
<g id="a_node5"><a xlink:href="../../../api/L4YAML/Spec/CharPredicates.html#L4YAML.CharPredicates.isTagCharBool" xlink:title="CharPredicates.isTagCharBool\n(def)" target="_blank">
<polygon fill="#dce9f7" stroke="#4a90d9" points="596.23,-160 445.23,-160 445.23,-124 596.23,-124 596.23,-160"/>
<text text-anchor="middle" x="520.73" y="-145" font-family="Helvetica" font-size="10.00">CharPredicates.isTagCharBool</text>
<text text-anchor="middle" x="520.73" y="-134" font-family="Helvetica" font-size="10.00">(def)</text>
</a>
</g>
</g>
<!-- L4YAML.Scanner.collectTagSuffixLoop -->
<g id="node6" class="node">
<title>L4YAML.Scanner.collectTagSuffixLoop</title>
<g id="a_node6"><a xlink:href="../../../api/L4YAML/Scanner/NodeProperties.html#L4YAML.Scanner.collectTagSuffixLoop" xlink:title="collectTagSuffixLoop\n(def)" target="_blank">
<polygon fill="#dce9f7" stroke="#4a90d9" points="574.23,-106 467.23,-106 467.23,-70 574.23,-70 574.23,-106"/>
<text text-anchor="middle" x="520.73" y="-91" font-family="Helvetica" font-size="10.00">collectTagSuffixLoop</text>
<text text-anchor="middle" x="520.73" y="-80" font-family="Helvetica" font-size="10.00">(def)</text>
</a>
</g>
</g>
<!-- L4YAML.Scanner.collectAnchorNameLoop.match_3 -->
<g id="node7" class="node">
<title>L4YAML.Scanner.collectAnchorNameLoop.match_3</title>
<g id="a_node7"><a xlink:href="../../../api/L4YAML/Scanner/NodeProperties.html#L4YAML.Scanner.collectAnchorNameLoop.match_3" xlink:title="collectAnchorNameLoop.match_3\n(def)" target="_blank">
<polygon fill="#dce9f7" stroke="#4a90d9" points="602.73,-52 438.73,-52 438.73,-16 602.73,-16 602.73,-52"/>
<text text-anchor="middle" x="520.73" y="-37" font-family="Helvetica" font-size="10.00">collectAnchorNameLoop.match_3</text>
<text text-anchor="middle" x="520.73" y="-26" font-family="Helvetica" font-size="10.00">(def)</text>
</a>
</g>
</g>
<!-- L4YAML.Scanner.collectTagSuffixLoop.eq_def -->
<g id="node8" class="node">
<title>L4YAML.Scanner.collectTagSuffixLoop.eq_def</title>
<g id="a_node8"><a xlink:href="../../../api/L4YAML/Proofs/Coupling/StructureCoupling.html#L4YAML.Scanner.collectTagSuffixLoop.eq_def" xlink:title="collectTagSuffixLoop.eq_def" target="_blank">
<polygon fill="#fff3cd" stroke="#d4a017" points="373.51,-188.54 373.51,-203.46 308.46,-214 216.46,-214 151.4,-203.46 151.4,-188.54 216.46,-178 308.46,-178 373.51,-188.54"/>
<polygon fill="none" stroke="#d4a017" points="377.51,-185.14 377.51,-206.86 308.78,-218 216.14,-218 147.41,-206.86 147.41,-185.14 216.14,-174 308.78,-174 377.51,-185.14"/>
<text text-anchor="middle" x="262.46" y="-192.9" font-family="Helvetica" font-size="12.00">collectTagSuffixLoop.eq_def</text>
</a>
</g>
</g>
<!-- L4YAML.Scanner.collectTagSuffixLoop.eq_def&#45;&gt;L4YAML.Scanner.ScannerState.advance -->
<g id="edge1" class="edge">
<title>L4YAML.Scanner.collectTagSuffixLoop.eq_def&#45;&gt;L4YAML.Scanner.ScannerState.advance</title>
<path fill="none" stroke="#4a90d9" stroke-width="2" d="M284.99,-218.06C315.06,-247.69 372.52,-300.19 430.73,-331 438.69,-335.21 447.41,-338.87 456.18,-342.02"/>
<polygon fill="#4a90d9" stroke="#4a90d9" stroke-width="2" points="455.46,-344.36 462.88,-344.33 457.06,-339.73 455.46,-344.36"/>
<text text-anchor="middle" x="408.23" y="-327.6" font-family="Times-Roman" font-size="8.00" fill="#4a90d9">about</text>
</g>
<!-- L4YAML.Scanner.collectTagSuffixLoop.eq_def&#45;&gt;L4YAML.Scanner.ScannerState.peek? -->
<g id="edge7" class="edge">
<title>L4YAML.Scanner.collectTagSuffixLoop.eq_def&#45;&gt;L4YAML.Scanner.ScannerState.peek?</title>
<path fill="none" stroke="#4a90d9" stroke-width="2" d="M304.59,-218.15C337.96,-235.58 386.56,-259.73 430.73,-277 440.6,-280.86 451.26,-284.51 461.65,-287.82"/>
<polygon fill="#4a90d9" stroke="#4a90d9" stroke-width="2" points="461.02,-290.18 468.43,-289.93 462.48,-285.51 461.02,-290.18"/>
<text text-anchor="middle" x="408.23" y="-273.6" font-family="Times-Roman" font-size="8.00" fill="#4a90d9">about</text>
</g>
<!-- L4YAML.Scanner.collectTagSuffixLoop.eq_def&#45;&gt;L4YAML.Scanner.ScannerState -->
<g id="edge5" class="edge">
<title>L4YAML.Scanner.collectTagSuffixLoop.eq_def&#45;&gt;L4YAML.Scanner.ScannerState</title>
<path fill="none" stroke="#4a90d9" stroke-width="2" d="M342.44,-212.64C386.15,-221.85 438.85,-232.96 475.38,-240.65"/>
<polygon fill="#4a90d9" stroke="#4a90d9" stroke-width="2" points="475.1,-243.1 482.46,-242.15 476.11,-238.31 475.1,-243.1"/>
<text text-anchor="middle" x="408.23" y="-229.6" font-family="Times-Roman" font-size="8.00" fill="#4a90d9">about</text>
</g>
<!-- L4YAML.Scanner.collectTagSuffixLoop.eq_def&#45;&gt;L4YAML.Scanner.collectAnchorNameLoop.match_1 -->
<g id="edge2" class="edge">
<title>L4YAML.Scanner.collectTagSuffixLoop.eq_def&#45;&gt;L4YAML.Scanner.collectAnchorNameLoop.match_1</title>
<path fill="none" stroke="#4a90d9" stroke-width="2" d="M377.73,-196C395.72,-196 414.07,-196 431.35,-196"/>
<polygon fill="#4a90d9" stroke="#4a90d9" stroke-width="2" points="431.69,-198.45 438.69,-196 431.69,-193.55 431.69,-198.45"/>
<text text-anchor="middle" x="408.23" y="-198.6" font-family="Times-Roman" font-size="8.00" fill="#4a90d9">about</text>
</g>
<!-- L4YAML.Scanner.collectTagSuffixLoop.eq_def&#45;&gt;L4YAML.CharPredicates.isTagCharBool -->
<g id="edge6" class="edge">
<title>L4YAML.Scanner.collectTagSuffixLoop.eq_def&#45;&gt;L4YAML.CharPredicates.isTagCharBool</title>
<path fill="none" stroke="#4a90d9" stroke-width="2" d="M342.44,-179.36C372.79,-172.96 407.49,-165.65 438.08,-159.2"/>
<polygon fill="#4a90d9" stroke="#4a90d9" stroke-width="2" points="438.61,-161.6 444.95,-157.76 437.6,-156.8 438.61,-161.6"/>
<text text-anchor="middle" x="408.23" y="-169.6" font-family="Times-Roman" font-size="8.00" fill="#4a90d9">about</text>
</g>
<!-- L4YAML.Scanner.collectTagSuffixLoop.eq_def&#45;&gt;L4YAML.Scanner.collectTagSuffixLoop -->
<g id="edge4" class="edge">
<title>L4YAML.Scanner.collectTagSuffixLoop.eq_def&#45;&gt;L4YAML.Scanner.collectTagSuffixLoop</title>
<path fill="none" stroke="#4a90d9" stroke-width="2" d="M304.59,-173.85C337.96,-156.42 386.56,-132.27 430.73,-115 440.14,-111.32 450.27,-107.83 460.2,-104.65"/>
<polygon fill="#4a90d9" stroke="#4a90d9" stroke-width="2" points="461.09,-106.94 467.03,-102.5 459.62,-102.26 461.09,-106.94"/>
<text text-anchor="middle" x="408.23" y="-130.6" font-family="Times-Roman" font-size="8.00" fill="#4a90d9">about</text>
</g>
<!-- L4YAML.Scanner.collectTagSuffixLoop.eq_def&#45;&gt;L4YAML.Scanner.collectAnchorNameLoop.match_3 -->
<g id="edge3" class="edge">
<title>L4YAML.Scanner.collectTagSuffixLoop.eq_def&#45;&gt;L4YAML.Scanner.collectAnchorNameLoop.match_3</title>
<path fill="none" stroke="#4a90d9" stroke-width="2" d="M284.99,-173.94C315.06,-144.31 372.52,-91.81 430.73,-61 434.95,-58.77 439.38,-56.69 443.92,-54.76"/>
<polygon fill="#4a90d9" stroke="#4a90d9" stroke-width="2" points="445.07,-56.94 450.64,-52.04 443.23,-52.4 445.07,-56.94"/>
<text text-anchor="middle" x="408.23" y="-80.6" font-family="Times-Roman" font-size="8.00" fill="#4a90d9">about</text>
</g>
<!-- Nat.brecOn.eq -->
<g id="node9" class="node">
<title>Nat.brecOn.eq</title>
<g id="a_node9"><a xlink:href="../../../api/Init/Prelude.html#Nat.brecOn.eq" xlink:title="Nat.brecOn.eq" target="_blank">
<ellipse fill="#fdebd0" stroke="#e67e22" cx="63.09" cy="-196" rx="47.19" ry="18"/>
<text text-anchor="middle" x="63.09" y="-193.5" font-family="Helvetica" font-size="10.00">Nat.brecOn.eq</text>
</a>
</g>
</g>
<!-- Nat.brecOn.eq&#45;&gt;L4YAML.Scanner.collectTagSuffixLoop.eq_def -->
<g id="edge8" class="edge">
<title>Nat.brecOn.eq&#45;&gt;L4YAML.Scanner.collectTagSuffixLoop.eq_def</title>
<path fill="none" stroke="#e67e22" stroke-width="2" d="M110.37,-196C119.53,-196 129.55,-196 139.92,-196"/>
<polygon fill="#e67e22" stroke="#e67e22" stroke-width="2" points="140.15,-198.45 147.15,-196 140.15,-193.55 140.15,-198.45"/>
</g>
</g>
</svg>
