<?xml version="1.0" encoding="UTF-8" standalone="no"?>
<!DOCTYPE svg PUBLIC "-//W3C//DTD SVG 1.1//EN"
 "http://www.w3.org/Graphics/SVG/1.1/DTD/svg11.dtd">
<!-- Generated by graphviz version 2.44.0 (0)
 -->
<!-- Title: chain_ScannerPlainScalarValid.FlowNestingInv_emit_non_flow Pages: 1 -->
<svg width="1289pt" height="405pt"
 viewBox="0.00 0.00 1289.00 405.00" xmlns="http://www.w3.org/2000/svg" xmlns:xlink="http://www.w3.org/1999/xlink">
<g id="graph0" class="graph" transform="scale(1 1) rotate(0) translate(4 401)">
<title>chain_ScannerPlainScalarValid.FlowNestingInv_emit_non_flow</title>
<polygon fill="white" stroke="transparent" points="-4,4 -4,-401 1285,-401 1285,4 -4,4"/>
<text text-anchor="middle" x="640.5" y="-382.6" font-family="Helvetica Bold" font-size="13.00">Functorial Chains: ScannerPlainScalarValid.FlowNestingInv_emit_non_flow</text>
<text text-anchor="middle" x="640.5" y="-368.6" font-family="Helvetica Bold" font-size="13.00">(heuristic: used by 7 proofs)</text>
<g id="clust1" class="cluster">
<title>cluster_fns</title>
<polygon fill="none" stroke="#4a90d9" stroke-dasharray="5,2" points="756,-8 756,-244 1273,-244 1273,-8 756,-8"/>
<text text-anchor="middle" x="1014.5" y="-229.6" font-family="Helvetica Bold" font-size="13.00" fill="#4a90d9">Functions (Call Chain)</text>
</g>
<g id="clust2" class="cluster">
<title>cluster_thms</title>
<polygon fill="none" stroke="#28a745" stroke-dasharray="5,2" points="8,-89 8,-353 748,-353 748,-89 8,-89"/>
<text text-anchor="middle" x="378" y="-338.6" font-family="Helvetica Bold" font-size="13.00" fill="#28a745">Theorems (Proof Chain)</text>
</g>
<!-- L4YAML.Scanner.ScannerState.emit -->
<g id="node1" class="node">
<title>L4YAML.Scanner.ScannerState.emit</title>
<g id="a_node1"><a xlink:href="../../../api/L4YAML/Scanner/State.html#L4YAML.Scanner.ScannerState.emit" xlink:title="ScannerState.emit" target="_blank">
<polygon fill="#dce9f7" stroke="#4a90d9" points="1089,-133 991,-133 991,-97 1089,-97 1089,-133"/>
<text text-anchor="middle" x="1040" y="-112.5" font-family="Helvetica" font-size="10.00">ScannerState.emit</text>
</a>
</g>
</g>
<!-- L4YAML.Positioned -->
<g id="node2" class="node">
<title>L4YAML.Positioned</title>
<g id="a_node2"><a xlink:href="../../../api/L4YAML/Token/Token.html#L4YAML.Positioned" xlink:title="Positioned" target="_blank">
<polygon fill="#dce9f7" stroke="#4a90d9" points="1002,-52 940,-52 940,-16 1002,-16 1002,-52"/>
<text text-anchor="middle" x="971" y="-31.5" font-family="Helvetica" font-size="10.00">Positioned</text>
</a>
</g>
</g>
<!-- L4YAML.Scanner.ScannerState.emit&#45;&gt;L4YAML.Positioned -->
<g id="edge23" class="edge">
<title>L4YAML.Scanner.ScannerState.emit&#45;&gt;L4YAML.Positioned</title>
<path fill="none" stroke="#4a90d9" stroke-width="2" d="M1025.03,-96.86C1014.99,-85.37 1001.67,-70.11 990.76,-57.63"/>
<polygon fill="#4a90d9" stroke="#4a90d9" stroke-width="2" points="992.39,-55.77 985.94,-52.11 988.7,-58.99 992.39,-55.77"/>
<text text-anchor="middle" x="1016.5" y="-72.6" font-family="Times-Roman" font-size="8.00">calls</text>
</g>
<!-- L4YAML.Scanner.ScannerState.flowLevel -->
<g id="node3" class="node">
<title>L4YAML.Scanner.ScannerState.flowLevel</title>
<g id="a_node3"><a xlink:href="../../../api/L4YAML/Scanner/State.html#L4YAML.Scanner.ScannerState.flowLevel" xlink:title="ScannerState.flowLevel" target="_blank">
<polygon fill="#dce9f7" stroke="#4a90d9" points="1139.5,-52 1020.5,-52 1020.5,-16 1139.5,-16 1139.5,-52"/>
<text text-anchor="middle" x="1080" y="-31.5" font-family="Helvetica" font-size="10.00">ScannerState.flowLevel</text>
</a>
</g>
</g>
<!-- L4YAML.Scanner.ScannerState.emit&#45;&gt;L4YAML.Scanner.ScannerState.flowLevel -->
<g id="edge14" class="edge">
<title>L4YAML.Scanner.ScannerState.emit&#45;&gt;L4YAML.Scanner.ScannerState.flowLevel</title>
<path fill="none" stroke="#4a90d9" stroke-width="2" d="M1046.88,-96.62C1050.28,-88.43 1054.59,-78.59 1059,-70 1060.95,-66.2 1063.14,-62.26 1065.36,-58.44"/>
<polygon fill="#4a90d9" stroke="#4a90d9" stroke-width="2" points="1067.6,-59.46 1069.07,-52.19 1063.39,-56.96 1067.6,-59.46"/>
<text text-anchor="middle" x="1068.5" y="-72.6" font-family="Times-Roman" font-size="8.00">calls</text>
</g>
<!-- L4YAML.Scanner.ScannerState -->
<g id="node5" class="node">
<title>L4YAML.Scanner.ScannerState</title>
<g id="a_node5"><a xlink:href="../../../api/L4YAML/Scanner/State.html#L4YAML.Scanner.ScannerState" xlink:title="ScannerState" target="_blank">
<polygon fill="#dce9f7" stroke="#4a90d9" points="840,-52 764,-52 764,-16 840,-16 840,-52"/>
<text text-anchor="middle" x="802" y="-31.5" font-family="Helvetica" font-size="10.00">ScannerState</text>
</a>
</g>
</g>
<!-- L4YAML.Scanner.ScannerState.emit&#45;&gt;L4YAML.Scanner.ScannerState -->
<g id="edge17" class="edge">
<title>L4YAML.Scanner.ScannerState.emit&#45;&gt;L4YAML.Scanner.ScannerState</title>
<path fill="none" stroke="#4a90d9" stroke-width="2" d="M1005.36,-96.92C997.82,-93.81 989.76,-90.94 982,-89 930.51,-76.11 912.78,-97.42 863,-79 849.57,-74.03 836.45,-65.24 825.84,-56.82"/>
<polygon fill="#4a90d9" stroke="#4a90d9" stroke-width="2" points="827.18,-54.75 820.22,-52.2 824.07,-58.54 827.18,-54.75"/>
<text text-anchor="middle" x="872.5" y="-72.6" font-family="Times-Roman" font-size="8.00">calls</text>
</g>
<!-- L4YAML.YamlToken -->
<g id="node6" class="node">
<title>L4YAML.YamlToken</title>
<g id="a_node6"><a xlink:href="../../../api/L4YAML/Token/Token.html#L4YAML.YamlToken" xlink:title="YamlToken" target="_blank">
<polygon fill="#dce9f7" stroke="#4a90d9" points="922,-52 858,-52 858,-16 922,-16 922,-52"/>
<text text-anchor="middle" x="890" y="-31.5" font-family="Helvetica" font-size="10.00">YamlToken</text>
</a>
</g>
</g>
<!-- L4YAML.Scanner.ScannerState.emit&#45;&gt;L4YAML.YamlToken -->
<g id="edge19" class="edge">
<title>L4YAML.Scanner.ScannerState.emit&#45;&gt;L4YAML.YamlToken</title>
<path fill="none" stroke="#4a90d9" stroke-width="2" d="M1003.64,-96.88C996.57,-93.97 989.13,-91.18 982,-89 959.08,-81.99 949.85,-90.83 929,-79 919.94,-73.86 911.91,-65.83 905.53,-58.03"/>
<polygon fill="#4a90d9" stroke="#4a90d9" stroke-width="2" points="907.2,-56.19 900.98,-52.16 903.33,-59.2 907.2,-56.19"/>
<text text-anchor="middle" x="938.5" y="-72.6" font-family="Times-Roman" font-size="8.00">calls</text>
</g>
<!-- L4YAML.Scanner.ScannerState.tokens -->
<g id="node7" class="node">
<title>L4YAML.Scanner.ScannerState.tokens</title>
<g id="a_node7"><a xlink:href="../../../api/L4YAML/Scanner/State.html#L4YAML.Scanner.ScannerState.tokens" xlink:title="ScannerState.tokens" target="_blank">
<polygon fill="#dce9f7" stroke="#4a90d9" points="1264.5,-52 1157.5,-52 1157.5,-16 1264.5,-16 1264.5,-52"/>
<text text-anchor="middle" x="1211" y="-31.5" font-family="Helvetica" font-size="10.00">ScannerState.tokens</text>
</a>
</g>
</g>
<!-- L4YAML.Scanner.ScannerState.emit&#45;&gt;L4YAML.Scanner.ScannerState.tokens -->
<g id="edge25" class="edge">
<title>L4YAML.Scanner.ScannerState.emit&#45;&gt;L4YAML.Scanner.ScannerState.tokens</title>
<path fill="none" stroke="#4a90d9" stroke-width="2" d="M1060.12,-96.99C1071.54,-88 1086.42,-77.34 1101,-70 1110.29,-65.32 1130.12,-58.69 1150.42,-52.45"/>
<polygon fill="#4a90d9" stroke="#4a90d9" stroke-width="2" points="1151.33,-54.73 1157.31,-50.35 1149.9,-50.05 1151.33,-54.73"/>
<text text-anchor="middle" x="1110.5" y="-72.6" font-family="Times-Roman" font-size="8.00">calls</text>
</g>
<!-- L4YAML.Proofs.ScannerPlainScalarValid.flowNesting -->
<g id="node4" class="node">
<title>L4YAML.Proofs.ScannerPlainScalarValid.flowNesting</title>
<g id="a_node4"><a xlink:href="../../../api/L4YAML/Proofs/Production/ScannerPlainScalarValid.html#L4YAML.Proofs.ScannerPlainScalarValid.flowNesting" xlink:title="ScannerPlainScalarValid.flowNesting" target="_blank">
<polygon fill="#dce9f7" stroke="#4a90d9" points="973,-133 795,-133 795,-97 973,-97 973,-133"/>
<text text-anchor="middle" x="884" y="-112.5" font-family="Helvetica" font-size="10.00">ScannerPlainScalarValid.flowNesting</text>
</a>
</g>
</g>
<!-- L4YAML.Proofs.ScannerPlainScalarValid.flowNesting&#45;&gt;L4YAML.Positioned -->
<g id="edge5" class="edge">
<title>L4YAML.Proofs.ScannerPlainScalarValid.flowNesting&#45;&gt;L4YAML.Positioned</title>
<path fill="none" stroke="#4a90d9" stroke-width="2" d="M928.07,-96.97C936.78,-92.13 945.29,-86.18 952,-79 957.28,-73.35 961.24,-65.99 964.13,-58.92"/>
<polygon fill="#4a90d9" stroke="#4a90d9" stroke-width="2" points="966.55,-59.43 966.67,-52.02 961.95,-57.74 966.55,-59.43"/>
<text text-anchor="middle" x="967.5" y="-72.6" font-family="Times-Roman" font-size="8.00">calls</text>
</g>
<!-- L4YAML.Proofs.ScannerPlainScalarValid.flowNesting&#45;&gt;L4YAML.YamlToken -->
<g id="edge8" class="edge">
<title>L4YAML.Proofs.ScannerPlainScalarValid.flowNesting&#45;&gt;L4YAML.YamlToken</title>
<path fill="none" stroke="#4a90d9" stroke-width="2" d="M885.3,-96.86C886.14,-85.88 887.23,-71.48 888.15,-59.33"/>
<polygon fill="#4a90d9" stroke="#4a90d9" stroke-width="2" points="890.61,-59.27 888.7,-52.11 885.73,-58.9 890.61,-59.27"/>
<text text-anchor="middle" x="896.5" y="-72.6" font-family="Times-Roman" font-size="8.00">calls</text>
</g>
<!-- L4YAML.Proofs.ScannerPlainScalarValid.FlowNestingInv -->
<g id="node8" class="node">
<title>L4YAML.Proofs.ScannerPlainScalarValid.FlowNestingInv</title>
<g id="a_node8"><a xlink:href="../../../api/L4YAML/Proofs/Production/ScannerPlainScalarValid.html#L4YAML.Proofs.ScannerPlainScalarValid.FlowNestingInv" xlink:title="ScannerPlainScalarValid.FlowNestingInv" target="_blank">
<polygon fill="#dce9f7" stroke="#4a90d9" points="981,-214 787,-214 787,-178 981,-178 981,-214"/>
<text text-anchor="middle" x="884" y="-193.5" font-family="Helvetica" font-size="10.00">ScannerPlainScalarValid.FlowNestingInv</text>
</a>
</g>
</g>
<!-- L4YAML.Proofs.ScannerPlainScalarValid.FlowNestingInv&#45;&gt;L4YAML.Proofs.ScannerPlainScalarValid.flowNesting -->
<g id="edge2" class="edge">
<title>L4YAML.Proofs.ScannerPlainScalarValid.FlowNestingInv&#45;&gt;L4YAML.Proofs.ScannerPlainScalarValid.flowNesting</title>
<path fill="none" stroke="#4a90d9" stroke-width="2" d="M884,-177.86C884,-166.88 884,-152.48 884,-140.33"/>
<polygon fill="#4a90d9" stroke="#4a90d9" stroke-width="2" points="886.45,-140.11 884,-133.11 881.55,-140.11 886.45,-140.11"/>
<text text-anchor="middle" x="893.5" y="-153.6" font-family="Times-Roman" font-size="8.00">calls</text>
</g>
<!-- L4YAML.Proofs.ScannerPlainScalarValid.FlowNestingInv&#45;&gt;L4YAML.Scanner.ScannerState.tokens -->
<g id="edge10" class="edge">
<title>L4YAML.Proofs.ScannerPlainScalarValid.FlowNestingInv&#45;&gt;L4YAML.Scanner.ScannerState.tokens</title>
<path fill="none" stroke="#4a90d9" stroke-width="2" d="M974.31,-178C1013.82,-168.29 1059.77,-153.79 1098,-133 1134.75,-113.01 1169.99,-79.38 1191.07,-57.18"/>
<polygon fill="#4a90d9" stroke="#4a90d9" stroke-width="2" points="1192.86,-58.86 1195.86,-52.08 1189.29,-55.5 1192.86,-58.86"/>
<text text-anchor="middle" x="1167.5" y="-113.1" font-family="Times-Roman" font-size="8.00">calls</text>
</g>
<!-- L4YAML.Proofs.ScannerProofs.emit_tokens_size -->
<g id="node9" class="node">
<title>L4YAML.Proofs.ScannerProofs.emit_tokens_size</title>
<g id="a_node9"><a xlink:href="../../../api/L4YAML/Proofs/Scanner/ScannerProofs.html#L4YAML.Proofs.ScannerProofs.emit_tokens_size" xlink:title="ScannerProofs.emit_tokens_size" target="_blank">
<ellipse fill="#d4edda" stroke="#28a745" cx="646" cy="-115" rx="93.69" ry="18"/>
<text text-anchor="middle" x="646" y="-112.5" font-family="Helvetica" font-size="10.00">ScannerProofs.emit_tokens_size</text>
</a>
</g>
</g>
<!-- L4YAML.Proofs.ScannerProofs.emit_tokens_size&#45;&gt;L4YAML.Positioned -->
<g id="edge24" class="edge">
<title>L4YAML.Proofs.ScannerProofs.emit_tokens_size&#45;&gt;L4YAML.Positioned</title>
<path fill="none" stroke="#6f42c1" stroke-width="2" stroke-dasharray="5,2" d="M663.01,-97.21C674.02,-87.46 689.22,-75.94 705,-70 799.3,-34.49 833.14,-76.02 931,-52 931.64,-51.84 932.29,-51.68 932.93,-51.5"/>
<polygon fill="#6f42c1" stroke="#6f42c1" stroke-width="2" points="933.92,-53.76 939.88,-49.35 932.47,-49.08 933.92,-53.76"/>
<text text-anchor="middle" x="717.5" y="-72.6" font-family="Times-Roman" font-size="8.00" fill="#6f42c1">about</text>
</g>
<!-- L4YAML.Proofs.ScannerProofs.emit_tokens_size&#45;&gt;L4YAML.Scanner.ScannerState -->
<g id="edge21" class="edge">
<title>L4YAML.Proofs.ScannerProofs.emit_tokens_size&#45;&gt;L4YAML.Scanner.ScannerState</title>
<path fill="none" stroke="#6f42c1" stroke-width="2" stroke-dasharray="5,2" d="M593.31,-100.02C577.24,-96.08 559.47,-92.04 543,-89 507.91,-82.51 441.11,-96.5 465,-70 484.18,-48.73 669.25,-39.56 756.68,-36.4"/>
<polygon fill="#6f42c1" stroke="#6f42c1" stroke-width="2" points="756.91,-38.84 763.82,-36.14 756.74,-33.94 756.91,-38.84"/>
<text text-anchor="middle" x="477.5" y="-72.6" font-family="Times-Roman" font-size="8.00" fill="#6f42c1">about</text>
</g>
<!-- L4YAML.Proofs.ScannerProofs.emit_tokens_size&#45;&gt;L4YAML.YamlToken -->
<g id="edge22" class="edge">
<title>L4YAML.Proofs.ScannerProofs.emit_tokens_size&#45;&gt;L4YAML.YamlToken</title>
<path fill="none" stroke="#6f42c1" stroke-width="2" stroke-dasharray="5,2" d="M619.13,-97.58C608.6,-89.17 600.79,-78.85 609,-70 627.19,-50.4 822.99,-58.2 849,-52 849.62,-51.85 850.25,-51.69 850.88,-51.53"/>
<polygon fill="#6f42c1" stroke="#6f42c1" stroke-width="2" points="851.63,-53.86 857.64,-49.51 850.23,-49.17 851.63,-53.86"/>
<text text-anchor="middle" x="621.5" y="-72.6" font-family="Times-Roman" font-size="8.00" fill="#6f42c1">about</text>
</g>
<!-- L4YAML.Proofs.ScannerProofs.emit_tokens_size&#45;&gt;L4YAML.Scanner.ScannerState.tokens -->
<g id="edge12" class="edge">
<title>L4YAML.Proofs.ScannerProofs.emit_tokens_size&#45;&gt;L4YAML.Scanner.ScannerState.tokens</title>
<path fill="none" stroke="#6f42c1" stroke-width="2" stroke-dasharray="5,2" d="M698.48,-99.94C744.27,-87.76 805.18,-71.82 817,-70 963.05,-47.48 1003.14,-75.67 1149,-52 1149.43,-51.93 1149.86,-51.86 1150.29,-51.79"/>
<polygon fill="#6f42c1" stroke="#6f42c1" stroke-width="2" points="1150.96,-54.15 1157.39,-50.45 1150.05,-49.34 1150.96,-54.15"/>
<text text-anchor="middle" x="829.5" y="-72.6" font-family="Times-Roman" font-size="8.00" fill="#6f42c1">about</text>
</g>
<!-- L4YAML.Proofs.ScannerPlainScalarValid.flowNesting_push -->
<g id="node10" class="node">
<title>L4YAML.Proofs.ScannerPlainScalarValid.flowNesting_push</title>
<g id="a_node10"><a xlink:href="../../../api/L4YAML/Proofs/Production/ScannerPlainScalarValid.html#L4YAML.Proofs.ScannerPlainScalarValid.flowNesting_push" xlink:title="ScannerPlainScalarValid.flowNesting_push" target="_blank">
<ellipse fill="#d4edda" stroke="#28a745" cx="414" cy="-115" rx="120.17" ry="18"/>
<text text-anchor="middle" x="414" y="-112.5" font-family="Helvetica" font-size="10.00">ScannerPlainScalarValid.flowNesting_push</text>
</a>
</g>
</g>
<!-- L4YAML.Proofs.ScannerPlainScalarValid.flowNesting_push&#45;&gt;L4YAML.Positioned -->
<g id="edge7" class="edge">
<title>L4YAML.Proofs.ScannerPlainScalarValid.flowNesting_push&#45;&gt;L4YAML.Positioned</title>
<path fill="none" stroke="#6f42c1" stroke-width="2" stroke-dasharray="5,2" d="M480.77,-99.98C500.73,-96.08 522.7,-92.08 543,-89 583.23,-82.9 594.36,-88.18 634,-79 645.5,-76.34 647.44,-72.41 659,-70 777.6,-45.24 813.15,-80.09 931,-52 931.64,-51.85 932.29,-51.68 932.93,-51.51"/>
<polygon fill="#6f42c1" stroke="#6f42c1" stroke-width="2" points="933.91,-53.78 939.9,-49.39 932.48,-49.09 933.91,-53.78"/>
<text text-anchor="middle" x="671.5" y="-72.6" font-family="Times-Roman" font-size="8.00" fill="#6f42c1">about</text>
</g>
<!-- L4YAML.Proofs.ScannerPlainScalarValid.flowNesting_push&#45;&gt;L4YAML.YamlToken -->
<g id="edge9" class="edge">
<title>L4YAML.Proofs.ScannerPlainScalarValid.flowNesting_push&#45;&gt;L4YAML.YamlToken</title>
<path fill="none" stroke="#6f42c1" stroke-width="2" stroke-dasharray="5,2" d="M467.93,-98.78C510.74,-86.8 565.15,-71.81 576,-70 695.93,-49.96 730.59,-79.66 849,-52 849.62,-51.85 850.25,-51.7 850.88,-51.54"/>
<polygon fill="#6f42c1" stroke="#6f42c1" stroke-width="2" points="851.63,-53.87 857.65,-49.54 850.24,-49.17 851.63,-53.87"/>
<text text-anchor="middle" x="588.5" y="-72.6" font-family="Times-Roman" font-size="8.00" fill="#6f42c1">about</text>
</g>
<!-- L4YAML.Proofs.ScannerCorrectness.emit_preserves_flowLevel -->
<g id="node11" class="node">
<title>L4YAML.Proofs.ScannerCorrectness.emit_preserves_flowLevel</title>
<g id="a_node11"><a xlink:href="../../../api/L4YAML/Proofs/Scanner/ScannerCorrectness.html#L4YAML.Proofs.ScannerCorrectness.emit_preserves_flowLevel" xlink:title="ScannerCorrectness.emit_preserves_flowLevel" target="_blank">
<ellipse fill="#d4edda" stroke="#28a745" cx="146" cy="-115" rx="130.19" ry="18"/>
<text text-anchor="middle" x="146" y="-112.5" font-family="Helvetica" font-size="10.00">ScannerCorrectness.emit_preserves_flowLevel</text>
</a>
</g>
</g>
<!-- L4YAML.Proofs.ScannerCorrectness.emit_preserves_flowLevel&#45;&gt;L4YAML.Scanner.ScannerState.flowLevel -->
<g id="edge16" class="edge">
<title>L4YAML.Proofs.ScannerCorrectness.emit_preserves_flowLevel&#45;&gt;L4YAML.Scanner.ScannerState.flowLevel</title>
<path fill="none" stroke="#6f42c1" stroke-width="2" stroke-dasharray="5,2" d="M213.93,-99.6C236.44,-95.42 261.7,-91.34 285,-89 383.42,-79.1 633.34,-99.98 730,-79 739.92,-76.85 741.13,-72.38 751,-70 863.59,-42.8 896.56,-69.92 1011,-52 1011.76,-51.88 1012.53,-51.76 1013.3,-51.63"/>
<polygon fill="#6f42c1" stroke="#6f42c1" stroke-width="2" points="1013.83,-54.02 1020.29,-50.38 1012.97,-49.2 1013.83,-54.02"/>
<text text-anchor="middle" x="763.5" y="-72.6" font-family="Times-Roman" font-size="8.00" fill="#6f42c1">about</text>
</g>
<!-- L4YAML.Proofs.ScannerCorrectness.emit_preserves_flowLevel&#45;&gt;L4YAML.Scanner.ScannerState -->
<g id="edge18" class="edge">
<title>L4YAML.Proofs.ScannerCorrectness.emit_preserves_flowLevel&#45;&gt;L4YAML.Scanner.ScannerState</title>
<path fill="none" stroke="#6f42c1" stroke-width="2" stroke-dasharray="5,2" d="M219.47,-100.11C240.59,-96.3 263.68,-92.31 285,-89 458.43,-62.06 666.73,-44.89 756.83,-38.19"/>
<polygon fill="#6f42c1" stroke="#6f42c1" stroke-width="2" points="757.09,-40.63 763.89,-37.67 756.73,-35.74 757.09,-40.63"/>
<text text-anchor="middle" x="424.5" y="-72.6" font-family="Times-Roman" font-size="8.00" fill="#6f42c1">about</text>
</g>
<!-- L4YAML.Proofs.ScannerCorrectness.emit_preserves_flowLevel&#45;&gt;L4YAML.YamlToken -->
<g id="edge20" class="edge">
<title>L4YAML.Proofs.ScannerCorrectness.emit_preserves_flowLevel&#45;&gt;L4YAML.YamlToken</title>
<path fill="none" stroke="#6f42c1" stroke-width="2" stroke-dasharray="5,2" d="M215.38,-99.7C237.54,-95.63 262.22,-91.59 285,-89 375.63,-78.68 401.12,-99.51 490,-79 499.89,-76.72 501.11,-72.31 511,-70 657.51,-35.84 702.29,-85.29 849,-52 849.62,-51.86 850.25,-51.71 850.88,-51.55"/>
<polygon fill="#6f42c1" stroke="#6f42c1" stroke-width="2" points="851.62,-53.89 857.65,-49.58 850.25,-49.18 851.62,-53.89"/>
<text text-anchor="middle" x="523.5" y="-72.6" font-family="Times-Roman" font-size="8.00" fill="#6f42c1">about</text>
</g>
<!-- L4YAML.Proofs.ScannerPlainScalarValid.FlowNestingInv_emit_non_flow -->
<g id="node12" class="node">
<title>L4YAML.Proofs.ScannerPlainScalarValid.FlowNestingInv_emit_non_flow</title>
<g id="a_node12"><a xlink:href="../../../api/L4YAML/Proofs/Production/ScannerPlainScalarValid.html#L4YAML.Proofs.ScannerPlainScalarValid.FlowNestingInv_emit_non_flow" xlink:title="ScannerPlainScalarValid.FlowNestingInv_emit_non_flow" target="_blank">
<polygon fill="#fff3cd" stroke="#d4a017" points="735.65,-293.54 735.65,-308.46 637.44,-319 498.56,-319 400.35,-308.46 400.35,-293.54 498.56,-283 637.44,-283 735.65,-293.54"/>
<polygon fill="none" stroke="#d4a017" points="739.65,-289.95 739.65,-312.05 637.66,-323 498.34,-323 396.35,-312.05 396.35,-289.95 498.34,-279 637.66,-279 739.65,-289.95"/>
<text text-anchor="middle" x="568" y="-298.5" font-family="Helvetica" font-size="10.00">ScannerPlainScalarValid.FlowNestingInv_emit_non_flow</text>
</a>
</g>
</g>
<!-- L4YAML.Proofs.ScannerPlainScalarValid.FlowNestingInv_emit_non_flow&#45;&gt;L4YAML.Scanner.ScannerState.emit -->
<g id="edge13" class="edge">
<title>L4YAML.Proofs.ScannerPlainScalarValid.FlowNestingInv_emit_non_flow&#45;&gt;L4YAML.Scanner.ScannerState.emit</title>
<path fill="none" stroke="#6f42c1" stroke-width="2" stroke-dasharray="5,2" d="M739.58,-294.67C838.73,-288.29 951.29,-274.36 990,-244 1022.19,-218.75 1033.69,-169.9 1037.77,-140.39"/>
<polygon fill="#6f42c1" stroke="#6f42c1" stroke-width="2" points="1040.22,-140.58 1038.66,-133.33 1035.36,-139.97 1040.22,-140.58"/>
<text text-anchor="middle" x="1041.5" y="-194.1" font-family="Times-Roman" font-size="8.00" fill="#6f42c1">about</text>
</g>
<!-- L4YAML.Proofs.ScannerPlainScalarValid.FlowNestingInv_emit_non_flow&#45;&gt;L4YAML.Proofs.ScannerPlainScalarValid.FlowNestingInv -->
<g id="edge1" class="edge">
<title>L4YAML.Proofs.ScannerPlainScalarValid.FlowNestingInv_emit_non_flow&#45;&gt;L4YAML.Proofs.ScannerPlainScalarValid.FlowNestingInv</title>
<path fill="none" stroke="#6f42c1" stroke-width="2" stroke-dasharray="5,2" d="M639.46,-279.1C673.63,-268.88 715.06,-256.19 752,-244 778.18,-235.36 807.06,-225.16 831.11,-216.47"/>
<polygon fill="#6f42c1" stroke="#6f42c1" stroke-width="2" points="832.01,-218.75 837.75,-214.06 830.34,-214.14 832.01,-218.75"/>
<text text-anchor="middle" x="739.5" y="-254.6" font-family="Times-Roman" font-size="8.00" fill="#6f42c1">about</text>
</g>
<!-- L4YAML.Proofs.ScannerPlainScalarValid.FlowNestingInv_emit_non_flow&#45;&gt;L4YAML.Proofs.ScannerProofs.emit_tokens_size -->
<g id="edge11" class="edge">
<title>L4YAML.Proofs.ScannerPlainScalarValid.FlowNestingInv_emit_non_flow&#45;&gt;L4YAML.Proofs.ScannerProofs.emit_tokens_size</title>
<path fill="none" stroke="#28a745" stroke-width="2" d="M592.15,-278.96C601.87,-269.25 612.35,-256.99 619,-244 636.13,-210.56 642.39,-166.88 644.68,-140.16"/>
<polygon fill="#28a745" stroke="#28a745" stroke-width="2" points="647.13,-140.27 645.23,-133.1 642.25,-139.89 647.13,-140.27"/>
<text text-anchor="middle" x="649" y="-194.1" font-family="Times-Roman" font-size="8.00">uses</text>
</g>
<!-- L4YAML.Proofs.ScannerPlainScalarValid.FlowNestingInv_emit_non_flow&#45;&gt;L4YAML.Proofs.ScannerCorrectness.emit_preserves_flowLevel -->
<g id="edge15" class="edge">
<title>L4YAML.Proofs.ScannerPlainScalarValid.FlowNestingInv_emit_non_flow&#45;&gt;L4YAML.Proofs.ScannerCorrectness.emit_preserves_flowLevel</title>
<path fill="none" stroke="#28a745" stroke-width="2" d="M426.98,-286.6C381.25,-278.41 331.41,-265.23 289,-244 237.04,-217.99 189.52,-168.03 164.5,-138.81"/>
<polygon fill="#28a745" stroke="#28a745" stroke-width="2" points="166.19,-137.02 159.8,-133.25 162.45,-140.18 166.19,-137.02"/>
<text text-anchor="middle" x="299" y="-194.1" font-family="Times-Roman" font-size="8.00">uses</text>
</g>
<!-- L4YAML.Proofs.ScannerPlainScalarValid.flowNesting_push_non_flow -->
<g id="node13" class="node">
<title>L4YAML.Proofs.ScannerPlainScalarValid.flowNesting_push_non_flow</title>
<g id="a_node13"><a xlink:href="../../../api/L4YAML/Proofs/Production/ScannerPlainScalarValid.html#L4YAML.Proofs.ScannerPlainScalarValid.flowNesting_push_non_flow" xlink:title="ScannerPlainScalarValid.flowNesting_push_non_flow" target="_blank">
<ellipse fill="#d4edda" stroke="#28a745" cx="464" cy="-196" rx="145.98" ry="18"/>
<text text-anchor="middle" x="464" y="-193.5" font-family="Helvetica" font-size="10.00">ScannerPlainScalarValid.flowNesting_push_non_flow</text>
</a>
</g>
</g>
<!-- L4YAML.Proofs.ScannerPlainScalarValid.FlowNestingInv_emit_non_flow&#45;&gt;L4YAML.Proofs.ScannerPlainScalarValid.flowNesting_push_non_flow -->
<g id="edge3" class="edge">
<title>L4YAML.Proofs.ScannerPlainScalarValid.FlowNestingInv_emit_non_flow&#45;&gt;L4YAML.Proofs.ScannerPlainScalarValid.flowNesting_push_non_flow</title>
<path fill="none" stroke="#28a745" stroke-width="2" d="M546.7,-278.91C529.15,-261.52 504.31,-236.93 486.45,-219.23"/>
<polygon fill="#28a745" stroke="#28a745" stroke-width="2" points="487.84,-217.16 481.14,-213.98 484.39,-220.65 487.84,-217.16"/>
<text text-anchor="middle" x="538" y="-254.6" font-family="Times-Roman" font-size="8.00">uses</text>
</g>
<!-- L4YAML.Proofs.ScannerPlainScalarValid.flowNesting_push_non_flow&#45;&gt;L4YAML.Proofs.ScannerPlainScalarValid.flowNesting -->
<g id="edge4" class="edge">
<title>L4YAML.Proofs.ScannerPlainScalarValid.flowNesting_push_non_flow&#45;&gt;L4YAML.Proofs.ScannerPlainScalarValid.flowNesting</title>
<path fill="none" stroke="#6f42c1" stroke-width="2" stroke-dasharray="5,2" d="M540.55,-180.6C610,-167.54 712.7,-148.22 787.7,-134.11"/>
<polygon fill="#6f42c1" stroke="#6f42c1" stroke-width="2" points="788.45,-136.47 794.87,-132.76 787.54,-131.65 788.45,-136.47"/>
<text text-anchor="middle" x="698.5" y="-153.6" font-family="Times-Roman" font-size="8.00" fill="#6f42c1">about</text>
</g>
<!-- L4YAML.Proofs.ScannerPlainScalarValid.flowNesting_push_non_flow&#45;&gt;L4YAML.Proofs.ScannerPlainScalarValid.flowNesting_push -->
<g id="edge6" class="edge">
<title>L4YAML.Proofs.ScannerPlainScalarValid.flowNesting_push_non_flow&#45;&gt;L4YAML.Proofs.ScannerPlainScalarValid.flowNesting_push</title>
<path fill="none" stroke="#28a745" stroke-width="2" d="M453.15,-177.86C446.01,-166.57 436.57,-151.66 428.75,-139.3"/>
<polygon fill="#28a745" stroke="#28a745" stroke-width="2" points="430.64,-137.71 424.83,-133.11 426.5,-140.33 430.64,-137.71"/>
<text text-anchor="middle" x="450" y="-153.6" font-family="Times-Roman" font-size="8.00">uses</text>
</g>
</g>
</svg>
