<?xml version="1.0" encoding="UTF-8" standalone="no"?>
<!DOCTYPE svg PUBLIC "-//W3C//DTD SVG 1.1//EN"
 "http://www.w3.org/Graphics/SVG/1.1/DTD/svg11.dtd">
<!-- Generated by graphviz version 2.44.0 (0)
 -->
<!-- Title: ScannerPlainScalarValid.flowNesting_go_step Pages: 1 -->
<svg width="1099pt" height="438pt"
 viewBox="0.00 0.00 1098.90 438.47" xmlns="http://www.w3.org/2000/svg" xmlns:xlink="http://www.w3.org/1999/xlink">
<g id="graph0" class="graph" transform="scale(1 1) rotate(0) translate(4 434.47)">
<title>ScannerPlainScalarValid.flowNesting_go_step</title>
<polygon fill="white" stroke="transparent" points="-4,4 -4,-434.47 1094.9,-434.47 1094.9,4 -4,4"/>
<text text-anchor="middle" x="545.45" y="-416.07" font-family="Helvetica Bold" font-size="13.00">ScannerPlainScalarValid.flowNesting_go_step</text>
<text text-anchor="middle" x="545.45" y="-402.07" font-family="Helvetica Bold" font-size="13.00">(heuristic: used by 9 proofs)</text>
<text text-anchor="middle" x="545.45" y="-388.07" font-family="Helvetica Bold" font-size="13.00">(L4YAML.Proofs.Production.ScannerPlainScalarValid)</text>
<g id="clust1" class="cluster">
<title>cluster_functions</title>
<polygon fill="none" stroke="#4a90d9" stroke-dasharray="5,2" points="848.9,-76.47 848.9,-366.47 1082.9,-366.47 1082.9,-76.47 848.9,-76.47"/>
<text text-anchor="middle" x="965.9" y="-352.07" font-family="Helvetica Bold" font-size="13.00" fill="#4a90d9">Functions</text>
</g>
<g id="clust2" class="cluster">
<title>cluster_key</title>
<polygon fill="none" stroke="#d4a017" stroke-dasharray="5,2" points="425.42,-19.47 425.42,-101.47 803.9,-101.47 803.9,-19.47 425.42,-19.47"/>
<text text-anchor="middle" x="614.66" y="-87.07" font-family="Helvetica Bold" font-size="13.00" fill="#d4a017">Key Theorem</text>
</g>
<g id="clust3" class="cluster">
<title>cluster_proofs</title>
<polygon fill="none" stroke="#28a745" stroke-dasharray="5,2" points="8,-189.47 8,-329.47 404.42,-329.47 404.42,-189.47 8,-189.47"/>
<text text-anchor="middle" x="206.21" y="-315.07" font-family="Helvetica Bold" font-size="13.00" fill="#28a745">Proof Dependencies</text>
</g>
<g id="clust4" class="cluster">
<title>cluster_stdlib</title>
<polygon fill="none" stroke="#e67e22" stroke-dasharray="5,2" points="150.83,-20.47 150.83,-148.47 261.6,-148.47 261.6,-20.47 150.83,-20.47"/>
<text text-anchor="middle" x="206.21" y="-134.07" font-family="Helvetica Bold" font-size="13.00" fill="#e67e22">Stdlib Lemmas</text>
</g>
<!-- L4YAML.Positioned -->
<g id="node1" class="node">
<title>L4YAML.Positioned</title>
<g id="a_node1"><a xlink:href="../../../api/L4YAML/Token/Token.html#L4YAML.Positioned" xlink:title="Positioned\n(inductive)" target="_blank">
<polygon fill="#dce9f7" stroke="#4a90d9" points="996.9,-282.47 934.9,-282.47 934.9,-246.47 996.9,-246.47 996.9,-282.47"/>
<text text-anchor="middle" x="965.9" y="-267.47" font-family="Helvetica" font-size="10.00">Positioned</text>
<text text-anchor="middle" x="965.9" y="-256.47" font-family="Helvetica" font-size="10.00">(inductive)</text>
</a>
</g>
</g>
<!-- L4YAML.Proofs.ScannerPlainScalarValid.flowNesting.match_1 -->
<g id="node2" class="node">
<title>L4YAML.Proofs.ScannerPlainScalarValid.flowNesting.match_1</title>
<g id="a_node2"><a xlink:href="../../../api/L4YAML/Proofs/Production/ScannerPlainScalarValid.html#L4YAML.Proofs.ScannerPlainScalarValid.flowNesting.match_1" xlink:title="ScannerPlainScalarValid.flowNesting.match_1\n(def)" target="_blank">
<polygon fill="#dce9f7" stroke="#4a90d9" points="1074.9,-120.47 856.9,-120.47 856.9,-84.47 1074.9,-84.47 1074.9,-120.47"/>
<text text-anchor="middle" x="965.9" y="-105.47" font-family="Helvetica" font-size="10.00">ScannerPlainScalarValid.flowNesting.match_1</text>
<text text-anchor="middle" x="965.9" y="-94.47" font-family="Helvetica" font-size="10.00">(def)</text>
</a>
</g>
</g>
<!-- L4YAML.Positioned.val -->
<g id="node3" class="node">
<title>L4YAML.Positioned.val</title>
<g id="a_node3"><a xlink:href="../../../api/L4YAML/Token/Token.html#L4YAML.Positioned.val" xlink:title="Positioned.val\n(def)" target="_blank">
<polygon fill="#dce9f7" stroke="#4a90d9" points="1004.4,-174.47 927.4,-174.47 927.4,-138.47 1004.4,-138.47 1004.4,-174.47"/>
<text text-anchor="middle" x="965.9" y="-159.47" font-family="Helvetica" font-size="10.00">Positioned.val</text>
<text text-anchor="middle" x="965.9" y="-148.47" font-family="Helvetica" font-size="10.00">(def)</text>
</a>
</g>
</g>
<!-- L4YAML.YamlToken -->
<g id="node4" class="node">
<title>L4YAML.YamlToken</title>
<g id="a_node4"><a xlink:href="../../../api/L4YAML/Token/Token.html#L4YAML.YamlToken" xlink:title="YamlToken\n(inductive)" target="_blank">
<polygon fill="#dce9f7" stroke="#4a90d9" points="997.9,-336.47 933.9,-336.47 933.9,-300.47 997.9,-300.47 997.9,-336.47"/>
<text text-anchor="middle" x="965.9" y="-321.47" font-family="Helvetica" font-size="10.00">YamlToken</text>
<text text-anchor="middle" x="965.9" y="-310.47" font-family="Helvetica" font-size="10.00">(inductive)</text>
</a>
</g>
</g>
<!-- L4YAML.Proofs.ScannerPlainScalarValid.flowNesting.go -->
<g id="node5" class="node">
<title>L4YAML.Proofs.ScannerPlainScalarValid.flowNesting.go</title>
<g id="a_node5"><a xlink:href="../../../api/L4YAML/Proofs/Production/ScannerPlainScalarValid.html#L4YAML.Proofs.ScannerPlainScalarValid.flowNesting.go" xlink:title="ScannerPlainScalarValid.flowNesting.go\n(def)" target="_blank">
<polygon fill="#dce9f7" stroke="#4a90d9" points="1061.4,-228.47 870.4,-228.47 870.4,-192.47 1061.4,-192.47 1061.4,-228.47"/>
<text text-anchor="middle" x="965.9" y="-213.47" font-family="Helvetica" font-size="10.00">ScannerPlainScalarValid.flowNesting.go</text>
<text text-anchor="middle" x="965.9" y="-202.47" font-family="Helvetica" font-size="10.00">(def)</text>
</a>
</g>
</g>
<!-- L4YAML.Proofs.ScannerPlainScalarValid.flowNesting_go_step -->
<g id="node6" class="node">
<title>L4YAML.Proofs.ScannerPlainScalarValid.flowNesting_go_step</title>
<g id="a_node6"><a xlink:href="../../../api/L4YAML/Proofs/Production/ScannerPlainScalarValid.html#L4YAML.Proofs.ScannerPlainScalarValid.flowNesting_go_step" xlink:title="ScannerPlainScalarValid.flowNesting_go_step" target="_blank">
<polygon fill="#fff3cd" stroke="#d4a017" points="792.13,-42.01 792.13,-56.93 688.17,-67.47 541.15,-67.47 437.19,-56.93 437.19,-42.01 541.15,-31.47 688.17,-31.47 792.13,-42.01"/>
<polygon fill="none" stroke="#d4a017" points="796.14,-38.4 796.14,-60.54 688.37,-71.47 540.95,-71.47 433.19,-60.54 433.19,-38.4 540.95,-27.47 688.37,-27.47 796.14,-38.4"/>
<text text-anchor="middle" x="614.66" y="-46.37" font-family="Helvetica" font-size="12.00">ScannerPlainScalarValid.flowNesting_go_step</text>
</a>
</g>
</g>
<!-- L4YAML.Proofs.ScannerPlainScalarValid.flowNesting_go_step&#45;&gt;L4YAML.Positioned -->
<g id="edge1" class="edge">
<title>L4YAML.Proofs.ScannerPlainScalarValid.flowNesting_go_step&#45;&gt;L4YAML.Positioned</title>
<path fill="none" stroke="#4a90d9" stroke-width="2" d="M735.78,-66.79C760.72,-75.12 785.1,-87.39 803.9,-105.47 848.58,-148.43 802.94,-195.88 848.9,-237.47 870.18,-256.73 902.48,-263.04 927.6,-264.78"/>
<polygon fill="#4a90d9" stroke="#4a90d9" stroke-width="2" points="927.69,-267.24 934.81,-265.17 927.96,-262.35 927.69,-267.24"/>
<text text-anchor="middle" x="826.4" y="-227.07" font-family="Times-Roman" font-size="8.00" fill="#4a90d9">about</text>
</g>
<!-- L4YAML.Proofs.ScannerPlainScalarValid.flowNesting_go_step&#45;&gt;L4YAML.Proofs.ScannerPlainScalarValid.flowNesting.match_1 -->
<g id="edge5" class="edge">
<title>L4YAML.Proofs.ScannerPlainScalarValid.flowNesting_go_step&#45;&gt;L4YAML.Proofs.ScannerPlainScalarValid.flowNesting.match_1</title>
<path fill="none" stroke="#4a90d9" stroke-width="2" d="M662.78,-27.42C708.62,-9.07 779.81,11.14 838.9,-8.47 880.8,-22.38 920.06,-56.24 943.28,-79.29"/>
<polygon fill="#4a90d9" stroke="#4a90d9" stroke-width="2" points="941.6,-81.07 948.27,-84.32 945.08,-77.62 941.6,-81.07"/>
<text text-anchor="middle" x="826.4" y="-11.07" font-family="Times-Roman" font-size="8.00" fill="#4a90d9">about</text>
</g>
<!-- L4YAML.Proofs.ScannerPlainScalarValid.flowNesting_go_step&#45;&gt;L4YAML.Positioned.val -->
<g id="edge3" class="edge">
<title>L4YAML.Proofs.ScannerPlainScalarValid.flowNesting_go_step&#45;&gt;L4YAML.Positioned.val</title>
<path fill="none" stroke="#4a90d9" stroke-width="2" d="M672.53,-27.36C722.63,-12 794.36,-0.66 838.9,-40.47 853.74,-53.73 835.67,-114.6 848.9,-129.47 866.47,-149.23 895.43,-155.98 920.02,-157.8"/>
<polygon fill="#4a90d9" stroke="#4a90d9" stroke-width="2" points="920.03,-160.25 927.16,-158.2 920.31,-155.36 920.03,-160.25"/>
<text text-anchor="middle" x="826.4" y="-43.07" font-family="Times-Roman" font-size="8.00" fill="#4a90d9">about</text>
</g>
<!-- L4YAML.Proofs.ScannerPlainScalarValid.flowNesting_go_step&#45;&gt;L4YAML.YamlToken -->
<g id="edge4" class="edge">
<title>L4YAML.Proofs.ScannerPlainScalarValid.flowNesting_go_step&#45;&gt;L4YAML.YamlToken</title>
<path fill="none" stroke="#4a90d9" stroke-width="2" d="M745.65,-65.78C768.05,-74.29 788.92,-86.89 803.9,-105.47 822.36,-128.37 804.5,-209.6 813.9,-237.47 823.04,-264.57 825.49,-275.03 848.9,-291.47 871.6,-307.41 902.35,-314.06 926.49,-316.77"/>
<polygon fill="#4a90d9" stroke="#4a90d9" stroke-width="2" points="926.55,-319.24 933.75,-317.5 927.03,-314.37 926.55,-319.24"/>
<text text-anchor="middle" x="826.4" y="-285.07" font-family="Times-Roman" font-size="8.00" fill="#4a90d9">about</text>
</g>
<!-- L4YAML.Proofs.ScannerPlainScalarValid.flowNesting_go_step&#45;&gt;L4YAML.Proofs.ScannerPlainScalarValid.flowNesting.go -->
<g id="edge2" class="edge">
<title>L4YAML.Proofs.ScannerPlainScalarValid.flowNesting_go_step&#45;&gt;L4YAML.Proofs.ScannerPlainScalarValid.flowNesting.go</title>
<path fill="none" stroke="#4a90d9" stroke-width="2" d="M796.06,-45.36C812.03,-51.39 826.72,-60.13 838.9,-72.47 856.3,-90.09 832.64,-164.78 848.9,-183.47 853.28,-188.51 858.41,-192.71 864.02,-196.2"/>
<polygon fill="#4a90d9" stroke="#4a90d9" stroke-width="2" points="862.98,-198.42 870.29,-199.71 865.38,-194.15 862.98,-198.42"/>
<text text-anchor="middle" x="826.4" y="-75.07" font-family="Times-Roman" font-size="8.00" fill="#4a90d9">about</text>
</g>
<!-- L4YAML.Proofs.ScannerPlainScalarValid.flowNesting.go.eq_def -->
<g id="node7" class="node">
<title>L4YAML.Proofs.ScannerPlainScalarValid.flowNesting.go.eq_def</title>
<g id="a_node7"><a xlink:href="../../../api/L4YAML/Proofs/Production/ScannerPlainScalarValid.html#L4YAML.Proofs.ScannerPlainScalarValid.flowNesting.go.eq_def" xlink:title="ScannerPlainScalarValid.flowNesting.go.eq_def\n(Production.ScannerPlainScalarValid)" target="_blank">
<ellipse fill="#d4edda" stroke="#28a745" cx="206.21" cy="-218.47" rx="158.28" ry="21.43"/>
<text text-anchor="middle" x="206.21" y="-221.47" font-family="Helvetica" font-size="10.00">ScannerPlainScalarValid.flowNesting.go.eq_def</text>
<text text-anchor="middle" x="206.21" y="-210.47" font-family="Helvetica" font-size="10.00">(Production.ScannerPlainScalarValid)</text>
</a>
</g>
</g>
<!-- L4YAML.Proofs.ScannerPlainScalarValid.flowNesting.go.eq_def&#45;&gt;L4YAML.Positioned -->
<g id="edge10" class="edge">
<title>L4YAML.Proofs.ScannerPlainScalarValid.flowNesting.go.eq_def&#45;&gt;L4YAML.Positioned</title>
<path fill="none" stroke="#6f42c1" stroke-width="2" stroke-dasharray="5,2" d="M351.06,-227.2C530.9,-238.12 827.49,-256.13 929.3,-262.31"/>
<polygon fill="#6f42c1" stroke="#6f42c1" stroke-width="2" points="929.48,-264.07 934.58,-262.63 929.69,-260.58 929.48,-264.07"/>
<text text-anchor="middle" x="614.66" y="-256.87" font-family="Times-Roman" font-size="7.00" fill="#6f42c1">about</text>
</g>
<!-- L4YAML.Proofs.ScannerPlainScalarValid.flowNesting.go.eq_def&#45;&gt;L4YAML.Proofs.ScannerPlainScalarValid.flowNesting.match_1 -->
<g id="edge14" class="edge">
<title>L4YAML.Proofs.ScannerPlainScalarValid.flowNesting.go.eq_def&#45;&gt;L4YAML.Proofs.ScannerPlainScalarValid.flowNesting.match_1</title>
<path fill="none" stroke="#6f42c1" stroke-width="2" stroke-dasharray="5,2" d="M265.81,-198.76C309.36,-184.87 370.49,-166.94 425.42,-156.47 466.09,-148.72 705.6,-126.12 851.48,-112.74"/>
<polygon fill="#6f42c1" stroke="#6f42c1" stroke-width="2" points="851.81,-114.47 856.63,-112.27 851.49,-110.98 851.81,-114.47"/>
<text text-anchor="middle" x="614.66" y="-158.87" font-family="Times-Roman" font-size="7.00" fill="#6f42c1">about</text>
</g>
<!-- L4YAML.Proofs.ScannerPlainScalarValid.flowNesting.go.eq_def&#45;&gt;L4YAML.Positioned.val -->
<g id="edge12" class="edge">
<title>L4YAML.Proofs.ScannerPlainScalarValid.flowNesting.go.eq_def&#45;&gt;L4YAML.Positioned.val</title>
<path fill="none" stroke="#6f42c1" stroke-width="2" stroke-dasharray="5,2" d="M339.03,-206.84C367.52,-204.36 397.48,-201.8 425.42,-199.47 610.36,-184.05 831.06,-166.83 922.25,-159.76"/>
<polygon fill="#6f42c1" stroke="#6f42c1" stroke-width="2" points="922.43,-161.5 927.28,-159.37 922.16,-158.01 922.43,-161.5"/>
<text text-anchor="middle" x="614.66" y="-201.87" font-family="Times-Roman" font-size="7.00" fill="#6f42c1">about</text>
</g>
<!-- L4YAML.Proofs.ScannerPlainScalarValid.flowNesting.go.eq_def&#45;&gt;L4YAML.YamlToken -->
<g id="edge13" class="edge">
<title>L4YAML.Proofs.ScannerPlainScalarValid.flowNesting.go.eq_def&#45;&gt;L4YAML.YamlToken</title>
<path fill="none" stroke="#6f42c1" stroke-width="2" stroke-dasharray="5,2" d="M343.78,-229.07C364.67,-233.56 385.53,-239.81 404.42,-248.47 415.6,-253.59 414.11,-261.66 425.42,-266.47 448.62,-276.34 811.06,-306.13 928.49,-315.57"/>
<polygon fill="#6f42c1" stroke="#6f42c1" stroke-width="2" points="928.44,-317.32 933.56,-315.97 928.72,-313.83 928.44,-317.32"/>
<text text-anchor="middle" x="614.66" y="-306.87" font-family="Times-Roman" font-size="7.00" fill="#6f42c1">about</text>
</g>
<!-- L4YAML.Proofs.ScannerPlainScalarValid.flowNesting.go.eq_def&#45;&gt;L4YAML.Proofs.ScannerPlainScalarValid.flowNesting.go -->
<g id="edge11" class="edge">
<title>L4YAML.Proofs.ScannerPlainScalarValid.flowNesting.go.eq_def&#45;&gt;L4YAML.Proofs.ScannerPlainScalarValid.flowNesting.go</title>
<path fill="none" stroke="#6f42c1" stroke-width="2" stroke-dasharray="5,2" d="M364.2,-216.81C514.7,-215.22 737.3,-212.87 865.02,-211.52"/>
<polygon fill="#6f42c1" stroke="#6f42c1" stroke-width="2" points="865.3,-213.27 870.28,-211.47 865.26,-209.77 865.3,-213.27"/>
<text text-anchor="middle" x="614.66" y="-217.87" font-family="Times-Roman" font-size="7.00" fill="#6f42c1">about</text>
</g>
<!-- L4YAML.Proofs.ScannerPlainScalarValid.flowNesting.go.eq_def&#45;&gt;L4YAML.Proofs.ScannerPlainScalarValid.flowNesting_go_step -->
<g id="edge7" class="edge">
<title>L4YAML.Proofs.ScannerPlainScalarValid.flowNesting.go.eq_def&#45;&gt;L4YAML.Proofs.ScannerPlainScalarValid.flowNesting_go_step</title>
<path fill="none" stroke="#28a745" d="M314.16,-202.91C346.97,-193.28 380.65,-177.69 404.42,-152.47 416.11,-140.07 405.54,-130.01 414.42,-115.47 417.87,-109.83 419.67,-108.72 425.42,-105.47 451.54,-90.74 481.93,-79.52 510.58,-71.14"/>
<polygon fill="#28a745" stroke="#28a745" points="511.37,-73.46 517.43,-69.18 510.02,-68.75 511.37,-73.46"/>
</g>
<!-- L4YAML.Proofs.ScannerPlainScalarValid.flowNesting_go_step._proof_1_1 -->
<g id="node8" class="node">
<title>L4YAML.Proofs.ScannerPlainScalarValid.flowNesting_go_step._proof_1_1</title>
<g id="a_node8"><a xlink:href="../../../api/L4YAML/Proofs/Production/ScannerPlainScalarValid.html#L4YAML.Proofs.ScannerPlainScalarValid.flowNesting_go_step._proof_1_1" xlink:title="ScannerPlainScalarValid.flowNesting_go_step._proof_1_1\n(Production.ScannerPlainScalarValid)" target="_blank">
<ellipse fill="#d4edda" stroke="#28a745" cx="206.21" cy="-278.47" rx="190.42" ry="21.43"/>
<text text-anchor="middle" x="206.21" y="-281.47" font-family="Helvetica" font-size="10.00">ScannerPlainScalarValid.flowNesting_go_step._proof_1_1</text>
<text text-anchor="middle" x="206.21" y="-270.47" font-family="Helvetica" font-size="10.00">(Production.ScannerPlainScalarValid)</text>
</a>
</g>
</g>
<!-- L4YAML.Proofs.ScannerPlainScalarValid.flowNesting_go_step._proof_1_1&#45;&gt;L4YAML.Positioned -->
<g id="edge15" class="edge">
<title>L4YAML.Proofs.ScannerPlainScalarValid.flowNesting_go_step._proof_1_1&#45;&gt;L4YAML.Positioned</title>
<path fill="none" stroke="#6f42c1" stroke-width="2" stroke-dasharray="5,2" d="M283.92,-297.87C398.83,-323.67 621.65,-361.03 803.9,-315.47 825.89,-309.97 827.68,-299.44 848.9,-291.47 875.17,-281.6 906.2,-274.61 929.54,-270.21"/>
<polygon fill="#6f42c1" stroke="#6f42c1" stroke-width="2" points="930.11,-271.89 934.71,-269.26 929.47,-268.45 930.11,-271.89"/>
<text text-anchor="middle" x="614.66" y="-338.87" font-family="Times-Roman" font-size="7.00" fill="#6f42c1">about</text>
</g>
<!-- L4YAML.Proofs.ScannerPlainScalarValid.flowNesting_go_step._proof_1_1&#45;&gt;L4YAML.YamlToken -->
<g id="edge16" class="edge">
<title>L4YAML.Proofs.ScannerPlainScalarValid.flowNesting_go_step._proof_1_1&#45;&gt;L4YAML.YamlToken</title>
<path fill="none" stroke="#6f42c1" stroke-width="2" stroke-dasharray="5,2" d="M256.88,-299.01C300.45,-315.91 365.96,-338.62 425.42,-348.47 606.74,-378.52 656.98,-381.63 838.9,-355.47 870,-351 904.13,-340.62 929.01,-331.99"/>
<polygon fill="#6f42c1" stroke="#6f42c1" stroke-width="2" points="929.73,-333.59 933.86,-330.29 928.57,-330.29 929.73,-333.59"/>
<text text-anchor="middle" x="614.66" y="-374.87" font-family="Times-Roman" font-size="7.00" fill="#6f42c1">about</text>
</g>
<!-- L4YAML.Proofs.ScannerPlainScalarValid.flowNesting_go_step._proof_1_1&#45;&gt;L4YAML.Proofs.ScannerPlainScalarValid.flowNesting_go_step -->
<g id="edge6" class="edge">
<title>L4YAML.Proofs.ScannerPlainScalarValid.flowNesting_go_step._proof_1_1&#45;&gt;L4YAML.Proofs.ScannerPlainScalarValid.flowNesting_go_step</title>
<path fill="none" stroke="#28a745" d="M376.18,-268.75C386.54,-263.48 396.12,-256.82 404.42,-248.47 427.08,-225.7 404.4,-129.75 425.42,-105.47 439.82,-88.84 458.92,-77.04 479.44,-68.68"/>
<polygon fill="#28a745" stroke="#28a745" points="480.5,-70.9 486.14,-66.09 478.73,-66.33 480.5,-70.9"/>
</g>
<!-- dite_congr -->
<g id="node9" class="node">
<title>dite_congr</title>
<g id="a_node9"><a xlink:href="../../../api/Init/SimpLemmas.html#dite_congr" xlink:title="dite_congr" target="_blank">
<ellipse fill="#fdebd0" stroke="#e67e22" cx="206.21" cy="-100.47" rx="36.49" ry="18"/>
<text text-anchor="middle" x="206.21" y="-97.97" font-family="Helvetica" font-size="10.00">dite_congr</text>
</a>
</g>
</g>
<!-- dite_congr&#45;&gt;L4YAML.Proofs.ScannerPlainScalarValid.flowNesting_go_step -->
<g id="edge8" class="edge">
<title>dite_congr&#45;&gt;L4YAML.Proofs.ScannerPlainScalarValid.flowNesting_go_step</title>
<path fill="none" stroke="#e67e22" stroke-width="2" d="M241.87,-96.12C293.59,-89.63 393.83,-77.05 477.2,-66.59"/>
<polygon fill="#e67e22" stroke="#e67e22" stroke-width="2" points="477.55,-69.02 484.19,-65.71 476.94,-64.16 477.55,-69.02"/>
</g>
<!-- Eq.mpr_prop -->
<g id="node10" class="node">
<title>Eq.mpr_prop</title>
<g id="a_node10"><a xlink:href="../../../api/Init/SimpLemmas.html#Eq.mpr_prop" xlink:title="Eq.mpr_prop" target="_blank">
<ellipse fill="#fdebd0" stroke="#e67e22" cx="206.21" cy="-46.47" rx="42.27" ry="18"/>
<text text-anchor="middle" x="206.21" y="-43.97" font-family="Helvetica" font-size="10.00">Eq.mpr_prop</text>
</a>
</g>
</g>
<!-- Eq.mpr_prop&#45;&gt;L4YAML.Proofs.ScannerPlainScalarValid.flowNesting_go_step -->
<g id="edge9" class="edge">
<title>Eq.mpr_prop&#45;&gt;L4YAML.Proofs.ScannerPlainScalarValid.flowNesting_go_step</title>
<path fill="none" stroke="#e67e22" stroke-width="2" d="M248.8,-46.78C291.06,-47.09 359.57,-47.59 425.88,-48.08"/>
<polygon fill="#e67e22" stroke="#e67e22" stroke-width="2" points="426.1,-50.54 433.11,-48.14 426.13,-45.64 426.1,-50.54"/>
</g>
</g>
</svg>
