<?xml version="1.0" encoding="UTF-8" standalone="no"?>
<!DOCTYPE svg PUBLIC "-//W3C//DTD SVG 1.1//EN"
 "http://www.w3.org/Graphics/SVG/1.1/DTD/svg11.dtd">
<!-- Generated by graphviz version 2.44.0 (0)
 -->
<!-- Title: chain_Schema.Proofs.isNull_empty Pages: 1 -->
<svg width="437pt" height="98pt"
 viewBox="0.00 0.00 437.00 97.92" xmlns="http://www.w3.org/2000/svg" xmlns:xlink="http://www.w3.org/1999/xlink">
<g id="graph0" class="graph" transform="scale(1 1) rotate(0) translate(4 93.92)">
<title>chain_Schema.Proofs.isNull_empty</title>
<polygon fill="white" stroke="transparent" points="-4,4 -4,-93.92 433,-93.92 433,4 -4,4"/>
<text text-anchor="middle" x="214.5" y="-75.52" font-family="Helvetica Bold" font-size="13.00">Functorial Chains: Schema.Proofs.isNull_empty</text>
<text text-anchor="middle" x="214.5" y="-61.52" font-family="Helvetica Bold" font-size="13.00">5.6 Schema resolution correctness (§10.3 bundle representative)</text>
<!-- L4YAML.Schema.Proofs.isNull_empty -->
<g id="node1" class="node">
<title>L4YAML.Schema.Proofs.isNull_empty</title>
<polygon fill="#fff3cd" stroke="black" points="324.92,-17.46 324.92,-36.46 260.24,-49.89 168.76,-49.89 104.08,-36.46 104.08,-17.46 168.76,-4.03 260.24,-4.03 324.92,-17.46"/>
<polygon fill="none" stroke="black" points="328.93,-14.22 328.93,-39.71 260.65,-53.88 168.35,-53.88 100.07,-39.71 100.07,-14.22 168.35,-0.04 260.65,-0.04 328.93,-14.22"/>
<text text-anchor="middle" x="214.5" y="-29.96" font-family="Helvetica" font-size="10.00">Schema.Proofs.isNull_empty</text>
<text text-anchor="middle" x="214.5" y="-18.96" font-family="Helvetica" font-size="10.00">(no functorial chains found)</text>
</g>
</g>
</svg>
