<?xml version="1.0" encoding="UTF-8" standalone="no"?>
<!DOCTYPE svg PUBLIC "-//W3C//DTD SVG 1.1//EN"
 "http://www.w3.org/Graphics/SVG/1.1/DTD/svg11.dtd">
<!-- Generated by graphviz version 2.44.0 (0)
 -->
<!-- Title: Schema.Proofs.resolveImplicit_complete Pages: 1 -->
<svg width="1151pt" height="508pt"
 viewBox="0.00 0.00 1151.25 508.00" xmlns="http://www.w3.org/2000/svg" xmlns:xlink="http://www.w3.org/1999/xlink">
<g id="graph0" class="graph" transform="scale(1 1) rotate(0) translate(4 504)">
<title>Schema.Proofs.resolveImplicit_complete</title>
<polygon fill="white" stroke="transparent" points="-4,4 -4,-504 1147.25,-504 1147.25,4 -4,4"/>
<text text-anchor="middle" x="571.62" y="-485.6" font-family="Helvetica Bold" font-size="13.00">Schema.Proofs.resolveImplicit_complete</text>
<text text-anchor="middle" x="571.62" y="-471.6" font-family="Helvetica Bold" font-size="13.00">5.7 Implicit&#45;tag resolution is complete for the Core Schema</text>
<text text-anchor="middle" x="571.62" y="-457.6" font-family="Helvetica Bold" font-size="13.00">(L4YAML.Proofs.Schema.SchemaResolution)</text>
<g id="clust1" class="cluster">
<title>cluster_functions</title>
<polygon fill="none" stroke="#4a90d9" stroke-dasharray="5,2" points="689,-98 689,-442 1135.25,-442 1135.25,-98 689,-98"/>
<text text-anchor="middle" x="912.12" y="-427.6" font-family="Helvetica Bold" font-size="13.00" fill="#4a90d9">Functions</text>
</g>
<g id="clust2" class="cluster">
<title>cluster_key</title>
<polygon fill="none" stroke="#d4a017" stroke-dasharray="5,2" points="608.75,-8 608.75,-90 943.25,-90 943.25,-8 608.75,-8"/>
<text text-anchor="middle" x="776" y="-75.6" font-family="Helvetica Bold" font-size="13.00" fill="#d4a017">Key Theorem</text>
</g>
<g id="clust4" class="cluster">
<title>cluster_stdlib</title>
<polygon fill="none" stroke="#e67e22" stroke-dasharray="5,2" points="8,-22 8,-258 566.75,-258 566.75,-22 8,-22"/>
<text text-anchor="middle" x="287.37" y="-243.6" font-family="Helvetica Bold" font-size="13.00" fill="#e67e22">Stdlib Lemmas</text>
</g>
<!-- L4YAML.Schema.resolveImplicit.match_1 -->
<g id="node1" class="node">
<title>L4YAML.Schema.resolveImplicit.match_1</title>
<g id="a_node1"><a xlink:href="../../../api/L4YAML/Schema/Schema.html#L4YAML.Schema.resolveImplicit.match_1" xlink:title="Schema.resolveImplicit.match_1\n(def)" target="_blank">
<polygon fill="#dce9f7" stroke="#4a90d9" points="855,-304 697,-304 697,-268 855,-268 855,-304"/>
<text text-anchor="middle" x="776" y="-289" font-family="Helvetica" font-size="10.00">Schema.resolveImplicit.match_1</text>
<text text-anchor="middle" x="776" y="-278" font-family="Helvetica" font-size="10.00">(def)</text>
</a>
</g>
</g>
<!-- L4YAML.Schema.YamlType.isInt -->
<g id="node2" class="node">
<title>L4YAML.Schema.YamlType.isInt</title>
<g id="a_node2"><a xlink:href="../../../api/L4YAML/Schema/Schema.html#L4YAML.Schema.YamlType.isInt" xlink:title="Schema.YamlType.isInt\n(def)" target="_blank">
<polygon fill="#dce9f7" stroke="#4a90d9" points="1121.75,-142 1001.75,-142 1001.75,-106 1121.75,-106 1121.75,-142"/>
<text text-anchor="middle" x="1061.75" y="-127" font-family="Helvetica" font-size="10.00">Schema.YamlType.isInt</text>
<text text-anchor="middle" x="1061.75" y="-116" font-family="Helvetica" font-size="10.00">(def)</text>
</a>
</g>
</g>
<!-- L4YAML.Schema.resolveImplicit.match_5 -->
<g id="node3" class="node">
<title>L4YAML.Schema.resolveImplicit.match_5</title>
<g id="a_node3"><a xlink:href="../../../api/L4YAML/Schema/Schema.html#L4YAML.Schema.resolveImplicit.match_5" xlink:title="Schema.resolveImplicit.match_5\n(def)" target="_blank">
<polygon fill="#dce9f7" stroke="#4a90d9" points="855,-196 697,-196 697,-160 855,-160 855,-196"/>
<text text-anchor="middle" x="776" y="-181" font-family="Helvetica" font-size="10.00">Schema.resolveImplicit.match_5</text>
<text text-anchor="middle" x="776" y="-170" font-family="Helvetica" font-size="10.00">(def)</text>
</a>
</g>
</g>
<!-- L4YAML.Schema.resolveImplicit.match_3 -->
<g id="node4" class="node">
<title>L4YAML.Schema.resolveImplicit.match_3</title>
<g id="a_node4"><a xlink:href="../../../api/L4YAML/Schema/Schema.html#L4YAML.Schema.resolveImplicit.match_3" xlink:title="Schema.resolveImplicit.match_3\n(def)" target="_blank">
<polygon fill="#dce9f7" stroke="#4a90d9" points="855,-142 697,-142 697,-106 855,-106 855,-142"/>
<text text-anchor="middle" x="776" y="-127" font-family="Helvetica" font-size="10.00">Schema.resolveImplicit.match_3</text>
<text text-anchor="middle" x="776" y="-116" font-family="Helvetica" font-size="10.00">(def)</text>
</a>
</g>
</g>
<!-- L4YAML.Schema.resolveImplicit -->
<g id="node5" class="node">
<title>L4YAML.Schema.resolveImplicit</title>
<g id="a_node5"><a xlink:href="../../../api/L4YAML/Schema/Schema.html#L4YAML.Schema.resolveImplicit" xlink:title="Schema.resolveImplicit\n(def)" target="_blank">
<polygon fill="#dce9f7" stroke="#4a90d9" points="1120.75,-412 1002.75,-412 1002.75,-376 1120.75,-376 1120.75,-412"/>
<text text-anchor="middle" x="1061.75" y="-397" font-family="Helvetica" font-size="10.00">Schema.resolveImplicit</text>
<text text-anchor="middle" x="1061.75" y="-386" font-family="Helvetica" font-size="10.00">(def)</text>
</a>
</g>
</g>
<!-- L4YAML.Schema.YamlType.isStr -->
<g id="node6" class="node">
<title>L4YAML.Schema.YamlType.isStr</title>
<g id="a_node6"><a xlink:href="../../../api/L4YAML/Schema/Schema.html#L4YAML.Schema.YamlType.isStr" xlink:title="Schema.YamlType.isStr\n(def)" target="_blank">
<polygon fill="#dce9f7" stroke="#4a90d9" points="1122.75,-358 1000.75,-358 1000.75,-322 1122.75,-322 1122.75,-358"/>
<text text-anchor="middle" x="1061.75" y="-343" font-family="Helvetica" font-size="10.00">Schema.YamlType.isStr</text>
<text text-anchor="middle" x="1061.75" y="-332" font-family="Helvetica" font-size="10.00">(def)</text>
</a>
</g>
</g>
<!-- L4YAML.Schema.FloatValue -->
<g id="node7" class="node">
<title>L4YAML.Schema.FloatValue</title>
<g id="a_node7"><a xlink:href="../../../api/L4YAML/Schema/Schema.html#L4YAML.Schema.FloatValue" xlink:title="Schema.FloatValue\n(inductive)" target="_blank">
<polygon fill="#dce9f7" stroke="#4a90d9" points="826.5,-250 725.5,-250 725.5,-214 826.5,-214 826.5,-250"/>
<text text-anchor="middle" x="776" y="-235" font-family="Helvetica" font-size="10.00">Schema.FloatValue</text>
<text text-anchor="middle" x="776" y="-224" font-family="Helvetica" font-size="10.00">(inductive)</text>
</a>
</g>
</g>
<!-- L4YAML.Schema.YamlType.isNull -->
<g id="node8" class="node">
<title>L4YAML.Schema.YamlType.isNull</title>
<g id="a_node8"><a xlink:href="../../../api/L4YAML/Schema/Schema.html#L4YAML.Schema.YamlType.isNull" xlink:title="Schema.YamlType.isNull\n(def)" target="_blank">
<polygon fill="#dce9f7" stroke="#4a90d9" points="1124.75,-304 998.75,-304 998.75,-268 1124.75,-268 1124.75,-304"/>
<text text-anchor="middle" x="1061.75" y="-289" font-family="Helvetica" font-size="10.00">Schema.YamlType.isNull</text>
<text text-anchor="middle" x="1061.75" y="-278" font-family="Helvetica" font-size="10.00">(def)</text>
</a>
</g>
</g>
<!-- L4YAML.Schema.YamlType.isBool -->
<g id="node9" class="node">
<title>L4YAML.Schema.YamlType.isBool</title>
<g id="a_node9"><a xlink:href="../../../api/L4YAML/Schema/Schema.html#L4YAML.Schema.YamlType.isBool" xlink:title="Schema.YamlType.isBool\n(def)" target="_blank">
<polygon fill="#dce9f7" stroke="#4a90d9" points="1125.75,-250 997.75,-250 997.75,-214 1125.75,-214 1125.75,-250"/>
<text text-anchor="middle" x="1061.75" y="-235" font-family="Helvetica" font-size="10.00">Schema.YamlType.isBool</text>
<text text-anchor="middle" x="1061.75" y="-224" font-family="Helvetica" font-size="10.00">(def)</text>
</a>
</g>
</g>
<!-- L4YAML.Schema.YamlType.isFloat -->
<g id="node10" class="node">
<title>L4YAML.Schema.YamlType.isFloat</title>
<g id="a_node10"><a xlink:href="../../../api/L4YAML/Schema/Schema.html#L4YAML.Schema.YamlType.isFloat" xlink:title="Schema.YamlType.isFloat\n(def)" target="_blank">
<polygon fill="#dce9f7" stroke="#4a90d9" points="1127.25,-196 996.25,-196 996.25,-160 1127.25,-160 1127.25,-196"/>
<text text-anchor="middle" x="1061.75" y="-181" font-family="Helvetica" font-size="10.00">Schema.YamlType.isFloat</text>
<text text-anchor="middle" x="1061.75" y="-170" font-family="Helvetica" font-size="10.00">(def)</text>
</a>
</g>
</g>
<!-- L4YAML.Schema.Proofs.resolveImplicit_complete -->
<g id="node11" class="node">
<title>L4YAML.Schema.Proofs.resolveImplicit_complete</title>
<g id="a_node11"><a xlink:href="../../../api/L4YAML/Proofs/Schema/SchemaResolution.html#L4YAML.Schema.Proofs.resolveImplicit_complete" xlink:title="Schema.Proofs.resolveImplicit_complete" target="_blank">
<polygon fill="#fff3cd" stroke="#d4a017" points="931.49,-30.54 931.49,-45.46 840.4,-56 711.59,-56 620.5,-45.46 620.5,-30.54 711.59,-20 840.4,-20 931.49,-30.54"/>
<polygon fill="none" stroke="#d4a017" points="935.5,-26.98 935.5,-49.02 840.64,-60 711.36,-60 616.5,-49.02 616.5,-26.98 711.36,-16 840.64,-16 935.5,-26.98"/>
<text text-anchor="middle" x="776" y="-34.9" font-family="Helvetica" font-size="12.00">Schema.Proofs.resolveImplicit_complete</text>
</a>
</g>
</g>
<!-- L4YAML.Schema.Proofs.resolveImplicit_complete&#45;&gt;L4YAML.Schema.YamlType.isInt -->
<g id="edge4" class="edge">
<title>L4YAML.Schema.Proofs.resolveImplicit_complete&#45;&gt;L4YAML.Schema.YamlType.isInt</title>
<path fill="none" stroke="#4a90d9" stroke-width="2" d="M847.14,-59.26C892.25,-72.93 950.49,-90.58 994.77,-104"/>
<polygon fill="#4a90d9" stroke="#4a90d9" stroke-width="2" points="994.06,-106.35 1001.47,-106.03 995.48,-101.66 994.06,-106.35"/>
<text text-anchor="middle" x="965.75" y="-100.6" font-family="Times-Roman" font-size="8.00" fill="#4a90d9">about</text>
</g>
<!-- L4YAML.Schema.Proofs.resolveImplicit_complete&#45;&gt;L4YAML.Schema.resolveImplicit -->
<g id="edge1" class="edge">
<title>L4YAML.Schema.Proofs.resolveImplicit_complete&#45;&gt;L4YAML.Schema.resolveImplicit</title>
<path fill="none" stroke="#4a90d9" stroke-width="2" d="M887.32,-54.71C909,-63.07 929.31,-75.52 943.25,-94 957.71,-113.18 945.09,-287.4 953.25,-310 964.02,-339.85 971.19,-347.53 996.25,-367 998.62,-368.84 1001.14,-370.58 1003.75,-372.22"/>
<polygon fill="#4a90d9" stroke="#4a90d9" stroke-width="2" points="1002.7,-374.45 1009.99,-375.86 1005.17,-370.22 1002.7,-374.45"/>
<text text-anchor="middle" x="965.75" y="-353.6" font-family="Times-Roman" font-size="8.00" fill="#4a90d9">about</text>
</g>
<!-- L4YAML.Schema.Proofs.resolveImplicit_complete&#45;&gt;L4YAML.Schema.YamlType.isStr -->
<g id="edge2" class="edge">
<title>L4YAML.Schema.Proofs.resolveImplicit_complete&#45;&gt;L4YAML.Schema.YamlType.isStr</title>
<path fill="none" stroke="#4a90d9" stroke-width="2" d="M886.68,-54.71C908.53,-63.06 929.08,-75.51 943.25,-94 965.18,-122.63 940.74,-222.17 953.25,-256 964.25,-285.77 971.19,-293.53 996.25,-313 998.62,-314.84 1001.14,-316.58 1003.75,-318.22"/>
<polygon fill="#4a90d9" stroke="#4a90d9" stroke-width="2" points="1002.7,-320.45 1009.99,-321.86 1005.17,-316.22 1002.7,-320.45"/>
<text text-anchor="middle" x="965.75" y="-299.6" font-family="Times-Roman" font-size="8.00" fill="#4a90d9">about</text>
</g>
<!-- L4YAML.Schema.Proofs.resolveImplicit_complete&#45;&gt;L4YAML.Schema.YamlType.isNull -->
<g id="edge5" class="edge">
<title>L4YAML.Schema.Proofs.resolveImplicit_complete&#45;&gt;L4YAML.Schema.YamlType.isNull</title>
<path fill="none" stroke="#4a90d9" stroke-width="2" d="M885.84,-54.87C907.86,-63.21 928.7,-75.61 943.25,-94 958.2,-112.91 944.55,-179.52 953.25,-202 964.7,-231.59 971.19,-239.53 996.25,-259 998.62,-260.84 1001.14,-262.58 1003.75,-264.22"/>
<polygon fill="#4a90d9" stroke="#4a90d9" stroke-width="2" points="1002.7,-266.45 1009.99,-267.86 1005.17,-262.22 1002.7,-266.45"/>
<text text-anchor="middle" x="965.75" y="-245.6" font-family="Times-Roman" font-size="8.00" fill="#4a90d9">about</text>
</g>
<!-- L4YAML.Schema.Proofs.resolveImplicit_complete&#45;&gt;L4YAML.Schema.YamlType.isBool -->
<g id="edge3" class="edge">
<title>L4YAML.Schema.Proofs.resolveImplicit_complete&#45;&gt;L4YAML.Schema.YamlType.isBool</title>
<path fill="none" stroke="#4a90d9" stroke-width="2" d="M883,-55.15C905.69,-63.46 927.54,-75.77 943.25,-94 959.75,-113.15 942.93,-126.92 953.25,-150 965.9,-178.33 971.58,-186.18 996.25,-205 998.69,-206.86 1001.28,-208.62 1003.96,-210.28"/>
<polygon fill="#4a90d9" stroke="#4a90d9" stroke-width="2" points="1003.08,-212.6 1010.37,-213.96 1005.53,-208.35 1003.08,-212.6"/>
<text text-anchor="middle" x="965.75" y="-191.6" font-family="Times-Roman" font-size="8.00" fill="#4a90d9">about</text>
</g>
<!-- L4YAML.Schema.Proofs.resolveImplicit_complete&#45;&gt;L4YAML.Schema.YamlType.isFloat -->
<g id="edge6" class="edge">
<title>L4YAML.Schema.Proofs.resolveImplicit_complete&#45;&gt;L4YAML.Schema.YamlType.isFloat</title>
<path fill="none" stroke="#4a90d9" stroke-width="2" d="M870.5,-56.73C896,-65.07 922.32,-77.01 943.25,-94 950.05,-99.53 947.76,-104.17 953.25,-111 969.59,-131.35 974.31,-136.85 996.25,-151 999.29,-152.96 1002.51,-154.84 1005.8,-156.62"/>
<polygon fill="#4a90d9" stroke="#4a90d9" stroke-width="2" points="1004.89,-158.9 1012.24,-159.91 1007.12,-154.54 1004.89,-158.9"/>
<text text-anchor="middle" x="965.75" y="-139.6" font-family="Times-Roman" font-size="8.00" fill="#4a90d9">about</text>
</g>
<!-- Decidable.decide.congr_simp -->
<g id="node12" class="node">
<title>Decidable.decide.congr_simp</title>
<g id="a_node12"><a xlink:href="../../../api/Init/SimpLemmas.html#Decidable.decide.congr_simp" xlink:title="Decidable.decide.congr_simp" target="_blank">
<ellipse fill="#fdebd0" stroke="#e67e22" cx="287.37" cy="-48" rx="85.21" ry="18"/>
<text text-anchor="middle" x="287.37" y="-45.5" font-family="Helvetica" font-size="10.00">Decidable.decide.congr_simp</text>
</a>
</g>
</g>
<!-- Decidable.decide.congr_simp&#45;&gt;L4YAML.Schema.Proofs.resolveImplicit_complete -->
<g id="edge7" class="edge">
<title>Decidable.decide.congr_simp&#45;&gt;L4YAML.Schema.Proofs.resolveImplicit_complete</title>
<path fill="none" stroke="#e67e22" stroke-width="2" d="M372.58,-46.27C437.67,-44.93 529.81,-43.04 609.51,-41.4"/>
<polygon fill="#e67e22" stroke="#e67e22" stroke-width="2" points="609.74,-43.85 616.69,-41.25 609.64,-38.95 609.74,-43.85"/>
</g>
<!-- _private.L4YAML.Proofs.Schema.SchemaResolution.0.L4YAML.Schema.resolveImplicit.match_5.eq_2 -->
<g id="node13" class="node">
<title>_private.L4YAML.Proofs.Schema.SchemaResolution.0.L4YAML.Schema.resolveImplicit.match_5.eq_2</title>
<g id="a_node13"><a xlink:href="../../../api/L4YAML/Proofs/Schema/SchemaResolution.html#_private.L4YAML.Proofs.Schema.SchemaResolution.0.L4YAML.Schema.resolveImplicit.match_5.eq_2" xlink:title="_private.L4YAML.Proofs.Schema.SchemaResolution.0.L4YAML.Schema.resolveImplicit.match_5.eq_2" target="_blank">
<ellipse fill="#fdebd0" stroke="#e67e22" cx="287.37" cy="-156" rx="271.25" ry="18"/>
<text text-anchor="middle" x="287.37" y="-153.5" font-family="Helvetica" font-size="10.00">_private.L4YAML.Proofs.Schema.SchemaResolution.0.L4YAML.Schema.resolveImplicit.match_5.eq_2</text>
</a>
</g>
</g>
<!-- _private.L4YAML.Proofs.Schema.SchemaResolution.0.L4YAML.Schema.resolveImplicit.match_5.eq_2&#45;&gt;L4YAML.Schema.resolveImplicit.match_5 -->
<g id="edge14" class="edge">
<title>_private.L4YAML.Proofs.Schema.SchemaResolution.0.L4YAML.Schema.resolveImplicit.match_5.eq_2&#45;&gt;L4YAML.Schema.resolveImplicit.match_5</title>
<path fill="none" stroke="#6f42c1" stroke-width="2" stroke-dasharray="5,2" d="M512.1,-166.11C576.18,-169.01 642.09,-171.99 691.88,-174.24"/>
<polygon fill="#6f42c1" stroke="#6f42c1" stroke-width="2" points="691.88,-175.99 696.95,-174.47 692.04,-172.5 691.88,-175.99"/>
<text text-anchor="middle" x="587.75" y="-171.4" font-family="Times-Roman" font-size="7.00" fill="#6f42c1">about</text>
</g>
<!-- _private.L4YAML.Proofs.Schema.SchemaResolution.0.L4YAML.Schema.resolveImplicit.match_5.eq_2&#45;&gt;L4YAML.Schema.Proofs.resolveImplicit_complete -->
<g id="edge8" class="edge">
<title>_private.L4YAML.Proofs.Schema.SchemaResolution.0.L4YAML.Schema.resolveImplicit.match_5.eq_2&#45;&gt;L4YAML.Schema.Proofs.resolveImplicit_complete</title>
<path fill="none" stroke="#e67e22" stroke-width="2" d="M529.74,-147.9C542.73,-142.82 555.17,-136.59 566.75,-129 574.4,-123.98 570.22,-117.41 576.75,-111 588.24,-99.72 593.96,-100.37 608.75,-94 636.97,-81.84 668.78,-70.57 696.96,-61.37"/>
<polygon fill="#e67e22" stroke="#e67e22" stroke-width="2" points="697.76,-63.69 703.66,-59.2 696.25,-59.03 697.76,-63.69"/>
</g>
<!-- _private.L4YAML.Proofs.Schema.SchemaResolution.0.L4YAML.Schema.resolveImplicit.match_3.eq_2 -->
<g id="node14" class="node">
<title>_private.L4YAML.Proofs.Schema.SchemaResolution.0.L4YAML.Schema.resolveImplicit.match_3.eq_2</title>
<g id="a_node14"><a xlink:href="../../../api/L4YAML/Proofs/Schema/SchemaResolution.html#_private.L4YAML.Proofs.Schema.SchemaResolution.0.L4YAML.Schema.resolveImplicit.match_3.eq_2" xlink:title="_private.L4YAML.Proofs.Schema.SchemaResolution.0.L4YAML.Schema.resolveImplicit.match_3.eq_2" target="_blank">
<ellipse fill="#fdebd0" stroke="#e67e22" cx="287.37" cy="-102" rx="271.25" ry="18"/>
<text text-anchor="middle" x="287.37" y="-99.5" font-family="Helvetica" font-size="10.00">_private.L4YAML.Proofs.Schema.SchemaResolution.0.L4YAML.Schema.resolveImplicit.match_3.eq_2</text>
</a>
</g>
</g>
<!-- _private.L4YAML.Proofs.Schema.SchemaResolution.0.L4YAML.Schema.resolveImplicit.match_3.eq_2&#45;&gt;L4YAML.Schema.resolveImplicit.match_3 -->
<g id="edge13" class="edge">
<title>_private.L4YAML.Proofs.Schema.SchemaResolution.0.L4YAML.Schema.resolveImplicit.match_3.eq_2&#45;&gt;L4YAML.Schema.resolveImplicit.match_3</title>
<path fill="none" stroke="#6f42c1" stroke-width="2" stroke-dasharray="5,2" d="M512.1,-112.11C576.18,-115.01 642.09,-117.99 691.88,-120.24"/>
<polygon fill="#6f42c1" stroke="#6f42c1" stroke-width="2" points="691.88,-121.99 696.95,-120.47 692.04,-118.5 691.88,-121.99"/>
<text text-anchor="middle" x="587.75" y="-117.4" font-family="Times-Roman" font-size="7.00" fill="#6f42c1">about</text>
</g>
<!-- _private.L4YAML.Proofs.Schema.SchemaResolution.0.L4YAML.Schema.resolveImplicit.match_3.eq_2&#45;&gt;L4YAML.Schema.Proofs.resolveImplicit_complete -->
<g id="edge9" class="edge">
<title>_private.L4YAML.Proofs.Schema.SchemaResolution.0.L4YAML.Schema.resolveImplicit.match_3.eq_2&#45;&gt;L4YAML.Schema.Proofs.resolveImplicit_complete</title>
<path fill="none" stroke="#e67e22" stroke-width="2" d="M456.44,-87.86C492.87,-84.2 531.15,-79.88 566.75,-75 601.56,-70.23 639.45,-63.85 673.24,-57.74"/>
<polygon fill="#e67e22" stroke="#e67e22" stroke-width="2" points="673.94,-60.1 680.39,-56.44 673.06,-55.28 673.94,-60.1"/>
</g>
<!-- _private.L4YAML.Proofs.Schema.SchemaResolution.0.L4YAML.Schema.resolveImplicit.match_1.eq_2 -->
<g id="node15" class="node">
<title>_private.L4YAML.Proofs.Schema.SchemaResolution.0.L4YAML.Schema.resolveImplicit.match_1.eq_2</title>
<g id="a_node15"><a xlink:href="../../../api/L4YAML/Proofs/Schema/SchemaResolution.html#_private.L4YAML.Proofs.Schema.SchemaResolution.0.L4YAML.Schema.resolveImplicit.match_1.eq_2" xlink:title="_private.L4YAML.Proofs.Schema.SchemaResolution.0.L4YAML.Schema.resolveImplicit.match_1.eq_2" target="_blank">
<ellipse fill="#fdebd0" stroke="#e67e22" cx="287.37" cy="-210" rx="271.25" ry="18"/>
<text text-anchor="middle" x="287.37" y="-207.5" font-family="Helvetica" font-size="10.00">_private.L4YAML.Proofs.Schema.SchemaResolution.0.L4YAML.Schema.resolveImplicit.match_1.eq_2</text>
</a>
</g>
</g>
<!-- _private.L4YAML.Proofs.Schema.SchemaResolution.0.L4YAML.Schema.resolveImplicit.match_1.eq_2&#45;&gt;L4YAML.Schema.resolveImplicit.match_1 -->
<g id="edge12" class="edge">
<title>_private.L4YAML.Proofs.Schema.SchemaResolution.0.L4YAML.Schema.resolveImplicit.match_1.eq_2&#45;&gt;L4YAML.Schema.resolveImplicit.match_1</title>
<path fill="none" stroke="#6f42c1" stroke-width="2" stroke-dasharray="5,2" d="M394.56,-226.58C483.77,-240.52 609.5,-260.15 691.6,-272.98"/>
<polygon fill="#6f42c1" stroke="#6f42c1" stroke-width="2" points="691.74,-274.77 696.95,-273.81 692.28,-271.31 691.74,-274.77"/>
<text text-anchor="middle" x="587.75" y="-259.4" font-family="Times-Roman" font-size="7.00" fill="#6f42c1">about</text>
</g>
<!-- _private.L4YAML.Proofs.Schema.SchemaResolution.0.L4YAML.Schema.resolveImplicit.match_1.eq_2&#45;&gt;L4YAML.Schema.FloatValue -->
<g id="edge11" class="edge">
<title>_private.L4YAML.Proofs.Schema.SchemaResolution.0.L4YAML.Schema.resolveImplicit.match_1.eq_2&#45;&gt;L4YAML.Schema.FloatValue</title>
<path fill="none" stroke="#6f42c1" stroke-width="2" stroke-dasharray="5,2" d="M512.1,-220.11C589.1,-223.6 668.72,-227.2 719.87,-229.51"/>
<polygon fill="#6f42c1" stroke="#6f42c1" stroke-width="2" points="719.97,-231.26 725.04,-229.74 720.12,-227.77 719.97,-231.26"/>
<text text-anchor="middle" x="587.75" y="-225.4" font-family="Times-Roman" font-size="7.00" fill="#6f42c1">about</text>
</g>
<!-- _private.L4YAML.Proofs.Schema.SchemaResolution.0.L4YAML.Schema.resolveImplicit.match_1.eq_2&#45;&gt;L4YAML.Schema.Proofs.resolveImplicit_complete -->
<g id="edge10" class="edge">
<title>_private.L4YAML.Proofs.Schema.SchemaResolution.0.L4YAML.Schema.resolveImplicit.match_1.eq_2&#45;&gt;L4YAML.Schema.Proofs.resolveImplicit_complete</title>
<path fill="none" stroke="#e67e22" stroke-width="2" d="M529.74,-201.9C542.73,-196.82 555.17,-190.59 566.75,-183 574.4,-177.98 572.23,-172.96 576.75,-165 586.38,-148.03 590.98,-144.9 598.75,-127 604.85,-112.94 598.08,-105 608.75,-94 624.5,-77.75 645.12,-66.22 666.45,-58.03"/>
<polygon fill="#e67e22" stroke="#e67e22" stroke-width="2" points="667.36,-60.31 673.09,-55.6 665.67,-55.71 667.36,-60.31"/>
</g>
</g>
</svg>
