<?xml version="1.0" encoding="UTF-8" standalone="no"?>
<!DOCTYPE svg PUBLIC "-//W3C//DTD SVG 1.1//EN"
 "http://www.w3.org/Graphics/SVG/1.1/DTD/svg11.dtd">
<!-- Generated by graphviz version 2.44.0 (0)
 -->
<!-- Title: chain_CouplingBridge.ScannerSurfCorr.chars_from Pages: 1 -->
<svg width="436pt" height="98pt"
 viewBox="0.00 0.00 436.00 97.92" xmlns="http://www.w3.org/2000/svg" xmlns:xlink="http://www.w3.org/1999/xlink">
<g id="graph0" class="graph" transform="scale(1 1) rotate(0) translate(4 93.92)">
<title>chain_CouplingBridge.ScannerSurfCorr.chars_from</title>
<polygon fill="white" stroke="transparent" points="-4,4 -4,-93.92 432,-93.92 432,4 -4,4"/>
<text text-anchor="middle" x="214" y="-75.52" font-family="Helvetica Bold" font-size="13.00">Functorial Chains: CouplingBridge.ScannerSurfCorr.chars_from</text>
<text text-anchor="middle" x="214" y="-61.52" font-family="Helvetica Bold" font-size="13.00">(heuristic: used by 102 proofs)</text>
<!-- L4YAML.Proofs.CouplingBridge.ScannerSurfCorr.chars_from -->
<g id="node1" class="node">
<title>L4YAML.Proofs.CouplingBridge.ScannerSurfCorr.chars_from</title>
<polygon fill="#fff3cd" stroke="black" points="376.02,-17.46 376.02,-36.46 281.11,-49.89 146.89,-49.89 51.98,-36.46 51.98,-17.46 146.89,-4.03 281.11,-4.03 376.02,-17.46"/>
<polygon fill="none" stroke="black" points="380.02,-14 380.02,-39.93 281.39,-53.88 146.61,-53.88 47.98,-39.93 47.98,-14 146.61,-0.04 281.39,-0.04 380.02,-14"/>
<text text-anchor="middle" x="214" y="-29.96" font-family="Helvetica" font-size="10.00">CouplingBridge.ScannerSurfCorr.chars_from</text>
<text text-anchor="middle" x="214" y="-18.96" font-family="Helvetica" font-size="10.00">(no functorial chains found)</text>
</g>
</g>
</svg>
