<?xml version="1.0" encoding="UTF-8" standalone="no"?>
<!DOCTYPE svg PUBLIC "-//W3C//DTD SVG 1.1//EN"
 "http://www.w3.org/Graphics/SVG/1.1/DTD/svg11.dtd">
<!-- Generated by graphviz version 2.44.0 (0)
 -->
<!-- Title: chain_Composition.parseYamlRaw_ok_decompose Pages: 1 -->
<svg width="438pt" height="98pt"
 viewBox="0.00 0.00 438.00 97.92" xmlns="http://www.w3.org/2000/svg" xmlns:xlink="http://www.w3.org/1999/xlink">
<g id="graph0" class="graph" transform="scale(1 1) rotate(0) translate(4 93.92)">
<title>chain_Composition.parseYamlRaw_ok_decompose</title>
<polygon fill="white" stroke="transparent" points="-4,4 -4,-93.92 434,-93.92 434,4 -4,4"/>
<text text-anchor="middle" x="215" y="-75.52" font-family="Helvetica Bold" font-size="13.00">Functorial Chains: Composition.parseYamlRaw_ok_decompose</text>
<text text-anchor="middle" x="215" y="-61.52" font-family="Helvetica Bold" font-size="13.00">1.3 parseYamlRaw success implies scan and parse both succeed</text>
<!-- L4YAML.Proofs.Composition.parseYamlRaw_ok_decompose -->
<g id="node1" class="node">
<title>L4YAML.Proofs.Composition.parseYamlRaw_ok_decompose</title>
<polygon fill="#fff3cd" stroke="black" points="377.02,-17.46 377.02,-36.46 282.11,-49.89 147.89,-49.89 52.98,-36.46 52.98,-17.46 147.89,-4.03 282.11,-4.03 377.02,-17.46"/>
<polygon fill="none" stroke="black" points="381.02,-14 381.02,-39.93 282.39,-53.88 147.61,-53.88 48.98,-39.93 48.98,-14 147.61,-0.04 282.39,-0.04 381.02,-14"/>
<text text-anchor="middle" x="215" y="-29.96" font-family="Helvetica" font-size="10.00">Composition.parseYamlRaw_ok_decompose</text>
<text text-anchor="middle" x="215" y="-18.96" font-family="Helvetica" font-size="10.00">(no functorial chains found)</text>
</g>
</g>
</svg>
