<?xml version="1.0" encoding="UTF-8" standalone="no"?>
<!DOCTYPE svg PUBLIC "-//W3C//DTD SVG 1.1//EN"
 "http://www.w3.org/Graphics/SVG/1.1/DTD/svg11.dtd">
<!-- Generated by graphviz version 2.44.0 (0)
 -->
<!-- Title: chain_Composition.parseYaml_pipeline Pages: 1 -->
<svg width="969pt" height="405pt"
 viewBox="0.00 0.00 969.00 405.00" xmlns="http://www.w3.org/2000/svg" xmlns:xlink="http://www.w3.org/1999/xlink">
<g id="graph0" class="graph" transform="scale(1 1) rotate(0) translate(4 401)">
<title>chain_Composition.parseYaml_pipeline</title>
<polygon fill="white" stroke="transparent" points="-4,4 -4,-401 965,-401 965,4 -4,4"/>
<text text-anchor="middle" x="480.5" y="-382.6" font-family="Helvetica Bold" font-size="13.00">Functorial Chains: Composition.parseYaml_pipeline</text>
<text text-anchor="middle" x="480.5" y="-368.6" font-family="Helvetica Bold" font-size="13.00">1.1 parseYaml decomposes as parseStream ∘ scanFiltered</text>
<g id="clust1" class="cluster">
<title>cluster_fns</title>
<polygon fill="none" stroke="#4a90d9" stroke-dasharray="5,2" points="520,-8 520,-244 953,-244 953,-8 520,-8"/>
<text text-anchor="middle" x="736.5" y="-229.6" font-family="Helvetica Bold" font-size="13.00" fill="#4a90d9">Functions (Call Chain)</text>
</g>
<g id="clust2" class="cluster">
<title>cluster_thms</title>
<polygon fill="none" stroke="#28a745" stroke-dasharray="5,2" points="8,-170 8,-353 512,-353 512,-170 8,-170"/>
<text text-anchor="middle" x="260" y="-338.6" font-family="Helvetica Bold" font-size="13.00" fill="#28a745">Theorems (Proof Chain)</text>
</g>
<!-- L4YAML.TokenParser.parseYaml -->
<g id="node1" class="node">
<title>L4YAML.TokenParser.parseYaml</title>
<g id="a_node1"><a xlink:href="../../../api/L4YAML/Parser/Composition.html#L4YAML.TokenParser.parseYaml" xlink:title="TokenParser.parseYaml" target="_blank">
<polygon fill="#dce9f7" stroke="#4a90d9" points="776.5,-214 655.5,-214 655.5,-178 776.5,-178 776.5,-214"/>
<text text-anchor="middle" x="716" y="-193.5" font-family="Helvetica" font-size="10.00">TokenParser.parseYaml</text>
</a>
</g>
</g>
<!-- L4YAML.TokenParser.parseYamlRaw -->
<g id="node2" class="node">
<title>L4YAML.TokenParser.parseYamlRaw</title>
<g id="a_node2"><a xlink:href="../../../api/L4YAML/Parser/Composition.html#L4YAML.TokenParser.parseYamlRaw" xlink:title="TokenParser.parseYamlRaw" target="_blank">
<polygon fill="#dce9f7" stroke="#4a90d9" points="668,-133 528,-133 528,-97 668,-97 668,-133"/>
<text text-anchor="middle" x="598" y="-112.5" font-family="Helvetica" font-size="10.00">TokenParser.parseYamlRaw</text>
</a>
</g>
</g>
<!-- L4YAML.TokenParser.parseYaml&#45;&gt;L4YAML.TokenParser.parseYamlRaw -->
<g id="edge6" class="edge">
<title>L4YAML.TokenParser.parseYaml&#45;&gt;L4YAML.TokenParser.parseYamlRaw</title>
<path fill="none" stroke="#4a90d9" stroke-width="2" d="M655.33,-182.33C641.49,-177.2 627.72,-170.02 617,-160 611.35,-154.72 607.29,-147.47 604.42,-140.37"/>
<polygon fill="#4a90d9" stroke="#4a90d9" stroke-width="2" points="606.6,-139.18 601.93,-133.41 601.98,-140.83 606.6,-139.18"/>
<text text-anchor="middle" x="626.5" y="-153.6" font-family="Times-Roman" font-size="8.00">calls</text>
</g>
<!-- L4YAML.YamlDocument.compose -->
<g id="node3" class="node">
<title>L4YAML.YamlDocument.compose</title>
<g id="a_node3"><a xlink:href="../../../api/L4YAML/Spec/Types.html#L4YAML.YamlDocument.compose" xlink:title="YamlDocument.compose" target="_blank">
<polygon fill="#dce9f7" stroke="#4a90d9" points="889.5,-133 764.5,-133 764.5,-97 889.5,-97 889.5,-133"/>
<text text-anchor="middle" x="827" y="-112.5" font-family="Helvetica" font-size="10.00">YamlDocument.compose</text>
</a>
</g>
</g>
<!-- L4YAML.TokenParser.parseYaml&#45;&gt;L4YAML.YamlDocument.compose -->
<g id="edge11" class="edge">
<title>L4YAML.TokenParser.parseYaml&#45;&gt;L4YAML.YamlDocument.compose</title>
<path fill="none" stroke="#4a90d9" stroke-width="2" d="M740.09,-177.86C756.81,-165.95 779.22,-150.01 797.09,-137.29"/>
<polygon fill="#4a90d9" stroke="#4a90d9" stroke-width="2" points="798.68,-139.16 802.96,-133.11 795.84,-135.17 798.68,-139.16"/>
<text text-anchor="middle" x="783.5" y="-153.6" font-family="Times-Roman" font-size="8.00">calls</text>
</g>
<!-- L4YAML.ScanError -->
<g id="node5" class="node">
<title>L4YAML.ScanError</title>
<g id="a_node5"><a xlink:href="../../../api/L4YAML/Token/Token.html#L4YAML.ScanError" xlink:title="ScanError" target="_blank">
<polygon fill="#dce9f7" stroke="#4a90d9" points="746,-133 686,-133 686,-97 746,-97 746,-133"/>
<text text-anchor="middle" x="716" y="-112.5" font-family="Helvetica" font-size="10.00">ScanError</text>
</a>
</g>
</g>
<!-- L4YAML.TokenParser.parseYaml&#45;&gt;L4YAML.ScanError -->
<g id="edge9" class="edge">
<title>L4YAML.TokenParser.parseYaml&#45;&gt;L4YAML.ScanError</title>
<path fill="none" stroke="#4a90d9" stroke-width="2" d="M716,-177.86C716,-166.88 716,-152.48 716,-140.33"/>
<polygon fill="#4a90d9" stroke="#4a90d9" stroke-width="2" points="718.45,-140.11 716,-133.11 713.55,-140.11 718.45,-140.11"/>
<text text-anchor="middle" x="725.5" y="-153.6" font-family="Times-Roman" font-size="8.00">calls</text>
</g>
<!-- L4YAML.YamlDocument -->
<g id="node6" class="node">
<title>L4YAML.YamlDocument</title>
<g id="a_node6"><a xlink:href="../../../api/L4YAML/Spec/Types.html#L4YAML.YamlDocument" xlink:title="YamlDocument" target="_blank">
<polygon fill="#dce9f7" stroke="#4a90d9" points="739.5,-52 656.5,-52 656.5,-16 739.5,-16 739.5,-52"/>
<text text-anchor="middle" x="698" y="-31.5" font-family="Helvetica" font-size="10.00">YamlDocument</text>
</a>
</g>
</g>
<!-- L4YAML.TokenParser.parseYaml&#45;&gt;L4YAML.YamlDocument -->
<g id="edge13" class="edge">
<title>L4YAML.TokenParser.parseYaml&#45;&gt;L4YAML.YamlDocument</title>
<path fill="none" stroke="#4a90d9" stroke-width="2" d="M776.69,-185.89C843.02,-173.26 935.33,-146.22 899,-97 864.24,-49.91 794.22,-37.48 746.72,-34.77"/>
<polygon fill="#4a90d9" stroke="#4a90d9" stroke-width="2" points="746.7,-32.32 739.59,-34.43 746.46,-37.21 746.7,-32.32"/>
<text text-anchor="middle" x="916.5" y="-113.1" font-family="Times-Roman" font-size="8.00">calls</text>
</g>
<!-- L4YAML.YamlDocument.compose&#45;&gt;L4YAML.YamlDocument -->
<g id="edge2" class="edge">
<title>L4YAML.YamlDocument.compose&#45;&gt;L4YAML.YamlDocument</title>
<path fill="none" stroke="#4a90d9" stroke-width="2" d="M799.01,-96.86C779.32,-84.8 752.85,-68.59 731.95,-55.79"/>
<polygon fill="#4a90d9" stroke="#4a90d9" stroke-width="2" points="733.19,-53.67 725.94,-52.11 730.63,-57.85 733.19,-53.67"/>
<text text-anchor="middle" x="775.5" y="-72.6" font-family="Times-Roman" font-size="8.00">calls</text>
</g>
<!-- L4YAML.Scanner.scanFiltered -->
<g id="node4" class="node">
<title>L4YAML.Scanner.scanFiltered</title>
<g id="a_node4"><a xlink:href="../../../api/L4YAML/Scanner/Scanner.html#L4YAML.Scanner.scanFiltered" xlink:title="scanFiltered" target="_blank">
<polygon fill="#dce9f7" stroke="#4a90d9" points="618,-214 548,-214 548,-178 618,-178 618,-214"/>
<text text-anchor="middle" x="583" y="-193.5" font-family="Helvetica" font-size="10.00">scanFiltered</text>
</a>
</g>
</g>
<!-- L4YAML.Scanner.scanFiltered&#45;&gt;L4YAML.ScanError -->
<g id="edge18" class="edge">
<title>L4YAML.Scanner.scanFiltered&#45;&gt;L4YAML.ScanError</title>
<path fill="none" stroke="#4a90d9" stroke-width="2" d="M611.86,-177.86C632.16,-165.8 659.45,-149.59 681,-136.79"/>
<polygon fill="#4a90d9" stroke="#4a90d9" stroke-width="2" points="682.43,-138.79 687.2,-133.11 679.93,-134.58 682.43,-138.79"/>
<text text-anchor="middle" x="662.5" y="-153.6" font-family="Times-Roman" font-size="8.00">calls</text>
</g>
<!-- L4YAML.Proofs.Composition.parseYaml_of_parseYamlRaw_ok -->
<g id="node7" class="node">
<title>L4YAML.Proofs.Composition.parseYaml_of_parseYamlRaw_ok</title>
<g id="a_node7"><a xlink:href="../../../api/L4YAML/Proofs/Composition.html#L4YAML.Proofs.Composition.parseYaml_of_parseYamlRaw_ok" xlink:title="Composition.parseYaml_of_parseYamlRaw_ok" target="_blank">
<ellipse fill="#d4edda" stroke="#28a745" cx="374" cy="-196" rx="130.19" ry="18"/>
<text text-anchor="middle" x="374" y="-193.5" font-family="Helvetica" font-size="10.00">Composition.parseYaml_of_parseYamlRaw_ok</text>
</a>
</g>
</g>
<!-- L4YAML.Proofs.Composition.parseYaml_of_parseYamlRaw_ok&#45;&gt;L4YAML.TokenParser.parseYamlRaw -->
<g id="edge8" class="edge">
<title>L4YAML.Proofs.Composition.parseYaml_of_parseYamlRaw_ok&#45;&gt;L4YAML.TokenParser.parseYamlRaw</title>
<path fill="none" stroke="#6f42c1" stroke-width="2" stroke-dasharray="5,2" d="M387.58,-177.89C395.94,-168.52 407.44,-157.52 420,-151 450.8,-135.02 488.05,-126.31 520.5,-121.58"/>
<polygon fill="#6f42c1" stroke="#6f42c1" stroke-width="2" points="521.18,-123.95 527.78,-120.57 520.51,-119.1 521.18,-123.95"/>
<text text-anchor="middle" x="432.5" y="-153.6" font-family="Times-Roman" font-size="8.00" fill="#6f42c1">about</text>
</g>
<!-- L4YAML.Proofs.Composition.parseYaml_of_parseYamlRaw_ok&#45;&gt;L4YAML.YamlDocument.compose -->
<g id="edge12" class="edge">
<title>L4YAML.Proofs.Composition.parseYaml_of_parseYamlRaw_ok&#45;&gt;L4YAML.YamlDocument.compose</title>
<path fill="none" stroke="#6f42c1" stroke-width="2" stroke-dasharray="5,2" d="M445.25,-180.92C475.72,-174.74 511.66,-167.26 544,-160 560.51,-156.29 564.32,-153.88 581,-151 657.61,-137.78 678.34,-145.96 755,-133 755.76,-132.87 756.52,-132.74 757.29,-132.6"/>
<polygon fill="#6f42c1" stroke="#6f42c1" stroke-width="2" points="757.83,-135 764.27,-131.31 756.94,-130.18 757.83,-135"/>
<text text-anchor="middle" x="593.5" y="-153.6" font-family="Times-Roman" font-size="8.00" fill="#6f42c1">about</text>
</g>
<!-- L4YAML.Proofs.Composition.parseYaml_of_parseYamlRaw_ok&#45;&gt;L4YAML.ScanError -->
<g id="edge10" class="edge">
<title>L4YAML.Proofs.Composition.parseYaml_of_parseYamlRaw_ok&#45;&gt;L4YAML.ScanError</title>
<path fill="none" stroke="#6f42c1" stroke-width="2" stroke-dasharray="5,2" d="M430.3,-179.69C450.78,-173.87 474.04,-166.95 495,-160 505.81,-156.41 507.92,-153.66 519,-151 587.72,-134.47 608.74,-151.32 677,-133 677.62,-132.83 678.25,-132.66 678.88,-132.47"/>
<polygon fill="#6f42c1" stroke="#6f42c1" stroke-width="2" points="679.77,-134.76 685.65,-130.25 678.24,-130.11 679.77,-134.76"/>
<text text-anchor="middle" x="531.5" y="-153.6" font-family="Times-Roman" font-size="8.00" fill="#6f42c1">about</text>
</g>
<!-- L4YAML.Proofs.Composition.parseYaml_of_parseYamlRaw_ok&#45;&gt;L4YAML.YamlDocument -->
<g id="edge14" class="edge">
<title>L4YAML.Proofs.Composition.parseYaml_of_parseYamlRaw_ok&#45;&gt;L4YAML.YamlDocument</title>
<path fill="none" stroke="#6f42c1" stroke-width="2" stroke-dasharray="5,2" d="M382.45,-177.76C387.32,-169.02 394.05,-158.67 402,-151 471.71,-83.75 584.94,-54.19 649.27,-42.25"/>
<polygon fill="#6f42c1" stroke="#6f42c1" stroke-width="2" points="650.03,-44.6 656.48,-40.95 649.16,-39.78 650.03,-44.6"/>
<text text-anchor="middle" x="488.5" y="-113.1" font-family="Times-Roman" font-size="8.00" fill="#6f42c1">about</text>
</g>
<!-- L4YAML.Proofs.Composition.parseYamlRaw_pipeline -->
<g id="node8" class="node">
<title>L4YAML.Proofs.Composition.parseYamlRaw_pipeline</title>
<g id="a_node8"><a xlink:href="../../../api/L4YAML/Proofs/Composition.html#L4YAML.Proofs.Composition.parseYamlRaw_pipeline" xlink:title="Composition.parseYamlRaw_pipeline" target="_blank">
<ellipse fill="#d4edda" stroke="#28a745" cx="121" cy="-196" rx="105.24" ry="18"/>
<text text-anchor="middle" x="121" y="-193.5" font-family="Helvetica" font-size="10.00">Composition.parseYamlRaw_pipeline</text>
</a>
</g>
</g>
<!-- L4YAML.Proofs.Composition.parseYamlRaw_pipeline&#45;&gt;L4YAML.TokenParser.parseYamlRaw -->
<g id="edge15" class="edge">
<title>L4YAML.Proofs.Composition.parseYamlRaw_pipeline&#45;&gt;L4YAML.TokenParser.parseYamlRaw</title>
<path fill="none" stroke="#6f42c1" stroke-width="2" stroke-dasharray="5,2" d="M180.6,-181.13C198.08,-177.27 217.26,-173.26 235,-170 333.19,-151.95 447.18,-135.77 520.84,-125.93"/>
<polygon fill="#6f42c1" stroke="#6f42c1" stroke-width="2" points="521.22,-128.35 527.84,-124.99 520.58,-123.49 521.22,-128.35"/>
<text text-anchor="middle" x="356.5" y="-153.6" font-family="Times-Roman" font-size="8.00" fill="#6f42c1">about</text>
</g>
<!-- L4YAML.Proofs.Composition.parseYamlRaw_pipeline&#45;&gt;L4YAML.ScanError -->
<g id="edge16" class="edge">
<title>L4YAML.Proofs.Composition.parseYamlRaw_pipeline&#45;&gt;L4YAML.ScanError</title>
<path fill="none" stroke="#6f42c1" stroke-width="2" stroke-dasharray="5,2" d="M177.2,-180.71C195.52,-176.58 216.02,-172.52 235,-170 327.63,-157.73 353.94,-180.96 445,-160 454.9,-157.72 456.15,-153.46 466,-151 557.31,-128.17 585.76,-156.11 677,-133 677.63,-132.84 678.26,-132.67 678.89,-132.5"/>
<polygon fill="#6f42c1" stroke="#6f42c1" stroke-width="2" points="679.75,-134.79 685.68,-130.34 678.26,-130.13 679.75,-134.79"/>
<text text-anchor="middle" x="478.5" y="-153.6" font-family="Times-Roman" font-size="8.00" fill="#6f42c1">about</text>
</g>
<!-- L4YAML.Proofs.Composition.parseYamlRaw_pipeline&#45;&gt;L4YAML.YamlDocument -->
<g id="edge4" class="edge">
<title>L4YAML.Proofs.Composition.parseYamlRaw_pipeline&#45;&gt;L4YAML.YamlDocument</title>
<path fill="none" stroke="#6f42c1" stroke-width="2" stroke-dasharray="5,2" d="M159.8,-179.24C212.26,-158.35 309.03,-121.31 394,-97 448.64,-81.36 463.33,-81.45 519,-70 563.05,-60.94 613.32,-51.16 649.35,-44.25"/>
<polygon fill="#6f42c1" stroke="#6f42c1" stroke-width="2" points="649.95,-46.63 656.36,-42.9 649.02,-41.81 649.95,-46.63"/>
<text text-anchor="middle" x="406.5" y="-113.1" font-family="Times-Roman" font-size="8.00" fill="#6f42c1">about</text>
</g>
<!-- L4YAML.Proofs.Composition.parseYaml_pipeline -->
<g id="node9" class="node">
<title>L4YAML.Proofs.Composition.parseYaml_pipeline</title>
<g id="a_node9"><a xlink:href="../../../api/L4YAML/Proofs/Composition.html#L4YAML.Proofs.Composition.parseYaml_pipeline" xlink:title="Composition.parseYaml_pipeline" target="_blank">
<polygon fill="#fff3cd" stroke="#d4a017" points="500.13,-293.54 500.13,-308.46 440.89,-319 357.11,-319 297.87,-308.46 297.87,-293.54 357.11,-283 440.89,-283 500.13,-293.54"/>
<polygon fill="none" stroke="#d4a017" points="504.12,-290.19 504.12,-311.81 441.24,-323 356.76,-323 293.88,-311.81 293.88,-290.19 356.76,-279 441.24,-279 504.12,-290.19"/>
<text text-anchor="middle" x="399" y="-298.5" font-family="Helvetica" font-size="10.00">Composition.parseYaml_pipeline</text>
</a>
</g>
</g>
<!-- L4YAML.Proofs.Composition.parseYaml_pipeline&#45;&gt;L4YAML.TokenParser.parseYaml -->
<g id="edge5" class="edge">
<title>L4YAML.Proofs.Composition.parseYaml_pipeline&#45;&gt;L4YAML.TokenParser.parseYaml</title>
<path fill="none" stroke="#6f42c1" stroke-width="2" stroke-dasharray="5,2" d="M478.27,-285.52C522.79,-276.16 578.9,-262.29 627,-244 645.74,-236.87 665.57,-226.69 681.74,-217.62"/>
<polygon fill="#6f42c1" stroke="#6f42c1" stroke-width="2" points="683.1,-219.67 687.97,-214.08 680.68,-215.41 683.1,-219.67"/>
<text text-anchor="middle" x="615.5" y="-254.6" font-family="Times-Roman" font-size="8.00" fill="#6f42c1">about</text>
</g>
<!-- L4YAML.Proofs.Composition.parseYaml_pipeline&#45;&gt;L4YAML.YamlDocument.compose -->
<g id="edge1" class="edge">
<title>L4YAML.Proofs.Composition.parseYaml_pipeline&#45;&gt;L4YAML.YamlDocument.compose</title>
<path fill="none" stroke="#6f42c1" stroke-width="2" stroke-dasharray="5,2" d="M504.43,-297.06C604.17,-292.14 744.61,-279.03 786,-244 816.54,-218.16 824.57,-169.51 826.53,-140.2"/>
<polygon fill="#6f42c1" stroke="#6f42c1" stroke-width="2" points="828.98,-140.31 826.91,-133.19 824.09,-140.05 828.98,-140.31"/>
<text text-anchor="middle" x="834.5" y="-194.1" font-family="Times-Roman" font-size="8.00" fill="#6f42c1">about</text>
</g>
<!-- L4YAML.Proofs.Composition.parseYaml_pipeline&#45;&gt;L4YAML.Scanner.scanFiltered -->
<g id="edge17" class="edge">
<title>L4YAML.Proofs.Composition.parseYaml_pipeline&#45;&gt;L4YAML.Scanner.scanFiltered</title>
<path fill="none" stroke="#6f42c1" stroke-width="2" stroke-dasharray="5,2" d="M445.75,-279.77C467.54,-269.81 493.55,-257.13 516,-244 529.16,-236.31 543.06,-226.8 554.77,-218.36"/>
<polygon fill="#6f42c1" stroke="#6f42c1" stroke-width="2" points="556.46,-220.16 560.67,-214.06 553.57,-216.2 556.46,-220.16"/>
<text text-anchor="middle" x="512.5" y="-254.6" font-family="Times-Roman" font-size="8.00" fill="#6f42c1">about</text>
</g>
<!-- L4YAML.Proofs.Composition.parseYaml_pipeline&#45;&gt;L4YAML.Proofs.Composition.parseYaml_of_parseYamlRaw_ok -->
<g id="edge7" class="edge">
<title>L4YAML.Proofs.Composition.parseYaml_pipeline&#45;&gt;L4YAML.Proofs.Composition.parseYaml_of_parseYamlRaw_ok</title>
<path fill="none" stroke="#28a745" stroke-width="2" d="M393.82,-278.66C389.77,-261.95 384.12,-238.71 379.9,-221.29"/>
<polygon fill="#28a745" stroke="#28a745" stroke-width="2" points="382.21,-220.45 378.18,-214.22 377.45,-221.6 382.21,-220.45"/>
<text text-anchor="middle" x="399" y="-254.6" font-family="Times-Roman" font-size="8.00">uses</text>
</g>
<!-- L4YAML.Proofs.Composition.parseYaml_pipeline&#45;&gt;L4YAML.Proofs.Composition.parseYamlRaw_pipeline -->
<g id="edge3" class="edge">
<title>L4YAML.Proofs.Composition.parseYaml_pipeline&#45;&gt;L4YAML.Proofs.Composition.parseYamlRaw_pipeline</title>
<path fill="none" stroke="#28a745" stroke-width="2" d="M342.15,-281.55C310.44,-271.02 270.34,-257.3 235,-244 211.59,-235.19 185.8,-224.63 164.68,-215.75"/>
<polygon fill="#28a745" stroke="#28a745" stroke-width="2" points="165.39,-213.39 157.99,-212.93 163.49,-217.91 165.39,-213.39"/>
<text text-anchor="middle" x="289" y="-254.6" font-family="Times-Roman" font-size="8.00">uses</text>
</g>
</g>
</svg>
