<?xml version="1.0" encoding="UTF-8" standalone="no"?>
<!DOCTYPE svg PUBLIC "-//W3C//DTD SVG 1.1//EN"
 "http://www.w3.org/Graphics/SVG/1.1/DTD/svg11.dtd">
<!-- Generated by graphviz version 2.44.0 (0)
 -->
<!-- Title: chain_Composition.parseYamlRaw_parse_error Pages: 1 -->
<svg width="425pt" height="98pt"
 viewBox="0.00 0.00 425.00 97.92" xmlns="http://www.w3.org/2000/svg" xmlns:xlink="http://www.w3.org/1999/xlink">
<g id="graph0" class="graph" transform="scale(1 1) rotate(0) translate(4 93.92)">
<title>chain_Composition.parseYamlRaw_parse_error</title>
<polygon fill="white" stroke="transparent" points="-4,4 -4,-93.92 421,-93.92 421,4 -4,4"/>
<text text-anchor="middle" x="208.5" y="-75.52" font-family="Helvetica Bold" font-size="13.00">Functorial Chains: Composition.parseYamlRaw_parse_error</text>
<text text-anchor="middle" x="208.5" y="-61.52" font-family="Helvetica Bold" font-size="13.00">1.6 Parse errors propagate from parseStream to parseYamlRaw</text>
<!-- L4YAML.Proofs.Composition.parseYamlRaw_parse_error -->
<g id="node1" class="node">
<title>L4YAML.Proofs.Composition.parseYamlRaw_parse_error</title>
<polygon fill="#fff3cd" stroke="black" points="357.99,-17.46 357.99,-36.46 270.42,-49.89 146.58,-49.89 59.01,-36.46 59.01,-17.46 146.58,-4.03 270.42,-4.03 357.99,-17.46"/>
<polygon fill="none" stroke="black" points="361.99,-14.04 361.99,-39.88 270.73,-53.88 146.27,-53.88 55.01,-39.88 55.01,-14.04 146.27,-0.04 270.73,-0.04 361.99,-14.04"/>
<text text-anchor="middle" x="208.5" y="-29.96" font-family="Helvetica" font-size="10.00">Composition.parseYamlRaw_parse_error</text>
<text text-anchor="middle" x="208.5" y="-18.96" font-family="Helvetica" font-size="10.00">(no functorial chains found)</text>
</g>
</g>
</svg>
