<?xml version="1.0" encoding="UTF-8" standalone="no"?>
<!DOCTYPE svg PUBLIC "-//W3C//DTD SVG 1.1//EN"
 "http://www.w3.org/Graphics/SVG/1.1/DTD/svg11.dtd">
<!-- Generated by graphviz version 2.44.0 (0)
 -->
<!-- Title: Composition.parseYamlRaw_parse_error Pages: 1 -->
<svg width="687pt" height="472pt"
 viewBox="0.00 0.00 687.49 472.00" xmlns="http://www.w3.org/2000/svg" xmlns:xlink="http://www.w3.org/1999/xlink">
<g id="graph0" class="graph" transform="scale(1 1) rotate(0) translate(4 468)">
<title>Composition.parseYamlRaw_parse_error</title>
<polygon fill="white" stroke="transparent" points="-4,4 -4,-468 683.49,-468 683.49,4 -4,4"/>
<text text-anchor="middle" x="339.75" y="-449.6" font-family="Helvetica Bold" font-size="13.00">Composition.parseYamlRaw_parse_error</text>
<text text-anchor="middle" x="339.75" y="-435.6" font-family="Helvetica Bold" font-size="13.00">1.6 Parse errors propagate from parseStream to parseYamlRaw</text>
<text text-anchor="middle" x="339.75" y="-421.6" font-family="Helvetica Bold" font-size="13.00">(L4YAML.Proofs.Composition)</text>
<g id="clust1" class="cluster">
<title>cluster_functions</title>
<polygon fill="none" stroke="#4a90d9" stroke-dasharray="5,2" points="515.49,-8 515.49,-406 671.49,-406 671.49,-8 515.49,-8"/>
<text text-anchor="middle" x="593.49" y="-391.6" font-family="Helvetica Bold" font-size="13.00" fill="#4a90d9">Functions</text>
</g>
<g id="clust2" class="cluster">
<title>cluster_key</title>
<polygon fill="none" stroke="#d4a017" stroke-dasharray="5,2" points="131.99,-166 131.99,-248 470.49,-248 470.49,-166 131.99,-166"/>
<text text-anchor="middle" x="301.24" y="-233.6" font-family="Helvetica Bold" font-size="13.00" fill="#d4a017">Key Theorem</text>
</g>
<g id="clust4" class="cluster">
<title>cluster_stdlib</title>
<polygon fill="none" stroke="#e67e22" stroke-dasharray="5,2" points="0,-136 0,-264 110.99,-264 110.99,-136 0,-136"/>
<text text-anchor="middle" x="55.5" y="-249.6" font-family="Helvetica Bold" font-size="13.00" fill="#e67e22">Stdlib Lemmas</text>
</g>
<!-- L4YAML.Positioned -->
<g id="node1" class="node">
<title>L4YAML.Positioned</title>
<g id="a_node1"><a xlink:href="../../../api/L4YAML/Token/Token.html#L4YAML.Positioned" xlink:title="Positioned\n(inductive)" target="_blank">
<polygon fill="#dce9f7" stroke="#4a90d9" points="624.49,-376 562.49,-376 562.49,-340 624.49,-340 624.49,-376"/>
<text text-anchor="middle" x="593.49" y="-361" font-family="Helvetica" font-size="10.00">Positioned</text>
<text text-anchor="middle" x="593.49" y="-350" font-family="Helvetica" font-size="10.00">(inductive)</text>
</a>
</g>
</g>
<!-- L4YAML.YamlToken -->
<g id="node2" class="node">
<title>L4YAML.YamlToken</title>
<g id="a_node2"><a xlink:href="../../../api/L4YAML/Token/Token.html#L4YAML.YamlToken" xlink:title="YamlToken\n(inductive)" target="_blank">
<polygon fill="#dce9f7" stroke="#4a90d9" points="625.49,-322 561.49,-322 561.49,-286 625.49,-286 625.49,-322"/>
<text text-anchor="middle" x="593.49" y="-307" font-family="Helvetica" font-size="10.00">YamlToken</text>
<text text-anchor="middle" x="593.49" y="-296" font-family="Helvetica" font-size="10.00">(inductive)</text>
</a>
</g>
</g>
<!-- L4YAML.TokenParser.parseYamlRaw -->
<g id="node3" class="node">
<title>L4YAML.TokenParser.parseYamlRaw</title>
<g id="a_node3"><a xlink:href="../../../api/L4YAML/Parser/Composition.html#L4YAML.TokenParser.parseYamlRaw" xlink:title="TokenParser.parseYamlRaw\n(def)" target="_blank">
<polygon fill="#dce9f7" stroke="#4a90d9" points="663.49,-268 523.49,-268 523.49,-232 663.49,-232 663.49,-268"/>
<text text-anchor="middle" x="593.49" y="-253" font-family="Helvetica" font-size="10.00">TokenParser.parseYamlRaw</text>
<text text-anchor="middle" x="593.49" y="-242" font-family="Helvetica" font-size="10.00">(def)</text>
</a>
</g>
</g>
<!-- L4YAML.Scanner.scanFiltered -->
<g id="node4" class="node">
<title>L4YAML.Scanner.scanFiltered</title>
<g id="a_node4"><a xlink:href="../../../api/L4YAML/Scanner/Scanner.html#L4YAML.Scanner.scanFiltered" xlink:title="scanFiltered\n(def)" target="_blank">
<polygon fill="#dce9f7" stroke="#4a90d9" points="628.49,-214 558.49,-214 558.49,-178 628.49,-178 628.49,-214"/>
<text text-anchor="middle" x="593.49" y="-199" font-family="Helvetica" font-size="10.00">scanFiltered</text>
<text text-anchor="middle" x="593.49" y="-188" font-family="Helvetica" font-size="10.00">(def)</text>
</a>
</g>
</g>
<!-- L4YAML.ScanError -->
<g id="node5" class="node">
<title>L4YAML.ScanError</title>
<g id="a_node5"><a xlink:href="../../../api/L4YAML/Token/Token.html#L4YAML.ScanError" xlink:title="ScanError\n(inductive)" target="_blank">
<polygon fill="#dce9f7" stroke="#4a90d9" points="624.49,-160 562.49,-160 562.49,-124 624.49,-124 624.49,-160"/>
<text text-anchor="middle" x="593.49" y="-145" font-family="Helvetica" font-size="10.00">ScanError</text>
<text text-anchor="middle" x="593.49" y="-134" font-family="Helvetica" font-size="10.00">(inductive)</text>
</a>
</g>
</g>
<!-- L4YAML.TokenParser.parseStream -->
<g id="node6" class="node">
<title>L4YAML.TokenParser.parseStream</title>
<g id="a_node6"><a xlink:href="../../../api/L4YAML/Parser/TokenParser.html#L4YAML.TokenParser.parseStream" xlink:title="TokenParser.parseStream\n(def)" target="_blank">
<polygon fill="#dce9f7" stroke="#4a90d9" points="658.99,-106 527.99,-106 527.99,-70 658.99,-70 658.99,-106"/>
<text text-anchor="middle" x="593.49" y="-91" font-family="Helvetica" font-size="10.00">TokenParser.parseStream</text>
<text text-anchor="middle" x="593.49" y="-80" font-family="Helvetica" font-size="10.00">(def)</text>
</a>
</g>
</g>
<!-- L4YAML.YamlDocument -->
<g id="node7" class="node">
<title>L4YAML.YamlDocument</title>
<g id="a_node7"><a xlink:href="../../../api/L4YAML/Spec/Types.html#L4YAML.YamlDocument" xlink:title="YamlDocument\n(inductive)" target="_blank">
<polygon fill="#dce9f7" stroke="#4a90d9" points="634.99,-52 551.99,-52 551.99,-16 634.99,-16 634.99,-52"/>
<text text-anchor="middle" x="593.49" y="-37" font-family="Helvetica" font-size="10.00">YamlDocument</text>
<text text-anchor="middle" x="593.49" y="-26" font-family="Helvetica" font-size="10.00">(inductive)</text>
</a>
</g>
</g>
<!-- L4YAML.Proofs.Composition.parseYamlRaw_parse_error -->
<g id="node8" class="node">
<title>L4YAML.Proofs.Composition.parseYamlRaw_parse_error</title>
<g id="a_node8"><a xlink:href="../../../api/L4YAML/Proofs/Composition.html#L4YAML.Proofs.Composition.parseYamlRaw_parse_error" xlink:title="Composition.parseYamlRaw_parse_error" target="_blank">
<polygon fill="#fff3cd" stroke="#d4a017" points="458.73,-188.54 458.73,-203.46 366.48,-214 236.01,-214 143.75,-203.46 143.75,-188.54 236.01,-178 366.48,-178 458.73,-188.54"/>
<polygon fill="none" stroke="#d4a017" points="462.74,-184.98 462.74,-207.02 366.71,-218 235.78,-218 139.75,-207.02 139.75,-184.98 235.78,-174 366.71,-174 462.74,-184.98"/>
<text text-anchor="middle" x="301.24" y="-192.9" font-family="Helvetica" font-size="12.00">Composition.parseYamlRaw_parse_error</text>
</a>
</g>
</g>
<!-- L4YAML.Proofs.Composition.parseYamlRaw_parse_error&#45;&gt;L4YAML.Positioned -->
<g id="edge2" class="edge">
<title>L4YAML.Proofs.Composition.parseYamlRaw_parse_error&#45;&gt;L4YAML.Positioned</title>
<path fill="none" stroke="#4a90d9" stroke-width="2" d="M332.39,-218.21C372.59,-247.06 446.67,-297.69 515.49,-331 528.08,-337.09 542.41,-342.5 555.26,-346.85"/>
<polygon fill="#4a90d9" stroke="#4a90d9" stroke-width="2" points="554.82,-349.28 562.23,-349.15 556.36,-344.63 554.82,-349.28"/>
<text text-anchor="middle" x="492.99" y="-326.6" font-family="Times-Roman" font-size="8.00" fill="#4a90d9">about</text>
</g>
<!-- L4YAML.Proofs.Composition.parseYamlRaw_parse_error&#45;&gt;L4YAML.YamlToken -->
<g id="edge5" class="edge">
<title>L4YAML.Proofs.Composition.parseYamlRaw_parse_error&#45;&gt;L4YAML.YamlToken</title>
<path fill="none" stroke="#4a90d9" stroke-width="2" d="M359.12,-218.06C401.99,-234.58 462.29,-257.57 515.49,-277 528.18,-281.63 542.1,-286.56 554.57,-290.92"/>
<polygon fill="#4a90d9" stroke="#4a90d9" stroke-width="2" points="553.91,-293.29 561.33,-293.28 555.53,-288.66 553.91,-293.29"/>
<text text-anchor="middle" x="492.99" y="-274.6" font-family="Times-Roman" font-size="8.00" fill="#4a90d9">about</text>
</g>
<!-- L4YAML.Proofs.Composition.parseYamlRaw_parse_error&#45;&gt;L4YAML.TokenParser.parseYamlRaw -->
<g id="edge7" class="edge">
<title>L4YAML.Proofs.Composition.parseYamlRaw_parse_error&#45;&gt;L4YAML.TokenParser.parseYamlRaw</title>
<path fill="none" stroke="#4a90d9" stroke-width="2" d="M400.1,-214.21C438.06,-221.27 480.85,-229.23 516.43,-235.85"/>
<polygon fill="#4a90d9" stroke="#4a90d9" stroke-width="2" points="516.12,-238.28 523.45,-237.15 517.01,-233.47 516.12,-238.28"/>
<text text-anchor="middle" x="492.99" y="-234.6" font-family="Times-Roman" font-size="8.00" fill="#4a90d9">about</text>
</g>
<!-- L4YAML.Proofs.Composition.parseYamlRaw_parse_error&#45;&gt;L4YAML.Scanner.scanFiltered -->
<g id="edge3" class="edge">
<title>L4YAML.Proofs.Composition.parseYamlRaw_parse_error&#45;&gt;L4YAML.Scanner.scanFiltered</title>
<path fill="none" stroke="#4a90d9" stroke-width="2" d="M462.65,-196C495.44,-196 527.18,-196 551.07,-196"/>
<polygon fill="#4a90d9" stroke="#4a90d9" stroke-width="2" points="551.23,-198.45 558.23,-196 551.23,-193.55 551.23,-198.45"/>
<text text-anchor="middle" x="492.99" y="-198.6" font-family="Times-Roman" font-size="8.00" fill="#4a90d9">about</text>
</g>
<!-- L4YAML.Proofs.Composition.parseYamlRaw_parse_error&#45;&gt;L4YAML.ScanError -->
<g id="edge6" class="edge">
<title>L4YAML.Proofs.Composition.parseYamlRaw_parse_error&#45;&gt;L4YAML.ScanError</title>
<path fill="none" stroke="#4a90d9" stroke-width="2" d="M400.1,-177.79C453.4,-167.88 516.24,-156.19 555.23,-148.93"/>
<polygon fill="#4a90d9" stroke="#4a90d9" stroke-width="2" points="555.8,-151.32 562.23,-147.63 554.9,-146.5 555.8,-151.32"/>
<text text-anchor="middle" x="492.99" y="-164.6" font-family="Times-Roman" font-size="8.00" fill="#4a90d9">about</text>
</g>
<!-- L4YAML.Proofs.Composition.parseYamlRaw_parse_error&#45;&gt;L4YAML.TokenParser.parseStream -->
<g id="edge4" class="edge">
<title>L4YAML.Proofs.Composition.parseYamlRaw_parse_error&#45;&gt;L4YAML.TokenParser.parseStream</title>
<path fill="none" stroke="#4a90d9" stroke-width="2" d="M359.12,-173.94C401.99,-157.42 462.29,-134.43 515.49,-115 521.35,-112.86 527.48,-110.65 533.6,-108.47"/>
<polygon fill="#4a90d9" stroke="#4a90d9" stroke-width="2" points="534.46,-110.77 540.24,-106.12 532.82,-106.15 534.46,-110.77"/>
<text text-anchor="middle" x="492.99" y="-127.6" font-family="Times-Roman" font-size="8.00" fill="#4a90d9">about</text>
</g>
<!-- L4YAML.Proofs.Composition.parseYamlRaw_parse_error&#45;&gt;L4YAML.YamlDocument -->
<g id="edge1" class="edge">
<title>L4YAML.Proofs.Composition.parseYamlRaw_parse_error&#45;&gt;L4YAML.YamlDocument</title>
<path fill="none" stroke="#4a90d9" stroke-width="2" d="M332.39,-173.79C372.59,-144.94 446.67,-94.31 515.49,-61 524.81,-56.49 535.09,-52.35 545.02,-48.74"/>
<polygon fill="#4a90d9" stroke="#4a90d9" stroke-width="2" points="546.05,-50.98 551.83,-46.33 544.41,-46.36 546.05,-50.98"/>
<text text-anchor="middle" x="492.99" y="-78.6" font-family="Times-Roman" font-size="8.00" fill="#4a90d9">about</text>
</g>
<!-- eq_self -->
<g id="node9" class="node">
<title>eq_self</title>
<g id="a_node9"><a xlink:href="../../../api/Init/SimpLemmas.html#eq_self" xlink:title="eq_self" target="_blank">
<ellipse fill="#fdebd0" stroke="#e67e22" cx="55.5" cy="-216" rx="28.01" ry="18"/>
<text text-anchor="middle" x="55.5" y="-213.5" font-family="Helvetica" font-size="10.00">eq_self</text>
</a>
</g>
</g>
<!-- eq_self&#45;&gt;L4YAML.Proofs.Composition.parseYamlRaw_parse_error -->
<g id="edge8" class="edge">
<title>eq_self&#45;&gt;L4YAML.Proofs.Composition.parseYamlRaw_parse_error</title>
<path fill="none" stroke="#e67e22" stroke-width="2" d="M83.98,-213.74C99.61,-212.46 120.57,-210.74 143.31,-208.88"/>
<polygon fill="#e67e22" stroke="#e67e22" stroke-width="2" points="143.65,-211.31 150.43,-208.29 143.25,-206.42 143.65,-211.31"/>
</g>
<!-- of_eq_true -->
<g id="node10" class="node">
<title>of_eq_true</title>
<g id="a_node10"><a xlink:href="../../../api/Init/SimpLemmas.html#of_eq_true" xlink:title="of_eq_true" target="_blank">
<ellipse fill="#fdebd0" stroke="#e67e22" cx="55.5" cy="-162" rx="36.49" ry="18"/>
<text text-anchor="middle" x="55.5" y="-159.5" font-family="Helvetica" font-size="10.00">of_eq_true</text>
</a>
</g>
</g>
<!-- of_eq_true&#45;&gt;L4YAML.Proofs.Composition.parseYamlRaw_parse_error -->
<g id="edge9" class="edge">
<title>of_eq_true&#45;&gt;L4YAML.Proofs.Composition.parseYamlRaw_parse_error</title>
<path fill="none" stroke="#e67e22" stroke-width="2" d="M90.9,-166.8C113.84,-170 145.51,-174.42 177.28,-178.85"/>
<polygon fill="#e67e22" stroke="#e67e22" stroke-width="2" points="177.22,-181.31 184.49,-179.85 177.89,-176.46 177.22,-181.31"/>
</g>
</g>
</svg>
