<?xml version="1.0" encoding="UTF-8" standalone="no"?>
<!DOCTYPE svg PUBLIC "-//W3C//DTD SVG 1.1//EN"
 "http://www.w3.org/Graphics/SVG/1.1/DTD/svg11.dtd">
<!-- Generated by graphviz version 2.44.0 (0)
 -->
<!-- Title: chain_ScannerCorrectness.consumeNewline_preserves_tokens Pages: 1 -->
<svg width="707pt" height="405pt"
 viewBox="0.00 0.00 707.00 405.00" xmlns="http://www.w3.org/2000/svg" xmlns:xlink="http://www.w3.org/1999/xlink">
<g id="graph0" class="graph" transform="scale(1 1) rotate(0) translate(4 401)">
<title>chain_ScannerCorrectness.consumeNewline_preserves_tokens</title>
<polygon fill="white" stroke="transparent" points="-4,4 -4,-401 703,-401 703,4 -4,4"/>
<text text-anchor="middle" x="349.5" y="-382.6" font-family="Helvetica Bold" font-size="13.00">Functorial Chains: ScannerCorrectness.consumeNewline_preserves_tokens</text>
<text text-anchor="middle" x="349.5" y="-368.6" font-family="Helvetica Bold" font-size="13.00">(heuristic: used by 8 proofs)</text>
<g id="clust1" class="cluster">
<title>cluster_fns</title>
<polygon fill="none" stroke="#4a90d9" stroke-dasharray="5,2" points="378,-8 378,-244 691,-244 691,-8 378,-8"/>
<text text-anchor="middle" x="534.5" y="-229.6" font-family="Helvetica Bold" font-size="13.00" fill="#4a90d9">Functions (Call Chain)</text>
</g>
<g id="clust2" class="cluster">
<title>cluster_thms</title>
<polygon fill="none" stroke="#28a745" stroke-dasharray="5,2" points="8,-170 8,-353 370,-353 370,-170 8,-170"/>
<text text-anchor="middle" x="189" y="-338.6" font-family="Helvetica Bold" font-size="13.00" fill="#28a745">Theorems (Proof Chain)</text>
</g>
<!-- L4YAML.Scanner.ScannerState.advance -->
<g id="node1" class="node">
<title>L4YAML.Scanner.ScannerState.advance</title>
<g id="a_node1"><a xlink:href="../../../api/L4YAML/Scanner/State.html#L4YAML.Scanner.ScannerState.advance" xlink:title="ScannerState.advance" target="_blank">
<polygon fill="#dce9f7" stroke="#4a90d9" points="501.5,-133 386.5,-133 386.5,-97 501.5,-97 501.5,-133"/>
<text text-anchor="middle" x="444" y="-112.5" font-family="Helvetica" font-size="10.00">ScannerState.advance</text>
</a>
</g>
</g>
<!-- L4YAML.Scanner.consumeNewline -->
<g id="node2" class="node">
<title>L4YAML.Scanner.consumeNewline</title>
<g id="a_node2"><a xlink:href="../../../api/L4YAML/Scanner/Whitespace.html#L4YAML.Scanner.consumeNewline" xlink:title="consumeNewline" target="_blank">
<polygon fill="#dce9f7" stroke="#4a90d9" points="549,-214 457,-214 457,-178 549,-178 549,-214"/>
<text text-anchor="middle" x="503" y="-193.5" font-family="Helvetica" font-size="10.00">consumeNewline</text>
</a>
</g>
</g>
<!-- L4YAML.Scanner.consumeNewline&#45;&gt;L4YAML.Scanner.ScannerState.advance -->
<g id="edge9" class="edge">
<title>L4YAML.Scanner.consumeNewline&#45;&gt;L4YAML.Scanner.ScannerState.advance</title>
<path fill="none" stroke="#4a90d9" stroke-width="2" d="M490.2,-177.86C481.69,-166.47 470.43,-151.39 461.15,-138.96"/>
<polygon fill="#4a90d9" stroke="#4a90d9" stroke-width="2" points="462.93,-137.25 456.78,-133.11 459,-140.18 462.93,-137.25"/>
<text text-anchor="middle" x="485.5" y="-153.6" font-family="Times-Roman" font-size="8.00">calls</text>
</g>
<!-- L4YAML.Scanner.ScannerState -->
<g id="node3" class="node">
<title>L4YAML.Scanner.ScannerState</title>
<g id="a_node3"><a xlink:href="../../../api/L4YAML/Scanner/State.html#L4YAML.Scanner.ScannerState" xlink:title="ScannerState" target="_blank">
<polygon fill="#dce9f7" stroke="#4a90d9" points="576,-52 500,-52 500,-16 576,-16 576,-52"/>
<text text-anchor="middle" x="538" y="-31.5" font-family="Helvetica" font-size="10.00">ScannerState</text>
</a>
</g>
</g>
<!-- L4YAML.Scanner.consumeNewline&#45;&gt;L4YAML.Scanner.ScannerState -->
<g id="edge8" class="edge">
<title>L4YAML.Scanner.consumeNewline&#45;&gt;L4YAML.Scanner.ScannerState</title>
<path fill="none" stroke="#4a90d9" stroke-width="2" d="M506.75,-177.88C512.98,-149.4 525.49,-92.2 532.65,-59.47"/>
<polygon fill="#4a90d9" stroke="#4a90d9" stroke-width="2" points="535.07,-59.85 534.18,-52.48 530.29,-58.8 535.07,-59.85"/>
<text text-anchor="middle" x="532.5" y="-113.1" font-family="Times-Roman" font-size="8.00">calls</text>
</g>
<!-- L4YAML.Scanner.ScannerState.tokens -->
<g id="node4" class="node">
<title>L4YAML.Scanner.ScannerState.tokens</title>
<g id="a_node4"><a xlink:href="../../../api/L4YAML/Scanner/State.html#L4YAML.Scanner.ScannerState.tokens" xlink:title="ScannerState.tokens" target="_blank">
<polygon fill="#dce9f7" stroke="#4a90d9" points="682.5,-133 575.5,-133 575.5,-97 682.5,-97 682.5,-133"/>
<text text-anchor="middle" x="629" y="-112.5" font-family="Helvetica" font-size="10.00">ScannerState.tokens</text>
</a>
</g>
</g>
<!-- L4YAML.Scanner.consumeNewline&#45;&gt;L4YAML.Scanner.ScannerState.tokens -->
<g id="edge2" class="edge">
<title>L4YAML.Scanner.consumeNewline&#45;&gt;L4YAML.Scanner.ScannerState.tokens</title>
<path fill="none" stroke="#4a90d9" stroke-width="2" d="M530.34,-177.86C549.49,-165.85 575.2,-149.73 595.58,-136.96"/>
<polygon fill="#4a90d9" stroke="#4a90d9" stroke-width="2" points="597.08,-138.9 601.71,-133.11 594.48,-134.75 597.08,-138.9"/>
<text text-anchor="middle" x="578.5" y="-153.6" font-family="Times-Roman" font-size="8.00">calls</text>
</g>
<!-- L4YAML.Scanner.ScannerState.tokens&#45;&gt;L4YAML.Scanner.ScannerState -->
<g id="edge6" class="edge">
<title>L4YAML.Scanner.ScannerState.tokens&#45;&gt;L4YAML.Scanner.ScannerState</title>
<path fill="none" stroke="#4a90d9" stroke-width="2" d="M609.25,-96.86C595.78,-85.16 577.81,-69.56 563.29,-56.95"/>
<polygon fill="#4a90d9" stroke="#4a90d9" stroke-width="2" points="564.6,-54.85 557.71,-52.11 561.39,-58.55 564.6,-54.85"/>
<text text-anchor="middle" x="595.5" y="-72.6" font-family="Times-Roman" font-size="8.00">calls</text>
</g>
<!-- L4YAML.Proofs.ScannerCorrectness.consumeNewline_preserves_tokens -->
<g id="node5" class="node">
<title>L4YAML.Proofs.ScannerCorrectness.consumeNewline_preserves_tokens</title>
<g id="a_node5"><a xlink:href="../../../api/L4YAML/Proofs/Scanner/ScannerCorrectness.html#L4YAML.Proofs.ScannerCorrectness.consumeNewline_preserves_tokens" xlink:title="ScannerCorrectness.consumeNewline_preserves_tokens" target="_blank">
<polygon fill="#fff3cd" stroke="#d4a017" points="358.47,-293.54 358.47,-308.46 259.2,-319 118.8,-319 19.53,-308.46 19.53,-293.54 118.8,-283 259.2,-283 358.47,-293.54"/>
<polygon fill="none" stroke="#d4a017" points="362.47,-289.95 362.47,-312.05 259.41,-323 118.59,-323 15.53,-312.05 15.53,-289.95 118.59,-279 259.41,-279 362.47,-289.95"/>
<text text-anchor="middle" x="189" y="-298.5" font-family="Helvetica" font-size="10.00">ScannerCorrectness.consumeNewline_preserves_tokens</text>
</a>
</g>
</g>
<!-- L4YAML.Proofs.ScannerCorrectness.consumeNewline_preserves_tokens&#45;&gt;L4YAML.Scanner.consumeNewline -->
<g id="edge1" class="edge">
<title>L4YAML.Proofs.ScannerCorrectness.consumeNewline_preserves_tokens&#45;&gt;L4YAML.Scanner.consumeNewline</title>
<path fill="none" stroke="#6f42c1" stroke-width="2" stroke-dasharray="5,2" d="M261.34,-279.12C295.62,-268.96 337.07,-256.31 374,-244 399.62,-235.46 427.84,-225.27 451.33,-216.57"/>
<polygon fill="#6f42c1" stroke="#6f42c1" stroke-width="2" points="452.43,-218.77 458.14,-214.04 450.73,-214.18 452.43,-218.77"/>
<text text-anchor="middle" x="362.5" y="-254.6" font-family="Times-Roman" font-size="8.00" fill="#6f42c1">about</text>
</g>
<!-- L4YAML.Proofs.ScannerCorrectness.consumeNewline_preserves_tokens&#45;&gt;L4YAML.Scanner.ScannerState.tokens -->
<g id="edge5" class="edge">
<title>L4YAML.Proofs.ScannerCorrectness.consumeNewline_preserves_tokens&#45;&gt;L4YAML.Scanner.ScannerState.tokens</title>
<path fill="none" stroke="#6f42c1" stroke-width="2" stroke-dasharray="5,2" d="M354.85,-289.08C436.7,-280.9 524.88,-267.02 558,-244 593.78,-219.13 613.48,-170.15 622.59,-140.52"/>
<polygon fill="#6f42c1" stroke="#6f42c1" stroke-width="2" points="625.05,-140.83 624.68,-133.43 620.35,-139.45 625.05,-140.83"/>
<text text-anchor="middle" x="623.5" y="-194.1" font-family="Times-Roman" font-size="8.00" fill="#6f42c1">about</text>
</g>
<!-- L4YAML.Proofs.ScannerCorrectness.advance_preserves_tokens -->
<g id="node6" class="node">
<title>L4YAML.Proofs.ScannerCorrectness.advance_preserves_tokens</title>
<g id="a_node6"><a xlink:href="../../../api/L4YAML/Proofs/Scanner/ScannerCorrectness.html#L4YAML.Proofs.ScannerCorrectness.advance_preserves_tokens" xlink:title="ScannerCorrectness.advance_preserves_tokens" target="_blank">
<ellipse fill="#d4edda" stroke="#28a745" cx="228" cy="-196" rx="133.75" ry="18"/>
<text text-anchor="middle" x="228" y="-193.5" font-family="Helvetica" font-size="10.00">ScannerCorrectness.advance_preserves_tokens</text>
</a>
</g>
</g>
<!-- L4YAML.Proofs.ScannerCorrectness.consumeNewline_preserves_tokens&#45;&gt;L4YAML.Proofs.ScannerCorrectness.advance_preserves_tokens -->
<g id="edge3" class="edge">
<title>L4YAML.Proofs.ScannerCorrectness.consumeNewline_preserves_tokens&#45;&gt;L4YAML.Proofs.ScannerCorrectness.advance_preserves_tokens</title>
<path fill="none" stroke="#28a745" stroke-width="2" d="M197.08,-278.66C203.46,-261.8 212.36,-238.3 218.98,-220.83"/>
<polygon fill="#28a745" stroke="#28a745" stroke-width="2" points="221.29,-221.64 221.48,-214.22 216.71,-219.9 221.29,-221.64"/>
<text text-anchor="middle" x="217" y="-254.6" font-family="Times-Roman" font-size="8.00">uses</text>
</g>
<!-- L4YAML.Proofs.ScannerCorrectness.advance_preserves_tokens&#45;&gt;L4YAML.Scanner.ScannerState.advance -->
<g id="edge10" class="edge">
<title>L4YAML.Proofs.ScannerCorrectness.advance_preserves_tokens&#45;&gt;L4YAML.Scanner.ScannerState.advance</title>
<path fill="none" stroke="#6f42c1" stroke-width="2" stroke-dasharray="5,2" d="M266.98,-178.73C287.91,-170.16 314.23,-159.67 338,-151 352.6,-145.67 368.46,-140.25 383.36,-135.31"/>
<polygon fill="#6f42c1" stroke="#6f42c1" stroke-width="2" points="384.25,-137.6 390.13,-133.08 382.71,-132.94 384.25,-137.6"/>
<text text-anchor="middle" x="350.5" y="-153.6" font-family="Times-Roman" font-size="8.00" fill="#6f42c1">about</text>
</g>
<!-- L4YAML.Proofs.ScannerCorrectness.advance_preserves_tokens&#45;&gt;L4YAML.Scanner.ScannerState -->
<g id="edge7" class="edge">
<title>L4YAML.Proofs.ScannerCorrectness.advance_preserves_tokens&#45;&gt;L4YAML.Scanner.ScannerState</title>
<path fill="none" stroke="#6f42c1" stroke-width="2" stroke-dasharray="5,2" d="M245.48,-177.89C268.29,-156.38 310.23,-119.56 352,-97 397.25,-72.56 453.88,-55.37 492.69,-45.39"/>
<polygon fill="#6f42c1" stroke="#6f42c1" stroke-width="2" points="493.54,-47.7 499.73,-43.61 492.34,-42.95 493.54,-47.7"/>
<text text-anchor="middle" x="364.5" y="-113.1" font-family="Times-Roman" font-size="8.00" fill="#6f42c1">about</text>
</g>
<!-- L4YAML.Proofs.ScannerCorrectness.advance_preserves_tokens&#45;&gt;L4YAML.Scanner.ScannerState.tokens -->
<g id="edge4" class="edge">
<title>L4YAML.Proofs.ScannerCorrectness.advance_preserves_tokens&#45;&gt;L4YAML.Scanner.ScannerState.tokens</title>
<path fill="none" stroke="#6f42c1" stroke-width="2" stroke-dasharray="5,2" d="M295.14,-180.35C337.45,-171.35 393.3,-159.87 443,-151 495.23,-141.68 508.99,-143.44 561,-133 563.33,-132.53 565.69,-132.04 568.08,-131.52"/>
<polygon fill="#6f42c1" stroke="#6f42c1" stroke-width="2" points="568.98,-133.83 575.28,-129.92 567.92,-129.05 568.98,-133.83"/>
<text text-anchor="middle" x="455.5" y="-153.6" font-family="Times-Roman" font-size="8.00" fill="#6f42c1">about</text>
</g>
</g>
</svg>
