<?xml version="1.0" encoding="UTF-8" standalone="no"?>
<!DOCTYPE svg PUBLIC "-//W3C//DTD SVG 1.1//EN"
 "http://www.w3.org/Graphics/SVG/1.1/DTD/svg11.dtd">
<!-- Generated by graphviz version 2.44.0 (0)
 -->
<!-- Title: chain_ScannerCorrectness.consumeNewline_preserves_flowLevel Pages: 1 -->
<svg width="734pt" height="405pt"
 viewBox="0.00 0.00 734.00 405.00" xmlns="http://www.w3.org/2000/svg" xmlns:xlink="http://www.w3.org/1999/xlink">
<g id="graph0" class="graph" transform="scale(1 1) rotate(0) translate(4 401)">
<title>chain_ScannerCorrectness.consumeNewline_preserves_flowLevel</title>
<polygon fill="white" stroke="transparent" points="-4,4 -4,-401 730,-401 730,4 -4,4"/>
<text text-anchor="middle" x="363" y="-382.6" font-family="Helvetica Bold" font-size="13.00">Functorial Chains: ScannerCorrectness.consumeNewline_preserves_flowLevel</text>
<text text-anchor="middle" x="363" y="-368.6" font-family="Helvetica Bold" font-size="13.00">(heuristic: used by 8 proofs)</text>
<g id="clust1" class="cluster">
<title>cluster_fns</title>
<polygon fill="none" stroke="#4a90d9" stroke-dasharray="5,2" points="394,-8 394,-244 718,-244 718,-8 394,-8"/>
<text text-anchor="middle" x="556" y="-229.6" font-family="Helvetica Bold" font-size="13.00" fill="#4a90d9">Functions (Call Chain)</text>
</g>
<g id="clust2" class="cluster">
<title>cluster_thms</title>
<polygon fill="none" stroke="#28a745" stroke-dasharray="5,2" points="8,-170 8,-353 386,-353 386,-170 8,-170"/>
<text text-anchor="middle" x="197" y="-338.6" font-family="Helvetica Bold" font-size="13.00" fill="#28a745">Theorems (Proof Chain)</text>
</g>
<!-- L4YAML.Scanner.ScannerState.advance -->
<g id="node1" class="node">
<title>L4YAML.Scanner.ScannerState.advance</title>
<g id="a_node1"><a xlink:href="../../../api/L4YAML/Scanner/State.html#L4YAML.Scanner.ScannerState.advance" xlink:title="ScannerState.advance" target="_blank">
<polygon fill="#dce9f7" stroke="#4a90d9" points="517.5,-133 402.5,-133 402.5,-97 517.5,-97 517.5,-133"/>
<text text-anchor="middle" x="460" y="-112.5" font-family="Helvetica" font-size="10.00">ScannerState.advance</text>
</a>
</g>
</g>
<!-- L4YAML.Scanner.consumeNewline -->
<g id="node2" class="node">
<title>L4YAML.Scanner.consumeNewline</title>
<g id="a_node2"><a xlink:href="../../../api/L4YAML/Scanner/Whitespace.html#L4YAML.Scanner.consumeNewline" xlink:title="consumeNewline" target="_blank">
<polygon fill="#dce9f7" stroke="#4a90d9" points="557,-214 465,-214 465,-178 557,-178 557,-214"/>
<text text-anchor="middle" x="511" y="-193.5" font-family="Helvetica" font-size="10.00">consumeNewline</text>
</a>
</g>
</g>
<!-- L4YAML.Scanner.consumeNewline&#45;&gt;L4YAML.Scanner.ScannerState.advance -->
<g id="edge2" class="edge">
<title>L4YAML.Scanner.consumeNewline&#45;&gt;L4YAML.Scanner.ScannerState.advance</title>
<path fill="none" stroke="#4a90d9" stroke-width="2" d="M499.93,-177.86C492.65,-166.57 483.02,-151.66 475.04,-139.3"/>
<polygon fill="#4a90d9" stroke="#4a90d9" stroke-width="2" points="476.9,-137.66 471.04,-133.11 472.78,-140.32 476.9,-137.66"/>
<text text-anchor="middle" x="497.5" y="-153.6" font-family="Times-Roman" font-size="8.00">calls</text>
</g>
<!-- L4YAML.Scanner.ScannerState.flowLevel -->
<g id="node3" class="node">
<title>L4YAML.Scanner.ScannerState.flowLevel</title>
<g id="a_node3"><a xlink:href="../../../api/L4YAML/Scanner/State.html#L4YAML.Scanner.ScannerState.flowLevel" xlink:title="ScannerState.flowLevel" target="_blank">
<polygon fill="#dce9f7" stroke="#4a90d9" points="654.5,-133 535.5,-133 535.5,-97 654.5,-97 654.5,-133"/>
<text text-anchor="middle" x="595" y="-112.5" font-family="Helvetica" font-size="10.00">ScannerState.flowLevel</text>
</a>
</g>
</g>
<!-- L4YAML.Scanner.consumeNewline&#45;&gt;L4YAML.Scanner.ScannerState.flowLevel -->
<g id="edge8" class="edge">
<title>L4YAML.Scanner.consumeNewline&#45;&gt;L4YAML.Scanner.ScannerState.flowLevel</title>
<path fill="none" stroke="#4a90d9" stroke-width="2" d="M529.23,-177.86C541.67,-166.16 558.25,-150.56 571.66,-137.95"/>
<polygon fill="#4a90d9" stroke="#4a90d9" stroke-width="2" points="573.39,-139.69 576.81,-133.11 570.03,-136.12 573.39,-139.69"/>
<text text-anchor="middle" x="564.5" y="-153.6" font-family="Times-Roman" font-size="8.00">calls</text>
</g>
<!-- L4YAML.Scanner.ScannerState -->
<g id="node4" class="node">
<title>L4YAML.Scanner.ScannerState</title>
<g id="a_node4"><a xlink:href="../../../api/L4YAML/Scanner/State.html#L4YAML.Scanner.ScannerState" xlink:title="ScannerState" target="_blank">
<polygon fill="#dce9f7" stroke="#4a90d9" points="633,-52 557,-52 557,-16 633,-16 633,-52"/>
<text text-anchor="middle" x="595" y="-31.5" font-family="Helvetica" font-size="10.00">ScannerState</text>
</a>
</g>
</g>
<!-- L4YAML.Scanner.consumeNewline&#45;&gt;L4YAML.Scanner.ScannerState -->
<g id="edge10" class="edge">
<title>L4YAML.Scanner.consumeNewline&#45;&gt;L4YAML.Scanner.ScannerState</title>
<path fill="none" stroke="#4a90d9" stroke-width="2" d="M557.06,-189.99C592.86,-183.4 640.3,-168.18 664,-133 681.94,-106.37 653.18,-76.23 627.5,-56.49"/>
<polygon fill="#4a90d9" stroke="#4a90d9" stroke-width="2" points="628.82,-54.42 621.74,-52.2 625.89,-58.35 628.82,-54.42"/>
<text text-anchor="middle" x="678.5" y="-113.1" font-family="Times-Roman" font-size="8.00">calls</text>
</g>
<!-- L4YAML.Scanner.ScannerState.flowLevel&#45;&gt;L4YAML.Scanner.ScannerState -->
<g id="edge6" class="edge">
<title>L4YAML.Scanner.ScannerState.flowLevel&#45;&gt;L4YAML.Scanner.ScannerState</title>
<path fill="none" stroke="#4a90d9" stroke-width="2" d="M595,-96.86C595,-85.88 595,-71.48 595,-59.33"/>
<polygon fill="#4a90d9" stroke="#4a90d9" stroke-width="2" points="597.45,-59.11 595,-52.11 592.55,-59.11 597.45,-59.11"/>
<text text-anchor="middle" x="604.5" y="-72.6" font-family="Times-Roman" font-size="8.00">calls</text>
</g>
<!-- L4YAML.Proofs.ScannerCorrectness.advance_preserves_flowLevel -->
<g id="node5" class="node">
<title>L4YAML.Proofs.ScannerCorrectness.advance_preserves_flowLevel</title>
<g id="a_node5"><a xlink:href="../../../api/L4YAML/Proofs/Scanner/ScannerCorrectness.html#L4YAML.Proofs.ScannerCorrectness.advance_preserves_flowLevel" xlink:title="ScannerCorrectness.advance_preserves_flowLevel" target="_blank">
<ellipse fill="#d4edda" stroke="#28a745" cx="237" cy="-196" rx="140.88" ry="18"/>
<text text-anchor="middle" x="237" y="-193.5" font-family="Helvetica" font-size="10.00">ScannerCorrectness.advance_preserves_flowLevel</text>
</a>
</g>
</g>
<!-- L4YAML.Proofs.ScannerCorrectness.advance_preserves_flowLevel&#45;&gt;L4YAML.Scanner.ScannerState.advance -->
<g id="edge4" class="edge">
<title>L4YAML.Proofs.ScannerCorrectness.advance_preserves_flowLevel&#45;&gt;L4YAML.Scanner.ScannerState.advance</title>
<path fill="none" stroke="#6f42c1" stroke-width="2" stroke-dasharray="5,2" d="M278.44,-178.75C300.49,-170.24 328.12,-159.78 353,-151 367.94,-145.72 384.16,-140.28 399.33,-135.3"/>
<polygon fill="#6f42c1" stroke="#6f42c1" stroke-width="2" points="400.33,-137.55 406.22,-133.05 398.81,-132.9 400.33,-137.55"/>
<text text-anchor="middle" x="365.5" y="-153.6" font-family="Times-Roman" font-size="8.00" fill="#6f42c1">about</text>
</g>
<!-- L4YAML.Proofs.ScannerCorrectness.advance_preserves_flowLevel&#45;&gt;L4YAML.Scanner.ScannerState.flowLevel -->
<g id="edge9" class="edge">
<title>L4YAML.Proofs.ScannerCorrectness.advance_preserves_flowLevel&#45;&gt;L4YAML.Scanner.ScannerState.flowLevel</title>
<path fill="none" stroke="#6f42c1" stroke-width="2" stroke-dasharray="5,2" d="M308.36,-180.46C367.15,-168.3 452.65,-150.24 527,-133 527.43,-132.9 527.85,-132.8 528.28,-132.7"/>
<polygon fill="#6f42c1" stroke="#6f42c1" stroke-width="2" points="529.07,-135.03 535.32,-131.04 527.95,-130.26 529.07,-135.03"/>
<text text-anchor="middle" x="452.5" y="-153.6" font-family="Times-Roman" font-size="8.00" fill="#6f42c1">about</text>
</g>
<!-- L4YAML.Proofs.ScannerCorrectness.advance_preserves_flowLevel&#45;&gt;L4YAML.Scanner.ScannerState -->
<g id="edge7" class="edge">
<title>L4YAML.Proofs.ScannerCorrectness.advance_preserves_flowLevel&#45;&gt;L4YAML.Scanner.ScannerState</title>
<path fill="none" stroke="#6f42c1" stroke-width="2" stroke-dasharray="5,2" d="M255.04,-177.95C279.03,-156.17 323.6,-118.69 368,-97 427.53,-67.92 502.73,-50.8 549.86,-42.16"/>
<polygon fill="#6f42c1" stroke="#6f42c1" stroke-width="2" points="550.44,-44.55 556.89,-40.9 549.57,-39.72 550.44,-44.55"/>
<text text-anchor="middle" x="380.5" y="-113.1" font-family="Times-Roman" font-size="8.00" fill="#6f42c1">about</text>
</g>
<!-- L4YAML.Proofs.ScannerCorrectness.consumeNewline_preserves_flowLevel -->
<g id="node6" class="node">
<title>L4YAML.Proofs.ScannerCorrectness.consumeNewline_preserves_flowLevel</title>
<g id="a_node6"><a xlink:href="../../../api/L4YAML/Proofs/Scanner/ScannerCorrectness.html#L4YAML.Proofs.ScannerCorrectness.consumeNewline_preserves_flowLevel" xlink:title="ScannerCorrectness.consumeNewline_preserves_flowLevel" target="_blank">
<polygon fill="#fff3cd" stroke="#d4a017" points="374.26,-293.54 374.26,-308.46 270.42,-319 123.58,-319 19.74,-308.46 19.74,-293.54 123.58,-283 270.42,-283 374.26,-293.54"/>
<polygon fill="none" stroke="#d4a017" points="378.26,-289.93 378.26,-312.07 270.63,-323 123.37,-323 15.74,-312.07 15.74,-289.93 123.37,-279 270.63,-279 378.26,-289.93"/>
<text text-anchor="middle" x="197" y="-298.5" font-family="Helvetica" font-size="10.00">ScannerCorrectness.consumeNewline_preserves_flowLevel</text>
</a>
</g>
</g>
<!-- L4YAML.Proofs.ScannerCorrectness.consumeNewline_preserves_flowLevel&#45;&gt;L4YAML.Scanner.consumeNewline -->
<g id="edge1" class="edge">
<title>L4YAML.Proofs.ScannerCorrectness.consumeNewline_preserves_flowLevel&#45;&gt;L4YAML.Scanner.consumeNewline</title>
<path fill="none" stroke="#6f42c1" stroke-width="2" stroke-dasharray="5,2" d="M274.03,-279.33C309.56,-269.36 352.16,-256.81 390,-244 414.37,-235.75 441.08,-225.51 463.18,-216.69"/>
<polygon fill="#6f42c1" stroke="#6f42c1" stroke-width="2" points="464.3,-218.88 469.89,-214.01 462.48,-214.33 464.3,-218.88"/>
<text text-anchor="middle" x="377.5" y="-254.6" font-family="Times-Roman" font-size="8.00" fill="#6f42c1">about</text>
</g>
<!-- L4YAML.Proofs.ScannerCorrectness.consumeNewline_preserves_flowLevel&#45;&gt;L4YAML.Scanner.ScannerState.flowLevel -->
<g id="edge5" class="edge">
<title>L4YAML.Proofs.ScannerCorrectness.consumeNewline_preserves_flowLevel&#45;&gt;L4YAML.Scanner.ScannerState.flowLevel</title>
<path fill="none" stroke="#6f42c1" stroke-width="2" stroke-dasharray="5,2" d="M378.18,-291.47C457.08,-284.03 537.95,-270.09 566,-244 594.48,-217.5 597.87,-169.41 596.97,-140.32"/>
<polygon fill="#6f42c1" stroke="#6f42c1" stroke-width="2" points="599.4,-139.88 596.64,-133 594.51,-140.11 599.4,-139.88"/>
<text text-anchor="middle" x="608.5" y="-194.1" font-family="Times-Roman" font-size="8.00" fill="#6f42c1">about</text>
</g>
<!-- L4YAML.Proofs.ScannerCorrectness.consumeNewline_preserves_flowLevel&#45;&gt;L4YAML.Proofs.ScannerCorrectness.advance_preserves_flowLevel -->
<g id="edge3" class="edge">
<title>L4YAML.Proofs.ScannerCorrectness.consumeNewline_preserves_flowLevel&#45;&gt;L4YAML.Proofs.ScannerCorrectness.advance_preserves_flowLevel</title>
<path fill="none" stroke="#28a745" stroke-width="2" d="M205.29,-278.66C211.83,-261.8 220.96,-238.3 227.75,-220.83"/>
<polygon fill="#28a745" stroke="#28a745" stroke-width="2" points="230.06,-221.63 230.31,-214.22 225.49,-219.86 230.06,-221.63"/>
<text text-anchor="middle" x="225" y="-254.6" font-family="Times-Roman" font-size="8.00">uses</text>
</g>
</g>
</svg>
