<?xml version="1.0" encoding="UTF-8" standalone="no"?>
<!DOCTYPE svg PUBLIC "-//W3C//DTD SVG 1.1//EN"
 "http://www.w3.org/Graphics/SVG/1.1/DTD/svg11.dtd">
<!-- Generated by graphviz version 2.44.0 (0)
 -->
<!-- Title: ScannerCorrectness.consumeNewline_preserves_flowLevel Pages: 1 -->
<svg width="1307pt" height="490pt"
 viewBox="0.00 0.00 1306.56 489.96" xmlns="http://www.w3.org/2000/svg" xmlns:xlink="http://www.w3.org/1999/xlink">
<g id="graph0" class="graph" transform="scale(1 1) rotate(0) translate(4 485.96)">
<title>ScannerCorrectness.consumeNewline_preserves_flowLevel</title>
<polygon fill="white" stroke="transparent" points="-4,4 -4,-485.96 1302.56,-485.96 1302.56,4 -4,4"/>
<text text-anchor="middle" x="649.28" y="-467.56" font-family="Helvetica Bold" font-size="13.00">ScannerCorrectness.consumeNewline_preserves_flowLevel</text>
<text text-anchor="middle" x="649.28" y="-453.56" font-family="Helvetica Bold" font-size="13.00">(heuristic: used by 8 proofs)</text>
<text text-anchor="middle" x="649.28" y="-439.56" font-family="Helvetica Bold" font-size="13.00">(L4YAML.Proofs.Scanner.ScannerCorrectness)</text>
<g id="clust1" class="cluster">
<title>cluster_functions</title>
<polygon fill="none" stroke="#4a90d9" stroke-dasharray="5,2" points="798.02,-73.96 798.02,-255.96 1290.56,-255.96 1290.56,-73.96 798.02,-73.96"/>
<text text-anchor="middle" x="1044.29" y="-241.56" font-family="Helvetica Bold" font-size="13.00" fill="#4a90d9">Functions</text>
</g>
<g id="clust2" class="cluster">
<title>cluster_key</title>
<polygon fill="none" stroke="#d4a017" stroke-dasharray="5,2" points="633.47,-263.96 633.47,-345.96 1110.56,-345.96 1110.56,-263.96 633.47,-263.96"/>
<text text-anchor="middle" x="872.02" y="-331.56" font-family="Helvetica Bold" font-size="13.00" fill="#d4a017">Key Theorem</text>
</g>
<g id="clust3" class="cluster">
<title>cluster_proofs</title>
<polygon fill="none" stroke="#28a745" stroke-dasharray="5,2" points="122.74,-39.96 122.74,-119.96 476.73,-119.96 476.73,-39.96 122.74,-39.96"/>
<text text-anchor="middle" x="299.74" y="-105.56" font-family="Helvetica Bold" font-size="13.00" fill="#28a745">Proof Dependencies</text>
</g>
<g id="clust4" class="cluster">
<title>cluster_stdlib</title>
<polygon fill="none" stroke="#e67e22" stroke-dasharray="5,2" points="8,-133.96 8,-423.96 591.47,-423.96 591.47,-133.96 8,-133.96"/>
<text text-anchor="middle" x="299.74" y="-409.56" font-family="Helvetica Bold" font-size="13.00" fill="#e67e22">Stdlib Lemmas</text>
</g>
<!-- L4YAML.Scanner.ScannerState.advance -->
<g id="node1" class="node">
<title>L4YAML.Scanner.ScannerState.advance</title>
<g id="a_node1"><a xlink:href="../../../api/L4YAML/Scanner/State.html#L4YAML.Scanner.ScannerState.advance" xlink:title="ScannerState.advance\n(def)" target="_blank">
<polygon fill="#dce9f7" stroke="#4a90d9" points="929.52,-117.96 814.52,-117.96 814.52,-81.96 929.52,-81.96 929.52,-117.96"/>
<text text-anchor="middle" x="872.02" y="-102.96" font-family="Helvetica" font-size="10.00">ScannerState.advance</text>
<text text-anchor="middle" x="872.02" y="-91.96" font-family="Helvetica" font-size="10.00">(def)</text>
</a>
</g>
</g>
<!-- L4YAML.Scanner.consumeNewline -->
<g id="node2" class="node">
<title>L4YAML.Scanner.consumeNewline</title>
<g id="a_node2"><a xlink:href="../../../api/L4YAML/Scanner/Whitespace.html#L4YAML.Scanner.consumeNewline" xlink:title="consumeNewline\n(def)" target="_blank">
<polygon fill="#dce9f7" stroke="#4a90d9" points="1269.06,-225.96 1177.06,-225.96 1177.06,-189.96 1269.06,-189.96 1269.06,-225.96"/>
<text text-anchor="middle" x="1223.06" y="-210.96" font-family="Helvetica" font-size="10.00">consumeNewline</text>
<text text-anchor="middle" x="1223.06" y="-199.96" font-family="Helvetica" font-size="10.00">(def)</text>
</a>
</g>
</g>
<!-- L4YAML.Scanner.ScannerState.flowLevel -->
<g id="node3" class="node">
<title>L4YAML.Scanner.ScannerState.flowLevel</title>
<g id="a_node3"><a xlink:href="../../../api/L4YAML/Scanner/State.html#L4YAML.Scanner.ScannerState.flowLevel" xlink:title="ScannerState.flowLevel\n(def)" target="_blank">
<polygon fill="#dce9f7" stroke="#4a90d9" points="1282.56,-171.96 1163.56,-171.96 1163.56,-135.96 1282.56,-135.96 1282.56,-171.96"/>
<text text-anchor="middle" x="1223.06" y="-156.96" font-family="Helvetica" font-size="10.00">ScannerState.flowLevel</text>
<text text-anchor="middle" x="1223.06" y="-145.96" font-family="Helvetica" font-size="10.00">(def)</text>
</a>
</g>
</g>
<!-- L4YAML.Scanner.ScannerState -->
<g id="node4" class="node">
<title>L4YAML.Scanner.ScannerState</title>
<g id="a_node4"><a xlink:href="../../../api/L4YAML/Scanner/State.html#L4YAML.Scanner.ScannerState" xlink:title="ScannerState\n(inductive)" target="_blank">
<polygon fill="#dce9f7" stroke="#4a90d9" points="1261.06,-117.96 1185.06,-117.96 1185.06,-81.96 1261.06,-81.96 1261.06,-117.96"/>
<text text-anchor="middle" x="1223.06" y="-102.96" font-family="Helvetica" font-size="10.00">ScannerState</text>
<text text-anchor="middle" x="1223.06" y="-91.96" font-family="Helvetica" font-size="10.00">(inductive)</text>
</a>
</g>
</g>
<!-- L4YAML.Scanner.consumeNewline.match_3 -->
<g id="node5" class="node">
<title>L4YAML.Scanner.consumeNewline.match_3</title>
<g id="a_node5"><a xlink:href="../../../api/L4YAML/Scanner/Whitespace.html#L4YAML.Scanner.consumeNewline.match_3" xlink:title="consumeNewline.match_3\n(def)" target="_blank">
<polygon fill="#dce9f7" stroke="#4a90d9" points="938.02,-225.96 806.02,-225.96 806.02,-189.96 938.02,-189.96 938.02,-225.96"/>
<text text-anchor="middle" x="872.02" y="-210.96" font-family="Helvetica" font-size="10.00">consumeNewline.match_3</text>
<text text-anchor="middle" x="872.02" y="-199.96" font-family="Helvetica" font-size="10.00">(def)</text>
</a>
</g>
</g>
<!-- L4YAML.Scanner.consumeNewline.match_1 -->
<g id="node6" class="node">
<title>L4YAML.Scanner.consumeNewline.match_1</title>
<g id="a_node6"><a xlink:href="../../../api/L4YAML/Scanner/Whitespace.html#L4YAML.Scanner.consumeNewline.match_1" xlink:title="consumeNewline.match_1\n(def)" target="_blank">
<polygon fill="#dce9f7" stroke="#4a90d9" points="938.02,-171.96 806.02,-171.96 806.02,-135.96 938.02,-135.96 938.02,-171.96"/>
<text text-anchor="middle" x="872.02" y="-156.96" font-family="Helvetica" font-size="10.00">consumeNewline.match_1</text>
<text text-anchor="middle" x="872.02" y="-145.96" font-family="Helvetica" font-size="10.00">(def)</text>
</a>
</g>
</g>
<!-- L4YAML.Proofs.ScannerCorrectness.consumeNewline_preserves_flowLevel -->
<g id="node7" class="node">
<title>L4YAML.Proofs.ScannerCorrectness.consumeNewline_preserves_flowLevel</title>
<g id="a_node7"><a xlink:href="../../../api/L4YAML/Proofs/Scanner/ScannerCorrectness.html#L4YAML.Proofs.ScannerCorrectness.consumeNewline_preserves_flowLevel" xlink:title="ScannerCorrectness.consumeNewline_preserves_flowLevel" target="_blank">
<polygon fill="#fff3cd" stroke="#d4a017" points="1098.6,-286.51 1098.6,-301.42 965.87,-311.96 778.16,-311.96 645.43,-301.42 645.43,-286.51 778.16,-275.96 965.87,-275.96 1098.6,-286.51"/>
<polygon fill="none" stroke="#d4a017" points="1102.6,-282.81 1102.6,-305.11 966.03,-315.96 778,-315.96 641.43,-305.11 641.43,-282.81 778,-271.96 966.03,-271.96 1102.6,-282.81"/>
<text text-anchor="middle" x="872.02" y="-290.86" font-family="Helvetica" font-size="12.00">ScannerCorrectness.consumeNewline_preserves_flowLevel</text>
</a>
</g>
</g>
<!-- L4YAML.Proofs.ScannerCorrectness.consumeNewline_preserves_flowLevel&#45;&gt;L4YAML.Scanner.consumeNewline -->
<g id="edge3" class="edge">
<title>L4YAML.Proofs.ScannerCorrectness.consumeNewline_preserves_flowLevel&#45;&gt;L4YAML.Scanner.consumeNewline</title>
<path fill="none" stroke="#4a90d9" stroke-width="2" d="M1034.45,-277.4C1060.18,-272.89 1086.3,-267.18 1110.56,-259.96 1135.79,-252.45 1162.57,-240.12 1183.56,-229.35"/>
<polygon fill="#4a90d9" stroke="#4a90d9" stroke-width="2" points="1184.8,-231.47 1189.88,-226.07 1182.54,-227.12 1184.8,-231.47"/>
<text text-anchor="middle" x="1133.06" y="-257.56" font-family="Times-Roman" font-size="8.00" fill="#4a90d9">about</text>
</g>
<!-- L4YAML.Proofs.ScannerCorrectness.consumeNewline_preserves_flowLevel&#45;&gt;L4YAML.Scanner.ScannerState.flowLevel -->
<g id="edge2" class="edge">
<title>L4YAML.Proofs.ScannerCorrectness.consumeNewline_preserves_flowLevel&#45;&gt;L4YAML.Scanner.ScannerState.flowLevel</title>
<path fill="none" stroke="#4a90d9" stroke-width="2" d="M1068.15,-280C1083.07,-274.79 1097.42,-268.22 1110.56,-259.96 1146.36,-237.47 1131.39,-208.4 1163.56,-180.96 1165.59,-179.23 1167.76,-177.58 1170.01,-176.02"/>
<polygon fill="#4a90d9" stroke="#4a90d9" stroke-width="2" points="1171.57,-177.93 1176.15,-172.1 1168.93,-173.8 1171.57,-177.93"/>
<text text-anchor="middle" x="1133.06" y="-253.56" font-family="Times-Roman" font-size="8.00" fill="#4a90d9">about</text>
</g>
<!-- L4YAML.Proofs.ScannerCorrectness.consumeNewline_preserves_flowLevel&#45;&gt;L4YAML.Scanner.ScannerState -->
<g id="edge1" class="edge">
<title>L4YAML.Proofs.ScannerCorrectness.consumeNewline_preserves_flowLevel&#45;&gt;L4YAML.Scanner.ScannerState</title>
<path fill="none" stroke="#4a90d9" stroke-width="2" d="M1076.12,-280.64C1088.42,-275.14 1100.05,-268.34 1110.56,-259.96 1120.24,-252.25 1116.03,-245.49 1120.56,-233.96 1129.94,-210.11 1145.9,-145.53 1163.56,-126.96 1167.83,-122.48 1172.98,-118.67 1178.44,-115.45"/>
<polygon fill="#4a90d9" stroke="#4a90d9" stroke-width="2" points="1179.95,-117.42 1184.96,-111.95 1177.63,-113.11 1179.95,-117.42"/>
<text text-anchor="middle" x="1133.06" y="-236.56" font-family="Times-Roman" font-size="8.00" fill="#4a90d9">about</text>
</g>
<!-- L4YAML.Proofs.ScannerCorrectness.advance_preserves_flowLevel -->
<g id="node8" class="node">
<title>L4YAML.Proofs.ScannerCorrectness.advance_preserves_flowLevel</title>
<g id="a_node8"><a xlink:href="../../../api/L4YAML/Proofs/Scanner/ScannerCorrectness.html#L4YAML.Proofs.ScannerCorrectness.advance_preserves_flowLevel" xlink:title="ScannerCorrectness.advance_preserves_flowLevel\n(Scanner.ScannerCorrectness)" target="_blank">
<ellipse fill="#d4edda" stroke="#28a745" cx="299.74" cy="-68.96" rx="169" ry="21.43"/>
<text text-anchor="middle" x="299.74" y="-71.96" font-family="Helvetica" font-size="10.00">ScannerCorrectness.advance_preserves_flowLevel</text>
<text text-anchor="middle" x="299.74" y="-60.96" font-family="Helvetica" font-size="10.00">(Scanner.ScannerCorrectness)</text>
</a>
</g>
</g>
<!-- L4YAML.Proofs.ScannerCorrectness.advance_preserves_flowLevel&#45;&gt;L4YAML.Scanner.ScannerState.advance -->
<g id="edge12" class="edge">
<title>L4YAML.Proofs.ScannerCorrectness.advance_preserves_flowLevel&#45;&gt;L4YAML.Scanner.ScannerState.advance</title>
<path fill="none" stroke="#6f42c1" stroke-width="2" stroke-dasharray="5,2" d="M455.06,-77.35C571.38,-83.68 724.77,-92.01 809,-96.59"/>
<polygon fill="#6f42c1" stroke="#6f42c1" stroke-width="2" points="809.11,-98.35 814.2,-96.87 809.3,-94.86 809.11,-98.35"/>
<text text-anchor="middle" x="612.47" y="-88.36" font-family="Times-Roman" font-size="7.00" fill="#6f42c1">about</text>
</g>
<!-- L4YAML.Proofs.ScannerCorrectness.advance_preserves_flowLevel&#45;&gt;L4YAML.Scanner.ScannerState.flowLevel -->
<g id="edge14" class="edge">
<title>L4YAML.Proofs.ScannerCorrectness.advance_preserves_flowLevel&#45;&gt;L4YAML.Scanner.ScannerState.flowLevel</title>
<path fill="none" stroke="#6f42c1" stroke-width="2" stroke-dasharray="5,2" d="M456.83,-61.14C675.55,-51.24 1053.06,-38.47 1110.56,-64.96 1143.48,-80.13 1134.66,-105.08 1163.56,-126.96 1166.5,-129.19 1169.66,-131.29 1172.93,-133.27"/>
<polygon fill="#6f42c1" stroke="#6f42c1" stroke-width="2" points="1172.23,-134.89 1177.44,-135.87 1173.98,-131.86 1172.23,-134.89"/>
<text text-anchor="middle" x="872.02" y="-67.36" font-family="Times-Roman" font-size="7.00" fill="#6f42c1">about</text>
</g>
<!-- L4YAML.Proofs.ScannerCorrectness.advance_preserves_flowLevel&#45;&gt;L4YAML.Scanner.ScannerState -->
<g id="edge13" class="edge">
<title>L4YAML.Proofs.ScannerCorrectness.advance_preserves_flowLevel&#45;&gt;L4YAML.Scanner.ScannerState</title>
<path fill="none" stroke="#6f42c1" stroke-width="2" stroke-dasharray="5,2" d="M382.63,-50.45C530.12,-20.24 849.35,30.91 1110.56,-25.96 1145.82,-33.64 1179.34,-59.25 1200.25,-78.2"/>
<polygon fill="#6f42c1" stroke="#6f42c1" stroke-width="2" points="1199.14,-79.55 1204.01,-81.65 1201.51,-76.98 1199.14,-79.55"/>
<text text-anchor="middle" x="872.02" y="-28.36" font-family="Times-Roman" font-size="7.00" fill="#6f42c1">about</text>
</g>
<!-- L4YAML.Proofs.ScannerCorrectness.advance_preserves_flowLevel&#45;&gt;L4YAML.Proofs.ScannerCorrectness.consumeNewline_preserves_flowLevel -->
<g id="edge4" class="edge">
<title>L4YAML.Proofs.ScannerCorrectness.advance_preserves_flowLevel&#45;&gt;L4YAML.Proofs.ScannerCorrectness.consumeNewline_preserves_flowLevel</title>
<path fill="none" stroke="#28a745" d="M465.85,-64.84C525.34,-72.66 586.79,-93.54 623.47,-141.96 639.36,-162.94 615.41,-240.83 633.47,-259.96 639.73,-266.59 646.65,-272.33 654.07,-277.29"/>
<polygon fill="#28a745" stroke="#28a745" points="653.2,-279.64 660.43,-281.28 655.8,-275.48 653.2,-279.64"/>
</g>
<!-- _private.L4YAML.Proofs.Scanner.ScannerCorrectness.0.L4YAML.Scanner.consumeNewline.match_3.eq_2 -->
<g id="node9" class="node">
<title>_private.L4YAML.Proofs.Scanner.ScannerCorrectness.0.L4YAML.Scanner.consumeNewline.match_3.eq_2</title>
<g id="a_node9"><a xlink:href="../../../api/L4YAML/Proofs/Scanner/ScannerCorrectness.html#_private.L4YAML.Proofs.Scanner.ScannerCorrectness.0.L4YAML.Scanner.consumeNewline.match_3.eq_2" xlink:title="_private.L4YAML.Proofs.Scanner.ScannerCorrectness.0.L4YAML.Scanner.consumeNewline.match_3.eq_2" target="_blank">
<ellipse fill="#fdebd0" stroke="#e67e22" cx="299.74" cy="-375.96" rx="283.97" ry="18"/>
<text text-anchor="middle" x="299.74" y="-373.46" font-family="Helvetica" font-size="10.00">_private.L4YAML.Proofs.Scanner.ScannerCorrectness.0.L4YAML.Scanner.consumeNewline.match_3.eq_2</text>
</a>
</g>
</g>
<!-- _private.L4YAML.Proofs.Scanner.ScannerCorrectness.0.L4YAML.Scanner.consumeNewline.match_3.eq_2&#45;&gt;L4YAML.Scanner.consumeNewline.match_3 -->
<g id="edge16" class="edge">
<title>_private.L4YAML.Proofs.Scanner.ScannerCorrectness.0.L4YAML.Scanner.consumeNewline.match_3.eq_2&#45;&gt;L4YAML.Scanner.consumeNewline.match_3</title>
<path fill="none" stroke="#6f42c1" stroke-width="2" stroke-dasharray="5,2" d="M551.7,-367.55C565.58,-362.56 578.95,-356.43 591.47,-348.96 613.49,-335.83 613.17,-324.44 623.47,-300.96 631.01,-283.79 620.05,-273.07 633.47,-259.96 677.36,-217.1 747.96,-206.14 800.81,-204.68"/>
<polygon fill="#6f42c1" stroke="#6f42c1" stroke-width="2" points="800.91,-206.43 805.87,-204.57 800.83,-202.93 800.91,-206.43"/>
<text text-anchor="middle" x="612.47" y="-343.36" font-family="Times-Roman" font-size="7.00" fill="#6f42c1">about</text>
</g>
<!-- _private.L4YAML.Proofs.Scanner.ScannerCorrectness.0.L4YAML.Scanner.consumeNewline.match_3.eq_2&#45;&gt;L4YAML.Proofs.ScannerCorrectness.consumeNewline_preserves_flowLevel -->
<g id="edge5" class="edge">
<title>_private.L4YAML.Proofs.Scanner.ScannerCorrectness.0.L4YAML.Scanner.consumeNewline.match_3.eq_2&#45;&gt;L4YAML.Proofs.ScannerCorrectness.consumeNewline_preserves_flowLevel</title>
<path fill="none" stroke="#e67e22" stroke-width="2" d="M519.83,-387.33C554.66,-386.26 590.16,-383.46 623.47,-377.96 691.39,-366.75 765.74,-339.34 815.04,-318.85"/>
<polygon fill="#e67e22" stroke="#e67e22" stroke-width="2" points="816.02,-321.1 821.53,-316.14 814.13,-316.58 816.02,-321.1"/>
</g>
<!-- _private.L4YAML.Proofs.Scanner.ScannerCorrectness.0.L4YAML.Scanner.consumeNewline.match_3.eq_1 -->
<g id="node10" class="node">
<title>_private.L4YAML.Proofs.Scanner.ScannerCorrectness.0.L4YAML.Scanner.consumeNewline.match_3.eq_1</title>
<g id="a_node10"><a xlink:href="../../../api/L4YAML/Proofs/Scanner/ScannerCorrectness.html#_private.L4YAML.Proofs.Scanner.ScannerCorrectness.0.L4YAML.Scanner.consumeNewline.match_3.eq_1" xlink:title="_private.L4YAML.Proofs.Scanner.ScannerCorrectness.0.L4YAML.Scanner.consumeNewline.match_3.eq_1" target="_blank">
<ellipse fill="#fdebd0" stroke="#e67e22" cx="299.74" cy="-321.96" rx="283.97" ry="18"/>
<text text-anchor="middle" x="299.74" y="-319.46" font-family="Helvetica" font-size="10.00">_private.L4YAML.Proofs.Scanner.ScannerCorrectness.0.L4YAML.Scanner.consumeNewline.match_3.eq_1</text>
</a>
</g>
</g>
<!-- _private.L4YAML.Proofs.Scanner.ScannerCorrectness.0.L4YAML.Scanner.consumeNewline.match_3.eq_1&#45;&gt;L4YAML.Scanner.consumeNewline.match_3 -->
<g id="edge15" class="edge">
<title>_private.L4YAML.Proofs.Scanner.ScannerCorrectness.0.L4YAML.Scanner.consumeNewline.match_3.eq_1&#45;&gt;L4YAML.Scanner.consumeNewline.match_3</title>
<path fill="none" stroke="#6f42c1" stroke-width="2" stroke-dasharray="5,2" d="M537.74,-312.11C556.26,-307.68 574.38,-302.06 591.47,-294.96 613.91,-285.64 611.65,-270.64 633.47,-259.96 686.35,-234.08 752.12,-220.97 801.03,-214.39"/>
<polygon fill="#6f42c1" stroke="#6f42c1" stroke-width="2" points="801.28,-216.12 806.01,-213.74 800.82,-212.65 801.28,-216.12"/>
<text text-anchor="middle" x="612.47" y="-291.36" font-family="Times-Roman" font-size="7.00" fill="#6f42c1">about</text>
</g>
<!-- _private.L4YAML.Proofs.Scanner.ScannerCorrectness.0.L4YAML.Scanner.consumeNewline.match_3.eq_1&#45;&gt;L4YAML.Proofs.ScannerCorrectness.consumeNewline_preserves_flowLevel -->
<g id="edge6" class="edge">
<title>_private.L4YAML.Proofs.Scanner.ScannerCorrectness.0.L4YAML.Scanner.consumeNewline.match_3.eq_1&#45;&gt;L4YAML.Proofs.ScannerCorrectness.consumeNewline_preserves_flowLevel</title>
<path fill="none" stroke="#e67e22" stroke-width="2" d="M581.98,-323.84C596.01,-323.35 609.91,-322.73 623.47,-321.96 656.63,-320.09 692.17,-316.83 725.68,-313.17"/>
<polygon fill="#e67e22" stroke="#e67e22" stroke-width="2" points="726.1,-315.59 732.79,-312.38 725.57,-310.72 726.1,-315.59"/>
</g>
<!-- _private.L4YAML.Proofs.Scanner.ScannerCorrectness.0.L4YAML.Scanner.consumeNewline.match_1.eq_2 -->
<g id="node11" class="node">
<title>_private.L4YAML.Proofs.Scanner.ScannerCorrectness.0.L4YAML.Scanner.consumeNewline.match_1.eq_2</title>
<g id="a_node11"><a xlink:href="../../../api/L4YAML/Proofs/Scanner/ScannerCorrectness.html#_private.L4YAML.Proofs.Scanner.ScannerCorrectness.0.L4YAML.Scanner.consumeNewline.match_1.eq_2" xlink:title="_private.L4YAML.Proofs.Scanner.ScannerCorrectness.0.L4YAML.Scanner.consumeNewline.match_1.eq_2" target="_blank">
<ellipse fill="#fdebd0" stroke="#e67e22" cx="299.74" cy="-159.96" rx="283.97" ry="18"/>
<text text-anchor="middle" x="299.74" y="-157.46" font-family="Helvetica" font-size="10.00">_private.L4YAML.Proofs.Scanner.ScannerCorrectness.0.L4YAML.Scanner.consumeNewline.match_1.eq_2</text>
</a>
</g>
</g>
<!-- _private.L4YAML.Proofs.Scanner.ScannerCorrectness.0.L4YAML.Scanner.consumeNewline.match_1.eq_2&#45;&gt;L4YAML.Scanner.consumeNewline.match_1 -->
<g id="edge11" class="edge">
<title>_private.L4YAML.Proofs.Scanner.ScannerCorrectness.0.L4YAML.Scanner.consumeNewline.match_1.eq_2&#45;&gt;L4YAML.Scanner.consumeNewline.match_1</title>
<path fill="none" stroke="#6f42c1" stroke-width="2" stroke-dasharray="5,2" d="M513.35,-148.11C550.07,-147.01 587.87,-146.46 623.47,-146.96 683.32,-147.81 751.28,-149.81 800.84,-151.45"/>
<polygon fill="#6f42c1" stroke="#6f42c1" stroke-width="2" points="800.82,-153.2 805.88,-151.62 800.94,-149.7 800.82,-153.2"/>
<text text-anchor="middle" x="612.47" y="-149.36" font-family="Times-Roman" font-size="7.00" fill="#6f42c1">about</text>
</g>
<!-- _private.L4YAML.Proofs.Scanner.ScannerCorrectness.0.L4YAML.Scanner.consumeNewline.match_1.eq_2&#45;&gt;L4YAML.Proofs.ScannerCorrectness.consumeNewline_preserves_flowLevel -->
<g id="edge7" class="edge">
<title>_private.L4YAML.Proofs.Scanner.ScannerCorrectness.0.L4YAML.Scanner.consumeNewline.match_1.eq_2&#45;&gt;L4YAML.Proofs.ScannerCorrectness.consumeNewline_preserves_flowLevel</title>
<path fill="none" stroke="#e67e22" stroke-width="2" d="M367.53,-142.44C440.41,-127.73 555.72,-118.13 623.47,-181.96 648.91,-205.93 608.94,-235.07 633.47,-259.96 640.11,-266.7 647.44,-272.51 655.29,-277.51"/>
<polygon fill="#e67e22" stroke="#e67e22" stroke-width="2" points="654.13,-279.67 661.39,-281.17 656.65,-275.47 654.13,-279.67"/>
</g>
<!-- _private.L4YAML.Proofs.Scanner.ScannerCorrectness.0.L4YAML.Scanner.consumeNewline.match_3.eq_3 -->
<g id="node12" class="node">
<title>_private.L4YAML.Proofs.Scanner.ScannerCorrectness.0.L4YAML.Scanner.consumeNewline.match_3.eq_3</title>
<g id="a_node12"><a xlink:href="../../../api/L4YAML/Proofs/Scanner/ScannerCorrectness.html#_private.L4YAML.Proofs.Scanner.ScannerCorrectness.0.L4YAML.Scanner.consumeNewline.match_3.eq_3" xlink:title="_private.L4YAML.Proofs.Scanner.ScannerCorrectness.0.L4YAML.Scanner.consumeNewline.match_3.eq_3" target="_blank">
<ellipse fill="#fdebd0" stroke="#e67e22" cx="299.74" cy="-267.96" rx="283.97" ry="18"/>
<text text-anchor="middle" x="299.74" y="-265.46" font-family="Helvetica" font-size="10.00">_private.L4YAML.Proofs.Scanner.ScannerCorrectness.0.L4YAML.Scanner.consumeNewline.match_3.eq_3</text>
</a>
</g>
</g>
<!-- _private.L4YAML.Proofs.Scanner.ScannerCorrectness.0.L4YAML.Scanner.consumeNewline.match_3.eq_3&#45;&gt;L4YAML.Scanner.consumeNewline.match_3 -->
<g id="edge17" class="edge">
<title>_private.L4YAML.Proofs.Scanner.ScannerCorrectness.0.L4YAML.Scanner.consumeNewline.match_3.eq_3&#45;&gt;L4YAML.Scanner.consumeNewline.match_3</title>
<path fill="none" stroke="#6f42c1" stroke-width="2" stroke-dasharray="5,2" d="M465.71,-253.36C506.81,-249.53 550.76,-245.26 591.47,-240.96 662.82,-233.44 744.28,-223.69 800.78,-216.75"/>
<polygon fill="#6f42c1" stroke="#6f42c1" stroke-width="2" points="801.08,-218.47 805.83,-216.12 800.65,-215 801.08,-218.47"/>
<text text-anchor="middle" x="612.47" y="-241.36" font-family="Times-Roman" font-size="7.00" fill="#6f42c1">about</text>
</g>
<!-- _private.L4YAML.Proofs.Scanner.ScannerCorrectness.0.L4YAML.Scanner.consumeNewline.match_3.eq_3&#45;&gt;L4YAML.Proofs.ScannerCorrectness.consumeNewline_preserves_flowLevel -->
<g id="edge8" class="edge">
<title>_private.L4YAML.Proofs.Scanner.ScannerCorrectness.0.L4YAML.Scanner.consumeNewline.match_3.eq_3&#45;&gt;L4YAML.Proofs.ScannerCorrectness.consumeNewline_preserves_flowLevel</title>
<path fill="none" stroke="#e67e22" stroke-width="2" d="M530.64,-278.44C564.71,-280 599.88,-281.6 634.1,-283.16"/>
<polygon fill="#e67e22" stroke="#e67e22" stroke-width="2" points="634.28,-285.62 641.38,-283.49 634.5,-280.73 634.28,-285.62"/>
</g>
<!-- _private.L4YAML.Proofs.Scanner.ScannerCorrectness.0.L4YAML.Scanner.consumeNewline.match_1.eq_1 -->
<g id="node13" class="node">
<title>_private.L4YAML.Proofs.Scanner.ScannerCorrectness.0.L4YAML.Scanner.consumeNewline.match_1.eq_1</title>
<g id="a_node13"><a xlink:href="../../../api/L4YAML/Proofs/Scanner/ScannerCorrectness.html#_private.L4YAML.Proofs.Scanner.ScannerCorrectness.0.L4YAML.Scanner.consumeNewline.match_1.eq_1" xlink:title="_private.L4YAML.Proofs.Scanner.ScannerCorrectness.0.L4YAML.Scanner.consumeNewline.match_1.eq_1" target="_blank">
<ellipse fill="#fdebd0" stroke="#e67e22" cx="299.74" cy="-213.96" rx="283.97" ry="18"/>
<text text-anchor="middle" x="299.74" y="-211.46" font-family="Helvetica" font-size="10.00">_private.L4YAML.Proofs.Scanner.ScannerCorrectness.0.L4YAML.Scanner.consumeNewline.match_1.eq_1</text>
</a>
</g>
</g>
<!-- _private.L4YAML.Proofs.Scanner.ScannerCorrectness.0.L4YAML.Scanner.consumeNewline.match_1.eq_1&#45;&gt;L4YAML.Scanner.consumeNewline.match_1 -->
<g id="edge10" class="edge">
<title>_private.L4YAML.Proofs.Scanner.ScannerCorrectness.0.L4YAML.Scanner.consumeNewline.match_1.eq_1&#45;&gt;L4YAML.Scanner.consumeNewline.match_1</title>
<path fill="none" stroke="#6f42c1" stroke-width="2" stroke-dasharray="5,2" d="M470.76,-199.59C510.42,-195.85 552.45,-191.56 591.47,-186.96 610.2,-184.76 614.77,-183.36 633.47,-180.96 689.68,-173.76 753.49,-166.56 800.82,-161.41"/>
<polygon fill="#6f42c1" stroke="#6f42c1" stroke-width="2" points="801.14,-163.13 805.92,-160.85 800.76,-159.65 801.14,-163.13"/>
<text text-anchor="middle" x="612.47" y="-187.36" font-family="Times-Roman" font-size="7.00" fill="#6f42c1">about</text>
</g>
<!-- _private.L4YAML.Proofs.Scanner.ScannerCorrectness.0.L4YAML.Scanner.consumeNewline.match_1.eq_1&#45;&gt;L4YAML.Proofs.ScannerCorrectness.consumeNewline_preserves_flowLevel -->
<g id="edge9" class="edge">
<title>_private.L4YAML.Proofs.Scanner.ScannerCorrectness.0.L4YAML.Scanner.consumeNewline.match_1.eq_1&#45;&gt;L4YAML.Proofs.ScannerCorrectness.consumeNewline_preserves_flowLevel</title>
<path fill="none" stroke="#e67e22" stroke-width="2" d="M395.35,-196.99C464.6,-189.89 557.58,-191.99 623.47,-237.96 632.28,-244.11 624.88,-253.52 633.47,-259.96 642.72,-266.89 652.75,-272.72 663.29,-277.61"/>
<polygon fill="#e67e22" stroke="#e67e22" stroke-width="2" points="662.52,-279.94 669.92,-280.53 664.5,-275.46 662.52,-279.94"/>
</g>
</g>
</svg>
