<?xml version="1.0" encoding="UTF-8" standalone="no"?>
<!DOCTYPE svg PUBLIC "-//W3C//DTD SVG 1.1//EN"
 "http://www.w3.org/Graphics/SVG/1.1/DTD/svg11.dtd">
<!-- Generated by graphviz version 2.44.0 (0)
 -->
<!-- Title: chain_ScannerCorrectness.emitAt_preserves_flowLevel Pages: 1 -->
<svg width="459pt" height="98pt"
 viewBox="0.00 0.00 459.00 97.92" xmlns="http://www.w3.org/2000/svg" xmlns:xlink="http://www.w3.org/1999/xlink">
<g id="graph0" class="graph" transform="scale(1 1) rotate(0) translate(4 93.92)">
<title>chain_ScannerCorrectness.emitAt_preserves_flowLevel</title>
<polygon fill="white" stroke="transparent" points="-4,4 -4,-93.92 455,-93.92 455,4 -4,4"/>
<text text-anchor="middle" x="225.5" y="-75.52" font-family="Helvetica Bold" font-size="13.00">Functorial Chains: ScannerCorrectness.emitAt_preserves_flowLevel</text>
<text text-anchor="middle" x="225.5" y="-61.52" font-family="Helvetica Bold" font-size="13.00">(heuristic: used by 13 proofs)</text>
<!-- L4YAML.Proofs.ScannerCorrectness.emitAt_preserves_flowLevel -->
<g id="node1" class="node">
<title>L4YAML.Proofs.ScannerCorrectness.emitAt_preserves_flowLevel</title>
<polygon fill="#fff3cd" stroke="black" points="402.1,-17.46 402.1,-36.46 298.65,-49.89 152.35,-49.89 48.9,-36.46 48.9,-17.46 152.35,-4.03 298.65,-4.03 402.1,-17.46"/>
<polygon fill="none" stroke="black" points="406.1,-13.95 406.1,-39.97 298.91,-53.88 152.09,-53.88 44.9,-39.97 44.9,-13.95 152.09,-0.04 298.91,-0.04 406.1,-13.95"/>
<text text-anchor="middle" x="225.5" y="-29.96" font-family="Helvetica" font-size="10.00">ScannerCorrectness.emitAt_preserves_flowLevel</text>
<text text-anchor="middle" x="225.5" y="-18.96" font-family="Helvetica" font-size="10.00">(no functorial chains found)</text>
</g>
</g>
</svg>
