<?xml version="1.0" encoding="UTF-8" standalone="no"?>
<!DOCTYPE svg PUBLIC "-//W3C//DTD SVG 1.1//EN"
 "http://www.w3.org/Graphics/SVG/1.1/DTD/svg11.dtd">
<!-- Generated by graphviz version 2.44.0 (0)
 -->
<!-- Title: ScannerCorrectness.emitAt_preserves_simpleKey Pages: 1 -->
<svg width="611pt" height="418pt"
 viewBox="0.00 0.00 611.46 418.00" xmlns="http://www.w3.org/2000/svg" xmlns:xlink="http://www.w3.org/1999/xlink">
<g id="graph0" class="graph" transform="scale(1 1) rotate(0) translate(4 414)">
<title>ScannerCorrectness.emitAt_preserves_simpleKey</title>
<polygon fill="white" stroke="transparent" points="-4,4 -4,-414 607.46,-414 607.46,4 -4,4"/>
<text text-anchor="middle" x="301.73" y="-395.6" font-family="Helvetica Bold" font-size="13.00">ScannerCorrectness.emitAt_preserves_simpleKey</text>
<text text-anchor="middle" x="301.73" y="-381.6" font-family="Helvetica Bold" font-size="13.00">(heuristic: used by 8 proofs)</text>
<text text-anchor="middle" x="301.73" y="-367.6" font-family="Helvetica Bold" font-size="13.00">(L4YAML.Proofs.Scanner.ScannerCorrectness)</text>
<g id="clust1" class="cluster">
<title>cluster_functions</title>
<polygon fill="none" stroke="#4a90d9" stroke-dasharray="5,2" points="455.46,-8 455.46,-352 595.46,-352 595.46,-8 455.46,-8"/>
<text text-anchor="middle" x="525.46" y="-337.6" font-family="Helvetica Bold" font-size="13.00" fill="#4a90d9">Functions</text>
</g>
<g id="clust2" class="cluster">
<title>cluster_key</title>
<polygon fill="none" stroke="#d4a017" stroke-dasharray="5,2" points="8,-138 8,-220 410.46,-220 410.46,-138 8,-138"/>
<text text-anchor="middle" x="209.23" y="-205.6" font-family="Helvetica Bold" font-size="13.00" fill="#d4a017">Key Theorem</text>
</g>
<!-- L4YAML.Scanner.ScannerState.simpleKey -->
<g id="node1" class="node">
<title>L4YAML.Scanner.ScannerState.simpleKey</title>
<g id="a_node1"><a xlink:href="../../../api/L4YAML/Scanner/State.html#L4YAML.Scanner.ScannerState.simpleKey" xlink:title="ScannerState.simpleKey\n(def)" target="_blank">
<polygon fill="#dce9f7" stroke="#4a90d9" points="587.46,-322 463.46,-322 463.46,-286 587.46,-286 587.46,-322"/>
<text text-anchor="middle" x="525.46" y="-307" font-family="Helvetica" font-size="10.00">ScannerState.simpleKey</text>
<text text-anchor="middle" x="525.46" y="-296" font-family="Helvetica" font-size="10.00">(def)</text>
</a>
</g>
</g>
<!-- L4YAML.Scanner.ScannerState -->
<g id="node2" class="node">
<title>L4YAML.Scanner.ScannerState</title>
<g id="a_node2"><a xlink:href="../../../api/L4YAML/Scanner/State.html#L4YAML.Scanner.ScannerState" xlink:title="ScannerState\n(inductive)" target="_blank">
<polygon fill="#dce9f7" stroke="#4a90d9" points="563.46,-268 487.46,-268 487.46,-232 563.46,-232 563.46,-268"/>
<text text-anchor="middle" x="525.46" y="-253" font-family="Helvetica" font-size="10.00">ScannerState</text>
<text text-anchor="middle" x="525.46" y="-242" font-family="Helvetica" font-size="10.00">(inductive)</text>
</a>
</g>
</g>
<!-- L4YAML.YamlToken -->
<g id="node3" class="node">
<title>L4YAML.YamlToken</title>
<g id="a_node3"><a xlink:href="../../../api/L4YAML/Token/Token.html#L4YAML.YamlToken" xlink:title="YamlToken\n(inductive)" target="_blank">
<polygon fill="#dce9f7" stroke="#4a90d9" points="557.46,-214 493.46,-214 493.46,-178 557.46,-178 557.46,-214"/>
<text text-anchor="middle" x="525.46" y="-199" font-family="Helvetica" font-size="10.00">YamlToken</text>
<text text-anchor="middle" x="525.46" y="-188" font-family="Helvetica" font-size="10.00">(inductive)</text>
</a>
</g>
</g>
<!-- L4YAML.YamlPos -->
<g id="node4" class="node">
<title>L4YAML.YamlPos</title>
<g id="a_node4"><a xlink:href="../../../api/L4YAML/Spec/Types.html#L4YAML.YamlPos" xlink:title="YamlPos\n(inductive)" target="_blank">
<polygon fill="#dce9f7" stroke="#4a90d9" points="556.46,-160 494.46,-160 494.46,-124 556.46,-124 556.46,-160"/>
<text text-anchor="middle" x="525.46" y="-145" font-family="Helvetica" font-size="10.00">YamlPos</text>
<text text-anchor="middle" x="525.46" y="-134" font-family="Helvetica" font-size="10.00">(inductive)</text>
</a>
</g>
</g>
<!-- L4YAML.Scanner.ScannerState.emitAt -->
<g id="node5" class="node">
<title>L4YAML.Scanner.ScannerState.emitAt</title>
<g id="a_node5"><a xlink:href="../../../api/L4YAML/Scanner/State.html#L4YAML.Scanner.ScannerState.emitAt" xlink:title="ScannerState.emitAt\n(def)" target="_blank">
<polygon fill="#dce9f7" stroke="#4a90d9" points="578.96,-106 471.96,-106 471.96,-70 578.96,-70 578.96,-106"/>
<text text-anchor="middle" x="525.46" y="-91" font-family="Helvetica" font-size="10.00">ScannerState.emitAt</text>
<text text-anchor="middle" x="525.46" y="-80" font-family="Helvetica" font-size="10.00">(def)</text>
</a>
</g>
</g>
<!-- L4YAML.Scanner.SimpleKeyState -->
<g id="node6" class="node">
<title>L4YAML.Scanner.SimpleKeyState</title>
<g id="a_node6"><a xlink:href="../../../api/L4YAML/Scanner/State.html#L4YAML.Scanner.SimpleKeyState" xlink:title="SimpleKeyState\n(inductive)" target="_blank">
<polygon fill="#dce9f7" stroke="#4a90d9" points="568.46,-52 482.46,-52 482.46,-16 568.46,-16 568.46,-52"/>
<text text-anchor="middle" x="525.46" y="-37" font-family="Helvetica" font-size="10.00">SimpleKeyState</text>
<text text-anchor="middle" x="525.46" y="-26" font-family="Helvetica" font-size="10.00">(inductive)</text>
</a>
</g>
</g>
<!-- L4YAML.Proofs.ScannerCorrectness.emitAt_preserves_simpleKey -->
<g id="node7" class="node">
<title>L4YAML.Proofs.ScannerCorrectness.emitAt_preserves_simpleKey</title>
<g id="a_node7"><a xlink:href="../../../api/L4YAML/Proofs/Scanner/ScannerCorrectness.html#L4YAML.Proofs.ScannerCorrectness.emitAt_preserves_simpleKey" xlink:title="ScannerCorrectness.emitAt_preserves_simpleKey" target="_blank">
<polygon fill="#fff3cd" stroke="#d4a017" points="398.69,-160.54 398.69,-175.46 287.71,-186 130.76,-186 19.77,-175.46 19.77,-160.54 130.76,-150 287.71,-150 398.69,-160.54"/>
<polygon fill="none" stroke="#d4a017" points="402.69,-156.91 402.69,-179.09 287.9,-190 130.57,-190 15.77,-179.09 15.77,-156.91 130.57,-146 287.9,-146 402.69,-156.91"/>
<text text-anchor="middle" x="209.23" y="-164.9" font-family="Helvetica" font-size="12.00">ScannerCorrectness.emitAt_preserves_simpleKey</text>
</a>
</g>
</g>
<!-- L4YAML.Proofs.ScannerCorrectness.emitAt_preserves_simpleKey&#45;&gt;L4YAML.Scanner.ScannerState.simpleKey -->
<g id="edge5" class="edge">
<title>L4YAML.Proofs.ScannerCorrectness.emitAt_preserves_simpleKey&#45;&gt;L4YAML.Scanner.ScannerState.simpleKey</title>
<path fill="none" stroke="#4a90d9" stroke-width="2" d="M258.34,-190.16C307.59,-212.65 386.46,-248.18 455.46,-277 460.47,-279.09 465.7,-281.23 470.95,-283.33"/>
<polygon fill="#4a90d9" stroke="#4a90d9" stroke-width="2" points="470.17,-285.66 477.58,-285.98 471.99,-281.11 470.17,-285.66"/>
<text text-anchor="middle" x="432.96" y="-273.6" font-family="Times-Roman" font-size="8.00" fill="#4a90d9">about</text>
</g>
<!-- L4YAML.Proofs.ScannerCorrectness.emitAt_preserves_simpleKey&#45;&gt;L4YAML.Scanner.ScannerState -->
<g id="edge3" class="edge">
<title>L4YAML.Proofs.ScannerCorrectness.emitAt_preserves_simpleKey&#45;&gt;L4YAML.Scanner.ScannerState</title>
<path fill="none" stroke="#4a90d9" stroke-width="2" d="M292.79,-189.54C352.93,-205.24 432.04,-225.88 480.52,-238.53"/>
<polygon fill="#4a90d9" stroke="#4a90d9" stroke-width="2" points="480.06,-240.94 487.45,-240.34 481.29,-236.2 480.06,-240.94"/>
<text text-anchor="middle" x="432.96" y="-230.6" font-family="Times-Roman" font-size="8.00" fill="#4a90d9">about</text>
</g>
<!-- L4YAML.Proofs.ScannerCorrectness.emitAt_preserves_simpleKey&#45;&gt;L4YAML.YamlToken -->
<g id="edge2" class="edge">
<title>L4YAML.Proofs.ScannerCorrectness.emitAt_preserves_simpleKey&#45;&gt;L4YAML.YamlToken</title>
<path fill="none" stroke="#4a90d9" stroke-width="2" d="M370.11,-182.25C413.44,-186.11 456.49,-189.94 486.07,-192.58"/>
<polygon fill="#4a90d9" stroke="#4a90d9" stroke-width="2" points="486.1,-195.04 493.29,-193.22 486.53,-190.16 486.1,-195.04"/>
<text text-anchor="middle" x="432.96" y="-190.6" font-family="Times-Roman" font-size="8.00" fill="#4a90d9">about</text>
</g>
<!-- L4YAML.Proofs.ScannerCorrectness.emitAt_preserves_simpleKey&#45;&gt;L4YAML.YamlPos -->
<g id="edge1" class="edge">
<title>L4YAML.Proofs.ScannerCorrectness.emitAt_preserves_simpleKey&#45;&gt;L4YAML.YamlPos</title>
<path fill="none" stroke="#4a90d9" stroke-width="2" d="M375.63,-154.31C417.57,-150.84 458.72,-147.44 487.08,-145.09"/>
<polygon fill="#4a90d9" stroke="#4a90d9" stroke-width="2" points="487.6,-147.51 494.37,-144.49 487.19,-142.63 487.6,-147.51"/>
<text text-anchor="middle" x="432.96" y="-152.6" font-family="Times-Roman" font-size="8.00" fill="#4a90d9">about</text>
</g>
<!-- L4YAML.Proofs.ScannerCorrectness.emitAt_preserves_simpleKey&#45;&gt;L4YAML.Scanner.ScannerState.emitAt -->
<g id="edge6" class="edge">
<title>L4YAML.Proofs.ScannerCorrectness.emitAt_preserves_simpleKey&#45;&gt;L4YAML.Scanner.ScannerState.emitAt</title>
<path fill="none" stroke="#4a90d9" stroke-width="2" d="M294.44,-146.56C348.15,-132.89 416.48,-115.49 464.66,-103.23"/>
<polygon fill="#4a90d9" stroke="#4a90d9" stroke-width="2" points="465.44,-105.56 471.62,-101.45 464.23,-100.81 465.44,-105.56"/>
<text text-anchor="middle" x="432.96" y="-115.6" font-family="Times-Roman" font-size="8.00" fill="#4a90d9">about</text>
</g>
<!-- L4YAML.Proofs.ScannerCorrectness.emitAt_preserves_simpleKey&#45;&gt;L4YAML.Scanner.SimpleKeyState -->
<g id="edge4" class="edge">
<title>L4YAML.Proofs.ScannerCorrectness.emitAt_preserves_simpleKey&#45;&gt;L4YAML.Scanner.SimpleKeyState</title>
<path fill="none" stroke="#4a90d9" stroke-width="2" d="M259.31,-145.92C308.65,-123.89 387,-89.32 455.46,-61 461.97,-58.31 468.85,-55.53 475.65,-52.83"/>
<polygon fill="#4a90d9" stroke="#4a90d9" stroke-width="2" points="476.79,-55.02 482.4,-50.16 474.99,-50.46 476.79,-55.02"/>
<text text-anchor="middle" x="432.96" y="-77.6" font-family="Times-Roman" font-size="8.00" fill="#4a90d9">about</text>
</g>
</g>
</svg>
