<?xml version="1.0" encoding="UTF-8" standalone="no"?>
<!DOCTYPE svg PUBLIC "-//W3C//DTD SVG 1.1//EN"
 "http://www.w3.org/Graphics/SVG/1.1/DTD/svg11.dtd">
<!-- Generated by graphviz version 2.44.0 (0)
 -->
<!-- Title: chain_ScannerCorrectness.field_update_preserves_ScanInv Pages: 1 -->
<svg width="490pt" height="98pt"
 viewBox="0.00 0.00 490.00 97.92" xmlns="http://www.w3.org/2000/svg" xmlns:xlink="http://www.w3.org/1999/xlink">
<g id="graph0" class="graph" transform="scale(1 1) rotate(0) translate(4 93.92)">
<title>chain_ScannerCorrectness.field_update_preserves_ScanInv</title>
<polygon fill="white" stroke="transparent" points="-4,4 -4,-93.92 486,-93.92 486,4 -4,4"/>
<text text-anchor="middle" x="241" y="-75.52" font-family="Helvetica Bold" font-size="13.00">Functorial Chains: ScannerCorrectness.field_update_preserves_ScanInv</text>
<text text-anchor="middle" x="241" y="-61.52" font-family="Helvetica Bold" font-size="13.00">(heuristic: used by 30 proofs)</text>
<!-- L4YAML.Proofs.ScannerCorrectness.field_update_preserves_ScanInv -->
<g id="node1" class="node">
<title>L4YAML.Proofs.ScannerCorrectness.field_update_preserves_ScanInv</title>
<polygon fill="#fff3cd" stroke="black" points="433.21,-17.46 433.21,-36.46 320.62,-49.89 161.38,-49.89 48.79,-36.46 48.79,-17.46 161.38,-4.03 320.62,-4.03 433.21,-17.46"/>
<polygon fill="none" stroke="black" points="437.21,-13.92 437.21,-40 320.86,-53.88 161.14,-53.88 44.79,-40 44.79,-13.92 161.14,-0.04 320.86,-0.04 437.21,-13.92"/>
<text text-anchor="middle" x="241" y="-29.96" font-family="Helvetica" font-size="10.00">ScannerCorrectness.field_update_preserves_ScanInv</text>
<text text-anchor="middle" x="241" y="-18.96" font-family="Helvetica" font-size="10.00">(no functorial chains found)</text>
</g>
</g>
</svg>
