<?xml version="1.0" encoding="UTF-8" standalone="no"?>
<!DOCTYPE svg PUBLIC "-//W3C//DTD SVG 1.1//EN"
 "http://www.w3.org/Graphics/SVG/1.1/DTD/svg11.dtd">
<!-- Generated by graphviz version 2.44.0 (0)
 -->
<!-- Title: chain_ScannerCorrectness.scanFlowSequenceStart_adds_one_token Pages: 1 -->
<svg width="741pt" height="405pt"
 viewBox="0.00 0.00 741.00 405.00" xmlns="http://www.w3.org/2000/svg" xmlns:xlink="http://www.w3.org/1999/xlink">
<g id="graph0" class="graph" transform="scale(1 1) rotate(0) translate(4 401)">
<title>chain_ScannerCorrectness.scanFlowSequenceStart_adds_one_token</title>
<polygon fill="white" stroke="transparent" points="-4,4 -4,-401 737,-401 737,4 -4,4"/>
<text text-anchor="middle" x="366.5" y="-382.6" font-family="Helvetica Bold" font-size="13.00">Functorial Chains: ScannerCorrectness.scanFlowSequenceStart_adds_one_token</text>
<text text-anchor="middle" x="366.5" y="-368.6" font-family="Helvetica Bold" font-size="13.00">(heuristic: used by 7 proofs)</text>
<g id="clust1" class="cluster">
<title>cluster_fns</title>
<polygon fill="none" stroke="#4a90d9" stroke-dasharray="5,2" points="412,-8 412,-244 725,-244 725,-8 412,-8"/>
<text text-anchor="middle" x="568.5" y="-229.6" font-family="Helvetica Bold" font-size="13.00" fill="#4a90d9">Functions (Call Chain)</text>
</g>
<g id="clust2" class="cluster">
<title>cluster_thms</title>
<polygon fill="none" stroke="#28a745" stroke-dasharray="5,2" points="8,-170 8,-353 404,-353 404,-170 8,-170"/>
<text text-anchor="middle" x="206" y="-338.6" font-family="Helvetica Bold" font-size="13.00" fill="#28a745">Theorems (Proof Chain)</text>
</g>
<!-- L4YAML.Scanner.ScannerState.advance -->
<g id="node1" class="node">
<title>L4YAML.Scanner.ScannerState.advance</title>
<g id="a_node1"><a xlink:href="../../../api/L4YAML/Scanner/State.html#L4YAML.Scanner.ScannerState.advance" xlink:title="ScannerState.advance" target="_blank">
<polygon fill="#dce9f7" stroke="#4a90d9" points="535.5,-133 420.5,-133 420.5,-97 535.5,-97 535.5,-133"/>
<text text-anchor="middle" x="478" y="-112.5" font-family="Helvetica" font-size="10.00">ScannerState.advance</text>
</a>
</g>
</g>
<!-- L4YAML.Scanner.ScannerState -->
<g id="node2" class="node">
<title>L4YAML.Scanner.ScannerState</title>
<g id="a_node2"><a xlink:href="../../../api/L4YAML/Scanner/State.html#L4YAML.Scanner.ScannerState" xlink:title="ScannerState" target="_blank">
<polygon fill="#dce9f7" stroke="#4a90d9" points="610,-52 534,-52 534,-16 610,-16 610,-52"/>
<text text-anchor="middle" x="572" y="-31.5" font-family="Helvetica" font-size="10.00">ScannerState</text>
</a>
</g>
</g>
<!-- L4YAML.Scanner.scanFlowSequenceStart -->
<g id="node3" class="node">
<title>L4YAML.Scanner.scanFlowSequenceStart</title>
<g id="a_node3"><a xlink:href="../../../api/L4YAML/Scanner/Scanner.html#L4YAML.Scanner.scanFlowSequenceStart" xlink:title="scanFlowSequenceStart" target="_blank">
<polygon fill="#dce9f7" stroke="#4a90d9" points="593,-214 469,-214 469,-178 593,-178 593,-214"/>
<text text-anchor="middle" x="531" y="-193.5" font-family="Helvetica" font-size="10.00">scanFlowSequenceStart</text>
</a>
</g>
</g>
<!-- L4YAML.Scanner.scanFlowSequenceStart&#45;&gt;L4YAML.Scanner.ScannerState.advance -->
<g id="edge9" class="edge">
<title>L4YAML.Scanner.scanFlowSequenceStart&#45;&gt;L4YAML.Scanner.ScannerState.advance</title>
<path fill="none" stroke="#4a90d9" stroke-width="2" d="M519.5,-177.86C511.86,-166.47 501.74,-151.39 493.41,-138.96"/>
<polygon fill="#4a90d9" stroke="#4a90d9" stroke-width="2" points="495.41,-137.56 489.48,-133.11 491.34,-140.29 495.41,-137.56"/>
<text text-anchor="middle" x="516.5" y="-153.6" font-family="Times-Roman" font-size="8.00">calls</text>
</g>
<!-- L4YAML.Scanner.scanFlowSequenceStart&#45;&gt;L4YAML.Scanner.ScannerState -->
<g id="edge8" class="edge">
<title>L4YAML.Scanner.scanFlowSequenceStart&#45;&gt;L4YAML.Scanner.ScannerState</title>
<path fill="none" stroke="#4a90d9" stroke-width="2" d="M535.39,-177.88C542.69,-149.4 557.34,-92.2 565.73,-59.47"/>
<polygon fill="#4a90d9" stroke="#4a90d9" stroke-width="2" points="568.16,-59.87 567.52,-52.48 563.41,-58.66 568.16,-59.87"/>
<text text-anchor="middle" x="564.5" y="-113.1" font-family="Times-Roman" font-size="8.00">calls</text>
</g>
<!-- L4YAML.Scanner.ScannerState.tokens -->
<g id="node4" class="node">
<title>L4YAML.Scanner.ScannerState.tokens</title>
<g id="a_node4"><a xlink:href="../../../api/L4YAML/Scanner/State.html#L4YAML.Scanner.ScannerState.tokens" xlink:title="ScannerState.tokens" target="_blank">
<polygon fill="#dce9f7" stroke="#4a90d9" points="716.5,-133 609.5,-133 609.5,-97 716.5,-97 716.5,-133"/>
<text text-anchor="middle" x="663" y="-112.5" font-family="Helvetica" font-size="10.00">ScannerState.tokens</text>
</a>
</g>
</g>
<!-- L4YAML.Scanner.scanFlowSequenceStart&#45;&gt;L4YAML.Scanner.ScannerState.tokens -->
<g id="edge2" class="edge">
<title>L4YAML.Scanner.scanFlowSequenceStart&#45;&gt;L4YAML.Scanner.ScannerState.tokens</title>
<path fill="none" stroke="#4a90d9" stroke-width="2" d="M559.64,-177.86C579.79,-165.8 606.87,-149.59 628.26,-136.79"/>
<polygon fill="#4a90d9" stroke="#4a90d9" stroke-width="2" points="629.67,-138.81 634.41,-133.11 627.15,-134.6 629.67,-138.81"/>
<text text-anchor="middle" x="609.5" y="-153.6" font-family="Times-Roman" font-size="8.00">calls</text>
</g>
<!-- L4YAML.Scanner.ScannerState.tokens&#45;&gt;L4YAML.Scanner.ScannerState -->
<g id="edge6" class="edge">
<title>L4YAML.Scanner.ScannerState.tokens&#45;&gt;L4YAML.Scanner.ScannerState</title>
<path fill="none" stroke="#4a90d9" stroke-width="2" d="M643.25,-96.86C629.78,-85.16 611.81,-69.56 597.29,-56.95"/>
<polygon fill="#4a90d9" stroke="#4a90d9" stroke-width="2" points="598.6,-54.85 591.71,-52.11 595.39,-58.55 598.6,-54.85"/>
<text text-anchor="middle" x="629.5" y="-72.6" font-family="Times-Roman" font-size="8.00">calls</text>
</g>
<!-- L4YAML.Proofs.ScannerCorrectness.scanFlowSequenceStart_adds_one_token -->
<g id="node5" class="node">
<title>L4YAML.Proofs.ScannerCorrectness.scanFlowSequenceStart_adds_one_token</title>
<g id="a_node5"><a xlink:href="../../../api/L4YAML/Proofs/Scanner/ScannerCorrectness.html#L4YAML.Proofs.ScannerCorrectness.scanFlowSequenceStart_adds_one_token" xlink:title="ScannerCorrectness.scanFlowSequenceStart_adds_one_token" target="_blank">
<polygon fill="#fff3cd" stroke="#d4a017" points="392.1,-293.54 392.1,-308.46 283.09,-319 128.91,-319 19.9,-308.46 19.9,-293.54 128.91,-283 283.09,-283 392.1,-293.54"/>
<polygon fill="none" stroke="#d4a017" points="396.1,-289.91 396.1,-312.09 283.28,-323 128.72,-323 15.9,-312.09 15.9,-289.91 128.72,-279 283.28,-279 396.1,-289.91"/>
<text text-anchor="middle" x="206" y="-298.5" font-family="Helvetica" font-size="10.00">ScannerCorrectness.scanFlowSequenceStart_adds_one_token</text>
</a>
</g>
</g>
<!-- L4YAML.Proofs.ScannerCorrectness.scanFlowSequenceStart_adds_one_token&#45;&gt;L4YAML.Scanner.scanFlowSequenceStart -->
<g id="edge1" class="edge">
<title>L4YAML.Proofs.ScannerCorrectness.scanFlowSequenceStart_adds_one_token&#45;&gt;L4YAML.Scanner.scanFlowSequenceStart</title>
<path fill="none" stroke="#6f42c1" stroke-width="2" stroke-dasharray="5,2" d="M287.62,-279.26C324.61,-269.37 368.76,-256.9 408,-244 432.9,-235.81 460.18,-225.53 482.7,-216.67"/>
<polygon fill="#6f42c1" stroke="#6f42c1" stroke-width="2" points="483.62,-218.94 489.23,-214.09 481.82,-214.38 483.62,-218.94"/>
<text text-anchor="middle" x="393.5" y="-254.6" font-family="Times-Roman" font-size="8.00" fill="#6f42c1">about</text>
</g>
<!-- L4YAML.Proofs.ScannerCorrectness.scanFlowSequenceStart_adds_one_token&#45;&gt;L4YAML.Scanner.ScannerState.tokens -->
<g id="edge5" class="edge">
<title>L4YAML.Proofs.ScannerCorrectness.scanFlowSequenceStart_adds_one_token&#45;&gt;L4YAML.Scanner.ScannerState.tokens</title>
<path fill="none" stroke="#6f42c1" stroke-width="2" stroke-dasharray="5,2" d="M396.24,-290.06C480.79,-282.27 568.7,-268.45 602,-244 636.03,-219.02 651.84,-170.08 658.57,-140.48"/>
<polygon fill="#6f42c1" stroke="#6f42c1" stroke-width="2" points="661.02,-140.76 660.09,-133.4 656.22,-139.73 661.02,-140.76"/>
<text text-anchor="middle" x="661.5" y="-194.1" font-family="Times-Roman" font-size="8.00" fill="#6f42c1">about</text>
</g>
<!-- L4YAML.Proofs.ScannerCorrectness.advance_preserves_tokens -->
<g id="node6" class="node">
<title>L4YAML.Proofs.ScannerCorrectness.advance_preserves_tokens</title>
<g id="a_node6"><a xlink:href="../../../api/L4YAML/Proofs/Scanner/ScannerCorrectness.html#L4YAML.Proofs.ScannerCorrectness.advance_preserves_tokens" xlink:title="ScannerCorrectness.advance_preserves_tokens" target="_blank">
<ellipse fill="#d4edda" stroke="#28a745" cx="262" cy="-196" rx="133.75" ry="18"/>
<text text-anchor="middle" x="262" y="-193.5" font-family="Helvetica" font-size="10.00">ScannerCorrectness.advance_preserves_tokens</text>
</a>
</g>
</g>
<!-- L4YAML.Proofs.ScannerCorrectness.scanFlowSequenceStart_adds_one_token&#45;&gt;L4YAML.Proofs.ScannerCorrectness.advance_preserves_tokens -->
<g id="edge3" class="edge">
<title>L4YAML.Proofs.ScannerCorrectness.scanFlowSequenceStart_adds_one_token&#45;&gt;L4YAML.Proofs.ScannerCorrectness.advance_preserves_tokens</title>
<path fill="none" stroke="#28a745" stroke-width="2" d="M217.6,-278.66C226.77,-261.8 239.55,-238.3 249.04,-220.83"/>
<polygon fill="#28a745" stroke="#28a745" stroke-width="2" points="251.45,-221.54 252.64,-214.22 247.14,-219.2 251.45,-221.54"/>
<text text-anchor="middle" x="241" y="-254.6" font-family="Times-Roman" font-size="8.00">uses</text>
</g>
<!-- L4YAML.Proofs.ScannerCorrectness.advance_preserves_tokens&#45;&gt;L4YAML.Scanner.ScannerState.advance -->
<g id="edge10" class="edge">
<title>L4YAML.Proofs.ScannerCorrectness.advance_preserves_tokens&#45;&gt;L4YAML.Scanner.ScannerState.advance</title>
<path fill="none" stroke="#6f42c1" stroke-width="2" stroke-dasharray="5,2" d="M300.98,-178.73C321.91,-170.16 348.23,-159.67 372,-151 386.6,-145.67 402.46,-140.25 417.36,-135.31"/>
<polygon fill="#6f42c1" stroke="#6f42c1" stroke-width="2" points="418.25,-137.6 424.13,-133.08 416.71,-132.94 418.25,-137.6"/>
<text text-anchor="middle" x="384.5" y="-153.6" font-family="Times-Roman" font-size="8.00" fill="#6f42c1">about</text>
</g>
<!-- L4YAML.Proofs.ScannerCorrectness.advance_preserves_tokens&#45;&gt;L4YAML.Scanner.ScannerState -->
<g id="edge7" class="edge">
<title>L4YAML.Proofs.ScannerCorrectness.advance_preserves_tokens&#45;&gt;L4YAML.Scanner.ScannerState</title>
<path fill="none" stroke="#6f42c1" stroke-width="2" stroke-dasharray="5,2" d="M279.48,-177.89C302.29,-156.38 344.23,-119.56 386,-97 431.25,-72.56 487.88,-55.37 526.69,-45.39"/>
<polygon fill="#6f42c1" stroke="#6f42c1" stroke-width="2" points="527.54,-47.7 533.73,-43.61 526.34,-42.95 527.54,-47.7"/>
<text text-anchor="middle" x="398.5" y="-113.1" font-family="Times-Roman" font-size="8.00" fill="#6f42c1">about</text>
</g>
<!-- L4YAML.Proofs.ScannerCorrectness.advance_preserves_tokens&#45;&gt;L4YAML.Scanner.ScannerState.tokens -->
<g id="edge4" class="edge">
<title>L4YAML.Proofs.ScannerCorrectness.advance_preserves_tokens&#45;&gt;L4YAML.Scanner.ScannerState.tokens</title>
<path fill="none" stroke="#6f42c1" stroke-width="2" stroke-dasharray="5,2" d="M328.18,-180.25C369.9,-171.21 424.96,-159.73 474,-151 527.53,-141.47 541.67,-143.61 595,-133 597.33,-132.54 599.69,-132.05 602.08,-131.53"/>
<polygon fill="#6f42c1" stroke="#6f42c1" stroke-width="2" points="602.98,-133.84 609.29,-129.94 601.92,-129.06 602.98,-133.84"/>
<text text-anchor="middle" x="486.5" y="-153.6" font-family="Times-Roman" font-size="8.00" fill="#6f42c1">about</text>
</g>
</g>
</svg>
