<?xml version="1.0" encoding="UTF-8" standalone="no"?>
<!DOCTYPE svg PUBLIC "-//W3C//DTD SVG 1.1//EN"
 "http://www.w3.org/Graphics/SVG/1.1/DTD/svg11.dtd">
<!-- Generated by graphviz version 2.44.0 (0)
 -->
<!-- Title: chain_ScannerCorrectness.scanFlowMappingStart_stack_pushed Pages: 1 -->
<svg width="1307pt" height="432pt"
 viewBox="0.00 0.00 1307.00 432.00" xmlns="http://www.w3.org/2000/svg" xmlns:xlink="http://www.w3.org/1999/xlink">
<g id="graph0" class="graph" transform="scale(1 1) rotate(0) translate(4 428)">
<title>chain_ScannerCorrectness.scanFlowMappingStart_stack_pushed</title>
<polygon fill="white" stroke="transparent" points="-4,4 -4,-428 1303,-428 1303,4 -4,4"/>
<text text-anchor="middle" x="649.5" y="-409.6" font-family="Helvetica Bold" font-size="13.00">Functorial Chains: ScannerCorrectness.scanFlowMappingStart_stack_pushed</text>
<text text-anchor="middle" x="649.5" y="-395.6" font-family="Helvetica Bold" font-size="13.00">(heuristic: used by 6 proofs)</text>
<g id="clust1" class="cluster">
<title>cluster_fns</title>
<polygon fill="none" stroke="#4a90d9" stroke-dasharray="5,2" points="662,-8 662,-271 1291,-271 1291,-8 662,-8"/>
<text text-anchor="middle" x="976.5" y="-256.6" font-family="Helvetica Bold" font-size="13.00" fill="#4a90d9">Functions (Call Chain)</text>
</g>
<g id="clust2" class="cluster">
<title>cluster_thms</title>
<polygon fill="none" stroke="#28a745" stroke-dasharray="5,2" points="8,-197 8,-380 654,-380 654,-197 8,-197"/>
<text text-anchor="middle" x="331" y="-365.6" font-family="Helvetica Bold" font-size="13.00" fill="#28a745">Theorems (Proof Chain)</text>
</g>
<!-- L4YAML.Scanner.ScannerState.emit -->
<g id="node1" class="node">
<title>L4YAML.Scanner.ScannerState.emit</title>
<g id="a_node1"><a xlink:href="../../../api/L4YAML/Scanner/State.html#L4YAML.Scanner.ScannerState.emit" xlink:title="ScannerState.emit" target="_blank">
<polygon fill="#dce9f7" stroke="#4a90d9" points="872,-133 774,-133 774,-97 872,-97 872,-133"/>
<text text-anchor="middle" x="823" y="-112.5" font-family="Helvetica" font-size="10.00">ScannerState.emit</text>
</a>
</g>
</g>
<!-- L4YAML.Scanner.ScannerState.simpleKey -->
<g id="node2" class="node">
<title>L4YAML.Scanner.ScannerState.simpleKey</title>
<g id="a_node2"><a xlink:href="../../../api/L4YAML/Scanner/State.html#L4YAML.Scanner.ScannerState.simpleKey" xlink:title="ScannerState.simpleKey" target="_blank">
<polygon fill="#dce9f7" stroke="#4a90d9" points="970,-187 846,-187 846,-151 970,-151 970,-187"/>
<text text-anchor="middle" x="908" y="-166.5" font-family="Helvetica" font-size="10.00">ScannerState.simpleKey</text>
</a>
</g>
</g>
<!-- L4YAML.Scanner.ScannerState -->
<g id="node5" class="node">
<title>L4YAML.Scanner.ScannerState</title>
<g id="a_node5"><a xlink:href="../../../api/L4YAML/Scanner/State.html#L4YAML.Scanner.ScannerState" xlink:title="ScannerState" target="_blank">
<polygon fill="#dce9f7" stroke="#4a90d9" points="946,-52 870,-52 870,-16 946,-16 946,-52"/>
<text text-anchor="middle" x="908" y="-31.5" font-family="Helvetica" font-size="10.00">ScannerState</text>
</a>
</g>
</g>
<!-- L4YAML.Scanner.ScannerState.simpleKey&#45;&gt;L4YAML.Scanner.ScannerState -->
<g id="edge2" class="edge">
<title>L4YAML.Scanner.ScannerState.simpleKey&#45;&gt;L4YAML.Scanner.ScannerState</title>
<path fill="none" stroke="#4a90d9" stroke-width="2" d="M908,-150.88C908,-127.54 908,-85.6 908,-59.09"/>
<polygon fill="#4a90d9" stroke="#4a90d9" stroke-width="2" points="910.45,-59.05 908,-52.05 905.55,-59.05 910.45,-59.05"/>
<text text-anchor="middle" x="917.5" y="-113.1" font-family="Times-Roman" font-size="8.00">calls</text>
</g>
<!-- L4YAML.Scanner.ScannerState.advance -->
<g id="node3" class="node">
<title>L4YAML.Scanner.ScannerState.advance</title>
<g id="a_node3"><a xlink:href="../../../api/L4YAML/Scanner/State.html#L4YAML.Scanner.ScannerState.advance" xlink:title="ScannerState.advance" target="_blank">
<polygon fill="#dce9f7" stroke="#4a90d9" points="1060.5,-133 945.5,-133 945.5,-97 1060.5,-97 1060.5,-133"/>
<text text-anchor="middle" x="1003" y="-112.5" font-family="Helvetica" font-size="10.00">ScannerState.advance</text>
</a>
</g>
</g>
<!-- L4YAML.Scanner.scanFlowMappingStart -->
<g id="node4" class="node">
<title>L4YAML.Scanner.scanFlowMappingStart</title>
<g id="a_node4"><a xlink:href="../../../api/L4YAML/Scanner/Scanner.html#L4YAML.Scanner.scanFlowMappingStart" xlink:title="scanFlowMappingStart" target="_blank">
<polygon fill="#dce9f7" stroke="#4a90d9" points="1055.5,-241 938.5,-241 938.5,-205 1055.5,-205 1055.5,-241"/>
<text text-anchor="middle" x="997" y="-220.5" font-family="Helvetica" font-size="10.00">scanFlowMappingStart</text>
</a>
</g>
</g>
<!-- L4YAML.Scanner.scanFlowMappingStart&#45;&gt;L4YAML.Scanner.ScannerState.emit -->
<g id="edge18" class="edge">
<title>L4YAML.Scanner.scanFlowMappingStart&#45;&gt;L4YAML.Scanner.ScannerState.emit</title>
<path fill="none" stroke="#4a90d9" stroke-width="2" d="M938.11,-218.4C891.96,-214.2 833.1,-205.33 818,-187 807.47,-174.21 809.34,-155.35 813.51,-140.28"/>
<polygon fill="#4a90d9" stroke="#4a90d9" stroke-width="2" points="815.96,-140.64 815.7,-133.23 811.28,-139.18 815.96,-140.64"/>
<text text-anchor="middle" x="827.5" y="-167.1" font-family="Times-Roman" font-size="8.00">calls</text>
</g>
<!-- L4YAML.Scanner.scanFlowMappingStart&#45;&gt;L4YAML.Scanner.ScannerState.advance -->
<g id="edge15" class="edge">
<title>L4YAML.Scanner.scanFlowMappingStart&#45;&gt;L4YAML.Scanner.ScannerState.advance</title>
<path fill="none" stroke="#4a90d9" stroke-width="2" d="M997.96,-204.97C998.95,-187.53 1000.49,-160.26 1001.61,-140.51"/>
<polygon fill="#4a90d9" stroke="#4a90d9" stroke-width="2" points="1004.07,-140.47 1002.02,-133.34 999.18,-140.19 1004.07,-140.47"/>
<text text-anchor="middle" x="1009.5" y="-167.1" font-family="Times-Roman" font-size="8.00">calls</text>
</g>
<!-- L4YAML.Scanner.scanFlowMappingStart&#45;&gt;L4YAML.Scanner.ScannerState -->
<g id="edge12" class="edge">
<title>L4YAML.Scanner.scanFlowMappingStart&#45;&gt;L4YAML.Scanner.ScannerState</title>
<path fill="none" stroke="#4a90d9" stroke-width="2" d="M1055.65,-213.81C1143.24,-199.2 1292.32,-163.72 1237,-97 1201.48,-54.16 1035.05,-40.72 953.4,-36.67"/>
<polygon fill="#4a90d9" stroke="#4a90d9" stroke-width="2" points="953.36,-34.21 946.25,-36.32 953.12,-39.11 953.36,-34.21"/>
<text text-anchor="middle" x="1257.5" y="-113.1" font-family="Times-Roman" font-size="8.00">calls</text>
</g>
<!-- L4YAML.Scanner.ScannerState.simpleKeyStack -->
<g id="node6" class="node">
<title>L4YAML.Scanner.ScannerState.simpleKeyStack</title>
<g id="a_node6"><a xlink:href="../../../api/L4YAML/Scanner/State.html#L4YAML.Scanner.ScannerState.simpleKeyStack" xlink:title="ScannerState.simpleKeyStack" target="_blank">
<polygon fill="#dce9f7" stroke="#4a90d9" points="1227.5,-133 1078.5,-133 1078.5,-97 1227.5,-97 1227.5,-133"/>
<text text-anchor="middle" x="1153" y="-112.5" font-family="Helvetica" font-size="10.00">ScannerState.simpleKeyStack</text>
</a>
</g>
</g>
<!-- L4YAML.Scanner.scanFlowMappingStart&#45;&gt;L4YAML.Scanner.ScannerState.simpleKeyStack -->
<g id="edge13" class="edge">
<title>L4YAML.Scanner.scanFlowMappingStart&#45;&gt;L4YAML.Scanner.ScannerState.simpleKeyStack</title>
<path fill="none" stroke="#4a90d9" stroke-width="2" d="M1022.06,-204.97C1049.16,-186.56 1092.4,-157.18 1121.71,-137.26"/>
<polygon fill="#4a90d9" stroke="#4a90d9" stroke-width="2" points="1123.33,-139.12 1127.74,-133.16 1120.57,-135.07 1123.33,-139.12"/>
<text text-anchor="middle" x="1107.5" y="-167.1" font-family="Times-Roman" font-size="8.00">calls</text>
</g>
<!-- L4YAML.Scanner.SimpleKeyState -->
<g id="node7" class="node">
<title>L4YAML.Scanner.SimpleKeyState</title>
<g id="a_node7"><a xlink:href="../../../api/L4YAML/Scanner/State.html#L4YAML.Scanner.SimpleKeyState" xlink:title="SimpleKeyState" target="_blank">
<polygon fill="#dce9f7" stroke="#4a90d9" points="756,-133 670,-133 670,-97 756,-97 756,-133"/>
<text text-anchor="middle" x="713" y="-112.5" font-family="Helvetica" font-size="10.00">SimpleKeyState</text>
</a>
</g>
</g>
<!-- L4YAML.Scanner.scanFlowMappingStart&#45;&gt;L4YAML.Scanner.SimpleKeyState -->
<g id="edge10" class="edge">
<title>L4YAML.Scanner.scanFlowMappingStart&#45;&gt;L4YAML.Scanner.SimpleKeyState</title>
<path fill="none" stroke="#4a90d9" stroke-width="2" d="M938.49,-216.59C885.92,-210.94 813.23,-200.95 788,-187 769.27,-176.64 771.46,-165.8 756,-151 751.3,-146.5 746.09,-141.94 740.96,-137.66"/>
<polygon fill="#4a90d9" stroke="#4a90d9" stroke-width="2" points="742.42,-135.69 735.46,-133.15 739.31,-139.48 742.42,-135.69"/>
<text text-anchor="middle" x="797.5" y="-167.1" font-family="Times-Roman" font-size="8.00">calls</text>
</g>
<!-- L4YAML.Scanner.ScannerState.simpleKeyStack&#45;&gt;L4YAML.Scanner.ScannerState -->
<g id="edge6" class="edge">
<title>L4YAML.Scanner.ScannerState.simpleKeyStack&#45;&gt;L4YAML.Scanner.ScannerState</title>
<path fill="none" stroke="#4a90d9" stroke-width="2" d="M1100.14,-96.96C1056.3,-82.82 994.64,-62.94 953.1,-49.54"/>
<polygon fill="#4a90d9" stroke="#4a90d9" stroke-width="2" points="953.77,-47.18 946.35,-47.37 952.26,-51.85 953.77,-47.18"/>
<text text-anchor="middle" x="1046.5" y="-72.6" font-family="Times-Roman" font-size="8.00">calls</text>
</g>
<!-- L4YAML.Proofs.ScannerCorrectness.emit_preserves_simpleKeyStack -->
<g id="node8" class="node">
<title>L4YAML.Proofs.ScannerCorrectness.emit_preserves_simpleKeyStack</title>
<g id="a_node8"><a xlink:href="../../../api/L4YAML/Proofs/Scanner/ScannerCorrectness.html#L4YAML.Proofs.ScannerCorrectness.emit_preserves_simpleKeyStack" xlink:title="ScannerCorrectness.emit_preserves_simpleKeyStack" target="_blank">
<ellipse fill="#d4edda" stroke="#28a745" cx="164" cy="-223" rx="147.51" ry="18"/>
<text text-anchor="middle" x="164" y="-220.5" font-family="Helvetica" font-size="10.00">ScannerCorrectness.emit_preserves_simpleKeyStack</text>
</a>
</g>
</g>
<!-- L4YAML.Proofs.ScannerCorrectness.emit_preserves_simpleKeyStack&#45;&gt;L4YAML.Scanner.ScannerState.emit -->
<g id="edge19" class="edge">
<title>L4YAML.Proofs.ScannerCorrectness.emit_preserves_simpleKeyStack&#45;&gt;L4YAML.Scanner.ScannerState.emit</title>
<path fill="none" stroke="#6f42c1" stroke-width="2" stroke-dasharray="5,2" d="M242.84,-207.69C267.76,-203.64 295.47,-199.62 321,-197 344.57,-194.58 513.61,-199.07 534,-187 550.14,-177.45 540.05,-160.87 556,-151 595.64,-126.47 719.18,-141.6 765,-133 765.63,-132.88 766.27,-132.76 766.9,-132.63"/>
<polygon fill="#6f42c1" stroke="#6f42c1" stroke-width="2" points="767.48,-135.02 773.8,-131.14 766.44,-130.23 767.48,-135.02"/>
<text text-anchor="middle" x="568.5" y="-167.1" font-family="Times-Roman" font-size="8.00" fill="#6f42c1">about</text>
</g>
<!-- L4YAML.Proofs.ScannerCorrectness.emit_preserves_simpleKeyStack&#45;&gt;L4YAML.Scanner.ScannerState -->
<g id="edge4" class="edge">
<title>L4YAML.Proofs.ScannerCorrectness.emit_preserves_simpleKeyStack&#45;&gt;L4YAML.Scanner.ScannerState</title>
<path fill="none" stroke="#6f42c1" stroke-width="2" stroke-dasharray="5,2" d="M197.86,-205.42C230.23,-189.98 280.69,-167.01 326,-151 465.14,-101.84 502.66,-95.56 648,-70 722.97,-56.81 810.88,-45.93 862.87,-39.96"/>
<polygon fill="#6f42c1" stroke="#6f42c1" stroke-width="2" points="863.28,-42.38 869.96,-39.15 862.73,-37.51 863.28,-42.38"/>
<text text-anchor="middle" x="515.5" y="-113.1" font-family="Times-Roman" font-size="8.00" fill="#6f42c1">about</text>
</g>
<!-- L4YAML.Proofs.ScannerCorrectness.emit_preserves_simpleKeyStack&#45;&gt;L4YAML.Scanner.SimpleKeyState -->
<g id="edge17" class="edge">
<title>L4YAML.Proofs.ScannerCorrectness.emit_preserves_simpleKeyStack&#45;&gt;L4YAML.Scanner.SimpleKeyState</title>
<path fill="none" stroke="#6f42c1" stroke-width="2" stroke-dasharray="5,2" d="M233.25,-207.05C302.82,-192.19 413.15,-169.08 509,-151 561.41,-141.11 621.61,-130.93 662.96,-124.11"/>
<polygon fill="#6f42c1" stroke="#6f42c1" stroke-width="2" points="663.43,-126.52 669.94,-122.96 662.64,-121.68 663.43,-126.52"/>
<text text-anchor="middle" x="521.5" y="-167.1" font-family="Times-Roman" font-size="8.00" fill="#6f42c1">about</text>
</g>
<!-- L4YAML.Proofs.ScannerCorrectness.advance_preserves_simpleKeyStack -->
<g id="node9" class="node">
<title>L4YAML.Proofs.ScannerCorrectness.advance_preserves_simpleKeyStack</title>
<g id="a_node9"><a xlink:href="../../../api/L4YAML/Proofs/Scanner/ScannerCorrectness.html#L4YAML.Proofs.ScannerCorrectness.advance_preserves_simpleKeyStack" xlink:title="ScannerCorrectness.advance_preserves_simpleKeyStack" target="_blank">
<ellipse fill="#d4edda" stroke="#28a745" cx="488" cy="-223" rx="158.2" ry="18"/>
<text text-anchor="middle" x="488" y="-220.5" font-family="Helvetica" font-size="10.00">ScannerCorrectness.advance_preserves_simpleKeyStack</text>
</a>
</g>
</g>
<!-- L4YAML.Proofs.ScannerCorrectness.advance_preserves_simpleKeyStack&#45;&gt;L4YAML.Scanner.ScannerState.advance -->
<g id="edge16" class="edge">
<title>L4YAML.Proofs.ScannerCorrectness.advance_preserves_simpleKeyStack&#45;&gt;L4YAML.Scanner.ScannerState.advance</title>
<path fill="none" stroke="#6f42c1" stroke-width="2" stroke-dasharray="5,2" d="M600.17,-210.13C619.42,-204.91 638.51,-197.5 655,-187 671.87,-176.26 664.45,-160.58 682,-151 730.69,-124.42 876.16,-141.4 931,-133 933.35,-132.64 935.73,-132.24 938.14,-131.82"/>
<polygon fill="#6f42c1" stroke="#6f42c1" stroke-width="2" points="938.96,-134.16 945.39,-130.46 938.06,-129.34 938.96,-134.16"/>
<text text-anchor="middle" x="694.5" y="-167.1" font-family="Times-Roman" font-size="8.00" fill="#6f42c1">about</text>
</g>
<!-- L4YAML.Proofs.ScannerCorrectness.advance_preserves_simpleKeyStack&#45;&gt;L4YAML.Scanner.ScannerState -->
<g id="edge8" class="edge">
<title>L4YAML.Proofs.ScannerCorrectness.advance_preserves_simpleKeyStack&#45;&gt;L4YAML.Scanner.ScannerState</title>
<path fill="none" stroke="#6f42c1" stroke-width="2" stroke-dasharray="5,2" d="M494.76,-204.96C501.68,-189.31 513.71,-166.29 530,-151 624.3,-62.47 784.56,-41.42 862.6,-36.47"/>
<polygon fill="#6f42c1" stroke="#6f42c1" stroke-width="2" points="863.04,-38.9 869.89,-36.04 862.76,-34.01 863.04,-38.9"/>
<text text-anchor="middle" x="620.5" y="-113.1" font-family="Times-Roman" font-size="8.00" fill="#6f42c1">about</text>
</g>
<!-- L4YAML.Proofs.ScannerCorrectness.advance_preserves_simpleKeyStack&#45;&gt;L4YAML.Scanner.ScannerState.simpleKeyStack -->
<g id="edge14" class="edge">
<title>L4YAML.Proofs.ScannerCorrectness.advance_preserves_simpleKeyStack&#45;&gt;L4YAML.Scanner.ScannerState.simpleKeyStack</title>
<path fill="none" stroke="#6f42c1" stroke-width="2" stroke-dasharray="5,2" d="M579.51,-208.29C638.3,-199.33 704.23,-188.94 707,-187 721.99,-176.5 711.47,-160.69 727,-151 759.37,-130.79 1032.14,-137.84 1070,-133 1070.43,-132.94 1070.87,-132.89 1071.3,-132.83"/>
<polygon fill="#6f42c1" stroke="#6f42c1" stroke-width="2" points="1071.84,-135.23 1078.43,-131.82 1071.16,-130.38 1071.84,-135.23"/>
<text text-anchor="middle" x="739.5" y="-167.1" font-family="Times-Roman" font-size="8.00" fill="#6f42c1">about</text>
</g>
<!-- L4YAML.Proofs.ScannerCorrectness.advance_preserves_simpleKeyStack&#45;&gt;L4YAML.Scanner.SimpleKeyState -->
<g id="edge11" class="edge">
<title>L4YAML.Proofs.ScannerCorrectness.advance_preserves_simpleKeyStack&#45;&gt;L4YAML.Scanner.SimpleKeyState</title>
<path fill="none" stroke="#6f42c1" stroke-width="2" stroke-dasharray="5,2" d="M542,-206.06C556.39,-200.87 571.64,-194.48 585,-187 607.35,-174.49 607.99,-164.1 630,-151 640.33,-144.85 651.95,-139.23 663.15,-134.39"/>
<polygon fill="#6f42c1" stroke="#6f42c1" stroke-width="2" points="664.18,-136.61 669.68,-131.63 662.27,-132.1 664.18,-136.61"/>
<text text-anchor="middle" x="642.5" y="-167.1" font-family="Times-Roman" font-size="8.00" fill="#6f42c1">about</text>
</g>
<!-- L4YAML.Proofs.ScannerCorrectness.scanFlowMappingStart_stack_pushed -->
<g id="node10" class="node">
<title>L4YAML.Proofs.ScannerCorrectness.scanFlowMappingStart_stack_pushed</title>
<g id="a_node10"><a xlink:href="../../../api/L4YAML/Proofs/Scanner/ScannerCorrectness.html#L4YAML.Proofs.ScannerCorrectness.scanFlowMappingStart_stack_pushed" xlink:title="ScannerCorrectness.scanFlowMappingStart_stack_pushed" target="_blank">
<polygon fill="#fff3cd" stroke="#d4a017" points="642.44,-320.54 642.44,-335.46 539.67,-346 394.33,-346 291.56,-335.46 291.56,-320.54 394.33,-310 539.67,-310 642.44,-320.54"/>
<polygon fill="none" stroke="#d4a017" points="646.44,-316.93 646.44,-339.07 539.87,-350 394.13,-350 287.56,-339.07 287.56,-316.93 394.13,-306 539.87,-306 646.44,-316.93"/>
<text text-anchor="middle" x="467" y="-325.5" font-family="Helvetica" font-size="10.00">ScannerCorrectness.scanFlowMappingStart_stack_pushed</text>
</a>
</g>
</g>
<!-- L4YAML.Proofs.ScannerCorrectness.scanFlowMappingStart_stack_pushed&#45;&gt;L4YAML.Scanner.ScannerState.simpleKey -->
<g id="edge1" class="edge">
<title>L4YAML.Proofs.ScannerCorrectness.scanFlowMappingStart_stack_pushed&#45;&gt;L4YAML.Scanner.ScannerState.simpleKey</title>
<path fill="none" stroke="#6f42c1" stroke-width="2" stroke-dasharray="5,2" d="M542.51,-306.19C577.04,-296.25 618.33,-283.75 655,-271 728.32,-245.5 811.62,-211.18 861.97,-189.84"/>
<polygon fill="#6f42c1" stroke="#6f42c1" stroke-width="2" points="863.06,-192.03 868.54,-187.04 861.14,-187.52 863.06,-192.03"/>
<text text-anchor="middle" x="642.5" y="-281.6" font-family="Times-Roman" font-size="8.00" fill="#6f42c1">about</text>
</g>
<!-- L4YAML.Proofs.ScannerCorrectness.scanFlowMappingStart_stack_pushed&#45;&gt;L4YAML.Scanner.scanFlowMappingStart -->
<g id="edge9" class="edge">
<title>L4YAML.Proofs.ScannerCorrectness.scanFlowMappingStart_stack_pushed&#45;&gt;L4YAML.Scanner.scanFlowMappingStart</title>
<path fill="none" stroke="#6f42c1" stroke-width="2" stroke-dasharray="5,2" d="M639.4,-316.19C697.29,-310.38 761.9,-301.51 820,-288 865.8,-277.35 916.04,-258.45 951.26,-243.94"/>
<polygon fill="#6f42c1" stroke="#6f42c1" stroke-width="2" points="952.57,-246.05 958.09,-241.1 950.69,-241.52 952.57,-246.05"/>
<text text-anchor="middle" x="862.5" y="-281.6" font-family="Times-Roman" font-size="8.00" fill="#6f42c1">about</text>
</g>
<!-- L4YAML.Proofs.ScannerCorrectness.scanFlowMappingStart_stack_pushed&#45;&gt;L4YAML.Scanner.ScannerState.simpleKeyStack -->
<g id="edge5" class="edge">
<title>L4YAML.Proofs.ScannerCorrectness.scanFlowMappingStart_stack_pushed&#45;&gt;L4YAML.Scanner.ScannerState.simpleKeyStack</title>
<path fill="none" stroke="#6f42c1" stroke-width="2" stroke-dasharray="5,2" d="M646.25,-326.95C796.28,-323.9 996.5,-311.88 1065,-271 1113.25,-242.2 1137.33,-176.27 1147.25,-140.38"/>
<polygon fill="#6f42c1" stroke="#6f42c1" stroke-width="2" points="1149.72,-140.59 1149.15,-133.2 1144.99,-139.34 1149.72,-140.59"/>
<text text-anchor="middle" x="1137.5" y="-221.1" font-family="Times-Roman" font-size="8.00" fill="#6f42c1">about</text>
</g>
<!-- L4YAML.Proofs.ScannerCorrectness.scanFlowMappingStart_stack_pushed&#45;&gt;L4YAML.Proofs.ScannerCorrectness.emit_preserves_simpleKeyStack -->
<g id="edge3" class="edge">
<title>L4YAML.Proofs.ScannerCorrectness.scanFlowMappingStart_stack_pushed&#45;&gt;L4YAML.Proofs.ScannerCorrectness.emit_preserves_simpleKeyStack</title>
<path fill="none" stroke="#28a745" stroke-width="2" d="M404.95,-305.91C350.11,-287.26 270.89,-260.34 218.46,-242.51"/>
<polygon fill="#28a745" stroke="#28a745" stroke-width="2" points="218.98,-240.1 211.56,-240.17 217.4,-244.74 218.98,-240.1"/>
<text text-anchor="middle" x="362" y="-281.6" font-family="Times-Roman" font-size="8.00">uses</text>
</g>
<!-- L4YAML.Proofs.ScannerCorrectness.scanFlowMappingStart_stack_pushed&#45;&gt;L4YAML.Proofs.ScannerCorrectness.advance_preserves_simpleKeyStack -->
<g id="edge7" class="edge">
<title>L4YAML.Proofs.ScannerCorrectness.scanFlowMappingStart_stack_pushed&#45;&gt;L4YAML.Proofs.ScannerCorrectness.advance_preserves_simpleKeyStack</title>
<path fill="none" stroke="#28a745" stroke-width="2" d="M471.35,-305.66C474.76,-288.95 479.5,-265.71 483.05,-248.29"/>
<polygon fill="#28a745" stroke="#28a745" stroke-width="2" points="485.49,-248.57 484.49,-241.22 480.69,-247.59 485.49,-248.57"/>
<text text-anchor="middle" x="487" y="-281.6" font-family="Times-Roman" font-size="8.00">uses</text>
</g>
</g>
</svg>
