<?xml version="1.0" encoding="UTF-8" standalone="no"?>
<!DOCTYPE svg PUBLIC "-//W3C//DTD SVG 1.1//EN"
 "http://www.w3.org/Graphics/SVG/1.1/DTD/svg11.dtd">
<!-- Generated by graphviz version 2.44.0 (0)
 -->
<!-- Title: ScannerCorrectness.scanPlainScalar_preserves_simpleKeyStack Pages: 1 -->
<svg width="1276pt" height="794pt"
 viewBox="0.00 0.00 1275.92 794.00" xmlns="http://www.w3.org/2000/svg" xmlns:xlink="http://www.w3.org/1999/xlink">
<g id="graph0" class="graph" transform="scale(1 1) rotate(0) translate(4 790)">
<title>ScannerCorrectness.scanPlainScalar_preserves_simpleKeyStack</title>
<polygon fill="white" stroke="transparent" points="-4,4 -4,-790 1271.92,-790 1271.92,4 -4,4"/>
<text text-anchor="middle" x="633.96" y="-771.6" font-family="Helvetica Bold" font-size="13.00">ScannerCorrectness.scanPlainScalar_preserves_simpleKeyStack</text>
<text text-anchor="middle" x="633.96" y="-757.6" font-family="Helvetica Bold" font-size="13.00">(heuristic: used by 5 proofs)</text>
<text text-anchor="middle" x="633.96" y="-743.6" font-family="Helvetica Bold" font-size="13.00">(L4YAML.Proofs.Scanner.ScannerCorrectness)</text>
<g id="clust1" class="cluster">
<title>cluster_functions</title>
<polygon fill="none" stroke="#4a90d9" stroke-dasharray="5,2" points="725.72,-222 725.72,-566 1259.92,-566 1259.92,-222 725.72,-222"/>
<text text-anchor="middle" x="992.82" y="-551.6" font-family="Helvetica Bold" font-size="13.00" fill="#4a90d9">Functions</text>
</g>
<g id="clust2" class="cluster">
<title>cluster_key</title>
<polygon fill="none" stroke="#d4a017" stroke-dasharray="5,2" points="535.52,-8 535.52,-90 1049.92,-90 1049.92,-8 535.52,-8"/>
<text text-anchor="middle" x="792.72" y="-75.6" font-family="Helvetica Bold" font-size="13.00" fill="#d4a017">Key Theorem</text>
</g>
<g id="clust3" class="cluster">
<title>cluster_proofs</title>
<polygon fill="none" stroke="#28a745" stroke-dasharray="5,2" points="8,-321 8,-461 493.52,-461 493.52,-321 8,-321"/>
<text text-anchor="middle" x="250.76" y="-446.6" font-family="Helvetica Bold" font-size="13.00" fill="#28a745">Proof Dependencies</text>
</g>
<g id="clust4" class="cluster">
<title>cluster_stdlib</title>
<polygon fill="none" stroke="#e67e22" stroke-dasharray="5,2" points="193.31,-12 193.31,-86 308.21,-86 308.21,-12 193.31,-12"/>
<text text-anchor="middle" x="250.76" y="-71.6" font-family="Helvetica Bold" font-size="13.00" fill="#e67e22">Stdlib Lemmas</text>
</g>
<!-- L4YAML.Scanner.scanPlainScalar -->
<g id="node1" class="node">
<title>L4YAML.Scanner.scanPlainScalar</title>
<g id="a_node1"><a xlink:href="../../../api/L4YAML/Scanner/Scalar.html#L4YAML.Scanner.scanPlainScalar" xlink:title="scanPlainScalar\n(def)" target="_blank">
<polygon fill="#dce9f7" stroke="#4a90d9" points="1220.92,-266 1133.92,-266 1133.92,-230 1220.92,-230 1220.92,-266"/>
<text text-anchor="middle" x="1177.42" y="-251" font-family="Helvetica" font-size="10.00">scanPlainScalar</text>
<text text-anchor="middle" x="1177.42" y="-240" font-family="Helvetica" font-size="10.00">(def)</text>
</a>
</g>
</g>
<!-- L4YAML.YamlToken -->
<g id="node2" class="node">
<title>L4YAML.YamlToken</title>
<g id="a_node2"><a xlink:href="../../../api/L4YAML/Token/Token.html#L4YAML.YamlToken" xlink:title="YamlToken\n(inductive)" target="_blank">
<polygon fill="#dce9f7" stroke="#4a90d9" points="824.72,-320 760.72,-320 760.72,-284 824.72,-284 824.72,-320"/>
<text text-anchor="middle" x="792.72" y="-305" font-family="Helvetica" font-size="10.00">YamlToken</text>
<text text-anchor="middle" x="792.72" y="-294" font-family="Helvetica" font-size="10.00">(inductive)</text>
</a>
</g>
</g>
<!-- L4YAML.Scanner.ScannerState -->
<g id="node3" class="node">
<title>L4YAML.Scanner.ScannerState</title>
<g id="a_node3"><a xlink:href="../../../api/L4YAML/Scanner/State.html#L4YAML.Scanner.ScannerState" xlink:title="ScannerState\n(inductive)" target="_blank">
<polygon fill="#dce9f7" stroke="#4a90d9" points="1215.42,-374 1139.42,-374 1139.42,-338 1215.42,-338 1215.42,-374"/>
<text text-anchor="middle" x="1177.42" y="-359" font-family="Helvetica" font-size="10.00">ScannerState</text>
<text text-anchor="middle" x="1177.42" y="-348" font-family="Helvetica" font-size="10.00">(inductive)</text>
</a>
</g>
</g>
<!-- L4YAML.Scanner.PlainScalarResult.state -->
<g id="node4" class="node">
<title>L4YAML.Scanner.PlainScalarResult.state</title>
<g id="a_node4"><a xlink:href="../../../api/L4YAML/Scanner/Scalar.html#L4YAML.Scanner.PlainScalarResult.state" xlink:title="PlainScalarResult.state\n(def)" target="_blank">
<polygon fill="#dce9f7" stroke="#4a90d9" points="851.72,-536 733.72,-536 733.72,-500 851.72,-500 851.72,-536"/>
<text text-anchor="middle" x="792.72" y="-521" font-family="Helvetica" font-size="10.00">PlainScalarResult.state</text>
<text text-anchor="middle" x="792.72" y="-510" font-family="Helvetica" font-size="10.00">(def)</text>
</a>
</g>
</g>
<!-- L4YAML.Scanner.collectPlainScalarLoop -->
<g id="node5" class="node">
<title>L4YAML.Scanner.collectPlainScalarLoop</title>
<g id="a_node5"><a xlink:href="../../../api/L4YAML/Scanner/Scalar.html#L4YAML.Scanner.collectPlainScalarLoop" xlink:title="collectPlainScalarLoop\n(def)" target="_blank">
<polygon fill="#dce9f7" stroke="#4a90d9" points="850.72,-482 734.72,-482 734.72,-446 850.72,-446 850.72,-482"/>
<text text-anchor="middle" x="792.72" y="-467" font-family="Helvetica" font-size="10.00">collectPlainScalarLoop</text>
<text text-anchor="middle" x="792.72" y="-456" font-family="Helvetica" font-size="10.00">(def)</text>
</a>
</g>
</g>
<!-- L4YAML.YamlPos -->
<g id="node6" class="node">
<title>L4YAML.YamlPos</title>
<g id="a_node6"><a xlink:href="../../../api/L4YAML/Spec/Types.html#L4YAML.YamlPos" xlink:title="YamlPos\n(inductive)" target="_blank">
<polygon fill="#dce9f7" stroke="#4a90d9" points="823.72,-266 761.72,-266 761.72,-230 823.72,-230 823.72,-266"/>
<text text-anchor="middle" x="792.72" y="-251" font-family="Helvetica" font-size="10.00">YamlPos</text>
<text text-anchor="middle" x="792.72" y="-240" font-family="Helvetica" font-size="10.00">(inductive)</text>
</a>
</g>
</g>
<!-- L4YAML.Scanner.ScannerState.simpleKeyStack -->
<g id="node7" class="node">
<title>L4YAML.Scanner.ScannerState.simpleKeyStack</title>
<g id="a_node7"><a xlink:href="../../../api/L4YAML/Scanner/State.html#L4YAML.Scanner.ScannerState.simpleKeyStack" xlink:title="ScannerState.simpleKeyStack\n(def)" target="_blank">
<polygon fill="#dce9f7" stroke="#4a90d9" points="1251.92,-320 1102.92,-320 1102.92,-284 1251.92,-284 1251.92,-320"/>
<text text-anchor="middle" x="1177.42" y="-305" font-family="Helvetica" font-size="10.00">ScannerState.simpleKeyStack</text>
<text text-anchor="middle" x="1177.42" y="-294" font-family="Helvetica" font-size="10.00">(def)</text>
</a>
</g>
</g>
<!-- L4YAML.Scanner.ScannerState.emitAt -->
<g id="node8" class="node">
<title>L4YAML.Scanner.ScannerState.emitAt</title>
<g id="a_node8"><a xlink:href="../../../api/L4YAML/Scanner/State.html#L4YAML.Scanner.ScannerState.emitAt" xlink:title="ScannerState.emitAt\n(def)" target="_blank">
<polygon fill="#dce9f7" stroke="#4a90d9" points="846.22,-374 739.22,-374 739.22,-338 846.22,-338 846.22,-374"/>
<text text-anchor="middle" x="792.72" y="-359" font-family="Helvetica" font-size="10.00">ScannerState.emitAt</text>
<text text-anchor="middle" x="792.72" y="-348" font-family="Helvetica" font-size="10.00">(def)</text>
</a>
</g>
</g>
<!-- L4YAML.ScanError -->
<g id="node9" class="node">
<title>L4YAML.ScanError</title>
<g id="a_node9"><a xlink:href="../../../api/L4YAML/Token/Token.html#L4YAML.ScanError" xlink:title="ScanError\n(inductive)" target="_blank">
<polygon fill="#dce9f7" stroke="#4a90d9" points="1208.42,-428 1146.42,-428 1146.42,-392 1208.42,-392 1208.42,-428"/>
<text text-anchor="middle" x="1177.42" y="-413" font-family="Helvetica" font-size="10.00">ScanError</text>
<text text-anchor="middle" x="1177.42" y="-402" font-family="Helvetica" font-size="10.00">(inductive)</text>
</a>
</g>
</g>
<!-- L4YAML.Scanner.PlainScalarResult -->
<g id="node10" class="node">
<title>L4YAML.Scanner.PlainScalarResult</title>
<g id="a_node10"><a xlink:href="../../../api/L4YAML/Scanner/Scalar.html#L4YAML.Scanner.PlainScalarResult" xlink:title="PlainScalarResult\n(inductive)" target="_blank">
<polygon fill="#dce9f7" stroke="#4a90d9" points="839.72,-428 745.72,-428 745.72,-392 839.72,-392 839.72,-428"/>
<text text-anchor="middle" x="792.72" y="-413" font-family="Helvetica" font-size="10.00">PlainScalarResult</text>
<text text-anchor="middle" x="792.72" y="-402" font-family="Helvetica" font-size="10.00">(inductive)</text>
</a>
</g>
</g>
<!-- L4YAML.Scanner.SimpleKeyState -->
<g id="node11" class="node">
<title>L4YAML.Scanner.SimpleKeyState</title>
<g id="a_node11"><a xlink:href="../../../api/L4YAML/Scanner/State.html#L4YAML.Scanner.SimpleKeyState" xlink:title="SimpleKeyState\n(inductive)" target="_blank">
<polygon fill="#dce9f7" stroke="#4a90d9" points="1220.42,-482 1134.42,-482 1134.42,-446 1220.42,-446 1220.42,-482"/>
<text text-anchor="middle" x="1177.42" y="-467" font-family="Helvetica" font-size="10.00">SimpleKeyState</text>
<text text-anchor="middle" x="1177.42" y="-456" font-family="Helvetica" font-size="10.00">(inductive)</text>
</a>
</g>
</g>
<!-- L4YAML.Proofs.ScannerCorrectness.scanPlainScalar_preserves_simpleKeyStack -->
<g id="node12" class="node">
<title>L4YAML.Proofs.ScannerCorrectness.scanPlainScalar_preserves_simpleKeyStack</title>
<g id="a_node12"><a xlink:href="../../../api/L4YAML/Proofs/Scanner/ScannerCorrectness.html#L4YAML.Proofs.ScannerCorrectness.scanPlainScalar_preserves_simpleKeyStack" xlink:title="ScannerCorrectness.scanPlainScalar_preserves_simpleKeyStack" target="_blank">
<polygon fill="#fff3cd" stroke="#d4a017" points="1038.12,-30.54 1038.12,-45.46 894.37,-56 691.07,-56 547.32,-45.46 547.32,-30.54 691.07,-20 894.37,-20 1038.12,-30.54"/>
<polygon fill="none" stroke="#d4a017" points="1042.12,-26.83 1042.12,-49.17 894.51,-60 690.93,-60 543.32,-49.17 543.32,-26.83 690.93,-16 894.51,-16 1042.12,-26.83"/>
<text text-anchor="middle" x="792.72" y="-34.9" font-family="Helvetica" font-size="12.00">ScannerCorrectness.scanPlainScalar_preserves_simpleKeyStack</text>
</a>
</g>
</g>
<!-- L4YAML.Proofs.ScannerCorrectness.scanPlainScalar_preserves_simpleKeyStack&#45;&gt;L4YAML.Scanner.scanPlainScalar -->
<g id="edge2" class="edge">
<title>L4YAML.Proofs.ScannerCorrectness.scanPlainScalar_preserves_simpleKeyStack&#45;&gt;L4YAML.Scanner.scanPlainScalar</title>
<path fill="none" stroke="#4a90d9" stroke-width="2" d="M891.99,-15.98C952.49,-8.07 1028.9,-8.77 1084.92,-46 1145.97,-86.57 1166.83,-178.53 1173.5,-223"/>
<polygon fill="#4a90d9" stroke="#4a90d9" stroke-width="2" points="1171.08,-223.38 1174.49,-229.97 1175.93,-222.69 1171.08,-223.38"/>
<text text-anchor="middle" x="1072.42" y="-48.6" font-family="Times-Roman" font-size="8.00" fill="#4a90d9">about</text>
</g>
<!-- L4YAML.Proofs.ScannerCorrectness.scanPlainScalar_preserves_simpleKeyStack&#45;&gt;L4YAML.Scanner.ScannerState -->
<g id="edge3" class="edge">
<title>L4YAML.Proofs.ScannerCorrectness.scanPlainScalar_preserves_simpleKeyStack&#45;&gt;L4YAML.Scanner.ScannerState</title>
<path fill="none" stroke="#4a90d9" stroke-width="2" d="M953.89,-55.74C987.25,-64.06 1021.03,-76.23 1049.92,-94 1070.91,-106.91 1075.59,-114.19 1084.92,-137 1101.15,-176.66 1076.78,-295.04 1102.92,-329 1110.27,-338.54 1121.34,-344.72 1132.67,-348.71"/>
<polygon fill="#4a90d9" stroke="#4a90d9" stroke-width="2" points="1131.93,-351.04 1139.34,-350.81 1133.4,-346.37 1131.93,-351.04"/>
<text text-anchor="middle" x="1072.42" y="-139.6" font-family="Times-Roman" font-size="8.00" fill="#4a90d9">about</text>
</g>
<!-- L4YAML.Proofs.ScannerCorrectness.scanPlainScalar_preserves_simpleKeyStack&#45;&gt;L4YAML.Scanner.ScannerState.simpleKeyStack -->
<g id="edge1" class="edge">
<title>L4YAML.Proofs.ScannerCorrectness.scanPlainScalar_preserves_simpleKeyStack&#45;&gt;L4YAML.Scanner.ScannerState.simpleKeyStack</title>
<path fill="none" stroke="#4a90d9" stroke-width="2" d="M1042.21,-48.71C1058.01,-56.69 1072.52,-66.95 1084.92,-80 1114.89,-111.55 1076.4,-240.5 1102.92,-275 1104.04,-276.46 1105.26,-277.84 1106.54,-279.15"/>
<polygon fill="#4a90d9" stroke="#4a90d9" stroke-width="2" points="1104.98,-281.04 1111.85,-283.83 1108.22,-277.37 1104.98,-281.04"/>
<text text-anchor="middle" x="1072.42" y="-82.6" font-family="Times-Roman" font-size="8.00" fill="#4a90d9">about</text>
</g>
<!-- L4YAML.Proofs.ScannerCorrectness.scanPlainScalar_preserves_simpleKeyStack&#45;&gt;L4YAML.ScanError -->
<g id="edge4" class="edge">
<title>L4YAML.Proofs.ScannerCorrectness.scanPlainScalar_preserves_simpleKeyStack&#45;&gt;L4YAML.ScanError</title>
<path fill="none" stroke="#4a90d9" stroke-width="2" d="M985.81,-53.37C1009.84,-62.5 1032.16,-75.55 1049.92,-94 1067.45,-112.22 1051.33,-126.22 1059.92,-150 1067.56,-171.15 1078.15,-172.55 1084.92,-194 1097.62,-234.23 1077.16,-349.59 1102.92,-383 1111.69,-394.37 1125.73,-400.95 1139.2,-404.76"/>
<polygon fill="#4a90d9" stroke="#4a90d9" stroke-width="2" points="1138.77,-407.18 1146.16,-406.51 1139.97,-402.43 1138.77,-407.18"/>
<text text-anchor="middle" x="1072.42" y="-196.6" font-family="Times-Roman" font-size="8.00" fill="#4a90d9">about</text>
</g>
<!-- L4YAML.Proofs.ScannerCorrectness.scanPlainScalar_preserves_simpleKeyStack&#45;&gt;L4YAML.Scanner.SimpleKeyState -->
<g id="edge5" class="edge">
<title>L4YAML.Proofs.ScannerCorrectness.scanPlainScalar_preserves_simpleKeyStack&#45;&gt;L4YAML.Scanner.SimpleKeyState</title>
<path fill="none" stroke="#4a90d9" stroke-width="2" d="M989.81,-53.03C1012.64,-62.31 1033.57,-75.49 1049.92,-94 1066.02,-112.23 1049.14,-181.2 1059.92,-203 1066.61,-216.53 1078.27,-212.45 1084.92,-226 1105.65,-268.25 1074.37,-399.59 1102.92,-437 1109.15,-445.17 1118.11,-450.86 1127.64,-454.84"/>
<polygon fill="#4a90d9" stroke="#4a90d9" stroke-width="2" points="1126.89,-457.17 1134.3,-457.32 1128.6,-452.58 1126.89,-457.17"/>
<text text-anchor="middle" x="1072.42" y="-228.6" font-family="Times-Roman" font-size="8.00" fill="#4a90d9">about</text>
</g>
<!-- L4YAML.Proofs.ScannerCorrectness.emitAt_preserves_simpleKeyStack -->
<g id="node13" class="node">
<title>L4YAML.Proofs.ScannerCorrectness.emitAt_preserves_simpleKeyStack</title>
<g id="a_node13"><a xlink:href="../../../api/L4YAML/Proofs/Scanner/ScannerCorrectness.html#L4YAML.Proofs.ScannerCorrectness.emitAt_preserves_simpleKeyStack" xlink:title="ScannerCorrectness.emitAt_preserves_simpleKeyStack\n(Scanner.ScannerCorrectness)" target="_blank">
<ellipse fill="#d4edda" stroke="#28a745" cx="250.76" cy="-350" rx="184.61" ry="21.43"/>
<text text-anchor="middle" x="250.76" y="-353" font-family="Helvetica" font-size="10.00">ScannerCorrectness.emitAt_preserves_simpleKeyStack</text>
<text text-anchor="middle" x="250.76" y="-342" font-family="Helvetica" font-size="10.00">(Scanner.ScannerCorrectness)</text>
</a>
</g>
</g>
<!-- L4YAML.Proofs.ScannerCorrectness.emitAt_preserves_simpleKeyStack&#45;&gt;L4YAML.YamlToken -->
<g id="edge11" class="edge">
<title>L4YAML.Proofs.ScannerCorrectness.emitAt_preserves_simpleKeyStack&#45;&gt;L4YAML.YamlToken</title>
<path fill="none" stroke="#6f42c1" stroke-width="2" stroke-dasharray="5,2" d="M397.17,-337.07C518.73,-326.27 683.44,-311.63 755.48,-305.22"/>
<polygon fill="#6f42c1" stroke="#6f42c1" stroke-width="2" points="755.67,-306.96 760.5,-304.78 755.36,-303.47 755.67,-306.96"/>
<text text-anchor="middle" x="514.52" y="-330.4" font-family="Times-Roman" font-size="7.00" fill="#6f42c1">about</text>
</g>
<!-- L4YAML.Proofs.ScannerCorrectness.emitAt_preserves_simpleKeyStack&#45;&gt;L4YAML.Scanner.ScannerState -->
<g id="edge12" class="edge">
<title>L4YAML.Proofs.ScannerCorrectness.emitAt_preserves_simpleKeyStack&#45;&gt;L4YAML.Scanner.ScannerState</title>
<path fill="none" stroke="#6f42c1" stroke-width="2" stroke-dasharray="5,2" d="M274.02,-328.89C319,-288.04 425.78,-199.91 535.52,-174 654.34,-145.95 993.75,-92.8 1084.92,-174 1110.82,-197.06 1081.46,-301.76 1102.92,-329 1110.65,-338.81 1122.3,-345.06 1134.06,-349.03"/>
<polygon fill="#6f42c1" stroke="#6f42c1" stroke-width="2" points="1133.8,-350.79 1139.09,-350.6 1134.84,-347.45 1133.8,-350.79"/>
<text text-anchor="middle" x="792.72" y="-176.4" font-family="Times-Roman" font-size="7.00" fill="#6f42c1">about</text>
</g>
<!-- L4YAML.Proofs.ScannerCorrectness.emitAt_preserves_simpleKeyStack&#45;&gt;L4YAML.YamlPos -->
<g id="edge10" class="edge">
<title>L4YAML.Proofs.ScannerCorrectness.emitAt_preserves_simpleKeyStack&#45;&gt;L4YAML.YamlPos</title>
<path fill="none" stroke="#6f42c1" stroke-width="2" stroke-dasharray="5,2" d="M315.64,-330.1C372.74,-313.05 458.97,-289.06 535.52,-275 613.61,-260.65 706.61,-253.22 756.28,-250.01"/>
<polygon fill="#6f42c1" stroke="#6f42c1" stroke-width="2" points="756.65,-251.74 761.53,-249.68 756.43,-248.25 756.65,-251.74"/>
<text text-anchor="middle" x="514.52" y="-284.4" font-family="Times-Roman" font-size="7.00" fill="#6f42c1">about</text>
</g>
<!-- L4YAML.Proofs.ScannerCorrectness.emitAt_preserves_simpleKeyStack&#45;&gt;L4YAML.Scanner.ScannerState.simpleKeyStack -->
<g id="edge9" class="edge">
<title>L4YAML.Proofs.ScannerCorrectness.emitAt_preserves_simpleKeyStack&#45;&gt;L4YAML.Scanner.ScannerState.simpleKeyStack</title>
<path fill="none" stroke="#6f42c1" stroke-width="2" stroke-dasharray="5,2" d="M268.78,-328.55C308.93,-279.88 415.3,-162.01 535.52,-119 593,-98.44 1039.38,-76.35 1084.92,-117 1111.28,-140.53 1081.08,-247.22 1102.92,-275 1104.47,-276.97 1106.17,-278.79 1108,-280.48"/>
<polygon fill="#6f42c1" stroke="#6f42c1" stroke-width="2" points="1106.97,-281.9 1111.93,-283.77 1109.22,-279.22 1106.97,-281.9"/>
<text text-anchor="middle" x="792.72" y="-121.4" font-family="Times-Roman" font-size="7.00" fill="#6f42c1">about</text>
</g>
<!-- L4YAML.Proofs.ScannerCorrectness.emitAt_preserves_simpleKeyStack&#45;&gt;L4YAML.Scanner.ScannerState.emitAt -->
<g id="edge14" class="edge">
<title>L4YAML.Proofs.ScannerCorrectness.emitAt_preserves_simpleKeyStack&#45;&gt;L4YAML.Scanner.ScannerState.emitAt</title>
<path fill="none" stroke="#6f42c1" stroke-width="2" stroke-dasharray="5,2" d="M434.57,-352.03C538.99,-353.19 662.9,-354.57 733.92,-355.36"/>
<polygon fill="#6f42c1" stroke="#6f42c1" stroke-width="2" points="733.92,-357.11 738.94,-355.41 733.96,-353.61 733.92,-357.11"/>
<text text-anchor="middle" x="514.52" y="-355.4" font-family="Times-Roman" font-size="7.00" fill="#6f42c1">about</text>
</g>
<!-- L4YAML.Proofs.ScannerCorrectness.emitAt_preserves_simpleKeyStack&#45;&gt;L4YAML.Scanner.SimpleKeyState -->
<g id="edge13" class="edge">
<title>L4YAML.Proofs.ScannerCorrectness.emitAt_preserves_simpleKeyStack&#45;&gt;L4YAML.Scanner.SimpleKeyState</title>
<path fill="none" stroke="#6f42c1" stroke-width="2" stroke-dasharray="5,2" d="M283.19,-328.91C333.73,-296.4 437.4,-235.45 535.52,-213 591.24,-200.25 1005.09,-177.54 1049.92,-213 1059.95,-220.93 1094.44,-427.43 1102.92,-437 1109.97,-444.95 1119.58,-450.57 1129.51,-454.53"/>
<polygon fill="#6f42c1" stroke="#6f42c1" stroke-width="2" points="1129.11,-456.25 1134.41,-456.34 1130.33,-452.96 1129.11,-456.25"/>
<text text-anchor="middle" x="792.72" y="-215.4" font-family="Times-Roman" font-size="7.00" fill="#6f42c1">about</text>
</g>
<!-- L4YAML.Proofs.ScannerCorrectness.emitAt_preserves_simpleKeyStack&#45;&gt;L4YAML.Proofs.ScannerCorrectness.scanPlainScalar_preserves_simpleKeyStack -->
<g id="edge6" class="edge">
<title>L4YAML.Proofs.ScannerCorrectness.emitAt_preserves_simpleKeyStack&#45;&gt;L4YAML.Proofs.ScannerCorrectness.scanPlainScalar_preserves_simpleKeyStack</title>
<path fill="none" stroke="#28a745" d="M272.22,-328.79C314.38,-284.91 413.69,-180.67 493.52,-90 498.11,-84.79 497.45,-81.37 503.52,-78 522.35,-67.54 542.9,-59.46 564.07,-53.25"/>
<polygon fill="#28a745" stroke="#28a745" points="564.9,-55.56 570.97,-51.3 563.57,-50.85 564.9,-55.56"/>
</g>
<!-- L4YAML.Proofs.ScannerCorrectness.collectPlainScalarLoop_preserves_simpleKeyStack -->
<g id="node14" class="node">
<title>L4YAML.Proofs.ScannerCorrectness.collectPlainScalarLoop_preserves_simpleKeyStack</title>
<g id="a_node14"><a xlink:href="../../../api/L4YAML/Proofs/Scanner/ScannerCorrectness.html#L4YAML.Proofs.ScannerCorrectness.collectPlainScalarLoop_preserves_simpleKeyStack" xlink:title="ScannerCorrectness.collectPlainScalarLoop_preserves_simpleKeyStack\n(Scanner.ScannerCorrectness)" target="_blank">
<ellipse fill="#d4edda" stroke="#28a745" cx="250.76" cy="-410" rx="234.52" ry="21.43"/>
<text text-anchor="middle" x="250.76" y="-413" font-family="Helvetica" font-size="10.00">ScannerCorrectness.collectPlainScalarLoop_preserves_simpleKeyStack</text>
<text text-anchor="middle" x="250.76" y="-402" font-family="Helvetica" font-size="10.00">(Scanner.ScannerCorrectness)</text>
</a>
</g>
</g>
<!-- L4YAML.Proofs.ScannerCorrectness.collectPlainScalarLoop_preserves_simpleKeyStack&#45;&gt;L4YAML.Scanner.ScannerState -->
<g id="edge18" class="edge">
<title>L4YAML.Proofs.ScannerCorrectness.collectPlainScalarLoop_preserves_simpleKeyStack&#45;&gt;L4YAML.Scanner.ScannerState</title>
<path fill="none" stroke="#6f42c1" stroke-width="2" stroke-dasharray="5,2" d="M272.55,-431.16C312.81,-470.49 406.05,-553.76 503.52,-586 564.87,-606.29 1037.39,-645.78 1084.92,-602 1120.84,-568.92 1073.35,-421.86 1102.92,-383 1110.55,-372.97 1122.31,-366.66 1134.19,-362.69"/>
<polygon fill="#6f42c1" stroke="#6f42c1" stroke-width="2" points="1135.01,-364.27 1139.28,-361.13 1133.98,-360.93 1135.01,-364.27"/>
<text text-anchor="middle" x="792.72" y="-623.4" font-family="Times-Roman" font-size="7.00" fill="#6f42c1">about</text>
</g>
<!-- L4YAML.Proofs.ScannerCorrectness.collectPlainScalarLoop_preserves_simpleKeyStack&#45;&gt;L4YAML.Scanner.PlainScalarResult.state -->
<g id="edge17" class="edge">
<title>L4YAML.Proofs.ScannerCorrectness.collectPlainScalarLoop_preserves_simpleKeyStack&#45;&gt;L4YAML.Scanner.PlainScalarResult.state</title>
<path fill="none" stroke="#6f42c1" stroke-width="2" stroke-dasharray="5,2" d="M312.19,-430.55C369.13,-449.12 457.18,-475.81 535.52,-491 600.57,-503.61 676.14,-510.67 728.27,-514.38"/>
<polygon fill="#6f42c1" stroke="#6f42c1" stroke-width="2" points="728.44,-516.14 733.55,-514.75 728.69,-512.65 728.44,-516.14"/>
<text text-anchor="middle" x="514.52" y="-489.4" font-family="Times-Roman" font-size="7.00" fill="#6f42c1">about</text>
</g>
<!-- L4YAML.Proofs.ScannerCorrectness.collectPlainScalarLoop_preserves_simpleKeyStack&#45;&gt;L4YAML.Scanner.collectPlainScalarLoop -->
<g id="edge16" class="edge">
<title>L4YAML.Proofs.ScannerCorrectness.collectPlainScalarLoop_preserves_simpleKeyStack&#45;&gt;L4YAML.Scanner.collectPlainScalarLoop</title>
<path fill="none" stroke="#6f42c1" stroke-width="2" stroke-dasharray="5,2" d="M409.03,-425.73C515.96,-436.42 651.64,-449.99 729.38,-457.77"/>
<polygon fill="#6f42c1" stroke="#6f42c1" stroke-width="2" points="729.26,-459.51 734.41,-458.27 729.61,-456.03 729.26,-459.51"/>
<text text-anchor="middle" x="514.52" y="-439.4" font-family="Times-Roman" font-size="7.00" fill="#6f42c1">about</text>
</g>
<!-- L4YAML.Proofs.ScannerCorrectness.collectPlainScalarLoop_preserves_simpleKeyStack&#45;&gt;L4YAML.Scanner.ScannerState.simpleKeyStack -->
<g id="edge15" class="edge">
<title>L4YAML.Proofs.ScannerCorrectness.collectPlainScalarLoop_preserves_simpleKeyStack&#45;&gt;L4YAML.Scanner.ScannerState.simpleKeyStack</title>
<path fill="none" stroke="#6f42c1" stroke-width="2" stroke-dasharray="5,2" d="M284.13,-431.01C335.14,-462.79 438.41,-521.81 535.52,-545 594.91,-559.18 1040.08,-599.45 1084.92,-558 1122.4,-523.35 1072.09,-369.68 1102.92,-329 1104.43,-327.01 1106.11,-325.16 1107.91,-323.45"/>
<polygon fill="#6f42c1" stroke="#6f42c1" stroke-width="2" points="1109.13,-324.71 1111.79,-320.13 1106.86,-322.05 1109.13,-324.71"/>
<text text-anchor="middle" x="792.72" y="-578.4" font-family="Times-Roman" font-size="7.00" fill="#6f42c1">about</text>
</g>
<!-- L4YAML.Proofs.ScannerCorrectness.collectPlainScalarLoop_preserves_simpleKeyStack&#45;&gt;L4YAML.ScanError -->
<g id="edge19" class="edge">
<title>L4YAML.Proofs.ScannerCorrectness.collectPlainScalarLoop_preserves_simpleKeyStack&#45;&gt;L4YAML.ScanError</title>
<path fill="none" stroke="#6f42c1" stroke-width="2" stroke-dasharray="5,2" d="M267.38,-431.24C303.03,-477.74 395.7,-587.75 503.52,-630 563.69,-653.58 1037.3,-689.69 1084.92,-646 1119.27,-614.48 1074.62,-474.04 1102.92,-437 1112.03,-425.07 1126.96,-418.41 1140.99,-414.69"/>
<polygon fill="#6f42c1" stroke="#6f42c1" stroke-width="2" points="1141.66,-416.33 1146.11,-413.45 1140.84,-412.93 1141.66,-416.33"/>
<text text-anchor="middle" x="792.72" y="-668.4" font-family="Times-Roman" font-size="7.00" fill="#6f42c1">about</text>
</g>
<!-- L4YAML.Proofs.ScannerCorrectness.collectPlainScalarLoop_preserves_simpleKeyStack&#45;&gt;L4YAML.Scanner.PlainScalarResult -->
<g id="edge21" class="edge">
<title>L4YAML.Proofs.ScannerCorrectness.collectPlainScalarLoop_preserves_simpleKeyStack&#45;&gt;L4YAML.Scanner.PlainScalarResult</title>
<path fill="none" stroke="#6f42c1" stroke-width="2" stroke-dasharray="5,2" d="M485.85,-410C580.68,-410 681.52,-410 740.45,-410"/>
<polygon fill="#6f42c1" stroke="#6f42c1" stroke-width="2" points="740.67,-411.75 745.67,-410 740.67,-408.25 740.67,-411.75"/>
<text text-anchor="middle" x="514.52" y="-412.4" font-family="Times-Roman" font-size="7.00" fill="#6f42c1">about</text>
</g>
<!-- L4YAML.Proofs.ScannerCorrectness.collectPlainScalarLoop_preserves_simpleKeyStack&#45;&gt;L4YAML.Scanner.SimpleKeyState -->
<g id="edge20" class="edge">
<title>L4YAML.Proofs.ScannerCorrectness.collectPlainScalarLoop_preserves_simpleKeyStack&#45;&gt;L4YAML.Scanner.SimpleKeyState</title>
<path fill="none" stroke="#6f42c1" stroke-width="2" stroke-dasharray="5,2" d="M265.76,-431.39C302.36,-485.11 407.03,-625.2 535.52,-678 648.47,-724.41 983.66,-758.25 1084.92,-690 1153.87,-643.53 1170.88,-535.31 1175.06,-487.47"/>
<polygon fill="#6f42c1" stroke="#6f42c1" stroke-width="2" points="1176.83,-487.34 1175.49,-482.21 1173.34,-487.05 1176.83,-487.34"/>
<text text-anchor="middle" x="792.72" y="-730.4" font-family="Times-Roman" font-size="7.00" fill="#6f42c1">about</text>
</g>
<!-- L4YAML.Proofs.ScannerCorrectness.collectPlainScalarLoop_preserves_simpleKeyStack&#45;&gt;L4YAML.Proofs.ScannerCorrectness.scanPlainScalar_preserves_simpleKeyStack -->
<g id="edge7" class="edge">
<title>L4YAML.Proofs.ScannerCorrectness.collectPlainScalarLoop_preserves_simpleKeyStack&#45;&gt;L4YAML.Proofs.ScannerCorrectness.scanPlainScalar_preserves_simpleKeyStack</title>
<path fill="none" stroke="#28a745" d="M465.57,-401.37C475.76,-395.62 485.2,-388.57 493.52,-380 510,-363.03 500.33,-297.44 503.52,-274 514.45,-193.48 479.2,-152.57 535.52,-94 551.61,-77.27 571.44,-64.98 592.9,-56.03"/>
<polygon fill="#28a745" stroke="#28a745" points="594.02,-58.22 599.61,-53.36 592.2,-53.67 594.02,-58.22"/>
</g>
<!-- Except.ok.injEq -->
<g id="node15" class="node">
<title>Except.ok.injEq</title>
<g id="a_node15"><a xlink:href="../../../api/Init/Core.html#Except.ok.injEq" xlink:title="Except.ok.injEq" target="_blank">
<ellipse fill="#fdebd0" stroke="#e67e22" cx="250.76" cy="-38" rx="49.4" ry="18"/>
<text text-anchor="middle" x="250.76" y="-35.5" font-family="Helvetica" font-size="10.00">Except.ok.injEq</text>
</a>
</g>
</g>
<!-- Except.ok.injEq&#45;&gt;L4YAML.Proofs.ScannerCorrectness.scanPlainScalar_preserves_simpleKeyStack -->
<g id="edge8" class="edge">
<title>Except.ok.injEq&#45;&gt;L4YAML.Proofs.ScannerCorrectness.scanPlainScalar_preserves_simpleKeyStack</title>
<path fill="none" stroke="#e67e22" stroke-width="2" d="M300.63,-38C354.9,-38 446.73,-38 536.39,-38"/>
<polygon fill="#e67e22" stroke="#e67e22" stroke-width="2" points="536.39,-40.45 543.39,-38 536.39,-35.55 536.39,-40.45"/>
</g>
</g>
</svg>
