<?xml version="1.0" encoding="UTF-8" standalone="no"?>
<!DOCTYPE svg PUBLIC "-//W3C//DTD SVG 1.1//EN"
 "http://www.w3.org/Graphics/SVG/1.1/DTD/svg11.dtd">
<!-- Generated by graphviz version 2.44.0 (0)
 -->
<!-- Title: ScannerCorrectness.scanFlowSequenceEnd_stack_popped Pages: 1 -->
<svg width="1148pt" height="609pt"
 viewBox="0.00 0.00 1148.18 609.00" xmlns="http://www.w3.org/2000/svg" xmlns:xlink="http://www.w3.org/1999/xlink">
<g id="graph0" class="graph" transform="scale(1 1) rotate(0) translate(4 605)">
<title>ScannerCorrectness.scanFlowSequenceEnd_stack_popped</title>
<polygon fill="white" stroke="transparent" points="-4,4 -4,-605 1144.18,-605 1144.18,4 -4,4"/>
<text text-anchor="middle" x="570.09" y="-586.6" font-family="Helvetica Bold" font-size="13.00">ScannerCorrectness.scanFlowSequenceEnd_stack_popped</text>
<text text-anchor="middle" x="570.09" y="-572.6" font-family="Helvetica Bold" font-size="13.00">(heuristic: used by 5 proofs)</text>
<text text-anchor="middle" x="570.09" y="-558.6" font-family="Helvetica Bold" font-size="13.00">(L4YAML.Proofs.Scanner.ScannerCorrectness)</text>
<g id="clust1" class="cluster">
<title>cluster_functions</title>
<polygon fill="none" stroke="#4a90d9" stroke-dasharray="5,2" points="618.8,-168 618.8,-404 1132.18,-404 1132.18,-168 618.8,-168"/>
<text text-anchor="middle" x="875.49" y="-389.6" font-family="Helvetica Bold" font-size="13.00" fill="#4a90d9">Functions</text>
</g>
<g id="clust2" class="cluster">
<title>cluster_key</title>
<polygon fill="none" stroke="#d4a017" stroke-dasharray="5,2" points="446.42,-8 446.42,-90 922.18,-90 922.18,-8 446.42,-8"/>
<text text-anchor="middle" x="684.3" y="-75.6" font-family="Helvetica Bold" font-size="13.00" fill="#d4a017">Key Theorem</text>
</g>
<g id="clust3" class="cluster">
<title>cluster_proofs</title>
<polygon fill="none" stroke="#28a745" stroke-dasharray="5,2" points="8,-219 8,-359 404.42,-359 404.42,-219 8,-219"/>
<text text-anchor="middle" x="206.21" y="-344.6" font-family="Helvetica Bold" font-size="13.00" fill="#28a745">Proof Dependencies</text>
</g>
<g id="clust4" class="cluster">
<title>cluster_stdlib</title>
<polygon fill="none" stroke="#e67e22" stroke-dasharray="5,2" points="150.71,-9 150.71,-137 261.71,-137 261.71,-9 150.71,-9"/>
<text text-anchor="middle" x="206.21" y="-122.6" font-family="Helvetica Bold" font-size="13.00" fill="#e67e22">Stdlib Lemmas</text>
</g>
<!-- L4YAML.Scanner.scanFlowSequenceEnd -->
<g id="node1" class="node">
<title>L4YAML.Scanner.scanFlowSequenceEnd</title>
<g id="a_node1"><a xlink:href="../../../api/L4YAML/Scanner/Scanner.html#L4YAML.Scanner.scanFlowSequenceEnd" xlink:title="scanFlowSequenceEnd\n(def)" target="_blank">
<polygon fill="#dce9f7" stroke="#4a90d9" points="1109.18,-212 990.18,-212 990.18,-176 1109.18,-176 1109.18,-212"/>
<text text-anchor="middle" x="1049.68" y="-197" font-family="Helvetica" font-size="10.00">scanFlowSequenceEnd</text>
<text text-anchor="middle" x="1049.68" y="-186" font-family="Helvetica" font-size="10.00">(def)</text>
</a>
</g>
</g>
<!-- L4YAML.Scanner.ScannerState.emit -->
<g id="node2" class="node">
<title>L4YAML.Scanner.ScannerState.emit</title>
<g id="a_node2"><a xlink:href="../../../api/L4YAML/Scanner/State.html#L4YAML.Scanner.ScannerState.emit" xlink:title="ScannerState.emit\n(def)" target="_blank">
<polygon fill="#dce9f7" stroke="#4a90d9" points="733.3,-320 635.3,-320 635.3,-284 733.3,-284 733.3,-320"/>
<text text-anchor="middle" x="684.3" y="-305" font-family="Helvetica" font-size="10.00">ScannerState.emit</text>
<text text-anchor="middle" x="684.3" y="-294" font-family="Helvetica" font-size="10.00">(def)</text>
</a>
</g>
</g>
<!-- L4YAML.Scanner.ScannerState.advance -->
<g id="node3" class="node">
<title>L4YAML.Scanner.ScannerState.advance</title>
<g id="a_node3"><a xlink:href="../../../api/L4YAML/Scanner/State.html#L4YAML.Scanner.ScannerState.advance" xlink:title="ScannerState.advance\n(def)" target="_blank">
<polygon fill="#dce9f7" stroke="#4a90d9" points="741.8,-374 626.8,-374 626.8,-338 741.8,-338 741.8,-374"/>
<text text-anchor="middle" x="684.3" y="-359" font-family="Helvetica" font-size="10.00">ScannerState.advance</text>
<text text-anchor="middle" x="684.3" y="-348" font-family="Helvetica" font-size="10.00">(def)</text>
</a>
</g>
</g>
<!-- L4YAML.YamlToken -->
<g id="node4" class="node">
<title>L4YAML.YamlToken</title>
<g id="a_node4"><a xlink:href="../../../api/L4YAML/Token/Token.html#L4YAML.YamlToken" xlink:title="YamlToken\n(inductive)" target="_blank">
<polygon fill="#dce9f7" stroke="#4a90d9" points="716.3,-266 652.3,-266 652.3,-230 716.3,-230 716.3,-266"/>
<text text-anchor="middle" x="684.3" y="-251" font-family="Helvetica" font-size="10.00">YamlToken</text>
<text text-anchor="middle" x="684.3" y="-240" font-family="Helvetica" font-size="10.00">(inductive)</text>
</a>
</g>
</g>
<!-- L4YAML.Scanner.ScannerState -->
<g id="node5" class="node">
<title>L4YAML.Scanner.ScannerState</title>
<g id="a_node5"><a xlink:href="../../../api/L4YAML/Scanner/State.html#L4YAML.Scanner.ScannerState" xlink:title="ScannerState\n(inductive)" target="_blank">
<polygon fill="#dce9f7" stroke="#4a90d9" points="1087.68,-374 1011.68,-374 1011.68,-338 1087.68,-338 1087.68,-374"/>
<text text-anchor="middle" x="1049.68" y="-359" font-family="Helvetica" font-size="10.00">ScannerState</text>
<text text-anchor="middle" x="1049.68" y="-348" font-family="Helvetica" font-size="10.00">(inductive)</text>
</a>
</g>
</g>
<!-- L4YAML.Scanner.ScannerState.simpleKeyStack -->
<g id="node6" class="node">
<title>L4YAML.Scanner.ScannerState.simpleKeyStack</title>
<g id="a_node6"><a xlink:href="../../../api/L4YAML/Scanner/State.html#L4YAML.Scanner.ScannerState.simpleKeyStack" xlink:title="ScannerState.simpleKeyStack\n(def)" target="_blank">
<polygon fill="#dce9f7" stroke="#4a90d9" points="1124.18,-320 975.18,-320 975.18,-284 1124.18,-284 1124.18,-320"/>
<text text-anchor="middle" x="1049.68" y="-305" font-family="Helvetica" font-size="10.00">ScannerState.simpleKeyStack</text>
<text text-anchor="middle" x="1049.68" y="-294" font-family="Helvetica" font-size="10.00">(def)</text>
</a>
</g>
</g>
<!-- L4YAML.Scanner.SimpleKeyState -->
<g id="node7" class="node">
<title>L4YAML.Scanner.SimpleKeyState</title>
<g id="a_node7"><a xlink:href="../../../api/L4YAML/Scanner/State.html#L4YAML.Scanner.SimpleKeyState" xlink:title="SimpleKeyState\n(inductive)" target="_blank">
<polygon fill="#dce9f7" stroke="#4a90d9" points="1092.68,-266 1006.68,-266 1006.68,-230 1092.68,-230 1092.68,-266"/>
<text text-anchor="middle" x="1049.68" y="-251" font-family="Helvetica" font-size="10.00">SimpleKeyState</text>
<text text-anchor="middle" x="1049.68" y="-240" font-family="Helvetica" font-size="10.00">(inductive)</text>
</a>
</g>
</g>
<!-- L4YAML.Proofs.ScannerCorrectness.scanFlowSequenceEnd_stack_popped -->
<g id="node8" class="node">
<title>L4YAML.Proofs.ScannerCorrectness.scanFlowSequenceEnd_stack_popped</title>
<g id="a_node8"><a xlink:href="../../../api/L4YAML/Proofs/Scanner/ScannerCorrectness.html#L4YAML.Proofs.ScannerCorrectness.scanFlowSequenceEnd_stack_popped" xlink:title="ScannerCorrectness.scanFlowSequenceEnd_stack_popped" target="_blank">
<polygon fill="#fff3cd" stroke="#d4a017" points="910.06,-30.54 910.06,-45.46 777.81,-56 590.79,-56 458.54,-45.46 458.54,-30.54 590.79,-20 777.81,-20 910.06,-30.54"/>
<polygon fill="none" stroke="#d4a017" points="914.06,-26.85 914.06,-49.15 777.97,-60 590.63,-60 454.55,-49.15 454.55,-26.85 590.63,-16 777.97,-16 914.06,-26.85"/>
<text text-anchor="middle" x="684.3" y="-34.9" font-family="Helvetica" font-size="12.00">ScannerCorrectness.scanFlowSequenceEnd_stack_popped</text>
</a>
</g>
</g>
<!-- L4YAML.Proofs.ScannerCorrectness.scanFlowSequenceEnd_stack_popped&#45;&gt;L4YAML.Scanner.scanFlowSequenceEnd -->
<g id="edge2" class="edge">
<title>L4YAML.Proofs.ScannerCorrectness.scanFlowSequenceEnd_stack_popped&#45;&gt;L4YAML.Scanner.scanFlowSequenceEnd</title>
<path fill="none" stroke="#4a90d9" stroke-width="2" d="M756.02,-15.95C814.12,-2.23 896.44,6.77 957.18,-29 1008.78,-59.39 1033.34,-130.52 1043.17,-168.7"/>
<polygon fill="#4a90d9" stroke="#4a90d9" stroke-width="2" points="1040.89,-169.67 1044.94,-175.88 1045.64,-168.5 1040.89,-169.67"/>
<text text-anchor="middle" x="944.68" y="-31.6" font-family="Times-Roman" font-size="8.00" fill="#4a90d9">about</text>
</g>
<!-- L4YAML.Proofs.ScannerCorrectness.scanFlowSequenceEnd_stack_popped&#45;&gt;L4YAML.Scanner.ScannerState -->
<g id="edge3" class="edge">
<title>L4YAML.Proofs.ScannerCorrectness.scanFlowSequenceEnd_stack_popped&#45;&gt;L4YAML.Scanner.ScannerState</title>
<path fill="none" stroke="#4a90d9" stroke-width="2" d="M852.21,-54.1C878,-62.82 902.55,-75.55 922.18,-94 933.35,-104.5 926.72,-112.68 932.18,-127 941.59,-151.72 949.94,-155.56 957.18,-181 966.25,-212.87 954.61,-303.03 975.18,-329 982.52,-338.27 993.35,-344.35 1004.46,-348.35"/>
<polygon fill="#4a90d9" stroke="#4a90d9" stroke-width="2" points="1003.97,-350.77 1011.38,-350.58 1005.47,-346.1 1003.97,-350.77"/>
<text text-anchor="middle" x="944.68" y="-183.6" font-family="Times-Roman" font-size="8.00" fill="#4a90d9">about</text>
</g>
<!-- L4YAML.Proofs.ScannerCorrectness.scanFlowSequenceEnd_stack_popped&#45;&gt;L4YAML.Scanner.ScannerState.simpleKeyStack -->
<g id="edge1" class="edge">
<title>L4YAML.Proofs.ScannerCorrectness.scanFlowSequenceEnd_stack_popped&#45;&gt;L4YAML.Scanner.ScannerState.simpleKeyStack</title>
<path fill="none" stroke="#4a90d9" stroke-width="2" d="M806.79,-57.72C844.71,-66.23 886.05,-78.01 922.18,-94 939.43,-101.63 947.45,-101.84 957.18,-118 993.41,-178.17 931.76,-219.79 975.18,-275 976.32,-276.45 977.54,-277.82 978.84,-279.12"/>
<polygon fill="#4a90d9" stroke="#4a90d9" stroke-width="2" points="977.3,-281.02 984.19,-283.77 980.52,-277.33 977.3,-281.02"/>
<text text-anchor="middle" x="944.68" y="-120.6" font-family="Times-Roman" font-size="8.00" fill="#4a90d9">about</text>
</g>
<!-- L4YAML.Proofs.ScannerCorrectness.scanFlowSequenceEnd_stack_popped&#45;&gt;L4YAML.Scanner.SimpleKeyState -->
<g id="edge4" class="edge">
<title>L4YAML.Proofs.ScannerCorrectness.scanFlowSequenceEnd_stack_popped&#45;&gt;L4YAML.Scanner.SimpleKeyState</title>
<path fill="none" stroke="#4a90d9" stroke-width="2" d="M794.71,-17.32C850.5,-13.42 915.24,-20.21 957.18,-61 982.83,-85.95 953.09,-192.85 975.18,-221 981.45,-228.99 990.33,-234.62 999.75,-238.58"/>
<polygon fill="#4a90d9" stroke="#4a90d9" stroke-width="2" points="998.93,-240.89 1006.34,-241.07 1000.66,-236.3 998.93,-240.89"/>
<text text-anchor="middle" x="944.68" y="-63.6" font-family="Times-Roman" font-size="8.00" fill="#4a90d9">about</text>
</g>
<!-- L4YAML.Proofs.ScannerCorrectness.emit_preserves_simpleKeyStack -->
<g id="node9" class="node">
<title>L4YAML.Proofs.ScannerCorrectness.emit_preserves_simpleKeyStack</title>
<g id="a_node9"><a xlink:href="../../../api/L4YAML/Proofs/Scanner/ScannerCorrectness.html#L4YAML.Proofs.ScannerCorrectness.emit_preserves_simpleKeyStack" xlink:title="ScannerCorrectness.emit_preserves_simpleKeyStack\n(Scanner.ScannerCorrectness)" target="_blank">
<ellipse fill="#d4edda" stroke="#28a745" cx="206.21" cy="-248" rx="177.47" ry="21.43"/>
<text text-anchor="middle" x="206.21" y="-251" font-family="Helvetica" font-size="10.00">ScannerCorrectness.emit_preserves_simpleKeyStack</text>
<text text-anchor="middle" x="206.21" y="-240" font-family="Helvetica" font-size="10.00">(Scanner.ScannerCorrectness)</text>
</a>
</g>
</g>
<!-- L4YAML.Proofs.ScannerCorrectness.emit_preserves_simpleKeyStack&#45;&gt;L4YAML.Scanner.ScannerState.emit -->
<g id="edge10" class="edge">
<title>L4YAML.Proofs.ScannerCorrectness.emit_preserves_simpleKeyStack&#45;&gt;L4YAML.Scanner.ScannerState.emit</title>
<path fill="none" stroke="#6f42c1" stroke-width="2" stroke-dasharray="5,2" d="M335.73,-262.58C432.29,-273.53 559.57,-287.97 630.24,-295.98"/>
<polygon fill="#6f42c1" stroke="#6f42c1" stroke-width="2" points="630.06,-297.72 635.23,-296.55 630.45,-294.24 630.06,-297.72"/>
<text text-anchor="middle" x="425.42" y="-275.4" font-family="Times-Roman" font-size="7.00" fill="#6f42c1">about</text>
</g>
<!-- L4YAML.Proofs.ScannerCorrectness.emit_preserves_simpleKeyStack&#45;&gt;L4YAML.YamlToken -->
<g id="edge11" class="edge">
<title>L4YAML.Proofs.ScannerCorrectness.emit_preserves_simpleKeyStack&#45;&gt;L4YAML.YamlToken</title>
<path fill="none" stroke="#6f42c1" stroke-width="2" stroke-dasharray="5,2" d="M383.81,-248C480.2,-248 591.02,-248 646.96,-248"/>
<polygon fill="#6f42c1" stroke="#6f42c1" stroke-width="2" points="647.2,-249.75 652.2,-248 647.2,-246.25 647.2,-249.75"/>
<text text-anchor="middle" x="425.42" y="-250.4" font-family="Times-Roman" font-size="7.00" fill="#6f42c1">about</text>
</g>
<!-- L4YAML.Proofs.ScannerCorrectness.emit_preserves_simpleKeyStack&#45;&gt;L4YAML.Scanner.ScannerState -->
<g id="edge12" class="edge">
<title>L4YAML.Proofs.ScannerCorrectness.emit_preserves_simpleKeyStack&#45;&gt;L4YAML.Scanner.ScannerState</title>
<path fill="none" stroke="#6f42c1" stroke-width="2" stroke-dasharray="5,2" d="M302.1,-230.09C472.57,-200.04 822.2,-148.76 922.18,-213 969.87,-243.64 933.6,-290.48 975.18,-329 983.99,-337.16 995.48,-342.91 1006.75,-346.93"/>
<polygon fill="#6f42c1" stroke="#6f42c1" stroke-width="2" points="1006.25,-348.61 1011.55,-348.55 1007.37,-345.3 1006.25,-348.61"/>
<text text-anchor="middle" x="684.3" y="-215.4" font-family="Times-Roman" font-size="7.00" fill="#6f42c1">about</text>
</g>
<!-- L4YAML.Proofs.ScannerCorrectness.emit_preserves_simpleKeyStack&#45;&gt;L4YAML.Scanner.ScannerState.simpleKeyStack -->
<g id="edge9" class="edge">
<title>L4YAML.Proofs.ScannerCorrectness.emit_preserves_simpleKeyStack&#45;&gt;L4YAML.Scanner.ScannerState.simpleKeyStack</title>
<path fill="none" stroke="#6f42c1" stroke-width="2" stroke-dasharray="5,2" d="M257.5,-227.59C305.21,-209.4 379.37,-184.13 446.42,-174 655.5,-142.4 715.57,-129.01 922.18,-174 938.89,-177.64 946.49,-176.65 957.18,-190 981.32,-220.14 949.9,-245.81 975.18,-275 977.01,-277.12 979.03,-279.07 981.19,-280.87"/>
<polygon fill="#6f42c1" stroke="#6f42c1" stroke-width="2" points="980.18,-282.3 985.21,-283.95 982.3,-279.52 980.18,-282.3"/>
<text text-anchor="middle" x="684.3" y="-176.4" font-family="Times-Roman" font-size="7.00" fill="#6f42c1">about</text>
</g>
<!-- L4YAML.Proofs.ScannerCorrectness.emit_preserves_simpleKeyStack&#45;&gt;L4YAML.Scanner.SimpleKeyState -->
<g id="edge13" class="edge">
<title>L4YAML.Proofs.ScannerCorrectness.emit_preserves_simpleKeyStack&#45;&gt;L4YAML.Scanner.SimpleKeyState</title>
<path fill="none" stroke="#6f42c1" stroke-width="2" stroke-dasharray="5,2" d="M237.94,-227.03C281.86,-198.46 366.15,-148.72 446.42,-130 501.69,-117.11 913.33,-93.97 957.18,-130 989.04,-156.17 948.4,-189.65 975.18,-221 982.08,-229.08 991.63,-234.75 1001.56,-238.72"/>
<polygon fill="#6f42c1" stroke="#6f42c1" stroke-width="2" points="1001.16,-240.43 1006.45,-240.53 1002.37,-237.15 1001.16,-240.43"/>
<text text-anchor="middle" x="684.3" y="-132.4" font-family="Times-Roman" font-size="7.00" fill="#6f42c1">about</text>
</g>
<!-- L4YAML.Proofs.ScannerCorrectness.emit_preserves_simpleKeyStack&#45;&gt;L4YAML.Proofs.ScannerCorrectness.scanFlowSequenceEnd_stack_popped -->
<g id="edge5" class="edge">
<title>L4YAML.Proofs.ScannerCorrectness.emit_preserves_simpleKeyStack&#45;&gt;L4YAML.Proofs.ScannerCorrectness.scanFlowSequenceEnd_stack_popped</title>
<path fill="none" stroke="#28a745" d="M271.63,-228.18C315.2,-211.57 370.73,-183.63 404.42,-141 414.99,-127.64 402.61,-116.28 414.42,-104 436.42,-81.13 464.94,-65.67 495.17,-55.31"/>
<polygon fill="#28a745" stroke="#28a745" points="496.18,-57.56 502.06,-53.05 494.65,-52.91 496.18,-57.56"/>
</g>
<!-- L4YAML.Proofs.ScannerCorrectness.advance_preserves_simpleKeyStack -->
<g id="node10" class="node">
<title>L4YAML.Proofs.ScannerCorrectness.advance_preserves_simpleKeyStack</title>
<g id="a_node10"><a xlink:href="../../../api/L4YAML/Proofs/Scanner/ScannerCorrectness.html#L4YAML.Proofs.ScannerCorrectness.advance_preserves_simpleKeyStack" xlink:title="ScannerCorrectness.advance_preserves_simpleKeyStack\n(Scanner.ScannerCorrectness)" target="_blank">
<ellipse fill="#d4edda" stroke="#28a745" cx="206.21" cy="-308" rx="190.42" ry="21.43"/>
<text text-anchor="middle" x="206.21" y="-311" font-family="Helvetica" font-size="10.00">ScannerCorrectness.advance_preserves_simpleKeyStack</text>
<text text-anchor="middle" x="206.21" y="-300" font-family="Helvetica" font-size="10.00">(Scanner.ScannerCorrectness)</text>
</a>
</g>
</g>
<!-- L4YAML.Proofs.ScannerCorrectness.advance_preserves_simpleKeyStack&#45;&gt;L4YAML.Scanner.ScannerState.advance -->
<g id="edge14" class="edge">
<title>L4YAML.Proofs.ScannerCorrectness.advance_preserves_simpleKeyStack&#45;&gt;L4YAML.Scanner.ScannerState.advance</title>
<path fill="none" stroke="#6f42c1" stroke-width="2" stroke-dasharray="5,2" d="M347.8,-322.17C438.67,-331.34 552.45,-342.81 621.42,-349.76"/>
<polygon fill="#6f42c1" stroke="#6f42c1" stroke-width="2" points="621.57,-351.53 626.72,-350.3 621.92,-348.05 621.57,-351.53"/>
<text text-anchor="middle" x="425.42" y="-332.4" font-family="Times-Roman" font-size="7.00" fill="#6f42c1">about</text>
</g>
<!-- L4YAML.Proofs.ScannerCorrectness.advance_preserves_simpleKeyStack&#45;&gt;L4YAML.Scanner.ScannerState -->
<g id="edge16" class="edge">
<title>L4YAML.Proofs.ScannerCorrectness.advance_preserves_simpleKeyStack&#45;&gt;L4YAML.Scanner.ScannerState</title>
<path fill="none" stroke="#6f42c1" stroke-width="2" stroke-dasharray="5,2" d="M229.32,-329.2C268.98,-365.65 356.53,-439.08 446.42,-468 662.63,-537.55 755.22,-587.89 957.18,-484 1000.07,-461.94 1027.32,-409.43 1040.1,-378.96"/>
<polygon fill="#6f42c1" stroke="#6f42c1" stroke-width="2" points="1041.75,-379.55 1042.03,-374.26 1038.51,-378.22 1041.75,-379.55"/>
<text text-anchor="middle" x="684.3" y="-545.4" font-family="Times-Roman" font-size="7.00" fill="#6f42c1">about</text>
</g>
<!-- L4YAML.Proofs.ScannerCorrectness.advance_preserves_simpleKeyStack&#45;&gt;L4YAML.Scanner.ScannerState.simpleKeyStack -->
<g id="edge15" class="edge">
<title>L4YAML.Proofs.ScannerCorrectness.advance_preserves_simpleKeyStack&#45;&gt;L4YAML.Scanner.ScannerState.simpleKeyStack</title>
<path fill="none" stroke="#6f42c1" stroke-width="2" stroke-dasharray="5,2" d="M234.46,-328.98C272.38,-356.78 344.3,-404.55 414.42,-424 472.56,-440.13 911.23,-479.1 957.18,-440 995.24,-407.61 943.38,-367.55 975.18,-329 976.82,-327.01 978.63,-325.16 980.56,-323.45"/>
<polygon fill="#6f42c1" stroke="#6f42c1" stroke-width="2" points="981.89,-324.63 984.7,-320.13 979.7,-321.9 981.89,-324.63"/>
<text text-anchor="middle" x="684.3" y="-458.4" font-family="Times-Roman" font-size="7.00" fill="#6f42c1">about</text>
</g>
<!-- L4YAML.Proofs.ScannerCorrectness.advance_preserves_simpleKeyStack&#45;&gt;L4YAML.Scanner.SimpleKeyState -->
<g id="edge17" class="edge">
<title>L4YAML.Proofs.ScannerCorrectness.advance_preserves_simpleKeyStack&#45;&gt;L4YAML.Scanner.SimpleKeyState</title>
<path fill="none" stroke="#6f42c1" stroke-width="2" stroke-dasharray="5,2" d="M258,-328.45C305.75,-346.58 379.67,-371.86 446.42,-383 502.42,-392.34 914.19,-433.07 957.18,-396 998.36,-360.5 940.86,-317.17 975.18,-275 981.96,-266.66 991.57,-260.9 1001.6,-256.92"/>
<polygon fill="#6f42c1" stroke="#6f42c1" stroke-width="2" points="1002.46,-258.47 1006.55,-255.1 1001.26,-255.18 1002.46,-258.47"/>
<text text-anchor="middle" x="684.3" y="-413.4" font-family="Times-Roman" font-size="7.00" fill="#6f42c1">about</text>
</g>
<!-- L4YAML.Proofs.ScannerCorrectness.advance_preserves_simpleKeyStack&#45;&gt;L4YAML.Proofs.ScannerCorrectness.scanFlowSequenceEnd_stack_popped -->
<g id="edge6" class="edge">
<title>L4YAML.Proofs.ScannerCorrectness.advance_preserves_simpleKeyStack&#45;&gt;L4YAML.Proofs.ScannerCorrectness.scanFlowSequenceEnd_stack_popped</title>
<path fill="none" stroke="#28a745" d="M317.98,-325.17C360.75,-325.32 406.48,-316.41 436.42,-285 451.09,-269.62 432.81,-110.32 446.42,-94 460.41,-77.24 478.4,-64.96 498.2,-56.04"/>
<polygon fill="#28a745" stroke="#28a745" points="499.22,-58.27 504.7,-53.26 497.3,-53.77 499.22,-58.27"/>
</g>
<!-- eq_self -->
<g id="node11" class="node">
<title>eq_self</title>
<g id="a_node11"><a xlink:href="../../../api/Init/SimpLemmas.html#eq_self" xlink:title="eq_self" target="_blank">
<ellipse fill="#fdebd0" stroke="#e67e22" cx="206.21" cy="-35" rx="28.01" ry="18"/>
<text text-anchor="middle" x="206.21" y="-32.5" font-family="Helvetica" font-size="10.00">eq_self</text>
</a>
</g>
</g>
<!-- eq_self&#45;&gt;L4YAML.Proofs.ScannerCorrectness.scanFlowSequenceEnd_stack_popped -->
<g id="edge7" class="edge">
<title>eq_self&#45;&gt;L4YAML.Proofs.ScannerCorrectness.scanFlowSequenceEnd_stack_popped</title>
<path fill="none" stroke="#e67e22" stroke-width="2" d="M234.52,-35.17C276.8,-35.44 362.13,-35.98 447.14,-36.51"/>
<polygon fill="#e67e22" stroke="#e67e22" stroke-width="2" points="447.29,-38.96 454.3,-36.56 447.32,-34.06 447.29,-38.96"/>
</g>
<!-- of_eq_true -->
<g id="node12" class="node">
<title>of_eq_true</title>
<g id="a_node12"><a xlink:href="../../../api/Init/SimpLemmas.html#of_eq_true" xlink:title="of_eq_true" target="_blank">
<ellipse fill="#fdebd0" stroke="#e67e22" cx="206.21" cy="-89" rx="36.49" ry="18"/>
<text text-anchor="middle" x="206.21" y="-86.5" font-family="Helvetica" font-size="10.00">of_eq_true</text>
</a>
</g>
</g>
<!-- of_eq_true&#45;&gt;L4YAML.Proofs.ScannerCorrectness.scanFlowSequenceEnd_stack_popped -->
<g id="edge8" class="edge">
<title>of_eq_true&#45;&gt;L4YAML.Proofs.ScannerCorrectness.scanFlowSequenceEnd_stack_popped</title>
<path fill="none" stroke="#e67e22" stroke-width="2" d="M242.22,-85.25C299.99,-79.06 418.84,-66.33 518.63,-55.64"/>
<polygon fill="#e67e22" stroke="#e67e22" stroke-width="2" points="519.08,-58.06 525.78,-54.87 518.56,-53.18 519.08,-58.06"/>
</g>
</g>
</svg>
