<?xml version="1.0" encoding="UTF-8" standalone="no"?>
<!DOCTYPE svg PUBLIC "-//W3C//DTD SVG 1.1//EN"
 "http://www.w3.org/Graphics/SVG/1.1/DTD/svg11.dtd">
<!-- Generated by graphviz version 2.44.0 (0)
 -->
<!-- Title: ScannerCorrectness.ScanInv_mono Pages: 1 -->
<svg width="835pt" height="418pt"
 viewBox="0.00 0.00 835.39 418.00" xmlns="http://www.w3.org/2000/svg" xmlns:xlink="http://www.w3.org/1999/xlink">
<g id="graph0" class="graph" transform="scale(1 1) rotate(0) translate(4 414)">
<title>ScannerCorrectness.ScanInv_mono</title>
<polygon fill="white" stroke="transparent" points="-4,4 -4,-414 831.39,-414 831.39,4 -4,4"/>
<text text-anchor="middle" x="413.69" y="-395.6" font-family="Helvetica Bold" font-size="13.00">ScannerCorrectness.ScanInv_mono</text>
<text text-anchor="middle" x="413.69" y="-381.6" font-family="Helvetica Bold" font-size="13.00">(heuristic: used by 9 proofs)</text>
<text text-anchor="middle" x="413.69" y="-367.6" font-family="Helvetica Bold" font-size="13.00">(L4YAML.Proofs.Scanner.ScannerCorrectness)</text>
<g id="clust1" class="cluster">
<title>cluster_functions</title>
<polygon fill="none" stroke="#4a90d9" stroke-dasharray="5,2" points="658.39,-8 658.39,-352 819.39,-352 819.39,-8 658.39,-8"/>
<text text-anchor="middle" x="738.89" y="-337.6" font-family="Helvetica Bold" font-size="13.00" fill="#4a90d9">Functions</text>
</g>
<g id="clust2" class="cluster">
<title>cluster_key</title>
<polygon fill="none" stroke="#d4a017" stroke-dasharray="5,2" points="310.87,-143 310.87,-225 613.39,-225 613.39,-143 310.87,-143"/>
<text text-anchor="middle" x="462.13" y="-210.6" font-family="Helvetica Bold" font-size="13.00" fill="#d4a017">Key Theorem</text>
</g>
<g id="clust3" class="cluster">
<title>cluster_proofs</title>
<polygon fill="none" stroke="#28a745" stroke-dasharray="5,2" points="8,-232 8,-312 289.87,-312 289.87,-232 8,-232"/>
<text text-anchor="middle" x="148.94" y="-297.6" font-family="Helvetica Bold" font-size="13.00" fill="#28a745">Proof Dependencies</text>
</g>
<g id="clust4" class="cluster">
<title>cluster_stdlib</title>
<polygon fill="none" stroke="#e67e22" stroke-dasharray="5,2" points="54.4,-95 54.4,-223 243.47,-223 243.47,-95 54.4,-95"/>
<text text-anchor="middle" x="148.94" y="-208.6" font-family="Helvetica Bold" font-size="13.00" fill="#e67e22">Stdlib Lemmas</text>
</g>
<!-- L4YAML.Proofs.ScannerCorrectness.ScanInv -->
<g id="node1" class="node">
<title>L4YAML.Proofs.ScannerCorrectness.ScanInv</title>
<g id="a_node1"><a xlink:href="../../../api/L4YAML/Proofs/Scanner/ScannerCorrectness.html#L4YAML.Proofs.ScannerCorrectness.ScanInv" xlink:title="ScannerCorrectness.ScanInv\n(def)" target="_blank">
<polygon fill="#dce9f7" stroke="#4a90d9" points="811.39,-106 666.39,-106 666.39,-70 811.39,-70 811.39,-106"/>
<text text-anchor="middle" x="738.89" y="-91" font-family="Helvetica" font-size="10.00">ScannerCorrectness.ScanInv</text>
<text text-anchor="middle" x="738.89" y="-80" font-family="Helvetica" font-size="10.00">(def)</text>
</a>
</g>
</g>
<!-- L4YAML.Positioned -->
<g id="node2" class="node">
<title>L4YAML.Positioned</title>
<g id="a_node2"><a xlink:href="../../../api/L4YAML/Token/Token.html#L4YAML.Positioned" xlink:title="Positioned\n(inductive)" target="_blank">
<polygon fill="#dce9f7" stroke="#4a90d9" points="769.89,-322 707.89,-322 707.89,-286 769.89,-286 769.89,-322"/>
<text text-anchor="middle" x="738.89" y="-307" font-family="Helvetica" font-size="10.00">Positioned</text>
<text text-anchor="middle" x="738.89" y="-296" font-family="Helvetica" font-size="10.00">(inductive)</text>
</a>
</g>
</g>
<!-- L4YAML.Scanner.ScannerState -->
<g id="node3" class="node">
<title>L4YAML.Scanner.ScannerState</title>
<g id="a_node3"><a xlink:href="../../../api/L4YAML/Scanner/State.html#L4YAML.Scanner.ScannerState" xlink:title="ScannerState\n(inductive)" target="_blank">
<polygon fill="#dce9f7" stroke="#4a90d9" points="776.89,-52 700.89,-52 700.89,-16 776.89,-16 776.89,-52"/>
<text text-anchor="middle" x="738.89" y="-37" font-family="Helvetica" font-size="10.00">ScannerState</text>
<text text-anchor="middle" x="738.89" y="-26" font-family="Helvetica" font-size="10.00">(inductive)</text>
</a>
</g>
</g>
<!-- L4YAML.YamlToken -->
<g id="node4" class="node">
<title>L4YAML.YamlToken</title>
<g id="a_node4"><a xlink:href="../../../api/L4YAML/Token/Token.html#L4YAML.YamlToken" xlink:title="YamlToken\n(inductive)" target="_blank">
<polygon fill="#dce9f7" stroke="#4a90d9" points="770.89,-268 706.89,-268 706.89,-232 770.89,-232 770.89,-268"/>
<text text-anchor="middle" x="738.89" y="-253" font-family="Helvetica" font-size="10.00">YamlToken</text>
<text text-anchor="middle" x="738.89" y="-242" font-family="Helvetica" font-size="10.00">(inductive)</text>
</a>
</g>
</g>
<!-- L4YAML.Scanner.ScannerState.offset -->
<g id="node5" class="node">
<title>L4YAML.Scanner.ScannerState.offset</title>
<g id="a_node5"><a xlink:href="../../../api/L4YAML/Scanner/State.html#L4YAML.Scanner.ScannerState.offset" xlink:title="ScannerState.offset\n(def)" target="_blank">
<polygon fill="#dce9f7" stroke="#4a90d9" points="790.39,-214 687.39,-214 687.39,-178 790.39,-178 790.39,-214"/>
<text text-anchor="middle" x="738.89" y="-199" font-family="Helvetica" font-size="10.00">ScannerState.offset</text>
<text text-anchor="middle" x="738.89" y="-188" font-family="Helvetica" font-size="10.00">(def)</text>
</a>
</g>
</g>
<!-- L4YAML.Scanner.ScannerState.tokens -->
<g id="node6" class="node">
<title>L4YAML.Scanner.ScannerState.tokens</title>
<g id="a_node6"><a xlink:href="../../../api/L4YAML/Scanner/State.html#L4YAML.Scanner.ScannerState.tokens" xlink:title="ScannerState.tokens\n(def)" target="_blank">
<polygon fill="#dce9f7" stroke="#4a90d9" points="792.39,-160 685.39,-160 685.39,-124 792.39,-124 792.39,-160"/>
<text text-anchor="middle" x="738.89" y="-145" font-family="Helvetica" font-size="10.00">ScannerState.tokens</text>
<text text-anchor="middle" x="738.89" y="-134" font-family="Helvetica" font-size="10.00">(def)</text>
</a>
</g>
</g>
<!-- L4YAML.Proofs.ScannerCorrectness.ScanInv_mono -->
<g id="node7" class="node">
<title>L4YAML.Proofs.ScannerCorrectness.ScanInv_mono</title>
<g id="a_node7"><a xlink:href="../../../api/L4YAML/Proofs/Scanner/ScannerCorrectness.html#L4YAML.Proofs.ScannerCorrectness.ScanInv_mono" xlink:title="ScannerCorrectness.ScanInv_mono" target="_blank">
<polygon fill="#fff3cd" stroke="#d4a017" points="601.15,-165.54 601.15,-180.46 519.72,-191 404.54,-191 323.11,-180.46 323.11,-165.54 404.54,-155 519.72,-155 601.15,-165.54"/>
<polygon fill="none" stroke="#d4a017" points="605.15,-162.03 605.15,-183.97 519.97,-195 404.29,-195 319.11,-183.97 319.11,-162.03 404.29,-151 519.97,-151 605.15,-162.03"/>
<text text-anchor="middle" x="462.13" y="-169.9" font-family="Helvetica" font-size="12.00">ScannerCorrectness.ScanInv_mono</text>
</a>
</g>
</g>
<!-- L4YAML.Proofs.ScannerCorrectness.ScanInv_mono&#45;&gt;L4YAML.Proofs.ScannerCorrectness.ScanInv -->
<g id="edge2" class="edge">
<title>L4YAML.Proofs.ScannerCorrectness.ScanInv_mono&#45;&gt;L4YAML.Proofs.ScannerCorrectness.ScanInv</title>
<path fill="none" stroke="#4a90d9" stroke-width="2" d="M530.34,-152.21C573.62,-138.82 629.61,-121.5 672.52,-108.22"/>
<polygon fill="#4a90d9" stroke="#4a90d9" stroke-width="2" points="673.33,-110.54 679.29,-106.13 671.88,-105.86 673.33,-110.54"/>
<text text-anchor="middle" x="635.89" y="-124.6" font-family="Times-Roman" font-size="8.00" fill="#4a90d9">about</text>
</g>
<!-- L4YAML.Proofs.ScannerCorrectness.ScanInv_mono&#45;&gt;L4YAML.Positioned -->
<g id="edge3" class="edge">
<title>L4YAML.Proofs.ScannerCorrectness.ScanInv_mono&#45;&gt;L4YAML.Positioned</title>
<path fill="none" stroke="#4a90d9" stroke-width="2" d="M522.9,-194.64C551.29,-206.06 585.1,-221.36 613.39,-239 635.6,-252.85 635.6,-264.12 658.39,-277 671.46,-284.39 686.89,-290.2 700.66,-294.51"/>
<polygon fill="#4a90d9" stroke="#4a90d9" stroke-width="2" points="700.28,-296.96 707.69,-296.63 701.7,-292.27 700.28,-296.96"/>
<text text-anchor="middle" x="635.89" y="-272.6" font-family="Times-Roman" font-size="8.00" fill="#4a90d9">about</text>
</g>
<!-- L4YAML.Proofs.ScannerCorrectness.ScanInv_mono&#45;&gt;L4YAML.Scanner.ScannerState -->
<g id="edge6" class="edge">
<title>L4YAML.Proofs.ScannerCorrectness.ScanInv_mono&#45;&gt;L4YAML.Scanner.ScannerState</title>
<path fill="none" stroke="#4a90d9" stroke-width="2" d="M496.98,-150.88C535.1,-126.63 599.44,-87.61 658.39,-61 669.6,-55.94 682.07,-51.28 693.74,-47.3"/>
<polygon fill="#4a90d9" stroke="#4a90d9" stroke-width="2" points="694.64,-49.59 700.5,-45.05 693.09,-44.94 694.64,-49.59"/>
<text text-anchor="middle" x="635.89" y="-78.6" font-family="Times-Roman" font-size="8.00" fill="#4a90d9">about</text>
</g>
<!-- L4YAML.Proofs.ScannerCorrectness.ScanInv_mono&#45;&gt;L4YAML.YamlToken -->
<g id="edge5" class="edge">
<title>L4YAML.Proofs.ScannerCorrectness.ScanInv_mono&#45;&gt;L4YAML.YamlToken</title>
<path fill="none" stroke="#4a90d9" stroke-width="2" d="M602.95,-184.29C619.13,-189.45 634.71,-196.49 648.39,-206 655.58,-211 651.59,-217.47 658.39,-223 670.24,-232.65 685.72,-238.92 699.87,-242.97"/>
<polygon fill="#4a90d9" stroke="#4a90d9" stroke-width="2" points="699.29,-245.35 706.68,-244.78 700.55,-240.61 699.29,-245.35"/>
<text text-anchor="middle" x="635.89" y="-208.6" font-family="Times-Roman" font-size="8.00" fill="#4a90d9">about</text>
</g>
<!-- L4YAML.Proofs.ScannerCorrectness.ScanInv_mono&#45;&gt;L4YAML.Scanner.ScannerState.offset -->
<g id="edge4" class="edge">
<title>L4YAML.Proofs.ScannerCorrectness.ScanInv_mono&#45;&gt;L4YAML.Scanner.ScannerState.offset</title>
<path fill="none" stroke="#4a90d9" stroke-width="2" d="M605.21,-170.36C619.82,-171.1 634.42,-172.27 648.39,-174 658.81,-175.29 669.77,-177.37 680.31,-179.74"/>
<polygon fill="#4a90d9" stroke="#4a90d9" stroke-width="2" points="679.79,-182.13 687.16,-181.33 680.9,-177.36 679.79,-182.13"/>
<text text-anchor="middle" x="635.89" y="-176.6" font-family="Times-Roman" font-size="8.00" fill="#4a90d9">about</text>
</g>
<!-- L4YAML.Proofs.ScannerCorrectness.ScanInv_mono&#45;&gt;L4YAML.Scanner.ScannerState.tokens -->
<g id="edge1" class="edge">
<title>L4YAML.Proofs.ScannerCorrectness.ScanInv_mono&#45;&gt;L4YAML.Scanner.ScannerState.tokens</title>
<path fill="none" stroke="#4a90d9" stroke-width="2" d="M584.44,-159.31C616.91,-155.65 650.58,-151.85 678.09,-148.75"/>
<polygon fill="#4a90d9" stroke="#4a90d9" stroke-width="2" points="678.63,-151.15 685.31,-147.93 678.08,-146.28 678.63,-151.15"/>
<text text-anchor="middle" x="635.89" y="-156.6" font-family="Times-Roman" font-size="8.00" fill="#4a90d9">about</text>
</g>
<!-- L4YAML.Proofs.ScannerCorrectness.ScanInv&#39;._proof_2 -->
<g id="node8" class="node">
<title>L4YAML.Proofs.ScannerCorrectness.ScanInv&#39;._proof_2</title>
<g id="a_node8"><a xlink:href="../../../api/L4YAML/Proofs/Scanner/ScannerCorrectness.html#L4YAML.Proofs.ScannerCorrectness.ScanInv&#39;._proof_2" xlink:title="ScannerCorrectness.ScanInv&#39;._proof_2\n(Scanner.ScannerCorrectness)" target="_blank">
<ellipse fill="#d4edda" stroke="#28a745" cx="148.94" cy="-261" rx="132.87" ry="21.43"/>
<text text-anchor="middle" x="148.94" y="-264" font-family="Helvetica" font-size="10.00">ScannerCorrectness.ScanInv&#39;._proof_2</text>
<text text-anchor="middle" x="148.94" y="-253" font-family="Helvetica" font-size="10.00">(Scanner.ScannerCorrectness)</text>
</a>
</g>
</g>
<!-- L4YAML.Proofs.ScannerCorrectness.ScanInv&#39;._proof_2&#45;&gt;L4YAML.Positioned -->
<g id="edge10" class="edge">
<title>L4YAML.Proofs.ScannerCorrectness.ScanInv&#39;._proof_2&#45;&gt;L4YAML.Positioned</title>
<path fill="none" stroke="#6f42c1" stroke-width="2" stroke-dasharray="5,2" d="M270.24,-269.83C280.26,-270.56 290.24,-271.29 299.87,-272 449.69,-282.97 628.35,-296.01 702.71,-301.43"/>
<polygon fill="#6f42c1" stroke="#6f42c1" stroke-width="2" points="702.77,-303.19 707.88,-301.81 703.02,-299.7 702.77,-303.19"/>
<text text-anchor="middle" x="462.13" y="-296.4" font-family="Times-Roman" font-size="7.00" fill="#6f42c1">about</text>
</g>
<!-- L4YAML.Proofs.ScannerCorrectness.ScanInv&#39;._proof_2&#45;&gt;L4YAML.YamlToken -->
<g id="edge11" class="edge">
<title>L4YAML.Proofs.ScannerCorrectness.ScanInv&#39;._proof_2&#45;&gt;L4YAML.YamlToken</title>
<path fill="none" stroke="#6f42c1" stroke-width="2" stroke-dasharray="5,2" d="M281.15,-258.55C416.6,-256.01 619.37,-252.22 701.45,-250.68"/>
<polygon fill="#6f42c1" stroke="#6f42c1" stroke-width="2" points="701.71,-252.43 706.68,-250.58 701.65,-248.93 701.71,-252.43"/>
<text text-anchor="middle" x="462.13" y="-259.4" font-family="Times-Roman" font-size="7.00" fill="#6f42c1">about</text>
</g>
<!-- L4YAML.Proofs.ScannerCorrectness.ScanInv&#39;._proof_2&#45;&gt;L4YAML.Proofs.ScannerCorrectness.ScanInv_mono -->
<g id="edge7" class="edge">
<title>L4YAML.Proofs.ScannerCorrectness.ScanInv&#39;._proof_2&#45;&gt;L4YAML.Proofs.ScannerCorrectness.ScanInv_mono</title>
<path fill="none" stroke="#28a745" d="M225.71,-243.57C246.57,-238.51 269.16,-232.77 289.87,-227 323.23,-217.7 359.89,-206.3 390.71,-196.38"/>
<polygon fill="#28a745" stroke="#28a745" points="391.68,-198.64 397.59,-194.15 390.18,-193.97 391.68,-198.64"/>
</g>
<!-- GetElem.getElem.congr_simp -->
<g id="node9" class="node">
<title>GetElem.getElem.congr_simp</title>
<g id="a_node9"><a xlink:href="../../../api/Init/GetElem.html#GetElem.getElem.congr_simp" xlink:title="GetElem.getElem.congr_simp" target="_blank">
<ellipse fill="#fdebd0" stroke="#e67e22" cx="148.94" cy="-175" rx="86.57" ry="18"/>
<text text-anchor="middle" x="148.94" y="-172.5" font-family="Helvetica" font-size="10.00">GetElem.getElem.congr_simp</text>
</a>
</g>
</g>
<!-- GetElem.getElem.congr_simp&#45;&gt;L4YAML.Proofs.ScannerCorrectness.ScanInv_mono -->
<g id="edge8" class="edge">
<title>GetElem.getElem.congr_simp&#45;&gt;L4YAML.Proofs.ScannerCorrectness.ScanInv_mono</title>
<path fill="none" stroke="#e67e22" stroke-width="2" d="M235.8,-174.45C259.49,-174.3 285.91,-174.13 312.09,-173.96"/>
<polygon fill="#e67e22" stroke="#e67e22" stroke-width="2" points="312.11,-176.41 319.09,-173.91 312.08,-171.51 312.11,-176.41"/>
</g>
<!-- Nat.le_trans -->
<g id="node10" class="node">
<title>Nat.le_trans</title>
<g id="a_node10"><a xlink:href="../../../api/Init/Prelude.html#Nat.le_trans" xlink:title="Nat.le_trans" target="_blank">
<ellipse fill="#fdebd0" stroke="#e67e22" cx="148.94" cy="-121" rx="40.74" ry="18"/>
<text text-anchor="middle" x="148.94" y="-118.5" font-family="Helvetica" font-size="10.00">Nat.le_trans</text>
</a>
</g>
</g>
<!-- Nat.le_trans&#45;&gt;L4YAML.Proofs.ScannerCorrectness.ScanInv_mono -->
<g id="edge9" class="edge">
<title>Nat.le_trans&#45;&gt;L4YAML.Proofs.ScannerCorrectness.ScanInv_mono</title>
<path fill="none" stroke="#e67e22" stroke-width="2" d="M187.16,-127.22C228.4,-134.11 296.75,-145.53 354.86,-155.24"/>
<polygon fill="#e67e22" stroke="#e67e22" stroke-width="2" points="354.58,-157.68 361.89,-156.42 355.39,-152.85 354.58,-157.68"/>
</g>
</g>
</svg>
