<?xml version="1.0" encoding="UTF-8" standalone="no"?>
<!DOCTYPE svg PUBLIC "-//W3C//DTD SVG 1.1//EN"
 "http://www.w3.org/Graphics/SVG/1.1/DTD/svg11.dtd">
<!-- Generated by graphviz version 2.44.0 (0)
 -->
<!-- Title: ScannerCorrectness.scanValue_preserves_simpleKeyStack Pages: 1 -->
<svg width="1344pt" height="839pt"
 viewBox="0.00 0.00 1344.49 839.18" xmlns="http://www.w3.org/2000/svg" xmlns:xlink="http://www.w3.org/1999/xlink">
<g id="graph0" class="graph" transform="scale(1 1) rotate(0) translate(4 835.18)">
<title>ScannerCorrectness.scanValue_preserves_simpleKeyStack</title>
<polygon fill="white" stroke="transparent" points="-4,4 -4,-835.18 1340.49,-835.18 1340.49,4 -4,4"/>
<text text-anchor="middle" x="668.25" y="-816.78" font-family="Helvetica Bold" font-size="13.00">ScannerCorrectness.scanValue_preserves_simpleKeyStack</text>
<text text-anchor="middle" x="668.25" y="-802.78" font-family="Helvetica Bold" font-size="13.00">(heuristic: used by 5 proofs)</text>
<text text-anchor="middle" x="668.25" y="-788.78" font-family="Helvetica Bold" font-size="13.00">(L4YAML.Proofs.Scanner.ScannerCorrectness)</text>
<g id="clust1" class="cluster">
<title>cluster_functions</title>
<polygon fill="none" stroke="#4a90d9" stroke-dasharray="5,2" points="802.78,-483.18 802.78,-773.18 1328.49,-773.18 1328.49,-483.18 802.78,-483.18"/>
<text text-anchor="middle" x="1065.63" y="-758.78" font-family="Helvetica Bold" font-size="13.00" fill="#4a90d9">Functions</text>
</g>
<g id="clust2" class="cluster">
<title>cluster_key</title>
<polygon fill="none" stroke="#d4a017" stroke-dasharray="5,2" points="644.07,-393.18 644.07,-475.18 1118.49,-475.18 1118.49,-393.18 644.07,-393.18"/>
<text text-anchor="middle" x="881.28" y="-460.78" font-family="Helvetica Bold" font-size="13.00" fill="#d4a017">Key Theorem</text>
</g>
<g id="clust3" class="cluster">
<title>cluster_proofs</title>
<polygon fill="none" stroke="#28a745" stroke-dasharray="5,2" points="77.12,-141.18 77.12,-341.18 532.94,-341.18 532.94,-141.18 77.12,-141.18"/>
<text text-anchor="middle" x="305.03" y="-326.78" font-family="Helvetica Bold" font-size="13.00" fill="#28a745">Proof Dependencies</text>
</g>
<g id="clust4" class="cluster">
<title>cluster_stdlib</title>
<polygon fill="none" stroke="#e67e22" stroke-dasharray="5,2" points="8,-435.18 8,-563.18 602.07,-563.18 602.07,-435.18 8,-435.18"/>
<text text-anchor="middle" x="305.03" y="-548.78" font-family="Helvetica Bold" font-size="13.00" fill="#e67e22">Stdlib Lemmas</text>
</g>
<!-- L4YAML.Scanner.ScannerState.emit -->
<g id="node1" class="node">
<title>L4YAML.Scanner.ScannerState.emit</title>
<g id="a_node1"><a xlink:href="../../../api/L4YAML/Scanner/State.html#L4YAML.Scanner.ScannerState.emit" xlink:title="ScannerState.emit\n(def)" target="_blank">
<polygon fill="#dce9f7" stroke="#4a90d9" points="930.28,-635.18 832.28,-635.18 832.28,-599.18 930.28,-599.18 930.28,-635.18"/>
<text text-anchor="middle" x="881.28" y="-620.18" font-family="Helvetica" font-size="10.00">ScannerState.emit</text>
<text text-anchor="middle" x="881.28" y="-609.18" font-family="Helvetica" font-size="10.00">(def)</text>
</a>
</g>
</g>
<!-- L4YAML.Scanner.ScannerState.advance -->
<g id="node2" class="node">
<title>L4YAML.Scanner.ScannerState.advance</title>
<g id="a_node2"><a xlink:href="../../../api/L4YAML/Scanner/State.html#L4YAML.Scanner.ScannerState.advance" xlink:title="ScannerState.advance\n(def)" target="_blank">
<polygon fill="#dce9f7" stroke="#4a90d9" points="938.78,-527.18 823.78,-527.18 823.78,-491.18 938.78,-491.18 938.78,-527.18"/>
<text text-anchor="middle" x="881.28" y="-512.18" font-family="Helvetica" font-size="10.00">ScannerState.advance</text>
<text text-anchor="middle" x="881.28" y="-501.18" font-family="Helvetica" font-size="10.00">(def)</text>
</a>
</g>
</g>
<!-- L4YAML.YamlToken -->
<g id="node3" class="node">
<title>L4YAML.YamlToken</title>
<g id="a_node3"><a xlink:href="../../../api/L4YAML/Token/Token.html#L4YAML.YamlToken" xlink:title="YamlToken\n(inductive)" target="_blank">
<polygon fill="#dce9f7" stroke="#4a90d9" points="913.28,-581.18 849.28,-581.18 849.28,-545.18 913.28,-545.18 913.28,-581.18"/>
<text text-anchor="middle" x="881.28" y="-566.18" font-family="Helvetica" font-size="10.00">YamlToken</text>
<text text-anchor="middle" x="881.28" y="-555.18" font-family="Helvetica" font-size="10.00">(inductive)</text>
</a>
</g>
</g>
<!-- L4YAML.Scanner.ScannerState -->
<g id="node4" class="node">
<title>L4YAML.Scanner.ScannerState</title>
<g id="a_node4"><a xlink:href="../../../api/L4YAML/Scanner/State.html#L4YAML.Scanner.ScannerState" xlink:title="ScannerState\n(inductive)" target="_blank">
<polygon fill="#dce9f7" stroke="#4a90d9" points="1283.99,-635.18 1207.99,-635.18 1207.99,-599.18 1283.99,-599.18 1283.99,-635.18"/>
<text text-anchor="middle" x="1245.99" y="-620.18" font-family="Helvetica" font-size="10.00">ScannerState</text>
<text text-anchor="middle" x="1245.99" y="-609.18" font-family="Helvetica" font-size="10.00">(inductive)</text>
</a>
</g>
</g>
<!-- L4YAML.Scanner.ScannerState.simpleKeyStack -->
<g id="node5" class="node">
<title>L4YAML.Scanner.ScannerState.simpleKeyStack</title>
<g id="a_node5"><a xlink:href="../../../api/L4YAML/Scanner/State.html#L4YAML.Scanner.ScannerState.simpleKeyStack" xlink:title="ScannerState.simpleKeyStack\n(def)" target="_blank">
<polygon fill="#dce9f7" stroke="#4a90d9" points="1320.49,-581.18 1171.49,-581.18 1171.49,-545.18 1320.49,-545.18 1320.49,-581.18"/>
<text text-anchor="middle" x="1245.99" y="-566.18" font-family="Helvetica" font-size="10.00">ScannerState.simpleKeyStack</text>
<text text-anchor="middle" x="1245.99" y="-555.18" font-family="Helvetica" font-size="10.00">(def)</text>
</a>
</g>
</g>
<!-- L4YAML.Scanner.scanValueClearKey.match_1 -->
<g id="node6" class="node">
<title>L4YAML.Scanner.scanValueClearKey.match_1</title>
<g id="a_node6"><a xlink:href="../../../api/L4YAML/Scanner/SimpleKey.html#L4YAML.Scanner.scanValueClearKey.match_1" xlink:title="scanValueClearKey.match_1\n(def)" target="_blank">
<polygon fill="#dce9f7" stroke="#4a90d9" points="951.78,-743.18 810.78,-743.18 810.78,-707.18 951.78,-707.18 951.78,-743.18"/>
<text text-anchor="middle" x="881.28" y="-728.18" font-family="Helvetica" font-size="10.00">scanValueClearKey.match_1</text>
<text text-anchor="middle" x="881.28" y="-717.18" font-family="Helvetica" font-size="10.00">(def)</text>
</a>
</g>
</g>
<!-- L4YAML.ScanError -->
<g id="node7" class="node">
<title>L4YAML.ScanError</title>
<g id="a_node7"><a xlink:href="../../../api/L4YAML/Token/Token.html#L4YAML.ScanError" xlink:title="ScanError\n(inductive)" target="_blank">
<polygon fill="#dce9f7" stroke="#4a90d9" points="1276.99,-743.18 1214.99,-743.18 1214.99,-707.18 1276.99,-707.18 1276.99,-743.18"/>
<text text-anchor="middle" x="1245.99" y="-728.18" font-family="Helvetica" font-size="10.00">ScanError</text>
<text text-anchor="middle" x="1245.99" y="-717.18" font-family="Helvetica" font-size="10.00">(inductive)</text>
</a>
</g>
</g>
<!-- L4YAML.Scanner.scanValuePrepare -->
<g id="node8" class="node">
<title>L4YAML.Scanner.scanValuePrepare</title>
<g id="a_node8"><a xlink:href="../../../api/L4YAML/Scanner/SimpleKey.html#L4YAML.Scanner.scanValuePrepare" xlink:title="scanValuePrepare\n(def)" target="_blank">
<polygon fill="#dce9f7" stroke="#4a90d9" points="928.78,-689.18 833.78,-689.18 833.78,-653.18 928.78,-653.18 928.78,-689.18"/>
<text text-anchor="middle" x="881.28" y="-674.18" font-family="Helvetica" font-size="10.00">scanValuePrepare</text>
<text text-anchor="middle" x="881.28" y="-663.18" font-family="Helvetica" font-size="10.00">(def)</text>
</a>
</g>
</g>
<!-- L4YAML.Scanner.scanValue -->
<g id="node9" class="node">
<title>L4YAML.Scanner.scanValue</title>
<g id="a_node9"><a xlink:href="../../../api/L4YAML/Scanner/SimpleKey.html#L4YAML.Scanner.scanValue" xlink:title="scanValue\n(def)" target="_blank">
<polygon fill="#dce9f7" stroke="#4a90d9" points="1276.99,-689.18 1214.99,-689.18 1214.99,-653.18 1276.99,-653.18 1276.99,-689.18"/>
<text text-anchor="middle" x="1245.99" y="-674.18" font-family="Helvetica" font-size="10.00">scanValue</text>
<text text-anchor="middle" x="1245.99" y="-663.18" font-family="Helvetica" font-size="10.00">(def)</text>
</a>
</g>
</g>
<!-- L4YAML.Scanner.SimpleKeyState -->
<g id="node10" class="node">
<title>L4YAML.Scanner.SimpleKeyState</title>
<g id="a_node10"><a xlink:href="../../../api/L4YAML/Scanner/State.html#L4YAML.Scanner.SimpleKeyState" xlink:title="SimpleKeyState\n(inductive)" target="_blank">
<polygon fill="#dce9f7" stroke="#4a90d9" points="1288.99,-527.18 1202.99,-527.18 1202.99,-491.18 1288.99,-491.18 1288.99,-527.18"/>
<text text-anchor="middle" x="1245.99" y="-512.18" font-family="Helvetica" font-size="10.00">SimpleKeyState</text>
<text text-anchor="middle" x="1245.99" y="-501.18" font-family="Helvetica" font-size="10.00">(inductive)</text>
</a>
</g>
</g>
<!-- L4YAML.Proofs.ScannerCorrectness.scanValue_preserves_simpleKeyStack -->
<g id="node11" class="node">
<title>L4YAML.Proofs.ScannerCorrectness.scanValue_preserves_simpleKeyStack</title>
<g id="a_node11"><a xlink:href="../../../api/L4YAML/Proofs/Scanner/ScannerCorrectness.html#L4YAML.Proofs.ScannerCorrectness.scanValue_preserves_simpleKeyStack" xlink:title="ScannerCorrectness.scanValue_preserves_simpleKeyStack" target="_blank">
<polygon fill="#fff3cd" stroke="#d4a017" points="1106.7,-415.73 1106.7,-430.64 974.65,-441.18 787.91,-441.18 655.86,-430.64 655.86,-415.73 787.91,-405.18 974.65,-405.18 1106.7,-415.73"/>
<polygon fill="none" stroke="#d4a017" points="1110.7,-412.03 1110.7,-434.33 974.81,-445.18 787.75,-445.18 651.86,-434.33 651.86,-412.03 787.75,-401.18 974.81,-401.18 1110.7,-412.03"/>
<text text-anchor="middle" x="881.28" y="-420.08" font-family="Helvetica" font-size="12.00">ScannerCorrectness.scanValue_preserves_simpleKeyStack</text>
</a>
</g>
</g>
<!-- L4YAML.Proofs.ScannerCorrectness.scanValue_preserves_simpleKeyStack&#45;&gt;L4YAML.Scanner.ScannerState -->
<g id="edge3" class="edge">
<title>L4YAML.Proofs.ScannerCorrectness.scanValue_preserves_simpleKeyStack&#45;&gt;L4YAML.Scanner.ScannerState</title>
<path fill="none" stroke="#4a90d9" stroke-width="2" d="M1053.99,-438.96C1078.17,-447.83 1100.78,-460.7 1118.49,-479.18 1134.77,-496.18 1119.11,-509.6 1128.49,-531.18 1131.72,-538.62 1165.02,-585.3 1171.49,-590.18 1180.21,-596.77 1190.71,-601.88 1201,-605.79"/>
<polygon fill="#4a90d9" stroke="#4a90d9" stroke-width="2" points="1200.29,-608.14 1207.71,-608.2 1201.94,-603.53 1200.29,-608.14"/>
<text text-anchor="middle" x="1140.99" y="-569.78" font-family="Times-Roman" font-size="8.00" fill="#4a90d9">about</text>
</g>
<!-- L4YAML.Proofs.ScannerCorrectness.scanValue_preserves_simpleKeyStack&#45;&gt;L4YAML.Scanner.ScannerState.simpleKeyStack -->
<g id="edge1" class="edge">
<title>L4YAML.Proofs.ScannerCorrectness.scanValue_preserves_simpleKeyStack&#45;&gt;L4YAML.Scanner.ScannerState.simpleKeyStack</title>
<path fill="none" stroke="#4a90d9" stroke-width="2" d="M1020.23,-441.6C1053.87,-449.87 1088.72,-461.85 1118.49,-479.18 1148.38,-496.59 1142.69,-517.03 1171.49,-536.18 1174.53,-538.2 1177.73,-540.09 1181.04,-541.86"/>
<polygon fill="#4a90d9" stroke="#4a90d9" stroke-width="2" points="1180.15,-544.16 1187.5,-545.12 1182.35,-539.78 1180.15,-544.16"/>
<text text-anchor="middle" x="1140.99" y="-520.78" font-family="Times-Roman" font-size="8.00" fill="#4a90d9">about</text>
</g>
<!-- L4YAML.Proofs.ScannerCorrectness.scanValue_preserves_simpleKeyStack&#45;&gt;L4YAML.ScanError -->
<g id="edge4" class="edge">
<title>L4YAML.Proofs.ScannerCorrectness.scanValue_preserves_simpleKeyStack&#45;&gt;L4YAML.ScanError</title>
<path fill="none" stroke="#4a90d9" stroke-width="2" d="M1059.15,-438.48C1081.83,-447.53 1102.63,-460.58 1118.49,-479.18 1138.01,-502.07 1120.36,-585.22 1128.49,-614.18 1139.82,-654.56 1140.09,-670.38 1171.49,-698.18 1181.71,-707.23 1195.22,-713.34 1207.86,-717.41"/>
<polygon fill="#4a90d9" stroke="#4a90d9" stroke-width="2" points="1207.37,-719.82 1214.78,-719.48 1208.77,-715.13 1207.37,-719.82"/>
<text text-anchor="middle" x="1140.99" y="-680.78" font-family="Times-Roman" font-size="8.00" fill="#4a90d9">about</text>
</g>
<!-- L4YAML.Proofs.ScannerCorrectness.scanValue_preserves_simpleKeyStack&#45;&gt;L4YAML.Scanner.scanValue -->
<g id="edge2" class="edge">
<title>L4YAML.Proofs.ScannerCorrectness.scanValue_preserves_simpleKeyStack&#45;&gt;L4YAML.Scanner.scanValue</title>
<path fill="none" stroke="#4a90d9" stroke-width="2" d="M1058.1,-438.65C1081.08,-447.65 1102.24,-460.64 1118.49,-479.18 1132.92,-495.64 1119.66,-557.15 1128.49,-577.18 1135.22,-592.45 1144.34,-591.23 1153.49,-605.18 1163.96,-621.14 1157.46,-631.24 1171.49,-644.18 1181.61,-653.52 1195.22,-659.69 1207.98,-663.74"/>
<polygon fill="#4a90d9" stroke="#4a90d9" stroke-width="2" points="1207.54,-666.17 1214.95,-665.79 1208.92,-661.47 1207.54,-666.17"/>
<text text-anchor="middle" x="1140.99" y="-607.78" font-family="Times-Roman" font-size="8.00" fill="#4a90d9">about</text>
</g>
<!-- L4YAML.Proofs.ScannerCorrectness.scanValue_preserves_simpleKeyStack&#45;&gt;L4YAML.Scanner.SimpleKeyState -->
<g id="edge5" class="edge">
<title>L4YAML.Proofs.ScannerCorrectness.scanValue_preserves_simpleKeyStack&#45;&gt;L4YAML.Scanner.SimpleKeyState</title>
<path fill="none" stroke="#4a90d9" stroke-width="2" d="M1020.2,-441.61C1063.34,-448.96 1110.81,-458.71 1153.49,-471.18 1168.95,-475.7 1185.35,-482 1199.92,-488.17"/>
<polygon fill="#4a90d9" stroke="#4a90d9" stroke-width="2" points="1199.08,-490.48 1206.48,-490.99 1201.02,-485.98 1199.08,-490.48"/>
<text text-anchor="middle" x="1140.99" y="-473.78" font-family="Times-Roman" font-size="8.00" fill="#4a90d9">about</text>
</g>
<!-- L4YAML.Proofs.ScannerCorrectness.scanValuePrepare_preserves_simpleKeyStack -->
<g id="node12" class="node">
<title>L4YAML.Proofs.ScannerCorrectness.scanValuePrepare_preserves_simpleKeyStack</title>
<g id="a_node12"><a xlink:href="../../../api/L4YAML/Proofs/Scanner/ScannerCorrectness.html#L4YAML.Proofs.ScannerCorrectness.scanValuePrepare_preserves_simpleKeyStack" xlink:title="ScannerCorrectness.scanValuePrepare_preserves_simpleKeyStack\n(Scanner.ScannerCorrectness)" target="_blank">
<ellipse fill="#d4edda" stroke="#28a745" cx="305.03" cy="-290.18" rx="219.82" ry="21.43"/>
<text text-anchor="middle" x="305.03" y="-293.18" font-family="Helvetica" font-size="10.00">ScannerCorrectness.scanValuePrepare_preserves_simpleKeyStack</text>
<text text-anchor="middle" x="305.03" y="-282.18" font-family="Helvetica" font-size="10.00">(Scanner.ScannerCorrectness)</text>
</a>
</g>
</g>
<!-- L4YAML.Proofs.ScannerCorrectness.scanValuePrepare_preserves_simpleKeyStack&#45;&gt;L4YAML.Scanner.ScannerState -->
<g id="edge14" class="edge">
<title>L4YAML.Proofs.ScannerCorrectness.scanValuePrepare_preserves_simpleKeyStack&#45;&gt;L4YAML.Scanner.ScannerState</title>
<path fill="none" stroke="#6f42c1" stroke-width="2" stroke-dasharray="5,2" d="M393.82,-309.67C461.78,-324 558.44,-342.72 644.07,-353.18 696.48,-359.59 1075.17,-350.99 1118.49,-381.18 1150.33,-403.37 1142.93,-423.84 1153.49,-461.18 1169.24,-516.89 1135.15,-545.12 1171.49,-590.18 1179.33,-599.9 1191.01,-606.13 1202.76,-610.11"/>
<polygon fill="#6f42c1" stroke="#6f42c1" stroke-width="2" points="1202.5,-611.86 1207.79,-611.68 1203.54,-608.52 1202.5,-611.86"/>
<text text-anchor="middle" x="881.28" y="-383.58" font-family="Times-Roman" font-size="7.00" fill="#6f42c1">about</text>
</g>
<!-- L4YAML.Proofs.ScannerCorrectness.scanValuePrepare_preserves_simpleKeyStack&#45;&gt;L4YAML.Scanner.ScannerState.simpleKeyStack -->
<g id="edge12" class="edge">
<title>L4YAML.Proofs.ScannerCorrectness.scanValuePrepare_preserves_simpleKeyStack&#45;&gt;L4YAML.Scanner.ScannerState.simpleKeyStack</title>
<path fill="none" stroke="#6f42c1" stroke-width="2" stroke-dasharray="5,2" d="M419.81,-308.33C477.29,-316.76 548.22,-326.04 612.07,-331.18 836.5,-349.27 899.16,-294.24 1118.49,-345.18 1135.15,-349.05 1143.52,-347.28 1153.49,-361.18 1199.06,-424.72 1123.51,-474.44 1171.49,-536.18 1173.03,-538.16 1174.72,-539.99 1176.54,-541.69"/>
<polygon fill="#6f42c1" stroke="#6f42c1" stroke-width="2" points="1175.5,-543.1 1180.46,-544.99 1177.76,-540.43 1175.5,-543.1"/>
<text text-anchor="middle" x="881.28" y="-347.58" font-family="Times-Roman" font-size="7.00" fill="#6f42c1">about</text>
</g>
<!-- L4YAML.Proofs.ScannerCorrectness.scanValuePrepare_preserves_simpleKeyStack&#45;&gt;L4YAML.Scanner.scanValuePrepare -->
<g id="edge13" class="edge">
<title>L4YAML.Proofs.ScannerCorrectness.scanValuePrepare_preserves_simpleKeyStack&#45;&gt;L4YAML.Scanner.scanValuePrepare</title>
<path fill="none" stroke="#6f42c1" stroke-width="2" stroke-dasharray="5,2" d="M394.79,-309.56C461.96,-328.92 551.08,-365.55 602.07,-431.18 661.26,-507.38 573.14,-578.77 644.07,-644.18 693.3,-689.59 775.02,-688.28 828.27,-681.24"/>
<polygon fill="#6f42c1" stroke="#6f42c1" stroke-width="2" points="828.62,-682.96 833.33,-680.54 828.14,-679.49 828.62,-682.96"/>
<text text-anchor="middle" x="623.07" y="-634.58" font-family="Times-Roman" font-size="7.00" fill="#6f42c1">about</text>
</g>
<!-- L4YAML.Proofs.ScannerCorrectness.scanValuePrepare_preserves_simpleKeyStack&#45;&gt;L4YAML.Scanner.SimpleKeyState -->
<g id="edge15" class="edge">
<title>L4YAML.Proofs.ScannerCorrectness.scanValuePrepare_preserves_simpleKeyStack&#45;&gt;L4YAML.Scanner.SimpleKeyState</title>
<path fill="none" stroke="#6f42c1" stroke-width="2" stroke-dasharray="5,2" d="M456.86,-305.55C506.26,-309.9 561.46,-314.04 612.07,-316.18 621.84,-316.6 625.45,-320.8 634.07,-316.18 641.13,-312.4 637,-304.96 644.07,-301.18 737.02,-251.44 1015.48,-278.75 1118.49,-301.18 1200.94,-319.13 1231.73,-435.59 1241.28,-485.99"/>
<polygon fill="#6f42c1" stroke="#6f42c1" stroke-width="2" points="1239.57,-486.34 1242.2,-490.94 1243.01,-485.71 1239.57,-486.34"/>
<text text-anchor="middle" x="881.28" y="-303.58" font-family="Times-Roman" font-size="7.00" fill="#6f42c1">about</text>
</g>
<!-- L4YAML.Proofs.ScannerCorrectness.scanValuePrepare_preserves_simpleKeyStack&#45;&gt;L4YAML.Proofs.ScannerCorrectness.scanValue_preserves_simpleKeyStack -->
<g id="edge8" class="edge">
<title>L4YAML.Proofs.ScannerCorrectness.scanValuePrepare_preserves_simpleKeyStack&#45;&gt;L4YAML.Proofs.ScannerCorrectness.scanValue_preserves_simpleKeyStack</title>
<path fill="none" stroke="#28a745" d="M357.94,-310.86C418.11,-333.99 520.72,-370.88 612.07,-391.18 640.14,-397.42 670.16,-402.51 699.58,-406.64"/>
<polygon fill="#28a745" stroke="#28a745" points="699.37,-409.09 706.64,-407.62 700.04,-404.23 699.37,-409.09"/>
</g>
<!-- L4YAML.Proofs.ScannerCorrectness.emit_preserves_simpleKeyStack -->
<g id="node13" class="node">
<title>L4YAML.Proofs.ScannerCorrectness.emit_preserves_simpleKeyStack</title>
<g id="a_node13"><a xlink:href="../../../api/L4YAML/Proofs/Scanner/ScannerCorrectness.html#L4YAML.Proofs.ScannerCorrectness.emit_preserves_simpleKeyStack" xlink:title="ScannerCorrectness.emit_preserves_simpleKeyStack\n(Scanner.ScannerCorrectness)" target="_blank">
<ellipse fill="#d4edda" stroke="#28a745" cx="305.03" cy="-230.18" rx="177.47" ry="21.43"/>
<text text-anchor="middle" x="305.03" y="-233.18" font-family="Helvetica" font-size="10.00">ScannerCorrectness.emit_preserves_simpleKeyStack</text>
<text text-anchor="middle" x="305.03" y="-222.18" font-family="Helvetica" font-size="10.00">(Scanner.ScannerCorrectness)</text>
</a>
</g>
</g>
<!-- L4YAML.Proofs.ScannerCorrectness.emit_preserves_simpleKeyStack&#45;&gt;L4YAML.Scanner.ScannerState.emit -->
<g id="edge17" class="edge">
<title>L4YAML.Proofs.ScannerCorrectness.emit_preserves_simpleKeyStack&#45;&gt;L4YAML.Scanner.ScannerState.emit</title>
<path fill="none" stroke="#6f42c1" stroke-width="2" stroke-dasharray="5,2" d="M403.73,-212.54C468.1,-206.86 549.83,-211.86 602.07,-260.18 616.74,-273.75 631.63,-417.35 634.07,-437.18 636.14,-454.09 632.32,-577.85 644.07,-590.18 690.26,-638.68 772.8,-636.54 827.05,-628.48"/>
<polygon fill="#6f42c1" stroke="#6f42c1" stroke-width="2" points="827.53,-630.17 832.2,-627.68 827,-626.72 827.53,-630.17"/>
<text text-anchor="middle" x="623.07" y="-439.58" font-family="Times-Roman" font-size="7.00" fill="#6f42c1">about</text>
</g>
<!-- L4YAML.Proofs.ScannerCorrectness.emit_preserves_simpleKeyStack&#45;&gt;L4YAML.YamlToken -->
<g id="edge18" class="edge">
<title>L4YAML.Proofs.ScannerCorrectness.emit_preserves_simpleKeyStack&#45;&gt;L4YAML.YamlToken</title>
<path fill="none" stroke="#6f42c1" stroke-width="2" stroke-dasharray="5,2" d="M477.15,-235.49C518.71,-240.05 562.55,-247.67 602.07,-260.18 617.62,-265.11 625.56,-264.26 634.07,-278.18 649.03,-302.66 624.56,-515.15 644.07,-536.18 694.78,-590.86 791.57,-581.81 844.13,-571.75"/>
<polygon fill="#6f42c1" stroke="#6f42c1" stroke-width="2" points="844.51,-573.46 849.08,-570.77 843.83,-570.02 844.51,-573.46"/>
<text text-anchor="middle" x="623.07" y="-280.58" font-family="Times-Roman" font-size="7.00" fill="#6f42c1">about</text>
</g>
<!-- L4YAML.Proofs.ScannerCorrectness.emit_preserves_simpleKeyStack&#45;&gt;L4YAML.Scanner.ScannerState -->
<g id="edge19" class="edge">
<title>L4YAML.Proofs.ScannerCorrectness.emit_preserves_simpleKeyStack&#45;&gt;L4YAML.Scanner.ScannerState</title>
<path fill="none" stroke="#6f42c1" stroke-width="2" stroke-dasharray="5,2" d="M479.3,-226.04C703.1,-222.32 1069.88,-222.38 1118.49,-261.18 1163.25,-296.91 1143.16,-328.86 1153.49,-385.18 1161.74,-430.16 1143.7,-553.87 1171.49,-590.18 1179.15,-600.2 1190.91,-606.5 1202.79,-610.46"/>
<polygon fill="#6f42c1" stroke="#6f42c1" stroke-width="2" points="1202.58,-612.23 1207.88,-612.02 1203.61,-608.88 1202.58,-612.23"/>
<text text-anchor="middle" x="881.28" y="-263.58" font-family="Times-Roman" font-size="7.00" fill="#6f42c1">about</text>
</g>
<!-- L4YAML.Proofs.ScannerCorrectness.emit_preserves_simpleKeyStack&#45;&gt;L4YAML.Scanner.ScannerState.simpleKeyStack -->
<g id="edge16" class="edge">
<title>L4YAML.Proofs.ScannerCorrectness.emit_preserves_simpleKeyStack&#45;&gt;L4YAML.Scanner.ScannerState.simpleKeyStack</title>
<path fill="none" stroke="#6f42c1" stroke-width="2" stroke-dasharray="5,2" d="M450.51,-217.95C649,-202.58 995.47,-181.26 1118.49,-208.18 1135.2,-211.84 1143.84,-210.06 1153.49,-224.18 1192.69,-281.51 1130.12,-480.4 1171.49,-536.18 1172.98,-538.19 1174.64,-540.05 1176.43,-541.77"/>
<polygon fill="#6f42c1" stroke="#6f42c1" stroke-width="2" points="1175.36,-543.16 1180.28,-545.12 1177.65,-540.52 1175.36,-543.16"/>
<text text-anchor="middle" x="881.28" y="-210.58" font-family="Times-Roman" font-size="7.00" fill="#6f42c1">about</text>
</g>
<!-- L4YAML.Proofs.ScannerCorrectness.emit_preserves_simpleKeyStack&#45;&gt;L4YAML.Scanner.SimpleKeyState -->
<g id="edge20" class="edge">
<title>L4YAML.Proofs.ScannerCorrectness.emit_preserves_simpleKeyStack&#45;&gt;L4YAML.Scanner.SimpleKeyState</title>
<path fill="none" stroke="#6f42c1" stroke-width="2" stroke-dasharray="5,2" d="M452.27,-242.07C503.22,-239.6 558.49,-228.88 602.07,-200.18 609.71,-195.15 605.61,-188.67 612.07,-182.18 623.57,-170.61 628.28,-168.32 644.07,-164.18 848.04,-110.75 912.46,-119.32 1118.49,-164.18 1135.2,-167.82 1142.39,-167.17 1153.49,-180.18 1232.33,-272.54 1243.59,-427.71 1244.93,-486.06"/>
<polygon fill="#6f42c1" stroke="#6f42c1" stroke-width="2" points="1243.19,-486.11 1245.03,-491.08 1246.68,-486.05 1243.19,-486.11"/>
<text text-anchor="middle" x="881.28" y="-166.58" font-family="Times-Roman" font-size="7.00" fill="#6f42c1">about</text>
</g>
<!-- L4YAML.Proofs.ScannerCorrectness.emit_preserves_simpleKeyStack&#45;&gt;L4YAML.Proofs.ScannerCorrectness.scanValue_preserves_simpleKeyStack -->
<g id="edge6" class="edge">
<title>L4YAML.Proofs.ScannerCorrectness.emit_preserves_simpleKeyStack&#45;&gt;L4YAML.Proofs.ScannerCorrectness.scanValue_preserves_simpleKeyStack</title>
<path fill="none" stroke="#28a745" d="M384.03,-211.13C458.97,-197.95 569.99,-192.77 634.07,-257.18 654.5,-277.73 624.36,-365.95 644.07,-387.18 650.93,-394.57 658.61,-400.88 666.91,-406.25"/>
<polygon fill="#28a745" stroke="#28a745" points="666.11,-408.64 673.36,-410.18 668.65,-404.45 666.11,-408.64"/>
</g>
<!-- L4YAML.Proofs.ScannerCorrectness.advance_preserves_simpleKeyStack -->
<g id="node14" class="node">
<title>L4YAML.Proofs.ScannerCorrectness.advance_preserves_simpleKeyStack</title>
<g id="a_node14"><a xlink:href="../../../api/L4YAML/Proofs/Scanner/ScannerCorrectness.html#L4YAML.Proofs.ScannerCorrectness.advance_preserves_simpleKeyStack" xlink:title="ScannerCorrectness.advance_preserves_simpleKeyStack\n(Scanner.ScannerCorrectness)" target="_blank">
<ellipse fill="#d4edda" stroke="#28a745" cx="305.03" cy="-170.18" rx="190.42" ry="21.43"/>
<text text-anchor="middle" x="305.03" y="-173.18" font-family="Helvetica" font-size="10.00">ScannerCorrectness.advance_preserves_simpleKeyStack</text>
<text text-anchor="middle" x="305.03" y="-162.18" font-family="Helvetica" font-size="10.00">(Scanner.ScannerCorrectness)</text>
</a>
</g>
</g>
<!-- L4YAML.Proofs.ScannerCorrectness.advance_preserves_simpleKeyStack&#45;&gt;L4YAML.Scanner.ScannerState.advance -->
<g id="edge21" class="edge">
<title>L4YAML.Proofs.ScannerCorrectness.advance_preserves_simpleKeyStack&#45;&gt;L4YAML.Scanner.ScannerState.advance</title>
<path fill="none" stroke="#6f42c1" stroke-width="2" stroke-dasharray="5,2" d="M480.53,-161.95C522.78,-166.73 566.08,-177.84 602.07,-200.18 624.8,-214.3 626.11,-225.64 634.07,-251.18 641.61,-275.39 626.89,-460.53 644.07,-479.18 687.26,-526.1 764.18,-527.36 818.49,-520.96"/>
<polygon fill="#6f42c1" stroke="#6f42c1" stroke-width="2" points="818.93,-522.67 823.67,-520.32 818.49,-519.2 818.93,-522.67"/>
<text text-anchor="middle" x="623.07" y="-253.58" font-family="Times-Roman" font-size="7.00" fill="#6f42c1">about</text>
</g>
<!-- L4YAML.Proofs.ScannerCorrectness.advance_preserves_simpleKeyStack&#45;&gt;L4YAML.Scanner.ScannerState -->
<g id="edge23" class="edge">
<title>L4YAML.Proofs.ScannerCorrectness.advance_preserves_simpleKeyStack&#45;&gt;L4YAML.Scanner.ScannerState</title>
<path fill="none" stroke="#6f42c1" stroke-width="2" stroke-dasharray="5,2" d="M378.64,-150.58C440.23,-135.03 531.21,-114.55 612.07,-106.18 668.05,-100.39 1074.76,-79.76 1118.49,-115.18 1172.02,-158.54 1143.77,-197.98 1153.49,-266.18 1158.58,-301.88 1150.04,-561.2 1171.49,-590.18 1178.99,-600.32 1190.7,-606.65 1202.59,-610.61"/>
<polygon fill="#6f42c1" stroke="#6f42c1" stroke-width="2" points="1202.39,-612.38 1207.69,-612.17 1203.42,-609.03 1202.39,-612.38"/>
<text text-anchor="middle" x="881.28" y="-117.58" font-family="Times-Roman" font-size="7.00" fill="#6f42c1">about</text>
</g>
<!-- L4YAML.Proofs.ScannerCorrectness.advance_preserves_simpleKeyStack&#45;&gt;L4YAML.Scanner.ScannerState.simpleKeyStack -->
<g id="edge22" class="edge">
<title>L4YAML.Proofs.ScannerCorrectness.advance_preserves_simpleKeyStack&#45;&gt;L4YAML.Scanner.ScannerState.simpleKeyStack</title>
<path fill="none" stroke="#6f42c1" stroke-width="2" stroke-dasharray="5,2" d="M356.13,-149.72C415.87,-126.52 519.31,-90.11 612.07,-76.18 834.65,-42.77 898.57,-28.3 1118.49,-76.18 1135.2,-79.82 1143.96,-77.98 1153.49,-92.18 1181.01,-133.17 1142.42,-496.28 1171.49,-536.18 1172.96,-538.21 1174.61,-540.08 1176.38,-541.81"/>
<polygon fill="#6f42c1" stroke="#6f42c1" stroke-width="2" points="1175.3,-543.19 1180.21,-545.17 1177.61,-540.56 1175.3,-543.19"/>
<text text-anchor="middle" x="881.28" y="-78.58" font-family="Times-Roman" font-size="7.00" fill="#6f42c1">about</text>
</g>
<!-- L4YAML.Proofs.ScannerCorrectness.advance_preserves_simpleKeyStack&#45;&gt;L4YAML.Scanner.SimpleKeyState -->
<g id="edge24" class="edge">
<title>L4YAML.Proofs.ScannerCorrectness.advance_preserves_simpleKeyStack&#45;&gt;L4YAML.Scanner.SimpleKeyState</title>
<path fill="none" stroke="#6f42c1" stroke-width="2" stroke-dasharray="5,2" d="M343.55,-149.17C404.38,-116.44 529.3,-54.71 644.07,-32.18 850.97,8.42 912.46,12.68 1118.49,-32.18 1135.2,-35.82 1142.88,-34.77 1153.49,-48.18 1208.52,-117.78 1236.08,-401.82 1243.14,-485.73"/>
<polygon fill="#6f42c1" stroke="#6f42c1" stroke-width="2" points="1241.41,-486.13 1243.57,-490.97 1244.9,-485.84 1241.41,-486.13"/>
<text text-anchor="middle" x="881.28" y="-34.58" font-family="Times-Roman" font-size="7.00" fill="#6f42c1">about</text>
</g>
<!-- L4YAML.Proofs.ScannerCorrectness.advance_preserves_simpleKeyStack&#45;&gt;L4YAML.Proofs.ScannerCorrectness.scanValue_preserves_simpleKeyStack -->
<g id="edge7" class="edge">
<title>L4YAML.Proofs.ScannerCorrectness.advance_preserves_simpleKeyStack&#45;&gt;L4YAML.Proofs.ScannerCorrectness.scanValue_preserves_simpleKeyStack</title>
<path fill="none" stroke="#28a745" d="M341.86,-149.25C409.05,-113.01 554.37,-49.48 634.07,-126.18 654.98,-146.31 624.74,-365.54 644.07,-387.18 650.67,-394.58 658.1,-400.91 666.15,-406.31"/>
<polygon fill="#28a745" stroke="#28a745" points="665.19,-408.6 672.42,-410.25 667.8,-404.45 665.19,-408.6"/>
</g>
<!-- Except.ok.injEq -->
<g id="node15" class="node">
<title>Except.ok.injEq</title>
<g id="a_node15"><a xlink:href="../../../api/Init/Core.html#Except.ok.injEq" xlink:title="Except.ok.injEq" target="_blank">
<ellipse fill="#fdebd0" stroke="#e67e22" cx="305.03" cy="-461.18" rx="49.4" ry="18"/>
<text text-anchor="middle" x="305.03" y="-458.68" font-family="Helvetica" font-size="10.00">Except.ok.injEq</text>
</a>
</g>
</g>
<!-- Except.ok.injEq&#45;&gt;L4YAML.Proofs.ScannerCorrectness.scanValue_preserves_simpleKeyStack -->
<g id="edge9" class="edge">
<title>Except.ok.injEq&#45;&gt;L4YAML.Proofs.ScannerCorrectness.scanValue_preserves_simpleKeyStack</title>
<path fill="none" stroke="#e67e22" stroke-width="2" d="M354.44,-459.94C418.47,-458.11 534.84,-454.13 634.07,-447.18 660.12,-445.36 687.69,-443.05 714.59,-440.58"/>
<polygon fill="#e67e22" stroke="#e67e22" stroke-width="2" points="715.04,-443 721.78,-439.92 714.59,-438.12 715.04,-443"/>
</g>
<!-- _private.L4YAML.Proofs.Scanner.ScannerCorrectness.0.L4YAML.Scanner.scanValueClearKey.match_1.eq_2 -->
<g id="node16" class="node">
<title>_private.L4YAML.Proofs.Scanner.ScannerCorrectness.0.L4YAML.Scanner.scanValueClearKey.match_1.eq_2</title>
<g id="a_node16"><a xlink:href="../../../api/L4YAML/Proofs/Scanner/ScannerCorrectness.html#_private.L4YAML.Proofs.Scanner.ScannerCorrectness.0.L4YAML.Scanner.scanValueClearKey.match_1.eq_2" xlink:title="_private.L4YAML.Proofs.Scanner.ScannerCorrectness.0.L4YAML.Scanner.scanValueClearKey.match_1.eq_2" target="_blank">
<ellipse fill="#fdebd0" stroke="#e67e22" cx="305.03" cy="-515.18" rx="289.07" ry="18"/>
<text text-anchor="middle" x="305.03" y="-512.68" font-family="Helvetica" font-size="10.00">_private.L4YAML.Proofs.Scanner.ScannerCorrectness.0.L4YAML.Scanner.scanValueClearKey.match_1.eq_2</text>
</a>
</g>
</g>
<!-- _private.L4YAML.Proofs.Scanner.ScannerCorrectness.0.L4YAML.Scanner.scanValueClearKey.match_1.eq_2&#45;&gt;L4YAML.Scanner.scanValueClearKey.match_1 -->
<g id="edge11" class="edge">
<title>_private.L4YAML.Proofs.Scanner.ScannerCorrectness.0.L4YAML.Scanner.scanValueClearKey.match_1.eq_2&#45;&gt;L4YAML.Scanner.scanValueClearKey.match_1</title>
<path fill="none" stroke="#6f42c1" stroke-width="2" stroke-dasharray="5,2" d="M331.23,-533.28C385.42,-571.17 518.35,-658.6 644.07,-698.18 696.49,-714.69 758.28,-721.33 805.51,-723.9"/>
<polygon fill="#6f42c1" stroke="#6f42c1" stroke-width="2" points="805.53,-725.65 810.62,-724.16 805.71,-722.16 805.53,-725.65"/>
<text text-anchor="middle" x="623.07" y="-693.58" font-family="Times-Roman" font-size="7.00" fill="#6f42c1">about</text>
</g>
<!-- _private.L4YAML.Proofs.Scanner.ScannerCorrectness.0.L4YAML.Scanner.scanValueClearKey.match_1.eq_2&#45;&gt;L4YAML.Proofs.ScannerCorrectness.scanValue_preserves_simpleKeyStack -->
<g id="edge10" class="edge">
<title>_private.L4YAML.Proofs.Scanner.ScannerCorrectness.0.L4YAML.Scanner.scanValueClearKey.match_1.eq_2&#45;&gt;L4YAML.Proofs.ScannerCorrectness.scanValue_preserves_simpleKeyStack</title>
<path fill="none" stroke="#e67e22" stroke-width="2" d="M496.82,-501.7C531.93,-498.11 568.19,-493.66 602.07,-488.18 611.22,-486.7 704.55,-464.79 780.62,-446.81"/>
<polygon fill="#e67e22" stroke="#e67e22" stroke-width="2" points="781.21,-449.19 787.46,-445.19 780.09,-444.42 781.21,-449.19"/>
</g>
</g>
</svg>
