<?xml version="1.0" encoding="UTF-8" standalone="no"?>
<!DOCTYPE svg PUBLIC "-//W3C//DTD SVG 1.1//EN"
 "http://www.w3.org/Graphics/SVG/1.1/DTD/svg11.dtd">
<!-- Generated by graphviz version 2.44.0 (0)
 -->
<!-- Title: ScannerCorrectness.scanValue_adds_tokens Pages: 1 -->
<svg width="1009pt" height="1433pt"
 viewBox="0.00 0.00 1009.39 1433.28" xmlns="http://www.w3.org/2000/svg" xmlns:xlink="http://www.w3.org/1999/xlink">
<g id="graph0" class="graph" transform="scale(1 1) rotate(0) translate(4 1429.28)">
<title>ScannerCorrectness.scanValue_adds_tokens</title>
<polygon fill="white" stroke="transparent" points="-4,4 -4,-1429.28 1005.39,-1429.28 1005.39,4 -4,4"/>
<text text-anchor="middle" x="500.69" y="-1410.88" font-family="Helvetica Bold" font-size="13.00">ScannerCorrectness.scanValue_adds_tokens</text>
<text text-anchor="middle" x="500.69" y="-1396.88" font-family="Helvetica Bold" font-size="13.00">(heuristic: used by 6 proofs)</text>
<text text-anchor="middle" x="500.69" y="-1382.88" font-family="Helvetica Bold" font-size="13.00">(L4YAML.Proofs.Scanner.ScannerCorrectness)</text>
<g id="clust1" class="cluster">
<title>cluster_functions</title>
<polygon fill="none" stroke="#4a90d9" stroke-dasharray="5,2" points="574.65,-1023.28 574.65,-1367.28 993.39,-1367.28 993.39,-1023.28 574.65,-1023.28"/>
<text text-anchor="middle" x="784.02" y="-1352.88" font-family="Helvetica Bold" font-size="13.00" fill="#4a90d9">Functions</text>
</g>
<g id="clust2" class="cluster">
<title>cluster_key</title>
<polygon fill="none" stroke="#d4a017" stroke-dasharray="5,2" points="454.91,-933.28 454.91,-1015.28 825.39,-1015.28 825.39,-933.28 454.91,-933.28"/>
<text text-anchor="middle" x="640.15" y="-1000.88" font-family="Helvetica Bold" font-size="13.00" fill="#d4a017">Key Theorem</text>
</g>
<g id="clust3" class="cluster">
<title>cluster_proofs</title>
<polygon fill="none" stroke="#28a745" stroke-dasharray="5,2" points="8,-417.28 8,-737.28 412.91,-737.28 412.91,-417.28 8,-417.28"/>
<text text-anchor="middle" x="210.45" y="-722.88" font-family="Helvetica Bold" font-size="13.00" fill="#28a745">Proof Dependencies</text>
</g>
<g id="clust4" class="cluster">
<title>cluster_stdlib</title>
<polygon fill="none" stroke="#e67e22" stroke-dasharray="5,2" points="125.34,-1001.28 125.34,-1075.28 295.57,-1075.28 295.57,-1001.28 125.34,-1001.28"/>
<text text-anchor="middle" x="210.45" y="-1060.88" font-family="Helvetica Bold" font-size="13.00" fill="#e67e22">Stdlib Lemmas</text>
</g>
<!-- L4YAML.Scanner.ScannerState.emit -->
<g id="node1" class="node">
<title>L4YAML.Scanner.ScannerState.emit</title>
<g id="a_node1"><a xlink:href="../../../api/L4YAML/Scanner/State.html#L4YAML.Scanner.ScannerState.emit" xlink:title="ScannerState.emit\n(def)" target="_blank">
<polygon fill="#dce9f7" stroke="#4a90d9" points="689.15,-1067.28 591.15,-1067.28 591.15,-1031.28 689.15,-1031.28 689.15,-1067.28"/>
<text text-anchor="middle" x="640.15" y="-1052.28" font-family="Helvetica" font-size="10.00">ScannerState.emit</text>
<text text-anchor="middle" x="640.15" y="-1041.28" font-family="Helvetica" font-size="10.00">(def)</text>
</a>
</g>
</g>
<!-- L4YAML.Positioned -->
<g id="node2" class="node">
<title>L4YAML.Positioned</title>
<g id="a_node2"><a xlink:href="../../../api/L4YAML/Token/Token.html#L4YAML.Positioned" xlink:title="Positioned\n(inductive)" target="_blank">
<polygon fill="#dce9f7" stroke="#4a90d9" points="962.89,-1121.28 900.89,-1121.28 900.89,-1085.28 962.89,-1085.28 962.89,-1121.28"/>
<text text-anchor="middle" x="931.89" y="-1106.28" font-family="Helvetica" font-size="10.00">Positioned</text>
<text text-anchor="middle" x="931.89" y="-1095.28" font-family="Helvetica" font-size="10.00">(inductive)</text>
</a>
</g>
</g>
<!-- L4YAML.Scanner.ScannerState.advance -->
<g id="node3" class="node">
<title>L4YAML.Scanner.ScannerState.advance</title>
<g id="a_node3"><a xlink:href="../../../api/L4YAML/Scanner/State.html#L4YAML.Scanner.ScannerState.advance" xlink:title="ScannerState.advance\n(def)" target="_blank">
<polygon fill="#dce9f7" stroke="#4a90d9" points="697.65,-1121.28 582.65,-1121.28 582.65,-1085.28 697.65,-1085.28 697.65,-1121.28"/>
<text text-anchor="middle" x="640.15" y="-1106.28" font-family="Helvetica" font-size="10.00">ScannerState.advance</text>
<text text-anchor="middle" x="640.15" y="-1095.28" font-family="Helvetica" font-size="10.00">(def)</text>
</a>
</g>
</g>
<!-- L4YAML.Scanner.ScannerState -->
<g id="node4" class="node">
<title>L4YAML.Scanner.ScannerState</title>
<g id="a_node4"><a xlink:href="../../../api/L4YAML/Scanner/State.html#L4YAML.Scanner.ScannerState" xlink:title="ScannerState\n(inductive)" target="_blank">
<polygon fill="#dce9f7" stroke="#4a90d9" points="969.89,-1067.28 893.89,-1067.28 893.89,-1031.28 969.89,-1031.28 969.89,-1067.28"/>
<text text-anchor="middle" x="931.89" y="-1052.28" font-family="Helvetica" font-size="10.00">ScannerState</text>
<text text-anchor="middle" x="931.89" y="-1041.28" font-family="Helvetica" font-size="10.00">(inductive)</text>
</a>
</g>
</g>
<!-- L4YAML.YamlToken -->
<g id="node5" class="node">
<title>L4YAML.YamlToken</title>
<g id="a_node5"><a xlink:href="../../../api/L4YAML/Token/Token.html#L4YAML.YamlToken" xlink:title="YamlToken\n(inductive)" target="_blank">
<polygon fill="#dce9f7" stroke="#4a90d9" points="963.89,-1175.28 899.89,-1175.28 899.89,-1139.28 963.89,-1139.28 963.89,-1175.28"/>
<text text-anchor="middle" x="931.89" y="-1160.28" font-family="Helvetica" font-size="10.00">YamlToken</text>
<text text-anchor="middle" x="931.89" y="-1149.28" font-family="Helvetica" font-size="10.00">(inductive)</text>
</a>
</g>
</g>
<!-- L4YAML.ScanError -->
<g id="node6" class="node">
<title>L4YAML.ScanError</title>
<g id="a_node6"><a xlink:href="../../../api/L4YAML/Token/Token.html#L4YAML.ScanError" xlink:title="ScanError\n(inductive)" target="_blank">
<polygon fill="#dce9f7" stroke="#4a90d9" points="962.89,-1337.28 900.89,-1337.28 900.89,-1301.28 962.89,-1301.28 962.89,-1337.28"/>
<text text-anchor="middle" x="931.89" y="-1322.28" font-family="Helvetica" font-size="10.00">ScanError</text>
<text text-anchor="middle" x="931.89" y="-1311.28" font-family="Helvetica" font-size="10.00">(inductive)</text>
</a>
</g>
</g>
<!-- L4YAML.Scanner.ScannerState.tokens -->
<g id="node7" class="node">
<title>L4YAML.Scanner.ScannerState.tokens</title>
<g id="a_node7"><a xlink:href="../../../api/L4YAML/Scanner/State.html#L4YAML.Scanner.ScannerState.tokens" xlink:title="ScannerState.tokens\n(def)" target="_blank">
<polygon fill="#dce9f7" stroke="#4a90d9" points="985.39,-1229.28 878.39,-1229.28 878.39,-1193.28 985.39,-1193.28 985.39,-1229.28"/>
<text text-anchor="middle" x="931.89" y="-1214.28" font-family="Helvetica" font-size="10.00">ScannerState.tokens</text>
<text text-anchor="middle" x="931.89" y="-1203.28" font-family="Helvetica" font-size="10.00">(def)</text>
</a>
</g>
</g>
<!-- L4YAML.Scanner.scanValuePrepare -->
<g id="node8" class="node">
<title>L4YAML.Scanner.scanValuePrepare</title>
<g id="a_node8"><a xlink:href="../../../api/L4YAML/Scanner/SimpleKey.html#L4YAML.Scanner.scanValuePrepare" xlink:title="scanValuePrepare\n(def)" target="_blank">
<polygon fill="#dce9f7" stroke="#4a90d9" points="687.65,-1175.28 592.65,-1175.28 592.65,-1139.28 687.65,-1139.28 687.65,-1175.28"/>
<text text-anchor="middle" x="640.15" y="-1160.28" font-family="Helvetica" font-size="10.00">scanValuePrepare</text>
<text text-anchor="middle" x="640.15" y="-1149.28" font-family="Helvetica" font-size="10.00">(def)</text>
</a>
</g>
</g>
<!-- L4YAML.Scanner.scanValue -->
<g id="node9" class="node">
<title>L4YAML.Scanner.scanValue</title>
<g id="a_node9"><a xlink:href="../../../api/L4YAML/Scanner/SimpleKey.html#L4YAML.Scanner.scanValue" xlink:title="scanValue\n(def)" target="_blank">
<polygon fill="#dce9f7" stroke="#4a90d9" points="962.89,-1283.28 900.89,-1283.28 900.89,-1247.28 962.89,-1247.28 962.89,-1283.28"/>
<text text-anchor="middle" x="931.89" y="-1268.28" font-family="Helvetica" font-size="10.00">scanValue</text>
<text text-anchor="middle" x="931.89" y="-1257.28" font-family="Helvetica" font-size="10.00">(def)</text>
</a>
</g>
</g>
<!-- L4YAML.Scanner.scanValueClearKey -->
<g id="node10" class="node">
<title>L4YAML.Scanner.scanValueClearKey</title>
<g id="a_node10"><a xlink:href="../../../api/L4YAML/Scanner/SimpleKey.html#L4YAML.Scanner.scanValueClearKey" xlink:title="scanValueClearKey\n(def)" target="_blank">
<polygon fill="#dce9f7" stroke="#4a90d9" points="690.65,-1229.28 589.65,-1229.28 589.65,-1193.28 690.65,-1193.28 690.65,-1229.28"/>
<text text-anchor="middle" x="640.15" y="-1214.28" font-family="Helvetica" font-size="10.00">scanValueClearKey</text>
<text text-anchor="middle" x="640.15" y="-1203.28" font-family="Helvetica" font-size="10.00">(def)</text>
</a>
</g>
</g>
<!-- L4YAML.Proofs.ScannerCorrectness.scanValue_adds_tokens -->
<g id="node11" class="node">
<title>L4YAML.Proofs.ScannerCorrectness.scanValue_adds_tokens</title>
<g id="a_node11"><a xlink:href="../../../api/L4YAML/Proofs/Scanner/ScannerCorrectness.html#L4YAML.Proofs.ScannerCorrectness.scanValue_adds_tokens" xlink:title="ScannerCorrectness.scanValue_adds_tokens" target="_blank">
<polygon fill="#fff3cd" stroke="#d4a017" points="813.62,-955.83 813.62,-970.74 712,-981.28 568.29,-981.28 466.67,-970.74 466.67,-955.83 568.29,-945.28 712,-945.28 813.62,-955.83"/>
<polygon fill="none" stroke="#d4a017" points="817.63,-952.22 817.63,-974.35 712.21,-985.28 568.09,-985.28 462.67,-974.35 462.67,-952.22 568.09,-941.28 712.21,-941.28 817.63,-952.22"/>
<text text-anchor="middle" x="640.15" y="-960.18" font-family="Helvetica" font-size="12.00">ScannerCorrectness.scanValue_adds_tokens</text>
</a>
</g>
</g>
<!-- L4YAML.Proofs.ScannerCorrectness.scanValue_adds_tokens&#45;&gt;L4YAML.Positioned -->
<g id="edge3" class="edge">
<title>L4YAML.Proofs.ScannerCorrectness.scanValue_adds_tokens&#45;&gt;L4YAML.Positioned</title>
<path fill="none" stroke="#4a90d9" stroke-width="2" d="M714.84,-941.5C761.86,-932.44 821.14,-930.68 860.39,-964.28 898.69,-997.07 848.78,-1035.47 878.39,-1076.28 882.54,-1082.01 888.27,-1086.61 894.42,-1090.27"/>
<polygon fill="#4a90d9" stroke="#4a90d9" stroke-width="2" points="893.35,-1092.48 900.67,-1093.64 895.67,-1088.16 893.35,-1092.48"/>
<text text-anchor="middle" x="847.89" y="-966.88" font-family="Times-Roman" font-size="8.00" fill="#4a90d9">about</text>
</g>
<!-- L4YAML.Proofs.ScannerCorrectness.scanValue_adds_tokens&#45;&gt;L4YAML.Scanner.ScannerState -->
<g id="edge5" class="edge">
<title>L4YAML.Proofs.ScannerCorrectness.scanValue_adds_tokens&#45;&gt;L4YAML.Scanner.ScannerState</title>
<path fill="none" stroke="#4a90d9" stroke-width="2" d="M738.77,-943.95C792.06,-934.39 849.41,-926.08 860.39,-932.28 895.03,-951.86 914.55,-996.03 923.88,-1024.15"/>
<polygon fill="#4a90d9" stroke="#4a90d9" stroke-width="2" points="921.58,-1025 926.04,-1030.93 926.25,-1023.52 921.58,-1025"/>
<text text-anchor="middle" x="847.89" y="-934.88" font-family="Times-Roman" font-size="8.00" fill="#4a90d9">about</text>
</g>
<!-- L4YAML.Proofs.ScannerCorrectness.scanValue_adds_tokens&#45;&gt;L4YAML.YamlToken -->
<g id="edge4" class="edge">
<title>L4YAML.Proofs.ScannerCorrectness.scanValue_adds_tokens&#45;&gt;L4YAML.YamlToken</title>
<path fill="none" stroke="#4a90d9" stroke-width="2" d="M752.46,-981.11C778.55,-989.39 804.73,-1001.52 825.39,-1019.28 846.11,-1037.11 859.35,-1110.67 878.39,-1130.28 882.7,-1134.72 887.9,-1138.57 893.32,-1141.86"/>
<polygon fill="#4a90d9" stroke="#4a90d9" stroke-width="2" points="892.45,-1144.18 899.76,-1145.46 894.85,-1139.9 892.45,-1144.18"/>
<text text-anchor="middle" x="847.89" y="-1094.88" font-family="Times-Roman" font-size="8.00" fill="#4a90d9">about</text>
</g>
<!-- L4YAML.Proofs.ScannerCorrectness.scanValue_adds_tokens&#45;&gt;L4YAML.ScanError -->
<g id="edge6" class="edge">
<title>L4YAML.Proofs.ScannerCorrectness.scanValue_adds_tokens&#45;&gt;L4YAML.ScanError</title>
<path fill="none" stroke="#4a90d9" stroke-width="2" d="M768.36,-979.59C790.43,-988.09 810.91,-1000.69 825.39,-1019.28 839.74,-1037.71 827.97,-1207.13 835.39,-1229.28 846.16,-1261.43 852.98,-1269.84 878.39,-1292.28 883.18,-1296.52 888.76,-1300.29 894.46,-1303.58"/>
<polygon fill="#4a90d9" stroke="#4a90d9" stroke-width="2" points="893.33,-1305.76 900.65,-1306.96 895.67,-1301.46 893.33,-1305.76"/>
<text text-anchor="middle" x="847.89" y="-1276.88" font-family="Times-Roman" font-size="8.00" fill="#4a90d9">about</text>
</g>
<!-- L4YAML.Proofs.ScannerCorrectness.scanValue_adds_tokens&#45;&gt;L4YAML.Scanner.ScannerState.tokens -->
<g id="edge1" class="edge">
<title>L4YAML.Proofs.ScannerCorrectness.scanValue_adds_tokens&#45;&gt;L4YAML.Scanner.ScannerState.tokens</title>
<path fill="none" stroke="#4a90d9" stroke-width="2" d="M758.5,-980.65C783.07,-988.96 807.04,-1001.23 825.39,-1019.28 852.83,-1046.3 853.48,-1154.91 878.39,-1184.28 879.61,-1185.72 880.92,-1187.09 882.31,-1188.39"/>
<polygon fill="#4a90d9" stroke="#4a90d9" stroke-width="2" points="881.05,-1190.53 888,-1193.11 884.17,-1186.76 881.05,-1190.53"/>
<text text-anchor="middle" x="847.89" y="-1138.88" font-family="Times-Roman" font-size="8.00" fill="#4a90d9">about</text>
</g>
<!-- L4YAML.Proofs.ScannerCorrectness.scanValue_adds_tokens&#45;&gt;L4YAML.Scanner.scanValue -->
<g id="edge2" class="edge">
<title>L4YAML.Proofs.ScannerCorrectness.scanValue_adds_tokens&#45;&gt;L4YAML.Scanner.scanValue</title>
<path fill="none" stroke="#4a90d9" stroke-width="2" d="M767.46,-979.75C789.75,-988.22 810.53,-1000.77 825.39,-1019.28 843.52,-1041.88 827.84,-1121.31 835.39,-1149.28 846.83,-1191.7 847.71,-1206.84 878.39,-1238.28 883.01,-1243.03 888.65,-1247.09 894.49,-1250.53"/>
<polygon fill="#4a90d9" stroke="#4a90d9" stroke-width="2" points="893.55,-1252.81 900.87,-1254 895.9,-1248.5 893.55,-1252.81"/>
<text text-anchor="middle" x="847.89" y="-1218.88" font-family="Times-Roman" font-size="8.00" fill="#4a90d9">about</text>
</g>
<!-- L4YAML.Proofs.ScannerProofs.emit_tokens_size -->
<g id="node12" class="node">
<title>L4YAML.Proofs.ScannerProofs.emit_tokens_size</title>
<g id="a_node12"><a xlink:href="../../../api/L4YAML/Proofs/Scanner/ScannerProofs.html#L4YAML.Proofs.ScannerProofs.emit_tokens_size" xlink:title="ScannerProofs.emit_tokens_size\n(Scanner.ScannerProofs)" target="_blank">
<ellipse fill="#d4edda" stroke="#28a745" cx="210.45" cy="-446.28" rx="112.36" ry="21.43"/>
<text text-anchor="middle" x="210.45" y="-449.28" font-family="Helvetica" font-size="10.00">ScannerProofs.emit_tokens_size</text>
<text text-anchor="middle" x="210.45" y="-438.28" font-family="Helvetica" font-size="10.00">(Scanner.ScannerProofs)</text>
</a>
</g>
</g>
<!-- L4YAML.Proofs.ScannerProofs.emit_tokens_size&#45;&gt;L4YAML.Scanner.ScannerState.emit -->
<g id="edge14" class="edge">
<title>L4YAML.Proofs.ScannerProofs.emit_tokens_size&#45;&gt;L4YAML.Scanner.ScannerState.emit</title>
<path fill="none" stroke="#6f42c1" stroke-width="2" stroke-dasharray="5,2" d="M319.78,-441.28C352.85,-444.93 387.22,-454.64 412.91,-476.28 447.63,-505.53 437.2,-528.55 444.91,-573.28 449.11,-597.71 438.64,-1000.58 454.91,-1019.28 486.59,-1055.7 543.77,-1059.9 586.06,-1057.04"/>
<polygon fill="#6f42c1" stroke="#6f42c1" stroke-width="2" points="586.28,-1058.78 591.14,-1056.66 586.02,-1055.29 586.28,-1058.78"/>
<text text-anchor="middle" x="433.91" y="-575.68" font-family="Times-Roman" font-size="7.00" fill="#6f42c1">about</text>
</g>
<!-- L4YAML.Proofs.ScannerProofs.emit_tokens_size&#45;&gt;L4YAML.Positioned -->
<g id="edge15" class="edge">
<title>L4YAML.Proofs.ScannerProofs.emit_tokens_size&#45;&gt;L4YAML.Positioned</title>
<path fill="none" stroke="#6f42c1" stroke-width="2" stroke-dasharray="5,2" d="M222.22,-424.8C249.4,-372.35 325.65,-235.98 422.91,-153.28 496.97,-90.31 807.05,-72.01 860.39,-153.28 888.53,-196.16 851.25,-1032.77 878.39,-1076.28 882.66,-1083.13 889.26,-1088.31 896.36,-1092.21"/>
<polygon fill="#6f42c1" stroke="#6f42c1" stroke-width="2" points="895.57,-1093.78 900.83,-1094.48 897.16,-1090.66 895.57,-1093.78"/>
<text text-anchor="middle" x="640.15" y="-135.68" font-family="Times-Roman" font-size="7.00" fill="#6f42c1">about</text>
</g>
<!-- L4YAML.Proofs.ScannerProofs.emit_tokens_size&#45;&gt;L4YAML.Scanner.ScannerState -->
<g id="edge17" class="edge">
<title>L4YAML.Proofs.ScannerProofs.emit_tokens_size&#45;&gt;L4YAML.Scanner.ScannerState</title>
<path fill="none" stroke="#6f42c1" stroke-width="2" stroke-dasharray="5,2" d="M219.92,-424.95C243.78,-367.19 316.78,-205.61 422.91,-109.28 566.88,21.4 749.25,50.26 860.39,-109.28 914.36,-186.76 928.32,-888.48 930.54,-1025.97"/>
<polygon fill="#6f42c1" stroke="#6f42c1" stroke-width="2" points="928.79,-1026.02 930.62,-1030.99 932.29,-1025.97 928.79,-1026.02"/>
<text text-anchor="middle" x="640.15" y="-82.68" font-family="Times-Roman" font-size="7.00" fill="#6f42c1">about</text>
</g>
<!-- L4YAML.Proofs.ScannerProofs.emit_tokens_size&#45;&gt;L4YAML.YamlToken -->
<g id="edge16" class="edge">
<title>L4YAML.Proofs.ScannerProofs.emit_tokens_size&#45;&gt;L4YAML.YamlToken</title>
<path fill="none" stroke="#6f42c1" stroke-width="2" stroke-dasharray="5,2" d="M225.03,-425.11C255.59,-378.77 334.11,-266.94 422.91,-197.28 488.48,-145.85 775.85,-140.37 825.39,-181.28 888.9,-233.74 851.61,-281.38 860.39,-363.28 864.93,-405.66 855.76,-1094.16 878.39,-1130.28 882.41,-1136.71 888.49,-1141.67 895.1,-1145.48"/>
<polygon fill="#6f42c1" stroke="#6f42c1" stroke-width="2" points="894.51,-1147.15 899.74,-1147.94 896.14,-1144.06 894.51,-1147.15"/>
<text text-anchor="middle" x="640.15" y="-183.68" font-family="Times-Roman" font-size="7.00" fill="#6f42c1">about</text>
</g>
<!-- L4YAML.Proofs.ScannerProofs.emit_tokens_size&#45;&gt;L4YAML.Scanner.ScannerState.tokens -->
<g id="edge13" class="edge">
<title>L4YAML.Proofs.ScannerProofs.emit_tokens_size&#45;&gt;L4YAML.Scanner.ScannerState.tokens</title>
<path fill="none" stroke="#6f42c1" stroke-width="2" stroke-dasharray="5,2" d="M226.37,-425.12C260.47,-378.82 349.35,-269.5 454.91,-229.28 531.84,-199.97 762.71,-175.9 825.39,-229.28 836.01,-238.33 832.77,-277.58 835.39,-291.28 845.04,-341.81 854.21,-353.22 860.39,-404.28 865.59,-447.32 855.38,-1147.55 878.39,-1184.28 879.55,-1186.14 880.89,-1187.88 882.35,-1189.5"/>
<polygon fill="#6f42c1" stroke="#6f42c1" stroke-width="2" points="881.21,-1190.83 886.01,-1193.07 883.66,-1188.33 881.21,-1190.83"/>
<text text-anchor="middle" x="640.15" y="-231.68" font-family="Times-Roman" font-size="7.00" fill="#6f42c1">about</text>
</g>
<!-- L4YAML.Proofs.ScannerProofs.emit_tokens_size&#45;&gt;L4YAML.Proofs.ScannerCorrectness.scanValue_adds_tokens -->
<g id="edge8" class="edge">
<title>L4YAML.Proofs.ScannerProofs.emit_tokens_size&#45;&gt;L4YAML.Proofs.ScannerCorrectness.scanValue_adds_tokens</title>
<path fill="none" stroke="#28a745" d="M247.94,-426.1C299.37,-400.67 392.71,-366.1 444.91,-417.28 465.14,-437.13 436.68,-905.59 454.91,-927.28 461.26,-934.84 468.68,-941.11 476.84,-946.3"/>
<polygon fill="#28a745" stroke="#28a745" points="475.94,-948.61 483.21,-950.06 478.43,-944.39 475.94,-948.61"/>
</g>
<!-- L4YAML.Proofs.ScannerCorrectness.scanValueClearKey_preserves_tokens -->
<g id="node13" class="node">
<title>L4YAML.Proofs.ScannerCorrectness.scanValueClearKey_preserves_tokens</title>
<g id="a_node13"><a xlink:href="../../../api/L4YAML/Proofs/Scanner/ScannerCorrectness.html#L4YAML.Proofs.ScannerCorrectness.scanValueClearKey_preserves_tokens" xlink:title="ScannerCorrectness.scanValueClearKey_preserves_tokens\n(Scanner.ScannerCorrectness)" target="_blank">
<ellipse fill="#d4edda" stroke="#28a745" cx="210.45" cy="-566.28" rx="194.41" ry="21.43"/>
<text text-anchor="middle" x="210.45" y="-569.28" font-family="Helvetica" font-size="10.00">ScannerCorrectness.scanValueClearKey_preserves_tokens</text>
<text text-anchor="middle" x="210.45" y="-558.28" font-family="Helvetica" font-size="10.00">(Scanner.ScannerCorrectness)</text>
</a>
</g>
</g>
<!-- L4YAML.Proofs.ScannerCorrectness.scanValueClearKey_preserves_tokens&#45;&gt;L4YAML.Positioned -->
<g id="edge19" class="edge">
<title>L4YAML.Proofs.ScannerCorrectness.scanValueClearKey_preserves_tokens&#45;&gt;L4YAML.Positioned</title>
<path fill="none" stroke="#6f42c1" stroke-width="2" stroke-dasharray="5,2" d="M380.38,-555.92C392.1,-550.86 403.12,-544.42 412.91,-536.28 423.4,-527.57 414.18,-517.75 422.91,-507.28 433.36,-494.75 439.12,-493.42 454.91,-489.28 542.14,-466.43 810.46,-430.19 860.39,-505.28 895.53,-558.14 844.47,-1022.63 878.39,-1076.28 882.7,-1083.1 889.31,-1088.28 896.42,-1092.18"/>
<polygon fill="#6f42c1" stroke="#6f42c1" stroke-width="2" points="895.63,-1093.74 900.88,-1094.45 897.22,-1090.62 895.63,-1093.74"/>
<text text-anchor="middle" x="640.15" y="-491.68" font-family="Times-Roman" font-size="7.00" fill="#6f42c1">about</text>
</g>
<!-- L4YAML.Proofs.ScannerCorrectness.scanValueClearKey_preserves_tokens&#45;&gt;L4YAML.Scanner.ScannerState -->
<g id="edge21" class="edge">
<title>L4YAML.Proofs.ScannerCorrectness.scanValueClearKey_preserves_tokens&#45;&gt;L4YAML.Scanner.ScannerState</title>
<path fill="none" stroke="#6f42c1" stroke-width="2" stroke-dasharray="5,2" d="M383.68,-556.57C394.35,-551.3 404.26,-544.63 412.91,-536.28 430.47,-519.33 412.33,-504.28 422.91,-482.28 425.26,-477.39 449.97,-447.54 454.91,-445.28 536.92,-407.78 807.21,-388.45 860.39,-461.28 927.7,-553.48 931.28,-928.13 931.05,-1025.87"/>
<polygon fill="#6f42c1" stroke="#6f42c1" stroke-width="2" points="929.3,-1026.11 931.03,-1031.11 932.8,-1026.12 929.3,-1026.11"/>
<text text-anchor="middle" x="640.15" y="-447.68" font-family="Times-Roman" font-size="7.00" fill="#6f42c1">about</text>
</g>
<!-- L4YAML.Proofs.ScannerCorrectness.scanValueClearKey_preserves_tokens&#45;&gt;L4YAML.YamlToken -->
<g id="edge20" class="edge">
<title>L4YAML.Proofs.ScannerCorrectness.scanValueClearKey_preserves_tokens&#45;&gt;L4YAML.YamlToken</title>
<path fill="none" stroke="#6f42c1" stroke-width="2" stroke-dasharray="5,2" d="M338.24,-550.24C363.11,-546.3 388.92,-541.64 412.91,-536.28 417.44,-535.27 418.32,-533.96 422.91,-533.28 511.4,-520.3 756.63,-476.09 825.39,-533.28 891.06,-587.92 850.7,-637.41 860.39,-722.28 865.53,-767.37 853.9,-1092.08 878.39,-1130.28 882.48,-1136.66 888.58,-1141.61 895.2,-1145.42"/>
<polygon fill="#6f42c1" stroke="#6f42c1" stroke-width="2" points="894.61,-1147.09 899.85,-1147.88 896.25,-1143.99 894.61,-1147.09"/>
<text text-anchor="middle" x="640.15" y="-535.68" font-family="Times-Roman" font-size="7.00" fill="#6f42c1">about</text>
</g>
<!-- L4YAML.Proofs.ScannerCorrectness.scanValueClearKey_preserves_tokens&#45;&gt;L4YAML.Scanner.ScannerState.tokens -->
<g id="edge18" class="edge">
<title>L4YAML.Proofs.ScannerCorrectness.scanValueClearKey_preserves_tokens&#45;&gt;L4YAML.Scanner.ScannerState.tokens</title>
<path fill="none" stroke="#6f42c1" stroke-width="2" stroke-dasharray="5,2" d="M351.16,-551.63C510.46,-538.21 757.64,-528.45 825.39,-588.28 888.11,-643.68 850.76,-690.16 860.39,-773.28 865.65,-818.69 853.73,-1145.79 878.39,-1184.28 879.57,-1186.13 880.92,-1187.85 882.4,-1189.47"/>
<polygon fill="#6f42c1" stroke="#6f42c1" stroke-width="2" points="881.27,-1190.81 886.09,-1193.03 883.71,-1188.29 881.27,-1190.81"/>
<text text-anchor="middle" x="640.15" y="-590.68" font-family="Times-Roman" font-size="7.00" fill="#6f42c1">about</text>
</g>
<!-- L4YAML.Proofs.ScannerCorrectness.scanValueClearKey_preserves_tokens&#45;&gt;L4YAML.Scanner.scanValueClearKey -->
<g id="edge22" class="edge">
<title>L4YAML.Proofs.ScannerCorrectness.scanValueClearKey_preserves_tokens&#45;&gt;L4YAML.Scanner.scanValueClearKey</title>
<path fill="none" stroke="#6f42c1" stroke-width="2" stroke-dasharray="5,2" d="M386.58,-575.28C396.36,-580.77 405.29,-587.68 412.91,-596.28 427.12,-612.35 417.08,-961.64 422.91,-982.28 428.21,-1001.06 439.28,-1001.6 444.91,-1020.28 450.18,-1037.76 442.56,-1170.84 454.91,-1184.28 486.96,-1219.17 542.69,-1222.96 584.48,-1219.83"/>
<polygon fill="#6f42c1" stroke="#6f42c1" stroke-width="2" points="584.67,-1221.57 589.51,-1219.41 584.38,-1218.08 584.67,-1221.57"/>
<text text-anchor="middle" x="433.91" y="-1022.68" font-family="Times-Roman" font-size="7.00" fill="#6f42c1">about</text>
</g>
<!-- L4YAML.Proofs.ScannerCorrectness.scanValueClearKey_preserves_tokens&#45;&gt;L4YAML.Proofs.ScannerCorrectness.scanValue_adds_tokens -->
<g id="edge9" class="edge">
<title>L4YAML.Proofs.ScannerCorrectness.scanValueClearKey_preserves_tokens&#45;&gt;L4YAML.Proofs.ScannerCorrectness.scanValue_adds_tokens</title>
<path fill="none" stroke="#28a745" d="M298.37,-547.34C348.35,-541.96 408.3,-545.89 444.91,-584.28 471.22,-611.88 430.24,-898.21 454.91,-927.28 461.29,-934.81 468.74,-941.06 476.92,-946.23"/>
<polygon fill="#28a745" stroke="#28a745" points="476.03,-948.55 483.31,-949.97 478.51,-944.32 476.03,-948.55"/>
</g>
<!-- L4YAML.Proofs.ScannerCorrectness.advance_preserves_tokens -->
<g id="node14" class="node">
<title>L4YAML.Proofs.ScannerCorrectness.advance_preserves_tokens</title>
<g id="a_node14"><a xlink:href="../../../api/L4YAML/Proofs/Scanner/ScannerCorrectness.html#L4YAML.Proofs.ScannerCorrectness.advance_preserves_tokens" xlink:title="ScannerCorrectness.advance_preserves_tokens\n(Scanner.ScannerCorrectness)" target="_blank">
<ellipse fill="#d4edda" stroke="#28a745" cx="210.45" cy="-626.28" rx="160.53" ry="21.43"/>
<text text-anchor="middle" x="210.45" y="-629.28" font-family="Helvetica" font-size="10.00">ScannerCorrectness.advance_preserves_tokens</text>
<text text-anchor="middle" x="210.45" y="-618.28" font-family="Helvetica" font-size="10.00">(Scanner.ScannerCorrectness)</text>
</a>
</g>
</g>
<!-- L4YAML.Proofs.ScannerCorrectness.advance_preserves_tokens&#45;&gt;L4YAML.Positioned -->
<g id="edge25" class="edge">
<title>L4YAML.Proofs.ScannerCorrectness.advance_preserves_tokens&#45;&gt;L4YAML.Positioned</title>
<path fill="none" stroke="#6f42c1" stroke-width="2" stroke-dasharray="5,2" d="M363.05,-633.03C530.33,-640.94 781.82,-654.34 825.39,-665.28 841.98,-669.45 850.82,-667.11 860.39,-681.28 909.55,-754.11 830.92,-1002.34 878.39,-1076.28 882.62,-1082.87 889,-1087.93 895.86,-1091.79"/>
<polygon fill="#6f42c1" stroke="#6f42c1" stroke-width="2" points="895.43,-1093.54 900.68,-1094.27 897.04,-1090.42 895.43,-1093.54"/>
<text text-anchor="middle" x="640.15" y="-667.68" font-family="Times-Roman" font-size="7.00" fill="#6f42c1">about</text>
</g>
<!-- L4YAML.Proofs.ScannerCorrectness.advance_preserves_tokens&#45;&gt;L4YAML.Scanner.ScannerState.advance -->
<g id="edge24" class="edge">
<title>L4YAML.Proofs.ScannerCorrectness.advance_preserves_tokens&#45;&gt;L4YAML.Scanner.ScannerState.advance</title>
<path fill="none" stroke="#6f42c1" stroke-width="2" stroke-dasharray="5,2" d="M370.15,-628.8C386.2,-634.9 400.96,-643.74 412.91,-656.28 428.32,-672.45 420.43,-734.09 422.91,-756.28 431.76,-835.5 437.22,-854.94 444.91,-934.28 446.43,-950.03 444.15,-1064.69 454.91,-1076.28 485.2,-1108.95 536.27,-1114.27 576.97,-1112.22"/>
<polygon fill="#6f42c1" stroke="#6f42c1" stroke-width="2" points="577.5,-1113.94 582.39,-1111.9 577.29,-1110.45 577.5,-1113.94"/>
<text text-anchor="middle" x="433.91" y="-936.68" font-family="Times-Roman" font-size="7.00" fill="#6f42c1">about</text>
</g>
<!-- L4YAML.Proofs.ScannerCorrectness.advance_preserves_tokens&#45;&gt;L4YAML.Scanner.ScannerState -->
<g id="edge27" class="edge">
<title>L4YAML.Proofs.ScannerCorrectness.advance_preserves_tokens&#45;&gt;L4YAML.Scanner.ScannerState</title>
<path fill="none" stroke="#6f42c1" stroke-width="2" stroke-dasharray="5,2" d="M368.6,-622.58C397.31,-622.04 427.01,-621.57 454.91,-621.28 545.08,-620.36 805.4,-565.81 860.39,-637.28 907.92,-699.07 925.33,-947.33 929.69,-1025.55"/>
<polygon fill="#6f42c1" stroke="#6f42c1" stroke-width="2" points="927.96,-1025.99 929.99,-1030.89 931.46,-1025.8 927.96,-1025.99"/>
<text text-anchor="middle" x="640.15" y="-623.68" font-family="Times-Roman" font-size="7.00" fill="#6f42c1">about</text>
</g>
<!-- L4YAML.Proofs.ScannerCorrectness.advance_preserves_tokens&#45;&gt;L4YAML.YamlToken -->
<g id="edge26" class="edge">
<title>L4YAML.Proofs.ScannerCorrectness.advance_preserves_tokens&#45;&gt;L4YAML.YamlToken</title>
<path fill="none" stroke="#6f42c1" stroke-width="2" stroke-dasharray="5,2" d="M334.13,-639.82C360.37,-644.03 387.75,-649.42 412.91,-656.28 432.34,-661.58 435.35,-668.48 454.91,-673.28 535.24,-693.01 764.09,-653.74 825.39,-709.28 867.2,-747.17 873.1,-1122.3 878.39,-1130.28 882.52,-1136.53 888.58,-1141.42 895.12,-1145.2"/>
<polygon fill="#6f42c1" stroke="#6f42c1" stroke-width="2" points="894.48,-1146.84 899.71,-1147.65 896.13,-1143.75 894.48,-1146.84"/>
<text text-anchor="middle" x="640.15" y="-711.68" font-family="Times-Roman" font-size="7.00" fill="#6f42c1">about</text>
</g>
<!-- L4YAML.Proofs.ScannerCorrectness.advance_preserves_tokens&#45;&gt;L4YAML.Scanner.ScannerState.tokens -->
<g id="edge23" class="edge">
<title>L4YAML.Proofs.ScannerCorrectness.advance_preserves_tokens&#45;&gt;L4YAML.Scanner.ScannerState.tokens</title>
<path fill="none" stroke="#6f42c1" stroke-width="2" stroke-dasharray="5,2" d="M364.41,-632.3C381.85,-637.71 398.51,-645.43 412.91,-656.28 421.48,-662.75 417.23,-669.17 422.91,-678.28 434.76,-697.32 435.31,-706.39 454.91,-717.28 600.06,-798.02 703.05,-653.95 825.39,-766.28 878.69,-815.22 850.07,-853.66 860.39,-925.28 868.61,-982.39 846.65,-1136.11 878.39,-1184.28 879.59,-1186.11 880.96,-1187.83 882.46,-1189.43"/>
<polygon fill="#6f42c1" stroke="#6f42c1" stroke-width="2" points="881.35,-1190.78 886.18,-1192.97 883.76,-1188.25 881.35,-1190.78"/>
<text text-anchor="middle" x="640.15" y="-768.68" font-family="Times-Roman" font-size="7.00" fill="#6f42c1">about</text>
</g>
<!-- L4YAML.Proofs.ScannerCorrectness.advance_preserves_tokens&#45;&gt;L4YAML.Proofs.ScannerCorrectness.scanValue_adds_tokens -->
<g id="edge7" class="edge">
<title>L4YAML.Proofs.ScannerCorrectness.advance_preserves_tokens&#45;&gt;L4YAML.Proofs.ScannerCorrectness.scanValue_adds_tokens</title>
<path fill="none" stroke="#28a745" d="M369.75,-629.19C385.87,-635.22 400.75,-643.94 412.91,-656.28 424.71,-668.26 416.37,-715.79 422.91,-731.28 429.06,-745.87 439.29,-744.49 444.91,-759.28 451.54,-776.77 442.6,-913.21 454.91,-927.28 461.49,-934.81 469.14,-941.05 477.51,-946.2"/>
<polygon fill="#28a745" stroke="#28a745" points="476.75,-948.59 484.05,-949.93 479.18,-944.33 476.75,-948.59"/>
</g>
<!-- L4YAML.Proofs.ScannerCorrectness.scanValue_adds_tokens._proof_1_2 -->
<g id="node15" class="node">
<title>L4YAML.Proofs.ScannerCorrectness.scanValue_adds_tokens._proof_1_2</title>
<g id="a_node15"><a xlink:href="../../../api/L4YAML/Proofs/Scanner/ScannerCorrectness.html#L4YAML.Proofs.ScannerCorrectness.scanValue_adds_tokens._proof_1_2" xlink:title="ScannerCorrectness.scanValue_adds_tokens._proof_1_2\n(Scanner.ScannerCorrectness)" target="_blank">
<ellipse fill="#d4edda" stroke="#28a745" cx="210.45" cy="-686.28" rx="187.27" ry="21.43"/>
<text text-anchor="middle" x="210.45" y="-689.28" font-family="Helvetica" font-size="10.00">ScannerCorrectness.scanValue_adds_tokens._proof_1_2</text>
<text text-anchor="middle" x="210.45" y="-678.28" font-family="Helvetica" font-size="10.00">(Scanner.ScannerCorrectness)</text>
</a>
</g>
</g>
<!-- L4YAML.Proofs.ScannerCorrectness.scanValue_adds_tokens._proof_1_2&#45;&gt;L4YAML.Positioned -->
<g id="edge29" class="edge">
<title>L4YAML.Proofs.ScannerCorrectness.scanValue_adds_tokens._proof_1_2&#45;&gt;L4YAML.Positioned</title>
<path fill="none" stroke="#6f42c1" stroke-width="2" stroke-dasharray="5,2" d="M240.54,-707.29C279.79,-734.41 352.89,-780.69 422.91,-802.28 516.54,-831.16 804.1,-777.09 860.39,-857.28 888.44,-897.25 851.27,-1035.68 878.39,-1076.28 882.74,-1082.79 889.16,-1087.82 896.04,-1091.67"/>
<polygon fill="#6f42c1" stroke="#6f42c1" stroke-width="2" points="895.61,-1093.42 900.85,-1094.16 897.21,-1090.31 895.61,-1093.42"/>
<text text-anchor="middle" x="640.15" y="-831.68" font-family="Times-Roman" font-size="7.00" fill="#6f42c1">about</text>
</g>
<!-- L4YAML.Proofs.ScannerCorrectness.scanValue_adds_tokens._proof_1_2&#45;&gt;L4YAML.Scanner.ScannerState -->
<g id="edge32" class="edge">
<title>L4YAML.Proofs.ScannerCorrectness.scanValue_adds_tokens._proof_1_2&#45;&gt;L4YAML.Scanner.ScannerState</title>
<path fill="none" stroke="#6f42c1" stroke-width="2" stroke-dasharray="5,2" d="M244.24,-707.36C284.47,-731.92 355.65,-771.17 422.91,-787.28 517.62,-809.98 796.45,-739.82 860.39,-813.28 915.13,-876.18 927.38,-980.18 930.11,-1026.17"/>
<polygon fill="#6f42c1" stroke="#6f42c1" stroke-width="2" points="928.37,-1026.33 930.39,-1031.23 931.86,-1026.14 928.37,-1026.33"/>
<text text-anchor="middle" x="640.15" y="-793.68" font-family="Times-Roman" font-size="7.00" fill="#6f42c1">about</text>
</g>
<!-- L4YAML.Proofs.ScannerCorrectness.scanValue_adds_tokens._proof_1_2&#45;&gt;L4YAML.YamlToken -->
<g id="edge31" class="edge">
<title>L4YAML.Proofs.ScannerCorrectness.scanValue_adds_tokens._proof_1_2&#45;&gt;L4YAML.YamlToken</title>
<path fill="none" stroke="#6f42c1" stroke-width="2" stroke-dasharray="5,2" d="M236.08,-707.41C277.91,-741.98 366.89,-809.89 454.91,-841.28 611.09,-896.98 678.7,-807.97 825.39,-885.28 846.29,-896.3 851.12,-903.56 860.39,-925.28 878.33,-967.35 852.88,-1092.33 878.39,-1130.28 882.57,-1136.5 888.64,-1141.37 895.19,-1145.16"/>
<polygon fill="#6f42c1" stroke="#6f42c1" stroke-width="2" points="894.55,-1146.8 899.78,-1147.61 896.19,-1143.71 894.55,-1146.8"/>
<text text-anchor="middle" x="640.15" y="-887.68" font-family="Times-Roman" font-size="7.00" fill="#6f42c1">about</text>
</g>
<!-- L4YAML.Proofs.ScannerCorrectness.scanValue_adds_tokens._proof_1_2&#45;&gt;L4YAML.Scanner.ScannerState.tokens -->
<g id="edge28" class="edge">
<title>L4YAML.Proofs.ScannerCorrectness.scanValue_adds_tokens._proof_1_2&#45;&gt;L4YAML.Scanner.ScannerState.tokens</title>
<path fill="none" stroke="#6f42c1" stroke-width="2" stroke-dasharray="5,2" d="M228.18,-707.58C264.15,-751.55 353.82,-851.73 454.91,-893.28 531.27,-924.68 765.76,-864.17 825.39,-921.28 838.96,-934.29 827.66,-988.15 835.39,-1005.28 842.25,-1020.49 853.53,-1018.08 860.39,-1033.28 888.18,-1094.89 839.82,-1128.78 878.39,-1184.28 879.78,-1186.28 881.36,-1188.14 883.09,-1189.87"/>
<polygon fill="#6f42c1" stroke="#6f42c1" stroke-width="2" points="881.94,-1191.2 886.83,-1193.25 884.29,-1188.6 881.94,-1191.2"/>
<text text-anchor="middle" x="640.15" y="-923.68" font-family="Times-Roman" font-size="7.00" fill="#6f42c1">about</text>
</g>
<!-- L4YAML.Proofs.ScannerCorrectness.scanValue_adds_tokens._proof_1_2&#45;&gt;L4YAML.Scanner.scanValuePrepare -->
<g id="edge30" class="edge">
<title>L4YAML.Proofs.ScannerCorrectness.scanValue_adds_tokens._proof_1_2&#45;&gt;L4YAML.Scanner.scanValuePrepare</title>
<path fill="none" stroke="#6f42c1" stroke-width="2" stroke-dasharray="5,2" d="M229.12,-707.79C282.99,-773.44 441.8,-967.3 444.91,-975.28 451.18,-991.36 443.21,-1117.6 454.91,-1130.28 487.76,-1165.91 545.31,-1169.07 587.37,-1165.57"/>
<polygon fill="#6f42c1" stroke="#6f42c1" stroke-width="2" points="587.6,-1167.31 592.42,-1165.12 587.28,-1163.82 587.6,-1167.31"/>
<text text-anchor="middle" x="433.91" y="-977.68" font-family="Times-Roman" font-size="7.00" fill="#6f42c1">about</text>
</g>
<!-- L4YAML.Proofs.ScannerCorrectness.scanValue_adds_tokens._proof_1_2&#45;&gt;L4YAML.Scanner.scanValueClearKey -->
<g id="edge33" class="edge">
<title>L4YAML.Proofs.ScannerCorrectness.scanValue_adds_tokens._proof_1_2&#45;&gt;L4YAML.Scanner.scanValueClearKey</title>
<path fill="none" stroke="#6f42c1" stroke-width="2" stroke-dasharray="5,2" d="M229.29,-707.75C268.62,-756.19 363.18,-878.97 412.91,-997.28 445.91,-1075.81 392.45,-1126.37 454.91,-1184.28 489.05,-1215.94 543.1,-1220.53 583.84,-1218.48"/>
<polygon fill="#6f42c1" stroke="#6f42c1" stroke-width="2" points="584.35,-1220.2 589.24,-1218.16 584.15,-1216.71 584.35,-1220.2"/>
<text text-anchor="middle" x="433.91" y="-1175.68" font-family="Times-Roman" font-size="7.00" fill="#6f42c1">about</text>
</g>
<!-- L4YAML.Proofs.ScannerCorrectness.scanValue_adds_tokens._proof_1_2&#45;&gt;L4YAML.Proofs.ScannerCorrectness.scanValue_adds_tokens -->
<g id="edge10" class="edge">
<title>L4YAML.Proofs.ScannerCorrectness.scanValue_adds_tokens._proof_1_2&#45;&gt;L4YAML.Proofs.ScannerCorrectness.scanValue_adds_tokens</title>
<path fill="none" stroke="#28a745" d="M223.25,-707.58C251.04,-755.54 325.68,-872.03 422.91,-926.28 439.57,-935.58 457.99,-942.66 476.85,-948.03"/>
<polygon fill="#28a745" stroke="#28a745" points="476.41,-950.45 483.81,-949.93 477.7,-945.72 476.41,-950.45"/>
</g>
<!-- L4YAML.Proofs.ScannerCorrectness.scanValuePrepare_tokens_monotonic -->
<g id="node16" class="node">
<title>L4YAML.Proofs.ScannerCorrectness.scanValuePrepare_tokens_monotonic</title>
<g id="a_node16"><a xlink:href="../../../api/L4YAML/Proofs/Scanner/ScannerCorrectness.html#L4YAML.Proofs.ScannerCorrectness.scanValuePrepare_tokens_monotonic" xlink:title="ScannerCorrectness.scanValuePrepare_tokens_monotonic\n(Scanner.ScannerCorrectness)" target="_blank">
<ellipse fill="#d4edda" stroke="#28a745" cx="210.45" cy="-506.28" rx="192.17" ry="21.43"/>
<text text-anchor="middle" x="210.45" y="-509.28" font-family="Helvetica" font-size="10.00">ScannerCorrectness.scanValuePrepare_tokens_monotonic</text>
<text text-anchor="middle" x="210.45" y="-498.28" font-family="Helvetica" font-size="10.00">(Scanner.ScannerCorrectness)</text>
</a>
</g>
</g>
<!-- L4YAML.Proofs.ScannerCorrectness.scanValuePrepare_tokens_monotonic&#45;&gt;L4YAML.Positioned -->
<g id="edge35" class="edge">
<title>L4YAML.Proofs.ScannerCorrectness.scanValuePrepare_tokens_monotonic&#45;&gt;L4YAML.Positioned</title>
<path fill="none" stroke="#6f42c1" stroke-width="2" stroke-dasharray="5,2" d="M385.25,-497.42C395.49,-491.93 404.87,-484.99 412.91,-476.28 435.12,-452.23 404.76,-356.54 422.91,-329.28 431.72,-316.05 439.43,-316.94 454.91,-313.28 542.67,-292.57 810.74,-254.01 860.39,-329.28 906.1,-398.59 834.29,-1005.94 878.39,-1076.28 882.67,-1083.12 889.28,-1088.3 896.38,-1092.2"/>
<polygon fill="#6f42c1" stroke="#6f42c1" stroke-width="2" points="895.6,-1093.77 900.85,-1094.47 897.18,-1090.64 895.6,-1093.77"/>
<text text-anchor="middle" x="640.15" y="-315.68" font-family="Times-Roman" font-size="7.00" fill="#6f42c1">about</text>
</g>
<!-- L4YAML.Proofs.ScannerCorrectness.scanValuePrepare_tokens_monotonic&#45;&gt;L4YAML.Scanner.ScannerState -->
<g id="edge38" class="edge">
<title>L4YAML.Proofs.ScannerCorrectness.scanValuePrepare_tokens_monotonic&#45;&gt;L4YAML.Scanner.ScannerState</title>
<path fill="none" stroke="#6f42c1" stroke-width="2" stroke-dasharray="5,2" d="M385.86,-497.31C395.89,-491.83 405.06,-484.92 412.91,-476.28 427.2,-460.56 411.27,-303.06 422.91,-285.28 431.62,-271.98 439.43,-272.94 454.91,-269.28 542.67,-248.57 808.21,-211.74 860.39,-285.28 904.29,-347.17 925.89,-904.17 930.11,-1025.87"/>
<polygon fill="#6f42c1" stroke="#6f42c1" stroke-width="2" points="928.37,-1026.07 930.29,-1031 931.87,-1025.95 928.37,-1026.07"/>
<text text-anchor="middle" x="640.15" y="-271.68" font-family="Times-Roman" font-size="7.00" fill="#6f42c1">about</text>
</g>
<!-- L4YAML.Proofs.ScannerCorrectness.scanValuePrepare_tokens_monotonic&#45;&gt;L4YAML.YamlToken -->
<g id="edge37" class="edge">
<title>L4YAML.Proofs.ScannerCorrectness.scanValuePrepare_tokens_monotonic&#45;&gt;L4YAML.YamlToken</title>
<path fill="none" stroke="#6f42c1" stroke-width="2" stroke-dasharray="5,2" d="M384.97,-497.15C395.28,-491.72 404.75,-484.87 412.91,-476.28 428.75,-459.61 409.89,-392.24 422.91,-373.28 431.91,-360.18 439.43,-360.94 454.91,-357.28 535.04,-338.37 761.91,-304.85 825.39,-357.28 888.9,-409.74 851.33,-457.41 860.39,-539.28 864,-571.93 860.85,-1102.51 878.39,-1130.28 882.43,-1136.69 888.52,-1141.65 895.13,-1145.46"/>
<polygon fill="#6f42c1" stroke="#6f42c1" stroke-width="2" points="894.54,-1147.13 899.78,-1147.92 896.18,-1144.04 894.54,-1147.13"/>
<text text-anchor="middle" x="640.15" y="-359.68" font-family="Times-Roman" font-size="7.00" fill="#6f42c1">about</text>
</g>
<!-- L4YAML.Proofs.ScannerCorrectness.scanValuePrepare_tokens_monotonic&#45;&gt;L4YAML.Scanner.ScannerState.tokens -->
<g id="edge34" class="edge">
<title>L4YAML.Proofs.ScannerCorrectness.scanValuePrepare_tokens_monotonic&#45;&gt;L4YAML.Scanner.ScannerState.tokens</title>
<path fill="none" stroke="#6f42c1" stroke-width="2" stroke-dasharray="5,2" d="M383.35,-496.95C394.17,-491.61 404.2,-484.82 412.91,-476.28 431.9,-457.67 407.6,-439.04 422.91,-417.28 432.3,-403.94 439.12,-403.42 454.91,-399.28 534.55,-378.42 762.24,-346.46 825.39,-399.28 892.93,-455.78 851.24,-506.71 860.39,-594.28 863.79,-626.9 860.88,-1156.55 878.39,-1184.28 879.56,-1186.14 880.9,-1187.87 882.37,-1189.49"/>
<polygon fill="#6f42c1" stroke="#6f42c1" stroke-width="2" points="881.24,-1190.82 886.04,-1193.06 883.68,-1188.31 881.24,-1190.82"/>
<text text-anchor="middle" x="640.15" y="-401.68" font-family="Times-Roman" font-size="7.00" fill="#6f42c1">about</text>
</g>
<!-- L4YAML.Proofs.ScannerCorrectness.scanValuePrepare_tokens_monotonic&#45;&gt;L4YAML.Scanner.scanValuePrepare -->
<g id="edge36" class="edge">
<title>L4YAML.Proofs.ScannerCorrectness.scanValuePrepare_tokens_monotonic&#45;&gt;L4YAML.Scanner.scanValuePrepare</title>
<path fill="none" stroke="#6f42c1" stroke-width="2" stroke-dasharray="5,2" d="M383.97,-515.7C394.58,-521.05 404.39,-527.8 412.91,-536.28 417.05,-540.41 444.39,-738.46 444.91,-744.28 446.82,-765.65 440.67,-1114.24 454.91,-1130.28 487.17,-1166.65 545.11,-1169.61 587.42,-1165.86"/>
<polygon fill="#6f42c1" stroke="#6f42c1" stroke-width="2" points="587.69,-1167.59 592.5,-1165.37 587.36,-1164.11 587.69,-1167.59"/>
<text text-anchor="middle" x="433.91" y="-746.68" font-family="Times-Roman" font-size="7.00" fill="#6f42c1">about</text>
</g>
<!-- L4YAML.Proofs.ScannerCorrectness.scanValuePrepare_tokens_monotonic&#45;&gt;L4YAML.Proofs.ScannerCorrectness.scanValue_adds_tokens -->
<g id="edge11" class="edge">
<title>L4YAML.Proofs.ScannerCorrectness.scanValuePrepare_tokens_monotonic&#45;&gt;L4YAML.Proofs.ScannerCorrectness.scanValue_adds_tokens</title>
<path fill="none" stroke="#28a745" d="M383.07,-496.66C393.96,-491.38 404.07,-484.69 412.91,-476.28 429.33,-460.66 405.38,-440.65 422.91,-426.28 430.47,-420.09 437.93,-419.44 444.91,-426.28 464.79,-445.77 437,-905.97 454.91,-927.28 461.26,-934.84 468.68,-941.11 476.84,-946.3"/>
<polygon fill="#28a745" stroke="#28a745" points="475.94,-948.61 483.22,-950.05 478.43,-944.39 475.94,-948.61"/>
</g>
<!-- Decidable.byContradiction -->
<g id="node17" class="node">
<title>Decidable.byContradiction</title>
<g id="a_node17"><a xlink:href="../../../api/Init/Core.html#Decidable.byContradiction" xlink:title="Decidable.byContradiction" target="_blank">
<ellipse fill="#fdebd0" stroke="#e67e22" cx="210.45" cy="-1027.28" rx="77.23" ry="18"/>
<text text-anchor="middle" x="210.45" y="-1024.78" font-family="Helvetica" font-size="10.00">Decidable.byContradiction</text>
</a>
</g>
</g>
<!-- Decidable.byContradiction&#45;&gt;L4YAML.Proofs.ScannerCorrectness.scanValue_adds_tokens -->
<g id="edge12" class="edge">
<title>Decidable.byContradiction&#45;&gt;L4YAML.Proofs.ScannerCorrectness.scanValue_adds_tokens</title>
<path fill="none" stroke="#e67e22" stroke-width="2" d="M287.55,-1026.41C333.38,-1024.96 392.77,-1021.48 444.91,-1013.28 483.45,-1007.23 525.45,-996.89 560.51,-987.19"/>
<polygon fill="#e67e22" stroke="#e67e22" stroke-width="2" points="561.35,-989.5 567.43,-985.26 560.03,-984.78 561.35,-989.5"/>
</g>
</g>
</svg>
