<?xml version="1.0" encoding="UTF-8" standalone="no"?>
<!DOCTYPE svg PUBLIC "-//W3C//DTD SVG 1.1//EN"
 "http://www.w3.org/Graphics/SVG/1.1/DTD/svg11.dtd">
<!-- Generated by graphviz version 2.44.0 (0)
 -->
<!-- Title: ScannerCorrectness.scanFlowMappingEnd_stack_popped Pages: 1 -->
<svg width="1138pt" height="648pt"
 viewBox="0.00 0.00 1137.52 648.00" xmlns="http://www.w3.org/2000/svg" xmlns:xlink="http://www.w3.org/1999/xlink">
<g id="graph0" class="graph" transform="scale(1 1) rotate(0) translate(4 644)">
<title>ScannerCorrectness.scanFlowMappingEnd_stack_popped</title>
<polygon fill="white" stroke="transparent" points="-4,4 -4,-644 1133.52,-644 1133.52,4 -4,4"/>
<text text-anchor="middle" x="564.76" y="-625.6" font-family="Helvetica Bold" font-size="13.00">ScannerCorrectness.scanFlowMappingEnd_stack_popped</text>
<text text-anchor="middle" x="564.76" y="-611.6" font-family="Helvetica Bold" font-size="13.00">(heuristic: used by 5 proofs)</text>
<text text-anchor="middle" x="564.76" y="-597.6" font-family="Helvetica Bold" font-size="13.00">(L4YAML.Proofs.Scanner.ScannerCorrectness)</text>
<g id="clust1" class="cluster">
<title>cluster_functions</title>
<polygon fill="none" stroke="#4a90d9" stroke-dasharray="5,2" points="613.47,-209 613.47,-445 1121.52,-445 1121.52,-209 613.47,-209"/>
<text text-anchor="middle" x="867.49" y="-430.6" font-family="Helvetica Bold" font-size="13.00" fill="#4a90d9">Functions</text>
</g>
<g id="clust2" class="cluster">
<title>cluster_key</title>
<polygon fill="none" stroke="#d4a017" stroke-dasharray="5,2" points="446.42,-49 446.42,-131 911.52,-131 911.52,-49 446.42,-49"/>
<text text-anchor="middle" x="678.97" y="-116.6" font-family="Helvetica Bold" font-size="13.00" fill="#d4a017">Key Theorem</text>
</g>
<g id="clust3" class="cluster">
<title>cluster_proofs</title>
<polygon fill="none" stroke="#28a745" stroke-dasharray="5,2" points="8,-260 8,-400 404.42,-400 404.42,-260 8,-260"/>
<text text-anchor="middle" x="206.21" y="-385.6" font-family="Helvetica Bold" font-size="13.00" fill="#28a745">Proof Dependencies</text>
</g>
<g id="clust4" class="cluster">
<title>cluster_stdlib</title>
<polygon fill="none" stroke="#e67e22" stroke-dasharray="5,2" points="150.71,-8 150.71,-136 261.71,-136 261.71,-8 150.71,-8"/>
<text text-anchor="middle" x="206.21" y="-121.6" font-family="Helvetica Bold" font-size="13.00" fill="#e67e22">Stdlib Lemmas</text>
</g>
<!-- L4YAML.Scanner.ScannerState.emit -->
<g id="node1" class="node">
<title>L4YAML.Scanner.ScannerState.emit</title>
<g id="a_node1"><a xlink:href="../../../api/L4YAML/Scanner/State.html#L4YAML.Scanner.ScannerState.emit" xlink:title="ScannerState.emit\n(def)" target="_blank">
<polygon fill="#dce9f7" stroke="#4a90d9" points="727.97,-361 629.97,-361 629.97,-325 727.97,-325 727.97,-361"/>
<text text-anchor="middle" x="678.97" y="-346" font-family="Helvetica" font-size="10.00">ScannerState.emit</text>
<text text-anchor="middle" x="678.97" y="-335" font-family="Helvetica" font-size="10.00">(def)</text>
</a>
</g>
</g>
<!-- L4YAML.Scanner.ScannerState.advance -->
<g id="node2" class="node">
<title>L4YAML.Scanner.ScannerState.advance</title>
<g id="a_node2"><a xlink:href="../../../api/L4YAML/Scanner/State.html#L4YAML.Scanner.ScannerState.advance" xlink:title="ScannerState.advance\n(def)" target="_blank">
<polygon fill="#dce9f7" stroke="#4a90d9" points="736.47,-415 621.47,-415 621.47,-379 736.47,-379 736.47,-415"/>
<text text-anchor="middle" x="678.97" y="-400" font-family="Helvetica" font-size="10.00">ScannerState.advance</text>
<text text-anchor="middle" x="678.97" y="-389" font-family="Helvetica" font-size="10.00">(def)</text>
</a>
</g>
</g>
<!-- L4YAML.YamlToken -->
<g id="node3" class="node">
<title>L4YAML.YamlToken</title>
<g id="a_node3"><a xlink:href="../../../api/L4YAML/Token/Token.html#L4YAML.YamlToken" xlink:title="YamlToken\n(inductive)" target="_blank">
<polygon fill="#dce9f7" stroke="#4a90d9" points="710.97,-307 646.97,-307 646.97,-271 710.97,-271 710.97,-307"/>
<text text-anchor="middle" x="678.97" y="-292" font-family="Helvetica" font-size="10.00">YamlToken</text>
<text text-anchor="middle" x="678.97" y="-281" font-family="Helvetica" font-size="10.00">(inductive)</text>
</a>
</g>
</g>
<!-- L4YAML.Scanner.ScannerState -->
<g id="node4" class="node">
<title>L4YAML.Scanner.ScannerState</title>
<g id="a_node4"><a xlink:href="../../../api/L4YAML/Scanner/State.html#L4YAML.Scanner.ScannerState" xlink:title="ScannerState\n(inductive)" target="_blank">
<polygon fill="#dce9f7" stroke="#4a90d9" points="1077.02,-415 1001.02,-415 1001.02,-379 1077.02,-379 1077.02,-415"/>
<text text-anchor="middle" x="1039.02" y="-400" font-family="Helvetica" font-size="10.00">ScannerState</text>
<text text-anchor="middle" x="1039.02" y="-389" font-family="Helvetica" font-size="10.00">(inductive)</text>
</a>
</g>
</g>
<!-- L4YAML.Scanner.ScannerState.simpleKeyStack -->
<g id="node5" class="node">
<title>L4YAML.Scanner.ScannerState.simpleKeyStack</title>
<g id="a_node5"><a xlink:href="../../../api/L4YAML/Scanner/State.html#L4YAML.Scanner.ScannerState.simpleKeyStack" xlink:title="ScannerState.simpleKeyStack\n(def)" target="_blank">
<polygon fill="#dce9f7" stroke="#4a90d9" points="1113.52,-307 964.52,-307 964.52,-271 1113.52,-271 1113.52,-307"/>
<text text-anchor="middle" x="1039.02" y="-292" font-family="Helvetica" font-size="10.00">ScannerState.simpleKeyStack</text>
<text text-anchor="middle" x="1039.02" y="-281" font-family="Helvetica" font-size="10.00">(def)</text>
</a>
</g>
</g>
<!-- L4YAML.Scanner.scanFlowMappingEnd -->
<g id="node6" class="node">
<title>L4YAML.Scanner.scanFlowMappingEnd</title>
<g id="a_node6"><a xlink:href="../../../api/L4YAML/Scanner/Scanner.html#L4YAML.Scanner.scanFlowMappingEnd" xlink:title="scanFlowMappingEnd\n(def)" target="_blank">
<polygon fill="#dce9f7" stroke="#4a90d9" points="1095.52,-253 982.52,-253 982.52,-217 1095.52,-217 1095.52,-253"/>
<text text-anchor="middle" x="1039.02" y="-238" font-family="Helvetica" font-size="10.00">scanFlowMappingEnd</text>
<text text-anchor="middle" x="1039.02" y="-227" font-family="Helvetica" font-size="10.00">(def)</text>
</a>
</g>
</g>
<!-- L4YAML.Scanner.SimpleKeyState -->
<g id="node7" class="node">
<title>L4YAML.Scanner.SimpleKeyState</title>
<g id="a_node7"><a xlink:href="../../../api/L4YAML/Scanner/State.html#L4YAML.Scanner.SimpleKeyState" xlink:title="SimpleKeyState\n(inductive)" target="_blank">
<polygon fill="#dce9f7" stroke="#4a90d9" points="1082.02,-361 996.02,-361 996.02,-325 1082.02,-325 1082.02,-361"/>
<text text-anchor="middle" x="1039.02" y="-346" font-family="Helvetica" font-size="10.00">SimpleKeyState</text>
<text text-anchor="middle" x="1039.02" y="-335" font-family="Helvetica" font-size="10.00">(inductive)</text>
</a>
</g>
</g>
<!-- L4YAML.Proofs.ScannerCorrectness.scanFlowMappingEnd_stack_popped -->
<g id="node8" class="node">
<title>L4YAML.Proofs.ScannerCorrectness.scanFlowMappingEnd_stack_popped</title>
<g id="a_node8"><a xlink:href="../../../api/L4YAML/Proofs/Scanner/ScannerCorrectness.html#L4YAML.Proofs.ScannerCorrectness.scanFlowMappingEnd_stack_popped" xlink:title="ScannerCorrectness.scanFlowMappingEnd_stack_popped" target="_blank">
<polygon fill="#fff3cd" stroke="#d4a017" points="899.57,-71.54 899.57,-86.46 770.34,-97 587.6,-97 458.38,-86.46 458.38,-71.54 587.6,-61 770.34,-61 899.57,-71.54"/>
<polygon fill="none" stroke="#d4a017" points="903.57,-67.86 903.57,-90.14 770.51,-101 587.43,-101 454.38,-90.14 454.38,-67.86 587.43,-57 770.51,-57 903.57,-67.86"/>
<text text-anchor="middle" x="678.97" y="-75.9" font-family="Helvetica" font-size="12.00">ScannerCorrectness.scanFlowMappingEnd_stack_popped</text>
</a>
</g>
</g>
<!-- L4YAML.Proofs.ScannerCorrectness.scanFlowMappingEnd_stack_popped&#45;&gt;L4YAML.Scanner.ScannerState -->
<g id="edge2" class="edge">
<title>L4YAML.Proofs.ScannerCorrectness.scanFlowMappingEnd_stack_popped&#45;&gt;L4YAML.Scanner.ScannerState</title>
<path fill="none" stroke="#4a90d9" stroke-width="2" d="M847.66,-94.78C871.67,-103.62 894.09,-116.48 911.52,-135 928.85,-153.41 912.93,-167.22 921.52,-191 929.16,-212.15 939.34,-213.68 946.52,-235 965.82,-292.37 926.66,-322.77 964.52,-370 971.91,-379.22 982.76,-385.3 993.87,-389.29"/>
<polygon fill="#4a90d9" stroke="#4a90d9" stroke-width="2" points="993.37,-391.71 1000.79,-391.53 994.88,-387.05 993.37,-391.71"/>
<text text-anchor="middle" x="934.02" y="-237.6" font-family="Times-Roman" font-size="8.00" fill="#4a90d9">about</text>
</g>
<!-- L4YAML.Proofs.ScannerCorrectness.scanFlowMappingEnd_stack_popped&#45;&gt;L4YAML.Scanner.ScannerState.simpleKeyStack -->
<g id="edge1" class="edge">
<title>L4YAML.Proofs.ScannerCorrectness.scanFlowMappingEnd_stack_popped&#45;&gt;L4YAML.Scanner.ScannerState.simpleKeyStack</title>
<path fill="none" stroke="#4a90d9" stroke-width="2" d="M902.72,-90.27C918.95,-97.93 933.87,-107.98 946.52,-121 990.53,-166.32 925.15,-212.59 964.52,-262 965.7,-263.49 966.98,-264.89 968.33,-266.22"/>
<polygon fill="#4a90d9" stroke="#4a90d9" stroke-width="2" points="966.99,-268.3 973.9,-270.97 970.17,-264.57 966.99,-268.3"/>
<text text-anchor="middle" x="934.02" y="-123.6" font-family="Times-Roman" font-size="8.00" fill="#4a90d9">about</text>
</g>
<!-- L4YAML.Proofs.ScannerCorrectness.scanFlowMappingEnd_stack_popped&#45;&gt;L4YAML.Scanner.scanFlowMappingEnd -->
<g id="edge3" class="edge">
<title>L4YAML.Proofs.ScannerCorrectness.scanFlowMappingEnd_stack_popped&#45;&gt;L4YAML.Scanner.scanFlowMappingEnd</title>
<path fill="none" stroke="#4a90d9" stroke-width="2" d="M796.47,-59.08C845.74,-56.37 901.91,-61.25 946.52,-87 993.17,-113.93 1019.23,-175.15 1030.74,-209.83"/>
<polygon fill="#4a90d9" stroke="#4a90d9" stroke-width="2" points="1028.51,-210.88 1032.98,-216.8 1033.17,-209.39 1028.51,-210.88"/>
<text text-anchor="middle" x="934.02" y="-89.6" font-family="Times-Roman" font-size="8.00" fill="#4a90d9">about</text>
</g>
<!-- L4YAML.Proofs.ScannerCorrectness.scanFlowMappingEnd_stack_popped&#45;&gt;L4YAML.Scanner.SimpleKeyState -->
<g id="edge4" class="edge">
<title>L4YAML.Proofs.ScannerCorrectness.scanFlowMappingEnd_stack_popped&#45;&gt;L4YAML.Scanner.SimpleKeyState</title>
<path fill="none" stroke="#4a90d9" stroke-width="2" d="M818.73,-97.15C850.83,-105.42 883.7,-117.47 911.52,-135 932.36,-148.14 936.78,-155.37 946.52,-178 970.97,-234.81 925.9,-267.68 964.52,-316 970.86,-323.94 979.77,-329.54 989.2,-333.5"/>
<polygon fill="#4a90d9" stroke="#4a90d9" stroke-width="2" points="988.37,-335.81 995.79,-335.98 990.1,-331.22 988.37,-335.81"/>
<text text-anchor="middle" x="934.02" y="-180.6" font-family="Times-Roman" font-size="8.00" fill="#4a90d9">about</text>
</g>
<!-- L4YAML.Proofs.ScannerCorrectness.emit_preserves_simpleKeyStack -->
<g id="node9" class="node">
<title>L4YAML.Proofs.ScannerCorrectness.emit_preserves_simpleKeyStack</title>
<g id="a_node9"><a xlink:href="../../../api/L4YAML/Proofs/Scanner/ScannerCorrectness.html#L4YAML.Proofs.ScannerCorrectness.emit_preserves_simpleKeyStack" xlink:title="ScannerCorrectness.emit_preserves_simpleKeyStack\n(Scanner.ScannerCorrectness)" target="_blank">
<ellipse fill="#d4edda" stroke="#28a745" cx="206.21" cy="-289" rx="177.47" ry="21.43"/>
<text text-anchor="middle" x="206.21" y="-292" font-family="Helvetica" font-size="10.00">ScannerCorrectness.emit_preserves_simpleKeyStack</text>
<text text-anchor="middle" x="206.21" y="-281" font-family="Helvetica" font-size="10.00">(Scanner.ScannerCorrectness)</text>
</a>
</g>
</g>
<!-- L4YAML.Proofs.ScannerCorrectness.emit_preserves_simpleKeyStack&#45;&gt;L4YAML.Scanner.ScannerState.emit -->
<g id="edge10" class="edge">
<title>L4YAML.Proofs.ScannerCorrectness.emit_preserves_simpleKeyStack&#45;&gt;L4YAML.Scanner.ScannerState.emit</title>
<path fill="none" stroke="#6f42c1" stroke-width="2" stroke-dasharray="5,2" d="M334.92,-303.65C429.79,-314.53 554.4,-328.83 624.35,-336.85"/>
<polygon fill="#6f42c1" stroke="#6f42c1" stroke-width="2" points="624.53,-338.63 629.7,-337.46 624.93,-335.15 624.53,-338.63"/>
<text text-anchor="middle" x="425.42" y="-316.4" font-family="Times-Roman" font-size="7.00" fill="#6f42c1">about</text>
</g>
<!-- L4YAML.Proofs.ScannerCorrectness.emit_preserves_simpleKeyStack&#45;&gt;L4YAML.YamlToken -->
<g id="edge11" class="edge">
<title>L4YAML.Proofs.ScannerCorrectness.emit_preserves_simpleKeyStack&#45;&gt;L4YAML.YamlToken</title>
<path fill="none" stroke="#6f42c1" stroke-width="2" stroke-dasharray="5,2" d="M383.84,-289C478.37,-289 586.4,-289 641.49,-289"/>
<polygon fill="#6f42c1" stroke="#6f42c1" stroke-width="2" points="641.65,-290.75 646.65,-289 641.65,-287.25 641.65,-290.75"/>
<text text-anchor="middle" x="425.42" y="-291.4" font-family="Times-Roman" font-size="7.00" fill="#6f42c1">about</text>
</g>
<!-- L4YAML.Proofs.ScannerCorrectness.emit_preserves_simpleKeyStack&#45;&gt;L4YAML.Scanner.ScannerState -->
<g id="edge12" class="edge">
<title>L4YAML.Proofs.ScannerCorrectness.emit_preserves_simpleKeyStack&#45;&gt;L4YAML.Scanner.ScannerState</title>
<path fill="none" stroke="#6f42c1" stroke-width="2" stroke-dasharray="5,2" d="M301.68,-271.09C469.96,-241.32 813.22,-190.84 911.52,-254 959.2,-284.64 922.93,-331.48 964.52,-370 973.33,-378.16 984.82,-383.91 996.09,-387.93"/>
<polygon fill="#6f42c1" stroke="#6f42c1" stroke-width="2" points="995.59,-389.61 1000.89,-389.55 996.71,-386.3 995.59,-389.61"/>
<text text-anchor="middle" x="678.97" y="-256.4" font-family="Times-Roman" font-size="7.00" fill="#6f42c1">about</text>
</g>
<!-- L4YAML.Proofs.ScannerCorrectness.emit_preserves_simpleKeyStack&#45;&gt;L4YAML.Scanner.ScannerState.simpleKeyStack -->
<g id="edge9" class="edge">
<title>L4YAML.Proofs.ScannerCorrectness.emit_preserves_simpleKeyStack&#45;&gt;L4YAML.Scanner.ScannerState.simpleKeyStack</title>
<path fill="none" stroke="#6f42c1" stroke-width="2" stroke-dasharray="5,2" d="M238.39,-268.09C282.49,-239.85 366.64,-190.76 446.42,-171 500.38,-157.64 903.99,-122.2 946.52,-158 982.41,-188.21 934.48,-225.97 964.52,-262 966.17,-263.98 967.99,-265.82 969.93,-267.52"/>
<polygon fill="#6f42c1" stroke="#6f42c1" stroke-width="2" points="969.08,-269.08 974.08,-270.83 971.26,-266.35 969.08,-269.08"/>
<text text-anchor="middle" x="678.97" y="-173.4" font-family="Times-Roman" font-size="7.00" fill="#6f42c1">about</text>
</g>
<!-- L4YAML.Proofs.ScannerCorrectness.emit_preserves_simpleKeyStack&#45;&gt;L4YAML.Scanner.SimpleKeyState -->
<g id="edge13" class="edge">
<title>L4YAML.Proofs.ScannerCorrectness.emit_preserves_simpleKeyStack&#45;&gt;L4YAML.Scanner.SimpleKeyState</title>
<path fill="none" stroke="#6f42c1" stroke-width="2" stroke-dasharray="5,2" d="M257.5,-268.59C305.21,-250.4 379.37,-225.13 446.42,-215 556.31,-198.39 861.32,-143.64 946.52,-215 981.47,-244.28 935.23,-281.05 964.52,-316 971.35,-324.15 980.86,-329.84 990.79,-333.81"/>
<polygon fill="#6f42c1" stroke="#6f42c1" stroke-width="2" points="990.38,-335.53 995.68,-335.63 991.6,-332.25 990.38,-335.53"/>
<text text-anchor="middle" x="678.97" y="-217.4" font-family="Times-Roman" font-size="7.00" fill="#6f42c1">about</text>
</g>
<!-- L4YAML.Proofs.ScannerCorrectness.emit_preserves_simpleKeyStack&#45;&gt;L4YAML.Proofs.ScannerCorrectness.scanFlowMappingEnd_stack_popped -->
<g id="edge5" class="edge">
<title>L4YAML.Proofs.ScannerCorrectness.emit_preserves_simpleKeyStack&#45;&gt;L4YAML.Proofs.ScannerCorrectness.scanFlowMappingEnd_stack_popped</title>
<path fill="none" stroke="#28a745" d="M244.38,-268.16C287.38,-242.56 358.19,-195.59 404.42,-140 410.78,-132.36 406.4,-125.86 414.42,-120 429.36,-109.09 446.06,-100.59 463.59,-94.01"/>
<polygon fill="#28a745" stroke="#28a745" points="464.86,-96.16 470.62,-91.49 463.2,-91.54 464.86,-96.16"/>
</g>
<!-- L4YAML.Proofs.ScannerCorrectness.advance_preserves_simpleKeyStack -->
<g id="node10" class="node">
<title>L4YAML.Proofs.ScannerCorrectness.advance_preserves_simpleKeyStack</title>
<g id="a_node10"><a xlink:href="../../../api/L4YAML/Proofs/Scanner/ScannerCorrectness.html#L4YAML.Proofs.ScannerCorrectness.advance_preserves_simpleKeyStack" xlink:title="ScannerCorrectness.advance_preserves_simpleKeyStack\n(Scanner.ScannerCorrectness)" target="_blank">
<ellipse fill="#d4edda" stroke="#28a745" cx="206.21" cy="-349" rx="190.42" ry="21.43"/>
<text text-anchor="middle" x="206.21" y="-352" font-family="Helvetica" font-size="10.00">ScannerCorrectness.advance_preserves_simpleKeyStack</text>
<text text-anchor="middle" x="206.21" y="-341" font-family="Helvetica" font-size="10.00">(Scanner.ScannerCorrectness)</text>
</a>
</g>
</g>
<!-- L4YAML.Proofs.ScannerCorrectness.advance_preserves_simpleKeyStack&#45;&gt;L4YAML.Scanner.ScannerState.advance -->
<g id="edge14" class="edge">
<title>L4YAML.Proofs.ScannerCorrectness.advance_preserves_simpleKeyStack&#45;&gt;L4YAML.Scanner.ScannerState.advance</title>
<path fill="none" stroke="#6f42c1" stroke-width="2" stroke-dasharray="5,2" d="M347.18,-363.27C436.59,-372.39 548.12,-383.76 616.14,-390.7"/>
<polygon fill="#6f42c1" stroke="#6f42c1" stroke-width="2" points="616.21,-392.46 621.36,-391.23 616.57,-388.98 616.21,-392.46"/>
<text text-anchor="middle" x="425.42" y="-373.4" font-family="Times-Roman" font-size="7.00" fill="#6f42c1">about</text>
</g>
<!-- L4YAML.Proofs.ScannerCorrectness.advance_preserves_simpleKeyStack&#45;&gt;L4YAML.Scanner.ScannerState -->
<g id="edge16" class="edge">
<title>L4YAML.Proofs.ScannerCorrectness.advance_preserves_simpleKeyStack&#45;&gt;L4YAML.Scanner.ScannerState</title>
<path fill="none" stroke="#6f42c1" stroke-width="2" stroke-dasharray="5,2" d="M229.32,-370.19C268.99,-406.64 356.54,-480.05 446.42,-509 658.09,-577.18 748.77,-626.72 946.52,-525 989.41,-502.94 1016.66,-450.43 1029.44,-419.96"/>
<polygon fill="#6f42c1" stroke="#6f42c1" stroke-width="2" points="1031.09,-420.55 1031.37,-415.26 1027.85,-419.22 1031.09,-420.55"/>
<text text-anchor="middle" x="678.97" y="-584.4" font-family="Times-Roman" font-size="7.00" fill="#6f42c1">about</text>
</g>
<!-- L4YAML.Proofs.ScannerCorrectness.advance_preserves_simpleKeyStack&#45;&gt;L4YAML.Scanner.ScannerState.simpleKeyStack -->
<g id="edge15" class="edge">
<title>L4YAML.Proofs.ScannerCorrectness.advance_preserves_simpleKeyStack&#45;&gt;L4YAML.Scanner.ScannerState.simpleKeyStack</title>
<path fill="none" stroke="#6f42c1" stroke-width="2" stroke-dasharray="5,2" d="M258,-369.44C305.75,-387.57 379.67,-412.84 446.42,-424 501.25,-433.16 904.42,-473.3 946.52,-437 987.69,-401.5 930.2,-358.17 964.52,-316 966.15,-314 967.94,-312.14 969.87,-310.43"/>
<polygon fill="#6f42c1" stroke="#6f42c1" stroke-width="2" points="971.2,-311.6 973.98,-307.09 969,-308.88 971.2,-311.6"/>
<text text-anchor="middle" x="678.97" y="-453.4" font-family="Times-Roman" font-size="7.00" fill="#6f42c1">about</text>
</g>
<!-- L4YAML.Proofs.ScannerCorrectness.advance_preserves_simpleKeyStack&#45;&gt;L4YAML.Scanner.SimpleKeyState -->
<g id="edge17" class="edge">
<title>L4YAML.Proofs.ScannerCorrectness.advance_preserves_simpleKeyStack&#45;&gt;L4YAML.Scanner.SimpleKeyState</title>
<path fill="none" stroke="#6f42c1" stroke-width="2" stroke-dasharray="5,2" d="M234.47,-369.98C272.38,-397.76 344.31,-445.52 414.42,-465 471.41,-480.83 901.47,-519.33 946.52,-481 984.58,-448.61 932.72,-408.55 964.52,-370 971.36,-361.71 980.98,-355.96 991.02,-351.98"/>
<polygon fill="#6f42c1" stroke="#6f42c1" stroke-width="2" points="991.88,-353.53 995.97,-350.17 990.68,-350.25 991.88,-353.53"/>
<text text-anchor="middle" x="678.97" y="-499.4" font-family="Times-Roman" font-size="7.00" fill="#6f42c1">about</text>
</g>
<!-- L4YAML.Proofs.ScannerCorrectness.advance_preserves_simpleKeyStack&#45;&gt;L4YAML.Proofs.ScannerCorrectness.scanFlowMappingEnd_stack_popped -->
<g id="edge6" class="edge">
<title>L4YAML.Proofs.ScannerCorrectness.advance_preserves_simpleKeyStack&#45;&gt;L4YAML.Proofs.ScannerCorrectness.scanFlowMappingEnd_stack_popped</title>
<path fill="none" stroke="#28a745" d="M374.52,-338.98C385.41,-333.81 395.54,-327.25 404.42,-319 412.1,-311.86 439.06,-142.46 446.42,-135 463.02,-118.19 483.73,-106.09 505.9,-97.44"/>
<polygon fill="#28a745" stroke="#28a745" points="506.8,-99.72 512.51,-94.98 505.09,-95.13 506.8,-99.72"/>
</g>
<!-- eq_self -->
<g id="node11" class="node">
<title>eq_self</title>
<g id="a_node11"><a xlink:href="../../../api/Init/SimpLemmas.html#eq_self" xlink:title="eq_self" target="_blank">
<ellipse fill="#fdebd0" stroke="#e67e22" cx="206.21" cy="-34" rx="28.01" ry="18"/>
<text text-anchor="middle" x="206.21" y="-31.5" font-family="Helvetica" font-size="10.00">eq_self</text>
</a>
</g>
</g>
<!-- eq_self&#45;&gt;L4YAML.Proofs.ScannerCorrectness.scanFlowMappingEnd_stack_popped -->
<g id="edge7" class="edge">
<title>eq_self&#45;&gt;L4YAML.Proofs.ScannerCorrectness.scanFlowMappingEnd_stack_popped</title>
<path fill="none" stroke="#e67e22" stroke-width="2" d="M234.21,-36.58C286.11,-41.54 403.6,-52.77 504.65,-62.43"/>
<polygon fill="#e67e22" stroke="#e67e22" stroke-width="2" points="504.69,-64.9 511.9,-63.12 505.16,-60.02 504.69,-64.9"/>
</g>
<!-- of_eq_true -->
<g id="node12" class="node">
<title>of_eq_true</title>
<g id="a_node12"><a xlink:href="../../../api/Init/SimpLemmas.html#of_eq_true" xlink:title="of_eq_true" target="_blank">
<ellipse fill="#fdebd0" stroke="#e67e22" cx="206.21" cy="-88" rx="36.49" ry="18"/>
<text text-anchor="middle" x="206.21" y="-85.5" font-family="Helvetica" font-size="10.00">of_eq_true</text>
</a>
</g>
</g>
<!-- of_eq_true&#45;&gt;L4YAML.Proofs.ScannerCorrectness.scanFlowMappingEnd_stack_popped -->
<g id="edge8" class="edge">
<title>of_eq_true&#45;&gt;L4YAML.Proofs.ScannerCorrectness.scanFlowMappingEnd_stack_popped</title>
<path fill="none" stroke="#e67e22" stroke-width="2" d="M242.98,-87.32C287.61,-86.46 367.75,-84.93 447.19,-83.41"/>
<polygon fill="#e67e22" stroke="#e67e22" stroke-width="2" points="447.43,-85.86 454.38,-83.27 447.34,-80.96 447.43,-85.86"/>
</g>
</g>
</svg>
