<?xml version="1.0" encoding="UTF-8" standalone="no"?>
<!DOCTYPE svg PUBLIC "-//W3C//DTD SVG 1.1//EN"
 "http://www.w3.org/Graphics/SVG/1.1/DTD/svg11.dtd">
<!-- Generated by graphviz version 2.44.0 (0)
 -->
<!-- Title: ScannerCorrectness.scanValuePrepare_tokens_monotonic Pages: 1 -->
<svg width="1173pt" height="836pt"
 viewBox="0.00 0.00 1173.22 836.00" xmlns="http://www.w3.org/2000/svg" xmlns:xlink="http://www.w3.org/1999/xlink">
<g id="graph0" class="graph" transform="scale(1 1) rotate(0) translate(4 832)">
<title>ScannerCorrectness.scanValuePrepare_tokens_monotonic</title>
<polygon fill="white" stroke="transparent" points="-4,4 -4,-832 1169.22,-832 1169.22,4 -4,4"/>
<text text-anchor="middle" x="582.61" y="-813.6" font-family="Helvetica Bold" font-size="13.00">ScannerCorrectness.scanValuePrepare_tokens_monotonic</text>
<text text-anchor="middle" x="582.61" y="-799.6" font-family="Helvetica Bold" font-size="13.00">(heuristic: used by 5 proofs)</text>
<text text-anchor="middle" x="582.61" y="-785.6" font-family="Helvetica Bold" font-size="13.00">(L4YAML.Proofs.Scanner.ScannerCorrectness)</text>
<g id="clust1" class="cluster">
<title>cluster_functions</title>
<polygon fill="none" stroke="#4a90d9" stroke-dasharray="5,2" points="697.5,-480 697.5,-770 1157.22,-770 1157.22,-480 697.5,-480"/>
<text text-anchor="middle" x="927.36" y="-755.6" font-family="Helvetica Bold" font-size="13.00" fill="#4a90d9">Functions</text>
</g>
<g id="clust2" class="cluster">
<title>cluster_key</title>
<polygon fill="none" stroke="#d4a017" stroke-dasharray="5,2" points="522.79,-259 522.79,-341 989.22,-341 989.22,-259 522.79,-259"/>
<text text-anchor="middle" x="756" y="-326.6" font-family="Helvetica Bold" font-size="13.00" fill="#d4a017">Key Theorem</text>
</g>
<g id="clust3" class="cluster">
<title>cluster_proofs</title>
<polygon fill="none" stroke="#28a745" stroke-dasharray="5,2" points="8,-468 8,-608 480.79,-608 480.79,-468 8,-468"/>
<text text-anchor="middle" x="244.4" y="-593.6" font-family="Helvetica Bold" font-size="13.00" fill="#28a745">Proof Dependencies</text>
</g>
<g id="clust4" class="cluster">
<title>cluster_stdlib</title>
<polygon fill="none" stroke="#e67e22" stroke-dasharray="5,2" points="152.22,-8 152.22,-460 336.57,-460 336.57,-8 152.22,-8"/>
<text text-anchor="middle" x="244.4" y="-445.6" font-family="Helvetica Bold" font-size="13.00" fill="#e67e22">Stdlib Lemmas</text>
</g>
<!-- L4YAML.Positioned -->
<g id="node1" class="node">
<title>L4YAML.Positioned</title>
<g id="a_node1"><a xlink:href="../../../api/L4YAML/Token/Token.html#L4YAML.Positioned" xlink:title="Positioned\n(inductive)" target="_blank">
<polygon fill="#dce9f7" stroke="#4a90d9" points="1126.72,-632 1064.72,-632 1064.72,-596 1126.72,-596 1126.72,-632"/>
<text text-anchor="middle" x="1095.72" y="-617" font-family="Helvetica" font-size="10.00">Positioned</text>
<text text-anchor="middle" x="1095.72" y="-606" font-family="Helvetica" font-size="10.00">(inductive)</text>
</a>
</g>
</g>
<!-- L4YAML.Scanner.ScannerState -->
<g id="node2" class="node">
<title>L4YAML.Scanner.ScannerState</title>
<g id="a_node2"><a xlink:href="../../../api/L4YAML/Scanner/State.html#L4YAML.Scanner.ScannerState" xlink:title="ScannerState\n(inductive)" target="_blank">
<polygon fill="#dce9f7" stroke="#4a90d9" points="1133.72,-740 1057.72,-740 1057.72,-704 1133.72,-704 1133.72,-740"/>
<text text-anchor="middle" x="1095.72" y="-725" font-family="Helvetica" font-size="10.00">ScannerState</text>
<text text-anchor="middle" x="1095.72" y="-714" font-family="Helvetica" font-size="10.00">(inductive)</text>
</a>
</g>
</g>
<!-- L4YAML.YamlToken -->
<g id="node3" class="node">
<title>L4YAML.YamlToken</title>
<g id="a_node3"><a xlink:href="../../../api/L4YAML/Token/Token.html#L4YAML.YamlToken" xlink:title="YamlToken\n(inductive)" target="_blank">
<polygon fill="#dce9f7" stroke="#4a90d9" points="1127.72,-686 1063.72,-686 1063.72,-650 1127.72,-650 1127.72,-686"/>
<text text-anchor="middle" x="1095.72" y="-671" font-family="Helvetica" font-size="10.00">YamlToken</text>
<text text-anchor="middle" x="1095.72" y="-660" font-family="Helvetica" font-size="10.00">(inductive)</text>
</a>
</g>
</g>
<!-- L4YAML.Scanner.ScannerState.tokens -->
<g id="node4" class="node">
<title>L4YAML.Scanner.ScannerState.tokens</title>
<g id="a_node4"><a xlink:href="../../../api/L4YAML/Scanner/State.html#L4YAML.Scanner.ScannerState.tokens" xlink:title="ScannerState.tokens\n(def)" target="_blank">
<polygon fill="#dce9f7" stroke="#4a90d9" points="1149.22,-578 1042.22,-578 1042.22,-542 1149.22,-542 1149.22,-578"/>
<text text-anchor="middle" x="1095.72" y="-563" font-family="Helvetica" font-size="10.00">ScannerState.tokens</text>
<text text-anchor="middle" x="1095.72" y="-552" font-family="Helvetica" font-size="10.00">(def)</text>
</a>
</g>
</g>
<!-- L4YAML.Scanner.scanValuePrepare -->
<g id="node5" class="node">
<title>L4YAML.Scanner.scanValuePrepare</title>
<g id="a_node5"><a xlink:href="../../../api/L4YAML/Scanner/SimpleKey.html#L4YAML.Scanner.scanValuePrepare" xlink:title="scanValuePrepare\n(def)" target="_blank">
<polygon fill="#dce9f7" stroke="#4a90d9" points="1143.22,-524 1048.22,-524 1048.22,-488 1143.22,-488 1143.22,-524"/>
<text text-anchor="middle" x="1095.72" y="-509" font-family="Helvetica" font-size="10.00">scanValuePrepare</text>
<text text-anchor="middle" x="1095.72" y="-498" font-family="Helvetica" font-size="10.00">(def)</text>
</a>
</g>
</g>
<!-- L4YAML.Scanner.pushMappingIndent -->
<g id="node6" class="node">
<title>L4YAML.Scanner.pushMappingIndent</title>
<g id="a_node6"><a xlink:href="../../../api/L4YAML/Scanner/Indent.html#L4YAML.Scanner.pushMappingIndent" xlink:title="pushMappingIndent\n(def)" target="_blank">
<polygon fill="#dce9f7" stroke="#4a90d9" points="806.5,-740 705.5,-740 705.5,-704 806.5,-704 806.5,-740"/>
<text text-anchor="middle" x="756" y="-725" font-family="Helvetica" font-size="10.00">pushMappingIndent</text>
<text text-anchor="middle" x="756" y="-714" font-family="Helvetica" font-size="10.00">(def)</text>
</a>
</g>
</g>
<!-- L4YAML.Proofs.ScannerCorrectness.scanValuePrepare_tokens_monotonic -->
<g id="node7" class="node">
<title>L4YAML.Proofs.ScannerCorrectness.scanValuePrepare_tokens_monotonic</title>
<g id="a_node7"><a xlink:href="../../../api/L4YAML/Proofs/Scanner/ScannerCorrectness.html#L4YAML.Proofs.ScannerCorrectness.scanValuePrepare_tokens_monotonic" xlink:title="ScannerCorrectness.scanValuePrepare_tokens_monotonic" target="_blank">
<polygon fill="#fff3cd" stroke="#d4a017" points="977.43,-281.54 977.43,-296.46 847.72,-307 664.29,-307 534.58,-296.46 534.58,-281.54 664.29,-271 847.72,-271 977.43,-281.54"/>
<polygon fill="none" stroke="#d4a017" points="981.43,-277.86 981.43,-300.14 847.88,-311 664.13,-311 530.58,-300.14 530.58,-277.86 664.13,-267 847.88,-267 981.43,-277.86"/>
<text text-anchor="middle" x="756" y="-285.9" font-family="Helvetica" font-size="12.00">ScannerCorrectness.scanValuePrepare_tokens_monotonic</text>
</a>
</g>
</g>
<!-- L4YAML.Proofs.ScannerCorrectness.scanValuePrepare_tokens_monotonic&#45;&gt;L4YAML.Positioned -->
<g id="edge2" class="edge">
<title>L4YAML.Proofs.ScannerCorrectness.scanValuePrepare_tokens_monotonic&#45;&gt;L4YAML.Positioned</title>
<path fill="none" stroke="#4a90d9" stroke-width="2" d="M981.43,-291.82C997.35,-299.17 1011.93,-309.01 1024.22,-322 1064.79,-364.87 1009.78,-537.69 1042.22,-587 1046.19,-593.04 1051.95,-597.8 1058.23,-601.52"/>
<polygon fill="#4a90d9" stroke="#4a90d9" stroke-width="2" points="1057.28,-603.8 1064.62,-604.92 1059.58,-599.47 1057.28,-603.8"/>
<text text-anchor="middle" x="1011.72" y="-324.6" font-family="Times-Roman" font-size="8.00" fill="#4a90d9">about</text>
</g>
<!-- L4YAML.Proofs.ScannerCorrectness.scanValuePrepare_tokens_monotonic&#45;&gt;L4YAML.Scanner.ScannerState -->
<g id="edge5" class="edge">
<title>L4YAML.Proofs.ScannerCorrectness.scanValuePrepare_tokens_monotonic&#45;&gt;L4YAML.Scanner.ScannerState</title>
<path fill="none" stroke="#4a90d9" stroke-width="2" d="M923.92,-304.85C948.83,-314.16 971.92,-327.9 989.22,-348 1003.79,-364.92 996.19,-425.87 999.22,-448 1003,-475.6 1025.72,-672.56 1042.22,-695 1044.85,-698.58 1048.09,-701.72 1051.66,-704.46"/>
<polygon fill="#4a90d9" stroke="#4a90d9" stroke-width="2" points="1050.35,-706.53 1057.51,-708.46 1053.12,-702.49 1050.35,-706.53"/>
<text text-anchor="middle" x="1011.72" y="-627.6" font-family="Times-Roman" font-size="8.00" fill="#4a90d9">about</text>
</g>
<!-- L4YAML.Proofs.ScannerCorrectness.scanValuePrepare_tokens_monotonic&#45;&gt;L4YAML.YamlToken -->
<g id="edge4" class="edge">
<title>L4YAML.Proofs.ScannerCorrectness.scanValuePrepare_tokens_monotonic&#45;&gt;L4YAML.YamlToken</title>
<path fill="none" stroke="#4a90d9" stroke-width="2" d="M909.51,-306.07C938.44,-314.99 966.67,-328.28 989.22,-348 1020.59,-375.44 1014.52,-394.47 1024.22,-435 1034.91,-479.69 1016.6,-602.85 1042.22,-641 1046,-646.62 1051.32,-651.14 1057.15,-654.75"/>
<polygon fill="#4a90d9" stroke="#4a90d9" stroke-width="2" points="1056.3,-657.08 1063.61,-658.32 1058.67,-652.8 1056.3,-657.08"/>
<text text-anchor="middle" x="1011.72" y="-437.6" font-family="Times-Roman" font-size="8.00" fill="#4a90d9">about</text>
</g>
<!-- L4YAML.Proofs.ScannerCorrectness.scanValuePrepare_tokens_monotonic&#45;&gt;L4YAML.Scanner.ScannerState.tokens -->
<g id="edge1" class="edge">
<title>L4YAML.Proofs.ScannerCorrectness.scanValuePrepare_tokens_monotonic&#45;&gt;L4YAML.Scanner.ScannerState.tokens</title>
<path fill="none" stroke="#4a90d9" stroke-width="2" d="M822.37,-266.98C882.79,-251.18 971.03,-240.42 1024.22,-290 1063.83,-326.92 1012.32,-487.85 1042.22,-533 1043.02,-534.22 1043.9,-535.38 1044.85,-536.5"/>
<polygon fill="#4a90d9" stroke="#4a90d9" stroke-width="2" points="1043.34,-538.46 1050.02,-541.67 1046.8,-534.99 1043.34,-538.46"/>
<text text-anchor="middle" x="1011.72" y="-292.6" font-family="Times-Roman" font-size="8.00" fill="#4a90d9">about</text>
</g>
<!-- L4YAML.Proofs.ScannerCorrectness.scanValuePrepare_tokens_monotonic&#45;&gt;L4YAML.Scanner.scanValuePrepare -->
<g id="edge3" class="edge">
<title>L4YAML.Proofs.ScannerCorrectness.scanValuePrepare_tokens_monotonic&#45;&gt;L4YAML.Scanner.scanValuePrepare</title>
<path fill="none" stroke="#4a90d9" stroke-width="2" d="M800.74,-266.86C858.08,-241.31 959,-208.74 1024.22,-258 1060.2,-285.18 1083.21,-423.16 1091.38,-480.72"/>
<polygon fill="#4a90d9" stroke="#4a90d9" stroke-width="2" points="1089,-481.38 1092.39,-487.97 1093.85,-480.7 1089,-481.38"/>
<text text-anchor="middle" x="1011.72" y="-260.6" font-family="Times-Roman" font-size="8.00" fill="#4a90d9">about</text>
</g>
<!-- L4YAML.Proofs.ScannerCorrectness.scanValuePrepare_tokens_monotonic._proof_1_1 -->
<g id="node8" class="node">
<title>L4YAML.Proofs.ScannerCorrectness.scanValuePrepare_tokens_monotonic._proof_1_1</title>
<g id="a_node8"><a xlink:href="../../../api/L4YAML/Proofs/Scanner/ScannerCorrectness.html#L4YAML.Proofs.ScannerCorrectness.scanValuePrepare_tokens_monotonic._proof_1_1" xlink:title="ScannerCorrectness.scanValuePrepare_tokens_monotonic._proof_1_1\n(Scanner.ScannerCorrectness)" target="_blank">
<ellipse fill="#d4edda" stroke="#28a745" cx="244.4" cy="-497" rx="228.29" ry="21.43"/>
<text text-anchor="middle" x="244.4" y="-500" font-family="Helvetica" font-size="10.00">ScannerCorrectness.scanValuePrepare_tokens_monotonic._proof_1_1</text>
<text text-anchor="middle" x="244.4" y="-489" font-family="Helvetica" font-size="10.00">(Scanner.ScannerCorrectness)</text>
</a>
</g>
</g>
<!-- L4YAML.Proofs.ScannerCorrectness.scanValuePrepare_tokens_monotonic._proof_1_1&#45;&gt;L4YAML.Positioned -->
<g id="edge17" class="edge">
<title>L4YAML.Proofs.ScannerCorrectness.scanValuePrepare_tokens_monotonic._proof_1_1&#45;&gt;L4YAML.Positioned</title>
<path fill="none" stroke="#6f42c1" stroke-width="2" stroke-dasharray="5,2" d="M440.77,-486.16C455.08,-480.5 468.64,-473.24 480.79,-464 489.66,-457.25 482.81,-448.79 490.79,-441 501.78,-430.28 507.72,-430.94 522.79,-428 726.25,-388.25 786.66,-383.9 989.22,-428 1005.93,-431.64 1014.09,-430.22 1024.22,-444 1062.14,-495.62 1005.5,-534.51 1042.22,-587 1046.66,-593.35 1053.05,-598.3 1059.86,-602.13"/>
<polygon fill="#6f42c1" stroke="#6f42c1" stroke-width="2" points="1059.37,-603.85 1064.62,-604.6 1060.99,-600.74 1059.37,-603.85"/>
<text text-anchor="middle" x="756" y="-430.4" font-family="Times-Roman" font-size="7.00" fill="#6f42c1">about</text>
</g>
<!-- L4YAML.Proofs.ScannerCorrectness.scanValuePrepare_tokens_monotonic._proof_1_1&#45;&gt;L4YAML.Scanner.ScannerState -->
<g id="edge19" class="edge">
<title>L4YAML.Proofs.ScannerCorrectness.scanValuePrepare_tokens_monotonic._proof_1_1&#45;&gt;L4YAML.Scanner.ScannerState</title>
<path fill="none" stroke="#6f42c1" stroke-width="2" stroke-dasharray="5,2" d="M473.21,-497.18C678.06,-499.66 952.34,-509.66 989.22,-545 1004.23,-559.38 991.57,-618.67 999.22,-638 1010.89,-667.51 1017.94,-674.56 1042.22,-695 1045.54,-697.8 1049.21,-700.41 1053.01,-702.82"/>
<polygon fill="#6f42c1" stroke="#6f42c1" stroke-width="2" points="1052.33,-704.46 1057.52,-705.56 1054.15,-701.47 1052.33,-704.46"/>
<text text-anchor="middle" x="756" y="-547.4" font-family="Times-Roman" font-size="7.00" fill="#6f42c1">about</text>
</g>
<!-- L4YAML.Proofs.ScannerCorrectness.scanValuePrepare_tokens_monotonic._proof_1_1&#45;&gt;L4YAML.YamlToken -->
<g id="edge18" class="edge">
<title>L4YAML.Proofs.ScannerCorrectness.scanValuePrepare_tokens_monotonic._proof_1_1&#45;&gt;L4YAML.YamlToken</title>
<path fill="none" stroke="#6f42c1" stroke-width="2" stroke-dasharray="5,2" d="M396.37,-481.15C609.75,-460.39 978.79,-431.16 1024.22,-472 1052.3,-497.25 1020.86,-609.85 1042.22,-641 1046.46,-647.18 1052.56,-652.03 1059.11,-655.81"/>
<polygon fill="#6f42c1" stroke="#6f42c1" stroke-width="2" points="1058.47,-657.45 1063.7,-658.26 1060.11,-654.37 1058.47,-657.45"/>
<text text-anchor="middle" x="756" y="-471.4" font-family="Times-Roman" font-size="7.00" fill="#6f42c1">about</text>
</g>
<!-- L4YAML.Proofs.ScannerCorrectness.scanValuePrepare_tokens_monotonic._proof_1_1&#45;&gt;L4YAML.Scanner.ScannerState.tokens -->
<g id="edge16" class="edge">
<title>L4YAML.Proofs.ScannerCorrectness.scanValuePrepare_tokens_monotonic._proof_1_1&#45;&gt;L4YAML.Scanner.ScannerState.tokens</title>
<path fill="none" stroke="#6f42c1" stroke-width="2" stroke-dasharray="5,2" d="M447.97,-487.25C459.97,-481.19 471.09,-473.55 480.79,-464 501.31,-443.8 473.8,-423.24 490.79,-400 500.17,-387.16 507.32,-387.65 522.79,-384 724.55,-336.37 786.66,-339.9 989.22,-384 1005.93,-387.64 1014.03,-386.26 1024.22,-400 1059.76,-447.91 1007.8,-484.28 1042.22,-533 1043.62,-534.99 1045.22,-536.84 1046.96,-538.56"/>
<polygon fill="#6f42c1" stroke="#6f42c1" stroke-width="2" points="1045.82,-539.89 1050.72,-541.92 1048.16,-537.29 1045.82,-539.89"/>
<text text-anchor="middle" x="756" y="-386.4" font-family="Times-Roman" font-size="7.00" fill="#6f42c1">about</text>
</g>
<!-- L4YAML.Proofs.ScannerCorrectness.scanValuePrepare_tokens_monotonic._proof_1_1&#45;&gt;L4YAML.Proofs.ScannerCorrectness.scanValuePrepare_tokens_monotonic -->
<g id="edge6" class="edge">
<title>L4YAML.Proofs.ScannerCorrectness.scanValuePrepare_tokens_monotonic._proof_1_1&#45;&gt;L4YAML.Proofs.ScannerCorrectness.scanValuePrepare_tokens_monotonic</title>
<path fill="none" stroke="#28a745" d="M449.12,-487.57C460.77,-481.42 471.5,-473.67 480.79,-464 496.27,-447.9 478.12,-382.39 490.79,-364 509.93,-336.23 538.65,-318.08 570.21,-306.36"/>
<polygon fill="#28a745" stroke="#28a745" points="571.21,-308.6 576.98,-303.95 569.57,-303.99 571.21,-308.6"/>
</g>
<!-- L4YAML.Proofs.ScannerCorrectness.pushMappingIndent_tokens_monotonic -->
<g id="node9" class="node">
<title>L4YAML.Proofs.ScannerCorrectness.pushMappingIndent_tokens_monotonic</title>
<g id="a_node9"><a xlink:href="../../../api/L4YAML/Proofs/Scanner/ScannerCorrectness.html#L4YAML.Proofs.ScannerCorrectness.pushMappingIndent_tokens_monotonic" xlink:title="ScannerCorrectness.pushMappingIndent_tokens_monotonic\n(Scanner.ScannerCorrectness)" target="_blank">
<ellipse fill="#d4edda" stroke="#28a745" cx="244.4" cy="-557" rx="196.65" ry="21.43"/>
<text text-anchor="middle" x="244.4" y="-560" font-family="Helvetica" font-size="10.00">ScannerCorrectness.pushMappingIndent_tokens_monotonic</text>
<text text-anchor="middle" x="244.4" y="-549" font-family="Helvetica" font-size="10.00">(Scanner.ScannerCorrectness)</text>
</a>
</g>
</g>
<!-- L4YAML.Proofs.ScannerCorrectness.pushMappingIndent_tokens_monotonic&#45;&gt;L4YAML.Positioned -->
<g id="edge21" class="edge">
<title>L4YAML.Proofs.ScannerCorrectness.pushMappingIndent_tokens_monotonic&#45;&gt;L4YAML.Positioned</title>
<path fill="none" stroke="#6f42c1" stroke-width="2" stroke-dasharray="5,2" d="M416.86,-567.21C601.18,-578.29 882.16,-595.55 989.22,-604 1012.55,-605.84 1038.75,-608.32 1059.2,-610.35"/>
<polygon fill="#6f42c1" stroke="#6f42c1" stroke-width="2" points="1059.12,-612.1 1064.27,-610.86 1059.47,-608.62 1059.12,-612.1"/>
<text text-anchor="middle" x="756" y="-606.4" font-family="Times-Roman" font-size="7.00" fill="#6f42c1">about</text>
</g>
<!-- L4YAML.Proofs.ScannerCorrectness.pushMappingIndent_tokens_monotonic&#45;&gt;L4YAML.Scanner.ScannerState -->
<g id="edge23" class="edge">
<title>L4YAML.Proofs.ScannerCorrectness.pushMappingIndent_tokens_monotonic&#45;&gt;L4YAML.Scanner.ScannerState</title>
<path fill="none" stroke="#6f42c1" stroke-width="2" stroke-dasharray="5,2" d="M290.9,-577.66C344.94,-601.14 438.43,-638.5 522.79,-656 726.22,-698.21 785.33,-647.08 989.22,-687 1010.52,-691.17 1033.47,-698.43 1052.5,-705.26"/>
<polygon fill="#6f42c1" stroke="#6f42c1" stroke-width="2" points="1051.96,-706.93 1057.25,-706.99 1053.15,-703.64 1051.96,-706.93"/>
<text text-anchor="middle" x="756" y="-689.4" font-family="Times-Roman" font-size="7.00" fill="#6f42c1">about</text>
</g>
<!-- L4YAML.Proofs.ScannerCorrectness.pushMappingIndent_tokens_monotonic&#45;&gt;L4YAML.YamlToken -->
<g id="edge22" class="edge">
<title>L4YAML.Proofs.ScannerCorrectness.pushMappingIndent_tokens_monotonic&#45;&gt;L4YAML.YamlToken</title>
<path fill="none" stroke="#6f42c1" stroke-width="2" stroke-dasharray="5,2" d="M328.72,-576.21C383.58,-588.19 457.13,-602.99 522.79,-612 728.78,-640.27 783.11,-620.6 989.22,-648 1012.39,-651.08 1038.17,-655.94 1058.44,-660.1"/>
<polygon fill="#6f42c1" stroke="#6f42c1" stroke-width="2" points="1058.22,-661.84 1063.47,-661.14 1058.93,-658.41 1058.22,-661.84"/>
<text text-anchor="middle" x="756" y="-650.4" font-family="Times-Roman" font-size="7.00" fill="#6f42c1">about</text>
</g>
<!-- L4YAML.Proofs.ScannerCorrectness.pushMappingIndent_tokens_monotonic&#45;&gt;L4YAML.Scanner.ScannerState.tokens -->
<g id="edge20" class="edge">
<title>L4YAML.Proofs.ScannerCorrectness.pushMappingIndent_tokens_monotonic&#45;&gt;L4YAML.Scanner.ScannerState.tokens</title>
<path fill="none" stroke="#6f42c1" stroke-width="2" stroke-dasharray="5,2" d="M441.05,-557.69C633.64,-558.37 915.89,-559.37 1036.54,-559.79"/>
<polygon fill="#6f42c1" stroke="#6f42c1" stroke-width="2" points="1036.81,-561.55 1041.81,-559.81 1036.82,-558.05 1036.81,-561.55"/>
<text text-anchor="middle" x="756" y="-561.4" font-family="Times-Roman" font-size="7.00" fill="#6f42c1">about</text>
</g>
<!-- L4YAML.Proofs.ScannerCorrectness.pushMappingIndent_tokens_monotonic&#45;&gt;L4YAML.Scanner.pushMappingIndent -->
<g id="edge24" class="edge">
<title>L4YAML.Proofs.ScannerCorrectness.pushMappingIndent_tokens_monotonic&#45;&gt;L4YAML.Scanner.pushMappingIndent</title>
<path fill="none" stroke="#6f42c1" stroke-width="2" stroke-dasharray="5,2" d="M274.65,-578.1C318.98,-608.88 406.92,-665.32 490.79,-692 560.68,-714.23 645.59,-720.43 699.95,-721.92"/>
<polygon fill="#6f42c1" stroke="#6f42c1" stroke-width="2" points="700.07,-723.68 705.11,-722.05 700.16,-720.18 700.07,-723.68"/>
<text text-anchor="middle" x="501.79" y="-700.4" font-family="Times-Roman" font-size="7.00" fill="#6f42c1">about</text>
</g>
<!-- L4YAML.Proofs.ScannerCorrectness.pushMappingIndent_tokens_monotonic&#45;&gt;L4YAML.Proofs.ScannerCorrectness.scanValuePrepare_tokens_monotonic -->
<g id="edge7" class="edge">
<title>L4YAML.Proofs.ScannerCorrectness.pushMappingIndent_tokens_monotonic&#45;&gt;L4YAML.Proofs.ScannerCorrectness.scanValuePrepare_tokens_monotonic</title>
<path fill="none" stroke="#28a745" d="M437.78,-553.11C453.5,-546.87 468.17,-538.38 480.79,-527 495.97,-513.32 508.48,-362.58 522.79,-348 540.7,-329.75 563.4,-316.87 587.56,-307.82"/>
<polygon fill="#28a745" stroke="#28a745" points="588.64,-310.04 594.41,-305.37 586.99,-305.42 588.64,-310.04"/>
</g>
<!-- Lean.Grind.instIsPreorderNat -->
<g id="node10" class="node">
<title>Lean.Grind.instIsPreorderNat</title>
<g id="a_node10"><a xlink:href="../../../api/Init/GrindInstances/Ring/Nat.html#Lean.Grind.instIsPreorderNat" xlink:title="Lean.Grind.instIsPreorderNat" target="_blank">
<ellipse fill="#fdebd0" stroke="#e67e22" cx="244.4" cy="-412" rx="84.36" ry="18"/>
<text text-anchor="middle" x="244.4" y="-409.5" font-family="Helvetica" font-size="10.00">Lean.Grind.instIsPreorderNat</text>
</a>
</g>
</g>
<!-- Lean.Grind.instIsPreorderNat&#45;&gt;L4YAML.Proofs.ScannerCorrectness.scanValuePrepare_tokens_monotonic -->
<g id="edge8" class="edge">
<title>Lean.Grind.instIsPreorderNat&#45;&gt;L4YAML.Proofs.ScannerCorrectness.scanValuePrepare_tokens_monotonic</title>
<path fill="none" stroke="#e67e22" stroke-width="2" d="M310.04,-423.29C362.57,-428.54 435.19,-426.26 480.79,-385 496.3,-370.96 475.8,-353.59 490.79,-339 506.12,-324.08 524.43,-312.9 544.15,-304.6"/>
<polygon fill="#e67e22" stroke="#e67e22" stroke-width="2" points="545.31,-306.77 550.89,-301.89 543.48,-302.22 545.31,-306.77"/>
</g>
<!-- Std.instReflLeOfIsPreorder -->
<g id="node11" class="node">
<title>Std.instReflLeOfIsPreorder</title>
<g id="a_node11"><a xlink:href="../../../api/Init/Data/Order/Lemmas.html#Std.instReflLeOfIsPreorder" xlink:title="Std.instReflLeOfIsPreorder" target="_blank">
<ellipse fill="#fdebd0" stroke="#e67e22" cx="244.4" cy="-358" rx="78.76" ry="18"/>
<text text-anchor="middle" x="244.4" y="-355.5" font-family="Helvetica" font-size="10.00">Std.instReflLeOfIsPreorder</text>
</a>
</g>
</g>
<!-- Std.instReflLeOfIsPreorder&#45;&gt;L4YAML.Proofs.ScannerCorrectness.scanValuePrepare_tokens_monotonic -->
<g id="edge9" class="edge">
<title>Std.instReflLeOfIsPreorder&#45;&gt;L4YAML.Proofs.ScannerCorrectness.scanValuePrepare_tokens_monotonic</title>
<path fill="none" stroke="#e67e22" stroke-width="2" d="M315.79,-365.69C365.7,-367.6 432.17,-362.62 480.79,-331 488.14,-326.22 483.4,-318.71 490.79,-314 501.19,-307.38 512.3,-301.88 523.86,-297.32"/>
<polygon fill="#e67e22" stroke="#e67e22" stroke-width="2" points="525.02,-299.5 530.72,-294.74 523.3,-294.91 525.02,-299.5"/>
</g>
<!-- Std.le_refl._simp_1 -->
<g id="node12" class="node">
<title>Std.le_refl._simp_1</title>
<g id="a_node12"><a xlink:href="../../../api/Init/Data/Order/Lemmas.html#Std.le_refl._simp_1" xlink:title="Std.le_refl._simp_1" target="_blank">
<ellipse fill="#fdebd0" stroke="#e67e22" cx="244.4" cy="-304" rx="59.41" ry="18"/>
<text text-anchor="middle" x="244.4" y="-301.5" font-family="Helvetica" font-size="10.00">Std.le_refl._simp_1</text>
</a>
</g>
</g>
<!-- Std.le_refl._simp_1&#45;&gt;L4YAML.Proofs.ScannerCorrectness.scanValuePrepare_tokens_monotonic -->
<g id="edge10" class="edge">
<title>Std.le_refl._simp_1&#45;&gt;L4YAML.Proofs.ScannerCorrectness.scanValuePrepare_tokens_monotonic</title>
<path fill="none" stroke="#e67e22" stroke-width="2" d="M302.37,-299.53C352.08,-295.86 426.16,-290.97 490.79,-289 501.42,-288.68 512.28,-288.41 523.26,-288.19"/>
<polygon fill="#e67e22" stroke="#e67e22" stroke-width="2" points="523.53,-290.64 530.49,-288.06 523.44,-285.74 523.53,-290.64"/>
</g>
<!-- ge_iff_le._simp_1 -->
<g id="node13" class="node">
<title>ge_iff_le._simp_1</title>
<g id="a_node13"><a xlink:href="../../../api/Init/Core.html#ge_iff_le._simp_1" xlink:title="ge_iff_le._simp_1" target="_blank">
<ellipse fill="#fdebd0" stroke="#e67e22" cx="244.4" cy="-250" rx="54.31" ry="18"/>
<text text-anchor="middle" x="244.4" y="-247.5" font-family="Helvetica" font-size="10.00">ge_iff_le._simp_1</text>
</a>
</g>
</g>
<!-- ge_iff_le._simp_1&#45;&gt;L4YAML.Proofs.ScannerCorrectness.scanValuePrepare_tokens_monotonic -->
<g id="edge11" class="edge">
<title>ge_iff_le._simp_1&#45;&gt;L4YAML.Proofs.ScannerCorrectness.scanValuePrepare_tokens_monotonic</title>
<path fill="none" stroke="#e67e22" stroke-width="2" d="M297.54,-253.99C359.53,-258.73 466.57,-266.93 561.53,-274.19"/>
<polygon fill="#e67e22" stroke="#e67e22" stroke-width="2" points="561.46,-276.65 568.63,-274.74 561.84,-271.76 561.46,-276.65"/>
</g>
<!-- Decidable.byContradiction -->
<g id="node14" class="node">
<title>Decidable.byContradiction</title>
<g id="a_node14"><a xlink:href="../../../api/Init/Core.html#Decidable.byContradiction" xlink:title="Decidable.byContradiction" target="_blank">
<ellipse fill="#fdebd0" stroke="#e67e22" cx="244.4" cy="-196" rx="77.23" ry="18"/>
<text text-anchor="middle" x="244.4" y="-193.5" font-family="Helvetica" font-size="10.00">Decidable.byContradiction</text>
</a>
</g>
</g>
<!-- Decidable.byContradiction&#45;&gt;L4YAML.Proofs.ScannerCorrectness.scanValuePrepare_tokens_monotonic -->
<g id="edge12" class="edge">
<title>Decidable.byContradiction&#45;&gt;L4YAML.Proofs.ScannerCorrectness.scanValuePrepare_tokens_monotonic</title>
<path fill="none" stroke="#e67e22" stroke-width="2" d="M317.32,-201.96C364.1,-206.39 426.31,-213.36 480.79,-223 544.02,-234.19 614.43,-251.24 668.07,-265.2"/>
<polygon fill="#e67e22" stroke="#e67e22" stroke-width="2" points="667.46,-267.58 674.86,-266.98 668.7,-262.84 667.46,-267.58"/>
</g>
<!-- of_eq_true -->
<g id="node15" class="node">
<title>of_eq_true</title>
<g id="a_node15"><a xlink:href="../../../api/Init/SimpLemmas.html#of_eq_true" xlink:title="of_eq_true" target="_blank">
<ellipse fill="#fdebd0" stroke="#e67e22" cx="244.4" cy="-142" rx="36.49" ry="18"/>
<text text-anchor="middle" x="244.4" y="-139.5" font-family="Helvetica" font-size="10.00">of_eq_true</text>
</a>
</g>
</g>
<!-- of_eq_true&#45;&gt;L4YAML.Proofs.ScannerCorrectness.scanValuePrepare_tokens_monotonic -->
<g id="edge13" class="edge">
<title>of_eq_true&#45;&gt;L4YAML.Proofs.ScannerCorrectness.scanValuePrepare_tokens_monotonic</title>
<path fill="none" stroke="#e67e22" stroke-width="2" d="M281.11,-142.8C327.77,-144.59 411.68,-150.37 480.79,-169 564.44,-191.55 655.44,-235.63 708.74,-263.63"/>
<polygon fill="#e67e22" stroke="#e67e22" stroke-width="2" points="707.71,-265.85 715.05,-266.96 710,-261.52 707.71,-265.85"/>
</g>
<!-- Array.size_setIfInBounds -->
<g id="node16" class="node">
<title>Array.size_setIfInBounds</title>
<g id="a_node16"><a xlink:href="../../../api/Init/Data/Array/Lemmas.html#Array.size_setIfInBounds" xlink:title="Array.size_setIfInBounds" target="_blank">
<ellipse fill="#fdebd0" stroke="#e67e22" cx="244.4" cy="-88" rx="73.67" ry="18"/>
<text text-anchor="middle" x="244.4" y="-85.5" font-family="Helvetica" font-size="10.00">Array.size_setIfInBounds</text>
</a>
</g>
</g>
<!-- Array.size_setIfInBounds&#45;&gt;L4YAML.Proofs.ScannerCorrectness.scanValuePrepare_tokens_monotonic -->
<g id="edge14" class="edge">
<title>Array.size_setIfInBounds&#45;&gt;L4YAML.Proofs.ScannerCorrectness.scanValuePrepare_tokens_monotonic</title>
<path fill="none" stroke="#e67e22" stroke-width="2" d="M318.09,-87.98C365.6,-89.97 428.34,-96.46 480.79,-115 577.33,-149.13 674.91,-222.41 723.46,-262.11"/>
<polygon fill="#e67e22" stroke="#e67e22" stroke-width="2" points="722.17,-264.23 729.13,-266.78 725.29,-260.44 722.17,-264.23"/>
</g>
<!-- have_body_congr&#39; -->
<g id="node17" class="node">
<title>have_body_congr&#39;</title>
<g id="a_node17"><a xlink:href="../../../api/Init/SimpLemmas.html#have_body_congr&#39;" xlink:title="have_body_congr&#39;" target="_blank">
<ellipse fill="#fdebd0" stroke="#e67e22" cx="244.4" cy="-34" rx="55.85" ry="18"/>
<text text-anchor="middle" x="244.4" y="-31.5" font-family="Helvetica" font-size="10.00">have_body_congr&#39;</text>
</a>
</g>
</g>
<!-- have_body_congr&#39;&#45;&gt;L4YAML.Proofs.ScannerCorrectness.scanValuePrepare_tokens_monotonic -->
<g id="edge15" class="edge">
<title>have_body_congr&#39;&#45;&gt;L4YAML.Proofs.ScannerCorrectness.scanValuePrepare_tokens_monotonic</title>
<path fill="none" stroke="#e67e22" stroke-width="2" d="M299.98,-31.59C349.19,-31.39 422.54,-36.1 480.79,-61 589.6,-107.51 688.79,-211.66 732.07,-261.46"/>
<polygon fill="#e67e22" stroke="#e67e22" stroke-width="2" points="730.39,-263.27 736.82,-266.97 734.1,-260.07 730.39,-263.27"/>
</g>
</g>
</svg>
