<?xml version="1.0" encoding="UTF-8" standalone="no"?>
<!DOCTYPE svg PUBLIC "-//W3C//DTD SVG 1.1//EN"
 "http://www.w3.org/Graphics/SVG/1.1/DTD/svg11.dtd">
<!-- Generated by graphviz version 2.44.0 (0)
 -->
<!-- Title: chain_ScannerCorrectness.SimpleKeyAbove_of_preserved Pages: 1 -->
<svg width="479pt" height="98pt"
 viewBox="0.00 0.00 479.00 97.92" xmlns="http://www.w3.org/2000/svg" xmlns:xlink="http://www.w3.org/1999/xlink">
<g id="graph0" class="graph" transform="scale(1 1) rotate(0) translate(4 93.92)">
<title>chain_ScannerCorrectness.SimpleKeyAbove_of_preserved</title>
<polygon fill="white" stroke="transparent" points="-4,4 -4,-93.92 475,-93.92 475,4 -4,4"/>
<text text-anchor="middle" x="235.5" y="-75.52" font-family="Helvetica Bold" font-size="13.00">Functorial Chains: ScannerCorrectness.SimpleKeyAbove_of_preserved</text>
<text text-anchor="middle" x="235.5" y="-61.52" font-family="Helvetica Bold" font-size="13.00">(heuristic: used by 5 proofs)</text>
<!-- L4YAML.Proofs.ScannerCorrectness.SimpleKeyAbove_of_preserved -->
<g id="node1" class="node">
<title>L4YAML.Proofs.ScannerCorrectness.SimpleKeyAbove_of_preserved</title>
<polygon fill="#fff3cd" stroke="black" points="422.49,-17.46 422.49,-36.46 312.96,-49.89 158.04,-49.89 48.51,-36.46 48.51,-17.46 158.04,-4.03 312.96,-4.03 422.49,-17.46"/>
<polygon fill="none" stroke="black" points="426.5,-13.93 426.5,-39.99 313.2,-53.88 157.8,-53.88 44.5,-39.99 44.5,-13.93 157.8,-0.04 313.2,-0.04 426.5,-13.93"/>
<text text-anchor="middle" x="235.5" y="-29.96" font-family="Helvetica" font-size="10.00">ScannerCorrectness.SimpleKeyAbove_of_preserved</text>
<text text-anchor="middle" x="235.5" y="-18.96" font-family="Helvetica" font-size="10.00">(no functorial chains found)</text>
</g>
</g>
</svg>
