<?xml version="1.0" encoding="UTF-8" standalone="no"?>
<!DOCTYPE svg PUBLIC "-//W3C//DTD SVG 1.1//EN"
 "http://www.w3.org/Graphics/SVG/1.1/DTD/svg11.dtd">
<!-- Generated by graphviz version 2.44.0 (0)
 -->
<!-- Title: ScannerCorrectness.skipSpaces_preserves_simpleKeyStack Pages: 1 -->
<svg width="1206pt" height="400pt"
 viewBox="0.00 0.00 1205.75 400.00" xmlns="http://www.w3.org/2000/svg" xmlns:xlink="http://www.w3.org/1999/xlink">
<g id="graph0" class="graph" transform="scale(1 1) rotate(0) translate(4 396)">
<title>ScannerCorrectness.skipSpaces_preserves_simpleKeyStack</title>
<polygon fill="white" stroke="transparent" points="-4,4 -4,-396 1201.75,-396 1201.75,4 -4,4"/>
<text text-anchor="middle" x="598.88" y="-377.6" font-family="Helvetica Bold" font-size="13.00">ScannerCorrectness.skipSpaces_preserves_simpleKeyStack</text>
<text text-anchor="middle" x="598.88" y="-363.6" font-family="Helvetica Bold" font-size="13.00">(heuristic: used by 5 proofs)</text>
<text text-anchor="middle" x="598.88" y="-349.6" font-family="Helvetica Bold" font-size="13.00">(L4YAML.Proofs.Scanner.ScannerCorrectness)</text>
<g id="clust1" class="cluster">
<title>cluster_functions</title>
<polygon fill="none" stroke="#4a90d9" stroke-dasharray="5,2" points="686.04,-98 686.04,-334 1189.75,-334 1189.75,-98 686.04,-98"/>
<text text-anchor="middle" x="937.9" y="-319.6" font-family="Helvetica Bold" font-size="13.00" fill="#4a90d9">Functions</text>
</g>
<g id="clust2" class="cluster">
<title>cluster_key</title>
<polygon fill="none" stroke="#d4a017" stroke-dasharray="5,2" points="497.34,-8 497.34,-90 979.75,-90 979.75,-8 497.34,-8"/>
<text text-anchor="middle" x="738.54" y="-75.6" font-family="Helvetica Bold" font-size="13.00" fill="#d4a017">Key Theorem</text>
</g>
<g id="clust3" class="cluster">
<title>cluster_proofs</title>
<polygon fill="none" stroke="#28a745" stroke-dasharray="5,2" points="8,-169 8,-249 455.34,-249 455.34,-169 8,-169"/>
<text text-anchor="middle" x="231.67" y="-234.6" font-family="Helvetica Bold" font-size="13.00" fill="#28a745">Proof Dependencies</text>
</g>
<!-- L4YAML.Scanner.skipSpaces -->
<g id="node1" class="node">
<title>L4YAML.Scanner.skipSpaces</title>
<g id="a_node1"><a xlink:href="../../../api/L4YAML/Scanner/Whitespace.html#L4YAML.Scanner.skipSpaces" xlink:title="skipSpaces\n(def)" target="_blank">
<polygon fill="#dce9f7" stroke="#4a90d9" points="1141.25,-142 1073.25,-142 1073.25,-106 1141.25,-106 1141.25,-142"/>
<text text-anchor="middle" x="1107.25" y="-127" font-family="Helvetica" font-size="10.00">skipSpaces</text>
<text text-anchor="middle" x="1107.25" y="-116" font-family="Helvetica" font-size="10.00">(def)</text>
</a>
</g>
</g>
<!-- L4YAML.Scanner.ScannerState -->
<g id="node2" class="node">
<title>L4YAML.Scanner.ScannerState</title>
<g id="a_node2"><a xlink:href="../../../api/L4YAML/Scanner/State.html#L4YAML.Scanner.ScannerState" xlink:title="ScannerState\n(inductive)" target="_blank">
<polygon fill="#dce9f7" stroke="#4a90d9" points="1145.25,-304 1069.25,-304 1069.25,-268 1145.25,-268 1145.25,-304"/>
<text text-anchor="middle" x="1107.25" y="-289" font-family="Helvetica" font-size="10.00">ScannerState</text>
<text text-anchor="middle" x="1107.25" y="-278" font-family="Helvetica" font-size="10.00">(inductive)</text>
</a>
</g>
</g>
<!-- L4YAML.Scanner.ScannerState.simpleKeyStack -->
<g id="node3" class="node">
<title>L4YAML.Scanner.ScannerState.simpleKeyStack</title>
<g id="a_node3"><a xlink:href="../../../api/L4YAML/Scanner/State.html#L4YAML.Scanner.ScannerState.simpleKeyStack" xlink:title="ScannerState.simpleKeyStack\n(def)" target="_blank">
<polygon fill="#dce9f7" stroke="#4a90d9" points="1181.75,-250 1032.75,-250 1032.75,-214 1181.75,-214 1181.75,-250"/>
<text text-anchor="middle" x="1107.25" y="-235" font-family="Helvetica" font-size="10.00">ScannerState.simpleKeyStack</text>
<text text-anchor="middle" x="1107.25" y="-224" font-family="Helvetica" font-size="10.00">(def)</text>
</a>
</g>
</g>
<!-- L4YAML.Scanner.skipSpacesLoop -->
<g id="node4" class="node">
<title>L4YAML.Scanner.skipSpacesLoop</title>
<g id="a_node4"><a xlink:href="../../../api/L4YAML/Scanner/Whitespace.html#L4YAML.Scanner.skipSpacesLoop" xlink:title="skipSpacesLoop\n(def)" target="_blank">
<polygon fill="#dce9f7" stroke="#4a90d9" points="783.04,-304 694.04,-304 694.04,-268 783.04,-268 783.04,-304"/>
<text text-anchor="middle" x="738.54" y="-289" font-family="Helvetica" font-size="10.00">skipSpacesLoop</text>
<text text-anchor="middle" x="738.54" y="-278" font-family="Helvetica" font-size="10.00">(def)</text>
</a>
</g>
</g>
<!-- L4YAML.Scanner.SimpleKeyState -->
<g id="node5" class="node">
<title>L4YAML.Scanner.SimpleKeyState</title>
<g id="a_node5"><a xlink:href="../../../api/L4YAML/Scanner/State.html#L4YAML.Scanner.SimpleKeyState" xlink:title="SimpleKeyState\n(inductive)" target="_blank">
<polygon fill="#dce9f7" stroke="#4a90d9" points="1150.25,-196 1064.25,-196 1064.25,-160 1150.25,-160 1150.25,-196"/>
<text text-anchor="middle" x="1107.25" y="-181" font-family="Helvetica" font-size="10.00">SimpleKeyState</text>
<text text-anchor="middle" x="1107.25" y="-170" font-family="Helvetica" font-size="10.00">(inductive)</text>
</a>
</g>
</g>
<!-- L4YAML.Proofs.ScannerCorrectness.skipSpaces_preserves_simpleKeyStack -->
<g id="node6" class="node">
<title>L4YAML.Proofs.ScannerCorrectness.skipSpaces_preserves_simpleKeyStack</title>
<g id="a_node6"><a xlink:href="../../../api/L4YAML/Proofs/Scanner/ScannerCorrectness.html#L4YAML.Proofs.ScannerCorrectness.skipSpaces_preserves_simpleKeyStack" xlink:title="ScannerCorrectness.skipSpaces_preserves_simpleKeyStack" target="_blank">
<polygon fill="#fff3cd" stroke="#d4a017" points="967.96,-30.54 967.96,-45.46 833.57,-56 643.52,-56 509.13,-45.46 509.13,-30.54 643.52,-20 833.57,-20 967.96,-30.54"/>
<polygon fill="none" stroke="#d4a017" points="971.96,-26.85 971.96,-49.15 833.73,-60 643.36,-60 505.13,-49.15 505.13,-26.85 643.36,-16 833.73,-16 971.96,-26.85"/>
<text text-anchor="middle" x="738.54" y="-34.9" font-family="Helvetica" font-size="12.00">ScannerCorrectness.skipSpaces_preserves_simpleKeyStack</text>
</a>
</g>
</g>
<!-- L4YAML.Proofs.ScannerCorrectness.skipSpaces_preserves_simpleKeyStack&#45;&gt;L4YAML.Scanner.skipSpaces -->
<g id="edge2" class="edge">
<title>L4YAML.Proofs.ScannerCorrectness.skipSpaces_preserves_simpleKeyStack&#45;&gt;L4YAML.Scanner.skipSpaces</title>
<path fill="none" stroke="#4a90d9" stroke-width="2" d="M852.04,-17.43C903.4,-12.84 963.95,-14.37 1014.75,-35 1046.85,-48.03 1073.86,-78.33 1090.03,-99.95"/>
<polygon fill="#4a90d9" stroke="#4a90d9" stroke-width="2" points="1088.2,-101.59 1094.3,-105.8 1092.15,-98.7 1088.2,-101.59"/>
<text text-anchor="middle" x="1002.25" y="-37.6" font-family="Times-Roman" font-size="8.00" fill="#4a90d9">about</text>
</g>
<!-- L4YAML.Proofs.ScannerCorrectness.skipSpaces_preserves_simpleKeyStack&#45;&gt;L4YAML.Scanner.ScannerState -->
<g id="edge3" class="edge">
<title>L4YAML.Proofs.ScannerCorrectness.skipSpaces_preserves_simpleKeyStack&#45;&gt;L4YAML.Scanner.ScannerState</title>
<path fill="none" stroke="#4a90d9" stroke-width="2" d="M908.83,-54.12C934.9,-62.84 959.76,-75.57 979.75,-94 1008.08,-120.1 1006.09,-231.21 1032.75,-259 1040.7,-267.29 1051.41,-273.04 1062.19,-277.04"/>
<polygon fill="#4a90d9" stroke="#4a90d9" stroke-width="2" points="1061.47,-279.38 1068.88,-279.3 1063.04,-274.74 1061.47,-279.38"/>
<text text-anchor="middle" x="1002.25" y="-214.6" font-family="Times-Roman" font-size="8.00" fill="#4a90d9">about</text>
</g>
<!-- L4YAML.Proofs.ScannerCorrectness.skipSpaces_preserves_simpleKeyStack&#45;&gt;L4YAML.Scanner.ScannerState.simpleKeyStack -->
<g id="edge1" class="edge">
<title>L4YAML.Proofs.ScannerCorrectness.skipSpaces_preserves_simpleKeyStack&#45;&gt;L4YAML.Scanner.ScannerState.simpleKeyStack</title>
<path fill="none" stroke="#4a90d9" stroke-width="2" d="M937.42,-51.88C966.48,-61.86 993.67,-76.84 1014.75,-99 1047.69,-133.62 1002.21,-168.25 1032.75,-205 1033.97,-206.46 1035.27,-207.85 1036.65,-209.16"/>
<polygon fill="#4a90d9" stroke="#4a90d9" stroke-width="2" points="1035.35,-211.26 1042.3,-213.84 1038.48,-207.49 1035.35,-211.26"/>
<text text-anchor="middle" x="1002.25" y="-101.6" font-family="Times-Roman" font-size="8.00" fill="#4a90d9">about</text>
</g>
<!-- L4YAML.Proofs.ScannerCorrectness.skipSpaces_preserves_simpleKeyStack&#45;&gt;L4YAML.Scanner.SimpleKeyState -->
<g id="edge4" class="edge">
<title>L4YAML.Proofs.ScannerCorrectness.skipSpaces_preserves_simpleKeyStack&#45;&gt;L4YAML.Scanner.SimpleKeyState</title>
<path fill="none" stroke="#4a90d9" stroke-width="2" d="M971.79,-39.96C987.41,-46.67 1001.98,-55.52 1014.75,-67 1043.15,-92.53 1007.72,-122.17 1032.75,-151 1039.28,-158.52 1048.09,-163.94 1057.33,-167.86"/>
<polygon fill="#4a90d9" stroke="#4a90d9" stroke-width="2" points="1056.71,-170.24 1064.12,-170.45 1058.46,-165.66 1056.71,-170.24"/>
<text text-anchor="middle" x="1002.25" y="-69.6" font-family="Times-Roman" font-size="8.00" fill="#4a90d9">about</text>
</g>
<!-- L4YAML.Proofs.ScannerCorrectness.skipSpacesLoop_preserves_simpleKeyStack -->
<g id="node7" class="node">
<title>L4YAML.Proofs.ScannerCorrectness.skipSpacesLoop_preserves_simpleKeyStack</title>
<g id="a_node7"><a xlink:href="../../../api/L4YAML/Proofs/Scanner/ScannerCorrectness.html#L4YAML.Proofs.ScannerCorrectness.skipSpacesLoop_preserves_simpleKeyStack" xlink:title="ScannerCorrectness.skipSpacesLoop_preserves_simpleKeyStack\n(Scanner.ScannerCorrectness)" target="_blank">
<ellipse fill="#d4edda" stroke="#28a745" cx="231.67" cy="-198" rx="215.84" ry="21.43"/>
<text text-anchor="middle" x="231.67" y="-201" font-family="Helvetica" font-size="10.00">ScannerCorrectness.skipSpacesLoop_preserves_simpleKeyStack</text>
<text text-anchor="middle" x="231.67" y="-190" font-family="Helvetica" font-size="10.00">(Scanner.ScannerCorrectness)</text>
</a>
</g>
</g>
<!-- L4YAML.Proofs.ScannerCorrectness.skipSpacesLoop_preserves_simpleKeyStack&#45;&gt;L4YAML.Scanner.ScannerState -->
<g id="edge8" class="edge">
<title>L4YAML.Proofs.ScannerCorrectness.skipSpacesLoop_preserves_simpleKeyStack&#45;&gt;L4YAML.Scanner.ScannerState</title>
<path fill="none" stroke="#6f42c1" stroke-width="2" stroke-dasharray="5,2" d="M394.64,-211.95C428.56,-214.73 464.11,-217.55 497.34,-220 711.6,-235.79 767.89,-215.28 979.75,-251 1008.4,-255.83 1039.89,-264.53 1064.29,-272.05"/>
<polygon fill="#6f42c1" stroke="#6f42c1" stroke-width="2" points="1063.78,-273.72 1069.07,-273.54 1064.81,-270.38 1063.78,-273.72"/>
<text text-anchor="middle" x="738.54" y="-253.4" font-family="Times-Roman" font-size="7.00" fill="#6f42c1">about</text>
</g>
<!-- L4YAML.Proofs.ScannerCorrectness.skipSpacesLoop_preserves_simpleKeyStack&#45;&gt;L4YAML.Scanner.ScannerState.simpleKeyStack -->
<g id="edge6" class="edge">
<title>L4YAML.Proofs.ScannerCorrectness.skipSpacesLoop_preserves_simpleKeyStack&#45;&gt;L4YAML.Scanner.ScannerState.simpleKeyStack</title>
<path fill="none" stroke="#6f42c1" stroke-width="2" stroke-dasharray="5,2" d="M444.01,-194.2C593.84,-193.4 799.48,-196.14 979.75,-212 995.18,-213.36 1011.57,-215.46 1027.26,-217.79"/>
<polygon fill="#6f42c1" stroke="#6f42c1" stroke-width="2" points="1027.35,-219.57 1032.55,-218.59 1027.87,-216.11 1027.35,-219.57"/>
<text text-anchor="middle" x="738.54" y="-214.4" font-family="Times-Roman" font-size="7.00" fill="#6f42c1">about</text>
</g>
<!-- L4YAML.Proofs.ScannerCorrectness.skipSpacesLoop_preserves_simpleKeyStack&#45;&gt;L4YAML.Scanner.skipSpacesLoop -->
<g id="edge7" class="edge">
<title>L4YAML.Proofs.ScannerCorrectness.skipSpacesLoop_preserves_simpleKeyStack&#45;&gt;L4YAML.Scanner.skipSpacesLoop</title>
<path fill="none" stroke="#6f42c1" stroke-width="2" stroke-dasharray="5,2" d="M302.65,-218.06C348.56,-230.57 410.12,-246.12 465.34,-256 542.86,-269.87 634.04,-278.35 688.74,-282.61"/>
<polygon fill="#6f42c1" stroke="#6f42c1" stroke-width="2" points="688.79,-284.37 693.91,-283.01 689.06,-280.88 688.79,-284.37"/>
<text text-anchor="middle" x="476.34" y="-261.4" font-family="Times-Roman" font-size="7.00" fill="#6f42c1">about</text>
</g>
<!-- L4YAML.Proofs.ScannerCorrectness.skipSpacesLoop_preserves_simpleKeyStack&#45;&gt;L4YAML.Scanner.SimpleKeyState -->
<g id="edge9" class="edge">
<title>L4YAML.Proofs.ScannerCorrectness.skipSpacesLoop_preserves_simpleKeyStack&#45;&gt;L4YAML.Scanner.SimpleKeyState</title>
<path fill="none" stroke="#6f42c1" stroke-width="2" stroke-dasharray="5,2" d="M358.3,-180.82C402.19,-175.6 451.86,-170.57 497.34,-168 711.4,-155.91 765.51,-159.55 979.75,-168 1006.06,-169.04 1035.37,-171.29 1059.15,-173.39"/>
<polygon fill="#6f42c1" stroke="#6f42c1" stroke-width="2" points="1059,-175.13 1064.14,-173.83 1059.31,-171.65 1059,-175.13"/>
<text text-anchor="middle" x="738.54" y="-170.4" font-family="Times-Roman" font-size="7.00" fill="#6f42c1">about</text>
</g>
<!-- L4YAML.Proofs.ScannerCorrectness.skipSpacesLoop_preserves_simpleKeyStack&#45;&gt;L4YAML.Proofs.ScannerCorrectness.skipSpaces_preserves_simpleKeyStack -->
<g id="edge5" class="edge">
<title>L4YAML.Proofs.ScannerCorrectness.skipSpacesLoop_preserves_simpleKeyStack&#45;&gt;L4YAML.Proofs.ScannerCorrectness.skipSpaces_preserves_simpleKeyStack</title>
<path fill="none" stroke="#28a745" d="M279.26,-177.3C331.56,-154.63 419.32,-118.28 497.34,-94 538.5,-81.19 584.44,-69.79 625.03,-60.68"/>
<polygon fill="#28a745" stroke="#28a745" points="625.72,-63.04 632.01,-59.12 624.65,-58.26 625.72,-63.04"/>
</g>
</g>
</svg>
