<?xml version="1.0" encoding="UTF-8" standalone="no"?>
<!DOCTYPE svg PUBLIC "-//W3C//DTD SVG 1.1//EN"
 "http://www.w3.org/Graphics/SVG/1.1/DTD/svg11.dtd">
<!-- Generated by graphviz version 2.44.0 (0)
 -->
<!-- Title: ScannerCorrectness.skipSpaces_preserves_tokens Pages: 1 -->
<svg width="1228pt" height="689pt"
 viewBox="0.00 0.00 1228.39 688.75" xmlns="http://www.w3.org/2000/svg" xmlns:xlink="http://www.w3.org/1999/xlink">
<g id="graph0" class="graph" transform="scale(1 1) rotate(0) translate(4 684.75)">
<title>ScannerCorrectness.skipSpaces_preserves_tokens</title>
<polygon fill="white" stroke="transparent" points="-4,4 -4,-684.75 1224.39,-684.75 1224.39,4 -4,4"/>
<text text-anchor="middle" x="610.2" y="-666.35" font-family="Helvetica Bold" font-size="13.00">ScannerCorrectness.skipSpaces_preserves_tokens</text>
<text text-anchor="middle" x="610.2" y="-652.35" font-family="Helvetica Bold" font-size="13.00">(heuristic: used by 5 proofs)</text>
<text text-anchor="middle" x="610.2" y="-638.35" font-family="Helvetica Bold" font-size="13.00">(L4YAML.Proofs.Scanner.ScannerCorrectness)</text>
<g id="clust1" class="cluster">
<title>cluster_functions</title>
<polygon fill="none" stroke="#4a90d9" stroke-dasharray="5,2" points="691.67,-146.75 691.67,-436.75 1212.39,-436.75 1212.39,-146.75 691.67,-146.75"/>
<text text-anchor="middle" x="952.03" y="-422.35" font-family="Helvetica Bold" font-size="13.00" fill="#4a90d9">Functions</text>
</g>
<g id="clust2" class="cluster">
<title>cluster_key</title>
<polygon fill="none" stroke="#d4a017" stroke-dasharray="5,2" points="629.94,-20.75 629.94,-102.75 1044.39,-102.75 1044.39,-20.75 629.94,-20.75"/>
<text text-anchor="middle" x="837.17" y="-88.35" font-family="Helvetica Bold" font-size="13.00" fill="#d4a017">Key Theorem</text>
</g>
<g id="clust3" class="cluster">
<title>cluster_proofs</title>
<polygon fill="none" stroke="#28a745" stroke-dasharray="5,2" points="129.46,-287.75 129.46,-427.75 466.48,-427.75 466.48,-287.75 129.46,-287.75"/>
<text text-anchor="middle" x="297.97" y="-413.35" font-family="Helvetica Bold" font-size="13.00" fill="#28a745">Proof Dependencies</text>
</g>
<g id="clust4" class="cluster">
<title>cluster_stdlib</title>
<polygon fill="none" stroke="#e67e22" stroke-dasharray="5,2" points="8,-69.75 8,-197.75 587.94,-197.75 587.94,-69.75 8,-69.75"/>
<text text-anchor="middle" x="297.97" y="-183.35" font-family="Helvetica Bold" font-size="13.00" fill="#e67e22">Stdlib Lemmas</text>
</g>
<!-- L4YAML.Positioned -->
<g id="node1" class="node">
<title>L4YAML.Positioned</title>
<g id="a_node1"><a xlink:href="../../../api/L4YAML/Token/Token.html#L4YAML.Positioned" xlink:title="Positioned\n(inductive)" target="_blank">
<polygon fill="#dce9f7" stroke="#4a90d9" points="1181.89,-244.75 1119.89,-244.75 1119.89,-208.75 1181.89,-208.75 1181.89,-244.75"/>
<text text-anchor="middle" x="1150.89" y="-229.75" font-family="Helvetica" font-size="10.00">Positioned</text>
<text text-anchor="middle" x="1150.89" y="-218.75" font-family="Helvetica" font-size="10.00">(inductive)</text>
</a>
</g>
</g>
<!-- L4YAML.Scanner.ScannerState.advance -->
<g id="node2" class="node">
<title>L4YAML.Scanner.ScannerState.advance</title>
<g id="a_node2"><a xlink:href="../../../api/L4YAML/Scanner/State.html#L4YAML.Scanner.ScannerState.advance" xlink:title="ScannerState.advance\n(def)" target="_blank">
<polygon fill="#dce9f7" stroke="#4a90d9" points="894.67,-406.75 779.67,-406.75 779.67,-370.75 894.67,-370.75 894.67,-406.75"/>
<text text-anchor="middle" x="837.17" y="-391.75" font-family="Helvetica" font-size="10.00">ScannerState.advance</text>
<text text-anchor="middle" x="837.17" y="-380.75" font-family="Helvetica" font-size="10.00">(def)</text>
</a>
</g>
</g>
<!-- L4YAML.Scanner.ScannerState.peek? -->
<g id="node3" class="node">
<title>L4YAML.Scanner.ScannerState.peek?</title>
<g id="a_node3"><a xlink:href="../../../api/L4YAML/Scanner/State.html#L4YAML.Scanner.ScannerState.peek?" xlink:title="ScannerState.peek?\n(def)" target="_blank">
<polygon fill="#dce9f7" stroke="#4a90d9" points="889.17,-352.75 785.17,-352.75 785.17,-316.75 889.17,-316.75 889.17,-352.75"/>
<text text-anchor="middle" x="837.17" y="-337.75" font-family="Helvetica" font-size="10.00">ScannerState.peek?</text>
<text text-anchor="middle" x="837.17" y="-326.75" font-family="Helvetica" font-size="10.00">(def)</text>
</a>
</g>
</g>
<!-- L4YAML.Scanner.skipSpaces -->
<g id="node4" class="node">
<title>L4YAML.Scanner.skipSpaces</title>
<g id="a_node4"><a xlink:href="../../../api/L4YAML/Scanner/Whitespace.html#L4YAML.Scanner.skipSpaces" xlink:title="skipSpaces\n(def)" target="_blank">
<polygon fill="#dce9f7" stroke="#4a90d9" points="1184.89,-190.75 1116.89,-190.75 1116.89,-154.75 1184.89,-154.75 1184.89,-190.75"/>
<text text-anchor="middle" x="1150.89" y="-175.75" font-family="Helvetica" font-size="10.00">skipSpaces</text>
<text text-anchor="middle" x="1150.89" y="-164.75" font-family="Helvetica" font-size="10.00">(def)</text>
</a>
</g>
</g>
<!-- L4YAML.Scanner.ScannerState -->
<g id="node5" class="node">
<title>L4YAML.Scanner.ScannerState</title>
<g id="a_node5"><a xlink:href="../../../api/L4YAML/Scanner/State.html#L4YAML.Scanner.ScannerState" xlink:title="ScannerState\n(inductive)" target="_blank">
<polygon fill="#dce9f7" stroke="#4a90d9" points="1188.89,-298.75 1112.89,-298.75 1112.89,-262.75 1188.89,-262.75 1188.89,-298.75"/>
<text text-anchor="middle" x="1150.89" y="-283.75" font-family="Helvetica" font-size="10.00">ScannerState</text>
<text text-anchor="middle" x="1150.89" y="-272.75" font-family="Helvetica" font-size="10.00">(inductive)</text>
</a>
</g>
</g>
<!-- L4YAML.YamlToken -->
<g id="node6" class="node">
<title>L4YAML.YamlToken</title>
<g id="a_node6"><a xlink:href="../../../api/L4YAML/Token/Token.html#L4YAML.YamlToken" xlink:title="YamlToken\n(inductive)" target="_blank">
<polygon fill="#dce9f7" stroke="#4a90d9" points="1182.89,-352.75 1118.89,-352.75 1118.89,-316.75 1182.89,-316.75 1182.89,-352.75"/>
<text text-anchor="middle" x="1150.89" y="-337.75" font-family="Helvetica" font-size="10.00">YamlToken</text>
<text text-anchor="middle" x="1150.89" y="-326.75" font-family="Helvetica" font-size="10.00">(inductive)</text>
</a>
</g>
</g>
<!-- L4YAML.Scanner.ScannerState.hasTabInPrecedingWhitespaceLoop.match_1 -->
<g id="node7" class="node">
<title>L4YAML.Scanner.ScannerState.hasTabInPrecedingWhitespaceLoop.match_1</title>
<g id="a_node7"><a xlink:href="../../../api/L4YAML/Scanner/Whitespace.html#L4YAML.Scanner.ScannerState.hasTabInPrecedingWhitespaceLoop.match_1" xlink:title="ScannerState.hasTabInPrecedingWhitespaceLoop.match_1\n(def)" target="_blank">
<polygon fill="#dce9f7" stroke="#4a90d9" points="974.67,-298.75 699.67,-298.75 699.67,-262.75 974.67,-262.75 974.67,-298.75"/>
<text text-anchor="middle" x="837.17" y="-283.75" font-family="Helvetica" font-size="10.00">ScannerState.hasTabInPrecedingWhitespaceLoop.match_1</text>
<text text-anchor="middle" x="837.17" y="-272.75" font-family="Helvetica" font-size="10.00">(def)</text>
</a>
</g>
</g>
<!-- L4YAML.Scanner.skipSpacesLoop -->
<g id="node8" class="node">
<title>L4YAML.Scanner.skipSpacesLoop</title>
<g id="a_node8"><a xlink:href="../../../api/L4YAML/Scanner/Whitespace.html#L4YAML.Scanner.skipSpacesLoop" xlink:title="skipSpacesLoop\n(def)" target="_blank">
<polygon fill="#dce9f7" stroke="#4a90d9" points="881.67,-244.75 792.67,-244.75 792.67,-208.75 881.67,-208.75 881.67,-244.75"/>
<text text-anchor="middle" x="837.17" y="-229.75" font-family="Helvetica" font-size="10.00">skipSpacesLoop</text>
<text text-anchor="middle" x="837.17" y="-218.75" font-family="Helvetica" font-size="10.00">(def)</text>
</a>
</g>
</g>
<!-- L4YAML.Scanner.ScannerState.tokens -->
<g id="node9" class="node">
<title>L4YAML.Scanner.ScannerState.tokens</title>
<g id="a_node9"><a xlink:href="../../../api/L4YAML/Scanner/State.html#L4YAML.Scanner.ScannerState.tokens" xlink:title="ScannerState.tokens\n(def)" target="_blank">
<polygon fill="#dce9f7" stroke="#4a90d9" points="1204.39,-406.75 1097.39,-406.75 1097.39,-370.75 1204.39,-370.75 1204.39,-406.75"/>
<text text-anchor="middle" x="1150.89" y="-391.75" font-family="Helvetica" font-size="10.00">ScannerState.tokens</text>
<text text-anchor="middle" x="1150.89" y="-380.75" font-family="Helvetica" font-size="10.00">(def)</text>
</a>
</g>
</g>
<!-- L4YAML.Scanner.skipSpacesLoop.match_1 -->
<g id="node10" class="node">
<title>L4YAML.Scanner.skipSpacesLoop.match_1</title>
<g id="a_node10"><a xlink:href="../../../api/L4YAML/Scanner/Whitespace.html#L4YAML.Scanner.skipSpacesLoop.match_1" xlink:title="skipSpacesLoop.match_1\n(def)" target="_blank">
<polygon fill="#dce9f7" stroke="#4a90d9" points="901.67,-190.75 772.67,-190.75 772.67,-154.75 901.67,-154.75 901.67,-190.75"/>
<text text-anchor="middle" x="837.17" y="-175.75" font-family="Helvetica" font-size="10.00">skipSpacesLoop.match_1</text>
<text text-anchor="middle" x="837.17" y="-164.75" font-family="Helvetica" font-size="10.00">(def)</text>
</a>
</g>
</g>
<!-- L4YAML.Proofs.ScannerCorrectness.skipSpaces_preserves_tokens -->
<g id="node11" class="node">
<title>L4YAML.Proofs.ScannerCorrectness.skipSpaces_preserves_tokens</title>
<g id="a_node11"><a xlink:href="../../../api/L4YAML/Proofs/Scanner/ScannerCorrectness.html#L4YAML.Proofs.ScannerCorrectness.skipSpaces_preserves_tokens" xlink:title="ScannerCorrectness.skipSpaces_preserves_tokens" target="_blank">
<polygon fill="#fff3cd" stroke="#d4a017" points="1032.62,-43.29 1032.62,-58.21 918.13,-68.75 756.21,-68.75 641.72,-58.21 641.72,-43.29 756.21,-32.75 918.13,-32.75 1032.62,-43.29"/>
<polygon fill="none" stroke="#d4a017" points="1036.62,-39.65 1036.62,-61.85 918.31,-72.75 756.02,-72.75 637.71,-61.85 637.71,-39.65 756.02,-28.75 918.31,-28.75 1036.62,-39.65"/>
<text text-anchor="middle" x="837.17" y="-47.65" font-family="Helvetica" font-size="12.00">ScannerCorrectness.skipSpaces_preserves_tokens</text>
</a>
</g>
</g>
<!-- L4YAML.Proofs.ScannerCorrectness.skipSpaces_preserves_tokens&#45;&gt;L4YAML.Positioned -->
<g id="edge3" class="edge">
<title>L4YAML.Proofs.ScannerCorrectness.skipSpaces_preserves_tokens&#45;&gt;L4YAML.Positioned</title>
<path fill="none" stroke="#4a90d9" stroke-width="2" d="M907.93,-28.7C961.42,-16.52 1033.63,-11.04 1079.39,-51.75 1104.15,-73.77 1078.46,-172.56 1097.39,-199.75 1101.48,-205.62 1107.24,-210.29 1113.45,-213.99"/>
<polygon fill="#4a90d9" stroke="#4a90d9" stroke-width="2" points="1112.44,-216.23 1119.77,-217.36 1114.75,-211.9 1112.44,-216.23"/>
<text text-anchor="middle" x="1066.89" y="-54.35" font-family="Times-Roman" font-size="8.00" fill="#4a90d9">about</text>
</g>
<!-- L4YAML.Proofs.ScannerCorrectness.skipSpaces_preserves_tokens&#45;&gt;L4YAML.Scanner.skipSpaces -->
<g id="edge2" class="edge">
<title>L4YAML.Proofs.ScannerCorrectness.skipSpaces_preserves_tokens&#45;&gt;L4YAML.Scanner.skipSpaces</title>
<path fill="none" stroke="#4a90d9" stroke-width="2" d="M882.91,-28.72C934.43,-6.8 1019.65,18.5 1079.39,-19.75 1123.55,-48.02 1140.43,-111.71 1146.59,-147.36"/>
<polygon fill="#4a90d9" stroke="#4a90d9" stroke-width="2" points="1144.21,-148 1147.75,-154.52 1149.05,-147.22 1144.21,-148"/>
<text text-anchor="middle" x="1066.89" y="-22.35" font-family="Times-Roman" font-size="8.00" fill="#4a90d9">about</text>
</g>
<!-- L4YAML.Proofs.ScannerCorrectness.skipSpaces_preserves_tokens&#45;&gt;L4YAML.Scanner.ScannerState -->
<g id="edge5" class="edge">
<title>L4YAML.Proofs.ScannerCorrectness.skipSpaces_preserves_tokens&#45;&gt;L4YAML.Scanner.ScannerState</title>
<path fill="none" stroke="#4a90d9" stroke-width="2" d="M1036.42,-54.79C1052.41,-61.67 1067.11,-71.08 1079.39,-83.75 1105.84,-111.02 1075.92,-222.41 1097.39,-253.75 1099.94,-257.47 1103.16,-260.7 1106.75,-263.52"/>
<polygon fill="#4a90d9" stroke="#4a90d9" stroke-width="2" points="1105.5,-265.63 1112.65,-267.59 1108.28,-261.6 1105.5,-265.63"/>
<text text-anchor="middle" x="1066.89" y="-86.35" font-family="Times-Roman" font-size="8.00" fill="#4a90d9">about</text>
</g>
<!-- L4YAML.Proofs.ScannerCorrectness.skipSpaces_preserves_tokens&#45;&gt;L4YAML.YamlToken -->
<g id="edge4" class="edge">
<title>L4YAML.Proofs.ScannerCorrectness.skipSpaces_preserves_tokens&#45;&gt;L4YAML.YamlToken</title>
<path fill="none" stroke="#4a90d9" stroke-width="2" d="M955.54,-69.38C1008.34,-80.26 1062.58,-95.81 1079.39,-115.75 1107.02,-148.51 1073.39,-272.25 1097.39,-307.75 1101.19,-313.36 1106.52,-317.87 1112.35,-321.48"/>
<polygon fill="#4a90d9" stroke="#4a90d9" stroke-width="2" points="1111.5,-323.81 1118.82,-325.05 1113.87,-319.53 1111.5,-323.81"/>
<text text-anchor="middle" x="1066.89" y="-118.35" font-family="Times-Roman" font-size="8.00" fill="#4a90d9">about</text>
</g>
<!-- L4YAML.Proofs.ScannerCorrectness.skipSpaces_preserves_tokens&#45;&gt;L4YAML.Scanner.ScannerState.tokens -->
<g id="edge1" class="edge">
<title>L4YAML.Proofs.ScannerCorrectness.skipSpaces_preserves_tokens&#45;&gt;L4YAML.Scanner.ScannerState.tokens</title>
<path fill="none" stroke="#4a90d9" stroke-width="2" d="M979.96,-67.09C1004.11,-75.64 1026.97,-88.25 1044.39,-106.75 1064.23,-127.82 1079.87,-338.72 1097.39,-361.75 1098.4,-363.08 1099.5,-364.34 1100.66,-365.55"/>
<polygon fill="#4a90d9" stroke="#4a90d9" stroke-width="2" points="1099.3,-367.63 1106.14,-370.49 1102.58,-363.99 1099.3,-367.63"/>
<text text-anchor="middle" x="1066.89" y="-284.35" font-family="Times-Roman" font-size="8.00" fill="#4a90d9">about</text>
</g>
<!-- L4YAML.Scanner.skipSpacesLoop.eq_def -->
<g id="node12" class="node">
<title>L4YAML.Scanner.skipSpacesLoop.eq_def</title>
<g id="a_node12"><a xlink:href="../../../api/L4YAML/Scanner/Whitespace.html#L4YAML.Scanner.skipSpacesLoop.eq_def" xlink:title="skipSpacesLoop.eq_def\n(Scanner.Whitespace)" target="_blank">
<ellipse fill="#d4edda" stroke="#28a745" cx="297.97" cy="-316.75" rx="85.62" ry="21.43"/>
<text text-anchor="middle" x="297.97" y="-319.75" font-family="Helvetica" font-size="10.00">skipSpacesLoop.eq_def</text>
<text text-anchor="middle" x="297.97" y="-308.75" font-family="Helvetica" font-size="10.00">(Scanner.Whitespace)</text>
</a>
</g>
</g>
<!-- L4YAML.Scanner.skipSpacesLoop.eq_def&#45;&gt;L4YAML.Scanner.ScannerState.advance -->
<g id="edge10" class="edge">
<title>L4YAML.Scanner.skipSpacesLoop.eq_def&#45;&gt;L4YAML.Scanner.ScannerState.advance</title>
<path fill="none" stroke="#6f42c1" stroke-width="2" stroke-dasharray="5,2" d="M382.66,-320.13C440.82,-323.77 519.82,-331.28 587.94,-346.75 607.27,-351.14 610.67,-357.1 629.94,-361.75 677.74,-373.28 733.04,-380.18 774.34,-384.12"/>
<polygon fill="#6f42c1" stroke="#6f42c1" stroke-width="2" points="774.42,-385.88 779.56,-384.61 774.74,-382.4 774.42,-385.88"/>
<text text-anchor="middle" x="608.94" y="-360.15" font-family="Times-Roman" font-size="7.00" fill="#6f42c1">about</text>
</g>
<!-- L4YAML.Scanner.skipSpacesLoop.eq_def&#45;&gt;L4YAML.Scanner.ScannerState.peek? -->
<g id="edge15" class="edge">
<title>L4YAML.Scanner.skipSpacesLoop.eq_def&#45;&gt;L4YAML.Scanner.ScannerState.peek?</title>
<path fill="none" stroke="#6f42c1" stroke-width="2" stroke-dasharray="5,2" d="M383.48,-315.72C448.23,-315.31 539.76,-315.54 619.94,-318.75 674.33,-320.93 736.28,-325.75 779.88,-329.54"/>
<polygon fill="#6f42c1" stroke="#6f42c1" stroke-width="2" points="779.97,-331.3 785.11,-329.99 780.28,-327.81 779.97,-331.3"/>
<text text-anchor="middle" x="608.94" y="-321.15" font-family="Times-Roman" font-size="7.00" fill="#6f42c1">about</text>
</g>
<!-- L4YAML.Scanner.skipSpacesLoop.eq_def&#45;&gt;L4YAML.Scanner.ScannerState -->
<g id="edge13" class="edge">
<title>L4YAML.Scanner.skipSpacesLoop.eq_def&#45;&gt;L4YAML.Scanner.ScannerState</title>
<path fill="none" stroke="#6f42c1" stroke-width="2" stroke-dasharray="5,2" d="M374.81,-307.38C441.4,-294.98 535.57,-266.51 587.94,-201.75 604.66,-181.07 579.01,-161.43 597.94,-142.75 608.18,-132.64 615.59,-138.86 629.94,-137.75 721.76,-130.62 966.91,-87.96 1044.39,-137.75 1047.38,-139.66 1094.95,-251.19 1097.39,-253.75 1100.62,-257.13 1104.35,-260.15 1108.32,-262.85"/>
<polygon fill="#6f42c1" stroke="#6f42c1" stroke-width="2" points="1107.55,-264.43 1112.7,-265.65 1109.43,-261.49 1107.55,-264.43"/>
<text text-anchor="middle" x="837.17" y="-140.15" font-family="Times-Roman" font-size="7.00" fill="#6f42c1">about</text>
</g>
<!-- L4YAML.Scanner.skipSpacesLoop.eq_def&#45;&gt;L4YAML.Scanner.ScannerState.hasTabInPrecedingWhitespaceLoop.match_1 -->
<g id="edge14" class="edge">
<title>L4YAML.Scanner.skipSpacesLoop.eq_def&#45;&gt;L4YAML.Scanner.ScannerState.hasTabInPrecedingWhitespaceLoop.match_1</title>
<path fill="none" stroke="#6f42c1" stroke-width="2" stroke-dasharray="5,2" d="M380.85,-311.26C464.04,-305.69 594.51,-296.94 694.51,-290.24"/>
<polygon fill="#6f42c1" stroke="#6f42c1" stroke-width="2" points="694.67,-291.99 699.55,-289.91 694.44,-288.49 694.67,-291.99"/>
<text text-anchor="middle" x="608.94" y="-299.15" font-family="Times-Roman" font-size="7.00" fill="#6f42c1">about</text>
</g>
<!-- L4YAML.Scanner.skipSpacesLoop.eq_def&#45;&gt;L4YAML.Scanner.skipSpacesLoop -->
<g id="edge12" class="edge">
<title>L4YAML.Scanner.skipSpacesLoop.eq_def&#45;&gt;L4YAML.Scanner.skipSpacesLoop</title>
<path fill="none" stroke="#6f42c1" stroke-width="2" stroke-dasharray="5,2" d="M364.08,-303.2C430.69,-289.61 537.25,-268.63 629.94,-253.75 683.73,-245.12 745.74,-237.28 787.61,-232.3"/>
<polygon fill="#6f42c1" stroke="#6f42c1" stroke-width="2" points="787.85,-234.04 792.61,-231.71 787.44,-230.56 787.85,-234.04"/>
<text text-anchor="middle" x="608.94" y="-261.15" font-family="Times-Roman" font-size="7.00" fill="#6f42c1">about</text>
</g>
<!-- L4YAML.Scanner.skipSpacesLoop.eq_def&#45;&gt;L4YAML.Scanner.skipSpacesLoop.match_1 -->
<g id="edge11" class="edge">
<title>L4YAML.Scanner.skipSpacesLoop.eq_def&#45;&gt;L4YAML.Scanner.skipSpacesLoop.match_1</title>
<path fill="none" stroke="#6f42c1" stroke-width="2" stroke-dasharray="5,2" d="M341.47,-298.47C403.64,-272.49 523.55,-225.22 629.94,-199.75 674.97,-188.97 726.64,-182.21 766.99,-178.16"/>
<polygon fill="#6f42c1" stroke="#6f42c1" stroke-width="2" points="767.56,-179.86 772.36,-177.63 767.21,-176.38 767.56,-179.86"/>
<text text-anchor="middle" x="608.94" y="-209.15" font-family="Times-Roman" font-size="7.00" fill="#6f42c1">about</text>
</g>
<!-- L4YAML.Scanner.skipSpacesLoop.eq_def&#45;&gt;L4YAML.Proofs.ScannerCorrectness.skipSpaces_preserves_tokens -->
<g id="edge7" class="edge">
<title>L4YAML.Scanner.skipSpacesLoop.eq_def&#45;&gt;L4YAML.Proofs.ScannerCorrectness.skipSpaces_preserves_tokens</title>
<path fill="none" stroke="#28a745" d="M375.9,-307.93C442.99,-295.9 537.27,-267.68 587.94,-201.75 610.85,-171.94 574.32,-147.01 597.94,-117.75 607.38,-106.05 615.56,-111.17 629.94,-106.75 667.18,-95.31 708.56,-83.83 744.43,-74.27"/>
<polygon fill="#28a745" stroke="#28a745" points="745.39,-76.55 751.52,-72.39 744.13,-71.82 745.39,-76.55"/>
</g>
<!-- L4YAML.Proofs.ScannerCorrectness.advance_preserves_tokens -->
<g id="node13" class="node">
<title>L4YAML.Proofs.ScannerCorrectness.advance_preserves_tokens</title>
<g id="a_node13"><a xlink:href="../../../api/L4YAML/Proofs/Scanner/ScannerCorrectness.html#L4YAML.Proofs.ScannerCorrectness.advance_preserves_tokens" xlink:title="ScannerCorrectness.advance_preserves_tokens\n(Scanner.ScannerCorrectness)" target="_blank">
<ellipse fill="#d4edda" stroke="#28a745" cx="297.97" cy="-376.75" rx="160.53" ry="21.43"/>
<text text-anchor="middle" x="297.97" y="-379.75" font-family="Helvetica" font-size="10.00">ScannerCorrectness.advance_preserves_tokens</text>
<text text-anchor="middle" x="297.97" y="-368.75" font-family="Helvetica" font-size="10.00">(Scanner.ScannerCorrectness)</text>
</a>
</g>
</g>
<!-- L4YAML.Proofs.ScannerCorrectness.advance_preserves_tokens&#45;&gt;L4YAML.Positioned -->
<g id="edge19" class="edge">
<title>L4YAML.Proofs.ScannerCorrectness.advance_preserves_tokens&#45;&gt;L4YAML.Positioned</title>
<path fill="none" stroke="#6f42c1" stroke-width="2" stroke-dasharray="5,2" d="M407.09,-392.4C609.71,-420.53 1030.63,-472.76 1079.39,-428.75 1108.42,-402.56 1075.35,-286.03 1097.39,-253.75 1101.76,-247.35 1108.13,-242.38 1114.93,-238.55"/>
<polygon fill="#6f42c1" stroke="#6f42c1" stroke-width="2" points="1116.06,-239.93 1119.68,-236.08 1114.44,-236.83 1116.06,-239.93"/>
<text text-anchor="middle" x="837.17" y="-447.15" font-family="Times-Roman" font-size="7.00" fill="#6f42c1">about</text>
</g>
<!-- L4YAML.Proofs.ScannerCorrectness.advance_preserves_tokens&#45;&gt;L4YAML.Scanner.ScannerState.advance -->
<g id="edge18" class="edge">
<title>L4YAML.Proofs.ScannerCorrectness.advance_preserves_tokens&#45;&gt;L4YAML.Scanner.ScannerState.advance</title>
<path fill="none" stroke="#6f42c1" stroke-width="2" stroke-dasharray="5,2" d="M456.52,-380.27C562.64,-382.64 696.83,-385.64 773.94,-387.36"/>
<polygon fill="#6f42c1" stroke="#6f42c1" stroke-width="2" points="774.35,-389.12 779.39,-387.48 774.43,-385.62 774.35,-389.12"/>
<text text-anchor="middle" x="608.94" y="-386.15" font-family="Times-Roman" font-size="7.00" fill="#6f42c1">about</text>
</g>
<!-- L4YAML.Proofs.ScannerCorrectness.advance_preserves_tokens&#45;&gt;L4YAML.Scanner.ScannerState -->
<g id="edge21" class="edge">
<title>L4YAML.Proofs.ScannerCorrectness.advance_preserves_tokens&#45;&gt;L4YAML.Scanner.ScannerState</title>
<path fill="none" stroke="#6f42c1" stroke-width="2" stroke-dasharray="5,2" d="M357.14,-396.52C416.79,-415.8 512.65,-444.01 597.94,-456.75 650.88,-464.66 1039.55,-508.49 1079.39,-472.75 1106.85,-448.12 1076.5,-338.15 1097.39,-307.75 1100.31,-303.51 1104.11,-299.89 1108.32,-296.81"/>
<polygon fill="#6f42c1" stroke="#6f42c1" stroke-width="2" points="1109.47,-298.15 1112.66,-293.92 1107.53,-295.24 1109.47,-298.15"/>
<text text-anchor="middle" x="837.17" y="-488.15" font-family="Times-Roman" font-size="7.00" fill="#6f42c1">about</text>
</g>
<!-- L4YAML.Proofs.ScannerCorrectness.advance_preserves_tokens&#45;&gt;L4YAML.YamlToken -->
<g id="edge20" class="edge">
<title>L4YAML.Proofs.ScannerCorrectness.advance_preserves_tokens&#45;&gt;L4YAML.YamlToken</title>
<path fill="none" stroke="#6f42c1" stroke-width="2" stroke-dasharray="5,2" d="M336.24,-397.37C391.45,-426.69 499.1,-479.26 597.94,-500.75 650.24,-512.12 1039.42,-552.35 1079.39,-516.75 1105.29,-493.69 1077.65,-390.26 1097.39,-361.75 1101.61,-355.66 1107.64,-350.85 1114.11,-347.09"/>
<polygon fill="#6f42c1" stroke="#6f42c1" stroke-width="2" points="1115.07,-348.56 1118.65,-344.66 1113.42,-345.48 1115.07,-348.56"/>
<text text-anchor="middle" x="837.17" y="-533.15" font-family="Times-Roman" font-size="7.00" fill="#6f42c1">about</text>
</g>
<!-- L4YAML.Proofs.ScannerCorrectness.advance_preserves_tokens&#45;&gt;L4YAML.Scanner.ScannerState.tokens -->
<g id="edge17" class="edge">
<title>L4YAML.Proofs.ScannerCorrectness.advance_preserves_tokens&#45;&gt;L4YAML.Scanner.ScannerState.tokens</title>
<path fill="none" stroke="#6f42c1" stroke-width="2" stroke-dasharray="5,2" d="M325.83,-397.8C375.92,-435.63 488.45,-514.03 597.94,-544.75 804.08,-602.58 901.6,-680.03 1079.39,-560.75 1129.46,-527.16 1144,-451 1148.2,-412.29"/>
<polygon fill="#6f42c1" stroke="#6f42c1" stroke-width="2" points="1149.99,-412.01 1148.75,-406.86 1146.51,-411.66 1149.99,-412.01"/>
<text text-anchor="middle" x="837.17" y="-625.15" font-family="Times-Roman" font-size="7.00" fill="#6f42c1">about</text>
</g>
<!-- L4YAML.Proofs.ScannerCorrectness.advance_preserves_tokens&#45;&gt;L4YAML.Proofs.ScannerCorrectness.skipSpaces_preserves_tokens -->
<g id="edge6" class="edge">
<title>L4YAML.Proofs.ScannerCorrectness.advance_preserves_tokens&#45;&gt;L4YAML.Proofs.ScannerCorrectness.skipSpaces_preserves_tokens</title>
<path fill="none" stroke="#28a745" d="M367.39,-395.93C440.81,-411.88 555.53,-422.61 619.94,-356.75 639.38,-336.87 612.61,-128.49 629.94,-106.75 643.4,-89.86 661.39,-77.76 681.17,-69.14"/>
<polygon fill="#28a745" stroke="#28a745" points="682.12,-71.4 687.65,-66.46 680.25,-66.87 682.12,-71.4"/>
</g>
<!-- _private.L4YAML.Proofs.Scanner.ScannerCorrectness.0.L4YAML.Scanner.skipSpacesLoop.match_1.eq_1 -->
<g id="node14" class="node">
<title>_private.L4YAML.Proofs.Scanner.ScannerCorrectness.0.L4YAML.Scanner.skipSpacesLoop.match_1.eq_1</title>
<g id="a_node14"><a xlink:href="../../../api/L4YAML/Proofs/Scanner/ScannerCorrectness.html#_private.L4YAML.Proofs.Scanner.ScannerCorrectness.0.L4YAML.Scanner.skipSpacesLoop.match_1.eq_1" xlink:title="_private.L4YAML.Proofs.Scanner.ScannerCorrectness.0.L4YAML.Scanner.skipSpacesLoop.match_1.eq_1" target="_blank">
<ellipse fill="#fdebd0" stroke="#e67e22" cx="297.97" cy="-149.75" rx="281.94" ry="18"/>
<text text-anchor="middle" x="297.97" y="-147.25" font-family="Helvetica" font-size="10.00">_private.L4YAML.Proofs.Scanner.ScannerCorrectness.0.L4YAML.Scanner.skipSpacesLoop.match_1.eq_1</text>
</a>
</g>
</g>
<!-- _private.L4YAML.Proofs.Scanner.ScannerCorrectness.0.L4YAML.Scanner.skipSpacesLoop.match_1.eq_1&#45;&gt;L4YAML.Scanner.skipSpacesLoop.match_1 -->
<g id="edge16" class="edge">
<title>_private.L4YAML.Proofs.Scanner.ScannerCorrectness.0.L4YAML.Scanner.skipSpacesLoop.match_1.eq_1&#45;&gt;L4YAML.Scanner.skipSpacesLoop.match_1</title>
<path fill="none" stroke="#6f42c1" stroke-width="2" stroke-dasharray="5,2" d="M473.95,-163.86C514.63,-166.63 557.78,-169.17 597.94,-170.75 654.96,-172.99 719.72,-173.4 767.31,-173.29"/>
<polygon fill="#6f42c1" stroke="#6f42c1" stroke-width="2" points="767.44,-175.04 772.44,-173.28 767.44,-171.54 767.44,-175.04"/>
<text text-anchor="middle" x="608.94" y="-174.15" font-family="Times-Roman" font-size="7.00" fill="#6f42c1">about</text>
</g>
<!-- _private.L4YAML.Proofs.Scanner.ScannerCorrectness.0.L4YAML.Scanner.skipSpacesLoop.match_1.eq_1&#45;&gt;L4YAML.Proofs.ScannerCorrectness.skipSpaces_preserves_tokens -->
<g id="edge8" class="edge">
<title>_private.L4YAML.Proofs.Scanner.ScannerCorrectness.0.L4YAML.Scanner.skipSpacesLoop.match_1.eq_1&#45;&gt;L4YAML.Proofs.ScannerCorrectness.skipSpaces_preserves_tokens</title>
<path fill="none" stroke="#e67e22" stroke-width="2" d="M404.32,-166.43C464.25,-169.95 537.23,-163.42 587.94,-122.75 599.23,-113.69 587,-101.24 597.94,-91.75 610.63,-80.74 625.18,-72.17 640.69,-65.55"/>
<polygon fill="#e67e22" stroke="#e67e22" stroke-width="2" points="641.83,-67.73 647.39,-62.83 639.98,-63.19 641.83,-67.73"/>
</g>
<!-- _private.L4YAML.Proofs.Scanner.ScannerCorrectness.0.L4YAML.Scanner.skipSpacesLoop.match_1.eq_2 -->
<g id="node15" class="node">
<title>_private.L4YAML.Proofs.Scanner.ScannerCorrectness.0.L4YAML.Scanner.skipSpacesLoop.match_1.eq_2</title>
<g id="a_node15"><a xlink:href="../../../api/L4YAML/Proofs/Scanner/ScannerCorrectness.html#_private.L4YAML.Proofs.Scanner.ScannerCorrectness.0.L4YAML.Scanner.skipSpacesLoop.match_1.eq_2" xlink:title="_private.L4YAML.Proofs.Scanner.ScannerCorrectness.0.L4YAML.Scanner.skipSpacesLoop.match_1.eq_2" target="_blank">
<ellipse fill="#fdebd0" stroke="#e67e22" cx="297.97" cy="-95.75" rx="281.94" ry="18"/>
<text text-anchor="middle" x="297.97" y="-93.25" font-family="Helvetica" font-size="10.00">_private.L4YAML.Proofs.Scanner.ScannerCorrectness.0.L4YAML.Scanner.skipSpacesLoop.match_1.eq_2</text>
</a>
</g>
</g>
<!-- _private.L4YAML.Proofs.Scanner.ScannerCorrectness.0.L4YAML.Scanner.skipSpacesLoop.match_1.eq_2&#45;&gt;L4YAML.Scanner.skipSpacesLoop.match_1 -->
<g id="edge22" class="edge">
<title>_private.L4YAML.Proofs.Scanner.ScannerCorrectness.0.L4YAML.Scanner.skipSpacesLoop.match_1.eq_2&#45;&gt;L4YAML.Scanner.skipSpacesLoop.match_1</title>
<path fill="none" stroke="#6f42c1" stroke-width="2" stroke-dasharray="5,2" d="M509.42,-107.67C536.07,-111.44 562.79,-116.35 587.94,-122.75 607.62,-127.76 610.42,-135.15 629.94,-140.75 674.77,-153.61 726.66,-161.63 767.17,-166.42"/>
<polygon fill="#6f42c1" stroke="#6f42c1" stroke-width="2" points="767.39,-168.21 772.55,-167.05 767.79,-164.73 767.39,-168.21"/>
<text text-anchor="middle" x="608.94" y="-140.15" font-family="Times-Roman" font-size="7.00" fill="#6f42c1">about</text>
</g>
<!-- _private.L4YAML.Proofs.Scanner.ScannerCorrectness.0.L4YAML.Scanner.skipSpacesLoop.match_1.eq_2&#45;&gt;L4YAML.Proofs.ScannerCorrectness.skipSpaces_preserves_tokens -->
<g id="edge9" class="edge">
<title>_private.L4YAML.Proofs.Scanner.ScannerCorrectness.0.L4YAML.Scanner.skipSpacesLoop.match_1.eq_2&#45;&gt;L4YAML.Proofs.ScannerCorrectness.skipSpaces_preserves_tokens</title>
<path fill="none" stroke="#e67e22" stroke-width="2" d="M442.58,-80.25C491.8,-75.23 547.25,-69.89 597.94,-65.75 610.22,-64.75 622.87,-63.77 635.63,-62.84"/>
<polygon fill="#e67e22" stroke="#e67e22" stroke-width="2" points="635.92,-65.27 642.72,-62.32 635.56,-60.39 635.92,-65.27"/>
</g>
</g>
</svg>
