<?xml version="1.0" encoding="UTF-8" standalone="no"?>
<!DOCTYPE svg PUBLIC "-//W3C//DTD SVG 1.1//EN"
 "http://www.w3.org/Graphics/SVG/1.1/DTD/svg11.dtd">
<!-- Generated by graphviz version 2.44.0 (0)
 -->
<!-- Title: ScannerCorrectness.skipSpaces_preserves_flowLevel Pages: 1 -->
<svg width="1262pt" height="590pt"
 viewBox="0.00 0.00 1261.72 590.00" xmlns="http://www.w3.org/2000/svg" xmlns:xlink="http://www.w3.org/1999/xlink">
<g id="graph0" class="graph" transform="scale(1 1) rotate(0) translate(4 586)">
<title>ScannerCorrectness.skipSpaces_preserves_flowLevel</title>
<polygon fill="white" stroke="transparent" points="-4,4 -4,-586 1257.72,-586 1257.72,4 -4,4"/>
<text text-anchor="middle" x="626.86" y="-567.6" font-family="Helvetica Bold" font-size="13.00">ScannerCorrectness.skipSpaces_preserves_flowLevel</text>
<text text-anchor="middle" x="626.86" y="-553.6" font-family="Helvetica Bold" font-size="13.00">(heuristic: used by 9 proofs)</text>
<text text-anchor="middle" x="626.86" y="-539.6" font-family="Helvetica Bold" font-size="13.00">(L4YAML.Proofs.Scanner.ScannerCorrectness)</text>
<g id="clust1" class="cluster">
<title>cluster_functions</title>
<polygon fill="none" stroke="#4a90d9" stroke-dasharray="5,2" points="702.33,-98 702.33,-388 1245.72,-388 1245.72,-98 702.33,-98"/>
<text text-anchor="middle" x="974.02" y="-373.6" font-family="Helvetica Bold" font-size="13.00" fill="#4a90d9">Functions</text>
</g>
<g id="clust2" class="cluster">
<title>cluster_key</title>
<polygon fill="none" stroke="#d4a017" stroke-dasharray="5,2" points="629.94,-8 629.94,-90 1065.72,-90 1065.72,-8 629.94,-8"/>
<text text-anchor="middle" x="847.83" y="-75.6" font-family="Helvetica Bold" font-size="13.00" fill="#d4a017">Key Theorem</text>
</g>
<g id="clust3" class="cluster">
<title>cluster_proofs</title>
<polygon fill="none" stroke="#28a745" stroke-dasharray="5,2" points="120.97,-234 120.97,-374 474.97,-374 474.97,-234 120.97,-234"/>
<text text-anchor="middle" x="297.97" y="-359.6" font-family="Helvetica Bold" font-size="13.00" fill="#28a745">Proof Dependencies</text>
</g>
<g id="clust4" class="cluster">
<title>cluster_stdlib</title>
<polygon fill="none" stroke="#e67e22" stroke-dasharray="5,2" points="8,-28 8,-156 587.94,-156 587.94,-28 8,-28"/>
<text text-anchor="middle" x="297.97" y="-141.6" font-family="Helvetica Bold" font-size="13.00" fill="#e67e22">Stdlib Lemmas</text>
</g>
<!-- L4YAML.Scanner.ScannerState.advance -->
<g id="node1" class="node">
<title>L4YAML.Scanner.ScannerState.advance</title>
<g id="a_node1"><a xlink:href="../../../api/L4YAML/Scanner/State.html#L4YAML.Scanner.ScannerState.advance" xlink:title="ScannerState.advance\n(def)" target="_blank">
<polygon fill="#dce9f7" stroke="#4a90d9" points="905.33,-358 790.33,-358 790.33,-322 905.33,-322 905.33,-358"/>
<text text-anchor="middle" x="847.83" y="-343" font-family="Helvetica" font-size="10.00">ScannerState.advance</text>
<text text-anchor="middle" x="847.83" y="-332" font-family="Helvetica" font-size="10.00">(def)</text>
</a>
</g>
</g>
<!-- L4YAML.Scanner.ScannerState.peek? -->
<g id="node2" class="node">
<title>L4YAML.Scanner.ScannerState.peek?</title>
<g id="a_node2"><a xlink:href="../../../api/L4YAML/Scanner/State.html#L4YAML.Scanner.ScannerState.peek?" xlink:title="ScannerState.peek?\n(def)" target="_blank">
<polygon fill="#dce9f7" stroke="#4a90d9" points="899.83,-304 795.83,-304 795.83,-268 899.83,-268 899.83,-304"/>
<text text-anchor="middle" x="847.83" y="-289" font-family="Helvetica" font-size="10.00">ScannerState.peek?</text>
<text text-anchor="middle" x="847.83" y="-278" font-family="Helvetica" font-size="10.00">(def)</text>
</a>
</g>
</g>
<!-- L4YAML.Scanner.ScannerState.flowLevel -->
<g id="node3" class="node">
<title>L4YAML.Scanner.ScannerState.flowLevel</title>
<g id="a_node3"><a xlink:href="../../../api/L4YAML/Scanner/State.html#L4YAML.Scanner.ScannerState.flowLevel" xlink:title="ScannerState.flowLevel\n(def)" target="_blank">
<polygon fill="#dce9f7" stroke="#4a90d9" points="1237.72,-250 1118.72,-250 1118.72,-214 1237.72,-214 1237.72,-250"/>
<text text-anchor="middle" x="1178.22" y="-235" font-family="Helvetica" font-size="10.00">ScannerState.flowLevel</text>
<text text-anchor="middle" x="1178.22" y="-224" font-family="Helvetica" font-size="10.00">(def)</text>
</a>
</g>
</g>
<!-- L4YAML.Scanner.skipSpaces -->
<g id="node4" class="node">
<title>L4YAML.Scanner.skipSpaces</title>
<g id="a_node4"><a xlink:href="../../../api/L4YAML/Scanner/Whitespace.html#L4YAML.Scanner.skipSpaces" xlink:title="skipSpaces\n(def)" target="_blank">
<polygon fill="#dce9f7" stroke="#4a90d9" points="1212.22,-142 1144.22,-142 1144.22,-106 1212.22,-106 1212.22,-142"/>
<text text-anchor="middle" x="1178.22" y="-127" font-family="Helvetica" font-size="10.00">skipSpaces</text>
<text text-anchor="middle" x="1178.22" y="-116" font-family="Helvetica" font-size="10.00">(def)</text>
</a>
</g>
</g>
<!-- L4YAML.Scanner.ScannerState -->
<g id="node5" class="node">
<title>L4YAML.Scanner.ScannerState</title>
<g id="a_node5"><a xlink:href="../../../api/L4YAML/Scanner/State.html#L4YAML.Scanner.ScannerState" xlink:title="ScannerState\n(inductive)" target="_blank">
<polygon fill="#dce9f7" stroke="#4a90d9" points="1216.22,-358 1140.22,-358 1140.22,-322 1216.22,-322 1216.22,-358"/>
<text text-anchor="middle" x="1178.22" y="-343" font-family="Helvetica" font-size="10.00">ScannerState</text>
<text text-anchor="middle" x="1178.22" y="-332" font-family="Helvetica" font-size="10.00">(inductive)</text>
</a>
</g>
</g>
<!-- L4YAML.Scanner.ScannerState.hasTabInPrecedingWhitespaceLoop.match_1 -->
<g id="node6" class="node">
<title>L4YAML.Scanner.ScannerState.hasTabInPrecedingWhitespaceLoop.match_1</title>
<g id="a_node6"><a xlink:href="../../../api/L4YAML/Scanner/Whitespace.html#L4YAML.Scanner.ScannerState.hasTabInPrecedingWhitespaceLoop.match_1" xlink:title="ScannerState.hasTabInPrecedingWhitespaceLoop.match_1\n(def)" target="_blank">
<polygon fill="#dce9f7" stroke="#4a90d9" points="985.33,-250 710.33,-250 710.33,-214 985.33,-214 985.33,-250"/>
<text text-anchor="middle" x="847.83" y="-235" font-family="Helvetica" font-size="10.00">ScannerState.hasTabInPrecedingWhitespaceLoop.match_1</text>
<text text-anchor="middle" x="847.83" y="-224" font-family="Helvetica" font-size="10.00">(def)</text>
</a>
</g>
</g>
<!-- L4YAML.Scanner.skipSpacesLoop -->
<g id="node7" class="node">
<title>L4YAML.Scanner.skipSpacesLoop</title>
<g id="a_node7"><a xlink:href="../../../api/L4YAML/Scanner/Whitespace.html#L4YAML.Scanner.skipSpacesLoop" xlink:title="skipSpacesLoop\n(def)" target="_blank">
<polygon fill="#dce9f7" stroke="#4a90d9" points="892.33,-196 803.33,-196 803.33,-160 892.33,-160 892.33,-196"/>
<text text-anchor="middle" x="847.83" y="-181" font-family="Helvetica" font-size="10.00">skipSpacesLoop</text>
<text text-anchor="middle" x="847.83" y="-170" font-family="Helvetica" font-size="10.00">(def)</text>
</a>
</g>
</g>
<!-- L4YAML.Scanner.skipSpacesLoop.match_1 -->
<g id="node8" class="node">
<title>L4YAML.Scanner.skipSpacesLoop.match_1</title>
<g id="a_node8"><a xlink:href="../../../api/L4YAML/Scanner/Whitespace.html#L4YAML.Scanner.skipSpacesLoop.match_1" xlink:title="skipSpacesLoop.match_1\n(def)" target="_blank">
<polygon fill="#dce9f7" stroke="#4a90d9" points="912.33,-142 783.33,-142 783.33,-106 912.33,-106 912.33,-142"/>
<text text-anchor="middle" x="847.83" y="-127" font-family="Helvetica" font-size="10.00">skipSpacesLoop.match_1</text>
<text text-anchor="middle" x="847.83" y="-116" font-family="Helvetica" font-size="10.00">(def)</text>
</a>
</g>
</g>
<!-- L4YAML.Proofs.ScannerCorrectness.skipSpaces_preserves_flowLevel -->
<g id="node9" class="node">
<title>L4YAML.Proofs.ScannerCorrectness.skipSpaces_preserves_flowLevel</title>
<g id="a_node9"><a xlink:href="../../../api/L4YAML/Proofs/Scanner/ScannerCorrectness.html#L4YAML.Proofs.ScannerCorrectness.skipSpaces_preserves_flowLevel" xlink:title="ScannerCorrectness.skipSpaces_preserves_flowLevel" target="_blank">
<polygon fill="#fff3cd" stroke="#d4a017" points="1053.61,-30.54 1053.61,-45.46 933.06,-56 762.59,-56 642.05,-45.46 642.05,-30.54 762.59,-20 933.06,-20 1053.61,-30.54"/>
<polygon fill="none" stroke="#d4a017" points="1057.61,-26.88 1057.61,-49.12 933.24,-60 762.42,-60 638.05,-49.12 638.05,-26.88 762.42,-16 933.24,-16 1057.61,-26.88"/>
<text text-anchor="middle" x="847.83" y="-34.9" font-family="Helvetica" font-size="12.00">ScannerCorrectness.skipSpaces_preserves_flowLevel</text>
</a>
</g>
</g>
<!-- L4YAML.Proofs.ScannerCorrectness.skipSpaces_preserves_flowLevel&#45;&gt;L4YAML.Scanner.ScannerState.flowLevel -->
<g id="edge3" class="edge">
<title>L4YAML.Proofs.ScannerCorrectness.skipSpaces_preserves_flowLevel&#45;&gt;L4YAML.Scanner.ScannerState.flowLevel</title>
<path fill="none" stroke="#4a90d9" stroke-width="2" d="M989.01,-55.16C1016.58,-63.54 1043.74,-75.88 1065.72,-94 1073.69,-100.58 1070.06,-106.35 1075.72,-115 1098.76,-150.2 1131.55,-186.08 1153.56,-208.66"/>
<polygon fill="#4a90d9" stroke="#4a90d9" stroke-width="2" points="1151.99,-210.55 1158.64,-213.82 1155.48,-207.11 1151.99,-210.55"/>
<text text-anchor="middle" x="1088.22" y="-147.6" font-family="Times-Roman" font-size="8.00" fill="#4a90d9">about</text>
</g>
<!-- L4YAML.Proofs.ScannerCorrectness.skipSpaces_preserves_flowLevel&#45;&gt;L4YAML.Scanner.skipSpaces -->
<g id="edge1" class="edge">
<title>L4YAML.Proofs.ScannerCorrectness.skipSpaces_preserves_flowLevel&#45;&gt;L4YAML.Scanner.skipSpaces</title>
<path fill="none" stroke="#4a90d9" stroke-width="2" d="M934.64,-59.94C974.52,-70.2 1022.57,-82.62 1065.72,-94 1089.4,-100.24 1115.88,-107.36 1137.09,-113.1"/>
<polygon fill="#4a90d9" stroke="#4a90d9" stroke-width="2" points="1136.67,-115.52 1144.06,-114.99 1137.95,-110.79 1136.67,-115.52"/>
<text text-anchor="middle" x="1088.22" y="-104.6" font-family="Times-Roman" font-size="8.00" fill="#4a90d9">about</text>
</g>
<!-- L4YAML.Proofs.ScannerCorrectness.skipSpaces_preserves_flowLevel&#45;&gt;L4YAML.Scanner.ScannerState -->
<g id="edge2" class="edge">
<title>L4YAML.Proofs.ScannerCorrectness.skipSpaces_preserves_flowLevel&#45;&gt;L4YAML.Scanner.ScannerState</title>
<path fill="none" stroke="#4a90d9" stroke-width="2" d="M1003.06,-53.93C1026.74,-62.65 1048.87,-75.42 1065.72,-94 1085.06,-115.33 1067.8,-130.32 1075.72,-158 1089.14,-204.9 1094.73,-216.52 1118.72,-259 1130.09,-279.14 1145.48,-300.26 1157.62,-315.89"/>
<polygon fill="#4a90d9" stroke="#4a90d9" stroke-width="2" points="1156.01,-317.82 1162.26,-321.81 1159.87,-314.79 1156.01,-317.82"/>
<text text-anchor="middle" x="1088.22" y="-227.6" font-family="Times-Roman" font-size="8.00" fill="#4a90d9">about</text>
</g>
<!-- L4YAML.Scanner.skipSpacesLoop.eq_def -->
<g id="node10" class="node">
<title>L4YAML.Scanner.skipSpacesLoop.eq_def</title>
<g id="a_node10"><a xlink:href="../../../api/L4YAML/Scanner/Whitespace.html#L4YAML.Scanner.skipSpacesLoop.eq_def" xlink:title="skipSpacesLoop.eq_def\n(Scanner.Whitespace)" target="_blank">
<ellipse fill="#d4edda" stroke="#28a745" cx="297.97" cy="-263" rx="85.62" ry="21.43"/>
<text text-anchor="middle" x="297.97" y="-266" font-family="Helvetica" font-size="10.00">skipSpacesLoop.eq_def</text>
<text text-anchor="middle" x="297.97" y="-255" font-family="Helvetica" font-size="10.00">(Scanner.Whitespace)</text>
</a>
</g>
</g>
<!-- L4YAML.Scanner.skipSpacesLoop.eq_def&#45;&gt;L4YAML.Scanner.ScannerState.advance -->
<g id="edge8" class="edge">
<title>L4YAML.Scanner.skipSpacesLoop.eq_def&#45;&gt;L4YAML.Scanner.ScannerState.advance</title>
<path fill="none" stroke="#6f42c1" stroke-width="2" stroke-dasharray="5,2" d="M383.53,-264.23C441.91,-266.9 520.81,-274.14 587.94,-293 607.84,-298.59 610.09,-307.2 629.94,-313 680.97,-327.9 741.1,-334.58 785.09,-337.57"/>
<polygon fill="#6f42c1" stroke="#6f42c1" stroke-width="2" points="785,-339.32 790.11,-337.9 785.23,-335.83 785,-339.32"/>
<text text-anchor="middle" x="608.94" y="-311.4" font-family="Times-Roman" font-size="7.00" fill="#6f42c1">about</text>
</g>
<!-- L4YAML.Scanner.skipSpacesLoop.eq_def&#45;&gt;L4YAML.Scanner.ScannerState.peek? -->
<g id="edge13" class="edge">
<title>L4YAML.Scanner.skipSpacesLoop.eq_def&#45;&gt;L4YAML.Scanner.ScannerState.peek?</title>
<path fill="none" stroke="#6f42c1" stroke-width="2" stroke-dasharray="5,2" d="M383.5,-261.54C448.25,-260.91 539.79,-261.05 619.94,-265 678.15,-267.87 744.5,-274.39 790.35,-279.41"/>
<polygon fill="#6f42c1" stroke="#6f42c1" stroke-width="2" points="790.39,-281.18 795.55,-279.98 790.78,-277.7 790.39,-281.18"/>
<text text-anchor="middle" x="608.94" y="-267.4" font-family="Times-Roman" font-size="7.00" fill="#6f42c1">about</text>
</g>
<!-- L4YAML.Scanner.skipSpacesLoop.eq_def&#45;&gt;L4YAML.Scanner.ScannerState -->
<g id="edge11" class="edge">
<title>L4YAML.Scanner.skipSpacesLoop.eq_def&#45;&gt;L4YAML.Scanner.ScannerState</title>
<path fill="none" stroke="#6f42c1" stroke-width="2" stroke-dasharray="5,2" d="M364.66,-249.61C429.76,-240.47 528.17,-238.4 587.94,-293 604.99,-308.58 585.46,-324.56 597.94,-344 607.4,-358.74 613.35,-361.39 629.94,-367 817.7,-430.51 877.53,-377.11 1075.72,-380 1086.83,-380.16 1089.93,-382.65 1100.72,-380 1116.54,-376.11 1132.72,-368.31 1146.1,-360.63"/>
<polygon fill="#6f42c1" stroke="#6f42c1" stroke-width="2" points="1147.1,-362.07 1150.52,-358.03 1145.33,-359.05 1147.1,-362.07"/>
<text text-anchor="middle" x="847.83" y="-400.4" font-family="Times-Roman" font-size="7.00" fill="#6f42c1">about</text>
</g>
<!-- L4YAML.Scanner.skipSpacesLoop.eq_def&#45;&gt;L4YAML.Scanner.ScannerState.hasTabInPrecedingWhitespaceLoop.match_1 -->
<g id="edge12" class="edge">
<title>L4YAML.Scanner.skipSpacesLoop.eq_def&#45;&gt;L4YAML.Scanner.ScannerState.hasTabInPrecedingWhitespaceLoop.match_1</title>
<path fill="none" stroke="#6f42c1" stroke-width="2" stroke-dasharray="5,2" d="M381.58,-258.33C467.13,-253.49 602.39,-245.83 705.06,-240.02"/>
<polygon fill="#6f42c1" stroke="#6f42c1" stroke-width="2" points="705.34,-241.76 710.23,-239.73 705.14,-238.26 705.34,-241.76"/>
<text text-anchor="middle" x="608.94" y="-247.4" font-family="Times-Roman" font-size="7.00" fill="#6f42c1">about</text>
</g>
<!-- L4YAML.Scanner.skipSpacesLoop.eq_def&#45;&gt;L4YAML.Scanner.skipSpacesLoop -->
<g id="edge10" class="edge">
<title>L4YAML.Scanner.skipSpacesLoop.eq_def&#45;&gt;L4YAML.Scanner.skipSpacesLoop</title>
<path fill="none" stroke="#6f42c1" stroke-width="2" stroke-dasharray="5,2" d="M366.32,-250.19C433.08,-237.73 538.35,-218.72 629.94,-205 687.57,-196.37 754.12,-188.38 798.13,-183.36"/>
<polygon fill="#6f42c1" stroke="#6f42c1" stroke-width="2" points="798.35,-185.1 803.12,-182.8 797.96,-181.62 798.35,-185.1"/>
<text text-anchor="middle" x="608.94" y="-211.4" font-family="Times-Roman" font-size="7.00" fill="#6f42c1">about</text>
</g>
<!-- L4YAML.Scanner.skipSpacesLoop.eq_def&#45;&gt;L4YAML.Scanner.skipSpacesLoop.match_1 -->
<g id="edge9" class="edge">
<title>L4YAML.Scanner.skipSpacesLoop.eq_def&#45;&gt;L4YAML.Scanner.skipSpacesLoop.match_1</title>
<path fill="none" stroke="#6f42c1" stroke-width="2" stroke-dasharray="5,2" d="M343.11,-244.86C405.79,-219.83 524.69,-175.1 629.94,-151 678.81,-139.81 735.01,-132.98 777.96,-128.99"/>
<polygon fill="#6f42c1" stroke="#6f42c1" stroke-width="2" points="778.31,-130.71 783.13,-128.51 777.99,-127.23 778.31,-130.71"/>
<text text-anchor="middle" x="608.94" y="-159.4" font-family="Times-Roman" font-size="7.00" fill="#6f42c1">about</text>
</g>
<!-- L4YAML.Scanner.skipSpacesLoop.eq_def&#45;&gt;L4YAML.Proofs.ScannerCorrectness.skipSpaces_preserves_flowLevel -->
<g id="edge4" class="edge">
<title>L4YAML.Scanner.skipSpacesLoop.eq_def&#45;&gt;L4YAML.Proofs.ScannerCorrectness.skipSpaces_preserves_flowLevel</title>
<path fill="none" stroke="#28a745" d="M378.59,-255.78C444.36,-245.49 535.19,-220.53 587.94,-160 602.26,-143.57 585.07,-129.58 597.94,-112 607.58,-98.83 614.8,-100.09 629.94,-94 664.19,-80.22 702.85,-68.96 737.96,-60.25"/>
<polygon fill="#28a745" stroke="#28a745" points="738.71,-62.58 744.93,-58.54 737.55,-57.82 738.71,-62.58"/>
</g>
<!-- L4YAML.Proofs.ScannerCorrectness.advance_preserves_flowLevel -->
<g id="node11" class="node">
<title>L4YAML.Proofs.ScannerCorrectness.advance_preserves_flowLevel</title>
<g id="a_node11"><a xlink:href="../../../api/L4YAML/Proofs/Scanner/ScannerCorrectness.html#L4YAML.Proofs.ScannerCorrectness.advance_preserves_flowLevel" xlink:title="ScannerCorrectness.advance_preserves_flowLevel\n(Scanner.ScannerCorrectness)" target="_blank">
<ellipse fill="#d4edda" stroke="#28a745" cx="297.97" cy="-323" rx="169" ry="21.43"/>
<text text-anchor="middle" x="297.97" y="-326" font-family="Helvetica" font-size="10.00">ScannerCorrectness.advance_preserves_flowLevel</text>
<text text-anchor="middle" x="297.97" y="-315" font-family="Helvetica" font-size="10.00">(Scanner.ScannerCorrectness)</text>
</a>
</g>
</g>
<!-- L4YAML.Proofs.ScannerCorrectness.advance_preserves_flowLevel&#45;&gt;L4YAML.Scanner.ScannerState.advance -->
<g id="edge15" class="edge">
<title>L4YAML.Proofs.ScannerCorrectness.advance_preserves_flowLevel&#45;&gt;L4YAML.Scanner.ScannerState.advance</title>
<path fill="none" stroke="#6f42c1" stroke-width="2" stroke-dasharray="5,2" d="M462.23,-328.07C570.85,-331.44 707.38,-335.67 785.11,-338.09"/>
<polygon fill="#6f42c1" stroke="#6f42c1" stroke-width="2" points="785.1,-339.84 790.15,-338.24 785.21,-336.34 785.1,-339.84"/>
<text text-anchor="middle" x="608.94" y="-334.4" font-family="Times-Roman" font-size="7.00" fill="#6f42c1">about</text>
</g>
<!-- L4YAML.Proofs.ScannerCorrectness.advance_preserves_flowLevel&#45;&gt;L4YAML.Scanner.ScannerState.flowLevel -->
<g id="edge17" class="edge">
<title>L4YAML.Proofs.ScannerCorrectness.advance_preserves_flowLevel&#45;&gt;L4YAML.Scanner.ScannerState.flowLevel</title>
<path fill="none" stroke="#6f42c1" stroke-width="2" stroke-dasharray="5,2" d="M356.36,-342.91C421.67,-364.43 531.98,-397.34 629.94,-410 725.98,-422.41 980.83,-456.6 1065.72,-410 1108.78,-386.36 1094.51,-355.75 1118.72,-313 1130.51,-292.17 1146.59,-270.25 1158.91,-254.48"/>
<polygon fill="#6f42c1" stroke="#6f42c1" stroke-width="2" points="1160.56,-255.21 1162.28,-250.2 1157.81,-253.05 1160.56,-255.21"/>
<text text-anchor="middle" x="847.83" y="-435.4" font-family="Times-Roman" font-size="7.00" fill="#6f42c1">about</text>
</g>
<!-- L4YAML.Proofs.ScannerCorrectness.advance_preserves_flowLevel&#45;&gt;L4YAML.Scanner.ScannerState -->
<g id="edge16" class="edge">
<title>L4YAML.Proofs.ScannerCorrectness.advance_preserves_flowLevel&#45;&gt;L4YAML.Scanner.ScannerState</title>
<path fill="none" stroke="#6f42c1" stroke-width="2" stroke-dasharray="5,2" d="M334.75,-343.72C389.39,-374.1 497.82,-429.57 597.94,-452 816.1,-500.88 906.26,-578.32 1100.72,-468 1140.31,-445.54 1161.6,-393.55 1171.06,-363.19"/>
<polygon fill="#6f42c1" stroke="#6f42c1" stroke-width="2" points="1172.81,-363.44 1172.58,-358.15 1169.46,-362.43 1172.81,-363.44"/>
<text text-anchor="middle" x="847.83" y="-526.4" font-family="Times-Roman" font-size="7.00" fill="#6f42c1">about</text>
</g>
<!-- L4YAML.Proofs.ScannerCorrectness.advance_preserves_flowLevel&#45;&gt;L4YAML.Proofs.ScannerCorrectness.skipSpaces_preserves_flowLevel -->
<g id="edge5" class="edge">
<title>L4YAML.Proofs.ScannerCorrectness.advance_preserves_flowLevel&#45;&gt;L4YAML.Proofs.ScannerCorrectness.skipSpaces_preserves_flowLevel</title>
<path fill="none" stroke="#28a745" d="M368.3,-342.3C441.67,-358.05 555.56,-368.31 619.94,-303 636.26,-286.44 615.27,-112.03 629.94,-94 643.67,-77.12 661.76,-64.95 681.64,-56.23"/>
<polygon fill="#28a745" stroke="#28a745" points="682.64,-58.47 688.16,-53.51 680.75,-53.94 682.64,-58.47"/>
</g>
<!-- _private.L4YAML.Proofs.Scanner.ScannerCorrectness.0.L4YAML.Scanner.skipSpacesLoop.match_1.eq_1 -->
<g id="node12" class="node">
<title>_private.L4YAML.Proofs.Scanner.ScannerCorrectness.0.L4YAML.Scanner.skipSpacesLoop.match_1.eq_1</title>
<g id="a_node12"><a xlink:href="../../../api/L4YAML/Proofs/Scanner/ScannerCorrectness.html#_private.L4YAML.Proofs.Scanner.ScannerCorrectness.0.L4YAML.Scanner.skipSpacesLoop.match_1.eq_1" xlink:title="_private.L4YAML.Proofs.Scanner.ScannerCorrectness.0.L4YAML.Scanner.skipSpacesLoop.match_1.eq_1" target="_blank">
<ellipse fill="#fdebd0" stroke="#e67e22" cx="297.97" cy="-108" rx="281.94" ry="18"/>
<text text-anchor="middle" x="297.97" y="-105.5" font-family="Helvetica" font-size="10.00">_private.L4YAML.Proofs.Scanner.ScannerCorrectness.0.L4YAML.Scanner.skipSpacesLoop.match_1.eq_1</text>
</a>
</g>
</g>
<!-- _private.L4YAML.Proofs.Scanner.ScannerCorrectness.0.L4YAML.Scanner.skipSpacesLoop.match_1.eq_1&#45;&gt;L4YAML.Scanner.skipSpacesLoop.match_1 -->
<g id="edge14" class="edge">
<title>_private.L4YAML.Proofs.Scanner.ScannerCorrectness.0.L4YAML.Scanner.skipSpacesLoop.match_1.eq_1&#45;&gt;L4YAML.Scanner.skipSpacesLoop.match_1</title>
<path fill="none" stroke="#6f42c1" stroke-width="2" stroke-dasharray="5,2" d="M554.85,-115.47C636.97,-117.87 721.25,-120.33 778.03,-121.99"/>
<polygon fill="#6f42c1" stroke="#6f42c1" stroke-width="2" points="778.04,-123.74 783.09,-122.14 778.14,-120.24 778.04,-123.74"/>
<text text-anchor="middle" x="608.94" y="-118.4" font-family="Times-Roman" font-size="7.00" fill="#6f42c1">about</text>
</g>
<!-- _private.L4YAML.Proofs.Scanner.ScannerCorrectness.0.L4YAML.Scanner.skipSpacesLoop.match_1.eq_1&#45;&gt;L4YAML.Proofs.ScannerCorrectness.skipSpaces_preserves_flowLevel -->
<g id="edge6" class="edge">
<title>_private.L4YAML.Proofs.Scanner.ScannerCorrectness.0.L4YAML.Scanner.skipSpacesLoop.match_1.eq_1&#45;&gt;L4YAML.Proofs.ScannerCorrectness.skipSpaces_preserves_flowLevel</title>
<path fill="none" stroke="#e67e22" stroke-width="2" d="M555.91,-100.6C567.23,-95.2 577.99,-88.73 587.94,-81 598.37,-72.89 587.37,-60.93 597.94,-53 632.54,-27.03 678.05,-19.05 720.69,-18.97"/>
<polygon fill="#e67e22" stroke="#e67e22" stroke-width="2" points="720.76,-21.42 727.78,-19.03 720.8,-16.52 720.76,-21.42"/>
</g>
<!-- _private.L4YAML.Proofs.Scanner.ScannerCorrectness.0.L4YAML.Scanner.skipSpacesLoop.match_1.eq_2 -->
<g id="node13" class="node">
<title>_private.L4YAML.Proofs.Scanner.ScannerCorrectness.0.L4YAML.Scanner.skipSpacesLoop.match_1.eq_2</title>
<g id="a_node13"><a xlink:href="../../../api/L4YAML/Proofs/Scanner/ScannerCorrectness.html#_private.L4YAML.Proofs.Scanner.ScannerCorrectness.0.L4YAML.Scanner.skipSpacesLoop.match_1.eq_2" xlink:title="_private.L4YAML.Proofs.Scanner.ScannerCorrectness.0.L4YAML.Scanner.skipSpacesLoop.match_1.eq_2" target="_blank">
<ellipse fill="#fdebd0" stroke="#e67e22" cx="297.97" cy="-54" rx="281.94" ry="18"/>
<text text-anchor="middle" x="297.97" y="-51.5" font-family="Helvetica" font-size="10.00">_private.L4YAML.Proofs.Scanner.ScannerCorrectness.0.L4YAML.Scanner.skipSpacesLoop.match_1.eq_2</text>
</a>
</g>
</g>
<!-- _private.L4YAML.Proofs.Scanner.ScannerCorrectness.0.L4YAML.Scanner.skipSpacesLoop.match_1.eq_2&#45;&gt;L4YAML.Scanner.skipSpacesLoop.match_1 -->
<g id="edge18" class="edge">
<title>_private.L4YAML.Proofs.Scanner.ScannerCorrectness.0.L4YAML.Scanner.skipSpacesLoop.match_1.eq_2&#45;&gt;L4YAML.Scanner.skipSpacesLoop.match_1</title>
<path fill="none" stroke="#6f42c1" stroke-width="2" stroke-dasharray="5,2" d="M495.62,-66.86C526.67,-70.47 558.29,-75.09 587.94,-81 607.1,-84.82 610.86,-89.76 629.94,-94 678.97,-104.9 735.16,-112.54 778.07,-117.38"/>
<polygon fill="#6f42c1" stroke="#6f42c1" stroke-width="2" points="778.07,-119.14 783.23,-117.96 778.46,-115.67 778.07,-119.14"/>
<text text-anchor="middle" x="608.94" y="-93.4" font-family="Times-Roman" font-size="7.00" fill="#6f42c1">about</text>
</g>
<!-- _private.L4YAML.Proofs.Scanner.ScannerCorrectness.0.L4YAML.Scanner.skipSpacesLoop.match_1.eq_2&#45;&gt;L4YAML.Proofs.ScannerCorrectness.skipSpaces_preserves_flowLevel -->
<g id="edge7" class="edge">
<title>_private.L4YAML.Proofs.Scanner.ScannerCorrectness.0.L4YAML.Scanner.skipSpacesLoop.match_1.eq_2&#45;&gt;L4YAML.Proofs.ScannerCorrectness.skipSpaces_preserves_flowLevel</title>
<path fill="none" stroke="#e67e22" stroke-width="2" d="M424.17,-37.86C483.43,-31.75 555.24,-26.57 619.94,-28 623.54,-28.08 627.18,-28.17 630.84,-28.26"/>
<polygon fill="#e67e22" stroke="#e67e22" stroke-width="2" points="630.84,-30.71 637.91,-28.45 630.97,-25.81 630.84,-30.71"/>
</g>
</g>
</svg>
