<?xml version="1.0" encoding="UTF-8" standalone="no"?>
<!DOCTYPE svg PUBLIC "-//W3C//DTD SVG 1.1//EN"
 "http://www.w3.org/Graphics/SVG/1.1/DTD/svg11.dtd">
<!-- Generated by graphviz version 2.44.0 (0)
 -->
<!-- Title: ScannerCorrectness.skipWhitespace_offset_ge Pages: 1 -->
<svg width="976pt" height="346pt"
 viewBox="0.00 0.00 976.29 346.00" xmlns="http://www.w3.org/2000/svg" xmlns:xlink="http://www.w3.org/1999/xlink">
<g id="graph0" class="graph" transform="scale(1 1) rotate(0) translate(4 342)">
<title>ScannerCorrectness.skipWhitespace_offset_ge</title>
<polygon fill="white" stroke="transparent" points="-4,4 -4,-342 972.29,-342 972.29,4 -4,4"/>
<text text-anchor="middle" x="484.14" y="-323.6" font-family="Helvetica Bold" font-size="13.00">ScannerCorrectness.skipWhitespace_offset_ge</text>
<text text-anchor="middle" x="484.14" y="-309.6" font-family="Helvetica Bold" font-size="13.00">(heuristic: used by 11 proofs)</text>
<text text-anchor="middle" x="484.14" y="-295.6" font-family="Helvetica Bold" font-size="13.00">(L4YAML.Proofs.Scanner.ScannerCorrectness)</text>
<g id="clust1" class="cluster">
<title>cluster_functions</title>
<polygon fill="none" stroke="#4a90d9" stroke-dasharray="5,2" points="542.89,-98 542.89,-280 960.29,-280 960.29,-98 542.89,-98"/>
<text text-anchor="middle" x="751.59" y="-265.6" font-family="Helvetica Bold" font-size="13.00" fill="#4a90d9">Functions</text>
</g>
<g id="clust2" class="cluster">
<title>cluster_key</title>
<polygon fill="none" stroke="#d4a017" stroke-dasharray="5,2" points="412.48,-8 412.48,-90 796.29,-90 796.29,-8 412.48,-8"/>
<text text-anchor="middle" x="604.39" y="-75.6" font-family="Helvetica Bold" font-size="13.00" fill="#d4a017">Key Theorem</text>
</g>
<g id="clust3" class="cluster">
<title>cluster_proofs</title>
<polygon fill="none" stroke="#28a745" stroke-dasharray="5,2" points="8,-137 8,-217 370.48,-217 370.48,-137 8,-137"/>
<text text-anchor="middle" x="189.24" y="-202.6" font-family="Helvetica Bold" font-size="13.00" fill="#28a745">Proof Dependencies</text>
</g>
<!-- L4YAML.Scanner.skipWhitespaceLoop -->
<g id="node1" class="node">
<title>L4YAML.Scanner.skipWhitespaceLoop</title>
<g id="a_node1"><a xlink:href="../../../api/L4YAML/Scanner/Whitespace.html#L4YAML.Scanner.skipWhitespaceLoop" xlink:title="skipWhitespaceLoop\n(def)" target="_blank">
<polygon fill="#dce9f7" stroke="#4a90d9" points="657.89,-250 550.89,-250 550.89,-214 657.89,-214 657.89,-250"/>
<text text-anchor="middle" x="604.39" y="-235" font-family="Helvetica" font-size="10.00">skipWhitespaceLoop</text>
<text text-anchor="middle" x="604.39" y="-224" font-family="Helvetica" font-size="10.00">(def)</text>
</a>
</g>
</g>
<!-- L4YAML.Scanner.ScannerState -->
<g id="node2" class="node">
<title>L4YAML.Scanner.ScannerState</title>
<g id="a_node2"><a xlink:href="../../../api/L4YAML/Scanner/State.html#L4YAML.Scanner.ScannerState" xlink:title="ScannerState\n(inductive)" target="_blank">
<polygon fill="#dce9f7" stroke="#4a90d9" points="938.79,-250 862.79,-250 862.79,-214 938.79,-214 938.79,-250"/>
<text text-anchor="middle" x="900.79" y="-235" font-family="Helvetica" font-size="10.00">ScannerState</text>
<text text-anchor="middle" x="900.79" y="-224" font-family="Helvetica" font-size="10.00">(inductive)</text>
</a>
</g>
</g>
<!-- L4YAML.Scanner.skipWhitespace -->
<g id="node3" class="node">
<title>L4YAML.Scanner.skipWhitespace</title>
<g id="a_node3"><a xlink:href="../../../api/L4YAML/Scanner/Whitespace.html#L4YAML.Scanner.skipWhitespace" xlink:title="skipWhitespace\n(def)" target="_blank">
<polygon fill="#dce9f7" stroke="#4a90d9" points="943.79,-142 857.79,-142 857.79,-106 943.79,-106 943.79,-142"/>
<text text-anchor="middle" x="900.79" y="-127" font-family="Helvetica" font-size="10.00">skipWhitespace</text>
<text text-anchor="middle" x="900.79" y="-116" font-family="Helvetica" font-size="10.00">(def)</text>
</a>
</g>
</g>
<!-- L4YAML.Scanner.ScannerState.offset -->
<g id="node4" class="node">
<title>L4YAML.Scanner.ScannerState.offset</title>
<g id="a_node4"><a xlink:href="../../../api/L4YAML/Scanner/State.html#L4YAML.Scanner.ScannerState.offset" xlink:title="ScannerState.offset\n(def)" target="_blank">
<polygon fill="#dce9f7" stroke="#4a90d9" points="952.29,-196 849.29,-196 849.29,-160 952.29,-160 952.29,-196"/>
<text text-anchor="middle" x="900.79" y="-181" font-family="Helvetica" font-size="10.00">ScannerState.offset</text>
<text text-anchor="middle" x="900.79" y="-170" font-family="Helvetica" font-size="10.00">(def)</text>
</a>
</g>
</g>
<!-- L4YAML.Proofs.ScannerCorrectness.skipWhitespace_offset_ge -->
<g id="node5" class="node">
<title>L4YAML.Proofs.ScannerCorrectness.skipWhitespace_offset_ge</title>
<g id="a_node5"><a xlink:href="../../../api/L4YAML/Proofs/Scanner/ScannerCorrectness.html#L4YAML.Proofs.ScannerCorrectness.skipWhitespace_offset_ge" xlink:title="ScannerCorrectness.skipWhitespace_offset_ge" target="_blank">
<polygon fill="#fff3cd" stroke="#d4a017" points="784.19,-30.54 784.19,-45.46 678.86,-56 529.91,-56 424.58,-45.46 424.58,-30.54 529.91,-20 678.86,-20 784.19,-30.54"/>
<polygon fill="none" stroke="#d4a017" points="788.19,-26.92 788.19,-49.08 679.06,-60 529.71,-60 420.58,-49.08 420.58,-26.92 529.71,-16 679.06,-16 788.19,-26.92"/>
<text text-anchor="middle" x="604.39" y="-34.9" font-family="Helvetica" font-size="12.00">ScannerCorrectness.skipWhitespace_offset_ge</text>
</a>
</g>
</g>
<!-- L4YAML.Proofs.ScannerCorrectness.skipWhitespace_offset_ge&#45;&gt;L4YAML.Scanner.ScannerState -->
<g id="edge2" class="edge">
<title>L4YAML.Proofs.ScannerCorrectness.skipWhitespace_offset_ge&#45;&gt;L4YAML.Scanner.ScannerState</title>
<path fill="none" stroke="#4a90d9" stroke-width="2" d="M722.02,-55.8C748.56,-64.08 775.14,-76.22 796.29,-94 823.22,-116.64 816.29,-133.18 831.29,-165 839.6,-182.63 835.98,-190.75 849.29,-205 851.58,-207.46 854.16,-209.74 856.89,-211.85"/>
<polygon fill="#4a90d9" stroke="#4a90d9" stroke-width="2" points="855.56,-213.91 862.7,-215.93 858.38,-209.9 855.56,-213.91"/>
<text text-anchor="middle" x="818.79" y="-167.6" font-family="Times-Roman" font-size="8.00" fill="#4a90d9">about</text>
</g>
<!-- L4YAML.Proofs.ScannerCorrectness.skipWhitespace_offset_ge&#45;&gt;L4YAML.Scanner.skipWhitespace -->
<g id="edge3" class="edge">
<title>L4YAML.Proofs.ScannerCorrectness.skipWhitespace_offset_ge&#45;&gt;L4YAML.Scanner.skipWhitespace</title>
<path fill="none" stroke="#4a90d9" stroke-width="2" d="M788.41,-36.47C803.28,-39.95 817.76,-44.68 831.29,-51 853.72,-61.49 872.41,-82.92 884.56,-99.86"/>
<polygon fill="#4a90d9" stroke="#4a90d9" stroke-width="2" points="882.73,-101.52 888.74,-105.87 886.76,-98.72 882.73,-101.52"/>
<text text-anchor="middle" x="818.79" y="-53.6" font-family="Times-Roman" font-size="8.00" fill="#4a90d9">about</text>
</g>
<!-- L4YAML.Proofs.ScannerCorrectness.skipWhitespace_offset_ge&#45;&gt;L4YAML.Scanner.ScannerState.offset -->
<g id="edge1" class="edge">
<title>L4YAML.Proofs.ScannerCorrectness.skipWhitespace_offset_ge&#45;&gt;L4YAML.Scanner.ScannerState.offset</title>
<path fill="none" stroke="#4a90d9" stroke-width="2" d="M768.76,-51.07C791.85,-58.94 813.68,-70.43 831.29,-87 852.8,-107.25 830.78,-127.97 849.29,-151 850.43,-152.42 851.67,-153.78 852.99,-155.08"/>
<polygon fill="#4a90d9" stroke="#4a90d9" stroke-width="2" points="851.51,-157.04 858.4,-159.76 854.71,-153.33 851.51,-157.04"/>
<text text-anchor="middle" x="818.79" y="-89.6" font-family="Times-Roman" font-size="8.00" fill="#4a90d9">about</text>
</g>
<!-- L4YAML.Proofs.ScannerCorrectness.skipWhitespaceLoop_offset_ge -->
<g id="node6" class="node">
<title>L4YAML.Proofs.ScannerCorrectness.skipWhitespaceLoop_offset_ge</title>
<g id="a_node6"><a xlink:href="../../../api/L4YAML/Proofs/Scanner/ScannerCorrectness.html#L4YAML.Proofs.ScannerCorrectness.skipWhitespaceLoop_offset_ge" xlink:title="ScannerCorrectness.skipWhitespaceLoop_offset_ge\n(Scanner.ScannerCorrectness)" target="_blank">
<ellipse fill="#d4edda" stroke="#28a745" cx="189.24" cy="-166" rx="173.48" ry="21.43"/>
<text text-anchor="middle" x="189.24" y="-169" font-family="Helvetica" font-size="10.00">ScannerCorrectness.skipWhitespaceLoop_offset_ge</text>
<text text-anchor="middle" x="189.24" y="-158" font-family="Helvetica" font-size="10.00">(Scanner.ScannerCorrectness)</text>
</a>
</g>
</g>
<!-- L4YAML.Proofs.ScannerCorrectness.skipWhitespaceLoop_offset_ge&#45;&gt;L4YAML.Scanner.skipWhitespaceLoop -->
<g id="edge5" class="edge">
<title>L4YAML.Proofs.ScannerCorrectness.skipWhitespaceLoop_offset_ge&#45;&gt;L4YAML.Scanner.skipWhitespaceLoop</title>
<path fill="none" stroke="#6f42c1" stroke-width="2" stroke-dasharray="5,2" d="M280.55,-184.11C312.1,-190.16 347.8,-196.71 380.48,-202 436.34,-211.04 500.39,-219.46 545.45,-225.06"/>
<polygon fill="#6f42c1" stroke="#6f42c1" stroke-width="2" points="545.4,-226.82 550.57,-225.7 545.83,-223.34 545.4,-226.82"/>
<text text-anchor="middle" x="391.48" y="-206.4" font-family="Times-Roman" font-size="7.00" fill="#6f42c1">about</text>
</g>
<!-- L4YAML.Proofs.ScannerCorrectness.skipWhitespaceLoop_offset_ge&#45;&gt;L4YAML.Scanner.ScannerState -->
<g id="edge7" class="edge">
<title>L4YAML.Proofs.ScannerCorrectness.skipWhitespaceLoop_offset_ge&#45;&gt;L4YAML.Scanner.ScannerState</title>
<path fill="none" stroke="#6f42c1" stroke-width="2" stroke-dasharray="5,2" d="M360.27,-169.49C509.84,-173.52 715.89,-181.66 796.29,-197 816.9,-200.93 839.02,-208 857.49,-214.76"/>
<polygon fill="#6f42c1" stroke="#6f42c1" stroke-width="2" points="857.31,-216.56 862.61,-216.66 858.53,-213.28 857.31,-216.56"/>
<text text-anchor="middle" x="604.39" y="-199.4" font-family="Times-Roman" font-size="7.00" fill="#6f42c1">about</text>
</g>
<!-- L4YAML.Proofs.ScannerCorrectness.skipWhitespaceLoop_offset_ge&#45;&gt;L4YAML.Scanner.ScannerState.offset -->
<g id="edge6" class="edge">
<title>L4YAML.Proofs.ScannerCorrectness.skipWhitespaceLoop_offset_ge&#45;&gt;L4YAML.Scanner.ScannerState.offset</title>
<path fill="none" stroke="#6f42c1" stroke-width="2" stroke-dasharray="5,2" d="M338.18,-155.11C461.12,-148.2 640.48,-143.08 796.29,-158 811.92,-159.5 828.7,-162.24 844.1,-165.22"/>
<polygon fill="#6f42c1" stroke="#6f42c1" stroke-width="2" points="844.02,-166.99 849.27,-166.24 844.7,-163.55 844.02,-166.99"/>
<text text-anchor="middle" x="604.39" y="-160.4" font-family="Times-Roman" font-size="7.00" fill="#6f42c1">about</text>
</g>
<!-- L4YAML.Proofs.ScannerCorrectness.skipWhitespaceLoop_offset_ge&#45;&gt;L4YAML.Proofs.ScannerCorrectness.skipWhitespace_offset_ge -->
<g id="edge4" class="edge">
<title>L4YAML.Proofs.ScannerCorrectness.skipWhitespaceLoop_offset_ge&#45;&gt;L4YAML.Proofs.ScannerCorrectness.skipWhitespace_offset_ge</title>
<path fill="none" stroke="#28a745" d="M250.46,-145.99C295.09,-131.28 357.45,-110.98 412.48,-94 447.61,-83.16 486.52,-71.65 520.01,-61.91"/>
<polygon fill="#28a745" stroke="#28a745" points="521.03,-64.16 527.06,-59.86 519.66,-59.46 521.03,-64.16"/>
</g>
</g>
</svg>
