<?xml version="1.0" encoding="UTF-8" standalone="no"?>
<!DOCTYPE svg PUBLIC "-//W3C//DTD SVG 1.1//EN"
 "http://www.w3.org/Graphics/SVG/1.1/DTD/svg11.dtd">
<!-- Generated by graphviz version 2.44.0 (0)
 -->
<!-- Title: chain_ScannerProofs.emit_tokens_size Pages: 1 -->
<svg width="356pt" height="98pt"
 viewBox="0.00 0.00 356.00 97.92" xmlns="http://www.w3.org/2000/svg" xmlns:xlink="http://www.w3.org/1999/xlink">
<g id="graph0" class="graph" transform="scale(1 1) rotate(0) translate(4 93.92)">
<title>chain_ScannerProofs.emit_tokens_size</title>
<polygon fill="white" stroke="transparent" points="-4,4 -4,-93.92 352,-93.92 352,4 -4,4"/>
<text text-anchor="middle" x="174" y="-75.52" font-family="Helvetica Bold" font-size="13.00">Functorial Chains: ScannerProofs.emit_tokens_size</text>
<text text-anchor="middle" x="174" y="-61.52" font-family="Helvetica Bold" font-size="13.00">(heuristic: used by 33 proofs)</text>
<!-- L4YAML.Proofs.ScannerProofs.emit_tokens_size -->
<g id="node1" class="node">
<title>L4YAML.Proofs.ScannerProofs.emit_tokens_size</title>
<polygon fill="#fff3cd" stroke="black" points="295.88,-17.46 295.88,-36.46 224.48,-49.89 123.52,-49.89 52.12,-36.46 52.12,-17.46 123.52,-4.03 224.48,-4.03 295.88,-17.46"/>
<polygon fill="none" stroke="black" points="299.89,-14.15 299.89,-39.77 224.86,-53.88 123.14,-53.88 48.11,-39.77 48.11,-14.15 123.14,-0.04 224.86,-0.04 299.89,-14.15"/>
<text text-anchor="middle" x="174" y="-29.96" font-family="Helvetica" font-size="10.00">ScannerProofs.emit_tokens_size</text>
<text text-anchor="middle" x="174" y="-18.96" font-family="Helvetica" font-size="10.00">(no functorial chains found)</text>
</g>
</g>
</svg>
