<?xml version="1.0" encoding="UTF-8" standalone="no"?>
<!DOCTYPE svg PUBLIC "-//W3C//DTD SVG 1.1//EN"
 "http://www.w3.org/Graphics/SVG/1.1/DTD/svg11.dtd">
<!-- Generated by graphviz version 2.44.0 (0)
 -->
<!-- Title: chain_CouplingBridge.advance_inputEnd Pages: 1 -->
<svg width="904pt" height="201pt"
 viewBox="0.00 0.00 904.00 200.92" xmlns="http://www.w3.org/2000/svg" xmlns:xlink="http://www.w3.org/1999/xlink">
<g id="graph0" class="graph" transform="scale(1 1) rotate(0) translate(4 196.92)">
<title>chain_CouplingBridge.advance_inputEnd</title>
<polygon fill="white" stroke="transparent" points="-4,4 -4,-196.92 900,-196.92 900,4 -4,4"/>
<text text-anchor="middle" x="448" y="-178.52" font-family="Helvetica Bold" font-size="13.00">Structural theorem: CouplingBridge.advance_inputEnd\nProof is a witness / injection — no fibration depth\n(heuristic: used by 15 proofs)</text>
<g id="clust1" class="cluster">
<title>cluster_direct</title>
<polygon fill="none" stroke="#4a90d9" stroke-dasharray="5,2" points="267.5,-8 267.5,-82 628.5,-82 628.5,-8 267.5,-8"/>
<text text-anchor="middle" x="448" y="-67.6" font-family="Helvetica Bold" font-size="13.00" fill="#4a90d9">About (no chain extends — proof is structural)</text>
</g>
<!-- L4YAML.Proofs.CouplingBridge.advance_inputEnd -->
<g id="node1" class="node">
<title>L4YAML.Proofs.CouplingBridge.advance_inputEnd</title>
<polygon fill="#fff3cd" stroke="#d4a017" points="593.58,-134.46 593.58,-153.46 519.72,-166.89 415.28,-166.89 341.42,-153.46 341.42,-134.46 415.28,-121.03 519.72,-121.03 593.58,-134.46"/>
<polygon fill="none" stroke="#d4a017" points="597.57,-131.13 597.57,-156.79 520.08,-170.88 414.92,-170.88 337.43,-156.79 337.43,-131.13 414.92,-117.04 520.08,-117.04 597.57,-131.13"/>
<text text-anchor="middle" x="467.5" y="-146.96" font-family="Helvetica" font-size="10.00">CouplingBridge.advance_inputEnd</text>
<text text-anchor="middle" x="467.5" y="-135.96" font-family="Helvetica" font-size="10.00">(structural)</text>
</g>
<!-- L4YAML.Scanner.ScannerState.advance -->
<g id="node2" class="node">
<title>L4YAML.Scanner.ScannerState.advance</title>
<g id="a_node2"><a xlink:href="../../../api/L4YAML/Scanner/State.html#L4YAML.Scanner.ScannerState.advance" xlink:title="ScannerState.advance" target="_blank">
<polygon fill="#dce9f7" stroke="#4a90d9" points="391,-52 276,-52 276,-16 391,-16 391,-52"/>
<text text-anchor="middle" x="333.5" y="-31.5" font-family="Helvetica" font-size="10.00">ScannerState.advance</text>
</a>
</g>
</g>
<!-- L4YAML.Proofs.CouplingBridge.advance_inputEnd&#45;&gt;L4YAML.Scanner.ScannerState.advance -->
<g id="edge1" class="edge">
<title>L4YAML.Proofs.CouplingBridge.advance_inputEnd&#45;&gt;L4YAML.Scanner.ScannerState.advance</title>
<path fill="none" stroke="#4a90d9" stroke-width="2" d="M435.06,-116.83C412.17,-98.38 381.86,-73.96 360.33,-56.61"/>
<polygon fill="#4a90d9" stroke="#4a90d9" stroke-width="2" points="361.76,-54.62 354.77,-52.14 358.69,-58.44 361.76,-54.62"/>
<text text-anchor="middle" x="426" y="-92.6" font-family="Times-Roman" font-size="8.00" fill="#4a90d9">about</text>
</g>
<!-- L4YAML.Scanner.ScannerState.inputEnd -->
<g id="node3" class="node">
<title>L4YAML.Scanner.ScannerState.inputEnd</title>
<g id="a_node3"><a xlink:href="../../../api/L4YAML/Scanner/State.html#L4YAML.Scanner.ScannerState.inputEnd" xlink:title="ScannerState.inputEnd" target="_blank">
<polygon fill="#dce9f7" stroke="#4a90d9" points="526,-52 409,-52 409,-16 526,-16 526,-52"/>
<text text-anchor="middle" x="467.5" y="-31.5" font-family="Helvetica" font-size="10.00">ScannerState.inputEnd</text>
</a>
</g>
</g>
<!-- L4YAML.Proofs.CouplingBridge.advance_inputEnd&#45;&gt;L4YAML.Scanner.ScannerState.inputEnd -->
<g id="edge2" class="edge">
<title>L4YAML.Proofs.CouplingBridge.advance_inputEnd&#45;&gt;L4YAML.Scanner.ScannerState.inputEnd</title>
<path fill="none" stroke="#4a90d9" stroke-width="2" d="M467.5,-116.83C467.5,-99.4 467.5,-76.64 467.5,-59.55"/>
<polygon fill="#4a90d9" stroke="#4a90d9" stroke-width="2" points="469.95,-59.14 467.5,-52.14 465.05,-59.14 469.95,-59.14"/>
<text text-anchor="middle" x="480" y="-92.6" font-family="Times-Roman" font-size="8.00" fill="#4a90d9">about</text>
</g>
<!-- L4YAML.Scanner.ScannerState -->
<g id="node4" class="node">
<title>L4YAML.Scanner.ScannerState</title>
<g id="a_node4"><a xlink:href="../../../api/L4YAML/Scanner/State.html#L4YAML.Scanner.ScannerState" xlink:title="ScannerState" target="_blank">
<polygon fill="#dce9f7" stroke="#4a90d9" points="620.5,-52 544.5,-52 544.5,-16 620.5,-16 620.5,-52"/>
<text text-anchor="middle" x="582.5" y="-31.5" font-family="Helvetica" font-size="10.00">ScannerState</text>
</a>
</g>
</g>
<!-- L4YAML.Proofs.CouplingBridge.advance_inputEnd&#45;&gt;L4YAML.Scanner.ScannerState -->
<g id="edge3" class="edge">
<title>L4YAML.Proofs.CouplingBridge.advance_inputEnd&#45;&gt;L4YAML.Scanner.ScannerState</title>
<path fill="none" stroke="#4a90d9" stroke-width="2" d="M497.27,-116.9C509.28,-106.23 523.18,-93.66 535.5,-82 543.81,-74.14 552.73,-65.31 560.54,-57.46"/>
<polygon fill="#4a90d9" stroke="#4a90d9" stroke-width="2" points="562.57,-58.89 565.75,-52.19 559.08,-55.44 562.57,-58.89"/>
<text text-anchor="middle" x="538" y="-92.6" font-family="Times-Roman" font-size="8.00" fill="#4a90d9">about</text>
</g>
</g>
</svg>
