<?xml version="1.0" encoding="UTF-8" standalone="no"?>
<!DOCTYPE svg PUBLIC "-//W3C//DTD SVG 1.1//EN"
 "http://www.w3.org/Graphics/SVG/1.1/DTD/svg11.dtd">
<!-- Generated by graphviz version 2.44.0 (0)
 -->
<!-- Title: chain_CouplingBridge.advance_explicitKeyLine Pages: 1 -->
<svg width="942pt" height="201pt"
 viewBox="0.00 0.00 942.00 200.92" xmlns="http://www.w3.org/2000/svg" xmlns:xlink="http://www.w3.org/1999/xlink">
<g id="graph0" class="graph" transform="scale(1 1) rotate(0) translate(4 196.92)">
<title>chain_CouplingBridge.advance_explicitKeyLine</title>
<polygon fill="white" stroke="transparent" points="-4,4 -4,-196.92 938,-196.92 938,4 -4,4"/>
<text text-anchor="middle" x="467" y="-178.52" font-family="Helvetica Bold" font-size="13.00">Structural theorem: CouplingBridge.advance_explicitKeyLine\nProof is a witness / injection — no fibration depth\n(heuristic: used by 14 proofs)</text>
<g id="clust1" class="cluster">
<title>cluster_direct</title>
<polygon fill="none" stroke="#4a90d9" stroke-dasharray="5,2" points="273,-8 273,-82 661,-82 661,-8 273,-8"/>
<text text-anchor="middle" x="467" y="-67.6" font-family="Helvetica Bold" font-size="13.00" fill="#4a90d9">About (no chain extends — proof is structural)</text>
</g>
<!-- L4YAML.Proofs.CouplingBridge.advance_explicitKeyLine -->
<g id="node1" class="node">
<title>L4YAML.Proofs.CouplingBridge.advance_explicitKeyLine</title>
<polygon fill="#fff3cd" stroke="#d4a017" points="633.9,-134.46 633.9,-153.46 547.85,-166.89 426.15,-166.89 340.1,-153.46 340.1,-134.46 426.15,-121.03 547.85,-121.03 633.9,-134.46"/>
<polygon fill="none" stroke="#d4a017" points="637.9,-131.05 637.9,-156.88 548.16,-170.88 425.84,-170.88 336.1,-156.88 336.1,-131.05 425.84,-117.04 548.16,-117.04 637.9,-131.05"/>
<text text-anchor="middle" x="487" y="-146.96" font-family="Helvetica" font-size="10.00">CouplingBridge.advance_explicitKeyLine</text>
<text text-anchor="middle" x="487" y="-135.96" font-family="Helvetica" font-size="10.00">(structural)</text>
</g>
<!-- L4YAML.Scanner.ScannerState.advance -->
<g id="node2" class="node">
<title>L4YAML.Scanner.ScannerState.advance</title>
<g id="a_node2"><a xlink:href="../../../api/L4YAML/Scanner/State.html#L4YAML.Scanner.ScannerState.advance" xlink:title="ScannerState.advance" target="_blank">
<polygon fill="#dce9f7" stroke="#4a90d9" points="396.5,-52 281.5,-52 281.5,-16 396.5,-16 396.5,-52"/>
<text text-anchor="middle" x="339" y="-31.5" font-family="Helvetica" font-size="10.00">ScannerState.advance</text>
</a>
</g>
</g>
<!-- L4YAML.Proofs.CouplingBridge.advance_explicitKeyLine&#45;&gt;L4YAML.Scanner.ScannerState.advance -->
<g id="edge1" class="edge">
<title>L4YAML.Proofs.CouplingBridge.advance_explicitKeyLine&#45;&gt;L4YAML.Scanner.ScannerState.advance</title>
<path fill="none" stroke="#4a90d9" stroke-width="2" d="M451.17,-116.83C425.78,-98.3 392.12,-73.75 368.32,-56.39"/>
<polygon fill="#4a90d9" stroke="#4a90d9" stroke-width="2" points="369.6,-54.29 362.5,-52.14 366.71,-58.24 369.6,-54.29"/>
<text text-anchor="middle" x="439.5" y="-92.6" font-family="Times-Roman" font-size="8.00" fill="#4a90d9">about</text>
</g>
<!-- L4YAML.Scanner.ScannerState.explicitKeyLine -->
<g id="node3" class="node">
<title>L4YAML.Scanner.ScannerState.explicitKeyLine</title>
<g id="a_node3"><a xlink:href="../../../api/L4YAML/Scanner/State.html#L4YAML.Scanner.ScannerState.explicitKeyLine" xlink:title="ScannerState.explicitKeyLine" target="_blank">
<polygon fill="#dce9f7" stroke="#4a90d9" points="559,-52 415,-52 415,-16 559,-16 559,-52"/>
<text text-anchor="middle" x="487" y="-31.5" font-family="Helvetica" font-size="10.00">ScannerState.explicitKeyLine</text>
</a>
</g>
</g>
<!-- L4YAML.Proofs.CouplingBridge.advance_explicitKeyLine&#45;&gt;L4YAML.Scanner.ScannerState.explicitKeyLine -->
<g id="edge2" class="edge">
<title>L4YAML.Proofs.CouplingBridge.advance_explicitKeyLine&#45;&gt;L4YAML.Scanner.ScannerState.explicitKeyLine</title>
<path fill="none" stroke="#4a90d9" stroke-width="2" d="M487,-116.83C487,-99.4 487,-76.64 487,-59.55"/>
<polygon fill="#4a90d9" stroke="#4a90d9" stroke-width="2" points="489.45,-59.14 487,-52.14 484.55,-59.14 489.45,-59.14"/>
<text text-anchor="middle" x="499.5" y="-92.6" font-family="Times-Roman" font-size="8.00" fill="#4a90d9">about</text>
</g>
<!-- L4YAML.Scanner.ScannerState -->
<g id="node4" class="node">
<title>L4YAML.Scanner.ScannerState</title>
<g id="a_node4"><a xlink:href="../../../api/L4YAML/Scanner/State.html#L4YAML.Scanner.ScannerState" xlink:title="ScannerState" target="_blank">
<polygon fill="#dce9f7" stroke="#4a90d9" points="653,-52 577,-52 577,-16 653,-16 653,-52"/>
<text text-anchor="middle" x="615" y="-31.5" font-family="Helvetica" font-size="10.00">ScannerState</text>
</a>
</g>
</g>
<!-- L4YAML.Proofs.CouplingBridge.advance_explicitKeyLine&#45;&gt;L4YAML.Scanner.ScannerState -->
<g id="edge3" class="edge">
<title>L4YAML.Proofs.CouplingBridge.advance_explicitKeyLine&#45;&gt;L4YAML.Scanner.ScannerState</title>
<path fill="none" stroke="#4a90d9" stroke-width="2" d="M523.74,-117C537.92,-106.55 554.05,-94.12 568,-82 576.78,-74.38 585.92,-65.47 593.79,-57.48"/>
<polygon fill="#4a90d9" stroke="#4a90d9" stroke-width="2" points="595.89,-58.84 599.01,-52.12 592.38,-55.42 595.89,-58.84"/>
<text text-anchor="middle" x="569.5" y="-92.6" font-family="Times-Roman" font-size="8.00" fill="#4a90d9">about</text>
</g>
</g>
</svg>
