<?xml version="1.0" encoding="UTF-8" standalone="no"?>
<!DOCTYPE svg PUBLIC "-//W3C//DTD SVG 1.1//EN"
 "http://www.w3.org/Graphics/SVG/1.1/DTD/svg11.dtd">
<!-- Generated by graphviz version 2.44.0 (0)
 -->
<!-- Title: chain_CouplingBridge.advance_indents Pages: 1 -->
<svg width="886pt" height="201pt"
 viewBox="0.00 0.00 886.00 200.92" xmlns="http://www.w3.org/2000/svg" xmlns:xlink="http://www.w3.org/1999/xlink">
<g id="graph0" class="graph" transform="scale(1 1) rotate(0) translate(4 196.92)">
<title>chain_CouplingBridge.advance_indents</title>
<polygon fill="white" stroke="transparent" points="-4,4 -4,-196.92 882,-196.92 882,4 -4,4"/>
<text text-anchor="middle" x="439" y="-178.52" font-family="Helvetica Bold" font-size="13.00">Structural theorem: CouplingBridge.advance_indents\nProof is a witness / injection — no fibration depth\n(heuristic: used by 6 proofs)</text>
<g id="clust1" class="cluster">
<title>cluster_direct</title>
<polygon fill="none" stroke="#4a90d9" stroke-dasharray="5,2" points="219,-8 219,-82 659,-82 659,-8 219,-8"/>
<text text-anchor="middle" x="439" y="-67.6" font-family="Helvetica Bold" font-size="13.00" fill="#4a90d9">About (no chain extends — proof is structural)</text>
</g>
<!-- L4YAML.Proofs.CouplingBridge.advance_indents -->
<g id="node1" class="node">
<title>L4YAML.Proofs.CouplingBridge.advance_indents</title>
<polygon fill="#fff3cd" stroke="#d4a017" points="536.86,-134.46 536.86,-153.46 466.06,-166.89 365.94,-166.89 295.14,-153.46 295.14,-134.46 365.94,-121.03 466.06,-121.03 536.86,-134.46"/>
<polygon fill="none" stroke="#d4a017" points="540.86,-131.16 540.86,-156.77 466.44,-170.88 365.56,-170.88 291.14,-156.77 291.14,-131.16 365.56,-117.04 466.44,-117.04 540.86,-131.16"/>
<text text-anchor="middle" x="416" y="-146.96" font-family="Helvetica" font-size="10.00">CouplingBridge.advance_indents</text>
<text text-anchor="middle" x="416" y="-135.96" font-family="Helvetica" font-size="10.00">(structural)</text>
</g>
<!-- L4YAML.Scanner.IndentEntry -->
<g id="node2" class="node">
<title>L4YAML.Scanner.IndentEntry</title>
<g id="a_node2"><a xlink:href="../../../api/L4YAML/Scanner/State.html#L4YAML.Scanner.IndentEntry" xlink:title="IndentEntry" target="_blank">
<polygon fill="#dce9f7" stroke="#4a90d9" points="295,-52 227,-52 227,-16 295,-16 295,-52"/>
<text text-anchor="middle" x="261" y="-31.5" font-family="Helvetica" font-size="10.00">IndentEntry</text>
</a>
</g>
</g>
<!-- L4YAML.Proofs.CouplingBridge.advance_indents&#45;&gt;L4YAML.Scanner.IndentEntry -->
<g id="edge1" class="edge">
<title>L4YAML.Proofs.CouplingBridge.advance_indents&#45;&gt;L4YAML.Scanner.IndentEntry</title>
<path fill="none" stroke="#4a90d9" stroke-width="2" d="M361.34,-117.84C342.34,-107.93 321.43,-95.65 304,-82 295.08,-75.02 286.42,-66.11 279.24,-57.92"/>
<polygon fill="#4a90d9" stroke="#4a90d9" stroke-width="2" points="280.93,-56.13 274.51,-52.41 277.21,-59.32 280.93,-56.13"/>
<text text-anchor="middle" x="339.5" y="-92.6" font-family="Times-Roman" font-size="8.00" fill="#4a90d9">about</text>
</g>
<!-- L4YAML.Scanner.ScannerState.advance -->
<g id="node3" class="node">
<title>L4YAML.Scanner.ScannerState.advance</title>
<g id="a_node3"><a xlink:href="../../../api/L4YAML/Scanner/State.html#L4YAML.Scanner.ScannerState.advance" xlink:title="ScannerState.advance" target="_blank">
<polygon fill="#dce9f7" stroke="#4a90d9" points="428.5,-52 313.5,-52 313.5,-16 428.5,-16 428.5,-52"/>
<text text-anchor="middle" x="371" y="-31.5" font-family="Helvetica" font-size="10.00">ScannerState.advance</text>
</a>
</g>
</g>
<!-- L4YAML.Proofs.CouplingBridge.advance_indents&#45;&gt;L4YAML.Scanner.ScannerState.advance -->
<g id="edge2" class="edge">
<title>L4YAML.Proofs.CouplingBridge.advance_indents&#45;&gt;L4YAML.Scanner.ScannerState.advance</title>
<path fill="none" stroke="#4a90d9" stroke-width="2" d="M405.11,-116.83C397.71,-99.09 388.02,-75.82 380.85,-58.64"/>
<polygon fill="#4a90d9" stroke="#4a90d9" stroke-width="2" points="383.1,-57.66 378.14,-52.14 378.58,-59.54 383.1,-57.66"/>
<text text-anchor="middle" x="410.5" y="-92.6" font-family="Times-Roman" font-size="8.00" fill="#4a90d9">about</text>
</g>
<!-- L4YAML.Scanner.ScannerState.indents -->
<g id="node4" class="node">
<title>L4YAML.Scanner.ScannerState.indents</title>
<g id="a_node4"><a xlink:href="../../../api/L4YAML/Scanner/State.html#L4YAML.Scanner.ScannerState.indents" xlink:title="ScannerState.indents" target="_blank">
<polygon fill="#dce9f7" stroke="#4a90d9" points="557,-52 447,-52 447,-16 557,-16 557,-52"/>
<text text-anchor="middle" x="502" y="-31.5" font-family="Helvetica" font-size="10.00">ScannerState.indents</text>
</a>
</g>
</g>
<!-- L4YAML.Proofs.CouplingBridge.advance_indents&#45;&gt;L4YAML.Scanner.ScannerState.indents -->
<g id="edge3" class="edge">
<title>L4YAML.Proofs.CouplingBridge.advance_indents&#45;&gt;L4YAML.Scanner.ScannerState.indents</title>
<path fill="none" stroke="#4a90d9" stroke-width="2" d="M436.82,-116.83C451.2,-98.77 470.14,-75 483.89,-57.73"/>
<polygon fill="#4a90d9" stroke="#4a90d9" stroke-width="2" points="485.9,-59.14 488.35,-52.14 482.07,-56.09 485.9,-59.14"/>
<text text-anchor="middle" x="468.5" y="-92.6" font-family="Times-Roman" font-size="8.00" fill="#4a90d9">about</text>
</g>
<!-- L4YAML.Scanner.ScannerState -->
<g id="node5" class="node">
<title>L4YAML.Scanner.ScannerState</title>
<g id="a_node5"><a xlink:href="../../../api/L4YAML/Scanner/State.html#L4YAML.Scanner.ScannerState" xlink:title="ScannerState" target="_blank">
<polygon fill="#dce9f7" stroke="#4a90d9" points="651,-52 575,-52 575,-16 651,-16 651,-52"/>
<text text-anchor="middle" x="613" y="-31.5" font-family="Helvetica" font-size="10.00">ScannerState</text>
</a>
</g>
</g>
<!-- L4YAML.Proofs.CouplingBridge.advance_indents&#45;&gt;L4YAML.Scanner.ScannerState -->
<g id="edge4" class="edge">
<title>L4YAML.Proofs.CouplingBridge.advance_indents&#45;&gt;L4YAML.Scanner.ScannerState</title>
<path fill="none" stroke="#4a90d9" stroke-width="2" d="M486.84,-120.81C512.88,-111 541.87,-98.01 566,-82 576,-75.37 585.63,-66.37 593.55,-58.02"/>
<polygon fill="#4a90d9" stroke="#4a90d9" stroke-width="2" points="595.8,-59.19 598.73,-52.38 592.19,-55.87 595.8,-59.19"/>
<text text-anchor="middle" x="563.5" y="-92.6" font-family="Times-Roman" font-size="8.00" fill="#4a90d9">about</text>
</g>
</g>
</svg>
