<?xml version="1.0" encoding="UTF-8" standalone="no"?>
<!DOCTYPE svg PUBLIC "-//W3C//DTD SVG 1.1//EN"
 "http://www.w3.org/Graphics/SVG/1.1/DTD/svg11.dtd">
<!-- Generated by graphviz version 2.44.0 (0)
 -->
<!-- Title: chain_CouplingBridge.ScannerSurfCorr.col_eq Pages: 1 -->
<svg width="947pt" height="201pt"
 viewBox="0.00 0.00 947.00 200.92" xmlns="http://www.w3.org/2000/svg" xmlns:xlink="http://www.w3.org/1999/xlink">
<g id="graph0" class="graph" transform="scale(1 1) rotate(0) translate(4 196.92)">
<title>chain_CouplingBridge.ScannerSurfCorr.col_eq</title>
<polygon fill="white" stroke="transparent" points="-4,4 -4,-196.92 943,-196.92 943,4 -4,4"/>
<text text-anchor="middle" x="469.5" y="-178.52" font-family="Helvetica Bold" font-size="13.00">Structural theorem: CouplingBridge.ScannerSurfCorr.col_eq\nProof is a witness / injection — no fibration depth\n(heuristic: used by 100 proofs)</text>
<g id="clust1" class="cluster">
<title>cluster_direct</title>
<polygon fill="none" stroke="#4a90d9" stroke-dasharray="5,2" points="163.5,-8 163.5,-82 775.5,-82 775.5,-8 163.5,-8"/>
<text text-anchor="middle" x="469.5" y="-67.6" font-family="Helvetica Bold" font-size="13.00" fill="#4a90d9">About (no chain extends — proof is structural)</text>
</g>
<!-- L4YAML.Proofs.CouplingBridge.ScannerSurfCorr.col_eq -->
<g id="node1" class="node">
<title>L4YAML.Proofs.CouplingBridge.ScannerSurfCorr.col_eq</title>
<polygon fill="#fff3cd" stroke="#d4a017" points="658.87,-134.46 658.87,-153.46 573.13,-166.89 451.87,-166.89 366.13,-153.46 366.13,-134.46 451.87,-121.03 573.13,-121.03 658.87,-134.46"/>
<polygon fill="none" stroke="#d4a017" points="662.87,-131.05 662.87,-156.87 573.44,-170.88 451.56,-170.88 362.13,-156.87 362.13,-131.05 451.56,-117.04 573.44,-117.04 662.87,-131.05"/>
<text text-anchor="middle" x="512.5" y="-146.96" font-family="Helvetica" font-size="10.00">CouplingBridge.ScannerSurfCorr.col_eq</text>
<text text-anchor="middle" x="512.5" y="-135.96" font-family="Helvetica" font-size="10.00">(structural)</text>
</g>
<!-- L4YAML.Scanner.ScannerState.col -->
<g id="node2" class="node">
<title>L4YAML.Scanner.ScannerState.col</title>
<g id="a_node2"><a xlink:href="../../../api/L4YAML/Scanner/State.html#L4YAML.Scanner.ScannerState.col" xlink:title="ScannerState.col" target="_blank">
<polygon fill="#dce9f7" stroke="#4a90d9" points="263.5,-52 171.5,-52 171.5,-16 263.5,-16 263.5,-52"/>
<text text-anchor="middle" x="217.5" y="-31.5" font-family="Helvetica" font-size="10.00">ScannerState.col</text>
</a>
</g>
</g>
<!-- L4YAML.Proofs.CouplingBridge.ScannerSurfCorr.col_eq&#45;&gt;L4YAML.Scanner.ScannerState.col -->
<g id="edge1" class="edge">
<title>L4YAML.Proofs.CouplingBridge.ScannerSurfCorr.col_eq&#45;&gt;L4YAML.Scanner.ScannerState.col</title>
<path fill="none" stroke="#4a90d9" stroke-width="2" d="M398.71,-125.22C357.45,-115.94 311.44,-102.17 272.5,-82 260.08,-75.57 248.06,-65.83 238.43,-56.89"/>
<polygon fill="#4a90d9" stroke="#4a90d9" stroke-width="2" points="240.1,-55.1 233.35,-52.03 236.72,-58.64 240.1,-55.1"/>
<text text-anchor="middle" x="322" y="-92.6" font-family="Times-Roman" font-size="8.00" fill="#4a90d9">about</text>
</g>
<!-- L4YAML.Proofs.CouplingBridge.ScannerSurfCorr -->
<g id="node3" class="node">
<title>L4YAML.Proofs.CouplingBridge.ScannerSurfCorr</title>
<g id="a_node3"><a xlink:href="../../../api/L4YAML/Proofs/Coupling/CouplingBridge.html#L4YAML.Proofs.CouplingBridge.ScannerSurfCorr" xlink:title="CouplingBridge.ScannerSurfCorr" target="_blank">
<polygon fill="#dce9f7" stroke="#4a90d9" points="441,-52 282,-52 282,-16 441,-16 441,-52"/>
<text text-anchor="middle" x="361.5" y="-31.5" font-family="Helvetica" font-size="10.00">CouplingBridge.ScannerSurfCorr</text>
</a>
</g>
</g>
<!-- L4YAML.Proofs.CouplingBridge.ScannerSurfCorr.col_eq&#45;&gt;L4YAML.Proofs.CouplingBridge.ScannerSurfCorr -->
<g id="edge2" class="edge">
<title>L4YAML.Proofs.CouplingBridge.ScannerSurfCorr.col_eq&#45;&gt;L4YAML.Proofs.CouplingBridge.ScannerSurfCorr</title>
<path fill="none" stroke="#4a90d9" stroke-width="2" d="M475.95,-116.83C450.04,-98.3 415.7,-73.75 391.42,-56.39"/>
<polygon fill="#4a90d9" stroke="#4a90d9" stroke-width="2" points="392.59,-54.22 385.47,-52.14 389.74,-58.2 392.59,-54.22"/>
<text text-anchor="middle" x="463" y="-92.6" font-family="Times-Roman" font-size="8.00" fill="#4a90d9">about</text>
</g>
<!-- L4YAML.Surface.SurfPos.col -->
<g id="node4" class="node">
<title>L4YAML.Surface.SurfPos.col</title>
<g id="a_node4"><a xlink:href="../../../api/L4YAML/Surface/Combinators.html#L4YAML.Surface.SurfPos.col" xlink:title="Surface.SurfPos.col" target="_blank">
<polygon fill="#dce9f7" stroke="#4a90d9" points="565.5,-52 459.5,-52 459.5,-16 565.5,-16 565.5,-52"/>
<text text-anchor="middle" x="512.5" y="-31.5" font-family="Helvetica" font-size="10.00">Surface.SurfPos.col</text>
</a>
</g>
</g>
<!-- L4YAML.Proofs.CouplingBridge.ScannerSurfCorr.col_eq&#45;&gt;L4YAML.Surface.SurfPos.col -->
<g id="edge3" class="edge">
<title>L4YAML.Proofs.CouplingBridge.ScannerSurfCorr.col_eq&#45;&gt;L4YAML.Surface.SurfPos.col</title>
<path fill="none" stroke="#4a90d9" stroke-width="2" d="M512.5,-116.83C512.5,-99.4 512.5,-76.64 512.5,-59.55"/>
<polygon fill="#4a90d9" stroke="#4a90d9" stroke-width="2" points="514.95,-59.14 512.5,-52.14 510.05,-59.14 514.95,-59.14"/>
<text text-anchor="middle" x="525" y="-92.6" font-family="Times-Roman" font-size="8.00" fill="#4a90d9">about</text>
</g>
<!-- L4YAML.Scanner.ScannerState -->
<g id="node5" class="node">
<title>L4YAML.Scanner.ScannerState</title>
<g id="a_node5"><a xlink:href="../../../api/L4YAML/Scanner/State.html#L4YAML.Scanner.ScannerState" xlink:title="ScannerState" target="_blank">
<polygon fill="#dce9f7" stroke="#4a90d9" points="659.5,-52 583.5,-52 583.5,-16 659.5,-16 659.5,-52"/>
<text text-anchor="middle" x="621.5" y="-31.5" font-family="Helvetica" font-size="10.00">ScannerState</text>
</a>
</g>
</g>
<!-- L4YAML.Proofs.CouplingBridge.ScannerSurfCorr.col_eq&#45;&gt;L4YAML.Scanner.ScannerState -->
<g id="edge4" class="edge">
<title>L4YAML.Proofs.CouplingBridge.ScannerSurfCorr.col_eq&#45;&gt;L4YAML.Scanner.ScannerState</title>
<path fill="none" stroke="#4a90d9" stroke-width="2" d="M539.1,-116.9C550.08,-106.12 562.92,-93.48 574.5,-82 582.62,-73.95 591.5,-65.08 599.33,-57.24"/>
<polygon fill="#4a90d9" stroke="#4a90d9" stroke-width="2" points="601.35,-58.69 604.57,-52 597.89,-55.23 601.35,-58.69"/>
<text text-anchor="middle" x="578" y="-92.6" font-family="Times-Roman" font-size="8.00" fill="#4a90d9">about</text>
</g>
<!-- L4YAML.Surface.SurfPos -->
<g id="node6" class="node">
<title>L4YAML.Surface.SurfPos</title>
<g id="a_node6"><a xlink:href="../../../api/L4YAML/Surface/Combinators.html#L4YAML.Surface.SurfPos" xlink:title="Surface.SurfPos" target="_blank">
<polygon fill="#dce9f7" stroke="#4a90d9" points="767.5,-52 677.5,-52 677.5,-16 767.5,-16 767.5,-52"/>
<text text-anchor="middle" x="722.5" y="-31.5" font-family="Helvetica" font-size="10.00">Surface.SurfPos</text>
</a>
</g>
</g>
<!-- L4YAML.Proofs.CouplingBridge.ScannerSurfCorr.col_eq&#45;&gt;L4YAML.Surface.SurfPos -->
<g id="edge5" class="edge">
<title>L4YAML.Proofs.CouplingBridge.ScannerSurfCorr.col_eq&#45;&gt;L4YAML.Surface.SurfPos</title>
<path fill="none" stroke="#4a90d9" stroke-width="2" d="M588.37,-119.27C614.67,-109.53 643.75,-96.98 668.5,-82 679.88,-75.11 691.18,-65.77 700.48,-57.23"/>
<polygon fill="#4a90d9" stroke="#4a90d9" stroke-width="2" points="702.28,-58.9 705.71,-52.32 698.93,-55.33 702.28,-58.9"/>
<text text-anchor="middle" x="665" y="-92.6" font-family="Times-Roman" font-size="8.00" fill="#4a90d9">about</text>
</g>
</g>
</svg>
