<?xml version="1.0" encoding="UTF-8" standalone="no"?>
<!DOCTYPE svg PUBLIC "-//W3C//DTD SVG 1.1//EN"
 "http://www.w3.org/Graphics/SVG/1.1/DTD/svg11.dtd">
<!-- Generated by graphviz version 2.44.0 (0)
 -->
<!-- Title: skipWhitespaceLoop.eq_1 Pages: 1 -->
<svg width="739pt" height="534pt"
 viewBox="0.00 0.00 738.99 534.00" xmlns="http://www.w3.org/2000/svg" xmlns:xlink="http://www.w3.org/1999/xlink">
<g id="graph0" class="graph" transform="scale(1 1) rotate(0) translate(4 530)">
<title>skipWhitespaceLoop.eq_1</title>
<polygon fill="white" stroke="transparent" points="-4,4 -4,-530 734.99,-530 734.99,4 -4,4"/>
<text text-anchor="middle" x="365.49" y="-511.6" font-family="Helvetica Bold" font-size="13.00">skipWhitespaceLoop.eq_1</text>
<text text-anchor="middle" x="365.49" y="-497.6" font-family="Helvetica Bold" font-size="13.00">(heuristic: used by 6 proofs)</text>
<text text-anchor="middle" x="365.49" y="-483.6" font-family="Helvetica Bold" font-size="13.00">(L4YAML.Proofs.Coupling.CouplingBridge)</text>
<g id="clust1" class="cluster">
<title>cluster_functions</title>
<polygon fill="none" stroke="#4a90d9" stroke-dasharray="5,2" points="263.99,-178 263.99,-468 722.99,-468 722.99,-178 263.99,-178"/>
<text text-anchor="middle" x="493.49" y="-453.6" font-family="Helvetica Bold" font-size="13.00" fill="#4a90d9">Functions</text>
</g>
<g id="clust2" class="cluster">
<title>cluster_key</title>
<polygon fill="none" stroke="#d4a017" stroke-dasharray="5,2" points="292.21,-8 292.21,-90 526.77,-90 526.77,-8 292.21,-8"/>
<text text-anchor="middle" x="409.49" y="-75.6" font-family="Helvetica Bold" font-size="13.00" fill="#d4a017">Key Theorem</text>
</g>
<g id="clust3" class="cluster">
<title>cluster_proofs</title>
<polygon fill="none" stroke="#28a745" stroke-dasharray="5,2" points="8,-202 8,-282 221.99,-282 221.99,-202 8,-202"/>
<text text-anchor="middle" x="114.99" y="-267.6" font-family="Helvetica Bold" font-size="13.00" fill="#28a745">Proof Dependencies</text>
</g>
<!-- L4YAML.Scanner.skipWhitespaceLoop -->
<g id="node1" class="node">
<title>L4YAML.Scanner.skipWhitespaceLoop</title>
<g id="a_node1"><a xlink:href="../../../api/L4YAML/Scanner/Whitespace.html#L4YAML.Scanner.skipWhitespaceLoop" xlink:title="skipWhitespaceLoop\n(def)" target="_blank">
<polygon fill="#dce9f7" stroke="#4a90d9" points="714.99,-276 607.99,-276 607.99,-240 714.99,-240 714.99,-276"/>
<text text-anchor="middle" x="661.49" y="-261" font-family="Helvetica" font-size="10.00">skipWhitespaceLoop</text>
<text text-anchor="middle" x="661.49" y="-250" font-family="Helvetica" font-size="10.00">(def)</text>
</a>
</g>
</g>
<!-- L4YAML.Scanner.ScannerState.advance -->
<g id="node2" class="node">
<title>L4YAML.Scanner.ScannerState.advance</title>
<g id="a_node2"><a xlink:href="../../../api/L4YAML/Scanner/State.html#L4YAML.Scanner.ScannerState.advance" xlink:title="ScannerState.advance\n(def)" target="_blank">
<polygon fill="#dce9f7" stroke="#4a90d9" points="466.99,-438 351.99,-438 351.99,-402 466.99,-402 466.99,-438"/>
<text text-anchor="middle" x="409.49" y="-423" font-family="Helvetica" font-size="10.00">ScannerState.advance</text>
<text text-anchor="middle" x="409.49" y="-412" font-family="Helvetica" font-size="10.00">(def)</text>
</a>
</g>
</g>
<!-- L4YAML.Scanner.ScannerState.peek? -->
<g id="node3" class="node">
<title>L4YAML.Scanner.ScannerState.peek?</title>
<g id="a_node3"><a xlink:href="../../../api/L4YAML/Scanner/State.html#L4YAML.Scanner.ScannerState.peek?" xlink:title="ScannerState.peek?\n(def)" target="_blank">
<polygon fill="#dce9f7" stroke="#4a90d9" points="461.49,-384 357.49,-384 357.49,-348 461.49,-348 461.49,-384"/>
<text text-anchor="middle" x="409.49" y="-369" font-family="Helvetica" font-size="10.00">ScannerState.peek?</text>
<text text-anchor="middle" x="409.49" y="-358" font-family="Helvetica" font-size="10.00">(def)</text>
</a>
</g>
</g>
<!-- L4YAML.Scanner.skipWhitespaceLoop.match_1 -->
<g id="node4" class="node">
<title>L4YAML.Scanner.skipWhitespaceLoop.match_1</title>
<g id="a_node4"><a xlink:href="../../../api/L4YAML/Scanner/Whitespace.html#L4YAML.Scanner.skipWhitespaceLoop.match_1" xlink:title="skipWhitespaceLoop.match_1\n(def)" target="_blank">
<polygon fill="#dce9f7" stroke="#4a90d9" points="483.49,-330 335.49,-330 335.49,-294 483.49,-294 483.49,-330"/>
<text text-anchor="middle" x="409.49" y="-315" font-family="Helvetica" font-size="10.00">skipWhitespaceLoop.match_1</text>
<text text-anchor="middle" x="409.49" y="-304" font-family="Helvetica" font-size="10.00">(def)</text>
</a>
</g>
</g>
<!-- L4YAML.Scanner.ScannerState -->
<g id="node5" class="node">
<title>L4YAML.Scanner.ScannerState</title>
<g id="a_node5"><a xlink:href="../../../api/L4YAML/Scanner/State.html#L4YAML.Scanner.ScannerState" xlink:title="ScannerState\n(inductive)" target="_blank">
<polygon fill="#dce9f7" stroke="#4a90d9" points="699.49,-222 623.49,-222 623.49,-186 699.49,-186 699.49,-222"/>
<text text-anchor="middle" x="661.49" y="-207" font-family="Helvetica" font-size="10.00">ScannerState</text>
<text text-anchor="middle" x="661.49" y="-196" font-family="Helvetica" font-size="10.00">(inductive)</text>
</a>
</g>
</g>
<!-- L4YAML.Scanner.ScannerState.hasTabInPrecedingWhitespaceLoop.match_1 -->
<g id="node6" class="node">
<title>L4YAML.Scanner.ScannerState.hasTabInPrecedingWhitespaceLoop.match_1</title>
<g id="a_node6"><a xlink:href="../../../api/L4YAML/Scanner/Whitespace.html#L4YAML.Scanner.ScannerState.hasTabInPrecedingWhitespaceLoop.match_1" xlink:title="ScannerState.hasTabInPrecedingWhitespaceLoop.match_1\n(def)" target="_blank">
<polygon fill="#dce9f7" stroke="#4a90d9" points="546.99,-276 271.99,-276 271.99,-240 546.99,-240 546.99,-276"/>
<text text-anchor="middle" x="409.49" y="-261" font-family="Helvetica" font-size="10.00">ScannerState.hasTabInPrecedingWhitespaceLoop.match_1</text>
<text text-anchor="middle" x="409.49" y="-250" font-family="Helvetica" font-size="10.00">(def)</text>
</a>
</g>
</g>
<!-- L4YAML.CharPredicates.isWhiteSpaceBool -->
<g id="node7" class="node">
<title>L4YAML.CharPredicates.isWhiteSpaceBool</title>
<g id="a_node7"><a xlink:href="../../../api/L4YAML/Spec/CharPredicates.html#L4YAML.CharPredicates.isWhiteSpaceBool" xlink:title="CharPredicates.isWhiteSpaceBool\n(def)" target="_blank">
<polygon fill="#dce9f7" stroke="#4a90d9" points="492.99,-222 325.99,-222 325.99,-186 492.99,-186 492.99,-222"/>
<text text-anchor="middle" x="409.49" y="-207" font-family="Helvetica" font-size="10.00">CharPredicates.isWhiteSpaceBool</text>
<text text-anchor="middle" x="409.49" y="-196" font-family="Helvetica" font-size="10.00">(def)</text>
</a>
</g>
</g>
<!-- L4YAML.Scanner.skipWhitespaceLoop.eq_1 -->
<g id="node8" class="node">
<title>L4YAML.Scanner.skipWhitespaceLoop.eq_1</title>
<g id="a_node8"><a xlink:href="../../../api/L4YAML/Proofs/Coupling/CouplingBridge.html#L4YAML.Scanner.skipWhitespaceLoop.eq_1" xlink:title="skipWhitespaceLoop.eq_1" target="_blank">
<polygon fill="#fff3cd" stroke="#d4a017" points="514.55,-30.54 514.55,-45.46 453.01,-56 365.97,-56 304.43,-45.46 304.43,-30.54 365.97,-20 453.01,-20 514.55,-30.54"/>
<polygon fill="none" stroke="#d4a017" points="518.54,-27.17 518.54,-48.83 453.35,-60 365.63,-60 300.44,-48.83 300.44,-27.17 365.63,-16 453.35,-16 518.54,-27.17"/>
<text text-anchor="middle" x="409.49" y="-34.9" font-family="Helvetica" font-size="12.00">skipWhitespaceLoop.eq_1</text>
</a>
</g>
</g>
<!-- L4YAML.Scanner.skipWhitespaceLoop.eq_1&#45;&gt;L4YAML.Scanner.skipWhitespaceLoop -->
<g id="edge1" class="edge">
<title>L4YAML.Scanner.skipWhitespaceLoop.eq_1&#45;&gt;L4YAML.Scanner.skipWhitespaceLoop</title>
<path fill="none" stroke="#4a90d9" stroke-width="2" d="M471.18,-57.01C495.81,-66.19 523.86,-78.6 546.99,-94 569.49,-108.98 577.33,-113.12 589.99,-137 609.91,-174.59 582.5,-196.94 607.99,-231 608.99,-232.33 610.07,-233.61 611.22,-234.82"/>
<polygon fill="#4a90d9" stroke="#4a90d9" stroke-width="2" points="609.85,-236.89 616.68,-239.78 613.15,-233.26 609.85,-236.89"/>
<text text-anchor="middle" x="577.49" y="-139.6" font-family="Times-Roman" font-size="8.00" fill="#4a90d9">about</text>
</g>
<!-- L4YAML.Scanner.skipWhitespaceLoop.eq_1&#45;&gt;L4YAML.Scanner.ScannerState -->
<g id="edge2" class="edge">
<title>L4YAML.Scanner.skipWhitespaceLoop.eq_1&#45;&gt;L4YAML.Scanner.ScannerState</title>
<path fill="none" stroke="#4a90d9" stroke-width="2" d="M518.83,-31.33C543.97,-34.33 569.37,-41.49 589.99,-56 631.11,-84.93 649.05,-144.4 656.22,-178.49"/>
<polygon fill="#4a90d9" stroke="#4a90d9" stroke-width="2" points="653.9,-179.38 657.67,-185.77 658.7,-178.42 653.9,-179.38"/>
<text text-anchor="middle" x="577.49" y="-58.6" font-family="Times-Roman" font-size="8.00" fill="#4a90d9">about</text>
</g>
<!-- L4YAML.Scanner.skipWhitespaceLoop.eq_def -->
<g id="node9" class="node">
<title>L4YAML.Scanner.skipWhitespaceLoop.eq_def</title>
<g id="a_node9"><a xlink:href="../../../api/L4YAML/Scanner/Whitespace.html#L4YAML.Scanner.skipWhitespaceLoop.eq_def" xlink:title="skipWhitespaceLoop.eq_def\n(Scanner.Whitespace)" target="_blank">
<ellipse fill="#d4edda" stroke="#28a745" cx="114.99" cy="-231" rx="98.99" ry="21.43"/>
<text text-anchor="middle" x="114.99" y="-234" font-family="Helvetica" font-size="10.00">skipWhitespaceLoop.eq_def</text>
<text text-anchor="middle" x="114.99" y="-223" font-family="Helvetica" font-size="10.00">(Scanner.Whitespace)</text>
</a>
</g>
</g>
<!-- L4YAML.Scanner.skipWhitespaceLoop.eq_def&#45;&gt;L4YAML.Scanner.skipWhitespaceLoop -->
<g id="edge5" class="edge">
<title>L4YAML.Scanner.skipWhitespaceLoop.eq_def&#45;&gt;L4YAML.Scanner.skipWhitespaceLoop</title>
<path fill="none" stroke="#6f42c1" stroke-width="2" stroke-dasharray="5,2" d="M151.8,-211.24C181,-196.31 223.84,-177.07 263.99,-169 387.3,-144.21 430.98,-120.39 546.99,-169 582.64,-183.94 576.85,-208.09 607.99,-231 610.94,-233.17 614.09,-235.26 617.33,-237.25"/>
<polygon fill="#6f42c1" stroke="#6f42c1" stroke-width="2" points="616.59,-238.85 621.79,-239.91 618.38,-235.85 616.59,-238.85"/>
<text text-anchor="middle" x="409.49" y="-171.4" font-family="Times-Roman" font-size="7.00" fill="#6f42c1">about</text>
</g>
<!-- L4YAML.Scanner.skipWhitespaceLoop.eq_def&#45;&gt;L4YAML.Scanner.ScannerState.advance -->
<g id="edge4" class="edge">
<title>L4YAML.Scanner.skipWhitespaceLoop.eq_def&#45;&gt;L4YAML.Scanner.ScannerState.advance</title>
<path fill="none" stroke="#6f42c1" stroke-width="2" stroke-dasharray="5,2" d="M128.71,-252.13C151.19,-287.52 201.57,-358.28 263.99,-393 288.98,-406.9 319.77,-413.8 346.5,-417.17"/>
<polygon fill="#6f42c1" stroke="#6f42c1" stroke-width="2" points="346.61,-418.95 351.79,-417.8 347.03,-415.47 346.61,-418.95"/>
<text text-anchor="middle" x="242.99" y="-389.4" font-family="Times-Roman" font-size="7.00" fill="#6f42c1">about</text>
</g>
<!-- L4YAML.Scanner.skipWhitespaceLoop.eq_def&#45;&gt;L4YAML.Scanner.ScannerState.peek? -->
<g id="edge10" class="edge">
<title>L4YAML.Scanner.skipWhitespaceLoop.eq_def&#45;&gt;L4YAML.Scanner.ScannerState.peek?</title>
<path fill="none" stroke="#6f42c1" stroke-width="2" stroke-dasharray="5,2" d="M137.59,-251.68C164.8,-276.5 214.05,-317.44 263.99,-339 291.78,-351 324.84,-357.68 352.32,-361.39"/>
<polygon fill="#6f42c1" stroke="#6f42c1" stroke-width="2" points="352.2,-363.13 357.39,-362.04 352.65,-359.66 352.2,-363.13"/>
<text text-anchor="middle" x="242.99" y="-334.4" font-family="Times-Roman" font-size="7.00" fill="#6f42c1">about</text>
</g>
<!-- L4YAML.Scanner.skipWhitespaceLoop.eq_def&#45;&gt;L4YAML.Scanner.skipWhitespaceLoop.match_1 -->
<g id="edge9" class="edge">
<title>L4YAML.Scanner.skipWhitespaceLoop.eq_def&#45;&gt;L4YAML.Scanner.skipWhitespaceLoop.match_1</title>
<path fill="none" stroke="#6f42c1" stroke-width="2" stroke-dasharray="5,2" d="M161.36,-249.76C190.33,-261.19 228.91,-275.39 263.99,-285 285.18,-290.8 308.46,-295.76 330.03,-299.78"/>
<polygon fill="#6f42c1" stroke="#6f42c1" stroke-width="2" points="329.95,-301.54 335.19,-300.73 330.59,-298.1 329.95,-301.54"/>
<text text-anchor="middle" x="242.99" y="-283.4" font-family="Times-Roman" font-size="7.00" fill="#6f42c1">about</text>
</g>
<!-- L4YAML.Scanner.skipWhitespaceLoop.eq_def&#45;&gt;L4YAML.Scanner.ScannerState -->
<g id="edge6" class="edge">
<title>L4YAML.Scanner.skipWhitespaceLoop.eq_def&#45;&gt;L4YAML.Scanner.ScannerState</title>
<path fill="none" stroke="#6f42c1" stroke-width="2" stroke-dasharray="5,2" d="M136.75,-210.21C163.47,-185.07 212.62,-144.12 263.99,-128 384,-90.35 426.65,-91.43 546.99,-128 582.02,-138.65 616.08,-164.09 637.6,-182.62"/>
<polygon fill="#6f42c1" stroke="#6f42c1" stroke-width="2" points="636.55,-184.02 641.47,-185.99 638.85,-181.39 636.55,-184.02"/>
<text text-anchor="middle" x="409.49" y="-130.4" font-family="Times-Roman" font-size="7.00" fill="#6f42c1">about</text>
</g>
<!-- L4YAML.Scanner.skipWhitespaceLoop.eq_def&#45;&gt;L4YAML.Scanner.ScannerState.hasTabInPrecedingWhitespaceLoop.match_1 -->
<g id="edge7" class="edge">
<title>L4YAML.Scanner.skipWhitespaceLoop.eq_def&#45;&gt;L4YAML.Scanner.ScannerState.hasTabInPrecedingWhitespaceLoop.match_1</title>
<path fill="none" stroke="#6f42c1" stroke-width="2" stroke-dasharray="5,2" d="M206.14,-239.32C225.33,-241.09 246.03,-243 266.63,-244.9"/>
<polygon fill="#6f42c1" stroke="#6f42c1" stroke-width="2" points="266.72,-246.67 271.86,-245.39 267.04,-243.19 266.72,-246.67"/>
<text text-anchor="middle" x="242.99" y="-245.4" font-family="Times-Roman" font-size="7.00" fill="#6f42c1">about</text>
</g>
<!-- L4YAML.Scanner.skipWhitespaceLoop.eq_def&#45;&gt;L4YAML.CharPredicates.isWhiteSpaceBool -->
<g id="edge8" class="edge">
<title>L4YAML.Scanner.skipWhitespaceLoop.eq_def&#45;&gt;L4YAML.CharPredicates.isWhiteSpaceBool</title>
<path fill="none" stroke="#6f42c1" stroke-width="2" stroke-dasharray="5,2" d="M206.14,-222.68C242.46,-219.33 284.21,-215.47 320.33,-212.14"/>
<polygon fill="#6f42c1" stroke="#6f42c1" stroke-width="2" points="320.8,-213.85 325.62,-211.65 320.48,-210.37 320.8,-213.85"/>
<text text-anchor="middle" x="242.99" y="-221.4" font-family="Times-Roman" font-size="7.00" fill="#6f42c1">about</text>
</g>
<!-- L4YAML.Scanner.skipWhitespaceLoop.eq_def&#45;&gt;L4YAML.Scanner.skipWhitespaceLoop.eq_1 -->
<g id="edge3" class="edge">
<title>L4YAML.Scanner.skipWhitespaceLoop.eq_def&#45;&gt;L4YAML.Scanner.skipWhitespaceLoop.eq_1</title>
<path fill="none" stroke="#28a745" d="M130.02,-209.76C149.69,-181.49 188.04,-131.63 231.99,-102 261.51,-82.1 297.97,-67.53 330.08,-57.36"/>
<polygon fill="#28a745" stroke="#28a745" points="330.9,-59.67 336.86,-55.26 329.45,-54.99 330.9,-59.67"/>
</g>
</g>
</svg>
