<?xml version="1.0" encoding="UTF-8" standalone="no"?>
<!DOCTYPE svg PUBLIC "-//W3C//DTD SVG 1.1//EN"
 "http://www.w3.org/Graphics/SVG/1.1/DTD/svg11.dtd">
<!-- Generated by graphviz version 2.44.0 (0)
 -->
<!-- Title: chain_ScannerState.peekAt?Loop.eq_def Pages: 1 -->
<svg width="895pt" height="201pt"
 viewBox="0.00 0.00 895.00 200.92" xmlns="http://www.w3.org/2000/svg" xmlns:xlink="http://www.w3.org/1999/xlink">
<g id="graph0" class="graph" transform="scale(1 1) rotate(0) translate(4 196.92)">
<title>chain_ScannerState.peekAt?Loop.eq_def</title>
<polygon fill="white" stroke="transparent" points="-4,4 -4,-196.92 891,-196.92 891,4 -4,4"/>
<text text-anchor="middle" x="443.5" y="-178.52" font-family="Helvetica Bold" font-size="13.00">Structural theorem: ScannerState.peekAt?Loop.eq_def\nProof is a witness / injection — no fibration depth\n(heuristic: used by 6 proofs)</text>
<g id="clust1" class="cluster">
<title>cluster_direct</title>
<polygon fill="none" stroke="#4a90d9" stroke-dasharray="5,2" points="270.5,-8 270.5,-82 616.5,-82 616.5,-8 270.5,-8"/>
<text text-anchor="middle" x="443.5" y="-67.6" font-family="Helvetica Bold" font-size="13.00" fill="#4a90d9">About (no chain extends — proof is structural)</text>
</g>
<!-- L4YAML.Scanner.ScannerState.peekAt?Loop.eq_def -->
<g id="node1" class="node">
<title>L4YAML.Scanner.ScannerState.peekAt?Loop.eq_def</title>
<polygon fill="#fff3cd" stroke="#d4a017" points="562.16,-134.46 562.16,-153.46 486.79,-166.89 380.21,-166.89 304.84,-153.46 304.84,-134.46 380.21,-121.03 486.79,-121.03 562.16,-134.46"/>
<polygon fill="none" stroke="#d4a017" points="566.16,-131.12 566.16,-156.8 487.15,-170.88 379.85,-170.88 300.84,-156.8 300.84,-131.12 379.85,-117.04 487.15,-117.04 566.16,-131.12"/>
<text text-anchor="middle" x="433.5" y="-146.96" font-family="Helvetica" font-size="10.00">ScannerState.peekAt?Loop.eq_def</text>
<text text-anchor="middle" x="433.5" y="-135.96" font-family="Helvetica" font-size="10.00">(structural)</text>
</g>
<!-- L4YAML.Scanner.ScannerState.peekAt?Loop -->
<g id="node2" class="node">
<title>L4YAML.Scanner.ScannerState.peekAt?Loop</title>
<g id="a_node2"><a xlink:href="../../../api/L4YAML/Scanner/State.html#L4YAML.Scanner.ScannerState.peekAt?Loop" xlink:title="ScannerState.peekAt?Loop" target="_blank">
<polygon fill="#dce9f7" stroke="#4a90d9" points="414.5,-52 278.5,-52 278.5,-16 414.5,-16 414.5,-52"/>
<text text-anchor="middle" x="346.5" y="-31.5" font-family="Helvetica" font-size="10.00">ScannerState.peekAt?Loop</text>
</a>
</g>
</g>
<!-- L4YAML.Scanner.ScannerState.peekAt?Loop.eq_def&#45;&gt;L4YAML.Scanner.ScannerState.peekAt?Loop -->
<g id="edge1" class="edge">
<title>L4YAML.Scanner.ScannerState.peekAt?Loop.eq_def&#45;&gt;L4YAML.Scanner.ScannerState.peekAt?Loop</title>
<path fill="none" stroke="#4a90d9" stroke-width="2" d="M412.44,-116.83C397.89,-98.77 378.73,-75 364.82,-57.73"/>
<polygon fill="#4a90d9" stroke="#4a90d9" stroke-width="2" points="366.61,-56.05 360.31,-52.14 362.8,-59.13 366.61,-56.05"/>
<text text-anchor="middle" x="410" y="-92.6" font-family="Times-Roman" font-size="8.00" fill="#4a90d9">about</text>
</g>
<!-- L4YAML.Scanner.ScannerState.peekAt?Loop.match_1 -->
<g id="node3" class="node">
<title>L4YAML.Scanner.ScannerState.peekAt?Loop.match_1</title>
<g id="a_node3"><a xlink:href="../../../api/L4YAML/Scanner/State.html#L4YAML.Scanner.ScannerState.peekAt?Loop.match_1" xlink:title="ScannerState.peekAt?Loop.match_1" target="_blank">
<polygon fill="#dce9f7" stroke="#4a90d9" points="608.5,-52 432.5,-52 432.5,-16 608.5,-16 608.5,-52"/>
<text text-anchor="middle" x="520.5" y="-31.5" font-family="Helvetica" font-size="10.00">ScannerState.peekAt?Loop.match_1</text>
</a>
</g>
</g>
<!-- L4YAML.Scanner.ScannerState.peekAt?Loop.eq_def&#45;&gt;L4YAML.Scanner.ScannerState.peekAt?Loop.match_1 -->
<g id="edge2" class="edge">
<title>L4YAML.Scanner.ScannerState.peekAt?Loop.eq_def&#45;&gt;L4YAML.Scanner.ScannerState.peekAt?Loop.match_1</title>
<path fill="none" stroke="#4a90d9" stroke-width="2" d="M454.56,-116.83C469.11,-98.77 488.27,-75 502.18,-57.73"/>
<polygon fill="#4a90d9" stroke="#4a90d9" stroke-width="2" points="504.2,-59.13 506.69,-52.14 500.39,-56.05 504.2,-59.13"/>
<text text-anchor="middle" x="486" y="-92.6" font-family="Times-Roman" font-size="8.00" fill="#4a90d9">about</text>
</g>
</g>
</svg>
