<?xml version="1.0" encoding="UTF-8" standalone="no"?>
<!DOCTYPE svg PUBLIC "-//W3C//DTD SVG 1.1//EN"
 "http://www.w3.org/Graphics/SVG/1.1/DTD/svg11.dtd">
<!-- Generated by graphviz version 2.44.0 (0)
 -->
<!-- Title: CouplingBridge.next_byteIdx Pages: 1 -->
<svg width="298pt" height="156pt"
 viewBox="0.00 0.00 298.00 156.00" xmlns="http://www.w3.org/2000/svg" xmlns:xlink="http://www.w3.org/1999/xlink">
<g id="graph0" class="graph" transform="scale(1 1) rotate(0) translate(4 152)">
<title>CouplingBridge.next_byteIdx</title>
<polygon fill="white" stroke="transparent" points="-4,4 -4,-152 294,-152 294,4 -4,4"/>
<text text-anchor="middle" x="145" y="-133.6" font-family="Helvetica Bold" font-size="13.00">CouplingBridge.next_byteIdx</text>
<text text-anchor="middle" x="145" y="-119.6" font-family="Helvetica Bold" font-size="13.00">(heuristic: used by 6 proofs)</text>
<text text-anchor="middle" x="145" y="-105.6" font-family="Helvetica Bold" font-size="13.00">(L4YAML.Proofs.Coupling.CouplingBridge)</text>
<g id="clust2" class="cluster">
<title>cluster_key</title>
<polygon fill="none" stroke="#d4a017" stroke-dasharray="5,2" points="19.73,-8 19.73,-90 270.27,-90 270.27,-8 19.73,-8"/>
<text text-anchor="middle" x="145" y="-75.6" font-family="Helvetica Bold" font-size="13.00" fill="#d4a017">Key Theorem</text>
</g>
<!-- L4YAML.Proofs.CouplingBridge.next_byteIdx -->
<g id="node1" class="node">
<title>L4YAML.Proofs.CouplingBridge.next_byteIdx</title>
<g id="a_node1"><a xlink:href="../../../api/L4YAML/Proofs/Coupling/CouplingBridge.html#L4YAML.Proofs.CouplingBridge.next_byteIdx" xlink:title="CouplingBridge.next_byteIdx" target="_blank">
<polygon fill="#fff3cd" stroke="#d4a017" points="258.05,-30.54 258.05,-45.46 191.83,-56 98.17,-56 31.95,-45.46 31.95,-30.54 98.17,-20 191.83,-20 258.05,-30.54"/>
<polygon fill="none" stroke="#d4a017" points="262.04,-27.13 262.04,-48.87 192.14,-60 97.86,-60 27.96,-48.87 27.96,-27.13 97.86,-16 192.14,-16 262.04,-27.13"/>
<text text-anchor="middle" x="145" y="-34.9" font-family="Helvetica" font-size="12.00">CouplingBridge.next_byteIdx</text>
</a>
</g>
</g>
</g>
</svg>
