<?xml version="1.0" encoding="UTF-8" standalone="no"?>
<!DOCTYPE svg PUBLIC "-//W3C//DTD SVG 1.1//EN"
 "http://www.w3.org/Graphics/SVG/1.1/DTD/svg11.dtd">
<!-- Generated by graphviz version 2.44.0 (0)
 -->
<!-- Title: chain_ParserNodeProofs.emptyNode_aar Pages: 1 -->
<svg width="895pt" height="201pt"
 viewBox="0.00 0.00 895.00 200.92" xmlns="http://www.w3.org/2000/svg" xmlns:xlink="http://www.w3.org/1999/xlink">
<g id="graph0" class="graph" transform="scale(1 1) rotate(0) translate(4 196.92)">
<title>chain_ParserNodeProofs.emptyNode_aar</title>
<polygon fill="white" stroke="transparent" points="-4,4 -4,-196.92 891,-196.92 891,4 -4,4"/>
<text text-anchor="middle" x="443.5" y="-178.52" font-family="Helvetica Bold" font-size="13.00">Structural theorem: ParserNodeProofs.emptyNode_aar\nProof is a witness / injection — no fibration depth\n(heuristic: used by 9 proofs)</text>
<g id="clust1" class="cluster">
<title>cluster_direct</title>
<polygon fill="none" stroke="#4a90d9" stroke-dasharray="5,2" points="234.5,-8 234.5,-82 652.5,-82 652.5,-8 234.5,-8"/>
<text text-anchor="middle" x="443.5" y="-67.6" font-family="Helvetica Bold" font-size="13.00" fill="#4a90d9">About (no chain extends — proof is structural)</text>
</g>
<!-- L4YAML.Proofs.ParserNodeProofs.emptyNode_aar -->
<g id="node1" class="node">
<title>L4YAML.Proofs.ParserNodeProofs.emptyNode_aar</title>
<polygon fill="#fff3cd" stroke="#d4a017" points="547.72,-134.46 547.72,-153.46 471.44,-166.89 363.56,-166.89 287.28,-153.46 287.28,-134.46 363.56,-121.03 471.44,-121.03 547.72,-134.46"/>
<polygon fill="none" stroke="#d4a017" points="551.72,-131.11 551.72,-156.81 471.79,-170.88 363.21,-170.88 283.28,-156.81 283.28,-131.11 363.21,-117.04 471.79,-117.04 551.72,-131.11"/>
<text text-anchor="middle" x="417.5" y="-146.96" font-family="Helvetica" font-size="10.00">ParserNodeProofs.emptyNode_aar</text>
<text text-anchor="middle" x="417.5" y="-135.96" font-family="Helvetica" font-size="10.00">(structural)</text>
</g>
<!-- L4YAML.TokenParser.emptyNode -->
<g id="node2" class="node">
<title>L4YAML.TokenParser.emptyNode</title>
<g id="a_node2"><a xlink:href="../../../api/L4YAML/Parser/State.html#L4YAML.TokenParser.emptyNode" xlink:title="TokenParser.emptyNode" target="_blank">
<polygon fill="#dce9f7" stroke="#4a90d9" points="368,-52 243,-52 243,-16 368,-16 368,-52"/>
<text text-anchor="middle" x="305.5" y="-31.5" font-family="Helvetica" font-size="10.00">TokenParser.emptyNode</text>
</a>
</g>
</g>
<!-- L4YAML.Proofs.ParserNodeProofs.emptyNode_aar&#45;&gt;L4YAML.TokenParser.emptyNode -->
<g id="edge1" class="edge">
<title>L4YAML.Proofs.ParserNodeProofs.emptyNode_aar&#45;&gt;L4YAML.TokenParser.emptyNode</title>
<path fill="none" stroke="#4a90d9" stroke-width="2" d="M390.39,-116.83C371.5,-98.62 346.56,-74.58 328.61,-57.28"/>
<polygon fill="#4a90d9" stroke="#4a90d9" stroke-width="2" points="330.02,-55.23 323.28,-52.14 326.62,-58.76 330.02,-55.23"/>
<text text-anchor="middle" x="385" y="-92.6" font-family="Times-Roman" font-size="8.00" fill="#4a90d9">about</text>
</g>
<!-- L4YAML.YamlValue -->
<g id="node3" class="node">
<title>L4YAML.YamlValue</title>
<g id="a_node3"><a xlink:href="../../../api/L4YAML/Spec/Types.html#L4YAML.YamlValue" xlink:title="YamlValue" target="_blank">
<polygon fill="#dce9f7" stroke="#4a90d9" points="448.5,-52 386.5,-52 386.5,-16 448.5,-16 448.5,-52"/>
<text text-anchor="middle" x="417.5" y="-31.5" font-family="Helvetica" font-size="10.00">YamlValue</text>
</a>
</g>
</g>
<!-- L4YAML.Proofs.ParserNodeProofs.emptyNode_aar&#45;&gt;L4YAML.YamlValue -->
<g id="edge2" class="edge">
<title>L4YAML.Proofs.ParserNodeProofs.emptyNode_aar&#45;&gt;L4YAML.YamlValue</title>
<path fill="none" stroke="#4a90d9" stroke-width="2" d="M417.5,-116.83C417.5,-99.4 417.5,-76.64 417.5,-59.55"/>
<polygon fill="#4a90d9" stroke="#4a90d9" stroke-width="2" points="419.95,-59.14 417.5,-52.14 415.05,-59.14 419.95,-59.14"/>
<text text-anchor="middle" x="430" y="-92.6" font-family="Times-Roman" font-size="8.00" fill="#4a90d9">about</text>
</g>
<!-- L4YAML.Proofs.ParserGrammable.AllAliasesResolve -->
<g id="node4" class="node">
<title>L4YAML.Proofs.ParserGrammable.AllAliasesResolve</title>
<g id="a_node4"><a xlink:href="../../../api/L4YAML/Proofs/Parser/ParserGrammableBase.html#L4YAML.Proofs.ParserGrammable.AllAliasesResolve" xlink:title="ParserGrammable.AllAliasesResolve" target="_blank">
<polygon fill="#dce9f7" stroke="#4a90d9" points="644,-52 467,-52 467,-16 644,-16 644,-52"/>
<text text-anchor="middle" x="555.5" y="-31.5" font-family="Helvetica" font-size="10.00">ParserGrammable.AllAliasesResolve</text>
</a>
</g>
</g>
<!-- L4YAML.Proofs.ParserNodeProofs.emptyNode_aar&#45;&gt;L4YAML.Proofs.ParserGrammable.AllAliasesResolve -->
<g id="edge3" class="edge">
<title>L4YAML.Proofs.ParserNodeProofs.emptyNode_aar&#45;&gt;L4YAML.Proofs.ParserGrammable.AllAliasesResolve</title>
<path fill="none" stroke="#4a90d9" stroke-width="2" d="M450.91,-116.83C474.48,-98.38 505.7,-73.96 527.87,-56.61"/>
<polygon fill="#4a90d9" stroke="#4a90d9" stroke-width="2" points="529.59,-58.38 533.59,-52.14 526.57,-54.52 529.59,-58.38"/>
<text text-anchor="middle" x="494" y="-92.6" font-family="Times-Roman" font-size="8.00" fill="#4a90d9">about</text>
</g>
</g>
</svg>
