<?xml version="1.0" encoding="UTF-8" standalone="no"?>
<!DOCTYPE svg PUBLIC "-//W3C//DTD SVG 1.1//EN"
 "http://www.w3.org/Graphics/SVG/1.1/DTD/svg11.dtd">
<!-- Generated by graphviz version 2.44.0 (0)
 -->
<!-- Title: chain_ParserNodeProofs.AG.withField Pages: 1 -->
<svg width="1053pt" height="418pt"
 viewBox="0.00 0.00 1053.00 418.00" xmlns="http://www.w3.org/2000/svg" xmlns:xlink="http://www.w3.org/1999/xlink">
<g id="graph0" class="graph" transform="scale(1 1) rotate(0) translate(4 414)">
<title>chain_ParserNodeProofs.AG.withField</title>
<polygon fill="white" stroke="transparent" points="-4,4 -4,-414 1049,-414 1049,4 -4,4"/>
<text text-anchor="middle" x="522.5" y="-395.6" font-family="Helvetica Bold" font-size="13.00">Functorial Chains: ParserNodeProofs.AG.withField\n(heuristic: used by 14 proofs)</text>
<g id="clust1" class="cluster">
<title>cluster_fns</title>
<polygon fill="none" stroke="#4a90d9" stroke-dasharray="5,2" points="8,-8 8,-271 803,-271 803,-8 8,-8"/>
<text text-anchor="middle" x="405.5" y="-256.6" font-family="Helvetica Bold" font-size="13.00" fill="#4a90d9">Functions (Call Chain)</text>
</g>
<g id="clust2" class="cluster">
<title>cluster_thms</title>
<polygon fill="none" stroke="#28a745" stroke-dasharray="5,2" points="811,-89 811,-380 1033,-380 1033,-89 811,-89"/>
<text text-anchor="middle" x="922" y="-365.6" font-family="Helvetica Bold" font-size="13.00" fill="#28a745">Theorems (Proof Chain)</text>
</g>
<!-- L4YAML.Proofs.ParserNodeProofs.AG -->
<g id="node1" class="node">
<title>L4YAML.Proofs.ParserNodeProofs.AG</title>
<g id="a_node1"><a xlink:href="../../../api/L4YAML/Proofs/Parser/ParserNodeProofs.html#L4YAML.Proofs.ParserNodeProofs.AG" xlink:title="ParserNodeProofs.AG" target="_blank">
<polygon fill="#dce9f7" stroke="#4a90d9" points="742,-241 628,-241 628,-205 742,-205 742,-241"/>
<text text-anchor="middle" x="685" y="-220.5" font-family="Helvetica" font-size="10.00">ParserNodeProofs.AG</text>
</a>
</g>
</g>
<!-- L4YAML.YamlValue -->
<g id="node2" class="node">
<title>L4YAML.YamlValue</title>
<g id="a_node2"><a xlink:href="../../../api/L4YAML/Spec/Types.html#L4YAML.YamlValue" xlink:title="YamlValue" target="_blank">
<polygon fill="#dce9f7" stroke="#4a90d9" points="615,-133 553,-133 553,-97 615,-97 615,-133"/>
<text text-anchor="middle" x="584" y="-112.5" font-family="Helvetica" font-size="10.00">YamlValue</text>
</a>
</g>
</g>
<!-- L4YAML.Proofs.ParserNodeProofs.AG&#45;&gt;L4YAML.YamlValue -->
<g id="edge19" class="edge">
<title>L4YAML.Proofs.ParserNodeProofs.AG&#45;&gt;L4YAML.YamlValue</title>
<path fill="none" stroke="#4a90d9" stroke-width="2" d="M627.8,-207.12C624.82,-206.39 621.88,-205.68 619,-205 582.27,-196.29 559.69,-216.38 536,-187 525.96,-174.54 528.75,-165.26 536,-151 538.75,-145.58 542.79,-140.8 547.36,-136.66"/>
<polygon fill="#4a90d9" stroke="#4a90d9" stroke-width="2" points="549.08,-138.42 552.93,-132.08 545.97,-134.63 549.08,-138.42"/>
<text text-anchor="middle" x="545.5" y="-167.1" font-family="Times-Roman" font-size="8.00">calls</text>
</g>
<!-- L4YAML.TokenParser.ParseState -->
<g id="node3" class="node">
<title>L4YAML.TokenParser.ParseState</title>
<g id="a_node3"><a xlink:href="../../../api/L4YAML/Parser/State.html#L4YAML.TokenParser.ParseState" xlink:title="TokenParser.ParseState" target="_blank">
<polygon fill="#dce9f7" stroke="#4a90d9" points="523,-52 399,-52 399,-16 523,-16 523,-52"/>
<text text-anchor="middle" x="461" y="-31.5" font-family="Helvetica" font-size="10.00">TokenParser.ParseState</text>
</a>
</g>
</g>
<!-- L4YAML.Proofs.ParserNodeProofs.AG&#45;&gt;L4YAML.TokenParser.ParseState -->
<g id="edge18" class="edge">
<title>L4YAML.Proofs.ParserNodeProofs.AG&#45;&gt;L4YAML.TokenParser.ParseState</title>
<path fill="none" stroke="#4a90d9" stroke-width="2" d="M627.82,-207.04C624.84,-206.33 621.89,-205.65 619,-205 577.49,-195.69 558.01,-213.83 525,-187 511.55,-176.07 522.43,-163.08 510,-151 493.96,-135.41 475.86,-151.3 463,-133 447.96,-111.61 450.26,-80.6 454.49,-59.22"/>
<polygon fill="#4a90d9" stroke="#4a90d9" stroke-width="2" points="456.89,-59.72 455.98,-52.36 452.1,-58.68 456.89,-59.72"/>
<text text-anchor="middle" x="472.5" y="-113.1" font-family="Times-Roman" font-size="8.00">calls</text>
</g>
<!-- L4YAML.TokenParser.ParseState.anchors -->
<g id="node5" class="node">
<title>L4YAML.TokenParser.ParseState.anchors</title>
<g id="a_node5"><a xlink:href="../../../api/L4YAML/Parser/State.html#L4YAML.TokenParser.ParseState.anchors" xlink:title="TokenParser.ParseState.anchors" target="_blank">
<polygon fill="#dce9f7" stroke="#4a90d9" points="795,-133 633,-133 633,-97 795,-97 795,-133"/>
<text text-anchor="middle" x="714" y="-112.5" font-family="Helvetica" font-size="10.00">TokenParser.ParseState.anchors</text>
</a>
</g>
</g>
<!-- L4YAML.Proofs.ParserNodeProofs.AG&#45;&gt;L4YAML.TokenParser.ParseState.anchors -->
<g id="edge2" class="edge">
<title>L4YAML.Proofs.ParserNodeProofs.AG&#45;&gt;L4YAML.TokenParser.ParseState.anchors</title>
<path fill="none" stroke="#4a90d9" stroke-width="2" d="M735.63,-204.83C742.94,-200.18 749.5,-194.33 754,-187 762.37,-173.37 760.61,-165.57 754,-151 751.9,-146.38 748.86,-142.13 745.38,-138.3"/>
<polygon fill="#4a90d9" stroke="#4a90d9" stroke-width="2" points="747.09,-136.55 740.4,-133.35 743.63,-140.02 747.09,-136.55"/>
<text text-anchor="middle" x="768.5" y="-167.1" font-family="Times-Roman" font-size="8.00">calls</text>
</g>
<!-- L4YAML.TokenParser.ParseState.trackPositions -->
<g id="node4" class="node">
<title>L4YAML.TokenParser.ParseState.trackPositions</title>
<g id="a_node4"><a xlink:href="../../../api/L4YAML/Parser/State.html#L4YAML.TokenParser.ParseState.trackPositions" xlink:title="TokenParser.ParseState.trackPositions" target="_blank">
<polygon fill="#dce9f7" stroke="#4a90d9" points="752.5,-187 563.5,-187 563.5,-151 752.5,-151 752.5,-187"/>
<text text-anchor="middle" x="658" y="-166.5" font-family="Helvetica" font-size="10.00">TokenParser.ParseState.trackPositions</text>
</a>
</g>
</g>
<!-- L4YAML.TokenParser.ParseState.trackPositions&#45;&gt;L4YAML.TokenParser.ParseState -->
<g id="edge15" class="edge">
<title>L4YAML.TokenParser.ParseState.trackPositions&#45;&gt;L4YAML.TokenParser.ParseState</title>
<path fill="none" stroke="#4a90d9" stroke-width="2" d="M563.24,-152.36C549.65,-147.54 536.43,-141.24 525,-133 499.01,-114.26 480.76,-81.42 470.57,-58.97"/>
<polygon fill="#4a90d9" stroke="#4a90d9" stroke-width="2" points="472.72,-57.78 467.67,-52.36 468.24,-59.75 472.72,-57.78"/>
<text text-anchor="middle" x="534.5" y="-113.1" font-family="Times-Roman" font-size="8.00">calls</text>
</g>
<!-- L4YAML.TokenParser.ParseState.anchors&#45;&gt;L4YAML.TokenParser.ParseState -->
<g id="edge5" class="edge">
<title>L4YAML.TokenParser.ParseState.anchors&#45;&gt;L4YAML.TokenParser.ParseState</title>
<path fill="none" stroke="#4a90d9" stroke-width="2" d="M659.41,-96.96C619.1,-84.37 564.18,-67.22 522.35,-54.16"/>
<polygon fill="#4a90d9" stroke="#4a90d9" stroke-width="2" points="522.9,-51.76 515.49,-52.01 521.44,-56.44 522.9,-51.76"/>
<text text-anchor="middle" x="604.5" y="-72.6" font-family="Times-Roman" font-size="8.00">calls</text>
</g>
<!-- L4YAML.TokenParser.ParseState.pos -->
<g id="node6" class="node">
<title>L4YAML.TokenParser.ParseState.pos</title>
<g id="a_node6"><a xlink:href="../../../api/L4YAML/Parser/State.html#L4YAML.TokenParser.ParseState.pos" xlink:title="TokenParser.ParseState.pos" target="_blank">
<polygon fill="#dce9f7" stroke="#4a90d9" points="159.5,-187 16.5,-187 16.5,-151 159.5,-151 159.5,-187"/>
<text text-anchor="middle" x="88" y="-166.5" font-family="Helvetica" font-size="10.00">TokenParser.ParseState.pos</text>
</a>
</g>
</g>
<!-- L4YAML.TokenParser.ParseState.pos&#45;&gt;L4YAML.TokenParser.ParseState -->
<g id="edge22" class="edge">
<title>L4YAML.TokenParser.ParseState.pos&#45;&gt;L4YAML.TokenParser.ParseState</title>
<path fill="none" stroke="#4a90d9" stroke-width="2" d="M121.34,-150.91C155.88,-133.68 211.74,-107.09 262,-89 304.33,-73.76 353.06,-60.47 391.7,-50.89"/>
<polygon fill="#4a90d9" stroke="#4a90d9" stroke-width="2" points="392.59,-53.19 398.8,-49.14 391.41,-48.43 392.59,-53.19"/>
<text text-anchor="middle" x="271.5" y="-113.1" font-family="Times-Roman" font-size="8.00">calls</text>
</g>
<!-- L4YAML.TokenParser.ParseState.tagHandles -->
<g id="node7" class="node">
<title>L4YAML.TokenParser.ParseState.tagHandles</title>
<g id="a_node7"><a xlink:href="../../../api/L4YAML/Parser/State.html#L4YAML.TokenParser.ParseState.tagHandles" xlink:title="TokenParser.ParseState.tagHandles" target="_blank">
<polygon fill="#dce9f7" stroke="#4a90d9" points="341,-187 165,-187 165,-151 341,-151 341,-187"/>
<text text-anchor="middle" x="253" y="-166.5" font-family="Helvetica" font-size="10.00">TokenParser.ParseState.tagHandles</text>
</a>
</g>
</g>
<!-- L4YAML.TokenParser.ParseState.tagHandles&#45;&gt;L4YAML.TokenParser.ParseState -->
<g id="edge9" class="edge">
<title>L4YAML.TokenParser.ParseState.tagHandles&#45;&gt;L4YAML.TokenParser.ParseState</title>
<path fill="none" stroke="#4a90d9" stroke-width="2" d="M268,-150.94C283.47,-133.96 308.81,-107.8 334,-89 347.87,-78.64 352.3,-77.29 368,-70 379.62,-64.6 392.32,-59.39 404.5,-54.72"/>
<polygon fill="#4a90d9" stroke="#4a90d9" stroke-width="2" points="405.53,-56.95 411.2,-52.17 403.79,-52.37 405.53,-56.95"/>
<text text-anchor="middle" x="343.5" y="-113.1" font-family="Times-Roman" font-size="8.00">calls</text>
</g>
<!-- L4YAML.TokenParser.ParseState.tokens -->
<g id="node8" class="node">
<title>L4YAML.TokenParser.ParseState.tokens</title>
<g id="a_node8"><a xlink:href="../../../api/L4YAML/Parser/State.html#L4YAML.TokenParser.ParseState.tokens" xlink:title="TokenParser.ParseState.tokens" target="_blank">
<polygon fill="#dce9f7" stroke="#4a90d9" points="501.5,-187 346.5,-187 346.5,-151 501.5,-151 501.5,-187"/>
<text text-anchor="middle" x="424" y="-166.5" font-family="Helvetica" font-size="10.00">TokenParser.ParseState.tokens</text>
</a>
</g>
</g>
<!-- L4YAML.TokenParser.ParseState.tokens&#45;&gt;L4YAML.TokenParser.ParseState -->
<g id="edge17" class="edge">
<title>L4YAML.TokenParser.ParseState.tokens&#45;&gt;L4YAML.TokenParser.ParseState</title>
<path fill="none" stroke="#4a90d9" stroke-width="2" d="M382.36,-150.89C375.41,-146.14 369.13,-140.24 365,-133 355.32,-116.01 355.13,-105.88 365,-89 373.53,-74.41 387.61,-63.46 402.4,-55.37"/>
<polygon fill="#4a90d9" stroke="#4a90d9" stroke-width="2" points="403.67,-57.47 408.76,-52.08 401.42,-53.12 403.67,-57.47"/>
<text text-anchor="middle" x="374.5" y="-113.1" font-family="Times-Roman" font-size="8.00">calls</text>
</g>
<!-- L4YAML.TokenParser.ParseState.nodePositions -->
<g id="node9" class="node">
<title>L4YAML.TokenParser.ParseState.nodePositions</title>
<g id="a_node9"><a xlink:href="../../../api/L4YAML/Parser/State.html#L4YAML.TokenParser.ParseState.nodePositions" xlink:title="TokenParser.ParseState.nodePositions" target="_blank">
<polygon fill="#dce9f7" stroke="#4a90d9" points="610,-241 422,-241 422,-205 610,-205 610,-241"/>
<text text-anchor="middle" x="516" y="-220.5" font-family="Helvetica" font-size="10.00">TokenParser.ParseState.nodePositions</text>
</a>
</g>
</g>
<!-- L4YAML.TokenParser.ParseState.nodePositions&#45;&gt;L4YAML.TokenParser.ParseState -->
<g id="edge12" class="edge">
<title>L4YAML.TokenParser.ParseState.nodePositions&#45;&gt;L4YAML.TokenParser.ParseState</title>
<path fill="none" stroke="#4a90d9" stroke-width="2" d="M513.88,-204.99C511.27,-185.23 506.73,-154.85 503,-151 476.75,-123.88 443.69,-162.38 420,-133 401.83,-110.46 421.36,-78.72 439.18,-57.53"/>
<polygon fill="#4a90d9" stroke="#4a90d9" stroke-width="2" points="441.15,-59.01 443.89,-52.12 437.45,-55.79 441.15,-59.01"/>
<text text-anchor="middle" x="429.5" y="-113.1" font-family="Times-Roman" font-size="8.00">calls</text>
</g>
<!-- L4YAML.Proofs.ParserNodeProofs.AG._proof_2 -->
<g id="node10" class="node">
<title>L4YAML.Proofs.ParserNodeProofs.AG._proof_2</title>
<g id="a_node10"><a xlink:href="../../../api/L4YAML/Proofs/Parser/ParserNodeProofs.html#L4YAML.Proofs.ParserNodeProofs.AG._proof_2" xlink:title="ParserNodeProofs.AG._proof_2" target="_blank">
<ellipse fill="#d4edda" stroke="#28a745" cx="910" cy="-115" rx="91.49" ry="18"/>
<text text-anchor="middle" x="910" y="-112.5" font-family="Helvetica" font-size="10.00">ParserNodeProofs.AG._proof_2</text>
</a>
</g>
</g>
<!-- L4YAML.Proofs.ParserNodeProofs.AG._proof_2&#45;&gt;L4YAML.TokenParser.ParseState -->
<g id="edge7" class="edge">
<title>L4YAML.Proofs.ParserNodeProofs.AG._proof_2&#45;&gt;L4YAML.TokenParser.ParseState</title>
<path fill="none" stroke="#6f42c1" stroke-width="2" stroke-dasharray="5,2" d="M857.26,-100.3C841.19,-96.37 823.42,-92.27 807,-89 711.59,-70.01 600.28,-53.66 530.22,-44.07"/>
<polygon fill="#6f42c1" stroke="#6f42c1" stroke-width="2" points="530.42,-41.63 523.15,-43.11 529.76,-46.48 530.42,-41.63"/>
<text text-anchor="middle" x="762.5" y="-72.6" font-family="Times-Roman" font-size="8.00" fill="#6f42c1">about</text>
</g>
<!-- L4YAML.Proofs.ParserNodeProofs.AG.of_eq -->
<g id="node11" class="node">
<title>L4YAML.Proofs.ParserNodeProofs.AG.of_eq</title>
<g id="a_node11"><a xlink:href="../../../api/L4YAML/Proofs/Parser/ParserNodeProofs.html#L4YAML.Proofs.ParserNodeProofs.AG.of_eq" xlink:title="ParserNodeProofs.AG.of_eq" target="_blank">
<ellipse fill="#d4edda" stroke="#28a745" cx="942" cy="-223" rx="83" ry="18"/>
<text text-anchor="middle" x="942" y="-220.5" font-family="Helvetica" font-size="10.00">ParserNodeProofs.AG.of_eq</text>
</a>
</g>
</g>
<!-- L4YAML.Proofs.ParserNodeProofs.AG.of_eq&#45;&gt;L4YAML.YamlValue -->
<g id="edge20" class="edge">
<title>L4YAML.Proofs.ParserNodeProofs.AG.of_eq&#45;&gt;L4YAML.YamlValue</title>
<path fill="none" stroke="#6f42c1" stroke-width="2" stroke-dasharray="5,2" d="M895.16,-208.09C877.82,-202.34 858.2,-195.11 841,-187 813.22,-173.9 811.05,-160.97 782,-151 715.15,-128.05 692.34,-151.01 624,-133 623.36,-132.83 622.72,-132.66 622.08,-132.47"/>
<polygon fill="#6f42c1" stroke="#6f42c1" stroke-width="2" points="622.56,-130.05 615.14,-130.24 621.06,-134.72 622.56,-130.05"/>
<text text-anchor="middle" x="853.5" y="-167.1" font-family="Times-Roman" font-size="8.00" fill="#6f42c1">about</text>
</g>
<!-- L4YAML.Proofs.ParserNodeProofs.AG.of_eq&#45;&gt;L4YAML.TokenParser.ParseState -->
<g id="edge10" class="edge">
<title>L4YAML.Proofs.ParserNodeProofs.AG.of_eq&#45;&gt;L4YAML.TokenParser.ParseState</title>
<path fill="none" stroke="#6f42c1" stroke-width="2" stroke-dasharray="5,2" d="M962.23,-205.19C992.36,-178.17 1042.22,-124.55 1010,-89 978.37,-54.1 671.14,-40.95 530.57,-36.73"/>
<polygon fill="#6f42c1" stroke="#6f42c1" stroke-width="2" points="530.26,-34.27 523.19,-36.51 530.11,-39.17 530.26,-34.27"/>
<text text-anchor="middle" x="1032.5" y="-113.1" font-family="Times-Roman" font-size="8.00" fill="#6f42c1">about</text>
</g>
<!-- L4YAML.Proofs.ParserNodeProofs.AG.of_eq&#45;&gt;L4YAML.TokenParser.ParseState.anchors -->
<g id="edge4" class="edge">
<title>L4YAML.Proofs.ParserNodeProofs.AG.of_eq&#45;&gt;L4YAML.TokenParser.ParseState.anchors</title>
<path fill="none" stroke="#6f42c1" stroke-width="2" stroke-dasharray="5,2" d="M914.69,-205.88C906.83,-200.48 898.6,-194.03 892,-187 879.16,-173.34 885.25,-161.92 870,-151 863.81,-146.57 834.28,-139.51 802.55,-132.88"/>
<polygon fill="#6f42c1" stroke="#6f42c1" stroke-width="2" points="802.67,-130.41 795.32,-131.39 801.68,-135.21 802.67,-130.41"/>
<text text-anchor="middle" x="904.5" y="-167.1" font-family="Times-Roman" font-size="8.00" fill="#6f42c1">about</text>
</g>
<!-- L4YAML.Proofs.ParserNodeProofs.AG.of_eq&#45;&gt;L4YAML.Proofs.ParserNodeProofs.AG._proof_2 -->
<g id="edge6" class="edge">
<title>L4YAML.Proofs.ParserNodeProofs.AG.of_eq&#45;&gt;L4YAML.Proofs.ParserNodeProofs.AG._proof_2</title>
<path fill="none" stroke="#28a745" stroke-width="2" d="M936.86,-204.97C931.54,-187.35 923.19,-159.7 917.21,-139.89"/>
<polygon fill="#28a745" stroke="#28a745" stroke-width="2" points="919.5,-138.98 915.13,-132.99 914.81,-140.4 919.5,-138.98"/>
<text text-anchor="middle" x="940" y="-167.1" font-family="Times-Roman" font-size="8.00">uses</text>
</g>
<!-- L4YAML.Proofs.ParserNodeProofs.AG.withField -->
<g id="node12" class="node">
<title>L4YAML.Proofs.ParserNodeProofs.AG.withField</title>
<g id="a_node12"><a xlink:href="../../../api/L4YAML/Proofs/Parser/ParserNodeProofs.html#L4YAML.Proofs.ParserNodeProofs.AG.withField" xlink:title="ParserNodeProofs.AG.withField" target="_blank">
<polygon fill="#fff3cd" stroke="#d4a017" points="1021.3,-320.54 1021.3,-335.46 963.13,-346 880.87,-346 822.7,-335.46 822.7,-320.54 880.87,-310 963.13,-310 1021.3,-320.54"/>
<polygon fill="none" stroke="#d4a017" points="1025.3,-317.2 1025.3,-338.8 963.49,-350 880.51,-350 818.7,-338.8 818.7,-317.2 880.51,-306 963.49,-306 1025.3,-317.2"/>
<text text-anchor="middle" x="922" y="-325.5" font-family="Helvetica" font-size="10.00">ParserNodeProofs.AG.withField</text>
</a>
</g>
</g>
<!-- L4YAML.Proofs.ParserNodeProofs.AG.withField&#45;&gt;L4YAML.Proofs.ParserNodeProofs.AG -->
<g id="edge1" class="edge">
<title>L4YAML.Proofs.ParserNodeProofs.AG.withField&#45;&gt;L4YAML.Proofs.ParserNodeProofs.AG</title>
<path fill="none" stroke="#6f42c1" stroke-width="2" stroke-dasharray="5,2" d="M826.46,-315.78C784.14,-309.31 740.08,-300.05 723,-288 709.12,-278.21 699.47,-261.59 693.37,-247.74"/>
<polygon fill="#6f42c1" stroke="#6f42c1" stroke-width="2" points="695.6,-246.74 690.66,-241.21 691.08,-248.61 695.6,-246.74"/>
<text text-anchor="middle" x="735.5" y="-281.6" font-family="Times-Roman" font-size="8.00" fill="#6f42c1">about</text>
</g>
<!-- L4YAML.Proofs.ParserNodeProofs.AG.withField&#45;&gt;L4YAML.TokenParser.ParseState.trackPositions -->
<g id="edge14" class="edge">
<title>L4YAML.Proofs.ParserNodeProofs.AG.withField&#45;&gt;L4YAML.TokenParser.ParseState.trackPositions</title>
<path fill="none" stroke="#6f42c1" stroke-width="2" stroke-dasharray="5,2" d="M826.32,-315.79C808.18,-309.89 790.63,-301.09 777,-288 749.11,-261.23 777.55,-233.09 751,-205 745.65,-199.34 739.29,-194.58 732.44,-190.59"/>
<polygon fill="#6f42c1" stroke="#6f42c1" stroke-width="2" points="733.36,-188.3 726.04,-187.14 731.04,-192.62 733.36,-188.3"/>
<text text-anchor="middle" x="789.5" y="-281.6" font-family="Times-Roman" font-size="8.00" fill="#6f42c1">about</text>
</g>
<!-- L4YAML.Proofs.ParserNodeProofs.AG.withField&#45;&gt;L4YAML.TokenParser.ParseState.anchors -->
<g id="edge13" class="edge">
<title>L4YAML.Proofs.ParserNodeProofs.AG.withField&#45;&gt;L4YAML.TokenParser.ParseState.anchors</title>
<path fill="none" stroke="#6f42c1" stroke-width="2" stroke-dasharray="5,2" d="M867.65,-308.2C850.98,-299.58 834.53,-287.5 825,-271 810.33,-245.6 813.41,-231.95 825,-205 829.6,-194.31 839.4,-197.69 844,-187 850.32,-172.3 853.73,-163.7 844,-151 840.62,-146.59 821.79,-140.62 799.46,-134.86"/>
<polygon fill="#6f42c1" stroke="#6f42c1" stroke-width="2" points="799.82,-132.43 792.44,-133.08 798.62,-137.18 799.82,-132.43"/>
<text text-anchor="middle" x="837.5" y="-221.1" font-family="Times-Roman" font-size="8.00" fill="#6f42c1">about</text>
</g>
<!-- L4YAML.Proofs.ParserNodeProofs.AG.withField&#45;&gt;L4YAML.TokenParser.ParseState.pos -->
<g id="edge21" class="edge">
<title>L4YAML.Proofs.ParserNodeProofs.AG.withField&#45;&gt;L4YAML.TokenParser.ParseState.pos</title>
<path fill="none" stroke="#6f42c1" stroke-width="2" stroke-dasharray="5,2" d="M818.39,-324.68C662.75,-320.06 376.65,-306.85 281,-271 222.58,-249.11 159.32,-213.49 121.7,-190.93"/>
<polygon fill="#6f42c1" stroke="#6f42c1" stroke-width="2" points="122.7,-188.67 115.44,-187.15 120.17,-192.86 122.7,-188.67"/>
<text text-anchor="middle" x="352.5" y="-281.6" font-family="Times-Roman" font-size="8.00" fill="#6f42c1">about</text>
</g>
<!-- L4YAML.Proofs.ParserNodeProofs.AG.withField&#45;&gt;L4YAML.TokenParser.ParseState.tagHandles -->
<g id="edge8" class="edge">
<title>L4YAML.Proofs.ParserNodeProofs.AG.withField&#45;&gt;L4YAML.TokenParser.ParseState.tagHandles</title>
<path fill="none" stroke="#6f42c1" stroke-width="2" stroke-dasharray="5,2" d="M818.69,-326.6C688.25,-324.85 471.9,-317.4 398,-288 345.7,-267.19 297.71,-220.42 272.2,-192.41"/>
<polygon fill="#6f42c1" stroke="#6f42c1" stroke-width="2" points="273.9,-190.64 267.4,-187.07 270.26,-193.92 273.9,-190.64"/>
<text text-anchor="middle" x="410.5" y="-281.6" font-family="Times-Roman" font-size="8.00" fill="#6f42c1">about</text>
</g>
<!-- L4YAML.Proofs.ParserNodeProofs.AG.withField&#45;&gt;L4YAML.TokenParser.ParseState.tokens -->
<g id="edge16" class="edge">
<title>L4YAML.Proofs.ParserNodeProofs.AG.withField&#45;&gt;L4YAML.TokenParser.ParseState.tokens</title>
<path fill="none" stroke="#6f42c1" stroke-width="2" stroke-dasharray="5,2" d="M818.46,-322.88C677.49,-316.18 439.53,-300.61 413,-271 394.33,-250.17 403.02,-216.38 412.33,-193.69"/>
<polygon fill="#6f42c1" stroke="#6f42c1" stroke-width="2" points="414.68,-194.43 415.21,-187.03 410.18,-192.48 414.68,-194.43"/>
<text text-anchor="middle" x="465.5" y="-281.6" font-family="Times-Roman" font-size="8.00" fill="#6f42c1">about</text>
</g>
<!-- L4YAML.Proofs.ParserNodeProofs.AG.withField&#45;&gt;L4YAML.TokenParser.ParseState.nodePositions -->
<g id="edge11" class="edge">
<title>L4YAML.Proofs.ParserNodeProofs.AG.withField&#45;&gt;L4YAML.TokenParser.ParseState.nodePositions</title>
<path fill="none" stroke="#6f42c1" stroke-width="2" stroke-dasharray="5,2" d="M821.66,-316.6C761.63,-308.4 684.52,-294.32 619,-271 597.89,-263.49 575.16,-253.34 556.43,-244.4"/>
<polygon fill="#6f42c1" stroke="#6f42c1" stroke-width="2" points="557.09,-242 549.72,-241.17 554.97,-246.42 557.09,-242"/>
<text text-anchor="middle" x="679.5" y="-281.6" font-family="Times-Roman" font-size="8.00" fill="#6f42c1">about</text>
</g>
<!-- L4YAML.Proofs.ParserNodeProofs.AG.withField&#45;&gt;L4YAML.Proofs.ParserNodeProofs.AG.of_eq -->
<g id="edge3" class="edge">
<title>L4YAML.Proofs.ParserNodeProofs.AG.withField&#45;&gt;L4YAML.Proofs.ParserNodeProofs.AG.of_eq</title>
<path fill="none" stroke="#28a745" stroke-width="2" d="M926.14,-305.66C929.39,-288.95 933.9,-265.71 937.28,-248.29"/>
<polygon fill="#28a745" stroke="#28a745" stroke-width="2" points="939.73,-248.56 938.66,-241.22 934.92,-247.63 939.73,-248.56"/>
<text text-anchor="middle" x="940" y="-281.6" font-family="Times-Roman" font-size="8.00">uses</text>
</g>
</g>
</svg>
