<?xml version="1.0" encoding="UTF-8" standalone="no"?>
<!DOCTYPE svg PUBLIC "-//W3C//DTD SVG 1.1//EN"
 "http://www.w3.org/Graphics/SVG/1.1/DTD/svg11.dtd">
<!-- Generated by graphviz version 2.44.0 (0)
 -->
<!-- Title: ScannerState.WellFormed._proof_2 Pages: 1 -->
<svg width="774pt" height="270pt"
 viewBox="0.00 0.00 773.68 270.00" xmlns="http://www.w3.org/2000/svg" xmlns:xlink="http://www.w3.org/1999/xlink">
<g id="graph0" class="graph" transform="scale(1 1) rotate(0) translate(4 266)">
<title>ScannerState.WellFormed._proof_2</title>
<polygon fill="white" stroke="transparent" points="-4,4 -4,-266 769.68,-266 769.68,4 -4,4"/>
<text text-anchor="middle" x="382.84" y="-247.6" font-family="Helvetica Bold" font-size="13.00">ScannerState.WellFormed._proof_2</text>
<text text-anchor="middle" x="382.84" y="-233.6" font-family="Helvetica Bold" font-size="13.00">(heuristic: used by 7 proofs)</text>
<text text-anchor="middle" x="382.84" y="-219.6" font-family="Helvetica Bold" font-size="13.00">(L4YAML.Scanner.State)</text>
<g id="clust1" class="cluster">
<title>cluster_functions</title>
<polygon fill="none" stroke="#4a90d9" stroke-dasharray="5,2" points="631.68,-18 631.68,-200 757.68,-200 757.68,-18 631.68,-18"/>
<text text-anchor="middle" x="694.68" y="-185.6" font-family="Helvetica Bold" font-size="13.00" fill="#4a90d9">Functions</text>
</g>
<g id="clust2" class="cluster">
<title>cluster_key</title>
<polygon fill="none" stroke="#d4a017" stroke-dasharray="5,2" points="286.83,-8 286.83,-90 586.68,-90 586.68,-8 286.83,-8"/>
<text text-anchor="middle" x="436.76" y="-75.6" font-family="Helvetica Bold" font-size="13.00" fill="#d4a017">Key Theorem</text>
</g>
<g id="clust3" class="cluster">
<title>cluster_proofs</title>
<polygon fill="none" stroke="#28a745" stroke-dasharray="5,2" points="8,-124 8,-204 265.83,-204 265.83,-124 8,-124"/>
<text text-anchor="middle" x="136.92" y="-189.6" font-family="Helvetica Bold" font-size="13.00" fill="#28a745">Proof Dependencies</text>
</g>
<g id="clust4" class="cluster">
<title>cluster_stdlib</title>
<polygon fill="none" stroke="#e67e22" stroke-dasharray="5,2" points="51.8,-12 51.8,-86 222.03,-86 222.03,-12 51.8,-12"/>
<text text-anchor="middle" x="136.92" y="-71.6" font-family="Helvetica Bold" font-size="13.00" fill="#e67e22">Stdlib Lemmas</text>
</g>
<!-- L4YAML.Scanner.ScannerState -->
<g id="node1" class="node">
<title>L4YAML.Scanner.ScannerState</title>
<g id="a_node1"><a xlink:href="../../../api/L4YAML/Scanner/State.html#L4YAML.Scanner.ScannerState" xlink:title="ScannerState\n(inductive)" target="_blank">
<polygon fill="#dce9f7" stroke="#4a90d9" points="732.68,-170 656.68,-170 656.68,-134 732.68,-134 732.68,-170"/>
<text text-anchor="middle" x="694.68" y="-155" font-family="Helvetica" font-size="10.00">ScannerState</text>
<text text-anchor="middle" x="694.68" y="-144" font-family="Helvetica" font-size="10.00">(inductive)</text>
</a>
</g>
</g>
<!-- L4YAML.Scanner.ScannerState.indents -->
<g id="node2" class="node">
<title>L4YAML.Scanner.ScannerState.indents</title>
<g id="a_node2"><a xlink:href="../../../api/L4YAML/Scanner/State.html#L4YAML.Scanner.ScannerState.indents" xlink:title="ScannerState.indents\n(def)" target="_blank">
<polygon fill="#dce9f7" stroke="#4a90d9" points="749.68,-116 639.68,-116 639.68,-80 749.68,-80 749.68,-116"/>
<text text-anchor="middle" x="694.68" y="-101" font-family="Helvetica" font-size="10.00">ScannerState.indents</text>
<text text-anchor="middle" x="694.68" y="-90" font-family="Helvetica" font-size="10.00">(def)</text>
</a>
</g>
</g>
<!-- L4YAML.Scanner.IndentEntry -->
<g id="node3" class="node">
<title>L4YAML.Scanner.IndentEntry</title>
<g id="a_node3"><a xlink:href="../../../api/L4YAML/Scanner/State.html#L4YAML.Scanner.IndentEntry" xlink:title="IndentEntry\n(inductive)" target="_blank">
<polygon fill="#dce9f7" stroke="#4a90d9" points="728.68,-62 660.68,-62 660.68,-26 728.68,-26 728.68,-62"/>
<text text-anchor="middle" x="694.68" y="-47" font-family="Helvetica" font-size="10.00">IndentEntry</text>
<text text-anchor="middle" x="694.68" y="-36" font-family="Helvetica" font-size="10.00">(inductive)</text>
</a>
</g>
</g>
<!-- L4YAML.Scanner.ScannerState.WellFormed._proof_2 -->
<g id="node4" class="node">
<title>L4YAML.Scanner.ScannerState.WellFormed._proof_2</title>
<g id="a_node4"><a xlink:href="../../../api/L4YAML/Scanner/State.html#L4YAML.Scanner.ScannerState.WellFormed._proof_2" xlink:title="ScannerState.WellFormed._proof_2" target="_blank">
<polygon fill="#fff3cd" stroke="#d4a017" points="574.61,-30.54 574.61,-45.46 493.86,-56 379.66,-56 298.9,-45.46 298.9,-30.54 379.66,-20 493.86,-20 574.61,-30.54"/>
<polygon fill="none" stroke="#d4a017" points="578.61,-27.03 578.61,-48.97 494.12,-60 379.4,-60 294.91,-48.97 294.91,-27.03 379.4,-16 494.12,-16 578.61,-27.03"/>
<text text-anchor="middle" x="436.76" y="-34.9" font-family="Helvetica" font-size="12.00">ScannerState.WellFormed._proof_2</text>
</a>
</g>
</g>
<!-- L4YAML.Scanner.ScannerState.WellFormed._proof_2&#45;&gt;L4YAML.Scanner.ScannerState -->
<g id="edge3" class="edge">
<title>L4YAML.Scanner.ScannerState.WellFormed._proof_2&#45;&gt;L4YAML.Scanner.ScannerState</title>
<path fill="none" stroke="#4a90d9" stroke-width="2" d="M503.76,-58.92C530.17,-68.29 560.49,-80.31 586.68,-94 608.21,-105.25 610.45,-113.21 631.68,-125 637.41,-128.18 643.59,-131.26 649.75,-134.13"/>
<polygon fill="#4a90d9" stroke="#4a90d9" stroke-width="2" points="649.01,-136.48 656.4,-137.15 651.04,-132.02 649.01,-136.48"/>
<text text-anchor="middle" x="609.18" y="-120.6" font-family="Times-Roman" font-size="8.00" fill="#4a90d9">about</text>
</g>
<!-- L4YAML.Scanner.ScannerState.WellFormed._proof_2&#45;&gt;L4YAML.Scanner.ScannerState.indents -->
<g id="edge2" class="edge">
<title>L4YAML.Scanner.ScannerState.WellFormed._proof_2&#45;&gt;L4YAML.Scanner.ScannerState.indents</title>
<path fill="none" stroke="#4a90d9" stroke-width="2" d="M518.38,-56.9C555.18,-65.53 598.05,-75.58 632.19,-83.58"/>
<polygon fill="#4a90d9" stroke="#4a90d9" stroke-width="2" points="631.96,-86.05 639.34,-85.26 633.08,-81.28 631.96,-86.05"/>
<text text-anchor="middle" x="609.18" y="-82.6" font-family="Times-Roman" font-size="8.00" fill="#4a90d9">about</text>
</g>
<!-- L4YAML.Scanner.ScannerState.WellFormed._proof_2&#45;&gt;L4YAML.Scanner.IndentEntry -->
<g id="edge1" class="edge">
<title>L4YAML.Scanner.ScannerState.WellFormed._proof_2&#45;&gt;L4YAML.Scanner.IndentEntry</title>
<path fill="none" stroke="#4a90d9" stroke-width="2" d="M578.82,-41.31C606.18,-41.95 632.74,-42.57 653.42,-43.06"/>
<polygon fill="#4a90d9" stroke="#4a90d9" stroke-width="2" points="653.42,-45.51 660.47,-43.22 653.53,-40.61 653.42,-45.51"/>
<text text-anchor="middle" x="609.18" y="-44.6" font-family="Times-Roman" font-size="8.00" fill="#4a90d9">about</text>
</g>
<!-- L4YAML.Scanner.ScannerState.WellFormed._proof_1 -->
<g id="node5" class="node">
<title>L4YAML.Scanner.ScannerState.WellFormed._proof_1</title>
<g id="a_node5"><a xlink:href="../../../api/L4YAML/Scanner/State.html#L4YAML.Scanner.ScannerState.WellFormed._proof_1" xlink:title="ScannerState.WellFormed._proof_1\n(Scanner.State)" target="_blank">
<ellipse fill="#d4edda" stroke="#28a745" cx="136.92" cy="-153" rx="120.83" ry="21.43"/>
<text text-anchor="middle" x="136.92" y="-156" font-family="Helvetica" font-size="10.00">ScannerState.WellFormed._proof_1</text>
<text text-anchor="middle" x="136.92" y="-145" font-family="Helvetica" font-size="10.00">(Scanner.State)</text>
</a>
</g>
</g>
<!-- L4YAML.Scanner.ScannerState.WellFormed._proof_1&#45;&gt;L4YAML.Scanner.ScannerState -->
<g id="edge8" class="edge">
<title>L4YAML.Scanner.ScannerState.WellFormed._proof_1&#45;&gt;L4YAML.Scanner.ScannerState</title>
<path fill="none" stroke="#6f42c1" stroke-width="2" stroke-dasharray="5,2" d="M222.66,-167.96C240.18,-170.48 258.56,-172.69 275.83,-174 429.1,-185.6 469.66,-196.71 621.68,-174 631.48,-172.54 641.79,-170.01 651.44,-167.18"/>
<polygon fill="#6f42c1" stroke="#6f42c1" stroke-width="2" points="652.14,-168.8 656.43,-165.68 651.13,-165.45 652.14,-168.8"/>
<text text-anchor="middle" x="436.76" y="-189.4" font-family="Times-Roman" font-size="7.00" fill="#6f42c1">about</text>
</g>
<!-- L4YAML.Scanner.ScannerState.WellFormed._proof_1&#45;&gt;L4YAML.Scanner.ScannerState.indents -->
<g id="edge7" class="edge">
<title>L4YAML.Scanner.ScannerState.WellFormed._proof_1&#45;&gt;L4YAML.Scanner.ScannerState.indents</title>
<path fill="none" stroke="#6f42c1" stroke-width="2" stroke-dasharray="5,2" d="M257.64,-154.23C378.44,-154.28 556.18,-150.76 621.68,-131 626.64,-129.5 627.07,-127.37 631.68,-125 636.14,-122.7 640.84,-120.42 645.58,-118.21"/>
<polygon fill="#6f42c1" stroke="#6f42c1" stroke-width="2" points="646.51,-119.71 650.32,-116.03 645.05,-116.53 646.51,-119.71"/>
<text text-anchor="middle" x="436.76" y="-156.4" font-family="Times-Roman" font-size="7.00" fill="#6f42c1">about</text>
</g>
<!-- L4YAML.Scanner.ScannerState.WellFormed._proof_1&#45;&gt;L4YAML.Scanner.IndentEntry -->
<g id="edge6" class="edge">
<title>L4YAML.Scanner.ScannerState.WellFormed._proof_1&#45;&gt;L4YAML.Scanner.IndentEntry</title>
<path fill="none" stroke="#6f42c1" stroke-width="2" stroke-dasharray="5,2" d="M218.5,-137.28C240.6,-133.27 264.59,-129.2 286.83,-126 419.49,-106.92 453.69,-110.59 586.68,-94 602.27,-92.05 608.74,-97.91 621.68,-89 629.22,-83.81 624.91,-77.15 631.68,-71 638.58,-64.74 647.15,-59.77 655.7,-55.89"/>
<polygon fill="#6f42c1" stroke="#6f42c1" stroke-width="2" points="656.54,-57.43 660.44,-53.84 655.15,-54.22 656.54,-57.43"/>
<text text-anchor="middle" x="436.76" y="-128.4" font-family="Times-Roman" font-size="7.00" fill="#6f42c1">about</text>
</g>
<!-- L4YAML.Scanner.ScannerState.WellFormed._proof_1&#45;&gt;L4YAML.Scanner.ScannerState.WellFormed._proof_2 -->
<g id="edge4" class="edge">
<title>L4YAML.Scanner.ScannerState.WellFormed._proof_1&#45;&gt;L4YAML.Scanner.ScannerState.WellFormed._proof_2</title>
<path fill="none" stroke="#28a745" d="M186.45,-133.52C215.52,-121.92 253.24,-106.97 286.83,-94 314.03,-83.5 344.13,-72.13 370.1,-62.41"/>
<polygon fill="#28a745" stroke="#28a745" points="371.26,-64.59 376.96,-59.84 369.54,-60 371.26,-64.59"/>
</g>
<!-- Decidable.byContradiction -->
<g id="node6" class="node">
<title>Decidable.byContradiction</title>
<g id="a_node6"><a xlink:href="../../../api/Init/Core.html#Decidable.byContradiction" xlink:title="Decidable.byContradiction" target="_blank">
<ellipse fill="#fdebd0" stroke="#e67e22" cx="136.92" cy="-38" rx="77.23" ry="18"/>
<text text-anchor="middle" x="136.92" y="-35.5" font-family="Helvetica" font-size="10.00">Decidable.byContradiction</text>
</a>
</g>
</g>
<!-- Decidable.byContradiction&#45;&gt;L4YAML.Scanner.ScannerState.WellFormed._proof_2 -->
<g id="edge5" class="edge">
<title>Decidable.byContradiction&#45;&gt;L4YAML.Scanner.ScannerState.WellFormed._proof_2</title>
<path fill="none" stroke="#e67e22" stroke-width="2" d="M214.23,-38C236.76,-38 262.22,-38 287.65,-38"/>
<polygon fill="#e67e22" stroke="#e67e22" stroke-width="2" points="287.82,-40.45 294.82,-38 287.82,-35.55 287.82,-40.45"/>
</g>
</g>
</svg>
