<?xml version="1.0" encoding="UTF-8" standalone="no"?>
<!DOCTYPE svg PUBLIC "-//W3C//DTD SVG 1.1//EN"
 "http://www.w3.org/Graphics/SVG/1.1/DTD/svg11.dtd">
<!-- Generated by graphviz version 2.44.0 (0)
 -->
<!-- Title: ScannerProgress.advance_offset_lt Pages: 1 -->
<svg width="675pt" height="310pt"
 viewBox="0.00 0.00 675.42 310.00" xmlns="http://www.w3.org/2000/svg" xmlns:xlink="http://www.w3.org/1999/xlink">
<g id="graph0" class="graph" transform="scale(1 1) rotate(0) translate(4 306)">
<title>ScannerProgress.advance_offset_lt</title>
<polygon fill="white" stroke="transparent" points="-4,4 -4,-306 671.42,-306 671.42,4 -4,4"/>
<text text-anchor="middle" x="333.71" y="-287.6" font-family="Helvetica Bold" font-size="13.00">ScannerProgress.advance_offset_lt</text>
<text text-anchor="middle" x="333.71" y="-273.6" font-family="Helvetica Bold" font-size="13.00">2.3 Scanner advance strictly increases the input offset</text>
<text text-anchor="middle" x="333.71" y="-259.6" font-family="Helvetica Bold" font-size="13.00">(L4YAML.Proofs.Scanner.ScannerProgress)</text>
<g id="clust1" class="cluster">
<title>cluster_functions</title>
<polygon fill="none" stroke="#4a90d9" stroke-dasharray="5,2" points="526.42,-8 526.42,-244 659.42,-244 659.42,-8 526.42,-8"/>
<text text-anchor="middle" x="592.92" y="-229.6" font-family="Helvetica Bold" font-size="13.00" fill="#4a90d9">Functions</text>
</g>
<g id="clust2" class="cluster">
<title>cluster_key</title>
<polygon fill="none" stroke="#d4a017" stroke-dasharray="5,2" points="181.57,-84 181.57,-166 481.42,-166 481.42,-84 181.57,-84"/>
<text text-anchor="middle" x="331.5" y="-151.6" font-family="Helvetica Bold" font-size="13.00" fill="#d4a017">Key Theorem</text>
</g>
<g id="clust4" class="cluster">
<title>cluster_stdlib</title>
<polygon fill="none" stroke="#e67e22" stroke-dasharray="5,2" points="8,-88 8,-162 160.57,-162 160.57,-88 8,-88"/>
<text text-anchor="middle" x="84.28" y="-147.6" font-family="Helvetica Bold" font-size="13.00" fill="#e67e22">Stdlib Lemmas</text>
</g>
<!-- L4YAML.Scanner.ScannerState.advance -->
<g id="node1" class="node">
<title>L4YAML.Scanner.ScannerState.advance</title>
<g id="a_node1"><a xlink:href="../../../api/L4YAML/Scanner/State.html#L4YAML.Scanner.ScannerState.advance" xlink:title="ScannerState.advance\n(def)" target="_blank">
<polygon fill="#dce9f7" stroke="#4a90d9" points="650.42,-214 535.42,-214 535.42,-178 650.42,-178 650.42,-214"/>
<text text-anchor="middle" x="592.92" y="-199" font-family="Helvetica" font-size="10.00">ScannerState.advance</text>
<text text-anchor="middle" x="592.92" y="-188" font-family="Helvetica" font-size="10.00">(def)</text>
</a>
</g>
</g>
<!-- L4YAML.Scanner.ScannerState -->
<g id="node2" class="node">
<title>L4YAML.Scanner.ScannerState</title>
<g id="a_node2"><a xlink:href="../../../api/L4YAML/Scanner/State.html#L4YAML.Scanner.ScannerState" xlink:title="ScannerState\n(inductive)" target="_blank">
<polygon fill="#dce9f7" stroke="#4a90d9" points="630.92,-160 554.92,-160 554.92,-124 630.92,-124 630.92,-160"/>
<text text-anchor="middle" x="592.92" y="-145" font-family="Helvetica" font-size="10.00">ScannerState</text>
<text text-anchor="middle" x="592.92" y="-134" font-family="Helvetica" font-size="10.00">(inductive)</text>
</a>
</g>
</g>
<!-- L4YAML.Scanner.ScannerState.offset -->
<g id="node3" class="node">
<title>L4YAML.Scanner.ScannerState.offset</title>
<g id="a_node3"><a xlink:href="../../../api/L4YAML/Scanner/State.html#L4YAML.Scanner.ScannerState.offset" xlink:title="ScannerState.offset\n(def)" target="_blank">
<polygon fill="#dce9f7" stroke="#4a90d9" points="644.42,-106 541.42,-106 541.42,-70 644.42,-70 644.42,-106"/>
<text text-anchor="middle" x="592.92" y="-91" font-family="Helvetica" font-size="10.00">ScannerState.offset</text>
<text text-anchor="middle" x="592.92" y="-80" font-family="Helvetica" font-size="10.00">(def)</text>
</a>
</g>
</g>
<!-- L4YAML.Scanner.ScannerState.inputEnd -->
<g id="node4" class="node">
<title>L4YAML.Scanner.ScannerState.inputEnd</title>
<g id="a_node4"><a xlink:href="../../../api/L4YAML/Scanner/State.html#L4YAML.Scanner.ScannerState.inputEnd" xlink:title="ScannerState.inputEnd\n(def)" target="_blank">
<polygon fill="#dce9f7" stroke="#4a90d9" points="651.42,-52 534.42,-52 534.42,-16 651.42,-16 651.42,-52"/>
<text text-anchor="middle" x="592.92" y="-37" font-family="Helvetica" font-size="10.00">ScannerState.inputEnd</text>
<text text-anchor="middle" x="592.92" y="-26" font-family="Helvetica" font-size="10.00">(def)</text>
</a>
</g>
</g>
<!-- L4YAML.Proofs.ScannerProgress.advance_offset_lt -->
<g id="node5" class="node">
<title>L4YAML.Proofs.ScannerProgress.advance_offset_lt</title>
<g id="a_node5"><a xlink:href="../../../api/L4YAML/Proofs/Scanner/ScannerProgress.html#L4YAML.Proofs.ScannerProgress.advance_offset_lt" xlink:title="ScannerProgress.advance_offset_lt" target="_blank">
<polygon fill="#fff3cd" stroke="#d4a017" points="469.35,-106.54 469.35,-121.46 388.6,-132 274.39,-132 193.64,-121.46 193.64,-106.54 274.39,-96 388.6,-96 469.35,-106.54"/>
<polygon fill="none" stroke="#d4a017" points="473.35,-103.03 473.35,-124.97 388.86,-136 274.13,-136 189.64,-124.97 189.64,-103.03 274.13,-92 388.86,-92 473.35,-103.03"/>
<text text-anchor="middle" x="331.5" y="-110.9" font-family="Helvetica" font-size="12.00">ScannerProgress.advance_offset_lt</text>
</a>
</g>
</g>
<!-- L4YAML.Proofs.ScannerProgress.advance_offset_lt&#45;&gt;L4YAML.Scanner.ScannerState.advance -->
<g id="edge1" class="edge">
<title>L4YAML.Proofs.ScannerProgress.advance_offset_lt&#45;&gt;L4YAML.Scanner.ScannerState.advance</title>
<path fill="none" stroke="#4a90d9" stroke-width="2" d="M398.29,-134.8C438.17,-147.4 488.79,-163.4 528.27,-175.88"/>
<polygon fill="#4a90d9" stroke="#4a90d9" stroke-width="2" points="527.59,-178.24 535,-178.01 529.07,-173.56 527.59,-178.24"/>
<text text-anchor="middle" x="503.92" y="-173.6" font-family="Times-Roman" font-size="8.00" fill="#4a90d9">about</text>
</g>
<!-- L4YAML.Proofs.ScannerProgress.advance_offset_lt&#45;&gt;L4YAML.Scanner.ScannerState -->
<g id="edge4" class="edge">
<title>L4YAML.Proofs.ScannerProgress.advance_offset_lt&#45;&gt;L4YAML.Scanner.ScannerState</title>
<path fill="none" stroke="#4a90d9" stroke-width="2" d="M455.75,-127.3C488.73,-130.86 522.27,-134.48 547.81,-137.24"/>
<polygon fill="#4a90d9" stroke="#4a90d9" stroke-width="2" points="547.57,-139.68 554.8,-137.99 548.1,-134.81 547.57,-139.68"/>
<text text-anchor="middle" x="503.92" y="-135.6" font-family="Times-Roman" font-size="8.00" fill="#4a90d9">about</text>
</g>
<!-- L4YAML.Proofs.ScannerProgress.advance_offset_lt&#45;&gt;L4YAML.Scanner.ScannerState.offset -->
<g id="edge2" class="edge">
<title>L4YAML.Proofs.ScannerProgress.advance_offset_lt&#45;&gt;L4YAML.Scanner.ScannerState.offset</title>
<path fill="none" stroke="#4a90d9" stroke-width="2" d="M459.93,-101.23C485.94,-98.62 512.08,-96 534.15,-93.79"/>
<polygon fill="#4a90d9" stroke="#4a90d9" stroke-width="2" points="534.45,-96.22 541.17,-93.09 533.96,-91.35 534.45,-96.22"/>
<text text-anchor="middle" x="503.92" y="-99.6" font-family="Times-Roman" font-size="8.00" fill="#4a90d9">about</text>
</g>
<!-- L4YAML.Proofs.ScannerProgress.advance_offset_lt&#45;&gt;L4YAML.Scanner.ScannerState.inputEnd -->
<g id="edge3" class="edge">
<title>L4YAML.Proofs.ScannerProgress.advance_offset_lt&#45;&gt;L4YAML.Scanner.ScannerState.inputEnd</title>
<path fill="none" stroke="#4a90d9" stroke-width="2" d="M399.64,-93.29C438.93,-81.18 488.29,-65.96 527.17,-53.97"/>
<polygon fill="#4a90d9" stroke="#4a90d9" stroke-width="2" points="528.33,-56.17 534.3,-51.77 526.89,-51.49 528.33,-56.17"/>
<text text-anchor="middle" x="503.92" y="-66.6" font-family="Times-Roman" font-size="8.00" fill="#4a90d9">about</text>
</g>
<!-- String.Pos.Raw.lt_next -->
<g id="node6" class="node">
<title>String.Pos.Raw.lt_next</title>
<g id="a_node6"><a xlink:href="../../../api/Init/Data/String/Basic.html#String.Pos.Raw.lt_next" xlink:title="String.Pos.Raw.lt_next" target="_blank">
<ellipse fill="#fdebd0" stroke="#e67e22" cx="84.28" cy="-114" rx="68.07" ry="18"/>
<text text-anchor="middle" x="84.28" y="-111.5" font-family="Helvetica" font-size="10.00">String.Pos.Raw.lt_next</text>
</a>
</g>
</g>
<!-- String.Pos.Raw.lt_next&#45;&gt;L4YAML.Proofs.ScannerProgress.advance_offset_lt -->
<g id="edge5" class="edge">
<title>String.Pos.Raw.lt_next&#45;&gt;L4YAML.Proofs.ScannerProgress.advance_offset_lt</title>
<path fill="none" stroke="#e67e22" stroke-width="2" d="M152.61,-114C162.06,-114 172.06,-114 182.31,-114"/>
<polygon fill="#e67e22" stroke="#e67e22" stroke-width="2" points="182.44,-116.45 189.44,-114 182.44,-111.55 182.44,-116.45"/>
</g>
</g>
</svg>
