<?xml version="1.0" encoding="UTF-8" standalone="no"?>
<!DOCTYPE svg PUBLIC "-//W3C//DTD SVG 1.1//EN"
 "http://www.w3.org/Graphics/SVG/1.1/DTD/svg11.dtd">
<!-- Generated by graphviz version 2.44.0 (0)
 -->
<!-- Title: chain_DocumentProduction.parse_strict_proof Pages: 1 -->
<svg width="870pt" height="324pt"
 viewBox="0.00 0.00 870.00 324.00" xmlns="http://www.w3.org/2000/svg" xmlns:xlink="http://www.w3.org/1999/xlink">
<g id="graph0" class="graph" transform="scale(1 1) rotate(0) translate(4 320)">
<title>chain_DocumentProduction.parse_strict_proof</title>
<polygon fill="white" stroke="transparent" points="-4,4 -4,-320 866,-320 866,4 -4,4"/>
<text text-anchor="middle" x="431" y="-301.6" font-family="Helvetica Bold" font-size="13.00">Functorial Chains: DocumentProduction.parse_strict_proof</text>
<text text-anchor="middle" x="431" y="-287.6" font-family="Helvetica Bold" font-size="13.00">7.1 Parser acceptance implies InYamlLanguage (🚧 sorry&#45;reachable via 7.2, 7.6)</text>
<g id="clust1" class="cluster">
<title>cluster_fns</title>
<polygon fill="none" stroke="#4a90d9" stroke-dasharray="5,2" points="518,-8 518,-163 854,-163 854,-8 518,-8"/>
<text text-anchor="middle" x="686" y="-148.6" font-family="Helvetica Bold" font-size="13.00" fill="#4a90d9">Functions (Call Chain)</text>
</g>
<g id="clust2" class="cluster">
<title>cluster_thms</title>
<polygon fill="none" stroke="#28a745" stroke-dasharray="5,2" points="8,-89 8,-272 510,-272 510,-89 8,-89"/>
<text text-anchor="middle" x="259" y="-257.6" font-family="Helvetica Bold" font-size="13.00" fill="#28a745">Theorems (Proof Chain)</text>
</g>
<!-- L4YAML.TokenParser.parseYaml -->
<g id="node1" class="node">
<title>L4YAML.TokenParser.parseYaml</title>
<g id="a_node1"><a xlink:href="../../../api/L4YAML/Parser/Composition.html#L4YAML.TokenParser.parseYaml" xlink:title="TokenParser.parseYaml" target="_blank">
<polygon fill="#dce9f7" stroke="#4a90d9" points="681.5,-133 560.5,-133 560.5,-97 681.5,-97 681.5,-133"/>
<text text-anchor="middle" x="621" y="-112.5" font-family="Helvetica" font-size="10.00">TokenParser.parseYaml</text>
</a>
</g>
</g>
<!-- L4YAML.TokenParser.parseYamlRaw -->
<g id="node2" class="node">
<title>L4YAML.TokenParser.parseYamlRaw</title>
<g id="a_node2"><a xlink:href="../../../api/L4YAML/Parser/Composition.html#L4YAML.TokenParser.parseYamlRaw" xlink:title="TokenParser.parseYamlRaw" target="_blank">
<polygon fill="#dce9f7" stroke="#4a90d9" points="744,-52 604,-52 604,-16 744,-16 744,-52"/>
<text text-anchor="middle" x="674" y="-31.5" font-family="Helvetica" font-size="10.00">TokenParser.parseYamlRaw</text>
</a>
</g>
</g>
<!-- L4YAML.TokenParser.parseYaml&#45;&gt;L4YAML.TokenParser.parseYamlRaw -->
<g id="edge5" class="edge">
<title>L4YAML.TokenParser.parseYaml&#45;&gt;L4YAML.TokenParser.parseYamlRaw</title>
<path fill="none" stroke="#4a90d9" stroke-width="2" d="M632.5,-96.86C640.14,-85.47 650.26,-70.39 658.59,-57.96"/>
<polygon fill="#4a90d9" stroke="#4a90d9" stroke-width="2" points="660.66,-59.29 662.52,-52.11 656.59,-56.56 660.66,-59.29"/>
<text text-anchor="middle" x="658.5" y="-72.6" font-family="Times-Roman" font-size="8.00">calls</text>
</g>
<!-- L4YAML.ScanError -->
<g id="node3" class="node">
<title>L4YAML.ScanError</title>
<g id="a_node3"><a xlink:href="../../../api/L4YAML/Token/Token.html#L4YAML.ScanError" xlink:title="ScanError" target="_blank">
<polygon fill="#dce9f7" stroke="#4a90d9" points="586,-52 526,-52 526,-16 586,-16 586,-52"/>
<text text-anchor="middle" x="556" y="-31.5" font-family="Helvetica" font-size="10.00">ScanError</text>
</a>
</g>
</g>
<!-- L4YAML.TokenParser.parseYaml&#45;&gt;L4YAML.ScanError -->
<g id="edge2" class="edge">
<title>L4YAML.TokenParser.parseYaml&#45;&gt;L4YAML.ScanError</title>
<path fill="none" stroke="#4a90d9" stroke-width="2" d="M606.9,-96.86C597.44,-85.37 584.89,-70.11 574.62,-57.63"/>
<polygon fill="#4a90d9" stroke="#4a90d9" stroke-width="2" points="576.42,-55.96 570.08,-52.11 572.63,-59.07 576.42,-55.96"/>
<text text-anchor="middle" x="599.5" y="-72.6" font-family="Times-Roman" font-size="8.00">calls</text>
</g>
<!-- L4YAML.YamlDocument -->
<g id="node4" class="node">
<title>L4YAML.YamlDocument</title>
<g id="a_node4"><a xlink:href="../../../api/L4YAML/Spec/Types.html#L4YAML.YamlDocument" xlink:title="YamlDocument" target="_blank">
<polygon fill="#dce9f7" stroke="#4a90d9" points="845.5,-52 762.5,-52 762.5,-16 845.5,-16 845.5,-52"/>
<text text-anchor="middle" x="804" y="-31.5" font-family="Helvetica" font-size="10.00">YamlDocument</text>
</a>
</g>
</g>
<!-- L4YAML.TokenParser.parseYaml&#45;&gt;L4YAML.YamlDocument -->
<g id="edge9" class="edge">
<title>L4YAML.TokenParser.parseYaml&#45;&gt;L4YAML.YamlDocument</title>
<path fill="none" stroke="#4a90d9" stroke-width="2" d="M660.71,-96.86C689.25,-84.54 727.8,-67.89 757.73,-54.97"/>
<polygon fill="#4a90d9" stroke="#4a90d9" stroke-width="2" points="758.91,-57.13 764.37,-52.11 756.97,-52.63 758.91,-57.13"/>
<text text-anchor="middle" x="726.5" y="-72.6" font-family="Times-Roman" font-size="8.00">calls</text>
</g>
<!-- L4YAML.Proofs.DocumentProduction.parse_strict_proof -->
<g id="node5" class="node">
<title>L4YAML.Proofs.DocumentProduction.parse_strict_proof</title>
<g id="a_node5"><a xlink:href="../../../api/L4YAML/Proofs/Production/DocumentProduction.html#L4YAML.Proofs.DocumentProduction.parse_strict_proof" xlink:title="DocumentProduction.parse_strict_proof" target="_blank">
<polygon fill="#fff3cd" stroke="#d4a017" points="498.12,-212.54 498.12,-227.46 427.17,-238 326.83,-238 255.88,-227.46 255.88,-212.54 326.83,-202 427.17,-202 498.12,-212.54"/>
<polygon fill="none" stroke="#d4a017" points="502.12,-209.09 502.12,-230.91 427.47,-242 326.53,-242 251.88,-230.91 251.88,-209.09 326.53,-198 427.47,-198 502.12,-209.09"/>
<text text-anchor="middle" x="377" y="-217.5" font-family="Helvetica" font-size="10.00">DocumentProduction.parse_strict_proof</text>
</a>
</g>
</g>
<!-- L4YAML.Proofs.DocumentProduction.parse_strict_proof&#45;&gt;L4YAML.TokenParser.parseYaml -->
<g id="edge1" class="edge">
<title>L4YAML.Proofs.DocumentProduction.parse_strict_proof&#45;&gt;L4YAML.TokenParser.parseYaml</title>
<path fill="none" stroke="#6f42c1" stroke-width="2" stroke-dasharray="5,2" d="M428.85,-198.17C454.53,-187.77 485.97,-174.88 514,-163 534.3,-154.4 556.64,-144.63 575.64,-136.24"/>
<polygon fill="#6f42c1" stroke="#6f42c1" stroke-width="2" points="577.06,-138.28 582.47,-133.21 575.08,-133.8 577.06,-138.28"/>
<text text-anchor="middle" x="503.5" y="-173.6" font-family="Times-Roman" font-size="8.00" fill="#6f42c1">about</text>
</g>
<!-- L4YAML.Proofs.DocumentProduction.scan_strict_proof -->
<g id="node6" class="node">
<title>L4YAML.Proofs.DocumentProduction.scan_strict_proof</title>
<g id="a_node6"><a xlink:href="../../../api/L4YAML/Proofs/Production/DocumentProduction.html#L4YAML.Proofs.DocumentProduction.scan_strict_proof" xlink:title="DocumentProduction.scan_strict_proof" target="_blank">
<ellipse fill="#d4edda" stroke="#28a745" cx="125" cy="-115" rx="109.48" ry="18"/>
<text text-anchor="middle" x="125" y="-112.5" font-family="Helvetica" font-size="10.00">DocumentProduction.scan_strict_proof</text>
</a>
</g>
</g>
<!-- L4YAML.Proofs.DocumentProduction.parse_strict_proof&#45;&gt;L4YAML.Proofs.DocumentProduction.scan_strict_proof -->
<g id="edge3" class="edge">
<title>L4YAML.Proofs.DocumentProduction.parse_strict_proof&#45;&gt;L4YAML.Proofs.DocumentProduction.scan_strict_proof</title>
<path fill="none" stroke="#28a745" stroke-width="2" d="M325.7,-198.03C280.12,-179.4 214.12,-152.43 170.42,-134.56"/>
<polygon fill="#28a745" stroke="#28a745" stroke-width="2" points="171.28,-132.27 163.87,-131.89 169.42,-136.8 171.28,-132.27"/>
<text text-anchor="middle" x="290" y="-173.6" font-family="Times-Roman" font-size="8.00">uses</text>
</g>
<!-- L4YAML.Proofs.Composition.parseYamlRaw_ok_decompose -->
<g id="node7" class="node">
<title>L4YAML.Proofs.Composition.parseYamlRaw_ok_decompose</title>
<g id="a_node7"><a xlink:href="../../../api/L4YAML/Proofs/Composition.html#L4YAML.Proofs.Composition.parseYamlRaw_ok_decompose" xlink:title="Composition.parseYamlRaw_ok_decompose" target="_blank">
<ellipse fill="#d4edda" stroke="#28a745" cx="377" cy="-115" rx="124.59" ry="18"/>
<text text-anchor="middle" x="377" y="-112.5" font-family="Helvetica" font-size="10.00">Composition.parseYamlRaw_ok_decompose</text>
</a>
</g>
</g>
<!-- L4YAML.Proofs.DocumentProduction.parse_strict_proof&#45;&gt;L4YAML.Proofs.Composition.parseYamlRaw_ok_decompose -->
<g id="edge6" class="edge">
<title>L4YAML.Proofs.DocumentProduction.parse_strict_proof&#45;&gt;L4YAML.Proofs.Composition.parseYamlRaw_ok_decompose</title>
<path fill="none" stroke="#28a745" stroke-width="2" d="M377,-197.66C377,-180.95 377,-157.71 377,-140.29"/>
<polygon fill="#28a745" stroke="#28a745" stroke-width="2" points="379.45,-140.22 377,-133.22 374.55,-140.22 379.45,-140.22"/>
<text text-anchor="middle" x="387" y="-173.6" font-family="Times-Roman" font-size="8.00">uses</text>
</g>
<!-- L4YAML.Proofs.DocumentProduction.scan_strict_proof&#45;&gt;L4YAML.ScanError -->
<g id="edge4" class="edge">
<title>L4YAML.Proofs.DocumentProduction.scan_strict_proof&#45;&gt;L4YAML.ScanError</title>
<path fill="none" stroke="#6f42c1" stroke-width="2" stroke-dasharray="5,2" d="M187.99,-100.19C205.75,-96.43 225.11,-92.44 243,-89 342.19,-69.94 459.67,-50.51 518.5,-41"/>
<polygon fill="#6f42c1" stroke="#6f42c1" stroke-width="2" points="519.2,-43.37 525.72,-39.83 518.41,-38.53 519.2,-43.37"/>
<text text-anchor="middle" x="358.5" y="-72.6" font-family="Times-Roman" font-size="8.00" fill="#6f42c1">about</text>
</g>
<!-- L4YAML.Proofs.Composition.parseYamlRaw_ok_decompose&#45;&gt;L4YAML.TokenParser.parseYamlRaw -->
<g id="edge7" class="edge">
<title>L4YAML.Proofs.Composition.parseYamlRaw_ok_decompose&#45;&gt;L4YAML.TokenParser.parseYamlRaw</title>
<path fill="none" stroke="#6f42c1" stroke-width="2" stroke-dasharray="5,2" d="M401.49,-97.16C416.55,-87.64 436.62,-76.39 456,-70 515.16,-50.49 533.61,-62.56 595,-52 595.64,-51.89 596.27,-51.78 596.91,-51.67"/>
<polygon fill="#6f42c1" stroke="#6f42c1" stroke-width="2" points="597.4,-54.07 603.85,-50.41 596.52,-49.25 597.4,-54.07"/>
<text text-anchor="middle" x="468.5" y="-72.6" font-family="Times-Roman" font-size="8.00" fill="#6f42c1">about</text>
</g>
<!-- L4YAML.Proofs.Composition.parseYamlRaw_ok_decompose&#45;&gt;L4YAML.ScanError -->
<g id="edge8" class="edge">
<title>L4YAML.Proofs.Composition.parseYamlRaw_ok_decompose&#45;&gt;L4YAML.ScanError</title>
<path fill="none" stroke="#6f42c1" stroke-width="2" stroke-dasharray="5,2" d="M381.7,-96.61C385.06,-87.39 390.52,-76.63 399,-70 433.41,-43.11 484.36,-36.01 518.81,-34.56"/>
<polygon fill="#6f42c1" stroke="#6f42c1" stroke-width="2" points="518.98,-37.01 525.9,-34.33 518.82,-32.11 518.98,-37.01"/>
<text text-anchor="middle" x="411.5" y="-72.6" font-family="Times-Roman" font-size="8.00" fill="#6f42c1">about</text>
</g>
<!-- L4YAML.Proofs.Composition.parseYamlRaw_ok_decompose&#45;&gt;L4YAML.YamlDocument -->
<g id="edge10" class="edge">
<title>L4YAML.Proofs.Composition.parseYamlRaw_ok_decompose&#45;&gt;L4YAML.YamlDocument</title>
<path fill="none" stroke="#6f42c1" stroke-width="2" stroke-dasharray="5,2" d="M430.52,-98.71C466.1,-89.09 514.01,-77.19 557,-70 643.28,-55.57 667.38,-69.95 753,-52 753.87,-51.82 754.75,-51.62 755.64,-51.42"/>
<polygon fill="#6f42c1" stroke="#6f42c1" stroke-width="2" points="756.27,-53.79 762.47,-49.71 755.08,-49.04 756.27,-53.79"/>
<text text-anchor="middle" x="569.5" y="-72.6" font-family="Times-Roman" font-size="8.00" fill="#6f42c1">about</text>
</g>
</g>
</svg>
