<?xml version="1.0" encoding="UTF-8" standalone="no"?>
<!DOCTYPE svg PUBLIC "-//W3C//DTD SVG 1.1//EN"
 "http://www.w3.org/Graphics/SVG/1.1/DTD/svg11.dtd">
<!-- Generated by graphviz version 2.44.0 (0)
 -->
<!-- Title: chain_TokenParser.parseImplicitBlockSequence.eq_def Pages: 1 -->
<svg width="2478pt" height="405pt"
 viewBox="0.00 0.00 2478.00 405.00" xmlns="http://www.w3.org/2000/svg" xmlns:xlink="http://www.w3.org/1999/xlink">
<g id="graph0" class="graph" transform="scale(1 1) rotate(0) translate(4 401)">
<title>chain_TokenParser.parseImplicitBlockSequence.eq_def</title>
<polygon fill="white" stroke="transparent" points="-4,4 -4,-401 2474,-401 2474,4 -4,4"/>
<text text-anchor="middle" x="1235" y="-382.6" font-family="Helvetica Bold" font-size="13.00">Functorial Chains: TokenParser.parseImplicitBlockSequence.eq_def</text>
<text text-anchor="middle" x="1235" y="-368.6" font-family="Helvetica Bold" font-size="13.00">(heuristic: used by 8 proofs)</text>
<g id="clust1" class="cluster">
<title>cluster_fns</title>
<polygon fill="none" stroke="#4a90d9" stroke-dasharray="5,2" points="912,-8 912,-244 2462,-244 2462,-8 912,-8"/>
<text text-anchor="middle" x="1687" y="-229.6" font-family="Helvetica Bold" font-size="13.00" fill="#4a90d9">Functions (Call Chain)</text>
</g>
<g id="clust2" class="cluster">
<title>cluster_thms</title>
<polygon fill="none" stroke="#28a745" stroke-dasharray="5,2" points="8,-89 8,-353 904,-353 904,-89 8,-89"/>
<text text-anchor="middle" x="456" y="-338.6" font-family="Helvetica Bold" font-size="13.00" fill="#28a745">Theorems (Proof Chain)</text>
</g>
<!-- L4YAML.TokenParser.parseImplicitBlockSequenceLoop -->
<g id="node1" class="node">
<title>L4YAML.TokenParser.parseImplicitBlockSequenceLoop</title>
<g id="a_node1"><a xlink:href="../../../api/L4YAML/Parser/TokenParser.html#L4YAML.TokenParser.parseImplicitBlockSequenceLoop" xlink:title="TokenParser.parseImplicitBlockSequenceLoop" target="_blank">
<polygon fill="#dce9f7" stroke="#4a90d9" points="1362,-214 1142,-214 1142,-178 1362,-178 1362,-214"/>
<text text-anchor="middle" x="1252" y="-193.5" font-family="Helvetica" font-size="10.00">TokenParser.parseImplicitBlockSequenceLoop</text>
</a>
</g>
</g>
<!-- L4YAML.TokenParser.parseNodeContent._mutual -->
<g id="node14" class="node">
<title>L4YAML.TokenParser.parseNodeContent._mutual</title>
<g id="a_node14"><a xlink:href="../../../api/L4YAML/Parser/TokenParser.html#L4YAML.TokenParser.parseNodeContent._mutual" xlink:title="TokenParser.parseNodeContent._mutual" target="_blank">
<polygon fill="#dce9f7" stroke="#4a90d9" points="1638,-133 1444,-133 1444,-97 1638,-97 1638,-133"/>
<text text-anchor="middle" x="1541" y="-112.5" font-family="Helvetica" font-size="10.00">TokenParser.parseNodeContent._mutual</text>
</a>
</g>
</g>
<!-- L4YAML.TokenParser.parseImplicitBlockSequenceLoop&#45;&gt;L4YAML.TokenParser.parseNodeContent._mutual -->
<g id="edge9" class="edge">
<title>L4YAML.TokenParser.parseImplicitBlockSequenceLoop&#45;&gt;L4YAML.TokenParser.parseNodeContent._mutual</title>
<path fill="none" stroke="#4a90d9" stroke-width="2" d="M1314.35,-177.96C1360.69,-165.29 1423.91,-148.01 1471.81,-134.91"/>
<polygon fill="#4a90d9" stroke="#4a90d9" stroke-width="2" points="1472.65,-137.22 1478.76,-133.01 1471.36,-132.5 1472.65,-137.22"/>
<text text-anchor="middle" x="1414.5" y="-153.6" font-family="Times-Roman" font-size="8.00">calls</text>
</g>
<!-- L4YAML.YamlPos.line -->
<g id="node2" class="node">
<title>L4YAML.YamlPos.line</title>
<g id="a_node2"><a xlink:href="../../../api/L4YAML/Spec/Types.html#L4YAML.YamlPos.line" xlink:title="YamlPos.line" target="_blank">
<polygon fill="#dce9f7" stroke="#4a90d9" points="994,-133 920,-133 920,-97 994,-97 994,-133"/>
<text text-anchor="middle" x="957" y="-112.5" font-family="Helvetica" font-size="10.00">YamlPos.line</text>
</a>
</g>
</g>
<!-- L4YAML.YamlPos -->
<g id="node13" class="node">
<title>L4YAML.YamlPos</title>
<g id="a_node13"><a xlink:href="../../../api/L4YAML/Spec/Types.html#L4YAML.YamlPos" xlink:title="YamlPos" target="_blank">
<polygon fill="#dce9f7" stroke="#4a90d9" points="976,-52 920,-52 920,-16 976,-16 976,-52"/>
<text text-anchor="middle" x="948" y="-31.5" font-family="Helvetica" font-size="10.00">YamlPos</text>
</a>
</g>
</g>
<!-- L4YAML.YamlPos.line&#45;&gt;L4YAML.YamlPos -->
<g id="edge5" class="edge">
<title>L4YAML.YamlPos.line&#45;&gt;L4YAML.YamlPos</title>
<path fill="none" stroke="#4a90d9" stroke-width="2" d="M955.05,-96.86C953.8,-85.88 952.16,-71.48 950.77,-59.33"/>
<polygon fill="#4a90d9" stroke="#4a90d9" stroke-width="2" points="953.18,-58.79 949.95,-52.11 948.31,-59.34 953.18,-58.79"/>
<text text-anchor="middle" x="961.5" y="-72.6" font-family="Times-Roman" font-size="8.00">calls</text>
</g>
<!-- L4YAML.TokenParser.ParseState -->
<g id="node3" class="node">
<title>L4YAML.TokenParser.ParseState</title>
<g id="a_node3"><a xlink:href="../../../api/L4YAML/Parser/State.html#L4YAML.TokenParser.ParseState" xlink:title="TokenParser.ParseState" target="_blank">
<polygon fill="#dce9f7" stroke="#4a90d9" points="1837,-52 1713,-52 1713,-16 1837,-16 1837,-52"/>
<text text-anchor="middle" x="1775" y="-31.5" font-family="Helvetica" font-size="10.00">TokenParser.ParseState</text>
</a>
</g>
</g>
<!-- L4YAML.TokenParser.ParseState.trackPositions -->
<g id="node4" class="node">
<title>L4YAML.TokenParser.ParseState.trackPositions</title>
<g id="a_node4"><a xlink:href="../../../api/L4YAML/Parser/State.html#L4YAML.TokenParser.ParseState.trackPositions" xlink:title="TokenParser.ParseState.trackPositions" target="_blank">
<polygon fill="#dce9f7" stroke="#4a90d9" points="1356.5,-52 1167.5,-52 1167.5,-16 1356.5,-16 1356.5,-52"/>
<text text-anchor="middle" x="1262" y="-31.5" font-family="Helvetica" font-size="10.00">TokenParser.ParseState.trackPositions</text>
</a>
</g>
</g>
<!-- L4YAML.TokenParser.ParseState.anchors -->
<g id="node5" class="node">
<title>L4YAML.TokenParser.ParseState.anchors</title>
<g id="a_node5"><a xlink:href="../../../api/L4YAML/Parser/State.html#L4YAML.TokenParser.ParseState.anchors" xlink:title="TokenParser.ParseState.anchors" target="_blank">
<polygon fill="#dce9f7" stroke="#4a90d9" points="1537,-52 1375,-52 1375,-16 1537,-16 1537,-52"/>
<text text-anchor="middle" x="1456" y="-31.5" font-family="Helvetica" font-size="10.00">TokenParser.ParseState.anchors</text>
</a>
</g>
</g>
<!-- L4YAML.TokenParser.ParseState.mk -->
<g id="node6" class="node">
<title>L4YAML.TokenParser.ParseState.mk</title>
<g id="a_node6"><a xlink:href="../../../api/L4YAML/Parser/State.html#L4YAML.TokenParser.ParseState.mk" xlink:title="TokenParser.ParseState.mk" target="_blank">
<polygon fill="#dce9f7" stroke="#4a90d9" points="1695,-52 1555,-52 1555,-16 1695,-16 1695,-52"/>
<text text-anchor="middle" x="1625" y="-31.5" font-family="Helvetica" font-size="10.00">TokenParser.ParseState.mk</text>
</a>
</g>
</g>
<!-- L4YAML.TokenParser.ParseState.currentLine -->
<g id="node7" class="node">
<title>L4YAML.TokenParser.ParseState.currentLine</title>
<g id="a_node7"><a xlink:href="../../../api/L4YAML/Parser/State.html#L4YAML.TokenParser.ParseState.currentLine" xlink:title="TokenParser.ParseState.currentLine" target="_blank">
<polygon fill="#dce9f7" stroke="#4a90d9" points="1095.5,-214 920.5,-214 920.5,-178 1095.5,-178 1095.5,-214"/>
<text text-anchor="middle" x="1008" y="-193.5" font-family="Helvetica" font-size="10.00">TokenParser.ParseState.currentLine</text>
</a>
</g>
</g>
<!-- L4YAML.TokenParser.ParseState.currentLine&#45;&gt;L4YAML.YamlPos.line -->
<g id="edge2" class="edge">
<title>L4YAML.TokenParser.ParseState.currentLine&#45;&gt;L4YAML.YamlPos.line</title>
<path fill="none" stroke="#4a90d9" stroke-width="2" d="M996.93,-177.86C989.65,-166.57 980.02,-151.66 972.04,-139.3"/>
<polygon fill="#4a90d9" stroke="#4a90d9" stroke-width="2" points="973.9,-137.66 968.04,-133.11 969.78,-140.32 973.9,-137.66"/>
<text text-anchor="middle" x="993.5" y="-153.6" font-family="Times-Roman" font-size="8.00">calls</text>
</g>
<!-- L4YAML.TokenParser.ParseState.tagHandles -->
<g id="node8" class="node">
<title>L4YAML.TokenParser.ParseState.tagHandles</title>
<g id="a_node8"><a xlink:href="../../../api/L4YAML/Parser/State.html#L4YAML.TokenParser.ParseState.tagHandles" xlink:title="TokenParser.ParseState.tagHandles" target="_blank">
<polygon fill="#dce9f7" stroke="#4a90d9" points="2111,-52 1935,-52 1935,-16 2111,-16 2111,-52"/>
<text text-anchor="middle" x="2023" y="-31.5" font-family="Helvetica" font-size="10.00">TokenParser.ParseState.tagHandles</text>
</a>
</g>
</g>
<!-- L4YAML.TokenParser.parseImplicitBlockSequence -->
<g id="node9" class="node">
<title>L4YAML.TokenParser.parseImplicitBlockSequence</title>
<g id="a_node9"><a xlink:href="../../../api/L4YAML/Parser/TokenParser.html#L4YAML.TokenParser.parseImplicitBlockSequence" xlink:title="TokenParser.parseImplicitBlockSequence" target="_blank">
<polygon fill="#dce9f7" stroke="#4a90d9" points="1602.5,-214 1403.5,-214 1403.5,-178 1602.5,-178 1602.5,-214"/>
<text text-anchor="middle" x="1503" y="-193.5" font-family="Helvetica" font-size="10.00">TokenParser.parseImplicitBlockSequence</text>
</a>
</g>
</g>
<!-- L4YAML.TokenParser.parseImplicitBlockSequence&#45;&gt;L4YAML.TokenParser.parseNodeContent._mutual -->
<g id="edge17" class="edge">
<title>L4YAML.TokenParser.parseImplicitBlockSequence&#45;&gt;L4YAML.TokenParser.parseNodeContent._mutual</title>
<path fill="none" stroke="#4a90d9" stroke-width="2" d="M1511.25,-177.86C1516.62,-166.68 1523.72,-151.93 1529.63,-139.64"/>
<polygon fill="#4a90d9" stroke="#4a90d9" stroke-width="2" points="1531.94,-140.48 1532.77,-133.11 1527.53,-138.35 1531.94,-140.48"/>
<text text-anchor="middle" x="1532.5" y="-153.6" font-family="Times-Roman" font-size="8.00">calls</text>
</g>
<!-- L4YAML.TokenParser.ParseState.advance -->
<g id="node10" class="node">
<title>L4YAML.TokenParser.ParseState.advance</title>
<g id="a_node10"><a xlink:href="../../../api/L4YAML/Parser/State.html#L4YAML.TokenParser.ParseState.advance" xlink:title="TokenParser.ParseState.advance" target="_blank">
<polygon fill="#dce9f7" stroke="#4a90d9" points="2292.5,-52 2129.5,-52 2129.5,-16 2292.5,-16 2292.5,-52"/>
<text text-anchor="middle" x="2211" y="-31.5" font-family="Helvetica" font-size="10.00">TokenParser.ParseState.advance</text>
</a>
</g>
</g>
<!-- L4YAML.YamlValue -->
<g id="node11" class="node">
<title>L4YAML.YamlValue</title>
<g id="a_node11"><a xlink:href="../../../api/L4YAML/Spec/Types.html#L4YAML.YamlValue" xlink:title="YamlValue" target="_blank">
<polygon fill="#dce9f7" stroke="#4a90d9" points="1917,-52 1855,-52 1855,-16 1917,-16 1917,-52"/>
<text text-anchor="middle" x="1886" y="-31.5" font-family="Helvetica" font-size="10.00">YamlValue</text>
</a>
</g>
</g>
<!-- L4YAML.TokenParser.NodeProperties -->
<g id="node12" class="node">
<title>L4YAML.TokenParser.NodeProperties</title>
<g id="a_node12"><a xlink:href="../../../api/L4YAML/Parser/State.html#L4YAML.TokenParser.NodeProperties" xlink:title="TokenParser.NodeProperties" target="_blank">
<polygon fill="#dce9f7" stroke="#4a90d9" points="2453.5,-52 2310.5,-52 2310.5,-16 2453.5,-16 2453.5,-52"/>
<text text-anchor="middle" x="2382" y="-31.5" font-family="Helvetica" font-size="10.00">TokenParser.NodeProperties</text>
</a>
</g>
</g>
<!-- L4YAML.TokenParser.parseNodeContent._mutual&#45;&gt;L4YAML.TokenParser.ParseState -->
<g id="edge21" class="edge">
<title>L4YAML.TokenParser.parseNodeContent._mutual&#45;&gt;L4YAML.TokenParser.ParseState</title>
<path fill="none" stroke="#4a90d9" stroke-width="2" d="M1591.49,-96.96C1628.55,-84.44 1678.94,-67.43 1717.54,-54.4"/>
<polygon fill="#4a90d9" stroke="#4a90d9" stroke-width="2" points="1718.76,-56.57 1724.6,-52.01 1717.19,-51.93 1718.76,-56.57"/>
<text text-anchor="middle" x="1674.5" y="-72.6" font-family="Times-Roman" font-size="8.00">calls</text>
</g>
<!-- L4YAML.TokenParser.parseNodeContent._mutual&#45;&gt;L4YAML.TokenParser.ParseState.trackPositions -->
<g id="edge27" class="edge">
<title>L4YAML.TokenParser.parseNodeContent._mutual&#45;&gt;L4YAML.TokenParser.ParseState.trackPositions</title>
<path fill="none" stroke="#4a90d9" stroke-width="2" d="M1480.8,-96.96C1436.16,-84.31 1375.29,-67.08 1329.08,-53.99"/>
<polygon fill="#4a90d9" stroke="#4a90d9" stroke-width="2" points="1329.49,-51.56 1322.09,-52.01 1328.16,-56.28 1329.49,-51.56"/>
<text text-anchor="middle" x="1418.5" y="-72.6" font-family="Times-Roman" font-size="8.00">calls</text>
</g>
<!-- L4YAML.TokenParser.parseNodeContent._mutual&#45;&gt;L4YAML.TokenParser.ParseState.anchors -->
<g id="edge29" class="edge">
<title>L4YAML.TokenParser.parseNodeContent._mutual&#45;&gt;L4YAML.TokenParser.ParseState.anchors</title>
<path fill="none" stroke="#4a90d9" stroke-width="2" d="M1522.56,-96.86C1509.97,-85.16 1493.19,-69.56 1479.62,-56.95"/>
<polygon fill="#4a90d9" stroke="#4a90d9" stroke-width="2" points="1481.2,-55.08 1474.41,-52.11 1477.87,-58.67 1481.2,-55.08"/>
<text text-anchor="middle" x="1510.5" y="-72.6" font-family="Times-Roman" font-size="8.00">calls</text>
</g>
<!-- L4YAML.TokenParser.parseNodeContent._mutual&#45;&gt;L4YAML.TokenParser.ParseState.mk -->
<g id="edge31" class="edge">
<title>L4YAML.TokenParser.parseNodeContent._mutual&#45;&gt;L4YAML.TokenParser.ParseState.mk</title>
<path fill="none" stroke="#4a90d9" stroke-width="2" d="M1559.23,-96.86C1571.67,-85.16 1588.25,-69.56 1601.66,-56.95"/>
<polygon fill="#4a90d9" stroke="#4a90d9" stroke-width="2" points="1603.39,-58.69 1606.81,-52.11 1600.03,-55.12 1603.39,-58.69"/>
<text text-anchor="middle" x="1594.5" y="-72.6" font-family="Times-Roman" font-size="8.00">calls</text>
</g>
<!-- L4YAML.TokenParser.parseNodeContent._mutual&#45;&gt;L4YAML.TokenParser.ParseState.tagHandles -->
<g id="edge18" class="edge">
<title>L4YAML.TokenParser.parseNodeContent._mutual&#45;&gt;L4YAML.TokenParser.ParseState.tagHandles</title>
<path fill="none" stroke="#4a90d9" stroke-width="2" d="M1638.27,-102.52C1687.72,-96.31 1748.68,-88.05 1803,-79 1847.49,-71.59 1896.75,-61.88 1937.35,-53.47"/>
<polygon fill="#4a90d9" stroke="#4a90d9" stroke-width="2" points="1937.96,-55.84 1944.31,-52.02 1936.96,-51.05 1937.96,-55.84"/>
<text text-anchor="middle" x="1860.5" y="-72.6" font-family="Times-Roman" font-size="8.00">calls</text>
</g>
<!-- L4YAML.TokenParser.parseNodeContent._mutual&#45;&gt;L4YAML.TokenParser.ParseState.advance -->
<g id="edge14" class="edge">
<title>L4YAML.TokenParser.parseNodeContent._mutual&#45;&gt;L4YAML.TokenParser.ParseState.advance</title>
<path fill="none" stroke="#4a90d9" stroke-width="2" d="M1638.11,-106.01C1753.38,-95.97 1951.24,-76.99 2120,-52 2120.76,-51.89 2121.51,-51.77 2122.28,-51.66"/>
<polygon fill="#4a90d9" stroke="#4a90d9" stroke-width="2" points="2122.66,-54.08 2129.2,-50.58 2121.9,-49.24 2122.66,-54.08"/>
<text text-anchor="middle" x="1986.5" y="-72.6" font-family="Times-Roman" font-size="8.00">calls</text>
</g>
<!-- L4YAML.TokenParser.parseNodeContent._mutual&#45;&gt;L4YAML.YamlValue -->
<g id="edge25" class="edge">
<title>L4YAML.TokenParser.parseNodeContent._mutual&#45;&gt;L4YAML.YamlValue</title>
<path fill="none" stroke="#4a90d9" stroke-width="2" d="M1638.07,-99.41C1698.63,-89.04 1777.76,-73.2 1846,-52 1846.72,-51.78 1847.45,-51.54 1848.17,-51.3"/>
<polygon fill="#4a90d9" stroke="#4a90d9" stroke-width="2" points="1849,-53.61 1854.78,-48.97 1847.36,-48.99 1849,-53.61"/>
<text text-anchor="middle" x="1789.5" y="-72.6" font-family="Times-Roman" font-size="8.00">calls</text>
</g>
<!-- L4YAML.TokenParser.parseNodeContent._mutual&#45;&gt;L4YAML.TokenParser.NodeProperties -->
<g id="edge11" class="edge">
<title>L4YAML.TokenParser.parseNodeContent._mutual&#45;&gt;L4YAML.TokenParser.NodeProperties</title>
<path fill="none" stroke="#4a90d9" stroke-width="2" d="M1638.19,-110.31C1783.34,-103.86 2065.07,-87.63 2302,-52 2302.33,-51.95 2302.67,-51.9 2303,-51.85"/>
<polygon fill="#4a90d9" stroke="#4a90d9" stroke-width="2" points="2303.6,-54.23 2310.12,-50.7 2302.82,-49.4 2303.6,-54.23"/>
<text text-anchor="middle" x="2166.5" y="-72.6" font-family="Times-Roman" font-size="8.00">calls</text>
</g>
<!-- L4YAML.TokenParser.ParseState.tokens -->
<g id="node15" class="node">
<title>L4YAML.TokenParser.ParseState.tokens</title>
<g id="a_node15"><a xlink:href="../../../api/L4YAML/Parser/State.html#L4YAML.TokenParser.ParseState.tokens" xlink:title="TokenParser.ParseState.tokens" target="_blank">
<polygon fill="#dce9f7" stroke="#4a90d9" points="1149.5,-52 994.5,-52 994.5,-16 1149.5,-16 1149.5,-52"/>
<text text-anchor="middle" x="1072" y="-31.5" font-family="Helvetica" font-size="10.00">TokenParser.ParseState.tokens</text>
</a>
</g>
</g>
<!-- L4YAML.TokenParser.parseNodeContent._mutual&#45;&gt;L4YAML.TokenParser.ParseState.tokens -->
<g id="edge23" class="edge">
<title>L4YAML.TokenParser.parseNodeContent._mutual&#45;&gt;L4YAML.TokenParser.ParseState.tokens</title>
<path fill="none" stroke="#4a90d9" stroke-width="2" d="M1443.91,-99.12C1366.61,-87.06 1255.73,-69.3 1159,-52 1158.24,-51.86 1157.48,-51.73 1156.72,-51.59"/>
<polygon fill="#4a90d9" stroke="#4a90d9" stroke-width="2" points="1157.09,-49.17 1149.77,-50.32 1156.21,-53.99 1157.09,-49.17"/>
<text text-anchor="middle" x="1325.5" y="-72.6" font-family="Times-Roman" font-size="8.00">calls</text>
</g>
<!-- L4YAML.TokenParser.parseNodeContent._mutual._proof_17 -->
<g id="node16" class="node">
<title>L4YAML.TokenParser.parseNodeContent._mutual._proof_17</title>
<g id="a_node16"><a xlink:href="../../../api/L4YAML/Parser/TokenParser.html#L4YAML.TokenParser.parseNodeContent._mutual._proof_17" xlink:title="TokenParser.parseNodeContent._mutual._proof_17" target="_blank">
<ellipse fill="#d4edda" stroke="#28a745" cx="755" cy="-115" rx="140.88" ry="18"/>
<text text-anchor="middle" x="755" y="-112.5" font-family="Helvetica" font-size="10.00">TokenParser.parseNodeContent._mutual._proof_17</text>
</a>
</g>
</g>
<!-- L4YAML.TokenParser.parseNodeContent._mutual._proof_17&#45;&gt;L4YAML.TokenParser.ParseState.advance -->
<g id="edge15" class="edge">
<title>L4YAML.TokenParser.parseNodeContent._mutual._proof_17&#45;&gt;L4YAML.TokenParser.ParseState.advance</title>
<path fill="none" stroke="#6f42c1" stroke-width="2" stroke-dasharray="5,2" d="M789.69,-97.43C814.79,-85.58 845.41,-71.47 852,-70 989.51,-39.25 1979.79,-65.99 2120,-52 2120.76,-51.92 2121.52,-51.85 2122.29,-51.76"/>
<polygon fill="#6f42c1" stroke="#6f42c1" stroke-width="2" points="2122.57,-54.2 2129.24,-50.95 2122.01,-49.33 2122.57,-54.2"/>
<text text-anchor="middle" x="864.5" y="-72.6" font-family="Times-Roman" font-size="8.00" fill="#6f42c1">about</text>
</g>
<!-- L4YAML.TokenParser.parseNodeContent._mutual._proof_17&#45;&gt;L4YAML.TokenParser.NodeProperties -->
<g id="edge13" class="edge">
<title>L4YAML.TokenParser.parseNodeContent._mutual._proof_17&#45;&gt;L4YAML.TokenParser.NodeProperties</title>
<path fill="none" stroke="#6f42c1" stroke-width="2" stroke-dasharray="5,2" d="M808.9,-98.36C849.26,-86.94 901.11,-72.96 923,-70 1226.7,-28.87 1997.42,-86.02 2302,-52 2302.34,-51.96 2302.67,-51.92 2303.01,-51.89"/>
<polygon fill="#6f42c1" stroke="#6f42c1" stroke-width="2" points="2303.52,-54.29 2310.15,-50.96 2302.89,-49.43 2303.52,-54.29"/>
<text text-anchor="middle" x="935.5" y="-72.6" font-family="Times-Roman" font-size="8.00" fill="#6f42c1">about</text>
</g>
<!-- L4YAML.TokenParser.parseNodeContent._mutual._proof_34 -->
<g id="node17" class="node">
<title>L4YAML.TokenParser.parseNodeContent._mutual._proof_34</title>
<g id="a_node17"><a xlink:href="../../../api/L4YAML/Parser/TokenParser.html#L4YAML.TokenParser.parseNodeContent._mutual._proof_34" xlink:title="TokenParser.parseNodeContent._mutual._proof_34" target="_blank">
<ellipse fill="#d4edda" stroke="#28a745" cx="157" cy="-115" rx="140.88" ry="18"/>
<text text-anchor="middle" x="157" y="-112.5" font-family="Helvetica" font-size="10.00">TokenParser.parseNodeContent._mutual._proof_34</text>
</a>
</g>
</g>
<!-- L4YAML.TokenParser.parseNodeContent._mutual._proof_34&#45;&gt;L4YAML.YamlPos -->
<g id="edge7" class="edge">
<title>L4YAML.TokenParser.parseNodeContent._mutual._proof_34&#45;&gt;L4YAML.YamlPos</title>
<path fill="none" stroke="#6f42c1" stroke-width="2" stroke-dasharray="5,2" d="M236.96,-100.11C259.28,-96.36 283.57,-92.4 306,-89 368.08,-79.58 383.54,-76.41 446,-70 620.84,-52.06 830.9,-40.7 912.85,-36.66"/>
<polygon fill="#6f42c1" stroke="#6f42c1" stroke-width="2" points="913.04,-39.1 919.92,-36.31 912.8,-34.21 913.04,-39.1"/>
<text text-anchor="middle" x="458.5" y="-72.6" font-family="Times-Roman" font-size="8.00" fill="#6f42c1">about</text>
</g>
<!-- L4YAML.TokenParser.parseNodeContent._mutual._proof_19 -->
<g id="node18" class="node">
<title>L4YAML.TokenParser.parseNodeContent._mutual._proof_19</title>
<g id="a_node18"><a xlink:href="../../../api/L4YAML/Parser/TokenParser.html#L4YAML.TokenParser.parseNodeContent._mutual._proof_19" xlink:title="TokenParser.parseNodeContent._mutual._proof_19" target="_blank">
<ellipse fill="#d4edda" stroke="#28a745" cx="456" cy="-115" rx="140.88" ry="18"/>
<text text-anchor="middle" x="456" y="-112.5" font-family="Helvetica" font-size="10.00">TokenParser.parseNodeContent._mutual._proof_19</text>
</a>
</g>
</g>
<!-- L4YAML.TokenParser.parseNodeContent._mutual._proof_19&#45;&gt;L4YAML.TokenParser.ParseState -->
<g id="edge22" class="edge">
<title>L4YAML.TokenParser.parseNodeContent._mutual._proof_19&#45;&gt;L4YAML.TokenParser.ParseState</title>
<path fill="none" stroke="#6f42c1" stroke-width="2" stroke-dasharray="5,2" d="M535.56,-100.09C557.99,-96.32 582.43,-92.36 605,-89 639.13,-83.92 648.46,-87.11 682,-79 693.48,-76.22 695.39,-72.14 707,-70 924.94,-29.94 1484.18,-79.96 1704,-52 1704.54,-51.93 1705.09,-51.86 1705.63,-51.79"/>
<polygon fill="#6f42c1" stroke="#6f42c1" stroke-width="2" points="1706.25,-54.17 1712.8,-50.7 1705.52,-49.33 1706.25,-54.17"/>
<text text-anchor="middle" x="719.5" y="-72.6" font-family="Times-Roman" font-size="8.00" fill="#6f42c1">about</text>
</g>
<!-- L4YAML.TokenParser.parseNodeContent._mutual._proof_19&#45;&gt;L4YAML.TokenParser.ParseState.trackPositions -->
<g id="edge28" class="edge">
<title>L4YAML.TokenParser.parseNodeContent._mutual._proof_19&#45;&gt;L4YAML.TokenParser.ParseState.trackPositions</title>
<path fill="none" stroke="#6f42c1" stroke-width="2" stroke-dasharray="5,2" d="M484.1,-97.13C502.23,-87.21 526.69,-75.55 550,-70 681.71,-38.65 1024.24,-65.05 1159,-52 1159.44,-51.96 1159.87,-51.91 1160.31,-51.87"/>
<polygon fill="#6f42c1" stroke="#6f42c1" stroke-width="2" points="1160.79,-54.28 1167.49,-51.1 1160.27,-49.41 1160.79,-54.28"/>
<text text-anchor="middle" x="562.5" y="-72.6" font-family="Times-Roman" font-size="8.00" fill="#6f42c1">about</text>
</g>
<!-- L4YAML.TokenParser.parseNodeContent._mutual._proof_19&#45;&gt;L4YAML.TokenParser.ParseState.anchors -->
<g id="edge30" class="edge">
<title>L4YAML.TokenParser.parseNodeContent._mutual._proof_19&#45;&gt;L4YAML.TokenParser.ParseState.anchors</title>
<path fill="none" stroke="#6f42c1" stroke-width="2" stroke-dasharray="5,2" d="M509.63,-98.29C530.09,-92.28 553.63,-85.35 575,-79 588.34,-75.04 591.25,-72.18 605,-70 772.06,-43.46 1197.78,-69.76 1366,-52 1366.53,-51.94 1367.07,-51.89 1367.61,-51.83"/>
<polygon fill="#6f42c1" stroke="#6f42c1" stroke-width="2" points="1367.99,-54.25 1374.65,-50.98 1367.41,-49.38 1367.99,-54.25"/>
<text text-anchor="middle" x="617.5" y="-72.6" font-family="Times-Roman" font-size="8.00" fill="#6f42c1">about</text>
</g>
<!-- L4YAML.TokenParser.parseNodeContent._mutual._proof_19&#45;&gt;L4YAML.TokenParser.ParseState.mk -->
<g id="edge32" class="edge">
<title>L4YAML.TokenParser.parseNodeContent._mutual._proof_19&#45;&gt;L4YAML.TokenParser.ParseState.mk</title>
<path fill="none" stroke="#6f42c1" stroke-width="2" stroke-dasharray="5,2" d="M535.73,-100.1C565.5,-94.35 599.48,-87.12 630,-79 642.22,-75.75 644.54,-72.15 657,-70 851.71,-36.38 1349.73,-74.89 1546,-52 1546.64,-51.93 1547.28,-51.85 1547.93,-51.77"/>
<polygon fill="#6f42c1" stroke="#6f42c1" stroke-width="2" points="1548.3,-54.19 1554.91,-50.81 1547.64,-49.33 1548.3,-54.19"/>
<text text-anchor="middle" x="669.5" y="-72.6" font-family="Times-Roman" font-size="8.00" fill="#6f42c1">about</text>
</g>
<!-- L4YAML.TokenParser.parseNodeContent._mutual._proof_19&#45;&gt;L4YAML.TokenParser.ParseState.tagHandles -->
<g id="edge20" class="edge">
<title>L4YAML.TokenParser.parseNodeContent._mutual._proof_19&#45;&gt;L4YAML.TokenParser.ParseState.tagHandles</title>
<path fill="none" stroke="#6f42c1" stroke-width="2" stroke-dasharray="5,2" d="M531.19,-99.74C554.75,-95.71 580.89,-91.7 605,-89 682.86,-80.28 704.89,-97.61 781,-79 790.47,-76.68 791.49,-72.12 801,-70 923.02,-42.79 1801.54,-63.83 1926,-52 1926.54,-51.95 1927.09,-51.9 1927.63,-51.84"/>
<polygon fill="#6f42c1" stroke="#6f42c1" stroke-width="2" points="1928.1,-54.26 1934.79,-51.07 1927.57,-49.38 1928.1,-54.26"/>
<text text-anchor="middle" x="813.5" y="-72.6" font-family="Times-Roman" font-size="8.00" fill="#6f42c1">about</text>
</g>
<!-- L4YAML.TokenParser.parseNodeContent._mutual._proof_19&#45;&gt;L4YAML.YamlValue -->
<g id="edge26" class="edge">
<title>L4YAML.TokenParser.parseNodeContent._mutual._proof_19&#45;&gt;L4YAML.YamlValue</title>
<path fill="none" stroke="#6f42c1" stroke-width="2" stroke-dasharray="5,2" d="M532.38,-99.86C555.63,-95.92 581.31,-91.91 605,-89 661.2,-82.09 676.73,-91.28 732,-79 743.12,-76.53 744.81,-72.13 756,-70 994,-24.81 1609.03,-102.31 1846,-52 1846.65,-51.86 1847.29,-51.72 1847.94,-51.56"/>
<polygon fill="#6f42c1" stroke="#6f42c1" stroke-width="2" points="1848.88,-53.84 1854.93,-49.55 1847.53,-49.13 1848.88,-53.84"/>
<text text-anchor="middle" x="768.5" y="-72.6" font-family="Times-Roman" font-size="8.00" fill="#6f42c1">about</text>
</g>
<!-- L4YAML.TokenParser.parseNodeContent._mutual._proof_19&#45;&gt;L4YAML.TokenParser.ParseState.tokens -->
<g id="edge24" class="edge">
<title>L4YAML.TokenParser.parseNodeContent._mutual._proof_19&#45;&gt;L4YAML.TokenParser.ParseState.tokens</title>
<path fill="none" stroke="#6f42c1" stroke-width="2" stroke-dasharray="5,2" d="M463.37,-96.72C468.49,-87.04 476.32,-75.79 487,-70 535.68,-43.62 929.99,-58.33 985,-52 985.76,-51.91 986.53,-51.82 987.3,-51.73"/>
<polygon fill="#6f42c1" stroke="#6f42c1" stroke-width="2" points="987.68,-54.15 994.31,-50.81 987.05,-49.29 987.68,-54.15"/>
<text text-anchor="middle" x="499.5" y="-72.6" font-family="Times-Roman" font-size="8.00" fill="#6f42c1">about</text>
</g>
<!-- L4YAML.TokenParser.parseNodeContent._mutual.eq_def -->
<g id="node19" class="node">
<title>L4YAML.TokenParser.parseNodeContent._mutual.eq_def</title>
<g id="a_node19"><a xlink:href="../../../api/L4YAML/Parser/TokenParser.html#L4YAML.TokenParser.parseNodeContent._mutual.eq_def" xlink:title="TokenParser.parseNodeContent._mutual.eq_def" target="_blank">
<ellipse fill="#d4edda" stroke="#28a745" cx="751" cy="-196" rx="133.08" ry="18"/>
<text text-anchor="middle" x="751" y="-193.5" font-family="Helvetica" font-size="10.00">TokenParser.parseNodeContent._mutual.eq_def</text>
</a>
</g>
</g>
<!-- L4YAML.TokenParser.parseNodeContent._mutual.eq_def&#45;&gt;L4YAML.YamlPos.line -->
<g id="edge4" class="edge">
<title>L4YAML.TokenParser.parseNodeContent._mutual.eq_def&#45;&gt;L4YAML.YamlPos.line</title>
<path fill="none" stroke="#6f42c1" stroke-width="2" stroke-dasharray="5,2" d="M784.65,-178.39C803.1,-169.62 826.53,-159.05 848,-151 874.07,-141.23 881.51,-141.56 908,-133 909.69,-132.45 911.4,-131.89 913.14,-131.32"/>
<polygon fill="#6f42c1" stroke="#6f42c1" stroke-width="2" points="914.01,-133.61 919.87,-129.07 912.45,-128.97 914.01,-133.61"/>
<text text-anchor="middle" x="860.5" y="-153.6" font-family="Times-Roman" font-size="8.00" fill="#6f42c1">about</text>
</g>
<!-- L4YAML.TokenParser.parseNodeContent._mutual.eq_def&#45;&gt;L4YAML.TokenParser.parseNodeContent._mutual -->
<g id="edge10" class="edge">
<title>L4YAML.TokenParser.parseNodeContent._mutual.eq_def&#45;&gt;L4YAML.TokenParser.parseNodeContent._mutual</title>
<path fill="none" stroke="#6f42c1" stroke-width="2" stroke-dasharray="5,2" d="M808.76,-179.76C848.48,-169.91 902.58,-157.72 951,-151 1119.99,-127.55 1318.35,-119.79 1436.64,-117.24"/>
<polygon fill="#6f42c1" stroke="#6f42c1" stroke-width="2" points="1437.02,-119.68 1443.96,-117.09 1436.91,-114.79 1437.02,-119.68"/>
<text text-anchor="middle" x="963.5" y="-153.6" font-family="Times-Roman" font-size="8.00" fill="#6f42c1">about</text>
</g>
<!-- L4YAML.TokenParser.parseNodeContent._mutual.eq_def&#45;&gt;L4YAML.TokenParser.parseNodeContent._mutual._proof_17 -->
<g id="edge12" class="edge">
<title>L4YAML.TokenParser.parseNodeContent._mutual.eq_def&#45;&gt;L4YAML.TokenParser.parseNodeContent._mutual._proof_17</title>
<path fill="none" stroke="#28a745" stroke-width="2" d="M751.87,-177.86C752.42,-166.88 753.15,-152.48 753.77,-140.33"/>
<polygon fill="#28a745" stroke="#28a745" stroke-width="2" points="756.23,-140.22 754.13,-133.11 751.33,-139.98 756.23,-140.22"/>
<text text-anchor="middle" x="763" y="-153.6" font-family="Times-Roman" font-size="8.00">uses</text>
</g>
<!-- L4YAML.TokenParser.parseNodeContent._mutual.eq_def&#45;&gt;L4YAML.TokenParser.parseNodeContent._mutual._proof_34 -->
<g id="edge6" class="edge">
<title>L4YAML.TokenParser.parseNodeContent._mutual.eq_def&#45;&gt;L4YAML.TokenParser.parseNodeContent._mutual._proof_34</title>
<path fill="none" stroke="#28a745" stroke-width="2" d="M659.81,-182.87C551.19,-168.43 370.31,-144.37 257.67,-129.39"/>
<polygon fill="#28a745" stroke="#28a745" stroke-width="2" points="257.95,-126.95 250.69,-128.46 257.3,-131.81 257.95,-126.95"/>
<text text-anchor="middle" x="481" y="-153.6" font-family="Times-Roman" font-size="8.00">uses</text>
</g>
<!-- L4YAML.TokenParser.parseNodeContent._mutual.eq_def&#45;&gt;L4YAML.TokenParser.parseNodeContent._mutual._proof_19 -->
<g id="edge19" class="edge">
<title>L4YAML.TokenParser.parseNodeContent._mutual.eq_def&#45;&gt;L4YAML.TokenParser.parseNodeContent._mutual._proof_19</title>
<path fill="none" stroke="#28a745" stroke-width="2" d="M693.77,-179.67C644.14,-166.38 572.36,-147.16 520.66,-133.32"/>
<polygon fill="#28a745" stroke="#28a745" stroke-width="2" points="521.22,-130.93 513.82,-131.49 519.95,-135.66 521.22,-130.93"/>
<text text-anchor="middle" x="622" y="-153.6" font-family="Times-Roman" font-size="8.00">uses</text>
</g>
<!-- L4YAML.TokenParser.parseImplicitBlockSequence.eq_def -->
<g id="node20" class="node">
<title>L4YAML.TokenParser.parseImplicitBlockSequence.eq_def</title>
<g id="a_node20"><a xlink:href="../../../api/L4YAML/Parser/TokenParser.html#L4YAML.TokenParser.parseImplicitBlockSequence.eq_def" xlink:title="TokenParser.parseImplicitBlockSequence.eq_def" target="_blank">
<polygon fill="#fff3cd" stroke="#d4a017" points="892.37,-293.54 892.37,-308.46 806.04,-319 683.96,-319 597.63,-308.46 597.63,-293.54 683.96,-283 806.04,-283 892.37,-293.54"/>
<polygon fill="none" stroke="#d4a017" points="896.37,-290 896.37,-312 806.28,-323 683.72,-323 593.63,-312 593.63,-290 683.72,-279 806.28,-279 896.37,-290"/>
<text text-anchor="middle" x="745" y="-298.5" font-family="Helvetica" font-size="10.00">TokenParser.parseImplicitBlockSequence.eq_def</text>
</a>
</g>
</g>
<!-- L4YAML.TokenParser.parseImplicitBlockSequence.eq_def&#45;&gt;L4YAML.TokenParser.parseImplicitBlockSequenceLoop -->
<g id="edge8" class="edge">
<title>L4YAML.TokenParser.parseImplicitBlockSequence.eq_def&#45;&gt;L4YAML.TokenParser.parseImplicitBlockSequenceLoop</title>
<path fill="none" stroke="#6f42c1" stroke-width="2" stroke-dasharray="5,2" d="M864.67,-286.12C935.15,-276.77 1025.74,-262.72 1105,-244 1136.37,-236.59 1170.72,-225.77 1198.32,-216.37"/>
<polygon fill="#6f42c1" stroke="#6f42c1" stroke-width="2" points="1199.36,-218.61 1205.19,-214.02 1197.77,-213.97 1199.36,-218.61"/>
<text text-anchor="middle" x="1078.5" y="-254.6" font-family="Times-Roman" font-size="8.00" fill="#6f42c1">about</text>
</g>
<!-- L4YAML.TokenParser.parseImplicitBlockSequence.eq_def&#45;&gt;L4YAML.TokenParser.ParseState.currentLine -->
<g id="edge1" class="edge">
<title>L4YAML.TokenParser.parseImplicitBlockSequence.eq_def&#45;&gt;L4YAML.TokenParser.ParseState.currentLine</title>
<path fill="none" stroke="#6f42c1" stroke-width="2" stroke-dasharray="5,2" d="M810.24,-279.38C840.29,-269.43 876.25,-256.87 908,-244 927.95,-235.91 949.63,-225.88 967.68,-217.17"/>
<polygon fill="#6f42c1" stroke="#6f42c1" stroke-width="2" points="968.93,-219.29 974.16,-214.03 966.79,-214.88 968.93,-219.29"/>
<text text-anchor="middle" x="898.5" y="-254.6" font-family="Times-Roman" font-size="8.00" fill="#6f42c1">about</text>
</g>
<!-- L4YAML.TokenParser.parseImplicitBlockSequence.eq_def&#45;&gt;L4YAML.TokenParser.parseImplicitBlockSequence -->
<g id="edge16" class="edge">
<title>L4YAML.TokenParser.parseImplicitBlockSequence.eq_def&#45;&gt;L4YAML.TokenParser.parseImplicitBlockSequence</title>
<path fill="none" stroke="#6f42c1" stroke-width="2" stroke-dasharray="5,2" d="M896.19,-297.15C1023.99,-292.21 1211.25,-278.99 1371,-244 1400.23,-237.6 1431.85,-226.5 1456.81,-216.69"/>
<polygon fill="#6f42c1" stroke="#6f42c1" stroke-width="2" points="1457.73,-218.96 1463.33,-214.1 1455.92,-214.41 1457.73,-218.96"/>
<text text-anchor="middle" x="1333.5" y="-254.6" font-family="Times-Roman" font-size="8.00" fill="#6f42c1">about</text>
</g>
<!-- L4YAML.TokenParser.parseImplicitBlockSequence.eq_def&#45;&gt;L4YAML.TokenParser.parseNodeContent._mutual.eq_def -->
<g id="edge3" class="edge">
<title>L4YAML.TokenParser.parseImplicitBlockSequence.eq_def&#45;&gt;L4YAML.TokenParser.parseNodeContent._mutual.eq_def</title>
<path fill="none" stroke="#28a745" stroke-width="2" d="M746.24,-278.66C747.22,-261.95 748.57,-238.71 749.58,-221.29"/>
<polygon fill="#28a745" stroke="#28a745" stroke-width="2" points="752.04,-221.35 750,-214.22 747.14,-221.07 752.04,-221.35"/>
<text text-anchor="middle" x="757" y="-254.6" font-family="Times-Roman" font-size="8.00">uses</text>
</g>
</g>
</svg>
