<?xml version="1.0" encoding="UTF-8" standalone="no"?>
<!DOCTYPE svg PUBLIC "-//W3C//DTD SVG 1.1//EN"
 "http://www.w3.org/Graphics/SVG/1.1/DTD/svg11.dtd">
<!-- Generated by graphviz version 2.44.0 (0)
 -->
<!-- Title: chain_TokenParser.parseBlockMapping.eq_def Pages: 1 -->
<svg width="1881pt" height="540pt"
 viewBox="0.00 0.00 1881.00 540.00" xmlns="http://www.w3.org/2000/svg" xmlns:xlink="http://www.w3.org/1999/xlink">
<g id="graph0" class="graph" transform="scale(1 1) rotate(0) translate(4 536)">
<title>chain_TokenParser.parseBlockMapping.eq_def</title>
<polygon fill="white" stroke="transparent" points="-4,4 -4,-536 1877,-536 1877,4 -4,4"/>
<text text-anchor="middle" x="936.5" y="-517.6" font-family="Helvetica Bold" font-size="13.00">Functorial Chains: TokenParser.parseBlockMapping.eq_def</text>
<text text-anchor="middle" x="936.5" y="-503.6" font-family="Helvetica Bold" font-size="13.00">(heuristic: used by 9 proofs)</text>
<g id="clust1" class="cluster">
<title>cluster_fns</title>
<polygon fill="none" stroke="#4a90d9" stroke-dasharray="5,2" points="8,-8 8,-379 1250,-379 1250,-8 8,-8"/>
<text text-anchor="middle" x="629" y="-364.6" font-family="Helvetica Bold" font-size="13.00" fill="#4a90d9">Functions (Call Chain)</text>
</g>
<g id="clust2" class="cluster">
<title>cluster_thms</title>
<polygon fill="none" stroke="#28a745" stroke-dasharray="5,2" points="1258,-143 1258,-488 1836,-488 1836,-143 1258,-143"/>
<text text-anchor="middle" x="1547" y="-473.6" font-family="Helvetica Bold" font-size="13.00" fill="#28a745">Theorems (Proof Chain)</text>
</g>
<!-- L4YAML.TokenParser.parseBlockMappingLoop -->
<g id="node1" class="node">
<title>L4YAML.TokenParser.parseBlockMappingLoop</title>
<g id="a_node1"><a xlink:href="../../../api/L4YAML/Parser/TokenParser.html#L4YAML.TokenParser.parseBlockMappingLoop" xlink:title="TokenParser.parseBlockMappingLoop" target="_blank">
<polygon fill="#dce9f7" stroke="#4a90d9" points="1151,-349 969,-349 969,-313 1151,-313 1151,-349"/>
<text text-anchor="middle" x="1060" y="-328.5" font-family="Helvetica" font-size="10.00">TokenParser.parseBlockMappingLoop</text>
</a>
</g>
</g>
<!-- L4YAML.TokenParser.parseNodeContent._mutual -->
<g id="node9" class="node">
<title>L4YAML.TokenParser.parseNodeContent._mutual</title>
<g id="a_node9"><a xlink:href="../../../api/L4YAML/Parser/TokenParser.html#L4YAML.TokenParser.parseNodeContent._mutual" xlink:title="TokenParser.parseNodeContent._mutual" target="_blank">
<polygon fill="#dce9f7" stroke="#4a90d9" points="755,-241 561,-241 561,-205 755,-205 755,-241"/>
<text text-anchor="middle" x="658" y="-220.5" font-family="Helvetica" font-size="10.00">TokenParser.parseNodeContent._mutual</text>
</a>
</g>
</g>
<!-- L4YAML.TokenParser.parseBlockMappingLoop&#45;&gt;L4YAML.TokenParser.parseNodeContent._mutual -->
<g id="edge11" class="edge">
<title>L4YAML.TokenParser.parseBlockMappingLoop&#45;&gt;L4YAML.TokenParser.parseNodeContent._mutual</title>
<path fill="none" stroke="#4a90d9" stroke-width="2" d="M980.54,-312.98C956.23,-307.53 929.45,-301.27 905,-295 842.05,-278.86 770.78,-258.1 721.03,-243.21"/>
<polygon fill="#4a90d9" stroke="#4a90d9" stroke-width="2" points="721.56,-240.81 714.15,-241.15 720.16,-245.5 721.56,-240.81"/>
<text text-anchor="middle" x="914.5" y="-275.1" font-family="Times-Roman" font-size="8.00">calls</text>
</g>
<!-- L4YAML.TokenParser.ParseState.currentPath -->
<g id="node2" class="node">
<title>L4YAML.TokenParser.ParseState.currentPath</title>
<g id="a_node2"><a xlink:href="../../../api/L4YAML/Parser/State.html#L4YAML.TokenParser.ParseState.currentPath" xlink:title="TokenParser.ParseState.currentPath" target="_blank">
<polygon fill="#dce9f7" stroke="#4a90d9" points="1061.5,-133 884.5,-133 884.5,-97 1061.5,-97 1061.5,-133"/>
<text text-anchor="middle" x="973" y="-112.5" font-family="Helvetica" font-size="10.00">TokenParser.ParseState.currentPath</text>
</a>
</g>
</g>
<!-- L4YAML.TokenParser.ParseState.advance -->
<g id="node3" class="node">
<title>L4YAML.TokenParser.ParseState.advance</title>
<g id="a_node3"><a xlink:href="../../../api/L4YAML/Parser/State.html#L4YAML.TokenParser.ParseState.advance" xlink:title="TokenParser.ParseState.advance" target="_blank">
<polygon fill="#dce9f7" stroke="#4a90d9" points="1095.5,-295 932.5,-295 932.5,-259 1095.5,-259 1095.5,-295"/>
<text text-anchor="middle" x="1014" y="-274.5" font-family="Helvetica" font-size="10.00">TokenParser.ParseState.advance</text>
</a>
</g>
</g>
<!-- L4YAML.TokenParser.ParseState.anchors -->
<g id="node7" class="node">
<title>L4YAML.TokenParser.ParseState.anchors</title>
<g id="a_node7"><a xlink:href="../../../api/L4YAML/Parser/State.html#L4YAML.TokenParser.ParseState.anchors" xlink:title="TokenParser.ParseState.anchors" target="_blank">
<polygon fill="#dce9f7" stroke="#4a90d9" points="1242,-133 1080,-133 1080,-97 1242,-97 1242,-133"/>
<text text-anchor="middle" x="1161" y="-112.5" font-family="Helvetica" font-size="10.00">TokenParser.ParseState.anchors</text>
</a>
</g>
</g>
<!-- L4YAML.TokenParser.ParseState.advance&#45;&gt;L4YAML.TokenParser.ParseState.anchors -->
<g id="edge2" class="edge">
<title>L4YAML.TokenParser.ParseState.advance&#45;&gt;L4YAML.TokenParser.ParseState.anchors</title>
<path fill="none" stroke="#4a90d9" stroke-width="2" d="M989.3,-258.79C968.78,-242.87 941.08,-217.15 929,-187 921.72,-168.85 915.67,-157.31 929,-143 939.78,-131.43 1055.31,-135.03 1071,-133 1071.53,-132.93 1072.07,-132.86 1072.6,-132.79"/>
<polygon fill="#4a90d9" stroke="#4a90d9" stroke-width="2" points="1073.04,-135.2 1079.63,-131.81 1072.36,-130.35 1073.04,-135.2"/>
<text text-anchor="middle" x="976.5" y="-221.1" font-family="Times-Roman" font-size="8.00">calls</text>
</g>
<!-- L4YAML.YamlValue -->
<g id="node4" class="node">
<title>L4YAML.YamlValue</title>
<g id="a_node4"><a xlink:href="../../../api/L4YAML/Spec/Types.html#L4YAML.YamlValue" xlink:title="YamlValue" target="_blank">
<polygon fill="#dce9f7" stroke="#4a90d9" points="327,-133 265,-133 265,-97 327,-97 327,-133"/>
<text text-anchor="middle" x="296" y="-112.5" font-family="Helvetica" font-size="10.00">YamlValue</text>
</a>
</g>
</g>
<!-- L4YAML.TokenParser.ParseState -->
<g id="node5" class="node">
<title>L4YAML.TokenParser.ParseState</title>
<g id="a_node5"><a xlink:href="../../../api/L4YAML/Parser/State.html#L4YAML.TokenParser.ParseState" xlink:title="TokenParser.ParseState" target="_blank">
<polygon fill="#dce9f7" stroke="#4a90d9" points="1242,-52 1118,-52 1118,-16 1242,-16 1242,-52"/>
<text text-anchor="middle" x="1180" y="-31.5" font-family="Helvetica" font-size="10.00">TokenParser.ParseState</text>
</a>
</g>
</g>
<!-- L4YAML.TokenParser.ParseState.trackPositions -->
<g id="node6" class="node">
<title>L4YAML.TokenParser.ParseState.trackPositions</title>
<g id="a_node6"><a xlink:href="../../../api/L4YAML/Parser/State.html#L4YAML.TokenParser.ParseState.trackPositions" xlink:title="TokenParser.ParseState.trackPositions" target="_blank">
<polygon fill="#dce9f7" stroke="#4a90d9" points="866.5,-133 677.5,-133 677.5,-97 866.5,-97 866.5,-133"/>
<text text-anchor="middle" x="772" y="-112.5" font-family="Helvetica" font-size="10.00">TokenParser.ParseState.trackPositions</text>
</a>
</g>
</g>
<!-- L4YAML.TokenParser.ParseState.anchors&#45;&gt;L4YAML.TokenParser.ParseState -->
<g id="edge5" class="edge">
<title>L4YAML.TokenParser.ParseState.anchors&#45;&gt;L4YAML.TokenParser.ParseState</title>
<path fill="none" stroke="#4a90d9" stroke-width="2" d="M1165.12,-96.86C1167.79,-85.78 1171.29,-71.21 1174.23,-58.99"/>
<polygon fill="#4a90d9" stroke="#4a90d9" stroke-width="2" points="1176.63,-59.49 1175.89,-52.11 1171.87,-58.34 1176.63,-59.49"/>
<text text-anchor="middle" x="1180.5" y="-72.6" font-family="Times-Roman" font-size="8.00">calls</text>
</g>
<!-- L4YAML.TokenParser.ParseState.mk -->
<g id="node8" class="node">
<title>L4YAML.TokenParser.ParseState.mk</title>
<g id="a_node8"><a xlink:href="../../../api/L4YAML/Parser/State.html#L4YAML.TokenParser.ParseState.mk" xlink:title="TokenParser.ParseState.mk" target="_blank">
<polygon fill="#dce9f7" stroke="#4a90d9" points="659,-133 519,-133 519,-97 659,-97 659,-133"/>
<text text-anchor="middle" x="589" y="-112.5" font-family="Helvetica" font-size="10.00">TokenParser.ParseState.mk</text>
</a>
</g>
</g>
<!-- L4YAML.TokenParser.parseNodeContent._mutual&#45;&gt;L4YAML.TokenParser.ParseState.currentPath -->
<g id="edge28" class="edge">
<title>L4YAML.TokenParser.parseNodeContent._mutual&#45;&gt;L4YAML.TokenParser.ParseState.currentPath</title>
<path fill="none" stroke="#4a90d9" stroke-width="2" d="M715.59,-204.94C731.48,-199.71 748.58,-193.58 764,-187 802.4,-170.62 807.77,-157.29 847,-143 856.74,-139.45 867.09,-136.3 877.5,-133.53"/>
<polygon fill="#4a90d9" stroke="#4a90d9" stroke-width="2" points="878.18,-135.88 884.34,-131.75 876.95,-131.14 878.18,-135.88"/>
<text text-anchor="middle" x="856.5" y="-167.1" font-family="Times-Roman" font-size="8.00">calls</text>
</g>
<!-- L4YAML.TokenParser.parseNodeContent._mutual&#45;&gt;L4YAML.YamlValue -->
<g id="edge20" class="edge">
<title>L4YAML.TokenParser.parseNodeContent._mutual&#45;&gt;L4YAML.YamlValue</title>
<path fill="none" stroke="#4a90d9" stroke-width="2" d="M560.79,-208.96C529.24,-203.56 494.31,-196.34 463,-187 417.15,-173.33 366.92,-150.89 333.65,-134.9"/>
<polygon fill="#4a90d9" stroke="#4a90d9" stroke-width="2" points="334.6,-132.63 327.23,-131.79 332.46,-137.04 334.6,-132.63"/>
<text text-anchor="middle" x="472.5" y="-167.1" font-family="Times-Roman" font-size="8.00">calls</text>
</g>
<!-- L4YAML.TokenParser.parseNodeContent._mutual&#45;&gt;L4YAML.TokenParser.ParseState -->
<g id="edge16" class="edge">
<title>L4YAML.TokenParser.parseNodeContent._mutual&#45;&gt;L4YAML.TokenParser.ParseState</title>
<path fill="none" stroke="#4a90d9" stroke-width="2" d="M560.98,-220.96C469.63,-218.45 329.39,-210.62 210,-187 127.29,-170.63 -14.97,-158.22 43,-97 79.83,-58.11 869.4,-40.63 1110.62,-36.18"/>
<polygon fill="#4a90d9" stroke="#4a90d9" stroke-width="2" points="1110.99,-38.63 1117.94,-36.05 1110.9,-33.73 1110.99,-38.63"/>
<text text-anchor="middle" x="52.5" y="-113.1" font-family="Times-Roman" font-size="8.00">calls</text>
</g>
<!-- L4YAML.TokenParser.parseNodeContent._mutual&#45;&gt;L4YAML.TokenParser.ParseState.trackPositions -->
<g id="edge22" class="edge">
<title>L4YAML.TokenParser.parseNodeContent._mutual&#45;&gt;L4YAML.TokenParser.ParseState.trackPositions</title>
<path fill="none" stroke="#4a90d9" stroke-width="2" d="M676.32,-204.97C695.81,-186.84 726.74,-158.08 748.13,-138.19"/>
<polygon fill="#4a90d9" stroke="#4a90d9" stroke-width="2" points="749.89,-139.9 753.35,-133.34 746.56,-136.31 749.89,-139.9"/>
<text text-anchor="middle" x="750.5" y="-167.1" font-family="Times-Roman" font-size="8.00">calls</text>
</g>
<!-- L4YAML.TokenParser.parseNodeContent._mutual&#45;&gt;L4YAML.TokenParser.ParseState.anchors -->
<g id="edge24" class="edge">
<title>L4YAML.TokenParser.parseNodeContent._mutual&#45;&gt;L4YAML.TokenParser.ParseState.anchors</title>
<path fill="none" stroke="#4a90d9" stroke-width="2" d="M755.22,-212.49C799.88,-206.76 847.07,-198.34 866,-187 887.2,-174.3 878.14,-154.54 900,-143 933.66,-125.23 1033.22,-137.65 1071,-133 1071.53,-132.93 1072.07,-132.87 1072.6,-132.8"/>
<polygon fill="#4a90d9" stroke="#4a90d9" stroke-width="2" points="1073.03,-135.21 1079.64,-131.85 1072.37,-130.36 1073.03,-135.21"/>
<text text-anchor="middle" x="909.5" y="-167.1" font-family="Times-Roman" font-size="8.00">calls</text>
</g>
<!-- L4YAML.TokenParser.parseNodeContent._mutual&#45;&gt;L4YAML.TokenParser.ParseState.mk -->
<g id="edge26" class="edge">
<title>L4YAML.TokenParser.parseNodeContent._mutual&#45;&gt;L4YAML.TokenParser.ParseState.mk</title>
<path fill="none" stroke="#4a90d9" stroke-width="2" d="M646.91,-204.97C635.31,-187.15 617.03,-159.06 604.11,-139.21"/>
<polygon fill="#4a90d9" stroke="#4a90d9" stroke-width="2" points="606.16,-137.87 600.29,-133.34 602.05,-140.54 606.16,-137.87"/>
<text text-anchor="middle" x="642.5" y="-167.1" font-family="Times-Roman" font-size="8.00">calls</text>
</g>
<!-- L4YAML.TokenParser.ParseState.tagHandles -->
<g id="node10" class="node">
<title>L4YAML.TokenParser.ParseState.tagHandles</title>
<g id="a_node10"><a xlink:href="../../../api/L4YAML/Parser/State.html#L4YAML.TokenParser.ParseState.tagHandles" xlink:title="TokenParser.ParseState.tagHandles" target="_blank">
<polygon fill="#dce9f7" stroke="#4a90d9" points="247,-133 71,-133 71,-97 247,-97 247,-133"/>
<text text-anchor="middle" x="159" y="-112.5" font-family="Helvetica" font-size="10.00">TokenParser.ParseState.tagHandles</text>
</a>
</g>
</g>
<!-- L4YAML.TokenParser.parseNodeContent._mutual&#45;&gt;L4YAML.TokenParser.ParseState.tagHandles -->
<g id="edge13" class="edge">
<title>L4YAML.TokenParser.parseNodeContent._mutual&#45;&gt;L4YAML.TokenParser.ParseState.tagHandles</title>
<path fill="none" stroke="#4a90d9" stroke-width="2" d="M560.86,-218.84C495.13,-214.95 406.81,-206.28 331,-187 284.04,-175.06 233.06,-152.73 198.89,-136.29"/>
<polygon fill="#4a90d9" stroke="#4a90d9" stroke-width="2" points="199.66,-133.94 192.29,-133.09 197.52,-138.35 199.66,-133.94"/>
<text text-anchor="middle" x="340.5" y="-167.1" font-family="Times-Roman" font-size="8.00">calls</text>
</g>
<!-- L4YAML.TokenParser.ParseState.tokens -->
<g id="node11" class="node">
<title>L4YAML.TokenParser.ParseState.tokens</title>
<g id="a_node11"><a xlink:href="../../../api/L4YAML/Parser/State.html#L4YAML.TokenParser.ParseState.tokens" xlink:title="TokenParser.ParseState.tokens" target="_blank">
<polygon fill="#dce9f7" stroke="#4a90d9" points="500.5,-133 345.5,-133 345.5,-97 500.5,-97 500.5,-133"/>
<text text-anchor="middle" x="423" y="-112.5" font-family="Helvetica" font-size="10.00">TokenParser.ParseState.tokens</text>
</a>
</g>
</g>
<!-- L4YAML.TokenParser.parseNodeContent._mutual&#45;&gt;L4YAML.TokenParser.ParseState.tokens -->
<g id="edge18" class="edge">
<title>L4YAML.TokenParser.parseNodeContent._mutual&#45;&gt;L4YAML.TokenParser.ParseState.tokens</title>
<path fill="none" stroke="#4a90d9" stroke-width="2" d="M620.24,-204.97C578.65,-186.21 511.83,-156.07 467.67,-136.15"/>
<polygon fill="#4a90d9" stroke="#4a90d9" stroke-width="2" points="468.44,-133.81 461.05,-133.16 466.43,-138.28 468.44,-133.81"/>
<text text-anchor="middle" x="584.5" y="-167.1" font-family="Times-Roman" font-size="8.00">calls</text>
</g>
<!-- L4YAML.TokenParser.parseNodeContent._mutual._proof_27 -->
<g id="node12" class="node">
<title>L4YAML.TokenParser.parseNodeContent._mutual._proof_27</title>
<g id="a_node12"><a xlink:href="../../../api/L4YAML/Parser/TokenParser.html#L4YAML.TokenParser.parseNodeContent._mutual._proof_27" xlink:title="TokenParser.parseNodeContent._mutual._proof_27" target="_blank">
<ellipse fill="#d4edda" stroke="#28a745" cx="1407" cy="-169" rx="140.88" ry="18"/>
<text text-anchor="middle" x="1407" y="-166.5" font-family="Helvetica" font-size="10.00">TokenParser.parseNodeContent._mutual._proof_27</text>
</a>
</g>
</g>
<!-- L4YAML.TokenParser.parseNodeContent._mutual._proof_27&#45;&gt;L4YAML.TokenParser.ParseState -->
<g id="edge9" class="edge">
<title>L4YAML.TokenParser.parseNodeContent._mutual._proof_27&#45;&gt;L4YAML.TokenParser.ParseState</title>
<path fill="none" stroke="#6f42c1" stroke-width="2" stroke-dasharray="5,2" d="M1378.25,-151.16C1336.78,-126.86 1260.22,-82 1215.35,-55.71"/>
<polygon fill="#6f42c1" stroke="#6f42c1" stroke-width="2" points="1216.51,-53.55 1209.23,-52.13 1214.03,-57.78 1216.51,-53.55"/>
<text text-anchor="middle" x="1357.5" y="-113.1" font-family="Times-Roman" font-size="8.00" fill="#6f42c1">about</text>
</g>
<!-- L4YAML.TokenParser.parseNodeContent._mutual._proof_1 -->
<g id="node13" class="node">
<title>L4YAML.TokenParser.parseNodeContent._mutual._proof_1</title>
<g id="a_node13"><a xlink:href="../../../api/L4YAML/Parser/TokenParser.html#L4YAML.TokenParser.parseNodeContent._mutual._proof_1" xlink:title="TokenParser.parseNodeContent._mutual._proof_1" target="_blank">
<ellipse fill="#d4edda" stroke="#28a745" cx="1690" cy="-169" rx="137.99" ry="18"/>
<text text-anchor="middle" x="1690" y="-166.5" font-family="Helvetica" font-size="10.00">TokenParser.parseNodeContent._mutual._proof_1</text>
</a>
</g>
</g>
<!-- L4YAML.TokenParser.parseNodeContent._mutual._proof_1&#45;&gt;L4YAML.TokenParser.ParseState -->
<g id="edge7" class="edge">
<title>L4YAML.TokenParser.parseNodeContent._mutual._proof_1&#45;&gt;L4YAML.TokenParser.ParseState</title>
<path fill="none" stroke="#6f42c1" stroke-width="2" stroke-dasharray="5,2" d="M1631,-152.61C1536.03,-127.85 1349.75,-79.27 1248.86,-52.96"/>
<polygon fill="#6f42c1" stroke="#6f42c1" stroke-width="2" points="1249.43,-50.57 1242.04,-51.18 1248.2,-55.32 1249.43,-50.57"/>
<text text-anchor="middle" x="1563.5" y="-113.1" font-family="Times-Roman" font-size="8.00" fill="#6f42c1">about</text>
</g>
<!-- L4YAML.TokenParser.parseBlockMapping.eq_def -->
<g id="node14" class="node">
<title>L4YAML.TokenParser.parseBlockMapping.eq_def</title>
<g id="a_node14"><a xlink:href="../../../api/L4YAML/Parser/TokenParser.html#L4YAML.TokenParser.parseBlockMapping.eq_def" xlink:title="TokenParser.parseBlockMapping.eq_def" target="_blank">
<polygon fill="#fff3cd" stroke="#d4a017" points="1515.95,-428.54 1515.95,-443.46 1443.93,-454 1342.07,-454 1270.05,-443.46 1270.05,-428.54 1342.07,-418 1443.93,-418 1515.95,-428.54"/>
<polygon fill="none" stroke="#d4a017" points="1519.95,-425.09 1519.95,-446.91 1444.22,-458 1341.78,-458 1266.05,-446.91 1266.05,-425.09 1341.78,-414 1444.22,-414 1519.95,-425.09"/>
<text text-anchor="middle" x="1393" y="-433.5" font-family="Helvetica" font-size="10.00">TokenParser.parseBlockMapping.eq_def</text>
</a>
</g>
</g>
<!-- L4YAML.TokenParser.parseBlockMapping.eq_def&#45;&gt;L4YAML.TokenParser.parseBlockMappingLoop -->
<g id="edge10" class="edge">
<title>L4YAML.TokenParser.parseBlockMapping.eq_def&#45;&gt;L4YAML.TokenParser.parseBlockMappingLoop</title>
<path fill="none" stroke="#6f42c1" stroke-width="2" stroke-dasharray="5,2" d="M1265.87,-426.28C1226.99,-420.6 1184.8,-411.27 1148,-396 1123.86,-385.98 1100.11,-368.1 1083.38,-353.78"/>
<polygon fill="#6f42c1" stroke="#6f42c1" stroke-width="2" points="1084.87,-351.83 1077.98,-349.07 1081.65,-355.52 1084.87,-351.83"/>
<text text-anchor="middle" x="1160.5" y="-389.6" font-family="Times-Roman" font-size="8.00" fill="#6f42c1">about</text>
</g>
<!-- L4YAML.TokenParser.parseBlockMapping.eq_def&#45;&gt;L4YAML.TokenParser.ParseState.advance -->
<g id="edge1" class="edge">
<title>L4YAML.TokenParser.parseBlockMapping.eq_def&#45;&gt;L4YAML.TokenParser.ParseState.advance</title>
<path fill="none" stroke="#6f42c1" stroke-width="2" stroke-dasharray="5,2" d="M1359.11,-413.82C1314.83,-386.97 1234.18,-340.82 1160,-313 1141.85,-306.19 1121.92,-300.39 1102.79,-295.58"/>
<polygon fill="#6f42c1" stroke="#6f42c1" stroke-width="2" points="1103.16,-293.14 1095.78,-293.85 1101.99,-297.9 1103.16,-293.14"/>
<text text-anchor="middle" x="1340.5" y="-389.6" font-family="Times-Roman" font-size="8.00" fill="#6f42c1">about</text>
</g>
<!-- L4YAML.TokenParser.parseNodeContent._mutual.eq_def -->
<g id="node16" class="node">
<title>L4YAML.TokenParser.parseNodeContent._mutual.eq_def</title>
<g id="a_node16"><a xlink:href="../../../api/L4YAML/Parser/TokenParser.html#L4YAML.TokenParser.parseNodeContent._mutual.eq_def" xlink:title="TokenParser.parseNodeContent._mutual.eq_def" target="_blank">
<ellipse fill="#d4edda" stroke="#28a745" cx="1516" cy="-331" rx="133.08" ry="18"/>
<text text-anchor="middle" x="1516" y="-328.5" font-family="Helvetica" font-size="10.00">TokenParser.parseNodeContent._mutual.eq_def</text>
</a>
</g>
</g>
<!-- L4YAML.TokenParser.parseBlockMapping.eq_def&#45;&gt;L4YAML.TokenParser.parseNodeContent._mutual.eq_def -->
<g id="edge3" class="edge">
<title>L4YAML.TokenParser.parseBlockMapping.eq_def&#45;&gt;L4YAML.TokenParser.parseNodeContent._mutual.eq_def</title>
<path fill="none" stroke="#28a745" stroke-width="2" d="M1418.19,-413.91C1439.22,-396.29 1469.08,-371.29 1490.27,-353.55"/>
<polygon fill="#28a745" stroke="#28a745" stroke-width="2" points="1491.93,-355.35 1495.72,-348.98 1488.78,-351.59 1491.93,-355.35"/>
<text text-anchor="middle" x="1457" y="-389.6" font-family="Times-Roman" font-size="8.00">uses</text>
</g>
<!-- L4YAML.TokenParser.parseNodeContent._mutual._proof_19 -->
<g id="node15" class="node">
<title>L4YAML.TokenParser.parseNodeContent._mutual._proof_19</title>
<g id="a_node15"><a xlink:href="../../../api/L4YAML/Parser/TokenParser.html#L4YAML.TokenParser.parseNodeContent._mutual._proof_19" xlink:title="TokenParser.parseNodeContent._mutual._proof_19" target="_blank">
<ellipse fill="#d4edda" stroke="#28a745" cx="1407" cy="-223" rx="140.88" ry="18"/>
<text text-anchor="middle" x="1407" y="-220.5" font-family="Helvetica" font-size="10.00">TokenParser.parseNodeContent._mutual._proof_19</text>
</a>
</g>
</g>
<!-- L4YAML.TokenParser.parseNodeContent._mutual._proof_19&#45;&gt;L4YAML.TokenParser.ParseState.currentPath -->
<g id="edge29" class="edge">
<title>L4YAML.TokenParser.parseNodeContent._mutual._proof_19&#45;&gt;L4YAML.TokenParser.ParseState.currentPath</title>
<path fill="none" stroke="#6f42c1" stroke-width="2" stroke-dasharray="5,2" d="M1305.57,-210.52C1251.89,-203.64 1195,-194.76 1185,-187 1168.17,-173.94 1183.16,-155.62 1166,-143 1148.9,-130.42 1092.03,-135.93 1071,-133 1070.23,-132.89 1069.46,-132.78 1068.68,-132.67"/>
<polygon fill="#6f42c1" stroke="#6f42c1" stroke-width="2" points="1068.91,-130.23 1061.63,-131.65 1068.21,-135.08 1068.91,-130.23"/>
<text text-anchor="middle" x="1197.5" y="-167.1" font-family="Times-Roman" font-size="8.00" fill="#6f42c1">about</text>
</g>
<!-- L4YAML.TokenParser.parseNodeContent._mutual._proof_19&#45;&gt;L4YAML.YamlValue -->
<g id="edge21" class="edge">
<title>L4YAML.TokenParser.parseNodeContent._mutual._proof_19&#45;&gt;L4YAML.YamlValue</title>
<path fill="none" stroke="#6f42c1" stroke-width="2" stroke-dasharray="5,2" d="M1307.07,-210.29C1289.4,-208.39 1271.17,-206.55 1254,-205 1225.05,-202.39 1016.73,-203.8 993,-187 975.61,-174.69 991.71,-154.84 974,-143 944.58,-123.33 371.66,-140.18 337,-133 336.11,-132.82 335.21,-132.61 334.31,-132.39"/>
<polygon fill="#6f42c1" stroke="#6f42c1" stroke-width="2" points="334.81,-129.98 327.41,-130.4 333.46,-134.69 334.81,-129.98"/>
<text text-anchor="middle" x="1005.5" y="-167.1" font-family="Times-Roman" font-size="8.00" fill="#6f42c1">about</text>
</g>
<!-- L4YAML.TokenParser.parseNodeContent._mutual._proof_19&#45;&gt;L4YAML.TokenParser.ParseState -->
<g id="edge17" class="edge">
<title>L4YAML.TokenParser.parseNodeContent._mutual._proof_19&#45;&gt;L4YAML.TokenParser.ParseState</title>
<path fill="none" stroke="#6f42c1" stroke-width="2" stroke-dasharray="5,2" d="M1545.47,-219.68C1661.01,-216.26 1809.83,-207.82 1829,-187 1842.24,-172.61 1841.51,-158.03 1829,-143 1755.95,-55.22 1401.09,-38.68 1249.2,-35.64"/>
<polygon fill="#6f42c1" stroke="#6f42c1" stroke-width="2" points="1249.17,-33.19 1242.13,-35.51 1249.08,-38.09 1249.17,-33.19"/>
<text text-anchor="middle" x="1830.5" y="-113.1" font-family="Times-Roman" font-size="8.00" fill="#6f42c1">about</text>
</g>
<!-- L4YAML.TokenParser.parseNodeContent._mutual._proof_19&#45;&gt;L4YAML.TokenParser.ParseState.trackPositions -->
<g id="edge23" class="edge">
<title>L4YAML.TokenParser.parseNodeContent._mutual._proof_19&#45;&gt;L4YAML.TokenParser.ParseState.trackPositions</title>
<path fill="none" stroke="#6f42c1" stroke-width="2" stroke-dasharray="5,2" d="M1307.52,-210.25C1232.01,-201.15 1140.53,-189.66 1137,-187 1119.99,-174.18 1135.55,-155.07 1118,-143 1095.82,-127.75 902.77,-135.73 876,-133 875.23,-132.92 874.45,-132.84 873.67,-132.76"/>
<polygon fill="#6f42c1" stroke="#6f42c1" stroke-width="2" points="873.82,-130.31 866.59,-131.96 873.28,-135.18 873.82,-130.31"/>
<text text-anchor="middle" x="1149.5" y="-167.1" font-family="Times-Roman" font-size="8.00" fill="#6f42c1">about</text>
</g>
<!-- L4YAML.TokenParser.parseNodeContent._mutual._proof_19&#45;&gt;L4YAML.TokenParser.ParseState.anchors -->
<g id="edge25" class="edge">
<title>L4YAML.TokenParser.parseNodeContent._mutual._proof_19&#45;&gt;L4YAML.TokenParser.ParseState.anchors</title>
<path fill="none" stroke="#6f42c1" stroke-width="2" stroke-dasharray="5,2" d="M1306.91,-210.24C1274.74,-204.73 1244.25,-197.11 1232,-187 1215.7,-173.55 1228.31,-158.55 1214,-143 1212.18,-141.02 1210.18,-139.17 1208.06,-137.43"/>
<polygon fill="#6f42c1" stroke="#6f42c1" stroke-width="2" points="1209.28,-135.29 1202.2,-133.11 1206.38,-139.23 1209.28,-135.29"/>
<text text-anchor="middle" x="1244.5" y="-167.1" font-family="Times-Roman" font-size="8.00" fill="#6f42c1">about</text>
</g>
<!-- L4YAML.TokenParser.parseNodeContent._mutual._proof_19&#45;&gt;L4YAML.TokenParser.ParseState.mk -->
<g id="edge27" class="edge">
<title>L4YAML.TokenParser.parseNodeContent._mutual._proof_19&#45;&gt;L4YAML.TokenParser.ParseState.mk</title>
<path fill="none" stroke="#6f42c1" stroke-width="2" stroke-dasharray="5,2" d="M1304.54,-210.59C1287.66,-208.71 1270.34,-206.8 1254,-205 1217.34,-200.96 1118.67,-208.91 1089,-187 1071.86,-174.35 1087.65,-154.92 1070,-143 1051.53,-130.53 691.13,-135.6 669,-133 668.09,-132.89 667.17,-132.78 666.25,-132.66"/>
<polygon fill="#6f42c1" stroke="#6f42c1" stroke-width="2" points="666.39,-130.21 659.12,-131.66 665.71,-135.06 666.39,-130.21"/>
<text text-anchor="middle" x="1101.5" y="-167.1" font-family="Times-Roman" font-size="8.00" fill="#6f42c1">about</text>
</g>
<!-- L4YAML.TokenParser.parseNodeContent._mutual._proof_19&#45;&gt;L4YAML.TokenParser.ParseState.tagHandles -->
<g id="edge15" class="edge">
<title>L4YAML.TokenParser.parseNodeContent._mutual._proof_19&#45;&gt;L4YAML.TokenParser.ParseState.tagHandles</title>
<path fill="none" stroke="#6f42c1" stroke-width="2" stroke-dasharray="5,2" d="M1307.9,-210.22C1289.98,-208.31 1271.44,-206.48 1254,-205 1219.73,-202.1 973.72,-205.92 945,-187 926.74,-174.97 941.51,-154.63 923,-143 907.31,-133.14 274.45,-134.74 256,-133 255.46,-132.95 254.91,-132.9 254.37,-132.84"/>
<polygon fill="#6f42c1" stroke="#6f42c1" stroke-width="2" points="254.43,-130.38 247.21,-132.07 253.9,-135.26 254.43,-130.38"/>
<text text-anchor="middle" x="957.5" y="-167.1" font-family="Times-Roman" font-size="8.00" fill="#6f42c1">about</text>
</g>
<!-- L4YAML.TokenParser.parseNodeContent._mutual._proof_19&#45;&gt;L4YAML.TokenParser.ParseState.tokens -->
<g id="edge19" class="edge">
<title>L4YAML.TokenParser.parseNodeContent._mutual._proof_19&#45;&gt;L4YAML.TokenParser.ParseState.tokens</title>
<path fill="none" stroke="#6f42c1" stroke-width="2" stroke-dasharray="5,2" d="M1306.22,-210.42C1288.82,-208.53 1270.89,-206.65 1254,-205 1206.72,-200.38 1079.56,-214.74 1041,-187 1023.71,-174.56 1039.68,-154.87 1022,-143 998.38,-127.14 538.29,-136.02 510,-133 509.23,-132.92 508.47,-132.83 507.7,-132.75"/>
<polygon fill="#6f42c1" stroke="#6f42c1" stroke-width="2" points="507.94,-130.31 500.69,-131.87 507.33,-135.17 507.94,-130.31"/>
<text text-anchor="middle" x="1053.5" y="-167.1" font-family="Times-Roman" font-size="8.00" fill="#6f42c1">about</text>
</g>
<!-- L4YAML.TokenParser.parseNodeContent._mutual.eq_def&#45;&gt;L4YAML.TokenParser.ParseState.anchors -->
<g id="edge4" class="edge">
<title>L4YAML.TokenParser.parseNodeContent._mutual.eq_def&#45;&gt;L4YAML.TokenParser.ParseState.anchors</title>
<path fill="none" stroke="#6f42c1" stroke-width="2" stroke-dasharray="5,2" d="M1588.95,-315.94C1707.88,-290.13 1922.19,-229.74 1837,-143 1826.23,-132.04 1299.32,-134.19 1284,-133 1272.79,-132.13 1261.04,-130.9 1249.43,-129.51"/>
<polygon fill="#6f42c1" stroke="#6f42c1" stroke-width="2" points="1249.48,-127.05 1242.23,-128.62 1248.88,-131.91 1249.48,-127.05"/>
<text text-anchor="middle" x="1860.5" y="-221.1" font-family="Times-Roman" font-size="8.00" fill="#6f42c1">about</text>
</g>
<!-- L4YAML.TokenParser.parseNodeContent._mutual.eq_def&#45;&gt;L4YAML.TokenParser.parseNodeContent._mutual -->
<g id="edge12" class="edge">
<title>L4YAML.TokenParser.parseNodeContent._mutual.eq_def&#45;&gt;L4YAML.TokenParser.parseNodeContent._mutual</title>
<path fill="none" stroke="#6f42c1" stroke-width="2" stroke-dasharray="5,2" d="M1445.39,-315.74C1363.75,-299.74 1225.17,-274.05 1105,-259 1041.14,-251 873.26,-238.73 762.39,-231.05"/>
<polygon fill="#6f42c1" stroke="#6f42c1" stroke-width="2" points="762.33,-228.59 755.17,-230.55 761.99,-233.47 762.33,-228.59"/>
<text text-anchor="middle" x="1341.5" y="-275.1" font-family="Times-Roman" font-size="8.00" fill="#6f42c1">about</text>
</g>
<!-- L4YAML.TokenParser.parseNodeContent._mutual.eq_def&#45;&gt;L4YAML.TokenParser.parseNodeContent._mutual._proof_27 -->
<g id="edge8" class="edge">
<title>L4YAML.TokenParser.parseNodeContent._mutual.eq_def&#45;&gt;L4YAML.TokenParser.parseNodeContent._mutual._proof_27</title>
<path fill="none" stroke="#28a745" stroke-width="2" d="M1530.77,-312.87C1551.21,-287 1582.84,-237.56 1557,-205 1549.88,-196.03 1530.74,-189.14 1508.41,-183.95"/>
<polygon fill="#28a745" stroke="#28a745" stroke-width="2" points="1508.76,-181.52 1501.39,-182.4 1507.7,-186.3 1508.76,-181.52"/>
<text text-anchor="middle" x="1571" y="-275.1" font-family="Times-Roman" font-size="8.00">uses</text>
</g>
<!-- L4YAML.TokenParser.parseNodeContent._mutual.eq_def&#45;&gt;L4YAML.TokenParser.parseNodeContent._mutual._proof_1 -->
<g id="edge6" class="edge">
<title>L4YAML.TokenParser.parseNodeContent._mutual.eq_def&#45;&gt;L4YAML.TokenParser.parseNodeContent._mutual._proof_1</title>
<path fill="none" stroke="#28a745" stroke-width="2" d="M1554.9,-313.7C1565.2,-308.49 1575.95,-302.18 1585,-295 1622.56,-265.19 1656.34,-220.18 1674.93,-193.08"/>
<polygon fill="#28a745" stroke="#28a745" stroke-width="2" points="1676.98,-194.43 1678.88,-187.26 1672.92,-191.68 1676.98,-194.43"/>
<text text-anchor="middle" x="1632" y="-275.1" font-family="Times-Roman" font-size="8.00">uses</text>
</g>
<!-- L4YAML.TokenParser.parseNodeContent._mutual.eq_def&#45;&gt;L4YAML.TokenParser.parseNodeContent._mutual._proof_19 -->
<g id="edge14" class="edge">
<title>L4YAML.TokenParser.parseNodeContent._mutual.eq_def&#45;&gt;L4YAML.TokenParser.parseNodeContent._mutual._proof_19</title>
<path fill="none" stroke="#28a745" stroke-width="2" d="M1498.49,-312.97C1479.82,-294.81 1450.18,-265.99 1429.72,-246.09"/>
<polygon fill="#28a745" stroke="#28a745" stroke-width="2" points="1431.2,-244.11 1424.47,-240.99 1427.78,-247.63 1431.2,-244.11"/>
<text text-anchor="middle" x="1487" y="-275.1" font-family="Times-Roman" font-size="8.00">uses</text>
</g>
</g>
</svg>
