<?xml version="1.0" encoding="UTF-8" standalone="no"?>
<!DOCTYPE svg PUBLIC "-//W3C//DTD SVG 1.1//EN"
 "http://www.w3.org/Graphics/SVG/1.1/DTD/svg11.dtd">
<!-- Generated by graphviz version 2.44.0 (0)
 -->
<!-- Title: chain_SchemaDump.dumpTyped_true Pages: 1 -->
<svg width="562pt" height="98pt"
 viewBox="0.00 0.00 562.00 97.92" xmlns="http://www.w3.org/2000/svg" xmlns:xlink="http://www.w3.org/1999/xlink">
<g id="graph0" class="graph" transform="scale(1 1) rotate(0) translate(4 93.92)">
<title>chain_SchemaDump.dumpTyped_true</title>
<polygon fill="white" stroke="transparent" points="-4,4 -4,-93.92 558,-93.92 558,4 -4,4"/>
<text text-anchor="middle" x="277" y="-75.52" font-family="Helvetica Bold" font-size="13.00">Functorial Chains: SchemaDump.dumpTyped_true</text>
<text text-anchor="middle" x="277" y="-61.52" font-family="Helvetica Bold" font-size="13.00">6.11 Typed dump round&#45;trips for concrete schema instances (bundle representative)</text>
<!-- L4YAML.Proofs.SchemaDump.dumpTyped_true -->
<g id="node1" class="node">
<title>L4YAML.Proofs.SchemaDump.dumpTyped_true</title>
<polygon fill="#fff3cd" stroke="black" points="394.74,-17.46 394.74,-36.46 325.77,-49.89 228.23,-49.89 159.26,-36.46 159.26,-17.46 228.23,-4.03 325.77,-4.03 394.74,-17.46"/>
<polygon fill="none" stroke="black" points="398.73,-14.17 398.73,-39.75 326.15,-53.88 227.85,-53.88 155.27,-39.75 155.27,-14.17 227.85,-0.04 326.15,-0.04 398.73,-14.17"/>
<text text-anchor="middle" x="277" y="-29.96" font-family="Helvetica" font-size="10.00">SchemaDump.dumpTyped_true</text>
<text text-anchor="middle" x="277" y="-18.96" font-family="Helvetica" font-size="10.00">(no functorial chains found)</text>
</g>
</g>
</svg>
