<?xml version="1.0" encoding="UTF-8" standalone="no"?>
<!DOCTYPE svg PUBLIC "-//W3C//DTD SVG 1.1//EN"
 "http://www.w3.org/Graphics/SVG/1.1/DTD/svg11.dtd">
<!-- Generated by graphviz version 2.44.0 (0)
 -->
<!-- Title: SchemaDump.dumpTyped_true Pages: 1 -->
<svg width="641pt" height="364pt"
 viewBox="0.00 0.00 640.56 364.00" xmlns="http://www.w3.org/2000/svg" xmlns:xlink="http://www.w3.org/1999/xlink">
<g id="graph0" class="graph" transform="scale(1 1) rotate(0) translate(4 360)">
<title>SchemaDump.dumpTyped_true</title>
<polygon fill="white" stroke="transparent" points="-4,4 -4,-360 636.56,-360 636.56,4 -4,4"/>
<text text-anchor="middle" x="316.28" y="-341.6" font-family="Helvetica Bold" font-size="13.00">SchemaDump.dumpTyped_true</text>
<text text-anchor="middle" x="316.28" y="-327.6" font-family="Helvetica Bold" font-size="13.00">6.11 Typed dump round&#45;trips for concrete schema instances (bundle representative)</text>
<text text-anchor="middle" x="316.28" y="-313.6" font-family="Helvetica Bold" font-size="13.00">(L4YAML.Proofs.Schema.SchemaDump)</text>
<g id="clust1" class="cluster">
<title>cluster_functions</title>
<polygon fill="none" stroke="#4a90d9" stroke-dasharray="5,2" points="473.56,-8 473.56,-298 624.56,-298 624.56,-8 473.56,-8"/>
<text text-anchor="middle" x="549.06" y="-283.6" font-family="Helvetica Bold" font-size="13.00" fill="#4a90d9">Functions</text>
</g>
<g id="clust2" class="cluster">
<title>cluster_key</title>
<polygon fill="none" stroke="#d4a017" stroke-dasharray="5,2" points="158.02,-112 158.02,-194 428.56,-194 428.56,-112 158.02,-112"/>
<text text-anchor="middle" x="293.29" y="-179.6" font-family="Helvetica Bold" font-size="13.00" fill="#d4a017">Key Theorem</text>
</g>
<g id="clust4" class="cluster">
<title>cluster_stdlib</title>
<polygon fill="none" stroke="#e67e22" stroke-dasharray="5,2" points="8,-116 8,-190 137.02,-190 137.02,-116 8,-116"/>
<text text-anchor="middle" x="72.51" y="-175.6" font-family="Helvetica Bold" font-size="13.00" fill="#e67e22">Stdlib Lemmas</text>
</g>
<!-- L4YAML.Schema.Dump.dumpTyped -->
<g id="node1" class="node">
<title>L4YAML.Schema.Dump.dumpTyped</title>
<g id="a_node1"><a xlink:href="../../../api/L4YAML/Schema/Dump.html#L4YAML.Schema.Dump.dumpTyped" xlink:title="Schema.Dump.dumpTyped\n(def)" target="_blank">
<polygon fill="#dce9f7" stroke="#4a90d9" points="616.56,-268 481.56,-268 481.56,-232 616.56,-232 616.56,-268"/>
<text text-anchor="middle" x="549.06" y="-253" font-family="Helvetica" font-size="10.00">Schema.Dump.dumpTyped</text>
<text text-anchor="middle" x="549.06" y="-242" font-family="Helvetica" font-size="10.00">(def)</text>
</a>
</g>
</g>
<!-- L4YAML.Dump.DefaultStyle.block -->
<g id="node2" class="node">
<title>L4YAML.Dump.DefaultStyle.block</title>
<g id="a_node2"><a xlink:href="../../../api/L4YAML/Output/Dump.html#L4YAML.Dump.DefaultStyle.block" xlink:title="Dump.DefaultStyle.block\n(ctor)" target="_blank">
<polygon fill="#dce9f7" stroke="#4a90d9" points="612.06,-214 486.06,-214 486.06,-178 612.06,-178 612.06,-214"/>
<text text-anchor="middle" x="549.06" y="-199" font-family="Helvetica" font-size="10.00">Dump.DefaultStyle.block</text>
<text text-anchor="middle" x="549.06" y="-188" font-family="Helvetica" font-size="10.00">(ctor)</text>
</a>
</g>
</g>
<!-- L4YAML.Dump.ScalarPref.auto -->
<g id="node3" class="node">
<title>L4YAML.Dump.ScalarPref.auto</title>
<g id="a_node3"><a xlink:href="../../../api/L4YAML/Output/Dump.html#L4YAML.Dump.ScalarPref.auto" xlink:title="Dump.ScalarPref.auto\n(ctor)" target="_blank">
<polygon fill="#dce9f7" stroke="#4a90d9" points="605.56,-160 492.56,-160 492.56,-124 605.56,-124 605.56,-160"/>
<text text-anchor="middle" x="549.06" y="-145" font-family="Helvetica" font-size="10.00">Dump.ScalarPref.auto</text>
<text text-anchor="middle" x="549.06" y="-134" font-family="Helvetica" font-size="10.00">(ctor)</text>
</a>
</g>
</g>
<!-- L4YAML.Schema.instToYamlBool -->
<g id="node4" class="node">
<title>L4YAML.Schema.instToYamlBool</title>
<g id="a_node4"><a xlink:href="../../../api/L4YAML/Schema/FromToYaml.html#L4YAML.Schema.instToYamlBool" xlink:title="Schema.instToYamlBool\n(def)" target="_blank">
<polygon fill="#dce9f7" stroke="#4a90d9" points="610.56,-106 487.56,-106 487.56,-70 610.56,-70 610.56,-106"/>
<text text-anchor="middle" x="549.06" y="-91" font-family="Helvetica" font-size="10.00">Schema.instToYamlBool</text>
<text text-anchor="middle" x="549.06" y="-80" font-family="Helvetica" font-size="10.00">(def)</text>
</a>
</g>
</g>
<!-- L4YAML.Dump.DumpConfig.mk -->
<g id="node5" class="node">
<title>L4YAML.Dump.DumpConfig.mk</title>
<g id="a_node5"><a xlink:href="../../../api/L4YAML/Output/Dump.html#L4YAML.Dump.DumpConfig.mk" xlink:title="Dump.DumpConfig.mk\n(ctor)" target="_blank">
<polygon fill="#dce9f7" stroke="#4a90d9" points="607.56,-52 490.56,-52 490.56,-16 607.56,-16 607.56,-52"/>
<text text-anchor="middle" x="549.06" y="-37" font-family="Helvetica" font-size="10.00">Dump.DumpConfig.mk</text>
<text text-anchor="middle" x="549.06" y="-26" font-family="Helvetica" font-size="10.00">(ctor)</text>
</a>
</g>
</g>
<!-- L4YAML.Proofs.SchemaDump.dumpTyped_true -->
<g id="node6" class="node">
<title>L4YAML.Proofs.SchemaDump.dumpTyped_true</title>
<g id="a_node6"><a xlink:href="../../../api/L4YAML/Proofs/Schema/SchemaDump.html#L4YAML.Proofs.SchemaDump.dumpTyped_true" xlink:title="SchemaDump.dumpTyped_true" target="_blank">
<polygon fill="#fff3cd" stroke="#d4a017" points="416.33,-134.54 416.33,-149.46 344.26,-160 242.32,-160 170.25,-149.46 170.25,-134.54 242.32,-124 344.26,-124 416.33,-134.54"/>
<polygon fill="none" stroke="#d4a017" points="420.32,-131.09 420.32,-152.91 344.55,-164 242.03,-164 166.26,-152.91 166.26,-131.09 242.03,-120 344.55,-120 420.32,-131.09"/>
<text text-anchor="middle" x="293.29" y="-138.9" font-family="Helvetica" font-size="12.00">SchemaDump.dumpTyped_true</text>
</a>
</g>
</g>
<!-- L4YAML.Proofs.SchemaDump.dumpTyped_true&#45;&gt;L4YAML.Schema.Dump.dumpTyped -->
<g id="edge2" class="edge">
<title>L4YAML.Proofs.SchemaDump.dumpTyped_true&#45;&gt;L4YAML.Schema.Dump.dumpTyped</title>
<path fill="none" stroke="#4a90d9" stroke-width="2" d="M340.67,-164.14C376.62,-181.01 427.84,-204.42 473.56,-223 478.87,-225.16 484.43,-227.33 490.01,-229.45"/>
<polygon fill="#4a90d9" stroke="#4a90d9" stroke-width="2" points="489.15,-231.75 496.56,-231.92 490.87,-227.16 489.15,-231.75"/>
<text text-anchor="middle" x="451.06" y="-218.6" font-family="Times-Roman" font-size="8.00" fill="#4a90d9">about</text>
</g>
<!-- L4YAML.Proofs.SchemaDump.dumpTyped_true&#45;&gt;L4YAML.Dump.DefaultStyle.block -->
<g id="edge4" class="edge">
<title>L4YAML.Proofs.SchemaDump.dumpTyped_true&#45;&gt;L4YAML.Dump.DefaultStyle.block</title>
<path fill="none" stroke="#4a90d9" stroke-width="2" d="M376.33,-159.46C409.45,-166.5 447.24,-174.55 478.93,-181.29"/>
<polygon fill="#4a90d9" stroke="#4a90d9" stroke-width="2" points="478.65,-183.74 486.01,-182.8 479.67,-178.94 478.65,-183.74"/>
<text text-anchor="middle" x="451.06" y="-178.6" font-family="Times-Roman" font-size="8.00" fill="#4a90d9">about</text>
</g>
<!-- L4YAML.Proofs.SchemaDump.dumpTyped_true&#45;&gt;L4YAML.Dump.ScalarPref.auto -->
<g id="edge5" class="edge">
<title>L4YAML.Proofs.SchemaDump.dumpTyped_true&#45;&gt;L4YAML.Dump.ScalarPref.auto</title>
<path fill="none" stroke="#4a90d9" stroke-width="2" d="M420.43,-142C442.92,-142 465.44,-142 485.17,-142"/>
<polygon fill="#4a90d9" stroke="#4a90d9" stroke-width="2" points="485.3,-144.45 492.3,-142 485.3,-139.55 485.3,-144.45"/>
<text text-anchor="middle" x="451.06" y="-144.6" font-family="Times-Roman" font-size="8.00" fill="#4a90d9">about</text>
</g>
<!-- L4YAML.Proofs.SchemaDump.dumpTyped_true&#45;&gt;L4YAML.Schema.instToYamlBool -->
<g id="edge1" class="edge">
<title>L4YAML.Proofs.SchemaDump.dumpTyped_true&#45;&gt;L4YAML.Schema.instToYamlBool</title>
<path fill="none" stroke="#4a90d9" stroke-width="2" d="M376.33,-124.54C409.85,-117.41 448.17,-109.26 480.09,-102.46"/>
<polygon fill="#4a90d9" stroke="#4a90d9" stroke-width="2" points="480.88,-104.8 487.21,-100.95 479.86,-100.01 480.88,-104.8"/>
<text text-anchor="middle" x="451.06" y="-112.6" font-family="Times-Roman" font-size="8.00" fill="#4a90d9">about</text>
</g>
<!-- L4YAML.Proofs.SchemaDump.dumpTyped_true&#45;&gt;L4YAML.Dump.DumpConfig.mk -->
<g id="edge3" class="edge">
<title>L4YAML.Proofs.SchemaDump.dumpTyped_true&#45;&gt;L4YAML.Dump.DumpConfig.mk</title>
<path fill="none" stroke="#4a90d9" stroke-width="2" d="M340.67,-119.86C376.62,-102.99 427.84,-79.58 473.56,-61 478.87,-58.84 484.43,-56.67 490.01,-54.55"/>
<polygon fill="#4a90d9" stroke="#4a90d9" stroke-width="2" points="490.87,-56.84 496.56,-52.08 489.15,-52.25 490.87,-56.84"/>
<text text-anchor="middle" x="451.06" y="-77.6" font-family="Times-Roman" font-size="8.00" fill="#4a90d9">about</text>
</g>
<!-- of_decide_eq_true -->
<g id="node7" class="node">
<title>of_decide_eq_true</title>
<g id="a_node7"><a xlink:href="../../../api/Init/Prelude.html#of_decide_eq_true" xlink:title="of_decide_eq_true" target="_blank">
<ellipse fill="#fdebd0" stroke="#e67e22" cx="72.51" cy="-142" rx="56.52" ry="18"/>
<text text-anchor="middle" x="72.51" y="-139.5" font-family="Helvetica" font-size="10.00">of_decide_eq_true</text>
</a>
</g>
</g>
<!-- of_decide_eq_true&#45;&gt;L4YAML.Proofs.SchemaDump.dumpTyped_true -->
<g id="edge6" class="edge">
<title>of_decide_eq_true&#45;&gt;L4YAML.Proofs.SchemaDump.dumpTyped_true</title>
<path fill="none" stroke="#e67e22" stroke-width="2" d="M129.28,-142C138.54,-142 148.48,-142 158.72,-142"/>
<polygon fill="#e67e22" stroke="#e67e22" stroke-width="2" points="158.85,-144.45 165.84,-142 158.84,-139.55 158.85,-144.45"/>
</g>
</g>
</svg>
