<?xml version="1.0" encoding="UTF-8" standalone="no"?>
<!DOCTYPE svg PUBLIC "-//W3C//DTD SVG 1.1//EN"
 "http://www.w3.org/Graphics/SVG/1.1/DTD/svg11.dtd">
<!-- Generated by graphviz version 2.44.0 (0)
 -->
<!-- Title: RoundTrip.contentEq_symm Pages: 1 -->
<svg width="695pt" height="233pt"
 viewBox="0.00 0.00 694.87 233.00" xmlns="http://www.w3.org/2000/svg" xmlns:xlink="http://www.w3.org/1999/xlink">
<g id="graph0" class="graph" transform="scale(1 1) rotate(0) translate(4 229)">
<title>RoundTrip.contentEq_symm</title>
<polygon fill="white" stroke="transparent" points="-4,4 -4,-229 690.87,-229 690.87,4 -4,4"/>
<text text-anchor="middle" x="343.44" y="-210.6" font-family="Helvetica Bold" font-size="13.00">RoundTrip.contentEq_symm</text>
<text text-anchor="middle" x="343.44" y="-196.6" font-family="Helvetica Bold" font-size="13.00">6.3 contentEq is symmetric</text>
<text text-anchor="middle" x="343.44" y="-182.6" font-family="Helvetica Bold" font-size="13.00">(L4YAML.Proofs.RoundTrip.RoundTrip)</text>
<g id="clust1" class="cluster">
<title>cluster_functions</title>
<polygon fill="none" stroke="#4a90d9" stroke-dasharray="5,2" points="579.87,-28 579.87,-156 678.87,-156 678.87,-28 579.87,-28"/>
<text text-anchor="middle" x="629.37" y="-141.6" font-family="Helvetica Bold" font-size="13.00" fill="#4a90d9">Functions</text>
</g>
<g id="clust2" class="cluster">
<title>cluster_key</title>
<polygon fill="none" stroke="#d4a017" stroke-dasharray="5,2" points="289.66,-8 289.66,-90 534.87,-90 534.87,-8 289.66,-8"/>
<text text-anchor="middle" x="412.27" y="-75.6" font-family="Helvetica Bold" font-size="13.00" fill="#d4a017">Key Theorem</text>
</g>
<g id="clust3" class="cluster">
<title>cluster_proofs</title>
<polygon fill="none" stroke="#28a745" stroke-dasharray="5,2" points="8,-87 8,-167 268.66,-167 268.66,-87 8,-87"/>
<text text-anchor="middle" x="138.33" y="-152.6" font-family="Helvetica Bold" font-size="13.00" fill="#28a745">Proof Dependencies</text>
</g>
<!-- L4YAML.YamlValue -->
<g id="node1" class="node">
<title>L4YAML.YamlValue</title>
<g id="a_node1"><a xlink:href="../../../api/L4YAML/Spec/Types.html#L4YAML.YamlValue" xlink:title="YamlValue\n(inductive)" target="_blank">
<polygon fill="#dce9f7" stroke="#4a90d9" points="660.37,-126 598.37,-126 598.37,-90 660.37,-90 660.37,-126"/>
<text text-anchor="middle" x="629.37" y="-111" font-family="Helvetica" font-size="10.00">YamlValue</text>
<text text-anchor="middle" x="629.37" y="-100" font-family="Helvetica" font-size="10.00">(inductive)</text>
</a>
</g>
</g>
<!-- L4YAML.Emit.contentEq -->
<g id="node2" class="node">
<title>L4YAML.Emit.contentEq</title>
<g id="a_node2"><a xlink:href="../../../api/L4YAML/Output/Emitter.html#L4YAML.Emit.contentEq" xlink:title="Emit.contentEq\n(def)" target="_blank">
<polygon fill="#dce9f7" stroke="#4a90d9" points="670.87,-72 587.87,-72 587.87,-36 670.87,-36 670.87,-72"/>
<text text-anchor="middle" x="629.37" y="-57" font-family="Helvetica" font-size="10.00">Emit.contentEq</text>
<text text-anchor="middle" x="629.37" y="-46" font-family="Helvetica" font-size="10.00">(def)</text>
</a>
</g>
</g>
<!-- L4YAML.Proofs.RoundTrip.contentEq_symm -->
<g id="node3" class="node">
<title>L4YAML.Proofs.RoundTrip.contentEq_symm</title>
<g id="a_node3"><a xlink:href="../../../api/L4YAML/Proofs/RoundTrip/RoundTrip.html#L4YAML.Proofs.RoundTrip.contentEq_symm" xlink:title="RoundTrip.contentEq_symm" target="_blank">
<polygon fill="#fff3cd" stroke="#d4a017" points="522.98,-30.54 522.98,-45.46 458.12,-56 366.41,-56 301.56,-45.46 301.56,-30.54 366.41,-20 458.12,-20 522.98,-30.54"/>
<polygon fill="none" stroke="#d4a017" points="526.98,-27.14 526.98,-48.86 458.45,-60 366.08,-60 297.55,-48.86 297.55,-27.14 366.08,-16 458.45,-16 526.98,-27.14"/>
<text text-anchor="middle" x="412.27" y="-34.9" font-family="Helvetica" font-size="12.00">RoundTrip.contentEq_symm</text>
</a>
</g>
</g>
<!-- L4YAML.Proofs.RoundTrip.contentEq_symm&#45;&gt;L4YAML.YamlValue -->
<g id="edge2" class="edge">
<title>L4YAML.Proofs.RoundTrip.contentEq_symm&#45;&gt;L4YAML.YamlValue</title>
<path fill="none" stroke="#4a90d9" stroke-width="2" d="M473.47,-57.59C511.41,-69.94 559.18,-85.48 591.57,-96.02"/>
<polygon fill="#4a90d9" stroke="#4a90d9" stroke-width="2" points="590.82,-98.36 598.24,-98.19 592.34,-93.7 590.82,-98.36"/>
<text text-anchor="middle" x="557.37" y="-89.6" font-family="Times-Roman" font-size="8.00" fill="#4a90d9">about</text>
</g>
<!-- L4YAML.Proofs.RoundTrip.contentEq_symm&#45;&gt;L4YAML.Emit.contentEq -->
<g id="edge1" class="edge">
<title>L4YAML.Proofs.RoundTrip.contentEq_symm&#45;&gt;L4YAML.Emit.contentEq</title>
<path fill="none" stroke="#4a90d9" stroke-width="2" d="M527.12,-46.47C545.99,-47.87 564.61,-49.26 580.63,-50.45"/>
<polygon fill="#4a90d9" stroke="#4a90d9" stroke-width="2" points="580.64,-52.91 587.8,-50.98 581,-48.02 580.64,-52.91"/>
<text text-anchor="middle" x="557.37" y="-52.6" font-family="Times-Roman" font-size="8.00" fill="#4a90d9">about</text>
</g>
<!-- L4YAML.Proofs.RoundTrip.contentEq_symm._unary -->
<g id="node4" class="node">
<title>L4YAML.Proofs.RoundTrip.contentEq_symm._unary</title>
<g id="a_node4"><a xlink:href="../../../api/L4YAML/Proofs/RoundTrip/RoundTrip.html#L4YAML.Proofs.RoundTrip.contentEq_symm._unary" xlink:title="RoundTrip.contentEq_symm._unary\n(RoundTrip.RoundTrip)" target="_blank">
<ellipse fill="#d4edda" stroke="#28a745" cx="138.33" cy="-116" rx="122.16" ry="21.43"/>
<text text-anchor="middle" x="138.33" y="-119" font-family="Helvetica" font-size="10.00">RoundTrip.contentEq_symm._unary</text>
<text text-anchor="middle" x="138.33" y="-108" font-family="Helvetica" font-size="10.00">(RoundTrip.RoundTrip)</text>
</a>
</g>
</g>
<!-- L4YAML.Proofs.RoundTrip.contentEq_symm._unary&#45;&gt;L4YAML.YamlValue -->
<g id="edge5" class="edge">
<title>L4YAML.Proofs.RoundTrip.contentEq_symm._unary&#45;&gt;L4YAML.YamlValue</title>
<path fill="none" stroke="#6f42c1" stroke-width="2" stroke-dasharray="5,2" d="M241.58,-127.46C254.06,-128.5 266.64,-129.4 278.66,-130 407.93,-136.48 442.53,-153.15 569.87,-130 577.74,-128.57 585.93,-126.14 593.6,-123.4"/>
<polygon fill="#6f42c1" stroke="#6f42c1" stroke-width="2" points="594.21,-125.04 598.3,-121.67 593,-121.76 594.21,-125.04"/>
<text text-anchor="middle" x="412.27" y="-143.4" font-family="Times-Roman" font-size="7.00" fill="#6f42c1">about</text>
</g>
<!-- L4YAML.Proofs.RoundTrip.contentEq_symm._unary&#45;&gt;L4YAML.Emit.contentEq -->
<g id="edge4" class="edge">
<title>L4YAML.Proofs.RoundTrip.contentEq_symm._unary&#45;&gt;L4YAML.Emit.contentEq</title>
<path fill="none" stroke="#6f42c1" stroke-width="2" stroke-dasharray="5,2" d="M260.48,-117.64C378.63,-118.26 544.23,-116.14 569.87,-100 577.95,-94.92 573.2,-87.83 579.87,-81 581.81,-79.02 583.92,-77.14 586.15,-75.37"/>
<polygon fill="#6f42c1" stroke="#6f42c1" stroke-width="2" points="587.3,-76.69 590.26,-72.3 585.21,-73.89 587.3,-76.69"/>
<text text-anchor="middle" x="412.27" y="-119.4" font-family="Times-Roman" font-size="7.00" fill="#6f42c1">about</text>
</g>
<!-- L4YAML.Proofs.RoundTrip.contentEq_symm._unary&#45;&gt;L4YAML.Proofs.RoundTrip.contentEq_symm -->
<g id="edge3" class="edge">
<title>L4YAML.Proofs.RoundTrip.contentEq_symm._unary&#45;&gt;L4YAML.Proofs.RoundTrip.contentEq_symm</title>
<path fill="none" stroke="#28a745" d="M202.4,-97.91C243.12,-86.23 296.23,-70.99 338.71,-58.81"/>
<polygon fill="#28a745" stroke="#28a745" points="339.64,-61.09 345.7,-56.81 338.29,-56.38 339.64,-61.09"/>
</g>
</g>
</svg>
