<?xml version="1.0" encoding="UTF-8" standalone="no"?>
<!DOCTYPE svg PUBLIC "-//W3C//DTD SVG 1.1//EN"
 "http://www.w3.org/Graphics/SVG/1.1/DTD/svg11.dtd">
<!-- Generated by graphviz version 2.44.0 (0)
 -->
<!-- Title: chain_RoundTrip.escapeTag_roundtrip Pages: 1 -->
<svg width="352pt" height="98pt"
 viewBox="0.00 0.00 352.00 97.92" xmlns="http://www.w3.org/2000/svg" xmlns:xlink="http://www.w3.org/1999/xlink">
<g id="graph0" class="graph" transform="scale(1 1) rotate(0) translate(4 93.92)">
<title>chain_RoundTrip.escapeTag_roundtrip</title>
<polygon fill="white" stroke="transparent" points="-4,4 -4,-93.92 348,-93.92 348,4 -4,4"/>
<text text-anchor="middle" x="172" y="-75.52" font-family="Helvetica Bold" font-size="13.00">Functorial Chains: RoundTrip.escapeTag_roundtrip</text>
<text text-anchor="middle" x="172" y="-61.52" font-family="Helvetica Bold" font-size="13.00">6.6 Tag escaping round&#45;trips</text>
<!-- L4YAML.Proofs.RoundTrip.escapeTag_roundtrip -->
<g id="node1" class="node">
<title>L4YAML.Proofs.RoundTrip.escapeTag_roundtrip</title>
<polygon fill="#fff3cd" stroke="black" points="289.74,-17.46 289.74,-36.46 220.77,-49.89 123.23,-49.89 54.26,-36.46 54.26,-17.46 123.23,-4.03 220.77,-4.03 289.74,-17.46"/>
<polygon fill="none" stroke="black" points="293.73,-14.17 293.73,-39.75 221.15,-53.88 122.85,-53.88 50.27,-39.75 50.27,-14.17 122.85,-0.04 221.15,-0.04 293.73,-14.17"/>
<text text-anchor="middle" x="172" y="-29.96" font-family="Helvetica" font-size="10.00">RoundTrip.escapeTag_roundtrip</text>
<text text-anchor="middle" x="172" y="-18.96" font-family="Helvetica" font-size="10.00">(no functorial chains found)</text>
</g>
</g>
</svg>
