<?xml version="1.0" encoding="UTF-8" standalone="no"?>
<!DOCTYPE svg PUBLIC "-//W3C//DTD SVG 1.1//EN"
 "http://www.w3.org/Graphics/SVG/1.1/DTD/svg11.dtd">
<!-- Generated by graphviz version 2.44.0 (0)
 -->
<!-- Title: RoundTrip.escapeTag_roundtrip Pages: 1 -->
<svg width="1139pt" height="958pt"
 viewBox="0.00 0.00 1138.67 958.00" xmlns="http://www.w3.org/2000/svg" xmlns:xlink="http://www.w3.org/1999/xlink">
<g id="graph0" class="graph" transform="scale(1 1) rotate(0) translate(4 954)">
<title>RoundTrip.escapeTag_roundtrip</title>
<polygon fill="white" stroke="transparent" points="-4,4 -4,-954 1134.67,-954 1134.67,4 -4,4"/>
<text text-anchor="middle" x="565.33" y="-935.6" font-family="Helvetica Bold" font-size="13.00">RoundTrip.escapeTag_roundtrip</text>
<text text-anchor="middle" x="565.33" y="-921.6" font-family="Helvetica Bold" font-size="13.00">6.6 Tag escaping round&#45;trips</text>
<text text-anchor="middle" x="565.33" y="-907.6" font-family="Helvetica Bold" font-size="13.00">(L4YAML.Proofs.RoundTrip.RoundTrip)</text>
<g id="clust1" class="cluster">
<title>cluster_functions</title>
<polygon fill="none" stroke="#4a90d9" stroke-dasharray="5,2" points="676.57,-506 676.57,-688 1122.67,-688 1122.67,-506 676.57,-506"/>
<text text-anchor="middle" x="899.62" y="-673.6" font-family="Helvetica Bold" font-size="13.00" fill="#4a90d9">Functions</text>
</g>
<g id="clust2" class="cluster">
<title>cluster_key</title>
<polygon fill="none" stroke="#d4a017" stroke-dasharray="5,2" points="633.47,-416 633.47,-498 906.67,-498 906.67,-416 633.47,-416"/>
<text text-anchor="middle" x="770.07" y="-483.6" font-family="Helvetica Bold" font-size="13.00" fill="#d4a017">Key Theorem</text>
</g>
<g id="clust4" class="cluster">
<title>cluster_stdlib</title>
<polygon fill="none" stroke="#e67e22" stroke-dasharray="5,2" points="8,-8 8,-892 591.47,-892 591.47,-8 8,-8"/>
<text text-anchor="middle" x="299.74" y="-877.6" font-family="Helvetica Bold" font-size="13.00" fill="#e67e22">Stdlib Lemmas</text>
</g>
<!-- L4YAML.Proofs.RoundTrip.escapeTag -->
<g id="node1" class="node">
<title>L4YAML.Proofs.RoundTrip.escapeTag</title>
<g id="a_node1"><a xlink:href="../../../api/L4YAML/Proofs/RoundTrip/RoundTrip.html#L4YAML.Proofs.RoundTrip.escapeTag" xlink:title="RoundTrip.escapeTag\n(def)" target="_blank">
<polygon fill="#dce9f7" stroke="#4a90d9" points="1092.67,-658 981.67,-658 981.67,-622 1092.67,-622 1092.67,-658"/>
<text text-anchor="middle" x="1037.17" y="-643" font-family="Helvetica" font-size="10.00">RoundTrip.escapeTag</text>
<text text-anchor="middle" x="1037.17" y="-632" font-family="Helvetica" font-size="10.00">(def)</text>
</a>
</g>
</g>
<!-- L4YAML.Grammar.resolveNamedEscape -->
<g id="node2" class="node">
<title>L4YAML.Grammar.resolveNamedEscape</title>
<g id="a_node2"><a xlink:href="../../../api/L4YAML/Spec/Grammar.html#L4YAML.Grammar.resolveNamedEscape" xlink:title="Grammar.resolveNamedEscape\n(def)" target="_blank">
<polygon fill="#dce9f7" stroke="#4a90d9" points="1114.67,-604 959.67,-604 959.67,-568 1114.67,-568 1114.67,-604"/>
<text text-anchor="middle" x="1037.17" y="-589" font-family="Helvetica" font-size="10.00">Grammar.resolveNamedEscape</text>
<text text-anchor="middle" x="1037.17" y="-578" font-family="Helvetica" font-size="10.00">(def)</text>
</a>
</g>
</g>
<!-- L4YAML.Emit.escapeChar -->
<g id="node3" class="node">
<title>L4YAML.Emit.escapeChar</title>
<g id="a_node3"><a xlink:href="../../../api/L4YAML/Output/Emitter.html#L4YAML.Emit.escapeChar" xlink:title="Emit.escapeChar\n(def)" target="_blank">
<polygon fill="#dce9f7" stroke="#4a90d9" points="1083.17,-550 991.17,-550 991.17,-514 1083.17,-514 1083.17,-550"/>
<text text-anchor="middle" x="1037.17" y="-535" font-family="Helvetica" font-size="10.00">Emit.escapeChar</text>
<text text-anchor="middle" x="1037.17" y="-524" font-family="Helvetica" font-size="10.00">(def)</text>
</a>
</g>
</g>
<!-- L4YAML.Proofs.RoundTrip.isEscapedChar.match_1 -->
<g id="node4" class="node">
<title>L4YAML.Proofs.RoundTrip.isEscapedChar.match_1</title>
<g id="a_node4"><a xlink:href="../../../api/L4YAML/Proofs/RoundTrip/RoundTrip.html#L4YAML.Proofs.RoundTrip.isEscapedChar.match_1" xlink:title="RoundTrip.isEscapedChar.match_1\n(def)" target="_blank">
<polygon fill="#dce9f7" stroke="#4a90d9" points="855.57,-658 684.57,-658 684.57,-622 855.57,-622 855.57,-658"/>
<text text-anchor="middle" x="770.07" y="-643" font-family="Helvetica" font-size="10.00">RoundTrip.isEscapedChar.match_1</text>
<text text-anchor="middle" x="770.07" y="-632" font-family="Helvetica" font-size="10.00">(def)</text>
</a>
</g>
</g>
<!-- L4YAML.Proofs.RoundTrip.escapeTag_roundtrip -->
<g id="node5" class="node">
<title>L4YAML.Proofs.RoundTrip.escapeTag_roundtrip</title>
<g id="a_node5"><a xlink:href="../../../api/L4YAML/Proofs/RoundTrip/RoundTrip.html#L4YAML.Proofs.RoundTrip.escapeTag_roundtrip" xlink:title="RoundTrip.escapeTag_roundtrip" target="_blank">
<polygon fill="#fff3cd" stroke="#d4a017" points="894.77,-438.54 894.77,-453.46 821.72,-464 718.42,-464 645.37,-453.46 645.37,-438.54 718.42,-428 821.72,-428 894.77,-438.54"/>
<polygon fill="none" stroke="#d4a017" points="898.77,-435.08 898.77,-456.92 822.01,-468 718.13,-468 641.37,-456.92 641.37,-435.08 718.13,-424 822.01,-424 898.77,-435.08"/>
<text text-anchor="middle" x="770.07" y="-442.9" font-family="Helvetica" font-size="12.00">RoundTrip.escapeTag_roundtrip</text>
</a>
</g>
</g>
<!-- L4YAML.Proofs.RoundTrip.escapeTag_roundtrip&#45;&gt;L4YAML.Proofs.RoundTrip.escapeTag -->
<g id="edge1" class="edge">
<title>L4YAML.Proofs.RoundTrip.escapeTag_roundtrip&#45;&gt;L4YAML.Proofs.RoundTrip.escapeTag</title>
<path fill="none" stroke="#4a90d9" stroke-width="2" d="M850.52,-464.05C871.49,-472.39 892.27,-484.49 906.67,-502 921.06,-519.5 907.73,-531.18 916.67,-552 929.76,-582.48 933.22,-592.98 959.67,-613 964.35,-616.54 969.54,-619.65 974.94,-622.37"/>
<polygon fill="#4a90d9" stroke="#4a90d9" stroke-width="2" points="973.98,-624.62 981.36,-625.38 976.06,-620.19 973.98,-624.62"/>
<text text-anchor="middle" x="929.17" y="-598.6" font-family="Times-Roman" font-size="8.00" fill="#4a90d9">about</text>
</g>
<!-- L4YAML.Proofs.RoundTrip.escapeTag_roundtrip&#45;&gt;L4YAML.Grammar.resolveNamedEscape -->
<g id="edge3" class="edge">
<title>L4YAML.Proofs.RoundTrip.escapeTag_roundtrip&#45;&gt;L4YAML.Grammar.resolveNamedEscape</title>
<path fill="none" stroke="#4a90d9" stroke-width="2" d="M835.39,-466.07C858.96,-475.06 885.12,-487.04 906.67,-502 913.77,-506.93 952.44,-554.26 959.67,-559 962.83,-561.08 966.18,-563.01 969.63,-564.82"/>
<polygon fill="#4a90d9" stroke="#4a90d9" stroke-width="2" points="968.57,-567.03 975.94,-567.93 970.74,-562.64 968.57,-567.03"/>
<text text-anchor="middle" x="929.17" y="-541.6" font-family="Times-Roman" font-size="8.00" fill="#4a90d9">about</text>
</g>
<!-- L4YAML.Proofs.RoundTrip.escapeTag_roundtrip&#45;&gt;L4YAML.Emit.escapeChar -->
<g id="edge2" class="edge">
<title>L4YAML.Proofs.RoundTrip.escapeTag_roundtrip&#45;&gt;L4YAML.Emit.escapeChar</title>
<path fill="none" stroke="#4a90d9" stroke-width="2" d="M833.9,-466.38C879.68,-481.23 940.97,-501.12 984.05,-515.09"/>
<polygon fill="#4a90d9" stroke="#4a90d9" stroke-width="2" points="983.38,-517.45 990.8,-517.28 984.9,-512.79 983.38,-517.45"/>
<text text-anchor="middle" x="929.17" y="-501.6" font-family="Times-Roman" font-size="8.00" fill="#4a90d9">about</text>
</g>
<!-- of_decide_eq_true -->
<g id="node6" class="node">
<title>of_decide_eq_true</title>
<g id="a_node6"><a xlink:href="../../../api/Init/Prelude.html#of_decide_eq_true" xlink:title="of_decide_eq_true" target="_blank">
<ellipse fill="#fdebd0" stroke="#e67e22" cx="299.74" cy="-88" rx="56.52" ry="18"/>
<text text-anchor="middle" x="299.74" y="-85.5" font-family="Helvetica" font-size="10.00">of_decide_eq_true</text>
</a>
</g>
</g>
<!-- of_decide_eq_true&#45;&gt;L4YAML.Proofs.RoundTrip.escapeTag_roundtrip -->
<g id="edge4" class="edge">
<title>of_decide_eq_true&#45;&gt;L4YAML.Proofs.RoundTrip.escapeTag_roundtrip</title>
<path fill="none" stroke="#e67e22" stroke-width="2" d="M349.52,-79.44C411.23,-71.35 518.27,-66.7 591.47,-115 700.98,-187.25 748.05,-350.35 763.19,-416.9"/>
<polygon fill="#e67e22" stroke="#e67e22" stroke-width="2" points="760.81,-417.47 764.72,-423.78 765.59,-416.41 760.81,-417.47"/>
</g>
<!-- _private.L4YAML.Proofs.RoundTrip.RoundTrip.0.L4YAML.Proofs.RoundTrip.isEscapedChar.match_1.eq_6 -->
<g id="node7" class="node">
<title>_private.L4YAML.Proofs.RoundTrip.RoundTrip.0.L4YAML.Proofs.RoundTrip.isEscapedChar.match_1.eq_6</title>
<g id="a_node7"><a xlink:href="../../../api/L4YAML/Proofs/RoundTrip/RoundTrip.html#_private.L4YAML.Proofs.RoundTrip.RoundTrip.0.L4YAML.Proofs.RoundTrip.isEscapedChar.match_1.eq_6" xlink:title="_private.L4YAML.Proofs.RoundTrip.RoundTrip.0.L4YAML.Proofs.RoundTrip.isEscapedChar.match_1.eq_6" target="_blank">
<ellipse fill="#fdebd0" stroke="#e67e22" cx="299.74" cy="-682" rx="280.58" ry="18"/>
<text text-anchor="middle" x="299.74" y="-679.5" font-family="Helvetica" font-size="10.00">_private.L4YAML.Proofs.RoundTrip.RoundTrip.0.L4YAML.Proofs.RoundTrip.isEscapedChar.match_1.eq_6</text>
</a>
</g>
</g>
<!-- _private.L4YAML.Proofs.RoundTrip.RoundTrip.0.L4YAML.Proofs.RoundTrip.isEscapedChar.match_1.eq_6&#45;&gt;L4YAML.Proofs.RoundTrip.isEscapedChar.match_1 -->
<g id="edge28" class="edge">
<title>_private.L4YAML.Proofs.RoundTrip.RoundTrip.0.L4YAML.Proofs.RoundTrip.isEscapedChar.match_1.eq_6&#45;&gt;L4YAML.Proofs.RoundTrip.isEscapedChar.match_1</title>
<path fill="none" stroke="#6f42c1" stroke-width="2" stroke-dasharray="5,2" d="M546.38,-690.61C562.04,-695.46 577.23,-701.51 591.47,-709 597.62,-712.23 595.18,-718.06 601.47,-721 610.33,-725.15 614.01,-723.46 623.47,-721 667.86,-709.49 713.1,-681.17 741.12,-661.28"/>
<polygon fill="#6f42c1" stroke="#6f42c1" stroke-width="2" points="742.42,-662.5 745.47,-658.16 740.38,-659.66 742.42,-662.5"/>
<text text-anchor="middle" x="612.47" y="-725.4" font-family="Times-Roman" font-size="7.00" fill="#6f42c1">about</text>
</g>
<!-- _private.L4YAML.Proofs.RoundTrip.RoundTrip.0.L4YAML.Proofs.RoundTrip.isEscapedChar.match_1.eq_6&#45;&gt;L4YAML.Proofs.RoundTrip.escapeTag_roundtrip -->
<g id="edge5" class="edge">
<title>_private.L4YAML.Proofs.RoundTrip.RoundTrip.0.L4YAML.Proofs.RoundTrip.isEscapedChar.match_1.eq_6&#45;&gt;L4YAML.Proofs.RoundTrip.escapeTag_roundtrip</title>
<path fill="none" stroke="#e67e22" stroke-width="2" d="M378.79,-699.3C444.82,-708.9 537.13,-709.62 591.47,-655 609.41,-636.97 591.87,-564.55 601.47,-541 602.53,-538.4 631.22,-503.67 633.47,-502 652.2,-488.12 674.87,-477.01 696.27,-468.46"/>
<polygon fill="#e67e22" stroke="#e67e22" stroke-width="2" points="697.24,-470.71 702.87,-465.89 695.46,-466.15 697.24,-470.71"/>
</g>
<!-- _private.L4YAML.Proofs.RoundTrip.RoundTrip.0.L4YAML.Proofs.RoundTrip.isEscapedChar.match_1.eq_7 -->
<g id="node8" class="node">
<title>_private.L4YAML.Proofs.RoundTrip.RoundTrip.0.L4YAML.Proofs.RoundTrip.isEscapedChar.match_1.eq_7</title>
<g id="a_node8"><a xlink:href="../../../api/L4YAML/Proofs/RoundTrip/RoundTrip.html#_private.L4YAML.Proofs.RoundTrip.RoundTrip.0.L4YAML.Proofs.RoundTrip.isEscapedChar.match_1.eq_7" xlink:title="_private.L4YAML.Proofs.RoundTrip.RoundTrip.0.L4YAML.Proofs.RoundTrip.isEscapedChar.match_1.eq_7" target="_blank">
<ellipse fill="#fdebd0" stroke="#e67e22" cx="299.74" cy="-466" rx="280.58" ry="18"/>
<text text-anchor="middle" x="299.74" y="-463.5" font-family="Helvetica" font-size="10.00">_private.L4YAML.Proofs.RoundTrip.RoundTrip.0.L4YAML.Proofs.RoundTrip.isEscapedChar.match_1.eq_7</text>
</a>
</g>
</g>
<!-- _private.L4YAML.Proofs.RoundTrip.RoundTrip.0.L4YAML.Proofs.RoundTrip.isEscapedChar.match_1.eq_7&#45;&gt;L4YAML.Proofs.RoundTrip.isEscapedChar.match_1 -->
<g id="edge25" class="edge">
<title>_private.L4YAML.Proofs.RoundTrip.RoundTrip.0.L4YAML.Proofs.RoundTrip.isEscapedChar.match_1.eq_7&#45;&gt;L4YAML.Proofs.RoundTrip.isEscapedChar.match_1</title>
<path fill="none" stroke="#6f42c1" stroke-width="2" stroke-dasharray="5,2" d="M536.95,-475.74C555.74,-480.18 574.14,-485.83 591.47,-493 659.18,-520.99 720.87,-584.12 750.52,-617.82"/>
<polygon fill="#6f42c1" stroke="#6f42c1" stroke-width="2" points="749.37,-619.16 753.98,-621.78 752.01,-616.86 749.37,-619.16"/>
<text text-anchor="middle" x="612.47" y="-508.4" font-family="Times-Roman" font-size="7.00" fill="#6f42c1">about</text>
</g>
<!-- _private.L4YAML.Proofs.RoundTrip.RoundTrip.0.L4YAML.Proofs.RoundTrip.isEscapedChar.match_1.eq_7&#45;&gt;L4YAML.Proofs.RoundTrip.escapeTag_roundtrip -->
<g id="edge6" class="edge">
<title>_private.L4YAML.Proofs.RoundTrip.RoundTrip.0.L4YAML.Proofs.RoundTrip.isEscapedChar.match_1.eq_7&#45;&gt;L4YAML.Proofs.RoundTrip.escapeTag_roundtrip</title>
<path fill="none" stroke="#e67e22" stroke-width="2" d="M432.86,-450.11C491.21,-444.55 560.68,-439.92 623.47,-441 627.02,-441.06 630.61,-441.13 634.23,-441.21"/>
<polygon fill="#e67e22" stroke="#e67e22" stroke-width="2" points="634.19,-443.66 641.24,-441.36 634.3,-438.76 634.19,-443.66"/>
</g>
<!-- Option.some.injEq -->
<g id="node9" class="node">
<title>Option.some.injEq</title>
<g id="a_node9"><a xlink:href="../../../api/Init/Core.html#Option.some.injEq" xlink:title="Option.some.injEq" target="_blank">
<ellipse fill="#fdebd0" stroke="#e67e22" cx="299.74" cy="-196" rx="57.2" ry="18"/>
<text text-anchor="middle" x="299.74" y="-193.5" font-family="Helvetica" font-size="10.00">Option.some.injEq</text>
</a>
</g>
</g>
<!-- Option.some.injEq&#45;&gt;L4YAML.Proofs.RoundTrip.escapeTag_roundtrip -->
<g id="edge7" class="edge">
<title>Option.some.injEq&#45;&gt;L4YAML.Proofs.RoundTrip.escapeTag_roundtrip</title>
<path fill="none" stroke="#e67e22" stroke-width="2" d="M353.86,-190.07C414.55,-185.69 515.28,-185.81 591.47,-223 675.96,-264.25 732.86,-367.08 756.58,-417.38"/>
<polygon fill="#e67e22" stroke="#e67e22" stroke-width="2" points="754.41,-418.51 759.58,-423.83 758.85,-416.45 754.41,-418.51"/>
</g>
<!-- _private.L4YAML.Proofs.RoundTrip.RoundTrip.0.L4YAML.Proofs.RoundTrip.isEscapedChar.match_1.eq_5 -->
<g id="node10" class="node">
<title>_private.L4YAML.Proofs.RoundTrip.RoundTrip.0.L4YAML.Proofs.RoundTrip.isEscapedChar.match_1.eq_5</title>
<g id="a_node10"><a xlink:href="../../../api/L4YAML/Proofs/RoundTrip/RoundTrip.html#_private.L4YAML.Proofs.RoundTrip.RoundTrip.0.L4YAML.Proofs.RoundTrip.isEscapedChar.match_1.eq_5" xlink:title="_private.L4YAML.Proofs.RoundTrip.RoundTrip.0.L4YAML.Proofs.RoundTrip.isEscapedChar.match_1.eq_5" target="_blank">
<ellipse fill="#fdebd0" stroke="#e67e22" cx="299.74" cy="-574" rx="280.58" ry="18"/>
<text text-anchor="middle" x="299.74" y="-571.5" font-family="Helvetica" font-size="10.00">_private.L4YAML.Proofs.RoundTrip.RoundTrip.0.L4YAML.Proofs.RoundTrip.isEscapedChar.match_1.eq_5</text>
</a>
</g>
</g>
<!-- _private.L4YAML.Proofs.RoundTrip.RoundTrip.0.L4YAML.Proofs.RoundTrip.isEscapedChar.match_1.eq_5&#45;&gt;L4YAML.Proofs.RoundTrip.isEscapedChar.match_1 -->
<g id="edge23" class="edge">
<title>_private.L4YAML.Proofs.RoundTrip.RoundTrip.0.L4YAML.Proofs.RoundTrip.isEscapedChar.match_1.eq_5&#45;&gt;L4YAML.Proofs.RoundTrip.isEscapedChar.match_1</title>
<path fill="none" stroke="#6f42c1" stroke-width="2" stroke-dasharray="5,2" d="M382.41,-556.76C447.71,-548.15 537.05,-548.8 591.47,-601 615.42,-623.97 576.48,-653.16 601.47,-675 639.43,-708.18 700.66,-682.03 737.66,-660.6"/>
<polygon fill="#6f42c1" stroke="#6f42c1" stroke-width="2" points="738.63,-662.06 742.05,-658.02 736.85,-659.05 738.63,-662.06"/>
<text text-anchor="middle" x="612.47" y="-688.4" font-family="Times-Roman" font-size="7.00" fill="#6f42c1">about</text>
</g>
<!-- _private.L4YAML.Proofs.RoundTrip.RoundTrip.0.L4YAML.Proofs.RoundTrip.isEscapedChar.match_1.eq_5&#45;&gt;L4YAML.Proofs.RoundTrip.escapeTag_roundtrip -->
<g id="edge8" class="edge">
<title>_private.L4YAML.Proofs.RoundTrip.RoundTrip.0.L4YAML.Proofs.RoundTrip.isEscapedChar.match_1.eq_5&#45;&gt;L4YAML.Proofs.RoundTrip.escapeTag_roundtrip</title>
<path fill="none" stroke="#e67e22" stroke-width="2" d="M386.13,-591.15C450.68,-598.81 537.17,-596.92 591.47,-547 610.08,-529.89 584.37,-509.63 601.47,-491 613.7,-477.68 629.41,-468.13 646.3,-461.31"/>
<polygon fill="#e67e22" stroke="#e67e22" stroke-width="2" points="647.4,-463.51 653.08,-458.74 645.66,-458.93 647.4,-463.51"/>
</g>
<!-- _private.L4YAML.Proofs.RoundTrip.RoundTrip.0.L4YAML.Proofs.RoundTrip.isEscapedChar.match_1.eq_1 -->
<g id="node11" class="node">
<title>_private.L4YAML.Proofs.RoundTrip.RoundTrip.0.L4YAML.Proofs.RoundTrip.isEscapedChar.match_1.eq_1</title>
<g id="a_node11"><a xlink:href="../../../api/L4YAML/Proofs/RoundTrip/RoundTrip.html#_private.L4YAML.Proofs.RoundTrip.RoundTrip.0.L4YAML.Proofs.RoundTrip.isEscapedChar.match_1.eq_1" xlink:title="_private.L4YAML.Proofs.RoundTrip.RoundTrip.0.L4YAML.Proofs.RoundTrip.isEscapedChar.match_1.eq_1" target="_blank">
<ellipse fill="#fdebd0" stroke="#e67e22" cx="299.74" cy="-412" rx="280.58" ry="18"/>
<text text-anchor="middle" x="299.74" y="-409.5" font-family="Helvetica" font-size="10.00">_private.L4YAML.Proofs.RoundTrip.RoundTrip.0.L4YAML.Proofs.RoundTrip.isEscapedChar.match_1.eq_1</text>
</a>
</g>
</g>
<!-- _private.L4YAML.Proofs.RoundTrip.RoundTrip.0.L4YAML.Proofs.RoundTrip.isEscapedChar.match_1.eq_1&#45;&gt;L4YAML.Proofs.RoundTrip.isEscapedChar.match_1 -->
<g id="edge29" class="edge">
<title>_private.L4YAML.Proofs.RoundTrip.RoundTrip.0.L4YAML.Proofs.RoundTrip.isEscapedChar.match_1.eq_1&#45;&gt;L4YAML.Proofs.RoundTrip.isEscapedChar.match_1</title>
<path fill="none" stroke="#6f42c1" stroke-width="2" stroke-dasharray="5,2" d="M550.53,-420.17C564.82,-425.2 578.59,-431.4 591.47,-439 613.24,-451.84 609.66,-464.84 623.47,-486 628.05,-493.02 628.28,-495.41 633.47,-502 668.5,-546.43 716.13,-592.13 744.62,-618.2"/>
<polygon fill="#6f42c1" stroke="#6f42c1" stroke-width="2" points="743.47,-619.52 748.34,-621.59 745.83,-616.93 743.47,-619.52"/>
<text text-anchor="middle" x="612.47" y="-488.4" font-family="Times-Roman" font-size="7.00" fill="#6f42c1">about</text>
</g>
<!-- _private.L4YAML.Proofs.RoundTrip.RoundTrip.0.L4YAML.Proofs.RoundTrip.isEscapedChar.match_1.eq_1&#45;&gt;L4YAML.Proofs.RoundTrip.escapeTag_roundtrip -->
<g id="edge9" class="edge">
<title>_private.L4YAML.Proofs.RoundTrip.RoundTrip.0.L4YAML.Proofs.RoundTrip.isEscapedChar.match_1.eq_1&#45;&gt;L4YAML.Proofs.RoundTrip.escapeTag_roundtrip</title>
<path fill="none" stroke="#e67e22" stroke-width="2" d="M380.16,-429.26C445.9,-438.47 537.04,-438.64 591.47,-385 606.28,-370.41 586.01,-305.89 601.47,-292 608.75,-285.47 614.49,-288.13 623.47,-292 682.89,-317.59 729.37,-380.68 752.66,-417.68"/>
<polygon fill="#e67e22" stroke="#e67e22" stroke-width="2" points="750.7,-419.16 756.46,-423.83 754.86,-416.59 750.7,-419.16"/>
</g>
<!-- _private.L4YAML.Proofs.RoundTrip.RoundTrip.0.L4YAML.Proofs.RoundTrip.isEscapedChar.match_1.eq_11 -->
<g id="node12" class="node">
<title>_private.L4YAML.Proofs.RoundTrip.RoundTrip.0.L4YAML.Proofs.RoundTrip.isEscapedChar.match_1.eq_11</title>
<g id="a_node12"><a xlink:href="../../../api/L4YAML/Proofs/RoundTrip/RoundTrip.html#_private.L4YAML.Proofs.RoundTrip.RoundTrip.0.L4YAML.Proofs.RoundTrip.isEscapedChar.match_1.eq_11" xlink:title="_private.L4YAML.Proofs.RoundTrip.RoundTrip.0.L4YAML.Proofs.RoundTrip.isEscapedChar.match_1.eq_11" target="_blank">
<ellipse fill="#fdebd0" stroke="#e67e22" cx="299.74" cy="-628" rx="283.97" ry="18"/>
<text text-anchor="middle" x="299.74" y="-625.5" font-family="Helvetica" font-size="10.00">_private.L4YAML.Proofs.RoundTrip.RoundTrip.0.L4YAML.Proofs.RoundTrip.isEscapedChar.match_1.eq_11</text>
</a>
</g>
</g>
<!-- _private.L4YAML.Proofs.RoundTrip.RoundTrip.0.L4YAML.Proofs.RoundTrip.isEscapedChar.match_1.eq_11&#45;&gt;L4YAML.Proofs.RoundTrip.isEscapedChar.match_1 -->
<g id="edge26" class="edge">
<title>_private.L4YAML.Proofs.RoundTrip.RoundTrip.0.L4YAML.Proofs.RoundTrip.isEscapedChar.match_1.eq_11&#45;&gt;L4YAML.Proofs.RoundTrip.isEscapedChar.match_1</title>
<path fill="none" stroke="#6f42c1" stroke-width="2" stroke-dasharray="5,2" d="M387.89,-610.88C452.09,-603.63 537.31,-606.06 591.47,-655 608.61,-670.49 583.64,-691.32 601.47,-706 609.02,-712.21 613.91,-708.07 623.47,-706 663.77,-697.29 706.33,-676.47 734.95,-660.52"/>
<polygon fill="#6f42c1" stroke="#6f42c1" stroke-width="2" points="735.92,-661.98 739.42,-658 734.21,-658.93 735.92,-661.98"/>
<text text-anchor="middle" x="612.47" y="-711.4" font-family="Times-Roman" font-size="7.00" fill="#6f42c1">about</text>
</g>
<!-- _private.L4YAML.Proofs.RoundTrip.RoundTrip.0.L4YAML.Proofs.RoundTrip.isEscapedChar.match_1.eq_11&#45;&gt;L4YAML.Proofs.RoundTrip.escapeTag_roundtrip -->
<g id="edge10" class="edge">
<title>_private.L4YAML.Proofs.RoundTrip.RoundTrip.0.L4YAML.Proofs.RoundTrip.isEscapedChar.match_1.eq_11&#45;&gt;L4YAML.Proofs.RoundTrip.escapeTag_roundtrip</title>
<path fill="none" stroke="#e67e22" stroke-width="2" d="M381,-645.26C446.59,-654.25 537.05,-654.1 591.47,-601 618.7,-574.43 578.82,-546.56 601.47,-516 619.46,-491.72 647.46,-475.81 675.46,-465.41"/>
<polygon fill="#e67e22" stroke="#e67e22" stroke-width="2" points="676.42,-467.67 682.19,-463.01 674.78,-463.05 676.42,-467.67"/>
</g>
<!-- _private.L4YAML.Proofs.RoundTrip.RoundTrip.0.L4YAML.Proofs.RoundTrip.isEscapedChar.match_1.eq_10 -->
<g id="node13" class="node">
<title>_private.L4YAML.Proofs.RoundTrip.RoundTrip.0.L4YAML.Proofs.RoundTrip.isEscapedChar.match_1.eq_10</title>
<g id="a_node13"><a xlink:href="../../../api/L4YAML/Proofs/RoundTrip/RoundTrip.html#_private.L4YAML.Proofs.RoundTrip.RoundTrip.0.L4YAML.Proofs.RoundTrip.isEscapedChar.match_1.eq_10" xlink:title="_private.L4YAML.Proofs.RoundTrip.RoundTrip.0.L4YAML.Proofs.RoundTrip.isEscapedChar.match_1.eq_10" target="_blank">
<ellipse fill="#fdebd0" stroke="#e67e22" cx="299.74" cy="-358" rx="283.97" ry="18"/>
<text text-anchor="middle" x="299.74" y="-355.5" font-family="Helvetica" font-size="10.00">_private.L4YAML.Proofs.RoundTrip.RoundTrip.0.L4YAML.Proofs.RoundTrip.isEscapedChar.match_1.eq_10</text>
</a>
</g>
</g>
<!-- _private.L4YAML.Proofs.RoundTrip.RoundTrip.0.L4YAML.Proofs.RoundTrip.isEscapedChar.match_1.eq_10&#45;&gt;L4YAML.Proofs.RoundTrip.isEscapedChar.match_1 -->
<g id="edge27" class="edge">
<title>_private.L4YAML.Proofs.RoundTrip.RoundTrip.0.L4YAML.Proofs.RoundTrip.isEscapedChar.match_1.eq_10&#45;&gt;L4YAML.Proofs.RoundTrip.isEscapedChar.match_1</title>
<path fill="none" stroke="#6f42c1" stroke-width="2" stroke-dasharray="5,2" d="M551.79,-366.27C565.64,-371.3 578.99,-377.48 591.47,-385 613.75,-398.43 614.25,-409.68 623.47,-434 634.3,-462.56 619.87,-474.65 633.47,-502 658.08,-551.51 707.11,-594.41 738.97,-618.72"/>
<polygon fill="#6f42c1" stroke="#6f42c1" stroke-width="2" points="738.12,-620.27 743.16,-621.89 740.23,-617.48 738.12,-620.27"/>
<text text-anchor="middle" x="612.47" y="-436.4" font-family="Times-Roman" font-size="7.00" fill="#6f42c1">about</text>
</g>
<!-- _private.L4YAML.Proofs.RoundTrip.RoundTrip.0.L4YAML.Proofs.RoundTrip.isEscapedChar.match_1.eq_10&#45;&gt;L4YAML.Proofs.RoundTrip.escapeTag_roundtrip -->
<g id="edge11" class="edge">
<title>_private.L4YAML.Proofs.RoundTrip.RoundTrip.0.L4YAML.Proofs.RoundTrip.isEscapedChar.match_1.eq_10&#45;&gt;L4YAML.Proofs.RoundTrip.escapeTag_roundtrip</title>
<path fill="none" stroke="#e67e22" stroke-width="2" d="M389.68,-375.09C453.52,-381.93 537.49,-379 591.47,-331 607.43,-316.81 584.87,-297.44 601.47,-284 609.07,-277.85 614.54,-280.02 623.47,-284 684.85,-311.36 731.18,-378.81 753.77,-417.5"/>
<polygon fill="#e67e22" stroke="#e67e22" stroke-width="2" points="751.84,-419.06 757.45,-423.91 756.09,-416.62 751.84,-419.06"/>
</g>
<!-- _private.L4YAML.Proofs.RoundTrip.RoundTrip.0.L4YAML.Proofs.RoundTrip.isEscapedChar.match_1.eq_4 -->
<g id="node14" class="node">
<title>_private.L4YAML.Proofs.RoundTrip.RoundTrip.0.L4YAML.Proofs.RoundTrip.isEscapedChar.match_1.eq_4</title>
<g id="a_node14"><a xlink:href="../../../api/L4YAML/Proofs/RoundTrip/RoundTrip.html#_private.L4YAML.Proofs.RoundTrip.RoundTrip.0.L4YAML.Proofs.RoundTrip.isEscapedChar.match_1.eq_4" xlink:title="_private.L4YAML.Proofs.RoundTrip.RoundTrip.0.L4YAML.Proofs.RoundTrip.isEscapedChar.match_1.eq_4" target="_blank">
<ellipse fill="#fdebd0" stroke="#e67e22" cx="299.74" cy="-844" rx="280.58" ry="18"/>
<text text-anchor="middle" x="299.74" y="-841.5" font-family="Helvetica" font-size="10.00">_private.L4YAML.Proofs.RoundTrip.RoundTrip.0.L4YAML.Proofs.RoundTrip.isEscapedChar.match_1.eq_4</text>
</a>
</g>
</g>
<!-- _private.L4YAML.Proofs.RoundTrip.RoundTrip.0.L4YAML.Proofs.RoundTrip.isEscapedChar.match_1.eq_4&#45;&gt;L4YAML.Proofs.RoundTrip.isEscapedChar.match_1 -->
<g id="edge31" class="edge">
<title>_private.L4YAML.Proofs.RoundTrip.RoundTrip.0.L4YAML.Proofs.RoundTrip.isEscapedChar.match_1.eq_4&#45;&gt;L4YAML.Proofs.RoundTrip.isEscapedChar.match_1</title>
<path fill="none" stroke="#6f42c1" stroke-width="2" stroke-dasharray="5,2" d="M542.24,-834.8C559.27,-830.16 575.86,-824.31 591.47,-817 666.09,-782.04 727.47,-702 754.38,-662.66"/>
<polygon fill="#6f42c1" stroke="#6f42c1" stroke-width="2" points="756.14,-663.19 757.49,-658.07 753.24,-661.23 756.14,-663.19"/>
<text text-anchor="middle" x="612.47" y="-812.4" font-family="Times-Roman" font-size="7.00" fill="#6f42c1">about</text>
</g>
<!-- _private.L4YAML.Proofs.RoundTrip.RoundTrip.0.L4YAML.Proofs.RoundTrip.isEscapedChar.match_1.eq_4&#45;&gt;L4YAML.Proofs.RoundTrip.escapeTag_roundtrip -->
<g id="edge12" class="edge">
<title>_private.L4YAML.Proofs.RoundTrip.RoundTrip.0.L4YAML.Proofs.RoundTrip.isEscapedChar.match_1.eq_4&#45;&gt;L4YAML.Proofs.RoundTrip.escapeTag_roundtrip</title>
<path fill="none" stroke="#e67e22" stroke-width="2" d="M376.38,-861.35C442.92,-871.69 537.38,-873.46 591.47,-817 606.94,-800.85 593.64,-636.94 601.47,-616 607.01,-601.18 617.44,-602.63 623.47,-588 638.13,-552.42 610.26,-532.69 633.47,-502 645.44,-486.17 662.69,-474.79 680.9,-466.61"/>
<polygon fill="#e67e22" stroke="#e67e22" stroke-width="2" points="682.16,-468.74 687.64,-463.74 680.24,-464.23 682.16,-468.74"/>
</g>
<!-- implies_congr -->
<g id="node15" class="node">
<title>implies_congr</title>
<g id="a_node15"><a xlink:href="../../../api/Init/SimpLemmas.html#implies_congr" xlink:title="implies_congr" target="_blank">
<ellipse fill="#fdebd0" stroke="#e67e22" cx="299.74" cy="-34" rx="45.15" ry="18"/>
<text text-anchor="middle" x="299.74" y="-31.5" font-family="Helvetica" font-size="10.00">implies_congr</text>
</a>
</g>
</g>
<!-- implies_congr&#45;&gt;L4YAML.Proofs.RoundTrip.escapeTag_roundtrip -->
<g id="edge13" class="edge">
<title>implies_congr&#45;&gt;L4YAML.Proofs.RoundTrip.escapeTag_roundtrip</title>
<path fill="none" stroke="#e67e22" stroke-width="2" d="M341.35,-26.45C401.47,-17.59 515.24,-9.94 591.47,-61 717.12,-145.15 755.48,-342.19 765.73,-416.73"/>
<polygon fill="#e67e22" stroke="#e67e22" stroke-width="2" points="763.34,-417.35 766.69,-423.97 768.2,-416.71 763.34,-417.35"/>
</g>
<!-- _private.L4YAML.Proofs.RoundTrip.RoundTrip.0.L4YAML.Proofs.RoundTrip.isEscapedChar.match_1.eq_12 -->
<g id="node16" class="node">
<title>_private.L4YAML.Proofs.RoundTrip.RoundTrip.0.L4YAML.Proofs.RoundTrip.isEscapedChar.match_1.eq_12</title>
<g id="a_node16"><a xlink:href="../../../api/L4YAML/Proofs/RoundTrip/RoundTrip.html#_private.L4YAML.Proofs.RoundTrip.RoundTrip.0.L4YAML.Proofs.RoundTrip.isEscapedChar.match_1.eq_12" xlink:title="_private.L4YAML.Proofs.RoundTrip.RoundTrip.0.L4YAML.Proofs.RoundTrip.isEscapedChar.match_1.eq_12" target="_blank">
<ellipse fill="#fdebd0" stroke="#e67e22" cx="299.74" cy="-304" rx="283.97" ry="18"/>
<text text-anchor="middle" x="299.74" y="-301.5" font-family="Helvetica" font-size="10.00">_private.L4YAML.Proofs.RoundTrip.RoundTrip.0.L4YAML.Proofs.RoundTrip.isEscapedChar.match_1.eq_12</text>
</a>
</g>
</g>
<!-- _private.L4YAML.Proofs.RoundTrip.RoundTrip.0.L4YAML.Proofs.RoundTrip.isEscapedChar.match_1.eq_12&#45;&gt;L4YAML.Proofs.RoundTrip.isEscapedChar.match_1 -->
<g id="edge30" class="edge">
<title>_private.L4YAML.Proofs.RoundTrip.RoundTrip.0.L4YAML.Proofs.RoundTrip.isEscapedChar.match_1.eq_12&#45;&gt;L4YAML.Proofs.RoundTrip.isEscapedChar.match_1</title>
<path fill="none" stroke="#6f42c1" stroke-width="2" stroke-dasharray="5,2" d="M551.79,-312.27C565.64,-317.3 578.99,-323.48 591.47,-331 613.75,-344.43 615.04,-355.39 623.47,-380 641.11,-431.47 610.83,-452.53 633.47,-502 656.41,-552.13 705.68,-594.7 738.08,-618.81"/>
<polygon fill="#6f42c1" stroke="#6f42c1" stroke-width="2" points="737.27,-620.39 742.34,-621.94 739.35,-617.57 737.27,-620.39"/>
<text text-anchor="middle" x="612.47" y="-382.4" font-family="Times-Roman" font-size="7.00" fill="#6f42c1">about</text>
</g>
<!-- _private.L4YAML.Proofs.RoundTrip.RoundTrip.0.L4YAML.Proofs.RoundTrip.isEscapedChar.match_1.eq_12&#45;&gt;L4YAML.Proofs.RoundTrip.escapeTag_roundtrip -->
<g id="edge14" class="edge">
<title>_private.L4YAML.Proofs.RoundTrip.RoundTrip.0.L4YAML.Proofs.RoundTrip.isEscapedChar.match_1.eq_12&#45;&gt;L4YAML.Proofs.RoundTrip.escapeTag_roundtrip</title>
<path fill="none" stroke="#e67e22" stroke-width="2" d="M462.23,-289.21C504.31,-285.3 549.59,-281.04 591.47,-277 605.63,-275.63 610.54,-270.05 623.47,-276 686.97,-305.22 733.12,-377.31 754.95,-417.6"/>
<polygon fill="#e67e22" stroke="#e67e22" stroke-width="2" points="752.79,-418.75 758.24,-423.78 757.11,-416.45 752.79,-418.75"/>
</g>
<!-- _private.L4YAML.Proofs.RoundTrip.RoundTrip.0.L4YAML.Proofs.RoundTrip.isEscapedChar.match_1.eq_9 -->
<g id="node17" class="node">
<title>_private.L4YAML.Proofs.RoundTrip.RoundTrip.0.L4YAML.Proofs.RoundTrip.isEscapedChar.match_1.eq_9</title>
<g id="a_node17"><a xlink:href="../../../api/L4YAML/Proofs/RoundTrip/RoundTrip.html#_private.L4YAML.Proofs.RoundTrip.RoundTrip.0.L4YAML.Proofs.RoundTrip.isEscapedChar.match_1.eq_9" xlink:title="_private.L4YAML.Proofs.RoundTrip.RoundTrip.0.L4YAML.Proofs.RoundTrip.isEscapedChar.match_1.eq_9" target="_blank">
<ellipse fill="#fdebd0" stroke="#e67e22" cx="299.74" cy="-520" rx="280.58" ry="18"/>
<text text-anchor="middle" x="299.74" y="-517.5" font-family="Helvetica" font-size="10.00">_private.L4YAML.Proofs.RoundTrip.RoundTrip.0.L4YAML.Proofs.RoundTrip.isEscapedChar.match_1.eq_9</text>
</a>
</g>
</g>
<!-- _private.L4YAML.Proofs.RoundTrip.RoundTrip.0.L4YAML.Proofs.RoundTrip.isEscapedChar.match_1.eq_9&#45;&gt;L4YAML.Proofs.RoundTrip.isEscapedChar.match_1 -->
<g id="edge21" class="edge">
<title>_private.L4YAML.Proofs.RoundTrip.RoundTrip.0.L4YAML.Proofs.RoundTrip.isEscapedChar.match_1.eq_9&#45;&gt;L4YAML.Proofs.RoundTrip.isEscapedChar.match_1</title>
<path fill="none" stroke="#6f42c1" stroke-width="2" stroke-dasharray="5,2" d="M379.89,-502.72C445.7,-493.43 537.07,-493.15 591.47,-547 606.87,-562.25 585.38,-629.48 601.47,-644 630.82,-670.48 676.2,-667.74 712.35,-659.32"/>
<polygon fill="#6f42c1" stroke="#6f42c1" stroke-width="2" points="713.16,-660.93 717.61,-658.05 712.34,-657.53 713.16,-660.93"/>
<text text-anchor="middle" x="612.47" y="-658.4" font-family="Times-Roman" font-size="7.00" fill="#6f42c1">about</text>
</g>
<!-- _private.L4YAML.Proofs.RoundTrip.RoundTrip.0.L4YAML.Proofs.RoundTrip.isEscapedChar.match_1.eq_9&#45;&gt;L4YAML.Proofs.RoundTrip.escapeTag_roundtrip -->
<g id="edge15" class="edge">
<title>_private.L4YAML.Proofs.RoundTrip.RoundTrip.0.L4YAML.Proofs.RoundTrip.isEscapedChar.match_1.eq_9&#45;&gt;L4YAML.Proofs.RoundTrip.escapeTag_roundtrip</title>
<path fill="none" stroke="#e67e22" stroke-width="2" d="M558.45,-512.89C570.12,-507.44 581.21,-500.87 591.47,-493 601.62,-485.21 591.42,-473.92 601.47,-466 611.37,-458.19 622.68,-452.45 634.65,-448.29"/>
<polygon fill="#e67e22" stroke="#e67e22" stroke-width="2" points="635.44,-450.61 641.36,-446.14 633.94,-445.94 635.44,-450.61"/>
</g>
<!-- _private.L4YAML.Proofs.RoundTrip.RoundTrip.0.L4YAML.Proofs.RoundTrip.isEscapedChar.match_1.eq_8 -->
<g id="node18" class="node">
<title>_private.L4YAML.Proofs.RoundTrip.RoundTrip.0.L4YAML.Proofs.RoundTrip.isEscapedChar.match_1.eq_8</title>
<g id="a_node18"><a xlink:href="../../../api/L4YAML/Proofs/RoundTrip/RoundTrip.html#_private.L4YAML.Proofs.RoundTrip.RoundTrip.0.L4YAML.Proofs.RoundTrip.isEscapedChar.match_1.eq_8" xlink:title="_private.L4YAML.Proofs.RoundTrip.RoundTrip.0.L4YAML.Proofs.RoundTrip.isEscapedChar.match_1.eq_8" target="_blank">
<ellipse fill="#fdebd0" stroke="#e67e22" cx="299.74" cy="-736" rx="280.58" ry="18"/>
<text text-anchor="middle" x="299.74" y="-733.5" font-family="Helvetica" font-size="10.00">_private.L4YAML.Proofs.RoundTrip.RoundTrip.0.L4YAML.Proofs.RoundTrip.isEscapedChar.match_1.eq_8</text>
</a>
</g>
</g>
<!-- _private.L4YAML.Proofs.RoundTrip.RoundTrip.0.L4YAML.Proofs.RoundTrip.isEscapedChar.match_1.eq_8&#45;&gt;L4YAML.Proofs.RoundTrip.isEscapedChar.match_1 -->
<g id="edge24" class="edge">
<title>_private.L4YAML.Proofs.RoundTrip.RoundTrip.0.L4YAML.Proofs.RoundTrip.isEscapedChar.match_1.eq_8&#45;&gt;L4YAML.Proofs.RoundTrip.isEscapedChar.match_1</title>
<path fill="none" stroke="#6f42c1" stroke-width="2" stroke-dasharray="5,2" d="M427.3,-752.05C487.85,-755.61 560.66,-753.78 623.47,-735 671.43,-720.66 718.35,-685.03 745.46,-661.71"/>
<polygon fill="#6f42c1" stroke="#6f42c1" stroke-width="2" points="746.68,-662.97 749.31,-658.37 744.39,-660.32 746.68,-662.97"/>
<text text-anchor="middle" x="612.47" y="-741.4" font-family="Times-Roman" font-size="7.00" fill="#6f42c1">about</text>
</g>
<!-- _private.L4YAML.Proofs.RoundTrip.RoundTrip.0.L4YAML.Proofs.RoundTrip.isEscapedChar.match_1.eq_8&#45;&gt;L4YAML.Proofs.RoundTrip.escapeTag_roundtrip -->
<g id="edge16" class="edge">
<title>_private.L4YAML.Proofs.RoundTrip.RoundTrip.0.L4YAML.Proofs.RoundTrip.isEscapedChar.match_1.eq_8&#45;&gt;L4YAML.Proofs.RoundTrip.escapeTag_roundtrip</title>
<path fill="none" stroke="#e67e22" stroke-width="2" d="M377.73,-753.34C444,-763.28 537.26,-764.46 591.47,-709 613.74,-686.22 590.01,-595.72 601.47,-566 607.16,-551.23 616.33,-552.12 623.47,-538 630.97,-523.18 622.46,-514.43 633.47,-502 647.2,-486.5 665.89,-475.2 685,-466.99"/>
<polygon fill="#e67e22" stroke="#e67e22" stroke-width="2" points="685.95,-469.25 691.49,-464.32 684.09,-464.72 685.95,-469.25"/>
</g>
<!-- _private.L4YAML.Proofs.RoundTrip.RoundTrip.0.L4YAML.Proofs.RoundTrip.isEscapedChar.match_1.eq_2 -->
<g id="node19" class="node">
<title>_private.L4YAML.Proofs.RoundTrip.RoundTrip.0.L4YAML.Proofs.RoundTrip.isEscapedChar.match_1.eq_2</title>
<g id="a_node19"><a xlink:href="../../../api/L4YAML/Proofs/RoundTrip/RoundTrip.html#_private.L4YAML.Proofs.RoundTrip.RoundTrip.0.L4YAML.Proofs.RoundTrip.isEscapedChar.match_1.eq_2" xlink:title="_private.L4YAML.Proofs.RoundTrip.RoundTrip.0.L4YAML.Proofs.RoundTrip.isEscapedChar.match_1.eq_2" target="_blank">
<ellipse fill="#fdebd0" stroke="#e67e22" cx="299.74" cy="-790" rx="280.58" ry="18"/>
<text text-anchor="middle" x="299.74" y="-787.5" font-family="Helvetica" font-size="10.00">_private.L4YAML.Proofs.RoundTrip.RoundTrip.0.L4YAML.Proofs.RoundTrip.isEscapedChar.match_1.eq_2</text>
</a>
</g>
</g>
<!-- _private.L4YAML.Proofs.RoundTrip.RoundTrip.0.L4YAML.Proofs.RoundTrip.isEscapedChar.match_1.eq_2&#45;&gt;L4YAML.Proofs.RoundTrip.isEscapedChar.match_1 -->
<g id="edge20" class="edge">
<title>_private.L4YAML.Proofs.RoundTrip.RoundTrip.0.L4YAML.Proofs.RoundTrip.isEscapedChar.match_1.eq_2&#45;&gt;L4YAML.Proofs.RoundTrip.isEscapedChar.match_1</title>
<path fill="none" stroke="#6f42c1" stroke-width="2" stroke-dasharray="5,2" d="M544.63,-781.09C572.24,-774.17 599.15,-764.45 623.47,-751 669.87,-725.35 717.62,-686 745.26,-661.7"/>
<polygon fill="#6f42c1" stroke="#6f42c1" stroke-width="2" points="746.6,-662.84 749.19,-658.22 744.28,-660.22 746.6,-662.84"/>
<text text-anchor="middle" x="612.47" y="-760.4" font-family="Times-Roman" font-size="7.00" fill="#6f42c1">about</text>
</g>
<!-- _private.L4YAML.Proofs.RoundTrip.RoundTrip.0.L4YAML.Proofs.RoundTrip.isEscapedChar.match_1.eq_2&#45;&gt;L4YAML.Proofs.RoundTrip.escapeTag_roundtrip -->
<g id="edge17" class="edge">
<title>_private.L4YAML.Proofs.RoundTrip.RoundTrip.0.L4YAML.Proofs.RoundTrip.isEscapedChar.match_1.eq_2&#45;&gt;L4YAML.Proofs.RoundTrip.escapeTag_roundtrip</title>
<path fill="none" stroke="#e67e22" stroke-width="2" d="M376.91,-807.35C443.34,-817.52 537.32,-819.05 591.47,-763 604.77,-749.23 594.69,-608.9 601.47,-591 607.08,-576.2 617.1,-577.49 623.47,-563 634.53,-537.85 616.39,-523.52 633.47,-502 645.95,-486.27 663.6,-474.92 682.05,-466.74"/>
<polygon fill="#e67e22" stroke="#e67e22" stroke-width="2" points="683.38,-468.85 688.88,-463.87 681.48,-464.33 683.38,-468.85"/>
</g>
<!-- eq_false&#39; -->
<g id="node20" class="node">
<title>eq_false&#39;</title>
<g id="a_node20"><a xlink:href="../../../api/Init/SimpLemmas.html#eq_false&#39;" xlink:title="eq_false&#39;" target="_blank">
<ellipse fill="#fdebd0" stroke="#e67e22" cx="299.74" cy="-142" rx="32.93" ry="18"/>
<text text-anchor="middle" x="299.74" y="-139.5" font-family="Helvetica" font-size="10.00">eq_false&#39;</text>
</a>
</g>
</g>
<!-- eq_false&#39;&#45;&gt;L4YAML.Proofs.RoundTrip.escapeTag_roundtrip -->
<g id="edge18" class="edge">
<title>eq_false&#39;&#45;&gt;L4YAML.Proofs.RoundTrip.escapeTag_roundtrip</title>
<path fill="none" stroke="#e67e22" stroke-width="2" d="M331.45,-136.6C387.63,-128.41 508.76,-118.67 591.47,-169 687.14,-227.21 740.43,-358.7 760.15,-417.1"/>
<polygon fill="#e67e22" stroke="#e67e22" stroke-width="2" points="757.86,-417.98 762.39,-423.85 762.51,-416.44 757.86,-417.98"/>
</g>
<!-- _private.L4YAML.Proofs.RoundTrip.RoundTrip.0.L4YAML.Proofs.RoundTrip.isEscapedChar.match_1.eq_3 -->
<g id="node21" class="node">
<title>_private.L4YAML.Proofs.RoundTrip.RoundTrip.0.L4YAML.Proofs.RoundTrip.isEscapedChar.match_1.eq_3</title>
<g id="a_node21"><a xlink:href="../../../api/L4YAML/Proofs/RoundTrip/RoundTrip.html#_private.L4YAML.Proofs.RoundTrip.RoundTrip.0.L4YAML.Proofs.RoundTrip.isEscapedChar.match_1.eq_3" xlink:title="_private.L4YAML.Proofs.RoundTrip.RoundTrip.0.L4YAML.Proofs.RoundTrip.isEscapedChar.match_1.eq_3" target="_blank">
<ellipse fill="#fdebd0" stroke="#e67e22" cx="299.74" cy="-250" rx="280.58" ry="18"/>
<text text-anchor="middle" x="299.74" y="-247.5" font-family="Helvetica" font-size="10.00">_private.L4YAML.Proofs.RoundTrip.RoundTrip.0.L4YAML.Proofs.RoundTrip.isEscapedChar.match_1.eq_3</text>
</a>
</g>
</g>
<!-- _private.L4YAML.Proofs.RoundTrip.RoundTrip.0.L4YAML.Proofs.RoundTrip.isEscapedChar.match_1.eq_3&#45;&gt;L4YAML.Proofs.RoundTrip.isEscapedChar.match_1 -->
<g id="edge22" class="edge">
<title>_private.L4YAML.Proofs.RoundTrip.RoundTrip.0.L4YAML.Proofs.RoundTrip.isEscapedChar.match_1.eq_3&#45;&gt;L4YAML.Proofs.RoundTrip.isEscapedChar.match_1</title>
<path fill="none" stroke="#6f42c1" stroke-width="2" stroke-dasharray="5,2" d="M551.43,-258.14C565.41,-263.2 578.88,-269.41 591.47,-277 613.75,-290.43 615.35,-301.29 623.47,-326 635.71,-363.21 617.62,-466.18 633.47,-502 655.72,-552.27 704.94,-594.66 737.55,-618.71"/>
<polygon fill="#6f42c1" stroke="#6f42c1" stroke-width="2" points="736.77,-620.3 741.84,-621.83 738.83,-617.47 736.77,-620.3"/>
<text text-anchor="middle" x="612.47" y="-328.4" font-family="Times-Roman" font-size="7.00" fill="#6f42c1">about</text>
</g>
<!-- _private.L4YAML.Proofs.RoundTrip.RoundTrip.0.L4YAML.Proofs.RoundTrip.isEscapedChar.match_1.eq_3&#45;&gt;L4YAML.Proofs.RoundTrip.escapeTag_roundtrip -->
<g id="edge19" class="edge">
<title>_private.L4YAML.Proofs.RoundTrip.RoundTrip.0.L4YAML.Proofs.RoundTrip.isEscapedChar.match_1.eq_3&#45;&gt;L4YAML.Proofs.RoundTrip.escapeTag_roundtrip</title>
<path fill="none" stroke="#e67e22" stroke-width="2" d="M436.23,-234.26C496.51,-233.08 566.57,-240.05 623.47,-269 687.6,-301.63 733.78,-376.47 755.37,-417.62"/>
<polygon fill="#e67e22" stroke="#e67e22" stroke-width="2" points="753.23,-418.82 758.62,-423.92 757.59,-416.57 753.23,-418.82"/>
</g>
</g>
</svg>
