<?xml version="1.0" encoding="UTF-8" standalone="no"?>
<!DOCTYPE svg PUBLIC "-//W3C//DTD SVG 1.1//EN"
 "http://www.w3.org/Graphics/SVG/1.1/DTD/svg11.dtd">
<!-- Generated by graphviz version 2.44.0 (0)
 -->
<!-- Title: chain_Grammar.Grammable._proof_1 Pages: 1 -->
<svg width="874pt" height="201pt"
 viewBox="0.00 0.00 874.00 200.92" xmlns="http://www.w3.org/2000/svg" xmlns:xlink="http://www.w3.org/1999/xlink">
<g id="graph0" class="graph" transform="scale(1 1) rotate(0) translate(4 196.92)">
<title>chain_Grammar.Grammable._proof_1</title>
<polygon fill="white" stroke="transparent" points="-4,4 -4,-196.92 870,-196.92 870,4 -4,4"/>
<text text-anchor="middle" x="433" y="-178.52" font-family="Helvetica Bold" font-size="13.00">Structural theorem: Grammar.Grammable._proof_1\nProof is a witness / injection — no fibration depth\n(heuristic: used by 16 proofs)</text>
<g id="clust1" class="cluster">
<title>cluster_direct</title>
<polygon fill="none" stroke="#4a90d9" stroke-dasharray="5,2" points="276.5,-8 276.5,-82 589.5,-82 589.5,-8 276.5,-8"/>
<text text-anchor="middle" x="433" y="-67.6" font-family="Helvetica Bold" font-size="13.00" fill="#4a90d9">About (no chain extends — proof is structural)</text>
</g>
<!-- L4YAML.Grammar.Grammable._proof_1 -->
<g id="node1" class="node">
<title>L4YAML.Grammar.Grammable._proof_1</title>
<polygon fill="#fff3cd" stroke="#d4a017" points="548.14,-134.46 548.14,-153.46 480.4,-166.89 384.6,-166.89 316.86,-153.46 316.86,-134.46 384.6,-121.03 480.4,-121.03 548.14,-134.46"/>
<polygon fill="none" stroke="#d4a017" points="552.14,-131.19 552.14,-156.74 480.79,-170.88 384.21,-170.88 312.86,-156.74 312.86,-131.19 384.21,-117.04 480.79,-117.04 552.14,-131.19"/>
<text text-anchor="middle" x="432.5" y="-146.96" font-family="Helvetica" font-size="10.00">Grammar.Grammable._proof_1</text>
<text text-anchor="middle" x="432.5" y="-135.96" font-family="Helvetica" font-size="10.00">(structural)</text>
</g>
<!-- L4YAML.YamlValue -->
<g id="node2" class="node">
<title>L4YAML.YamlValue</title>
<g id="a_node2"><a xlink:href="../../../api/L4YAML/Spec/Types.html#L4YAML.YamlValue" xlink:title="YamlValue" target="_blank">
<polygon fill="#dce9f7" stroke="#4a90d9" points="463.5,-52 401.5,-52 401.5,-16 463.5,-16 463.5,-52"/>
<text text-anchor="middle" x="432.5" y="-31.5" font-family="Helvetica" font-size="10.00">YamlValue</text>
</a>
</g>
</g>
<!-- L4YAML.Grammar.Grammable._proof_1&#45;&gt;L4YAML.YamlValue -->
<g id="edge1" class="edge">
<title>L4YAML.Grammar.Grammable._proof_1&#45;&gt;L4YAML.YamlValue</title>
<path fill="none" stroke="#4a90d9" stroke-width="2" d="M432.5,-116.83C432.5,-99.4 432.5,-76.64 432.5,-59.55"/>
<polygon fill="#4a90d9" stroke="#4a90d9" stroke-width="2" points="434.95,-59.14 432.5,-52.14 430.05,-59.14 434.95,-59.14"/>
<text text-anchor="middle" x="445" y="-92.6" font-family="Times-Roman" font-size="8.00" fill="#4a90d9">about</text>
</g>
</g>
</svg>
