<?xml version="1.0" encoding="UTF-8" standalone="no"?>
<!DOCTYPE svg PUBLIC "-//W3C//DTD SVG 1.1//EN"
 "http://www.w3.org/Graphics/SVG/1.1/DTD/svg11.dtd">
<!-- Generated by graphviz version 2.44.0 (0)
 -->
<!-- Title: chain_Grammar.ValidTokenStream.firstIsStreamStart Pages: 1 -->
<svg width="964pt" height="201pt"
 viewBox="0.00 0.00 964.00 200.92" xmlns="http://www.w3.org/2000/svg" xmlns:xlink="http://www.w3.org/1999/xlink">
<g id="graph0" class="graph" transform="scale(1 1) rotate(0) translate(4 196.92)">
<title>chain_Grammar.ValidTokenStream.firstIsStreamStart</title>
<polygon fill="white" stroke="transparent" points="-4,4 -4,-196.92 960,-196.92 960,4 -4,4"/>
<text text-anchor="middle" x="478" y="-178.52" font-family="Helvetica Bold" font-size="13.00">Structural theorem: Grammar.ValidTokenStream.firstIsStreamStart\nProof is a witness / injection — no fibration depth\n(heuristic: used by 5 proofs)</text>
<g id="clust1" class="cluster">
<title>cluster_direct</title>
<polygon fill="none" stroke="#4a90d9" stroke-dasharray="5,2" points="109,-8 109,-82 847,-82 847,-8 109,-8"/>
<text text-anchor="middle" x="478" y="-67.6" font-family="Helvetica Bold" font-size="13.00" fill="#4a90d9">About (no chain extends — proof is structural)</text>
</g>
<!-- L4YAML.Grammar.ValidTokenStream.firstIsStreamStart -->
<g id="node1" class="node">
<title>L4YAML.Grammar.ValidTokenStream.firstIsStreamStart</title>
<polygon fill="#fff3cd" stroke="#d4a017" points="626.26,-134.46 626.26,-153.46 527.7,-166.89 388.3,-166.89 289.74,-153.46 289.74,-134.46 388.3,-121.03 527.7,-121.03 626.26,-134.46"/>
<polygon fill="none" stroke="#d4a017" points="630.26,-130.98 630.26,-156.94 527.97,-170.88 388.03,-170.88 285.74,-156.94 285.74,-130.98 388.03,-117.04 527.97,-117.04 630.26,-130.98"/>
<text text-anchor="middle" x="458" y="-146.96" font-family="Helvetica" font-size="10.00">Grammar.ValidTokenStream.firstIsStreamStart</text>
<text text-anchor="middle" x="458" y="-135.96" font-family="Helvetica" font-size="10.00">(structural)</text>
</g>
<!-- L4YAML.Grammar.ValidTokenStream.tokens -->
<g id="node2" class="node">
<title>L4YAML.Grammar.ValidTokenStream.tokens</title>
<g id="a_node2"><a xlink:href="../../../api/L4YAML/Spec/Grammar.html#L4YAML.Grammar.ValidTokenStream.tokens" xlink:title="Grammar.ValidTokenStream.tokens" target="_blank">
<polygon fill="#dce9f7" stroke="#4a90d9" points="287,-52 117,-52 117,-16 287,-16 287,-52"/>
<text text-anchor="middle" x="202" y="-31.5" font-family="Helvetica" font-size="10.00">Grammar.ValidTokenStream.tokens</text>
</a>
</g>
</g>
<!-- L4YAML.Grammar.ValidTokenStream.firstIsStreamStart&#45;&gt;L4YAML.Grammar.ValidTokenStream.tokens -->
<g id="edge1" class="edge">
<title>L4YAML.Grammar.ValidTokenStream.firstIsStreamStart&#45;&gt;L4YAML.Grammar.ValidTokenStream.tokens</title>
<path fill="none" stroke="#4a90d9" stroke-width="2" d="M385.18,-117.39C357.06,-107.03 324.78,-94.57 296,-82 277.55,-73.94 257.54,-64.1 240.74,-55.5"/>
<polygon fill="#4a90d9" stroke="#4a90d9" stroke-width="2" points="241.58,-53.18 234.23,-52.16 239.34,-57.54 241.58,-53.18"/>
<text text-anchor="middle" x="348.5" y="-92.6" font-family="Times-Roman" font-size="8.00" fill="#4a90d9">about</text>
</g>
<!-- L4YAML.Positioned -->
<g id="node3" class="node">
<title>L4YAML.Positioned</title>
<g id="a_node3"><a xlink:href="../../../api/L4YAML/Token/Token.html#L4YAML.Positioned" xlink:title="Positioned" target="_blank">
<polygon fill="#dce9f7" stroke="#4a90d9" points="367,-52 305,-52 305,-16 367,-16 367,-52"/>
<text text-anchor="middle" x="336" y="-31.5" font-family="Helvetica" font-size="10.00">Positioned</text>
</a>
</g>
</g>
<!-- L4YAML.Grammar.ValidTokenStream.firstIsStreamStart&#45;&gt;L4YAML.Positioned -->
<g id="edge2" class="edge">
<title>L4YAML.Grammar.ValidTokenStream.firstIsStreamStart&#45;&gt;L4YAML.Positioned</title>
<path fill="none" stroke="#4a90d9" stroke-width="2" d="M419.02,-116.75C404.91,-106.56 389.21,-94.37 376,-82 368.27,-74.76 360.55,-66.11 353.98,-58.21"/>
<polygon fill="#4a90d9" stroke="#4a90d9" stroke-width="2" points="355.53,-56.23 349.2,-52.36 351.73,-59.33 355.53,-56.23"/>
<text text-anchor="middle" x="408.5" y="-92.6" font-family="Times-Roman" font-size="8.00" fill="#4a90d9">about</text>
</g>
<!-- L4YAML.Positioned.val -->
<g id="node4" class="node">
<title>L4YAML.Positioned.val</title>
<g id="a_node4"><a xlink:href="../../../api/L4YAML/Token/Token.html#L4YAML.Positioned.val" xlink:title="Positioned.val" target="_blank">
<polygon fill="#dce9f7" stroke="#4a90d9" points="462.5,-52 385.5,-52 385.5,-16 462.5,-16 462.5,-52"/>
<text text-anchor="middle" x="424" y="-31.5" font-family="Helvetica" font-size="10.00">Positioned.val</text>
</a>
</g>
</g>
<!-- L4YAML.Grammar.ValidTokenStream.firstIsStreamStart&#45;&gt;L4YAML.Positioned.val -->
<g id="edge3" class="edge">
<title>L4YAML.Grammar.ValidTokenStream.firstIsStreamStart&#45;&gt;L4YAML.Positioned.val</title>
<path fill="none" stroke="#4a90d9" stroke-width="2" d="M449.77,-116.83C444.23,-99.24 436.99,-76.23 431.59,-59.09"/>
<polygon fill="#4a90d9" stroke="#4a90d9" stroke-width="2" points="433.84,-58.08 429.4,-52.14 429.16,-59.55 433.84,-58.08"/>
<text text-anchor="middle" x="456.5" y="-92.6" font-family="Times-Roman" font-size="8.00" fill="#4a90d9">about</text>
</g>
<!-- L4YAML.YamlToken -->
<g id="node5" class="node">
<title>L4YAML.YamlToken</title>
<g id="a_node5"><a xlink:href="../../../api/L4YAML/Token/Token.html#L4YAML.YamlToken" xlink:title="YamlToken" target="_blank">
<polygon fill="#dce9f7" stroke="#4a90d9" points="545,-52 481,-52 481,-16 545,-16 545,-52"/>
<text text-anchor="middle" x="513" y="-31.5" font-family="Helvetica" font-size="10.00">YamlToken</text>
</a>
</g>
</g>
<!-- L4YAML.Grammar.ValidTokenStream.firstIsStreamStart&#45;&gt;L4YAML.YamlToken -->
<g id="edge4" class="edge">
<title>L4YAML.Grammar.ValidTokenStream.firstIsStreamStart&#45;&gt;L4YAML.YamlToken</title>
<path fill="none" stroke="#4a90d9" stroke-width="2" d="M471.31,-116.83C480.35,-99.09 492.2,-75.82 500.96,-58.64"/>
<polygon fill="#4a90d9" stroke="#4a90d9" stroke-width="2" points="503.27,-59.49 504.27,-52.14 498.91,-57.27 503.27,-59.49"/>
<text text-anchor="middle" x="495.5" y="-92.6" font-family="Times-Roman" font-size="8.00" fill="#4a90d9">about</text>
</g>
<!-- L4YAML.YamlToken.streamStart -->
<g id="node6" class="node">
<title>L4YAML.YamlToken.streamStart</title>
<g id="a_node6"><a xlink:href="../../../api/L4YAML/Token/Token.html#L4YAML.YamlToken.streamStart" xlink:title="YamlToken.streamStart" target="_blank">
<polygon fill="#dce9f7" stroke="#4a90d9" points="682.5,-52 563.5,-52 563.5,-16 682.5,-16 682.5,-52"/>
<text text-anchor="middle" x="623" y="-31.5" font-family="Helvetica" font-size="10.00">YamlToken.streamStart</text>
</a>
</g>
</g>
<!-- L4YAML.Grammar.ValidTokenStream.firstIsStreamStart&#45;&gt;L4YAML.YamlToken.streamStart -->
<g id="edge5" class="edge">
<title>L4YAML.Grammar.ValidTokenStream.firstIsStreamStart&#45;&gt;L4YAML.YamlToken.streamStart</title>
<path fill="none" stroke="#4a90d9" stroke-width="2" d="M499.77,-116.85C516.68,-106.16 536.35,-93.61 554,-82 566.58,-73.72 580.31,-64.42 592.19,-56.3"/>
<polygon fill="#4a90d9" stroke="#4a90d9" stroke-width="2" points="593.83,-58.14 598.22,-52.16 591.06,-54.1 593.83,-58.14"/>
<text text-anchor="middle" x="553.5" y="-92.6" font-family="Times-Roman" font-size="8.00" fill="#4a90d9">about</text>
</g>
<!-- L4YAML.Grammar.ValidTokenStream -->
<g id="node7" class="node">
<title>L4YAML.Grammar.ValidTokenStream</title>
<g id="a_node7"><a xlink:href="../../../api/L4YAML/Spec/Grammar.html#L4YAML.Grammar.ValidTokenStream" xlink:title="Grammar.ValidTokenStream" target="_blank">
<polygon fill="#dce9f7" stroke="#4a90d9" points="839,-52 701,-52 701,-16 839,-16 839,-52"/>
<text text-anchor="middle" x="770" y="-31.5" font-family="Helvetica" font-size="10.00">Grammar.ValidTokenStream</text>
</a>
</g>
</g>
<!-- L4YAML.Grammar.ValidTokenStream.firstIsStreamStart&#45;&gt;L4YAML.Grammar.ValidTokenStream -->
<g id="edge6" class="edge">
<title>L4YAML.Grammar.ValidTokenStream.firstIsStreamStart&#45;&gt;L4YAML.Grammar.ValidTokenStream</title>
<path fill="none" stroke="#4a90d9" stroke-width="2" d="M564.67,-122C605.38,-112.25 651.67,-98.99 692,-82 708.43,-75.08 725.51,-65.14 739.49,-56.18"/>
<polygon fill="#4a90d9" stroke="#4a90d9" stroke-width="2" points="741.15,-58.03 745.68,-52.15 738.48,-53.92 741.15,-58.03"/>
<text text-anchor="middle" x="679.5" y="-92.6" font-family="Times-Roman" font-size="8.00" fill="#4a90d9">about</text>
</g>
</g>
</svg>
