<?xml version="1.0" encoding="UTF-8" standalone="no"?>
<!DOCTYPE svg PUBLIC "-//W3C//DTD SVG 1.1//EN"
 "http://www.w3.org/Graphics/SVG/1.1/DTD/svg11.dtd">
<!-- Generated by graphviz version 2.44.0 (0)
 -->
<!-- Title: YamlValue.sequence.sizeOf_spec Pages: 1 -->
<svg width="746pt" height="454pt"
 viewBox="0.00 0.00 746.30 454.00" xmlns="http://www.w3.org/2000/svg" xmlns:xlink="http://www.w3.org/1999/xlink">
<g id="graph0" class="graph" transform="scale(1 1) rotate(0) translate(4 450)">
<title>YamlValue.sequence.sizeOf_spec</title>
<polygon fill="white" stroke="transparent" points="-4,4 -4,-450 742.3,-450 742.3,4 -4,4"/>
<text text-anchor="middle" x="369.15" y="-431.6" font-family="Helvetica Bold" font-size="13.00">YamlValue.sequence.sizeOf_spec</text>
<text text-anchor="middle" x="369.15" y="-417.6" font-family="Helvetica Bold" font-size="13.00">(heuristic: used by 11 proofs)</text>
<text text-anchor="middle" x="369.15" y="-403.6" font-family="Helvetica Bold" font-size="13.00">(L4YAML.Spec.Types)</text>
<g id="clust1" class="cluster">
<title>cluster_functions</title>
<polygon fill="none" stroke="#4a90d9" stroke-dasharray="5,2" points="323.54,-98 323.54,-388 730.3,-388 730.3,-98 323.54,-98"/>
<text text-anchor="middle" x="526.92" y="-373.6" font-family="Helvetica Bold" font-size="13.00" fill="#4a90d9">Functions</text>
</g>
<g id="clust2" class="cluster">
<title>cluster_key</title>
<polygon fill="none" stroke="#d4a017" stroke-dasharray="5,2" points="242.78,-8 242.78,-90 529.3,-90 529.3,-8 242.78,-8"/>
<text text-anchor="middle" x="386.04" y="-75.6" font-family="Helvetica Bold" font-size="13.00" fill="#d4a017">Key Theorem</text>
</g>
<g id="clust3" class="cluster">
<title>cluster_proofs</title>
<polygon fill="none" stroke="#28a745" stroke-dasharray="5,2" points="8,-245 8,-325 200.78,-325 200.78,-245 8,-245"/>
<text text-anchor="middle" x="104.39" y="-310.6" font-family="Helvetica Bold" font-size="13.00" fill="#28a745">Proof Dependencies</text>
</g>
<!-- L4YAML.YamlValue._sizeOf_2 -->
<g id="node1" class="node">
<title>L4YAML.YamlValue._sizeOf_2</title>
<g id="a_node1"><a xlink:href="../../../api/L4YAML/Spec/Types.html#L4YAML.YamlValue._sizeOf_2" xlink:title="YamlValue._sizeOf_2\n(def)" target="_blank">
<polygon fill="#dce9f7" stroke="#4a90d9" points="440.54,-358 331.54,-358 331.54,-322 440.54,-322 440.54,-358"/>
<text text-anchor="middle" x="386.04" y="-343" font-family="Helvetica" font-size="10.00">YamlValue._sizeOf_2</text>
<text text-anchor="middle" x="386.04" y="-332" font-family="Helvetica" font-size="10.00">(def)</text>
</a>
</g>
</g>
<!-- L4YAML.YamlValue._sizeOf_inst -->
<g id="node2" class="node">
<title>L4YAML.YamlValue._sizeOf_inst</title>
<g id="a_node2"><a xlink:href="../../../api/L4YAML/Spec/Types.html#L4YAML.YamlValue._sizeOf_inst" xlink:title="YamlValue._sizeOf_inst\n(def)" target="_blank">
<polygon fill="#dce9f7" stroke="#4a90d9" points="711.8,-304 592.8,-304 592.8,-268 711.8,-268 711.8,-304"/>
<text text-anchor="middle" x="652.3" y="-289" font-family="Helvetica" font-size="10.00">YamlValue._sizeOf_inst</text>
<text text-anchor="middle" x="652.3" y="-278" font-family="Helvetica" font-size="10.00">(def)</text>
</a>
</g>
</g>
<!-- L4YAML.CollectionStyle -->
<g id="node3" class="node">
<title>L4YAML.CollectionStyle</title>
<g id="a_node3"><a xlink:href="../../../api/L4YAML/Spec/Types.html#L4YAML.CollectionStyle" xlink:title="CollectionStyle\n(inductive)" target="_blank">
<polygon fill="#dce9f7" stroke="#4a90d9" points="693.8,-142 610.8,-142 610.8,-106 693.8,-106 693.8,-142"/>
<text text-anchor="middle" x="652.3" y="-127" font-family="Helvetica" font-size="10.00">CollectionStyle</text>
<text text-anchor="middle" x="652.3" y="-116" font-family="Helvetica" font-size="10.00">(inductive)</text>
</a>
</g>
</g>
<!-- L4YAML.YamlValue -->
<g id="node4" class="node">
<title>L4YAML.YamlValue</title>
<g id="a_node4"><a xlink:href="../../../api/L4YAML/Spec/Types.html#L4YAML.YamlValue" xlink:title="YamlValue\n(inductive)" target="_blank">
<polygon fill="#dce9f7" stroke="#4a90d9" points="683.3,-358 621.3,-358 621.3,-322 683.3,-322 683.3,-358"/>
<text text-anchor="middle" x="652.3" y="-343" font-family="Helvetica" font-size="10.00">YamlValue</text>
<text text-anchor="middle" x="652.3" y="-332" font-family="Helvetica" font-size="10.00">(inductive)</text>
</a>
</g>
</g>
<!-- L4YAML.YamlValue.sequence -->
<g id="node5" class="node">
<title>L4YAML.YamlValue.sequence</title>
<g id="a_node5"><a xlink:href="../../../api/L4YAML/Spec/Types.html#L4YAML.YamlValue.sequence" xlink:title="YamlValue.sequence\n(ctor)" target="_blank">
<polygon fill="#dce9f7" stroke="#4a90d9" points="705.8,-250 598.8,-250 598.8,-214 705.8,-214 705.8,-250"/>
<text text-anchor="middle" x="652.3" y="-235" font-family="Helvetica" font-size="10.00">YamlValue.sequence</text>
<text text-anchor="middle" x="652.3" y="-224" font-family="Helvetica" font-size="10.00">(ctor)</text>
</a>
</g>
</g>
<!-- L4YAML.CollectionStyle._sizeOf_inst -->
<g id="node6" class="node">
<title>L4YAML.CollectionStyle._sizeOf_inst</title>
<g id="a_node6"><a xlink:href="../../../api/L4YAML/Spec/Types.html#L4YAML.CollectionStyle._sizeOf_inst" xlink:title="CollectionStyle._sizeOf_inst\n(def)" target="_blank">
<polygon fill="#dce9f7" stroke="#4a90d9" points="722.3,-196 582.3,-196 582.3,-160 722.3,-160 722.3,-196"/>
<text text-anchor="middle" x="652.3" y="-181" font-family="Helvetica" font-size="10.00">CollectionStyle._sizeOf_inst</text>
<text text-anchor="middle" x="652.3" y="-170" font-family="Helvetica" font-size="10.00">(def)</text>
</a>
</g>
</g>
<!-- L4YAML.YamlValue.sequence.sizeOf_spec -->
<g id="node7" class="node">
<title>L4YAML.YamlValue.sequence.sizeOf_spec</title>
<g id="a_node7"><a xlink:href="../../../api/L4YAML/Spec/Types.html#L4YAML.YamlValue.sequence.sizeOf_spec" xlink:title="YamlValue.sequence.sizeOf_spec" target="_blank">
<polygon fill="#fff3cd" stroke="#d4a017" points="517.07,-30.54 517.07,-45.46 440.31,-56 331.76,-56 255.01,-45.46 255.01,-30.54 331.76,-20 440.31,-20 517.07,-30.54"/>
<polygon fill="none" stroke="#d4a017" points="521.06,-27.06 521.06,-48.94 440.59,-60 331.49,-60 251.01,-48.94 251.01,-27.06 331.49,-16 440.59,-16 521.06,-27.06"/>
<text text-anchor="middle" x="386.04" y="-34.9" font-family="Helvetica" font-size="12.00">YamlValue.sequence.sizeOf_spec</text>
</a>
</g>
</g>
<!-- L4YAML.YamlValue.sequence.sizeOf_spec&#45;&gt;L4YAML.YamlValue._sizeOf_inst -->
<g id="edge1" class="edge">
<title>L4YAML.YamlValue.sequence.sizeOf_spec&#45;&gt;L4YAML.YamlValue._sizeOf_inst</title>
<path fill="none" stroke="#4a90d9" stroke-width="2" d="M473.29,-55.52C494.54,-63.82 515.21,-76.04 529.3,-94 549.78,-120.11 525.15,-137.98 539.3,-168 546.28,-182.79 556.31,-180.73 564.3,-195 578.74,-220.78 562.47,-237.1 582.3,-259 583.72,-260.56 585.24,-262.04 586.84,-263.43"/>
<polygon fill="#4a90d9" stroke="#4a90d9" stroke-width="2" points="585.53,-265.51 592.58,-267.84 588.52,-261.63 585.53,-265.51"/>
<text text-anchor="middle" x="551.8" y="-197.6" font-family="Times-Roman" font-size="8.00" fill="#4a90d9">about</text>
</g>
<!-- L4YAML.YamlValue.sequence.sizeOf_spec&#45;&gt;L4YAML.CollectionStyle -->
<g id="edge3" class="edge">
<title>L4YAML.YamlValue.sequence.sizeOf_spec&#45;&gt;L4YAML.CollectionStyle</title>
<path fill="none" stroke="#4a90d9" stroke-width="2" d="M495.57,-52.6C518.68,-57.42 542.63,-63.74 564.3,-72 583.9,-79.47 604.1,-91.25 620.11,-101.72"/>
<polygon fill="#4a90d9" stroke="#4a90d9" stroke-width="2" points="619.06,-103.96 626.24,-105.8 621.77,-99.88 619.06,-103.96"/>
<text text-anchor="middle" x="551.8" y="-74.6" font-family="Times-Roman" font-size="8.00" fill="#4a90d9">about</text>
</g>
<!-- L4YAML.YamlValue.sequence.sizeOf_spec&#45;&gt;L4YAML.YamlValue -->
<g id="edge5" class="edge">
<title>L4YAML.YamlValue.sequence.sizeOf_spec&#45;&gt;L4YAML.YamlValue</title>
<path fill="none" stroke="#4a90d9" stroke-width="2" d="M474.55,-55.41C495.54,-63.71 515.77,-75.95 529.3,-94 544.02,-113.64 533.63,-180.12 539.3,-204 540.81,-210.33 577.69,-308.4 582.3,-313 591.06,-321.73 602.97,-327.71 614.43,-331.78"/>
<polygon fill="#4a90d9" stroke="#4a90d9" stroke-width="2" points="613.68,-334.11 621.1,-333.96 615.2,-329.45 613.68,-334.11"/>
<text text-anchor="middle" x="551.8" y="-270.6" font-family="Times-Roman" font-size="8.00" fill="#4a90d9">about</text>
</g>
<!-- L4YAML.YamlValue.sequence.sizeOf_spec&#45;&gt;L4YAML.YamlValue.sequence -->
<g id="edge2" class="edge">
<title>L4YAML.YamlValue.sequence.sizeOf_spec&#45;&gt;L4YAML.YamlValue.sequence</title>
<path fill="none" stroke="#4a90d9" stroke-width="2" d="M469.32,-56.15C491.3,-64.49 513.36,-76.57 529.3,-94 539.93,-105.62 532,-114.05 539.3,-128 547.51,-143.68 555.42,-143.69 564.3,-159 575.32,-177.99 566.78,-189.48 582.3,-205 585.41,-208.1 588.91,-210.86 592.65,-213.31"/>
<polygon fill="#4a90d9" stroke="#4a90d9" stroke-width="2" points="591.43,-215.43 598.7,-216.9 593.93,-211.22 591.43,-215.43"/>
<text text-anchor="middle" x="551.8" y="-161.6" font-family="Times-Roman" font-size="8.00" fill="#4a90d9">about</text>
</g>
<!-- L4YAML.YamlValue.sequence.sizeOf_spec&#45;&gt;L4YAML.CollectionStyle._sizeOf_inst -->
<g id="edge4" class="edge">
<title>L4YAML.YamlValue.sequence.sizeOf_spec&#45;&gt;L4YAML.CollectionStyle._sizeOf_inst</title>
<path fill="none" stroke="#4a90d9" stroke-width="2" d="M449.45,-58.79C474.86,-68.21 504.11,-80.32 529.3,-94 546.1,-103.13 551.53,-104.77 564.3,-119 575.2,-131.14 569.99,-140.29 582.3,-151 584.36,-152.79 586.56,-154.48 588.85,-156.05"/>
<polygon fill="#4a90d9" stroke="#4a90d9" stroke-width="2" points="587.89,-158.34 595.12,-159.98 590.49,-154.19 587.89,-158.34"/>
<text text-anchor="middle" x="551.8" y="-121.6" font-family="Times-Roman" font-size="8.00" fill="#4a90d9">about</text>
</g>
<!-- L4YAML.YamlValue._sizeOf_2_eq -->
<g id="node8" class="node">
<title>L4YAML.YamlValue._sizeOf_2_eq</title>
<g id="a_node8"><a xlink:href="../../../api/L4YAML/Spec/Types.html#L4YAML.YamlValue._sizeOf_2_eq" xlink:title="YamlValue._sizeOf_2_eq\n(Spec.Types)" target="_blank">
<ellipse fill="#d4edda" stroke="#28a745" cx="104.39" cy="-274" rx="88.28" ry="21.43"/>
<text text-anchor="middle" x="104.39" y="-277" font-family="Helvetica" font-size="10.00">YamlValue._sizeOf_2_eq</text>
<text text-anchor="middle" x="104.39" y="-266" font-family="Helvetica" font-size="10.00">(Spec.Types)</text>
</a>
</g>
</g>
<!-- L4YAML.YamlValue._sizeOf_2_eq&#45;&gt;L4YAML.YamlValue._sizeOf_2 -->
<g id="edge8" class="edge">
<title>L4YAML.YamlValue._sizeOf_2_eq&#45;&gt;L4YAML.YamlValue._sizeOf_2</title>
<path fill="none" stroke="#6f42c1" stroke-width="2" stroke-dasharray="5,2" d="M152.38,-291.84C170.45,-298.22 191.39,-305.05 210.78,-310 248.77,-319.69 292.23,-327.18 326.24,-332.25"/>
<polygon fill="#6f42c1" stroke="#6f42c1" stroke-width="2" points="325.99,-333.98 331.19,-332.98 326.5,-330.52 325.99,-333.98"/>
<text text-anchor="middle" x="221.78" y="-316.4" font-family="Times-Roman" font-size="7.00" fill="#6f42c1">about</text>
</g>
<!-- L4YAML.YamlValue._sizeOf_2_eq&#45;&gt;L4YAML.YamlValue._sizeOf_inst -->
<g id="edge7" class="edge">
<title>L4YAML.YamlValue._sizeOf_2_eq&#45;&gt;L4YAML.YamlValue._sizeOf_inst</title>
<path fill="none" stroke="#6f42c1" stroke-width="2" stroke-dasharray="5,2" d="M188.79,-267.51C274.39,-262.01 411.37,-256.4 529.3,-266 548.27,-267.54 568.73,-270.42 587.38,-273.52"/>
<polygon fill="#6f42c1" stroke="#6f42c1" stroke-width="2" points="587.37,-275.29 592.59,-274.39 587.95,-271.84 587.37,-275.29"/>
<text text-anchor="middle" x="386.04" y="-268.4" font-family="Times-Roman" font-size="7.00" fill="#6f42c1">about</text>
</g>
<!-- L4YAML.YamlValue._sizeOf_2_eq&#45;&gt;L4YAML.YamlValue -->
<g id="edge9" class="edge">
<title>L4YAML.YamlValue._sizeOf_2_eq&#45;&gt;L4YAML.YamlValue</title>
<path fill="none" stroke="#6f42c1" stroke-width="2" stroke-dasharray="5,2" d="M191.27,-278.18C295.95,-283.65 466.64,-293.84 529.3,-305 559.07,-310.3 591.99,-319.98 616.12,-327.81"/>
<polygon fill="#6f42c1" stroke="#6f42c1" stroke-width="2" points="615.83,-329.56 621.13,-329.46 616.92,-326.24 615.83,-329.56"/>
<text text-anchor="middle" x="386.04" y="-307.4" font-family="Times-Roman" font-size="7.00" fill="#6f42c1">about</text>
</g>
<!-- L4YAML.YamlValue._sizeOf_2_eq&#45;&gt;L4YAML.YamlValue.sequence.sizeOf_spec -->
<g id="edge6" class="edge">
<title>L4YAML.YamlValue._sizeOf_2_eq&#45;&gt;L4YAML.YamlValue.sequence.sizeOf_spec</title>
<path fill="none" stroke="#28a745" d="M116.35,-252.96C136.61,-215.96 183.33,-138.9 242.78,-94 261.68,-79.72 284.7,-68.59 306.67,-60.15"/>
<polygon fill="#28a745" stroke="#28a745" points="307.74,-62.36 313.44,-57.61 306.03,-57.77 307.74,-62.36"/>
</g>
</g>
</svg>
