<?xml version="1.0" encoding="UTF-8" standalone="no"?>
<!DOCTYPE svg PUBLIC "-//W3C//DTD SVG 1.1//EN"
 "http://www.w3.org/Graphics/SVG/1.1/DTD/svg11.dtd">
<!-- Generated by graphviz version 2.44.0 (0)
 -->
<!-- Title: EmitterScannability.advance_line_of_peek Pages: 1 -->
<svg width="895pt" height="613pt"
 viewBox="0.00 0.00 894.75 613.00" xmlns="http://www.w3.org/2000/svg" xmlns:xlink="http://www.w3.org/1999/xlink">
<g id="graph0" class="graph" transform="scale(1 1) rotate(0) translate(4 609)">
<title>EmitterScannability.advance_line_of_peek</title>
<polygon fill="white" stroke="transparent" points="-4,4 -4,-609 890.75,-609 890.75,4 -4,4"/>
<text text-anchor="middle" x="443.37" y="-590.6" font-family="Helvetica Bold" font-size="13.00">EmitterScannability.advance_line_of_peek</text>
<text text-anchor="middle" x="443.37" y="-576.6" font-family="Helvetica Bold" font-size="13.00">(heuristic: used by 12 proofs)</text>
<text text-anchor="middle" x="443.37" y="-562.6" font-family="Helvetica Bold" font-size="13.00">(L4YAML.Proofs.Output.EmitterScannability)</text>
<g id="clust1" class="cluster">
<title>cluster_functions</title>
<polygon fill="none" stroke="#4a90d9" stroke-dasharray="5,2" points="467.5,-203 467.5,-547 878.75,-547 878.75,-203 467.5,-203"/>
<text text-anchor="middle" x="673.12" y="-532.6" font-family="Helvetica Bold" font-size="13.00" fill="#4a90d9">Functions</text>
</g>
<g id="clust2" class="cluster">
<title>cluster_key</title>
<polygon fill="none" stroke="#d4a017" stroke-dasharray="5,2" points="350.26,-113 350.26,-195 700.75,-195 700.75,-113 350.26,-113"/>
<text text-anchor="middle" x="525.5" y="-180.6" font-family="Helvetica Bold" font-size="13.00" fill="#d4a017">Key Theorem</text>
</g>
<g id="clust3" class="cluster">
<title>cluster_proofs</title>
<polygon fill="none" stroke="#28a745" stroke-dasharray="5,2" points="8,-327 8,-407 308.26,-407 308.26,-327 8,-327"/>
<text text-anchor="middle" x="158.13" y="-392.6" font-family="Helvetica Bold" font-size="13.00" fill="#28a745">Proof Dependencies</text>
</g>
<g id="clust4" class="cluster">
<title>cluster_stdlib</title>
<polygon fill="none" stroke="#e67e22" stroke-dasharray="5,2" points="90.67,-8 90.67,-298 225.58,-298 225.58,-8 90.67,-8"/>
<text text-anchor="middle" x="158.13" y="-283.6" font-family="Helvetica Bold" font-size="13.00" fill="#e67e22">Stdlib Lemmas</text>
</g>
<!-- L4YAML.Scanner.ScannerState.input -->
<g id="node1" class="node">
<title>L4YAML.Scanner.ScannerState.input</title>
<g id="a_node1"><a xlink:href="../../../api/L4YAML/Scanner/State.html#L4YAML.Scanner.ScannerState.input" xlink:title="ScannerState.input\n(def)" target="_blank">
<polygon fill="#dce9f7" stroke="#4a90d9" points="575.5,-517 475.5,-517 475.5,-481 575.5,-481 575.5,-517"/>
<text text-anchor="middle" x="525.5" y="-502" font-family="Helvetica" font-size="10.00">ScannerState.input</text>
<text text-anchor="middle" x="525.5" y="-491" font-family="Helvetica" font-size="10.00">(def)</text>
</a>
</g>
</g>
<!-- L4YAML.Scanner.ScannerState.advance -->
<g id="node2" class="node">
<title>L4YAML.Scanner.ScannerState.advance</title>
<g id="a_node2"><a xlink:href="../../../api/L4YAML/Scanner/State.html#L4YAML.Scanner.ScannerState.advance" xlink:title="ScannerState.advance\n(def)" target="_blank">
<polygon fill="#dce9f7" stroke="#4a90d9" points="869.75,-301 754.75,-301 754.75,-265 869.75,-265 869.75,-301"/>
<text text-anchor="middle" x="812.25" y="-286" font-family="Helvetica" font-size="10.00">ScannerState.advance</text>
<text text-anchor="middle" x="812.25" y="-275" font-family="Helvetica" font-size="10.00">(def)</text>
</a>
</g>
</g>
<!-- L4YAML.Scanner.ScannerState.line -->
<g id="node3" class="node">
<title>L4YAML.Scanner.ScannerState.line</title>
<g id="a_node3"><a xlink:href="../../../api/L4YAML/Scanner/State.html#L4YAML.Scanner.ScannerState.line" xlink:title="ScannerState.line\n(def)" target="_blank">
<polygon fill="#dce9f7" stroke="#4a90d9" points="859.25,-463 765.25,-463 765.25,-427 859.25,-427 859.25,-463"/>
<text text-anchor="middle" x="812.25" y="-448" font-family="Helvetica" font-size="10.00">ScannerState.line</text>
<text text-anchor="middle" x="812.25" y="-437" font-family="Helvetica" font-size="10.00">(def)</text>
</a>
</g>
</g>
<!-- L4YAML.Scanner.ScannerState.peek? -->
<g id="node4" class="node">
<title>L4YAML.Scanner.ScannerState.peek?</title>
<g id="a_node4"><a xlink:href="../../../api/L4YAML/Scanner/State.html#L4YAML.Scanner.ScannerState.peek?" xlink:title="ScannerState.peek?\n(def)" target="_blank">
<polygon fill="#dce9f7" stroke="#4a90d9" points="864.25,-247 760.25,-247 760.25,-211 864.25,-211 864.25,-247"/>
<text text-anchor="middle" x="812.25" y="-232" font-family="Helvetica" font-size="10.00">ScannerState.peek?</text>
<text text-anchor="middle" x="812.25" y="-221" font-family="Helvetica" font-size="10.00">(def)</text>
</a>
</g>
</g>
<!-- L4YAML.Scanner.ScannerState -->
<g id="node5" class="node">
<title>L4YAML.Scanner.ScannerState</title>
<g id="a_node5"><a xlink:href="../../../api/L4YAML/Scanner/State.html#L4YAML.Scanner.ScannerState" xlink:title="ScannerState\n(inductive)" target="_blank">
<polygon fill="#dce9f7" stroke="#4a90d9" points="850.25,-517 774.25,-517 774.25,-481 850.25,-481 850.25,-517"/>
<text text-anchor="middle" x="812.25" y="-502" font-family="Helvetica" font-size="10.00">ScannerState</text>
<text text-anchor="middle" x="812.25" y="-491" font-family="Helvetica" font-size="10.00">(inductive)</text>
</a>
</g>
</g>
<!-- L4YAML.Scanner.ScannerState.offset -->
<g id="node6" class="node">
<title>L4YAML.Scanner.ScannerState.offset</title>
<g id="a_node6"><a xlink:href="../../../api/L4YAML/Scanner/State.html#L4YAML.Scanner.ScannerState.offset" xlink:title="ScannerState.offset\n(def)" target="_blank">
<polygon fill="#dce9f7" stroke="#4a90d9" points="863.75,-355 760.75,-355 760.75,-319 863.75,-319 863.75,-355"/>
<text text-anchor="middle" x="812.25" y="-340" font-family="Helvetica" font-size="10.00">ScannerState.offset</text>
<text text-anchor="middle" x="812.25" y="-329" font-family="Helvetica" font-size="10.00">(def)</text>
</a>
</g>
</g>
<!-- L4YAML.Scanner.ScannerState.inputEnd -->
<g id="node7" class="node">
<title>L4YAML.Scanner.ScannerState.inputEnd</title>
<g id="a_node7"><a xlink:href="../../../api/L4YAML/Scanner/State.html#L4YAML.Scanner.ScannerState.inputEnd" xlink:title="ScannerState.inputEnd\n(def)" target="_blank">
<polygon fill="#dce9f7" stroke="#4a90d9" points="870.75,-409 753.75,-409 753.75,-373 870.75,-373 870.75,-409"/>
<text text-anchor="middle" x="812.25" y="-394" font-family="Helvetica" font-size="10.00">ScannerState.inputEnd</text>
<text text-anchor="middle" x="812.25" y="-383" font-family="Helvetica" font-size="10.00">(def)</text>
</a>
</g>
</g>
<!-- L4YAML.Proofs.EmitterScannability.advance_line_of_peek -->
<g id="node8" class="node">
<title>L4YAML.Proofs.EmitterScannability.advance_line_of_peek</title>
<g id="a_node8"><a xlink:href="../../../api/L4YAML/Proofs/Output/EmitterScannability.html#L4YAML.Proofs.EmitterScannability.advance_line_of_peek" xlink:title="EmitterScannability.advance_line_of_peek" target="_blank">
<polygon fill="#fff3cd" stroke="#d4a017" points="688.99,-135.54 688.99,-150.46 593.22,-161 457.78,-161 362.02,-150.46 362.02,-135.54 457.78,-125 593.22,-125 688.99,-135.54"/>
<polygon fill="none" stroke="#d4a017" points="692.99,-131.96 692.99,-154.04 593.44,-165 457.56,-165 358.01,-154.04 358.01,-131.96 457.56,-121 593.44,-121 692.99,-131.96"/>
<text text-anchor="middle" x="525.5" y="-139.9" font-family="Helvetica" font-size="12.00">EmitterScannability.advance_line_of_peek</text>
</a>
</g>
</g>
<!-- L4YAML.Proofs.EmitterScannability.advance_line_of_peek&#45;&gt;L4YAML.Scanner.ScannerState.advance -->
<g id="edge1" class="edge">
<title>L4YAML.Proofs.EmitterScannability.advance_line_of_peek&#45;&gt;L4YAML.Scanner.ScannerState.advance</title>
<path fill="none" stroke="#4a90d9" stroke-width="2" d="M603.69,-164.03C634.42,-173.37 669.78,-185.35 700.75,-199 717.14,-206.22 723.51,-205.92 735.75,-219 748.24,-232.35 740.73,-243.16 753.75,-256 755.44,-257.67 757.25,-259.24 759.15,-260.73"/>
<polygon fill="#4a90d9" stroke="#4a90d9" stroke-width="2" points="757.95,-262.89 765.08,-264.95 760.79,-258.9 757.95,-262.89"/>
<text text-anchor="middle" x="723.25" y="-221.6" font-family="Times-Roman" font-size="8.00" fill="#4a90d9">about</text>
</g>
<!-- L4YAML.Proofs.EmitterScannability.advance_line_of_peek&#45;&gt;L4YAML.Scanner.ScannerState.line -->
<g id="edge6" class="edge">
<title>L4YAML.Proofs.EmitterScannability.advance_line_of_peek&#45;&gt;L4YAML.Scanner.ScannerState.line</title>
<path fill="none" stroke="#4a90d9" stroke-width="2" d="M643.5,-159.6C665.57,-168 686.25,-180.49 700.75,-199 720.66,-224.43 701.28,-313.12 710.75,-344 712.14,-348.55 750.24,-414.79 753.75,-418 755.65,-419.74 757.68,-421.39 759.81,-422.95"/>
<polygon fill="#4a90d9" stroke="#4a90d9" stroke-width="2" points="758.45,-424.99 765.62,-426.86 761.18,-420.92 758.45,-424.99"/>
<text text-anchor="middle" x="723.25" y="-389.6" font-family="Times-Roman" font-size="8.00" fill="#4a90d9">about</text>
</g>
<!-- L4YAML.Proofs.EmitterScannability.advance_line_of_peek&#45;&gt;L4YAML.Scanner.ScannerState.peek? -->
<g id="edge5" class="edge">
<title>L4YAML.Proofs.EmitterScannability.advance_line_of_peek&#45;&gt;L4YAML.Scanner.ScannerState.peek?</title>
<path fill="none" stroke="#4a90d9" stroke-width="2" d="M669.57,-156.63C692.18,-161.32 714.95,-167.59 735.75,-176 753.68,-183.25 771.49,-195.45 785.31,-206.32"/>
<polygon fill="#4a90d9" stroke="#4a90d9" stroke-width="2" points="783.98,-208.4 790.97,-210.88 787.05,-204.58 783.98,-208.4"/>
<text text-anchor="middle" x="723.25" y="-178.6" font-family="Times-Roman" font-size="8.00" fill="#4a90d9">about</text>
</g>
<!-- L4YAML.Proofs.EmitterScannability.advance_line_of_peek&#45;&gt;L4YAML.Scanner.ScannerState -->
<g id="edge4" class="edge">
<title>L4YAML.Proofs.EmitterScannability.advance_line_of_peek&#45;&gt;L4YAML.Scanner.ScannerState</title>
<path fill="none" stroke="#4a90d9" stroke-width="2" d="M644.22,-159.56C666.11,-167.97 686.52,-180.48 700.75,-199 714.36,-216.74 704.27,-378.6 710.75,-400 713.45,-408.92 746.84,-465.75 753.75,-472 757.89,-475.75 762.64,-479.07 767.6,-481.98"/>
<polygon fill="#4a90d9" stroke="#4a90d9" stroke-width="2" points="766.64,-484.25 773.96,-485.46 768.99,-479.96 766.64,-484.25"/>
<text text-anchor="middle" x="723.25" y="-446.6" font-family="Times-Roman" font-size="8.00" fill="#4a90d9">about</text>
</g>
<!-- L4YAML.Proofs.EmitterScannability.advance_line_of_peek&#45;&gt;L4YAML.Scanner.ScannerState.offset -->
<g id="edge2" class="edge">
<title>L4YAML.Proofs.EmitterScannability.advance_line_of_peek&#45;&gt;L4YAML.Scanner.ScannerState.offset</title>
<path fill="none" stroke="#4a90d9" stroke-width="2" d="M635.51,-160.47C659.52,-168.76 683.03,-180.99 700.75,-199 711.49,-209.93 704.7,-217.92 710.75,-232 719.62,-252.67 724.93,-256.28 735.75,-276 743.97,-290.99 741.37,-298.2 753.75,-310 755.46,-311.64 757.3,-313.19 759.22,-314.66"/>
<polygon fill="#4a90d9" stroke="#4a90d9" stroke-width="2" points="758.05,-316.83 765.2,-318.82 760.85,-312.81 758.05,-316.83"/>
<text text-anchor="middle" x="723.25" y="-278.6" font-family="Times-Roman" font-size="8.00" fill="#4a90d9">about</text>
</g>
<!-- L4YAML.Proofs.EmitterScannability.advance_line_of_peek&#45;&gt;L4YAML.Scanner.ScannerState.inputEnd -->
<g id="edge3" class="edge">
<title>L4YAML.Proofs.EmitterScannability.advance_line_of_peek&#45;&gt;L4YAML.Scanner.ScannerState.inputEnd</title>
<path fill="none" stroke="#4a90d9" stroke-width="2" d="M642.03,-159.73C664.46,-168.1 685.67,-180.55 700.75,-199 713.48,-214.58 704.5,-269.87 710.75,-289 710.93,-289.57 753.31,-363.59 753.75,-364 755.64,-365.75 757.67,-367.4 759.79,-368.96"/>
<polygon fill="#4a90d9" stroke="#4a90d9" stroke-width="2" points="758.43,-371 765.6,-372.88 761.17,-366.94 758.43,-371"/>
<text text-anchor="middle" x="723.25" y="-333.6" font-family="Times-Roman" font-size="8.00" fill="#4a90d9">about</text>
</g>
<!-- L4YAML.Proofs.CouplingBridge.advance_line_non_newline -->
<g id="node9" class="node">
<title>L4YAML.Proofs.CouplingBridge.advance_line_non_newline</title>
<g id="a_node9"><a xlink:href="../../../api/L4YAML/Proofs/Coupling/CouplingBridge.html#L4YAML.Proofs.CouplingBridge.advance_line_non_newline" xlink:title="CouplingBridge.advance_line_non_newline\n(Coupling.CouplingBridge)" target="_blank">
<ellipse fill="#d4edda" stroke="#28a745" cx="158.13" cy="-356" rx="142.26" ry="21.43"/>
<text text-anchor="middle" x="158.13" y="-359" font-family="Helvetica" font-size="10.00">CouplingBridge.advance_line_non_newline</text>
<text text-anchor="middle" x="158.13" y="-348" font-family="Helvetica" font-size="10.00">(Coupling.CouplingBridge)</text>
</a>
</g>
</g>
<!-- L4YAML.Proofs.CouplingBridge.advance_line_non_newline&#45;&gt;L4YAML.Scanner.ScannerState.input -->
<g id="edge17" class="edge">
<title>L4YAML.Proofs.CouplingBridge.advance_line_non_newline&#45;&gt;L4YAML.Scanner.ScannerState.input</title>
<path fill="none" stroke="#6f42c1" stroke-width="2" stroke-dasharray="5,2" d="M181.3,-377.06C210.3,-403.26 263.84,-447.2 318.26,-469 367.32,-488.65 427.53,-495.64 470.21,-498.03"/>
<polygon fill="#6f42c1" stroke="#6f42c1" stroke-width="2" points="470.24,-499.78 475.32,-498.29 470.42,-496.28 470.24,-499.78"/>
<text text-anchor="middle" x="329.26" y="-478.4" font-family="Times-Roman" font-size="7.00" fill="#6f42c1">about</text>
</g>
<!-- L4YAML.Proofs.CouplingBridge.advance_line_non_newline&#45;&gt;L4YAML.Scanner.ScannerState.advance -->
<g id="edge13" class="edge">
<title>L4YAML.Proofs.CouplingBridge.advance_line_non_newline&#45;&gt;L4YAML.Scanner.ScannerState.advance</title>
<path fill="none" stroke="#6f42c1" stroke-width="2" stroke-dasharray="5,2" d="M217.52,-336.63C255.06,-324.82 305.1,-310.26 350.26,-301 508.43,-268.58 549.6,-266.02 710.75,-256 721.84,-255.31 724.8,-254.1 735.75,-256 745.09,-257.62 754.81,-260.29 764.04,-263.34"/>
<polygon fill="#6f42c1" stroke="#6f42c1" stroke-width="2" points="763.52,-265.01 768.82,-264.96 764.65,-261.69 763.52,-265.01"/>
<text text-anchor="middle" x="525.5" y="-303.4" font-family="Times-Roman" font-size="7.00" fill="#6f42c1">about</text>
</g>
<!-- L4YAML.Proofs.CouplingBridge.advance_line_non_newline&#45;&gt;L4YAML.Scanner.ScannerState.line -->
<g id="edge18" class="edge">
<title>L4YAML.Proofs.CouplingBridge.advance_line_non_newline&#45;&gt;L4YAML.Scanner.ScannerState.line</title>
<path fill="none" stroke="#6f42c1" stroke-width="2" stroke-dasharray="5,2" d="M273.05,-368.5C415.05,-384.35 649.57,-411.47 735.75,-427 743.65,-428.42 751.97,-430.16 760.08,-431.99"/>
<polygon fill="#6f42c1" stroke="#6f42c1" stroke-width="2" points="759.84,-433.73 765.1,-433.14 760.62,-430.32 759.84,-433.73"/>
<text text-anchor="middle" x="525.5" y="-423.4" font-family="Times-Roman" font-size="7.00" fill="#6f42c1">about</text>
</g>
<!-- L4YAML.Proofs.CouplingBridge.advance_line_non_newline&#45;&gt;L4YAML.Scanner.ScannerState -->
<g id="edge16" class="edge">
<title>L4YAML.Proofs.CouplingBridge.advance_line_non_newline&#45;&gt;L4YAML.Scanner.ScannerState</title>
<path fill="none" stroke="#6f42c1" stroke-width="2" stroke-dasharray="5,2" d="M199.73,-376.46C237.65,-394.56 296.34,-420.06 350.26,-433 502.32,-469.5 547.41,-433.32 700.75,-464 723.86,-468.62 748.95,-476.34 769.37,-483.36"/>
<polygon fill="#6f42c1" stroke="#6f42c1" stroke-width="2" points="768.89,-485.04 774.19,-485.03 770.04,-481.73 768.89,-485.04"/>
<text text-anchor="middle" x="525.5" y="-466.4" font-family="Times-Roman" font-size="7.00" fill="#6f42c1">about</text>
</g>
<!-- L4YAML.Proofs.CouplingBridge.advance_line_non_newline&#45;&gt;L4YAML.Scanner.ScannerState.offset -->
<g id="edge14" class="edge">
<title>L4YAML.Proofs.CouplingBridge.advance_line_non_newline&#45;&gt;L4YAML.Scanner.ScannerState.offset</title>
<path fill="none" stroke="#6f42c1" stroke-width="2" stroke-dasharray="5,2" d="M248.78,-339.66C280.71,-334.44 316.99,-329.2 350.26,-326 509.84,-310.65 550.45,-315.89 710.75,-313 721.86,-312.8 724.77,-311.3 735.75,-313 742.7,-314.08 749.9,-315.69 756.95,-317.57"/>
<polygon fill="#6f42c1" stroke="#6f42c1" stroke-width="2" points="756.53,-319.26 761.81,-318.91 757.46,-315.89 756.53,-319.26"/>
<text text-anchor="middle" x="525.5" y="-328.4" font-family="Times-Roman" font-size="7.00" fill="#6f42c1">about</text>
</g>
<!-- L4YAML.Proofs.CouplingBridge.advance_line_non_newline&#45;&gt;L4YAML.Scanner.ScannerState.inputEnd -->
<g id="edge15" class="edge">
<title>L4YAML.Proofs.CouplingBridge.advance_line_non_newline&#45;&gt;L4YAML.Scanner.ScannerState.inputEnd</title>
<path fill="none" stroke="#6f42c1" stroke-width="2" stroke-dasharray="5,2" d="M294.5,-349.91C411.87,-346.86 585.94,-347.7 735.75,-370 739.91,-370.62 744.16,-371.39 748.43,-372.28"/>
<polygon fill="#6f42c1" stroke="#6f42c1" stroke-width="2" points="748.18,-374.02 753.44,-373.37 748.92,-370.6 748.18,-374.02"/>
<text text-anchor="middle" x="525.5" y="-366.4" font-family="Times-Roman" font-size="7.00" fill="#6f42c1">about</text>
</g>
<!-- L4YAML.Proofs.CouplingBridge.advance_line_non_newline&#45;&gt;L4YAML.Proofs.EmitterScannability.advance_line_of_peek -->
<g id="edge7" class="edge">
<title>L4YAML.Proofs.CouplingBridge.advance_line_non_newline&#45;&gt;L4YAML.Proofs.EmitterScannability.advance_line_of_peek</title>
<path fill="none" stroke="#28a745" d="M251.28,-339.81C272.87,-331.81 293.77,-319.85 308.26,-302 328.34,-277.25 304.03,-259.52 318.26,-231 327.23,-213 333.09,-209.48 350.26,-199 374.26,-184.35 402.49,-173.13 429.16,-164.73"/>
<polygon fill="#28a745" stroke="#28a745" points="429.93,-167.05 435.9,-162.65 428.49,-162.37 429.93,-167.05"/>
</g>
<!-- instLawfulBEqChar -->
<g id="node10" class="node">
<title>instLawfulBEqChar</title>
<g id="a_node10"><a xlink:href="../../../api/Init/Core.html#instLawfulBEqChar" xlink:title="instLawfulBEqChar" target="_blank">
<ellipse fill="#fdebd0" stroke="#e67e22" cx="158.13" cy="-250" rx="59.41" ry="18"/>
<text text-anchor="middle" x="158.13" y="-247.5" font-family="Helvetica" font-size="10.00">instLawfulBEqChar</text>
</a>
</g>
</g>
<!-- instLawfulBEqChar&#45;&gt;L4YAML.Proofs.EmitterScannability.advance_line_of_peek -->
<g id="edge8" class="edge">
<title>instLawfulBEqChar&#45;&gt;L4YAML.Proofs.EmitterScannability.advance_line_of_peek</title>
<path fill="none" stroke="#e67e22" stroke-width="2" d="M217.66,-250.62C247.11,-248.3 282.04,-241.29 308.26,-223 315.45,-217.98 311.37,-211.43 318.26,-206 344.15,-185.58 376.65,-171.75 408.13,-162.4"/>
<polygon fill="#e67e22" stroke="#e67e22" stroke-width="2" points="409.2,-164.64 415.26,-160.35 407.85,-159.93 409.2,-164.64"/>
</g>
<!-- Option.some.inj -->
<g id="node11" class="node">
<title>Option.some.inj</title>
<g id="a_node11"><a xlink:href="../../../api/Init/Core.html#Option.some.inj" xlink:title="Option.some.inj" target="_blank">
<ellipse fill="#fdebd0" stroke="#e67e22" cx="158.13" cy="-196" rx="50.07" ry="18"/>
<text text-anchor="middle" x="158.13" y="-193.5" font-family="Helvetica" font-size="10.00">Option.some.inj</text>
</a>
</g>
</g>
<!-- Option.some.inj&#45;&gt;L4YAML.Proofs.EmitterScannability.advance_line_of_peek -->
<g id="edge9" class="edge">
<title>Option.some.inj&#45;&gt;L4YAML.Proofs.EmitterScannability.advance_line_of_peek</title>
<path fill="none" stroke="#e67e22" stroke-width="2" d="M205.03,-189.34C254.23,-182.2 334.39,-170.58 402.11,-160.75"/>
<polygon fill="#e67e22" stroke="#e67e22" stroke-width="2" points="402.46,-163.18 409.04,-159.75 401.76,-158.33 402.46,-163.18"/>
</g>
<!-- of_eq_true -->
<g id="node12" class="node">
<title>of_eq_true</title>
<g id="a_node12"><a xlink:href="../../../api/Init/SimpLemmas.html#of_eq_true" xlink:title="of_eq_true" target="_blank">
<ellipse fill="#fdebd0" stroke="#e67e22" cx="158.13" cy="-142" rx="36.49" ry="18"/>
<text text-anchor="middle" x="158.13" y="-139.5" font-family="Helvetica" font-size="10.00">of_eq_true</text>
</a>
</g>
</g>
<!-- of_eq_true&#45;&gt;L4YAML.Proofs.EmitterScannability.advance_line_of_peek -->
<g id="edge10" class="edge">
<title>of_eq_true&#45;&gt;L4YAML.Proofs.EmitterScannability.advance_line_of_peek</title>
<path fill="none" stroke="#e67e22" stroke-width="2" d="M194.83,-142.1C231.67,-142.2 291.92,-142.36 350.9,-142.52"/>
<polygon fill="#e67e22" stroke="#e67e22" stroke-width="2" points="351.08,-144.98 358.09,-142.54 351.09,-140.08 351.08,-144.98"/>
</g>
<!-- beq_iff_eq._simp_1 -->
<g id="node13" class="node">
<title>beq_iff_eq._simp_1</title>
<g id="a_node13"><a xlink:href="../../../api/Init/Core.html#beq_iff_eq._simp_1" xlink:title="beq_iff_eq._simp_1" target="_blank">
<ellipse fill="#fdebd0" stroke="#e67e22" cx="158.13" cy="-88" rx="59.41" ry="18"/>
<text text-anchor="middle" x="158.13" y="-85.5" font-family="Helvetica" font-size="10.00">beq_iff_eq._simp_1</text>
</a>
</g>
</g>
<!-- beq_iff_eq._simp_1&#45;&gt;L4YAML.Proofs.EmitterScannability.advance_line_of_peek -->
<g id="edge11" class="edge">
<title>beq_iff_eq._simp_1&#45;&gt;L4YAML.Proofs.EmitterScannability.advance_line_of_peek</title>
<path fill="none" stroke="#e67e22" stroke-width="2" d="M211.87,-95.94C262.01,-103.49 339.25,-115.11 404.4,-124.92"/>
<polygon fill="#e67e22" stroke="#e67e22" stroke-width="2" points="404.19,-127.37 411.47,-125.99 404.92,-122.52 404.19,-127.37"/>
</g>
<!-- not_false_eq_true -->
<g id="node14" class="node">
<title>not_false_eq_true</title>
<g id="a_node14"><a xlink:href="../../../api/Init/SimpLemmas.html#not_false_eq_true" xlink:title="not_false_eq_true" target="_blank">
<ellipse fill="#fdebd0" stroke="#e67e22" cx="158.13" cy="-34" rx="55.17" ry="18"/>
<text text-anchor="middle" x="158.13" y="-31.5" font-family="Helvetica" font-size="10.00">not_false_eq_true</text>
</a>
</g>
</g>
<!-- not_false_eq_true&#45;&gt;L4YAML.Proofs.EmitterScannability.advance_line_of_peek -->
<g id="edge12" class="edge">
<title>not_false_eq_true&#45;&gt;L4YAML.Proofs.EmitterScannability.advance_line_of_peek</title>
<path fill="none" stroke="#e67e22" stroke-width="2" d="M209.7,-40.8C238.81,-45.29 275.93,-52.03 308.26,-61 363.64,-76.37 424.7,-100.19 467.77,-118.21"/>
<polygon fill="#e67e22" stroke="#e67e22" stroke-width="2" points="466.86,-120.48 474.26,-120.93 468.76,-115.96 466.86,-120.48"/>
</g>
</g>
</svg>
