<?xml version="1.0" encoding="UTF-8" standalone="no"?>
<!DOCTYPE svg PUBLIC "-//W3C//DTD SVG 1.1//EN"
 "http://www.w3.org/Graphics/SVG/1.1/DTD/svg11.dtd">
<!-- Generated by graphviz version 2.44.0 (0)
 -->
<!-- Title: chain_EmitterScannability.AllTokensOnLine_allowDirectives Pages: 1 -->
<svg width="485pt" height="98pt"
 viewBox="0.00 0.00 485.00 97.92" xmlns="http://www.w3.org/2000/svg" xmlns:xlink="http://www.w3.org/1999/xlink">
<g id="graph0" class="graph" transform="scale(1 1) rotate(0) translate(4 93.92)">
<title>chain_EmitterScannability.AllTokensOnLine_allowDirectives</title>
<polygon fill="white" stroke="transparent" points="-4,4 -4,-93.92 481,-93.92 481,4 -4,4"/>
<text text-anchor="middle" x="238.5" y="-75.52" font-family="Helvetica Bold" font-size="13.00">Functorial Chains: EmitterScannability.AllTokensOnLine_allowDirectives</text>
<text text-anchor="middle" x="238.5" y="-61.52" font-family="Helvetica Bold" font-size="13.00">(heuristic: used by 9 proofs)</text>
<!-- L4YAML.Proofs.EmitterScannability.AllTokensOnLine_allowDirectives -->
<g id="node1" class="node">
<title>L4YAML.Proofs.EmitterScannability.AllTokensOnLine_allowDirectives</title>
<polygon fill="#fff3cd" stroke="black" points="428.13,-17.46 428.13,-36.46 317.05,-49.89 159.95,-49.89 48.87,-36.46 48.87,-17.46 159.95,-4.03 317.05,-4.03 428.13,-17.46"/>
<polygon fill="none" stroke="black" points="432.12,-13.92 432.12,-40 317.29,-53.88 159.71,-53.88 44.88,-40 44.88,-13.92 159.71,-0.04 317.29,-0.04 432.12,-13.92"/>
<text text-anchor="middle" x="238.5" y="-29.96" font-family="Helvetica" font-size="10.00">EmitterScannability.AllTokensOnLine_allowDirectives</text>
<text text-anchor="middle" x="238.5" y="-18.96" font-family="Helvetica" font-size="10.00">(no functorial chains found)</text>
</g>
</g>
</svg>
