<?xml version="1.0" encoding="UTF-8" standalone="no"?>
<!DOCTYPE svg PUBLIC "-//W3C//DTD SVG 1.1//EN"
 "http://www.w3.org/Graphics/SVG/1.1/DTD/svg11.dtd">
<!-- Generated by graphviz version 2.44.0 (0)
 -->
<!-- Title: EmitterScannability.AllTokensOnLine_allowDirectives Pages: 1 -->
<svg width="690pt" height="1282pt"
 viewBox="0.00 0.00 690.11 1282.00" xmlns="http://www.w3.org/2000/svg" xmlns:xlink="http://www.w3.org/1999/xlink">
<g id="graph0" class="graph" transform="scale(1 1) rotate(0) translate(4 1278)">
<title>EmitterScannability.AllTokensOnLine_allowDirectives</title>
<polygon fill="white" stroke="transparent" points="-4,4 -4,-1278 686.11,-1278 686.11,4 -4,4"/>
<text text-anchor="middle" x="341.06" y="-1259.6" font-family="Helvetica Bold" font-size="13.00">EmitterScannability.AllTokensOnLine_allowDirectives</text>
<text text-anchor="middle" x="341.06" y="-1245.6" font-family="Helvetica Bold" font-size="13.00">(heuristic: used by 9 proofs)</text>
<text text-anchor="middle" x="341.06" y="-1231.6" font-family="Helvetica Bold" font-size="13.00">(L4YAML.Proofs.Output.EmitterScannability)</text>
<g id="clust1" class="cluster">
<title>cluster_functions</title>
<polygon fill="none" stroke="#4a90d9" stroke-dasharray="5,2" points="482.11,-8 482.11,-1216 674.11,-1216 674.11,-8 482.11,-8"/>
<text text-anchor="middle" x="578.11" y="-1201.6" font-family="Helvetica Bold" font-size="13.00" fill="#4a90d9">Functions</text>
</g>
<g id="clust2" class="cluster">
<title>cluster_key</title>
<polygon fill="none" stroke="#d4a017" stroke-dasharray="5,2" points="8,-570 8,-652 437.11,-652 437.11,-570 8,-570"/>
<text text-anchor="middle" x="222.56" y="-637.6" font-family="Helvetica Bold" font-size="13.00" fill="#d4a017">Key Theorem</text>
</g>
<!-- L4YAML.Scanner.ScannerState.simpleKey -->
<g id="node1" class="node">
<title>L4YAML.Scanner.ScannerState.simpleKey</title>
<g id="a_node1"><a xlink:href="../../../api/L4YAML/Scanner/State.html#L4YAML.Scanner.ScannerState.simpleKey" xlink:title="ScannerState.simpleKey\n(def)" target="_blank">
<polygon fill="#dce9f7" stroke="#4a90d9" points="640.11,-1186 516.11,-1186 516.11,-1150 640.11,-1150 640.11,-1186"/>
<text text-anchor="middle" x="578.11" y="-1171" font-family="Helvetica" font-size="10.00">ScannerState.simpleKey</text>
<text text-anchor="middle" x="578.11" y="-1160" font-family="Helvetica" font-size="10.00">(def)</text>
</a>
</g>
</g>
<!-- L4YAML.Scanner.ScannerState.input -->
<g id="node2" class="node">
<title>L4YAML.Scanner.ScannerState.input</title>
<g id="a_node2"><a xlink:href="../../../api/L4YAML/Scanner/State.html#L4YAML.Scanner.ScannerState.input" xlink:title="ScannerState.input\n(def)" target="_blank">
<polygon fill="#dce9f7" stroke="#4a90d9" points="628.11,-1132 528.11,-1132 528.11,-1096 628.11,-1096 628.11,-1132"/>
<text text-anchor="middle" x="578.11" y="-1117" font-family="Helvetica" font-size="10.00">ScannerState.input</text>
<text text-anchor="middle" x="578.11" y="-1106" font-family="Helvetica" font-size="10.00">(def)</text>
</a>
</g>
</g>
<!-- L4YAML.Scanner.ScannerState.line -->
<g id="node3" class="node">
<title>L4YAML.Scanner.ScannerState.line</title>
<g id="a_node3"><a xlink:href="../../../api/L4YAML/Scanner/State.html#L4YAML.Scanner.ScannerState.line" xlink:title="ScannerState.line\n(def)" target="_blank">
<polygon fill="#dce9f7" stroke="#4a90d9" points="625.11,-1078 531.11,-1078 531.11,-1042 625.11,-1042 625.11,-1078"/>
<text text-anchor="middle" x="578.11" y="-1063" font-family="Helvetica" font-size="10.00">ScannerState.line</text>
<text text-anchor="middle" x="578.11" y="-1052" font-family="Helvetica" font-size="10.00">(def)</text>
</a>
</g>
</g>
<!-- L4YAML.Scanner.ScannerState.flowLevel -->
<g id="node4" class="node">
<title>L4YAML.Scanner.ScannerState.flowLevel</title>
<g id="a_node4"><a xlink:href="../../../api/L4YAML/Scanner/State.html#L4YAML.Scanner.ScannerState.flowLevel" xlink:title="ScannerState.flowLevel\n(def)" target="_blank">
<polygon fill="#dce9f7" stroke="#4a90d9" points="637.61,-1024 518.61,-1024 518.61,-988 637.61,-988 637.61,-1024"/>
<text text-anchor="middle" x="578.11" y="-1009" font-family="Helvetica" font-size="10.00">ScannerState.flowLevel</text>
<text text-anchor="middle" x="578.11" y="-998" font-family="Helvetica" font-size="10.00">(def)</text>
</a>
</g>
</g>
<!-- L4YAML.Scanner.ScannerState.explicitKeyLine -->
<g id="node5" class="node">
<title>L4YAML.Scanner.ScannerState.explicitKeyLine</title>
<g id="a_node5"><a xlink:href="../../../api/L4YAML/Scanner/State.html#L4YAML.Scanner.ScannerState.explicitKeyLine" xlink:title="ScannerState.explicitKeyLine\n(def)" target="_blank">
<polygon fill="#dce9f7" stroke="#4a90d9" points="650.11,-970 506.11,-970 506.11,-934 650.11,-934 650.11,-970"/>
<text text-anchor="middle" x="578.11" y="-955" font-family="Helvetica" font-size="10.00">ScannerState.explicitKeyLine</text>
<text text-anchor="middle" x="578.11" y="-944" font-family="Helvetica" font-size="10.00">(def)</text>
</a>
</g>
</g>
<!-- L4YAML.Scanner.ScannerState.mk -->
<g id="node6" class="node">
<title>L4YAML.Scanner.ScannerState.mk</title>
<g id="a_node6"><a xlink:href="../../../api/L4YAML/Scanner/State.html#L4YAML.Scanner.ScannerState.mk" xlink:title="ScannerState.mk\n(ctor)" target="_blank">
<polygon fill="#dce9f7" stroke="#4a90d9" points="624.11,-916 532.11,-916 532.11,-880 624.11,-880 624.11,-916"/>
<text text-anchor="middle" x="578.11" y="-901" font-family="Helvetica" font-size="10.00">ScannerState.mk</text>
<text text-anchor="middle" x="578.11" y="-890" font-family="Helvetica" font-size="10.00">(ctor)</text>
</a>
</g>
</g>
<!-- L4YAML.Scanner.ScannerState -->
<g id="node7" class="node">
<title>L4YAML.Scanner.ScannerState</title>
<g id="a_node7"><a xlink:href="../../../api/L4YAML/Scanner/State.html#L4YAML.Scanner.ScannerState" xlink:title="ScannerState\n(inductive)" target="_blank">
<polygon fill="#dce9f7" stroke="#4a90d9" points="616.11,-862 540.11,-862 540.11,-826 616.11,-826 616.11,-862"/>
<text text-anchor="middle" x="578.11" y="-847" font-family="Helvetica" font-size="10.00">ScannerState</text>
<text text-anchor="middle" x="578.11" y="-836" font-family="Helvetica" font-size="10.00">(inductive)</text>
</a>
</g>
</g>
<!-- L4YAML.Scanner.ScannerState.simpleKeyAllowed -->
<g id="node8" class="node">
<title>L4YAML.Scanner.ScannerState.simpleKeyAllowed</title>
<g id="a_node8"><a xlink:href="../../../api/L4YAML/Scanner/State.html#L4YAML.Scanner.ScannerState.simpleKeyAllowed" xlink:title="ScannerState.simpleKeyAllowed\n(def)" target="_blank">
<polygon fill="#dce9f7" stroke="#4a90d9" points="657.11,-808 499.11,-808 499.11,-772 657.11,-772 657.11,-808"/>
<text text-anchor="middle" x="578.11" y="-793" font-family="Helvetica" font-size="10.00">ScannerState.simpleKeyAllowed</text>
<text text-anchor="middle" x="578.11" y="-782" font-family="Helvetica" font-size="10.00">(def)</text>
</a>
</g>
</g>
<!-- L4YAML.Scanner.ScannerState.seenYamlDirective -->
<g id="node9" class="node">
<title>L4YAML.Scanner.ScannerState.seenYamlDirective</title>
<g id="a_node9"><a xlink:href="../../../api/L4YAML/Scanner/State.html#L4YAML.Scanner.ScannerState.seenYamlDirective" xlink:title="ScannerState.seenYamlDirective\n(def)" target="_blank">
<polygon fill="#dce9f7" stroke="#4a90d9" points="658.11,-754 498.11,-754 498.11,-718 658.11,-718 658.11,-754"/>
<text text-anchor="middle" x="578.11" y="-739" font-family="Helvetica" font-size="10.00">ScannerState.seenYamlDirective</text>
<text text-anchor="middle" x="578.11" y="-728" font-family="Helvetica" font-size="10.00">(def)</text>
</a>
</g>
</g>
<!-- L4YAML.Scanner.ScannerState.indents -->
<g id="node10" class="node">
<title>L4YAML.Scanner.ScannerState.indents</title>
<g id="a_node10"><a xlink:href="../../../api/L4YAML/Scanner/State.html#L4YAML.Scanner.ScannerState.indents" xlink:title="ScannerState.indents\n(def)" target="_blank">
<polygon fill="#dce9f7" stroke="#4a90d9" points="633.11,-700 523.11,-700 523.11,-664 633.11,-664 633.11,-700"/>
<text text-anchor="middle" x="578.11" y="-685" font-family="Helvetica" font-size="10.00">ScannerState.indents</text>
<text text-anchor="middle" x="578.11" y="-674" font-family="Helvetica" font-size="10.00">(def)</text>
</a>
</g>
</g>
<!-- L4YAML.Scanner.ScannerState.needIndentCheck -->
<g id="node11" class="node">
<title>L4YAML.Scanner.ScannerState.needIndentCheck</title>
<g id="a_node11"><a xlink:href="../../../api/L4YAML/Scanner/State.html#L4YAML.Scanner.ScannerState.needIndentCheck" xlink:title="ScannerState.needIndentCheck\n(def)" target="_blank">
<polygon fill="#dce9f7" stroke="#4a90d9" points="655.61,-646 500.61,-646 500.61,-610 655.61,-610 655.61,-646"/>
<text text-anchor="middle" x="578.11" y="-631" font-family="Helvetica" font-size="10.00">ScannerState.needIndentCheck</text>
<text text-anchor="middle" x="578.11" y="-620" font-family="Helvetica" font-size="10.00">(def)</text>
</a>
</g>
</g>
<!-- L4YAML.Scanner.ScannerState.tokens -->
<g id="node12" class="node">
<title>L4YAML.Scanner.ScannerState.tokens</title>
<g id="a_node12"><a xlink:href="../../../api/L4YAML/Scanner/State.html#L4YAML.Scanner.ScannerState.tokens" xlink:title="ScannerState.tokens\n(def)" target="_blank">
<polygon fill="#dce9f7" stroke="#4a90d9" points="631.61,-592 524.61,-592 524.61,-556 631.61,-556 631.61,-592"/>
<text text-anchor="middle" x="578.11" y="-577" font-family="Helvetica" font-size="10.00">ScannerState.tokens</text>
<text text-anchor="middle" x="578.11" y="-566" font-family="Helvetica" font-size="10.00">(def)</text>
</a>
</g>
</g>
<!-- L4YAML.Scanner.ScannerState.definedAnchors -->
<g id="node13" class="node">
<title>L4YAML.Scanner.ScannerState.definedAnchors</title>
<g id="a_node13"><a xlink:href="../../../api/L4YAML/Scanner/State.html#L4YAML.Scanner.ScannerState.definedAnchors" xlink:title="ScannerState.definedAnchors\n(def)" target="_blank">
<polygon fill="#dce9f7" stroke="#4a90d9" points="651.61,-538 504.61,-538 504.61,-502 651.61,-502 651.61,-538"/>
<text text-anchor="middle" x="578.11" y="-523" font-family="Helvetica" font-size="10.00">ScannerState.definedAnchors</text>
<text text-anchor="middle" x="578.11" y="-512" font-family="Helvetica" font-size="10.00">(def)</text>
</a>
</g>
</g>
<!-- L4YAML.Scanner.ScannerState.comments -->
<g id="node14" class="node">
<title>L4YAML.Scanner.ScannerState.comments</title>
<g id="a_node14"><a xlink:href="../../../api/L4YAML/Scanner/State.html#L4YAML.Scanner.ScannerState.comments" xlink:title="ScannerState.comments\n(def)" target="_blank">
<polygon fill="#dce9f7" stroke="#4a90d9" points="640.61,-484 515.61,-484 515.61,-448 640.61,-448 640.61,-484"/>
<text text-anchor="middle" x="578.11" y="-469" font-family="Helvetica" font-size="10.00">ScannerState.comments</text>
<text text-anchor="middle" x="578.11" y="-458" font-family="Helvetica" font-size="10.00">(def)</text>
</a>
</g>
</g>
<!-- L4YAML.Proofs.EmitterScannability.AllTokensOnLine -->
<g id="node15" class="node">
<title>L4YAML.Proofs.EmitterScannability.AllTokensOnLine</title>
<g id="a_node15"><a xlink:href="../../../api/L4YAML/Proofs/Output/EmitterScannability.html#L4YAML.Proofs.EmitterScannability.AllTokensOnLine" xlink:title="EmitterScannability.AllTokensOnLine\n(def)" target="_blank">
<polygon fill="#dce9f7" stroke="#4a90d9" points="666.11,-430 490.11,-430 490.11,-394 666.11,-394 666.11,-430"/>
<text text-anchor="middle" x="578.11" y="-415" font-family="Helvetica" font-size="10.00">EmitterScannability.AllTokensOnLine</text>
<text text-anchor="middle" x="578.11" y="-404" font-family="Helvetica" font-size="10.00">(def)</text>
</a>
</g>
</g>
<!-- L4YAML.Scanner.ScannerState.allowDirectives -->
<g id="node16" class="node">
<title>L4YAML.Scanner.ScannerState.allowDirectives</title>
<g id="a_node16"><a xlink:href="../../../api/L4YAML/Scanner/State.html#L4YAML.Scanner.ScannerState.allowDirectives" xlink:title="ScannerState.allowDirectives\n(def)" target="_blank">
<polygon fill="#dce9f7" stroke="#4a90d9" points="650.61,-376 505.61,-376 505.61,-340 650.61,-340 650.61,-376"/>
<text text-anchor="middle" x="578.11" y="-361" font-family="Helvetica" font-size="10.00">ScannerState.allowDirectives</text>
<text text-anchor="middle" x="578.11" y="-350" font-family="Helvetica" font-size="10.00">(def)</text>
</a>
</g>
</g>
<!-- L4YAML.Scanner.ScannerState.col -->
<g id="node17" class="node">
<title>L4YAML.Scanner.ScannerState.col</title>
<g id="a_node17"><a xlink:href="../../../api/L4YAML/Scanner/State.html#L4YAML.Scanner.ScannerState.col" xlink:title="ScannerState.col\n(def)" target="_blank">
<polygon fill="#dce9f7" stroke="#4a90d9" points="624.11,-322 532.11,-322 532.11,-286 624.11,-286 624.11,-322"/>
<text text-anchor="middle" x="578.11" y="-307" font-family="Helvetica" font-size="10.00">ScannerState.col</text>
<text text-anchor="middle" x="578.11" y="-296" font-family="Helvetica" font-size="10.00">(def)</text>
</a>
</g>
</g>
<!-- L4YAML.Scanner.ScannerState.simpleKeyStack -->
<g id="node18" class="node">
<title>L4YAML.Scanner.ScannerState.simpleKeyStack</title>
<g id="a_node18"><a xlink:href="../../../api/L4YAML/Scanner/State.html#L4YAML.Scanner.ScannerState.simpleKeyStack" xlink:title="ScannerState.simpleKeyStack\n(def)" target="_blank">
<polygon fill="#dce9f7" stroke="#4a90d9" points="652.61,-268 503.61,-268 503.61,-232 652.61,-232 652.61,-268"/>
<text text-anchor="middle" x="578.11" y="-253" font-family="Helvetica" font-size="10.00">ScannerState.simpleKeyStack</text>
<text text-anchor="middle" x="578.11" y="-242" font-family="Helvetica" font-size="10.00">(def)</text>
</a>
</g>
</g>
<!-- L4YAML.Scanner.ScannerState.offset -->
<g id="node19" class="node">
<title>L4YAML.Scanner.ScannerState.offset</title>
<g id="a_node19"><a xlink:href="../../../api/L4YAML/Scanner/State.html#L4YAML.Scanner.ScannerState.offset" xlink:title="ScannerState.offset\n(def)" target="_blank">
<polygon fill="#dce9f7" stroke="#4a90d9" points="629.61,-214 526.61,-214 526.61,-178 629.61,-178 629.61,-214"/>
<text text-anchor="middle" x="578.11" y="-199" font-family="Helvetica" font-size="10.00">ScannerState.offset</text>
<text text-anchor="middle" x="578.11" y="-188" font-family="Helvetica" font-size="10.00">(def)</text>
</a>
</g>
</g>
<!-- L4YAML.Scanner.ScannerState.flowStack -->
<g id="node20" class="node">
<title>L4YAML.Scanner.ScannerState.flowStack</title>
<g id="a_node20"><a xlink:href="../../../api/L4YAML/Scanner/State.html#L4YAML.Scanner.ScannerState.flowStack" xlink:title="ScannerState.flowStack\n(def)" target="_blank">
<polygon fill="#dce9f7" stroke="#4a90d9" points="639.11,-160 517.11,-160 517.11,-124 639.11,-124 639.11,-160"/>
<text text-anchor="middle" x="578.11" y="-145" font-family="Helvetica" font-size="10.00">ScannerState.flowStack</text>
<text text-anchor="middle" x="578.11" y="-134" font-family="Helvetica" font-size="10.00">(def)</text>
</a>
</g>
</g>
<!-- L4YAML.Scanner.ScannerState.inputEnd -->
<g id="node21" class="node">
<title>L4YAML.Scanner.ScannerState.inputEnd</title>
<g id="a_node21"><a xlink:href="../../../api/L4YAML/Scanner/State.html#L4YAML.Scanner.ScannerState.inputEnd" xlink:title="ScannerState.inputEnd\n(def)" target="_blank">
<polygon fill="#dce9f7" stroke="#4a90d9" points="636.61,-106 519.61,-106 519.61,-70 636.61,-70 636.61,-106"/>
<text text-anchor="middle" x="578.11" y="-91" font-family="Helvetica" font-size="10.00">ScannerState.inputEnd</text>
<text text-anchor="middle" x="578.11" y="-80" font-family="Helvetica" font-size="10.00">(def)</text>
</a>
</g>
</g>
<!-- L4YAML.Scanner.ScannerState.directivesPresent -->
<g id="node22" class="node">
<title>L4YAML.Scanner.ScannerState.directivesPresent</title>
<g id="a_node22"><a xlink:href="../../../api/L4YAML/Scanner/State.html#L4YAML.Scanner.ScannerState.directivesPresent" xlink:title="ScannerState.directivesPresent\n(def)" target="_blank">
<polygon fill="#dce9f7" stroke="#4a90d9" points="655.11,-52 501.11,-52 501.11,-16 655.11,-16 655.11,-52"/>
<text text-anchor="middle" x="578.11" y="-37" font-family="Helvetica" font-size="10.00">ScannerState.directivesPresent</text>
<text text-anchor="middle" x="578.11" y="-26" font-family="Helvetica" font-size="10.00">(def)</text>
</a>
</g>
</g>
<!-- L4YAML.Proofs.EmitterScannability.AllTokensOnLine_allowDirectives -->
<g id="node23" class="node">
<title>L4YAML.Proofs.EmitterScannability.AllTokensOnLine_allowDirectives</title>
<g id="a_node23"><a xlink:href="../../../api/L4YAML/Proofs/Output/EmitterScannability.html#L4YAML.Proofs.EmitterScannability.AllTokensOnLine_allowDirectives" xlink:title="EmitterScannability.AllTokensOnLine_allowDirectives" target="_blank">
<polygon fill="#fff3cd" stroke="#d4a017" points="425.17,-592.54 425.17,-607.46 306.48,-618 138.63,-618 19.94,-607.46 19.94,-592.54 138.63,-582 306.48,-582 425.17,-592.54"/>
<polygon fill="none" stroke="#d4a017" points="429.17,-588.88 429.17,-611.12 306.66,-622 138.45,-622 15.94,-611.12 15.94,-588.88 138.45,-578 306.66,-578 429.17,-588.88"/>
<text text-anchor="middle" x="222.56" y="-596.9" font-family="Helvetica" font-size="12.00">EmitterScannability.AllTokensOnLine_allowDirectives</text>
</a>
</g>
</g>
<!-- L4YAML.Proofs.EmitterScannability.AllTokensOnLine_allowDirectives&#45;&gt;L4YAML.Scanner.ScannerState.simpleKey -->
<g id="edge21" class="edge">
<title>L4YAML.Proofs.EmitterScannability.AllTokensOnLine_allowDirectives&#45;&gt;L4YAML.Scanner.ScannerState.simpleKey</title>
<path fill="none" stroke="#4a90d9" stroke-width="2" d="M232.06,-622.16C259.41,-692.55 349.06,-916.64 447.11,-1090 460.65,-1113.93 459.79,-1124.96 482.11,-1141 490.26,-1146.85 499.64,-1151.44 509.27,-1155.04"/>
<polygon fill="#4a90d9" stroke="#4a90d9" stroke-width="2" points="508.55,-1157.38 515.97,-1157.37 510.17,-1152.75 508.55,-1157.38"/>
<text text-anchor="middle" x="459.61" y="-1134.6" font-family="Times-Roman" font-size="8.00" fill="#4a90d9">about</text>
</g>
<!-- L4YAML.Proofs.EmitterScannability.AllTokensOnLine_allowDirectives&#45;&gt;L4YAML.Scanner.ScannerState.input -->
<g id="edge14" class="edge">
<title>L4YAML.Proofs.EmitterScannability.AllTokensOnLine_allowDirectives&#45;&gt;L4YAML.Scanner.ScannerState.input</title>
<path fill="none" stroke="#4a90d9" stroke-width="2" d="M233.68,-622.41C263.51,-687.83 354.83,-883.67 447.11,-1037 461.1,-1060.24 460.01,-1071.27 482.11,-1087 493.53,-1095.13 507.35,-1100.82 520.86,-1104.8"/>
<polygon fill="#4a90d9" stroke="#4a90d9" stroke-width="2" points="520.49,-1107.24 527.89,-1106.73 521.79,-1102.51 520.49,-1107.24"/>
<text text-anchor="middle" x="459.61" y="-1079.6" font-family="Times-Roman" font-size="8.00" fill="#4a90d9">about</text>
</g>
<!-- L4YAML.Proofs.EmitterScannability.AllTokensOnLine_allowDirectives&#45;&gt;L4YAML.Scanner.ScannerState.line -->
<g id="edge20" class="edge">
<title>L4YAML.Proofs.EmitterScannability.AllTokensOnLine_allowDirectives&#45;&gt;L4YAML.Scanner.ScannerState.line</title>
<path fill="none" stroke="#4a90d9" stroke-width="2" d="M230.06,-622.05C252.29,-693.48 332.34,-920.42 482.11,-1033 494.25,-1042.12 509.35,-1048.16 523.91,-1052.16"/>
<polygon fill="#4a90d9" stroke="#4a90d9" stroke-width="2" points="523.62,-1054.61 531,-1053.97 524.82,-1049.87 523.62,-1054.61"/>
<text text-anchor="middle" x="459.61" y="-1026.6" font-family="Times-Roman" font-size="8.00" fill="#4a90d9">about</text>
</g>
<!-- L4YAML.Proofs.EmitterScannability.AllTokensOnLine_allowDirectives&#45;&gt;L4YAML.Scanner.ScannerState.flowLevel -->
<g id="edge17" class="edge">
<title>L4YAML.Proofs.EmitterScannability.AllTokensOnLine_allowDirectives&#45;&gt;L4YAML.Scanner.ScannerState.flowLevel</title>
<path fill="none" stroke="#4a90d9" stroke-width="2" d="M232.27,-622.37C258.95,-687.9 346.09,-880.97 482.11,-979 490.9,-985.33 501.13,-990.18 511.57,-993.9"/>
<polygon fill="#4a90d9" stroke="#4a90d9" stroke-width="2" points="511.02,-996.3 518.44,-996.18 512.57,-991.65 511.02,-996.3"/>
<text text-anchor="middle" x="459.61" y="-966.6" font-family="Times-Roman" font-size="8.00" fill="#4a90d9">about</text>
</g>
<!-- L4YAML.Proofs.EmitterScannability.AllTokensOnLine_allowDirectives&#45;&gt;L4YAML.Scanner.ScannerState.explicitKeyLine -->
<g id="edge10" class="edge">
<title>L4YAML.Proofs.EmitterScannability.AllTokensOnLine_allowDirectives&#45;&gt;L4YAML.Scanner.ScannerState.explicitKeyLine</title>
<path fill="none" stroke="#4a90d9" stroke-width="2" d="M234.7,-622.07C265.52,-680.82 357.92,-842.23 482.11,-925 487.46,-928.56 493.27,-931.66 499.3,-934.35"/>
<polygon fill="#4a90d9" stroke="#4a90d9" stroke-width="2" points="498.52,-936.68 505.92,-937.12 500.41,-932.16 498.52,-936.68"/>
<text text-anchor="middle" x="459.61" y="-914.6" font-family="Times-Roman" font-size="8.00" fill="#4a90d9">about</text>
</g>
<!-- L4YAML.Proofs.EmitterScannability.AllTokensOnLine_allowDirectives&#45;&gt;L4YAML.Scanner.ScannerState.mk -->
<g id="edge13" class="edge">
<title>L4YAML.Proofs.EmitterScannability.AllTokensOnLine_allowDirectives&#45;&gt;L4YAML.Scanner.ScannerState.mk</title>
<path fill="none" stroke="#4a90d9" stroke-width="2" d="M238.2,-622.03C273.68,-673.64 369.65,-803.14 482.11,-871 495.11,-878.84 510.48,-884.49 525.02,-888.52"/>
<polygon fill="#4a90d9" stroke="#4a90d9" stroke-width="2" points="524.69,-890.97 532.08,-890.37 525.93,-886.23 524.69,-890.97"/>
<text text-anchor="middle" x="459.61" y="-862.6" font-family="Times-Roman" font-size="8.00" fill="#4a90d9">about</text>
</g>
<!-- L4YAML.Proofs.EmitterScannability.AllTokensOnLine_allowDirectives&#45;&gt;L4YAML.Scanner.ScannerState -->
<g id="edge12" class="edge">
<title>L4YAML.Proofs.EmitterScannability.AllTokensOnLine_allowDirectives&#45;&gt;L4YAML.Scanner.ScannerState</title>
<path fill="none" stroke="#4a90d9" stroke-width="2" d="M243.72,-622.31C284.48,-666.08 381.41,-763.6 482.11,-817 497.89,-825.36 516.55,-831.39 533.13,-835.6"/>
<polygon fill="#4a90d9" stroke="#4a90d9" stroke-width="2" points="532.72,-838.02 540.1,-837.29 533.88,-833.26 532.72,-838.02"/>
<text text-anchor="middle" x="459.61" y="-810.6" font-family="Times-Roman" font-size="8.00" fill="#4a90d9">about</text>
</g>
<!-- L4YAML.Proofs.EmitterScannability.AllTokensOnLine_allowDirectives&#45;&gt;L4YAML.Scanner.ScannerState.simpleKeyAllowed -->
<g id="edge16" class="edge">
<title>L4YAML.Proofs.EmitterScannability.AllTokensOnLine_allowDirectives&#45;&gt;L4YAML.Scanner.ScannerState.simpleKeyAllowed</title>
<path fill="none" stroke="#4a90d9" stroke-width="2" d="M252.63,-622.27C298.9,-656.78 393.19,-723.32 482.11,-763 487.4,-765.36 492.95,-767.57 498.6,-769.62"/>
<polygon fill="#4a90d9" stroke="#4a90d9" stroke-width="2" points="497.84,-771.95 505.26,-771.96 499.47,-767.33 497.84,-771.95"/>
<text text-anchor="middle" x="459.61" y="-758.6" font-family="Times-Roman" font-size="8.00" fill="#4a90d9">about</text>
</g>
<!-- L4YAML.Proofs.EmitterScannability.AllTokensOnLine_allowDirectives&#45;&gt;L4YAML.Scanner.ScannerState.seenYamlDirective -->
<g id="edge15" class="edge">
<title>L4YAML.Proofs.EmitterScannability.AllTokensOnLine_allowDirectives&#45;&gt;L4YAML.Scanner.ScannerState.seenYamlDirective</title>
<path fill="none" stroke="#4a90d9" stroke-width="2" d="M271,-622.07C322.35,-645.46 406.97,-682.59 482.11,-709 488.79,-711.34 495.78,-713.64 502.81,-715.83"/>
<polygon fill="#4a90d9" stroke="#4a90d9" stroke-width="2" points="502.43,-718.27 509.84,-717.99 503.87,-713.59 502.43,-718.27"/>
<text text-anchor="middle" x="459.61" y="-705.6" font-family="Times-Roman" font-size="8.00" fill="#4a90d9">about</text>
</g>
<!-- L4YAML.Proofs.EmitterScannability.AllTokensOnLine_allowDirectives&#45;&gt;L4YAML.Scanner.ScannerState.indents -->
<g id="edge6" class="edge">
<title>L4YAML.Proofs.EmitterScannability.AllTokensOnLine_allowDirectives&#45;&gt;L4YAML.Scanner.ScannerState.indents</title>
<path fill="none" stroke="#4a90d9" stroke-width="2" d="M315.53,-621.33C378.71,-635.98 460.83,-655.03 516.06,-667.84"/>
<polygon fill="#4a90d9" stroke="#4a90d9" stroke-width="2" points="515.63,-670.25 523,-669.45 516.73,-665.48 515.63,-670.25"/>
<text text-anchor="middle" x="459.61" y="-657.6" font-family="Times-Roman" font-size="8.00" fill="#4a90d9">about</text>
</g>
<!-- L4YAML.Proofs.EmitterScannability.AllTokensOnLine_allowDirectives&#45;&gt;L4YAML.Scanner.ScannerState.needIndentCheck -->
<g id="edge18" class="edge">
<title>L4YAML.Proofs.EmitterScannability.AllTokensOnLine_allowDirectives&#45;&gt;L4YAML.Scanner.ScannerState.needIndentCheck</title>
<path fill="none" stroke="#4a90d9" stroke-width="2" d="M398.52,-613.86C431.53,-616.47 464.62,-619.09 493.19,-621.35"/>
<polygon fill="#4a90d9" stroke="#4a90d9" stroke-width="2" points="493.19,-623.81 500.36,-621.92 493.57,-618.93 493.19,-623.81"/>
<text text-anchor="middle" x="459.61" y="-620.6" font-family="Times-Roman" font-size="8.00" fill="#4a90d9">about</text>
</g>
<!-- L4YAML.Proofs.EmitterScannability.AllTokensOnLine_allowDirectives&#45;&gt;L4YAML.Scanner.ScannerState.tokens -->
<g id="edge1" class="edge">
<title>L4YAML.Proofs.EmitterScannability.AllTokensOnLine_allowDirectives&#45;&gt;L4YAML.Scanner.ScannerState.tokens</title>
<path fill="none" stroke="#4a90d9" stroke-width="2" d="M404.74,-586.68C445.28,-583.7 485.51,-580.74 516.89,-578.43"/>
<polygon fill="#4a90d9" stroke="#4a90d9" stroke-width="2" points="517.46,-580.84 524.27,-577.89 517.11,-575.96 517.46,-580.84"/>
<text text-anchor="middle" x="459.61" y="-585.6" font-family="Times-Roman" font-size="8.00" fill="#4a90d9">about</text>
</g>
<!-- L4YAML.Proofs.EmitterScannability.AllTokensOnLine_allowDirectives&#45;&gt;L4YAML.Scanner.ScannerState.definedAnchors -->
<g id="edge19" class="edge">
<title>L4YAML.Proofs.EmitterScannability.AllTokensOnLine_allowDirectives&#45;&gt;L4YAML.Scanner.ScannerState.definedAnchors</title>
<path fill="none" stroke="#4a90d9" stroke-width="2" d="M316.91,-578.88C373.11,-566.16 443.89,-550.14 497.44,-538.03"/>
<polygon fill="#4a90d9" stroke="#4a90d9" stroke-width="2" points="498.26,-540.35 504.55,-536.42 497.18,-535.58 498.26,-540.35"/>
<text text-anchor="middle" x="459.61" y="-550.6" font-family="Times-Roman" font-size="8.00" fill="#4a90d9">about</text>
</g>
<!-- L4YAML.Proofs.EmitterScannability.AllTokensOnLine_allowDirectives&#45;&gt;L4YAML.Scanner.ScannerState.comments -->
<g id="edge9" class="edge">
<title>L4YAML.Proofs.EmitterScannability.AllTokensOnLine_allowDirectives&#45;&gt;L4YAML.Scanner.ScannerState.comments</title>
<path fill="none" stroke="#4a90d9" stroke-width="2" d="M271.99,-577.98C323.47,-555.05 407.55,-518.93 482.11,-493 490.63,-490.04 499.66,-487.15 508.63,-484.44"/>
<polygon fill="#4a90d9" stroke="#4a90d9" stroke-width="2" points="509.46,-486.75 515.47,-482.4 508.06,-482.05 509.46,-486.75"/>
<text text-anchor="middle" x="459.61" y="-505.6" font-family="Times-Roman" font-size="8.00" fill="#4a90d9">about</text>
</g>
<!-- L4YAML.Proofs.EmitterScannability.AllTokensOnLine_allowDirectives&#45;&gt;L4YAML.Proofs.EmitterScannability.AllTokensOnLine -->
<g id="edge22" class="edge">
<title>L4YAML.Proofs.EmitterScannability.AllTokensOnLine_allowDirectives&#45;&gt;L4YAML.Proofs.EmitterScannability.AllTokensOnLine</title>
<path fill="none" stroke="#4a90d9" stroke-width="2" d="M253.06,-577.75C299.53,-543.62 393.63,-478.19 482.11,-439 487.41,-436.65 492.96,-434.46 498.61,-432.41"/>
<polygon fill="#4a90d9" stroke="#4a90d9" stroke-width="2" points="499.48,-434.7 505.28,-430.08 497.86,-430.08 499.48,-434.7"/>
<text text-anchor="middle" x="459.61" y="-455.6" font-family="Times-Roman" font-size="8.00" fill="#4a90d9">about</text>
</g>
<!-- L4YAML.Proofs.EmitterScannability.AllTokensOnLine_allowDirectives&#45;&gt;L4YAML.Scanner.ScannerState.allowDirectives -->
<g id="edge5" class="edge">
<title>L4YAML.Proofs.EmitterScannability.AllTokensOnLine_allowDirectives&#45;&gt;L4YAML.Scanner.ScannerState.allowDirectives</title>
<path fill="none" stroke="#4a90d9" stroke-width="2" d="M243.76,-577.91C284.61,-534.56 381.68,-437.97 482.11,-385 487.4,-382.21 493.01,-379.68 498.75,-377.39"/>
<polygon fill="#4a90d9" stroke="#4a90d9" stroke-width="2" points="499.87,-379.59 505.55,-374.81 498.14,-375.01 499.87,-379.59"/>
<text text-anchor="middle" x="459.61" y="-405.6" font-family="Times-Roman" font-size="8.00" fill="#4a90d9">about</text>
</g>
<!-- L4YAML.Proofs.EmitterScannability.AllTokensOnLine_allowDirectives&#45;&gt;L4YAML.Scanner.ScannerState.col -->
<g id="edge2" class="edge">
<title>L4YAML.Proofs.EmitterScannability.AllTokensOnLine_allowDirectives&#45;&gt;L4YAML.Scanner.ScannerState.col</title>
<path fill="none" stroke="#4a90d9" stroke-width="2" d="M238.51,-577.76C274.29,-526.28 370.23,-398.22 482.11,-331 495.12,-323.18 510.49,-317.54 525.04,-313.51"/>
<polygon fill="#4a90d9" stroke="#4a90d9" stroke-width="2" points="525.95,-315.81 532.1,-311.66 524.7,-311.07 525.95,-315.81"/>
<text text-anchor="middle" x="459.61" y="-355.6" font-family="Times-Roman" font-size="8.00" fill="#4a90d9">about</text>
</g>
<!-- L4YAML.Proofs.EmitterScannability.AllTokensOnLine_allowDirectives&#45;&gt;L4YAML.Scanner.ScannerState.simpleKeyStack -->
<g id="edge3" class="edge">
<title>L4YAML.Proofs.EmitterScannability.AllTokensOnLine_allowDirectives&#45;&gt;L4YAML.Scanner.ScannerState.simpleKeyStack</title>
<path fill="none" stroke="#4a90d9" stroke-width="2" d="M234.96,-577.65C266.1,-518.9 358.56,-359.07 482.11,-277 486.73,-273.93 491.7,-271.21 496.86,-268.79"/>
<polygon fill="#4a90d9" stroke="#4a90d9" stroke-width="2" points="498.05,-270.94 503.48,-265.89 496.08,-266.45 498.05,-270.94"/>
<text text-anchor="middle" x="459.61" y="-298.6" font-family="Times-Roman" font-size="8.00" fill="#4a90d9">about</text>
</g>
<!-- L4YAML.Proofs.EmitterScannability.AllTokensOnLine_allowDirectives&#45;&gt;L4YAML.Scanner.ScannerState.offset -->
<g id="edge7" class="edge">
<title>L4YAML.Proofs.EmitterScannability.AllTokensOnLine_allowDirectives&#45;&gt;L4YAML.Scanner.ScannerState.offset</title>
<path fill="none" stroke="#4a90d9" stroke-width="2" d="M232.3,-577.75C259.08,-512.56 346.46,-320.52 482.11,-223 493.14,-215.07 506.44,-209.47 519.54,-205.5"/>
<polygon fill="#4a90d9" stroke="#4a90d9" stroke-width="2" points="520.29,-207.84 526.36,-203.58 518.96,-203.12 520.29,-207.84"/>
<text text-anchor="middle" x="459.61" y="-247.6" font-family="Times-Roman" font-size="8.00" fill="#4a90d9">about</text>
</g>
<!-- L4YAML.Proofs.EmitterScannability.AllTokensOnLine_allowDirectives&#45;&gt;L4YAML.Scanner.ScannerState.flowStack -->
<g id="edge11" class="edge">
<title>L4YAML.Proofs.EmitterScannability.AllTokensOnLine_allowDirectives&#45;&gt;L4YAML.Scanner.ScannerState.flowStack</title>
<path fill="none" stroke="#4a90d9" stroke-width="2" d="M230.14,-577.76C252.5,-506.27 332.57,-280.46 482.11,-169 490.38,-162.84 500,-158.08 509.89,-154.41"/>
<polygon fill="#4a90d9" stroke="#4a90d9" stroke-width="2" points="510.95,-156.64 516.77,-152.04 509.35,-152.01 510.95,-156.64"/>
<text text-anchor="middle" x="459.61" y="-196.6" font-family="Times-Roman" font-size="8.00" fill="#4a90d9">about</text>
</g>
<!-- L4YAML.Proofs.EmitterScannability.AllTokensOnLine_allowDirectives&#45;&gt;L4YAML.Scanner.ScannerState.inputEnd -->
<g id="edge8" class="edge">
<title>L4YAML.Proofs.EmitterScannability.AllTokensOnLine_allowDirectives&#45;&gt;L4YAML.Scanner.ScannerState.inputEnd</title>
<path fill="none" stroke="#4a90d9" stroke-width="2" d="M233.62,-577.61C263.29,-512.22 354.2,-316.57 447.11,-164 461.03,-141.14 460.24,-130.41 482.11,-115 491.28,-108.54 501.97,-103.62 512.8,-99.87"/>
<polygon fill="#4a90d9" stroke="#4a90d9" stroke-width="2" points="513.65,-102.17 519.55,-97.69 512.14,-97.51 513.65,-102.17"/>
<text text-anchor="middle" x="459.61" y="-166.6" font-family="Times-Roman" font-size="8.00" fill="#4a90d9">about</text>
</g>
<!-- L4YAML.Proofs.EmitterScannability.AllTokensOnLine_allowDirectives&#45;&gt;L4YAML.Scanner.ScannerState.directivesPresent -->
<g id="edge4" class="edge">
<title>L4YAML.Proofs.EmitterScannability.AllTokensOnLine_allowDirectives&#45;&gt;L4YAML.Scanner.ScannerState.directivesPresent</title>
<path fill="none" stroke="#4a90d9" stroke-width="2" d="M231.92,-577.76C258.87,-507.14 347.44,-282.43 447.11,-110 460.51,-86.83 460.24,-76.41 482.11,-61 485.98,-58.28 490.11,-55.83 494.4,-53.63"/>
<polygon fill="#4a90d9" stroke="#4a90d9" stroke-width="2" points="495.54,-55.8 500.8,-50.58 493.43,-51.38 495.54,-55.8"/>
<text text-anchor="middle" x="459.61" y="-112.6" font-family="Times-Roman" font-size="8.00" fill="#4a90d9">about</text>
</g>
</g>
</svg>
