<?xml version="1.0" encoding="UTF-8" standalone="no"?>
<!DOCTYPE svg PUBLIC "-//W3C//DTD SVG 1.1//EN"
 "http://www.w3.org/Graphics/SVG/1.1/DTD/svg11.dtd">
<!-- Generated by graphviz version 2.44.0 (0)
 -->
<!-- Title: EmitterScannability.dispatchStructural_none_flow Pages: 1 -->
<svg width="1089pt" height="1382pt"
 viewBox="0.00 0.00 1088.61 1382.00" xmlns="http://www.w3.org/2000/svg" xmlns:xlink="http://www.w3.org/1999/xlink">
<g id="graph0" class="graph" transform="scale(1 1) rotate(0) translate(4 1378)">
<title>EmitterScannability.dispatchStructural_none_flow</title>
<polygon fill="white" stroke="transparent" points="-4,4 -4,-1378 1084.61,-1378 1084.61,4 -4,4"/>
<text text-anchor="middle" x="540.3" y="-1359.6" font-family="Helvetica Bold" font-size="13.00">EmitterScannability.dispatchStructural_none_flow</text>
<text text-anchor="middle" x="540.3" y="-1345.6" font-family="Helvetica Bold" font-size="13.00">(heuristic: used by 11 proofs)</text>
<text text-anchor="middle" x="540.3" y="-1331.6" font-family="Helvetica Bold" font-size="13.00">(L4YAML.Proofs.Output.EmitterScannability)</text>
<g id="clust1" class="cluster">
<title>cluster_functions</title>
<polygon fill="none" stroke="#4a90d9" stroke-dasharray="5,2" points="888.61,-787 888.61,-1131 1072.61,-1131 1072.61,-787 888.61,-787"/>
<text text-anchor="middle" x="980.61" y="-1116.6" font-family="Helvetica Bold" font-size="13.00" fill="#4a90d9">Functions</text>
</g>
<g id="clust2" class="cluster">
<title>cluster_key</title>
<polygon fill="none" stroke="#d4a017" stroke-dasharray="5,2" points="443.81,-760 443.81,-842 843.61,-842 843.61,-760 443.81,-760"/>
<text text-anchor="middle" x="643.71" y="-827.6" font-family="Helvetica Bold" font-size="13.00" fill="#d4a017">Key Theorem</text>
</g>
<g id="clust3" class="cluster">
<title>cluster_proofs</title>
<polygon fill="none" stroke="#28a745" stroke-dasharray="5,2" points="8,-1116 8,-1316 422.81,-1316 422.81,-1116 8,-1116"/>
<text text-anchor="middle" x="215.4" y="-1301.6" font-family="Helvetica Bold" font-size="13.00" fill="#28a745">Proof Dependencies</text>
</g>
<g id="clust4" class="cluster">
<title>cluster_stdlib</title>
<polygon fill="none" stroke="#e67e22" stroke-dasharray="5,2" points="122.05,-8 122.05,-1108 308.76,-1108 308.76,-8 122.05,-8"/>
<text text-anchor="middle" x="215.4" y="-1093.6" font-family="Helvetica Bold" font-size="13.00" fill="#e67e22">Stdlib Lemmas</text>
</g>
<!-- L4YAML.Scanner.ScannerState.inFlow -->
<g id="node1" class="node">
<title>L4YAML.Scanner.ScannerState.inFlow</title>
<g id="a_node1"><a xlink:href="../../../api/L4YAML/Scanner/State.html#L4YAML.Scanner.ScannerState.inFlow" xlink:title="ScannerState.inFlow\n(def)" target="_blank">
<polygon fill="#dce9f7" stroke="#4a90d9" points="1034.11,-831 927.11,-831 927.11,-795 1034.11,-795 1034.11,-831"/>
<text text-anchor="middle" x="980.61" y="-816" font-family="Helvetica" font-size="10.00">ScannerState.inFlow</text>
<text text-anchor="middle" x="980.61" y="-805" font-family="Helvetica" font-size="10.00">(def)</text>
</a>
</g>
</g>
<!-- L4YAML.Scanner.scanNextToken_dispatchStructural -->
<g id="node2" class="node">
<title>L4YAML.Scanner.scanNextToken_dispatchStructural</title>
<g id="a_node2"><a xlink:href="../../../api/L4YAML/Scanner/Scanner.html#L4YAML.Scanner.scanNextToken_dispatchStructural" xlink:title="scanNextToken_dispatchStructural\n(def)" target="_blank">
<polygon fill="#dce9f7" stroke="#4a90d9" points="1064.61,-939 896.61,-939 896.61,-903 1064.61,-903 1064.61,-939"/>
<text text-anchor="middle" x="980.61" y="-924" font-family="Helvetica" font-size="10.00">scanNextToken_dispatchStructural</text>
<text text-anchor="middle" x="980.61" y="-913" font-family="Helvetica" font-size="10.00">(def)</text>
</a>
</g>
</g>
<!-- L4YAML.Scanner.ScannerState -->
<g id="node3" class="node">
<title>L4YAML.Scanner.ScannerState</title>
<g id="a_node3"><a xlink:href="../../../api/L4YAML/Scanner/State.html#L4YAML.Scanner.ScannerState" xlink:title="ScannerState\n(inductive)" target="_blank">
<polygon fill="#dce9f7" stroke="#4a90d9" points="1018.61,-1047 942.61,-1047 942.61,-1011 1018.61,-1011 1018.61,-1047"/>
<text text-anchor="middle" x="980.61" y="-1032" font-family="Helvetica" font-size="10.00">ScannerState</text>
<text text-anchor="middle" x="980.61" y="-1021" font-family="Helvetica" font-size="10.00">(inductive)</text>
</a>
</g>
</g>
<!-- L4YAML.Scanner.ScannerState.col -->
<g id="node4" class="node">
<title>L4YAML.Scanner.ScannerState.col</title>
<g id="a_node4"><a xlink:href="../../../api/L4YAML/Scanner/State.html#L4YAML.Scanner.ScannerState.col" xlink:title="ScannerState.col\n(def)" target="_blank">
<polygon fill="#dce9f7" stroke="#4a90d9" points="1026.61,-1101 934.61,-1101 934.61,-1065 1026.61,-1065 1026.61,-1101"/>
<text text-anchor="middle" x="980.61" y="-1086" font-family="Helvetica" font-size="10.00">ScannerState.col</text>
<text text-anchor="middle" x="980.61" y="-1075" font-family="Helvetica" font-size="10.00">(def)</text>
</a>
</g>
</g>
<!-- L4YAML.Scanner.ScannerState.currentIndent -->
<g id="node5" class="node">
<title>L4YAML.Scanner.ScannerState.currentIndent</title>
<g id="a_node5"><a xlink:href="../../../api/L4YAML/Scanner/State.html#L4YAML.Scanner.ScannerState.currentIndent" xlink:title="ScannerState.currentIndent\n(def)" target="_blank">
<polygon fill="#dce9f7" stroke="#4a90d9" points="1048.61,-993 912.61,-993 912.61,-957 1048.61,-957 1048.61,-993"/>
<text text-anchor="middle" x="980.61" y="-978" font-family="Helvetica" font-size="10.00">ScannerState.currentIndent</text>
<text text-anchor="middle" x="980.61" y="-967" font-family="Helvetica" font-size="10.00">(def)</text>
</a>
</g>
</g>
<!-- L4YAML.ScanError -->
<g id="node6" class="node">
<title>L4YAML.ScanError</title>
<g id="a_node6"><a xlink:href="../../../api/L4YAML/Token/Token.html#L4YAML.ScanError" xlink:title="ScanError\n(inductive)" target="_blank">
<polygon fill="#dce9f7" stroke="#4a90d9" points="1011.61,-885 949.61,-885 949.61,-849 1011.61,-849 1011.61,-885"/>
<text text-anchor="middle" x="980.61" y="-870" font-family="Helvetica" font-size="10.00">ScanError</text>
<text text-anchor="middle" x="980.61" y="-859" font-family="Helvetica" font-size="10.00">(inductive)</text>
</a>
</g>
</g>
<!-- L4YAML.Proofs.EmitterScannability.dispatchStructural_none_flow -->
<g id="node7" class="node">
<title>L4YAML.Proofs.EmitterScannability.dispatchStructural_none_flow</title>
<g id="a_node7"><a xlink:href="../../../api/L4YAML/Proofs/Output/EmitterScannability.html#L4YAML.Proofs.EmitterScannability.dispatchStructural_none_flow" xlink:title="EmitterScannability.dispatchStructural_none_flow" target="_blank">
<polygon fill="#fff3cd" stroke="#d4a017" points="831.51,-782.54 831.51,-797.46 721.5,-808 565.92,-808 455.91,-797.46 455.91,-782.54 565.92,-772 721.5,-772 831.51,-782.54"/>
<polygon fill="none" stroke="#d4a017" points="835.5,-778.91 835.5,-801.09 721.69,-812 565.73,-812 451.91,-801.09 451.91,-778.91 565.73,-768 721.69,-768 835.5,-778.91"/>
<text text-anchor="middle" x="643.71" y="-786.9" font-family="Helvetica" font-size="12.00">EmitterScannability.dispatchStructural_none_flow</text>
</a>
</g>
</g>
<!-- L4YAML.Proofs.EmitterScannability.dispatchStructural_none_flow&#45;&gt;L4YAML.Scanner.ScannerState.inFlow -->
<g id="edge5" class="edge">
<title>L4YAML.Proofs.EmitterScannability.dispatchStructural_none_flow&#45;&gt;L4YAML.Scanner.ScannerState.inFlow</title>
<path fill="none" stroke="#4a90d9" stroke-width="2" d="M823.43,-802.27C858.2,-804.66 892.32,-807.01 919.75,-808.89"/>
<polygon fill="#4a90d9" stroke="#4a90d9" stroke-width="2" points="919.79,-811.35 926.94,-809.38 920.12,-806.46 919.79,-811.35"/>
<text text-anchor="middle" x="866.11" y="-807.6" font-family="Times-Roman" font-size="8.00" fill="#4a90d9">about</text>
</g>
<!-- L4YAML.Proofs.EmitterScannability.dispatchStructural_none_flow&#45;&gt;L4YAML.Scanner.scanNextToken_dispatchStructural -->
<g id="edge6" class="edge">
<title>L4YAML.Proofs.EmitterScannability.dispatchStructural_none_flow&#45;&gt;L4YAML.Scanner.scanNextToken_dispatchStructural</title>
<path fill="none" stroke="#4a90d9" stroke-width="2" d="M712.64,-812.07C760.66,-829.03 825.65,-854.82 878.61,-886 883.51,-888.89 883.56,-891.36 888.61,-894 892.82,-896.21 897.25,-898.26 901.78,-900.16"/>
<polygon fill="#4a90d9" stroke="#4a90d9" stroke-width="2" points="901.08,-902.52 908.49,-902.85 902.9,-897.97 901.08,-902.52"/>
<text text-anchor="middle" x="866.11" y="-888.6" font-family="Times-Roman" font-size="8.00" fill="#4a90d9">about</text>
</g>
<!-- L4YAML.Proofs.EmitterScannability.dispatchStructural_none_flow&#45;&gt;L4YAML.Scanner.ScannerState -->
<g id="edge2" class="edge">
<title>L4YAML.Proofs.EmitterScannability.dispatchStructural_none_flow&#45;&gt;L4YAML.Scanner.ScannerState</title>
<path fill="none" stroke="#4a90d9" stroke-width="2" d="M674.45,-812.25C714.32,-842.55 786.66,-899.18 843.61,-953 865.09,-973.31 863.52,-986.34 888.61,-1002 902.67,-1010.78 919.73,-1016.83 935.26,-1020.94"/>
<polygon fill="#4a90d9" stroke="#4a90d9" stroke-width="2" points="934.89,-1023.37 942.27,-1022.69 936.08,-1018.62 934.89,-1023.37"/>
<text text-anchor="middle" x="866.11" y="-996.6" font-family="Times-Roman" font-size="8.00" fill="#4a90d9">about</text>
</g>
<!-- L4YAML.Proofs.EmitterScannability.dispatchStructural_none_flow&#45;&gt;L4YAML.Scanner.ScannerState.col -->
<g id="edge1" class="edge">
<title>L4YAML.Proofs.EmitterScannability.dispatchStructural_none_flow&#45;&gt;L4YAML.Scanner.ScannerState.col</title>
<path fill="none" stroke="#4a90d9" stroke-width="2" d="M686.36,-812.13C732.59,-839 805.68,-888.81 843.61,-953 856.02,-974.01 844.06,-984.53 853.61,-1007 864.07,-1031.63 866.82,-1040.46 888.61,-1056 900.03,-1064.15 913.92,-1069.86 927.38,-1073.86"/>
<polygon fill="#4a90d9" stroke="#4a90d9" stroke-width="2" points="926.96,-1076.29 934.36,-1075.8 928.27,-1071.57 926.96,-1076.29"/>
<text text-anchor="middle" x="866.11" y="-1050.6" font-family="Times-Roman" font-size="8.00" fill="#4a90d9">about</text>
</g>
<!-- L4YAML.Proofs.EmitterScannability.dispatchStructural_none_flow&#45;&gt;L4YAML.Scanner.ScannerState.currentIndent -->
<g id="edge4" class="edge">
<title>L4YAML.Proofs.EmitterScannability.dispatchStructural_none_flow&#45;&gt;L4YAML.Scanner.ScannerState.currentIndent</title>
<path fill="none" stroke="#4a90d9" stroke-width="2" d="M694.12,-812.09C754.76,-840.05 852.74,-888.26 878.61,-919 887.38,-929.43 878.76,-938.57 888.61,-948 893.69,-952.87 899.62,-956.87 905.96,-960.15"/>
<polygon fill="#4a90d9" stroke="#4a90d9" stroke-width="2" points="905.05,-962.43 912.43,-963.19 907.14,-958 905.05,-962.43"/>
<text text-anchor="middle" x="866.11" y="-921.6" font-family="Times-Roman" font-size="8.00" fill="#4a90d9">about</text>
</g>
<!-- L4YAML.Proofs.EmitterScannability.dispatchStructural_none_flow&#45;&gt;L4YAML.ScanError -->
<g id="edge3" class="edge">
<title>L4YAML.Proofs.EmitterScannability.dispatchStructural_none_flow&#45;&gt;L4YAML.ScanError</title>
<path fill="none" stroke="#4a90d9" stroke-width="2" d="M734.89,-810.74C802.85,-826.36 892.54,-846.98 942.3,-858.42"/>
<polygon fill="#4a90d9" stroke="#4a90d9" stroke-width="2" points="941.97,-860.86 949.34,-860.04 943.07,-856.09 941.97,-860.86"/>
<text text-anchor="middle" x="866.11" y="-844.6" font-family="Times-Roman" font-size="8.00" fill="#4a90d9">about</text>
</g>
<!-- L4YAML.Proofs.EmitterScannability.dispatchStructural_none_flow._proof_1_2 -->
<g id="node8" class="node">
<title>L4YAML.Proofs.EmitterScannability.dispatchStructural_none_flow._proof_1_2</title>
<g id="a_node8"><a xlink:href="../../../api/L4YAML/Proofs/Output/EmitterScannability.html#L4YAML.Proofs.EmitterScannability.dispatchStructural_none_flow._proof_1_2" xlink:title="EmitterScannability.dispatchStructural_none_flow._proof_1_2\n(Output.EmitterScannability)" target="_blank">
<ellipse fill="#d4edda" stroke="#28a745" cx="215.4" cy="-1205" rx="199.31" ry="21.43"/>
<text text-anchor="middle" x="215.4" y="-1208" font-family="Helvetica" font-size="10.00">EmitterScannability.dispatchStructural_none_flow._proof_1_2</text>
<text text-anchor="middle" x="215.4" y="-1197" font-family="Helvetica" font-size="10.00">(Output.EmitterScannability)</text>
</a>
</g>
</g>
<!-- L4YAML.Proofs.EmitterScannability.dispatchStructural_none_flow._proof_1_2&#45;&gt;L4YAML.Scanner.ScannerState -->
<g id="edge31" class="edge">
<title>L4YAML.Proofs.EmitterScannability.dispatchStructural_none_flow._proof_1_2&#45;&gt;L4YAML.Scanner.ScannerState</title>
<path fill="none" stroke="#6f42c1" stroke-width="2" stroke-dasharray="5,2" d="M390.42,-1194.55C402.06,-1189.48 413.03,-1183.06 422.81,-1175 444.61,-1157.03 421.42,-1132.23 443.81,-1115 520.6,-1055.88 800.53,-1138.42 878.61,-1081 888.25,-1073.91 879.76,-1064.06 888.61,-1056 901.85,-1043.92 920.26,-1037.24 937.06,-1033.54"/>
<polygon fill="#6f42c1" stroke="#6f42c1" stroke-width="2" points="937.67,-1035.2 942.22,-1032.48 936.97,-1031.77 937.67,-1035.2"/>
<text text-anchor="middle" x="643.71" y="-1117.4" font-family="Times-Roman" font-size="7.00" fill="#6f42c1">about</text>
</g>
<!-- L4YAML.Proofs.EmitterScannability.dispatchStructural_none_flow._proof_1_2&#45;&gt;L4YAML.Scanner.ScannerState.col -->
<g id="edge30" class="edge">
<title>L4YAML.Proofs.EmitterScannability.dispatchStructural_none_flow._proof_1_2&#45;&gt;L4YAML.Scanner.ScannerState.col</title>
<path fill="none" stroke="#6f42c1" stroke-width="2" stroke-dasharray="5,2" d="M375.57,-1192.35C503.12,-1180.38 686.16,-1159.08 843.61,-1125 872.47,-1118.75 904.03,-1109.18 929.48,-1100.75"/>
<polygon fill="#6f42c1" stroke="#6f42c1" stroke-width="2" points="930.29,-1102.33 934.48,-1099.08 929.19,-1099.01 930.29,-1102.33"/>
<text text-anchor="middle" x="643.71" y="-1187.4" font-family="Times-Roman" font-size="7.00" fill="#6f42c1">about</text>
</g>
<!-- L4YAML.Proofs.EmitterScannability.dispatchStructural_none_flow._proof_1_2&#45;&gt;L4YAML.Scanner.ScannerState.currentIndent -->
<g id="edge32" class="edge">
<title>L4YAML.Proofs.EmitterScannability.dispatchStructural_none_flow._proof_1_2&#45;&gt;L4YAML.Scanner.ScannerState.currentIndent</title>
<path fill="none" stroke="#6f42c1" stroke-width="2" stroke-dasharray="5,2" d="M393.15,-1195.28C403.94,-1189.99 413.99,-1183.33 422.81,-1175 438.97,-1159.74 428,-1147.7 432.81,-1126 437.35,-1105.48 427.86,-1093.69 443.81,-1080 511.46,-1021.94 762.72,-1084.48 843.61,-1047 869.27,-1035.11 864.3,-1016.47 888.61,-1002 894.47,-998.51 900.83,-995.44 907.35,-992.75"/>
<polygon fill="#6f42c1" stroke="#6f42c1" stroke-width="2" points="908.37,-994.23 912.37,-990.76 907.08,-990.97 908.37,-994.23"/>
<text text-anchor="middle" x="643.71" y="-1082.4" font-family="Times-Roman" font-size="7.00" fill="#6f42c1">about</text>
</g>
<!-- L4YAML.Proofs.EmitterScannability.dispatchStructural_none_flow._proof_1_2&#45;&gt;L4YAML.Proofs.EmitterScannability.dispatchStructural_none_flow -->
<g id="edge8" class="edge">
<title>L4YAML.Proofs.EmitterScannability.dispatchStructural_none_flow._proof_1_2&#45;&gt;L4YAML.Proofs.EmitterScannability.dispatchStructural_none_flow</title>
<path fill="none" stroke="#28a745" d="M395.7,-1195.68C405.69,-1190.24 414.87,-1183.44 422.81,-1175 431.98,-1165.25 431.54,-1068.32 432.81,-1055 437.15,-1009.61 422.11,-993.1 443.81,-953 477.55,-890.62 546.01,-842.89 593.11,-815.65"/>
<polygon fill="#28a745" stroke="#28a745" points="594.45,-817.7 599.32,-812.1 592.02,-813.45 594.45,-817.7"/>
</g>
<!-- L4YAML.Proofs.EmitterScannability.dispatchStructural_none_flow._proof_1_3 -->
<g id="node9" class="node">
<title>L4YAML.Proofs.EmitterScannability.dispatchStructural_none_flow._proof_1_3</title>
<g id="a_node9"><a xlink:href="../../../api/L4YAML/Proofs/Output/EmitterScannability.html#L4YAML.Proofs.EmitterScannability.dispatchStructural_none_flow._proof_1_3" xlink:title="EmitterScannability.dispatchStructural_none_flow._proof_1_3\n(Output.EmitterScannability)" target="_blank">
<ellipse fill="#d4edda" stroke="#28a745" cx="215.4" cy="-1265" rx="199.31" ry="21.43"/>
<text text-anchor="middle" x="215.4" y="-1268" font-family="Helvetica" font-size="10.00">EmitterScannability.dispatchStructural_none_flow._proof_1_3</text>
<text text-anchor="middle" x="215.4" y="-1257" font-family="Helvetica" font-size="10.00">(Output.EmitterScannability)</text>
</a>
</g>
</g>
<!-- L4YAML.Proofs.EmitterScannability.dispatchStructural_none_flow._proof_1_3&#45;&gt;L4YAML.Scanner.ScannerState -->
<g id="edge34" class="edge">
<title>L4YAML.Proofs.EmitterScannability.dispatchStructural_none_flow._proof_1_3&#45;&gt;L4YAML.Scanner.ScannerState</title>
<path fill="none" stroke="#6f42c1" stroke-width="2" stroke-dasharray="5,2" d="M362.94,-1250.66C383.34,-1246.66 403.81,-1241.55 422.81,-1235 432.97,-1231.5 433.51,-1226.09 443.81,-1223 529.07,-1197.37 773.46,-1251.83 843.61,-1197 895.43,-1156.49 841.62,-1102.03 888.61,-1056 901.51,-1043.35 920.06,-1036.59 937.05,-1032.98"/>
<polygon fill="#6f42c1" stroke="#6f42c1" stroke-width="2" points="937.69,-1034.64 942.26,-1031.96 937.02,-1031.21 937.69,-1034.64"/>
<text text-anchor="middle" x="643.71" y="-1225.4" font-family="Times-Roman" font-size="7.00" fill="#6f42c1">about</text>
</g>
<!-- L4YAML.Proofs.EmitterScannability.dispatchStructural_none_flow._proof_1_3&#45;&gt;L4YAML.Scanner.ScannerState.col -->
<g id="edge33" class="edge">
<title>L4YAML.Proofs.EmitterScannability.dispatchStructural_none_flow._proof_1_3&#45;&gt;L4YAML.Scanner.ScannerState.col</title>
<path fill="none" stroke="#6f42c1" stroke-width="2" stroke-dasharray="5,2" d="M321.07,-1283.02C450.58,-1300.23 674.64,-1313.09 843.61,-1233 901.97,-1205.33 946.62,-1140.1 967.17,-1105.49"/>
<polygon fill="#6f42c1" stroke="#6f42c1" stroke-width="2" points="968.77,-1106.22 969.79,-1101.02 965.75,-1104.45 968.77,-1106.22"/>
<text text-anchor="middle" x="643.71" y="-1297.4" font-family="Times-Roman" font-size="7.00" fill="#6f42c1">about</text>
</g>
<!-- L4YAML.Proofs.EmitterScannability.dispatchStructural_none_flow._proof_1_3&#45;&gt;L4YAML.Proofs.EmitterScannability.dispatchStructural_none_flow -->
<g id="edge7" class="edge">
<title>L4YAML.Proofs.EmitterScannability.dispatchStructural_none_flow._proof_1_3&#45;&gt;L4YAML.Proofs.EmitterScannability.dispatchStructural_none_flow</title>
<path fill="none" stroke="#28a745" d="M395.79,-1255.76C405.76,-1250.3 414.91,-1243.48 422.81,-1235 444.23,-1212.02 429.32,-980.88 443.81,-953 476.42,-890.26 544.81,-842.76 592.23,-815.66"/>
<polygon fill="#28a745" stroke="#28a745" points="593.59,-817.7 598.49,-812.13 591.18,-813.43 593.59,-817.7"/>
</g>
<!-- L4YAML.Proofs.EmitterScannability.dispatchStructural_none_flow._proof_1_1 -->
<g id="node10" class="node">
<title>L4YAML.Proofs.EmitterScannability.dispatchStructural_none_flow._proof_1_1</title>
<g id="a_node10"><a xlink:href="../../../api/L4YAML/Proofs/Output/EmitterScannability.html#L4YAML.Proofs.EmitterScannability.dispatchStructural_none_flow._proof_1_1" xlink:title="EmitterScannability.dispatchStructural_none_flow._proof_1_1\n(Output.EmitterScannability)" target="_blank">
<ellipse fill="#d4edda" stroke="#28a745" cx="215.4" cy="-1145" rx="199.31" ry="21.43"/>
<text text-anchor="middle" x="215.4" y="-1148" font-family="Helvetica" font-size="10.00">EmitterScannability.dispatchStructural_none_flow._proof_1_1</text>
<text text-anchor="middle" x="215.4" y="-1137" font-family="Helvetica" font-size="10.00">(Output.EmitterScannability)</text>
</a>
</g>
</g>
<!-- L4YAML.Proofs.EmitterScannability.dispatchStructural_none_flow._proof_1_1&#45;&gt;L4YAML.Scanner.ScannerState -->
<g id="edge35" class="edge">
<title>L4YAML.Proofs.EmitterScannability.dispatchStructural_none_flow._proof_1_1&#45;&gt;L4YAML.Scanner.ScannerState</title>
<path fill="none" stroke="#6f42c1" stroke-width="2" stroke-dasharray="5,2" d="M390.12,-1134.56C402.13,-1128.81 413.24,-1121.42 422.81,-1112 446.86,-1088.31 414.08,-1055 443.81,-1039 528.49,-993.44 825.78,-1014.94 937.1,-1024.9"/>
<polygon fill="#6f42c1" stroke="#6f42c1" stroke-width="2" points="937.12,-1026.66 942.26,-1025.37 937.43,-1023.18 937.12,-1026.66"/>
<text text-anchor="middle" x="643.71" y="-1041.4" font-family="Times-Roman" font-size="7.00" fill="#6f42c1">about</text>
</g>
<!-- L4YAML.Proofs.EmitterScannability.dispatchStructural_none_flow._proof_1_1&#45;&gt;L4YAML.Scanner.ScannerState.currentIndent -->
<g id="edge36" class="edge">
<title>L4YAML.Proofs.EmitterScannability.dispatchStructural_none_flow._proof_1_1&#45;&gt;L4YAML.Scanner.ScannerState.currentIndent</title>
<path fill="none" stroke="#6f42c1" stroke-width="2" stroke-dasharray="5,2" d="M390.89,-1134.61C402.65,-1128.83 413.5,-1121.42 422.81,-1112 433.54,-1101.13 429.88,-1058.99 432.81,-1044 436.75,-1023.79 427.9,-1012.07 443.81,-999 512.54,-942.51 777.23,-956.98 907.01,-967.95"/>
<polygon fill="#6f42c1" stroke="#6f42c1" stroke-width="2" points="907.2,-969.73 912.33,-968.41 907.5,-966.24 907.2,-969.73"/>
<text text-anchor="middle" x="643.71" y="-1001.4" font-family="Times-Roman" font-size="7.00" fill="#6f42c1">about</text>
</g>
<!-- L4YAML.Proofs.EmitterScannability.dispatchStructural_none_flow._proof_1_1&#45;&gt;L4YAML.Proofs.EmitterScannability.dispatchStructural_none_flow -->
<g id="edge9" class="edge">
<title>L4YAML.Proofs.EmitterScannability.dispatchStructural_none_flow._proof_1_1&#45;&gt;L4YAML.Proofs.EmitterScannability.dispatchStructural_none_flow</title>
<path fill="none" stroke="#28a745" d="M392.2,-1135.15C403.59,-1129.24 414,-1121.65 422.81,-1112 445.03,-1087.65 419.17,-994.01 432.81,-964 464.26,-894.78 538.88,-843.92 590.11,-815.63"/>
<polygon fill="#28a745" stroke="#28a745" points="591.58,-817.63 596.55,-812.13 589.23,-813.32 591.58,-817.63"/>
</g>
<!-- Bool.and_false -->
<g id="node11" class="node">
<title>Bool.and_false</title>
<g id="a_node11"><a xlink:href="../../../api/Init/SimpLemmas.html#Bool.and_false" xlink:title="Bool.and_false" target="_blank">
<ellipse fill="#fdebd0" stroke="#e67e22" cx="215.4" cy="-1006" rx="47.86" ry="18"/>
<text text-anchor="middle" x="215.4" y="-1003.5" font-family="Helvetica" font-size="10.00">Bool.and_false</text>
</a>
</g>
</g>
<!-- Bool.and_false&#45;&gt;L4YAML.Proofs.EmitterScannability.dispatchStructural_none_flow -->
<g id="edge10" class="edge">
<title>Bool.and_false&#45;&gt;L4YAML.Proofs.EmitterScannability.dispatchStructural_none_flow</title>
<path fill="none" stroke="#e67e22" stroke-width="2" d="M258.67,-1013.83C305.41,-1019.83 379.78,-1021.07 422.81,-979 443.71,-958.57 416.43,-938.21 432.81,-914 465.09,-866.29 522.37,-834.27 568.95,-814.73"/>
<polygon fill="#e67e22" stroke="#e67e22" stroke-width="2" points="569.91,-816.98 575.45,-812.05 568.04,-812.45 569.91,-816.98"/>
</g>
<!-- of_decide_eq_true -->
<g id="node12" class="node">
<title>of_decide_eq_true</title>
<g id="a_node12"><a xlink:href="../../../api/Init/Prelude.html#of_decide_eq_true" xlink:title="of_decide_eq_true" target="_blank">
<ellipse fill="#fdebd0" stroke="#e67e22" cx="215.4" cy="-952" rx="56.52" ry="18"/>
<text text-anchor="middle" x="215.4" y="-949.5" font-family="Helvetica" font-size="10.00">of_decide_eq_true</text>
</a>
</g>
</g>
<!-- of_decide_eq_true&#45;&gt;L4YAML.Proofs.EmitterScannability.dispatchStructural_none_flow -->
<g id="edge11" class="edge">
<title>of_decide_eq_true&#45;&gt;L4YAML.Proofs.EmitterScannability.dispatchStructural_none_flow</title>
<path fill="none" stroke="#e67e22" stroke-width="2" d="M266.41,-959.81C312.57,-964.03 380.23,-962.23 422.81,-925 435.63,-913.79 421.85,-901.04 432.81,-888 463.02,-852.06 509.33,-828.51 550.78,-813.54"/>
<polygon fill="#e67e22" stroke="#e67e22" stroke-width="2" points="551.6,-815.85 557.38,-811.21 549.97,-811.23 551.6,-815.85"/>
</g>
<!-- Decidable.decide.congr_simp -->
<g id="node13" class="node">
<title>Decidable.decide.congr_simp</title>
<g id="a_node13"><a xlink:href="../../../api/Init/SimpLemmas.html#Decidable.decide.congr_simp" xlink:title="Decidable.decide.congr_simp" target="_blank">
<ellipse fill="#fdebd0" stroke="#e67e22" cx="215.4" cy="-898" rx="85.21" ry="18"/>
<text text-anchor="middle" x="215.4" y="-895.5" font-family="Helvetica" font-size="10.00">Decidable.decide.congr_simp</text>
</a>
</g>
</g>
<!-- Decidable.decide.congr_simp&#45;&gt;L4YAML.Proofs.EmitterScannability.dispatchStructural_none_flow -->
<g id="edge12" class="edge">
<title>Decidable.decide.congr_simp&#45;&gt;L4YAML.Proofs.EmitterScannability.dispatchStructural_none_flow</title>
<path fill="none" stroke="#e67e22" stroke-width="2" d="M300.92,-898.27C339.57,-895.59 385.06,-888.38 422.81,-871 428.24,-868.5 427.65,-865.03 432.81,-862 468.68,-840.9 511.65,-824.79 549.35,-813.21"/>
<polygon fill="#e67e22" stroke="#e67e22" stroke-width="2" points="550.33,-815.47 556.32,-811.1 548.91,-810.78 550.33,-815.47"/>
</g>
<!-- instLawfulBEqChar -->
<g id="node14" class="node">
<title>instLawfulBEqChar</title>
<g id="a_node14"><a xlink:href="../../../api/Init/Core.html#instLawfulBEqChar" xlink:title="instLawfulBEqChar" target="_blank">
<ellipse fill="#fdebd0" stroke="#e67e22" cx="215.4" cy="-844" rx="59.41" ry="18"/>
<text text-anchor="middle" x="215.4" y="-841.5" font-family="Helvetica" font-size="10.00">instLawfulBEqChar</text>
</a>
</g>
</g>
<!-- instLawfulBEqChar&#45;&gt;L4YAML.Proofs.EmitterScannability.dispatchStructural_none_flow -->
<g id="edge13" class="edge">
<title>instLawfulBEqChar&#45;&gt;L4YAML.Proofs.EmitterScannability.dispatchStructural_none_flow</title>
<path fill="none" stroke="#e67e22" stroke-width="2" d="M270.83,-837.11C329.11,-829.72 423.93,-817.71 503.23,-807.67"/>
<polygon fill="#e67e22" stroke="#e67e22" stroke-width="2" points="503.73,-810.07 510.37,-806.76 503.11,-805.21 503.73,-810.07"/>
</g>
<!-- false_and -->
<g id="node15" class="node">
<title>false_and</title>
<g id="a_node15"><a xlink:href="../../../api/Init/SimpLemmas.html#false_and" xlink:title="false_and" target="_blank">
<ellipse fill="#fdebd0" stroke="#e67e22" cx="215.4" cy="-790" rx="34.96" ry="18"/>
<text text-anchor="middle" x="215.4" y="-787.5" font-family="Helvetica" font-size="10.00">false_and</text>
</a>
</g>
</g>
<!-- false_and&#45;&gt;L4YAML.Proofs.EmitterScannability.dispatchStructural_none_flow -->
<g id="edge14" class="edge">
<title>false_and&#45;&gt;L4YAML.Proofs.EmitterScannability.dispatchStructural_none_flow</title>
<path fill="none" stroke="#e67e22" stroke-width="2" d="M250.21,-790C292.95,-790 369.96,-790 444.52,-790"/>
<polygon fill="#e67e22" stroke="#e67e22" stroke-width="2" points="444.73,-792.45 451.73,-790 444.73,-787.55 444.73,-792.45"/>
</g>
<!-- Bool.and_true -->
<g id="node16" class="node">
<title>Bool.and_true</title>
<g id="a_node16"><a xlink:href="../../../api/Init/SimpLemmas.html#Bool.and_true" xlink:title="Bool.and_true" target="_blank">
<ellipse fill="#fdebd0" stroke="#e67e22" cx="215.4" cy="-736" rx="45.15" ry="18"/>
<text text-anchor="middle" x="215.4" y="-733.5" font-family="Helvetica" font-size="10.00">Bool.and_true</text>
</a>
</g>
</g>
<!-- Bool.and_true&#45;&gt;L4YAML.Proofs.EmitterScannability.dispatchStructural_none_flow -->
<g id="edge15" class="edge">
<title>Bool.and_true&#45;&gt;L4YAML.Proofs.EmitterScannability.dispatchStructural_none_flow</title>
<path fill="none" stroke="#e67e22" stroke-width="2" d="M258.84,-741.38C315.37,-748.54 418.16,-761.56 503.14,-772.32"/>
<polygon fill="#e67e22" stroke="#e67e22" stroke-width="2" points="503.02,-774.77 510.27,-773.22 503.63,-769.91 503.02,-774.77"/>
</g>
<!-- Bool.false_eq_true -->
<g id="node17" class="node">
<title>Bool.false_eq_true</title>
<g id="a_node17"><a xlink:href="../../../api/Init/Data/Bool.html#Bool.false_eq_true" xlink:title="Bool.false_eq_true" target="_blank">
<ellipse fill="#fdebd0" stroke="#e67e22" cx="215.4" cy="-682" rx="57.88" ry="18"/>
<text text-anchor="middle" x="215.4" y="-679.5" font-family="Helvetica" font-size="10.00">Bool.false_eq_true</text>
</a>
</g>
</g>
<!-- Bool.false_eq_true&#45;&gt;L4YAML.Proofs.EmitterScannability.dispatchStructural_none_flow -->
<g id="edge16" class="edge">
<title>Bool.false_eq_true&#45;&gt;L4YAML.Proofs.EmitterScannability.dispatchStructural_none_flow</title>
<path fill="none" stroke="#e67e22" stroke-width="2" d="M271.78,-685.87C313.7,-689.62 372.45,-696.6 422.81,-709 479.73,-723.02 542.25,-746.92 586.02,-765.14"/>
<polygon fill="#e67e22" stroke="#e67e22" stroke-width="2" points="585.21,-767.45 592.61,-767.9 587.1,-762.93 585.21,-767.45"/>
</g>
<!-- decide_false -->
<g id="node18" class="node">
<title>decide_false</title>
<g id="a_node18"><a xlink:href="../../../api/Init/Core.html#decide_false" xlink:title="decide_false" target="_blank">
<ellipse fill="#fdebd0" stroke="#e67e22" cx="215.4" cy="-628" rx="41.59" ry="18"/>
<text text-anchor="middle" x="215.4" y="-625.5" font-family="Helvetica" font-size="10.00">decide_false</text>
</a>
</g>
</g>
<!-- decide_false&#45;&gt;L4YAML.Proofs.EmitterScannability.dispatchStructural_none_flow -->
<g id="edge17" class="edge">
<title>decide_false&#45;&gt;L4YAML.Proofs.EmitterScannability.dispatchStructural_none_flow</title>
<path fill="none" stroke="#e67e22" stroke-width="2" d="M257.53,-628.36C300.04,-629.87 367.79,-635.52 422.81,-655 495,-680.56 568.84,-732.19 609.93,-763.67"/>
<polygon fill="#e67e22" stroke="#e67e22" stroke-width="2" points="608.47,-765.64 615.51,-767.97 611.46,-761.76 608.47,-765.64"/>
</g>
<!-- Bool.and_self -->
<g id="node19" class="node">
<title>Bool.and_self</title>
<g id="a_node19"><a xlink:href="../../../api/Init/SimpLemmas.html#Bool.and_self" xlink:title="Bool.and_self" target="_blank">
<ellipse fill="#fdebd0" stroke="#e67e22" cx="215.4" cy="-574" rx="44.98" ry="18"/>
<text text-anchor="middle" x="215.4" y="-571.5" font-family="Helvetica" font-size="10.00">Bool.and_self</text>
</a>
</g>
</g>
<!-- Bool.and_self&#45;&gt;L4YAML.Proofs.EmitterScannability.dispatchStructural_none_flow -->
<g id="edge18" class="edge">
<title>Bool.and_self&#45;&gt;L4YAML.Proofs.EmitterScannability.dispatchStructural_none_flow</title>
<path fill="none" stroke="#e67e22" stroke-width="2" d="M260.25,-572.6C303.43,-572.83 370.34,-577.57 422.81,-601 507.27,-638.72 583.77,-719.66 620.23,-762.35"/>
<polygon fill="#e67e22" stroke="#e67e22" stroke-width="2" points="618.5,-764.1 624.89,-767.86 622.24,-760.93 618.5,-764.1"/>
</g>
<!-- decide_true -->
<g id="node20" class="node">
<title>decide_true</title>
<g id="a_node20"><a xlink:href="../../../api/Init/Core.html#decide_true" xlink:title="decide_true" target="_blank">
<ellipse fill="#fdebd0" stroke="#e67e22" cx="215.4" cy="-520" rx="39.38" ry="18"/>
<text text-anchor="middle" x="215.4" y="-517.5" font-family="Helvetica" font-size="10.00">decide_true</text>
</a>
</g>
</g>
<!-- decide_true&#45;&gt;L4YAML.Proofs.EmitterScannability.dispatchStructural_none_flow -->
<g id="edge19" class="edge">
<title>decide_true&#45;&gt;L4YAML.Proofs.EmitterScannability.dispatchStructural_none_flow</title>
<path fill="none" stroke="#e67e22" stroke-width="2" d="M254.52,-517.36C297.8,-516.03 369.35,-518.99 422.81,-547 519.66,-597.75 595.03,-709.26 626.58,-761.69"/>
<polygon fill="#e67e22" stroke="#e67e22" stroke-width="2" points="624.53,-763.03 630.21,-767.79 628.74,-760.52 624.53,-763.03"/>
</g>
<!-- Bool.or_eq_true -->
<g id="node21" class="node">
<title>Bool.or_eq_true</title>
<g id="a_node21"><a xlink:href="../../../api/Init/SimpLemmas.html#Bool.or_eq_true" xlink:title="Bool.or_eq_true" target="_blank">
<ellipse fill="#fdebd0" stroke="#e67e22" cx="215.4" cy="-466" rx="50.07" ry="18"/>
<text text-anchor="middle" x="215.4" y="-463.5" font-family="Helvetica" font-size="10.00">Bool.or_eq_true</text>
</a>
</g>
</g>
<!-- Bool.or_eq_true&#45;&gt;L4YAML.Proofs.EmitterScannability.dispatchStructural_none_flow -->
<g id="edge20" class="edge">
<title>Bool.or_eq_true&#45;&gt;L4YAML.Proofs.EmitterScannability.dispatchStructural_none_flow</title>
<path fill="none" stroke="#e67e22" stroke-width="2" d="M264.46,-462.04C308.62,-460.66 374.37,-464.5 422.81,-493 532.23,-557.37 603.87,-699.67 630.77,-760.97"/>
<polygon fill="#e67e22" stroke="#e67e22" stroke-width="2" points="628.65,-762.24 633.68,-767.69 633.14,-760.29 628.65,-762.24"/>
</g>
<!-- ge_iff_le._simp_1 -->
<g id="node22" class="node">
<title>ge_iff_le._simp_1</title>
<g id="a_node22"><a xlink:href="../../../api/Init/Core.html#ge_iff_le._simp_1" xlink:title="ge_iff_le._simp_1" target="_blank">
<ellipse fill="#fdebd0" stroke="#e67e22" cx="215.4" cy="-412" rx="54.31" ry="18"/>
<text text-anchor="middle" x="215.4" y="-409.5" font-family="Helvetica" font-size="10.00">ge_iff_le._simp_1</text>
</a>
</g>
</g>
<!-- ge_iff_le._simp_1&#45;&gt;L4YAML.Proofs.EmitterScannability.dispatchStructural_none_flow -->
<g id="edge21" class="edge">
<title>ge_iff_le._simp_1&#45;&gt;L4YAML.Proofs.EmitterScannability.dispatchStructural_none_flow</title>
<path fill="none" stroke="#e67e22" stroke-width="2" d="M267.59,-407.07C312.06,-405.35 376.43,-409.23 422.81,-439 545.67,-517.86 611.97,-692.4 634.14,-761.26"/>
<polygon fill="#e67e22" stroke="#e67e22" stroke-width="2" points="631.82,-762.04 636.27,-767.97 636.49,-760.56 631.82,-762.04"/>
</g>
<!-- Bool.and_eq_true -->
<g id="node23" class="node">
<title>Bool.and_eq_true</title>
<g id="a_node23"><a xlink:href="../../../api/Init/SimpLemmas.html#Bool.and_eq_true" xlink:title="Bool.and_eq_true" target="_blank">
<ellipse fill="#fdebd0" stroke="#e67e22" cx="215.4" cy="-358" rx="54.31" ry="18"/>
<text text-anchor="middle" x="215.4" y="-355.5" font-family="Helvetica" font-size="10.00">Bool.and_eq_true</text>
</a>
</g>
</g>
<!-- Bool.and_eq_true&#45;&gt;L4YAML.Proofs.EmitterScannability.dispatchStructural_none_flow -->
<g id="edge22" class="edge">
<title>Bool.and_eq_true&#45;&gt;L4YAML.Proofs.EmitterScannability.dispatchStructural_none_flow</title>
<path fill="none" stroke="#e67e22" stroke-width="2" d="M267.18,-352.42C311.98,-350.15 377.08,-353.6 422.81,-385 558.9,-478.45 618.47,-684.38 636.46,-760.75"/>
<polygon fill="#e67e22" stroke="#e67e22" stroke-width="2" points="634.11,-761.46 638.07,-767.72 638.88,-760.35 634.11,-761.46"/>
</g>
<!-- eq_self -->
<g id="node24" class="node">
<title>eq_self</title>
<g id="a_node24"><a xlink:href="../../../api/Init/SimpLemmas.html#eq_self" xlink:title="eq_self" target="_blank">
<ellipse fill="#fdebd0" stroke="#e67e22" cx="215.4" cy="-304" rx="28.01" ry="18"/>
<text text-anchor="middle" x="215.4" y="-301.5" font-family="Helvetica" font-size="10.00">eq_self</text>
</a>
</g>
</g>
<!-- eq_self&#45;&gt;L4YAML.Proofs.EmitterScannability.dispatchStructural_none_flow -->
<g id="edge23" class="edge">
<title>eq_self&#45;&gt;L4YAML.Proofs.EmitterScannability.dispatchStructural_none_flow</title>
<path fill="none" stroke="#e67e22" stroke-width="2" d="M243.08,-299.99C285.44,-295.12 368.82,-291.88 422.81,-331 572.66,-439.58 624.5,-677.7 638.4,-760.74"/>
<polygon fill="#e67e22" stroke="#e67e22" stroke-width="2" points="636.01,-761.31 639.56,-767.82 640.85,-760.52 636.01,-761.31"/>
</g>
<!-- of_eq_true -->
<g id="node25" class="node">
<title>of_eq_true</title>
<g id="a_node25"><a xlink:href="../../../api/Init/SimpLemmas.html#of_eq_true" xlink:title="of_eq_true" target="_blank">
<ellipse fill="#fdebd0" stroke="#e67e22" cx="215.4" cy="-250" rx="36.49" ry="18"/>
<text text-anchor="middle" x="215.4" y="-247.5" font-family="Helvetica" font-size="10.00">of_eq_true</text>
</a>
</g>
</g>
<!-- of_eq_true&#45;&gt;L4YAML.Proofs.EmitterScannability.dispatchStructural_none_flow -->
<g id="edge24" class="edge">
<title>of_eq_true&#45;&gt;L4YAML.Proofs.EmitterScannability.dispatchStructural_none_flow</title>
<path fill="none" stroke="#e67e22" stroke-width="2" d="M250.55,-244.89C294.89,-240.22 372.53,-238.94 422.81,-277 586.63,-401.01 629.93,-671.53 639.97,-760.78"/>
<polygon fill="#e67e22" stroke="#e67e22" stroke-width="2" points="637.55,-761.18 640.74,-767.87 642.42,-760.65 637.55,-761.18"/>
</g>
<!-- beq_iff_eq._simp_1 -->
<g id="node26" class="node">
<title>beq_iff_eq._simp_1</title>
<g id="a_node26"><a xlink:href="../../../api/Init/Core.html#beq_iff_eq._simp_1" xlink:title="beq_iff_eq._simp_1" target="_blank">
<ellipse fill="#fdebd0" stroke="#e67e22" cx="215.4" cy="-196" rx="59.41" ry="18"/>
<text text-anchor="middle" x="215.4" y="-193.5" font-family="Helvetica" font-size="10.00">beq_iff_eq._simp_1</text>
</a>
</g>
</g>
<!-- beq_iff_eq._simp_1&#45;&gt;L4YAML.Proofs.EmitterScannability.dispatchStructural_none_flow -->
<g id="edge25" class="edge">
<title>beq_iff_eq._simp_1&#45;&gt;L4YAML.Proofs.EmitterScannability.dispatchStructural_none_flow</title>
<path fill="none" stroke="#e67e22" stroke-width="2" d="M270.42,-188.9C315.78,-185.97 379.88,-189.31 422.81,-223 600.69,-362.61 634.85,-665.47 641.26,-760.72"/>
<polygon fill="#e67e22" stroke="#e67e22" stroke-width="2" points="638.82,-760.9 641.71,-767.73 643.71,-760.59 638.82,-760.9"/>
</g>
<!-- and_false -->
<g id="node27" class="node">
<title>and_false</title>
<g id="a_node27"><a xlink:href="../../../api/Init/SimpLemmas.html#and_false" xlink:title="and_false" target="_blank">
<ellipse fill="#fdebd0" stroke="#e67e22" cx="215.4" cy="-142" rx="34.96" ry="18"/>
<text text-anchor="middle" x="215.4" y="-139.5" font-family="Helvetica" font-size="10.00">and_false</text>
</a>
</g>
</g>
<!-- and_false&#45;&gt;L4YAML.Proofs.EmitterScannability.dispatchStructural_none_flow -->
<g id="edge26" class="edge">
<title>and_false&#45;&gt;L4YAML.Proofs.EmitterScannability.dispatchStructural_none_flow</title>
<path fill="none" stroke="#e67e22" stroke-width="2" d="M248.66,-136.68C293,-131.27 372.94,-128.65 422.81,-169 614.94,-324.46 639.39,-659.95 642.35,-760.76"/>
<polygon fill="#e67e22" stroke="#e67e22" stroke-width="2" points="639.9,-760.95 642.53,-767.89 644.8,-760.83 639.9,-760.95"/>
</g>
<!-- Nat.instLawfulBEq -->
<g id="node28" class="node">
<title>Nat.instLawfulBEq</title>
<g id="a_node28"><a xlink:href="../../../api/Init/Data/Nat/Basic.html#Nat.instLawfulBEq" xlink:title="Nat.instLawfulBEq" target="_blank">
<ellipse fill="#fdebd0" stroke="#e67e22" cx="215.4" cy="-88" rx="57.88" ry="18"/>
<text text-anchor="middle" x="215.4" y="-85.5" font-family="Helvetica" font-size="10.00">Nat.instLawfulBEq</text>
</a>
</g>
</g>
<!-- Nat.instLawfulBEq&#45;&gt;L4YAML.Proofs.EmitterScannability.dispatchStructural_none_flow -->
<g id="edge27" class="edge">
<title>Nat.instLawfulBEq&#45;&gt;L4YAML.Proofs.EmitterScannability.dispatchStructural_none_flow</title>
<path fill="none" stroke="#e67e22" stroke-width="2" d="M268.2,-80.51C313.99,-76.9 379.99,-79.45 422.81,-115 629.31,-286.46 643.61,-654.67 643.27,-760.81"/>
<polygon fill="#e67e22" stroke="#e67e22" stroke-width="2" points="640.82,-760.98 643.23,-768 645.72,-761.01 640.82,-760.98"/>
</g>
<!-- ite_cond_eq_false -->
<g id="node29" class="node">
<title>ite_cond_eq_false</title>
<g id="a_node29"><a xlink:href="../../../api/Init/SimpLemmas.html#ite_cond_eq_false" xlink:title="ite_cond_eq_false" target="_blank">
<ellipse fill="#fdebd0" stroke="#e67e22" cx="215.4" cy="-34" rx="55.85" ry="18"/>
<text text-anchor="middle" x="215.4" y="-31.5" font-family="Helvetica" font-size="10.00">ite_cond_eq_false</text>
</a>
</g>
</g>
<!-- ite_cond_eq_false&#45;&gt;L4YAML.Proofs.EmitterScannability.dispatchStructural_none_flow -->
<g id="edge28" class="edge">
<title>ite_cond_eq_false&#45;&gt;L4YAML.Proofs.EmitterScannability.dispatchStructural_none_flow</title>
<path fill="none" stroke="#e67e22" stroke-width="2" d="M266.61,-26.44C312.59,-22.47 379.83,-24.51 422.81,-61 534.95,-156.22 618.31,-636.89 638.17,-760.82"/>
<polygon fill="#e67e22" stroke="#e67e22" stroke-width="2" points="635.76,-761.27 639.28,-767.79 640.6,-760.49 635.76,-761.27"/>
</g>
<!-- gt_iff_lt._simp_1 -->
<g id="node30" class="node">
<title>gt_iff_lt._simp_1</title>
<g id="a_node30"><a xlink:href="../../../api/Init/Core.html#gt_iff_lt._simp_1" xlink:title="gt_iff_lt._simp_1" target="_blank">
<ellipse fill="#fdebd0" stroke="#e67e22" cx="215.4" cy="-1060" rx="51.43" ry="18"/>
<text text-anchor="middle" x="215.4" y="-1057.5" font-family="Helvetica" font-size="10.00">gt_iff_lt._simp_1</text>
</a>
</g>
</g>
<!-- gt_iff_lt._simp_1&#45;&gt;L4YAML.Proofs.EmitterScannability.dispatchStructural_none_flow -->
<g id="edge29" class="edge">
<title>gt_iff_lt._simp_1&#45;&gt;L4YAML.Proofs.EmitterScannability.dispatchStructural_none_flow</title>
<path fill="none" stroke="#e67e22" stroke-width="2" d="M260.74,-1068.42C307.9,-1074.56 381.28,-1075.54 422.81,-1033 437.48,-1017.97 422.19,-957.13 432.81,-939 466.95,-880.69 533.99,-839.28 583.15,-815.15"/>
<polygon fill="#e67e22" stroke="#e67e22" stroke-width="2" points="584.43,-817.25 589.66,-812 582.29,-812.84 584.43,-817.25"/>
</g>
</g>
</svg>
