<?xml version="1.0" encoding="UTF-8" standalone="no"?>
<!DOCTYPE svg PUBLIC "-//W3C//DTD SVG 1.1//EN"
 "http://www.w3.org/Graphics/SVG/1.1/DTD/svg11.dtd">
<!-- Generated by graphviz version 2.44.0 (0)
 -->
<!-- Title: chain_EmitterScannability.nat_beq_zero_false Pages: 1 -->
<svg width="400pt" height="98pt"
 viewBox="0.00 0.00 400.00 97.92" xmlns="http://www.w3.org/2000/svg" xmlns:xlink="http://www.w3.org/1999/xlink">
<g id="graph0" class="graph" transform="scale(1 1) rotate(0) translate(4 93.92)">
<title>chain_EmitterScannability.nat_beq_zero_false</title>
<polygon fill="white" stroke="transparent" points="-4,4 -4,-93.92 396,-93.92 396,4 -4,4"/>
<text text-anchor="middle" x="196" y="-75.52" font-family="Helvetica Bold" font-size="13.00">Functorial Chains: EmitterScannability.nat_beq_zero_false</text>
<text text-anchor="middle" x="196" y="-61.52" font-family="Helvetica Bold" font-size="13.00">(heuristic: used by 6 proofs)</text>
<!-- L4YAML.Proofs.EmitterScannability.nat_beq_zero_false -->
<g id="node1" class="node">
<title>L4YAML.Proofs.EmitterScannability.nat_beq_zero_false</title>
<polygon fill="#fff3cd" stroke="black" points="339.78,-17.46 339.78,-36.46 255.56,-49.89 136.44,-49.89 52.22,-36.46 52.22,-17.46 136.44,-4.03 255.56,-4.03 339.78,-17.46"/>
<polygon fill="none" stroke="black" points="343.78,-14.06 343.78,-39.87 255.87,-53.88 136.13,-53.88 48.22,-39.87 48.22,-14.06 136.13,-0.04 255.87,-0.04 343.78,-14.06"/>
<text text-anchor="middle" x="196" y="-29.96" font-family="Helvetica" font-size="10.00">EmitterScannability.nat_beq_zero_false</text>
<text text-anchor="middle" x="196" y="-18.96" font-family="Helvetica" font-size="10.00">(no functorial chains found)</text>
</g>
</g>
</svg>
