<?xml version="1.0" encoding="UTF-8" standalone="no"?>
<!DOCTYPE svg PUBLIC "-//W3C//DTD SVG 1.1//EN"
 "http://www.w3.org/Graphics/SVG/1.1/DTD/svg11.dtd">
<!-- Generated by graphviz version 2.44.0 (0)
 -->
<!-- Title: chain_EmitterScannability.scanFlowSequenceEnd_flowLevel Pages: 1 -->
<svg width="1048pt" height="405pt"
 viewBox="0.00 0.00 1048.00 405.00" xmlns="http://www.w3.org/2000/svg" xmlns:xlink="http://www.w3.org/1999/xlink">
<g id="graph0" class="graph" transform="scale(1 1) rotate(0) translate(4 401)">
<title>chain_EmitterScannability.scanFlowSequenceEnd_flowLevel</title>
<polygon fill="white" stroke="transparent" points="-4,4 -4,-401 1044,-401 1044,4 -4,4"/>
<text text-anchor="middle" x="520" y="-382.6" font-family="Helvetica Bold" font-size="13.00">Functorial Chains: EmitterScannability.scanFlowSequenceEnd_flowLevel</text>
<text text-anchor="middle" x="520" y="-368.6" font-family="Helvetica Bold" font-size="13.00">(heuristic: used by 5 proofs)</text>
<g id="clust1" class="cluster">
<title>cluster_fns</title>
<polygon fill="none" stroke="#4a90d9" stroke-dasharray="5,2" points="592,-8 592,-244 1032,-244 1032,-8 592,-8"/>
<text text-anchor="middle" x="812" y="-229.6" font-family="Helvetica Bold" font-size="13.00" fill="#4a90d9">Functions (Call Chain)</text>
</g>
<g id="clust2" class="cluster">
<title>cluster_thms</title>
<polygon fill="none" stroke="#28a745" stroke-dasharray="5,2" points="8,-170 8,-353 584,-353 584,-170 8,-170"/>
<text text-anchor="middle" x="296" y="-338.6" font-family="Helvetica Bold" font-size="13.00" fill="#28a745">Theorems (Proof Chain)</text>
</g>
<!-- L4YAML.Scanner.scanFlowSequenceEnd -->
<g id="node1" class="node">
<title>L4YAML.Scanner.scanFlowSequenceEnd</title>
<g id="a_node1"><a xlink:href="../../../api/L4YAML/Scanner/Scanner.html#L4YAML.Scanner.scanFlowSequenceEnd" xlink:title="scanFlowSequenceEnd" target="_blank">
<polygon fill="#dce9f7" stroke="#4a90d9" points="852.5,-214 733.5,-214 733.5,-178 852.5,-178 852.5,-214"/>
<text text-anchor="middle" x="793" y="-193.5" font-family="Helvetica" font-size="10.00">scanFlowSequenceEnd</text>
</a>
</g>
</g>
<!-- L4YAML.Scanner.ScannerState.emit -->
<g id="node2" class="node">
<title>L4YAML.Scanner.ScannerState.emit</title>
<g id="a_node2"><a xlink:href="../../../api/L4YAML/Scanner/State.html#L4YAML.Scanner.ScannerState.emit" xlink:title="ScannerState.emit" target="_blank">
<polygon fill="#dce9f7" stroke="#4a90d9" points="969,-133 871,-133 871,-97 969,-97 969,-133"/>
<text text-anchor="middle" x="920" y="-112.5" font-family="Helvetica" font-size="10.00">ScannerState.emit</text>
</a>
</g>
</g>
<!-- L4YAML.Scanner.scanFlowSequenceEnd&#45;&gt;L4YAML.Scanner.ScannerState.emit -->
<g id="edge11" class="edge">
<title>L4YAML.Scanner.scanFlowSequenceEnd&#45;&gt;L4YAML.Scanner.ScannerState.emit</title>
<path fill="none" stroke="#4a90d9" stroke-width="2" d="M820.56,-177.86C839.86,-165.85 865.78,-149.73 886.31,-136.96"/>
<polygon fill="#4a90d9" stroke="#4a90d9" stroke-width="2" points="887.85,-138.89 892.5,-133.11 885.26,-134.73 887.85,-138.89"/>
<text text-anchor="middle" x="869.5" y="-153.6" font-family="Times-Roman" font-size="8.00">calls</text>
</g>
<!-- L4YAML.Scanner.ScannerState.advance -->
<g id="node3" class="node">
<title>L4YAML.Scanner.ScannerState.advance</title>
<g id="a_node3"><a xlink:href="../../../api/L4YAML/Scanner/State.html#L4YAML.Scanner.ScannerState.advance" xlink:title="ScannerState.advance" target="_blank">
<polygon fill="#dce9f7" stroke="#4a90d9" points="715.5,-133 600.5,-133 600.5,-97 715.5,-97 715.5,-133"/>
<text text-anchor="middle" x="658" y="-112.5" font-family="Helvetica" font-size="10.00">ScannerState.advance</text>
</a>
</g>
</g>
<!-- L4YAML.Scanner.scanFlowSequenceEnd&#45;&gt;L4YAML.Scanner.ScannerState.advance -->
<g id="edge14" class="edge">
<title>L4YAML.Scanner.scanFlowSequenceEnd&#45;&gt;L4YAML.Scanner.ScannerState.advance</title>
<path fill="none" stroke="#4a90d9" stroke-width="2" d="M768.26,-177.85C755.79,-169.44 740.3,-159.35 726,-151 717.51,-146.05 708.24,-141.03 699.36,-136.4"/>
<polygon fill="#4a90d9" stroke="#4a90d9" stroke-width="2" points="700.32,-134.14 692.98,-133.11 698.07,-138.5 700.32,-134.14"/>
<text text-anchor="middle" x="749.5" y="-153.6" font-family="Times-Roman" font-size="8.00">calls</text>
</g>
<!-- L4YAML.Scanner.ScannerState.flowLevel -->
<g id="node4" class="node">
<title>L4YAML.Scanner.ScannerState.flowLevel</title>
<g id="a_node4"><a xlink:href="../../../api/L4YAML/Scanner/State.html#L4YAML.Scanner.ScannerState.flowLevel" xlink:title="ScannerState.flowLevel" target="_blank">
<polygon fill="#dce9f7" stroke="#4a90d9" points="852.5,-133 733.5,-133 733.5,-97 852.5,-97 852.5,-133"/>
<text text-anchor="middle" x="793" y="-112.5" font-family="Helvetica" font-size="10.00">ScannerState.flowLevel</text>
</a>
</g>
</g>
<!-- L4YAML.Scanner.scanFlowSequenceEnd&#45;&gt;L4YAML.Scanner.ScannerState.flowLevel -->
<g id="edge6" class="edge">
<title>L4YAML.Scanner.scanFlowSequenceEnd&#45;&gt;L4YAML.Scanner.ScannerState.flowLevel</title>
<path fill="none" stroke="#4a90d9" stroke-width="2" d="M793,-177.86C793,-166.88 793,-152.48 793,-140.33"/>
<polygon fill="#4a90d9" stroke="#4a90d9" stroke-width="2" points="795.45,-140.11 793,-133.11 790.55,-140.11 795.45,-140.11"/>
<text text-anchor="middle" x="802.5" y="-153.6" font-family="Times-Roman" font-size="8.00">calls</text>
</g>
<!-- L4YAML.Scanner.ScannerState -->
<g id="node5" class="node">
<title>L4YAML.Scanner.ScannerState</title>
<g id="a_node5"><a xlink:href="../../../api/L4YAML/Scanner/State.html#L4YAML.Scanner.ScannerState" xlink:title="ScannerState" target="_blank">
<polygon fill="#dce9f7" stroke="#4a90d9" points="753,-52 677,-52 677,-16 753,-16 753,-52"/>
<text text-anchor="middle" x="715" y="-31.5" font-family="Helvetica" font-size="10.00">ScannerState</text>
</a>
</g>
</g>
<!-- L4YAML.Scanner.scanFlowSequenceEnd&#45;&gt;L4YAML.Scanner.ScannerState -->
<g id="edge9" class="edge">
<title>L4YAML.Scanner.scanFlowSequenceEnd&#45;&gt;L4YAML.Scanner.ScannerState</title>
<path fill="none" stroke="#4a90d9" stroke-width="2" d="M852.51,-186.05C920.23,-173.33 1016.75,-145.94 978,-97 951.35,-63.33 828.31,-46.11 760.37,-39.03"/>
<polygon fill="#4a90d9" stroke="#4a90d9" stroke-width="2" points="760.39,-36.57 753.17,-38.3 759.89,-41.44 760.39,-36.57"/>
<text text-anchor="middle" x="995.5" y="-113.1" font-family="Times-Roman" font-size="8.00">calls</text>
</g>
<!-- L4YAML.Scanner.ScannerState.flowLevel&#45;&gt;L4YAML.Scanner.ScannerState -->
<g id="edge2" class="edge">
<title>L4YAML.Scanner.ScannerState.flowLevel&#45;&gt;L4YAML.Scanner.ScannerState</title>
<path fill="none" stroke="#4a90d9" stroke-width="2" d="M776.08,-96.86C764.63,-85.26 749.4,-69.84 737.01,-57.29"/>
<polygon fill="#4a90d9" stroke="#4a90d9" stroke-width="2" points="738.55,-55.37 731.89,-52.11 735.07,-58.81 738.55,-55.37"/>
<text text-anchor="middle" x="765.5" y="-72.6" font-family="Times-Roman" font-size="8.00">calls</text>
</g>
<!-- L4YAML.Proofs.ScannerCorrectness.emit_preserves_flowLevel -->
<g id="node6" class="node">
<title>L4YAML.Proofs.ScannerCorrectness.emit_preserves_flowLevel</title>
<g id="a_node6"><a xlink:href="../../../api/L4YAML/Proofs/Scanner/ScannerCorrectness.html#L4YAML.Proofs.ScannerCorrectness.emit_preserves_flowLevel" xlink:title="ScannerCorrectness.emit_preserves_flowLevel" target="_blank">
<ellipse fill="#d4edda" stroke="#28a745" cx="446" cy="-196" rx="130.19" ry="18"/>
<text text-anchor="middle" x="446" y="-193.5" font-family="Helvetica" font-size="10.00">ScannerCorrectness.emit_preserves_flowLevel</text>
</a>
</g>
</g>
<!-- L4YAML.Proofs.ScannerCorrectness.emit_preserves_flowLevel&#45;&gt;L4YAML.Scanner.ScannerState.emit -->
<g id="edge12" class="edge">
<title>L4YAML.Proofs.ScannerCorrectness.emit_preserves_flowLevel&#45;&gt;L4YAML.Scanner.ScannerState.emit</title>
<path fill="none" stroke="#6f42c1" stroke-width="2" stroke-dasharray="5,2" d="M520.31,-181.15C542.09,-177.3 565.96,-173.28 588,-170 624.31,-164.59 634.18,-168.07 670,-160 682.34,-157.22 684.64,-153.7 697,-151 769.07,-135.25 789.66,-147.43 862,-133 862.63,-132.87 863.26,-132.74 863.9,-132.61"/>
<polygon fill="#6f42c1" stroke="#6f42c1" stroke-width="2" points="864.49,-134.99 870.79,-131.07 863.42,-130.21 864.49,-134.99"/>
<text text-anchor="middle" x="709.5" y="-153.6" font-family="Times-Roman" font-size="8.00" fill="#6f42c1">about</text>
</g>
<!-- L4YAML.Proofs.ScannerCorrectness.emit_preserves_flowLevel&#45;&gt;L4YAML.Scanner.ScannerState.flowLevel -->
<g id="edge8" class="edge">
<title>L4YAML.Proofs.ScannerCorrectness.emit_preserves_flowLevel&#45;&gt;L4YAML.Scanner.ScannerState.flowLevel</title>
<path fill="none" stroke="#6f42c1" stroke-width="2" stroke-dasharray="5,2" d="M512.94,-180.51C569.31,-168.2 652.03,-149.89 724,-133 724.75,-132.82 725.51,-132.65 726.26,-132.47"/>
<polygon fill="#6f42c1" stroke="#6f42c1" stroke-width="2" points="726.94,-134.83 733.18,-130.82 725.8,-130.06 726.94,-134.83"/>
<text text-anchor="middle" x="653.5" y="-153.6" font-family="Times-Roman" font-size="8.00" fill="#6f42c1">about</text>
</g>
<!-- L4YAML.Proofs.ScannerCorrectness.emit_preserves_flowLevel&#45;&gt;L4YAML.Scanner.ScannerState -->
<g id="edge10" class="edge">
<title>L4YAML.Proofs.ScannerCorrectness.emit_preserves_flowLevel&#45;&gt;L4YAML.Scanner.ScannerState</title>
<path fill="none" stroke="#6f42c1" stroke-width="2" stroke-dasharray="5,2" d="M449.19,-177.58C451.52,-168.8 455.46,-158.45 462,-151 517.17,-88.14 613.4,-57.25 669.94,-43.84"/>
<polygon fill="#6f42c1" stroke="#6f42c1" stroke-width="2" points="670.71,-46.18 676.98,-42.21 669.6,-41.4 670.71,-46.18"/>
<text text-anchor="middle" x="539.5" y="-113.1" font-family="Times-Roman" font-size="8.00" fill="#6f42c1">about</text>
</g>
<!-- L4YAML.Proofs.ScannerCorrectness.advance_preserves_flowLevel -->
<g id="node7" class="node">
<title>L4YAML.Proofs.ScannerCorrectness.advance_preserves_flowLevel</title>
<g id="a_node7"><a xlink:href="../../../api/L4YAML/Proofs/Scanner/ScannerCorrectness.html#L4YAML.Proofs.ScannerCorrectness.advance_preserves_flowLevel" xlink:title="ScannerCorrectness.advance_preserves_flowLevel" target="_blank">
<ellipse fill="#d4edda" stroke="#28a745" cx="157" cy="-196" rx="140.88" ry="18"/>
<text text-anchor="middle" x="157" y="-193.5" font-family="Helvetica" font-size="10.00">ScannerCorrectness.advance_preserves_flowLevel</text>
</a>
</g>
</g>
<!-- L4YAML.Proofs.ScannerCorrectness.advance_preserves_flowLevel&#45;&gt;L4YAML.Scanner.ScannerState.advance -->
<g id="edge15" class="edge">
<title>L4YAML.Proofs.ScannerCorrectness.advance_preserves_flowLevel&#45;&gt;L4YAML.Scanner.ScannerState.advance</title>
<path fill="none" stroke="#6f42c1" stroke-width="2" stroke-dasharray="5,2" d="M238.32,-181.26C260.58,-177.55 284.71,-173.57 307,-170 406.76,-154.01 522.63,-136.37 593.1,-125.74"/>
<polygon fill="#6f42c1" stroke="#6f42c1" stroke-width="2" points="593.65,-128.13 600.2,-124.67 592.92,-123.29 593.65,-128.13"/>
<text text-anchor="middle" x="435.5" y="-153.6" font-family="Times-Roman" font-size="8.00" fill="#6f42c1">about</text>
</g>
<!-- L4YAML.Proofs.ScannerCorrectness.advance_preserves_flowLevel&#45;&gt;L4YAML.Scanner.ScannerState.flowLevel -->
<g id="edge13" class="edge">
<title>L4YAML.Proofs.ScannerCorrectness.advance_preserves_flowLevel&#45;&gt;L4YAML.Scanner.ScannerState.flowLevel</title>
<path fill="none" stroke="#6f42c1" stroke-width="2" stroke-dasharray="5,2" d="M233.11,-180.86C256.72,-176.86 282.88,-172.84 307,-170 371.16,-162.46 387.63,-165.41 452,-160 573.06,-149.82 604.27,-153.58 724,-133 724.76,-132.87 725.52,-132.73 726.29,-132.6"/>
<polygon fill="#6f42c1" stroke="#6f42c1" stroke-width="2" points="726.85,-134.98 733.27,-131.27 725.94,-130.17 726.85,-134.98"/>
<text text-anchor="middle" x="592.5" y="-153.6" font-family="Times-Roman" font-size="8.00" fill="#6f42c1">about</text>
</g>
<!-- L4YAML.Proofs.ScannerCorrectness.advance_preserves_flowLevel&#45;&gt;L4YAML.Scanner.ScannerState -->
<g id="edge4" class="edge">
<title>L4YAML.Proofs.ScannerCorrectness.advance_preserves_flowLevel&#45;&gt;L4YAML.Scanner.ScannerState</title>
<path fill="none" stroke="#6f42c1" stroke-width="2" stroke-dasharray="5,2" d="M202.2,-178.86C260.12,-158.47 363.85,-122.9 454,-97 502.38,-83.1 515.03,-81.68 564,-70 599.5,-61.53 639.77,-52.21 669.79,-45.32"/>
<polygon fill="#6f42c1" stroke="#6f42c1" stroke-width="2" points="670.53,-47.66 676.8,-43.71 669.43,-42.89 670.53,-47.66"/>
<text text-anchor="middle" x="466.5" y="-113.1" font-family="Times-Roman" font-size="8.00" fill="#6f42c1">about</text>
</g>
<!-- L4YAML.Proofs.EmitterScannability.scanFlowSequenceEnd_flowLevel -->
<g id="node8" class="node">
<title>L4YAML.Proofs.EmitterScannability.scanFlowSequenceEnd_flowLevel</title>
<g id="a_node8"><a xlink:href="../../../api/L4YAML/Proofs/Output/EmitterScannability.html#L4YAML.Proofs.EmitterScannability.scanFlowSequenceEnd_flowLevel" xlink:title="EmitterScannability.scanFlowSequenceEnd_flowLevel" target="_blank">
<polygon fill="#fff3cd" stroke="#d4a017" points="571.63,-293.54 571.63,-308.46 477.53,-319 344.47,-319 250.37,-308.46 250.37,-293.54 344.47,-283 477.53,-283 571.63,-293.54"/>
<polygon fill="none" stroke="#d4a017" points="575.63,-289.97 575.63,-312.03 477.76,-323 344.24,-323 246.37,-312.03 246.37,-289.97 344.24,-279 477.76,-279 575.63,-289.97"/>
<text text-anchor="middle" x="411" y="-298.5" font-family="Helvetica" font-size="10.00">EmitterScannability.scanFlowSequenceEnd_flowLevel</text>
</a>
</g>
</g>
<!-- L4YAML.Proofs.EmitterScannability.scanFlowSequenceEnd_flowLevel&#45;&gt;L4YAML.Scanner.scanFlowSequenceEnd -->
<g id="edge5" class="edge">
<title>L4YAML.Proofs.EmitterScannability.scanFlowSequenceEnd_flowLevel&#45;&gt;L4YAML.Scanner.scanFlowSequenceEnd</title>
<path fill="none" stroke="#6f42c1" stroke-width="2" stroke-dasharray="5,2" d="M486.02,-279.77C555.97,-260.91 659.33,-233.04 726.42,-214.95"/>
<polygon fill="#6f42c1" stroke="#6f42c1" stroke-width="2" points="727.08,-217.31 733.2,-213.12 725.81,-212.58 727.08,-217.31"/>
<text text-anchor="middle" x="592.5" y="-254.6" font-family="Times-Roman" font-size="8.00" fill="#6f42c1">about</text>
</g>
<!-- L4YAML.Proofs.EmitterScannability.scanFlowSequenceEnd_flowLevel&#45;&gt;L4YAML.Scanner.ScannerState.flowLevel -->
<g id="edge1" class="edge">
<title>L4YAML.Proofs.EmitterScannability.scanFlowSequenceEnd_flowLevel&#45;&gt;L4YAML.Scanner.ScannerState.flowLevel</title>
<path fill="none" stroke="#6f42c1" stroke-width="2" stroke-dasharray="5,2" d="M575.58,-298.63C686.59,-294.23 820.17,-281.04 862,-244 893.73,-215.91 906.92,-185.97 883,-151 879.37,-145.69 869.82,-140.41 858.23,-135.63"/>
<polygon fill="#6f42c1" stroke="#6f42c1" stroke-width="2" points="859.01,-133.31 851.6,-133.03 857.22,-137.87 859.01,-133.31"/>
<text text-anchor="middle" x="907.5" y="-194.1" font-family="Times-Roman" font-size="8.00" fill="#6f42c1">about</text>
</g>
<!-- L4YAML.Proofs.EmitterScannability.scanFlowSequenceEnd_flowLevel&#45;&gt;L4YAML.Proofs.ScannerCorrectness.emit_preserves_flowLevel -->
<g id="edge7" class="edge">
<title>L4YAML.Proofs.EmitterScannability.scanFlowSequenceEnd_flowLevel&#45;&gt;L4YAML.Proofs.ScannerCorrectness.emit_preserves_flowLevel</title>
<path fill="none" stroke="#28a745" stroke-width="2" d="M418.25,-278.66C423.93,-261.95 431.83,-238.71 437.74,-221.29"/>
<polygon fill="#28a745" stroke="#28a745" stroke-width="2" points="440.22,-221.64 440.15,-214.22 435.58,-220.06 440.22,-221.64"/>
<text text-anchor="middle" x="437" y="-254.6" font-family="Times-Roman" font-size="8.00">uses</text>
</g>
<!-- L4YAML.Proofs.EmitterScannability.scanFlowSequenceEnd_flowLevel&#45;&gt;L4YAML.Proofs.ScannerCorrectness.advance_preserves_flowLevel -->
<g id="edge3" class="edge">
<title>L4YAML.Proofs.EmitterScannability.scanFlowSequenceEnd_flowLevel&#45;&gt;L4YAML.Proofs.ScannerCorrectness.advance_preserves_flowLevel</title>
<path fill="none" stroke="#28a745" stroke-width="2" d="M358.99,-278.91C313.43,-260.43 247.82,-233.83 203.86,-216"/>
<polygon fill="#28a745" stroke="#28a745" stroke-width="2" points="204.67,-213.69 197.27,-213.33 202.83,-218.23 204.67,-213.69"/>
<text text-anchor="middle" x="325" y="-254.6" font-family="Times-Roman" font-size="8.00">uses</text>
</g>
</g>
</svg>
