<?xml version="1.0" encoding="UTF-8" standalone="no"?>
<!DOCTYPE svg PUBLIC "-//W3C//DTD SVG 1.1//EN"
 "http://www.w3.org/Graphics/SVG/1.1/DTD/svg11.dtd">
<!-- Generated by graphviz version 2.44.0 (0)
 -->
<!-- Title: chain_EmitterScannability.ScannerSurfCorr_transfer Pages: 1 -->
<svg width="1719pt" height="324pt"
 viewBox="0.00 0.00 1719.00 324.00" xmlns="http://www.w3.org/2000/svg" xmlns:xlink="http://www.w3.org/1999/xlink">
<g id="graph0" class="graph" transform="scale(1 1) rotate(0) translate(4 320)">
<title>chain_EmitterScannability.ScannerSurfCorr_transfer</title>
<polygon fill="white" stroke="transparent" points="-4,4 -4,-320 1715,-320 1715,4 -4,4"/>
<text text-anchor="middle" x="855.5" y="-301.6" font-family="Helvetica Bold" font-size="13.00">Functorial Chains: EmitterScannability.ScannerSurfCorr_transfer</text>
<text text-anchor="middle" x="855.5" y="-287.6" font-family="Helvetica Bold" font-size="13.00">(heuristic: used by 14 proofs)</text>
<g id="clust1" class="cluster">
<title>cluster_fns</title>
<polygon fill="none" stroke="#4a90d9" stroke-dasharray="5,2" points="1349,-8 1349,-163 1703,-163 1703,-8 1349,-8"/>
<text text-anchor="middle" x="1526" y="-148.6" font-family="Helvetica Bold" font-size="13.00" fill="#4a90d9">Functions (Call Chain)</text>
</g>
<g id="clust2" class="cluster">
<title>cluster_thms</title>
<polygon fill="none" stroke="#28a745" stroke-dasharray="5,2" points="8,-89 8,-272 1341,-272 1341,-89 8,-89"/>
<text text-anchor="middle" x="674.5" y="-257.6" font-family="Helvetica Bold" font-size="13.00" fill="#28a745">Theorems (Proof Chain)</text>
</g>
<!-- L4YAML.Scanner.ScannerState.input -->
<g id="node1" class="node">
<title>L4YAML.Scanner.ScannerState.input</title>
<g id="a_node1"><a xlink:href="../../../api/L4YAML/Scanner/State.html#L4YAML.Scanner.ScannerState.input" xlink:title="ScannerState.input" target="_blank">
<polygon fill="#dce9f7" stroke="#4a90d9" points="1457,-133 1357,-133 1357,-97 1457,-97 1457,-133"/>
<text text-anchor="middle" x="1407" y="-112.5" font-family="Helvetica" font-size="10.00">ScannerState.input</text>
</a>
</g>
</g>
<!-- L4YAML.Scanner.ScannerState -->
<g id="node2" class="node">
<title>L4YAML.Scanner.ScannerState</title>
<g id="a_node2"><a xlink:href="../../../api/L4YAML/Scanner/State.html#L4YAML.Scanner.ScannerState" xlink:title="ScannerState" target="_blank">
<polygon fill="#dce9f7" stroke="#4a90d9" points="1433,-52 1357,-52 1357,-16 1433,-16 1433,-52"/>
<text text-anchor="middle" x="1395" y="-31.5" font-family="Helvetica" font-size="10.00">ScannerState</text>
</a>
</g>
</g>
<!-- L4YAML.Scanner.ScannerState.input&#45;&gt;L4YAML.Scanner.ScannerState -->
<g id="edge2" class="edge">
<title>L4YAML.Scanner.ScannerState.input&#45;&gt;L4YAML.Scanner.ScannerState</title>
<path fill="none" stroke="#4a90d9" stroke-width="2" d="M1404.4,-96.86C1402.73,-85.88 1400.54,-71.48 1398.7,-59.33"/>
<polygon fill="#4a90d9" stroke="#4a90d9" stroke-width="2" points="1401.07,-58.66 1397.6,-52.11 1396.23,-59.4 1401.07,-58.66"/>
<text text-anchor="middle" x="1410.5" y="-72.6" font-family="Times-Roman" font-size="8.00">calls</text>
</g>
<!-- L4YAML.Scanner.ScannerState.indents -->
<g id="node3" class="node">
<title>L4YAML.Scanner.ScannerState.indents</title>
<g id="a_node3"><a xlink:href="../../../api/L4YAML/Scanner/State.html#L4YAML.Scanner.ScannerState.indents" xlink:title="ScannerState.indents" target="_blank">
<polygon fill="#dce9f7" stroke="#4a90d9" points="1585,-133 1475,-133 1475,-97 1585,-97 1585,-133"/>
<text text-anchor="middle" x="1530" y="-112.5" font-family="Helvetica" font-size="10.00">ScannerState.indents</text>
</a>
</g>
</g>
<!-- L4YAML.Scanner.ScannerState.indents&#45;&gt;L4YAML.Scanner.ScannerState -->
<g id="edge16" class="edge">
<title>L4YAML.Scanner.ScannerState.indents&#45;&gt;L4YAML.Scanner.ScannerState</title>
<path fill="none" stroke="#4a90d9" stroke-width="2" d="M1500.71,-96.86C1480.1,-84.8 1452.4,-68.59 1430.53,-55.79"/>
<polygon fill="#4a90d9" stroke="#4a90d9" stroke-width="2" points="1431.51,-53.53 1424.24,-52.11 1429.04,-57.76 1431.51,-53.53"/>
<text text-anchor="middle" x="1475.5" y="-72.6" font-family="Times-Roman" font-size="8.00">calls</text>
</g>
<!-- L4YAML.Scanner.ScannerState.col -->
<g id="node4" class="node">
<title>L4YAML.Scanner.ScannerState.col</title>
<g id="a_node4"><a xlink:href="../../../api/L4YAML/Scanner/State.html#L4YAML.Scanner.ScannerState.col" xlink:title="ScannerState.col" target="_blank">
<polygon fill="#dce9f7" stroke="#4a90d9" points="1695,-133 1603,-133 1603,-97 1695,-97 1695,-133"/>
<text text-anchor="middle" x="1649" y="-112.5" font-family="Helvetica" font-size="10.00">ScannerState.col</text>
</a>
</g>
</g>
<!-- L4YAML.Scanner.ScannerState.col&#45;&gt;L4YAML.Scanner.ScannerState -->
<g id="edge6" class="edge">
<title>L4YAML.Scanner.ScannerState.col&#45;&gt;L4YAML.Scanner.ScannerState</title>
<path fill="none" stroke="#4a90d9" stroke-width="2" d="M1613.55,-96.88C1607.12,-94.06 1600.41,-91.31 1594,-89 1542.26,-70.36 1480.96,-54.65 1440.21,-45.06"/>
<polygon fill="#4a90d9" stroke="#4a90d9" stroke-width="2" points="1440.72,-42.66 1433.34,-43.46 1439.6,-47.43 1440.72,-42.66"/>
<text text-anchor="middle" x="1571.5" y="-72.6" font-family="Times-Roman" font-size="8.00">calls</text>
</g>
<!-- L4YAML.Proofs.CouplingBridge.ScannerSurfCorr.chars_from -->
<g id="node5" class="node">
<title>L4YAML.Proofs.CouplingBridge.ScannerSurfCorr.chars_from</title>
<g id="a_node5"><a xlink:href="../../../api/L4YAML/Proofs/Coupling/CouplingBridge.html#L4YAML.Proofs.CouplingBridge.ScannerSurfCorr.chars_from" xlink:title="CouplingBridge.ScannerSurfCorr.chars_from" target="_blank">
<ellipse fill="#d4edda" stroke="#28a745" cx="141" cy="-115" rx="124.59" ry="18"/>
<text text-anchor="middle" x="141" y="-112.5" font-family="Helvetica" font-size="10.00">CouplingBridge.ScannerSurfCorr.chars_from</text>
</a>
</g>
</g>
<!-- L4YAML.Proofs.CouplingBridge.ScannerSurfCorr.chars_from&#45;&gt;L4YAML.Scanner.ScannerState -->
<g id="edge10" class="edge">
<title>L4YAML.Proofs.CouplingBridge.ScannerSurfCorr.chars_from&#45;&gt;L4YAML.Scanner.ScannerState</title>
<path fill="none" stroke="#6f42c1" stroke-width="2" stroke-dasharray="5,2" d="M207.88,-99.8C229.24,-95.73 253.03,-91.67 275,-89 689.76,-38.58 1196.3,-34.75 1349.19,-34.82"/>
<polygon fill="#6f42c1" stroke="#6f42c1" stroke-width="2" points="1349.63,-37.27 1356.63,-34.83 1349.64,-32.37 1349.63,-37.27"/>
<text text-anchor="middle" x="469.5" y="-72.6" font-family="Times-Roman" font-size="8.00" fill="#6f42c1">about</text>
</g>
<!-- L4YAML.Proofs.EmitterScannability.ScannerSurfCorr_transfer -->
<g id="node6" class="node">
<title>L4YAML.Proofs.EmitterScannability.ScannerSurfCorr_transfer</title>
<g id="a_node6"><a xlink:href="../../../api/L4YAML/Proofs/Output/EmitterScannability.html#L4YAML.Proofs.EmitterScannability.ScannerSurfCorr_transfer" xlink:title="EmitterScannability.ScannerSurfCorr_transfer" target="_blank">
<polygon fill="#fff3cd" stroke="#d4a017" points="1171.98,-212.54 1171.98,-227.46 1091.74,-238 978.26,-238 898.02,-227.46 898.02,-212.54 978.26,-202 1091.74,-202 1171.98,-212.54"/>
<polygon fill="none" stroke="#d4a017" points="1175.98,-209.04 1175.98,-230.96 1092,-242 978,-242 894.02,-230.96 894.02,-209.04 978,-198 1092,-198 1175.98,-209.04"/>
<text text-anchor="middle" x="1035" y="-217.5" font-family="Helvetica" font-size="10.00">EmitterScannability.ScannerSurfCorr_transfer</text>
</a>
</g>
</g>
<!-- L4YAML.Proofs.EmitterScannability.ScannerSurfCorr_transfer&#45;&gt;L4YAML.Scanner.ScannerState.input -->
<g id="edge1" class="edge">
<title>L4YAML.Proofs.EmitterScannability.ScannerSurfCorr_transfer&#45;&gt;L4YAML.Scanner.ScannerState.input</title>
<path fill="none" stroke="#6f42c1" stroke-width="2" stroke-dasharray="5,2" d="M1171.42,-208.35C1227,-200.48 1290.79,-186.8 1345,-163 1359.01,-156.85 1372.76,-146.94 1383.73,-137.81"/>
<polygon fill="#6f42c1" stroke="#6f42c1" stroke-width="2" points="1385.48,-139.53 1389.21,-133.12 1382.3,-135.81 1385.48,-139.53"/>
<text text-anchor="middle" x="1333.5" y="-173.6" font-family="Times-Roman" font-size="8.00" fill="#6f42c1">about</text>
</g>
<!-- L4YAML.Proofs.EmitterScannability.ScannerSurfCorr_transfer&#45;&gt;L4YAML.Scanner.ScannerState.indents -->
<g id="edge15" class="edge">
<title>L4YAML.Proofs.EmitterScannability.ScannerSurfCorr_transfer&#45;&gt;L4YAML.Scanner.ScannerState.indents</title>
<path fill="none" stroke="#6f42c1" stroke-width="2" stroke-dasharray="5,2" d="M1173.89,-208.74C1279.28,-199.5 1414.52,-184.13 1466,-163 1480.55,-157.03 1494.85,-147.04 1506.22,-137.81"/>
<polygon fill="#6f42c1" stroke="#6f42c1" stroke-width="2" points="1508.09,-139.44 1511.89,-133.07 1504.95,-135.68 1508.09,-139.44"/>
<text text-anchor="middle" x="1452.5" y="-173.6" font-family="Times-Roman" font-size="8.00" fill="#6f42c1">about</text>
</g>
<!-- L4YAML.Proofs.EmitterScannability.ScannerSurfCorr_transfer&#45;&gt;L4YAML.Scanner.ScannerState.col -->
<g id="edge5" class="edge">
<title>L4YAML.Proofs.EmitterScannability.ScannerSurfCorr_transfer&#45;&gt;L4YAML.Scanner.ScannerState.col</title>
<path fill="none" stroke="#6f42c1" stroke-width="2" stroke-dasharray="5,2" d="M1171.02,-208.38C1256.63,-201.29 1369.4,-191.24 1469,-180 1524.71,-173.71 1542.83,-185.92 1594,-163 1606.96,-157.19 1619.2,-147.35 1628.83,-138.17"/>
<polygon fill="#6f42c1" stroke="#6f42c1" stroke-width="2" points="1630.64,-139.82 1633.9,-133.16 1627.19,-136.34 1630.64,-139.82"/>
<text text-anchor="middle" x="1583.5" y="-173.6" font-family="Times-Roman" font-size="8.00" fill="#6f42c1">about</text>
</g>
<!-- L4YAML.Proofs.EmitterScannability.ScannerSurfCorr_transfer&#45;&gt;L4YAML.Proofs.CouplingBridge.ScannerSurfCorr.chars_from -->
<g id="edge9" class="edge">
<title>L4YAML.Proofs.EmitterScannability.ScannerSurfCorr_transfer&#45;&gt;L4YAML.Proofs.CouplingBridge.ScannerSurfCorr.chars_from</title>
<path fill="none" stroke="#28a745" stroke-width="2" d="M893.74,-219.66C739.96,-217.81 487.57,-207.3 275,-163 244.32,-156.61 211.06,-144.97 185.35,-134.88"/>
<polygon fill="#28a745" stroke="#28a745" stroke-width="2" points="186.06,-132.52 178.65,-132.21 184.25,-137.07 186.06,-132.52"/>
<text text-anchor="middle" x="366" y="-173.6" font-family="Times-Roman" font-size="8.00">uses</text>
</g>
<!-- L4YAML.Proofs.CouplingBridge.ScannerSurfCorr.input_prefix -->
<g id="node7" class="node">
<title>L4YAML.Proofs.CouplingBridge.ScannerSurfCorr.input_prefix</title>
<g id="a_node7"><a xlink:href="../../../api/L4YAML/Proofs/Coupling/CouplingBridge.html#L4YAML.Proofs.CouplingBridge.ScannerSurfCorr.input_prefix" xlink:title="CouplingBridge.ScannerSurfCorr.input_prefix" target="_blank">
<ellipse fill="#d4edda" stroke="#28a745" cx="409" cy="-115" rx="124.59" ry="18"/>
<text text-anchor="middle" x="409" y="-112.5" font-family="Helvetica" font-size="10.00">CouplingBridge.ScannerSurfCorr.input_prefix</text>
</a>
</g>
</g>
<!-- L4YAML.Proofs.EmitterScannability.ScannerSurfCorr_transfer&#45;&gt;L4YAML.Proofs.CouplingBridge.ScannerSurfCorr.input_prefix -->
<g id="edge11" class="edge">
<title>L4YAML.Proofs.EmitterScannability.ScannerSurfCorr_transfer&#45;&gt;L4YAML.Proofs.CouplingBridge.ScannerSurfCorr.input_prefix</title>
<path fill="none" stroke="#28a745" stroke-width="2" d="M893.89,-211.35C794.76,-203.94 659.58,-189.72 543,-163 512.78,-156.07 479.91,-144.61 454.29,-134.74"/>
<polygon fill="#28a745" stroke="#28a745" stroke-width="2" points="455.02,-132.39 447.6,-132.13 453.24,-136.96 455.02,-132.39"/>
<text text-anchor="middle" x="632" y="-173.6" font-family="Times-Roman" font-size="8.00">uses</text>
</g>
<!-- L4YAML.Proofs.CouplingBridge.ScannerSurfCorr.end_eq -->
<g id="node8" class="node">
<title>L4YAML.Proofs.CouplingBridge.ScannerSurfCorr.end_eq</title>
<g id="a_node8"><a xlink:href="../../../api/L4YAML/Proofs/Coupling/CouplingBridge.html#L4YAML.Proofs.CouplingBridge.ScannerSurfCorr.end_eq" xlink:title="CouplingBridge.ScannerSurfCorr.end_eq" target="_blank">
<ellipse fill="#d4edda" stroke="#28a745" cx="666" cy="-115" rx="114.4" ry="18"/>
<text text-anchor="middle" x="666" y="-112.5" font-family="Helvetica" font-size="10.00">CouplingBridge.ScannerSurfCorr.end_eq</text>
</a>
</g>
</g>
<!-- L4YAML.Proofs.EmitterScannability.ScannerSurfCorr_transfer&#45;&gt;L4YAML.Proofs.CouplingBridge.ScannerSurfCorr.end_eq -->
<g id="edge13" class="edge">
<title>L4YAML.Proofs.EmitterScannability.ScannerSurfCorr_transfer&#45;&gt;L4YAML.Proofs.CouplingBridge.ScannerSurfCorr.end_eq</title>
<path fill="none" stroke="#28a745" stroke-width="2" d="M947.21,-201.99C900.18,-192.12 841.48,-178.56 790,-163 763.32,-154.94 734.15,-143.99 710.8,-134.69"/>
<polygon fill="#28a745" stroke="#28a745" stroke-width="2" points="711.48,-132.32 704.07,-131.99 709.65,-136.87 711.48,-132.32"/>
<text text-anchor="middle" x="859" y="-173.6" font-family="Times-Roman" font-size="8.00">uses</text>
</g>
<!-- L4YAML.Proofs.CouplingBridge.ScannerSurfCorr.col_eq -->
<g id="node9" class="node">
<title>L4YAML.Proofs.CouplingBridge.ScannerSurfCorr.col_eq</title>
<g id="a_node9"><a xlink:href="../../../api/L4YAML/Proofs/Coupling/CouplingBridge.html#L4YAML.Proofs.CouplingBridge.ScannerSurfCorr.col_eq" xlink:title="CouplingBridge.ScannerSurfCorr.col_eq" target="_blank">
<ellipse fill="#d4edda" stroke="#28a745" cx="911" cy="-115" rx="112.37" ry="18"/>
<text text-anchor="middle" x="911" y="-112.5" font-family="Helvetica" font-size="10.00">CouplingBridge.ScannerSurfCorr.col_eq</text>
</a>
</g>
</g>
<!-- L4YAML.Proofs.EmitterScannability.ScannerSurfCorr_transfer&#45;&gt;L4YAML.Proofs.CouplingBridge.ScannerSurfCorr.col_eq -->
<g id="edge7" class="edge">
<title>L4YAML.Proofs.EmitterScannability.ScannerSurfCorr_transfer&#45;&gt;L4YAML.Proofs.CouplingBridge.ScannerSurfCorr.col_eq</title>
<path fill="none" stroke="#28a745" stroke-width="2" d="M1009.61,-197.91C988.4,-180.29 958.3,-155.29 936.94,-137.55"/>
<polygon fill="#28a745" stroke="#28a745" stroke-width="2" points="938.39,-135.57 931.44,-132.98 935.26,-139.34 938.39,-135.57"/>
<text text-anchor="middle" x="997" y="-173.6" font-family="Times-Roman" font-size="8.00">uses</text>
</g>
<!-- L4YAML.Proofs.CouplingBridge.ScannerSurfCorr.indent_cols_nonneg -->
<g id="node10" class="node">
<title>L4YAML.Proofs.CouplingBridge.ScannerSurfCorr.indent_cols_nonneg</title>
<g id="a_node10"><a xlink:href="../../../api/L4YAML/Proofs/Coupling/CouplingBridge.html#L4YAML.Proofs.CouplingBridge.ScannerSurfCorr.indent_cols_nonneg" xlink:title="CouplingBridge.ScannerSurfCorr.indent_cols_nonneg" target="_blank">
<ellipse fill="#d4edda" stroke="#28a745" cx="1187" cy="-115" rx="145.98" ry="18"/>
<text text-anchor="middle" x="1187" y="-112.5" font-family="Helvetica" font-size="10.00">CouplingBridge.ScannerSurfCorr.indent_cols_nonneg</text>
</a>
</g>
</g>
<!-- L4YAML.Proofs.EmitterScannability.ScannerSurfCorr_transfer&#45;&gt;L4YAML.Proofs.CouplingBridge.ScannerSurfCorr.indent_cols_nonneg -->
<g id="edge3" class="edge">
<title>L4YAML.Proofs.EmitterScannability.ScannerSurfCorr_transfer&#45;&gt;L4YAML.Proofs.CouplingBridge.ScannerSurfCorr.indent_cols_nonneg</title>
<path fill="none" stroke="#28a745" stroke-width="2" d="M1066.13,-197.91C1092.34,-180.15 1129.65,-154.86 1155.86,-137.1"/>
<polygon fill="#28a745" stroke="#28a745" stroke-width="2" points="1157.52,-138.93 1161.94,-132.98 1154.77,-134.88 1157.52,-138.93"/>
<text text-anchor="middle" x="1111" y="-173.6" font-family="Times-Roman" font-size="8.00">uses</text>
</g>
<!-- L4YAML.Proofs.CouplingBridge.ScannerSurfCorr.input_prefix&#45;&gt;L4YAML.Scanner.ScannerState -->
<g id="edge12" class="edge">
<title>L4YAML.Proofs.CouplingBridge.ScannerSurfCorr.input_prefix&#45;&gt;L4YAML.Scanner.ScannerState</title>
<path fill="none" stroke="#6f42c1" stroke-width="2" stroke-dasharray="5,2" d="M476.23,-99.81C497.5,-95.76 521.16,-91.72 543,-89 849.43,-50.82 1221.42,-39.02 1349.28,-35.95"/>
<polygon fill="#6f42c1" stroke="#6f42c1" stroke-width="2" points="1349.69,-38.39 1356.63,-35.77 1349.58,-33.49 1349.69,-38.39"/>
<text text-anchor="middle" x="717.5" y="-72.6" font-family="Times-Roman" font-size="8.00" fill="#6f42c1">about</text>
</g>
<!-- L4YAML.Proofs.CouplingBridge.ScannerSurfCorr.end_eq&#45;&gt;L4YAML.Scanner.ScannerState -->
<g id="edge14" class="edge">
<title>L4YAML.Proofs.CouplingBridge.ScannerSurfCorr.end_eq&#45;&gt;L4YAML.Scanner.ScannerState</title>
<path fill="none" stroke="#6f42c1" stroke-width="2" stroke-dasharray="5,2" d="M728.85,-99.93C748.37,-95.94 770,-91.9 790,-89 998.16,-58.82 1249.23,-42.89 1349.97,-37.32"/>
<polygon fill="#6f42c1" stroke="#6f42c1" stroke-width="2" points="1350.1,-39.77 1356.96,-36.94 1349.84,-34.88 1350.1,-39.77"/>
<text text-anchor="middle" x="950.5" y="-72.6" font-family="Times-Roman" font-size="8.00" fill="#6f42c1">about</text>
</g>
<!-- L4YAML.Proofs.CouplingBridge.ScannerSurfCorr.col_eq&#45;&gt;L4YAML.Scanner.ScannerState -->
<g id="edge8" class="edge">
<title>L4YAML.Proofs.CouplingBridge.ScannerSurfCorr.col_eq&#45;&gt;L4YAML.Scanner.ScannerState</title>
<path fill="none" stroke="#6f42c1" stroke-width="2" stroke-dasharray="5,2" d="M974.92,-100.09C993.31,-96.29 1013.41,-92.3 1032,-89 1145.94,-68.77 1280.93,-50.06 1349.74,-40.9"/>
<polygon fill="#6f42c1" stroke="#6f42c1" stroke-width="2" points="1350.38,-43.29 1357,-39.94 1349.74,-38.43 1350.38,-43.29"/>
<text text-anchor="middle" x="1153.5" y="-72.6" font-family="Times-Roman" font-size="8.00" fill="#6f42c1">about</text>
</g>
<!-- L4YAML.Proofs.CouplingBridge.ScannerSurfCorr.indent_cols_nonneg&#45;&gt;L4YAML.Scanner.ScannerState -->
<g id="edge4" class="edge">
<title>L4YAML.Proofs.CouplingBridge.ScannerSurfCorr.indent_cols_nonneg&#45;&gt;L4YAML.Scanner.ScannerState</title>
<path fill="none" stroke="#6f42c1" stroke-width="2" stroke-dasharray="5,2" d="M1229.85,-97.73C1264.85,-84.43 1314.2,-65.69 1349.83,-52.16"/>
<polygon fill="#6f42c1" stroke="#6f42c1" stroke-width="2" points="1351.09,-54.3 1356.76,-49.52 1349.35,-49.72 1351.09,-54.3"/>
<text text-anchor="middle" x="1309.5" y="-72.6" font-family="Times-Roman" font-size="8.00" fill="#6f42c1">about</text>
</g>
</g>
</svg>
