<?xml version="1.0" encoding="UTF-8" standalone="no"?>
<!DOCTYPE svg PUBLIC "-//W3C//DTD SVG 1.1//EN"
 "http://www.w3.org/Graphics/SVG/1.1/DTD/svg11.dtd">
<!-- Generated by graphviz version 2.44.0 (0)
 -->
<!-- Title: chain_EmitterScannability.SimpleKeyAboveFloor_of_preserved Pages: 1 -->
<svg width="505pt" height="98pt"
 viewBox="0.00 0.00 505.00 97.92" xmlns="http://www.w3.org/2000/svg" xmlns:xlink="http://www.w3.org/1999/xlink">
<g id="graph0" class="graph" transform="scale(1 1) rotate(0) translate(4 93.92)">
<title>chain_EmitterScannability.SimpleKeyAboveFloor_of_preserved</title>
<polygon fill="white" stroke="transparent" points="-4,4 -4,-93.92 501,-93.92 501,4 -4,4"/>
<text text-anchor="middle" x="248.5" y="-75.52" font-family="Helvetica Bold" font-size="13.00">Functorial Chains: EmitterScannability.SimpleKeyAboveFloor_of_preserved</text>
<text text-anchor="middle" x="248.5" y="-61.52" font-family="Helvetica Bold" font-size="13.00">(heuristic: used by 5 proofs)</text>
<!-- L4YAML.Proofs.EmitterScannability.SimpleKeyAboveFloor_of_preserved -->
<g id="node1" class="node">
<title>L4YAML.Proofs.EmitterScannability.SimpleKeyAboveFloor_of_preserved</title>
<polygon fill="#fff3cd" stroke="black" points="447.49,-17.46 447.49,-36.46 330.92,-49.89 166.08,-49.89 49.51,-36.46 49.51,-17.46 166.08,-4.03 330.92,-4.03 447.49,-17.46"/>
<polygon fill="none" stroke="black" points="451.49,-13.9 451.49,-40.02 331.15,-53.88 165.85,-53.88 45.51,-40.02 45.51,-13.9 165.85,-0.04 331.15,-0.04 451.49,-13.9"/>
<text text-anchor="middle" x="248.5" y="-29.96" font-family="Helvetica" font-size="10.00">EmitterScannability.SimpleKeyAboveFloor_of_preserved</text>
<text text-anchor="middle" x="248.5" y="-18.96" font-family="Helvetica" font-size="10.00">(no functorial chains found)</text>
</g>
</g>
</svg>
