<?xml version="1.0" encoding="UTF-8" standalone="no"?>
<!DOCTYPE svg PUBLIC "-//W3C//DTD SVG 1.1//EN"
 "http://www.w3.org/Graphics/SVG/1.1/DTD/svg11.dtd">
<!-- Generated by graphviz version 2.44.0 (0)
 -->
<!-- Title: EndToEndCorrectness.parse_complete Pages: 1 -->
<svg width="715pt" height="310pt"
 viewBox="0.00 0.00 715.16 310.00" xmlns="http://www.w3.org/2000/svg" xmlns:xlink="http://www.w3.org/1999/xlink">
<g id="graph0" class="graph" transform="scale(1 1) rotate(0) translate(4 306)">
<title>EndToEndCorrectness.parse_complete</title>
<polygon fill="white" stroke="transparent" points="-4,4 -4,-306 711.16,-306 711.16,4 -4,4"/>
<text text-anchor="middle" x="353.58" y="-287.6" font-family="Helvetica Bold" font-size="13.00">EndToEndCorrectness.parse_complete</text>
<text text-anchor="middle" x="353.58" y="-273.6" font-family="Helvetica Bold" font-size="13.00">4.2 parse_complete — completeness: ValidYamlProp → parse .ok</text>
<text text-anchor="middle" x="353.58" y="-259.6" font-family="Helvetica Bold" font-size="13.00">(L4YAML.Proofs.EndToEndCorrectness)</text>
<g id="clust1" class="cluster">
<title>cluster_functions</title>
<polygon fill="none" stroke="#4a90d9" stroke-dasharray="5,2" points="502.16,-8 502.16,-244 699.16,-244 699.16,-8 502.16,-8"/>
<text text-anchor="middle" x="600.66" y="-229.6" font-family="Helvetica Bold" font-size="13.00" fill="#4a90d9">Functions</text>
</g>
<g id="clust2" class="cluster">
<title>cluster_key</title>
<polygon fill="none" stroke="#d4a017" stroke-dasharray="5,2" points="131.99,-84 131.99,-166 457.16,-166 457.16,-84 131.99,-84"/>
<text text-anchor="middle" x="294.58" y="-151.6" font-family="Helvetica Bold" font-size="13.00" fill="#d4a017">Key Theorem</text>
</g>
<g id="clust4" class="cluster">
<title>cluster_stdlib</title>
<polygon fill="none" stroke="#e67e22" stroke-dasharray="5,2" points="0,-54 0,-182 110.99,-182 110.99,-54 0,-54"/>
<text text-anchor="middle" x="55.5" y="-167.6" font-family="Helvetica Bold" font-size="13.00" fill="#e67e22">Stdlib Lemmas</text>
</g>
<!-- L4YAML.TokenParser.parseYaml -->
<g id="node1" class="node">
<title>L4YAML.TokenParser.parseYaml</title>
<polygon fill="#dce9f7" stroke="#4a90d9" points="661.16,-214 540.16,-214 540.16,-178 661.16,-178 661.16,-214"/>
<text text-anchor="middle" x="600.66" y="-199" font-family="Helvetica" font-size="10.00">TokenParser.parseYaml</text>
<text text-anchor="middle" x="600.66" y="-188" font-family="Helvetica" font-size="10.00">(def)</text>
</g>
<!-- L4YAML.Proofs.EndToEndCorrectness.ValidYamlProp -->
<g id="node2" class="node">
<title>L4YAML.Proofs.EndToEndCorrectness.ValidYamlProp</title>
<polygon fill="#dce9f7" stroke="#4a90d9" points="691.16,-160 510.16,-160 510.16,-124 691.16,-124 691.16,-160"/>
<text text-anchor="middle" x="600.66" y="-145" font-family="Helvetica" font-size="10.00">EndToEndCorrectness.ValidYamlProp</text>
<text text-anchor="middle" x="600.66" y="-134" font-family="Helvetica" font-size="10.00">(def)</text>
</g>
<!-- L4YAML.ScanError -->
<g id="node3" class="node">
<title>L4YAML.ScanError</title>
<polygon fill="#dce9f7" stroke="#4a90d9" points="631.66,-106 569.66,-106 569.66,-70 631.66,-70 631.66,-106"/>
<text text-anchor="middle" x="600.66" y="-91" font-family="Helvetica" font-size="10.00">ScanError</text>
<text text-anchor="middle" x="600.66" y="-80" font-family="Helvetica" font-size="10.00">(inductive)</text>
</g>
<!-- L4YAML.YamlDocument -->
<g id="node4" class="node">
<title>L4YAML.YamlDocument</title>
<polygon fill="#dce9f7" stroke="#4a90d9" points="642.16,-52 559.16,-52 559.16,-16 642.16,-16 642.16,-52"/>
<text text-anchor="middle" x="600.66" y="-37" font-family="Helvetica" font-size="10.00">YamlDocument</text>
<text text-anchor="middle" x="600.66" y="-26" font-family="Helvetica" font-size="10.00">(inductive)</text>
</g>
<!-- L4YAML.Proofs.EndToEndCorrectness.parse_complete -->
<g id="node5" class="node">
<title>L4YAML.Proofs.EndToEndCorrectness.parse_complete</title>
<polygon fill="#fff3cd" stroke="#d4a017" points="445.25,-106.54 445.25,-121.46 356.99,-132 232.17,-132 143.91,-121.46 143.91,-106.54 232.17,-96 356.99,-96 445.25,-106.54"/>
<polygon fill="none" stroke="#d4a017" points="449.25,-102.99 449.25,-125.01 357.23,-136 231.93,-136 139.91,-125.01 139.91,-102.99 231.93,-92 357.23,-92 449.25,-102.99"/>
<text text-anchor="middle" x="294.58" y="-110.9" font-family="Helvetica" font-size="12.00">EndToEndCorrectness.parse_complete</text>
</g>
<!-- L4YAML.Proofs.EndToEndCorrectness.parse_complete&#45;&gt;L4YAML.TokenParser.parseYaml -->
<g id="edge1" class="edge">
<title>L4YAML.Proofs.EndToEndCorrectness.parse_complete&#45;&gt;L4YAML.TokenParser.parseYaml</title>
<path fill="none" stroke="#4a90d9" stroke-width="2" d="M371.14,-134.38C420.76,-147.76 485.09,-165.1 532.84,-177.98"/>
<polygon fill="#4a90d9" stroke="#4a90d9" stroke-width="2" points="532.37,-180.39 539.76,-179.85 533.64,-175.66 532.37,-180.39"/>
<text text-anchor="middle" x="479.66" y="-166.6" font-family="Times-Roman" font-size="8.00" fill="#4a90d9">about</text>
</g>
<!-- L4YAML.Proofs.EndToEndCorrectness.parse_complete&#45;&gt;L4YAML.Proofs.EndToEndCorrectness.ValidYamlProp -->
<g id="edge4" class="edge">
<title>L4YAML.Proofs.EndToEndCorrectness.parse_complete&#45;&gt;L4YAML.Proofs.EndToEndCorrectness.ValidYamlProp</title>
<path fill="none" stroke="#4a90d9" stroke-width="2" d="M434.72,-126.81C457.72,-128.93 481.12,-131.08 502.79,-133.08"/>
<polygon fill="#4a90d9" stroke="#4a90d9" stroke-width="2" points="502.56,-135.52 509.76,-133.72 503.01,-130.64 502.56,-135.52"/>
<text text-anchor="middle" x="479.66" y="-133.6" font-family="Times-Roman" font-size="8.00" fill="#4a90d9">about</text>
</g>
<!-- L4YAML.Proofs.EndToEndCorrectness.parse_complete&#45;&gt;L4YAML.ScanError -->
<g id="edge3" class="edge">
<title>L4YAML.Proofs.EndToEndCorrectness.parse_complete&#45;&gt;L4YAML.ScanError</title>
<path fill="none" stroke="#4a90d9" stroke-width="2" d="M439.16,-101.72C484.72,-97.83 531.29,-93.85 562.45,-91.18"/>
<polygon fill="#4a90d9" stroke="#4a90d9" stroke-width="2" points="562.88,-93.6 569.64,-90.57 562.46,-88.72 562.88,-93.6"/>
<text text-anchor="middle" x="479.66" y="-100.6" font-family="Times-Roman" font-size="8.00" fill="#4a90d9">about</text>
</g>
<!-- L4YAML.Proofs.EndToEndCorrectness.parse_complete&#45;&gt;L4YAML.YamlDocument -->
<g id="edge2" class="edge">
<title>L4YAML.Proofs.EndToEndCorrectness.parse_complete&#45;&gt;L4YAML.YamlDocument</title>
<path fill="none" stroke="#4a90d9" stroke-width="2" d="M372.71,-93.71C429.22,-78.84 504.15,-59.13 552.15,-46.5"/>
<polygon fill="#4a90d9" stroke="#4a90d9" stroke-width="2" points="552.88,-48.84 559.03,-44.69 551.64,-44.1 552.88,-48.84"/>
<text text-anchor="middle" x="479.66" y="-68.6" font-family="Times-Roman" font-size="8.00" fill="#4a90d9">about</text>
</g>
<!-- eq_self -->
<g id="node6" class="node">
<title>eq_self</title>
<ellipse fill="#fdebd0" stroke="#e67e22" cx="55.5" cy="-134" rx="28.01" ry="18"/>
<text text-anchor="middle" x="55.5" y="-131.5" font-family="Helvetica" font-size="10.00">eq_self</text>
</g>
<!-- eq_self&#45;&gt;L4YAML.Proofs.EndToEndCorrectness.parse_complete -->
<g id="edge5" class="edge">
<title>eq_self&#45;&gt;L4YAML.Proofs.EndToEndCorrectness.parse_complete</title>
<path fill="none" stroke="#e67e22" stroke-width="2" d="M83.69,-131.71C99.18,-130.4 119.94,-128.65 142.4,-126.75"/>
<polygon fill="#e67e22" stroke="#e67e22" stroke-width="2" points="142.66,-129.19 149.42,-126.16 142.24,-124.31 142.66,-129.19"/>
</g>
<!-- of_eq_true -->
<g id="node7" class="node">
<title>of_eq_true</title>
<ellipse fill="#fdebd0" stroke="#e67e22" cx="55.5" cy="-80" rx="36.49" ry="18"/>
<text text-anchor="middle" x="55.5" y="-77.5" font-family="Helvetica" font-size="10.00">of_eq_true</text>
</g>
<!-- of_eq_true&#45;&gt;L4YAML.Proofs.EndToEndCorrectness.parse_complete -->
<g id="edge6" class="edge">
<title>of_eq_true&#45;&gt;L4YAML.Proofs.EndToEndCorrectness.parse_complete</title>
<path fill="none" stroke="#e67e22" stroke-width="2" d="M90.72,-84.91C113.13,-88.12 143.88,-92.53 174.67,-96.95"/>
<polygon fill="#e67e22" stroke="#e67e22" stroke-width="2" points="174.37,-99.38 181.65,-97.95 175.07,-94.53 174.37,-99.38"/>
</g>
</g>
</svg>
