<?xml version="1.0" encoding="UTF-8" standalone="no"?>
<!DOCTYPE svg PUBLIC "-//W3C//DTD SVG 1.1//EN"
 "http://www.w3.org/Graphics/SVG/1.1/DTD/svg11.dtd">
<!-- Generated by graphviz version 2.44.0 (0)
 -->
<!-- Title: chain_EndToEndCorrectness.parse_deterministic Pages: 1 -->
<svg width="1056pt" height="201pt"
 viewBox="0.00 0.00 1056.00 200.92" xmlns="http://www.w3.org/2000/svg" xmlns:xlink="http://www.w3.org/1999/xlink">
<g id="graph0" class="graph" transform="scale(1 1) rotate(0) translate(4 196.92)">
<title>chain_EndToEndCorrectness.parse_deterministic</title>
<polygon fill="white" stroke="transparent" points="-4,4 -4,-196.92 1052,-196.92 1052,4 -4,4"/>
<text text-anchor="middle" x="524" y="-178.52" font-family="Helvetica Bold" font-size="13.00">Structural theorem: EndToEndCorrectness.parse_deterministic\nProof is a witness / injection — no fibration depth\n4.3 parse_deterministic — parse is a function</text>
<g id="clust1" class="cluster">
<title>cluster_direct</title>
<polygon fill="none" stroke="#4a90d9" stroke-dasharray="5,2" points="353.82,-8 353.82,-82 670.82,-82 670.82,-8 353.82,-8"/>
<text text-anchor="middle" x="512.32" y="-67.6" font-family="Helvetica Bold" font-size="13.00" fill="#4a90d9">About (no chain extends — proof is structural)</text>
</g>
<!-- L4YAML.Proofs.EndToEndCorrectness.parse_deterministic -->
<g id="node1" class="node">
<title>L4YAML.Proofs.EndToEndCorrectness.parse_deterministic</title>
<polygon fill="#fff3cd" stroke="#d4a017" points="698.06,-134.46 698.06,-153.46 607.12,-166.89 478.51,-166.89 387.57,-153.46 387.57,-134.46 478.51,-121.03 607.12,-121.03 698.06,-134.46"/>
<polygon fill="none" stroke="#d4a017" points="702.05,-131.02 702.05,-156.91 607.41,-170.88 478.22,-170.88 383.58,-156.91 383.58,-131.02 478.22,-117.04 607.41,-117.04 702.05,-131.02"/>
<text text-anchor="middle" x="542.82" y="-146.96" font-family="Helvetica" font-size="10.00">EndToEndCorrectness.parse_deterministic</text>
<text text-anchor="middle" x="542.82" y="-135.96" font-family="Helvetica" font-size="10.00">(structural)</text>
</g>
<!-- L4YAML.TokenParser.parseYaml -->
<g id="node2" class="node">
<title>L4YAML.TokenParser.parseYaml</title>
<polygon fill="#dce9f7" stroke="#4a90d9" points="483.32,-52 362.32,-52 362.32,-16 483.32,-16 483.32,-52"/>
<text text-anchor="middle" x="422.82" y="-31.5" font-family="Helvetica" font-size="10.00">TokenParser.parseYaml</text>
</g>
<!-- L4YAML.Proofs.EndToEndCorrectness.parse_deterministic&#45;&gt;L4YAML.TokenParser.parseYaml -->
<g id="edge1" class="edge">
<title>L4YAML.Proofs.EndToEndCorrectness.parse_deterministic&#45;&gt;L4YAML.TokenParser.parseYaml</title>
<path fill="none" stroke="#4a90d9" stroke-width="2" d="M513.77,-116.83C493.35,-98.46 466.35,-74.17 447.08,-56.83"/>
<polygon fill="#4a90d9" stroke="#4a90d9" stroke-width="2" points="448.71,-55 441.87,-52.14 445.43,-58.64 448.71,-55"/>
<text text-anchor="middle" x="506.32" y="-92.6" font-family="Times-Roman" font-size="8.00" fill="#4a90d9">about</text>
</g>
<!-- L4YAML.YamlDocument -->
<g id="node3" class="node">
<title>L4YAML.YamlDocument</title>
<polygon fill="#dce9f7" stroke="#4a90d9" points="584.32,-52 501.32,-52 501.32,-16 584.32,-16 584.32,-52"/>
<text text-anchor="middle" x="542.82" y="-31.5" font-family="Helvetica" font-size="10.00">YamlDocument</text>
</g>
<!-- L4YAML.Proofs.EndToEndCorrectness.parse_deterministic&#45;&gt;L4YAML.YamlDocument -->
<g id="edge2" class="edge">
<title>L4YAML.Proofs.EndToEndCorrectness.parse_deterministic&#45;&gt;L4YAML.YamlDocument</title>
<path fill="none" stroke="#4a90d9" stroke-width="2" d="M542.82,-116.83C542.82,-99.4 542.82,-76.64 542.82,-59.55"/>
<polygon fill="#4a90d9" stroke="#4a90d9" stroke-width="2" points="545.27,-59.14 542.82,-52.14 540.37,-59.14 545.27,-59.14"/>
<text text-anchor="middle" x="555.32" y="-92.6" font-family="Times-Roman" font-size="8.00" fill="#4a90d9">about</text>
</g>
<!-- L4YAML.ScanError -->
<g id="node4" class="node">
<title>L4YAML.ScanError</title>
<polygon fill="#dce9f7" stroke="#4a90d9" points="662.82,-52 602.82,-52 602.82,-16 662.82,-16 662.82,-52"/>
<text text-anchor="middle" x="632.82" y="-31.5" font-family="Helvetica" font-size="10.00">ScanError</text>
</g>
<!-- L4YAML.Proofs.EndToEndCorrectness.parse_deterministic&#45;&gt;L4YAML.ScanError -->
<g id="edge3" class="edge">
<title>L4YAML.Proofs.EndToEndCorrectness.parse_deterministic&#45;&gt;L4YAML.ScanError</title>
<path fill="none" stroke="#4a90d9" stroke-width="2" d="M564.68,-116.87C573.71,-106.09 584.28,-93.45 593.82,-82 600.31,-74.21 607.39,-65.68 613.72,-58.05"/>
<polygon fill="#4a90d9" stroke="#4a90d9" stroke-width="2" points="615.8,-59.38 618.39,-52.42 612.03,-56.25 615.8,-59.38"/>
<text text-anchor="middle" x="599.32" y="-92.6" font-family="Times-Roman" font-size="8.00" fill="#4a90d9">about</text>
</g>
</g>
</svg>
