<?xml version="1.0" encoding="UTF-8" standalone="no"?>
<!DOCTYPE svg PUBLIC "-//W3C//DTD SVG 1.1//EN"
 "http://www.w3.org/Graphics/SVG/1.1/DTD/svg11.dtd">
<!-- Generated by graphviz version 2.44.0 (0)
 -->
<!-- Title: YamlValue.mapping.sizeOf_spec Pages: 1 -->
<svg width="738pt" height="454pt"
 viewBox="0.00 0.00 738.31 454.00" xmlns="http://www.w3.org/2000/svg" xmlns:xlink="http://www.w3.org/1999/xlink">
<g id="graph0" class="graph" transform="scale(1 1) rotate(0) translate(4 450)">
<title>YamlValue.mapping.sizeOf_spec</title>
<polygon fill="white" stroke="transparent" points="-4,4 -4,-450 734.31,-450 734.31,4 -4,4"/>
<text text-anchor="middle" x="365.15" y="-431.6" font-family="Helvetica Bold" font-size="13.00">YamlValue.mapping.sizeOf_spec</text>
<text text-anchor="middle" x="365.15" y="-417.6" font-family="Helvetica Bold" font-size="13.00">(heuristic: used by 11 proofs)</text>
<text text-anchor="middle" x="365.15" y="-403.6" font-family="Helvetica Bold" font-size="13.00">(L4YAML.Spec.Types)</text>
<g id="clust1" class="cluster">
<title>cluster_functions</title>
<polygon fill="none" stroke="#4a90d9" stroke-dasharray="5,2" points="319.54,-98 319.54,-388 722.31,-388 722.31,-98 319.54,-98"/>
<text text-anchor="middle" x="520.92" y="-373.6" font-family="Helvetica Bold" font-size="13.00" fill="#4a90d9">Functions</text>
</g>
<g id="clust2" class="cluster">
<title>cluster_key</title>
<polygon fill="none" stroke="#d4a017" stroke-dasharray="5,2" points="242.78,-8 242.78,-90 521.31,-90 521.31,-8 242.78,-8"/>
<text text-anchor="middle" x="382.04" y="-75.6" font-family="Helvetica Bold" font-size="13.00" fill="#d4a017">Key Theorem</text>
</g>
<g id="clust3" class="cluster">
<title>cluster_proofs</title>
<polygon fill="none" stroke="#28a745" stroke-dasharray="5,2" points="8,-238 8,-318 200.78,-318 200.78,-238 8,-238"/>
<text text-anchor="middle" x="104.39" y="-303.6" font-family="Helvetica Bold" font-size="13.00" fill="#28a745">Proof Dependencies</text>
</g>
<!-- L4YAML.YamlValue._sizeOf_3 -->
<g id="node1" class="node">
<title>L4YAML.YamlValue._sizeOf_3</title>
<g id="a_node1"><a xlink:href="../../../api/L4YAML/Spec/Types.html#L4YAML.YamlValue._sizeOf_3" xlink:title="YamlValue._sizeOf_3\n(def)" target="_blank">
<polygon fill="#dce9f7" stroke="#4a90d9" points="436.54,-358 327.54,-358 327.54,-322 436.54,-322 436.54,-358"/>
<text text-anchor="middle" x="382.04" y="-343" font-family="Helvetica" font-size="10.00">YamlValue._sizeOf_3</text>
<text text-anchor="middle" x="382.04" y="-332" font-family="Helvetica" font-size="10.00">(def)</text>
</a>
</g>
</g>
<!-- L4YAML.YamlValue._sizeOf_inst -->
<g id="node2" class="node">
<title>L4YAML.YamlValue._sizeOf_inst</title>
<g id="a_node2"><a xlink:href="../../../api/L4YAML/Spec/Types.html#L4YAML.YamlValue._sizeOf_inst" xlink:title="YamlValue._sizeOf_inst\n(def)" target="_blank">
<polygon fill="#dce9f7" stroke="#4a90d9" points="703.81,-304 584.81,-304 584.81,-268 703.81,-268 703.81,-304"/>
<text text-anchor="middle" x="644.31" y="-289" font-family="Helvetica" font-size="10.00">YamlValue._sizeOf_inst</text>
<text text-anchor="middle" x="644.31" y="-278" font-family="Helvetica" font-size="10.00">(def)</text>
</a>
</g>
</g>
<!-- L4YAML.YamlValue.mapping -->
<g id="node3" class="node">
<title>L4YAML.YamlValue.mapping</title>
<g id="a_node3"><a xlink:href="../../../api/L4YAML/Spec/Types.html#L4YAML.YamlValue.mapping" xlink:title="YamlValue.mapping\n(ctor)" target="_blank">
<polygon fill="#dce9f7" stroke="#4a90d9" points="695.31,-142 593.31,-142 593.31,-106 695.31,-106 695.31,-142"/>
<text text-anchor="middle" x="644.31" y="-127" font-family="Helvetica" font-size="10.00">YamlValue.mapping</text>
<text text-anchor="middle" x="644.31" y="-116" font-family="Helvetica" font-size="10.00">(ctor)</text>
</a>
</g>
</g>
<!-- L4YAML.CollectionStyle -->
<g id="node4" class="node">
<title>L4YAML.CollectionStyle</title>
<g id="a_node4"><a xlink:href="../../../api/L4YAML/Spec/Types.html#L4YAML.CollectionStyle" xlink:title="CollectionStyle\n(inductive)" target="_blank">
<polygon fill="#dce9f7" stroke="#4a90d9" points="685.81,-250 602.81,-250 602.81,-214 685.81,-214 685.81,-250"/>
<text text-anchor="middle" x="644.31" y="-235" font-family="Helvetica" font-size="10.00">CollectionStyle</text>
<text text-anchor="middle" x="644.31" y="-224" font-family="Helvetica" font-size="10.00">(inductive)</text>
</a>
</g>
</g>
<!-- L4YAML.YamlValue -->
<g id="node5" class="node">
<title>L4YAML.YamlValue</title>
<g id="a_node5"><a xlink:href="../../../api/L4YAML/Spec/Types.html#L4YAML.YamlValue" xlink:title="YamlValue\n(inductive)" target="_blank">
<polygon fill="#dce9f7" stroke="#4a90d9" points="675.31,-358 613.31,-358 613.31,-322 675.31,-322 675.31,-358"/>
<text text-anchor="middle" x="644.31" y="-343" font-family="Helvetica" font-size="10.00">YamlValue</text>
<text text-anchor="middle" x="644.31" y="-332" font-family="Helvetica" font-size="10.00">(inductive)</text>
</a>
</g>
</g>
<!-- L4YAML.CollectionStyle._sizeOf_inst -->
<g id="node6" class="node">
<title>L4YAML.CollectionStyle._sizeOf_inst</title>
<g id="a_node6"><a xlink:href="../../../api/L4YAML/Spec/Types.html#L4YAML.CollectionStyle._sizeOf_inst" xlink:title="CollectionStyle._sizeOf_inst\n(def)" target="_blank">
<polygon fill="#dce9f7" stroke="#4a90d9" points="714.31,-196 574.31,-196 574.31,-160 714.31,-160 714.31,-196"/>
<text text-anchor="middle" x="644.31" y="-181" font-family="Helvetica" font-size="10.00">CollectionStyle._sizeOf_inst</text>
<text text-anchor="middle" x="644.31" y="-170" font-family="Helvetica" font-size="10.00">(def)</text>
</a>
</g>
</g>
<!-- L4YAML.YamlValue.mapping.sizeOf_spec -->
<g id="node7" class="node">
<title>L4YAML.YamlValue.mapping.sizeOf_spec</title>
<g id="a_node7"><a xlink:href="../../../api/L4YAML/Spec/Types.html#L4YAML.YamlValue.mapping.sizeOf_spec" xlink:title="YamlValue.mapping.sizeOf_spec" target="_blank">
<polygon fill="#fff3cd" stroke="#d4a017" points="509.08,-30.54 509.08,-45.46 434.66,-56 329.42,-56 255,-45.46 255,-30.54 329.42,-20 434.66,-20 509.08,-30.54"/>
<polygon fill="none" stroke="#d4a017" points="513.07,-27.07 513.07,-48.93 434.94,-60 329.14,-60 251.01,-48.93 251.01,-27.07 329.14,-16 434.94,-16 513.07,-27.07"/>
<text text-anchor="middle" x="382.04" y="-34.9" font-family="Helvetica" font-size="12.00">YamlValue.mapping.sizeOf_spec</text>
</a>
</g>
</g>
<!-- L4YAML.YamlValue.mapping.sizeOf_spec&#45;&gt;L4YAML.YamlValue._sizeOf_inst -->
<g id="edge2" class="edge">
<title>L4YAML.YamlValue.mapping.sizeOf_spec&#45;&gt;L4YAML.YamlValue._sizeOf_inst</title>
<path fill="none" stroke="#4a90d9" stroke-width="2" d="M466.88,-55.61C487.66,-63.92 507.82,-76.11 521.31,-94 533.95,-110.77 522.79,-168.8 531.31,-188 538.07,-203.25 547.41,-201.89 556.31,-216 567.36,-233.52 559.49,-244.52 574.31,-259 576.01,-260.66 577.82,-262.23 579.73,-263.7"/>
<polygon fill="#4a90d9" stroke="#4a90d9" stroke-width="2" points="578.54,-265.85 585.69,-267.83 581.33,-261.83 578.54,-265.85"/>
<text text-anchor="middle" x="543.81" y="-218.6" font-family="Times-Roman" font-size="8.00" fill="#4a90d9">about</text>
</g>
<!-- L4YAML.YamlValue.mapping.sizeOf_spec&#45;&gt;L4YAML.YamlValue.mapping -->
<g id="edge1" class="edge">
<title>L4YAML.YamlValue.mapping.sizeOf_spec&#45;&gt;L4YAML.YamlValue.mapping</title>
<path fill="none" stroke="#4a90d9" stroke-width="2" d="M461.04,-56.39C491.13,-64.2 525.63,-74.04 556.31,-85 570.77,-90.17 586.19,-96.72 599.96,-102.96"/>
<polygon fill="#4a90d9" stroke="#4a90d9" stroke-width="2" points="599.19,-105.31 606.57,-106 601.23,-100.85 599.19,-105.31"/>
<text text-anchor="middle" x="543.81" y="-87.6" font-family="Times-Roman" font-size="8.00" fill="#4a90d9">about</text>
</g>
<!-- L4YAML.YamlValue.mapping.sizeOf_spec&#45;&gt;L4YAML.CollectionStyle -->
<g id="edge3" class="edge">
<title>L4YAML.YamlValue.mapping.sizeOf_spec&#45;&gt;L4YAML.CollectionStyle</title>
<path fill="none" stroke="#4a90d9" stroke-width="2" d="M464.83,-55.95C485.97,-64.27 506.83,-76.39 521.31,-94 536.25,-112.18 521.73,-124.5 531.31,-146 538.79,-162.81 545.51,-164.1 556.31,-179 564.55,-190.38 563.28,-196.28 574.31,-205 580.77,-210.11 588.32,-214.36 596.01,-217.85"/>
<polygon fill="#4a90d9" stroke="#4a90d9" stroke-width="2" points="595.08,-220.11 602.48,-220.6 597,-215.61 595.08,-220.11"/>
<text text-anchor="middle" x="543.81" y="-181.6" font-family="Times-Roman" font-size="8.00" fill="#4a90d9">about</text>
</g>
<!-- L4YAML.YamlValue.mapping.sizeOf_spec&#45;&gt;L4YAML.YamlValue -->
<g id="edge5" class="edge">
<title>L4YAML.YamlValue.mapping.sizeOf_spec&#45;&gt;L4YAML.YamlValue</title>
<path fill="none" stroke="#4a90d9" stroke-width="2" d="M467.62,-55.48C488.28,-63.78 508.18,-76 521.31,-94 539.03,-118.31 522.55,-200.22 531.31,-229 537.85,-250.52 546.12,-252.94 556.31,-273 565.13,-290.38 560.18,-299.56 574.31,-313 583.1,-321.37 594.8,-327.24 606.05,-331.31"/>
<polygon fill="#4a90d9" stroke="#4a90d9" stroke-width="2" points="605.56,-333.73 612.98,-333.62 607.11,-329.08 605.56,-333.73"/>
<text text-anchor="middle" x="543.81" y="-275.6" font-family="Times-Roman" font-size="8.00" fill="#4a90d9">about</text>
</g>
<!-- L4YAML.YamlValue.mapping.sizeOf_spec&#45;&gt;L4YAML.CollectionStyle._sizeOf_inst -->
<g id="edge4" class="edge">
<title>L4YAML.YamlValue.mapping.sizeOf_spec&#45;&gt;L4YAML.CollectionStyle._sizeOf_inst</title>
<path fill="none" stroke="#4a90d9" stroke-width="2" d="M448.98,-58.01C472.93,-66.96 499.45,-78.94 521.31,-94 549.79,-113.63 545.7,-131.54 574.31,-151 577.15,-152.93 580.15,-154.76 583.24,-156.47"/>
<polygon fill="#4a90d9" stroke="#4a90d9" stroke-width="2" points="582.37,-158.78 589.71,-159.85 584.63,-154.44 582.37,-158.78"/>
<text text-anchor="middle" x="543.81" y="-136.6" font-family="Times-Roman" font-size="8.00" fill="#4a90d9">about</text>
</g>
<!-- L4YAML.YamlValue._sizeOf_3_eq -->
<g id="node8" class="node">
<title>L4YAML.YamlValue._sizeOf_3_eq</title>
<g id="a_node8"><a xlink:href="../../../api/L4YAML/Spec/Types.html#L4YAML.YamlValue._sizeOf_3_eq" xlink:title="YamlValue._sizeOf_3_eq\n(Spec.Types)" target="_blank">
<ellipse fill="#d4edda" stroke="#28a745" cx="104.39" cy="-267" rx="88.28" ry="21.43"/>
<text text-anchor="middle" x="104.39" y="-270" font-family="Helvetica" font-size="10.00">YamlValue._sizeOf_3_eq</text>
<text text-anchor="middle" x="104.39" y="-259" font-family="Helvetica" font-size="10.00">(Spec.Types)</text>
</a>
</g>
</g>
<!-- L4YAML.YamlValue._sizeOf_3_eq&#45;&gt;L4YAML.YamlValue._sizeOf_3 -->
<g id="edge8" class="edge">
<title>L4YAML.YamlValue._sizeOf_3_eq&#45;&gt;L4YAML.YamlValue._sizeOf_3</title>
<path fill="none" stroke="#6f42c1" stroke-width="2" stroke-dasharray="5,2" d="M145.71,-285.81C165.05,-294.22 188.75,-303.65 210.78,-310 247.18,-320.5 289.09,-327.94 322.22,-332.79"/>
<polygon fill="#6f42c1" stroke="#6f42c1" stroke-width="2" points="322.26,-334.56 327.46,-333.54 322.76,-331.1 322.26,-334.56"/>
<text text-anchor="middle" x="221.78" y="-316.4" font-family="Times-Roman" font-size="7.00" fill="#6f42c1">about</text>
</g>
<!-- L4YAML.YamlValue._sizeOf_3_eq&#45;&gt;L4YAML.YamlValue._sizeOf_inst -->
<g id="edge7" class="edge">
<title>L4YAML.YamlValue._sizeOf_3_eq&#45;&gt;L4YAML.YamlValue._sizeOf_inst</title>
<path fill="none" stroke="#6f42c1" stroke-width="2" stroke-dasharray="5,2" d="M191.84,-263.33C277.87,-259.87 413.69,-254.93 531.31,-253 542.42,-252.82 545.38,-251 556.31,-253 558.45,-253.39 574.23,-259.31 591.78,-266.03"/>
<polygon fill="#6f42c1" stroke="#6f42c1" stroke-width="2" points="591.47,-267.79 596.76,-267.94 592.72,-264.52 591.47,-267.79"/>
<text text-anchor="middle" x="382.04" y="-263.4" font-family="Times-Roman" font-size="7.00" fill="#6f42c1">about</text>
</g>
<!-- L4YAML.YamlValue._sizeOf_3_eq&#45;&gt;L4YAML.YamlValue -->
<g id="edge9" class="edge">
<title>L4YAML.YamlValue._sizeOf_3_eq&#45;&gt;L4YAML.YamlValue</title>
<path fill="none" stroke="#6f42c1" stroke-width="2" stroke-dasharray="5,2" d="M187.9,-274.14C304.5,-284.28 505.2,-301.98 521.31,-305 551.03,-310.57 583.95,-320.23 608.09,-327.99"/>
<polygon fill="#6f42c1" stroke="#6f42c1" stroke-width="2" points="607.81,-329.74 613.1,-329.61 608.89,-326.41 607.81,-329.74"/>
<text text-anchor="middle" x="382.04" y="-307.4" font-family="Times-Roman" font-size="7.00" fill="#6f42c1">about</text>
</g>
<!-- L4YAML.YamlValue._sizeOf_3_eq&#45;&gt;L4YAML.YamlValue.mapping.sizeOf_spec -->
<g id="edge6" class="edge">
<title>L4YAML.YamlValue._sizeOf_3_eq&#45;&gt;L4YAML.YamlValue.mapping.sizeOf_spec</title>
<path fill="none" stroke="#28a745" d="M117.27,-245.72C138.26,-209.86 185.19,-137.07 242.78,-94 261.57,-79.94 284.39,-68.82 306.02,-60.32"/>
<polygon fill="#28a745" stroke="#28a745" points="307.03,-62.55 312.69,-57.76 305.28,-57.98 307.03,-62.55"/>
</g>
</g>
</svg>
