<?xml version="1.0" encoding="UTF-8" standalone="no"?>
<!DOCTYPE svg PUBLIC "-//W3C//DTD SVG 1.1//EN"
 "http://www.w3.org/Graphics/SVG/1.1/DTD/svg11.dtd">
<!-- Generated by graphviz version 2.44.0 (0)
 -->
<!-- Title: chain_EmitterScannability.emitScalar_toList Pages: 1 -->
<svg width="912pt" height="201pt"
 viewBox="0.00 0.00 912.00 200.92" xmlns="http://www.w3.org/2000/svg" xmlns:xlink="http://www.w3.org/1999/xlink">
<g id="graph0" class="graph" transform="scale(1 1) rotate(0) translate(4 196.92)">
<title>chain_EmitterScannability.emitScalar_toList</title>
<polygon fill="white" stroke="transparent" points="-4,4 -4,-196.92 908,-196.92 908,4 -4,4"/>
<text text-anchor="middle" x="452" y="-178.52" font-family="Helvetica Bold" font-size="13.00">Structural theorem: EmitterScannability.emitScalar_toList\nProof is a witness / injection — no fibration depth\n(heuristic: used by 5 proofs)</text>
<g id="clust1" class="cluster">
<title>cluster_direct</title>
<polygon fill="none" stroke="#4a90d9" stroke-dasharray="5,2" points="295.5,-8 295.5,-82 608.5,-82 608.5,-8 295.5,-8"/>
<text text-anchor="middle" x="452" y="-67.6" font-family="Helvetica Bold" font-size="13.00" fill="#4a90d9">About (no chain extends — proof is structural)</text>
</g>
<!-- L4YAML.Proofs.EmitterScannability.emitScalar_toList -->
<g id="node1" class="node">
<title>L4YAML.Proofs.EmitterScannability.emitScalar_toList</title>
<polygon fill="#fff3cd" stroke="#d4a017" points="585.5,-134.46 585.5,-153.46 505.25,-166.89 391.75,-166.89 311.5,-153.46 311.5,-134.46 391.75,-121.03 505.25,-121.03 585.5,-134.46"/>
<polygon fill="none" stroke="#d4a017" points="589.5,-131.08 589.5,-156.84 505.58,-170.88 391.42,-170.88 307.5,-156.84 307.5,-131.08 391.42,-117.04 505.58,-117.04 589.5,-131.08"/>
<text text-anchor="middle" x="448.5" y="-146.96" font-family="Helvetica" font-size="10.00">EmitterScannability.emitScalar_toList</text>
<text text-anchor="middle" x="448.5" y="-135.96" font-family="Helvetica" font-size="10.00">(structural)</text>
</g>
<!-- L4YAML.Emit.emitScalar -->
<g id="node2" class="node">
<title>L4YAML.Emit.emitScalar</title>
<g id="a_node2"><a xlink:href="../../../api/L4YAML/Output/Emitter.html#L4YAML.Emit.emitScalar" xlink:title="Emit.emitScalar" target="_blank">
<polygon fill="#dce9f7" stroke="#4a90d9" points="437.5,-52 351.5,-52 351.5,-16 437.5,-16 437.5,-52"/>
<text text-anchor="middle" x="394.5" y="-31.5" font-family="Helvetica" font-size="10.00">Emit.emitScalar</text>
</a>
</g>
</g>
<!-- L4YAML.Proofs.EmitterScannability.emitScalar_toList&#45;&gt;L4YAML.Emit.emitScalar -->
<g id="edge1" class="edge">
<title>L4YAML.Proofs.EmitterScannability.emitScalar_toList&#45;&gt;L4YAML.Emit.emitScalar</title>
<path fill="none" stroke="#4a90d9" stroke-width="2" d="M435.43,-116.83C426.56,-99.09 414.92,-75.82 406.32,-58.64"/>
<polygon fill="#4a90d9" stroke="#4a90d9" stroke-width="2" points="408.4,-57.3 403.07,-52.14 404.01,-59.5 408.4,-57.3"/>
<text text-anchor="middle" x="438" y="-92.6" font-family="Times-Roman" font-size="8.00" fill="#4a90d9">about</text>
</g>
<!-- L4YAML.Emit.escapeString -->
<g id="node3" class="node">
<title>L4YAML.Emit.escapeString</title>
<g id="a_node3"><a xlink:href="../../../api/L4YAML/Output/Emitter.html#L4YAML.Emit.escapeString" xlink:title="Emit.escapeString" target="_blank">
<polygon fill="#dce9f7" stroke="#4a90d9" points="551.5,-52 455.5,-52 455.5,-16 551.5,-16 551.5,-52"/>
<text text-anchor="middle" x="503.5" y="-31.5" font-family="Helvetica" font-size="10.00">Emit.escapeString</text>
</a>
</g>
</g>
<!-- L4YAML.Proofs.EmitterScannability.emitScalar_toList&#45;&gt;L4YAML.Emit.escapeString -->
<g id="edge2" class="edge">
<title>L4YAML.Proofs.EmitterScannability.emitScalar_toList&#45;&gt;L4YAML.Emit.escapeString</title>
<path fill="none" stroke="#4a90d9" stroke-width="2" d="M461.81,-116.83C470.85,-99.09 482.7,-75.82 491.46,-58.64"/>
<polygon fill="#4a90d9" stroke="#4a90d9" stroke-width="2" points="493.77,-59.49 494.77,-52.14 489.41,-57.27 493.77,-59.49"/>
<text text-anchor="middle" x="486" y="-92.6" font-family="Times-Roman" font-size="8.00" fill="#4a90d9">about</text>
</g>
</g>
</svg>
