<?xml version="1.0" encoding="UTF-8" standalone="no"?>
<!DOCTYPE svg PUBLIC "-//W3C//DTD SVG 1.1//EN"
 "http://www.w3.org/Graphics/SVG/1.1/DTD/svg11.dtd">
<!-- Generated by graphviz version 2.44.0 (0)
 -->
<!-- Title: EmitterScannability.filtered_grows_of_any_new Pages: 1 -->
<svg width="857pt" height="1508pt"
 viewBox="0.00 0.00 856.76 1508.00" xmlns="http://www.w3.org/2000/svg" xmlns:xlink="http://www.w3.org/1999/xlink">
<g id="graph0" class="graph" transform="scale(1 1) rotate(0) translate(4 1504)">
<title>EmitterScannability.filtered_grows_of_any_new</title>
<polygon fill="white" stroke="transparent" points="-4,4 -4,-1504 852.76,-1504 852.76,4 -4,4"/>
<text text-anchor="middle" x="424.38" y="-1485.6" font-family="Helvetica Bold" font-size="13.00">EmitterScannability.filtered_grows_of_any_new</text>
<text text-anchor="middle" x="424.38" y="-1471.6" font-family="Helvetica Bold" font-size="13.00">(heuristic: used by 5 proofs)</text>
<text text-anchor="middle" x="424.38" y="-1457.6" font-family="Helvetica Bold" font-size="13.00">(L4YAML.Proofs.Output.EmitterScannability)</text>
<g id="clust2" class="cluster">
<title>cluster_key</title>
<polygon fill="none" stroke="#d4a017" stroke-dasharray="5,2" points="456.95,-652 456.95,-734 840.76,-734 840.76,-652 456.95,-652"/>
<text text-anchor="middle" x="648.85" y="-719.6" font-family="Helvetica Bold" font-size="13.00" fill="#d4a017">Key Theorem</text>
</g>
<g id="clust3" class="cluster">
<title>cluster_proofs</title>
<polygon fill="none" stroke="#28a745" stroke-dasharray="5,2" points="8,-1062 8,-1442 436.95,-1442 436.95,-1062 8,-1062"/>
<text text-anchor="middle" x="222.48" y="-1427.6" font-family="Helvetica Bold" font-size="13.00" fill="#28a745">Proof Dependencies</text>
</g>
<g id="clust4" class="cluster">
<title>cluster_stdlib</title>
<polygon fill="none" stroke="#e67e22" stroke-dasharray="5,2" points="135.01,-8 135.01,-1054 309.94,-1054 309.94,-8 135.01,-8"/>
<text text-anchor="middle" x="222.48" y="-1039.6" font-family="Helvetica Bold" font-size="13.00" fill="#e67e22">Stdlib Lemmas</text>
</g>
<!-- L4YAML.Proofs.EmitterScannability.filtered_grows_of_any_new -->
<g id="node1" class="node">
<title>L4YAML.Proofs.EmitterScannability.filtered_grows_of_any_new</title>
<g id="a_node1"><a xlink:href="../../../api/L4YAML/Proofs/Output/EmitterScannability.html#L4YAML.Proofs.EmitterScannability.filtered_grows_of_any_new" xlink:title="EmitterScannability.filtered_grows_of_any_new" target="_blank">
<polygon fill="#fff3cd" stroke="#d4a017" points="828.66,-674.54 828.66,-689.46 723.33,-700 574.37,-700 469.05,-689.46 469.05,-674.54 574.37,-664 723.33,-664 828.66,-674.54"/>
<polygon fill="none" stroke="#d4a017" points="832.66,-670.92 832.66,-693.08 723.53,-704 574.17,-704 465.05,-693.08 465.05,-670.92 574.17,-660 723.53,-660 832.66,-670.92"/>
<text text-anchor="middle" x="648.85" y="-678.9" font-family="Helvetica" font-size="12.00">EmitterScannability.filtered_grows_of_any_new</text>
</a>
</g>
</g>
<!-- L4YAML.Proofs.EmitterScannability.filtered_grows_of_any_new._proof_1_1 -->
<g id="node2" class="node">
<title>L4YAML.Proofs.EmitterScannability.filtered_grows_of_any_new._proof_1_1</title>
<g id="a_node2"><a xlink:href="../../../api/L4YAML/Proofs/Output/EmitterScannability.html#L4YAML.Proofs.EmitterScannability.filtered_grows_of_any_new._proof_1_1" xlink:title="EmitterScannability.filtered_grows_of_any_new._proof_1_1\n(Output.EmitterScannability)" target="_blank">
<ellipse fill="#d4edda" stroke="#28a745" cx="222.48" cy="-1391" rx="192.17" ry="21.43"/>
<text text-anchor="middle" x="222.48" y="-1394" font-family="Helvetica" font-size="10.00">EmitterScannability.filtered_grows_of_any_new._proof_1_1</text>
<text text-anchor="middle" x="222.48" y="-1383" font-family="Helvetica" font-size="10.00">(Output.EmitterScannability)</text>
</a>
</g>
</g>
<!-- L4YAML.Proofs.EmitterScannability.filtered_grows_of_any_new._proof_1_1&#45;&gt;L4YAML.Proofs.EmitterScannability.filtered_grows_of_any_new -->
<g id="edge4" class="edge">
<title>L4YAML.Proofs.EmitterScannability.filtered_grows_of_any_new._proof_1_1&#45;&gt;L4YAML.Proofs.EmitterScannability.filtered_grows_of_any_new</title>
<path fill="none" stroke="#28a745" d="M400.41,-1382.94C413.63,-1377.44 426.04,-1370.27 436.95,-1361 541.04,-1272.5 622.81,-829.35 643.03,-711.06"/>
<polygon fill="#28a745" stroke="#28a745" points="645.46,-711.38 644.22,-704.07 640.63,-710.56 645.46,-711.38"/>
</g>
<!-- L4YAML.Proofs.EmitterScannability.filtered_grows_of_any_new._proof_1_2 -->
<g id="node3" class="node">
<title>L4YAML.Proofs.EmitterScannability.filtered_grows_of_any_new._proof_1_2</title>
<g id="a_node3"><a xlink:href="../../../api/L4YAML/Proofs/Output/EmitterScannability.html#L4YAML.Proofs.EmitterScannability.filtered_grows_of_any_new._proof_1_2" xlink:title="EmitterScannability.filtered_grows_of_any_new._proof_1_2\n(Output.EmitterScannability)" target="_blank">
<ellipse fill="#d4edda" stroke="#28a745" cx="222.48" cy="-1331" rx="192.17" ry="21.43"/>
<text text-anchor="middle" x="222.48" y="-1334" font-family="Helvetica" font-size="10.00">EmitterScannability.filtered_grows_of_any_new._proof_1_2</text>
<text text-anchor="middle" x="222.48" y="-1323" font-family="Helvetica" font-size="10.00">(Output.EmitterScannability)</text>
</a>
</g>
</g>
<!-- L4YAML.Proofs.EmitterScannability.filtered_grows_of_any_new._proof_1_2&#45;&gt;L4YAML.Proofs.EmitterScannability.filtered_grows_of_any_new -->
<g id="edge6" class="edge">
<title>L4YAML.Proofs.EmitterScannability.filtered_grows_of_any_new._proof_1_2&#45;&gt;L4YAML.Proofs.EmitterScannability.filtered_grows_of_any_new</title>
<path fill="none" stroke="#28a745" d="M399.87,-1322.72C413.25,-1317.28 425.85,-1310.18 436.95,-1301 625.79,-1144.82 646.12,-811.95 647.85,-711.38"/>
<polygon fill="#28a745" stroke="#28a745" points="650.3,-711.3 647.95,-704.27 645.4,-711.24 650.3,-711.3"/>
</g>
<!-- L4YAML.Proofs.EmitterScannability.filtered_grows_of_any_new._proof_1_3 -->
<g id="node4" class="node">
<title>L4YAML.Proofs.EmitterScannability.filtered_grows_of_any_new._proof_1_3</title>
<g id="a_node4"><a xlink:href="../../../api/L4YAML/Proofs/Output/EmitterScannability.html#L4YAML.Proofs.EmitterScannability.filtered_grows_of_any_new._proof_1_3" xlink:title="EmitterScannability.filtered_grows_of_any_new._proof_1_3\n(Output.EmitterScannability)" target="_blank">
<ellipse fill="#d4edda" stroke="#28a745" cx="222.48" cy="-1271" rx="192.17" ry="21.43"/>
<text text-anchor="middle" x="222.48" y="-1274" font-family="Helvetica" font-size="10.00">EmitterScannability.filtered_grows_of_any_new._proof_1_3</text>
<text text-anchor="middle" x="222.48" y="-1263" font-family="Helvetica" font-size="10.00">(Output.EmitterScannability)</text>
</a>
</g>
</g>
<!-- L4YAML.Proofs.EmitterScannability.filtered_grows_of_any_new._proof_1_3&#45;&gt;L4YAML.Proofs.EmitterScannability.filtered_grows_of_any_new -->
<g id="edge5" class="edge">
<title>L4YAML.Proofs.EmitterScannability.filtered_grows_of_any_new._proof_1_3&#45;&gt;L4YAML.Proofs.EmitterScannability.filtered_grows_of_any_new</title>
<path fill="none" stroke="#28a745" d="M399.03,-1262.53C412.67,-1257.16 425.55,-1250.12 436.95,-1241 610.04,-1102.51 641.12,-805.67 646.66,-711.38"/>
<polygon fill="#28a745" stroke="#28a745" points="649.12,-711.3 647.06,-704.18 644.22,-711.03 649.12,-711.3"/>
</g>
<!-- L4YAML.Proofs.EmitterScannability.filtered_grows_of_any_new._proof_1_4 -->
<g id="node5" class="node">
<title>L4YAML.Proofs.EmitterScannability.filtered_grows_of_any_new._proof_1_4</title>
<g id="a_node5"><a xlink:href="../../../api/L4YAML/Proofs/Output/EmitterScannability.html#L4YAML.Proofs.EmitterScannability.filtered_grows_of_any_new._proof_1_4" xlink:title="EmitterScannability.filtered_grows_of_any_new._proof_1_4\n(Output.EmitterScannability)" target="_blank">
<ellipse fill="#d4edda" stroke="#28a745" cx="222.48" cy="-1211" rx="192.17" ry="21.43"/>
<text text-anchor="middle" x="222.48" y="-1214" font-family="Helvetica" font-size="10.00">EmitterScannability.filtered_grows_of_any_new._proof_1_4</text>
<text text-anchor="middle" x="222.48" y="-1203" font-family="Helvetica" font-size="10.00">(Output.EmitterScannability)</text>
</a>
</g>
</g>
<!-- L4YAML.Proofs.EmitterScannability.filtered_grows_of_any_new._proof_1_4&#45;&gt;L4YAML.Proofs.EmitterScannability.filtered_grows_of_any_new -->
<g id="edge2" class="edge">
<title>L4YAML.Proofs.EmitterScannability.filtered_grows_of_any_new._proof_1_4&#45;&gt;L4YAML.Proofs.EmitterScannability.filtered_grows_of_any_new</title>
<path fill="none" stroke="#28a745" d="M398.12,-1202.25C412.04,-1196.95 425.23,-1190.01 436.95,-1181 594.55,-1059.88 635.67,-798.66 645.23,-711.2"/>
<polygon fill="#28a745" stroke="#28a745" points="647.69,-711.22 645.98,-704.01 642.81,-710.71 647.69,-711.22"/>
</g>
<!-- L4YAML.Proofs.EmitterScannability.filtered_grows_of_any_new._proof_1_5 -->
<g id="node6" class="node">
<title>L4YAML.Proofs.EmitterScannability.filtered_grows_of_any_new._proof_1_5</title>
<g id="a_node6"><a xlink:href="../../../api/L4YAML/Proofs/Output/EmitterScannability.html#L4YAML.Proofs.EmitterScannability.filtered_grows_of_any_new._proof_1_5" xlink:title="EmitterScannability.filtered_grows_of_any_new._proof_1_5\n(Output.EmitterScannability)" target="_blank">
<ellipse fill="#d4edda" stroke="#28a745" cx="222.48" cy="-1151" rx="192.17" ry="21.43"/>
<text text-anchor="middle" x="222.48" y="-1154" font-family="Helvetica" font-size="10.00">EmitterScannability.filtered_grows_of_any_new._proof_1_5</text>
<text text-anchor="middle" x="222.48" y="-1143" font-family="Helvetica" font-size="10.00">(Output.EmitterScannability)</text>
</a>
</g>
</g>
<!-- L4YAML.Proofs.EmitterScannability.filtered_grows_of_any_new._proof_1_5&#45;&gt;L4YAML.Proofs.EmitterScannability.filtered_grows_of_any_new -->
<g id="edge1" class="edge">
<title>L4YAML.Proofs.EmitterScannability.filtered_grows_of_any_new._proof_1_5&#45;&gt;L4YAML.Proofs.EmitterScannability.filtered_grows_of_any_new</title>
<path fill="none" stroke="#28a745" d="M396.87,-1141.94C411.18,-1136.73 424.79,-1129.89 436.95,-1121 578.95,-1017.18 629.44,-792.18 643.37,-711.52"/>
<polygon fill="#28a745" stroke="#28a745" points="645.86,-711.48 644.61,-704.17 641.03,-710.67 645.86,-711.48"/>
</g>
<!-- L4YAML.Proofs.EmitterScannability.filtered_grows_of_extended_prefix._proof_1 -->
<g id="node7" class="node">
<title>L4YAML.Proofs.EmitterScannability.filtered_grows_of_extended_prefix._proof_1</title>
<g id="a_node7"><a xlink:href="../../../api/L4YAML/Proofs/Output/EmitterScannability.html#L4YAML.Proofs.EmitterScannability.filtered_grows_of_extended_prefix._proof_1" xlink:title="EmitterScannability.filtered_grows_of_extended_prefix._proof_1\n(Output.EmitterScannability)" target="_blank">
<ellipse fill="#d4edda" stroke="#28a745" cx="222.48" cy="-1091" rx="206.45" ry="21.43"/>
<text text-anchor="middle" x="222.48" y="-1094" font-family="Helvetica" font-size="10.00">EmitterScannability.filtered_grows_of_extended_prefix._proof_1</text>
<text text-anchor="middle" x="222.48" y="-1083" font-family="Helvetica" font-size="10.00">(Output.EmitterScannability)</text>
</a>
</g>
</g>
<!-- L4YAML.Proofs.EmitterScannability.filtered_grows_of_extended_prefix._proof_1&#45;&gt;L4YAML.Proofs.EmitterScannability.filtered_grows_of_any_new -->
<g id="edge3" class="edge">
<title>L4YAML.Proofs.EmitterScannability.filtered_grows_of_extended_prefix._proof_1&#45;&gt;L4YAML.Proofs.EmitterScannability.filtered_grows_of_any_new</title>
<path fill="none" stroke="#28a745" d="M394.47,-1079.19C409.57,-1073.9 424.01,-1066.98 436.95,-1058 562.4,-970.97 621.84,-783.89 640.81,-711.47"/>
<polygon fill="#28a745" stroke="#28a745" points="643.25,-711.82 642.62,-704.43 638.51,-710.59 643.25,-711.82"/>
</g>
<!-- List.getElem_drop._proof_1 -->
<g id="node8" class="node">
<title>List.getElem_drop._proof_1</title>
<g id="a_node8"><a xlink:href="../../../api/Init/Data/List/Nat/TakeDrop.html#List.getElem_drop._proof_1" xlink:title="List.getElem_drop._proof_1" target="_blank">
<ellipse fill="#fdebd0" stroke="#e67e22" cx="222.48" cy="-1006" rx="79.44" ry="18"/>
<text text-anchor="middle" x="222.48" y="-1003.5" font-family="Helvetica" font-size="10.00">List.getElem_drop._proof_1</text>
</a>
</g>
</g>
<!-- List.getElem_drop._proof_1&#45;&gt;L4YAML.Proofs.EmitterScannability.filtered_grows_of_any_new -->
<g id="edge7" class="edge">
<title>List.getElem_drop._proof_1&#45;&gt;L4YAML.Proofs.EmitterScannability.filtered_grows_of_any_new</title>
<path fill="none" stroke="#e67e22" stroke-width="2" d="M298.94,-1010.93C342.14,-1010.37 395.77,-1003.66 436.95,-979 544.31,-914.71 611.71,-772.36 636.78,-711.04"/>
<polygon fill="#e67e22" stroke="#e67e22" stroke-width="2" points="639.14,-711.73 639.49,-704.32 634.6,-709.89 639.14,-711.73"/>
</g>
<!-- List.ext_getElem -->
<g id="node9" class="node">
<title>List.ext_getElem</title>
<g id="a_node9"><a xlink:href="../../../api/Init/Data/List/Lemmas.html#List.ext_getElem" xlink:title="List.ext_getElem" target="_blank">
<ellipse fill="#fdebd0" stroke="#e67e22" cx="222.48" cy="-952" rx="52.28" ry="18"/>
<text text-anchor="middle" x="222.48" y="-949.5" font-family="Helvetica" font-size="10.00">List.ext_getElem</text>
</a>
</g>
</g>
<!-- List.ext_getElem&#45;&gt;L4YAML.Proofs.EmitterScannability.filtered_grows_of_any_new -->
<g id="edge8" class="edge">
<title>List.ext_getElem&#45;&gt;L4YAML.Proofs.EmitterScannability.filtered_grows_of_any_new</title>
<path fill="none" stroke="#e67e22" stroke-width="2" d="M273.98,-955.47C319.27,-956.38 386.21,-952.12 436.95,-925 531.44,-874.49 602.73,-763.27 632.54,-710.66"/>
<polygon fill="#e67e22" stroke="#e67e22" stroke-width="2" points="634.85,-711.54 636.14,-704.24 630.58,-709.15 634.85,-711.54"/>
</g>
<!-- List.length_drop -->
<g id="node10" class="node">
<title>List.length_drop</title>
<g id="a_node10"><a xlink:href="../../../api/Init/Data/List/TakeDrop.html#List.length_drop" xlink:title="List.length_drop" target="_blank">
<ellipse fill="#fdebd0" stroke="#e67e22" cx="222.48" cy="-898" rx="50.07" ry="18"/>
<text text-anchor="middle" x="222.48" y="-895.5" font-family="Helvetica" font-size="10.00">List.length_drop</text>
</a>
</g>
</g>
<!-- List.length_drop&#45;&gt;L4YAML.Proofs.EmitterScannability.filtered_grows_of_any_new -->
<g id="edge9" class="edge">
<title>List.length_drop&#45;&gt;L4YAML.Proofs.EmitterScannability.filtered_grows_of_any_new</title>
<path fill="none" stroke="#e67e22" stroke-width="2" d="M272.34,-899.94C317.13,-899.87 384.28,-895.05 436.95,-871 519.14,-833.48 592,-752.45 626.58,-709.7"/>
<polygon fill="#e67e22" stroke="#e67e22" stroke-width="2" points="628.53,-711.18 631,-704.18 624.71,-708.11 628.53,-711.18"/>
</g>
<!-- List.take_append_drop -->
<g id="node11" class="node">
<title>List.take_append_drop</title>
<g id="a_node11"><a xlink:href="../../../api/Init/Data/List/TakeDrop.html#List.take_append_drop" xlink:title="List.take_append_drop" target="_blank">
<ellipse fill="#fdebd0" stroke="#e67e22" cx="222.48" cy="-844" rx="66.54" ry="18"/>
<text text-anchor="middle" x="222.48" y="-841.5" font-family="Helvetica" font-size="10.00">List.take_append_drop</text>
</a>
</g>
</g>
<!-- List.take_append_drop&#45;&gt;L4YAML.Proofs.EmitterScannability.filtered_grows_of_any_new -->
<g id="edge10" class="edge">
<title>List.take_append_drop&#45;&gt;L4YAML.Proofs.EmitterScannability.filtered_grows_of_any_new</title>
<path fill="none" stroke="#e67e22" stroke-width="2" d="M289.21,-843.15C332.34,-840.8 389.36,-834.24 436.95,-817 506.68,-791.73 577.14,-740.19 616.39,-708.61"/>
<polygon fill="#e67e22" stroke="#e67e22" stroke-width="2" points="618.05,-710.41 621.95,-704.1 614.97,-706.6 618.05,-710.41"/>
</g>
<!-- List.length_append -->
<g id="node12" class="node">
<title>List.length_append</title>
<g id="a_node12"><a xlink:href="../../../api/Init/Data/List/Basic.html#List.length_append" xlink:title="List.length_append" target="_blank">
<ellipse fill="#fdebd0" stroke="#e67e22" cx="222.48" cy="-790" rx="57.88" ry="18"/>
<text text-anchor="middle" x="222.48" y="-787.5" font-family="Helvetica" font-size="10.00">List.length_append</text>
</a>
</g>
</g>
<!-- List.length_append&#45;&gt;L4YAML.Proofs.EmitterScannability.filtered_grows_of_any_new -->
<g id="edge11" class="edge">
<title>List.length_append&#45;&gt;L4YAML.Proofs.EmitterScannability.filtered_grows_of_any_new</title>
<path fill="none" stroke="#e67e22" stroke-width="2" d="M279.44,-786.62C322.91,-783.11 384.42,-776.2 436.95,-763 491.83,-749.2 551.84,-725.23 593.77,-706.93"/>
<polygon fill="#e67e22" stroke="#e67e22" stroke-width="2" points="594.92,-709.11 600.34,-704.05 592.95,-704.62 594.92,-709.11"/>
</g>
<!-- List.not_mem_nil._simp_1 -->
<g id="node13" class="node">
<title>List.not_mem_nil._simp_1</title>
<g id="a_node13"><a xlink:href="../../../api/Init/Data/List/Lemmas.html#List.not_mem_nil._simp_1" xlink:title="List.not_mem_nil._simp_1" target="_blank">
<ellipse fill="#fdebd0" stroke="#e67e22" cx="222.48" cy="-736" rx="76.55" ry="18"/>
<text text-anchor="middle" x="222.48" y="-733.5" font-family="Helvetica" font-size="10.00">List.not_mem_nil._simp_1</text>
</a>
</g>
</g>
<!-- List.not_mem_nil._simp_1&#45;&gt;L4YAML.Proofs.EmitterScannability.filtered_grows_of_any_new -->
<g id="edge12" class="edge">
<title>List.not_mem_nil._simp_1&#45;&gt;L4YAML.Proofs.EmitterScannability.filtered_grows_of_any_new</title>
<path fill="none" stroke="#e67e22" stroke-width="2" d="M290.3,-727.57C332.39,-722.26 387.85,-715.25 436.95,-709 461.22,-705.91 487.05,-702.61 512.02,-699.42"/>
<polygon fill="#e67e22" stroke="#e67e22" stroke-width="2" points="512.4,-701.84 519.04,-698.52 511.78,-696.98 512.4,-701.84"/>
</g>
<!-- Nat.le_add_left._simp_1 -->
<g id="node14" class="node">
<title>Nat.le_add_left._simp_1</title>
<g id="a_node14"><a xlink:href="../../../api/Init/Data/Nat/Basic.html#Nat.le_add_left._simp_1" xlink:title="Nat.le_add_left._simp_1" target="_blank">
<ellipse fill="#fdebd0" stroke="#e67e22" cx="222.48" cy="-682" rx="71.46" ry="18"/>
<text text-anchor="middle" x="222.48" y="-679.5" font-family="Helvetica" font-size="10.00">Nat.le_add_left._simp_1</text>
</a>
</g>
</g>
<!-- Nat.le_add_left._simp_1&#45;&gt;L4YAML.Proofs.EmitterScannability.filtered_grows_of_any_new -->
<g id="edge13" class="edge">
<title>Nat.le_add_left._simp_1&#45;&gt;L4YAML.Proofs.EmitterScannability.filtered_grows_of_any_new</title>
<path fill="none" stroke="#e67e22" stroke-width="2" d="M294.03,-682C338.99,-682 399.55,-682 457.86,-682"/>
<polygon fill="#e67e22" stroke="#e67e22" stroke-width="2" points="457.96,-684.45 464.96,-682 457.96,-679.55 457.96,-684.45"/>
</g>
<!-- List.length_take -->
<g id="node15" class="node">
<title>List.length_take</title>
<g id="a_node15"><a xlink:href="../../../api/Init/Data/List/Nat/TakeDrop.html#List.length_take" xlink:title="List.length_take" target="_blank">
<ellipse fill="#fdebd0" stroke="#e67e22" cx="222.48" cy="-628" rx="49.4" ry="18"/>
<text text-anchor="middle" x="222.48" y="-625.5" font-family="Helvetica" font-size="10.00">List.length_take</text>
</a>
</g>
</g>
<!-- List.length_take&#45;&gt;L4YAML.Proofs.EmitterScannability.filtered_grows_of_any_new -->
<g id="edge14" class="edge">
<title>List.length_take&#45;&gt;L4YAML.Proofs.EmitterScannability.filtered_grows_of_any_new</title>
<path fill="none" stroke="#e67e22" stroke-width="2" d="M269.7,-633.83C312.94,-639.28 379.33,-647.67 436.95,-655 461.22,-658.09 487.05,-661.39 512.02,-664.58"/>
<polygon fill="#e67e22" stroke="#e67e22" stroke-width="2" points="511.78,-667.02 519.04,-665.48 512.4,-662.16 511.78,-667.02"/>
</g>
<!-- List.getElem_take -->
<g id="node16" class="node">
<title>List.getElem_take</title>
<g id="a_node16"><a xlink:href="../../../api/Init/Data/List/Nat/TakeDrop.html#List.getElem_take" xlink:title="List.getElem_take" target="_blank">
<ellipse fill="#fdebd0" stroke="#e67e22" cx="222.48" cy="-574" rx="55.17" ry="18"/>
<text text-anchor="middle" x="222.48" y="-571.5" font-family="Helvetica" font-size="10.00">List.getElem_take</text>
</a>
</g>
</g>
<!-- List.getElem_take&#45;&gt;L4YAML.Proofs.EmitterScannability.filtered_grows_of_any_new -->
<g id="edge15" class="edge">
<title>List.getElem_take&#45;&gt;L4YAML.Proofs.EmitterScannability.filtered_grows_of_any_new</title>
<path fill="none" stroke="#e67e22" stroke-width="2" d="M277.21,-577.2C320.78,-580.65 383.51,-587.57 436.95,-601 491.83,-614.8 551.84,-638.77 593.77,-657.07"/>
<polygon fill="#e67e22" stroke="#e67e22" stroke-width="2" points="592.95,-659.38 600.34,-659.95 594.92,-654.89 592.95,-659.38"/>
</g>
<!-- List.getElem_drop -->
<g id="node17" class="node">
<title>List.getElem_drop</title>
<g id="a_node17"><a xlink:href="../../../api/Init/Data/List/Nat/TakeDrop.html#List.getElem_drop" xlink:title="List.getElem_drop" target="_blank">
<ellipse fill="#fdebd0" stroke="#e67e22" cx="222.48" cy="-520" rx="55.85" ry="18"/>
<text text-anchor="middle" x="222.48" y="-517.5" font-family="Helvetica" font-size="10.00">List.getElem_drop</text>
</a>
</g>
</g>
<!-- List.getElem_drop&#45;&gt;L4YAML.Proofs.EmitterScannability.filtered_grows_of_any_new -->
<g id="edge16" class="edge">
<title>List.getElem_drop&#45;&gt;L4YAML.Proofs.EmitterScannability.filtered_grows_of_any_new</title>
<path fill="none" stroke="#e67e22" stroke-width="2" d="M278.54,-520.34C322.6,-522.17 385.32,-528.29 436.95,-547 506.68,-572.27 577.14,-623.81 616.39,-655.39"/>
<polygon fill="#e67e22" stroke="#e67e22" stroke-width="2" points="614.97,-657.4 621.95,-659.9 618.05,-653.59 614.97,-657.4"/>
</g>
<!-- ge_iff_le._simp_1 -->
<g id="node18" class="node">
<title>ge_iff_le._simp_1</title>
<g id="a_node18"><a xlink:href="../../../api/Init/Core.html#ge_iff_le._simp_1" xlink:title="ge_iff_le._simp_1" target="_blank">
<ellipse fill="#fdebd0" stroke="#e67e22" cx="222.48" cy="-466" rx="54.31" ry="18"/>
<text text-anchor="middle" x="222.48" y="-463.5" font-family="Helvetica" font-size="10.00">ge_iff_le._simp_1</text>
</a>
</g>
</g>
<!-- ge_iff_le._simp_1&#45;&gt;L4YAML.Proofs.EmitterScannability.filtered_grows_of_any_new -->
<g id="edge17" class="edge">
<title>ge_iff_le._simp_1&#45;&gt;L4YAML.Proofs.EmitterScannability.filtered_grows_of_any_new</title>
<path fill="none" stroke="#e67e22" stroke-width="2" d="M276.75,-464.08C321.45,-464.46 385.98,-469.73 436.95,-493 519.14,-530.52 592,-611.55 626.58,-654.3"/>
<polygon fill="#e67e22" stroke="#e67e22" stroke-width="2" points="624.71,-655.89 631,-659.82 628.53,-652.82 624.71,-655.89"/>
</g>
<!-- List.getElem_mem -->
<g id="node19" class="node">
<title>List.getElem_mem</title>
<g id="a_node19"><a xlink:href="../../../api/Init/GetElem.html#List.getElem_mem" xlink:title="List.getElem_mem" target="_blank">
<ellipse fill="#fdebd0" stroke="#e67e22" cx="222.48" cy="-412" rx="57.88" ry="18"/>
<text text-anchor="middle" x="222.48" y="-409.5" font-family="Helvetica" font-size="10.00">List.getElem_mem</text>
</a>
</g>
</g>
<!-- List.getElem_mem&#45;&gt;L4YAML.Proofs.EmitterScannability.filtered_grows_of_any_new -->
<g id="edge18" class="edge">
<title>List.getElem_mem&#45;&gt;L4YAML.Proofs.EmitterScannability.filtered_grows_of_any_new</title>
<path fill="none" stroke="#e67e22" stroke-width="2" d="M279.37,-408.45C324.46,-407.98 388.19,-412.94 436.95,-439 531.44,-489.51 602.73,-600.73 632.54,-653.34"/>
<polygon fill="#e67e22" stroke="#e67e22" stroke-width="2" points="630.58,-654.85 636.14,-659.76 634.85,-652.46 630.58,-654.85"/>
</g>
<!-- List.mem_filter -->
<g id="node20" class="node">
<title>List.mem_filter</title>
<g id="a_node20"><a xlink:href="../../../api/Init/Data/List/Lemmas.html#List.mem_filter" xlink:title="List.mem_filter" target="_blank">
<ellipse fill="#fdebd0" stroke="#e67e22" cx="222.48" cy="-358" rx="47.19" ry="18"/>
<text text-anchor="middle" x="222.48" y="-355.5" font-family="Helvetica" font-size="10.00">List.mem_filter</text>
</a>
</g>
</g>
<!-- List.mem_filter&#45;&gt;L4YAML.Proofs.EmitterScannability.filtered_grows_of_any_new -->
<g id="edge19" class="edge">
<title>List.mem_filter&#45;&gt;L4YAML.Proofs.EmitterScannability.filtered_grows_of_any_new</title>
<path fill="none" stroke="#e67e22" stroke-width="2" d="M268.53,-353.63C314.22,-351.39 385.35,-354.1 436.95,-385 544.31,-449.29 611.71,-591.64 636.78,-652.96"/>
<polygon fill="#e67e22" stroke="#e67e22" stroke-width="2" points="634.6,-654.11 639.49,-659.68 639.14,-652.27 634.6,-654.11"/>
</g>
<!-- List.filter_append -->
<g id="node21" class="node">
<title>List.filter_append</title>
<g id="a_node21"><a xlink:href="../../../api/Init/Data/List/Lemmas.html#List.filter_append" xlink:title="List.filter_append" target="_blank">
<ellipse fill="#fdebd0" stroke="#e67e22" cx="222.48" cy="-304" rx="52.96" ry="18"/>
<text text-anchor="middle" x="222.48" y="-301.5" font-family="Helvetica" font-size="10.00">List.filter_append</text>
</a>
</g>
</g>
<!-- List.filter_append&#45;&gt;L4YAML.Proofs.EmitterScannability.filtered_grows_of_any_new -->
<g id="edge20" class="edge">
<title>List.filter_append&#45;&gt;L4YAML.Proofs.EmitterScannability.filtered_grows_of_any_new</title>
<path fill="none" stroke="#e67e22" stroke-width="2" d="M273.4,-298.57C319.54,-296.11 388.13,-299.17 436.95,-331 557.61,-409.67 619.39,-583.69 639.91,-652.84"/>
<polygon fill="#e67e22" stroke="#e67e22" stroke-width="2" points="637.67,-653.94 641.99,-659.97 642.38,-652.57 637.67,-653.94"/>
</g>
<!-- Decidable.byContradiction -->
<g id="node22" class="node">
<title>Decidable.byContradiction</title>
<g id="a_node22"><a xlink:href="../../../api/Init/Core.html#Decidable.byContradiction" xlink:title="Decidable.byContradiction" target="_blank">
<ellipse fill="#fdebd0" stroke="#e67e22" cx="222.48" cy="-250" rx="77.23" ry="18"/>
<text text-anchor="middle" x="222.48" y="-247.5" font-family="Helvetica" font-size="10.00">Decidable.byContradiction</text>
</a>
</g>
</g>
<!-- Decidable.byContradiction&#45;&gt;L4YAML.Proofs.EmitterScannability.filtered_grows_of_any_new -->
<g id="edge21" class="edge">
<title>Decidable.byContradiction&#45;&gt;L4YAML.Proofs.EmitterScannability.filtered_grows_of_any_new</title>
<path fill="none" stroke="#e67e22" stroke-width="2" d="M293.73,-243.08C338.46,-242.25 395.56,-248.18 436.95,-277 571.19,-370.47 626.05,-576.38 642.28,-652.75"/>
<polygon fill="#e67e22" stroke="#e67e22" stroke-width="2" points="639.91,-653.37 643.73,-659.73 644.7,-652.37 639.91,-653.37"/>
</g>
<!-- of_eq_true -->
<g id="node23" class="node">
<title>of_eq_true</title>
<g id="a_node23"><a xlink:href="../../../api/Init/SimpLemmas.html#of_eq_true" xlink:title="of_eq_true" target="_blank">
<ellipse fill="#fdebd0" stroke="#e67e22" cx="222.48" cy="-196" rx="36.49" ry="18"/>
<text text-anchor="middle" x="222.48" y="-193.5" font-family="Helvetica" font-size="10.00">of_eq_true</text>
</a>
</g>
</g>
<!-- of_eq_true&#45;&gt;L4YAML.Proofs.EmitterScannability.filtered_grows_of_any_new -->
<g id="edge22" class="edge">
<title>of_eq_true&#45;&gt;L4YAML.Proofs.EmitterScannability.filtered_grows_of_any_new</title>
<path fill="none" stroke="#e67e22" stroke-width="2" d="M257.84,-190.83C303.38,-185.92 384.09,-184.22 436.95,-223 585.04,-331.64 631.98,-569.72 644.16,-652.74"/>
<polygon fill="#e67e22" stroke="#e67e22" stroke-width="2" points="641.75,-653.24 645.17,-659.83 646.6,-652.55 641.75,-653.24"/>
</g>
<!-- List.length_take_le&#39; -->
<g id="node24" class="node">
<title>List.length_take_le&#39;</title>
<g id="a_node24"><a xlink:href="../../../api/Init/Data/List/Nat/TakeDrop.html#List.length_take_le&#39;" xlink:title="List.length_take_le&#39;" target="_blank">
<ellipse fill="#fdebd0" stroke="#e67e22" cx="222.48" cy="-142" rx="58.06" ry="18"/>
<text text-anchor="middle" x="222.48" y="-139.5" font-family="Helvetica" font-size="10.00">List.length_take_le&#39;</text>
</a>
</g>
</g>
<!-- List.length_take_le&#39;&#45;&gt;L4YAML.Proofs.EmitterScannability.filtered_grows_of_any_new -->
<g id="edge23" class="edge">
<title>List.length_take_le&#39;&#45;&gt;L4YAML.Proofs.EmitterScannability.filtered_grows_of_any_new</title>
<path fill="none" stroke="#e67e22" stroke-width="2" d="M275.92,-134.82C322.85,-131.35 391.12,-133.92 436.95,-169 599.09,-293.1 637.33,-563.56 645.68,-652.79"/>
<polygon fill="#e67e22" stroke="#e67e22" stroke-width="2" points="643.25,-653.13 646.31,-659.88 648.13,-652.69 643.25,-653.13"/>
</g>
<!-- Nat.lt_of_lt_of_le -->
<g id="node25" class="node">
<title>Nat.lt_of_lt_of_le</title>
<g id="a_node25"><a xlink:href="../../../api/Init/Prelude.html#Nat.lt_of_lt_of_le" xlink:title="Nat.lt_of_lt_of_le" target="_blank">
<ellipse fill="#fdebd0" stroke="#e67e22" cx="222.48" cy="-88" rx="52.96" ry="18"/>
<text text-anchor="middle" x="222.48" y="-85.5" font-family="Helvetica" font-size="10.00">Nat.lt_of_lt_of_le</text>
</a>
</g>
</g>
<!-- Nat.lt_of_lt_of_le&#45;&gt;L4YAML.Proofs.EmitterScannability.filtered_grows_of_any_new -->
<g id="edge24" class="edge">
<title>Nat.lt_of_lt_of_le&#45;&gt;L4YAML.Proofs.EmitterScannability.filtered_grows_of_any_new</title>
<path fill="none" stroke="#e67e22" stroke-width="2" d="M271.26,-80.88C318.43,-76.61 390.11,-77.87 436.95,-115 613.23,-254.73 642.17,-557.51 646.92,-652.72"/>
<polygon fill="#e67e22" stroke="#e67e22" stroke-width="2" points="644.47,-652.86 647.24,-659.74 649.37,-652.63 644.47,-652.86"/>
</g>
<!-- Array.toList_filter -->
<g id="node26" class="node">
<title>Array.toList_filter</title>
<g id="a_node26"><a xlink:href="../../../api/Init/Data/Array/Lemmas.html#Array.toList_filter" xlink:title="Array.toList_filter" target="_blank">
<ellipse fill="#fdebd0" stroke="#e67e22" cx="222.48" cy="-34" rx="52.96" ry="18"/>
<text text-anchor="middle" x="222.48" y="-31.5" font-family="Helvetica" font-size="10.00">Array.toList_filter</text>
</a>
</g>
</g>
<!-- Array.toList_filter&#45;&gt;L4YAML.Proofs.EmitterScannability.filtered_grows_of_any_new -->
<g id="edge25" class="edge">
<title>Array.toList_filter&#45;&gt;L4YAML.Proofs.EmitterScannability.filtered_grows_of_any_new</title>
<path fill="none" stroke="#e67e22" stroke-width="2" d="M271.04,-26.64C318.39,-22.1 390.5,-23.08 436.95,-61 627.55,-216.59 646.65,-551.99 647.97,-652.77"/>
<polygon fill="#e67e22" stroke="#e67e22" stroke-width="2" points="645.52,-652.92 648.04,-659.89 650.42,-652.87 645.52,-652.92"/>
</g>
</g>
</svg>
