<?xml version="1.0" encoding="UTF-8" standalone="no"?>
<!DOCTYPE svg PUBLIC "-//W3C//DTD SVG 1.1//EN"
 "http://www.w3.org/Graphics/SVG/1.1/DTD/svg11.dtd">
<!-- Generated by graphviz version 2.44.0 (0)
 -->
<!-- Title: chain_EmitterScannability.saveSimpleKey_preserves_inFlow Pages: 1 -->
<svg width="1022pt" height="201pt"
 viewBox="0.00 0.00 1022.00 200.92" xmlns="http://www.w3.org/2000/svg" xmlns:xlink="http://www.w3.org/1999/xlink">
<g id="graph0" class="graph" transform="scale(1 1) rotate(0) translate(4 196.92)">
<title>chain_EmitterScannability.saveSimpleKey_preserves_inFlow</title>
<polygon fill="white" stroke="transparent" points="-4,4 -4,-196.92 1018,-196.92 1018,4 -4,4"/>
<text text-anchor="middle" x="507" y="-178.52" font-family="Helvetica Bold" font-size="13.00">Structural theorem: EmitterScannability.saveSimpleKey_preserves_inFlow\nProof is a witness / injection — no fibration depth\n(heuristic: used by 11 proofs)</text>
<g id="clust1" class="cluster">
<title>cluster_direct</title>
<polygon fill="none" stroke="#4a90d9" stroke-dasharray="5,2" points="359,-8 359,-82 679,-82 679,-8 359,-8"/>
<text text-anchor="middle" x="519" y="-67.6" font-family="Helvetica Bold" font-size="13.00" fill="#4a90d9">About (no chain extends — proof is structural)</text>
</g>
<!-- L4YAML.Proofs.EmitterScannability.saveSimpleKey_preserves_inFlow -->
<g id="node1" class="node">
<title>L4YAML.Proofs.EmitterScannability.saveSimpleKey_preserves_inFlow</title>
<polygon fill="#fff3cd" stroke="#d4a017" points="699.75,-134.46 699.75,-153.46 586.84,-166.89 427.16,-166.89 314.25,-153.46 314.25,-134.46 427.16,-121.03 586.84,-121.03 699.75,-134.46"/>
<polygon fill="none" stroke="#d4a017" points="703.74,-130.92 703.74,-157 587.08,-170.88 426.92,-170.88 310.26,-157 310.26,-130.92 426.92,-117.04 587.08,-117.04 703.74,-130.92"/>
<text text-anchor="middle" x="507" y="-146.96" font-family="Helvetica" font-size="10.00">EmitterScannability.saveSimpleKey_preserves_inFlow</text>
<text text-anchor="middle" x="507" y="-135.96" font-family="Helvetica" font-size="10.00">(structural)</text>
</g>
<!-- L4YAML.Scanner.saveSimpleKey -->
<g id="node2" class="node">
<title>L4YAML.Scanner.saveSimpleKey</title>
<g id="a_node2"><a xlink:href="../../../api/L4YAML/Scanner/SimpleKey.html#L4YAML.Scanner.saveSimpleKey" xlink:title="saveSimpleKey" target="_blank">
<polygon fill="#dce9f7" stroke="#4a90d9" points="450.5,-52 367.5,-52 367.5,-16 450.5,-16 450.5,-52"/>
<text text-anchor="middle" x="409" y="-31.5" font-family="Helvetica" font-size="10.00">saveSimpleKey</text>
</a>
</g>
</g>
<!-- L4YAML.Proofs.EmitterScannability.saveSimpleKey_preserves_inFlow&#45;&gt;L4YAML.Scanner.saveSimpleKey -->
<g id="edge1" class="edge">
<title>L4YAML.Proofs.EmitterScannability.saveSimpleKey_preserves_inFlow&#45;&gt;L4YAML.Scanner.saveSimpleKey</title>
<path fill="none" stroke="#4a90d9" stroke-width="2" d="M483.28,-116.83C466.89,-98.77 445.31,-75 429.63,-57.73"/>
<polygon fill="#4a90d9" stroke="#4a90d9" stroke-width="2" points="431.08,-55.68 424.56,-52.14 427.45,-58.97 431.08,-55.68"/>
<text text-anchor="middle" x="479.5" y="-92.6" font-family="Times-Roman" font-size="8.00" fill="#4a90d9">about</text>
</g>
<!-- L4YAML.Scanner.ScannerState -->
<g id="node3" class="node">
<title>L4YAML.Scanner.ScannerState</title>
<g id="a_node3"><a xlink:href="../../../api/L4YAML/Scanner/State.html#L4YAML.Scanner.ScannerState" xlink:title="ScannerState" target="_blank">
<polygon fill="#dce9f7" stroke="#4a90d9" points="545,-52 469,-52 469,-16 545,-16 545,-52"/>
<text text-anchor="middle" x="507" y="-31.5" font-family="Helvetica" font-size="10.00">ScannerState</text>
</a>
</g>
</g>
<!-- L4YAML.Proofs.EmitterScannability.saveSimpleKey_preserves_inFlow&#45;&gt;L4YAML.Scanner.ScannerState -->
<g id="edge2" class="edge">
<title>L4YAML.Proofs.EmitterScannability.saveSimpleKey_preserves_inFlow&#45;&gt;L4YAML.Scanner.ScannerState</title>
<path fill="none" stroke="#4a90d9" stroke-width="2" d="M507,-116.83C507,-99.4 507,-76.64 507,-59.55"/>
<polygon fill="#4a90d9" stroke="#4a90d9" stroke-width="2" points="509.45,-59.14 507,-52.14 504.55,-59.14 509.45,-59.14"/>
<text text-anchor="middle" x="519.5" y="-92.6" font-family="Times-Roman" font-size="8.00" fill="#4a90d9">about</text>
</g>
<!-- L4YAML.Scanner.ScannerState.inFlow -->
<g id="node4" class="node">
<title>L4YAML.Scanner.ScannerState.inFlow</title>
<g id="a_node4"><a xlink:href="../../../api/L4YAML/Scanner/State.html#L4YAML.Scanner.ScannerState.inFlow" xlink:title="ScannerState.inFlow" target="_blank">
<polygon fill="#dce9f7" stroke="#4a90d9" points="670.5,-52 563.5,-52 563.5,-16 670.5,-16 670.5,-52"/>
<text text-anchor="middle" x="617" y="-31.5" font-family="Helvetica" font-size="10.00">ScannerState.inFlow</text>
</a>
</g>
</g>
<!-- L4YAML.Proofs.EmitterScannability.saveSimpleKey_preserves_inFlow&#45;&gt;L4YAML.Scanner.ScannerState.inFlow -->
<g id="edge3" class="edge">
<title>L4YAML.Proofs.EmitterScannability.saveSimpleKey_preserves_inFlow&#45;&gt;L4YAML.Scanner.ScannerState.inFlow</title>
<path fill="none" stroke="#4a90d9" stroke-width="2" d="M533.63,-116.83C552.18,-98.62 576.67,-74.58 594.3,-57.28"/>
<polygon fill="#4a90d9" stroke="#4a90d9" stroke-width="2" points="596.26,-58.79 599.54,-52.14 592.82,-55.29 596.26,-58.79"/>
<text text-anchor="middle" x="570.5" y="-92.6" font-family="Times-Roman" font-size="8.00" fill="#4a90d9">about</text>
</g>
</g>
</svg>
