<?xml version="1.0" encoding="UTF-8" standalone="no"?>
<!DOCTYPE svg PUBLIC "-//W3C//DTD SVG 1.1//EN"
 "http://www.w3.org/Graphics/SVG/1.1/DTD/svg11.dtd">
<!-- Generated by graphviz version 2.44.0 (0)
 -->
<!-- Title: chain_EmitterScannability.saveSimpleKey_preserves_line Pages: 1 -->
<svg width="997pt" height="201pt"
 viewBox="0.00 0.00 997.00 200.92" xmlns="http://www.w3.org/2000/svg" xmlns:xlink="http://www.w3.org/1999/xlink">
<g id="graph0" class="graph" transform="scale(1 1) rotate(0) translate(4 196.92)">
<title>chain_EmitterScannability.saveSimpleKey_preserves_line</title>
<polygon fill="white" stroke="transparent" points="-4,4 -4,-196.92 993,-196.92 993,4 -4,4"/>
<text text-anchor="middle" x="494.5" y="-178.52" font-family="Helvetica Bold" font-size="13.00">Structural theorem: EmitterScannability.saveSimpleKey_preserves_line\nProof is a witness / injection — no fibration depth\n(heuristic: used by 7 proofs)</text>
<g id="clust1" class="cluster">
<title>cluster_direct</title>
<polygon fill="none" stroke="#4a90d9" stroke-dasharray="5,2" points="343.5,-8 343.5,-82 656.5,-82 656.5,-8 343.5,-8"/>
<text text-anchor="middle" x="500" y="-67.6" font-family="Helvetica Bold" font-size="13.00" fill="#4a90d9">About (no chain extends — proof is structural)</text>
</g>
<!-- L4YAML.Proofs.EmitterScannability.saveSimpleKey_preserves_line -->
<g id="node1" class="node">
<title>L4YAML.Proofs.EmitterScannability.saveSimpleKey_preserves_line</title>
<polygon fill="#fff3cd" stroke="#d4a017" points="677.35,-134.46 677.35,-153.46 570.24,-166.89 418.76,-166.89 311.65,-153.46 311.65,-134.46 418.76,-121.03 570.24,-121.03 677.35,-134.46"/>
<polygon fill="none" stroke="#d4a017" points="681.35,-130.94 681.35,-156.98 570.49,-170.88 418.51,-170.88 307.65,-156.98 307.65,-130.94 418.51,-117.04 570.49,-117.04 681.35,-130.94"/>
<text text-anchor="middle" x="494.5" y="-146.96" font-family="Helvetica" font-size="10.00">EmitterScannability.saveSimpleKey_preserves_line</text>
<text text-anchor="middle" x="494.5" y="-135.96" font-family="Helvetica" font-size="10.00">(structural)</text>
</g>
<!-- L4YAML.Scanner.saveSimpleKey -->
<g id="node2" class="node">
<title>L4YAML.Scanner.saveSimpleKey</title>
<g id="a_node2"><a xlink:href="../../../api/L4YAML/Scanner/SimpleKey.html#L4YAML.Scanner.saveSimpleKey" xlink:title="saveSimpleKey" target="_blank">
<polygon fill="#dce9f7" stroke="#4a90d9" points="438,-52 355,-52 355,-16 438,-16 438,-52"/>
<text text-anchor="middle" x="396.5" y="-31.5" font-family="Helvetica" font-size="10.00">saveSimpleKey</text>
</a>
</g>
</g>
<!-- L4YAML.Proofs.EmitterScannability.saveSimpleKey_preserves_line&#45;&gt;L4YAML.Scanner.saveSimpleKey -->
<g id="edge1" class="edge">
<title>L4YAML.Proofs.EmitterScannability.saveSimpleKey_preserves_line&#45;&gt;L4YAML.Scanner.saveSimpleKey</title>
<path fill="none" stroke="#4a90d9" stroke-width="2" d="M470.78,-116.83C454.39,-98.77 432.81,-75 417.13,-57.73"/>
<polygon fill="#4a90d9" stroke="#4a90d9" stroke-width="2" points="418.58,-55.68 412.06,-52.14 414.95,-58.97 418.58,-55.68"/>
<text text-anchor="middle" x="467" y="-92.6" font-family="Times-Roman" font-size="8.00" fill="#4a90d9">about</text>
</g>
<!-- L4YAML.Scanner.ScannerState -->
<g id="node3" class="node">
<title>L4YAML.Scanner.ScannerState</title>
<g id="a_node3"><a xlink:href="../../../api/L4YAML/Scanner/State.html#L4YAML.Scanner.ScannerState" xlink:title="ScannerState" target="_blank">
<polygon fill="#dce9f7" stroke="#4a90d9" points="532.5,-52 456.5,-52 456.5,-16 532.5,-16 532.5,-52"/>
<text text-anchor="middle" x="494.5" y="-31.5" font-family="Helvetica" font-size="10.00">ScannerState</text>
</a>
</g>
</g>
<!-- L4YAML.Proofs.EmitterScannability.saveSimpleKey_preserves_line&#45;&gt;L4YAML.Scanner.ScannerState -->
<g id="edge2" class="edge">
<title>L4YAML.Proofs.EmitterScannability.saveSimpleKey_preserves_line&#45;&gt;L4YAML.Scanner.ScannerState</title>
<path fill="none" stroke="#4a90d9" stroke-width="2" d="M494.5,-116.83C494.5,-99.4 494.5,-76.64 494.5,-59.55"/>
<polygon fill="#4a90d9" stroke="#4a90d9" stroke-width="2" points="496.95,-59.14 494.5,-52.14 492.05,-59.14 496.95,-59.14"/>
<text text-anchor="middle" x="507" y="-92.6" font-family="Times-Roman" font-size="8.00" fill="#4a90d9">about</text>
</g>
<!-- L4YAML.Scanner.ScannerState.line -->
<g id="node4" class="node">
<title>L4YAML.Scanner.ScannerState.line</title>
<g id="a_node4"><a xlink:href="../../../api/L4YAML/Scanner/State.html#L4YAML.Scanner.ScannerState.line" xlink:title="ScannerState.line" target="_blank">
<polygon fill="#dce9f7" stroke="#4a90d9" points="644.5,-52 550.5,-52 550.5,-16 644.5,-16 644.5,-52"/>
<text text-anchor="middle" x="597.5" y="-31.5" font-family="Helvetica" font-size="10.00">ScannerState.line</text>
</a>
</g>
</g>
<!-- L4YAML.Proofs.EmitterScannability.saveSimpleKey_preserves_line&#45;&gt;L4YAML.Scanner.ScannerState.line -->
<g id="edge3" class="edge">
<title>L4YAML.Proofs.EmitterScannability.saveSimpleKey_preserves_line&#45;&gt;L4YAML.Scanner.ScannerState.line</title>
<path fill="none" stroke="#4a90d9" stroke-width="2" d="M519.43,-116.83C536.81,-98.62 559.74,-74.58 576.24,-57.28"/>
<polygon fill="#4a90d9" stroke="#4a90d9" stroke-width="2" points="578.09,-58.9 581.15,-52.14 574.54,-55.51 578.09,-58.9"/>
<text text-anchor="middle" x="555" y="-92.6" font-family="Times-Roman" font-size="8.00" fill="#4a90d9">about</text>
</g>
</g>
</svg>
