<?xml version="1.0" encoding="UTF-8" standalone="no"?>
<!DOCTYPE svg PUBLIC "-//W3C//DTD SVG 1.1//EN"
 "http://www.w3.org/Graphics/SVG/1.1/DTD/svg11.dtd">
<!-- Generated by graphviz version 2.44.0 (0)
 -->
<!-- Title: chain_EmitterScannability.saveSimpleKey_preserves_flowLevel Pages: 1 -->
<svg width="1040pt" height="201pt"
 viewBox="0.00 0.00 1040.00 200.92" xmlns="http://www.w3.org/2000/svg" xmlns:xlink="http://www.w3.org/1999/xlink">
<g id="graph0" class="graph" transform="scale(1 1) rotate(0) translate(4 196.92)">
<title>chain_EmitterScannability.saveSimpleKey_preserves_flowLevel</title>
<polygon fill="white" stroke="transparent" points="-4,4 -4,-196.92 1036,-196.92 1036,4 -4,4"/>
<text text-anchor="middle" x="516" y="-178.52" font-family="Helvetica Bold" font-size="13.00">Structural theorem: EmitterScannability.saveSimpleKey_preserves_flowLevel\nProof is a witness / injection — no fibration depth\n(heuristic: used by 10 proofs)</text>
<g id="clust1" class="cluster">
<title>cluster_direct</title>
<polygon fill="none" stroke="#4a90d9" stroke-dasharray="5,2" points="368,-8 368,-82 700,-82 700,-8 368,-8"/>
<text text-anchor="middle" x="534" y="-67.6" font-family="Helvetica Bold" font-size="13.00" fill="#4a90d9">About (no chain extends — proof is structural)</text>
</g>
<!-- L4YAML.Proofs.EmitterScannability.saveSimpleKey_preserves_flowLevel -->
<g id="node1" class="node">
<title>L4YAML.Proofs.EmitterScannability.saveSimpleKey_preserves_flowLevel</title>
<polygon fill="#fff3cd" stroke="#d4a017" points="718.11,-134.46 718.11,-153.46 599.72,-166.89 432.28,-166.89 313.89,-153.46 313.89,-134.46 432.28,-121.03 599.72,-121.03 718.11,-134.46"/>
<polygon fill="none" stroke="#d4a017" points="722.11,-130.9 722.11,-157.02 599.94,-170.88 432.06,-170.88 309.89,-157.02 309.89,-130.9 432.06,-117.04 599.94,-117.04 722.11,-130.9"/>
<text text-anchor="middle" x="516" y="-146.96" font-family="Helvetica" font-size="10.00">EmitterScannability.saveSimpleKey_preserves_flowLevel</text>
<text text-anchor="middle" x="516" y="-135.96" font-family="Helvetica" font-size="10.00">(structural)</text>
</g>
<!-- L4YAML.Scanner.saveSimpleKey -->
<g id="node2" class="node">
<title>L4YAML.Scanner.saveSimpleKey</title>
<g id="a_node2"><a xlink:href="../../../api/L4YAML/Scanner/SimpleKey.html#L4YAML.Scanner.saveSimpleKey" xlink:title="saveSimpleKey" target="_blank">
<polygon fill="#dce9f7" stroke="#4a90d9" points="459.5,-52 376.5,-52 376.5,-16 459.5,-16 459.5,-52"/>
<text text-anchor="middle" x="418" y="-31.5" font-family="Helvetica" font-size="10.00">saveSimpleKey</text>
</a>
</g>
</g>
<!-- L4YAML.Proofs.EmitterScannability.saveSimpleKey_preserves_flowLevel&#45;&gt;L4YAML.Scanner.saveSimpleKey -->
<g id="edge1" class="edge">
<title>L4YAML.Proofs.EmitterScannability.saveSimpleKey_preserves_flowLevel&#45;&gt;L4YAML.Scanner.saveSimpleKey</title>
<path fill="none" stroke="#4a90d9" stroke-width="2" d="M492.28,-116.83C475.89,-98.77 454.31,-75 438.63,-57.73"/>
<polygon fill="#4a90d9" stroke="#4a90d9" stroke-width="2" points="440.08,-55.68 433.56,-52.14 436.45,-58.97 440.08,-55.68"/>
<text text-anchor="middle" x="488.5" y="-92.6" font-family="Times-Roman" font-size="8.00" fill="#4a90d9">about</text>
</g>
<!-- L4YAML.Scanner.ScannerState -->
<g id="node3" class="node">
<title>L4YAML.Scanner.ScannerState</title>
<g id="a_node3"><a xlink:href="../../../api/L4YAML/Scanner/State.html#L4YAML.Scanner.ScannerState" xlink:title="ScannerState" target="_blank">
<polygon fill="#dce9f7" stroke="#4a90d9" points="554,-52 478,-52 478,-16 554,-16 554,-52"/>
<text text-anchor="middle" x="516" y="-31.5" font-family="Helvetica" font-size="10.00">ScannerState</text>
</a>
</g>
</g>
<!-- L4YAML.Proofs.EmitterScannability.saveSimpleKey_preserves_flowLevel&#45;&gt;L4YAML.Scanner.ScannerState -->
<g id="edge2" class="edge">
<title>L4YAML.Proofs.EmitterScannability.saveSimpleKey_preserves_flowLevel&#45;&gt;L4YAML.Scanner.ScannerState</title>
<path fill="none" stroke="#4a90d9" stroke-width="2" d="M516,-116.83C516,-99.4 516,-76.64 516,-59.55"/>
<polygon fill="#4a90d9" stroke="#4a90d9" stroke-width="2" points="518.45,-59.14 516,-52.14 513.55,-59.14 518.45,-59.14"/>
<text text-anchor="middle" x="528.5" y="-92.6" font-family="Times-Roman" font-size="8.00" fill="#4a90d9">about</text>
</g>
<!-- L4YAML.Scanner.ScannerState.flowLevel -->
<g id="node4" class="node">
<title>L4YAML.Scanner.ScannerState.flowLevel</title>
<g id="a_node4"><a xlink:href="../../../api/L4YAML/Scanner/State.html#L4YAML.Scanner.ScannerState.flowLevel" xlink:title="ScannerState.flowLevel" target="_blank">
<polygon fill="#dce9f7" stroke="#4a90d9" points="691.5,-52 572.5,-52 572.5,-16 691.5,-16 691.5,-52"/>
<text text-anchor="middle" x="632" y="-31.5" font-family="Helvetica" font-size="10.00">ScannerState.flowLevel</text>
</a>
</g>
</g>
<!-- L4YAML.Proofs.EmitterScannability.saveSimpleKey_preserves_flowLevel&#45;&gt;L4YAML.Scanner.ScannerState.flowLevel -->
<g id="edge3" class="edge">
<title>L4YAML.Proofs.EmitterScannability.saveSimpleKey_preserves_flowLevel&#45;&gt;L4YAML.Scanner.ScannerState.flowLevel</title>
<path fill="none" stroke="#4a90d9" stroke-width="2" d="M544.08,-116.83C563.65,-98.62 589.47,-74.58 608.06,-57.28"/>
<polygon fill="#4a90d9" stroke="#4a90d9" stroke-width="2" points="610.13,-58.7 613.58,-52.14 606.79,-55.12 610.13,-58.7"/>
<text text-anchor="middle" x="582.5" y="-92.6" font-family="Times-Roman" font-size="8.00" fill="#4a90d9">about</text>
</g>
</g>
</svg>
