<?xml version="1.0" encoding="UTF-8" standalone="no"?>
<!DOCTYPE svg PUBLIC "-//W3C//DTD SVG 1.1//EN"
 "http://www.w3.org/Graphics/SVG/1.1/DTD/svg11.dtd">
<!-- Generated by graphviz version 2.44.0 (0)
 -->
<!-- Title: EmitterScannability.saveSimpleKey_preserves_col Pages: 1 -->
<svg width="587pt" height="256pt"
 viewBox="0.00 0.00 587.46 256.00" xmlns="http://www.w3.org/2000/svg" xmlns:xlink="http://www.w3.org/1999/xlink">
<g id="graph0" class="graph" transform="scale(1 1) rotate(0) translate(4 252)">
<title>EmitterScannability.saveSimpleKey_preserves_col</title>
<polygon fill="white" stroke="transparent" points="-4,4 -4,-252 583.46,-252 583.46,4 -4,4"/>
<text text-anchor="middle" x="289.73" y="-233.6" font-family="Helvetica Bold" font-size="13.00">EmitterScannability.saveSimpleKey_preserves_col</text>
<text text-anchor="middle" x="289.73" y="-219.6" font-family="Helvetica Bold" font-size="13.00">(heuristic: used by 11 proofs)</text>
<text text-anchor="middle" x="289.73" y="-205.6" font-family="Helvetica Bold" font-size="13.00">(L4YAML.Proofs.Output.EmitterScannability)</text>
<g id="clust1" class="cluster">
<title>cluster_functions</title>
<polygon fill="none" stroke="#4a90d9" stroke-dasharray="5,2" points="463.46,-8 463.46,-190 571.46,-190 571.46,-8 463.46,-8"/>
<text text-anchor="middle" x="517.46" y="-175.6" font-family="Helvetica Bold" font-size="13.00" fill="#4a90d9">Functions</text>
</g>
<g id="clust2" class="cluster">
<title>cluster_key</title>
<polygon fill="none" stroke="#d4a017" stroke-dasharray="5,2" points="8,-58 8,-140 418.46,-140 418.46,-58 8,-58"/>
<text text-anchor="middle" x="213.23" y="-125.6" font-family="Helvetica Bold" font-size="13.00" fill="#d4a017">Key Theorem</text>
</g>
<!-- L4YAML.Scanner.ScannerState -->
<g id="node1" class="node">
<title>L4YAML.Scanner.ScannerState</title>
<g id="a_node1"><a xlink:href="../../../api/L4YAML/Scanner/State.html#L4YAML.Scanner.ScannerState" xlink:title="ScannerState\n(inductive)" target="_blank">
<polygon fill="#dce9f7" stroke="#4a90d9" points="555.46,-160 479.46,-160 479.46,-124 555.46,-124 555.46,-160"/>
<text text-anchor="middle" x="517.46" y="-145" font-family="Helvetica" font-size="10.00">ScannerState</text>
<text text-anchor="middle" x="517.46" y="-134" font-family="Helvetica" font-size="10.00">(inductive)</text>
</a>
</g>
</g>
<!-- L4YAML.Scanner.ScannerState.col -->
<g id="node2" class="node">
<title>L4YAML.Scanner.ScannerState.col</title>
<g id="a_node2"><a xlink:href="../../../api/L4YAML/Scanner/State.html#L4YAML.Scanner.ScannerState.col" xlink:title="ScannerState.col\n(def)" target="_blank">
<polygon fill="#dce9f7" stroke="#4a90d9" points="563.46,-106 471.46,-106 471.46,-70 563.46,-70 563.46,-106"/>
<text text-anchor="middle" x="517.46" y="-91" font-family="Helvetica" font-size="10.00">ScannerState.col</text>
<text text-anchor="middle" x="517.46" y="-80" font-family="Helvetica" font-size="10.00">(def)</text>
</a>
</g>
</g>
<!-- L4YAML.Scanner.saveSimpleKey -->
<g id="node3" class="node">
<title>L4YAML.Scanner.saveSimpleKey</title>
<g id="a_node3"><a xlink:href="../../../api/L4YAML/Scanner/SimpleKey.html#L4YAML.Scanner.saveSimpleKey" xlink:title="saveSimpleKey\n(def)" target="_blank">
<polygon fill="#dce9f7" stroke="#4a90d9" points="558.96,-52 475.96,-52 475.96,-16 558.96,-16 558.96,-52"/>
<text text-anchor="middle" x="517.46" y="-37" font-family="Helvetica" font-size="10.00">saveSimpleKey</text>
<text text-anchor="middle" x="517.46" y="-26" font-family="Helvetica" font-size="10.00">(def)</text>
</a>
</g>
</g>
<!-- L4YAML.Proofs.EmitterScannability.saveSimpleKey_preserves_col -->
<g id="node4" class="node">
<title>L4YAML.Proofs.EmitterScannability.saveSimpleKey_preserves_col</title>
<g id="a_node4"><a xlink:href="../../../api/L4YAML/Proofs/Output/EmitterScannability.html#L4YAML.Proofs.EmitterScannability.saveSimpleKey_preserves_col" xlink:title="EmitterScannability.saveSimpleKey_preserves_col" target="_blank">
<polygon fill="#fff3cd" stroke="#d4a017" points="406.68,-80.54 406.68,-95.46 293.36,-106 133.1,-106 19.78,-95.46 19.78,-80.54 133.1,-70 293.36,-70 406.68,-80.54"/>
<polygon fill="none" stroke="#d4a017" points="410.69,-76.9 410.69,-99.1 293.55,-110 132.91,-110 15.77,-99.1 15.77,-76.9 132.91,-66 293.55,-66 410.69,-76.9"/>
<text text-anchor="middle" x="213.23" y="-84.9" font-family="Helvetica" font-size="12.00">EmitterScannability.saveSimpleKey_preserves_col</text>
</a>
</g>
</g>
<!-- L4YAML.Proofs.EmitterScannability.saveSimpleKey_preserves_col&#45;&gt;L4YAML.Scanner.ScannerState -->
<g id="edge3" class="edge">
<title>L4YAML.Proofs.EmitterScannability.saveSimpleKey_preserves_col&#45;&gt;L4YAML.Scanner.ScannerState</title>
<path fill="none" stroke="#4a90d9" stroke-width="2" d="M322.49,-107.34C374.15,-116.57 433.1,-127.11 472.32,-134.11"/>
<polygon fill="#4a90d9" stroke="#4a90d9" stroke-width="2" points="472.08,-136.56 479.4,-135.38 472.94,-131.74 472.08,-136.56"/>
<text text-anchor="middle" x="440.96" y="-132.6" font-family="Times-Roman" font-size="8.00" fill="#4a90d9">about</text>
</g>
<!-- L4YAML.Proofs.EmitterScannability.saveSimpleKey_preserves_col&#45;&gt;L4YAML.Scanner.ScannerState.col -->
<g id="edge1" class="edge">
<title>L4YAML.Proofs.EmitterScannability.saveSimpleKey_preserves_col&#45;&gt;L4YAML.Scanner.ScannerState.col</title>
<path fill="none" stroke="#4a90d9" stroke-width="2" d="M410.75,-88C430.21,-88 448.56,-88 464.34,-88"/>
<polygon fill="#4a90d9" stroke="#4a90d9" stroke-width="2" points="464.4,-90.45 471.4,-88 464.4,-85.55 464.4,-90.45"/>
<text text-anchor="middle" x="440.96" y="-90.6" font-family="Times-Roman" font-size="8.00" fill="#4a90d9">about</text>
</g>
<!-- L4YAML.Proofs.EmitterScannability.saveSimpleKey_preserves_col&#45;&gt;L4YAML.Scanner.saveSimpleKey -->
<g id="edge2" class="edge">
<title>L4YAML.Proofs.EmitterScannability.saveSimpleKey_preserves_col&#45;&gt;L4YAML.Scanner.saveSimpleKey</title>
<path fill="none" stroke="#4a90d9" stroke-width="2" d="M322.49,-68.66C372.56,-59.71 429.47,-49.54 468.63,-42.55"/>
<polygon fill="#4a90d9" stroke="#4a90d9" stroke-width="2" points="469.27,-44.92 475.73,-41.28 468.41,-40.1 469.27,-44.92"/>
<text text-anchor="middle" x="440.96" y="-50.6" font-family="Times-Roman" font-size="8.00" fill="#4a90d9">about</text>
</g>
</g>
</svg>
