<?xml version="1.0" encoding="UTF-8" standalone="no"?>
<!DOCTYPE svg PUBLIC "-//W3C//DTD SVG 1.1//EN"
 "http://www.w3.org/Graphics/SVG/1.1/DTD/svg11.dtd">
<!-- Generated by graphviz version 2.44.0 (0)
 -->
<!-- Title: EmitterScannability.saveSimpleKey_preserves_inFlow Pages: 1 -->
<svg width="629pt" height="256pt"
 viewBox="0.00 0.00 629.11 256.00" xmlns="http://www.w3.org/2000/svg" xmlns:xlink="http://www.w3.org/1999/xlink">
<g id="graph0" class="graph" transform="scale(1 1) rotate(0) translate(4 252)">
<title>EmitterScannability.saveSimpleKey_preserves_inFlow</title>
<polygon fill="white" stroke="transparent" points="-4,4 -4,-252 625.11,-252 625.11,4 -4,4"/>
<text text-anchor="middle" x="310.56" y="-233.6" font-family="Helvetica Bold" font-size="13.00">EmitterScannability.saveSimpleKey_preserves_inFlow</text>
<text text-anchor="middle" x="310.56" y="-219.6" font-family="Helvetica Bold" font-size="13.00">(heuristic: used by 11 proofs)</text>
<text text-anchor="middle" x="310.56" y="-205.6" font-family="Helvetica Bold" font-size="13.00">(L4YAML.Proofs.Output.EmitterScannability)</text>
<g id="clust1" class="cluster">
<title>cluster_functions</title>
<polygon fill="none" stroke="#4a90d9" stroke-dasharray="5,2" points="490.11,-8 490.11,-190 613.11,-190 613.11,-8 490.11,-8"/>
<text text-anchor="middle" x="551.61" y="-175.6" font-family="Helvetica Bold" font-size="13.00" fill="#4a90d9">Functions</text>
</g>
<g id="clust2" class="cluster">
<title>cluster_key</title>
<polygon fill="none" stroke="#d4a017" stroke-dasharray="5,2" points="8,-58 8,-140 445.11,-140 445.11,-58 8,-58"/>
<text text-anchor="middle" x="226.56" y="-125.6" font-family="Helvetica Bold" font-size="13.00" fill="#d4a017">Key Theorem</text>
</g>
<!-- L4YAML.Scanner.ScannerState.inFlow -->
<g id="node1" class="node">
<title>L4YAML.Scanner.ScannerState.inFlow</title>
<g id="a_node1"><a xlink:href="../../../api/L4YAML/Scanner/State.html#L4YAML.Scanner.ScannerState.inFlow" xlink:title="ScannerState.inFlow\n(def)" target="_blank">
<polygon fill="#dce9f7" stroke="#4a90d9" points="605.11,-160 498.11,-160 498.11,-124 605.11,-124 605.11,-160"/>
<text text-anchor="middle" x="551.61" y="-145" font-family="Helvetica" font-size="10.00">ScannerState.inFlow</text>
<text text-anchor="middle" x="551.61" y="-134" font-family="Helvetica" font-size="10.00">(def)</text>
</a>
</g>
</g>
<!-- L4YAML.Scanner.ScannerState -->
<g id="node2" class="node">
<title>L4YAML.Scanner.ScannerState</title>
<g id="a_node2"><a xlink:href="../../../api/L4YAML/Scanner/State.html#L4YAML.Scanner.ScannerState" xlink:title="ScannerState\n(inductive)" target="_blank">
<polygon fill="#dce9f7" stroke="#4a90d9" points="589.61,-106 513.61,-106 513.61,-70 589.61,-70 589.61,-106"/>
<text text-anchor="middle" x="551.61" y="-91" font-family="Helvetica" font-size="10.00">ScannerState</text>
<text text-anchor="middle" x="551.61" y="-80" font-family="Helvetica" font-size="10.00">(inductive)</text>
</a>
</g>
</g>
<!-- L4YAML.Scanner.saveSimpleKey -->
<g id="node3" class="node">
<title>L4YAML.Scanner.saveSimpleKey</title>
<g id="a_node3"><a xlink:href="../../../api/L4YAML/Scanner/SimpleKey.html#L4YAML.Scanner.saveSimpleKey" xlink:title="saveSimpleKey\n(def)" target="_blank">
<polygon fill="#dce9f7" stroke="#4a90d9" points="593.11,-52 510.11,-52 510.11,-16 593.11,-16 593.11,-52"/>
<text text-anchor="middle" x="551.61" y="-37" font-family="Helvetica" font-size="10.00">saveSimpleKey</text>
<text text-anchor="middle" x="551.61" y="-26" font-family="Helvetica" font-size="10.00">(def)</text>
</a>
</g>
</g>
<!-- L4YAML.Proofs.EmitterScannability.saveSimpleKey_preserves_inFlow -->
<g id="node4" class="node">
<title>L4YAML.Proofs.EmitterScannability.saveSimpleKey_preserves_inFlow</title>
<g id="a_node4"><a xlink:href="../../../api/L4YAML/Proofs/Output/EmitterScannability.html#L4YAML.Proofs.EmitterScannability.saveSimpleKey_preserves_inFlow" xlink:title="EmitterScannability.saveSimpleKey_preserves_inFlow" target="_blank">
<polygon fill="#fff3cd" stroke="#d4a017" points="433.16,-80.54 433.16,-95.46 312.14,-106 140.97,-106 19.95,-95.46 19.95,-80.54 140.97,-70 312.14,-70 433.16,-80.54"/>
<polygon fill="none" stroke="#d4a017" points="437.17,-76.88 437.17,-99.12 312.31,-110 140.8,-110 15.94,-99.12 15.94,-76.88 140.8,-66 312.31,-66 437.17,-76.88"/>
<text text-anchor="middle" x="226.56" y="-84.9" font-family="Helvetica" font-size="12.00">EmitterScannability.saveSimpleKey_preserves_inFlow</text>
</a>
</g>
</g>
<!-- L4YAML.Proofs.EmitterScannability.saveSimpleKey_preserves_inFlow&#45;&gt;L4YAML.Scanner.ScannerState.inFlow -->
<g id="edge3" class="edge">
<title>L4YAML.Proofs.EmitterScannability.saveSimpleKey_preserves_inFlow&#45;&gt;L4YAML.Scanner.ScannerState.inFlow</title>
<path fill="none" stroke="#4a90d9" stroke-width="2" d="M343.27,-107.34C393.25,-115.7 449.6,-125.12 490.93,-132.02"/>
<polygon fill="#4a90d9" stroke="#4a90d9" stroke-width="2" points="490.64,-134.46 497.95,-133.2 491.45,-129.63 490.64,-134.46"/>
<text text-anchor="middle" x="467.61" y="-130.6" font-family="Times-Roman" font-size="8.00" fill="#4a90d9">about</text>
</g>
<!-- L4YAML.Proofs.EmitterScannability.saveSimpleKey_preserves_inFlow&#45;&gt;L4YAML.Scanner.ScannerState -->
<g id="edge2" class="edge">
<title>L4YAML.Proofs.EmitterScannability.saveSimpleKey_preserves_inFlow&#45;&gt;L4YAML.Scanner.ScannerState</title>
<path fill="none" stroke="#4a90d9" stroke-width="2" d="M437.17,-88C463.01,-88 487.04,-88 506.27,-88"/>
<polygon fill="#4a90d9" stroke="#4a90d9" stroke-width="2" points="506.4,-90.45 513.4,-88 506.4,-85.55 506.4,-90.45"/>
<text text-anchor="middle" x="467.61" y="-90.6" font-family="Times-Roman" font-size="8.00" fill="#4a90d9">about</text>
</g>
<!-- L4YAML.Proofs.EmitterScannability.saveSimpleKey_preserves_inFlow&#45;&gt;L4YAML.Scanner.saveSimpleKey -->
<g id="edge1" class="edge">
<title>L4YAML.Proofs.EmitterScannability.saveSimpleKey_preserves_inFlow&#45;&gt;L4YAML.Scanner.saveSimpleKey</title>
<path fill="none" stroke="#4a90d9" stroke-width="2" d="M343.27,-68.66C398.21,-59.47 460.86,-49 502.78,-42"/>
<polygon fill="#4a90d9" stroke="#4a90d9" stroke-width="2" points="503.34,-44.39 509.84,-40.81 502.53,-39.55 503.34,-44.39"/>
<text text-anchor="middle" x="467.61" y="-51.6" font-family="Times-Roman" font-size="8.00" fill="#4a90d9">about</text>
</g>
</g>
</svg>
