<?xml version="1.0" encoding="UTF-8" standalone="no"?>
<!DOCTYPE svg PUBLIC "-//W3C//DTD SVG 1.1//EN"
 "http://www.w3.org/Graphics/SVG/1.1/DTD/svg11.dtd">
<!-- Generated by graphviz version 2.44.0 (0)
 -->
<!-- Title: EmitterScannability.scanFlowSequenceEnd_flowLevel Pages: 1 -->
<svg width="1037pt" height="548pt"
 viewBox="0.00 0.00 1037.11 548.00" xmlns="http://www.w3.org/2000/svg" xmlns:xlink="http://www.w3.org/1999/xlink">
<g id="graph0" class="graph" transform="scale(1 1) rotate(0) translate(4 544)">
<title>EmitterScannability.scanFlowSequenceEnd_flowLevel</title>
<polygon fill="white" stroke="transparent" points="-4,4 -4,-544 1033.11,-544 1033.11,4 -4,4"/>
<text text-anchor="middle" x="514.55" y="-525.6" font-family="Helvetica Bold" font-size="13.00">EmitterScannability.scanFlowSequenceEnd_flowLevel</text>
<text text-anchor="middle" x="514.55" y="-511.6" font-family="Helvetica Bold" font-size="13.00">(heuristic: used by 5 proofs)</text>
<text text-anchor="middle" x="514.55" y="-497.6" font-family="Helvetica Bold" font-size="13.00">(L4YAML.Proofs.Output.EmitterScannability)</text>
<g id="clust1" class="cluster">
<title>cluster_functions</title>
<polygon fill="none" stroke="#4a90d9" stroke-dasharray="5,2" points="557.05,-219 557.05,-401 1021.11,-401 1021.11,-219 557.05,-219"/>
<text text-anchor="middle" x="789.08" y="-386.6" font-family="Helvetica Bold" font-size="13.00" fill="#4a90d9">Functions</text>
</g>
<g id="clust2" class="cluster">
<title>cluster_key</title>
<polygon fill="none" stroke="#d4a017" stroke-dasharray="5,2" points="404,-49 404,-131 841.11,-131 841.11,-49 404,-49"/>
<text text-anchor="middle" x="622.55" y="-116.6" font-family="Helvetica Bold" font-size="13.00" fill="#d4a017">Key Theorem</text>
</g>
<g id="clust3" class="cluster">
<title>cluster_proofs</title>
<polygon fill="none" stroke="#28a745" stroke-dasharray="5,2" points="8,-216 8,-356 362,-356 362,-216 8,-216"/>
<text text-anchor="middle" x="185" y="-341.6" font-family="Helvetica Bold" font-size="13.00" fill="#28a745">Proof Dependencies</text>
</g>
<g id="clust4" class="cluster">
<title>cluster_stdlib</title>
<polygon fill="none" stroke="#e67e22" stroke-dasharray="5,2" points="129.5,-8 129.5,-136 240.5,-136 240.5,-8 129.5,-8"/>
<text text-anchor="middle" x="185" y="-121.6" font-family="Helvetica Bold" font-size="13.00" fill="#e67e22">Stdlib Lemmas</text>
</g>
<!-- L4YAML.Scanner.scanFlowSequenceEnd -->
<g id="node1" class="node">
<title>L4YAML.Scanner.scanFlowSequenceEnd</title>
<g id="a_node1"><a xlink:href="../../../api/L4YAML/Scanner/Scanner.html#L4YAML.Scanner.scanFlowSequenceEnd" xlink:title="scanFlowSequenceEnd\n(def)" target="_blank">
<polygon fill="#dce9f7" stroke="#4a90d9" points="1013.11,-263 894.11,-263 894.11,-227 1013.11,-227 1013.11,-263"/>
<text text-anchor="middle" x="953.61" y="-248" font-family="Helvetica" font-size="10.00">scanFlowSequenceEnd</text>
<text text-anchor="middle" x="953.61" y="-237" font-family="Helvetica" font-size="10.00">(def)</text>
</a>
</g>
</g>
<!-- L4YAML.Scanner.ScannerState.emit -->
<g id="node2" class="node">
<title>L4YAML.Scanner.ScannerState.emit</title>
<g id="a_node2"><a xlink:href="../../../api/L4YAML/Scanner/State.html#L4YAML.Scanner.ScannerState.emit" xlink:title="ScannerState.emit\n(def)" target="_blank">
<polygon fill="#dce9f7" stroke="#4a90d9" points="671.55,-263 573.55,-263 573.55,-227 671.55,-227 671.55,-263"/>
<text text-anchor="middle" x="622.55" y="-248" font-family="Helvetica" font-size="10.00">ScannerState.emit</text>
<text text-anchor="middle" x="622.55" y="-237" font-family="Helvetica" font-size="10.00">(def)</text>
</a>
</g>
</g>
<!-- L4YAML.Scanner.ScannerState.advance -->
<g id="node3" class="node">
<title>L4YAML.Scanner.ScannerState.advance</title>
<g id="a_node3"><a xlink:href="../../../api/L4YAML/Scanner/State.html#L4YAML.Scanner.ScannerState.advance" xlink:title="ScannerState.advance\n(def)" target="_blank">
<polygon fill="#dce9f7" stroke="#4a90d9" points="680.05,-371 565.05,-371 565.05,-335 680.05,-335 680.05,-371"/>
<text text-anchor="middle" x="622.55" y="-356" font-family="Helvetica" font-size="10.00">ScannerState.advance</text>
<text text-anchor="middle" x="622.55" y="-345" font-family="Helvetica" font-size="10.00">(def)</text>
</a>
</g>
</g>
<!-- L4YAML.Scanner.ScannerState.flowLevel -->
<g id="node4" class="node">
<title>L4YAML.Scanner.ScannerState.flowLevel</title>
<g id="a_node4"><a xlink:href="../../../api/L4YAML/Scanner/State.html#L4YAML.Scanner.ScannerState.flowLevel" xlink:title="ScannerState.flowLevel\n(def)" target="_blank">
<polygon fill="#dce9f7" stroke="#4a90d9" points="1013.11,-371 894.11,-371 894.11,-335 1013.11,-335 1013.11,-371"/>
<text text-anchor="middle" x="953.61" y="-356" font-family="Helvetica" font-size="10.00">ScannerState.flowLevel</text>
<text text-anchor="middle" x="953.61" y="-345" font-family="Helvetica" font-size="10.00">(def)</text>
</a>
</g>
</g>
<!-- L4YAML.YamlToken -->
<g id="node5" class="node">
<title>L4YAML.YamlToken</title>
<g id="a_node5"><a xlink:href="../../../api/L4YAML/Token/Token.html#L4YAML.YamlToken" xlink:title="YamlToken\n(inductive)" target="_blank">
<polygon fill="#dce9f7" stroke="#4a90d9" points="654.55,-317 590.55,-317 590.55,-281 654.55,-281 654.55,-317"/>
<text text-anchor="middle" x="622.55" y="-302" font-family="Helvetica" font-size="10.00">YamlToken</text>
<text text-anchor="middle" x="622.55" y="-291" font-family="Helvetica" font-size="10.00">(inductive)</text>
</a>
</g>
</g>
<!-- L4YAML.Scanner.ScannerState -->
<g id="node6" class="node">
<title>L4YAML.Scanner.ScannerState</title>
<g id="a_node6"><a xlink:href="../../../api/L4YAML/Scanner/State.html#L4YAML.Scanner.ScannerState" xlink:title="ScannerState\n(inductive)" target="_blank">
<polygon fill="#dce9f7" stroke="#4a90d9" points="991.61,-317 915.61,-317 915.61,-281 991.61,-281 991.61,-317"/>
<text text-anchor="middle" x="953.61" y="-302" font-family="Helvetica" font-size="10.00">ScannerState</text>
<text text-anchor="middle" x="953.61" y="-291" font-family="Helvetica" font-size="10.00">(inductive)</text>
</a>
</g>
</g>
<!-- L4YAML.Proofs.EmitterScannability.scanFlowSequenceEnd_flowLevel -->
<g id="node7" class="node">
<title>L4YAML.Proofs.EmitterScannability.scanFlowSequenceEnd_flowLevel</title>
<g id="a_node7"><a xlink:href="../../../api/L4YAML/Proofs/Output/EmitterScannability.html#L4YAML.Proofs.EmitterScannability.scanFlowSequenceEnd_flowLevel" xlink:title="EmitterScannability.scanFlowSequenceEnd_flowLevel" target="_blank">
<polygon fill="#fff3cd" stroke="#d4a017" points="829.16,-71.54 829.16,-86.46 708.13,-97 536.97,-97 415.94,-86.46 415.94,-71.54 536.97,-61 708.13,-61 829.16,-71.54"/>
<polygon fill="none" stroke="#d4a017" points="833.16,-67.88 833.16,-90.12 708.31,-101 536.8,-101 411.94,-90.12 411.94,-67.88 536.8,-57 708.31,-57 833.16,-67.88"/>
<text text-anchor="middle" x="622.55" y="-75.9" font-family="Helvetica" font-size="12.00">EmitterScannability.scanFlowSequenceEnd_flowLevel</text>
</a>
</g>
</g>
<!-- L4YAML.Proofs.EmitterScannability.scanFlowSequenceEnd_flowLevel&#45;&gt;L4YAML.Scanner.scanFlowSequenceEnd -->
<g id="edge1" class="edge">
<title>L4YAML.Proofs.EmitterScannability.scanFlowSequenceEnd_flowLevel&#45;&gt;L4YAML.Scanner.scanFlowSequenceEnd</title>
<path fill="none" stroke="#4a90d9" stroke-width="2" d="M833.25,-76.75C848.4,-81.68 862.89,-88.3 876.11,-97 919.07,-125.3 939.26,-185.71 947.58,-219.95"/>
<polygon fill="#4a90d9" stroke="#4a90d9" stroke-width="2" points="945.21,-220.58 949.18,-226.84 949.99,-219.47 945.21,-220.58"/>
<text text-anchor="middle" x="863.61" y="-99.6" font-family="Times-Roman" font-size="8.00" fill="#4a90d9">about</text>
</g>
<!-- L4YAML.Proofs.EmitterScannability.scanFlowSequenceEnd_flowLevel&#45;&gt;L4YAML.Scanner.ScannerState.flowLevel -->
<g id="edge3" class="edge">
<title>L4YAML.Proofs.EmitterScannability.scanFlowSequenceEnd_flowLevel&#45;&gt;L4YAML.Scanner.ScannerState.flowLevel</title>
<path fill="none" stroke="#4a90d9" stroke-width="2" d="M758.08,-96.74C787.35,-105.04 816.8,-117.2 841.11,-135 847.03,-139.34 873.62,-184.1 876.11,-191 896.61,-247.95 858.18,-277.29 894.11,-326 895.18,-327.46 896.35,-328.84 897.61,-330.15"/>
<polygon fill="#4a90d9" stroke="#4a90d9" stroke-width="2" points="895.97,-331.97 902.81,-334.84 899.26,-328.33 895.97,-331.97"/>
<text text-anchor="middle" x="863.61" y="-193.6" font-family="Times-Roman" font-size="8.00" fill="#4a90d9">about</text>
</g>
<!-- L4YAML.Proofs.EmitterScannability.scanFlowSequenceEnd_flowLevel&#45;&gt;L4YAML.Scanner.ScannerState -->
<g id="edge2" class="edge">
<title>L4YAML.Proofs.EmitterScannability.scanFlowSequenceEnd_flowLevel&#45;&gt;L4YAML.Scanner.ScannerState</title>
<path fill="none" stroke="#4a90d9" stroke-width="2" d="M810.86,-92.18C835.52,-101.3 858.35,-114.67 876.11,-134 917.95,-179.55 857.46,-222.17 894.11,-272 898.05,-277.36 903.32,-281.69 909.08,-285.17"/>
<polygon fill="#4a90d9" stroke="#4a90d9" stroke-width="2" points="908.17,-287.46 915.5,-288.63 910.5,-283.15 908.17,-287.46"/>
<text text-anchor="middle" x="863.61" y="-136.6" font-family="Times-Roman" font-size="8.00" fill="#4a90d9">about</text>
</g>
<!-- L4YAML.Proofs.ScannerCorrectness.emit_preserves_flowLevel -->
<g id="node8" class="node">
<title>L4YAML.Proofs.ScannerCorrectness.emit_preserves_flowLevel</title>
<g id="a_node8"><a xlink:href="../../../api/L4YAML/Proofs/Scanner/ScannerCorrectness.html#L4YAML.Proofs.ScannerCorrectness.emit_preserves_flowLevel" xlink:title="ScannerCorrectness.emit_preserves_flowLevel\n(Scanner.ScannerCorrectness)" target="_blank">
<ellipse fill="#d4edda" stroke="#28a745" cx="185" cy="-245" rx="156.04" ry="21.43"/>
<text text-anchor="middle" x="185" y="-248" font-family="Helvetica" font-size="10.00">ScannerCorrectness.emit_preserves_flowLevel</text>
<text text-anchor="middle" x="185" y="-237" font-family="Helvetica" font-size="10.00">(Scanner.ScannerCorrectness)</text>
</a>
</g>
</g>
<!-- L4YAML.Proofs.ScannerCorrectness.emit_preserves_flowLevel&#45;&gt;L4YAML.Scanner.ScannerState.emit -->
<g id="edge8" class="edge">
<title>L4YAML.Proofs.ScannerCorrectness.emit_preserves_flowLevel&#45;&gt;L4YAML.Scanner.ScannerState.emit</title>
<path fill="none" stroke="#6f42c1" stroke-width="2" stroke-dasharray="5,2" d="M341.4,-245C420.45,-245 511.47,-245 567.76,-245"/>
<polygon fill="#6f42c1" stroke="#6f42c1" stroke-width="2" points="568.1,-246.75 573.1,-245 568.1,-243.25 568.1,-246.75"/>
<text text-anchor="middle" x="383" y="-247.4" font-family="Times-Roman" font-size="7.00" fill="#6f42c1">about</text>
</g>
<!-- L4YAML.Proofs.ScannerCorrectness.emit_preserves_flowLevel&#45;&gt;L4YAML.Scanner.ScannerState.flowLevel -->
<g id="edge11" class="edge">
<title>L4YAML.Proofs.ScannerCorrectness.emit_preserves_flowLevel&#45;&gt;L4YAML.Scanner.ScannerState.flowLevel</title>
<path fill="none" stroke="#6f42c1" stroke-width="2" stroke-dasharray="5,2" d="M275.4,-227.67C432.47,-199.25 749.96,-151.43 841.11,-210 888.79,-240.64 854.1,-285.84 894.11,-326 896.18,-328.08 898.44,-330.02 900.83,-331.82"/>
<polygon fill="#6f42c1" stroke="#6f42c1" stroke-width="2" points="900.16,-333.49 905.27,-334.92 902.17,-330.62 900.16,-333.49"/>
<text text-anchor="middle" x="622.55" y="-212.4" font-family="Times-Roman" font-size="7.00" fill="#6f42c1">about</text>
</g>
<!-- L4YAML.Proofs.ScannerCorrectness.emit_preserves_flowLevel&#45;&gt;L4YAML.YamlToken -->
<g id="edge9" class="edge">
<title>L4YAML.Proofs.ScannerCorrectness.emit_preserves_flowLevel&#45;&gt;L4YAML.YamlToken</title>
<path fill="none" stroke="#6f42c1" stroke-width="2" stroke-dasharray="5,2" d="M301,-259.26C395.63,-270.99 523.84,-286.89 585.5,-294.53"/>
<polygon fill="#6f42c1" stroke="#6f42c1" stroke-width="2" points="585.37,-296.28 590.54,-295.16 585.8,-292.8 585.37,-296.28"/>
<text text-anchor="middle" x="383" y="-272.4" font-family="Times-Roman" font-size="7.00" fill="#6f42c1">about</text>
</g>
<!-- L4YAML.Proofs.ScannerCorrectness.emit_preserves_flowLevel&#45;&gt;L4YAML.Scanner.ScannerState -->
<g id="edge10" class="edge">
<title>L4YAML.Proofs.ScannerCorrectness.emit_preserves_flowLevel&#45;&gt;L4YAML.Scanner.ScannerState</title>
<path fill="none" stroke="#6f42c1" stroke-width="2" stroke-dasharray="5,2" d="M231.64,-224.6C274.99,-206.41 342.48,-181.16 404,-171 507.51,-153.91 795.68,-103.64 876.11,-171 911.06,-200.28 866.25,-235.91 894.11,-272 898.55,-277.76 904.51,-282.33 910.93,-285.95"/>
<polygon fill="#6f42c1" stroke="#6f42c1" stroke-width="2" points="910.19,-287.54 915.43,-288.31 911.81,-284.44 910.19,-287.54"/>
<text text-anchor="middle" x="622.55" y="-173.4" font-family="Times-Roman" font-size="7.00" fill="#6f42c1">about</text>
</g>
<!-- L4YAML.Proofs.ScannerCorrectness.emit_preserves_flowLevel&#45;&gt;L4YAML.Proofs.EmitterScannability.scanFlowSequenceEnd_flowLevel -->
<g id="edge5" class="edge">
<title>L4YAML.Proofs.ScannerCorrectness.emit_preserves_flowLevel&#45;&gt;L4YAML.Proofs.EmitterScannability.scanFlowSequenceEnd_flowLevel</title>
<path fill="none" stroke="#28a745" d="M235.59,-224.77C274.02,-207.07 326.53,-178.2 362,-140 368.76,-132.72 364,-125.89 372,-120 386.9,-109.02 403.66,-100.55 421.26,-94.05"/>
<polygon fill="#28a745" stroke="#28a745" points="422.52,-96.2 428.31,-91.56 420.9,-91.58 422.52,-96.2"/>
</g>
<!-- L4YAML.Proofs.ScannerCorrectness.advance_preserves_flowLevel -->
<g id="node9" class="node">
<title>L4YAML.Proofs.ScannerCorrectness.advance_preserves_flowLevel</title>
<g id="a_node9"><a xlink:href="../../../api/L4YAML/Proofs/Scanner/ScannerCorrectness.html#L4YAML.Proofs.ScannerCorrectness.advance_preserves_flowLevel" xlink:title="ScannerCorrectness.advance_preserves_flowLevel\n(Scanner.ScannerCorrectness)" target="_blank">
<ellipse fill="#d4edda" stroke="#28a745" cx="185" cy="-305" rx="169" ry="21.43"/>
<text text-anchor="middle" x="185" y="-308" font-family="Helvetica" font-size="10.00">ScannerCorrectness.advance_preserves_flowLevel</text>
<text text-anchor="middle" x="185" y="-297" font-family="Helvetica" font-size="10.00">(Scanner.ScannerCorrectness)</text>
</a>
</g>
</g>
<!-- L4YAML.Proofs.ScannerCorrectness.advance_preserves_flowLevel&#45;&gt;L4YAML.Scanner.ScannerState.advance -->
<g id="edge12" class="edge">
<title>L4YAML.Proofs.ScannerCorrectness.advance_preserves_flowLevel&#45;&gt;L4YAML.Scanner.ScannerState.advance</title>
<path fill="none" stroke="#6f42c1" stroke-width="2" stroke-dasharray="5,2" d="M312.56,-318.95C393.79,-327.9 495.69,-339.13 559.73,-346.19"/>
<polygon fill="#6f42c1" stroke="#6f42c1" stroke-width="2" points="559.88,-347.96 565.04,-346.77 560.26,-344.49 559.88,-347.96"/>
<text text-anchor="middle" x="383" y="-329.4" font-family="Times-Roman" font-size="7.00" fill="#6f42c1">about</text>
</g>
<!-- L4YAML.Proofs.ScannerCorrectness.advance_preserves_flowLevel&#45;&gt;L4YAML.Scanner.ScannerState.flowLevel -->
<g id="edge14" class="edge">
<title>L4YAML.Proofs.ScannerCorrectness.advance_preserves_flowLevel&#45;&gt;L4YAML.Scanner.ScannerState.flowLevel</title>
<path fill="none" stroke="#6f42c1" stroke-width="2" stroke-dasharray="5,2" d="M216.01,-326.01C256.51,-353.04 331.91,-398.8 404,-418 606.92,-472.06 684.02,-521.87 876.11,-437 904.29,-424.55 926.56,-396.02 939.64,-375.67"/>
<polygon fill="#6f42c1" stroke="#6f42c1" stroke-width="2" points="941.27,-376.37 942.45,-371.21 938.3,-374.51 941.27,-376.37"/>
<text text-anchor="middle" x="622.55" y="-484.4" font-family="Times-Roman" font-size="7.00" fill="#6f42c1">about</text>
</g>
<!-- L4YAML.Proofs.ScannerCorrectness.advance_preserves_flowLevel&#45;&gt;L4YAML.Scanner.ScannerState -->
<g id="edge13" class="edge">
<title>L4YAML.Proofs.ScannerCorrectness.advance_preserves_flowLevel&#45;&gt;L4YAML.Scanner.ScannerState</title>
<path fill="none" stroke="#6f42c1" stroke-width="2" stroke-dasharray="5,2" d="M232.1,-325.44C275.49,-343.57 342.77,-368.84 404,-380 455.62,-389.41 834.46,-424.93 876.11,-393 900.58,-374.24 874.23,-349.57 894.11,-326 898.73,-320.51 904.72,-316.08 911.09,-312.51"/>
<polygon fill="#6f42c1" stroke="#6f42c1" stroke-width="2" points="911.93,-314.05 915.55,-310.18 910.31,-310.95 911.93,-314.05"/>
<text text-anchor="middle" x="622.55" y="-408.4" font-family="Times-Roman" font-size="7.00" fill="#6f42c1">about</text>
</g>
<!-- L4YAML.Proofs.ScannerCorrectness.advance_preserves_flowLevel&#45;&gt;L4YAML.Proofs.EmitterScannability.scanFlowSequenceEnd_flowLevel -->
<g id="edge4" class="edge">
<title>L4YAML.Proofs.ScannerCorrectness.advance_preserves_flowLevel&#45;&gt;L4YAML.Proofs.EmitterScannability.scanFlowSequenceEnd_flowLevel</title>
<path fill="none" stroke="#28a745" d="M331.51,-294.19C342.6,-289.31 352.96,-283.03 362,-275 373.77,-264.53 367.5,-256.1 372,-241 386.05,-193.84 368.49,-169.07 404,-135 421.41,-118.29 443.12,-106.38 466.04,-97.94"/>
<polygon fill="#28a745" stroke="#28a745" points="467.06,-100.17 472.85,-95.54 465.44,-95.55 467.06,-100.17"/>
</g>
<!-- eq_self -->
<g id="node10" class="node">
<title>eq_self</title>
<g id="a_node10"><a xlink:href="../../../api/Init/SimpLemmas.html#eq_self" xlink:title="eq_self" target="_blank">
<ellipse fill="#fdebd0" stroke="#e67e22" cx="185" cy="-88" rx="28.01" ry="18"/>
<text text-anchor="middle" x="185" y="-85.5" font-family="Helvetica" font-size="10.00">eq_self</text>
</a>
</g>
</g>
<!-- eq_self&#45;&gt;L4YAML.Proofs.EmitterScannability.scanFlowSequenceEnd_flowLevel -->
<g id="edge6" class="edge">
<title>eq_self&#45;&gt;L4YAML.Proofs.EmitterScannability.scanFlowSequenceEnd_flowLevel</title>
<path fill="none" stroke="#e67e22" stroke-width="2" d="M213.24,-87.44C252.49,-86.63 328.58,-85.05 404.55,-83.48"/>
<polygon fill="#e67e22" stroke="#e67e22" stroke-width="2" points="404.95,-85.93 411.9,-83.33 404.85,-81.03 404.95,-85.93"/>
</g>
<!-- of_eq_true -->
<g id="node11" class="node">
<title>of_eq_true</title>
<g id="a_node11"><a xlink:href="../../../api/Init/SimpLemmas.html#of_eq_true" xlink:title="of_eq_true" target="_blank">
<ellipse fill="#fdebd0" stroke="#e67e22" cx="185" cy="-34" rx="36.49" ry="18"/>
<text text-anchor="middle" x="185" y="-31.5" font-family="Helvetica" font-size="10.00">of_eq_true</text>
</a>
</g>
</g>
<!-- of_eq_true&#45;&gt;L4YAML.Proofs.EmitterScannability.scanFlowSequenceEnd_flowLevel -->
<g id="edge7" class="edge">
<title>of_eq_true&#45;&gt;L4YAML.Proofs.EmitterScannability.scanFlowSequenceEnd_flowLevel</title>
<path fill="none" stroke="#e67e22" stroke-width="2" d="M220.91,-37.61C272.6,-42.95 372.8,-53.3 460.05,-62.31"/>
<polygon fill="#e67e22" stroke="#e67e22" stroke-width="2" points="459.9,-64.76 467.11,-63.04 460.4,-59.89 459.9,-64.76"/>
</g>
</g>
</svg>
