<?xml version="1.0" encoding="UTF-8" standalone="no"?>
<!DOCTYPE svg PUBLIC "-//W3C//DTD SVG 1.1//EN"
 "http://www.w3.org/Graphics/SVG/1.1/DTD/svg11.dtd">
<!-- Generated by graphviz version 2.44.0 (0)
 -->
<!-- Title: EmitterScannability.scanNextToken_preprocess_flow Pages: 1 -->
<svg width="1155pt" height="1189pt"
 viewBox="0.00 0.00 1155.22 1189.00" xmlns="http://www.w3.org/2000/svg" xmlns:xlink="http://www.w3.org/1999/xlink">
<g id="graph0" class="graph" transform="scale(1 1) rotate(0) translate(4 1185)">
<title>EmitterScannability.scanNextToken_preprocess_flow</title>
<polygon fill="white" stroke="transparent" points="-4,4 -4,-1185 1151.22,-1185 1151.22,4 -4,4"/>
<text text-anchor="middle" x="573.61" y="-1166.6" font-family="Helvetica Bold" font-size="13.00">EmitterScannability.scanNextToken_preprocess_flow</text>
<text text-anchor="middle" x="573.61" y="-1152.6" font-family="Helvetica Bold" font-size="13.00">(heuristic: used by 11 proofs)</text>
<text text-anchor="middle" x="573.61" y="-1138.6" font-family="Helvetica Bold" font-size="13.00">(L4YAML.Proofs.Output.EmitterScannability)</text>
<g id="clust1" class="cluster">
<title>cluster_functions</title>
<polygon fill="none" stroke="#4a90d9" stroke-dasharray="5,2" points="632.83,-285 632.83,-791 1139.22,-791 1139.22,-285 632.83,-285"/>
<text text-anchor="middle" x="886.02" y="-776.6" font-family="Helvetica Bold" font-size="13.00" fill="#4a90d9">Functions</text>
</g>
<g id="clust2" class="cluster">
<title>cluster_key</title>
<polygon fill="none" stroke="#d4a017" stroke-dasharray="5,2" points="487.44,-195 487.44,-277 911.22,-277 911.22,-195 487.44,-195"/>
<text text-anchor="middle" x="699.33" y="-262.6" font-family="Helvetica Bold" font-size="13.00" fill="#d4a017">Key Theorem</text>
</g>
<g id="clust3" class="cluster">
<title>cluster_proofs</title>
<polygon fill="none" stroke="#28a745" stroke-dasharray="5,2" points="8,-566 8,-826 445.44,-826 445.44,-566 8,-566"/>
<text text-anchor="middle" x="226.72" y="-811.6" font-family="Helvetica Bold" font-size="13.00" fill="#28a745">Proof Dependencies</text>
</g>
<g id="clust4" class="cluster">
<title>cluster_stdlib</title>
<polygon fill="none" stroke="#e67e22" stroke-dasharray="5,2" points="133.36,-8 133.36,-406 320.07,-406 320.07,-8 133.36,-8"/>
<text text-anchor="middle" x="226.72" y="-391.6" font-family="Helvetica Bold" font-size="13.00" fill="#e67e22">Stdlib Lemmas</text>
</g>
<!-- L4YAML.Scanner.ScannerState.peek? -->
<g id="node1" class="node">
<title>L4YAML.Scanner.ScannerState.peek?</title>
<g id="a_node1"><a xlink:href="../../../api/L4YAML/Scanner/State.html#L4YAML.Scanner.ScannerState.peek?" xlink:title="ScannerState.peek?\n(def)" target="_blank">
<polygon fill="#dce9f7" stroke="#4a90d9" points="751.33,-761 647.33,-761 647.33,-725 751.33,-725 751.33,-761"/>
<text text-anchor="middle" x="699.33" y="-746" font-family="Helvetica" font-size="10.00">ScannerState.peek?</text>
<text text-anchor="middle" x="699.33" y="-735" font-family="Helvetica" font-size="10.00">(def)</text>
</a>
</g>
</g>
<!-- L4YAML.Proofs.CouplingBridge.ScannerSurfCorr -->
<g id="node2" class="node">
<title>L4YAML.Proofs.CouplingBridge.ScannerSurfCorr</title>
<g id="a_node2"><a xlink:href="../../../api/L4YAML/Proofs/Coupling/CouplingBridge.html#L4YAML.Proofs.CouplingBridge.ScannerSurfCorr" xlink:title="CouplingBridge.ScannerSurfCorr\n(inductive)" target="_blank">
<polygon fill="#dce9f7" stroke="#4a90d9" points="1127.22,-761 968.22,-761 968.22,-725 1127.22,-725 1127.22,-761"/>
<text text-anchor="middle" x="1047.72" y="-746" font-family="Helvetica" font-size="10.00">CouplingBridge.ScannerSurfCorr</text>
<text text-anchor="middle" x="1047.72" y="-735" font-family="Helvetica" font-size="10.00">(inductive)</text>
</a>
</g>
</g>
<!-- L4YAML.Scanner.ScannerState -->
<g id="node3" class="node">
<title>L4YAML.Scanner.ScannerState</title>
<g id="a_node3"><a xlink:href="../../../api/L4YAML/Scanner/State.html#L4YAML.Scanner.ScannerState" xlink:title="ScannerState\n(inductive)" target="_blank">
<polygon fill="#dce9f7" stroke="#4a90d9" points="1085.72,-707 1009.72,-707 1009.72,-671 1085.72,-671 1085.72,-707"/>
<text text-anchor="middle" x="1047.72" y="-692" font-family="Helvetica" font-size="10.00">ScannerState</text>
<text text-anchor="middle" x="1047.72" y="-681" font-family="Helvetica" font-size="10.00">(inductive)</text>
</a>
</g>
</g>
<!-- L4YAML.Scanner.IndentEntry -->
<g id="node4" class="node">
<title>L4YAML.Scanner.IndentEntry</title>
<g id="a_node4"><a xlink:href="../../../api/L4YAML/Scanner/State.html#L4YAML.Scanner.IndentEntry" xlink:title="IndentEntry\n(inductive)" target="_blank">
<polygon fill="#dce9f7" stroke="#4a90d9" points="733.33,-491 665.33,-491 665.33,-455 733.33,-455 733.33,-491"/>
<text text-anchor="middle" x="699.33" y="-476" font-family="Helvetica" font-size="10.00">IndentEntry</text>
<text text-anchor="middle" x="699.33" y="-465" font-family="Helvetica" font-size="10.00">(inductive)</text>
</a>
</g>
</g>
<!-- L4YAML.Scanner.ScannerState.indents -->
<g id="node5" class="node">
<title>L4YAML.Scanner.ScannerState.indents</title>
<g id="a_node5"><a xlink:href="../../../api/L4YAML/Scanner/State.html#L4YAML.Scanner.ScannerState.indents" xlink:title="ScannerState.indents\n(def)" target="_blank">
<polygon fill="#dce9f7" stroke="#4a90d9" points="754.33,-545 644.33,-545 644.33,-509 754.33,-509 754.33,-545"/>
<text text-anchor="middle" x="699.33" y="-530" font-family="Helvetica" font-size="10.00">ScannerState.indents</text>
<text text-anchor="middle" x="699.33" y="-519" font-family="Helvetica" font-size="10.00">(def)</text>
</a>
</g>
</g>
<!-- L4YAML.CharPredicates.isWhiteSpaceBool -->
<g id="node6" class="node">
<title>L4YAML.CharPredicates.isWhiteSpaceBool</title>
<g id="a_node6"><a xlink:href="../../../api/L4YAML/Spec/CharPredicates.html#L4YAML.CharPredicates.isWhiteSpaceBool" xlink:title="CharPredicates.isWhiteSpaceBool\n(def)" target="_blank">
<polygon fill="#dce9f7" stroke="#4a90d9" points="1131.22,-437 964.22,-437 964.22,-401 1131.22,-401 1131.22,-437"/>
<text text-anchor="middle" x="1047.72" y="-422" font-family="Helvetica" font-size="10.00">CharPredicates.isWhiteSpaceBool</text>
<text text-anchor="middle" x="1047.72" y="-411" font-family="Helvetica" font-size="10.00">(def)</text>
</a>
</g>
</g>
<!-- L4YAML.CharPredicates.isLineBreakBool -->
<g id="node7" class="node">
<title>L4YAML.CharPredicates.isLineBreakBool</title>
<g id="a_node7"><a xlink:href="../../../api/L4YAML/Spec/CharPredicates.html#L4YAML.CharPredicates.isLineBreakBool" xlink:title="CharPredicates.isLineBreakBool\n(def)" target="_blank">
<polygon fill="#dce9f7" stroke="#4a90d9" points="1126.72,-491 968.72,-491 968.72,-455 1126.72,-455 1126.72,-491"/>
<text text-anchor="middle" x="1047.72" y="-476" font-family="Helvetica" font-size="10.00">CharPredicates.isLineBreakBool</text>
<text text-anchor="middle" x="1047.72" y="-465" font-family="Helvetica" font-size="10.00">(def)</text>
</a>
</g>
</g>
<!-- L4YAML.Scanner.ScannerState.inFlow -->
<g id="node8" class="node">
<title>L4YAML.Scanner.ScannerState.inFlow</title>
<g id="a_node8"><a xlink:href="../../../api/L4YAML/Scanner/State.html#L4YAML.Scanner.ScannerState.inFlow" xlink:title="ScannerState.inFlow\n(def)" target="_blank">
<polygon fill="#dce9f7" stroke="#4a90d9" points="1101.22,-329 994.22,-329 994.22,-293 1101.22,-293 1101.22,-329"/>
<text text-anchor="middle" x="1047.72" y="-314" font-family="Helvetica" font-size="10.00">ScannerState.inFlow</text>
<text text-anchor="middle" x="1047.72" y="-303" font-family="Helvetica" font-size="10.00">(def)</text>
</a>
</g>
</g>
<!-- L4YAML.Surface.SurfPos.mk -->
<g id="node9" class="node">
<title>L4YAML.Surface.SurfPos.mk</title>
<g id="a_node9"><a xlink:href="../../../api/L4YAML/Surface/Combinators.html#L4YAML.Surface.SurfPos.mk" xlink:title="Surface.SurfPos.mk\n(ctor)" target="_blank">
<polygon fill="#dce9f7" stroke="#4a90d9" points="1101.22,-653 994.22,-653 994.22,-617 1101.22,-617 1101.22,-653"/>
<text text-anchor="middle" x="1047.72" y="-638" font-family="Helvetica" font-size="10.00">Surface.SurfPos.mk</text>
<text text-anchor="middle" x="1047.72" y="-627" font-family="Helvetica" font-size="10.00">(ctor)</text>
</a>
</g>
</g>
<!-- L4YAML.Scanner.scanNextToken_preprocess -->
<g id="node10" class="node">
<title>L4YAML.Scanner.scanNextToken_preprocess</title>
<g id="a_node10"><a xlink:href="../../../api/L4YAML/Scanner/Scanner.html#L4YAML.Scanner.scanNextToken_preprocess" xlink:title="scanNextToken_preprocess\n(def)" target="_blank">
<polygon fill="#dce9f7" stroke="#4a90d9" points="1116.22,-383 979.22,-383 979.22,-347 1116.22,-347 1116.22,-383"/>
<text text-anchor="middle" x="1047.72" y="-368" font-family="Helvetica" font-size="10.00">scanNextToken_preprocess</text>
<text text-anchor="middle" x="1047.72" y="-357" font-family="Helvetica" font-size="10.00">(def)</text>
</a>
</g>
</g>
<!-- L4YAML.Scanner.ScannerState.offset -->
<g id="node11" class="node">
<title>L4YAML.Scanner.ScannerState.offset</title>
<g id="a_node11"><a xlink:href="../../../api/L4YAML/Scanner/State.html#L4YAML.Scanner.ScannerState.offset" xlink:title="ScannerState.offset\n(def)" target="_blank">
<polygon fill="#dce9f7" stroke="#4a90d9" points="750.83,-707 647.83,-707 647.83,-671 750.83,-671 750.83,-707"/>
<text text-anchor="middle" x="699.33" y="-692" font-family="Helvetica" font-size="10.00">ScannerState.offset</text>
<text text-anchor="middle" x="699.33" y="-681" font-family="Helvetica" font-size="10.00">(def)</text>
</a>
</g>
</g>
<!-- L4YAML.Scanner.skipToContent -->
<g id="node12" class="node">
<title>L4YAML.Scanner.skipToContent</title>
<g id="a_node12"><a xlink:href="../../../api/L4YAML/Scanner/Whitespace.html#L4YAML.Scanner.skipToContent" xlink:title="skipToContent\n(def)" target="_blank">
<polygon fill="#dce9f7" stroke="#4a90d9" points="739.33,-599 659.33,-599 659.33,-563 739.33,-563 739.33,-599"/>
<text text-anchor="middle" x="699.33" y="-584" font-family="Helvetica" font-size="10.00">skipToContent</text>
<text text-anchor="middle" x="699.33" y="-573" font-family="Helvetica" font-size="10.00">(def)</text>
</a>
</g>
</g>
<!-- L4YAML.ScanError -->
<g id="node13" class="node">
<title>L4YAML.ScanError</title>
<g id="a_node13"><a xlink:href="../../../api/L4YAML/Token/Token.html#L4YAML.ScanError" xlink:title="ScanError\n(inductive)" target="_blank">
<polygon fill="#dce9f7" stroke="#4a90d9" points="1078.72,-545 1016.72,-545 1016.72,-509 1078.72,-509 1078.72,-545"/>
<text text-anchor="middle" x="1047.72" y="-530" font-family="Helvetica" font-size="10.00">ScanError</text>
<text text-anchor="middle" x="1047.72" y="-519" font-family="Helvetica" font-size="10.00">(inductive)</text>
</a>
</g>
</g>
<!-- L4YAML.Scanner.ScannerState.inputEnd -->
<g id="node14" class="node">
<title>L4YAML.Scanner.ScannerState.inputEnd</title>
<g id="a_node14"><a xlink:href="../../../api/L4YAML/Scanner/State.html#L4YAML.Scanner.ScannerState.inputEnd" xlink:title="ScannerState.inputEnd\n(def)" target="_blank">
<polygon fill="#dce9f7" stroke="#4a90d9" points="757.83,-653 640.83,-653 640.83,-617 757.83,-617 757.83,-653"/>
<text text-anchor="middle" x="699.33" y="-638" font-family="Helvetica" font-size="10.00">ScannerState.inputEnd</text>
<text text-anchor="middle" x="699.33" y="-627" font-family="Helvetica" font-size="10.00">(def)</text>
</a>
</g>
</g>
<!-- L4YAML.Scanner.saveSimpleKey -->
<g id="node15" class="node">
<title>L4YAML.Scanner.saveSimpleKey</title>
<g id="a_node15"><a xlink:href="../../../api/L4YAML/Scanner/SimpleKey.html#L4YAML.Scanner.saveSimpleKey" xlink:title="saveSimpleKey\n(def)" target="_blank">
<polygon fill="#dce9f7" stroke="#4a90d9" points="1089.22,-599 1006.22,-599 1006.22,-563 1089.22,-563 1089.22,-599"/>
<text text-anchor="middle" x="1047.72" y="-584" font-family="Helvetica" font-size="10.00">saveSimpleKey</text>
<text text-anchor="middle" x="1047.72" y="-573" font-family="Helvetica" font-size="10.00">(def)</text>
</a>
</g>
</g>
<!-- L4YAML.Proofs.EmitterScannability.scanNextToken_preprocess_flow -->
<g id="node16" class="node">
<title>L4YAML.Proofs.EmitterScannability.scanNextToken_preprocess_flow</title>
<g id="a_node16"><a xlink:href="../../../api/L4YAML/Proofs/Output/EmitterScannability.html#L4YAML.Proofs.EmitterScannability.scanNextToken_preprocess_flow" xlink:title="EmitterScannability.scanNextToken_preprocess_flow" target="_blank">
<polygon fill="#fff3cd" stroke="#d4a017" points="899.11,-217.54 899.11,-232.46 782.08,-243 616.57,-243 499.54,-232.46 499.54,-217.54 616.57,-207 782.08,-207 899.11,-217.54"/>
<polygon fill="none" stroke="#d4a017" points="903.11,-213.89 903.11,-236.11 782.26,-247 616.39,-247 495.54,-236.11 495.54,-213.89 616.39,-203 782.26,-203 903.11,-213.89"/>
<text text-anchor="middle" x="699.33" y="-221.9" font-family="Helvetica" font-size="12.00">EmitterScannability.scanNextToken_preprocess_flow</text>
</a>
</g>
</g>
<!-- L4YAML.Proofs.EmitterScannability.scanNextToken_preprocess_flow&#45;&gt;L4YAML.Proofs.CouplingBridge.ScannerSurfCorr -->
<g id="edge1" class="edge">
<title>L4YAML.Proofs.EmitterScannability.scanNextToken_preprocess_flow&#45;&gt;L4YAML.Proofs.CouplingBridge.ScannerSurfCorr</title>
<path fill="none" stroke="#4a90d9" stroke-width="2" d="M851.25,-240.86C874.17,-249.58 895.4,-262.38 911.22,-281 926.1,-298.53 918.63,-361.15 921.22,-384 937.97,-531.84 869.32,-601.4 964.22,-716 965.44,-717.47 966.74,-718.87 968.11,-720.18"/>
<polygon fill="#4a90d9" stroke="#4a90d9" stroke-width="2" points="966.79,-722.28 973.73,-724.9 969.95,-718.52 966.79,-722.28"/>
<text text-anchor="middle" x="933.72" y="-691.6" font-family="Times-Roman" font-size="8.00" fill="#4a90d9">about</text>
</g>
<!-- L4YAML.Proofs.EmitterScannability.scanNextToken_preprocess_flow&#45;&gt;L4YAML.Scanner.ScannerState -->
<g id="edge4" class="edge">
<title>L4YAML.Proofs.EmitterScannability.scanNextToken_preprocess_flow&#45;&gt;L4YAML.Scanner.ScannerState</title>
<path fill="none" stroke="#4a90d9" stroke-width="2" d="M849.51,-241.04C872.91,-249.71 894.75,-262.44 911.22,-281 932.37,-304.84 906.41,-323.79 921.22,-352 928.24,-365.37 939.72,-361.37 946.22,-375 973.72,-432.68 925.11,-611.46 964.22,-662 973.49,-673.98 988.21,-680.72 1002.66,-684.48"/>
<polygon fill="#4a90d9" stroke="#4a90d9" stroke-width="2" points="1002.34,-686.92 1009.71,-686.1 1003.43,-682.14 1002.34,-686.92"/>
<text text-anchor="middle" x="933.72" y="-377.6" font-family="Times-Roman" font-size="8.00" fill="#4a90d9">about</text>
</g>
<!-- L4YAML.Proofs.EmitterScannability.scanNextToken_preprocess_flow&#45;&gt;L4YAML.CharPredicates.isWhiteSpaceBool -->
<g id="edge8" class="edge">
<title>L4YAML.Proofs.EmitterScannability.scanNextToken_preprocess_flow&#45;&gt;L4YAML.CharPredicates.isWhiteSpaceBool</title>
<path fill="none" stroke="#4a90d9" stroke-width="2" d="M739.13,-202.8C792.83,-175.35 889.59,-138.19 946.22,-190 979.47,-220.42 936.17,-356.72 964.22,-392 965.37,-393.45 966.6,-394.81 967.89,-396.11"/>
<polygon fill="#4a90d9" stroke="#4a90d9" stroke-width="2" points="966.33,-398 973.21,-400.76 969.55,-394.31 966.33,-398"/>
<text text-anchor="middle" x="933.72" y="-192.6" font-family="Times-Roman" font-size="8.00" fill="#4a90d9">about</text>
</g>
<!-- L4YAML.Proofs.EmitterScannability.scanNextToken_preprocess_flow&#45;&gt;L4YAML.CharPredicates.isLineBreakBool -->
<g id="edge2" class="edge">
<title>L4YAML.Proofs.EmitterScannability.scanNextToken_preprocess_flow&#45;&gt;L4YAML.CharPredicates.isLineBreakBool</title>
<path fill="none" stroke="#4a90d9" stroke-width="2" d="M762.51,-202.94C817.96,-187.65 897.67,-177.19 946.22,-222 982.92,-255.87 933.31,-406.78 964.22,-446 965.36,-447.45 966.58,-448.82 967.88,-450.12"/>
<polygon fill="#4a90d9" stroke="#4a90d9" stroke-width="2" points="966.3,-452 973.18,-454.79 969.54,-448.32 966.3,-452"/>
<text text-anchor="middle" x="933.72" y="-224.6" font-family="Times-Roman" font-size="8.00" fill="#4a90d9">about</text>
</g>
<!-- L4YAML.Proofs.EmitterScannability.scanNextToken_preprocess_flow&#45;&gt;L4YAML.Scanner.ScannerState.inFlow -->
<g id="edge6" class="edge">
<title>L4YAML.Proofs.EmitterScannability.scanNextToken_preprocess_flow&#45;&gt;L4YAML.Scanner.ScannerState.inFlow</title>
<path fill="none" stroke="#4a90d9" stroke-width="2" d="M722.76,-202.68C767.32,-161.16 869.29,-80.24 946.22,-126 1005.17,-161.06 1031.69,-244.12 1041.66,-285.97"/>
<polygon fill="#4a90d9" stroke="#4a90d9" stroke-width="2" points="1039.27,-286.53 1043.22,-292.81 1044.05,-285.44 1039.27,-286.53"/>
<text text-anchor="middle" x="933.72" y="-128.6" font-family="Times-Roman" font-size="8.00" fill="#4a90d9">about</text>
</g>
<!-- L4YAML.Proofs.EmitterScannability.scanNextToken_preprocess_flow&#45;&gt;L4YAML.Surface.SurfPos.mk -->
<g id="edge7" class="edge">
<title>L4YAML.Proofs.EmitterScannability.scanNextToken_preprocess_flow&#45;&gt;L4YAML.Surface.SurfPos.mk</title>
<path fill="none" stroke="#4a90d9" stroke-width="2" d="M831.34,-242.6C859.69,-250.9 888.07,-263.1 911.22,-281 917.48,-285.84 943.95,-335.42 946.22,-343 963.15,-399.55 927.98,-561.41 964.22,-608 970.18,-615.66 978.35,-621.17 987.26,-625.13"/>
<polygon fill="#4a90d9" stroke="#4a90d9" stroke-width="2" points="986.44,-627.45 993.85,-627.76 988.25,-622.89 986.44,-627.45"/>
<text text-anchor="middle" x="933.72" y="-345.6" font-family="Times-Roman" font-size="8.00" fill="#4a90d9">about</text>
</g>
<!-- L4YAML.Proofs.EmitterScannability.scanNextToken_preprocess_flow&#45;&gt;L4YAML.Scanner.scanNextToken_preprocess -->
<g id="edge9" class="edge">
<title>L4YAML.Proofs.EmitterScannability.scanNextToken_preprocess_flow&#45;&gt;L4YAML.Scanner.scanNextToken_preprocess</title>
<path fill="none" stroke="#4a90d9" stroke-width="2" d="M728.11,-202.98C778.08,-166.16 883.72,-101.44 946.22,-158 976.03,-184.97 939.03,-306.67 964.22,-338 966.76,-341.16 969.67,-343.95 972.85,-346.42"/>
<polygon fill="#4a90d9" stroke="#4a90d9" stroke-width="2" points="971.69,-348.59 978.85,-350.52 974.46,-344.54 971.69,-348.59"/>
<text text-anchor="middle" x="933.72" y="-160.6" font-family="Times-Roman" font-size="8.00" fill="#4a90d9">about</text>
</g>
<!-- L4YAML.Proofs.EmitterScannability.scanNextToken_preprocess_flow&#45;&gt;L4YAML.ScanError -->
<g id="edge5" class="edge">
<title>L4YAML.Proofs.EmitterScannability.scanNextToken_preprocess_flow&#45;&gt;L4YAML.ScanError</title>
<path fill="none" stroke="#4a90d9" stroke-width="2" d="M903.25,-224.93C919.27,-231.75 933.96,-241.19 946.22,-254 984.11,-293.61 930.45,-456.83 964.22,-500 975.02,-513.81 993.05,-520.65 1009.51,-523.99"/>
<polygon fill="#4a90d9" stroke="#4a90d9" stroke-width="2" points="1009.12,-526.41 1016.44,-525.22 1009.97,-521.59 1009.12,-526.41"/>
<text text-anchor="middle" x="933.72" y="-256.6" font-family="Times-Roman" font-size="8.00" fill="#4a90d9">about</text>
</g>
<!-- L4YAML.Proofs.EmitterScannability.scanNextToken_preprocess_flow&#45;&gt;L4YAML.Scanner.saveSimpleKey -->
<g id="edge3" class="edge">
<title>L4YAML.Proofs.EmitterScannability.scanNextToken_preprocess_flow&#45;&gt;L4YAML.Scanner.saveSimpleKey</title>
<path fill="none" stroke="#4a90d9" stroke-width="2" d="M828.84,-242.81C879.82,-252.65 930.15,-266.82 946.22,-286 984.55,-331.76 927.59,-506.87 964.22,-554 972.73,-564.94 985.77,-571.51 998.99,-575.43"/>
<polygon fill="#4a90d9" stroke="#4a90d9" stroke-width="2" points="998.5,-577.83 1005.9,-577.25 999.75,-573.09 998.5,-577.83"/>
<text text-anchor="middle" x="933.72" y="-288.6" font-family="Times-Roman" font-size="8.00" fill="#4a90d9">about</text>
</g>
<!-- L4YAML.Proofs.EmitterScannability.scanNextToken_preprocess_flow._proof_1_4 -->
<g id="node17" class="node">
<title>L4YAML.Proofs.EmitterScannability.scanNextToken_preprocess_flow._proof_1_4</title>
<g id="a_node17"><a xlink:href="../../../api/L4YAML/Proofs/Output/EmitterScannability.html#L4YAML.Proofs.EmitterScannability.scanNextToken_preprocess_flow._proof_1_4" xlink:title="EmitterScannability.scanNextToken_preprocess_flow._proof_1_4\n(Output.EmitterScannability)" target="_blank">
<ellipse fill="#d4edda" stroke="#28a745" cx="226.72" cy="-595" rx="210.94" ry="21.43"/>
<text text-anchor="middle" x="226.72" y="-598" font-family="Helvetica" font-size="10.00">EmitterScannability.scanNextToken_preprocess_flow._proof_1_4</text>
<text text-anchor="middle" x="226.72" y="-587" font-family="Helvetica" font-size="10.00">(Output.EmitterScannability)</text>
</a>
</g>
</g>
<!-- L4YAML.Proofs.EmitterScannability.scanNextToken_preprocess_flow._proof_1_4&#45;&gt;L4YAML.Scanner.ScannerState -->
<g id="edge23" class="edge">
<title>L4YAML.Proofs.EmitterScannability.scanNextToken_preprocess_flow._proof_1_4&#45;&gt;L4YAML.Scanner.ScannerState</title>
<path fill="none" stroke="#6f42c1" stroke-width="2" stroke-dasharray="5,2" d="M252.51,-573.57C311.95,-522.43 459.71,-396.74 487.44,-387 576.29,-355.8 834.54,-332.33 911.22,-387 922.32,-394.91 914.32,-404.24 921.22,-416 929.66,-430.39 939.64,-428.67 946.22,-444 965.4,-488.67 934.09,-623.85 964.22,-662 973.95,-674.33 989.44,-681.09 1004.37,-684.78"/>
<polygon fill="#6f42c1" stroke="#6f42c1" stroke-width="2" points="1004.14,-686.52 1009.41,-685.92 1004.91,-683.11 1004.14,-686.52"/>
<text text-anchor="middle" x="699.33" y="-389.4" font-family="Times-Roman" font-size="7.00" fill="#6f42c1">about</text>
</g>
<!-- L4YAML.Proofs.EmitterScannability.scanNextToken_preprocess_flow._proof_1_4&#45;&gt;L4YAML.Scanner.IndentEntry -->
<g id="edge21" class="edge">
<title>L4YAML.Proofs.EmitterScannability.scanNextToken_preprocess_flow._proof_1_4&#45;&gt;L4YAML.Scanner.IndentEntry</title>
<path fill="none" stroke="#6f42c1" stroke-width="2" stroke-dasharray="5,2" d="M274.6,-574.23C325.86,-552.39 410.93,-518.64 487.44,-500 546.71,-485.56 617.35,-478.51 659.98,-475.33"/>
<polygon fill="#6f42c1" stroke="#6f42c1" stroke-width="2" points="660.18,-477.07 665.03,-474.96 659.92,-473.58 660.18,-477.07"/>
<text text-anchor="middle" x="466.44" y="-509.4" font-family="Times-Roman" font-size="7.00" fill="#6f42c1">about</text>
</g>
<!-- L4YAML.Proofs.EmitterScannability.scanNextToken_preprocess_flow._proof_1_4&#45;&gt;L4YAML.Scanner.ScannerState.indents -->
<g id="edge22" class="edge">
<title>L4YAML.Proofs.EmitterScannability.scanNextToken_preprocess_flow._proof_1_4&#45;&gt;L4YAML.Scanner.ScannerState.indents</title>
<path fill="none" stroke="#6f42c1" stroke-width="2" stroke-dasharray="5,2" d="M294.8,-574.9C339.81,-562.32 400.65,-547.01 455.44,-539 517.63,-529.9 589.64,-527.33 639.01,-526.77"/>
<polygon fill="#6f42c1" stroke="#6f42c1" stroke-width="2" points="639.03,-528.52 644.02,-526.72 639,-525.02 639.03,-528.52"/>
<text text-anchor="middle" x="466.44" y="-541.4" font-family="Times-Roman" font-size="7.00" fill="#6f42c1">about</text>
</g>
<!-- L4YAML.Proofs.EmitterScannability.scanNextToken_preprocess_flow._proof_1_4&#45;&gt;L4YAML.Proofs.EmitterScannability.scanNextToken_preprocess_flow -->
<g id="edge11" class="edge">
<title>L4YAML.Proofs.EmitterScannability.scanNextToken_preprocess_flow._proof_1_4&#45;&gt;L4YAML.Proofs.EmitterScannability.scanNextToken_preprocess_flow</title>
<path fill="none" stroke="#28a745" d="M267.64,-573.99C318.68,-544.76 405.23,-486.65 445.44,-410 466.18,-370.44 435.32,-349.88 455.44,-310 464.08,-292.86 470.57,-290.17 487.44,-281 515.59,-265.69 548.17,-254.39 579.18,-246.11"/>
<polygon fill="#28a745" stroke="#28a745" points="580.02,-248.42 586.18,-244.28 578.79,-243.68 580.02,-248.42"/>
</g>
<!-- L4YAML.Proofs.EmitterScannability.skipToContent_of_content_char -->
<g id="node18" class="node">
<title>L4YAML.Proofs.EmitterScannability.skipToContent_of_content_char</title>
<g id="a_node18"><a xlink:href="../../../api/L4YAML/Proofs/Output/EmitterScannability.html#L4YAML.Proofs.EmitterScannability.skipToContent_of_content_char" xlink:title="EmitterScannability.skipToContent_of_content_char\n(Output.EmitterScannability)" target="_blank">
<ellipse fill="#d4edda" stroke="#28a745" cx="226.72" cy="-655" rx="171.24" ry="21.43"/>
<text text-anchor="middle" x="226.72" y="-658" font-family="Helvetica" font-size="10.00">EmitterScannability.skipToContent_of_content_char</text>
<text text-anchor="middle" x="226.72" y="-647" font-family="Helvetica" font-size="10.00">(Output.EmitterScannability)</text>
</a>
</g>
</g>
<!-- L4YAML.Proofs.EmitterScannability.skipToContent_of_content_char&#45;&gt;L4YAML.Scanner.ScannerState.peek? -->
<g id="edge30" class="edge">
<title>L4YAML.Proofs.EmitterScannability.skipToContent_of_content_char&#45;&gt;L4YAML.Scanner.ScannerState.peek?</title>
<path fill="none" stroke="#6f42c1" stroke-width="2" stroke-dasharray="5,2" d="M376.43,-665.38C400.04,-669.88 423.79,-676.19 445.44,-685 466.93,-693.74 465.9,-707.36 487.44,-716 537.14,-735.95 598.25,-741.95 641.87,-743.42"/>
<polygon fill="#6f42c1" stroke="#6f42c1" stroke-width="2" points="642.05,-745.17 647.1,-743.57 642.16,-741.68 642.05,-745.17"/>
<text text-anchor="middle" x="466.44" y="-712.4" font-family="Times-Roman" font-size="7.00" fill="#6f42c1">about</text>
</g>
<!-- L4YAML.Proofs.EmitterScannability.skipToContent_of_content_char&#45;&gt;L4YAML.Scanner.ScannerState -->
<g id="edge27" class="edge">
<title>L4YAML.Proofs.EmitterScannability.skipToContent_of_content_char&#45;&gt;L4YAML.Scanner.ScannerState</title>
<path fill="none" stroke="#6f42c1" stroke-width="2" stroke-dasharray="5,2" d="M398.06,-655.03C415.89,-648.57 432.28,-638.94 445.44,-625 464.72,-604.57 447.64,-525.99 455.44,-499 463.93,-469.59 461.24,-453.84 487.44,-438 568.02,-389.27 837.36,-379.58 911.22,-438 991.46,-501.47 894.98,-586.69 964.22,-662 974.67,-673.36 989.96,-679.96 1004.55,-683.78"/>
<polygon fill="#6f42c1" stroke="#6f42c1" stroke-width="2" points="1004.19,-685.49 1009.46,-684.97 1005.02,-682.09 1004.19,-685.49"/>
<text text-anchor="middle" x="699.33" y="-440.4" font-family="Times-Roman" font-size="7.00" fill="#6f42c1">about</text>
</g>
<!-- L4YAML.Proofs.EmitterScannability.skipToContent_of_content_char&#45;&gt;L4YAML.CharPredicates.isWhiteSpaceBool -->
<g id="edge29" class="edge">
<title>L4YAML.Proofs.EmitterScannability.skipToContent_of_content_char&#45;&gt;L4YAML.CharPredicates.isWhiteSpaceBool</title>
<path fill="none" stroke="#6f42c1" stroke-width="2" stroke-dasharray="5,2" d="M397.87,-655.54C415.85,-649.02 432.32,-639.25 445.44,-625 459.3,-609.94 451.67,-461.13 455.44,-441 463.86,-395.96 450.35,-369.9 487.44,-343 639.89,-232.4 725.43,-312.04 911.22,-343 927.44,-345.7 933.9,-344.11 946.22,-355 959.92,-367.12 950.44,-379.98 964.22,-392 966.75,-394.21 969.47,-396.24 972.33,-398.1"/>
<polygon fill="#6f42c1" stroke="#6f42c1" stroke-width="2" points="971.73,-399.79 976.91,-400.9 973.55,-396.8 971.73,-399.79"/>
<text text-anchor="middle" x="699.33" y="-345.4" font-family="Times-Roman" font-size="7.00" fill="#6f42c1">about</text>
</g>
<!-- L4YAML.Proofs.EmitterScannability.skipToContent_of_content_char&#45;&gt;L4YAML.CharPredicates.isLineBreakBool -->
<g id="edge25" class="edge">
<title>L4YAML.Proofs.EmitterScannability.skipToContent_of_content_char&#45;&gt;L4YAML.CharPredicates.isLineBreakBool</title>
<path fill="none" stroke="#6f42c1" stroke-width="2" stroke-dasharray="5,2" d="M397.8,-655.57C415.62,-661.95 432.07,-671.39 445.44,-685 471.77,-711.83 427.72,-743.6 455.44,-769 495.66,-805.86 906.44,-820.33 946.22,-783 992.17,-739.88 925.63,-549.82 964.22,-500 965.75,-498.02 967.44,-496.18 969.24,-494.48"/>
<polygon fill="#6f42c1" stroke="#6f42c1" stroke-width="2" points="970.45,-495.74 973.11,-491.16 968.18,-493.09 970.45,-495.74"/>
<text text-anchor="middle" x="699.33" y="-806.4" font-family="Times-Roman" font-size="7.00" fill="#6f42c1">about</text>
</g>
<!-- L4YAML.Proofs.EmitterScannability.skipToContent_of_content_char&#45;&gt;L4YAML.Scanner.ScannerState.offset -->
<g id="edge24" class="edge">
<title>L4YAML.Proofs.EmitterScannability.skipToContent_of_content_char&#45;&gt;L4YAML.Scanner.ScannerState.offset</title>
<path fill="none" stroke="#6f42c1" stroke-width="2" stroke-dasharray="5,2" d="M375.01,-665.64C465.93,-672.21 577.34,-680.26 642.8,-684.99"/>
<polygon fill="#6f42c1" stroke="#6f42c1" stroke-width="2" points="642.71,-686.74 647.83,-685.35 642.96,-683.25 642.71,-686.74"/>
<text text-anchor="middle" x="466.44" y="-675.4" font-family="Times-Roman" font-size="7.00" fill="#6f42c1">about</text>
</g>
<!-- L4YAML.Proofs.EmitterScannability.skipToContent_of_content_char&#45;&gt;L4YAML.Scanner.skipToContent -->
<g id="edge31" class="edge">
<title>L4YAML.Proofs.EmitterScannability.skipToContent_of_content_char&#45;&gt;L4YAML.Scanner.skipToContent</title>
<path fill="none" stroke="#6f42c1" stroke-width="2" stroke-dasharray="5,2" d="M386.24,-647.25C406.94,-642.24 427.25,-635.09 445.44,-625 451.51,-621.63 449.4,-616.42 455.44,-613 467.96,-605.9 473.18,-610.03 487.44,-608 544.85,-599.84 611.23,-591.53 653.94,-586.32"/>
<polygon fill="#6f42c1" stroke="#6f42c1" stroke-width="2" points="654.27,-588.04 659.03,-585.7 653.85,-584.57 654.27,-588.04"/>
<text text-anchor="middle" x="466.44" y="-615.4" font-family="Times-Roman" font-size="7.00" fill="#6f42c1">about</text>
</g>
<!-- L4YAML.Proofs.EmitterScannability.skipToContent_of_content_char&#45;&gt;L4YAML.ScanError -->
<g id="edge28" class="edge">
<title>L4YAML.Proofs.EmitterScannability.skipToContent_of_content_char&#45;&gt;L4YAML.ScanError</title>
<path fill="none" stroke="#6f42c1" stroke-width="2" stroke-dasharray="5,2" d="M398.06,-654.97C415.89,-661.43 432.28,-671.06 445.44,-685 464.72,-705.43 435.13,-791.59 455.44,-811 494.87,-848.71 906.39,-864.29 946.22,-827 990.6,-785.45 926.93,-602.02 964.22,-554 975.36,-539.65 994.3,-532.83 1011.22,-529.63"/>
<polygon fill="#6f42c1" stroke="#6f42c1" stroke-width="2" points="1011.76,-531.31 1016.4,-528.74 1011.18,-527.86 1011.76,-531.31"/>
<text text-anchor="middle" x="699.33" y="-850.4" font-family="Times-Roman" font-size="7.00" fill="#6f42c1">about</text>
</g>
<!-- L4YAML.Proofs.EmitterScannability.skipToContent_of_content_char&#45;&gt;L4YAML.Scanner.ScannerState.inputEnd -->
<g id="edge26" class="edge">
<title>L4YAML.Proofs.EmitterScannability.skipToContent_of_content_char&#45;&gt;L4YAML.Scanner.ScannerState.inputEnd</title>
<path fill="none" stroke="#6f42c1" stroke-width="2" stroke-dasharray="5,2" d="M324.67,-637.54C370.8,-630.83 426.82,-624.97 477.44,-626 530.83,-627.09 591.43,-629.65 635.64,-631.77"/>
<polygon fill="#6f42c1" stroke="#6f42c1" stroke-width="2" points="635.6,-633.52 640.68,-632.01 635.77,-630.02 635.6,-633.52"/>
<text text-anchor="middle" x="466.44" y="-628.4" font-family="Times-Roman" font-size="7.00" fill="#6f42c1">about</text>
</g>
<!-- L4YAML.Proofs.EmitterScannability.skipToContent_of_content_char&#45;&gt;L4YAML.Proofs.EmitterScannability.scanNextToken_preprocess_flow -->
<g id="edge12" class="edge">
<title>L4YAML.Proofs.EmitterScannability.skipToContent_of_content_char&#45;&gt;L4YAML.Proofs.EmitterScannability.scanNextToken_preprocess_flow</title>
<path fill="none" stroke="#28a745" d="M397.88,-655.89C415.92,-649.33 432.4,-639.45 445.44,-625 467.04,-601.06 444.37,-365.28 455.44,-335 460.87,-320.13 469.62,-320.76 477.44,-307 483.55,-296.23 478.22,-289.27 487.44,-281 505.99,-264.34 528.94,-252.55 552.8,-244.22"/>
<polygon fill="#28a745" stroke="#28a745" points="553.69,-246.51 559.55,-241.96 552.14,-241.86 553.69,-246.51"/>
</g>
<!-- L4YAML.Proofs.EmitterScannability.peek_of_chars_cons -->
<g id="node19" class="node">
<title>L4YAML.Proofs.EmitterScannability.peek_of_chars_cons</title>
<g id="a_node19"><a xlink:href="../../../api/L4YAML/Proofs/Output/EmitterScannability.html#L4YAML.Proofs.EmitterScannability.peek_of_chars_cons" xlink:title="EmitterScannability.peek_of_chars_cons\n(Output.EmitterScannability)" target="_blank">
<ellipse fill="#d4edda" stroke="#28a745" cx="226.72" cy="-775" rx="137.36" ry="21.43"/>
<text text-anchor="middle" x="226.72" y="-778" font-family="Helvetica" font-size="10.00">EmitterScannability.peek_of_chars_cons</text>
<text text-anchor="middle" x="226.72" y="-767" font-family="Helvetica" font-size="10.00">(Output.EmitterScannability)</text>
</a>
</g>
</g>
<!-- L4YAML.Proofs.EmitterScannability.peek_of_chars_cons&#45;&gt;L4YAML.Scanner.ScannerState.peek? -->
<g id="edge37" class="edge">
<title>L4YAML.Proofs.EmitterScannability.peek_of_chars_cons&#45;&gt;L4YAML.Scanner.ScannerState.peek?</title>
<path fill="none" stroke="#6f42c1" stroke-width="2" stroke-dasharray="5,2" d="M244.07,-796.23C286.72,-849.17 403.15,-977.95 477.44,-909 499.32,-888.69 467.14,-796.9 487.44,-775 525.93,-733.46 593.69,-730.13 642.02,-734.18"/>
<polygon fill="#6f42c1" stroke="#6f42c1" stroke-width="2" points="642.08,-735.95 647.22,-734.65 642.4,-732.46 642.08,-735.95"/>
<text text-anchor="middle" x="466.44" y="-923.4" font-family="Times-Roman" font-size="7.00" fill="#6f42c1">about</text>
</g>
<!-- L4YAML.Proofs.EmitterScannability.peek_of_chars_cons&#45;&gt;L4YAML.Proofs.CouplingBridge.ScannerSurfCorr -->
<g id="edge32" class="edge">
<title>L4YAML.Proofs.EmitterScannability.peek_of_chars_cons&#45;&gt;L4YAML.Proofs.CouplingBridge.ScannerSurfCorr</title>
<path fill="none" stroke="#6f42c1" stroke-width="2" stroke-dasharray="5,2" d="M238.7,-796.39C266.6,-848.13 345.87,-979.54 455.44,-1031 652.98,-1123.77 769.33,-1174.83 946.22,-1047 1038.72,-980.16 1047.49,-825.01 1047.34,-766.18"/>
<polygon fill="#6f42c1" stroke="#6f42c1" stroke-width="2" points="1049.09,-766.11 1047.3,-761.12 1045.59,-766.13 1049.09,-766.11"/>
<text text-anchor="middle" x="699.33" y="-1125.4" font-family="Times-Roman" font-size="7.00" fill="#6f42c1">about</text>
</g>
<!-- L4YAML.Proofs.EmitterScannability.peek_of_chars_cons&#45;&gt;L4YAML.Scanner.ScannerState -->
<g id="edge35" class="edge">
<title>L4YAML.Proofs.EmitterScannability.peek_of_chars_cons&#45;&gt;L4YAML.Scanner.ScannerState</title>
<path fill="none" stroke="#6f42c1" stroke-width="2" stroke-dasharray="5,2" d="M241.93,-796.42C273.72,-842.2 355.71,-948.74 455.44,-990 505.84,-1010.86 906.46,-1040.35 946.22,-1003 992.8,-959.25 925.11,-766.54 964.22,-716 973.91,-703.47 989.56,-696.68 1004.63,-693.03"/>
<polygon fill="#6f42c1" stroke="#6f42c1" stroke-width="2" points="1005.2,-694.69 1009.71,-691.9 1004.45,-691.27 1005.2,-694.69"/>
<text text-anchor="middle" x="699.33" y="-1022.4" font-family="Times-Roman" font-size="7.00" fill="#6f42c1">about</text>
</g>
<!-- L4YAML.Proofs.EmitterScannability.peek_of_chars_cons&#45;&gt;L4YAML.Surface.SurfPos.mk -->
<g id="edge36" class="edge">
<title>L4YAML.Proofs.EmitterScannability.peek_of_chars_cons&#45;&gt;L4YAML.Surface.SurfPos.mk</title>
<path fill="none" stroke="#6f42c1" stroke-width="2" stroke-dasharray="5,2" d="M254.92,-795.78C296.79,-827.32 380.1,-888.34 455.44,-933 469.11,-941.11 471.96,-945.35 487.44,-949 579.09,-970.64 828.29,-993.62 911.22,-949 936.08,-935.63 937.07,-922.7 946.22,-896 963.13,-846.66 932.01,-703.02 964.22,-662 970.62,-653.85 979.53,-648.13 989.14,-644.12"/>
<polygon fill="#6f42c1" stroke="#6f42c1" stroke-width="2" points="989.87,-645.72 993.91,-642.29 988.62,-642.45 989.87,-645.72"/>
<text text-anchor="middle" x="699.33" y="-976.4" font-family="Times-Roman" font-size="7.00" fill="#6f42c1">about</text>
</g>
<!-- L4YAML.Proofs.EmitterScannability.peek_of_chars_cons&#45;&gt;L4YAML.Scanner.ScannerState.offset -->
<g id="edge33" class="edge">
<title>L4YAML.Proofs.EmitterScannability.peek_of_chars_cons&#45;&gt;L4YAML.Scanner.ScannerState.offset</title>
<path fill="none" stroke="#6f42c1" stroke-width="2" stroke-dasharray="5,2" d="M355.64,-782.27C388.18,-783.82 423.09,-785.22 455.44,-786 465.21,-786.24 470.05,-792.41 477.44,-786 501.18,-765.41 465.05,-738.06 487.44,-716 527.51,-676.5 594.64,-674.47 642.4,-679.29"/>
<polygon fill="#6f42c1" stroke="#6f42c1" stroke-width="2" points="642.38,-681.05 647.54,-679.84 642.75,-677.57 642.38,-681.05"/>
<text text-anchor="middle" x="466.44" y="-790.4" font-family="Times-Roman" font-size="7.00" fill="#6f42c1">about</text>
</g>
<!-- L4YAML.Proofs.EmitterScannability.peek_of_chars_cons&#45;&gt;L4YAML.Scanner.ScannerState.inputEnd -->
<g id="edge34" class="edge">
<title>L4YAML.Proofs.EmitterScannability.peek_of_chars_cons&#45;&gt;L4YAML.Scanner.ScannerState.inputEnd</title>
<path fill="none" stroke="#6f42c1" stroke-width="2" stroke-dasharray="5,2" d="M335.19,-787.99C384.97,-787.81 441.02,-777.76 477.44,-741 502.34,-715.86 462.43,-687.04 487.44,-662 525.31,-624.07 588.07,-620.48 635.3,-624.48"/>
<polygon fill="#6f42c1" stroke="#6f42c1" stroke-width="2" points="635.26,-626.24 640.4,-624.95 635.58,-622.75 635.26,-626.24"/>
<text text-anchor="middle" x="466.44" y="-759.4" font-family="Times-Roman" font-size="7.00" fill="#6f42c1">about</text>
</g>
<!-- L4YAML.Proofs.EmitterScannability.peek_of_chars_cons&#45;&gt;L4YAML.Proofs.EmitterScannability.scanNextToken_preprocess_flow -->
<g id="edge10" class="edge">
<title>L4YAML.Proofs.EmitterScannability.peek_of_chars_cons&#45;&gt;L4YAML.Proofs.EmitterScannability.scanNextToken_preprocess_flow</title>
<path fill="none" stroke="#28a745" d="M353.33,-783.19C386.97,-779.11 420.8,-768.37 445.44,-745 462.51,-728.81 445.67,-714.41 455.44,-693 462,-678.6 472.07,-679.89 477.44,-665 484.67,-644.92 474.21,-297.75 487.44,-281 500.73,-264.18 518.45,-252.05 538,-243.38"/>
<polygon fill="#28a745" stroke="#28a745" points="539.19,-245.53 544.69,-240.56 537.29,-241.02 539.19,-245.53"/>
</g>
<!-- L4YAML.Proofs.EmitterScannability.saveSimpleKey_preserves_peek -->
<g id="node20" class="node">
<title>L4YAML.Proofs.EmitterScannability.saveSimpleKey_preserves_peek</title>
<g id="a_node20"><a xlink:href="../../../api/L4YAML/Proofs/Output/EmitterScannability.html#L4YAML.Proofs.EmitterScannability.saveSimpleKey_preserves_peek" xlink:title="EmitterScannability.saveSimpleKey_preserves_peek\n(Output.EmitterScannability)" target="_blank">
<ellipse fill="#d4edda" stroke="#28a745" cx="226.72" cy="-715" rx="173.48" ry="21.43"/>
<text text-anchor="middle" x="226.72" y="-718" font-family="Helvetica" font-size="10.00">EmitterScannability.saveSimpleKey_preserves_peek</text>
<text text-anchor="middle" x="226.72" y="-707" font-family="Helvetica" font-size="10.00">(Output.EmitterScannability)</text>
</a>
</g>
</g>
<!-- L4YAML.Proofs.EmitterScannability.saveSimpleKey_preserves_peek&#45;&gt;L4YAML.Scanner.ScannerState.peek? -->
<g id="edge40" class="edge">
<title>L4YAML.Proofs.EmitterScannability.saveSimpleKey_preserves_peek&#45;&gt;L4YAML.Scanner.ScannerState.peek?</title>
<path fill="none" stroke="#6f42c1" stroke-width="2" stroke-dasharray="5,2" d="M382.79,-724.23C471.75,-729.52 578.09,-735.85 641.81,-739.64"/>
<polygon fill="#6f42c1" stroke="#6f42c1" stroke-width="2" points="641.99,-741.4 647.09,-739.95 642.2,-737.91 641.99,-741.4"/>
<text text-anchor="middle" x="466.44" y="-731.4" font-family="Times-Roman" font-size="7.00" fill="#6f42c1">about</text>
</g>
<!-- L4YAML.Proofs.EmitterScannability.saveSimpleKey_preserves_peek&#45;&gt;L4YAML.Scanner.ScannerState -->
<g id="edge39" class="edge">
<title>L4YAML.Proofs.EmitterScannability.saveSimpleKey_preserves_peek&#45;&gt;L4YAML.Scanner.ScannerState</title>
<path fill="none" stroke="#6f42c1" stroke-width="2" stroke-dasharray="5,2" d="M399.15,-717.14C416.29,-723.36 432.21,-732.33 445.44,-745 463.38,-762.19 449.31,-775.92 455.44,-800 466.63,-843.99 451.4,-869.39 487.44,-897 527.96,-928.04 908.58,-955.48 946.22,-921 979.94,-890.11 935.78,-751.82 964.22,-716 973.99,-703.7 989.47,-696.94 1004.41,-693.25"/>
<polygon fill="#6f42c1" stroke="#6f42c1" stroke-width="2" points="1004.95,-694.92 1009.44,-692.11 1004.18,-691.5 1004.95,-694.92"/>
<text text-anchor="middle" x="699.33" y="-939.4" font-family="Times-Roman" font-size="7.00" fill="#6f42c1">about</text>
</g>
<!-- L4YAML.Proofs.EmitterScannability.saveSimpleKey_preserves_peek&#45;&gt;L4YAML.Scanner.saveSimpleKey -->
<g id="edge38" class="edge">
<title>L4YAML.Proofs.EmitterScannability.saveSimpleKey_preserves_peek&#45;&gt;L4YAML.Scanner.saveSimpleKey</title>
<path fill="none" stroke="#6f42c1" stroke-width="2" stroke-dasharray="5,2" d="M399.67,-716.25C416.77,-722.61 432.54,-731.86 445.44,-745 458.61,-758.41 447.09,-812.15 455.44,-829 464.22,-846.74 469.18,-852.34 487.44,-860 510.94,-869.87 927.59,-888.4 946.22,-871 989.03,-831.02 928.24,-654.23 964.22,-608 973.12,-596.56 986.98,-589.91 1000.82,-586.06"/>
<polygon fill="#6f42c1" stroke="#6f42c1" stroke-width="2" points="1001.49,-587.69 1005.9,-584.76 1000.63,-584.3 1001.49,-587.69"/>
<text text-anchor="middle" x="699.33" y="-880.4" font-family="Times-Roman" font-size="7.00" fill="#6f42c1">about</text>
</g>
<!-- L4YAML.Proofs.EmitterScannability.saveSimpleKey_preserves_peek&#45;&gt;L4YAML.Proofs.EmitterScannability.scanNextToken_preprocess_flow -->
<g id="edge13" class="edge">
<title>L4YAML.Proofs.EmitterScannability.saveSimpleKey_preserves_peek&#45;&gt;L4YAML.Proofs.EmitterScannability.scanNextToken_preprocess_flow</title>
<path fill="none" stroke="#28a745" d="M395.74,-710.12C413.65,-704.42 430.68,-696.32 445.44,-685 449.07,-682.21 476.46,-613.48 477.44,-609 481.32,-591.19 476.1,-295.28 487.44,-281 500.77,-264.2 518.51,-252.1 538.07,-243.43"/>
<polygon fill="#28a745" stroke="#28a745" points="539.26,-245.59 544.76,-240.62 537.36,-241.07 539.26,-245.59"/>
</g>
<!-- Decidable.decide.congr_simp -->
<g id="node21" class="node">
<title>Decidable.decide.congr_simp</title>
<g id="a_node21"><a xlink:href="../../../api/Init/SimpLemmas.html#Decidable.decide.congr_simp" xlink:title="Decidable.decide.congr_simp" target="_blank">
<ellipse fill="#fdebd0" stroke="#e67e22" cx="226.72" cy="-142" rx="85.21" ry="18"/>
<text text-anchor="middle" x="226.72" y="-139.5" font-family="Helvetica" font-size="10.00">Decidable.decide.congr_simp</text>
</a>
</g>
</g>
<!-- Decidable.decide.congr_simp&#45;&gt;L4YAML.Proofs.EmitterScannability.scanNextToken_preprocess_flow -->
<g id="edge14" class="edge">
<title>Decidable.decide.congr_simp&#45;&gt;L4YAML.Proofs.EmitterScannability.scanNextToken_preprocess_flow</title>
<path fill="none" stroke="#e67e22" stroke-width="2" d="M304.05,-149.68C345.93,-154.34 398.71,-160.95 445.44,-169 498.13,-178.08 556.43,-190.81 603.76,-201.83"/>
<polygon fill="#e67e22" stroke="#e67e22" stroke-width="2" points="603.29,-204.24 610.66,-203.45 604.4,-199.47 603.29,-204.24"/>
</g>
<!-- decide_eq_true -->
<g id="node22" class="node">
<title>decide_eq_true</title>
<g id="a_node22"><a xlink:href="../../../api/Init/Prelude.html#decide_eq_true" xlink:title="decide_eq_true" target="_blank">
<ellipse fill="#fdebd0" stroke="#e67e22" cx="226.72" cy="-88" rx="48.72" ry="18"/>
<text text-anchor="middle" x="226.72" y="-85.5" font-family="Helvetica" font-size="10.00">decide_eq_true</text>
</a>
</g>
</g>
<!-- decide_eq_true&#45;&gt;L4YAML.Proofs.EmitterScannability.scanNextToken_preprocess_flow -->
<g id="edge15" class="edge">
<title>decide_eq_true&#45;&gt;L4YAML.Proofs.EmitterScannability.scanNextToken_preprocess_flow</title>
<path fill="none" stroke="#e67e22" stroke-width="2" d="M275.62,-90C320.25,-92.78 388.31,-99.38 445.44,-115 520.13,-135.42 601.39,-173.94 651.1,-199.55"/>
<polygon fill="#e67e22" stroke="#e67e22" stroke-width="2" points="650.26,-201.87 657.6,-202.91 652.51,-197.52 650.26,-201.87"/>
</g>
<!-- Bool.false_eq_true -->
<g id="node23" class="node">
<title>Bool.false_eq_true</title>
<g id="a_node23"><a xlink:href="../../../api/Init/Data/Bool.html#Bool.false_eq_true" xlink:title="Bool.false_eq_true" target="_blank">
<ellipse fill="#fdebd0" stroke="#e67e22" cx="226.72" cy="-34" rx="57.88" ry="18"/>
<text text-anchor="middle" x="226.72" y="-31.5" font-family="Helvetica" font-size="10.00">Bool.false_eq_true</text>
</a>
</g>
</g>
<!-- Bool.false_eq_true&#45;&gt;L4YAML.Proofs.EmitterScannability.scanNextToken_preprocess_flow -->
<g id="edge16" class="edge">
<title>Bool.false_eq_true&#45;&gt;L4YAML.Proofs.EmitterScannability.scanNextToken_preprocess_flow</title>
<path fill="none" stroke="#e67e22" stroke-width="2" d="M284.83,-34.13C329.72,-35.86 393.19,-41.97 445.44,-61 533.61,-93.12 622.35,-160.72 667.59,-198.32"/>
<polygon fill="#e67e22" stroke="#e67e22" stroke-width="2" points="666.21,-200.37 673.15,-202.98 669.36,-196.61 666.21,-200.37"/>
</g>
<!-- decide_false -->
<g id="node24" class="node">
<title>decide_false</title>
<g id="a_node24"><a xlink:href="../../../api/Init/Core.html#decide_false" xlink:title="decide_false" target="_blank">
<ellipse fill="#fdebd0" stroke="#e67e22" cx="226.72" cy="-358" rx="41.59" ry="18"/>
<text text-anchor="middle" x="226.72" y="-355.5" font-family="Helvetica" font-size="10.00">decide_false</text>
</a>
</g>
</g>
<!-- decide_false&#45;&gt;L4YAML.Proofs.EmitterScannability.scanNextToken_preprocess_flow -->
<g id="edge17" class="edge">
<title>decide_false&#45;&gt;L4YAML.Proofs.EmitterScannability.scanNextToken_preprocess_flow</title>
<path fill="none" stroke="#e67e22" stroke-width="2" d="M265.36,-365.22C313.5,-372.1 396.5,-375.69 445.44,-331 460.89,-316.89 440.85,-300 455.44,-285 474.91,-264.97 499.92,-251.22 526.46,-241.86"/>
<polygon fill="#e67e22" stroke="#e67e22" stroke-width="2" points="527.39,-244.13 533.24,-239.57 525.82,-239.49 527.39,-244.13"/>
</g>
<!-- Bool.false_and -->
<g id="node25" class="node">
<title>Bool.false_and</title>
<g id="a_node25"><a xlink:href="../../../api/Init/SimpLemmas.html#Bool.false_and" xlink:title="Bool.false_and" target="_blank">
<ellipse fill="#fdebd0" stroke="#e67e22" cx="226.72" cy="-304" rx="47.86" ry="18"/>
<text text-anchor="middle" x="226.72" y="-301.5" font-family="Helvetica" font-size="10.00">Bool.false_and</text>
</a>
</g>
</g>
<!-- Bool.false_and&#45;&gt;L4YAML.Proofs.EmitterScannability.scanNextToken_preprocess_flow -->
<g id="edge18" class="edge">
<title>Bool.false_and&#45;&gt;L4YAML.Proofs.EmitterScannability.scanNextToken_preprocess_flow</title>
<path fill="none" stroke="#e67e22" stroke-width="2" d="M272.5,-309.39C319.47,-312.71 393.55,-311.09 445.44,-277 452.76,-272.19 448.16,-264.88 455.44,-260 468.09,-251.51 481.95,-244.7 496.43,-239.29"/>
<polygon fill="#e67e22" stroke="#e67e22" stroke-width="2" points="497.36,-241.55 503.13,-236.89 495.71,-236.94 497.36,-241.55"/>
</g>
<!-- ite_cond_eq_false -->
<g id="node26" class="node">
<title>ite_cond_eq_false</title>
<g id="a_node26"><a xlink:href="../../../api/Init/SimpLemmas.html#ite_cond_eq_false" xlink:title="ite_cond_eq_false" target="_blank">
<ellipse fill="#fdebd0" stroke="#e67e22" cx="226.72" cy="-250" rx="55.85" ry="18"/>
<text text-anchor="middle" x="226.72" y="-247.5" font-family="Helvetica" font-size="10.00">ite_cond_eq_false</text>
</a>
</g>
</g>
<!-- ite_cond_eq_false&#45;&gt;L4YAML.Proofs.EmitterScannability.scanNextToken_preprocess_flow -->
<g id="edge19" class="edge">
<title>ite_cond_eq_false&#45;&gt;L4YAML.Proofs.EmitterScannability.scanNextToken_preprocess_flow</title>
<path fill="none" stroke="#e67e22" stroke-width="2" d="M281.53,-246.08C327.66,-242.81 395.89,-238.19 455.44,-235 466.15,-234.43 477.14,-233.87 488.23,-233.33"/>
<polygon fill="#e67e22" stroke="#e67e22" stroke-width="2" points="488.66,-235.76 495.53,-232.98 488.42,-230.87 488.66,-235.76"/>
</g>
<!-- Bool.not_true -->
<g id="node27" class="node">
<title>Bool.not_true</title>
<g id="a_node27"><a xlink:href="../../../api/Init/SimpLemmas.html#Bool.not_true" xlink:title="Bool.not_true" target="_blank">
<ellipse fill="#fdebd0" stroke="#e67e22" cx="226.72" cy="-196" rx="43.62" ry="18"/>
<text text-anchor="middle" x="226.72" y="-193.5" font-family="Helvetica" font-size="10.00">Bool.not_true</text>
</a>
</g>
</g>
<!-- Bool.not_true&#45;&gt;L4YAML.Proofs.EmitterScannability.scanNextToken_preprocess_flow -->
<g id="edge20" class="edge">
<title>Bool.not_true&#45;&gt;L4YAML.Proofs.EmitterScannability.scanNextToken_preprocess_flow</title>
<path fill="none" stroke="#e67e22" stroke-width="2" d="M269.9,-198.6C321.52,-201.78 412.57,-207.39 497.5,-212.62"/>
<polygon fill="#e67e22" stroke="#e67e22" stroke-width="2" points="497.51,-215.08 504.64,-213.06 497.81,-210.19 497.51,-215.08"/>
</g>
</g>
</svg>
