<?xml version="1.0" encoding="UTF-8" standalone="no"?>
<!DOCTYPE svg PUBLIC "-//W3C//DTD SVG 1.1//EN"
 "http://www.w3.org/Graphics/SVG/1.1/DTD/svg11.dtd">
<!-- Generated by graphviz version 2.44.0 (0)
 -->
<!-- Title: chain_EmitterScannability.SimpleKeyAboveFloor_of_preserved Pages: 1 -->
<svg width="3641pt" height="230pt"
 viewBox="0.00 0.00 3641.00 229.96" xmlns="http://www.w3.org/2000/svg" xmlns:xlink="http://www.w3.org/1999/xlink">
<g id="graph0" class="graph" transform="scale(1 1) rotate(0) translate(4 225.96)">
<title>chain_EmitterScannability.SimpleKeyAboveFloor_of_preserved</title>
<polygon fill="white" stroke="transparent" points="-4,4 -4,-225.96 3637,-225.96 3637,4 -4,4"/>
<text text-anchor="middle" x="1816.5" y="-207.56" font-family="Helvetica Bold" font-size="13.00">Functorial bridge: EmitterScannability.SimpleKeyAboveFloor_of_preserved\nProp&#45;wrapped — proof has no project theorem citations\n(heuristic: used by 5 proofs)</text>
<g id="clust1" class="cluster">
<title>cluster_direct</title>
<polygon fill="none" stroke="#4a90d9" stroke-dasharray="5,2" points="454,-8 454,-82 1178,-82 1178,-8 454,-8"/>
<text text-anchor="middle" x="816" y="-67.6" font-family="Helvetica Bold" font-size="13.00" fill="#4a90d9">About (direct — mentioned in type)</text>
</g>
<g id="clust2" class="cluster">
<title>cluster_extra</title>
<polygon fill="none" stroke="#e67e22" stroke-dasharray="5,2" points="81,-8 81,-82 378,-82 378,-8 81,-8"/>
<text text-anchor="middle" x="229.5" y="-67.6" font-family="Helvetica Bold" font-size="13.00" fill="#e67e22">About (via Prop&#45;unfold)</text>
</g>
<g id="clust3" class="cluster">
<title>cluster_coverage</title>
<polygon fill="none" stroke="#28a745" stroke-dasharray="5,2" points="416,-117.96 416,-191.96 3625,-191.96 3625,-117.96 416,-117.96"/>
<text text-anchor="middle" x="2020.5" y="-177.56" font-family="Helvetica Bold" font-size="13.00" fill="#28a745">Catalogue coverage &#160;(NOT proof deps of the headline)</text>
</g>
<!-- L4YAML.Proofs.EmitterScannability.SimpleKeyAboveFloor_of_preserved -->
<g id="node1" class="node">
<title>L4YAML.Proofs.EmitterScannability.SimpleKeyAboveFloor_of_preserved</title>
<polygon fill="#fff3cd" stroke="#d4a017" points="401.99,-134.46 401.99,-153.46 285.42,-166.89 120.57,-166.89 4,-153.46 4,-134.46 120.57,-121.03 285.42,-121.03 401.99,-134.46"/>
<polygon fill="none" stroke="#d4a017" points="405.99,-130.9 405.99,-157.02 285.65,-170.88 120.34,-170.88 0,-157.02 0,-130.9 120.34,-117.04 285.65,-117.04 405.99,-130.9"/>
<text text-anchor="middle" x="203" y="-146.96" font-family="Helvetica" font-size="10.00">EmitterScannability.SimpleKeyAboveFloor_of_preserved</text>
<text text-anchor="middle" x="203" y="-135.96" font-family="Helvetica" font-size="10.00">(Prop bridge)</text>
</g>
<!-- L4YAML.Scanner.ScannerState.simpleKeyStack -->
<g id="node2" class="node">
<title>L4YAML.Scanner.ScannerState.simpleKeyStack</title>
<g id="a_node2"><a xlink:href="../../../api/L4YAML/Scanner/State.html#L4YAML.Scanner.ScannerState.simpleKeyStack" xlink:title="ScannerState.simpleKeyStack" target="_blank">
<polygon fill="#dce9f7" stroke="#4a90d9" points="1075.5,-52 926.5,-52 926.5,-16 1075.5,-16 1075.5,-52"/>
<text text-anchor="middle" x="1001" y="-31.5" font-family="Helvetica" font-size="10.00">ScannerState.simpleKeyStack</text>
</a>
</g>
</g>
<!-- L4YAML.Proofs.EmitterScannability.SimpleKeyAboveFloor_of_preserved&#45;&gt;L4YAML.Scanner.ScannerState.simpleKeyStack -->
<g id="edge1" class="edge">
<title>L4YAML.Proofs.EmitterScannability.SimpleKeyAboveFloor_of_preserved&#45;&gt;L4YAML.Scanner.ScannerState.simpleKeyStack</title>
<path fill="none" stroke="#4a90d9" stroke-width="2" d="M344.2,-123.77C366.84,-121.17 390.04,-118.79 412,-117 514.4,-108.66 773.77,-121.61 874,-99 883.9,-96.77 885.55,-93.74 895,-90 904.67,-86.17 907.54,-86.33 917,-82 933.88,-74.27 951.93,-64.39 966.96,-55.69"/>
<polygon fill="#4a90d9" stroke="#4a90d9" stroke-width="2" points="968.39,-57.69 973.2,-52.04 965.92,-53.46 968.39,-57.69"/>
<text text-anchor="middle" x="907.5" y="-92.6" font-family="Times-Roman" font-size="8.00" fill="#4a90d9">about</text>
</g>
<!-- L4YAML.Proofs.EmitterScannability.SimpleKeyAboveFloor -->
<g id="node3" class="node">
<title>L4YAML.Proofs.EmitterScannability.SimpleKeyAboveFloor</title>
<g id="a_node3"><a xlink:href="../../../api/L4YAML/Proofs/Output/EmitterScannability.html#L4YAML.Proofs.EmitterScannability.SimpleKeyAboveFloor" xlink:title="EmitterScannability.SimpleKeyAboveFloor\n(Prop&#45;typed)" target="_blank">
<polygon fill="#dce9f7" stroke="#4a90d9" points="661.5,-52 462.5,-52 462.5,-16 661.5,-16 661.5,-52"/>
<text text-anchor="middle" x="562" y="-37" font-family="Helvetica" font-size="10.00">EmitterScannability.SimpleKeyAboveFloor</text>
<text text-anchor="middle" x="562" y="-26" font-family="Helvetica" font-size="10.00">(Prop&#45;typed)</text>
</a>
</g>
</g>
<!-- L4YAML.Proofs.EmitterScannability.SimpleKeyAboveFloor_of_preserved&#45;&gt;L4YAML.Proofs.EmitterScannability.SimpleKeyAboveFloor -->
<g id="edge2" class="edge">
<title>L4YAML.Proofs.EmitterScannability.SimpleKeyAboveFloor_of_preserved&#45;&gt;L4YAML.Proofs.EmitterScannability.SimpleKeyAboveFloor</title>
<path fill="none" stroke="#4a90d9" stroke-width="2" d="M288.53,-117.24C353,-97.85 439.99,-71.69 498.39,-54.13"/>
<polygon fill="#4a90d9" stroke="#4a90d9" stroke-width="2" points="499.37,-56.39 505.37,-52.03 497.96,-51.7 499.37,-56.39"/>
<text text-anchor="middle" x="383.5" y="-92.6" font-family="Times-Roman" font-size="8.00" fill="#4a90d9">about</text>
</g>
<!-- L4YAML.Scanner.ScannerState -->
<g id="node4" class="node">
<title>L4YAML.Scanner.ScannerState</title>
<g id="a_node4"><a xlink:href="../../../api/L4YAML/Scanner/State.html#L4YAML.Scanner.ScannerState" xlink:title="ScannerState" target="_blank">
<polygon fill="#dce9f7" stroke="#4a90d9" points="1170,-52 1094,-52 1094,-16 1170,-16 1170,-52"/>
<text text-anchor="middle" x="1132" y="-31.5" font-family="Helvetica" font-size="10.00">ScannerState</text>
</a>
</g>
</g>
<!-- L4YAML.Proofs.EmitterScannability.SimpleKeyAboveFloor_of_preserved&#45;&gt;L4YAML.Scanner.ScannerState -->
<g id="edge3" class="edge">
<title>L4YAML.Proofs.EmitterScannability.SimpleKeyAboveFloor_of_preserved&#45;&gt;L4YAML.Scanner.ScannerState</title>
<path fill="none" stroke="#4a90d9" stroke-width="2" d="M343.62,-123.67C366.44,-121.07 389.85,-118.71 412,-117 543.67,-106.85 875.74,-120.77 1006,-99 1019.31,-96.78 1021.85,-93.07 1035,-90 1056.91,-84.87 1064.95,-92.23 1085,-82 1096.4,-76.18 1106.75,-66.57 1114.81,-57.56"/>
<polygon fill="#4a90d9" stroke="#4a90d9" stroke-width="2" points="1116.83,-58.97 1119.53,-52.06 1113.11,-55.78 1116.83,-58.97"/>
<text text-anchor="middle" x="1047.5" y="-92.6" font-family="Times-Roman" font-size="8.00" fill="#4a90d9">about</text>
</g>
<!-- L4YAML.Scanner.SimpleKeyState -->
<g id="node5" class="node">
<title>L4YAML.Scanner.SimpleKeyState</title>
<g id="a_node5"><a xlink:href="../../../api/L4YAML/Scanner/State.html#L4YAML.Scanner.SimpleKeyState" xlink:title="SimpleKeyState" target="_blank">
<polygon fill="#dce9f7" stroke="#4a90d9" points="766,-52 680,-52 680,-16 766,-16 766,-52"/>
<text text-anchor="middle" x="723" y="-31.5" font-family="Helvetica" font-size="10.00">SimpleKeyState</text>
</a>
</g>
</g>
<!-- L4YAML.Proofs.EmitterScannability.SimpleKeyAboveFloor_of_preserved&#45;&gt;L4YAML.Scanner.SimpleKeyState -->
<g id="edge4" class="edge">
<title>L4YAML.Proofs.EmitterScannability.SimpleKeyAboveFloor_of_preserved&#45;&gt;L4YAML.Scanner.SimpleKeyState</title>
<path fill="none" stroke="#4a90d9" stroke-width="2" d="M325.92,-121.58C392.13,-110.73 475.33,-98.15 550,-90 576.78,-87.08 646.18,-92.51 671,-82 683.74,-76.61 695.42,-66.73 704.46,-57.42"/>
<polygon fill="#4a90d9" stroke="#4a90d9" stroke-width="2" points="706.5,-58.84 709.48,-52.05 702.91,-55.5 706.5,-58.84"/>
<text text-anchor="middle" x="562.5" y="-92.6" font-family="Times-Roman" font-size="8.00" fill="#4a90d9">about</text>
</g>
<!-- L4YAML.Scanner.ScannerState.simpleKey -->
<g id="node6" class="node">
<title>L4YAML.Scanner.ScannerState.simpleKey</title>
<g id="a_node6"><a xlink:href="../../../api/L4YAML/Scanner/State.html#L4YAML.Scanner.ScannerState.simpleKey" xlink:title="ScannerState.simpleKey" target="_blank">
<polygon fill="#dce9f7" stroke="#4a90d9" points="908,-52 784,-52 784,-16 908,-16 908,-52"/>
<text text-anchor="middle" x="846" y="-31.5" font-family="Helvetica" font-size="10.00">ScannerState.simpleKey</text>
</a>
</g>
</g>
<!-- L4YAML.Proofs.EmitterScannability.SimpleKeyAboveFloor_of_preserved&#45;&gt;L4YAML.Scanner.ScannerState.simpleKey -->
<g id="edge5" class="edge">
<title>L4YAML.Proofs.EmitterScannability.SimpleKeyAboveFloor_of_preserved&#45;&gt;L4YAML.Scanner.ScannerState.simpleKey</title>
<path fill="none" stroke="#4a90d9" stroke-width="2" d="M349.1,-124.29C370.19,-121.75 391.64,-119.24 412,-117 422.06,-115.89 765.45,-85.38 775,-82 791.31,-76.22 807.55,-65.9 820.37,-56.4"/>
<polygon fill="#4a90d9" stroke="#4a90d9" stroke-width="2" points="821.92,-58.3 826.01,-52.11 818.96,-54.4 821.92,-58.3"/>
<text text-anchor="middle" x="706.5" y="-92.6" font-family="Times-Roman" font-size="8.00" fill="#4a90d9">about</text>
</g>
<!-- L4YAML.Scanner.SimpleKeyState.tokenIndex -->
<g id="node7" class="node">
<title>L4YAML.Scanner.SimpleKeyState.tokenIndex</title>
<g id="a_node7"><a xlink:href="../../../api/L4YAML/Scanner/State.html#L4YAML.Scanner.SimpleKeyState.tokenIndex" xlink:title="SimpleKeyState.tokenIndex" target="_blank">
<polygon fill="#fdebd0" stroke="#e67e22" points="369.5,-52 232.5,-52 232.5,-16 369.5,-16 369.5,-52"/>
<text text-anchor="middle" x="301" y="-31.5" font-family="Helvetica" font-size="10.00">SimpleKeyState.tokenIndex</text>
</a>
</g>
</g>
<!-- L4YAML.Proofs.EmitterScannability.SimpleKeyAboveFloor_of_preserved&#45;&gt;L4YAML.Scanner.SimpleKeyState.tokenIndex -->
<g id="edge6" class="edge">
<title>L4YAML.Proofs.EmitterScannability.SimpleKeyAboveFloor_of_preserved&#45;&gt;L4YAML.Scanner.SimpleKeyState.tokenIndex</title>
<path fill="none" stroke="#e67e22" stroke-width="2" stroke-dasharray="5,2" d="M229.2,-116.73C234.81,-110.95 240.66,-104.82 246,-99 258.36,-85.52 271.75,-69.96 282.22,-57.56"/>
<polygon fill="#e67e22" stroke="#e67e22" stroke-width="2" points="284.18,-59.04 286.81,-52.1 280.43,-55.88 284.18,-59.04"/>
<text text-anchor="middle" x="282.5" y="-92.6" font-family="Times-Roman" font-size="8.00" fill="#e67e22">about (unfold)</text>
</g>
<!-- L4YAML.Scanner.SimpleKeyState.possible -->
<g id="node8" class="node">
<title>L4YAML.Scanner.SimpleKeyState.possible</title>
<g id="a_node8"><a xlink:href="../../../api/L4YAML/Scanner/State.html#L4YAML.Scanner.SimpleKeyState.possible" xlink:title="SimpleKeyState.possible" target="_blank">
<polygon fill="#fdebd0" stroke="#e67e22" points="214.5,-52 89.5,-52 89.5,-16 214.5,-16 214.5,-52"/>
<text text-anchor="middle" x="152" y="-31.5" font-family="Helvetica" font-size="10.00">SimpleKeyState.possible</text>
</a>
</g>
</g>
<!-- L4YAML.Proofs.EmitterScannability.SimpleKeyAboveFloor_of_preserved&#45;&gt;L4YAML.Scanner.SimpleKeyState.possible -->
<g id="edge7" class="edge">
<title>L4YAML.Proofs.EmitterScannability.SimpleKeyAboveFloor_of_preserved&#45;&gt;L4YAML.Scanner.SimpleKeyState.possible</title>
<path fill="none" stroke="#e67e22" stroke-width="2" stroke-dasharray="5,2" d="M190.65,-116.83C182.27,-99.09 171.28,-75.82 163.16,-58.64"/>
<polygon fill="#e67e22" stroke="#e67e22" stroke-width="2" points="165.3,-57.42 160.09,-52.14 160.87,-59.52 165.3,-57.42"/>
<text text-anchor="middle" x="212.5" y="-92.6" font-family="Times-Roman" font-size="8.00" fill="#e67e22">about (unfold)</text>
</g>
<!-- L4YAML.Proofs.ScannerDispatch.with_needIndentCheck_preserves_wellFormed -->
<g id="node9" class="node">
<title>L4YAML.Proofs.ScannerDispatch.with_needIndentCheck_preserves_wellFormed</title>
<g id="a_node9"><a xlink:href="../../../api/L4YAML/Proofs/Scanner/ScannerDispatch.html#L4YAML.Proofs.ScannerDispatch.with_needIndentCheck_preserves_wellFormed" xlink:title="ScannerDispatch.with_needIndentCheck_preserves_wellFormed" target="_blank">
<ellipse fill="#d4edda" stroke="#28a745" cx="599" cy="-143.96" rx="174.67" ry="18"/>
<text text-anchor="middle" x="599" y="-141.46" font-family="Helvetica" font-size="10.00">ScannerDispatch.with_needIndentCheck_preserves_wellFormed</text>
</a>
</g>
</g>
<!-- L4YAML.Proofs.ScannerDispatch.with_needIndentCheck_preserves_wellFormed&#45;&gt;L4YAML.Scanner.ScannerState.simpleKeyStack -->
<g id="edge8" class="edge">
<title>L4YAML.Proofs.ScannerDispatch.with_needIndentCheck_preserves_wellFormed&#45;&gt;L4YAML.Scanner.ScannerState.simpleKeyStack</title>
<path fill="none" stroke="#6f42c1" stroke-dasharray="5,2" d="M696.36,-128.98C724.32,-125.03 754.86,-120.78 783,-117 845.61,-108.59 866.06,-124.19 924,-99 946.77,-89.09 968.11,-70.31 982.52,-55.64"/>
<polygon fill="#6f42c1" stroke="#6f42c1" points="983.82,-56.82 986.03,-52.01 981.3,-54.39 983.82,-56.82"/>
<text text-anchor="middle" x="951" y="-92.9" font-family="Times-Roman" font-size="7.00" fill="#6f42c1">about</text>
</g>
<!-- L4YAML.Proofs.ScannerDispatch.with_needIndentCheck_preserves_wellFormed&#45;&gt;L4YAML.Scanner.ScannerState -->
<g id="edge9" class="edge">
<title>L4YAML.Proofs.ScannerDispatch.with_needIndentCheck_preserves_wellFormed&#45;&gt;L4YAML.Scanner.ScannerState</title>
<path fill="none" stroke="#6f42c1" stroke-dasharray="5,2" d="M691.02,-128.57C720.36,-124.36 752.99,-120.07 783,-117 845.24,-110.62 1005.71,-121.76 1064,-99 1085.67,-90.54 1104.41,-71.45 1116.7,-56.31"/>
<polygon fill="#6f42c1" stroke="#6f42c1" points="1118.26,-57.16 1119.99,-52.16 1115.51,-54.99 1118.26,-57.16"/>
<text text-anchor="middle" x="1090" y="-92.9" font-family="Times-Roman" font-size="7.00" fill="#6f42c1">about</text>
</g>
<!-- L4YAML.Proofs.ScannerDispatch.with_needIndentCheck_preserves_wellFormed&#45;&gt;L4YAML.Scanner.ScannerState.simpleKey -->
<g id="edge10" class="edge">
<title>L4YAML.Proofs.ScannerDispatch.with_needIndentCheck_preserves_wellFormed&#45;&gt;L4YAML.Scanner.ScannerState.simpleKey</title>
<path fill="none" stroke="#6f42c1" stroke-dasharray="5,2" d="M657.14,-126.86C692.17,-116.18 737.17,-100.7 775,-82 790.23,-74.47 806.11,-64.22 818.98,-55.21"/>
<polygon fill="#6f42c1" stroke="#6f42c1" points="820.15,-56.53 823.22,-52.21 818.12,-53.67 820.15,-56.53"/>
<text text-anchor="middle" x="767" y="-92.9" font-family="Times-Roman" font-size="7.00" fill="#6f42c1">about</text>
</g>
<!-- L4YAML.Proofs.StructureCoupling.scanFlowSequenceStart_corr -->
<g id="node10" class="node">
<title>L4YAML.Proofs.StructureCoupling.scanFlowSequenceStart_corr</title>
<g id="a_node10"><a xlink:href="../../../api/L4YAML/Proofs/Coupling/StructureCoupling.html#L4YAML.Proofs.StructureCoupling.scanFlowSequenceStart_corr" xlink:title="StructureCoupling.scanFlowSequenceStart_corr" target="_blank">
<ellipse fill="#d4edda" stroke="#28a745" cx="2828" cy="-143.96" rx="133.75" ry="18"/>
<text text-anchor="middle" x="2828" y="-141.46" font-family="Helvetica" font-size="10.00">StructureCoupling.scanFlowSequenceStart_corr</text>
</a>
</g>
</g>
<!-- L4YAML.Proofs.StructureCoupling.scanFlowSequenceStart_corr&#45;&gt;L4YAML.Scanner.ScannerState -->
<g id="edge11" class="edge">
<title>L4YAML.Proofs.StructureCoupling.scanFlowSequenceStart_corr&#45;&gt;L4YAML.Scanner.ScannerState</title>
<path fill="none" stroke="#6f42c1" stroke-dasharray="5,2" d="M2758.06,-128.57C2734.89,-124.26 2708.92,-119.91 2685,-117 2493.14,-93.7 2443.96,-100.74 2251,-90 1832.11,-66.68 1324.72,-43.61 1175.33,-36.93"/>
<polygon fill="#6f42c1" stroke="#6f42c1" points="1175.24,-35.17 1170.17,-36.7 1175.08,-38.67 1175.24,-35.17"/>
<text text-anchor="middle" x="2479" y="-92.9" font-family="Times-Roman" font-size="7.00" fill="#6f42c1">about</text>
</g>
<!-- L4YAML.Proofs.ScannerLoopInvariant.advance_preserves_wellFormed -->
<g id="node11" class="node">
<title>L4YAML.Proofs.ScannerLoopInvariant.advance_preserves_wellFormed</title>
<g id="a_node11"><a xlink:href="../../../api/L4YAML/Proofs/Scanner/ScannerLoopInvariant.html#L4YAML.Proofs.ScannerLoopInvariant.advance_preserves_wellFormed" xlink:title="ScannerLoopInvariant.advance_preserves_wellFormed" target="_blank">
<ellipse fill="#d4edda" stroke="#28a745" cx="3127" cy="-143.96" rx="147.51" ry="18"/>
<text text-anchor="middle" x="3127" y="-141.46" font-family="Helvetica" font-size="10.00">ScannerLoopInvariant.advance_preserves_wellFormed</text>
</a>
</g>
</g>
<!-- L4YAML.Proofs.ScannerLoopInvariant.advance_preserves_wellFormed&#45;&gt;L4YAML.Scanner.ScannerState -->
<g id="edge12" class="edge">
<title>L4YAML.Proofs.ScannerLoopInvariant.advance_preserves_wellFormed&#45;&gt;L4YAML.Scanner.ScannerState</title>
<path fill="none" stroke="#6f42c1" stroke-dasharray="5,2" d="M3050.26,-128.49C3025.08,-124.2 2996.92,-119.88 2971,-117 2759.96,-93.54 2706.09,-100.28 2494,-90 1975.18,-64.84 1344.79,-42.39 1175.54,-36.5"/>
<polygon fill="#6f42c1" stroke="#6f42c1" points="1175.25,-34.74 1170.19,-36.32 1175.13,-38.24 1175.25,-34.74"/>
<text text-anchor="middle" x="2751" y="-92.9" font-family="Times-Roman" font-size="7.00" fill="#6f42c1">about</text>
</g>
<!-- L4YAML.Proofs.ScannerCorrectness.scanLoop_success_emits_streamEnd -->
<g id="node12" class="node">
<title>L4YAML.Proofs.ScannerCorrectness.scanLoop_success_emits_streamEnd</title>
<g id="a_node12"><a xlink:href="../../../api/L4YAML/Proofs/Scanner/ScannerCorrectness.html#L4YAML.Proofs.ScannerCorrectness.scanLoop_success_emits_streamEnd" xlink:title="ScannerCorrectness.scanLoop_success_emits_streamEnd" target="_blank">
<ellipse fill="#d4edda" stroke="#28a745" cx="3455" cy="-143.96" rx="161.76" ry="18"/>
<text text-anchor="middle" x="3455" y="-141.46" font-family="Helvetica" font-size="10.00">ScannerCorrectness.scanLoop_success_emits_streamEnd</text>
</a>
</g>
</g>
<!-- L4YAML.Proofs.ScannerCorrectness.scanLoop_success_emits_streamEnd&#45;&gt;L4YAML.Scanner.ScannerState -->
<g id="edge13" class="edge">
<title>L4YAML.Proofs.ScannerCorrectness.scanLoop_success_emits_streamEnd&#45;&gt;L4YAML.Scanner.ScannerState</title>
<path fill="none" stroke="#6f42c1" stroke-dasharray="5,2" d="M3370.84,-128.5C3343.24,-124.21 3312.38,-119.89 3284,-117 3054.64,-93.67 2996.32,-99.88 2766,-90 2133.86,-62.89 1363.68,-41.29 1175.15,-36.16"/>
<polygon fill="#6f42c1" stroke="#6f42c1" points="1175.05,-34.41 1170.01,-36.02 1174.96,-37.91 1175.05,-34.41"/>
<text text-anchor="middle" x="3045" y="-92.9" font-family="Times-Roman" font-size="7.00" fill="#6f42c1">about</text>
</g>
<!-- L4YAML.Proofs.ScannerDocument.with_docStart_flags_preserves_wellFormed -->
<g id="node13" class="node">
<title>L4YAML.Proofs.ScannerDocument.with_docStart_flags_preserves_wellFormed</title>
<g id="a_node13"><a xlink:href="../../../api/L4YAML/Proofs/Scanner/ScannerDocument.html#L4YAML.Proofs.ScannerDocument.with_docStart_flags_preserves_wellFormed" xlink:title="ScannerDocument.with_docStart_flags_preserves_wellFormed" target="_blank">
<ellipse fill="#d4edda" stroke="#28a745" cx="963" cy="-143.96" rx="170.92" ry="18"/>
<text text-anchor="middle" x="963" y="-141.46" font-family="Helvetica" font-size="10.00">ScannerDocument.with_docStart_flags_preserves_wellFormed</text>
</a>
</g>
</g>
<!-- L4YAML.Proofs.ScannerDocument.with_docStart_flags_preserves_wellFormed&#45;&gt;L4YAML.Scanner.ScannerState.simpleKeyStack -->
<g id="edge14" class="edge">
<title>L4YAML.Proofs.ScannerDocument.with_docStart_flags_preserves_wellFormed&#45;&gt;L4YAML.Scanner.ScannerState.simpleKeyStack</title>
<path fill="none" stroke="#6f42c1" stroke-dasharray="5,2" d="M969.1,-125.62C975.64,-107.04 986.03,-77.51 993.17,-57.24"/>
<polygon fill="#6f42c1" stroke="#6f42c1" points="994.9,-57.6 994.91,-52.3 991.59,-56.44 994.9,-57.6"/>
<text text-anchor="middle" x="991" y="-92.9" font-family="Times-Roman" font-size="7.00" fill="#6f42c1">about</text>
</g>
<!-- L4YAML.Proofs.ScannerDocument.with_docStart_flags_preserves_wellFormed&#45;&gt;L4YAML.Scanner.ScannerState -->
<g id="edge15" class="edge">
<title>L4YAML.Proofs.ScannerDocument.with_docStart_flags_preserves_wellFormed&#45;&gt;L4YAML.Scanner.ScannerState</title>
<path fill="none" stroke="#6f42c1" stroke-dasharray="5,2" d="M1056.39,-128.86C1075.6,-122.35 1094.4,-112.85 1109,-99 1120.41,-88.17 1126.18,-71.26 1129.08,-57.55"/>
<polygon fill="#6f42c1" stroke="#6f42c1" points="1130.87,-57.51 1130.09,-52.27 1127.43,-56.86 1130.87,-57.51"/>
<text text-anchor="middle" x="1127" y="-92.9" font-family="Times-Roman" font-size="7.00" fill="#6f42c1">about</text>
</g>
<!-- L4YAML.Proofs.ScannerDocument.with_docStart_flags_preserves_wellFormed&#45;&gt;L4YAML.Scanner.ScannerState.simpleKey -->
<g id="edge16" class="edge">
<title>L4YAML.Proofs.ScannerDocument.with_docStart_flags_preserves_wellFormed&#45;&gt;L4YAML.Scanner.ScannerState.simpleKey</title>
<path fill="none" stroke="#6f42c1" stroke-dasharray="5,2" d="M890.99,-127.64C875.97,-121.18 861.76,-112.02 852,-99 843.19,-87.26 841.85,-70.68 842.62,-57.35"/>
<polygon fill="#6f42c1" stroke="#6f42c1" points="844.38,-57.35 843.03,-52.22 840.89,-57.07 844.38,-57.35"/>
<text text-anchor="middle" x="863" y="-92.9" font-family="Times-Roman" font-size="7.00" fill="#6f42c1">about</text>
</g>
<!-- L4YAML.Proofs.ScannerCoupling.skipSpacesLoop_corr -->
<g id="node14" class="node">
<title>L4YAML.Proofs.ScannerCoupling.skipSpacesLoop_corr</title>
<g id="a_node14"><a xlink:href="../../../api/L4YAML/Proofs/Coupling/ScannerCoupling.html#L4YAML.Proofs.ScannerCoupling.skipSpacesLoop_corr" xlink:title="ScannerCoupling.skipSpacesLoop_corr" target="_blank">
<ellipse fill="#d4edda" stroke="#28a745" cx="1262" cy="-143.96" rx="110.84" ry="18"/>
<text text-anchor="middle" x="1262" y="-141.46" font-family="Helvetica" font-size="10.00">ScannerCoupling.skipSpacesLoop_corr</text>
</a>
</g>
</g>
<!-- L4YAML.Proofs.ScannerCoupling.skipSpacesLoop_corr&#45;&gt;L4YAML.Scanner.ScannerState -->
<g id="edge17" class="edge">
<title>L4YAML.Proofs.ScannerCoupling.skipSpacesLoop_corr&#45;&gt;L4YAML.Scanner.ScannerState</title>
<path fill="none" stroke="#6f42c1" stroke-dasharray="5,2" d="M1241.68,-126.09C1218.73,-107.03 1181.37,-76 1156.74,-55.55"/>
<polygon fill="#6f42c1" stroke="#6f42c1" points="1157.56,-53.95 1152.59,-52.11 1155.32,-56.65 1157.56,-53.95"/>
<text text-anchor="middle" x="1219" y="-92.9" font-family="Times-Roman" font-size="7.00" fill="#6f42c1">about</text>
</g>
<!-- L4YAML.Proofs.StructureCoupling.scanDirective_corr -->
<g id="node15" class="node">
<title>L4YAML.Proofs.StructureCoupling.scanDirective_corr</title>
<g id="a_node15"><a xlink:href="../../../api/L4YAML/Proofs/Coupling/StructureCoupling.html#L4YAML.Proofs.StructureCoupling.scanDirective_corr" xlink:title="StructureCoupling.scanDirective_corr" target="_blank">
<ellipse fill="#d4edda" stroke="#28a745" cx="1496" cy="-143.96" rx="105.24" ry="18"/>
<text text-anchor="middle" x="1496" y="-141.46" font-family="Helvetica" font-size="10.00">StructureCoupling.scanDirective_corr</text>
</a>
</g>
</g>
<!-- L4YAML.Proofs.StructureCoupling.scanDirective_corr&#45;&gt;L4YAML.Scanner.ScannerState -->
<g id="edge18" class="edge">
<title>L4YAML.Proofs.StructureCoupling.scanDirective_corr&#45;&gt;L4YAML.Scanner.ScannerState</title>
<path fill="none" stroke="#6f42c1" stroke-dasharray="5,2" d="M1445.76,-128.06C1373.92,-106.75 1243.01,-67.93 1175.24,-47.83"/>
<polygon fill="#6f42c1" stroke="#6f42c1" points="1175.36,-46.04 1170.07,-46.29 1174.37,-49.39 1175.36,-46.04"/>
<text text-anchor="middle" x="1357" y="-92.9" font-family="Times-Roman" font-size="7.00" fill="#6f42c1">about</text>
</g>
<!-- L4YAML.Proofs.ScalarCoupling.scanBlockScalar_corr -->
<g id="node16" class="node">
<title>L4YAML.Proofs.ScalarCoupling.scanBlockScalar_corr</title>
<g id="a_node16"><a xlink:href="../../../api/L4YAML/Proofs/Coupling/ScalarCoupling.html#L4YAML.Proofs.ScalarCoupling.scanBlockScalar_corr" xlink:title="ScalarCoupling.scanBlockScalar_corr" target="_blank">
<ellipse fill="#d4edda" stroke="#28a745" cx="1726" cy="-143.96" rx="106.6" ry="18"/>
<text text-anchor="middle" x="1726" y="-141.46" font-family="Helvetica" font-size="10.00">ScalarCoupling.scanBlockScalar_corr</text>
</a>
</g>
</g>
<!-- L4YAML.Proofs.ScalarCoupling.scanBlockScalar_corr&#45;&gt;L4YAML.Scanner.ScannerState -->
<g id="edge19" class="edge">
<title>L4YAML.Proofs.ScalarCoupling.scanBlockScalar_corr&#45;&gt;L4YAML.Scanner.ScannerState</title>
<path fill="none" stroke="#6f42c1" stroke-dasharray="5,2" d="M1666.21,-128.98C1648.18,-124.92 1628.32,-120.62 1610,-117 1450.4,-85.47 1259.44,-54.83 1175.36,-41.69"/>
<polygon fill="#6f42c1" stroke="#6f42c1" points="1175.43,-39.93 1170.22,-40.89 1174.89,-43.39 1175.43,-39.93"/>
<text text-anchor="middle" x="1516" y="-92.9" font-family="Times-Roman" font-size="7.00" fill="#6f42c1">about</text>
</g>
<!-- L4YAML.Proofs.ScannerSimpleKey.saveSimpleKey_preserves_wellFormed -->
<g id="node17" class="node">
<title>L4YAML.Proofs.ScannerSimpleKey.saveSimpleKey_preserves_wellFormed</title>
<g id="a_node17"><a xlink:href="../../../api/L4YAML/Proofs/Scanner/ScannerSimpleKey.html#L4YAML.Proofs.ScannerSimpleKey.saveSimpleKey_preserves_wellFormed" xlink:title="ScannerSimpleKey.saveSimpleKey_preserves_wellFormed" target="_blank">
<ellipse fill="#d4edda" stroke="#28a745" cx="2010" cy="-143.96" rx="159.56" ry="18"/>
<text text-anchor="middle" x="2010" y="-141.46" font-family="Helvetica" font-size="10.00">ScannerSimpleKey.saveSimpleKey_preserves_wellFormed</text>
</a>
</g>
</g>
<!-- L4YAML.Proofs.ScannerSimpleKey.saveSimpleKey_preserves_wellFormed&#45;&gt;L4YAML.Scanner.ScannerState -->
<g id="edge20" class="edge">
<title>L4YAML.Proofs.ScannerSimpleKey.saveSimpleKey_preserves_wellFormed&#45;&gt;L4YAML.Scanner.ScannerState</title>
<path fill="none" stroke="#6f42c1" stroke-dasharray="5,2" d="M1922.89,-128.85C1896.9,-124.82 1868.32,-120.55 1842,-117 1589.91,-82.98 1286.28,-50.86 1175.3,-39.42"/>
<polygon fill="#6f42c1" stroke="#6f42c1" points="1175.31,-37.66 1170.16,-38.89 1174.95,-41.14 1175.31,-37.66"/>
<text text-anchor="middle" x="1697" y="-92.9" font-family="Times-Roman" font-size="7.00" fill="#6f42c1">about</text>
</g>
<!-- L4YAML.Proofs.ScannerProgress.advance_offset_lt -->
<g id="node18" class="node">
<title>L4YAML.Proofs.ScannerProgress.advance_offset_lt</title>
<g id="a_node18"><a xlink:href="../../../api/L4YAML/Proofs/Scanner/ScannerProgress.html#L4YAML.Proofs.ScannerProgress.advance_offset_lt" xlink:title="ScannerProgress.advance_offset_lt" target="_blank">
<ellipse fill="#d4edda" stroke="#28a745" cx="2288" cy="-143.96" rx="100.15" ry="18"/>
<text text-anchor="middle" x="2288" y="-141.46" font-family="Helvetica" font-size="10.00">ScannerProgress.advance_offset_lt</text>
</a>
</g>
</g>
<!-- L4YAML.Proofs.ScannerProgress.advance_offset_lt&#45;&gt;L4YAML.Scanner.ScannerState -->
<g id="edge21" class="edge">
<title>L4YAML.Proofs.ScannerProgress.advance_offset_lt&#45;&gt;L4YAML.Scanner.ScannerState</title>
<path fill="none" stroke="#6f42c1" stroke-dasharray="5,2" d="M2235.1,-128.61C2217.38,-124.28 2197.44,-119.9 2179,-117 1793.11,-56.31 1319.8,-39.77 1175.67,-35.99"/>
<polygon fill="#6f42c1" stroke="#6f42c1" points="1175.32,-34.23 1170.28,-35.85 1175.23,-37.73 1175.32,-34.23"/>
<text text-anchor="middle" x="2048" y="-92.9" font-family="Times-Roman" font-size="7.00" fill="#6f42c1">about</text>
</g>
<!-- L4YAML.Proofs.ScannerBound.scanNextToken_preserves_bound -->
<g id="node19" class="node">
<title>L4YAML.Proofs.ScannerBound.scanNextToken_preserves_bound</title>
<g id="a_node19"><a xlink:href="../../../api/L4YAML/Proofs/Scanner/ScannerBound.html#L4YAML.Proofs.ScannerBound.scanNextToken_preserves_bound" xlink:title="ScannerBound.scanNextToken_preserves_bound" target="_blank">
<ellipse fill="#d4edda" stroke="#28a745" cx="2541" cy="-143.96" rx="135.29" ry="18"/>
<text text-anchor="middle" x="2541" y="-141.46" font-family="Helvetica" font-size="10.00">ScannerBound.scanNextToken_preserves_bound</text>
</a>
</g>
</g>
<!-- L4YAML.Proofs.ScannerBound.scanNextToken_preserves_bound&#45;&gt;L4YAML.Scanner.ScannerState -->
<g id="edge22" class="edge">
<title>L4YAML.Proofs.ScannerBound.scanNextToken_preserves_bound&#45;&gt;L4YAML.Scanner.ScannerState</title>
<path fill="none" stroke="#6f42c1" stroke-dasharray="5,2" d="M2469.43,-128.64C2446.38,-124.4 2420.67,-120.08 2397,-117 1920.69,-54.96 1337.07,-39.1 1175.32,-35.78"/>
<polygon fill="#6f42c1" stroke="#6f42c1" points="1175.24,-34.02 1170.2,-35.67 1175.17,-37.52 1175.24,-34.02"/>
<text text-anchor="middle" x="2236" y="-92.9" font-family="Times-Roman" font-size="7.00" fill="#6f42c1">about</text>
</g>
</g>
</svg>
