<?xml version="1.0" encoding="UTF-8" standalone="no"?>
<!DOCTYPE svg PUBLIC "-//W3C//DTD SVG 1.1//EN"
 "http://www.w3.org/Graphics/SVG/1.1/DTD/svg11.dtd">
<!-- Generated by graphviz version 2.44.0 (0)
 -->
<!-- Title: ScannerBound.scanNextToken_preserves_bound Pages: 1 -->
<svg width="1303pt" height="1294pt"
 viewBox="0.00 0.00 1303.49 1294.04" xmlns="http://www.w3.org/2000/svg" xmlns:xlink="http://www.w3.org/1999/xlink">
<g id="graph0" class="graph" transform="scale(1 1) rotate(0) translate(4 1290.04)">
<title>ScannerBound.scanNextToken_preserves_bound</title>
<polygon fill="white" stroke="transparent" points="-4,4 -4,-1290.04 1299.49,-1290.04 1299.49,4 -4,4"/>
<text text-anchor="middle" x="647.75" y="-1271.64" font-family="Helvetica Bold" font-size="13.00">ScannerBound.scanNextToken_preserves_bound</text>
<text text-anchor="middle" x="647.75" y="-1257.64" font-family="Helvetica Bold" font-size="13.00">2.5 scanNextToken preserves the offset ≤ input.length bound</text>
<text text-anchor="middle" x="647.75" y="-1243.64" font-family="Helvetica Bold" font-size="13.00">(L4YAML.Proofs.Scanner.ScannerBound)</text>
<g id="clust1" class="cluster">
<title>cluster_functions</title>
<polygon fill="none" stroke="#4a90d9" stroke-dasharray="5,2" points="839.1,-884.04 839.1,-1228.04 1287.49,-1228.04 1287.49,-884.04 839.1,-884.04"/>
<text text-anchor="middle" x="1063.3" y="-1213.64" font-family="Helvetica Bold" font-size="13.00" fill="#4a90d9">Functions</text>
</g>
<g id="clust2" class="cluster">
<title>cluster_key</title>
<polygon fill="none" stroke="#d4a017" stroke-dasharray="5,2" points="709.7,-794.04 709.7,-876.04 1109.49,-876.04 1109.49,-794.04 709.7,-794.04"/>
<text text-anchor="middle" x="909.6" y="-861.64" font-family="Helvetica Bold" font-size="13.00" fill="#d4a017">Key Theorem</text>
</g>
<g id="clust3" class="cluster">
<title>cluster_proofs</title>
<polygon fill="none" stroke="#28a745" stroke-dasharray="5,2" points="8,-755.04 8,-1075.04 667.7,-1075.04 667.7,-755.04 8,-755.04"/>
<text text-anchor="middle" x="337.85" y="-1060.64" font-family="Helvetica Bold" font-size="13.00" fill="#28a745">Proof Dependencies</text>
</g>
<!-- L4YAML.Scanner.scanNextToken -->
<g id="node1" class="node">
<title>L4YAML.Scanner.scanNextToken</title>
<g id="a_node1"><a xlink:href="../../../api/L4YAML/Scanner/Scanner.html#L4YAML.Scanner.scanNextToken" xlink:title="scanNextToken\n(def)" target="_blank">
<polygon fill="#dce9f7" stroke="#4a90d9" points="1262.99,-1198.04 1178.99,-1198.04 1178.99,-1162.04 1262.99,-1162.04 1262.99,-1198.04"/>
<text text-anchor="middle" x="1220.99" y="-1183.04" font-family="Helvetica" font-size="10.00">scanNextToken</text>
<text text-anchor="middle" x="1220.99" y="-1172.04" font-family="Helvetica" font-size="10.00">(def)</text>
</a>
</g>
</g>
<!-- L4YAML.Scanner.ScannerState.input -->
<g id="node2" class="node">
<title>L4YAML.Scanner.ScannerState.input</title>
<g id="a_node2"><a xlink:href="../../../api/L4YAML/Scanner/State.html#L4YAML.Scanner.ScannerState.input" xlink:title="ScannerState.input\n(def)" target="_blank">
<polygon fill="#dce9f7" stroke="#4a90d9" points="1270.99,-1090.04 1170.99,-1090.04 1170.99,-1054.04 1270.99,-1054.04 1270.99,-1090.04"/>
<text text-anchor="middle" x="1220.99" y="-1075.04" font-family="Helvetica" font-size="10.00">ScannerState.input</text>
<text text-anchor="middle" x="1220.99" y="-1064.04" font-family="Helvetica" font-size="10.00">(def)</text>
</a>
</g>
</g>
<!-- L4YAML.Scanner.ScannerState -->
<g id="node3" class="node">
<title>L4YAML.Scanner.ScannerState</title>
<g id="a_node3"><a xlink:href="../../../api/L4YAML/Scanner/State.html#L4YAML.Scanner.ScannerState" xlink:title="ScannerState\n(inductive)" target="_blank">
<polygon fill="#dce9f7" stroke="#4a90d9" points="1258.99,-1036.04 1182.99,-1036.04 1182.99,-1000.04 1258.99,-1000.04 1258.99,-1036.04"/>
<text text-anchor="middle" x="1220.99" y="-1021.04" font-family="Helvetica" font-size="10.00">ScannerState</text>
<text text-anchor="middle" x="1220.99" y="-1010.04" font-family="Helvetica" font-size="10.00">(inductive)</text>
</a>
</g>
</g>
<!-- L4YAML.Proofs.ScannerBound.BoundInv -->
<g id="node4" class="node">
<title>L4YAML.Proofs.ScannerBound.BoundInv</title>
<g id="a_node4"><a xlink:href="../../../api/L4YAML/Proofs/Scanner/ScannerBound.html#L4YAML.Proofs.ScannerBound.BoundInv" xlink:title="ScannerBound.BoundInv\n(inductive)" target="_blank">
<polygon fill="#dce9f7" stroke="#4a90d9" points="972.1,-928.04 847.1,-928.04 847.1,-892.04 972.1,-892.04 972.1,-928.04"/>
<text text-anchor="middle" x="909.6" y="-913.04" font-family="Helvetica" font-size="10.00">ScannerBound.BoundInv</text>
<text text-anchor="middle" x="909.6" y="-902.04" font-family="Helvetica" font-size="10.00">(inductive)</text>
</a>
</g>
</g>
<!-- L4YAML.Scanner.ScannerState.offset -->
<g id="node5" class="node">
<title>L4YAML.Scanner.ScannerState.offset</title>
<g id="a_node5"><a xlink:href="../../../api/L4YAML/Scanner/State.html#L4YAML.Scanner.ScannerState.offset" xlink:title="ScannerState.offset\n(def)" target="_blank">
<polygon fill="#dce9f7" stroke="#4a90d9" points="1272.49,-928.04 1169.49,-928.04 1169.49,-892.04 1272.49,-892.04 1272.49,-928.04"/>
<text text-anchor="middle" x="1220.99" y="-913.04" font-family="Helvetica" font-size="10.00">ScannerState.offset</text>
<text text-anchor="middle" x="1220.99" y="-902.04" font-family="Helvetica" font-size="10.00">(def)</text>
</a>
</g>
</g>
<!-- L4YAML.ScanError -->
<g id="node6" class="node">
<title>L4YAML.ScanError</title>
<g id="a_node6"><a xlink:href="../../../api/L4YAML/Token/Token.html#L4YAML.ScanError" xlink:title="ScanError\n(inductive)" target="_blank">
<polygon fill="#dce9f7" stroke="#4a90d9" points="1251.99,-1144.04 1189.99,-1144.04 1189.99,-1108.04 1251.99,-1108.04 1251.99,-1144.04"/>
<text text-anchor="middle" x="1220.99" y="-1129.04" font-family="Helvetica" font-size="10.00">ScanError</text>
<text text-anchor="middle" x="1220.99" y="-1118.04" font-family="Helvetica" font-size="10.00">(inductive)</text>
</a>
</g>
</g>
<!-- L4YAML.Scanner.ScannerState.inputEnd -->
<g id="node7" class="node">
<title>L4YAML.Scanner.ScannerState.inputEnd</title>
<g id="a_node7"><a xlink:href="../../../api/L4YAML/Scanner/State.html#L4YAML.Scanner.ScannerState.inputEnd" xlink:title="ScannerState.inputEnd\n(def)" target="_blank">
<polygon fill="#dce9f7" stroke="#4a90d9" points="1279.49,-982.04 1162.49,-982.04 1162.49,-946.04 1279.49,-946.04 1279.49,-982.04"/>
<text text-anchor="middle" x="1220.99" y="-967.04" font-family="Helvetica" font-size="10.00">ScannerState.inputEnd</text>
<text text-anchor="middle" x="1220.99" y="-956.04" font-family="Helvetica" font-size="10.00">(def)</text>
</a>
</g>
</g>
<!-- L4YAML.Proofs.ScannerBound.scanNextToken_preserves_bound -->
<g id="node8" class="node">
<title>L4YAML.Proofs.ScannerBound.scanNextToken_preserves_bound</title>
<g id="a_node8"><a xlink:href="../../../api/L4YAML/Proofs/Scanner/ScannerBound.html#L4YAML.Proofs.ScannerBound.scanNextToken_preserves_bound" xlink:title="ScannerBound.scanNextToken_preserves_bound" target="_blank">
<polygon fill="#fff3cd" stroke="#d4a017" points="1097.4,-816.58 1097.4,-831.49 987.38,-842.04 831.81,-842.04 721.8,-831.49 721.8,-816.58 831.81,-806.04 987.38,-806.04 1097.4,-816.58"/>
<polygon fill="none" stroke="#d4a017" points="1101.39,-812.94 1101.39,-835.13 987.58,-846.04 831.62,-846.04 717.8,-835.13 717.8,-812.94 831.62,-802.04 987.58,-802.04 1101.39,-812.94"/>
<text text-anchor="middle" x="909.6" y="-820.94" font-family="Helvetica" font-size="12.00">ScannerBound.scanNextToken_preserves_bound</text>
</a>
</g>
</g>
<!-- L4YAML.Proofs.ScannerBound.scanNextToken_preserves_bound&#45;&gt;L4YAML.Scanner.scanNextToken -->
<g id="edge6" class="edge">
<title>L4YAML.Proofs.ScannerBound.scanNextToken_preserves_bound&#45;&gt;L4YAML.Scanner.scanNextToken</title>
<path fill="none" stroke="#4a90d9" stroke-width="2" d="M1047.74,-840.29C1071.14,-848.83 1093.13,-861.46 1109.49,-880.04 1119.45,-891.33 1116.84,-932.22 1119.49,-947.04 1135.96,-1039.1 1104.5,-1079.65 1162.49,-1153.04 1165.43,-1156.76 1169.01,-1159.99 1172.92,-1162.79"/>
<polygon fill="#4a90d9" stroke="#4a90d9" stroke-width="2" points="1171.65,-1164.88 1178.86,-1166.6 1174.29,-1160.76 1171.65,-1164.88"/>
<text text-anchor="middle" x="1131.99" y="-1125.64" font-family="Times-Roman" font-size="8.00" fill="#4a90d9">about</text>
</g>
<!-- L4YAML.Proofs.ScannerBound.scanNextToken_preserves_bound&#45;&gt;L4YAML.Scanner.ScannerState.input -->
<g id="edge5" class="edge">
<title>L4YAML.Proofs.ScannerBound.scanNextToken_preserves_bound&#45;&gt;L4YAML.Scanner.ScannerState.input</title>
<path fill="none" stroke="#4a90d9" stroke-width="2" d="M1008.56,-844.05C1041.58,-852.75 1078.02,-864.57 1109.49,-880.04 1126.89,-888.58 1134.69,-889.32 1144.49,-906.04 1176,-959.77 1125.78,-994.71 1162.49,-1045.04 1163.58,-1046.52 1164.76,-1047.92 1166.02,-1049.25"/>
<polygon fill="#4a90d9" stroke="#4a90d9" stroke-width="2" points="1164.46,-1051.13 1171.29,-1054.01 1167.74,-1047.5 1164.46,-1051.13"/>
<text text-anchor="middle" x="1131.99" y="-908.64" font-family="Times-Roman" font-size="8.00" fill="#4a90d9">about</text>
</g>
<!-- L4YAML.Proofs.ScannerBound.scanNextToken_preserves_bound&#45;&gt;L4YAML.Scanner.ScannerState -->
<g id="edge3" class="edge">
<title>L4YAML.Proofs.ScannerBound.scanNextToken_preserves_bound&#45;&gt;L4YAML.Scanner.ScannerState</title>
<path fill="none" stroke="#4a90d9" stroke-width="2" d="M1086.01,-836.72C1108,-845 1128.39,-856.97 1144.49,-874.04 1180.6,-912.3 1130.98,-948.91 1162.49,-991.04 1166.2,-995.99 1171.04,-1000.06 1176.34,-1003.41"/>
<polygon fill="#4a90d9" stroke="#4a90d9" stroke-width="2" points="1175.43,-1005.71 1182.73,-1007.02 1177.84,-1001.45 1175.43,-1005.71"/>
<text text-anchor="middle" x="1131.99" y="-876.64" font-family="Times-Roman" font-size="8.00" fill="#4a90d9">about</text>
</g>
<!-- L4YAML.Proofs.ScannerBound.scanNextToken_preserves_bound&#45;&gt;L4YAML.Scanner.ScannerState.offset -->
<g id="edge1" class="edge">
<title>L4YAML.Proofs.ScannerBound.scanNextToken_preserves_bound&#45;&gt;L4YAML.Scanner.ScannerState.offset</title>
<path fill="none" stroke="#4a90d9" stroke-width="2" d="M951.85,-801.94C1000.89,-778.96 1083.72,-750.74 1144.49,-785.04 1182.31,-806.37 1203.32,-855.11 1213.09,-885.03"/>
<polygon fill="#4a90d9" stroke="#4a90d9" stroke-width="2" points="1210.79,-885.9 1215.22,-891.84 1215.46,-884.43 1210.79,-885.9"/>
<text text-anchor="middle" x="1131.99" y="-787.64" font-family="Times-Roman" font-size="8.00" fill="#4a90d9">about</text>
</g>
<!-- L4YAML.Proofs.ScannerBound.scanNextToken_preserves_bound&#45;&gt;L4YAML.ScanError -->
<g id="edge4" class="edge">
<title>L4YAML.Proofs.ScannerBound.scanNextToken_preserves_bound&#45;&gt;L4YAML.ScanError</title>
<path fill="none" stroke="#4a90d9" stroke-width="2" d="M1042.27,-840.81C1067.13,-849.23 1091.07,-861.68 1109.49,-880.04 1120.96,-891.45 1111,-901.27 1119.49,-915.04 1127.42,-927.89 1137.67,-924.57 1144.49,-938.04 1177.05,-1002.26 1120.57,-1040.5 1162.49,-1099.04 1167.61,-1106.18 1175.12,-1111.49 1183.02,-1115.42"/>
<polygon fill="#4a90d9" stroke="#4a90d9" stroke-width="2" points="1182.33,-1117.79 1189.72,-1118.41 1184.32,-1113.32 1182.33,-1117.79"/>
<text text-anchor="middle" x="1131.99" y="-940.64" font-family="Times-Roman" font-size="8.00" fill="#4a90d9">about</text>
</g>
<!-- L4YAML.Proofs.ScannerBound.scanNextToken_preserves_bound&#45;&gt;L4YAML.Scanner.ScannerState.inputEnd -->
<g id="edge2" class="edge">
<title>L4YAML.Proofs.ScannerBound.scanNextToken_preserves_bound&#45;&gt;L4YAML.Scanner.ScannerState.inputEnd</title>
<path fill="none" stroke="#4a90d9" stroke-width="2" d="M970.33,-802C1022.56,-786.97 1097.24,-776.34 1144.49,-817.04 1185.36,-852.23 1130.27,-893.79 1162.49,-937.04 1163.59,-938.51 1164.79,-939.9 1166.06,-941.22"/>
<polygon fill="#4a90d9" stroke="#4a90d9" stroke-width="2" points="1164.51,-943.12 1171.37,-945.95 1167.78,-939.46 1164.51,-943.12"/>
<text text-anchor="middle" x="1131.99" y="-819.64" font-family="Times-Roman" font-size="8.00" fill="#4a90d9">about</text>
</g>
<!-- L4YAML.Proofs.ScannerBound.BoundInv.inputEnd_eq -->
<g id="node9" class="node">
<title>L4YAML.Proofs.ScannerBound.BoundInv.inputEnd_eq</title>
<g id="a_node9"><a xlink:href="../../../api/L4YAML/Proofs/Scanner/ScannerBound.html#L4YAML.Proofs.ScannerBound.BoundInv.inputEnd_eq" xlink:title="ScannerBound.BoundInv.inputEnd_eq\n(Scanner.ScannerBound)" target="_blank">
<ellipse fill="#d4edda" stroke="#28a745" cx="143.99" cy="-964.04" rx="127.97" ry="21.43"/>
<text text-anchor="middle" x="143.99" y="-967.04" font-family="Helvetica" font-size="10.00">ScannerBound.BoundInv.inputEnd_eq</text>
<text text-anchor="middle" x="143.99" y="-956.04" font-family="Helvetica" font-size="10.00">(Scanner.ScannerBound)</text>
</a>
</g>
</g>
<!-- L4YAML.Proofs.ScannerBound.BoundInv.inputEnd_eq&#45;&gt;L4YAML.Scanner.ScannerState -->
<g id="edge15" class="edge">
<title>L4YAML.Proofs.ScannerBound.BoundInv.inputEnd_eq&#45;&gt;L4YAML.Scanner.ScannerState</title>
<path fill="none" stroke="#6f42c1" stroke-width="2" stroke-dasharray="5,2" d="M245.94,-951.13C255.51,-946.82 264.44,-941.23 271.97,-934.04 315.4,-892.53 265.32,-845.3 308.97,-804.04 441.63,-678.65 528.27,-734.16 709.7,-714.04 886.3,-694.45 943.85,-649.73 1109.49,-714.04 1129.14,-721.66 1135.29,-727.07 1144.49,-746.04 1168.33,-795.15 1131.55,-946.06 1162.49,-991.04 1166.48,-996.83 1172.05,-1001.41 1178.16,-1005.02"/>
<polygon fill="#6f42c1" stroke="#6f42c1" stroke-width="2" points="1177.69,-1006.76 1182.92,-1007.6 1179.36,-1003.68 1177.69,-1006.76"/>
<text text-anchor="middle" x="688.7" y="-718.44" font-family="Times-Roman" font-size="7.00" fill="#6f42c1">about</text>
</g>
<!-- L4YAML.Proofs.ScannerBound.BoundInv.inputEnd_eq&#45;&gt;L4YAML.Proofs.ScannerBound.BoundInv -->
<g id="edge13" class="edge">
<title>L4YAML.Proofs.ScannerBound.BoundInv.inputEnd_eq&#45;&gt;L4YAML.Proofs.ScannerBound.BoundInv</title>
<path fill="none" stroke="#6f42c1" stroke-width="2" stroke-dasharray="5,2" d="M251.22,-952.37C270.43,-950.45 290.29,-948.58 308.97,-947.04 502.1,-931.07 730.75,-918.79 841.63,-913.26"/>
<polygon fill="#6f42c1" stroke="#6f42c1" stroke-width="2" points="841.91,-914.99 846.82,-913 841.74,-911.5 841.91,-914.99"/>
<text text-anchor="middle" x="484.34" y="-949.44" font-family="Times-Roman" font-size="7.00" fill="#6f42c1">about</text>
</g>
<!-- L4YAML.Proofs.ScannerBound.BoundInv.inputEnd_eq&#45;&gt;L4YAML.Scanner.ScannerState.inputEnd -->
<g id="edge14" class="edge">
<title>L4YAML.Proofs.ScannerBound.BoundInv.inputEnd_eq&#45;&gt;L4YAML.Scanner.ScannerState.inputEnd</title>
<path fill="none" stroke="#6f42c1" stroke-width="2" stroke-dasharray="5,2" d="M248.92,-951.77C257.62,-947.29 265.54,-941.5 271.97,-934.04 302.99,-898.06 256.44,-754.68 289.97,-721.04 323.02,-687.87 662.93,-686.09 709.7,-684.04 902.75,-675.54 1003.09,-552.33 1144.49,-684.04 1185.74,-722.45 1130.6,-890.56 1162.49,-937.04 1163.79,-938.93 1165.26,-940.69 1166.86,-942.33"/>
<polygon fill="#6f42c1" stroke="#6f42c1" stroke-width="2" points="1165.95,-943.87 1170.82,-945.95 1168.31,-941.29 1165.95,-943.87"/>
<text text-anchor="middle" x="688.7" y="-686.44" font-family="Times-Roman" font-size="7.00" fill="#6f42c1">about</text>
</g>
<!-- L4YAML.Proofs.ScannerBound.BoundInv.inputEnd_eq&#45;&gt;L4YAML.Proofs.ScannerBound.scanNextToken_preserves_bound -->
<g id="edge11" class="edge">
<title>L4YAML.Proofs.ScannerBound.BoundInv.inputEnd_eq&#45;&gt;L4YAML.Proofs.ScannerBound.scanNextToken_preserves_bound</title>
<path fill="none" stroke="#28a745" d="M224.51,-947.52C240.37,-943.59 256.81,-939.06 271.97,-934.04 288.98,-928.4 292.13,-924.14 308.97,-918.04 478.46,-856.59 519.53,-802.57 699.7,-809.04 710.28,-809.41 721.16,-809.9 732.13,-810.47"/>
<polygon fill="#28a745" stroke="#28a745" points="732.23,-812.93 739.35,-810.85 732.48,-808.03 732.23,-812.93"/>
</g>
<!-- L4YAML.Proofs.ScannerBound.scanNextToken_preserves_bound_full -->
<g id="node11" class="node">
<title>L4YAML.Proofs.ScannerBound.scanNextToken_preserves_bound_full</title>
<g id="a_node11"><a xlink:href="../../../api/L4YAML/Proofs/Scanner/ScannerBound.html#L4YAML.Proofs.ScannerBound.scanNextToken_preserves_bound_full" xlink:title="ScannerBound.scanNextToken_preserves_bound_full\n(Scanner.ScannerBound)" target="_blank">
<ellipse fill="#d4edda" stroke="#28a745" cx="484.34" cy="-1024.04" rx="175.23" ry="21.43"/>
<text text-anchor="middle" x="484.34" y="-1027.04" font-family="Helvetica" font-size="10.00">ScannerBound.scanNextToken_preserves_bound_full</text>
<text text-anchor="middle" x="484.34" y="-1016.04" font-family="Helvetica" font-size="10.00">(Scanner.ScannerBound)</text>
</a>
</g>
</g>
<!-- L4YAML.Proofs.ScannerBound.BoundInv.inputEnd_eq&#45;&gt;L4YAML.Proofs.ScannerBound.scanNextToken_preserves_bound_full -->
<g id="edge41" class="edge">
<title>L4YAML.Proofs.ScannerBound.BoundInv.inputEnd_eq&#45;&gt;L4YAML.Proofs.ScannerBound.scanNextToken_preserves_bound_full</title>
<path fill="none" stroke="#cccccc" stroke-dasharray="5,2" d="M235.78,-978.94C248.36,-982.86 260.79,-987.8 271.97,-994.04 281.85,-999.55 279.66,-1007.38 289.97,-1012.04 295.58,-1014.56 301.37,-1016.79 307.29,-1018.75"/>
<polygon fill="#cccccc" stroke="#cccccc" points="307.17,-1020.18 311.41,-1020.06 308.02,-1017.51 307.17,-1020.18"/>
</g>
<!-- L4YAML.Proofs.ScannerBound.BoundInv.isValid -->
<g id="node10" class="node">
<title>L4YAML.Proofs.ScannerBound.BoundInv.isValid</title>
<g id="a_node10"><a xlink:href="../../../api/L4YAML/Proofs/Scanner/ScannerBound.html#L4YAML.Proofs.ScannerBound.BoundInv.isValid" xlink:title="ScannerBound.BoundInv.isValid\n(Scanner.ScannerBound)" target="_blank">
<ellipse fill="#d4edda" stroke="#28a745" cx="143.99" cy="-904.04" rx="109.7" ry="21.43"/>
<text text-anchor="middle" x="143.99" y="-907.04" font-family="Helvetica" font-size="10.00">ScannerBound.BoundInv.isValid</text>
<text text-anchor="middle" x="143.99" y="-896.04" font-family="Helvetica" font-size="10.00">(Scanner.ScannerBound)</text>
</a>
</g>
</g>
<!-- L4YAML.Proofs.ScannerBound.BoundInv.isValid&#45;&gt;L4YAML.Scanner.ScannerState.input -->
<g id="edge19" class="edge">
<title>L4YAML.Proofs.ScannerBound.BoundInv.isValid&#45;&gt;L4YAML.Scanner.ScannerState.input</title>
<path fill="none" stroke="#6f42c1" stroke-width="2" stroke-dasharray="5,2" d="M241.43,-894.25C252.9,-889.55 263.51,-883.03 271.97,-874.04 305.05,-838.89 272.48,-691.62 308.97,-660.04 440.33,-546.36 527.51,-627.03 699.7,-650.04 902.77,-677.16 1014.82,-612.43 1144.49,-771.04 1183.12,-818.28 1128.11,-994.63 1162.49,-1045.04 1163.79,-1046.93 1165.25,-1048.7 1166.85,-1050.34"/>
<polygon fill="#6f42c1" stroke="#6f42c1" stroke-width="2" points="1165.93,-1051.88 1170.8,-1053.96 1168.3,-1049.3 1165.93,-1051.88"/>
<text text-anchor="middle" x="688.7" y="-652.44" font-family="Times-Roman" font-size="7.00" fill="#6f42c1">about</text>
</g>
<!-- L4YAML.Proofs.ScannerBound.BoundInv.isValid&#45;&gt;L4YAML.Scanner.ScannerState -->
<g id="edge18" class="edge">
<title>L4YAML.Proofs.ScannerBound.BoundInv.isValid&#45;&gt;L4YAML.Scanner.ScannerState</title>
<path fill="none" stroke="#6f42c1" stroke-width="2" stroke-dasharray="5,2" d="M243.03,-894.84C254.1,-890.03 264.18,-883.32 271.97,-874.04 316.48,-821.01 240.18,-611.13 289.97,-563.04 355.49,-499.75 1039.28,-527 1109.49,-585.04 1155.29,-622.88 1134.74,-655.44 1144.49,-714.04 1149.56,-744.46 1145.12,-965.55 1162.49,-991.04 1166.45,-996.84 1172.01,-1001.43 1178.12,-1005.05"/>
<polygon fill="#6f42c1" stroke="#6f42c1" stroke-width="2" points="1177.65,-1006.79 1182.88,-1007.63 1179.32,-1003.71 1177.65,-1006.79"/>
<text text-anchor="middle" x="688.7" y="-530.44" font-family="Times-Roman" font-size="7.00" fill="#6f42c1">about</text>
</g>
<!-- L4YAML.Proofs.ScannerBound.BoundInv.isValid&#45;&gt;L4YAML.Proofs.ScannerBound.BoundInv -->
<g id="edge16" class="edge">
<title>L4YAML.Proofs.ScannerBound.BoundInv.isValid&#45;&gt;L4YAML.Proofs.ScannerBound.BoundInv</title>
<path fill="none" stroke="#6f42c1" stroke-width="2" stroke-dasharray="5,2" d="M240.11,-893.82C251.92,-889.21 262.98,-882.82 271.97,-874.04 294.64,-851.89 273.06,-831.84 289.97,-805.04 295.87,-795.7 298.6,-792.82 308.97,-789.04 458.74,-734.37 515.94,-740.16 667.7,-789.04 684.37,-794.4 690.59,-797.07 699.7,-812.04 715.58,-838.13 688.14,-858.4 709.7,-880.04 743.45,-913.91 798,-920.13 841.44,-918.59"/>
<polygon fill="#6f42c1" stroke="#6f42c1" stroke-width="2" points="841.77,-920.33 846.69,-918.36 841.61,-916.83 841.77,-920.33"/>
<text text-anchor="middle" x="484.34" y="-791.44" font-family="Times-Roman" font-size="7.00" fill="#6f42c1">about</text>
</g>
<!-- L4YAML.Proofs.ScannerBound.BoundInv.isValid&#45;&gt;L4YAML.Scanner.ScannerState.offset -->
<g id="edge17" class="edge">
<title>L4YAML.Proofs.ScannerBound.BoundInv.isValid&#45;&gt;L4YAML.Scanner.ScannerState.offset</title>
<path fill="none" stroke="#6f42c1" stroke-width="2" stroke-dasharray="5,2" d="M243.08,-894.89C254.15,-890.07 264.21,-883.34 271.97,-874.04 296.84,-844.22 262.38,-552.35 289.97,-525.04 354.73,-460.94 608.59,-507.4 699.7,-509.04 897.48,-512.59 994.04,-396.61 1144.49,-525.04 1200.02,-572.43 1215.49,-810.38 1219.06,-886.55"/>
<polygon fill="#6f42c1" stroke="#6f42c1" stroke-width="2" points="1217.32,-886.83 1219.3,-891.75 1220.82,-886.67 1217.32,-886.83"/>
<text text-anchor="middle" x="688.7" y="-511.44" font-family="Times-Roman" font-size="7.00" fill="#6f42c1">about</text>
</g>
<!-- L4YAML.Proofs.ScannerBound.BoundInv.isValid&#45;&gt;L4YAML.Proofs.ScannerBound.scanNextToken_preserves_bound -->
<g id="edge7" class="edge">
<title>L4YAML.Proofs.ScannerBound.BoundInv.isValid&#45;&gt;L4YAML.Proofs.ScannerBound.scanNextToken_preserves_bound</title>
<path fill="none" stroke="#28a745" d="M240.58,-893.86C252.25,-889.23 263.15,-882.83 271.97,-874.04 296.26,-849.84 280.17,-831.88 289.97,-799.04 297.13,-775.06 290.23,-762.61 308.97,-746.04 434.82,-634.77 510.75,-681.59 677.7,-663.04 770.34,-652.74 853.12,-747.17 889.3,-795.98"/>
<polygon fill="#28a745" stroke="#28a745" points="887.37,-797.49 893.47,-801.69 891.32,-794.6 887.37,-797.49"/>
</g>
<!-- L4YAML.Proofs.ScannerBound.BoundInv.isValid&#45;&gt;L4YAML.Proofs.ScannerBound.scanNextToken_preserves_bound_full -->
<g id="edge38" class="edge">
<title>L4YAML.Proofs.ScannerBound.BoundInv.isValid&#45;&gt;L4YAML.Proofs.ScannerBound.scanNextToken_preserves_bound_full</title>
<path fill="none" stroke="#cccccc" stroke-dasharray="5,2" d="M240.48,-914.32C252.16,-918.93 263.09,-925.3 271.97,-934.04 295.18,-956.87 265.29,-983.81 289.97,-1005.04 295.69,-1009.95 301.89,-1014.16 308.43,-1017.73"/>
<polygon fill="#cccccc" stroke="#cccccc" points="307.91,-1019.04 312.1,-1019.66 309.21,-1016.56 307.91,-1019.04"/>
</g>
<!-- L4YAML.Proofs.ScannerBound.scanNextToken_preserves_bound_full&#45;&gt;L4YAML.Scanner.scanNextToken -->
<g id="edge25" class="edge">
<title>L4YAML.Proofs.ScannerBound.scanNextToken_preserves_bound_full&#45;&gt;L4YAML.Scanner.scanNextToken</title>
<path fill="none" stroke="#6f42c1" stroke-width="2" stroke-dasharray="5,2" d="M518.37,-1045.07C560.82,-1070.93 637.63,-1113.87 709.7,-1134.04 875.74,-1180.5 1082.89,-1182.97 1173.71,-1181.44"/>
<polygon fill="#6f42c1" stroke="#6f42c1" stroke-width="2" points="1173.77,-1183.18 1178.73,-1181.34 1173.7,-1179.69 1173.77,-1183.18"/>
<text text-anchor="middle" x="909.6" y="-1183.44" font-family="Times-Roman" font-size="7.00" fill="#6f42c1">about</text>
</g>
<!-- L4YAML.Proofs.ScannerBound.scanNextToken_preserves_bound_full&#45;&gt;L4YAML.Scanner.ScannerState.input -->
<g id="edge24" class="edge">
<title>L4YAML.Proofs.ScannerBound.scanNextToken_preserves_bound_full&#45;&gt;L4YAML.Scanner.ScannerState.input</title>
<path fill="none" stroke="#6f42c1" stroke-width="2" stroke-dasharray="5,2" d="M606.3,-1039.33C639.76,-1043.21 676.1,-1047.11 709.7,-1050.04 891.45,-1065.88 937.13,-1068.7 1119.49,-1074.04 1134.54,-1074.48 1150.86,-1074.39 1165.88,-1074.09"/>
<polygon fill="#6f42c1" stroke="#6f42c1" stroke-width="2" points="1165.96,-1075.84 1170.92,-1073.98 1165.88,-1072.34 1165.96,-1075.84"/>
<text text-anchor="middle" x="909.6" y="-1075.44" font-family="Times-Roman" font-size="7.00" fill="#6f42c1">about</text>
</g>
<!-- L4YAML.Proofs.ScannerBound.scanNextToken_preserves_bound_full&#45;&gt;L4YAML.Scanner.ScannerState -->
<g id="edge22" class="edge">
<title>L4YAML.Proofs.ScannerBound.scanNextToken_preserves_bound_full&#45;&gt;L4YAML.Scanner.ScannerState</title>
<path fill="none" stroke="#6f42c1" stroke-width="2" stroke-dasharray="5,2" d="M653.71,-1029.59C661.82,-1029.76 669.85,-1029.91 677.7,-1030.04 885.14,-1033.27 937.67,-1046.37 1144.49,-1030.04 1155.3,-1029.18 1166.89,-1027.65 1177.67,-1025.97"/>
<polygon fill="#6f42c1" stroke="#6f42c1" stroke-width="2" points="1178.22,-1027.65 1182.88,-1025.13 1177.67,-1024.19 1178.22,-1027.65"/>
<text text-anchor="middle" x="909.6" y="-1040.44" font-family="Times-Roman" font-size="7.00" fill="#6f42c1">about</text>
</g>
<!-- L4YAML.Proofs.ScannerBound.scanNextToken_preserves_bound_full&#45;&gt;L4YAML.Proofs.ScannerBound.BoundInv -->
<g id="edge20" class="edge">
<title>L4YAML.Proofs.ScannerBound.scanNextToken_preserves_bound_full&#45;&gt;L4YAML.Proofs.ScannerBound.BoundInv</title>
<path fill="none" stroke="#6f42c1" stroke-width="2" stroke-dasharray="5,2" d="M587.61,-1006.78C613.86,-1001.7 641.95,-995.7 667.7,-989.04 732.99,-972.14 806.43,-947.16 854.87,-929.84"/>
<polygon fill="#6f42c1" stroke="#6f42c1" stroke-width="2" points="855.66,-931.41 859.77,-928.08 854.48,-928.12 855.66,-931.41"/>
<text text-anchor="middle" x="688.7" y="-987.44" font-family="Times-Roman" font-size="7.00" fill="#6f42c1">about</text>
</g>
<!-- L4YAML.Proofs.ScannerBound.scanNextToken_preserves_bound_full&#45;&gt;L4YAML.ScanError -->
<g id="edge23" class="edge">
<title>L4YAML.Proofs.ScannerBound.scanNextToken_preserves_bound_full&#45;&gt;L4YAML.ScanError</title>
<path fill="none" stroke="#6f42c1" stroke-width="2" stroke-dasharray="5,2" d="M546.54,-1043.98C591.26,-1057.73 653.63,-1075.24 709.7,-1085.04 886.18,-1115.86 1101.12,-1123.56 1184.54,-1125.44"/>
<polygon fill="#6f42c1" stroke="#6f42c1" stroke-width="2" points="1184.8,-1127.2 1189.84,-1125.56 1184.88,-1123.7 1184.8,-1127.2"/>
<text text-anchor="middle" x="909.6" y="-1124.44" font-family="Times-Roman" font-size="7.00" fill="#6f42c1">about</text>
</g>
<!-- L4YAML.Proofs.ScannerBound.scanNextToken_preserves_bound_full&#45;&gt;L4YAML.Scanner.ScannerState.inputEnd -->
<g id="edge21" class="edge">
<title>L4YAML.Proofs.ScannerBound.scanNextToken_preserves_bound_full&#45;&gt;L4YAML.Scanner.ScannerState.inputEnd</title>
<path fill="none" stroke="#6f42c1" stroke-width="2" stroke-dasharray="5,2" d="M654.24,-1018.63C817.76,-1012.62 1053.84,-1001.65 1144.49,-986.04 1148.94,-985.27 1153.5,-984.33 1158.06,-983.29"/>
<polygon fill="#6f42c1" stroke="#6f42c1" stroke-width="2" points="1158.55,-984.97 1163.01,-982.11 1157.74,-981.56 1158.55,-984.97"/>
<text text-anchor="middle" x="909.6" y="-1018.44" font-family="Times-Roman" font-size="7.00" fill="#6f42c1">about</text>
</g>
<!-- L4YAML.Proofs.ScannerBound.scanNextToken_preserves_bound_full&#45;&gt;L4YAML.Proofs.ScannerBound.scanNextToken_preserves_bound -->
<g id="edge10" class="edge">
<title>L4YAML.Proofs.ScannerBound.scanNextToken_preserves_bound_full&#45;&gt;L4YAML.Proofs.ScannerBound.scanNextToken_preserves_bound</title>
<path fill="none" stroke="#28a745" d="M627.81,-1011.75C642.28,-1006.24 655.95,-998.86 667.7,-989.04 677.66,-980.71 700.1,-888.77 709.7,-880.04 727.88,-863.48 750.59,-851.77 774.09,-843.5"/>
<polygon fill="#28a745" stroke="#28a745" points="774.89,-845.82 780.74,-841.26 773.32,-841.18 774.89,-845.82"/>
</g>
<!-- L4YAML.Proofs.ScannerBound.BoundInv.refl -->
<g id="node12" class="node">
<title>L4YAML.Proofs.ScannerBound.BoundInv.refl</title>
<g id="a_node12"><a xlink:href="../../../api/L4YAML/Proofs/Scanner/ScannerBound.html#L4YAML.Proofs.ScannerBound.BoundInv.refl" xlink:title="ScannerBound.BoundInv.refl\n(Scanner.ScannerBound)" target="_blank">
<ellipse fill="#d4edda" stroke="#28a745" cx="143.99" cy="-784.04" rx="98.99" ry="21.43"/>
<text text-anchor="middle" x="143.99" y="-787.04" font-family="Helvetica" font-size="10.00">ScannerBound.BoundInv.refl</text>
<text text-anchor="middle" x="143.99" y="-776.04" font-family="Helvetica" font-size="10.00">(Scanner.ScannerBound)</text>
</a>
</g>
</g>
<!-- L4YAML.Proofs.ScannerBound.BoundInv.refl&#45;&gt;L4YAML.Scanner.ScannerState.input -->
<g id="edge30" class="edge">
<title>L4YAML.Proofs.ScannerBound.BoundInv.refl&#45;&gt;L4YAML.Scanner.ScannerState.input</title>
<path fill="none" stroke="#6f42c1" stroke-width="2" stroke-dasharray="5,2" d="M147.41,-762.51C158.83,-665.39 210.98,-269.87 308.97,-206.04 375.77,-162.52 594.04,-175.56 667.7,-206.04 924.06,-312.09 959.05,-413.93 1109.49,-647.04 1133.44,-684.14 1135.31,-696.84 1144.49,-740.04 1151.55,-773.24 1143.46,-1016.93 1162.49,-1045.04 1163.78,-1046.94 1165.24,-1048.71 1166.83,-1050.35"/>
<polygon fill="#6f42c1" stroke="#6f42c1" stroke-width="2" points="1165.91,-1051.88 1170.77,-1053.98 1168.28,-1049.31 1165.91,-1051.88"/>
<text text-anchor="middle" x="688.7" y="-221.44" font-family="Times-Roman" font-size="7.00" fill="#6f42c1">about</text>
</g>
<!-- L4YAML.Proofs.ScannerBound.BoundInv.refl&#45;&gt;L4YAML.Scanner.ScannerState -->
<g id="edge29" class="edge">
<title>L4YAML.Proofs.ScannerBound.BoundInv.refl&#45;&gt;L4YAML.Scanner.ScannerState</title>
<path fill="none" stroke="#6f42c1" stroke-width="2" stroke-dasharray="5,2" d="M146.64,-762.65C154.82,-663.32 194.38,-248.48 289.97,-171.04 360.82,-113.64 1045.41,-147.19 1109.49,-212.04 1209.44,-313.17 1133.94,-388.24 1144.49,-530.04 1146.4,-555.6 1148.33,-969.67 1162.49,-991.04 1166.38,-996.9 1171.89,-1001.51 1177.99,-1005.14"/>
<polygon fill="#6f42c1" stroke="#6f42c1" stroke-width="2" points="1177.51,-1006.87 1182.74,-1007.72 1179.19,-1003.8 1177.51,-1006.87"/>
<text text-anchor="middle" x="688.7" y="-148.44" font-family="Times-Roman" font-size="7.00" fill="#6f42c1">about</text>
</g>
<!-- L4YAML.Proofs.ScannerBound.BoundInv.refl&#45;&gt;L4YAML.Proofs.ScannerBound.BoundInv -->
<g id="edge26" class="edge">
<title>L4YAML.Proofs.ScannerBound.BoundInv.refl&#45;&gt;L4YAML.Proofs.ScannerBound.BoundInv</title>
<path fill="none" stroke="#6f42c1" stroke-width="2" stroke-dasharray="5,2" d="M157.23,-763C181.25,-723.56 238.42,-638.33 308.97,-592.04 460.12,-492.87 570.29,-352.81 699.7,-479.04 715.65,-494.6 694.95,-863.33 709.7,-880.04 741.74,-916.34 797.42,-922.12 841.73,-919.79"/>
<polygon fill="#6f42c1" stroke="#6f42c1" stroke-width="2" points="841.92,-921.53 846.8,-919.48 841.71,-918.04 841.92,-921.53"/>
<text text-anchor="middle" x="484.34" y="-594.44" font-family="Times-Roman" font-size="7.00" fill="#6f42c1">about</text>
</g>
<!-- L4YAML.Proofs.ScannerBound.BoundInv.refl&#45;&gt;L4YAML.Scanner.ScannerState.offset -->
<g id="edge27" class="edge">
<title>L4YAML.Proofs.ScannerBound.BoundInv.refl&#45;&gt;L4YAML.Scanner.ScannerState.offset</title>
<path fill="none" stroke="#6f42c1" stroke-width="2" stroke-dasharray="5,2" d="M146.09,-762.61C152.05,-656.04 184.18,-184.56 289.97,-95.04 434.93,27.63 1006.49,35.4 1144.49,-95.04 1203.64,-150.93 1217.39,-759.37 1219.63,-886.74"/>
<polygon fill="#6f42c1" stroke="#6f42c1" stroke-width="2" points="1217.88,-886.79 1219.71,-891.76 1221.38,-886.73 1217.88,-886.79"/>
<text text-anchor="middle" x="688.7" y="-3.44" font-family="Times-Roman" font-size="7.00" fill="#6f42c1">about</text>
</g>
<!-- L4YAML.Proofs.ScannerBound.BoundInv.refl&#45;&gt;L4YAML.Scanner.ScannerState.inputEnd -->
<g id="edge28" class="edge">
<title>L4YAML.Proofs.ScannerBound.BoundInv.refl&#45;&gt;L4YAML.Scanner.ScannerState.inputEnd</title>
<path fill="none" stroke="#6f42c1" stroke-width="2" stroke-dasharray="5,2" d="M146.36,-762.77C153.45,-660.07 189.6,-216.97 289.97,-133.04 362.81,-72.13 1077.81,-65.44 1144.49,-133.04 1175.87,-164.84 1138.12,-899.59 1162.49,-937.04 1163.71,-938.91 1165.1,-940.65 1166.62,-942.28"/>
<polygon fill="#6f42c1" stroke="#6f42c1" stroke-width="2" points="1165.56,-943.68 1170.39,-945.86 1167.97,-941.15 1165.56,-943.68"/>
<text text-anchor="middle" x="688.7" y="-88.44" font-family="Times-Roman" font-size="7.00" fill="#6f42c1">about</text>
</g>
<!-- L4YAML.Proofs.ScannerBound.BoundInv.refl&#45;&gt;L4YAML.Proofs.ScannerBound.scanNextToken_preserves_bound -->
<g id="edge9" class="edge">
<title>L4YAML.Proofs.ScannerBound.BoundInv.refl&#45;&gt;L4YAML.Proofs.ScannerBound.scanNextToken_preserves_bound</title>
<path fill="none" stroke="#28a745" d="M144.57,-762.58C144.22,-684.35 153.26,-410.94 289.97,-255.04 296.01,-248.15 299.99,-248.85 308.97,-247.04 465.25,-215.48 522.26,-181.72 667.7,-247.04 882.63,-343.55 906.27,-691.16 908.49,-794.72"/>
<polygon fill="#28a745" stroke="#28a745" points="906.04,-794.79 908.61,-801.75 910.94,-794.7 906.04,-794.79"/>
</g>
<!-- L4YAML.Proofs.ScannerBound.BoundInv.refl&#45;&gt;L4YAML.Proofs.ScannerBound.scanNextToken_preserves_bound_full -->
<g id="edge40" class="edge">
<title>L4YAML.Proofs.ScannerBound.BoundInv.refl&#45;&gt;L4YAML.Proofs.ScannerBound.scanNextToken_preserves_bound_full</title>
<path fill="none" stroke="#cccccc" stroke-dasharray="5,2" d="M235.68,-792.07C249.25,-796.82 262,-803.83 271.97,-814.04 327.52,-870.91 252.47,-933.11 308.97,-989.04 317.65,-997.62 327.8,-1004.39 338.77,-1009.7"/>
<polygon fill="#cccccc" stroke="#cccccc" points="338.3,-1011.03 342.52,-1011.44 339.48,-1008.49 338.3,-1011.03"/>
</g>
<!-- L4YAML.Proofs.ScannerBound.BoundInv.offset_le -->
<g id="node13" class="node">
<title>L4YAML.Proofs.ScannerBound.BoundInv.offset_le</title>
<g id="a_node13"><a xlink:href="../../../api/L4YAML/Proofs/Scanner/ScannerBound.html#L4YAML.Proofs.ScannerBound.BoundInv.offset_le" xlink:title="ScannerBound.BoundInv.offset_le\n(Scanner.ScannerBound)" target="_blank">
<ellipse fill="#d4edda" stroke="#28a745" cx="143.99" cy="-844.04" rx="115.93" ry="21.43"/>
<text text-anchor="middle" x="143.99" y="-847.04" font-family="Helvetica" font-size="10.00">ScannerBound.BoundInv.offset_le</text>
<text text-anchor="middle" x="143.99" y="-836.04" font-family="Helvetica" font-size="10.00">(Scanner.ScannerBound)</text>
</a>
</g>
</g>
<!-- L4YAML.Proofs.ScannerBound.BoundInv.offset_le&#45;&gt;L4YAML.Scanner.ScannerState -->
<g id="edge34" class="edge">
<title>L4YAML.Proofs.ScannerBound.BoundInv.offset_le&#45;&gt;L4YAML.Scanner.ScannerState</title>
<path fill="none" stroke="#6f42c1" stroke-width="2" stroke-dasharray="5,2" d="M245.57,-833.8C255.66,-829.07 264.8,-822.66 271.97,-814.04 298.22,-782.48 280.69,-485.02 289.97,-445.04 294.79,-424.29 291.17,-412.74 308.97,-401.04 375.58,-357.24 588.73,-390.16 667.7,-401.04 869.73,-428.85 950.31,-397.55 1109.49,-525.04 1135.11,-545.54 1135.76,-558.41 1144.49,-590.04 1156.37,-633.03 1137.74,-953.93 1162.49,-991.04 1166.4,-996.88 1171.92,-1001.49 1178.02,-1005.12"/>
<polygon fill="#6f42c1" stroke="#6f42c1" stroke-width="2" points="1177.54,-1006.85 1182.77,-1007.7 1179.22,-1003.78 1177.54,-1006.85"/>
<text text-anchor="middle" x="688.7" y="-407.44" font-family="Times-Roman" font-size="7.00" fill="#6f42c1">about</text>
</g>
<!-- L4YAML.Proofs.ScannerBound.BoundInv.offset_le&#45;&gt;L4YAML.Proofs.ScannerBound.BoundInv -->
<g id="edge31" class="edge">
<title>L4YAML.Proofs.ScannerBound.BoundInv.offset_le&#45;&gt;L4YAML.Proofs.ScannerBound.BoundInv</title>
<path fill="none" stroke="#6f42c1" stroke-width="2" stroke-dasharray="5,2" d="M239.24,-831.87C251.04,-827.54 262.33,-821.75 271.97,-814.04 301.31,-790.56 279.28,-761.04 308.97,-738.04 448.75,-629.73 571.82,-540.91 699.7,-663.04 717.15,-679.7 693.54,-862.11 709.7,-880.04 742.12,-916 797.77,-921.81 841.97,-919.57"/>
<polygon fill="#6f42c1" stroke="#6f42c1" stroke-width="2" points="842.14,-921.32 847.03,-919.28 841.94,-917.82 842.14,-921.32"/>
<text text-anchor="middle" x="484.34" y="-740.44" font-family="Times-Roman" font-size="7.00" fill="#6f42c1">about</text>
</g>
<!-- L4YAML.Proofs.ScannerBound.BoundInv.offset_le&#45;&gt;L4YAML.Scanner.ScannerState.offset -->
<g id="edge32" class="edge">
<title>L4YAML.Proofs.ScannerBound.BoundInv.offset_le&#45;&gt;L4YAML.Scanner.ScannerState.offset</title>
<path fill="none" stroke="#6f42c1" stroke-width="2" stroke-dasharray="5,2" d="M245.97,-833.73C255.92,-829 264.92,-822.61 271.97,-814.04 306.21,-772.37 251.92,-367.25 289.97,-329.04 323.47,-295.4 1109.4,-297.07 1144.49,-329.04 1186.56,-367.35 1212.77,-782.51 1218.7,-886.52"/>
<polygon fill="#6f42c1" stroke="#6f42c1" stroke-width="2" points="1216.97,-886.9 1219,-891.8 1220.47,-886.71 1216.97,-886.9"/>
<text text-anchor="middle" x="688.7" y="-306.44" font-family="Times-Roman" font-size="7.00" fill="#6f42c1">about</text>
</g>
<!-- L4YAML.Proofs.ScannerBound.BoundInv.offset_le&#45;&gt;L4YAML.Scanner.ScannerState.inputEnd -->
<g id="edge33" class="edge">
<title>L4YAML.Proofs.ScannerBound.BoundInv.offset_le&#45;&gt;L4YAML.Scanner.ScannerState.inputEnd</title>
<path fill="none" stroke="#6f42c1" stroke-width="2" stroke-dasharray="5,2" d="M245.95,-833.71C255.9,-828.98 264.91,-822.6 271.97,-814.04 303.59,-775.68 254.84,-402.2 289.97,-367.04 323.52,-333.45 1111,-333.39 1144.49,-367.04 1189.2,-411.94 1127.68,-884.09 1162.49,-937.04 1163.72,-938.9 1165.11,-940.64 1166.64,-942.26"/>
<polygon fill="#6f42c1" stroke="#6f42c1" stroke-width="2" points="1165.58,-943.67 1170.42,-945.84 1167.99,-941.13 1165.58,-943.67"/>
<text text-anchor="middle" x="688.7" y="-343.44" font-family="Times-Roman" font-size="7.00" fill="#6f42c1">about</text>
</g>
<!-- L4YAML.Proofs.ScannerBound.BoundInv.offset_le&#45;&gt;L4YAML.Proofs.ScannerBound.scanNextToken_preserves_bound -->
<g id="edge8" class="edge">
<title>L4YAML.Proofs.ScannerBound.BoundInv.offset_le&#45;&gt;L4YAML.Proofs.ScannerBound.scanNextToken_preserves_bound</title>
<path fill="none" stroke="#28a745" d="M245.56,-833.79C255.65,-829.06 264.8,-822.65 271.97,-814.04 297.81,-783 266.81,-484.11 289.97,-451.04 295.23,-443.53 299.99,-444.85 308.97,-443.04 465.25,-411.48 522.26,-377.72 667.7,-443.04 815.53,-509.42 881.82,-717.69 901.76,-794.88"/>
<polygon fill="#28a745" stroke="#28a745" points="899.45,-795.74 903.55,-801.93 904.2,-794.54 899.45,-795.74"/>
</g>
<!-- L4YAML.Proofs.ScannerBound.BoundInv.offset_le&#45;&gt;L4YAML.Proofs.ScannerBound.scanNextToken_preserves_bound_full -->
<g id="edge39" class="edge">
<title>L4YAML.Proofs.ScannerBound.BoundInv.offset_le&#45;&gt;L4YAML.Proofs.ScannerBound.scanNextToken_preserves_bound_full</title>
<path fill="none" stroke="#cccccc" stroke-dasharray="5,2" d="M244.46,-854.83C254.81,-859.45 264.32,-865.69 271.97,-874.04 309.31,-914.76 250.78,-958.1 289.97,-997.04 297.23,-1004.25 305.47,-1010.13 314.35,-1014.91"/>
<polygon fill="#cccccc" stroke="#cccccc" points="314,-1016.3 318.19,-1016.88 315.28,-1013.81 314,-1016.3"/>
</g>
<!-- L4YAML.Proofs.ScannerBound.BoundInv.input_eq -->
<g id="node14" class="node">
<title>L4YAML.Proofs.ScannerBound.BoundInv.input_eq</title>
<g id="a_node14"><a xlink:href="../../../api/L4YAML/Proofs/Scanner/ScannerBound.html#L4YAML.Proofs.ScannerBound.BoundInv.input_eq" xlink:title="ScannerBound.BoundInv.input_eq\n(Scanner.ScannerBound)" target="_blank">
<ellipse fill="#d4edda" stroke="#28a745" cx="143.99" cy="-1024.04" rx="115.93" ry="21.43"/>
<text text-anchor="middle" x="143.99" y="-1027.04" font-family="Helvetica" font-size="10.00">ScannerBound.BoundInv.input_eq</text>
<text text-anchor="middle" x="143.99" y="-1016.04" font-family="Helvetica" font-size="10.00">(Scanner.ScannerBound)</text>
</a>
</g>
</g>
<!-- L4YAML.Proofs.ScannerBound.BoundInv.input_eq&#45;&gt;L4YAML.Scanner.ScannerState.input -->
<g id="edge37" class="edge">
<title>L4YAML.Proofs.ScannerBound.BoundInv.input_eq&#45;&gt;L4YAML.Scanner.ScannerState.input</title>
<path fill="none" stroke="#6f42c1" stroke-width="2" stroke-dasharray="5,2" d="M240.26,-1012.08C251.77,-1007.7 262.71,-1001.85 271.97,-994.04 304.1,-966.96 275.27,-932.12 308.97,-907.04 437.66,-811.25 520.31,-930.38 667.7,-867.04 684.79,-859.69 690.23,-856.06 699.7,-840.04 711.23,-820.52 692.17,-804.4 709.7,-790.04 744.05,-761.87 1075.88,-761 1109.49,-790.04 1132.61,-810 1106.55,-830.36 1119.49,-858.04 1126.56,-873.15 1137.68,-870.81 1144.49,-886.04 1173.55,-950.95 1121.04,-987.25 1162.49,-1045.04 1163.83,-1046.9 1165.33,-1048.64 1166.96,-1050.26"/>
<polygon fill="#6f42c1" stroke="#6f42c1" stroke-width="2" points="1166.08,-1051.82 1170.97,-1053.84 1168.41,-1049.21 1166.08,-1051.82"/>
<text text-anchor="middle" x="688.7" y="-864.44" font-family="Times-Roman" font-size="7.00" fill="#6f42c1">about</text>
</g>
<!-- L4YAML.Proofs.ScannerBound.BoundInv.input_eq&#45;&gt;L4YAML.Scanner.ScannerState -->
<g id="edge36" class="edge">
<title>L4YAML.Proofs.ScannerBound.BoundInv.input_eq&#45;&gt;L4YAML.Scanner.ScannerState</title>
<path fill="none" stroke="#6f42c1" stroke-width="2" stroke-dasharray="5,2" d="M244.07,-1013.3C254.55,-1008.68 264.2,-1002.43 271.97,-994.04 307.12,-956.08 252.4,-914.6 289.97,-879.04 351.24,-821.04 597.9,-888.42 667.7,-841.04 701.25,-818.26 675.05,-781.1 709.7,-760.04 792.29,-709.83 1084.18,-695.52 1144.49,-771.04 1175.11,-809.36 1134.53,-950.74 1162.49,-991.04 1166.58,-996.92 1172.3,-1001.56 1178.56,-1005.21"/>
<polygon fill="#6f42c1" stroke="#6f42c1" stroke-width="2" points="1177.73,-1006.75 1182.96,-1007.57 1179.39,-1003.67 1177.73,-1006.75"/>
<text text-anchor="middle" x="688.7" y="-833.44" font-family="Times-Roman" font-size="7.00" fill="#6f42c1">about</text>
</g>
<!-- L4YAML.Proofs.ScannerBound.BoundInv.input_eq&#45;&gt;L4YAML.Proofs.ScannerBound.BoundInv -->
<g id="edge35" class="edge">
<title>L4YAML.Proofs.ScannerBound.BoundInv.input_eq&#45;&gt;L4YAML.Proofs.ScannerBound.BoundInv</title>
<path fill="none" stroke="#6f42c1" stroke-width="2" stroke-dasharray="5,2" d="M215.55,-1007.29C255.51,-997.88 299.4,-987.69 308.97,-986.04 467.11,-958.77 508.56,-965.68 667.7,-945.04 726.63,-937.39 793.51,-927.58 841.82,-920.29"/>
<polygon fill="#6f42c1" stroke="#6f42c1" stroke-width="2" points="842.35,-921.99 847.03,-919.51 841.82,-918.52 842.35,-921.99"/>
<text text-anchor="middle" x="484.34" y="-988.44" font-family="Times-Roman" font-size="7.00" fill="#6f42c1">about</text>
</g>
<!-- L4YAML.Proofs.ScannerBound.BoundInv.input_eq&#45;&gt;L4YAML.Proofs.ScannerBound.scanNextToken_preserves_bound -->
<g id="edge12" class="edge">
<title>L4YAML.Proofs.ScannerBound.BoundInv.input_eq&#45;&gt;L4YAML.Proofs.ScannerBound.scanNextToken_preserves_bound</title>
<path fill="none" stroke="#28a745" d="M235.29,-1010.95C248.22,-1006.77 260.87,-1001.28 271.97,-994.04 294.83,-979.13 285.22,-958.47 308.97,-945.04 448.52,-866.1 519.42,-968.01 667.7,-907.04 672.96,-904.87 673.02,-902.27 677.7,-899.04 691.3,-889.62 694.5,-886.55 709.7,-880.04 741.25,-866.51 777,-855.27 809.41,-846.49"/>
<polygon fill="#28a745" stroke="#28a745" points="810.14,-848.83 816.27,-844.66 808.88,-844.1 810.14,-848.83"/>
</g>
<!-- L4YAML.Proofs.ScannerBound.BoundInv.input_eq&#45;&gt;L4YAML.Proofs.ScannerBound.scanNextToken_preserves_bound_full -->
<g id="edge42" class="edge">
<title>L4YAML.Proofs.ScannerBound.BoundInv.input_eq&#45;&gt;L4YAML.Proofs.ScannerBound.scanNextToken_preserves_bound_full</title>
<path fill="none" stroke="#cccccc" stroke-dasharray="5,2" d="M260.01,-1024.04C274.45,-1024.04 289.49,-1024.04 304.63,-1024.04"/>
<polygon fill="#cccccc" stroke="#cccccc" points="304.9,-1025.44 308.9,-1024.04 304.9,-1022.64 304.9,-1025.44"/>
</g>
</g>
</svg>
