<?xml version="1.0" encoding="UTF-8" standalone="no"?>
<!DOCTYPE svg PUBLIC "-//W3C//DTD SVG 1.1//EN"
 "http://www.w3.org/Graphics/SVG/1.1/DTD/svg11.dtd">
<!-- Generated by graphviz version 2.44.0 (0)
 -->
<!-- Title: chain_EndToEndCorrectness.parseStream_respects_grammar_unconditional Pages: 1 -->
<svg width="1691pt" height="405pt"
 viewBox="0.00 0.00 1691.11 405.00" xmlns="http://www.w3.org/2000/svg" xmlns:xlink="http://www.w3.org/1999/xlink">
<g id="graph0" class="graph" transform="scale(1 1) rotate(0) translate(4 401)">
<title>chain_EndToEndCorrectness.parseStream_respects_grammar_unconditional</title>
<polygon fill="white" stroke="transparent" points="-4,4 -4,-401 1687.11,-401 1687.11,4 -4,4"/>
<text text-anchor="middle" x="841.56" y="-382.6" font-family="Helvetica Bold" font-size="13.00">Functorial Chains: EndToEndCorrectness.parseStream_respects_grammar_unconditional</text>
<text text-anchor="middle" x="841.56" y="-368.6" font-family="Helvetica Bold" font-size="13.00">3.1 Parser respects YAML 1.2.2 grammar (unconditional)</text>
<g id="clust1" class="cluster">
<title>cluster_fns</title>
<polygon fill="none" stroke="#4a90d9" stroke-dasharray="5,2" points="1256.11,-8 1256.11,-244 1675.11,-244 1675.11,-8 1256.11,-8"/>
<text text-anchor="middle" x="1465.61" y="-229.6" font-family="Helvetica Bold" font-size="13.00" fill="#4a90d9">Functions (Call Chain)</text>
</g>
<g id="clust2" class="cluster">
<title>cluster_thms</title>
<polygon fill="none" stroke="#28a745" stroke-dasharray="5,2" points="36.11,-89 36.11,-353 1248.11,-353 1248.11,-89 36.11,-89"/>
<text text-anchor="middle" x="642.11" y="-338.6" font-family="Helvetica Bold" font-size="13.00" fill="#28a745">Theorems (Proof Chain)</text>
</g>
<!-- L4YAML.Positioned -->
<g id="node1" class="node">
<title>L4YAML.Positioned</title>
<g id="a_node1"><a xlink:href="../../../api/L4YAML/Token/Token.html#L4YAML.Positioned" xlink:title="Positioned" target="_blank">
<polygon fill="#dce9f7" stroke="#4a90d9" points="1404.11,-133 1342.11,-133 1342.11,-97 1404.11,-97 1404.11,-133"/>
<text text-anchor="middle" x="1373.11" y="-112.5" font-family="Helvetica" font-size="10.00">Positioned</text>
</a>
</g>
</g>
<!-- L4YAML.YamlToken -->
<g id="node2" class="node">
<title>L4YAML.YamlToken</title>
<g id="a_node2"><a xlink:href="../../../api/L4YAML/Token/Token.html#L4YAML.YamlToken" xlink:title="YamlToken" target="_blank">
<polygon fill="#dce9f7" stroke="#4a90d9" points="1486.11,-133 1422.11,-133 1422.11,-97 1486.11,-97 1486.11,-133"/>
<text text-anchor="middle" x="1454.11" y="-112.5" font-family="Helvetica" font-size="10.00">YamlToken</text>
</a>
</g>
</g>
<!-- L4YAML.YamlDocument.compose -->
<g id="node3" class="node">
<title>L4YAML.YamlDocument.compose</title>
<g id="a_node3"><a xlink:href="../../../api/L4YAML/Spec/Types.html#L4YAML.YamlDocument.compose" xlink:title="YamlDocument.compose" target="_blank">
<polygon fill="#dce9f7" stroke="#4a90d9" points="1626.61,-214 1501.61,-214 1501.61,-178 1626.61,-178 1626.61,-214"/>
<text text-anchor="middle" x="1564.11" y="-193.5" font-family="Helvetica" font-size="10.00">YamlDocument.compose</text>
</a>
</g>
</g>
<!-- L4YAML.YamlDocument.value -->
<g id="node7" class="node">
<title>L4YAML.YamlDocument.value</title>
<g id="a_node7"><a xlink:href="../../../api/L4YAML/Spec/Types.html#L4YAML.YamlDocument.value" xlink:title="YamlDocument.value" target="_blank">
<polygon fill="#dce9f7" stroke="#4a90d9" points="1667.11,-133 1559.11,-133 1559.11,-97 1667.11,-97 1667.11,-133"/>
<text text-anchor="middle" x="1613.11" y="-112.5" font-family="Helvetica" font-size="10.00">YamlDocument.value</text>
</a>
</g>
</g>
<!-- L4YAML.YamlDocument.compose&#45;&gt;L4YAML.YamlDocument.value -->
<g id="edge2" class="edge">
<title>L4YAML.YamlDocument.compose&#45;&gt;L4YAML.YamlDocument.value</title>
<path fill="none" stroke="#4a90d9" stroke-width="2" d="M1574.74,-177.86C1581.74,-166.57 1590.99,-151.66 1598.66,-139.3"/>
<polygon fill="#4a90d9" stroke="#4a90d9" stroke-width="2" points="1600.89,-140.35 1602.5,-133.11 1596.73,-137.77 1600.89,-140.35"/>
<text text-anchor="middle" x="1598.61" y="-153.6" font-family="Times-Roman" font-size="8.00">calls</text>
</g>
<!-- L4YAML.Scanner.scanFiltered -->
<g id="node4" class="node">
<title>L4YAML.Scanner.scanFiltered</title>
<g id="a_node4"><a xlink:href="../../../api/L4YAML/Scanner/Scanner.html#L4YAML.Scanner.scanFiltered" xlink:title="scanFiltered" target="_blank">
<polygon fill="#dce9f7" stroke="#4a90d9" points="1334.11,-214 1264.11,-214 1264.11,-178 1334.11,-178 1334.11,-214"/>
<text text-anchor="middle" x="1299.11" y="-193.5" font-family="Helvetica" font-size="10.00">scanFiltered</text>
</a>
</g>
</g>
<!-- L4YAML.Scanner.scanFiltered&#45;&gt;L4YAML.YamlToken -->
<g id="edge25" class="edge">
<title>L4YAML.Scanner.scanFiltered&#45;&gt;L4YAML.YamlToken</title>
<path fill="none" stroke="#4a90d9" stroke-width="2" d="M1325.65,-177.79C1339.28,-169.26 1356.3,-159.09 1372.11,-151 1376.41,-148.8 1395.97,-140.44 1414.91,-132.44"/>
<polygon fill="#4a90d9" stroke="#4a90d9" stroke-width="2" points="1416.33,-134.5 1421.83,-129.53 1414.43,-129.99 1416.33,-134.5"/>
<text text-anchor="middle" x="1381.61" y="-153.6" font-family="Times-Roman" font-size="8.00">calls</text>
</g>
<!-- L4YAML.ScanError -->
<g id="node5" class="node">
<title>L4YAML.ScanError</title>
<g id="a_node5"><a xlink:href="../../../api/L4YAML/Token/Token.html#L4YAML.ScanError" xlink:title="ScanError" target="_blank">
<polygon fill="#dce9f7" stroke="#4a90d9" points="1324.11,-133 1264.11,-133 1264.11,-97 1324.11,-97 1324.11,-133"/>
<text text-anchor="middle" x="1294.11" y="-112.5" font-family="Helvetica" font-size="10.00">ScanError</text>
</a>
</g>
</g>
<!-- L4YAML.Scanner.scanFiltered&#45;&gt;L4YAML.ScanError -->
<g id="edge23" class="edge">
<title>L4YAML.Scanner.scanFiltered&#45;&gt;L4YAML.ScanError</title>
<path fill="none" stroke="#4a90d9" stroke-width="2" d="M1298.03,-177.86C1297.33,-166.88 1296.42,-152.48 1295.65,-140.33"/>
<polygon fill="#4a90d9" stroke="#4a90d9" stroke-width="2" points="1298.08,-139.94 1295.2,-133.11 1293.19,-140.25 1298.08,-139.94"/>
<text text-anchor="middle" x="1306.61" y="-153.6" font-family="Times-Roman" font-size="8.00">calls</text>
</g>
<!-- L4YAML.TokenParser.parseStream -->
<g id="node6" class="node">
<title>L4YAML.TokenParser.parseStream</title>
<g id="a_node6"><a xlink:href="../../../api/L4YAML/Parser/TokenParser.html#L4YAML.TokenParser.parseStream" xlink:title="TokenParser.parseStream" target="_blank">
<polygon fill="#dce9f7" stroke="#4a90d9" points="1483.61,-214 1352.61,-214 1352.61,-178 1483.61,-178 1483.61,-214"/>
<text text-anchor="middle" x="1418.11" y="-193.5" font-family="Helvetica" font-size="10.00">TokenParser.parseStream</text>
</a>
</g>
</g>
<!-- L4YAML.TokenParser.parseStream&#45;&gt;L4YAML.Positioned -->
<g id="edge19" class="edge">
<title>L4YAML.TokenParser.parseStream&#45;&gt;L4YAML.Positioned</title>
<path fill="none" stroke="#4a90d9" stroke-width="2" d="M1408.35,-177.86C1401.92,-166.57 1393.43,-151.66 1386.39,-139.3"/>
<polygon fill="#4a90d9" stroke="#4a90d9" stroke-width="2" points="1388.45,-137.98 1382.86,-133.11 1384.19,-140.4 1388.45,-137.98"/>
<text text-anchor="middle" x="1406.61" y="-153.6" font-family="Times-Roman" font-size="8.00">calls</text>
</g>
<!-- L4YAML.TokenParser.parseStream&#45;&gt;L4YAML.YamlToken -->
<g id="edge17" class="edge">
<title>L4YAML.TokenParser.parseStream&#45;&gt;L4YAML.YamlToken</title>
<path fill="none" stroke="#4a90d9" stroke-width="2" d="M1425.92,-177.86C1431.02,-166.68 1437.74,-151.93 1443.34,-139.64"/>
<polygon fill="#4a90d9" stroke="#4a90d9" stroke-width="2" points="1445.64,-140.49 1446.32,-133.11 1441.18,-138.46 1445.64,-140.49"/>
<text text-anchor="middle" x="1447.61" y="-153.6" font-family="Times-Roman" font-size="8.00">calls</text>
</g>
<!-- L4YAML.YamlDocument -->
<g id="node8" class="node">
<title>L4YAML.YamlDocument</title>
<g id="a_node8"><a xlink:href="../../../api/L4YAML/Spec/Types.html#L4YAML.YamlDocument" xlink:title="YamlDocument" target="_blank">
<polygon fill="#dce9f7" stroke="#4a90d9" points="1347.61,-52 1264.61,-52 1264.61,-16 1347.61,-16 1347.61,-52"/>
<text text-anchor="middle" x="1306.11" y="-31.5" font-family="Helvetica" font-size="10.00">YamlDocument</text>
</a>
</g>
</g>
<!-- L4YAML.TokenParser.parseStream&#45;&gt;L4YAML.YamlDocument -->
<g id="edge21" class="edge">
<title>L4YAML.TokenParser.parseStream&#45;&gt;L4YAML.YamlDocument</title>
<path fill="none" stroke="#4a90d9" stroke-width="2" d="M1451.09,-177.86C1467.57,-167.34 1485.92,-152.2 1495.11,-133 1503.56,-115.36 1506.89,-104.61 1495.11,-89 1478.18,-66.56 1404.77,-50.64 1354.58,-42.14"/>
<polygon fill="#4a90d9" stroke="#4a90d9" stroke-width="2" points="1354.97,-39.72 1347.66,-40.99 1354.16,-44.55 1354.97,-39.72"/>
<text text-anchor="middle" x="1511.61" y="-113.1" font-family="Times-Roman" font-size="8.00">calls</text>
</g>
<!-- L4YAML.YamlDocument.value&#45;&gt;L4YAML.YamlDocument -->
<g id="edge5" class="edge">
<title>L4YAML.YamlDocument.value&#45;&gt;L4YAML.YamlDocument</title>
<path fill="none" stroke="#4a90d9" stroke-width="2" d="M1585.42,-96.99C1569.02,-87.65 1547.52,-76.65 1527.11,-70 1469.61,-51.27 1400.32,-42.37 1354.84,-38.28"/>
<polygon fill="#4a90d9" stroke="#4a90d9" stroke-width="2" points="1354.94,-35.83 1347.76,-37.66 1354.52,-40.71 1354.94,-35.83"/>
<text text-anchor="middle" x="1558.61" y="-72.6" font-family="Times-Roman" font-size="8.00">calls</text>
</g>
<!-- L4YAML.Proofs.ParserGrammable.parseStream_output_aliases_resolve -->
<g id="node9" class="node">
<title>L4YAML.Proofs.ParserGrammable.parseStream_output_aliases_resolve</title>
<g id="a_node9"><a xlink:href="../../../api/L4YAML/Proofs/Parser/ParserAnchorProofs.html#L4YAML.Proofs.ParserGrammable.parseStream_output_aliases_resolve" xlink:title="ParserGrammable.parseStream_output_aliases_resolve" target="_blank">
<ellipse fill="#d4edda" stroke="#28a745" cx="545.11" cy="-115" rx="153.1" ry="18"/>
<text text-anchor="middle" x="545.11" y="-112.5" font-family="Helvetica" font-size="10.00">ParserGrammable.parseStream_output_aliases_resolve</text>
</a>
</g>
</g>
<!-- L4YAML.Proofs.ParserGrammable.parseStream_output_aliases_resolve&#45;&gt;L4YAML.YamlDocument -->
<g id="edge11" class="edge">
<title>L4YAML.Proofs.ParserGrammable.parseStream_output_aliases_resolve&#45;&gt;L4YAML.YamlDocument</title>
<path fill="none" stroke="#6f42c1" stroke-width="2" stroke-dasharray="5,2" d="M629.47,-99.95C654.43,-96.07 681.83,-92.09 707.11,-89 910.81,-64.13 1154.78,-45.62 1257.14,-38.36"/>
<polygon fill="#6f42c1" stroke="#6f42c1" stroke-width="2" points="1257.45,-40.8 1264.26,-37.86 1257.1,-35.91 1257.45,-40.8"/>
<text text-anchor="middle" x="884.61" y="-72.6" font-family="Times-Roman" font-size="8.00" fill="#6f42c1">about</text>
</g>
<!-- L4YAML.Proofs.ParserGrammable.parseStream_output_scannable -->
<g id="node10" class="node">
<title>L4YAML.Proofs.ParserGrammable.parseStream_output_scannable</title>
<g id="a_node10"><a xlink:href="../../../api/L4YAML/Proofs/Parser/ParserWellBehaved.html#L4YAML.Proofs.ParserGrammable.parseStream_output_scannable" xlink:title="ParserGrammable.parseStream_output_scannable" target="_blank">
<ellipse fill="#d4edda" stroke="#28a745" cx="856.11" cy="-115" rx="139.53" ry="18"/>
<text text-anchor="middle" x="856.11" y="-112.5" font-family="Helvetica" font-size="10.00">ParserGrammable.parseStream_output_scannable</text>
</a>
</g>
</g>
<!-- L4YAML.Proofs.ParserGrammable.parseStream_output_scannable&#45;&gt;L4YAML.YamlDocument -->
<g id="edge7" class="edge">
<title>L4YAML.Proofs.ParserGrammable.parseStream_output_scannable&#45;&gt;L4YAML.YamlDocument</title>
<path fill="none" stroke="#6f42c1" stroke-width="2" stroke-dasharray="5,2" d="M935.01,-100.15C1028.05,-83.82 1179.8,-57.17 1257.26,-43.58"/>
<polygon fill="#6f42c1" stroke="#6f42c1" stroke-width="2" points="1258.05,-45.92 1264.52,-42.3 1257.21,-41.1 1258.05,-45.92"/>
<text text-anchor="middle" x="1107.61" y="-72.6" font-family="Times-Roman" font-size="8.00" fill="#6f42c1">about</text>
</g>
<!-- L4YAML.Proofs.EndToEndCorrectness.parseStream_respects_grammar_unconditional -->
<g id="node11" class="node">
<title>L4YAML.Proofs.EndToEndCorrectness.parseStream_respects_grammar_unconditional</title>
<g id="a_node11"><a xlink:href="../../../api/L4YAML/Proofs/EndToEndCorrectness.html#L4YAML.Proofs.EndToEndCorrectness.parseStream_respects_grammar_unconditional" xlink:title="EndToEndCorrectness.parseStream_respects_grammar_unconditional" target="_blank">
<polygon fill="#fff3cd" stroke="#d4a017" points="1235.72,-293.54 1235.72,-308.46 1115.28,-319 944.95,-319 824.5,-308.46 824.5,-293.54 944.95,-283 1115.28,-283 1235.72,-293.54"/>
<polygon fill="none" stroke="#d4a017" points="1239.72,-289.88 1239.72,-312.12 1115.45,-323 944.77,-323 820.5,-312.12 820.5,-289.88 944.77,-279 1115.45,-279 1239.72,-289.88"/>
<text text-anchor="middle" x="1030.11" y="-298.5" font-family="Helvetica" font-size="10.00">EndToEndCorrectness.parseStream_respects_grammar_unconditional</text>
</a>
</g>
</g>
<!-- L4YAML.Proofs.EndToEndCorrectness.parseStream_respects_grammar_unconditional&#45;&gt;L4YAML.YamlDocument.compose -->
<g id="edge1" class="edge">
<title>L4YAML.Proofs.EndToEndCorrectness.parseStream_respects_grammar_unconditional&#45;&gt;L4YAML.YamlDocument.compose</title>
<path fill="none" stroke="#6f42c1" stroke-width="2" stroke-dasharray="5,2" d="M1207.37,-287.02C1315.17,-277.49 1441.68,-262.92 1493.11,-244 1509.23,-238.07 1525.35,-227.84 1538.14,-218.43"/>
<polygon fill="#6f42c1" stroke="#6f42c1" stroke-width="2" points="1539.66,-220.36 1543.77,-214.19 1536.71,-216.45 1539.66,-220.36"/>
<text text-anchor="middle" x="1477.61" y="-254.6" font-family="Times-Roman" font-size="8.00" fill="#6f42c1">about</text>
</g>
<!-- L4YAML.Proofs.EndToEndCorrectness.parseStream_respects_grammar_unconditional&#45;&gt;L4YAML.Scanner.scanFiltered -->
<g id="edge22" class="edge">
<title>L4YAML.Proofs.EndToEndCorrectness.parseStream_respects_grammar_unconditional&#45;&gt;L4YAML.Scanner.scanFiltered</title>
<path fill="none" stroke="#6f42c1" stroke-width="2" stroke-dasharray="5,2" d="M1150.42,-282.03C1184.73,-273.69 1221.17,-261.56 1252.11,-244 1263.08,-237.77 1273.25,-228.29 1281.31,-219.48"/>
<polygon fill="#6f42c1" stroke="#6f42c1" stroke-width="2" points="1283.25,-220.98 1286.04,-214.11 1279.57,-217.74 1283.25,-220.98"/>
<text text-anchor="middle" x="1248.61" y="-254.6" font-family="Times-Roman" font-size="8.00" fill="#6f42c1">about</text>
</g>
<!-- L4YAML.Proofs.EndToEndCorrectness.parseStream_respects_grammar_unconditional&#45;&gt;L4YAML.TokenParser.parseStream -->
<g id="edge16" class="edge">
<title>L4YAML.Proofs.EndToEndCorrectness.parseStream_respects_grammar_unconditional&#45;&gt;L4YAML.TokenParser.parseStream</title>
<path fill="none" stroke="#6f42c1" stroke-width="2" stroke-dasharray="5,2" d="M1186.57,-285.17C1237.76,-276.89 1294.04,-264.01 1343.11,-244 1359.4,-237.36 1376.12,-227.26 1389.62,-218.12"/>
<polygon fill="#6f42c1" stroke="#6f42c1" stroke-width="2" points="1391.22,-220 1395.59,-214.01 1388.44,-215.96 1391.22,-220"/>
<text text-anchor="middle" x="1331.61" y="-254.6" font-family="Times-Roman" font-size="8.00" fill="#6f42c1">about</text>
</g>
<!-- L4YAML.Proofs.EndToEndCorrectness.parseStream_respects_grammar_unconditional&#45;&gt;L4YAML.YamlDocument.value -->
<g id="edge14" class="edge">
<title>L4YAML.Proofs.EndToEndCorrectness.parseStream_respects_grammar_unconditional&#45;&gt;L4YAML.YamlDocument.value</title>
<path fill="none" stroke="#6f42c1" stroke-width="2" stroke-dasharray="5,2" d="M1239.78,-294.49C1404.24,-287.91 1609.68,-273.78 1636.11,-244 1661.64,-215.23 1643.01,-168.08 1627.69,-139.74"/>
<polygon fill="#6f42c1" stroke="#6f42c1" stroke-width="2" points="1629.65,-138.22 1624.09,-133.31 1625.37,-140.61 1629.65,-138.22"/>
<text text-anchor="middle" x="1660.61" y="-194.1" font-family="Times-Roman" font-size="8.00" fill="#6f42c1">about</text>
</g>
<!-- L4YAML.Proofs.ParserGrammable.parseStream_output_grammable -->
<g id="node14" class="node">
<title>L4YAML.Proofs.ParserGrammable.parseStream_output_grammable</title>
<g id="a_node14"><a xlink:href="../../../api/L4YAML/Proofs/Parser/ParserGrammable.html#L4YAML.Proofs.ParserGrammable.parseStream_output_grammable" xlink:title="ParserGrammable.parseStream_output_grammable" target="_blank">
<ellipse fill="#d4edda" stroke="#28a745" cx="1044.11" cy="-196" rx="141.74" ry="18"/>
<text text-anchor="middle" x="1044.11" y="-193.5" font-family="Helvetica" font-size="10.00">ParserGrammable.parseStream_output_grammable</text>
</a>
</g>
</g>
<!-- L4YAML.Proofs.EndToEndCorrectness.parseStream_respects_grammar_unconditional&#45;&gt;L4YAML.Proofs.ParserGrammable.parseStream_output_grammable -->
<g id="edge3" class="edge">
<title>L4YAML.Proofs.EndToEndCorrectness.parseStream_respects_grammar_unconditional&#45;&gt;L4YAML.Proofs.ParserGrammable.parseStream_output_grammable</title>
<path fill="none" stroke="#28a745" stroke-width="2" d="M1033.01,-278.66C1035.28,-261.95 1038.44,-238.71 1040.81,-221.29"/>
<polygon fill="#28a745" stroke="#28a745" stroke-width="2" points="1043.26,-221.49 1041.77,-214.22 1038.4,-220.83 1043.26,-221.49"/>
<text text-anchor="middle" x="1047.11" y="-254.6" font-family="Times-Roman" font-size="8.00">uses</text>
</g>
<!-- L4YAML.Proofs.ParserGrammable.compose_grammable -->
<g id="node12" class="node">
<title>L4YAML.Proofs.ParserGrammable.compose_grammable</title>
<g id="a_node12"><a xlink:href="../../../api/L4YAML/Proofs/Parser/ParserGrammableBase.html#L4YAML.Proofs.ParserGrammable.compose_grammable" xlink:title="ParserGrammable.compose_grammable" target="_blank">
<ellipse fill="#d4edda" stroke="#28a745" cx="1127.11" cy="-115" rx="113.05" ry="18"/>
<text text-anchor="middle" x="1127.11" y="-112.5" font-family="Helvetica" font-size="10.00">ParserGrammable.compose_grammable</text>
</a>
</g>
</g>
<!-- L4YAML.Proofs.ParserGrammable.compose_grammable&#45;&gt;L4YAML.YamlDocument -->
<g id="edge9" class="edge">
<title>L4YAML.Proofs.ParserGrammable.compose_grammable&#45;&gt;L4YAML.YamlDocument</title>
<path fill="none" stroke="#6f42c1" stroke-width="2" stroke-dasharray="5,2" d="M1163.77,-97.82C1191.82,-85.44 1230.66,-68.3 1260.69,-55.05"/>
<polygon fill="#6f42c1" stroke="#6f42c1" stroke-width="2" points="1261.92,-57.18 1267.34,-52.11 1259.95,-52.7 1261.92,-57.18"/>
<text text-anchor="middle" x="1234.61" y="-72.6" font-family="Times-Roman" font-size="8.00" fill="#6f42c1">about</text>
</g>
<!-- L4YAML.Proofs.ParserGrammable.parseStream_output_anchors_wellformed -->
<g id="node13" class="node">
<title>L4YAML.Proofs.ParserGrammable.parseStream_output_anchors_wellformed</title>
<g id="a_node13"><a xlink:href="../../../api/L4YAML/Proofs/Parser/ParserWfaProofs.html#L4YAML.Proofs.ParserGrammable.parseStream_output_anchors_wellformed" xlink:title="ParserGrammable.parseStream_output_anchors_wellformed" target="_blank">
<ellipse fill="#d4edda" stroke="#28a745" cx="209.11" cy="-115" rx="164.65" ry="18"/>
<text text-anchor="middle" x="209.11" y="-112.5" font-family="Helvetica" font-size="10.00">ParserGrammable.parseStream_output_anchors_wellformed</text>
</a>
</g>
</g>
<!-- L4YAML.Proofs.ParserGrammable.parseStream_output_anchors_wellformed&#45;&gt;L4YAML.YamlDocument -->
<g id="edge13" class="edge">
<title>L4YAML.Proofs.ParserGrammable.parseStream_output_anchors_wellformed&#45;&gt;L4YAML.YamlDocument</title>
<path fill="none" stroke="#6f42c1" stroke-width="2" stroke-dasharray="5,2" d="M297.9,-99.77C325.18,-95.8 355.33,-91.8 383.11,-89 716.13,-55.4 1119.01,-40.71 1257,-36.42"/>
<polygon fill="#6f42c1" stroke="#6f42c1" stroke-width="2" points="1257.23,-38.86 1264.15,-36.2 1257.08,-33.96 1257.23,-38.86"/>
<text text-anchor="middle" x="597.61" y="-72.6" font-family="Times-Roman" font-size="8.00" fill="#6f42c1">about</text>
</g>
<!-- L4YAML.Proofs.ParserGrammable.parseStream_output_grammable&#45;&gt;L4YAML.Positioned -->
<g id="edge20" class="edge">
<title>L4YAML.Proofs.ParserGrammable.parseStream_output_grammable&#45;&gt;L4YAML.Positioned</title>
<path fill="none" stroke="#6f42c1" stroke-width="2" stroke-dasharray="5,2" d="M1082.1,-178.59C1109.57,-166.83 1143.06,-152.77 1150.11,-151 1229.38,-131.12 1253.93,-153.22 1333.11,-133 1333.75,-132.84 1334.39,-132.66 1335.04,-132.48"/>
<polygon fill="#6f42c1" stroke="#6f42c1" stroke-width="2" points="1336.05,-134.74 1341.98,-130.29 1334.57,-130.06 1336.05,-134.74"/>
<text text-anchor="middle" x="1162.61" y="-153.6" font-family="Times-Roman" font-size="8.00" fill="#6f42c1">about</text>
</g>
<!-- L4YAML.Proofs.ParserGrammable.parseStream_output_grammable&#45;&gt;L4YAML.YamlToken -->
<g id="edge18" class="edge">
<title>L4YAML.Proofs.ParserGrammable.parseStream_output_grammable&#45;&gt;L4YAML.YamlToken</title>
<path fill="none" stroke="#6f42c1" stroke-width="2" stroke-dasharray="5,2" d="M1106.84,-179.77C1128.61,-174.08 1153.08,-167.23 1175.11,-160 1185.54,-156.58 1187.42,-153.48 1198.11,-151 1291.52,-129.3 1319.93,-155.63 1413.11,-133 1413.73,-132.85 1414.36,-132.69 1414.99,-132.52"/>
<polygon fill="#6f42c1" stroke="#6f42c1" stroke-width="2" points="1415.75,-134.85 1421.74,-130.48 1414.34,-130.16 1415.75,-134.85"/>
<text text-anchor="middle" x="1210.61" y="-153.6" font-family="Times-Roman" font-size="8.00" fill="#6f42c1">about</text>
</g>
<!-- L4YAML.Proofs.ParserGrammable.parseStream_output_grammable&#45;&gt;L4YAML.ScanError -->
<g id="edge24" class="edge">
<title>L4YAML.Proofs.ParserGrammable.parseStream_output_grammable&#45;&gt;L4YAML.ScanError</title>
<path fill="none" stroke="#6f42c1" stroke-width="2" stroke-dasharray="5,2" d="M1061.01,-177.98C1071.61,-168.4 1086.07,-157.15 1101.11,-151 1163.67,-125.43 1186.65,-149.83 1252.11,-133 1253.66,-132.6 1255.23,-132.16 1256.8,-131.68"/>
<polygon fill="#6f42c1" stroke="#6f42c1" stroke-width="2" points="1257.82,-133.93 1263.69,-129.41 1256.28,-129.28 1257.82,-133.93"/>
<text text-anchor="middle" x="1113.61" y="-153.6" font-family="Times-Roman" font-size="8.00" fill="#6f42c1">about</text>
</g>
<!-- L4YAML.Proofs.ParserGrammable.parseStream_output_grammable&#45;&gt;L4YAML.YamlDocument.value -->
<g id="edge4" class="edge">
<title>L4YAML.Proofs.ParserGrammable.parseStream_output_grammable&#45;&gt;L4YAML.YamlDocument.value</title>
<path fill="none" stroke="#6f42c1" stroke-width="2" stroke-dasharray="5,2" d="M1118.15,-180.6C1150.4,-174.3 1188.63,-166.82 1223.11,-160 1243.12,-156.04 1247.89,-153.67 1268.11,-151 1390.42,-134.87 1423.22,-152.04 1545.11,-133 1547.4,-132.64 1549.72,-132.25 1552.05,-131.82"/>
<polygon fill="#6f42c1" stroke="#6f42c1" stroke-width="2" points="1552.7,-134.19 1559.1,-130.44 1551.76,-129.38 1552.7,-134.19"/>
<text text-anchor="middle" x="1280.61" y="-153.6" font-family="Times-Roman" font-size="8.00" fill="#6f42c1">about</text>
</g>
<!-- L4YAML.Proofs.ParserGrammable.parseStream_output_grammable&#45;&gt;L4YAML.YamlDocument -->
<g id="edge15" class="edge">
<title>L4YAML.Proofs.ParserGrammable.parseStream_output_grammable&#45;&gt;L4YAML.YamlDocument</title>
<path fill="none" stroke="#6f42c1" stroke-width="2" stroke-dasharray="5,2" d="M906.11,-191.69C631.51,-184.41 40.35,-165.1 10.11,-133 -3.3,-118.76 -3.42,-103.11 10.11,-89 54.06,-43.18 1026.6,-36.18 1257.33,-35.17"/>
<polygon fill="#6f42c1" stroke="#6f42c1" stroke-width="2" points="1257.6,-37.61 1264.59,-35.13 1257.58,-32.71 1257.6,-37.61"/>
<text text-anchor="middle" x="22.61" y="-113.1" font-family="Times-Roman" font-size="8.00" fill="#6f42c1">about</text>
</g>
<!-- L4YAML.Proofs.ParserGrammable.parseStream_output_grammable&#45;&gt;L4YAML.Proofs.ParserGrammable.parseStream_output_aliases_resolve -->
<g id="edge10" class="edge">
<title>L4YAML.Proofs.ParserGrammable.parseStream_output_grammable&#45;&gt;L4YAML.Proofs.ParserGrammable.parseStream_output_aliases_resolve</title>
<path fill="none" stroke="#28a745" stroke-width="2" d="M959.18,-181.55C870.52,-167.52 731.8,-145.56 639.69,-130.97"/>
<polygon fill="#28a745" stroke="#28a745" stroke-width="2" points="639.89,-128.52 632.59,-129.85 639.12,-133.36 639.89,-128.52"/>
<text text-anchor="middle" x="820.11" y="-153.6" font-family="Times-Roman" font-size="8.00">uses</text>
</g>
<!-- L4YAML.Proofs.ParserGrammable.parseStream_output_grammable&#45;&gt;L4YAML.Proofs.ParserGrammable.parseStream_output_scannable -->
<g id="edge6" class="edge">
<title>L4YAML.Proofs.ParserGrammable.parseStream_output_grammable&#45;&gt;L4YAML.Proofs.ParserGrammable.parseStream_output_scannable</title>
<path fill="none" stroke="#28a745" stroke-width="2" d="M1005.16,-178.63C975.04,-165.97 933.27,-148.42 901.61,-135.12"/>
<polygon fill="#28a745" stroke="#28a745" stroke-width="2" points="902.42,-132.8 895.02,-132.35 900.52,-137.32 902.42,-132.8"/>
<text text-anchor="middle" x="966.11" y="-153.6" font-family="Times-Roman" font-size="8.00">uses</text>
</g>
<!-- L4YAML.Proofs.ParserGrammable.parseStream_output_grammable&#45;&gt;L4YAML.Proofs.ParserGrammable.compose_grammable -->
<g id="edge8" class="edge">
<title>L4YAML.Proofs.ParserGrammable.parseStream_output_grammable&#45;&gt;L4YAML.Proofs.ParserGrammable.compose_grammable</title>
<path fill="none" stroke="#28a745" stroke-width="2" d="M1045.48,-177.58C1046.95,-168.8 1049.97,-158.45 1056.11,-151 1061.2,-144.83 1067.64,-139.66 1074.56,-135.35"/>
<polygon fill="#28a745" stroke="#28a745" stroke-width="2" points="1076.18,-137.24 1081.02,-131.63 1073.74,-132.99 1076.18,-137.24"/>
<text text-anchor="middle" x="1066.11" y="-153.6" font-family="Times-Roman" font-size="8.00">uses</text>
</g>
<!-- L4YAML.Proofs.ParserGrammable.parseStream_output_grammable&#45;&gt;L4YAML.Proofs.ParserGrammable.parseStream_output_anchors_wellformed -->
<g id="edge12" class="edge">
<title>L4YAML.Proofs.ParserGrammable.parseStream_output_grammable&#45;&gt;L4YAML.Proofs.ParserGrammable.parseStream_output_anchors_wellformed</title>
<path fill="none" stroke="#28a745" stroke-width="2" d="M933.29,-184.74C801.97,-172.55 576.59,-151.52 383.11,-133 367.25,-131.48 350.58,-129.87 334.09,-128.27"/>
<polygon fill="#28a745" stroke="#28a745" stroke-width="2" points="334.24,-125.82 327.04,-127.58 333.77,-130.7 334.24,-125.82"/>
<text text-anchor="middle" x="666.11" y="-153.6" font-family="Times-Roman" font-size="8.00">uses</text>
</g>
</g>
</svg>
