<?xml version="1.0" encoding="UTF-8" standalone="no"?>
<!DOCTYPE svg PUBLIC "-//W3C//DTD SVG 1.1//EN"
 "http://www.w3.org/Graphics/SVG/1.1/DTD/svg11.dtd">
<!-- Generated by graphviz version 2.44.0 (0)
 -->
<!-- Title: EndToEndCorrectness.parse_sound Pages: 1 -->
<svg width="570pt" height="310pt"
 viewBox="0.00 0.00 569.85 310.00" xmlns="http://www.w3.org/2000/svg" xmlns:xlink="http://www.w3.org/1999/xlink">
<g id="graph0" class="graph" transform="scale(1 1) rotate(0) translate(4 306)">
<title>EndToEndCorrectness.parse_sound</title>
<polygon fill="white" stroke="transparent" points="-4,4 -4,-306 565.85,-306 565.85,4 -4,4"/>
<text text-anchor="middle" x="280.92" y="-287.6" font-family="Helvetica Bold" font-size="13.00">EndToEndCorrectness.parse_sound</text>
<text text-anchor="middle" x="280.92" y="-273.6" font-family="Helvetica Bold" font-size="13.00">4.1 parse_sound — soundness: parse .ok → ValidYamlProp</text>
<text text-anchor="middle" x="280.92" y="-259.6" font-family="Helvetica Bold" font-size="13.00">(L4YAML.Proofs.EndToEndCorrectness)</text>
<g id="clust1" class="cluster">
<title>cluster_functions</title>
<polygon fill="none" stroke="#4a90d9" stroke-dasharray="5,2" points="356.85,-8 356.85,-244 553.85,-244 553.85,-8 356.85,-8"/>
<text text-anchor="middle" x="455.35" y="-229.6" font-family="Helvetica Bold" font-size="13.00" fill="#4a90d9">Functions</text>
</g>
<g id="clust2" class="cluster">
<title>cluster_key</title>
<polygon fill="none" stroke="#d4a017" stroke-dasharray="5,2" points="8,-84 8,-166 311.85,-166 311.85,-84 8,-84"/>
<text text-anchor="middle" x="159.92" y="-151.6" font-family="Helvetica Bold" font-size="13.00" fill="#d4a017">Key Theorem</text>
</g>
<!-- L4YAML.TokenParser.parseYaml -->
<g id="node1" class="node">
<title>L4YAML.TokenParser.parseYaml</title>
<g id="a_node1"><a xlink:href="../../../api/L4YAML/Parser/Composition.html#L4YAML.TokenParser.parseYaml" xlink:title="TokenParser.parseYaml\n(def)" target="_blank">
<polygon fill="#dce9f7" stroke="#4a90d9" points="515.85,-214 394.85,-214 394.85,-178 515.85,-178 515.85,-214"/>
<text text-anchor="middle" x="455.35" y="-199" font-family="Helvetica" font-size="10.00">TokenParser.parseYaml</text>
<text text-anchor="middle" x="455.35" y="-188" font-family="Helvetica" font-size="10.00">(def)</text>
</a>
</g>
</g>
<!-- L4YAML.Proofs.EndToEndCorrectness.ValidYamlProp -->
<g id="node2" class="node">
<title>L4YAML.Proofs.EndToEndCorrectness.ValidYamlProp</title>
<g id="a_node2"><a xlink:href="../../../api/L4YAML/Proofs/EndToEndCorrectness.html#L4YAML.Proofs.EndToEndCorrectness.ValidYamlProp" xlink:title="EndToEndCorrectness.ValidYamlProp\n(def)" target="_blank">
<polygon fill="#dce9f7" stroke="#4a90d9" points="545.85,-160 364.85,-160 364.85,-124 545.85,-124 545.85,-160"/>
<text text-anchor="middle" x="455.35" y="-145" font-family="Helvetica" font-size="10.00">EndToEndCorrectness.ValidYamlProp</text>
<text text-anchor="middle" x="455.35" y="-134" font-family="Helvetica" font-size="10.00">(def)</text>
</a>
</g>
</g>
<!-- L4YAML.ScanError -->
<g id="node3" class="node">
<title>L4YAML.ScanError</title>
<g id="a_node3"><a xlink:href="../../../api/L4YAML/Token/Token.html#L4YAML.ScanError" xlink:title="ScanError\n(inductive)" target="_blank">
<polygon fill="#dce9f7" stroke="#4a90d9" points="486.35,-106 424.35,-106 424.35,-70 486.35,-70 486.35,-106"/>
<text text-anchor="middle" x="455.35" y="-91" font-family="Helvetica" font-size="10.00">ScanError</text>
<text text-anchor="middle" x="455.35" y="-80" font-family="Helvetica" font-size="10.00">(inductive)</text>
</a>
</g>
</g>
<!-- L4YAML.YamlDocument -->
<g id="node4" class="node">
<title>L4YAML.YamlDocument</title>
<g id="a_node4"><a xlink:href="../../../api/L4YAML/Spec/Types.html#L4YAML.YamlDocument" xlink:title="YamlDocument\n(inductive)" target="_blank">
<polygon fill="#dce9f7" stroke="#4a90d9" points="496.85,-52 413.85,-52 413.85,-16 496.85,-16 496.85,-52"/>
<text text-anchor="middle" x="455.35" y="-37" font-family="Helvetica" font-size="10.00">YamlDocument</text>
<text text-anchor="middle" x="455.35" y="-26" font-family="Helvetica" font-size="10.00">(inductive)</text>
</a>
</g>
</g>
<!-- L4YAML.Proofs.EndToEndCorrectness.parse_sound -->
<g id="node5" class="node">
<title>L4YAML.Proofs.EndToEndCorrectness.parse_sound</title>
<g id="a_node5"><a xlink:href="../../../api/L4YAML/Proofs/EndToEndCorrectness.html#L4YAML.Proofs.EndToEndCorrectness.parse_sound" xlink:title="EndToEndCorrectness.parse_sound" target="_blank">
<polygon fill="#fff3cd" stroke="#d4a017" points="299.78,-106.54 299.78,-121.46 217.85,-132 102,-132 20.07,-121.46 20.07,-106.54 102,-96 217.85,-96 299.78,-106.54"/>
<polygon fill="none" stroke="#d4a017" points="303.77,-103.03 303.77,-124.97 218.11,-136 101.74,-136 16.08,-124.97 16.08,-103.03 101.74,-92 218.11,-92 303.77,-103.03"/>
<text text-anchor="middle" x="159.92" y="-110.9" font-family="Helvetica" font-size="12.00">EndToEndCorrectness.parse_sound</text>
</a>
</g>
</g>
<!-- L4YAML.Proofs.EndToEndCorrectness.parse_sound&#45;&gt;L4YAML.TokenParser.parseYaml -->
<g id="edge1" class="edge">
<title>L4YAML.Proofs.EndToEndCorrectness.parse_sound&#45;&gt;L4YAML.TokenParser.parseYaml</title>
<path fill="none" stroke="#4a90d9" stroke-width="2" d="M232.56,-134.18C269.65,-144.6 315.67,-157.52 356.85,-169 366.91,-171.81 377.56,-174.76 387.98,-177.65"/>
<polygon fill="#4a90d9" stroke="#4a90d9" stroke-width="2" points="387.39,-180.03 394.79,-179.54 388.7,-175.31 387.39,-180.03"/>
<text text-anchor="middle" x="334.35" y="-168.6" font-family="Times-Roman" font-size="8.00" fill="#4a90d9">about</text>
</g>
<!-- L4YAML.Proofs.EndToEndCorrectness.parse_sound&#45;&gt;L4YAML.Proofs.EndToEndCorrectness.ValidYamlProp -->
<g id="edge4" class="edge">
<title>L4YAML.Proofs.EndToEndCorrectness.parse_sound&#45;&gt;L4YAML.Proofs.EndToEndCorrectness.ValidYamlProp</title>
<path fill="none" stroke="#4a90d9" stroke-width="2" d="M292.19,-126.53C314.26,-128.63 336.8,-130.78 357.79,-132.79"/>
<polygon fill="#4a90d9" stroke="#4a90d9" stroke-width="2" points="357.64,-135.23 364.85,-133.46 358.11,-130.36 357.64,-135.23"/>
<text text-anchor="middle" x="334.35" y="-133.6" font-family="Times-Roman" font-size="8.00" fill="#4a90d9">about</text>
</g>
<!-- L4YAML.Proofs.EndToEndCorrectness.parse_sound&#45;&gt;L4YAML.ScanError -->
<g id="edge3" class="edge">
<title>L4YAML.Proofs.EndToEndCorrectness.parse_sound&#45;&gt;L4YAML.ScanError</title>
<path fill="none" stroke="#4a90d9" stroke-width="2" d="M296.04,-102.03C340.46,-98.09 386.31,-94.03 417.16,-91.3"/>
<polygon fill="#4a90d9" stroke="#4a90d9" stroke-width="2" points="417.52,-93.72 424.28,-90.66 417.09,-88.84 417.52,-93.72"/>
<text text-anchor="middle" x="334.35" y="-101.6" font-family="Times-Roman" font-size="8.00" fill="#4a90d9">about</text>
</g>
<!-- L4YAML.Proofs.EndToEndCorrectness.parse_sound&#45;&gt;L4YAML.YamlDocument -->
<g id="edge2" class="edge">
<title>L4YAML.Proofs.EndToEndCorrectness.parse_sound&#45;&gt;L4YAML.YamlDocument</title>
<path fill="none" stroke="#4a90d9" stroke-width="2" d="M234.21,-94.02C288.14,-79.32 359.9,-59.75 406.6,-47.02"/>
<polygon fill="#4a90d9" stroke="#4a90d9" stroke-width="2" points="407.48,-49.32 413.59,-45.11 406.19,-44.59 407.48,-49.32"/>
<text text-anchor="middle" x="334.35" y="-71.6" font-family="Times-Roman" font-size="8.00" fill="#4a90d9">about</text>
</g>
</g>
</svg>
