<?xml version="1.0" encoding="UTF-8" standalone="no"?>
<!DOCTYPE svg PUBLIC "-//W3C//DTD SVG 1.1//EN"
 "http://www.w3.org/Graphics/SVG/1.1/DTD/svg11.dtd">
<!-- Generated by graphviz version 2.44.0 (0)
 -->
<!-- Title: chain_EndToEndCorrectness.parse_sound Pages: 1 -->
<svg width="403pt" height="98pt"
 viewBox="0.00 0.00 403.00 97.92" xmlns="http://www.w3.org/2000/svg" xmlns:xlink="http://www.w3.org/1999/xlink">
<g id="graph0" class="graph" transform="scale(1 1) rotate(0) translate(4 93.92)">
<title>chain_EndToEndCorrectness.parse_sound</title>
<polygon fill="white" stroke="transparent" points="-4,4 -4,-93.92 399,-93.92 399,4 -4,4"/>
<text text-anchor="middle" x="197.5" y="-75.52" font-family="Helvetica Bold" font-size="13.00">Functorial Chains: EndToEndCorrectness.parse_sound</text>
<text text-anchor="middle" x="197.5" y="-61.52" font-family="Helvetica Bold" font-size="13.00">4.1 parse_sound — soundness: parse .ok → ValidYamlProp</text>
<!-- L4YAML.Proofs.EndToEndCorrectness.parse_sound -->
<g id="node1" class="node">
<title>L4YAML.Proofs.EndToEndCorrectness.parse_sound</title>
<polygon fill="#fff3cd" stroke="black" points="330.84,-17.46 330.84,-36.46 252.73,-49.89 142.27,-49.89 64.16,-36.46 64.16,-17.46 142.27,-4.03 252.73,-4.03 330.84,-17.46"/>
<polygon fill="none" stroke="black" points="334.85,-14.1 334.85,-39.82 253.08,-53.88 141.92,-53.88 60.15,-39.82 60.15,-14.1 141.92,-0.04 253.08,-0.04 334.85,-14.1"/>
<text text-anchor="middle" x="197.5" y="-29.96" font-family="Helvetica" font-size="10.00">EndToEndCorrectness.parse_sound</text>
<text text-anchor="middle" x="197.5" y="-18.96" font-family="Helvetica" font-size="10.00">(no functorial chains found)</text>
</g>
</g>
</svg>
