<?xml version="1.0" encoding="UTF-8" standalone="no"?>
<!DOCTYPE svg PUBLIC "-//W3C//DTD SVG 1.1//EN"
 "http://www.w3.org/Graphics/SVG/1.1/DTD/svg11.dtd">
<!-- Generated by graphviz version 2.44.0 (0)
 -->
<!-- Title: chain_SchemaComposition.resolve_toYaml_bool Pages: 1 -->
<svg width="557pt" height="98pt"
 viewBox="0.00 0.00 557.00 97.92" xmlns="http://www.w3.org/2000/svg" xmlns:xlink="http://www.w3.org/1999/xlink">
<g id="graph0" class="graph" transform="scale(1 1) rotate(0) translate(4 93.92)">
<title>chain_SchemaComposition.resolve_toYaml_bool</title>
<polygon fill="white" stroke="transparent" points="-4,4 -4,-93.92 553,-93.92 553,4 -4,4"/>
<text text-anchor="middle" x="274.5" y="-75.52" font-family="Helvetica Bold" font-size="13.00">Functorial Chains: SchemaComposition.resolve_toYaml_bool</text>
<text text-anchor="middle" x="274.5" y="-61.52" font-family="Helvetica Bold" font-size="13.00">6.12 Schema composition round&#45;trip for concrete instances (bundle representative)</text>
<!-- L4YAML.Proofs.SchemaComposition.resolve_toYaml_bool -->
<g id="node1" class="node">
<title>L4YAML.Proofs.SchemaComposition.resolve_toYaml_bool</title>
<polygon fill="#fff3cd" stroke="black" points="427.64,-17.46 427.64,-36.46 337.93,-49.89 211.07,-49.89 121.36,-36.46 121.36,-17.46 211.07,-4.03 337.93,-4.03 427.64,-17.46"/>
<polygon fill="none" stroke="black" points="431.65,-14.02 431.65,-39.9 338.23,-53.88 210.77,-53.88 117.35,-39.9 117.35,-14.02 210.77,-0.04 338.23,-0.04 431.65,-14.02"/>
<text text-anchor="middle" x="274.5" y="-29.96" font-family="Helvetica" font-size="10.00">SchemaComposition.resolve_toYaml_bool</text>
<text text-anchor="middle" x="274.5" y="-18.96" font-family="Helvetica" font-size="10.00">(no functorial chains found)</text>
</g>
</g>
</svg>
