<?xml version="1.0" encoding="UTF-8" standalone="no"?>
<!DOCTYPE svg PUBLIC "-//W3C//DTD SVG 1.1//EN"
 "http://www.w3.org/Graphics/SVG/1.1/DTD/svg11.dtd">
<!-- Generated by graphviz version 2.44.0 (0)
 -->
<!-- Title: chain_ScannerProofs.emit_tokens_size Pages: 1 -->
<svg width="890pt" height="201pt"
 viewBox="0.00 0.00 890.00 200.92" xmlns="http://www.w3.org/2000/svg" xmlns:xlink="http://www.w3.org/1999/xlink">
<g id="graph0" class="graph" transform="scale(1 1) rotate(0) translate(4 196.92)">
<title>chain_ScannerProofs.emit_tokens_size</title>
<polygon fill="white" stroke="transparent" points="-4,4 -4,-196.92 886,-196.92 886,4 -4,4"/>
<text text-anchor="middle" x="441" y="-178.52" font-family="Helvetica Bold" font-size="13.00">Structural theorem: ScannerProofs.emit_tokens_size\nProof is a witness / injection — no fibration depth\n(heuristic: used by 33 proofs)</text>
<g id="clust1" class="cluster">
<title>cluster_direct</title>
<polygon fill="none" stroke="#4a90d9" stroke-dasharray="5,2" points="193,-8 193,-82 689,-82 689,-8 193,-8"/>
<text text-anchor="middle" x="441" y="-67.6" font-family="Helvetica Bold" font-size="13.00" fill="#4a90d9">About (no chain extends — proof is structural)</text>
</g>
<!-- L4YAML.Proofs.ScannerProofs.emit_tokens_size -->
<g id="node1" class="node">
<title>L4YAML.Proofs.ScannerProofs.emit_tokens_size</title>
<polygon fill="#fff3cd" stroke="#d4a017" points="595.88,-134.46 595.88,-153.46 524.48,-166.89 423.52,-166.89 352.12,-153.46 352.12,-134.46 423.52,-121.03 524.48,-121.03 595.88,-134.46"/>
<polygon fill="none" stroke="#d4a017" points="599.89,-131.15 599.89,-156.77 524.86,-170.88 423.14,-170.88 348.11,-156.77 348.11,-131.15 423.14,-117.04 524.86,-117.04 599.89,-131.15"/>
<text text-anchor="middle" x="474" y="-146.96" font-family="Helvetica" font-size="10.00">ScannerProofs.emit_tokens_size</text>
<text text-anchor="middle" x="474" y="-135.96" font-family="Helvetica" font-size="10.00">(structural)</text>
</g>
<!-- L4YAML.Scanner.ScannerState.tokens -->
<g id="node2" class="node">
<title>L4YAML.Scanner.ScannerState.tokens</title>
<g id="a_node2"><a xlink:href="../../../api/L4YAML/Scanner/State.html#L4YAML.Scanner.ScannerState.tokens" xlink:title="ScannerState.tokens" target="_blank">
<polygon fill="#dce9f7" stroke="#4a90d9" points="308.5,-52 201.5,-52 201.5,-16 308.5,-16 308.5,-52"/>
<text text-anchor="middle" x="255" y="-31.5" font-family="Helvetica" font-size="10.00">ScannerState.tokens</text>
</a>
</g>
</g>
<!-- L4YAML.Proofs.ScannerProofs.emit_tokens_size&#45;&gt;L4YAML.Scanner.ScannerState.tokens -->
<g id="edge1" class="edge">
<title>L4YAML.Proofs.ScannerProofs.emit_tokens_size&#45;&gt;L4YAML.Scanner.ScannerState.tokens</title>
<path fill="none" stroke="#4a90d9" stroke-width="2" d="M404.62,-120.39C376.92,-110.23 345.2,-97.1 318,-82 305,-74.78 291.64,-65.19 280.6,-56.55"/>
<polygon fill="#4a90d9" stroke="#4a90d9" stroke-width="2" points="282.05,-54.58 275.05,-52.14 279,-58.41 282.05,-54.58"/>
<text text-anchor="middle" x="363.5" y="-92.6" font-family="Times-Roman" font-size="8.00" fill="#4a90d9">about</text>
</g>
<!-- L4YAML.Scanner.ScannerState.emit -->
<g id="node3" class="node">
<title>L4YAML.Scanner.ScannerState.emit</title>
<g id="a_node3"><a xlink:href="../../../api/L4YAML/Scanner/State.html#L4YAML.Scanner.ScannerState.emit" xlink:title="ScannerState.emit" target="_blank">
<polygon fill="#dce9f7" stroke="#4a90d9" points="425,-52 327,-52 327,-16 425,-16 425,-52"/>
<text text-anchor="middle" x="376" y="-31.5" font-family="Helvetica" font-size="10.00">ScannerState.emit</text>
</a>
</g>
</g>
<!-- L4YAML.Proofs.ScannerProofs.emit_tokens_size&#45;&gt;L4YAML.Scanner.ScannerState.emit -->
<g id="edge2" class="edge">
<title>L4YAML.Proofs.ScannerProofs.emit_tokens_size&#45;&gt;L4YAML.Scanner.ScannerState.emit</title>
<path fill="none" stroke="#4a90d9" stroke-width="2" d="M450.28,-116.83C433.89,-98.77 412.31,-75 396.63,-57.73"/>
<polygon fill="#4a90d9" stroke="#4a90d9" stroke-width="2" points="398.08,-55.68 391.56,-52.14 394.45,-58.97 398.08,-55.68"/>
<text text-anchor="middle" x="446.5" y="-92.6" font-family="Times-Roman" font-size="8.00" fill="#4a90d9">about</text>
</g>
<!-- L4YAML.Positioned -->
<g id="node4" class="node">
<title>L4YAML.Positioned</title>
<g id="a_node4"><a xlink:href="../../../api/L4YAML/Token/Token.html#L4YAML.Positioned" xlink:title="Positioned" target="_blank">
<polygon fill="#dce9f7" stroke="#4a90d9" points="505,-52 443,-52 443,-16 505,-16 505,-52"/>
<text text-anchor="middle" x="474" y="-31.5" font-family="Helvetica" font-size="10.00">Positioned</text>
</a>
</g>
</g>
<!-- L4YAML.Proofs.ScannerProofs.emit_tokens_size&#45;&gt;L4YAML.Positioned -->
<g id="edge3" class="edge">
<title>L4YAML.Proofs.ScannerProofs.emit_tokens_size&#45;&gt;L4YAML.Positioned</title>
<path fill="none" stroke="#4a90d9" stroke-width="2" d="M474,-116.83C474,-99.4 474,-76.64 474,-59.55"/>
<polygon fill="#4a90d9" stroke="#4a90d9" stroke-width="2" points="476.45,-59.14 474,-52.14 471.55,-59.14 476.45,-59.14"/>
<text text-anchor="middle" x="486.5" y="-92.6" font-family="Times-Roman" font-size="8.00" fill="#4a90d9">about</text>
</g>
<!-- L4YAML.YamlToken -->
<g id="node5" class="node">
<title>L4YAML.YamlToken</title>
<g id="a_node5"><a xlink:href="../../../api/L4YAML/Token/Token.html#L4YAML.YamlToken" xlink:title="YamlToken" target="_blank">
<polygon fill="#dce9f7" stroke="#4a90d9" points="587,-52 523,-52 523,-16 587,-16 587,-52"/>
<text text-anchor="middle" x="555" y="-31.5" font-family="Helvetica" font-size="10.00">YamlToken</text>
</a>
</g>
</g>
<!-- L4YAML.Proofs.ScannerProofs.emit_tokens_size&#45;&gt;L4YAML.YamlToken -->
<g id="edge4" class="edge">
<title>L4YAML.Proofs.ScannerProofs.emit_tokens_size&#45;&gt;L4YAML.YamlToken</title>
<path fill="none" stroke="#4a90d9" stroke-width="2" d="M493.61,-116.83C507.04,-98.93 524.68,-75.41 537.61,-58.18"/>
<polygon fill="#4a90d9" stroke="#4a90d9" stroke-width="2" points="539.9,-59.21 542.14,-52.14 535.98,-56.27 539.9,-59.21"/>
<text text-anchor="middle" x="524.5" y="-92.6" font-family="Times-Roman" font-size="8.00" fill="#4a90d9">about</text>
</g>
<!-- L4YAML.Scanner.ScannerState -->
<g id="node6" class="node">
<title>L4YAML.Scanner.ScannerState</title>
<g id="a_node6"><a xlink:href="../../../api/L4YAML/Scanner/State.html#L4YAML.Scanner.ScannerState" xlink:title="ScannerState" target="_blank">
<polygon fill="#dce9f7" stroke="#4a90d9" points="681,-52 605,-52 605,-16 681,-16 681,-52"/>
<text text-anchor="middle" x="643" y="-31.5" font-family="Helvetica" font-size="10.00">ScannerState</text>
</a>
</g>
</g>
<!-- L4YAML.Proofs.ScannerProofs.emit_tokens_size&#45;&gt;L4YAML.Scanner.ScannerState -->
<g id="edge5" class="edge">
<title>L4YAML.Proofs.ScannerProofs.emit_tokens_size&#45;&gt;L4YAML.Scanner.ScannerState</title>
<path fill="none" stroke="#4a90d9" stroke-width="2" d="M532.68,-118.35C553.52,-108.42 576.6,-95.98 596,-82 605.74,-74.98 615.32,-65.91 623.27,-57.61"/>
<polygon fill="#4a90d9" stroke="#4a90d9" stroke-width="2" points="625.5,-58.81 628.49,-52.02 621.92,-55.47 625.5,-58.81"/>
<text text-anchor="middle" x="595.5" y="-92.6" font-family="Times-Roman" font-size="8.00" fill="#4a90d9">about</text>
</g>
</g>
</svg>
