<?xml version="1.0" encoding="UTF-8" standalone="no"?>
<!DOCTYPE svg PUBLIC "-//W3C//DTD SVG 1.1//EN"
 "http://www.w3.org/Graphics/SVG/1.1/DTD/svg11.dtd">
<!-- Generated by graphviz version 2.44.0 (0)
 -->
<!-- Title: chain_ParserWfaProofs.advance_tokens Pages: 1 -->
<svg width="895pt" height="201pt"
 viewBox="0.00 0.00 895.00 200.92" xmlns="http://www.w3.org/2000/svg" xmlns:xlink="http://www.w3.org/1999/xlink">
<g id="graph0" class="graph" transform="scale(1 1) rotate(0) translate(4 196.92)">
<title>chain_ParserWfaProofs.advance_tokens</title>
<polygon fill="white" stroke="transparent" points="-4,4 -4,-196.92 891,-196.92 891,4 -4,4"/>
<text text-anchor="middle" x="443.5" y="-178.52" font-family="Helvetica Bold" font-size="13.00">Structural theorem: ParserWfaProofs.advance_tokens\nProof is a witness / injection — no fibration depth\n(heuristic: used by 14 proofs)</text>
<g id="clust1" class="cluster">
<title>cluster_direct</title>
<polygon fill="none" stroke="#4a90d9" stroke-dasharray="5,2" points="115,-8 115,-82 772,-82 772,-8 115,-8"/>
<text text-anchor="middle" x="443.5" y="-67.6" font-family="Helvetica Bold" font-size="13.00" fill="#4a90d9">About (no chain extends — proof is structural)</text>
</g>
<!-- L4YAML.Proofs.ParserWfaProofs.advance_tokens -->
<g id="node1" class="node">
<title>L4YAML.Proofs.ParserWfaProofs.advance_tokens</title>
<polygon fill="#fff3cd" stroke="#d4a017" points="493.08,-134.46 493.08,-153.46 419.22,-166.89 314.78,-166.89 240.92,-153.46 240.92,-134.46 314.78,-121.03 419.22,-121.03 493.08,-134.46"/>
<polygon fill="none" stroke="#d4a017" points="497.07,-131.13 497.07,-156.79 419.58,-170.88 314.42,-170.88 236.93,-156.79 236.93,-131.13 314.42,-117.04 419.58,-117.04 497.07,-131.13"/>
<text text-anchor="middle" x="367" y="-146.96" font-family="Helvetica" font-size="10.00">ParserWfaProofs.advance_tokens</text>
<text text-anchor="middle" x="367" y="-135.96" font-family="Helvetica" font-size="10.00">(structural)</text>
</g>
<!-- L4YAML.Positioned -->
<g id="node2" class="node">
<title>L4YAML.Positioned</title>
<g id="a_node2"><a xlink:href="../../../api/L4YAML/Token/Token.html#L4YAML.Positioned" xlink:title="Positioned" target="_blank">
<polygon fill="#dce9f7" stroke="#4a90d9" points="185,-52 123,-52 123,-16 185,-16 185,-52"/>
<text text-anchor="middle" x="154" y="-31.5" font-family="Helvetica" font-size="10.00">Positioned</text>
</a>
</g>
</g>
<!-- L4YAML.Proofs.ParserWfaProofs.advance_tokens&#45;&gt;L4YAML.Positioned -->
<g id="edge1" class="edge">
<title>L4YAML.Proofs.ParserWfaProofs.advance_tokens&#45;&gt;L4YAML.Positioned</title>
<path fill="none" stroke="#4a90d9" stroke-width="2" d="M282.25,-122.88C252.7,-113.42 220.37,-100.13 194,-82 184.67,-75.59 176.23,-66.47 169.54,-57.96"/>
<polygon fill="#4a90d9" stroke="#4a90d9" stroke-width="2" points="171.37,-56.32 165.19,-52.21 167.46,-59.28 171.37,-56.32"/>
<text text-anchor="middle" x="232.5" y="-92.6" font-family="Times-Roman" font-size="8.00" fill="#4a90d9">about</text>
</g>
<!-- L4YAML.YamlToken -->
<g id="node3" class="node">
<title>L4YAML.YamlToken</title>
<g id="a_node3"><a xlink:href="../../../api/L4YAML/Token/Token.html#L4YAML.YamlToken" xlink:title="YamlToken" target="_blank">
<polygon fill="#dce9f7" stroke="#4a90d9" points="267,-52 203,-52 203,-16 267,-16 267,-52"/>
<text text-anchor="middle" x="235" y="-31.5" font-family="Helvetica" font-size="10.00">YamlToken</text>
</a>
</g>
</g>
<!-- L4YAML.Proofs.ParserWfaProofs.advance_tokens&#45;&gt;L4YAML.YamlToken -->
<g id="edge2" class="edge">
<title>L4YAML.Proofs.ParserWfaProofs.advance_tokens&#45;&gt;L4YAML.YamlToken</title>
<path fill="none" stroke="#4a90d9" stroke-width="2" d="M323.17,-116.94C307.62,-106.86 290.42,-94.69 276,-82 267.68,-74.68 259.46,-65.69 252.58,-57.55"/>
<polygon fill="#4a90d9" stroke="#4a90d9" stroke-width="2" points="254.41,-55.91 248.06,-52.08 250.63,-59.03 254.41,-55.91"/>
<text text-anchor="middle" x="310.5" y="-92.6" font-family="Times-Roman" font-size="8.00" fill="#4a90d9">about</text>
</g>
<!-- L4YAML.TokenParser.ParseState.advance -->
<g id="node4" class="node">
<title>L4YAML.TokenParser.ParseState.advance</title>
<g id="a_node4"><a xlink:href="../../../api/L4YAML/Parser/State.html#L4YAML.TokenParser.ParseState.advance" xlink:title="TokenParser.ParseState.advance" target="_blank">
<polygon fill="#dce9f7" stroke="#4a90d9" points="448.5,-52 285.5,-52 285.5,-16 448.5,-16 448.5,-52"/>
<text text-anchor="middle" x="367" y="-31.5" font-family="Helvetica" font-size="10.00">TokenParser.ParseState.advance</text>
</a>
</g>
</g>
<!-- L4YAML.Proofs.ParserWfaProofs.advance_tokens&#45;&gt;L4YAML.TokenParser.ParseState.advance -->
<g id="edge3" class="edge">
<title>L4YAML.Proofs.ParserWfaProofs.advance_tokens&#45;&gt;L4YAML.TokenParser.ParseState.advance</title>
<path fill="none" stroke="#4a90d9" stroke-width="2" d="M367,-116.83C367,-99.4 367,-76.64 367,-59.55"/>
<polygon fill="#4a90d9" stroke="#4a90d9" stroke-width="2" points="369.45,-59.14 367,-52.14 364.55,-59.14 369.45,-59.14"/>
<text text-anchor="middle" x="379.5" y="-92.6" font-family="Times-Roman" font-size="8.00" fill="#4a90d9">about</text>
</g>
<!-- L4YAML.TokenParser.ParseState.tokens -->
<g id="node5" class="node">
<title>L4YAML.TokenParser.ParseState.tokens</title>
<g id="a_node5"><a xlink:href="../../../api/L4YAML/Parser/State.html#L4YAML.TokenParser.ParseState.tokens" xlink:title="TokenParser.ParseState.tokens" target="_blank">
<polygon fill="#dce9f7" stroke="#4a90d9" points="621.5,-52 466.5,-52 466.5,-16 621.5,-16 621.5,-52"/>
<text text-anchor="middle" x="544" y="-31.5" font-family="Helvetica" font-size="10.00">TokenParser.ParseState.tokens</text>
</a>
</g>
</g>
<!-- L4YAML.Proofs.ParserWfaProofs.advance_tokens&#45;&gt;L4YAML.TokenParser.ParseState.tokens -->
<g id="edge4" class="edge">
<title>L4YAML.Proofs.ParserWfaProofs.advance_tokens&#45;&gt;L4YAML.TokenParser.ParseState.tokens</title>
<path fill="none" stroke="#4a90d9" stroke-width="2" d="M409.85,-116.83C440.47,-98.15 481.15,-73.34 509.65,-55.95"/>
<polygon fill="#4a90d9" stroke="#4a90d9" stroke-width="2" points="511.2,-57.88 515.9,-52.14 508.65,-53.69 511.2,-57.88"/>
<text text-anchor="middle" x="462.5" y="-92.6" font-family="Times-Roman" font-size="8.00" fill="#4a90d9">about</text>
</g>
<!-- L4YAML.TokenParser.ParseState -->
<g id="node6" class="node">
<title>L4YAML.TokenParser.ParseState</title>
<g id="a_node6"><a xlink:href="../../../api/L4YAML/Parser/State.html#L4YAML.TokenParser.ParseState" xlink:title="TokenParser.ParseState" target="_blank">
<polygon fill="#dce9f7" stroke="#4a90d9" points="764,-52 640,-52 640,-16 764,-16 764,-52"/>
<text text-anchor="middle" x="702" y="-31.5" font-family="Helvetica" font-size="10.00">TokenParser.ParseState</text>
</a>
</g>
</g>
<!-- L4YAML.Proofs.ParserWfaProofs.advance_tokens&#45;&gt;L4YAML.TokenParser.ParseState -->
<g id="edge5" class="edge">
<title>L4YAML.Proofs.ParserWfaProofs.advance_tokens&#45;&gt;L4YAML.TokenParser.ParseState</title>
<path fill="none" stroke="#4a90d9" stroke-width="2" d="M475.09,-127.04C523.99,-117.57 581.73,-103.17 631,-82 646.29,-75.43 661.86,-65.55 674.51,-56.54"/>
<polygon fill="#4a90d9" stroke="#4a90d9" stroke-width="2" points="676.25,-58.3 680.47,-52.21 673.37,-54.34 676.25,-58.3"/>
<text text-anchor="middle" x="622.5" y="-92.6" font-family="Times-Roman" font-size="8.00" fill="#4a90d9">about</text>
</g>
</g>
</svg>
