<?xml version="1.0" encoding="UTF-8" standalone="no"?>
<!DOCTYPE svg PUBLIC "-//W3C//DTD SVG 1.1//EN"
 "http://www.w3.org/Graphics/SVG/1.1/DTD/svg11.dtd">
<!-- Generated by graphviz version 2.44.0 (0)
 -->
<!-- Title: ParserWfaProofs.advance_anchors Pages: 1 -->
<svg width="669pt" height="310pt"
 viewBox="0.00 0.00 669.18 310.00" xmlns="http://www.w3.org/2000/svg" xmlns:xlink="http://www.w3.org/1999/xlink">
<g id="graph0" class="graph" transform="scale(1 1) rotate(0) translate(4 306)">
<title>ParserWfaProofs.advance_anchors</title>
<polygon fill="white" stroke="transparent" points="-4,4 -4,-306 665.18,-306 665.18,4 -4,4"/>
<text text-anchor="middle" x="330.59" y="-287.6" font-family="Helvetica Bold" font-size="13.00">ParserWfaProofs.advance_anchors</text>
<text text-anchor="middle" x="330.59" y="-273.6" font-family="Helvetica Bold" font-size="13.00">(heuristic: used by 12 proofs)</text>
<text text-anchor="middle" x="330.59" y="-259.6" font-family="Helvetica Bold" font-size="13.00">(L4YAML.Proofs.Parser.ParserWfaProofs)</text>
<g id="clust1" class="cluster">
<title>cluster_functions</title>
<polygon fill="none" stroke="#4a90d9" stroke-dasharray="5,2" points="474.18,-8 474.18,-244 653.18,-244 653.18,-8 474.18,-8"/>
<text text-anchor="middle" x="563.68" y="-229.6" font-family="Helvetica Bold" font-size="13.00" fill="#4a90d9">Functions</text>
</g>
<g id="clust2" class="cluster">
<title>cluster_key</title>
<polygon fill="none" stroke="#d4a017" stroke-dasharray="5,2" points="131.99,-84 131.99,-166 429.18,-166 429.18,-84 131.99,-84"/>
<text text-anchor="middle" x="280.59" y="-151.6" font-family="Helvetica Bold" font-size="13.00" fill="#d4a017">Key Theorem</text>
</g>
<g id="clust4" class="cluster">
<title>cluster_stdlib</title>
<polygon fill="none" stroke="#e67e22" stroke-dasharray="5,2" points="0,-54 0,-182 110.99,-182 110.99,-54 0,-54"/>
<text text-anchor="middle" x="55.5" y="-167.6" font-family="Helvetica Bold" font-size="13.00" fill="#e67e22">Stdlib Lemmas</text>
</g>
<!-- L4YAML.TokenParser.ParseState.advance -->
<g id="node1" class="node">
<title>L4YAML.TokenParser.ParseState.advance</title>
<g id="a_node1"><a xlink:href="../../../api/L4YAML/Parser/State.html#L4YAML.TokenParser.ParseState.advance" xlink:title="TokenParser.ParseState.advance\n(def)" target="_blank">
<polygon fill="#dce9f7" stroke="#4a90d9" points="645.18,-214 482.18,-214 482.18,-178 645.18,-178 645.18,-214"/>
<text text-anchor="middle" x="563.68" y="-199" font-family="Helvetica" font-size="10.00">TokenParser.ParseState.advance</text>
<text text-anchor="middle" x="563.68" y="-188" font-family="Helvetica" font-size="10.00">(def)</text>
</a>
</g>
</g>
<!-- L4YAML.TokenParser.ParseState -->
<g id="node2" class="node">
<title>L4YAML.TokenParser.ParseState</title>
<g id="a_node2"><a xlink:href="../../../api/L4YAML/Parser/State.html#L4YAML.TokenParser.ParseState" xlink:title="TokenParser.ParseState\n(inductive)" target="_blank">
<polygon fill="#dce9f7" stroke="#4a90d9" points="625.68,-160 501.68,-160 501.68,-124 625.68,-124 625.68,-160"/>
<text text-anchor="middle" x="563.68" y="-145" font-family="Helvetica" font-size="10.00">TokenParser.ParseState</text>
<text text-anchor="middle" x="563.68" y="-134" font-family="Helvetica" font-size="10.00">(inductive)</text>
</a>
</g>
</g>
<!-- L4YAML.YamlValue -->
<g id="node3" class="node">
<title>L4YAML.YamlValue</title>
<g id="a_node3"><a xlink:href="../../../api/L4YAML/Spec/Types.html#L4YAML.YamlValue" xlink:title="YamlValue\n(inductive)" target="_blank">
<polygon fill="#dce9f7" stroke="#4a90d9" points="594.68,-106 532.68,-106 532.68,-70 594.68,-70 594.68,-106"/>
<text text-anchor="middle" x="563.68" y="-91" font-family="Helvetica" font-size="10.00">YamlValue</text>
<text text-anchor="middle" x="563.68" y="-80" font-family="Helvetica" font-size="10.00">(inductive)</text>
</a>
</g>
</g>
<!-- L4YAML.TokenParser.ParseState.anchors -->
<g id="node4" class="node">
<title>L4YAML.TokenParser.ParseState.anchors</title>
<g id="a_node4"><a xlink:href="../../../api/L4YAML/Parser/State.html#L4YAML.TokenParser.ParseState.anchors" xlink:title="TokenParser.ParseState.anchors\n(def)" target="_blank">
<polygon fill="#dce9f7" stroke="#4a90d9" points="644.68,-52 482.68,-52 482.68,-16 644.68,-16 644.68,-52"/>
<text text-anchor="middle" x="563.68" y="-37" font-family="Helvetica" font-size="10.00">TokenParser.ParseState.anchors</text>
<text text-anchor="middle" x="563.68" y="-26" font-family="Helvetica" font-size="10.00">(def)</text>
</a>
</g>
</g>
<!-- L4YAML.Proofs.ParserWfaProofs.advance_anchors -->
<g id="node5" class="node">
<title>L4YAML.Proofs.ParserWfaProofs.advance_anchors</title>
<g id="a_node5"><a xlink:href="../../../api/L4YAML/Proofs/Parser/ParserWfaProofs.html#L4YAML.Proofs.ParserWfaProofs.advance_anchors" xlink:title="ParserWfaProofs.advance_anchors" target="_blank">
<polygon fill="#fff3cd" stroke="#d4a017" points="417.27,-106.54 417.27,-121.46 337.2,-132 223.97,-132 143.9,-121.46 143.9,-106.54 223.97,-96 337.2,-96 417.27,-106.54"/>
<polygon fill="none" stroke="#d4a017" points="421.27,-103.04 421.27,-124.96 337.47,-136 223.71,-136 139.9,-124.96 139.9,-103.04 223.71,-92 337.47,-92 421.27,-103.04"/>
<text text-anchor="middle" x="280.59" y="-110.9" font-family="Helvetica" font-size="12.00">ParserWfaProofs.advance_anchors</text>
</a>
</g>
</g>
<!-- L4YAML.Proofs.ParserWfaProofs.advance_anchors&#45;&gt;L4YAML.TokenParser.ParseState.advance -->
<g id="edge2" class="edge">
<title>L4YAML.Proofs.ParserWfaProofs.advance_anchors&#45;&gt;L4YAML.TokenParser.ParseState.advance</title>
<path fill="none" stroke="#4a90d9" stroke-width="2" d="M351.07,-134.27C394.59,-146.96 450.44,-163.26 493.84,-175.92"/>
<polygon fill="#4a90d9" stroke="#4a90d9" stroke-width="2" points="493.29,-178.31 500.69,-177.92 494.66,-173.61 493.29,-178.31"/>
<text text-anchor="middle" x="451.68" y="-169.6" font-family="Times-Roman" font-size="8.00" fill="#4a90d9">about</text>
</g>
<!-- L4YAML.Proofs.ParserWfaProofs.advance_anchors&#45;&gt;L4YAML.TokenParser.ParseState -->
<g id="edge4" class="edge">
<title>L4YAML.Proofs.ParserWfaProofs.advance_anchors&#45;&gt;L4YAML.TokenParser.ParseState</title>
<path fill="none" stroke="#4a90d9" stroke-width="2" d="M408.56,-126.65C438.09,-129.59 468.42,-132.61 494.28,-135.19"/>
<polygon fill="#4a90d9" stroke="#4a90d9" stroke-width="2" points="494.24,-137.64 501.45,-135.9 494.72,-132.77 494.24,-137.64"/>
<text text-anchor="middle" x="451.68" y="-134.6" font-family="Times-Roman" font-size="8.00" fill="#4a90d9">about</text>
</g>
<!-- L4YAML.Proofs.ParserWfaProofs.advance_anchors&#45;&gt;L4YAML.YamlValue -->
<g id="edge3" class="edge">
<title>L4YAML.Proofs.ParserWfaProofs.advance_anchors&#45;&gt;L4YAML.YamlValue</title>
<path fill="none" stroke="#4a90d9" stroke-width="2" d="M412.67,-101.88C453.97,-98.06 496.36,-94.13 525.5,-91.44"/>
<polygon fill="#4a90d9" stroke="#4a90d9" stroke-width="2" points="525.87,-93.87 532.61,-90.78 525.42,-88.99 525.87,-93.87"/>
<text text-anchor="middle" x="451.68" y="-100.6" font-family="Times-Roman" font-size="8.00" fill="#4a90d9">about</text>
</g>
<!-- L4YAML.Proofs.ParserWfaProofs.advance_anchors&#45;&gt;L4YAML.TokenParser.ParseState.anchors -->
<g id="edge1" class="edge">
<title>L4YAML.Proofs.ParserWfaProofs.advance_anchors&#45;&gt;L4YAML.TokenParser.ParseState.anchors</title>
<path fill="none" stroke="#4a90d9" stroke-width="2" d="M352.16,-93.92C395.07,-81.7 449.67,-66.16 492.51,-53.97"/>
<polygon fill="#4a90d9" stroke="#4a90d9" stroke-width="2" points="493.22,-56.32 499.28,-52.04 491.88,-51.6 493.22,-56.32"/>
<text text-anchor="middle" x="451.68" y="-68.6" font-family="Times-Roman" font-size="8.00" fill="#4a90d9">about</text>
</g>
<!-- eq_self -->
<g id="node6" class="node">
<title>eq_self</title>
<g id="a_node6"><a xlink:href="../../../api/Init/SimpLemmas.html#eq_self" xlink:title="eq_self" target="_blank">
<ellipse fill="#fdebd0" stroke="#e67e22" cx="55.5" cy="-134" rx="28.01" ry="18"/>
<text text-anchor="middle" x="55.5" y="-131.5" font-family="Helvetica" font-size="10.00">eq_self</text>
</a>
</g>
</g>
<!-- eq_self&#45;&gt;L4YAML.Proofs.ParserWfaProofs.advance_anchors -->
<g id="edge5" class="edge">
<title>eq_self&#45;&gt;L4YAML.Proofs.ParserWfaProofs.advance_anchors</title>
<path fill="none" stroke="#e67e22" stroke-width="2" d="M83.85,-131.55C98.75,-130.21 118.43,-128.45 139.58,-126.55"/>
<polygon fill="#e67e22" stroke="#e67e22" stroke-width="2" points="140.05,-128.97 146.8,-125.9 139.61,-124.09 140.05,-128.97"/>
</g>
<!-- of_eq_true -->
<g id="node7" class="node">
<title>of_eq_true</title>
<g id="a_node7"><a xlink:href="../../../api/Init/SimpLemmas.html#of_eq_true" xlink:title="of_eq_true" target="_blank">
<ellipse fill="#fdebd0" stroke="#e67e22" cx="55.5" cy="-80" rx="36.49" ry="18"/>
<text text-anchor="middle" x="55.5" y="-77.5" font-family="Helvetica" font-size="10.00">of_eq_true</text>
</a>
</g>
</g>
<!-- of_eq_true&#45;&gt;L4YAML.Proofs.ParserWfaProofs.advance_anchors -->
<g id="edge6" class="edge">
<title>of_eq_true&#45;&gt;L4YAML.Proofs.ParserWfaProofs.advance_anchors</title>
<path fill="none" stroke="#e67e22" stroke-width="2" d="M90.87,-85.24C112.05,-88.47 140.52,-92.8 168.91,-97.13"/>
<polygon fill="#e67e22" stroke="#e67e22" stroke-width="2" points="168.83,-99.6 176.12,-98.23 169.57,-94.75 168.83,-99.6"/>
</g>
</g>
</svg>
