<?xml version="1.0" encoding="UTF-8" standalone="no"?>
<!DOCTYPE svg PUBLIC "-//W3C//DTD SVG 1.1//EN"
 "http://www.w3.org/Graphics/SVG/1.1/DTD/svg11.dtd">
<!-- Generated by graphviz version 2.44.0 (0)
 -->
<!-- Title: ParserWfaProofs.parseNode_tokens_of_wb Pages: 1 -->
<svg width="612pt" height="526pt"
 viewBox="0.00 0.00 612.15 526.00" xmlns="http://www.w3.org/2000/svg" xmlns:xlink="http://www.w3.org/1999/xlink">
<g id="graph0" class="graph" transform="scale(1 1) rotate(0) translate(4 522)">
<title>ParserWfaProofs.parseNode_tokens_of_wb</title>
<polygon fill="white" stroke="transparent" points="-4,4 -4,-522 608.15,-522 608.15,4 -4,4"/>
<text text-anchor="middle" x="302.08" y="-503.6" font-family="Helvetica Bold" font-size="13.00">ParserWfaProofs.parseNode_tokens_of_wb</text>
<text text-anchor="middle" x="302.08" y="-489.6" font-family="Helvetica Bold" font-size="13.00">(heuristic: used by 9 proofs)</text>
<text text-anchor="middle" x="302.08" y="-475.6" font-family="Helvetica Bold" font-size="13.00">(L4YAML.Proofs.Parser.ParserWfaProofs)</text>
<g id="clust1" class="cluster">
<title>cluster_functions</title>
<polygon fill="none" stroke="#4a90d9" stroke-dasharray="5,2" points="410.15,-8 410.15,-460 596.15,-460 596.15,-8 410.15,-8"/>
<text text-anchor="middle" x="503.15" y="-445.6" font-family="Helvetica Bold" font-size="13.00" fill="#4a90d9">Functions</text>
</g>
<g id="clust2" class="cluster">
<title>cluster_key</title>
<polygon fill="none" stroke="#d4a017" stroke-dasharray="5,2" points="8,-192 8,-274 365.15,-274 365.15,-192 8,-192"/>
<text text-anchor="middle" x="186.58" y="-259.6" font-family="Helvetica Bold" font-size="13.00" fill="#d4a017">Key Theorem</text>
</g>
<!-- L4YAML.Positioned -->
<g id="node1" class="node">
<title>L4YAML.Positioned</title>
<g id="a_node1"><a xlink:href="../../../api/L4YAML/Token/Token.html#L4YAML.Positioned" xlink:title="Positioned\n(inductive)" target="_blank">
<polygon fill="#dce9f7" stroke="#4a90d9" points="534.15,-430 472.15,-430 472.15,-394 534.15,-394 534.15,-430"/>
<text text-anchor="middle" x="503.15" y="-415" font-family="Helvetica" font-size="10.00">Positioned</text>
<text text-anchor="middle" x="503.15" y="-404" font-family="Helvetica" font-size="10.00">(inductive)</text>
</a>
</g>
</g>
<!-- L4YAML.YamlToken -->
<g id="node2" class="node">
<title>L4YAML.YamlToken</title>
<g id="a_node2"><a xlink:href="../../../api/L4YAML/Token/Token.html#L4YAML.YamlToken" xlink:title="YamlToken\n(inductive)" target="_blank">
<polygon fill="#dce9f7" stroke="#4a90d9" points="535.15,-376 471.15,-376 471.15,-340 535.15,-340 535.15,-376"/>
<text text-anchor="middle" x="503.15" y="-361" font-family="Helvetica" font-size="10.00">YamlToken</text>
<text text-anchor="middle" x="503.15" y="-350" font-family="Helvetica" font-size="10.00">(inductive)</text>
</a>
</g>
</g>
<!-- L4YAML.TokenParser.ParseState -->
<g id="node3" class="node">
<title>L4YAML.TokenParser.ParseState</title>
<g id="a_node3"><a xlink:href="../../../api/L4YAML/Parser/State.html#L4YAML.TokenParser.ParseState" xlink:title="TokenParser.ParseState\n(inductive)" target="_blank">
<polygon fill="#dce9f7" stroke="#4a90d9" points="565.15,-322 441.15,-322 441.15,-286 565.15,-286 565.15,-322"/>
<text text-anchor="middle" x="503.15" y="-307" font-family="Helvetica" font-size="10.00">TokenParser.ParseState</text>
<text text-anchor="middle" x="503.15" y="-296" font-family="Helvetica" font-size="10.00">(inductive)</text>
</a>
</g>
</g>
<!-- L4YAML.YamlValue -->
<g id="node4" class="node">
<title>L4YAML.YamlValue</title>
<g id="a_node4"><a xlink:href="../../../api/L4YAML/Spec/Types.html#L4YAML.YamlValue" xlink:title="YamlValue\n(inductive)" target="_blank">
<polygon fill="#dce9f7" stroke="#4a90d9" points="534.15,-268 472.15,-268 472.15,-232 534.15,-232 534.15,-268"/>
<text text-anchor="middle" x="503.15" y="-253" font-family="Helvetica" font-size="10.00">YamlValue</text>
<text text-anchor="middle" x="503.15" y="-242" font-family="Helvetica" font-size="10.00">(inductive)</text>
</a>
</g>
</g>
<!-- L4YAML.TokenParser.parseNode -->
<g id="node5" class="node">
<title>L4YAML.TokenParser.parseNode</title>
<g id="a_node5"><a xlink:href="../../../api/L4YAML/Parser/TokenParser.html#L4YAML.TokenParser.parseNode" xlink:title="TokenParser.parseNode\n(def)" target="_blank">
<polygon fill="#dce9f7" stroke="#4a90d9" points="564.15,-214 442.15,-214 442.15,-178 564.15,-178 564.15,-214"/>
<text text-anchor="middle" x="503.15" y="-199" font-family="Helvetica" font-size="10.00">TokenParser.parseNode</text>
<text text-anchor="middle" x="503.15" y="-188" font-family="Helvetica" font-size="10.00">(def)</text>
</a>
</g>
</g>
<!-- L4YAML.ScanError -->
<g id="node6" class="node">
<title>L4YAML.ScanError</title>
<g id="a_node6"><a xlink:href="../../../api/L4YAML/Token/Token.html#L4YAML.ScanError" xlink:title="ScanError\n(inductive)" target="_blank">
<polygon fill="#dce9f7" stroke="#4a90d9" points="534.15,-160 472.15,-160 472.15,-124 534.15,-124 534.15,-160"/>
<text text-anchor="middle" x="503.15" y="-145" font-family="Helvetica" font-size="10.00">ScanError</text>
<text text-anchor="middle" x="503.15" y="-134" font-family="Helvetica" font-size="10.00">(inductive)</text>
</a>
</g>
</g>
<!-- L4YAML.TokenParser.ParseState.tokens -->
<g id="node7" class="node">
<title>L4YAML.TokenParser.ParseState.tokens</title>
<g id="a_node7"><a xlink:href="../../../api/L4YAML/Parser/State.html#L4YAML.TokenParser.ParseState.tokens" xlink:title="TokenParser.ParseState.tokens\n(def)" target="_blank">
<polygon fill="#dce9f7" stroke="#4a90d9" points="580.65,-106 425.65,-106 425.65,-70 580.65,-70 580.65,-106"/>
<text text-anchor="middle" x="503.15" y="-91" font-family="Helvetica" font-size="10.00">TokenParser.ParseState.tokens</text>
<text text-anchor="middle" x="503.15" y="-80" font-family="Helvetica" font-size="10.00">(def)</text>
</a>
</g>
</g>
<!-- L4YAML.Proofs.ParserWellBehaved.ParseNodeWB -->
<g id="node8" class="node">
<title>L4YAML.Proofs.ParserWellBehaved.ParseNodeWB</title>
<g id="a_node8"><a xlink:href="../../../api/L4YAML/Proofs/Parser/ParserWellBehaved.html#L4YAML.Proofs.ParserWellBehaved.ParseNodeWB" xlink:title="ParserWellBehaved.ParseNodeWB\n(def)" target="_blank">
<polygon fill="#dce9f7" stroke="#4a90d9" points="588.15,-52 418.15,-52 418.15,-16 588.15,-16 588.15,-52"/>
<text text-anchor="middle" x="503.15" y="-37" font-family="Helvetica" font-size="10.00">ParserWellBehaved.ParseNodeWB</text>
<text text-anchor="middle" x="503.15" y="-26" font-family="Helvetica" font-size="10.00">(def)</text>
</a>
</g>
</g>
<!-- L4YAML.Proofs.ParserWfaProofs.parseNode_tokens_of_wb -->
<g id="node9" class="node">
<title>L4YAML.Proofs.ParserWfaProofs.parseNode_tokens_of_wb</title>
<g id="a_node9"><a xlink:href="../../../api/L4YAML/Proofs/Parser/ParserWfaProofs.html#L4YAML.Proofs.ParserWfaProofs.parseNode_tokens_of_wb" xlink:title="ParserWfaProofs.parseNode_tokens_of_wb" target="_blank">
<polygon fill="#fff3cd" stroke="#d4a017" points="353.23,-214.54 353.23,-229.46 255.61,-240 117.55,-240 19.93,-229.46 19.93,-214.54 117.55,-204 255.61,-204 353.23,-214.54"/>
<polygon fill="none" stroke="#d4a017" points="357.23,-210.95 357.23,-233.05 255.82,-244 117.33,-244 15.92,-233.05 15.92,-210.95 117.33,-200 255.82,-200 357.23,-210.95"/>
<text text-anchor="middle" x="186.58" y="-218.9" font-family="Helvetica" font-size="12.00">ParserWfaProofs.parseNode_tokens_of_wb</text>
</a>
</g>
</g>
<!-- L4YAML.Proofs.ParserWfaProofs.parseNode_tokens_of_wb&#45;&gt;L4YAML.Positioned -->
<g id="edge1" class="edge">
<title>L4YAML.Proofs.ParserWfaProofs.parseNode_tokens_of_wb&#45;&gt;L4YAML.Positioned</title>
<path fill="none" stroke="#4a90d9" stroke-width="2" d="M211.74,-244.17C250.72,-278.84 331.14,-345.97 410.15,-385 427.26,-393.45 447.49,-399.75 464.62,-404.12"/>
<polygon fill="#4a90d9" stroke="#4a90d9" stroke-width="2" points="464.37,-406.58 471.75,-405.88 465.54,-401.83 464.37,-406.58"/>
<text text-anchor="middle" x="387.65" y="-380.6" font-family="Times-Roman" font-size="8.00" fill="#4a90d9">about</text>
</g>
<!-- L4YAML.Proofs.ParserWfaProofs.parseNode_tokens_of_wb&#45;&gt;L4YAML.YamlToken -->
<g id="edge2" class="edge">
<title>L4YAML.Proofs.ParserWfaProofs.parseNode_tokens_of_wb&#45;&gt;L4YAML.YamlToken</title>
<path fill="none" stroke="#4a90d9" stroke-width="2" d="M227.27,-244C271.09,-267.68 344.18,-305.38 410.15,-331 427.53,-337.75 447.31,-343.76 464.07,-348.39"/>
<polygon fill="#4a90d9" stroke="#4a90d9" stroke-width="2" points="463.65,-350.81 471.05,-350.28 464.94,-346.09 463.65,-350.81"/>
<text text-anchor="middle" x="387.65" y="-328.6" font-family="Times-Roman" font-size="8.00" fill="#4a90d9">about</text>
</g>
<!-- L4YAML.Proofs.ParserWfaProofs.parseNode_tokens_of_wb&#45;&gt;L4YAML.TokenParser.ParseState -->
<g id="edge8" class="edge">
<title>L4YAML.Proofs.ParserWfaProofs.parseNode_tokens_of_wb&#45;&gt;L4YAML.TokenParser.ParseState</title>
<path fill="none" stroke="#4a90d9" stroke-width="2" d="M267.36,-242.8C318.82,-256.21 385.04,-273.47 434.02,-286.24"/>
<polygon fill="#4a90d9" stroke="#4a90d9" stroke-width="2" points="433.43,-288.62 440.82,-288.01 434.66,-283.88 433.43,-288.62"/>
<text text-anchor="middle" x="387.65" y="-277.6" font-family="Times-Roman" font-size="8.00" fill="#4a90d9">about</text>
</g>
<!-- L4YAML.Proofs.ParserWfaProofs.parseNode_tokens_of_wb&#45;&gt;L4YAML.YamlValue -->
<g id="edge5" class="edge">
<title>L4YAML.Proofs.ParserWfaProofs.parseNode_tokens_of_wb&#45;&gt;L4YAML.YamlValue</title>
<path fill="none" stroke="#4a90d9" stroke-width="2" d="M337.03,-235.3C384.49,-239.53 432.9,-243.84 464.92,-246.69"/>
<polygon fill="#4a90d9" stroke="#4a90d9" stroke-width="2" points="464.71,-249.13 471.9,-247.31 465.15,-244.25 464.71,-249.13"/>
<text text-anchor="middle" x="387.65" y="-242.6" font-family="Times-Roman" font-size="8.00" fill="#4a90d9">about</text>
</g>
<!-- L4YAML.Proofs.ParserWfaProofs.parseNode_tokens_of_wb&#45;&gt;L4YAML.TokenParser.parseNode -->
<g id="edge4" class="edge">
<title>L4YAML.Proofs.ParserWfaProofs.parseNode_tokens_of_wb&#45;&gt;L4YAML.TokenParser.parseNode</title>
<path fill="none" stroke="#4a90d9" stroke-width="2" d="M341.64,-209.27C374.36,-206.56 407.28,-203.84 434.7,-201.57"/>
<polygon fill="#4a90d9" stroke="#4a90d9" stroke-width="2" points="435.15,-204 441.92,-200.98 434.74,-199.11 435.15,-204"/>
<text text-anchor="middle" x="387.65" y="-207.6" font-family="Times-Roman" font-size="8.00" fill="#4a90d9">about</text>
</g>
<!-- L4YAML.Proofs.ParserWfaProofs.parseNode_tokens_of_wb&#45;&gt;L4YAML.ScanError -->
<g id="edge3" class="edge">
<title>L4YAML.Proofs.ParserWfaProofs.parseNode_tokens_of_wb&#45;&gt;L4YAML.ScanError</title>
<path fill="none" stroke="#4a90d9" stroke-width="2" d="M269,-201.29C332.33,-185.19 417.24,-163.59 465.17,-151.41"/>
<polygon fill="#4a90d9" stroke="#4a90d9" stroke-width="2" points="465.78,-153.78 471.96,-149.68 464.58,-149.03 465.78,-153.78"/>
<text text-anchor="middle" x="387.65" y="-174.6" font-family="Times-Roman" font-size="8.00" fill="#4a90d9">about</text>
</g>
<!-- L4YAML.Proofs.ParserWfaProofs.parseNode_tokens_of_wb&#45;&gt;L4YAML.TokenParser.ParseState.tokens -->
<g id="edge6" class="edge">
<title>L4YAML.Proofs.ParserWfaProofs.parseNode_tokens_of_wb&#45;&gt;L4YAML.TokenParser.ParseState.tokens</title>
<path fill="none" stroke="#4a90d9" stroke-width="2" d="M228.53,-199.82C272.52,-176.59 344.92,-140.06 410.15,-115 416.2,-112.68 422.54,-110.44 428.93,-108.31"/>
<polygon fill="#4a90d9" stroke="#4a90d9" stroke-width="2" points="429.99,-110.54 435.89,-106.04 428.47,-105.88 429.99,-110.54"/>
<text text-anchor="middle" x="387.65" y="-129.6" font-family="Times-Roman" font-size="8.00" fill="#4a90d9">about</text>
</g>
<!-- L4YAML.Proofs.ParserWfaProofs.parseNode_tokens_of_wb&#45;&gt;L4YAML.Proofs.ParserWellBehaved.ParseNodeWB -->
<g id="edge7" class="edge">
<title>L4YAML.Proofs.ParserWfaProofs.parseNode_tokens_of_wb&#45;&gt;L4YAML.Proofs.ParserWellBehaved.ParseNodeWB</title>
<path fill="none" stroke="#4a90d9" stroke-width="2" d="M212.11,-199.85C251.29,-165.54 331.58,-99.53 410.15,-61 414.78,-58.73 419.63,-56.62 424.58,-54.66"/>
<polygon fill="#4a90d9" stroke="#4a90d9" stroke-width="2" points="425.72,-56.85 431.39,-52.07 423.98,-52.27 425.72,-56.85"/>
<text text-anchor="middle" x="387.65" y="-80.6" font-family="Times-Roman" font-size="8.00" fill="#4a90d9">about</text>
</g>
</g>
</svg>
