<?xml version="1.0" encoding="UTF-8" standalone="no"?>
<!DOCTYPE svg PUBLIC "-//W3C//DTD SVG 1.1//EN"
 "http://www.w3.org/Graphics/SVG/1.1/DTD/svg11.dtd">
<!-- Generated by graphviz version 2.44.0 (0)
 -->
<!-- Title: chain_ParserWfaProofs.parseStream_output_anchors_wellformed Pages: 1 -->
<svg width="1766pt" height="391pt"
 viewBox="0.00 0.00 1766.00 391.00" xmlns="http://www.w3.org/2000/svg" xmlns:xlink="http://www.w3.org/1999/xlink">
<g id="graph0" class="graph" transform="scale(1 1) rotate(0) translate(4 387)">
<title>chain_ParserWfaProofs.parseStream_output_anchors_wellformed</title>
<polygon fill="white" stroke="transparent" points="-4,4 -4,-387 1762,-387 1762,4 -4,4"/>
<text text-anchor="middle" x="879" y="-368.6" font-family="Helvetica Bold" font-size="13.00">Functorial Chains: ParserWfaProofs.parseStream_output_anchors_wellformed\n3.8 Parsed stream output has well&#45;formed anchors</text>
<g id="clust1" class="cluster">
<title>cluster_fns</title>
<polygon fill="none" stroke="#4a90d9" stroke-dasharray="5,2" points="1282,-8 1282,-244 1750,-244 1750,-8 1282,-8"/>
<text text-anchor="middle" x="1516" y="-229.6" font-family="Helvetica Bold" font-size="13.00" fill="#4a90d9">Functions (Call Chain)</text>
</g>
<g id="clust2" class="cluster">
<title>cluster_thms</title>
<polygon fill="none" stroke="#28a745" stroke-dasharray="5,2" points="8,-89 8,-353 1274,-353 1274,-89 8,-89"/>
<text text-anchor="middle" x="641" y="-338.6" font-family="Helvetica Bold" font-size="13.00" fill="#28a745">Theorems (Proof Chain)</text>
</g>
<!-- L4YAML.TokenParser.ParseState -->
<g id="node1" class="node">
<title>L4YAML.TokenParser.ParseState</title>
<g id="a_node1"><a xlink:href="../../../api/L4YAML/Parser/State.html#L4YAML.TokenParser.ParseState" xlink:title="TokenParser.ParseState" target="_blank">
<polygon fill="#dce9f7" stroke="#4a90d9" points="1414,-52 1290,-52 1290,-16 1414,-16 1414,-52"/>
<text text-anchor="middle" x="1352" y="-31.5" font-family="Helvetica" font-size="10.00">TokenParser.ParseState</text>
</a>
</g>
</g>
<!-- L4YAML.TokenParser.parseStreamLoop -->
<g id="node2" class="node">
<title>L4YAML.TokenParser.parseStreamLoop</title>
<g id="a_node2"><a xlink:href="../../../api/L4YAML/Parser/TokenParser.html#L4YAML.TokenParser.parseStreamLoop" xlink:title="TokenParser.parseStreamLoop" target="_blank">
<polygon fill="#dce9f7" stroke="#4a90d9" points="1491,-133 1339,-133 1339,-97 1491,-97 1491,-133"/>
<text text-anchor="middle" x="1415" y="-112.5" font-family="Helvetica" font-size="10.00">TokenParser.parseStreamLoop</text>
</a>
</g>
</g>
<!-- L4YAML.TokenParser.parseStreamLoop&#45;&gt;L4YAML.TokenParser.ParseState -->
<g id="edge11" class="edge">
<title>L4YAML.TokenParser.parseStreamLoop&#45;&gt;L4YAML.TokenParser.ParseState</title>
<path fill="none" stroke="#4a90d9" stroke-width="2" d="M1401.33,-96.86C1392.17,-85.37 1380,-70.11 1370.04,-57.63"/>
<polygon fill="#4a90d9" stroke="#4a90d9" stroke-width="2" points="1371.92,-56.05 1365.64,-52.11 1368.09,-59.11 1371.92,-56.05"/>
<text text-anchor="middle" x="1394.5" y="-72.6" font-family="Times-Roman" font-size="8.00">calls</text>
</g>
<!-- L4YAML.ScanError -->
<g id="node3" class="node">
<title>L4YAML.ScanError</title>
<g id="a_node3"><a xlink:href="../../../api/L4YAML/Token/Token.html#L4YAML.ScanError" xlink:title="ScanError" target="_blank">
<polygon fill="#dce9f7" stroke="#4a90d9" points="1594,-52 1534,-52 1534,-16 1594,-16 1594,-52"/>
<text text-anchor="middle" x="1564" y="-31.5" font-family="Helvetica" font-size="10.00">ScanError</text>
</a>
</g>
</g>
<!-- L4YAML.TokenParser.parseStreamLoop&#45;&gt;L4YAML.ScanError -->
<g id="edge8" class="edge">
<title>L4YAML.TokenParser.parseStreamLoop&#45;&gt;L4YAML.ScanError</title>
<path fill="none" stroke="#4a90d9" stroke-width="2" d="M1447.33,-96.86C1470.9,-84.36 1502.87,-67.41 1527.38,-54.41"/>
<polygon fill="#4a90d9" stroke="#4a90d9" stroke-width="2" points="1528.73,-56.48 1533.76,-51.03 1526.43,-52.15 1528.73,-56.48"/>
<text text-anchor="middle" x="1502.5" y="-72.6" font-family="Times-Roman" font-size="8.00">calls</text>
</g>
<!-- L4YAML.YamlDocument -->
<g id="node5" class="node">
<title>L4YAML.YamlDocument</title>
<g id="a_node5"><a xlink:href="../../../api/L4YAML/Spec/Types.html#L4YAML.YamlDocument" xlink:title="YamlDocument" target="_blank">
<polygon fill="#dce9f7" stroke="#4a90d9" points="1515.5,-52 1432.5,-52 1432.5,-16 1515.5,-16 1515.5,-52"/>
<text text-anchor="middle" x="1474" y="-31.5" font-family="Helvetica" font-size="10.00">YamlDocument</text>
</a>
</g>
</g>
<!-- L4YAML.TokenParser.parseStreamLoop&#45;&gt;L4YAML.YamlDocument -->
<g id="edge15" class="edge">
<title>L4YAML.TokenParser.parseStreamLoop&#45;&gt;L4YAML.YamlDocument</title>
<path fill="none" stroke="#4a90d9" stroke-width="2" d="M1427.8,-96.86C1436.31,-85.47 1447.57,-70.39 1456.85,-57.96"/>
<polygon fill="#4a90d9" stroke="#4a90d9" stroke-width="2" points="1459,-59.18 1461.22,-52.11 1455.07,-56.25 1459,-59.18"/>
<text text-anchor="middle" x="1455.5" y="-72.6" font-family="Times-Roman" font-size="8.00">calls</text>
</g>
<!-- L4YAML.TokenParser.StreamState -->
<g id="node6" class="node">
<title>L4YAML.TokenParser.StreamState</title>
<g id="a_node6"><a xlink:href="../../../api/L4YAML/Parser/TokenParser.html#L4YAML.TokenParser.StreamState" xlink:title="TokenParser.StreamState" target="_blank">
<polygon fill="#dce9f7" stroke="#4a90d9" points="1741.5,-52 1612.5,-52 1612.5,-16 1741.5,-16 1741.5,-52"/>
<text text-anchor="middle" x="1677" y="-31.5" font-family="Helvetica" font-size="10.00">TokenParser.StreamState</text>
</a>
</g>
</g>
<!-- L4YAML.TokenParser.parseStreamLoop&#45;&gt;L4YAML.TokenParser.StreamState -->
<g id="edge5" class="edge">
<title>L4YAML.TokenParser.parseStreamLoop&#45;&gt;L4YAML.TokenParser.StreamState</title>
<path fill="none" stroke="#4a90d9" stroke-width="2" d="M1471.53,-96.96C1513.37,-84.34 1570.38,-67.15 1613.74,-54.08"/>
<polygon fill="#4a90d9" stroke="#4a90d9" stroke-width="2" points="1614.58,-56.38 1620.57,-52.01 1613.16,-51.69 1614.58,-56.38"/>
<text text-anchor="middle" x="1562.5" y="-72.6" font-family="Times-Roman" font-size="8.00">calls</text>
</g>
<!-- L4YAML.TokenParser.parseStream -->
<g id="node4" class="node">
<title>L4YAML.TokenParser.parseStream</title>
<g id="a_node4"><a xlink:href="../../../api/L4YAML/Parser/TokenParser.html#L4YAML.TokenParser.parseStream" xlink:title="TokenParser.parseStream" target="_blank">
<polygon fill="#dce9f7" stroke="#4a90d9" points="1440.5,-214 1309.5,-214 1309.5,-178 1440.5,-178 1440.5,-214"/>
<text text-anchor="middle" x="1375" y="-193.5" font-family="Helvetica" font-size="10.00">TokenParser.parseStream</text>
</a>
</g>
</g>
<!-- L4YAML.TokenParser.parseStream&#45;&gt;L4YAML.TokenParser.parseStreamLoop -->
<g id="edge2" class="edge">
<title>L4YAML.TokenParser.parseStream&#45;&gt;L4YAML.TokenParser.parseStreamLoop</title>
<path fill="none" stroke="#4a90d9" stroke-width="2" d="M1383.68,-177.86C1389.34,-166.68 1396.81,-151.93 1403.03,-139.64"/>
<polygon fill="#4a90d9" stroke="#4a90d9" stroke-width="2" points="1405.36,-140.46 1406.34,-133.11 1400.99,-138.25 1405.36,-140.46"/>
<text text-anchor="middle" x="1405.5" y="-153.6" font-family="Times-Roman" font-size="8.00">calls</text>
</g>
<!-- L4YAML.Proofs.ParserWfaProofs.parseDocument_wfa -->
<g id="node7" class="node">
<title>L4YAML.Proofs.ParserWfaProofs.parseDocument_wfa</title>
<g id="a_node7"><a xlink:href="../../../api/L4YAML/Proofs/Parser/ParserWfaProofs.html#L4YAML.Proofs.ParserWfaProofs.parseDocument_wfa" xlink:title="ParserWfaProofs.parseDocument_wfa" target="_blank">
<ellipse fill="#d4edda" stroke="#28a745" cx="650" cy="-115" rx="109.48" ry="18"/>
<text text-anchor="middle" x="650" y="-112.5" font-family="Helvetica" font-size="10.00">ParserWfaProofs.parseDocument_wfa</text>
</a>
</g>
</g>
<!-- L4YAML.Proofs.ParserWfaProofs.parseDocument_wfa&#45;&gt;L4YAML.TokenParser.ParseState -->
<g id="edge13" class="edge">
<title>L4YAML.Proofs.ParserWfaProofs.parseDocument_wfa&#45;&gt;L4YAML.TokenParser.ParseState</title>
<path fill="none" stroke="#6f42c1" stroke-width="2" stroke-dasharray="5,2" d="M683.44,-97.65C705.26,-87.79 734.66,-76.02 762,-70 859.34,-48.56 1148.72,-39.5 1282.61,-36.38"/>
<polygon fill="#6f42c1" stroke="#6f42c1" stroke-width="2" points="1282.71,-38.83 1289.65,-36.22 1282.6,-33.93 1282.71,-38.83"/>
<text text-anchor="middle" x="774.5" y="-72.6" font-family="Times-Roman" font-size="8.00" fill="#6f42c1">about</text>
</g>
<!-- L4YAML.Proofs.ParserWfaProofs.parseDocument_wfa&#45;&gt;L4YAML.ScanError -->
<g id="edge14" class="edge">
<title>L4YAML.Proofs.ParserWfaProofs.parseDocument_wfa&#45;&gt;L4YAML.ScanError</title>
<path fill="none" stroke="#6f42c1" stroke-width="2" stroke-dasharray="5,2" d="M708.39,-99.76C727.59,-95.6 749.1,-91.51 769,-89 868.75,-76.4 896.8,-100.58 995,-79 1005.32,-76.73 1006.67,-72.22 1017,-70 1237.87,-22.49 1304.69,-102.02 1525,-52 1525.63,-51.86 1526.26,-51.7 1526.9,-51.54"/>
<polygon fill="#6f42c1" stroke="#6f42c1" stroke-width="2" points="1527.72,-53.85 1533.71,-49.49 1526.3,-49.16 1527.72,-53.85"/>
<text text-anchor="middle" x="1029.5" y="-72.6" font-family="Times-Roman" font-size="8.00" fill="#6f42c1">about</text>
</g>
<!-- L4YAML.Proofs.ParserWfaProofs.parseDocument_wfa&#45;&gt;L4YAML.YamlDocument -->
<g id="edge16" class="edge">
<title>L4YAML.Proofs.ParserWfaProofs.parseDocument_wfa&#45;&gt;L4YAML.YamlDocument</title>
<path fill="none" stroke="#6f42c1" stroke-width="2" stroke-dasharray="5,2" d="M711.58,-100.07C729.99,-96.17 750.26,-92.15 769,-89 835.27,-77.86 852.02,-75.43 919,-70 1030.71,-60.95 1312.71,-71.92 1423,-52 1423.76,-51.86 1424.52,-51.72 1425.28,-51.56"/>
<polygon fill="#6f42c1" stroke="#6f42c1" stroke-width="2" points="1425.94,-53.93 1432.22,-49.98 1424.85,-49.15 1425.94,-53.93"/>
<text text-anchor="middle" x="931.5" y="-72.6" font-family="Times-Roman" font-size="8.00" fill="#6f42c1">about</text>
</g>
<!-- L4YAML.TokenParser.parseStreamLoop.eq_def -->
<g id="node8" class="node">
<title>L4YAML.TokenParser.parseStreamLoop.eq_def</title>
<g id="a_node8"><a xlink:href="../../../api/L4YAML/Proofs/Parser/ParserWellBehaved.html#L4YAML.TokenParser.parseStreamLoop.eq_def" xlink:title="TokenParser.parseStreamLoop.eq_def" target="_blank">
<ellipse fill="#d4edda" stroke="#28a745" cx="886" cy="-115" rx="108.13" ry="18"/>
<text text-anchor="middle" x="886" y="-112.5" font-family="Helvetica" font-size="10.00">TokenParser.parseStreamLoop.eq_def</text>
</a>
</g>
</g>
<!-- L4YAML.TokenParser.parseStreamLoop.eq_def&#45;&gt;L4YAML.TokenParser.ParseState -->
<g id="edge19" class="edge">
<title>L4YAML.TokenParser.parseStreamLoop.eq_def&#45;&gt;L4YAML.TokenParser.ParseState</title>
<path fill="none" stroke="#6f42c1" stroke-width="2" stroke-dasharray="5,2" d="M911.36,-97.36C927.48,-87.66 949.16,-76.15 970,-70 1026.73,-53.26 1188.63,-42.9 1282.46,-38.13"/>
<polygon fill="#6f42c1" stroke="#6f42c1" stroke-width="2" points="1282.78,-40.56 1289.65,-37.76 1282.53,-35.67 1282.78,-40.56"/>
<text text-anchor="middle" x="982.5" y="-72.6" font-family="Times-Roman" font-size="8.00" fill="#6f42c1">about</text>
</g>
<!-- L4YAML.TokenParser.parseStreamLoop.eq_def&#45;&gt;L4YAML.ScanError -->
<g id="edge22" class="edge">
<title>L4YAML.TokenParser.parseStreamLoop.eq_def&#45;&gt;L4YAML.ScanError</title>
<path fill="none" stroke="#6f42c1" stroke-width="2" stroke-dasharray="5,2" d="M945.89,-99.91C964.15,-95.96 984.33,-91.95 1003,-89 1045.81,-82.24 1057.74,-88.63 1100,-79 1111.51,-76.38 1113.42,-72.29 1125,-70 1299.58,-35.47 1351.65,-92.23 1525,-52 1525.63,-51.85 1526.26,-51.7 1526.9,-51.53"/>
<polygon fill="#6f42c1" stroke="#6f42c1" stroke-width="2" points="1527.72,-53.84 1533.71,-49.46 1526.3,-49.15 1527.72,-53.84"/>
<text text-anchor="middle" x="1137.5" y="-72.6" font-family="Times-Roman" font-size="8.00" fill="#6f42c1">about</text>
</g>
<!-- L4YAML.TokenParser.parseStreamLoop.eq_def&#45;&gt;L4YAML.YamlDocument -->
<g id="edge23" class="edge">
<title>L4YAML.TokenParser.parseStreamLoop.eq_def&#45;&gt;L4YAML.YamlDocument</title>
<path fill="none" stroke="#6f42c1" stroke-width="2" stroke-dasharray="5,2" d="M949.73,-100.33C990.1,-91.62 1036.45,-81.52 1046,-79 1059.05,-75.55 1061.71,-72.37 1075,-70 1227.47,-42.84 1270.82,-80.75 1423,-52 1423.88,-51.83 1424.76,-51.66 1425.65,-51.47"/>
<polygon fill="#6f42c1" stroke="#6f42c1" stroke-width="2" points="1426.25,-53.85 1432.49,-49.85 1425.12,-49.08 1426.25,-53.85"/>
<text text-anchor="middle" x="1087.5" y="-72.6" font-family="Times-Roman" font-size="8.00" fill="#6f42c1">about</text>
</g>
<!-- L4YAML.TokenParser.parseStreamLoop.eq_def&#45;&gt;L4YAML.TokenParser.StreamState -->
<g id="edge7" class="edge">
<title>L4YAML.TokenParser.parseStreamLoop.eq_def&#45;&gt;L4YAML.TokenParser.StreamState</title>
<path fill="none" stroke="#6f42c1" stroke-width="2" stroke-dasharray="5,2" d="M944.33,-99.83C962.98,-95.76 983.77,-91.69 1003,-89 1067.85,-79.91 1084.67,-83.56 1150,-79 1206.01,-75.09 1219.97,-73.54 1276,-70 1421.26,-60.81 1458.88,-72.37 1603,-52 1603.66,-51.91 1604.32,-51.81 1604.98,-51.71"/>
<polygon fill="#6f42c1" stroke="#6f42c1" stroke-width="2" points="1605.62,-54.09 1612.15,-50.56 1604.84,-49.25 1605.62,-54.09"/>
<text text-anchor="middle" x="1288.5" y="-72.6" font-family="Times-Roman" font-size="8.00" fill="#6f42c1">about</text>
</g>
<!-- L4YAML.Proofs.ParserWfaProofs.tryConsume_anchors_wfa -->
<g id="node9" class="node">
<title>L4YAML.Proofs.ParserWfaProofs.tryConsume_anchors_wfa</title>
<g id="a_node9"><a xlink:href="../../../api/L4YAML/Proofs/Parser/ParserWfaProofs.html#L4YAML.Proofs.ParserWfaProofs.tryConsume_anchors_wfa" xlink:title="ParserWfaProofs.tryConsume_anchors_wfa" target="_blank">
<ellipse fill="#d4edda" stroke="#28a745" cx="140" cy="-115" rx="124.42" ry="18"/>
<text text-anchor="middle" x="140" y="-112.5" font-family="Helvetica" font-size="10.00">ParserWfaProofs.tryConsume_anchors_wfa</text>
</a>
</g>
</g>
<!-- L4YAML.Proofs.ParserWfaProofs.tryConsume_anchors_wfa&#45;&gt;L4YAML.TokenParser.ParseState -->
<g id="edge18" class="edge">
<title>L4YAML.Proofs.ParserWfaProofs.tryConsume_anchors_wfa&#45;&gt;L4YAML.TokenParser.ParseState</title>
<path fill="none" stroke="#6f42c1" stroke-width="2" stroke-dasharray="5,2" d="M206.72,-99.75C227.83,-95.71 251.31,-91.68 273,-89 652.19,-42.22 1111.09,-35.7 1282.77,-34.98"/>
<polygon fill="#6f42c1" stroke="#6f42c1" stroke-width="2" points="1283,-37.43 1289.99,-34.96 1282.98,-32.53 1283,-37.43"/>
<text text-anchor="middle" x="460.5" y="-72.6" font-family="Times-Roman" font-size="8.00" fill="#6f42c1">about</text>
</g>
<!-- L4YAML.Proofs.ParserWfaProofs.parseDocument_tokens_eq -->
<g id="node10" class="node">
<title>L4YAML.Proofs.ParserWfaProofs.parseDocument_tokens_eq</title>
<g id="a_node10"><a xlink:href="../../../api/L4YAML/Proofs/Parser/ParserWfaProofs.html#L4YAML.Proofs.ParserWfaProofs.parseDocument_tokens_eq" xlink:title="ParserWfaProofs.parseDocument_tokens_eq" target="_blank">
<ellipse fill="#d4edda" stroke="#28a745" cx="1139" cy="-115" rx="126.63" ry="18"/>
<text text-anchor="middle" x="1139" y="-112.5" font-family="Helvetica" font-size="10.00">ParserWfaProofs.parseDocument_tokens_eq</text>
</a>
</g>
</g>
<!-- L4YAML.Proofs.ParserWfaProofs.parseDocument_tokens_eq&#45;&gt;L4YAML.ScanError -->
<g id="edge10" class="edge">
<title>L4YAML.Proofs.ParserWfaProofs.parseDocument_tokens_eq&#45;&gt;L4YAML.ScanError</title>
<path fill="none" stroke="#6f42c1" stroke-width="2" stroke-dasharray="5,2" d="M1201.61,-99.35C1243.89,-89.88 1301.07,-77.89 1352,-70 1428.39,-58.17 1450.24,-71.68 1525,-52 1525.62,-51.84 1526.25,-51.66 1526.88,-51.48"/>
<polygon fill="#6f42c1" stroke="#6f42c1" stroke-width="2" points="1527.76,-53.77 1533.66,-49.28 1526.25,-49.11 1527.76,-53.77"/>
<text text-anchor="middle" x="1364.5" y="-72.6" font-family="Times-Roman" font-size="8.00" fill="#6f42c1">about</text>
</g>
<!-- L4YAML.Proofs.ParserWfaProofs.parseStream_output_anchors_wellformed -->
<g id="node11" class="node">
<title>L4YAML.Proofs.ParserWfaProofs.parseStream_output_anchors_wellformed</title>
<g id="a_node11"><a xlink:href="../../../api/L4YAML/Proofs/Parser/ParserWfaProofs.html#L4YAML.Proofs.ParserWfaProofs.parseStream_output_anchors_wellformed" xlink:title="ParserWfaProofs.parseStream_output_anchors_wellformed" target="_blank">
<polygon fill="#fff3cd" stroke="#d4a017" points="1161.72,-293.54 1161.72,-308.46 1058.78,-319 913.22,-319 810.28,-308.46 810.28,-293.54 913.22,-283 1058.78,-283 1161.72,-293.54"/>
<polygon fill="none" stroke="#d4a017" points="1165.71,-289.93 1165.71,-312.07 1058.99,-323 913.01,-323 806.29,-312.07 806.29,-289.93 913.01,-279 1058.99,-279 1165.71,-289.93"/>
<text text-anchor="middle" x="986" y="-298.5" font-family="Helvetica" font-size="10.00">ParserWfaProofs.parseStream_output_anchors_wellformed</text>
</a>
</g>
</g>
<!-- L4YAML.Proofs.ParserWfaProofs.parseStream_output_anchors_wellformed&#45;&gt;L4YAML.TokenParser.parseStream -->
<g id="edge1" class="edge">
<title>L4YAML.Proofs.ParserWfaProofs.parseStream_output_anchors_wellformed&#45;&gt;L4YAML.TokenParser.parseStream</title>
<path fill="none" stroke="#6f42c1" stroke-width="2" stroke-dasharray="5,2" d="M1107.86,-283.94C1160.94,-275.08 1223.37,-262.12 1278,-244 1298.72,-237.13 1320.7,-226.75 1338.49,-217.5"/>
<polygon fill="#6f42c1" stroke="#6f42c1" stroke-width="2" points="1339.8,-219.58 1344.85,-214.15 1337.51,-215.25 1339.8,-219.58"/>
<text text-anchor="middle" x="1259.5" y="-254.6" font-family="Times-Roman" font-size="8.00" fill="#6f42c1">about</text>
</g>
<!-- L4YAML.Proofs.ParserWfaProofs.parseStreamLoop_wfa -->
<g id="node12" class="node">
<title>L4YAML.Proofs.ParserWfaProofs.parseStreamLoop_wfa</title>
<g id="a_node12"><a xlink:href="../../../api/L4YAML/Proofs/Parser/ParserWfaProofs.html#L4YAML.Proofs.ParserWfaProofs.parseStreamLoop_wfa" xlink:title="ParserWfaProofs.parseStreamLoop_wfa" target="_blank">
<ellipse fill="#d4edda" stroke="#28a745" cx="886" cy="-196" rx="114.4" ry="18"/>
<text text-anchor="middle" x="886" y="-193.5" font-family="Helvetica" font-size="10.00">ParserWfaProofs.parseStreamLoop_wfa</text>
</a>
</g>
</g>
<!-- L4YAML.Proofs.ParserWfaProofs.parseStream_output_anchors_wellformed&#45;&gt;L4YAML.Proofs.ParserWfaProofs.parseStreamLoop_wfa -->
<g id="edge3" class="edge">
<title>L4YAML.Proofs.ParserWfaProofs.parseStream_output_anchors_wellformed&#45;&gt;L4YAML.Proofs.ParserWfaProofs.parseStreamLoop_wfa</title>
<path fill="none" stroke="#28a745" stroke-width="2" d="M965.28,-278.66C948.38,-261.25 924.59,-236.74 907.48,-219.13"/>
<polygon fill="#28a745" stroke="#28a745" stroke-width="2" points="909.04,-217.21 902.4,-213.89 905.52,-220.62 909.04,-217.21"/>
<text text-anchor="middle" x="957" y="-254.6" font-family="Times-Roman" font-size="8.00">uses</text>
</g>
<!-- L4YAML.Proofs.ParserWfaProofs.parseStreamLoop_wfa&#45;&gt;L4YAML.TokenParser.parseStreamLoop -->
<g id="edge4" class="edge">
<title>L4YAML.Proofs.ParserWfaProofs.parseStreamLoop_wfa&#45;&gt;L4YAML.TokenParser.parseStreamLoop</title>
<path fill="none" stroke="#6f42c1" stroke-width="2" stroke-dasharray="5,2" d="M965.77,-183.09C1064.42,-168.35 1231.56,-143.39 1331.78,-128.43"/>
<polygon fill="#6f42c1" stroke="#6f42c1" stroke-width="2" points="1332.32,-130.82 1338.88,-127.37 1331.59,-125.98 1332.32,-130.82"/>
<text text-anchor="middle" x="1178.5" y="-153.6" font-family="Times-Roman" font-size="8.00" fill="#6f42c1">about</text>
</g>
<!-- L4YAML.Proofs.ParserWfaProofs.parseStreamLoop_wfa&#45;&gt;L4YAML.Proofs.ParserWfaProofs.parseDocument_wfa -->
<g id="edge12" class="edge">
<title>L4YAML.Proofs.ParserWfaProofs.parseStreamLoop_wfa&#45;&gt;L4YAML.Proofs.ParserWfaProofs.parseDocument_wfa</title>
<path fill="none" stroke="#28a745" stroke-width="2" d="M839.66,-179.49C800.36,-166.33 744.01,-147.47 702.95,-133.72"/>
<polygon fill="#28a745" stroke="#28a745" stroke-width="2" points="703.65,-131.38 696.24,-131.48 702.1,-136.02 703.65,-131.38"/>
<text text-anchor="middle" x="785" y="-153.6" font-family="Times-Roman" font-size="8.00">uses</text>
</g>
<!-- L4YAML.Proofs.ParserWfaProofs.parseStreamLoop_wfa&#45;&gt;L4YAML.TokenParser.parseStreamLoop.eq_def -->
<g id="edge6" class="edge">
<title>L4YAML.Proofs.ParserWfaProofs.parseStreamLoop_wfa&#45;&gt;L4YAML.TokenParser.parseStreamLoop.eq_def</title>
<path fill="none" stroke="#28a745" stroke-width="2" d="M886,-177.86C886,-166.88 886,-152.48 886,-140.33"/>
<polygon fill="#28a745" stroke="#28a745" stroke-width="2" points="888.45,-140.11 886,-133.11 883.55,-140.11 888.45,-140.11"/>
<text text-anchor="middle" x="896" y="-153.6" font-family="Times-Roman" font-size="8.00">uses</text>
</g>
<!-- L4YAML.Proofs.ParserWfaProofs.parseStreamLoop_wfa&#45;&gt;L4YAML.Proofs.ParserWfaProofs.tryConsume_anchors_wfa -->
<g id="edge17" class="edge">
<title>L4YAML.Proofs.ParserWfaProofs.parseStreamLoop_wfa&#45;&gt;L4YAML.Proofs.ParserWfaProofs.tryConsume_anchors_wfa</title>
<path fill="none" stroke="#28a745" stroke-width="2" d="M790.35,-186.11C669.67,-174.72 455.79,-153.92 273,-133 260.9,-131.62 248.19,-130.09 235.63,-128.53"/>
<polygon fill="#28a745" stroke="#28a745" stroke-width="2" points="235.92,-126.1 228.67,-127.66 235.32,-130.96 235.92,-126.1"/>
<text text-anchor="middle" x="518" y="-153.6" font-family="Times-Roman" font-size="8.00">uses</text>
</g>
<!-- L4YAML.Proofs.ParserWfaProofs.parseStreamLoop_wfa&#45;&gt;L4YAML.Proofs.ParserWfaProofs.parseDocument_tokens_eq -->
<g id="edge9" class="edge">
<title>L4YAML.Proofs.ParserWfaProofs.parseStreamLoop_wfa&#45;&gt;L4YAML.Proofs.ParserWfaProofs.parseDocument_tokens_eq</title>
<path fill="none" stroke="#28a745" stroke-width="2" d="M935.08,-179.67C977.23,-166.51 1038.01,-147.53 1082.24,-133.72"/>
<polygon fill="#28a745" stroke="#28a745" stroke-width="2" points="1083.24,-135.98 1089.19,-131.55 1081.78,-131.3 1083.24,-135.98"/>
<text text-anchor="middle" x="1030" y="-153.6" font-family="Times-Roman" font-size="8.00">uses</text>
</g>
<!-- L4YAML.Proofs.ParserWfaProofs.tryConsume_tokens_wfa -->
<g id="node13" class="node">
<title>L4YAML.Proofs.ParserWfaProofs.tryConsume_tokens_wfa</title>
<g id="a_node13"><a xlink:href="../../../api/L4YAML/Proofs/Parser/ParserWfaProofs.html#L4YAML.Proofs.ParserWfaProofs.tryConsume_tokens_wfa" xlink:title="ParserWfaProofs.tryConsume_tokens_wfa" target="_blank">
<ellipse fill="#d4edda" stroke="#28a745" cx="402" cy="-115" rx="120.17" ry="18"/>
<text text-anchor="middle" x="402" y="-112.5" font-family="Helvetica" font-size="10.00">ParserWfaProofs.tryConsume_tokens_wfa</text>
</a>
</g>
</g>
<!-- L4YAML.Proofs.ParserWfaProofs.parseStreamLoop_wfa&#45;&gt;L4YAML.Proofs.ParserWfaProofs.tryConsume_tokens_wfa -->
<g id="edge20" class="edge">
<title>L4YAML.Proofs.ParserWfaProofs.parseStreamLoop_wfa&#45;&gt;L4YAML.Proofs.ParserWfaProofs.tryConsume_tokens_wfa</title>
<path fill="none" stroke="#28a745" stroke-width="2" d="M809.84,-182.57C722.15,-168.26 578.47,-144.8 487.15,-129.9"/>
<polygon fill="#28a745" stroke="#28a745" stroke-width="2" points="487.42,-127.46 480.12,-128.75 486.63,-132.3 487.42,-127.46"/>
<text text-anchor="middle" x="668" y="-153.6" font-family="Times-Roman" font-size="8.00">uses</text>
</g>
<!-- L4YAML.Proofs.ParserWfaProofs.tryConsume_tokens_wfa&#45;&gt;L4YAML.TokenParser.ParseState -->
<g id="edge21" class="edge">
<title>L4YAML.Proofs.ParserWfaProofs.tryConsume_tokens_wfa&#45;&gt;L4YAML.TokenParser.ParseState</title>
<path fill="none" stroke="#6f42c1" stroke-width="2" stroke-dasharray="5,2" d="M469.3,-100.02C489.41,-96.12 511.55,-92.11 532,-89 808.02,-47.01 1141.22,-37.66 1282.88,-35.59"/>
<polygon fill="#6f42c1" stroke="#6f42c1" stroke-width="2" points="1282.93,-38.04 1289.89,-35.49 1282.86,-33.14 1282.93,-38.04"/>
<text text-anchor="middle" x="677.5" y="-72.6" font-family="Times-Roman" font-size="8.00" fill="#6f42c1">about</text>
</g>
</g>
</svg>
