<?xml version="1.0" encoding="UTF-8" standalone="no"?>
<!DOCTYPE svg PUBLIC "-//W3C//DTD SVG 1.1//EN"
 "http://www.w3.org/Graphics/SVG/1.1/DTD/svg11.dtd">
<!-- Generated by graphviz version 2.44.0 (0)
 -->
<!-- Title: ParserWfaProofs.parseStream_output_anchors_wellformed Pages: 1 -->
<svg width="1376pt" height="1201pt"
 viewBox="0.00 0.00 1375.50 1200.95" xmlns="http://www.w3.org/2000/svg" xmlns:xlink="http://www.w3.org/1999/xlink">
<g id="graph0" class="graph" transform="scale(1 1) rotate(0) translate(4 1196.95)">
<title>ParserWfaProofs.parseStream_output_anchors_wellformed</title>
<polygon fill="white" stroke="transparent" points="-4,4 -4,-1196.95 1371.5,-1196.95 1371.5,4 -4,4"/>
<text text-anchor="middle" x="683.75" y="-1178.55" font-family="Helvetica Bold" font-size="13.00">ParserWfaProofs.parseStream_output_anchors_wellformed</text>
<text text-anchor="middle" x="683.75" y="-1164.55" font-family="Helvetica Bold" font-size="13.00">3.8 Parsed stream output has well&#45;formed anchors</text>
<text text-anchor="middle" x="683.75" y="-1150.55" font-family="Helvetica Bold" font-size="13.00">(L4YAML.Proofs.Parser.ParserWfaProofs)</text>
<g id="clust1" class="cluster">
<title>cluster_functions</title>
<polygon fill="none" stroke="#4a90d9" stroke-dasharray="5,2" points="382.9,-628.95 382.9,-1134.95 1359.5,-1134.95 1359.5,-628.95 382.9,-628.95"/>
<text text-anchor="middle" x="871.2" y="-1120.55" font-family="Helvetica Bold" font-size="13.00" fill="#4a90d9">Functions</text>
</g>
<g id="clust2" class="cluster">
<title>cluster_key</title>
<polygon fill="none" stroke="#d4a017" stroke-dasharray="5,2" points="609.08,-224.95 609.08,-306.95 1075.5,-306.95 1075.5,-224.95 609.08,-224.95"/>
<text text-anchor="middle" x="842.29" y="-292.55" font-family="Helvetica Bold" font-size="13.00" fill="#d4a017">Key Theorem</text>
</g>
<g id="clust3" class="cluster">
<title>cluster_proofs</title>
<polygon fill="none" stroke="#28a745" stroke-dasharray="5,2" points="8,-480.95 8,-620.95 567.08,-620.95 567.08,-480.95 8,-480.95"/>
<text text-anchor="middle" x="287.54" y="-606.55" font-family="Helvetica Bold" font-size="13.00" fill="#28a745">Proof Dependencies</text>
</g>
<g id="clust4" class="cluster">
<title>cluster_stdlib</title>
<polygon fill="none" stroke="#e67e22" stroke-dasharray="5,2" points="337.37,-40.95 337.37,-384.95 506.42,-384.95 506.42,-40.95 337.37,-40.95"/>
<text text-anchor="middle" x="421.9" y="-370.55" font-family="Helvetica Bold" font-size="13.00" fill="#e67e22">Stdlib Lemmas</text>
</g>
<!-- L4YAML.YamlDocument.anchors -->
<g id="node1" class="node">
<title>L4YAML.YamlDocument.anchors</title>
<g id="a_node1"><a xlink:href="../../../api/L4YAML/Spec/Types.html#L4YAML.YamlDocument.anchors" xlink:title="YamlDocument.anchors\n(def)" target="_blank">
<polygon fill="#dce9f7" stroke="#4a90d9" points="1300.5,-942.95 1179.5,-942.95 1179.5,-906.95 1300.5,-906.95 1300.5,-942.95"/>
<text text-anchor="middle" x="1240" y="-927.95" font-family="Helvetica" font-size="10.00">YamlDocument.anchors</text>
<text text-anchor="middle" x="1240" y="-916.95" font-family="Helvetica" font-size="10.00">(def)</text>
</a>
</g>
</g>
<!-- L4YAML.TokenParser.parseStreamLoop -->
<g id="node2" class="node">
<title>L4YAML.TokenParser.parseStreamLoop</title>
<g id="a_node2"><a xlink:href="../../../api/L4YAML/Parser/TokenParser.html#L4YAML.TokenParser.parseStreamLoop" xlink:title="TokenParser.parseStreamLoop\n(def)" target="_blank">
<polygon fill="#dce9f7" stroke="#4a90d9" points="918.29,-942.95 766.29,-942.95 766.29,-906.95 918.29,-906.95 918.29,-942.95"/>
<text text-anchor="middle" x="842.29" y="-927.95" font-family="Helvetica" font-size="10.00">TokenParser.parseStreamLoop</text>
<text text-anchor="middle" x="842.29" y="-916.95" font-family="Helvetica" font-size="10.00">(def)</text>
</a>
</g>
</g>
<!-- L4YAML.TokenParser.ParseState -->
<g id="node3" class="node">
<title>L4YAML.TokenParser.ParseState</title>
<g id="a_node3"><a xlink:href="../../../api/L4YAML/Parser/State.html#L4YAML.TokenParser.ParseState" xlink:title="TokenParser.ParseState\n(inductive)" target="_blank">
<polygon fill="#dce9f7" stroke="#4a90d9" points="904.29,-1050.95 780.29,-1050.95 780.29,-1014.95 904.29,-1014.95 904.29,-1050.95"/>
<text text-anchor="middle" x="842.29" y="-1035.95" font-family="Helvetica" font-size="10.00">TokenParser.ParseState</text>
<text text-anchor="middle" x="842.29" y="-1024.95" font-family="Helvetica" font-size="10.00">(inductive)</text>
</a>
</g>
</g>
<!-- L4YAML.TokenParser.ParseState.anchors -->
<g id="node4" class="node">
<title>L4YAML.TokenParser.ParseState.anchors</title>
<g id="a_node4"><a xlink:href="../../../api/L4YAML/Parser/State.html#L4YAML.TokenParser.ParseState.anchors" xlink:title="TokenParser.ParseState.anchors\n(def)" target="_blank">
<polygon fill="#dce9f7" stroke="#4a90d9" points="923.29,-888.95 761.29,-888.95 761.29,-852.95 923.29,-852.95 923.29,-888.95"/>
<text text-anchor="middle" x="842.29" y="-873.95" font-family="Helvetica" font-size="10.00">TokenParser.ParseState.anchors</text>
<text text-anchor="middle" x="842.29" y="-862.95" font-family="Helvetica" font-size="10.00">(def)</text>
</a>
</g>
</g>
<!-- L4YAML.Proofs.ScannerPlainScalarValid.FlowBracketsMatched -->
<g id="node5" class="node">
<title>L4YAML.Proofs.ScannerPlainScalarValid.FlowBracketsMatched</title>
<g id="a_node5"><a xlink:href="../../../api/L4YAML/Proofs/Production/ScannerPlainScalarValid.html#L4YAML.Proofs.ScannerPlainScalarValid.FlowBracketsMatched" xlink:title="ScannerPlainScalarValid.FlowBracketsMatched\n(def)" target="_blank">
<polygon fill="#dce9f7" stroke="#4a90d9" points="1351.5,-780.95 1128.5,-780.95 1128.5,-744.95 1351.5,-744.95 1351.5,-780.95"/>
<text text-anchor="middle" x="1240" y="-765.95" font-family="Helvetica" font-size="10.00">ScannerPlainScalarValid.FlowBracketsMatched</text>
<text text-anchor="middle" x="1240" y="-754.95" font-family="Helvetica" font-size="10.00">(def)</text>
</a>
</g>
</g>
<!-- L4YAML.Proofs.ScannerPlainScalarValid.FlowAwarePSV -->
<g id="node6" class="node">
<title>L4YAML.Proofs.ScannerPlainScalarValid.FlowAwarePSV</title>
<g id="a_node6"><a xlink:href="../../../api/L4YAML/Proofs/Production/ScannerPlainScalarValid.html#L4YAML.Proofs.ScannerPlainScalarValid.FlowAwarePSV" xlink:title="ScannerPlainScalarValid.FlowAwarePSV\n(def)" target="_blank">
<polygon fill="#dce9f7" stroke="#4a90d9" points="1337,-834.95 1143,-834.95 1143,-798.95 1337,-798.95 1337,-834.95"/>
<text text-anchor="middle" x="1240" y="-819.95" font-family="Helvetica" font-size="10.00">ScannerPlainScalarValid.FlowAwarePSV</text>
<text text-anchor="middle" x="1240" y="-808.95" font-family="Helvetica" font-size="10.00">(def)</text>
</a>
</g>
</g>
<!-- L4YAML.TokenParser.ParseState.expect -->
<g id="node7" class="node">
<title>L4YAML.TokenParser.ParseState.expect</title>
<g id="a_node7"><a xlink:href="../../../api/L4YAML/Parser/State.html#L4YAML.TokenParser.ParseState.expect" xlink:title="TokenParser.ParseState.expect\n(def)" target="_blank">
<polygon fill="#dce9f7" stroke="#4a90d9" points="920.29,-1104.95 764.29,-1104.95 764.29,-1068.95 920.29,-1068.95 920.29,-1104.95"/>
<text text-anchor="middle" x="842.29" y="-1089.95" font-family="Helvetica" font-size="10.00">TokenParser.ParseState.expect</text>
<text text-anchor="middle" x="842.29" y="-1078.95" font-family="Helvetica" font-size="10.00">(def)</text>
</a>
</g>
</g>
<!-- L4YAML.Proofs.ParserGrammable.WellFormedAnchors -->
<g id="node8" class="node">
<title>L4YAML.Proofs.ParserGrammable.WellFormedAnchors</title>
<g id="a_node8"><a xlink:href="../../../api/L4YAML/Proofs/Parser/ParserGrammableBase.html#L4YAML.Proofs.ParserGrammable.WellFormedAnchors" xlink:title="ParserGrammable.WellFormedAnchors\n(def)" target="_blank">
<polygon fill="#dce9f7" stroke="#4a90d9" points="1334,-726.95 1146,-726.95 1146,-690.95 1334,-690.95 1334,-726.95"/>
<text text-anchor="middle" x="1240" y="-711.95" font-family="Helvetica" font-size="10.00">ParserGrammable.WellFormedAnchors</text>
<text text-anchor="middle" x="1240" y="-700.95" font-family="Helvetica" font-size="10.00">(def)</text>
</a>
</g>
</g>
<!-- L4YAML.Positioned -->
<g id="node9" class="node">
<title>L4YAML.Positioned</title>
<g id="a_node9"><a xlink:href="../../../api/L4YAML/Token/Token.html#L4YAML.Positioned" xlink:title="Positioned\n(inductive)" target="_blank">
<polygon fill="#dce9f7" stroke="#4a90d9" points="1271,-996.95 1209,-996.95 1209,-960.95 1271,-960.95 1271,-996.95"/>
<text text-anchor="middle" x="1240" y="-981.95" font-family="Helvetica" font-size="10.00">Positioned</text>
<text text-anchor="middle" x="1240" y="-970.95" font-family="Helvetica" font-size="10.00">(inductive)</text>
</a>
</g>
</g>
<!-- L4YAML.YamlToken -->
<g id="node10" class="node">
<title>L4YAML.YamlToken</title>
<g id="a_node10"><a xlink:href="../../../api/L4YAML/Token/Token.html#L4YAML.YamlToken" xlink:title="YamlToken\n(inductive)" target="_blank">
<polygon fill="#dce9f7" stroke="#4a90d9" points="1272,-1104.95 1208,-1104.95 1208,-1068.95 1272,-1068.95 1272,-1104.95"/>
<text text-anchor="middle" x="1240" y="-1089.95" font-family="Helvetica" font-size="10.00">YamlToken</text>
<text text-anchor="middle" x="1240" y="-1078.95" font-family="Helvetica" font-size="10.00">(inductive)</text>
</a>
</g>
</g>
<!-- L4YAML.YamlValue -->
<g id="node11" class="node">
<title>L4YAML.YamlValue</title>
<g id="a_node11"><a xlink:href="../../../api/L4YAML/Spec/Types.html#L4YAML.YamlValue" xlink:title="YamlValue\n(inductive)" target="_blank">
<polygon fill="#dce9f7" stroke="#4a90d9" points="452.9,-672.95 390.9,-672.95 390.9,-636.95 452.9,-636.95 452.9,-672.95"/>
<text text-anchor="middle" x="421.9" y="-657.95" font-family="Helvetica" font-size="10.00">YamlValue</text>
<text text-anchor="middle" x="421.9" y="-646.95" font-family="Helvetica" font-size="10.00">(inductive)</text>
</a>
</g>
</g>
<!-- L4YAML.TokenParser.parseStream -->
<g id="node12" class="node">
<title>L4YAML.TokenParser.parseStream</title>
<g id="a_node12"><a xlink:href="../../../api/L4YAML/Parser/TokenParser.html#L4YAML.TokenParser.parseStream" xlink:title="TokenParser.parseStream\n(def)" target="_blank">
<polygon fill="#dce9f7" stroke="#4a90d9" points="1305.5,-672.95 1174.5,-672.95 1174.5,-636.95 1305.5,-636.95 1305.5,-672.95"/>
<text text-anchor="middle" x="1240" y="-657.95" font-family="Helvetica" font-size="10.00">TokenParser.parseStream</text>
<text text-anchor="middle" x="1240" y="-646.95" font-family="Helvetica" font-size="10.00">(def)</text>
</a>
</g>
</g>
<!-- L4YAML.ScanError -->
<g id="node13" class="node">
<title>L4YAML.ScanError</title>
<g id="a_node13"><a xlink:href="../../../api/L4YAML/Token/Token.html#L4YAML.ScanError" xlink:title="ScanError\n(inductive)" target="_blank">
<polygon fill="#dce9f7" stroke="#4a90d9" points="1271,-1050.95 1209,-1050.95 1209,-1014.95 1271,-1014.95 1271,-1050.95"/>
<text text-anchor="middle" x="1240" y="-1035.95" font-family="Helvetica" font-size="10.00">ScanError</text>
<text text-anchor="middle" x="1240" y="-1024.95" font-family="Helvetica" font-size="10.00">(inductive)</text>
</a>
</g>
</g>
<!-- L4YAML.TokenParser.ParseState.tokens -->
<g id="node14" class="node">
<title>L4YAML.TokenParser.ParseState.tokens</title>
<g id="a_node14"><a xlink:href="../../../api/L4YAML/Parser/State.html#L4YAML.TokenParser.ParseState.tokens" xlink:title="TokenParser.ParseState.tokens\n(def)" target="_blank">
<polygon fill="#dce9f7" stroke="#4a90d9" points="919.79,-996.95 764.79,-996.95 764.79,-960.95 919.79,-960.95 919.79,-996.95"/>
<text text-anchor="middle" x="842.29" y="-981.95" font-family="Helvetica" font-size="10.00">TokenParser.ParseState.tokens</text>
<text text-anchor="middle" x="842.29" y="-970.95" font-family="Helvetica" font-size="10.00">(def)</text>
</a>
</g>
</g>
<!-- L4YAML.TokenParser.StreamState -->
<g id="node15" class="node">
<title>L4YAML.TokenParser.StreamState</title>
<g id="a_node15"><a xlink:href="../../../api/L4YAML/Parser/TokenParser.html#L4YAML.TokenParser.StreamState" xlink:title="TokenParser.StreamState\n(inductive)" target="_blank">
<polygon fill="#dce9f7" stroke="#4a90d9" points="906.79,-834.95 777.79,-834.95 777.79,-798.95 906.79,-798.95 906.79,-834.95"/>
<text text-anchor="middle" x="842.29" y="-819.95" font-family="Helvetica" font-size="10.00">TokenParser.StreamState</text>
<text text-anchor="middle" x="842.29" y="-808.95" font-family="Helvetica" font-size="10.00">(inductive)</text>
</a>
</g>
</g>
<!-- L4YAML.YamlDocument -->
<g id="node16" class="node">
<title>L4YAML.YamlDocument</title>
<g id="a_node16"><a xlink:href="../../../api/L4YAML/Spec/Types.html#L4YAML.YamlDocument" xlink:title="YamlDocument\n(inductive)" target="_blank">
<polygon fill="#dce9f7" stroke="#4a90d9" points="1281.5,-888.95 1198.5,-888.95 1198.5,-852.95 1281.5,-852.95 1281.5,-888.95"/>
<text text-anchor="middle" x="1240" y="-873.95" font-family="Helvetica" font-size="10.00">YamlDocument</text>
<text text-anchor="middle" x="1240" y="-862.95" font-family="Helvetica" font-size="10.00">(inductive)</text>
</a>
</g>
</g>
<!-- L4YAML.Proofs.ParserWfaProofs.parseStream_output_anchors_wellformed -->
<g id="node17" class="node">
<title>L4YAML.Proofs.ParserWfaProofs.parseStream_output_anchors_wellformed</title>
<g id="a_node17"><a xlink:href="../../../api/L4YAML/Proofs/Parser/ParserWfaProofs.html#L4YAML.Proofs.ParserWfaProofs.parseStream_output_anchors_wellformed" xlink:title="ParserWfaProofs.parseStream_output_anchors_wellformed" target="_blank">
<polygon fill="#fff3cd" stroke="#d4a017" points="1063.71,-247.49 1063.71,-262.41 934.01,-272.95 750.57,-272.95 620.87,-262.41 620.87,-247.49 750.57,-236.95 934.01,-236.95 1063.71,-247.49"/>
<polygon fill="none" stroke="#d4a017" points="1067.72,-243.81 1067.72,-266.09 934.17,-276.95 750.41,-276.95 616.86,-266.09 616.86,-243.81 750.41,-232.95 934.17,-232.95 1067.72,-243.81"/>
<text text-anchor="middle" x="842.29" y="-251.85" font-family="Helvetica" font-size="12.00">ParserWfaProofs.parseStream_output_anchors_wellformed</text>
</a>
</g>
</g>
<!-- L4YAML.Proofs.ParserWfaProofs.parseStream_output_anchors_wellformed&#45;&gt;L4YAML.YamlDocument.anchors -->
<g id="edge5" class="edge">
<title>L4YAML.Proofs.ParserWfaProofs.parseStream_output_anchors_wellformed&#45;&gt;L4YAML.YamlDocument.anchors</title>
<path fill="none" stroke="#4a90d9" stroke-width="2" d="M1015.91,-270.38C1038.67,-279.38 1059.59,-292.37 1075.5,-310.95 1093.06,-331.44 1078.01,-406.03 1085.5,-431.95 1092.18,-455.06 1104.28,-456.71 1110.5,-479.95 1122.53,-524.86 1099.02,-862.01 1128.5,-897.95 1139.35,-911.17 1155.51,-918.54 1172.15,-922.5"/>
<polygon fill="#4a90d9" stroke="#4a90d9" stroke-width="2" points="1171.94,-924.96 1179.29,-923.99 1172.94,-920.16 1171.94,-924.96"/>
<text text-anchor="middle" x="1098" y="-482.55" font-family="Times-Roman" font-size="8.00" fill="#4a90d9">about</text>
</g>
<!-- L4YAML.Proofs.ParserWfaProofs.parseStream_output_anchors_wellformed&#45;&gt;L4YAML.Proofs.ScannerPlainScalarValid.FlowBracketsMatched -->
<g id="edge8" class="edge">
<title>L4YAML.Proofs.ParserWfaProofs.parseStream_output_anchors_wellformed&#45;&gt;L4YAML.Proofs.ScannerPlainScalarValid.FlowBracketsMatched</title>
<path fill="none" stroke="#4a90d9" stroke-width="2" d="M1051.46,-267.52C1074.01,-276.89 1094.52,-290.23 1110.5,-308.95 1141.34,-345.06 1098.4,-699.22 1128.5,-735.95 1129.71,-737.42 1130.98,-738.82 1132.31,-740.15"/>
<polygon fill="#4a90d9" stroke="#4a90d9" stroke-width="2" points="1130.85,-742.13 1137.71,-744.94 1134.1,-738.46 1130.85,-742.13"/>
<text text-anchor="middle" x="1098" y="-311.55" font-family="Times-Roman" font-size="8.00" fill="#4a90d9">about</text>
</g>
<!-- L4YAML.Proofs.ParserWfaProofs.parseStream_output_anchors_wellformed&#45;&gt;L4YAML.Proofs.ScannerPlainScalarValid.FlowAwarePSV -->
<g id="edge9" class="edge">
<title>L4YAML.Proofs.ParserWfaProofs.parseStream_output_anchors_wellformed&#45;&gt;L4YAML.Proofs.ScannerPlainScalarValid.FlowAwarePSV</title>
<path fill="none" stroke="#4a90d9" stroke-width="2" d="M990.35,-272.48C1020.39,-280.82 1050.45,-293.05 1075.5,-310.95 1099.08,-327.79 1101.81,-338.31 1110.5,-365.95 1124.64,-410.93 1098.6,-753.49 1128.5,-789.95 1131.09,-793.1 1133.97,-795.92 1137.09,-798.43"/>
<polygon fill="#4a90d9" stroke="#4a90d9" stroke-width="2" points="1135.83,-800.55 1142.94,-802.65 1138.7,-796.57 1135.83,-800.55"/>
<text text-anchor="middle" x="1098" y="-368.55" font-family="Times-Roman" font-size="8.00" fill="#4a90d9">about</text>
</g>
<!-- L4YAML.Proofs.ParserWfaProofs.parseStream_output_anchors_wellformed&#45;&gt;L4YAML.Proofs.ParserGrammable.WellFormedAnchors -->
<g id="edge2" class="edge">
<title>L4YAML.Proofs.ParserWfaProofs.parseStream_output_anchors_wellformed&#45;&gt;L4YAML.Proofs.ParserGrammable.WellFormedAnchors</title>
<path fill="none" stroke="#4a90d9" stroke-width="2" d="M903.25,-232.91C963.95,-214.9 1056.34,-200.01 1110.5,-251.95 1145.02,-285.05 1098.19,-644.96 1128.5,-681.95 1131.86,-686.04 1135.72,-689.58 1139.96,-692.62"/>
<polygon fill="#4a90d9" stroke="#4a90d9" stroke-width="2" points="1138.73,-694.75 1145.94,-696.48 1141.38,-690.63 1138.73,-694.75"/>
<text text-anchor="middle" x="1098" y="-254.55" font-family="Times-Roman" font-size="8.00" fill="#4a90d9">about</text>
</g>
<!-- L4YAML.Proofs.ParserWfaProofs.parseStream_output_anchors_wellformed&#45;&gt;L4YAML.Positioned -->
<g id="edge3" class="edge">
<title>L4YAML.Proofs.ParserWfaProofs.parseStream_output_anchors_wellformed&#45;&gt;L4YAML.Positioned</title>
<path fill="none" stroke="#4a90d9" stroke-width="2" d="M1016.92,-270.25C1039.4,-279.28 1059.96,-292.32 1075.5,-310.95 1088.19,-326.16 1080.25,-469.85 1085.5,-488.95 1091.88,-512.14 1104.28,-513.72 1110.5,-536.95 1122.45,-581.53 1099.22,-916.27 1128.5,-951.95 1145.89,-973.14 1176.91,-979.29 1201.66,-980.48"/>
<polygon fill="#4a90d9" stroke="#4a90d9" stroke-width="2" points="1201.72,-982.93 1208.79,-980.69 1201.87,-978.03 1201.72,-982.93"/>
<text text-anchor="middle" x="1098" y="-539.55" font-family="Times-Roman" font-size="8.00" fill="#4a90d9">about</text>
</g>
<!-- L4YAML.Proofs.ParserWfaProofs.parseStream_output_anchors_wellformed&#45;&gt;L4YAML.YamlToken -->
<g id="edge6" class="edge">
<title>L4YAML.Proofs.ParserWfaProofs.parseStream_output_anchors_wellformed&#45;&gt;L4YAML.YamlToken</title>
<path fill="none" stroke="#4a90d9" stroke-width="2" d="M1017.87,-270.17C1040.07,-279.24 1060.3,-292.31 1075.5,-310.95 1085.9,-323.7 1082.38,-590.79 1085.5,-606.95 1091.68,-638.98 1104.11,-643.96 1110.5,-675.95 1118.87,-717.83 1101.35,-1026.98 1128.5,-1059.95 1145.7,-1080.83 1176.13,-1087.1 1200.71,-1088.41"/>
<polygon fill="#4a90d9" stroke="#4a90d9" stroke-width="2" points="1200.72,-1090.86 1207.8,-1088.66 1200.89,-1085.96 1200.72,-1090.86"/>
<text text-anchor="middle" x="1098" y="-678.55" font-family="Times-Roman" font-size="8.00" fill="#4a90d9">about</text>
</g>
<!-- L4YAML.Proofs.ParserWfaProofs.parseStream_output_anchors_wellformed&#45;&gt;L4YAML.TokenParser.parseStream -->
<g id="edge4" class="edge">
<title>L4YAML.Proofs.ParserWfaProofs.parseStream_output_anchors_wellformed&#45;&gt;L4YAML.TokenParser.parseStream</title>
<path fill="none" stroke="#4a90d9" stroke-width="2" d="M884.97,-232.84C941.82,-206.08 1044.17,-170.37 1110.5,-219.95 1178.54,-270.79 1223.15,-544.81 1235.51,-629.8"/>
<polygon fill="#4a90d9" stroke="#4a90d9" stroke-width="2" points="1233.09,-630.16 1236.51,-636.74 1237.94,-629.46 1233.09,-630.16"/>
<text text-anchor="middle" x="1098" y="-222.55" font-family="Times-Roman" font-size="8.00" fill="#4a90d9">about</text>
</g>
<!-- L4YAML.Proofs.ParserWfaProofs.parseStream_output_anchors_wellformed&#45;&gt;L4YAML.ScanError -->
<g id="edge7" class="edge">
<title>L4YAML.Proofs.ParserWfaProofs.parseStream_output_anchors_wellformed&#45;&gt;L4YAML.ScanError</title>
<path fill="none" stroke="#4a90d9" stroke-width="2" d="M1017.74,-270.28C1039.96,-279.33 1060.23,-292.37 1075.5,-310.95 1092.38,-331.48 1078.18,-524.4 1085.5,-549.95 1091.7,-571.57 1104.28,-572.33 1110.5,-593.95 1123.17,-637.98 1099.43,-970.53 1128.5,-1005.95 1145.9,-1027.13 1176.91,-1033.28 1201.66,-1034.47"/>
<polygon fill="#4a90d9" stroke="#4a90d9" stroke-width="2" points="1201.72,-1036.93 1208.79,-1034.69 1201.87,-1032.03 1201.72,-1036.93"/>
<text text-anchor="middle" x="1098" y="-596.55" font-family="Times-Roman" font-size="8.00" fill="#4a90d9">about</text>
</g>
<!-- L4YAML.Proofs.ParserWfaProofs.parseStream_output_anchors_wellformed&#45;&gt;L4YAML.YamlDocument -->
<g id="edge1" class="edge">
<title>L4YAML.Proofs.ParserWfaProofs.parseStream_output_anchors_wellformed&#45;&gt;L4YAML.YamlDocument</title>
<path fill="none" stroke="#4a90d9" stroke-width="2" d="M1012.69,-270.65C1036.38,-279.54 1058.43,-292.42 1075.5,-310.95 1095.01,-332.12 1076.51,-347.6 1085.5,-374.95 1093.01,-397.8 1104.29,-399.71 1110.5,-422.95 1122.61,-468.18 1098.81,-807.75 1128.5,-843.95 1143.48,-862.21 1168.57,-869.3 1191.06,-871.67"/>
<polygon fill="#4a90d9" stroke="#4a90d9" stroke-width="2" points="1191.07,-874.13 1198.25,-872.29 1191.48,-869.25 1191.07,-874.13"/>
<text text-anchor="middle" x="1098" y="-425.55" font-family="Times-Roman" font-size="8.00" fill="#4a90d9">about</text>
</g>
<!-- L4YAML.Proofs.ParserWfaProofs.WFA_empty -->
<g id="node18" class="node">
<title>L4YAML.Proofs.ParserWfaProofs.WFA_empty</title>
<g id="a_node18"><a xlink:href="../../../api/L4YAML/Proofs/Parser/ParserWfaProofs.html#L4YAML.Proofs.ParserWfaProofs.WFA_empty" xlink:title="ParserWfaProofs.WFA_empty\n(Parser.ParserWfaProofs)" target="_blank">
<ellipse fill="#d4edda" stroke="#28a745" cx="121.36" cy="-509.95" rx="105.22" ry="21.43"/>
<text text-anchor="middle" x="121.36" y="-512.95" font-family="Helvetica" font-size="10.00">ParserWfaProofs.WFA_empty</text>
<text text-anchor="middle" x="121.36" y="-501.95" font-family="Helvetica" font-size="10.00">(Parser.ParserWfaProofs)</text>
</a>
</g>
</g>
<!-- L4YAML.Proofs.ParserWfaProofs.WFA_empty&#45;&gt;L4YAML.Proofs.ParserGrammable.WellFormedAnchors -->
<g id="edge19" class="edge">
<title>L4YAML.Proofs.ParserWfaProofs.WFA_empty&#45;&gt;L4YAML.Proofs.ParserGrammable.WellFormedAnchors</title>
<path fill="none" stroke="#6f42c1" stroke-width="2" stroke-dasharray="5,2" d="M121.84,-488.52C121.3,-411.38 131.04,-146.68 284.72,-36.95 386.85,35.97 442.94,-18.52 567.08,-36.95 816.75,-74.02 956.39,-2.04 1110.5,-201.95 1143.09,-244.22 1094.76,-640.59 1128.5,-681.95 1132.23,-686.52 1136.59,-690.39 1141.39,-693.66"/>
<polygon fill="#6f42c1" stroke="#6f42c1" stroke-width="2" points="1140.75,-695.32 1145.91,-696.5 1142.61,-692.36 1140.75,-695.32"/>
<text text-anchor="middle" x="588.08" y="-43.35" font-family="Times-Roman" font-size="7.00" fill="#6f42c1">about</text>
</g>
<!-- L4YAML.Proofs.ParserWfaProofs.WFA_empty&#45;&gt;L4YAML.YamlValue -->
<g id="edge20" class="edge">
<title>L4YAML.Proofs.ParserWfaProofs.WFA_empty&#45;&gt;L4YAML.YamlValue</title>
<path fill="none" stroke="#6f42c1" stroke-width="2" stroke-dasharray="5,2" d="M145.26,-530.75C175.14,-556.75 230.07,-600.77 284.72,-624.95 317.34,-639.38 357.51,-647.14 385.75,-651.12"/>
<polygon fill="#6f42c1" stroke="#6f42c1" stroke-width="2" points="385.68,-652.88 390.87,-651.82 386.16,-649.41 385.68,-652.88"/>
<text text-anchor="middle" x="255.72" y="-617.35" font-family="Times-Roman" font-size="7.00" fill="#6f42c1">about</text>
</g>
<!-- L4YAML.Proofs.ParserWfaProofs.WFA_empty&#45;&gt;L4YAML.Proofs.ParserWfaProofs.parseStream_output_anchors_wellformed -->
<g id="edge10" class="edge">
<title>L4YAML.Proofs.ParserWfaProofs.WFA_empty&#45;&gt;L4YAML.Proofs.ParserWfaProofs.parseStream_output_anchors_wellformed</title>
<path fill="none" stroke="#28a745" d="M195.04,-494.74C314.63,-469.05 542.24,-417.12 567.08,-388.95 588.15,-365.04 555.63,-341.52 577.08,-317.95 596.61,-296.48 622.04,-281.69 649.38,-271.61"/>
<polygon fill="#28a745" stroke="#28a745" points="650.21,-273.92 655.99,-269.28 648.58,-269.3 650.21,-273.92"/>
</g>
<!-- L4YAML.Proofs.ParserWfaProofs.parseStreamLoop_wfa -->
<g id="node20" class="node">
<title>L4YAML.Proofs.ParserWfaProofs.parseStreamLoop_wfa</title>
<g id="a_node20"><a xlink:href="../../../api/L4YAML/Proofs/Parser/ParserWfaProofs.html#L4YAML.Proofs.ParserWfaProofs.parseStreamLoop_wfa" xlink:title="ParserWfaProofs.parseStreamLoop_wfa\n(Parser.ParserWfaProofs)" target="_blank">
<ellipse fill="#d4edda" stroke="#28a745" cx="421.9" cy="-509.95" rx="137.36" ry="21.43"/>
<text text-anchor="middle" x="421.9" y="-512.95" font-family="Helvetica" font-size="10.00">ParserWfaProofs.parseStreamLoop_wfa</text>
<text text-anchor="middle" x="421.9" y="-501.95" font-family="Helvetica" font-size="10.00">(Parser.ParserWfaProofs)</text>
</a>
</g>
</g>
<!-- L4YAML.Proofs.ParserWfaProofs.WFA_empty&#45;&gt;L4YAML.Proofs.ParserWfaProofs.parseStreamLoop_wfa -->
<g id="edge40" class="edge">
<title>L4YAML.Proofs.ParserWfaProofs.WFA_empty&#45;&gt;L4YAML.Proofs.ParserWfaProofs.parseStreamLoop_wfa</title>
<path fill="none" stroke="#cccccc" stroke-dasharray="5,2" d="M226.77,-509.95C244.12,-509.95 262.37,-509.95 280.44,-509.95"/>
<polygon fill="#cccccc" stroke="#cccccc" points="280.53,-511.35 284.53,-509.95 280.53,-508.55 280.53,-511.35"/>
</g>
<!-- L4YAML.Proofs.ParserWfaProofs.expect_tokens_wfa -->
<g id="node19" class="node">
<title>L4YAML.Proofs.ParserWfaProofs.expect_tokens_wfa</title>
<g id="a_node19"><a xlink:href="../../../api/L4YAML/Proofs/Parser/ParserWfaProofs.html#L4YAML.Proofs.ParserWfaProofs.expect_tokens_wfa" xlink:title="ParserWfaProofs.expect_tokens_wfa\n(Parser.ParserWfaProofs)" target="_blank">
<ellipse fill="#d4edda" stroke="#28a745" cx="421.9" cy="-569.95" rx="126.64" ry="21.43"/>
<text text-anchor="middle" x="421.9" y="-572.95" font-family="Helvetica" font-size="10.00">ParserWfaProofs.expect_tokens_wfa</text>
<text text-anchor="middle" x="421.9" y="-561.95" font-family="Helvetica" font-size="10.00">(Parser.ParserWfaProofs)</text>
</a>
</g>
</g>
<!-- L4YAML.Proofs.ParserWfaProofs.expect_tokens_wfa&#45;&gt;L4YAML.TokenParser.ParseState -->
<g id="edge26" class="edge">
<title>L4YAML.Proofs.ParserWfaProofs.expect_tokens_wfa&#45;&gt;L4YAML.TokenParser.ParseState</title>
<path fill="none" stroke="#6f42c1" stroke-width="2" stroke-dasharray="5,2" d="M510.41,-585.23C532.36,-593.37 553.5,-605.84 567.08,-624.95 589.28,-656.21 562.93,-934.3 577.08,-969.95 584.97,-989.85 590.09,-996.06 609.08,-1005.95 660.31,-1032.62 726.34,-1037.98 774.89,-1037.48"/>
<polygon fill="#6f42c1" stroke="#6f42c1" stroke-width="2" points="775.15,-1039.23 780.12,-1037.41 775.1,-1035.73 775.15,-1039.23"/>
<text text-anchor="middle" x="588.08" y="-1001.35" font-family="Times-Roman" font-size="7.00" fill="#6f42c1">about</text>
</g>
<!-- L4YAML.Proofs.ParserWfaProofs.expect_tokens_wfa&#45;&gt;L4YAML.TokenParser.ParseState.expect -->
<g id="edge21" class="edge">
<title>L4YAML.Proofs.ParserWfaProofs.expect_tokens_wfa&#45;&gt;L4YAML.TokenParser.ParseState.expect</title>
<path fill="none" stroke="#6f42c1" stroke-width="2" stroke-dasharray="5,2" d="M510.45,-585.2C532.4,-593.34 553.53,-605.82 567.08,-624.95 579.47,-642.46 570.69,-990.47 577.08,-1010.95 584.82,-1035.78 586.96,-1046.27 609.08,-1059.95 653.45,-1087.4 711.82,-1094.09 758.94,-1093.95"/>
<polygon fill="#6f42c1" stroke="#6f42c1" stroke-width="2" points="759.06,-1095.7 764.04,-1093.9 759.03,-1092.2 759.06,-1095.7"/>
<text text-anchor="middle" x="588.08" y="-1054.35" font-family="Times-Roman" font-size="7.00" fill="#6f42c1">about</text>
</g>
<!-- L4YAML.Proofs.ParserWfaProofs.expect_tokens_wfa&#45;&gt;L4YAML.Positioned -->
<g id="edge22" class="edge">
<title>L4YAML.Proofs.ParserWfaProofs.expect_tokens_wfa&#45;&gt;L4YAML.Positioned</title>
<path fill="none" stroke="#6f42c1" stroke-width="2" stroke-dasharray="5,2" d="M483.13,-588.6C511.39,-596.67 545.69,-605.5 577.08,-610.95 635.68,-621.13 1068.94,-613.4 1110.5,-655.95 1156.55,-703.09 1086.25,-901.37 1128.5,-951.95 1146.53,-973.53 1178.68,-979.46 1203.67,-980.47"/>
<polygon fill="#6f42c1" stroke="#6f42c1" stroke-width="2" points="1203.84,-982.22 1208.89,-980.61 1203.94,-978.72 1203.84,-982.22"/>
<text text-anchor="middle" x="842.29" y="-643.35" font-family="Times-Roman" font-size="7.00" fill="#6f42c1">about</text>
</g>
<!-- L4YAML.Proofs.ParserWfaProofs.expect_tokens_wfa&#45;&gt;L4YAML.YamlToken -->
<g id="edge23" class="edge">
<title>L4YAML.Proofs.ParserWfaProofs.expect_tokens_wfa&#45;&gt;L4YAML.YamlToken</title>
<path fill="none" stroke="#6f42c1" stroke-width="2" stroke-dasharray="5,2" d="M509.83,-585.23C531.91,-593.37 553.26,-605.84 567.08,-624.95 581.41,-644.78 559.38,-828.04 577.08,-844.95 584.14,-851.7 591.64,-851.3 599.08,-844.95 620.64,-826.54 587.51,-800.36 609.08,-781.95 648.49,-748.3 1035.57,-748.91 1075.5,-781.95 1172.41,-862.13 1041.87,-968.76 1128.5,-1059.95 1147.42,-1079.87 1178.41,-1086.11 1202.76,-1087.66"/>
<polygon fill="#6f42c1" stroke="#6f42c1" stroke-width="2" points="1202.77,-1089.41 1207.85,-1087.92 1202.95,-1085.92 1202.77,-1089.41"/>
<text text-anchor="middle" x="842.29" y="-784.35" font-family="Times-Roman" font-size="7.00" fill="#6f42c1">about</text>
</g>
<!-- L4YAML.Proofs.ParserWfaProofs.expect_tokens_wfa&#45;&gt;L4YAML.ScanError -->
<g id="edge24" class="edge">
<title>L4YAML.Proofs.ParserWfaProofs.expect_tokens_wfa&#45;&gt;L4YAML.ScanError</title>
<path fill="none" stroke="#6f42c1" stroke-width="2" stroke-dasharray="5,2" d="M507.56,-585.69C530.01,-593.84 552.13,-606.2 567.08,-624.95 586.94,-649.86 554.03,-673.94 577.08,-695.95 663.39,-778.39 1042.38,-660.93 1110.5,-758.95 1141.91,-804.14 1092.97,-963.93 1128.5,-1005.95 1146.6,-1027.35 1178.59,-1033.32 1203.5,-1034.39"/>
<polygon fill="#6f42c1" stroke="#6f42c1" stroke-width="2" points="1203.66,-1036.15 1208.71,-1034.55 1203.76,-1032.65 1203.66,-1036.15"/>
<text text-anchor="middle" x="842.29" y="-733.35" font-family="Times-Roman" font-size="7.00" fill="#6f42c1">about</text>
</g>
<!-- L4YAML.Proofs.ParserWfaProofs.expect_tokens_wfa&#45;&gt;L4YAML.TokenParser.ParseState.tokens -->
<g id="edge25" class="edge">
<title>L4YAML.Proofs.ParserWfaProofs.expect_tokens_wfa&#45;&gt;L4YAML.TokenParser.ParseState.tokens</title>
<path fill="none" stroke="#6f42c1" stroke-width="2" stroke-dasharray="5,2" d="M510.37,-585.26C532.32,-593.4 553.47,-605.86 567.08,-624.95 586.89,-652.74 560.05,-902.37 577.08,-931.95 611.67,-992.04 695.33,-998.15 759.32,-992.73"/>
<polygon fill="#6f42c1" stroke="#6f42c1" stroke-width="2" points="759.84,-994.44 764.67,-992.25 759.53,-990.95 759.84,-994.44"/>
<text text-anchor="middle" x="588.08" y="-960.35" font-family="Times-Roman" font-size="7.00" fill="#6f42c1">about</text>
</g>
<!-- L4YAML.Proofs.ParserWfaProofs.expect_tokens_wfa&#45;&gt;L4YAML.Proofs.ParserWfaProofs.parseStream_output_anchors_wellformed -->
<g id="edge11" class="edge">
<title>L4YAML.Proofs.ParserWfaProofs.expect_tokens_wfa&#45;&gt;L4YAML.Proofs.ParserWfaProofs.parseStream_output_anchors_wellformed</title>
<path fill="none" stroke="#28a745" d="M535.73,-560.56C547.42,-555.68 558.23,-549 567.08,-539.95 576.11,-530.7 600.19,-320.34 609.08,-310.95 624.96,-294.16 644.94,-282.03 666.47,-273.32"/>
<polygon fill="#28a745" stroke="#28a745" points="667.55,-275.53 673.2,-270.73 665.78,-270.96 667.55,-275.53"/>
</g>
<!-- L4YAML.Proofs.ParserWfaProofs.parseStreamLoop_wfa&#45;&gt;L4YAML.YamlDocument.anchors -->
<g id="edge31" class="edge">
<title>L4YAML.Proofs.ParserWfaProofs.parseStreamLoop_wfa&#45;&gt;L4YAML.YamlDocument.anchors</title>
<path fill="none" stroke="#6f42c1" stroke-width="2" stroke-dasharray="5,2" d="M552.16,-503.28C714.25,-496.51 982.21,-491.06 1075.5,-522.95 1093.84,-529.22 1101.35,-531.87 1110.5,-548.95 1128.84,-583.18 1103.75,-868.04 1128.5,-897.95 1139.9,-911.72 1157.04,-919.12 1174.45,-922.95"/>
<polygon fill="#6f42c1" stroke="#6f42c1" stroke-width="2" points="1174.12,-924.67 1179.36,-923.93 1174.8,-921.24 1174.12,-924.67"/>
<text text-anchor="middle" x="842.29" y="-525.35" font-family="Times-Roman" font-size="7.00" fill="#6f42c1">about</text>
</g>
<!-- L4YAML.Proofs.ParserWfaProofs.parseStreamLoop_wfa&#45;&gt;L4YAML.TokenParser.parseStreamLoop -->
<g id="edge27" class="edge">
<title>L4YAML.Proofs.ParserWfaProofs.parseStreamLoop_wfa&#45;&gt;L4YAML.TokenParser.parseStreamLoop</title>
<path fill="none" stroke="#6f42c1" stroke-width="2" stroke-dasharray="5,2" d="M541.81,-520.45C551.38,-525.3 560.05,-531.66 567.08,-539.95 584.55,-560.56 566.76,-757.97 577.08,-782.95 582.6,-796.32 593.1,-793.77 599.08,-806.95 607.48,-825.48 594.74,-883.52 609.08,-897.95 647.8,-936.92 710.49,-942.23 760.98,-938.58"/>
<polygon fill="#6f42c1" stroke="#6f42c1" stroke-width="2" points="761.29,-940.31 766.13,-938.17 761.01,-936.82 761.29,-940.31"/>
<text text-anchor="middle" x="588.08" y="-809.35" font-family="Times-Roman" font-size="7.00" fill="#6f42c1">about</text>
</g>
<!-- L4YAML.Proofs.ParserWfaProofs.parseStreamLoop_wfa&#45;&gt;L4YAML.TokenParser.ParseState -->
<g id="edge39" class="edge">
<title>L4YAML.Proofs.ParserWfaProofs.parseStreamLoop_wfa&#45;&gt;L4YAML.TokenParser.ParseState</title>
<path fill="none" stroke="#6f42c1" stroke-width="2" stroke-dasharray="5,2" d="M541.92,-520.36C551.47,-525.22 560.1,-531.62 567.08,-539.95 579.84,-555.21 569.6,-879.51 577.08,-897.95 582.51,-911.36 593.04,-908.8 599.08,-921.95 606.92,-939.03 595.76,-992.67 609.08,-1005.95 651.67,-1048.43 722.78,-1050.77 775.11,-1045.21"/>
<polygon fill="#6f42c1" stroke="#6f42c1" stroke-width="2" points="775.35,-1046.95 780.12,-1044.65 774.95,-1043.47 775.35,-1046.95"/>
<text text-anchor="middle" x="588.08" y="-924.35" font-family="Times-Roman" font-size="7.00" fill="#6f42c1">about</text>
</g>
<!-- L4YAML.Proofs.ParserWfaProofs.parseStreamLoop_wfa&#45;&gt;L4YAML.TokenParser.ParseState.anchors -->
<g id="edge35" class="edge">
<title>L4YAML.Proofs.ParserWfaProofs.parseStreamLoop_wfa&#45;&gt;L4YAML.TokenParser.ParseState.anchors</title>
<path fill="none" stroke="#6f42c1" stroke-width="2" stroke-dasharray="5,2" d="M541.76,-520.5C551.34,-525.34 560.02,-531.68 567.08,-539.95 582.38,-557.89 568.01,-730.18 577.08,-751.95 582.64,-765.31 592.86,-762.88 599.08,-775.95 612.2,-803.53 587.15,-822.68 609.08,-843.95 647.09,-880.84 706.71,-887.13 756.01,-884.43"/>
<polygon fill="#6f42c1" stroke="#6f42c1" stroke-width="2" points="756.17,-886.18 761.05,-884.13 755.96,-882.68 756.17,-886.18"/>
<text text-anchor="middle" x="588.08" y="-778.35" font-family="Times-Roman" font-size="7.00" fill="#6f42c1">about</text>
</g>
<!-- L4YAML.Proofs.ParserWfaProofs.parseStreamLoop_wfa&#45;&gt;L4YAML.Proofs.ScannerPlainScalarValid.FlowBracketsMatched -->
<g id="edge34" class="edge">
<title>L4YAML.Proofs.ParserWfaProofs.parseStreamLoop_wfa&#45;&gt;L4YAML.Proofs.ScannerPlainScalarValid.FlowBracketsMatched</title>
<path fill="none" stroke="#6f42c1" stroke-width="2" stroke-dasharray="5,2" d="M459.31,-489.4C489.36,-471.76 532.54,-444.83 567.08,-416.95 571.97,-413 571.98,-410.62 577.08,-406.95 589.97,-397.65 593.65,-394.81 609.08,-390.95 663.14,-377.41 1070.12,-339.54 1110.5,-377.95 1139.36,-405.4 1103.13,-705.25 1128.5,-735.95 1130.15,-737.94 1131.91,-739.79 1133.78,-741.52"/>
<polygon fill="#6f42c1" stroke="#6f42c1" stroke-width="2" points="1132.81,-743 1137.75,-744.91 1135.08,-740.33 1132.81,-743"/>
<text text-anchor="middle" x="842.29" y="-393.35" font-family="Times-Roman" font-size="7.00" fill="#6f42c1">about</text>
</g>
<!-- L4YAML.Proofs.ParserWfaProofs.parseStreamLoop_wfa&#45;&gt;L4YAML.Proofs.ScannerPlainScalarValid.FlowAwarePSV -->
<g id="edge38" class="edge">
<title>L4YAML.Proofs.ParserWfaProofs.parseStreamLoop_wfa&#45;&gt;L4YAML.Proofs.ScannerPlainScalarValid.FlowAwarePSV</title>
<path fill="none" stroke="#6f42c1" stroke-width="2" stroke-dasharray="5,2" d="M461.15,-489.47C497.88,-471.05 555.54,-445.33 609.08,-434.95 663.77,-424.35 1070.12,-396.56 1110.5,-434.95 1139.13,-462.16 1103.34,-759.51 1128.5,-789.95 1131.49,-793.56 1134.87,-796.73 1138.54,-799.52"/>
<polygon fill="#6f42c1" stroke="#6f42c1" stroke-width="2" points="1137.89,-801.19 1142.99,-802.61 1139.89,-798.32 1137.89,-801.19"/>
<text text-anchor="middle" x="842.29" y="-437.35" font-family="Times-Roman" font-size="7.00" fill="#6f42c1">about</text>
</g>
<!-- L4YAML.Proofs.ParserWfaProofs.parseStreamLoop_wfa&#45;&gt;L4YAML.Proofs.ParserGrammable.WellFormedAnchors -->
<g id="edge29" class="edge">
<title>L4YAML.Proofs.ParserWfaProofs.parseStreamLoop_wfa&#45;&gt;L4YAML.Proofs.ParserGrammable.WellFormedAnchors</title>
<path fill="none" stroke="#6f42c1" stroke-width="2" stroke-dasharray="5,2" d="M472.47,-490.18C504.37,-474.9 544.05,-450.64 567.08,-416.95 579.62,-398.6 564.6,-386.35 577.08,-367.95 586.62,-353.87 592.91,-352.26 609.08,-346.95 635.57,-338.24 1090.29,-301.72 1110.5,-320.95 1139.6,-348.63 1102.92,-650.99 1128.5,-681.95 1132.26,-686.5 1136.64,-690.35 1141.45,-693.61"/>
<polygon fill="#6f42c1" stroke="#6f42c1" stroke-width="2" points="1140.82,-695.28 1145.99,-696.44 1142.67,-692.31 1140.82,-695.28"/>
<text text-anchor="middle" x="842.29" y="-349.35" font-family="Times-Roman" font-size="7.00" fill="#6f42c1">about</text>
</g>
<!-- L4YAML.Proofs.ParserWfaProofs.parseStreamLoop_wfa&#45;&gt;L4YAML.Positioned -->
<g id="edge30" class="edge">
<title>L4YAML.Proofs.ParserWfaProofs.parseStreamLoop_wfa&#45;&gt;L4YAML.Positioned</title>
<path fill="none" stroke="#6f42c1" stroke-width="2" stroke-dasharray="5,2" d="M531.12,-522.81C556.67,-525.66 583.82,-528.55 609.08,-530.95 664.74,-536.24 1074.03,-531.56 1110.5,-573.95 1137.93,-605.82 1101.76,-919.5 1128.5,-951.95 1146.39,-973.65 1178.56,-979.56 1203.59,-980.54"/>
<polygon fill="#6f42c1" stroke="#6f42c1" stroke-width="2" points="1203.77,-982.29 1208.82,-980.67 1203.86,-978.79 1203.77,-982.29"/>
<text text-anchor="middle" x="842.29" y="-560.35" font-family="Times-Roman" font-size="7.00" fill="#6f42c1">about</text>
</g>
<!-- L4YAML.Proofs.ParserWfaProofs.parseStreamLoop_wfa&#45;&gt;L4YAML.YamlToken -->
<g id="edge32" class="edge">
<title>L4YAML.Proofs.ParserWfaProofs.parseStreamLoop_wfa&#45;&gt;L4YAML.YamlToken</title>
<path fill="none" stroke="#6f42c1" stroke-width="2" stroke-dasharray="5,2" d="M536.96,-521.7C547.94,-526.23 558.25,-532.18 567.08,-539.95 577.31,-548.96 572.43,-556.13 577.08,-568.95 590.7,-606.5 577.44,-628.56 609.08,-652.95 774.19,-780.25 908.71,-577.86 1075.5,-702.95 1108.19,-727.46 1101.25,-748.15 1110.5,-787.95 1117.36,-817.45 1109.02,-1036.76 1128.5,-1059.95 1146.35,-1081.2 1177.89,-1087.25 1202.72,-1088.4"/>
<polygon fill="#6f42c1" stroke="#6f42c1" stroke-width="2" points="1202.85,-1090.15 1207.91,-1088.57 1202.97,-1086.65 1202.85,-1090.15"/>
<text text-anchor="middle" x="842.29" y="-705.35" font-family="Times-Roman" font-size="7.00" fill="#6f42c1">about</text>
</g>
<!-- L4YAML.Proofs.ParserWfaProofs.parseStreamLoop_wfa&#45;&gt;L4YAML.ScanError -->
<g id="edge33" class="edge">
<title>L4YAML.Proofs.ParserWfaProofs.parseStreamLoop_wfa&#45;&gt;L4YAML.ScanError</title>
<path fill="none" stroke="#6f42c1" stroke-width="2" stroke-dasharray="5,2" d="M521.17,-524.67C536.87,-528.63 552.67,-533.64 567.08,-539.95 588.09,-549.15 587.47,-562.23 609.08,-569.95 804.71,-639.88 883.15,-522.44 1075.5,-600.95 1094.47,-608.69 1101.5,-612.55 1110.5,-630.95 1128.84,-668.42 1101.96,-973.77 1128.5,-1005.95 1146.39,-1027.64 1178.56,-1033.56 1203.59,-1034.53"/>
<polygon fill="#6f42c1" stroke="#6f42c1" stroke-width="2" points="1203.77,-1036.29 1208.82,-1034.67 1203.87,-1032.79 1203.77,-1036.29"/>
<text text-anchor="middle" x="842.29" y="-603.35" font-family="Times-Roman" font-size="7.00" fill="#6f42c1">about</text>
</g>
<!-- L4YAML.Proofs.ParserWfaProofs.parseStreamLoop_wfa&#45;&gt;L4YAML.TokenParser.ParseState.tokens -->
<g id="edge36" class="edge">
<title>L4YAML.Proofs.ParserWfaProofs.parseStreamLoop_wfa&#45;&gt;L4YAML.TokenParser.ParseState.tokens</title>
<path fill="none" stroke="#6f42c1" stroke-width="2" stroke-dasharray="5,2" d="M541.85,-520.42C551.41,-525.27 560.07,-531.65 567.08,-539.95 576.9,-551.59 574.66,-798.91 577.08,-813.95 582.65,-848.67 591.37,-855.64 599.08,-889.95 602.13,-903.57 598.99,-942.3 609.08,-951.95 648.2,-989.38 709.62,-995.13 759.46,-992.06"/>
<polygon fill="#6f42c1" stroke="#6f42c1" stroke-width="2" points="759.69,-993.79 764.56,-991.71 759.45,-990.3 759.69,-993.79"/>
<text text-anchor="middle" x="588.08" y="-892.35" font-family="Times-Roman" font-size="7.00" fill="#6f42c1">about</text>
</g>
<!-- L4YAML.Proofs.ParserWfaProofs.parseStreamLoop_wfa&#45;&gt;L4YAML.TokenParser.StreamState -->
<g id="edge37" class="edge">
<title>L4YAML.Proofs.ParserWfaProofs.parseStreamLoop_wfa&#45;&gt;L4YAML.TokenParser.StreamState</title>
<path fill="none" stroke="#6f42c1" stroke-width="2" stroke-dasharray="5,2" d="M541.28,-520.44C551.02,-525.28 559.87,-531.64 567.08,-539.95 578.67,-553.32 572.62,-681.82 577.08,-698.95 582.78,-720.88 591.4,-723.63 599.08,-744.95 605.28,-762.19 595.44,-772.71 609.08,-784.95 652.85,-824.24 721.22,-829.36 772.45,-826.38"/>
<polygon fill="#6f42c1" stroke="#6f42c1" stroke-width="2" points="772.79,-828.11 777.67,-826.04 772.57,-824.61 772.79,-828.11"/>
<text text-anchor="middle" x="588.08" y="-747.35" font-family="Times-Roman" font-size="7.00" fill="#6f42c1">about</text>
</g>
<!-- L4YAML.Proofs.ParserWfaProofs.parseStreamLoop_wfa&#45;&gt;L4YAML.YamlDocument -->
<g id="edge28" class="edge">
<title>L4YAML.Proofs.ParserWfaProofs.parseStreamLoop_wfa&#45;&gt;L4YAML.YamlDocument</title>
<path fill="none" stroke="#6f42c1" stroke-width="2" stroke-dasharray="5,2" d="M505.94,-493.11C538.02,-487.4 575.11,-481.76 609.08,-478.95 720.16,-469.76 1044.55,-402.09 1110.5,-491.95 1156.84,-555.09 1078.58,-783.6 1128.5,-843.95 1144.01,-862.69 1170.18,-869.65 1193.16,-871.82"/>
<polygon fill="#6f42c1" stroke="#6f42c1" stroke-width="2" points="1193.19,-873.58 1198.31,-872.24 1193.47,-870.09 1193.19,-873.58"/>
<text text-anchor="middle" x="842.29" y="-481.35" font-family="Times-Roman" font-size="7.00" fill="#6f42c1">about</text>
</g>
<!-- L4YAML.Proofs.ParserWfaProofs.parseStreamLoop_wfa&#45;&gt;L4YAML.Proofs.ParserWfaProofs.parseStream_output_anchors_wellformed -->
<g id="edge12" class="edge">
<title>L4YAML.Proofs.ParserWfaProofs.parseStreamLoop_wfa&#45;&gt;L4YAML.Proofs.ParserWfaProofs.parseStream_output_anchors_wellformed</title>
<path fill="none" stroke="#28a745" d="M474.27,-490.17C506.3,-475.07 545.43,-451.01 567.08,-416.95 584.88,-388.94 562.35,-372.69 577.08,-342.95 586,-324.93 591.53,-320.79 609.08,-310.95 637.53,-295 670.42,-283.56 702.33,-275.37"/>
<polygon fill="#28a745" stroke="#28a745" points="702.93,-277.75 709.12,-273.67 701.74,-272.99 702.93,-277.75"/>
</g>
<!-- Except.ok.injEq -->
<g id="node21" class="node">
<title>Except.ok.injEq</title>
<g id="a_node21"><a xlink:href="../../../api/Init/Core.html#Except.ok.injEq" xlink:title="Except.ok.injEq" target="_blank">
<ellipse fill="#fdebd0" stroke="#e67e22" cx="421.9" cy="-174.95" rx="49.4" ry="18"/>
<text text-anchor="middle" x="421.9" y="-172.45" font-family="Helvetica" font-size="10.00">Except.ok.injEq</text>
</a>
</g>
</g>
<!-- Except.ok.injEq&#45;&gt;L4YAML.Proofs.ParserWfaProofs.parseStream_output_anchors_wellformed -->
<g id="edge13" class="edge">
<title>Except.ok.injEq&#45;&gt;L4YAML.Proofs.ParserWfaProofs.parseStream_output_anchors_wellformed</title>
<path fill="none" stroke="#e67e22" stroke-width="2" d="M466.44,-183.04C495.05,-188.37 533.3,-195.52 567.08,-201.95 619.85,-211.99 678.3,-223.27 727.63,-232.83"/>
<polygon fill="#e67e22" stroke="#e67e22" stroke-width="2" points="727.19,-235.24 734.53,-234.17 728.13,-230.43 727.19,-235.24"/>
</g>
<!-- List.not_mem_nil._simp_1 -->
<g id="node22" class="node">
<title>List.not_mem_nil._simp_1</title>
<g id="a_node22"><a xlink:href="../../../api/Init/Data/List/Lemmas.html#List.not_mem_nil._simp_1" xlink:title="List.not_mem_nil._simp_1" target="_blank">
<ellipse fill="#fdebd0" stroke="#e67e22" cx="421.9" cy="-120.95" rx="76.55" ry="18"/>
<text text-anchor="middle" x="421.9" y="-118.45" font-family="Helvetica" font-size="10.00">List.not_mem_nil._simp_1</text>
</a>
</g>
</g>
<!-- List.not_mem_nil._simp_1&#45;&gt;L4YAML.Proofs.ParserWfaProofs.parseStream_output_anchors_wellformed -->
<g id="edge14" class="edge">
<title>List.not_mem_nil._simp_1&#45;&gt;L4YAML.Proofs.ParserWfaProofs.parseStream_output_anchors_wellformed</title>
<path fill="none" stroke="#e67e22" stroke-width="2" d="M487.37,-130.37C512.49,-134.73 541.37,-140.6 567.08,-147.95 644.98,-170.23 731.57,-205.96 786.2,-229.93"/>
<polygon fill="#e67e22" stroke="#e67e22" stroke-width="2" points="785.31,-232.21 792.71,-232.79 787.29,-227.73 785.31,-232.21"/>
</g>
<!-- eq_self -->
<g id="node23" class="node">
<title>eq_self</title>
<g id="a_node23"><a xlink:href="../../../api/Init/SimpLemmas.html#eq_self" xlink:title="eq_self" target="_blank">
<ellipse fill="#fdebd0" stroke="#e67e22" cx="421.9" cy="-66.95" rx="28.01" ry="18"/>
<text text-anchor="middle" x="421.9" y="-64.45" font-family="Helvetica" font-size="10.00">eq_self</text>
</a>
</g>
</g>
<!-- eq_self&#45;&gt;L4YAML.Proofs.ParserWfaProofs.parseStream_output_anchors_wellformed -->
<g id="edge15" class="edge">
<title>eq_self&#45;&gt;L4YAML.Proofs.ParserWfaProofs.parseStream_output_anchors_wellformed</title>
<path fill="none" stroke="#e67e22" stroke-width="2" d="M449.95,-69.21C479.5,-72.31 527.84,-79.27 567.08,-93.95 658.99,-128.34 755.48,-192.61 805.87,-228.67"/>
<polygon fill="#e67e22" stroke="#e67e22" stroke-width="2" points="804.67,-230.83 811.78,-232.92 807.53,-226.85 804.67,-230.83"/>
</g>
<!-- of_eq_true -->
<g id="node24" class="node">
<title>of_eq_true</title>
<g id="a_node24"><a xlink:href="../../../api/Init/SimpLemmas.html#of_eq_true" xlink:title="of_eq_true" target="_blank">
<ellipse fill="#fdebd0" stroke="#e67e22" cx="421.9" cy="-336.95" rx="36.49" ry="18"/>
<text text-anchor="middle" x="421.9" y="-334.45" font-family="Helvetica" font-size="10.00">of_eq_true</text>
</a>
</g>
</g>
<!-- of_eq_true&#45;&gt;L4YAML.Proofs.ParserWfaProofs.parseStream_output_anchors_wellformed -->
<g id="edge16" class="edge">
<title>of_eq_true&#45;&gt;L4YAML.Proofs.ParserWfaProofs.parseStream_output_anchors_wellformed</title>
<path fill="none" stroke="#e67e22" stroke-width="2" d="M458.34,-338.23C489.62,-337.64 535.08,-332.41 567.08,-309.95 574.25,-304.91 569.8,-297.83 577.08,-292.95 591.51,-283.26 607.4,-275.6 623.99,-269.57"/>
<polygon fill="#e67e22" stroke="#e67e22" stroke-width="2" points="624.83,-271.87 630.63,-267.26 623.21,-267.25 624.83,-271.87"/>
</g>
<!-- Nat.zero_add -->
<g id="node25" class="node">
<title>Nat.zero_add</title>
<g id="a_node25"><a xlink:href="../../../api/Init/Data/Nat/Basic.html#Nat.zero_add" xlink:title="Nat.zero_add" target="_blank">
<ellipse fill="#fdebd0" stroke="#e67e22" cx="421.9" cy="-282.95" rx="43.62" ry="18"/>
<text text-anchor="middle" x="421.9" y="-280.45" font-family="Helvetica" font-size="10.00">Nat.zero_add</text>
</a>
</g>
</g>
<!-- Nat.zero_add&#45;&gt;L4YAML.Proofs.ParserWfaProofs.parseStream_output_anchors_wellformed -->
<g id="edge17" class="edge">
<title>Nat.zero_add&#45;&gt;L4YAML.Proofs.ParserWfaProofs.parseStream_output_anchors_wellformed</title>
<path fill="none" stroke="#e67e22" stroke-width="2" d="M464.08,-278.4C495.11,-275.11 538.72,-270.76 577.08,-267.95 587.69,-267.17 598.55,-266.43 609.52,-265.72"/>
<polygon fill="#e67e22" stroke="#e67e22" stroke-width="2" points="609.91,-268.15 616.74,-265.26 609.6,-263.26 609.91,-268.15"/>
</g>
<!-- eq_false&#39; -->
<g id="node26" class="node">
<title>eq_false&#39;</title>
<g id="a_node26"><a xlink:href="../../../api/Init/SimpLemmas.html#eq_false&#39;" xlink:title="eq_false&#39;" target="_blank">
<ellipse fill="#fdebd0" stroke="#e67e22" cx="421.9" cy="-228.95" rx="32.93" ry="18"/>
<text text-anchor="middle" x="421.9" y="-226.45" font-family="Helvetica" font-size="10.00">eq_false&#39;</text>
</a>
</g>
</g>
<!-- eq_false&#39;&#45;&gt;L4YAML.Proofs.ParserWfaProofs.parseStream_output_anchors_wellformed -->
<g id="edge18" class="edge">
<title>eq_false&#39;&#45;&gt;L4YAML.Proofs.ParserWfaProofs.parseStream_output_anchors_wellformed</title>
<path fill="none" stroke="#e67e22" stroke-width="2" d="M454.69,-230.92C493.04,-233.31 560.9,-237.53 629.18,-241.77"/>
<polygon fill="#e67e22" stroke="#e67e22" stroke-width="2" points="629.07,-244.22 636.21,-242.21 629.38,-239.33 629.07,-244.22"/>
</g>
</g>
</svg>
