<?xml version="1.0" encoding="UTF-8" standalone="no"?>
<!DOCTYPE svg PUBLIC "-//W3C//DTD SVG 1.1//EN"
 "http://www.w3.org/Graphics/SVG/1.1/DTD/svg11.dtd">
<!-- Generated by graphviz version 2.44.0 (0)
 -->
<!-- Title: chain_ScalarCoupling.scanBlockScalar_corr Pages: 1 -->
<svg width="2606pt" height="553pt"
 viewBox="0.00 0.00 2606.00 553.00" xmlns="http://www.w3.org/2000/svg" xmlns:xlink="http://www.w3.org/1999/xlink">
<g id="graph0" class="graph" transform="scale(1 1) rotate(0) translate(4 549)">
<title>chain_ScalarCoupling.scanBlockScalar_corr</title>
<polygon fill="white" stroke="transparent" points="-4,4 -4,-549 2602,-549 2602,4 -4,4"/>
<text text-anchor="middle" x="1299" y="-530.6" font-family="Helvetica Bold" font-size="13.00">Functorial Chains: ScalarCoupling.scanBlockScalar_corr\n8.4 Scalar scanners match surface&#45;syntax predicates (bundle representative)</text>
<g id="clust1" class="cluster">
<title>cluster_fns</title>
<polygon fill="none" stroke="#4a90d9" stroke-dasharray="5,2" points="1995,-8 1995,-406 2590,-406 2590,-8 1995,-8"/>
<text text-anchor="middle" x="2292.5" y="-391.6" font-family="Helvetica Bold" font-size="13.00" fill="#4a90d9">Functions (Call Chain)</text>
</g>
<g id="clust2" class="cluster">
<title>cluster_thms</title>
<polygon fill="none" stroke="#28a745" stroke-dasharray="5,2" points="8,-89 8,-515 1987,-515 1987,-89 8,-89"/>
<text text-anchor="middle" x="997.5" y="-500.6" font-family="Helvetica Bold" font-size="13.00" fill="#28a745">Theorems (Proof Chain)</text>
</g>
<!-- L4YAML.Scanner.consumeNewline -->
<g id="node1" class="node">
<title>L4YAML.Scanner.consumeNewline</title>
<g id="a_node1"><a xlink:href="../../../api/L4YAML/Scanner/Whitespace.html#L4YAML.Scanner.consumeNewline" xlink:title="consumeNewline" target="_blank">
<polygon fill="#dce9f7" stroke="#4a90d9" points="2259,-214 2167,-214 2167,-178 2259,-178 2259,-214"/>
<text text-anchor="middle" x="2213" y="-193.5" font-family="Helvetica" font-size="10.00">consumeNewline</text>
</a>
</g>
</g>
<!-- L4YAML.Scanner.ScannerState.offset -->
<g id="node4" class="node">
<title>L4YAML.Scanner.ScannerState.offset</title>
<g id="a_node4"><a xlink:href="../../../api/L4YAML/Scanner/State.html#L4YAML.Scanner.ScannerState.offset" xlink:title="ScannerState.offset" target="_blank">
<polygon fill="#dce9f7" stroke="#4a90d9" points="2581.5,-133 2478.5,-133 2478.5,-97 2581.5,-97 2581.5,-133"/>
<text text-anchor="middle" x="2530" y="-112.5" font-family="Helvetica" font-size="10.00">ScannerState.offset</text>
</a>
</g>
</g>
<!-- L4YAML.Scanner.consumeNewline&#45;&gt;L4YAML.Scanner.ScannerState.offset -->
<g id="edge21" class="edge">
<title>L4YAML.Scanner.consumeNewline&#45;&gt;L4YAML.Scanner.ScannerState.offset</title>
<path fill="none" stroke="#4a90d9" stroke-width="2" d="M2259.37,-184.27C2310.74,-172.27 2395.98,-152.01 2469,-133 2469.87,-132.77 2470.74,-132.55 2471.62,-132.31"/>
<polygon fill="#4a90d9" stroke="#4a90d9" stroke-width="2" points="2472.31,-134.67 2478.45,-130.5 2471.05,-129.93 2472.31,-134.67"/>
<text text-anchor="middle" x="2400.5" y="-153.6" font-family="Times-Roman" font-size="8.00">calls</text>
</g>
<!-- L4YAML.Scanner.ScannerState.simpleKeyStack -->
<g id="node5" class="node">
<title>L4YAML.Scanner.ScannerState.simpleKeyStack</title>
<g id="a_node5"><a xlink:href="../../../api/L4YAML/Scanner/State.html#L4YAML.Scanner.ScannerState.simpleKeyStack" xlink:title="ScannerState.simpleKeyStack" target="_blank">
<polygon fill="#dce9f7" stroke="#4a90d9" points="2287.5,-133 2138.5,-133 2138.5,-97 2287.5,-97 2287.5,-133"/>
<text text-anchor="middle" x="2213" y="-112.5" font-family="Helvetica" font-size="10.00">ScannerState.simpleKeyStack</text>
</a>
</g>
</g>
<!-- L4YAML.Scanner.consumeNewline&#45;&gt;L4YAML.Scanner.ScannerState.simpleKeyStack -->
<g id="edge8" class="edge">
<title>L4YAML.Scanner.consumeNewline&#45;&gt;L4YAML.Scanner.ScannerState.simpleKeyStack</title>
<path fill="none" stroke="#4a90d9" stroke-width="2" d="M2213,-177.86C2213,-166.88 2213,-152.48 2213,-140.33"/>
<polygon fill="#4a90d9" stroke="#4a90d9" stroke-width="2" points="2215.45,-140.11 2213,-133.11 2210.55,-140.11 2215.45,-140.11"/>
<text text-anchor="middle" x="2222.5" y="-153.6" font-family="Times-Roman" font-size="8.00">calls</text>
</g>
<!-- L4YAML.Scanner.ScannerState.directivesPresent -->
<g id="node9" class="node">
<title>L4YAML.Scanner.ScannerState.directivesPresent</title>
<g id="a_node9"><a xlink:href="../../../api/L4YAML/Scanner/State.html#L4YAML.Scanner.ScannerState.directivesPresent" xlink:title="ScannerState.directivesPresent" target="_blank">
<polygon fill="#dce9f7" stroke="#4a90d9" points="2460,-133 2306,-133 2306,-97 2460,-97 2460,-133"/>
<text text-anchor="middle" x="2383" y="-112.5" font-family="Helvetica" font-size="10.00">ScannerState.directivesPresent</text>
</a>
</g>
</g>
<!-- L4YAML.Scanner.consumeNewline&#45;&gt;L4YAML.Scanner.ScannerState.directivesPresent -->
<g id="edge14" class="edge">
<title>L4YAML.Scanner.consumeNewline&#45;&gt;L4YAML.Scanner.ScannerState.directivesPresent</title>
<path fill="none" stroke="#4a90d9" stroke-width="2" d="M2249.89,-177.86C2276.29,-165.59 2311.92,-149.03 2339.67,-136.14"/>
<polygon fill="#4a90d9" stroke="#4a90d9" stroke-width="2" points="2340.87,-138.28 2346.18,-133.11 2338.8,-133.84 2340.87,-138.28"/>
<text text-anchor="middle" x="2312.5" y="-153.6" font-family="Times-Roman" font-size="8.00">calls</text>
</g>
<!-- L4YAML.Scanner.ScannerState.peek? -->
<g id="node2" class="node">
<title>L4YAML.Scanner.ScannerState.peek?</title>
<g id="a_node2"><a xlink:href="../../../api/L4YAML/Scanner/State.html#L4YAML.Scanner.ScannerState.peek?" xlink:title="ScannerState.peek?" target="_blank">
<polygon fill="#dce9f7" stroke="#4a90d9" points="2139,-214 2035,-214 2035,-178 2139,-178 2139,-214"/>
<text text-anchor="middle" x="2087" y="-193.5" font-family="Helvetica" font-size="10.00">ScannerState.peek?</text>
</a>
</g>
</g>
<!-- L4YAML.Scanner.ScannerState.inputEnd -->
<g id="node8" class="node">
<title>L4YAML.Scanner.ScannerState.inputEnd</title>
<g id="a_node8"><a xlink:href="../../../api/L4YAML/Scanner/State.html#L4YAML.Scanner.ScannerState.inputEnd" xlink:title="ScannerState.inputEnd" target="_blank">
<polygon fill="#dce9f7" stroke="#4a90d9" points="2120.5,-133 2003.5,-133 2003.5,-97 2120.5,-97 2120.5,-133"/>
<text text-anchor="middle" x="2062" y="-112.5" font-family="Helvetica" font-size="10.00">ScannerState.inputEnd</text>
</a>
</g>
</g>
<!-- L4YAML.Scanner.ScannerState.peek?&#45;&gt;L4YAML.Scanner.ScannerState.inputEnd -->
<g id="edge30" class="edge">
<title>L4YAML.Scanner.ScannerState.peek?&#45;&gt;L4YAML.Scanner.ScannerState.inputEnd</title>
<path fill="none" stroke="#4a90d9" stroke-width="2" d="M2081.58,-177.86C2078.07,-166.78 2073.46,-152.21 2069.59,-139.99"/>
<polygon fill="#4a90d9" stroke="#4a90d9" stroke-width="2" points="2071.86,-139.04 2067.41,-133.11 2067.19,-140.52 2071.86,-139.04"/>
<text text-anchor="middle" x="2084.5" y="-153.6" font-family="Times-Roman" font-size="8.00">calls</text>
</g>
<!-- L4YAML.Scanner.ScannerState -->
<g id="node3" class="node">
<title>L4YAML.Scanner.ScannerState</title>
<g id="a_node3"><a xlink:href="../../../api/L4YAML/Scanner/State.html#L4YAML.Scanner.ScannerState" xlink:title="ScannerState" target="_blank">
<polygon fill="#dce9f7" stroke="#4a90d9" points="2079,-52 2003,-52 2003,-16 2079,-16 2079,-52"/>
<text text-anchor="middle" x="2041" y="-31.5" font-family="Helvetica" font-size="10.00">ScannerState</text>
</a>
</g>
</g>
<!-- L4YAML.Scanner.ScannerState.offset&#45;&gt;L4YAML.Scanner.ScannerState -->
<g id="edge24" class="edge">
<title>L4YAML.Scanner.ScannerState.offset&#45;&gt;L4YAML.Scanner.ScannerState</title>
<path fill="none" stroke="#4a90d9" stroke-width="2" d="M2492.79,-96.94C2485.05,-93.91 2476.86,-91.07 2469,-89 2332.7,-53.15 2165.52,-40.82 2086.5,-36.81"/>
<polygon fill="#4a90d9" stroke="#4a90d9" stroke-width="2" points="2086.25,-34.35 2079.13,-36.45 2086.01,-39.24 2086.25,-34.35"/>
<text text-anchor="middle" x="2432.5" y="-72.6" font-family="Times-Roman" font-size="8.00">calls</text>
</g>
<!-- L4YAML.Scanner.ScannerState.simpleKeyStack&#45;&gt;L4YAML.Scanner.ScannerState -->
<g id="edge11" class="edge">
<title>L4YAML.Scanner.ScannerState.simpleKeyStack&#45;&gt;L4YAML.Scanner.ScannerState</title>
<path fill="none" stroke="#4a90d9" stroke-width="2" d="M2175.68,-96.86C2148.97,-84.59 2112.92,-68.03 2084.84,-55.14"/>
<polygon fill="#4a90d9" stroke="#4a90d9" stroke-width="2" points="2085.63,-52.8 2078.25,-52.11 2083.59,-57.26 2085.63,-52.8"/>
<text text-anchor="middle" x="2141.5" y="-72.6" font-family="Times-Roman" font-size="8.00">calls</text>
</g>
<!-- L4YAML.Scanner.scanBlockScalar -->
<g id="node6" class="node">
<title>L4YAML.Scanner.scanBlockScalar</title>
<g id="a_node6"><a xlink:href="../../../api/L4YAML/Scanner/Scalar.html#L4YAML.Scanner.scanBlockScalar" xlink:title="scanBlockScalar" target="_blank">
<polygon fill="#dce9f7" stroke="#4a90d9" points="2112,-376 2022,-376 2022,-340 2112,-340 2112,-376"/>
<text text-anchor="middle" x="2067" y="-355.5" font-family="Helvetica" font-size="10.00">scanBlockScalar</text>
</a>
</g>
</g>
<!-- L4YAML.Scanner.scanBlockScalarConsumeNewline -->
<g id="node7" class="node">
<title>L4YAML.Scanner.scanBlockScalarConsumeNewline</title>
<g id="a_node7"><a xlink:href="../../../api/L4YAML/Scanner/Scalar.html#L4YAML.Scanner.scanBlockScalarConsumeNewline" xlink:title="scanBlockScalarConsumeNewline" target="_blank">
<polygon fill="#dce9f7" stroke="#4a90d9" points="2170.5,-295 2003.5,-295 2003.5,-259 2170.5,-259 2170.5,-295"/>
<text text-anchor="middle" x="2087" y="-274.5" font-family="Helvetica" font-size="10.00">scanBlockScalarConsumeNewline</text>
</a>
</g>
</g>
<!-- L4YAML.Scanner.scanBlockScalar&#45;&gt;L4YAML.Scanner.scanBlockScalarConsumeNewline -->
<g id="edge2" class="edge">
<title>L4YAML.Scanner.scanBlockScalar&#45;&gt;L4YAML.Scanner.scanBlockScalarConsumeNewline</title>
<path fill="none" stroke="#4a90d9" stroke-width="2" d="M2071.34,-339.86C2074.14,-328.78 2077.83,-314.21 2080.93,-301.99"/>
<polygon fill="#4a90d9" stroke="#4a90d9" stroke-width="2" points="2083.33,-302.5 2082.67,-295.11 2078.58,-301.29 2083.33,-302.5"/>
<text text-anchor="middle" x="2086.5" y="-315.6" font-family="Times-Roman" font-size="8.00">calls</text>
</g>
<!-- L4YAML.Scanner.scanBlockScalarConsumeNewline&#45;&gt;L4YAML.Scanner.consumeNewline -->
<g id="edge5" class="edge">
<title>L4YAML.Scanner.scanBlockScalarConsumeNewline&#45;&gt;L4YAML.Scanner.consumeNewline</title>
<path fill="none" stroke="#4a90d9" stroke-width="2" d="M2114.34,-258.86C2133.49,-246.85 2159.2,-230.73 2179.58,-217.96"/>
<polygon fill="#4a90d9" stroke="#4a90d9" stroke-width="2" points="2181.08,-219.9 2185.71,-214.11 2178.48,-215.75 2181.08,-219.9"/>
<text text-anchor="middle" x="2162.5" y="-234.6" font-family="Times-Roman" font-size="8.00">calls</text>
</g>
<!-- L4YAML.Scanner.scanBlockScalarConsumeNewline&#45;&gt;L4YAML.Scanner.ScannerState.peek? -->
<g id="edge28" class="edge">
<title>L4YAML.Scanner.scanBlockScalarConsumeNewline&#45;&gt;L4YAML.Scanner.ScannerState.peek?</title>
<path fill="none" stroke="#4a90d9" stroke-width="2" d="M2087,-258.86C2087,-247.88 2087,-233.48 2087,-221.33"/>
<polygon fill="#4a90d9" stroke="#4a90d9" stroke-width="2" points="2089.45,-221.11 2087,-214.11 2084.55,-221.11 2089.45,-221.11"/>
<text text-anchor="middle" x="2096.5" y="-234.6" font-family="Times-Roman" font-size="8.00">calls</text>
</g>
<!-- L4YAML.Scanner.ScannerState.inputEnd&#45;&gt;L4YAML.Scanner.ScannerState -->
<g id="edge33" class="edge">
<title>L4YAML.Scanner.ScannerState.inputEnd&#45;&gt;L4YAML.Scanner.ScannerState</title>
<path fill="none" stroke="#4a90d9" stroke-width="2" d="M2057.44,-96.86C2054.5,-85.78 2050.62,-71.21 2047.38,-58.99"/>
<polygon fill="#4a90d9" stroke="#4a90d9" stroke-width="2" points="2049.71,-58.24 2045.55,-52.11 2044.98,-59.5 2049.71,-58.24"/>
<text text-anchor="middle" x="2061.5" y="-72.6" font-family="Times-Roman" font-size="8.00">calls</text>
</g>
<!-- L4YAML.Scanner.ScannerState.directivesPresent&#45;&gt;L4YAML.Scanner.ScannerState -->
<g id="edge16" class="edge">
<title>L4YAML.Scanner.ScannerState.directivesPresent&#45;&gt;L4YAML.Scanner.ScannerState</title>
<path fill="none" stroke="#4a90d9" stroke-width="2" d="M2326.73,-96.99C2316.85,-94.19 2306.65,-91.42 2297,-89 2223.78,-70.66 2137.74,-53.38 2086.38,-43.5"/>
<polygon fill="#4a90d9" stroke="#4a90d9" stroke-width="2" points="2086.71,-41.07 2079.37,-42.16 2085.79,-45.89 2086.71,-41.07"/>
<text text-anchor="middle" x="2264.5" y="-72.6" font-family="Times-Roman" font-size="8.00">calls</text>
</g>
<!-- L4YAML.Proofs.CouplingBridge.ScannerSurfCorr.chars_from -->
<g id="node10" class="node">
<title>L4YAML.Proofs.CouplingBridge.ScannerSurfCorr.chars_from</title>
<g id="a_node10"><a xlink:href="../../../api/L4YAML/Proofs/Coupling/CouplingBridge.html#L4YAML.Proofs.CouplingBridge.ScannerSurfCorr.chars_from" xlink:title="CouplingBridge.ScannerSurfCorr.chars_from" target="_blank">
<ellipse fill="#d4edda" stroke="#28a745" cx="1608" cy="-115" rx="124.59" ry="18"/>
<text text-anchor="middle" x="1608" y="-112.5" font-family="Helvetica" font-size="10.00">CouplingBridge.ScannerSurfCorr.chars_from</text>
</a>
</g>
</g>
<!-- L4YAML.Proofs.CouplingBridge.ScannerSurfCorr.chars_from&#45;&gt;L4YAML.Scanner.ScannerState -->
<g id="edge27" class="edge">
<title>L4YAML.Proofs.CouplingBridge.ScannerSurfCorr.chars_from&#45;&gt;L4YAML.Scanner.ScannerState</title>
<path fill="none" stroke="#6f42c1" stroke-width="2" stroke-dasharray="5,2" d="M1680.66,-100.37C1700.54,-96.66 1722.1,-92.65 1742,-89 1831.99,-72.48 1937.29,-53.56 1995.85,-43.07"/>
<polygon fill="#6f42c1" stroke="#6f42c1" stroke-width="2" points="1996.3,-45.48 2002.76,-41.83 1995.43,-40.66 1996.3,-45.48"/>
<text text-anchor="middle" x="1852.5" y="-72.6" font-family="Times-Roman" font-size="8.00" fill="#6f42c1">about</text>
</g>
<!-- L4YAML.Proofs.CouplingBridge.advance_col_newline -->
<g id="node11" class="node">
<title>L4YAML.Proofs.CouplingBridge.advance_col_newline</title>
<g id="a_node11"><a xlink:href="../../../api/L4YAML/Proofs/Coupling/CouplingBridge.html#L4YAML.Proofs.CouplingBridge.advance_col_newline" xlink:title="CouplingBridge.advance_col_newline" target="_blank">
<ellipse fill="#d4edda" stroke="#28a745" cx="325" cy="-115" rx="104.56" ry="18"/>
<text text-anchor="middle" x="325" y="-112.5" font-family="Helvetica" font-size="10.00">CouplingBridge.advance_col_newline</text>
</a>
</g>
</g>
<!-- L4YAML.Proofs.CouplingBridge.advance_col_newline&#45;&gt;L4YAML.Scanner.ScannerState -->
<g id="edge42" class="edge">
<title>L4YAML.Proofs.CouplingBridge.advance_col_newline&#45;&gt;L4YAML.Scanner.ScannerState</title>
<path fill="none" stroke="#6f42c1" stroke-width="2" stroke-dasharray="5,2" d="M381.51,-99.75C399.75,-95.65 420.13,-91.59 439,-89 584.98,-68.93 622.78,-76.25 770,-70 1249.45,-49.64 1831.16,-38.62 1995.71,-35.76"/>
<polygon fill="#6f42c1" stroke="#6f42c1" stroke-width="2" points="1995.82,-38.21 2002.77,-35.64 1995.73,-33.31 1995.82,-38.21"/>
<text text-anchor="middle" x="782.5" y="-72.6" font-family="Times-Roman" font-size="8.00" fill="#6f42c1">about</text>
</g>
<!-- L4YAML.Proofs.CouplingBridge.ScannerSurfCorr.input_prefix -->
<g id="node12" class="node">
<title>L4YAML.Proofs.CouplingBridge.ScannerSurfCorr.input_prefix</title>
<g id="a_node12"><a xlink:href="../../../api/L4YAML/Proofs/Coupling/CouplingBridge.html#L4YAML.Proofs.CouplingBridge.ScannerSurfCorr.input_prefix" xlink:title="CouplingBridge.ScannerSurfCorr.input_prefix" target="_blank">
<ellipse fill="#d4edda" stroke="#28a745" cx="573" cy="-115" rx="124.59" ry="18"/>
<text text-anchor="middle" x="573" y="-112.5" font-family="Helvetica" font-size="10.00">CouplingBridge.ScannerSurfCorr.input_prefix</text>
</a>
</g>
</g>
<!-- L4YAML.Proofs.CouplingBridge.ScannerSurfCorr.input_prefix&#45;&gt;L4YAML.Scanner.ScannerState -->
<g id="edge36" class="edge">
<title>L4YAML.Proofs.CouplingBridge.ScannerSurfCorr.input_prefix&#45;&gt;L4YAML.Scanner.ScannerState</title>
<path fill="none" stroke="#6f42c1" stroke-width="2" stroke-dasharray="5,2" d="M640.59,-99.84C661.77,-95.82 685.29,-91.79 707,-89 825.44,-73.8 855.75,-76.18 975,-70 1370.07,-49.52 1848.16,-38.85 1995.56,-35.88"/>
<polygon fill="#6f42c1" stroke="#6f42c1" stroke-width="2" points="1995.79,-38.32 2002.74,-35.73 1995.69,-33.42 1995.79,-38.32"/>
<text text-anchor="middle" x="987.5" y="-72.6" font-family="Times-Roman" font-size="8.00" fill="#6f42c1">about</text>
</g>
<!-- L4YAML.Proofs.CouplingBridge.corr_of_needIndentCheck_update -->
<g id="node13" class="node">
<title>L4YAML.Proofs.CouplingBridge.corr_of_needIndentCheck_update</title>
<g id="a_node13"><a xlink:href="../../../api/L4YAML/Proofs/Coupling/CouplingBridge.html#L4YAML.Proofs.CouplingBridge.corr_of_needIndentCheck_update" xlink:title="CouplingBridge.corr_of_needIndentCheck_update" target="_blank">
<ellipse fill="#d4edda" stroke="#28a745" cx="1638" cy="-196" rx="136.64" ry="18"/>
<text text-anchor="middle" x="1638" y="-193.5" font-family="Helvetica" font-size="10.00">CouplingBridge.corr_of_needIndentCheck_update</text>
</a>
</g>
</g>
<!-- L4YAML.Proofs.CouplingBridge.corr_of_needIndentCheck_update&#45;&gt;L4YAML.Scanner.ScannerState.simpleKeyStack -->
<g id="edge10" class="edge">
<title>L4YAML.Proofs.CouplingBridge.corr_of_needIndentCheck_update&#45;&gt;L4YAML.Scanner.ScannerState.simpleKeyStack</title>
<path fill="none" stroke="#6f42c1" stroke-width="2" stroke-dasharray="5,2" d="M1736.04,-183.42C1817.98,-173.69 1922.27,-161.19 1927,-160 1937.64,-157.32 1939.33,-153.57 1950,-151 2028.16,-132.18 2050.51,-145.08 2130,-133 2130.43,-132.93 2130.86,-132.87 2131.3,-132.8"/>
<polygon fill="#6f42c1" stroke="#6f42c1" stroke-width="2" points="2131.89,-135.19 2138.41,-131.65 2131.11,-130.35 2131.89,-135.19"/>
<text text-anchor="middle" x="1962.5" y="-153.6" font-family="Times-Roman" font-size="8.00" fill="#6f42c1">about</text>
</g>
<!-- L4YAML.Proofs.CouplingBridge.corr_of_needIndentCheck_update&#45;&gt;L4YAML.Scanner.ScannerState.directivesPresent -->
<g id="edge15" class="edge">
<title>L4YAML.Proofs.CouplingBridge.corr_of_needIndentCheck_update&#45;&gt;L4YAML.Scanner.ScannerState.directivesPresent</title>
<path fill="none" stroke="#6f42c1" stroke-width="2" stroke-dasharray="5,2" d="M1735.35,-183.36C1751.59,-181.51 1768.27,-179.66 1784,-178 1868.8,-169.07 1892.78,-182.59 1975,-160 1984.01,-157.52 1984.95,-153.32 1994,-151 2124.68,-117.51 2163.19,-150.12 2297,-133 2297.54,-132.93 2298.08,-132.86 2298.62,-132.79"/>
<polygon fill="#6f42c1" stroke="#6f42c1" stroke-width="2" points="2299.14,-135.19 2305.73,-131.79 2298.45,-130.34 2299.14,-135.19"/>
<text text-anchor="middle" x="2006.5" y="-153.6" font-family="Times-Roman" font-size="8.00" fill="#6f42c1">about</text>
</g>
<!-- L4YAML.Proofs.CouplingBridge.corr_of_needIndentCheck_update&#45;&gt;L4YAML.Proofs.CouplingBridge.ScannerSurfCorr.chars_from -->
<g id="edge26" class="edge">
<title>L4YAML.Proofs.CouplingBridge.corr_of_needIndentCheck_update&#45;&gt;L4YAML.Proofs.CouplingBridge.ScannerSurfCorr.chars_from</title>
<path fill="none" stroke="#28a745" stroke-width="2" d="M1631.49,-177.86C1627.28,-166.78 1621.75,-152.21 1617.11,-139.99"/>
<polygon fill="#28a745" stroke="#28a745" stroke-width="2" points="1619.27,-138.78 1614.5,-133.11 1614.69,-140.52 1619.27,-138.78"/>
<text text-anchor="middle" x="1633" y="-153.6" font-family="Times-Roman" font-size="8.00">uses</text>
</g>
<!-- L4YAML.Proofs.CouplingBridge.ScannerSurfCorr.col_eq -->
<g id="node15" class="node">
<title>L4YAML.Proofs.CouplingBridge.ScannerSurfCorr.col_eq</title>
<g id="a_node15"><a xlink:href="../../../api/L4YAML/Proofs/Coupling/CouplingBridge.html#L4YAML.Proofs.CouplingBridge.ScannerSurfCorr.col_eq" xlink:title="CouplingBridge.ScannerSurfCorr.col_eq" target="_blank">
<ellipse fill="#d4edda" stroke="#28a745" cx="1043" cy="-115" rx="112.37" ry="18"/>
<text text-anchor="middle" x="1043" y="-112.5" font-family="Helvetica" font-size="10.00">CouplingBridge.ScannerSurfCorr.col_eq</text>
</a>
</g>
</g>
<!-- L4YAML.Proofs.CouplingBridge.corr_of_needIndentCheck_update&#45;&gt;L4YAML.Proofs.CouplingBridge.ScannerSurfCorr.col_eq -->
<g id="edge12" class="edge">
<title>L4YAML.Proofs.CouplingBridge.corr_of_needIndentCheck_update&#45;&gt;L4YAML.Proofs.CouplingBridge.ScannerSurfCorr.col_eq</title>
<path fill="none" stroke="#28a745" stroke-width="2" d="M1508.89,-190.03C1389.11,-184.63 1219.87,-174.73 1155,-160 1130.37,-154.41 1104.02,-144.28 1083.07,-135.15"/>
<polygon fill="#28a745" stroke="#28a745" stroke-width="2" points="1083.86,-132.82 1076.47,-132.23 1081.88,-137.3 1083.86,-132.82"/>
<text text-anchor="middle" x="1165" y="-153.6" font-family="Times-Roman" font-size="8.00">uses</text>
</g>
<!-- L4YAML.Proofs.CouplingBridge.ScannerSurfCorr.indent_cols_nonneg -->
<g id="node17" class="node">
<title>L4YAML.Proofs.CouplingBridge.ScannerSurfCorr.indent_cols_nonneg</title>
<g id="a_node17"><a xlink:href="../../../api/L4YAML/Proofs/Coupling/CouplingBridge.html#L4YAML.Proofs.CouplingBridge.ScannerSurfCorr.indent_cols_nonneg" xlink:title="CouplingBridge.ScannerSurfCorr.indent_cols_nonneg" target="_blank">
<ellipse fill="#d4edda" stroke="#28a745" cx="1319" cy="-115" rx="145.98" ry="18"/>
<text text-anchor="middle" x="1319" y="-112.5" font-family="Helvetica" font-size="10.00">CouplingBridge.ScannerSurfCorr.indent_cols_nonneg</text>
</a>
</g>
</g>
<!-- L4YAML.Proofs.CouplingBridge.corr_of_needIndentCheck_update&#45;&gt;L4YAML.Proofs.CouplingBridge.ScannerSurfCorr.indent_cols_nonneg -->
<g id="edge17" class="edge">
<title>L4YAML.Proofs.CouplingBridge.corr_of_needIndentCheck_update&#45;&gt;L4YAML.Proofs.CouplingBridge.ScannerSurfCorr.indent_cols_nonneg</title>
<path fill="none" stroke="#28a745" stroke-width="2" d="M1576.87,-179.86C1522.92,-166.5 1444.32,-147.04 1388.1,-133.11"/>
<polygon fill="#28a745" stroke="#28a745" stroke-width="2" points="1388.39,-130.66 1381.01,-131.36 1387.22,-135.42 1388.39,-130.66"/>
<text text-anchor="middle" x="1498" y="-153.6" font-family="Times-Roman" font-size="8.00">uses</text>
</g>
<!-- L4YAML.Proofs.CouplingBridge.ScannerSurfCorr.end_eq -->
<g id="node19" class="node">
<title>L4YAML.Proofs.CouplingBridge.ScannerSurfCorr.end_eq</title>
<g id="a_node19"><a xlink:href="../../../api/L4YAML/Proofs/Coupling/CouplingBridge.html#L4YAML.Proofs.CouplingBridge.ScannerSurfCorr.end_eq" xlink:title="CouplingBridge.ScannerSurfCorr.end_eq" target="_blank">
<ellipse fill="#d4edda" stroke="#28a745" cx="1865" cy="-115" rx="114.4" ry="18"/>
<text text-anchor="middle" x="1865" y="-112.5" font-family="Helvetica" font-size="10.00">CouplingBridge.ScannerSurfCorr.end_eq</text>
</a>
</g>
</g>
<!-- L4YAML.Proofs.CouplingBridge.corr_of_needIndentCheck_update&#45;&gt;L4YAML.Proofs.CouplingBridge.ScannerSurfCorr.end_eq -->
<g id="edge19" class="edge">
<title>L4YAML.Proofs.CouplingBridge.corr_of_needIndentCheck_update&#45;&gt;L4YAML.Proofs.CouplingBridge.ScannerSurfCorr.end_eq</title>
<path fill="none" stroke="#28a745" stroke-width="2" d="M1683.94,-179.01C1721.41,-165.97 1774.34,-147.55 1813.29,-134"/>
<polygon fill="#28a745" stroke="#28a745" stroke-width="2" points="1814.1,-136.31 1819.91,-131.69 1812.49,-131.68 1814.1,-136.31"/>
<text text-anchor="middle" x="1768" y="-153.6" font-family="Times-Roman" font-size="8.00">uses</text>
</g>
<!-- L4YAML.Proofs.ScalarCoupling.scanBlockScalar_corr -->
<g id="node14" class="node">
<title>L4YAML.Proofs.ScalarCoupling.scanBlockScalar_corr</title>
<g id="a_node14"><a xlink:href="../../../api/L4YAML/Proofs/Coupling/ScalarCoupling.html#L4YAML.Proofs.ScalarCoupling.scanBlockScalar_corr" xlink:title="ScalarCoupling.scanBlockScalar_corr" target="_blank">
<polygon fill="#fff3cd" stroke="#d4a017" points="1966.16,-455.54 1966.16,-470.46 1898.7,-481 1803.3,-481 1735.84,-470.46 1735.84,-455.54 1803.3,-445 1898.7,-445 1966.16,-455.54"/>
<polygon fill="none" stroke="#d4a017" points="1970.15,-452.12 1970.15,-473.88 1899.01,-485 1802.99,-485 1731.85,-473.88 1731.85,-452.12 1802.99,-441 1899.01,-441 1970.15,-452.12"/>
<text text-anchor="middle" x="1851" y="-460.5" font-family="Helvetica" font-size="10.00">ScalarCoupling.scanBlockScalar_corr</text>
</a>
</g>
</g>
<!-- L4YAML.Proofs.ScalarCoupling.scanBlockScalar_corr&#45;&gt;L4YAML.Scanner.scanBlockScalar -->
<g id="edge1" class="edge">
<title>L4YAML.Proofs.ScalarCoupling.scanBlockScalar_corr&#45;&gt;L4YAML.Scanner.scanBlockScalar</title>
<path fill="none" stroke="#6f42c1" stroke-width="2" stroke-dasharray="5,2" d="M1906.83,-442.22C1932.87,-432.35 1964,-419.62 1991,-406 2006.25,-398.31 2022.45,-388.53 2035.95,-379.89"/>
<polygon fill="#6f42c1" stroke="#6f42c1" stroke-width="2" points="2037.41,-381.87 2041.95,-376.02 2034.75,-377.76 2037.41,-381.87"/>
<text text-anchor="middle" x="1984.5" y="-416.6" font-family="Times-Roman" font-size="8.00" fill="#6f42c1">about</text>
</g>
<!-- L4YAML.Proofs.ScalarCoupling.scanBlockScalarConsumeNewline_corr -->
<g id="node20" class="node">
<title>L4YAML.Proofs.ScalarCoupling.scanBlockScalarConsumeNewline_corr</title>
<g id="a_node20"><a xlink:href="../../../api/L4YAML/Proofs/Coupling/ScalarCoupling.html#L4YAML.Proofs.ScalarCoupling.scanBlockScalarConsumeNewline_corr" xlink:title="ScalarCoupling.scanBlockScalarConsumeNewline_corr" target="_blank">
<ellipse fill="#d4edda" stroke="#28a745" cx="1827" cy="-358" rx="151.75" ry="18"/>
<text text-anchor="middle" x="1827" y="-355.5" font-family="Helvetica" font-size="10.00">ScalarCoupling.scanBlockScalarConsumeNewline_corr</text>
</a>
</g>
</g>
<!-- L4YAML.Proofs.ScalarCoupling.scanBlockScalar_corr&#45;&gt;L4YAML.Proofs.ScalarCoupling.scanBlockScalarConsumeNewline_corr -->
<g id="edge3" class="edge">
<title>L4YAML.Proofs.ScalarCoupling.scanBlockScalar_corr&#45;&gt;L4YAML.Proofs.ScalarCoupling.scanBlockScalarConsumeNewline_corr</title>
<path fill="none" stroke="#28a745" stroke-width="2" d="M1846.03,-440.66C1842.13,-423.95 1836.72,-400.71 1832.66,-383.29"/>
<polygon fill="#28a745" stroke="#28a745" stroke-width="2" points="1834.99,-382.48 1831.01,-376.22 1830.22,-383.6 1834.99,-382.48"/>
<text text-anchor="middle" x="1851" y="-416.6" font-family="Times-Roman" font-size="8.00">uses</text>
</g>
<!-- L4YAML.Proofs.CouplingBridge.ScannerSurfCorr.col_eq&#45;&gt;L4YAML.Scanner.ScannerState -->
<g id="edge13" class="edge">
<title>L4YAML.Proofs.CouplingBridge.ScannerSurfCorr.col_eq&#45;&gt;L4YAML.Scanner.ScannerState</title>
<path fill="none" stroke="#6f42c1" stroke-width="2" stroke-dasharray="5,2" d="M1103.34,-99.77C1122.62,-95.7 1144.12,-91.65 1164,-89 1480.46,-46.78 1865.66,-37.5 1995.68,-35.52"/>
<polygon fill="#6f42c1" stroke="#6f42c1" stroke-width="2" points="1995.81,-37.97 2002.77,-35.42 1995.74,-33.07 1995.81,-37.97"/>
<text text-anchor="middle" x="1342.5" y="-72.6" font-family="Times-Roman" font-size="8.00" fill="#6f42c1">about</text>
</g>
<!-- L4YAML.Proofs.ScannerCoupling.consumeNewline_corr -->
<g id="node16" class="node">
<title>L4YAML.Proofs.ScannerCoupling.consumeNewline_corr</title>
<g id="a_node16"><a xlink:href="../../../api/L4YAML/Proofs/Coupling/ScannerCoupling.html#L4YAML.Proofs.ScannerCoupling.consumeNewline_corr" xlink:title="ScannerCoupling.consumeNewline_corr" target="_blank">
<ellipse fill="#d4edda" stroke="#28a745" cx="1848" cy="-277" rx="112.37" ry="18"/>
<text text-anchor="middle" x="1848" y="-274.5" font-family="Helvetica" font-size="10.00">ScannerCoupling.consumeNewline_corr</text>
</a>
</g>
</g>
<!-- L4YAML.Proofs.ScannerCoupling.consumeNewline_corr&#45;&gt;L4YAML.Scanner.consumeNewline -->
<g id="edge7" class="edge">
<title>L4YAML.Proofs.ScannerCoupling.consumeNewline_corr&#45;&gt;L4YAML.Scanner.consumeNewline</title>
<path fill="none" stroke="#6f42c1" stroke-width="2" stroke-dasharray="5,2" d="M1912.77,-262.27C1954.27,-253.51 2009.28,-241.98 2058,-232 2097.96,-223.82 2108.25,-223.16 2148,-214 2151.93,-213.09 2155.99,-212.12 2160.06,-211.12"/>
<polygon fill="#6f42c1" stroke="#6f42c1" stroke-width="2" points="2160.72,-213.48 2166.92,-209.41 2159.54,-208.72 2160.72,-213.48"/>
<text text-anchor="middle" x="2070.5" y="-234.6" font-family="Times-Roman" font-size="8.00" fill="#6f42c1">about</text>
</g>
<!-- L4YAML.Proofs.ScannerCoupling.consumeNewline_corr&#45;&gt;L4YAML.Scanner.ScannerState.peek? -->
<g id="edge29" class="edge">
<title>L4YAML.Proofs.ScannerCoupling.consumeNewline_corr&#45;&gt;L4YAML.Scanner.ScannerState.peek?</title>
<path fill="none" stroke="#6f42c1" stroke-width="2" stroke-dasharray="5,2" d="M1887.79,-260.13C1910.29,-251.38 1939.04,-240.59 1965,-232 1985.3,-225.28 2007.75,-218.63 2027.79,-212.95"/>
<polygon fill="#6f42c1" stroke="#6f42c1" stroke-width="2" points="2028.7,-215.24 2034.77,-210.99 2027.37,-210.53 2028.7,-215.24"/>
<text text-anchor="middle" x="1977.5" y="-234.6" font-family="Times-Roman" font-size="8.00" fill="#6f42c1">about</text>
</g>
<!-- L4YAML.Proofs.ScannerCoupling.consumeNewline_corr&#45;&gt;L4YAML.Proofs.CouplingBridge.corr_of_needIndentCheck_update -->
<g id="edge9" class="edge">
<title>L4YAML.Proofs.ScannerCoupling.consumeNewline_corr&#45;&gt;L4YAML.Proofs.CouplingBridge.corr_of_needIndentCheck_update</title>
<path fill="none" stroke="#28a745" stroke-width="2" d="M1806.01,-260.2C1771.87,-247.36 1723.62,-229.21 1687.58,-215.65"/>
<polygon fill="#28a745" stroke="#28a745" stroke-width="2" points="1688.41,-213.35 1681,-213.18 1686.69,-217.93 1688.41,-213.35"/>
<text text-anchor="middle" x="1759" y="-234.6" font-family="Times-Roman" font-size="8.00">uses</text>
</g>
<!-- L4YAML.Proofs.CouplingBridge.advance_newline_corr -->
<g id="node22" class="node">
<title>L4YAML.Proofs.CouplingBridge.advance_newline_corr</title>
<g id="a_node22"><a xlink:href="../../../api/L4YAML/Proofs/Coupling/CouplingBridge.html#L4YAML.Proofs.CouplingBridge.advance_newline_corr" xlink:title="CouplingBridge.advance_newline_corr" target="_blank">
<ellipse fill="#d4edda" stroke="#28a745" cx="814" cy="-196" rx="107.27" ry="18"/>
<text text-anchor="middle" x="814" y="-193.5" font-family="Helvetica" font-size="10.00">CouplingBridge.advance_newline_corr</text>
</a>
</g>
</g>
<!-- L4YAML.Proofs.ScannerCoupling.consumeNewline_corr&#45;&gt;L4YAML.Proofs.CouplingBridge.advance_newline_corr -->
<g id="edge31" class="edge">
<title>L4YAML.Proofs.ScannerCoupling.consumeNewline_corr&#45;&gt;L4YAML.Proofs.CouplingBridge.advance_newline_corr</title>
<path fill="none" stroke="#28a745" stroke-width="2" d="M1748.86,-268.43C1552.41,-253.42 1115.55,-220.04 916.44,-204.83"/>
<polygon fill="#28a745" stroke="#28a745" stroke-width="2" points="916.63,-202.38 909.46,-204.29 916.25,-207.27 916.63,-202.38"/>
<text text-anchor="middle" x="1372" y="-234.6" font-family="Times-Roman" font-size="8.00">uses</text>
</g>
<!-- L4YAML.Proofs.CouplingBridge.advance_cr_corr -->
<g id="node23" class="node">
<title>L4YAML.Proofs.CouplingBridge.advance_cr_corr</title>
<g id="a_node23"><a xlink:href="../../../api/L4YAML/Proofs/Coupling/CouplingBridge.html#L4YAML.Proofs.CouplingBridge.advance_cr_corr" xlink:title="CouplingBridge.advance_cr_corr" target="_blank">
<ellipse fill="#d4edda" stroke="#28a745" cx="1885" cy="-196" rx="92.34" ry="18"/>
<text text-anchor="middle" x="1885" y="-193.5" font-family="Helvetica" font-size="10.00">CouplingBridge.advance_cr_corr</text>
</a>
</g>
</g>
<!-- L4YAML.Proofs.ScannerCoupling.consumeNewline_corr&#45;&gt;L4YAML.Proofs.CouplingBridge.advance_cr_corr -->
<g id="edge22" class="edge">
<title>L4YAML.Proofs.ScannerCoupling.consumeNewline_corr&#45;&gt;L4YAML.Proofs.CouplingBridge.advance_cr_corr</title>
<path fill="none" stroke="#28a745" stroke-width="2" d="M1856.03,-258.86C1861.26,-247.68 1868.17,-232.93 1873.93,-220.64"/>
<polygon fill="#28a745" stroke="#28a745" stroke-width="2" points="1876.24,-221.49 1876.99,-214.11 1871.8,-219.41 1876.24,-221.49"/>
<text text-anchor="middle" x="1877" y="-234.6" font-family="Times-Roman" font-size="8.00">uses</text>
</g>
<!-- L4YAML.Proofs.CouplingBridge.ScannerSurfCorr.indent_cols_nonneg&#45;&gt;L4YAML.Scanner.ScannerState -->
<g id="edge18" class="edge">
<title>L4YAML.Proofs.CouplingBridge.ScannerSurfCorr.indent_cols_nonneg&#45;&gt;L4YAML.Scanner.ScannerState</title>
<path fill="none" stroke="#6f42c1" stroke-width="2" stroke-dasharray="5,2" d="M1399.7,-99.96C1423.58,-96.09 1449.8,-92.1 1474,-89 1667.33,-64.23 1899.1,-45.59 1995.49,-38.33"/>
<polygon fill="#6f42c1" stroke="#6f42c1" stroke-width="2" points="1995.95,-40.75 2002.74,-37.78 1995.58,-35.86 1995.95,-40.75"/>
<text text-anchor="middle" x="1641.5" y="-72.6" font-family="Times-Roman" font-size="8.00" fill="#6f42c1">about</text>
</g>
<!-- L4YAML.Proofs.CouplingBridge.advance_offset_eq -->
<g id="node18" class="node">
<title>L4YAML.Proofs.CouplingBridge.advance_offset_eq</title>
<g id="a_node18"><a xlink:href="../../../api/L4YAML/Proofs/Coupling/CouplingBridge.html#L4YAML.Proofs.CouplingBridge.advance_offset_eq" xlink:title="CouplingBridge.advance_offset_eq" target="_blank">
<ellipse fill="#d4edda" stroke="#28a745" cx="814" cy="-115" rx="98.11" ry="18"/>
<text text-anchor="middle" x="814" y="-112.5" font-family="Helvetica" font-size="10.00">CouplingBridge.advance_offset_eq</text>
</a>
</g>
</g>
<!-- L4YAML.Proofs.CouplingBridge.advance_offset_eq&#45;&gt;L4YAML.Scanner.ScannerState -->
<g id="edge40" class="edge">
<title>L4YAML.Proofs.CouplingBridge.advance_offset_eq&#45;&gt;L4YAML.Scanner.ScannerState</title>
<path fill="none" stroke="#6f42c1" stroke-width="2" stroke-dasharray="5,2" d="M867.23,-99.83C884.58,-95.71 904,-91.62 922,-89 1057.28,-69.3 1092.48,-77.17 1229,-70 1521.2,-54.66 1872.82,-41.21 1995.86,-36.65"/>
<polygon fill="#6f42c1" stroke="#6f42c1" stroke-width="2" points="1996.03,-39.09 2002.94,-36.39 1995.85,-34.2 1996.03,-39.09"/>
<text text-anchor="middle" x="1241.5" y="-72.6" font-family="Times-Roman" font-size="8.00" fill="#6f42c1">about</text>
</g>
<!-- L4YAML.Proofs.CouplingBridge.ScannerSurfCorr.end_eq&#45;&gt;L4YAML.Scanner.ScannerState -->
<g id="edge20" class="edge">
<title>L4YAML.Proofs.CouplingBridge.ScannerSurfCorr.end_eq&#45;&gt;L4YAML.Scanner.ScannerState</title>
<path fill="none" stroke="#6f42c1" stroke-width="2" stroke-dasharray="5,2" d="M1901.04,-97.82C1928.62,-85.44 1966.81,-68.3 1996.33,-55.05"/>
<polygon fill="#6f42c1" stroke="#6f42c1" stroke-width="2" points="1997.49,-57.21 2002.88,-52.11 1995.49,-52.74 1997.49,-57.21"/>
<text text-anchor="middle" x="1970.5" y="-72.6" font-family="Times-Roman" font-size="8.00" fill="#6f42c1">about</text>
</g>
<!-- L4YAML.Proofs.ScalarCoupling.scanBlockScalarConsumeNewline_corr&#45;&gt;L4YAML.Scanner.scanBlockScalarConsumeNewline -->
<g id="edge4" class="edge">
<title>L4YAML.Proofs.ScalarCoupling.scanBlockScalarConsumeNewline_corr&#45;&gt;L4YAML.Scanner.scanBlockScalarConsumeNewline</title>
<path fill="none" stroke="#6f42c1" stroke-width="2" stroke-dasharray="5,2" d="M1879.61,-341.01C1921.31,-328.35 1979.69,-310.6 2023.9,-297.17"/>
<polygon fill="#6f42c1" stroke="#6f42c1" stroke-width="2" points="2024.88,-299.44 2030.86,-295.06 2023.45,-294.75 2024.88,-299.44"/>
<text text-anchor="middle" x="1976.5" y="-315.6" font-family="Times-Roman" font-size="8.00" fill="#6f42c1">about</text>
</g>
<!-- L4YAML.Proofs.ScalarCoupling.scanBlockScalarConsumeNewline_corr&#45;&gt;L4YAML.Proofs.ScannerCoupling.consumeNewline_corr -->
<g id="edge6" class="edge">
<title>L4YAML.Proofs.ScalarCoupling.scanBlockScalarConsumeNewline_corr&#45;&gt;L4YAML.Proofs.ScannerCoupling.consumeNewline_corr</title>
<path fill="none" stroke="#28a745" stroke-width="2" d="M1831.56,-339.86C1834.5,-328.78 1838.38,-314.21 1841.62,-301.99"/>
<polygon fill="#28a745" stroke="#28a745" stroke-width="2" points="1844.02,-302.5 1843.45,-295.11 1839.29,-301.24 1844.02,-302.5"/>
<text text-anchor="middle" x="1848" y="-315.6" font-family="Times-Roman" font-size="8.00">uses</text>
</g>
<!-- L4YAML.Proofs.CouplingBridge.advance_indents -->
<g id="node21" class="node">
<title>L4YAML.Proofs.CouplingBridge.advance_indents</title>
<g id="a_node21"><a xlink:href="../../../api/L4YAML/Proofs/Coupling/CouplingBridge.html#L4YAML.Proofs.CouplingBridge.advance_indents" xlink:title="CouplingBridge.advance_indents" target="_blank">
<ellipse fill="#d4edda" stroke="#28a745" cx="109" cy="-115" rx="93.02" ry="18"/>
<text text-anchor="middle" x="109" y="-112.5" font-family="Helvetica" font-size="10.00">CouplingBridge.advance_indents</text>
</a>
</g>
</g>
<!-- L4YAML.Proofs.CouplingBridge.advance_indents&#45;&gt;L4YAML.Scanner.ScannerState -->
<g id="edge38" class="edge">
<title>L4YAML.Proofs.CouplingBridge.advance_indents&#45;&gt;L4YAML.Scanner.ScannerState</title>
<path fill="none" stroke="#6f42c1" stroke-width="2" stroke-dasharray="5,2" d="M159.23,-99.84C175.62,-95.72 193.97,-91.63 211,-89 337.78,-69.43 370.85,-75.68 499,-70 1090.33,-43.8 1810.15,-36.75 1995.68,-35.31"/>
<polygon fill="#6f42c1" stroke="#6f42c1" stroke-width="2" points="1995.85,-37.76 2002.83,-35.26 1995.81,-32.86 1995.85,-37.76"/>
<text text-anchor="middle" x="511.5" y="-72.6" font-family="Times-Roman" font-size="8.00" fill="#6f42c1">about</text>
</g>
<!-- L4YAML.Proofs.CouplingBridge.advance_newline_corr&#45;&gt;L4YAML.Scanner.ScannerState.inputEnd -->
<g id="edge32" class="edge">
<title>L4YAML.Proofs.CouplingBridge.advance_newline_corr&#45;&gt;L4YAML.Scanner.ScannerState.inputEnd</title>
<path fill="none" stroke="#6f42c1" stroke-width="2" stroke-dasharray="5,2" d="M919.43,-192.69C1179.31,-186.85 1832.98,-171.14 1879,-160 1888.08,-157.8 1889.12,-153.91 1898,-151 1938.01,-137.89 1949.85,-141.9 1991,-133 1992.73,-132.62 1994.49,-132.24 1996.26,-131.85"/>
<polygon fill="#6f42c1" stroke="#6f42c1" stroke-width="2" points="1996.86,-134.22 2003.16,-130.3 1995.79,-129.44 1996.86,-134.22"/>
<text text-anchor="middle" x="1910.5" y="-153.6" font-family="Times-Roman" font-size="8.00" fill="#6f42c1">about</text>
</g>
<!-- L4YAML.Proofs.CouplingBridge.advance_newline_corr&#45;&gt;L4YAML.Proofs.CouplingBridge.ScannerSurfCorr.chars_from -->
<g id="edge34" class="edge">
<title>L4YAML.Proofs.CouplingBridge.advance_newline_corr&#45;&gt;L4YAML.Proofs.CouplingBridge.ScannerSurfCorr.chars_from</title>
<path fill="none" stroke="#28a745" stroke-width="2" d="M907.55,-187.18C1035.54,-176.25 1272.38,-155.25 1474,-133 1486.29,-131.64 1499.21,-130.12 1511.96,-128.57"/>
<polygon fill="#28a745" stroke="#28a745" stroke-width="2" points="1512.38,-130.98 1519.03,-127.7 1511.78,-126.12 1512.38,-130.98"/>
<text text-anchor="middle" x="1302" y="-153.6" font-family="Times-Roman" font-size="8.00">uses</text>
</g>
<!-- L4YAML.Proofs.CouplingBridge.advance_newline_corr&#45;&gt;L4YAML.Proofs.CouplingBridge.advance_col_newline -->
<g id="edge41" class="edge">
<title>L4YAML.Proofs.CouplingBridge.advance_newline_corr&#45;&gt;L4YAML.Proofs.CouplingBridge.advance_col_newline</title>
<path fill="none" stroke="#28a745" stroke-width="2" d="M739.73,-183C649.63,-168.45 498.31,-144 405.5,-129"/>
<polygon fill="#28a745" stroke="#28a745" stroke-width="2" points="405.67,-126.55 398.37,-127.85 404.88,-131.39 405.67,-126.55"/>
<text text-anchor="middle" x="594" y="-153.6" font-family="Times-Roman" font-size="8.00">uses</text>
</g>
<!-- L4YAML.Proofs.CouplingBridge.advance_newline_corr&#45;&gt;L4YAML.Proofs.CouplingBridge.ScannerSurfCorr.input_prefix -->
<g id="edge35" class="edge">
<title>L4YAML.Proofs.CouplingBridge.advance_newline_corr&#45;&gt;L4YAML.Proofs.CouplingBridge.ScannerSurfCorr.input_prefix</title>
<path fill="none" stroke="#28a745" stroke-width="2" d="M767.53,-179.77C727.63,-166.69 670.03,-147.81 627.87,-133.99"/>
<polygon fill="#28a745" stroke="#28a745" stroke-width="2" points="628.39,-131.58 620.97,-131.73 626.86,-136.23 628.39,-131.58"/>
<text text-anchor="middle" x="710" y="-153.6" font-family="Times-Roman" font-size="8.00">uses</text>
</g>
<!-- L4YAML.Proofs.CouplingBridge.advance_newline_corr&#45;&gt;L4YAML.Proofs.CouplingBridge.advance_offset_eq -->
<g id="edge39" class="edge">
<title>L4YAML.Proofs.CouplingBridge.advance_newline_corr&#45;&gt;L4YAML.Proofs.CouplingBridge.advance_offset_eq</title>
<path fill="none" stroke="#28a745" stroke-width="2" d="M814,-177.86C814,-166.88 814,-152.48 814,-140.33"/>
<polygon fill="#28a745" stroke="#28a745" stroke-width="2" points="816.45,-140.11 814,-133.11 811.55,-140.11 816.45,-140.11"/>
<text text-anchor="middle" x="824" y="-153.6" font-family="Times-Roman" font-size="8.00">uses</text>
</g>
<!-- L4YAML.Proofs.CouplingBridge.advance_newline_corr&#45;&gt;L4YAML.Proofs.CouplingBridge.advance_indents -->
<g id="edge37" class="edge">
<title>L4YAML.Proofs.CouplingBridge.advance_newline_corr&#45;&gt;L4YAML.Proofs.CouplingBridge.advance_indents</title>
<path fill="none" stroke="#28a745" stroke-width="2" d="M720.3,-187.2C601.54,-176.89 390.65,-157.18 211,-133 201.69,-131.75 191.93,-130.3 182.29,-128.78"/>
<polygon fill="#28a745" stroke="#28a745" stroke-width="2" points="182.6,-126.35 175.3,-127.67 181.83,-131.19 182.6,-126.35"/>
<text text-anchor="middle" x="436" y="-153.6" font-family="Times-Roman" font-size="8.00">uses</text>
</g>
<!-- L4YAML.Proofs.CouplingBridge.advance_cr_corr&#45;&gt;L4YAML.Scanner.ScannerState.offset -->
<g id="edge23" class="edge">
<title>L4YAML.Proofs.CouplingBridge.advance_cr_corr&#45;&gt;L4YAML.Scanner.ScannerState.offset</title>
<path fill="none" stroke="#6f42c1" stroke-width="2" stroke-dasharray="5,2" d="M1944.35,-182.1C1968.94,-176.2 1997.6,-168.6 2023,-160 2032.62,-156.74 2034.1,-153.25 2044,-151 2228.35,-109.08 2282.27,-162.57 2469,-133 2469.76,-132.88 2470.52,-132.75 2471.29,-132.62"/>
<polygon fill="#6f42c1" stroke="#6f42c1" stroke-width="2" points="2471.85,-135.01 2478.26,-131.29 2470.93,-130.2 2471.85,-135.01"/>
<text text-anchor="middle" x="2056.5" y="-153.6" font-family="Times-Roman" font-size="8.00" fill="#6f42c1">about</text>
</g>
<!-- L4YAML.Proofs.CouplingBridge.advance_cr_corr&#45;&gt;L4YAML.Proofs.CouplingBridge.ScannerSurfCorr.end_eq -->
<g id="edge25" class="edge">
<title>L4YAML.Proofs.CouplingBridge.advance_cr_corr&#45;&gt;L4YAML.Proofs.CouplingBridge.ScannerSurfCorr.end_eq</title>
<path fill="none" stroke="#28a745" stroke-width="2" d="M1869.08,-178.09C1864.99,-172.71 1861.14,-166.47 1859,-160 1856.9,-153.66 1856.91,-146.57 1857.84,-139.96"/>
<polygon fill="#28a745" stroke="#28a745" stroke-width="2" points="1860.26,-140.38 1859.16,-133.04 1855.44,-139.46 1860.26,-140.38"/>
<text text-anchor="middle" x="1869" y="-153.6" font-family="Times-Roman" font-size="8.00">uses</text>
</g>
</g>
</svg>
