<?xml version="1.0" encoding="UTF-8" standalone="no"?>
<!DOCTYPE svg PUBLIC "-//W3C//DTD SVG 1.1//EN"
 "http://www.w3.org/Graphics/SVG/1.1/DTD/svg11.dtd">
<!-- Generated by graphviz version 2.44.0 (0)
 -->
<!-- Title: ScannerCorrectness.SimpleKeyValid_mono._proof_1 Pages: 1 -->
<svg width="924pt" height="1120pt"
 viewBox="0.00 0.00 923.57 1120.00" xmlns="http://www.w3.org/2000/svg" xmlns:xlink="http://www.w3.org/1999/xlink">
<g id="graph0" class="graph" transform="scale(1 1) rotate(0) translate(4 1116)">
<title>ScannerCorrectness.SimpleKeyValid_mono._proof_1</title>
<polygon fill="white" stroke="transparent" points="-4,4 -4,-1116 919.57,-1116 919.57,4 -4,4"/>
<text text-anchor="middle" x="457.78" y="-1097.6" font-family="Helvetica Bold" font-size="13.00">ScannerCorrectness.SimpleKeyValid_mono._proof_1</text>
<text text-anchor="middle" x="457.78" y="-1083.6" font-family="Helvetica Bold" font-size="13.00">(heuristic: used by 9 proofs)</text>
<text text-anchor="middle" x="457.78" y="-1069.6" font-family="Helvetica Bold" font-size="13.00">(L4YAML.Proofs.Scanner.ScannerCorrectness)</text>
<g id="clust1" class="cluster">
<title>cluster_functions</title>
<polygon fill="none" stroke="#4a90d9" stroke-dasharray="5,2" points="784.57,-414 784.57,-650 907.57,-650 907.57,-414 784.57,-414"/>
<text text-anchor="middle" x="846.07" y="-635.6" font-family="Helvetica Bold" font-size="13.00" fill="#4a90d9">Functions</text>
</g>
<g id="clust2" class="cluster">
<title>cluster_key</title>
<polygon fill="none" stroke="#d4a017" stroke-dasharray="5,2" points="315.78,-490 315.78,-572 739.57,-572 739.57,-490 315.78,-490"/>
<text text-anchor="middle" x="527.68" y="-557.6" font-family="Helvetica Bold" font-size="13.00" fill="#d4a017">Key Theorem</text>
</g>
<g id="clust4" class="cluster">
<title>cluster_stdlib</title>
<polygon fill="none" stroke="#e67e22" stroke-dasharray="5,2" points="8,-8 8,-1054 294.78,-1054 294.78,-8 8,-8"/>
<text text-anchor="middle" x="151.39" y="-1039.6" font-family="Helvetica Bold" font-size="13.00" fill="#e67e22">Stdlib Lemmas</text>
</g>
<!-- L4YAML.Positioned -->
<g id="node1" class="node">
<title>L4YAML.Positioned</title>
<g id="a_node1"><a xlink:href="../../../api/L4YAML/Token/Token.html#L4YAML.Positioned" xlink:title="Positioned\n(inductive)" target="_blank">
<polygon fill="#dce9f7" stroke="#4a90d9" points="877.07,-620 815.07,-620 815.07,-584 877.07,-584 877.07,-620"/>
<text text-anchor="middle" x="846.07" y="-605" font-family="Helvetica" font-size="10.00">Positioned</text>
<text text-anchor="middle" x="846.07" y="-594" font-family="Helvetica" font-size="10.00">(inductive)</text>
</a>
</g>
</g>
<!-- L4YAML.Scanner.ScannerState -->
<g id="node2" class="node">
<title>L4YAML.Scanner.ScannerState</title>
<g id="a_node2"><a xlink:href="../../../api/L4YAML/Scanner/State.html#L4YAML.Scanner.ScannerState" xlink:title="ScannerState\n(inductive)" target="_blank">
<polygon fill="#dce9f7" stroke="#4a90d9" points="884.07,-566 808.07,-566 808.07,-530 884.07,-530 884.07,-566"/>
<text text-anchor="middle" x="846.07" y="-551" font-family="Helvetica" font-size="10.00">ScannerState</text>
<text text-anchor="middle" x="846.07" y="-540" font-family="Helvetica" font-size="10.00">(inductive)</text>
</a>
</g>
</g>
<!-- L4YAML.YamlToken -->
<g id="node3" class="node">
<title>L4YAML.YamlToken</title>
<g id="a_node3"><a xlink:href="../../../api/L4YAML/Token/Token.html#L4YAML.YamlToken" xlink:title="YamlToken\n(inductive)" target="_blank">
<polygon fill="#dce9f7" stroke="#4a90d9" points="878.07,-512 814.07,-512 814.07,-476 878.07,-476 878.07,-512"/>
<text text-anchor="middle" x="846.07" y="-497" font-family="Helvetica" font-size="10.00">YamlToken</text>
<text text-anchor="middle" x="846.07" y="-486" font-family="Helvetica" font-size="10.00">(inductive)</text>
</a>
</g>
</g>
<!-- L4YAML.Scanner.ScannerState.tokens -->
<g id="node4" class="node">
<title>L4YAML.Scanner.ScannerState.tokens</title>
<g id="a_node4"><a xlink:href="../../../api/L4YAML/Scanner/State.html#L4YAML.Scanner.ScannerState.tokens" xlink:title="ScannerState.tokens\n(def)" target="_blank">
<polygon fill="#dce9f7" stroke="#4a90d9" points="899.57,-458 792.57,-458 792.57,-422 899.57,-422 899.57,-458"/>
<text text-anchor="middle" x="846.07" y="-443" font-family="Helvetica" font-size="10.00">ScannerState.tokens</text>
<text text-anchor="middle" x="846.07" y="-432" font-family="Helvetica" font-size="10.00">(def)</text>
</a>
</g>
</g>
<!-- L4YAML.Proofs.ScannerCorrectness.SimpleKeyValid_mono._proof_1 -->
<g id="node5" class="node">
<title>L4YAML.Proofs.ScannerCorrectness.SimpleKeyValid_mono._proof_1</title>
<g id="a_node5"><a xlink:href="../../../api/L4YAML/Proofs/Scanner/ScannerCorrectness.html#L4YAML.Proofs.ScannerCorrectness.SimpleKeyValid_mono._proof_1" xlink:title="ScannerCorrectness.SimpleKeyValid_mono._proof_1" target="_blank">
<polygon fill="#fff3cd" stroke="#d4a017" points="727.46,-512.54 727.46,-527.46 610.43,-538 444.92,-538 327.89,-527.46 327.89,-512.54 444.92,-502 610.43,-502 727.46,-512.54"/>
<polygon fill="none" stroke="#d4a017" points="731.46,-508.89 731.46,-531.11 610.61,-542 444.74,-542 323.89,-531.11 323.89,-508.89 444.74,-498 610.61,-498 731.46,-508.89"/>
<text text-anchor="middle" x="527.68" y="-516.9" font-family="Helvetica" font-size="12.00">ScannerCorrectness.SimpleKeyValid_mono._proof_1</text>
</a>
</g>
</g>
<!-- L4YAML.Proofs.ScannerCorrectness.SimpleKeyValid_mono._proof_1&#45;&gt;L4YAML.Positioned -->
<g id="edge2" class="edge">
<title>L4YAML.Proofs.ScannerCorrectness.SimpleKeyValid_mono._proof_1&#45;&gt;L4YAML.Positioned</title>
<path fill="none" stroke="#4a90d9" stroke-width="2" d="M613.05,-541.87C676.43,-558.29 760.19,-580 807.78,-592.34"/>
<polygon fill="#4a90d9" stroke="#4a90d9" stroke-width="2" points="807.43,-594.78 814.82,-594.16 808.66,-590.03 807.43,-594.78"/>
<text text-anchor="middle" x="762.07" y="-584.6" font-family="Times-Roman" font-size="8.00" fill="#4a90d9">about</text>
</g>
<!-- L4YAML.Proofs.ScannerCorrectness.SimpleKeyValid_mono._proof_1&#45;&gt;L4YAML.Scanner.ScannerState -->
<g id="edge4" class="edge">
<title>L4YAML.Proofs.ScannerCorrectness.SimpleKeyValid_mono._proof_1&#45;&gt;L4YAML.Scanner.ScannerState</title>
<path fill="none" stroke="#4a90d9" stroke-width="2" d="M693.36,-534.57C733.09,-538.09 772.27,-541.56 800.86,-544.09"/>
<polygon fill="#4a90d9" stroke="#4a90d9" stroke-width="2" points="800.7,-546.53 807.89,-544.71 801.14,-541.65 800.7,-546.53"/>
<text text-anchor="middle" x="762.07" y="-543.6" font-family="Times-Roman" font-size="8.00" fill="#4a90d9">about</text>
</g>
<!-- L4YAML.Proofs.ScannerCorrectness.SimpleKeyValid_mono._proof_1&#45;&gt;L4YAML.YamlToken -->
<g id="edge3" class="edge">
<title>L4YAML.Proofs.ScannerCorrectness.SimpleKeyValid_mono._proof_1&#45;&gt;L4YAML.YamlToken</title>
<path fill="none" stroke="#4a90d9" stroke-width="2" d="M699.37,-505.97C739.83,-502.65 779.19,-499.41 806.78,-497.15"/>
<polygon fill="#4a90d9" stroke="#4a90d9" stroke-width="2" points="807.11,-499.58 813.89,-496.56 806.71,-494.69 807.11,-499.58"/>
<text text-anchor="middle" x="762.07" y="-503.6" font-family="Times-Roman" font-size="8.00" fill="#4a90d9">about</text>
</g>
<!-- L4YAML.Proofs.ScannerCorrectness.SimpleKeyValid_mono._proof_1&#45;&gt;L4YAML.Scanner.ScannerState.tokens -->
<g id="edge1" class="edge">
<title>L4YAML.Proofs.ScannerCorrectness.SimpleKeyValid_mono._proof_1&#45;&gt;L4YAML.Scanner.ScannerState.tokens</title>
<path fill="none" stroke="#4a90d9" stroke-width="2" d="M614.71,-498.25C668.78,-484.57 737.16,-467.28 785.33,-455.11"/>
<polygon fill="#4a90d9" stroke="#4a90d9" stroke-width="2" points="786.1,-457.44 792.28,-453.35 784.9,-452.69 786.1,-457.44"/>
<text text-anchor="middle" x="762.07" y="-465.6" font-family="Times-Roman" font-size="8.00" fill="#4a90d9">about</text>
</g>
<!-- Lean.Omega.Constraint.not_sat&#39;_of_isImpossible -->
<g id="node6" class="node">
<title>Lean.Omega.Constraint.not_sat&#39;_of_isImpossible</title>
<g id="a_node6"><a xlink:href="../../../api/Init/Omega/Constraint.html#Lean.Omega.Constraint.not_sat&#39;_of_isImpossible" xlink:title="Lean.Omega.Constraint.not_sat&#39;_of_isImpossible" target="_blank">
<ellipse fill="#fdebd0" stroke="#e67e22" cx="151.39" cy="-1006" rx="135.29" ry="18"/>
<text text-anchor="middle" x="151.39" y="-1003.5" font-family="Helvetica" font-size="10.00">Lean.Omega.Constraint.not_sat&#39;_of_isImpossible</text>
</a>
</g>
</g>
<!-- Lean.Omega.Constraint.not_sat&#39;_of_isImpossible&#45;&gt;L4YAML.Proofs.ScannerCorrectness.SimpleKeyValid_mono._proof_1 -->
<g id="edge5" class="edge">
<title>Lean.Omega.Constraint.not_sat&#39;_of_isImpossible&#45;&gt;L4YAML.Proofs.ScannerCorrectness.SimpleKeyValid_mono._proof_1</title>
<path fill="none" stroke="#e67e22" stroke-width="2" d="M262.89,-995.75C274.33,-991.64 285.24,-986.19 294.78,-979 444,-866.69 504.2,-631.45 521.22,-549.17"/>
<polygon fill="#e67e22" stroke="#e67e22" stroke-width="2" points="523.65,-549.49 522.64,-542.14 518.85,-548.52 523.65,-549.49"/>
</g>
<!-- of_decide_eq_true -->
<g id="node7" class="node">
<title>of_decide_eq_true</title>
<g id="a_node7"><a xlink:href="../../../api/Init/Prelude.html#of_decide_eq_true" xlink:title="of_decide_eq_true" target="_blank">
<ellipse fill="#fdebd0" stroke="#e67e22" cx="151.39" cy="-952" rx="56.52" ry="18"/>
<text text-anchor="middle" x="151.39" y="-949.5" font-family="Helvetica" font-size="10.00">of_decide_eq_true</text>
</a>
</g>
</g>
<!-- of_decide_eq_true&#45;&gt;L4YAML.Proofs.ScannerCorrectness.SimpleKeyValid_mono._proof_1 -->
<g id="edge6" class="edge">
<title>of_decide_eq_true&#45;&gt;L4YAML.Proofs.ScannerCorrectness.SimpleKeyValid_mono._proof_1</title>
<path fill="none" stroke="#e67e22" stroke-width="2" d="M208.04,-952.19C236.27,-949.78 269.79,-942.81 294.78,-925 430.62,-828.21 497.95,-625.2 519.11,-549.38"/>
<polygon fill="#e67e22" stroke="#e67e22" stroke-width="2" points="521.52,-549.85 521.01,-542.45 516.79,-548.55 521.52,-549.85"/>
</g>
<!-- le_of_le_of_eq -->
<g id="node8" class="node">
<title>le_of_le_of_eq</title>
<g id="a_node8"><a xlink:href="../../../api/Init/Core.html#le_of_le_of_eq" xlink:title="le_of_le_of_eq" target="_blank">
<ellipse fill="#fdebd0" stroke="#e67e22" cx="151.39" cy="-898" rx="47.19" ry="18"/>
<text text-anchor="middle" x="151.39" y="-895.5" font-family="Helvetica" font-size="10.00">le_of_le_of_eq</text>
</a>
</g>
</g>
<!-- le_of_le_of_eq&#45;&gt;L4YAML.Proofs.ScannerCorrectness.SimpleKeyValid_mono._proof_1 -->
<g id="edge7" class="edge">
<title>le_of_le_of_eq&#45;&gt;L4YAML.Proofs.ScannerCorrectness.SimpleKeyValid_mono._proof_1</title>
<path fill="none" stroke="#e67e22" stroke-width="2" d="M198.8,-898.22C228.45,-896.3 266.51,-889.82 294.78,-871 417.94,-789.05 491.38,-617.06 516.68,-548.8"/>
<polygon fill="#e67e22" stroke="#e67e22" stroke-width="2" points="519.01,-549.56 519.11,-542.14 514.41,-547.88 519.01,-549.56"/>
</g>
<!-- Lean.Omega.Constraint.combine_sat&#39; -->
<g id="node9" class="node">
<title>Lean.Omega.Constraint.combine_sat&#39;</title>
<g id="a_node9"><a xlink:href="../../../api/Init/Omega/Constraint.html#Lean.Omega.Constraint.combine_sat&#39;" xlink:title="Lean.Omega.Constraint.combine_sat&#39;" target="_blank">
<ellipse fill="#fdebd0" stroke="#e67e22" cx="151.39" cy="-844" rx="105.92" ry="18"/>
<text text-anchor="middle" x="151.39" y="-841.5" font-family="Helvetica" font-size="10.00">Lean.Omega.Constraint.combine_sat&#39;</text>
</a>
</g>
</g>
<!-- Lean.Omega.Constraint.combine_sat&#39;&#45;&gt;L4YAML.Proofs.ScannerCorrectness.SimpleKeyValid_mono._proof_1 -->
<g id="edge8" class="edge">
<title>Lean.Omega.Constraint.combine_sat&#39;&#45;&gt;L4YAML.Proofs.ScannerCorrectness.SimpleKeyValid_mono._proof_1</title>
<path fill="none" stroke="#e67e22" stroke-width="2" d="M246.72,-836.03C263.53,-831.9 280.28,-825.84 294.78,-817 405.03,-749.77 483.13,-609.64 513.11,-549"/>
<polygon fill="#e67e22" stroke="#e67e22" stroke-width="2" points="515.49,-549.72 516.37,-542.35 511.09,-547.56 515.49,-549.72"/>
</g>
<!-- Int.add_one_le_of_lt -->
<g id="node10" class="node">
<title>Int.add_one_le_of_lt</title>
<g id="a_node10"><a xlink:href="../../../api/Init/Data/Int/Order.html#Int.add_one_le_of_lt" xlink:title="Int.add_one_le_of_lt" target="_blank">
<ellipse fill="#fdebd0" stroke="#e67e22" cx="151.39" cy="-790" rx="61.44" ry="18"/>
<text text-anchor="middle" x="151.39" y="-787.5" font-family="Helvetica" font-size="10.00">Int.add_one_le_of_lt</text>
</a>
</g>
</g>
<!-- Int.add_one_le_of_lt&#45;&gt;L4YAML.Proofs.ScannerCorrectness.SimpleKeyValid_mono._proof_1 -->
<g id="edge9" class="edge">
<title>Int.add_one_le_of_lt&#45;&gt;L4YAML.Proofs.ScannerCorrectness.SimpleKeyValid_mono._proof_1</title>
<path fill="none" stroke="#e67e22" stroke-width="2" d="M211.96,-786.94C238.59,-783.56 269.59,-776.7 294.78,-763 392.99,-709.59 474.16,-599.9 508.73,-548.18"/>
<polygon fill="#e67e22" stroke="#e67e22" stroke-width="2" points="510.89,-549.35 512.71,-542.16 506.8,-546.65 510.89,-549.35"/>
</g>
<!-- Lean.Omega.Int.add_congr -->
<g id="node11" class="node">
<title>Lean.Omega.Int.add_congr</title>
<g id="a_node11"><a xlink:href="../../../api/Init/Omega/Int.html#Lean.Omega.Int.add_congr" xlink:title="Lean.Omega.Int.add_congr" target="_blank">
<ellipse fill="#fdebd0" stroke="#e67e22" cx="151.39" cy="-736" rx="78.76" ry="18"/>
<text text-anchor="middle" x="151.39" y="-733.5" font-family="Helvetica" font-size="10.00">Lean.Omega.Int.add_congr</text>
</a>
</g>
</g>
<!-- Lean.Omega.Int.add_congr&#45;&gt;L4YAML.Proofs.ScannerCorrectness.SimpleKeyValid_mono._proof_1 -->
<g id="edge10" class="edge">
<title>Lean.Omega.Int.add_congr&#45;&gt;L4YAML.Proofs.ScannerCorrectness.SimpleKeyValid_mono._proof_1</title>
<path fill="none" stroke="#e67e22" stroke-width="2" d="M224.8,-729.36C247.92,-725.41 273.11,-719.09 294.78,-709 381.03,-668.86 462.57,-589.4 501.99,-547.44"/>
<polygon fill="#e67e22" stroke="#e67e22" stroke-width="2" points="503.83,-549.06 506.81,-542.27 500.25,-545.72 503.83,-549.06"/>
</g>
<!-- Lean.Omega.LinearCombo.coordinate_eval_2 -->
<g id="node12" class="node">
<title>Lean.Omega.LinearCombo.coordinate_eval_2</title>
<g id="a_node12"><a xlink:href="../../../api/Init/Omega/LinearCombo.html#Lean.Omega.LinearCombo.coordinate_eval_2" xlink:title="Lean.Omega.LinearCombo.coordinate_eval_2" target="_blank">
<ellipse fill="#fdebd0" stroke="#e67e22" cx="151.39" cy="-682" rx="125.95" ry="18"/>
<text text-anchor="middle" x="151.39" y="-679.5" font-family="Helvetica" font-size="10.00">Lean.Omega.LinearCombo.coordinate_eval_2</text>
</a>
</g>
</g>
<!-- Lean.Omega.LinearCombo.coordinate_eval_2&#45;&gt;L4YAML.Proofs.ScannerCorrectness.SimpleKeyValid_mono._proof_1 -->
<g id="edge11" class="edge">
<title>Lean.Omega.LinearCombo.coordinate_eval_2&#45;&gt;L4YAML.Proofs.ScannerCorrectness.SimpleKeyValid_mono._proof_1</title>
<path fill="none" stroke="#e67e22" stroke-width="2" d="M242.91,-669.63C260.42,-665.9 278.4,-661.12 294.78,-655 368.77,-627.38 446.46,-577.14 490.5,-546.35"/>
<polygon fill="#e67e22" stroke="#e67e22" stroke-width="2" points="492.17,-548.17 496.49,-542.14 489.35,-544.16 492.17,-548.17"/>
</g>
<!-- Lean.Omega.combo_sat&#39; -->
<g id="node13" class="node">
<title>Lean.Omega.combo_sat&#39;</title>
<g id="a_node13"><a xlink:href="../../../api/Init/Omega/Constraint.html#Lean.Omega.combo_sat&#39;" xlink:title="Lean.Omega.combo_sat&#39;" target="_blank">
<ellipse fill="#fdebd0" stroke="#e67e22" cx="151.39" cy="-628" rx="73.67" ry="18"/>
<text text-anchor="middle" x="151.39" y="-625.5" font-family="Helvetica" font-size="10.00">Lean.Omega.combo_sat&#39;</text>
</a>
</g>
</g>
<!-- Lean.Omega.combo_sat&#39;&#45;&gt;L4YAML.Proofs.ScannerCorrectness.SimpleKeyValid_mono._proof_1 -->
<g id="edge12" class="edge">
<title>Lean.Omega.combo_sat&#39;&#45;&gt;L4YAML.Proofs.ScannerCorrectness.SimpleKeyValid_mono._proof_1</title>
<path fill="none" stroke="#e67e22" stroke-width="2" d="M213.82,-618.41C239.09,-613.94 268.54,-608.03 294.78,-601 353.28,-585.33 418.24,-562.12 464.49,-544.55"/>
<polygon fill="#e67e22" stroke="#e67e22" stroke-width="2" points="465.51,-546.79 471.18,-542.01 463.76,-542.21 465.51,-546.79"/>
</g>
<!-- Int.sub_nonneg_of_le -->
<g id="node14" class="node">
<title>Int.sub_nonneg_of_le</title>
<g id="a_node14"><a xlink:href="../../../api/Init/Data/Int/Order.html#Int.sub_nonneg_of_le" xlink:title="Int.sub_nonneg_of_le" target="_blank">
<ellipse fill="#fdebd0" stroke="#e67e22" cx="151.39" cy="-574" rx="64.33" ry="18"/>
<text text-anchor="middle" x="151.39" y="-571.5" font-family="Helvetica" font-size="10.00">Int.sub_nonneg_of_le</text>
</a>
</g>
</g>
<!-- Int.sub_nonneg_of_le&#45;&gt;L4YAML.Proofs.ScannerCorrectness.SimpleKeyValid_mono._proof_1 -->
<g id="edge13" class="edge">
<title>Int.sub_nonneg_of_le&#45;&gt;L4YAML.Proofs.ScannerCorrectness.SimpleKeyValid_mono._proof_1</title>
<path fill="none" stroke="#e67e22" stroke-width="2" d="M208.83,-565.86C257.7,-558.81 330.31,-548.33 393.8,-539.17"/>
<polygon fill="#e67e22" stroke="#e67e22" stroke-width="2" points="394.52,-541.54 401.1,-538.12 393.82,-536.69 394.52,-541.54"/>
</g>
<!-- Lean.Omega.Int.sub_congr -->
<g id="node15" class="node">
<title>Lean.Omega.Int.sub_congr</title>
<g id="a_node15"><a xlink:href="../../../api/Init/Omega/Int.html#Lean.Omega.Int.sub_congr" xlink:title="Lean.Omega.Int.sub_congr" target="_blank">
<ellipse fill="#fdebd0" stroke="#e67e22" cx="151.39" cy="-520" rx="78.76" ry="18"/>
<text text-anchor="middle" x="151.39" y="-517.5" font-family="Helvetica" font-size="10.00">Lean.Omega.Int.sub_congr</text>
</a>
</g>
</g>
<!-- Lean.Omega.Int.sub_congr&#45;&gt;L4YAML.Proofs.ScannerCorrectness.SimpleKeyValid_mono._proof_1 -->
<g id="edge14" class="edge">
<title>Lean.Omega.Int.sub_congr&#45;&gt;L4YAML.Proofs.ScannerCorrectness.SimpleKeyValid_mono._proof_1</title>
<path fill="none" stroke="#e67e22" stroke-width="2" d="M230.4,-520C255.99,-520 285.75,-520 316.36,-520"/>
<polygon fill="#e67e22" stroke="#e67e22" stroke-width="2" points="316.74,-522.45 323.74,-520 316.74,-517.55 316.74,-522.45"/>
</g>
<!-- Lean.Omega.tidy_sat -->
<g id="node16" class="node">
<title>Lean.Omega.tidy_sat</title>
<g id="a_node16"><a xlink:href="../../../api/Init/Omega/Constraint.html#Lean.Omega.tidy_sat" xlink:title="Lean.Omega.tidy_sat" target="_blank">
<ellipse fill="#fdebd0" stroke="#e67e22" cx="151.39" cy="-466" rx="64.51" ry="18"/>
<text text-anchor="middle" x="151.39" y="-463.5" font-family="Helvetica" font-size="10.00">Lean.Omega.tidy_sat</text>
</a>
</g>
</g>
<!-- Lean.Omega.tidy_sat&#45;&gt;L4YAML.Proofs.ScannerCorrectness.SimpleKeyValid_mono._proof_1 -->
<g id="edge15" class="edge">
<title>Lean.Omega.tidy_sat&#45;&gt;L4YAML.Proofs.ScannerCorrectness.SimpleKeyValid_mono._proof_1</title>
<path fill="none" stroke="#e67e22" stroke-width="2" d="M209.24,-474.2C258.07,-481.25 330.41,-491.68 393.7,-500.81"/>
<polygon fill="#e67e22" stroke="#e67e22" stroke-width="2" points="393.69,-503.29 400.97,-501.86 394.39,-498.44 393.69,-503.29"/>
</g>
<!-- Lean.Omega.LinearCombo.coordinate_eval_0 -->
<g id="node17" class="node">
<title>Lean.Omega.LinearCombo.coordinate_eval_0</title>
<g id="a_node17"><a xlink:href="../../../api/Init/Omega/LinearCombo.html#Lean.Omega.LinearCombo.coordinate_eval_0" xlink:title="Lean.Omega.LinearCombo.coordinate_eval_0" target="_blank">
<ellipse fill="#fdebd0" stroke="#e67e22" cx="151.39" cy="-412" rx="125.95" ry="18"/>
<text text-anchor="middle" x="151.39" y="-409.5" font-family="Helvetica" font-size="10.00">Lean.Omega.LinearCombo.coordinate_eval_0</text>
</a>
</g>
</g>
<!-- Lean.Omega.LinearCombo.coordinate_eval_0&#45;&gt;L4YAML.Proofs.ScannerCorrectness.SimpleKeyValid_mono._proof_1 -->
<g id="edge16" class="edge">
<title>Lean.Omega.LinearCombo.coordinate_eval_0&#45;&gt;L4YAML.Proofs.ScannerCorrectness.SimpleKeyValid_mono._proof_1</title>
<path fill="none" stroke="#e67e22" stroke-width="2" d="M257.29,-421.89C270.57,-425.96 283.46,-431.5 294.78,-439 301.46,-443.43 298.34,-449.24 304.78,-454 333.28,-475.04 368.45,-489.41 402.32,-499.22"/>
<polygon fill="#e67e22" stroke="#e67e22" stroke-width="2" points="401.68,-501.58 409.08,-501.12 403,-496.86 401.68,-501.58"/>
</g>
<!-- Lean.Omega.LinearCombo.add_eval -->
<g id="node18" class="node">
<title>Lean.Omega.LinearCombo.add_eval</title>
<g id="a_node18"><a xlink:href="../../../api/Init/Omega/LinearCombo.html#Lean.Omega.LinearCombo.add_eval" xlink:title="Lean.Omega.LinearCombo.add_eval" target="_blank">
<ellipse fill="#fdebd0" stroke="#e67e22" cx="151.39" cy="-358" rx="102.35" ry="18"/>
<text text-anchor="middle" x="151.39" y="-355.5" font-family="Helvetica" font-size="10.00">Lean.Omega.LinearCombo.add_eval</text>
</a>
</g>
</g>
<!-- Lean.Omega.LinearCombo.add_eval&#45;&gt;L4YAML.Proofs.ScannerCorrectness.SimpleKeyValid_mono._proof_1 -->
<g id="edge17" class="edge">
<title>Lean.Omega.LinearCombo.add_eval&#45;&gt;L4YAML.Proofs.ScannerCorrectness.SimpleKeyValid_mono._proof_1</title>
<path fill="none" stroke="#e67e22" stroke-width="2" d="M251.74,-361.75C267.68,-366.34 282.83,-373.65 294.78,-385 308.39,-397.91 292.64,-411.71 304.78,-426 334.56,-461.02 379.65,-483.29 421.43,-497.31"/>
<polygon fill="#e67e22" stroke="#e67e22" stroke-width="2" points="420.68,-499.65 428.1,-499.49 422.21,-494.99 420.68,-499.65"/>
</g>
<!-- Lean.Omega.LinearCombo.sub_eval -->
<g id="node19" class="node">
<title>Lean.Omega.LinearCombo.sub_eval</title>
<g id="a_node19"><a xlink:href="../../../api/Init/Omega/LinearCombo.html#Lean.Omega.LinearCombo.sub_eval" xlink:title="Lean.Omega.LinearCombo.sub_eval" target="_blank">
<ellipse fill="#fdebd0" stroke="#e67e22" cx="151.39" cy="-304" rx="102.35" ry="18"/>
<text text-anchor="middle" x="151.39" y="-301.5" font-family="Helvetica" font-size="10.00">Lean.Omega.LinearCombo.sub_eval</text>
</a>
</g>
</g>
<!-- Lean.Omega.LinearCombo.sub_eval&#45;&gt;L4YAML.Proofs.ScannerCorrectness.SimpleKeyValid_mono._proof_1 -->
<g id="edge18" class="edge">
<title>Lean.Omega.LinearCombo.sub_eval&#45;&gt;L4YAML.Proofs.ScannerCorrectness.SimpleKeyValid_mono._proof_1</title>
<path fill="none" stroke="#e67e22" stroke-width="2" d="M252.5,-306.98C268.36,-311.65 283.29,-319.19 294.78,-331 314.25,-351.01 288.9,-370.05 304.78,-393 339.24,-442.77 399.95,-475.56 449.17,-495.33"/>
<polygon fill="#e67e22" stroke="#e67e22" stroke-width="2" points="448.32,-497.63 455.73,-497.91 450.12,-493.07 448.32,-497.63"/>
</g>
<!-- Lean.Omega.Int.ofNat_lt_of_lt -->
<g id="node20" class="node">
<title>Lean.Omega.Int.ofNat_lt_of_lt</title>
<g id="a_node20"><a xlink:href="../../../api/Init/Omega/Int.html#Lean.Omega.Int.ofNat_lt_of_lt" xlink:title="Lean.Omega.Int.ofNat_lt_of_lt" target="_blank">
<ellipse fill="#fdebd0" stroke="#e67e22" cx="151.39" cy="-250" rx="86.57" ry="18"/>
<text text-anchor="middle" x="151.39" y="-247.5" font-family="Helvetica" font-size="10.00">Lean.Omega.Int.ofNat_lt_of_lt</text>
</a>
</g>
</g>
<!-- Lean.Omega.Int.ofNat_lt_of_lt&#45;&gt;L4YAML.Proofs.ScannerCorrectness.SimpleKeyValid_mono._proof_1 -->
<g id="edge19" class="edge">
<title>Lean.Omega.Int.ofNat_lt_of_lt&#45;&gt;L4YAML.Proofs.ScannerCorrectness.SimpleKeyValid_mono._proof_1</title>
<path fill="none" stroke="#e67e22" stroke-width="2" d="M238.06,-249.19C259.2,-253.18 280,-261.38 294.78,-277 317.9,-301.42 287.85,-322.95 304.78,-352 343.48,-418.39 419.73,-467.13 471.94,-494.53"/>
<polygon fill="#e67e22" stroke="#e67e22" stroke-width="2" points="470.84,-496.72 478.19,-497.76 473.1,-492.37 470.84,-496.72"/>
</g>
<!-- Lean.Omega.Int.ofNat_le_of_le -->
<g id="node21" class="node">
<title>Lean.Omega.Int.ofNat_le_of_le</title>
<g id="a_node21"><a xlink:href="../../../api/Init/Omega/Int.html#Lean.Omega.Int.ofNat_le_of_le" xlink:title="Lean.Omega.Int.ofNat_le_of_le" target="_blank">
<ellipse fill="#fdebd0" stroke="#e67e22" cx="151.39" cy="-196" rx="89.45" ry="18"/>
<text text-anchor="middle" x="151.39" y="-193.5" font-family="Helvetica" font-size="10.00">Lean.Omega.Int.ofNat_le_of_le</text>
</a>
</g>
</g>
<!-- Lean.Omega.Int.ofNat_le_of_le&#45;&gt;L4YAML.Proofs.ScannerCorrectness.SimpleKeyValid_mono._proof_1 -->
<g id="edge20" class="edge">
<title>Lean.Omega.Int.ofNat_le_of_le&#45;&gt;L4YAML.Proofs.ScannerCorrectness.SimpleKeyValid_mono._proof_1</title>
<path fill="none" stroke="#e67e22" stroke-width="2" d="M240.95,-195.85C261.06,-200.03 280.63,-208.16 294.78,-223 316.78,-246.06 290.69,-265.42 304.78,-294 347.87,-381.38 437.6,-456.06 488.77,-493.77"/>
<polygon fill="#e67e22" stroke="#e67e22" stroke-width="2" points="487.41,-495.81 494.51,-497.96 490.3,-491.85 487.41,-495.81"/>
</g>
<!-- Lean.Omega.Constraint.addInequality_sat -->
<g id="node22" class="node">
<title>Lean.Omega.Constraint.addInequality_sat</title>
<g id="a_node22"><a xlink:href="../../../api/Init/Omega/Constraint.html#Lean.Omega.Constraint.addInequality_sat" xlink:title="Lean.Omega.Constraint.addInequality_sat" target="_blank">
<ellipse fill="#fdebd0" stroke="#e67e22" cx="151.39" cy="-142" rx="117.29" ry="18"/>
<text text-anchor="middle" x="151.39" y="-139.5" font-family="Helvetica" font-size="10.00">Lean.Omega.Constraint.addInequality_sat</text>
</a>
</g>
</g>
<!-- Lean.Omega.Constraint.addInequality_sat&#45;&gt;L4YAML.Proofs.ScannerCorrectness.SimpleKeyValid_mono._proof_1 -->
<g id="edge21" class="edge">
<title>Lean.Omega.Constraint.addInequality_sat&#45;&gt;L4YAML.Proofs.ScannerCorrectness.SimpleKeyValid_mono._proof_1</title>
<path fill="none" stroke="#e67e22" stroke-width="2" d="M260.07,-148.92C272.84,-153.46 284.84,-159.92 294.78,-169 306.73,-179.91 297.82,-189.4 304.78,-204 360.22,-320.16 457.32,-439.83 502.4,-492.41"/>
<polygon fill="#e67e22" stroke="#e67e22" stroke-width="2" points="500.69,-494.18 507.12,-497.88 504.41,-490.98 500.69,-494.18"/>
</g>
<!-- Nat.le_of_not_lt -->
<g id="node23" class="node">
<title>Nat.le_of_not_lt</title>
<g id="a_node23"><a xlink:href="../../../api/Init/Data/Nat/Basic.html#Nat.le_of_not_lt" xlink:title="Nat.le_of_not_lt" target="_blank">
<ellipse fill="#fdebd0" stroke="#e67e22" cx="151.39" cy="-88" rx="50.07" ry="18"/>
<text text-anchor="middle" x="151.39" y="-85.5" font-family="Helvetica" font-size="10.00">Nat.le_of_not_lt</text>
</a>
</g>
</g>
<!-- Nat.le_of_not_lt&#45;&gt;L4YAML.Proofs.ScannerCorrectness.SimpleKeyValid_mono._proof_1 -->
<g id="edge22" class="edge">
<title>Nat.le_of_not_lt&#45;&gt;L4YAML.Proofs.ScannerCorrectness.SimpleKeyValid_mono._proof_1</title>
<path fill="none" stroke="#e67e22" stroke-width="2" d="M201.55,-87.32C231,-89.2 267.84,-95.8 294.78,-115 430.62,-211.79 497.95,-414.8 519.11,-490.62"/>
<polygon fill="#e67e22" stroke="#e67e22" stroke-width="2" points="516.79,-491.45 521.01,-497.55 521.52,-490.15 516.79,-491.45"/>
</g>
<!-- Lean.Omega.LinearCombo.coordinate_eval_1 -->
<g id="node24" class="node">
<title>Lean.Omega.LinearCombo.coordinate_eval_1</title>
<g id="a_node24"><a xlink:href="../../../api/Init/Omega/LinearCombo.html#Lean.Omega.LinearCombo.coordinate_eval_1" xlink:title="Lean.Omega.LinearCombo.coordinate_eval_1" target="_blank">
<ellipse fill="#fdebd0" stroke="#e67e22" cx="151.39" cy="-34" rx="125.95" ry="18"/>
<text text-anchor="middle" x="151.39" y="-31.5" font-family="Helvetica" font-size="10.00">Lean.Omega.LinearCombo.coordinate_eval_1</text>
</a>
</g>
</g>
<!-- Lean.Omega.LinearCombo.coordinate_eval_1&#45;&gt;L4YAML.Proofs.ScannerCorrectness.SimpleKeyValid_mono._proof_1 -->
<g id="edge23" class="edge">
<title>Lean.Omega.LinearCombo.coordinate_eval_1&#45;&gt;L4YAML.Proofs.ScannerCorrectness.SimpleKeyValid_mono._proof_1</title>
<path fill="none" stroke="#e67e22" stroke-width="2" d="M260,-43.24C272.48,-47.46 284.43,-53.21 294.78,-61 444,-173.31 504.2,-408.55 521.22,-490.83"/>
<polygon fill="#e67e22" stroke="#e67e22" stroke-width="2" points="518.85,-491.48 522.64,-497.86 523.65,-490.51 518.85,-491.48"/>
</g>
</g>
</svg>
