<?xml version="1.0" encoding="UTF-8" standalone="no"?>
<!DOCTYPE svg PUBLIC "-//W3C//DTD SVG 1.1//EN"
 "http://www.w3.org/Graphics/SVG/1.1/DTD/svg11.dtd">
<!-- Generated by graphviz version 2.44.0 (0)
 -->
<!-- Title: ParserCompleteness.grammar_value_roundtrip Pages: 1 -->
<svg width="526pt" height="156pt"
 viewBox="0.00 0.00 526.00 156.00" xmlns="http://www.w3.org/2000/svg" xmlns:xlink="http://www.w3.org/1999/xlink">
<g id="graph0" class="graph" transform="scale(1 1) rotate(0) translate(4 152)">
<title>ParserCompleteness.grammar_value_roundtrip</title>
<polygon fill="white" stroke="transparent" points="-4,4 -4,-152 522,-152 522,4 -4,4"/>
<text text-anchor="middle" x="259" y="-133.6" font-family="Helvetica Bold" font-size="13.00">ParserCompleteness.grammar_value_roundtrip</text>
<text text-anchor="middle" x="259" y="-119.6" font-family="Helvetica Bold" font-size="13.00">3.12 Every grammable value round&#45;trips through the grammar (noncomputable)</text>
<text text-anchor="middle" x="259" y="-105.6" font-family="Helvetica Bold" font-size="13.00">(L4YAML.Proofs.Parser.ParserCompleteness)</text>
<g id="clust2" class="cluster">
<title>cluster_key</title>
<polygon fill="none" stroke="#d4a017" stroke-dasharray="5,2" points="67.76,-8 67.76,-90 450.24,-90 450.24,-8 67.76,-8"/>
<text text-anchor="middle" x="259" y="-75.6" font-family="Helvetica Bold" font-size="13.00" fill="#d4a017">Key Theorem</text>
</g>
<!-- L4YAML.Proofs.ParserCompleteness.grammar_value_roundtrip -->
<g id="node1" class="node">
<title>L4YAML.Proofs.ParserCompleteness.grammar_value_roundtrip</title>
<g id="a_node1"><a xlink:href="../../../api/L4YAML/Proofs/Parser/ParserCompleteness.html#L4YAML.Proofs.ParserCompleteness.grammar_value_roundtrip" xlink:title="ParserCompleteness.grammar_value_roundtrip" target="_blank">
<polygon fill="#fff3cd" stroke="#d4a017" points="438.47,-30.54 438.47,-45.46 333.34,-56 184.66,-56 79.53,-45.46 79.53,-30.54 184.66,-20 333.34,-20 438.47,-30.54"/>
<polygon fill="none" stroke="#d4a017" points="442.47,-26.93 442.47,-49.07 333.54,-60 184.46,-60 75.53,-49.07 75.53,-26.93 184.46,-16 333.54,-16 442.47,-26.93"/>
<text text-anchor="middle" x="259" y="-34.9" font-family="Helvetica" font-size="12.00">ParserCompleteness.grammar_value_roundtrip</text>
</a>
</g>
</g>
</g>
</svg>
