<?xml version="1.0" encoding="UTF-8" standalone="no"?>
<!DOCTYPE svg PUBLIC "-//W3C//DTD SVG 1.1//EN"
 "http://www.w3.org/Graphics/SVG/1.1/DTD/svg11.dtd">
<!-- Generated by graphviz version 2.44.0 (0)
 -->
<!-- Title: ScanStrictCoupling.unwindIndentsLoop_input Pages: 1 -->
<svg width="804pt" height="1658pt"
 viewBox="0.00 0.00 803.90 1658.00" xmlns="http://www.w3.org/2000/svg" xmlns:xlink="http://www.w3.org/1999/xlink">
<g id="graph0" class="graph" transform="scale(1 1) rotate(0) translate(4 1654)">
<title>ScanStrictCoupling.unwindIndentsLoop_input</title>
<polygon fill="white" stroke="transparent" points="-4,4 -4,-1654 799.9,-1654 799.9,4 -4,4"/>
<text text-anchor="middle" x="397.95" y="-1635.6" font-family="Helvetica Bold" font-size="13.00">ScanStrictCoupling.unwindIndentsLoop_input</text>
<text text-anchor="middle" x="397.95" y="-1621.6" font-family="Helvetica Bold" font-size="13.00">(heuristic: used by 6 proofs)</text>
<text text-anchor="middle" x="397.95" y="-1607.6" font-family="Helvetica Bold" font-size="13.00">(L4YAML.Proofs.Scanner.ScanStrictCoupling)</text>
<g id="clust1" class="cluster">
<title>cluster_functions</title>
<polygon fill="none" stroke="#4a90d9" stroke-dasharray="5,2" points="345.5,-222 345.5,-1592 787.9,-1592 787.9,-222 345.5,-222"/>
<text text-anchor="middle" x="566.7" y="-1577.6" font-family="Helvetica Bold" font-size="13.00" fill="#4a90d9">Functions</text>
</g>
<g id="clust2" class="cluster">
<title>cluster_key</title>
<polygon fill="none" stroke="#d4a017" stroke-dasharray="5,2" points="254.09,-8 254.09,-90 625.9,-90 625.9,-8 254.09,-8"/>
<text text-anchor="middle" x="440" y="-75.6" font-family="Helvetica Bold" font-size="13.00" fill="#d4a017">Key Theorem</text>
</g>
<g id="clust3" class="cluster">
<title>cluster_proofs</title>
<polygon fill="none" stroke="#28a745" stroke-dasharray="5,2" points="8,-759 8,-839 212.09,-839 212.09,-759 8,-759"/>
<text text-anchor="middle" x="110.05" y="-824.6" font-family="Helvetica Bold" font-size="13.00" fill="#28a745">Proof Dependencies</text>
</g>
<!-- L4YAML.Scanner.ScannerState.line -->
<g id="node1" class="node">
<title>L4YAML.Scanner.ScannerState.line</title>
<g id="a_node1"><a xlink:href="../../../api/L4YAML/Scanner/State.html#L4YAML.Scanner.ScannerState.line" xlink:title="ScannerState.line\n(def)" target="_blank">
<polygon fill="#dce9f7" stroke="#4a90d9" points="487,-1562 393,-1562 393,-1526 487,-1526 487,-1562"/>
<text text-anchor="middle" x="440" y="-1547" font-family="Helvetica" font-size="10.00">ScannerState.line</text>
<text text-anchor="middle" x="440" y="-1536" font-family="Helvetica" font-size="10.00">(def)</text>
</a>
</g>
</g>
<!-- L4YAML.Scanner.ScannerState.flowLevel -->
<g id="node2" class="node">
<title>L4YAML.Scanner.ScannerState.flowLevel</title>
<g id="a_node2"><a xlink:href="../../../api/L4YAML/Scanner/State.html#L4YAML.Scanner.ScannerState.flowLevel" xlink:title="ScannerState.flowLevel\n(def)" target="_blank">
<polygon fill="#dce9f7" stroke="#4a90d9" points="499.5,-1508 380.5,-1508 380.5,-1472 499.5,-1472 499.5,-1508"/>
<text text-anchor="middle" x="440" y="-1493" font-family="Helvetica" font-size="10.00">ScannerState.flowLevel</text>
<text text-anchor="middle" x="440" y="-1482" font-family="Helvetica" font-size="10.00">(def)</text>
</a>
</g>
</g>
<!-- L4YAML.Scanner.ScannerState.documentEverStarted -->
<g id="node3" class="node">
<title>L4YAML.Scanner.ScannerState.documentEverStarted</title>
<g id="a_node3"><a xlink:href="../../../api/L4YAML/Scanner/State.html#L4YAML.Scanner.ScannerState.documentEverStarted" xlink:title="ScannerState.documentEverStarted\n(def)" target="_blank">
<polygon fill="#dce9f7" stroke="#4a90d9" points="526.5,-1454 353.5,-1454 353.5,-1418 526.5,-1418 526.5,-1454"/>
<text text-anchor="middle" x="440" y="-1439" font-family="Helvetica" font-size="10.00">ScannerState.documentEverStarted</text>
<text text-anchor="middle" x="440" y="-1428" font-family="Helvetica" font-size="10.00">(def)</text>
</a>
</g>
</g>
<!-- L4YAML.Scanner.ScannerState.simpleKeyAllowed -->
<g id="node4" class="node">
<title>L4YAML.Scanner.ScannerState.simpleKeyAllowed</title>
<g id="a_node4"><a xlink:href="../../../api/L4YAML/Scanner/State.html#L4YAML.Scanner.ScannerState.simpleKeyAllowed" xlink:title="ScannerState.simpleKeyAllowed\n(def)" target="_blank">
<polygon fill="#dce9f7" stroke="#4a90d9" points="519,-1400 361,-1400 361,-1364 519,-1364 519,-1400"/>
<text text-anchor="middle" x="440" y="-1385" font-family="Helvetica" font-size="10.00">ScannerState.simpleKeyAllowed</text>
<text text-anchor="middle" x="440" y="-1374" font-family="Helvetica" font-size="10.00">(def)</text>
</a>
</g>
</g>
<!-- L4YAML.Scanner.ScannerState.currentIndent -->
<g id="node5" class="node">
<title>L4YAML.Scanner.ScannerState.currentIndent</title>
<g id="a_node5"><a xlink:href="../../../api/L4YAML/Scanner/State.html#L4YAML.Scanner.ScannerState.currentIndent" xlink:title="ScannerState.currentIndent\n(def)" target="_blank">
<polygon fill="#dce9f7" stroke="#4a90d9" points="508,-1346 372,-1346 372,-1310 508,-1310 508,-1346"/>
<text text-anchor="middle" x="440" y="-1331" font-family="Helvetica" font-size="10.00">ScannerState.currentIndent</text>
<text text-anchor="middle" x="440" y="-1320" font-family="Helvetica" font-size="10.00">(def)</text>
</a>
</g>
</g>
<!-- L4YAML.YamlToken.blockEnd -->
<g id="node6" class="node">
<title>L4YAML.YamlToken.blockEnd</title>
<g id="a_node6"><a xlink:href="../../../api/L4YAML/Token/Token.html#L4YAML.YamlToken.blockEnd" xlink:title="YamlToken.blockEnd\n(ctor)" target="_blank">
<polygon fill="#dce9f7" stroke="#4a90d9" points="493.5,-1292 386.5,-1292 386.5,-1256 493.5,-1256 493.5,-1292"/>
<text text-anchor="middle" x="440" y="-1277" font-family="Helvetica" font-size="10.00">YamlToken.blockEnd</text>
<text text-anchor="middle" x="440" y="-1266" font-family="Helvetica" font-size="10.00">(ctor)</text>
</a>
</g>
</g>
<!-- L4YAML.Scanner.ScannerState.tokens -->
<g id="node7" class="node">
<title>L4YAML.Scanner.ScannerState.tokens</title>
<g id="a_node7"><a xlink:href="../../../api/L4YAML/Scanner/State.html#L4YAML.Scanner.ScannerState.tokens" xlink:title="ScannerState.tokens\n(def)" target="_blank">
<polygon fill="#dce9f7" stroke="#4a90d9" points="493.5,-1238 386.5,-1238 386.5,-1202 493.5,-1202 493.5,-1238"/>
<text text-anchor="middle" x="440" y="-1223" font-family="Helvetica" font-size="10.00">ScannerState.tokens</text>
<text text-anchor="middle" x="440" y="-1212" font-family="Helvetica" font-size="10.00">(def)</text>
</a>
</g>
</g>
<!-- L4YAML.Scanner.unwindIndentsLoop -->
<g id="node8" class="node">
<title>L4YAML.Scanner.unwindIndentsLoop</title>
<g id="a_node8"><a xlink:href="../../../api/L4YAML/Scanner/Indent.html#L4YAML.Scanner.unwindIndentsLoop" xlink:title="unwindIndentsLoop\n(def)" target="_blank">
<polygon fill="#dce9f7" stroke="#4a90d9" points="779.9,-374 678.9,-374 678.9,-338 779.9,-338 779.9,-374"/>
<text text-anchor="middle" x="729.4" y="-359" font-family="Helvetica" font-size="10.00">unwindIndentsLoop</text>
<text text-anchor="middle" x="729.4" y="-348" font-family="Helvetica" font-size="10.00">(def)</text>
</a>
</g>
</g>
<!-- L4YAML.Scanner.ScannerState.comments -->
<g id="node9" class="node">
<title>L4YAML.Scanner.ScannerState.comments</title>
<g id="a_node9"><a xlink:href="../../../api/L4YAML/Scanner/State.html#L4YAML.Scanner.ScannerState.comments" xlink:title="ScannerState.comments\n(def)" target="_blank">
<polygon fill="#dce9f7" stroke="#4a90d9" points="502.5,-1184 377.5,-1184 377.5,-1148 502.5,-1148 502.5,-1184"/>
<text text-anchor="middle" x="440" y="-1169" font-family="Helvetica" font-size="10.00">ScannerState.comments</text>
<text text-anchor="middle" x="440" y="-1158" font-family="Helvetica" font-size="10.00">(def)</text>
</a>
</g>
</g>
<!-- L4YAML.Scanner.ScannerState.allowDirectives -->
<g id="node10" class="node">
<title>L4YAML.Scanner.ScannerState.allowDirectives</title>
<g id="a_node10"><a xlink:href="../../../api/L4YAML/Scanner/State.html#L4YAML.Scanner.ScannerState.allowDirectives" xlink:title="ScannerState.allowDirectives\n(def)" target="_blank">
<polygon fill="#dce9f7" stroke="#4a90d9" points="512.5,-1130 367.5,-1130 367.5,-1094 512.5,-1094 512.5,-1130"/>
<text text-anchor="middle" x="440" y="-1115" font-family="Helvetica" font-size="10.00">ScannerState.allowDirectives</text>
<text text-anchor="middle" x="440" y="-1104" font-family="Helvetica" font-size="10.00">(def)</text>
</a>
</g>
</g>
<!-- L4YAML.Scanner.ScannerState.flowStack -->
<g id="node11" class="node">
<title>L4YAML.Scanner.ScannerState.flowStack</title>
<g id="a_node11"><a xlink:href="../../../api/L4YAML/Scanner/State.html#L4YAML.Scanner.ScannerState.flowStack" xlink:title="ScannerState.flowStack\n(def)" target="_blank">
<polygon fill="#dce9f7" stroke="#4a90d9" points="501,-1076 379,-1076 379,-1040 501,-1040 501,-1076"/>
<text text-anchor="middle" x="440" y="-1061" font-family="Helvetica" font-size="10.00">ScannerState.flowStack</text>
<text text-anchor="middle" x="440" y="-1050" font-family="Helvetica" font-size="10.00">(def)</text>
</a>
</g>
</g>
<!-- L4YAML.Scanner.ScannerState.inputEnd -->
<g id="node12" class="node">
<title>L4YAML.Scanner.ScannerState.inputEnd</title>
<g id="a_node12"><a xlink:href="../../../api/L4YAML/Scanner/State.html#L4YAML.Scanner.ScannerState.inputEnd" xlink:title="ScannerState.inputEnd\n(def)" target="_blank">
<polygon fill="#dce9f7" stroke="#4a90d9" points="498.5,-1022 381.5,-1022 381.5,-986 498.5,-986 498.5,-1022"/>
<text text-anchor="middle" x="440" y="-1007" font-family="Helvetica" font-size="10.00">ScannerState.inputEnd</text>
<text text-anchor="middle" x="440" y="-996" font-family="Helvetica" font-size="10.00">(def)</text>
</a>
</g>
</g>
<!-- L4YAML.Scanner.ScannerState.simpleKey -->
<g id="node13" class="node">
<title>L4YAML.Scanner.ScannerState.simpleKey</title>
<g id="a_node13"><a xlink:href="../../../api/L4YAML/Scanner/State.html#L4YAML.Scanner.ScannerState.simpleKey" xlink:title="ScannerState.simpleKey\n(def)" target="_blank">
<polygon fill="#dce9f7" stroke="#4a90d9" points="502,-968 378,-968 378,-932 502,-932 502,-968"/>
<text text-anchor="middle" x="440" y="-953" font-family="Helvetica" font-size="10.00">ScannerState.simpleKey</text>
<text text-anchor="middle" x="440" y="-942" font-family="Helvetica" font-size="10.00">(def)</text>
</a>
</g>
</g>
<!-- L4YAML.Scanner.ScannerState.emit -->
<g id="node14" class="node">
<title>L4YAML.Scanner.ScannerState.emit</title>
<g id="a_node14"><a xlink:href="../../../api/L4YAML/Scanner/State.html#L4YAML.Scanner.ScannerState.emit" xlink:title="ScannerState.emit\n(def)" target="_blank">
<polygon fill="#dce9f7" stroke="#4a90d9" points="489,-914 391,-914 391,-878 489,-878 489,-914"/>
<text text-anchor="middle" x="440" y="-899" font-family="Helvetica" font-size="10.00">ScannerState.emit</text>
<text text-anchor="middle" x="440" y="-888" font-family="Helvetica" font-size="10.00">(def)</text>
</a>
</g>
</g>
<!-- L4YAML.Scanner.ScannerState.input -->
<g id="node15" class="node">
<title>L4YAML.Scanner.ScannerState.input</title>
<g id="a_node15"><a xlink:href="../../../api/L4YAML/Scanner/State.html#L4YAML.Scanner.ScannerState.input" xlink:title="ScannerState.input\n(def)" target="_blank">
<polygon fill="#dce9f7" stroke="#4a90d9" points="779.4,-320 679.4,-320 679.4,-284 779.4,-284 779.4,-320"/>
<text text-anchor="middle" x="729.4" y="-305" font-family="Helvetica" font-size="10.00">ScannerState.input</text>
<text text-anchor="middle" x="729.4" y="-294" font-family="Helvetica" font-size="10.00">(def)</text>
</a>
</g>
</g>
<!-- L4YAML.Scanner.ScannerState.explicitKeyLine -->
<g id="node16" class="node">
<title>L4YAML.Scanner.ScannerState.explicitKeyLine</title>
<g id="a_node16"><a xlink:href="../../../api/L4YAML/Scanner/State.html#L4YAML.Scanner.ScannerState.explicitKeyLine" xlink:title="ScannerState.explicitKeyLine\n(def)" target="_blank">
<polygon fill="#dce9f7" stroke="#4a90d9" points="512,-860 368,-860 368,-824 512,-824 512,-860"/>
<text text-anchor="middle" x="440" y="-845" font-family="Helvetica" font-size="10.00">ScannerState.explicitKeyLine</text>
<text text-anchor="middle" x="440" y="-834" font-family="Helvetica" font-size="10.00">(def)</text>
</a>
</g>
</g>
<!-- L4YAML.Scanner.ScannerState.mk -->
<g id="node17" class="node">
<title>L4YAML.Scanner.ScannerState.mk</title>
<g id="a_node17"><a xlink:href="../../../api/L4YAML/Scanner/State.html#L4YAML.Scanner.ScannerState.mk" xlink:title="ScannerState.mk\n(ctor)" target="_blank">
<polygon fill="#dce9f7" stroke="#4a90d9" points="486,-806 394,-806 394,-770 486,-770 486,-806"/>
<text text-anchor="middle" x="440" y="-791" font-family="Helvetica" font-size="10.00">ScannerState.mk</text>
<text text-anchor="middle" x="440" y="-780" font-family="Helvetica" font-size="10.00">(ctor)</text>
</a>
</g>
</g>
<!-- L4YAML.Scanner.ScannerState -->
<g id="node18" class="node">
<title>L4YAML.Scanner.ScannerState</title>
<g id="a_node18"><a xlink:href="../../../api/L4YAML/Scanner/State.html#L4YAML.Scanner.ScannerState" xlink:title="ScannerState\n(inductive)" target="_blank">
<polygon fill="#dce9f7" stroke="#4a90d9" points="767.4,-266 691.4,-266 691.4,-230 767.4,-230 767.4,-266"/>
<text text-anchor="middle" x="729.4" y="-251" font-family="Helvetica" font-size="10.00">ScannerState</text>
<text text-anchor="middle" x="729.4" y="-240" font-family="Helvetica" font-size="10.00">(inductive)</text>
</a>
</g>
</g>
<!-- L4YAML.Scanner.ScannerState.seenYamlDirective -->
<g id="node19" class="node">
<title>L4YAML.Scanner.ScannerState.seenYamlDirective</title>
<g id="a_node19"><a xlink:href="../../../api/L4YAML/Scanner/State.html#L4YAML.Scanner.ScannerState.seenYamlDirective" xlink:title="ScannerState.seenYamlDirective\n(def)" target="_blank">
<polygon fill="#dce9f7" stroke="#4a90d9" points="520,-752 360,-752 360,-716 520,-716 520,-752"/>
<text text-anchor="middle" x="440" y="-737" font-family="Helvetica" font-size="10.00">ScannerState.seenYamlDirective</text>
<text text-anchor="middle" x="440" y="-726" font-family="Helvetica" font-size="10.00">(def)</text>
</a>
</g>
</g>
<!-- L4YAML.Scanner.ScannerState.indents -->
<g id="node20" class="node">
<title>L4YAML.Scanner.ScannerState.indents</title>
<g id="a_node20"><a xlink:href="../../../api/L4YAML/Scanner/State.html#L4YAML.Scanner.ScannerState.indents" xlink:title="ScannerState.indents\n(def)" target="_blank">
<polygon fill="#dce9f7" stroke="#4a90d9" points="495,-698 385,-698 385,-662 495,-662 495,-698"/>
<text text-anchor="middle" x="440" y="-683" font-family="Helvetica" font-size="10.00">ScannerState.indents</text>
<text text-anchor="middle" x="440" y="-672" font-family="Helvetica" font-size="10.00">(def)</text>
</a>
</g>
</g>
<!-- L4YAML.Scanner.IndentEntry -->
<g id="node21" class="node">
<title>L4YAML.Scanner.IndentEntry</title>
<g id="a_node21"><a xlink:href="../../../api/L4YAML/Scanner/State.html#L4YAML.Scanner.IndentEntry" xlink:title="IndentEntry\n(inductive)" target="_blank">
<polygon fill="#dce9f7" stroke="#4a90d9" points="474,-644 406,-644 406,-608 474,-608 474,-644"/>
<text text-anchor="middle" x="440" y="-629" font-family="Helvetica" font-size="10.00">IndentEntry</text>
<text text-anchor="middle" x="440" y="-618" font-family="Helvetica" font-size="10.00">(inductive)</text>
</a>
</g>
</g>
<!-- L4YAML.Scanner.ScannerState.needIndentCheck -->
<g id="node22" class="node">
<title>L4YAML.Scanner.ScannerState.needIndentCheck</title>
<g id="a_node22"><a xlink:href="../../../api/L4YAML/Scanner/State.html#L4YAML.Scanner.ScannerState.needIndentCheck" xlink:title="ScannerState.needIndentCheck\n(def)" target="_blank">
<polygon fill="#dce9f7" stroke="#4a90d9" points="517.5,-590 362.5,-590 362.5,-554 517.5,-554 517.5,-590"/>
<text text-anchor="middle" x="440" y="-575" font-family="Helvetica" font-size="10.00">ScannerState.needIndentCheck</text>
<text text-anchor="middle" x="440" y="-564" font-family="Helvetica" font-size="10.00">(def)</text>
</a>
</g>
</g>
<!-- L4YAML.Scanner.unwindIndentsLoop.match_1 -->
<g id="node23" class="node">
<title>L4YAML.Scanner.unwindIndentsLoop.match_1</title>
<g id="a_node23"><a xlink:href="../../../api/L4YAML/Scanner/Indent.html#L4YAML.Scanner.unwindIndentsLoop.match_1" xlink:title="unwindIndentsLoop.match_1\n(def)" target="_blank">
<polygon fill="#dce9f7" stroke="#4a90d9" points="510.5,-536 369.5,-536 369.5,-500 510.5,-500 510.5,-536"/>
<text text-anchor="middle" x="440" y="-521" font-family="Helvetica" font-size="10.00">unwindIndentsLoop.match_1</text>
<text text-anchor="middle" x="440" y="-510" font-family="Helvetica" font-size="10.00">(def)</text>
</a>
</g>
</g>
<!-- L4YAML.Scanner.ScannerState.definedAnchors -->
<g id="node24" class="node">
<title>L4YAML.Scanner.ScannerState.definedAnchors</title>
<g id="a_node24"><a xlink:href="../../../api/L4YAML/Scanner/State.html#L4YAML.Scanner.ScannerState.definedAnchors" xlink:title="ScannerState.definedAnchors\n(def)" target="_blank">
<polygon fill="#dce9f7" stroke="#4a90d9" points="513.5,-482 366.5,-482 366.5,-446 513.5,-446 513.5,-482"/>
<text text-anchor="middle" x="440" y="-467" font-family="Helvetica" font-size="10.00">ScannerState.definedAnchors</text>
<text text-anchor="middle" x="440" y="-456" font-family="Helvetica" font-size="10.00">(def)</text>
</a>
</g>
</g>
<!-- L4YAML.Scanner.ScannerState.simpleKeyStack -->
<g id="node25" class="node">
<title>L4YAML.Scanner.ScannerState.simpleKeyStack</title>
<g id="a_node25"><a xlink:href="../../../api/L4YAML/Scanner/State.html#L4YAML.Scanner.ScannerState.simpleKeyStack" xlink:title="ScannerState.simpleKeyStack\n(def)" target="_blank">
<polygon fill="#dce9f7" stroke="#4a90d9" points="514.5,-428 365.5,-428 365.5,-392 514.5,-392 514.5,-428"/>
<text text-anchor="middle" x="440" y="-413" font-family="Helvetica" font-size="10.00">ScannerState.simpleKeyStack</text>
<text text-anchor="middle" x="440" y="-402" font-family="Helvetica" font-size="10.00">(def)</text>
</a>
</g>
</g>
<!-- L4YAML.Scanner.ScannerState.col -->
<g id="node26" class="node">
<title>L4YAML.Scanner.ScannerState.col</title>
<g id="a_node26"><a xlink:href="../../../api/L4YAML/Scanner/State.html#L4YAML.Scanner.ScannerState.col" xlink:title="ScannerState.col\n(def)" target="_blank">
<polygon fill="#dce9f7" stroke="#4a90d9" points="486,-374 394,-374 394,-338 486,-338 486,-374"/>
<text text-anchor="middle" x="440" y="-359" font-family="Helvetica" font-size="10.00">ScannerState.col</text>
<text text-anchor="middle" x="440" y="-348" font-family="Helvetica" font-size="10.00">(def)</text>
</a>
</g>
</g>
<!-- L4YAML.Scanner.ScannerState.offset -->
<g id="node27" class="node">
<title>L4YAML.Scanner.ScannerState.offset</title>
<g id="a_node27"><a xlink:href="../../../api/L4YAML/Scanner/State.html#L4YAML.Scanner.ScannerState.offset" xlink:title="ScannerState.offset\n(def)" target="_blank">
<polygon fill="#dce9f7" stroke="#4a90d9" points="491.5,-320 388.5,-320 388.5,-284 491.5,-284 491.5,-320"/>
<text text-anchor="middle" x="440" y="-305" font-family="Helvetica" font-size="10.00">ScannerState.offset</text>
<text text-anchor="middle" x="440" y="-294" font-family="Helvetica" font-size="10.00">(def)</text>
</a>
</g>
</g>
<!-- L4YAML.Scanner.ScannerState.directivesPresent -->
<g id="node28" class="node">
<title>L4YAML.Scanner.ScannerState.directivesPresent</title>
<g id="a_node28"><a xlink:href="../../../api/L4YAML/Scanner/State.html#L4YAML.Scanner.ScannerState.directivesPresent" xlink:title="ScannerState.directivesPresent\n(def)" target="_blank">
<polygon fill="#dce9f7" stroke="#4a90d9" points="517,-266 363,-266 363,-230 517,-230 517,-266"/>
<text text-anchor="middle" x="440" y="-251" font-family="Helvetica" font-size="10.00">ScannerState.directivesPresent</text>
<text text-anchor="middle" x="440" y="-240" font-family="Helvetica" font-size="10.00">(def)</text>
</a>
</g>
</g>
<!-- L4YAML.Proofs.ScanStrictCoupling.unwindIndentsLoop_input -->
<g id="node29" class="node">
<title>L4YAML.Proofs.ScanStrictCoupling.unwindIndentsLoop_input</title>
<g id="a_node29"><a xlink:href="../../../api/L4YAML/Proofs/Scanner/ScanStrictCoupling.html#L4YAML.Proofs.ScanStrictCoupling.unwindIndentsLoop_input" xlink:title="ScanStrictCoupling.unwindIndentsLoop_input" target="_blank">
<polygon fill="#fff3cd" stroke="#d4a017" points="613.81,-30.54 613.81,-45.46 511.99,-56 368,-56 266.18,-45.46 266.18,-30.54 368,-20 511.99,-20 613.81,-30.54"/>
<polygon fill="none" stroke="#d4a017" points="617.81,-26.94 617.81,-49.06 512.2,-60 367.79,-60 262.18,-49.06 262.18,-26.94 367.79,-16 512.2,-16 617.81,-26.94"/>
<text text-anchor="middle" x="440" y="-34.9" font-family="Helvetica" font-size="12.00">ScanStrictCoupling.unwindIndentsLoop_input</text>
</a>
</g>
</g>
<!-- L4YAML.Proofs.ScanStrictCoupling.unwindIndentsLoop_input&#45;&gt;L4YAML.Scanner.unwindIndentsLoop -->
<g id="edge1" class="edge">
<title>L4YAML.Proofs.ScanStrictCoupling.unwindIndentsLoop_input&#45;&gt;L4YAML.Scanner.unwindIndentsLoop</title>
<path fill="none" stroke="#4a90d9" stroke-width="2" d="M559.47,-55.23C583.94,-63.56 607.76,-75.86 625.9,-94 636.74,-104.84 630.45,-112.68 635.9,-127 645.32,-151.72 653.66,-155.56 660.9,-181 679.04,-244.73 641.69,-274.17 678.9,-329 679.8,-330.32 680.77,-331.57 681.83,-332.78"/>
<polygon fill="#4a90d9" stroke="#4a90d9" stroke-width="2" points="680.13,-334.54 686.85,-337.69 683.56,-331.04 680.13,-334.54"/>
<text text-anchor="middle" x="648.4" y="-183.6" font-family="Times-Roman" font-size="8.00" fill="#4a90d9">about</text>
</g>
<!-- L4YAML.Proofs.ScanStrictCoupling.unwindIndentsLoop_input&#45;&gt;L4YAML.Scanner.ScannerState.input -->
<g id="edge3" class="edge">
<title>L4YAML.Proofs.ScanStrictCoupling.unwindIndentsLoop_input&#45;&gt;L4YAML.Scanner.ScannerState.input</title>
<path fill="none" stroke="#4a90d9" stroke-width="2" d="M569.49,-54.07C605.95,-65.6 641.1,-85.11 660.9,-118 697.13,-178.17 639.66,-216.75 678.9,-275 679.79,-276.32 680.77,-277.58 681.81,-278.78"/>
<polygon fill="#4a90d9" stroke="#4a90d9" stroke-width="2" points="680.11,-280.55 686.82,-283.71 683.55,-277.05 680.11,-280.55"/>
<text text-anchor="middle" x="648.4" y="-120.6" font-family="Times-Roman" font-size="8.00" fill="#4a90d9">about</text>
</g>
<!-- L4YAML.Proofs.ScanStrictCoupling.unwindIndentsLoop_input&#45;&gt;L4YAML.Scanner.ScannerState -->
<g id="edge2" class="edge">
<title>L4YAML.Proofs.ScanStrictCoupling.unwindIndentsLoop_input&#45;&gt;L4YAML.Scanner.ScannerState</title>
<path fill="none" stroke="#4a90d9" stroke-width="2" d="M617.84,-33.92C633.34,-38.92 648.01,-46.05 660.9,-56 713.28,-96.42 725.15,-180.44 727.75,-222.65"/>
<polygon fill="#4a90d9" stroke="#4a90d9" stroke-width="2" points="725.31,-222.92 728.12,-229.78 730.2,-222.66 725.31,-222.92"/>
<text text-anchor="middle" x="648.4" y="-58.6" font-family="Times-Roman" font-size="8.00" fill="#4a90d9">about</text>
</g>
<!-- L4YAML.Scanner.unwindIndentsLoop.eq_def -->
<g id="node30" class="node">
<title>L4YAML.Scanner.unwindIndentsLoop.eq_def</title>
<g id="a_node30"><a xlink:href="../../../api/L4YAML/Scanner/Indent.html#L4YAML.Scanner.unwindIndentsLoop.eq_def" xlink:title="unwindIndentsLoop.eq_def\n(Scanner.Indent)" target="_blank">
<ellipse fill="#d4edda" stroke="#28a745" cx="110.05" cy="-788" rx="94.09" ry="21.43"/>
<text text-anchor="middle" x="110.05" y="-791" font-family="Helvetica" font-size="10.00">unwindIndentsLoop.eq_def</text>
<text text-anchor="middle" x="110.05" y="-780" font-family="Helvetica" font-size="10.00">(Scanner.Indent)</text>
</a>
</g>
</g>
<!-- L4YAML.Scanner.unwindIndentsLoop.eq_def&#45;&gt;L4YAML.Scanner.ScannerState.line -->
<g id="edge31" class="edge">
<title>L4YAML.Scanner.unwindIndentsLoop.eq_def&#45;&gt;L4YAML.Scanner.ScannerState.line</title>
<path fill="none" stroke="#6f42c1" stroke-width="2" stroke-dasharray="5,2" d="M111.43,-809.36C113.58,-895.04 127.9,-1221.03 222.09,-1467 231.53,-1491.64 231.92,-1502.69 254.09,-1517 293.74,-1542.6 348.03,-1547.82 387.53,-1547.56"/>
<polygon fill="#6f42c1" stroke="#6f42c1" stroke-width="2" points="387.78,-1549.31 392.75,-1547.49 387.73,-1545.81 387.78,-1549.31"/>
<text text-anchor="middle" x="233.09" y="-1511.4" font-family="Times-Roman" font-size="7.00" fill="#6f42c1">about</text>
</g>
<!-- L4YAML.Scanner.unwindIndentsLoop.eq_def&#45;&gt;L4YAML.Scanner.ScannerState.flowLevel -->
<g id="edge28" class="edge">
<title>L4YAML.Scanner.unwindIndentsLoop.eq_def&#45;&gt;L4YAML.Scanner.ScannerState.flowLevel</title>
<path fill="none" stroke="#6f42c1" stroke-width="2" stroke-dasharray="5,2" d="M111.83,-809.31C115.43,-890.63 134.23,-1188.21 222.09,-1413 231.69,-1437.57 231.92,-1448.69 254.09,-1463 289.83,-1486.07 337.46,-1492.59 375.43,-1493.46"/>
<polygon fill="#6f42c1" stroke="#6f42c1" stroke-width="2" points="375.46,-1495.21 380.48,-1493.55 375.51,-1491.71 375.46,-1495.21"/>
<text text-anchor="middle" x="233.09" y="-1457.4" font-family="Times-Roman" font-size="7.00" fill="#6f42c1">about</text>
</g>
<!-- L4YAML.Scanner.unwindIndentsLoop.eq_def&#45;&gt;L4YAML.Scanner.ScannerState.documentEverStarted -->
<g id="edge14" class="edge">
<title>L4YAML.Scanner.unwindIndentsLoop.eq_def&#45;&gt;L4YAML.Scanner.ScannerState.documentEverStarted</title>
<path fill="none" stroke="#6f42c1" stroke-width="2" stroke-dasharray="5,2" d="M112.37,-809.22C117.75,-885.83 141.58,-1154.3 222.09,-1358 231.93,-1382.89 231.67,-1394.39 254.09,-1409 281.56,-1426.91 316.17,-1434.89 348,-1437.98"/>
<polygon fill="#6f42c1" stroke="#6f42c1" stroke-width="2" points="347.95,-1439.73 353.08,-1438.44 348.26,-1436.25 347.95,-1439.73"/>
<text text-anchor="middle" x="233.09" y="-1403.4" font-family="Times-Roman" font-size="7.00" fill="#6f42c1">about</text>
</g>
<!-- L4YAML.Scanner.unwindIndentsLoop.eq_def&#45;&gt;L4YAML.Scanner.ScannerState.simpleKeyAllowed -->
<g id="edge27" class="edge">
<title>L4YAML.Scanner.unwindIndentsLoop.eq_def&#45;&gt;L4YAML.Scanner.ScannerState.simpleKeyAllowed</title>
<path fill="none" stroke="#6f42c1" stroke-width="2" stroke-dasharray="5,2" d="M112.87,-809.24C119.64,-881.32 146.88,-1122.26 222.09,-1305 232.13,-1329.4 231.92,-1340.69 254.09,-1355 283.71,-1374.12 321.51,-1381.88 355.2,-1384.47"/>
<polygon fill="#6f42c1" stroke="#6f42c1" stroke-width="2" points="355.47,-1386.24 360.58,-1384.84 355.71,-1382.75 355.47,-1386.24"/>
<text text-anchor="middle" x="233.09" y="-1348.4" font-family="Times-Roman" font-size="7.00" fill="#6f42c1">about</text>
</g>
<!-- L4YAML.Scanner.unwindIndentsLoop.eq_def&#45;&gt;L4YAML.Scanner.ScannerState.currentIndent -->
<g id="edge24" class="edge">
<title>L4YAML.Scanner.unwindIndentsLoop.eq_def&#45;&gt;L4YAML.Scanner.ScannerState.currentIndent</title>
<path fill="none" stroke="#6f42c1" stroke-width="2" stroke-dasharray="5,2" d="M113.69,-809.49C122.48,-876.75 154.13,-1088.41 222.09,-1250 232.46,-1274.67 231.67,-1286.39 254.09,-1301 286.99,-1322.45 330.12,-1329.65 366.44,-1331.28"/>
<polygon fill="#6f42c1" stroke="#6f42c1" stroke-width="2" points="366.69,-1333.04 371.75,-1331.48 366.82,-1329.54 366.69,-1333.04"/>
<text text-anchor="middle" x="233.09" y="-1295.4" font-family="Times-Roman" font-size="7.00" fill="#6f42c1">about</text>
</g>
<!-- L4YAML.Scanner.unwindIndentsLoop.eq_def&#45;&gt;L4YAML.YamlToken.blockEnd -->
<g id="edge11" class="edge">
<title>L4YAML.Scanner.unwindIndentsLoop.eq_def&#45;&gt;L4YAML.YamlToken.blockEnd</title>
<path fill="none" stroke="#6f42c1" stroke-width="2" stroke-dasharray="5,2" d="M114.19,-809.32C126.99,-892.79 178.14,-1195.23 254.09,-1247 291.16,-1272.27 342.14,-1278.12 381.18,-1278.15"/>
<polygon fill="#6f42c1" stroke="#6f42c1" stroke-width="2" points="381.38,-1279.9 386.37,-1278.12 381.36,-1276.4 381.38,-1279.9"/>
<text text-anchor="middle" x="233.09" y="-1240.4" font-family="Times-Roman" font-size="7.00" fill="#6f42c1">about</text>
</g>
<!-- L4YAML.Scanner.unwindIndentsLoop.eq_def&#45;&gt;L4YAML.Scanner.ScannerState.tokens -->
<g id="edge5" class="edge">
<title>L4YAML.Scanner.unwindIndentsLoop.eq_def&#45;&gt;L4YAML.Scanner.ScannerState.tokens</title>
<path fill="none" stroke="#6f42c1" stroke-width="2" stroke-dasharray="5,2" d="M110.63,-809.46C110.58,-879.79 121.22,-1103.95 254.09,-1193 291.36,-1217.98 342.32,-1223.85 381.31,-1223.97"/>
<polygon fill="#6f42c1" stroke="#6f42c1" stroke-width="2" points="381.49,-1225.72 386.48,-1223.95 381.48,-1222.22 381.49,-1225.72"/>
<text text-anchor="middle" x="233.09" y="-1181.4" font-family="Times-Roman" font-size="7.00" fill="#6f42c1">about</text>
</g>
<!-- L4YAML.Scanner.unwindIndentsLoop.eq_def&#45;&gt;L4YAML.Scanner.unwindIndentsLoop -->
<g id="edge12" class="edge">
<title>L4YAML.Scanner.unwindIndentsLoop.eq_def&#45;&gt;L4YAML.Scanner.unwindIndentsLoop</title>
<path fill="none" stroke="#6f42c1" stroke-width="2" stroke-dasharray="5,2" d="M112.59,-766.49C120.08,-669.41 156.35,-274.24 254.09,-213 324.11,-169.13 556.39,-168.34 625.9,-213 673.59,-243.64 640.27,-287.53 678.9,-329 680.82,-331.06 682.93,-333 685.17,-334.81"/>
<polygon fill="#6f42c1" stroke="#6f42c1" stroke-width="2" points="684.28,-336.33 689.32,-337.95 686.39,-333.54 684.28,-336.33"/>
<text text-anchor="middle" x="440" y="-215.4" font-family="Times-Roman" font-size="7.00" fill="#6f42c1">about</text>
</g>
<!-- L4YAML.Scanner.unwindIndentsLoop.eq_def&#45;&gt;L4YAML.Scanner.ScannerState.comments -->
<g id="edge18" class="edge">
<title>L4YAML.Scanner.unwindIndentsLoop.eq_def&#45;&gt;L4YAML.Scanner.ScannerState.comments</title>
<path fill="none" stroke="#6f42c1" stroke-width="2" stroke-dasharray="5,2" d="M112.03,-809.6C116.25,-873.55 138.43,-1062.18 254.09,-1139 288.62,-1161.93 334.74,-1168.7 372.28,-1169.73"/>
<polygon fill="#6f42c1" stroke="#6f42c1" stroke-width="2" points="372.25,-1171.48 377.28,-1169.83 372.32,-1167.98 372.25,-1171.48"/>
<text text-anchor="middle" x="233.09" y="-1129.4" font-family="Times-Roman" font-size="7.00" fill="#6f42c1">about</text>
</g>
<!-- L4YAML.Scanner.unwindIndentsLoop.eq_def&#45;&gt;L4YAML.Scanner.ScannerState.allowDirectives -->
<g id="edge10" class="edge">
<title>L4YAML.Scanner.unwindIndentsLoop.eq_def&#45;&gt;L4YAML.Scanner.ScannerState.allowDirectives</title>
<path fill="none" stroke="#6f42c1" stroke-width="2" stroke-dasharray="5,2" d="M113.85,-809.37C122.57,-866.05 154.85,-1020.3 254.09,-1085 285.69,-1105.6 326.74,-1113.06 362.12,-1115.06"/>
<polygon fill="#6f42c1" stroke="#6f42c1" stroke-width="2" points="362.22,-1116.82 367.3,-1115.32 362.39,-1113.32 362.22,-1116.82"/>
<text text-anchor="middle" x="233.09" y="-1076.4" font-family="Times-Roman" font-size="7.00" fill="#6f42c1">about</text>
</g>
<!-- L4YAML.Scanner.unwindIndentsLoop.eq_def&#45;&gt;L4YAML.Scanner.ScannerState.flowStack -->
<g id="edge20" class="edge">
<title>L4YAML.Scanner.unwindIndentsLoop.eq_def&#45;&gt;L4YAML.Scanner.ScannerState.flowStack</title>
<path fill="none" stroke="#6f42c1" stroke-width="2" stroke-dasharray="5,2" d="M116.53,-809.49C130.28,-858.43 171.18,-978.01 254.09,-1031 289.41,-1053.57 336.18,-1060.24 373.84,-1061.3"/>
<polygon fill="#6f42c1" stroke="#6f42c1" stroke-width="2" points="373.82,-1063.05 378.85,-1061.41 373.89,-1059.55 373.82,-1063.05"/>
<text text-anchor="middle" x="233.09" y="-1024.4" font-family="Times-Roman" font-size="7.00" fill="#6f42c1">about</text>
</g>
<!-- L4YAML.Scanner.unwindIndentsLoop.eq_def&#45;&gt;L4YAML.Scanner.ScannerState.inputEnd -->
<g id="edge17" class="edge">
<title>L4YAML.Scanner.unwindIndentsLoop.eq_def&#45;&gt;L4YAML.Scanner.ScannerState.inputEnd</title>
<path fill="none" stroke="#6f42c1" stroke-width="2" stroke-dasharray="5,2" d="M120.35,-809.36C139.14,-849.68 185.72,-936.58 254.09,-977 290.71,-998.65 338.32,-1005.2 376.06,-1006.45"/>
<polygon fill="#6f42c1" stroke="#6f42c1" stroke-width="2" points="376.03,-1008.2 381.08,-1006.58 376.13,-1004.7 376.03,-1008.2"/>
<text text-anchor="middle" x="233.09" y="-972.4" font-family="Times-Roman" font-size="7.00" fill="#6f42c1">about</text>
</g>
<!-- L4YAML.Scanner.unwindIndentsLoop.eq_def&#45;&gt;L4YAML.Scanner.ScannerState.simpleKey -->
<g id="edge32" class="edge">
<title>L4YAML.Scanner.unwindIndentsLoop.eq_def&#45;&gt;L4YAML.Scanner.ScannerState.simpleKey</title>
<path fill="none" stroke="#6f42c1" stroke-width="2" stroke-dasharray="5,2" d="M126.36,-809.04C149.98,-839.74 198.46,-896.08 254.09,-923 290.69,-940.71 335.78,-947.55 372.26,-949.92"/>
<polygon fill="#6f42c1" stroke="#6f42c1" stroke-width="2" points="372.49,-951.69 377.58,-950.24 372.69,-948.19 372.49,-951.69"/>
<text text-anchor="middle" x="233.09" y="-917.4" font-family="Times-Roman" font-size="7.00" fill="#6f42c1">about</text>
</g>
<!-- L4YAML.Scanner.unwindIndentsLoop.eq_def&#45;&gt;L4YAML.Scanner.ScannerState.emit -->
<g id="edge13" class="edge">
<title>L4YAML.Scanner.unwindIndentsLoop.eq_def&#45;&gt;L4YAML.Scanner.ScannerState.emit</title>
<path fill="none" stroke="#6f42c1" stroke-width="2" stroke-dasharray="5,2" d="M139.39,-808.28C167.22,-827.13 211.57,-854.43 254.09,-869 296.8,-883.63 347.71,-890.34 385.29,-893.41"/>
<polygon fill="#6f42c1" stroke="#6f42c1" stroke-width="2" points="385.61,-895.19 390.74,-893.83 385.89,-891.7 385.61,-895.19"/>
<text text-anchor="middle" x="233.09" y="-866.4" font-family="Times-Roman" font-size="7.00" fill="#6f42c1">about</text>
</g>
<!-- L4YAML.Scanner.unwindIndentsLoop.eq_def&#45;&gt;L4YAML.Scanner.ScannerState.input -->
<g id="edge25" class="edge">
<title>L4YAML.Scanner.unwindIndentsLoop.eq_def&#45;&gt;L4YAML.Scanner.ScannerState.input</title>
<path fill="none" stroke="#6f42c1" stroke-width="2" stroke-dasharray="5,2" d="M111.98,-766.55C116.96,-664.08 144.54,-226.95 254.09,-167 326.57,-127.33 552.62,-128.84 625.9,-167 649.96,-179.53 648.96,-192.64 660.9,-217 672.78,-241.23 661.8,-254.12 678.9,-275 680.52,-276.98 682.33,-278.83 684.26,-280.57"/>
<polygon fill="#6f42c1" stroke="#6f42c1" stroke-width="2" points="683.43,-282.15 688.4,-283.97 685.65,-279.45 683.43,-282.15"/>
<text text-anchor="middle" x="440" y="-169.4" font-family="Times-Roman" font-size="7.00" fill="#6f42c1">about</text>
</g>
<!-- L4YAML.Scanner.unwindIndentsLoop.eq_def&#45;&gt;L4YAML.Scanner.ScannerState.explicitKeyLine -->
<g id="edge19" class="edge">
<title>L4YAML.Scanner.unwindIndentsLoop.eq_def&#45;&gt;L4YAML.Scanner.ScannerState.explicitKeyLine</title>
<path fill="none" stroke="#6f42c1" stroke-width="2" stroke-dasharray="5,2" d="M181.52,-801.9C204.61,-806.3 230.41,-811.04 254.09,-815 289.63,-820.95 329.13,-826.81 362.47,-831.55"/>
<polygon fill="#6f42c1" stroke="#6f42c1" stroke-width="2" points="362.57,-833.33 367.77,-832.3 363.06,-829.87 362.57,-833.33"/>
<text text-anchor="middle" x="233.09" y="-815.4" font-family="Times-Roman" font-size="7.00" fill="#6f42c1">about</text>
</g>
<!-- L4YAML.Scanner.unwindIndentsLoop.eq_def&#45;&gt;L4YAML.Scanner.ScannerState.mk -->
<g id="edge23" class="edge">
<title>L4YAML.Scanner.unwindIndentsLoop.eq_def&#45;&gt;L4YAML.Scanner.ScannerState.mk</title>
<path fill="none" stroke="#6f42c1" stroke-width="2" stroke-dasharray="5,2" d="M204.15,-788C264.07,-788 339.64,-788 388.62,-788"/>
<polygon fill="#6f42c1" stroke="#6f42c1" stroke-width="2" points="388.87,-789.75 393.87,-788 388.87,-786.25 388.87,-789.75"/>
<text text-anchor="middle" x="233.09" y="-790.4" font-family="Times-Roman" font-size="7.00" fill="#6f42c1">about</text>
</g>
<!-- L4YAML.Scanner.unwindIndentsLoop.eq_def&#45;&gt;L4YAML.Scanner.ScannerState -->
<g id="edge21" class="edge">
<title>L4YAML.Scanner.unwindIndentsLoop.eq_def&#45;&gt;L4YAML.Scanner.ScannerState</title>
<path fill="none" stroke="#6f42c1" stroke-width="2" stroke-dasharray="5,2" d="M111.58,-766.44C114.79,-659.33 135.62,-187.12 254.09,-126 294.26,-105.27 623.15,-105.13 660.9,-130 694.49,-152.12 713.27,-197.07 722.07,-224.66"/>
<polygon fill="#6f42c1" stroke="#6f42c1" stroke-width="2" points="720.45,-225.34 723.6,-229.6 723.79,-224.31 720.45,-225.34"/>
<text text-anchor="middle" x="440" y="-128.4" font-family="Times-Roman" font-size="7.00" fill="#6f42c1">about</text>
</g>
<!-- L4YAML.Scanner.unwindIndentsLoop.eq_def&#45;&gt;L4YAML.Scanner.ScannerState.seenYamlDirective -->
<g id="edge26" class="edge">
<title>L4YAML.Scanner.unwindIndentsLoop.eq_def&#45;&gt;L4YAML.Scanner.ScannerState.seenYamlDirective</title>
<path fill="none" stroke="#6f42c1" stroke-width="2" stroke-dasharray="5,2" d="M181.52,-774.1C204.61,-769.7 230.41,-764.96 254.09,-761 286.89,-755.51 323.08,-750.09 354.67,-745.56"/>
<polygon fill="#6f42c1" stroke="#6f42c1" stroke-width="2" points="355,-747.28 359.7,-744.84 354.5,-743.82 355,-747.28"/>
<text text-anchor="middle" x="233.09" y="-768.4" font-family="Times-Roman" font-size="7.00" fill="#6f42c1">about</text>
</g>
<!-- L4YAML.Scanner.unwindIndentsLoop.eq_def&#45;&gt;L4YAML.Scanner.ScannerState.indents -->
<g id="edge15" class="edge">
<title>L4YAML.Scanner.unwindIndentsLoop.eq_def&#45;&gt;L4YAML.Scanner.ScannerState.indents</title>
<path fill="none" stroke="#6f42c1" stroke-width="2" stroke-dasharray="5,2" d="M139.39,-767.72C167.22,-748.87 211.57,-721.57 254.09,-707 294.6,-693.12 342.5,-686.37 379.4,-683.1"/>
<polygon fill="#6f42c1" stroke="#6f42c1" stroke-width="2" points="379.93,-684.81 384.76,-682.64 379.63,-681.32 379.93,-684.81"/>
<text text-anchor="middle" x="233.09" y="-720.4" font-family="Times-Roman" font-size="7.00" fill="#6f42c1">about</text>
</g>
<!-- L4YAML.Scanner.unwindIndentsLoop.eq_def&#45;&gt;L4YAML.Scanner.IndentEntry -->
<g id="edge6" class="edge">
<title>L4YAML.Scanner.unwindIndentsLoop.eq_def&#45;&gt;L4YAML.Scanner.IndentEntry</title>
<path fill="none" stroke="#6f42c1" stroke-width="2" stroke-dasharray="5,2" d="M126.36,-766.96C149.98,-736.26 198.46,-679.92 254.09,-653 301.04,-630.28 361.95,-625.45 400.77,-625"/>
<polygon fill="#6f42c1" stroke="#6f42c1" stroke-width="2" points="400.87,-626.75 405.86,-624.96 400.85,-623.25 400.87,-626.75"/>
<text text-anchor="middle" x="233.09" y="-670.4" font-family="Times-Roman" font-size="7.00" fill="#6f42c1">about</text>
</g>
<!-- L4YAML.Scanner.unwindIndentsLoop.eq_def&#45;&gt;L4YAML.Scanner.ScannerState.needIndentCheck -->
<g id="edge29" class="edge">
<title>L4YAML.Scanner.unwindIndentsLoop.eq_def&#45;&gt;L4YAML.Scanner.ScannerState.needIndentCheck</title>
<path fill="none" stroke="#6f42c1" stroke-width="2" stroke-dasharray="5,2" d="M120.35,-766.64C139.14,-726.32 185.72,-639.42 254.09,-599 284.71,-580.9 323.01,-573.35 356.81,-570.63"/>
<polygon fill="#6f42c1" stroke="#6f42c1" stroke-width="2" points="357.33,-572.35 362.19,-570.24 357.08,-568.86 357.33,-572.35"/>
<text text-anchor="middle" x="233.09" y="-623.4" font-family="Times-Roman" font-size="7.00" fill="#6f42c1">about</text>
</g>
<!-- L4YAML.Scanner.unwindIndentsLoop.eq_def&#45;&gt;L4YAML.Scanner.unwindIndentsLoop.match_1 -->
<g id="edge22" class="edge">
<title>L4YAML.Scanner.unwindIndentsLoop.eq_def&#45;&gt;L4YAML.Scanner.unwindIndentsLoop.match_1</title>
<path fill="none" stroke="#6f42c1" stroke-width="2" stroke-dasharray="5,2" d="M116.4,-766.82C129.97,-718 170.72,-597.72 254.09,-545 286.5,-524.51 328.39,-517.18 364.11,-515.23"/>
<polygon fill="#6f42c1" stroke="#6f42c1" stroke-width="2" points="364.42,-516.97 369.33,-514.98 364.25,-513.47 364.42,-516.97"/>
<text text-anchor="middle" x="233.09" y="-570.4" font-family="Times-Roman" font-size="7.00" fill="#6f42c1">about</text>
</g>
<!-- L4YAML.Scanner.unwindIndentsLoop.eq_def&#45;&gt;L4YAML.Scanner.ScannerState.definedAnchors -->
<g id="edge30" class="edge">
<title>L4YAML.Scanner.unwindIndentsLoop.eq_def&#45;&gt;L4YAML.Scanner.ScannerState.definedAnchors</title>
<path fill="none" stroke="#6f42c1" stroke-width="2" stroke-dasharray="5,2" d="M113.82,-766.58C122.46,-709.78 154.56,-555.25 254.09,-491 285.52,-470.71 326.16,-463.22 361.33,-461.12"/>
<polygon fill="#6f42c1" stroke="#6f42c1" stroke-width="2" points="361.58,-462.86 366.48,-460.84 361.4,-459.36 361.58,-462.86"/>
<text text-anchor="middle" x="233.09" y="-514.4" font-family="Times-Roman" font-size="7.00" fill="#6f42c1">about</text>
</g>
<!-- L4YAML.Scanner.unwindIndentsLoop.eq_def&#45;&gt;L4YAML.Scanner.ScannerState.simpleKeyStack -->
<g id="edge8" class="edge">
<title>L4YAML.Scanner.unwindIndentsLoop.eq_def&#45;&gt;L4YAML.Scanner.ScannerState.simpleKeyStack</title>
<path fill="none" stroke="#6f42c1" stroke-width="2" stroke-dasharray="5,2" d="M112,-766.35C116.14,-702.28 138.11,-513.33 254.09,-437 285.09,-416.6 325.29,-409.04 360.3,-406.92"/>
<polygon fill="#6f42c1" stroke="#6f42c1" stroke-width="2" points="360.52,-408.66 365.42,-406.64 360.33,-405.16 360.52,-408.66"/>
<text text-anchor="middle" x="233.09" y="-464.4" font-family="Times-Roman" font-size="7.00" fill="#6f42c1">about</text>
</g>
<!-- L4YAML.Scanner.unwindIndentsLoop.eq_def&#45;&gt;L4YAML.Scanner.ScannerState.col -->
<g id="edge7" class="edge">
<title>L4YAML.Scanner.unwindIndentsLoop.eq_def&#45;&gt;L4YAML.Scanner.ScannerState.col</title>
<path fill="none" stroke="#6f42c1" stroke-width="2" stroke-dasharray="5,2" d="M110.6,-766.5C110.47,-696.03 120.85,-471.5 254.09,-383 293.79,-356.63 348.82,-351.63 388.51,-352.16"/>
<polygon fill="#6f42c1" stroke="#6f42c1" stroke-width="2" points="388.72,-353.92 393.76,-352.27 388.79,-350.42 388.72,-353.92"/>
<text text-anchor="middle" x="233.09" y="-405.4" font-family="Times-Roman" font-size="7.00" fill="#6f42c1">about</text>
</g>
<!-- L4YAML.Scanner.unwindIndentsLoop.eq_def&#45;&gt;L4YAML.Scanner.ScannerState.offset -->
<g id="edge16" class="edge">
<title>L4YAML.Scanner.unwindIndentsLoop.eq_def&#45;&gt;L4YAML.Scanner.ScannerState.offset</title>
<path fill="none" stroke="#6f42c1" stroke-width="2" stroke-dasharray="5,2" d="M114.18,-766.66C126.94,-683.13 177.94,-380.48 254.09,-329 291.9,-303.44 344,-297.82 383.26,-297.94"/>
<polygon fill="#6f42c1" stroke="#6f42c1" stroke-width="2" points="383.45,-299.69 388.47,-297.99 383.48,-296.19 383.45,-299.69"/>
<text text-anchor="middle" x="233.09" y="-365.4" font-family="Times-Roman" font-size="7.00" fill="#6f42c1">about</text>
</g>
<!-- L4YAML.Scanner.unwindIndentsLoop.eq_def&#45;&gt;L4YAML.Scanner.ScannerState.directivesPresent -->
<g id="edge9" class="edge">
<title>L4YAML.Scanner.unwindIndentsLoop.eq_def&#45;&gt;L4YAML.Scanner.ScannerState.directivesPresent</title>
<path fill="none" stroke="#6f42c1" stroke-width="2" stroke-dasharray="5,2" d="M113.62,-766.44C122.2,-698.95 153.31,-486.63 222.09,-325 232.42,-300.72 231.92,-289.31 254.09,-275 284.49,-255.38 323.49,-247.73 357.83,-245.34"/>
<polygon fill="#6f42c1" stroke="#6f42c1" stroke-width="2" points="357.98,-247.09 362.86,-245.03 357.76,-243.59 357.98,-247.09"/>
<text text-anchor="middle" x="233.09" y="-327.4" font-family="Times-Roman" font-size="7.00" fill="#6f42c1">about</text>
</g>
<!-- L4YAML.Scanner.unwindIndentsLoop.eq_def&#45;&gt;L4YAML.Proofs.ScanStrictCoupling.unwindIndentsLoop_input -->
<g id="edge4" class="edge">
<title>L4YAML.Scanner.unwindIndentsLoop.eq_def&#45;&gt;L4YAML.Proofs.ScanStrictCoupling.unwindIndentsLoop_input</title>
<path fill="none" stroke="#28a745" d="M111.54,-766.51C114.39,-661.63 131.87,-204.41 222.09,-102 241.55,-79.91 268.22,-65.27 296.21,-55.61"/>
<polygon fill="#28a745" stroke="#28a745" points="297.09,-57.9 302.97,-53.38 295.55,-53.25 297.09,-57.9"/>
</g>
</g>
</svg>
