<?xml version="1.0" encoding="UTF-8" standalone="no"?>
<!DOCTYPE svg PUBLIC "-//W3C//DTD SVG 1.1//EN"
 "http://www.w3.org/Graphics/SVG/1.1/DTD/svg11.dtd">
<!-- Generated by graphviz version 2.44.0 (0)
 -->
<!-- Title: chain_ScanStrictCoupling.unwindIndentsLoop_input Pages: 1 -->
<svg width="634pt" height="310pt"
 viewBox="0.00 0.00 634.00 310.00" xmlns="http://www.w3.org/2000/svg" xmlns:xlink="http://www.w3.org/1999/xlink">
<g id="graph0" class="graph" transform="scale(1 1) rotate(0) translate(4 306)">
<title>chain_ScanStrictCoupling.unwindIndentsLoop_input</title>
<polygon fill="white" stroke="transparent" points="-4,4 -4,-306 630,-306 630,4 -4,4"/>
<text text-anchor="middle" x="313" y="-287.6" font-family="Helvetica Bold" font-size="13.00">Functorial Chains: ScanStrictCoupling.unwindIndentsLoop_input\n(heuristic: used by 6 proofs)</text>
<g id="clust1" class="cluster">
<title>cluster_fns</title>
<polygon fill="none" stroke="#4a90d9" stroke-dasharray="5,2" points="347,-8 347,-163 583,-163 583,-8 347,-8"/>
<text text-anchor="middle" x="465" y="-148.6" font-family="Helvetica Bold" font-size="13.00" fill="#4a90d9">Functions (Call Chain)</text>
</g>
<g id="clust2" class="cluster">
<title>cluster_thms</title>
<polygon fill="none" stroke="#28a745" stroke-dasharray="5,2" points="43,-89 43,-272 339,-272 339,-89 43,-89"/>
<text text-anchor="middle" x="191" y="-257.6" font-family="Helvetica Bold" font-size="13.00" fill="#28a745">Theorems (Proof Chain)</text>
</g>
<!-- L4YAML.Scanner.ScannerState.input -->
<g id="node1" class="node">
<title>L4YAML.Scanner.ScannerState.input</title>
<g id="a_node1"><a xlink:href="../../../api/L4YAML/Scanner/State.html#L4YAML.Scanner.ScannerState.input" xlink:title="ScannerState.input" target="_blank">
<polygon fill="#dce9f7" stroke="#4a90d9" points="455,-133 355,-133 355,-97 455,-97 455,-133"/>
<text text-anchor="middle" x="405" y="-112.5" font-family="Helvetica" font-size="10.00">ScannerState.input</text>
</a>
</g>
</g>
<!-- L4YAML.Scanner.ScannerState -->
<g id="node2" class="node">
<title>L4YAML.Scanner.ScannerState</title>
<g id="a_node2"><a xlink:href="../../../api/L4YAML/Scanner/State.html#L4YAML.Scanner.ScannerState" xlink:title="ScannerState" target="_blank">
<polygon fill="#dce9f7" stroke="#4a90d9" points="443,-52 367,-52 367,-16 443,-16 443,-52"/>
<text text-anchor="middle" x="405" y="-31.5" font-family="Helvetica" font-size="10.00">ScannerState</text>
</a>
</g>
</g>
<!-- L4YAML.Scanner.ScannerState.input&#45;&gt;L4YAML.Scanner.ScannerState -->
<g id="edge2" class="edge">
<title>L4YAML.Scanner.ScannerState.input&#45;&gt;L4YAML.Scanner.ScannerState</title>
<path fill="none" stroke="#4a90d9" stroke-width="2" d="M405,-96.86C405,-85.88 405,-71.48 405,-59.33"/>
<polygon fill="#4a90d9" stroke="#4a90d9" stroke-width="2" points="407.45,-59.11 405,-52.11 402.55,-59.11 407.45,-59.11"/>
<text text-anchor="middle" x="414.5" y="-72.6" font-family="Times-Roman" font-size="8.00">calls</text>
</g>
<!-- L4YAML.Scanner.unwindIndentsLoop -->
<g id="node3" class="node">
<title>L4YAML.Scanner.unwindIndentsLoop</title>
<g id="a_node3"><a xlink:href="../../../api/L4YAML/Scanner/Indent.html#L4YAML.Scanner.unwindIndentsLoop" xlink:title="unwindIndentsLoop" target="_blank">
<polygon fill="#dce9f7" stroke="#4a90d9" points="574.5,-133 473.5,-133 473.5,-97 574.5,-97 574.5,-133"/>
<text text-anchor="middle" x="524" y="-112.5" font-family="Helvetica" font-size="10.00">unwindIndentsLoop</text>
</a>
</g>
</g>
<!-- L4YAML.Scanner.unwindIndentsLoop&#45;&gt;L4YAML.Scanner.ScannerState -->
<g id="edge6" class="edge">
<title>L4YAML.Scanner.unwindIndentsLoop&#45;&gt;L4YAML.Scanner.ScannerState</title>
<path fill="none" stroke="#4a90d9" stroke-width="2" d="M498.18,-96.86C480.17,-84.9 456.02,-68.87 436.82,-56.12"/>
<polygon fill="#4a90d9" stroke="#4a90d9" stroke-width="2" points="437.96,-53.94 430.77,-52.11 435.25,-58.02 437.96,-53.94"/>
<text text-anchor="middle" x="477.5" y="-72.6" font-family="Times-Roman" font-size="8.00">calls</text>
</g>
<!-- L4YAML.Scanner.unwindIndentsLoop.eq_def -->
<g id="node4" class="node">
<title>L4YAML.Scanner.unwindIndentsLoop.eq_def</title>
<g id="a_node4"><a xlink:href="../../../api/L4YAML/Scanner/Indent.html#L4YAML.Scanner.unwindIndentsLoop.eq_def" xlink:title="unwindIndentsLoop.eq_def" target="_blank">
<ellipse fill="#d4edda" stroke="#28a745" cx="237" cy="-115" rx="78.08" ry="18"/>
<text text-anchor="middle" x="237" y="-112.5" font-family="Helvetica" font-size="10.00">unwindIndentsLoop.eq_def</text>
</a>
</g>
</g>
<!-- L4YAML.Scanner.unwindIndentsLoop.eq_def&#45;&gt;L4YAML.Scanner.ScannerState -->
<g id="edge4" class="edge">
<title>L4YAML.Scanner.unwindIndentsLoop.eq_def&#45;&gt;L4YAML.Scanner.ScannerState</title>
<path fill="none" stroke="#6f42c1" stroke-width="2" stroke-dasharray="5,2" d="M269.79,-98.58C296.25,-86.14 333.66,-68.55 362.43,-55.02"/>
<polygon fill="#6f42c1" stroke="#6f42c1" stroke-width="2" points="363.5,-57.22 368.8,-52.02 361.42,-52.79 363.5,-57.22"/>
<text text-anchor="middle" x="338.5" y="-72.6" font-family="Times-Roman" font-size="8.00" fill="#6f42c1">about</text>
</g>
<!-- L4YAML.Proofs.ScanStrictCoupling.unwindIndentsLoop_input -->
<g id="node5" class="node">
<title>L4YAML.Proofs.ScanStrictCoupling.unwindIndentsLoop_input</title>
<g id="a_node5"><a xlink:href="../../../api/L4YAML/Proofs/Scanner/ScanStrictCoupling.html#L4YAML.Proofs.ScanStrictCoupling.unwindIndentsLoop_input" xlink:title="ScanStrictCoupling.unwindIndentsLoop_input" target="_blank">
<polygon fill="#fff3cd" stroke="#d4a017" points="327.21,-212.54 327.21,-227.46 247.42,-238 134.58,-238 54.79,-227.46 54.79,-212.54 134.58,-202 247.42,-202 327.21,-212.54"/>
<polygon fill="none" stroke="#d4a017" points="331.21,-209.04 331.21,-230.96 247.68,-242 134.32,-242 50.79,-230.96 50.79,-209.04 134.32,-198 247.68,-198 331.21,-209.04"/>
<text text-anchor="middle" x="191" y="-217.5" font-family="Helvetica" font-size="10.00">ScanStrictCoupling.unwindIndentsLoop_input</text>
</a>
</g>
</g>
<!-- L4YAML.Proofs.ScanStrictCoupling.unwindIndentsLoop_input&#45;&gt;L4YAML.Scanner.ScannerState.input -->
<g id="edge1" class="edge">
<title>L4YAML.Proofs.ScanStrictCoupling.unwindIndentsLoop_input&#45;&gt;L4YAML.Scanner.ScannerState.input</title>
<path fill="none" stroke="#6f42c1" stroke-width="2" stroke-dasharray="5,2" d="M257.58,-199.24C284.85,-189.94 316.23,-177.65 343,-163 356.02,-155.88 369.28,-146.21 380.18,-137.5"/>
<polygon fill="#6f42c1" stroke="#6f42c1" stroke-width="2" points="381.76,-139.37 385.65,-133.05 378.67,-135.56 381.76,-139.37"/>
<text text-anchor="middle" x="339.5" y="-173.6" font-family="Times-Roman" font-size="8.00" fill="#6f42c1">about</text>
</g>
<!-- L4YAML.Proofs.ScanStrictCoupling.unwindIndentsLoop_input&#45;&gt;L4YAML.Scanner.unwindIndentsLoop -->
<g id="edge5" class="edge">
<title>L4YAML.Proofs.ScanStrictCoupling.unwindIndentsLoop_input&#45;&gt;L4YAML.Scanner.unwindIndentsLoop</title>
<path fill="none" stroke="#6f42c1" stroke-width="2" stroke-dasharray="5,2" d="M312.02,-206.44C360.84,-198.28 416.69,-184.89 464,-163 477.6,-156.71 490.91,-146.78 501.53,-137.67"/>
<polygon fill="#6f42c1" stroke="#6f42c1" stroke-width="2" points="503.19,-139.47 506.82,-133.01 499.95,-135.8 503.19,-139.47"/>
<text text-anchor="middle" x="455.5" y="-173.6" font-family="Times-Roman" font-size="8.00" fill="#6f42c1">about</text>
</g>
<!-- L4YAML.Proofs.ScanStrictCoupling.unwindIndentsLoop_input&#45;&gt;L4YAML.Scanner.unwindIndentsLoop.eq_def -->
<g id="edge3" class="edge">
<title>L4YAML.Proofs.ScanStrictCoupling.unwindIndentsLoop_input&#45;&gt;L4YAML.Scanner.unwindIndentsLoop.eq_def</title>
<path fill="none" stroke="#28a745" stroke-width="2" d="M200.53,-197.66C208.06,-180.8 218.56,-157.3 226.36,-139.83"/>
<polygon fill="#28a745" stroke="#28a745" stroke-width="2" points="228.69,-140.61 229.31,-133.22 224.22,-138.61 228.69,-140.61"/>
<text text-anchor="middle" x="221" y="-173.6" font-family="Times-Roman" font-size="8.00">uses</text>
</g>
</g>
</svg>
