<?xml version="1.0" encoding="UTF-8" standalone="no"?>
<!DOCTYPE svg PUBLIC "-//W3C//DTD SVG 1.1//EN"
 "http://www.w3.org/Graphics/SVG/1.1/DTD/svg11.dtd">
<!-- Generated by graphviz version 2.44.0 (0)
 -->
<!-- Title: chain_ParserNodeProofs.aar_mono Pages: 1 -->
<svg width="331pt" height="98pt"
 viewBox="0.00 0.00 331.00 97.92" xmlns="http://www.w3.org/2000/svg" xmlns:xlink="http://www.w3.org/1999/xlink">
<g id="graph0" class="graph" transform="scale(1 1) rotate(0) translate(4 93.92)">
<title>chain_ParserNodeProofs.aar_mono</title>
<polygon fill="white" stroke="transparent" points="-4,4 -4,-93.92 327,-93.92 327,4 -4,4"/>
<text text-anchor="middle" x="161.5" y="-75.52" font-family="Helvetica Bold" font-size="13.00">Functorial Chains: ParserNodeProofs.aar_mono</text>
<text text-anchor="middle" x="161.5" y="-61.52" font-family="Helvetica Bold" font-size="13.00">(heuristic: used by 11 proofs)</text>
<!-- ParserNodeProofs.aar_mono -->
<g id="node1" class="node">
<title>ParserNodeProofs.aar_mono</title>
<polygon fill="#fff3cd" stroke="black" points="270.9,-17.46 270.9,-36.46 206.81,-49.89 116.19,-49.89 52.1,-36.46 52.1,-17.46 116.19,-4.03 206.81,-4.03 270.9,-17.46"/>
<polygon fill="none" stroke="black" points="274.89,-14.22 274.89,-39.7 207.23,-53.88 115.77,-53.88 48.11,-39.7 48.11,-14.22 115.77,-0.04 207.23,-0.04 274.89,-14.22"/>
<text text-anchor="middle" x="161.5" y="-29.96" font-family="Helvetica" font-size="10.00">ParserNodeProofs.aar_mono</text>
<text text-anchor="middle" x="161.5" y="-18.96" font-family="Helvetica" font-size="10.00">(no functorial chains found)</text>
</g>
</g>
</svg>
