<?xml version="1.0" encoding="UTF-8" standalone="no"?>
<!DOCTYPE svg PUBLIC "-//W3C//DTD SVG 1.1//EN"
 "http://www.w3.org/Graphics/SVG/1.1/DTD/svg11.dtd">
<!-- Generated by graphviz version 2.44.0 (0)
 -->
<!-- Title: chain_ParserNodeProofs.emptyNode_aar Pages: 1 -->
<svg width="368pt" height="98pt"
 viewBox="0.00 0.00 368.00 97.92" xmlns="http://www.w3.org/2000/svg" xmlns:xlink="http://www.w3.org/1999/xlink">
<g id="graph0" class="graph" transform="scale(1 1) rotate(0) translate(4 93.92)">
<title>chain_ParserNodeProofs.emptyNode_aar</title>
<polygon fill="white" stroke="transparent" points="-4,4 -4,-93.92 364,-93.92 364,4 -4,4"/>
<text text-anchor="middle" x="180" y="-75.52" font-family="Helvetica Bold" font-size="13.00">Functorial Chains: ParserNodeProofs.emptyNode_aar</text>
<text text-anchor="middle" x="180" y="-61.52" font-family="Helvetica Bold" font-size="13.00">(heuristic: used by 9 proofs)</text>
<!-- ParserNodeProofs.emptyNode_aar -->
<g id="node1" class="node">
<title>ParserNodeProofs.emptyNode_aar</title>
<polygon fill="#fff3cd" stroke="black" points="310.22,-17.46 310.22,-36.46 233.94,-49.89 126.06,-49.89 49.78,-36.46 49.78,-17.46 126.06,-4.03 233.94,-4.03 310.22,-17.46"/>
<polygon fill="none" stroke="black" points="314.22,-14.11 314.22,-39.81 234.29,-53.88 125.71,-53.88 45.78,-39.81 45.78,-14.11 125.71,-0.04 234.29,-0.04 314.22,-14.11"/>
<text text-anchor="middle" x="180" y="-29.96" font-family="Helvetica" font-size="10.00">ParserNodeProofs.emptyNode_aar</text>
<text text-anchor="middle" x="180" y="-18.96" font-family="Helvetica" font-size="10.00">(no functorial chains found)</text>
</g>
</g>
</svg>
