<?xml version="1.0" encoding="UTF-8" standalone="no"?>
<!DOCTYPE svg PUBLIC "-//W3C//DTD SVG 1.1//EN"
 "http://www.w3.org/Graphics/SVG/1.1/DTD/svg11.dtd">
<!-- Generated by graphviz version 2.44.0 (0)
 -->
<!-- Title: chain_ParserGrammable.ParseState.advance_tokens Pages: 1 -->
<svg width="439pt" height="98pt"
 viewBox="0.00 0.00 439.00 97.92" xmlns="http://www.w3.org/2000/svg" xmlns:xlink="http://www.w3.org/1999/xlink">
<g id="graph0" class="graph" transform="scale(1 1) rotate(0) translate(4 93.92)">
<title>chain_ParserGrammable.ParseState.advance_tokens</title>
<polygon fill="white" stroke="transparent" points="-4,4 -4,-93.92 435,-93.92 435,4 -4,4"/>
<text text-anchor="middle" x="215.5" y="-75.52" font-family="Helvetica Bold" font-size="13.00">Functorial Chains: ParserGrammable.ParseState.advance_tokens</text>
<text text-anchor="middle" x="215.5" y="-61.52" font-family="Helvetica Bold" font-size="13.00">(heuristic: used by 5 proofs)</text>
<!-- L4YAML.Proofs.ParserGrammable.ParseState.advance_tokens -->
<g id="node1" class="node">
<title>L4YAML.Proofs.ParserGrammable.ParseState.advance_tokens</title>
<polygon fill="#fff3cd" stroke="black" points="384.79,-17.46 384.79,-36.46 285.62,-49.89 145.38,-49.89 46.21,-36.46 46.21,-17.46 145.38,-4.03 285.62,-4.03 384.79,-17.46"/>
<polygon fill="none" stroke="black" points="388.79,-13.98 388.79,-39.95 285.89,-53.88 145.11,-53.88 42.21,-39.95 42.21,-13.98 145.11,-0.04 285.89,-0.04 388.79,-13.98"/>
<text text-anchor="middle" x="215.5" y="-29.96" font-family="Helvetica" font-size="10.00">ParserGrammable.ParseState.advance_tokens</text>
<text text-anchor="middle" x="215.5" y="-18.96" font-family="Helvetica" font-size="10.00">(no functorial chains found)</text>
</g>
</g>
</svg>
