<?xml version="1.0" encoding="UTF-8" standalone="no"?>
<!DOCTYPE svg PUBLIC "-//W3C//DTD SVG 1.1//EN"
 "http://www.w3.org/Graphics/SVG/1.1/DTD/svg11.dtd">
<!-- Generated by graphviz version 2.44.0 (0)
 -->
<!-- Title: chain_Grammar.Grammable._proof_1 Pages: 1 -->
<svg width="340pt" height="98pt"
 viewBox="0.00 0.00 340.00 97.92" xmlns="http://www.w3.org/2000/svg" xmlns:xlink="http://www.w3.org/1999/xlink">
<g id="graph0" class="graph" transform="scale(1 1) rotate(0) translate(4 93.92)">
<title>chain_Grammar.Grammable._proof_1</title>
<polygon fill="white" stroke="transparent" points="-4,4 -4,-93.92 336,-93.92 336,4 -4,4"/>
<text text-anchor="middle" x="166" y="-75.52" font-family="Helvetica Bold" font-size="13.00">Functorial Chains: Grammar.Grammable._proof_1</text>
<text text-anchor="middle" x="166" y="-61.52" font-family="Helvetica Bold" font-size="13.00">(heuristic: used by 16 proofs)</text>
<!-- L4YAML.Grammar.Grammable._proof_1 -->
<g id="node1" class="node">
<title>L4YAML.Grammar.Grammable._proof_1</title>
<polygon fill="#fff3cd" stroke="black" points="281.64,-17.46 281.64,-36.46 213.9,-49.89 118.1,-49.89 50.36,-36.46 50.36,-17.46 118.1,-4.03 213.9,-4.03 281.64,-17.46"/>
<polygon fill="none" stroke="black" points="285.64,-14.19 285.64,-39.74 214.29,-53.88 117.71,-53.88 46.36,-39.74 46.36,-14.19 117.71,-0.04 214.29,-0.04 285.64,-14.19"/>
<text text-anchor="middle" x="166" y="-29.96" font-family="Helvetica" font-size="10.00">Grammar.Grammable._proof_1</text>
<text text-anchor="middle" x="166" y="-18.96" font-family="Helvetica" font-size="10.00">(no functorial chains found)</text>
</g>
</g>
</svg>
