<?xml version="1.0" encoding="UTF-8" standalone="no"?>
<!DOCTYPE svg PUBLIC "-//W3C//DTD SVG 1.1//EN"
 "http://www.w3.org/Graphics/SVG/1.1/DTD/svg11.dtd">
<!-- Generated by graphviz version 2.44.0 (0)
 -->
<!-- Title: ParserGrammable.applyNodeFinalization_pos Pages: 1 -->
<svg width="788pt" height="418pt"
 viewBox="0.00 0.00 787.59 418.00" xmlns="http://www.w3.org/2000/svg" xmlns:xlink="http://www.w3.org/1999/xlink">
<g id="graph0" class="graph" transform="scale(1 1) rotate(0) translate(4 414)">
<title>ParserGrammable.applyNodeFinalization_pos</title>
<polygon fill="white" stroke="transparent" points="-4,4 -4,-414 783.59,-414 783.59,4 -4,4"/>
<text text-anchor="middle" x="389.79" y="-395.6" font-family="Helvetica Bold" font-size="13.00">ParserGrammable.applyNodeFinalization_pos</text>
<text text-anchor="middle" x="389.79" y="-381.6" font-family="Helvetica Bold" font-size="13.00">(heuristic: used by 6 proofs)</text>
<text text-anchor="middle" x="389.79" y="-367.6" font-family="Helvetica Bold" font-size="13.00">(L4YAML.Proofs.Parser.ParserWellBehaved)</text>
<g id="clust1" class="cluster">
<title>cluster_functions</title>
<polygon fill="none" stroke="#4a90d9" stroke-dasharray="5,2" points="585.59,-8 585.59,-352 771.59,-352 771.59,-8 585.59,-8"/>
<text text-anchor="middle" x="678.59" y="-337.6" font-family="Helvetica Bold" font-size="13.00" fill="#4a90d9">Functions</text>
</g>
<g id="clust2" class="cluster">
<title>cluster_key</title>
<polygon fill="none" stroke="#d4a017" stroke-dasharray="5,2" points="167.44,-138 167.44,-220 540.59,-220 540.59,-138 167.44,-138"/>
<text text-anchor="middle" x="354.01" y="-205.6" font-family="Helvetica Bold" font-size="13.00" fill="#d4a017">Key Theorem</text>
</g>
<g id="clust4" class="cluster">
<title>cluster_stdlib</title>
<polygon fill="none" stroke="#e67e22" stroke-dasharray="5,2" points="8,-88 8,-270 146.44,-270 146.44,-88 8,-88"/>
<text text-anchor="middle" x="77.22" y="-255.6" font-family="Helvetica Bold" font-size="13.00" fill="#e67e22">Stdlib Lemmas</text>
</g>
<!-- L4YAML.TokenParser.ParseState -->
<g id="node1" class="node">
<title>L4YAML.TokenParser.ParseState</title>
<g id="a_node1"><a xlink:href="../../../api/L4YAML/Parser/State.html#L4YAML.TokenParser.ParseState" xlink:title="TokenParser.ParseState\n(inductive)" target="_blank">
<polygon fill="#dce9f7" stroke="#4a90d9" points="740.59,-322 616.59,-322 616.59,-286 740.59,-286 740.59,-322"/>
<text text-anchor="middle" x="678.59" y="-307" font-family="Helvetica" font-size="10.00">TokenParser.ParseState</text>
<text text-anchor="middle" x="678.59" y="-296" font-family="Helvetica" font-size="10.00">(inductive)</text>
</a>
</g>
</g>
<!-- L4YAML.YamlValue -->
<g id="node2" class="node">
<title>L4YAML.YamlValue</title>
<g id="a_node2"><a xlink:href="../../../api/L4YAML/Spec/Types.html#L4YAML.YamlValue" xlink:title="YamlValue\n(inductive)" target="_blank">
<polygon fill="#dce9f7" stroke="#4a90d9" points="709.59,-268 647.59,-268 647.59,-232 709.59,-232 709.59,-268"/>
<text text-anchor="middle" x="678.59" y="-253" font-family="Helvetica" font-size="10.00">YamlValue</text>
<text text-anchor="middle" x="678.59" y="-242" font-family="Helvetica" font-size="10.00">(inductive)</text>
</a>
</g>
</g>
<!-- L4YAML.TokenParser.applyNodeFinalization -->
<g id="node3" class="node">
<title>L4YAML.TokenParser.applyNodeFinalization</title>
<g id="a_node3"><a xlink:href="../../../api/L4YAML/Parser/State.html#L4YAML.TokenParser.applyNodeFinalization" xlink:title="TokenParser.applyNodeFinalization\n(def)" target="_blank">
<polygon fill="#dce9f7" stroke="#4a90d9" points="763.59,-214 593.59,-214 593.59,-178 763.59,-178 763.59,-214"/>
<text text-anchor="middle" x="678.59" y="-199" font-family="Helvetica" font-size="10.00">TokenParser.applyNodeFinalization</text>
<text text-anchor="middle" x="678.59" y="-188" font-family="Helvetica" font-size="10.00">(def)</text>
</a>
</g>
</g>
<!-- L4YAML.TokenParser.NodeProperties -->
<g id="node4" class="node">
<title>L4YAML.TokenParser.NodeProperties</title>
<g id="a_node4"><a xlink:href="../../../api/L4YAML/Parser/State.html#L4YAML.TokenParser.NodeProperties" xlink:title="TokenParser.NodeProperties\n(inductive)" target="_blank">
<polygon fill="#dce9f7" stroke="#4a90d9" points="750.09,-160 607.09,-160 607.09,-124 750.09,-124 750.09,-160"/>
<text text-anchor="middle" x="678.59" y="-145" font-family="Helvetica" font-size="10.00">TokenParser.NodeProperties</text>
<text text-anchor="middle" x="678.59" y="-134" font-family="Helvetica" font-size="10.00">(inductive)</text>
</a>
</g>
</g>
<!-- L4YAML.YamlPos -->
<g id="node5" class="node">
<title>L4YAML.YamlPos</title>
<g id="a_node5"><a xlink:href="../../../api/L4YAML/Spec/Types.html#L4YAML.YamlPos" xlink:title="YamlPos\n(inductive)" target="_blank">
<polygon fill="#dce9f7" stroke="#4a90d9" points="709.59,-106 647.59,-106 647.59,-70 709.59,-70 709.59,-106"/>
<text text-anchor="middle" x="678.59" y="-91" font-family="Helvetica" font-size="10.00">YamlPos</text>
<text text-anchor="middle" x="678.59" y="-80" font-family="Helvetica" font-size="10.00">(inductive)</text>
</a>
</g>
</g>
<!-- L4YAML.TokenParser.ParseState.pos -->
<g id="node6" class="node">
<title>L4YAML.TokenParser.ParseState.pos</title>
<g id="a_node6"><a xlink:href="../../../api/L4YAML/Parser/State.html#L4YAML.TokenParser.ParseState.pos" xlink:title="TokenParser.ParseState.pos\n(def)" target="_blank">
<polygon fill="#dce9f7" stroke="#4a90d9" points="750.09,-52 607.09,-52 607.09,-16 750.09,-16 750.09,-52"/>
<text text-anchor="middle" x="678.59" y="-37" font-family="Helvetica" font-size="10.00">TokenParser.ParseState.pos</text>
<text text-anchor="middle" x="678.59" y="-26" font-family="Helvetica" font-size="10.00">(def)</text>
</a>
</g>
</g>
<!-- L4YAML.Proofs.ParserGrammable.applyNodeFinalization_pos -->
<g id="node7" class="node">
<title>L4YAML.Proofs.ParserGrammable.applyNodeFinalization_pos</title>
<g id="a_node7"><a xlink:href="../../../api/L4YAML/Proofs/Parser/ParserWellBehaved.html#L4YAML.Proofs.ParserGrammable.applyNodeFinalization_pos" xlink:title="ParserGrammable.applyNodeFinalization_pos" target="_blank">
<polygon fill="#fff3cd" stroke="#d4a017" points="528.66,-160.54 528.66,-175.46 426.35,-186 281.67,-186 179.37,-175.46 179.37,-160.54 281.67,-150 426.35,-150 528.66,-160.54"/>
<polygon fill="none" stroke="#d4a017" points="532.66,-156.94 532.66,-179.06 426.56,-190 281.47,-190 175.37,-179.06 175.37,-156.94 281.47,-146 426.56,-146 532.66,-156.94"/>
<text text-anchor="middle" x="354.01" y="-164.9" font-family="Helvetica" font-size="12.00">ParserGrammable.applyNodeFinalization_pos</text>
</a>
</g>
</g>
<!-- L4YAML.Proofs.ParserGrammable.applyNodeFinalization_pos&#45;&gt;L4YAML.TokenParser.ParseState -->
<g id="edge6" class="edge">
<title>L4YAML.Proofs.ParserGrammable.applyNodeFinalization_pos&#45;&gt;L4YAML.TokenParser.ParseState</title>
<path fill="none" stroke="#4a90d9" stroke-width="2" d="M396.65,-190.11C442.18,-213.71 517.72,-251.18 585.59,-277 593.24,-279.91 601.36,-282.7 609.47,-285.31"/>
<polygon fill="#4a90d9" stroke="#4a90d9" stroke-width="2" points="608.86,-287.69 616.27,-287.46 610.33,-283.02 608.86,-287.69"/>
<text text-anchor="middle" x="563.09" y="-274.6" font-family="Times-Roman" font-size="8.00" fill="#4a90d9">about</text>
</g>
<!-- L4YAML.Proofs.ParserGrammable.applyNodeFinalization_pos&#45;&gt;L4YAML.YamlValue -->
<g id="edge5" class="edge">
<title>L4YAML.Proofs.ParserGrammable.applyNodeFinalization_pos&#45;&gt;L4YAML.YamlValue</title>
<path fill="none" stroke="#4a90d9" stroke-width="2" d="M437.25,-188.9C502.72,-205.55 591.28,-228.06 640.57,-240.59"/>
<polygon fill="#4a90d9" stroke="#4a90d9" stroke-width="2" points="640.16,-243.01 647.55,-242.36 641.37,-238.26 640.16,-243.01"/>
<text text-anchor="middle" x="563.09" y="-225.6" font-family="Times-Roman" font-size="8.00" fill="#4a90d9">about</text>
</g>
<!-- L4YAML.Proofs.ParserGrammable.applyNodeFinalization_pos&#45;&gt;L4YAML.TokenParser.applyNodeFinalization -->
<g id="edge4" class="edge">
<title>L4YAML.Proofs.ParserGrammable.applyNodeFinalization_pos&#45;&gt;L4YAML.TokenParser.applyNodeFinalization</title>
<path fill="none" stroke="#4a90d9" stroke-width="2" d="M510.16,-181.47C536.31,-183.74 562.67,-186.03 586.5,-188.09"/>
<polygon fill="#4a90d9" stroke="#4a90d9" stroke-width="2" points="586.29,-190.53 593.47,-188.7 586.71,-185.65 586.29,-190.53"/>
<text text-anchor="middle" x="563.09" y="-188.6" font-family="Times-Roman" font-size="8.00" fill="#4a90d9">about</text>
</g>
<!-- L4YAML.Proofs.ParserGrammable.applyNodeFinalization_pos&#45;&gt;L4YAML.TokenParser.NodeProperties -->
<g id="edge2" class="edge">
<title>L4YAML.Proofs.ParserGrammable.applyNodeFinalization_pos&#45;&gt;L4YAML.TokenParser.NodeProperties</title>
<path fill="none" stroke="#4a90d9" stroke-width="2" d="M515.36,-155.08C544.7,-152.71 574.08,-150.34 599.62,-148.28"/>
<polygon fill="#4a90d9" stroke="#4a90d9" stroke-width="2" points="599.93,-150.72 606.71,-147.71 599.54,-145.83 599.93,-150.72"/>
<text text-anchor="middle" x="563.09" y="-153.6" font-family="Times-Roman" font-size="8.00" fill="#4a90d9">about</text>
</g>
<!-- L4YAML.Proofs.ParserGrammable.applyNodeFinalization_pos&#45;&gt;L4YAML.YamlPos -->
<g id="edge3" class="edge">
<title>L4YAML.Proofs.ParserGrammable.applyNodeFinalization_pos&#45;&gt;L4YAML.YamlPos</title>
<path fill="none" stroke="#4a90d9" stroke-width="2" d="M438.92,-147.19C504.22,-131 591.69,-109.3 640.56,-97.18"/>
<polygon fill="#4a90d9" stroke="#4a90d9" stroke-width="2" points="641.28,-99.53 647.49,-95.46 640.1,-94.77 641.28,-99.53"/>
<text text-anchor="middle" x="563.09" y="-120.6" font-family="Times-Roman" font-size="8.00" fill="#4a90d9">about</text>
</g>
<!-- L4YAML.Proofs.ParserGrammable.applyNodeFinalization_pos&#45;&gt;L4YAML.TokenParser.ParseState.pos -->
<g id="edge1" class="edge">
<title>L4YAML.Proofs.ParserGrammable.applyNodeFinalization_pos&#45;&gt;L4YAML.TokenParser.ParseState.pos</title>
<path fill="none" stroke="#4a90d9" stroke-width="2" d="M397.54,-145.93C443.2,-122.79 518.26,-86.34 585.59,-61 591.65,-58.72 598,-56.51 604.4,-54.39"/>
<polygon fill="#4a90d9" stroke="#4a90d9" stroke-width="2" points="605.45,-56.63 611.36,-52.15 603.95,-51.97 605.45,-56.63"/>
<text text-anchor="middle" x="563.09" y="-75.6" font-family="Times-Roman" font-size="8.00" fill="#4a90d9">about</text>
</g>
<!-- Bool.of_not_eq_true -->
<g id="node8" class="node">
<title>Bool.of_not_eq_true</title>
<g id="a_node8"><a xlink:href="../../../api/Init/Core.html#Bool.of_not_eq_true" xlink:title="Bool.of_not_eq_true" target="_blank">
<ellipse fill="#fdebd0" stroke="#e67e22" cx="77.22" cy="-222" rx="61.44" ry="18"/>
<text text-anchor="middle" x="77.22" y="-219.5" font-family="Helvetica" font-size="10.00">Bool.of_not_eq_true</text>
</a>
</g>
</g>
<!-- Bool.of_not_eq_true&#45;&gt;L4YAML.Proofs.ParserGrammable.applyNodeFinalization_pos -->
<g id="edge7" class="edge">
<title>Bool.of_not_eq_true&#45;&gt;L4YAML.Proofs.ParserGrammable.applyNodeFinalization_pos</title>
<path fill="none" stroke="#e67e22" stroke-width="2" d="M128.62,-212.1C161.94,-205.55 206.86,-196.72 247.76,-188.68"/>
<polygon fill="#e67e22" stroke="#e67e22" stroke-width="2" points="248.41,-191.05 254.81,-187.3 247.47,-186.24 248.41,-191.05"/>
</g>
<!-- eq_self -->
<g id="node9" class="node">
<title>eq_self</title>
<g id="a_node9"><a xlink:href="../../../api/Init/SimpLemmas.html#eq_self" xlink:title="eq_self" target="_blank">
<ellipse fill="#fdebd0" stroke="#e67e22" cx="77.22" cy="-168" rx="28.01" ry="18"/>
<text text-anchor="middle" x="77.22" y="-165.5" font-family="Helvetica" font-size="10.00">eq_self</text>
</a>
</g>
</g>
<!-- eq_self&#45;&gt;L4YAML.Proofs.ParserGrammable.applyNodeFinalization_pos -->
<g id="edge8" class="edge">
<title>eq_self&#45;&gt;L4YAML.Proofs.ParserGrammable.applyNodeFinalization_pos</title>
<path fill="none" stroke="#e67e22" stroke-width="2" d="M105.57,-168C121.76,-168 143.83,-168 168.16,-168"/>
<polygon fill="#e67e22" stroke="#e67e22" stroke-width="2" points="168.42,-170.45 175.42,-168 168.42,-165.55 168.42,-170.45"/>
</g>
<!-- of_eq_true -->
<g id="node10" class="node">
<title>of_eq_true</title>
<g id="a_node10"><a xlink:href="../../../api/Init/SimpLemmas.html#of_eq_true" xlink:title="of_eq_true" target="_blank">
<ellipse fill="#fdebd0" stroke="#e67e22" cx="77.22" cy="-114" rx="36.49" ry="18"/>
<text text-anchor="middle" x="77.22" y="-111.5" font-family="Helvetica" font-size="10.00">of_eq_true</text>
</a>
</g>
</g>
<!-- of_eq_true&#45;&gt;L4YAML.Proofs.ParserGrammable.applyNodeFinalization_pos -->
<g id="edge9" class="edge">
<title>of_eq_true&#45;&gt;L4YAML.Proofs.ParserGrammable.applyNodeFinalization_pos</title>
<path fill="none" stroke="#e67e22" stroke-width="2" d="M111.37,-120.51C145.11,-127.14 199.2,-137.77 247.66,-147.3"/>
<polygon fill="#e67e22" stroke="#e67e22" stroke-width="2" points="247.42,-149.75 254.77,-148.69 248.37,-144.94 247.42,-149.75"/>
</g>
</g>
</svg>
