<?xml version="1.0" encoding="UTF-8" standalone="no"?>
<!DOCTYPE svg PUBLIC "-//W3C//DTD SVG 1.1//EN"
 "http://www.w3.org/Graphics/SVG/1.1/DTD/svg11.dtd">
<!-- Generated by graphviz version 2.44.0 (0)
 -->
<!-- Title: ParserGrammable.flowBracketBalance_single Pages: 1 -->
<svg width="1058pt" height="566pt"
 viewBox="0.00 0.00 1057.74 566.00" xmlns="http://www.w3.org/2000/svg" xmlns:xlink="http://www.w3.org/1999/xlink">
<g id="graph0" class="graph" transform="scale(1 1) rotate(0) translate(4 562)">
<title>ParserGrammable.flowBracketBalance_single</title>
<polygon fill="white" stroke="transparent" points="-4,4 -4,-562 1053.74,-562 1053.74,4 -4,4"/>
<text text-anchor="middle" x="524.87" y="-543.6" font-family="Helvetica Bold" font-size="13.00">ParserGrammable.flowBracketBalance_single</text>
<text text-anchor="middle" x="524.87" y="-529.6" font-family="Helvetica Bold" font-size="13.00">(heuristic: used by 7 proofs)</text>
<text text-anchor="middle" x="524.87" y="-515.6" font-family="Helvetica Bold" font-size="13.00">(L4YAML.Proofs.Parser.ParserGrammableBase)</text>
<g id="clust1" class="cluster">
<title>cluster_functions</title>
<polygon fill="none" stroke="#4a90d9" stroke-dasharray="5,2" points="840.74,-165 840.74,-455 1041.74,-455 1041.74,-165 840.74,-165"/>
<text text-anchor="middle" x="941.24" y="-440.6" font-family="Helvetica Bold" font-size="13.00" fill="#4a90d9">Functions</text>
</g>
<g id="clust2" class="cluster">
<title>cluster_key</title>
<polygon fill="none" stroke="#d4a017" stroke-dasharray="5,2" points="422.6,-215 422.6,-297 795.74,-297 795.74,-215 422.6,-215"/>
<text text-anchor="middle" x="609.17" y="-282.6" font-family="Helvetica Bold" font-size="13.00" fill="#d4a017">Key Theorem</text>
</g>
<g id="clust3" class="cluster">
<title>cluster_proofs</title>
<polygon fill="none" stroke="#28a745" stroke-dasharray="5,2" points="8,-360 8,-500 401.6,-500 401.6,-360 8,-360"/>
<text text-anchor="middle" x="204.8" y="-485.6" font-family="Helvetica Bold" font-size="13.00" fill="#28a745">Proof Dependencies</text>
</g>
<g id="clust4" class="cluster">
<title>cluster_stdlib</title>
<polygon fill="none" stroke="#e67e22" stroke-dasharray="5,2" points="116.15,-8 116.15,-352 293.44,-352 293.44,-8 116.15,-8"/>
<text text-anchor="middle" x="204.8" y="-337.6" font-family="Helvetica Bold" font-size="13.00" fill="#e67e22">Stdlib Lemmas</text>
</g>
<!-- L4YAML.Positioned -->
<g id="node1" class="node">
<title>L4YAML.Positioned</title>
<g id="a_node1"><a xlink:href="../../../api/L4YAML/Token/Token.html#L4YAML.Positioned" xlink:title="Positioned\n(inductive)" target="_blank">
<polygon fill="#dce9f7" stroke="#4a90d9" points="972.24,-371 910.24,-371 910.24,-335 972.24,-335 972.24,-371"/>
<text text-anchor="middle" x="941.24" y="-356" font-family="Helvetica" font-size="10.00">Positioned</text>
<text text-anchor="middle" x="941.24" y="-345" font-family="Helvetica" font-size="10.00">(inductive)</text>
</a>
</g>
</g>
<!-- L4YAML.Positioned.val -->
<g id="node2" class="node">
<title>L4YAML.Positioned.val</title>
<g id="a_node2"><a xlink:href="../../../api/L4YAML/Token/Token.html#L4YAML.Positioned.val" xlink:title="Positioned.val\n(def)" target="_blank">
<polygon fill="#dce9f7" stroke="#4a90d9" points="979.74,-263 902.74,-263 902.74,-227 979.74,-227 979.74,-263"/>
<text text-anchor="middle" x="941.24" y="-248" font-family="Helvetica" font-size="10.00">Positioned.val</text>
<text text-anchor="middle" x="941.24" y="-237" font-family="Helvetica" font-size="10.00">(def)</text>
</a>
</g>
</g>
<!-- L4YAML.YamlToken -->
<g id="node3" class="node">
<title>L4YAML.YamlToken</title>
<g id="a_node3"><a xlink:href="../../../api/L4YAML/Token/Token.html#L4YAML.YamlToken" xlink:title="YamlToken\n(inductive)" target="_blank">
<polygon fill="#dce9f7" stroke="#4a90d9" points="973.24,-425 909.24,-425 909.24,-389 973.24,-389 973.24,-425"/>
<text text-anchor="middle" x="941.24" y="-410" font-family="Helvetica" font-size="10.00">YamlToken</text>
<text text-anchor="middle" x="941.24" y="-399" font-family="Helvetica" font-size="10.00">(inductive)</text>
</a>
</g>
</g>
<!-- L4YAML.Proofs.ParserGrammable.flowBracketBalance -->
<g id="node4" class="node">
<title>L4YAML.Proofs.ParserGrammable.flowBracketBalance</title>
<g id="a_node4"><a xlink:href="../../../api/L4YAML/Proofs/Parser/ParserGrammableBase.html#L4YAML.Proofs.ParserGrammable.flowBracketBalance" xlink:title="ParserGrammable.flowBracketBalance\n(def)" target="_blank">
<polygon fill="#dce9f7" stroke="#4a90d9" points="1033.74,-209 848.74,-209 848.74,-173 1033.74,-173 1033.74,-209"/>
<text text-anchor="middle" x="941.24" y="-194" font-family="Helvetica" font-size="10.00">ParserGrammable.flowBracketBalance</text>
<text text-anchor="middle" x="941.24" y="-183" font-family="Helvetica" font-size="10.00">(def)</text>
</a>
</g>
</g>
<!-- L4YAML.Proofs.ParserGrammable.flowBracketDelta -->
<g id="node5" class="node">
<title>L4YAML.Proofs.ParserGrammable.flowBracketDelta</title>
<g id="a_node5"><a xlink:href="../../../api/L4YAML/Proofs/Parser/ParserGrammableBase.html#L4YAML.Proofs.ParserGrammable.flowBracketDelta" xlink:title="ParserGrammable.flowBracketDelta\n(def)" target="_blank">
<polygon fill="#dce9f7" stroke="#4a90d9" points="1027.74,-317 854.74,-317 854.74,-281 1027.74,-281 1027.74,-317"/>
<text text-anchor="middle" x="941.24" y="-302" font-family="Helvetica" font-size="10.00">ParserGrammable.flowBracketDelta</text>
<text text-anchor="middle" x="941.24" y="-291" font-family="Helvetica" font-size="10.00">(def)</text>
</a>
</g>
</g>
<!-- L4YAML.Proofs.ParserGrammable.flowBracketBalance_single -->
<g id="node6" class="node">
<title>L4YAML.Proofs.ParserGrammable.flowBracketBalance_single</title>
<g id="a_node6"><a xlink:href="../../../api/L4YAML/Proofs/Parser/ParserGrammableBase.html#L4YAML.Proofs.ParserGrammable.flowBracketBalance_single" xlink:title="ParserGrammable.flowBracketBalance_single" target="_blank">
<polygon fill="#fff3cd" stroke="#d4a017" points="783.81,-237.54 783.81,-252.46 681.51,-263 536.83,-263 434.52,-252.46 434.52,-237.54 536.83,-227 681.51,-227 783.81,-237.54"/>
<polygon fill="none" stroke="#d4a017" points="787.81,-233.94 787.81,-256.06 681.71,-267 536.62,-267 430.52,-256.06 430.52,-233.94 536.62,-223 681.71,-223 787.81,-233.94"/>
<text text-anchor="middle" x="609.17" y="-241.9" font-family="Helvetica" font-size="12.00">ParserGrammable.flowBracketBalance_single</text>
</a>
</g>
</g>
<!-- L4YAML.Proofs.ParserGrammable.flowBracketBalance_single&#45;&gt;L4YAML.Positioned -->
<g id="edge2" class="edge">
<title>L4YAML.Proofs.ParserGrammable.flowBracketBalance_single&#45;&gt;L4YAML.Positioned</title>
<path fill="none" stroke="#4a90d9" stroke-width="2" d="M690.99,-266.05C733.73,-278.67 786.38,-296.62 830.74,-319 835.58,-321.44 835.83,-323.7 840.74,-326 860.52,-335.26 884.05,-341.83 903.26,-346.16"/>
<polygon fill="#4a90d9" stroke="#4a90d9" stroke-width="2" points="902.76,-348.56 910.12,-347.66 903.81,-343.78 902.76,-348.56"/>
<text text-anchor="middle" x="818.24" y="-321.6" font-family="Times-Roman" font-size="8.00" fill="#4a90d9">about</text>
</g>
<!-- L4YAML.Proofs.ParserGrammable.flowBracketBalance_single&#45;&gt;L4YAML.Positioned.val -->
<g id="edge3" class="edge">
<title>L4YAML.Proofs.ParserGrammable.flowBracketBalance_single&#45;&gt;L4YAML.Positioned.val</title>
<path fill="none" stroke="#4a90d9" stroke-width="2" d="M787.76,-245C827.85,-245 866.95,-245 895.52,-245"/>
<polygon fill="#4a90d9" stroke="#4a90d9" stroke-width="2" points="895.55,-247.45 902.55,-245 895.55,-242.55 895.55,-247.45"/>
<text text-anchor="middle" x="818.24" y="-247.6" font-family="Times-Roman" font-size="8.00" fill="#4a90d9">about</text>
</g>
<!-- L4YAML.Proofs.ParserGrammable.flowBracketBalance_single&#45;&gt;L4YAML.YamlToken -->
<g id="edge4" class="edge">
<title>L4YAML.Proofs.ParserGrammable.flowBracketBalance_single&#45;&gt;L4YAML.YamlToken</title>
<path fill="none" stroke="#4a90d9" stroke-width="2" d="M689.13,-266.33C724.11,-278.33 764.34,-295.85 795.74,-320 802.34,-325.08 833.84,-375.32 840.74,-380 858.81,-392.26 882.26,-398.97 901.85,-402.63"/>
<polygon fill="#4a90d9" stroke="#4a90d9" stroke-width="2" points="901.57,-405.07 908.88,-403.85 902.4,-400.24 901.57,-405.07"/>
<text text-anchor="middle" x="818.24" y="-369.6" font-family="Times-Roman" font-size="8.00" fill="#4a90d9">about</text>
</g>
<!-- L4YAML.Proofs.ParserGrammable.flowBracketBalance_single&#45;&gt;L4YAML.Proofs.ParserGrammable.flowBracketBalance -->
<g id="edge5" class="edge">
<title>L4YAML.Proofs.ParserGrammable.flowBracketBalance_single&#45;&gt;L4YAML.Proofs.ParserGrammable.flowBracketBalance</title>
<path fill="none" stroke="#4a90d9" stroke-width="2" d="M720.54,-226.94C759.7,-220.54 803.5,-213.37 841.62,-207.13"/>
<polygon fill="#4a90d9" stroke="#4a90d9" stroke-width="2" points="842.16,-209.53 848.67,-205.98 841.37,-204.69 842.16,-209.53"/>
<text text-anchor="middle" x="818.24" y="-213.6" font-family="Times-Roman" font-size="8.00" fill="#4a90d9">about</text>
</g>
<!-- L4YAML.Proofs.ParserGrammable.flowBracketBalance_single&#45;&gt;L4YAML.Proofs.ParserGrammable.flowBracketDelta -->
<g id="edge1" class="edge">
<title>L4YAML.Proofs.ParserGrammable.flowBracketBalance_single&#45;&gt;L4YAML.Proofs.ParserGrammable.flowBracketDelta</title>
<path fill="none" stroke="#4a90d9" stroke-width="2" d="M720.54,-263.06C761.64,-269.78 807.85,-277.34 847.25,-283.79"/>
<polygon fill="#4a90d9" stroke="#4a90d9" stroke-width="2" points="847.22,-286.26 854.52,-284.98 848.01,-281.43 847.22,-286.26"/>
<text text-anchor="middle" x="818.24" y="-281.6" font-family="Times-Roman" font-size="8.00" fill="#4a90d9">about</text>
</g>
<!-- L4YAML.Proofs.ParserGrammable.flowBracketBalance_single._proof_1_2 -->
<g id="node7" class="node">
<title>L4YAML.Proofs.ParserGrammable.flowBracketBalance_single._proof_1_2</title>
<g id="a_node7"><a xlink:href="../../../api/L4YAML/Proofs/Parser/ParserGrammableBase.html#L4YAML.Proofs.ParserGrammable.flowBracketBalance_single._proof_1_2" xlink:title="ParserGrammable.flowBracketBalance_single._proof_1_2\n(Parser.ParserGrammableBase)" target="_blank">
<ellipse fill="#d4edda" stroke="#28a745" cx="204.8" cy="-449" rx="188.6" ry="21.43"/>
<text text-anchor="middle" x="204.8" y="-452" font-family="Helvetica" font-size="10.00">ParserGrammable.flowBracketBalance_single._proof_1_2</text>
<text text-anchor="middle" x="204.8" y="-441" font-family="Helvetica" font-size="10.00">(Parser.ParserGrammableBase)</text>
</a>
</g>
</g>
<!-- L4YAML.Proofs.ParserGrammable.flowBracketBalance_single._proof_1_2&#45;&gt;L4YAML.Positioned -->
<g id="edge14" class="edge">
<title>L4YAML.Proofs.ParserGrammable.flowBracketBalance_single._proof_1_2&#45;&gt;L4YAML.Positioned</title>
<path fill="none" stroke="#6f42c1" stroke-width="2" stroke-dasharray="5,2" d="M362.42,-437.17C376.23,-432.57 389.53,-426.63 401.6,-419 415.66,-410.11 408.15,-396.27 422.6,-388 458.65,-367.36 754.3,-366.91 795.74,-364 832.95,-361.39 875.53,-358.11 904.78,-355.82"/>
<polygon fill="#6f42c1" stroke="#6f42c1" stroke-width="2" points="905.23,-357.54 910.08,-355.4 904.96,-354.05 905.23,-357.54"/>
<text text-anchor="middle" x="609.17" y="-390.4" font-family="Times-Roman" font-size="7.00" fill="#6f42c1">about</text>
</g>
<!-- L4YAML.Proofs.ParserGrammable.flowBracketBalance_single._proof_1_2&#45;&gt;L4YAML.YamlToken -->
<g id="edge15" class="edge">
<title>L4YAML.Proofs.ParserGrammable.flowBracketBalance_single._proof_1_2&#45;&gt;L4YAML.YamlToken</title>
<path fill="none" stroke="#6f42c1" stroke-width="2" stroke-dasharray="5,2" d="M386.82,-443.24C511.69,-438.55 681.44,-430.75 830.74,-419 855.27,-417.07 882.81,-414.05 904.13,-411.52"/>
<polygon fill="#6f42c1" stroke="#6f42c1" stroke-width="2" points="904.38,-413.25 909.14,-410.92 903.96,-409.78 904.38,-413.25"/>
<text text-anchor="middle" x="609.17" y="-443.4" font-family="Times-Roman" font-size="7.00" fill="#6f42c1">about</text>
</g>
<!-- L4YAML.Proofs.ParserGrammable.flowBracketBalance_single._proof_1_2&#45;&gt;L4YAML.Proofs.ParserGrammable.flowBracketBalance_single -->
<g id="edge6" class="edge">
<title>L4YAML.Proofs.ParserGrammable.flowBracketBalance_single._proof_1_2&#45;&gt;L4YAML.Proofs.ParserGrammable.flowBracketBalance_single</title>
<path fill="none" stroke="#28a745" d="M372.05,-439.01C382.83,-433.83 392.85,-427.26 401.6,-419 402.11,-418.52 422.14,-320.54 422.6,-320 443.67,-294.88 474.42,-278.08 504.85,-266.89"/>
<polygon fill="#28a745" stroke="#28a745" points="505.96,-269.1 511.74,-264.45 504.33,-264.48 505.96,-269.1"/>
</g>
<!-- L4YAML.Proofs.ParserGrammable.flowBracketBalance_single._proof_1_3 -->
<g id="node8" class="node">
<title>L4YAML.Proofs.ParserGrammable.flowBracketBalance_single._proof_1_3</title>
<g id="a_node8"><a xlink:href="../../../api/L4YAML/Proofs/Parser/ParserGrammableBase.html#L4YAML.Proofs.ParserGrammable.flowBracketBalance_single._proof_1_3" xlink:title="ParserGrammable.flowBracketBalance_single._proof_1_3\n(Parser.ParserGrammableBase)" target="_blank">
<ellipse fill="#d4edda" stroke="#28a745" cx="204.8" cy="-389" rx="188.6" ry="21.43"/>
<text text-anchor="middle" x="204.8" y="-392" font-family="Helvetica" font-size="10.00">ParserGrammable.flowBracketBalance_single._proof_1_3</text>
<text text-anchor="middle" x="204.8" y="-381" font-family="Helvetica" font-size="10.00">(Parser.ParserGrammableBase)</text>
</a>
</g>
</g>
<!-- L4YAML.Proofs.ParserGrammable.flowBracketBalance_single._proof_1_3&#45;&gt;L4YAML.Positioned -->
<g id="edge16" class="edge">
<title>L4YAML.Proofs.ParserGrammable.flowBracketBalance_single._proof_1_3&#45;&gt;L4YAML.Positioned</title>
<path fill="none" stroke="#6f42c1" stroke-width="2" stroke-dasharray="5,2" d="M304.2,-370.93C341.19,-364.96 383.69,-359.06 422.6,-356 603.59,-341.78 821.29,-348.13 905.04,-351.45"/>
<polygon fill="#6f42c1" stroke="#6f42c1" stroke-width="2" points="905.06,-353.2 910.13,-351.65 905.2,-349.7 905.06,-353.2"/>
<text text-anchor="middle" x="609.17" y="-358.4" font-family="Times-Roman" font-size="7.00" fill="#6f42c1">about</text>
</g>
<!-- L4YAML.Proofs.ParserGrammable.flowBracketBalance_single._proof_1_3&#45;&gt;L4YAML.YamlToken -->
<g id="edge17" class="edge">
<title>L4YAML.Proofs.ParserGrammable.flowBracketBalance_single._proof_1_3&#45;&gt;L4YAML.YamlToken</title>
<path fill="none" stroke="#6f42c1" stroke-width="2" stroke-dasharray="5,2" d="M381.2,-396.64C395.2,-397.14 409.13,-397.6 422.6,-398 603.22,-403.32 819.39,-405.83 903.88,-406.67"/>
<polygon fill="#6f42c1" stroke="#6f42c1" stroke-width="2" points="904,-408.42 909.02,-406.72 904.03,-404.92 904,-408.42"/>
<text text-anchor="middle" x="609.17" y="-407.4" font-family="Times-Roman" font-size="7.00" fill="#6f42c1">about</text>
</g>
<!-- L4YAML.Proofs.ParserGrammable.flowBracketBalance_single._proof_1_3&#45;&gt;L4YAML.Proofs.ParserGrammable.flowBracketBalance_single -->
<g id="edge7" class="edge">
<title>L4YAML.Proofs.ParserGrammable.flowBracketBalance_single._proof_1_3&#45;&gt;L4YAML.Proofs.ParserGrammable.flowBracketBalance_single</title>
<path fill="none" stroke="#28a745" d="M368.55,-378.24C380.69,-372.64 391.95,-365.36 401.6,-356 417.86,-340.22 396.42,-322.83 411.6,-306 429.22,-286.45 452.98,-273.1 477.88,-264"/>
<polygon fill="#28a745" stroke="#28a745" points="478.78,-266.28 484.58,-261.66 477.17,-261.65 478.78,-266.28"/>
</g>
<!-- eq_self -->
<g id="node9" class="node">
<title>eq_self</title>
<g id="a_node9"><a xlink:href="../../../api/Init/SimpLemmas.html#eq_self" xlink:title="eq_self" target="_blank">
<ellipse fill="#fdebd0" stroke="#e67e22" cx="204.8" cy="-304" rx="28.01" ry="18"/>
<text text-anchor="middle" x="204.8" y="-301.5" font-family="Helvetica" font-size="10.00">eq_self</text>
</a>
</g>
</g>
<!-- eq_self&#45;&gt;L4YAML.Proofs.ParserGrammable.flowBracketBalance_single -->
<g id="edge8" class="edge">
<title>eq_self&#45;&gt;L4YAML.Proofs.ParserGrammable.flowBracketBalance_single</title>
<path fill="none" stroke="#e67e22" stroke-width="2" d="M232.74,-300.43C270.51,-295.39 341.33,-285.82 401.6,-277 429.73,-272.88 460,-268.29 488.45,-263.89"/>
<polygon fill="#e67e22" stroke="#e67e22" stroke-width="2" points="489.1,-266.27 495.65,-262.78 488.36,-261.43 489.1,-266.27"/>
</g>
<!-- Decidable.byContradiction -->
<g id="node10" class="node">
<title>Decidable.byContradiction</title>
<g id="a_node10"><a xlink:href="../../../api/Init/Core.html#Decidable.byContradiction" xlink:title="Decidable.byContradiction" target="_blank">
<ellipse fill="#fdebd0" stroke="#e67e22" cx="204.8" cy="-250" rx="77.23" ry="18"/>
<text text-anchor="middle" x="204.8" y="-247.5" font-family="Helvetica" font-size="10.00">Decidable.byContradiction</text>
</a>
</g>
</g>
<!-- Decidable.byContradiction&#45;&gt;L4YAML.Proofs.ParserGrammable.flowBracketBalance_single -->
<g id="edge9" class="edge">
<title>Decidable.byContradiction&#45;&gt;L4YAML.Proofs.ParserGrammable.flowBracketBalance_single</title>
<path fill="none" stroke="#e67e22" stroke-width="2" d="M281.95,-249.05C322.21,-248.55 373.53,-247.92 423.48,-247.29"/>
<polygon fill="#e67e22" stroke="#e67e22" stroke-width="2" points="423.55,-249.74 430.52,-247.21 423.49,-244.84 423.55,-249.74"/>
</g>
<!-- of_eq_true -->
<g id="node11" class="node">
<title>of_eq_true</title>
<g id="a_node11"><a xlink:href="../../../api/Init/SimpLemmas.html#of_eq_true" xlink:title="of_eq_true" target="_blank">
<ellipse fill="#fdebd0" stroke="#e67e22" cx="204.8" cy="-196" rx="36.49" ry="18"/>
<text text-anchor="middle" x="204.8" y="-193.5" font-family="Helvetica" font-size="10.00">of_eq_true</text>
</a>
</g>
</g>
<!-- of_eq_true&#45;&gt;L4YAML.Proofs.ParserGrammable.flowBracketBalance_single -->
<g id="edge10" class="edge">
<title>of_eq_true&#45;&gt;L4YAML.Proofs.ParserGrammable.flowBracketBalance_single</title>
<path fill="none" stroke="#e67e22" stroke-width="2" d="M240.45,-200.22C291.06,-206.38 388.05,-218.19 469.72,-228.14"/>
<polygon fill="#e67e22" stroke="#e67e22" stroke-width="2" points="469.83,-230.62 477.07,-229.04 470.42,-225.76 469.83,-230.62"/>
</g>
<!-- ite_cond_eq_false -->
<g id="node12" class="node">
<title>ite_cond_eq_false</title>
<g id="a_node12"><a xlink:href="../../../api/Init/SimpLemmas.html#ite_cond_eq_false" xlink:title="ite_cond_eq_false" target="_blank">
<ellipse fill="#fdebd0" stroke="#e67e22" cx="204.8" cy="-142" rx="55.85" ry="18"/>
<text text-anchor="middle" x="204.8" y="-139.5" font-family="Helvetica" font-size="10.00">ite_cond_eq_false</text>
</a>
</g>
</g>
<!-- ite_cond_eq_false&#45;&gt;L4YAML.Proofs.ParserGrammable.flowBracketBalance_single -->
<g id="edge11" class="edge">
<title>ite_cond_eq_false&#45;&gt;L4YAML.Proofs.ParserGrammable.flowBracketBalance_single</title>
<path fill="none" stroke="#e67e22" stroke-width="2" d="M259.16,-146.23C298.86,-150.13 354.15,-157.15 401.6,-169 453.4,-181.94 510.19,-203.39 551.09,-220.21"/>
<polygon fill="#e67e22" stroke="#e67e22" stroke-width="2" points="550.37,-222.57 557.77,-222.98 552.24,-218.04 550.37,-222.57"/>
</g>
<!-- Int.zero_add -->
<g id="node13" class="node">
<title>Int.zero_add</title>
<g id="a_node13"><a xlink:href="../../../api/Init/Data/Int/Lemmas.html#Int.zero_add" xlink:title="Int.zero_add" target="_blank">
<ellipse fill="#fdebd0" stroke="#e67e22" cx="204.8" cy="-88" rx="40.74" ry="18"/>
<text text-anchor="middle" x="204.8" y="-85.5" font-family="Helvetica" font-size="10.00">Int.zero_add</text>
</a>
</g>
</g>
<!-- Int.zero_add&#45;&gt;L4YAML.Proofs.ParserGrammable.flowBracketBalance_single -->
<g id="edge12" class="edge">
<title>Int.zero_add&#45;&gt;L4YAML.Proofs.ParserGrammable.flowBracketBalance_single</title>
<path fill="none" stroke="#e67e22" stroke-width="2" d="M245.61,-88.6C286.02,-90.32 349.85,-96.15 401.6,-115 468.76,-139.47 537.11,-188.14 575.92,-218.5"/>
<polygon fill="#e67e22" stroke="#e67e22" stroke-width="2" points="574.41,-220.43 581.43,-222.84 577.44,-216.58 574.41,-220.43"/>
</g>
<!-- List.drop_eq_getElem_cons -->
<g id="node14" class="node">
<title>List.drop_eq_getElem_cons</title>
<g id="a_node14"><a xlink:href="../../../api/Init/Data/List/TakeDrop.html#List.drop_eq_getElem_cons" xlink:title="List.drop_eq_getElem_cons" target="_blank">
<ellipse fill="#fdebd0" stroke="#e67e22" cx="204.8" cy="-34" rx="80.79" ry="18"/>
<text text-anchor="middle" x="204.8" y="-31.5" font-family="Helvetica" font-size="10.00">List.drop_eq_getElem_cons</text>
</a>
</g>
</g>
<!-- List.drop_eq_getElem_cons&#45;&gt;L4YAML.Proofs.ParserGrammable.flowBracketBalance_single -->
<g id="edge13" class="edge">
<title>List.drop_eq_getElem_cons&#45;&gt;L4YAML.Proofs.ParserGrammable.flowBracketBalance_single</title>
<path fill="none" stroke="#e67e22" stroke-width="2" d="M285.47,-34.46C322.24,-37.28 365.61,-44.39 401.6,-61 481.14,-97.71 552.21,-175.53 586.5,-217.23"/>
<polygon fill="#e67e22" stroke="#e67e22" stroke-width="2" points="584.77,-218.99 591.09,-222.87 588.57,-215.9 584.77,-218.99"/>
</g>
</g>
</svg>
