<?xml version="1.0" encoding="UTF-8" standalone="no"?>
<!DOCTYPE svg PUBLIC "-//W3C//DTD SVG 1.1//EN"
 "http://www.w3.org/Graphics/SVG/1.1/DTD/svg11.dtd">
<!-- Generated by graphviz version 2.44.0 (0)
 -->
<!-- Title: chain_ParserGrammable.parseNode_anchors_grow Pages: 1 -->
<svg width="646pt" height="324pt"
 viewBox="0.00 0.00 646.00 324.00" xmlns="http://www.w3.org/2000/svg" xmlns:xlink="http://www.w3.org/1999/xlink">
<g id="graph0" class="graph" transform="scale(1 1) rotate(0) translate(4 320)">
<title>chain_ParserGrammable.parseNode_anchors_grow</title>
<polygon fill="white" stroke="transparent" points="-4,4 -4,-320 642,-320 642,4 -4,4"/>
<text text-anchor="middle" x="319" y="-301.6" font-family="Helvetica Bold" font-size="13.00">Functorial Chains: ParserGrammable.parseNode_anchors_grow</text>
<text text-anchor="middle" x="319" y="-287.6" font-family="Helvetica Bold" font-size="13.00">3.4 Parsing a node monotonically grows the anchor environment</text>
<g id="clust1" class="cluster">
<title>cluster_fns</title>
<polygon fill="none" stroke="#4a90d9" stroke-dasharray="5,2" points="312,-8 312,-163 630,-163 630,-8 312,-8"/>
<text text-anchor="middle" x="471" y="-148.6" font-family="Helvetica Bold" font-size="13.00" fill="#4a90d9">Functions (Call Chain)</text>
</g>
<g id="clust2" class="cluster">
<title>cluster_thms</title>
<polygon fill="none" stroke="#28a745" stroke-dasharray="5,2" points="8,-89 8,-272 304,-272 304,-89 8,-89"/>
<text text-anchor="middle" x="156" y="-257.6" font-family="Helvetica Bold" font-size="13.00" fill="#28a745">Theorems (Proof Chain)</text>
</g>
<!-- L4YAML.TokenParser.ParseState -->
<g id="node1" class="node">
<title>L4YAML.TokenParser.ParseState</title>
<g id="a_node1"><a xlink:href="../../../api/L4YAML/Parser/State.html#L4YAML.TokenParser.ParseState" xlink:title="TokenParser.ParseState" target="_blank">
<polygon fill="#dce9f7" stroke="#4a90d9" points="524,-52 400,-52 400,-16 524,-16 524,-52"/>
<text text-anchor="middle" x="462" y="-31.5" font-family="Helvetica" font-size="10.00">TokenParser.ParseState</text>
</a>
</g>
</g>
<!-- L4YAML.YamlValue -->
<g id="node2" class="node">
<title>L4YAML.YamlValue</title>
<g id="a_node2"><a xlink:href="../../../api/L4YAML/Spec/Types.html#L4YAML.YamlValue" xlink:title="YamlValue" target="_blank">
<polygon fill="#dce9f7" stroke="#4a90d9" points="382,-52 320,-52 320,-16 382,-16 382,-52"/>
<text text-anchor="middle" x="351" y="-31.5" font-family="Helvetica" font-size="10.00">YamlValue</text>
</a>
</g>
</g>
<!-- L4YAML.TokenParser.parseNode -->
<g id="node3" class="node">
<title>L4YAML.TokenParser.parseNode</title>
<g id="a_node3"><a xlink:href="../../../api/L4YAML/Parser/TokenParser.html#L4YAML.TokenParser.parseNode" xlink:title="TokenParser.parseNode" target="_blank">
<polygon fill="#dce9f7" stroke="#4a90d9" points="442,-133 320,-133 320,-97 442,-97 442,-133"/>
<text text-anchor="middle" x="381" y="-112.5" font-family="Helvetica" font-size="10.00">TokenParser.parseNode</text>
</a>
</g>
</g>
<!-- L4YAML.TokenParser.parseNode&#45;&gt;L4YAML.TokenParser.ParseState -->
<g id="edge8" class="edge">
<title>L4YAML.TokenParser.parseNode&#45;&gt;L4YAML.TokenParser.ParseState</title>
<path fill="none" stroke="#4a90d9" stroke-width="2" d="M398.58,-96.86C410.46,-85.26 426.28,-69.84 439.15,-57.29"/>
<polygon fill="#4a90d9" stroke="#4a90d9" stroke-width="2" points="441.16,-58.75 444.46,-52.11 437.74,-55.24 441.16,-58.75"/>
<text text-anchor="middle" x="432.5" y="-72.6" font-family="Times-Roman" font-size="8.00">calls</text>
</g>
<!-- L4YAML.TokenParser.parseNode&#45;&gt;L4YAML.YamlValue -->
<g id="edge2" class="edge">
<title>L4YAML.TokenParser.parseNode&#45;&gt;L4YAML.YamlValue</title>
<path fill="none" stroke="#4a90d9" stroke-width="2" d="M374.49,-96.86C370.28,-85.78 364.75,-71.21 360.11,-58.99"/>
<polygon fill="#4a90d9" stroke="#4a90d9" stroke-width="2" points="362.27,-57.78 357.5,-52.11 357.69,-59.52 362.27,-57.78"/>
<text text-anchor="middle" x="375.5" y="-72.6" font-family="Times-Roman" font-size="8.00">calls</text>
</g>
<!-- L4YAML.TokenParser.ParseState.anchors -->
<g id="node4" class="node">
<title>L4YAML.TokenParser.ParseState.anchors</title>
<g id="a_node4"><a xlink:href="../../../api/L4YAML/Parser/State.html#L4YAML.TokenParser.ParseState.anchors" xlink:title="TokenParser.ParseState.anchors" target="_blank">
<polygon fill="#dce9f7" stroke="#4a90d9" points="622,-133 460,-133 460,-97 622,-97 622,-133"/>
<text text-anchor="middle" x="541" y="-112.5" font-family="Helvetica" font-size="10.00">TokenParser.ParseState.anchors</text>
</a>
</g>
</g>
<!-- L4YAML.TokenParser.ParseState.anchors&#45;&gt;L4YAML.TokenParser.ParseState -->
<g id="edge6" class="edge">
<title>L4YAML.TokenParser.ParseState.anchors&#45;&gt;L4YAML.TokenParser.ParseState</title>
<path fill="none" stroke="#4a90d9" stroke-width="2" d="M523.86,-96.86C512.26,-85.26 496.84,-69.84 484.29,-57.29"/>
<polygon fill="#4a90d9" stroke="#4a90d9" stroke-width="2" points="485.79,-55.33 479.11,-52.11 482.33,-58.79 485.79,-55.33"/>
<text text-anchor="middle" x="512.5" y="-72.6" font-family="Times-Roman" font-size="8.00">calls</text>
</g>
<!-- ParserNodeProofs.parseNode_anchors_grow -->
<g id="node5" class="node">
<title>ParserNodeProofs.parseNode_anchors_grow</title>
<g id="a_node5"><a xlink:href="../../../api/L4YAML/Proofs/Parser/ParserNodeProofs.html#ParserNodeProofs.parseNode_anchors_grow" xlink:title="ParserNodeProofs.parseNode_anchors_grow" target="_blank">
<ellipse fill="#d4edda" stroke="#28a745" cx="169" cy="-115" rx="126.63" ry="18"/>
<text text-anchor="middle" x="169" y="-112.5" font-family="Helvetica" font-size="10.00">ParserNodeProofs.parseNode_anchors_grow</text>
</a>
</g>
</g>
<!-- ParserNodeProofs.parseNode_anchors_grow&#45;&gt;L4YAML.TokenParser.ParseState -->
<g id="edge7" class="edge">
<title>ParserNodeProofs.parseNode_anchors_grow&#45;&gt;L4YAML.TokenParser.ParseState</title>
<path fill="none" stroke="#6f42c1" stroke-width="2" stroke-dasharray="5,2" d="M225.15,-98.86C273.01,-85.96 341.99,-67.36 393.18,-53.56"/>
<polygon fill="#6f42c1" stroke="#6f42c1" stroke-width="2" points="393.84,-55.92 399.96,-51.73 392.56,-51.18 393.84,-55.92"/>
<text text-anchor="middle" x="336.5" y="-72.6" font-family="Times-Roman" font-size="8.00" fill="#6f42c1">about</text>
</g>
<!-- ParserNodeProofs.parseNode_anchors_grow&#45;&gt;L4YAML.YamlValue -->
<g id="edge4" class="edge">
<title>ParserNodeProofs.parseNode_anchors_grow&#45;&gt;L4YAML.YamlValue</title>
<path fill="none" stroke="#6f42c1" stroke-width="2" stroke-dasharray="5,2" d="M190.26,-97.18C202.5,-88.13 218.49,-77.36 234,-70 259.17,-58.06 289.33,-49.16 312.72,-43.32"/>
<polygon fill="#6f42c1" stroke="#6f42c1" stroke-width="2" points="313.53,-45.64 319.75,-41.6 312.37,-40.88 313.53,-45.64"/>
<text text-anchor="middle" x="246.5" y="-72.6" font-family="Times-Roman" font-size="8.00" fill="#6f42c1">about</text>
</g>
<!-- L4YAML.Proofs.ParserGrammable.parseNode_anchors_grow -->
<g id="node6" class="node">
<title>L4YAML.Proofs.ParserGrammable.parseNode_anchors_grow</title>
<g id="a_node6"><a xlink:href="../../../api/L4YAML/Proofs/Parser/ParserAnchorProofs.html#L4YAML.Proofs.ParserGrammable.parseNode_anchors_grow" xlink:title="ParserGrammable.parseNode_anchors_grow" target="_blank">
<polygon fill="#fff3cd" stroke="#d4a017" points="292.21,-212.54 292.21,-227.46 212.42,-238 99.58,-238 19.79,-227.46 19.79,-212.54 99.58,-202 212.42,-202 292.21,-212.54"/>
<polygon fill="none" stroke="#d4a017" points="296.21,-209.04 296.21,-230.96 212.68,-242 99.32,-242 15.79,-230.96 15.79,-209.04 99.32,-198 212.68,-198 296.21,-209.04"/>
<text text-anchor="middle" x="156" y="-217.5" font-family="Helvetica" font-size="10.00">ParserGrammable.parseNode_anchors_grow</text>
</a>
</g>
</g>
<!-- L4YAML.Proofs.ParserGrammable.parseNode_anchors_grow&#45;&gt;L4YAML.TokenParser.parseNode -->
<g id="edge1" class="edge">
<title>L4YAML.Proofs.ParserGrammable.parseNode_anchors_grow&#45;&gt;L4YAML.TokenParser.parseNode</title>
<path fill="none" stroke="#6f42c1" stroke-width="2" stroke-dasharray="5,2" d="M220.16,-198.86C247.78,-189.31 280.06,-176.93 308,-163 322.84,-155.6 338.4,-145.88 351.33,-137.21"/>
<polygon fill="#6f42c1" stroke="#6f42c1" stroke-width="2" points="353.04,-139.01 357.45,-133.04 350.28,-134.95 353.04,-139.01"/>
<text text-anchor="middle" x="300.5" y="-173.6" font-family="Times-Roman" font-size="8.00" fill="#6f42c1">about</text>
</g>
<!-- L4YAML.Proofs.ParserGrammable.parseNode_anchors_grow&#45;&gt;L4YAML.TokenParser.ParseState.anchors -->
<g id="edge5" class="edge">
<title>L4YAML.Proofs.ParserGrammable.parseNode_anchors_grow&#45;&gt;L4YAML.TokenParser.ParseState.anchors</title>
<path fill="none" stroke="#6f42c1" stroke-width="2" stroke-dasharray="5,2" d="M269.39,-205.44C325.11,-196.78 392.65,-183.28 451,-163 470.4,-156.26 490.79,-145.91 507.25,-136.65"/>
<polygon fill="#6f42c1" stroke="#6f42c1" stroke-width="2" points="508.72,-138.63 513.58,-133.02 506.29,-134.37 508.72,-138.63"/>
<text text-anchor="middle" x="432.5" y="-173.6" font-family="Times-Roman" font-size="8.00" fill="#6f42c1">about</text>
</g>
<!-- L4YAML.Proofs.ParserGrammable.parseNode_anchors_grow&#45;&gt;ParserNodeProofs.parseNode_anchors_grow -->
<g id="edge3" class="edge">
<title>L4YAML.Proofs.ParserGrammable.parseNode_anchors_grow&#45;&gt;ParserNodeProofs.parseNode_anchors_grow</title>
<path fill="none" stroke="#28a745" stroke-width="2" d="M158.69,-197.66C160.8,-180.95 163.74,-157.71 165.93,-140.29"/>
<polygon fill="#28a745" stroke="#28a745" stroke-width="2" points="168.38,-140.47 166.83,-133.22 163.52,-139.86 168.38,-140.47"/>
<text text-anchor="middle" x="171" y="-173.6" font-family="Times-Roman" font-size="8.00">uses</text>
</g>
</g>
</svg>
