<?xml version="1.0" encoding="UTF-8" standalone="no"?>
<!DOCTYPE svg PUBLIC "-//W3C//DTD SVG 1.1//EN"
 "http://www.w3.org/Graphics/SVG/1.1/DTD/svg11.dtd">
<!-- Generated by graphviz version 2.44.0 (0)
 -->
<!-- Title: chain_ParserGrammable.parseStream_output_grammable Pages: 1 -->
<svg width="1738pt" height="405pt"
 viewBox="0.00 0.00 1738.00 405.00" xmlns="http://www.w3.org/2000/svg" xmlns:xlink="http://www.w3.org/1999/xlink">
<g id="graph0" class="graph" transform="scale(1 1) rotate(0) translate(4 401)">
<title>chain_ParserGrammable.parseStream_output_grammable</title>
<polygon fill="white" stroke="transparent" points="-4,4 -4,-401 1734,-401 1734,4 -4,4"/>
<text text-anchor="middle" x="865" y="-382.6" font-family="Helvetica Bold" font-size="13.00">Functorial Chains: ParserGrammable.parseStream_output_grammable</text>
<text text-anchor="middle" x="865" y="-368.6" font-family="Helvetica Bold" font-size="13.00">3.9 Parser output is grammable (matches YAML 1.2.2 productions)</text>
<g id="clust1" class="cluster">
<title>cluster_fns</title>
<polygon fill="none" stroke="#4a90d9" stroke-dasharray="5,2" points="8,-8 8,-244 512,-244 512,-8 8,-8"/>
<text text-anchor="middle" x="260" y="-229.6" font-family="Helvetica Bold" font-size="13.00" fill="#4a90d9">Functions (Call Chain)</text>
</g>
<g id="clust2" class="cluster">
<title>cluster_thms</title>
<polygon fill="none" stroke="#28a745" stroke-dasharray="5,2" points="520,-89 520,-353 1695,-353 1695,-89 520,-89"/>
<text text-anchor="middle" x="1107.5" y="-338.6" font-family="Helvetica Bold" font-size="13.00" fill="#28a745">Theorems (Proof Chain)</text>
</g>
<!-- L4YAML.Positioned -->
<g id="node1" class="node">
<title>L4YAML.Positioned</title>
<g id="a_node1"><a xlink:href="../../../api/L4YAML/Token/Token.html#L4YAML.Positioned" xlink:title="Positioned" target="_blank">
<polygon fill="#dce9f7" stroke="#4a90d9" points="238,-133 176,-133 176,-97 238,-97 238,-133"/>
<text text-anchor="middle" x="207" y="-112.5" font-family="Helvetica" font-size="10.00">Positioned</text>
</a>
</g>
</g>
<!-- L4YAML.YamlDocument.anchors -->
<g id="node2" class="node">
<title>L4YAML.YamlDocument.anchors</title>
<g id="a_node2"><a xlink:href="../../../api/L4YAML/Spec/Types.html#L4YAML.YamlDocument.anchors" xlink:title="YamlDocument.anchors" target="_blank">
<polygon fill="#dce9f7" stroke="#4a90d9" points="503.5,-133 382.5,-133 382.5,-97 503.5,-97 503.5,-133"/>
<text text-anchor="middle" x="443" y="-112.5" font-family="Helvetica" font-size="10.00">YamlDocument.anchors</text>
</a>
</g>
</g>
<!-- L4YAML.YamlDocument -->
<g id="node8" class="node">
<title>L4YAML.YamlDocument</title>
<g id="a_node8"><a xlink:href="../../../api/L4YAML/Spec/Types.html#L4YAML.YamlDocument" xlink:title="YamlDocument" target="_blank">
<polygon fill="#dce9f7" stroke="#4a90d9" points="503.5,-52 420.5,-52 420.5,-16 503.5,-16 503.5,-52"/>
<text text-anchor="middle" x="462" y="-31.5" font-family="Helvetica" font-size="10.00">YamlDocument</text>
</a>
</g>
</g>
<!-- L4YAML.YamlDocument.anchors&#45;&gt;L4YAML.YamlDocument -->
<g id="edge14" class="edge">
<title>L4YAML.YamlDocument.anchors&#45;&gt;L4YAML.YamlDocument</title>
<path fill="none" stroke="#4a90d9" stroke-width="2" d="M447.12,-96.86C449.79,-85.78 453.29,-71.21 456.23,-58.99"/>
<polygon fill="#4a90d9" stroke="#4a90d9" stroke-width="2" points="458.63,-59.49 457.89,-52.11 453.87,-58.34 458.63,-59.49"/>
<text text-anchor="middle" x="462.5" y="-72.6" font-family="Times-Roman" font-size="8.00">calls</text>
</g>
<!-- L4YAML.YamlToken -->
<g id="node3" class="node">
<title>L4YAML.YamlToken</title>
<g id="a_node3"><a xlink:href="../../../api/L4YAML/Token/Token.html#L4YAML.YamlToken" xlink:title="YamlToken" target="_blank">
<polygon fill="#dce9f7" stroke="#4a90d9" points="158,-133 94,-133 94,-97 158,-97 158,-133"/>
<text text-anchor="middle" x="126" y="-112.5" font-family="Helvetica" font-size="10.00">YamlToken</text>
</a>
</g>
</g>
<!-- L4YAML.YamlDocument.compose -->
<g id="node4" class="node">
<title>L4YAML.YamlDocument.compose</title>
<g id="a_node4"><a xlink:href="../../../api/L4YAML/Spec/Types.html#L4YAML.YamlDocument.compose" xlink:title="YamlDocument.compose" target="_blank">
<polygon fill="#dce9f7" stroke="#4a90d9" points="414.5,-214 289.5,-214 289.5,-178 414.5,-178 414.5,-214"/>
<text text-anchor="middle" x="352" y="-193.5" font-family="Helvetica" font-size="10.00">YamlDocument.compose</text>
</a>
</g>
</g>
<!-- L4YAML.YamlDocument.compose&#45;&gt;L4YAML.YamlDocument.anchors -->
<g id="edge12" class="edge">
<title>L4YAML.YamlDocument.compose&#45;&gt;L4YAML.YamlDocument.anchors</title>
<path fill="none" stroke="#4a90d9" stroke-width="2" d="M348.14,-177.73C347.17,-168.98 347.65,-158.63 353,-151 358.86,-142.63 367.04,-136.27 376.08,-131.42"/>
<polygon fill="#4a90d9" stroke="#4a90d9" stroke-width="2" points="377.25,-133.58 382.47,-128.31 375.11,-129.17 377.25,-133.58"/>
<text text-anchor="middle" x="362.5" y="-153.6" font-family="Times-Roman" font-size="8.00">calls</text>
</g>
<!-- L4YAML.YamlDocument.value -->
<g id="node7" class="node">
<title>L4YAML.YamlDocument.value</title>
<g id="a_node7"><a xlink:href="../../../api/L4YAML/Spec/Types.html#L4YAML.YamlDocument.value" xlink:title="YamlDocument.value" target="_blank">
<polygon fill="#dce9f7" stroke="#4a90d9" points="364,-133 256,-133 256,-97 364,-97 364,-133"/>
<text text-anchor="middle" x="310" y="-112.5" font-family="Helvetica" font-size="10.00">YamlDocument.value</text>
</a>
</g>
</g>
<!-- L4YAML.YamlDocument.compose&#45;&gt;L4YAML.YamlDocument.value -->
<g id="edge2" class="edge">
<title>L4YAML.YamlDocument.compose&#45;&gt;L4YAML.YamlDocument.value</title>
<path fill="none" stroke="#4a90d9" stroke-width="2" d="M325.06,-177.71C319.42,-172.72 314.21,-166.76 311,-160 308.11,-153.92 307.09,-146.81 307,-140.1"/>
<polygon fill="#4a90d9" stroke="#4a90d9" stroke-width="2" points="309.45,-140.12 307.22,-133.05 304.55,-139.97 309.45,-140.12"/>
<text text-anchor="middle" x="320.5" y="-153.6" font-family="Times-Roman" font-size="8.00">calls</text>
</g>
<!-- L4YAML.Scanner.scanFiltered -->
<g id="node5" class="node">
<title>L4YAML.Scanner.scanFiltered</title>
<g id="a_node5"><a xlink:href="../../../api/L4YAML/Scanner/Scanner.html#L4YAML.Scanner.scanFiltered" xlink:title="scanFiltered" target="_blank">
<polygon fill="#dce9f7" stroke="#4a90d9" points="211,-214 141,-214 141,-178 211,-178 211,-214"/>
<text text-anchor="middle" x="176" y="-193.5" font-family="Helvetica" font-size="10.00">scanFiltered</text>
</a>
</g>
</g>
<!-- L4YAML.Scanner.scanFiltered&#45;&gt;L4YAML.Positioned -->
<g id="edge24" class="edge">
<title>L4YAML.Scanner.scanFiltered&#45;&gt;L4YAML.Positioned</title>
<path fill="none" stroke="#4a90d9" stroke-width="2" d="M182.73,-177.86C187.11,-166.68 192.9,-151.93 197.72,-139.64"/>
<polygon fill="#4a90d9" stroke="#4a90d9" stroke-width="2" points="200.01,-140.52 200.29,-133.11 195.45,-138.73 200.01,-140.52"/>
<text text-anchor="middle" x="202.5" y="-153.6" font-family="Times-Roman" font-size="8.00">calls</text>
</g>
<!-- L4YAML.Scanner.scanFiltered&#45;&gt;L4YAML.YamlToken -->
<g id="edge28" class="edge">
<title>L4YAML.Scanner.scanFiltered&#45;&gt;L4YAML.YamlToken</title>
<path fill="none" stroke="#4a90d9" stroke-width="2" d="M165.15,-177.86C158.01,-166.57 148.57,-151.66 140.75,-139.3"/>
<polygon fill="#4a90d9" stroke="#4a90d9" stroke-width="2" points="142.64,-137.71 136.83,-133.11 138.5,-140.33 142.64,-137.71"/>
<text text-anchor="middle" x="162.5" y="-153.6" font-family="Times-Roman" font-size="8.00">calls</text>
</g>
<!-- L4YAML.ScanError -->
<g id="node6" class="node">
<title>L4YAML.ScanError</title>
<g id="a_node6"><a xlink:href="../../../api/L4YAML/Token/Token.html#L4YAML.ScanError" xlink:title="ScanError" target="_blank">
<polygon fill="#dce9f7" stroke="#4a90d9" points="76,-133 16,-133 16,-97 76,-97 76,-133"/>
<text text-anchor="middle" x="46" y="-112.5" font-family="Helvetica" font-size="10.00">ScanError</text>
</a>
</g>
</g>
<!-- L4YAML.Scanner.scanFiltered&#45;&gt;L4YAML.ScanError -->
<g id="edge26" class="edge">
<title>L4YAML.Scanner.scanFiltered&#45;&gt;L4YAML.ScanError</title>
<path fill="none" stroke="#4a90d9" stroke-width="2" d="M147.79,-177.86C127.95,-165.8 101.28,-149.59 80.21,-136.79"/>
<polygon fill="#4a90d9" stroke="#4a90d9" stroke-width="2" points="81.41,-134.65 74.15,-133.11 78.86,-138.84 81.41,-134.65"/>
<text text-anchor="middle" x="124.5" y="-153.6" font-family="Times-Roman" font-size="8.00">calls</text>
</g>
<!-- L4YAML.YamlDocument.value&#45;&gt;L4YAML.YamlDocument -->
<g id="edge5" class="edge">
<title>L4YAML.YamlDocument.value&#45;&gt;L4YAML.YamlDocument</title>
<path fill="none" stroke="#4a90d9" stroke-width="2" d="M342.98,-96.86C366.39,-84.69 397.91,-68.31 422.63,-55.46"/>
<polygon fill="#4a90d9" stroke="#4a90d9" stroke-width="2" points="424,-57.51 429.08,-52.11 421.74,-53.16 424,-57.51"/>
<text text-anchor="middle" x="399.5" y="-72.6" font-family="Times-Roman" font-size="8.00">calls</text>
</g>
<!-- L4YAML.Proofs.ParserGrammable.parseStream_output_aliases_resolve -->
<g id="node9" class="node">
<title>L4YAML.Proofs.ParserGrammable.parseStream_output_aliases_resolve</title>
<g id="a_node9"><a xlink:href="../../../api/L4YAML/Proofs/Parser/ParserAnchorProofs.html#L4YAML.Proofs.ParserGrammable.parseStream_output_aliases_resolve" xlink:title="ParserGrammable.parseStream_output_aliases_resolve" target="_blank">
<ellipse fill="#d4edda" stroke="#28a745" cx="979" cy="-196" rx="153.1" ry="18"/>
<text text-anchor="middle" x="979" y="-193.5" font-family="Helvetica" font-size="10.00">ParserGrammable.parseStream_output_aliases_resolve</text>
</a>
</g>
</g>
<!-- L4YAML.Proofs.ParserGrammable.parseStream_output_aliases_resolve&#45;&gt;L4YAML.Positioned -->
<g id="edge25" class="edge">
<title>L4YAML.Proofs.ParserGrammable.parseStream_output_aliases_resolve&#45;&gt;L4YAML.Positioned</title>
<path fill="none" stroke="#6f42c1" stroke-width="2" stroke-dasharray="5,2" d="M870.99,-183.24C852.97,-181.4 834.46,-179.59 817,-178 713.12,-168.56 683.81,-186.77 583,-160 573.97,-157.6 573.05,-153.31 564,-151 427.26,-116.15 384.42,-165.07 247,-133 246.36,-132.85 245.71,-132.69 245.06,-132.52"/>
<polygon fill="#6f42c1" stroke="#6f42c1" stroke-width="2" points="245.51,-130.1 238.1,-130.42 244.09,-134.79 245.51,-130.1"/>
<text text-anchor="middle" x="595.5" y="-153.6" font-family="Times-Roman" font-size="8.00" fill="#6f42c1">about</text>
</g>
<!-- L4YAML.Proofs.ParserGrammable.parseStream_output_aliases_resolve&#45;&gt;L4YAML.YamlDocument.anchors -->
<g id="edge13" class="edge">
<title>L4YAML.Proofs.ParserGrammable.parseStream_output_aliases_resolve&#45;&gt;L4YAML.YamlDocument.anchors</title>
<path fill="none" stroke="#6f42c1" stroke-width="2" stroke-dasharray="5,2" d="M869.38,-183.41C792.79,-175.07 701.1,-164.53 683,-160 672.35,-157.33 670.64,-153.7 660,-151 597.49,-135.13 579.5,-144.33 516,-133 514.26,-132.69 512.5,-132.37 510.73,-132.03"/>
<polygon fill="#6f42c1" stroke="#6f42c1" stroke-width="2" points="511.19,-129.62 503.84,-130.67 510.24,-134.43 511.19,-129.62"/>
<text text-anchor="middle" x="695.5" y="-153.6" font-family="Times-Roman" font-size="8.00" fill="#6f42c1">about</text>
</g>
<!-- L4YAML.Proofs.ParserGrammable.parseStream_output_aliases_resolve&#45;&gt;L4YAML.YamlDocument.value -->
<g id="edge9" class="edge">
<title>L4YAML.Proofs.ParserGrammable.parseStream_output_aliases_resolve&#45;&gt;L4YAML.YamlDocument.value</title>
<path fill="none" stroke="#6f42c1" stroke-width="2" stroke-dasharray="5,2" d="M869.65,-183.4C852.05,-181.57 834.02,-179.72 817,-178 734.37,-169.67 711.06,-182.11 631,-160 621.99,-157.51 621.03,-153.39 612,-151 509.46,-123.84 478.59,-150.69 374,-133 373.11,-132.85 372.21,-132.69 371.31,-132.53"/>
<polygon fill="#6f42c1" stroke="#6f42c1" stroke-width="2" points="371.66,-130.1 364.32,-131.16 370.72,-134.91 371.66,-130.1"/>
<text text-anchor="middle" x="643.5" y="-153.6" font-family="Times-Roman" font-size="8.00" fill="#6f42c1">about</text>
</g>
<!-- L4YAML.Proofs.ParserGrammable.parseStreamLoop_aliases_resolve -->
<g id="node11" class="node">
<title>L4YAML.Proofs.ParserGrammable.parseStreamLoop_aliases_resolve</title>
<g id="a_node11"><a xlink:href="../../../api/L4YAML/Proofs/Parser/ParserAnchorProofs.html#L4YAML.Proofs.ParserGrammable.parseStreamLoop_aliases_resolve" xlink:title="ParserGrammable.parseStreamLoop_aliases_resolve" target="_blank">
<ellipse fill="#d4edda" stroke="#28a745" cx="1291" cy="-115" rx="145.98" ry="18"/>
<text text-anchor="middle" x="1291" y="-112.5" font-family="Helvetica" font-size="10.00">ParserGrammable.parseStreamLoop_aliases_resolve</text>
</a>
</g>
</g>
<!-- L4YAML.Proofs.ParserGrammable.parseStream_output_aliases_resolve&#45;&gt;L4YAML.Proofs.ParserGrammable.parseStreamLoop_aliases_resolve -->
<g id="edge10" class="edge">
<title>L4YAML.Proofs.ParserGrammable.parseStream_output_aliases_resolve&#45;&gt;L4YAML.Proofs.ParserGrammable.parseStreamLoop_aliases_resolve</title>
<path fill="none" stroke="#28a745" stroke-width="2" d="M1040.27,-179.49C1092.94,-166.15 1168.8,-146.94 1223.27,-133.15"/>
<polygon fill="#28a745" stroke="#28a745" stroke-width="2" points="1223.95,-135.5 1230.14,-131.41 1222.75,-130.75 1223.95,-135.5"/>
<text text-anchor="middle" x="1154" y="-153.6" font-family="Times-Roman" font-size="8.00">uses</text>
</g>
<!-- L4YAML.Proofs.ParserGrammable.parseStream_output_scannable -->
<g id="node10" class="node">
<title>L4YAML.Proofs.ParserGrammable.parseStream_output_scannable</title>
<g id="a_node10"><a xlink:href="../../../api/L4YAML/Proofs/Parser/ParserWellBehaved.html#L4YAML.Proofs.ParserGrammable.parseStream_output_scannable" xlink:title="ParserGrammable.parseStream_output_scannable" target="_blank">
<ellipse fill="#d4edda" stroke="#28a745" cx="668" cy="-196" rx="139.53" ry="18"/>
<text text-anchor="middle" x="668" y="-193.5" font-family="Helvetica" font-size="10.00">ParserGrammable.parseStream_output_scannable</text>
</a>
</g>
</g>
<!-- L4YAML.Proofs.ParserGrammable.parseStream_output_scannable&#45;&gt;L4YAML.Positioned -->
<g id="edge30" class="edge">
<title>L4YAML.Proofs.ParserGrammable.parseStream_output_scannable&#45;&gt;L4YAML.Positioned</title>
<path fill="none" stroke="#6f42c1" stroke-width="2" stroke-dasharray="5,2" d="M578.02,-182.2C548.61,-176.81 516.05,-169.52 487,-160 478.12,-157.09 477.03,-153.42 468,-151 372.81,-125.49 342.69,-156.58 247,-133 246.36,-132.84 245.71,-132.68 245.07,-132.5"/>
<polygon fill="#6f42c1" stroke="#6f42c1" stroke-width="2" points="245.53,-130.08 238.12,-130.34 244.08,-134.76 245.53,-130.08"/>
<text text-anchor="middle" x="499.5" y="-153.6" font-family="Times-Roman" font-size="8.00" fill="#6f42c1">about</text>
</g>
<!-- L4YAML.Proofs.ParserGrammable.parseStream_output_scannable&#45;&gt;L4YAML.YamlToken -->
<g id="edge29" class="edge">
<title>L4YAML.Proofs.ParserGrammable.parseStream_output_scannable&#45;&gt;L4YAML.YamlToken</title>
<path fill="none" stroke="#6f42c1" stroke-width="2" stroke-dasharray="5,2" d="M571.06,-183.03C520.19,-176.18 463.47,-167.49 439,-160 430.07,-157.27 429.04,-153.37 420,-151 310.97,-122.38 276.71,-158.92 167,-133 166.38,-132.85 165.75,-132.7 165.12,-132.53"/>
<polygon fill="#6f42c1" stroke="#6f42c1" stroke-width="2" points="165.77,-130.17 158.36,-130.52 164.37,-134.87 165.77,-130.17"/>
<text text-anchor="middle" x="451.5" y="-153.6" font-family="Times-Roman" font-size="8.00" fill="#6f42c1">about</text>
</g>
<!-- L4YAML.Proofs.ParserGrammable.parseStream_output_scannable&#45;&gt;L4YAML.ScanError -->
<g id="edge27" class="edge">
<title>L4YAML.Proofs.ParserGrammable.parseStream_output_scannable&#45;&gt;L4YAML.ScanError</title>
<path fill="none" stroke="#6f42c1" stroke-width="2" stroke-dasharray="5,2" d="M566.07,-183.7C494.19,-175.46 407.84,-164.92 391,-160 382.03,-157.38 381.05,-153.33 372,-151 248.25,-119.07 209.24,-162.99 85,-133 84.37,-132.85 83.74,-132.69 83.11,-132.52"/>
<polygon fill="#6f42c1" stroke="#6f42c1" stroke-width="2" points="83.72,-130.14 76.31,-130.4 82.26,-134.82 83.72,-130.14"/>
<text text-anchor="middle" x="403.5" y="-153.6" font-family="Times-Roman" font-size="8.00" fill="#6f42c1">about</text>
</g>
<!-- L4YAML.Proofs.ParserGrammable.parseStream_output_scannable&#45;&gt;L4YAML.YamlDocument.value -->
<g id="edge4" class="edge">
<title>L4YAML.Proofs.ParserGrammable.parseStream_output_scannable&#45;&gt;L4YAML.YamlDocument.value</title>
<path fill="none" stroke="#6f42c1" stroke-width="2" stroke-dasharray="5,2" d="M606.57,-179.78C585.05,-174.07 560.81,-167.2 539,-160 528.58,-156.56 526.64,-153.71 516,-151 454.35,-135.29 436.44,-145.19 374,-133 372.98,-132.8 371.95,-132.59 370.91,-132.38"/>
<polygon fill="#6f42c1" stroke="#6f42c1" stroke-width="2" points="371.36,-129.97 364,-130.89 370.33,-134.76 371.36,-129.97"/>
<text text-anchor="middle" x="551.5" y="-153.6" font-family="Times-Roman" font-size="8.00" fill="#6f42c1">about</text>
</g>
<!-- L4YAML.Proofs.ParserGrammable.parseStream_doc_from_parseDocument -->
<g id="node12" class="node">
<title>L4YAML.Proofs.ParserGrammable.parseStream_doc_from_parseDocument</title>
<g id="a_node12"><a xlink:href="../../../api/L4YAML/Proofs/Parser/ParserWellBehaved.html#L4YAML.Proofs.ParserGrammable.parseStream_doc_from_parseDocument" xlink:title="ParserGrammable.parseStream_doc_from_parseDocument" target="_blank">
<ellipse fill="#d4edda" stroke="#28a745" cx="965" cy="-115" rx="162.44" ry="18"/>
<text text-anchor="middle" x="965" y="-112.5" font-family="Helvetica" font-size="10.00">ParserGrammable.parseStream_doc_from_parseDocument</text>
</a>
</g>
</g>
<!-- L4YAML.Proofs.ParserGrammable.parseStream_output_scannable&#45;&gt;L4YAML.Proofs.ParserGrammable.parseStream_doc_from_parseDocument -->
<g id="edge6" class="edge">
<title>L4YAML.Proofs.ParserGrammable.parseStream_output_scannable&#45;&gt;L4YAML.Proofs.ParserGrammable.parseStream_doc_from_parseDocument</title>
<path fill="none" stroke="#28a745" stroke-width="2" d="M725.97,-179.58C775.57,-166.39 846.96,-147.4 898.79,-133.61"/>
<polygon fill="#28a745" stroke="#28a745" stroke-width="2" points="899.52,-135.95 905.65,-131.79 898.26,-131.22 899.52,-135.95"/>
<text text-anchor="middle" x="835" y="-153.6" font-family="Times-Roman" font-size="8.00">uses</text>
</g>
<!-- L4YAML.Proofs.ParserGrammable.parseDocument_scannable -->
<g id="node13" class="node">
<title>L4YAML.Proofs.ParserGrammable.parseDocument_scannable</title>
<g id="a_node13"><a xlink:href="../../../api/L4YAML/Proofs/Parser/ParserWellBehaved.html#L4YAML.Proofs.ParserGrammable.parseDocument_scannable" xlink:title="ParserGrammable.parseDocument_scannable" target="_blank">
<ellipse fill="#d4edda" stroke="#28a745" cx="656" cy="-115" rx="128.16" ry="18"/>
<text text-anchor="middle" x="656" y="-112.5" font-family="Helvetica" font-size="10.00">ParserGrammable.parseDocument_scannable</text>
</a>
</g>
</g>
<!-- L4YAML.Proofs.ParserGrammable.parseStream_output_scannable&#45;&gt;L4YAML.Proofs.ParserGrammable.parseDocument_scannable -->
<g id="edge15" class="edge">
<title>L4YAML.Proofs.ParserGrammable.parseStream_output_scannable&#45;&gt;L4YAML.Proofs.ParserGrammable.parseDocument_scannable</title>
<path fill="none" stroke="#28a745" stroke-width="2" d="M739.53,-180.49C755.59,-173.81 765.44,-164.3 756,-151 750.84,-143.73 744.06,-137.96 736.45,-133.38"/>
<polygon fill="#28a745" stroke="#28a745" stroke-width="2" points="737.2,-131 729.88,-129.81 734.86,-135.31 737.2,-131"/>
<text text-anchor="middle" x="769" y="-153.6" font-family="Times-Roman" font-size="8.00">uses</text>
</g>
<!-- L4YAML.Proofs.ParserGrammable.parseStreamLoop_aliases_resolve&#45;&gt;L4YAML.YamlDocument -->
<g id="edge11" class="edge">
<title>L4YAML.Proofs.ParserGrammable.parseStreamLoop_aliases_resolve&#45;&gt;L4YAML.YamlDocument</title>
<path fill="none" stroke="#6f42c1" stroke-width="2" stroke-dasharray="5,2" d="M1211.12,-99.86C1187.04,-95.94 1160.49,-91.95 1136,-89 902.5,-60.86 621.66,-43.69 510.6,-37.56"/>
<polygon fill="#6f42c1" stroke="#6f42c1" stroke-width="2" points="510.66,-35.11 503.53,-37.17 510.39,-40 510.66,-35.11"/>
<text text-anchor="middle" x="1056.5" y="-72.6" font-family="Times-Roman" font-size="8.00" fill="#6f42c1">about</text>
</g>
<!-- L4YAML.Proofs.ParserGrammable.parseStream_doc_from_parseDocument&#45;&gt;L4YAML.YamlDocument -->
<g id="edge7" class="edge">
<title>L4YAML.Proofs.ParserGrammable.parseStream_doc_from_parseDocument&#45;&gt;L4YAML.YamlDocument</title>
<path fill="none" stroke="#6f42c1" stroke-width="2" stroke-dasharray="5,2" d="M875.36,-99.92C768.88,-83.2 595.08,-55.9 510.84,-42.67"/>
<polygon fill="#6f42c1" stroke="#6f42c1" stroke-width="2" points="511,-40.22 503.71,-41.55 510.24,-45.06 511,-40.22"/>
<text text-anchor="middle" x="740.5" y="-72.6" font-family="Times-Roman" font-size="8.00" fill="#6f42c1">about</text>
</g>
<!-- L4YAML.Proofs.ParserGrammable.parseDocument_scannable&#45;&gt;L4YAML.YamlDocument -->
<g id="edge16" class="edge">
<title>L4YAML.Proofs.ParserGrammable.parseDocument_scannable&#45;&gt;L4YAML.YamlDocument</title>
<path fill="none" stroke="#6f42c1" stroke-width="2" stroke-dasharray="5,2" d="M616.27,-97.82C585.64,-85.35 543.13,-68.04 510.49,-54.75"/>
<polygon fill="#6f42c1" stroke="#6f42c1" stroke-width="2" points="511.09,-52.35 503.68,-51.97 509.24,-56.88 511.09,-52.35"/>
<text text-anchor="middle" x="576.5" y="-72.6" font-family="Times-Roman" font-size="8.00" fill="#6f42c1">about</text>
</g>
<!-- L4YAML.Proofs.ParserGrammable.parseStreamLoop_wfa -->
<g id="node14" class="node">
<title>L4YAML.Proofs.ParserGrammable.parseStreamLoop_wfa</title>
<g id="a_node14"><a xlink:href="../../../api/L4YAML/Proofs/Parser/ParserWfaProofs.html#L4YAML.Proofs.ParserGrammable.parseStreamLoop_wfa" xlink:title="ParserGrammable.parseStreamLoop_wfa" target="_blank">
<ellipse fill="#d4edda" stroke="#28a745" cx="1571" cy="-115" rx="115.93" ry="18"/>
<text text-anchor="middle" x="1571" y="-112.5" font-family="Helvetica" font-size="10.00">ParserGrammable.parseStreamLoop_wfa</text>
</a>
</g>
</g>
<!-- L4YAML.Proofs.ParserGrammable.parseStreamLoop_wfa&#45;&gt;L4YAML.YamlDocument -->
<g id="edge20" class="edge">
<title>L4YAML.Proofs.ParserGrammable.parseStreamLoop_wfa&#45;&gt;L4YAML.YamlDocument</title>
<path fill="none" stroke="#6f42c1" stroke-width="2" stroke-dasharray="5,2" d="M1508.98,-99.78C1488.97,-95.68 1466.64,-91.62 1446,-89 1089.22,-43.77 654.93,-36.41 510.96,-35.22"/>
<polygon fill="#6f42c1" stroke="#6f42c1" stroke-width="2" points="510.93,-32.77 503.91,-35.17 510.89,-37.67 510.93,-32.77"/>
<text text-anchor="middle" x="1351.5" y="-72.6" font-family="Times-Roman" font-size="8.00" fill="#6f42c1">about</text>
</g>
<!-- L4YAML.Proofs.ParserGrammable.parseStream_output_anchors_wellformed -->
<g id="node15" class="node">
<title>L4YAML.Proofs.ParserGrammable.parseStream_output_anchors_wellformed</title>
<g id="a_node15"><a xlink:href="../../../api/L4YAML/Proofs/Parser/ParserWfaProofs.html#L4YAML.Proofs.ParserGrammable.parseStream_output_anchors_wellformed" xlink:title="ParserGrammable.parseStream_output_anchors_wellformed" target="_blank">
<ellipse fill="#d4edda" stroke="#28a745" cx="1419" cy="-196" rx="164.65" ry="18"/>
<text text-anchor="middle" x="1419" y="-193.5" font-family="Helvetica" font-size="10.00">ParserGrammable.parseStream_output_anchors_wellformed</text>
</a>
</g>
</g>
<!-- L4YAML.Proofs.ParserGrammable.parseStream_output_anchors_wellformed&#45;&gt;L4YAML.YamlDocument.anchors -->
<g id="edge18" class="edge">
<title>L4YAML.Proofs.ParserGrammable.parseStream_output_anchors_wellformed&#45;&gt;L4YAML.YamlDocument.anchors</title>
<path fill="none" stroke="#6f42c1" stroke-width="2" stroke-dasharray="5,2" d="M1281.16,-186.09C1236.46,-183.33 1186.63,-180.39 1141,-178 1049.04,-173.19 816.38,-182.15 727,-160 717.93,-157.75 717.01,-153.47 708,-151 625.35,-128.31 600.6,-146.75 516,-133 514.26,-132.72 512.5,-132.42 510.72,-132.1"/>
<polygon fill="#6f42c1" stroke="#6f42c1" stroke-width="2" points="511.15,-129.69 503.82,-130.81 510.25,-134.51 511.15,-129.69"/>
<text text-anchor="middle" x="739.5" y="-153.6" font-family="Times-Roman" font-size="8.00" fill="#6f42c1">about</text>
</g>
<!-- L4YAML.Proofs.ParserGrammable.parseStream_output_anchors_wellformed&#45;&gt;L4YAML.YamlDocument -->
<g id="edge22" class="edge">
<title>L4YAML.Proofs.ParserGrammable.parseStream_output_anchors_wellformed&#45;&gt;L4YAML.YamlDocument</title>
<path fill="none" stroke="#6f42c1" stroke-width="2" stroke-dasharray="5,2" d="M1536.7,-183.32C1602.66,-174.08 1675.67,-158.39 1696,-133 1708.22,-117.74 1709.42,-103.22 1696,-89 1654.64,-45.17 734.3,-36.68 510.65,-35.26"/>
<polygon fill="#6f42c1" stroke="#6f42c1" stroke-width="2" points="510.63,-32.81 503.61,-35.21 510.6,-37.71 510.63,-32.81"/>
<text text-anchor="middle" x="1717.5" y="-113.1" font-family="Times-Roman" font-size="8.00" fill="#6f42c1">about</text>
</g>
<!-- L4YAML.Proofs.ParserGrammable.parseStream_output_anchors_wellformed&#45;&gt;L4YAML.Proofs.ParserGrammable.parseStreamLoop_wfa -->
<g id="edge19" class="edge">
<title>L4YAML.Proofs.ParserGrammable.parseStream_output_anchors_wellformed&#45;&gt;L4YAML.Proofs.ParserGrammable.parseStreamLoop_wfa</title>
<path fill="none" stroke="#28a745" stroke-width="2" d="M1451.24,-178.25C1475.18,-165.8 1507.9,-148.79 1533.1,-135.7"/>
<polygon fill="#28a745" stroke="#28a745" stroke-width="2" points="1534.25,-137.86 1539.33,-132.46 1531.99,-133.51 1534.25,-137.86"/>
<text text-anchor="middle" x="1509" y="-153.6" font-family="Times-Roman" font-size="8.00">uses</text>
</g>
<!-- L4YAML.Proofs.ParserGrammable.parseStream_output_grammable -->
<g id="node16" class="node">
<title>L4YAML.Proofs.ParserGrammable.parseStream_output_grammable</title>
<g id="a_node16"><a xlink:href="../../../api/L4YAML/Proofs/Parser/ParserGrammable.html#L4YAML.Proofs.ParserGrammable.parseStream_output_grammable" xlink:title="ParserGrammable.parseStream_output_grammable" target="_blank">
<polygon fill="#fff3cd" stroke="#d4a017" points="943.61,-293.54 943.61,-308.46 853.63,-319 726.37,-319 636.39,-308.46 636.39,-293.54 726.37,-283 853.63,-283 943.61,-293.54"/>
<polygon fill="none" stroke="#d4a017" points="947.61,-289.99 947.61,-312.01 853.86,-323 726.14,-323 632.39,-312.01 632.39,-289.99 726.14,-279 853.86,-279 947.61,-289.99"/>
<text text-anchor="middle" x="790" y="-298.5" font-family="Helvetica" font-size="10.00">ParserGrammable.parseStream_output_grammable</text>
</a>
</g>
</g>
<!-- L4YAML.Proofs.ParserGrammable.parseStream_output_grammable&#45;&gt;L4YAML.YamlDocument.compose -->
<g id="edge1" class="edge">
<title>L4YAML.Proofs.ParserGrammable.parseStream_output_grammable&#45;&gt;L4YAML.YamlDocument.compose</title>
<path fill="none" stroke="#6f42c1" stroke-width="2" stroke-dasharray="5,2" d="M695.44,-282.55C642.46,-272.3 575.3,-258.53 516,-244 482.17,-235.71 444.81,-225.12 414.3,-216.09"/>
<polygon fill="#6f42c1" stroke="#6f42c1" stroke-width="2" points="414.91,-213.71 407.51,-214.07 413.52,-218.41 414.91,-213.71"/>
<text text-anchor="middle" x="595.5" y="-254.6" font-family="Times-Roman" font-size="8.00" fill="#6f42c1">about</text>
</g>
<!-- L4YAML.Proofs.ParserGrammable.parseStream_output_grammable&#45;&gt;L4YAML.Scanner.scanFiltered -->
<g id="edge23" class="edge">
<title>L4YAML.Proofs.ParserGrammable.parseStream_output_grammable&#45;&gt;L4YAML.Scanner.scanFiltered</title>
<path fill="none" stroke="#6f42c1" stroke-width="2" stroke-dasharray="5,2" d="M632.22,-295.47C530.22,-289.43 395.45,-275.57 280,-244 256.99,-237.71 232.62,-226.94 213.26,-217.3"/>
<polygon fill="#6f42c1" stroke="#6f42c1" stroke-width="2" points="214.25,-215.05 206.9,-214.08 212.04,-219.42 214.25,-215.05"/>
<text text-anchor="middle" x="359.5" y="-254.6" font-family="Times-Roman" font-size="8.00" fill="#6f42c1">about</text>
</g>
<!-- L4YAML.Proofs.ParserGrammable.parseStream_output_grammable&#45;&gt;L4YAML.YamlDocument.value -->
<g id="edge21" class="edge">
<title>L4YAML.Proofs.ParserGrammable.parseStream_output_grammable&#45;&gt;L4YAML.YamlDocument.value</title>
<path fill="none" stroke="#6f42c1" stroke-width="2" stroke-dasharray="5,2" d="M947.57,-300.29C1168.96,-299.03 1550.02,-290.08 1593,-244 1613.01,-222.55 1609.6,-202.19 1593,-178 1574.14,-150.5 1555.73,-157.36 1523,-151 1397.66,-126.65 500.47,-150.52 374,-133 373.1,-132.88 372.2,-132.74 371.29,-132.6"/>
<polygon fill="#6f42c1" stroke="#6f42c1" stroke-width="2" points="371.6,-130.17 364.28,-131.38 370.76,-135 371.6,-130.17"/>
<text text-anchor="middle" x="1618.5" y="-194.1" font-family="Times-Roman" font-size="8.00" fill="#6f42c1">about</text>
</g>
<!-- L4YAML.Proofs.ParserGrammable.parseStream_output_grammable&#45;&gt;L4YAML.Proofs.ParserGrammable.parseStream_output_aliases_resolve -->
<g id="edge8" class="edge">
<title>L4YAML.Proofs.ParserGrammable.parseStream_output_grammable&#45;&gt;L4YAML.Proofs.ParserGrammable.parseStream_output_aliases_resolve</title>
<path fill="none" stroke="#28a745" stroke-width="2" d="M828.7,-278.91C861.91,-260.81 909.44,-234.91 942.12,-217.1"/>
<polygon fill="#28a745" stroke="#28a745" stroke-width="2" points="943.47,-219.15 948.44,-213.65 941.12,-214.85 943.47,-219.15"/>
<text text-anchor="middle" x="883" y="-254.6" font-family="Times-Roman" font-size="8.00">uses</text>
</g>
<!-- L4YAML.Proofs.ParserGrammable.parseStream_output_grammable&#45;&gt;L4YAML.Proofs.ParserGrammable.parseStream_output_scannable -->
<g id="edge3" class="edge">
<title>L4YAML.Proofs.ParserGrammable.parseStream_output_grammable&#45;&gt;L4YAML.Proofs.ParserGrammable.parseStream_output_scannable</title>
<path fill="none" stroke="#28a745" stroke-width="2" d="M765.02,-278.91C744.16,-261.29 714.54,-236.29 693.52,-218.55"/>
<polygon fill="#28a745" stroke="#28a745" stroke-width="2" points="695.04,-216.62 688.11,-213.98 691.88,-220.37 695.04,-216.62"/>
<text text-anchor="middle" x="753" y="-254.6" font-family="Times-Roman" font-size="8.00">uses</text>
</g>
<!-- L4YAML.Proofs.ParserGrammable.parseStream_output_grammable&#45;&gt;L4YAML.Proofs.ParserGrammable.parseStream_output_anchors_wellformed -->
<g id="edge17" class="edge">
<title>L4YAML.Proofs.ParserGrammable.parseStream_output_grammable&#45;&gt;L4YAML.Proofs.ParserGrammable.parseStream_output_anchors_wellformed</title>
<path fill="none" stroke="#28a745" stroke-width="2" d="M894.09,-283.65C963.96,-272.62 1058.03,-257.63 1141,-244 1203.17,-233.78 1273.11,-221.96 1327.28,-212.73"/>
<polygon fill="#28a745" stroke="#28a745" stroke-width="2" points="1327.99,-215.09 1334.48,-211.5 1327.17,-210.26 1327.99,-215.09"/>
<text text-anchor="middle" x="1093" y="-254.6" font-family="Times-Roman" font-size="8.00">uses</text>
</g>
</g>
</svg>
