<?xml version="1.0" encoding="UTF-8" standalone="no"?>
<!DOCTYPE svg PUBLIC "-//W3C//DTD SVG 1.1//EN"
 "http://www.w3.org/Graphics/SVG/1.1/DTD/svg11.dtd">
<!-- Generated by graphviz version 2.44.0 (0)
 -->
<!-- Title: chain_ScannerCorrectness.advance_preserves_flowLevel Pages: 1 -->
<svg width="1006pt" height="201pt"
 viewBox="0.00 0.00 1006.00 200.92" xmlns="http://www.w3.org/2000/svg" xmlns:xlink="http://www.w3.org/1999/xlink">
<g id="graph0" class="graph" transform="scale(1 1) rotate(0) translate(4 196.92)">
<title>chain_ScannerCorrectness.advance_preserves_flowLevel</title>
<polygon fill="white" stroke="transparent" points="-4,4 -4,-196.92 1002,-196.92 1002,4 -4,4"/>
<text text-anchor="middle" x="499" y="-178.52" font-family="Helvetica Bold" font-size="13.00">Structural theorem: ScannerCorrectness.advance_preserves_flowLevel\nProof is a witness / injection — no fibration depth\n(heuristic: used by 75 proofs)</text>
<g id="clust1" class="cluster">
<title>cluster_direct</title>
<polygon fill="none" stroke="#4a90d9" stroke-dasharray="5,2" points="317,-8 317,-82 681,-82 681,-8 317,-8"/>
<text text-anchor="middle" x="499" y="-67.6" font-family="Helvetica Bold" font-size="13.00" fill="#4a90d9">About (no chain extends — proof is structural)</text>
</g>
<!-- L4YAML.Proofs.ScannerCorrectness.advance_preserves_flowLevel -->
<g id="node1" class="node">
<title>L4YAML.Proofs.ScannerCorrectness.advance_preserves_flowLevel</title>
<polygon fill="#fff3cd" stroke="#d4a017" points="679.85,-134.46 679.85,-153.46 572.74,-166.89 421.26,-166.89 314.15,-153.46 314.15,-134.46 421.26,-121.03 572.74,-121.03 679.85,-134.46"/>
<polygon fill="none" stroke="#d4a017" points="683.85,-130.94 683.85,-156.98 572.99,-170.88 421.01,-170.88 310.15,-156.98 310.15,-130.94 421.01,-117.04 572.99,-117.04 683.85,-130.94"/>
<text text-anchor="middle" x="497" y="-146.96" font-family="Helvetica" font-size="10.00">ScannerCorrectness.advance_preserves_flowLevel</text>
<text text-anchor="middle" x="497" y="-135.96" font-family="Helvetica" font-size="10.00">(structural)</text>
</g>
<!-- L4YAML.Scanner.ScannerState.advance -->
<g id="node2" class="node">
<title>L4YAML.Scanner.ScannerState.advance</title>
<g id="a_node2"><a xlink:href="../../../api/L4YAML/Scanner/State.html#L4YAML.Scanner.ScannerState.advance" xlink:title="ScannerState.advance" target="_blank">
<polygon fill="#dce9f7" stroke="#4a90d9" points="440.5,-52 325.5,-52 325.5,-16 440.5,-16 440.5,-52"/>
<text text-anchor="middle" x="383" y="-31.5" font-family="Helvetica" font-size="10.00">ScannerState.advance</text>
</a>
</g>
</g>
<!-- L4YAML.Proofs.ScannerCorrectness.advance_preserves_flowLevel&#45;&gt;L4YAML.Scanner.ScannerState.advance -->
<g id="edge1" class="edge">
<title>L4YAML.Proofs.ScannerCorrectness.advance_preserves_flowLevel&#45;&gt;L4YAML.Scanner.ScannerState.advance</title>
<path fill="none" stroke="#4a90d9" stroke-width="2" d="M469.4,-116.83C450.17,-98.62 424.8,-74.58 406.53,-57.28"/>
<polygon fill="#4a90d9" stroke="#4a90d9" stroke-width="2" points="407.87,-55.17 401.1,-52.14 404.5,-58.73 407.87,-55.17"/>
<text text-anchor="middle" x="463.5" y="-92.6" font-family="Times-Roman" font-size="8.00" fill="#4a90d9">about</text>
</g>
<!-- L4YAML.Scanner.ScannerState -->
<g id="node3" class="node">
<title>L4YAML.Scanner.ScannerState</title>
<g id="a_node3"><a xlink:href="../../../api/L4YAML/Scanner/State.html#L4YAML.Scanner.ScannerState" xlink:title="ScannerState" target="_blank">
<polygon fill="#dce9f7" stroke="#4a90d9" points="535,-52 459,-52 459,-16 535,-16 535,-52"/>
<text text-anchor="middle" x="497" y="-31.5" font-family="Helvetica" font-size="10.00">ScannerState</text>
</a>
</g>
</g>
<!-- L4YAML.Proofs.ScannerCorrectness.advance_preserves_flowLevel&#45;&gt;L4YAML.Scanner.ScannerState -->
<g id="edge2" class="edge">
<title>L4YAML.Proofs.ScannerCorrectness.advance_preserves_flowLevel&#45;&gt;L4YAML.Scanner.ScannerState</title>
<path fill="none" stroke="#4a90d9" stroke-width="2" d="M497,-116.83C497,-99.4 497,-76.64 497,-59.55"/>
<polygon fill="#4a90d9" stroke="#4a90d9" stroke-width="2" points="499.45,-59.14 497,-52.14 494.55,-59.14 499.45,-59.14"/>
<text text-anchor="middle" x="509.5" y="-92.6" font-family="Times-Roman" font-size="8.00" fill="#4a90d9">about</text>
</g>
<!-- L4YAML.Scanner.ScannerState.flowLevel -->
<g id="node4" class="node">
<title>L4YAML.Scanner.ScannerState.flowLevel</title>
<g id="a_node4"><a xlink:href="../../../api/L4YAML/Scanner/State.html#L4YAML.Scanner.ScannerState.flowLevel" xlink:title="ScannerState.flowLevel" target="_blank">
<polygon fill="#dce9f7" stroke="#4a90d9" points="672.5,-52 553.5,-52 553.5,-16 672.5,-16 672.5,-52"/>
<text text-anchor="middle" x="613" y="-31.5" font-family="Helvetica" font-size="10.00">ScannerState.flowLevel</text>
</a>
</g>
</g>
<!-- L4YAML.Proofs.ScannerCorrectness.advance_preserves_flowLevel&#45;&gt;L4YAML.Scanner.ScannerState.flowLevel -->
<g id="edge3" class="edge">
<title>L4YAML.Proofs.ScannerCorrectness.advance_preserves_flowLevel&#45;&gt;L4YAML.Scanner.ScannerState.flowLevel</title>
<path fill="none" stroke="#4a90d9" stroke-width="2" d="M525.08,-116.83C544.65,-98.62 570.47,-74.58 589.06,-57.28"/>
<polygon fill="#4a90d9" stroke="#4a90d9" stroke-width="2" points="591.13,-58.7 594.58,-52.14 587.79,-55.12 591.13,-58.7"/>
<text text-anchor="middle" x="563.5" y="-92.6" font-family="Times-Roman" font-size="8.00" fill="#4a90d9">about</text>
</g>
</g>
</svg>
