<?xml version="1.0" encoding="UTF-8" standalone="no"?>
<!DOCTYPE svg PUBLIC "-//W3C//DTD SVG 1.1//EN"
 "http://www.w3.org/Graphics/SVG/1.1/DTD/svg11.dtd">
<!-- Generated by graphviz version 2.44.0 (0)
 -->
<!-- Title: chain_ScannerCorrectness.advance_preserves_tokens Pages: 1 -->
<svg width="997pt" height="201pt"
 viewBox="0.00 0.00 997.00 200.92" xmlns="http://www.w3.org/2000/svg" xmlns:xlink="http://www.w3.org/1999/xlink">
<g id="graph0" class="graph" transform="scale(1 1) rotate(0) translate(4 196.92)">
<title>chain_ScannerCorrectness.advance_preserves_tokens</title>
<polygon fill="white" stroke="transparent" points="-4,4 -4,-196.92 993,-196.92 993,4 -4,4"/>
<text text-anchor="middle" x="494.5" y="-178.52" font-family="Helvetica Bold" font-size="13.00">Structural theorem: ScannerCorrectness.advance_preserves_tokens\nProof is a witness / injection — no fibration depth\n(heuristic: used by 121 proofs)</text>
<g id="clust1" class="cluster">
<title>cluster_direct</title>
<polygon fill="none" stroke="#4a90d9" stroke-dasharray="5,2" points="238,-8 238,-82 751,-82 751,-8 238,-8"/>
<text text-anchor="middle" x="494.5" y="-67.6" font-family="Helvetica Bold" font-size="13.00" fill="#4a90d9">About (no chain extends — proof is structural)</text>
</g>
<!-- L4YAML.Proofs.ScannerCorrectness.advance_preserves_tokens -->
<g id="node1" class="node">
<title>L4YAML.Proofs.ScannerCorrectness.advance_preserves_tokens</title>
<polygon fill="#fff3cd" stroke="#d4a017" points="709.97,-134.46 709.97,-153.46 608.06,-166.89 463.94,-166.89 362.03,-153.46 362.03,-134.46 463.94,-121.03 608.06,-121.03 709.97,-134.46"/>
<polygon fill="none" stroke="#d4a017" points="713.98,-130.96 713.98,-156.96 608.32,-170.88 463.68,-170.88 358.02,-156.96 358.02,-130.96 463.68,-117.04 608.32,-117.04 713.98,-130.96"/>
<text text-anchor="middle" x="536" y="-146.96" font-family="Helvetica" font-size="10.00">ScannerCorrectness.advance_preserves_tokens</text>
<text text-anchor="middle" x="536" y="-135.96" font-family="Helvetica" font-size="10.00">(structural)</text>
</g>
<!-- L4YAML.Scanner.ScannerState.tokens -->
<g id="node2" class="node">
<title>L4YAML.Scanner.ScannerState.tokens</title>
<g id="a_node2"><a xlink:href="../../../api/L4YAML/Scanner/State.html#L4YAML.Scanner.ScannerState.tokens" xlink:title="ScannerState.tokens" target="_blank">
<polygon fill="#dce9f7" stroke="#4a90d9" points="353.5,-52 246.5,-52 246.5,-16 353.5,-16 353.5,-52"/>
<text text-anchor="middle" x="300" y="-31.5" font-family="Helvetica" font-size="10.00">ScannerState.tokens</text>
</a>
</g>
</g>
<!-- L4YAML.Proofs.ScannerCorrectness.advance_preserves_tokens&#45;&gt;L4YAML.Scanner.ScannerState.tokens -->
<g id="edge1" class="edge">
<title>L4YAML.Proofs.ScannerCorrectness.advance_preserves_tokens&#45;&gt;L4YAML.Scanner.ScannerState.tokens</title>
<path fill="none" stroke="#4a90d9" stroke-width="2" d="M450.11,-118.77C421.29,-109.13 389.49,-96.76 362,-82 348.93,-74.98 335.66,-65.33 324.77,-56.6"/>
<polygon fill="#4a90d9" stroke="#4a90d9" stroke-width="2" points="326.27,-54.67 319.3,-52.14 323.18,-58.46 326.27,-54.67"/>
<text text-anchor="middle" x="406.5" y="-92.6" font-family="Times-Roman" font-size="8.00" fill="#4a90d9">about</text>
</g>
<!-- L4YAML.Scanner.ScannerState.advance -->
<g id="node3" class="node">
<title>L4YAML.Scanner.ScannerState.advance</title>
<g id="a_node3"><a xlink:href="../../../api/L4YAML/Scanner/State.html#L4YAML.Scanner.ScannerState.advance" xlink:title="ScannerState.advance" target="_blank">
<polygon fill="#dce9f7" stroke="#4a90d9" points="486.5,-52 371.5,-52 371.5,-16 486.5,-16 486.5,-52"/>
<text text-anchor="middle" x="429" y="-31.5" font-family="Helvetica" font-size="10.00">ScannerState.advance</text>
</a>
</g>
</g>
<!-- L4YAML.Proofs.ScannerCorrectness.advance_preserves_tokens&#45;&gt;L4YAML.Scanner.ScannerState.advance -->
<g id="edge2" class="edge">
<title>L4YAML.Proofs.ScannerCorrectness.advance_preserves_tokens&#45;&gt;L4YAML.Scanner.ScannerState.advance</title>
<path fill="none" stroke="#4a90d9" stroke-width="2" d="M510.1,-116.83C492.05,-98.62 468.23,-74.58 451.08,-57.28"/>
<polygon fill="#4a90d9" stroke="#4a90d9" stroke-width="2" points="452.66,-55.39 445.99,-52.14 449.18,-58.84 452.66,-55.39"/>
<text text-anchor="middle" x="504.5" y="-92.6" font-family="Times-Roman" font-size="8.00" fill="#4a90d9">about</text>
</g>
<!-- L4YAML.Positioned -->
<g id="node4" class="node">
<title>L4YAML.Positioned</title>
<g id="a_node4"><a xlink:href="../../../api/L4YAML/Token/Token.html#L4YAML.Positioned" xlink:title="Positioned" target="_blank">
<polygon fill="#dce9f7" stroke="#4a90d9" points="567,-52 505,-52 505,-16 567,-16 567,-52"/>
<text text-anchor="middle" x="536" y="-31.5" font-family="Helvetica" font-size="10.00">Positioned</text>
</a>
</g>
</g>
<!-- L4YAML.Proofs.ScannerCorrectness.advance_preserves_tokens&#45;&gt;L4YAML.Positioned -->
<g id="edge3" class="edge">
<title>L4YAML.Proofs.ScannerCorrectness.advance_preserves_tokens&#45;&gt;L4YAML.Positioned</title>
<path fill="none" stroke="#4a90d9" stroke-width="2" d="M536,-116.83C536,-99.4 536,-76.64 536,-59.55"/>
<polygon fill="#4a90d9" stroke="#4a90d9" stroke-width="2" points="538.45,-59.14 536,-52.14 533.55,-59.14 538.45,-59.14"/>
<text text-anchor="middle" x="548.5" y="-92.6" font-family="Times-Roman" font-size="8.00" fill="#4a90d9">about</text>
</g>
<!-- L4YAML.YamlToken -->
<g id="node5" class="node">
<title>L4YAML.YamlToken</title>
<g id="a_node5"><a xlink:href="../../../api/L4YAML/Token/Token.html#L4YAML.YamlToken" xlink:title="YamlToken" target="_blank">
<polygon fill="#dce9f7" stroke="#4a90d9" points="649,-52 585,-52 585,-16 649,-16 649,-52"/>
<text text-anchor="middle" x="617" y="-31.5" font-family="Helvetica" font-size="10.00">YamlToken</text>
</a>
</g>
</g>
<!-- L4YAML.Proofs.ScannerCorrectness.advance_preserves_tokens&#45;&gt;L4YAML.YamlToken -->
<g id="edge4" class="edge">
<title>L4YAML.Proofs.ScannerCorrectness.advance_preserves_tokens&#45;&gt;L4YAML.YamlToken</title>
<path fill="none" stroke="#4a90d9" stroke-width="2" d="M555.61,-116.83C569.04,-98.93 586.68,-75.41 599.61,-58.18"/>
<polygon fill="#4a90d9" stroke="#4a90d9" stroke-width="2" points="601.9,-59.21 604.14,-52.14 597.98,-56.27 601.9,-59.21"/>
<text text-anchor="middle" x="586.5" y="-92.6" font-family="Times-Roman" font-size="8.00" fill="#4a90d9">about</text>
</g>
<!-- L4YAML.Scanner.ScannerState -->
<g id="node6" class="node">
<title>L4YAML.Scanner.ScannerState</title>
<g id="a_node6"><a xlink:href="../../../api/L4YAML/Scanner/State.html#L4YAML.Scanner.ScannerState" xlink:title="ScannerState" target="_blank">
<polygon fill="#dce9f7" stroke="#4a90d9" points="743,-52 667,-52 667,-16 743,-16 743,-52"/>
<text text-anchor="middle" x="705" y="-31.5" font-family="Helvetica" font-size="10.00">ScannerState</text>
</a>
</g>
</g>
<!-- L4YAML.Proofs.ScannerCorrectness.advance_preserves_tokens&#45;&gt;L4YAML.Scanner.ScannerState -->
<g id="edge5" class="edge">
<title>L4YAML.Proofs.ScannerCorrectness.advance_preserves_tokens&#45;&gt;L4YAML.Scanner.ScannerState</title>
<path fill="none" stroke="#4a90d9" stroke-width="2" d="M597.47,-117.01C617.56,-107.31 639.46,-95.36 658,-82 667.74,-74.98 677.32,-65.91 685.27,-57.61"/>
<polygon fill="#4a90d9" stroke="#4a90d9" stroke-width="2" points="687.5,-58.81 690.49,-52.02 683.92,-55.47 687.5,-58.81"/>
<text text-anchor="middle" x="657.5" y="-92.6" font-family="Times-Roman" font-size="8.00" fill="#4a90d9">about</text>
</g>
</g>
</svg>
