<?xml version="1.0" encoding="UTF-8" standalone="no"?>
<!DOCTYPE svg PUBLIC "-//W3C//DTD SVG 1.1//EN"
 "http://www.w3.org/Graphics/SVG/1.1/DTD/svg11.dtd">
<!-- Generated by graphviz version 2.44.0 (0)
 -->
<!-- Title: chain_ScannerCorrectness.ScanHelpers.collectAnchorNameLoop_preserves_tokens Pages: 1 -->
<svg width="839pt" height="310pt"
 viewBox="0.00 0.00 839.00 310.00" xmlns="http://www.w3.org/2000/svg" xmlns:xlink="http://www.w3.org/1999/xlink">
<g id="graph0" class="graph" transform="scale(1 1) rotate(0) translate(4 306)">
<title>chain_ScannerCorrectness.ScanHelpers.collectAnchorNameLoop_preserves_tokens</title>
<polygon fill="white" stroke="transparent" points="-4,4 -4,-306 835,-306 835,4 -4,4"/>
<text text-anchor="middle" x="415.5" y="-287.6" font-family="Helvetica Bold" font-size="13.00">Functorial Chains: ScannerCorrectness.ScanHelpers.collectAnchorNameLoop_preserves_tokens\n(heuristic: used by 7 proofs)</text>
<g id="clust1" class="cluster">
<title>cluster_fns</title>
<polygon fill="none" stroke="#4a90d9" stroke-dasharray="5,2" points="529,-8 529,-163 794,-163 794,-8 529,-8"/>
<text text-anchor="middle" x="661.5" y="-148.6" font-family="Helvetica Bold" font-size="13.00" fill="#4a90d9">Functions (Call Chain)</text>
</g>
<g id="clust2" class="cluster">
<title>cluster_thms</title>
<polygon fill="none" stroke="#28a745" stroke-dasharray="5,2" points="37,-89 37,-272 521,-272 521,-89 37,-89"/>
<text text-anchor="middle" x="279" y="-257.6" font-family="Helvetica Bold" font-size="13.00" fill="#28a745">Theorems (Proof Chain)</text>
</g>
<!-- L4YAML.Scanner.ScannerState -->
<g id="node1" class="node">
<title>L4YAML.Scanner.ScannerState</title>
<g id="a_node1"><a xlink:href="../../../api/L4YAML/Scanner/State.html#L4YAML.Scanner.ScannerState" xlink:title="ScannerState" target="_blank">
<polygon fill="#dce9f7" stroke="#4a90d9" points="625,-52 549,-52 549,-16 625,-16 625,-52"/>
<text text-anchor="middle" x="587" y="-31.5" font-family="Helvetica" font-size="10.00">ScannerState</text>
</a>
</g>
</g>
<!-- L4YAML.Scanner.collectAnchorNameLoop -->
<g id="node2" class="node">
<title>L4YAML.Scanner.collectAnchorNameLoop</title>
<g id="a_node2"><a xlink:href="../../../api/L4YAML/Scanner/NodeProperties.html#L4YAML.Scanner.collectAnchorNameLoop" xlink:title="collectAnchorNameLoop" target="_blank">
<polygon fill="#dce9f7" stroke="#4a90d9" points="660.5,-133 537.5,-133 537.5,-97 660.5,-97 660.5,-133"/>
<text text-anchor="middle" x="599" y="-112.5" font-family="Helvetica" font-size="10.00">collectAnchorNameLoop</text>
</a>
</g>
</g>
<!-- L4YAML.Scanner.collectAnchorNameLoop&#45;&gt;L4YAML.Scanner.ScannerState -->
<g id="edge2" class="edge">
<title>L4YAML.Scanner.collectAnchorNameLoop&#45;&gt;L4YAML.Scanner.ScannerState</title>
<path fill="none" stroke="#4a90d9" stroke-width="2" d="M596.4,-96.86C594.73,-85.88 592.54,-71.48 590.7,-59.33"/>
<polygon fill="#4a90d9" stroke="#4a90d9" stroke-width="2" points="593.07,-58.66 589.6,-52.11 588.23,-59.4 593.07,-58.66"/>
<text text-anchor="middle" x="602.5" y="-72.6" font-family="Times-Roman" font-size="8.00">calls</text>
</g>
<!-- L4YAML.Scanner.ScannerState.tokens -->
<g id="node3" class="node">
<title>L4YAML.Scanner.ScannerState.tokens</title>
<g id="a_node3"><a xlink:href="../../../api/L4YAML/Scanner/State.html#L4YAML.Scanner.ScannerState.tokens" xlink:title="ScannerState.tokens" target="_blank">
<polygon fill="#dce9f7" stroke="#4a90d9" points="785.5,-133 678.5,-133 678.5,-97 785.5,-97 785.5,-133"/>
<text text-anchor="middle" x="732" y="-112.5" font-family="Helvetica" font-size="10.00">ScannerState.tokens</text>
</a>
</g>
</g>
<!-- L4YAML.Scanner.ScannerState.tokens&#45;&gt;L4YAML.Scanner.ScannerState -->
<g id="edge6" class="edge">
<title>L4YAML.Scanner.ScannerState.tokens&#45;&gt;L4YAML.Scanner.ScannerState</title>
<path fill="none" stroke="#4a90d9" stroke-width="2" d="M700.54,-96.86C678.21,-84.69 648.14,-68.31 624.56,-55.46"/>
<polygon fill="#4a90d9" stroke="#4a90d9" stroke-width="2" points="625.72,-53.31 618.4,-52.11 623.38,-57.61 625.72,-53.31"/>
<text text-anchor="middle" x="672.5" y="-72.6" font-family="Times-Roman" font-size="8.00">calls</text>
</g>
<!-- L4YAML.Scanner.collectAnchorNameLoop.eq_def -->
<g id="node4" class="node">
<title>L4YAML.Scanner.collectAnchorNameLoop.eq_def</title>
<g id="a_node4"><a xlink:href="../../../api/L4YAML/Proofs/Coupling/StructureCoupling.html#L4YAML.Scanner.collectAnchorNameLoop.eq_def" xlink:title="collectAnchorNameLoop.eq_def" target="_blank">
<ellipse fill="#d4edda" stroke="#28a745" cx="136" cy="-115" rx="91.49" ry="18"/>
<text text-anchor="middle" x="136" y="-112.5" font-family="Helvetica" font-size="10.00">collectAnchorNameLoop.eq_def</text>
</a>
</g>
</g>
<!-- L4YAML.Scanner.collectAnchorNameLoop.eq_def&#45;&gt;L4YAML.Scanner.ScannerState -->
<g id="edge8" class="edge">
<title>L4YAML.Scanner.collectAnchorNameLoop.eq_def&#45;&gt;L4YAML.Scanner.ScannerState</title>
<path fill="none" stroke="#6f42c1" stroke-width="2" stroke-dasharray="5,2" d="M187.7,-100.11C203.16,-96.22 220.21,-92.18 236,-89 345.05,-67.03 474.74,-49.2 541.8,-40.6"/>
<polygon fill="#6f42c1" stroke="#6f42c1" stroke-width="2" points="542.25,-43.01 548.88,-39.69 541.63,-38.15 542.25,-43.01"/>
<text text-anchor="middle" x="343.5" y="-72.6" font-family="Times-Roman" font-size="8.00" fill="#6f42c1">about</text>
</g>
<!-- L4YAML.Proofs.ScannerCorrectness.ScanHelpers.collectAnchorNameLoop_preserves_tokens -->
<g id="node5" class="node">
<title>L4YAML.Proofs.ScannerCorrectness.ScanHelpers.collectAnchorNameLoop_preserves_tokens</title>
<g id="a_node5"><a xlink:href="../../../api/L4YAML/Proofs/Scanner/ScannerCorrectness.html#L4YAML.Proofs.ScannerCorrectness.ScanHelpers.collectAnchorNameLoop_preserves_tokens" xlink:title="ScannerCorrectness.ScanHelpers.collectAnchorNameLoop_preserves_tokens" target="_blank">
<polygon fill="#fff3cd" stroke="#d4a017" points="509.44,-212.54 509.44,-227.46 376.21,-238 187.79,-238 54.56,-227.46 54.56,-212.54 187.79,-202 376.21,-202 509.44,-212.54"/>
<polygon fill="none" stroke="#d4a017" points="513.44,-208.85 513.44,-231.15 376.36,-242 187.64,-242 50.56,-231.15 50.56,-208.85 187.64,-198 376.36,-198 513.44,-208.85"/>
<text text-anchor="middle" x="282" y="-217.5" font-family="Helvetica" font-size="10.00">ScannerCorrectness.ScanHelpers.collectAnchorNameLoop_preserves_tokens</text>
</a>
</g>
</g>
<!-- L4YAML.Proofs.ScannerCorrectness.ScanHelpers.collectAnchorNameLoop_preserves_tokens&#45;&gt;L4YAML.Scanner.collectAnchorNameLoop -->
<g id="edge1" class="edge">
<title>L4YAML.Proofs.ScannerCorrectness.ScanHelpers.collectAnchorNameLoop_preserves_tokens&#45;&gt;L4YAML.Scanner.collectAnchorNameLoop</title>
<path fill="none" stroke="#6f42c1" stroke-width="2" stroke-dasharray="5,2" d="M401.32,-199.91C441.53,-191.29 486.06,-179.29 525,-163 540.95,-156.33 557.32,-146.32 570.59,-137.26"/>
<polygon fill="#6f42c1" stroke="#6f42c1" stroke-width="2" points="572.11,-139.18 576.46,-133.17 569.31,-135.16 572.11,-139.18"/>
<text text-anchor="middle" x="511.5" y="-173.6" font-family="Times-Roman" font-size="8.00" fill="#6f42c1">about</text>
</g>
<!-- L4YAML.Proofs.ScannerCorrectness.ScanHelpers.collectAnchorNameLoop_preserves_tokens&#45;&gt;L4YAML.Scanner.ScannerState.tokens -->
<g id="edge5" class="edge">
<title>L4YAML.Proofs.ScannerCorrectness.ScanHelpers.collectAnchorNameLoop_preserves_tokens&#45;&gt;L4YAML.Scanner.ScannerState.tokens</title>
<path fill="none" stroke="#6f42c1" stroke-width="2" stroke-dasharray="5,2" d="M497.12,-207.51C554.85,-199.22 616.16,-185.51 670,-163 684.22,-157.05 698.08,-147.07 709.08,-137.83"/>
<polygon fill="#6f42c1" stroke="#6f42c1" stroke-width="2" points="710.87,-139.53 714.56,-133.09 707.66,-135.82 710.87,-139.53"/>
<text text-anchor="middle" x="652.5" y="-173.6" font-family="Times-Roman" font-size="8.00" fill="#6f42c1">about</text>
</g>
<!-- L4YAML.Proofs.ScannerCorrectness.ScanHelpers.collectAnchorNameLoop_preserves_tokens&#45;&gt;L4YAML.Scanner.collectAnchorNameLoop.eq_def -->
<g id="edge7" class="edge">
<title>L4YAML.Proofs.ScannerCorrectness.ScanHelpers.collectAnchorNameLoop_preserves_tokens&#45;&gt;L4YAML.Scanner.collectAnchorNameLoop.eq_def</title>
<path fill="none" stroke="#28a745" stroke-width="2" d="M252.1,-197.91C226.77,-180.04 190.65,-154.55 165.44,-136.77"/>
<polygon fill="#28a745" stroke="#28a745" stroke-width="2" points="166.74,-134.69 159.6,-132.65 163.91,-138.69 166.74,-134.69"/>
<text text-anchor="middle" x="236" y="-173.6" font-family="Times-Roman" font-size="8.00">uses</text>
</g>
<!-- L4YAML.Proofs.ScannerCorrectness.advance_preserves_tokens -->
<g id="node6" class="node">
<title>L4YAML.Proofs.ScannerCorrectness.advance_preserves_tokens</title>
<g id="a_node6"><a xlink:href="../../../api/L4YAML/Proofs/Scanner/ScannerCorrectness.html#L4YAML.Proofs.ScannerCorrectness.advance_preserves_tokens" xlink:title="ScannerCorrectness.advance_preserves_tokens" target="_blank">
<ellipse fill="#d4edda" stroke="#28a745" cx="379" cy="-115" rx="133.75" ry="18"/>
<text text-anchor="middle" x="379" y="-112.5" font-family="Helvetica" font-size="10.00">ScannerCorrectness.advance_preserves_tokens</text>
</a>
</g>
</g>
<!-- L4YAML.Proofs.ScannerCorrectness.ScanHelpers.collectAnchorNameLoop_preserves_tokens&#45;&gt;L4YAML.Proofs.ScannerCorrectness.advance_preserves_tokens -->
<g id="edge3" class="edge">
<title>L4YAML.Proofs.ScannerCorrectness.ScanHelpers.collectAnchorNameLoop_preserves_tokens&#45;&gt;L4YAML.Proofs.ScannerCorrectness.advance_preserves_tokens</title>
<path fill="none" stroke="#28a745" stroke-width="2" d="M302.1,-197.66C318.49,-180.25 341.57,-155.74 358.16,-138.13"/>
<polygon fill="#28a745" stroke="#28a745" stroke-width="2" points="360.07,-139.67 363.09,-132.89 356.51,-136.31 360.07,-139.67"/>
<text text-anchor="middle" x="334" y="-173.6" font-family="Times-Roman" font-size="8.00">uses</text>
</g>
<!-- L4YAML.Proofs.ScannerCorrectness.advance_preserves_tokens&#45;&gt;L4YAML.Scanner.ScannerState -->
<g id="edge4" class="edge">
<title>L4YAML.Proofs.ScannerCorrectness.advance_preserves_tokens&#45;&gt;L4YAML.Scanner.ScannerState</title>
<path fill="none" stroke="#6f42c1" stroke-width="2" stroke-dasharray="5,2" d="M421.34,-97.92C456.42,-84.6 506.14,-65.71 541.95,-52.11"/>
<polygon fill="#6f42c1" stroke="#6f42c1" stroke-width="2" points="543.24,-54.24 548.92,-49.46 541.5,-49.66 543.24,-54.24"/>
<text text-anchor="middle" x="501.5" y="-72.6" font-family="Times-Roman" font-size="8.00" fill="#6f42c1">about</text>
</g>
</g>
</svg>
