<?xml version="1.0" encoding="UTF-8" standalone="no"?>
<!DOCTYPE svg PUBLIC "-//W3C//DTD SVG 1.1//EN"
 "http://www.w3.org/Graphics/SVG/1.1/DTD/svg11.dtd">
<!-- Generated by graphviz version 2.44.0 (0)
 -->
<!-- Title: chain_ScannerCorrectness.ScanHelpers.collectDirectiveNameLoop_preserves_tokens Pages: 1 -->
<svg width="848pt" height="310pt"
 viewBox="0.00 0.00 848.00 310.00" xmlns="http://www.w3.org/2000/svg" xmlns:xlink="http://www.w3.org/1999/xlink">
<g id="graph0" class="graph" transform="scale(1 1) rotate(0) translate(4 306)">
<title>chain_ScannerCorrectness.ScanHelpers.collectDirectiveNameLoop_preserves_tokens</title>
<polygon fill="white" stroke="transparent" points="-4,4 -4,-306 844,-306 844,4 -4,4"/>
<text text-anchor="middle" x="420" y="-287.6" font-family="Helvetica Bold" font-size="13.00">Functorial Chains: ScannerCorrectness.ScanHelpers.collectDirectiveNameLoop_preserves_tokens\n(heuristic: used by 6 proofs)</text>
<g id="clust1" class="cluster">
<title>cluster_fns</title>
<polygon fill="none" stroke="#4a90d9" stroke-dasharray="5,2" points="534.5,-8 534.5,-163 807.5,-163 807.5,-8 534.5,-8"/>
<text text-anchor="middle" x="671" y="-148.6" font-family="Helvetica Bold" font-size="13.00" fill="#4a90d9">Functions (Call Chain)</text>
</g>
<g id="clust2" class="cluster">
<title>cluster_thms</title>
<polygon fill="none" stroke="#28a745" stroke-dasharray="5,2" points="32.5,-89 32.5,-272 526.5,-272 526.5,-89 32.5,-89"/>
<text text-anchor="middle" x="279.5" y="-257.6" font-family="Helvetica Bold" font-size="13.00" fill="#28a745">Theorems (Proof Chain)</text>
</g>
<!-- L4YAML.Scanner.ScannerState -->
<g id="node1" class="node">
<title>L4YAML.Scanner.ScannerState</title>
<g id="a_node1"><a xlink:href="../../../api/L4YAML/Scanner/State.html#L4YAML.Scanner.ScannerState" xlink:title="ScannerState" target="_blank">
<polygon fill="#dce9f7" stroke="#4a90d9" points="626.5,-52 550.5,-52 550.5,-16 626.5,-16 626.5,-52"/>
<text text-anchor="middle" x="588.5" y="-31.5" font-family="Helvetica" font-size="10.00">ScannerState</text>
</a>
</g>
</g>
<!-- L4YAML.Scanner.ScannerState.tokens -->
<g id="node2" class="node">
<title>L4YAML.Scanner.ScannerState.tokens</title>
<g id="a_node2"><a xlink:href="../../../api/L4YAML/Scanner/State.html#L4YAML.Scanner.ScannerState.tokens" xlink:title="ScannerState.tokens" target="_blank">
<polygon fill="#dce9f7" stroke="#4a90d9" points="650,-133 543,-133 543,-97 650,-97 650,-133"/>
<text text-anchor="middle" x="596.5" y="-112.5" font-family="Helvetica" font-size="10.00">ScannerState.tokens</text>
</a>
</g>
</g>
<!-- L4YAML.Scanner.ScannerState.tokens&#45;&gt;L4YAML.Scanner.ScannerState -->
<g id="edge6" class="edge">
<title>L4YAML.Scanner.ScannerState.tokens&#45;&gt;L4YAML.Scanner.ScannerState</title>
<path fill="none" stroke="#4a90d9" stroke-width="2" d="M594.76,-96.86C593.65,-85.88 592.19,-71.48 590.96,-59.33"/>
<polygon fill="#4a90d9" stroke="#4a90d9" stroke-width="2" points="593.38,-58.83 590.23,-52.11 588.5,-59.32 593.38,-58.83"/>
<text text-anchor="middle" x="602" y="-72.6" font-family="Times-Roman" font-size="8.00">calls</text>
</g>
<!-- L4YAML.Scanner.collectDirectiveNameLoop -->
<g id="node3" class="node">
<title>L4YAML.Scanner.collectDirectiveNameLoop</title>
<g id="a_node3"><a xlink:href="../../../api/L4YAML/Scanner/Document.html#L4YAML.Scanner.collectDirectiveNameLoop" xlink:title="collectDirectiveNameLoop" target="_blank">
<polygon fill="#dce9f7" stroke="#4a90d9" points="799,-133 668,-133 668,-97 799,-97 799,-133"/>
<text text-anchor="middle" x="733.5" y="-112.5" font-family="Helvetica" font-size="10.00">collectDirectiveNameLoop</text>
</a>
</g>
</g>
<!-- L4YAML.Scanner.collectDirectiveNameLoop&#45;&gt;L4YAML.Scanner.ScannerState -->
<g id="edge2" class="edge">
<title>L4YAML.Scanner.collectDirectiveNameLoop&#45;&gt;L4YAML.Scanner.ScannerState</title>
<path fill="none" stroke="#4a90d9" stroke-width="2" d="M702.04,-96.86C679.71,-84.69 649.64,-68.31 626.06,-55.46"/>
<polygon fill="#4a90d9" stroke="#4a90d9" stroke-width="2" points="627.22,-53.31 619.9,-52.11 624.88,-57.61 627.22,-53.31"/>
<text text-anchor="middle" x="674" y="-72.6" font-family="Times-Roman" font-size="8.00">calls</text>
</g>
<!-- L4YAML.Scanner.collectDirectiveNameLoop.eq_def -->
<g id="node4" class="node">
<title>L4YAML.Scanner.collectDirectiveNameLoop.eq_def</title>
<g id="a_node4"><a xlink:href="../../../api/L4YAML/Proofs/Coupling/StructureCoupling.html#L4YAML.Scanner.collectDirectiveNameLoop.eq_def" xlink:title="collectDirectiveNameLoop.eq_def" target="_blank">
<ellipse fill="#d4edda" stroke="#28a745" cx="136.5" cy="-115" rx="95.9" ry="18"/>
<text text-anchor="middle" x="136.5" y="-112.5" font-family="Helvetica" font-size="10.00">collectDirectiveNameLoop.eq_def</text>
</a>
</g>
</g>
<!-- L4YAML.Scanner.collectDirectiveNameLoop.eq_def&#45;&gt;L4YAML.Scanner.ScannerState -->
<g id="edge8" class="edge">
<title>L4YAML.Scanner.collectDirectiveNameLoop.eq_def&#45;&gt;L4YAML.Scanner.ScannerState</title>
<path fill="none" stroke="#6f42c1" stroke-width="2" stroke-dasharray="5,2" d="M191.09,-100.13C207.26,-96.26 225.04,-92.23 241.5,-89 349.15,-67.84 476.91,-49.75 543.32,-40.86"/>
<polygon fill="#6f42c1" stroke="#6f42c1" stroke-width="2" points="543.72,-43.28 550.33,-39.93 543.07,-38.43 543.72,-43.28"/>
<text text-anchor="middle" x="358" y="-72.6" font-family="Times-Roman" font-size="8.00" fill="#6f42c1">about</text>
</g>
<!-- L4YAML.Proofs.ScannerCorrectness.advance_preserves_tokens -->
<g id="node5" class="node">
<title>L4YAML.Proofs.ScannerCorrectness.advance_preserves_tokens</title>
<g id="a_node5"><a xlink:href="../../../api/L4YAML/Proofs/Scanner/ScannerCorrectness.html#L4YAML.Proofs.ScannerCorrectness.advance_preserves_tokens" xlink:title="ScannerCorrectness.advance_preserves_tokens" target="_blank">
<ellipse fill="#d4edda" stroke="#28a745" cx="384.5" cy="-115" rx="133.75" ry="18"/>
<text text-anchor="middle" x="384.5" y="-112.5" font-family="Helvetica" font-size="10.00">ScannerCorrectness.advance_preserves_tokens</text>
</a>
</g>
</g>
<!-- L4YAML.Proofs.ScannerCorrectness.advance_preserves_tokens&#45;&gt;L4YAML.Scanner.ScannerState -->
<g id="edge4" class="edge">
<title>L4YAML.Proofs.ScannerCorrectness.advance_preserves_tokens&#45;&gt;L4YAML.Scanner.ScannerState</title>
<path fill="none" stroke="#6f42c1" stroke-width="2" stroke-dasharray="5,2" d="M426.27,-97.82C460.37,-84.62 508.46,-66 543.42,-52.46"/>
<polygon fill="#6f42c1" stroke="#6f42c1" stroke-width="2" points="544.58,-54.63 550.23,-49.82 542.81,-50.06 544.58,-54.63"/>
<text text-anchor="middle" x="505" y="-72.6" font-family="Times-Roman" font-size="8.00" fill="#6f42c1">about</text>
</g>
<!-- L4YAML.Proofs.ScannerCorrectness.ScanHelpers.collectDirectiveNameLoop_preserves_tokens -->
<g id="node6" class="node">
<title>L4YAML.Proofs.ScannerCorrectness.ScanHelpers.collectDirectiveNameLoop_preserves_tokens</title>
<g id="a_node6"><a xlink:href="../../../api/L4YAML/Proofs/Scanner/ScannerCorrectness.html#L4YAML.Proofs.ScannerCorrectness.ScanHelpers.collectDirectiveNameLoop_preserves_tokens" xlink:title="ScannerCorrectness.ScanHelpers.collectDirectiveNameLoop_preserves_tokens" target="_blank">
<polygon fill="#fff3cd" stroke="#d4a017" points="514.13,-212.54 514.13,-227.46 377.86,-238 185.14,-238 48.87,-227.46 48.87,-212.54 185.14,-202 377.86,-202 514.13,-212.54"/>
<polygon fill="none" stroke="#d4a017" points="518.13,-208.84 518.13,-231.16 378.01,-242 184.99,-242 44.87,-231.16 44.87,-208.84 184.99,-198 378.01,-198 518.13,-208.84"/>
<text text-anchor="middle" x="281.5" y="-217.5" font-family="Helvetica" font-size="10.00">ScannerCorrectness.ScanHelpers.collectDirectiveNameLoop_preserves_tokens</text>
</a>
</g>
</g>
<!-- L4YAML.Proofs.ScannerCorrectness.ScanHelpers.collectDirectiveNameLoop_preserves_tokens&#45;&gt;L4YAML.Scanner.ScannerState.tokens -->
<g id="edge5" class="edge">
<title>L4YAML.Proofs.ScannerCorrectness.ScanHelpers.collectDirectiveNameLoop_preserves_tokens&#45;&gt;L4YAML.Scanner.ScannerState.tokens</title>
<path fill="none" stroke="#6f42c1" stroke-width="2" stroke-dasharray="5,2" d="M409.39,-200.37C449.26,-191.92 492.67,-179.89 530.5,-163 545.07,-156.49 559.69,-146.52 571.45,-137.44"/>
<polygon fill="#6f42c1" stroke="#6f42c1" stroke-width="2" points="573.01,-139.33 576.98,-133.07 569.97,-135.49 573.01,-139.33"/>
<text text-anchor="middle" x="517" y="-173.6" font-family="Times-Roman" font-size="8.00" fill="#6f42c1">about</text>
</g>
<!-- L4YAML.Proofs.ScannerCorrectness.ScanHelpers.collectDirectiveNameLoop_preserves_tokens&#45;&gt;L4YAML.Scanner.collectDirectiveNameLoop -->
<g id="edge1" class="edge">
<title>L4YAML.Proofs.ScannerCorrectness.ScanHelpers.collectDirectiveNameLoop_preserves_tokens&#45;&gt;L4YAML.Scanner.collectDirectiveNameLoop</title>
<path fill="none" stroke="#6f42c1" stroke-width="2" stroke-dasharray="5,2" d="M478.2,-205.65C537.75,-197.45 602.46,-184.24 659.5,-163 675.95,-156.87 692.6,-146.73 705.93,-137.43"/>
<polygon fill="#6f42c1" stroke="#6f42c1" stroke-width="2" points="707.53,-139.29 711.8,-133.23 704.68,-135.31 707.53,-139.29"/>
<text text-anchor="middle" x="642" y="-173.6" font-family="Times-Roman" font-size="8.00" fill="#6f42c1">about</text>
</g>
<!-- L4YAML.Proofs.ScannerCorrectness.ScanHelpers.collectDirectiveNameLoop_preserves_tokens&#45;&gt;L4YAML.Scanner.collectDirectiveNameLoop.eq_def -->
<g id="edge7" class="edge">
<title>L4YAML.Proofs.ScannerCorrectness.ScanHelpers.collectDirectiveNameLoop_preserves_tokens&#45;&gt;L4YAML.Scanner.collectDirectiveNameLoop.eq_def</title>
<path fill="none" stroke="#28a745" stroke-width="2" d="M251.81,-197.91C226.65,-180.04 190.77,-154.55 165.74,-136.77"/>
<polygon fill="#28a745" stroke="#28a745" stroke-width="2" points="167.07,-134.71 159.94,-132.65 164.23,-138.7 167.07,-134.71"/>
<text text-anchor="middle" x="235.5" y="-173.6" font-family="Times-Roman" font-size="8.00">uses</text>
</g>
<!-- L4YAML.Proofs.ScannerCorrectness.ScanHelpers.collectDirectiveNameLoop_preserves_tokens&#45;&gt;L4YAML.Proofs.ScannerCorrectness.advance_preserves_tokens -->
<g id="edge3" class="edge">
<title>L4YAML.Proofs.ScannerCorrectness.ScanHelpers.collectDirectiveNameLoop_preserves_tokens&#45;&gt;L4YAML.Proofs.ScannerCorrectness.advance_preserves_tokens</title>
<path fill="none" stroke="#28a745" stroke-width="2" d="M302.84,-197.66C320.25,-180.25 344.76,-155.74 362.37,-138.13"/>
<polygon fill="#28a745" stroke="#28a745" stroke-width="2" points="364.39,-139.58 367.61,-132.89 360.92,-136.11 364.39,-139.58"/>
<text text-anchor="middle" x="336.5" y="-173.6" font-family="Times-Roman" font-size="8.00">uses</text>
</g>
</g>
</svg>
