<?xml version="1.0" encoding="UTF-8" standalone="no"?>
<!DOCTYPE svg PUBLIC "-//W3C//DTD SVG 1.1//EN"
 "http://www.w3.org/Graphics/SVG/1.1/DTD/svg11.dtd">
<!-- Generated by graphviz version 2.44.0 (0)
 -->
<!-- Title: ScannerCorrectness.ScanHelpers.collectVersionMajorLoop_preserves_tokens Pages: 1 -->
<svg width="1476pt" height="643pt"
 viewBox="0.00 0.00 1476.16 643.00" xmlns="http://www.w3.org/2000/svg" xmlns:xlink="http://www.w3.org/1999/xlink">
<g id="graph0" class="graph" transform="scale(1 1) rotate(0) translate(4 639)">
<title>ScannerCorrectness.ScanHelpers.collectVersionMajorLoop_preserves_tokens</title>
<polygon fill="white" stroke="transparent" points="-4,4 -4,-639 1472.16,-639 1472.16,4 -4,4"/>
<text text-anchor="middle" x="734.08" y="-620.6" font-family="Helvetica Bold" font-size="13.00">ScannerCorrectness.ScanHelpers.collectVersionMajorLoop_preserves_tokens</text>
<text text-anchor="middle" x="734.08" y="-606.6" font-family="Helvetica Bold" font-size="13.00">(heuristic: used by 6 proofs)</text>
<text text-anchor="middle" x="734.08" y="-592.6" font-family="Helvetica Bold" font-size="13.00">(L4YAML.Proofs.Scanner.ScannerCorrectness)</text>
<g id="clust1" class="cluster">
<title>cluster_functions</title>
<polygon fill="none" stroke="#4a90d9" stroke-dasharray="5,2" points="880.16,-124 880.16,-414 1460.16,-414 1460.16,-124 880.16,-124"/>
<text text-anchor="middle" x="1170.16" y="-399.6" font-family="Helvetica Bold" font-size="13.00" fill="#4a90d9">Functions</text>
</g>
<g id="clust2" class="cluster">
<title>cluster_key</title>
<polygon fill="none" stroke="#d4a017" stroke-dasharray="5,2" points="671.15,-8 671.15,-90 1276.16,-90 1276.16,-8 671.15,-8"/>
<text text-anchor="middle" x="973.66" y="-75.6" font-family="Helvetica Bold" font-size="13.00" fill="#d4a017">Key Theorem</text>
</g>
<g id="clust3" class="cluster">
<title>cluster_proofs</title>
<polygon fill="none" stroke="#28a745" stroke-dasharray="5,2" points="150.06,-285 150.06,-425 487.09,-425 487.09,-285 150.06,-285"/>
<text text-anchor="middle" x="318.57" y="-410.6" font-family="Helvetica Bold" font-size="13.00" fill="#28a745">Proof Dependencies</text>
</g>
<g id="clust4" class="cluster">
<title>cluster_stdlib</title>
<polygon fill="none" stroke="#e67e22" stroke-dasharray="5,2" points="8,-76 8,-204 629.15,-204 629.15,-76 8,-76"/>
<text text-anchor="middle" x="318.57" y="-189.6" font-family="Helvetica Bold" font-size="13.00" fill="#e67e22">Stdlib Lemmas</text>
</g>
<!-- L4YAML.Scanner.collectVersionMajorLoop.match_1 -->
<g id="node1" class="node">
<title>L4YAML.Scanner.collectVersionMajorLoop.match_1</title>
<g id="a_node1"><a xlink:href="../../../api/L4YAML/Scanner/Document.html#L4YAML.Scanner.collectVersionMajorLoop.match_1" xlink:title="collectVersionMajorLoop.match_1\n(def)" target="_blank">
<polygon fill="#dce9f7" stroke="#4a90d9" points="1055.66,-222 891.66,-222 891.66,-186 1055.66,-186 1055.66,-222"/>
<text text-anchor="middle" x="973.66" y="-207" font-family="Helvetica" font-size="10.00">collectVersionMajorLoop.match_1</text>
<text text-anchor="middle" x="973.66" y="-196" font-family="Helvetica" font-size="10.00">(def)</text>
</a>
</g>
</g>
<!-- L4YAML.Scanner.collectDirectiveNameLoop.match_3 -->
<g id="node2" class="node">
<title>L4YAML.Scanner.collectDirectiveNameLoop.match_3</title>
<g id="a_node2"><a xlink:href="../../../api/L4YAML/Scanner/Document.html#L4YAML.Scanner.collectDirectiveNameLoop.match_3" xlink:title="collectDirectiveNameLoop.match_3\n(def)" target="_blank">
<polygon fill="#dce9f7" stroke="#4a90d9" points="1059.16,-330 888.16,-330 888.16,-294 1059.16,-294 1059.16,-330"/>
<text text-anchor="middle" x="973.66" y="-315" font-family="Helvetica" font-size="10.00">collectDirectiveNameLoop.match_3</text>
<text text-anchor="middle" x="973.66" y="-304" font-family="Helvetica" font-size="10.00">(def)</text>
</a>
</g>
</g>
<!-- L4YAML.Positioned -->
<g id="node3" class="node">
<title>L4YAML.Positioned</title>
<g id="a_node3"><a xlink:href="../../../api/L4YAML/Token/Token.html#L4YAML.Positioned" xlink:title="Positioned\n(inductive)" target="_blank">
<polygon fill="#dce9f7" stroke="#4a90d9" points="1421.66,-384 1359.66,-384 1359.66,-348 1421.66,-348 1421.66,-384"/>
<text text-anchor="middle" x="1390.66" y="-369" font-family="Helvetica" font-size="10.00">Positioned</text>
<text text-anchor="middle" x="1390.66" y="-358" font-family="Helvetica" font-size="10.00">(inductive)</text>
</a>
</g>
</g>
<!-- L4YAML.Scanner.ScannerState.advance -->
<g id="node4" class="node">
<title>L4YAML.Scanner.ScannerState.advance</title>
<g id="a_node4"><a xlink:href="../../../api/L4YAML/Scanner/State.html#L4YAML.Scanner.ScannerState.advance" xlink:title="ScannerState.advance\n(def)" target="_blank">
<polygon fill="#dce9f7" stroke="#4a90d9" points="1031.16,-384 916.16,-384 916.16,-348 1031.16,-348 1031.16,-384"/>
<text text-anchor="middle" x="973.66" y="-369" font-family="Helvetica" font-size="10.00">ScannerState.advance</text>
<text text-anchor="middle" x="973.66" y="-358" font-family="Helvetica" font-size="10.00">(def)</text>
</a>
</g>
</g>
<!-- L4YAML.Scanner.ScannerState.peek? -->
<g id="node5" class="node">
<title>L4YAML.Scanner.ScannerState.peek?</title>
<g id="a_node5"><a xlink:href="../../../api/L4YAML/Scanner/State.html#L4YAML.Scanner.ScannerState.peek?" xlink:title="ScannerState.peek?\n(def)" target="_blank">
<polygon fill="#dce9f7" stroke="#4a90d9" points="1025.66,-276 921.66,-276 921.66,-240 1025.66,-240 1025.66,-276"/>
<text text-anchor="middle" x="973.66" y="-261" font-family="Helvetica" font-size="10.00">ScannerState.peek?</text>
<text text-anchor="middle" x="973.66" y="-250" font-family="Helvetica" font-size="10.00">(def)</text>
</a>
</g>
</g>
<!-- L4YAML.Scanner.ScannerState -->
<g id="node6" class="node">
<title>L4YAML.Scanner.ScannerState</title>
<g id="a_node6"><a xlink:href="../../../api/L4YAML/Scanner/State.html#L4YAML.Scanner.ScannerState" xlink:title="ScannerState\n(inductive)" target="_blank">
<polygon fill="#dce9f7" stroke="#4a90d9" points="1428.66,-276 1352.66,-276 1352.66,-240 1428.66,-240 1428.66,-276"/>
<text text-anchor="middle" x="1390.66" y="-261" font-family="Helvetica" font-size="10.00">ScannerState</text>
<text text-anchor="middle" x="1390.66" y="-250" font-family="Helvetica" font-size="10.00">(inductive)</text>
</a>
</g>
</g>
<!-- L4YAML.YamlToken -->
<g id="node7" class="node">
<title>L4YAML.YamlToken</title>
<g id="a_node7"><a xlink:href="../../../api/L4YAML/Token/Token.html#L4YAML.YamlToken" xlink:title="YamlToken\n(inductive)" target="_blank">
<polygon fill="#dce9f7" stroke="#4a90d9" points="1422.66,-330 1358.66,-330 1358.66,-294 1422.66,-294 1422.66,-330"/>
<text text-anchor="middle" x="1390.66" y="-315" font-family="Helvetica" font-size="10.00">YamlToken</text>
<text text-anchor="middle" x="1390.66" y="-304" font-family="Helvetica" font-size="10.00">(inductive)</text>
</a>
</g>
</g>
<!-- L4YAML.Scanner.collectVersionMajorLoop -->
<g id="node8" class="node">
<title>L4YAML.Scanner.collectVersionMajorLoop</title>
<g id="a_node8"><a xlink:href="../../../api/L4YAML/Scanner/Document.html#L4YAML.Scanner.collectVersionMajorLoop" xlink:title="collectVersionMajorLoop\n(def)" target="_blank">
<polygon fill="#dce9f7" stroke="#4a90d9" points="1452.16,-168 1329.16,-168 1329.16,-132 1452.16,-132 1452.16,-168"/>
<text text-anchor="middle" x="1390.66" y="-153" font-family="Helvetica" font-size="10.00">collectVersionMajorLoop</text>
<text text-anchor="middle" x="1390.66" y="-142" font-family="Helvetica" font-size="10.00">(def)</text>
</a>
</g>
</g>
<!-- L4YAML.Scanner.ScannerState.tokens -->
<g id="node9" class="node">
<title>L4YAML.Scanner.ScannerState.tokens</title>
<g id="a_node9"><a xlink:href="../../../api/L4YAML/Scanner/State.html#L4YAML.Scanner.ScannerState.tokens" xlink:title="ScannerState.tokens\n(def)" target="_blank">
<polygon fill="#dce9f7" stroke="#4a90d9" points="1444.16,-222 1337.16,-222 1337.16,-186 1444.16,-186 1444.16,-222"/>
<text text-anchor="middle" x="1390.66" y="-207" font-family="Helvetica" font-size="10.00">ScannerState.tokens</text>
<text text-anchor="middle" x="1390.66" y="-196" font-family="Helvetica" font-size="10.00">(def)</text>
</a>
</g>
</g>
<!-- L4YAML.Proofs.ScannerCorrectness.ScanHelpers.collectVersionMajorLoop_preserves_tokens -->
<g id="node10" class="node">
<title>L4YAML.Proofs.ScannerCorrectness.ScanHelpers.collectVersionMajorLoop_preserves_tokens</title>
<g id="a_node10"><a xlink:href="../../../api/L4YAML/Proofs/Scanner/ScannerCorrectness.html#L4YAML.Proofs.ScannerCorrectness.ScanHelpers.collectVersionMajorLoop_preserves_tokens" xlink:title="ScannerCorrectness.ScanHelpers.collectVersionMajorLoop_preserves_tokens" target="_blank">
<polygon fill="#fff3cd" stroke="#d4a017" points="1264.17,-30.54 1264.17,-45.46 1093.99,-56 853.32,-56 683.14,-45.46 683.14,-30.54 853.32,-20 1093.99,-20 1264.17,-30.54"/>
<polygon fill="none" stroke="#d4a017" points="1268.17,-26.78 1268.17,-49.22 1094.12,-60 853.19,-60 679.14,-49.22 679.14,-26.78 853.19,-16 1094.12,-16 1268.17,-26.78"/>
<text text-anchor="middle" x="973.66" y="-34.9" font-family="Helvetica" font-size="12.00">ScannerCorrectness.ScanHelpers.collectVersionMajorLoop_preserves_tokens</text>
</a>
</g>
</g>
<!-- L4YAML.Proofs.ScannerCorrectness.ScanHelpers.collectVersionMajorLoop_preserves_tokens&#45;&gt;L4YAML.Positioned -->
<g id="edge2" class="edge">
<title>L4YAML.Proofs.ScannerCorrectness.ScanHelpers.collectVersionMajorLoop_preserves_tokens&#45;&gt;L4YAML.Positioned</title>
<path fill="none" stroke="#4a90d9" stroke-width="2" d="M1218.54,-52.41C1240.34,-62.31 1260.17,-75.8 1276.16,-94 1289.53,-109.21 1279.66,-256.82 1286.16,-276 1297.05,-308.11 1303.15,-317.27 1329.16,-339 1336.06,-344.76 1344.38,-349.52 1352.62,-353.35"/>
<polygon fill="#4a90d9" stroke="#4a90d9" stroke-width="2" points="1352.09,-355.79 1359.48,-356.35 1354.05,-351.3 1352.09,-355.79"/>
<text text-anchor="middle" x="1298.66" y="-323.6" font-family="Times-Roman" font-size="8.00" fill="#4a90d9">about</text>
</g>
<!-- L4YAML.Proofs.ScannerCorrectness.ScanHelpers.collectVersionMajorLoop_preserves_tokens&#45;&gt;L4YAML.Scanner.ScannerState -->
<g id="edge4" class="edge">
<title>L4YAML.Proofs.ScannerCorrectness.ScanHelpers.collectVersionMajorLoop_preserves_tokens&#45;&gt;L4YAML.Scanner.ScannerState</title>
<path fill="none" stroke="#4a90d9" stroke-width="2" d="M1213.48,-52.65C1236.89,-62.36 1258.47,-75.75 1276.16,-94 1296.51,-114.99 1272.41,-133.21 1286.16,-159 1293.27,-172.32 1302.77,-169.45 1311.16,-182 1324.06,-201.28 1313.32,-214.05 1329.16,-231 1333.94,-236.11 1339.85,-240.31 1346.09,-243.75"/>
<polygon fill="#4a90d9" stroke="#4a90d9" stroke-width="2" points="1345.07,-245.97 1352.42,-246.94 1347.27,-241.6 1345.07,-245.97"/>
<text text-anchor="middle" x="1298.66" y="-184.6" font-family="Times-Roman" font-size="8.00" fill="#4a90d9">about</text>
</g>
<!-- L4YAML.Proofs.ScannerCorrectness.ScanHelpers.collectVersionMajorLoop_preserves_tokens&#45;&gt;L4YAML.YamlToken -->
<g id="edge3" class="edge">
<title>L4YAML.Proofs.ScannerCorrectness.ScanHelpers.collectVersionMajorLoop_preserves_tokens&#45;&gt;L4YAML.YamlToken</title>
<path fill="none" stroke="#4a90d9" stroke-width="2" d="M1216.29,-52.5C1238.81,-62.31 1259.42,-75.77 1276.16,-94 1291.42,-110.61 1280.1,-173.28 1286.16,-195 1298.08,-237.7 1297.41,-254.06 1329.16,-285 1335.54,-291.21 1343.58,-296.13 1351.7,-299.98"/>
<polygon fill="#4a90d9" stroke="#4a90d9" stroke-width="2" points="1351.12,-302.39 1358.51,-302.96 1353.08,-297.9 1351.12,-302.39"/>
<text text-anchor="middle" x="1298.66" y="-265.6" font-family="Times-Roman" font-size="8.00" fill="#4a90d9">about</text>
</g>
<!-- L4YAML.Proofs.ScannerCorrectness.ScanHelpers.collectVersionMajorLoop_preserves_tokens&#45;&gt;L4YAML.Scanner.collectVersionMajorLoop -->
<g id="edge5" class="edge">
<title>L4YAML.Proofs.ScannerCorrectness.ScanHelpers.collectVersionMajorLoop_preserves_tokens&#45;&gt;L4YAML.Scanner.collectVersionMajorLoop</title>
<path fill="none" stroke="#4a90d9" stroke-width="2" d="M1174.67,-55.02C1220.66,-63.18 1268.55,-75.23 1311.16,-93 1330.79,-101.18 1350.15,-115.16 1364.73,-127.22"/>
<polygon fill="#4a90d9" stroke="#4a90d9" stroke-width="2" points="1363.35,-129.26 1370.28,-131.9 1366.51,-125.52 1363.35,-129.26"/>
<text text-anchor="middle" x="1298.66" y="-95.6" font-family="Times-Roman" font-size="8.00" fill="#4a90d9">about</text>
</g>
<!-- L4YAML.Proofs.ScannerCorrectness.ScanHelpers.collectVersionMajorLoop_preserves_tokens&#45;&gt;L4YAML.Scanner.ScannerState.tokens -->
<g id="edge1" class="edge">
<title>L4YAML.Proofs.ScannerCorrectness.ScanHelpers.collectVersionMajorLoop_preserves_tokens&#45;&gt;L4YAML.Scanner.ScannerState.tokens</title>
<path fill="none" stroke="#4a90d9" stroke-width="2" d="M1186.09,-54.38C1218.02,-63.17 1249.23,-75.85 1276.16,-94 1285.24,-100.12 1320.87,-169.86 1329.16,-177 1331.2,-178.75 1333.37,-180.41 1335.63,-181.98"/>
<polygon fill="#4a90d9" stroke="#4a90d9" stroke-width="2" points="1334.58,-184.22 1341.8,-185.91 1337.22,-180.09 1334.58,-184.22"/>
<text text-anchor="middle" x="1298.66" y="-150.6" font-family="Times-Roman" font-size="8.00" fill="#4a90d9">about</text>
</g>
<!-- L4YAML.Scanner.collectVersionMajorLoop.eq_def -->
<g id="node11" class="node">
<title>L4YAML.Scanner.collectVersionMajorLoop.eq_def</title>
<g id="a_node11"><a xlink:href="../../../api/L4YAML/Proofs/Coupling/StructureCoupling.html#L4YAML.Scanner.collectVersionMajorLoop.eq_def" xlink:title="collectVersionMajorLoop.eq_def\n(Coupling.StructureCoupling)" target="_blank">
<ellipse fill="#d4edda" stroke="#28a745" cx="318.57" cy="-314" rx="109.7" ry="21.43"/>
<text text-anchor="middle" x="318.57" y="-317" font-family="Helvetica" font-size="10.00">collectVersionMajorLoop.eq_def</text>
<text text-anchor="middle" x="318.57" y="-306" font-family="Helvetica" font-size="10.00">(Coupling.StructureCoupling)</text>
</a>
</g>
</g>
<!-- L4YAML.Scanner.collectVersionMajorLoop.eq_def&#45;&gt;L4YAML.Scanner.collectVersionMajorLoop.match_1 -->
<g id="edge14" class="edge">
<title>L4YAML.Scanner.collectVersionMajorLoop.eq_def&#45;&gt;L4YAML.Scanner.collectVersionMajorLoop.match_1</title>
<path fill="none" stroke="#6f42c1" stroke-width="2" stroke-dasharray="5,2" d="M381.59,-296.52C451.41,-277.51 568.53,-247.62 671.15,-231 743.3,-219.31 826.06,-212.35 886.59,-208.44"/>
<polygon fill="#6f42c1" stroke="#6f42c1" stroke-width="2" points="886.76,-210.18 891.64,-208.11 886.54,-206.69 886.76,-210.18"/>
<text text-anchor="middle" x="650.15" y="-237.4" font-family="Times-Roman" font-size="7.00" fill="#6f42c1">about</text>
</g>
<!-- L4YAML.Scanner.collectVersionMajorLoop.eq_def&#45;&gt;L4YAML.Scanner.collectDirectiveNameLoop.match_3 -->
<g id="edge11" class="edge">
<title>L4YAML.Scanner.collectVersionMajorLoop.eq_def&#45;&gt;L4YAML.Scanner.collectDirectiveNameLoop.match_3</title>
<path fill="none" stroke="#6f42c1" stroke-width="2" stroke-dasharray="5,2" d="M428.52,-313.67C555.82,-313.28 764.1,-312.64 882.65,-312.28"/>
<polygon fill="#6f42c1" stroke="#6f42c1" stroke-width="2" points="882.88,-314.03 887.88,-312.26 882.87,-310.53 882.88,-314.03"/>
<text text-anchor="middle" x="650.15" y="-315.4" font-family="Times-Roman" font-size="7.00" fill="#6f42c1">about</text>
</g>
<!-- L4YAML.Scanner.collectVersionMajorLoop.eq_def&#45;&gt;L4YAML.Scanner.ScannerState.advance -->
<g id="edge10" class="edge">
<title>L4YAML.Scanner.collectVersionMajorLoop.eq_def&#45;&gt;L4YAML.Scanner.ScannerState.advance</title>
<path fill="none" stroke="#6f42c1" stroke-width="2" stroke-dasharray="5,2" d="M420.19,-322.01C557.02,-332.91 797.67,-352.07 910.71,-361.07"/>
<polygon fill="#6f42c1" stroke="#6f42c1" stroke-width="2" points="910.87,-362.84 915.99,-361.49 911.15,-359.35 910.87,-362.84"/>
<text text-anchor="middle" x="650.15" y="-342.4" font-family="Times-Roman" font-size="7.00" fill="#6f42c1">about</text>
</g>
<!-- L4YAML.Scanner.collectVersionMajorLoop.eq_def&#45;&gt;L4YAML.Scanner.ScannerState.peek? -->
<g id="edge15" class="edge">
<title>L4YAML.Scanner.collectVersionMajorLoop.eq_def&#45;&gt;L4YAML.Scanner.ScannerState.peek?</title>
<path fill="none" stroke="#6f42c1" stroke-width="2" stroke-dasharray="5,2" d="M419.12,-305.46C557.96,-293.56 805.16,-272.36 916.07,-262.85"/>
<polygon fill="#6f42c1" stroke="#6f42c1" stroke-width="2" points="916.41,-264.58 921.25,-262.41 916.11,-261.09 916.41,-264.58"/>
<text text-anchor="middle" x="650.15" y="-288.4" font-family="Times-Roman" font-size="7.00" fill="#6f42c1">about</text>
</g>
<!-- L4YAML.Scanner.collectVersionMajorLoop.eq_def&#45;&gt;L4YAML.Scanner.ScannerState -->
<g id="edge12" class="edge">
<title>L4YAML.Scanner.collectVersionMajorLoop.eq_def&#45;&gt;L4YAML.Scanner.ScannerState</title>
<path fill="none" stroke="#6f42c1" stroke-width="2" stroke-dasharray="5,2" d="M416.99,-304.57C485.42,-292.88 574.21,-266.68 629.15,-208 640.79,-195.56 625.95,-181.77 639.15,-171 693.98,-126.24 1216.65,-130.68 1276.16,-169 1285.2,-174.81 1279.89,-182.28 1286.16,-191 1301.42,-212.18 1307.4,-216.6 1329.16,-231 1334.9,-234.79 1341.25,-238.29 1347.62,-241.41"/>
<polygon fill="#6f42c1" stroke="#6f42c1" stroke-width="2" points="1347.22,-243.16 1352.49,-243.73 1348.73,-240 1347.22,-243.16"/>
<text text-anchor="middle" x="973.66" y="-171.4" font-family="Times-Roman" font-size="7.00" fill="#6f42c1">about</text>
</g>
<!-- L4YAML.Scanner.collectVersionMajorLoop.eq_def&#45;&gt;L4YAML.Scanner.collectVersionMajorLoop -->
<g id="edge13" class="edge">
<title>L4YAML.Scanner.collectVersionMajorLoop.eq_def&#45;&gt;L4YAML.Scanner.collectVersionMajorLoop</title>
<path fill="none" stroke="#6f42c1" stroke-width="2" stroke-dasharray="5,2" d="M419.35,-305.53C488.24,-294.3 576.59,-268.26 629.15,-208 644.33,-190.59 628.12,-177.3 639.15,-157 648.59,-139.6 652.79,-133.43 671.15,-126 795.76,-75.54 1141.93,-118.35 1276.16,-126 1291.8,-126.89 1295.77,-127.17 1311.16,-130 1315.34,-130.77 1319.62,-131.63 1323.93,-132.56"/>
<polygon fill="#6f42c1" stroke="#6f42c1" stroke-width="2" points="1323.73,-134.31 1328.99,-133.68 1324.48,-130.89 1323.73,-134.31"/>
<text text-anchor="middle" x="973.66" y="-128.4" font-family="Times-Roman" font-size="7.00" fill="#6f42c1">about</text>
</g>
<!-- L4YAML.Scanner.collectVersionMajorLoop.eq_def&#45;&gt;L4YAML.Proofs.ScannerCorrectness.ScanHelpers.collectVersionMajorLoop_preserves_tokens -->
<g id="edge7" class="edge">
<title>L4YAML.Scanner.collectVersionMajorLoop.eq_def&#45;&gt;L4YAML.Proofs.ScannerCorrectness.ScanHelpers.collectVersionMajorLoop_preserves_tokens</title>
<path fill="none" stroke="#28a745" d="M422.64,-307.15C492.4,-296.67 580.42,-270.86 629.15,-208 646.63,-185.45 619.45,-100.65 639.15,-80 649.27,-69.38 660.62,-60.45 672.86,-52.97"/>
<polygon fill="#28a745" stroke="#28a745" points="674.14,-55.06 678.94,-49.41 671.66,-50.83 674.14,-55.06"/>
</g>
<!-- L4YAML.Proofs.ScannerCorrectness.advance_preserves_tokens -->
<g id="node12" class="node">
<title>L4YAML.Proofs.ScannerCorrectness.advance_preserves_tokens</title>
<g id="a_node12"><a xlink:href="../../../api/L4YAML/Proofs/Scanner/ScannerCorrectness.html#L4YAML.Proofs.ScannerCorrectness.advance_preserves_tokens" xlink:title="ScannerCorrectness.advance_preserves_tokens\n(Scanner.ScannerCorrectness)" target="_blank">
<ellipse fill="#d4edda" stroke="#28a745" cx="318.57" cy="-374" rx="160.53" ry="21.43"/>
<text text-anchor="middle" x="318.57" y="-377" font-family="Helvetica" font-size="10.00">ScannerCorrectness.advance_preserves_tokens</text>
<text text-anchor="middle" x="318.57" y="-366" font-family="Helvetica" font-size="10.00">(Scanner.ScannerCorrectness)</text>
</a>
</g>
</g>
<!-- L4YAML.Proofs.ScannerCorrectness.advance_preserves_tokens&#45;&gt;L4YAML.Positioned -->
<g id="edge20" class="edge">
<title>L4YAML.Proofs.ScannerCorrectness.advance_preserves_tokens&#45;&gt;L4YAML.Positioned</title>
<path fill="none" stroke="#6f42c1" stroke-width="2" stroke-dasharray="5,2" d="M352.44,-394.8C408.6,-429.03 527.8,-496.02 639.15,-522 784.62,-555.94 1185.51,-618.78 1311.16,-538 1362.96,-504.71 1381,-427.86 1386.94,-389.16"/>
<polygon fill="#6f42c1" stroke="#6f42c1" stroke-width="2" points="1388.67,-389.38 1387.67,-384.18 1385.21,-388.88 1388.67,-389.38"/>
<text text-anchor="middle" x="973.66" y="-579.4" font-family="Times-Roman" font-size="7.00" fill="#6f42c1">about</text>
</g>
<!-- L4YAML.Proofs.ScannerCorrectness.advance_preserves_tokens&#45;&gt;L4YAML.Scanner.ScannerState.advance -->
<g id="edge19" class="edge">
<title>L4YAML.Proofs.ScannerCorrectness.advance_preserves_tokens&#45;&gt;L4YAML.Scanner.ScannerState.advance</title>
<path fill="none" stroke="#6f42c1" stroke-width="2" stroke-dasharray="5,2" d="M478.5,-372.05C617.6,-370.35 812.37,-367.96 910.68,-366.76"/>
<polygon fill="#6f42c1" stroke="#6f42c1" stroke-width="2" points="910.88,-368.51 915.86,-366.7 910.84,-365.01 910.88,-368.51"/>
<text text-anchor="middle" x="650.15" y="-372.4" font-family="Times-Roman" font-size="7.00" fill="#6f42c1">about</text>
</g>
<!-- L4YAML.Proofs.ScannerCorrectness.advance_preserves_tokens&#45;&gt;L4YAML.Scanner.ScannerState -->
<g id="edge22" class="edge">
<title>L4YAML.Proofs.ScannerCorrectness.advance_preserves_tokens&#45;&gt;L4YAML.Scanner.ScannerState</title>
<path fill="none" stroke="#6f42c1" stroke-width="2" stroke-dasharray="5,2" d="M398.51,-392.49C462.87,-406.67 556.34,-425.26 639.15,-434 676.28,-437.92 1283.36,-474.93 1311.16,-450 1338.62,-425.37 1307.44,-314.81 1329.16,-285 1333.93,-278.46 1340.65,-273.47 1347.89,-269.68"/>
<polygon fill="#6f42c1" stroke="#6f42c1" stroke-width="2" points="1348.72,-271.23 1352.45,-267.47 1347.19,-268.08 1348.72,-271.23"/>
<text text-anchor="middle" x="973.66" y="-460.4" font-family="Times-Roman" font-size="7.00" fill="#6f42c1">about</text>
</g>
<!-- L4YAML.Proofs.ScannerCorrectness.advance_preserves_tokens&#45;&gt;L4YAML.YamlToken -->
<g id="edge21" class="edge">
<title>L4YAML.Proofs.ScannerCorrectness.advance_preserves_tokens&#45;&gt;L4YAML.YamlToken</title>
<path fill="none" stroke="#6f42c1" stroke-width="2" stroke-dasharray="5,2" d="M367.19,-394.33C428.69,-419.45 539.66,-460.96 639.15,-478 712.76,-490.61 1255.39,-543.67 1311.16,-494 1337.06,-470.94 1308.64,-366.95 1329.16,-339 1335.19,-330.79 1344.29,-325.03 1353.61,-321"/>
<polygon fill="#6f42c1" stroke="#6f42c1" stroke-width="2" points="1354.5,-322.53 1358.49,-319.05 1353.2,-319.28 1354.5,-322.53"/>
<text text-anchor="middle" x="973.66" y="-516.4" font-family="Times-Roman" font-size="7.00" fill="#6f42c1">about</text>
</g>
<!-- L4YAML.Proofs.ScannerCorrectness.advance_preserves_tokens&#45;&gt;L4YAML.Scanner.ScannerState.tokens -->
<g id="edge18" class="edge">
<title>L4YAML.Proofs.ScannerCorrectness.advance_preserves_tokens&#45;&gt;L4YAML.Scanner.ScannerState.tokens</title>
<path fill="none" stroke="#6f42c1" stroke-width="2" stroke-dasharray="5,2" d="M461.46,-383.71C728.12,-401.26 1280.2,-433.95 1311.16,-406 1340.19,-379.81 1306.23,-262.66 1329.16,-231 1330.61,-229.01 1332.23,-227.16 1333.99,-225.45"/>
<polygon fill="#6f42c1" stroke="#6f42c1" stroke-width="2" points="1335.19,-226.73 1337.8,-222.12 1332.88,-224.09 1335.19,-226.73"/>
<text text-anchor="middle" x="973.66" y="-418.4" font-family="Times-Roman" font-size="7.00" fill="#6f42c1">about</text>
</g>
<!-- L4YAML.Proofs.ScannerCorrectness.advance_preserves_tokens&#45;&gt;L4YAML.Proofs.ScannerCorrectness.ScanHelpers.collectVersionMajorLoop_preserves_tokens -->
<g id="edge6" class="edge">
<title>L4YAML.Proofs.ScannerCorrectness.advance_preserves_tokens&#45;&gt;L4YAML.Proofs.ScannerCorrectness.ScanHelpers.collectVersionMajorLoop_preserves_tokens</title>
<path fill="none" stroke="#28a745" d="M400.89,-392.25C471.77,-402.87 571.92,-404.14 629.15,-344 645.48,-326.84 630.36,-153 639.15,-131 647.21,-110.81 652.29,-104.82 671.15,-94 700.36,-77.25 733.54,-65.35 766.95,-56.94"/>
<polygon fill="#28a745" stroke="#28a745" points="767.86,-59.24 774.08,-55.2 766.7,-54.48 767.86,-59.24"/>
</g>
<!-- _private.L4YAML.Proofs.Scanner.ScannerCorrectness.0.L4YAML.Scanner.collectVersionMajorLoop.match_1.eq_2 -->
<g id="node13" class="node">
<title>_private.L4YAML.Proofs.Scanner.ScannerCorrectness.0.L4YAML.Scanner.collectVersionMajorLoop.match_1.eq_2</title>
<g id="a_node13"><a xlink:href="../../../api/L4YAML/Proofs/Scanner/ScannerCorrectness.html#_private.L4YAML.Proofs.Scanner.ScannerCorrectness.0.L4YAML.Scanner.collectVersionMajorLoop.match_1.eq_2" xlink:title="_private.L4YAML.Proofs.Scanner.ScannerCorrectness.0.L4YAML.Scanner.collectVersionMajorLoop.match_1.eq_2" target="_blank">
<ellipse fill="#fdebd0" stroke="#e67e22" cx="318.57" cy="-156" rx="302.65" ry="18"/>
<text text-anchor="middle" x="318.57" y="-153.5" font-family="Helvetica" font-size="10.00">_private.L4YAML.Proofs.Scanner.ScannerCorrectness.0.L4YAML.Scanner.collectVersionMajorLoop.match_1.eq_2</text>
</a>
</g>
</g>
<!-- _private.L4YAML.Proofs.Scanner.ScannerCorrectness.0.L4YAML.Scanner.collectVersionMajorLoop.match_1.eq_2&#45;&gt;L4YAML.Scanner.collectVersionMajorLoop.match_1 -->
<g id="edge16" class="edge">
<title>_private.L4YAML.Proofs.Scanner.ScannerCorrectness.0.L4YAML.Scanner.collectVersionMajorLoop.match_1.eq_2&#45;&gt;L4YAML.Scanner.collectVersionMajorLoop.match_1</title>
<path fill="none" stroke="#6f42c1" stroke-width="2" stroke-dasharray="5,2" d="M422.15,-172.96C484.67,-182.5 566.29,-193.57 639.15,-199 722.86,-205.24 818.72,-206.01 886.11,-205.51"/>
<polygon fill="#6f42c1" stroke="#6f42c1" stroke-width="2" points="886.34,-207.26 891.32,-205.47 886.31,-203.76 886.34,-207.26"/>
<text text-anchor="middle" x="650.15" y="-202.4" font-family="Times-Roman" font-size="7.00" fill="#6f42c1">about</text>
</g>
<!-- _private.L4YAML.Proofs.Scanner.ScannerCorrectness.0.L4YAML.Scanner.collectVersionMajorLoop.match_1.eq_2&#45;&gt;L4YAML.Proofs.ScannerCorrectness.ScanHelpers.collectVersionMajorLoop_preserves_tokens -->
<g id="edge8" class="edge">
<title>_private.L4YAML.Proofs.Scanner.ScannerCorrectness.0.L4YAML.Scanner.collectVersionMajorLoop.match_1.eq_2&#45;&gt;L4YAML.Proofs.ScannerCorrectness.ScanHelpers.collectVersionMajorLoop_preserves_tokens</title>
<path fill="none" stroke="#e67e22" stroke-width="2" d="M396.5,-173.45C466.61,-184.41 568.24,-187.09 629.15,-129 653.16,-106.09 614.72,-77.47 639.15,-55 703.94,4.6 809.21,-0.52 884.14,-14.56"/>
<polygon fill="#e67e22" stroke="#e67e22" stroke-width="2" points="883.96,-17.02 891.3,-15.94 884.89,-12.21 883.96,-17.02"/>
</g>
<!-- _private.L4YAML.Proofs.Scanner.ScannerCorrectness.0.L4YAML.Scanner.collectVersionMajorLoop.match_1.eq_1 -->
<g id="node14" class="node">
<title>_private.L4YAML.Proofs.Scanner.ScannerCorrectness.0.L4YAML.Scanner.collectVersionMajorLoop.match_1.eq_1</title>
<g id="a_node14"><a xlink:href="../../../api/L4YAML/Proofs/Scanner/ScannerCorrectness.html#_private.L4YAML.Proofs.Scanner.ScannerCorrectness.0.L4YAML.Scanner.collectVersionMajorLoop.match_1.eq_1" xlink:title="_private.L4YAML.Proofs.Scanner.ScannerCorrectness.0.L4YAML.Scanner.collectVersionMajorLoop.match_1.eq_1" target="_blank">
<ellipse fill="#fdebd0" stroke="#e67e22" cx="318.57" cy="-102" rx="302.65" ry="18"/>
<text text-anchor="middle" x="318.57" y="-99.5" font-family="Helvetica" font-size="10.00">_private.L4YAML.Proofs.Scanner.ScannerCorrectness.0.L4YAML.Scanner.collectVersionMajorLoop.match_1.eq_1</text>
</a>
</g>
</g>
<!-- _private.L4YAML.Proofs.Scanner.ScannerCorrectness.0.L4YAML.Scanner.collectVersionMajorLoop.match_1.eq_1&#45;&gt;L4YAML.Scanner.collectVersionMajorLoop.match_1 -->
<g id="edge17" class="edge">
<title>_private.L4YAML.Proofs.Scanner.ScannerCorrectness.0.L4YAML.Scanner.collectVersionMajorLoop.match_1.eq_1&#45;&gt;L4YAML.Scanner.collectVersionMajorLoop.match_1</title>
<path fill="none" stroke="#6f42c1" stroke-width="2" stroke-dasharray="5,2" d="M580.8,-111.1C597.52,-115.84 613.79,-121.73 629.15,-129 653.29,-140.43 647.11,-160.35 671.15,-172 738.29,-204.56 823.53,-210.87 886.24,-210.02"/>
<polygon fill="#6f42c1" stroke="#6f42c1" stroke-width="2" points="886.5,-211.76 891.47,-209.93 886.44,-208.27 886.5,-211.76"/>
<text text-anchor="middle" x="650.15" y="-167.4" font-family="Times-Roman" font-size="7.00" fill="#6f42c1">about</text>
</g>
<!-- _private.L4YAML.Proofs.Scanner.ScannerCorrectness.0.L4YAML.Scanner.collectVersionMajorLoop.match_1.eq_1&#45;&gt;L4YAML.Proofs.ScannerCorrectness.ScanHelpers.collectVersionMajorLoop_preserves_tokens -->
<g id="edge9" class="edge">
<title>_private.L4YAML.Proofs.Scanner.ScannerCorrectness.0.L4YAML.Scanner.collectVersionMajorLoop.match_1.eq_1&#45;&gt;L4YAML.Proofs.ScannerCorrectness.ScanHelpers.collectVersionMajorLoop_preserves_tokens</title>
<path fill="none" stroke="#e67e22" stroke-width="2" d="M379.56,-84.29C443.29,-66.48 547.3,-40.22 639.15,-30 657.19,-27.99 675.81,-26.6 694.6,-25.69"/>
<polygon fill="#e67e22" stroke="#e67e22" stroke-width="2" points="695.2,-28.12 702.09,-25.36 694.99,-23.22 695.2,-28.12"/>
</g>
</g>
</svg>
