<?xml version="1.0" encoding="UTF-8" standalone="no"?>
<!DOCTYPE svg PUBLIC "-//W3C//DTD SVG 1.1//EN"
 "http://www.w3.org/Graphics/SVG/1.1/DTD/svg11.dtd">
<!-- Generated by graphviz version 2.44.0 (0)
 -->
<!-- Title: chain_ScannerCorrectness.emitAt_preserves_simpleKeyStack Pages: 1 -->
<svg width="1028pt" height="201pt"
 viewBox="0.00 0.00 1028.00 200.92" xmlns="http://www.w3.org/2000/svg" xmlns:xlink="http://www.w3.org/1999/xlink">
<g id="graph0" class="graph" transform="scale(1 1) rotate(0) translate(4 196.92)">
<title>chain_ScannerCorrectness.emitAt_preserves_simpleKeyStack</title>
<polygon fill="white" stroke="transparent" points="-4,4 -4,-196.92 1024,-196.92 1024,4 -4,4"/>
<text text-anchor="middle" x="510" y="-178.52" font-family="Helvetica Bold" font-size="13.00">Structural theorem: ScannerCorrectness.emitAt_preserves_simpleKeyStack\nProof is a witness / injection — no fibration depth\n(heuristic: used by 9 proofs)</text>
<g id="clust1" class="cluster">
<title>cluster_direct</title>
<polygon fill="none" stroke="#4a90d9" stroke-dasharray="5,2" points="187,-8 187,-82 833,-82 833,-8 187,-8"/>
<text text-anchor="middle" x="510" y="-67.6" font-family="Helvetica Bold" font-size="13.00" fill="#4a90d9">About (no chain extends — proof is structural)</text>
</g>
<!-- L4YAML.Proofs.ScannerCorrectness.emitAt_preserves_simpleKeyStack -->
<g id="node1" class="node">
<title>L4YAML.Proofs.ScannerCorrectness.emitAt_preserves_simpleKeyStack</title>
<polygon fill="#fff3cd" stroke="#d4a017" points="702.53,-134.46 702.53,-153.46 585.65,-166.89 420.35,-166.89 303.47,-153.46 303.47,-134.46 420.35,-121.03 585.65,-121.03 702.53,-134.46"/>
<polygon fill="none" stroke="#d4a017" points="706.52,-130.9 706.52,-157.02 585.88,-170.88 420.12,-170.88 299.48,-157.02 299.48,-130.9 420.12,-117.04 585.88,-117.04 706.52,-130.9"/>
<text text-anchor="middle" x="503" y="-146.96" font-family="Helvetica" font-size="10.00">ScannerCorrectness.emitAt_preserves_simpleKeyStack</text>
<text text-anchor="middle" x="503" y="-135.96" font-family="Helvetica" font-size="10.00">(structural)</text>
</g>
<!-- L4YAML.Scanner.ScannerState.simpleKeyStack -->
<g id="node2" class="node">
<title>L4YAML.Scanner.ScannerState.simpleKeyStack</title>
<g id="a_node2"><a xlink:href="../../../api/L4YAML/Scanner/State.html#L4YAML.Scanner.ScannerState.simpleKeyStack" xlink:title="ScannerState.simpleKeyStack" target="_blank">
<polygon fill="#dce9f7" stroke="#4a90d9" points="344.5,-52 195.5,-52 195.5,-16 344.5,-16 344.5,-52"/>
<text text-anchor="middle" x="270" y="-31.5" font-family="Helvetica" font-size="10.00">ScannerState.simpleKeyStack</text>
</a>
</g>
</g>
<!-- L4YAML.Proofs.ScannerCorrectness.emitAt_preserves_simpleKeyStack&#45;&gt;L4YAML.Scanner.ScannerState.simpleKeyStack -->
<g id="edge1" class="edge">
<title>L4YAML.Proofs.ScannerCorrectness.emitAt_preserves_simpleKeyStack&#45;&gt;L4YAML.Scanner.ScannerState.simpleKeyStack</title>
<path fill="none" stroke="#4a90d9" stroke-width="2" d="M434.37,-116.91C408.83,-106.69 379.81,-94.44 354,-82 337.54,-74.06 319.81,-64.33 304.9,-55.78"/>
<polygon fill="#4a90d9" stroke="#4a90d9" stroke-width="2" points="305.98,-53.58 298.7,-52.2 303.53,-57.82 305.98,-53.58"/>
<text text-anchor="middle" x="403.5" y="-92.6" font-family="Times-Roman" font-size="8.00" fill="#4a90d9">about</text>
</g>
<!-- L4YAML.YamlPos -->
<g id="node3" class="node">
<title>L4YAML.YamlPos</title>
<g id="a_node3"><a xlink:href="../../../api/L4YAML/Spec/Types.html#L4YAML.YamlPos" xlink:title="YamlPos" target="_blank">
<polygon fill="#dce9f7" stroke="#4a90d9" points="419,-52 363,-52 363,-16 419,-16 419,-52"/>
<text text-anchor="middle" x="391" y="-31.5" font-family="Helvetica" font-size="10.00">YamlPos</text>
</a>
</g>
</g>
<!-- L4YAML.Proofs.ScannerCorrectness.emitAt_preserves_simpleKeyStack&#45;&gt;L4YAML.YamlPos -->
<g id="edge2" class="edge">
<title>L4YAML.Proofs.ScannerCorrectness.emitAt_preserves_simpleKeyStack&#45;&gt;L4YAML.YamlPos</title>
<path fill="none" stroke="#4a90d9" stroke-width="2" d="M467.65,-116.86C454.63,-106.59 440.13,-94.32 428,-82 420.8,-74.69 413.65,-66.02 407.58,-58.13"/>
<polygon fill="#4a90d9" stroke="#4a90d9" stroke-width="2" points="409.33,-56.39 403.16,-52.28 405.42,-59.34 409.33,-56.39"/>
<text text-anchor="middle" x="458.5" y="-92.6" font-family="Times-Roman" font-size="8.00" fill="#4a90d9">about</text>
</g>
<!-- L4YAML.YamlToken -->
<g id="node4" class="node">
<title>L4YAML.YamlToken</title>
<g id="a_node4"><a xlink:href="../../../api/L4YAML/Token/Token.html#L4YAML.YamlToken" xlink:title="YamlToken" target="_blank">
<polygon fill="#dce9f7" stroke="#4a90d9" points="501,-52 437,-52 437,-16 501,-16 501,-52"/>
<text text-anchor="middle" x="469" y="-31.5" font-family="Helvetica" font-size="10.00">YamlToken</text>
</a>
</g>
</g>
<!-- L4YAML.Proofs.ScannerCorrectness.emitAt_preserves_simpleKeyStack&#45;&gt;L4YAML.YamlToken -->
<g id="edge3" class="edge">
<title>L4YAML.Proofs.ScannerCorrectness.emitAt_preserves_simpleKeyStack&#45;&gt;L4YAML.YamlToken</title>
<path fill="none" stroke="#4a90d9" stroke-width="2" d="M494.77,-116.83C489.23,-99.24 481.99,-76.23 476.59,-59.09"/>
<polygon fill="#4a90d9" stroke="#4a90d9" stroke-width="2" points="478.84,-58.08 474.4,-52.14 474.16,-59.55 478.84,-58.08"/>
<text text-anchor="middle" x="502.5" y="-92.6" font-family="Times-Roman" font-size="8.00" fill="#4a90d9">about</text>
</g>
<!-- L4YAML.Scanner.ScannerState -->
<g id="node5" class="node">
<title>L4YAML.Scanner.ScannerState</title>
<g id="a_node5"><a xlink:href="../../../api/L4YAML/Scanner/State.html#L4YAML.Scanner.ScannerState" xlink:title="ScannerState" target="_blank">
<polygon fill="#dce9f7" stroke="#4a90d9" points="595,-52 519,-52 519,-16 595,-16 595,-52"/>
<text text-anchor="middle" x="557" y="-31.5" font-family="Helvetica" font-size="10.00">ScannerState</text>
</a>
</g>
</g>
<!-- L4YAML.Proofs.ScannerCorrectness.emitAt_preserves_simpleKeyStack&#45;&gt;L4YAML.Scanner.ScannerState -->
<g id="edge4" class="edge">
<title>L4YAML.Proofs.ScannerCorrectness.emitAt_preserves_simpleKeyStack&#45;&gt;L4YAML.Scanner.ScannerState</title>
<path fill="none" stroke="#4a90d9" stroke-width="2" d="M516.07,-116.83C524.94,-99.09 536.58,-75.82 545.18,-58.64"/>
<polygon fill="#4a90d9" stroke="#4a90d9" stroke-width="2" points="547.49,-59.5 548.43,-52.14 543.1,-57.3 547.49,-59.5"/>
<text text-anchor="middle" x="540.5" y="-92.6" font-family="Times-Roman" font-size="8.00" fill="#4a90d9">about</text>
</g>
<!-- L4YAML.Scanner.SimpleKeyState -->
<g id="node6" class="node">
<title>L4YAML.Scanner.SimpleKeyState</title>
<g id="a_node6"><a xlink:href="../../../api/L4YAML/Scanner/State.html#L4YAML.Scanner.SimpleKeyState" xlink:title="SimpleKeyState" target="_blank">
<polygon fill="#dce9f7" stroke="#4a90d9" points="699,-52 613,-52 613,-16 699,-16 699,-52"/>
<text text-anchor="middle" x="656" y="-31.5" font-family="Helvetica" font-size="10.00">SimpleKeyState</text>
</a>
</g>
</g>
<!-- L4YAML.Proofs.ScannerCorrectness.emitAt_preserves_simpleKeyStack&#45;&gt;L4YAML.Scanner.SimpleKeyState -->
<g id="edge5" class="edge">
<title>L4YAML.Proofs.ScannerCorrectness.emitAt_preserves_simpleKeyStack&#45;&gt;L4YAML.Scanner.SimpleKeyState</title>
<path fill="none" stroke="#4a90d9" stroke-width="2" d="M550.22,-117C567.6,-106.79 587.15,-94.52 604,-82 614.03,-74.55 624.38,-65.51 633.18,-57.36"/>
<polygon fill="#4a90d9" stroke="#4a90d9" stroke-width="2" points="635.01,-59 638.44,-52.42 631.66,-55.43 635.01,-59"/>
<text text-anchor="middle" x="602.5" y="-92.6" font-family="Times-Roman" font-size="8.00" fill="#4a90d9">about</text>
</g>
<!-- L4YAML.Scanner.ScannerState.emitAt -->
<g id="node7" class="node">
<title>L4YAML.Scanner.ScannerState.emitAt</title>
<g id="a_node7"><a xlink:href="../../../api/L4YAML/Scanner/State.html#L4YAML.Scanner.ScannerState.emitAt" xlink:title="ScannerState.emitAt" target="_blank">
<polygon fill="#dce9f7" stroke="#4a90d9" points="824.5,-52 717.5,-52 717.5,-16 824.5,-16 824.5,-52"/>
<text text-anchor="middle" x="771" y="-31.5" font-family="Helvetica" font-size="10.00">ScannerState.emitAt</text>
</a>
</g>
</g>
<!-- L4YAML.Proofs.ScannerCorrectness.emitAt_preserves_simpleKeyStack&#45;&gt;L4YAML.Scanner.ScannerState.emitAt -->
<g id="edge6" class="edge">
<title>L4YAML.Proofs.ScannerCorrectness.emitAt_preserves_simpleKeyStack&#45;&gt;L4YAML.Scanner.ScannerState.emitAt</title>
<path fill="none" stroke="#4a90d9" stroke-width="2" d="M607.64,-119.5C640.69,-110.09 676.72,-97.69 708,-82 721.5,-75.23 735.11,-65.52 746.2,-56.69"/>
<polygon fill="#4a90d9" stroke="#4a90d9" stroke-width="2" points="747.88,-58.49 751.76,-52.17 744.78,-54.68 747.88,-58.49"/>
<text text-anchor="middle" x="699.5" y="-92.6" font-family="Times-Roman" font-size="8.00" fill="#4a90d9">about</text>
</g>
</g>
</svg>
