<?xml version="1.0" encoding="UTF-8" standalone="no"?>
<!DOCTYPE svg PUBLIC "-//W3C//DTD SVG 1.1//EN"
 "http://www.w3.org/Graphics/SVG/1.1/DTD/svg11.dtd">
<!-- Generated by graphviz version 2.44.0 (0)
 -->
<!-- Title: chain_ScannerCorrectness.emitAt_tokens_size Pages: 1 -->
<svg width="940pt" height="201pt"
 viewBox="0.00 0.00 940.00 200.92" xmlns="http://www.w3.org/2000/svg" xmlns:xlink="http://www.w3.org/1999/xlink">
<g id="graph0" class="graph" transform="scale(1 1) rotate(0) translate(4 196.92)">
<title>chain_ScannerCorrectness.emitAt_tokens_size</title>
<polygon fill="white" stroke="transparent" points="-4,4 -4,-196.92 936,-196.92 936,4 -4,4"/>
<text text-anchor="middle" x="466" y="-178.52" font-family="Helvetica Bold" font-size="13.00">Structural theorem: ScannerCorrectness.emitAt_tokens_size\nProof is a witness / injection — no fibration depth\n(heuristic: used by 14 proofs)</text>
<g id="clust1" class="cluster">
<title>cluster_direct</title>
<polygon fill="none" stroke="#4a90d9" stroke-dasharray="5,2" points="176,-8 176,-82 756,-82 756,-8 176,-8"/>
<text text-anchor="middle" x="466" y="-67.6" font-family="Helvetica Bold" font-size="13.00" fill="#4a90d9">About (no chain extends — proof is structural)</text>
</g>
<!-- L4YAML.Proofs.ScannerCorrectness.emitAt_tokens_size -->
<g id="node1" class="node">
<title>L4YAML.Proofs.ScannerCorrectness.emitAt_tokens_size</title>
<polygon fill="#fff3cd" stroke="#d4a017" points="597.46,-134.46 597.46,-153.46 510.5,-166.89 387.5,-166.89 300.54,-153.46 300.54,-134.46 387.5,-121.03 510.5,-121.03 597.46,-134.46"/>
<polygon fill="none" stroke="#d4a017" points="601.46,-131.04 601.46,-156.88 510.8,-170.88 387.2,-170.88 296.54,-156.88 296.54,-131.04 387.2,-117.04 510.8,-117.04 601.46,-131.04"/>
<text text-anchor="middle" x="449" y="-146.96" font-family="Helvetica" font-size="10.00">ScannerCorrectness.emitAt_tokens_size</text>
<text text-anchor="middle" x="449" y="-135.96" font-family="Helvetica" font-size="10.00">(structural)</text>
</g>
<!-- L4YAML.Scanner.ScannerState.tokens -->
<g id="node2" class="node">
<title>L4YAML.Scanner.ScannerState.tokens</title>
<g id="a_node2"><a xlink:href="../../../api/L4YAML/Scanner/State.html#L4YAML.Scanner.ScannerState.tokens" xlink:title="ScannerState.tokens" target="_blank">
<polygon fill="#dce9f7" stroke="#4a90d9" points="291.5,-52 184.5,-52 184.5,-16 291.5,-16 291.5,-52"/>
<text text-anchor="middle" x="238" y="-31.5" font-family="Helvetica" font-size="10.00">ScannerState.tokens</text>
</a>
</g>
</g>
<!-- L4YAML.Proofs.ScannerCorrectness.emitAt_tokens_size&#45;&gt;L4YAML.Scanner.ScannerState.tokens -->
<g id="edge1" class="edge">
<title>L4YAML.Proofs.ScannerCorrectness.emitAt_tokens_size&#45;&gt;L4YAML.Scanner.ScannerState.tokens</title>
<path fill="none" stroke="#4a90d9" stroke-width="2" d="M378.78,-118.2C353.6,-108.25 325.41,-95.84 301,-82 288.06,-74.66 274.72,-65.05 263.66,-56.44"/>
<polygon fill="#4a90d9" stroke="#4a90d9" stroke-width="2" points="265.11,-54.46 258.1,-52.04 262.07,-58.3 265.11,-54.46"/>
<text text-anchor="middle" x="345.5" y="-92.6" font-family="Times-Roman" font-size="8.00" fill="#4a90d9">about</text>
</g>
<!-- L4YAML.Positioned -->
<g id="node3" class="node">
<title>L4YAML.Positioned</title>
<g id="a_node3"><a xlink:href="../../../api/L4YAML/Token/Token.html#L4YAML.Positioned" xlink:title="Positioned" target="_blank">
<polygon fill="#dce9f7" stroke="#4a90d9" points="372,-52 310,-52 310,-16 372,-16 372,-52"/>
<text text-anchor="middle" x="341" y="-31.5" font-family="Helvetica" font-size="10.00">Positioned</text>
</a>
</g>
</g>
<!-- L4YAML.Proofs.ScannerCorrectness.emitAt_tokens_size&#45;&gt;L4YAML.Positioned -->
<g id="edge2" class="edge">
<title>L4YAML.Proofs.ScannerCorrectness.emitAt_tokens_size&#45;&gt;L4YAML.Positioned</title>
<path fill="none" stroke="#4a90d9" stroke-width="2" d="M418.06,-116.8C406.15,-106.32 392.62,-93.92 381,-82 373.61,-74.42 365.97,-65.69 359.36,-57.82"/>
<polygon fill="#4a90d9" stroke="#4a90d9" stroke-width="2" points="360.9,-55.83 354.54,-52.01 357.13,-58.96 360.9,-55.83"/>
<text text-anchor="middle" x="410.5" y="-92.6" font-family="Times-Roman" font-size="8.00" fill="#4a90d9">about</text>
</g>
<!-- L4YAML.YamlPos -->
<g id="node4" class="node">
<title>L4YAML.YamlPos</title>
<g id="a_node4"><a xlink:href="../../../api/L4YAML/Spec/Types.html#L4YAML.YamlPos" xlink:title="YamlPos" target="_blank">
<polygon fill="#dce9f7" stroke="#4a90d9" points="446,-52 390,-52 390,-16 446,-16 446,-52"/>
<text text-anchor="middle" x="418" y="-31.5" font-family="Helvetica" font-size="10.00">YamlPos</text>
</a>
</g>
</g>
<!-- L4YAML.Proofs.ScannerCorrectness.emitAt_tokens_size&#45;&gt;L4YAML.YamlPos -->
<g id="edge3" class="edge">
<title>L4YAML.Proofs.ScannerCorrectness.emitAt_tokens_size&#45;&gt;L4YAML.YamlPos</title>
<path fill="none" stroke="#4a90d9" stroke-width="2" d="M441.5,-116.83C436.45,-99.24 429.84,-76.23 424.92,-59.09"/>
<polygon fill="#4a90d9" stroke="#4a90d9" stroke-width="2" points="427.21,-58.19 422.92,-52.14 422.5,-59.54 427.21,-58.19"/>
<text text-anchor="middle" x="449.5" y="-92.6" font-family="Times-Roman" font-size="8.00" fill="#4a90d9">about</text>
</g>
<!-- L4YAML.YamlToken -->
<g id="node5" class="node">
<title>L4YAML.YamlToken</title>
<g id="a_node5"><a xlink:href="../../../api/L4YAML/Token/Token.html#L4YAML.YamlToken" xlink:title="YamlToken" target="_blank">
<polygon fill="#dce9f7" stroke="#4a90d9" points="528,-52 464,-52 464,-16 528,-16 528,-52"/>
<text text-anchor="middle" x="496" y="-31.5" font-family="Helvetica" font-size="10.00">YamlToken</text>
</a>
</g>
</g>
<!-- L4YAML.Proofs.ScannerCorrectness.emitAt_tokens_size&#45;&gt;L4YAML.YamlToken -->
<g id="edge4" class="edge">
<title>L4YAML.Proofs.ScannerCorrectness.emitAt_tokens_size&#45;&gt;L4YAML.YamlToken</title>
<path fill="none" stroke="#4a90d9" stroke-width="2" d="M460.38,-116.83C468.1,-99.09 478.23,-75.82 485.71,-58.64"/>
<polygon fill="#4a90d9" stroke="#4a90d9" stroke-width="2" points="487.99,-59.54 488.54,-52.14 483.5,-57.58 487.99,-59.54"/>
<text text-anchor="middle" x="484.5" y="-92.6" font-family="Times-Roman" font-size="8.00" fill="#4a90d9">about</text>
</g>
<!-- L4YAML.Scanner.ScannerState -->
<g id="node6" class="node">
<title>L4YAML.Scanner.ScannerState</title>
<g id="a_node6"><a xlink:href="../../../api/L4YAML/Scanner/State.html#L4YAML.Scanner.ScannerState" xlink:title="ScannerState" target="_blank">
<polygon fill="#dce9f7" stroke="#4a90d9" points="622,-52 546,-52 546,-16 622,-16 622,-52"/>
<text text-anchor="middle" x="584" y="-31.5" font-family="Helvetica" font-size="10.00">ScannerState</text>
</a>
</g>
</g>
<!-- L4YAML.Proofs.ScannerCorrectness.emitAt_tokens_size&#45;&gt;L4YAML.Scanner.ScannerState -->
<g id="edge5" class="edge">
<title>L4YAML.Proofs.ScannerCorrectness.emitAt_tokens_size&#45;&gt;L4YAML.Scanner.ScannerState</title>
<path fill="none" stroke="#4a90d9" stroke-width="2" d="M489.98,-116.81C505.19,-106.53 522.3,-94.27 537,-82 545.92,-74.55 555.1,-65.68 562.96,-57.67"/>
<polygon fill="#4a90d9" stroke="#4a90d9" stroke-width="2" points="565.06,-59.02 568.16,-52.29 561.53,-55.62 565.06,-59.02"/>
<text text-anchor="middle" x="537.5" y="-92.6" font-family="Times-Roman" font-size="8.00" fill="#4a90d9">about</text>
</g>
<!-- L4YAML.Scanner.ScannerState.emitAt -->
<g id="node7" class="node">
<title>L4YAML.Scanner.ScannerState.emitAt</title>
<g id="a_node7"><a xlink:href="../../../api/L4YAML/Scanner/State.html#L4YAML.Scanner.ScannerState.emitAt" xlink:title="ScannerState.emitAt" target="_blank">
<polygon fill="#dce9f7" stroke="#4a90d9" points="747.5,-52 640.5,-52 640.5,-16 747.5,-16 747.5,-52"/>
<text text-anchor="middle" x="694" y="-31.5" font-family="Helvetica" font-size="10.00">ScannerState.emitAt</text>
</a>
</g>
</g>
<!-- L4YAML.Proofs.ScannerCorrectness.emitAt_tokens_size&#45;&gt;L4YAML.Scanner.ScannerState.emitAt -->
<g id="edge6" class="edge">
<title>L4YAML.Proofs.ScannerCorrectness.emitAt_tokens_size&#45;&gt;L4YAML.Scanner.ScannerState.emitAt</title>
<path fill="none" stroke="#4a90d9" stroke-width="2" d="M534.19,-120.57C565.53,-110.76 600.74,-97.84 631,-82 644.28,-75.05 657.77,-65.41 668.83,-56.67"/>
<polygon fill="#4a90d9" stroke="#4a90d9" stroke-width="2" points="670.47,-58.5 674.38,-52.2 667.4,-54.68 670.47,-58.5"/>
<text text-anchor="middle" x="624.5" y="-92.6" font-family="Times-Roman" font-size="8.00" fill="#4a90d9">about</text>
</g>
</g>
</svg>
