<?xml version="1.0" encoding="UTF-8" standalone="no"?>
<!DOCTYPE svg PUBLIC "-//W3C//DTD SVG 1.1//EN"
 "http://www.w3.org/Graphics/SVG/1.1/DTD/svg11.dtd">
<!-- Generated by graphviz version 2.44.0 (0)
 -->
<!-- Title: ScannerCorrectness.ScanHelpers.emitAt_chain_preserves_prefix Pages: 1 -->
<svg width="1241pt" height="926pt"
 viewBox="0.00 0.00 1241.29 926.00" xmlns="http://www.w3.org/2000/svg" xmlns:xlink="http://www.w3.org/1999/xlink">
<g id="graph0" class="graph" transform="scale(1 1) rotate(0) translate(4 922)">
<title>ScannerCorrectness.ScanHelpers.emitAt_chain_preserves_prefix</title>
<polygon fill="white" stroke="transparent" points="-4,4 -4,-922 1237.29,-922 1237.29,4 -4,4"/>
<text text-anchor="middle" x="616.64" y="-903.6" font-family="Helvetica Bold" font-size="13.00">ScannerCorrectness.ScanHelpers.emitAt_chain_preserves_prefix</text>
<text text-anchor="middle" x="616.64" y="-889.6" font-family="Helvetica Bold" font-size="13.00">(heuristic: used by 10 proofs)</text>
<text text-anchor="middle" x="616.64" y="-875.6" font-family="Helvetica Bold" font-size="13.00">(L4YAML.Proofs.Scanner.ScannerCorrectness)</text>
<g id="clust1" class="cluster">
<title>cluster_functions</title>
<polygon fill="none" stroke="#4a90d9" stroke-dasharray="5,2" points="1102.29,-216 1102.29,-560 1225.29,-560 1225.29,-216 1102.29,-216"/>
<text text-anchor="middle" x="1163.79" y="-545.6" font-family="Helvetica Bold" font-size="13.00" fill="#4a90d9">Functions</text>
</g>
<g id="clust2" class="cluster">
<title>cluster_key</title>
<polygon fill="none" stroke="#d4a017" stroke-dasharray="5,2" points="544.22,-134 544.22,-216 1057.29,-216 1057.29,-134 544.22,-134"/>
<text text-anchor="middle" x="800.75" y="-201.6" font-family="Helvetica Bold" font-size="13.00" fill="#d4a017">Key Theorem</text>
</g>
<g id="clust3" class="cluster">
<title>cluster_proofs</title>
<polygon fill="none" stroke="#28a745" stroke-dasharray="5,2" points="8,-439 8,-639 523.22,-639 523.22,-439 8,-439"/>
<text text-anchor="middle" x="265.61" y="-624.6" font-family="Helvetica Bold" font-size="13.00" fill="#28a745">Proof Dependencies</text>
</g>
<g id="clust4" class="cluster">
<title>cluster_stdlib</title>
<polygon fill="none" stroke="#e67e22" stroke-dasharray="5,2" points="171.08,-8 171.08,-298 360.14,-298 360.14,-8 171.08,-8"/>
<text text-anchor="middle" x="265.61" y="-283.6" font-family="Helvetica Bold" font-size="13.00" fill="#e67e22">Stdlib Lemmas</text>
</g>
<!-- L4YAML.Positioned -->
<g id="node1" class="node">
<title>L4YAML.Positioned</title>
<g id="a_node1"><a xlink:href="../../../api/L4YAML/Token/Token.html#L4YAML.Positioned" xlink:title="Positioned\n(inductive)" target="_blank">
<polygon fill="#dce9f7" stroke="#4a90d9" points="1194.79,-476 1132.79,-476 1132.79,-440 1194.79,-440 1194.79,-476"/>
<text text-anchor="middle" x="1163.79" y="-461" font-family="Helvetica" font-size="10.00">Positioned</text>
<text text-anchor="middle" x="1163.79" y="-450" font-family="Helvetica" font-size="10.00">(inductive)</text>
</a>
</g>
</g>
<!-- L4YAML.Scanner.ScannerState -->
<g id="node2" class="node">
<title>L4YAML.Scanner.ScannerState</title>
<g id="a_node2"><a xlink:href="../../../api/L4YAML/Scanner/State.html#L4YAML.Scanner.ScannerState" xlink:title="ScannerState\n(inductive)" target="_blank">
<polygon fill="#dce9f7" stroke="#4a90d9" points="1201.79,-422 1125.79,-422 1125.79,-386 1201.79,-386 1201.79,-422"/>
<text text-anchor="middle" x="1163.79" y="-407" font-family="Helvetica" font-size="10.00">ScannerState</text>
<text text-anchor="middle" x="1163.79" y="-396" font-family="Helvetica" font-size="10.00">(inductive)</text>
</a>
</g>
</g>
<!-- L4YAML.YamlToken -->
<g id="node3" class="node">
<title>L4YAML.YamlToken</title>
<g id="a_node3"><a xlink:href="../../../api/L4YAML/Token/Token.html#L4YAML.YamlToken" xlink:title="YamlToken\n(inductive)" target="_blank">
<polygon fill="#dce9f7" stroke="#4a90d9" points="1195.79,-530 1131.79,-530 1131.79,-494 1195.79,-494 1195.79,-530"/>
<text text-anchor="middle" x="1163.79" y="-515" font-family="Helvetica" font-size="10.00">YamlToken</text>
<text text-anchor="middle" x="1163.79" y="-504" font-family="Helvetica" font-size="10.00">(inductive)</text>
</a>
</g>
</g>
<!-- L4YAML.YamlPos -->
<g id="node4" class="node">
<title>L4YAML.YamlPos</title>
<g id="a_node4"><a xlink:href="../../../api/L4YAML/Spec/Types.html#L4YAML.YamlPos" xlink:title="YamlPos\n(inductive)" target="_blank">
<polygon fill="#dce9f7" stroke="#4a90d9" points="1194.79,-314 1132.79,-314 1132.79,-278 1194.79,-278 1194.79,-314"/>
<text text-anchor="middle" x="1163.79" y="-299" font-family="Helvetica" font-size="10.00">YamlPos</text>
<text text-anchor="middle" x="1163.79" y="-288" font-family="Helvetica" font-size="10.00">(inductive)</text>
</a>
</g>
</g>
<!-- L4YAML.Scanner.ScannerState.emitAt -->
<g id="node5" class="node">
<title>L4YAML.Scanner.ScannerState.emitAt</title>
<g id="a_node5"><a xlink:href="../../../api/L4YAML/Scanner/State.html#L4YAML.Scanner.ScannerState.emitAt" xlink:title="ScannerState.emitAt\n(def)" target="_blank">
<polygon fill="#dce9f7" stroke="#4a90d9" points="1217.29,-260 1110.29,-260 1110.29,-224 1217.29,-224 1217.29,-260"/>
<text text-anchor="middle" x="1163.79" y="-245" font-family="Helvetica" font-size="10.00">ScannerState.emitAt</text>
<text text-anchor="middle" x="1163.79" y="-234" font-family="Helvetica" font-size="10.00">(def)</text>
</a>
</g>
</g>
<!-- L4YAML.Scanner.ScannerState.tokens -->
<g id="node6" class="node">
<title>L4YAML.Scanner.ScannerState.tokens</title>
<g id="a_node6"><a xlink:href="../../../api/L4YAML/Scanner/State.html#L4YAML.Scanner.ScannerState.tokens" xlink:title="ScannerState.tokens\n(def)" target="_blank">
<polygon fill="#dce9f7" stroke="#4a90d9" points="1217.29,-368 1110.29,-368 1110.29,-332 1217.29,-332 1217.29,-368"/>
<text text-anchor="middle" x="1163.79" y="-353" font-family="Helvetica" font-size="10.00">ScannerState.tokens</text>
<text text-anchor="middle" x="1163.79" y="-342" font-family="Helvetica" font-size="10.00">(def)</text>
</a>
</g>
</g>
<!-- L4YAML.Proofs.ScannerCorrectness.ScanHelpers.emitAt_chain_preserves_prefix -->
<g id="node7" class="node">
<title>L4YAML.Proofs.ScannerCorrectness.ScanHelpers.emitAt_chain_preserves_prefix</title>
<g id="a_node7"><a xlink:href="../../../api/L4YAML/Proofs/Scanner/ScannerCorrectness.html#L4YAML.Proofs.ScannerCorrectness.ScanHelpers.emitAt_chain_preserves_prefix" xlink:title="ScannerCorrectness.ScanHelpers.emitAt_chain_preserves_prefix" target="_blank">
<polygon fill="#fff3cd" stroke="#d4a017" points="1045.32,-156.54 1045.32,-171.46 902.06,-182 699.45,-182 556.18,-171.46 556.18,-156.54 699.45,-146 902.06,-146 1045.32,-156.54"/>
<polygon fill="none" stroke="#d4a017" points="1049.32,-152.83 1049.32,-175.17 902.2,-186 699.3,-186 552.18,-175.17 552.18,-152.83 699.3,-142 902.2,-142 1049.32,-152.83"/>
<text text-anchor="middle" x="800.75" y="-160.9" font-family="Helvetica" font-size="12.00">ScannerCorrectness.ScanHelpers.emitAt_chain_preserves_prefix</text>
</a>
</g>
</g>
<!-- L4YAML.Proofs.ScannerCorrectness.ScanHelpers.emitAt_chain_preserves_prefix&#45;&gt;L4YAML.Positioned -->
<g id="edge2" class="edge">
<title>L4YAML.Proofs.ScannerCorrectness.ScanHelpers.emitAt_chain_preserves_prefix&#45;&gt;L4YAML.Positioned</title>
<path fill="none" stroke="#4a90d9" stroke-width="2" d="M991.51,-179.51C1016.04,-188.57 1038.95,-201.56 1057.29,-220 1065.74,-228.5 1094.74,-421.68 1102.29,-431 1108.46,-438.63 1117.24,-444.17 1126.19,-448.17"/>
<polygon fill="#4a90d9" stroke="#4a90d9" stroke-width="2" points="1125.31,-450.45 1132.72,-450.81 1127.15,-445.91 1125.31,-450.45"/>
<text text-anchor="middle" x="1079.79" y="-390.6" font-family="Times-Roman" font-size="8.00" fill="#4a90d9">about</text>
</g>
<!-- L4YAML.Proofs.ScannerCorrectness.ScanHelpers.emitAt_chain_preserves_prefix&#45;&gt;L4YAML.Scanner.ScannerState -->
<g id="edge5" class="edge">
<title>L4YAML.Proofs.ScannerCorrectness.ScanHelpers.emitAt_chain_preserves_prefix&#45;&gt;L4YAML.Scanner.ScannerState</title>
<path fill="none" stroke="#4a90d9" stroke-width="2" d="M1049.54,-166.11C1065.39,-173.79 1079.92,-183.9 1092.29,-197 1106.04,-211.57 1090.92,-360.5 1102.29,-377 1106.5,-383.11 1112.42,-387.85 1118.94,-391.53"/>
<polygon fill="#4a90d9" stroke="#4a90d9" stroke-width="2" points="1118.25,-393.93 1125.61,-394.87 1120.44,-389.55 1118.25,-393.93"/>
<text text-anchor="middle" x="1079.79" y="-199.6" font-family="Times-Roman" font-size="8.00" fill="#4a90d9">about</text>
</g>
<!-- L4YAML.Proofs.ScannerCorrectness.ScanHelpers.emitAt_chain_preserves_prefix&#45;&gt;L4YAML.YamlToken -->
<g id="edge4" class="edge">
<title>L4YAML.Proofs.ScannerCorrectness.ScanHelpers.emitAt_chain_preserves_prefix&#45;&gt;L4YAML.YamlToken</title>
<path fill="none" stroke="#4a90d9" stroke-width="2" d="M998.91,-178.95C1021.21,-188.28 1041.54,-201.5 1057.29,-220 1070.34,-235.34 1062.79,-381.37 1067.29,-401 1076.31,-440.43 1074.05,-456.05 1102.29,-485 1108.56,-491.43 1116.64,-496.45 1124.84,-500.33"/>
<polygon fill="#4a90d9" stroke="#4a90d9" stroke-width="2" points="1124.32,-502.77 1131.72,-503.31 1126.27,-498.28 1124.32,-502.77"/>
<text text-anchor="middle" x="1079.79" y="-475.6" font-family="Times-Roman" font-size="8.00" fill="#4a90d9">about</text>
</g>
<!-- L4YAML.Proofs.ScannerCorrectness.ScanHelpers.emitAt_chain_preserves_prefix&#45;&gt;L4YAML.YamlPos -->
<g id="edge3" class="edge">
<title>L4YAML.Proofs.ScannerCorrectness.ScanHelpers.emitAt_chain_preserves_prefix&#45;&gt;L4YAML.YamlPos</title>
<path fill="none" stroke="#4a90d9" stroke-width="2" d="M843.59,-141.97C906.34,-112.34 1024.65,-70.16 1092.29,-133 1114.49,-153.63 1084.87,-244.2 1102.29,-269 1108.03,-277.18 1116.85,-282.92 1125.99,-286.93"/>
<polygon fill="#4a90d9" stroke="#4a90d9" stroke-width="2" points="1125.25,-289.27 1132.66,-289.55 1127.05,-284.71 1125.25,-289.27"/>
<text text-anchor="middle" x="1079.79" y="-135.6" font-family="Times-Roman" font-size="8.00" fill="#4a90d9">about</text>
</g>
<!-- L4YAML.Proofs.ScannerCorrectness.ScanHelpers.emitAt_chain_preserves_prefix&#45;&gt;L4YAML.Scanner.ScannerState.emitAt -->
<g id="edge6" class="edge">
<title>L4YAML.Proofs.ScannerCorrectness.ScanHelpers.emitAt_chain_preserves_prefix&#45;&gt;L4YAML.Scanner.ScannerState.emitAt</title>
<path fill="none" stroke="#4a90d9" stroke-width="2" d="M835.34,-141.95C892.38,-107.57 1009.97,-50.12 1092.29,-101 1133.19,-126.28 1151.16,-183.28 1158.4,-216.55"/>
<polygon fill="#4a90d9" stroke="#4a90d9" stroke-width="2" points="1156.06,-217.31 1159.87,-223.67 1160.86,-216.32 1156.06,-217.31"/>
<text text-anchor="middle" x="1079.79" y="-103.6" font-family="Times-Roman" font-size="8.00" fill="#4a90d9">about</text>
</g>
<!-- L4YAML.Proofs.ScannerCorrectness.ScanHelpers.emitAt_chain_preserves_prefix&#45;&gt;L4YAML.Scanner.ScannerState.tokens -->
<g id="edge1" class="edge">
<title>L4YAML.Proofs.ScannerCorrectness.ScanHelpers.emitAt_chain_preserves_prefix&#45;&gt;L4YAML.Scanner.ScannerState.tokens</title>
<path fill="none" stroke="#4a90d9" stroke-width="2" d="M865.23,-141.98C931.02,-123.64 1032.44,-108.63 1092.29,-165 1117.9,-189.12 1082.22,-294.11 1102.29,-323 1103.25,-324.38 1104.29,-325.69 1105.42,-326.94"/>
<polygon fill="#4a90d9" stroke="#4a90d9" stroke-width="2" points="1104,-328.97 1110.77,-331.99 1107.36,-325.4 1104,-328.97"/>
<text text-anchor="middle" x="1079.79" y="-167.6" font-family="Times-Roman" font-size="8.00" fill="#4a90d9">about</text>
</g>
<!-- L4YAML.Proofs.ScannerCorrectness.ScanHelpers.emitAt_chain_preserves_prefix._proof_1_1 -->
<g id="node8" class="node">
<title>L4YAML.Proofs.ScannerCorrectness.ScanHelpers.emitAt_chain_preserves_prefix._proof_1_1</title>
<g id="a_node8"><a xlink:href="../../../api/L4YAML/Proofs/Scanner/ScannerCorrectness.html#L4YAML.Proofs.ScannerCorrectness.ScanHelpers.emitAt_chain_preserves_prefix._proof_1_1" xlink:title="ScannerCorrectness.ScanHelpers.emitAt_chain_preserves_prefix._proof_1_1\n(Scanner.ScannerCorrectness)" target="_blank">
<ellipse fill="#d4edda" stroke="#28a745" cx="265.61" cy="-528" rx="249.72" ry="21.43"/>
<text text-anchor="middle" x="265.61" y="-531" font-family="Helvetica" font-size="10.00">ScannerCorrectness.ScanHelpers.emitAt_chain_preserves_prefix._proof_1_1</text>
<text text-anchor="middle" x="265.61" y="-520" font-family="Helvetica" font-size="10.00">(Scanner.ScannerCorrectness)</text>
</a>
</g>
</g>
<!-- L4YAML.Proofs.ScannerCorrectness.ScanHelpers.emitAt_chain_preserves_prefix._proof_1_1&#45;&gt;L4YAML.Positioned -->
<g id="edge16" class="edge">
<title>L4YAML.Proofs.ScannerCorrectness.ScanHelpers.emitAt_chain_preserves_prefix._proof_1_1&#45;&gt;L4YAML.Positioned</title>
<path fill="none" stroke="#6f42c1" stroke-width="2" stroke-dasharray="5,2" d="M459.18,-541.48C481.08,-545.66 502.84,-551.06 523.22,-558 528.12,-559.67 528.22,-562.62 533.22,-564 593.08,-580.58 1046.17,-602.62 1092.29,-561 1117.58,-538.17 1081.92,-512.31 1102.29,-485 1108.61,-476.52 1118.2,-470.65 1127.89,-466.61"/>
<polygon fill="#6f42c1" stroke="#6f42c1" stroke-width="2" points="1128.61,-468.21 1132.64,-464.77 1127.34,-464.94 1128.61,-468.21"/>
<text text-anchor="middle" x="800.75" y="-586.4" font-family="Times-Roman" font-size="7.00" fill="#6f42c1">about</text>
</g>
<!-- L4YAML.Proofs.ScannerCorrectness.ScanHelpers.emitAt_chain_preserves_prefix._proof_1_1&#45;&gt;L4YAML.Scanner.ScannerState -->
<g id="edge18" class="edge">
<title>L4YAML.Proofs.ScannerCorrectness.ScanHelpers.emitAt_chain_preserves_prefix._proof_1_1&#45;&gt;L4YAML.Scanner.ScannerState</title>
<path fill="none" stroke="#6f42c1" stroke-width="2" stroke-dasharray="5,2" d="M472.3,-539.92C701.89,-551.07 1047.33,-560.58 1092.29,-520 1107.06,-506.66 1090.54,-447.06 1102.29,-431 1107.07,-424.46 1113.79,-419.48 1121.03,-415.69"/>
<polygon fill="#6f42c1" stroke="#6f42c1" stroke-width="2" points="1121.85,-417.24 1125.59,-413.48 1120.33,-414.09 1121.85,-417.24"/>
<text text-anchor="middle" x="800.75" y="-551.4" font-family="Times-Roman" font-size="7.00" fill="#6f42c1">about</text>
</g>
<!-- L4YAML.Proofs.ScannerCorrectness.ScanHelpers.emitAt_chain_preserves_prefix._proof_1_1&#45;&gt;L4YAML.YamlToken -->
<g id="edge17" class="edge">
<title>L4YAML.Proofs.ScannerCorrectness.ScanHelpers.emitAt_chain_preserves_prefix._proof_1_1&#45;&gt;L4YAML.YamlToken</title>
<path fill="none" stroke="#6f42c1" stroke-width="2" stroke-dasharray="5,2" d="M492.45,-537.03C503.51,-542.69 513.87,-549.61 523.22,-558 538.14,-571.4 519.95,-586.96 533.22,-602 536.66,-605.9 539.1,-605.06 544.22,-606 664.01,-628.05 984.41,-670.57 1092.29,-614 1123.92,-597.41 1144.17,-559.47 1154.49,-534.83"/>
<polygon fill="#6f42c1" stroke="#6f42c1" stroke-width="2" points="1156.16,-535.38 1156.43,-530.09 1152.92,-534.06 1156.16,-535.38"/>
<text text-anchor="middle" x="800.75" y="-644.4" font-family="Times-Roman" font-size="7.00" fill="#6f42c1">about</text>
</g>
<!-- L4YAML.Proofs.ScannerCorrectness.ScanHelpers.emitAt_chain_preserves_prefix._proof_1_1&#45;&gt;L4YAML.Scanner.ScannerState.tokens -->
<g id="edge15" class="edge">
<title>L4YAML.Proofs.ScannerCorrectness.ScanHelpers.emitAt_chain_preserves_prefix._proof_1_1&#45;&gt;L4YAML.Scanner.ScannerState.tokens</title>
<path fill="none" stroke="#6f42c1" stroke-width="2" stroke-dasharray="5,2" d="M496.48,-519.92C737.04,-510.93 1081.54,-496.32 1092.29,-486 1109.83,-469.15 1088.13,-396.78 1102.29,-377 1103.72,-375 1105.33,-373.15 1107.09,-371.43"/>
<polygon fill="#6f42c1" stroke="#6f42c1" stroke-width="2" points="1108.28,-372.71 1110.88,-368.09 1105.97,-370.08 1108.28,-372.71"/>
<text text-anchor="middle" x="800.75" y="-520.4" font-family="Times-Roman" font-size="7.00" fill="#6f42c1">about</text>
</g>
<!-- L4YAML.Proofs.ScannerCorrectness.ScanHelpers.emitAt_chain_preserves_prefix._proof_1_1&#45;&gt;L4YAML.Proofs.ScannerCorrectness.ScanHelpers.emitAt_chain_preserves_prefix -->
<g id="edge9" class="edge">
<title>L4YAML.Proofs.ScannerCorrectness.ScanHelpers.emitAt_chain_preserves_prefix._proof_1_1&#45;&gt;L4YAML.Proofs.ScannerCorrectness.ScanHelpers.emitAt_chain_preserves_prefix</title>
<path fill="none" stroke="#28a745" d="M495.69,-519.57C505.71,-513.7 514.99,-506.58 523.22,-498 544.67,-475.65 523.9,-243.39 544.22,-220 558.73,-203.29 576.98,-190.92 597.01,-181.83"/>
<polygon fill="#28a745" stroke="#28a745" points="598.12,-184.02 603.57,-178.99 596.17,-179.52 598.12,-184.02"/>
</g>
<!-- L4YAML.Proofs.ScannerCorrectness.emitAt_tokens_size -->
<g id="node9" class="node">
<title>L4YAML.Proofs.ScannerCorrectness.emitAt_tokens_size</title>
<g id="a_node9"><a xlink:href="../../../api/L4YAML/Proofs/Scanner/ScannerCorrectness.html#L4YAML.Proofs.ScannerCorrectness.emitAt_tokens_size" xlink:title="ScannerCorrectness.emitAt_tokens_size\n(Scanner.ScannerCorrectness)" target="_blank">
<ellipse fill="#d4edda" stroke="#28a745" cx="265.61" cy="-468" rx="137.36" ry="21.43"/>
<text text-anchor="middle" x="265.61" y="-471" font-family="Helvetica" font-size="10.00">ScannerCorrectness.emitAt_tokens_size</text>
<text text-anchor="middle" x="265.61" y="-460" font-family="Helvetica" font-size="10.00">(Scanner.ScannerCorrectness)</text>
</a>
</g>
</g>
<!-- L4YAML.Proofs.ScannerCorrectness.emitAt_tokens_size&#45;&gt;L4YAML.Positioned -->
<g id="edge20" class="edge">
<title>L4YAML.Proofs.ScannerCorrectness.emitAt_tokens_size&#45;&gt;L4YAML.Positioned</title>
<path fill="none" stroke="#6f42c1" stroke-width="2" stroke-dasharray="5,2" d="M361.07,-452.68C414.63,-444.76 482.99,-435.95 544.22,-432 787.3,-416.3 852.49,-389.19 1092.29,-432 1104.2,-434.13 1116.73,-438.12 1127.87,-442.36"/>
<polygon fill="#6f42c1" stroke="#6f42c1" stroke-width="2" points="1127.26,-444 1132.56,-444.18 1128.54,-440.74 1127.26,-444"/>
<text text-anchor="middle" x="800.75" y="-434.4" font-family="Times-Roman" font-size="7.00" fill="#6f42c1">about</text>
</g>
<!-- L4YAML.Proofs.ScannerCorrectness.emitAt_tokens_size&#45;&gt;L4YAML.Scanner.ScannerState -->
<g id="edge23" class="edge">
<title>L4YAML.Proofs.ScannerCorrectness.emitAt_tokens_size&#45;&gt;L4YAML.Scanner.ScannerState</title>
<path fill="none" stroke="#6f42c1" stroke-width="2" stroke-dasharray="5,2" d="M323.46,-448.72C379,-430.97 466.3,-405.94 544.22,-396 759.3,-368.56 1019.85,-389.38 1120.39,-399.4"/>
<polygon fill="#6f42c1" stroke="#6f42c1" stroke-width="2" points="1120.48,-401.17 1125.63,-399.93 1120.83,-397.69 1120.48,-401.17"/>
<text text-anchor="middle" x="800.75" y="-398.4" font-family="Times-Roman" font-size="7.00" fill="#6f42c1">about</text>
</g>
<!-- L4YAML.Proofs.ScannerCorrectness.emitAt_tokens_size&#45;&gt;L4YAML.YamlToken -->
<g id="edge22" class="edge">
<title>L4YAML.Proofs.ScannerCorrectness.emitAt_tokens_size&#45;&gt;L4YAML.YamlToken</title>
<path fill="none" stroke="#6f42c1" stroke-width="2" stroke-dasharray="5,2" d="M387.54,-458.21C578.46,-444.59 940.06,-426.75 1057.29,-476 1063.08,-478.43 1061.85,-482.85 1067.29,-486 1085.36,-496.48 1107.8,-502.87 1126.39,-506.69"/>
<polygon fill="#6f42c1" stroke="#6f42c1" stroke-width="2" points="1126.28,-508.45 1131.52,-507.7 1126.96,-505.02 1126.28,-508.45"/>
<text text-anchor="middle" x="800.75" y="-478.4" font-family="Times-Roman" font-size="7.00" fill="#6f42c1">about</text>
</g>
<!-- L4YAML.Proofs.ScannerCorrectness.emitAt_tokens_size&#45;&gt;L4YAML.YamlPos -->
<g id="edge21" class="edge">
<title>L4YAML.Proofs.ScannerCorrectness.emitAt_tokens_size&#45;&gt;L4YAML.YamlPos</title>
<path fill="none" stroke="#6f42c1" stroke-width="2" stroke-dasharray="5,2" d="M296.95,-447.32C346.25,-414.99 447.96,-353.54 544.22,-328 759.45,-270.88 1031.24,-285.23 1127.24,-292.8"/>
<polygon fill="#6f42c1" stroke="#6f42c1" stroke-width="2" points="1127.37,-294.57 1132.5,-293.22 1127.65,-291.08 1127.37,-294.57"/>
<text text-anchor="middle" x="800.75" y="-330.4" font-family="Times-Roman" font-size="7.00" fill="#6f42c1">about</text>
</g>
<!-- L4YAML.Proofs.ScannerCorrectness.emitAt_tokens_size&#45;&gt;L4YAML.Scanner.ScannerState.emitAt -->
<g id="edge24" class="edge">
<title>L4YAML.Proofs.ScannerCorrectness.emitAt_tokens_size&#45;&gt;L4YAML.Scanner.ScannerState.emitAt</title>
<path fill="none" stroke="#6f42c1" stroke-width="2" stroke-dasharray="5,2" d="M307.65,-447.62C361.22,-419.71 456.05,-365.73 523.22,-302 534.76,-291.05 530.23,-280.59 544.22,-273 592.7,-246.7 960.86,-242.64 1105.09,-242.07"/>
<polygon fill="#6f42c1" stroke="#6f42c1" stroke-width="2" points="1105.13,-243.82 1110.13,-242.05 1105.12,-240.32 1105.13,-243.82"/>
<text text-anchor="middle" x="800.75" y="-275.4" font-family="Times-Roman" font-size="7.00" fill="#6f42c1">about</text>
</g>
<!-- L4YAML.Proofs.ScannerCorrectness.emitAt_tokens_size&#45;&gt;L4YAML.Scanner.ScannerState.tokens -->
<g id="edge19" class="edge">
<title>L4YAML.Proofs.ScannerCorrectness.emitAt_tokens_size&#45;&gt;L4YAML.Scanner.ScannerState.tokens</title>
<path fill="none" stroke="#6f42c1" stroke-width="2" stroke-dasharray="5,2" d="M310.16,-447.9C363.87,-424.23 458.57,-386.1 544.22,-370 747.43,-331.79 994.68,-339.73 1104.92,-346.02"/>
<polygon fill="#6f42c1" stroke="#6f42c1" stroke-width="2" points="1104.97,-347.78 1110.06,-346.32 1105.17,-344.28 1104.97,-347.78"/>
<text text-anchor="middle" x="800.75" y="-372.4" font-family="Times-Roman" font-size="7.00" fill="#6f42c1">about</text>
</g>
<!-- L4YAML.Proofs.ScannerCorrectness.emitAt_tokens_size&#45;&gt;L4YAML.Proofs.ScannerCorrectness.ScanHelpers.emitAt_chain_preserves_prefix -->
<g id="edge8" class="edge">
<title>L4YAML.Proofs.ScannerCorrectness.emitAt_tokens_size&#45;&gt;L4YAML.Proofs.ScannerCorrectness.ScanHelpers.emitAt_chain_preserves_prefix</title>
<path fill="none" stroke="#28a745" d="M321.61,-448.51C381.71,-424.14 475.74,-376.35 523.22,-302 543.46,-270.29 511.21,-238.06 544.22,-220 573.98,-203.72 608.12,-192.17 641.56,-183.98"/>
<polygon fill="#28a745" stroke="#28a745" points="642.44,-186.29 648.68,-182.29 641.31,-181.53 642.44,-186.29"/>
</g>
<!-- L4YAML.Proofs.ScannerCorrectness.ScanHelpers.emitAt_preserves_tokens_at._proof_1 -->
<g id="node10" class="node">
<title>L4YAML.Proofs.ScannerCorrectness.ScanHelpers.emitAt_preserves_tokens_at._proof_1</title>
<g id="a_node10"><a xlink:href="../../../api/L4YAML/Proofs/Scanner/ScannerCorrectness.html#L4YAML.Proofs.ScannerCorrectness.ScanHelpers.emitAt_preserves_tokens_at._proof_1" xlink:title="ScannerCorrectness.ScanHelpers.emitAt_preserves_tokens_at._proof_1\n(Scanner.ScannerCorrectness)" target="_blank">
<ellipse fill="#d4edda" stroke="#28a745" cx="265.61" cy="-588" rx="234.52" ry="21.43"/>
<text text-anchor="middle" x="265.61" y="-591" font-family="Helvetica" font-size="10.00">ScannerCorrectness.ScanHelpers.emitAt_preserves_tokens_at._proof_1</text>
<text text-anchor="middle" x="265.61" y="-580" font-family="Helvetica" font-size="10.00">(Scanner.ScannerCorrectness)</text>
</a>
</g>
</g>
<!-- L4YAML.Proofs.ScannerCorrectness.ScanHelpers.emitAt_preserves_tokens_at._proof_1&#45;&gt;L4YAML.Positioned -->
<g id="edge26" class="edge">
<title>L4YAML.Proofs.ScannerCorrectness.ScanHelpers.emitAt_preserves_tokens_at._proof_1&#45;&gt;L4YAML.Positioned</title>
<path fill="none" stroke="#6f42c1" stroke-width="2" stroke-dasharray="5,2" d="M292.92,-609.33C338.52,-644.76 436.65,-714.41 533.22,-740 593.26,-755.91 1048.12,-780.68 1092.29,-737 1112.21,-717.3 1086.57,-508.2 1102.29,-485 1108.27,-476.16 1117.87,-470.18 1127.67,-466.15"/>
<polygon fill="#6f42c1" stroke="#6f42c1" stroke-width="2" points="1128.44,-467.74 1132.49,-464.33 1127.19,-464.46 1128.44,-467.74"/>
<text text-anchor="middle" x="800.75" y="-763.4" font-family="Times-Roman" font-size="7.00" fill="#6f42c1">about</text>
</g>
<!-- L4YAML.Proofs.ScannerCorrectness.ScanHelpers.emitAt_preserves_tokens_at._proof_1&#45;&gt;L4YAML.Scanner.ScannerState -->
<g id="edge28" class="edge">
<title>L4YAML.Proofs.ScannerCorrectness.ScanHelpers.emitAt_preserves_tokens_at._proof_1&#45;&gt;L4YAML.Scanner.ScannerState</title>
<path fill="none" stroke="#6f42c1" stroke-width="2" stroke-dasharray="5,2" d="M304.89,-609.03C355.41,-635.46 447.93,-679.38 533.22,-696 594.19,-707.88 1047.54,-739.09 1092.29,-696 1113.51,-675.56 1085.79,-455.41 1102.29,-431 1106.87,-424.21 1113.59,-419.11 1120.9,-415.29"/>
<polygon fill="#6f42c1" stroke="#6f42c1" stroke-width="2" points="1121.77,-416.81 1125.51,-413.06 1120.25,-413.66 1121.77,-416.81"/>
<text text-anchor="middle" x="800.75" y="-720.4" font-family="Times-Roman" font-size="7.00" fill="#6f42c1">about</text>
</g>
<!-- L4YAML.Proofs.ScannerCorrectness.ScanHelpers.emitAt_preserves_tokens_at._proof_1&#45;&gt;L4YAML.YamlToken -->
<g id="edge27" class="edge">
<title>L4YAML.Proofs.ScannerCorrectness.ScanHelpers.emitAt_preserves_tokens_at._proof_1&#45;&gt;L4YAML.YamlToken</title>
<path fill="none" stroke="#6f42c1" stroke-width="2" stroke-dasharray="5,2" d="M285.74,-609.14C326.28,-652.17 425.95,-748.81 533.22,-784 754.54,-856.6 865.19,-913.72 1057.29,-782 1141.12,-724.51 1158.34,-589.66 1161.87,-535.31"/>
<polygon fill="#6f42c1" stroke="#6f42c1" stroke-width="2" points="1163.62,-535.4 1162.18,-530.31 1160.13,-535.19 1163.62,-535.4"/>
<text text-anchor="middle" x="800.75" y="-862.4" font-family="Times-Roman" font-size="7.00" fill="#6f42c1">about</text>
</g>
<!-- L4YAML.Proofs.ScannerCorrectness.ScanHelpers.emitAt_preserves_tokens_at._proof_1&#45;&gt;L4YAML.Scanner.ScannerState.tokens -->
<g id="edge25" class="edge">
<title>L4YAML.Proofs.ScannerCorrectness.ScanHelpers.emitAt_preserves_tokens_at._proof_1&#45;&gt;L4YAML.Scanner.ScannerState.tokens</title>
<path fill="none" stroke="#6f42c1" stroke-width="2" stroke-dasharray="5,2" d="M332.86,-608.37C388.62,-624.39 470.78,-645.39 544.22,-654 600.84,-660.64 1012.68,-689.5 1057.29,-654 1111.53,-610.83 1081.72,-570.51 1092.29,-502 1096.54,-474.46 1086.2,-399.75 1102.29,-377 1103.71,-374.99 1105.31,-373.13 1107.06,-371.41"/>
<polygon fill="#6f42c1" stroke="#6f42c1" stroke-width="2" points="1108.26,-372.68 1110.84,-368.06 1105.93,-370.07 1108.26,-372.68"/>
<text text-anchor="middle" x="800.75" y="-673.4" font-family="Times-Roman" font-size="7.00" fill="#6f42c1">about</text>
</g>
<!-- L4YAML.Proofs.ScannerCorrectness.ScanHelpers.emitAt_preserves_tokens_at._proof_1&#45;&gt;L4YAML.Proofs.ScannerCorrectness.ScanHelpers.emitAt_chain_preserves_prefix -->
<g id="edge7" class="edge">
<title>L4YAML.Proofs.ScannerCorrectness.ScanHelpers.emitAt_preserves_tokens_at._proof_1&#45;&gt;L4YAML.Proofs.ScannerCorrectness.ScanHelpers.emitAt_chain_preserves_prefix</title>
<path fill="none" stroke="#28a745" d="M491.49,-582.09C503.14,-575.75 513.86,-567.83 523.22,-558 548.4,-531.54 531.95,-430.46 534.22,-394 535.42,-374.67 531.65,-234.73 544.22,-220 558.45,-203.32 576.4,-190.94 596.16,-181.83"/>
<polygon fill="#28a745" stroke="#28a745" points="597.21,-184.04 602.63,-178.98 595.24,-179.56 597.21,-184.04"/>
</g>
<!-- Classical.byContradiction -->
<g id="node11" class="node">
<title>Classical.byContradiction</title>
<g id="a_node11"><a xlink:href="../../../api/Init/Classical.html#Classical.byContradiction" xlink:title="Classical.byContradiction" target="_blank">
<ellipse fill="#fdebd0" stroke="#e67e22" cx="265.61" cy="-250" rx="75.2" ry="18"/>
<text text-anchor="middle" x="265.61" y="-247.5" font-family="Helvetica" font-size="10.00">Classical.byContradiction</text>
</a>
</g>
</g>
<!-- Classical.byContradiction&#45;&gt;L4YAML.Proofs.ScannerCorrectness.ScanHelpers.emitAt_chain_preserves_prefix -->
<g id="edge10" class="edge">
<title>Classical.byContradiction&#45;&gt;L4YAML.Proofs.ScannerCorrectness.ScanHelpers.emitAt_chain_preserves_prefix</title>
<path fill="none" stroke="#e67e22" stroke-width="2" d="M332,-258.58C387.28,-262.43 466.34,-259.61 523.22,-223 530.59,-218.26 525.97,-210.93 533.22,-206 548.91,-195.32 566.31,-186.97 584.49,-180.47"/>
<polygon fill="#e67e22" stroke="#e67e22" stroke-width="2" points="585.4,-182.75 591.22,-178.16 583.81,-178.12 585.4,-182.75"/>
</g>
<!-- GetElem.getElem.congr_simp -->
<g id="node12" class="node">
<title>GetElem.getElem.congr_simp</title>
<g id="a_node12"><a xlink:href="../../../api/Init/GetElem.html#GetElem.getElem.congr_simp" xlink:title="GetElem.getElem.congr_simp" target="_blank">
<ellipse fill="#fdebd0" stroke="#e67e22" cx="265.61" cy="-196" rx="86.57" ry="18"/>
<text text-anchor="middle" x="265.61" y="-193.5" font-family="Helvetica" font-size="10.00">GetElem.getElem.congr_simp</text>
</a>
</g>
</g>
<!-- GetElem.getElem.congr_simp&#45;&gt;L4YAML.Proofs.ScannerCorrectness.ScanHelpers.emitAt_chain_preserves_prefix -->
<g id="edge11" class="edge">
<title>GetElem.getElem.congr_simp&#45;&gt;L4YAML.Proofs.ScannerCorrectness.ScanHelpers.emitAt_chain_preserves_prefix</title>
<path fill="none" stroke="#e67e22" stroke-width="2" d="M349.04,-191.05C408.9,-187.46 493,-182.41 572.36,-177.65"/>
<polygon fill="#e67e22" stroke="#e67e22" stroke-width="2" points="572.69,-180.08 579.53,-177.22 572.4,-175.19 572.69,-180.08"/>
</g>
<!-- dif_pos -->
<g id="node13" class="node">
<title>dif_pos</title>
<g id="a_node13"><a xlink:href="../../../api/Init/Core.html#dif_pos" xlink:title="dif_pos" target="_blank">
<ellipse fill="#fdebd0" stroke="#e67e22" cx="265.61" cy="-142" rx="28.01" ry="18"/>
<text text-anchor="middle" x="265.61" y="-139.5" font-family="Helvetica" font-size="10.00">dif_pos</text>
</a>
</g>
</g>
<!-- dif_pos&#45;&gt;L4YAML.Proofs.ScannerCorrectness.ScanHelpers.emitAt_chain_preserves_prefix -->
<g id="edge12" class="edge">
<title>dif_pos&#45;&gt;L4YAML.Proofs.ScannerCorrectness.ScanHelpers.emitAt_chain_preserves_prefix</title>
<path fill="none" stroke="#e67e22" stroke-width="2" d="M294.15,-143.14C341.89,-145.11 444.55,-149.34 544.97,-153.49"/>
<polygon fill="#e67e22" stroke="#e67e22" stroke-width="2" points="545.1,-155.94 552.2,-153.78 545.3,-151.05 545.1,-155.94"/>
</g>
<!-- Decidable.byContradiction -->
<g id="node14" class="node">
<title>Decidable.byContradiction</title>
<g id="a_node14"><a xlink:href="../../../api/Init/Core.html#Decidable.byContradiction" xlink:title="Decidable.byContradiction" target="_blank">
<ellipse fill="#fdebd0" stroke="#e67e22" cx="265.61" cy="-88" rx="77.23" ry="18"/>
<text text-anchor="middle" x="265.61" y="-85.5" font-family="Helvetica" font-size="10.00">Decidable.byContradiction</text>
</a>
</g>
</g>
<!-- Decidable.byContradiction&#45;&gt;L4YAML.Proofs.ScannerCorrectness.ScanHelpers.emitAt_chain_preserves_prefix -->
<g id="edge13" class="edge">
<title>Decidable.byContradiction&#45;&gt;L4YAML.Proofs.ScannerCorrectness.ScanHelpers.emitAt_chain_preserves_prefix</title>
<path fill="none" stroke="#e67e22" stroke-width="2" d="M338.12,-94.16C389.69,-98.94 460.9,-106.21 523.22,-115 575.68,-122.4 633.42,-132.34 682.51,-141.34"/>
<polygon fill="#e67e22" stroke="#e67e22" stroke-width="2" points="682.37,-143.8 689.69,-142.66 683.25,-138.99 682.37,-143.8"/>
</g>
<!-- Array.getElem_push -->
<g id="node15" class="node">
<title>Array.getElem_push</title>
<g id="a_node15"><a xlink:href="../../../api/Init/Data/Array/Lemmas.html#Array.getElem_push" xlink:title="Array.getElem_push" target="_blank">
<ellipse fill="#fdebd0" stroke="#e67e22" cx="265.61" cy="-34" rx="61.44" ry="18"/>
<text text-anchor="middle" x="265.61" y="-31.5" font-family="Helvetica" font-size="10.00">Array.getElem_push</text>
</a>
</g>
</g>
<!-- Array.getElem_push&#45;&gt;L4YAML.Proofs.ScannerCorrectness.ScanHelpers.emitAt_chain_preserves_prefix -->
<g id="edge14" class="edge">
<title>Array.getElem_push&#45;&gt;L4YAML.Proofs.ScannerCorrectness.ScanHelpers.emitAt_chain_preserves_prefix</title>
<path fill="none" stroke="#e67e22" stroke-width="2" d="M326.69,-36.05C379.15,-38.85 457.04,-45.46 523.22,-61 602.77,-79.69 690.55,-115.08 745.42,-139.1"/>
<polygon fill="#e67e22" stroke="#e67e22" stroke-width="2" points="744.55,-141.39 751.95,-141.97 746.53,-136.91 744.55,-141.39"/>
</g>
</g>
</svg>
