<?xml version="1.0" encoding="UTF-8" standalone="no"?>
<!DOCTYPE svg PUBLIC "-//W3C//DTD SVG 1.1//EN"
 "http://www.w3.org/Graphics/SVG/1.1/DTD/svg11.dtd">
<!-- Generated by graphviz version 2.44.0 (0)
 -->
<!-- Title: chain_ScannerCorrectness.emit_preserves_flowLevel Pages: 1 -->
<svg width="979pt" height="201pt"
 viewBox="0.00 0.00 979.00 200.92" xmlns="http://www.w3.org/2000/svg" xmlns:xlink="http://www.w3.org/1999/xlink">
<g id="graph0" class="graph" transform="scale(1 1) rotate(0) translate(4 196.92)">
<title>chain_ScannerCorrectness.emit_preserves_flowLevel</title>
<polygon fill="white" stroke="transparent" points="-4,4 -4,-196.92 975,-196.92 975,4 -4,4"/>
<text text-anchor="middle" x="485.5" y="-178.52" font-family="Helvetica Bold" font-size="13.00">Structural theorem: ScannerCorrectness.emit_preserves_flowLevel\nProof is a witness / injection — no fibration depth\n(heuristic: used by 19 proofs)</text>
<g id="clust1" class="cluster">
<title>cluster_direct</title>
<polygon fill="none" stroke="#4a90d9" stroke-dasharray="5,2" points="271.5,-8 271.5,-82 699.5,-82 699.5,-8 271.5,-8"/>
<text text-anchor="middle" x="485.5" y="-67.6" font-family="Helvetica Bold" font-size="13.00" fill="#4a90d9">About (no chain extends — proof is structural)</text>
</g>
<!-- L4YAML.Proofs.ScannerCorrectness.emit_preserves_flowLevel -->
<g id="node1" class="node">
<title>L4YAML.Proofs.ScannerCorrectness.emit_preserves_flowLevel</title>
<polygon fill="#fff3cd" stroke="#d4a017" points="630.79,-134.46 630.79,-153.46 531.62,-166.89 391.38,-166.89 292.21,-153.46 292.21,-134.46 391.38,-121.03 531.62,-121.03 630.79,-134.46"/>
<polygon fill="none" stroke="#d4a017" points="634.79,-130.98 634.79,-156.95 531.89,-170.88 391.11,-170.88 288.21,-156.95 288.21,-130.98 391.11,-117.04 531.89,-117.04 634.79,-130.98"/>
<text text-anchor="middle" x="461.5" y="-146.96" font-family="Helvetica" font-size="10.00">ScannerCorrectness.emit_preserves_flowLevel</text>
<text text-anchor="middle" x="461.5" y="-135.96" font-family="Helvetica" font-size="10.00">(structural)</text>
</g>
<!-- L4YAML.Scanner.ScannerState.emit -->
<g id="node2" class="node">
<title>L4YAML.Scanner.ScannerState.emit</title>
<g id="a_node2"><a xlink:href="../../../api/L4YAML/Scanner/State.html#L4YAML.Scanner.ScannerState.emit" xlink:title="ScannerState.emit" target="_blank">
<polygon fill="#dce9f7" stroke="#4a90d9" points="377.5,-52 279.5,-52 279.5,-16 377.5,-16 377.5,-52"/>
<text text-anchor="middle" x="328.5" y="-31.5" font-family="Helvetica" font-size="10.00">ScannerState.emit</text>
</a>
</g>
</g>
<!-- L4YAML.Proofs.ScannerCorrectness.emit_preserves_flowLevel&#45;&gt;L4YAML.Scanner.ScannerState.emit -->
<g id="edge1" class="edge">
<title>L4YAML.Proofs.ScannerCorrectness.emit_preserves_flowLevel&#45;&gt;L4YAML.Scanner.ScannerState.emit</title>
<path fill="none" stroke="#4a90d9" stroke-width="2" d="M429.3,-116.83C406.58,-98.38 376.5,-73.96 355.12,-56.61"/>
<polygon fill="#4a90d9" stroke="#4a90d9" stroke-width="2" points="356.59,-54.65 349.62,-52.14 353.51,-58.45 356.59,-54.65"/>
<text text-anchor="middle" x="420" y="-92.6" font-family="Times-Roman" font-size="8.00" fill="#4a90d9">about</text>
</g>
<!-- L4YAML.YamlToken -->
<g id="node3" class="node">
<title>L4YAML.YamlToken</title>
<g id="a_node3"><a xlink:href="../../../api/L4YAML/Token/Token.html#L4YAML.YamlToken" xlink:title="YamlToken" target="_blank">
<polygon fill="#dce9f7" stroke="#4a90d9" points="459.5,-52 395.5,-52 395.5,-16 459.5,-16 459.5,-52"/>
<text text-anchor="middle" x="427.5" y="-31.5" font-family="Helvetica" font-size="10.00">YamlToken</text>
</a>
</g>
</g>
<!-- L4YAML.Proofs.ScannerCorrectness.emit_preserves_flowLevel&#45;&gt;L4YAML.YamlToken -->
<g id="edge2" class="edge">
<title>L4YAML.Proofs.ScannerCorrectness.emit_preserves_flowLevel&#45;&gt;L4YAML.YamlToken</title>
<path fill="none" stroke="#4a90d9" stroke-width="2" d="M453.27,-116.83C447.73,-99.24 440.49,-76.23 435.09,-59.09"/>
<polygon fill="#4a90d9" stroke="#4a90d9" stroke-width="2" points="437.34,-58.08 432.9,-52.14 432.66,-59.55 437.34,-58.08"/>
<text text-anchor="middle" x="461" y="-92.6" font-family="Times-Roman" font-size="8.00" fill="#4a90d9">about</text>
</g>
<!-- L4YAML.Scanner.ScannerState -->
<g id="node4" class="node">
<title>L4YAML.Scanner.ScannerState</title>
<g id="a_node4"><a xlink:href="../../../api/L4YAML/Scanner/State.html#L4YAML.Scanner.ScannerState" xlink:title="ScannerState" target="_blank">
<polygon fill="#dce9f7" stroke="#4a90d9" points="553.5,-52 477.5,-52 477.5,-16 553.5,-16 553.5,-52"/>
<text text-anchor="middle" x="515.5" y="-31.5" font-family="Helvetica" font-size="10.00">ScannerState</text>
</a>
</g>
</g>
<!-- L4YAML.Proofs.ScannerCorrectness.emit_preserves_flowLevel&#45;&gt;L4YAML.Scanner.ScannerState -->
<g id="edge3" class="edge">
<title>L4YAML.Proofs.ScannerCorrectness.emit_preserves_flowLevel&#45;&gt;L4YAML.Scanner.ScannerState</title>
<path fill="none" stroke="#4a90d9" stroke-width="2" d="M474.57,-116.83C483.44,-99.09 495.08,-75.82 503.68,-58.64"/>
<polygon fill="#4a90d9" stroke="#4a90d9" stroke-width="2" points="505.99,-59.5 506.93,-52.14 501.6,-57.3 505.99,-59.5"/>
<text text-anchor="middle" x="499" y="-92.6" font-family="Times-Roman" font-size="8.00" fill="#4a90d9">about</text>
</g>
<!-- L4YAML.Scanner.ScannerState.flowLevel -->
<g id="node5" class="node">
<title>L4YAML.Scanner.ScannerState.flowLevel</title>
<g id="a_node5"><a xlink:href="../../../api/L4YAML/Scanner/State.html#L4YAML.Scanner.ScannerState.flowLevel" xlink:title="ScannerState.flowLevel" target="_blank">
<polygon fill="#dce9f7" stroke="#4a90d9" points="691,-52 572,-52 572,-16 691,-16 691,-52"/>
<text text-anchor="middle" x="631.5" y="-31.5" font-family="Helvetica" font-size="10.00">ScannerState.flowLevel</text>
</a>
</g>
</g>
<!-- L4YAML.Proofs.ScannerCorrectness.emit_preserves_flowLevel&#45;&gt;L4YAML.Scanner.ScannerState.flowLevel -->
<g id="edge4" class="edge">
<title>L4YAML.Proofs.ScannerCorrectness.emit_preserves_flowLevel&#45;&gt;L4YAML.Scanner.ScannerState.flowLevel</title>
<path fill="none" stroke="#4a90d9" stroke-width="2" d="M505.82,-116.93C523.58,-106.31 544.14,-93.78 562.5,-82 575.28,-73.8 589.15,-64.44 601.08,-56.25"/>
<polygon fill="#4a90d9" stroke="#4a90d9" stroke-width="2" points="602.76,-58.07 607.13,-52.08 599.98,-54.04 602.76,-58.07"/>
<text text-anchor="middle" x="561" y="-92.6" font-family="Times-Roman" font-size="8.00" fill="#4a90d9">about</text>
</g>
</g>
</svg>
