<?xml version="1.0" encoding="UTF-8" standalone="no"?>
<!DOCTYPE svg PUBLIC "-//W3C//DTD SVG 1.1//EN"
 "http://www.w3.org/Graphics/SVG/1.1/DTD/svg11.dtd">
<!-- Generated by graphviz version 2.44.0 (0)
 -->
<!-- Title: ScannerCorrectness.ScanHelpers.parseBlockHeaderLoop_preserves_tokens Pages: 1 -->
<svg width="1460pt" height="810pt"
 viewBox="0.00 0.00 1459.62 810.00" xmlns="http://www.w3.org/2000/svg" xmlns:xlink="http://www.w3.org/1999/xlink">
<g id="graph0" class="graph" transform="scale(1 1) rotate(0) translate(4 806)">
<title>ScannerCorrectness.ScanHelpers.parseBlockHeaderLoop_preserves_tokens</title>
<polygon fill="white" stroke="transparent" points="-4,4 -4,-806 1455.62,-806 1455.62,4 -4,4"/>
<text text-anchor="middle" x="725.81" y="-787.6" font-family="Helvetica Bold" font-size="13.00">ScannerCorrectness.ScanHelpers.parseBlockHeaderLoop_preserves_tokens</text>
<text text-anchor="middle" x="725.81" y="-773.6" font-family="Helvetica Bold" font-size="13.00">(heuristic: used by 6 proofs)</text>
<text text-anchor="middle" x="725.81" y="-759.6" font-family="Helvetica Bold" font-size="13.00">(L4YAML.Proofs.Scanner.ScannerCorrectness)</text>
<g id="clust1" class="cluster">
<title>cluster_functions</title>
<polygon fill="none" stroke="#4a90d9" stroke-dasharray="5,2" points="876.94,-98 876.94,-442 1443.62,-442 1443.62,-98 876.94,-98"/>
<text text-anchor="middle" x="1160.28" y="-427.6" font-family="Helvetica Bold" font-size="13.00" fill="#4a90d9">Functions</text>
</g>
<g id="clust2" class="cluster">
<title>cluster_key</title>
<polygon fill="none" stroke="#d4a017" stroke-dasharray="5,2" points="665.26,-8 665.26,-90 1263.62,-90 1263.62,-8 665.26,-8"/>
<text text-anchor="middle" x="964.44" y="-75.6" font-family="Helvetica Bold" font-size="13.00" fill="#d4a017">Key Theorem</text>
</g>
<g id="clust3" class="cluster">
<title>cluster_proofs</title>
<polygon fill="none" stroke="#28a745" stroke-dasharray="5,2" points="147.12,-393 147.12,-533 484.14,-533 484.14,-393 147.12,-393"/>
<text text-anchor="middle" x="315.63" y="-518.6" font-family="Helvetica Bold" font-size="13.00" fill="#28a745">Proof Dependencies</text>
</g>
<g id="clust4" class="cluster">
<title>cluster_stdlib</title>
<polygon fill="none" stroke="#e67e22" stroke-dasharray="5,2" points="8,-19 8,-201 623.26,-201 623.26,-19 8,-19"/>
<text text-anchor="middle" x="315.63" y="-186.6" font-family="Helvetica Bold" font-size="13.00" fill="#e67e22">Stdlib Lemmas</text>
</g>
<!-- L4YAML.Scanner.parseBlockHeaderLoop.match_1 -->
<g id="node1" class="node">
<title>L4YAML.Scanner.parseBlockHeaderLoop.match_1</title>
<g id="a_node1"><a xlink:href="../../../api/L4YAML/Scanner/Scalar.html#L4YAML.Scanner.parseBlockHeaderLoop.match_1" xlink:title="parseBlockHeaderLoop.match_1\n(def)" target="_blank">
<polygon fill="#dce9f7" stroke="#4a90d9" points="1043.94,-142 884.94,-142 884.94,-106 1043.94,-106 1043.94,-142"/>
<text text-anchor="middle" x="964.44" y="-127" font-family="Helvetica" font-size="10.00">parseBlockHeaderLoop.match_1</text>
<text text-anchor="middle" x="964.44" y="-116" font-family="Helvetica" font-size="10.00">(def)</text>
</a>
</g>
</g>
<!-- L4YAML.Scanner.collectHexDigitsLoop.match_3 -->
<g id="node2" class="node">
<title>L4YAML.Scanner.collectHexDigitsLoop.match_3</title>
<g id="a_node2"><a xlink:href="../../../api/L4YAML/Scanner/Scalar.html#L4YAML.Scanner.collectHexDigitsLoop.match_3" xlink:title="collectHexDigitsLoop.match_3\n(def)" target="_blank">
<polygon fill="#dce9f7" stroke="#4a90d9" points="1039.44,-358 889.44,-358 889.44,-322 1039.44,-322 1039.44,-358"/>
<text text-anchor="middle" x="964.44" y="-343" font-family="Helvetica" font-size="10.00">collectHexDigitsLoop.match_3</text>
<text text-anchor="middle" x="964.44" y="-332" font-family="Helvetica" font-size="10.00">(def)</text>
</a>
</g>
</g>
<!-- L4YAML.ChompStyle -->
<g id="node3" class="node">
<title>L4YAML.ChompStyle</title>
<g id="a_node3"><a xlink:href="../../../api/L4YAML/Spec/Types.html#L4YAML.ChompStyle" xlink:title="ChompStyle\n(inductive)" target="_blank">
<polygon fill="#dce9f7" stroke="#4a90d9" points="1411.62,-196 1340.62,-196 1340.62,-160 1411.62,-160 1411.62,-196"/>
<text text-anchor="middle" x="1376.12" y="-181" font-family="Helvetica" font-size="10.00">ChompStyle</text>
<text text-anchor="middle" x="1376.12" y="-170" font-family="Helvetica" font-size="10.00">(inductive)</text>
</a>
</g>
</g>
<!-- L4YAML.Positioned -->
<g id="node4" class="node">
<title>L4YAML.Positioned</title>
<g id="a_node4"><a xlink:href="../../../api/L4YAML/Token/Token.html#L4YAML.Positioned" xlink:title="Positioned\n(inductive)" target="_blank">
<polygon fill="#dce9f7" stroke="#4a90d9" points="1407.12,-250 1345.12,-250 1345.12,-214 1407.12,-214 1407.12,-250"/>
<text text-anchor="middle" x="1376.12" y="-235" font-family="Helvetica" font-size="10.00">Positioned</text>
<text text-anchor="middle" x="1376.12" y="-224" font-family="Helvetica" font-size="10.00">(inductive)</text>
</a>
</g>
</g>
<!-- L4YAML.Scanner.ScannerState.advance -->
<g id="node5" class="node">
<title>L4YAML.Scanner.ScannerState.advance</title>
<g id="a_node5"><a xlink:href="../../../api/L4YAML/Scanner/State.html#L4YAML.Scanner.ScannerState.advance" xlink:title="ScannerState.advance\n(def)" target="_blank">
<polygon fill="#dce9f7" stroke="#4a90d9" points="1021.94,-412 906.94,-412 906.94,-376 1021.94,-376 1021.94,-412"/>
<text text-anchor="middle" x="964.44" y="-397" font-family="Helvetica" font-size="10.00">ScannerState.advance</text>
<text text-anchor="middle" x="964.44" y="-386" font-family="Helvetica" font-size="10.00">(def)</text>
</a>
</g>
</g>
<!-- L4YAML.Scanner.ScannerState.peek? -->
<g id="node6" class="node">
<title>L4YAML.Scanner.ScannerState.peek?</title>
<g id="a_node6"><a xlink:href="../../../api/L4YAML/Scanner/State.html#L4YAML.Scanner.ScannerState.peek?" xlink:title="ScannerState.peek?\n(def)" target="_blank">
<polygon fill="#dce9f7" stroke="#4a90d9" points="1016.44,-304 912.44,-304 912.44,-268 1016.44,-268 1016.44,-304"/>
<text text-anchor="middle" x="964.44" y="-289" font-family="Helvetica" font-size="10.00">ScannerState.peek?</text>
<text text-anchor="middle" x="964.44" y="-278" font-family="Helvetica" font-size="10.00">(def)</text>
</a>
</g>
</g>
<!-- L4YAML.Scanner.parseBlockHeaderLoop -->
<g id="node7" class="node">
<title>L4YAML.Scanner.parseBlockHeaderLoop</title>
<g id="a_node7"><a xlink:href="../../../api/L4YAML/Scanner/Scalar.html#L4YAML.Scanner.parseBlockHeaderLoop" xlink:title="parseBlockHeaderLoop\n(def)" target="_blank">
<polygon fill="#dce9f7" stroke="#4a90d9" points="1435.62,-142 1316.62,-142 1316.62,-106 1435.62,-106 1435.62,-142"/>
<text text-anchor="middle" x="1376.12" y="-127" font-family="Helvetica" font-size="10.00">parseBlockHeaderLoop</text>
<text text-anchor="middle" x="1376.12" y="-116" font-family="Helvetica" font-size="10.00">(def)</text>
</a>
</g>
</g>
<!-- L4YAML.Scanner.ScannerState -->
<g id="node8" class="node">
<title>L4YAML.Scanner.ScannerState</title>
<g id="a_node8"><a xlink:href="../../../api/L4YAML/Scanner/State.html#L4YAML.Scanner.ScannerState" xlink:title="ScannerState\n(inductive)" target="_blank">
<polygon fill="#dce9f7" stroke="#4a90d9" points="1414.12,-358 1338.12,-358 1338.12,-322 1414.12,-322 1414.12,-358"/>
<text text-anchor="middle" x="1376.12" y="-343" font-family="Helvetica" font-size="10.00">ScannerState</text>
<text text-anchor="middle" x="1376.12" y="-332" font-family="Helvetica" font-size="10.00">(inductive)</text>
</a>
</g>
</g>
<!-- L4YAML.YamlToken -->
<g id="node9" class="node">
<title>L4YAML.YamlToken</title>
<g id="a_node9"><a xlink:href="../../../api/L4YAML/Token/Token.html#L4YAML.YamlToken" xlink:title="YamlToken\n(inductive)" target="_blank">
<polygon fill="#dce9f7" stroke="#4a90d9" points="1408.12,-412 1344.12,-412 1344.12,-376 1408.12,-376 1408.12,-412"/>
<text text-anchor="middle" x="1376.12" y="-397" font-family="Helvetica" font-size="10.00">YamlToken</text>
<text text-anchor="middle" x="1376.12" y="-386" font-family="Helvetica" font-size="10.00">(inductive)</text>
</a>
</g>
</g>
<!-- L4YAML.ChompStyle.keep -->
<g id="node10" class="node">
<title>L4YAML.ChompStyle.keep</title>
<g id="a_node10"><a xlink:href="../../../api/L4YAML/Spec/Types.html#L4YAML.ChompStyle.keep" xlink:title="ChompStyle.keep\n(ctor)" target="_blank">
<polygon fill="#dce9f7" stroke="#4a90d9" points="1011.44,-250 917.44,-250 917.44,-214 1011.44,-214 1011.44,-250"/>
<text text-anchor="middle" x="964.44" y="-235" font-family="Helvetica" font-size="10.00">ChompStyle.keep</text>
<text text-anchor="middle" x="964.44" y="-224" font-family="Helvetica" font-size="10.00">(ctor)</text>
</a>
</g>
</g>
<!-- L4YAML.Scanner.ScannerState.tokens -->
<g id="node11" class="node">
<title>L4YAML.Scanner.ScannerState.tokens</title>
<g id="a_node11"><a xlink:href="../../../api/L4YAML/Scanner/State.html#L4YAML.Scanner.ScannerState.tokens" xlink:title="ScannerState.tokens\n(def)" target="_blank">
<polygon fill="#dce9f7" stroke="#4a90d9" points="1429.62,-304 1322.62,-304 1322.62,-268 1429.62,-268 1429.62,-304"/>
<text text-anchor="middle" x="1376.12" y="-289" font-family="Helvetica" font-size="10.00">ScannerState.tokens</text>
<text text-anchor="middle" x="1376.12" y="-278" font-family="Helvetica" font-size="10.00">(def)</text>
</a>
</g>
</g>
<!-- L4YAML.ChompStyle.strip -->
<g id="node12" class="node">
<title>L4YAML.ChompStyle.strip</title>
<g id="a_node12"><a xlink:href="../../../api/L4YAML/Spec/Types.html#L4YAML.ChompStyle.strip" xlink:title="ChompStyle.strip\n(ctor)" target="_blank">
<polygon fill="#dce9f7" stroke="#4a90d9" points="1010.44,-196 918.44,-196 918.44,-160 1010.44,-160 1010.44,-196"/>
<text text-anchor="middle" x="964.44" y="-181" font-family="Helvetica" font-size="10.00">ChompStyle.strip</text>
<text text-anchor="middle" x="964.44" y="-170" font-family="Helvetica" font-size="10.00">(ctor)</text>
</a>
</g>
</g>
<!-- L4YAML.Proofs.ScannerCorrectness.ScanHelpers.parseBlockHeaderLoop_preserves_tokens -->
<g id="node13" class="node">
<title>L4YAML.Proofs.ScannerCorrectness.ScanHelpers.parseBlockHeaderLoop_preserves_tokens</title>
<g id="a_node13"><a xlink:href="../../../api/L4YAML/Proofs/Scanner/ScannerCorrectness.html#L4YAML.Proofs.ScannerCorrectness.ScanHelpers.parseBlockHeaderLoop_preserves_tokens" xlink:title="ScannerCorrectness.ScanHelpers.parseBlockHeaderLoop_preserves_tokens" target="_blank">
<polygon fill="#fff3cd" stroke="#d4a017" points="1251.79,-30.54 1251.79,-45.46 1083.46,-56 845.41,-56 677.08,-45.46 677.08,-30.54 845.41,-20 1083.46,-20 1251.79,-30.54"/>
<polygon fill="none" stroke="#d4a017" points="1255.79,-26.79 1255.79,-49.21 1083.59,-60 845.29,-60 673.08,-49.21 673.08,-26.79 845.29,-16 1083.59,-16 1255.79,-26.79"/>
<text text-anchor="middle" x="964.44" y="-34.9" font-family="Helvetica" font-size="12.00">ScannerCorrectness.ScanHelpers.parseBlockHeaderLoop_preserves_tokens</text>
</a>
</g>
</g>
<!-- L4YAML.Proofs.ScannerCorrectness.ScanHelpers.parseBlockHeaderLoop_preserves_tokens&#45;&gt;L4YAML.ChompStyle -->
<g id="edge3" class="edge">
<title>L4YAML.Proofs.ScannerCorrectness.ScanHelpers.parseBlockHeaderLoop_preserves_tokens&#45;&gt;L4YAML.ChompStyle</title>
<path fill="none" stroke="#4a90d9" stroke-width="2" d="M1184.55,-53.81C1213.08,-62.88 1240.4,-75.8 1263.62,-94 1272.07,-100.63 1267.05,-107.5 1273.62,-116 1288.67,-135.51 1295.71,-137.96 1316.62,-151 1322.05,-154.39 1327.98,-157.62 1333.92,-160.58"/>
<polygon fill="#4a90d9" stroke="#4a90d9" stroke-width="2" points="1332.97,-162.84 1340.33,-163.69 1335.1,-158.43 1332.97,-162.84"/>
<text text-anchor="middle" x="1286.12" y="-141.6" font-family="Times-Roman" font-size="8.00" fill="#4a90d9">about</text>
</g>
<!-- L4YAML.Proofs.ScannerCorrectness.ScanHelpers.parseBlockHeaderLoop_preserves_tokens&#45;&gt;L4YAML.Positioned -->
<g id="edge2" class="edge">
<title>L4YAML.Proofs.ScannerCorrectness.ScanHelpers.parseBlockHeaderLoop_preserves_tokens&#45;&gt;L4YAML.Positioned</title>
<path fill="none" stroke="#4a90d9" stroke-width="2" d="M1200.23,-52.86C1223.85,-62.49 1245.69,-75.8 1263.62,-94 1281.97,-112.63 1262.8,-128.18 1273.62,-152 1286.15,-179.62 1292.67,-186.38 1316.62,-205 1323.24,-210.15 1331,-214.6 1338.67,-218.32"/>
<polygon fill="#4a90d9" stroke="#4a90d9" stroke-width="2" points="1337.68,-220.56 1345.06,-221.27 1339.73,-216.11 1337.68,-220.56"/>
<text text-anchor="middle" x="1286.12" y="-191.6" font-family="Times-Roman" font-size="8.00" fill="#4a90d9">about</text>
</g>
<!-- L4YAML.Proofs.ScannerCorrectness.ScanHelpers.parseBlockHeaderLoop_preserves_tokens&#45;&gt;L4YAML.Scanner.parseBlockHeaderLoop -->
<g id="edge6" class="edge">
<title>L4YAML.Proofs.ScannerCorrectness.ScanHelpers.parseBlockHeaderLoop_preserves_tokens&#45;&gt;L4YAML.Scanner.parseBlockHeaderLoop</title>
<path fill="none" stroke="#4a90d9" stroke-width="2" d="M1091.74,-59.49C1144.99,-69.13 1207.51,-81.2 1263.62,-94 1278.61,-97.42 1294.64,-101.49 1309.73,-105.5"/>
<polygon fill="#4a90d9" stroke="#4a90d9" stroke-width="2" points="1309.2,-107.9 1316.59,-107.34 1310.47,-103.16 1309.2,-107.9"/>
<text text-anchor="middle" x="1286.12" y="-105.6" font-family="Times-Roman" font-size="8.00" fill="#4a90d9">about</text>
</g>
<!-- L4YAML.Proofs.ScannerCorrectness.ScanHelpers.parseBlockHeaderLoop_preserves_tokens&#45;&gt;L4YAML.Scanner.ScannerState -->
<g id="edge5" class="edge">
<title>L4YAML.Proofs.ScannerCorrectness.ScanHelpers.parseBlockHeaderLoop_preserves_tokens&#45;&gt;L4YAML.Scanner.ScannerState</title>
<path fill="none" stroke="#4a90d9" stroke-width="2" d="M1205.46,-52.4C1227.46,-62.25 1247.49,-75.74 1263.62,-94 1275.55,-107.52 1267.36,-239.08 1273.62,-256 1284.61,-285.77 1291.91,-293.08 1316.62,-313 1321.18,-316.68 1326.34,-319.99 1331.64,-322.92"/>
<polygon fill="#4a90d9" stroke="#4a90d9" stroke-width="2" points="1330.58,-325.13 1337.92,-326.19 1332.84,-320.78 1330.58,-325.13"/>
<text text-anchor="middle" x="1286.12" y="-299.6" font-family="Times-Roman" font-size="8.00" fill="#4a90d9">about</text>
</g>
<!-- L4YAML.Proofs.ScannerCorrectness.ScanHelpers.parseBlockHeaderLoop_preserves_tokens&#45;&gt;L4YAML.YamlToken -->
<g id="edge4" class="edge">
<title>L4YAML.Proofs.ScannerCorrectness.ScanHelpers.parseBlockHeaderLoop_preserves_tokens&#45;&gt;L4YAML.YamlToken</title>
<path fill="none" stroke="#4a90d9" stroke-width="2" d="M1206.45,-52.48C1228.12,-62.34 1247.8,-75.82 1263.62,-94 1279.38,-112.13 1265.46,-287.4 1273.62,-310 1284.39,-339.85 1291.91,-347.08 1316.62,-367 1322.82,-372 1330.09,-376.31 1337.37,-379.92"/>
<polygon fill="#4a90d9" stroke="#4a90d9" stroke-width="2" points="1336.64,-382.28 1344.02,-383.04 1338.72,-377.85 1336.64,-382.28"/>
<text text-anchor="middle" x="1286.12" y="-353.6" font-family="Times-Roman" font-size="8.00" fill="#4a90d9">about</text>
</g>
<!-- L4YAML.Proofs.ScannerCorrectness.ScanHelpers.parseBlockHeaderLoop_preserves_tokens&#45;&gt;L4YAML.Scanner.ScannerState.tokens -->
<g id="edge1" class="edge">
<title>L4YAML.Proofs.ScannerCorrectness.ScanHelpers.parseBlockHeaderLoop_preserves_tokens&#45;&gt;L4YAML.Scanner.ScannerState.tokens</title>
<path fill="none" stroke="#4a90d9" stroke-width="2" d="M1204.18,-52.59C1226.57,-62.37 1247.03,-75.79 1263.62,-94 1279.84,-111.82 1264.91,-179.52 1273.62,-202 1285.07,-231.59 1291.91,-239.08 1316.62,-259 1318.92,-260.86 1321.37,-262.62 1323.91,-264.28"/>
<polygon fill="#4a90d9" stroke="#4a90d9" stroke-width="2" points="1322.74,-266.44 1329.99,-267.99 1325.29,-262.25 1322.74,-266.44"/>
<text text-anchor="middle" x="1286.12" y="-245.6" font-family="Times-Roman" font-size="8.00" fill="#4a90d9">about</text>
</g>
<!-- L4YAML.Scanner.parseBlockHeaderLoop.eq_def -->
<g id="node14" class="node">
<title>L4YAML.Scanner.parseBlockHeaderLoop.eq_def</title>
<g id="a_node14"><a xlink:href="../../../api/L4YAML/Proofs/Coupling/ScalarCoupling.html#L4YAML.Scanner.parseBlockHeaderLoop.eq_def" xlink:title="parseBlockHeaderLoop.eq_def\n(Coupling.ScalarCoupling)" target="_blank">
<ellipse fill="#d4edda" stroke="#28a745" cx="315.63" cy="-422" rx="106.55" ry="21.43"/>
<text text-anchor="middle" x="315.63" y="-425" font-family="Helvetica" font-size="10.00">parseBlockHeaderLoop.eq_def</text>
<text text-anchor="middle" x="315.63" y="-414" font-family="Helvetica" font-size="10.00">(Coupling.ScalarCoupling)</text>
</a>
</g>
</g>
<!-- L4YAML.Scanner.parseBlockHeaderLoop.eq_def&#45;&gt;L4YAML.Scanner.parseBlockHeaderLoop.match_1 -->
<g id="edge18" class="edge">
<title>L4YAML.Scanner.parseBlockHeaderLoop.eq_def&#45;&gt;L4YAML.Scanner.parseBlockHeaderLoop.match_1</title>
<path fill="none" stroke="#6f42c1" stroke-width="2" stroke-dasharray="5,2" d="M351.76,-401.85C411.46,-366.62 534.86,-289.49 623.26,-205 645.24,-183.99 638.58,-165.58 665.26,-151 730.81,-115.19 816.73,-111.07 879.49,-114.36"/>
<polygon fill="#6f42c1" stroke="#6f42c1" stroke-width="2" points="879.64,-116.12 884.73,-114.65 879.84,-112.62 879.64,-116.12"/>
<text text-anchor="middle" x="644.26" y="-194.4" font-family="Times-Roman" font-size="7.00" fill="#6f42c1">about</text>
</g>
<!-- L4YAML.Scanner.parseBlockHeaderLoop.eq_def&#45;&gt;L4YAML.Scanner.collectHexDigitsLoop.match_3 -->
<g id="edge13" class="edge">
<title>L4YAML.Scanner.parseBlockHeaderLoop.eq_def&#45;&gt;L4YAML.Scanner.collectHexDigitsLoop.match_3</title>
<path fill="none" stroke="#6f42c1" stroke-width="2" stroke-dasharray="5,2" d="M396.03,-407.94C466.56,-395.82 572.53,-378.5 665.26,-367 739.26,-357.82 823.97,-350.45 884.14,-345.74"/>
<polygon fill="#6f42c1" stroke="#6f42c1" stroke-width="2" points="884.31,-347.49 889.16,-345.35 884.03,-344 884.31,-347.49"/>
<text text-anchor="middle" x="644.26" y="-372.4" font-family="Times-Roman" font-size="7.00" fill="#6f42c1">about</text>
</g>
<!-- L4YAML.Scanner.parseBlockHeaderLoop.eq_def&#45;&gt;L4YAML.ChompStyle -->
<g id="edge14" class="edge">
<title>L4YAML.Scanner.parseBlockHeaderLoop.eq_def&#45;&gt;L4YAML.ChompStyle</title>
<path fill="none" stroke="#6f42c1" stroke-width="2" stroke-dasharray="5,2" d="M416.77,-415.07C478.99,-414.72 559.06,-421.66 623.26,-452 628.94,-454.69 627.48,-459.52 633.26,-462 764.08,-518.11 1131.28,-476.22 1273.62,-478 1284.73,-478.14 1290.5,-485.59 1298.62,-478 1343,-436.45 1282.18,-255.11 1316.62,-205 1321.34,-198.13 1328.27,-192.97 1335.72,-189.11"/>
<polygon fill="#6f42c1" stroke="#6f42c1" stroke-width="2" points="1336.66,-190.6 1340.41,-186.87 1335.15,-187.44 1336.66,-190.6"/>
<text text-anchor="middle" x="964.44" y="-493.4" font-family="Times-Roman" font-size="7.00" fill="#6f42c1">about</text>
</g>
<!-- L4YAML.Scanner.parseBlockHeaderLoop.eq_def&#45;&gt;L4YAML.Scanner.ScannerState.advance -->
<g id="edge12" class="edge">
<title>L4YAML.Scanner.parseBlockHeaderLoop.eq_def&#45;&gt;L4YAML.Scanner.ScannerState.advance</title>
<path fill="none" stroke="#6f42c1" stroke-width="2" stroke-dasharray="5,2" d="M420.19,-417.52C556.15,-411.63 790.53,-401.48 901.61,-396.68"/>
<polygon fill="#6f42c1" stroke="#6f42c1" stroke-width="2" points="901.88,-398.42 906.8,-396.45 901.73,-394.92 901.88,-398.42"/>
<text text-anchor="middle" x="644.26" y="-410.4" font-family="Times-Roman" font-size="7.00" fill="#6f42c1">about</text>
</g>
<!-- L4YAML.Scanner.parseBlockHeaderLoop.eq_def&#45;&gt;L4YAML.Scanner.ScannerState.peek? -->
<g id="edge19" class="edge">
<title>L4YAML.Scanner.parseBlockHeaderLoop.eq_def&#45;&gt;L4YAML.Scanner.ScannerState.peek?</title>
<path fill="none" stroke="#6f42c1" stroke-width="2" stroke-dasharray="5,2" d="M365.42,-403.11C432.06,-378.15 555.8,-334.81 665.26,-313 748.39,-296.44 846.61,-290.02 906.96,-287.54"/>
<polygon fill="#6f42c1" stroke="#6f42c1" stroke-width="2" points="907.39,-289.28 912.32,-287.33 907.25,-285.78 907.39,-289.28"/>
<text text-anchor="middle" x="644.26" y="-321.4" font-family="Times-Roman" font-size="7.00" fill="#6f42c1">about</text>
</g>
<!-- L4YAML.Scanner.parseBlockHeaderLoop.eq_def&#45;&gt;L4YAML.Scanner.parseBlockHeaderLoop -->
<g id="edge17" class="edge">
<title>L4YAML.Scanner.parseBlockHeaderLoop.eq_def&#45;&gt;L4YAML.Scanner.parseBlockHeaderLoop</title>
<path fill="none" stroke="#6f42c1" stroke-width="2" stroke-dasharray="5,2" d="M419.6,-427.05C665.13,-438.59 1266.99,-463.68 1298.62,-434 1344.57,-390.88 1280.98,-202.98 1316.62,-151 1317.9,-149.13 1319.34,-147.39 1320.91,-145.77"/>
<polygon fill="#6f42c1" stroke="#6f42c1" stroke-width="2" points="1322.31,-146.86 1324.81,-142.19 1319.94,-144.29 1322.31,-146.86"/>
<text text-anchor="middle" x="964.44" y="-449.4" font-family="Times-Roman" font-size="7.00" fill="#6f42c1">about</text>
</g>
<!-- L4YAML.Scanner.parseBlockHeaderLoop.eq_def&#45;&gt;L4YAML.Scanner.ScannerState -->
<g id="edge15" class="edge">
<title>L4YAML.Scanner.parseBlockHeaderLoop.eq_def&#45;&gt;L4YAML.Scanner.ScannerState</title>
<path fill="none" stroke="#6f42c1" stroke-width="2" stroke-dasharray="5,2" d="M399.42,-408.74C466.1,-402.71 558.98,-405.34 623.26,-452 660.95,-479.36 626.66,-521.94 665.26,-548 723.6,-587.4 1246.64,-613.49 1298.62,-566 1331.4,-536.05 1291.02,-403.28 1316.62,-367 1320.91,-360.91 1326.93,-356.16 1333.49,-352.47"/>
<polygon fill="#6f42c1" stroke="#6f42c1" stroke-width="2" points="1334.47,-353.93 1338.1,-350.08 1332.86,-350.82 1334.47,-353.93"/>
<text text-anchor="middle" x="964.44" y="-593.4" font-family="Times-Roman" font-size="7.00" fill="#6f42c1">about</text>
</g>
<!-- L4YAML.Scanner.parseBlockHeaderLoop.eq_def&#45;&gt;L4YAML.ChompStyle.keep -->
<g id="edge16" class="edge">
<title>L4YAML.Scanner.parseBlockHeaderLoop.eq_def&#45;&gt;L4YAML.ChompStyle.keep</title>
<path fill="none" stroke="#6f42c1" stroke-width="2" stroke-dasharray="5,2" d="M369.67,-403.67C438.6,-378.59 561.25,-329.57 655.26,-268 660.26,-264.72 659.78,-261.39 665.26,-259 746.11,-223.71 850.83,-223.34 912.22,-227.11"/>
<polygon fill="#6f42c1" stroke="#6f42c1" stroke-width="2" points="912.19,-228.86 917.29,-227.43 912.41,-225.37 912.19,-228.86"/>
<text text-anchor="middle" x="644.26" y="-280.4" font-family="Times-Roman" font-size="7.00" fill="#6f42c1">about</text>
</g>
<!-- L4YAML.Scanner.parseBlockHeaderLoop.eq_def&#45;&gt;L4YAML.ChompStyle.strip -->
<g id="edge20" class="edge">
<title>L4YAML.Scanner.parseBlockHeaderLoop.eq_def&#45;&gt;L4YAML.ChompStyle.strip</title>
<path fill="none" stroke="#6f42c1" stroke-width="2" stroke-dasharray="5,2" d="M361.25,-402.7C443.5,-366.34 614.37,-286.86 655.26,-237 664.71,-225.48 653.66,-214.36 665.26,-205 735.82,-148.04 848.68,-156.18 913.43,-167.14"/>
<polygon fill="#6f42c1" stroke="#6f42c1" stroke-width="2" points="913.16,-168.87 918.39,-168 913.76,-165.42 913.16,-168.87"/>
<text text-anchor="middle" x="644.26" y="-255.4" font-family="Times-Roman" font-size="7.00" fill="#6f42c1">about</text>
</g>
<!-- L4YAML.Scanner.parseBlockHeaderLoop.eq_def&#45;&gt;L4YAML.Proofs.ScannerCorrectness.ScanHelpers.parseBlockHeaderLoop_preserves_tokens -->
<g id="edge8" class="edge">
<title>L4YAML.Scanner.parseBlockHeaderLoop.eq_def&#45;&gt;L4YAML.Proofs.ScannerCorrectness.ScanHelpers.parseBlockHeaderLoop_preserves_tokens</title>
<path fill="none" stroke="#28a745" d="M365.6,-403.14C436.23,-373.08 564.61,-307.06 623.26,-205 635.82,-183.14 616.1,-110.47 633.26,-92 648.33,-75.77 666.23,-63.18 685.79,-53.51"/>
<polygon fill="#28a745" stroke="#28a745" points="686.93,-55.68 692.2,-50.46 684.82,-51.25 686.93,-55.68"/>
</g>
<!-- L4YAML.Proofs.ScannerCorrectness.advance_preserves_tokens -->
<g id="node15" class="node">
<title>L4YAML.Proofs.ScannerCorrectness.advance_preserves_tokens</title>
<g id="a_node15"><a xlink:href="../../../api/L4YAML/Proofs/Scanner/ScannerCorrectness.html#L4YAML.Proofs.ScannerCorrectness.advance_preserves_tokens" xlink:title="ScannerCorrectness.advance_preserves_tokens\n(Scanner.ScannerCorrectness)" target="_blank">
<ellipse fill="#d4edda" stroke="#28a745" cx="315.63" cy="-482" rx="160.53" ry="21.43"/>
<text text-anchor="middle" x="315.63" y="-485" font-family="Helvetica" font-size="10.00">ScannerCorrectness.advance_preserves_tokens</text>
<text text-anchor="middle" x="315.63" y="-474" font-family="Helvetica" font-size="10.00">(Scanner.ScannerCorrectness)</text>
</a>
</g>
</g>
<!-- L4YAML.Proofs.ScannerCorrectness.advance_preserves_tokens&#45;&gt;L4YAML.Positioned -->
<g id="edge24" class="edge">
<title>L4YAML.Proofs.ScannerCorrectness.advance_preserves_tokens&#45;&gt;L4YAML.Positioned</title>
<path fill="none" stroke="#6f42c1" stroke-width="2" stroke-dasharray="5,2" d="M454.17,-492.72C717.2,-512.51 1268.3,-550.31 1298.62,-522 1341.43,-482.02 1283.38,-307.24 1316.62,-259 1322.29,-250.76 1331.14,-244.99 1340.25,-240.96"/>
<polygon fill="#6f42c1" stroke="#6f42c1" stroke-width="2" points="1341.06,-242.52 1345.02,-239.01 1339.73,-239.28 1341.06,-242.52"/>
<text text-anchor="middle" x="964.44" y="-534.4" font-family="Times-Roman" font-size="7.00" fill="#6f42c1">about</text>
</g>
<!-- L4YAML.Proofs.ScannerCorrectness.advance_preserves_tokens&#45;&gt;L4YAML.Scanner.ScannerState.advance -->
<g id="edge23" class="edge">
<title>L4YAML.Proofs.ScannerCorrectness.advance_preserves_tokens&#45;&gt;L4YAML.Scanner.ScannerState.advance</title>
<path fill="none" stroke="#6f42c1" stroke-width="2" stroke-dasharray="5,2" d="M474.73,-479.06C523.23,-474.85 576.19,-466.82 623.26,-452 638.82,-447.1 641.73,-443.13 655.26,-434 659.98,-430.82 660,-428.17 665.26,-426 742.28,-394.27 839.5,-389.7 901.59,-390.74"/>
<polygon fill="#6f42c1" stroke="#6f42c1" stroke-width="2" points="901.71,-392.49 906.74,-390.84 901.77,-388.99 901.71,-392.49"/>
<text text-anchor="middle" x="644.26" y="-449.4" font-family="Times-Roman" font-size="7.00" fill="#6f42c1">about</text>
</g>
<!-- L4YAML.Proofs.ScannerCorrectness.advance_preserves_tokens&#45;&gt;L4YAML.Scanner.ScannerState -->
<g id="edge26" class="edge">
<title>L4YAML.Proofs.ScannerCorrectness.advance_preserves_tokens&#45;&gt;L4YAML.Scanner.ScannerState</title>
<path fill="none" stroke="#6f42c1" stroke-width="2" stroke-dasharray="5,2" d="M347.67,-503.06C402.44,-538.86 521.09,-610.39 633.26,-638 705.06,-655.68 1244.71,-704.63 1298.62,-654 1345.19,-610.25 1280.51,-419.72 1316.62,-367 1320.83,-360.85 1326.81,-356.07 1333.35,-352.37"/>
<polygon fill="#6f42c1" stroke="#6f42c1" stroke-width="2" points="1334.33,-353.84 1337.96,-349.98 1332.72,-350.73 1334.33,-353.84"/>
<text text-anchor="middle" x="964.44" y="-678.4" font-family="Times-Roman" font-size="7.00" fill="#6f42c1">about</text>
</g>
<!-- L4YAML.Proofs.ScannerCorrectness.advance_preserves_tokens&#45;&gt;L4YAML.YamlToken -->
<g id="edge25" class="edge">
<title>L4YAML.Proofs.ScannerCorrectness.advance_preserves_tokens&#45;&gt;L4YAML.YamlToken</title>
<path fill="none" stroke="#6f42c1" stroke-width="2" stroke-dasharray="5,2" d="M339.8,-503.05C389.25,-546.45 510.68,-644.86 633.26,-682 774.81,-724.88 1181.97,-788.93 1298.62,-698 1343.5,-663.01 1366.1,-482.33 1372.87,-417.33"/>
<polygon fill="#6f42c1" stroke="#6f42c1" stroke-width="2" points="1374.64,-417.28 1373.41,-412.13 1371.16,-416.92 1374.64,-417.28"/>
<text text-anchor="middle" x="964.44" y="-746.4" font-family="Times-Roman" font-size="7.00" fill="#6f42c1">about</text>
</g>
<!-- L4YAML.Proofs.ScannerCorrectness.advance_preserves_tokens&#45;&gt;L4YAML.Scanner.ScannerState.tokens -->
<g id="edge22" class="edge">
<title>L4YAML.Proofs.ScannerCorrectness.advance_preserves_tokens&#45;&gt;L4YAML.Scanner.ScannerState.tokens</title>
<path fill="none" stroke="#6f42c1" stroke-width="2" stroke-dasharray="5,2" d="M361.09,-502.46C426.2,-531.23 552.06,-582.3 665.26,-602 699.93,-608.03 1272.99,-634.12 1298.62,-610 1322.69,-587.34 1297.96,-340.3 1316.62,-313 1317.89,-311.13 1319.33,-309.39 1320.91,-307.76"/>
<polygon fill="#6f42c1" stroke="#6f42c1" stroke-width="2" points="1322.3,-308.86 1324.79,-304.18 1319.93,-306.28 1322.3,-308.86"/>
<text text-anchor="middle" x="964.44" y="-622.4" font-family="Times-Roman" font-size="7.00" fill="#6f42c1">about</text>
</g>
<!-- L4YAML.Proofs.ScannerCorrectness.advance_preserves_tokens&#45;&gt;L4YAML.Proofs.ScannerCorrectness.ScanHelpers.parseBlockHeaderLoop_preserves_tokens -->
<g id="edge7" class="edge">
<title>L4YAML.Proofs.ScannerCorrectness.advance_preserves_tokens&#45;&gt;L4YAML.Proofs.ScannerCorrectness.ScanHelpers.parseBlockHeaderLoop_preserves_tokens</title>
<path fill="none" stroke="#28a745" d="M439.99,-495.42C499.75,-495.89 569.93,-486.99 623.26,-452 630.91,-446.98 628.19,-441.62 633.26,-434 642.02,-420.82 649.85,-420.87 655.26,-406 667.12,-373.41 642.69,-120.34 665.26,-94 679.27,-77.65 696.41,-65.1 715.32,-55.54"/>
<polygon fill="#28a745" stroke="#28a745" points="716.56,-57.66 721.8,-52.41 714.43,-53.25 716.56,-57.66"/>
</g>
<!-- _private.L4YAML.Proofs.Scanner.ScannerCorrectness.0.L4YAML.Scanner.parseBlockHeaderLoop.match_1.eq_3 -->
<g id="node16" class="node">
<title>_private.L4YAML.Proofs.Scanner.ScannerCorrectness.0.L4YAML.Scanner.parseBlockHeaderLoop.match_1.eq_3</title>
<g id="a_node16"><a xlink:href="../../../api/L4YAML/Proofs/Scanner/ScannerCorrectness.html#_private.L4YAML.Proofs.Scanner.ScannerCorrectness.0.L4YAML.Scanner.parseBlockHeaderLoop.match_1.eq_3" xlink:title="_private.L4YAML.Proofs.Scanner.ScannerCorrectness.0.L4YAML.Scanner.parseBlockHeaderLoop.match_1.eq_3" target="_blank">
<ellipse fill="#fdebd0" stroke="#e67e22" cx="315.63" cy="-45" rx="299.76" ry="18"/>
<text text-anchor="middle" x="315.63" y="-42.5" font-family="Helvetica" font-size="10.00">_private.L4YAML.Proofs.Scanner.ScannerCorrectness.0.L4YAML.Scanner.parseBlockHeaderLoop.match_1.eq_3</text>
</a>
</g>
</g>
<!-- _private.L4YAML.Proofs.Scanner.ScannerCorrectness.0.L4YAML.Scanner.parseBlockHeaderLoop.match_1.eq_3&#45;&gt;L4YAML.Scanner.parseBlockHeaderLoop.match_1 -->
<g id="edge21" class="edge">
<title>_private.L4YAML.Proofs.Scanner.ScannerCorrectness.0.L4YAML.Scanner.parseBlockHeaderLoop.match_1.eq_3&#45;&gt;L4YAML.Scanner.parseBlockHeaderLoop.match_1</title>
<path fill="none" stroke="#6f42c1" stroke-width="2" stroke-dasharray="5,2" d="M551.96,-56.14C576.29,-60.13 600.44,-65.31 623.26,-72 643.48,-77.93 645.07,-87.95 665.26,-94 735.54,-115.08 818.89,-122.04 879.57,-124.04"/>
<polygon fill="#6f42c1" stroke="#6f42c1" stroke-width="2" points="879.58,-125.79 884.63,-124.19 879.69,-122.29 879.58,-125.79"/>
<text text-anchor="middle" x="644.26" y="-92.4" font-family="Times-Roman" font-size="7.00" fill="#6f42c1">about</text>
</g>
<!-- _private.L4YAML.Proofs.Scanner.ScannerCorrectness.0.L4YAML.Scanner.parseBlockHeaderLoop.match_1.eq_3&#45;&gt;L4YAML.Proofs.ScannerCorrectness.ScanHelpers.parseBlockHeaderLoop_preserves_tokens -->
<g id="edge9" class="edge">
<title>_private.L4YAML.Proofs.Scanner.ScannerCorrectness.0.L4YAML.Scanner.parseBlockHeaderLoop.match_1.eq_3&#45;&gt;L4YAML.Proofs.ScannerCorrectness.ScanHelpers.parseBlockHeaderLoop_preserves_tokens</title>
<path fill="none" stroke="#e67e22" stroke-width="2" d="M434.78,-28.45C499.76,-21.06 581.86,-14.5 655.26,-17 684.53,-18 715.35,-19.52 745.71,-21.31"/>
<polygon fill="#e67e22" stroke="#e67e22" stroke-width="2" points="745.86,-23.77 753,-21.74 746.16,-18.88 745.86,-23.77"/>
</g>
<!-- _private.L4YAML.Proofs.Scanner.ScannerCorrectness.0.L4YAML.Scanner.parseBlockHeaderLoop.match_1.eq_2 -->
<g id="node17" class="node">
<title>_private.L4YAML.Proofs.Scanner.ScannerCorrectness.0.L4YAML.Scanner.parseBlockHeaderLoop.match_1.eq_2</title>
<g id="a_node17"><a xlink:href="../../../api/L4YAML/Proofs/Scanner/ScannerCorrectness.html#_private.L4YAML.Proofs.Scanner.ScannerCorrectness.0.L4YAML.Scanner.parseBlockHeaderLoop.match_1.eq_2" xlink:title="_private.L4YAML.Proofs.Scanner.ScannerCorrectness.0.L4YAML.Scanner.parseBlockHeaderLoop.match_1.eq_2" target="_blank">
<ellipse fill="#fdebd0" stroke="#e67e22" cx="315.63" cy="-99" rx="299.76" ry="18"/>
<text text-anchor="middle" x="315.63" y="-96.5" font-family="Helvetica" font-size="10.00">_private.L4YAML.Proofs.Scanner.ScannerCorrectness.0.L4YAML.Scanner.parseBlockHeaderLoop.match_1.eq_2</text>
</a>
</g>
</g>
<!-- _private.L4YAML.Proofs.Scanner.ScannerCorrectness.0.L4YAML.Scanner.parseBlockHeaderLoop.match_1.eq_2&#45;&gt;L4YAML.Scanner.parseBlockHeaderLoop.match_1 -->
<g id="edge28" class="edge">
<title>_private.L4YAML.Proofs.Scanner.ScannerCorrectness.0.L4YAML.Scanner.parseBlockHeaderLoop.match_1.eq_2&#45;&gt;L4YAML.Scanner.parseBlockHeaderLoop.match_1</title>
<path fill="none" stroke="#6f42c1" stroke-width="2" stroke-dasharray="5,2" d="M503.22,-113.06C545.93,-115.81 591.15,-118.35 633.26,-120 717,-123.28 812.77,-124.12 879.53,-124.23"/>
<polygon fill="#6f42c1" stroke="#6f42c1" stroke-width="2" points="879.68,-125.99 884.69,-124.24 879.69,-122.49 879.68,-125.99"/>
<text text-anchor="middle" x="644.26" y="-123.4" font-family="Times-Roman" font-size="7.00" fill="#6f42c1">about</text>
</g>
<!-- _private.L4YAML.Proofs.Scanner.ScannerCorrectness.0.L4YAML.Scanner.parseBlockHeaderLoop.match_1.eq_2&#45;&gt;L4YAML.Proofs.ScannerCorrectness.ScanHelpers.parseBlockHeaderLoop_preserves_tokens -->
<g id="edge10" class="edge">
<title>_private.L4YAML.Proofs.Scanner.ScannerCorrectness.0.L4YAML.Scanner.parseBlockHeaderLoop.match_1.eq_2&#45;&gt;L4YAML.Proofs.ScannerCorrectness.ScanHelpers.parseBlockHeaderLoop_preserves_tokens</title>
<path fill="none" stroke="#e67e22" stroke-width="2" d="M413.34,-116.05C479.27,-122.05 564.86,-118.12 623.26,-72 634.29,-63.29 621.91,-50.29 633.26,-42 704.35,9.9 808.95,0.98 881.28,-14.47"/>
<polygon fill="#e67e22" stroke="#e67e22" stroke-width="2" points="880.81,-16.88 888.17,-15.99 881.86,-12.09 880.81,-16.88"/>
</g>
<!-- _private.L4YAML.Proofs.Scanner.ScannerCorrectness.0.L4YAML.Scanner.parseBlockHeaderLoop.match_1.eq_1 -->
<g id="node18" class="node">
<title>_private.L4YAML.Proofs.Scanner.ScannerCorrectness.0.L4YAML.Scanner.parseBlockHeaderLoop.match_1.eq_1</title>
<g id="a_node18"><a xlink:href="../../../api/L4YAML/Proofs/Scanner/ScannerCorrectness.html#_private.L4YAML.Proofs.Scanner.ScannerCorrectness.0.L4YAML.Scanner.parseBlockHeaderLoop.match_1.eq_1" xlink:title="_private.L4YAML.Proofs.Scanner.ScannerCorrectness.0.L4YAML.Scanner.parseBlockHeaderLoop.match_1.eq_1" target="_blank">
<ellipse fill="#fdebd0" stroke="#e67e22" cx="315.63" cy="-153" rx="299.76" ry="18"/>
<text text-anchor="middle" x="315.63" y="-150.5" font-family="Helvetica" font-size="10.00">_private.L4YAML.Proofs.Scanner.ScannerCorrectness.0.L4YAML.Scanner.parseBlockHeaderLoop.match_1.eq_1</text>
</a>
</g>
</g>
<!-- _private.L4YAML.Proofs.Scanner.ScannerCorrectness.0.L4YAML.Scanner.parseBlockHeaderLoop.match_1.eq_1&#45;&gt;L4YAML.Scanner.parseBlockHeaderLoop.match_1 -->
<g id="edge27" class="edge">
<title>_private.L4YAML.Proofs.Scanner.ScannerCorrectness.0.L4YAML.Scanner.parseBlockHeaderLoop.match_1.eq_1&#45;&gt;L4YAML.Scanner.parseBlockHeaderLoop.match_1</title>
<path fill="none" stroke="#6f42c1" stroke-width="2" stroke-dasharray="5,2" d="M556.56,-142.24C669.84,-137.16 797.78,-131.43 879.44,-127.77"/>
<polygon fill="#6f42c1" stroke="#6f42c1" stroke-width="2" points="879.84,-129.5 884.75,-127.53 879.68,-126 879.84,-129.5"/>
<text text-anchor="middle" x="644.26" y="-140.4" font-family="Times-Roman" font-size="7.00" fill="#6f42c1">about</text>
</g>
<!-- _private.L4YAML.Proofs.Scanner.ScannerCorrectness.0.L4YAML.Scanner.parseBlockHeaderLoop.match_1.eq_1&#45;&gt;L4YAML.Proofs.ScannerCorrectness.ScanHelpers.parseBlockHeaderLoop_preserves_tokens -->
<g id="edge11" class="edge">
<title>_private.L4YAML.Proofs.Scanner.ScannerCorrectness.0.L4YAML.Scanner.parseBlockHeaderLoop.match_1.eq_1&#45;&gt;L4YAML.Proofs.ScannerCorrectness.ScanHelpers.parseBlockHeaderLoop_preserves_tokens</title>
<path fill="none" stroke="#e67e22" stroke-width="2" d="M396.42,-170.34C465.38,-180.27 563.18,-181.46 623.26,-126 642.8,-107.96 613.71,-85.04 633.26,-67 688.35,-16.16 772.88,-9.56 842.61,-15.33"/>
<polygon fill="#e67e22" stroke="#e67e22" stroke-width="2" points="842.55,-17.78 849.74,-15.97 842.99,-12.9 842.55,-17.78"/>
</g>
</g>
</svg>
