<?xml version="1.0" encoding="UTF-8" standalone="no"?>
<!DOCTYPE svg PUBLIC "-//W3C//DTD SVG 1.1//EN"
 "http://www.w3.org/Graphics/SVG/1.1/DTD/svg11.dtd">
<!-- Generated by graphviz version 2.44.0 (0)
 -->
<!-- Title: chain_ScannerCorrectness.ScanHelpers.parseBlockHeaderLoop_preserves_tokens Pages: 1 -->
<svg width="832pt" height="310pt"
 viewBox="0.00 0.00 832.00 310.00" xmlns="http://www.w3.org/2000/svg" xmlns:xlink="http://www.w3.org/1999/xlink">
<g id="graph0" class="graph" transform="scale(1 1) rotate(0) translate(4 306)">
<title>chain_ScannerCorrectness.ScanHelpers.parseBlockHeaderLoop_preserves_tokens</title>
<polygon fill="white" stroke="transparent" points="-4,4 -4,-306 828,-306 828,4 -4,4"/>
<text text-anchor="middle" x="412" y="-287.6" font-family="Helvetica Bold" font-size="13.00">Functorial Chains: ScannerCorrectness.ScanHelpers.parseBlockHeaderLoop_preserves_tokens\n(heuristic: used by 6 proofs)</text>
<g id="clust1" class="cluster">
<title>cluster_fns</title>
<polygon fill="none" stroke="#4a90d9" stroke-dasharray="5,2" points="525.5,-8 525.5,-163 786.5,-163 786.5,-8 525.5,-8"/>
<text text-anchor="middle" x="656" y="-148.6" font-family="Helvetica Bold" font-size="13.00" fill="#4a90d9">Functions (Call Chain)</text>
</g>
<g id="clust2" class="cluster">
<title>cluster_thms</title>
<polygon fill="none" stroke="#28a745" stroke-dasharray="5,2" points="37.5,-89 37.5,-272 517.5,-272 517.5,-89 37.5,-89"/>
<text text-anchor="middle" x="277.5" y="-257.6" font-family="Helvetica Bold" font-size="13.00" fill="#28a745">Theorems (Proof Chain)</text>
</g>
<!-- L4YAML.ChompStyle -->
<g id="node1" class="node">
<title>L4YAML.ChompStyle</title>
<g id="a_node1"><a xlink:href="../../../api/L4YAML/Spec/Types.html#L4YAML.ChompStyle" xlink:title="ChompStyle" target="_blank">
<polygon fill="#dce9f7" stroke="#4a90d9" points="605,-52 534,-52 534,-16 605,-16 605,-52"/>
<text text-anchor="middle" x="569.5" y="-31.5" font-family="Helvetica" font-size="10.00">ChompStyle</text>
</a>
</g>
</g>
<!-- L4YAML.Scanner.ScannerState -->
<g id="node2" class="node">
<title>L4YAML.Scanner.ScannerState</title>
<g id="a_node2"><a xlink:href="../../../api/L4YAML/Scanner/State.html#L4YAML.Scanner.ScannerState" xlink:title="ScannerState" target="_blank">
<polygon fill="#dce9f7" stroke="#4a90d9" points="699.5,-52 623.5,-52 623.5,-16 699.5,-16 699.5,-52"/>
<text text-anchor="middle" x="661.5" y="-31.5" font-family="Helvetica" font-size="10.00">ScannerState</text>
</a>
</g>
</g>
<!-- L4YAML.Scanner.parseBlockHeaderLoop -->
<g id="node3" class="node">
<title>L4YAML.Scanner.parseBlockHeaderLoop</title>
<g id="a_node3"><a xlink:href="../../../api/L4YAML/Scanner/Scalar.html#L4YAML.Scanner.parseBlockHeaderLoop" xlink:title="parseBlockHeaderLoop" target="_blank">
<polygon fill="#dce9f7" stroke="#4a90d9" points="653,-133 534,-133 534,-97 653,-97 653,-133"/>
<text text-anchor="middle" x="593.5" y="-112.5" font-family="Helvetica" font-size="10.00">parseBlockHeaderLoop</text>
</a>
</g>
</g>
<!-- L4YAML.Scanner.parseBlockHeaderLoop&#45;&gt;L4YAML.ChompStyle -->
<g id="edge9" class="edge">
<title>L4YAML.Scanner.parseBlockHeaderLoop&#45;&gt;L4YAML.ChompStyle</title>
<path fill="none" stroke="#4a90d9" stroke-width="2" d="M588.29,-96.86C584.93,-85.78 580.5,-71.21 576.79,-58.99"/>
<polygon fill="#4a90d9" stroke="#4a90d9" stroke-width="2" points="579.08,-58.09 574.7,-52.11 574.39,-59.52 579.08,-58.09"/>
<text text-anchor="middle" x="591" y="-72.6" font-family="Times-Roman" font-size="8.00">calls</text>
</g>
<!-- L4YAML.Scanner.parseBlockHeaderLoop&#45;&gt;L4YAML.Scanner.ScannerState -->
<g id="edge2" class="edge">
<title>L4YAML.Scanner.parseBlockHeaderLoop&#45;&gt;L4YAML.Scanner.ScannerState</title>
<path fill="none" stroke="#4a90d9" stroke-width="2" d="M608.25,-96.86C618.15,-85.37 631.28,-70.11 642.02,-57.63"/>
<polygon fill="#4a90d9" stroke="#4a90d9" stroke-width="2" points="644.06,-59.01 646.77,-52.11 640.35,-55.82 644.06,-59.01"/>
<text text-anchor="middle" x="639" y="-72.6" font-family="Times-Roman" font-size="8.00">calls</text>
</g>
<!-- L4YAML.Scanner.ScannerState.tokens -->
<g id="node4" class="node">
<title>L4YAML.Scanner.ScannerState.tokens</title>
<g id="a_node4"><a xlink:href="../../../api/L4YAML/Scanner/State.html#L4YAML.Scanner.ScannerState.tokens" xlink:title="ScannerState.tokens" target="_blank">
<polygon fill="#dce9f7" stroke="#4a90d9" points="778,-133 671,-133 671,-97 778,-97 778,-133"/>
<text text-anchor="middle" x="724.5" y="-112.5" font-family="Helvetica" font-size="10.00">ScannerState.tokens</text>
</a>
</g>
</g>
<!-- L4YAML.Scanner.ScannerState.tokens&#45;&gt;L4YAML.Scanner.ScannerState -->
<g id="edge6" class="edge">
<title>L4YAML.Scanner.ScannerState.tokens&#45;&gt;L4YAML.Scanner.ScannerState</title>
<path fill="none" stroke="#4a90d9" stroke-width="2" d="M710.83,-96.86C701.67,-85.37 689.5,-70.11 679.54,-57.63"/>
<polygon fill="#4a90d9" stroke="#4a90d9" stroke-width="2" points="681.42,-56.05 675.14,-52.11 677.59,-59.11 681.42,-56.05"/>
<text text-anchor="middle" x="704" y="-72.6" font-family="Times-Roman" font-size="8.00">calls</text>
</g>
<!-- L4YAML.Scanner.parseBlockHeaderLoop.eq_def -->
<g id="node5" class="node">
<title>L4YAML.Scanner.parseBlockHeaderLoop.eq_def</title>
<g id="a_node5"><a xlink:href="../../../api/L4YAML/Proofs/Coupling/ScalarCoupling.html#L4YAML.Scanner.parseBlockHeaderLoop.eq_def" xlink:title="parseBlockHeaderLoop.eq_def" target="_blank">
<ellipse fill="#d4edda" stroke="#28a745" cx="134.5" cy="-115" rx="88.78" ry="18"/>
<text text-anchor="middle" x="134.5" y="-112.5" font-family="Helvetica" font-size="10.00">parseBlockHeaderLoop.eq_def</text>
</a>
</g>
</g>
<!-- L4YAML.Scanner.parseBlockHeaderLoop.eq_def&#45;&gt;L4YAML.ChompStyle -->
<g id="edge10" class="edge">
<title>L4YAML.Scanner.parseBlockHeaderLoop.eq_def&#45;&gt;L4YAML.ChompStyle</title>
<path fill="none" stroke="#6f42c1" stroke-width="2" stroke-dasharray="5,2" d="M186.81,-100.35C201.57,-96.58 217.64,-92.55 232.5,-89 270.15,-79.99 279.41,-76.89 317.5,-70 390.62,-56.77 476.46,-45.82 526.73,-39.86"/>
<polygon fill="#6f42c1" stroke="#6f42c1" stroke-width="2" points="527.22,-42.27 533.88,-39.01 526.64,-37.4 527.22,-42.27"/>
<text text-anchor="middle" x="330" y="-72.6" font-family="Times-Roman" font-size="8.00" fill="#6f42c1">about</text>
</g>
<!-- L4YAML.Scanner.parseBlockHeaderLoop.eq_def&#45;&gt;L4YAML.Scanner.ScannerState -->
<g id="edge8" class="edge">
<title>L4YAML.Scanner.parseBlockHeaderLoop.eq_def&#45;&gt;L4YAML.Scanner.ScannerState</title>
<path fill="none" stroke="#6f42c1" stroke-width="2" stroke-dasharray="5,2" d="M183.27,-99.93C198.89,-95.87 216.32,-91.78 232.5,-89 280.88,-80.68 293.63,-83.65 342.5,-79 402.97,-73.25 555.26,-65.43 614.5,-52 615.13,-51.86 615.76,-51.71 616.4,-51.55"/>
<polygon fill="#6f42c1" stroke="#6f42c1" stroke-width="2" points="617.13,-53.89 623.26,-49.71 615.86,-49.16 617.13,-53.89"/>
<text text-anchor="middle" x="466" y="-72.6" font-family="Times-Roman" font-size="8.00" fill="#6f42c1">about</text>
</g>
<!-- L4YAML.Proofs.ScannerCorrectness.ScanHelpers.parseBlockHeaderLoop_preserves_tokens -->
<g id="node6" class="node">
<title>L4YAML.Proofs.ScannerCorrectness.ScanHelpers.parseBlockHeaderLoop_preserves_tokens</title>
<g id="a_node6"><a xlink:href="../../../api/L4YAML/Proofs/Scanner/ScannerCorrectness.html#L4YAML.Proofs.ScannerCorrectness.ScanHelpers.parseBlockHeaderLoop_preserves_tokens" xlink:title="ScannerCorrectness.ScanHelpers.parseBlockHeaderLoop_preserves_tokens" target="_blank">
<polygon fill="#fff3cd" stroke="#d4a017" points="505.34,-212.54 505.34,-227.46 373.63,-238 187.37,-238 55.66,-227.46 55.66,-212.54 187.37,-202 373.63,-202 505.34,-212.54"/>
<polygon fill="none" stroke="#d4a017" points="509.34,-208.85 509.34,-231.15 373.79,-242 187.21,-242 51.66,-231.15 51.66,-208.85 187.21,-198 373.79,-198 509.34,-208.85"/>
<text text-anchor="middle" x="280.5" y="-217.5" font-family="Helvetica" font-size="10.00">ScannerCorrectness.ScanHelpers.parseBlockHeaderLoop_preserves_tokens</text>
</a>
</g>
</g>
<!-- L4YAML.Proofs.ScannerCorrectness.ScanHelpers.parseBlockHeaderLoop_preserves_tokens&#45;&gt;L4YAML.Scanner.parseBlockHeaderLoop -->
<g id="edge1" class="edge">
<title>L4YAML.Proofs.ScannerCorrectness.ScanHelpers.parseBlockHeaderLoop_preserves_tokens&#45;&gt;L4YAML.Scanner.parseBlockHeaderLoop</title>
<path fill="none" stroke="#6f42c1" stroke-width="2" stroke-dasharray="5,2" d="M399.26,-200.02C439.07,-191.42 483.08,-179.4 521.5,-163 537.1,-156.34 553.03,-146.34 565.93,-137.27"/>
<polygon fill="#6f42c1" stroke="#6f42c1" stroke-width="2" points="567.37,-139.25 571.63,-133.18 564.51,-135.27 567.37,-139.25"/>
<text text-anchor="middle" x="509" y="-173.6" font-family="Times-Roman" font-size="8.00" fill="#6f42c1">about</text>
</g>
<!-- L4YAML.Proofs.ScannerCorrectness.ScanHelpers.parseBlockHeaderLoop_preserves_tokens&#45;&gt;L4YAML.Scanner.ScannerState.tokens -->
<g id="edge5" class="edge">
<title>L4YAML.Proofs.ScannerCorrectness.ScanHelpers.parseBlockHeaderLoop_preserves_tokens&#45;&gt;L4YAML.Scanner.ScannerState.tokens</title>
<path fill="none" stroke="#6f42c1" stroke-width="2" stroke-dasharray="5,2" d="M490.81,-207.35C548.08,-199.09 609.03,-185.42 662.5,-163 676.71,-157.04 690.57,-147.05 701.57,-137.82"/>
<polygon fill="#6f42c1" stroke="#6f42c1" stroke-width="2" points="703.36,-139.51 707.05,-133.08 700.15,-135.81 703.36,-139.51"/>
<text text-anchor="middle" x="645" y="-173.6" font-family="Times-Roman" font-size="8.00" fill="#6f42c1">about</text>
</g>
<!-- L4YAML.Proofs.ScannerCorrectness.ScanHelpers.parseBlockHeaderLoop_preserves_tokens&#45;&gt;L4YAML.Scanner.parseBlockHeaderLoop.eq_def -->
<g id="edge7" class="edge">
<title>L4YAML.Proofs.ScannerCorrectness.ScanHelpers.parseBlockHeaderLoop_preserves_tokens&#45;&gt;L4YAML.Scanner.parseBlockHeaderLoop.eq_def</title>
<path fill="none" stroke="#28a745" stroke-width="2" d="M250.6,-197.91C225.27,-180.04 189.15,-154.55 163.94,-136.77"/>
<polygon fill="#28a745" stroke="#28a745" stroke-width="2" points="165.24,-134.69 158.1,-132.65 162.41,-138.69 165.24,-134.69"/>
<text text-anchor="middle" x="234.5" y="-173.6" font-family="Times-Roman" font-size="8.00">uses</text>
</g>
<!-- L4YAML.Proofs.ScannerCorrectness.advance_preserves_tokens -->
<g id="node7" class="node">
<title>L4YAML.Proofs.ScannerCorrectness.advance_preserves_tokens</title>
<g id="a_node7"><a xlink:href="../../../api/L4YAML/Proofs/Scanner/ScannerCorrectness.html#L4YAML.Proofs.ScannerCorrectness.advance_preserves_tokens" xlink:title="ScannerCorrectness.advance_preserves_tokens" target="_blank">
<ellipse fill="#d4edda" stroke="#28a745" cx="375.5" cy="-115" rx="133.75" ry="18"/>
<text text-anchor="middle" x="375.5" y="-112.5" font-family="Helvetica" font-size="10.00">ScannerCorrectness.advance_preserves_tokens</text>
</a>
</g>
</g>
<!-- L4YAML.Proofs.ScannerCorrectness.ScanHelpers.parseBlockHeaderLoop_preserves_tokens&#45;&gt;L4YAML.Proofs.ScannerCorrectness.advance_preserves_tokens -->
<g id="edge3" class="edge">
<title>L4YAML.Proofs.ScannerCorrectness.ScanHelpers.parseBlockHeaderLoop_preserves_tokens&#45;&gt;L4YAML.Proofs.ScannerCorrectness.advance_preserves_tokens</title>
<path fill="none" stroke="#28a745" stroke-width="2" d="M300.18,-197.66C316.24,-180.25 338.84,-155.74 355.09,-138.13"/>
<polygon fill="#28a745" stroke="#28a745" stroke-width="2" points="356.97,-139.7 359.92,-132.89 353.37,-136.38 356.97,-139.7"/>
<text text-anchor="middle" x="331.5" y="-173.6" font-family="Times-Roman" font-size="8.00">uses</text>
</g>
<!-- L4YAML.Proofs.ScannerCorrectness.advance_preserves_tokens&#45;&gt;L4YAML.Scanner.ScannerState -->
<g id="edge4" class="edge">
<title>L4YAML.Proofs.ScannerCorrectness.advance_preserves_tokens&#45;&gt;L4YAML.Scanner.ScannerState</title>
<path fill="none" stroke="#6f42c1" stroke-width="2" stroke-dasharray="5,2" d="M436.19,-98.94C495.51,-84.1 581.54,-62.21 614.5,-52 615.23,-51.78 615.96,-51.55 616.69,-51.31"/>
<polygon fill="#6f42c1" stroke="#6f42c1" stroke-width="2" points="617.49,-53.63 623.38,-49.12 615.97,-48.97 617.49,-53.63"/>
<text text-anchor="middle" x="558" y="-72.6" font-family="Times-Roman" font-size="8.00" fill="#6f42c1">about</text>
</g>
</g>
</svg>
