<?xml version="1.0" encoding="UTF-8" standalone="no"?>
<!DOCTYPE svg PUBLIC "-//W3C//DTD SVG 1.1//EN"
 "http://www.w3.org/Graphics/SVG/1.1/DTD/svg11.dtd">
<!-- Generated by graphviz version 2.44.0 (0)
 -->
<!-- Title: chain_ScannerCorrectness.ScanHelpers.preprocess_preserves_prefix Pages: 1 -->
<svg width="3560pt" height="472pt"
 viewBox="0.00 0.00 3560.00 472.00" xmlns="http://www.w3.org/2000/svg" xmlns:xlink="http://www.w3.org/1999/xlink">
<g id="graph0" class="graph" transform="scale(1 1) rotate(0) translate(4 468)">
<title>chain_ScannerCorrectness.ScanHelpers.preprocess_preserves_prefix</title>
<polygon fill="white" stroke="transparent" points="-4,4 -4,-468 3556,-468 3556,4 -4,4"/>
<text text-anchor="middle" x="1776" y="-449.6" font-family="Helvetica Bold" font-size="13.00">Functorial Chains: ScannerCorrectness.ScanHelpers.preprocess_preserves_prefix\n(heuristic: used by 5 proofs)</text>
<g id="clust1" class="cluster">
<title>cluster_fns</title>
<polygon fill="none" stroke="#4a90d9" stroke-dasharray="5,2" points="3182,-8 3182,-325 3544,-325 3544,-8 3182,-8"/>
<text text-anchor="middle" x="3363" y="-310.6" font-family="Helvetica Bold" font-size="13.00" fill="#4a90d9">Functions (Call Chain)</text>
</g>
<g id="clust2" class="cluster">
<title>cluster_thms</title>
<polygon fill="none" stroke="#28a745" stroke-dasharray="5,2" points="8,-89 8,-434 3174,-434 3174,-89 8,-89"/>
<text text-anchor="middle" x="1591" y="-419.6" font-family="Helvetica Bold" font-size="13.00" fill="#28a745">Theorems (Proof Chain)</text>
</g>
<!-- L4YAML.Scanner.ScannerState -->
<g id="node1" class="node">
<title>L4YAML.Scanner.ScannerState</title>
<g id="a_node1"><a xlink:href="../../../api/L4YAML/Scanner/State.html#L4YAML.Scanner.ScannerState" xlink:title="ScannerState" target="_blank">
<polygon fill="#dce9f7" stroke="#4a90d9" points="3266,-52 3190,-52 3190,-16 3266,-16 3266,-52"/>
<text text-anchor="middle" x="3228" y="-31.5" font-family="Helvetica" font-size="10.00">ScannerState</text>
</a>
</g>
</g>
<!-- L4YAML.Scanner.unwindIndents -->
<g id="node2" class="node">
<title>L4YAML.Scanner.unwindIndents</title>
<g id="a_node2"><a xlink:href="../../../api/L4YAML/Scanner/Indent.html#L4YAML.Scanner.unwindIndents" xlink:title="unwindIndents" target="_blank">
<polygon fill="#dce9f7" stroke="#4a90d9" points="3368,-214 3288,-214 3288,-178 3368,-178 3368,-214"/>
<text text-anchor="middle" x="3328" y="-193.5" font-family="Helvetica" font-size="10.00">unwindIndents</text>
</a>
</g>
</g>
<!-- L4YAML.Scanner.unwindIndentsLoop -->
<g id="node7" class="node">
<title>L4YAML.Scanner.unwindIndentsLoop</title>
<g id="a_node7"><a xlink:href="../../../api/L4YAML/Scanner/Indent.html#L4YAML.Scanner.unwindIndentsLoop" xlink:title="unwindIndentsLoop" target="_blank">
<polygon fill="#dce9f7" stroke="#4a90d9" points="3410.5,-133 3309.5,-133 3309.5,-97 3410.5,-97 3410.5,-133"/>
<text text-anchor="middle" x="3360" y="-112.5" font-family="Helvetica" font-size="10.00">unwindIndentsLoop</text>
</a>
</g>
</g>
<!-- L4YAML.Scanner.unwindIndents&#45;&gt;L4YAML.Scanner.unwindIndentsLoop -->
<g id="edge5" class="edge">
<title>L4YAML.Scanner.unwindIndents&#45;&gt;L4YAML.Scanner.unwindIndentsLoop</title>
<path fill="none" stroke="#4a90d9" stroke-width="2" d="M3334.94,-177.86C3339.47,-166.68 3345.44,-151.93 3350.42,-139.64"/>
<polygon fill="#4a90d9" stroke="#4a90d9" stroke-width="2" points="3352.71,-140.52 3353.07,-133.11 3348.17,-138.68 3352.71,-140.52"/>
<text text-anchor="middle" x="3353.5" y="-153.6" font-family="Times-Roman" font-size="8.00">calls</text>
</g>
<!-- L4YAML.Scanner.scanNextToken_preprocess -->
<g id="node3" class="node">
<title>L4YAML.Scanner.scanNextToken_preprocess</title>
<g id="a_node3"><a xlink:href="../../../api/L4YAML/Scanner/Scanner.html#L4YAML.Scanner.scanNextToken_preprocess" xlink:title="scanNextToken_preprocess" target="_blank">
<polygon fill="#dce9f7" stroke="#4a90d9" points="3333.5,-295 3196.5,-295 3196.5,-259 3333.5,-259 3333.5,-295"/>
<text text-anchor="middle" x="3265" y="-274.5" font-family="Helvetica" font-size="10.00">scanNextToken_preprocess</text>
</a>
</g>
</g>
<!-- L4YAML.Scanner.scanNextToken_preprocess&#45;&gt;L4YAML.Scanner.unwindIndents -->
<g id="edge2" class="edge">
<title>L4YAML.Scanner.scanNextToken_preprocess&#45;&gt;L4YAML.Scanner.unwindIndents</title>
<path fill="none" stroke="#4a90d9" stroke-width="2" d="M3278.67,-258.86C3287.83,-247.37 3300,-232.11 3309.96,-219.63"/>
<polygon fill="#4a90d9" stroke="#4a90d9" stroke-width="2" points="3311.91,-221.11 3314.36,-214.11 3308.08,-218.05 3311.91,-221.11"/>
<text text-anchor="middle" x="3307.5" y="-234.6" font-family="Times-Roman" font-size="8.00">calls</text>
</g>
<!-- L4YAML.Scanner.skipToContent -->
<g id="node4" class="node">
<title>L4YAML.Scanner.skipToContent</title>
<g id="a_node4"><a xlink:href="../../../api/L4YAML/Scanner/Whitespace.html#L4YAML.Scanner.skipToContent" xlink:title="skipToContent" target="_blank">
<polygon fill="#dce9f7" stroke="#4a90d9" points="3270,-214 3190,-214 3190,-178 3270,-178 3270,-214"/>
<text text-anchor="middle" x="3230" y="-193.5" font-family="Helvetica" font-size="10.00">skipToContent</text>
</a>
</g>
</g>
<!-- L4YAML.Scanner.scanNextToken_preprocess&#45;&gt;L4YAML.Scanner.skipToContent -->
<g id="edge13" class="edge">
<title>L4YAML.Scanner.scanNextToken_preprocess&#45;&gt;L4YAML.Scanner.skipToContent</title>
<path fill="none" stroke="#4a90d9" stroke-width="2" d="M3257.41,-258.86C3252.45,-247.68 3245.92,-232.93 3240.48,-220.64"/>
<polygon fill="#4a90d9" stroke="#4a90d9" stroke-width="2" points="3242.66,-219.52 3237.58,-214.11 3238.18,-221.5 3242.66,-219.52"/>
<text text-anchor="middle" x="3257.5" y="-234.6" font-family="Times-Roman" font-size="8.00">calls</text>
</g>
<!-- L4YAML.Scanner.saveSimpleKey -->
<g id="node6" class="node">
<title>L4YAML.Scanner.saveSimpleKey</title>
<g id="a_node6"><a xlink:href="../../../api/L4YAML/Scanner/SimpleKey.html#L4YAML.Scanner.saveSimpleKey" xlink:title="saveSimpleKey" target="_blank">
<polygon fill="#dce9f7" stroke="#4a90d9" points="3469.5,-214 3386.5,-214 3386.5,-178 3469.5,-178 3469.5,-214"/>
<text text-anchor="middle" x="3428" y="-193.5" font-family="Helvetica" font-size="10.00">saveSimpleKey</text>
</a>
</g>
</g>
<!-- L4YAML.Scanner.scanNextToken_preprocess&#45;&gt;L4YAML.Scanner.saveSimpleKey -->
<g id="edge32" class="edge">
<title>L4YAML.Scanner.scanNextToken_preprocess&#45;&gt;L4YAML.Scanner.saveSimpleKey</title>
<path fill="none" stroke="#4a90d9" stroke-width="2" d="M3300.37,-258.86C3325.57,-246.64 3359.55,-230.17 3386.12,-217.3"/>
<polygon fill="#4a90d9" stroke="#4a90d9" stroke-width="2" points="3387.47,-219.37 3392.7,-214.11 3385.33,-214.96 3387.47,-219.37"/>
<text text-anchor="middle" x="3360.5" y="-234.6" font-family="Times-Roman" font-size="8.00">calls</text>
</g>
<!-- L4YAML.Scanner.skipToContentLoop -->
<g id="node8" class="node">
<title>L4YAML.Scanner.skipToContentLoop</title>
<g id="a_node8"><a xlink:href="../../../api/L4YAML/Scanner/Whitespace.html#L4YAML.Scanner.skipToContentLoop" xlink:title="skipToContentLoop" target="_blank">
<polygon fill="#dce9f7" stroke="#4a90d9" points="3291.5,-133 3190.5,-133 3190.5,-97 3291.5,-97 3291.5,-133"/>
<text text-anchor="middle" x="3241" y="-112.5" font-family="Helvetica" font-size="10.00">skipToContentLoop</text>
</a>
</g>
</g>
<!-- L4YAML.Scanner.skipToContent&#45;&gt;L4YAML.Scanner.skipToContentLoop -->
<g id="edge16" class="edge">
<title>L4YAML.Scanner.skipToContent&#45;&gt;L4YAML.Scanner.skipToContentLoop</title>
<path fill="none" stroke="#4a90d9" stroke-width="2" d="M3232.39,-177.86C3233.91,-166.88 3235.92,-152.48 3237.61,-140.33"/>
<polygon fill="#4a90d9" stroke="#4a90d9" stroke-width="2" points="3240.08,-140.38 3238.62,-133.11 3235.23,-139.7 3240.08,-140.38"/>
<text text-anchor="middle" x="3244.5" y="-153.6" font-family="Times-Roman" font-size="8.00">calls</text>
</g>
<!-- L4YAML.Scanner.ScannerState.tokens -->
<g id="node5" class="node">
<title>L4YAML.Scanner.ScannerState.tokens</title>
<g id="a_node5"><a xlink:href="../../../api/L4YAML/Scanner/State.html#L4YAML.Scanner.ScannerState.tokens" xlink:title="ScannerState.tokens" target="_blank">
<polygon fill="#dce9f7" stroke="#4a90d9" points="3535.5,-133 3428.5,-133 3428.5,-97 3535.5,-97 3535.5,-133"/>
<text text-anchor="middle" x="3482" y="-112.5" font-family="Helvetica" font-size="10.00">ScannerState.tokens</text>
</a>
</g>
</g>
<!-- L4YAML.Scanner.ScannerState.tokens&#45;&gt;L4YAML.Scanner.ScannerState -->
<g id="edge38" class="edge">
<title>L4YAML.Scanner.ScannerState.tokens&#45;&gt;L4YAML.Scanner.ScannerState</title>
<path fill="none" stroke="#4a90d9" stroke-width="2" d="M3441.55,-96.95C3434.42,-94.16 3427.03,-91.4 3420,-89 3370.48,-72.11 3312.53,-56.35 3273.35,-46.26"/>
<polygon fill="#4a90d9" stroke="#4a90d9" stroke-width="2" points="3273.65,-43.81 3266.26,-44.45 3272.44,-48.56 3273.65,-43.81"/>
<text text-anchor="middle" x="3397.5" y="-72.6" font-family="Times-Roman" font-size="8.00">calls</text>
</g>
<!-- L4YAML.Scanner.saveSimpleKey&#45;&gt;L4YAML.Scanner.ScannerState.tokens -->
<g id="edge35" class="edge">
<title>L4YAML.Scanner.saveSimpleKey&#45;&gt;L4YAML.Scanner.ScannerState.tokens</title>
<path fill="none" stroke="#4a90d9" stroke-width="2" d="M3439.72,-177.86C3447.5,-166.47 3457.81,-151.39 3466.3,-138.96"/>
<polygon fill="#4a90d9" stroke="#4a90d9" stroke-width="2" points="3468.38,-140.27 3470.31,-133.11 3464.33,-137.5 3468.38,-140.27"/>
<text text-anchor="middle" x="3465.5" y="-153.6" font-family="Times-Roman" font-size="8.00">calls</text>
</g>
<!-- L4YAML.Scanner.unwindIndentsLoop&#45;&gt;L4YAML.Scanner.ScannerState -->
<g id="edge8" class="edge">
<title>L4YAML.Scanner.unwindIndentsLoop&#45;&gt;L4YAML.Scanner.ScannerState</title>
<path fill="none" stroke="#4a90d9" stroke-width="2" d="M3331.36,-96.86C3311.21,-84.8 3284.13,-68.59 3262.74,-55.79"/>
<polygon fill="#4a90d9" stroke="#4a90d9" stroke-width="2" points="3263.85,-53.6 3256.59,-52.11 3261.33,-57.81 3263.85,-53.6"/>
<text text-anchor="middle" x="3306.5" y="-72.6" font-family="Times-Roman" font-size="8.00">calls</text>
</g>
<!-- L4YAML.Scanner.skipToContentLoop&#45;&gt;L4YAML.Scanner.ScannerState -->
<g id="edge19" class="edge">
<title>L4YAML.Scanner.skipToContentLoop&#45;&gt;L4YAML.Scanner.ScannerState</title>
<path fill="none" stroke="#4a90d9" stroke-width="2" d="M3238.18,-96.86C3236.37,-85.88 3234,-71.48 3232,-59.33"/>
<polygon fill="#4a90d9" stroke="#4a90d9" stroke-width="2" points="3234.37,-58.62 3230.82,-52.11 3229.53,-59.41 3234.37,-58.62"/>
<text text-anchor="middle" x="3243.5" y="-72.6" font-family="Times-Roman" font-size="8.00">calls</text>
</g>
<!-- L4YAML.Proofs.ScannerCorrectness.unwindIndentsLoop_tokens_monotonic -->
<g id="node9" class="node">
<title>L4YAML.Proofs.ScannerCorrectness.unwindIndentsLoop_tokens_monotonic</title>
<g id="a_node9"><a xlink:href="../../../api/L4YAML/Proofs/Scanner/ScannerCorrectness.html#L4YAML.Proofs.ScannerCorrectness.unwindIndentsLoop_tokens_monotonic" xlink:title="ScannerCorrectness.unwindIndentsLoop_tokens_monotonic" target="_blank">
<ellipse fill="#d4edda" stroke="#28a745" cx="842" cy="-115" rx="163.12" ry="18"/>
<text text-anchor="middle" x="842" y="-112.5" font-family="Helvetica" font-size="10.00">ScannerCorrectness.unwindIndentsLoop_tokens_monotonic</text>
</a>
</g>
</g>
<!-- L4YAML.Proofs.ScannerCorrectness.unwindIndentsLoop_tokens_monotonic&#45;&gt;L4YAML.Scanner.ScannerState -->
<g id="edge10" class="edge">
<title>L4YAML.Proofs.ScannerCorrectness.unwindIndentsLoop_tokens_monotonic&#45;&gt;L4YAML.Scanner.ScannerState</title>
<path fill="none" stroke="#6f42c1" stroke-width="2" stroke-dasharray="5,2" d="M931.58,-99.95C958.08,-96.07 987.17,-92.08 1014,-89 1113.26,-77.59 1138.22,-75.1 1238,-70 2015.54,-30.23 2965.94,-33.35 3182.6,-34.67"/>
<polygon fill="#6f42c1" stroke="#6f42c1" stroke-width="2" points="3182.68,-37.12 3189.69,-34.72 3182.71,-32.22 3182.68,-37.12"/>
<text text-anchor="middle" x="1250.5" y="-72.6" font-family="Times-Roman" font-size="8.00" fill="#6f42c1">about</text>
</g>
<!-- L4YAML.Scanner.skipToContentLoop.eq_def -->
<g id="node10" class="node">
<title>L4YAML.Scanner.skipToContentLoop.eq_def</title>
<g id="a_node10"><a xlink:href="../../../api/L4YAML/Scanner/Whitespace.html#L4YAML.Scanner.skipToContentLoop.eq_def" xlink:title="skipToContentLoop.eq_def" target="_blank">
<ellipse fill="#d4edda" stroke="#28a745" cx="1671" cy="-115" rx="78.08" ry="18"/>
<text text-anchor="middle" x="1671" y="-112.5" font-family="Helvetica" font-size="10.00">skipToContentLoop.eq_def</text>
</a>
</g>
</g>
<!-- L4YAML.Scanner.skipToContentLoop.eq_def&#45;&gt;L4YAML.Scanner.ScannerState -->
<g id="edge25" class="edge">
<title>L4YAML.Scanner.skipToContentLoop.eq_def&#45;&gt;L4YAML.Scanner.ScannerState</title>
<path fill="none" stroke="#6f42c1" stroke-width="2" stroke-dasharray="5,2" d="M1713.52,-99.77C1727.81,-95.56 1743.95,-91.44 1759,-89 1946.52,-58.62 1996.18,-77.41 2186,-70 2571.52,-54.95 3037.43,-40.7 3182.6,-36.35"/>
<polygon fill="#6f42c1" stroke="#6f42c1" stroke-width="2" points="3182.75,-38.79 3189.67,-36.14 3182.6,-33.9 3182.75,-38.79"/>
<text text-anchor="middle" x="2198.5" y="-72.6" font-family="Times-Roman" font-size="8.00" fill="#6f42c1">about</text>
</g>
<!-- L4YAML.Proofs.ScannerCorrectness.saveSimpleKey_tokens_monotonic._proof_1_2 -->
<g id="node11" class="node">
<title>L4YAML.Proofs.ScannerCorrectness.saveSimpleKey_tokens_monotonic._proof_1_2</title>
<g id="a_node11"><a xlink:href="../../../api/L4YAML/Proofs/Scanner/ScannerCorrectness.html#L4YAML.Proofs.ScannerCorrectness.saveSimpleKey_tokens_monotonic._proof_1_2" xlink:title="ScannerCorrectness.saveSimpleKey_tokens_monotonic._proof_1_2" target="_blank">
<ellipse fill="#d4edda" stroke="#28a745" cx="2983" cy="-115" rx="183.15" ry="18"/>
<text text-anchor="middle" x="2983" y="-112.5" font-family="Helvetica" font-size="10.00">ScannerCorrectness.saveSimpleKey_tokens_monotonic._proof_1_2</text>
</a>
</g>
</g>
<!-- L4YAML.Proofs.ScannerCorrectness.saveSimpleKey_tokens_monotonic._proof_1_2&#45;&gt;L4YAML.Scanner.ScannerState -->
<g id="edge40" class="edge">
<title>L4YAML.Proofs.ScannerCorrectness.saveSimpleKey_tokens_monotonic._proof_1_2&#45;&gt;L4YAML.Scanner.ScannerState</title>
<path fill="none" stroke="#6f42c1" stroke-width="2" stroke-dasharray="5,2" d="M3033.76,-97.63C3077.71,-83.46 3140.68,-63.16 3182.88,-49.55"/>
<polygon fill="#6f42c1" stroke="#6f42c1" stroke-width="2" points="3183.82,-51.82 3189.73,-47.34 3182.32,-47.16 3183.82,-51.82"/>
<text text-anchor="middle" x="3124.5" y="-72.6" font-family="Times-Roman" font-size="8.00" fill="#6f42c1">about</text>
</g>
<!-- L4YAML.Proofs.ScannerCorrectness.skipToContentWs_preserves_tokens -->
<g id="node12" class="node">
<title>L4YAML.Proofs.ScannerCorrectness.skipToContentWs_preserves_tokens</title>
<g id="a_node12"><a xlink:href="../../../api/L4YAML/Proofs/Scanner/ScannerCorrectness.html#L4YAML.Proofs.ScannerCorrectness.skipToContentWs_preserves_tokens" xlink:title="ScannerCorrectness.skipToContentWs_preserves_tokens" target="_blank">
<ellipse fill="#d4edda" stroke="#28a745" cx="1926" cy="-115" rx="158.2" ry="18"/>
<text text-anchor="middle" x="1926" y="-112.5" font-family="Helvetica" font-size="10.00">ScannerCorrectness.skipToContentWs_preserves_tokens</text>
</a>
</g>
</g>
<!-- L4YAML.Proofs.ScannerCorrectness.skipToContentWs_preserves_tokens&#45;&gt;L4YAML.Scanner.ScannerState -->
<g id="edge27" class="edge">
<title>L4YAML.Proofs.ScannerCorrectness.skipToContentWs_preserves_tokens&#45;&gt;L4YAML.Scanner.ScannerState</title>
<path fill="none" stroke="#6f42c1" stroke-width="2" stroke-dasharray="5,2" d="M2010.32,-99.68C2036.72,-95.66 2066.01,-91.66 2093,-89 2515.26,-47.46 3029.17,-37.6 3182.65,-35.51"/>
<polygon fill="#6f42c1" stroke="#6f42c1" stroke-width="2" points="3182.72,-37.96 3189.69,-35.42 3182.65,-33.06 3182.72,-37.96"/>
<text text-anchor="middle" x="2321.5" y="-72.6" font-family="Times-Roman" font-size="8.00" fill="#6f42c1">about</text>
</g>
<!-- L4YAML.Proofs.ScannerCorrectness.saveSimpleKey_tokens_monotonic -->
<g id="node13" class="node">
<title>L4YAML.Proofs.ScannerCorrectness.saveSimpleKey_tokens_monotonic</title>
<g id="a_node13"><a xlink:href="../../../api/L4YAML/Proofs/Scanner/ScannerCorrectness.html#L4YAML.Proofs.ScannerCorrectness.saveSimpleKey_tokens_monotonic" xlink:title="ScannerCorrectness.saveSimpleKey_tokens_monotonic" target="_blank">
<ellipse fill="#d4edda" stroke="#28a745" cx="3013" cy="-196" rx="153.1" ry="18"/>
<text text-anchor="middle" x="3013" y="-193.5" font-family="Helvetica" font-size="10.00">ScannerCorrectness.saveSimpleKey_tokens_monotonic</text>
</a>
</g>
</g>
<!-- L4YAML.Proofs.ScannerCorrectness.saveSimpleKey_tokens_monotonic&#45;&gt;L4YAML.Scanner.ScannerState.tokens -->
<g id="edge37" class="edge">
<title>L4YAML.Proofs.ScannerCorrectness.saveSimpleKey_tokens_monotonic&#45;&gt;L4YAML.Scanner.ScannerState.tokens</title>
<path fill="none" stroke="#6f42c1" stroke-width="2" stroke-dasharray="5,2" d="M3071.71,-179.36C3109.75,-169.79 3160.49,-158.07 3206,-151 3300.32,-136.36 3326.02,-149.69 3420,-133 3420.43,-132.92 3420.86,-132.85 3421.29,-132.77"/>
<polygon fill="#6f42c1" stroke="#6f42c1" stroke-width="2" points="3421.98,-135.13 3428.37,-131.35 3421.02,-130.32 3421.98,-135.13"/>
<text text-anchor="middle" x="3218.5" y="-153.6" font-family="Times-Roman" font-size="8.00" fill="#6f42c1">about</text>
</g>
<!-- L4YAML.Proofs.ScannerCorrectness.saveSimpleKey_tokens_monotonic&#45;&gt;L4YAML.Proofs.ScannerCorrectness.saveSimpleKey_tokens_monotonic._proof_1_2 -->
<g id="edge39" class="edge">
<title>L4YAML.Proofs.ScannerCorrectness.saveSimpleKey_tokens_monotonic&#45;&gt;L4YAML.Proofs.ScannerCorrectness.saveSimpleKey_tokens_monotonic._proof_1_2</title>
<path fill="none" stroke="#28a745" stroke-width="2" d="M3006.49,-177.86C3002.28,-166.78 2996.75,-152.21 2992.11,-139.99"/>
<polygon fill="#28a745" stroke="#28a745" stroke-width="2" points="2994.27,-138.78 2989.5,-133.11 2989.69,-140.52 2994.27,-138.78"/>
<text text-anchor="middle" x="3008" y="-153.6" font-family="Times-Roman" font-size="8.00">uses</text>
</g>
<!-- L4YAML.Proofs.ScannerCorrectness.unwindIndents_preserves_prefix -->
<g id="node14" class="node">
<title>L4YAML.Proofs.ScannerCorrectness.unwindIndents_preserves_prefix</title>
<g id="a_node14"><a xlink:href="../../../api/L4YAML/Proofs/Scanner/ScannerCorrectness.html#L4YAML.Proofs.ScannerCorrectness.unwindIndents_preserves_prefix" xlink:title="ScannerCorrectness.unwindIndents_preserves_prefix" target="_blank">
<ellipse fill="#d4edda" stroke="#28a745" cx="2387" cy="-277" rx="146.65" ry="18"/>
<text text-anchor="middle" x="2387" y="-274.5" font-family="Helvetica" font-size="10.00">ScannerCorrectness.unwindIndents_preserves_prefix</text>
</a>
</g>
</g>
<!-- L4YAML.Proofs.ScannerCorrectness.unwindIndents_preserves_prefix&#45;&gt;L4YAML.Scanner.unwindIndents -->
<g id="edge4" class="edge">
<title>L4YAML.Proofs.ScannerCorrectness.unwindIndents_preserves_prefix&#45;&gt;L4YAML.Scanner.unwindIndents</title>
<path fill="none" stroke="#6f42c1" stroke-width="2" stroke-dasharray="5,2" d="M2487.37,-263.85C2505.53,-261.97 2524.31,-260.25 2542,-259 2792.17,-241.32 2857.5,-274.82 3106,-241 3122.77,-238.72 3126.37,-235.11 3143,-232 3202.93,-220.78 3219.67,-228.06 3279,-214 3279.63,-213.85 3280.27,-213.7 3280.91,-213.54"/>
<polygon fill="#6f42c1" stroke="#6f42c1" stroke-width="2" points="3281.7,-215.86 3287.81,-211.67 3280.42,-211.13 3281.7,-215.86"/>
<text text-anchor="middle" x="3155.5" y="-234.6" font-family="Times-Roman" font-size="8.00" fill="#6f42c1">about</text>
</g>
<!-- L4YAML.Proofs.ScannerCorrectness.unwindIndentsLoop_preserves_prefix -->
<g id="node23" class="node">
<title>L4YAML.Proofs.ScannerCorrectness.unwindIndentsLoop_preserves_prefix</title>
<g id="a_node23"><a xlink:href="../../../api/L4YAML/Proofs/Scanner/ScannerCorrectness.html#L4YAML.Proofs.ScannerCorrectness.unwindIndentsLoop_preserves_prefix" xlink:title="ScannerCorrectness.unwindIndentsLoop_preserves_prefix" target="_blank">
<ellipse fill="#d4edda" stroke="#28a745" cx="1101" cy="-196" rx="158.88" ry="18"/>
<text text-anchor="middle" x="1101" y="-193.5" font-family="Helvetica" font-size="10.00">ScannerCorrectness.unwindIndentsLoop_preserves_prefix</text>
</a>
</g>
</g>
<!-- L4YAML.Proofs.ScannerCorrectness.unwindIndents_preserves_prefix&#45;&gt;L4YAML.Proofs.ScannerCorrectness.unwindIndentsLoop_preserves_prefix -->
<g id="edge6" class="edge">
<title>L4YAML.Proofs.ScannerCorrectness.unwindIndents_preserves_prefix&#45;&gt;L4YAML.Proofs.ScannerCorrectness.unwindIndentsLoop_preserves_prefix</title>
<path fill="none" stroke="#28a745" stroke-width="2" d="M2259.29,-268.15C2018.06,-253.34 1497.01,-221.33 1244.27,-205.8"/>
<polygon fill="#28a745" stroke="#28a745" stroke-width="2" points="1244.38,-203.35 1237.25,-205.37 1244.08,-208.24 1244.38,-203.35"/>
<text text-anchor="middle" x="1792" y="-234.6" font-family="Times-Roman" font-size="8.00">uses</text>
</g>
<!-- L4YAML.Scanner.unwindIndentsLoop.eq_def -->
<g id="node15" class="node">
<title>L4YAML.Scanner.unwindIndentsLoop.eq_def</title>
<g id="a_node15"><a xlink:href="../../../api/L4YAML/Scanner/Indent.html#L4YAML.Scanner.unwindIndentsLoop.eq_def" xlink:title="unwindIndentsLoop.eq_def" target="_blank">
<ellipse fill="#d4edda" stroke="#28a745" cx="1101" cy="-115" rx="78.08" ry="18"/>
<text text-anchor="middle" x="1101" y="-112.5" font-family="Helvetica" font-size="10.00">unwindIndentsLoop.eq_def</text>
</a>
</g>
</g>
<!-- L4YAML.Scanner.unwindIndentsLoop.eq_def&#45;&gt;L4YAML.Scanner.ScannerState -->
<g id="edge31" class="edge">
<title>L4YAML.Scanner.unwindIndentsLoop.eq_def&#45;&gt;L4YAML.Scanner.ScannerState</title>
<path fill="none" stroke="#6f42c1" stroke-width="2" stroke-dasharray="5,2" d="M1143.51,-99.73C1157.81,-95.53 1173.94,-91.41 1189,-89 1394.56,-56.1 1448.93,-76.54 1657,-70 2260.41,-51.03 2994.52,-38.7 3182.48,-35.71"/>
<polygon fill="#6f42c1" stroke="#6f42c1" stroke-width="2" points="3182.76,-38.16 3189.72,-35.59 3182.68,-33.26 3182.76,-38.16"/>
<text text-anchor="middle" x="1669.5" y="-72.6" font-family="Times-Roman" font-size="8.00" fill="#6f42c1">about</text>
</g>
<!-- L4YAML.Proofs.ScannerCorrectness.unwindIndentsLoop_preserves_prefix._proof_1_1 -->
<g id="node16" class="node">
<title>L4YAML.Proofs.ScannerCorrectness.unwindIndentsLoop_preserves_prefix._proof_1_1</title>
<g id="a_node16"><a xlink:href="../../../api/L4YAML/Proofs/Scanner/ScannerCorrectness.html#L4YAML.Proofs.ScannerCorrectness.unwindIndentsLoop_preserves_prefix._proof_1_1" xlink:title="ScannerCorrectness.unwindIndentsLoop_preserves_prefix._proof_1_1" target="_blank">
<ellipse fill="#d4edda" stroke="#28a745" cx="1386" cy="-115" rx="188.24" ry="18"/>
<text text-anchor="middle" x="1386" y="-112.5" font-family="Helvetica" font-size="10.00">ScannerCorrectness.unwindIndentsLoop_preserves_prefix._proof_1_1</text>
</a>
</g>
</g>
<!-- L4YAML.Proofs.ScannerCorrectness.unwindIndentsLoop_preserves_prefix._proof_1_1&#45;&gt;L4YAML.Scanner.ScannerState -->
<g id="edge29" class="edge">
<title>L4YAML.Proofs.ScannerCorrectness.unwindIndentsLoop_preserves_prefix._proof_1_1&#45;&gt;L4YAML.Scanner.ScannerState</title>
<path fill="none" stroke="#6f42c1" stroke-width="2" stroke-dasharray="5,2" d="M1490.66,-99.99C1574.43,-89.49 1695.02,-75.93 1801,-70 2344.62,-39.56 3006.19,-35.59 3182.86,-35.08"/>
<polygon fill="#6f42c1" stroke="#6f42c1" stroke-width="2" points="3182.93,-37.53 3189.93,-35.06 3182.92,-32.63 3182.93,-37.53"/>
<text text-anchor="middle" x="1813.5" y="-72.6" font-family="Times-Roman" font-size="8.00" fill="#6f42c1">about</text>
</g>
<!-- L4YAML.Proofs.ScannerCorrectness.ScanHelpers.preprocess_preserves_prefix -->
<g id="node17" class="node">
<title>L4YAML.Proofs.ScannerCorrectness.ScanHelpers.preprocess_preserves_prefix</title>
<g id="a_node17"><a xlink:href="../../../api/L4YAML/Proofs/Scanner/ScannerCorrectness.html#L4YAML.Proofs.ScannerCorrectness.ScanHelpers.preprocess_preserves_prefix" xlink:title="ScannerCorrectness.ScanHelpers.preprocess_preserves_prefix" target="_blank">
<polygon fill="#fff3cd" stroke="#d4a017" points="3045.16,-374.54 3045.16,-389.46 2935.52,-400 2780.48,-400 2670.84,-389.46 2670.84,-374.54 2780.48,-364 2935.52,-364 3045.16,-374.54"/>
<polygon fill="none" stroke="#d4a017" points="3049.15,-370.91 3049.15,-393.09 2935.71,-404 2780.29,-404 2666.85,-393.09 2666.85,-370.91 2780.29,-360 2935.71,-360 3049.15,-370.91"/>
<text text-anchor="middle" x="2858" y="-379.5" font-family="Helvetica" font-size="10.00">ScannerCorrectness.ScanHelpers.preprocess_preserves_prefix</text>
</a>
</g>
</g>
<!-- L4YAML.Proofs.ScannerCorrectness.ScanHelpers.preprocess_preserves_prefix&#45;&gt;L4YAML.Scanner.scanNextToken_preprocess -->
<g id="edge1" class="edge">
<title>L4YAML.Proofs.ScannerCorrectness.ScanHelpers.preprocess_preserves_prefix&#45;&gt;L4YAML.Scanner.scanNextToken_preprocess</title>
<path fill="none" stroke="#6f42c1" stroke-width="2" stroke-dasharray="5,2" d="M3000.28,-366.11C3056.65,-357.65 3121.39,-344.66 3178,-325 3196.9,-318.44 3216.62,-308.11 3232.5,-298.81"/>
<polygon fill="#6f42c1" stroke="#6f42c1" stroke-width="2" points="3233.85,-300.85 3238.61,-295.17 3231.34,-296.64 3233.85,-300.85"/>
<text text-anchor="middle" x="3164.5" y="-335.6" font-family="Times-Roman" font-size="8.00" fill="#6f42c1">about</text>
</g>
<!-- L4YAML.Proofs.ScannerCorrectness.ScanHelpers.preprocess_preserves_prefix&#45;&gt;L4YAML.Proofs.ScannerCorrectness.unwindIndents_preserves_prefix -->
<g id="edge3" class="edge">
<title>L4YAML.Proofs.ScannerCorrectness.ScanHelpers.preprocess_preserves_prefix&#45;&gt;L4YAML.Proofs.ScannerCorrectness.unwindIndents_preserves_prefix</title>
<path fill="none" stroke="#28a745" stroke-width="2" d="M2741.38,-363.74C2681.44,-354 2607.43,-340.66 2542,-325 2508.33,-316.94 2471.19,-305.76 2441.71,-296.33"/>
<polygon fill="#28a745" stroke="#28a745" stroke-width="2" points="2442.19,-293.91 2434.77,-294.1 2440.68,-298.57 2442.19,-293.91"/>
<text text-anchor="middle" x="2629" y="-335.6" font-family="Times-Roman" font-size="8.00">uses</text>
</g>
<!-- L4YAML.Proofs.ScannerCorrectness.saveSimpleKey_preserves_prefix -->
<g id="node18" class="node">
<title>L4YAML.Proofs.ScannerCorrectness.saveSimpleKey_preserves_prefix</title>
<g id="a_node18"><a xlink:href="../../../api/L4YAML/Proofs/Scanner/ScannerCorrectness.html#L4YAML.Proofs.ScannerCorrectness.saveSimpleKey_preserves_prefix" xlink:title="ScannerCorrectness.saveSimpleKey_preserves_prefix" target="_blank">
<ellipse fill="#d4edda" stroke="#28a745" cx="3017" cy="-277" rx="148.86" ry="18"/>
<text text-anchor="middle" x="3017" y="-274.5" font-family="Helvetica" font-size="10.00">ScannerCorrectness.saveSimpleKey_preserves_prefix</text>
</a>
</g>
</g>
<!-- L4YAML.Proofs.ScannerCorrectness.ScanHelpers.preprocess_preserves_prefix&#45;&gt;L4YAML.Proofs.ScannerCorrectness.saveSimpleKey_preserves_prefix -->
<g id="edge33" class="edge">
<title>L4YAML.Proofs.ScannerCorrectness.ScanHelpers.preprocess_preserves_prefix&#45;&gt;L4YAML.Proofs.ScannerCorrectness.saveSimpleKey_preserves_prefix</title>
<path fill="none" stroke="#28a745" stroke-width="2" d="M2890.56,-359.91C2918.18,-342.02 2957.58,-316.49 2985.03,-298.71"/>
<polygon fill="#28a745" stroke="#28a745" stroke-width="2" points="2986.5,-300.68 2991.04,-294.82 2983.84,-296.56 2986.5,-300.68"/>
<text text-anchor="middle" x="2937" y="-335.6" font-family="Times-Roman" font-size="8.00">uses</text>
</g>
<!-- L4YAML.Proofs.ScannerCorrectness.skipToContent_preserves_tokens -->
<g id="node20" class="node">
<title>L4YAML.Proofs.ScannerCorrectness.skipToContent_preserves_tokens</title>
<g id="a_node20"><a xlink:href="../../../api/L4YAML/Proofs/Scanner/ScannerCorrectness.html#L4YAML.Proofs.ScannerCorrectness.skipToContent_preserves_tokens" xlink:title="ScannerCorrectness.skipToContent_preserves_tokens" target="_blank">
<ellipse fill="#d4edda" stroke="#28a745" cx="2701" cy="-277" rx="149.54" ry="18"/>
<text text-anchor="middle" x="2701" y="-274.5" font-family="Helvetica" font-size="10.00">ScannerCorrectness.skipToContent_preserves_tokens</text>
</a>
</g>
</g>
<!-- L4YAML.Proofs.ScannerCorrectness.ScanHelpers.preprocess_preserves_prefix&#45;&gt;L4YAML.Proofs.ScannerCorrectness.skipToContent_preserves_tokens -->
<g id="edge14" class="edge">
<title>L4YAML.Proofs.ScannerCorrectness.ScanHelpers.preprocess_preserves_prefix&#45;&gt;L4YAML.Proofs.ScannerCorrectness.skipToContent_preserves_tokens</title>
<path fill="none" stroke="#28a745" stroke-width="2" d="M2825.85,-359.91C2798.58,-342.02 2759.67,-316.49 2732.57,-298.71"/>
<polygon fill="#28a745" stroke="#28a745" stroke-width="2" points="2733.83,-296.61 2726.63,-294.82 2731.14,-300.7 2733.83,-296.61"/>
<text text-anchor="middle" x="2808" y="-335.6" font-family="Times-Roman" font-size="8.00">uses</text>
</g>
<!-- L4YAML.Proofs.ScannerCorrectness.saveSimpleKey_preserves_prefix&#45;&gt;L4YAML.Scanner.saveSimpleKey -->
<g id="edge34" class="edge">
<title>L4YAML.Proofs.ScannerCorrectness.saveSimpleKey_preserves_prefix&#45;&gt;L4YAML.Scanner.saveSimpleKey</title>
<path fill="none" stroke="#6f42c1" stroke-width="2" stroke-dasharray="5,2" d="M3079.28,-260.54C3118.58,-251.22 3170.53,-239.7 3217,-232 3287.6,-220.3 3307.12,-229.4 3377,-214 3377.87,-213.81 3378.75,-213.61 3379.63,-213.4"/>
<polygon fill="#6f42c1" stroke="#6f42c1" stroke-width="2" points="3380.28,-215.76 3386.45,-211.64 3379.06,-211.01 3380.28,-215.76"/>
<text text-anchor="middle" x="3229.5" y="-234.6" font-family="Times-Roman" font-size="8.00" fill="#6f42c1">about</text>
</g>
<!-- L4YAML.Proofs.ScannerCorrectness.saveSimpleKey_preserves_prefix&#45;&gt;L4YAML.Proofs.ScannerCorrectness.saveSimpleKey_tokens_monotonic -->
<g id="edge36" class="edge">
<title>L4YAML.Proofs.ScannerCorrectness.saveSimpleKey_preserves_prefix&#45;&gt;L4YAML.Proofs.ScannerCorrectness.saveSimpleKey_tokens_monotonic</title>
<path fill="none" stroke="#28a745" stroke-width="2" d="M3016.13,-258.86C3015.58,-247.88 3014.85,-233.48 3014.23,-221.33"/>
<polygon fill="#28a745" stroke="#28a745" stroke-width="2" points="3016.67,-220.98 3013.87,-214.11 3011.77,-221.22 3016.67,-220.98"/>
<text text-anchor="middle" x="3025" y="-234.6" font-family="Times-Roman" font-size="8.00">uses</text>
</g>
<!-- L4YAML.Proofs.ScannerCorrectness.unwindIndentsLoop_preserves_prefix._proof_1 -->
<g id="node19" class="node">
<title>L4YAML.Proofs.ScannerCorrectness.unwindIndentsLoop_preserves_prefix._proof_1</title>
<g id="a_node19"><a xlink:href="../../../api/L4YAML/Proofs/Scanner/ScannerCorrectness.html#L4YAML.Proofs.ScannerCorrectness.unwindIndentsLoop_preserves_prefix._proof_1" xlink:title="ScannerCorrectness.unwindIndentsLoop_preserves_prefix._proof_1" target="_blank">
<ellipse fill="#d4edda" stroke="#28a745" cx="198" cy="-115" rx="182.47" ry="18"/>
<text text-anchor="middle" x="198" y="-112.5" font-family="Helvetica" font-size="10.00">ScannerCorrectness.unwindIndentsLoop_preserves_prefix._proof_1</text>
</a>
</g>
</g>
<!-- L4YAML.Proofs.ScannerCorrectness.unwindIndentsLoop_preserves_prefix._proof_1&#45;&gt;L4YAML.Scanner.ScannerState -->
<g id="edge12" class="edge">
<title>L4YAML.Proofs.ScannerCorrectness.unwindIndentsLoop_preserves_prefix._proof_1&#45;&gt;L4YAML.Scanner.ScannerState</title>
<path fill="none" stroke="#6f42c1" stroke-width="2" stroke-dasharray="5,2" d="M296.01,-99.76C326.11,-95.79 359.37,-91.8 390,-89 550,-74.39 590.42,-75.36 751,-70 1733.7,-37.21 2936.7,-35.07 3182.78,-34.99"/>
<polygon fill="#6f42c1" stroke="#6f42c1" stroke-width="2" points="3182.78,-37.44 3189.78,-34.99 3182.78,-32.54 3182.78,-37.44"/>
<text text-anchor="middle" x="763.5" y="-72.6" font-family="Times-Roman" font-size="8.00" fill="#6f42c1">about</text>
</g>
<!-- L4YAML.Proofs.ScannerCorrectness.skipToContent_preserves_tokens&#45;&gt;L4YAML.Scanner.skipToContent -->
<g id="edge15" class="edge">
<title>L4YAML.Proofs.ScannerCorrectness.skipToContent_preserves_tokens&#45;&gt;L4YAML.Scanner.skipToContent</title>
<path fill="none" stroke="#6f42c1" stroke-width="2" stroke-dasharray="5,2" d="M2808.08,-264.37C2825.11,-262.55 2842.54,-260.71 2859,-259 2938.97,-250.7 2959.57,-253.44 3039,-241 3057.86,-238.05 3062.28,-235.74 3081,-232 3124,-223.41 3135.51,-224.84 3178,-214 3179.57,-213.6 3181.16,-213.18 3182.77,-212.74"/>
<polygon fill="#6f42c1" stroke="#6f42c1" stroke-width="2" points="3183.79,-214.99 3189.84,-210.71 3182.44,-210.28 3183.79,-214.99"/>
<text text-anchor="middle" x="3093.5" y="-234.6" font-family="Times-Roman" font-size="8.00" fill="#6f42c1">about</text>
</g>
<!-- L4YAML.Proofs.ScannerCorrectness.skipToContentLoop_preserves_tokens -->
<g id="node22" class="node">
<title>L4YAML.Proofs.ScannerCorrectness.skipToContentLoop_preserves_tokens</title>
<g id="a_node22"><a xlink:href="../../../api/L4YAML/Proofs/Scanner/ScannerCorrectness.html#L4YAML.Proofs.ScannerCorrectness.skipToContentLoop_preserves_tokens" xlink:title="ScannerCorrectness.skipToContentLoop_preserves_tokens" target="_blank">
<ellipse fill="#d4edda" stroke="#28a745" cx="2537" cy="-196" rx="161.76" ry="18"/>
<text text-anchor="middle" x="2537" y="-193.5" font-family="Helvetica" font-size="10.00">ScannerCorrectness.skipToContentLoop_preserves_tokens</text>
</a>
</g>
</g>
<!-- L4YAML.Proofs.ScannerCorrectness.skipToContent_preserves_tokens&#45;&gt;L4YAML.Proofs.ScannerCorrectness.skipToContentLoop_preserves_tokens -->
<g id="edge17" class="edge">
<title>L4YAML.Proofs.ScannerCorrectness.skipToContent_preserves_tokens&#45;&gt;L4YAML.Proofs.ScannerCorrectness.skipToContentLoop_preserves_tokens</title>
<path fill="none" stroke="#28a745" stroke-width="2" d="M2666.62,-259.44C2640.79,-247 2605.33,-229.91 2578.02,-216.76"/>
<polygon fill="#28a745" stroke="#28a745" stroke-width="2" points="2578.99,-214.51 2571.62,-213.68 2576.86,-218.92 2578.99,-214.51"/>
<text text-anchor="middle" x="2633" y="-234.6" font-family="Times-Roman" font-size="8.00">uses</text>
</g>
<!-- L4YAML.Proofs.ScannerCorrectness.consumeNewline_preserves_tokens -->
<g id="node21" class="node">
<title>L4YAML.Proofs.ScannerCorrectness.consumeNewline_preserves_tokens</title>
<g id="a_node21"><a xlink:href="../../../api/L4YAML/Proofs/Scanner/ScannerCorrectness.html#L4YAML.Proofs.ScannerCorrectness.consumeNewline_preserves_tokens" xlink:title="ScannerCorrectness.consumeNewline_preserves_tokens" target="_blank">
<ellipse fill="#d4edda" stroke="#28a745" cx="2259" cy="-115" rx="156.67" ry="18"/>
<text text-anchor="middle" x="2259" y="-112.5" font-family="Helvetica" font-size="10.00">ScannerCorrectness.consumeNewline_preserves_tokens</text>
</a>
</g>
</g>
<!-- L4YAML.Proofs.ScannerCorrectness.consumeNewline_preserves_tokens&#45;&gt;L4YAML.Scanner.ScannerState -->
<g id="edge23" class="edge">
<title>L4YAML.Proofs.ScannerCorrectness.consumeNewline_preserves_tokens&#45;&gt;L4YAML.Scanner.ScannerState</title>
<path fill="none" stroke="#6f42c1" stroke-width="2" stroke-dasharray="5,2" d="M2344.13,-99.8C2370.04,-95.85 2398.63,-91.87 2425,-89 2712.71,-57.72 3060.51,-41.71 3182.83,-36.73"/>
<polygon fill="#6f42c1" stroke="#6f42c1" stroke-width="2" points="3182.97,-39.18 3189.87,-36.45 3182.77,-34.28 3182.97,-39.18"/>
<text text-anchor="middle" x="2634.5" y="-72.6" font-family="Times-Roman" font-size="8.00" fill="#6f42c1">about</text>
</g>
<!-- L4YAML.Proofs.ScannerCorrectness.skipToContentLoop_preserves_tokens&#45;&gt;L4YAML.Scanner.skipToContentLoop -->
<g id="edge18" class="edge">
<title>L4YAML.Proofs.ScannerCorrectness.skipToContentLoop_preserves_tokens&#45;&gt;L4YAML.Scanner.skipToContentLoop</title>
<path fill="none" stroke="#6f42c1" stroke-width="2" stroke-dasharray="5,2" d="M2677.43,-187.04C2796.52,-179.89 2957.91,-169.13 3022,-160 3040.9,-157.31 3045.23,-154.49 3064,-151 3114.43,-141.62 3127.83,-143.7 3178,-133 3179.75,-132.63 3181.51,-132.24 3183.3,-131.83"/>
<polygon fill="#6f42c1" stroke="#6f42c1" stroke-width="2" points="3183.97,-134.19 3190.22,-130.2 3182.85,-129.42 3183.97,-134.19"/>
<text text-anchor="middle" x="3076.5" y="-153.6" font-family="Times-Roman" font-size="8.00" fill="#6f42c1">about</text>
</g>
<!-- L4YAML.Proofs.ScannerCorrectness.skipToContentLoop_preserves_tokens&#45;&gt;L4YAML.Scanner.skipToContentLoop.eq_def -->
<g id="edge24" class="edge">
<title>L4YAML.Proofs.ScannerCorrectness.skipToContentLoop_preserves_tokens&#45;&gt;L4YAML.Scanner.skipToContentLoop.eq_def</title>
<path fill="none" stroke="#28a745" stroke-width="2" d="M2390.94,-188.22C2234.2,-179.81 1978.18,-162.81 1759,-133 1750.81,-131.89 1742.23,-130.5 1733.77,-129.01"/>
<polygon fill="#28a745" stroke="#28a745" stroke-width="2" points="1734.03,-126.57 1726.71,-127.73 1733.16,-131.39 1734.03,-126.57"/>
<text text-anchor="middle" x="2003" y="-153.6" font-family="Times-Roman" font-size="8.00">uses</text>
</g>
<!-- L4YAML.Proofs.ScannerCorrectness.skipToContentLoop_preserves_tokens&#45;&gt;L4YAML.Proofs.ScannerCorrectness.skipToContentWs_preserves_tokens -->
<g id="edge26" class="edge">
<title>L4YAML.Proofs.ScannerCorrectness.skipToContentLoop_preserves_tokens&#45;&gt;L4YAML.Proofs.ScannerCorrectness.skipToContentWs_preserves_tokens</title>
<path fill="none" stroke="#28a745" stroke-width="2" d="M2435.76,-181.91C2324.56,-167.53 2146.73,-144.54 2033.21,-129.86"/>
<polygon fill="#28a745" stroke="#28a745" stroke-width="2" points="2033.42,-127.42 2026.16,-128.95 2032.79,-132.28 2033.42,-127.42"/>
<text text-anchor="middle" x="2259" y="-153.6" font-family="Times-Roman" font-size="8.00">uses</text>
</g>
<!-- L4YAML.Proofs.ScannerCorrectness.skipToContentLoop_preserves_tokens&#45;&gt;L4YAML.Proofs.ScannerCorrectness.consumeNewline_preserves_tokens -->
<g id="edge22" class="edge">
<title>L4YAML.Proofs.ScannerCorrectness.skipToContentLoop_preserves_tokens&#45;&gt;L4YAML.Proofs.ScannerCorrectness.consumeNewline_preserves_tokens</title>
<path fill="none" stroke="#28a745" stroke-width="2" d="M2480.74,-179.01C2434.62,-165.91 2369.39,-147.37 2321.62,-133.79"/>
<polygon fill="#28a745" stroke="#28a745" stroke-width="2" points="2322.1,-131.38 2314.7,-131.83 2320.76,-136.1 2322.1,-131.38"/>
<text text-anchor="middle" x="2416" y="-153.6" font-family="Times-Roman" font-size="8.00">uses</text>
</g>
<!-- L4YAML.Proofs.ScannerCorrectness.skipToContentComment_preserves_tokens -->
<g id="node24" class="node">
<title>L4YAML.Proofs.ScannerCorrectness.skipToContentComment_preserves_tokens</title>
<g id="a_node24"><a xlink:href="../../../api/L4YAML/Proofs/Scanner/ScannerCorrectness.html#L4YAML.Proofs.ScannerCorrectness.skipToContentComment_preserves_tokens" xlink:title="ScannerCorrectness.skipToContentComment_preserves_tokens" target="_blank">
<ellipse fill="#d4edda" stroke="#28a745" cx="2608" cy="-115" rx="174.49" ry="18"/>
<text text-anchor="middle" x="2608" y="-112.5" font-family="Helvetica" font-size="10.00">ScannerCorrectness.skipToContentComment_preserves_tokens</text>
</a>
</g>
</g>
<!-- L4YAML.Proofs.ScannerCorrectness.skipToContentLoop_preserves_tokens&#45;&gt;L4YAML.Proofs.ScannerCorrectness.skipToContentComment_preserves_tokens -->
<g id="edge20" class="edge">
<title>L4YAML.Proofs.ScannerCorrectness.skipToContentLoop_preserves_tokens&#45;&gt;L4YAML.Proofs.ScannerCorrectness.skipToContentComment_preserves_tokens</title>
<path fill="none" stroke="#28a745" stroke-width="2" d="M2552.41,-177.86C2562.73,-166.37 2576.44,-151.11 2587.66,-138.63"/>
<polygon fill="#28a745" stroke="#28a745" stroke-width="2" points="2589.77,-139.95 2592.62,-133.11 2586.12,-136.68 2589.77,-139.95"/>
<text text-anchor="middle" x="2584" y="-153.6" font-family="Times-Roman" font-size="8.00">uses</text>
</g>
<!-- L4YAML.Proofs.ScannerCorrectness.unwindIndentsLoop_preserves_prefix&#45;&gt;L4YAML.Scanner.unwindIndentsLoop -->
<g id="edge7" class="edge">
<title>L4YAML.Proofs.ScannerCorrectness.unwindIndentsLoop_preserves_prefix&#45;&gt;L4YAML.Scanner.unwindIndentsLoop</title>
<path fill="none" stroke="#6f42c1" stroke-width="2" stroke-dasharray="5,2" d="M1258.13,-193.13C1712.06,-187.61 2998.82,-171.08 3089,-160 3106.66,-157.83 3110.45,-153.93 3128,-151 3204.25,-138.28 3225.12,-147.76 3301,-133 3301.43,-132.92 3301.85,-132.83 3302.28,-132.75"/>
<polygon fill="#6f42c1" stroke="#6f42c1" stroke-width="2" points="3302.97,-135.1 3309.29,-131.23 3301.93,-130.32 3302.97,-135.1"/>
<text text-anchor="middle" x="3140.5" y="-153.6" font-family="Times-Roman" font-size="8.00" fill="#6f42c1">about</text>
</g>
<!-- L4YAML.Proofs.ScannerCorrectness.unwindIndentsLoop_preserves_prefix&#45;&gt;L4YAML.Proofs.ScannerCorrectness.unwindIndentsLoop_tokens_monotonic -->
<g id="edge9" class="edge">
<title>L4YAML.Proofs.ScannerCorrectness.unwindIndentsLoop_preserves_prefix&#45;&gt;L4YAML.Proofs.ScannerCorrectness.unwindIndentsLoop_tokens_monotonic</title>
<path fill="none" stroke="#28a745" stroke-width="2" d="M1048.28,-178.92C1005.74,-165.94 945.9,-147.69 901.62,-134.18"/>
<polygon fill="#28a745" stroke="#28a745" stroke-width="2" points="902.06,-131.76 894.65,-132.06 900.63,-136.45 902.06,-131.76"/>
<text text-anchor="middle" x="989" y="-153.6" font-family="Times-Roman" font-size="8.00">uses</text>
</g>
<!-- L4YAML.Proofs.ScannerCorrectness.unwindIndentsLoop_preserves_prefix&#45;&gt;L4YAML.Scanner.unwindIndentsLoop.eq_def -->
<g id="edge30" class="edge">
<title>L4YAML.Proofs.ScannerCorrectness.unwindIndentsLoop_preserves_prefix&#45;&gt;L4YAML.Scanner.unwindIndentsLoop.eq_def</title>
<path fill="none" stroke="#28a745" stroke-width="2" d="M1101,-177.86C1101,-166.88 1101,-152.48 1101,-140.33"/>
<polygon fill="#28a745" stroke="#28a745" stroke-width="2" points="1103.45,-140.11 1101,-133.11 1098.55,-140.11 1103.45,-140.11"/>
<text text-anchor="middle" x="1111" y="-153.6" font-family="Times-Roman" font-size="8.00">uses</text>
</g>
<!-- L4YAML.Proofs.ScannerCorrectness.unwindIndentsLoop_preserves_prefix&#45;&gt;L4YAML.Proofs.ScannerCorrectness.unwindIndentsLoop_preserves_prefix._proof_1_1 -->
<g id="edge28" class="edge">
<title>L4YAML.Proofs.ScannerCorrectness.unwindIndentsLoop_preserves_prefix&#45;&gt;L4YAML.Proofs.ScannerCorrectness.unwindIndentsLoop_preserves_prefix._proof_1_1</title>
<path fill="none" stroke="#28a745" stroke-width="2" d="M1158.33,-179.11C1205.37,-166.07 1271.97,-147.61 1320.99,-134.02"/>
<polygon fill="#28a745" stroke="#28a745" stroke-width="2" points="1321.69,-136.37 1327.78,-132.14 1320.38,-131.65 1321.69,-136.37"/>
<text text-anchor="middle" x="1262" y="-153.6" font-family="Times-Roman" font-size="8.00">uses</text>
</g>
<!-- L4YAML.Proofs.ScannerCorrectness.unwindIndentsLoop_preserves_prefix&#45;&gt;L4YAML.Proofs.ScannerCorrectness.unwindIndentsLoop_preserves_prefix._proof_1 -->
<g id="edge11" class="edge">
<title>L4YAML.Proofs.ScannerCorrectness.unwindIndentsLoop_preserves_prefix&#45;&gt;L4YAML.Proofs.ScannerCorrectness.unwindIndentsLoop_preserves_prefix._proof_1</title>
<path fill="none" stroke="#28a745" stroke-width="2" d="M978.96,-184.41C837.33,-172.1 596.75,-151.17 390,-133 372.49,-131.46 354.08,-129.84 335.88,-128.23"/>
<polygon fill="#28a745" stroke="#28a745" stroke-width="2" points="335.84,-125.77 328.65,-127.59 335.4,-130.65 335.84,-125.77"/>
<text text-anchor="middle" x="692" y="-153.6" font-family="Times-Roman" font-size="8.00">uses</text>
</g>
<!-- L4YAML.Proofs.ScannerCorrectness.emit_preserves_tokens_at -->
<g id="node25" class="node">
<title>L4YAML.Proofs.ScannerCorrectness.emit_preserves_tokens_at</title>
<g id="a_node25"><a xlink:href="../../../api/L4YAML/Proofs/Scanner/ScannerCorrectness.html#L4YAML.Proofs.ScannerCorrectness.emit_preserves_tokens_at" xlink:title="ScannerCorrectness.emit_preserves_tokens_at" target="_blank">
<ellipse fill="#d4edda" stroke="#28a745" cx="530" cy="-115" rx="131.04" ry="18"/>
<text text-anchor="middle" x="530" y="-112.5" font-family="Helvetica" font-size="10.00">ScannerCorrectness.emit_preserves_tokens_at</text>
</a>
</g>
</g>
<!-- L4YAML.Proofs.ScannerCorrectness.unwindIndentsLoop_preserves_prefix&#45;&gt;L4YAML.Proofs.ScannerCorrectness.emit_preserves_tokens_at -->
<g id="edge41" class="edge">
<title>L4YAML.Proofs.ScannerCorrectness.unwindIndentsLoop_preserves_prefix&#45;&gt;L4YAML.Proofs.ScannerCorrectness.emit_preserves_tokens_at</title>
<path fill="none" stroke="#28a745" stroke-width="2" d="M1004.46,-181.64C899.08,-167.06 731.35,-143.86 626.13,-129.3"/>
<polygon fill="#28a745" stroke="#28a745" stroke-width="2" points="626.25,-126.84 618.98,-128.31 625.58,-131.7 626.25,-126.84"/>
<text text-anchor="middle" x="842" y="-153.6" font-family="Times-Roman" font-size="8.00">uses</text>
</g>
<!-- L4YAML.Proofs.ScannerCorrectness.skipToContentComment_preserves_tokens&#45;&gt;L4YAML.Scanner.ScannerState -->
<g id="edge21" class="edge">
<title>L4YAML.Proofs.ScannerCorrectness.skipToContentComment_preserves_tokens&#45;&gt;L4YAML.Scanner.ScannerState</title>
<path fill="none" stroke="#6f42c1" stroke-width="2" stroke-dasharray="5,2" d="M2707.69,-100.14C2734.72,-96.45 2763.97,-92.52 2791,-89 2933.84,-70.42 3103.15,-49.94 3182.58,-40.42"/>
<polygon fill="#6f42c1" stroke="#6f42c1" stroke-width="2" points="3183.33,-42.8 3189.98,-39.53 3182.74,-37.93 3183.33,-42.8"/>
<text text-anchor="middle" x="2947.5" y="-72.6" font-family="Times-Roman" font-size="8.00" fill="#6f42c1">about</text>
</g>
<!-- L4YAML.Proofs.ScannerCorrectness.emit_preserves_tokens_at&#45;&gt;L4YAML.Scanner.ScannerState -->
<g id="edge42" class="edge">
<title>L4YAML.Proofs.ScannerCorrectness.emit_preserves_tokens_at&#45;&gt;L4YAML.Scanner.ScannerState</title>
<path fill="none" stroke="#6f42c1" stroke-width="2" stroke-dasharray="5,2" d="M599.88,-99.68C622.2,-95.6 647.06,-91.57 670,-89 849.96,-68.82 896,-75.7 1077,-70 1922.68,-43.39 2956.06,-36.47 3182.7,-35.23"/>
<polygon fill="#6f42c1" stroke="#6f42c1" stroke-width="2" points="3182.81,-37.68 3189.79,-35.19 3182.78,-32.78 3182.81,-37.68"/>
<text text-anchor="middle" x="1089.5" y="-72.6" font-family="Times-Roman" font-size="8.00" fill="#6f42c1">about</text>
</g>
</g>
</svg>
