<?xml version="1.0" encoding="UTF-8" standalone="no"?>
<!DOCTYPE svg PUBLIC "-//W3C//DTD SVG 1.1//EN"
 "http://www.w3.org/Graphics/SVG/1.1/DTD/svg11.dtd">
<!-- Generated by graphviz version 2.44.0 (0)
 -->
<!-- Title: chain_ScannerCorrectness.preprocess_preserves_simpleKeyStack Pages: 1 -->
<svg width="2391pt" height="472pt"
 viewBox="0.00 0.00 2391.00 472.00" xmlns="http://www.w3.org/2000/svg" xmlns:xlink="http://www.w3.org/1999/xlink">
<g id="graph0" class="graph" transform="scale(1 1) rotate(0) translate(4 468)">
<title>chain_ScannerCorrectness.preprocess_preserves_simpleKeyStack</title>
<polygon fill="white" stroke="transparent" points="-4,4 -4,-468 2387,-468 2387,4 -4,4"/>
<text text-anchor="middle" x="1191.5" y="-449.6" font-family="Helvetica Bold" font-size="13.00">Functorial Chains: ScannerCorrectness.preprocess_preserves_simpleKeyStack\n(heuristic: used by 6 proofs)</text>
<g id="clust1" class="cluster">
<title>cluster_fns</title>
<polygon fill="none" stroke="#4a90d9" stroke-dasharray="5,2" points="8,-8 8,-325 411,-325 411,-8 8,-8"/>
<text text-anchor="middle" x="209.5" y="-310.6" font-family="Helvetica Bold" font-size="13.00" fill="#4a90d9">Functions (Call Chain)</text>
</g>
<g id="clust2" class="cluster">
<title>cluster_thms</title>
<polygon fill="none" stroke="#28a745" stroke-dasharray="5,2" points="535,-89 535,-434 2375,-434 2375,-89 535,-89"/>
<text text-anchor="middle" x="1455" y="-419.6" font-family="Helvetica Bold" font-size="13.00" fill="#28a745">Theorems (Proof Chain)</text>
</g>
<!-- L4YAML.Scanner.unwindIndents -->
<g id="node1" class="node">
<title>L4YAML.Scanner.unwindIndents</title>
<g id="a_node1"><a xlink:href="../../../api/L4YAML/Scanner/Indent.html#L4YAML.Scanner.unwindIndents" xlink:title="unwindIndents" target="_blank">
<polygon fill="#dce9f7" stroke="#4a90d9" points="120,-214 40,-214 40,-178 120,-178 120,-214"/>
<text text-anchor="middle" x="80" y="-193.5" font-family="Helvetica" font-size="10.00">unwindIndents</text>
</a>
</g>
</g>
<!-- L4YAML.Scanner.ScannerState -->
<g id="node2" class="node">
<title>L4YAML.Scanner.ScannerState</title>
<g id="a_node2"><a xlink:href="../../../api/L4YAML/Scanner/State.html#L4YAML.Scanner.ScannerState" xlink:title="ScannerState" target="_blank">
<polygon fill="#dce9f7" stroke="#4a90d9" points="403,-52 327,-52 327,-16 403,-16 403,-52"/>
<text text-anchor="middle" x="365" y="-31.5" font-family="Helvetica" font-size="10.00">ScannerState</text>
</a>
</g>
</g>
<!-- L4YAML.Scanner.unwindIndents&#45;&gt;L4YAML.Scanner.ScannerState -->
<g id="edge34" class="edge">
<title>L4YAML.Scanner.unwindIndents&#45;&gt;L4YAML.Scanner.ScannerState</title>
<path fill="none" stroke="#4a90d9" stroke-width="2" d="M71.55,-177.73C61.96,-155.44 49.76,-116.27 67,-89 93.53,-47.02 243.18,-37.59 319.79,-35.53"/>
<polygon fill="#4a90d9" stroke="#4a90d9" stroke-width="2" points="320.03,-37.98 326.97,-35.36 319.91,-33.08 320.03,-37.98"/>
<text text-anchor="middle" x="76.5" y="-113.1" font-family="Times-Roman" font-size="8.00">calls</text>
</g>
<!-- L4YAML.Scanner.unwindIndentsLoop -->
<g id="node6" class="node">
<title>L4YAML.Scanner.unwindIndentsLoop</title>
<g id="a_node6"><a xlink:href="../../../api/L4YAML/Scanner/Indent.html#L4YAML.Scanner.unwindIndentsLoop" xlink:title="unwindIndentsLoop" target="_blank">
<polygon fill="#dce9f7" stroke="#4a90d9" points="227.5,-133 126.5,-133 126.5,-97 227.5,-97 227.5,-133"/>
<text text-anchor="middle" x="177" y="-112.5" font-family="Helvetica" font-size="10.00">unwindIndentsLoop</text>
</a>
</g>
</g>
<!-- L4YAML.Scanner.unwindIndents&#45;&gt;L4YAML.Scanner.unwindIndentsLoop -->
<g id="edge20" class="edge">
<title>L4YAML.Scanner.unwindIndents&#45;&gt;L4YAML.Scanner.unwindIndentsLoop</title>
<path fill="none" stroke="#4a90d9" stroke-width="2" d="M101.05,-177.86C115.54,-166.06 134.9,-150.28 150.45,-137.62"/>
<polygon fill="#4a90d9" stroke="#4a90d9" stroke-width="2" points="152.11,-139.43 155.99,-133.11 149.02,-135.63 152.11,-139.43"/>
<text text-anchor="middle" x="140.5" y="-153.6" font-family="Times-Roman" font-size="8.00">calls</text>
</g>
<!-- L4YAML.Scanner.scanNextToken_preprocess -->
<g id="node3" class="node">
<title>L4YAML.Scanner.scanNextToken_preprocess</title>
<g id="a_node3"><a xlink:href="../../../api/L4YAML/Scanner/Scanner.html#L4YAML.Scanner.scanNextToken_preprocess" xlink:title="scanNextToken_preprocess" target="_blank">
<polygon fill="#dce9f7" stroke="#4a90d9" points="319.5,-295 182.5,-295 182.5,-259 319.5,-259 319.5,-295"/>
<text text-anchor="middle" x="251" y="-274.5" font-family="Helvetica" font-size="10.00">scanNextToken_preprocess</text>
</a>
</g>
</g>
<!-- L4YAML.Scanner.scanNextToken_preprocess&#45;&gt;L4YAML.Scanner.unwindIndents -->
<g id="edge17" class="edge">
<title>L4YAML.Scanner.scanNextToken_preprocess&#45;&gt;L4YAML.Scanner.unwindIndents</title>
<path fill="none" stroke="#4a90d9" stroke-width="2" d="M213.9,-258.86C187.34,-246.59 151.5,-230.03 123.58,-217.14"/>
<polygon fill="#4a90d9" stroke="#4a90d9" stroke-width="2" points="124.41,-214.82 117.03,-214.11 122.36,-219.27 124.41,-214.82"/>
<text text-anchor="middle" x="179.5" y="-234.6" font-family="Times-Roman" font-size="8.00">calls</text>
</g>
<!-- L4YAML.Scanner.ScannerState.simpleKeyStack -->
<g id="node4" class="node">
<title>L4YAML.Scanner.ScannerState.simpleKeyStack</title>
<g id="a_node4"><a xlink:href="../../../api/L4YAML/Scanner/State.html#L4YAML.Scanner.ScannerState.simpleKeyStack" xlink:title="ScannerState.simpleKeyStack" target="_blank">
<polygon fill="#dce9f7" stroke="#4a90d9" points="402.5,-214 253.5,-214 253.5,-178 402.5,-178 402.5,-214"/>
<text text-anchor="middle" x="328" y="-193.5" font-family="Helvetica" font-size="10.00">ScannerState.simpleKeyStack</text>
</a>
</g>
</g>
<!-- L4YAML.Scanner.scanNextToken_preprocess&#45;&gt;L4YAML.Scanner.ScannerState.simpleKeyStack -->
<g id="edge28" class="edge">
<title>L4YAML.Scanner.scanNextToken_preprocess&#45;&gt;L4YAML.Scanner.ScannerState.simpleKeyStack</title>
<path fill="none" stroke="#4a90d9" stroke-width="2" d="M257.04,-258.81C260.7,-250.09 266.02,-239.74 273,-232 277.6,-226.89 283.12,-222.24 288.86,-218.11"/>
<polygon fill="#4a90d9" stroke="#4a90d9" stroke-width="2" points="290.24,-220.13 294.64,-214.16 287.48,-216.09 290.24,-220.13"/>
<text text-anchor="middle" x="282.5" y="-234.6" font-family="Times-Roman" font-size="8.00">calls</text>
</g>
<!-- L4YAML.Scanner.skipToContent -->
<g id="node5" class="node">
<title>L4YAML.Scanner.skipToContent</title>
<g id="a_node5"><a xlink:href="../../../api/L4YAML/Scanner/Whitespace.html#L4YAML.Scanner.skipToContent" xlink:title="skipToContent" target="_blank">
<polygon fill="#dce9f7" stroke="#4a90d9" points="235,-214 155,-214 155,-178 235,-178 235,-214"/>
<text text-anchor="middle" x="195" y="-193.5" font-family="Helvetica" font-size="10.00">skipToContent</text>
</a>
</g>
</g>
<!-- L4YAML.Scanner.scanNextToken_preprocess&#45;&gt;L4YAML.Scanner.skipToContent -->
<g id="edge2" class="edge">
<title>L4YAML.Scanner.scanNextToken_preprocess&#45;&gt;L4YAML.Scanner.skipToContent</title>
<path fill="none" stroke="#4a90d9" stroke-width="2" d="M238.85,-258.86C230.78,-247.47 220.08,-232.39 211.28,-219.96"/>
<polygon fill="#4a90d9" stroke="#4a90d9" stroke-width="2" points="213.17,-218.4 207.13,-214.11 209.18,-221.24 213.17,-218.4"/>
<text text-anchor="middle" x="233.5" y="-234.6" font-family="Times-Roman" font-size="8.00">calls</text>
</g>
<!-- L4YAML.Scanner.ScannerState.simpleKeyStack&#45;&gt;L4YAML.Scanner.ScannerState -->
<g id="edge30" class="edge">
<title>L4YAML.Scanner.ScannerState.simpleKeyStack&#45;&gt;L4YAML.Scanner.ScannerState</title>
<path fill="none" stroke="#4a90d9" stroke-width="2" d="M306.92,-177.87C294.76,-166.58 280.61,-150.65 274,-133 267.14,-114.69 264.32,-105.99 274,-89 284.12,-71.23 302.65,-58.7 320.36,-50.22"/>
<polygon fill="#4a90d9" stroke="#4a90d9" stroke-width="2" points="321.47,-52.4 326.83,-47.27 319.44,-47.94 321.47,-52.4"/>
<text text-anchor="middle" x="283.5" y="-113.1" font-family="Times-Roman" font-size="8.00">calls</text>
</g>
<!-- L4YAML.Scanner.skipToContent&#45;&gt;L4YAML.Scanner.ScannerState -->
<g id="edge35" class="edge">
<title>L4YAML.Scanner.skipToContent&#45;&gt;L4YAML.Scanner.ScannerState</title>
<path fill="none" stroke="#4a90d9" stroke-width="2" d="M154.63,-180.02C134.03,-170.07 110.86,-154.78 99,-133 89.65,-115.83 86.62,-104.14 99,-89 126.37,-55.51 251.25,-42.29 319.73,-37.48"/>
<polygon fill="#4a90d9" stroke="#4a90d9" stroke-width="2" points="320.17,-39.91 326.99,-36.99 319.84,-35.02 320.17,-39.91"/>
<text text-anchor="middle" x="108.5" y="-113.1" font-family="Times-Roman" font-size="8.00">calls</text>
</g>
<!-- L4YAML.Scanner.skipToContentLoop -->
<g id="node7" class="node">
<title>L4YAML.Scanner.skipToContentLoop</title>
<g id="a_node7"><a xlink:href="../../../api/L4YAML/Scanner/Whitespace.html#L4YAML.Scanner.skipToContentLoop" xlink:title="skipToContentLoop" target="_blank">
<polygon fill="#dce9f7" stroke="#4a90d9" points="402.5,-133 301.5,-133 301.5,-97 402.5,-97 402.5,-133"/>
<text text-anchor="middle" x="352" y="-112.5" font-family="Helvetica" font-size="10.00">skipToContentLoop</text>
</a>
</g>
</g>
<!-- L4YAML.Scanner.skipToContent&#45;&gt;L4YAML.Scanner.skipToContentLoop -->
<g id="edge5" class="edge">
<title>L4YAML.Scanner.skipToContent&#45;&gt;L4YAML.Scanner.skipToContentLoop</title>
<path fill="none" stroke="#4a90d9" stroke-width="2" d="M229.07,-177.86C253.34,-165.64 286.07,-149.17 311.66,-136.3"/>
<polygon fill="#4a90d9" stroke="#4a90d9" stroke-width="2" points="312.85,-138.44 318,-133.11 310.65,-134.07 312.85,-138.44"/>
<text text-anchor="middle" x="287.5" y="-153.6" font-family="Times-Roman" font-size="8.00">calls</text>
</g>
<!-- L4YAML.Scanner.unwindIndentsLoop&#45;&gt;L4YAML.Scanner.ScannerState -->
<g id="edge23" class="edge">
<title>L4YAML.Scanner.unwindIndentsLoop&#45;&gt;L4YAML.Scanner.ScannerState</title>
<path fill="none" stroke="#4a90d9" stroke-width="2" d="M197.76,-96.82C209.55,-87.78 224.92,-77.12 240,-70 265.32,-58.04 295.5,-49.45 319.86,-43.77"/>
<polygon fill="#4a90d9" stroke="#4a90d9" stroke-width="2" points="320.61,-46.11 326.9,-42.17 319.53,-41.33 320.61,-46.11"/>
<text text-anchor="middle" x="249.5" y="-72.6" font-family="Times-Roman" font-size="8.00">calls</text>
</g>
<!-- L4YAML.Scanner.skipToContentLoop&#45;&gt;L4YAML.Scanner.ScannerState -->
<g id="edge8" class="edge">
<title>L4YAML.Scanner.skipToContentLoop&#45;&gt;L4YAML.Scanner.ScannerState</title>
<path fill="none" stroke="#4a90d9" stroke-width="2" d="M354.82,-96.86C356.63,-85.88 359,-71.48 361,-59.33"/>
<polygon fill="#4a90d9" stroke="#4a90d9" stroke-width="2" points="363.47,-59.41 362.18,-52.11 358.63,-58.62 363.47,-59.41"/>
<text text-anchor="middle" x="367.5" y="-72.6" font-family="Times-Roman" font-size="8.00">calls</text>
</g>
<!-- L4YAML.Scanner.skipToContentLoop.eq_def -->
<g id="node8" class="node">
<title>L4YAML.Scanner.skipToContentLoop.eq_def</title>
<g id="a_node8"><a xlink:href="../../../api/L4YAML/Scanner/Whitespace.html#L4YAML.Scanner.skipToContentLoop.eq_def" xlink:title="skipToContentLoop.eq_def" target="_blank">
<ellipse fill="#d4edda" stroke="#28a745" cx="1109" cy="-115" rx="78.08" ry="18"/>
<text text-anchor="middle" x="1109" y="-112.5" font-family="Helvetica" font-size="10.00">skipToContentLoop.eq_def</text>
</a>
</g>
</g>
<!-- L4YAML.Scanner.skipToContentLoop.eq_def&#45;&gt;L4YAML.Scanner.ScannerState -->
<g id="edge10" class="edge">
<title>L4YAML.Scanner.skipToContentLoop.eq_def&#45;&gt;L4YAML.Scanner.ScannerState</title>
<path fill="none" stroke="#6f42c1" stroke-width="2" stroke-dasharray="5,2" d="M1066.03,-99.83C1052.12,-95.73 1036.53,-91.66 1022,-89 794.75,-47.43 517.38,-37.84 410.23,-35.65"/>
<polygon fill="#6f42c1" stroke="#6f42c1" stroke-width="2" points="410.16,-33.19 403.12,-35.51 410.07,-38.09 410.16,-33.19"/>
<text text-anchor="middle" x="963.5" y="-72.6" font-family="Times-Roman" font-size="8.00" fill="#6f42c1">about</text>
</g>
<!-- L4YAML.Proofs.ScannerCorrectness.emit_preserves_simpleKeyStack -->
<g id="node9" class="node">
<title>L4YAML.Proofs.ScannerCorrectness.emit_preserves_simpleKeyStack</title>
<g id="a_node9"><a xlink:href="../../../api/L4YAML/Proofs/Scanner/ScannerCorrectness.html#L4YAML.Proofs.ScannerCorrectness.emit_preserves_simpleKeyStack" xlink:title="ScannerCorrectness.emit_preserves_simpleKeyStack" target="_blank">
<ellipse fill="#d4edda" stroke="#28a745" cx="865" cy="-115" rx="147.51" ry="18"/>
<text text-anchor="middle" x="865" y="-112.5" font-family="Helvetica" font-size="10.00">ScannerCorrectness.emit_preserves_simpleKeyStack</text>
</a>
</g>
</g>
<!-- L4YAML.Proofs.ScannerCorrectness.emit_preserves_simpleKeyStack&#45;&gt;L4YAML.Scanner.ScannerState -->
<g id="edge25" class="edge">
<title>L4YAML.Proofs.ScannerCorrectness.emit_preserves_simpleKeyStack&#45;&gt;L4YAML.Scanner.ScannerState</title>
<path fill="none" stroke="#6f42c1" stroke-width="2" stroke-dasharray="5,2" d="M779.04,-100.28C755.97,-96.61 731.04,-92.65 708,-89 601.15,-72.08 475.55,-52.35 409.99,-42.06"/>
<polygon fill="#6f42c1" stroke="#6f42c1" stroke-width="2" points="410.37,-39.64 403.07,-40.97 409.61,-44.48 410.37,-39.64"/>
<text text-anchor="middle" x="654.5" y="-72.6" font-family="Times-Roman" font-size="8.00" fill="#6f42c1">about</text>
</g>
<!-- L4YAML.Proofs.ScannerCorrectness.unwindIndents_preserves_simpleKeyStack -->
<g id="node10" class="node">
<title>L4YAML.Proofs.ScannerCorrectness.unwindIndents_preserves_simpleKeyStack</title>
<g id="a_node10"><a xlink:href="../../../api/L4YAML/Proofs/Scanner/ScannerCorrectness.html#L4YAML.Proofs.ScannerCorrectness.unwindIndents_preserves_simpleKeyStack" xlink:title="ScannerCorrectness.unwindIndents_preserves_simpleKeyStack" target="_blank">
<ellipse fill="#d4edda" stroke="#28a745" cx="717" cy="-277" rx="174.49" ry="18"/>
<text text-anchor="middle" x="717" y="-274.5" font-family="Helvetica" font-size="10.00">ScannerCorrectness.unwindIndents_preserves_simpleKeyStack</text>
</a>
</g>
</g>
<!-- L4YAML.Proofs.ScannerCorrectness.unwindIndents_preserves_simpleKeyStack&#45;&gt;L4YAML.Scanner.unwindIndents -->
<g id="edge19" class="edge">
<title>L4YAML.Proofs.ScannerCorrectness.unwindIndents_preserves_simpleKeyStack&#45;&gt;L4YAML.Scanner.unwindIndents</title>
<path fill="none" stroke="#6f42c1" stroke-width="2" stroke-dasharray="5,2" d="M597.21,-263.92C442.86,-248.22 189.16,-221.86 146,-214 139.84,-212.88 133.42,-211.5 127.09,-210.01"/>
<polygon fill="#6f42c1" stroke="#6f42c1" stroke-width="2" points="127.67,-207.63 120.28,-208.36 126.51,-212.39 127.67,-207.63"/>
<text text-anchor="middle" x="386.5" y="-234.6" font-family="Times-Roman" font-size="8.00" fill="#6f42c1">about</text>
</g>
<!-- L4YAML.Proofs.ScannerCorrectness.unwindIndents_preserves_simpleKeyStack&#45;&gt;L4YAML.Scanner.ScannerState.simpleKeyStack -->
<g id="edge29" class="edge">
<title>L4YAML.Proofs.ScannerCorrectness.unwindIndents_preserves_simpleKeyStack&#45;&gt;L4YAML.Scanner.ScannerState.simpleKeyStack</title>
<path fill="none" stroke="#6f42c1" stroke-width="2" stroke-dasharray="5,2" d="M610.24,-262.71C570.7,-257.05 525.62,-249.72 485,-241 453.1,-234.15 418.1,-224.55 389.26,-216.06"/>
<polygon fill="#6f42c1" stroke="#6f42c1" stroke-width="2" points="389.85,-213.68 382.44,-214.05 388.46,-218.38 389.85,-213.68"/>
<text text-anchor="middle" x="497.5" y="-234.6" font-family="Times-Roman" font-size="8.00" fill="#6f42c1">about</text>
</g>
<!-- L4YAML.Proofs.ScannerCorrectness.unwindIndentsLoop_preserves_simpleKeyStack -->
<g id="node14" class="node">
<title>L4YAML.Proofs.ScannerCorrectness.unwindIndentsLoop_preserves_simpleKeyStack</title>
<g id="a_node14"><a xlink:href="../../../api/L4YAML/Proofs/Scanner/ScannerCorrectness.html#L4YAML.Proofs.ScannerCorrectness.unwindIndentsLoop_preserves_simpleKeyStack" xlink:title="ScannerCorrectness.unwindIndentsLoop_preserves_simpleKeyStack" target="_blank">
<ellipse fill="#d4edda" stroke="#28a745" cx="730" cy="-196" rx="186.71" ry="18"/>
<text text-anchor="middle" x="730" y="-193.5" font-family="Helvetica" font-size="10.00">ScannerCorrectness.unwindIndentsLoop_preserves_simpleKeyStack</text>
</a>
</g>
</g>
<!-- L4YAML.Proofs.ScannerCorrectness.unwindIndents_preserves_simpleKeyStack&#45;&gt;L4YAML.Proofs.ScannerCorrectness.unwindIndentsLoop_preserves_simpleKeyStack -->
<g id="edge21" class="edge">
<title>L4YAML.Proofs.ScannerCorrectness.unwindIndents_preserves_simpleKeyStack&#45;&gt;L4YAML.Proofs.ScannerCorrectness.unwindIndentsLoop_preserves_simpleKeyStack</title>
<path fill="none" stroke="#28a745" stroke-width="2" d="M719.82,-258.86C721.63,-247.88 724,-233.48 726,-221.33"/>
<polygon fill="#28a745" stroke="#28a745" stroke-width="2" points="728.47,-221.41 727.18,-214.11 723.63,-220.62 728.47,-221.41"/>
<text text-anchor="middle" x="733" y="-234.6" font-family="Times-Roman" font-size="8.00">uses</text>
</g>
<!-- L4YAML.Scanner.unwindIndentsLoop.eq_def -->
<g id="node11" class="node">
<title>L4YAML.Scanner.unwindIndentsLoop.eq_def</title>
<g id="a_node11"><a xlink:href="../../../api/L4YAML/Scanner/Indent.html#L4YAML.Scanner.unwindIndentsLoop.eq_def" xlink:title="unwindIndentsLoop.eq_def" target="_blank">
<ellipse fill="#d4edda" stroke="#28a745" cx="621" cy="-115" rx="78.08" ry="18"/>
<text text-anchor="middle" x="621" y="-112.5" font-family="Helvetica" font-size="10.00">unwindIndentsLoop.eq_def</text>
</a>
</g>
</g>
<!-- L4YAML.Scanner.unwindIndentsLoop.eq_def&#45;&gt;L4YAML.Scanner.ScannerState -->
<g id="edge27" class="edge">
<title>L4YAML.Scanner.unwindIndentsLoop.eq_def&#45;&gt;L4YAML.Scanner.ScannerState</title>
<path fill="none" stroke="#6f42c1" stroke-width="2" stroke-dasharray="5,2" d="M587.3,-98.52C566.49,-89.37 539.05,-78.04 514,-70 479.68,-58.99 439.91,-49.82 410.09,-43.64"/>
<polygon fill="#6f42c1" stroke="#6f42c1" stroke-width="2" points="410.47,-41.21 403.12,-42.21 409.48,-46.01 410.47,-41.21"/>
<text text-anchor="middle" x="549.5" y="-72.6" font-family="Times-Roman" font-size="8.00" fill="#6f42c1">about</text>
</g>
<!-- L4YAML.Proofs.ScannerCorrectness.skipToContentComment_preserves_simpleKeyStack -->
<g id="node12" class="node">
<title>L4YAML.Proofs.ScannerCorrectness.skipToContentComment_preserves_simpleKeyStack</title>
<g id="a_node12"><a xlink:href="../../../api/L4YAML/Proofs/Scanner/ScannerCorrectness.html#L4YAML.Proofs.ScannerCorrectness.skipToContentComment_preserves_simpleKeyStack" xlink:title="ScannerCorrectness.skipToContentComment_preserves_simpleKeyStack" target="_blank">
<ellipse fill="#d4edda" stroke="#28a745" cx="1404" cy="-115" rx="198.94" ry="18"/>
<text text-anchor="middle" x="1404" y="-112.5" font-family="Helvetica" font-size="10.00">ScannerCorrectness.skipToContentComment_preserves_simpleKeyStack</text>
</a>
</g>
</g>
<!-- L4YAML.Proofs.ScannerCorrectness.skipToContentComment_preserves_simpleKeyStack&#45;&gt;L4YAML.Scanner.ScannerState -->
<g id="edge16" class="edge">
<title>L4YAML.Proofs.ScannerCorrectness.skipToContentComment_preserves_simpleKeyStack&#45;&gt;L4YAML.Scanner.ScannerState</title>
<path fill="none" stroke="#6f42c1" stroke-width="2" stroke-dasharray="5,2" d="M1293.16,-100.01C1261.77,-96.23 1227.56,-92.28 1196,-89 897.1,-57.9 535.74,-41.7 410.4,-36.71"/>
<polygon fill="#6f42c1" stroke="#6f42c1" stroke-width="2" points="410.28,-34.25 403.19,-36.43 410.09,-39.15 410.28,-34.25"/>
<text text-anchor="middle" x="1095.5" y="-72.6" font-family="Times-Roman" font-size="8.00" fill="#6f42c1">about</text>
</g>
<!-- L4YAML.Proofs.ScannerCorrectness.preprocess_preserves_simpleKeyStack -->
<g id="node13" class="node">
<title>L4YAML.Proofs.ScannerCorrectness.preprocess_preserves_simpleKeyStack</title>
<g id="a_node13"><a xlink:href="../../../api/L4YAML/Proofs/Scanner/ScannerCorrectness.html#L4YAML.Proofs.ScannerCorrectness.preprocess_preserves_simpleKeyStack" xlink:title="ScannerCorrectness.preprocess_preserves_simpleKeyStack" target="_blank">
<polygon fill="#fff3cd" stroke="#d4a017" points="905.09,-374.54 905.09,-389.46 800.18,-400 651.82,-400 546.91,-389.46 546.91,-374.54 651.82,-364 800.18,-364 905.09,-374.54"/>
<polygon fill="none" stroke="#d4a017" points="909.09,-370.93 909.09,-393.07 800.38,-404 651.62,-404 542.91,-393.07 542.91,-370.93 651.62,-360 800.38,-360 909.09,-370.93"/>
<text text-anchor="middle" x="726" y="-379.5" font-family="Helvetica" font-size="10.00">ScannerCorrectness.preprocess_preserves_simpleKeyStack</text>
</a>
</g>
</g>
<!-- L4YAML.Proofs.ScannerCorrectness.preprocess_preserves_simpleKeyStack&#45;&gt;L4YAML.Scanner.scanNextToken_preprocess -->
<g id="edge1" class="edge">
<title>L4YAML.Proofs.ScannerCorrectness.preprocess_preserves_simpleKeyStack&#45;&gt;L4YAML.Scanner.scanNextToken_preprocess</title>
<path fill="none" stroke="#6f42c1" stroke-width="2" stroke-dasharray="5,2" d="M636.1,-361.51C546.63,-342.1 410.86,-312.66 326.72,-294.42"/>
<polygon fill="#6f42c1" stroke="#6f42c1" stroke-width="2" points="327.11,-292 319.75,-292.91 326.07,-296.79 327.11,-292"/>
<text text-anchor="middle" x="557.5" y="-335.6" font-family="Times-Roman" font-size="8.00" fill="#6f42c1">about</text>
</g>
<!-- L4YAML.Proofs.ScannerCorrectness.preprocess_preserves_simpleKeyStack&#45;&gt;L4YAML.Proofs.ScannerCorrectness.unwindIndents_preserves_simpleKeyStack -->
<g id="edge18" class="edge">
<title>L4YAML.Proofs.ScannerCorrectness.preprocess_preserves_simpleKeyStack&#45;&gt;L4YAML.Proofs.ScannerCorrectness.unwindIndents_preserves_simpleKeyStack</title>
<path fill="none" stroke="#28a745" stroke-width="2" d="M724.14,-359.66C722.68,-342.95 720.64,-319.71 719.12,-302.29"/>
<polygon fill="#28a745" stroke="#28a745" stroke-width="2" points="721.55,-301.98 718.5,-295.22 716.67,-302.41 721.55,-301.98"/>
<text text-anchor="middle" x="732" y="-335.6" font-family="Times-Roman" font-size="8.00">uses</text>
</g>
<!-- L4YAML.Proofs.ScannerCorrectness.skipToContent_preserves_simpleKeyStack -->
<g id="node15" class="node">
<title>L4YAML.Proofs.ScannerCorrectness.skipToContent_preserves_simpleKeyStack</title>
<g id="a_node15"><a xlink:href="../../../api/L4YAML/Proofs/Scanner/ScannerCorrectness.html#L4YAML.Proofs.ScannerCorrectness.skipToContent_preserves_simpleKeyStack" xlink:title="ScannerCorrectness.skipToContent_preserves_simpleKeyStack" target="_blank">
<ellipse fill="#d4edda" stroke="#28a745" cx="1083" cy="-277" rx="174.49" ry="18"/>
<text text-anchor="middle" x="1083" y="-274.5" font-family="Helvetica" font-size="10.00">ScannerCorrectness.skipToContent_preserves_simpleKeyStack</text>
</a>
</g>
</g>
<!-- L4YAML.Proofs.ScannerCorrectness.preprocess_preserves_simpleKeyStack&#45;&gt;L4YAML.Proofs.ScannerCorrectness.skipToContent_preserves_simpleKeyStack -->
<g id="edge3" class="edge">
<title>L4YAML.Proofs.ScannerCorrectness.preprocess_preserves_simpleKeyStack&#45;&gt;L4YAML.Proofs.ScannerCorrectness.skipToContent_preserves_simpleKeyStack</title>
<path fill="none" stroke="#28a745" stroke-width="2" d="M799.11,-359.91C864.22,-341.12 958.49,-313.92 1020.25,-296.1"/>
<polygon fill="#28a745" stroke="#28a745" stroke-width="2" points="1021.19,-298.38 1027.24,-294.09 1019.84,-293.67 1021.19,-298.38"/>
<text text-anchor="middle" x="893" y="-335.6" font-family="Times-Roman" font-size="8.00">uses</text>
</g>
<!-- L4YAML.Proofs.ScannerCorrectness.unwindIndentsLoop_preserves_simpleKeyStack&#45;&gt;L4YAML.Scanner.ScannerState -->
<g id="edge31" class="edge">
<title>L4YAML.Proofs.ScannerCorrectness.unwindIndentsLoop_preserves_simpleKeyStack&#45;&gt;L4YAML.Scanner.ScannerState</title>
<path fill="none" stroke="#6f42c1" stroke-width="2" stroke-dasharray="5,2" d="M569.27,-186.79C519.87,-181.69 473.19,-173.41 453,-160 422.65,-139.84 433.17,-118.66 412,-89 404.27,-78.18 394.8,-66.97 386.38,-57.58"/>
<polygon fill="#6f42c1" stroke="#6f42c1" stroke-width="2" points="388.09,-55.82 381.57,-52.29 384.46,-59.12 388.09,-55.82"/>
<text text-anchor="middle" x="442.5" y="-113.1" font-family="Times-Roman" font-size="8.00" fill="#6f42c1">about</text>
</g>
<!-- L4YAML.Proofs.ScannerCorrectness.unwindIndentsLoop_preserves_simpleKeyStack&#45;&gt;L4YAML.Scanner.unwindIndentsLoop -->
<g id="edge22" class="edge">
<title>L4YAML.Proofs.ScannerCorrectness.unwindIndentsLoop_preserves_simpleKeyStack&#45;&gt;L4YAML.Scanner.unwindIndentsLoop</title>
<path fill="none" stroke="#6f42c1" stroke-width="2" stroke-dasharray="5,2" d="M591.94,-183.86C493.62,-174.37 358.77,-158.2 242,-133 239.66,-132.5 237.28,-131.96 234.88,-131.41"/>
<polygon fill="#6f42c1" stroke="#6f42c1" stroke-width="2" points="235.02,-128.92 227.64,-129.7 233.89,-133.69 235.02,-128.92"/>
<text text-anchor="middle" x="400.5" y="-153.6" font-family="Times-Roman" font-size="8.00" fill="#6f42c1">about</text>
</g>
<!-- L4YAML.Proofs.ScannerCorrectness.unwindIndentsLoop_preserves_simpleKeyStack&#45;&gt;L4YAML.Proofs.ScannerCorrectness.emit_preserves_simpleKeyStack -->
<g id="edge24" class="edge">
<title>L4YAML.Proofs.ScannerCorrectness.unwindIndentsLoop_preserves_simpleKeyStack&#45;&gt;L4YAML.Proofs.ScannerCorrectness.emit_preserves_simpleKeyStack</title>
<path fill="none" stroke="#28a745" stroke-width="2" d="M758.96,-178.05C779.78,-165.87 807.96,-149.38 830.03,-136.46"/>
<polygon fill="#28a745" stroke="#28a745" stroke-width="2" points="831.28,-138.57 836.09,-132.92 828.81,-134.34 831.28,-138.57"/>
<text text-anchor="middle" x="811" y="-153.6" font-family="Times-Roman" font-size="8.00">uses</text>
</g>
<!-- L4YAML.Proofs.ScannerCorrectness.unwindIndentsLoop_preserves_simpleKeyStack&#45;&gt;L4YAML.Scanner.unwindIndentsLoop.eq_def -->
<g id="edge26" class="edge">
<title>L4YAML.Proofs.ScannerCorrectness.unwindIndentsLoop_preserves_simpleKeyStack&#45;&gt;L4YAML.Scanner.unwindIndentsLoop.eq_def</title>
<path fill="none" stroke="#28a745" stroke-width="2" d="M706.62,-178.05C689.87,-165.91 667.23,-149.5 649.43,-136.61"/>
<polygon fill="#28a745" stroke="#28a745" stroke-width="2" points="650.7,-134.5 643.6,-132.38 647.83,-138.47 650.7,-134.5"/>
<text text-anchor="middle" x="688" y="-153.6" font-family="Times-Roman" font-size="8.00">uses</text>
</g>
<!-- L4YAML.Proofs.ScannerCorrectness.skipToContent_preserves_simpleKeyStack&#45;&gt;L4YAML.Scanner.ScannerState.simpleKeyStack -->
<g id="edge32" class="edge">
<title>L4YAML.Proofs.ScannerCorrectness.skipToContent_preserves_simpleKeyStack&#45;&gt;L4YAML.Scanner.ScannerState.simpleKeyStack</title>
<path fill="none" stroke="#6f42c1" stroke-width="2" stroke-dasharray="5,2" d="M958.48,-264.34C938.91,-262.53 918.91,-260.7 900,-259 808.47,-250.75 785.41,-250.49 694,-241 596.1,-230.84 483.74,-217.01 409.63,-207.58"/>
<polygon fill="#6f42c1" stroke="#6f42c1" stroke-width="2" points="409.83,-205.14 402.57,-206.68 409.21,-210 409.83,-205.14"/>
<text text-anchor="middle" x="706.5" y="-234.6" font-family="Times-Roman" font-size="8.00" fill="#6f42c1">about</text>
</g>
<!-- L4YAML.Proofs.ScannerCorrectness.skipToContent_preserves_simpleKeyStack&#45;&gt;L4YAML.Scanner.skipToContent -->
<g id="edge4" class="edge">
<title>L4YAML.Proofs.ScannerCorrectness.skipToContent_preserves_simpleKeyStack&#45;&gt;L4YAML.Scanner.skipToContent</title>
<path fill="none" stroke="#6f42c1" stroke-width="2" stroke-dasharray="5,2" d="M961.48,-264.1C940.97,-262.27 919.89,-260.49 900,-259 759.72,-248.49 724.12,-253.5 584,-241 551,-238.06 542.98,-235.12 510,-232 392.48,-220.87 360.75,-237.2 245,-214 243.99,-213.8 242.97,-213.58 241.95,-213.35"/>
<polygon fill="#6f42c1" stroke="#6f42c1" stroke-width="2" points="242.53,-210.97 235.14,-211.65 241.34,-215.72 242.53,-210.97"/>
<text text-anchor="middle" x="596.5" y="-234.6" font-family="Times-Roman" font-size="8.00" fill="#6f42c1">about</text>
</g>
<!-- L4YAML.Proofs.ScannerCorrectness.skipToContentLoop_preserves_simpleKeyStack -->
<g id="node18" class="node">
<title>L4YAML.Proofs.ScannerCorrectness.skipToContentLoop_preserves_simpleKeyStack</title>
<g id="a_node18"><a xlink:href="../../../api/L4YAML/Proofs/Scanner/ScannerCorrectness.html#L4YAML.Proofs.ScannerCorrectness.skipToContentLoop_preserves_simpleKeyStack" xlink:title="ScannerCorrectness.skipToContentLoop_preserves_simpleKeyStack" target="_blank">
<ellipse fill="#d4edda" stroke="#28a745" cx="1121" cy="-196" rx="186.71" ry="18"/>
<text text-anchor="middle" x="1121" y="-193.5" font-family="Helvetica" font-size="10.00">ScannerCorrectness.skipToContentLoop_preserves_simpleKeyStack</text>
</a>
</g>
</g>
<!-- L4YAML.Proofs.ScannerCorrectness.skipToContent_preserves_simpleKeyStack&#45;&gt;L4YAML.Proofs.ScannerCorrectness.skipToContentLoop_preserves_simpleKeyStack -->
<g id="edge6" class="edge">
<title>L4YAML.Proofs.ScannerCorrectness.skipToContent_preserves_simpleKeyStack&#45;&gt;L4YAML.Proofs.ScannerCorrectness.skipToContentLoop_preserves_simpleKeyStack</title>
<path fill="none" stroke="#28a745" stroke-width="2" d="M1091.25,-258.86C1096.62,-247.68 1103.72,-232.93 1109.63,-220.64"/>
<polygon fill="#28a745" stroke="#28a745" stroke-width="2" points="1111.94,-221.48 1112.77,-214.11 1107.53,-219.35 1111.94,-221.48"/>
<text text-anchor="middle" x="1113" y="-234.6" font-family="Times-Roman" font-size="8.00">uses</text>
</g>
<!-- L4YAML.Proofs.ScannerCorrectness.consumeNewline_preserves_simpleKeyStack -->
<g id="node16" class="node">
<title>L4YAML.Proofs.ScannerCorrectness.consumeNewline_preserves_simpleKeyStack</title>
<g id="a_node16"><a xlink:href="../../../api/L4YAML/Proofs/Scanner/ScannerCorrectness.html#L4YAML.Proofs.ScannerCorrectness.consumeNewline_preserves_simpleKeyStack" xlink:title="ScannerCorrectness.consumeNewline_preserves_simpleKeyStack" target="_blank">
<ellipse fill="#d4edda" stroke="#28a745" cx="1802" cy="-115" rx="181.12" ry="18"/>
<text text-anchor="middle" x="1802" y="-112.5" font-family="Helvetica" font-size="10.00">ScannerCorrectness.consumeNewline_preserves_simpleKeyStack</text>
</a>
</g>
</g>
<!-- L4YAML.Proofs.ScannerCorrectness.consumeNewline_preserves_simpleKeyStack&#45;&gt;L4YAML.Scanner.ScannerState -->
<g id="edge14" class="edge">
<title>L4YAML.Proofs.ScannerCorrectness.consumeNewline_preserves_simpleKeyStack&#45;&gt;L4YAML.Scanner.ScannerState</title>
<path fill="none" stroke="#6f42c1" stroke-width="2" stroke-dasharray="5,2" d="M1706.01,-99.71C1675.97,-95.68 1642.66,-91.68 1612,-89 1143.7,-48.13 573.63,-37.75 410.54,-35.53"/>
<polygon fill="#6f42c1" stroke="#6f42c1" stroke-width="2" points="410.12,-33.08 403.09,-35.43 410.05,-37.98 410.12,-33.08"/>
<text text-anchor="middle" x="1489.5" y="-72.6" font-family="Times-Roman" font-size="8.00" fill="#6f42c1">about</text>
</g>
<!-- L4YAML.Proofs.ScannerCorrectness.skipToContentWs_preserves_simpleKeyStack -->
<g id="node17" class="node">
<title>L4YAML.Proofs.ScannerCorrectness.skipToContentWs_preserves_simpleKeyStack</title>
<g id="a_node17"><a xlink:href="../../../api/L4YAML/Proofs/Scanner/ScannerCorrectness.html#L4YAML.Proofs.ScannerCorrectness.skipToContentWs_preserves_simpleKeyStack" xlink:title="ScannerCorrectness.skipToContentWs_preserves_simpleKeyStack" target="_blank">
<ellipse fill="#d4edda" stroke="#28a745" cx="2184" cy="-115" rx="183.15" ry="18"/>
<text text-anchor="middle" x="2184" y="-112.5" font-family="Helvetica" font-size="10.00">ScannerCorrectness.skipToContentWs_preserves_simpleKeyStack</text>
</a>
</g>
</g>
<!-- L4YAML.Proofs.ScannerCorrectness.skipToContentWs_preserves_simpleKeyStack&#45;&gt;L4YAML.Scanner.ScannerState -->
<g id="edge12" class="edge">
<title>L4YAML.Proofs.ScannerCorrectness.skipToContentWs_preserves_simpleKeyStack&#45;&gt;L4YAML.Scanner.ScannerState</title>
<path fill="none" stroke="#6f42c1" stroke-width="2" stroke-dasharray="5,2" d="M2087.49,-99.7C2057.01,-95.65 2023.15,-91.63 1992,-89 1366.75,-36.18 602.27,-34.36 410.34,-34.81"/>
<polygon fill="#6f42c1" stroke="#6f42c1" stroke-width="2" points="410.21,-32.36 403.22,-34.83 410.23,-37.26 410.21,-32.36"/>
<text text-anchor="middle" x="1872.5" y="-72.6" font-family="Times-Roman" font-size="8.00" fill="#6f42c1">about</text>
</g>
<!-- L4YAML.Proofs.ScannerCorrectness.skipToContentLoop_preserves_simpleKeyStack&#45;&gt;L4YAML.Scanner.ScannerState -->
<g id="edge33" class="edge">
<title>L4YAML.Proofs.ScannerCorrectness.skipToContentLoop_preserves_simpleKeyStack&#45;&gt;L4YAML.Scanner.ScannerState</title>
<path fill="none" stroke="#6f42c1" stroke-width="2" stroke-dasharray="5,2" d="M989.39,-183.21C968.2,-181.41 946.5,-179.61 926,-178 833.08,-170.71 593.13,-173.11 509,-133 482.28,-120.26 483.07,-106.24 459,-89 441.97,-76.8 421.97,-65 404.81,-55.56"/>
<polygon fill="#6f42c1" stroke="#6f42c1" stroke-width="2" points="405.95,-53.38 398.63,-52.19 403.6,-57.69 405.95,-53.38"/>
<text text-anchor="middle" x="521.5" y="-113.1" font-family="Times-Roman" font-size="8.00" fill="#6f42c1">about</text>
</g>
<!-- L4YAML.Proofs.ScannerCorrectness.skipToContentLoop_preserves_simpleKeyStack&#45;&gt;L4YAML.Scanner.skipToContentLoop -->
<g id="edge7" class="edge">
<title>L4YAML.Proofs.ScannerCorrectness.skipToContentLoop_preserves_simpleKeyStack&#45;&gt;L4YAML.Scanner.skipToContentLoop</title>
<path fill="none" stroke="#6f42c1" stroke-width="2" stroke-dasharray="5,2" d="M992.57,-182.94C970.39,-181.1 947.54,-179.37 926,-178 825.46,-171.62 571.85,-179.45 473,-160 446.75,-154.84 418.6,-144.88 396.06,-135.75"/>
<polygon fill="#6f42c1" stroke="#6f42c1" stroke-width="2" points="396.96,-133.47 389.56,-133.07 395.1,-138 396.96,-133.47"/>
<text text-anchor="middle" x="485.5" y="-153.6" font-family="Times-Roman" font-size="8.00" fill="#6f42c1">about</text>
</g>
<!-- L4YAML.Proofs.ScannerCorrectness.skipToContentLoop_preserves_simpleKeyStack&#45;&gt;L4YAML.Scanner.skipToContentLoop.eq_def -->
<g id="edge9" class="edge">
<title>L4YAML.Proofs.ScannerCorrectness.skipToContentLoop_preserves_simpleKeyStack&#45;&gt;L4YAML.Scanner.skipToContentLoop.eq_def</title>
<path fill="none" stroke="#28a745" stroke-width="2" d="M1118.4,-177.86C1116.73,-166.88 1114.54,-152.48 1112.7,-140.33"/>
<polygon fill="#28a745" stroke="#28a745" stroke-width="2" points="1115.07,-139.66 1111.6,-133.11 1110.23,-140.4 1115.07,-139.66"/>
<text text-anchor="middle" x="1125" y="-153.6" font-family="Times-Roman" font-size="8.00">uses</text>
</g>
<!-- L4YAML.Proofs.ScannerCorrectness.skipToContentLoop_preserves_simpleKeyStack&#45;&gt;L4YAML.Proofs.ScannerCorrectness.skipToContentComment_preserves_simpleKeyStack -->
<g id="edge15" class="edge">
<title>L4YAML.Proofs.ScannerCorrectness.skipToContentLoop_preserves_simpleKeyStack&#45;&gt;L4YAML.Proofs.ScannerCorrectness.skipToContentComment_preserves_simpleKeyStack</title>
<path fill="none" stroke="#28a745" stroke-width="2" d="M1178.95,-178.82C1225.35,-165.87 1290.41,-147.71 1338.65,-134.24"/>
<polygon fill="#28a745" stroke="#28a745" stroke-width="2" points="1339.56,-136.53 1345.64,-132.29 1338.24,-131.81 1339.56,-136.53"/>
<text text-anchor="middle" x="1280" y="-153.6" font-family="Times-Roman" font-size="8.00">uses</text>
</g>
<!-- L4YAML.Proofs.ScannerCorrectness.skipToContentLoop_preserves_simpleKeyStack&#45;&gt;L4YAML.Proofs.ScannerCorrectness.consumeNewline_preserves_simpleKeyStack -->
<g id="edge13" class="edge">
<title>L4YAML.Proofs.ScannerCorrectness.skipToContentLoop_preserves_simpleKeyStack&#45;&gt;L4YAML.Proofs.ScannerCorrectness.consumeNewline_preserves_simpleKeyStack</title>
<path fill="none" stroke="#28a745" stroke-width="2" d="M1235.37,-181.73C1359.18,-167.37 1555.81,-144.56 1681.84,-129.94"/>
<polygon fill="#28a745" stroke="#28a745" stroke-width="2" points="1682.24,-132.36 1688.91,-129.12 1681.68,-127.49 1682.24,-132.36"/>
<text text-anchor="middle" x="1491" y="-153.6" font-family="Times-Roman" font-size="8.00">uses</text>
</g>
<!-- L4YAML.Proofs.ScannerCorrectness.skipToContentLoop_preserves_simpleKeyStack&#45;&gt;L4YAML.Proofs.ScannerCorrectness.skipToContentWs_preserves_simpleKeyStack -->
<g id="edge11" class="edge">
<title>L4YAML.Proofs.ScannerCorrectness.skipToContentLoop_preserves_simpleKeyStack&#45;&gt;L4YAML.Proofs.ScannerCorrectness.skipToContentWs_preserves_simpleKeyStack</title>
<path fill="none" stroke="#28a745" stroke-width="2" d="M1270.17,-185.17C1443.67,-173.55 1738.69,-153.23 1992,-133 2009.89,-131.57 2028.71,-130 2047.29,-128.4"/>
<polygon fill="#28a745" stroke="#28a745" stroke-width="2" points="2047.91,-130.8 2054.67,-127.76 2047.48,-125.92 2047.91,-130.8"/>
<text text-anchor="middle" x="1762" y="-153.6" font-family="Times-Roman" font-size="8.00">uses</text>
</g>
</g>
</svg>
