<?xml version="1.0" encoding="UTF-8" standalone="no"?>
<!DOCTYPE svg PUBLIC "-//W3C//DTD SVG 1.1//EN"
 "http://www.w3.org/Graphics/SVG/1.1/DTD/svg11.dtd">
<!-- Generated by graphviz version 2.44.0 (0)
 -->
<!-- Title: chain_ScannerCorrectness.scanFlowSequenceStart_adds_one_token Pages: 1 -->
<svg width="742pt" height="391pt"
 viewBox="0.00 0.00 742.00 391.00" xmlns="http://www.w3.org/2000/svg" xmlns:xlink="http://www.w3.org/1999/xlink">
<g id="graph0" class="graph" transform="scale(1 1) rotate(0) translate(4 387)">
<title>chain_ScannerCorrectness.scanFlowSequenceStart_adds_one_token</title>
<polygon fill="white" stroke="transparent" points="-4,4 -4,-387 738,-387 738,4 -4,4"/>
<text text-anchor="middle" x="367" y="-368.6" font-family="Helvetica Bold" font-size="13.00">Functorial Chains: ScannerCorrectness.scanFlowSequenceStart_adds_one_token\n(heuristic: used by 7 proofs)</text>
<g id="clust1" class="cluster">
<title>cluster_fns</title>
<polygon fill="none" stroke="#4a90d9" stroke-dasharray="5,2" points="412.5,-8 412.5,-244 725.5,-244 725.5,-8 412.5,-8"/>
<text text-anchor="middle" x="569" y="-229.6" font-family="Helvetica Bold" font-size="13.00" fill="#4a90d9">Functions (Call Chain)</text>
</g>
<g id="clust2" class="cluster">
<title>cluster_thms</title>
<polygon fill="none" stroke="#28a745" stroke-dasharray="5,2" points="8.5,-170 8.5,-353 404.5,-353 404.5,-170 8.5,-170"/>
<text text-anchor="middle" x="206.5" y="-338.6" font-family="Helvetica Bold" font-size="13.00" fill="#28a745">Theorems (Proof Chain)</text>
</g>
<!-- L4YAML.Scanner.ScannerState.advance -->
<g id="node1" class="node">
<title>L4YAML.Scanner.ScannerState.advance</title>
<g id="a_node1"><a xlink:href="../../../api/L4YAML/Scanner/State.html#L4YAML.Scanner.ScannerState.advance" xlink:title="ScannerState.advance" target="_blank">
<polygon fill="#dce9f7" stroke="#4a90d9" points="536,-133 421,-133 421,-97 536,-97 536,-133"/>
<text text-anchor="middle" x="478.5" y="-112.5" font-family="Helvetica" font-size="10.00">ScannerState.advance</text>
</a>
</g>
</g>
<!-- L4YAML.Scanner.ScannerState -->
<g id="node2" class="node">
<title>L4YAML.Scanner.ScannerState</title>
<g id="a_node2"><a xlink:href="../../../api/L4YAML/Scanner/State.html#L4YAML.Scanner.ScannerState" xlink:title="ScannerState" target="_blank">
<polygon fill="#dce9f7" stroke="#4a90d9" points="610.5,-52 534.5,-52 534.5,-16 610.5,-16 610.5,-52"/>
<text text-anchor="middle" x="572.5" y="-31.5" font-family="Helvetica" font-size="10.00">ScannerState</text>
</a>
</g>
</g>
<!-- L4YAML.Scanner.scanFlowSequenceStart -->
<g id="node3" class="node">
<title>L4YAML.Scanner.scanFlowSequenceStart</title>
<g id="a_node3"><a xlink:href="../../../api/L4YAML/Scanner/Scanner.html#L4YAML.Scanner.scanFlowSequenceStart" xlink:title="scanFlowSequenceStart" target="_blank">
<polygon fill="#dce9f7" stroke="#4a90d9" points="593.5,-214 469.5,-214 469.5,-178 593.5,-178 593.5,-214"/>
<text text-anchor="middle" x="531.5" y="-193.5" font-family="Helvetica" font-size="10.00">scanFlowSequenceStart</text>
</a>
</g>
</g>
<!-- L4YAML.Scanner.scanFlowSequenceStart&#45;&gt;L4YAML.Scanner.ScannerState.advance -->
<g id="edge9" class="edge">
<title>L4YAML.Scanner.scanFlowSequenceStart&#45;&gt;L4YAML.Scanner.ScannerState.advance</title>
<path fill="none" stroke="#4a90d9" stroke-width="2" d="M520,-177.86C512.36,-166.47 502.24,-151.39 493.91,-138.96"/>
<polygon fill="#4a90d9" stroke="#4a90d9" stroke-width="2" points="495.91,-137.56 489.98,-133.11 491.84,-140.29 495.91,-137.56"/>
<text text-anchor="middle" x="517" y="-153.6" font-family="Times-Roman" font-size="8.00">calls</text>
</g>
<!-- L4YAML.Scanner.scanFlowSequenceStart&#45;&gt;L4YAML.Scanner.ScannerState -->
<g id="edge8" class="edge">
<title>L4YAML.Scanner.scanFlowSequenceStart&#45;&gt;L4YAML.Scanner.ScannerState</title>
<path fill="none" stroke="#4a90d9" stroke-width="2" d="M535.89,-177.88C543.19,-149.4 557.84,-92.2 566.23,-59.47"/>
<polygon fill="#4a90d9" stroke="#4a90d9" stroke-width="2" points="568.66,-59.87 568.02,-52.48 563.91,-58.66 568.66,-59.87"/>
<text text-anchor="middle" x="565" y="-113.1" font-family="Times-Roman" font-size="8.00">calls</text>
</g>
<!-- L4YAML.Scanner.ScannerState.tokens -->
<g id="node4" class="node">
<title>L4YAML.Scanner.ScannerState.tokens</title>
<g id="a_node4"><a xlink:href="../../../api/L4YAML/Scanner/State.html#L4YAML.Scanner.ScannerState.tokens" xlink:title="ScannerState.tokens" target="_blank">
<polygon fill="#dce9f7" stroke="#4a90d9" points="717,-133 610,-133 610,-97 717,-97 717,-133"/>
<text text-anchor="middle" x="663.5" y="-112.5" font-family="Helvetica" font-size="10.00">ScannerState.tokens</text>
</a>
</g>
</g>
<!-- L4YAML.Scanner.scanFlowSequenceStart&#45;&gt;L4YAML.Scanner.ScannerState.tokens -->
<g id="edge2" class="edge">
<title>L4YAML.Scanner.scanFlowSequenceStart&#45;&gt;L4YAML.Scanner.ScannerState.tokens</title>
<path fill="none" stroke="#4a90d9" stroke-width="2" d="M560.14,-177.86C580.29,-165.8 607.37,-149.59 628.76,-136.79"/>
<polygon fill="#4a90d9" stroke="#4a90d9" stroke-width="2" points="630.17,-138.81 634.91,-133.11 627.65,-134.6 630.17,-138.81"/>
<text text-anchor="middle" x="610" y="-153.6" font-family="Times-Roman" font-size="8.00">calls</text>
</g>
<!-- L4YAML.Scanner.ScannerState.tokens&#45;&gt;L4YAML.Scanner.ScannerState -->
<g id="edge6" class="edge">
<title>L4YAML.Scanner.ScannerState.tokens&#45;&gt;L4YAML.Scanner.ScannerState</title>
<path fill="none" stroke="#4a90d9" stroke-width="2" d="M643.75,-96.86C630.28,-85.16 612.31,-69.56 597.79,-56.95"/>
<polygon fill="#4a90d9" stroke="#4a90d9" stroke-width="2" points="599.1,-54.85 592.21,-52.11 595.89,-58.55 599.1,-54.85"/>
<text text-anchor="middle" x="630" y="-72.6" font-family="Times-Roman" font-size="8.00">calls</text>
</g>
<!-- L4YAML.Proofs.ScannerCorrectness.scanFlowSequenceStart_adds_one_token -->
<g id="node5" class="node">
<title>L4YAML.Proofs.ScannerCorrectness.scanFlowSequenceStart_adds_one_token</title>
<g id="a_node5"><a xlink:href="../../../api/L4YAML/Proofs/Scanner/ScannerCorrectness.html#L4YAML.Proofs.ScannerCorrectness.scanFlowSequenceStart_adds_one_token" xlink:title="ScannerCorrectness.scanFlowSequenceStart_adds_one_token" target="_blank">
<polygon fill="#fff3cd" stroke="#d4a017" points="392.6,-293.54 392.6,-308.46 283.59,-319 129.41,-319 20.4,-308.46 20.4,-293.54 129.41,-283 283.59,-283 392.6,-293.54"/>
<polygon fill="none" stroke="#d4a017" points="396.6,-289.91 396.6,-312.09 283.78,-323 129.22,-323 16.4,-312.09 16.4,-289.91 129.22,-279 283.78,-279 396.6,-289.91"/>
<text text-anchor="middle" x="206.5" y="-298.5" font-family="Helvetica" font-size="10.00">ScannerCorrectness.scanFlowSequenceStart_adds_one_token</text>
</a>
</g>
</g>
<!-- L4YAML.Proofs.ScannerCorrectness.scanFlowSequenceStart_adds_one_token&#45;&gt;L4YAML.Scanner.scanFlowSequenceStart -->
<g id="edge1" class="edge">
<title>L4YAML.Proofs.ScannerCorrectness.scanFlowSequenceStart_adds_one_token&#45;&gt;L4YAML.Scanner.scanFlowSequenceStart</title>
<path fill="none" stroke="#6f42c1" stroke-width="2" stroke-dasharray="5,2" d="M288.12,-279.26C325.11,-269.37 369.26,-256.9 408.5,-244 433.4,-235.81 460.68,-225.53 483.2,-216.67"/>
<polygon fill="#6f42c1" stroke="#6f42c1" stroke-width="2" points="484.12,-218.94 489.73,-214.09 482.32,-214.38 484.12,-218.94"/>
<text text-anchor="middle" x="394" y="-254.6" font-family="Times-Roman" font-size="8.00" fill="#6f42c1">about</text>
</g>
<!-- L4YAML.Proofs.ScannerCorrectness.scanFlowSequenceStart_adds_one_token&#45;&gt;L4YAML.Scanner.ScannerState.tokens -->
<g id="edge5" class="edge">
<title>L4YAML.Proofs.ScannerCorrectness.scanFlowSequenceStart_adds_one_token&#45;&gt;L4YAML.Scanner.ScannerState.tokens</title>
<path fill="none" stroke="#6f42c1" stroke-width="2" stroke-dasharray="5,2" d="M396.74,-290.06C481.29,-282.27 569.2,-268.45 602.5,-244 636.53,-219.02 652.34,-170.08 659.07,-140.48"/>
<polygon fill="#6f42c1" stroke="#6f42c1" stroke-width="2" points="661.52,-140.76 660.59,-133.4 656.72,-139.73 661.52,-140.76"/>
<text text-anchor="middle" x="662" y="-194.1" font-family="Times-Roman" font-size="8.00" fill="#6f42c1">about</text>
</g>
<!-- L4YAML.Proofs.ScannerCorrectness.advance_preserves_tokens -->
<g id="node6" class="node">
<title>L4YAML.Proofs.ScannerCorrectness.advance_preserves_tokens</title>
<g id="a_node6"><a xlink:href="../../../api/L4YAML/Proofs/Scanner/ScannerCorrectness.html#L4YAML.Proofs.ScannerCorrectness.advance_preserves_tokens" xlink:title="ScannerCorrectness.advance_preserves_tokens" target="_blank">
<ellipse fill="#d4edda" stroke="#28a745" cx="262.5" cy="-196" rx="133.75" ry="18"/>
<text text-anchor="middle" x="262.5" y="-193.5" font-family="Helvetica" font-size="10.00">ScannerCorrectness.advance_preserves_tokens</text>
</a>
</g>
</g>
<!-- L4YAML.Proofs.ScannerCorrectness.scanFlowSequenceStart_adds_one_token&#45;&gt;L4YAML.Proofs.ScannerCorrectness.advance_preserves_tokens -->
<g id="edge3" class="edge">
<title>L4YAML.Proofs.ScannerCorrectness.scanFlowSequenceStart_adds_one_token&#45;&gt;L4YAML.Proofs.ScannerCorrectness.advance_preserves_tokens</title>
<path fill="none" stroke="#28a745" stroke-width="2" d="M218.1,-278.66C227.27,-261.8 240.05,-238.3 249.54,-220.83"/>
<polygon fill="#28a745" stroke="#28a745" stroke-width="2" points="251.95,-221.54 253.14,-214.22 247.64,-219.2 251.95,-221.54"/>
<text text-anchor="middle" x="241.5" y="-254.6" font-family="Times-Roman" font-size="8.00">uses</text>
</g>
<!-- L4YAML.Proofs.ScannerCorrectness.advance_preserves_tokens&#45;&gt;L4YAML.Scanner.ScannerState.advance -->
<g id="edge10" class="edge">
<title>L4YAML.Proofs.ScannerCorrectness.advance_preserves_tokens&#45;&gt;L4YAML.Scanner.ScannerState.advance</title>
<path fill="none" stroke="#6f42c1" stroke-width="2" stroke-dasharray="5,2" d="M301.48,-178.73C322.41,-170.16 348.73,-159.67 372.5,-151 387.1,-145.67 402.96,-140.25 417.86,-135.31"/>
<polygon fill="#6f42c1" stroke="#6f42c1" stroke-width="2" points="418.75,-137.6 424.63,-133.08 417.21,-132.94 418.75,-137.6"/>
<text text-anchor="middle" x="385" y="-153.6" font-family="Times-Roman" font-size="8.00" fill="#6f42c1">about</text>
</g>
<!-- L4YAML.Proofs.ScannerCorrectness.advance_preserves_tokens&#45;&gt;L4YAML.Scanner.ScannerState -->
<g id="edge7" class="edge">
<title>L4YAML.Proofs.ScannerCorrectness.advance_preserves_tokens&#45;&gt;L4YAML.Scanner.ScannerState</title>
<path fill="none" stroke="#6f42c1" stroke-width="2" stroke-dasharray="5,2" d="M279.98,-177.89C302.79,-156.38 344.73,-119.56 386.5,-97 431.75,-72.56 488.38,-55.37 527.19,-45.39"/>
<polygon fill="#6f42c1" stroke="#6f42c1" stroke-width="2" points="528.04,-47.7 534.23,-43.61 526.84,-42.95 528.04,-47.7"/>
<text text-anchor="middle" x="399" y="-113.1" font-family="Times-Roman" font-size="8.00" fill="#6f42c1">about</text>
</g>
<!-- L4YAML.Proofs.ScannerCorrectness.advance_preserves_tokens&#45;&gt;L4YAML.Scanner.ScannerState.tokens -->
<g id="edge4" class="edge">
<title>L4YAML.Proofs.ScannerCorrectness.advance_preserves_tokens&#45;&gt;L4YAML.Scanner.ScannerState.tokens</title>
<path fill="none" stroke="#6f42c1" stroke-width="2" stroke-dasharray="5,2" d="M328.68,-180.25C370.4,-171.21 425.46,-159.73 474.5,-151 528.03,-141.47 542.17,-143.61 595.5,-133 597.83,-132.54 600.19,-132.05 602.58,-131.53"/>
<polygon fill="#6f42c1" stroke="#6f42c1" stroke-width="2" points="603.48,-133.84 609.79,-129.94 602.42,-129.06 603.48,-133.84"/>
<text text-anchor="middle" x="487" y="-153.6" font-family="Times-Roman" font-size="8.00" fill="#6f42c1">about</text>
</g>
</g>
</svg>
