<?xml version="1.0" encoding="UTF-8" standalone="no"?>
<!DOCTYPE svg PUBLIC "-//W3C//DTD SVG 1.1//EN"
 "http://www.w3.org/Graphics/SVG/1.1/DTD/svg11.dtd">
<!-- Generated by graphviz version 2.44.0 (0)
 -->
<!-- Title: chain_ScannerCorrectness.scanAnchorOrAlias_preserves_simpleKeyStack Pages: 1 -->
<svg width="1067pt" height="526pt"
 viewBox="0.00 0.00 1067.00 526.00" xmlns="http://www.w3.org/2000/svg" xmlns:xlink="http://www.w3.org/1999/xlink">
<g id="graph0" class="graph" transform="scale(1 1) rotate(0) translate(4 522)">
<title>chain_ScannerCorrectness.scanAnchorOrAlias_preserves_simpleKeyStack</title>
<polygon fill="white" stroke="transparent" points="-4,4 -4,-522 1063,-522 1063,4 -4,4"/>
<text text-anchor="middle" x="529.5" y="-503.6" font-family="Helvetica Bold" font-size="13.00">Functorial Chains: ScannerCorrectness.scanAnchorOrAlias_preserves_simpleKeyStack\n(heuristic: used by 5 proofs)</text>
<g id="clust1" class="cluster">
<title>cluster_fns</title>
<polygon fill="none" stroke="#4a90d9" stroke-dasharray="5,2" points="508,-8 508,-271 1004,-271 1004,-8 508,-8"/>
<text text-anchor="middle" x="756" y="-256.6" font-family="Helvetica Bold" font-size="13.00" fill="#4a90d9">Functions (Call Chain)</text>
</g>
<g id="clust2" class="cluster">
<title>cluster_thms</title>
<polygon fill="none" stroke="#28a745" stroke-dasharray="5,2" points="8,-143 8,-488 500,-488 500,-143 8,-143"/>
<text text-anchor="middle" x="254" y="-473.6" font-family="Helvetica Bold" font-size="13.00" fill="#28a745">Theorems (Proof Chain)</text>
</g>
<!-- L4YAML.Scanner.scanAnchorOrAlias -->
<g id="node1" class="node">
<title>L4YAML.Scanner.scanAnchorOrAlias</title>
<g id="a_node1"><a xlink:href="../../../api/L4YAML/Scanner/NodeProperties.html#L4YAML.Scanner.scanAnchorOrAlias" xlink:title="scanAnchorOrAlias" target="_blank">
<polygon fill="#dce9f7" stroke="#4a90d9" points="761.5,-241 660.5,-241 660.5,-205 761.5,-205 761.5,-241"/>
<text text-anchor="middle" x="711" y="-220.5" font-family="Helvetica" font-size="10.00">scanAnchorOrAlias</text>
</a>
</g>
</g>
<!-- L4YAML.Scanner.ScannerState.advance -->
<g id="node2" class="node">
<title>L4YAML.Scanner.ScannerState.advance</title>
<g id="a_node2"><a xlink:href="../../../api/L4YAML/Scanner/State.html#L4YAML.Scanner.ScannerState.advance" xlink:title="ScannerState.advance" target="_blank">
<polygon fill="#dce9f7" stroke="#4a90d9" points="631.5,-133 516.5,-133 516.5,-97 631.5,-97 631.5,-133"/>
<text text-anchor="middle" x="574" y="-112.5" font-family="Helvetica" font-size="10.00">ScannerState.advance</text>
</a>
</g>
</g>
<!-- L4YAML.Scanner.scanAnchorOrAlias&#45;&gt;L4YAML.Scanner.ScannerState.advance -->
<g id="edge17" class="edge">
<title>L4YAML.Scanner.scanAnchorOrAlias&#45;&gt;L4YAML.Scanner.ScannerState.advance</title>
<path fill="none" stroke="#4a90d9" stroke-width="2" d="M688.99,-204.97C665.36,-186.69 627.76,-157.6 602.03,-137.69"/>
<polygon fill="#4a90d9" stroke="#4a90d9" stroke-width="2" points="603.45,-135.69 596.41,-133.34 600.45,-139.56 603.45,-135.69"/>
<text text-anchor="middle" x="672.5" y="-167.1" font-family="Times-Roman" font-size="8.00">calls</text>
</g>
<!-- L4YAML.Scanner.collectAnchorNameLoop -->
<g id="node3" class="node">
<title>L4YAML.Scanner.collectAnchorNameLoop</title>
<g id="a_node3"><a xlink:href="../../../api/L4YAML/Scanner/NodeProperties.html#L4YAML.Scanner.collectAnchorNameLoop" xlink:title="collectAnchorNameLoop" target="_blank">
<polygon fill="#dce9f7" stroke="#4a90d9" points="772.5,-133 649.5,-133 649.5,-97 772.5,-97 772.5,-133"/>
<text text-anchor="middle" x="711" y="-112.5" font-family="Helvetica" font-size="10.00">collectAnchorNameLoop</text>
</a>
</g>
</g>
<!-- L4YAML.Scanner.scanAnchorOrAlias&#45;&gt;L4YAML.Scanner.collectAnchorNameLoop -->
<g id="edge8" class="edge">
<title>L4YAML.Scanner.scanAnchorOrAlias&#45;&gt;L4YAML.Scanner.collectAnchorNameLoop</title>
<path fill="none" stroke="#4a90d9" stroke-width="2" d="M711,-204.97C711,-187.53 711,-160.26 711,-140.51"/>
<polygon fill="#4a90d9" stroke="#4a90d9" stroke-width="2" points="713.45,-140.34 711,-133.34 708.55,-140.34 713.45,-140.34"/>
<text text-anchor="middle" x="720.5" y="-167.1" font-family="Times-Roman" font-size="8.00">calls</text>
</g>
<!-- L4YAML.Scanner.ScannerState -->
<g id="node4" class="node">
<title>L4YAML.Scanner.ScannerState</title>
<g id="a_node4"><a xlink:href="../../../api/L4YAML/Scanner/State.html#L4YAML.Scanner.ScannerState" xlink:title="ScannerState" target="_blank">
<polygon fill="#dce9f7" stroke="#4a90d9" points="822,-52 746,-52 746,-16 822,-16 822,-52"/>
<text text-anchor="middle" x="784" y="-31.5" font-family="Helvetica" font-size="10.00">ScannerState</text>
</a>
</g>
</g>
<!-- L4YAML.Scanner.scanAnchorOrAlias&#45;&gt;L4YAML.Scanner.ScannerState -->
<g id="edge21" class="edge">
<title>L4YAML.Scanner.scanAnchorOrAlias&#45;&gt;L4YAML.Scanner.ScannerState</title>
<path fill="none" stroke="#4a90d9" stroke-width="2" d="M730.57,-204.83C747.75,-188.36 771.58,-161.81 782,-133 790.66,-109.05 789.88,-79.62 787.73,-59.3"/>
<polygon fill="#4a90d9" stroke="#4a90d9" stroke-width="2" points="790.16,-58.91 786.9,-52.25 785.29,-59.49 790.16,-58.91"/>
<text text-anchor="middle" x="797.5" y="-113.1" font-family="Times-Roman" font-size="8.00">calls</text>
</g>
<!-- L4YAML.Scanner.ScannerState.simpleKeyStack -->
<g id="node5" class="node">
<title>L4YAML.Scanner.ScannerState.simpleKeyStack</title>
<g id="a_node5"><a xlink:href="../../../api/L4YAML/Scanner/State.html#L4YAML.Scanner.ScannerState.simpleKeyStack" xlink:title="ScannerState.simpleKeyStack" target="_blank">
<polygon fill="#dce9f7" stroke="#4a90d9" points="995.5,-133 846.5,-133 846.5,-97 995.5,-97 995.5,-133"/>
<text text-anchor="middle" x="921" y="-112.5" font-family="Helvetica" font-size="10.00">ScannerState.simpleKeyStack</text>
</a>
</g>
</g>
<!-- L4YAML.Scanner.scanAnchorOrAlias&#45;&gt;L4YAML.Scanner.ScannerState.simpleKeyStack -->
<g id="edge2" class="edge">
<title>L4YAML.Scanner.scanAnchorOrAlias&#45;&gt;L4YAML.Scanner.ScannerState.simpleKeyStack</title>
<path fill="none" stroke="#4a90d9" stroke-width="2" d="M761.64,-212.25C778.78,-207 797.09,-199.03 811,-187 827.69,-172.57 817.05,-157.13 834,-143 836.74,-140.71 839.67,-138.62 842.74,-136.71"/>
<polygon fill="#4a90d9" stroke="#4a90d9" stroke-width="2" points="844.35,-138.61 849.22,-133.02 841.93,-134.35 844.35,-138.61"/>
<text text-anchor="middle" x="843.5" y="-167.1" font-family="Times-Roman" font-size="8.00">calls</text>
</g>
<!-- L4YAML.Scanner.collectAnchorNameLoop&#45;&gt;L4YAML.Scanner.ScannerState -->
<g id="edge10" class="edge">
<title>L4YAML.Scanner.collectAnchorNameLoop&#45;&gt;L4YAML.Scanner.ScannerState</title>
<path fill="none" stroke="#4a90d9" stroke-width="2" d="M726.84,-96.86C737.55,-85.26 751.81,-69.84 763.4,-57.29"/>
<polygon fill="#4a90d9" stroke="#4a90d9" stroke-width="2" points="765.24,-58.91 768.19,-52.11 761.64,-55.59 765.24,-58.91"/>
<text text-anchor="middle" x="758.5" y="-72.6" font-family="Times-Roman" font-size="8.00">calls</text>
</g>
<!-- L4YAML.Scanner.ScannerState.simpleKeyStack&#45;&gt;L4YAML.Scanner.ScannerState -->
<g id="edge5" class="edge">
<title>L4YAML.Scanner.ScannerState.simpleKeyStack&#45;&gt;L4YAML.Scanner.ScannerState</title>
<path fill="none" stroke="#4a90d9" stroke-width="2" d="M891.27,-96.86C870.27,-84.75 842.01,-68.45 819.77,-55.63"/>
<polygon fill="#4a90d9" stroke="#4a90d9" stroke-width="2" points="820.96,-53.48 813.67,-52.11 818.51,-57.73 820.96,-53.48"/>
<text text-anchor="middle" x="865.5" y="-72.6" font-family="Times-Roman" font-size="8.00">calls</text>
</g>
<!-- L4YAML.Proofs.ScannerCorrectness.collectAnchorNameLoop_preserves_simpleKeyStack -->
<g id="node6" class="node">
<title>L4YAML.Proofs.ScannerCorrectness.collectAnchorNameLoop_preserves_simpleKeyStack</title>
<g id="a_node6"><a xlink:href="../../../api/L4YAML/Proofs/Scanner/ScannerCorrectness.html#L4YAML.Proofs.ScannerCorrectness.collectAnchorNameLoop_preserves_simpleKeyStack" xlink:title="ScannerCorrectness.collectAnchorNameLoop_preserves_simpleKeyStack" target="_blank">
<ellipse fill="#d4edda" stroke="#28a745" cx="292" cy="-351" rx="199.61" ry="18"/>
<text text-anchor="middle" x="292" y="-348.5" font-family="Helvetica" font-size="10.00">ScannerCorrectness.collectAnchorNameLoop_preserves_simpleKeyStack</text>
</a>
</g>
</g>
<!-- L4YAML.Proofs.ScannerCorrectness.collectAnchorNameLoop_preserves_simpleKeyStack&#45;&gt;L4YAML.Scanner.collectAnchorNameLoop -->
<g id="edge9" class="edge">
<title>L4YAML.Proofs.ScannerCorrectness.collectAnchorNameLoop_preserves_simpleKeyStack&#45;&gt;L4YAML.Scanner.collectAnchorNameLoop</title>
<path fill="none" stroke="#6f42c1" stroke-width="2" stroke-dasharray="5,2" d="M431.03,-338.06C462.07,-332.87 489.28,-325.48 501,-315 560.25,-262.02 489.31,-194.33 550,-143 565.37,-130.01 620.18,-136.46 640,-133 640.75,-132.87 641.5,-132.74 642.26,-132.6"/>
<polygon fill="#6f42c1" stroke="#6f42c1" stroke-width="2" points="642.72,-135 649.14,-131.29 641.8,-130.19 642.72,-135"/>
<text text-anchor="middle" x="539.5" y="-221.1" font-family="Times-Roman" font-size="8.00" fill="#6f42c1">about</text>
</g>
<!-- L4YAML.Proofs.ScannerCorrectness.collectAnchorNameLoop_preserves_simpleKeyStack&#45;&gt;L4YAML.Scanner.ScannerState -->
<g id="edge20" class="edge">
<title>L4YAML.Proofs.ScannerCorrectness.collectAnchorNameLoop_preserves_simpleKeyStack&#45;&gt;L4YAML.Scanner.ScannerState</title>
<path fill="none" stroke="#6f42c1" stroke-width="2" stroke-dasharray="5,2" d="M428.68,-337.84C451.48,-336.05 474.9,-334.36 497,-333 522.08,-331.46 929.09,-330.33 949,-315 1028.27,-253.98 1065.43,-176.72 1005,-97 983.88,-69.13 887.86,-50.34 829.55,-41.27"/>
<polygon fill="#6f42c1" stroke="#6f42c1" stroke-width="2" points="829.58,-38.8 822.29,-40.16 828.84,-43.64 829.58,-38.8"/>
<text text-anchor="middle" x="1046.5" y="-167.1" font-family="Times-Roman" font-size="8.00" fill="#6f42c1">about</text>
</g>
<!-- L4YAML.Proofs.ScannerCorrectness.collectAnchorNameLoop_preserves_simpleKeyStack&#45;&gt;L4YAML.Scanner.ScannerState.simpleKeyStack -->
<g id="edge4" class="edge">
<title>L4YAML.Proofs.ScannerCorrectness.collectAnchorNameLoop_preserves_simpleKeyStack&#45;&gt;L4YAML.Scanner.ScannerState.simpleKeyStack</title>
<path fill="none" stroke="#6f42c1" stroke-width="2" stroke-dasharray="5,2" d="M425.57,-337.58C545.91,-324.67 712.6,-301.99 771,-271 831.25,-239.02 881.71,-174.07 905.8,-139.26"/>
<polygon fill="#6f42c1" stroke="#6f42c1" stroke-width="2" points="908.06,-140.29 909.99,-133.13 904.02,-137.53 908.06,-140.29"/>
<text text-anchor="middle" x="863.5" y="-221.1" font-family="Times-Roman" font-size="8.00" fill="#6f42c1">about</text>
</g>
<!-- L4YAML.Scanner.collectAnchorNameLoop.eq_def -->
<g id="node7" class="node">
<title>L4YAML.Scanner.collectAnchorNameLoop.eq_def</title>
<g id="a_node7"><a xlink:href="../../../api/L4YAML/Proofs/Coupling/StructureCoupling.html#L4YAML.Scanner.collectAnchorNameLoop.eq_def" xlink:title="collectAnchorNameLoop.eq_def" target="_blank">
<ellipse fill="#d4edda" stroke="#28a745" cx="139" cy="-169" rx="91.49" ry="18"/>
<text text-anchor="middle" x="139" y="-166.5" font-family="Helvetica" font-size="10.00">collectAnchorNameLoop.eq_def</text>
</a>
</g>
</g>
<!-- L4YAML.Proofs.ScannerCorrectness.collectAnchorNameLoop_preserves_simpleKeyStack&#45;&gt;L4YAML.Scanner.collectAnchorNameLoop.eq_def -->
<g id="edge11" class="edge">
<title>L4YAML.Proofs.ScannerCorrectness.collectAnchorNameLoop_preserves_simpleKeyStack&#45;&gt;L4YAML.Scanner.collectAnchorNameLoop.eq_def</title>
<path fill="none" stroke="#28a745" stroke-width="2" d="M174.49,-336.42C151.23,-331.3 131.61,-324.36 124,-315 95.95,-280.5 113.47,-225.05 127.22,-193.66"/>
<polygon fill="#28a745" stroke="#28a745" stroke-width="2" points="129.59,-194.36 130.25,-186.97 125.13,-192.33 129.59,-194.36"/>
<text text-anchor="middle" x="134" y="-295.1" font-family="Times-Roman" font-size="8.00">uses</text>
</g>
<!-- L4YAML.Proofs.ScannerCorrectness.advance_preserves_simpleKeyStack -->
<g id="node10" class="node">
<title>L4YAML.Proofs.ScannerCorrectness.advance_preserves_simpleKeyStack</title>
<g id="a_node10"><a xlink:href="../../../api/L4YAML/Proofs/Scanner/ScannerCorrectness.html#L4YAML.Proofs.ScannerCorrectness.advance_preserves_simpleKeyStack" xlink:title="ScannerCorrectness.advance_preserves_simpleKeyStack" target="_blank">
<ellipse fill="#d4edda" stroke="#28a745" cx="334" cy="-223" rx="158.2" ry="18"/>
<text text-anchor="middle" x="334" y="-220.5" font-family="Helvetica" font-size="10.00">ScannerCorrectness.advance_preserves_simpleKeyStack</text>
</a>
</g>
</g>
<!-- L4YAML.Proofs.ScannerCorrectness.collectAnchorNameLoop_preserves_simpleKeyStack&#45;&gt;L4YAML.Proofs.ScannerCorrectness.advance_preserves_simpleKeyStack -->
<g id="edge6" class="edge">
<title>L4YAML.Proofs.ScannerCorrectness.collectAnchorNameLoop_preserves_simpleKeyStack&#45;&gt;L4YAML.Proofs.ScannerCorrectness.advance_preserves_simpleKeyStack</title>
<path fill="none" stroke="#28a745" stroke-width="2" d="M198.85,-335.04C178.65,-329.87 161.4,-323.24 155,-315 145.19,-302.36 145.49,-291.87 155,-279 169.59,-259.25 191.16,-246.36 214.32,-238.01"/>
<polygon fill="#28a745" stroke="#28a745" stroke-width="2" points="215.38,-240.24 221.22,-235.67 213.8,-235.6 215.38,-240.24"/>
<text text-anchor="middle" x="165" y="-295.1" font-family="Times-Roman" font-size="8.00">uses</text>
</g>
<!-- L4YAML.Scanner.collectAnchorNameLoop.eq_def&#45;&gt;L4YAML.Scanner.ScannerState -->
<g id="edge12" class="edge">
<title>L4YAML.Scanner.collectAnchorNameLoop.eq_def&#45;&gt;L4YAML.Scanner.ScannerState</title>
<path fill="none" stroke="#6f42c1" stroke-width="2" stroke-dasharray="5,2" d="M166.64,-151.76C206.81,-129.05 284.36,-88.51 356,-70 427.4,-51.55 644.07,-40.71 738.83,-36.74"/>
<polygon fill="#6f42c1" stroke="#6f42c1" stroke-width="2" points="739.09,-39.18 745.98,-36.44 738.89,-34.29 739.09,-39.18"/>
<text text-anchor="middle" x="289.5" y="-113.1" font-family="Times-Roman" font-size="8.00" fill="#6f42c1">about</text>
</g>
<!-- L4YAML.Proofs.ScannerCorrectness.scanAnchorOrAlias_preserves_simpleKeyStack -->
<g id="node8" class="node">
<title>L4YAML.Proofs.ScannerCorrectness.scanAnchorOrAlias_preserves_simpleKeyStack</title>
<g id="a_node8"><a xlink:href="../../../api/L4YAML/Proofs/Scanner/ScannerCorrectness.html#L4YAML.Proofs.ScannerCorrectness.scanAnchorOrAlias_preserves_simpleKeyStack" xlink:title="ScannerCorrectness.scanAnchorOrAlias_preserves_simpleKeyStack" target="_blank">
<polygon fill="#fff3cd" stroke="#d4a017" points="487.96,-428.54 487.96,-443.46 369.66,-454 202.34,-454 84.04,-443.46 84.04,-428.54 202.34,-418 369.66,-418 487.96,-428.54"/>
<polygon fill="none" stroke="#d4a017" points="491.96,-424.88 491.96,-447.12 369.83,-458 202.17,-458 80.04,-447.12 80.04,-424.88 202.17,-414 369.83,-414 491.96,-424.88"/>
<text text-anchor="middle" x="286" y="-433.5" font-family="Helvetica" font-size="10.00">ScannerCorrectness.scanAnchorOrAlias_preserves_simpleKeyStack</text>
</a>
</g>
</g>
<!-- L4YAML.Proofs.ScannerCorrectness.scanAnchorOrAlias_preserves_simpleKeyStack&#45;&gt;L4YAML.Scanner.scanAnchorOrAlias -->
<g id="edge1" class="edge">
<title>L4YAML.Proofs.ScannerCorrectness.scanAnchorOrAlias_preserves_simpleKeyStack&#45;&gt;L4YAML.Scanner.scanAnchorOrAlias</title>
<path fill="none" stroke="#6f42c1" stroke-width="2" stroke-dasharray="5,2" d="M374.61,-414.37C414.34,-403.48 461.12,-388.32 501,-369 572.53,-334.35 646.94,-277.05 685.06,-245.87"/>
<polygon fill="#6f42c1" stroke="#6f42c1" stroke-width="2" points="687.01,-247.44 690.86,-241.1 683.9,-243.65 687.01,-247.44"/>
<text text-anchor="middle" x="575.5" y="-349.1" font-family="Times-Roman" font-size="8.00" fill="#6f42c1">about</text>
</g>
<!-- L4YAML.Proofs.ScannerCorrectness.scanAnchorOrAlias_preserves_simpleKeyStack&#45;&gt;L4YAML.Scanner.ScannerState.simpleKeyStack -->
<g id="edge19" class="edge">
<title>L4YAML.Proofs.ScannerCorrectness.scanAnchorOrAlias_preserves_simpleKeyStack&#45;&gt;L4YAML.Scanner.ScannerState.simpleKeyStack</title>
<path fill="none" stroke="#6f42c1" stroke-width="2" stroke-dasharray="5,2" d="M405.28,-417.08C559.47,-391.47 815.82,-339.79 880,-271 913.72,-234.86 920.39,-174.28 921.31,-140.55"/>
<polygon fill="#6f42c1" stroke="#6f42c1" stroke-width="2" points="923.76,-140.42 921.43,-133.38 918.86,-140.34 923.76,-140.42"/>
<text text-anchor="middle" x="882.5" y="-295.1" font-family="Times-Roman" font-size="8.00" fill="#6f42c1">about</text>
</g>
<!-- L4YAML.Proofs.ScannerCorrectness.scanAnchorOrAlias_preserves_simpleKeyStack&#45;&gt;L4YAML.Proofs.ScannerCorrectness.collectAnchorNameLoop_preserves_simpleKeyStack -->
<g id="edge3" class="edge">
<title>L4YAML.Proofs.ScannerCorrectness.scanAnchorOrAlias_preserves_simpleKeyStack&#45;&gt;L4YAML.Proofs.ScannerCorrectness.collectAnchorNameLoop_preserves_simpleKeyStack</title>
<path fill="none" stroke="#28a745" stroke-width="2" d="M287.55,-413.63C288.37,-402.17 289.4,-388.01 290.25,-376.16"/>
<polygon fill="#28a745" stroke="#28a745" stroke-width="2" points="292.7,-376.28 290.76,-369.12 287.81,-375.93 292.7,-376.28"/>
<text text-anchor="middle" x="300" y="-389.6" font-family="Times-Roman" font-size="8.00">uses</text>
</g>
<!-- L4YAML.Proofs.ScannerCorrectness.emitAt_preserves_simpleKeyStack -->
<g id="node9" class="node">
<title>L4YAML.Proofs.ScannerCorrectness.emitAt_preserves_simpleKeyStack</title>
<g id="a_node9"><a xlink:href="../../../api/L4YAML/Proofs/Scanner/ScannerCorrectness.html#L4YAML.Proofs.ScannerCorrectness.emitAt_preserves_simpleKeyStack" xlink:title="ScannerCorrectness.emitAt_preserves_simpleKeyStack" target="_blank">
<ellipse fill="#d4edda" stroke="#28a745" cx="338" cy="-297" rx="153.78" ry="18"/>
<text text-anchor="middle" x="338" y="-294.5" font-family="Helvetica" font-size="10.00">ScannerCorrectness.emitAt_preserves_simpleKeyStack</text>
</a>
</g>
</g>
<!-- L4YAML.Proofs.ScannerCorrectness.scanAnchorOrAlias_preserves_simpleKeyStack&#45;&gt;L4YAML.Proofs.ScannerCorrectness.emitAt_preserves_simpleKeyStack -->
<g id="edge13" class="edge">
<title>L4YAML.Proofs.ScannerCorrectness.scanAnchorOrAlias_preserves_simpleKeyStack&#45;&gt;L4YAML.Proofs.ScannerCorrectness.emitAt_preserves_simpleKeyStack</title>
<path fill="none" stroke="#28a745" stroke-width="2" d="M174.62,-416.37C109.68,-400.74 47.03,-374.24 83,-333 87.9,-327.38 156.92,-318.12 221.92,-310.53"/>
<polygon fill="#28a745" stroke="#28a745" stroke-width="2" points="222.33,-312.95 229,-309.71 221.77,-308.08 222.33,-312.95"/>
<text text-anchor="middle" x="119" y="-389.6" font-family="Times-Roman" font-size="8.00">uses</text>
</g>
<!-- L4YAML.Proofs.ScannerCorrectness.scanAnchorOrAlias_preserves_simpleKeyStack&#45;&gt;L4YAML.Proofs.ScannerCorrectness.advance_preserves_simpleKeyStack -->
<g id="edge15" class="edge">
<title>L4YAML.Proofs.ScannerCorrectness.scanAnchorOrAlias_preserves_simpleKeyStack&#45;&gt;L4YAML.Proofs.ScannerCorrectness.advance_preserves_simpleKeyStack</title>
<path fill="none" stroke="#28a745" stroke-width="2" d="M138.51,-419.66C75.14,-406.13 21.23,-380.72 49,-333 81.51,-277.12 147.8,-249.74 208.27,-236.4"/>
<polygon fill="#28a745" stroke="#28a745" stroke-width="2" points="208.9,-238.77 215.24,-234.92 207.88,-233.98 208.9,-238.77"/>
<text text-anchor="middle" x="59" y="-349.1" font-family="Times-Roman" font-size="8.00">uses</text>
</g>
<!-- L4YAML.Proofs.ScannerCorrectness.emitAt_preserves_simpleKeyStack&#45;&gt;L4YAML.Scanner.ScannerState.simpleKeyStack -->
<g id="edge14" class="edge">
<title>L4YAML.Proofs.ScannerCorrectness.emitAt_preserves_simpleKeyStack&#45;&gt;L4YAML.Scanner.ScannerState.simpleKeyStack</title>
<path fill="none" stroke="#6f42c1" stroke-width="2" stroke-dasharray="5,2" d="M482.69,-290.9C518.32,-287.25 550.44,-281.14 565,-271 591.1,-252.82 602.37,-160.38 629,-143 647.91,-130.66 809.58,-135.68 832,-133 834.34,-132.72 836.72,-132.41 839.11,-132.09"/>
<polygon fill="#6f42c1" stroke="#6f42c1" stroke-width="2" points="839.76,-134.47 846.34,-131.04 839.06,-129.62 839.76,-134.47"/>
<text text-anchor="middle" x="609.5" y="-221.1" font-family="Times-Roman" font-size="8.00" fill="#6f42c1">about</text>
</g>
<!-- L4YAML.Proofs.ScannerCorrectness.advance_preserves_simpleKeyStack&#45;&gt;L4YAML.Scanner.ScannerState.advance -->
<g id="edge18" class="edge">
<title>L4YAML.Proofs.ScannerCorrectness.advance_preserves_simpleKeyStack&#45;&gt;L4YAML.Scanner.ScannerState.advance</title>
<path fill="none" stroke="#6f42c1" stroke-width="2" stroke-dasharray="5,2" d="M365.67,-205.32C398.16,-188.52 450.4,-162.39 497,-143 503.05,-140.48 509.43,-137.99 515.82,-135.6"/>
<polygon fill="#6f42c1" stroke="#6f42c1" stroke-width="2" points="517.02,-137.77 522.74,-133.05 515.33,-133.17 517.02,-137.77"/>
<text text-anchor="middle" x="509.5" y="-167.1" font-family="Times-Roman" font-size="8.00" fill="#6f42c1">about</text>
</g>
<!-- L4YAML.Proofs.ScannerCorrectness.advance_preserves_simpleKeyStack&#45;&gt;L4YAML.Scanner.ScannerState -->
<g id="edge7" class="edge">
<title>L4YAML.Proofs.ScannerCorrectness.advance_preserves_simpleKeyStack&#45;&gt;L4YAML.Scanner.ScannerState</title>
<path fill="none" stroke="#6f42c1" stroke-width="2" stroke-dasharray="5,2" d="M345.38,-205.03C357.47,-187.89 377.86,-161.38 400,-143 432.15,-116.3 442.85,-111.6 482,-97 569.71,-64.3 678.53,-47.34 738.68,-39.88"/>
<polygon fill="#6f42c1" stroke="#6f42c1" stroke-width="2" points="739.11,-42.29 745.77,-39.02 738.52,-37.43 739.11,-42.29"/>
<text text-anchor="middle" x="494.5" y="-113.1" font-family="Times-Roman" font-size="8.00" fill="#6f42c1">about</text>
</g>
<!-- L4YAML.Proofs.ScannerCorrectness.advance_preserves_simpleKeyStack&#45;&gt;L4YAML.Scanner.ScannerState.simpleKeyStack -->
<g id="edge16" class="edge">
<title>L4YAML.Proofs.ScannerCorrectness.advance_preserves_simpleKeyStack&#45;&gt;L4YAML.Scanner.ScannerState.simpleKeyStack</title>
<path fill="none" stroke="#6f42c1" stroke-width="2" stroke-dasharray="5,2" d="M451.67,-210.91C477.01,-205.72 503.05,-198.11 526,-187 552.64,-174.1 548.51,-153.99 576,-143 602.43,-132.43 803.72,-136.24 832,-133 834.34,-132.73 836.72,-132.44 839.11,-132.12"/>
<polygon fill="#6f42c1" stroke="#6f42c1" stroke-width="2" points="839.75,-134.5 846.34,-131.1 839.07,-129.65 839.75,-134.5"/>
<text text-anchor="middle" x="588.5" y="-167.1" font-family="Times-Roman" font-size="8.00" fill="#6f42c1">about</text>
</g>
</g>
</svg>
