<?xml version="1.0" encoding="UTF-8" standalone="no"?>
<!DOCTYPE svg PUBLIC "-//W3C//DTD SVG 1.1//EN"
 "http://www.w3.org/Graphics/SVG/1.1/DTD/svg11.dtd">
<!-- Generated by graphviz version 2.44.0 (0)
 -->
<!-- Title: chain_ScannerCorrectness.scanDirective_preserves_simpleKeyStack Pages: 1 -->
<svg width="1796pt" height="499pt"
 viewBox="0.00 0.00 1796.00 499.00" xmlns="http://www.w3.org/2000/svg" xmlns:xlink="http://www.w3.org/1999/xlink">
<g id="graph0" class="graph" transform="scale(1 1) rotate(0) translate(4 495)">
<title>chain_ScannerCorrectness.scanDirective_preserves_simpleKeyStack</title>
<polygon fill="white" stroke="transparent" points="-4,4 -4,-495 1792,-495 1792,4 -4,4"/>
<text text-anchor="middle" x="894" y="-476.6" font-family="Helvetica Bold" font-size="13.00">Functorial Chains: ScannerCorrectness.scanDirective_preserves_simpleKeyStack\n(heuristic: used by 5 proofs)</text>
<g id="clust1" class="cluster">
<title>cluster_fns</title>
<polygon fill="none" stroke="#4a90d9" stroke-dasharray="5,2" points="8,-8 8,-352 542,-352 542,-8 8,-8"/>
<text text-anchor="middle" x="275" y="-337.6" font-family="Helvetica Bold" font-size="13.00" fill="#4a90d9">Functions (Call Chain)</text>
</g>
<g id="clust2" class="cluster">
<title>cluster_thms</title>
<polygon fill="none" stroke="#28a745" stroke-dasharray="5,2" points="550,-89 550,-461 1776,-461 1776,-89 550,-89"/>
<text text-anchor="middle" x="1163" y="-446.6" font-family="Helvetica Bold" font-size="13.00" fill="#28a745">Theorems (Proof Chain)</text>
</g>
<!-- L4YAML.Scanner.skipWhitespaceLoop -->
<g id="node1" class="node">
<title>L4YAML.Scanner.skipWhitespaceLoop</title>
<g id="a_node1"><a xlink:href="../../../api/L4YAML/Scanner/Whitespace.html#L4YAML.Scanner.skipWhitespaceLoop" xlink:title="skipWhitespaceLoop" target="_blank">
<polygon fill="#dce9f7" stroke="#4a90d9" points="403.5,-133 296.5,-133 296.5,-97 403.5,-97 403.5,-133"/>
<text text-anchor="middle" x="350" y="-112.5" font-family="Helvetica" font-size="10.00">skipWhitespaceLoop</text>
</a>
</g>
</g>
<!-- L4YAML.Scanner.ScannerState -->
<g id="node2" class="node">
<title>L4YAML.Scanner.ScannerState</title>
<g id="a_node2"><a xlink:href="../../../api/L4YAML/Scanner/State.html#L4YAML.Scanner.ScannerState" xlink:title="ScannerState" target="_blank">
<polygon fill="#dce9f7" stroke="#4a90d9" points="534,-52 458,-52 458,-16 534,-16 534,-52"/>
<text text-anchor="middle" x="496" y="-31.5" font-family="Helvetica" font-size="10.00">ScannerState</text>
</a>
</g>
</g>
<!-- L4YAML.Scanner.skipWhitespaceLoop&#45;&gt;L4YAML.Scanner.ScannerState -->
<g id="edge17" class="edge">
<title>L4YAML.Scanner.skipWhitespaceLoop&#45;&gt;L4YAML.Scanner.ScannerState</title>
<path fill="none" stroke="#4a90d9" stroke-width="2" d="M381.68,-96.86C404.16,-84.69 434.44,-68.31 458.18,-55.46"/>
<polygon fill="#4a90d9" stroke="#4a90d9" stroke-width="2" points="459.39,-57.59 464.38,-52.11 457.06,-53.28 459.39,-57.59"/>
<text text-anchor="middle" x="436.5" y="-72.6" font-family="Times-Roman" font-size="8.00">calls</text>
</g>
<!-- L4YAML.Scanner.skipWhitespace -->
<g id="node3" class="node">
<title>L4YAML.Scanner.skipWhitespace</title>
<g id="a_node3"><a xlink:href="../../../api/L4YAML/Scanner/Whitespace.html#L4YAML.Scanner.skipWhitespace" xlink:title="skipWhitespace" target="_blank">
<polygon fill="#dce9f7" stroke="#4a90d9" points="231,-214 145,-214 145,-178 231,-178 231,-214"/>
<text text-anchor="middle" x="188" y="-193.5" font-family="Helvetica" font-size="10.00">skipWhitespace</text>
</a>
</g>
</g>
<!-- L4YAML.Scanner.skipWhitespace&#45;&gt;L4YAML.Scanner.skipWhitespaceLoop -->
<g id="edge14" class="edge">
<title>L4YAML.Scanner.skipWhitespace&#45;&gt;L4YAML.Scanner.skipWhitespaceLoop</title>
<path fill="none" stroke="#4a90d9" stroke-width="2" d="M184.57,-177.65C183.83,-168.67 184.73,-158.13 191,-151 218.24,-120.05 241.77,-142 282,-133 284.32,-132.48 286.67,-131.94 289.05,-131.39"/>
<polygon fill="#4a90d9" stroke="#4a90d9" stroke-width="2" points="289.98,-133.69 296.24,-129.7 288.86,-128.92 289.98,-133.69"/>
<text text-anchor="middle" x="200.5" y="-153.6" font-family="Times-Roman" font-size="8.00">calls</text>
</g>
<!-- L4YAML.Scanner.skipWhitespace&#45;&gt;L4YAML.Scanner.ScannerState -->
<g id="edge30" class="edge">
<title>L4YAML.Scanner.skipWhitespace&#45;&gt;L4YAML.Scanner.ScannerState</title>
<path fill="none" stroke="#4a90d9" stroke-width="2" d="M144.96,-179.22C104.74,-164.04 49.99,-142.09 44,-133 33.25,-116.67 31.19,-103.77 44,-89 70.38,-58.58 341.27,-42.37 450.6,-37.02"/>
<polygon fill="#4a90d9" stroke="#4a90d9" stroke-width="2" points="451,-39.46 457.88,-36.67 450.77,-34.56 451,-39.46"/>
<text text-anchor="middle" x="53.5" y="-113.1" font-family="Times-Roman" font-size="8.00">calls</text>
</g>
<!-- L4YAML.Scanner.skipToEndOfLine -->
<g id="node4" class="node">
<title>L4YAML.Scanner.skipToEndOfLine</title>
<g id="a_node4"><a xlink:href="../../../api/L4YAML/Scanner/Whitespace.html#L4YAML.Scanner.skipToEndOfLine" xlink:title="skipToEndOfLine" target="_blank">
<polygon fill="#dce9f7" stroke="#4a90d9" points="441.5,-214 350.5,-214 350.5,-178 441.5,-178 441.5,-214"/>
<text text-anchor="middle" x="396" y="-193.5" font-family="Helvetica" font-size="10.00">skipToEndOfLine</text>
</a>
</g>
</g>
<!-- L4YAML.Scanner.skipToEndOfLine&#45;&gt;L4YAML.Scanner.ScannerState -->
<g id="edge32" class="edge">
<title>L4YAML.Scanner.skipToEndOfLine&#45;&gt;L4YAML.Scanner.ScannerState</title>
<path fill="none" stroke="#4a90d9" stroke-width="2" d="M350.41,-185.65C321.67,-177.15 286.74,-161.41 269,-133 258.64,-116.41 256.88,-104.34 269,-89 291.2,-60.9 391.02,-45.86 450.65,-39.24"/>
<polygon fill="#4a90d9" stroke="#4a90d9" stroke-width="2" points="451.02,-41.66 457.71,-38.47 450.49,-36.79 451.02,-41.66"/>
<text text-anchor="middle" x="278.5" y="-113.1" font-family="Times-Roman" font-size="8.00">calls</text>
</g>
<!-- L4YAML.Scanner.skipToEndOfLineLoop -->
<g id="node7" class="node">
<title>L4YAML.Scanner.skipToEndOfLineLoop</title>
<g id="a_node7"><a xlink:href="../../../api/L4YAML/Scanner/Whitespace.html#L4YAML.Scanner.skipToEndOfLineLoop" xlink:title="skipToEndOfLineLoop" target="_blank">
<polygon fill="#dce9f7" stroke="#4a90d9" points="534,-133 422,-133 422,-97 534,-97 534,-133"/>
<text text-anchor="middle" x="478" y="-112.5" font-family="Helvetica" font-size="10.00">skipToEndOfLineLoop</text>
</a>
</g>
</g>
<!-- L4YAML.Scanner.skipToEndOfLine&#45;&gt;L4YAML.Scanner.skipToEndOfLineLoop -->
<g id="edge5" class="edge">
<title>L4YAML.Scanner.skipToEndOfLine&#45;&gt;L4YAML.Scanner.skipToEndOfLineLoop</title>
<path fill="none" stroke="#4a90d9" stroke-width="2" d="M398.76,-177.6C400.88,-168.82 404.59,-158.47 411,-151 415.61,-145.62 421.26,-140.95 427.3,-136.94"/>
<polygon fill="#4a90d9" stroke="#4a90d9" stroke-width="2" points="428.79,-138.9 433.45,-133.14 426.21,-134.73 428.79,-138.9"/>
<text text-anchor="middle" x="420.5" y="-153.6" font-family="Times-Roman" font-size="8.00">calls</text>
</g>
<!-- L4YAML.Scanner.ScannerState.simpleKeyStack -->
<g id="node5" class="node">
<title>L4YAML.Scanner.ScannerState.simpleKeyStack</title>
<g id="a_node5"><a xlink:href="../../../api/L4YAML/Scanner/State.html#L4YAML.Scanner.ScannerState.simpleKeyStack" xlink:title="ScannerState.simpleKeyStack" target="_blank">
<polygon fill="#dce9f7" stroke="#4a90d9" points="495.5,-268 346.5,-268 346.5,-232 495.5,-232 495.5,-268"/>
<text text-anchor="middle" x="421" y="-247.5" font-family="Helvetica" font-size="10.00">ScannerState.simpleKeyStack</text>
</a>
</g>
</g>
<!-- L4YAML.Scanner.ScannerState.simpleKeyStack&#45;&gt;L4YAML.Scanner.ScannerState -->
<g id="edge38" class="edge">
<title>L4YAML.Scanner.ScannerState.simpleKeyStack&#45;&gt;L4YAML.Scanner.ScannerState</title>
<path fill="none" stroke="#4a90d9" stroke-width="2" d="M364.52,-231.96C329.26,-218.29 286.13,-195.43 262,-160 244.17,-133.83 243.15,-117.95 256,-89 271.7,-53.62 385.49,-41.27 450.59,-37.07"/>
<polygon fill="#4a90d9" stroke="#4a90d9" stroke-width="2" points="451.06,-39.5 457.9,-36.62 450.76,-34.61 451.06,-39.5"/>
<text text-anchor="middle" x="271.5" y="-153.6" font-family="Times-Roman" font-size="8.00">calls</text>
</g>
<!-- L4YAML.YamlPos -->
<g id="node6" class="node">
<title>L4YAML.YamlPos</title>
<g id="a_node6"><a xlink:href="../../../api/L4YAML/Spec/Types.html#L4YAML.YamlPos" xlink:title="YamlPos" target="_blank">
<polygon fill="#dce9f7" stroke="#4a90d9" points="72,-214 16,-214 16,-178 72,-178 72,-214"/>
<text text-anchor="middle" x="44" y="-193.5" font-family="Helvetica" font-size="10.00">YamlPos</text>
</a>
</g>
</g>
<!-- L4YAML.Scanner.skipToEndOfLineLoop&#45;&gt;L4YAML.Scanner.ScannerState -->
<g id="edge8" class="edge">
<title>L4YAML.Scanner.skipToEndOfLineLoop&#45;&gt;L4YAML.Scanner.ScannerState</title>
<path fill="none" stroke="#4a90d9" stroke-width="2" d="M481.91,-96.86C484.43,-85.78 487.75,-71.21 490.53,-58.99"/>
<polygon fill="#4a90d9" stroke="#4a90d9" stroke-width="2" points="492.94,-59.48 492.1,-52.11 488.16,-58.39 492.94,-59.48"/>
<text text-anchor="middle" x="496.5" y="-72.6" font-family="Times-Roman" font-size="8.00">calls</text>
</g>
<!-- L4YAML.Scanner.scanDirective -->
<g id="node8" class="node">
<title>L4YAML.Scanner.scanDirective</title>
<g id="a_node8"><a xlink:href="../../../api/L4YAML/Scanner/Document.html#L4YAML.Scanner.scanDirective" xlink:title="scanDirective" target="_blank">
<polygon fill="#dce9f7" stroke="#4a90d9" points="226,-322 150,-322 150,-286 226,-286 226,-322"/>
<text text-anchor="middle" x="188" y="-301.5" font-family="Helvetica" font-size="10.00">scanDirective</text>
</a>
</g>
</g>
<!-- L4YAML.Scanner.scanDirective&#45;&gt;L4YAML.Scanner.skipWhitespace -->
<g id="edge11" class="edge">
<title>L4YAML.Scanner.scanDirective&#45;&gt;L4YAML.Scanner.skipWhitespace</title>
<path fill="none" stroke="#4a90d9" stroke-width="2" d="M188,-285.97C188,-268.53 188,-241.26 188,-221.51"/>
<polygon fill="#4a90d9" stroke="#4a90d9" stroke-width="2" points="190.45,-221.34 188,-214.34 185.55,-221.34 190.45,-221.34"/>
<text text-anchor="middle" x="197.5" y="-248.1" font-family="Times-Roman" font-size="8.00">calls</text>
</g>
<!-- L4YAML.Scanner.scanDirective&#45;&gt;L4YAML.Scanner.skipToEndOfLine -->
<g id="edge2" class="edge">
<title>L4YAML.Scanner.scanDirective&#45;&gt;L4YAML.Scanner.skipToEndOfLine</title>
<path fill="none" stroke="#4a90d9" stroke-width="2" d="M218.12,-285.89C244.47,-271.12 283.91,-249.46 319,-232 329.13,-226.96 340.13,-221.79 350.56,-217.02"/>
<polygon fill="#4a90d9" stroke="#4a90d9" stroke-width="2" points="351.62,-219.23 356.97,-214.1 349.59,-214.77 351.62,-219.23"/>
<text text-anchor="middle" x="328.5" y="-248.1" font-family="Times-Roman" font-size="8.00">calls</text>
</g>
<!-- L4YAML.Scanner.scanDirective&#45;&gt;L4YAML.YamlPos -->
<g id="edge34" class="edge">
<title>L4YAML.Scanner.scanDirective&#45;&gt;L4YAML.YamlPos</title>
<path fill="none" stroke="#4a90d9" stroke-width="2" d="M149.84,-297.1C128.59,-292.23 102.71,-283.48 84,-268 69.16,-255.72 58.79,-236.42 52.33,-221.04"/>
<polygon fill="#4a90d9" stroke="#4a90d9" stroke-width="2" points="54.51,-219.88 49.64,-214.29 49.96,-221.7 54.51,-219.88"/>
<text text-anchor="middle" x="93.5" y="-248.1" font-family="Times-Roman" font-size="8.00">calls</text>
</g>
<!-- L4YAML.Scanner.collectDirectiveNameLoop -->
<g id="node9" class="node">
<title>L4YAML.Scanner.collectDirectiveNameLoop</title>
<g id="a_node9"><a xlink:href="../../../api/L4YAML/Scanner/Document.html#L4YAML.Scanner.collectDirectiveNameLoop" xlink:title="collectDirectiveNameLoop" target="_blank">
<polygon fill="#dce9f7" stroke="#4a90d9" points="202.5,-133 71.5,-133 71.5,-97 202.5,-97 202.5,-133"/>
<text text-anchor="middle" x="137" y="-112.5" font-family="Helvetica" font-size="10.00">collectDirectiveNameLoop</text>
</a>
</g>
</g>
<!-- L4YAML.Scanner.scanDirective&#45;&gt;L4YAML.Scanner.collectDirectiveNameLoop -->
<g id="edge23" class="edge">
<title>L4YAML.Scanner.scanDirective&#45;&gt;L4YAML.Scanner.collectDirectiveNameLoop</title>
<path fill="none" stroke="#4a90d9" stroke-width="2" d="M168.29,-285.87C151.01,-269.44 127.12,-242.92 117,-214 108.34,-189.26 116.85,-159.63 125.28,-139.47"/>
<polygon fill="#4a90d9" stroke="#4a90d9" stroke-width="2" points="127.55,-140.41 128.12,-133.02 123.06,-138.44 127.55,-140.41"/>
<text text-anchor="middle" x="126.5" y="-194.1" font-family="Times-Roman" font-size="8.00">calls</text>
</g>
<!-- L4YAML.Scanner.collectDirectiveNameLoop&#45;&gt;L4YAML.Scanner.ScannerState -->
<g id="edge26" class="edge">
<title>L4YAML.Scanner.collectDirectiveNameLoop&#45;&gt;L4YAML.Scanner.ScannerState</title>
<path fill="none" stroke="#4a90d9" stroke-width="2" d="M155.29,-96.99C166.7,-87.4 182.18,-76.15 198,-70 243,-52.5 379.1,-41.99 450.76,-37.53"/>
<polygon fill="#4a90d9" stroke="#4a90d9" stroke-width="2" points="451.07,-39.96 457.91,-37.09 450.77,-35.07 451.07,-39.96"/>
<text text-anchor="middle" x="207.5" y="-72.6" font-family="Times-Roman" font-size="8.00">calls</text>
</g>
<!-- L4YAML.Proofs.ScannerCorrectness.skipToEndOfLine_preserves_simpleKeyStack -->
<g id="node10" class="node">
<title>L4YAML.Proofs.ScannerCorrectness.skipToEndOfLine_preserves_simpleKeyStack</title>
<g id="a_node10"><a xlink:href="../../../api/L4YAML/Proofs/Scanner/ScannerCorrectness.html#L4YAML.Proofs.ScannerCorrectness.skipToEndOfLine_preserves_simpleKeyStack" xlink:title="ScannerCorrectness.skipToEndOfLine_preserves_simpleKeyStack" target="_blank">
<ellipse fill="#d4edda" stroke="#28a745" cx="1494" cy="-304" rx="180.94" ry="18"/>
<text text-anchor="middle" x="1494" y="-301.5" font-family="Helvetica" font-size="10.00">ScannerCorrectness.skipToEndOfLine_preserves_simpleKeyStack</text>
</a>
</g>
</g>
<!-- L4YAML.Proofs.ScannerCorrectness.skipToEndOfLine_preserves_simpleKeyStack&#45;&gt;L4YAML.Scanner.skipToEndOfLine -->
<g id="edge4" class="edge">
<title>L4YAML.Proofs.ScannerCorrectness.skipToEndOfLine_preserves_simpleKeyStack&#45;&gt;L4YAML.Scanner.skipToEndOfLine</title>
<path fill="none" stroke="#6f42c1" stroke-width="2" stroke-dasharray="5,2" d="M1364.87,-291.38C1257.73,-281.73 1120.87,-269.36 1108,-268 974.89,-253.96 942.26,-244.57 809,-232 692.36,-220.99 662.68,-224.6 546,-214 513.64,-211.06 477.44,-206.98 448.71,-203.55"/>
<polygon fill="#6f42c1" stroke="#6f42c1" stroke-width="2" points="448.81,-201.1 441.57,-202.7 448.23,-205.96 448.81,-201.1"/>
<text text-anchor="middle" x="1120.5" y="-248.1" font-family="Times-Roman" font-size="8.00" fill="#6f42c1">about</text>
</g>
<!-- L4YAML.Proofs.ScannerCorrectness.skipToEndOfLineLoop_preserves_simpleKeyStack -->
<g id="node15" class="node">
<title>L4YAML.Proofs.ScannerCorrectness.skipToEndOfLineLoop_preserves_simpleKeyStack</title>
<g id="a_node15"><a xlink:href="../../../api/L4YAML/Proofs/Scanner/ScannerCorrectness.html#L4YAML.Proofs.ScannerCorrectness.skipToEndOfLineLoop_preserves_simpleKeyStack" xlink:title="ScannerCorrectness.skipToEndOfLineLoop_preserves_simpleKeyStack" target="_blank">
<ellipse fill="#d4edda" stroke="#28a745" cx="1575" cy="-196" rx="193.16" ry="18"/>
<text text-anchor="middle" x="1575" y="-193.5" font-family="Helvetica" font-size="10.00">ScannerCorrectness.skipToEndOfLineLoop_preserves_simpleKeyStack</text>
</a>
</g>
</g>
<!-- L4YAML.Proofs.ScannerCorrectness.skipToEndOfLine_preserves_simpleKeyStack&#45;&gt;L4YAML.Proofs.ScannerCorrectness.skipToEndOfLineLoop_preserves_simpleKeyStack -->
<g id="edge6" class="edge">
<title>L4YAML.Proofs.ScannerCorrectness.skipToEndOfLine_preserves_simpleKeyStack&#45;&gt;L4YAML.Proofs.ScannerCorrectness.skipToEndOfLineLoop_preserves_simpleKeyStack</title>
<path fill="none" stroke="#28a745" stroke-width="2" d="M1507.01,-285.97C1520.77,-267.97 1542.54,-239.48 1557.73,-219.6"/>
<polygon fill="#28a745" stroke="#28a745" stroke-width="2" points="1559.71,-221.04 1562.02,-213.99 1555.82,-218.06 1559.71,-221.04"/>
<text text-anchor="middle" x="1556" y="-248.1" font-family="Times-Roman" font-size="8.00">uses</text>
</g>
<!-- L4YAML.Scanner.skipWhitespaceLoop.eq_def -->
<g id="node11" class="node">
<title>L4YAML.Scanner.skipWhitespaceLoop.eq_def</title>
<g id="a_node11"><a xlink:href="../../../api/L4YAML/Scanner/Whitespace.html#L4YAML.Scanner.skipWhitespaceLoop.eq_def" xlink:title="skipWhitespaceLoop.eq_def" target="_blank">
<ellipse fill="#d4edda" stroke="#28a745" cx="850" cy="-115" rx="82.33" ry="18"/>
<text text-anchor="middle" x="850" y="-112.5" font-family="Helvetica" font-size="10.00">skipWhitespaceLoop.eq_def</text>
</a>
</g>
</g>
<!-- L4YAML.Scanner.skipWhitespaceLoop.eq_def&#45;&gt;L4YAML.Scanner.ScannerState -->
<g id="edge19" class="edge">
<title>L4YAML.Scanner.skipWhitespaceLoop.eq_def&#45;&gt;L4YAML.Scanner.ScannerState</title>
<path fill="none" stroke="#6f42c1" stroke-width="2" stroke-dasharray="5,2" d="M801.98,-100.17C788.15,-96.37 773.02,-92.36 759,-89 683.02,-70.78 593.79,-53.27 541.23,-43.35"/>
<polygon fill="#6f42c1" stroke="#6f42c1" stroke-width="2" points="541.4,-40.89 534.06,-42 540.49,-45.71 541.4,-40.89"/>
<text text-anchor="middle" x="720.5" y="-72.6" font-family="Times-Roman" font-size="8.00" fill="#6f42c1">about</text>
</g>
<!-- L4YAML.Proofs.ScannerCorrectness.collectDirectiveNameLoop_preserves_simpleKeyStack -->
<g id="node12" class="node">
<title>L4YAML.Proofs.ScannerCorrectness.collectDirectiveNameLoop_preserves_simpleKeyStack</title>
<g id="a_node12"><a xlink:href="../../../api/L4YAML/Proofs/Scanner/ScannerCorrectness.html#L4YAML.Proofs.ScannerCorrectness.collectDirectiveNameLoop_preserves_simpleKeyStack" xlink:title="ScannerCorrectness.collectDirectiveNameLoop_preserves_simpleKeyStack" target="_blank">
<ellipse fill="#d4edda" stroke="#28a745" cx="762" cy="-196" rx="204.03" ry="18"/>
<text text-anchor="middle" x="762" y="-193.5" font-family="Helvetica" font-size="10.00">ScannerCorrectness.collectDirectiveNameLoop_preserves_simpleKeyStack</text>
</a>
</g>
</g>
<!-- L4YAML.Proofs.ScannerCorrectness.collectDirectiveNameLoop_preserves_simpleKeyStack&#45;&gt;L4YAML.Scanner.collectDirectiveNameLoop -->
<g id="edge25" class="edge">
<title>L4YAML.Proofs.ScannerCorrectness.collectDirectiveNameLoop_preserves_simpleKeyStack&#45;&gt;L4YAML.Scanner.collectDirectiveNameLoop</title>
<path fill="none" stroke="#6f42c1" stroke-width="2" stroke-dasharray="5,2" d="M614.32,-183.5C564.65,-178.16 509.13,-170.58 459,-160 445.8,-157.21 443.23,-153.64 430,-151 345.52,-134.14 322.42,-144.23 237,-133 228.1,-131.83 218.77,-130.45 209.54,-128.99"/>
<polygon fill="#6f42c1" stroke="#6f42c1" stroke-width="2" points="209.82,-126.56 202.52,-127.87 209.04,-131.39 209.82,-126.56"/>
<text text-anchor="middle" x="471.5" y="-153.6" font-family="Times-Roman" font-size="8.00" fill="#6f42c1">about</text>
</g>
<!-- L4YAML.Scanner.collectDirectiveNameLoop.eq_def -->
<g id="node13" class="node">
<title>L4YAML.Scanner.collectDirectiveNameLoop.eq_def</title>
<g id="a_node13"><a xlink:href="../../../api/L4YAML/Proofs/Coupling/StructureCoupling.html#L4YAML.Scanner.collectDirectiveNameLoop.eq_def" xlink:title="collectDirectiveNameLoop.eq_def" target="_blank">
<ellipse fill="#d4edda" stroke="#28a745" cx="654" cy="-115" rx="95.9" ry="18"/>
<text text-anchor="middle" x="654" y="-112.5" font-family="Helvetica" font-size="10.00">collectDirectiveNameLoop.eq_def</text>
</a>
</g>
</g>
<!-- L4YAML.Proofs.ScannerCorrectness.collectDirectiveNameLoop_preserves_simpleKeyStack&#45;&gt;L4YAML.Scanner.collectDirectiveNameLoop.eq_def -->
<g id="edge27" class="edge">
<title>L4YAML.Proofs.ScannerCorrectness.collectDirectiveNameLoop_preserves_simpleKeyStack&#45;&gt;L4YAML.Scanner.collectDirectiveNameLoop.eq_def</title>
<path fill="none" stroke="#28a745" stroke-width="2" d="M738.83,-178.05C722.35,-166 700.1,-149.72 682.53,-136.87"/>
<polygon fill="#28a745" stroke="#28a745" stroke-width="2" points="683.86,-134.8 676.76,-132.65 680.96,-138.76 683.86,-134.8"/>
<text text-anchor="middle" x="721" y="-153.6" font-family="Times-Roman" font-size="8.00">uses</text>
</g>
<!-- L4YAML.Proofs.ScannerCorrectness.advance_preserves_simpleKeyStack -->
<g id="node19" class="node">
<title>L4YAML.Proofs.ScannerCorrectness.advance_preserves_simpleKeyStack</title>
<g id="a_node19"><a xlink:href="../../../api/L4YAML/Proofs/Scanner/ScannerCorrectness.html#L4YAML.Proofs.ScannerCorrectness.advance_preserves_simpleKeyStack" xlink:title="ScannerCorrectness.advance_preserves_simpleKeyStack" target="_blank">
<ellipse fill="#d4edda" stroke="#28a745" cx="1109" cy="-115" rx="158.2" ry="18"/>
<text text-anchor="middle" x="1109" y="-112.5" font-family="Helvetica" font-size="10.00">ScannerCorrectness.advance_preserves_simpleKeyStack</text>
</a>
</g>
</g>
<!-- L4YAML.Proofs.ScannerCorrectness.collectDirectiveNameLoop_preserves_simpleKeyStack&#45;&gt;L4YAML.Proofs.ScannerCorrectness.advance_preserves_simpleKeyStack -->
<g id="edge29" class="edge">
<title>L4YAML.Proofs.ScannerCorrectness.collectDirectiveNameLoop_preserves_simpleKeyStack&#45;&gt;L4YAML.Proofs.ScannerCorrectness.advance_preserves_simpleKeyStack</title>
<path fill="none" stroke="#28a745" stroke-width="2" d="M832.22,-179.01C890.93,-165.65 974.44,-146.63 1034.35,-132.99"/>
<polygon fill="#28a745" stroke="#28a745" stroke-width="2" points="1035.26,-135.3 1041.54,-131.36 1034.17,-130.52 1035.26,-135.3"/>
<text text-anchor="middle" x="955" y="-153.6" font-family="Times-Roman" font-size="8.00">uses</text>
</g>
<!-- L4YAML.Scanner.collectDirectiveNameLoop.eq_def&#45;&gt;L4YAML.Scanner.ScannerState -->
<g id="edge28" class="edge">
<title>L4YAML.Scanner.collectDirectiveNameLoop.eq_def&#45;&gt;L4YAML.Scanner.ScannerState</title>
<path fill="none" stroke="#6f42c1" stroke-width="2" stroke-dasharray="5,2" d="M622.03,-98.01C597.42,-85.71 563.25,-68.62 536.69,-55.35"/>
<polygon fill="#6f42c1" stroke="#6f42c1" stroke-width="2" points="537.47,-53 530.11,-52.06 535.28,-57.38 537.47,-53"/>
<text text-anchor="middle" x="591.5" y="-72.6" font-family="Times-Roman" font-size="8.00" fill="#6f42c1">about</text>
</g>
<!-- L4YAML.Scanner.skipToEndOfLineLoop.eq_def -->
<g id="node14" class="node">
<title>L4YAML.Scanner.skipToEndOfLineLoop.eq_def</title>
<g id="a_node14"><a xlink:href="../../../api/L4YAML/Scanner/Whitespace.html#L4YAML.Scanner.skipToEndOfLineLoop.eq_def" xlink:title="skipToEndOfLineLoop.eq_def" target="_blank">
<ellipse fill="#d4edda" stroke="#28a745" cx="1370" cy="-115" rx="84.54" ry="18"/>
<text text-anchor="middle" x="1370" y="-112.5" font-family="Helvetica" font-size="10.00">skipToEndOfLineLoop.eq_def</text>
</a>
</g>
</g>
<!-- L4YAML.Scanner.skipToEndOfLineLoop.eq_def&#45;&gt;L4YAML.Scanner.ScannerState -->
<g id="edge22" class="edge">
<title>L4YAML.Scanner.skipToEndOfLineLoop.eq_def&#45;&gt;L4YAML.Scanner.ScannerState</title>
<path fill="none" stroke="#6f42c1" stroke-width="2" stroke-dasharray="5,2" d="M1323.53,-99.76C1308.49,-95.66 1291.66,-91.6 1276,-89 999.58,-43.11 661.78,-36.11 541.32,-35.13"/>
<polygon fill="#6f42c1" stroke="#6f42c1" stroke-width="2" points="541.06,-32.68 534.04,-35.07 541.02,-37.58 541.06,-32.68"/>
<text text-anchor="middle" x="1204.5" y="-72.6" font-family="Times-Roman" font-size="8.00" fill="#6f42c1">about</text>
</g>
<!-- L4YAML.Proofs.ScannerCorrectness.skipToEndOfLineLoop_preserves_simpleKeyStack&#45;&gt;L4YAML.Scanner.ScannerState -->
<g id="edge33" class="edge">
<title>L4YAML.Proofs.ScannerCorrectness.skipToEndOfLineLoop_preserves_simpleKeyStack&#45;&gt;L4YAML.Scanner.ScannerState</title>
<path fill="none" stroke="#6f42c1" stroke-width="2" stroke-dasharray="5,2" d="M1573.76,-177.99C1571.05,-154.11 1562.42,-111.09 1535,-89 1489.87,-52.65 1463.7,-75.34 1406,-70 1075.35,-39.38 674.73,-35.44 541.51,-35.02"/>
<polygon fill="#6f42c1" stroke="#6f42c1" stroke-width="2" points="541.25,-32.57 534.24,-35 541.23,-37.47 541.25,-32.57"/>
<text text-anchor="middle" x="1575.5" y="-113.1" font-family="Times-Roman" font-size="8.00" fill="#6f42c1">about</text>
</g>
<!-- L4YAML.Proofs.ScannerCorrectness.skipToEndOfLineLoop_preserves_simpleKeyStack&#45;&gt;L4YAML.Scanner.skipToEndOfLineLoop -->
<g id="edge7" class="edge">
<title>L4YAML.Proofs.ScannerCorrectness.skipToEndOfLineLoop_preserves_simpleKeyStack&#45;&gt;L4YAML.Scanner.skipToEndOfLineLoop</title>
<path fill="none" stroke="#6f42c1" stroke-width="2" stroke-dasharray="5,2" d="M1443.33,-182.81C1419.92,-180.95 1395.75,-179.25 1373,-178 1063.14,-160.98 983.24,-195.93 675,-160 629.78,-154.73 579.72,-143.48 541.38,-133.67"/>
<polygon fill="#6f42c1" stroke="#6f42c1" stroke-width="2" points="541.75,-131.24 534.36,-131.86 540.53,-135.98 541.75,-131.24"/>
<text text-anchor="middle" x="687.5" y="-153.6" font-family="Times-Roman" font-size="8.00" fill="#6f42c1">about</text>
</g>
<!-- L4YAML.Proofs.ScannerCorrectness.skipToEndOfLineLoop_preserves_simpleKeyStack&#45;&gt;L4YAML.Scanner.skipToEndOfLineLoop.eq_def -->
<g id="edge21" class="edge">
<title>L4YAML.Proofs.ScannerCorrectness.skipToEndOfLineLoop_preserves_simpleKeyStack&#45;&gt;L4YAML.Scanner.skipToEndOfLineLoop.eq_def</title>
<path fill="none" stroke="#28a745" stroke-width="2" d="M1532.03,-178.44C1498.01,-165.33 1450.62,-147.07 1415.88,-133.68"/>
<polygon fill="#28a745" stroke="#28a745" stroke-width="2" points="1416.52,-131.3 1409.1,-131.07 1414.76,-135.87 1416.52,-131.3"/>
<text text-anchor="middle" x="1488" y="-153.6" font-family="Times-Roman" font-size="8.00">uses</text>
</g>
<!-- L4YAML.Proofs.ScannerCorrectness.skipToEndOfLineLoop_preserves_simpleKeyStack&#45;&gt;L4YAML.Proofs.ScannerCorrectness.advance_preserves_simpleKeyStack -->
<g id="edge9" class="edge">
<title>L4YAML.Proofs.ScannerCorrectness.skipToEndOfLineLoop_preserves_simpleKeyStack&#45;&gt;L4YAML.Proofs.ScannerCorrectness.advance_preserves_simpleKeyStack</title>
<path fill="none" stroke="#28a745" stroke-width="2" d="M1486.25,-179.95C1404.35,-166.07 1283.25,-145.54 1200.49,-131.51"/>
<polygon fill="#28a745" stroke="#28a745" stroke-width="2" points="1200.41,-129.01 1193.1,-130.26 1199.6,-133.84 1200.41,-129.01"/>
<text text-anchor="middle" x="1365" y="-153.6" font-family="Times-Roman" font-size="8.00">uses</text>
</g>
<!-- L4YAML.Proofs.ScannerCorrectness.skipWhitespaceLoop_preserves_simpleKeyStack -->
<g id="node16" class="node">
<title>L4YAML.Proofs.ScannerCorrectness.skipWhitespaceLoop_preserves_simpleKeyStack</title>
<g id="a_node16"><a xlink:href="../../../api/L4YAML/Proofs/Scanner/ScannerCorrectness.html#L4YAML.Proofs.ScannerCorrectness.skipWhitespaceLoop_preserves_simpleKeyStack" xlink:title="ScannerCorrectness.skipWhitespaceLoop_preserves_simpleKeyStack" target="_blank">
<ellipse fill="#d4edda" stroke="#28a745" cx="1174" cy="-196" rx="190.28" ry="18"/>
<text text-anchor="middle" x="1174" y="-193.5" font-family="Helvetica" font-size="10.00">ScannerCorrectness.skipWhitespaceLoop_preserves_simpleKeyStack</text>
</a>
</g>
</g>
<!-- L4YAML.Proofs.ScannerCorrectness.skipWhitespaceLoop_preserves_simpleKeyStack&#45;&gt;L4YAML.Scanner.skipWhitespaceLoop -->
<g id="edge16" class="edge">
<title>L4YAML.Proofs.ScannerCorrectness.skipWhitespaceLoop_preserves_simpleKeyStack&#45;&gt;L4YAML.Scanner.skipWhitespaceLoop</title>
<path fill="none" stroke="#6f42c1" stroke-width="2" stroke-dasharray="5,2" d="M1042.94,-182.93C1020.29,-181.1 996.98,-179.36 975,-178 871.79,-171.6 611.63,-179.12 510,-160 497.98,-157.74 495.71,-154.51 484,-151 452.81,-141.67 444.49,-141.24 413,-133 412.14,-132.77 411.27,-132.55 410.39,-132.32"/>
<polygon fill="#6f42c1" stroke="#6f42c1" stroke-width="2" points="410.99,-129.94 403.6,-130.52 409.74,-134.68 410.99,-129.94"/>
<text text-anchor="middle" x="522.5" y="-153.6" font-family="Times-Roman" font-size="8.00" fill="#6f42c1">about</text>
</g>
<!-- L4YAML.Proofs.ScannerCorrectness.skipWhitespaceLoop_preserves_simpleKeyStack&#45;&gt;L4YAML.Scanner.ScannerState -->
<g id="edge31" class="edge">
<title>L4YAML.Proofs.ScannerCorrectness.skipWhitespaceLoop_preserves_simpleKeyStack&#45;&gt;L4YAML.Scanner.ScannerState</title>
<path fill="none" stroke="#6f42c1" stroke-width="2" stroke-dasharray="5,2" d="M1309.53,-183.36C1387.43,-176.01 1471.07,-166.66 1477,-160 1492.05,-143.11 1551.79,-166.17 1464,-89 1428.95,-58.19 728.08,-40.23 541.37,-35.98"/>
<polygon fill="#6f42c1" stroke="#6f42c1" stroke-width="2" points="541.22,-33.53 534.16,-35.82 541.11,-38.43 541.22,-33.53"/>
<text text-anchor="middle" x="1518.5" y="-113.1" font-family="Times-Roman" font-size="8.00" fill="#6f42c1">about</text>
</g>
<!-- L4YAML.Proofs.ScannerCorrectness.skipWhitespaceLoop_preserves_simpleKeyStack&#45;&gt;L4YAML.Scanner.skipWhitespaceLoop.eq_def -->
<g id="edge18" class="edge">
<title>L4YAML.Proofs.ScannerCorrectness.skipWhitespaceLoop_preserves_simpleKeyStack&#45;&gt;L4YAML.Scanner.skipWhitespaceLoop.eq_def</title>
<path fill="none" stroke="#28a745" stroke-width="2" d="M1108.43,-179.01C1050.36,-164.85 966.29,-144.35 909.97,-130.62"/>
<polygon fill="#28a745" stroke="#28a745" stroke-width="2" points="910.28,-128.18 902.9,-128.9 909.12,-132.94 910.28,-128.18"/>
<text text-anchor="middle" x="1031" y="-153.6" font-family="Times-Roman" font-size="8.00">uses</text>
</g>
<!-- L4YAML.Proofs.ScannerCorrectness.skipWhitespaceLoop_preserves_simpleKeyStack&#45;&gt;L4YAML.Proofs.ScannerCorrectness.advance_preserves_simpleKeyStack -->
<g id="edge20" class="edge">
<title>L4YAML.Proofs.ScannerCorrectness.skipWhitespaceLoop_preserves_simpleKeyStack&#45;&gt;L4YAML.Proofs.ScannerCorrectness.advance_preserves_simpleKeyStack</title>
<path fill="none" stroke="#28a745" stroke-width="2" d="M1159.9,-177.86C1150.44,-166.37 1137.89,-151.11 1127.62,-138.63"/>
<polygon fill="#28a745" stroke="#28a745" stroke-width="2" points="1129.42,-136.96 1123.08,-133.11 1125.63,-140.07 1129.42,-136.96"/>
<text text-anchor="middle" x="1153" y="-153.6" font-family="Times-Roman" font-size="8.00">uses</text>
</g>
<!-- L4YAML.Proofs.ScannerCorrectness.skipWhitespace_preserves_simpleKeyStack -->
<g id="node17" class="node">
<title>L4YAML.Proofs.ScannerCorrectness.skipWhitespace_preserves_simpleKeyStack</title>
<g id="a_node17"><a xlink:href="../../../api/L4YAML/Proofs/Scanner/ScannerCorrectness.html#L4YAML.Proofs.ScannerCorrectness.skipWhitespace_preserves_simpleKeyStack" xlink:title="ScannerCorrectness.skipWhitespace_preserves_simpleKeyStack" target="_blank">
<ellipse fill="#d4edda" stroke="#28a745" cx="1118" cy="-304" rx="177.55" ry="18"/>
<text text-anchor="middle" x="1118" y="-301.5" font-family="Helvetica" font-size="10.00">ScannerCorrectness.skipWhitespace_preserves_simpleKeyStack</text>
</a>
</g>
</g>
<!-- L4YAML.Proofs.ScannerCorrectness.skipWhitespace_preserves_simpleKeyStack&#45;&gt;L4YAML.Scanner.skipWhitespace -->
<g id="edge13" class="edge">
<title>L4YAML.Proofs.ScannerCorrectness.skipWhitespace_preserves_simpleKeyStack&#45;&gt;L4YAML.Scanner.skipWhitespace</title>
<path fill="none" stroke="#6f42c1" stroke-width="2" stroke-dasharray="5,2" d="M988.46,-291.62C911.77,-284.45 822.32,-275.22 784,-268 724.66,-256.82 712.58,-241.8 653,-232 516.38,-209.53 479.97,-225.6 342,-214 307.26,-211.08 268.22,-206.76 238.14,-203.2"/>
<polygon fill="#6f42c1" stroke="#6f42c1" stroke-width="2" points="238.33,-200.76 231.09,-202.36 237.75,-205.62 238.33,-200.76"/>
<text text-anchor="middle" x="796.5" y="-248.1" font-family="Times-Roman" font-size="8.00" fill="#6f42c1">about</text>
</g>
<!-- L4YAML.Proofs.ScannerCorrectness.skipWhitespace_preserves_simpleKeyStack&#45;&gt;L4YAML.Proofs.ScannerCorrectness.skipWhitespaceLoop_preserves_simpleKeyStack -->
<g id="edge15" class="edge">
<title>L4YAML.Proofs.ScannerCorrectness.skipWhitespace_preserves_simpleKeyStack&#45;&gt;L4YAML.Proofs.ScannerCorrectness.skipWhitespaceLoop_preserves_simpleKeyStack</title>
<path fill="none" stroke="#28a745" stroke-width="2" d="M1127,-285.97C1136.39,-268.2 1151.17,-240.21 1161.65,-220.38"/>
<polygon fill="#28a745" stroke="#28a745" stroke-width="2" points="1163.92,-221.32 1165.02,-213.99 1159.59,-219.03 1163.92,-221.32"/>
<text text-anchor="middle" x="1164" y="-248.1" font-family="Times-Roman" font-size="8.00">uses</text>
</g>
<!-- L4YAML.Proofs.ScannerCorrectness.emitAt_preserves_simpleKeyStack -->
<g id="node18" class="node">
<title>L4YAML.Proofs.ScannerCorrectness.emitAt_preserves_simpleKeyStack</title>
<g id="a_node18"><a xlink:href="../../../api/L4YAML/Proofs/Scanner/ScannerCorrectness.html#L4YAML.Proofs.ScannerCorrectness.emitAt_preserves_simpleKeyStack" xlink:title="ScannerCorrectness.emitAt_preserves_simpleKeyStack" target="_blank">
<ellipse fill="#d4edda" stroke="#28a745" cx="712" cy="-304" rx="153.78" ry="18"/>
<text text-anchor="middle" x="712" y="-301.5" font-family="Helvetica" font-size="10.00">ScannerCorrectness.emitAt_preserves_simpleKeyStack</text>
</a>
</g>
</g>
<!-- L4YAML.Proofs.ScannerCorrectness.emitAt_preserves_simpleKeyStack&#45;&gt;L4YAML.Scanner.ScannerState -->
<g id="edge39" class="edge">
<title>L4YAML.Proofs.ScannerCorrectness.emitAt_preserves_simpleKeyStack&#45;&gt;L4YAML.Scanner.ScannerState</title>
<path fill="none" stroke="#6f42c1" stroke-width="2" stroke-dasharray="5,2" d="M819.54,-291.1C840.56,-289.12 862.46,-287.29 883,-286 1035.42,-276.44 1418.79,-289.42 1570,-268 1669.33,-253.93 1830.39,-262.93 1777,-178 1728.44,-100.75 1679,-116.49 1592,-89 1542.6,-73.39 1528.55,-75.16 1477,-70 1117.99,-34.09 681.85,-33.64 541.69,-34.56"/>
<polygon fill="#6f42c1" stroke="#6f42c1" stroke-width="2" points="541.43,-32.11 534.45,-34.61 541.47,-37.01 541.43,-32.11"/>
<text text-anchor="middle" x="1775.5" y="-153.6" font-family="Times-Roman" font-size="8.00" fill="#6f42c1">about</text>
</g>
<!-- L4YAML.Proofs.ScannerCorrectness.emitAt_preserves_simpleKeyStack&#45;&gt;L4YAML.YamlPos -->
<g id="edge36" class="edge">
<title>L4YAML.Proofs.ScannerCorrectness.emitAt_preserves_simpleKeyStack&#45;&gt;L4YAML.YamlPos</title>
<path fill="none" stroke="#6f42c1" stroke-width="2" stroke-dasharray="5,2" d="M674.36,-286.41C633.55,-269.29 566.04,-243.53 505,-232 321.84,-197.41 268.15,-253.54 86,-214 83.69,-213.5 81.35,-212.88 79.01,-212.18"/>
<polygon fill="#6f42c1" stroke="#6f42c1" stroke-width="2" points="79.46,-209.75 72.05,-209.88 77.92,-214.4 79.46,-209.75"/>
<text text-anchor="middle" x="636.5" y="-248.1" font-family="Times-Roman" font-size="8.00" fill="#6f42c1">about</text>
</g>
<!-- L4YAML.Proofs.ScannerCorrectness.advance_preserves_simpleKeyStack&#45;&gt;L4YAML.Scanner.ScannerState -->
<g id="edge10" class="edge">
<title>L4YAML.Proofs.ScannerCorrectness.advance_preserves_simpleKeyStack&#45;&gt;L4YAML.Scanner.ScannerState</title>
<path fill="none" stroke="#6f42c1" stroke-width="2" stroke-dasharray="5,2" d="M1018.82,-100.12C993.65,-96.37 966.28,-92.41 941,-89 795.02,-69.28 621.62,-49.2 541.17,-40.07"/>
<polygon fill="#6f42c1" stroke="#6f42c1" stroke-width="2" points="541.37,-37.63 534.14,-39.28 540.82,-42.5 541.37,-37.63"/>
<text text-anchor="middle" x="867.5" y="-72.6" font-family="Times-Roman" font-size="8.00" fill="#6f42c1">about</text>
</g>
<!-- L4YAML.Proofs.ScannerCorrectness.scanDirective_preserves_simpleKeyStack -->
<g id="node20" class="node">
<title>L4YAML.Proofs.ScannerCorrectness.scanDirective_preserves_simpleKeyStack</title>
<g id="a_node20"><a xlink:href="../../../api/L4YAML/Proofs/Scanner/ScannerCorrectness.html#L4YAML.Proofs.ScannerCorrectness.scanDirective_preserves_simpleKeyStack" xlink:title="ScannerCorrectness.scanDirective_preserves_simpleKeyStack" target="_blank">
<polygon fill="#fff3cd" stroke="#d4a017" points="1034.1,-401.54 1034.1,-416.46 925.09,-427 770.91,-427 661.9,-416.46 661.9,-401.54 770.91,-391 925.09,-391 1034.1,-401.54"/>
<polygon fill="none" stroke="#d4a017" points="1038.1,-397.91 1038.1,-420.09 925.28,-431 770.72,-431 657.9,-420.09 657.9,-397.91 770.72,-387 925.28,-387 1038.1,-397.91"/>
<text text-anchor="middle" x="848" y="-406.5" font-family="Helvetica" font-size="10.00">ScannerCorrectness.scanDirective_preserves_simpleKeyStack</text>
</a>
</g>
</g>
<!-- L4YAML.Proofs.ScannerCorrectness.scanDirective_preserves_simpleKeyStack&#45;&gt;L4YAML.Scanner.ScannerState.simpleKeyStack -->
<g id="edge37" class="edge">
<title>L4YAML.Proofs.ScannerCorrectness.scanDirective_preserves_simpleKeyStack&#45;&gt;L4YAML.Scanner.ScannerState.simpleKeyStack</title>
<path fill="none" stroke="#6f42c1" stroke-width="2" stroke-dasharray="5,2" d="M696.55,-394.11C647.91,-385.89 594.8,-372.81 549,-352 506.83,-332.84 466.28,-296.91 442.5,-273.48"/>
<polygon fill="#6f42c1" stroke="#6f42c1" stroke-width="2" points="444.09,-271.6 437.4,-268.39 440.62,-275.06 444.09,-271.6"/>
<text text-anchor="middle" x="599.5" y="-362.6" font-family="Times-Roman" font-size="8.00" fill="#6f42c1">about</text>
</g>
<!-- L4YAML.Proofs.ScannerCorrectness.scanDirective_preserves_simpleKeyStack&#45;&gt;L4YAML.Scanner.scanDirective -->
<g id="edge1" class="edge">
<title>L4YAML.Proofs.ScannerCorrectness.scanDirective_preserves_simpleKeyStack&#45;&gt;L4YAML.Scanner.scanDirective</title>
<path fill="none" stroke="#6f42c1" stroke-width="2" stroke-dasharray="5,2" d="M662.06,-397.48C588.76,-391.58 504.06,-382.57 428,-369 359.01,-356.69 280.9,-334.22 233.05,-319.45"/>
<polygon fill="#6f42c1" stroke="#6f42c1" stroke-width="2" points="233.62,-317.06 226.21,-317.33 232.17,-321.74 233.62,-317.06"/>
<text text-anchor="middle" x="440.5" y="-362.6" font-family="Times-Roman" font-size="8.00" fill="#6f42c1">about</text>
</g>
<!-- L4YAML.Proofs.ScannerCorrectness.scanDirective_preserves_simpleKeyStack&#45;&gt;L4YAML.Proofs.ScannerCorrectness.skipToEndOfLine_preserves_simpleKeyStack -->
<g id="edge3" class="edge">
<title>L4YAML.Proofs.ScannerCorrectness.scanDirective_preserves_simpleKeyStack&#45;&gt;L4YAML.Proofs.ScannerCorrectness.skipToEndOfLine_preserves_simpleKeyStack</title>
<path fill="none" stroke="#28a745" stroke-width="2" d="M999.22,-394.14C1088.58,-384.79 1203.7,-370.73 1305,-352 1346.92,-344.25 1393.4,-332.73 1429.78,-323.04"/>
<polygon fill="#28a745" stroke="#28a745" stroke-width="2" points="1430.78,-325.3 1436.91,-321.12 1429.52,-320.57 1430.78,-325.3"/>
<text text-anchor="middle" x="1265" y="-362.6" font-family="Times-Roman" font-size="8.00">uses</text>
</g>
<!-- L4YAML.Proofs.ScannerCorrectness.scanDirective_preserves_simpleKeyStack&#45;&gt;L4YAML.Proofs.ScannerCorrectness.collectDirectiveNameLoop_preserves_simpleKeyStack -->
<g id="edge24" class="edge">
<title>L4YAML.Proofs.ScannerCorrectness.scanDirective_preserves_simpleKeyStack&#45;&gt;L4YAML.Proofs.ScannerCorrectness.collectDirectiveNameLoop_preserves_simpleKeyStack</title>
<path fill="none" stroke="#28a745" stroke-width="2" d="M864.67,-386.76C890.42,-351.2 933.3,-278.91 897,-232 891.44,-224.82 877.54,-218.84 860.67,-213.97"/>
<polygon fill="#28a745" stroke="#28a745" stroke-width="2" points="861.2,-211.58 853.8,-212.09 859.91,-216.3 861.2,-211.58"/>
<text text-anchor="middle" x="920" y="-302.1" font-family="Times-Roman" font-size="8.00">uses</text>
</g>
<!-- L4YAML.Proofs.ScannerCorrectness.scanDirective_preserves_simpleKeyStack&#45;&gt;L4YAML.Proofs.ScannerCorrectness.skipWhitespace_preserves_simpleKeyStack -->
<g id="edge12" class="edge">
<title>L4YAML.Proofs.ScannerCorrectness.scanDirective_preserves_simpleKeyStack&#45;&gt;L4YAML.Proofs.ScannerCorrectness.skipWhitespace_preserves_simpleKeyStack</title>
<path fill="none" stroke="#28a745" stroke-width="2" d="M903.29,-386.91C951.67,-368.45 1021.33,-341.88 1068.05,-324.05"/>
<polygon fill="#28a745" stroke="#28a745" stroke-width="2" points="1069.11,-326.27 1074.77,-321.49 1067.36,-321.7 1069.11,-326.27"/>
<text text-anchor="middle" x="976" y="-362.6" font-family="Times-Roman" font-size="8.00">uses</text>
</g>
<!-- L4YAML.Proofs.ScannerCorrectness.scanDirective_preserves_simpleKeyStack&#45;&gt;L4YAML.Proofs.ScannerCorrectness.emitAt_preserves_simpleKeyStack -->
<g id="edge35" class="edge">
<title>L4YAML.Proofs.ScannerCorrectness.scanDirective_preserves_simpleKeyStack&#45;&gt;L4YAML.Proofs.ScannerCorrectness.emitAt_preserves_simpleKeyStack</title>
<path fill="none" stroke="#28a745" stroke-width="2" d="M820.15,-386.91C796.8,-369.22 763.6,-344.08 740.16,-326.32"/>
<polygon fill="#28a745" stroke="#28a745" stroke-width="2" points="741.48,-324.25 734.42,-321.98 738.52,-328.16 741.48,-324.25"/>
<text text-anchor="middle" x="806" y="-362.6" font-family="Times-Roman" font-size="8.00">uses</text>
</g>
</g>
</svg>
