<?xml version="1.0" encoding="UTF-8" standalone="no"?>
<!DOCTYPE svg PUBLIC "-//W3C//DTD SVG 1.1//EN"
 "http://www.w3.org/Graphics/SVG/1.1/DTD/svg11.dtd">
<!-- Generated by graphviz version 2.44.0 (0)
 -->
<!-- Title: chain_ScannerCorrectness.scanFlowMappingEnd_simpleKey_restored Pages: 1 -->
<svg width="930pt" height="418pt"
 viewBox="0.00 0.00 930.00 418.00" xmlns="http://www.w3.org/2000/svg" xmlns:xlink="http://www.w3.org/1999/xlink">
<g id="graph0" class="graph" transform="scale(1 1) rotate(0) translate(4 414)">
<title>chain_ScannerCorrectness.scanFlowMappingEnd_simpleKey_restored</title>
<polygon fill="white" stroke="transparent" points="-4,4 -4,-414 926,-414 926,4 -4,4"/>
<text text-anchor="middle" x="461" y="-395.6" font-family="Helvetica Bold" font-size="13.00">Functorial Chains: ScannerCorrectness.scanFlowMappingEnd_simpleKey_restored\n(heuristic: used by 5 proofs)</text>
<g id="clust1" class="cluster">
<title>cluster_fns</title>
<polygon fill="none" stroke="#4a90d9" stroke-dasharray="5,2" points="418,-8 418,-271 914,-271 914,-8 418,-8"/>
<text text-anchor="middle" x="666" y="-256.6" font-family="Helvetica Bold" font-size="13.00" fill="#4a90d9">Functions (Call Chain)</text>
</g>
<g id="clust2" class="cluster">
<title>cluster_thms</title>
<polygon fill="none" stroke="#28a745" stroke-dasharray="5,2" points="8,-197 8,-380 410,-380 410,-197 8,-197"/>
<text text-anchor="middle" x="209" y="-365.6" font-family="Helvetica Bold" font-size="13.00" fill="#28a745">Theorems (Proof Chain)</text>
</g>
<!-- L4YAML.Scanner.ScannerState.emit -->
<g id="node1" class="node">
<title>L4YAML.Scanner.ScannerState.emit</title>
<g id="a_node1"><a xlink:href="../../../api/L4YAML/Scanner/State.html#L4YAML.Scanner.ScannerState.emit" xlink:title="ScannerState.emit" target="_blank">
<polygon fill="#dce9f7" stroke="#4a90d9" points="683,-133 585,-133 585,-97 683,-97 683,-133"/>
<text text-anchor="middle" x="634" y="-112.5" font-family="Helvetica" font-size="10.00">ScannerState.emit</text>
</a>
</g>
</g>
<!-- L4YAML.Scanner.ScannerState.simpleKey -->
<g id="node2" class="node">
<title>L4YAML.Scanner.ScannerState.simpleKey</title>
<g id="a_node2"><a xlink:href="../../../api/L4YAML/Scanner/State.html#L4YAML.Scanner.ScannerState.simpleKey" xlink:title="ScannerState.simpleKey" target="_blank">
<polygon fill="#dce9f7" stroke="#4a90d9" points="611,-187 487,-187 487,-151 611,-151 611,-187"/>
<text text-anchor="middle" x="549" y="-166.5" font-family="Helvetica" font-size="10.00">ScannerState.simpleKey</text>
</a>
</g>
</g>
<!-- L4YAML.Scanner.ScannerState -->
<g id="node3" class="node">
<title>L4YAML.Scanner.ScannerState</title>
<g id="a_node3"><a xlink:href="../../../api/L4YAML/Scanner/State.html#L4YAML.Scanner.ScannerState" xlink:title="ScannerState" target="_blank">
<polygon fill="#dce9f7" stroke="#4a90d9" points="672,-52 596,-52 596,-16 672,-16 672,-52"/>
<text text-anchor="middle" x="634" y="-31.5" font-family="Helvetica" font-size="10.00">ScannerState</text>
</a>
</g>
</g>
<!-- L4YAML.Scanner.ScannerState.simpleKey&#45;&gt;L4YAML.Scanner.ScannerState -->
<g id="edge2" class="edge">
<title>L4YAML.Scanner.ScannerState.simpleKey&#45;&gt;L4YAML.Scanner.ScannerState</title>
<path fill="none" stroke="#4a90d9" stroke-width="2" d="M547.4,-150.85C546.79,-135.74 547.86,-113.63 557,-97 566.2,-80.27 581.94,-66.37 596.8,-56.01"/>
<polygon fill="#4a90d9" stroke="#4a90d9" stroke-width="2" points="598.22,-58.01 602.66,-52.07 595.48,-53.94 598.22,-58.01"/>
<text text-anchor="middle" x="566.5" y="-113.1" font-family="Times-Roman" font-size="8.00">calls</text>
</g>
<!-- L4YAML.Scanner.ScannerState.simpleKeyStack -->
<g id="node4" class="node">
<title>L4YAML.Scanner.ScannerState.simpleKeyStack</title>
<g id="a_node4"><a xlink:href="../../../api/L4YAML/Scanner/State.html#L4YAML.Scanner.ScannerState.simpleKeyStack" xlink:title="ScannerState.simpleKeyStack" target="_blank">
<polygon fill="#dce9f7" stroke="#4a90d9" points="905.5,-133 756.5,-133 756.5,-97 905.5,-97 905.5,-133"/>
<text text-anchor="middle" x="831" y="-112.5" font-family="Helvetica" font-size="10.00">ScannerState.simpleKeyStack</text>
</a>
</g>
</g>
<!-- L4YAML.Scanner.ScannerState.simpleKeyStack&#45;&gt;L4YAML.Scanner.ScannerState -->
<g id="edge6" class="edge">
<title>L4YAML.Scanner.ScannerState.simpleKeyStack&#45;&gt;L4YAML.Scanner.ScannerState</title>
<path fill="none" stroke="#4a90d9" stroke-width="2" d="M790.17,-97C770.25,-88.75 745.91,-78.77 724,-70 709.42,-64.17 693.46,-57.92 679.08,-52.34"/>
<polygon fill="#4a90d9" stroke="#4a90d9" stroke-width="2" points="679.58,-49.9 672.16,-49.65 677.8,-54.47 679.58,-49.9"/>
<text text-anchor="middle" x="753.5" y="-72.6" font-family="Times-Roman" font-size="8.00">calls</text>
</g>
<!-- L4YAML.Scanner.scanFlowMappingEnd -->
<g id="node5" class="node">
<title>L4YAML.Scanner.scanFlowMappingEnd</title>
<g id="a_node5"><a xlink:href="../../../api/L4YAML/Scanner/Scanner.html#L4YAML.Scanner.scanFlowMappingEnd" xlink:title="scanFlowMappingEnd" target="_blank">
<polygon fill="#dce9f7" stroke="#4a90d9" points="690.5,-241 577.5,-241 577.5,-205 690.5,-205 690.5,-241"/>
<text text-anchor="middle" x="634" y="-220.5" font-family="Helvetica" font-size="10.00">scanFlowMappingEnd</text>
</a>
</g>
</g>
<!-- L4YAML.Scanner.scanFlowMappingEnd&#45;&gt;L4YAML.Scanner.ScannerState.emit -->
<g id="edge11" class="edge">
<title>L4YAML.Scanner.scanFlowMappingEnd&#45;&gt;L4YAML.Scanner.ScannerState.emit</title>
<path fill="none" stroke="#4a90d9" stroke-width="2" d="M634,-204.97C634,-187.53 634,-160.26 634,-140.51"/>
<polygon fill="#4a90d9" stroke="#4a90d9" stroke-width="2" points="636.45,-140.34 634,-133.34 631.55,-140.34 636.45,-140.34"/>
<text text-anchor="middle" x="643.5" y="-167.1" font-family="Times-Roman" font-size="8.00">calls</text>
</g>
<!-- L4YAML.Scanner.scanFlowMappingEnd&#45;&gt;L4YAML.Scanner.ScannerState -->
<g id="edge10" class="edge">
<title>L4YAML.Scanner.scanFlowMappingEnd&#45;&gt;L4YAML.Scanner.ScannerState</title>
<path fill="none" stroke="#4a90d9" stroke-width="2" d="M649.63,-204.82C663.83,-187.95 683.79,-160.77 692,-133 696.54,-117.66 697.88,-111.88 692,-97 685.85,-81.43 673.74,-67.46 662.16,-56.75"/>
<polygon fill="#4a90d9" stroke="#4a90d9" stroke-width="2" points="663.76,-54.9 656.91,-52.06 660.5,-58.55 663.76,-54.9"/>
<text text-anchor="middle" x="705.5" y="-113.1" font-family="Times-Roman" font-size="8.00">calls</text>
</g>
<!-- L4YAML.Scanner.scanFlowMappingEnd&#45;&gt;L4YAML.Scanner.ScannerState.simpleKeyStack -->
<g id="edge13" class="edge">
<title>L4YAML.Scanner.scanFlowMappingEnd&#45;&gt;L4YAML.Scanner.ScannerState.simpleKeyStack</title>
<path fill="none" stroke="#4a90d9" stroke-width="2" d="M683.42,-204.98C696.84,-199.76 711.2,-193.64 724,-187 752.04,-172.46 781.82,-152.27 802.82,-137.13"/>
<polygon fill="#4a90d9" stroke="#4a90d9" stroke-width="2" points="804.28,-139.1 808.5,-133.01 801.4,-135.14 804.28,-139.1"/>
<text text-anchor="middle" x="789.5" y="-167.1" font-family="Times-Roman" font-size="8.00">calls</text>
</g>
<!-- L4YAML.Scanner.SimpleKeyState -->
<g id="node6" class="node">
<title>L4YAML.Scanner.SimpleKeyState</title>
<g id="a_node6"><a xlink:href="../../../api/L4YAML/Scanner/State.html#L4YAML.Scanner.SimpleKeyState" xlink:title="SimpleKeyState" target="_blank">
<polygon fill="#dce9f7" stroke="#4a90d9" points="512,-133 426,-133 426,-97 512,-97 512,-133"/>
<text text-anchor="middle" x="469" y="-112.5" font-family="Helvetica" font-size="10.00">SimpleKeyState</text>
</a>
</g>
</g>
<!-- L4YAML.Scanner.scanFlowMappingEnd&#45;&gt;L4YAML.Scanner.SimpleKeyState -->
<g id="edge8" class="edge">
<title>L4YAML.Scanner.scanFlowMappingEnd&#45;&gt;L4YAML.Scanner.SimpleKeyState</title>
<path fill="none" stroke="#4a90d9" stroke-width="2" d="M577.31,-218.3C532.05,-214.02 473.83,-205.09 459,-187 448.32,-173.98 451.72,-154.89 457.3,-139.79"/>
<polygon fill="#4a90d9" stroke="#4a90d9" stroke-width="2" points="459.63,-140.57 459.98,-133.16 455.09,-138.74 459.63,-140.57"/>
<text text-anchor="middle" x="468.5" y="-167.1" font-family="Times-Roman" font-size="8.00">calls</text>
</g>
<!-- L4YAML.Proofs.ScannerCorrectness.scanFlowMappingEnd_simpleKey_restored -->
<g id="node7" class="node">
<title>L4YAML.Proofs.ScannerCorrectness.scanFlowMappingEnd_simpleKey_restored</title>
<g id="a_node7"><a xlink:href="../../../api/L4YAML/Proofs/Scanner/ScannerCorrectness.html#L4YAML.Proofs.ScannerCorrectness.scanFlowMappingEnd_simpleKey_restored" xlink:title="ScannerCorrectness.scanFlowMappingEnd_simpleKey_restored" target="_blank">
<polygon fill="#fff3cd" stroke="#d4a017" points="397.7,-320.54 397.7,-335.46 287.16,-346 130.84,-346 20.3,-335.46 20.3,-320.54 130.84,-310 287.16,-310 397.7,-320.54"/>
<polygon fill="none" stroke="#d4a017" points="401.7,-316.91 401.7,-339.09 287.35,-350 130.65,-350 16.3,-339.09 16.3,-316.91 130.65,-306 287.35,-306 401.7,-316.91"/>
<text text-anchor="middle" x="209" y="-325.5" font-family="Helvetica" font-size="10.00">ScannerCorrectness.scanFlowMappingEnd_simpleKey_restored</text>
</a>
</g>
</g>
<!-- L4YAML.Proofs.ScannerCorrectness.scanFlowMappingEnd_simpleKey_restored&#45;&gt;L4YAML.Scanner.ScannerState.simpleKey -->
<g id="edge1" class="edge">
<title>L4YAML.Proofs.ScannerCorrectness.scanFlowMappingEnd_simpleKey_restored&#45;&gt;L4YAML.Scanner.ScannerState.simpleKey</title>
<path fill="none" stroke="#6f42c1" stroke-width="2" stroke-dasharray="5,2" d="M305.87,-307.7C340.07,-298.94 378.17,-286.91 411,-271 454.65,-249.85 498.8,-214.56 525.02,-191.79"/>
<polygon fill="#6f42c1" stroke="#6f42c1" stroke-width="2" points="526.69,-193.59 530.34,-187.13 523.46,-189.9 526.69,-193.59"/>
<text text-anchor="middle" x="405.5" y="-281.6" font-family="Times-Roman" font-size="8.00" fill="#6f42c1">about</text>
</g>
<!-- L4YAML.Proofs.ScannerCorrectness.scanFlowMappingEnd_simpleKey_restored&#45;&gt;L4YAML.Scanner.ScannerState.simpleKeyStack -->
<g id="edge5" class="edge">
<title>L4YAML.Proofs.ScannerCorrectness.scanFlowMappingEnd_simpleKey_restored&#45;&gt;L4YAML.Scanner.ScannerState.simpleKeyStack</title>
<path fill="none" stroke="#6f42c1" stroke-width="2" stroke-dasharray="5,2" d="M399.05,-316.62C513.42,-308.2 646.86,-293.88 700,-271 754.26,-247.64 768.14,-234.69 803,-187 813.28,-172.93 820.39,-154.59 824.87,-140.07"/>
<polygon fill="#6f42c1" stroke="#6f42c1" stroke-width="2" points="827.24,-140.69 826.86,-133.28 822.54,-139.31 827.24,-140.69"/>
<text text-anchor="middle" x="807.5" y="-221.1" font-family="Times-Roman" font-size="8.00" fill="#6f42c1">about</text>
</g>
<!-- L4YAML.Proofs.ScannerCorrectness.scanFlowMappingEnd_simpleKey_restored&#45;&gt;L4YAML.Scanner.scanFlowMappingEnd -->
<g id="edge7" class="edge">
<title>L4YAML.Proofs.ScannerCorrectness.scanFlowMappingEnd_simpleKey_restored&#45;&gt;L4YAML.Scanner.scanFlowMappingEnd</title>
<path fill="none" stroke="#6f42c1" stroke-width="2" stroke-dasharray="5,2" d="M391.07,-315.87C433.74,-310.05 478.53,-301.25 519,-288 549.57,-277.99 581.29,-259.64 603.65,-245.14"/>
<polygon fill="#6f42c1" stroke="#6f42c1" stroke-width="2" points="605.2,-247.06 609.7,-241.17 602.51,-242.96 605.2,-247.06"/>
<text text-anchor="middle" x="552.5" y="-281.6" font-family="Times-Roman" font-size="8.00" fill="#6f42c1">about</text>
</g>
<!-- L4YAML.Proofs.ScannerCorrectness.emit_preserves_simpleKeyStack -->
<g id="node8" class="node">
<title>L4YAML.Proofs.ScannerCorrectness.emit_preserves_simpleKeyStack</title>
<g id="a_node8"><a xlink:href="../../../api/L4YAML/Proofs/Scanner/ScannerCorrectness.html#L4YAML.Proofs.ScannerCorrectness.emit_preserves_simpleKeyStack" xlink:title="ScannerCorrectness.emit_preserves_simpleKeyStack" target="_blank">
<ellipse fill="#d4edda" stroke="#28a745" cx="254" cy="-223" rx="147.51" ry="18"/>
<text text-anchor="middle" x="254" y="-220.5" font-family="Helvetica" font-size="10.00">ScannerCorrectness.emit_preserves_simpleKeyStack</text>
</a>
</g>
</g>
<!-- L4YAML.Proofs.ScannerCorrectness.scanFlowMappingEnd_simpleKey_restored&#45;&gt;L4YAML.Proofs.ScannerCorrectness.emit_preserves_simpleKeyStack -->
<g id="edge3" class="edge">
<title>L4YAML.Proofs.ScannerCorrectness.scanFlowMappingEnd_simpleKey_restored&#45;&gt;L4YAML.Proofs.ScannerCorrectness.emit_preserves_simpleKeyStack</title>
<path fill="none" stroke="#28a745" stroke-width="2" d="M218.32,-305.66C225.69,-288.8 235.96,-265.3 243.59,-247.83"/>
<polygon fill="#28a745" stroke="#28a745" stroke-width="2" points="245.92,-248.62 246.48,-241.22 241.43,-246.66 245.92,-248.62"/>
<text text-anchor="middle" x="239" y="-281.6" font-family="Times-Roman" font-size="8.00">uses</text>
</g>
<!-- L4YAML.Proofs.ScannerCorrectness.emit_preserves_simpleKeyStack&#45;&gt;L4YAML.Scanner.ScannerState.emit -->
<g id="edge12" class="edge">
<title>L4YAML.Proofs.ScannerCorrectness.emit_preserves_simpleKeyStack&#45;&gt;L4YAML.Scanner.ScannerState.emit</title>
<path fill="none" stroke="#6f42c1" stroke-width="2" stroke-dasharray="5,2" d="M307.75,-206.06C319.42,-201.1 331.2,-194.82 341,-187 356.23,-174.86 349.15,-160.78 366,-151 405.56,-128.05 525.97,-140.99 571,-133 573.23,-132.6 575.5,-132.17 577.78,-131.7"/>
<polygon fill="#6f42c1" stroke="#6f42c1" stroke-width="2" points="578.35,-134.08 584.66,-130.19 577.3,-129.29 578.35,-134.08"/>
<text text-anchor="middle" x="378.5" y="-167.1" font-family="Times-Roman" font-size="8.00" fill="#6f42c1">about</text>
</g>
<!-- L4YAML.Proofs.ScannerCorrectness.emit_preserves_simpleKeyStack&#45;&gt;L4YAML.Scanner.ScannerState -->
<g id="edge4" class="edge">
<title>L4YAML.Proofs.ScannerCorrectness.emit_preserves_simpleKeyStack&#45;&gt;L4YAML.Scanner.ScannerState</title>
<path fill="none" stroke="#6f42c1" stroke-width="2" stroke-dasharray="5,2" d="M257.62,-204.93C261.7,-189.26 269.72,-166.22 284,-151 365.62,-64 513.87,-42.19 588.5,-36.77"/>
<polygon fill="#6f42c1" stroke="#6f42c1" stroke-width="2" points="589.1,-39.18 595.92,-36.26 588.77,-34.29 589.1,-39.18"/>
<text text-anchor="middle" x="366.5" y="-113.1" font-family="Times-Roman" font-size="8.00" fill="#6f42c1">about</text>
</g>
<!-- L4YAML.Proofs.ScannerCorrectness.emit_preserves_simpleKeyStack&#45;&gt;L4YAML.Scanner.ScannerState.simpleKeyStack -->
<g id="edge14" class="edge">
<title>L4YAML.Proofs.ScannerCorrectness.emit_preserves_simpleKeyStack&#45;&gt;L4YAML.Scanner.ScannerState.simpleKeyStack</title>
<path fill="none" stroke="#6f42c1" stroke-width="2" stroke-dasharray="5,2" d="M339.64,-208.23C357.39,-203.19 375.41,-196.33 391,-187 409.62,-175.85 404.39,-160.3 424,-151 487.96,-120.68 671.75,-141.66 742,-133 744.34,-132.71 746.71,-132.4 749.11,-132.06"/>
<polygon fill="#6f42c1" stroke="#6f42c1" stroke-width="2" points="749.76,-134.44 756.33,-131 749.05,-129.6 749.76,-134.44"/>
<text text-anchor="middle" x="436.5" y="-167.1" font-family="Times-Roman" font-size="8.00" fill="#6f42c1">about</text>
</g>
<!-- L4YAML.Proofs.ScannerCorrectness.emit_preserves_simpleKeyStack&#45;&gt;L4YAML.Scanner.SimpleKeyState -->
<g id="edge9" class="edge">
<title>L4YAML.Proofs.ScannerCorrectness.emit_preserves_simpleKeyStack&#45;&gt;L4YAML.Scanner.SimpleKeyState</title>
<path fill="none" stroke="#6f42c1" stroke-width="2" stroke-dasharray="5,2" d="M268.85,-204.74C286.7,-184.01 314.48,-151.91 316,-151 347.2,-132.34 387.43,-123.63 418.81,-119.56"/>
<polygon fill="#6f42c1" stroke="#6f42c1" stroke-width="2" points="419.12,-121.99 425.77,-118.71 418.53,-117.12 419.12,-121.99"/>
<text text-anchor="middle" x="328.5" y="-167.1" font-family="Times-Roman" font-size="8.00" fill="#6f42c1">about</text>
</g>
</g>
</svg>
