<?xml version="1.0" encoding="UTF-8" standalone="no"?>
<!DOCTYPE svg PUBLIC "-//W3C//DTD SVG 1.1//EN"
 "http://www.w3.org/Graphics/SVG/1.1/DTD/svg11.dtd">
<!-- Generated by graphviz version 2.44.0 (0)
 -->
<!-- Title: ScannerCorrectness.scanFlowSequenceStart_adds_one_token Pages: 1 -->
<svg width="1088pt" height="504pt"
 viewBox="0.00 0.00 1087.77 504.00" xmlns="http://www.w3.org/2000/svg" xmlns:xlink="http://www.w3.org/1999/xlink">
<g id="graph0" class="graph" transform="scale(1 1) rotate(0) translate(4 500)">
<title>ScannerCorrectness.scanFlowSequenceStart_adds_one_token</title>
<polygon fill="white" stroke="transparent" points="-4,4 -4,-500 1083.77,-500 1083.77,4 -4,4"/>
<text text-anchor="middle" x="539.88" y="-481.6" font-family="Helvetica Bold" font-size="13.00">ScannerCorrectness.scanFlowSequenceStart_adds_one_token</text>
<text text-anchor="middle" x="539.88" y="-467.6" font-family="Helvetica Bold" font-size="13.00">(heuristic: used by 7 proofs)</text>
<text text-anchor="middle" x="539.88" y="-453.6" font-family="Helvetica Bold" font-size="13.00">(L4YAML.Proofs.Scanner.ScannerCorrectness)</text>
<g id="clust1" class="cluster">
<title>cluster_functions</title>
<polygon fill="none" stroke="#4a90d9" stroke-dasharray="5,2" points="571.4,-148 571.4,-438 1071.77,-438 1071.77,-148 571.4,-148"/>
<text text-anchor="middle" x="821.58" y="-423.6" font-family="Helvetica Bold" font-size="13.00" fill="#4a90d9">Functions</text>
</g>
<g id="clust2" class="cluster">
<title>cluster_key</title>
<polygon fill="none" stroke="#d4a017" stroke-dasharray="5,2" points="387.03,-58 387.03,-140 886.77,-140 886.77,-58 387.03,-58"/>
<text text-anchor="middle" x="636.9" y="-125.6" font-family="Helvetica Bold" font-size="13.00" fill="#d4a017">Key Theorem</text>
</g>
<g id="clust3" class="cluster">
<title>cluster_proofs</title>
<polygon fill="none" stroke="#28a745" stroke-dasharray="5,2" points="8,-245 8,-325 345.03,-325 345.03,-245 8,-245"/>
<text text-anchor="middle" x="176.51" y="-310.6" font-family="Helvetica Bold" font-size="13.00" fill="#28a745">Proof Dependencies</text>
</g>
<g id="clust4" class="cluster">
<title>cluster_stdlib</title>
<polygon fill="none" stroke="#e67e22" stroke-dasharray="5,2" points="117.89,-8 117.89,-190 235.14,-190 235.14,-8 117.89,-8"/>
<text text-anchor="middle" x="176.51" y="-175.6" font-family="Helvetica Bold" font-size="13.00" fill="#e67e22">Stdlib Lemmas</text>
</g>
<!-- L4YAML.Positioned -->
<g id="node1" class="node">
<title>L4YAML.Positioned</title>
<g id="a_node1"><a xlink:href="../../../api/L4YAML/Token/Token.html#L4YAML.Positioned" xlink:title="Positioned\n(inductive)" target="_blank">
<polygon fill="#dce9f7" stroke="#4a90d9" points="1032.77,-354 970.77,-354 970.77,-318 1032.77,-318 1032.77,-354"/>
<text text-anchor="middle" x="1001.77" y="-339" font-family="Helvetica" font-size="10.00">Positioned</text>
<text text-anchor="middle" x="1001.77" y="-328" font-family="Helvetica" font-size="10.00">(inductive)</text>
</a>
</g>
</g>
<!-- L4YAML.Scanner.ScannerState.advance -->
<g id="node2" class="node">
<title>L4YAML.Scanner.ScannerState.advance</title>
<g id="a_node2"><a xlink:href="../../../api/L4YAML/Scanner/State.html#L4YAML.Scanner.ScannerState.advance" xlink:title="ScannerState.advance\n(def)" target="_blank">
<polygon fill="#dce9f7" stroke="#4a90d9" points="694.4,-408 579.4,-408 579.4,-372 694.4,-372 694.4,-408"/>
<text text-anchor="middle" x="636.9" y="-393" font-family="Helvetica" font-size="10.00">ScannerState.advance</text>
<text text-anchor="middle" x="636.9" y="-382" font-family="Helvetica" font-size="10.00">(def)</text>
</a>
</g>
</g>
<!-- L4YAML.Scanner.ScannerState -->
<g id="node3" class="node">
<title>L4YAML.Scanner.ScannerState</title>
<g id="a_node3"><a xlink:href="../../../api/L4YAML/Scanner/State.html#L4YAML.Scanner.ScannerState" xlink:title="ScannerState\n(inductive)" target="_blank">
<polygon fill="#dce9f7" stroke="#4a90d9" points="1039.77,-246 963.77,-246 963.77,-210 1039.77,-210 1039.77,-246"/>
<text text-anchor="middle" x="1001.77" y="-231" font-family="Helvetica" font-size="10.00">ScannerState</text>
<text text-anchor="middle" x="1001.77" y="-220" font-family="Helvetica" font-size="10.00">(inductive)</text>
</a>
</g>
</g>
<!-- L4YAML.YamlToken -->
<g id="node4" class="node">
<title>L4YAML.YamlToken</title>
<g id="a_node4"><a xlink:href="../../../api/L4YAML/Token/Token.html#L4YAML.YamlToken" xlink:title="YamlToken\n(inductive)" target="_blank">
<polygon fill="#dce9f7" stroke="#4a90d9" points="1033.77,-300 969.77,-300 969.77,-264 1033.77,-264 1033.77,-300"/>
<text text-anchor="middle" x="1001.77" y="-285" font-family="Helvetica" font-size="10.00">YamlToken</text>
<text text-anchor="middle" x="1001.77" y="-274" font-family="Helvetica" font-size="10.00">(inductive)</text>
</a>
</g>
</g>
<!-- L4YAML.Scanner.scanFlowSequenceStart -->
<g id="node5" class="node">
<title>L4YAML.Scanner.scanFlowSequenceStart</title>
<g id="a_node5"><a xlink:href="../../../api/L4YAML/Scanner/Scanner.html#L4YAML.Scanner.scanFlowSequenceStart" xlink:title="scanFlowSequenceStart\n(def)" target="_blank">
<polygon fill="#dce9f7" stroke="#4a90d9" points="1063.77,-192 939.77,-192 939.77,-156 1063.77,-156 1063.77,-192"/>
<text text-anchor="middle" x="1001.77" y="-177" font-family="Helvetica" font-size="10.00">scanFlowSequenceStart</text>
<text text-anchor="middle" x="1001.77" y="-166" font-family="Helvetica" font-size="10.00">(def)</text>
</a>
</g>
</g>
<!-- L4YAML.Scanner.ScannerState.tokens -->
<g id="node6" class="node">
<title>L4YAML.Scanner.ScannerState.tokens</title>
<g id="a_node6"><a xlink:href="../../../api/L4YAML/Scanner/State.html#L4YAML.Scanner.ScannerState.tokens" xlink:title="ScannerState.tokens\n(def)" target="_blank">
<polygon fill="#dce9f7" stroke="#4a90d9" points="1055.27,-408 948.27,-408 948.27,-372 1055.27,-372 1055.27,-408"/>
<text text-anchor="middle" x="1001.77" y="-393" font-family="Helvetica" font-size="10.00">ScannerState.tokens</text>
<text text-anchor="middle" x="1001.77" y="-382" font-family="Helvetica" font-size="10.00">(def)</text>
</a>
</g>
</g>
<!-- L4YAML.Proofs.ScannerCorrectness.scanFlowSequenceStart_adds_one_token -->
<g id="node7" class="node">
<title>L4YAML.Proofs.ScannerCorrectness.scanFlowSequenceStart_adds_one_token</title>
<g id="a_node7"><a xlink:href="../../../api/L4YAML/Proofs/Scanner/ScannerCorrectness.html#L4YAML.Proofs.ScannerCorrectness.scanFlowSequenceStart_adds_one_token" xlink:title="ScannerCorrectness.scanFlowSequenceStart_adds_one_token" target="_blank">
<polygon fill="#fff3cd" stroke="#d4a017" points="874.64,-80.54 874.64,-95.46 735.38,-106 538.42,-106 399.15,-95.46 399.15,-80.54 538.42,-70 735.38,-70 874.64,-80.54"/>
<polygon fill="none" stroke="#d4a017" points="878.64,-76.84 878.64,-99.16 735.53,-110 538.27,-110 395.15,-99.16 395.15,-76.84 538.27,-66 735.53,-66 878.64,-76.84"/>
<text text-anchor="middle" x="636.9" y="-84.9" font-family="Helvetica" font-size="12.00">ScannerCorrectness.scanFlowSequenceStart_adds_one_token</text>
</a>
</g>
</g>
<!-- L4YAML.Proofs.ScannerCorrectness.scanFlowSequenceStart_adds_one_token&#45;&gt;L4YAML.Positioned -->
<g id="edge2" class="edge">
<title>L4YAML.Proofs.ScannerCorrectness.scanFlowSequenceStart_adds_one_token&#45;&gt;L4YAML.Positioned</title>
<path fill="none" stroke="#4a90d9" stroke-width="2" d="M825.99,-103.28C849.03,-112.43 870.24,-125.51 886.77,-144 900.33,-159.17 890.41,-215.68 896.77,-235 897.51,-237.26 938,-307.41 939.77,-309 946.78,-315.28 955.49,-320.3 964.11,-324.21"/>
<polygon fill="#4a90d9" stroke="#4a90d9" stroke-width="2" points="963.26,-326.51 970.66,-327 965.17,-322.01 963.26,-326.51"/>
<text text-anchor="middle" x="909.27" y="-280.6" font-family="Times-Roman" font-size="8.00" fill="#4a90d9">about</text>
</g>
<!-- L4YAML.Proofs.ScannerCorrectness.scanFlowSequenceStart_adds_one_token&#45;&gt;L4YAML.Scanner.ScannerState -->
<g id="edge4" class="edge">
<title>L4YAML.Proofs.ScannerCorrectness.scanFlowSequenceStart_adds_one_token&#45;&gt;L4YAML.Scanner.ScannerState</title>
<path fill="none" stroke="#4a90d9" stroke-width="2" d="M814.73,-104.1C854.69,-115.68 893.58,-134.56 921.77,-165 933.92,-178.13 926.83,-188.65 939.77,-201 944.86,-205.86 950.97,-209.93 957.33,-213.32"/>
<polygon fill="#4a90d9" stroke="#4a90d9" stroke-width="2" points="956.38,-215.58 963.74,-216.48 958.55,-211.18 956.38,-215.58"/>
<text text-anchor="middle" x="909.27" y="-167.6" font-family="Times-Roman" font-size="8.00" fill="#4a90d9">about</text>
</g>
<!-- L4YAML.Proofs.ScannerCorrectness.scanFlowSequenceStart_adds_one_token&#45;&gt;L4YAML.YamlToken -->
<g id="edge3" class="edge">
<title>L4YAML.Proofs.ScannerCorrectness.scanFlowSequenceStart_adds_one_token&#45;&gt;L4YAML.YamlToken</title>
<path fill="none" stroke="#4a90d9" stroke-width="2" d="M817.12,-103.93C842.81,-112.78 867.14,-125.6 886.77,-144 898.26,-154.77 890.62,-163.5 896.77,-178 905.56,-198.7 910.83,-202.35 921.77,-222 929.9,-236.6 927.48,-243.68 939.77,-255 946.36,-261.07 954.54,-265.93 962.74,-269.77"/>
<polygon fill="#4a90d9" stroke="#4a90d9" stroke-width="2" points="962.2,-272.21 969.6,-272.75 964.16,-267.71 962.2,-272.21"/>
<text text-anchor="middle" x="909.27" y="-224.6" font-family="Times-Roman" font-size="8.00" fill="#4a90d9">about</text>
</g>
<!-- L4YAML.Proofs.ScannerCorrectness.scanFlowSequenceStart_adds_one_token&#45;&gt;L4YAML.Scanner.scanFlowSequenceStart -->
<g id="edge5" class="edge">
<title>L4YAML.Proofs.ScannerCorrectness.scanFlowSequenceStart_adds_one_token&#45;&gt;L4YAML.Scanner.scanFlowSequenceStart</title>
<path fill="none" stroke="#4a90d9" stroke-width="2" d="M846.35,-101.69C872.18,-106.66 897.88,-113.26 921.77,-122 940.25,-128.76 958.75,-140.59 973.19,-151.26"/>
<polygon fill="#4a90d9" stroke="#4a90d9" stroke-width="2" points="972.06,-153.48 979.12,-155.75 975.02,-149.57 972.06,-153.48"/>
<text text-anchor="middle" x="909.27" y="-124.6" font-family="Times-Roman" font-size="8.00" fill="#4a90d9">about</text>
</g>
<!-- L4YAML.Proofs.ScannerCorrectness.scanFlowSequenceStart_adds_one_token&#45;&gt;L4YAML.Scanner.ScannerState.tokens -->
<g id="edge1" class="edge">
<title>L4YAML.Proofs.ScannerCorrectness.scanFlowSequenceStart_adds_one_token&#45;&gt;L4YAML.Scanner.ScannerState.tokens</title>
<path fill="none" stroke="#4a90d9" stroke-width="2" d="M827.62,-103.03C850.2,-112.26 870.84,-125.42 886.77,-144 908.08,-168.86 886.99,-259.75 896.77,-291 898.16,-295.45 936.28,-359.91 939.77,-363 941.75,-364.75 943.86,-366.41 946.07,-367.97"/>
<polygon fill="#4a90d9" stroke="#4a90d9" stroke-width="2" points="944.89,-370.13 952.1,-371.88 947.56,-366.02 944.89,-370.13"/>
<text text-anchor="middle" x="909.27" y="-335.6" font-family="Times-Roman" font-size="8.00" fill="#4a90d9">about</text>
</g>
<!-- L4YAML.Proofs.ScannerCorrectness.advance_preserves_tokens -->
<g id="node8" class="node">
<title>L4YAML.Proofs.ScannerCorrectness.advance_preserves_tokens</title>
<g id="a_node8"><a xlink:href="../../../api/L4YAML/Proofs/Scanner/ScannerCorrectness.html#L4YAML.Proofs.ScannerCorrectness.advance_preserves_tokens" xlink:title="ScannerCorrectness.advance_preserves_tokens\n(Scanner.ScannerCorrectness)" target="_blank">
<ellipse fill="#d4edda" stroke="#28a745" cx="176.51" cy="-274" rx="160.53" ry="21.43"/>
<text text-anchor="middle" x="176.51" y="-277" font-family="Helvetica" font-size="10.00">ScannerCorrectness.advance_preserves_tokens</text>
<text text-anchor="middle" x="176.51" y="-266" font-family="Helvetica" font-size="10.00">(Scanner.ScannerCorrectness)</text>
</a>
</g>
</g>
<!-- L4YAML.Proofs.ScannerCorrectness.advance_preserves_tokens&#45;&gt;L4YAML.Positioned -->
<g id="edge12" class="edge">
<title>L4YAML.Proofs.ScannerCorrectness.advance_preserves_tokens&#45;&gt;L4YAML.Positioned</title>
<path fill="none" stroke="#6f42c1" stroke-width="2" stroke-dasharray="5,2" d="M326.44,-281.67C535.25,-292.54 892.93,-311.58 921.77,-316 936.34,-318.23 952.14,-321.96 965.75,-325.6"/>
<polygon fill="#6f42c1" stroke="#6f42c1" stroke-width="2" points="965.38,-327.31 970.66,-326.93 966.29,-323.93 965.38,-327.31"/>
<text text-anchor="middle" x="636.9" y="-314.4" font-family="Times-Roman" font-size="7.00" fill="#6f42c1">about</text>
</g>
<!-- L4YAML.Proofs.ScannerCorrectness.advance_preserves_tokens&#45;&gt;L4YAML.Scanner.ScannerState.advance -->
<g id="edge11" class="edge">
<title>L4YAML.Proofs.ScannerCorrectness.advance_preserves_tokens&#45;&gt;L4YAML.Scanner.ScannerState.advance</title>
<path fill="none" stroke="#6f42c1" stroke-width="2" stroke-dasharray="5,2" d="M211.46,-294.85C246.18,-315.1 302.35,-344.92 355.03,-360 428.48,-381.02 516.56,-387.57 574.25,-389.47"/>
<polygon fill="#6f42c1" stroke="#6f42c1" stroke-width="2" points="574.34,-391.23 579.39,-389.63 574.45,-387.73 574.34,-391.23"/>
<text text-anchor="middle" x="366.03" y="-365.4" font-family="Times-Roman" font-size="7.00" fill="#6f42c1">about</text>
</g>
<!-- L4YAML.Proofs.ScannerCorrectness.advance_preserves_tokens&#45;&gt;L4YAML.Scanner.ScannerState -->
<g id="edge14" class="edge">
<title>L4YAML.Proofs.ScannerCorrectness.advance_preserves_tokens&#45;&gt;L4YAML.Scanner.ScannerState</title>
<path fill="none" stroke="#6f42c1" stroke-width="2" stroke-dasharray="5,2" d="M288.87,-258.81C320.55,-254.71 355.12,-250.46 387.03,-247 613.13,-222.46 669.56,-212.01 896.77,-202 907.87,-201.51 910.8,-200.24 921.77,-202 933.99,-203.96 946.89,-207.52 958.64,-211.4"/>
<polygon fill="#6f42c1" stroke="#6f42c1" stroke-width="2" points="958.31,-213.13 963.6,-213.07 959.43,-209.82 958.31,-213.13"/>
<text text-anchor="middle" x="636.9" y="-249.4" font-family="Times-Roman" font-size="7.00" fill="#6f42c1">about</text>
</g>
<!-- L4YAML.Proofs.ScannerCorrectness.advance_preserves_tokens&#45;&gt;L4YAML.YamlToken -->
<g id="edge13" class="edge">
<title>L4YAML.Proofs.ScannerCorrectness.advance_preserves_tokens&#45;&gt;L4YAML.YamlToken</title>
<path fill="none" stroke="#6f42c1" stroke-width="2" stroke-dasharray="5,2" d="M333.94,-269.8C479.63,-266.11 702.88,-261.02 896.77,-259 907.88,-258.88 910.77,-257.43 921.77,-259 936.13,-261.05 951.52,-265.09 964.87,-269.22"/>
<polygon fill="#6f42c1" stroke="#6f42c1" stroke-width="2" points="964.4,-270.91 969.7,-270.74 965.45,-267.57 964.4,-270.91"/>
<text text-anchor="middle" x="636.9" y="-270.4" font-family="Times-Roman" font-size="7.00" fill="#6f42c1">about</text>
</g>
<!-- L4YAML.Proofs.ScannerCorrectness.advance_preserves_tokens&#45;&gt;L4YAML.Scanner.ScannerState.tokens -->
<g id="edge10" class="edge">
<title>L4YAML.Proofs.ScannerCorrectness.advance_preserves_tokens&#45;&gt;L4YAML.Scanner.ScannerState.tokens</title>
<path fill="none" stroke="#6f42c1" stroke-width="2" stroke-dasharray="5,2" d="M244.87,-293.2C285.67,-304.04 338.94,-316.83 387.03,-324 607.13,-356.84 667.83,-315.18 886.77,-355 906.41,-358.57 927.43,-364.42 946.01,-370.32"/>
<polygon fill="#6f42c1" stroke="#6f42c1" stroke-width="2" points="945.88,-372.12 951.18,-371.99 946.95,-368.79 945.88,-372.12"/>
<text text-anchor="middle" x="636.9" y="-357.4" font-family="Times-Roman" font-size="7.00" fill="#6f42c1">about</text>
</g>
<!-- L4YAML.Proofs.ScannerCorrectness.advance_preserves_tokens&#45;&gt;L4YAML.Proofs.ScannerCorrectness.scanFlowSequenceStart_adds_one_token -->
<g id="edge6" class="edge">
<title>L4YAML.Proofs.ScannerCorrectness.advance_preserves_tokens&#45;&gt;L4YAML.Proofs.ScannerCorrectness.scanFlowSequenceStart_adds_one_token</title>
<path fill="none" stroke="#28a745" d="M242.04,-254.61C276,-241.8 316.4,-222.11 345.03,-194 352.12,-187.04 349.09,-181.97 355.03,-174 366.68,-158.37 369.8,-153.13 387.03,-144 417.35,-127.93 452.12,-116.46 485.86,-108.28"/>
<polygon fill="#28a745" stroke="#28a745" points="486.8,-110.57 493.05,-106.58 485.67,-105.8 486.8,-110.57"/>
</g>
<!-- eq_self -->
<g id="node9" class="node">
<title>eq_self</title>
<g id="a_node9"><a xlink:href="../../../api/Init/SimpLemmas.html#eq_self" xlink:title="eq_self" target="_blank">
<ellipse fill="#fdebd0" stroke="#e67e22" cx="176.51" cy="-142" rx="28.01" ry="18"/>
<text text-anchor="middle" x="176.51" y="-139.5" font-family="Helvetica" font-size="10.00">eq_self</text>
</a>
</g>
</g>
<!-- eq_self&#45;&gt;L4YAML.Proofs.ScannerCorrectness.scanFlowSequenceStart_adds_one_token -->
<g id="edge7" class="edge">
<title>eq_self&#45;&gt;L4YAML.Proofs.ScannerCorrectness.scanFlowSequenceStart_adds_one_token</title>
<path fill="none" stroke="#e67e22" stroke-width="2" d="M204.48,-138.82C257,-132.64 376.64,-118.54 476.64,-106.76"/>
<polygon fill="#e67e22" stroke="#e67e22" stroke-width="2" points="477.14,-109.17 483.8,-105.92 476.56,-104.3 477.14,-109.17"/>
</g>
<!-- of_eq_true -->
<g id="node10" class="node">
<title>of_eq_true</title>
<g id="a_node10"><a xlink:href="../../../api/Init/SimpLemmas.html#of_eq_true" xlink:title="of_eq_true" target="_blank">
<ellipse fill="#fdebd0" stroke="#e67e22" cx="176.51" cy="-88" rx="36.49" ry="18"/>
<text text-anchor="middle" x="176.51" y="-85.5" font-family="Helvetica" font-size="10.00">of_eq_true</text>
</a>
</g>
</g>
<!-- of_eq_true&#45;&gt;L4YAML.Proofs.ScannerCorrectness.scanFlowSequenceStart_adds_one_token -->
<g id="edge8" class="edge">
<title>of_eq_true&#45;&gt;L4YAML.Proofs.ScannerCorrectness.scanFlowSequenceStart_adds_one_token</title>
<path fill="none" stroke="#e67e22" stroke-width="2" d="M213.1,-88C252.3,-88 318.97,-88 387.93,-88"/>
<polygon fill="#e67e22" stroke="#e67e22" stroke-width="2" points="388.04,-90.45 395.04,-88 388.04,-85.55 388.04,-90.45"/>
</g>
<!-- Array.size_push -->
<g id="node11" class="node">
<title>Array.size_push</title>
<g id="a_node11"><a xlink:href="../../../api/Init/Data/Array/Basic.html#Array.size_push" xlink:title="Array.size_push" target="_blank">
<ellipse fill="#fdebd0" stroke="#e67e22" cx="176.51" cy="-34" rx="50.75" ry="18"/>
<text text-anchor="middle" x="176.51" y="-31.5" font-family="Helvetica" font-size="10.00">Array.size_push</text>
</a>
</g>
</g>
<!-- Array.size_push&#45;&gt;L4YAML.Proofs.ScannerCorrectness.scanFlowSequenceStart_adds_one_token -->
<g id="edge9" class="edge">
<title>Array.size_push&#45;&gt;L4YAML.Proofs.ScannerCorrectness.scanFlowSequenceStart_adds_one_token</title>
<path fill="none" stroke="#e67e22" stroke-width="2" d="M224.84,-39.58C283.92,-46.53 387.98,-58.79 476.62,-69.24"/>
<polygon fill="#e67e22" stroke="#e67e22" stroke-width="2" points="476.54,-71.69 483.78,-70.08 477.12,-66.83 476.54,-71.69"/>
</g>
</g>
</svg>
