<?xml version="1.0" encoding="UTF-8" standalone="no"?>
<!DOCTYPE svg PUBLIC "-//W3C//DTD SVG 1.1//EN"
 "http://www.w3.org/Graphics/SVG/1.1/DTD/svg11.dtd">
<!-- Generated by graphviz version 2.44.0 (0)
 -->
<!-- Title: ScannerCorrectness.ScanHelpers.scanFlowSequenceEnd_preserves_prefix Pages: 1 -->
<svg width="1783pt" height="1238pt"
 viewBox="0.00 0.00 1782.85 1237.73" xmlns="http://www.w3.org/2000/svg" xmlns:xlink="http://www.w3.org/1999/xlink">
<g id="graph0" class="graph" transform="scale(1 1) rotate(0) translate(4 1233.73)">
<title>ScannerCorrectness.ScanHelpers.scanFlowSequenceEnd_preserves_prefix</title>
<polygon fill="white" stroke="transparent" points="-4,4 -4,-1233.73 1778.85,-1233.73 1778.85,4 -4,4"/>
<text text-anchor="middle" x="887.42" y="-1215.33" font-family="Helvetica Bold" font-size="13.00">ScannerCorrectness.ScanHelpers.scanFlowSequenceEnd_preserves_prefix</text>
<text text-anchor="middle" x="887.42" y="-1201.33" font-family="Helvetica Bold" font-size="13.00">(heuristic: used by 5 proofs)</text>
<text text-anchor="middle" x="887.42" y="-1187.33" font-family="Helvetica Bold" font-size="13.00">(L4YAML.Proofs.Scanner.ScannerCorrectness)</text>
<g id="clust1" class="cluster">
<title>cluster_functions</title>
<polygon fill="none" stroke="#4a90d9" stroke-dasharray="5,2" points="604.59,-881.73 604.59,-1171.73 1766.85,-1171.73 1766.85,-881.73 604.59,-881.73"/>
<text text-anchor="middle" x="1185.72" y="-1157.33" font-family="Helvetica Bold" font-size="13.00" fill="#4a90d9">Functions</text>
</g>
<g id="clust2" class="cluster">
<title>cluster_key</title>
<polygon fill="none" stroke="#d4a017" stroke-dasharray="5,2" points="995.16,-791.73 995.16,-873.73 1586.85,-873.73 1586.85,-791.73 995.16,-791.73"/>
<text text-anchor="middle" x="1291" y="-859.33" font-family="Helvetica Bold" font-size="13.00" fill="#d4a017">Key Theorem</text>
</g>
<g id="clust3" class="cluster">
<title>cluster_proofs</title>
<polygon fill="none" stroke="#28a745" stroke-dasharray="5,2" points="8,-422.73 8,-622.73 953.16,-622.73 953.16,-422.73 8,-422.73"/>
<text text-anchor="middle" x="480.58" y="-608.33" font-family="Helvetica Bold" font-size="13.00" fill="#28a745">Proof Dependencies</text>
</g>
<g id="clust4" class="cluster">
<title>cluster_stdlib</title>
<polygon fill="none" stroke="#e67e22" stroke-dasharray="5,2" points="575.56,-175.73 575.56,-303.73 764.62,-303.73 764.62,-175.73 575.56,-175.73"/>
<text text-anchor="middle" x="670.09" y="-289.33" font-family="Helvetica Bold" font-size="13.00" fill="#e67e22">Stdlib Lemmas</text>
</g>
<!-- L4YAML.Scanner.scanFlowSequenceEnd -->
<g id="node1" class="node">
<title>L4YAML.Scanner.scanFlowSequenceEnd</title>
<g id="a_node1"><a xlink:href="../../../api/L4YAML/Scanner/Scanner.html#L4YAML.Scanner.scanFlowSequenceEnd" xlink:title="scanFlowSequenceEnd\n(def)" target="_blank">
<polygon fill="#dce9f7" stroke="#4a90d9" points="1758.85,-1141.73 1639.85,-1141.73 1639.85,-1105.73 1758.85,-1105.73 1758.85,-1141.73"/>
<text text-anchor="middle" x="1699.35" y="-1126.73" font-family="Helvetica" font-size="10.00">scanFlowSequenceEnd</text>
<text text-anchor="middle" x="1699.35" y="-1115.73" font-family="Helvetica" font-size="10.00">(def)</text>
</a>
</g>
</g>
<!-- L4YAML.Scanner.ScannerState.emit -->
<g id="node2" class="node">
<title>L4YAML.Scanner.ScannerState.emit</title>
<g id="a_node2"><a xlink:href="../../../api/L4YAML/Scanner/State.html#L4YAML.Scanner.ScannerState.emit" xlink:title="ScannerState.emit\n(def)" target="_blank">
<polygon fill="#dce9f7" stroke="#4a90d9" points="1340,-925.73 1242,-925.73 1242,-889.73 1340,-889.73 1340,-925.73"/>
<text text-anchor="middle" x="1291" y="-910.73" font-family="Helvetica" font-size="10.00">ScannerState.emit</text>
<text text-anchor="middle" x="1291" y="-899.73" font-family="Helvetica" font-size="10.00">(def)</text>
</a>
</g>
</g>
<!-- L4YAML.Positioned -->
<g id="node3" class="node">
<title>L4YAML.Positioned</title>
<g id="a_node3"><a xlink:href="../../../api/L4YAML/Token/Token.html#L4YAML.Positioned" xlink:title="Positioned\n(inductive)" target="_blank">
<polygon fill="#dce9f7" stroke="#4a90d9" points="1730.35,-1087.73 1668.35,-1087.73 1668.35,-1051.73 1730.35,-1051.73 1730.35,-1087.73"/>
<text text-anchor="middle" x="1699.35" y="-1072.73" font-family="Helvetica" font-size="10.00">Positioned</text>
<text text-anchor="middle" x="1699.35" y="-1061.73" font-family="Helvetica" font-size="10.00">(inductive)</text>
</a>
</g>
</g>
<!-- L4YAML.Scanner.ScannerState.advance -->
<g id="node4" class="node">
<title>L4YAML.Scanner.ScannerState.advance</title>
<g id="a_node4"><a xlink:href="../../../api/L4YAML/Scanner/State.html#L4YAML.Scanner.ScannerState.advance" xlink:title="ScannerState.advance\n(def)" target="_blank">
<polygon fill="#dce9f7" stroke="#4a90d9" points="727.59,-925.73 612.59,-925.73 612.59,-889.73 727.59,-889.73 727.59,-925.73"/>
<text text-anchor="middle" x="670.09" y="-910.73" font-family="Helvetica" font-size="10.00">ScannerState.advance</text>
<text text-anchor="middle" x="670.09" y="-899.73" font-family="Helvetica" font-size="10.00">(def)</text>
</a>
</g>
</g>
<!-- L4YAML.Scanner.ScannerState -->
<g id="node5" class="node">
<title>L4YAML.Scanner.ScannerState</title>
<g id="a_node5"><a xlink:href="../../../api/L4YAML/Scanner/State.html#L4YAML.Scanner.ScannerState" xlink:title="ScannerState\n(inductive)" target="_blank">
<polygon fill="#dce9f7" stroke="#4a90d9" points="1737.35,-1033.73 1661.35,-1033.73 1661.35,-997.73 1737.35,-997.73 1737.35,-1033.73"/>
<text text-anchor="middle" x="1699.35" y="-1018.73" font-family="Helvetica" font-size="10.00">ScannerState</text>
<text text-anchor="middle" x="1699.35" y="-1007.73" font-family="Helvetica" font-size="10.00">(inductive)</text>
</a>
</g>
</g>
<!-- L4YAML.YamlToken -->
<g id="node6" class="node">
<title>L4YAML.YamlToken</title>
<g id="a_node6"><a xlink:href="../../../api/L4YAML/Token/Token.html#L4YAML.YamlToken" xlink:title="YamlToken\n(inductive)" target="_blank">
<polygon fill="#dce9f7" stroke="#4a90d9" points="1731.35,-979.73 1667.35,-979.73 1667.35,-943.73 1731.35,-943.73 1731.35,-979.73"/>
<text text-anchor="middle" x="1699.35" y="-964.73" font-family="Helvetica" font-size="10.00">YamlToken</text>
<text text-anchor="middle" x="1699.35" y="-953.73" font-family="Helvetica" font-size="10.00">(inductive)</text>
</a>
</g>
</g>
<!-- L4YAML.Scanner.ScannerState.tokens -->
<g id="node7" class="node">
<title>L4YAML.Scanner.ScannerState.tokens</title>
<g id="a_node7"><a xlink:href="../../../api/L4YAML/Scanner/State.html#L4YAML.Scanner.ScannerState.tokens" xlink:title="ScannerState.tokens\n(def)" target="_blank">
<polygon fill="#dce9f7" stroke="#4a90d9" points="1752.85,-925.73 1645.85,-925.73 1645.85,-889.73 1752.85,-889.73 1752.85,-925.73"/>
<text text-anchor="middle" x="1699.35" y="-910.73" font-family="Helvetica" font-size="10.00">ScannerState.tokens</text>
<text text-anchor="middle" x="1699.35" y="-899.73" font-family="Helvetica" font-size="10.00">(def)</text>
</a>
</g>
</g>
<!-- L4YAML.Proofs.ScannerCorrectness.ScanHelpers.scanFlowSequenceEnd_preserves_prefix -->
<g id="node8" class="node">
<title>L4YAML.Proofs.ScannerCorrectness.ScanHelpers.scanFlowSequenceEnd_preserves_prefix</title>
<g id="a_node8"><a xlink:href="../../../api/L4YAML/Proofs/Scanner/ScannerCorrectness.html#L4YAML.Proofs.ScannerCorrectness.ScanHelpers.scanFlowSequenceEnd_preserves_prefix" xlink:title="ScannerCorrectness.ScanHelpers.scanFlowSequenceEnd_preserves_prefix" target="_blank">
<polygon fill="#fff3cd" stroke="#d4a017" points="1574.7,-814.27 1574.7,-829.18 1408.51,-839.73 1173.49,-839.73 1007.31,-829.18 1007.31,-814.27 1173.49,-803.73 1408.51,-803.73 1574.7,-814.27"/>
<polygon fill="none" stroke="#d4a017" points="1578.7,-810.52 1578.7,-832.94 1408.64,-843.73 1173.37,-843.73 1003.31,-832.94 1003.31,-810.52 1173.37,-799.73 1408.64,-799.73 1578.7,-810.52"/>
<text text-anchor="middle" x="1291" y="-818.63" font-family="Helvetica" font-size="12.00">ScannerCorrectness.ScanHelpers.scanFlowSequenceEnd_preserves_prefix</text>
</a>
</g>
</g>
<!-- L4YAML.Proofs.ScannerCorrectness.ScanHelpers.scanFlowSequenceEnd_preserves_prefix&#45;&gt;L4YAML.Scanner.scanFlowSequenceEnd -->
<g id="edge2" class="edge">
<title>L4YAML.Proofs.ScannerCorrectness.ScanHelpers.scanFlowSequenceEnd_preserves_prefix&#45;&gt;L4YAML.Scanner.scanFlowSequenceEnd</title>
<path fill="none" stroke="#4a90d9" stroke-width="2" d="M1524.07,-836.56C1547.52,-846.18 1569.16,-859.5 1586.85,-877.73 1596.72,-887.9 1593.85,-926.87 1596.85,-940.73 1612.07,-1011.02 1593.32,-1041.89 1639.85,-1096.73 1641.17,-1098.29 1642.6,-1099.76 1644.12,-1101.15"/>
<polygon fill="#4a90d9" stroke="#4a90d9" stroke-width="2" points="1642.61,-1103.08 1649.59,-1105.59 1645.7,-1099.28 1642.61,-1103.08"/>
<text text-anchor="middle" x="1609.35" y="-1071.33" font-family="Times-Roman" font-size="8.00" fill="#4a90d9">about</text>
</g>
<!-- L4YAML.Proofs.ScannerCorrectness.ScanHelpers.scanFlowSequenceEnd_preserves_prefix&#45;&gt;L4YAML.Positioned -->
<g id="edge3" class="edge">
<title>L4YAML.Proofs.ScannerCorrectness.ScanHelpers.scanFlowSequenceEnd_preserves_prefix&#45;&gt;L4YAML.Positioned</title>
<path fill="none" stroke="#4a90d9" stroke-width="2" d="M1512,-837.3C1539.22,-846.48 1565.08,-859.49 1586.85,-877.73 1620.38,-905.83 1608.81,-927.97 1621.85,-969.73 1631.81,-1001.63 1618.58,-1016.96 1639.85,-1042.73 1645.52,-1049.6 1653.33,-1054.81 1661.4,-1058.73"/>
<polygon fill="#4a90d9" stroke="#4a90d9" stroke-width="2" points="1660.8,-1061.14 1668.19,-1061.72 1662.78,-1056.66 1660.8,-1061.14"/>
<text text-anchor="middle" x="1609.35" y="-972.33" font-family="Times-Roman" font-size="8.00" fill="#4a90d9">about</text>
</g>
<!-- L4YAML.Proofs.ScannerCorrectness.ScanHelpers.scanFlowSequenceEnd_preserves_prefix&#45;&gt;L4YAML.Scanner.ScannerState -->
<g id="edge5" class="edge">
<title>L4YAML.Proofs.ScannerCorrectness.ScanHelpers.scanFlowSequenceEnd_preserves_prefix&#45;&gt;L4YAML.Scanner.ScannerState</title>
<path fill="none" stroke="#4a90d9" stroke-width="2" d="M1565.96,-833.85C1586.6,-843.21 1605.65,-855.57 1621.85,-871.73 1659.09,-908.89 1608.2,-946.7 1639.85,-988.73 1643.8,-993.98 1649.02,-998.24 1654.72,-1001.69"/>
<polygon fill="#4a90d9" stroke="#4a90d9" stroke-width="2" points="1653.73,-1003.94 1661.05,-1005.13 1656.07,-999.63 1653.73,-1003.94"/>
<text text-anchor="middle" x="1609.35" y="-874.33" font-family="Times-Roman" font-size="8.00" fill="#4a90d9">about</text>
</g>
<!-- L4YAML.Proofs.ScannerCorrectness.ScanHelpers.scanFlowSequenceEnd_preserves_prefix&#45;&gt;L4YAML.YamlToken -->
<g id="edge4" class="edge">
<title>L4YAML.Proofs.ScannerCorrectness.ScanHelpers.scanFlowSequenceEnd_preserves_prefix&#45;&gt;L4YAML.YamlToken</title>
<path fill="none" stroke="#4a90d9" stroke-width="2" d="M1379.34,-799.67C1452.95,-786.7 1556.47,-782.5 1621.85,-839.73 1654.18,-868.03 1613.41,-900.85 1639.85,-934.73 1645.23,-941.62 1652.77,-946.82 1660.66,-950.71"/>
<polygon fill="#4a90d9" stroke="#4a90d9" stroke-width="2" points="1659.93,-953.07 1667.32,-953.69 1661.93,-948.6 1659.93,-953.07"/>
<text text-anchor="middle" x="1609.35" y="-842.33" font-family="Times-Roman" font-size="8.00" fill="#4a90d9">about</text>
</g>
<!-- L4YAML.Proofs.ScannerCorrectness.ScanHelpers.scanFlowSequenceEnd_preserves_prefix&#45;&gt;L4YAML.Scanner.ScannerState.tokens -->
<g id="edge1" class="edge">
<title>L4YAML.Proofs.ScannerCorrectness.ScanHelpers.scanFlowSequenceEnd_preserves_prefix&#45;&gt;L4YAML.Scanner.ScannerState.tokens</title>
<path fill="none" stroke="#4a90d9" stroke-width="2" d="M1440.56,-801.72C1512.55,-794.75 1590.18,-792.08 1621.85,-807.73 1653.38,-823.3 1675.49,-858.79 1687.57,-883.02"/>
<polygon fill="#4a90d9" stroke="#4a90d9" stroke-width="2" points="1685.46,-884.29 1690.71,-889.53 1689.87,-882.16 1685.46,-884.29"/>
<text text-anchor="middle" x="1609.35" y="-810.33" font-family="Times-Roman" font-size="8.00" fill="#4a90d9">about</text>
</g>
<!-- L4YAML.Proofs.ScannerCorrectness.scanFlowSequenceEnd_adds_one_token -->
<g id="node9" class="node">
<title>L4YAML.Proofs.ScannerCorrectness.scanFlowSequenceEnd_adds_one_token</title>
<g id="a_node9"><a xlink:href="../../../api/L4YAML/Proofs/Scanner/ScannerCorrectness.html#L4YAML.Proofs.ScannerCorrectness.scanFlowSequenceEnd_adds_one_token" xlink:title="ScannerCorrectness.scanFlowSequenceEnd_adds_one_token\n(Scanner.ScannerCorrectness)" target="_blank">
<ellipse fill="#d4edda" stroke="#28a745" cx="670.09" cy="-511.73" rx="202.88" ry="21.43"/>
<text text-anchor="middle" x="670.09" y="-514.73" font-family="Helvetica" font-size="10.00">ScannerCorrectness.scanFlowSequenceEnd_adds_one_token</text>
<text text-anchor="middle" x="670.09" y="-503.73" font-family="Helvetica" font-size="10.00">(Scanner.ScannerCorrectness)</text>
</a>
</g>
</g>
<!-- L4YAML.Proofs.ScannerCorrectness.scanFlowSequenceEnd_adds_one_token&#45;&gt;L4YAML.Scanner.scanFlowSequenceEnd -->
<g id="edge13" class="edge">
<title>L4YAML.Proofs.ScannerCorrectness.scanFlowSequenceEnd_adds_one_token&#45;&gt;L4YAML.Scanner.scanFlowSequenceEnd</title>
<path fill="none" stroke="#6f42c1" stroke-width="2" stroke-dasharray="5,2" d="M865.57,-517.58C895.62,-522.68 925.75,-530.36 953.16,-541.73 975.34,-550.93 972.68,-567.26 995.16,-575.73 1056.72,-598.94 1540.52,-553 1586.85,-599.73 1599.1,-612.08 1590.39,-896.57 1596.85,-912.73 1603.04,-928.22 1615.02,-925.51 1621.85,-940.73 1650.43,-1004.4 1598.92,-1040.2 1639.85,-1096.73 1641.29,-1098.72 1642.91,-1100.57 1644.68,-1102.28"/>
<polygon fill="#6f42c1" stroke="#6f42c1" stroke-width="2" points="1643.58,-1103.64 1648.49,-1105.62 1645.88,-1101.01 1643.58,-1103.64"/>
<text text-anchor="middle" x="1291" y="-602.13" font-family="Times-Roman" font-size="7.00" fill="#6f42c1">about</text>
</g>
<!-- L4YAML.Proofs.ScannerCorrectness.scanFlowSequenceEnd_adds_one_token&#45;&gt;L4YAML.Positioned -->
<g id="edge14" class="edge">
<title>L4YAML.Proofs.ScannerCorrectness.scanFlowSequenceEnd_adds_one_token&#45;&gt;L4YAML.Positioned</title>
<path fill="none" stroke="#6f42c1" stroke-width="2" stroke-dasharray="5,2" d="M851.18,-521.35C1115.99,-535.69 1580.09,-561.64 1586.85,-567.73 1657.15,-631.06 1610.85,-683.75 1621.85,-777.73 1625.28,-807.04 1623.11,-1018.42 1639.85,-1042.73 1645.52,-1050.97 1654.37,-1056.74 1663.48,-1060.77"/>
<polygon fill="#6f42c1" stroke="#6f42c1" stroke-width="2" points="1662.96,-1062.45 1668.25,-1062.72 1664.29,-1059.21 1662.96,-1062.45"/>
<text text-anchor="middle" x="1291" y="-570.13" font-family="Times-Roman" font-size="7.00" fill="#6f42c1">about</text>
</g>
<!-- L4YAML.Proofs.ScannerCorrectness.scanFlowSequenceEnd_adds_one_token&#45;&gt;L4YAML.Scanner.ScannerState -->
<g id="edge16" class="edge">
<title>L4YAML.Proofs.ScannerCorrectness.scanFlowSequenceEnd_adds_one_token&#45;&gt;L4YAML.Scanner.ScannerState</title>
<path fill="none" stroke="#6f42c1" stroke-width="2" stroke-dasharray="5,2" d="M850.01,-501.89C1113.6,-489.6 1579.82,-477.1 1621.85,-539.73 1649.67,-581.19 1612.1,-947.22 1639.85,-988.73 1643.99,-994.92 1649.94,-999.72 1656.47,-1003.43"/>
<polygon fill="#6f42c1" stroke="#6f42c1" stroke-width="2" points="1655.83,-1005.07 1661.07,-1005.83 1657.45,-1001.97 1655.83,-1005.07"/>
<text text-anchor="middle" x="1291" y="-519.13" font-family="Times-Roman" font-size="7.00" fill="#6f42c1">about</text>
</g>
<!-- L4YAML.Proofs.ScannerCorrectness.scanFlowSequenceEnd_adds_one_token&#45;&gt;L4YAML.YamlToken -->
<g id="edge15" class="edge">
<title>L4YAML.Proofs.ScannerCorrectness.scanFlowSequenceEnd_adds_one_token&#45;&gt;L4YAML.YamlToken</title>
<path fill="none" stroke="#6f42c1" stroke-width="2" stroke-dasharray="5,2" d="M803.32,-495.7C861.98,-489.36 931.91,-482.84 995.16,-479.73 1257.81,-466.79 1329.89,-423.78 1586.85,-479.73 1603.56,-483.37 1612.31,-481.53 1621.85,-495.73 1649.07,-536.25 1612.7,-894.15 1639.85,-934.73 1645.2,-942.73 1653.57,-948.4 1662.32,-952.41"/>
<polygon fill="#6f42c1" stroke="#6f42c1" stroke-width="2" points="1661.91,-954.14 1667.2,-954.47 1663.27,-950.91 1661.91,-954.14"/>
<text text-anchor="middle" x="1291" y="-482.13" font-family="Times-Roman" font-size="7.00" fill="#6f42c1">about</text>
</g>
<!-- L4YAML.Proofs.ScannerCorrectness.scanFlowSequenceEnd_adds_one_token&#45;&gt;L4YAML.Scanner.ScannerState.tokens -->
<g id="edge12" class="edge">
<title>L4YAML.Proofs.ScannerCorrectness.scanFlowSequenceEnd_adds_one_token&#45;&gt;L4YAML.Scanner.ScannerState.tokens</title>
<path fill="none" stroke="#6f42c1" stroke-width="2" stroke-dasharray="5,2" d="M820.74,-525.95C867.45,-522.99 916.32,-511.36 953.16,-481.73 964.11,-472.92 953.95,-462.35 963.16,-451.73 973.57,-439.72 979.68,-439.38 995.16,-435.73 1251.1,-375.31 1329.89,-379.78 1586.85,-435.73 1603.56,-439.37 1611.44,-438.15 1621.85,-451.73 1674.9,-520.92 1693,-801.03 1697.27,-884.28"/>
<polygon fill="#6f42c1" stroke="#6f42c1" stroke-width="2" points="1695.53,-884.57 1697.53,-889.48 1699.02,-884.39 1695.53,-884.57"/>
<text text-anchor="middle" x="1291" y="-438.13" font-family="Times-Roman" font-size="7.00" fill="#6f42c1">about</text>
</g>
<!-- L4YAML.Proofs.ScannerCorrectness.scanFlowSequenceEnd_adds_one_token&#45;&gt;L4YAML.Proofs.ScannerCorrectness.ScanHelpers.scanFlowSequenceEnd_preserves_prefix -->
<g id="edge8" class="edge">
<title>L4YAML.Proofs.ScannerCorrectness.scanFlowSequenceEnd_adds_one_token&#45;&gt;L4YAML.Proofs.ScannerCorrectness.ScanHelpers.scanFlowSequenceEnd_preserves_prefix</title>
<path fill="none" stroke="#28a745" d="M775.48,-493.6C835.45,-489.54 907.67,-496.51 953.16,-541.73 967.27,-555.76 960.03,-611.07 963.16,-630.73 974.21,-700.2 943.42,-738.07 995.16,-785.73 1003.32,-793.25 1012.2,-799.76 1021.62,-805.38"/>
<polygon fill="#28a745" stroke="#28a745" points="1020.58,-807.61 1027.88,-808.95 1023.01,-803.35 1020.58,-807.61"/>
</g>
<!-- L4YAML.Proofs.ScannerCorrectness.advance_preserves_tokens -->
<g id="node10" class="node">
<title>L4YAML.Proofs.ScannerCorrectness.advance_preserves_tokens</title>
<g id="a_node10"><a xlink:href="../../../api/L4YAML/Proofs/Scanner/ScannerCorrectness.html#L4YAML.Proofs.ScannerCorrectness.advance_preserves_tokens" xlink:title="ScannerCorrectness.advance_preserves_tokens\n(Scanner.ScannerCorrectness)" target="_blank">
<ellipse fill="#d4edda" stroke="#28a745" cx="176.51" cy="-451.73" rx="160.53" ry="21.43"/>
<text text-anchor="middle" x="176.51" y="-454.73" font-family="Helvetica" font-size="10.00">ScannerCorrectness.advance_preserves_tokens</text>
<text text-anchor="middle" x="176.51" y="-443.73" font-family="Helvetica" font-size="10.00">(Scanner.ScannerCorrectness)</text>
</a>
</g>
</g>
<!-- L4YAML.Proofs.ScannerCorrectness.advance_preserves_tokens&#45;&gt;L4YAML.Positioned -->
<g id="edge19" class="edge">
<title>L4YAML.Proofs.ScannerCorrectness.advance_preserves_tokens&#45;&gt;L4YAML.Positioned</title>
<path fill="none" stroke="#6f42c1" stroke-width="2" stroke-dasharray="5,2" d="M186.14,-430.26C209.73,-374.88 281.23,-227.66 395.03,-171.73 454.45,-142.52 1536.83,-126.35 1586.85,-169.73 1598.72,-180.02 1594.05,-224.27 1596.85,-239.73 1606.08,-290.77 1615.59,-302.24 1621.85,-353.73 1626.47,-391.74 1618.79,-1010.75 1639.85,-1042.73 1645.4,-1051.16 1654.31,-1057 1663.52,-1061.04"/>
<polygon fill="#6f42c1" stroke="#6f42c1" stroke-width="2" points="1663.06,-1062.73 1668.35,-1062.98 1664.37,-1059.49 1663.06,-1062.73"/>
<text text-anchor="middle" x="974.16" y="-147.13" font-family="Times-Roman" font-size="7.00" fill="#6f42c1">about</text>
</g>
<!-- L4YAML.Proofs.ScannerCorrectness.advance_preserves_tokens&#45;&gt;L4YAML.Scanner.ScannerState.advance -->
<g id="edge18" class="edge">
<title>L4YAML.Proofs.ScannerCorrectness.advance_preserves_tokens&#45;&gt;L4YAML.Scanner.ScannerState.advance</title>
<path fill="none" stroke="#6f42c1" stroke-width="2" stroke-dasharray="5,2" d="M200.24,-472.81C282.3,-548.93 562.86,-809.19 645.81,-886.14"/>
<polygon fill="#6f42c1" stroke="#6f42c1" stroke-width="2" points="644.76,-887.54 649.61,-889.66 647.14,-884.98 644.76,-887.54"/>
<text text-anchor="middle" x="366.03" y="-627.13" font-family="Times-Roman" font-size="7.00" fill="#6f42c1">about</text>
</g>
<!-- L4YAML.Proofs.ScannerCorrectness.advance_preserves_tokens&#45;&gt;L4YAML.Scanner.ScannerState -->
<g id="edge21" class="edge">
<title>L4YAML.Proofs.ScannerCorrectness.advance_preserves_tokens&#45;&gt;L4YAML.Scanner.ScannerState</title>
<path fill="none" stroke="#6f42c1" stroke-width="2" stroke-dasharray="5,2" d="M182.11,-430.52C196.08,-371.97 244.02,-208.05 355.03,-141.73 413.78,-106.63 1534.11,-98.11 1586.85,-141.73 1642.94,-188.12 1613.08,-229.47 1621.85,-301.73 1626.45,-339.63 1618.85,-956.84 1639.85,-988.73 1644,-995.03 1650.02,-999.88 1656.64,-1003.62"/>
<polygon fill="#6f42c1" stroke="#6f42c1" stroke-width="2" points="1656.06,-1005.29 1661.3,-1006.03 1657.67,-1002.18 1656.06,-1005.29"/>
<text text-anchor="middle" x="974.16" y="-115.13" font-family="Times-Roman" font-size="7.00" fill="#6f42c1">about</text>
</g>
<!-- L4YAML.Proofs.ScannerCorrectness.advance_preserves_tokens&#45;&gt;L4YAML.YamlToken -->
<g id="edge20" class="edge">
<title>L4YAML.Proofs.ScannerCorrectness.advance_preserves_tokens&#45;&gt;L4YAML.YamlToken</title>
<path fill="none" stroke="#6f42c1" stroke-width="2" stroke-dasharray="5,2" d="M180.82,-430.33C191.88,-366.98 233.99,-180.07 355.03,-103.73 414.55,-66.18 1572.17,-53.88 1621.85,-103.73 1654.44,-136.44 1614.54,-896.1 1639.85,-934.73 1645.12,-942.78 1653.46,-948.47 1662.21,-952.48"/>
<polygon fill="#6f42c1" stroke="#6f42c1" stroke-width="2" points="1661.81,-954.21 1667.1,-954.53 1663.17,-950.98 1661.81,-954.21"/>
<text text-anchor="middle" x="974.16" y="-74.13" font-family="Times-Roman" font-size="7.00" fill="#6f42c1">about</text>
</g>
<!-- L4YAML.Proofs.ScannerCorrectness.advance_preserves_tokens&#45;&gt;L4YAML.Scanner.ScannerState.tokens -->
<g id="edge17" class="edge">
<title>L4YAML.Proofs.ScannerCorrectness.advance_preserves_tokens&#45;&gt;L4YAML.Scanner.ScannerState.tokens</title>
<path fill="none" stroke="#6f42c1" stroke-width="2" stroke-dasharray="5,2" d="M179.7,-430.51C187.91,-362.99 223.56,-152.43 355.03,-65.73 472.53,11.77 1519.11,30.49 1621.85,-65.73 1683.33,-123.31 1696.06,-754.72 1698.04,-884.49"/>
<polygon fill="#6f42c1" stroke="#6f42c1" stroke-width="2" points="1696.29,-884.63 1698.11,-889.6 1699.79,-884.57 1696.29,-884.63"/>
<text text-anchor="middle" x="974.16" y="-4.13" font-family="Times-Roman" font-size="7.00" fill="#6f42c1">about</text>
</g>
<!-- L4YAML.Proofs.ScannerCorrectness.advance_preserves_tokens&#45;&gt;L4YAML.Proofs.ScannerCorrectness.ScanHelpers.scanFlowSequenceEnd_preserves_prefix -->
<g id="edge6" class="edge">
<title>L4YAML.Proofs.ScannerCorrectness.advance_preserves_tokens&#45;&gt;L4YAML.Proofs.ScannerCorrectness.ScanHelpers.scanFlowSequenceEnd_preserves_prefix</title>
<path fill="none" stroke="#28a745" d="M228.76,-431.52C360.76,-383.05 718.47,-274.7 953.16,-421.73 980.78,-439.04 977.33,-456.08 985.16,-487.73 989.13,-503.81 983.97,-773.51 995.16,-785.73 1001.82,-793 1009.13,-799.39 1016.95,-804.98"/>
<polygon fill="#28a745" stroke="#28a745" points="1015.87,-807.21 1023.04,-809.11 1018.62,-803.15 1015.87,-807.21"/>
</g>
<!-- L4YAML.Proofs.ScannerCorrectness.advance_preserves_tokens&#45;&gt;L4YAML.Proofs.ScannerCorrectness.scanFlowSequenceEnd_adds_one_token -->
<g id="edge32" class="edge">
<title>L4YAML.Proofs.ScannerCorrectness.advance_preserves_tokens&#45;&gt;L4YAML.Proofs.ScannerCorrectness.scanFlowSequenceEnd_adds_one_token</title>
<path fill="none" stroke="#cccccc" stroke-dasharray="5,2" d="M285.86,-467.28C320.69,-472.12 359.46,-477.33 395.03,-481.73 435.93,-486.79 480.33,-491.84 521.24,-496.31"/>
<polygon fill="#cccccc" stroke="#cccccc" points="521.57,-497.76 525.7,-496.8 521.87,-494.97 521.57,-497.76"/>
</g>
<!-- L4YAML.Proofs.ScannerCorrectness.emit_preserves_tokens_at -->
<g id="node11" class="node">
<title>L4YAML.Proofs.ScannerCorrectness.emit_preserves_tokens_at</title>
<g id="a_node11"><a xlink:href="../../../api/L4YAML/Proofs/Scanner/ScannerCorrectness.html#L4YAML.Proofs.ScannerCorrectness.emit_preserves_tokens_at" xlink:title="ScannerCorrectness.emit_preserves_tokens_at\n(Scanner.ScannerCorrectness)" target="_blank">
<ellipse fill="#d4edda" stroke="#28a745" cx="670.09" cy="-571.73" rx="157.87" ry="21.43"/>
<text text-anchor="middle" x="670.09" y="-574.73" font-family="Helvetica" font-size="10.00">ScannerCorrectness.emit_preserves_tokens_at</text>
<text text-anchor="middle" x="670.09" y="-563.73" font-family="Helvetica" font-size="10.00">(Scanner.ScannerCorrectness)</text>
</a>
</g>
</g>
<!-- L4YAML.Proofs.ScannerCorrectness.emit_preserves_tokens_at&#45;&gt;L4YAML.Scanner.ScannerState.emit -->
<g id="edge23" class="edge">
<title>L4YAML.Proofs.ScannerCorrectness.emit_preserves_tokens_at&#45;&gt;L4YAML.Scanner.ScannerState.emit</title>
<path fill="none" stroke="#6f42c1" stroke-width="2" stroke-dasharray="5,2" d="M685.56,-592.91C726.34,-650.61 848.8,-810.77 995.16,-877.73 1073.55,-913.59 1175.62,-915.36 1236.8,-912.3"/>
<polygon fill="#6f42c1" stroke="#6f42c1" stroke-width="2" points="1236.96,-914.05 1241.86,-912.04 1236.77,-910.55 1236.96,-914.05"/>
<text text-anchor="middle" x="974.16" y="-874.13" font-family="Times-Roman" font-size="7.00" fill="#6f42c1">about</text>
</g>
<!-- L4YAML.Proofs.ScannerCorrectness.emit_preserves_tokens_at&#45;&gt;L4YAML.Positioned -->
<g id="edge24" class="edge">
<title>L4YAML.Proofs.ScannerCorrectness.emit_preserves_tokens_at&#45;&gt;L4YAML.Positioned</title>
<path fill="none" stroke="#6f42c1" stroke-width="2" stroke-dasharray="5,2" d="M698.6,-592.89C752.16,-632.69 875.69,-717.74 995.16,-751.73 1248.38,-823.76 1331.75,-714.67 1586.85,-779.73 1603.61,-784 1612.14,-782.41 1621.85,-796.73 1652.61,-842.1 1608.64,-997.67 1639.85,-1042.73 1645.54,-1050.95 1654.4,-1056.72 1663.51,-1060.75"/>
<polygon fill="#6f42c1" stroke="#6f42c1" stroke-width="2" points="1662.99,-1062.43 1668.28,-1062.71 1664.31,-1059.19 1662.99,-1062.43"/>
<text text-anchor="middle" x="1291" y="-782.13" font-family="Times-Roman" font-size="7.00" fill="#6f42c1">about</text>
</g>
<!-- L4YAML.Proofs.ScannerCorrectness.emit_preserves_tokens_at&#45;&gt;L4YAML.Scanner.ScannerState -->
<g id="edge26" class="edge">
<title>L4YAML.Proofs.ScannerCorrectness.emit_preserves_tokens_at&#45;&gt;L4YAML.Scanner.ScannerState</title>
<path fill="none" stroke="#6f42c1" stroke-width="2" stroke-dasharray="5,2" d="M708.59,-592.41C767.54,-623.77 886.41,-682.38 995.16,-707.73 1251.74,-767.55 1331.24,-679.88 1586.85,-743.73 1603.44,-747.87 1612.05,-745.71 1621.85,-759.73 1651.1,-801.56 1610.67,-946.84 1639.85,-988.73 1644.11,-994.84 1650.11,-999.6 1656.67,-1003.3"/>
<polygon fill="#6f42c1" stroke="#6f42c1" stroke-width="2" points="1656.03,-1004.94 1661.28,-1005.7 1657.64,-1001.84 1656.03,-1004.94"/>
<text text-anchor="middle" x="1291" y="-746.13" font-family="Times-Roman" font-size="7.00" fill="#6f42c1">about</text>
</g>
<!-- L4YAML.Proofs.ScannerCorrectness.emit_preserves_tokens_at&#45;&gt;L4YAML.YamlToken -->
<g id="edge25" class="edge">
<title>L4YAML.Proofs.ScannerCorrectness.emit_preserves_tokens_at&#45;&gt;L4YAML.YamlToken</title>
<path fill="none" stroke="#6f42c1" stroke-width="2" stroke-dasharray="5,2" d="M727.02,-591.61C790.95,-613.38 899.16,-647.38 995.16,-663.73 1254.88,-707.96 1331.24,-635.88 1586.85,-699.73 1603.44,-703.87 1612.02,-701.73 1621.85,-715.73 1649.9,-755.7 1611.87,-894.71 1639.85,-934.73 1645.31,-942.54 1653.62,-948.14 1662.27,-952.14"/>
<polygon fill="#6f42c1" stroke="#6f42c1" stroke-width="2" points="1661.82,-953.85 1667.1,-954.2 1663.19,-950.63 1661.82,-953.85"/>
<text text-anchor="middle" x="1291" y="-702.13" font-family="Times-Roman" font-size="7.00" fill="#6f42c1">about</text>
</g>
<!-- L4YAML.Proofs.ScannerCorrectness.emit_preserves_tokens_at&#45;&gt;L4YAML.Scanner.ScannerState.tokens -->
<g id="edge22" class="edge">
<title>L4YAML.Proofs.ScannerCorrectness.emit_preserves_tokens_at&#45;&gt;L4YAML.Scanner.ScannerState.tokens</title>
<path fill="none" stroke="#6f42c1" stroke-width="2" stroke-dasharray="5,2" d="M785.33,-586.23C847.34,-593.82 925.39,-602.93 995.16,-609.73 1257.68,-635.31 1331.49,-589.66 1586.85,-655.73 1603.41,-660.01 1610.47,-658.96 1621.85,-671.73 1677.71,-734.44 1692.86,-838.53 1696.9,-884.59"/>
<polygon fill="#6f42c1" stroke="#6f42c1" stroke-width="2" points="1695.17,-884.81 1697.32,-889.65 1698.65,-884.52 1695.17,-884.81"/>
<text text-anchor="middle" x="1291" y="-658.13" font-family="Times-Roman" font-size="7.00" fill="#6f42c1">about</text>
</g>
<!-- L4YAML.Proofs.ScannerCorrectness.emit_preserves_tokens_at&#45;&gt;L4YAML.Proofs.ScannerCorrectness.ScanHelpers.scanFlowSequenceEnd_preserves_prefix -->
<g id="edge7" class="edge">
<title>L4YAML.Proofs.ScannerCorrectness.emit_preserves_tokens_at&#45;&gt;L4YAML.Proofs.ScannerCorrectness.ScanHelpers.scanFlowSequenceEnd_preserves_prefix</title>
<path fill="none" stroke="#28a745" d="M688.09,-592.81C729.15,-641.9 839.51,-763.16 963.16,-809.73 973.83,-813.75 984.84,-817.21 996.06,-820.18"/>
<polygon fill="#28a745" stroke="#28a745" points="995.69,-822.61 1003.08,-821.96 996.9,-817.86 995.69,-822.61"/>
</g>
<!-- L4YAML.Proofs.ScannerCorrectness.ScanHelpers.scanFlowSequenceEnd_preserves_prefix._proof_1 -->
<g id="node12" class="node">
<title>L4YAML.Proofs.ScannerCorrectness.ScanHelpers.scanFlowSequenceEnd_preserves_prefix._proof_1</title>
<g id="a_node12"><a xlink:href="../../../api/L4YAML/Proofs/Scanner/ScannerCorrectness.html#L4YAML.Proofs.ScannerCorrectness.ScanHelpers.scanFlowSequenceEnd_preserves_prefix._proof_1" xlink:title="ScannerCorrectness.ScanHelpers.scanFlowSequenceEnd_preserves_prefix._proof_1\n(Scanner.ScannerCorrectness)" target="_blank">
<ellipse fill="#d4edda" stroke="#28a745" cx="670.09" cy="-451.73" rx="275.13" ry="21.43"/>
<text text-anchor="middle" x="670.09" y="-454.73" font-family="Helvetica" font-size="10.00">ScannerCorrectness.ScanHelpers.scanFlowSequenceEnd_preserves_prefix._proof_1</text>
<text text-anchor="middle" x="670.09" y="-443.73" font-family="Helvetica" font-size="10.00">(Scanner.ScannerCorrectness)</text>
</a>
</g>
</g>
<!-- L4YAML.Proofs.ScannerCorrectness.ScanHelpers.scanFlowSequenceEnd_preserves_prefix._proof_1&#45;&gt;L4YAML.Scanner.scanFlowSequenceEnd -->
<g id="edge28" class="edge">
<title>L4YAML.Proofs.ScannerCorrectness.ScanHelpers.scanFlowSequenceEnd_preserves_prefix._proof_1&#45;&gt;L4YAML.Scanner.scanFlowSequenceEnd</title>
<path fill="none" stroke="#6f42c1" stroke-width="2" stroke-dasharray="5,2" d="M742.1,-431.24C807.26,-413.58 906.79,-389.43 995.16,-379.73 1060.51,-372.56 1538.46,-335.23 1586.85,-379.73 1588.99,-381.7 1621.64,-793.83 1621.85,-796.73 1624.25,-830.04 1621.02,-1069.15 1639.85,-1096.73 1641.13,-1098.6 1642.57,-1100.34 1644.14,-1101.97"/>
<polygon fill="#6f42c1" stroke="#6f42c1" stroke-width="2" points="1643.16,-1103.45 1648.03,-1105.55 1645.53,-1100.87 1643.16,-1103.45"/>
<text text-anchor="middle" x="1291" y="-382.13" font-family="Times-Roman" font-size="7.00" fill="#6f42c1">about</text>
</g>
<!-- L4YAML.Proofs.ScannerCorrectness.ScanHelpers.scanFlowSequenceEnd_preserves_prefix._proof_1&#45;&gt;L4YAML.Positioned -->
<g id="edge29" class="edge">
<title>L4YAML.Proofs.ScannerCorrectness.ScanHelpers.scanFlowSequenceEnd_preserves_prefix._proof_1&#45;&gt;L4YAML.Positioned</title>
<path fill="none" stroke="#6f42c1" stroke-width="2" stroke-dasharray="5,2" d="M719.89,-430.78C782.33,-405.23 894.46,-363.49 995.16,-347.73 1060.11,-337.56 1536.93,-304.95 1586.85,-347.73 1664.02,-413.87 1612.11,-472.55 1621.85,-573.73 1626.85,-625.64 1610.91,-999.35 1639.85,-1042.73 1645.4,-1051.05 1654.21,-1056.85 1663.32,-1060.88"/>
<polygon fill="#6f42c1" stroke="#6f42c1" stroke-width="2" points="1662.81,-1062.56 1668.1,-1062.83 1664.13,-1059.32 1662.81,-1062.56"/>
<text text-anchor="middle" x="1291" y="-350.13" font-family="Times-Roman" font-size="7.00" fill="#6f42c1">about</text>
</g>
<!-- L4YAML.Proofs.ScannerCorrectness.ScanHelpers.scanFlowSequenceEnd_preserves_prefix._proof_1&#45;&gt;L4YAML.Scanner.ScannerState -->
<g id="edge31" class="edge">
<title>L4YAML.Proofs.ScannerCorrectness.ScanHelpers.scanFlowSequenceEnd_preserves_prefix._proof_1&#45;&gt;L4YAML.Scanner.ScannerState</title>
<path fill="none" stroke="#6f42c1" stroke-width="2" stroke-dasharray="5,2" d="M704.4,-430.63C761.32,-395.95 882.14,-328.31 995.16,-303.73 1063.22,-288.92 1583.42,-261.63 1621.85,-319.73 1662.88,-381.75 1598.93,-926.64 1639.85,-988.73 1644,-995.03 1650.02,-999.88 1656.64,-1003.61"/>
<polygon fill="#6f42c1" stroke="#6f42c1" stroke-width="2" points="1656.06,-1005.28 1661.31,-1006.02 1657.67,-1002.17 1656.06,-1005.28"/>
<text text-anchor="middle" x="1291" y="-306.13" font-family="Times-Roman" font-size="7.00" fill="#6f42c1">about</text>
</g>
<!-- L4YAML.Proofs.ScannerCorrectness.ScanHelpers.scanFlowSequenceEnd_preserves_prefix._proof_1&#45;&gt;L4YAML.YamlToken -->
<g id="edge30" class="edge">
<title>L4YAML.Proofs.ScannerCorrectness.ScanHelpers.scanFlowSequenceEnd_preserves_prefix._proof_1&#45;&gt;L4YAML.YamlToken</title>
<path fill="none" stroke="#6f42c1" stroke-width="2" stroke-dasharray="5,2" d="M746.55,-431.26C810.22,-410.26 899.35,-371.5 953.16,-307.73 962.76,-296.34 953.5,-287.08 963.16,-275.73 1010.59,-219.99 1576.99,-211.9 1621.85,-269.73 1667.15,-328.13 1599.17,-873.01 1639.85,-934.73 1645.15,-942.77 1653.49,-948.45 1662.24,-952.46"/>
<polygon fill="#6f42c1" stroke="#6f42c1" stroke-width="2" points="1661.84,-954.19 1667.13,-954.51 1663.2,-950.96 1661.84,-954.19"/>
<text text-anchor="middle" x="1291" y="-261.13" font-family="Times-Roman" font-size="7.00" fill="#6f42c1">about</text>
</g>
<!-- L4YAML.Proofs.ScannerCorrectness.ScanHelpers.scanFlowSequenceEnd_preserves_prefix._proof_1&#45;&gt;L4YAML.Scanner.ScannerState.tokens -->
<g id="edge27" class="edge">
<title>L4YAML.Proofs.ScannerCorrectness.ScanHelpers.scanFlowSequenceEnd_preserves_prefix._proof_1&#45;&gt;L4YAML.Scanner.ScannerState.tokens</title>
<path fill="none" stroke="#6f42c1" stroke-width="2" stroke-dasharray="5,2" d="M754.55,-431.48C819.26,-411.25 905.66,-373.46 953.16,-307.73 970.27,-284.04 948.85,-268.22 963.16,-242.73 972.26,-226.5 977.68,-222.12 995.16,-215.73 1242.15,-125.45 1329.89,-159.78 1586.85,-215.73 1603.56,-219.37 1611.81,-217.88 1621.85,-231.73 1699.66,-339.04 1699.83,-777.86 1698.69,-884.36"/>
<polygon fill="#6f42c1" stroke="#6f42c1" stroke-width="2" points="1696.94,-884.45 1698.64,-889.47 1700.44,-884.49 1696.94,-884.45"/>
<text text-anchor="middle" x="1291" y="-218.13" font-family="Times-Roman" font-size="7.00" fill="#6f42c1">about</text>
</g>
<!-- L4YAML.Proofs.ScannerCorrectness.ScanHelpers.scanFlowSequenceEnd_preserves_prefix._proof_1&#45;&gt;L4YAML.Proofs.ScannerCorrectness.ScanHelpers.scanFlowSequenceEnd_preserves_prefix -->
<g id="edge9" class="edge">
<title>L4YAML.Proofs.ScannerCorrectness.ScanHelpers.scanFlowSequenceEnd_preserves_prefix._proof_1&#45;&gt;L4YAML.Proofs.ScannerCorrectness.ScanHelpers.scanFlowSequenceEnd_preserves_prefix</title>
<path fill="none" stroke="#28a745" d="M922.29,-460.3C933.34,-466.17 943.73,-473.25 953.16,-481.73 1003.51,-527.03 975.84,-563.64 985.16,-630.73 987.53,-647.82 983.31,-773.18 995.16,-785.73 1002.07,-793.05 1009.64,-799.46 1017.74,-805.06"/>
<polygon fill="#28a745" stroke="#28a745" points="1016.83,-807.4 1024.02,-809.19 1019.52,-803.3 1016.83,-807.4"/>
</g>
<!-- GetElem.getElem.congr_simp -->
<g id="node13" class="node">
<title>GetElem.getElem.congr_simp</title>
<g id="a_node13"><a xlink:href="../../../api/Init/GetElem.html#GetElem.getElem.congr_simp" xlink:title="GetElem.getElem.congr_simp" target="_blank">
<ellipse fill="#fdebd0" stroke="#e67e22" cx="670.09" cy="-255.73" rx="86.57" ry="18"/>
<text text-anchor="middle" x="670.09" y="-253.23" font-family="Helvetica" font-size="10.00">GetElem.getElem.congr_simp</text>
</a>
</g>
</g>
<!-- GetElem.getElem.congr_simp&#45;&gt;L4YAML.Proofs.ScannerCorrectness.ScanHelpers.scanFlowSequenceEnd_preserves_prefix -->
<g id="edge10" class="edge">
<title>GetElem.getElem.congr_simp&#45;&gt;L4YAML.Proofs.ScannerCorrectness.ScanHelpers.scanFlowSequenceEnd_preserves_prefix</title>
<path fill="none" stroke="#e67e22" stroke-width="2" d="M746.23,-264.46C820.78,-277.54 931.42,-309.8 985.16,-388.73 997.57,-406.97 980.32,-769.39 995.16,-785.73 1001.79,-793.03 1009.07,-799.44 1016.88,-805.05"/>
<polygon fill="#e67e22" stroke="#e67e22" stroke-width="2" points="1015.78,-807.27 1022.94,-809.19 1018.54,-803.23 1015.78,-807.27"/>
</g>
<!-- Decidable.byContradiction -->
<g id="node14" class="node">
<title>Decidable.byContradiction</title>
<g id="a_node14"><a xlink:href="../../../api/Init/Core.html#Decidable.byContradiction" xlink:title="Decidable.byContradiction" target="_blank">
<ellipse fill="#fdebd0" stroke="#e67e22" cx="670.09" cy="-201.73" rx="77.23" ry="18"/>
<text text-anchor="middle" x="670.09" y="-199.23" font-family="Helvetica" font-size="10.00">Decidable.byContradiction</text>
</a>
</g>
</g>
<!-- Decidable.byContradiction&#45;&gt;L4YAML.Proofs.ScannerCorrectness.ScanHelpers.scanFlowSequenceEnd_preserves_prefix -->
<g id="edge11" class="edge">
<title>Decidable.byContradiction&#45;&gt;L4YAML.Proofs.ScannerCorrectness.ScanHelpers.scanFlowSequenceEnd_preserves_prefix</title>
<path fill="none" stroke="#e67e22" stroke-width="2" d="M727.47,-189.65C790.33,-179.73 891.26,-174.89 953.16,-228.73 999.35,-268.91 977.28,-302.01 985.16,-362.73 988.18,-386.04 979.37,-768.31 995.16,-785.73 1001.78,-793.03 1009.06,-799.45 1016.86,-805.07"/>
<polygon fill="#e67e22" stroke="#e67e22" stroke-width="2" points="1015.76,-807.29 1022.93,-809.21 1018.53,-803.24 1015.76,-807.29"/>
</g>
</g>
</svg>
