<?xml version="1.0" encoding="UTF-8" standalone="no"?>
<!DOCTYPE svg PUBLIC "-//W3C//DTD SVG 1.1//EN"
 "http://www.w3.org/Graphics/SVG/1.1/DTD/svg11.dtd">
<!-- Generated by graphviz version 2.44.0 (0)
 -->
<!-- Title: chain_ScannerCorrectness.ScanHelpers.scanKey_preserves_prefix Pages: 1 -->
<svg width="1589pt" height="553pt"
 viewBox="0.00 0.00 1589.00 553.00" xmlns="http://www.w3.org/2000/svg" xmlns:xlink="http://www.w3.org/1999/xlink">
<g id="graph0" class="graph" transform="scale(1 1) rotate(0) translate(4 549)">
<title>chain_ScannerCorrectness.ScanHelpers.scanKey_preserves_prefix</title>
<polygon fill="white" stroke="transparent" points="-4,4 -4,-549 1585,-549 1585,4 -4,4"/>
<text text-anchor="middle" x="790.5" y="-530.6" font-family="Helvetica Bold" font-size="13.00">Functorial Chains: ScannerCorrectness.ScanHelpers.scanKey_preserves_prefix\n(heuristic: used by 5 proofs)</text>
<g id="clust1" class="cluster">
<title>cluster_fns</title>
<polygon fill="none" stroke="#4a90d9" stroke-dasharray="5,2" points="8,-8 8,-406 349,-406 349,-8 8,-8"/>
<text text-anchor="middle" x="178.5" y="-391.6" font-family="Helvetica Bold" font-size="13.00" fill="#4a90d9">Functions (Call Chain)</text>
</g>
<g id="clust2" class="cluster">
<title>cluster_thms</title>
<polygon fill="none" stroke="#28a745" stroke-dasharray="5,2" points="357,-89 357,-515 1573,-515 1573,-89 357,-89"/>
<text text-anchor="middle" x="965" y="-500.6" font-family="Helvetica Bold" font-size="13.00" fill="#28a745">Theorems (Proof Chain)</text>
</g>
<!-- L4YAML.Positioned -->
<g id="node1" class="node">
<title>L4YAML.Positioned</title>
<g id="a_node1"><a xlink:href="../../../api/L4YAML/Token/Token.html#L4YAML.Positioned" xlink:title="Positioned" target="_blank">
<polygon fill="#dce9f7" stroke="#4a90d9" points="341,-133 279,-133 279,-97 341,-97 341,-133"/>
<text text-anchor="middle" x="310" y="-112.5" font-family="Helvetica" font-size="10.00">Positioned</text>
</a>
</g>
</g>
<!-- L4YAML.Scanner.ScannerState.emit -->
<g id="node2" class="node">
<title>L4YAML.Scanner.ScannerState.emit</title>
<g id="a_node2"><a xlink:href="../../../api/L4YAML/Scanner/State.html#L4YAML.Scanner.ScannerState.emit" xlink:title="ScannerState.emit" target="_blank">
<polygon fill="#dce9f7" stroke="#4a90d9" points="269,-214 171,-214 171,-178 269,-178 269,-214"/>
<text text-anchor="middle" x="220" y="-193.5" font-family="Helvetica" font-size="10.00">ScannerState.emit</text>
</a>
</g>
</g>
<!-- L4YAML.Scanner.ScannerState.emit&#45;&gt;L4YAML.Positioned -->
<g id="edge24" class="edge">
<title>L4YAML.Scanner.ScannerState.emit&#45;&gt;L4YAML.Positioned</title>
<path fill="none" stroke="#4a90d9" stroke-width="2" d="M239.53,-177.86C252.86,-166.16 270.63,-150.56 284.99,-137.95"/>
<polygon fill="#4a90d9" stroke="#4a90d9" stroke-width="2" points="286.86,-139.57 290.51,-133.11 283.63,-135.88 286.86,-139.57"/>
<text text-anchor="middle" x="276.5" y="-153.6" font-family="Times-Roman" font-size="8.00">calls</text>
</g>
<!-- L4YAML.YamlToken -->
<g id="node3" class="node">
<title>L4YAML.YamlToken</title>
<g id="a_node3"><a xlink:href="../../../api/L4YAML/Token/Token.html#L4YAML.YamlToken" xlink:title="YamlToken" target="_blank">
<polygon fill="#dce9f7" stroke="#4a90d9" points="261,-133 197,-133 197,-97 261,-97 261,-133"/>
<text text-anchor="middle" x="229" y="-112.5" font-family="Helvetica" font-size="10.00">YamlToken</text>
</a>
</g>
</g>
<!-- L4YAML.Scanner.ScannerState.emit&#45;&gt;L4YAML.YamlToken -->
<g id="edge13" class="edge">
<title>L4YAML.Scanner.ScannerState.emit&#45;&gt;L4YAML.YamlToken</title>
<path fill="none" stroke="#4a90d9" stroke-width="2" d="M221.95,-177.86C223.2,-166.88 224.84,-152.48 226.23,-140.33"/>
<polygon fill="#4a90d9" stroke="#4a90d9" stroke-width="2" points="228.69,-140.34 227.05,-133.11 223.82,-139.79 228.69,-140.34"/>
<text text-anchor="middle" x="233.5" y="-153.6" font-family="Times-Roman" font-size="8.00">calls</text>
</g>
<!-- L4YAML.Scanner.ScannerState -->
<g id="node4" class="node">
<title>L4YAML.Scanner.ScannerState</title>
<g id="a_node4"><a xlink:href="../../../api/L4YAML/Scanner/State.html#L4YAML.Scanner.ScannerState" xlink:title="ScannerState" target="_blank">
<polygon fill="#dce9f7" stroke="#4a90d9" points="341,-52 265,-52 265,-16 341,-16 341,-52"/>
<text text-anchor="middle" x="303" y="-31.5" font-family="Helvetica" font-size="10.00">ScannerState</text>
</a>
</g>
</g>
<!-- L4YAML.Scanner.ScannerState.emit&#45;&gt;L4YAML.Scanner.ScannerState -->
<g id="edge16" class="edge">
<title>L4YAML.Scanner.ScannerState.emit&#45;&gt;L4YAML.Scanner.ScannerState</title>
<path fill="none" stroke="#4a90d9" stroke-width="2" d="M170.84,-180.95C121.19,-166.27 50.72,-143.89 43,-133 31.69,-117.05 30.66,-104.17 43,-89 69.56,-56.35 190.51,-42.8 257.68,-37.72"/>
<polygon fill="#4a90d9" stroke="#4a90d9" stroke-width="2" points="258,-40.15 264.8,-37.2 257.64,-35.27 258,-40.15"/>
<text text-anchor="middle" x="52.5" y="-113.1" font-family="Times-Roman" font-size="8.00">calls</text>
</g>
<!-- L4YAML.Scanner.ScannerState.tokens -->
<g id="node5" class="node">
<title>L4YAML.Scanner.ScannerState.tokens</title>
<g id="a_node5"><a xlink:href="../../../api/L4YAML/Scanner/State.html#L4YAML.Scanner.ScannerState.tokens" xlink:title="ScannerState.tokens" target="_blank">
<polygon fill="#dce9f7" stroke="#4a90d9" points="178.5,-133 71.5,-133 71.5,-97 178.5,-97 178.5,-133"/>
<text text-anchor="middle" x="125" y="-112.5" font-family="Helvetica" font-size="10.00">ScannerState.tokens</text>
</a>
</g>
</g>
<!-- L4YAML.Scanner.ScannerState.emit&#45;&gt;L4YAML.Scanner.ScannerState.tokens -->
<g id="edge26" class="edge">
<title>L4YAML.Scanner.ScannerState.emit&#45;&gt;L4YAML.Scanner.ScannerState.tokens</title>
<path fill="none" stroke="#4a90d9" stroke-width="2" d="M199.39,-177.86C185.19,-166.06 166.23,-150.28 151,-137.62"/>
<polygon fill="#4a90d9" stroke="#4a90d9" stroke-width="2" points="152.52,-135.7 145.57,-133.11 149.39,-139.47 152.52,-135.7"/>
<text text-anchor="middle" x="184.5" y="-153.6" font-family="Times-Roman" font-size="8.00">calls</text>
</g>
<!-- L4YAML.Scanner.ScannerState.tokens&#45;&gt;L4YAML.Scanner.ScannerState -->
<g id="edge8" class="edge">
<title>L4YAML.Scanner.ScannerState.tokens&#45;&gt;L4YAML.Scanner.ScannerState</title>
<path fill="none" stroke="#4a90d9" stroke-width="2" d="M163.62,-96.86C191.48,-84.5 229.14,-67.78 258.3,-54.84"/>
<polygon fill="#4a90d9" stroke="#4a90d9" stroke-width="2" points="259.35,-57.05 264.76,-51.97 257.37,-52.57 259.35,-57.05"/>
<text text-anchor="middle" x="228.5" y="-72.6" font-family="Times-Roman" font-size="8.00">calls</text>
</g>
<!-- L4YAML.Scanner.pushMappingIndent -->
<g id="node6" class="node">
<title>L4YAML.Scanner.pushMappingIndent</title>
<g id="a_node6"><a xlink:href="../../../api/L4YAML/Scanner/Indent.html#L4YAML.Scanner.pushMappingIndent" xlink:title="pushMappingIndent" target="_blank">
<polygon fill="#dce9f7" stroke="#4a90d9" points="297.5,-295 196.5,-295 196.5,-259 297.5,-259 297.5,-295"/>
<text text-anchor="middle" x="247" y="-274.5" font-family="Helvetica" font-size="10.00">pushMappingIndent</text>
</a>
</g>
</g>
<!-- L4YAML.Scanner.pushMappingIndent&#45;&gt;L4YAML.Scanner.ScannerState.emit -->
<g id="edge11" class="edge">
<title>L4YAML.Scanner.pushMappingIndent&#45;&gt;L4YAML.Scanner.ScannerState.emit</title>
<path fill="none" stroke="#4a90d9" stroke-width="2" d="M232.56,-258.84C228.79,-253.45 225.18,-247.26 223,-241 220.87,-234.87 219.82,-227.97 219.37,-221.48"/>
<polygon fill="#4a90d9" stroke="#4a90d9" stroke-width="2" points="221.8,-221.03 219.09,-214.13 216.91,-221.22 221.8,-221.03"/>
<text text-anchor="middle" x="232.5" y="-234.6" font-family="Times-Roman" font-size="8.00">calls</text>
</g>
<!-- L4YAML.Scanner.pushMappingIndent&#45;&gt;L4YAML.Scanner.ScannerState.tokens -->
<g id="edge5" class="edge">
<title>L4YAML.Scanner.pushMappingIndent&#45;&gt;L4YAML.Scanner.ScannerState.tokens</title>
<path fill="none" stroke="#4a90d9" stroke-width="2" d="M200.73,-258.87C179.97,-248.88 157.04,-234.19 143,-214 127.9,-192.27 124.42,-161.52 124.06,-140.29"/>
<polygon fill="#4a90d9" stroke="#4a90d9" stroke-width="2" points="126.51,-140.2 124.05,-133.2 121.61,-140.21 126.51,-140.2"/>
<text text-anchor="middle" x="152.5" y="-194.1" font-family="Times-Roman" font-size="8.00">calls</text>
</g>
<!-- L4YAML.Scanner.scanKey -->
<g id="node7" class="node">
<title>L4YAML.Scanner.scanKey</title>
<g id="a_node7"><a xlink:href="../../../api/L4YAML/Scanner/SimpleKey.html#L4YAML.Scanner.scanKey" xlink:title="scanKey" target="_blank">
<polygon fill="#dce9f7" stroke="#4a90d9" points="333,-376 279,-376 279,-340 333,-340 333,-376"/>
<text text-anchor="middle" x="306" y="-355.5" font-family="Helvetica" font-size="10.00">scanKey</text>
</a>
</g>
</g>
<!-- L4YAML.Scanner.scanKey&#45;&gt;L4YAML.Scanner.pushMappingIndent -->
<g id="edge2" class="edge">
<title>L4YAML.Scanner.scanKey&#45;&gt;L4YAML.Scanner.pushMappingIndent</title>
<path fill="none" stroke="#4a90d9" stroke-width="2" d="M293.2,-339.86C284.69,-328.47 273.43,-313.39 264.15,-300.96"/>
<polygon fill="#4a90d9" stroke="#4a90d9" stroke-width="2" points="265.93,-299.25 259.78,-295.11 262,-302.18 265.93,-299.25"/>
<text text-anchor="middle" x="287.5" y="-315.6" font-family="Times-Roman" font-size="8.00">calls</text>
</g>
<!-- L4YAML.Proofs.ScannerProofs.emit_tokens_size -->
<g id="node8" class="node">
<title>L4YAML.Proofs.ScannerProofs.emit_tokens_size</title>
<g id="a_node8"><a xlink:href="../../../api/L4YAML/Proofs/Scanner/ScannerProofs.html#L4YAML.Proofs.ScannerProofs.emit_tokens_size" xlink:title="ScannerProofs.emit_tokens_size" target="_blank">
<ellipse fill="#d4edda" stroke="#28a745" cx="1471" cy="-196" rx="93.69" ry="18"/>
<text text-anchor="middle" x="1471" y="-193.5" font-family="Helvetica" font-size="10.00">ScannerProofs.emit_tokens_size</text>
</a>
</g>
</g>
<!-- L4YAML.Proofs.ScannerProofs.emit_tokens_size&#45;&gt;L4YAML.Positioned -->
<g id="edge29" class="edge">
<title>L4YAML.Proofs.ScannerProofs.emit_tokens_size&#45;&gt;L4YAML.Positioned</title>
<path fill="none" stroke="#6f42c1" stroke-width="2" stroke-dasharray="5,2" d="M1406.7,-182.86C1394.24,-180.91 1381.24,-179.15 1369,-178 1281.14,-169.73 660.87,-180.33 575,-160 565.91,-157.85 565.02,-153.45 556,-151 468.6,-127.24 441.14,-153.87 353,-133 351.29,-132.6 349.56,-132.14 347.82,-131.63"/>
<polygon fill="#6f42c1" stroke="#6f42c1" stroke-width="2" points="348.55,-129.29 341.13,-129.51 347.06,-133.96 348.55,-129.29"/>
<text text-anchor="middle" x="587.5" y="-153.6" font-family="Times-Roman" font-size="8.00" fill="#6f42c1">about</text>
</g>
<!-- L4YAML.Proofs.ScannerProofs.emit_tokens_size&#45;&gt;L4YAML.Scanner.ScannerState -->
<g id="edge18" class="edge">
<title>L4YAML.Proofs.ScannerProofs.emit_tokens_size&#45;&gt;L4YAML.Scanner.ScannerState</title>
<path fill="none" stroke="#6f42c1" stroke-width="2" stroke-dasharray="5,2" d="M1423.52,-180.43C1345.68,-157.15 1185.69,-111.88 1047,-89 784.79,-45.74 464.91,-37.13 348.28,-35.42"/>
<polygon fill="#6f42c1" stroke="#6f42c1" stroke-width="2" points="348.26,-32.97 341.23,-35.33 348.19,-37.87 348.26,-32.97"/>
<text text-anchor="middle" x="1260.5" y="-113.1" font-family="Times-Roman" font-size="8.00" fill="#6f42c1">about</text>
</g>
<!-- L4YAML.Proofs.ScannerCorrectness.pushMappingIndent_tokens_monotonic -->
<g id="node9" class="node">
<title>L4YAML.Proofs.ScannerCorrectness.pushMappingIndent_tokens_monotonic</title>
<g id="a_node9"><a xlink:href="../../../api/L4YAML/Proofs/Scanner/ScannerCorrectness.html#L4YAML.Proofs.ScannerCorrectness.pushMappingIndent_tokens_monotonic" xlink:title="ScannerCorrectness.pushMappingIndent_tokens_monotonic" target="_blank">
<ellipse fill="#d4edda" stroke="#28a745" cx="529" cy="-196" rx="163.8" ry="18"/>
<text text-anchor="middle" x="529" y="-193.5" font-family="Helvetica" font-size="10.00">ScannerCorrectness.pushMappingIndent_tokens_monotonic</text>
</a>
</g>
</g>
<!-- L4YAML.Proofs.ScannerCorrectness.pushMappingIndent_tokens_monotonic&#45;&gt;L4YAML.Scanner.ScannerState.tokens -->
<g id="edge20" class="edge">
<title>L4YAML.Proofs.ScannerCorrectness.pushMappingIndent_tokens_monotonic&#45;&gt;L4YAML.Scanner.ScannerState.tokens</title>
<path fill="none" stroke="#6f42c1" stroke-width="2" stroke-dasharray="5,2" d="M434.44,-181.24C403.71,-175.8 369.64,-168.73 339,-160 328.44,-156.99 326.62,-153.78 316,-151 260.43,-136.43 244.28,-144.51 188,-133 187.13,-132.82 186.25,-132.64 185.36,-132.45"/>
<polygon fill="#6f42c1" stroke="#6f42c1" stroke-width="2" points="185.87,-130.05 178.51,-130.92 184.81,-134.84 185.87,-130.05"/>
<text text-anchor="middle" x="351.5" y="-153.6" font-family="Times-Roman" font-size="8.00" fill="#6f42c1">about</text>
</g>
<!-- L4YAML.Proofs.ScannerCorrectness.pushMappingIndent_tokens_monotonic._proof_1_1 -->
<g id="node13" class="node">
<title>L4YAML.Proofs.ScannerCorrectness.pushMappingIndent_tokens_monotonic._proof_1_1</title>
<g id="a_node13"><a xlink:href="../../../api/L4YAML/Proofs/Scanner/ScannerCorrectness.html#L4YAML.Proofs.ScannerCorrectness.pushMappingIndent_tokens_monotonic._proof_1_1" xlink:title="ScannerCorrectness.pushMappingIndent_tokens_monotonic._proof_1_1" target="_blank">
<ellipse fill="#d4edda" stroke="#28a745" cx="595" cy="-115" rx="193.84" ry="18"/>
<text text-anchor="middle" x="595" y="-112.5" font-family="Helvetica" font-size="10.00">ScannerCorrectness.pushMappingIndent_tokens_monotonic._proof_1_1</text>
</a>
</g>
</g>
<!-- L4YAML.Proofs.ScannerCorrectness.pushMappingIndent_tokens_monotonic&#45;&gt;L4YAML.Proofs.ScannerCorrectness.pushMappingIndent_tokens_monotonic._proof_1_1 -->
<g id="edge21" class="edge">
<title>L4YAML.Proofs.ScannerCorrectness.pushMappingIndent_tokens_monotonic&#45;&gt;L4YAML.Proofs.ScannerCorrectness.pushMappingIndent_tokens_monotonic._proof_1_1</title>
<path fill="none" stroke="#28a745" stroke-width="2" d="M583.2,-179C591.45,-174.2 598.91,-168 604,-160 607.69,-154.2 607.77,-147.18 606.3,-140.47"/>
<polygon fill="#28a745" stroke="#28a745" stroke-width="2" points="608.53,-139.38 604.18,-133.38 603.83,-140.79 608.53,-139.38"/>
<text text-anchor="middle" x="617" y="-153.6" font-family="Times-Roman" font-size="8.00">uses</text>
</g>
<!-- L4YAML.Proofs.ScannerCorrectness.emit_preserves_tokens_at._proof_1 -->
<g id="node10" class="node">
<title>L4YAML.Proofs.ScannerCorrectness.emit_preserves_tokens_at._proof_1</title>
<g id="a_node10"><a xlink:href="../../../api/L4YAML/Proofs/Scanner/ScannerCorrectness.html#L4YAML.Proofs.ScannerCorrectness.emit_preserves_tokens_at._proof_1" xlink:title="ScannerCorrectness.emit_preserves_tokens_at._proof_1" target="_blank">
<ellipse fill="#d4edda" stroke="#28a745" cx="1205" cy="-196" rx="154.64" ry="18"/>
<text text-anchor="middle" x="1205" y="-193.5" font-family="Helvetica" font-size="10.00">ScannerCorrectness.emit_preserves_tokens_at._proof_1</text>
</a>
</g>
</g>
<!-- L4YAML.Proofs.ScannerCorrectness.emit_preserves_tokens_at._proof_1&#45;&gt;L4YAML.YamlToken -->
<g id="edge15" class="edge">
<title>L4YAML.Proofs.ScannerCorrectness.emit_preserves_tokens_at._proof_1&#45;&gt;L4YAML.YamlToken</title>
<path fill="none" stroke="#6f42c1" stroke-width="2" stroke-dasharray="5,2" d="M1098.79,-182.87C1079.58,-181 1059.71,-179.27 1041,-178 916.33,-169.55 600.45,-189.36 479,-160 469.92,-157.8 469.01,-153.48 460,-151 378.21,-128.5 352.32,-153.47 270,-133 269.38,-132.85 268.75,-132.68 268.13,-132.51"/>
<polygon fill="#6f42c1" stroke="#6f42c1" stroke-width="2" points="268.79,-130.15 261.38,-130.45 267.35,-134.84 268.79,-130.15"/>
<text text-anchor="middle" x="491.5" y="-153.6" font-family="Times-Roman" font-size="8.00" fill="#6f42c1">about</text>
</g>
<!-- L4YAML.Proofs.ScannerCorrectness.emit_preserves_tokens_at._proof_1&#45;&gt;L4YAML.Scanner.ScannerState -->
<g id="edge28" class="edge">
<title>L4YAML.Proofs.ScannerCorrectness.emit_preserves_tokens_at._proof_1&#45;&gt;L4YAML.Scanner.ScannerState</title>
<path fill="none" stroke="#6f42c1" stroke-width="2" stroke-dasharray="5,2" d="M1158.97,-178.8C1094.65,-156.55 973.95,-116.2 869,-89 679.99,-40.02 445.16,-34.49 348.15,-34.51"/>
<polygon fill="#6f42c1" stroke="#6f42c1" stroke-width="2" points="348.13,-32.06 341.13,-34.52 348.14,-36.96 348.13,-32.06"/>
<text text-anchor="middle" x="1030.5" y="-113.1" font-family="Times-Roman" font-size="8.00" fill="#6f42c1">about</text>
</g>
<!-- L4YAML.Proofs.ScannerCorrectness.ScanHelpers.pushMappingIndent_preserves_prefix -->
<g id="node11" class="node">
<title>L4YAML.Proofs.ScannerCorrectness.ScanHelpers.pushMappingIndent_preserves_prefix</title>
<g id="a_node11"><a xlink:href="../../../api/L4YAML/Proofs/Scanner/ScannerCorrectness.html#L4YAML.Proofs.ScannerCorrectness.ScanHelpers.pushMappingIndent_preserves_prefix" xlink:title="ScannerCorrectness.ScanHelpers.pushMappingIndent_preserves_prefix" target="_blank">
<ellipse fill="#d4edda" stroke="#28a745" cx="560" cy="-358" rx="194.69" ry="18"/>
<text text-anchor="middle" x="560" y="-355.5" font-family="Helvetica" font-size="10.00">ScannerCorrectness.ScanHelpers.pushMappingIndent_preserves_prefix</text>
</a>
</g>
</g>
<!-- L4YAML.Proofs.ScannerCorrectness.ScanHelpers.pushMappingIndent_preserves_prefix&#45;&gt;L4YAML.Scanner.pushMappingIndent -->
<g id="edge4" class="edge">
<title>L4YAML.Proofs.ScannerCorrectness.ScanHelpers.pushMappingIndent_preserves_prefix&#45;&gt;L4YAML.Scanner.pushMappingIndent</title>
<path fill="none" stroke="#6f42c1" stroke-width="2" stroke-dasharray="5,2" d="M496.28,-340.92C440.06,-326.73 358.83,-306.23 304.54,-292.52"/>
<polygon fill="#6f42c1" stroke="#6f42c1" stroke-width="2" points="305.12,-290.14 297.73,-290.8 303.92,-294.89 305.12,-290.14"/>
<text text-anchor="middle" x="424.5" y="-315.6" font-family="Times-Roman" font-size="8.00" fill="#6f42c1">about</text>
</g>
<!-- L4YAML.Proofs.ScannerCorrectness.ScanHelpers.pushMappingIndent_preserves_prefix&#45;&gt;L4YAML.Proofs.ScannerCorrectness.pushMappingIndent_tokens_monotonic -->
<g id="edge19" class="edge">
<title>L4YAML.Proofs.ScannerCorrectness.ScanHelpers.pushMappingIndent_preserves_prefix&#45;&gt;L4YAML.Proofs.ScannerCorrectness.pushMappingIndent_tokens_monotonic</title>
<path fill="none" stroke="#28a745" stroke-width="2" d="M556.68,-339.88C551.14,-311.25 539.96,-253.59 533.64,-220.95"/>
<polygon fill="#28a745" stroke="#28a745" stroke-width="2" points="536.03,-220.41 532.29,-214 531.22,-221.34 536.03,-220.41"/>
<text text-anchor="middle" x="557" y="-275.1" font-family="Times-Roman" font-size="8.00">uses</text>
</g>
<!-- L4YAML.Proofs.ScannerCorrectness.emit_preserves_tokens_at -->
<g id="node12" class="node">
<title>L4YAML.Proofs.ScannerCorrectness.emit_preserves_tokens_at</title>
<g id="a_node12"><a xlink:href="../../../api/L4YAML/Proofs/Scanner/ScannerCorrectness.html#L4YAML.Proofs.ScannerCorrectness.emit_preserves_tokens_at" xlink:title="ScannerCorrectness.emit_preserves_tokens_at" target="_blank">
<ellipse fill="#d4edda" stroke="#28a745" cx="787" cy="-277" rx="131.04" ry="18"/>
<text text-anchor="middle" x="787" y="-274.5" font-family="Helvetica" font-size="10.00">ScannerCorrectness.emit_preserves_tokens_at</text>
</a>
</g>
</g>
<!-- L4YAML.Proofs.ScannerCorrectness.ScanHelpers.pushMappingIndent_preserves_prefix&#45;&gt;L4YAML.Proofs.ScannerCorrectness.emit_preserves_tokens_at -->
<g id="edge6" class="edge">
<title>L4YAML.Proofs.ScannerCorrectness.ScanHelpers.pushMappingIndent_preserves_prefix&#45;&gt;L4YAML.Proofs.ScannerCorrectness.emit_preserves_tokens_at</title>
<path fill="none" stroke="#28a745" stroke-width="2" d="M607.31,-340.54C644.37,-327.64 695.91,-309.7 734.29,-296.34"/>
<polygon fill="#28a745" stroke="#28a745" stroke-width="2" points="735.49,-298.52 741.3,-293.9 733.88,-293.89 735.49,-298.52"/>
<text text-anchor="middle" x="690" y="-315.6" font-family="Times-Roman" font-size="8.00">uses</text>
</g>
<!-- L4YAML.Proofs.ScannerCorrectness.emit_preserves_tokens_at&#45;&gt;L4YAML.Scanner.ScannerState.emit -->
<g id="edge12" class="edge">
<title>L4YAML.Proofs.ScannerCorrectness.emit_preserves_tokens_at&#45;&gt;L4YAML.Scanner.ScannerState.emit</title>
<path fill="none" stroke="#6f42c1" stroke-width="2" stroke-dasharray="5,2" d="M675.11,-267.51C637.29,-264.7 594.82,-261.63 556,-259 491.58,-254.63 325.15,-266.89 266,-241 255.31,-236.32 245.61,-228.01 237.9,-219.86"/>
<polygon fill="#6f42c1" stroke="#6f42c1" stroke-width="2" points="239.4,-217.87 232.9,-214.3 235.75,-221.14 239.4,-217.87"/>
<text text-anchor="middle" x="278.5" y="-234.6" font-family="Times-Roman" font-size="8.00" fill="#6f42c1">about</text>
</g>
<!-- L4YAML.Proofs.ScannerCorrectness.emit_preserves_tokens_at&#45;&gt;L4YAML.Scanner.ScannerState.tokens -->
<g id="edge7" class="edge">
<title>L4YAML.Proofs.ScannerCorrectness.emit_preserves_tokens_at&#45;&gt;L4YAML.Scanner.ScannerState.tokens</title>
<path fill="none" stroke="#6f42c1" stroke-width="2" stroke-dasharray="5,2" d="M681.31,-266.29C555.89,-254.05 360.02,-232.38 331,-214 302.78,-196.13 317.87,-169.43 290,-151 251.6,-125.61 232.93,-143.01 188,-133 187.13,-132.81 186.25,-132.61 185.37,-132.41"/>
<polygon fill="#6f42c1" stroke="#6f42c1" stroke-width="2" points="185.91,-130.02 178.54,-130.79 184.79,-134.79 185.91,-130.02"/>
<text text-anchor="middle" x="343.5" y="-194.1" font-family="Times-Roman" font-size="8.00" fill="#6f42c1">about</text>
</g>
<!-- L4YAML.Proofs.ScannerCorrectness.emit_preserves_tokens_at&#45;&gt;L4YAML.Proofs.ScannerProofs.emit_tokens_size -->
<g id="edge17" class="edge">
<title>L4YAML.Proofs.ScannerCorrectness.emit_preserves_tokens_at&#45;&gt;L4YAML.Proofs.ScannerProofs.emit_tokens_size</title>
<path fill="none" stroke="#28a745" stroke-width="2" d="M893.96,-266.51C1010.88,-255.7 1203.63,-236.57 1369,-214 1378.23,-212.74 1387.91,-211.29 1397.48,-209.78"/>
<polygon fill="#28a745" stroke="#28a745" stroke-width="2" points="1397.9,-212.2 1404.42,-208.68 1397.12,-207.36 1397.9,-212.2"/>
<text text-anchor="middle" x="1235" y="-234.6" font-family="Times-Roman" font-size="8.00">uses</text>
</g>
<!-- L4YAML.Proofs.ScannerCorrectness.emit_preserves_tokens_at&#45;&gt;L4YAML.Proofs.ScannerCorrectness.emit_preserves_tokens_at._proof_1 -->
<g id="edge14" class="edge">
<title>L4YAML.Proofs.ScannerCorrectness.emit_preserves_tokens_at&#45;&gt;L4YAML.Proofs.ScannerCorrectness.emit_preserves_tokens_at._proof_1</title>
<path fill="none" stroke="#28a745" stroke-width="2" d="M860.77,-262.06C933.42,-248.33 1044.29,-227.37 1120.46,-212.98"/>
<polygon fill="#28a745" stroke="#28a745" stroke-width="2" points="1121.3,-215.31 1127.72,-211.6 1120.39,-210.5 1121.3,-215.31"/>
<text text-anchor="middle" x="1018" y="-234.6" font-family="Times-Roman" font-size="8.00">uses</text>
</g>
<!-- L4YAML.Proofs.ScannerCorrectness.emit_preserves_tokens_at._proof_1_1 -->
<g id="node15" class="node">
<title>L4YAML.Proofs.ScannerCorrectness.emit_preserves_tokens_at._proof_1_1</title>
<g id="a_node15"><a xlink:href="../../../api/L4YAML/Proofs/Scanner/ScannerCorrectness.html#L4YAML.Proofs.ScannerCorrectness.emit_preserves_tokens_at._proof_1_1" xlink:title="ScannerCorrectness.emit_preserves_tokens_at._proof_1_1" target="_blank">
<ellipse fill="#d4edda" stroke="#28a745" cx="871" cy="-196" rx="160.91" ry="18"/>
<text text-anchor="middle" x="871" y="-193.5" font-family="Helvetica" font-size="10.00">ScannerCorrectness.emit_preserves_tokens_at._proof_1_1</text>
</a>
</g>
</g>
<!-- L4YAML.Proofs.ScannerCorrectness.emit_preserves_tokens_at&#45;&gt;L4YAML.Proofs.ScannerCorrectness.emit_preserves_tokens_at._proof_1_1 -->
<g id="edge9" class="edge">
<title>L4YAML.Proofs.ScannerCorrectness.emit_preserves_tokens_at&#45;&gt;L4YAML.Proofs.ScannerCorrectness.emit_preserves_tokens_at._proof_1_1</title>
<path fill="none" stroke="#28a745" stroke-width="2" d="M805.23,-258.86C817.67,-247.16 834.25,-231.56 847.66,-218.95"/>
<polygon fill="#28a745" stroke="#28a745" stroke-width="2" points="849.39,-220.69 852.81,-214.11 846.03,-217.12 849.39,-220.69"/>
<text text-anchor="middle" x="841" y="-234.6" font-family="Times-Roman" font-size="8.00">uses</text>
</g>
<!-- L4YAML.Proofs.ScannerCorrectness.pushMappingIndent_tokens_monotonic._proof_1_1&#45;&gt;L4YAML.Scanner.ScannerState -->
<g id="edge22" class="edge">
<title>L4YAML.Proofs.ScannerCorrectness.pushMappingIndent_tokens_monotonic._proof_1_1&#45;&gt;L4YAML.Scanner.ScannerState</title>
<path fill="none" stroke="#6f42c1" stroke-width="2" stroke-dasharray="5,2" d="M535.2,-97.82C479.75,-82.82 398.44,-60.82 348.21,-47.23"/>
<polygon fill="#6f42c1" stroke="#6f42c1" stroke-width="2" points="348.73,-44.84 341.34,-45.37 347.46,-49.57 348.73,-44.84"/>
<text text-anchor="middle" x="469.5" y="-72.6" font-family="Times-Roman" font-size="8.00" fill="#6f42c1">about</text>
</g>
<!-- L4YAML.Proofs.ScannerCorrectness.ScanHelpers.scanKey_preserves_prefix -->
<g id="node14" class="node">
<title>L4YAML.Proofs.ScannerCorrectness.ScanHelpers.scanKey_preserves_prefix</title>
<g id="a_node14"><a xlink:href="../../../api/L4YAML/Proofs/Scanner/ScannerCorrectness.html#L4YAML.Proofs.ScannerCorrectness.ScanHelpers.scanKey_preserves_prefix" xlink:title="ScannerCorrectness.ScanHelpers.scanKey_preserves_prefix" target="_blank">
<polygon fill="#fff3cd" stroke="#d4a017" points="735.91,-455.54 735.91,-470.46 629.94,-481 480.06,-481 374.09,-470.46 374.09,-455.54 480.06,-445 629.94,-445 735.91,-455.54"/>
<polygon fill="none" stroke="#d4a017" points="739.91,-451.92 739.91,-474.08 630.13,-485 479.87,-485 370.09,-474.08 370.09,-451.92 479.87,-441 630.13,-441 739.91,-451.92"/>
<text text-anchor="middle" x="555" y="-460.5" font-family="Helvetica" font-size="10.00">ScannerCorrectness.ScanHelpers.scanKey_preserves_prefix</text>
</a>
</g>
</g>
<!-- L4YAML.Proofs.ScannerCorrectness.ScanHelpers.scanKey_preserves_prefix&#45;&gt;L4YAML.Scanner.scanKey -->
<g id="edge1" class="edge">
<title>L4YAML.Proofs.ScannerCorrectness.ScanHelpers.scanKey_preserves_prefix&#45;&gt;L4YAML.Scanner.scanKey</title>
<path fill="none" stroke="#6f42c1" stroke-width="2" stroke-dasharray="5,2" d="M450.47,-443.88C417.82,-435.42 382.63,-423.28 353,-406 342.27,-399.74 332.25,-390.44 324.24,-381.75"/>
<polygon fill="#6f42c1" stroke="#6f42c1" stroke-width="2" points="326.02,-380.06 319.53,-376.46 322.36,-383.31 326.02,-380.06"/>
<text text-anchor="middle" x="395.5" y="-416.6" font-family="Times-Roman" font-size="8.00" fill="#6f42c1">about</text>
</g>
<!-- L4YAML.Proofs.ScannerCorrectness.ScanHelpers.scanKey_preserves_prefix&#45;&gt;L4YAML.Proofs.ScannerCorrectness.ScanHelpers.pushMappingIndent_preserves_prefix -->
<g id="edge3" class="edge">
<title>L4YAML.Proofs.ScannerCorrectness.ScanHelpers.scanKey_preserves_prefix&#45;&gt;L4YAML.Proofs.ScannerCorrectness.ScanHelpers.pushMappingIndent_preserves_prefix</title>
<path fill="none" stroke="#28a745" stroke-width="2" d="M556.04,-440.66C556.85,-423.95 557.98,-400.71 558.82,-383.29"/>
<polygon fill="#28a745" stroke="#28a745" stroke-width="2" points="561.27,-383.33 559.16,-376.22 556.38,-383.09 561.27,-383.33"/>
<text text-anchor="middle" x="567" y="-416.6" font-family="Times-Roman" font-size="8.00">uses</text>
</g>
<!-- L4YAML.Proofs.ScannerCorrectness.emit_preserves_tokens_at._proof_1_1&#45;&gt;L4YAML.Positioned -->
<g id="edge25" class="edge">
<title>L4YAML.Proofs.ScannerCorrectness.emit_preserves_tokens_at._proof_1_1&#45;&gt;L4YAML.Positioned</title>
<path fill="none" stroke="#6f42c1" stroke-width="2" stroke-dasharray="5,2" d="M756.24,-183.37C658.65,-173.45 533.8,-160.68 531,-160 520.33,-157.41 518.65,-153.66 508,-151 440.71,-134.23 420.26,-149.89 353,-133 351.3,-132.57 349.57,-132.09 347.84,-131.58"/>
<polygon fill="#6f42c1" stroke="#6f42c1" stroke-width="2" points="348.57,-129.24 341.16,-129.41 347.06,-133.9 348.57,-129.24"/>
<text text-anchor="middle" x="543.5" y="-153.6" font-family="Times-Roman" font-size="8.00" fill="#6f42c1">about</text>
</g>
<!-- L4YAML.Proofs.ScannerCorrectness.emit_preserves_tokens_at._proof_1_1&#45;&gt;L4YAML.YamlToken -->
<g id="edge23" class="edge">
<title>L4YAML.Proofs.ScannerCorrectness.emit_preserves_tokens_at._proof_1_1&#45;&gt;L4YAML.YamlToken</title>
<path fill="none" stroke="#6f42c1" stroke-width="2" stroke-dasharray="5,2" d="M758.32,-183.14C739.53,-181.32 720.22,-179.53 702,-178 583.48,-168.05 551.07,-185.97 435,-160 424.29,-157.6 422.64,-153.71 412,-151 350.35,-135.29 331.48,-149.33 270,-133 269.38,-132.84 268.76,-132.66 268.13,-132.49"/>
<polygon fill="#6f42c1" stroke="#6f42c1" stroke-width="2" points="268.81,-130.13 261.4,-130.35 267.33,-134.8 268.81,-130.13"/>
<text text-anchor="middle" x="447.5" y="-153.6" font-family="Times-Roman" font-size="8.00" fill="#6f42c1">about</text>
</g>
<!-- L4YAML.Proofs.ScannerCorrectness.emit_preserves_tokens_at._proof_1_1&#45;&gt;L4YAML.Scanner.ScannerState -->
<g id="edge10" class="edge">
<title>L4YAML.Proofs.ScannerCorrectness.emit_preserves_tokens_at._proof_1_1&#45;&gt;L4YAML.Scanner.ScannerState</title>
<path fill="none" stroke="#6f42c1" stroke-width="2" stroke-dasharray="5,2" d="M864.65,-177.97C854.6,-153.65 832.53,-109.62 798,-89 722.72,-44.06 455.97,-36.43 348.43,-35.2"/>
<polygon fill="#6f42c1" stroke="#6f42c1" stroke-width="2" points="348.3,-32.75 341.28,-35.13 348.25,-37.65 348.3,-32.75"/>
<text text-anchor="middle" x="852.5" y="-113.1" font-family="Times-Roman" font-size="8.00" fill="#6f42c1">about</text>
</g>
<!-- L4YAML.Proofs.ScannerCorrectness.emit_preserves_tokens_at._proof_1_1&#45;&gt;L4YAML.Scanner.ScannerState.tokens -->
<g id="edge27" class="edge">
<title>L4YAML.Proofs.ScannerCorrectness.emit_preserves_tokens_at._proof_1_1&#45;&gt;L4YAML.Scanner.ScannerState.tokens</title>
<path fill="none" stroke="#6f42c1" stroke-width="2" stroke-dasharray="5,2" d="M759.25,-183.06C740.16,-181.22 720.52,-179.45 702,-178 631.22,-172.45 451.81,-177.52 383,-160 373.95,-157.69 373,-153.51 364,-151 288.26,-129.86 265.32,-147.29 188,-133 187.25,-132.86 186.49,-132.72 185.73,-132.57"/>
<polygon fill="#6f42c1" stroke="#6f42c1" stroke-width="2" points="186.18,-130.16 178.83,-131.14 185.18,-134.96 186.18,-130.16"/>
<text text-anchor="middle" x="395.5" y="-153.6" font-family="Times-Roman" font-size="8.00" fill="#6f42c1">about</text>
</g>
</g>
</svg>
