<?xml version="1.0" encoding="UTF-8" standalone="no"?>
<!DOCTYPE svg PUBLIC "-//W3C//DTD SVG 1.1//EN"
 "http://www.w3.org/Graphics/SVG/1.1/DTD/svg11.dtd">
<!-- Generated by graphviz version 2.44.0 (0)
 -->
<!-- Title: ScannerCorrectness.scanFlowSequenceEnd_adds_one_token Pages: 1 -->
<svg width="1077pt" height="504pt"
 viewBox="0.00 0.00 1077.44 504.00" xmlns="http://www.w3.org/2000/svg" xmlns:xlink="http://www.w3.org/1999/xlink">
<g id="graph0" class="graph" transform="scale(1 1) rotate(0) translate(4 500)">
<title>ScannerCorrectness.scanFlowSequenceEnd_adds_one_token</title>
<polygon fill="white" stroke="transparent" points="-4,4 -4,-500 1073.44,-500 1073.44,4 -4,4"/>
<text text-anchor="middle" x="534.72" y="-481.6" font-family="Helvetica Bold" font-size="13.00">ScannerCorrectness.scanFlowSequenceEnd_adds_one_token</text>
<text text-anchor="middle" x="534.72" y="-467.6" font-family="Helvetica Bold" font-size="13.00">(heuristic: used by 7 proofs)</text>
<text text-anchor="middle" x="534.72" y="-453.6" font-family="Helvetica Bold" font-size="13.00">(L4YAML.Proofs.Scanner.ScannerCorrectness)</text>
<g id="clust1" class="cluster">
<title>cluster_functions</title>
<polygon fill="none" stroke="#4a90d9" stroke-dasharray="5,2" points="568.73,-148 568.73,-438 1061.44,-438 1061.44,-148 568.73,-148"/>
<text text-anchor="middle" x="815.09" y="-423.6" font-family="Helvetica Bold" font-size="13.00" fill="#4a90d9">Functions</text>
</g>
<g id="clust2" class="cluster">
<title>cluster_key</title>
<polygon fill="none" stroke="#d4a017" stroke-dasharray="5,2" points="387.03,-58 387.03,-140 881.44,-140 881.44,-58 387.03,-58"/>
<text text-anchor="middle" x="634.23" y="-125.6" font-family="Helvetica Bold" font-size="13.00" fill="#d4a017">Key Theorem</text>
</g>
<g id="clust3" class="cluster">
<title>cluster_proofs</title>
<polygon fill="none" stroke="#28a745" stroke-dasharray="5,2" points="8,-251 8,-331 345.03,-331 345.03,-251 8,-251"/>
<text text-anchor="middle" x="176.51" y="-316.6" font-family="Helvetica Bold" font-size="13.00" fill="#28a745">Proof Dependencies</text>
</g>
<g id="clust4" class="cluster">
<title>cluster_stdlib</title>
<polygon fill="none" stroke="#e67e22" stroke-dasharray="5,2" points="117.89,-8 117.89,-190 235.14,-190 235.14,-8 117.89,-8"/>
<text text-anchor="middle" x="176.51" y="-175.6" font-family="Helvetica Bold" font-size="13.00" fill="#e67e22">Stdlib Lemmas</text>
</g>
<!-- L4YAML.Scanner.scanFlowSequenceEnd -->
<g id="node1" class="node">
<title>L4YAML.Scanner.scanFlowSequenceEnd</title>
<g id="a_node1"><a xlink:href="../../../api/L4YAML/Scanner/Scanner.html#L4YAML.Scanner.scanFlowSequenceEnd" xlink:title="scanFlowSequenceEnd\n(def)" target="_blank">
<polygon fill="#dce9f7" stroke="#4a90d9" points="1053.44,-192 934.44,-192 934.44,-156 1053.44,-156 1053.44,-192"/>
<text text-anchor="middle" x="993.94" y="-177" font-family="Helvetica" font-size="10.00">scanFlowSequenceEnd</text>
<text text-anchor="middle" x="993.94" y="-166" font-family="Helvetica" font-size="10.00">(def)</text>
</a>
</g>
</g>
<!-- L4YAML.Positioned -->
<g id="node2" class="node">
<title>L4YAML.Positioned</title>
<g id="a_node2"><a xlink:href="../../../api/L4YAML/Token/Token.html#L4YAML.Positioned" xlink:title="Positioned\n(inductive)" target="_blank">
<polygon fill="#dce9f7" stroke="#4a90d9" points="1024.94,-354 962.94,-354 962.94,-318 1024.94,-318 1024.94,-354"/>
<text text-anchor="middle" x="993.94" y="-339" font-family="Helvetica" font-size="10.00">Positioned</text>
<text text-anchor="middle" x="993.94" y="-328" font-family="Helvetica" font-size="10.00">(inductive)</text>
</a>
</g>
</g>
<!-- L4YAML.Scanner.ScannerState.advance -->
<g id="node3" class="node">
<title>L4YAML.Scanner.ScannerState.advance</title>
<g id="a_node3"><a xlink:href="../../../api/L4YAML/Scanner/State.html#L4YAML.Scanner.ScannerState.advance" xlink:title="ScannerState.advance\n(def)" target="_blank">
<polygon fill="#dce9f7" stroke="#4a90d9" points="691.73,-408 576.73,-408 576.73,-372 691.73,-372 691.73,-408"/>
<text text-anchor="middle" x="634.23" y="-393" font-family="Helvetica" font-size="10.00">ScannerState.advance</text>
<text text-anchor="middle" x="634.23" y="-382" font-family="Helvetica" font-size="10.00">(def)</text>
</a>
</g>
</g>
<!-- L4YAML.Scanner.ScannerState -->
<g id="node4" class="node">
<title>L4YAML.Scanner.ScannerState</title>
<g id="a_node4"><a xlink:href="../../../api/L4YAML/Scanner/State.html#L4YAML.Scanner.ScannerState" xlink:title="ScannerState\n(inductive)" target="_blank">
<polygon fill="#dce9f7" stroke="#4a90d9" points="1031.94,-408 955.94,-408 955.94,-372 1031.94,-372 1031.94,-408"/>
<text text-anchor="middle" x="993.94" y="-393" font-family="Helvetica" font-size="10.00">ScannerState</text>
<text text-anchor="middle" x="993.94" y="-382" font-family="Helvetica" font-size="10.00">(inductive)</text>
</a>
</g>
</g>
<!-- L4YAML.YamlToken -->
<g id="node5" class="node">
<title>L4YAML.YamlToken</title>
<g id="a_node5"><a xlink:href="../../../api/L4YAML/Token/Token.html#L4YAML.YamlToken" xlink:title="YamlToken\n(inductive)" target="_blank">
<polygon fill="#dce9f7" stroke="#4a90d9" points="1025.94,-300 961.94,-300 961.94,-264 1025.94,-264 1025.94,-300"/>
<text text-anchor="middle" x="993.94" y="-285" font-family="Helvetica" font-size="10.00">YamlToken</text>
<text text-anchor="middle" x="993.94" y="-274" font-family="Helvetica" font-size="10.00">(inductive)</text>
</a>
</g>
</g>
<!-- L4YAML.Scanner.ScannerState.tokens -->
<g id="node6" class="node">
<title>L4YAML.Scanner.ScannerState.tokens</title>
<g id="a_node6"><a xlink:href="../../../api/L4YAML/Scanner/State.html#L4YAML.Scanner.ScannerState.tokens" xlink:title="ScannerState.tokens\n(def)" target="_blank">
<polygon fill="#dce9f7" stroke="#4a90d9" points="1047.44,-246 940.44,-246 940.44,-210 1047.44,-210 1047.44,-246"/>
<text text-anchor="middle" x="993.94" y="-231" font-family="Helvetica" font-size="10.00">ScannerState.tokens</text>
<text text-anchor="middle" x="993.94" y="-220" font-family="Helvetica" font-size="10.00">(def)</text>
</a>
</g>
</g>
<!-- L4YAML.Proofs.ScannerCorrectness.scanFlowSequenceEnd_adds_one_token -->
<g id="node7" class="node">
<title>L4YAML.Proofs.ScannerCorrectness.scanFlowSequenceEnd_adds_one_token</title>
<g id="a_node7"><a xlink:href="../../../api/L4YAML/Proofs/Scanner/ScannerCorrectness.html#L4YAML.Proofs.ScannerCorrectness.scanFlowSequenceEnd_adds_one_token" xlink:title="ScannerCorrectness.scanFlowSequenceEnd_adds_one_token" target="_blank">
<polygon fill="#fff3cd" stroke="#d4a017" points="869.64,-80.54 869.64,-95.46 731.74,-106 536.72,-106 398.82,-95.46 398.82,-80.54 536.72,-70 731.74,-70 869.64,-80.54"/>
<polygon fill="none" stroke="#d4a017" points="873.65,-76.84 873.65,-99.16 731.9,-110 536.57,-110 394.82,-99.16 394.82,-76.84 536.57,-66 731.9,-66 873.65,-76.84"/>
<text text-anchor="middle" x="634.23" y="-84.9" font-family="Helvetica" font-size="12.00">ScannerCorrectness.scanFlowSequenceEnd_adds_one_token</text>
</a>
</g>
</g>
<!-- L4YAML.Proofs.ScannerCorrectness.scanFlowSequenceEnd_adds_one_token&#45;&gt;L4YAML.Scanner.scanFlowSequenceEnd -->
<g id="edge2" class="edge">
<title>L4YAML.Proofs.ScannerCorrectness.scanFlowSequenceEnd_adds_one_token&#45;&gt;L4YAML.Scanner.scanFlowSequenceEnd</title>
<path fill="none" stroke="#4a90d9" stroke-width="2" d="M873.76,-90.99C888.45,-94.67 902.8,-99.28 916.44,-105 939.5,-114.67 960.19,-134.36 974.22,-150.24"/>
<polygon fill="#4a90d9" stroke="#4a90d9" stroke-width="2" points="972.66,-152.19 979.08,-155.9 976.38,-148.99 972.66,-152.19"/>
<text text-anchor="middle" x="903.94" y="-107.6" font-family="Times-Roman" font-size="8.00" fill="#4a90d9">about</text>
</g>
<!-- L4YAML.Proofs.ScannerCorrectness.scanFlowSequenceEnd_adds_one_token&#45;&gt;L4YAML.Positioned -->
<g id="edge3" class="edge">
<title>L4YAML.Proofs.ScannerCorrectness.scanFlowSequenceEnd_adds_one_token&#45;&gt;L4YAML.Positioned</title>
<path fill="none" stroke="#4a90d9" stroke-width="2" d="M818.88,-103.42C842.47,-112.48 864.32,-125.5 881.44,-144 902.18,-166.42 882.03,-182.94 891.44,-212 898.85,-234.88 906.72,-238 916.44,-260 925.82,-281.22 918.71,-291.95 934.44,-309 940.37,-315.42 948.12,-320.44 956.04,-324.31"/>
<polygon fill="#4a90d9" stroke="#4a90d9" stroke-width="2" points="955.31,-326.67 962.69,-327.3 957.31,-322.2 955.31,-326.67"/>
<text text-anchor="middle" x="903.94" y="-262.6" font-family="Times-Roman" font-size="8.00" fill="#4a90d9">about</text>
</g>
<!-- L4YAML.Proofs.ScannerCorrectness.scanFlowSequenceEnd_adds_one_token&#45;&gt;L4YAML.Scanner.ScannerState -->
<g id="edge5" class="edge">
<title>L4YAML.Proofs.ScannerCorrectness.scanFlowSequenceEnd_adds_one_token&#45;&gt;L4YAML.Scanner.ScannerState</title>
<path fill="none" stroke="#4a90d9" stroke-width="2" d="M821.83,-103.15C844.55,-112.32 865.37,-125.44 881.44,-144 899.68,-165.07 884.36,-242.05 891.44,-269 898.15,-294.58 905.46,-298.94 916.44,-323 924.53,-340.73 920.72,-349.15 934.44,-363 938.74,-367.34 943.87,-371.06 949.27,-374.22"/>
<polygon fill="#4a90d9" stroke="#4a90d9" stroke-width="2" points="948.39,-376.53 955.72,-377.68 950.71,-372.21 948.39,-376.53"/>
<text text-anchor="middle" x="903.94" y="-325.6" font-family="Times-Roman" font-size="8.00" fill="#4a90d9">about</text>
</g>
<!-- L4YAML.Proofs.ScannerCorrectness.scanFlowSequenceEnd_adds_one_token&#45;&gt;L4YAML.YamlToken -->
<g id="edge4" class="edge">
<title>L4YAML.Proofs.ScannerCorrectness.scanFlowSequenceEnd_adds_one_token&#45;&gt;L4YAML.YamlToken</title>
<path fill="none" stroke="#4a90d9" stroke-width="2" d="M797,-105.12C826.99,-113.56 856.64,-125.93 881.44,-144 906.08,-161.95 903.61,-175.34 916.44,-203 926.73,-225.19 918.02,-236.87 934.44,-255 940.13,-261.28 947.58,-266.21 955.24,-270.04"/>
<polygon fill="#4a90d9" stroke="#4a90d9" stroke-width="2" points="954.31,-272.31 961.7,-273 956.36,-267.86 954.31,-272.31"/>
<text text-anchor="middle" x="903.94" y="-205.6" font-family="Times-Roman" font-size="8.00" fill="#4a90d9">about</text>
</g>
<!-- L4YAML.Proofs.ScannerCorrectness.scanFlowSequenceEnd_adds_one_token&#45;&gt;L4YAML.Scanner.ScannerState.tokens -->
<g id="edge1" class="edge">
<title>L4YAML.Proofs.ScannerCorrectness.scanFlowSequenceEnd_adds_one_token&#45;&gt;L4YAML.Scanner.ScannerState.tokens</title>
<path fill="none" stroke="#4a90d9" stroke-width="2" d="M842.22,-101.58C869.47,-110.71 895.25,-123.98 916.44,-143 936.52,-161.03 916.65,-180.7 934.44,-201 935.82,-202.58 937.32,-204.07 938.9,-205.48"/>
<polygon fill="#4a90d9" stroke="#4a90d9" stroke-width="2" points="937.56,-207.55 944.58,-209.96 940.6,-203.7 937.56,-207.55"/>
<text text-anchor="middle" x="903.94" y="-145.6" font-family="Times-Roman" font-size="8.00" fill="#4a90d9">about</text>
</g>
<!-- L4YAML.Proofs.ScannerCorrectness.advance_preserves_tokens -->
<g id="node8" class="node">
<title>L4YAML.Proofs.ScannerCorrectness.advance_preserves_tokens</title>
<g id="a_node8"><a xlink:href="../../../api/L4YAML/Proofs/Scanner/ScannerCorrectness.html#L4YAML.Proofs.ScannerCorrectness.advance_preserves_tokens" xlink:title="ScannerCorrectness.advance_preserves_tokens\n(Scanner.ScannerCorrectness)" target="_blank">
<ellipse fill="#d4edda" stroke="#28a745" cx="176.51" cy="-280" rx="160.53" ry="21.43"/>
<text text-anchor="middle" x="176.51" y="-283" font-family="Helvetica" font-size="10.00">ScannerCorrectness.advance_preserves_tokens</text>
<text text-anchor="middle" x="176.51" y="-272" font-family="Helvetica" font-size="10.00">(Scanner.ScannerCorrectness)</text>
</a>
</g>
</g>
<!-- L4YAML.Proofs.ScannerCorrectness.advance_preserves_tokens&#45;&gt;L4YAML.Positioned -->
<g id="edge12" class="edge">
<title>L4YAML.Proofs.ScannerCorrectness.advance_preserves_tokens&#45;&gt;L4YAML.Positioned</title>
<path fill="none" stroke="#6f42c1" stroke-width="2" stroke-dasharray="5,2" d="M331.72,-285.61C506.06,-292.35 778.94,-304.23 881.44,-316 907.12,-318.95 935.83,-324.14 957.69,-328.5"/>
<polygon fill="#6f42c1" stroke="#6f42c1" stroke-width="2" points="957.56,-330.26 962.8,-329.53 958.25,-326.83 957.56,-330.26"/>
<text text-anchor="middle" x="634.23" y="-318.4" font-family="Times-Roman" font-size="7.00" fill="#6f42c1">about</text>
</g>
<!-- L4YAML.Proofs.ScannerCorrectness.advance_preserves_tokens&#45;&gt;L4YAML.Scanner.ScannerState.advance -->
<g id="edge11" class="edge">
<title>L4YAML.Proofs.ScannerCorrectness.advance_preserves_tokens&#45;&gt;L4YAML.Scanner.ScannerState.advance</title>
<path fill="none" stroke="#6f42c1" stroke-width="2" stroke-dasharray="5,2" d="M214.32,-300.75C249.35,-319.49 304.14,-346.17 355.03,-360 427.72,-379.76 514.43,-386.59 571.5,-388.9"/>
<polygon fill="#6f42c1" stroke="#6f42c1" stroke-width="2" points="571.52,-390.65 576.58,-389.1 571.65,-387.16 571.52,-390.65"/>
<text text-anchor="middle" x="366.03" y="-367.4" font-family="Times-Roman" font-size="7.00" fill="#6f42c1">about</text>
</g>
<!-- L4YAML.Proofs.ScannerCorrectness.advance_preserves_tokens&#45;&gt;L4YAML.Scanner.ScannerState -->
<g id="edge14" class="edge">
<title>L4YAML.Proofs.ScannerCorrectness.advance_preserves_tokens&#45;&gt;L4YAML.Scanner.ScannerState</title>
<path fill="none" stroke="#6f42c1" stroke-width="2" stroke-dasharray="5,2" d="M253.19,-298.65C292.81,-307.71 342.28,-317.93 387.03,-324 605.2,-353.59 664.96,-314.85 881.44,-355 904.89,-359.35 930.32,-367.09 950.97,-374.18"/>
<polygon fill="#6f42c1" stroke="#6f42c1" stroke-width="2" points="950.54,-375.89 955.83,-375.87 951.69,-372.58 950.54,-375.89"/>
<text text-anchor="middle" x="634.23" y="-357.4" font-family="Times-Roman" font-size="7.00" fill="#6f42c1">about</text>
</g>
<!-- L4YAML.Proofs.ScannerCorrectness.advance_preserves_tokens&#45;&gt;L4YAML.YamlToken -->
<g id="edge13" class="edge">
<title>L4YAML.Proofs.ScannerCorrectness.advance_preserves_tokens&#45;&gt;L4YAML.YamlToken</title>
<path fill="none" stroke="#6f42c1" stroke-width="2" stroke-dasharray="5,2" d="M329.4,-273.52C348.79,-272.89 368.37,-272.36 387.03,-272 622.28,-267.51 681.64,-256.72 916.44,-272 929.65,-272.86 944.07,-274.55 956.79,-276.29"/>
<polygon fill="#6f42c1" stroke="#6f42c1" stroke-width="2" points="956.57,-278.03 961.76,-276.99 957.06,-274.56 956.57,-278.03"/>
<text text-anchor="middle" x="634.23" y="-274.4" font-family="Times-Roman" font-size="7.00" fill="#6f42c1">about</text>
</g>
<!-- L4YAML.Proofs.ScannerCorrectness.advance_preserves_tokens&#45;&gt;L4YAML.Scanner.ScannerState.tokens -->
<g id="edge10" class="edge">
<title>L4YAML.Proofs.ScannerCorrectness.advance_preserves_tokens&#45;&gt;L4YAML.Scanner.ScannerState.tokens</title>
<path fill="none" stroke="#6f42c1" stroke-width="2" stroke-dasharray="5,2" d="M285.3,-264.34C317.93,-259.94 353.9,-255.43 387.03,-252 610.62,-228.88 666.8,-223.23 891.44,-215 902.54,-214.59 905.37,-214.07 916.44,-215 922.52,-215.51 928.85,-216.25 935.14,-217.12"/>
<polygon fill="#6f42c1" stroke="#6f42c1" stroke-width="2" points="935.21,-218.9 940.41,-217.88 935.71,-215.43 935.21,-218.9"/>
<text text-anchor="middle" x="634.23" y="-254.4" font-family="Times-Roman" font-size="7.00" fill="#6f42c1">about</text>
</g>
<!-- L4YAML.Proofs.ScannerCorrectness.advance_preserves_tokens&#45;&gt;L4YAML.Proofs.ScannerCorrectness.scanFlowSequenceEnd_adds_one_token -->
<g id="edge6" class="edge">
<title>L4YAML.Proofs.ScannerCorrectness.advance_preserves_tokens&#45;&gt;L4YAML.Proofs.ScannerCorrectness.scanFlowSequenceEnd_adds_one_token</title>
<path fill="none" stroke="#28a745" d="M229.37,-259.79C264.17,-244.76 309.88,-222.03 345.03,-194 367.72,-175.9 362.25,-159.12 387.03,-144 413.9,-127.6 445.07,-116 476.02,-107.79"/>
<polygon fill="#28a745" stroke="#28a745" points="476.86,-110.1 483.03,-105.98 475.64,-105.35 476.86,-110.1"/>
</g>
<!-- eq_self -->
<g id="node9" class="node">
<title>eq_self</title>
<g id="a_node9"><a xlink:href="../../../api/Init/SimpLemmas.html#eq_self" xlink:title="eq_self" target="_blank">
<ellipse fill="#fdebd0" stroke="#e67e22" cx="176.51" cy="-142" rx="28.01" ry="18"/>
<text text-anchor="middle" x="176.51" y="-139.5" font-family="Helvetica" font-size="10.00">eq_self</text>
</a>
</g>
</g>
<!-- eq_self&#45;&gt;L4YAML.Proofs.ScannerCorrectness.scanFlowSequenceEnd_adds_one_token -->
<g id="edge7" class="edge">
<title>eq_self&#45;&gt;L4YAML.Proofs.ScannerCorrectness.scanFlowSequenceEnd_adds_one_token</title>
<path fill="none" stroke="#e67e22" stroke-width="2" d="M204.66,-138.78C257.1,-132.57 375.93,-118.49 475.2,-106.73"/>
<polygon fill="#e67e22" stroke="#e67e22" stroke-width="2" points="475.64,-109.14 482.31,-105.88 475.07,-104.27 475.64,-109.14"/>
</g>
<!-- of_eq_true -->
<g id="node10" class="node">
<title>of_eq_true</title>
<g id="a_node10"><a xlink:href="../../../api/Init/SimpLemmas.html#of_eq_true" xlink:title="of_eq_true" target="_blank">
<ellipse fill="#fdebd0" stroke="#e67e22" cx="176.51" cy="-88" rx="36.49" ry="18"/>
<text text-anchor="middle" x="176.51" y="-85.5" font-family="Helvetica" font-size="10.00">of_eq_true</text>
</a>
</g>
</g>
<!-- of_eq_true&#45;&gt;L4YAML.Proofs.ScannerCorrectness.scanFlowSequenceEnd_adds_one_token -->
<g id="edge8" class="edge">
<title>of_eq_true&#45;&gt;L4YAML.Proofs.ScannerCorrectness.scanFlowSequenceEnd_adds_one_token</title>
<path fill="none" stroke="#e67e22" stroke-width="2" d="M213.27,-88C252.53,-88 319.16,-88 387.93,-88"/>
<polygon fill="#e67e22" stroke="#e67e22" stroke-width="2" points="388.02,-90.45 395.02,-88 388.02,-85.55 388.02,-90.45"/>
</g>
<!-- Array.size_push -->
<g id="node11" class="node">
<title>Array.size_push</title>
<g id="a_node11"><a xlink:href="../../../api/Init/Data/Array/Basic.html#Array.size_push" xlink:title="Array.size_push" target="_blank">
<ellipse fill="#fdebd0" stroke="#e67e22" cx="176.51" cy="-34" rx="50.75" ry="18"/>
<text text-anchor="middle" x="176.51" y="-31.5" font-family="Helvetica" font-size="10.00">Array.size_push</text>
</a>
</g>
</g>
<!-- Array.size_push&#45;&gt;L4YAML.Proofs.ScannerCorrectness.scanFlowSequenceEnd_adds_one_token -->
<g id="edge9" class="edge">
<title>Array.size_push&#45;&gt;L4YAML.Proofs.ScannerCorrectness.scanFlowSequenceEnd_adds_one_token</title>
<path fill="none" stroke="#e67e22" stroke-width="2" d="M224.99,-39.63C283.87,-46.6 387.22,-58.85 475.19,-69.27"/>
<polygon fill="#e67e22" stroke="#e67e22" stroke-width="2" points="475.07,-71.73 482.31,-70.12 475.64,-66.86 475.07,-71.73"/>
</g>
</g>
</svg>
