<?xml version="1.0" encoding="UTF-8" standalone="no"?>
<!DOCTYPE svg PUBLIC "-//W3C//DTD SVG 1.1//EN"
 "http://www.w3.org/Graphics/SVG/1.1/DTD/svg11.dtd">
<!-- Generated by graphviz version 2.44.0 (0)
 -->
<!-- Title: chain_ScannerCorrectness.ScanHelpers.scanFlowEntry_preserves_prefix Pages: 1 -->
<svg width="1423pt" height="472pt"
 viewBox="0.00 0.00 1423.00 472.00" xmlns="http://www.w3.org/2000/svg" xmlns:xlink="http://www.w3.org/1999/xlink">
<g id="graph0" class="graph" transform="scale(1 1) rotate(0) translate(4 468)">
<title>chain_ScannerCorrectness.ScanHelpers.scanFlowEntry_preserves_prefix</title>
<polygon fill="white" stroke="transparent" points="-4,4 -4,-468 1419,-468 1419,4 -4,4"/>
<text text-anchor="middle" x="707.5" y="-449.6" font-family="Helvetica Bold" font-size="13.00">Functorial Chains: ScannerCorrectness.ScanHelpers.scanFlowEntry_preserves_prefix\n(heuristic: used by 5 proofs)</text>
<g id="clust1" class="cluster">
<title>cluster_fns</title>
<polygon fill="none" stroke="#4a90d9" stroke-dasharray="5,2" points="8,-8 8,-325 349,-325 349,-8 8,-8"/>
<text text-anchor="middle" x="178.5" y="-310.6" font-family="Helvetica Bold" font-size="13.00" fill="#4a90d9">Functions (Call Chain)</text>
</g>
<g id="clust2" class="cluster">
<title>cluster_thms</title>
<polygon fill="none" stroke="#28a745" stroke-dasharray="5,2" points="357,-89 357,-434 1407,-434 1407,-89 357,-89"/>
<text text-anchor="middle" x="882" y="-419.6" font-family="Helvetica Bold" font-size="13.00" fill="#28a745">Theorems (Proof Chain)</text>
</g>
<!-- L4YAML.Positioned -->
<g id="node1" class="node">
<title>L4YAML.Positioned</title>
<g id="a_node1"><a xlink:href="../../../api/L4YAML/Token/Token.html#L4YAML.Positioned" xlink:title="Positioned" target="_blank">
<polygon fill="#dce9f7" stroke="#4a90d9" points="259,-133 197,-133 197,-97 259,-97 259,-133"/>
<text text-anchor="middle" x="228" y="-112.5" font-family="Helvetica" font-size="10.00">Positioned</text>
</a>
</g>
</g>
<!-- L4YAML.Scanner.ScannerState.emit -->
<g id="node2" class="node">
<title>L4YAML.Scanner.ScannerState.emit</title>
<g id="a_node2"><a xlink:href="../../../api/L4YAML/Scanner/State.html#L4YAML.Scanner.ScannerState.emit" xlink:title="ScannerState.emit" target="_blank">
<polygon fill="#dce9f7" stroke="#4a90d9" points="277,-214 179,-214 179,-178 277,-178 277,-214"/>
<text text-anchor="middle" x="228" y="-193.5" font-family="Helvetica" font-size="10.00">ScannerState.emit</text>
</a>
</g>
</g>
<!-- L4YAML.Scanner.ScannerState.emit&#45;&gt;L4YAML.Positioned -->
<g id="edge5" class="edge">
<title>L4YAML.Scanner.ScannerState.emit&#45;&gt;L4YAML.Positioned</title>
<path fill="none" stroke="#4a90d9" stroke-width="2" d="M228,-177.86C228,-166.88 228,-152.48 228,-140.33"/>
<polygon fill="#4a90d9" stroke="#4a90d9" stroke-width="2" points="230.45,-140.11 228,-133.11 225.55,-140.11 230.45,-140.11"/>
<text text-anchor="middle" x="237.5" y="-153.6" font-family="Times-Roman" font-size="8.00">calls</text>
</g>
<!-- L4YAML.YamlToken -->
<g id="node3" class="node">
<title>L4YAML.YamlToken</title>
<g id="a_node3"><a xlink:href="../../../api/L4YAML/Token/Token.html#L4YAML.YamlToken" xlink:title="YamlToken" target="_blank">
<polygon fill="#dce9f7" stroke="#4a90d9" points="341,-133 277,-133 277,-97 341,-97 341,-133"/>
<text text-anchor="middle" x="309" y="-112.5" font-family="Helvetica" font-size="10.00">YamlToken</text>
</a>
</g>
</g>
<!-- L4YAML.Scanner.ScannerState.emit&#45;&gt;L4YAML.YamlToken -->
<g id="edge22" class="edge">
<title>L4YAML.Scanner.ScannerState.emit&#45;&gt;L4YAML.YamlToken</title>
<path fill="none" stroke="#4a90d9" stroke-width="2" d="M245.58,-177.86C257.46,-166.26 273.28,-150.84 286.15,-138.29"/>
<polygon fill="#4a90d9" stroke="#4a90d9" stroke-width="2" points="288.16,-139.75 291.46,-133.11 284.74,-136.24 288.16,-139.75"/>
<text text-anchor="middle" x="279.5" y="-153.6" font-family="Times-Roman" font-size="8.00">calls</text>
</g>
<!-- L4YAML.Scanner.ScannerState -->
<g id="node4" class="node">
<title>L4YAML.Scanner.ScannerState</title>
<g id="a_node4"><a xlink:href="../../../api/L4YAML/Scanner/State.html#L4YAML.Scanner.ScannerState" xlink:title="ScannerState" target="_blank">
<polygon fill="#dce9f7" stroke="#4a90d9" points="341,-52 265,-52 265,-16 341,-16 341,-52"/>
<text text-anchor="middle" x="303" y="-31.5" font-family="Helvetica" font-size="10.00">ScannerState</text>
</a>
</g>
</g>
<!-- L4YAML.Scanner.ScannerState.emit&#45;&gt;L4YAML.Scanner.ScannerState -->
<g id="edge8" class="edge">
<title>L4YAML.Scanner.ScannerState.emit&#45;&gt;L4YAML.Scanner.ScannerState</title>
<path fill="none" stroke="#4a90d9" stroke-width="2" d="M204.4,-177.76C191.27,-166.64 176.17,-150.94 169,-133 161.74,-114.84 158.06,-105.21 169,-89 188.68,-59.84 227.02,-46.43 257.67,-40.25"/>
<polygon fill="#4a90d9" stroke="#4a90d9" stroke-width="2" points="258.44,-42.6 264.87,-38.9 257.54,-37.78 258.44,-42.6"/>
<text text-anchor="middle" x="178.5" y="-113.1" font-family="Times-Roman" font-size="8.00">calls</text>
</g>
<!-- L4YAML.Scanner.ScannerState.tokens -->
<g id="node6" class="node">
<title>L4YAML.Scanner.ScannerState.tokens</title>
<g id="a_node6"><a xlink:href="../../../api/L4YAML/Scanner/State.html#L4YAML.Scanner.ScannerState.tokens" xlink:title="ScannerState.tokens" target="_blank">
<polygon fill="#dce9f7" stroke="#4a90d9" points="123.5,-133 16.5,-133 16.5,-97 123.5,-97 123.5,-133"/>
<text text-anchor="middle" x="70" y="-112.5" font-family="Helvetica" font-size="10.00">ScannerState.tokens</text>
</a>
</g>
</g>
<!-- L4YAML.Scanner.ScannerState.emit&#45;&gt;L4YAML.Scanner.ScannerState.tokens -->
<g id="edge25" class="edge">
<title>L4YAML.Scanner.ScannerState.emit&#45;&gt;L4YAML.Scanner.ScannerState.tokens</title>
<path fill="none" stroke="#4a90d9" stroke-width="2" d="M178.89,-178.64C164.76,-173.32 149.52,-166.97 136,-160 123.3,-153.45 110.04,-144.98 98.78,-137.23"/>
<polygon fill="#4a90d9" stroke="#4a90d9" stroke-width="2" points="99.88,-135.01 92.74,-133.01 97.07,-139.02 99.88,-135.01"/>
<text text-anchor="middle" x="145.5" y="-153.6" font-family="Times-Roman" font-size="8.00">calls</text>
</g>
<!-- L4YAML.Scanner.scanFlowEntry -->
<g id="node5" class="node">
<title>L4YAML.Scanner.scanFlowEntry</title>
<g id="a_node5"><a xlink:href="../../../api/L4YAML/Scanner/Scanner.html#L4YAML.Scanner.scanFlowEntry" xlink:title="scanFlowEntry" target="_blank">
<polygon fill="#dce9f7" stroke="#4a90d9" points="269.5,-295 186.5,-295 186.5,-259 269.5,-259 269.5,-295"/>
<text text-anchor="middle" x="228" y="-274.5" font-family="Helvetica" font-size="10.00">scanFlowEntry</text>
</a>
</g>
</g>
<!-- L4YAML.Scanner.scanFlowEntry&#45;&gt;L4YAML.Scanner.ScannerState.emit -->
<g id="edge2" class="edge">
<title>L4YAML.Scanner.scanFlowEntry&#45;&gt;L4YAML.Scanner.ScannerState.emit</title>
<path fill="none" stroke="#4a90d9" stroke-width="2" d="M228,-258.86C228,-247.88 228,-233.48 228,-221.33"/>
<polygon fill="#4a90d9" stroke="#4a90d9" stroke-width="2" points="230.45,-221.11 228,-214.11 225.55,-221.11 230.45,-221.11"/>
<text text-anchor="middle" x="237.5" y="-234.6" font-family="Times-Roman" font-size="8.00">calls</text>
</g>
<!-- L4YAML.Scanner.scanFlowEntry&#45;&gt;L4YAML.Scanner.ScannerState.tokens -->
<g id="edge10" class="edge">
<title>L4YAML.Scanner.scanFlowEntry&#45;&gt;L4YAML.Scanner.ScannerState.tokens</title>
<path fill="none" stroke="#4a90d9" stroke-width="2" d="M204.4,-258.97C188.61,-247.11 167.73,-230.52 151,-214 126.84,-190.15 102.47,-159.58 86.87,-138.98"/>
<polygon fill="#4a90d9" stroke="#4a90d9" stroke-width="2" points="88.67,-137.3 82.51,-133.18 84.76,-140.25 88.67,-137.3"/>
<text text-anchor="middle" x="160.5" y="-194.1" font-family="Times-Roman" font-size="8.00">calls</text>
</g>
<!-- L4YAML.Scanner.ScannerState.tokens&#45;&gt;L4YAML.Scanner.ScannerState -->
<g id="edge13" class="edge">
<title>L4YAML.Scanner.ScannerState.tokens&#45;&gt;L4YAML.Scanner.ScannerState</title>
<path fill="none" stroke="#4a90d9" stroke-width="2" d="M91.1,-96.9C103.5,-87.65 119.87,-76.77 136,-70 175.4,-53.47 223.42,-44.45 257.83,-39.73"/>
<polygon fill="#4a90d9" stroke="#4a90d9" stroke-width="2" points="258.34,-42.14 264.96,-38.79 257.7,-37.28 258.34,-42.14"/>
<text text-anchor="middle" x="145.5" y="-72.6" font-family="Times-Roman" font-size="8.00">calls</text>
</g>
<!-- L4YAML.Proofs.ScannerProofs.emit_tokens_size -->
<g id="node7" class="node">
<title>L4YAML.Proofs.ScannerProofs.emit_tokens_size</title>
<g id="a_node7"><a xlink:href="../../../api/L4YAML/Proofs/Scanner/ScannerProofs.html#L4YAML.Proofs.ScannerProofs.emit_tokens_size" xlink:title="ScannerProofs.emit_tokens_size" target="_blank">
<ellipse fill="#d4edda" stroke="#28a745" cx="459" cy="-115" rx="93.69" ry="18"/>
<text text-anchor="middle" x="459" y="-112.5" font-family="Helvetica" font-size="10.00">ScannerProofs.emit_tokens_size</text>
</a>
</g>
</g>
<!-- L4YAML.Proofs.ScannerProofs.emit_tokens_size&#45;&gt;L4YAML.Scanner.ScannerState -->
<g id="edge17" class="edge">
<title>L4YAML.Proofs.ScannerProofs.emit_tokens_size&#45;&gt;L4YAML.Scanner.ScannerState</title>
<path fill="none" stroke="#6f42c1" stroke-width="2" stroke-dasharray="5,2" d="M427.43,-98.01C403.14,-85.71 369.39,-68.62 343.18,-55.35"/>
<polygon fill="#6f42c1" stroke="#6f42c1" stroke-width="2" points="344.03,-53.03 336.68,-52.06 341.82,-57.4 344.03,-53.03"/>
<text text-anchor="middle" x="397.5" y="-72.6" font-family="Times-Roman" font-size="8.00" fill="#6f42c1">about</text>
</g>
<!-- L4YAML.Proofs.ScannerCorrectness.ScanHelpers.scanFlowEntry_adds_one_token._proof_1_3 -->
<g id="node8" class="node">
<title>L4YAML.Proofs.ScannerCorrectness.ScanHelpers.scanFlowEntry_adds_one_token._proof_1_3</title>
<g id="a_node8"><a xlink:href="../../../api/L4YAML/Proofs/Scanner/ScannerCorrectness.html#L4YAML.Proofs.ScannerCorrectness.ScanHelpers.scanFlowEntry_adds_one_token._proof_1_3" xlink:title="ScannerCorrectness.ScanHelpers.scanFlowEntry_adds_one_token._proof_1_3" target="_blank">
<ellipse fill="#d4edda" stroke="#28a745" cx="784" cy="-115" rx="213.19" ry="18"/>
<text text-anchor="middle" x="784" y="-112.5" font-family="Helvetica" font-size="10.00">ScannerCorrectness.ScanHelpers.scanFlowEntry_adds_one_token._proof_1_3</text>
</a>
</g>
</g>
<!-- L4YAML.Proofs.ScannerCorrectness.ScanHelpers.scanFlowEntry_adds_one_token._proof_1_3&#45;&gt;L4YAML.Scanner.ScannerState -->
<g id="edge15" class="edge">
<title>L4YAML.Proofs.ScannerCorrectness.ScanHelpers.scanFlowEntry_adds_one_token._proof_1_3&#45;&gt;L4YAML.Scanner.ScannerState</title>
<path fill="none" stroke="#6f42c1" stroke-width="2" stroke-dasharray="5,2" d="M691.26,-98.77C588.38,-81.87 426.61,-55.3 348.38,-42.45"/>
<polygon fill="#6f42c1" stroke="#6f42c1" stroke-width="2" points="348.37,-39.97 341.07,-41.25 347.58,-44.8 348.37,-39.97"/>
<text text-anchor="middle" x="569.5" y="-72.6" font-family="Times-Roman" font-size="8.00" fill="#6f42c1">about</text>
</g>
<!-- L4YAML.Proofs.ScannerCorrectness.emit_preserves_tokens_at._proof_1 -->
<g id="node9" class="node">
<title>L4YAML.Proofs.ScannerCorrectness.emit_preserves_tokens_at._proof_1</title>
<g id="a_node9"><a xlink:href="../../../api/L4YAML/Proofs/Scanner/ScannerCorrectness.html#L4YAML.Proofs.ScannerCorrectness.emit_preserves_tokens_at._proof_1" xlink:title="ScannerCorrectness.emit_preserves_tokens_at._proof_1" target="_blank">
<ellipse fill="#d4edda" stroke="#28a745" cx="860" cy="-196" rx="154.64" ry="18"/>
<text text-anchor="middle" x="860" y="-193.5" font-family="Helvetica" font-size="10.00">ScannerCorrectness.emit_preserves_tokens_at._proof_1</text>
</a>
</g>
</g>
<!-- L4YAML.Proofs.ScannerCorrectness.emit_preserves_tokens_at._proof_1&#45;&gt;L4YAML.Positioned -->
<g id="edge7" class="edge">
<title>L4YAML.Proofs.ScannerCorrectness.emit_preserves_tokens_at._proof_1&#45;&gt;L4YAML.Positioned</title>
<path fill="none" stroke="#6f42c1" stroke-width="2" stroke-dasharray="5,2" d="M750.21,-183.26C732.1,-181.43 713.53,-179.61 696,-178 596.1,-168.83 569.19,-180.57 471,-160 459.03,-157.49 456.94,-153.64 445,-151 367.79,-133.95 344.58,-152.69 268,-133 267.36,-132.84 266.72,-132.66 266.07,-132.48"/>
<polygon fill="#6f42c1" stroke="#6f42c1" stroke-width="2" points="266.55,-130.06 259.13,-130.28 265.06,-134.73 266.55,-130.06"/>
<text text-anchor="middle" x="483.5" y="-153.6" font-family="Times-Roman" font-size="8.00" fill="#6f42c1">about</text>
</g>
<!-- L4YAML.Proofs.ScannerCorrectness.emit_preserves_tokens_at._proof_1&#45;&gt;L4YAML.YamlToken -->
<g id="edge27" class="edge">
<title>L4YAML.Proofs.ScannerCorrectness.emit_preserves_tokens_at._proof_1&#45;&gt;L4YAML.YamlToken</title>
<path fill="none" stroke="#6f42c1" stroke-width="2" stroke-dasharray="5,2" d="M793.72,-179.62C749.33,-169.91 689.45,-157.92 636,-151 511.01,-134.82 476.1,-160.02 353,-133 351.44,-132.66 349.86,-132.27 348.28,-131.84"/>
<polygon fill="#6f42c1" stroke="#6f42c1" stroke-width="2" points="348.74,-129.42 341.34,-129.76 347.34,-134.12 348.74,-129.42"/>
<text text-anchor="middle" x="703.5" y="-153.6" font-family="Times-Roman" font-size="8.00" fill="#6f42c1">about</text>
</g>
<!-- L4YAML.Proofs.ScannerCorrectness.emit_preserves_tokens_at._proof_1&#45;&gt;L4YAML.Scanner.ScannerState -->
<g id="edge9" class="edge">
<title>L4YAML.Proofs.ScannerCorrectness.emit_preserves_tokens_at._proof_1&#45;&gt;L4YAML.Scanner.ScannerState</title>
<path fill="none" stroke="#6f42c1" stroke-width="2" stroke-dasharray="5,2" d="M969.79,-183.24C987.9,-181.41 1006.47,-179.6 1024,-178 1165.05,-165.15 1418.96,-199.21 1330,-89 1298.74,-50.27 542.6,-38.04 348.22,-35.53"/>
<polygon fill="#6f42c1" stroke="#6f42c1" stroke-width="2" points="348.03,-33.08 341,-35.44 347.97,-37.98 348.03,-33.08"/>
<text text-anchor="middle" x="1360.5" y="-113.1" font-family="Times-Roman" font-size="8.00" fill="#6f42c1">about</text>
</g>
<!-- L4YAML.Proofs.ScannerCorrectness.advance_preserves_tokens -->
<g id="node10" class="node">
<title>L4YAML.Proofs.ScannerCorrectness.advance_preserves_tokens</title>
<g id="a_node10"><a xlink:href="../../../api/L4YAML/Proofs/Scanner/ScannerCorrectness.html#L4YAML.Proofs.ScannerCorrectness.advance_preserves_tokens" xlink:title="ScannerCorrectness.advance_preserves_tokens" target="_blank">
<ellipse fill="#d4edda" stroke="#28a745" cx="1149" cy="-115" rx="133.75" ry="18"/>
<text text-anchor="middle" x="1149" y="-112.5" font-family="Helvetica" font-size="10.00">ScannerCorrectness.advance_preserves_tokens</text>
</a>
</g>
</g>
<!-- L4YAML.Proofs.ScannerCorrectness.advance_preserves_tokens&#45;&gt;L4YAML.Scanner.ScannerState -->
<g id="edge19" class="edge">
<title>L4YAML.Proofs.ScannerCorrectness.advance_preserves_tokens&#45;&gt;L4YAML.Scanner.ScannerState</title>
<path fill="none" stroke="#6f42c1" stroke-width="2" stroke-dasharray="5,2" d="M1076.09,-99.86C1053.67,-95.88 1028.88,-91.87 1006,-89 758.8,-57.97 460.31,-42.15 348.34,-36.96"/>
<polygon fill="#6f42c1" stroke="#6f42c1" stroke-width="2" points="348.34,-34.51 341.23,-36.64 348.11,-39.41 348.34,-34.51"/>
<text text-anchor="middle" x="922.5" y="-72.6" font-family="Times-Roman" font-size="8.00" fill="#6f42c1">about</text>
</g>
<!-- L4YAML.Proofs.ScannerCorrectness.emit_preserves_tokens_at -->
<g id="node11" class="node">
<title>L4YAML.Proofs.ScannerCorrectness.emit_preserves_tokens_at</title>
<g id="a_node11"><a xlink:href="../../../api/L4YAML/Proofs/Scanner/ScannerCorrectness.html#L4YAML.Proofs.ScannerCorrectness.emit_preserves_tokens_at" xlink:title="ScannerCorrectness.emit_preserves_tokens_at" target="_blank">
<ellipse fill="#d4edda" stroke="#28a745" cx="557" cy="-277" rx="131.04" ry="18"/>
<text text-anchor="middle" x="557" y="-274.5" font-family="Helvetica" font-size="10.00">ScannerCorrectness.emit_preserves_tokens_at</text>
</a>
</g>
</g>
<!-- L4YAML.Proofs.ScannerCorrectness.emit_preserves_tokens_at&#45;&gt;L4YAML.Scanner.ScannerState.emit -->
<g id="edge4" class="edge">
<title>L4YAML.Proofs.ScannerCorrectness.emit_preserves_tokens_at&#45;&gt;L4YAML.Scanner.ScannerState.emit</title>
<path fill="none" stroke="#6f42c1" stroke-width="2" stroke-dasharray="5,2" d="M494.73,-261.05C434.05,-246.48 342.61,-224.52 284.11,-210.47"/>
<polygon fill="#6f42c1" stroke="#6f42c1" stroke-width="2" points="284.53,-208.05 277.15,-208.8 283.38,-212.82 284.53,-208.05"/>
<text text-anchor="middle" x="414.5" y="-234.6" font-family="Times-Roman" font-size="8.00" fill="#6f42c1">about</text>
</g>
<!-- L4YAML.Proofs.ScannerCorrectness.emit_preserves_tokens_at&#45;&gt;L4YAML.Proofs.ScannerCorrectness.emit_preserves_tokens_at._proof_1 -->
<g id="edge6" class="edge">
<title>L4YAML.Proofs.ScannerCorrectness.emit_preserves_tokens_at&#45;&gt;L4YAML.Proofs.ScannerCorrectness.emit_preserves_tokens_at._proof_1</title>
<path fill="none" stroke="#28a745" stroke-width="2" d="M615.42,-260.77C666.19,-247.53 739.74,-228.36 792.91,-214.49"/>
<polygon fill="#28a745" stroke="#28a745" stroke-width="2" points="793.79,-216.79 799.94,-212.66 792.55,-212.05 793.79,-216.79"/>
<text text-anchor="middle" x="727" y="-234.6" font-family="Times-Roman" font-size="8.00">uses</text>
</g>
<!-- L4YAML.Proofs.ScannerCorrectness.emit_preserves_tokens_at._proof_1_1 -->
<g id="node14" class="node">
<title>L4YAML.Proofs.ScannerCorrectness.emit_preserves_tokens_at._proof_1_1</title>
<g id="a_node14"><a xlink:href="../../../api/L4YAML/Proofs/Scanner/ScannerCorrectness.html#L4YAML.Proofs.ScannerCorrectness.emit_preserves_tokens_at._proof_1_1" xlink:title="ScannerCorrectness.emit_preserves_tokens_at._proof_1_1" target="_blank">
<ellipse fill="#d4edda" stroke="#28a745" cx="526" cy="-196" rx="160.91" ry="18"/>
<text text-anchor="middle" x="526" y="-193.5" font-family="Helvetica" font-size="10.00">ScannerCorrectness.emit_preserves_tokens_at._proof_1_1</text>
</a>
</g>
</g>
<!-- L4YAML.Proofs.ScannerCorrectness.emit_preserves_tokens_at&#45;&gt;L4YAML.Proofs.ScannerCorrectness.emit_preserves_tokens_at._proof_1_1 -->
<g id="edge20" class="edge">
<title>L4YAML.Proofs.ScannerCorrectness.emit_preserves_tokens_at&#45;&gt;L4YAML.Proofs.ScannerCorrectness.emit_preserves_tokens_at._proof_1_1</title>
<path fill="none" stroke="#28a745" stroke-width="2" d="M550.27,-258.86C545.89,-247.68 540.1,-232.93 535.28,-220.64"/>
<polygon fill="#28a745" stroke="#28a745" stroke-width="2" points="537.55,-219.73 532.71,-214.11 532.99,-221.52 537.55,-219.73"/>
<text text-anchor="middle" x="552" y="-234.6" font-family="Times-Roman" font-size="8.00">uses</text>
</g>
<!-- L4YAML.Proofs.ScannerCorrectness.ScanHelpers.scanFlowEntry_adds_one_token -->
<g id="node12" class="node">
<title>L4YAML.Proofs.ScannerCorrectness.ScanHelpers.scanFlowEntry_adds_one_token</title>
<g id="a_node12"><a xlink:href="../../../api/L4YAML/Proofs/Scanner/ScannerCorrectness.html#L4YAML.Proofs.ScannerCorrectness.ScanHelpers.scanFlowEntry_adds_one_token" xlink:title="ScannerCorrectness.ScanHelpers.scanFlowEntry_adds_one_token" target="_blank">
<ellipse fill="#d4edda" stroke="#28a745" cx="1216" cy="-196" rx="183.15" ry="18"/>
<text text-anchor="middle" x="1216" y="-193.5" font-family="Helvetica" font-size="10.00">ScannerCorrectness.ScanHelpers.scanFlowEntry_adds_one_token</text>
</a>
</g>
</g>
<!-- L4YAML.Proofs.ScannerCorrectness.ScanHelpers.scanFlowEntry_adds_one_token&#45;&gt;L4YAML.Scanner.ScannerState.tokens -->
<g id="edge12" class="edge">
<title>L4YAML.Proofs.ScannerCorrectness.ScanHelpers.scanFlowEntry_adds_one_token&#45;&gt;L4YAML.Scanner.ScannerState.tokens</title>
<path fill="none" stroke="#6f42c1" stroke-width="2" stroke-dasharray="5,2" d="M1089.29,-182.96C1067.52,-181.13 1045.12,-179.39 1024,-178 838.89,-165.82 791.81,-176.01 607,-160 576.19,-157.33 568.81,-153.7 538,-151 360.72,-135.48 314.09,-158.71 138,-133 135.65,-132.66 133.27,-132.27 130.86,-131.84"/>
<polygon fill="#6f42c1" stroke="#6f42c1" stroke-width="2" points="130.96,-129.37 123.62,-130.46 130.04,-134.18 130.96,-129.37"/>
<text text-anchor="middle" x="619.5" y="-153.6" font-family="Times-Roman" font-size="8.00" fill="#6f42c1">about</text>
</g>
<!-- L4YAML.Proofs.ScannerCorrectness.ScanHelpers.scanFlowEntry_adds_one_token&#45;&gt;L4YAML.Proofs.ScannerProofs.emit_tokens_size -->
<g id="edge16" class="edge">
<title>L4YAML.Proofs.ScannerCorrectness.ScanHelpers.scanFlowEntry_adds_one_token&#45;&gt;L4YAML.Proofs.ScannerProofs.emit_tokens_size</title>
<path fill="none" stroke="#28a745" stroke-width="2" d="M1086.72,-183.23C910.94,-167.15 612.51,-139.55 562,-133 552.53,-131.77 542.59,-130.33 532.78,-128.81"/>
<polygon fill="#28a745" stroke="#28a745" stroke-width="2" points="532.96,-126.36 525.67,-127.69 532.2,-131.2 532.96,-126.36"/>
<text text-anchor="middle" x="833" y="-153.6" font-family="Times-Roman" font-size="8.00">uses</text>
</g>
<!-- L4YAML.Proofs.ScannerCorrectness.ScanHelpers.scanFlowEntry_adds_one_token&#45;&gt;L4YAML.Proofs.ScannerCorrectness.ScanHelpers.scanFlowEntry_adds_one_token._proof_1_3 -->
<g id="edge14" class="edge">
<title>L4YAML.Proofs.ScannerCorrectness.ScanHelpers.scanFlowEntry_adds_one_token&#45;&gt;L4YAML.Proofs.ScannerCorrectness.ScanHelpers.scanFlowEntry_adds_one_token._proof_1_3</title>
<path fill="none" stroke="#28a745" stroke-width="2" d="M1133.47,-179.91C1060.04,-166.48 952.77,-146.86 876.47,-132.91"/>
<polygon fill="#28a745" stroke="#28a745" stroke-width="2" points="876.51,-130.43 869.19,-131.58 875.63,-135.25 876.51,-130.43"/>
<text text-anchor="middle" x="1022" y="-153.6" font-family="Times-Roman" font-size="8.00">uses</text>
</g>
<!-- L4YAML.Proofs.ScannerCorrectness.ScanHelpers.scanFlowEntry_adds_one_token&#45;&gt;L4YAML.Proofs.ScannerCorrectness.advance_preserves_tokens -->
<g id="edge18" class="edge">
<title>L4YAML.Proofs.ScannerCorrectness.ScanHelpers.scanFlowEntry_adds_one_token&#45;&gt;L4YAML.Proofs.ScannerCorrectness.advance_preserves_tokens</title>
<path fill="none" stroke="#28a745" stroke-width="2" d="M1201.46,-177.86C1191.72,-166.37 1178.78,-151.11 1168.19,-138.63"/>
<polygon fill="#28a745" stroke="#28a745" stroke-width="2" points="1169.91,-136.86 1163.51,-133.11 1166.17,-140.03 1169.91,-136.86"/>
<text text-anchor="middle" x="1194" y="-153.6" font-family="Times-Roman" font-size="8.00">uses</text>
</g>
<!-- L4YAML.Proofs.ScannerCorrectness.ScanHelpers.scanFlowEntry_preserves_prefix -->
<g id="node13" class="node">
<title>L4YAML.Proofs.ScannerCorrectness.ScanHelpers.scanFlowEntry_preserves_prefix</title>
<g id="a_node13"><a xlink:href="../../../api/L4YAML/Proofs/Scanner/ScannerCorrectness.html#L4YAML.Proofs.ScannerCorrectness.ScanHelpers.scanFlowEntry_preserves_prefix" xlink:title="ScannerCorrectness.ScanHelpers.scanFlowEntry_preserves_prefix" target="_blank">
<polygon fill="#fff3cd" stroke="#d4a017" points="766.59,-374.54 766.59,-389.46 650.26,-400 485.74,-400 369.41,-389.46 369.41,-374.54 485.74,-364 650.26,-364 766.59,-374.54"/>
<polygon fill="none" stroke="#d4a017" points="770.59,-370.89 770.59,-393.11 650.44,-404 485.56,-404 365.41,-393.11 365.41,-370.89 485.56,-360 650.44,-360 770.59,-370.89"/>
<text text-anchor="middle" x="568" y="-379.5" font-family="Helvetica" font-size="10.00">ScannerCorrectness.ScanHelpers.scanFlowEntry_preserves_prefix</text>
</a>
</g>
</g>
<!-- L4YAML.Proofs.ScannerCorrectness.ScanHelpers.scanFlowEntry_preserves_prefix&#45;&gt;L4YAML.Scanner.scanFlowEntry -->
<g id="edge1" class="edge">
<title>L4YAML.Proofs.ScannerCorrectness.ScanHelpers.scanFlowEntry_preserves_prefix&#45;&gt;L4YAML.Scanner.scanFlowEntry</title>
<path fill="none" stroke="#6f42c1" stroke-width="2" stroke-dasharray="5,2" d="M480.58,-360.44C441.3,-350.64 394.55,-338.18 353,-325 327.36,-316.86 299.27,-306.45 276.24,-297.49"/>
<polygon fill="#6f42c1" stroke="#6f42c1" stroke-width="2" points="276.98,-295.15 269.57,-294.88 275.2,-299.71 276.98,-295.15"/>
<text text-anchor="middle" x="417.5" y="-335.6" font-family="Times-Roman" font-size="8.00" fill="#6f42c1">about</text>
</g>
<!-- L4YAML.Proofs.ScannerCorrectness.ScanHelpers.scanFlowEntry_preserves_prefix&#45;&gt;L4YAML.Proofs.ScannerCorrectness.emit_preserves_tokens_at -->
<g id="edge3" class="edge">
<title>L4YAML.Proofs.ScannerCorrectness.ScanHelpers.scanFlowEntry_preserves_prefix&#45;&gt;L4YAML.Proofs.ScannerCorrectness.emit_preserves_tokens_at</title>
<path fill="none" stroke="#28a745" stroke-width="2" d="M565.72,-359.66C563.94,-342.95 561.45,-319.71 559.59,-302.29"/>
<polygon fill="#28a745" stroke="#28a745" stroke-width="2" points="562.02,-301.92 558.84,-295.22 557.15,-302.44 562.02,-301.92"/>
<text text-anchor="middle" x="573" y="-335.6" font-family="Times-Roman" font-size="8.00">uses</text>
</g>
<!-- L4YAML.Proofs.ScannerCorrectness.ScanHelpers.scanFlowEntry_preserves_prefix&#45;&gt;L4YAML.Proofs.ScannerCorrectness.ScanHelpers.scanFlowEntry_adds_one_token -->
<g id="edge11" class="edge">
<title>L4YAML.Proofs.ScannerCorrectness.ScanHelpers.scanFlowEntry_preserves_prefix&#45;&gt;L4YAML.Proofs.ScannerCorrectness.ScanHelpers.scanFlowEntry_adds_one_token</title>
<path fill="none" stroke="#28a745" stroke-width="2" d="M642.02,-359.98C770.14,-323.6 1031.09,-249.5 1151.94,-215.19"/>
<polygon fill="#28a745" stroke="#28a745" stroke-width="2" points="1152.93,-217.46 1158.99,-213.19 1151.59,-212.74 1152.93,-217.46"/>
<text text-anchor="middle" x="997" y="-275.1" font-family="Times-Roman" font-size="8.00">uses</text>
</g>
<!-- L4YAML.Proofs.ScannerCorrectness.emit_preserves_tokens_at._proof_1_1&#45;&gt;L4YAML.Positioned -->
<g id="edge24" class="edge">
<title>L4YAML.Proofs.ScannerCorrectness.emit_preserves_tokens_at._proof_1_1&#45;&gt;L4YAML.Positioned</title>
<path fill="none" stroke="#6f42c1" stroke-width="2" stroke-dasharray="5,2" d="M479.8,-178.66C452.5,-169.49 417.1,-158.43 385,-151 333.74,-139.13 318.6,-147.4 268,-133 267.27,-132.79 266.54,-132.58 265.81,-132.35"/>
<polygon fill="#6f42c1" stroke="#6f42c1" stroke-width="2" points="266.59,-130.03 259.18,-130.12 265.03,-134.67 266.59,-130.03"/>
<text text-anchor="middle" x="428.5" y="-153.6" font-family="Times-Roman" font-size="8.00" fill="#6f42c1">about</text>
</g>
<!-- L4YAML.Proofs.ScannerCorrectness.emit_preserves_tokens_at._proof_1_1&#45;&gt;L4YAML.YamlToken -->
<g id="edge23" class="edge">
<title>L4YAML.Proofs.ScannerCorrectness.emit_preserves_tokens_at._proof_1_1&#45;&gt;L4YAML.YamlToken</title>
<path fill="none" stroke="#6f42c1" stroke-width="2" stroke-dasharray="5,2" d="M520.13,-177.66C516,-168.22 509.5,-157.22 500,-151 444.92,-114.96 416.85,-148.98 353,-133 351.45,-132.61 349.88,-132.18 348.31,-131.73"/>
<polygon fill="#6f42c1" stroke="#6f42c1" stroke-width="2" points="348.8,-129.31 341.39,-129.54 347.32,-133.99 348.8,-129.31"/>
<text text-anchor="middle" x="521.5" y="-153.6" font-family="Times-Roman" font-size="8.00" fill="#6f42c1">about</text>
</g>
<!-- L4YAML.Proofs.ScannerCorrectness.emit_preserves_tokens_at._proof_1_1&#45;&gt;L4YAML.Scanner.ScannerState -->
<g id="edge21" class="edge">
<title>L4YAML.Proofs.ScannerCorrectness.emit_preserves_tokens_at._proof_1_1&#45;&gt;L4YAML.Scanner.ScannerState</title>
<path fill="none" stroke="#6f42c1" stroke-width="2" stroke-dasharray="5,2" d="M636.56,-182.9C656.34,-181.03 676.76,-179.3 696,-178 809.59,-170.33 1095.85,-179.61 1208,-160 1246.63,-153.25 1268.9,-164.69 1292,-133 1303.52,-117.2 1305.45,-103.2 1292,-89 1259.15,-54.31 537.81,-39.15 348.28,-35.76"/>
<polygon fill="#6f42c1" stroke="#6f42c1" stroke-width="2" points="348.28,-33.31 341.24,-35.63 348.19,-38.21 348.28,-33.31"/>
<text text-anchor="middle" x="1313.5" y="-113.1" font-family="Times-Roman" font-size="8.00" fill="#6f42c1">about</text>
</g>
<!-- L4YAML.Proofs.ScannerCorrectness.emit_preserves_tokens_at._proof_1_1&#45;&gt;L4YAML.Scanner.ScannerState.tokens -->
<g id="edge26" class="edge">
<title>L4YAML.Proofs.ScannerCorrectness.emit_preserves_tokens_at._proof_1_1&#45;&gt;L4YAML.Scanner.ScannerState.tokens</title>
<path fill="none" stroke="#6f42c1" stroke-width="2" stroke-dasharray="5,2" d="M453.29,-179.89C407.45,-170.71 346.92,-159.21 293,-151 224.44,-140.56 206.23,-145.44 138,-133 135.67,-132.57 133.29,-132.12 130.9,-131.63"/>
<polygon fill="#6f42c1" stroke="#6f42c1" stroke-width="2" points="131.04,-129.15 123.68,-130.1 130.02,-133.95 131.04,-129.15"/>
<text text-anchor="middle" x="356.5" y="-153.6" font-family="Times-Roman" font-size="8.00" fill="#6f42c1">about</text>
</g>
</g>
</svg>
