<?xml version="1.0" encoding="UTF-8" standalone="no"?>
<!DOCTYPE svg PUBLIC "-//W3C//DTD SVG 1.1//EN"
 "http://www.w3.org/Graphics/SVG/1.1/DTD/svg11.dtd">
<!-- Generated by graphviz version 2.44.0 (0)
 -->
<!-- Title: chain_ScannerCorrectness.ScanHelpers.scanFlowMappingEnd_preserves_prefix Pages: 1 -->
<svg width="1592pt" height="472pt"
 viewBox="0.00 0.00 1592.00 472.00" xmlns="http://www.w3.org/2000/svg" xmlns:xlink="http://www.w3.org/1999/xlink">
<g id="graph0" class="graph" transform="scale(1 1) rotate(0) translate(4 468)">
<title>chain_ScannerCorrectness.ScanHelpers.scanFlowMappingEnd_preserves_prefix</title>
<polygon fill="white" stroke="transparent" points="-4,4 -4,-468 1588,-468 1588,4 -4,4"/>
<text text-anchor="middle" x="792" y="-449.6" font-family="Helvetica Bold" font-size="13.00">Functorial Chains: ScannerCorrectness.ScanHelpers.scanFlowMappingEnd_preserves_prefix\n(heuristic: used by 5 proofs)</text>
<g id="clust1" class="cluster">
<title>cluster_fns</title>
<polygon fill="none" stroke="#4a90d9" stroke-dasharray="5,2" points="8,-8 8,-325 349,-325 349,-8 8,-8"/>
<text text-anchor="middle" x="178.5" y="-310.6" font-family="Helvetica Bold" font-size="13.00" fill="#4a90d9">Functions (Call Chain)</text>
</g>
<g id="clust2" class="cluster">
<title>cluster_thms</title>
<polygon fill="none" stroke="#28a745" stroke-dasharray="5,2" points="357,-89 357,-434 1576,-434 1576,-89 357,-89"/>
<text text-anchor="middle" x="966.5" y="-419.6" font-family="Helvetica Bold" font-size="13.00" fill="#28a745">Theorems (Proof Chain)</text>
</g>
<!-- L4YAML.Positioned -->
<g id="node1" class="node">
<title>L4YAML.Positioned</title>
<g id="a_node1"><a xlink:href="../../../api/L4YAML/Token/Token.html#L4YAML.Positioned" xlink:title="Positioned" target="_blank">
<polygon fill="#dce9f7" stroke="#4a90d9" points="133,-133 71,-133 71,-97 133,-97 133,-133"/>
<text text-anchor="middle" x="102" y="-112.5" font-family="Helvetica" font-size="10.00">Positioned</text>
</a>
</g>
</g>
<!-- L4YAML.Scanner.ScannerState.emit -->
<g id="node2" class="node">
<title>L4YAML.Scanner.ScannerState.emit</title>
<g id="a_node2"><a xlink:href="../../../api/L4YAML/Scanner/State.html#L4YAML.Scanner.ScannerState.emit" xlink:title="ScannerState.emit" target="_blank">
<polygon fill="#dce9f7" stroke="#4a90d9" points="232,-214 134,-214 134,-178 232,-178 232,-214"/>
<text text-anchor="middle" x="183" y="-193.5" font-family="Helvetica" font-size="10.00">ScannerState.emit</text>
</a>
</g>
</g>
<!-- L4YAML.Scanner.ScannerState.emit&#45;&gt;L4YAML.Positioned -->
<g id="edge8" class="edge">
<title>L4YAML.Scanner.ScannerState.emit&#45;&gt;L4YAML.Positioned</title>
<path fill="none" stroke="#4a90d9" stroke-width="2" d="M165.42,-177.86C153.54,-166.26 137.72,-150.84 124.85,-138.29"/>
<polygon fill="#4a90d9" stroke="#4a90d9" stroke-width="2" points="126.26,-136.24 119.54,-133.11 122.84,-139.75 126.26,-136.24"/>
<text text-anchor="middle" x="153.5" y="-153.6" font-family="Times-Roman" font-size="8.00">calls</text>
</g>
<!-- L4YAML.YamlToken -->
<g id="node3" class="node">
<title>L4YAML.YamlToken</title>
<g id="a_node3"><a xlink:href="../../../api/L4YAML/Token/Token.html#L4YAML.YamlToken" xlink:title="YamlToken" target="_blank">
<polygon fill="#dce9f7" stroke="#4a90d9" points="215,-133 151,-133 151,-97 215,-97 215,-133"/>
<text text-anchor="middle" x="183" y="-112.5" font-family="Helvetica" font-size="10.00">YamlToken</text>
</a>
</g>
</g>
<!-- L4YAML.Scanner.ScannerState.emit&#45;&gt;L4YAML.YamlToken -->
<g id="edge19" class="edge">
<title>L4YAML.Scanner.ScannerState.emit&#45;&gt;L4YAML.YamlToken</title>
<path fill="none" stroke="#4a90d9" stroke-width="2" d="M183,-177.86C183,-166.88 183,-152.48 183,-140.33"/>
<polygon fill="#4a90d9" stroke="#4a90d9" stroke-width="2" points="185.45,-140.11 183,-133.11 180.55,-140.11 185.45,-140.11"/>
<text text-anchor="middle" x="192.5" y="-153.6" font-family="Times-Roman" font-size="8.00">calls</text>
</g>
<!-- L4YAML.Scanner.ScannerState -->
<g id="node4" class="node">
<title>L4YAML.Scanner.ScannerState</title>
<g id="a_node4"><a xlink:href="../../../api/L4YAML/Scanner/State.html#L4YAML.Scanner.ScannerState" xlink:title="ScannerState" target="_blank">
<polygon fill="#dce9f7" stroke="#4a90d9" points="341,-52 265,-52 265,-16 341,-16 341,-52"/>
<text text-anchor="middle" x="303" y="-31.5" font-family="Helvetica" font-size="10.00">ScannerState</text>
</a>
</g>
</g>
<!-- L4YAML.Scanner.ScannerState.emit&#45;&gt;L4YAML.Scanner.ScannerState -->
<g id="edge16" class="edge">
<title>L4YAML.Scanner.ScannerState.emit&#45;&gt;L4YAML.Scanner.ScannerState</title>
<path fill="none" stroke="#4a90d9" stroke-width="2" d="M133.94,-187.22C102.13,-179.36 63.01,-163.75 43,-133 32.33,-116.61 30.66,-104.17 43,-89 69.56,-56.35 190.51,-42.8 257.68,-37.72"/>
<polygon fill="#4a90d9" stroke="#4a90d9" stroke-width="2" points="258,-40.15 264.8,-37.2 257.64,-35.27 258,-40.15"/>
<text text-anchor="middle" x="52.5" y="-113.1" font-family="Times-Roman" font-size="8.00">calls</text>
</g>
<!-- L4YAML.Scanner.ScannerState.tokens -->
<g id="node5" class="node">
<title>L4YAML.Scanner.ScannerState.tokens</title>
<g id="a_node5"><a xlink:href="../../../api/L4YAML/Scanner/State.html#L4YAML.Scanner.ScannerState.tokens" xlink:title="ScannerState.tokens" target="_blank">
<polygon fill="#dce9f7" stroke="#4a90d9" points="340.5,-133 233.5,-133 233.5,-97 340.5,-97 340.5,-133"/>
<text text-anchor="middle" x="287" y="-112.5" font-family="Helvetica" font-size="10.00">ScannerState.tokens</text>
</a>
</g>
</g>
<!-- L4YAML.Scanner.ScannerState.emit&#45;&gt;L4YAML.Scanner.ScannerState.tokens -->
<g id="edge5" class="edge">
<title>L4YAML.Scanner.ScannerState.emit&#45;&gt;L4YAML.Scanner.ScannerState.tokens</title>
<path fill="none" stroke="#4a90d9" stroke-width="2" d="M205.57,-177.86C221.1,-166.06 241.87,-150.28 258.54,-137.62"/>
<polygon fill="#4a90d9" stroke="#4a90d9" stroke-width="2" points="260.39,-139.29 264.48,-133.11 257.42,-135.39 260.39,-139.29"/>
<text text-anchor="middle" x="247.5" y="-153.6" font-family="Times-Roman" font-size="8.00">calls</text>
</g>
<!-- L4YAML.Scanner.ScannerState.tokens&#45;&gt;L4YAML.Scanner.ScannerState -->
<g id="edge13" class="edge">
<title>L4YAML.Scanner.ScannerState.tokens&#45;&gt;L4YAML.Scanner.ScannerState</title>
<path fill="none" stroke="#4a90d9" stroke-width="2" d="M290.47,-96.86C292.72,-85.78 295.67,-71.21 298.14,-58.99"/>
<polygon fill="#4a90d9" stroke="#4a90d9" stroke-width="2" points="300.55,-59.46 299.54,-52.11 295.74,-58.48 300.55,-59.46"/>
<text text-anchor="middle" x="304.5" y="-72.6" font-family="Times-Roman" font-size="8.00">calls</text>
</g>
<!-- L4YAML.Scanner.scanFlowMappingEnd -->
<g id="node6" class="node">
<title>L4YAML.Scanner.scanFlowMappingEnd</title>
<g id="a_node6"><a xlink:href="../../../api/L4YAML/Scanner/Scanner.html#L4YAML.Scanner.scanFlowMappingEnd" xlink:title="scanFlowMappingEnd" target="_blank">
<polygon fill="#dce9f7" stroke="#4a90d9" points="324.5,-295 211.5,-295 211.5,-259 324.5,-259 324.5,-295"/>
<text text-anchor="middle" x="268" y="-274.5" font-family="Helvetica" font-size="10.00">scanFlowMappingEnd</text>
</a>
</g>
</g>
<!-- L4YAML.Scanner.scanFlowMappingEnd&#45;&gt;L4YAML.Scanner.ScannerState.emit -->
<g id="edge2" class="edge">
<title>L4YAML.Scanner.scanFlowMappingEnd&#45;&gt;L4YAML.Scanner.ScannerState.emit</title>
<path fill="none" stroke="#4a90d9" stroke-width="2" d="M249.56,-258.86C236.97,-247.16 220.19,-231.56 206.62,-218.95"/>
<polygon fill="#4a90d9" stroke="#4a90d9" stroke-width="2" points="208.2,-217.08 201.41,-214.11 204.87,-220.67 208.2,-217.08"/>
<text text-anchor="middle" x="237.5" y="-234.6" font-family="Times-Roman" font-size="8.00">calls</text>
</g>
<!-- L4YAML.Scanner.scanFlowMappingEnd&#45;&gt;L4YAML.Scanner.ScannerState.tokens -->
<g id="edge10" class="edge">
<title>L4YAML.Scanner.scanFlowMappingEnd&#45;&gt;L4YAML.Scanner.ScannerState.tokens</title>
<path fill="none" stroke="#4a90d9" stroke-width="2" d="M266.86,-258.79C265.67,-234.47 264.93,-188.81 273,-151 273.8,-147.24 274.97,-143.36 276.3,-139.62"/>
<polygon fill="#4a90d9" stroke="#4a90d9" stroke-width="2" points="278.59,-140.49 278.82,-133.08 274.02,-138.73 278.59,-140.49"/>
<text text-anchor="middle" x="277.5" y="-194.1" font-family="Times-Roman" font-size="8.00">calls</text>
</g>
<!-- L4YAML.Proofs.ScannerProofs.emit_tokens_size -->
<g id="node7" class="node">
<title>L4YAML.Proofs.ScannerProofs.emit_tokens_size</title>
<g id="a_node7"><a xlink:href="../../../api/L4YAML/Proofs/Scanner/ScannerProofs.html#L4YAML.Proofs.ScannerProofs.emit_tokens_size" xlink:title="ScannerProofs.emit_tokens_size" target="_blank">
<ellipse fill="#d4edda" stroke="#28a745" cx="1126" cy="-196" rx="93.69" ry="18"/>
<text text-anchor="middle" x="1126" y="-193.5" font-family="Helvetica" font-size="10.00">ScannerProofs.emit_tokens_size</text>
</a>
</g>
</g>
<!-- L4YAML.Proofs.ScannerProofs.emit_tokens_size&#45;&gt;L4YAML.Scanner.ScannerState.tokens -->
<g id="edge26" class="edge">
<title>L4YAML.Proofs.ScannerProofs.emit_tokens_size&#45;&gt;L4YAML.Scanner.ScannerState.tokens</title>
<path fill="none" stroke="#6f42c1" stroke-width="2" stroke-dasharray="5,2" d="M1061.14,-182.95C1048.84,-181.01 1036.05,-179.24 1024,-178 926,-167.88 677.43,-180.23 581,-160 570.26,-157.75 568.69,-153.51 558,-151 468.95,-130.12 443.15,-148.46 353,-133 351.21,-132.69 349.41,-132.36 347.58,-132.01"/>
<polygon fill="#6f42c1" stroke="#6f42c1" stroke-width="2" points="347.86,-129.57 340.51,-130.57 346.88,-134.37 347.86,-129.57"/>
<text text-anchor="middle" x="593.5" y="-153.6" font-family="Times-Roman" font-size="8.00" fill="#6f42c1">about</text>
</g>
<!-- L4YAML.Proofs.ScannerCorrectness.emit_preserves_tokens_at._proof_1 -->
<g id="node8" class="node">
<title>L4YAML.Proofs.ScannerCorrectness.emit_preserves_tokens_at._proof_1</title>
<g id="a_node8"><a xlink:href="../../../api/L4YAML/Proofs/Scanner/ScannerCorrectness.html#L4YAML.Proofs.ScannerCorrectness.emit_preserves_tokens_at._proof_1" xlink:title="ScannerCorrectness.emit_preserves_tokens_at._proof_1" target="_blank">
<ellipse fill="#d4edda" stroke="#28a745" cx="520" cy="-196" rx="154.64" ry="18"/>
<text text-anchor="middle" x="520" y="-193.5" font-family="Helvetica" font-size="10.00">ScannerCorrectness.emit_preserves_tokens_at._proof_1</text>
</a>
</g>
</g>
<!-- L4YAML.Proofs.ScannerCorrectness.emit_preserves_tokens_at._proof_1&#45;&gt;L4YAML.Positioned -->
<g id="edge9" class="edge">
<title>L4YAML.Proofs.ScannerCorrectness.emit_preserves_tokens_at._proof_1&#45;&gt;L4YAML.Positioned</title>
<path fill="none" stroke="#6f42c1" stroke-width="2" stroke-dasharray="5,2" d="M419.79,-182.22C380.11,-176.46 334.21,-168.94 293,-160 278.56,-156.87 275.44,-154.11 261,-151 208.71,-139.74 193.47,-147.58 142,-133 141.27,-132.79 140.54,-132.58 139.81,-132.35"/>
<polygon fill="#6f42c1" stroke="#6f42c1" stroke-width="2" points="140.59,-130.03 133.17,-130.13 139.03,-134.68 140.59,-130.03"/>
<text text-anchor="middle" x="305.5" y="-153.6" font-family="Times-Roman" font-size="8.00" fill="#6f42c1">about</text>
</g>
<!-- L4YAML.Proofs.ScannerCorrectness.emit_preserves_tokens_at._proof_1&#45;&gt;L4YAML.YamlToken -->
<g id="edge24" class="edge">
<title>L4YAML.Proofs.ScannerCorrectness.emit_preserves_tokens_at._proof_1&#45;&gt;L4YAML.YamlToken</title>
<path fill="none" stroke="#6f42c1" stroke-width="2" stroke-dasharray="5,2" d="M456.28,-179.51C434.76,-173.87 410.7,-167.12 389,-160 378.57,-156.58 376.64,-153.72 366,-151 304.79,-135.37 286.12,-148.98 225,-133 224,-132.74 222.99,-132.46 221.98,-132.17"/>
<polygon fill="#6f42c1" stroke="#6f42c1" stroke-width="2" points="222.69,-129.82 215.28,-130.03 221.2,-134.49 222.69,-129.82"/>
<text text-anchor="middle" x="401.5" y="-153.6" font-family="Times-Roman" font-size="8.00" fill="#6f42c1">about</text>
</g>
<!-- L4YAML.Proofs.ScannerCorrectness.emit_preserves_tokens_at._proof_1&#45;&gt;L4YAML.Scanner.ScannerState -->
<g id="edge23" class="edge">
<title>L4YAML.Proofs.ScannerCorrectness.emit_preserves_tokens_at._proof_1&#45;&gt;L4YAML.Scanner.ScannerState</title>
<path fill="none" stroke="#6f42c1" stroke-width="2" stroke-dasharray="5,2" d="M634.53,-183.85C662.97,-178.62 687.95,-171.01 697,-160 716.14,-136.7 766.16,-160.95 663,-89 612.95,-54.09 433.54,-41.12 348.43,-36.85"/>
<polygon fill="#6f42c1" stroke="#6f42c1" stroke-width="2" points="348.34,-34.4 341.23,-36.5 348.1,-39.29 348.34,-34.4"/>
<text text-anchor="middle" x="732.5" y="-113.1" font-family="Times-Roman" font-size="8.00" fill="#6f42c1">about</text>
</g>
<!-- L4YAML.Proofs.ScannerCorrectness.emit_preserves_tokens_at._proof_1&#45;&gt;L4YAML.Scanner.ScannerState.tokens -->
<g id="edge7" class="edge">
<title>L4YAML.Proofs.ScannerCorrectness.emit_preserves_tokens_at._proof_1&#45;&gt;L4YAML.Scanner.ScannerState.tokens</title>
<path fill="none" stroke="#6f42c1" stroke-width="2" stroke-dasharray="5,2" d="M502.15,-177.8C491.36,-168.39 476.86,-157.39 462,-151 416.9,-131.59 401.04,-143.13 353,-133 351.23,-132.63 349.43,-132.24 347.62,-131.83"/>
<polygon fill="#6f42c1" stroke="#6f42c1" stroke-width="2" points="347.95,-129.4 340.58,-130.22 346.85,-134.17 347.95,-129.4"/>
<text text-anchor="middle" x="489.5" y="-153.6" font-family="Times-Roman" font-size="8.00" fill="#6f42c1">about</text>
</g>
<!-- L4YAML.Proofs.ScannerCorrectness.ScanHelpers.scanFlowMappingEnd_preserves_prefix -->
<g id="node9" class="node">
<title>L4YAML.Proofs.ScannerCorrectness.ScanHelpers.scanFlowMappingEnd_preserves_prefix</title>
<g id="a_node9"><a xlink:href="../../../api/L4YAML/Proofs/Scanner/ScannerCorrectness.html#L4YAML.Proofs.ScannerCorrectness.ScanHelpers.scanFlowMappingEnd_preserves_prefix" xlink:title="ScannerCorrectness.ScanHelpers.scanFlowMappingEnd_preserves_prefix" target="_blank">
<polygon fill="#fff3cd" stroke="#d4a017" points="888.82,-374.54 888.82,-389.46 761.22,-400 580.78,-400 453.18,-389.46 453.18,-374.54 580.78,-364 761.22,-364 888.82,-374.54"/>
<polygon fill="none" stroke="#d4a017" points="892.82,-370.86 892.82,-393.14 761.39,-404 580.61,-404 449.18,-393.14 449.18,-370.86 580.61,-360 761.39,-360 892.82,-370.86"/>
<text text-anchor="middle" x="671" y="-379.5" font-family="Helvetica" font-size="10.00">ScannerCorrectness.ScanHelpers.scanFlowMappingEnd_preserves_prefix</text>
</a>
</g>
</g>
<!-- L4YAML.Proofs.ScannerCorrectness.ScanHelpers.scanFlowMappingEnd_preserves_prefix&#45;&gt;L4YAML.Scanner.scanFlowMappingEnd -->
<g id="edge1" class="edge">
<title>L4YAML.Proofs.ScannerCorrectness.ScanHelpers.scanFlowMappingEnd_preserves_prefix&#45;&gt;L4YAML.Scanner.scanFlowMappingEnd</title>
<path fill="none" stroke="#6f42c1" stroke-width="2" stroke-dasharray="5,2" d="M520.34,-364.89C466.54,-356.44 406.12,-343.77 353,-325 334.64,-318.51 315.54,-308.31 300.11,-299.07"/>
<polygon fill="#6f42c1" stroke="#6f42c1" stroke-width="2" points="300.99,-296.73 293.74,-295.18 298.44,-300.92 300.99,-296.73"/>
<text text-anchor="middle" x="415.5" y="-335.6" font-family="Times-Roman" font-size="8.00" fill="#6f42c1">about</text>
</g>
<!-- L4YAML.Proofs.ScannerCorrectness.emit_preserves_tokens_at -->
<g id="node11" class="node">
<title>L4YAML.Proofs.ScannerCorrectness.emit_preserves_tokens_at</title>
<g id="a_node11"><a xlink:href="../../../api/L4YAML/Proofs/Scanner/ScannerCorrectness.html#L4YAML.Proofs.ScannerCorrectness.emit_preserves_tokens_at" xlink:title="ScannerCorrectness.emit_preserves_tokens_at" target="_blank">
<ellipse fill="#d4edda" stroke="#28a745" cx="671" cy="-277" rx="131.04" ry="18"/>
<text text-anchor="middle" x="671" y="-274.5" font-family="Helvetica" font-size="10.00">ScannerCorrectness.emit_preserves_tokens_at</text>
</a>
</g>
</g>
<!-- L4YAML.Proofs.ScannerCorrectness.ScanHelpers.scanFlowMappingEnd_preserves_prefix&#45;&gt;L4YAML.Proofs.ScannerCorrectness.emit_preserves_tokens_at -->
<g id="edge3" class="edge">
<title>L4YAML.Proofs.ScannerCorrectness.ScanHelpers.scanFlowMappingEnd_preserves_prefix&#45;&gt;L4YAML.Proofs.ScannerCorrectness.emit_preserves_tokens_at</title>
<path fill="none" stroke="#28a745" stroke-width="2" d="M671,-359.66C671,-342.95 671,-319.71 671,-302.29"/>
<polygon fill="#28a745" stroke="#28a745" stroke-width="2" points="673.45,-302.22 671,-295.22 668.55,-302.22 673.45,-302.22"/>
<text text-anchor="middle" x="681" y="-335.6" font-family="Times-Roman" font-size="8.00">uses</text>
</g>
<!-- L4YAML.Proofs.ScannerCorrectness.scanFlowMappingEnd_adds_one_token -->
<g id="node12" class="node">
<title>L4YAML.Proofs.ScannerCorrectness.scanFlowMappingEnd_adds_one_token</title>
<g id="a_node12"><a xlink:href="../../../api/L4YAML/Proofs/Scanner/ScannerCorrectness.html#L4YAML.Proofs.ScannerCorrectness.scanFlowMappingEnd_adds_one_token" xlink:title="ScannerCorrectness.scanFlowMappingEnd_adds_one_token" target="_blank">
<ellipse fill="#d4edda" stroke="#28a745" cx="1403" cy="-196" rx="165.33" ry="18"/>
<text text-anchor="middle" x="1403" y="-193.5" font-family="Helvetica" font-size="10.00">ScannerCorrectness.scanFlowMappingEnd_adds_one_token</text>
</a>
</g>
</g>
<!-- L4YAML.Proofs.ScannerCorrectness.ScanHelpers.scanFlowMappingEnd_preserves_prefix&#45;&gt;L4YAML.Proofs.ScannerCorrectness.scanFlowMappingEnd_adds_one_token -->
<g id="edge11" class="edge">
<title>L4YAML.Proofs.ScannerCorrectness.ScanHelpers.scanFlowMappingEnd_preserves_prefix&#45;&gt;L4YAML.Proofs.ScannerCorrectness.scanFlowMappingEnd_adds_one_token</title>
<path fill="none" stroke="#28a745" stroke-width="2" d="M754.61,-359.98C900.37,-323.34 1198.31,-248.45 1333.51,-214.47"/>
<polygon fill="#28a745" stroke="#28a745" stroke-width="2" points="1334.42,-216.76 1340.61,-212.68 1333.23,-212.01 1334.42,-216.76"/>
<text text-anchor="middle" x="1155" y="-275.1" font-family="Times-Roman" font-size="8.00">uses</text>
</g>
<!-- L4YAML.Proofs.ScannerCorrectness.advance_preserves_tokens -->
<g id="node10" class="node">
<title>L4YAML.Proofs.ScannerCorrectness.advance_preserves_tokens</title>
<g id="a_node10"><a xlink:href="../../../api/L4YAML/Proofs/Scanner/ScannerCorrectness.html#L4YAML.Proofs.ScannerCorrectness.advance_preserves_tokens" xlink:title="ScannerCorrectness.advance_preserves_tokens" target="_blank">
<ellipse fill="#d4edda" stroke="#28a745" cx="520" cy="-115" rx="133.75" ry="18"/>
<text text-anchor="middle" x="520" y="-112.5" font-family="Helvetica" font-size="10.00">ScannerCorrectness.advance_preserves_tokens</text>
</a>
</g>
</g>
<!-- L4YAML.Proofs.ScannerCorrectness.advance_preserves_tokens&#45;&gt;L4YAML.Scanner.ScannerState -->
<g id="edge15" class="edge">
<title>L4YAML.Proofs.ScannerCorrectness.advance_preserves_tokens&#45;&gt;L4YAML.Scanner.ScannerState</title>
<path fill="none" stroke="#6f42c1" stroke-width="2" stroke-dasharray="5,2" d="M475.83,-97.92C438.61,-84.37 385.59,-65.07 348.12,-51.42"/>
<polygon fill="#6f42c1" stroke="#6f42c1" stroke-width="2" points="348.72,-49.04 341.31,-48.95 347.05,-53.64 348.72,-49.04"/>
<text text-anchor="middle" x="430.5" y="-72.6" font-family="Times-Roman" font-size="8.00" fill="#6f42c1">about</text>
</g>
<!-- L4YAML.Proofs.ScannerCorrectness.emit_preserves_tokens_at&#45;&gt;L4YAML.Scanner.ScannerState.emit -->
<g id="edge4" class="edge">
<title>L4YAML.Proofs.ScannerCorrectness.emit_preserves_tokens_at&#45;&gt;L4YAML.Scanner.ScannerState.emit</title>
<path fill="none" stroke="#6f42c1" stroke-width="2" stroke-dasharray="5,2" d="M572.52,-265C486,-254.53 356.98,-236.98 246,-214 243.73,-213.53 241.41,-213.02 239.08,-212.49"/>
<polygon fill="#6f42c1" stroke="#6f42c1" stroke-width="2" points="239.42,-210.06 232.05,-210.84 238.3,-214.83 239.42,-210.06"/>
<text text-anchor="middle" x="409.5" y="-234.6" font-family="Times-Roman" font-size="8.00" fill="#6f42c1">about</text>
</g>
<!-- L4YAML.Proofs.ScannerCorrectness.emit_preserves_tokens_at&#45;&gt;L4YAML.Proofs.ScannerProofs.emit_tokens_size -->
<g id="edge25" class="edge">
<title>L4YAML.Proofs.ScannerCorrectness.emit_preserves_tokens_at&#45;&gt;L4YAML.Proofs.ScannerProofs.emit_tokens_size</title>
<path fill="none" stroke="#28a745" stroke-width="2" d="M726.98,-260.63C763.24,-251.17 811.63,-239.46 855,-232 929.44,-219.19 949.16,-224.21 1024,-214 1033.23,-212.74 1042.91,-211.29 1052.48,-209.78"/>
<polygon fill="#28a745" stroke="#28a745" stroke-width="2" points="1052.9,-212.2 1059.42,-208.68 1052.12,-207.36 1052.9,-212.2"/>
<text text-anchor="middle" x="865" y="-234.6" font-family="Times-Roman" font-size="8.00">uses</text>
</g>
<!-- L4YAML.Proofs.ScannerCorrectness.emit_preserves_tokens_at&#45;&gt;L4YAML.Proofs.ScannerCorrectness.emit_preserves_tokens_at._proof_1 -->
<g id="edge6" class="edge">
<title>L4YAML.Proofs.ScannerCorrectness.emit_preserves_tokens_at&#45;&gt;L4YAML.Proofs.ScannerCorrectness.emit_preserves_tokens_at._proof_1</title>
<path fill="none" stroke="#28a745" stroke-width="2" d="M639.35,-259.44C615.67,-247.05 583.18,-230.06 558.08,-216.93"/>
<polygon fill="#28a745" stroke="#28a745" stroke-width="2" points="559.21,-214.75 551.87,-213.68 556.94,-219.09 559.21,-214.75"/>
<text text-anchor="middle" x="610" y="-234.6" font-family="Times-Roman" font-size="8.00">uses</text>
</g>
<!-- L4YAML.Proofs.ScannerCorrectness.emit_preserves_tokens_at._proof_1_1 -->
<g id="node13" class="node">
<title>L4YAML.Proofs.ScannerCorrectness.emit_preserves_tokens_at._proof_1_1</title>
<g id="a_node13"><a xlink:href="../../../api/L4YAML/Proofs/Scanner/ScannerCorrectness.html#L4YAML.Proofs.ScannerCorrectness.emit_preserves_tokens_at._proof_1_1" xlink:title="ScannerCorrectness.emit_preserves_tokens_at._proof_1_1" target="_blank">
<ellipse fill="#d4edda" stroke="#28a745" cx="854" cy="-196" rx="160.91" ry="18"/>
<text text-anchor="middle" x="854" y="-193.5" font-family="Helvetica" font-size="10.00">ScannerCorrectness.emit_preserves_tokens_at._proof_1_1</text>
</a>
</g>
</g>
<!-- L4YAML.Proofs.ScannerCorrectness.emit_preserves_tokens_at&#45;&gt;L4YAML.Proofs.ScannerCorrectness.emit_preserves_tokens_at._proof_1_1 -->
<g id="edge17" class="edge">
<title>L4YAML.Proofs.ScannerCorrectness.emit_preserves_tokens_at&#45;&gt;L4YAML.Proofs.ScannerCorrectness.emit_preserves_tokens_at._proof_1_1</title>
<path fill="none" stroke="#28a745" stroke-width="2" d="M708.92,-259.63C737.92,-247.11 778.02,-229.8 808.71,-216.55"/>
<polygon fill="#28a745" stroke="#28a745" stroke-width="2" points="810.05,-218.64 815.5,-213.62 808.1,-214.14 810.05,-218.64"/>
<text text-anchor="middle" x="777" y="-234.6" font-family="Times-Roman" font-size="8.00">uses</text>
</g>
<!-- L4YAML.Proofs.ScannerCorrectness.scanFlowMappingEnd_adds_one_token&#45;&gt;L4YAML.Scanner.ScannerState.tokens -->
<g id="edge12" class="edge">
<title>L4YAML.Proofs.ScannerCorrectness.scanFlowMappingEnd_adds_one_token&#45;&gt;L4YAML.Scanner.ScannerState.tokens</title>
<path fill="none" stroke="#6f42c1" stroke-width="2" stroke-dasharray="5,2" d="M1287.94,-183C1268.29,-181.16 1248.07,-179.42 1229,-178 1131.81,-170.78 449.34,-147.75 353,-133 351.26,-132.73 349.5,-132.44 347.73,-132.13"/>
<polygon fill="#6f42c1" stroke="#6f42c1" stroke-width="2" points="348.18,-129.72 340.85,-130.81 347.26,-134.53 348.18,-129.72"/>
<text text-anchor="middle" x="826.5" y="-153.6" font-family="Times-Roman" font-size="8.00" fill="#6f42c1">about</text>
</g>
<!-- L4YAML.Proofs.ScannerCorrectness.scanFlowMappingEnd_adds_one_token&#45;&gt;L4YAML.Proofs.ScannerCorrectness.advance_preserves_tokens -->
<g id="edge14" class="edge">
<title>L4YAML.Proofs.ScannerCorrectness.scanFlowMappingEnd_adds_one_token&#45;&gt;L4YAML.Proofs.ScannerCorrectness.advance_preserves_tokens</title>
<path fill="none" stroke="#28a745" stroke-width="2" d="M1285.56,-183.3C1266.65,-181.48 1247.29,-179.66 1229,-178 989.15,-156.29 928.82,-155.05 689,-133 669.91,-131.24 649.61,-129.28 629.96,-127.34"/>
<polygon fill="#28a745" stroke="#28a745" stroke-width="2" points="629.96,-124.87 622.75,-126.62 629.47,-129.75 629.96,-124.87"/>
<text text-anchor="middle" x="1023" y="-153.6" font-family="Times-Roman" font-size="8.00">uses</text>
</g>
<!-- L4YAML.Proofs.ScannerCorrectness.emit_preserves_tokens_at._proof_1_1&#45;&gt;L4YAML.Positioned -->
<g id="edge21" class="edge">
<title>L4YAML.Proofs.ScannerCorrectness.emit_preserves_tokens_at._proof_1_1&#45;&gt;L4YAML.Positioned</title>
<path fill="none" stroke="#6f42c1" stroke-width="2" stroke-dasharray="5,2" d="M742.05,-183.04C722.7,-181.19 702.78,-179.43 684,-178 607.01,-172.16 411.87,-178.89 337,-160 327.94,-157.71 327,-153.51 318,-151 242.26,-129.86 218.15,-152.6 142,-133 141.36,-132.84 140.72,-132.66 140.07,-132.48"/>
<polygon fill="#6f42c1" stroke="#6f42c1" stroke-width="2" points="140.55,-130.06 133.13,-130.28 139.06,-134.73 140.55,-130.06"/>
<text text-anchor="middle" x="349.5" y="-153.6" font-family="Times-Roman" font-size="8.00" fill="#6f42c1">about</text>
</g>
<!-- L4YAML.Proofs.ScannerCorrectness.emit_preserves_tokens_at._proof_1_1&#45;&gt;L4YAML.YamlToken -->
<g id="edge20" class="edge">
<title>L4YAML.Proofs.ScannerCorrectness.emit_preserves_tokens_at._proof_1_1&#45;&gt;L4YAML.YamlToken</title>
<path fill="none" stroke="#6f42c1" stroke-width="2" stroke-dasharray="5,2" d="M740.65,-183.22C721.74,-181.38 702.32,-179.57 684,-178 572.57,-168.43 541.17,-188.43 433,-160 423.96,-157.63 423.01,-153.48 414,-151 332.65,-128.6 306.97,-153.04 225,-133 224,-132.75 222.99,-132.49 221.97,-132.21"/>
<polygon fill="#6f42c1" stroke="#6f42c1" stroke-width="2" points="222.66,-129.86 215.25,-130.13 221.22,-134.54 222.66,-129.86"/>
<text text-anchor="middle" x="445.5" y="-153.6" font-family="Times-Roman" font-size="8.00" fill="#6f42c1">about</text>
</g>
<!-- L4YAML.Proofs.ScannerCorrectness.emit_preserves_tokens_at._proof_1_1&#45;&gt;L4YAML.Scanner.ScannerState -->
<g id="edge18" class="edge">
<title>L4YAML.Proofs.ScannerCorrectness.emit_preserves_tokens_at._proof_1_1&#45;&gt;L4YAML.Scanner.ScannerState</title>
<path fill="none" stroke="#6f42c1" stroke-width="2" stroke-dasharray="5,2" d="M842.35,-177.86C825.02,-153.82 790.03,-110.6 749,-89 680.15,-52.76 447.74,-40.21 348.51,-36.43"/>
<polygon fill="#6f42c1" stroke="#6f42c1" stroke-width="2" points="348.41,-33.98 341.32,-36.17 348.22,-38.87 348.41,-33.98"/>
<text text-anchor="middle" x="815.5" y="-113.1" font-family="Times-Roman" font-size="8.00" fill="#6f42c1">about</text>
</g>
<!-- L4YAML.Proofs.ScannerCorrectness.emit_preserves_tokens_at._proof_1_1&#45;&gt;L4YAML.Scanner.ScannerState.tokens -->
<g id="edge22" class="edge">
<title>L4YAML.Proofs.ScannerCorrectness.emit_preserves_tokens_at._proof_1_1&#45;&gt;L4YAML.Scanner.ScannerState.tokens</title>
<path fill="none" stroke="#6f42c1" stroke-width="2" stroke-dasharray="5,2" d="M740.63,-183.21C652.43,-173.95 543.3,-162.25 533,-160 520.64,-157.3 518.35,-153.75 506,-151 439.17,-136.1 420.31,-145.57 353,-133 351.22,-132.67 349.41,-132.31 347.6,-131.94"/>
<polygon fill="#6f42c1" stroke="#6f42c1" stroke-width="2" points="347.89,-129.5 340.53,-130.43 346.87,-134.29 347.89,-129.5"/>
<text text-anchor="middle" x="545.5" y="-153.6" font-family="Times-Roman" font-size="8.00" fill="#6f42c1">about</text>
</g>
</g>
</svg>
