<?xml version="1.0" encoding="UTF-8" standalone="no"?>
<!DOCTYPE svg PUBLIC "-//W3C//DTD SVG 1.1//EN"
 "http://www.w3.org/Graphics/SVG/1.1/DTD/svg11.dtd">
<!-- Generated by graphviz version 2.44.0 (0)
 -->
<!-- Title: ScannerCorrectness.scanFlowMappingStart_adds_one_token Pages: 1 -->
<svg width="1070pt" height="504pt"
 viewBox="0.00 0.00 1070.11 504.00" xmlns="http://www.w3.org/2000/svg" xmlns:xlink="http://www.w3.org/1999/xlink">
<g id="graph0" class="graph" transform="scale(1 1) rotate(0) translate(4 500)">
<title>ScannerCorrectness.scanFlowMappingStart_adds_one_token</title>
<polygon fill="white" stroke="transparent" points="-4,4 -4,-500 1066.11,-500 1066.11,4 -4,4"/>
<text text-anchor="middle" x="531.05" y="-481.6" font-family="Helvetica Bold" font-size="13.00">ScannerCorrectness.scanFlowMappingStart_adds_one_token</text>
<text text-anchor="middle" x="531.05" y="-467.6" font-family="Helvetica Bold" font-size="13.00">(heuristic: used by 7 proofs)</text>
<text text-anchor="middle" x="531.05" y="-453.6" font-family="Helvetica Bold" font-size="13.00">(L4YAML.Proofs.Scanner.ScannerCorrectness)</text>
<g id="clust1" class="cluster">
<title>cluster_functions</title>
<polygon fill="none" stroke="#4a90d9" stroke-dasharray="5,2" points="566.07,-148 566.07,-438 1054.11,-438 1054.11,-148 566.07,-148"/>
<text text-anchor="middle" x="810.09" y="-423.6" font-family="Helvetica Bold" font-size="13.00" fill="#4a90d9">Functions</text>
</g>
<g id="clust2" class="cluster">
<title>cluster_key</title>
<polygon fill="none" stroke="#d4a017" stroke-dasharray="5,2" points="387.03,-58 387.03,-140 876.11,-140 876.11,-58 387.03,-58"/>
<text text-anchor="middle" x="631.57" y="-125.6" font-family="Helvetica Bold" font-size="13.00" fill="#d4a017">Key Theorem</text>
</g>
<g id="clust3" class="cluster">
<title>cluster_proofs</title>
<polygon fill="none" stroke="#28a745" stroke-dasharray="5,2" points="8,-245 8,-325 345.03,-325 345.03,-245 8,-245"/>
<text text-anchor="middle" x="176.51" y="-310.6" font-family="Helvetica Bold" font-size="13.00" fill="#28a745">Proof Dependencies</text>
</g>
<g id="clust4" class="cluster">
<title>cluster_stdlib</title>
<polygon fill="none" stroke="#e67e22" stroke-dasharray="5,2" points="117.89,-8 117.89,-190 235.14,-190 235.14,-8 117.89,-8"/>
<text text-anchor="middle" x="176.51" y="-175.6" font-family="Helvetica Bold" font-size="13.00" fill="#e67e22">Stdlib Lemmas</text>
</g>
<!-- L4YAML.Positioned -->
<g id="node1" class="node">
<title>L4YAML.Positioned</title>
<g id="a_node1"><a xlink:href="../../../api/L4YAML/Token/Token.html#L4YAML.Positioned" xlink:title="Positioned\n(inductive)" target="_blank">
<polygon fill="#dce9f7" stroke="#4a90d9" points="1018.61,-300 956.61,-300 956.61,-264 1018.61,-264 1018.61,-300"/>
<text text-anchor="middle" x="987.61" y="-285" font-family="Helvetica" font-size="10.00">Positioned</text>
<text text-anchor="middle" x="987.61" y="-274" font-family="Helvetica" font-size="10.00">(inductive)</text>
</a>
</g>
</g>
<!-- L4YAML.Scanner.ScannerState.advance -->
<g id="node2" class="node">
<title>L4YAML.Scanner.ScannerState.advance</title>
<g id="a_node2"><a xlink:href="../../../api/L4YAML/Scanner/State.html#L4YAML.Scanner.ScannerState.advance" xlink:title="ScannerState.advance\n(def)" target="_blank">
<polygon fill="#dce9f7" stroke="#4a90d9" points="689.07,-408 574.07,-408 574.07,-372 689.07,-372 689.07,-408"/>
<text text-anchor="middle" x="631.57" y="-393" font-family="Helvetica" font-size="10.00">ScannerState.advance</text>
<text text-anchor="middle" x="631.57" y="-382" font-family="Helvetica" font-size="10.00">(def)</text>
</a>
</g>
</g>
<!-- L4YAML.Scanner.scanFlowMappingStart -->
<g id="node3" class="node">
<title>L4YAML.Scanner.scanFlowMappingStart</title>
<g id="a_node3"><a xlink:href="../../../api/L4YAML/Scanner/Scanner.html#L4YAML.Scanner.scanFlowMappingStart" xlink:title="scanFlowMappingStart\n(def)" target="_blank">
<polygon fill="#dce9f7" stroke="#4a90d9" points="1046.11,-192 929.11,-192 929.11,-156 1046.11,-156 1046.11,-192"/>
<text text-anchor="middle" x="987.61" y="-177" font-family="Helvetica" font-size="10.00">scanFlowMappingStart</text>
<text text-anchor="middle" x="987.61" y="-166" font-family="Helvetica" font-size="10.00">(def)</text>
</a>
</g>
</g>
<!-- L4YAML.Scanner.ScannerState -->
<g id="node4" class="node">
<title>L4YAML.Scanner.ScannerState</title>
<g id="a_node4"><a xlink:href="../../../api/L4YAML/Scanner/State.html#L4YAML.Scanner.ScannerState" xlink:title="ScannerState\n(inductive)" target="_blank">
<polygon fill="#dce9f7" stroke="#4a90d9" points="1025.61,-246 949.61,-246 949.61,-210 1025.61,-210 1025.61,-246"/>
<text text-anchor="middle" x="987.61" y="-231" font-family="Helvetica" font-size="10.00">ScannerState</text>
<text text-anchor="middle" x="987.61" y="-220" font-family="Helvetica" font-size="10.00">(inductive)</text>
</a>
</g>
</g>
<!-- L4YAML.YamlToken -->
<g id="node5" class="node">
<title>L4YAML.YamlToken</title>
<g id="a_node5"><a xlink:href="../../../api/L4YAML/Token/Token.html#L4YAML.YamlToken" xlink:title="YamlToken\n(inductive)" target="_blank">
<polygon fill="#dce9f7" stroke="#4a90d9" points="1019.61,-354 955.61,-354 955.61,-318 1019.61,-318 1019.61,-354"/>
<text text-anchor="middle" x="987.61" y="-339" font-family="Helvetica" font-size="10.00">YamlToken</text>
<text text-anchor="middle" x="987.61" y="-328" font-family="Helvetica" font-size="10.00">(inductive)</text>
</a>
</g>
</g>
<!-- L4YAML.Scanner.ScannerState.tokens -->
<g id="node6" class="node">
<title>L4YAML.Scanner.ScannerState.tokens</title>
<g id="a_node6"><a xlink:href="../../../api/L4YAML/Scanner/State.html#L4YAML.Scanner.ScannerState.tokens" xlink:title="ScannerState.tokens\n(def)" target="_blank">
<polygon fill="#dce9f7" stroke="#4a90d9" points="1041.11,-408 934.11,-408 934.11,-372 1041.11,-372 1041.11,-408"/>
<text text-anchor="middle" x="987.61" y="-393" font-family="Helvetica" font-size="10.00">ScannerState.tokens</text>
<text text-anchor="middle" x="987.61" y="-382" font-family="Helvetica" font-size="10.00">(def)</text>
</a>
</g>
</g>
<!-- L4YAML.Proofs.ScannerCorrectness.scanFlowMappingStart_adds_one_token -->
<g id="node7" class="node">
<title>L4YAML.Proofs.ScannerCorrectness.scanFlowMappingStart_adds_one_token</title>
<g id="a_node7"><a xlink:href="../../../api/L4YAML/Proofs/Scanner/ScannerCorrectness.html#L4YAML.Proofs.ScannerCorrectness.scanFlowMappingStart_adds_one_token" xlink:title="ScannerCorrectness.scanFlowMappingStart_adds_one_token" target="_blank">
<polygon fill="#fff3cd" stroke="#d4a017" points="864.15,-80.54 864.15,-95.46 727.91,-106 535.23,-106 398.99,-95.46 398.99,-80.54 535.23,-70 727.91,-70 864.15,-80.54"/>
<polygon fill="none" stroke="#d4a017" points="868.15,-76.84 868.15,-99.16 728.06,-110 535.07,-110 394.99,-99.16 394.99,-76.84 535.07,-66 728.06,-66 868.15,-76.84"/>
<text text-anchor="middle" x="631.57" y="-84.9" font-family="Helvetica" font-size="12.00">ScannerCorrectness.scanFlowMappingStart_adds_one_token</text>
</a>
</g>
</g>
<!-- L4YAML.Proofs.ScannerCorrectness.scanFlowMappingStart_adds_one_token&#45;&gt;L4YAML.Positioned -->
<g id="edge2" class="edge">
<title>L4YAML.Proofs.ScannerCorrectness.scanFlowMappingStart_adds_one_token&#45;&gt;L4YAML.Positioned</title>
<path fill="none" stroke="#4a90d9" stroke-width="2" d="M806.44,-103.97C832.14,-112.77 856.53,-125.56 876.11,-144 887.58,-154.8 879.95,-163.5 886.11,-178 894.9,-198.7 900.17,-202.35 911.11,-222 919.24,-236.6 916.94,-243.55 929.11,-255 935.01,-260.56 942.26,-265.15 949.6,-268.87"/>
<polygon fill="#4a90d9" stroke="#4a90d9" stroke-width="2" points="948.96,-271.27 956.34,-272.05 951.05,-266.84 948.96,-271.27"/>
<text text-anchor="middle" x="898.61" y="-224.6" font-family="Times-Roman" font-size="8.00" fill="#4a90d9">about</text>
</g>
<!-- L4YAML.Proofs.ScannerCorrectness.scanFlowMappingStart_adds_one_token&#45;&gt;L4YAML.Scanner.scanFlowMappingStart -->
<g id="edge5" class="edge">
<title>L4YAML.Proofs.ScannerCorrectness.scanFlowMappingStart_adds_one_token&#45;&gt;L4YAML.Scanner.scanFlowMappingStart</title>
<path fill="none" stroke="#4a90d9" stroke-width="2" d="M837.65,-101.55C862.85,-106.55 887.88,-113.19 911.11,-122 928.95,-128.76 946.64,-140.59 960.4,-151.26"/>
<polygon fill="#4a90d9" stroke="#4a90d9" stroke-width="2" points="959.04,-153.31 966.05,-155.75 962.09,-149.48 959.04,-153.31"/>
<text text-anchor="middle" x="898.61" y="-124.6" font-family="Times-Roman" font-size="8.00" fill="#4a90d9">about</text>
</g>
<!-- L4YAML.Proofs.ScannerCorrectness.scanFlowMappingStart_adds_one_token&#45;&gt;L4YAML.Scanner.ScannerState -->
<g id="edge4" class="edge">
<title>L4YAML.Proofs.ScannerCorrectness.scanFlowMappingStart_adds_one_token&#45;&gt;L4YAML.Scanner.ScannerState</title>
<path fill="none" stroke="#4a90d9" stroke-width="2" d="M803.85,-104.21C843.82,-115.72 882.9,-134.54 911.11,-165 923.26,-178.13 916.3,-188.51 929.11,-201 933.31,-205.1 938.24,-208.66 943.43,-211.73"/>
<polygon fill="#4a90d9" stroke="#4a90d9" stroke-width="2" points="942.29,-213.89 949.6,-215.11 944.64,-209.59 942.29,-213.89"/>
<text text-anchor="middle" x="898.61" y="-167.6" font-family="Times-Roman" font-size="8.00" fill="#4a90d9">about</text>
</g>
<!-- L4YAML.Proofs.ScannerCorrectness.scanFlowMappingStart_adds_one_token&#45;&gt;L4YAML.YamlToken -->
<g id="edge3" class="edge">
<title>L4YAML.Proofs.ScannerCorrectness.scanFlowMappingStart_adds_one_token&#45;&gt;L4YAML.YamlToken</title>
<path fill="none" stroke="#4a90d9" stroke-width="2" d="M815.16,-103.3C838.29,-112.39 859.6,-125.44 876.11,-144 889.63,-159.2 879.75,-215.68 886.11,-235 886.85,-237.26 927.36,-307.39 929.11,-309 934.9,-314.3 941.92,-318.75 949.03,-322.4"/>
<polygon fill="#4a90d9" stroke="#4a90d9" stroke-width="2" points="948.19,-324.71 955.56,-325.53 950.31,-320.29 948.19,-324.71"/>
<text text-anchor="middle" x="898.61" y="-280.6" font-family="Times-Roman" font-size="8.00" fill="#4a90d9">about</text>
</g>
<!-- L4YAML.Proofs.ScannerCorrectness.scanFlowMappingStart_adds_one_token&#45;&gt;L4YAML.Scanner.ScannerState.tokens -->
<g id="edge1" class="edge">
<title>L4YAML.Proofs.ScannerCorrectness.scanFlowMappingStart_adds_one_token&#45;&gt;L4YAML.Scanner.ScannerState.tokens</title>
<path fill="none" stroke="#4a90d9" stroke-width="2" d="M817.07,-103.17C839.63,-112.32 860.27,-125.44 876.11,-144 897.36,-168.91 876.33,-259.75 886.11,-291 887.5,-295.45 925.65,-359.87 929.11,-363 931.06,-364.77 933.15,-366.44 935.34,-368.03"/>
<polygon fill="#4a90d9" stroke="#4a90d9" stroke-width="2" points="934.13,-370.16 941.31,-372 936.84,-366.08 934.13,-370.16"/>
<text text-anchor="middle" x="898.61" y="-335.6" font-family="Times-Roman" font-size="8.00" fill="#4a90d9">about</text>
</g>
<!-- L4YAML.Proofs.ScannerCorrectness.advance_preserves_tokens -->
<g id="node8" class="node">
<title>L4YAML.Proofs.ScannerCorrectness.advance_preserves_tokens</title>
<g id="a_node8"><a xlink:href="../../../api/L4YAML/Proofs/Scanner/ScannerCorrectness.html#L4YAML.Proofs.ScannerCorrectness.advance_preserves_tokens" xlink:title="ScannerCorrectness.advance_preserves_tokens\n(Scanner.ScannerCorrectness)" target="_blank">
<ellipse fill="#d4edda" stroke="#28a745" cx="176.51" cy="-274" rx="160.53" ry="21.43"/>
<text text-anchor="middle" x="176.51" y="-277" font-family="Helvetica" font-size="10.00">ScannerCorrectness.advance_preserves_tokens</text>
<text text-anchor="middle" x="176.51" y="-266" font-family="Helvetica" font-size="10.00">(Scanner.ScannerCorrectness)</text>
</a>
</g>
</g>
<!-- L4YAML.Proofs.ScannerCorrectness.advance_preserves_tokens&#45;&gt;L4YAML.Positioned -->
<g id="edge12" class="edge">
<title>L4YAML.Proofs.ScannerCorrectness.advance_preserves_tokens&#45;&gt;L4YAML.Positioned</title>
<path fill="none" stroke="#6f42c1" stroke-width="2" stroke-dasharray="5,2" d="M334.06,-269.74C477.63,-266.05 696.16,-261.01 886.11,-259 897.22,-258.88 900.12,-257.36 911.11,-259 924.63,-261.01 939.08,-264.95 951.68,-269.01"/>
<polygon fill="#6f42c1" stroke="#6f42c1" stroke-width="2" points="951.29,-270.72 956.59,-270.62 952.39,-267.4 951.29,-270.72"/>
<text text-anchor="middle" x="631.57" y="-270.4" font-family="Times-Roman" font-size="7.00" fill="#6f42c1">about</text>
</g>
<!-- L4YAML.Proofs.ScannerCorrectness.advance_preserves_tokens&#45;&gt;L4YAML.Scanner.ScannerState.advance -->
<g id="edge11" class="edge">
<title>L4YAML.Proofs.ScannerCorrectness.advance_preserves_tokens&#45;&gt;L4YAML.Scanner.ScannerState.advance</title>
<path fill="none" stroke="#6f42c1" stroke-width="2" stroke-dasharray="5,2" d="M211.46,-294.83C246.19,-315.06 302.37,-344.87 355.03,-360 426.52,-380.54 512.14,-387.21 568.76,-389.28"/>
<polygon fill="#6f42c1" stroke="#6f42c1" stroke-width="2" points="568.75,-391.03 573.81,-389.45 568.87,-387.53 568.75,-391.03"/>
<text text-anchor="middle" x="366.03" y="-367.4" font-family="Times-Roman" font-size="7.00" fill="#6f42c1">about</text>
</g>
<!-- L4YAML.Proofs.ScannerCorrectness.advance_preserves_tokens&#45;&gt;L4YAML.Scanner.ScannerState -->
<g id="edge14" class="edge">
<title>L4YAML.Proofs.ScannerCorrectness.advance_preserves_tokens&#45;&gt;L4YAML.Scanner.ScannerState</title>
<path fill="none" stroke="#6f42c1" stroke-width="2" stroke-dasharray="5,2" d="M288.87,-258.85C320.56,-254.75 355.13,-250.49 387.03,-247 608.42,-222.76 663.62,-212.01 886.11,-202 897.21,-201.5 900.15,-200.17 911.11,-202 922.14,-203.85 933.71,-207.11 944.39,-210.71"/>
<polygon fill="#6f42c1" stroke="#6f42c1" stroke-width="2" points="943.93,-212.41 949.23,-212.39 945.07,-209.1 943.93,-212.41"/>
<text text-anchor="middle" x="631.57" y="-249.4" font-family="Times-Roman" font-size="7.00" fill="#6f42c1">about</text>
</g>
<!-- L4YAML.Proofs.ScannerCorrectness.advance_preserves_tokens&#45;&gt;L4YAML.YamlToken -->
<g id="edge13" class="edge">
<title>L4YAML.Proofs.ScannerCorrectness.advance_preserves_tokens&#45;&gt;L4YAML.YamlToken</title>
<path fill="none" stroke="#6f42c1" stroke-width="2" stroke-dasharray="5,2" d="M328.47,-281.01C526.48,-290.46 855.4,-307.12 911.11,-316 924.11,-318.07 938.11,-321.45 950.49,-324.85"/>
<polygon fill="#6f42c1" stroke="#6f42c1" stroke-width="2" points="950.03,-326.54 955.32,-326.2 950.98,-323.17 950.03,-326.54"/>
<text text-anchor="middle" x="631.57" y="-313.4" font-family="Times-Roman" font-size="7.00" fill="#6f42c1">about</text>
</g>
<!-- L4YAML.Proofs.ScannerCorrectness.advance_preserves_tokens&#45;&gt;L4YAML.Scanner.ScannerState.tokens -->
<g id="edge10" class="edge">
<title>L4YAML.Proofs.ScannerCorrectness.advance_preserves_tokens&#45;&gt;L4YAML.Scanner.ScannerState.tokens</title>
<path fill="none" stroke="#6f42c1" stroke-width="2" stroke-dasharray="5,2" d="M246.32,-293.11C286.94,-303.63 339.55,-315.94 387.03,-323 602.49,-355.02 662.03,-314.71 876.11,-355 895.09,-358.57 915.37,-364.39 933.31,-370.26"/>
<polygon fill="#6f42c1" stroke="#6f42c1" stroke-width="2" points="933,-372 938.3,-371.91 934.11,-368.68 933,-372"/>
<text text-anchor="middle" x="631.57" y="-357.4" font-family="Times-Roman" font-size="7.00" fill="#6f42c1">about</text>
</g>
<!-- L4YAML.Proofs.ScannerCorrectness.advance_preserves_tokens&#45;&gt;L4YAML.Proofs.ScannerCorrectness.scanFlowMappingStart_adds_one_token -->
<g id="edge6" class="edge">
<title>L4YAML.Proofs.ScannerCorrectness.advance_preserves_tokens&#45;&gt;L4YAML.Proofs.ScannerCorrectness.scanFlowMappingStart_adds_one_token</title>
<path fill="none" stroke="#28a745" d="M242.04,-254.61C276,-241.8 316.4,-222.11 345.03,-194 352.12,-187.04 349.09,-181.97 355.03,-174 366.68,-158.37 369.82,-153.17 387.03,-144 416.96,-128.05 451.33,-116.62 484.63,-108.43"/>
<polygon fill="#28a745" stroke="#28a745" points="485.48,-110.75 491.72,-106.73 484.34,-105.98 485.48,-110.75"/>
</g>
<!-- eq_self -->
<g id="node9" class="node">
<title>eq_self</title>
<g id="a_node9"><a xlink:href="../../../api/Init/SimpLemmas.html#eq_self" xlink:title="eq_self" target="_blank">
<ellipse fill="#fdebd0" stroke="#e67e22" cx="176.51" cy="-142" rx="28.01" ry="18"/>
<text text-anchor="middle" x="176.51" y="-139.5" font-family="Helvetica" font-size="10.00">eq_self</text>
</a>
</g>
</g>
<!-- eq_self&#45;&gt;L4YAML.Proofs.ScannerCorrectness.scanFlowMappingStart_adds_one_token -->
<g id="edge7" class="edge">
<title>eq_self&#45;&gt;L4YAML.Proofs.ScannerCorrectness.scanFlowMappingStart_adds_one_token</title>
<path fill="none" stroke="#e67e22" stroke-width="2" d="M204.5,-138.78C256.73,-132.56 375.19,-118.44 473.98,-106.66"/>
<polygon fill="#e67e22" stroke="#e67e22" stroke-width="2" points="474.4,-109.08 481.06,-105.82 473.82,-104.22 474.4,-109.08"/>
</g>
<!-- of_eq_true -->
<g id="node10" class="node">
<title>of_eq_true</title>
<g id="a_node10"><a xlink:href="../../../api/Init/SimpLemmas.html#of_eq_true" xlink:title="of_eq_true" target="_blank">
<ellipse fill="#fdebd0" stroke="#e67e22" cx="176.51" cy="-88" rx="36.49" ry="18"/>
<text text-anchor="middle" x="176.51" y="-85.5" font-family="Helvetica" font-size="10.00">of_eq_true</text>
</a>
</g>
</g>
<!-- of_eq_true&#45;&gt;L4YAML.Proofs.ScannerCorrectness.scanFlowMappingStart_adds_one_token -->
<g id="edge8" class="edge">
<title>of_eq_true&#45;&gt;L4YAML.Proofs.ScannerCorrectness.scanFlowMappingStart_adds_one_token</title>
<path fill="none" stroke="#e67e22" stroke-width="2" d="M213.06,-88C252.29,-88 319.02,-88 387.76,-88"/>
<polygon fill="#e67e22" stroke="#e67e22" stroke-width="2" points="387.84,-90.45 394.84,-88 387.84,-85.55 387.84,-90.45"/>
</g>
<!-- Array.size_push -->
<g id="node11" class="node">
<title>Array.size_push</title>
<g id="a_node11"><a xlink:href="../../../api/Init/Data/Array/Basic.html#Array.size_push" xlink:title="Array.size_push" target="_blank">
<ellipse fill="#fdebd0" stroke="#e67e22" cx="176.51" cy="-34" rx="50.75" ry="18"/>
<text text-anchor="middle" x="176.51" y="-31.5" font-family="Helvetica" font-size="10.00">Array.size_push</text>
</a>
</g>
</g>
<!-- Array.size_push&#45;&gt;L4YAML.Proofs.ScannerCorrectness.scanFlowMappingStart_adds_one_token -->
<g id="edge9" class="edge">
<title>Array.size_push&#45;&gt;L4YAML.Proofs.ScannerCorrectness.scanFlowMappingStart_adds_one_token</title>
<path fill="none" stroke="#e67e22" stroke-width="2" d="M224.72,-39.63C283.36,-46.62 386.38,-58.89 473.95,-69.33"/>
<polygon fill="#e67e22" stroke="#e67e22" stroke-width="2" points="473.78,-71.78 481.03,-70.18 474.36,-66.91 473.78,-71.78"/>
</g>
</g>
</svg>
