<?xml version="1.0" encoding="UTF-8" standalone="no"?>
<!DOCTYPE svg PUBLIC "-//W3C//DTD SVG 1.1//EN"
 "http://www.w3.org/Graphics/SVG/1.1/DTD/svg11.dtd">
<!-- Generated by graphviz version 2.44.0 (0)
 -->
<!-- Title: ScannerCorrectness.ScanHelpers.scanBlockScalarConsumeNewline_preserves_tokens Pages: 1 -->
<svg width="1363pt" height="508pt"
 viewBox="0.00 0.00 1363.16 508.00" xmlns="http://www.w3.org/2000/svg" xmlns:xlink="http://www.w3.org/1999/xlink">
<g id="graph0" class="graph" transform="scale(1 1) rotate(0) translate(4 504)">
<title>ScannerCorrectness.ScanHelpers.scanBlockScalarConsumeNewline_preserves_tokens</title>
<polygon fill="white" stroke="transparent" points="-4,4 -4,-504 1359.16,-504 1359.16,4 -4,4"/>
<text text-anchor="middle" x="677.58" y="-485.6" font-family="Helvetica Bold" font-size="13.00">ScannerCorrectness.ScanHelpers.scanBlockScalarConsumeNewline_preserves_tokens</text>
<text text-anchor="middle" x="677.58" y="-471.6" font-family="Helvetica Bold" font-size="13.00">(heuristic: used by 6 proofs)</text>
<text text-anchor="middle" x="677.58" y="-457.6" font-family="Helvetica Bold" font-size="13.00">(L4YAML.Proofs.Scanner.ScannerCorrectness)</text>
<g id="clust1" class="cluster">
<title>cluster_functions</title>
<polygon fill="none" stroke="#4a90d9" stroke-dasharray="5,2" points="726.67,-98 726.67,-442 1347.16,-442 1347.16,-98 726.67,-98"/>
<text text-anchor="middle" x="1036.92" y="-427.6" font-family="Helvetica Bold" font-size="13.00" fill="#4a90d9">Functions</text>
</g>
<g id="clust2" class="cluster">
<title>cluster_key</title>
<polygon fill="none" stroke="#d4a017" stroke-dasharray="5,2" points="442.18,-8 442.18,-90 1119.16,-90 1119.16,-8 442.18,-8"/>
<text text-anchor="middle" x="780.67" y="-75.6" font-family="Helvetica Bold" font-size="13.00" fill="#d4a017">Key Theorem</text>
</g>
<g id="clust3" class="cluster">
<title>cluster_proofs</title>
<polygon fill="none" stroke="#28a745" stroke-dasharray="5,2" points="8,-255 8,-335 400.18,-335 400.18,-255 8,-255"/>
<text text-anchor="middle" x="204.09" y="-320.6" font-family="Helvetica Bold" font-size="13.00" fill="#28a745">Proof Dependencies</text>
</g>
<!-- L4YAML.Positioned -->
<g id="node1" class="node">
<title>L4YAML.Positioned</title>
<g id="a_node1"><a xlink:href="../../../api/L4YAML/Token/Token.html#L4YAML.Positioned" xlink:title="Positioned\n(inductive)" target="_blank">
<polygon fill="#dce9f7" stroke="#4a90d9" points="1286.66,-358 1224.66,-358 1224.66,-322 1286.66,-322 1286.66,-358"/>
<text text-anchor="middle" x="1255.66" y="-343" font-family="Helvetica" font-size="10.00">Positioned</text>
<text text-anchor="middle" x="1255.66" y="-332" font-family="Helvetica" font-size="10.00">(inductive)</text>
</a>
</g>
</g>
<!-- L4YAML.Scanner.consumeNewline -->
<g id="node2" class="node">
<title>L4YAML.Scanner.consumeNewline</title>
<g id="a_node2"><a xlink:href="../../../api/L4YAML/Scanner/Whitespace.html#L4YAML.Scanner.consumeNewline" xlink:title="consumeNewline\n(def)" target="_blank">
<polygon fill="#dce9f7" stroke="#4a90d9" points="826.67,-412 734.67,-412 734.67,-376 826.67,-376 826.67,-412"/>
<text text-anchor="middle" x="780.67" y="-397" font-family="Helvetica" font-size="10.00">consumeNewline</text>
<text text-anchor="middle" x="780.67" y="-386" font-family="Helvetica" font-size="10.00">(def)</text>
</a>
</g>
</g>
<!-- L4YAML.Scanner.ScannerState -->
<g id="node3" class="node">
<title>L4YAML.Scanner.ScannerState</title>
<g id="a_node3"><a xlink:href="../../../api/L4YAML/Scanner/State.html#L4YAML.Scanner.ScannerState" xlink:title="ScannerState\n(inductive)" target="_blank">
<polygon fill="#dce9f7" stroke="#4a90d9" points="1293.66,-412 1217.66,-412 1217.66,-376 1293.66,-376 1293.66,-412"/>
<text text-anchor="middle" x="1255.66" y="-397" font-family="Helvetica" font-size="10.00">ScannerState</text>
<text text-anchor="middle" x="1255.66" y="-386" font-family="Helvetica" font-size="10.00">(inductive)</text>
</a>
</g>
</g>
<!-- L4YAML.YamlToken -->
<g id="node4" class="node">
<title>L4YAML.YamlToken</title>
<g id="a_node4"><a xlink:href="../../../api/L4YAML/Token/Token.html#L4YAML.YamlToken" xlink:title="YamlToken\n(inductive)" target="_blank">
<polygon fill="#dce9f7" stroke="#4a90d9" points="1287.66,-250 1223.66,-250 1223.66,-214 1287.66,-214 1287.66,-250"/>
<text text-anchor="middle" x="1255.66" y="-235" font-family="Helvetica" font-size="10.00">YamlToken</text>
<text text-anchor="middle" x="1255.66" y="-224" font-family="Helvetica" font-size="10.00">(inductive)</text>
</a>
</g>
</g>
<!-- L4YAML.ScanError -->
<g id="node5" class="node">
<title>L4YAML.ScanError</title>
<g id="a_node5"><a xlink:href="../../../api/L4YAML/Token/Token.html#L4YAML.ScanError" xlink:title="ScanError\n(inductive)" target="_blank">
<polygon fill="#dce9f7" stroke="#4a90d9" points="1286.66,-142 1224.66,-142 1224.66,-106 1286.66,-106 1286.66,-142"/>
<text text-anchor="middle" x="1255.66" y="-127" font-family="Helvetica" font-size="10.00">ScanError</text>
<text text-anchor="middle" x="1255.66" y="-116" font-family="Helvetica" font-size="10.00">(inductive)</text>
</a>
</g>
</g>
<!-- L4YAML.Scanner.scanBlockScalarConsumeNewline -->
<g id="node6" class="node">
<title>L4YAML.Scanner.scanBlockScalarConsumeNewline</title>
<g id="a_node6"><a xlink:href="../../../api/L4YAML/Scanner/Scalar.html#L4YAML.Scanner.scanBlockScalarConsumeNewline" xlink:title="scanBlockScalarConsumeNewline\n(def)" target="_blank">
<polygon fill="#dce9f7" stroke="#4a90d9" points="1339.16,-196 1172.16,-196 1172.16,-160 1339.16,-160 1339.16,-196"/>
<text text-anchor="middle" x="1255.66" y="-181" font-family="Helvetica" font-size="10.00">scanBlockScalarConsumeNewline</text>
<text text-anchor="middle" x="1255.66" y="-170" font-family="Helvetica" font-size="10.00">(def)</text>
</a>
</g>
</g>
<!-- L4YAML.Scanner.ScannerState.tokens -->
<g id="node7" class="node">
<title>L4YAML.Scanner.ScannerState.tokens</title>
<g id="a_node7"><a xlink:href="../../../api/L4YAML/Scanner/State.html#L4YAML.Scanner.ScannerState.tokens" xlink:title="ScannerState.tokens\n(def)" target="_blank">
<polygon fill="#dce9f7" stroke="#4a90d9" points="1309.16,-304 1202.16,-304 1202.16,-268 1309.16,-268 1309.16,-304"/>
<text text-anchor="middle" x="1255.66" y="-289" font-family="Helvetica" font-size="10.00">ScannerState.tokens</text>
<text text-anchor="middle" x="1255.66" y="-278" font-family="Helvetica" font-size="10.00">(def)</text>
</a>
</g>
</g>
<!-- L4YAML.Proofs.ScannerCorrectness.ScanHelpers.scanBlockScalarConsumeNewline_preserves_tokens -->
<g id="node8" class="node">
<title>L4YAML.Proofs.ScannerCorrectness.ScanHelpers.scanBlockScalarConsumeNewline_preserves_tokens</title>
<g id="a_node8"><a xlink:href="../../../api/L4YAML/Proofs/Scanner/ScannerCorrectness.html#L4YAML.Proofs.ScannerCorrectness.ScanHelpers.scanBlockScalarConsumeNewline_preserves_tokens" xlink:title="ScannerCorrectness.ScanHelpers.scanBlockScalarConsumeNewline_preserves_tokens" target="_blank">
<polygon fill="#fff3cd" stroke="#d4a017" points="1107.15,-30.54 1107.15,-45.46 915.9,-56 645.44,-56 454.19,-45.46 454.19,-30.54 645.44,-20 915.9,-20 1107.15,-30.54"/>
<polygon fill="none" stroke="#d4a017" points="1111.15,-26.76 1111.15,-49.24 916.01,-60 645.33,-60 450.19,-49.24 450.19,-26.76 645.33,-16 916.01,-16 1111.15,-26.76"/>
<text text-anchor="middle" x="780.67" y="-34.9" font-family="Helvetica" font-size="12.00">ScannerCorrectness.ScanHelpers.scanBlockScalarConsumeNewline_preserves_tokens</text>
</a>
</g>
</g>
<!-- L4YAML.Proofs.ScannerCorrectness.ScanHelpers.scanBlockScalarConsumeNewline_preserves_tokens&#45;&gt;L4YAML.Positioned -->
<g id="edge2" class="edge">
<title>L4YAML.Proofs.ScannerCorrectness.ScanHelpers.scanBlockScalarConsumeNewline_preserves_tokens&#45;&gt;L4YAML.Positioned</title>
<path fill="none" stroke="#4a90d9" stroke-width="2" d="M1060.67,-52.05C1082.56,-62.31 1102.57,-75.98 1119.16,-94 1137.58,-114.01 1121.62,-189.86 1129.16,-216 1135.83,-239.11 1144.44,-242 1154.16,-264 1163.54,-285.22 1155.47,-296.89 1172.16,-313 1184.39,-324.8 1201.84,-331.44 1217.55,-335.18"/>
<polygon fill="#4a90d9" stroke="#4a90d9" stroke-width="2" points="1217.27,-337.62 1224.62,-336.7 1218.3,-332.83 1217.27,-337.62"/>
<text text-anchor="middle" x="1141.66" y="-266.6" font-family="Times-Roman" font-size="8.00" fill="#4a90d9">about</text>
</g>
<!-- L4YAML.Proofs.ScannerCorrectness.ScanHelpers.scanBlockScalarConsumeNewline_preserves_tokens&#45;&gt;L4YAML.Scanner.ScannerState -->
<g id="edge5" class="edge">
<title>L4YAML.Proofs.ScannerCorrectness.ScanHelpers.scanBlockScalarConsumeNewline_preserves_tokens&#45;&gt;L4YAML.Scanner.ScannerState</title>
<path fill="none" stroke="#4a90d9" stroke-width="2" d="M1061.96,-51.98C1083.44,-62.28 1103,-75.98 1119.16,-94 1132.46,-108.83 1124.34,-253.67 1129.16,-273 1135.57,-298.66 1143.18,-302.94 1154.16,-327 1162.26,-344.73 1157.66,-353.97 1172.16,-367 1182.85,-376.61 1197.03,-382.8 1210.61,-386.8"/>
<polygon fill="#4a90d9" stroke="#4a90d9" stroke-width="2" points="1210.24,-389.24 1217.63,-388.69 1211.51,-384.5 1210.24,-389.24"/>
<text text-anchor="middle" x="1141.66" y="-329.6" font-family="Times-Roman" font-size="8.00" fill="#4a90d9">about</text>
</g>
<!-- L4YAML.Proofs.ScannerCorrectness.ScanHelpers.scanBlockScalarConsumeNewline_preserves_tokens&#45;&gt;L4YAML.YamlToken -->
<g id="edge4" class="edge">
<title>L4YAML.Proofs.ScannerCorrectness.ScanHelpers.scanBlockScalarConsumeNewline_preserves_tokens&#45;&gt;L4YAML.YamlToken</title>
<path fill="none" stroke="#4a90d9" stroke-width="2" d="M1042.07,-53.17C1069.91,-62.71 1096.35,-75.92 1119.16,-94 1128.22,-101.18 1123.09,-108.17 1129.16,-118 1138.1,-132.48 1145.91,-132.12 1154.16,-147 1167.25,-170.61 1153.22,-185.77 1172.16,-205 1183.9,-216.92 1200.97,-223.58 1216.54,-227.3"/>
<polygon fill="#4a90d9" stroke="#4a90d9" stroke-width="2" points="1216.2,-229.73 1223.56,-228.81 1217.23,-224.94 1216.2,-229.73"/>
<text text-anchor="middle" x="1141.66" y="-149.6" font-family="Times-Roman" font-size="8.00" fill="#4a90d9">about</text>
</g>
<!-- L4YAML.Proofs.ScannerCorrectness.ScanHelpers.scanBlockScalarConsumeNewline_preserves_tokens&#45;&gt;L4YAML.ScanError -->
<g id="edge6" class="edge">
<title>L4YAML.Proofs.ScannerCorrectness.ScanHelpers.scanBlockScalarConsumeNewline_preserves_tokens&#45;&gt;L4YAML.ScanError</title>
<path fill="none" stroke="#4a90d9" stroke-width="2" d="M1095.11,-50.17C1115.28,-54.19 1135.12,-59.08 1154.16,-65 1179.79,-72.97 1205.84,-88.52 1224.99,-101.66"/>
<polygon fill="#4a90d9" stroke="#4a90d9" stroke-width="2" points="1223.82,-103.83 1230.96,-105.83 1226.63,-99.81 1223.82,-103.83"/>
<text text-anchor="middle" x="1141.66" y="-67.6" font-family="Times-Roman" font-size="8.00" fill="#4a90d9">about</text>
</g>
<!-- L4YAML.Proofs.ScannerCorrectness.ScanHelpers.scanBlockScalarConsumeNewline_preserves_tokens&#45;&gt;L4YAML.Scanner.scanBlockScalarConsumeNewline -->
<g id="edge3" class="edge">
<title>L4YAML.Proofs.ScannerCorrectness.ScanHelpers.scanBlockScalarConsumeNewline_preserves_tokens&#45;&gt;L4YAML.Scanner.scanBlockScalarConsumeNewline</title>
<path fill="none" stroke="#4a90d9" stroke-width="2" d="M1059.82,-52.23C1095.02,-64.55 1127.86,-82.7 1154.16,-109 1168.52,-123.36 1157.18,-137.29 1172.16,-151 1174.11,-152.78 1176.18,-154.45 1178.34,-156.01"/>
<polygon fill="#4a90d9" stroke="#4a90d9" stroke-width="2" points="1177.07,-158.1 1184.27,-159.87 1179.75,-154 1177.07,-158.1"/>
<text text-anchor="middle" x="1141.66" y="-111.6" font-family="Times-Roman" font-size="8.00" fill="#4a90d9">about</text>
</g>
<!-- L4YAML.Proofs.ScannerCorrectness.ScanHelpers.scanBlockScalarConsumeNewline_preserves_tokens&#45;&gt;L4YAML.Scanner.ScannerState.tokens -->
<g id="edge1" class="edge">
<title>L4YAML.Proofs.ScannerCorrectness.ScanHelpers.scanBlockScalarConsumeNewline_preserves_tokens&#45;&gt;L4YAML.Scanner.ScannerState.tokens</title>
<path fill="none" stroke="#4a90d9" stroke-width="2" d="M1056.78,-52.38C1079.91,-62.46 1101.25,-76.01 1119.16,-94 1138.85,-113.78 1120.7,-129.4 1129.16,-156 1136.81,-180.06 1144.46,-183.7 1154.16,-207 1163.56,-229.58 1154.72,-241.85 1172.16,-259 1178.67,-265.4 1186.72,-270.28 1195.21,-274.01"/>
<polygon fill="#4a90d9" stroke="#4a90d9" stroke-width="2" points="1194.36,-276.31 1201.77,-276.64 1196.18,-271.76 1194.36,-276.31"/>
<text text-anchor="middle" x="1141.66" y="-209.6" font-family="Times-Roman" font-size="8.00" fill="#4a90d9">about</text>
</g>
<!-- L4YAML.Proofs.ScannerCorrectness.consumeNewline_preserves_tokens -->
<g id="node9" class="node">
<title>L4YAML.Proofs.ScannerCorrectness.consumeNewline_preserves_tokens</title>
<g id="a_node9"><a xlink:href="../../../api/L4YAML/Proofs/Scanner/ScannerCorrectness.html#L4YAML.Proofs.ScannerCorrectness.consumeNewline_preserves_tokens" xlink:title="ScannerCorrectness.consumeNewline_preserves_tokens\n(Scanner.ScannerCorrectness)" target="_blank">
<ellipse fill="#d4edda" stroke="#28a745" cx="204.09" cy="-284" rx="188.18" ry="21.43"/>
<text text-anchor="middle" x="204.09" y="-287" font-family="Helvetica" font-size="10.00">ScannerCorrectness.consumeNewline_preserves_tokens</text>
<text text-anchor="middle" x="204.09" y="-276" font-family="Helvetica" font-size="10.00">(Scanner.ScannerCorrectness)</text>
</a>
</g>
</g>
<!-- L4YAML.Proofs.ScannerCorrectness.consumeNewline_preserves_tokens&#45;&gt;L4YAML.Positioned -->
<g id="edge9" class="edge">
<title>L4YAML.Proofs.ScannerCorrectness.consumeNewline_preserves_tokens&#45;&gt;L4YAML.Positioned</title>
<path fill="none" stroke="#6f42c1" stroke-width="2" stroke-dasharray="5,2" d="M384.48,-290.03C629.99,-298.44 1048.42,-313.41 1119.16,-320 1153.49,-323.2 1192.39,-329.19 1219.68,-333.78"/>
<polygon fill="#6f42c1" stroke="#6f42c1" stroke-width="2" points="1219.41,-335.51 1224.64,-334.62 1220,-332.06 1219.41,-335.51"/>
<text text-anchor="middle" x="780.67" y="-322.4" font-family="Times-Roman" font-size="7.00" fill="#6f42c1">about</text>
</g>
<!-- L4YAML.Proofs.ScannerCorrectness.consumeNewline_preserves_tokens&#45;&gt;L4YAML.Scanner.consumeNewline -->
<g id="edge12" class="edge">
<title>L4YAML.Proofs.ScannerCorrectness.consumeNewline_preserves_tokens&#45;&gt;L4YAML.Scanner.consumeNewline</title>
<path fill="none" stroke="#6f42c1" stroke-width="2" stroke-dasharray="5,2" d="M247.54,-304.77C288.23,-323.66 351.9,-350.57 410.18,-364 522.26,-389.83 657.92,-394.21 729.62,-394.51"/>
<polygon fill="#6f42c1" stroke="#6f42c1" stroke-width="2" points="729.66,-396.26 734.67,-394.52 729.67,-392.76 729.66,-396.26"/>
<text text-anchor="middle" x="421.18" y="-370.4" font-family="Times-Roman" font-size="7.00" fill="#6f42c1">about</text>
</g>
<!-- L4YAML.Proofs.ScannerCorrectness.consumeNewline_preserves_tokens&#45;&gt;L4YAML.Scanner.ScannerState -->
<g id="edge11" class="edge">
<title>L4YAML.Proofs.ScannerCorrectness.consumeNewline_preserves_tokens&#45;&gt;L4YAML.Scanner.ScannerState</title>
<path fill="none" stroke="#6f42c1" stroke-width="2" stroke-dasharray="5,2" d="M290.81,-302.86C335.68,-311.98 391.65,-322.18 442.18,-328 741.4,-362.45 821.32,-314.21 1119.16,-359 1150.94,-363.78 1186.05,-372.96 1212.57,-380.72"/>
<polygon fill="#6f42c1" stroke="#6f42c1" stroke-width="2" points="1212.13,-382.42 1217.42,-382.16 1213.12,-379.06 1212.13,-382.42"/>
<text text-anchor="middle" x="780.67" y="-361.4" font-family="Times-Roman" font-size="7.00" fill="#6f42c1">about</text>
</g>
<!-- L4YAML.Proofs.ScannerCorrectness.consumeNewline_preserves_tokens&#45;&gt;L4YAML.YamlToken -->
<g id="edge10" class="edge">
<title>L4YAML.Proofs.ScannerCorrectness.consumeNewline_preserves_tokens&#45;&gt;L4YAML.YamlToken</title>
<path fill="none" stroke="#6f42c1" stroke-width="2" stroke-dasharray="5,2" d="M324.93,-267.7C362.42,-263.05 403.97,-258.33 442.18,-255 746.77,-228.42 823.52,-227 1129.16,-219 1140.27,-218.71 1143.07,-218.29 1154.16,-219 1175.51,-220.37 1199.24,-223.38 1218.28,-226.15"/>
<polygon fill="#6f42c1" stroke="#6f42c1" stroke-width="2" points="1218.32,-227.92 1223.53,-226.92 1218.84,-224.46 1218.32,-227.92"/>
<text text-anchor="middle" x="780.67" y="-257.4" font-family="Times-Roman" font-size="7.00" fill="#6f42c1">about</text>
</g>
<!-- L4YAML.Proofs.ScannerCorrectness.consumeNewline_preserves_tokens&#45;&gt;L4YAML.Scanner.ScannerState.tokens -->
<g id="edge8" class="edge">
<title>L4YAML.Proofs.ScannerCorrectness.consumeNewline_preserves_tokens&#45;&gt;L4YAML.Scanner.ScannerState.tokens</title>
<path fill="none" stroke="#6f42c1" stroke-width="2" stroke-dasharray="5,2" d="M382.76,-277.35C402.8,-276.8 422.93,-276.32 442.18,-276 758.57,-270.66 838.11,-260.32 1154.16,-276 1168.04,-276.69 1182.96,-277.91 1196.95,-279.27"/>
<polygon fill="#6f42c1" stroke="#6f42c1" stroke-width="2" points="1196.91,-281.02 1202.05,-279.77 1197.25,-277.54 1196.91,-281.02"/>
<text text-anchor="middle" x="780.67" y="-278.4" font-family="Times-Roman" font-size="7.00" fill="#6f42c1">about</text>
</g>
<!-- L4YAML.Proofs.ScannerCorrectness.consumeNewline_preserves_tokens&#45;&gt;L4YAML.Proofs.ScannerCorrectness.ScanHelpers.scanBlockScalarConsumeNewline_preserves_tokens -->
<g id="edge7" class="edge">
<title>L4YAML.Proofs.ScannerCorrectness.consumeNewline_preserves_tokens&#45;&gt;L4YAML.Proofs.ScannerCorrectness.ScanHelpers.scanBlockScalarConsumeNewline_preserves_tokens</title>
<path fill="none" stroke="#28a745" d="M224.21,-262.69C261.67,-222.42 349.23,-135.51 442.18,-94 479.6,-77.29 521.38,-65.52 562.43,-57.24"/>
<polygon fill="#28a745" stroke="#28a745" points="563.15,-59.59 569.55,-55.83 562.21,-54.78 563.15,-59.59"/>
</g>
</g>
</svg>
