<?xml version="1.0" encoding="UTF-8" standalone="no"?>
<!DOCTYPE svg PUBLIC "-//W3C//DTD SVG 1.1//EN"
 "http://www.w3.org/Graphics/SVG/1.1/DTD/svg11.dtd">
<!-- Generated by graphviz version 2.44.0 (0)
 -->
<!-- Title: ScannerCorrectness.ScanHelpers.scanBlockEntry_adds_tokens Pages: 1 -->
<svg width="1250pt" height="1394pt"
 viewBox="0.00 0.00 1250.05 1394.06" xmlns="http://www.w3.org/2000/svg" xmlns:xlink="http://www.w3.org/1999/xlink">
<g id="graph0" class="graph" transform="scale(1 1) rotate(0) translate(4 1390.06)">
<title>ScannerCorrectness.ScanHelpers.scanBlockEntry_adds_tokens</title>
<polygon fill="white" stroke="transparent" points="-4,4 -4,-1390.06 1246.05,-1390.06 1246.05,4 -4,4"/>
<text text-anchor="middle" x="621.02" y="-1371.66" font-family="Helvetica Bold" font-size="13.00">ScannerCorrectness.ScanHelpers.scanBlockEntry_adds_tokens</text>
<text text-anchor="middle" x="621.02" y="-1357.66" font-family="Helvetica Bold" font-size="13.00">(heuristic: used by 7 proofs)</text>
<text text-anchor="middle" x="621.02" y="-1343.66" font-family="Helvetica Bold" font-size="13.00">(L4YAML.Proofs.Scanner.ScannerCorrectness)</text>
<g id="clust1" class="cluster">
<title>cluster_functions</title>
<polygon fill="none" stroke="#4a90d9" stroke-dasharray="5,2" points="748.01,-984.06 748.01,-1328.06 1234.05,-1328.06 1234.05,-984.06 748.01,-984.06"/>
<text text-anchor="middle" x="991.03" y="-1313.66" font-family="Helvetica Bold" font-size="13.00" fill="#4a90d9">Functions</text>
</g>
<g id="clust2" class="cluster">
<title>cluster_key</title>
<polygon fill="none" stroke="#d4a017" stroke-dasharray="5,2" points="560.97,-894.06 560.97,-976.06 1066.05,-976.06 1066.05,-894.06 560.97,-894.06"/>
<text text-anchor="middle" x="813.51" y="-961.66" font-family="Helvetica Bold" font-size="13.00" fill="#d4a017">Key Theorem</text>
</g>
<g id="clust3" class="cluster">
<title>cluster_proofs</title>
<polygon fill="none" stroke="#28a745" stroke-dasharray="5,2" points="8,-380.06 8,-700.06 518.97,-700.06 518.97,-380.06 8,-380.06"/>
<text text-anchor="middle" x="263.49" y="-685.66" font-family="Helvetica Bold" font-size="13.00" fill="#28a745">Proof Dependencies</text>
</g>
<g id="clust4" class="cluster">
<title>cluster_stdlib</title>
<polygon fill="none" stroke="#e67e22" stroke-dasharray="5,2" points="178.37,-962.06 178.37,-1036.06 348.6,-1036.06 348.6,-962.06 178.37,-962.06"/>
<text text-anchor="middle" x="263.49" y="-1021.66" font-family="Helvetica Bold" font-size="13.00" fill="#e67e22">Stdlib Lemmas</text>
</g>
<!-- L4YAML.Scanner.ScannerState.emit -->
<g id="node1" class="node">
<title>L4YAML.Scanner.ScannerState.emit</title>
<g id="a_node1"><a xlink:href="../../../api/L4YAML/Scanner/State.html#L4YAML.Scanner.ScannerState.emit" xlink:title="ScannerState.emit\n(def)" target="_blank">
<polygon fill="#dce9f7" stroke="#4a90d9" points="862.51,-1082.06 764.51,-1082.06 764.51,-1046.06 862.51,-1046.06 862.51,-1082.06"/>
<text text-anchor="middle" x="813.51" y="-1067.06" font-family="Helvetica" font-size="10.00">ScannerState.emit</text>
<text text-anchor="middle" x="813.51" y="-1056.06" font-family="Helvetica" font-size="10.00">(def)</text>
</a>
</g>
</g>
<!-- L4YAML.Positioned -->
<g id="node2" class="node">
<title>L4YAML.Positioned</title>
<g id="a_node2"><a xlink:href="../../../api/L4YAML/Token/Token.html#L4YAML.Positioned" xlink:title="Positioned\n(inductive)" target="_blank">
<polygon fill="#dce9f7" stroke="#4a90d9" points="1203.55,-1028.06 1141.55,-1028.06 1141.55,-992.06 1203.55,-992.06 1203.55,-1028.06"/>
<text text-anchor="middle" x="1172.55" y="-1013.06" font-family="Helvetica" font-size="10.00">Positioned</text>
<text text-anchor="middle" x="1172.55" y="-1002.06" font-family="Helvetica" font-size="10.00">(inductive)</text>
</a>
</g>
</g>
<!-- L4YAML.Scanner.ScannerState.advance -->
<g id="node3" class="node">
<title>L4YAML.Scanner.ScannerState.advance</title>
<g id="a_node3"><a xlink:href="../../../api/L4YAML/Scanner/State.html#L4YAML.Scanner.ScannerState.advance" xlink:title="ScannerState.advance\n(def)" target="_blank">
<polygon fill="#dce9f7" stroke="#4a90d9" points="871.01,-1028.06 756.01,-1028.06 756.01,-992.06 871.01,-992.06 871.01,-1028.06"/>
<text text-anchor="middle" x="813.51" y="-1013.06" font-family="Helvetica" font-size="10.00">ScannerState.advance</text>
<text text-anchor="middle" x="813.51" y="-1002.06" font-family="Helvetica" font-size="10.00">(def)</text>
</a>
</g>
</g>
<!-- L4YAML.Scanner.ScannerState -->
<g id="node4" class="node">
<title>L4YAML.Scanner.ScannerState</title>
<g id="a_node4"><a xlink:href="../../../api/L4YAML/Scanner/State.html#L4YAML.Scanner.ScannerState" xlink:title="ScannerState\n(inductive)" target="_blank">
<polygon fill="#dce9f7" stroke="#4a90d9" points="1210.55,-1190.06 1134.55,-1190.06 1134.55,-1154.06 1210.55,-1154.06 1210.55,-1190.06"/>
<text text-anchor="middle" x="1172.55" y="-1175.06" font-family="Helvetica" font-size="10.00">ScannerState</text>
<text text-anchor="middle" x="1172.55" y="-1164.06" font-family="Helvetica" font-size="10.00">(inductive)</text>
</a>
</g>
</g>
<!-- L4YAML.YamlToken -->
<g id="node5" class="node">
<title>L4YAML.YamlToken</title>
<g id="a_node5"><a xlink:href="../../../api/L4YAML/Token/Token.html#L4YAML.YamlToken" xlink:title="YamlToken\n(inductive)" target="_blank">
<polygon fill="#dce9f7" stroke="#4a90d9" points="1204.55,-1136.06 1140.55,-1136.06 1140.55,-1100.06 1204.55,-1100.06 1204.55,-1136.06"/>
<text text-anchor="middle" x="1172.55" y="-1121.06" font-family="Helvetica" font-size="10.00">YamlToken</text>
<text text-anchor="middle" x="1172.55" y="-1110.06" font-family="Helvetica" font-size="10.00">(inductive)</text>
</a>
</g>
</g>
<!-- L4YAML.Scanner.ScannerState.col -->
<g id="node6" class="node">
<title>L4YAML.Scanner.ScannerState.col</title>
<g id="a_node6"><a xlink:href="../../../api/L4YAML/Scanner/State.html#L4YAML.Scanner.ScannerState.col" xlink:title="ScannerState.col\n(def)" target="_blank">
<polygon fill="#dce9f7" stroke="#4a90d9" points="859.51,-1190.06 767.51,-1190.06 767.51,-1154.06 859.51,-1154.06 859.51,-1190.06"/>
<text text-anchor="middle" x="813.51" y="-1175.06" font-family="Helvetica" font-size="10.00">ScannerState.col</text>
<text text-anchor="middle" x="813.51" y="-1164.06" font-family="Helvetica" font-size="10.00">(def)</text>
</a>
</g>
</g>
<!-- L4YAML.Scanner.pushSequenceIndent -->
<g id="node7" class="node">
<title>L4YAML.Scanner.pushSequenceIndent</title>
<g id="a_node7"><a xlink:href="../../../api/L4YAML/Scanner/Indent.html#L4YAML.Scanner.pushSequenceIndent" xlink:title="pushSequenceIndent\n(def)" target="_blank">
<polygon fill="#dce9f7" stroke="#4a90d9" points="867.51,-1136.06 759.51,-1136.06 759.51,-1100.06 867.51,-1100.06 867.51,-1136.06"/>
<text text-anchor="middle" x="813.51" y="-1121.06" font-family="Helvetica" font-size="10.00">pushSequenceIndent</text>
<text text-anchor="middle" x="813.51" y="-1110.06" font-family="Helvetica" font-size="10.00">(def)</text>
</a>
</g>
</g>
<!-- L4YAML.ScanError -->
<g id="node8" class="node">
<title>L4YAML.ScanError</title>
<g id="a_node8"><a xlink:href="../../../api/L4YAML/Token/Token.html#L4YAML.ScanError" xlink:title="ScanError\n(inductive)" target="_blank">
<polygon fill="#dce9f7" stroke="#4a90d9" points="1203.55,-1298.06 1141.55,-1298.06 1141.55,-1262.06 1203.55,-1262.06 1203.55,-1298.06"/>
<text text-anchor="middle" x="1172.55" y="-1283.06" font-family="Helvetica" font-size="10.00">ScanError</text>
<text text-anchor="middle" x="1172.55" y="-1272.06" font-family="Helvetica" font-size="10.00">(inductive)</text>
</a>
</g>
</g>
<!-- L4YAML.Scanner.ScannerState.tokens -->
<g id="node9" class="node">
<title>L4YAML.Scanner.ScannerState.tokens</title>
<g id="a_node9"><a xlink:href="../../../api/L4YAML/Scanner/State.html#L4YAML.Scanner.ScannerState.tokens" xlink:title="ScannerState.tokens\n(def)" target="_blank">
<polygon fill="#dce9f7" stroke="#4a90d9" points="1226.05,-1082.06 1119.05,-1082.06 1119.05,-1046.06 1226.05,-1046.06 1226.05,-1082.06"/>
<text text-anchor="middle" x="1172.55" y="-1067.06" font-family="Helvetica" font-size="10.00">ScannerState.tokens</text>
<text text-anchor="middle" x="1172.55" y="-1056.06" font-family="Helvetica" font-size="10.00">(def)</text>
</a>
</g>
</g>
<!-- L4YAML.Scanner.scanBlockEntry -->
<g id="node10" class="node">
<title>L4YAML.Scanner.scanBlockEntry</title>
<g id="a_node10"><a xlink:href="../../../api/L4YAML/Scanner/SimpleKey.html#L4YAML.Scanner.scanBlockEntry" xlink:title="scanBlockEntry\n(def)" target="_blank">
<polygon fill="#dce9f7" stroke="#4a90d9" points="1215.55,-1244.06 1129.55,-1244.06 1129.55,-1208.06 1215.55,-1208.06 1215.55,-1244.06"/>
<text text-anchor="middle" x="1172.55" y="-1229.06" font-family="Helvetica" font-size="10.00">scanBlockEntry</text>
<text text-anchor="middle" x="1172.55" y="-1218.06" font-family="Helvetica" font-size="10.00">(def)</text>
</a>
</g>
</g>
<!-- L4YAML.Proofs.ScannerCorrectness.ScanHelpers.scanBlockEntry_adds_tokens -->
<g id="node11" class="node">
<title>L4YAML.Proofs.ScannerCorrectness.ScanHelpers.scanBlockEntry_adds_tokens</title>
<g id="a_node11"><a xlink:href="../../../api/L4YAML/Proofs/Scanner/ScannerCorrectness.html#L4YAML.Proofs.ScannerCorrectness.ScanHelpers.scanBlockEntry_adds_tokens" xlink:title="ScannerCorrectness.ScanHelpers.scanBlockEntry_adds_tokens" target="_blank">
<polygon fill="#fff3cd" stroke="#d4a017" points="1054.08,-916.6 1054.08,-931.51 913.16,-942.06 713.86,-942.06 572.94,-931.51 572.94,-916.6 713.86,-906.06 913.16,-906.06 1054.08,-916.6"/>
<polygon fill="none" stroke="#d4a017" points="1058.08,-912.89 1058.08,-935.22 913.31,-946.06 713.71,-946.06 568.94,-935.22 568.94,-912.89 713.71,-902.06 913.31,-902.06 1058.08,-912.89"/>
<text text-anchor="middle" x="813.51" y="-920.96" font-family="Helvetica" font-size="12.00">ScannerCorrectness.ScanHelpers.scanBlockEntry_adds_tokens</text>
</a>
</g>
</g>
<!-- L4YAML.Proofs.ScannerCorrectness.ScanHelpers.scanBlockEntry_adds_tokens&#45;&gt;L4YAML.Positioned -->
<g id="edge2" class="edge">
<title>L4YAML.Proofs.ScannerCorrectness.ScanHelpers.scanBlockEntry_adds_tokens&#45;&gt;L4YAML.Positioned</title>
<path fill="none" stroke="#4a90d9" stroke-width="2" d="M938.56,-903.91C1009.21,-893.63 1086.51,-884.84 1101.05,-893.06 1135.69,-912.63 1155.21,-956.8 1164.54,-984.92"/>
<polygon fill="#4a90d9" stroke="#4a90d9" stroke-width="2" points="1162.24,-985.77 1166.7,-991.7 1166.91,-984.29 1162.24,-985.77"/>
<text text-anchor="middle" x="1088.55" y="-895.66" font-family="Times-Roman" font-size="8.00" fill="#4a90d9">about</text>
</g>
<!-- L4YAML.Proofs.ScannerCorrectness.ScanHelpers.scanBlockEntry_adds_tokens&#45;&gt;L4YAML.Scanner.ScannerState -->
<g id="edge4" class="edge">
<title>L4YAML.Proofs.ScannerCorrectness.ScanHelpers.scanBlockEntry_adds_tokens&#45;&gt;L4YAML.Scanner.ScannerState</title>
<path fill="none" stroke="#4a90d9" stroke-width="2" d="M994.91,-940.02C1021.05,-948.86 1045.89,-961.66 1066.05,-980.06 1094.5,-1006.01 1094.14,-1115.68 1119.05,-1145.06 1121.77,-1148.26 1124.96,-1151.13 1128.41,-1153.69"/>
<polygon fill="#4a90d9" stroke="#4a90d9" stroke-width="2" points="1127.23,-1155.86 1134.41,-1157.72 1129.96,-1151.79 1127.23,-1155.86"/>
<text text-anchor="middle" x="1088.55" y="-1095.66" font-family="Times-Roman" font-size="8.00" fill="#4a90d9">about</text>
</g>
<!-- L4YAML.Proofs.ScannerCorrectness.ScanHelpers.scanBlockEntry_adds_tokens&#45;&gt;L4YAML.YamlToken -->
<g id="edge3" class="edge">
<title>L4YAML.Proofs.ScannerCorrectness.ScanHelpers.scanBlockEntry_adds_tokens&#45;&gt;L4YAML.YamlToken</title>
<path fill="none" stroke="#4a90d9" stroke-width="2" d="M986.98,-940.62C1015.46,-949.23 1043.12,-961.81 1066.05,-980.06 1087.44,-997.08 1100.01,-1071.45 1119.05,-1091.06 1123.36,-1095.5 1128.56,-1099.34 1133.98,-1102.63"/>
<polygon fill="#4a90d9" stroke="#4a90d9" stroke-width="2" points="1133.11,-1104.95 1140.42,-1106.24 1135.51,-1100.68 1133.11,-1104.95"/>
<text text-anchor="middle" x="1088.55" y="-1055.66" font-family="Times-Roman" font-size="8.00" fill="#4a90d9">about</text>
</g>
<!-- L4YAML.Proofs.ScannerCorrectness.ScanHelpers.scanBlockEntry_adds_tokens&#45;&gt;L4YAML.ScanError -->
<g id="edge5" class="edge">
<title>L4YAML.Proofs.ScannerCorrectness.ScanHelpers.scanBlockEntry_adds_tokens&#45;&gt;L4YAML.ScanError</title>
<path fill="none" stroke="#4a90d9" stroke-width="2" d="M1007.82,-938.99C1030.11,-948.28 1050.41,-961.49 1066.05,-980.06 1080.95,-997.76 1068.85,-1166.07 1076.05,-1188.06 1086.82,-1220.98 1093.25,-1229.94 1119.05,-1253.06 1123.87,-1257.38 1129.51,-1261.21 1135.26,-1264.53"/>
<polygon fill="#4a90d9" stroke="#4a90d9" stroke-width="2" points="1134.21,-1266.74 1141.53,-1267.93 1136.55,-1262.44 1134.21,-1266.74"/>
<text text-anchor="middle" x="1088.55" y="-1236.66" font-family="Times-Roman" font-size="8.00" fill="#4a90d9">about</text>
</g>
<!-- L4YAML.Proofs.ScannerCorrectness.ScanHelpers.scanBlockEntry_adds_tokens&#45;&gt;L4YAML.Scanner.ScannerState.tokens -->
<g id="edge1" class="edge">
<title>L4YAML.Proofs.ScannerCorrectness.ScanHelpers.scanBlockEntry_adds_tokens&#45;&gt;L4YAML.Scanner.ScannerState.tokens</title>
<path fill="none" stroke="#4a90d9" stroke-width="2" d="M977.97,-906.87C1031.15,-904.98 1081.53,-908.37 1101.05,-925.06 1139.37,-957.82 1089.44,-996.25 1119.05,-1037.06 1120.03,-1038.41 1121.09,-1039.69 1122.23,-1040.92"/>
<polygon fill="#4a90d9" stroke="#4a90d9" stroke-width="2" points="1120.83,-1042.96 1127.63,-1045.92 1124.16,-1039.36 1120.83,-1042.96"/>
<text text-anchor="middle" x="1088.55" y="-927.66" font-family="Times-Roman" font-size="8.00" fill="#4a90d9">about</text>
</g>
<!-- L4YAML.Proofs.ScannerCorrectness.ScanHelpers.scanBlockEntry_adds_tokens&#45;&gt;L4YAML.Scanner.scanBlockEntry -->
<g id="edge6" class="edge">
<title>L4YAML.Proofs.ScannerCorrectness.ScanHelpers.scanBlockEntry_adds_tokens&#45;&gt;L4YAML.Scanner.scanBlockEntry</title>
<path fill="none" stroke="#4a90d9" stroke-width="2" d="M1006.66,-939.19C1029.28,-948.43 1049.98,-961.57 1066.05,-980.06 1084.47,-1001.26 1068.93,-1078.89 1076.05,-1106.06 1087.59,-1150.11 1087.53,-1166.19 1119.05,-1199.06 1120.64,-1200.72 1122.37,-1202.3 1124.18,-1203.8"/>
<polygon fill="#4a90d9" stroke="#4a90d9" stroke-width="2" points="1122.78,-1205.81 1129.85,-1208.05 1125.72,-1201.89 1122.78,-1205.81"/>
<text text-anchor="middle" x="1088.55" y="-1177.66" font-family="Times-Roman" font-size="8.00" fill="#4a90d9">about</text>
</g>
<!-- L4YAML.Proofs.ScannerProofs.emit_tokens_size -->
<g id="node12" class="node">
<title>L4YAML.Proofs.ScannerProofs.emit_tokens_size</title>
<g id="a_node12"><a xlink:href="../../../api/L4YAML/Proofs/Scanner/ScannerProofs.html#L4YAML.Proofs.ScannerProofs.emit_tokens_size" xlink:title="ScannerProofs.emit_tokens_size\n(Scanner.ScannerProofs)" target="_blank">
<ellipse fill="#d4edda" stroke="#28a745" cx="263.49" cy="-529.06" rx="112.36" ry="21.43"/>
<text text-anchor="middle" x="263.49" y="-532.06" font-family="Helvetica" font-size="10.00">ScannerProofs.emit_tokens_size</text>
<text text-anchor="middle" x="263.49" y="-521.06" font-family="Helvetica" font-size="10.00">(Scanner.ScannerProofs)</text>
</a>
</g>
</g>
<!-- L4YAML.Proofs.ScannerProofs.emit_tokens_size&#45;&gt;L4YAML.Scanner.ScannerState.emit -->
<g id="edge14" class="edge">
<title>L4YAML.Proofs.ScannerProofs.emit_tokens_size&#45;&gt;L4YAML.Scanner.ScannerState.emit</title>
<path fill="none" stroke="#6f42c1" stroke-width="2" stroke-dasharray="5,2" d="M349.62,-515.34C404.91,-511.55 474.67,-517.2 518.97,-559.06 533.9,-573.16 548.85,-720.64 550.97,-741.06 552.68,-757.42 549.77,-1025 560.97,-1037.06 610.53,-1090.38 701.36,-1085.97 759.24,-1076.24"/>
<polygon fill="#6f42c1" stroke="#6f42c1" stroke-width="2" points="759.77,-1077.92 764.39,-1075.34 759.17,-1074.48 759.77,-1077.92"/>
<text text-anchor="middle" x="539.97" y="-743.46" font-family="Times-Roman" font-size="7.00" fill="#6f42c1">about</text>
</g>
<!-- L4YAML.Proofs.ScannerProofs.emit_tokens_size&#45;&gt;L4YAML.Positioned -->
<g id="edge15" class="edge">
<title>L4YAML.Proofs.ScannerProofs.emit_tokens_size&#45;&gt;L4YAML.Positioned</title>
<path fill="none" stroke="#6f42c1" stroke-width="2" stroke-dasharray="5,2" d="M348.9,-542.91C404.42,-546.91 474.73,-541.46 518.97,-499.06 539.13,-479.75 516.07,-461.81 528.97,-437.06 538.13,-419.5 542.62,-413.49 560.97,-406.06 672.27,-360.99 1030.24,-325.09 1101.05,-422.06 1168.36,-514.25 1171.94,-888.9 1171.71,-986.64"/>
<polygon fill="#6f42c1" stroke="#6f42c1" stroke-width="2" points="1169.96,-986.88 1171.69,-991.89 1173.46,-986.89 1169.96,-986.88"/>
<text text-anchor="middle" x="813.51" y="-408.46" font-family="Times-Roman" font-size="7.00" fill="#6f42c1">about</text>
</g>
<!-- L4YAML.Proofs.ScannerProofs.emit_tokens_size&#45;&gt;L4YAML.Scanner.ScannerState -->
<g id="edge17" class="edge">
<title>L4YAML.Proofs.ScannerProofs.emit_tokens_size&#45;&gt;L4YAML.Scanner.ScannerState</title>
<path fill="none" stroke="#6f42c1" stroke-width="2" stroke-dasharray="5,2" d="M370.98,-522.77C577.06,-511.69 1014.72,-493.75 1066.05,-538.06 1135.69,-598.17 1091.2,-650.59 1101.05,-742.06 1105.85,-786.62 1094.85,-1107.33 1119.05,-1145.06 1121.97,-1149.62 1125.92,-1153.44 1130.36,-1156.64"/>
<polygon fill="#6f42c1" stroke="#6f42c1" stroke-width="2" points="1129.41,-1158.12 1134.54,-1159.41 1131.34,-1155.2 1129.41,-1158.12"/>
<text text-anchor="middle" x="813.51" y="-540.46" font-family="Times-Roman" font-size="7.00" fill="#6f42c1">about</text>
</g>
<!-- L4YAML.Proofs.ScannerProofs.emit_tokens_size&#45;&gt;L4YAML.YamlToken -->
<g id="edge16" class="edge">
<title>L4YAML.Proofs.ScannerProofs.emit_tokens_size&#45;&gt;L4YAML.YamlToken</title>
<path fill="none" stroke="#6f42c1" stroke-width="2" stroke-dasharray="5,2" d="M373.58,-524.51C419.24,-520.48 472.41,-512.98 518.97,-499.06 523.74,-497.63 524.14,-495.2 528.97,-494.06 587.05,-480.35 1020.22,-455.83 1066.05,-494.06 1132.66,-549.62 1091.32,-599.86 1101.05,-686.06 1106.1,-730.82 1094.74,-1053.14 1119.05,-1091.06 1123.14,-1097.44 1129.24,-1102.38 1135.86,-1106.19"/>
<polygon fill="#6f42c1" stroke="#6f42c1" stroke-width="2" points="1135.27,-1107.86 1140.51,-1108.65 1136.91,-1104.77 1135.27,-1107.86"/>
<text text-anchor="middle" x="813.51" y="-496.46" font-family="Times-Roman" font-size="7.00" fill="#6f42c1">about</text>
</g>
<!-- L4YAML.Proofs.ScannerProofs.emit_tokens_size&#45;&gt;L4YAML.Scanner.ScannerState.tokens -->
<g id="edge13" class="edge">
<title>L4YAML.Proofs.ScannerProofs.emit_tokens_size&#45;&gt;L4YAML.Scanner.ScannerState.tokens</title>
<path fill="none" stroke="#6f42c1" stroke-width="2" stroke-dasharray="5,2" d="M355.29,-541.34C408.69,-543.44 474.29,-536.47 518.97,-499.06 530.73,-489.22 519.09,-477.77 528.97,-466.06 539.23,-453.9 545.5,-453.71 560.97,-450.06 619.4,-436.26 1067.81,-416.06 1101.05,-466.06 1136.19,-518.92 1085.13,-983.4 1119.05,-1037.06 1120.22,-1038.91 1121.56,-1040.64 1123.03,-1042.26"/>
<polygon fill="#6f42c1" stroke="#6f42c1" stroke-width="2" points="1121.9,-1043.59 1126.7,-1045.83 1124.34,-1041.09 1121.9,-1043.59"/>
<text text-anchor="middle" x="813.51" y="-452.46" font-family="Times-Roman" font-size="7.00" fill="#6f42c1">about</text>
</g>
<!-- L4YAML.Proofs.ScannerProofs.emit_tokens_size&#45;&gt;L4YAML.Proofs.ScannerCorrectness.ScanHelpers.scanBlockEntry_adds_tokens -->
<g id="edge8" class="edge">
<title>L4YAML.Proofs.ScannerProofs.emit_tokens_size&#45;&gt;L4YAML.Proofs.ScannerCorrectness.ScanHelpers.scanBlockEntry_adds_tokens</title>
<path fill="none" stroke="#28a745" d="M325.61,-511.36C391.2,-496.54 493.63,-486.17 550.97,-545.06 577.57,-572.37 535.58,-859.62 560.97,-888.06 567.59,-895.46 574.99,-901.85 582.97,-907.33"/>
<polygon fill="#28a745" stroke="#28a745" points="581.99,-909.61 589.2,-911.35 584.65,-905.49 581.99,-909.61"/>
</g>
<!-- L4YAML.Proofs.ScannerCorrectness.ScanHelpers.scanBlockEntry_adds_tokens._proof_1_2 -->
<g id="node13" class="node">
<title>L4YAML.Proofs.ScannerCorrectness.ScanHelpers.scanBlockEntry_adds_tokens._proof_1_2</title>
<g id="a_node13"><a xlink:href="../../../api/L4YAML/Proofs/Scanner/ScannerCorrectness.html#L4YAML.Proofs.ScannerCorrectness.ScanHelpers.scanBlockEntry_adds_tokens._proof_1_2" xlink:title="ScannerCorrectness.ScanHelpers.scanBlockEntry_adds_tokens._proof_1_2\n(Scanner.ScannerCorrectness)" target="_blank">
<ellipse fill="#d4edda" stroke="#28a745" cx="263.49" cy="-649.06" rx="247.47" ry="21.43"/>
<text text-anchor="middle" x="263.49" y="-652.06" font-family="Helvetica" font-size="10.00">ScannerCorrectness.ScanHelpers.scanBlockEntry_adds_tokens._proof_1_2</text>
<text text-anchor="middle" x="263.49" y="-641.06" font-family="Helvetica" font-size="10.00">(Scanner.ScannerCorrectness)</text>
</a>
</g>
</g>
<!-- L4YAML.Proofs.ScannerCorrectness.ScanHelpers.scanBlockEntry_adds_tokens._proof_1_2&#45;&gt;L4YAML.Positioned -->
<g id="edge20" class="edge">
<title>L4YAML.Proofs.ScannerCorrectness.ScanHelpers.scanBlockEntry_adds_tokens._proof_1_2&#45;&gt;L4YAML.Positioned</title>
<path fill="none" stroke="#6f42c1" stroke-width="2" stroke-dasharray="5,2" d="M306.71,-670C357.86,-694.14 447.34,-732.49 528.97,-748.06 646.23,-770.41 949.65,-731.58 1066.05,-758.06 1161,-779.66 1171.51,-928.69 1171.95,-986.86"/>
<polygon fill="#6f42c1" stroke="#6f42c1" stroke-width="2" points="1170.2,-986.88 1171.96,-991.88 1173.7,-986.87 1170.2,-986.88"/>
<text text-anchor="middle" x="813.51" y="-760.46" font-family="Times-Roman" font-size="7.00" fill="#6f42c1">about</text>
</g>
<!-- L4YAML.Proofs.ScannerCorrectness.ScanHelpers.scanBlockEntry_adds_tokens._proof_1_2&#45;&gt;L4YAML.Scanner.ScannerState -->
<g id="edge23" class="edge">
<title>L4YAML.Proofs.ScannerCorrectness.ScanHelpers.scanBlockEntry_adds_tokens._proof_1_2&#45;&gt;L4YAML.Scanner.ScannerState</title>
<path fill="none" stroke="#6f42c1" stroke-width="2" stroke-dasharray="5,2" d="M285.89,-670.34C331.65,-714.24 444.35,-814.09 560.97,-854.06 614.14,-872.28 1025.07,-843.59 1066.05,-882.06 1079.75,-894.92 1068.32,-948.92 1076.05,-966.06 1082.91,-981.27 1094.19,-978.85 1101.05,-994.06 1128.84,-1055.67 1080.48,-1089.55 1119.05,-1145.06 1121.99,-1149.29 1125.79,-1152.9 1130.02,-1155.97"/>
<polygon fill="#6f42c1" stroke="#6f42c1" stroke-width="2" points="1129.23,-1157.54 1134.36,-1158.86 1131.17,-1154.63 1129.23,-1157.54"/>
<text text-anchor="middle" x="813.51" y="-884.46" font-family="Times-Roman" font-size="7.00" fill="#6f42c1">about</text>
</g>
<!-- L4YAML.Proofs.ScannerCorrectness.ScanHelpers.scanBlockEntry_adds_tokens._proof_1_2&#45;&gt;L4YAML.YamlToken -->
<g id="edge22" class="edge">
<title>L4YAML.Proofs.ScannerCorrectness.ScanHelpers.scanBlockEntry_adds_tokens._proof_1_2&#45;&gt;L4YAML.YamlToken</title>
<path fill="none" stroke="#6f42c1" stroke-width="2" stroke-dasharray="5,2" d="M293.35,-670.27C344.34,-706.43 455,-779.09 560.97,-810.06 668.98,-841.62 964.99,-796.58 1066.05,-846.06 1086.97,-856.3 1091.78,-863.69 1101.05,-885.06 1119.33,-927.21 1093.43,-1052.91 1119.05,-1091.06 1123.23,-1097.28 1129.3,-1102.15 1135.85,-1105.93"/>
<polygon fill="#6f42c1" stroke="#6f42c1" stroke-width="2" points="1135.2,-1107.57 1140.44,-1108.38 1136.85,-1104.48 1135.2,-1107.57"/>
<text text-anchor="middle" x="813.51" y="-848.46" font-family="Times-Roman" font-size="7.00" fill="#6f42c1">about</text>
</g>
<!-- L4YAML.Proofs.ScannerCorrectness.ScanHelpers.scanBlockEntry_adds_tokens._proof_1_2&#45;&gt;L4YAML.Scanner.ScannerState.col -->
<g id="edge19" class="edge">
<title>L4YAML.Proofs.ScannerCorrectness.ScanHelpers.scanBlockEntry_adds_tokens._proof_1_2&#45;&gt;L4YAML.Scanner.ScannerState.col</title>
<path fill="none" stroke="#6f42c1" stroke-width="2" stroke-dasharray="5,2" d="M290.16,-670.18C343.8,-716.06 467.11,-830.97 518.97,-958.06 538.53,-1005.97 515.94,-1023.98 528.97,-1074.06 537.7,-1107.55 532.95,-1124.75 560.97,-1145.06 619.71,-1187.63 707.37,-1186.51 762.17,-1180.35"/>
<polygon fill="#6f42c1" stroke="#6f42c1" stroke-width="2" points="762.61,-1182.06 767.37,-1179.74 762.2,-1178.58 762.61,-1182.06"/>
<text text-anchor="middle" x="539.97" y="-1137.46" font-family="Times-Roman" font-size="7.00" fill="#6f42c1">about</text>
</g>
<!-- L4YAML.Proofs.ScannerCorrectness.ScanHelpers.scanBlockEntry_adds_tokens._proof_1_2&#45;&gt;L4YAML.Scanner.pushSequenceIndent -->
<g id="edge21" class="edge">
<title>L4YAML.Proofs.ScannerCorrectness.ScanHelpers.scanBlockEntry_adds_tokens._proof_1_2&#45;&gt;L4YAML.Scanner.pushSequenceIndent</title>
<path fill="none" stroke="#6f42c1" stroke-width="2" stroke-dasharray="5,2" d="M287.27,-670.47C336.4,-717.82 453.15,-836.82 518.97,-958.06 522.67,-964.87 554.98,-1086.15 560.97,-1091.06 614.92,-1135.21 698.65,-1134.99 754.51,-1128.45"/>
<polygon fill="#6f42c1" stroke="#6f42c1" stroke-width="2" points="754.74,-1130.19 759.49,-1127.84 754.31,-1126.71 754.74,-1130.19"/>
<text text-anchor="middle" x="539.97" y="-1066.46" font-family="Times-Roman" font-size="7.00" fill="#6f42c1">about</text>
</g>
<!-- L4YAML.Proofs.ScannerCorrectness.ScanHelpers.scanBlockEntry_adds_tokens._proof_1_2&#45;&gt;L4YAML.Scanner.ScannerState.tokens -->
<g id="edge18" class="edge">
<title>L4YAML.Proofs.ScannerCorrectness.ScanHelpers.scanBlockEntry_adds_tokens._proof_1_2&#45;&gt;L4YAML.Scanner.ScannerState.tokens</title>
<path fill="none" stroke="#6f42c1" stroke-width="2" stroke-dasharray="5,2" d="M302.57,-670.02C352.79,-696.59 444.68,-741.51 528.97,-763.06 590.84,-778.87 1064.36,-765.79 1101.05,-818.06 1129.1,-858.02 1091.93,-996.45 1119.05,-1037.06 1120.26,-1038.88 1121.64,-1040.58 1123.15,-1042.18"/>
<polygon fill="#6f42c1" stroke="#6f42c1" stroke-width="2" points="1122.05,-1043.55 1126.88,-1045.71 1124.45,-1041 1122.05,-1043.55"/>
<text text-anchor="middle" x="813.51" y="-802.46" font-family="Times-Roman" font-size="7.00" fill="#6f42c1">about</text>
</g>
<!-- L4YAML.Proofs.ScannerCorrectness.ScanHelpers.scanBlockEntry_adds_tokens._proof_1_2&#45;&gt;L4YAML.Proofs.ScannerCorrectness.ScanHelpers.scanBlockEntry_adds_tokens -->
<g id="edge10" class="edge">
<title>L4YAML.Proofs.ScannerCorrectness.ScanHelpers.scanBlockEntry_adds_tokens._proof_1_2&#45;&gt;L4YAML.Proofs.ScannerCorrectness.ScanHelpers.scanBlockEntry_adds_tokens</title>
<path fill="none" stroke="#28a745" d="M280.53,-670.47C317.95,-718.62 416.46,-835.29 528.97,-887.06 549,-896.27 570.61,-903.4 592.65,-908.9"/>
<polygon fill="#28a745" stroke="#28a745" points="592.13,-911.29 599.51,-910.55 593.28,-906.53 592.13,-911.29"/>
</g>
<!-- L4YAML.Proofs.ScannerCorrectness.ScanHelpers.scanBlockEntry_adds_tokens._proof_1_3 -->
<g id="node14" class="node">
<title>L4YAML.Proofs.ScannerCorrectness.ScanHelpers.scanBlockEntry_adds_tokens._proof_1_3</title>
<g id="a_node14"><a xlink:href="../../../api/L4YAML/Proofs/Scanner/ScannerCorrectness.html#L4YAML.Proofs.ScannerCorrectness.ScanHelpers.scanBlockEntry_adds_tokens._proof_1_3" xlink:title="ScannerCorrectness.ScanHelpers.scanBlockEntry_adds_tokens._proof_1_3\n(Scanner.ScannerCorrectness)" target="_blank">
<ellipse fill="#d4edda" stroke="#28a745" cx="263.49" cy="-409.06" rx="247.47" ry="21.43"/>
<text text-anchor="middle" x="263.49" y="-412.06" font-family="Helvetica" font-size="10.00">ScannerCorrectness.ScanHelpers.scanBlockEntry_adds_tokens._proof_1_3</text>
<text text-anchor="middle" x="263.49" y="-401.06" font-family="Helvetica" font-size="10.00">(Scanner.ScannerCorrectness)</text>
</a>
</g>
</g>
<!-- L4YAML.Proofs.ScannerCorrectness.ScanHelpers.scanBlockEntry_adds_tokens._proof_1_3&#45;&gt;L4YAML.Positioned -->
<g id="edge25" class="edge">
<title>L4YAML.Proofs.ScannerCorrectness.ScanHelpers.scanBlockEntry_adds_tokens._proof_1_3&#45;&gt;L4YAML.Positioned</title>
<path fill="none" stroke="#6f42c1" stroke-width="2" stroke-dasharray="5,2" d="M276.46,-387.73C309.79,-329.95 409.11,-168.17 528.97,-70.06 627.35,10.47 1028.38,34.26 1101.05,-70.06 1155.02,-147.53 1168.98,-849.25 1171.2,-986.75"/>
<polygon fill="#6f42c1" stroke="#6f42c1" stroke-width="2" points="1169.45,-986.8 1171.28,-991.77 1172.95,-986.74 1169.45,-986.8"/>
<text text-anchor="middle" x="813.51" y="-51.46" font-family="Times-Roman" font-size="7.00" fill="#6f42c1">about</text>
</g>
<!-- L4YAML.Proofs.ScannerCorrectness.ScanHelpers.scanBlockEntry_adds_tokens._proof_1_3&#45;&gt;L4YAML.Scanner.ScannerState -->
<g id="edge27" class="edge">
<title>L4YAML.Proofs.ScannerCorrectness.ScanHelpers.scanBlockEntry_adds_tokens._proof_1_3&#45;&gt;L4YAML.Scanner.ScannerState</title>
<path fill="none" stroke="#6f42c1" stroke-width="2" stroke-dasharray="5,2" d="M282.15,-387.83C324.28,-339.07 436.47,-219.98 560.97,-177.06 614.03,-158.77 1023.82,-140.09 1066.05,-177.06 1078.7,-188.13 1072.95,-235.53 1076.05,-252.06 1084.73,-298.36 1094.92,-308.35 1101.05,-355.06 1106.76,-398.58 1095.76,-1107.85 1119.05,-1145.06 1121.92,-1149.65 1125.84,-1153.49 1130.26,-1156.7"/>
<polygon fill="#6f42c1" stroke="#6f42c1" stroke-width="2" points="1129.31,-1158.17 1134.44,-1159.48 1131.24,-1155.26 1129.31,-1158.17"/>
<text text-anchor="middle" x="813.51" y="-179.46" font-family="Times-Roman" font-size="7.00" fill="#6f42c1">about</text>
</g>
<!-- L4YAML.Proofs.ScannerCorrectness.ScanHelpers.scanBlockEntry_adds_tokens._proof_1_3&#45;&gt;L4YAML.YamlToken -->
<g id="edge26" class="edge">
<title>L4YAML.Proofs.ScannerCorrectness.ScanHelpers.scanBlockEntry_adds_tokens._proof_1_3&#45;&gt;L4YAML.YamlToken</title>
<path fill="none" stroke="#6f42c1" stroke-width="2" stroke-dasharray="5,2" d="M282.95,-387.67C323.74,-341.37 426.08,-230.19 528.97,-158.06 541.99,-148.93 545.5,-145.71 560.97,-142.06 615.59,-129.16 1022.78,-106.32 1066.05,-142.06 1129.56,-194.52 1092.27,-242.15 1101.05,-324.06 1105.59,-366.44 1096.42,-1054.94 1119.05,-1091.06 1123.07,-1097.48 1129.15,-1102.44 1135.76,-1106.26"/>
<polygon fill="#6f42c1" stroke="#6f42c1" stroke-width="2" points="1135.17,-1107.92 1140.4,-1108.72 1136.8,-1104.83 1135.17,-1107.92"/>
<text text-anchor="middle" x="813.51" y="-144.46" font-family="Times-Roman" font-size="7.00" fill="#6f42c1">about</text>
</g>
<!-- L4YAML.Proofs.ScannerCorrectness.ScanHelpers.scanBlockEntry_adds_tokens._proof_1_3&#45;&gt;L4YAML.Scanner.ScannerState.tokens -->
<g id="edge24" class="edge">
<title>L4YAML.Proofs.ScannerCorrectness.ScanHelpers.scanBlockEntry_adds_tokens._proof_1_3&#45;&gt;L4YAML.Scanner.ScannerState.tokens</title>
<path fill="none" stroke="#6f42c1" stroke-width="2" stroke-dasharray="5,2" d="M279.25,-387.64C316.2,-335.29 417.69,-198.97 528.97,-114.06 612.64,-50.22 873.39,-56.11 1066.05,-98.06 1082.76,-101.7 1091.66,-99.76 1101.05,-114.06 1129.19,-156.94 1091.91,-993.54 1119.05,-1037.06 1120.21,-1038.92 1121.54,-1040.65 1123.01,-1042.27"/>
<polygon fill="#6f42c1" stroke="#6f42c1" stroke-width="2" points="1121.86,-1043.6 1126.66,-1045.85 1124.31,-1041.1 1121.86,-1043.6"/>
<text text-anchor="middle" x="813.51" y="-100.46" font-family="Times-Roman" font-size="7.00" fill="#6f42c1">about</text>
</g>
<!-- L4YAML.Proofs.ScannerCorrectness.ScanHelpers.scanBlockEntry_adds_tokens._proof_1_3&#45;&gt;L4YAML.Proofs.ScannerCorrectness.ScanHelpers.scanBlockEntry_adds_tokens -->
<g id="edge11" class="edge">
<title>L4YAML.Proofs.ScannerCorrectness.ScanHelpers.scanBlockEntry_adds_tokens._proof_1_3&#45;&gt;L4YAML.Proofs.ScannerCorrectness.ScanHelpers.scanBlockEntry_adds_tokens</title>
<path fill="none" stroke="#28a745" d="M481.04,-419.33C494.42,-424.54 507.22,-431.03 518.97,-439.06 543.93,-456.1 543.27,-469.83 550.97,-499.06 556.49,-519.96 546.6,-871.91 560.97,-888.06 567.52,-895.41 574.83,-901.76 582.73,-907.21"/>
<polygon fill="#28a745" stroke="#28a745" points="581.68,-909.45 588.88,-911.21 584.35,-905.34 581.68,-909.45"/>
</g>
<!-- L4YAML.Proofs.ScannerCorrectness.pushSequenceIndent_tokens_monotonic -->
<g id="node15" class="node">
<title>L4YAML.Proofs.ScannerCorrectness.pushSequenceIndent_tokens_monotonic</title>
<g id="a_node15"><a xlink:href="../../../api/L4YAML/Proofs/Scanner/ScannerCorrectness.html#L4YAML.Proofs.ScannerCorrectness.pushSequenceIndent_tokens_monotonic" xlink:title="ScannerCorrectness.pushSequenceIndent_tokens_monotonic\n(Scanner.ScannerCorrectness)" target="_blank">
<ellipse fill="#d4edda" stroke="#28a745" cx="263.49" cy="-589.06" rx="200.64" ry="21.43"/>
<text text-anchor="middle" x="263.49" y="-592.06" font-family="Helvetica" font-size="10.00">ScannerCorrectness.pushSequenceIndent_tokens_monotonic</text>
<text text-anchor="middle" x="263.49" y="-581.06" font-family="Helvetica" font-size="10.00">(Scanner.ScannerCorrectness)</text>
</a>
</g>
</g>
<!-- L4YAML.Proofs.ScannerCorrectness.pushSequenceIndent_tokens_monotonic&#45;&gt;L4YAML.Positioned -->
<g id="edge29" class="edge">
<title>L4YAML.Proofs.ScannerCorrectness.pushSequenceIndent_tokens_monotonic&#45;&gt;L4YAML.Positioned</title>
<path fill="none" stroke="#6f42c1" stroke-width="2" stroke-dasharray="5,2" d="M458.25,-583.82C492.47,-583.09 527.77,-582.45 560.97,-582.06 681.04,-580.64 1027.84,-502.89 1101.05,-598.06 1148.58,-659.84 1165.99,-908.1 1170.35,-986.33"/>
<polygon fill="#6f42c1" stroke="#6f42c1" stroke-width="2" points="1168.62,-986.76 1170.65,-991.66 1172.12,-986.57 1168.62,-986.76"/>
<text text-anchor="middle" x="813.51" y="-584.46" font-family="Times-Roman" font-size="7.00" fill="#6f42c1">about</text>
</g>
<!-- L4YAML.Proofs.ScannerCorrectness.pushSequenceIndent_tokens_monotonic&#45;&gt;L4YAML.Scanner.ScannerState -->
<g id="edge32" class="edge">
<title>L4YAML.Proofs.ScannerCorrectness.pushSequenceIndent_tokens_monotonic&#45;&gt;L4YAML.Scanner.ScannerState</title>
<path fill="none" stroke="#6f42c1" stroke-width="2" stroke-dasharray="5,2" d="M462.41,-592.04C482.65,-598.16 501.98,-606.88 518.97,-619.06 527.38,-625.08 523.38,-631.37 528.97,-640.06 540.93,-658.62 541.52,-667.61 560.97,-678.06 660.52,-731.49 981.65,-660.95 1066.05,-736.06 1116.86,-781.28 1090.89,-817.8 1101.05,-885.06 1109.7,-942.32 1087.19,-1096.69 1119.05,-1145.06 1121.92,-1149.42 1125.74,-1153.12 1130,-1156.24"/>
<polygon fill="#6f42c1" stroke="#6f42c1" stroke-width="2" points="1129.27,-1157.86 1134.4,-1159.18 1131.21,-1154.95 1129.27,-1157.86"/>
<text text-anchor="middle" x="813.51" y="-738.46" font-family="Times-Roman" font-size="7.00" fill="#6f42c1">about</text>
</g>
<!-- L4YAML.Proofs.ScannerCorrectness.pushSequenceIndent_tokens_monotonic&#45;&gt;L4YAML.YamlToken -->
<g id="edge31" class="edge">
<title>L4YAML.Proofs.ScannerCorrectness.pushSequenceIndent_tokens_monotonic&#45;&gt;L4YAML.YamlToken</title>
<path fill="none" stroke="#6f42c1" stroke-width="2" stroke-dasharray="5,2" d="M422.59,-602.08C454.72,-606.29 488.11,-611.83 518.97,-619.06 538.27,-623.58 541.58,-629.98 560.97,-634.06 616.03,-645.63 1023.88,-632.82 1066.05,-670.06 1106.32,-705.62 1111.67,-1079.91 1119.05,-1091.06 1123.18,-1097.31 1129.24,-1102.19 1135.78,-1105.98"/>
<polygon fill="#6f42c1" stroke="#6f42c1" stroke-width="2" points="1135.14,-1107.61 1140.37,-1108.42 1136.79,-1104.53 1135.14,-1107.61"/>
<text text-anchor="middle" x="813.51" y="-672.46" font-family="Times-Roman" font-size="7.00" fill="#6f42c1">about</text>
</g>
<!-- L4YAML.Proofs.ScannerCorrectness.pushSequenceIndent_tokens_monotonic&#45;&gt;L4YAML.Scanner.pushSequenceIndent -->
<g id="edge30" class="edge">
<title>L4YAML.Proofs.ScannerCorrectness.pushSequenceIndent_tokens_monotonic&#45;&gt;L4YAML.Scanner.pushSequenceIndent</title>
<path fill="none" stroke="#6f42c1" stroke-width="2" stroke-dasharray="5,2" d="M394.22,-572.95C439.63,-574.62 487.18,-585.91 518.97,-619.06 529.16,-629.67 527.72,-736.4 528.97,-751.06 537.73,-852.93 541.5,-878.25 550.97,-980.06 552.12,-992.39 552.29,-1082.23 560.97,-1091.06 610.36,-1141.3 696.62,-1139.18 754.15,-1130.59"/>
<polygon fill="#6f42c1" stroke="#6f42c1" stroke-width="2" points="754.6,-1132.29 759.28,-1129.8 754.07,-1128.83 754.6,-1132.29"/>
<text text-anchor="middle" x="539.97" y="-982.46" font-family="Times-Roman" font-size="7.00" fill="#6f42c1">about</text>
</g>
<!-- L4YAML.Proofs.ScannerCorrectness.pushSequenceIndent_tokens_monotonic&#45;&gt;L4YAML.Scanner.ScannerState.tokens -->
<g id="edge28" class="edge">
<title>L4YAML.Proofs.ScannerCorrectness.pushSequenceIndent_tokens_monotonic&#45;&gt;L4YAML.Scanner.ScannerState.tokens</title>
<path fill="none" stroke="#6f42c1" stroke-width="2" stroke-dasharray="5,2" d="M458.5,-594.15C676.86,-600.49 1008.76,-612.19 1066.05,-626.06 1082.67,-630.08 1091.48,-627.88 1101.05,-642.06 1150.21,-714.89 1071.58,-963.11 1119.05,-1037.06 1120.23,-1038.9 1121.58,-1040.62 1123.07,-1042.24"/>
<polygon fill="#6f42c1" stroke="#6f42c1" stroke-width="2" points="1121.94,-1043.58 1126.75,-1045.8 1124.37,-1041.06 1121.94,-1043.58"/>
<text text-anchor="middle" x="813.51" y="-628.46" font-family="Times-Roman" font-size="7.00" fill="#6f42c1">about</text>
</g>
<!-- L4YAML.Proofs.ScannerCorrectness.pushSequenceIndent_tokens_monotonic&#45;&gt;L4YAML.Proofs.ScannerCorrectness.ScanHelpers.scanBlockEntry_adds_tokens -->
<g id="edge9" class="edge">
<title>L4YAML.Proofs.ScannerCorrectness.pushSequenceIndent_tokens_monotonic&#45;&gt;L4YAML.Proofs.ScannerCorrectness.ScanHelpers.scanBlockEntry_adds_tokens</title>
<path fill="none" stroke="#28a745" d="M461.23,-585.28C482.75,-592.31 502.7,-603.09 518.97,-619.06 530.66,-630.53 522.58,-676.98 528.97,-692.06 535.15,-706.63 545.36,-705.26 550.97,-720.06 557.61,-737.54 548.31,-874.3 560.97,-888.06 567.76,-895.43 575.32,-901.77 583.47,-907.22"/>
<polygon fill="#28a745" stroke="#28a745" points="582.58,-909.56 589.81,-911.21 585.19,-905.41 582.58,-909.56"/>
</g>
<!-- L4YAML.Proofs.ScannerCorrectness.advance_preserves_tokens -->
<g id="node16" class="node">
<title>L4YAML.Proofs.ScannerCorrectness.advance_preserves_tokens</title>
<g id="a_node16"><a xlink:href="../../../api/L4YAML/Proofs/Scanner/ScannerCorrectness.html#L4YAML.Proofs.ScannerCorrectness.advance_preserves_tokens" xlink:title="ScannerCorrectness.advance_preserves_tokens\n(Scanner.ScannerCorrectness)" target="_blank">
<ellipse fill="#d4edda" stroke="#28a745" cx="263.49" cy="-469.06" rx="160.53" ry="21.43"/>
<text text-anchor="middle" x="263.49" y="-472.06" font-family="Helvetica" font-size="10.00">ScannerCorrectness.advance_preserves_tokens</text>
<text text-anchor="middle" x="263.49" y="-461.06" font-family="Helvetica" font-size="10.00">(Scanner.ScannerCorrectness)</text>
</a>
</g>
</g>
<!-- L4YAML.Proofs.ScannerCorrectness.advance_preserves_tokens&#45;&gt;L4YAML.Positioned -->
<g id="edge35" class="edge">
<title>L4YAML.Proofs.ScannerCorrectness.advance_preserves_tokens&#45;&gt;L4YAML.Positioned</title>
<path fill="none" stroke="#6f42c1" stroke-width="2" stroke-dasharray="5,2" d="M366.02,-485.4C419.15,-487.78 480.89,-479.73 518.97,-439.06 533.65,-423.38 517.22,-264.03 528.97,-246.06 537.68,-232.75 545.5,-233.71 560.97,-230.06 677.83,-202.47 1031.58,-148.13 1101.05,-246.06 1144.95,-307.95 1166.55,-864.95 1170.77,-986.64"/>
<polygon fill="#6f42c1" stroke="#6f42c1" stroke-width="2" points="1169.03,-986.84 1170.95,-991.78 1172.53,-986.72 1169.03,-986.84"/>
<text text-anchor="middle" x="813.51" y="-232.46" font-family="Times-Roman" font-size="7.00" fill="#6f42c1">about</text>
</g>
<!-- L4YAML.Proofs.ScannerCorrectness.advance_preserves_tokens&#45;&gt;L4YAML.Scanner.ScannerState.advance -->
<g id="edge34" class="edge">
<title>L4YAML.Proofs.ScannerCorrectness.advance_preserves_tokens&#45;&gt;L4YAML.Scanner.ScannerState.advance</title>
<path fill="none" stroke="#6f42c1" stroke-width="2" stroke-dasharray="5,2" d="M402.44,-458.41C443.67,-461.87 486.49,-472.9 518.97,-499.06 529.59,-507.61 523.91,-515.4 528.97,-528.06 537.7,-549.84 545.69,-553.19 550.97,-576.06 556.03,-597.93 545.86,-963.45 560.97,-980.06 607.74,-1031.44 692.58,-1030.83 750.69,-1022.83"/>
<polygon fill="#6f42c1" stroke="#6f42c1" stroke-width="2" points="751.18,-1024.53 755.88,-1022.09 750.68,-1021.06 751.18,-1024.53"/>
<text text-anchor="middle" x="539.97" y="-578.46" font-family="Times-Roman" font-size="7.00" fill="#6f42c1">about</text>
</g>
<!-- L4YAML.Proofs.ScannerCorrectness.advance_preserves_tokens&#45;&gt;L4YAML.Scanner.ScannerState -->
<g id="edge37" class="edge">
<title>L4YAML.Proofs.ScannerCorrectness.advance_preserves_tokens&#45;&gt;L4YAML.Scanner.ScannerState</title>
<path fill="none" stroke="#6f42c1" stroke-width="2" stroke-dasharray="5,2" d="M415.33,-475.97C451.94,-471.29 489.09,-460.56 518.97,-439.06 554.48,-413.52 524.03,-373.47 560.97,-350.06 584.67,-335.04 1044.51,-332.07 1066.05,-350.06 1132.97,-405.93 1091.94,-456.36 1101.05,-543.06 1104.54,-576.33 1101.19,-1116.76 1119.05,-1145.06 1121.94,-1149.64 1125.87,-1153.48 1130.29,-1156.68"/>
<polygon fill="#6f42c1" stroke="#6f42c1" stroke-width="2" points="1129.34,-1158.15 1134.47,-1159.46 1131.27,-1155.24 1129.34,-1158.15"/>
<text text-anchor="middle" x="813.51" y="-352.46" font-family="Times-Roman" font-size="7.00" fill="#6f42c1">about</text>
</g>
<!-- L4YAML.Proofs.ScannerCorrectness.advance_preserves_tokens&#45;&gt;L4YAML.YamlToken -->
<g id="edge36" class="edge">
<title>L4YAML.Proofs.ScannerCorrectness.advance_preserves_tokens&#45;&gt;L4YAML.YamlToken</title>
<path fill="none" stroke="#6f42c1" stroke-width="2" stroke-dasharray="5,2" d="M370.12,-484.92C421.94,-486.42 481.18,-477.7 518.97,-439.06 535.36,-422.3 515.72,-353.39 528.97,-334.06 537.97,-320.94 545.5,-321.71 560.97,-318.06 615.59,-305.16 1022.76,-282.34 1066.05,-318.06 1129.25,-370.2 1092,-417.62 1101.05,-499.06 1104.68,-531.76 1101.48,-1063.23 1119.05,-1091.06 1123.09,-1097.47 1129.18,-1102.42 1135.79,-1106.24"/>
<polygon fill="#6f42c1" stroke="#6f42c1" stroke-width="2" points="1135.2,-1107.9 1140.44,-1108.7 1136.84,-1104.81 1135.2,-1107.9"/>
<text text-anchor="middle" x="813.51" y="-320.46" font-family="Times-Roman" font-size="7.00" fill="#6f42c1">about</text>
</g>
<!-- L4YAML.Proofs.ScannerCorrectness.advance_preserves_tokens&#45;&gt;L4YAML.Scanner.ScannerState.tokens -->
<g id="edge33" class="edge">
<title>L4YAML.Proofs.ScannerCorrectness.advance_preserves_tokens&#45;&gt;L4YAML.Scanner.ScannerState.tokens</title>
<path fill="none" stroke="#6f42c1" stroke-width="2" stroke-dasharray="5,2" d="M367.37,-485.24C420.07,-487.32 480.96,-479.03 518.97,-439.06 541.84,-415.01 510.59,-317.69 528.97,-290.06 537.78,-276.82 545.5,-277.71 560.97,-274.06 619.4,-260.26 1067.99,-239.94 1101.05,-290.06 1146.76,-359.36 1074.95,-966.71 1119.05,-1037.06 1120.21,-1038.91 1121.55,-1040.65 1123.02,-1042.27"/>
<polygon fill="#6f42c1" stroke="#6f42c1" stroke-width="2" points="1121.88,-1043.6 1126.68,-1045.84 1124.32,-1041.1 1121.88,-1043.6"/>
<text text-anchor="middle" x="813.51" y="-276.46" font-family="Times-Roman" font-size="7.00" fill="#6f42c1">about</text>
</g>
<!-- L4YAML.Proofs.ScannerCorrectness.advance_preserves_tokens&#45;&gt;L4YAML.Proofs.ScannerCorrectness.ScanHelpers.scanBlockEntry_adds_tokens -->
<g id="edge7" class="edge">
<title>L4YAML.Proofs.ScannerCorrectness.advance_preserves_tokens&#45;&gt;L4YAML.Proofs.ScannerCorrectness.ScanHelpers.scanBlockEntry_adds_tokens</title>
<path fill="none" stroke="#28a745" d="M421.34,-473.08C454.53,-477.88 488.67,-485.92 518.97,-499.06 536.05,-506.46 542.9,-509.29 550.97,-526.06 559.7,-544.18 547.59,-873.04 560.97,-888.06 567.58,-895.47 574.98,-901.86 582.96,-907.34"/>
<polygon fill="#28a745" stroke="#28a745" points="581.97,-909.62 589.18,-911.36 584.63,-905.5 581.97,-909.62"/>
</g>
<!-- Decidable.byContradiction -->
<g id="node17" class="node">
<title>Decidable.byContradiction</title>
<g id="a_node17"><a xlink:href="../../../api/Init/Core.html#Decidable.byContradiction" xlink:title="Decidable.byContradiction" target="_blank">
<ellipse fill="#fdebd0" stroke="#e67e22" cx="263.49" cy="-988.06" rx="77.23" ry="18"/>
<text text-anchor="middle" x="263.49" y="-985.56" font-family="Helvetica" font-size="10.00">Decidable.byContradiction</text>
</a>
</g>
</g>
<!-- Decidable.byContradiction&#45;&gt;L4YAML.Proofs.ScannerCorrectness.ScanHelpers.scanBlockEntry_adds_tokens -->
<g id="edge12" class="edge">
<title>Decidable.byContradiction&#45;&gt;L4YAML.Proofs.ScannerCorrectness.ScanHelpers.scanBlockEntry_adds_tokens</title>
<path fill="none" stroke="#e67e22" stroke-width="2" d="M340.73,-987.23C398.59,-985.9 480.02,-982.53 550.97,-974.06 603.04,-967.84 660.31,-957.32 707.95,-947.52"/>
<polygon fill="#e67e22" stroke="#e67e22" stroke-width="2" points="708.55,-949.9 714.9,-946.08 707.55,-945.1 708.55,-949.9"/>
</g>
</g>
</svg>
