<?xml version="1.0" encoding="UTF-8" standalone="no"?>
<!DOCTYPE svg PUBLIC "-//W3C//DTD SVG 1.1//EN"
 "http://www.w3.org/Graphics/SVG/1.1/DTD/svg11.dtd">
<!-- Generated by graphviz version 2.44.0 (0)
 -->
<!-- Title: ScannerCorrectness.scanDocumentEnd_preserves_simpleKeyStack Pages: 1 -->
<svg width="1404pt" height="1017pt"
 viewBox="0.00 0.00 1404.46 1016.97" xmlns="http://www.w3.org/2000/svg" xmlns:xlink="http://www.w3.org/1999/xlink">
<g id="graph0" class="graph" transform="scale(1 1) rotate(0) translate(4 1012.97)">
<title>ScannerCorrectness.scanDocumentEnd_preserves_simpleKeyStack</title>
<polygon fill="white" stroke="transparent" points="-4,4 -4,-1012.97 1400.46,-1012.97 1400.46,4 -4,4"/>
<text text-anchor="middle" x="698.23" y="-994.57" font-family="Helvetica Bold" font-size="13.00">ScannerCorrectness.scanDocumentEnd_preserves_simpleKeyStack</text>
<text text-anchor="middle" x="698.23" y="-980.57" font-family="Helvetica Bold" font-size="13.00">(heuristic: used by 5 proofs)</text>
<text text-anchor="middle" x="698.23" y="-966.57" font-family="Helvetica Bold" font-size="13.00">(L4YAML.Proofs.Scanner.ScannerCorrectness)</text>
<g id="clust1" class="cluster">
<title>cluster_functions</title>
<polygon fill="none" stroke="#4a90d9" stroke-dasharray="5,2" points="833.26,-379.97 833.26,-669.97 1388.46,-669.97 1388.46,-379.97 833.26,-379.97"/>
<text text-anchor="middle" x="1110.86" y="-655.57" font-family="Helvetica Bold" font-size="13.00" fill="#4a90d9">Functions</text>
</g>
<g id="clust2" class="cluster">
<title>cluster_key</title>
<polygon fill="none" stroke="#d4a017" stroke-dasharray="5,2" points="644.07,-693.97 644.07,-775.97 1178.46,-775.97 1178.46,-693.97 644.07,-693.97"/>
<text text-anchor="middle" x="911.26" y="-761.57" font-family="Helvetica Bold" font-size="13.00" fill="#d4a017">Key Theorem</text>
</g>
<g id="clust3" class="cluster">
<title>cluster_proofs</title>
<polygon fill="none" stroke="#28a745" stroke-dasharray="5,2" points="87.73,-274.97 87.73,-474.97 522.34,-474.97 522.34,-274.97 87.73,-274.97"/>
<text text-anchor="middle" x="305.03" y="-460.57" font-family="Helvetica Bold" font-size="13.00" fill="#28a745">Proof Dependencies</text>
</g>
<g id="clust4" class="cluster">
<title>cluster_stdlib</title>
<polygon fill="none" stroke="#e67e22" stroke-dasharray="5,2" points="8,-606.97 8,-950.97 602.07,-950.97 602.07,-606.97 8,-606.97"/>
<text text-anchor="middle" x="305.03" y="-936.57" font-family="Helvetica Bold" font-size="13.00" fill="#e67e22">Stdlib Lemmas</text>
</g>
<!-- L4YAML.Scanner.ScannerState.advanceN -->
<g id="node1" class="node">
<title>L4YAML.Scanner.ScannerState.advanceN</title>
<g id="a_node1"><a xlink:href="../../../api/L4YAML/Scanner/State.html#L4YAML.Scanner.ScannerState.advanceN" xlink:title="ScannerState.advanceN\n(def)" target="_blank">
<polygon fill="#dce9f7" stroke="#4a90d9" points="972.26,-423.97 850.26,-423.97 850.26,-387.97 972.26,-387.97 972.26,-423.97"/>
<text text-anchor="middle" x="911.26" y="-408.97" font-family="Helvetica" font-size="10.00">ScannerState.advanceN</text>
<text text-anchor="middle" x="911.26" y="-397.97" font-family="Helvetica" font-size="10.00">(def)</text>
</a>
</g>
</g>
<!-- L4YAML.Scanner.ScannerState.emit -->
<g id="node2" class="node">
<title>L4YAML.Scanner.ScannerState.emit</title>
<g id="a_node2"><a xlink:href="../../../api/L4YAML/Scanner/State.html#L4YAML.Scanner.ScannerState.emit" xlink:title="ScannerState.emit\n(def)" target="_blank">
<polygon fill="#dce9f7" stroke="#4a90d9" points="960.26,-585.97 862.26,-585.97 862.26,-549.97 960.26,-549.97 960.26,-585.97"/>
<text text-anchor="middle" x="911.26" y="-570.97" font-family="Helvetica" font-size="10.00">ScannerState.emit</text>
<text text-anchor="middle" x="911.26" y="-559.97" font-family="Helvetica" font-size="10.00">(def)</text>
</a>
</g>
</g>
<!-- L4YAML.Scanner.unwindIndents -->
<g id="node3" class="node">
<title>L4YAML.Scanner.unwindIndents</title>
<g id="a_node3"><a xlink:href="../../../api/L4YAML/Scanner/Indent.html#L4YAML.Scanner.unwindIndents" xlink:title="unwindIndents\n(def)" target="_blank">
<polygon fill="#dce9f7" stroke="#4a90d9" points="951.26,-477.97 871.26,-477.97 871.26,-441.97 951.26,-441.97 951.26,-477.97"/>
<text text-anchor="middle" x="911.26" y="-462.97" font-family="Helvetica" font-size="10.00">unwindIndents</text>
<text text-anchor="middle" x="911.26" y="-451.97" font-family="Helvetica" font-size="10.00">(def)</text>
</a>
</g>
</g>
<!-- L4YAML.YamlToken -->
<g id="node4" class="node">
<title>L4YAML.YamlToken</title>
<g id="a_node4"><a xlink:href="../../../api/L4YAML/Token/Token.html#L4YAML.YamlToken" xlink:title="YamlToken\n(inductive)" target="_blank">
<polygon fill="#dce9f7" stroke="#4a90d9" points="943.26,-531.97 879.26,-531.97 879.26,-495.97 943.26,-495.97 943.26,-531.97"/>
<text text-anchor="middle" x="911.26" y="-516.97" font-family="Helvetica" font-size="10.00">YamlToken</text>
<text text-anchor="middle" x="911.26" y="-505.97" font-family="Helvetica" font-size="10.00">(inductive)</text>
</a>
</g>
</g>
<!-- L4YAML.Scanner.ScannerState -->
<g id="node5" class="node">
<title>L4YAML.Scanner.ScannerState</title>
<g id="a_node5"><a xlink:href="../../../api/L4YAML/Scanner/State.html#L4YAML.Scanner.ScannerState" xlink:title="ScannerState\n(inductive)" target="_blank">
<polygon fill="#dce9f7" stroke="#4a90d9" points="1343.96,-531.97 1267.96,-531.97 1267.96,-495.97 1343.96,-495.97 1343.96,-531.97"/>
<text text-anchor="middle" x="1305.96" y="-516.97" font-family="Helvetica" font-size="10.00">ScannerState</text>
<text text-anchor="middle" x="1305.96" y="-505.97" font-family="Helvetica" font-size="10.00">(inductive)</text>
</a>
</g>
</g>
<!-- L4YAML.Scanner.scanDocumentEnd.match_1 -->
<g id="node6" class="node">
<title>L4YAML.Scanner.scanDocumentEnd.match_1</title>
<g id="a_node6"><a xlink:href="../../../api/L4YAML/Scanner/Document.html#L4YAML.Scanner.scanDocumentEnd.match_1" xlink:title="scanDocumentEnd.match_1\n(def)" target="_blank">
<polygon fill="#dce9f7" stroke="#4a90d9" points="981.26,-639.97 841.26,-639.97 841.26,-603.97 981.26,-603.97 981.26,-639.97"/>
<text text-anchor="middle" x="911.26" y="-624.97" font-family="Helvetica" font-size="10.00">scanDocumentEnd.match_1</text>
<text text-anchor="middle" x="911.26" y="-613.97" font-family="Helvetica" font-size="10.00">(def)</text>
</a>
</g>
</g>
<!-- L4YAML.Scanner.scanDocumentEnd -->
<g id="node7" class="node">
<title>L4YAML.Scanner.scanDocumentEnd</title>
<g id="a_node7"><a xlink:href="../../../api/L4YAML/Scanner/Document.html#L4YAML.Scanner.scanDocumentEnd" xlink:title="scanDocumentEnd\n(def)" target="_blank">
<polygon fill="#dce9f7" stroke="#4a90d9" points="1355.96,-639.97 1255.96,-639.97 1255.96,-603.97 1355.96,-603.97 1355.96,-639.97"/>
<text text-anchor="middle" x="1305.96" y="-624.97" font-family="Helvetica" font-size="10.00">scanDocumentEnd</text>
<text text-anchor="middle" x="1305.96" y="-613.97" font-family="Helvetica" font-size="10.00">(def)</text>
</a>
</g>
</g>
<!-- L4YAML.Scanner.ScannerState.simpleKeyStack -->
<g id="node8" class="node">
<title>L4YAML.Scanner.ScannerState.simpleKeyStack</title>
<g id="a_node8"><a xlink:href="../../../api/L4YAML/Scanner/State.html#L4YAML.Scanner.ScannerState.simpleKeyStack" xlink:title="ScannerState.simpleKeyStack\n(def)" target="_blank">
<polygon fill="#dce9f7" stroke="#4a90d9" points="1380.46,-477.97 1231.46,-477.97 1231.46,-441.97 1380.46,-441.97 1380.46,-477.97"/>
<text text-anchor="middle" x="1305.96" y="-462.97" font-family="Helvetica" font-size="10.00">ScannerState.simpleKeyStack</text>
<text text-anchor="middle" x="1305.96" y="-451.97" font-family="Helvetica" font-size="10.00">(def)</text>
</a>
</g>
</g>
<!-- L4YAML.ScanError -->
<g id="node9" class="node">
<title>L4YAML.ScanError</title>
<g id="a_node9"><a xlink:href="../../../api/L4YAML/Token/Token.html#L4YAML.ScanError" xlink:title="ScanError\n(inductive)" target="_blank">
<polygon fill="#dce9f7" stroke="#4a90d9" points="1336.96,-585.97 1274.96,-585.97 1274.96,-549.97 1336.96,-549.97 1336.96,-585.97"/>
<text text-anchor="middle" x="1305.96" y="-570.97" font-family="Helvetica" font-size="10.00">ScanError</text>
<text text-anchor="middle" x="1305.96" y="-559.97" font-family="Helvetica" font-size="10.00">(inductive)</text>
</a>
</g>
</g>
<!-- L4YAML.Scanner.SimpleKeyState -->
<g id="node10" class="node">
<title>L4YAML.Scanner.SimpleKeyState</title>
<g id="a_node10"><a xlink:href="../../../api/L4YAML/Scanner/State.html#L4YAML.Scanner.SimpleKeyState" xlink:title="SimpleKeyState\n(inductive)" target="_blank">
<polygon fill="#dce9f7" stroke="#4a90d9" points="1348.96,-423.97 1262.96,-423.97 1262.96,-387.97 1348.96,-387.97 1348.96,-423.97"/>
<text text-anchor="middle" x="1305.96" y="-408.97" font-family="Helvetica" font-size="10.00">SimpleKeyState</text>
<text text-anchor="middle" x="1305.96" y="-397.97" font-family="Helvetica" font-size="10.00">(inductive)</text>
</a>
</g>
</g>
<!-- L4YAML.Proofs.ScannerCorrectness.scanDocumentEnd_preserves_simpleKeyStack -->
<g id="node11" class="node">
<title>L4YAML.Proofs.ScannerCorrectness.scanDocumentEnd_preserves_simpleKeyStack</title>
<g id="a_node11"><a xlink:href="../../../api/L4YAML/Proofs/Scanner/ScannerCorrectness.html#L4YAML.Proofs.ScannerCorrectness.scanDocumentEnd_preserves_simpleKeyStack" xlink:title="ScannerCorrectness.scanDocumentEnd_preserves_simpleKeyStack" target="_blank">
<polygon fill="#fff3cd" stroke="#d4a017" points="1166.65,-716.51 1166.65,-731.42 1017.05,-741.97 805.48,-741.97 655.87,-731.42 655.87,-716.51 805.48,-705.97 1017.05,-705.97 1166.65,-716.51"/>
<polygon fill="none" stroke="#d4a017" points="1170.65,-712.78 1170.65,-735.15 1017.19,-745.97 805.34,-745.97 651.87,-735.15 651.87,-712.78 805.34,-701.97 1017.19,-701.97 1170.65,-712.78"/>
<text text-anchor="middle" x="911.26" y="-720.87" font-family="Helvetica" font-size="12.00">ScannerCorrectness.scanDocumentEnd_preserves_simpleKeyStack</text>
</a>
</g>
</g>
<!-- L4YAML.Proofs.ScannerCorrectness.scanDocumentEnd_preserves_simpleKeyStack&#45;&gt;L4YAML.Scanner.ScannerState -->
<g id="edge3" class="edge">
<title>L4YAML.Proofs.ScannerCorrectness.scanDocumentEnd_preserves_simpleKeyStack&#45;&gt;L4YAML.Scanner.ScannerState</title>
<path fill="none" stroke="#4a90d9" stroke-width="2" d="M1095.93,-707.49C1123.92,-702.58 1152.21,-696.22 1178.46,-687.97 1195.14,-682.72 1203.33,-684.23 1213.46,-669.97 1246.96,-622.76 1195.12,-586.03 1231.46,-540.97 1238.88,-531.76 1249.74,-525.7 1260.84,-521.7"/>
<polygon fill="#4a90d9" stroke="#4a90d9" stroke-width="2" points="1261.85,-523.95 1267.76,-519.47 1260.35,-519.29 1261.85,-523.95"/>
<text text-anchor="middle" x="1200.96" y="-687.57" font-family="Times-Roman" font-size="8.00" fill="#4a90d9">about</text>
</g>
<!-- L4YAML.Proofs.ScannerCorrectness.scanDocumentEnd_preserves_simpleKeyStack&#45;&gt;L4YAML.Scanner.scanDocumentEnd -->
<g id="edge1" class="edge">
<title>L4YAML.Proofs.ScannerCorrectness.scanDocumentEnd_preserves_simpleKeyStack&#45;&gt;L4YAML.Scanner.scanDocumentEnd</title>
<path fill="none" stroke="#4a90d9" stroke-width="2" d="M992.75,-745.98C1055.88,-758.82 1144.32,-766.76 1213.46,-733.97 1251.31,-716.01 1278.69,-673.88 1293.17,-646.72"/>
<polygon fill="#4a90d9" stroke="#4a90d9" stroke-width="2" points="1295.52,-647.5 1296.57,-640.16 1291.17,-645.24 1295.52,-647.5"/>
<text text-anchor="middle" x="1200.96" y="-745.57" font-family="Times-Roman" font-size="8.00" fill="#4a90d9">about</text>
</g>
<!-- L4YAML.Proofs.ScannerCorrectness.scanDocumentEnd_preserves_simpleKeyStack&#45;&gt;L4YAML.Scanner.ScannerState.simpleKeyStack -->
<g id="edge2" class="edge">
<title>L4YAML.Proofs.ScannerCorrectness.scanDocumentEnd_preserves_simpleKeyStack&#45;&gt;L4YAML.Scanner.ScannerState.simpleKeyStack</title>
<path fill="none" stroke="#4a90d9" stroke-width="2" d="M1130.7,-709.83C1147.47,-704.18 1163.62,-697.01 1178.46,-687.97 1201.62,-673.85 1203.78,-663.31 1213.46,-637.97 1237.56,-574.82 1189.56,-540 1231.46,-486.97 1232.64,-485.47 1233.91,-484.06 1235.26,-482.73"/>
<polygon fill="#4a90d9" stroke="#4a90d9" stroke-width="2" points="1237.09,-484.38 1240.81,-477.97 1233.9,-480.66 1237.09,-484.38"/>
<text text-anchor="middle" x="1200.96" y="-682.57" font-family="Times-Roman" font-size="8.00" fill="#4a90d9">about</text>
</g>
<!-- L4YAML.Proofs.ScannerCorrectness.scanDocumentEnd_preserves_simpleKeyStack&#45;&gt;L4YAML.ScanError -->
<g id="edge4" class="edge">
<title>L4YAML.Proofs.ScannerCorrectness.scanDocumentEnd_preserves_simpleKeyStack&#45;&gt;L4YAML.ScanError</title>
<path fill="none" stroke="#4a90d9" stroke-width="2" d="M1017.24,-746C1081.72,-753.06 1161.6,-749.17 1213.46,-701.97 1249.12,-669.5 1200.66,-632.08 1231.46,-594.97 1240.55,-584.01 1254.51,-577.5 1267.83,-573.63"/>
<polygon fill="#4a90d9" stroke="#4a90d9" stroke-width="2" points="1268.55,-575.97 1274.7,-571.84 1267.31,-571.23 1268.55,-575.97"/>
<text text-anchor="middle" x="1200.96" y="-718.57" font-family="Times-Roman" font-size="8.00" fill="#4a90d9">about</text>
</g>
<!-- L4YAML.Proofs.ScannerCorrectness.scanDocumentEnd_preserves_simpleKeyStack&#45;&gt;L4YAML.Scanner.SimpleKeyState -->
<g id="edge5" class="edge">
<title>L4YAML.Proofs.ScannerCorrectness.scanDocumentEnd_preserves_simpleKeyStack&#45;&gt;L4YAML.Scanner.SimpleKeyState</title>
<path fill="none" stroke="#4a90d9" stroke-width="2" d="M1147.08,-711.05C1158.45,-704.79 1169.04,-697.17 1178.46,-687.97 1188.6,-678.06 1185.46,-638.82 1188.46,-624.97 1197.31,-583.97 1204.21,-574.88 1213.46,-533.97 1223.51,-489.49 1202.17,-467.91 1231.46,-432.97 1237.85,-425.34 1246.6,-419.86 1255.84,-415.94"/>
<polygon fill="#4a90d9" stroke="#4a90d9" stroke-width="2" points="1256.96,-418.13 1262.62,-413.34 1255.21,-413.55 1256.96,-418.13"/>
<text text-anchor="middle" x="1200.96" y="-627.57" font-family="Times-Roman" font-size="8.00" fill="#4a90d9">about</text>
</g>
<!-- L4YAML.Proofs.ScannerCorrectness.emit_preserves_simpleKeyStack -->
<g id="node12" class="node">
<title>L4YAML.Proofs.ScannerCorrectness.emit_preserves_simpleKeyStack</title>
<g id="a_node12"><a xlink:href="../../../api/L4YAML/Proofs/Scanner/ScannerCorrectness.html#L4YAML.Proofs.ScannerCorrectness.emit_preserves_simpleKeyStack" xlink:title="ScannerCorrectness.emit_preserves_simpleKeyStack\n(Scanner.ScannerCorrectness)" target="_blank">
<ellipse fill="#d4edda" stroke="#28a745" cx="305.03" cy="-423.97" rx="177.47" ry="21.43"/>
<text text-anchor="middle" x="305.03" y="-426.97" font-family="Helvetica" font-size="10.00">ScannerCorrectness.emit_preserves_simpleKeyStack</text>
<text text-anchor="middle" x="305.03" y="-415.97" font-family="Helvetica" font-size="10.00">(Scanner.ScannerCorrectness)</text>
</a>
</g>
</g>
<!-- L4YAML.Proofs.ScannerCorrectness.emit_preserves_simpleKeyStack&#45;&gt;L4YAML.Scanner.ScannerState.emit -->
<g id="edge18" class="edge">
<title>L4YAML.Proofs.ScannerCorrectness.emit_preserves_simpleKeyStack&#45;&gt;L4YAML.Scanner.ScannerState.emit</title>
<path fill="none" stroke="#6f42c1" stroke-width="2" stroke-dasharray="5,2" d="M353.72,-444.43C418.27,-471.21 537.64,-517.48 644.07,-540.97 716.79,-557.01 802.83,-563.55 856.99,-566.19"/>
<polygon fill="#6f42c1" stroke="#6f42c1" stroke-width="2" points="857.05,-567.95 862.13,-566.44 857.22,-564.45 857.05,-567.95"/>
<text text-anchor="middle" x="623.07" y="-538.37" font-family="Times-Roman" font-size="7.00" fill="#6f42c1">about</text>
</g>
<!-- L4YAML.Proofs.ScannerCorrectness.emit_preserves_simpleKeyStack&#45;&gt;L4YAML.YamlToken -->
<g id="edge19" class="edge">
<title>L4YAML.Proofs.ScannerCorrectness.emit_preserves_simpleKeyStack&#45;&gt;L4YAML.YamlToken</title>
<path fill="none" stroke="#6f42c1" stroke-width="2" stroke-dasharray="5,2" d="M481.65,-426.13C533.52,-433.07 588.55,-447.1 634.07,-473.97 640.34,-477.67 637.7,-483.42 644.07,-486.97 717.59,-527.91 820.35,-524.42 874.16,-518.89"/>
<polygon fill="#6f42c1" stroke="#6f42c1" stroke-width="2" points="874.43,-520.62 879.21,-518.35 874.05,-517.14 874.43,-520.62"/>
<text text-anchor="middle" x="623.07" y="-476.37" font-family="Times-Roman" font-size="7.00" fill="#6f42c1">about</text>
</g>
<!-- L4YAML.Proofs.ScannerCorrectness.emit_preserves_simpleKeyStack&#45;&gt;L4YAML.Scanner.ScannerState -->
<g id="edge20" class="edge">
<title>L4YAML.Proofs.ScannerCorrectness.emit_preserves_simpleKeyStack&#45;&gt;L4YAML.Scanner.ScannerState</title>
<path fill="none" stroke="#6f42c1" stroke-width="2" stroke-dasharray="5,2" d="M341.99,-444.79C398.12,-477.51 509.72,-543.37 602.07,-602.97 616.57,-612.32 623.19,-611.56 634.07,-624.97 641.35,-633.94 634.45,-642.56 644.07,-648.97 693.47,-681.9 1123.76,-672.07 1178.46,-648.97 1199.01,-640.28 1202.6,-632.46 1213.46,-612.97 1229.51,-584.15 1209.42,-565.5 1231.46,-540.97 1239.65,-531.85 1251.18,-525.81 1262.68,-521.8"/>
<polygon fill="#6f42c1" stroke="#6f42c1" stroke-width="2" points="1263.39,-523.42 1267.6,-520.21 1262.31,-520.09 1263.39,-523.42"/>
<text text-anchor="middle" x="911.26" y="-672.37" font-family="Times-Roman" font-size="7.00" fill="#6f42c1">about</text>
</g>
<!-- L4YAML.Proofs.ScannerCorrectness.emit_preserves_simpleKeyStack&#45;&gt;L4YAML.Scanner.ScannerState.simpleKeyStack -->
<g id="edge17" class="edge">
<title>L4YAML.Proofs.ScannerCorrectness.emit_preserves_simpleKeyStack&#45;&gt;L4YAML.Scanner.ScannerState.simpleKeyStack</title>
<path fill="none" stroke="#6f42c1" stroke-width="2" stroke-dasharray="5,2" d="M431.93,-438.85C497.48,-440.19 575.87,-431.1 634.07,-390.97 642.25,-385.32 635.61,-376.19 644.07,-370.97 694.58,-339.75 1124.53,-346.12 1178.46,-370.97 1211.38,-386.14 1201.7,-412.26 1231.46,-432.97 1234.91,-435.37 1238.59,-437.58 1242.41,-439.62"/>
<polygon fill="#6f42c1" stroke="#6f42c1" stroke-width="2" points="1241.7,-441.22 1246.95,-441.93 1243.29,-438.1 1241.7,-441.22"/>
<text text-anchor="middle" x="911.26" y="-373.37" font-family="Times-Roman" font-size="7.00" fill="#6f42c1">about</text>
</g>
<!-- L4YAML.Proofs.ScannerCorrectness.emit_preserves_simpleKeyStack&#45;&gt;L4YAML.Scanner.SimpleKeyState -->
<g id="edge21" class="edge">
<title>L4YAML.Proofs.ScannerCorrectness.emit_preserves_simpleKeyStack&#45;&gt;L4YAML.Scanner.SimpleKeyState</title>
<path fill="none" stroke="#6f42c1" stroke-width="2" stroke-dasharray="5,2" d="M403.16,-441.68C467.68,-447.52 549.84,-442.67 602.07,-393.97 621.2,-376.13 605.53,-361.29 612.07,-335.97 622.89,-294.05 608.78,-269.05 644.07,-243.97 740.85,-175.16 1062.42,-218.7 1178.46,-243.97 1245.13,-258.48 1282.78,-341.7 1297.57,-382.89"/>
<polygon fill="#6f42c1" stroke="#6f42c1" stroke-width="2" points="1295.95,-383.56 1299.26,-387.7 1299.25,-382.4 1295.95,-383.56"/>
<text text-anchor="middle" x="911.26" y="-246.37" font-family="Times-Roman" font-size="7.00" fill="#6f42c1">about</text>
</g>
<!-- L4YAML.Proofs.ScannerCorrectness.emit_preserves_simpleKeyStack&#45;&gt;L4YAML.Proofs.ScannerCorrectness.scanDocumentEnd_preserves_simpleKeyStack -->
<g id="edge8" class="edge">
<title>L4YAML.Proofs.ScannerCorrectness.emit_preserves_simpleKeyStack&#45;&gt;L4YAML.Proofs.ScannerCorrectness.scanDocumentEnd_preserves_simpleKeyStack</title>
<path fill="none" stroke="#28a745" d="M360.75,-444.14C426.52,-470.96 536.23,-524.34 602.07,-602.97 610.02,-612.46 606.38,-617.97 612.07,-628.97 620.17,-644.62 625.96,-646.31 634.07,-661.97 639.76,-672.96 634.36,-680.29 644.07,-687.97 653.78,-695.64 664.33,-702.11 675.46,-707.55"/>
<polygon fill="#28a745" stroke="#28a745" points="674.69,-709.89 682.07,-710.63 676.76,-705.45 674.69,-709.89"/>
</g>
<!-- L4YAML.Proofs.ScannerCorrectness.unwindIndents_preserves_simpleKeyStack -->
<g id="node13" class="node">
<title>L4YAML.Proofs.ScannerCorrectness.unwindIndents_preserves_simpleKeyStack</title>
<g id="a_node13"><a xlink:href="../../../api/L4YAML/Proofs/Scanner/ScannerCorrectness.html#L4YAML.Proofs.ScannerCorrectness.unwindIndents_preserves_simpleKeyStack" xlink:title="ScannerCorrectness.unwindIndents_preserves_simpleKeyStack\n(Scanner.ScannerCorrectness)" target="_blank">
<ellipse fill="#d4edda" stroke="#28a745" cx="305.03" cy="-363.97" rx="209.11" ry="21.43"/>
<text text-anchor="middle" x="305.03" y="-366.97" font-family="Helvetica" font-size="10.00">ScannerCorrectness.unwindIndents_preserves_simpleKeyStack</text>
<text text-anchor="middle" x="305.03" y="-355.97" font-family="Helvetica" font-size="10.00">(Scanner.ScannerCorrectness)</text>
</a>
</g>
</g>
<!-- L4YAML.Proofs.ScannerCorrectness.unwindIndents_preserves_simpleKeyStack&#45;&gt;L4YAML.Scanner.unwindIndents -->
<g id="edge24" class="edge">
<title>L4YAML.Proofs.ScannerCorrectness.unwindIndents_preserves_simpleKeyStack&#45;&gt;L4YAML.Scanner.unwindIndents</title>
<path fill="none" stroke="#6f42c1" stroke-width="2" stroke-dasharray="5,2" d="M511.63,-367.4C542.82,-372.83 573.94,-381.25 602.07,-393.97 625.28,-404.46 620.86,-422.47 644.07,-432.97 716.64,-465.79 811.42,-466.75 866.1,-463.81"/>
<polygon fill="#6f42c1" stroke="#6f42c1" stroke-width="2" points="866.37,-465.55 871.26,-463.52 866.17,-462.06 866.37,-465.55"/>
<text text-anchor="middle" x="623.07" y="-428.37" font-family="Times-Roman" font-size="7.00" fill="#6f42c1">about</text>
</g>
<!-- L4YAML.Proofs.ScannerCorrectness.unwindIndents_preserves_simpleKeyStack&#45;&gt;L4YAML.Scanner.ScannerState -->
<g id="edge23" class="edge">
<title>L4YAML.Proofs.ScannerCorrectness.unwindIndents_preserves_simpleKeyStack&#45;&gt;L4YAML.Scanner.ScannerState</title>
<path fill="none" stroke="#6f42c1" stroke-width="2" stroke-dasharray="5,2" d="M447.16,-348.34C498.95,-343.32 558.1,-338.43 612.07,-335.97 737.8,-330.23 1075.76,-264.19 1178.46,-336.97 1236.15,-377.85 1181.77,-436.66 1231.46,-486.97 1239.98,-495.6 1251.5,-501.49 1262.88,-505.51"/>
<polygon fill="#6f42c1" stroke="#6f42c1" stroke-width="2" points="1262.45,-507.21 1267.74,-507.12 1263.55,-503.89 1262.45,-507.21"/>
<text text-anchor="middle" x="911.26" y="-339.37" font-family="Times-Roman" font-size="7.00" fill="#6f42c1">about</text>
</g>
<!-- L4YAML.Proofs.ScannerCorrectness.unwindIndents_preserves_simpleKeyStack&#45;&gt;L4YAML.Scanner.ScannerState.simpleKeyStack -->
<g id="edge22" class="edge">
<title>L4YAML.Proofs.ScannerCorrectness.unwindIndents_preserves_simpleKeyStack&#45;&gt;L4YAML.Scanner.ScannerState.simpleKeyStack</title>
<path fill="none" stroke="#6f42c1" stroke-width="2" stroke-dasharray="5,2" d="M404.73,-382.65C469.53,-388.79 551.38,-383.91 602.07,-333.97 615.77,-320.46 605.84,-266.17 612.07,-247.97 620.97,-221.93 620.1,-208.49 644.07,-194.97 695.78,-165.78 1127.48,-164.52 1178.46,-194.97 1206.63,-211.79 1203.8,-228.61 1213.46,-259.97 1224.84,-296.91 1207.72,-402.46 1231.46,-432.97 1232.99,-434.94 1234.69,-436.77 1236.51,-438.47"/>
<polygon fill="#6f42c1" stroke="#6f42c1" stroke-width="2" points="1235.48,-439.88 1240.43,-441.77 1237.73,-437.21 1235.48,-439.88"/>
<text text-anchor="middle" x="911.26" y="-197.37" font-family="Times-Roman" font-size="7.00" fill="#6f42c1">about</text>
</g>
<!-- L4YAML.Proofs.ScannerCorrectness.unwindIndents_preserves_simpleKeyStack&#45;&gt;L4YAML.Scanner.SimpleKeyState -->
<g id="edge25" class="edge">
<title>L4YAML.Proofs.ScannerCorrectness.unwindIndents_preserves_simpleKeyStack&#45;&gt;L4YAML.Scanner.SimpleKeyState</title>
<path fill="none" stroke="#6f42c1" stroke-width="2" stroke-dasharray="5,2" d="M399.97,-382.91C466.01,-390.28 551.32,-386.75 602.07,-333.97 614.57,-320.97 607.16,-189.32 612.07,-171.97 620.3,-142.89 618.15,-127.52 644.07,-111.97 745.9,-50.87 1062.42,-86.7 1178.46,-111.97 1292,-136.69 1304.45,-317.2 1305.21,-382.49"/>
<polygon fill="#6f42c1" stroke="#6f42c1" stroke-width="2" points="1303.46,-382.73 1305.25,-387.71 1306.96,-382.7 1303.46,-382.73"/>
<text text-anchor="middle" x="911.26" y="-114.37" font-family="Times-Roman" font-size="7.00" fill="#6f42c1">about</text>
</g>
<!-- L4YAML.Proofs.ScannerCorrectness.unwindIndents_preserves_simpleKeyStack&#45;&gt;L4YAML.Proofs.ScannerCorrectness.scanDocumentEnd_preserves_simpleKeyStack -->
<g id="edge7" class="edge">
<title>L4YAML.Proofs.ScannerCorrectness.unwindIndents_preserves_simpleKeyStack&#45;&gt;L4YAML.Proofs.ScannerCorrectness.scanDocumentEnd_preserves_simpleKeyStack</title>
<path fill="none" stroke="#28a745" d="M398.79,-344.96C465.13,-337.29 551.33,-340.45 602.07,-393.97 618.14,-410.92 603.91,-582.08 612.07,-603.97 617.59,-618.8 627.59,-617.52 634.07,-631.97 644.41,-655.04 625.82,-670.47 644.07,-687.97 651.94,-695.51 660.59,-701.98 669.82,-707.5"/>
<polygon fill="#28a745" stroke="#28a745" points="668.67,-709.66 675.96,-711 671.09,-705.41 668.67,-709.66"/>
</g>
<!-- L4YAML.Proofs.ScannerCorrectness.advanceN_preserves_simpleKeyStack -->
<g id="node14" class="node">
<title>L4YAML.Proofs.ScannerCorrectness.advanceN_preserves_simpleKeyStack</title>
<g id="a_node14"><a xlink:href="../../../api/L4YAML/Proofs/Scanner/ScannerCorrectness.html#L4YAML.Proofs.ScannerCorrectness.advanceN_preserves_simpleKeyStack" xlink:title="ScannerCorrectness.advanceN_preserves_simpleKeyStack\n(Scanner.ScannerCorrectness)" target="_blank">
<ellipse fill="#d4edda" stroke="#28a745" cx="305.03" cy="-303.97" rx="195.32" ry="21.43"/>
<text text-anchor="middle" x="305.03" y="-306.97" font-family="Helvetica" font-size="10.00">ScannerCorrectness.advanceN_preserves_simpleKeyStack</text>
<text text-anchor="middle" x="305.03" y="-295.97" font-family="Helvetica" font-size="10.00">(Scanner.ScannerCorrectness)</text>
</a>
</g>
</g>
<!-- L4YAML.Proofs.ScannerCorrectness.advanceN_preserves_simpleKeyStack&#45;&gt;L4YAML.Scanner.ScannerState.advanceN -->
<g id="edge28" class="edge">
<title>L4YAML.Proofs.ScannerCorrectness.advanceN_preserves_simpleKeyStack&#45;&gt;L4YAML.Scanner.ScannerState.advanceN</title>
<path fill="none" stroke="#6f42c1" stroke-width="2" stroke-dasharray="5,2" d="M500.04,-305.17C535.1,-310.49 570.5,-319.45 602.07,-333.97 625.49,-344.74 620.75,-362.98 644.07,-373.97 707.7,-403.95 788.97,-409.68 844.88,-409.35"/>
<polygon fill="#6f42c1" stroke="#6f42c1" stroke-width="2" points="845.23,-411.1 850.21,-409.3 845.19,-407.6 845.23,-411.1"/>
<text text-anchor="middle" x="623.07" y="-369.37" font-family="Times-Roman" font-size="7.00" fill="#6f42c1">about</text>
</g>
<!-- L4YAML.Proofs.ScannerCorrectness.advanceN_preserves_simpleKeyStack&#45;&gt;L4YAML.Scanner.ScannerState -->
<g id="edge27" class="edge">
<title>L4YAML.Proofs.ScannerCorrectness.advanceN_preserves_simpleKeyStack&#45;&gt;L4YAML.Scanner.ScannerState</title>
<path fill="none" stroke="#6f42c1" stroke-width="2" stroke-dasharray="5,2" d="M431.26,-287.78C640.86,-263.04 1052.16,-225.21 1178.46,-290.97 1202.52,-303.49 1203.73,-315.64 1213.46,-340.97 1236.9,-402 1190.82,-435.75 1231.46,-486.97 1239.22,-496.75 1250.88,-502.99 1262.64,-506.97"/>
<polygon fill="#6f42c1" stroke="#6f42c1" stroke-width="2" points="1262.37,-508.72 1267.67,-508.54 1263.42,-505.38 1262.37,-508.72"/>
<text text-anchor="middle" x="911.26" y="-293.37" font-family="Times-Roman" font-size="7.00" fill="#6f42c1">about</text>
</g>
<!-- L4YAML.Proofs.ScannerCorrectness.advanceN_preserves_simpleKeyStack&#45;&gt;L4YAML.Scanner.ScannerState.simpleKeyStack -->
<g id="edge26" class="edge">
<title>L4YAML.Proofs.ScannerCorrectness.advanceN_preserves_simpleKeyStack&#45;&gt;L4YAML.Scanner.ScannerState.simpleKeyStack</title>
<path fill="none" stroke="#6f42c1" stroke-width="2" stroke-dasharray="5,2" d="M341.98,-283.02C402.1,-249.34 527.91,-184.52 644.07,-160.97 760.45,-137.36 1069.7,-113.28 1178.46,-160.97 1199.49,-170.19 1204.29,-177.91 1213.46,-198.97 1234.27,-246.79 1199.99,-391.38 1231.46,-432.97 1232.97,-434.96 1234.64,-436.81 1236.44,-438.52"/>
<polygon fill="#6f42c1" stroke="#6f42c1" stroke-width="2" points="1235.39,-439.92 1240.32,-441.85 1237.67,-437.26 1235.39,-439.92"/>
<text text-anchor="middle" x="911.26" y="-163.37" font-family="Times-Roman" font-size="7.00" fill="#6f42c1">about</text>
</g>
<!-- L4YAML.Proofs.ScannerCorrectness.advanceN_preserves_simpleKeyStack&#45;&gt;L4YAML.Scanner.SimpleKeyState -->
<g id="edge29" class="edge">
<title>L4YAML.Proofs.ScannerCorrectness.advanceN_preserves_simpleKeyStack&#45;&gt;L4YAML.Scanner.SimpleKeyState</title>
<path fill="none" stroke="#6f42c1" stroke-width="2" stroke-dasharray="5,2" d="M326.38,-282.6C375.35,-232.91 506,-110.54 644.07,-66.97 870.56,4.52 965.1,37.38 1178.46,-66.97 1296.74,-124.82 1306.13,-315.2 1305.65,-382.3"/>
<polygon fill="#6f42c1" stroke="#6f42c1" stroke-width="2" points="1303.9,-382.64 1305.59,-387.66 1307.4,-382.68 1303.9,-382.64"/>
<text text-anchor="middle" x="911.26" y="-69.37" font-family="Times-Roman" font-size="7.00" fill="#6f42c1">about</text>
</g>
<!-- L4YAML.Proofs.ScannerCorrectness.advanceN_preserves_simpleKeyStack&#45;&gt;L4YAML.Proofs.ScannerCorrectness.scanDocumentEnd_preserves_simpleKeyStack -->
<g id="edge6" class="edge">
<title>L4YAML.Proofs.ScannerCorrectness.advanceN_preserves_simpleKeyStack&#45;&gt;L4YAML.Proofs.ScannerCorrectness.scanDocumentEnd_preserves_simpleKeyStack</title>
<path fill="none" stroke="#28a745" d="M396.12,-285.19C462.87,-277.06 550.81,-279.52 602.07,-333.97 620.74,-353.8 602.64,-553.4 612.07,-578.97 617.54,-593.81 627.99,-592.35 634.07,-606.97 641.04,-623.71 631.32,-675.07 644.07,-687.97 651.46,-695.44 659.61,-701.88 668.34,-707.41"/>
<polygon fill="#28a745" stroke="#28a745" points="667.21,-709.59 674.47,-711.09 669.73,-705.39 667.21,-709.59"/>
</g>
<!-- Except.ok.injEq -->
<g id="node15" class="node">
<title>Except.ok.injEq</title>
<g id="a_node15"><a xlink:href="../../../api/Init/Core.html#Except.ok.injEq" xlink:title="Except.ok.injEq" target="_blank">
<ellipse fill="#fdebd0" stroke="#e67e22" cx="305.03" cy="-902.97" rx="49.4" ry="18"/>
<text text-anchor="middle" x="305.03" y="-900.47" font-family="Helvetica" font-size="10.00">Except.ok.injEq</text>
</a>
</g>
</g>
<!-- Except.ok.injEq&#45;&gt;L4YAML.Proofs.ScannerCorrectness.scanDocumentEnd_preserves_simpleKeyStack -->
<g id="edge9" class="edge">
<title>Except.ok.injEq&#45;&gt;L4YAML.Proofs.ScannerCorrectness.scanDocumentEnd_preserves_simpleKeyStack</title>
<path fill="none" stroke="#e67e22" stroke-width="2" d="M354.44,-903.93C413.88,-903.89 517.25,-899.86 602.07,-875.97 704.01,-847.25 812.78,-785.26 869.88,-749.96"/>
<polygon fill="#e67e22" stroke="#e67e22" stroke-width="2" points="871.26,-751.99 875.91,-746.21 868.67,-747.82 871.26,-751.99"/>
</g>
<!-- _private.L4YAML.Proofs.Scanner.ScannerCorrectness.0.L4YAML.Scanner.scanDocumentEnd.match_1.eq_2 -->
<g id="node16" class="node">
<title>_private.L4YAML.Proofs.Scanner.ScannerCorrectness.0.L4YAML.Scanner.scanDocumentEnd.match_1.eq_2</title>
<g id="a_node16"><a xlink:href="../../../api/L4YAML/Proofs/Scanner/ScannerCorrectness.html#_private.L4YAML.Proofs.Scanner.ScannerCorrectness.0.L4YAML.Scanner.scanDocumentEnd.match_1.eq_2" xlink:title="_private.L4YAML.Proofs.Scanner.ScannerCorrectness.0.L4YAML.Scanner.scanDocumentEnd.match_1.eq_2" target="_blank">
<ellipse fill="#fdebd0" stroke="#e67e22" cx="305.03" cy="-632.97" rx="289.07" ry="18"/>
<text text-anchor="middle" x="305.03" y="-630.47" font-family="Helvetica" font-size="10.00">_private.L4YAML.Proofs.Scanner.ScannerCorrectness.0.L4YAML.Scanner.scanDocumentEnd.match_1.eq_2</text>
</a>
</g>
</g>
<!-- _private.L4YAML.Proofs.Scanner.ScannerCorrectness.0.L4YAML.Scanner.scanDocumentEnd.match_1.eq_2&#45;&gt;L4YAML.Scanner.scanDocumentEnd.match_1 -->
<g id="edge16" class="edge">
<title>_private.L4YAML.Proofs.Scanner.ScannerCorrectness.0.L4YAML.Scanner.scanDocumentEnd.match_1.eq_2&#45;&gt;L4YAML.Scanner.scanDocumentEnd.match_1</title>
<path fill="none" stroke="#6f42c1" stroke-width="2" stroke-dasharray="5,2" d="M582.95,-627.92C675.81,-626.23 771.88,-624.49 835.71,-623.32"/>
<polygon fill="#6f42c1" stroke="#6f42c1" stroke-width="2" points="836.05,-625.07 841.02,-623.23 835.99,-621.57 836.05,-625.07"/>
<text text-anchor="middle" x="623.07" y="-629.37" font-family="Times-Roman" font-size="7.00" fill="#6f42c1">about</text>
</g>
<!-- _private.L4YAML.Proofs.Scanner.ScannerCorrectness.0.L4YAML.Scanner.scanDocumentEnd.match_1.eq_2&#45;&gt;L4YAML.Proofs.ScannerCorrectness.scanDocumentEnd_preserves_simpleKeyStack -->
<g id="edge10" class="edge">
<title>_private.L4YAML.Proofs.Scanner.ScannerCorrectness.0.L4YAML.Scanner.scanDocumentEnd.match_1.eq_2&#45;&gt;L4YAML.Proofs.ScannerCorrectness.scanDocumentEnd_preserves_simpleKeyStack</title>
<path fill="none" stroke="#e67e22" stroke-width="2" d="M540.68,-643.43C561.73,-647.64 582.48,-653.05 602.07,-659.97 607.36,-661.83 638.82,-685.98 644.07,-687.97 664.72,-695.77 686.85,-701.92 709.19,-706.76"/>
<polygon fill="#e67e22" stroke="#e67e22" stroke-width="2" points="708.77,-709.17 716.13,-708.22 709.78,-704.38 708.77,-709.17"/>
</g>
<!-- _private.L4YAML.Proofs.Scanner.ScannerCorrectness.0.L4YAML.Scanner.scanDocumentEnd.match_1.eq_3 -->
<g id="node17" class="node">
<title>_private.L4YAML.Proofs.Scanner.ScannerCorrectness.0.L4YAML.Scanner.scanDocumentEnd.match_1.eq_3</title>
<g id="a_node17"><a xlink:href="../../../api/L4YAML/Proofs/Scanner/ScannerCorrectness.html#_private.L4YAML.Proofs.Scanner.ScannerCorrectness.0.L4YAML.Scanner.scanDocumentEnd.match_1.eq_3" xlink:title="_private.L4YAML.Proofs.Scanner.ScannerCorrectness.0.L4YAML.Scanner.scanDocumentEnd.match_1.eq_3" target="_blank">
<ellipse fill="#fdebd0" stroke="#e67e22" cx="305.03" cy="-686.97" rx="289.07" ry="18"/>
<text text-anchor="middle" x="305.03" y="-684.47" font-family="Helvetica" font-size="10.00">_private.L4YAML.Proofs.Scanner.ScannerCorrectness.0.L4YAML.Scanner.scanDocumentEnd.match_1.eq_3</text>
</a>
</g>
</g>
<!-- _private.L4YAML.Proofs.Scanner.ScannerCorrectness.0.L4YAML.Scanner.scanDocumentEnd.match_1.eq_3&#45;&gt;L4YAML.Scanner.scanDocumentEnd.match_1 -->
<g id="edge15" class="edge">
<title>_private.L4YAML.Proofs.Scanner.ScannerCorrectness.0.L4YAML.Scanner.scanDocumentEnd.match_1.eq_3&#45;&gt;L4YAML.Scanner.scanDocumentEnd.match_1</title>
<path fill="none" stroke="#6f42c1" stroke-width="2" stroke-dasharray="5,2" d="M479.94,-672.6C520.09,-668.86 562.6,-664.58 602.07,-659.97 620.8,-657.78 625.37,-656.42 644.07,-653.97 708.78,-645.45 782.47,-636.67 835.88,-630.46"/>
<polygon fill="#6f42c1" stroke="#6f42c1" stroke-width="2" points="836.22,-632.18 840.99,-629.87 835.82,-628.7 836.22,-632.18"/>
<text text-anchor="middle" x="623.07" y="-660.37" font-family="Times-Roman" font-size="7.00" fill="#6f42c1">about</text>
</g>
<!-- _private.L4YAML.Proofs.Scanner.ScannerCorrectness.0.L4YAML.Scanner.scanDocumentEnd.match_1.eq_3&#45;&gt;L4YAML.Proofs.ScannerCorrectness.scanDocumentEnd_preserves_simpleKeyStack -->
<g id="edge11" class="edge">
<title>_private.L4YAML.Proofs.Scanner.ScannerCorrectness.0.L4YAML.Scanner.scanDocumentEnd.match_1.eq_3&#45;&gt;L4YAML.Proofs.ScannerCorrectness.scanDocumentEnd_preserves_simpleKeyStack</title>
<path fill="none" stroke="#e67e22" stroke-width="2" d="M483.58,-701.16C525.69,-704.29 570.45,-707.43 612.07,-709.97 623.96,-710.69 636.12,-711.4 648.41,-712.09"/>
<polygon fill="#e67e22" stroke="#e67e22" stroke-width="2" points="648.53,-714.55 655.65,-712.49 648.8,-709.66 648.53,-714.55"/>
</g>
<!-- implies_congr -->
<g id="node18" class="node">
<title>implies_congr</title>
<g id="a_node18"><a xlink:href="../../../api/Init/SimpLemmas.html#implies_congr" xlink:title="implies_congr" target="_blank">
<ellipse fill="#fdebd0" stroke="#e67e22" cx="305.03" cy="-848.97" rx="45.15" ry="18"/>
<text text-anchor="middle" x="305.03" y="-846.47" font-family="Helvetica" font-size="10.00">implies_congr</text>
</a>
</g>
</g>
<!-- implies_congr&#45;&gt;L4YAML.Proofs.ScannerCorrectness.scanDocumentEnd_preserves_simpleKeyStack -->
<g id="edge12" class="edge">
<title>implies_congr&#45;&gt;L4YAML.Proofs.ScannerCorrectness.scanDocumentEnd_preserves_simpleKeyStack</title>
<path fill="none" stroke="#e67e22" stroke-width="2" d="M350.6,-847.91C408.92,-845.83 514.05,-839.75 602.07,-821.97 688.88,-804.42 785.73,-771.29 847.29,-748.44"/>
<polygon fill="#e67e22" stroke="#e67e22" stroke-width="2" points="848.17,-750.72 853.87,-745.98 846.46,-746.13 848.17,-750.72"/>
</g>
<!-- eq_self -->
<g id="node19" class="node">
<title>eq_self</title>
<g id="a_node19"><a xlink:href="../../../api/Init/SimpLemmas.html#eq_self" xlink:title="eq_self" target="_blank">
<ellipse fill="#fdebd0" stroke="#e67e22" cx="305.03" cy="-794.97" rx="28.01" ry="18"/>
<text text-anchor="middle" x="305.03" y="-792.47" font-family="Helvetica" font-size="10.00">eq_self</text>
</a>
</g>
</g>
<!-- eq_self&#45;&gt;L4YAML.Proofs.ScannerCorrectness.scanDocumentEnd_preserves_simpleKeyStack -->
<g id="edge13" class="edge">
<title>eq_self&#45;&gt;L4YAML.Proofs.ScannerCorrectness.scanDocumentEnd_preserves_simpleKeyStack</title>
<path fill="none" stroke="#e67e22" stroke-width="2" d="M333.43,-792.94C385.73,-788.96 503.39,-779.5 602.07,-767.97 657.81,-761.45 719.04,-752.98 772.13,-745.21"/>
<polygon fill="#e67e22" stroke="#e67e22" stroke-width="2" points="772.66,-747.61 779.23,-744.17 771.95,-742.76 772.66,-747.61"/>
</g>
<!-- of_eq_true -->
<g id="node20" class="node">
<title>of_eq_true</title>
<g id="a_node20"><a xlink:href="../../../api/Init/SimpLemmas.html#of_eq_true" xlink:title="of_eq_true" target="_blank">
<ellipse fill="#fdebd0" stroke="#e67e22" cx="305.03" cy="-740.97" rx="36.49" ry="18"/>
<text text-anchor="middle" x="305.03" y="-738.47" font-family="Helvetica" font-size="10.00">of_eq_true</text>
</a>
</g>
</g>
<!-- of_eq_true&#45;&gt;L4YAML.Proofs.ScannerCorrectness.scanDocumentEnd_preserves_simpleKeyStack -->
<g id="edge14" class="edge">
<title>of_eq_true&#45;&gt;L4YAML.Proofs.ScannerCorrectness.scanDocumentEnd_preserves_simpleKeyStack</title>
<path fill="none" stroke="#e67e22" stroke-width="2" d="M341.96,-740.56C402.31,-739.83 527.88,-738.05 634.07,-734.97 637.65,-734.86 641.25,-734.75 644.88,-734.64"/>
<polygon fill="#e67e22" stroke="#e67e22" stroke-width="2" points="644.96,-737.09 651.89,-734.43 644.81,-732.2 644.96,-737.09"/>
</g>
</g>
</svg>
