<?xml version="1.0" encoding="UTF-8" standalone="no"?>
<!DOCTYPE svg PUBLIC "-//W3C//DTD SVG 1.1//EN"
 "http://www.w3.org/Graphics/SVG/1.1/DTD/svg11.dtd">
<!-- Generated by graphviz version 2.44.0 (0)
 -->
<!-- Title: chain_ScannerCorrectness.scanPlainScalar_preserves_simpleKeyStack Pages: 1 -->
<svg width="2020pt" height="391pt"
 viewBox="0.00 0.00 2020.00 391.00" xmlns="http://www.w3.org/2000/svg" xmlns:xlink="http://www.w3.org/1999/xlink">
<g id="graph0" class="graph" transform="scale(1 1) rotate(0) translate(4 387)">
<title>chain_ScannerCorrectness.scanPlainScalar_preserves_simpleKeyStack</title>
<polygon fill="white" stroke="transparent" points="-4,4 -4,-387 2016,-387 2016,4 -4,4"/>
<text text-anchor="middle" x="1006" y="-368.6" font-family="Helvetica Bold" font-size="13.00">Functorial Chains: ScannerCorrectness.scanPlainScalar_preserves_simpleKeyStack\n(heuristic: used by 5 proofs)</text>
<g id="clust1" class="cluster">
<title>cluster_fns</title>
<polygon fill="none" stroke="#4a90d9" stroke-dasharray="5,2" points="1722,-8 1722,-244 2004,-244 2004,-8 1722,-8"/>
<text text-anchor="middle" x="1863" y="-229.6" font-family="Helvetica Bold" font-size="13.00" fill="#4a90d9">Functions (Call Chain)</text>
</g>
<g id="clust2" class="cluster">
<title>cluster_thms</title>
<polygon fill="none" stroke="#28a745" stroke-dasharray="5,2" points="8,-89 8,-353 1714,-353 1714,-89 8,-89"/>
<text text-anchor="middle" x="861" y="-338.6" font-family="Helvetica Bold" font-size="13.00" fill="#28a745">Theorems (Proof Chain)</text>
</g>
<!-- L4YAML.Scanner.scanPlainScalar -->
<g id="node1" class="node">
<title>L4YAML.Scanner.scanPlainScalar</title>
<g id="a_node1"><a xlink:href="../../../api/L4YAML/Scanner/Scalar.html#L4YAML.Scanner.scanPlainScalar" xlink:title="scanPlainScalar" target="_blank">
<polygon fill="#dce9f7" stroke="#4a90d9" points="1831.5,-214 1744.5,-214 1744.5,-178 1831.5,-178 1831.5,-214"/>
<text text-anchor="middle" x="1788" y="-193.5" font-family="Helvetica" font-size="10.00">scanPlainScalar</text>
</a>
</g>
</g>
<!-- L4YAML.Scanner.PlainScalarResult.state -->
<g id="node3" class="node">
<title>L4YAML.Scanner.PlainScalarResult.state</title>
<g id="a_node3"><a xlink:href="../../../api/L4YAML/Scanner/Scalar.html#L4YAML.Scanner.PlainScalarResult.state" xlink:title="PlainScalarResult.state" target="_blank">
<polygon fill="#dce9f7" stroke="#4a90d9" points="1982,-133 1864,-133 1864,-97 1982,-97 1982,-133"/>
<text text-anchor="middle" x="1923" y="-112.5" font-family="Helvetica" font-size="10.00">PlainScalarResult.state</text>
</a>
</g>
</g>
<!-- L4YAML.Scanner.scanPlainScalar&#45;&gt;L4YAML.Scanner.PlainScalarResult.state -->
<g id="edge10" class="edge">
<title>L4YAML.Scanner.scanPlainScalar&#45;&gt;L4YAML.Scanner.PlainScalarResult.state</title>
<path fill="none" stroke="#4a90d9" stroke-width="2" d="M1817.29,-177.86C1837.9,-165.8 1865.6,-149.59 1887.47,-136.79"/>
<polygon fill="#4a90d9" stroke="#4a90d9" stroke-width="2" points="1888.96,-138.76 1893.76,-133.11 1886.49,-134.53 1888.96,-138.76"/>
<text text-anchor="middle" x="1868.5" y="-153.6" font-family="Times-Roman" font-size="8.00">calls</text>
</g>
<!-- L4YAML.Scanner.collectPlainScalarLoop -->
<g id="node4" class="node">
<title>L4YAML.Scanner.collectPlainScalarLoop</title>
<g id="a_node4"><a xlink:href="../../../api/L4YAML/Scanner/Scalar.html#L4YAML.Scanner.collectPlainScalarLoop" xlink:title="collectPlainScalarLoop" target="_blank">
<polygon fill="#dce9f7" stroke="#4a90d9" points="1846,-133 1730,-133 1730,-97 1846,-97 1846,-133"/>
<text text-anchor="middle" x="1788" y="-112.5" font-family="Helvetica" font-size="10.00">collectPlainScalarLoop</text>
</a>
</g>
</g>
<!-- L4YAML.Scanner.scanPlainScalar&#45;&gt;L4YAML.Scanner.collectPlainScalarLoop -->
<g id="edge2" class="edge">
<title>L4YAML.Scanner.scanPlainScalar&#45;&gt;L4YAML.Scanner.collectPlainScalarLoop</title>
<path fill="none" stroke="#4a90d9" stroke-width="2" d="M1788,-177.86C1788,-166.88 1788,-152.48 1788,-140.33"/>
<polygon fill="#4a90d9" stroke="#4a90d9" stroke-width="2" points="1790.45,-140.11 1788,-133.11 1785.55,-140.11 1790.45,-140.11"/>
<text text-anchor="middle" x="1797.5" y="-153.6" font-family="Times-Roman" font-size="8.00">calls</text>
</g>
<!-- L4YAML.Scanner.ScannerState -->
<g id="node2" class="node">
<title>L4YAML.Scanner.ScannerState</title>
<g id="a_node2"><a xlink:href="../../../api/L4YAML/Scanner/State.html#L4YAML.Scanner.ScannerState" xlink:title="ScannerState" target="_blank">
<polygon fill="#dce9f7" stroke="#4a90d9" points="1806,-52 1730,-52 1730,-16 1806,-16 1806,-52"/>
<text text-anchor="middle" x="1768" y="-31.5" font-family="Helvetica" font-size="10.00">ScannerState</text>
</a>
</g>
</g>
<!-- L4YAML.Scanner.PlainScalarResult -->
<g id="node6" class="node">
<title>L4YAML.Scanner.PlainScalarResult</title>
<g id="a_node6"><a xlink:href="../../../api/L4YAML/Scanner/Scalar.html#L4YAML.Scanner.PlainScalarResult" xlink:title="PlainScalarResult" target="_blank">
<polygon fill="#dce9f7" stroke="#4a90d9" points="1996,-52 1902,-52 1902,-16 1996,-16 1996,-52"/>
<text text-anchor="middle" x="1949" y="-31.5" font-family="Helvetica" font-size="10.00">PlainScalarResult</text>
</a>
</g>
</g>
<!-- L4YAML.Scanner.PlainScalarResult.state&#45;&gt;L4YAML.Scanner.PlainScalarResult -->
<g id="edge12" class="edge">
<title>L4YAML.Scanner.PlainScalarResult.state&#45;&gt;L4YAML.Scanner.PlainScalarResult</title>
<path fill="none" stroke="#4a90d9" stroke-width="2" d="M1928.64,-96.86C1932.29,-85.78 1937.08,-71.21 1941.11,-58.99"/>
<polygon fill="#4a90d9" stroke="#4a90d9" stroke-width="2" points="1943.51,-59.52 1943.37,-52.11 1938.85,-57.99 1943.51,-59.52"/>
<text text-anchor="middle" x="1945.5" y="-72.6" font-family="Times-Roman" font-size="8.00">calls</text>
</g>
<!-- L4YAML.Scanner.collectPlainScalarLoop&#45;&gt;L4YAML.Scanner.ScannerState -->
<g id="edge5" class="edge">
<title>L4YAML.Scanner.collectPlainScalarLoop&#45;&gt;L4YAML.Scanner.ScannerState</title>
<path fill="none" stroke="#4a90d9" stroke-width="2" d="M1783.66,-96.86C1780.86,-85.78 1777.17,-71.21 1774.07,-58.99"/>
<polygon fill="#4a90d9" stroke="#4a90d9" stroke-width="2" points="1776.42,-58.29 1772.33,-52.11 1771.67,-59.5 1776.42,-58.29"/>
<text text-anchor="middle" x="1787.5" y="-72.6" font-family="Times-Roman" font-size="8.00">calls</text>
</g>
<!-- L4YAML.ScanError -->
<g id="node5" class="node">
<title>L4YAML.ScanError</title>
<g id="a_node5"><a xlink:href="../../../api/L4YAML/Token/Token.html#L4YAML.ScanError" xlink:title="ScanError" target="_blank">
<polygon fill="#dce9f7" stroke="#4a90d9" points="1884,-52 1824,-52 1824,-16 1884,-16 1884,-52"/>
<text text-anchor="middle" x="1854" y="-31.5" font-family="Helvetica" font-size="10.00">ScanError</text>
</a>
</g>
</g>
<!-- L4YAML.Scanner.collectPlainScalarLoop&#45;&gt;L4YAML.ScanError -->
<g id="edge21" class="edge">
<title>L4YAML.Scanner.collectPlainScalarLoop&#45;&gt;L4YAML.ScanError</title>
<path fill="none" stroke="#4a90d9" stroke-width="2" d="M1802.32,-96.86C1811.92,-85.37 1824.67,-70.11 1835.1,-57.63"/>
<polygon fill="#4a90d9" stroke="#4a90d9" stroke-width="2" points="1837.1,-59.05 1839.71,-52.11 1833.34,-55.91 1837.1,-59.05"/>
<text text-anchor="middle" x="1831.5" y="-72.6" font-family="Times-Roman" font-size="8.00">calls</text>
</g>
<!-- L4YAML.Scanner.collectPlainScalarLoop&#45;&gt;L4YAML.Scanner.PlainScalarResult -->
<g id="edge8" class="edge">
<title>L4YAML.Scanner.collectPlainScalarLoop&#45;&gt;L4YAML.Scanner.PlainScalarResult</title>
<path fill="none" stroke="#4a90d9" stroke-width="2" d="M1822.93,-96.86C1847.83,-84.64 1881.39,-68.17 1907.63,-55.3"/>
<polygon fill="#4a90d9" stroke="#4a90d9" stroke-width="2" points="1908.93,-57.39 1914.13,-52.11 1906.77,-52.99 1908.93,-57.39"/>
<text text-anchor="middle" x="1882.5" y="-72.6" font-family="Times-Roman" font-size="8.00">calls</text>
</g>
<!-- L4YAML.Scanner.collectPlainScalarLoop.eq_def -->
<g id="node7" class="node">
<title>L4YAML.Scanner.collectPlainScalarLoop.eq_def</title>
<g id="a_node7"><a xlink:href="../../../api/L4YAML/Proofs/Coupling/ScalarCoupling.html#L4YAML.Scanner.collectPlainScalarLoop.eq_def" xlink:title="collectPlainScalarLoop.eq_def" target="_blank">
<ellipse fill="#d4edda" stroke="#28a745" cx="1213" cy="-115" rx="87.24" ry="18"/>
<text text-anchor="middle" x="1213" y="-112.5" font-family="Helvetica" font-size="10.00">collectPlainScalarLoop.eq_def</text>
</a>
</g>
</g>
<!-- L4YAML.Scanner.collectPlainScalarLoop.eq_def&#45;&gt;L4YAML.Scanner.ScannerState -->
<g id="edge23" class="edge">
<title>L4YAML.Scanner.collectPlainScalarLoop.eq_def&#45;&gt;L4YAML.Scanner.ScannerState</title>
<path fill="none" stroke="#6f42c1" stroke-width="2" stroke-dasharray="5,2" d="M1261.54,-99.97C1276.65,-95.98 1293.43,-91.93 1309,-89 1459.22,-60.74 1640.04,-44.64 1722.73,-38.25"/>
<polygon fill="#6f42c1" stroke="#6f42c1" stroke-width="2" points="1723.16,-40.67 1729.95,-37.69 1722.78,-35.79 1723.16,-40.67"/>
<text text-anchor="middle" x="1433.5" y="-72.6" font-family="Times-Roman" font-size="8.00" fill="#6f42c1">about</text>
</g>
<!-- L4YAML.Scanner.collectPlainScalarLoop.eq_def&#45;&gt;L4YAML.ScanError -->
<g id="edge22" class="edge">
<title>L4YAML.Scanner.collectPlainScalarLoop.eq_def&#45;&gt;L4YAML.ScanError</title>
<path fill="none" stroke="#6f42c1" stroke-width="2" stroke-dasharray="5,2" d="M1259.46,-99.73C1275.05,-95.53 1292.64,-91.41 1309,-89 1425.6,-71.83 1457.17,-94.54 1574,-79 1591.63,-76.65 1595.43,-72.8 1613,-70 1702.01,-55.83 1727.67,-74.3 1815,-52 1815.63,-51.84 1816.26,-51.67 1816.89,-51.49"/>
<polygon fill="#6f42c1" stroke="#6f42c1" stroke-width="2" points="1817.75,-53.79 1823.67,-49.32 1816.26,-49.12 1817.75,-53.79"/>
<text text-anchor="middle" x="1625.5" y="-72.6" font-family="Times-Roman" font-size="8.00" fill="#6f42c1">about</text>
</g>
<!-- L4YAML.Scanner.collectPlainScalarLoop.eq_def&#45;&gt;L4YAML.Scanner.PlainScalarResult -->
<g id="edge14" class="edge">
<title>L4YAML.Scanner.collectPlainScalarLoop.eq_def&#45;&gt;L4YAML.Scanner.PlainScalarResult</title>
<path fill="none" stroke="#6f42c1" stroke-width="2" stroke-dasharray="5,2" d="M1259.45,-99.66C1275.04,-95.45 1292.63,-91.35 1309,-89 1453.81,-68.21 1493.71,-103.12 1638,-79 1651.31,-76.77 1653.75,-72.55 1667,-70 1765.95,-50.95 1794,-70.74 1893,-52 1893.63,-51.88 1894.27,-51.76 1894.91,-51.63"/>
<polygon fill="#6f42c1" stroke="#6f42c1" stroke-width="2" points="1895.51,-54 1901.82,-50.1 1894.46,-49.22 1895.51,-54"/>
<text text-anchor="middle" x="1679.5" y="-72.6" font-family="Times-Roman" font-size="8.00" fill="#6f42c1">about</text>
</g>
<!-- L4YAML.Proofs.ScannerCorrectness.skipBlankLinesLoop_preserves_simpleKeyStack -->
<g id="node8" class="node">
<title>L4YAML.Proofs.ScannerCorrectness.skipBlankLinesLoop_preserves_simpleKeyStack</title>
<g id="a_node8"><a xlink:href="../../../api/L4YAML/Proofs/Scanner/ScannerCorrectness.html#L4YAML.Proofs.ScannerCorrectness.skipBlankLinesLoop_preserves_simpleKeyStack" xlink:title="ScannerCorrectness.skipBlankLinesLoop_preserves_simpleKeyStack" target="_blank">
<ellipse fill="#d4edda" stroke="#28a745" cx="539" cy="-115" rx="188.24" ry="18"/>
<text text-anchor="middle" x="539" y="-112.5" font-family="Helvetica" font-size="10.00">ScannerCorrectness.skipBlankLinesLoop_preserves_simpleKeyStack</text>
</a>
</g>
</g>
<!-- L4YAML.Proofs.ScannerCorrectness.skipBlankLinesLoop_preserves_simpleKeyStack&#45;&gt;L4YAML.Scanner.ScannerState -->
<g id="edge16" class="edge">
<title>L4YAML.Proofs.ScannerCorrectness.skipBlankLinesLoop_preserves_simpleKeyStack&#45;&gt;L4YAML.Scanner.ScannerState</title>
<path fill="none" stroke="#6f42c1" stroke-width="2" stroke-dasharray="5,2" d="M640.08,-99.79C671.12,-95.81 705.42,-91.82 737,-89 1117.1,-55.1 1578.07,-40.24 1722.5,-36.19"/>
<polygon fill="#6f42c1" stroke="#6f42c1" stroke-width="2" points="1722.61,-38.64 1729.54,-36 1722.48,-33.74 1722.61,-38.64"/>
<text text-anchor="middle" x="974.5" y="-72.6" font-family="Times-Roman" font-size="8.00" fill="#6f42c1">about</text>
</g>
<!-- L4YAML.Proofs.ScannerCorrectness.collectPlainScalarLoop_preserves_simpleKeyStack -->
<g id="node9" class="node">
<title>L4YAML.Proofs.ScannerCorrectness.collectPlainScalarLoop_preserves_simpleKeyStack</title>
<g id="a_node9"><a xlink:href="../../../api/L4YAML/Proofs/Scanner/ScannerCorrectness.html#L4YAML.Proofs.ScannerCorrectness.collectPlainScalarLoop_preserves_simpleKeyStack" xlink:title="ScannerCorrectness.collectPlainScalarLoop_preserves_simpleKeyStack" target="_blank">
<ellipse fill="#d4edda" stroke="#28a745" cx="1261" cy="-196" rx="195.37" ry="18"/>
<text text-anchor="middle" x="1261" y="-193.5" font-family="Helvetica" font-size="10.00">ScannerCorrectness.collectPlainScalarLoop_preserves_simpleKeyStack</text>
</a>
</g>
</g>
<!-- L4YAML.Proofs.ScannerCorrectness.collectPlainScalarLoop_preserves_simpleKeyStack&#45;&gt;L4YAML.Scanner.PlainScalarResult.state -->
<g id="edge11" class="edge">
<title>L4YAML.Proofs.ScannerCorrectness.collectPlainScalarLoop_preserves_simpleKeyStack&#45;&gt;L4YAML.Scanner.PlainScalarResult.state</title>
<path fill="none" stroke="#6f42c1" stroke-width="2" stroke-dasharray="5,2" d="M1418.93,-185.36C1539.19,-176.37 1708.45,-160.16 1855,-133 1855.63,-132.88 1856.26,-132.76 1856.89,-132.64"/>
<polygon fill="#6f42c1" stroke="#6f42c1" stroke-width="2" points="1857.37,-135.05 1863.76,-131.27 1856.41,-130.24 1857.37,-135.05"/>
<text text-anchor="middle" x="1754.5" y="-153.6" font-family="Times-Roman" font-size="8.00" fill="#6f42c1">about</text>
</g>
<!-- L4YAML.Proofs.ScannerCorrectness.collectPlainScalarLoop_preserves_simpleKeyStack&#45;&gt;L4YAML.Scanner.collectPlainScalarLoop -->
<g id="edge4" class="edge">
<title>L4YAML.Proofs.ScannerCorrectness.collectPlainScalarLoop_preserves_simpleKeyStack&#45;&gt;L4YAML.Scanner.collectPlainScalarLoop</title>
<path fill="none" stroke="#6f42c1" stroke-width="2" stroke-dasharray="5,2" d="M1383.27,-181.89C1475.63,-171.15 1605.29,-154.27 1718,-133 1719.55,-132.71 1721.11,-132.4 1722.69,-132.09"/>
<polygon fill="#6f42c1" stroke="#6f42c1" stroke-width="2" points="1723.3,-134.46 1729.66,-130.65 1722.31,-129.67 1723.3,-134.46"/>
<text text-anchor="middle" x="1617.5" y="-153.6" font-family="Times-Roman" font-size="8.00" fill="#6f42c1">about</text>
</g>
<!-- L4YAML.Proofs.ScannerCorrectness.collectPlainScalarLoop_preserves_simpleKeyStack&#45;&gt;L4YAML.Scanner.collectPlainScalarLoop.eq_def -->
<g id="edge13" class="edge">
<title>L4YAML.Proofs.ScannerCorrectness.collectPlainScalarLoop_preserves_simpleKeyStack&#45;&gt;L4YAML.Scanner.collectPlainScalarLoop.eq_def</title>
<path fill="none" stroke="#28a745" stroke-width="2" d="M1250.58,-177.86C1243.73,-166.57 1234.67,-151.66 1227.16,-139.3"/>
<polygon fill="#28a745" stroke="#28a745" stroke-width="2" points="1229.12,-137.82 1223.39,-133.11 1224.94,-140.36 1229.12,-137.82"/>
<text text-anchor="middle" x="1248" y="-153.6" font-family="Times-Roman" font-size="8.00">uses</text>
</g>
<!-- L4YAML.Proofs.ScannerCorrectness.collectPlainScalarLoop_preserves_simpleKeyStack&#45;&gt;L4YAML.Proofs.ScannerCorrectness.skipBlankLinesLoop_preserves_simpleKeyStack -->
<g id="edge15" class="edge">
<title>L4YAML.Proofs.ScannerCorrectness.collectPlainScalarLoop_preserves_simpleKeyStack&#45;&gt;L4YAML.Proofs.ScannerCorrectness.skipBlankLinesLoop_preserves_simpleKeyStack</title>
<path fill="none" stroke="#28a745" stroke-width="2" d="M1140.56,-181.82C1008.81,-167.41 798.61,-144.41 664.79,-129.76"/>
<polygon fill="#28a745" stroke="#28a745" stroke-width="2" points="664.9,-127.31 657.68,-128.99 664.37,-132.18 664.9,-127.31"/>
<text text-anchor="middle" x="931" y="-153.6" font-family="Times-Roman" font-size="8.00">uses</text>
</g>
<!-- L4YAML.Proofs.ScannerCorrectness.ScanHelpers.collectPlainScalar_terminates?_state -->
<g id="node10" class="node">
<title>L4YAML.Proofs.ScannerCorrectness.ScanHelpers.collectPlainScalar_terminates?_state</title>
<g id="a_node10"><a xlink:href="../../../api/L4YAML/Proofs/Scanner/ScannerCorrectness.html#L4YAML.Proofs.ScannerCorrectness.ScanHelpers.collectPlainScalar_terminates?_state" xlink:title="ScannerCorrectness.ScanHelpers.collectPlainScalar_terminates?_state" target="_blank">
<ellipse fill="#d4edda" stroke="#28a745" cx="1512" cy="-115" rx="193.84" ry="18"/>
<text text-anchor="middle" x="1512" y="-112.5" font-family="Helvetica" font-size="10.00">ScannerCorrectness.ScanHelpers.collectPlainScalar_terminates?_state</text>
</a>
</g>
</g>
<!-- L4YAML.Proofs.ScannerCorrectness.collectPlainScalarLoop_preserves_simpleKeyStack&#45;&gt;L4YAML.Proofs.ScannerCorrectness.ScanHelpers.collectPlainScalar_terminates?_state -->
<g id="edge6" class="edge">
<title>L4YAML.Proofs.ScannerCorrectness.collectPlainScalarLoop_preserves_simpleKeyStack&#45;&gt;L4YAML.Proofs.ScannerCorrectness.ScanHelpers.collectPlainScalar_terminates?_state</title>
<path fill="none" stroke="#28a745" stroke-width="2" d="M1313.01,-178.63C1353.9,-165.76 1410.86,-147.83 1453.37,-134.45"/>
<polygon fill="#28a745" stroke="#28a745" stroke-width="2" points="1454.12,-136.79 1460.06,-132.35 1452.65,-132.11 1454.12,-136.79"/>
<text text-anchor="middle" x="1404" y="-153.6" font-family="Times-Roman" font-size="8.00">uses</text>
</g>
<!-- L4YAML.Proofs.ScannerCorrectness.advance_preserves_simpleKeyStack -->
<g id="node11" class="node">
<title>L4YAML.Proofs.ScannerCorrectness.advance_preserves_simpleKeyStack</title>
<g id="a_node11"><a xlink:href="../../../api/L4YAML/Proofs/Scanner/ScannerCorrectness.html#L4YAML.Proofs.ScannerCorrectness.advance_preserves_simpleKeyStack" xlink:title="ScannerCorrectness.advance_preserves_simpleKeyStack" target="_blank">
<ellipse fill="#d4edda" stroke="#28a745" cx="174" cy="-115" rx="158.2" ry="18"/>
<text text-anchor="middle" x="174" y="-112.5" font-family="Helvetica" font-size="10.00">ScannerCorrectness.advance_preserves_simpleKeyStack</text>
</a>
</g>
</g>
<!-- L4YAML.Proofs.ScannerCorrectness.collectPlainScalarLoop_preserves_simpleKeyStack&#45;&gt;L4YAML.Proofs.ScannerCorrectness.advance_preserves_simpleKeyStack -->
<g id="edge19" class="edge">
<title>L4YAML.Proofs.ScannerCorrectness.collectPlainScalarLoop_preserves_simpleKeyStack&#45;&gt;L4YAML.Proofs.ScannerCorrectness.advance_preserves_simpleKeyStack</title>
<path fill="none" stroke="#28a745" stroke-width="2" d="M1099.85,-185.77C916.25,-174.87 607.31,-155.37 342,-133 326.02,-131.65 309.21,-130.11 292.64,-128.51"/>
<polygon fill="#28a745" stroke="#28a745" stroke-width="2" points="292.76,-126.06 285.56,-127.82 292.29,-130.93 292.76,-126.06"/>
<text text-anchor="middle" x="705" y="-153.6" font-family="Times-Roman" font-size="8.00">uses</text>
</g>
<!-- L4YAML.Proofs.ScannerCorrectness.consumeNewline_preserves_simpleKeyStack -->
<g id="node13" class="node">
<title>L4YAML.Proofs.ScannerCorrectness.consumeNewline_preserves_simpleKeyStack</title>
<g id="a_node13"><a xlink:href="../../../api/L4YAML/Proofs/Scanner/ScannerCorrectness.html#L4YAML.Proofs.ScannerCorrectness.consumeNewline_preserves_simpleKeyStack" xlink:title="ScannerCorrectness.consumeNewline_preserves_simpleKeyStack" target="_blank">
<ellipse fill="#d4edda" stroke="#28a745" cx="927" cy="-115" rx="181.12" ry="18"/>
<text text-anchor="middle" x="927" y="-112.5" font-family="Helvetica" font-size="10.00">ScannerCorrectness.consumeNewline_preserves_simpleKeyStack</text>
</a>
</g>
</g>
<!-- L4YAML.Proofs.ScannerCorrectness.collectPlainScalarLoop_preserves_simpleKeyStack&#45;&gt;L4YAML.Proofs.ScannerCorrectness.consumeNewline_preserves_simpleKeyStack -->
<g id="edge17" class="edge">
<title>L4YAML.Proofs.ScannerCorrectness.collectPlainScalarLoop_preserves_simpleKeyStack&#45;&gt;L4YAML.Proofs.ScannerCorrectness.consumeNewline_preserves_simpleKeyStack</title>
<path fill="none" stroke="#28a745" stroke-width="2" d="M1193.41,-179.01C1137.45,-165.78 1058.08,-147 1000.54,-133.39"/>
<polygon fill="#28a745" stroke="#28a745" stroke-width="2" points="1001.01,-130.99 993.63,-131.76 999.88,-135.76 1001.01,-130.99"/>
<text text-anchor="middle" x="1114" y="-153.6" font-family="Times-Roman" font-size="8.00">uses</text>
</g>
<!-- L4YAML.Proofs.ScannerCorrectness.ScanHelpers.collectPlainScalar_terminates?_state&#45;&gt;L4YAML.Scanner.ScannerState -->
<g id="edge7" class="edge">
<title>L4YAML.Proofs.ScannerCorrectness.ScanHelpers.collectPlainScalar_terminates?_state&#45;&gt;L4YAML.Scanner.ScannerState</title>
<path fill="none" stroke="#6f42c1" stroke-width="2" stroke-dasharray="5,2" d="M1522.16,-96.72C1528.63,-87.29 1537.88,-76.29 1549,-70 1577.94,-53.62 1667.54,-43.41 1722.76,-38.5"/>
<polygon fill="#6f42c1" stroke="#6f42c1" stroke-width="2" points="1723.22,-40.92 1729.98,-37.87 1722.8,-36.04 1723.22,-40.92"/>
<text text-anchor="middle" x="1561.5" y="-72.6" font-family="Times-Roman" font-size="8.00" fill="#6f42c1">about</text>
</g>
<!-- L4YAML.Proofs.ScannerCorrectness.ScanHelpers.collectPlainScalar_terminates?_state&#45;&gt;L4YAML.Scanner.PlainScalarResult -->
<g id="edge9" class="edge">
<title>L4YAML.Proofs.ScannerCorrectness.ScanHelpers.collectPlainScalar_terminates?_state&#45;&gt;L4YAML.Scanner.PlainScalarResult</title>
<path fill="none" stroke="#6f42c1" stroke-width="2" stroke-dasharray="5,2" d="M1588.86,-98.45C1634.9,-89.44 1694.66,-78.27 1748,-70 1812.17,-60.04 1829.48,-65.48 1893,-52 1893.63,-51.87 1894.26,-51.73 1894.9,-51.59"/>
<polygon fill="#6f42c1" stroke="#6f42c1" stroke-width="2" points="1895.55,-53.95 1901.79,-49.95 1894.42,-49.18 1895.55,-53.95"/>
<text text-anchor="middle" x="1760.5" y="-72.6" font-family="Times-Roman" font-size="8.00" fill="#6f42c1">about</text>
</g>
<!-- L4YAML.Proofs.ScannerCorrectness.advance_preserves_simpleKeyStack&#45;&gt;L4YAML.Scanner.ScannerState -->
<g id="edge20" class="edge">
<title>L4YAML.Proofs.ScannerCorrectness.advance_preserves_simpleKeyStack&#45;&gt;L4YAML.Scanner.ScannerState</title>
<path fill="none" stroke="#6f42c1" stroke-width="2" stroke-dasharray="5,2" d="M257.95,-99.66C284.74,-95.58 314.55,-91.55 342,-89 883.97,-38.57 1545.99,-34.93 1722.82,-34.91"/>
<polygon fill="#6f42c1" stroke="#6f42c1" stroke-width="2" points="1722.89,-37.36 1729.89,-34.91 1722.89,-32.46 1722.89,-37.36"/>
<text text-anchor="middle" x="586.5" y="-72.6" font-family="Times-Roman" font-size="8.00" fill="#6f42c1">about</text>
</g>
<!-- L4YAML.Proofs.ScannerCorrectness.scanPlainScalar_preserves_simpleKeyStack -->
<g id="node12" class="node">
<title>L4YAML.Proofs.ScannerCorrectness.scanPlainScalar_preserves_simpleKeyStack</title>
<g id="a_node12"><a xlink:href="../../../api/L4YAML/Proofs/Scanner/ScannerCorrectness.html#L4YAML.Proofs.ScannerCorrectness.scanPlainScalar_preserves_simpleKeyStack" xlink:title="ScannerCorrectness.scanPlainScalar_preserves_simpleKeyStack" target="_blank">
<polygon fill="#fff3cd" stroke="#d4a017" points="1602.12,-293.54 1602.12,-308.46 1488.99,-319 1329.01,-319 1215.88,-308.46 1215.88,-293.54 1329.01,-283 1488.99,-283 1602.12,-293.54"/>
<polygon fill="none" stroke="#d4a017" points="1606.12,-289.9 1606.12,-312.1 1489.18,-323 1328.82,-323 1211.88,-312.1 1211.88,-289.9 1328.82,-279 1489.18,-279 1606.12,-289.9"/>
<text text-anchor="middle" x="1409" y="-298.5" font-family="Helvetica" font-size="10.00">ScannerCorrectness.scanPlainScalar_preserves_simpleKeyStack</text>
</a>
</g>
</g>
<!-- L4YAML.Proofs.ScannerCorrectness.scanPlainScalar_preserves_simpleKeyStack&#45;&gt;L4YAML.Scanner.scanPlainScalar -->
<g id="edge1" class="edge">
<title>L4YAML.Proofs.ScannerCorrectness.scanPlainScalar_preserves_simpleKeyStack&#45;&gt;L4YAML.Scanner.scanPlainScalar</title>
<path fill="none" stroke="#6f42c1" stroke-width="2" stroke-dasharray="5,2" d="M1559.06,-285.47C1610.73,-277.19 1668.11,-264.23 1718,-244 1733.5,-237.71 1749.12,-227.67 1761.65,-218.48"/>
<polygon fill="#6f42c1" stroke="#6f42c1" stroke-width="2" points="1763.42,-220.22 1767.54,-214.06 1760.48,-216.3 1763.42,-220.22"/>
<text text-anchor="middle" x="1706.5" y="-254.6" font-family="Times-Roman" font-size="8.00" fill="#6f42c1">about</text>
</g>
<!-- L4YAML.Proofs.ScannerCorrectness.scanPlainScalar_preserves_simpleKeyStack&#45;&gt;L4YAML.Proofs.ScannerCorrectness.collectPlainScalarLoop_preserves_simpleKeyStack -->
<g id="edge3" class="edge">
<title>L4YAML.Proofs.ScannerCorrectness.scanPlainScalar_preserves_simpleKeyStack&#45;&gt;L4YAML.Proofs.ScannerCorrectness.collectPlainScalarLoop_preserves_simpleKeyStack</title>
<path fill="none" stroke="#28a745" stroke-width="2" d="M1378.69,-278.91C1353.17,-261.15 1316.84,-235.86 1291.32,-218.1"/>
<polygon fill="#28a745" stroke="#28a745" stroke-width="2" points="1292.54,-215.97 1285.4,-213.98 1289.74,-219.99 1292.54,-215.97"/>
<text text-anchor="middle" x="1362" y="-254.6" font-family="Times-Roman" font-size="8.00">uses</text>
</g>
<!-- L4YAML.Proofs.ScannerCorrectness.consumeNewline_preserves_simpleKeyStack&#45;&gt;L4YAML.Scanner.ScannerState -->
<g id="edge18" class="edge">
<title>L4YAML.Proofs.ScannerCorrectness.consumeNewline_preserves_simpleKeyStack&#45;&gt;L4YAML.Scanner.ScannerState</title>
<path fill="none" stroke="#6f42c1" stroke-width="2" stroke-dasharray="5,2" d="M1026.98,-99.96C1055.99,-96.13 1087.73,-92.17 1117,-89 1344.05,-64.45 1616.71,-45.11 1722.74,-37.97"/>
<polygon fill="#6f42c1" stroke="#6f42c1" stroke-width="2" points="1722.96,-40.41 1729.78,-37.5 1722.63,-35.52 1722.96,-40.41"/>
<text text-anchor="middle" x="1307.5" y="-72.6" font-family="Times-Roman" font-size="8.00" fill="#6f42c1">about</text>
</g>
</g>
</svg>
