<?xml version="1.0" encoding="UTF-8" standalone="no"?>
<!DOCTYPE svg PUBLIC "-//W3C//DTD SVG 1.1//EN"
 "http://www.w3.org/Graphics/SVG/1.1/DTD/svg11.dtd">
<!-- Generated by graphviz version 2.44.0 (0)
 -->
<!-- Title: chain_ScannerCorrectness.skipSpaces_preserves_tokens Pages: 1 -->
<svg width="670pt" height="526pt"
 viewBox="0.00 0.00 670.00 526.00" xmlns="http://www.w3.org/2000/svg" xmlns:xlink="http://www.w3.org/1999/xlink">
<g id="graph0" class="graph" transform="scale(1 1) rotate(0) translate(4 522)">
<title>chain_ScannerCorrectness.skipSpaces_preserves_tokens</title>
<polygon fill="white" stroke="transparent" points="-4,4 -4,-522 666,-522 666,4 -4,4"/>
<text text-anchor="middle" x="331" y="-503.6" font-family="Helvetica Bold" font-size="13.00">Functorial Chains: ScannerCorrectness.skipSpaces_preserves_tokens\n(heuristic: used by 5 proofs)</text>
<g id="clust1" class="cluster">
<title>cluster_fns</title>
<polygon fill="none" stroke="#4a90d9" stroke-dasharray="5,2" points="23,-8 23,-379 256,-379 256,-8 23,-8"/>
<text text-anchor="middle" x="139.5" y="-364.6" font-family="Helvetica Bold" font-size="13.00" fill="#4a90d9">Functions (Call Chain)</text>
</g>
<g id="clust2" class="cluster">
<title>cluster_thms</title>
<polygon fill="none" stroke="#28a745" stroke-dasharray="5,2" points="264,-89 264,-488 596,-488 596,-89 264,-89"/>
<text text-anchor="middle" x="430" y="-473.6" font-family="Helvetica Bold" font-size="13.00" fill="#28a745">Theorems (Proof Chain)</text>
</g>
<!-- L4YAML.Scanner.ScannerState.advance -->
<g id="node1" class="node">
<title>L4YAML.Scanner.ScannerState.advance</title>
<g id="a_node1"><a xlink:href="../../../api/L4YAML/Scanner/State.html#L4YAML.Scanner.ScannerState.advance" xlink:title="ScannerState.advance" target="_blank">
<polygon fill="#dce9f7" stroke="#4a90d9" points="153.5,-52 38.5,-52 38.5,-16 153.5,-16 153.5,-52"/>
<text text-anchor="middle" x="96" y="-31.5" font-family="Helvetica" font-size="10.00">ScannerState.advance</text>
</a>
</g>
</g>
<!-- L4YAML.Scanner.skipSpaces -->
<g id="node2" class="node">
<title>L4YAML.Scanner.skipSpaces</title>
<g id="a_node2"><a xlink:href="../../../api/L4YAML/Scanner/Whitespace.html#L4YAML.Scanner.skipSpaces" xlink:title="skipSpaces" target="_blank">
<polygon fill="#dce9f7" stroke="#4a90d9" points="150,-349 82,-349 82,-313 150,-313 150,-349"/>
<text text-anchor="middle" x="116" y="-328.5" font-family="Helvetica" font-size="10.00">skipSpaces</text>
</a>
</g>
</g>
<!-- L4YAML.Scanner.ScannerState -->
<g id="node3" class="node">
<title>L4YAML.Scanner.ScannerState</title>
<g id="a_node3"><a xlink:href="../../../api/L4YAML/Scanner/State.html#L4YAML.Scanner.ScannerState" xlink:title="ScannerState" target="_blank">
<polygon fill="#dce9f7" stroke="#4a90d9" points="248,-52 172,-52 172,-16 248,-16 248,-52"/>
<text text-anchor="middle" x="210" y="-31.5" font-family="Helvetica" font-size="10.00">ScannerState</text>
</a>
</g>
</g>
<!-- L4YAML.Scanner.skipSpaces&#45;&gt;L4YAML.Scanner.ScannerState -->
<g id="edge15" class="edge">
<title>L4YAML.Scanner.skipSpaces&#45;&gt;L4YAML.Scanner.ScannerState</title>
<path fill="none" stroke="#4a90d9" stroke-width="2" d="M104.51,-312.91C77.95,-271.06 18.11,-161.58 66,-89 91.41,-50.49 118.96,-65.76 163,-52 163.72,-51.77 164.45,-51.54 165.19,-51.31"/>
<polygon fill="#4a90d9" stroke="#4a90d9" stroke-width="2" points="165.99,-53.62 171.88,-49.11 164.46,-48.97 165.99,-53.62"/>
<text text-anchor="middle" x="61.5" y="-167.1" font-family="Times-Roman" font-size="8.00">calls</text>
</g>
<!-- L4YAML.Scanner.skipSpacesLoop -->
<g id="node5" class="node">
<title>L4YAML.Scanner.skipSpacesLoop</title>
<g id="a_node5"><a xlink:href="../../../api/L4YAML/Scanner/Whitespace.html#L4YAML.Scanner.skipSpacesLoop" xlink:title="skipSpacesLoop" target="_blank">
<polygon fill="#dce9f7" stroke="#4a90d9" points="173.5,-241 84.5,-241 84.5,-205 173.5,-205 173.5,-241"/>
<text text-anchor="middle" x="129" y="-220.5" font-family="Helvetica" font-size="10.00">skipSpacesLoop</text>
</a>
</g>
</g>
<!-- L4YAML.Scanner.skipSpaces&#45;&gt;L4YAML.Scanner.skipSpacesLoop -->
<g id="edge2" class="edge">
<title>L4YAML.Scanner.skipSpaces&#45;&gt;L4YAML.Scanner.skipSpacesLoop</title>
<path fill="none" stroke="#4a90d9" stroke-width="2" d="M112.86,-312.86C110.77,-298.35 109.06,-277.08 113,-259 113.82,-255.25 115.07,-251.41 116.53,-247.73"/>
<polygon fill="#4a90d9" stroke="#4a90d9" stroke-width="2" points="118.79,-248.69 119.32,-241.29 114.29,-246.74 118.79,-248.69"/>
<text text-anchor="middle" x="122.5" y="-275.1" font-family="Times-Roman" font-size="8.00">calls</text>
</g>
<!-- L4YAML.Scanner.skipSpacesLoop._unary -->
<g id="node4" class="node">
<title>L4YAML.Scanner.skipSpacesLoop._unary</title>
<g id="a_node4"><a xlink:href="../../../api/L4YAML/Scanner/Whitespace.html#L4YAML.Scanner.skipSpacesLoop._unary" xlink:title="skipSpacesLoop._unary" target="_blank">
<polygon fill="#dce9f7" stroke="#4a90d9" points="228,-133 106,-133 106,-97 228,-97 228,-133"/>
<text text-anchor="middle" x="167" y="-112.5" font-family="Helvetica" font-size="10.00">skipSpacesLoop._unary</text>
</a>
</g>
</g>
<!-- L4YAML.Scanner.skipSpacesLoop._unary&#45;&gt;L4YAML.Scanner.ScannerState.advance -->
<g id="edge8" class="edge">
<title>L4YAML.Scanner.skipSpacesLoop._unary&#45;&gt;L4YAML.Scanner.ScannerState.advance</title>
<path fill="none" stroke="#4a90d9" stroke-width="2" d="M151.59,-96.86C141.27,-85.37 127.56,-70.11 116.34,-57.63"/>
<polygon fill="#4a90d9" stroke="#4a90d9" stroke-width="2" points="117.88,-55.68 111.38,-52.11 114.23,-58.95 117.88,-55.68"/>
<text text-anchor="middle" x="142.5" y="-72.6" font-family="Times-Roman" font-size="8.00">calls</text>
</g>
<!-- L4YAML.Scanner.skipSpacesLoop._unary&#45;&gt;L4YAML.Scanner.ScannerState -->
<g id="edge11" class="edge">
<title>L4YAML.Scanner.skipSpacesLoop._unary&#45;&gt;L4YAML.Scanner.ScannerState</title>
<path fill="none" stroke="#4a90d9" stroke-width="2" d="M176.33,-96.86C182.47,-85.57 190.59,-70.66 197.32,-58.3"/>
<polygon fill="#4a90d9" stroke="#4a90d9" stroke-width="2" points="199.49,-59.43 200.69,-52.11 195.19,-57.09 199.49,-59.43"/>
<text text-anchor="middle" x="198.5" y="-72.6" font-family="Times-Roman" font-size="8.00">calls</text>
</g>
<!-- L4YAML.Scanner.skipSpacesLoop&#45;&gt;L4YAML.Scanner.ScannerState -->
<g id="edge13" class="edge">
<title>L4YAML.Scanner.skipSpacesLoop&#45;&gt;L4YAML.Scanner.ScannerState</title>
<path fill="none" stroke="#4a90d9" stroke-width="2" d="M112.77,-204.89C89.68,-178.39 52.78,-126.57 78,-89 80.66,-85.04 127.84,-66.32 165.04,-52.02"/>
<polygon fill="#4a90d9" stroke="#4a90d9" stroke-width="2" points="166.2,-54.2 171.86,-49.41 164.44,-49.63 166.2,-54.2"/>
<text text-anchor="middle" x="87.5" y="-113.1" font-family="Times-Roman" font-size="8.00">calls</text>
</g>
<!-- L4YAML.Scanner.skipSpacesLoop&#45;&gt;L4YAML.Scanner.skipSpacesLoop._unary -->
<g id="edge5" class="edge">
<title>L4YAML.Scanner.skipSpacesLoop&#45;&gt;L4YAML.Scanner.skipSpacesLoop._unary</title>
<path fill="none" stroke="#4a90d9" stroke-width="2" d="M135.11,-204.97C141.41,-187.38 151.3,-159.78 158.4,-139.99"/>
<polygon fill="#4a90d9" stroke="#4a90d9" stroke-width="2" points="160.73,-140.76 160.78,-133.34 156.11,-139.1 160.73,-140.76"/>
<text text-anchor="middle" x="162.5" y="-167.1" font-family="Times-Roman" font-size="8.00">calls</text>
</g>
<!-- L4YAML.Scanner.ScannerState.tokens -->
<g id="node6" class="node">
<title>L4YAML.Scanner.ScannerState.tokens</title>
<g id="a_node6"><a xlink:href="../../../api/L4YAML/Scanner/State.html#L4YAML.Scanner.ScannerState.tokens" xlink:title="ScannerState.tokens" target="_blank">
<polygon fill="#dce9f7" stroke="#4a90d9" points="247.5,-295 140.5,-295 140.5,-259 247.5,-259 247.5,-295"/>
<text text-anchor="middle" x="194" y="-274.5" font-family="Helvetica" font-size="10.00">ScannerState.tokens</text>
</a>
</g>
</g>
<!-- L4YAML.Scanner.ScannerState.tokens&#45;&gt;L4YAML.Scanner.ScannerState -->
<g id="edge19" class="edge">
<title>L4YAML.Scanner.ScannerState.tokens&#45;&gt;L4YAML.Scanner.ScannerState</title>
<path fill="none" stroke="#4a90d9" stroke-width="2" d="M190.1,-258.58C185.37,-232.78 180.43,-183.93 202,-151 211.58,-136.37 227.89,-147.93 237,-133 247.19,-116.31 241.49,-108.03 237,-89 234.52,-78.49 229.66,-67.7 224.75,-58.55"/>
<polygon fill="#4a90d9" stroke="#4a90d9" stroke-width="2" points="226.75,-57.11 221.19,-52.21 222.48,-59.51 226.75,-57.11"/>
<text text-anchor="middle" x="211.5" y="-167.1" font-family="Times-Roman" font-size="8.00">calls</text>
</g>
<!-- L4YAML.Scanner.skipSpacesLoop._unary._proof_1 -->
<g id="node7" class="node">
<title>L4YAML.Scanner.skipSpacesLoop._unary._proof_1</title>
<g id="a_node7"><a xlink:href="../../../api/L4YAML/Scanner/Whitespace.html#L4YAML.Scanner.skipSpacesLoop._unary._proof_1" xlink:title="skipSpacesLoop._unary._proof_1" target="_blank">
<ellipse fill="#d4edda" stroke="#28a745" cx="367" cy="-115" rx="94.55" ry="18"/>
<text text-anchor="middle" x="367" y="-112.5" font-family="Helvetica" font-size="10.00">skipSpacesLoop._unary._proof_1</text>
</a>
</g>
</g>
<!-- L4YAML.Scanner.skipSpacesLoop._unary._proof_1&#45;&gt;L4YAML.Scanner.ScannerState.advance -->
<g id="edge10" class="edge">
<title>L4YAML.Scanner.skipSpacesLoop._unary._proof_1&#45;&gt;L4YAML.Scanner.ScannerState.advance</title>
<path fill="none" stroke="#6f42c1" stroke-width="2" stroke-dasharray="5,2" d="M317.61,-99.6C273.52,-86.75 208.66,-67.84 160.49,-53.8"/>
<polygon fill="#6f42c1" stroke="#6f42c1" stroke-width="2" points="160.92,-51.37 153.51,-51.76 159.54,-56.08 160.92,-51.37"/>
<text text-anchor="middle" x="251.5" y="-72.6" font-family="Times-Roman" font-size="8.00" fill="#6f42c1">about</text>
</g>
<!-- L4YAML.Scanner.skipSpacesLoop._unary._proof_1&#45;&gt;L4YAML.Scanner.ScannerState -->
<g id="edge12" class="edge">
<title>L4YAML.Scanner.skipSpacesLoop._unary._proof_1&#45;&gt;L4YAML.Scanner.ScannerState</title>
<path fill="none" stroke="#6f42c1" stroke-width="2" stroke-dasharray="5,2" d="M349.3,-97.23C339.04,-88.2 325.5,-77.42 312,-70 294.33,-60.29 273.47,-52.55 255.24,-46.85"/>
<polygon fill="#6f42c1" stroke="#6f42c1" stroke-width="2" points="255.54,-44.38 248.13,-44.69 254.11,-49.07 255.54,-44.38"/>
<text text-anchor="middle" x="337.5" y="-72.6" font-family="Times-Roman" font-size="8.00" fill="#6f42c1">about</text>
</g>
<!-- L4YAML.Scanner.skipSpacesLoop.eq_def -->
<g id="node8" class="node">
<title>L4YAML.Scanner.skipSpacesLoop.eq_def</title>
<g id="a_node8"><a xlink:href="../../../api/L4YAML/Scanner/Whitespace.html#L4YAML.Scanner.skipSpacesLoop.eq_def" xlink:title="skipSpacesLoop.eq_def" target="_blank">
<ellipse fill="#d4edda" stroke="#28a745" cx="363" cy="-331" rx="71.46" ry="18"/>
<text text-anchor="middle" x="363" y="-328.5" font-family="Helvetica" font-size="10.00">skipSpacesLoop.eq_def</text>
</a>
</g>
</g>
<!-- L4YAML.Scanner.skipSpacesLoop.eq_def&#45;&gt;L4YAML.Scanner.ScannerState -->
<g id="edge20" class="edge">
<title>L4YAML.Scanner.skipSpacesLoop.eq_def&#45;&gt;L4YAML.Scanner.ScannerState</title>
<path fill="none" stroke="#6f42c1" stroke-width="2" stroke-dasharray="5,2" d="M410.57,-317.6C468.6,-299.63 564.15,-260.2 606,-187 627.62,-149.19 634.22,-122.18 606,-89 583.52,-62.58 354.48,-44.48 255.34,-37.83"/>
<polygon fill="#6f42c1" stroke="#6f42c1" stroke-width="2" points="255.29,-35.37 248.14,-37.35 254.97,-40.26 255.29,-35.37"/>
<text text-anchor="middle" x="634.5" y="-167.1" font-family="Times-Roman" font-size="8.00" fill="#6f42c1">about</text>
</g>
<!-- L4YAML.Scanner.skipSpacesLoop.eq_def&#45;&gt;L4YAML.Scanner.skipSpacesLoop -->
<g id="edge4" class="edge">
<title>L4YAML.Scanner.skipSpacesLoop.eq_def&#45;&gt;L4YAML.Scanner.skipSpacesLoop</title>
<path fill="none" stroke="#6f42c1" stroke-width="2" stroke-dasharray="5,2" d="M342.67,-313.45C322.17,-297.48 289.03,-273.63 257,-259 232.87,-247.98 204.56,-239.79 180.7,-234.12"/>
<polygon fill="#6f42c1" stroke="#6f42c1" stroke-width="2" points="181.15,-231.71 173.78,-232.51 180.04,-236.48 181.15,-231.71"/>
<text text-anchor="middle" x="328.5" y="-275.1" font-family="Times-Roman" font-size="8.00" fill="#6f42c1">about</text>
</g>
<!-- L4YAML.Scanner.skipSpacesLoop._unary.eq_def -->
<g id="node10" class="node">
<title>L4YAML.Scanner.skipSpacesLoop._unary.eq_def</title>
<g id="a_node10"><a xlink:href="../../../api/L4YAML/Scanner/Whitespace.html#L4YAML.Scanner.skipSpacesLoop._unary.eq_def" xlink:title="skipSpacesLoop._unary.eq_def" target="_blank">
<ellipse fill="#d4edda" stroke="#28a745" cx="362" cy="-223" rx="90.13" ry="18"/>
<text text-anchor="middle" x="362" y="-220.5" font-family="Helvetica" font-size="10.00">skipSpacesLoop._unary.eq_def</text>
</a>
</g>
</g>
<!-- L4YAML.Scanner.skipSpacesLoop.eq_def&#45;&gt;L4YAML.Scanner.skipSpacesLoop._unary.eq_def -->
<g id="edge6" class="edge">
<title>L4YAML.Scanner.skipSpacesLoop.eq_def&#45;&gt;L4YAML.Scanner.skipSpacesLoop._unary.eq_def</title>
<path fill="none" stroke="#28a745" stroke-width="2" d="M362.84,-312.97C362.67,-295.53 362.42,-268.26 362.23,-248.51"/>
<polygon fill="#28a745" stroke="#28a745" stroke-width="2" points="364.68,-248.32 362.16,-241.34 359.78,-248.36 364.68,-248.32"/>
<text text-anchor="middle" x="372" y="-275.1" font-family="Times-Roman" font-size="8.00">uses</text>
</g>
<!-- L4YAML.Proofs.ScannerCorrectness.advance_preserves_tokens -->
<g id="node9" class="node">
<title>L4YAML.Proofs.ScannerCorrectness.advance_preserves_tokens</title>
<g id="a_node9"><a xlink:href="../../../api/L4YAML/Proofs/Scanner/ScannerCorrectness.html#L4YAML.Proofs.ScannerCorrectness.advance_preserves_tokens" xlink:title="ScannerCorrectness.advance_preserves_tokens" target="_blank">
<ellipse fill="#d4edda" stroke="#28a745" cx="454" cy="-169" rx="133.75" ry="18"/>
<text text-anchor="middle" x="454" y="-166.5" font-family="Helvetica" font-size="10.00">ScannerCorrectness.advance_preserves_tokens</text>
</a>
</g>
</g>
<!-- L4YAML.Proofs.ScannerCorrectness.advance_preserves_tokens&#45;&gt;L4YAML.Scanner.ScannerState -->
<g id="edge17" class="edge">
<title>L4YAML.Proofs.ScannerCorrectness.advance_preserves_tokens&#45;&gt;L4YAML.Scanner.ScannerState</title>
<path fill="none" stroke="#6f42c1" stroke-width="2" stroke-dasharray="5,2" d="M465,-151C474.73,-133.58 485.35,-106.62 471,-89 444.29,-56.2 322.6,-42.71 255.22,-37.67"/>
<polygon fill="#6f42c1" stroke="#6f42c1" stroke-width="2" points="255.24,-35.22 248.08,-37.16 254.89,-40.11 255.24,-35.22"/>
<text text-anchor="middle" x="489.5" y="-113.1" font-family="Times-Roman" font-size="8.00" fill="#6f42c1">about</text>
</g>
<!-- L4YAML.Scanner.skipSpacesLoop._unary.eq_def&#45;&gt;L4YAML.Scanner.ScannerState -->
<g id="edge14" class="edge">
<title>L4YAML.Scanner.skipSpacesLoop._unary.eq_def&#45;&gt;L4YAML.Scanner.ScannerState</title>
<path fill="none" stroke="#6f42c1" stroke-width="2" stroke-dasharray="5,2" d="M450.81,-219.86C506.52,-216.42 571.09,-207.89 589,-187 599.42,-174.85 596.17,-165.3 589,-151 568.37,-109.84 545.76,-112.23 506,-89 487.96,-78.46 483.1,-75.71 463,-70 392.12,-49.86 306.65,-41.12 255.4,-37.47"/>
<polygon fill="#6f42c1" stroke="#6f42c1" stroke-width="2" points="255.55,-35.02 248.4,-36.98 255.21,-39.91 255.55,-35.02"/>
<text text-anchor="middle" x="589.5" y="-113.1" font-family="Times-Roman" font-size="8.00" fill="#6f42c1">about</text>
</g>
<!-- L4YAML.Scanner.skipSpacesLoop._unary.eq_def&#45;&gt;L4YAML.Scanner.skipSpacesLoop._unary -->
<g id="edge7" class="edge">
<title>L4YAML.Scanner.skipSpacesLoop._unary.eq_def&#45;&gt;L4YAML.Scanner.skipSpacesLoop._unary</title>
<path fill="none" stroke="#6f42c1" stroke-width="2" stroke-dasharray="5,2" d="M303.46,-209.31C286.91,-204.05 269.48,-196.82 255,-187 237.76,-175.31 240.8,-164.57 225,-151 219.12,-145.96 212.44,-141.19 205.74,-136.89"/>
<polygon fill="#6f42c1" stroke="#6f42c1" stroke-width="2" points="206.85,-134.7 199.61,-133.09 204.26,-138.86 206.85,-134.7"/>
<text text-anchor="middle" x="267.5" y="-167.1" font-family="Times-Roman" font-size="8.00" fill="#6f42c1">about</text>
</g>
<!-- L4YAML.Scanner.skipSpacesLoop._unary.eq_def&#45;&gt;L4YAML.Scanner.skipSpacesLoop._unary._proof_1 -->
<g id="edge9" class="edge">
<title>L4YAML.Scanner.skipSpacesLoop._unary.eq_def&#45;&gt;L4YAML.Scanner.skipSpacesLoop._unary._proof_1</title>
<path fill="none" stroke="#28a745" stroke-width="2" d="M314.24,-207.58C305.01,-202.56 296.52,-195.87 291,-187 282.55,-173.41 282.37,-164.47 291,-151 295.53,-143.93 301.89,-138.27 309.02,-133.74"/>
<polygon fill="#28a745" stroke="#28a745" stroke-width="2" points="310.33,-135.81 315.17,-130.19 307.88,-131.56 310.33,-135.81"/>
<text text-anchor="middle" x="301" y="-167.1" font-family="Times-Roman" font-size="8.00">uses</text>
</g>
<!-- L4YAML.Proofs.ScannerCorrectness.skipSpaces_preserves_tokens -->
<g id="node11" class="node">
<title>L4YAML.Proofs.ScannerCorrectness.skipSpaces_preserves_tokens</title>
<g id="a_node11"><a xlink:href="../../../api/L4YAML/Proofs/Scanner/ScannerCorrectness.html#L4YAML.Proofs.ScannerCorrectness.skipSpaces_preserves_tokens" xlink:title="ScannerCorrectness.skipSpaces_preserves_tokens" target="_blank">
<polygon fill="#fff3cd" stroke="#d4a017" points="584.38,-428.54 584.38,-443.46 493.95,-454 366.05,-454 275.62,-443.46 275.62,-428.54 366.05,-418 493.95,-418 584.38,-428.54"/>
<polygon fill="none" stroke="#d4a017" points="588.39,-424.98 588.39,-447.02 494.18,-458 365.82,-458 271.61,-447.02 271.61,-424.98 365.82,-414 494.18,-414 588.39,-424.98"/>
<text text-anchor="middle" x="430" y="-433.5" font-family="Helvetica" font-size="10.00">ScannerCorrectness.skipSpaces_preserves_tokens</text>
</a>
</g>
</g>
<!-- L4YAML.Proofs.ScannerCorrectness.skipSpaces_preserves_tokens&#45;&gt;L4YAML.Scanner.skipSpaces -->
<g id="edge1" class="edge">
<title>L4YAML.Proofs.ScannerCorrectness.skipSpaces_preserves_tokens&#45;&gt;L4YAML.Scanner.skipSpaces</title>
<path fill="none" stroke="#6f42c1" stroke-width="2" stroke-dasharray="5,2" d="M271.7,-424.93C240.87,-418.91 209.59,-409.77 182,-396 162.59,-386.31 145.18,-368.86 133.12,-354.63"/>
<polygon fill="#6f42c1" stroke="#6f42c1" stroke-width="2" points="134.95,-353 128.61,-349.16 131.17,-356.12 134.95,-353"/>
<text text-anchor="middle" x="194.5" y="-389.6" font-family="Times-Roman" font-size="8.00" fill="#6f42c1">about</text>
</g>
<!-- L4YAML.Proofs.ScannerCorrectness.skipSpaces_preserves_tokens&#45;&gt;L4YAML.Scanner.ScannerState.tokens -->
<g id="edge18" class="edge">
<title>L4YAML.Proofs.ScannerCorrectness.skipSpaces_preserves_tokens&#45;&gt;L4YAML.Scanner.ScannerState.tokens</title>
<path fill="none" stroke="#6f42c1" stroke-width="2" stroke-dasharray="5,2" d="M356.64,-414.9C331.96,-406.15 305.11,-394.33 283,-379 252.32,-357.73 225.28,-323.68 209.28,-301.08"/>
<polygon fill="#6f42c1" stroke="#6f42c1" stroke-width="2" points="211.27,-299.66 205.26,-295.32 207.25,-302.46 211.27,-299.66"/>
<text text-anchor="middle" x="321.5" y="-389.6" font-family="Times-Roman" font-size="8.00" fill="#6f42c1">about</text>
</g>
<!-- L4YAML.Proofs.ScannerCorrectness.skipSpaces_preserves_tokens&#45;&gt;L4YAML.Scanner.skipSpacesLoop.eq_def -->
<g id="edge3" class="edge">
<title>L4YAML.Proofs.ScannerCorrectness.skipSpaces_preserves_tokens&#45;&gt;L4YAML.Scanner.skipSpacesLoop.eq_def</title>
<path fill="none" stroke="#28a745" stroke-width="2" d="M416.12,-413.66C404.99,-396.55 389.4,-372.59 377.99,-355.04"/>
<polygon fill="#28a745" stroke="#28a745" stroke-width="2" points="379.86,-353.43 373.99,-348.89 375.75,-356.1 379.86,-353.43"/>
<text text-anchor="middle" x="414" y="-389.6" font-family="Times-Roman" font-size="8.00">uses</text>
</g>
<!-- L4YAML.Proofs.ScannerCorrectness.skipSpaces_preserves_tokens&#45;&gt;L4YAML.Proofs.ScannerCorrectness.advance_preserves_tokens -->
<g id="edge16" class="edge">
<title>L4YAML.Proofs.ScannerCorrectness.skipSpaces_preserves_tokens&#45;&gt;L4YAML.Proofs.ScannerCorrectness.advance_preserves_tokens</title>
<path fill="none" stroke="#28a745" stroke-width="2" d="M435.43,-413.83C437.98,-403.39 440.9,-390.59 443,-379 454.01,-318.13 456.99,-302.72 461,-241 462.04,-225.03 462.58,-220.92 461,-205 460.66,-201.56 460.13,-197.95 459.52,-194.42"/>
<polygon fill="#28a745" stroke="#28a745" stroke-width="2" points="461.89,-193.76 458.17,-187.34 457.08,-194.68 461.89,-193.76"/>
<text text-anchor="middle" x="464" y="-329.1" font-family="Times-Roman" font-size="8.00">uses</text>
</g>
</g>
</svg>
