<?xml version="1.0" encoding="UTF-8" standalone="no"?>
<!DOCTYPE svg PUBLIC "-//W3C//DTD SVG 1.1//EN"
 "http://www.w3.org/Graphics/SVG/1.1/DTD/svg11.dtd">
<!-- Generated by graphviz version 2.44.0 (0)
 -->
<!-- Title: chain_ScannerCorrectness.unwindIndents_adds_tokens Pages: 1 -->
<svg width="669pt" height="418pt"
 viewBox="0.00 0.00 669.07 418.00" xmlns="http://www.w3.org/2000/svg" xmlns:xlink="http://www.w3.org/1999/xlink">
<g id="graph0" class="graph" transform="scale(1 1) rotate(0) translate(4 414)">
<title>chain_ScannerCorrectness.unwindIndents_adds_tokens</title>
<polygon fill="white" stroke="transparent" points="-4,4 -4,-414 665.07,-414 665.07,4 -4,4"/>
<text text-anchor="middle" x="330.53" y="-395.6" font-family="Helvetica Bold" font-size="13.00">Functorial Chains: ScannerCorrectness.unwindIndents_adds_tokens\n(heuristic: used by 15 proofs)</text>
<g id="clust1" class="cluster">
<title>cluster_fns</title>
<polygon fill="none" stroke="#4a90d9" stroke-dasharray="5,2" points="425.07,-8 425.07,-271 653.07,-271 653.07,-8 425.07,-8"/>
<text text-anchor="middle" x="539.07" y="-256.6" font-family="Helvetica Bold" font-size="13.00" fill="#4a90d9">Functions (Call Chain)</text>
</g>
<g id="clust2" class="cluster">
<title>cluster_thms</title>
<polygon fill="none" stroke="#28a745" stroke-dasharray="5,2" points="39.07,-89 39.07,-380 417.07,-380 417.07,-89 39.07,-89"/>
<text text-anchor="middle" x="228.07" y="-365.6" font-family="Helvetica Bold" font-size="13.00" fill="#28a745">Theorems (Proof Chain)</text>
</g>
<!-- L4YAML.Scanner.ScannerState -->
<g id="node1" class="node">
<title>L4YAML.Scanner.ScannerState</title>
<g id="a_node1"><a xlink:href="../../../api/L4YAML/Scanner/State.html#L4YAML.Scanner.ScannerState" xlink:title="ScannerState" target="_blank">
<polygon fill="#dce9f7" stroke="#4a90d9" points="515.07,-52 439.07,-52 439.07,-16 515.07,-16 515.07,-52"/>
<text text-anchor="middle" x="477.07" y="-31.5" font-family="Helvetica" font-size="10.00">ScannerState</text>
</a>
</g>
</g>
<!-- L4YAML.Scanner.unwindIndents -->
<g id="node2" class="node">
<title>L4YAML.Scanner.unwindIndents</title>
<g id="a_node2"><a xlink:href="../../../api/L4YAML/Scanner/Indent.html#L4YAML.Scanner.unwindIndents" xlink:title="unwindIndents" target="_blank">
<polygon fill="#dce9f7" stroke="#4a90d9" points="524.07,-241 444.07,-241 444.07,-205 524.07,-205 524.07,-241"/>
<text text-anchor="middle" x="484.07" y="-220.5" font-family="Helvetica" font-size="10.00">unwindIndents</text>
</a>
</g>
</g>
<!-- L4YAML.Scanner.unwindIndents&#45;&gt;L4YAML.Scanner.ScannerState -->
<g id="edge13" class="edge">
<title>L4YAML.Scanner.unwindIndents&#45;&gt;L4YAML.Scanner.ScannerState</title>
<path fill="none" stroke="#4a90d9" stroke-width="2" d="M497.41,-204.86C513.61,-183.64 539.36,-148.42 544.07,-133 549.78,-114.3 552.51,-106.64 544.07,-89 537.81,-75.92 526.66,-64.99 515.24,-56.47"/>
<polygon fill="#4a90d9" stroke="#4a90d9" stroke-width="2" points="516.39,-54.28 509.26,-52.23 513.55,-58.28 516.39,-54.28"/>
<text text-anchor="middle" x="558.57" y="-113.1" font-family="Times-Roman" font-size="8.00">calls</text>
</g>
<!-- L4YAML.Scanner.unwindIndentsLoop -->
<g id="node4" class="node">
<title>L4YAML.Scanner.unwindIndentsLoop</title>
<g id="a_node4"><a xlink:href="../../../api/L4YAML/Scanner/Indent.html#L4YAML.Scanner.unwindIndentsLoop" xlink:title="unwindIndentsLoop" target="_blank">
<polygon fill="#dce9f7" stroke="#4a90d9" points="534.57,-133 433.57,-133 433.57,-97 534.57,-97 534.57,-133"/>
<text text-anchor="middle" x="484.07" y="-112.5" font-family="Helvetica" font-size="10.00">unwindIndentsLoop</text>
</a>
</g>
</g>
<!-- L4YAML.Scanner.unwindIndents&#45;&gt;L4YAML.Scanner.unwindIndentsLoop -->
<g id="edge2" class="edge">
<title>L4YAML.Scanner.unwindIndents&#45;&gt;L4YAML.Scanner.unwindIndentsLoop</title>
<path fill="none" stroke="#4a90d9" stroke-width="2" d="M484.07,-204.97C484.07,-187.53 484.07,-160.26 484.07,-140.51"/>
<polygon fill="#4a90d9" stroke="#4a90d9" stroke-width="2" points="486.52,-140.34 484.07,-133.34 481.62,-140.34 486.52,-140.34"/>
<text text-anchor="middle" x="493.57" y="-167.1" font-family="Times-Roman" font-size="8.00">calls</text>
</g>
<!-- L4YAML.Scanner.ScannerState.tokens -->
<g id="node3" class="node">
<title>L4YAML.Scanner.ScannerState.tokens</title>
<g id="a_node3"><a xlink:href="../../../api/L4YAML/Scanner/State.html#L4YAML.Scanner.ScannerState.tokens" xlink:title="ScannerState.tokens" target="_blank">
<polygon fill="#dce9f7" stroke="#4a90d9" points="644.57,-187 537.57,-187 537.57,-151 644.57,-151 644.57,-187"/>
<text text-anchor="middle" x="591.07" y="-166.5" font-family="Helvetica" font-size="10.00">ScannerState.tokens</text>
</a>
</g>
</g>
<!-- L4YAML.Scanner.ScannerState.tokens&#45;&gt;L4YAML.Scanner.ScannerState -->
<g id="edge11" class="edge">
<title>L4YAML.Scanner.ScannerState.tokens&#45;&gt;L4YAML.Scanner.ScannerState</title>
<path fill="none" stroke="#4a90d9" stroke-width="2" d="M595.58,-150.99C599.07,-134.52 602.1,-109.15 594.07,-89 582.73,-60.55 550.06,-47.08 522.12,-40.71"/>
<polygon fill="#4a90d9" stroke="#4a90d9" stroke-width="2" points="522.48,-38.29 515.13,-39.24 521.47,-43.08 522.48,-38.29"/>
<text text-anchor="middle" x="608.57" y="-113.1" font-family="Times-Roman" font-size="8.00">calls</text>
</g>
<!-- L4YAML.Scanner.unwindIndentsLoop&#45;&gt;L4YAML.Scanner.ScannerState -->
<g id="edge5" class="edge">
<title>L4YAML.Scanner.unwindIndentsLoop&#45;&gt;L4YAML.Scanner.ScannerState</title>
<path fill="none" stroke="#4a90d9" stroke-width="2" d="M482.55,-96.86C481.58,-85.88 480.3,-71.48 479.22,-59.33"/>
<polygon fill="#4a90d9" stroke="#4a90d9" stroke-width="2" points="481.64,-58.86 478.58,-52.11 476.76,-59.3 481.64,-58.86"/>
<text text-anchor="middle" x="490.57" y="-72.6" font-family="Times-Roman" font-size="8.00">calls</text>
</g>
<!-- L4YAML.Proofs.ScannerProofs.emit_tokens_size -->
<g id="node5" class="node">
<title>L4YAML.Proofs.ScannerProofs.emit_tokens_size</title>
<g id="a_node5"><a xlink:href="../../../api/L4YAML/Proofs/Scanner/ScannerProofs.html#L4YAML.Proofs.ScannerProofs.emit_tokens_size" xlink:title="ScannerProofs.emit_tokens_size" target="_blank">
<ellipse fill="#d4edda" stroke="#28a745" cx="141.07" cy="-115" rx="93.69" ry="18"/>
<text text-anchor="middle" x="141.07" y="-112.5" font-family="Helvetica" font-size="10.00">ScannerProofs.emit_tokens_size</text>
</a>
</g>
</g>
<!-- L4YAML.Proofs.ScannerProofs.emit_tokens_size&#45;&gt;L4YAML.Scanner.ScannerState -->
<g id="edge9" class="edge">
<title>L4YAML.Proofs.ScannerProofs.emit_tokens_size&#45;&gt;L4YAML.Scanner.ScannerState</title>
<path fill="none" stroke="#6f42c1" stroke-width="2" stroke-dasharray="5,2" d="M196.37,-100.47C211.8,-96.72 228.58,-92.67 244.07,-89 309.21,-73.55 384.71,-56.14 431.69,-45.37"/>
<polygon fill="#6f42c1" stroke="#6f42c1" stroke-width="2" points="432.42,-47.72 438.7,-43.76 431.33,-42.94 432.42,-47.72"/>
<text text-anchor="middle" x="333.57" y="-72.6" font-family="Times-Roman" font-size="8.00" fill="#6f42c1">about</text>
</g>
<!-- L4YAML.Proofs.ScannerCorrectness.unwindIndentsLoop_tokens_monotonic -->
<g id="node6" class="node">
<title>L4YAML.Proofs.ScannerCorrectness.unwindIndentsLoop_tokens_monotonic</title>
<g id="a_node6"><a xlink:href="../../../api/L4YAML/Proofs/Scanner/ScannerCorrectness.html#L4YAML.Proofs.ScannerCorrectness.unwindIndentsLoop_tokens_monotonic" xlink:title="ScannerCorrectness.unwindIndentsLoop_tokens_monotonic" target="_blank">
<ellipse fill="#d4edda" stroke="#28a745" cx="246.07" cy="-223" rx="163.12" ry="18"/>
<text text-anchor="middle" x="246.07" y="-220.5" font-family="Helvetica" font-size="10.00">ScannerCorrectness.unwindIndentsLoop_tokens_monotonic</text>
</a>
</g>
</g>
<!-- L4YAML.Proofs.ScannerCorrectness.unwindIndentsLoop_tokens_monotonic&#45;&gt;L4YAML.Scanner.ScannerState -->
<g id="edge12" class="edge">
<title>L4YAML.Proofs.ScannerCorrectness.unwindIndentsLoop_tokens_monotonic&#45;&gt;L4YAML.Scanner.ScannerState</title>
<path fill="none" stroke="#6f42c1" stroke-width="2" stroke-dasharray="5,2" d="M167.41,-207.16C80.79,-187.5 -39.66,-148.22 13.07,-89 40.64,-58.03 320.28,-42.08 431.65,-36.92"/>
<polygon fill="#6f42c1" stroke="#6f42c1" stroke-width="2" points="431.86,-39.36 438.74,-36.59 431.64,-34.46 431.86,-39.36"/>
<text text-anchor="middle" x="25.57" y="-113.1" font-family="Times-Roman" font-size="8.00" fill="#6f42c1">about</text>
</g>
<!-- L4YAML.Proofs.ScannerCorrectness.unwindIndentsLoop_tokens_monotonic&#45;&gt;L4YAML.Scanner.unwindIndentsLoop -->
<g id="edge4" class="edge">
<title>L4YAML.Proofs.ScannerCorrectness.unwindIndentsLoop_tokens_monotonic&#45;&gt;L4YAML.Scanner.unwindIndentsLoop</title>
<path fill="none" stroke="#6f42c1" stroke-width="2" stroke-dasharray="5,2" d="M284.35,-205.34C297.58,-199.56 312.49,-193.02 326.07,-187 364.57,-169.93 408.23,-150.29 439.88,-136"/>
<polygon fill="#6f42c1" stroke="#6f42c1" stroke-width="2" points="441.07,-138.15 446.45,-133.03 439.06,-133.68 441.07,-138.15"/>
<text text-anchor="middle" x="416.57" y="-167.1" font-family="Times-Roman" font-size="8.00" fill="#6f42c1">about</text>
</g>
<!-- L4YAML.Proofs.ScannerCorrectness.unwindIndentsLoop_tokens_monotonic&#45;&gt;L4YAML.Proofs.ScannerProofs.emit_tokens_size -->
<g id="edge8" class="edge">
<title>L4YAML.Proofs.ScannerCorrectness.unwindIndentsLoop_tokens_monotonic&#45;&gt;L4YAML.Proofs.ScannerProofs.emit_tokens_size</title>
<path fill="none" stroke="#28a745" stroke-width="2" d="M229.2,-204.97C211.21,-186.81 182.66,-157.99 162.95,-138.09"/>
<polygon fill="#28a745" stroke="#28a745" stroke-width="2" points="164.56,-136.24 157.9,-132.99 161.08,-139.69 164.56,-136.24"/>
<text text-anchor="middle" x="220.07" y="-167.1" font-family="Times-Roman" font-size="8.00">uses</text>
</g>
<!-- L4YAML.Scanner.unwindIndentsLoop.eq_def -->
<g id="node8" class="node">
<title>L4YAML.Scanner.unwindIndentsLoop.eq_def</title>
<g id="a_node8"><a xlink:href="../../../api/L4YAML/Scanner/Indent.html#L4YAML.Scanner.unwindIndentsLoop.eq_def" xlink:title="unwindIndentsLoop.eq_def" target="_blank">
<ellipse fill="#d4edda" stroke="#28a745" cx="331.07" cy="-115" rx="78.08" ry="18"/>
<text text-anchor="middle" x="331.07" y="-112.5" font-family="Helvetica" font-size="10.00">unwindIndentsLoop.eq_def</text>
</a>
</g>
</g>
<!-- L4YAML.Proofs.ScannerCorrectness.unwindIndentsLoop_tokens_monotonic&#45;&gt;L4YAML.Scanner.unwindIndentsLoop.eq_def -->
<g id="edge6" class="edge">
<title>L4YAML.Proofs.ScannerCorrectness.unwindIndentsLoop_tokens_monotonic&#45;&gt;L4YAML.Scanner.unwindIndentsLoop.eq_def</title>
<path fill="none" stroke="#28a745" stroke-width="2" d="M259.73,-204.97C274.16,-186.97 297.01,-158.48 312.94,-138.6"/>
<polygon fill="#28a745" stroke="#28a745" stroke-width="2" points="314.98,-139.98 317.45,-132.99 311.16,-136.92 314.98,-139.98"/>
<text text-anchor="middle" x="312.07" y="-167.1" font-family="Times-Roman" font-size="8.00">uses</text>
</g>
<!-- L4YAML.Proofs.ScannerCorrectness.unwindIndents_adds_tokens -->
<g id="node7" class="node">
<title>L4YAML.Proofs.ScannerCorrectness.unwindIndents_adds_tokens</title>
<g id="a_node7"><a xlink:href="../../../api/L4YAML/Proofs/Scanner/ScannerCorrectness.html#L4YAML.Proofs.ScannerCorrectness.unwindIndents_adds_tokens" xlink:title="ScannerCorrectness.unwindIndents_adds_tokens" target="_blank">
<polygon fill="#fff3cd" stroke="#d4a017" points="404.72,-320.54 404.72,-335.46 318.23,-346 195.91,-346 109.42,-335.46 109.42,-320.54 195.91,-310 318.23,-310 404.72,-320.54"/>
<polygon fill="none" stroke="#d4a017" points="408.71,-317 408.71,-339 318.47,-350 195.67,-350 105.42,-339 105.42,-317 195.67,-306 318.47,-306 408.71,-317"/>
<text text-anchor="middle" x="257.07" y="-325.5" font-family="Helvetica" font-size="10.00">ScannerCorrectness.unwindIndents_adds_tokens</text>
</a>
</g>
</g>
<!-- L4YAML.Proofs.ScannerCorrectness.unwindIndents_adds_tokens&#45;&gt;L4YAML.Scanner.unwindIndents -->
<g id="edge1" class="edge">
<title>L4YAML.Proofs.ScannerCorrectness.unwindIndents_adds_tokens&#45;&gt;L4YAML.Scanner.unwindIndents</title>
<path fill="none" stroke="#6f42c1" stroke-width="2" stroke-dasharray="5,2" d="M330.53,-307.3C359.58,-298.14 392.72,-285.94 421.07,-271 434.33,-264.01 447.81,-254.37 458.88,-245.63"/>
<polygon fill="#6f42c1" stroke="#6f42c1" stroke-width="2" points="460.52,-247.46 464.44,-241.17 457.45,-243.64 460.52,-247.46"/>
<text text-anchor="middle" x="417.57" y="-281.6" font-family="Times-Roman" font-size="8.00" fill="#6f42c1">about</text>
</g>
<!-- L4YAML.Proofs.ScannerCorrectness.unwindIndents_adds_tokens&#45;&gt;L4YAML.Scanner.ScannerState.tokens -->
<g id="edge10" class="edge">
<title>L4YAML.Proofs.ScannerCorrectness.unwindIndents_adds_tokens&#45;&gt;L4YAML.Scanner.ScannerState.tokens</title>
<path fill="none" stroke="#6f42c1" stroke-width="2" stroke-dasharray="5,2" d="M375.3,-312.84C438.15,-303.41 507.59,-289.38 533.07,-271 559.23,-252.13 575.3,-217.57 583.71,-194.19"/>
<polygon fill="#6f42c1" stroke="#6f42c1" stroke-width="2" points="586.11,-194.74 586.07,-187.33 581.48,-193.15 586.11,-194.74"/>
<text text-anchor="middle" x="529.57" y="-281.6" font-family="Times-Roman" font-size="8.00" fill="#6f42c1">about</text>
</g>
<!-- L4YAML.Proofs.ScannerCorrectness.unwindIndents_adds_tokens&#45;&gt;L4YAML.Proofs.ScannerCorrectness.unwindIndentsLoop_tokens_monotonic -->
<g id="edge3" class="edge">
<title>L4YAML.Proofs.ScannerCorrectness.unwindIndents_adds_tokens&#45;&gt;L4YAML.Proofs.ScannerCorrectness.unwindIndentsLoop_tokens_monotonic</title>
<path fill="none" stroke="#28a745" stroke-width="2" d="M254.79,-305.66C253.01,-288.95 250.52,-265.71 248.66,-248.29"/>
<polygon fill="#28a745" stroke="#28a745" stroke-width="2" points="251.09,-247.92 247.91,-241.22 246.22,-248.44 251.09,-247.92"/>
<text text-anchor="middle" x="263.07" y="-281.6" font-family="Times-Roman" font-size="8.00">uses</text>
</g>
<!-- L4YAML.Scanner.unwindIndentsLoop.eq_def&#45;&gt;L4YAML.Scanner.ScannerState -->
<g id="edge7" class="edge">
<title>L4YAML.Scanner.unwindIndentsLoop.eq_def&#45;&gt;L4YAML.Scanner.ScannerState</title>
<path fill="none" stroke="#6f42c1" stroke-width="2" stroke-dasharray="5,2" d="M360.26,-98.2C382.95,-85.93 414.6,-68.8 439.23,-55.48"/>
<polygon fill="#6f42c1" stroke="#6f42c1" stroke-width="2" points="440.66,-57.49 445.65,-52 438.33,-53.18 440.66,-57.49"/>
<text text-anchor="middle" x="421.57" y="-72.6" font-family="Times-Roman" font-size="8.00" fill="#6f42c1">about</text>
</g>
</g>
</svg>
