<?xml version="1.0" encoding="UTF-8" standalone="no"?>
<!DOCTYPE svg PUBLIC "-//W3C//DTD SVG 1.1//EN"
 "http://www.w3.org/Graphics/SVG/1.1/DTD/svg11.dtd">
<!-- Generated by graphviz version 2.44.0 (0)
 -->
<!-- Title: Completeness.parseYaml_ok_iff Pages: 1 -->
<svg width="637pt" height="364pt"
 viewBox="0.00 0.00 636.76 364.00" xmlns="http://www.w3.org/2000/svg" xmlns:xlink="http://www.w3.org/1999/xlink">
<g id="graph0" class="graph" transform="scale(1 1) rotate(0) translate(4 360)">
<title>Completeness.parseYaml_ok_iff</title>
<polygon fill="white" stroke="transparent" points="-4,4 -4,-360 632.76,-360 632.76,4 -4,4"/>
<text text-anchor="middle" x="314.38" y="-341.6" font-family="Helvetica Bold" font-size="13.00">Completeness.parseYaml_ok_iff</text>
<text text-anchor="middle" x="314.38" y="-327.6" font-family="Helvetica Bold" font-size="13.00">1.5 parseYaml succeeds iff there is a valid scan+parse chain</text>
<text text-anchor="middle" x="314.38" y="-313.6" font-family="Helvetica Bold" font-size="13.00">(L4YAML.Proofs.Completeness)</text>
<g id="clust1" class="cluster">
<title>cluster_functions</title>
<polygon fill="none" stroke="#4a90d9" stroke-dasharray="5,2" points="464.76,-8 464.76,-298 620.76,-298 620.76,-8 464.76,-8"/>
<text text-anchor="middle" x="542.76" y="-283.6" font-family="Helvetica Bold" font-size="13.00" fill="#4a90d9">Functions</text>
</g>
<g id="clust2" class="cluster">
<title>cluster_key</title>
<polygon fill="none" stroke="#d4a017" stroke-dasharray="5,2" points="143.9,-112 143.9,-194 419.76,-194 419.76,-112 143.9,-112"/>
<text text-anchor="middle" x="281.83" y="-179.6" font-family="Helvetica Bold" font-size="13.00" fill="#d4a017">Key Theorem</text>
</g>
<g id="clust4" class="cluster">
<title>cluster_stdlib</title>
<polygon fill="none" stroke="#e67e22" stroke-dasharray="5,2" points="8,-116 8,-190 122.9,-190 122.9,-116 8,-116"/>
<text text-anchor="middle" x="65.45" y="-175.6" font-family="Helvetica Bold" font-size="13.00" fill="#e67e22">Stdlib Lemmas</text>
</g>
<!-- L4YAML.TokenParser.parseYaml -->
<g id="node1" class="node">
<title>L4YAML.TokenParser.parseYaml</title>
<g id="a_node1"><a xlink:href="../../../api/L4YAML/Parser/Composition.html#L4YAML.TokenParser.parseYaml" xlink:title="TokenParser.parseYaml\n(def)" target="_blank">
<polygon fill="#dce9f7" stroke="#4a90d9" points="603.26,-268 482.26,-268 482.26,-232 603.26,-232 603.26,-268"/>
<text text-anchor="middle" x="542.76" y="-253" font-family="Helvetica" font-size="10.00">TokenParser.parseYaml</text>
<text text-anchor="middle" x="542.76" y="-242" font-family="Helvetica" font-size="10.00">(def)</text>
</a>
</g>
</g>
<!-- L4YAML.TokenParser.parseYamlRaw -->
<g id="node2" class="node">
<title>L4YAML.TokenParser.parseYamlRaw</title>
<g id="a_node2"><a xlink:href="../../../api/L4YAML/Parser/Composition.html#L4YAML.TokenParser.parseYamlRaw" xlink:title="TokenParser.parseYamlRaw\n(def)" target="_blank">
<polygon fill="#dce9f7" stroke="#4a90d9" points="612.76,-214 472.76,-214 472.76,-178 612.76,-178 612.76,-214"/>
<text text-anchor="middle" x="542.76" y="-199" font-family="Helvetica" font-size="10.00">TokenParser.parseYamlRaw</text>
<text text-anchor="middle" x="542.76" y="-188" font-family="Helvetica" font-size="10.00">(def)</text>
</a>
</g>
</g>
<!-- L4YAML.YamlDocument.compose -->
<g id="node3" class="node">
<title>L4YAML.YamlDocument.compose</title>
<g id="a_node3"><a xlink:href="../../../api/L4YAML/Spec/Types.html#L4YAML.YamlDocument.compose" xlink:title="YamlDocument.compose\n(def)" target="_blank">
<polygon fill="#dce9f7" stroke="#4a90d9" points="605.26,-160 480.26,-160 480.26,-124 605.26,-124 605.26,-160"/>
<text text-anchor="middle" x="542.76" y="-145" font-family="Helvetica" font-size="10.00">YamlDocument.compose</text>
<text text-anchor="middle" x="542.76" y="-134" font-family="Helvetica" font-size="10.00">(def)</text>
</a>
</g>
</g>
<!-- L4YAML.ScanError -->
<g id="node4" class="node">
<title>L4YAML.ScanError</title>
<g id="a_node4"><a xlink:href="../../../api/L4YAML/Token/Token.html#L4YAML.ScanError" xlink:title="ScanError\n(inductive)" target="_blank">
<polygon fill="#dce9f7" stroke="#4a90d9" points="573.76,-106 511.76,-106 511.76,-70 573.76,-70 573.76,-106"/>
<text text-anchor="middle" x="542.76" y="-91" font-family="Helvetica" font-size="10.00">ScanError</text>
<text text-anchor="middle" x="542.76" y="-80" font-family="Helvetica" font-size="10.00">(inductive)</text>
</a>
</g>
</g>
<!-- L4YAML.YamlDocument -->
<g id="node5" class="node">
<title>L4YAML.YamlDocument</title>
<g id="a_node5"><a xlink:href="../../../api/L4YAML/Spec/Types.html#L4YAML.YamlDocument" xlink:title="YamlDocument\n(inductive)" target="_blank">
<polygon fill="#dce9f7" stroke="#4a90d9" points="584.26,-52 501.26,-52 501.26,-16 584.26,-16 584.26,-52"/>
<text text-anchor="middle" x="542.76" y="-37" font-family="Helvetica" font-size="10.00">YamlDocument</text>
<text text-anchor="middle" x="542.76" y="-26" font-family="Helvetica" font-size="10.00">(inductive)</text>
</a>
</g>
</g>
<!-- L4YAML.Proofs.Completeness.parseYaml_ok_iff -->
<g id="node6" class="node">
<title>L4YAML.Proofs.Completeness.parseYaml_ok_iff</title>
<g id="a_node6"><a xlink:href="../../../api/L4YAML/Proofs/Completeness.html#L4YAML.Proofs.Completeness.parseYaml_ok_iff" xlink:title="Completeness.parseYaml_ok_iff" target="_blank">
<polygon fill="#fff3cd" stroke="#d4a017" points="407.69,-134.54 407.69,-149.46 333.96,-160 229.69,-160 155.96,-149.46 155.96,-134.54 229.69,-124 333.96,-124 407.69,-134.54"/>
<polygon fill="none" stroke="#d4a017" points="411.69,-131.08 411.69,-152.92 334.25,-164 229.41,-164 151.96,-152.92 151.96,-131.08 229.41,-120 334.25,-120 411.69,-131.08"/>
<text text-anchor="middle" x="281.83" y="-138.9" font-family="Helvetica" font-size="12.00">Completeness.parseYaml_ok_iff</text>
</a>
</g>
</g>
<!-- L4YAML.Proofs.Completeness.parseYaml_ok_iff&#45;&gt;L4YAML.TokenParser.parseYaml -->
<g id="edge1" class="edge">
<title>L4YAML.Proofs.Completeness.parseYaml_ok_iff&#45;&gt;L4YAML.TokenParser.parseYaml</title>
<path fill="none" stroke="#4a90d9" stroke-width="2" d="M329.5,-164.04C365.99,-180.97 418.17,-204.49 464.76,-223 470.25,-225.18 475.99,-227.37 481.76,-229.5"/>
<polygon fill="#4a90d9" stroke="#4a90d9" stroke-width="2" points="481.11,-231.87 488.53,-231.97 482.8,-227.27 481.11,-231.87"/>
<text text-anchor="middle" x="442.26" y="-218.6" font-family="Times-Roman" font-size="8.00" fill="#4a90d9">about</text>
</g>
<!-- L4YAML.Proofs.Completeness.parseYaml_ok_iff&#45;&gt;L4YAML.TokenParser.parseYamlRaw -->
<g id="edge5" class="edge">
<title>L4YAML.Proofs.Completeness.parseYaml_ok_iff&#45;&gt;L4YAML.TokenParser.parseYamlRaw</title>
<path fill="none" stroke="#4a90d9" stroke-width="2" d="M366.54,-159.46C398.41,-166.1 434.52,-173.64 465.65,-180.13"/>
<polygon fill="#4a90d9" stroke="#4a90d9" stroke-width="2" points="465.27,-182.55 472.62,-181.58 466.27,-177.75 465.27,-182.55"/>
<text text-anchor="middle" x="442.26" y="-178.6" font-family="Times-Roman" font-size="8.00" fill="#4a90d9">about</text>
</g>
<!-- L4YAML.Proofs.Completeness.parseYaml_ok_iff&#45;&gt;L4YAML.YamlDocument.compose -->
<g id="edge3" class="edge">
<title>L4YAML.Proofs.Completeness.parseYaml_ok_iff&#45;&gt;L4YAML.YamlDocument.compose</title>
<path fill="none" stroke="#4a90d9" stroke-width="2" d="M411.91,-142C432.94,-142 453.98,-142 472.81,-142"/>
<polygon fill="#4a90d9" stroke="#4a90d9" stroke-width="2" points="473.19,-144.45 480.19,-142 473.19,-139.55 473.19,-144.45"/>
<text text-anchor="middle" x="442.26" y="-144.6" font-family="Times-Roman" font-size="8.00" fill="#4a90d9">about</text>
</g>
<!-- L4YAML.Proofs.Completeness.parseYaml_ok_iff&#45;&gt;L4YAML.ScanError -->
<g id="edge4" class="edge">
<title>L4YAML.Proofs.Completeness.parseYaml_ok_iff&#45;&gt;L4YAML.ScanError</title>
<path fill="none" stroke="#4a90d9" stroke-width="2" d="M366.54,-124.54C413.08,-114.84 468.68,-103.24 504.57,-95.76"/>
<polygon fill="#4a90d9" stroke="#4a90d9" stroke-width="2" points="505.13,-98.14 511.48,-94.32 504.13,-93.35 505.13,-98.14"/>
<text text-anchor="middle" x="442.26" y="-112.6" font-family="Times-Roman" font-size="8.00" fill="#4a90d9">about</text>
</g>
<!-- L4YAML.Proofs.Completeness.parseYaml_ok_iff&#45;&gt;L4YAML.YamlDocument -->
<g id="edge2" class="edge">
<title>L4YAML.Proofs.Completeness.parseYaml_ok_iff&#45;&gt;L4YAML.YamlDocument</title>
<path fill="none" stroke="#4a90d9" stroke-width="2" d="M329.5,-119.96C365.99,-103.03 418.17,-79.51 464.76,-61 474.28,-57.22 484.57,-53.42 494.42,-49.91"/>
<polygon fill="#4a90d9" stroke="#4a90d9" stroke-width="2" points="495.38,-52.18 501.17,-47.54 493.75,-47.55 495.38,-52.18"/>
<text text-anchor="middle" x="442.26" y="-75.6" font-family="Times-Roman" font-size="8.00" fill="#4a90d9">about</text>
</g>
<!-- Except.ok.injEq -->
<g id="node7" class="node">
<title>Except.ok.injEq</title>
<g id="a_node7"><a xlink:href="../../../api/Init/Core.html#Except.ok.injEq" xlink:title="Except.ok.injEq" target="_blank">
<ellipse fill="#fdebd0" stroke="#e67e22" cx="65.45" cy="-142" rx="49.4" ry="18"/>
<text text-anchor="middle" x="65.45" y="-139.5" font-family="Helvetica" font-size="10.00">Except.ok.injEq</text>
</a>
</g>
</g>
<!-- Except.ok.injEq&#45;&gt;L4YAML.Proofs.Completeness.parseYaml_ok_iff -->
<g id="edge6" class="edge">
<title>Except.ok.injEq&#45;&gt;L4YAML.Proofs.Completeness.parseYaml_ok_iff</title>
<path fill="none" stroke="#e67e22" stroke-width="2" d="M115.09,-142C124.23,-142 134.18,-142 144.52,-142"/>
<polygon fill="#e67e22" stroke="#e67e22" stroke-width="2" points="144.74,-144.45 151.74,-142 144.74,-139.55 144.74,-144.45"/>
</g>
</g>
</svg>
