<?xml version="1.0" encoding="UTF-8" standalone="no"?>
<!DOCTYPE svg PUBLIC "-//W3C//DTD SVG 1.1//EN"
 "http://www.w3.org/Graphics/SVG/1.1/DTD/svg11.dtd">
<!-- Generated by graphviz version 2.44.0 (0)
 -->
<!-- Title: ScannerPlainScalarValid.consumeNewline_preserves_flowLevel Pages: 1 -->
<svg width="1372pt" height="588pt"
 viewBox="0.00 0.00 1371.51 587.53" xmlns="http://www.w3.org/2000/svg" xmlns:xlink="http://www.w3.org/1999/xlink">
<g id="graph0" class="graph" transform="scale(1 1) rotate(0) translate(4 583.53)">
<title>ScannerPlainScalarValid.consumeNewline_preserves_flowLevel</title>
<polygon fill="white" stroke="transparent" points="-4,4 -4,-583.53 1367.51,-583.53 1367.51,4 -4,4"/>
<text text-anchor="middle" x="681.75" y="-565.13" font-family="Helvetica Bold" font-size="13.00">ScannerPlainScalarValid.consumeNewline_preserves_flowLevel</text>
<text text-anchor="middle" x="681.75" y="-551.13" font-family="Helvetica Bold" font-size="13.00">(heuristic: used by 7 proofs)</text>
<text text-anchor="middle" x="681.75" y="-537.13" font-family="Helvetica Bold" font-size="13.00">(L4YAML.Proofs.Production.ScannerPlainScalarValid)</text>
<g id="clust1" class="cluster">
<title>cluster_functions</title>
<polygon fill="none" stroke="#4a90d9" stroke-dasharray="5,2" points="846.97,-96.53 846.97,-278.53 1355.51,-278.53 1355.51,-96.53 846.97,-96.53"/>
<text text-anchor="middle" x="1101.24" y="-264.13" font-family="Helvetica Bold" font-size="13.00" fill="#4a90d9">Functions</text>
</g>
<g id="clust2" class="cluster">
<title>cluster_key</title>
<polygon fill="none" stroke="#d4a017" stroke-dasharray="5,2" points="666.44,-286.53 666.44,-368.53 1175.51,-368.53 1175.51,-286.53 666.44,-286.53"/>
<text text-anchor="middle" x="920.97" y="-354.13" font-family="Helvetica Bold" font-size="13.00" fill="#d4a017">Key Theorem</text>
</g>
<g id="clust3" class="cluster">
<title>cluster_proofs</title>
<polygon fill="none" stroke="#28a745" stroke-dasharray="5,2" points="139.22,-32.53 139.22,-112.53 493.22,-112.53 493.22,-32.53 139.22,-32.53"/>
<text text-anchor="middle" x="316.22" y="-98.13" font-family="Helvetica Bold" font-size="13.00" fill="#28a745">Proof Dependencies</text>
</g>
<g id="clust4" class="cluster">
<title>cluster_stdlib</title>
<polygon fill="none" stroke="#e67e22" stroke-dasharray="5,2" points="8,-123.53 8,-521.53 624.44,-521.53 624.44,-123.53 8,-123.53"/>
<text text-anchor="middle" x="316.22" y="-507.13" font-family="Helvetica Bold" font-size="13.00" fill="#e67e22">Stdlib Lemmas</text>
</g>
<!-- L4YAML.Scanner.ScannerState.advance -->
<g id="node1" class="node">
<title>L4YAML.Scanner.ScannerState.advance</title>
<g id="a_node1"><a xlink:href="../../../api/L4YAML/Scanner/State.html#L4YAML.Scanner.ScannerState.advance" xlink:title="ScannerState.advance\n(def)" target="_blank">
<polygon fill="#dce9f7" stroke="#4a90d9" points="978.47,-140.53 863.47,-140.53 863.47,-104.53 978.47,-104.53 978.47,-140.53"/>
<text text-anchor="middle" x="920.97" y="-125.53" font-family="Helvetica" font-size="10.00">ScannerState.advance</text>
<text text-anchor="middle" x="920.97" y="-114.53" font-family="Helvetica" font-size="10.00">(def)</text>
</a>
</g>
</g>
<!-- L4YAML.Scanner.consumeNewline -->
<g id="node2" class="node">
<title>L4YAML.Scanner.consumeNewline</title>
<g id="a_node2"><a xlink:href="../../../api/L4YAML/Scanner/Whitespace.html#L4YAML.Scanner.consumeNewline" xlink:title="consumeNewline\n(def)" target="_blank">
<polygon fill="#dce9f7" stroke="#4a90d9" points="1334.01,-248.53 1242.01,-248.53 1242.01,-212.53 1334.01,-212.53 1334.01,-248.53"/>
<text text-anchor="middle" x="1288.01" y="-233.53" font-family="Helvetica" font-size="10.00">consumeNewline</text>
<text text-anchor="middle" x="1288.01" y="-222.53" font-family="Helvetica" font-size="10.00">(def)</text>
</a>
</g>
</g>
<!-- L4YAML.Scanner.ScannerState.flowLevel -->
<g id="node3" class="node">
<title>L4YAML.Scanner.ScannerState.flowLevel</title>
<g id="a_node3"><a xlink:href="../../../api/L4YAML/Scanner/State.html#L4YAML.Scanner.ScannerState.flowLevel" xlink:title="ScannerState.flowLevel\n(def)" target="_blank">
<polygon fill="#dce9f7" stroke="#4a90d9" points="1347.51,-194.53 1228.51,-194.53 1228.51,-158.53 1347.51,-158.53 1347.51,-194.53"/>
<text text-anchor="middle" x="1288.01" y="-179.53" font-family="Helvetica" font-size="10.00">ScannerState.flowLevel</text>
<text text-anchor="middle" x="1288.01" y="-168.53" font-family="Helvetica" font-size="10.00">(def)</text>
</a>
</g>
</g>
<!-- L4YAML.Scanner.ScannerState -->
<g id="node4" class="node">
<title>L4YAML.Scanner.ScannerState</title>
<g id="a_node4"><a xlink:href="../../../api/L4YAML/Scanner/State.html#L4YAML.Scanner.ScannerState" xlink:title="ScannerState\n(inductive)" target="_blank">
<polygon fill="#dce9f7" stroke="#4a90d9" points="1326.01,-140.53 1250.01,-140.53 1250.01,-104.53 1326.01,-104.53 1326.01,-140.53"/>
<text text-anchor="middle" x="1288.01" y="-125.53" font-family="Helvetica" font-size="10.00">ScannerState</text>
<text text-anchor="middle" x="1288.01" y="-114.53" font-family="Helvetica" font-size="10.00">(inductive)</text>
</a>
</g>
</g>
<!-- L4YAML.Scanner.consumeNewline.match_3 -->
<g id="node5" class="node">
<title>L4YAML.Scanner.consumeNewline.match_3</title>
<g id="a_node5"><a xlink:href="../../../api/L4YAML/Scanner/Whitespace.html#L4YAML.Scanner.consumeNewline.match_3" xlink:title="consumeNewline.match_3\n(def)" target="_blank">
<polygon fill="#dce9f7" stroke="#4a90d9" points="986.97,-194.53 854.97,-194.53 854.97,-158.53 986.97,-158.53 986.97,-194.53"/>
<text text-anchor="middle" x="920.97" y="-179.53" font-family="Helvetica" font-size="10.00">consumeNewline.match_3</text>
<text text-anchor="middle" x="920.97" y="-168.53" font-family="Helvetica" font-size="10.00">(def)</text>
</a>
</g>
</g>
<!-- L4YAML.Scanner.consumeNewline.match_1 -->
<g id="node6" class="node">
<title>L4YAML.Scanner.consumeNewline.match_1</title>
<g id="a_node6"><a xlink:href="../../../api/L4YAML/Scanner/Whitespace.html#L4YAML.Scanner.consumeNewline.match_1" xlink:title="consumeNewline.match_1\n(def)" target="_blank">
<polygon fill="#dce9f7" stroke="#4a90d9" points="986.97,-248.53 854.97,-248.53 854.97,-212.53 986.97,-212.53 986.97,-248.53"/>
<text text-anchor="middle" x="920.97" y="-233.53" font-family="Helvetica" font-size="10.00">consumeNewline.match_1</text>
<text text-anchor="middle" x="920.97" y="-222.53" font-family="Helvetica" font-size="10.00">(def)</text>
</a>
</g>
</g>
<!-- L4YAML.Proofs.ScannerPlainScalarValid.consumeNewline_preserves_flowLevel -->
<g id="node7" class="node">
<title>L4YAML.Proofs.ScannerPlainScalarValid.consumeNewline_preserves_flowLevel</title>
<g id="a_node7"><a xlink:href="../../../api/L4YAML/Proofs/Production/ScannerPlainScalarValid.html#L4YAML.Proofs.ScannerPlainScalarValid.consumeNewline_preserves_flowLevel" xlink:title="ScannerPlainScalarValid.consumeNewline_preserves_flowLevel" target="_blank">
<polygon fill="#fff3cd" stroke="#d4a017" points="1163.54,-309.07 1163.54,-323.99 1021.45,-334.53 820.5,-334.53 678.4,-323.99 678.4,-309.07 820.5,-298.53 1021.45,-298.53 1163.54,-309.07"/>
<polygon fill="none" stroke="#d4a017" points="1167.54,-305.36 1167.54,-327.7 1021.6,-338.53 820.35,-338.53 674.4,-327.7 674.4,-305.36 820.35,-294.53 1021.6,-294.53 1167.54,-305.36"/>
<text text-anchor="middle" x="920.97" y="-313.43" font-family="Helvetica" font-size="12.00">ScannerPlainScalarValid.consumeNewline_preserves_flowLevel</text>
</a>
</g>
</g>
<!-- L4YAML.Proofs.ScannerPlainScalarValid.consumeNewline_preserves_flowLevel&#45;&gt;L4YAML.Scanner.consumeNewline -->
<g id="edge3" class="edge">
<title>L4YAML.Proofs.ScannerPlainScalarValid.consumeNewline_preserves_flowLevel&#45;&gt;L4YAML.Scanner.consumeNewline</title>
<path fill="none" stroke="#4a90d9" stroke-width="2" d="M1097.32,-300.08C1123.8,-295.57 1150.57,-289.83 1175.51,-282.53 1200.77,-275.13 1227.55,-262.81 1248.54,-252.01"/>
<polygon fill="#4a90d9" stroke="#4a90d9" stroke-width="2" points="1249.78,-254.12 1254.85,-248.72 1247.51,-249.78 1249.78,-254.12"/>
<text text-anchor="middle" x="1198.01" y="-280.13" font-family="Times-Roman" font-size="8.00" fill="#4a90d9">about</text>
</g>
<!-- L4YAML.Proofs.ScannerPlainScalarValid.consumeNewline_preserves_flowLevel&#45;&gt;L4YAML.Scanner.ScannerState.flowLevel -->
<g id="edge2" class="edge">
<title>L4YAML.Proofs.ScannerPlainScalarValid.consumeNewline_preserves_flowLevel&#45;&gt;L4YAML.Scanner.ScannerState.flowLevel</title>
<path fill="none" stroke="#4a90d9" stroke-width="2" d="M1132.76,-302.74C1147.78,-297.44 1162.22,-290.8 1175.51,-282.53 1211.41,-260.19 1196.34,-230.97 1228.51,-203.53 1230.54,-201.8 1232.71,-200.15 1234.96,-198.59"/>
<polygon fill="#4a90d9" stroke="#4a90d9" stroke-width="2" points="1236.52,-200.5 1241.1,-194.66 1233.88,-196.37 1236.52,-200.5"/>
<text text-anchor="middle" x="1198.01" y="-276.13" font-family="Times-Roman" font-size="8.00" fill="#4a90d9">about</text>
</g>
<!-- L4YAML.Proofs.ScannerPlainScalarValid.consumeNewline_preserves_flowLevel&#45;&gt;L4YAML.Scanner.ScannerState -->
<g id="edge1" class="edge">
<title>L4YAML.Proofs.ScannerPlainScalarValid.consumeNewline_preserves_flowLevel&#45;&gt;L4YAML.Scanner.ScannerState</title>
<path fill="none" stroke="#4a90d9" stroke-width="2" d="M1141.13,-303.27C1153.37,-297.69 1164.96,-290.86 1175.51,-282.53 1185.22,-274.86 1180.98,-268.05 1185.51,-256.53 1194.89,-232.68 1210.85,-168.1 1228.51,-149.53 1232.77,-145.04 1237.93,-141.24 1243.39,-138.02"/>
<polygon fill="#4a90d9" stroke="#4a90d9" stroke-width="2" points="1244.9,-139.99 1249.91,-134.52 1242.58,-135.68 1244.9,-139.99"/>
<text text-anchor="middle" x="1198.01" y="-259.13" font-family="Times-Roman" font-size="8.00" fill="#4a90d9">about</text>
</g>
<!-- L4YAML.Proofs.ScannerCorrectness.advance_preserves_flowLevel -->
<g id="node8" class="node">
<title>L4YAML.Proofs.ScannerCorrectness.advance_preserves_flowLevel</title>
<g id="a_node8"><a xlink:href="../../../api/L4YAML/Proofs/Scanner/ScannerCorrectness.html#L4YAML.Proofs.ScannerCorrectness.advance_preserves_flowLevel" xlink:title="ScannerCorrectness.advance_preserves_flowLevel\n(Scanner.ScannerCorrectness)" target="_blank">
<ellipse fill="#d4edda" stroke="#28a745" cx="316.22" cy="-61.53" rx="169" ry="21.43"/>
<text text-anchor="middle" x="316.22" y="-64.53" font-family="Helvetica" font-size="10.00">ScannerCorrectness.advance_preserves_flowLevel</text>
<text text-anchor="middle" x="316.22" y="-53.53" font-family="Helvetica" font-size="10.00">(Scanner.ScannerCorrectness)</text>
</a>
</g>
</g>
<!-- L4YAML.Proofs.ScannerCorrectness.advance_preserves_flowLevel&#45;&gt;L4YAML.Scanner.ScannerState.advance -->
<g id="edge16" class="edge">
<title>L4YAML.Proofs.ScannerCorrectness.advance_preserves_flowLevel&#45;&gt;L4YAML.Scanner.ScannerState.advance</title>
<path fill="none" stroke="#6f42c1" stroke-width="2" stroke-dasharray="5,2" d="M448.38,-74.8C575.28,-87.65 762.1,-106.55 858.07,-116.27"/>
<polygon fill="#6f42c1" stroke="#6f42c1" stroke-width="2" points="857.98,-118.02 863.13,-116.78 858.33,-114.53 857.98,-118.02"/>
<text text-anchor="middle" x="645.44" y="-97.93" font-family="Times-Roman" font-size="7.00" fill="#6f42c1">about</text>
</g>
<!-- L4YAML.Proofs.ScannerCorrectness.advance_preserves_flowLevel&#45;&gt;L4YAML.Scanner.ScannerState.flowLevel -->
<g id="edge18" class="edge">
<title>L4YAML.Proofs.ScannerCorrectness.advance_preserves_flowLevel&#45;&gt;L4YAML.Scanner.ScannerState.flowLevel</title>
<path fill="none" stroke="#6f42c1" stroke-width="2" stroke-dasharray="5,2" d="M466.37,-51.76C678.3,-40.28 1054.35,-29.47 1175.51,-87.53 1208.2,-103.2 1199.6,-127.65 1228.51,-149.53 1231.45,-151.76 1234.61,-153.86 1237.87,-155.83"/>
<polygon fill="#6f42c1" stroke="#6f42c1" stroke-width="2" points="1237.18,-157.45 1242.38,-158.44 1238.93,-154.42 1237.18,-157.45"/>
<text text-anchor="middle" x="920.97" y="-89.93" font-family="Times-Roman" font-size="7.00" fill="#6f42c1">about</text>
</g>
<!-- L4YAML.Proofs.ScannerCorrectness.advance_preserves_flowLevel&#45;&gt;L4YAML.Scanner.ScannerState -->
<g id="edge17" class="edge">
<title>L4YAML.Proofs.ScannerCorrectness.advance_preserves_flowLevel&#45;&gt;L4YAML.Scanner.ScannerState</title>
<path fill="none" stroke="#6f42c1" stroke-width="2" stroke-dasharray="5,2" d="M407.17,-43.61C564.89,-15.41 900.68,30.31 1175.51,-29.53 1216.72,-38.5 1251.69,-75.48 1270.97,-100.01"/>
<polygon fill="#6f42c1" stroke="#6f42c1" stroke-width="2" points="1269.72,-101.25 1274.16,-104.14 1272.49,-99.11 1269.72,-101.25"/>
<text text-anchor="middle" x="920.97" y="-31.93" font-family="Times-Roman" font-size="7.00" fill="#6f42c1">about</text>
</g>
<!-- L4YAML.Proofs.ScannerCorrectness.advance_preserves_flowLevel&#45;&gt;L4YAML.Proofs.ScannerPlainScalarValid.consumeNewline_preserves_flowLevel -->
<g id="edge4" class="edge">
<title>L4YAML.Proofs.ScannerCorrectness.advance_preserves_flowLevel&#45;&gt;L4YAML.Proofs.ScannerPlainScalarValid.consumeNewline_preserves_flowLevel</title>
<path fill="none" stroke="#28a745" d="M482.87,-65.06C532.32,-73.05 584.05,-89.03 624.44,-119.53 630.78,-124.32 654.22,-175.89 656.44,-183.53 662.59,-204.77 651.06,-266.64 666.44,-282.53 672.77,-289.07 679.72,-294.79 687.14,-299.76"/>
<polygon fill="#28a745" stroke="#28a745" points="686.25,-302.1 693.48,-303.77 688.87,-297.96 686.25,-302.1"/>
</g>
<!-- _private.L4YAML.Proofs.Production.ScannerPlainScalarValid.0.L4YAML.Scanner.consumeNewline.match_1.eq_1 -->
<g id="node9" class="node">
<title>_private.L4YAML.Proofs.Production.ScannerPlainScalarValid.0.L4YAML.Scanner.consumeNewline.match_1.eq_1</title>
<g id="a_node9"><a xlink:href="../../../api/L4YAML/Proofs/Production/ScannerPlainScalarValid.html#_private.L4YAML.Proofs.Production.ScannerPlainScalarValid.0.L4YAML.Scanner.consumeNewline.match_1.eq_1" xlink:title="_private.L4YAML.Proofs.Production.ScannerPlainScalarValid.0.L4YAML.Scanner.consumeNewline.match_1.eq_1" target="_blank">
<ellipse fill="#fdebd0" stroke="#e67e22" cx="316.22" cy="-365.53" rx="300.44" ry="18"/>
<text text-anchor="middle" x="316.22" y="-363.03" font-family="Helvetica" font-size="10.00">_private.L4YAML.Proofs.Production.ScannerPlainScalarValid.0.L4YAML.Scanner.consumeNewline.match_1.eq_1</text>
</a>
</g>
</g>
<!-- _private.L4YAML.Proofs.Production.ScannerPlainScalarValid.0.L4YAML.Scanner.consumeNewline.match_1.eq_1&#45;&gt;L4YAML.Scanner.consumeNewline.match_1 -->
<g id="edge12" class="edge">
<title>_private.L4YAML.Proofs.Production.ScannerPlainScalarValid.0.L4YAML.Scanner.consumeNewline.match_1.eq_1&#45;&gt;L4YAML.Scanner.consumeNewline.match_1</title>
<path fill="none" stroke="#6f42c1" stroke-width="2" stroke-dasharray="5,2" d="M582.26,-357.03C596.93,-352.05 611.1,-345.95 624.44,-338.53 631.23,-334.75 659.87,-286.69 666.44,-282.53 721.59,-247.58 795.82,-235.56 849.7,-231.69"/>
<polygon fill="#6f42c1" stroke="#6f42c1" stroke-width="2" points="849.98,-233.42 854.85,-231.34 849.74,-229.93 849.98,-233.42"/>
<text text-anchor="middle" x="645.44" y="-327.93" font-family="Times-Roman" font-size="7.00" fill="#6f42c1">about</text>
</g>
<!-- _private.L4YAML.Proofs.Production.ScannerPlainScalarValid.0.L4YAML.Scanner.consumeNewline.match_1.eq_1&#45;&gt;L4YAML.Proofs.ScannerPlainScalarValid.consumeNewline_preserves_flowLevel -->
<g id="edge5" class="edge">
<title>_private.L4YAML.Proofs.Production.ScannerPlainScalarValid.0.L4YAML.Scanner.consumeNewline.match_1.eq_1&#45;&gt;L4YAML.Proofs.ScannerPlainScalarValid.consumeNewline_preserves_flowLevel</title>
<path fill="none" stroke="#e67e22" stroke-width="2" d="M546.54,-377.09C583.35,-376.78 620.99,-375.19 656.44,-371.53 714.6,-365.53 778.86,-352.25 829.36,-340.25"/>
<polygon fill="#e67e22" stroke="#e67e22" stroke-width="2" points="830.16,-342.58 836.4,-338.57 829.02,-337.81 830.16,-342.58"/>
</g>
<!-- _private.L4YAML.Proofs.Production.ScannerPlainScalarValid.0.L4YAML.Scanner.consumeNewline.match_3.eq_1 -->
<g id="node10" class="node">
<title>_private.L4YAML.Proofs.Production.ScannerPlainScalarValid.0.L4YAML.Scanner.consumeNewline.match_3.eq_1</title>
<g id="a_node10"><a xlink:href="../../../api/L4YAML/Proofs/Production/ScannerPlainScalarValid.html#_private.L4YAML.Proofs.Production.ScannerPlainScalarValid.0.L4YAML.Scanner.consumeNewline.match_3.eq_1" xlink:title="_private.L4YAML.Proofs.Production.ScannerPlainScalarValid.0.L4YAML.Scanner.consumeNewline.match_3.eq_1" target="_blank">
<ellipse fill="#fdebd0" stroke="#e67e22" cx="316.22" cy="-257.53" rx="300.44" ry="18"/>
<text text-anchor="middle" x="316.22" y="-255.03" font-family="Helvetica" font-size="10.00">_private.L4YAML.Proofs.Production.ScannerPlainScalarValid.0.L4YAML.Scanner.consumeNewline.match_3.eq_1</text>
</a>
</g>
</g>
<!-- _private.L4YAML.Proofs.Production.ScannerPlainScalarValid.0.L4YAML.Scanner.consumeNewline.match_3.eq_1&#45;&gt;L4YAML.Scanner.consumeNewline.match_3 -->
<g id="edge15" class="edge">
<title>_private.L4YAML.Proofs.Production.ScannerPlainScalarValid.0.L4YAML.Scanner.consumeNewline.match_3.eq_1&#45;&gt;L4YAML.Scanner.consumeNewline.match_3</title>
<path fill="none" stroke="#6f42c1" stroke-width="2" stroke-dasharray="5,2" d="M561,-247.1C582.74,-242.88 604.17,-237.46 624.44,-230.53 645.43,-223.35 645.51,-210.9 666.44,-203.53 725.87,-182.59 797.61,-176.59 849.58,-175.39"/>
<polygon fill="#6f42c1" stroke="#6f42c1" stroke-width="2" points="849.9,-177.13 854.87,-175.28 849.83,-173.63 849.9,-177.13"/>
<text text-anchor="middle" x="645.44" y="-227.93" font-family="Times-Roman" font-size="7.00" fill="#6f42c1">about</text>
</g>
<!-- _private.L4YAML.Proofs.Production.ScannerPlainScalarValid.0.L4YAML.Scanner.consumeNewline.match_3.eq_1&#45;&gt;L4YAML.Proofs.ScannerPlainScalarValid.consumeNewline_preserves_flowLevel -->
<g id="edge6" class="edge">
<title>_private.L4YAML.Proofs.Production.ScannerPlainScalarValid.0.L4YAML.Scanner.consumeNewline.match_3.eq_1&#45;&gt;L4YAML.Proofs.ScannerPlainScalarValid.consumeNewline_preserves_flowLevel</title>
<path fill="none" stroke="#e67e22" stroke-width="2" d="M585.32,-265.56C598.97,-270.71 612.11,-276.98 624.44,-284.53 631.59,-288.91 627.22,-296.26 634.44,-300.53 644.89,-306.71 655.94,-311.86 667.4,-316.11"/>
<polygon fill="#e67e22" stroke="#e67e22" stroke-width="2" points="666.77,-318.48 674.19,-318.51 668.41,-313.87 666.77,-318.48"/>
</g>
<!-- _private.L4YAML.Proofs.Production.ScannerPlainScalarValid.0.L4YAML.Scanner.consumeNewline.match_1.eq_2 -->
<g id="node11" class="node">
<title>_private.L4YAML.Proofs.Production.ScannerPlainScalarValid.0.L4YAML.Scanner.consumeNewline.match_1.eq_2</title>
<g id="a_node11"><a xlink:href="../../../api/L4YAML/Proofs/Production/ScannerPlainScalarValid.html#_private.L4YAML.Proofs.Production.ScannerPlainScalarValid.0.L4YAML.Scanner.consumeNewline.match_1.eq_2" xlink:title="_private.L4YAML.Proofs.Production.ScannerPlainScalarValid.0.L4YAML.Scanner.consumeNewline.match_1.eq_2" target="_blank">
<ellipse fill="#fdebd0" stroke="#e67e22" cx="316.22" cy="-311.53" rx="300.44" ry="18"/>
<text text-anchor="middle" x="316.22" y="-309.03" font-family="Helvetica" font-size="10.00">_private.L4YAML.Proofs.Production.ScannerPlainScalarValid.0.L4YAML.Scanner.consumeNewline.match_1.eq_2</text>
</a>
</g>
</g>
<!-- _private.L4YAML.Proofs.Production.ScannerPlainScalarValid.0.L4YAML.Scanner.consumeNewline.match_1.eq_2&#45;&gt;L4YAML.Scanner.consumeNewline.match_1 -->
<g id="edge19" class="edge">
<title>_private.L4YAML.Proofs.Production.ScannerPlainScalarValid.0.L4YAML.Scanner.consumeNewline.match_1.eq_2&#45;&gt;L4YAML.Scanner.consumeNewline.match_1</title>
<path fill="none" stroke="#6f42c1" stroke-width="2" stroke-dasharray="5,2" d="M507.22,-297.62C546.07,-293.99 586.63,-289.63 624.44,-284.53 701.99,-274.06 790.15,-257.32 849.84,-245.25"/>
<polygon fill="#6f42c1" stroke="#6f42c1" stroke-width="2" points="850.26,-246.95 854.81,-244.24 849.56,-243.52 850.26,-246.95"/>
<text text-anchor="middle" x="645.44" y="-283.93" font-family="Times-Roman" font-size="7.00" fill="#6f42c1">about</text>
</g>
<!-- _private.L4YAML.Proofs.Production.ScannerPlainScalarValid.0.L4YAML.Scanner.consumeNewline.match_1.eq_2&#45;&gt;L4YAML.Proofs.ScannerPlainScalarValid.consumeNewline_preserves_flowLevel -->
<g id="edge7" class="edge">
<title>_private.L4YAML.Proofs.Production.ScannerPlainScalarValid.0.L4YAML.Scanner.consumeNewline.match_1.eq_2&#45;&gt;L4YAML.Proofs.ScannerPlainScalarValid.consumeNewline_preserves_flowLevel</title>
<path fill="none" stroke="#e67e22" stroke-width="2" d="M587.3,-319.4C600.28,-324.63 612.76,-330.95 624.44,-338.53 632.11,-343.51 626.55,-351.89 634.44,-356.53 642.86,-361.49 646.69,-357.27 656.44,-356.53 703.41,-352.99 754.7,-345.93 799.45,-338.73"/>
<polygon fill="#e67e22" stroke="#e67e22" stroke-width="2" points="800.06,-341.11 806.57,-337.57 799.27,-336.27 800.06,-341.11"/>
</g>
<!-- eq_self -->
<g id="node12" class="node">
<title>eq_self</title>
<g id="a_node12"><a xlink:href="../../../api/Init/SimpLemmas.html#eq_self" xlink:title="eq_self" target="_blank">
<ellipse fill="#fdebd0" stroke="#e67e22" cx="316.22" cy="-473.53" rx="28.01" ry="18"/>
<text text-anchor="middle" x="316.22" y="-471.03" font-family="Helvetica" font-size="10.00">eq_self</text>
</a>
</g>
</g>
<!-- eq_self&#45;&gt;L4YAML.Proofs.ScannerPlainScalarValid.consumeNewline_preserves_flowLevel -->
<g id="edge8" class="edge">
<title>eq_self&#45;&gt;L4YAML.Proofs.ScannerPlainScalarValid.consumeNewline_preserves_flowLevel</title>
<path fill="none" stroke="#e67e22" stroke-width="2" d="M344.84,-474.09C399.27,-474.53 523.82,-472.33 624.44,-446.53 717.24,-422.73 817.85,-372.77 874.49,-342.18"/>
<polygon fill="#e67e22" stroke="#e67e22" stroke-width="2" points="875.85,-344.23 880.83,-338.73 873.51,-339.92 875.85,-344.23"/>
</g>
<!-- of_eq_true -->
<g id="node13" class="node">
<title>of_eq_true</title>
<g id="a_node13"><a xlink:href="../../../api/Init/SimpLemmas.html#of_eq_true" xlink:title="of_eq_true" target="_blank">
<ellipse fill="#fdebd0" stroke="#e67e22" cx="316.22" cy="-419.53" rx="36.49" ry="18"/>
<text text-anchor="middle" x="316.22" y="-417.03" font-family="Helvetica" font-size="10.00">of_eq_true</text>
</a>
</g>
</g>
<!-- of_eq_true&#45;&gt;L4YAML.Proofs.ScannerPlainScalarValid.consumeNewline_preserves_flowLevel -->
<g id="edge9" class="edge">
<title>of_eq_true&#45;&gt;L4YAML.Proofs.ScannerPlainScalarValid.consumeNewline_preserves_flowLevel</title>
<path fill="none" stroke="#e67e22" stroke-width="2" d="M352.91,-419.12C415.31,-417.7 547.95,-411.59 656.44,-385.53 715.3,-371.39 781.19,-354.14 832.36,-340.43"/>
<polygon fill="#e67e22" stroke="#e67e22" stroke-width="2" points="833.03,-342.78 839.16,-338.6 831.76,-338.05 833.03,-342.78"/>
</g>
<!-- _private.L4YAML.Proofs.Production.ScannerPlainScalarValid.0.L4YAML.Scanner.consumeNewline.match_3.eq_3 -->
<g id="node14" class="node">
<title>_private.L4YAML.Proofs.Production.ScannerPlainScalarValid.0.L4YAML.Scanner.consumeNewline.match_3.eq_3</title>
<g id="a_node14"><a xlink:href="../../../api/L4YAML/Proofs/Production/ScannerPlainScalarValid.html#_private.L4YAML.Proofs.Production.ScannerPlainScalarValid.0.L4YAML.Scanner.consumeNewline.match_3.eq_3" xlink:title="_private.L4YAML.Proofs.Production.ScannerPlainScalarValid.0.L4YAML.Scanner.consumeNewline.match_3.eq_3" target="_blank">
<ellipse fill="#fdebd0" stroke="#e67e22" cx="316.22" cy="-149.53" rx="300.44" ry="18"/>
<text text-anchor="middle" x="316.22" y="-147.03" font-family="Helvetica" font-size="10.00">_private.L4YAML.Proofs.Production.ScannerPlainScalarValid.0.L4YAML.Scanner.consumeNewline.match_3.eq_3</text>
</a>
</g>
</g>
<!-- _private.L4YAML.Proofs.Production.ScannerPlainScalarValid.0.L4YAML.Scanner.consumeNewline.match_3.eq_3&#45;&gt;L4YAML.Scanner.consumeNewline.match_3 -->
<g id="edge14" class="edge">
<title>_private.L4YAML.Proofs.Production.ScannerPlainScalarValid.0.L4YAML.Scanner.consumeNewline.match_3.eq_3&#45;&gt;L4YAML.Scanner.consumeNewline.match_3</title>
<path fill="none" stroke="#6f42c1" stroke-width="2" stroke-dasharray="5,2" d="M557.17,-160.28C662.33,-164.99 777.91,-170.17 849.71,-173.38"/>
<polygon fill="#6f42c1" stroke="#6f42c1" stroke-width="2" points="849.73,-175.14 854.8,-173.61 849.89,-171.64 849.73,-175.14"/>
<text text-anchor="middle" x="645.44" y="-166.93" font-family="Times-Roman" font-size="7.00" fill="#6f42c1">about</text>
</g>
<!-- _private.L4YAML.Proofs.Production.ScannerPlainScalarValid.0.L4YAML.Scanner.consumeNewline.match_3.eq_3&#45;&gt;L4YAML.Proofs.ScannerPlainScalarValid.consumeNewline_preserves_flowLevel -->
<g id="edge10" class="edge">
<title>_private.L4YAML.Proofs.Production.ScannerPlainScalarValid.0.L4YAML.Scanner.consumeNewline.match_3.eq_3&#45;&gt;L4YAML.Proofs.ScannerPlainScalarValid.consumeNewline_preserves_flowLevel</title>
<path fill="none" stroke="#e67e22" stroke-width="2" d="M580.83,-158.15C595.97,-163.08 610.63,-169.13 624.44,-176.53 625.06,-176.87 656.15,-215.88 656.44,-216.53 668.33,-243.71 645.28,-261.73 666.44,-282.53 673.25,-289.23 680.71,-295.04 688.66,-300.07"/>
<polygon fill="#e67e22" stroke="#e67e22" stroke-width="2" points="687.56,-302.27 694.83,-303.76 690.08,-298.07 687.56,-302.27"/>
</g>
<!-- _private.L4YAML.Proofs.Production.ScannerPlainScalarValid.0.L4YAML.Scanner.consumeNewline.match_3.eq_2 -->
<g id="node15" class="node">
<title>_private.L4YAML.Proofs.Production.ScannerPlainScalarValid.0.L4YAML.Scanner.consumeNewline.match_3.eq_2</title>
<g id="a_node15"><a xlink:href="../../../api/L4YAML/Proofs/Production/ScannerPlainScalarValid.html#_private.L4YAML.Proofs.Production.ScannerPlainScalarValid.0.L4YAML.Scanner.consumeNewline.match_3.eq_2" xlink:title="_private.L4YAML.Proofs.Production.ScannerPlainScalarValid.0.L4YAML.Scanner.consumeNewline.match_3.eq_2" target="_blank">
<ellipse fill="#fdebd0" stroke="#e67e22" cx="316.22" cy="-203.53" rx="300.44" ry="18"/>
<text text-anchor="middle" x="316.22" y="-201.03" font-family="Helvetica" font-size="10.00">_private.L4YAML.Proofs.Production.ScannerPlainScalarValid.0.L4YAML.Scanner.consumeNewline.match_3.eq_2</text>
</a>
</g>
</g>
<!-- _private.L4YAML.Proofs.Production.ScannerPlainScalarValid.0.L4YAML.Scanner.consumeNewline.match_3.eq_2&#45;&gt;L4YAML.Scanner.consumeNewline.match_3 -->
<g id="edge13" class="edge">
<title>_private.L4YAML.Proofs.Production.ScannerPlainScalarValid.0.L4YAML.Scanner.consumeNewline.match_3.eq_2&#45;&gt;L4YAML.Scanner.consumeNewline.match_3</title>
<path fill="none" stroke="#6f42c1" stroke-width="2" stroke-dasharray="5,2" d="M557.17,-192.78C662.33,-188.07 777.91,-182.89 849.71,-179.68"/>
<polygon fill="#6f42c1" stroke="#6f42c1" stroke-width="2" points="849.89,-181.42 854.8,-179.45 849.73,-177.93 849.89,-181.42"/>
<text text-anchor="middle" x="645.44" y="-190.93" font-family="Times-Roman" font-size="7.00" fill="#6f42c1">about</text>
</g>
<!-- _private.L4YAML.Proofs.Production.ScannerPlainScalarValid.0.L4YAML.Scanner.consumeNewline.match_3.eq_2&#45;&gt;L4YAML.Proofs.ScannerPlainScalarValid.consumeNewline_preserves_flowLevel -->
<g id="edge11" class="edge">
<title>_private.L4YAML.Proofs.Production.ScannerPlainScalarValid.0.L4YAML.Scanner.consumeNewline.match_3.eq_2&#45;&gt;L4YAML.Proofs.ScannerPlainScalarValid.consumeNewline_preserves_flowLevel</title>
<path fill="none" stroke="#e67e22" stroke-width="2" d="M580.4,-212.1C595.69,-217.03 610.5,-223.1 624.44,-230.53 650.66,-244.5 640.54,-267.97 666.44,-282.53 678.99,-289.59 692.44,-295.41 706.35,-300.19"/>
<polygon fill="#e67e22" stroke="#e67e22" stroke-width="2" points="705.8,-302.59 713.21,-302.45 707.33,-297.93 705.8,-302.59"/>
</g>
</g>
</svg>
