<?xml version="1.0" encoding="UTF-8" standalone="no"?>
<!DOCTYPE svg PUBLIC "-//W3C//DTD SVG 1.1//EN"
 "http://www.w3.org/Graphics/SVG/1.1/DTD/svg11.dtd">
<!-- Generated by graphviz version 2.44.0 (0)
 -->
<!-- Title: chain_ScannerPlainScalarValid.fpsv_of_not_plain Pages: 1 -->
<svg width="4328pt" height="230pt"
 viewBox="0.00 0.00 4328.37 229.96" xmlns="http://www.w3.org/2000/svg" xmlns:xlink="http://www.w3.org/1999/xlink">
<g id="graph0" class="graph" transform="scale(1 1) rotate(0) translate(4 225.96)">
<title>chain_ScannerPlainScalarValid.fpsv_of_not_plain</title>
<polygon fill="white" stroke="transparent" points="-4,4 -4,-225.96 4324.37,-225.96 4324.37,4 -4,4"/>
<text text-anchor="middle" x="2160.18" y="-207.56" font-family="Helvetica Bold" font-size="13.00">Functorial bridge: ScannerPlainScalarValid.fpsv_of_not_plain\nProp&#45;wrapped — proof has no project theorem citations\n(heuristic: used by 13 proofs)</text>
<g id="clust1" class="cluster">
<title>cluster_direct</title>
<polygon fill="none" stroke="#4a90d9" stroke-dasharray="5,2" points="981.37,-8 981.37,-82 1947.37,-82 1947.37,-8 981.37,-8"/>
<text text-anchor="middle" x="1464.37" y="-67.6" font-family="Helvetica Bold" font-size="13.00" fill="#4a90d9">About (direct — mentioned in type)</text>
</g>
<g id="clust2" class="cluster">
<title>cluster_extra</title>
<polygon fill="none" stroke="#e67e22" stroke-dasharray="5,2" points="35.37,-8 35.37,-82 217.37,-82 217.37,-8 35.37,-8"/>
<text text-anchor="middle" x="126.37" y="-67.6" font-family="Helvetica Bold" font-size="13.00" fill="#e67e22">About (via Prop&#45;unfold)</text>
</g>
<g id="clust3" class="cluster">
<title>cluster_coverage</title>
<polygon fill="none" stroke="#28a745" stroke-dasharray="5,2" points="328.37,-117.96 328.37,-191.96 4312.37,-191.96 4312.37,-117.96 328.37,-117.96"/>
<text text-anchor="middle" x="2320.37" y="-177.56" font-family="Helvetica Bold" font-size="13.00" fill="#28a745">Catalogue coverage &#160;(NOT proof deps of the headline)</text>
</g>
<!-- L4YAML.Proofs.ScannerPlainScalarValid.fpsv_of_not_plain -->
<g id="node1" class="node">
<title>L4YAML.Proofs.ScannerPlainScalarValid.fpsv_of_not_plain</title>
<polygon fill="#fff3cd" stroke="#d4a017" points="314.61,-134.46 314.61,-153.46 223.67,-166.89 95.07,-166.89 4.13,-153.46 4.13,-134.46 95.07,-121.03 223.67,-121.03 314.61,-134.46"/>
<polygon fill="none" stroke="#d4a017" points="318.61,-131.02 318.61,-156.91 223.97,-170.88 94.77,-170.88 0.13,-156.91 0.13,-131.02 94.77,-117.04 223.97,-117.04 318.61,-131.02"/>
<text text-anchor="middle" x="159.37" y="-146.96" font-family="Helvetica" font-size="10.00">ScannerPlainScalarValid.fpsv_of_not_plain</text>
<text text-anchor="middle" x="159.37" y="-135.96" font-family="Helvetica" font-size="10.00">(Prop bridge)</text>
</g>
<!-- L4YAML.BlockScalarMeta -->
<g id="node2" class="node">
<title>L4YAML.BlockScalarMeta</title>
<g id="a_node2"><a xlink:href="../../../api/L4YAML/Spec/Types.html#L4YAML.BlockScalarMeta" xlink:title="BlockScalarMeta" target="_blank">
<polygon fill="#dce9f7" stroke="#4a90d9" points="1697.87,-52 1606.87,-52 1606.87,-16 1697.87,-16 1697.87,-52"/>
<text text-anchor="middle" x="1652.37" y="-31.5" font-family="Helvetica" font-size="10.00">BlockScalarMeta</text>
</a>
</g>
</g>
<!-- L4YAML.Proofs.ScannerPlainScalarValid.fpsv_of_not_plain&#45;&gt;L4YAML.BlockScalarMeta -->
<g id="edge1" class="edge">
<title>L4YAML.Proofs.ScannerPlainScalarValid.fpsv_of_not_plain&#45;&gt;L4YAML.BlockScalarMeta</title>
<path fill="none" stroke="#4a90d9" stroke-width="2" d="M276.77,-124.78C329.68,-116.12 385.92,-106.12 411.37,-99 421.94,-96.04 423.59,-92.07 434.37,-90 466.09,-83.9 1567.1,-93.29 1597.37,-82 1610.87,-76.96 1623.32,-67 1632.95,-57.54"/>
<polygon fill="#4a90d9" stroke="#4a90d9" stroke-width="2" points="1634.86,-59.09 1637.99,-52.36 1631.35,-55.66 1634.86,-59.09"/>
<text text-anchor="middle" x="446.87" y="-92.6" font-family="Times-Roman" font-size="8.00" fill="#4a90d9">about</text>
</g>
<!-- L4YAML.Positioned -->
<g id="node3" class="node">
<title>L4YAML.Positioned</title>
<g id="a_node3"><a xlink:href="../../../api/L4YAML/Token/Token.html#L4YAML.Positioned" xlink:title="Positioned" target="_blank">
<polygon fill="#dce9f7" stroke="#4a90d9" points="1939.37,-52 1877.37,-52 1877.37,-16 1939.37,-16 1939.37,-52"/>
<text text-anchor="middle" x="1908.37" y="-31.5" font-family="Helvetica" font-size="10.00">Positioned</text>
</a>
</g>
</g>
<!-- L4YAML.Proofs.ScannerPlainScalarValid.fpsv_of_not_plain&#45;&gt;L4YAML.Positioned -->
<g id="edge2" class="edge">
<title>L4YAML.Proofs.ScannerPlainScalarValid.fpsv_of_not_plain&#45;&gt;L4YAML.Positioned</title>
<path fill="none" stroke="#4a90d9" stroke-width="2" d="M271.93,-124.05C289.45,-121.45 307.38,-119 324.37,-117 426.64,-104.99 455.85,-125.48 555.37,-99 564.4,-96.6 565.26,-92.08 574.37,-90 609.41,-82.01 1835.79,-97.18 1868.37,-82 1879.21,-76.95 1888.19,-67.38 1894.89,-58.18"/>
<polygon fill="#4a90d9" stroke="#4a90d9" stroke-width="2" points="1897.02,-59.4 1898.95,-52.24 1892.97,-56.64 1897.02,-59.4"/>
<text text-anchor="middle" x="586.87" y="-92.6" font-family="Times-Roman" font-size="8.00" fill="#4a90d9">about</text>
</g>
<!-- L4YAML.Scalar.mk -->
<g id="node4" class="node">
<title>L4YAML.Scalar.mk</title>
<g id="a_node4"><a xlink:href="../../../api/L4YAML/Spec/Types.html#L4YAML.Scalar.mk" xlink:title="Scalar.mk" target="_blank">
<polygon fill="#dce9f7" stroke="#4a90d9" points="1776.87,-52 1715.87,-52 1715.87,-16 1776.87,-16 1776.87,-52"/>
<text text-anchor="middle" x="1746.37" y="-31.5" font-family="Helvetica" font-size="10.00">Scalar.mk</text>
</a>
</g>
</g>
<!-- L4YAML.Proofs.ScannerPlainScalarValid.fpsv_of_not_plain&#45;&gt;L4YAML.Scalar.mk -->
<g id="edge3" class="edge">
<title>L4YAML.Proofs.ScannerPlainScalarValid.fpsv_of_not_plain&#45;&gt;L4YAML.Scalar.mk</title>
<path fill="none" stroke="#4a90d9" stroke-width="2" d="M274.71,-124.46C291.36,-121.89 308.3,-119.34 324.37,-117 384.27,-108.3 400.76,-114.14 459.37,-99 470,-96.25 471.59,-92.07 482.37,-90 515.79,-83.58 1676.62,-96.57 1707.37,-82 1718.06,-76.94 1726.84,-67.36 1733.34,-58.17"/>
<polygon fill="#4a90d9" stroke="#4a90d9" stroke-width="2" points="1735.45,-59.42 1737.29,-52.23 1731.37,-56.71 1735.45,-59.42"/>
<text text-anchor="middle" x="494.87" y="-92.6" font-family="Times-Roman" font-size="8.00" fill="#4a90d9">about</text>
</g>
<!-- L4YAML.Positioned.val -->
<g id="node5" class="node">
<title>L4YAML.Positioned.val</title>
<g id="a_node5"><a xlink:href="../../../api/L4YAML/Token/Token.html#L4YAML.Positioned.val" xlink:title="Positioned.val" target="_blank">
<polygon fill="#dce9f7" stroke="#4a90d9" points="1066.87,-52 989.87,-52 989.87,-16 1066.87,-16 1066.87,-52"/>
<text text-anchor="middle" x="1028.37" y="-31.5" font-family="Helvetica" font-size="10.00">Positioned.val</text>
</a>
</g>
</g>
<!-- L4YAML.Proofs.ScannerPlainScalarValid.fpsv_of_not_plain&#45;&gt;L4YAML.Positioned.val -->
<g id="edge4" class="edge">
<title>L4YAML.Proofs.ScannerPlainScalarValid.fpsv_of_not_plain&#45;&gt;L4YAML.Positioned.val</title>
<path fill="none" stroke="#4a90d9" stroke-width="2" d="M191.75,-116.96C206.36,-106.7 224.35,-95.95 242.37,-90 381.13,-44.19 835.71,-36.53 982.33,-35.26"/>
<polygon fill="#4a90d9" stroke="#4a90d9" stroke-width="2" points="982.51,-37.7 989.49,-35.2 982.47,-32.81 982.51,-37.7"/>
<text text-anchor="middle" x="254.87" y="-92.6" font-family="Times-Roman" font-size="8.00" fill="#4a90d9">about</text>
</g>
<!-- L4YAML.YamlToken -->
<g id="node6" class="node">
<title>L4YAML.YamlToken</title>
<g id="a_node6"><a xlink:href="../../../api/L4YAML/Token/Token.html#L4YAML.YamlToken" xlink:title="YamlToken" target="_blank">
<polygon fill="#dce9f7" stroke="#4a90d9" points="1859.37,-52 1795.37,-52 1795.37,-16 1859.37,-16 1859.37,-52"/>
<text text-anchor="middle" x="1827.37" y="-31.5" font-family="Helvetica" font-size="10.00">YamlToken</text>
</a>
</g>
</g>
<!-- L4YAML.Proofs.ScannerPlainScalarValid.fpsv_of_not_plain&#45;&gt;L4YAML.YamlToken -->
<g id="edge5" class="edge">
<title>L4YAML.Proofs.ScannerPlainScalarValid.fpsv_of_not_plain&#45;&gt;L4YAML.YamlToken</title>
<path fill="none" stroke="#4a90d9" stroke-width="2" d="M272.86,-124.22C290.09,-121.63 307.69,-119.13 324.37,-117 405.44,-106.64 427.9,-118.07 507.37,-99 518.04,-96.44 519.59,-92.07 530.37,-90 564.63,-83.42 1754.65,-96.54 1786.37,-82 1797.35,-76.97 1806.55,-67.39 1813.43,-58.19"/>
<polygon fill="#4a90d9" stroke="#4a90d9" stroke-width="2" points="1815.58,-59.39 1817.61,-52.25 1811.58,-56.57 1815.58,-59.39"/>
<text text-anchor="middle" x="542.87" y="-92.6" font-family="Times-Roman" font-size="8.00" fill="#4a90d9">about</text>
</g>
<!-- L4YAML.Proofs.ScannerPlainScalarValid.PlainScalarsValid.match_1 -->
<g id="node7" class="node">
<title>L4YAML.Proofs.ScannerPlainScalarValid.PlainScalarsValid.match_1</title>
<g id="a_node7"><a xlink:href="../../../api/L4YAML/Proofs/Production/ScannerPlainScalarValid.html#L4YAML.Proofs.ScannerPlainScalarValid.PlainScalarsValid.match_1" xlink:title="ScannerPlainScalarValid.PlainScalarsValid.match_1" target="_blank">
<polygon fill="#dce9f7" stroke="#4a90d9" points="1327.87,-52 1084.87,-52 1084.87,-16 1327.87,-16 1327.87,-52"/>
<text text-anchor="middle" x="1206.37" y="-31.5" font-family="Helvetica" font-size="10.00">ScannerPlainScalarValid.PlainScalarsValid.match_1</text>
</a>
</g>
</g>
<!-- L4YAML.Proofs.ScannerPlainScalarValid.fpsv_of_not_plain&#45;&gt;L4YAML.Proofs.ScannerPlainScalarValid.PlainScalarsValid.match_1 -->
<g id="edge6" class="edge">
<title>L4YAML.Proofs.ScannerPlainScalarValid.fpsv_of_not_plain&#45;&gt;L4YAML.Proofs.ScannerPlainScalarValid.PlainScalarsValid.match_1</title>
<path fill="none" stroke="#4a90d9" stroke-width="2" d="M223.39,-116.93C256.14,-103.64 289.4,-90.19 290.37,-90 376.01,-72.89 990.42,-97.51 1076.37,-82 1106.29,-76.6 1138.43,-65.04 1163.27,-54.73"/>
<polygon fill="#4a90d9" stroke="#4a90d9" stroke-width="2" points="1164.24,-56.98 1169.75,-52 1162.34,-52.46 1164.24,-56.98"/>
<text text-anchor="middle" x="302.87" y="-92.6" font-family="Times-Roman" font-size="8.00" fill="#4a90d9">about</text>
</g>
<!-- L4YAML.Grammar.ScalarScannable -->
<g id="node8" class="node">
<title>L4YAML.Grammar.ScalarScannable</title>
<g id="a_node8"><a xlink:href="../../../api/L4YAML/Spec/Grammar.html#L4YAML.Grammar.ScalarScannable" xlink:title="Grammar.ScalarScannable\n(Prop&#45;typed)" target="_blank">
<polygon fill="#dce9f7" stroke="#4a90d9" points="1480.37,-52 1346.37,-52 1346.37,-16 1480.37,-16 1480.37,-52"/>
<text text-anchor="middle" x="1413.37" y="-37" font-family="Helvetica" font-size="10.00">Grammar.ScalarScannable</text>
<text text-anchor="middle" x="1413.37" y="-26" font-family="Helvetica" font-size="10.00">(Prop&#45;typed)</text>
</a>
</g>
</g>
<!-- L4YAML.Proofs.ScannerPlainScalarValid.fpsv_of_not_plain&#45;&gt;L4YAML.Grammar.ScalarScannable -->
<g id="edge7" class="edge">
<title>L4YAML.Proofs.ScannerPlainScalarValid.fpsv_of_not_plain&#45;&gt;L4YAML.Grammar.ScalarScannable</title>
<path fill="none" stroke="#4a90d9" stroke-width="2" d="M246.07,-120.16C268.76,-113.75 293.1,-106.48 315.37,-99 325.78,-95.51 327.59,-92.08 338.37,-90 392.87,-79.49 1284.04,-97.39 1337.37,-82 1355.24,-76.84 1373.04,-66.21 1386.91,-56.36"/>
<polygon fill="#4a90d9" stroke="#4a90d9" stroke-width="2" points="1388.4,-58.31 1392.61,-52.21 1385.51,-54.35 1388.4,-58.31"/>
<text text-anchor="middle" x="350.87" y="-92.6" font-family="Times-Roman" font-size="8.00" fill="#4a90d9">about</text>
</g>
<!-- L4YAML.ScalarStyle.plain -->
<g id="node9" class="node">
<title>L4YAML.ScalarStyle.plain</title>
<g id="a_node9"><a xlink:href="../../../api/L4YAML/Spec/Types.html#L4YAML.ScalarStyle.plain" xlink:title="ScalarStyle.plain" target="_blank">
<polygon fill="#dce9f7" stroke="#4a90d9" points="1588.37,-52 1498.37,-52 1498.37,-16 1588.37,-16 1588.37,-52"/>
<text text-anchor="middle" x="1543.37" y="-31.5" font-family="Helvetica" font-size="10.00">ScalarStyle.plain</text>
</a>
</g>
</g>
<!-- L4YAML.Proofs.ScannerPlainScalarValid.fpsv_of_not_plain&#45;&gt;L4YAML.ScalarStyle.plain -->
<g id="edge8" class="edge">
<title>L4YAML.Proofs.ScannerPlainScalarValid.fpsv_of_not_plain&#45;&gt;L4YAML.ScalarStyle.plain</title>
<path fill="none" stroke="#4a90d9" stroke-width="2" d="M266.34,-123.29C297.86,-116.59 332.24,-108.38 363.37,-99 373.88,-95.83 375.59,-92.07 386.37,-90 416.46,-84.21 1460.71,-92.84 1489.37,-82 1502.71,-76.95 1514.94,-66.99 1524.37,-57.53"/>
<polygon fill="#4a90d9" stroke="#4a90d9" stroke-width="2" points="1526.25,-59.11 1529.32,-52.36 1522.71,-55.72 1526.25,-59.11"/>
<text text-anchor="middle" x="398.87" y="-92.6" font-family="Times-Roman" font-size="8.00" fill="#4a90d9">about</text>
</g>
<!-- L4YAML.Scalar.content -->
<g id="node10" class="node">
<title>L4YAML.Scalar.content</title>
<g id="a_node10"><a xlink:href="../../../api/L4YAML/Spec/Types.html#L4YAML.Scalar.content" xlink:title="Scalar.content" target="_blank">
<polygon fill="#fdebd0" stroke="#e67e22" points="209.37,-52 129.37,-52 129.37,-16 209.37,-16 209.37,-52"/>
<text text-anchor="middle" x="169.37" y="-31.5" font-family="Helvetica" font-size="10.00">Scalar.content</text>
</a>
</g>
</g>
<!-- L4YAML.Proofs.ScannerPlainScalarValid.fpsv_of_not_plain&#45;&gt;L4YAML.Scalar.content -->
<g id="edge9" class="edge">
<title>L4YAML.Proofs.ScannerPlainScalarValid.fpsv_of_not_plain&#45;&gt;L4YAML.Scalar.content</title>
<path fill="none" stroke="#e67e22" stroke-width="2" stroke-dasharray="5,2" d="M159.12,-116.79C159.24,-108.24 159.58,-98.7 160.37,-90 161.29,-79.86 162.97,-68.77 164.64,-59.22"/>
<polygon fill="#e67e22" stroke="#e67e22" stroke-width="2" points="167.06,-59.58 165.89,-52.26 162.24,-58.71 167.06,-59.58"/>
<text text-anchor="middle" x="189.87" y="-92.6" font-family="Times-Roman" font-size="8.00" fill="#e67e22">about (unfold)</text>
</g>
<!-- L4YAML.Scalar.style -->
<g id="node11" class="node">
<title>L4YAML.Scalar.style</title>
<g id="a_node11"><a xlink:href="../../../api/L4YAML/Spec/Types.html#L4YAML.Scalar.style" xlink:title="Scalar.style" target="_blank">
<polygon fill="#fdebd0" stroke="#e67e22" points="111.37,-52 43.37,-52 43.37,-16 111.37,-16 111.37,-52"/>
<text text-anchor="middle" x="77.37" y="-31.5" font-family="Helvetica" font-size="10.00">Scalar.style</text>
</a>
</g>
</g>
<!-- L4YAML.Proofs.ScannerPlainScalarValid.fpsv_of_not_plain&#45;&gt;L4YAML.Scalar.style -->
<g id="edge10" class="edge">
<title>L4YAML.Proofs.ScannerPlainScalarValid.fpsv_of_not_plain&#45;&gt;L4YAML.Scalar.style</title>
<path fill="none" stroke="#e67e22" stroke-width="2" stroke-dasharray="5,2" d="M113.68,-116.78C107.2,-111.55 101.13,-105.6 96.37,-99 87.98,-87.37 83.26,-72.04 80.62,-59.29"/>
<polygon fill="#e67e22" stroke="#e67e22" stroke-width="2" points="82.98,-58.57 79.3,-52.13 78.17,-59.46 82.98,-58.57"/>
<text text-anchor="middle" x="125.87" y="-92.6" font-family="Times-Roman" font-size="8.00" fill="#e67e22">about (unfold)</text>
</g>
<!-- L4YAML.Proofs.Composition.parseYamlRaw_pipeline -->
<g id="node12" class="node">
<title>L4YAML.Proofs.Composition.parseYamlRaw_pipeline</title>
<g id="a_node12"><a xlink:href="../../../api/L4YAML/Proofs/Composition.html#L4YAML.Proofs.Composition.parseYamlRaw_pipeline" xlink:title="Composition.parseYamlRaw_pipeline" target="_blank">
<ellipse fill="#d4edda" stroke="#28a745" cx="2167.37" cy="-143.96" rx="105.24" ry="18"/>
<text text-anchor="middle" x="2167.37" y="-141.46" font-family="Helvetica" font-size="10.00">Composition.parseYamlRaw_pipeline</text>
</a>
</g>
</g>
<!-- L4YAML.Proofs.Composition.parseYamlRaw_pipeline&#45;&gt;L4YAML.Positioned -->
<g id="edge11" class="edge">
<title>L4YAML.Proofs.Composition.parseYamlRaw_pipeline&#45;&gt;L4YAML.Positioned</title>
<path fill="none" stroke="#6f42c1" stroke-dasharray="5,2" d="M2140.31,-126.32C2121.43,-115.15 2095.41,-100.59 2071.37,-90 2028.9,-71.3 1977.95,-55.04 1944.45,-45.15"/>
<polygon fill="#6f42c1" stroke="#6f42c1" points="1944.93,-43.46 1939.64,-43.73 1943.94,-46.82 1944.93,-43.46"/>
<text text-anchor="middle" x="2100.37" y="-92.9" font-family="Times-Roman" font-size="7.00" fill="#6f42c1">about</text>
</g>
<!-- L4YAML.Proofs.Composition.parseYamlRaw_pipeline&#45;&gt;L4YAML.YamlToken -->
<g id="edge12" class="edge">
<title>L4YAML.Proofs.Composition.parseYamlRaw_pipeline&#45;&gt;L4YAML.YamlToken</title>
<path fill="none" stroke="#6f42c1" stroke-dasharray="5,2" d="M2107.98,-129.07C2090.42,-125.07 2071.14,-120.76 2053.37,-117 1992.23,-104.06 1976.85,-101.24 1915.37,-90 1894.53,-86.19 1886.85,-92.36 1868.37,-82 1857.39,-75.85 1847.94,-65.59 1840.88,-56.23"/>
<polygon fill="#6f42c1" stroke="#6f42c1" points="1842.16,-55.03 1837.81,-52.01 1839.33,-57.09 1842.16,-55.03"/>
<text text-anchor="middle" x="1973.37" y="-92.9" font-family="Times-Roman" font-size="7.00" fill="#6f42c1">about</text>
</g>
<!-- L4YAML.Proofs.Composition.parseYaml_pipeline -->
<g id="node13" class="node">
<title>L4YAML.Proofs.Composition.parseYaml_pipeline</title>
<g id="a_node13"><a xlink:href="../../../api/L4YAML/Proofs/Composition.html#L4YAML.Proofs.Composition.parseYaml_pipeline" xlink:title="Composition.parseYaml_pipeline" target="_blank">
<ellipse fill="#d4edda" stroke="#28a745" cx="3601.37" cy="-143.96" rx="93.69" ry="18"/>
<text text-anchor="middle" x="3601.37" y="-141.46" font-family="Helvetica" font-size="10.00">Composition.parseYaml_pipeline</text>
</a>
</g>
</g>
<!-- L4YAML.Proofs.Composition.parseYaml_pipeline&#45;&gt;L4YAML.Positioned -->
<g id="edge13" class="edge">
<title>L4YAML.Proofs.Composition.parseYaml_pipeline&#45;&gt;L4YAML.Positioned</title>
<path fill="none" stroke="#6f42c1" stroke-dasharray="5,2" d="M3578.12,-126.38C3559.05,-113.8 3530.81,-97.44 3503.37,-90 3348.49,-47.97 2167.64,-36.97 1944.64,-35.26"/>
<polygon fill="#6f42c1" stroke="#6f42c1" points="1944.56,-33.51 1939.55,-35.22 1944.54,-37.01 1944.56,-33.51"/>
<text text-anchor="middle" x="3536.37" y="-92.9" font-family="Times-Roman" font-size="7.00" fill="#6f42c1">about</text>
</g>
<!-- L4YAML.Proofs.Composition.parseYaml_pipeline&#45;&gt;L4YAML.YamlToken -->
<g id="edge14" class="edge">
<title>L4YAML.Proofs.Composition.parseYaml_pipeline&#45;&gt;L4YAML.YamlToken</title>
<path fill="none" stroke="#6f42c1" stroke-dasharray="5,2" d="M3550.29,-128.84C3533.81,-124.62 3515.4,-120.26 3498.37,-117 3408.11,-99.74 3385.05,-96.27 3293.37,-90 3273.62,-88.65 1886.36,-90.24 1868.37,-82 1856.76,-76.68 1847.14,-66.29 1840.15,-56.62"/>
<polygon fill="#6f42c1" stroke="#6f42c1" points="1841.41,-55.37 1837.12,-52.26 1838.53,-57.36 1841.41,-55.37"/>
<text text-anchor="middle" x="3403.37" y="-92.9" font-family="Times-Roman" font-size="7.00" fill="#6f42c1">about</text>
</g>
<!-- L4YAML.Proofs.Composition.parseYamlRaw_parse_error -->
<g id="node14" class="node">
<title>L4YAML.Proofs.Composition.parseYamlRaw_parse_error</title>
<g id="a_node14"><a xlink:href="../../../api/L4YAML/Proofs/Composition.html#L4YAML.Proofs.Composition.parseYamlRaw_parse_error" xlink:title="Composition.parseYamlRaw_parse_error" target="_blank">
<ellipse fill="#d4edda" stroke="#28a745" cx="2740.37" cy="-143.96" rx="114.58" ry="18"/>
<text text-anchor="middle" x="2740.37" y="-141.46" font-family="Helvetica" font-size="10.00">Composition.parseYamlRaw_parse_error</text>
</a>
</g>
</g>
<!-- L4YAML.Proofs.Composition.parseYamlRaw_parse_error&#45;&gt;L4YAML.Positioned -->
<g id="edge15" class="edge">
<title>L4YAML.Proofs.Composition.parseYamlRaw_parse_error&#45;&gt;L4YAML.Positioned</title>
<path fill="none" stroke="#6f42c1" stroke-dasharray="5,2" d="M2709.48,-126.55C2684.76,-114.23 2648.8,-98.15 2615.37,-90 2485.89,-58.43 2069.76,-40.92 1944.43,-36.27"/>
<polygon fill="#6f42c1" stroke="#6f42c1" points="1944.44,-34.52 1939.38,-36.08 1944.31,-38.02 1944.44,-34.52"/>
<text text-anchor="middle" x="2654.37" y="-92.9" font-family="Times-Roman" font-size="7.00" fill="#6f42c1">about</text>
</g>
<!-- L4YAML.Proofs.Composition.parseYamlRaw_parse_error&#45;&gt;L4YAML.YamlToken -->
<g id="edge16" class="edge">
<title>L4YAML.Proofs.Composition.parseYamlRaw_parse_error&#45;&gt;L4YAML.YamlToken</title>
<path fill="none" stroke="#6f42c1" stroke-dasharray="5,2" d="M2678.13,-128.79C2658.44,-124.61 2636.56,-120.29 2616.37,-117 2514.35,-100.39 2488.51,-96.81 2385.37,-90 2356.71,-88.11 1894.43,-94.09 1868.37,-82 1856.79,-76.62 1847.17,-66.23 1840.17,-56.58"/>
<polygon fill="#6f42c1" stroke="#6f42c1" points="1841.43,-55.32 1837.14,-52.21 1838.56,-57.32 1841.43,-55.32"/>
<text text-anchor="middle" x="2504.37" y="-92.9" font-family="Times-Roman" font-size="7.00" fill="#6f42c1">about</text>
</g>
<!-- L4YAML.Proofs.ParserAnchorProofs.parseStream_output_aliases_resolve -->
<g id="node15" class="node">
<title>L4YAML.Proofs.ParserAnchorProofs.parseStream_output_aliases_resolve</title>
<g id="a_node15"><a xlink:href="../../../api/L4YAML/Proofs/Parser/ParserAnchorProofs.html#L4YAML.Proofs.ParserAnchorProofs.parseStream_output_aliases_resolve" xlink:title="ParserAnchorProofs.parseStream_output_aliases_resolve" target="_blank">
<ellipse fill="#d4edda" stroke="#28a745" cx="2449.37" cy="-143.96" rx="158.2" ry="18"/>
<text text-anchor="middle" x="2449.37" y="-141.46" font-family="Helvetica" font-size="10.00">ParserAnchorProofs.parseStream_output_aliases_resolve</text>
</a>
</g>
</g>
<!-- L4YAML.Proofs.ParserAnchorProofs.parseStream_output_aliases_resolve&#45;&gt;L4YAML.Positioned -->
<g id="edge17" class="edge">
<title>L4YAML.Proofs.ParserAnchorProofs.parseStream_output_aliases_resolve&#45;&gt;L4YAML.Positioned</title>
<path fill="none" stroke="#6f42c1" stroke-dasharray="5,2" d="M2419.31,-126.2C2396.44,-114.21 2363.81,-98.7 2333.37,-90 2193.31,-49.95 2018.88,-38.99 1944.59,-36.05"/>
<polygon fill="#6f42c1" stroke="#6f42c1" points="1944.47,-34.29 1939.41,-35.85 1944.34,-37.79 1944.47,-34.29"/>
<text text-anchor="middle" x="2370.37" y="-92.9" font-family="Times-Roman" font-size="7.00" fill="#6f42c1">about</text>
</g>
<!-- L4YAML.Proofs.ParserAnchorProofs.parseStream_output_aliases_resolve&#45;&gt;L4YAML.YamlToken -->
<g id="edge18" class="edge">
<title>L4YAML.Proofs.ParserAnchorProofs.parseStream_output_aliases_resolve&#45;&gt;L4YAML.YamlToken</title>
<path fill="none" stroke="#6f42c1" stroke-dasharray="5,2" d="M2373.44,-128.15C2305.96,-115.65 2204.5,-98.48 2115.37,-90 2088.03,-87.4 1893.18,-93.77 1868.37,-82 1856.83,-76.53 1847.22,-66.12 1840.21,-56.49"/>
<polygon fill="#6f42c1" stroke="#6f42c1" points="1841.48,-55.24 1837.18,-52.14 1838.6,-57.24 1841.48,-55.24"/>
<text text-anchor="middle" x="2199.37" y="-92.9" font-family="Times-Roman" font-size="7.00" fill="#6f42c1">about</text>
</g>
<!-- L4YAML.Proofs.EndToEndCorrectness.parseYaml_implies_valid_token_stream -->
<g id="node16" class="node">
<title>L4YAML.Proofs.EndToEndCorrectness.parseYaml_implies_valid_token_stream</title>
<g id="a_node16"><a xlink:href="../../../api/L4YAML/Proofs/EndToEndCorrectness.html#L4YAML.Proofs.EndToEndCorrectness.parseYaml_implies_valid_token_stream" xlink:title="EndToEndCorrectness.parseYaml_implies_valid_token_stream" target="_blank">
<ellipse fill="#d4edda" stroke="#28a745" cx="1874.37" cy="-143.96" rx="170.25" ry="18"/>
<text text-anchor="middle" x="1874.37" y="-141.46" font-family="Helvetica" font-size="10.00">EndToEndCorrectness.parseYaml_implies_valid_token_stream</text>
</a>
</g>
</g>
<!-- L4YAML.Proofs.EndToEndCorrectness.parseYaml_implies_valid_token_stream&#45;&gt;L4YAML.Positioned -->
<g id="edge19" class="edge">
<title>L4YAML.Proofs.EndToEndCorrectness.parseYaml_implies_valid_token_stream&#45;&gt;L4YAML.Positioned</title>
<path fill="none" stroke="#6f42c1" stroke-dasharray="5,2" d="M1879.83,-125.62C1885.68,-107.04 1894.98,-77.51 1901.36,-57.24"/>
<polygon fill="#6f42c1" stroke="#6f42c1" points="1903.09,-57.6 1902.92,-52.3 1899.75,-56.55 1903.09,-57.6"/>
<text text-anchor="middle" x="1900.37" y="-92.9" font-family="Times-Roman" font-size="7.00" fill="#6f42c1">about</text>
</g>
<!-- L4YAML.Proofs.EndToEndCorrectness.parseYaml_implies_valid_token_stream&#45;&gt;L4YAML.YamlToken -->
<g id="edge20" class="edge">
<title>L4YAML.Proofs.EndToEndCorrectness.parseYaml_implies_valid_token_stream&#45;&gt;L4YAML.YamlToken</title>
<path fill="none" stroke="#6f42c1" stroke-dasharray="5,2" d="M1866.82,-125.62C1858.7,-106.96 1845.77,-77.26 1836.94,-56.99"/>
<polygon fill="#6f42c1" stroke="#6f42c1" points="1838.5,-56.19 1834.9,-52.3 1835.29,-57.59 1838.5,-56.19"/>
<text text-anchor="middle" x="1865.37" y="-92.9" font-family="Times-Roman" font-size="7.00" fill="#6f42c1">about</text>
</g>
<!-- L4YAML.Proofs.ScanStrictCoupling.scan_full_consumption -->
<g id="node17" class="node">
<title>L4YAML.Proofs.ScanStrictCoupling.scan_full_consumption</title>
<g id="a_node17"><a xlink:href="../../../api/L4YAML/Proofs/Scanner/ScanStrictCoupling.html#L4YAML.Proofs.ScanStrictCoupling.scan_full_consumption" xlink:title="ScanStrictCoupling.scan_full_consumption" target="_blank">
<ellipse fill="#d4edda" stroke="#28a745" cx="1329.37" cy="-143.96" rx="119.5" ry="18"/>
<text text-anchor="middle" x="1329.37" y="-141.46" font-family="Helvetica" font-size="10.00">ScanStrictCoupling.scan_full_consumption</text>
</a>
</g>
</g>
<!-- L4YAML.Proofs.ScanStrictCoupling.scan_full_consumption&#45;&gt;L4YAML.Positioned -->
<g id="edge21" class="edge">
<title>L4YAML.Proofs.ScanStrictCoupling.scan_full_consumption&#45;&gt;L4YAML.Positioned</title>
<path fill="none" stroke="#6f42c1" stroke-dasharray="5,2" d="M1396.58,-129.02C1416.45,-125.01 1438.26,-120.72 1458.37,-117 1529.28,-103.88 1546.61,-97.17 1618.37,-90 1646.02,-87.24 1843.33,-94.06 1868.37,-82 1879.75,-76.52 1889.14,-66.11 1895.95,-56.48"/>
<polygon fill="#6f42c1" stroke="#6f42c1" points="1897.54,-57.25 1898.9,-52.13 1894.64,-55.29 1897.54,-57.25"/>
<text text-anchor="middle" x="1629.37" y="-92.9" font-family="Times-Roman" font-size="7.00" fill="#6f42c1">about</text>
</g>
<!-- L4YAML.Proofs.ScanStrictCoupling.scan_full_consumption&#45;&gt;L4YAML.YamlToken -->
<g id="edge22" class="edge">
<title>L4YAML.Proofs.ScanStrictCoupling.scan_full_consumption&#45;&gt;L4YAML.YamlToken</title>
<path fill="none" stroke="#6f42c1" stroke-dasharray="5,2" d="M1359.13,-126.43C1383.6,-113.79 1419.63,-97.33 1453.37,-90 1489.54,-82.15 1752.86,-97.72 1786.37,-82 1797.93,-76.58 1807.54,-66.17 1814.54,-56.53"/>
<polygon fill="#6f42c1" stroke="#6f42c1" points="1816.16,-57.28 1817.58,-52.18 1813.28,-55.28 1816.16,-57.28"/>
<text text-anchor="middle" x="1464.37" y="-92.9" font-family="Times-Roman" font-size="7.00" fill="#6f42c1">about</text>
</g>
<!-- L4YAML.Proofs.EndToEndCorrectness.parseStream_respects_grammar_unconditional -->
<g id="node18" class="node">
<title>L4YAML.Proofs.EndToEndCorrectness.parseStream_respects_grammar_unconditional</title>
<g id="a_node18"><a xlink:href="../../../api/L4YAML/Proofs/EndToEndCorrectness.html#L4YAML.Proofs.EndToEndCorrectness.parseStream_respects_grammar_unconditional" xlink:title="EndToEndCorrectness.parseStream_respects_grammar_unconditional" target="_blank">
<ellipse fill="#d4edda" stroke="#28a745" cx="3063.37" cy="-143.96" rx="190.28" ry="18"/>
<text text-anchor="middle" x="3063.37" y="-141.46" font-family="Helvetica" font-size="10.00">EndToEndCorrectness.parseStream_respects_grammar_unconditional</text>
</a>
</g>
</g>
<!-- L4YAML.Proofs.EndToEndCorrectness.parseStream_respects_grammar_unconditional&#45;&gt;L4YAML.Positioned -->
<g id="edge23" class="edge">
<title>L4YAML.Proofs.EndToEndCorrectness.parseStream_respects_grammar_unconditional&#45;&gt;L4YAML.Positioned</title>
<path fill="none" stroke="#6f42c1" stroke-dasharray="5,2" d="M3027.26,-126.25C2998.65,-113.87 2957.33,-97.83 2919.37,-90 2727.54,-50.44 2103.53,-38.08 1945.17,-35.54"/>
<polygon fill="#6f42c1" stroke="#6f42c1" points="1944.76,-33.78 1939.74,-35.45 1944.71,-37.28 1944.76,-33.78"/>
<text text-anchor="middle" x="2962.37" y="-92.9" font-family="Times-Roman" font-size="7.00" fill="#6f42c1">about</text>
</g>
<!-- L4YAML.Proofs.EndToEndCorrectness.parseStream_respects_grammar_unconditional&#45;&gt;L4YAML.YamlToken -->
<g id="edge24" class="edge">
<title>L4YAML.Proofs.EndToEndCorrectness.parseStream_respects_grammar_unconditional&#45;&gt;L4YAML.YamlToken</title>
<path fill="none" stroke="#6f42c1" stroke-dasharray="5,2" d="M2975.28,-127.94C2895.64,-115.13 2775.04,-97.6 2669.37,-90 2647.18,-88.4 1888.58,-91.31 1868.37,-82 1856.77,-76.66 1847.16,-66.26 1840.16,-56.6"/>
<polygon fill="#6f42c1" stroke="#6f42c1" points="1841.42,-55.35 1837.13,-52.24 1838.55,-57.34 1841.42,-55.35"/>
<text text-anchor="middle" x="2766.37" y="-92.9" font-family="Times-Roman" font-size="7.00" fill="#6f42c1">about</text>
</g>
<!-- L4YAML.Proofs.DocumentProduction.scan_strict_proof -->
<g id="node19" class="node">
<title>L4YAML.Proofs.DocumentProduction.scan_strict_proof</title>
<g id="a_node19"><a xlink:href="../../../api/L4YAML/Proofs/Production/DocumentProduction.html#L4YAML.Proofs.DocumentProduction.scan_strict_proof" xlink:title="DocumentProduction.scan_strict_proof" target="_blank">
<ellipse fill="#d4edda" stroke="#28a745" cx="1576.37" cy="-143.96" rx="109.48" ry="18"/>
<text text-anchor="middle" x="1576.37" y="-141.46" font-family="Helvetica" font-size="10.00">DocumentProduction.scan_strict_proof</text>
</a>
</g>
</g>
<!-- L4YAML.Proofs.DocumentProduction.scan_strict_proof&#45;&gt;L4YAML.Positioned -->
<g id="edge25" class="edge">
<title>L4YAML.Proofs.DocumentProduction.scan_strict_proof&#45;&gt;L4YAML.Positioned</title>
<path fill="none" stroke="#6f42c1" stroke-dasharray="5,2" d="M1639.03,-129.17C1657.2,-125.2 1677.07,-120.9 1695.37,-117 1753.09,-104.71 1767.47,-101.4 1825.37,-90 1844.44,-86.25 1851.55,-91.74 1868.37,-82 1878.98,-75.85 1888.1,-65.81 1894.94,-56.58"/>
<polygon fill="#6f42c1" stroke="#6f42c1" points="1896.44,-57.5 1897.92,-52.41 1893.59,-55.46 1896.44,-57.5"/>
<text text-anchor="middle" x="1836.37" y="-92.9" font-family="Times-Roman" font-size="7.00" fill="#6f42c1">about</text>
</g>
<!-- L4YAML.Proofs.DocumentProduction.scan_strict_proof&#45;&gt;L4YAML.YamlToken -->
<g id="edge26" class="edge">
<title>L4YAML.Proofs.DocumentProduction.scan_strict_proof&#45;&gt;L4YAML.YamlToken</title>
<path fill="none" stroke="#6f42c1" stroke-dasharray="5,2" d="M1598.29,-126.1C1615.71,-113.71 1641.25,-97.75 1666.37,-90 1691.91,-82.12 1762.42,-93.87 1786.37,-82 1797.64,-76.41 1807.13,-66.21 1814.13,-56.74"/>
<polygon fill="#6f42c1" stroke="#6f42c1" points="1815.7,-57.55 1817.17,-52.46 1812.85,-55.53 1815.7,-57.55"/>
<text text-anchor="middle" x="1677.37" y="-92.9" font-family="Times-Roman" font-size="7.00" fill="#6f42c1">about</text>
</g>
<!-- L4YAML.Proofs.ScannerCorrectness.scanLoop_success_emits_streamEnd -->
<g id="node20" class="node">
<title>L4YAML.Proofs.ScannerCorrectness.scanLoop_success_emits_streamEnd</title>
<g id="a_node20"><a xlink:href="../../../api/L4YAML/Proofs/Scanner/ScannerCorrectness.html#L4YAML.Proofs.ScannerCorrectness.scanLoop_success_emits_streamEnd" xlink:title="ScannerCorrectness.scanLoop_success_emits_streamEnd" target="_blank">
<ellipse fill="#d4edda" stroke="#28a745" cx="728.37" cy="-143.96" rx="161.76" ry="18"/>
<text text-anchor="middle" x="728.37" y="-141.46" font-family="Helvetica" font-size="10.00">ScannerCorrectness.scanLoop_success_emits_streamEnd</text>
</a>
</g>
</g>
<!-- L4YAML.Proofs.ScannerCorrectness.scanLoop_success_emits_streamEnd&#45;&gt;L4YAML.Positioned -->
<g id="edge27" class="edge">
<title>L4YAML.Proofs.ScannerCorrectness.scanLoop_success_emits_streamEnd&#45;&gt;L4YAML.Positioned</title>
<path fill="none" stroke="#6f42c1" stroke-dasharray="5,2" d="M817.48,-128.86C843.82,-124.84 872.74,-120.59 899.37,-117 1000.93,-103.31 1026.1,-96.56 1128.37,-90 1148.88,-88.68 1849.76,-90.72 1868.37,-82 1879.81,-76.64 1889.2,-66.24 1896,-56.59"/>
<polygon fill="#6f42c1" stroke="#6f42c1" points="1897.6,-57.35 1898.94,-52.22 1894.69,-55.39 1897.6,-57.35"/>
<text text-anchor="middle" x="1139.37" y="-92.9" font-family="Times-Roman" font-size="7.00" fill="#6f42c1">about</text>
</g>
<!-- L4YAML.Proofs.ScannerCorrectness.scanLoop_success_emits_streamEnd&#45;&gt;L4YAML.YamlToken -->
<g id="edge28" class="edge">
<title>L4YAML.Proofs.ScannerCorrectness.scanLoop_success_emits_streamEnd&#45;&gt;L4YAML.YamlToken</title>
<path fill="none" stroke="#6f42c1" stroke-dasharray="5,2" d="M785.02,-127.1C833.72,-114.3 906.05,-97.27 970.37,-90 992.89,-87.45 1765.78,-91.48 1786.37,-82 1797.97,-76.66 1807.58,-66.26 1814.58,-56.6"/>
<polygon fill="#6f42c1" stroke="#6f42c1" points="1816.19,-57.34 1817.61,-52.24 1813.32,-55.35 1816.19,-57.34"/>
<text text-anchor="middle" x="981.37" y="-92.9" font-family="Times-Roman" font-size="7.00" fill="#6f42c1">about</text>
</g>
<!-- L4YAML.Proofs.ParserSoundness.parseStream_sound -->
<g id="node21" class="node">
<title>L4YAML.Proofs.ParserSoundness.parseStream_sound</title>
<g id="a_node21"><a xlink:href="../../../api/L4YAML/Proofs/Parser/ParserSoundness.html#L4YAML.Proofs.ParserSoundness.parseStream_sound" xlink:title="ParserSoundness.parseStream_sound" target="_blank">
<ellipse fill="#d4edda" stroke="#28a745" cx="3380.37" cy="-143.96" rx="108.81" ry="18"/>
<text text-anchor="middle" x="3380.37" y="-141.46" font-family="Helvetica" font-size="10.00">ParserSoundness.parseStream_sound</text>
</a>
</g>
</g>
<!-- L4YAML.Proofs.ParserSoundness.parseStream_sound&#45;&gt;L4YAML.Positioned -->
<g id="edge29" class="edge">
<title>L4YAML.Proofs.ParserSoundness.parseStream_sound&#45;&gt;L4YAML.Positioned</title>
<path fill="none" stroke="#6f42c1" stroke-dasharray="5,2" d="M3345.79,-126.88C3316.95,-114.32 3274.41,-97.74 3235.37,-90 2978.1,-38.97 2130.14,-35.2 1944.49,-35"/>
<polygon fill="#6f42c1" stroke="#6f42c1" points="1944.46,-33.25 1939.45,-34.99 1944.45,-36.75 1944.46,-33.25"/>
<text text-anchor="middle" x="3278.37" y="-92.9" font-family="Times-Roman" font-size="7.00" fill="#6f42c1">about</text>
</g>
<!-- L4YAML.Proofs.ParserSoundness.parseStream_sound&#45;&gt;L4YAML.YamlToken -->
<g id="edge30" class="edge">
<title>L4YAML.Proofs.ParserSoundness.parseStream_sound&#45;&gt;L4YAML.YamlToken</title>
<path fill="none" stroke="#6f42c1" stroke-dasharray="5,2" d="M3322.12,-128.67C3303.16,-124.41 3281.95,-120.07 3262.37,-117 3136.67,-97.29 3104.44,-96.47 2977.37,-90 2961.99,-89.22 1882.37,-88.43 1868.37,-82 1856.76,-76.67 1847.15,-66.28 1840.15,-56.62"/>
<polygon fill="#6f42c1" stroke="#6f42c1" points="1841.41,-55.36 1837.13,-52.25 1838.54,-57.36 1841.41,-55.36"/>
<text text-anchor="middle" x="3135.37" y="-92.9" font-family="Times-Roman" font-size="7.00" fill="#6f42c1">about</text>
</g>
<!-- L4YAML.Proofs.ParserWfaProofs.parseStream_output_anchors_wellformed -->
<g id="node22" class="node">
<title>L4YAML.Proofs.ParserWfaProofs.parseStream_output_anchors_wellformed</title>
<g id="a_node22"><a xlink:href="../../../api/L4YAML/Proofs/Parser/ParserWfaProofs.html#L4YAML.Proofs.ParserWfaProofs.parseStream_output_anchors_wellformed" xlink:title="ParserWfaProofs.parseStream_output_anchors_wellformed" target="_blank">
<ellipse fill="#d4edda" stroke="#28a745" cx="4142.37" cy="-143.96" rx="162.44" ry="18"/>
<text text-anchor="middle" x="4142.37" y="-141.46" font-family="Helvetica" font-size="10.00">ParserWfaProofs.parseStream_output_anchors_wellformed</text>
</a>
</g>
</g>
<!-- L4YAML.Proofs.ParserWfaProofs.parseStream_output_anchors_wellformed&#45;&gt;L4YAML.Positioned -->
<g id="edge31" class="edge">
<title>L4YAML.Proofs.ParserWfaProofs.parseStream_output_anchors_wellformed&#45;&gt;L4YAML.Positioned</title>
<path fill="none" stroke="#6f42c1" stroke-dasharray="5,2" d="M4111.32,-126.2C4086.24,-113.6 4049.59,-97.32 4015.37,-90 3805.24,-45.08 2206.97,-36.29 1944.72,-35.14"/>
<polygon fill="#6f42c1" stroke="#6f42c1" points="1944.51,-33.39 1939.5,-35.12 1944.49,-36.89 1944.51,-33.39"/>
<text text-anchor="middle" x="4054.37" y="-92.9" font-family="Times-Roman" font-size="7.00" fill="#6f42c1">about</text>
</g>
<!-- L4YAML.Proofs.ParserWfaProofs.parseStream_output_anchors_wellformed&#45;&gt;L4YAML.YamlToken -->
<g id="edge32" class="edge">
<title>L4YAML.Proofs.ParserWfaProofs.parseStream_output_anchors_wellformed&#45;&gt;L4YAML.YamlToken</title>
<path fill="none" stroke="#6f42c1" stroke-dasharray="5,2" d="M4065.71,-128.08C3994.85,-115.12 3886.46,-97.29 3791.37,-90 3764.74,-87.96 1892.66,-93.11 1868.37,-82 1856.76,-76.69 1847.14,-66.3 1840.15,-56.63"/>
<polygon fill="#6f42c1" stroke="#6f42c1" points="1841.41,-55.38 1837.12,-52.26 1838.53,-57.37 1841.41,-55.38"/>
<text text-anchor="middle" x="3889.37" y="-92.9" font-family="Times-Roman" font-size="7.00" fill="#6f42c1">about</text>
</g>
<!-- L4YAML.Proofs.Soundness.scalar_content_preserved -->
<g id="node23" class="node">
<title>L4YAML.Proofs.Soundness.scalar_content_preserved</title>
<g id="a_node23"><a xlink:href="../../../api/L4YAML/Proofs/Soundness.html#L4YAML.Proofs.Soundness.scalar_content_preserved" xlink:title="Soundness.scalar_content_preserved" target="_blank">
<ellipse fill="#d4edda" stroke="#28a745" cx="442.37" cy="-143.96" rx="105.92" ry="18"/>
<text text-anchor="middle" x="442.37" y="-141.46" font-family="Helvetica" font-size="10.00">Soundness.scalar_content_preserved</text>
</a>
</g>
</g>
<!-- L4YAML.Proofs.Soundness.scalar_content_preserved&#45;&gt;L4YAML.Scalar.content -->
<g id="edge33" class="edge">
<title>L4YAML.Proofs.Soundness.scalar_content_preserved&#45;&gt;L4YAML.Scalar.content</title>
<path fill="none" stroke="#6f42c1" stroke-dasharray="5,2" d="M506,-129.44C548.27,-119.81 597.13,-107.18 603.37,-99 605.8,-95.82 606.01,-93 603.37,-90 577.94,-61.14 320.98,-43.52 214.85,-37.42"/>
<polygon fill="#6f42c1" stroke="#6f42c1" points="214.7,-35.65 209.61,-37.12 214.5,-39.15 214.7,-35.65"/>
<text text-anchor="middle" x="615.37" y="-92.9" font-family="Times-Roman" font-size="7.00" fill="#6f42c1">about</text>
</g>
<!-- L4YAML.Proofs.Composition.parseYamlRaw_ok_decompose -->
<g id="node24" class="node">
<title>L4YAML.Proofs.Composition.parseYamlRaw_ok_decompose</title>
<g id="a_node24"><a xlink:href="../../../api/L4YAML/Proofs/Composition.html#L4YAML.Proofs.Composition.parseYamlRaw_ok_decompose" xlink:title="Composition.parseYamlRaw_ok_decompose" target="_blank">
<ellipse fill="#d4edda" stroke="#28a745" cx="3837.37" cy="-143.96" rx="124.59" ry="18"/>
<text text-anchor="middle" x="3837.37" y="-141.46" font-family="Helvetica" font-size="10.00">Composition.parseYamlRaw_ok_decompose</text>
</a>
</g>
</g>
<!-- L4YAML.Proofs.Composition.parseYamlRaw_ok_decompose&#45;&gt;L4YAML.Positioned -->
<g id="edge34" class="edge">
<title>L4YAML.Proofs.Composition.parseYamlRaw_ok_decompose&#45;&gt;L4YAML.Positioned</title>
<path fill="none" stroke="#6f42c1" stroke-dasharray="5,2" d="M3815.08,-126.09C3797.06,-113.53 3770.49,-97.34 3744.37,-90 3565.22,-39.68 2186.57,-35.4 1944.57,-35.03"/>
<polygon fill="#6f42c1" stroke="#6f42c1" points="1944.41,-33.28 1939.4,-35.03 1944.4,-36.78 1944.41,-33.28"/>
<text text-anchor="middle" x="3776.37" y="-92.9" font-family="Times-Roman" font-size="7.00" fill="#6f42c1">about</text>
</g>
<!-- L4YAML.Proofs.Composition.parseYamlRaw_ok_decompose&#45;&gt;L4YAML.YamlToken -->
<g id="edge35" class="edge">
<title>L4YAML.Proofs.Composition.parseYamlRaw_ok_decompose&#45;&gt;L4YAML.YamlToken</title>
<path fill="none" stroke="#6f42c1" stroke-dasharray="5,2" d="M3776.18,-128.2C3718.58,-115.12 3629.7,-97.05 3551.37,-90 3528.09,-87.91 1889.63,-91.73 1868.37,-82 1856.76,-76.69 1847.14,-66.29 1840.15,-56.63"/>
<polygon fill="#6f42c1" stroke="#6f42c1" points="1841.41,-55.37 1837.12,-52.26 1838.53,-57.37 1841.41,-55.37"/>
<text text-anchor="middle" x="3633.37" y="-92.9" font-family="Times-Roman" font-size="7.00" fill="#6f42c1">about</text>
</g>
<!-- L4YAML.Proofs.ParserGrammable.parseStream_output_grammable -->
<g id="node25" class="node">
<title>L4YAML.Proofs.ParserGrammable.parseStream_output_grammable</title>
<g id="a_node25"><a xlink:href="../../../api/L4YAML/Proofs/Parser/ParserGrammable.html#L4YAML.Proofs.ParserGrammable.parseStream_output_grammable" xlink:title="ParserGrammable.parseStream_output_grammable" target="_blank">
<ellipse fill="#d4edda" stroke="#28a745" cx="1050.37" cy="-143.96" rx="141.74" ry="18"/>
<text text-anchor="middle" x="1050.37" y="-141.46" font-family="Helvetica" font-size="10.00">ParserGrammable.parseStream_output_grammable</text>
</a>
</g>
</g>
<!-- L4YAML.Proofs.ParserGrammable.parseStream_output_grammable&#45;&gt;L4YAML.Positioned -->
<g id="edge36" class="edge">
<title>L4YAML.Proofs.ParserGrammable.parseStream_output_grammable&#45;&gt;L4YAML.Positioned</title>
<path fill="none" stroke="#6f42c1" stroke-dasharray="5,2" d="M1129.05,-128.91C1152.31,-124.9 1177.84,-120.63 1201.37,-117 1288.71,-103.51 1310.25,-96.76 1398.37,-90 1424.41,-88 1844.76,-93.16 1868.37,-82 1879.8,-76.6 1889.18,-66.2 1895.99,-56.56"/>
<polygon fill="#6f42c1" stroke="#6f42c1" points="1897.58,-57.32 1898.93,-52.2 1894.68,-55.36 1897.58,-57.32"/>
<text text-anchor="middle" x="1409.37" y="-92.9" font-family="Times-Roman" font-size="7.00" fill="#6f42c1">about</text>
</g>
<!-- L4YAML.Proofs.ParserGrammable.parseStream_output_grammable&#45;&gt;L4YAML.YamlToken -->
<g id="edge37" class="edge">
<title>L4YAML.Proofs.ParserGrammable.parseStream_output_grammable&#45;&gt;L4YAML.YamlToken</title>
<path fill="none" stroke="#6f42c1" stroke-dasharray="5,2" d="M1082.93,-126.33C1109.66,-113.64 1148.93,-97.14 1185.37,-90 1218.14,-83.58 1756.06,-96.02 1786.37,-82 1797.96,-76.64 1807.57,-66.24 1814.57,-56.59"/>
<polygon fill="#6f42c1" stroke="#6f42c1" points="1816.18,-57.33 1817.6,-52.22 1813.31,-55.33 1816.18,-57.33"/>
<text text-anchor="middle" x="1196.37" y="-92.9" font-family="Times-Roman" font-size="7.00" fill="#6f42c1">about</text>
</g>
</g>
</svg>
