<?xml version="1.0" encoding="UTF-8" standalone="no"?>
<!DOCTYPE svg PUBLIC "-//W3C//DTD SVG 1.1//EN"
 "http://www.w3.org/Graphics/SVG/1.1/DTD/svg11.dtd">
<!-- Generated by graphviz version 2.44.0 (0)
 -->
<!-- Title: ScannerBound.BoundInv.inputEnd_eq Pages: 1 -->
<svg width="529pt" height="256pt"
 viewBox="0.00 0.00 528.51 256.00" xmlns="http://www.w3.org/2000/svg" xmlns:xlink="http://www.w3.org/1999/xlink">
<g id="graph0" class="graph" transform="scale(1 1) rotate(0) translate(4 252)">
<title>ScannerBound.BoundInv.inputEnd_eq</title>
<polygon fill="white" stroke="transparent" points="-4,4 -4,-252 524.51,-252 524.51,4 -4,4"/>
<text text-anchor="middle" x="260.25" y="-233.6" font-family="Helvetica Bold" font-size="13.00">ScannerBound.BoundInv.inputEnd_eq</text>
<text text-anchor="middle" x="260.25" y="-219.6" font-family="Helvetica Bold" font-size="13.00">(heuristic: used by 29 proofs)</text>
<text text-anchor="middle" x="260.25" y="-205.6" font-family="Helvetica Bold" font-size="13.00">(L4YAML.Proofs.Scanner.ScannerBound)</text>
<g id="clust1" class="cluster">
<title>cluster_functions</title>
<polygon fill="none" stroke="#4a90d9" stroke-dasharray="5,2" points="371.51,-8 371.51,-190 512.51,-190 512.51,-8 371.51,-8"/>
<text text-anchor="middle" x="442.01" y="-175.6" font-family="Helvetica Bold" font-size="13.00" fill="#4a90d9">Functions</text>
</g>
<g id="clust2" class="cluster">
<title>cluster_key</title>
<polygon fill="none" stroke="#d4a017" stroke-dasharray="5,2" points="8,-58 8,-140 326.51,-140 326.51,-58 8,-58"/>
<text text-anchor="middle" x="167.25" y="-125.6" font-family="Helvetica Bold" font-size="13.00" fill="#d4a017">Key Theorem</text>
</g>
<!-- L4YAML.Scanner.ScannerState -->
<g id="node1" class="node">
<title>L4YAML.Scanner.ScannerState</title>
<g id="a_node1"><a xlink:href="../../../api/L4YAML/Scanner/State.html#L4YAML.Scanner.ScannerState" xlink:title="ScannerState\n(inductive)" target="_blank">
<polygon fill="#dce9f7" stroke="#4a90d9" points="480.01,-160 404.01,-160 404.01,-124 480.01,-124 480.01,-160"/>
<text text-anchor="middle" x="442.01" y="-145" font-family="Helvetica" font-size="10.00">ScannerState</text>
<text text-anchor="middle" x="442.01" y="-134" font-family="Helvetica" font-size="10.00">(inductive)</text>
</a>
</g>
</g>
<!-- L4YAML.Proofs.ScannerBound.BoundInv -->
<g id="node2" class="node">
<title>L4YAML.Proofs.ScannerBound.BoundInv</title>
<g id="a_node2"><a xlink:href="../../../api/L4YAML/Proofs/Scanner/ScannerBound.html#L4YAML.Proofs.ScannerBound.BoundInv" xlink:title="ScannerBound.BoundInv\n(inductive)" target="_blank">
<polygon fill="#dce9f7" stroke="#4a90d9" points="504.51,-106 379.51,-106 379.51,-70 504.51,-70 504.51,-106"/>
<text text-anchor="middle" x="442.01" y="-91" font-family="Helvetica" font-size="10.00">ScannerBound.BoundInv</text>
<text text-anchor="middle" x="442.01" y="-80" font-family="Helvetica" font-size="10.00">(inductive)</text>
</a>
</g>
</g>
<!-- L4YAML.Scanner.ScannerState.inputEnd -->
<g id="node3" class="node">
<title>L4YAML.Scanner.ScannerState.inputEnd</title>
<g id="a_node3"><a xlink:href="../../../api/L4YAML/Scanner/State.html#L4YAML.Scanner.ScannerState.inputEnd" xlink:title="ScannerState.inputEnd\n(def)" target="_blank">
<polygon fill="#dce9f7" stroke="#4a90d9" points="500.51,-52 383.51,-52 383.51,-16 500.51,-16 500.51,-52"/>
<text text-anchor="middle" x="442.01" y="-37" font-family="Helvetica" font-size="10.00">ScannerState.inputEnd</text>
<text text-anchor="middle" x="442.01" y="-26" font-family="Helvetica" font-size="10.00">(def)</text>
</a>
</g>
</g>
<!-- L4YAML.Proofs.ScannerBound.BoundInv.inputEnd_eq -->
<g id="node4" class="node">
<title>L4YAML.Proofs.ScannerBound.BoundInv.inputEnd_eq</title>
<g id="a_node4"><a xlink:href="../../../api/L4YAML/Proofs/Scanner/ScannerBound.html#L4YAML.Proofs.ScannerBound.BoundInv.inputEnd_eq" xlink:title="ScannerBound.BoundInv.inputEnd_eq" target="_blank">
<polygon fill="#fff3cd" stroke="#d4a017" points="314.27,-80.54 314.27,-95.46 228.15,-106 106.36,-106 20.24,-95.46 20.24,-80.54 106.36,-70 228.15,-70 314.27,-80.54"/>
<polygon fill="none" stroke="#d4a017" points="318.26,-77 318.26,-99 228.39,-110 106.12,-110 16.25,-99 16.25,-77 106.12,-66 228.39,-66 318.26,-77"/>
<text text-anchor="middle" x="167.25" y="-84.9" font-family="Helvetica" font-size="12.00">ScannerBound.BoundInv.inputEnd_eq</text>
</a>
</g>
</g>
<!-- L4YAML.Proofs.ScannerBound.BoundInv.inputEnd_eq&#45;&gt;L4YAML.Scanner.ScannerState -->
<g id="edge3" class="edge">
<title>L4YAML.Proofs.ScannerBound.BoundInv.inputEnd_eq&#45;&gt;L4YAML.Scanner.ScannerState</title>
<path fill="none" stroke="#4a90d9" stroke-width="2" d="M260.22,-106.21C306.32,-115.33 360.03,-125.97 396.86,-133.26"/>
<polygon fill="#4a90d9" stroke="#4a90d9" stroke-width="2" points="396.65,-135.72 403.99,-134.67 397.6,-130.91 396.65,-135.72"/>
<text text-anchor="middle" x="349.01" y="-128.6" font-family="Times-Roman" font-size="8.00" fill="#4a90d9">about</text>
</g>
<!-- L4YAML.Proofs.ScannerBound.BoundInv.inputEnd_eq&#45;&gt;L4YAML.Proofs.ScannerBound.BoundInv -->
<g id="edge1" class="edge">
<title>L4YAML.Proofs.ScannerBound.BoundInv.inputEnd_eq&#45;&gt;L4YAML.Proofs.ScannerBound.BoundInv</title>
<path fill="none" stroke="#4a90d9" stroke-width="2" d="M318.59,-88C337.4,-88 355.84,-88 372.48,-88"/>
<polygon fill="#4a90d9" stroke="#4a90d9" stroke-width="2" points="372.49,-90.45 379.49,-88 372.49,-85.55 372.49,-90.45"/>
<text text-anchor="middle" x="349.01" y="-90.6" font-family="Times-Roman" font-size="8.00" fill="#4a90d9">about</text>
</g>
<!-- L4YAML.Proofs.ScannerBound.BoundInv.inputEnd_eq&#45;&gt;L4YAML.Scanner.ScannerState.inputEnd -->
<g id="edge2" class="edge">
<title>L4YAML.Proofs.ScannerBound.BoundInv.inputEnd_eq&#45;&gt;L4YAML.Scanner.ScannerState.inputEnd</title>
<path fill="none" stroke="#4a90d9" stroke-width="2" d="M260.22,-69.79C298.19,-62.28 341.32,-53.74 375.93,-46.88"/>
<polygon fill="#4a90d9" stroke="#4a90d9" stroke-width="2" points="376.79,-49.21 383.18,-45.45 375.84,-44.41 376.79,-49.21"/>
<text text-anchor="middle" x="349.01" y="-56.6" font-family="Times-Roman" font-size="8.00" fill="#4a90d9">about</text>
</g>
</g>
</svg>
