<?xml version="1.0" encoding="UTF-8" standalone="no"?>
<!DOCTYPE svg PUBLIC "-//W3C//DTD SVG 1.1//EN"
 "http://www.w3.org/Graphics/SVG/1.1/DTD/svg11.dtd">
<!-- Generated by graphviz version 2.44.0 (0)
 -->
<!-- Title: collectSingleQuotedLoop.eq_def Pages: 1 -->
<svg width="668pt" height="1390pt"
 viewBox="0.00 0.00 668.05 1390.00" xmlns="http://www.w3.org/2000/svg" xmlns:xlink="http://www.w3.org/1999/xlink">
<g id="graph0" class="graph" transform="scale(1 1) rotate(0) translate(4 1386)">
<title>collectSingleQuotedLoop.eq_def</title>
<polygon fill="white" stroke="transparent" points="-4,4 -4,-1386 664.05,-1386 664.05,4 -4,4"/>
<text text-anchor="middle" x="330.02" y="-1367.6" font-family="Helvetica Bold" font-size="13.00">collectSingleQuotedLoop.eq_def</text>
<text text-anchor="middle" x="330.02" y="-1353.6" font-family="Helvetica Bold" font-size="13.00">(heuristic: used by 8 proofs)</text>
<text text-anchor="middle" x="330.02" y="-1339.6" font-family="Helvetica Bold" font-size="13.00">(L4YAML.Proofs.Coupling.ScalarCoupling)</text>
<g id="clust1" class="cluster">
<title>cluster_functions</title>
<polygon fill="none" stroke="#4a90d9" stroke-dasharray="5,2" points="464.05,-8 464.05,-1324 652.05,-1324 652.05,-8 464.05,-8"/>
<text text-anchor="middle" x="558.05" y="-1309.6" font-family="Helvetica Bold" font-size="13.00" fill="#4a90d9">Functions</text>
</g>
<g id="clust2" class="cluster">
<title>cluster_key</title>
<polygon fill="none" stroke="#d4a017" stroke-dasharray="5,2" points="139.19,-624 139.19,-706 419.05,-706 419.05,-624 139.19,-624"/>
<text text-anchor="middle" x="279.12" y="-691.6" font-family="Helvetica Bold" font-size="13.00" fill="#d4a017">Key Theorem</text>
</g>
<g id="clust4" class="cluster">
<title>cluster_stdlib</title>
<polygon fill="none" stroke="#e67e22" stroke-dasharray="5,2" points="8,-628 8,-702 118.19,-702 118.19,-628 8,-628"/>
<text text-anchor="middle" x="63.09" y="-687.6" font-family="Helvetica Bold" font-size="13.00" fill="#e67e22">Stdlib Lemmas</text>
</g>
<!-- L4YAML.Scanner.trimTrailingWS -->
<g id="node1" class="node">
<title>L4YAML.Scanner.trimTrailingWS</title>
<g id="a_node1"><a xlink:href="../../../api/L4YAML/Scanner/Scalar.html#L4YAML.Scanner.trimTrailingWS" xlink:title="trimTrailingWS\n(def)" target="_blank">
<polygon fill="#dce9f7" stroke="#4a90d9" points="598.05,-1294 518.05,-1294 518.05,-1258 598.05,-1258 598.05,-1294"/>
<text text-anchor="middle" x="558.05" y="-1279" font-family="Helvetica" font-size="10.00">trimTrailingWS</text>
<text text-anchor="middle" x="558.05" y="-1268" font-family="Helvetica" font-size="10.00">(def)</text>
</a>
</g>
</g>
<!-- L4YAML.Scanner.collectHexDigitsLoop.match_3 -->
<g id="node2" class="node">
<title>L4YAML.Scanner.collectHexDigitsLoop.match_3</title>
<g id="a_node2"><a xlink:href="../../../api/L4YAML/Scanner/Scalar.html#L4YAML.Scanner.collectHexDigitsLoop.match_3" xlink:title="collectHexDigitsLoop.match_3\n(def)" target="_blank">
<polygon fill="#dce9f7" stroke="#4a90d9" points="633.05,-1240 483.05,-1240 483.05,-1204 633.05,-1204 633.05,-1240"/>
<text text-anchor="middle" x="558.05" y="-1225" font-family="Helvetica" font-size="10.00">collectHexDigitsLoop.match_3</text>
<text text-anchor="middle" x="558.05" y="-1214" font-family="Helvetica" font-size="10.00">(def)</text>
</a>
</g>
</g>
<!-- L4YAML.Scanner.collectSingleQuotedLoop -->
<g id="node3" class="node">
<title>L4YAML.Scanner.collectSingleQuotedLoop</title>
<g id="a_node3"><a xlink:href="../../../api/L4YAML/Scanner/Scalar.html#L4YAML.Scanner.collectSingleQuotedLoop" xlink:title="collectSingleQuotedLoop\n(def)" target="_blank">
<polygon fill="#dce9f7" stroke="#4a90d9" points="620.55,-1186 495.55,-1186 495.55,-1150 620.55,-1150 620.55,-1186"/>
<text text-anchor="middle" x="558.05" y="-1171" font-family="Helvetica" font-size="10.00">collectSingleQuotedLoop</text>
<text text-anchor="middle" x="558.05" y="-1160" font-family="Helvetica" font-size="10.00">(def)</text>
</a>
</g>
</g>
<!-- L4YAML.Scanner.ScannerState.advance -->
<g id="node4" class="node">
<title>L4YAML.Scanner.ScannerState.advance</title>
<g id="a_node4"><a xlink:href="../../../api/L4YAML/Scanner/State.html#L4YAML.Scanner.ScannerState.advance" xlink:title="ScannerState.advance\n(def)" target="_blank">
<polygon fill="#dce9f7" stroke="#4a90d9" points="615.55,-1132 500.55,-1132 500.55,-1096 615.55,-1096 615.55,-1132"/>
<text text-anchor="middle" x="558.05" y="-1117" font-family="Helvetica" font-size="10.00">ScannerState.advance</text>
<text text-anchor="middle" x="558.05" y="-1106" font-family="Helvetica" font-size="10.00">(def)</text>
</a>
</g>
</g>
<!-- L4YAML.Scanner.ScannerState.line -->
<g id="node5" class="node">
<title>L4YAML.Scanner.ScannerState.line</title>
<g id="a_node5"><a xlink:href="../../../api/L4YAML/Scanner/State.html#L4YAML.Scanner.ScannerState.line" xlink:title="ScannerState.line\n(def)" target="_blank">
<polygon fill="#dce9f7" stroke="#4a90d9" points="605.05,-1078 511.05,-1078 511.05,-1042 605.05,-1042 605.05,-1078"/>
<text text-anchor="middle" x="558.05" y="-1063" font-family="Helvetica" font-size="10.00">ScannerState.line</text>
<text text-anchor="middle" x="558.05" y="-1052" font-family="Helvetica" font-size="10.00">(def)</text>
</a>
</g>
</g>
<!-- L4YAML.Scanner.ScannerState.peek? -->
<g id="node6" class="node">
<title>L4YAML.Scanner.ScannerState.peek?</title>
<g id="a_node6"><a xlink:href="../../../api/L4YAML/Scanner/State.html#L4YAML.Scanner.ScannerState.peek?" xlink:title="ScannerState.peek?\n(def)" target="_blank">
<polygon fill="#dce9f7" stroke="#4a90d9" points="610.05,-1024 506.05,-1024 506.05,-988 610.05,-988 610.05,-1024"/>
<text text-anchor="middle" x="558.05" y="-1009" font-family="Helvetica" font-size="10.00">ScannerState.peek?</text>
<text text-anchor="middle" x="558.05" y="-998" font-family="Helvetica" font-size="10.00">(def)</text>
</a>
</g>
</g>
<!-- L4YAML.YamlPos.line -->
<g id="node7" class="node">
<title>L4YAML.YamlPos.line</title>
<g id="a_node7"><a xlink:href="../../../api/L4YAML/Spec/Types.html#L4YAML.YamlPos.line" xlink:title="YamlPos.line\n(def)" target="_blank">
<polygon fill="#dce9f7" stroke="#4a90d9" points="595.05,-970 521.05,-970 521.05,-934 595.05,-934 595.05,-970"/>
<text text-anchor="middle" x="558.05" y="-955" font-family="Helvetica" font-size="10.00">YamlPos.line</text>
<text text-anchor="middle" x="558.05" y="-944" font-family="Helvetica" font-size="10.00">(def)</text>
</a>
</g>
</g>
<!-- L4YAML.CharPredicates.isNbJsonBool -->
<g id="node8" class="node">
<title>L4YAML.CharPredicates.isNbJsonBool</title>
<g id="a_node8"><a xlink:href="../../../api/L4YAML/Spec/CharPredicates.html#L4YAML.CharPredicates.isNbJsonBool" xlink:title="CharPredicates.isNbJsonBool\n(def)" target="_blank">
<polygon fill="#dce9f7" stroke="#4a90d9" points="632.05,-916 484.05,-916 484.05,-880 632.05,-880 632.05,-916"/>
<text text-anchor="middle" x="558.05" y="-901" font-family="Helvetica" font-size="10.00">CharPredicates.isNbJsonBool</text>
<text text-anchor="middle" x="558.05" y="-890" font-family="Helvetica" font-size="10.00">(def)</text>
</a>
</g>
</g>
<!-- L4YAML.Scanner.foldQuotedNewlines -->
<g id="node9" class="node">
<title>L4YAML.Scanner.foldQuotedNewlines</title>
<g id="a_node9"><a xlink:href="../../../api/L4YAML/Scanner/Scalar.html#L4YAML.Scanner.foldQuotedNewlines" xlink:title="foldQuotedNewlines\n(def)" target="_blank">
<polygon fill="#dce9f7" stroke="#4a90d9" points="610.05,-862 506.05,-862 506.05,-826 610.05,-826 610.05,-862"/>
<text text-anchor="middle" x="558.05" y="-847" font-family="Helvetica" font-size="10.00">foldQuotedNewlines</text>
<text text-anchor="middle" x="558.05" y="-836" font-family="Helvetica" font-size="10.00">(def)</text>
</a>
</g>
</g>
<!-- L4YAML.Scanner.ScannerState -->
<g id="node10" class="node">
<title>L4YAML.Scanner.ScannerState</title>
<g id="a_node10"><a xlink:href="../../../api/L4YAML/Scanner/State.html#L4YAML.Scanner.ScannerState" xlink:title="ScannerState\n(inductive)" target="_blank">
<polygon fill="#dce9f7" stroke="#4a90d9" points="596.05,-808 520.05,-808 520.05,-772 596.05,-772 596.05,-808"/>
<text text-anchor="middle" x="558.05" y="-793" font-family="Helvetica" font-size="10.00">ScannerState</text>
<text text-anchor="middle" x="558.05" y="-782" font-family="Helvetica" font-size="10.00">(inductive)</text>
</a>
</g>
</g>
<!-- L4YAML.Scanner.atDocumentEnd -->
<g id="node11" class="node">
<title>L4YAML.Scanner.atDocumentEnd</title>
<g id="a_node11"><a xlink:href="../../../api/L4YAML/Scanner/Document.html#L4YAML.Scanner.atDocumentEnd" xlink:title="atDocumentEnd\n(def)" target="_blank">
<polygon fill="#dce9f7" stroke="#4a90d9" points="601.55,-754 514.55,-754 514.55,-718 601.55,-718 601.55,-754"/>
<text text-anchor="middle" x="558.05" y="-739" font-family="Helvetica" font-size="10.00">atDocumentEnd</text>
<text text-anchor="middle" x="558.05" y="-728" font-family="Helvetica" font-size="10.00">(def)</text>
</a>
</g>
</g>
<!-- L4YAML.Scanner.collectSingleQuotedLoop.match_1 -->
<g id="node12" class="node">
<title>L4YAML.Scanner.collectSingleQuotedLoop.match_1</title>
<g id="a_node12"><a xlink:href="../../../api/L4YAML/Scanner/Scalar.html#L4YAML.Scanner.collectSingleQuotedLoop.match_1" xlink:title="collectSingleQuotedLoop.match_1\n(def)" target="_blank">
<polygon fill="#dce9f7" stroke="#4a90d9" points="640.55,-700 475.55,-700 475.55,-664 640.55,-664 640.55,-700"/>
<text text-anchor="middle" x="558.05" y="-685" font-family="Helvetica" font-size="10.00">collectSingleQuotedLoop.match_1</text>
<text text-anchor="middle" x="558.05" y="-674" font-family="Helvetica" font-size="10.00">(def)</text>
</a>
</g>
</g>
<!-- L4YAML.ScanError.underIndentedScalar -->
<g id="node13" class="node">
<title>L4YAML.ScanError.underIndentedScalar</title>
<g id="a_node13"><a xlink:href="../../../api/L4YAML/Token/Token.html#L4YAML.ScanError.underIndentedScalar" xlink:title="ScanError.underIndentedScalar\n(ctor)" target="_blank">
<polygon fill="#dce9f7" stroke="#4a90d9" points="634.05,-646 482.05,-646 482.05,-610 634.05,-610 634.05,-646"/>
<text text-anchor="middle" x="558.05" y="-631" font-family="Helvetica" font-size="10.00">ScanError.underIndentedScalar</text>
<text text-anchor="middle" x="558.05" y="-620" font-family="Helvetica" font-size="10.00">(ctor)</text>
</a>
</g>
</g>
<!-- L4YAML.Scanner.collectSingleQuotedLoop.match_3 -->
<g id="node14" class="node">
<title>L4YAML.Scanner.collectSingleQuotedLoop.match_3</title>
<g id="a_node14"><a xlink:href="../../../api/L4YAML/Scanner/Scalar.html#L4YAML.Scanner.collectSingleQuotedLoop.match_3" xlink:title="collectSingleQuotedLoop.match_3\n(def)" target="_blank">
<polygon fill="#dce9f7" stroke="#4a90d9" points="640.55,-592 475.55,-592 475.55,-556 640.55,-556 640.55,-592"/>
<text text-anchor="middle" x="558.05" y="-577" font-family="Helvetica" font-size="10.00">collectSingleQuotedLoop.match_3</text>
<text text-anchor="middle" x="558.05" y="-566" font-family="Helvetica" font-size="10.00">(def)</text>
</a>
</g>
</g>
<!-- L4YAML.ScalarStyle.singleQuoted -->
<g id="node15" class="node">
<title>L4YAML.ScalarStyle.singleQuoted</title>
<g id="a_node15"><a xlink:href="../../../api/L4YAML/Spec/Types.html#L4YAML.ScalarStyle.singleQuoted" xlink:title="ScalarStyle.singleQuoted\n(ctor)" target="_blank">
<polygon fill="#dce9f7" stroke="#4a90d9" points="621.55,-538 494.55,-538 494.55,-502 621.55,-502 621.55,-538"/>
<text text-anchor="middle" x="558.05" y="-523" font-family="Helvetica" font-size="10.00">ScalarStyle.singleQuoted</text>
<text text-anchor="middle" x="558.05" y="-512" font-family="Helvetica" font-size="10.00">(ctor)</text>
</a>
</g>
</g>
<!-- L4YAML.ScanError.unterminatedScalar -->
<g id="node16" class="node">
<title>L4YAML.ScanError.unterminatedScalar</title>
<g id="a_node16"><a xlink:href="../../../api/L4YAML/Token/Token.html#L4YAML.ScanError.unterminatedScalar" xlink:title="ScanError.unterminatedScalar\n(ctor)" target="_blank">
<polygon fill="#dce9f7" stroke="#4a90d9" points="631.55,-484 484.55,-484 484.55,-448 631.55,-448 631.55,-484"/>
<text text-anchor="middle" x="558.05" y="-469" font-family="Helvetica" font-size="10.00">ScanError.unterminatedScalar</text>
<text text-anchor="middle" x="558.05" y="-458" font-family="Helvetica" font-size="10.00">(ctor)</text>
</a>
</g>
</g>
<!-- L4YAML.CharPredicates.isLineBreakBool -->
<g id="node17" class="node">
<title>L4YAML.CharPredicates.isLineBreakBool</title>
<g id="a_node17"><a xlink:href="../../../api/L4YAML/Spec/CharPredicates.html#L4YAML.CharPredicates.isLineBreakBool" xlink:title="CharPredicates.isLineBreakBool\n(def)" target="_blank">
<polygon fill="#dce9f7" stroke="#4a90d9" points="637.05,-430 479.05,-430 479.05,-394 637.05,-394 637.05,-430"/>
<text text-anchor="middle" x="558.05" y="-415" font-family="Helvetica" font-size="10.00">CharPredicates.isLineBreakBool</text>
<text text-anchor="middle" x="558.05" y="-404" font-family="Helvetica" font-size="10.00">(def)</text>
</a>
</g>
</g>
<!-- L4YAML.Scanner.parseHexEscape.match_1 -->
<g id="node18" class="node">
<title>L4YAML.Scanner.parseHexEscape.match_1</title>
<g id="a_node18"><a xlink:href="../../../api/L4YAML/Scanner/Scalar.html#L4YAML.Scanner.parseHexEscape.match_1" xlink:title="parseHexEscape.match_1\n(def)" target="_blank">
<polygon fill="#dce9f7" stroke="#4a90d9" points="624.55,-376 491.55,-376 491.55,-340 624.55,-340 624.55,-376"/>
<text text-anchor="middle" x="558.05" y="-361" font-family="Helvetica" font-size="10.00">parseHexEscape.match_1</text>
<text text-anchor="middle" x="558.05" y="-350" font-family="Helvetica" font-size="10.00">(def)</text>
</a>
</g>
</g>
<!-- L4YAML.ScanError.documentMarkerInScalar -->
<g id="node19" class="node">
<title>L4YAML.ScanError.documentMarkerInScalar</title>
<g id="a_node19"><a xlink:href="../../../api/L4YAML/Token/Token.html#L4YAML.ScanError.documentMarkerInScalar" xlink:title="ScanError.documentMarkerInScalar\n(ctor)" target="_blank">
<polygon fill="#dce9f7" stroke="#4a90d9" points="644.05,-322 472.05,-322 472.05,-286 644.05,-286 644.05,-322"/>
<text text-anchor="middle" x="558.05" y="-307" font-family="Helvetica" font-size="10.00">ScanError.documentMarkerInScalar</text>
<text text-anchor="middle" x="558.05" y="-296" font-family="Helvetica" font-size="10.00">(ctor)</text>
</a>
</g>
</g>
<!-- L4YAML.Scanner.atDocumentStart -->
<g id="node20" class="node">
<title>L4YAML.Scanner.atDocumentStart</title>
<g id="a_node20"><a xlink:href="../../../api/L4YAML/Scanner/Document.html#L4YAML.Scanner.atDocumentStart" xlink:title="atDocumentStart\n(def)" target="_blank">
<polygon fill="#dce9f7" stroke="#4a90d9" points="604.05,-268 512.05,-268 512.05,-232 604.05,-232 604.05,-268"/>
<text text-anchor="middle" x="558.05" y="-253" font-family="Helvetica" font-size="10.00">atDocumentStart</text>
<text text-anchor="middle" x="558.05" y="-242" font-family="Helvetica" font-size="10.00">(def)</text>
</a>
</g>
</g>
<!-- L4YAML.Scanner.ScannerState.col -->
<g id="node21" class="node">
<title>L4YAML.Scanner.ScannerState.col</title>
<g id="a_node21"><a xlink:href="../../../api/L4YAML/Scanner/State.html#L4YAML.Scanner.ScannerState.col" xlink:title="ScannerState.col\n(def)" target="_blank">
<polygon fill="#dce9f7" stroke="#4a90d9" points="604.05,-214 512.05,-214 512.05,-178 604.05,-178 604.05,-214"/>
<text text-anchor="middle" x="558.05" y="-199" font-family="Helvetica" font-size="10.00">ScannerState.col</text>
<text text-anchor="middle" x="558.05" y="-188" font-family="Helvetica" font-size="10.00">(def)</text>
</a>
</g>
</g>
<!-- L4YAML.ScanError.invalidControlChar -->
<g id="node22" class="node">
<title>L4YAML.ScanError.invalidControlChar</title>
<g id="a_node22"><a xlink:href="../../../api/L4YAML/Token/Token.html#L4YAML.ScanError.invalidControlChar" xlink:title="ScanError.invalidControlChar\n(ctor)" target="_blank">
<polygon fill="#dce9f7" stroke="#4a90d9" points="629.55,-160 486.55,-160 486.55,-124 629.55,-124 629.55,-160"/>
<text text-anchor="middle" x="558.05" y="-145" font-family="Helvetica" font-size="10.00">ScanError.invalidControlChar</text>
<text text-anchor="middle" x="558.05" y="-134" font-family="Helvetica" font-size="10.00">(ctor)</text>
</a>
</g>
</g>
<!-- L4YAML.YamlPos -->
<g id="node23" class="node">
<title>L4YAML.YamlPos</title>
<g id="a_node23"><a xlink:href="../../../api/L4YAML/Spec/Types.html#L4YAML.YamlPos" xlink:title="YamlPos\n(inductive)" target="_blank">
<polygon fill="#dce9f7" stroke="#4a90d9" points="589.05,-106 527.05,-106 527.05,-70 589.05,-70 589.05,-106"/>
<text text-anchor="middle" x="558.05" y="-91" font-family="Helvetica" font-size="10.00">YamlPos</text>
<text text-anchor="middle" x="558.05" y="-80" font-family="Helvetica" font-size="10.00">(inductive)</text>
</a>
</g>
</g>
<!-- L4YAML.ScanError -->
<g id="node24" class="node">
<title>L4YAML.ScanError</title>
<g id="a_node24"><a xlink:href="../../../api/L4YAML/Token/Token.html#L4YAML.ScanError" xlink:title="ScanError\n(inductive)" target="_blank">
<polygon fill="#dce9f7" stroke="#4a90d9" points="589.05,-52 527.05,-52 527.05,-16 589.05,-16 589.05,-52"/>
<text text-anchor="middle" x="558.05" y="-37" font-family="Helvetica" font-size="10.00">ScanError</text>
<text text-anchor="middle" x="558.05" y="-26" font-family="Helvetica" font-size="10.00">(inductive)</text>
</a>
</g>
</g>
<!-- L4YAML.Scanner.collectSingleQuotedLoop.eq_def -->
<g id="node25" class="node">
<title>L4YAML.Scanner.collectSingleQuotedLoop.eq_def</title>
<g id="a_node25"><a xlink:href="../../../api/L4YAML/Proofs/Coupling/ScalarCoupling.html#L4YAML.Scanner.collectSingleQuotedLoop.eq_def" xlink:title="collectSingleQuotedLoop.eq_def" target="_blank">
<polygon fill="#fff3cd" stroke="#d4a017" points="406.98,-646.54 406.98,-661.46 332.08,-672 226.15,-672 151.25,-661.46 151.25,-646.54 226.15,-636 332.08,-636 406.98,-646.54"/>
<polygon fill="none" stroke="#d4a017" points="410.98,-643.07 410.98,-664.93 332.36,-676 225.87,-676 147.26,-664.93 147.26,-643.07 225.87,-632 332.36,-632 410.98,-643.07"/>
<text text-anchor="middle" x="279.12" y="-650.9" font-family="Helvetica" font-size="12.00">collectSingleQuotedLoop.eq_def</text>
</a>
</g>
</g>
<!-- L4YAML.Scanner.collectSingleQuotedLoop.eq_def&#45;&gt;L4YAML.Scanner.trimTrailingWS -->
<g id="edge16" class="edge">
<title>L4YAML.Scanner.collectSingleQuotedLoop.eq_def&#45;&gt;L4YAML.Scanner.trimTrailingWS</title>
<path fill="none" stroke="#4a90d9" stroke-width="2" d="M283.38,-676.24C295.1,-752.25 339.25,-1007.64 429.05,-1199 440.57,-1223.56 441.99,-1233.21 464.05,-1249 477.68,-1258.76 494.81,-1265.01 510.63,-1269.01"/>
<polygon fill="#4a90d9" stroke="#4a90d9" stroke-width="2" points="510.42,-1271.48 517.8,-1270.69 511.54,-1266.71 510.42,-1271.48"/>
<text text-anchor="middle" x="441.55" y="-1242.6" font-family="Times-Roman" font-size="8.00" fill="#4a90d9">about</text>
</g>
<!-- L4YAML.Scanner.collectSingleQuotedLoop.eq_def&#45;&gt;L4YAML.Scanner.collectHexDigitsLoop.match_3 -->
<g id="edge12" class="edge">
<title>L4YAML.Scanner.collectSingleQuotedLoop.eq_def&#45;&gt;L4YAML.Scanner.collectHexDigitsLoop.match_3</title>
<path fill="none" stroke="#4a90d9" stroke-width="2" d="M284.29,-676.46C298.07,-747.77 346.07,-974.37 429.05,-1145 440.91,-1169.39 441.99,-1179.21 464.05,-1195 467.91,-1197.76 472.04,-1200.24 476.35,-1202.47"/>
<polygon fill="#4a90d9" stroke="#4a90d9" stroke-width="2" points="475.4,-1204.73 482.77,-1205.56 477.53,-1200.32 475.4,-1204.73"/>
<text text-anchor="middle" x="441.55" y="-1188.6" font-family="Times-Roman" font-size="8.00" fill="#4a90d9">about</text>
</g>
<!-- L4YAML.Scanner.collectSingleQuotedLoop.eq_def&#45;&gt;L4YAML.Scanner.collectSingleQuotedLoop -->
<g id="edge6" class="edge">
<title>L4YAML.Scanner.collectSingleQuotedLoop.eq_def&#45;&gt;L4YAML.Scanner.collectSingleQuotedLoop</title>
<path fill="none" stroke="#4a90d9" stroke-width="2" d="M285.4,-676.16C301.5,-741.72 353.5,-939.52 429.05,-1090 441.38,-1114.57 441.77,-1124.89 464.05,-1141 471.43,-1146.34 479.86,-1150.62 488.55,-1154.07"/>
<polygon fill="#4a90d9" stroke="#4a90d9" stroke-width="2" points="487.82,-1156.41 495.24,-1156.54 489.52,-1151.82 487.82,-1156.41"/>
<text text-anchor="middle" x="441.55" y="-1134.6" font-family="Times-Roman" font-size="8.00" fill="#4a90d9">about</text>
</g>
<!-- L4YAML.Scanner.collectSingleQuotedLoop.eq_def&#45;&gt;L4YAML.Scanner.ScannerState.advance -->
<g id="edge2" class="edge">
<title>L4YAML.Scanner.collectSingleQuotedLoop.eq_def&#45;&gt;L4YAML.Scanner.ScannerState.advance</title>
<path fill="none" stroke="#4a90d9" stroke-width="2" d="M287.32,-676.28C306.82,-735.53 363.57,-901.27 429.05,-1031 442.27,-1057.2 440.64,-1069.3 464.05,-1087 472.74,-1093.57 482.99,-1098.55 493.45,-1102.31"/>
<polygon fill="#4a90d9" stroke="#4a90d9" stroke-width="2" points="492.93,-1104.72 500.34,-1104.61 494.48,-1100.07 492.93,-1104.72"/>
<text text-anchor="middle" x="441.55" y="-1079.6" font-family="Times-Roman" font-size="8.00" fill="#4a90d9">about</text>
</g>
<!-- L4YAML.Scanner.collectSingleQuotedLoop.eq_def&#45;&gt;L4YAML.Scanner.ScannerState.line -->
<g id="edge22" class="edge">
<title>L4YAML.Scanner.collectSingleQuotedLoop.eq_def&#45;&gt;L4YAML.Scanner.ScannerState.line</title>
<path fill="none" stroke="#4a90d9" stroke-width="2" d="M283.6,-676.01C295.34,-742.23 339.9,-940.73 464.05,-1033 475.76,-1041.7 490.22,-1047.61 504.22,-1051.61"/>
<polygon fill="#4a90d9" stroke="#4a90d9" stroke-width="2" points="503.65,-1054 511.04,-1053.43 504.91,-1049.26 503.65,-1054"/>
<text text-anchor="middle" x="441.55" y="-1020.6" font-family="Times-Roman" font-size="8.00" fill="#4a90d9">about</text>
</g>
<!-- L4YAML.Scanner.collectSingleQuotedLoop.eq_def&#45;&gt;L4YAML.Scanner.ScannerState.peek? -->
<g id="edge21" class="edge">
<title>L4YAML.Scanner.collectSingleQuotedLoop.eq_def&#45;&gt;L4YAML.Scanner.ScannerState.peek?</title>
<path fill="none" stroke="#4a90d9" stroke-width="2" d="M285.72,-676.04C302.03,-735.43 355.38,-899.69 464.05,-979 474.36,-986.53 486.74,-991.96 499.05,-995.89"/>
<polygon fill="#4a90d9" stroke="#4a90d9" stroke-width="2" points="498.46,-998.27 505.87,-997.92 499.86,-993.57 498.46,-998.27"/>
<text text-anchor="middle" x="441.55" y="-968.6" font-family="Times-Roman" font-size="8.00" fill="#4a90d9">about</text>
</g>
<!-- L4YAML.Scanner.collectSingleQuotedLoop.eq_def&#45;&gt;L4YAML.YamlPos.line -->
<g id="edge3" class="edge">
<title>L4YAML.Scanner.collectSingleQuotedLoop.eq_def&#45;&gt;L4YAML.YamlPos.line</title>
<path fill="none" stroke="#4a90d9" stroke-width="2" d="M288.75,-676.16C310.13,-728.06 370.65,-858.14 464.05,-925 478.64,-935.45 497.23,-941.88 513.96,-945.82"/>
<polygon fill="#4a90d9" stroke="#4a90d9" stroke-width="2" points="513.63,-948.26 520.99,-947.37 514.68,-943.47 513.63,-948.26"/>
<text text-anchor="middle" x="441.55" y="-916.6" font-family="Times-Roman" font-size="8.00" fill="#4a90d9">about</text>
</g>
<!-- L4YAML.Scanner.collectSingleQuotedLoop.eq_def&#45;&gt;L4YAML.CharPredicates.isNbJsonBool -->
<g id="edge24" class="edge">
<title>L4YAML.Scanner.collectSingleQuotedLoop.eq_def&#45;&gt;L4YAML.CharPredicates.isNbJsonBool</title>
<path fill="none" stroke="#4a90d9" stroke-width="2" d="M292.71,-676.17C318.82,-720.13 383.24,-818.62 464.05,-871 468.12,-873.64 472.46,-876.03 476.96,-878.19"/>
<polygon fill="#4a90d9" stroke="#4a90d9" stroke-width="2" points="476.25,-880.56 483.64,-881.2 478.26,-876.09 476.25,-880.56"/>
<text text-anchor="middle" x="441.55" y="-864.6" font-family="Times-Roman" font-size="8.00" fill="#4a90d9">about</text>
</g>
<!-- L4YAML.Scanner.collectSingleQuotedLoop.eq_def&#45;&gt;L4YAML.Scanner.foldQuotedNewlines -->
<g id="edge23" class="edge">
<title>L4YAML.Scanner.collectSingleQuotedLoop.eq_def&#45;&gt;L4YAML.Scanner.foldQuotedNewlines</title>
<path fill="none" stroke="#4a90d9" stroke-width="2" d="M299.01,-676.15C330,-711.11 395.11,-778.99 464.05,-817 474.76,-822.9 486.89,-827.63 498.76,-831.38"/>
<polygon fill="#4a90d9" stroke="#4a90d9" stroke-width="2" points="498.31,-833.8 505.72,-833.47 499.72,-829.1 498.31,-833.8"/>
<text text-anchor="middle" x="441.55" y="-812.6" font-family="Times-Roman" font-size="8.00" fill="#4a90d9">about</text>
</g>
<!-- L4YAML.Scanner.collectSingleQuotedLoop.eq_def&#45;&gt;L4YAML.Scanner.ScannerState -->
<g id="edge13" class="edge">
<title>L4YAML.Scanner.collectSingleQuotedLoop.eq_def&#45;&gt;L4YAML.Scanner.ScannerState</title>
<path fill="none" stroke="#4a90d9" stroke-width="2" d="M311.69,-676.08C347.32,-700.18 407.68,-738.58 464.05,-763 479.43,-769.66 496.94,-775.23 512.59,-779.55"/>
<polygon fill="#4a90d9" stroke="#4a90d9" stroke-width="2" points="512.24,-781.99 519.63,-781.44 513.51,-777.26 512.24,-781.99"/>
<text text-anchor="middle" x="441.55" y="-760.6" font-family="Times-Roman" font-size="8.00" fill="#4a90d9">about</text>
</g>
<!-- L4YAML.Scanner.collectSingleQuotedLoop.eq_def&#45;&gt;L4YAML.Scanner.atDocumentEnd -->
<g id="edge17" class="edge">
<title>L4YAML.Scanner.collectSingleQuotedLoop.eq_def&#45;&gt;L4YAML.Scanner.atDocumentEnd</title>
<path fill="none" stroke="#4a90d9" stroke-width="2" d="M346.91,-674.11C381.8,-684.58 425.2,-697.55 464.05,-709 478.18,-713.17 493.54,-717.64 507.63,-721.73"/>
<polygon fill="#4a90d9" stroke="#4a90d9" stroke-width="2" points="507.03,-724.11 514.43,-723.71 508.39,-719.4 507.03,-724.11"/>
<text text-anchor="middle" x="441.55" y="-706.6" font-family="Times-Roman" font-size="8.00" fill="#4a90d9">about</text>
</g>
<!-- L4YAML.Scanner.collectSingleQuotedLoop.eq_def&#45;&gt;L4YAML.Scanner.collectSingleQuotedLoop.match_1 -->
<g id="edge5" class="edge">
<title>L4YAML.Scanner.collectSingleQuotedLoop.eq_def&#45;&gt;L4YAML.Scanner.collectSingleQuotedLoop.match_1</title>
<path fill="none" stroke="#4a90d9" stroke-width="2" d="M401.58,-666.28C424.04,-668.55 447.1,-670.88 468.36,-673.03"/>
<polygon fill="#4a90d9" stroke="#4a90d9" stroke-width="2" points="468.29,-675.49 475.5,-673.75 468.78,-670.61 468.29,-675.49"/>
<text text-anchor="middle" x="441.55" y="-673.6" font-family="Times-Roman" font-size="8.00" fill="#4a90d9">about</text>
</g>
<!-- L4YAML.Scanner.collectSingleQuotedLoop.eq_def&#45;&gt;L4YAML.ScanError.underIndentedScalar -->
<g id="edge19" class="edge">
<title>L4YAML.Scanner.collectSingleQuotedLoop.eq_def&#45;&gt;L4YAML.ScanError.underIndentedScalar</title>
<path fill="none" stroke="#4a90d9" stroke-width="2" d="M405.21,-642.26C428.88,-640.03 453.08,-637.76 475,-635.7"/>
<polygon fill="#4a90d9" stroke="#4a90d9" stroke-width="2" points="475.29,-638.14 482.03,-635.04 474.83,-633.26 475.29,-638.14"/>
<text text-anchor="middle" x="441.55" y="-641.6" font-family="Times-Roman" font-size="8.00" fill="#4a90d9">about</text>
</g>
<!-- L4YAML.Scanner.collectSingleQuotedLoop.eq_def&#45;&gt;L4YAML.Scanner.collectSingleQuotedLoop.match_3 -->
<g id="edge4" class="edge">
<title>L4YAML.Scanner.collectSingleQuotedLoop.eq_def&#45;&gt;L4YAML.Scanner.collectSingleQuotedLoop.match_3</title>
<path fill="none" stroke="#4a90d9" stroke-width="2" d="M348.57,-634.22C390.99,-621.97 445.3,-606.28 487.86,-593.99"/>
<polygon fill="#4a90d9" stroke="#4a90d9" stroke-width="2" points="488.54,-596.34 494.58,-592.04 487.18,-591.63 488.54,-596.34"/>
<text text-anchor="middle" x="441.55" y="-611.6" font-family="Times-Roman" font-size="8.00" fill="#4a90d9">about</text>
</g>
<!-- L4YAML.Scanner.collectSingleQuotedLoop.eq_def&#45;&gt;L4YAML.ScalarStyle.singleQuoted -->
<g id="edge10" class="edge">
<title>L4YAML.Scanner.collectSingleQuotedLoop.eq_def&#45;&gt;L4YAML.ScalarStyle.singleQuoted</title>
<path fill="none" stroke="#4a90d9" stroke-width="2" d="M312.4,-631.93C348.17,-608.29 408.19,-570.93 464.05,-547 471.53,-543.79 479.52,-540.83 487.54,-538.14"/>
<polygon fill="#4a90d9" stroke="#4a90d9" stroke-width="2" points="488.38,-540.44 494.28,-535.94 486.86,-535.79 488.38,-540.44"/>
<text text-anchor="middle" x="441.55" y="-563.6" font-family="Times-Roman" font-size="8.00" fill="#4a90d9">about</text>
</g>
<!-- L4YAML.Scanner.collectSingleQuotedLoop.eq_def&#45;&gt;L4YAML.ScanError.unterminatedScalar -->
<g id="edge8" class="edge">
<title>L4YAML.Scanner.collectSingleQuotedLoop.eq_def&#45;&gt;L4YAML.ScanError.unterminatedScalar</title>
<path fill="none" stroke="#4a90d9" stroke-width="2" d="M299.33,-631.85C330.5,-597.26 395.55,-530.49 464.05,-493 468.41,-490.61 473,-488.42 477.72,-486.4"/>
<polygon fill="#4a90d9" stroke="#4a90d9" stroke-width="2" points="478.65,-488.67 484.21,-483.76 476.8,-484.13 478.65,-488.67"/>
<text text-anchor="middle" x="441.55" y="-515.6" font-family="Times-Roman" font-size="8.00" fill="#4a90d9">about</text>
</g>
<!-- L4YAML.Scanner.collectSingleQuotedLoop.eq_def&#45;&gt;L4YAML.CharPredicates.isLineBreakBool -->
<g id="edge9" class="edge">
<title>L4YAML.Scanner.collectSingleQuotedLoop.eq_def&#45;&gt;L4YAML.CharPredicates.isLineBreakBool</title>
<path fill="none" stroke="#4a90d9" stroke-width="2" d="M292.96,-631.7C319.3,-587.99 383.76,-490.79 464.05,-439 467.32,-436.89 470.75,-434.95 474.3,-433.15"/>
<polygon fill="#4a90d9" stroke="#4a90d9" stroke-width="2" points="475.52,-435.28 480.79,-430.07 473.42,-430.85 475.52,-435.28"/>
<text text-anchor="middle" x="441.55" y="-463.6" font-family="Times-Roman" font-size="8.00" fill="#4a90d9">about</text>
</g>
<!-- L4YAML.Scanner.collectSingleQuotedLoop.eq_def&#45;&gt;L4YAML.Scanner.parseHexEscape.match_1 -->
<g id="edge14" class="edge">
<title>L4YAML.Scanner.collectSingleQuotedLoop.eq_def&#45;&gt;L4YAML.Scanner.parseHexEscape.match_1</title>
<path fill="none" stroke="#4a90d9" stroke-width="2" d="M288.77,-631.96C310.19,-580.36 370.81,-451.08 464.05,-385 470.35,-380.53 477.38,-376.8 484.68,-373.68"/>
<polygon fill="#4a90d9" stroke="#4a90d9" stroke-width="2" points="485.86,-375.85 491.45,-370.99 484.04,-371.3 485.86,-375.85"/>
<text text-anchor="middle" x="441.55" y="-414.6" font-family="Times-Roman" font-size="8.00" fill="#4a90d9">about</text>
</g>
<!-- L4YAML.Scanner.collectSingleQuotedLoop.eq_def&#45;&gt;L4YAML.ScanError.documentMarkerInScalar -->
<g id="edge18" class="edge">
<title>L4YAML.Scanner.collectSingleQuotedLoop.eq_def&#45;&gt;L4YAML.ScanError.documentMarkerInScalar</title>
<path fill="none" stroke="#4a90d9" stroke-width="2" d="M285.85,-631.63C302.35,-572.14 355.79,-409.26 464.05,-331 466.8,-329.01 469.69,-327.17 472.69,-325.46"/>
<polygon fill="#4a90d9" stroke="#4a90d9" stroke-width="2" points="473.94,-327.58 478.98,-322.14 471.65,-323.24 473.94,-327.58"/>
<text text-anchor="middle" x="441.55" y="-358.6" font-family="Times-Roman" font-size="8.00" fill="#4a90d9">about</text>
</g>
<!-- L4YAML.Scanner.collectSingleQuotedLoop.eq_def&#45;&gt;L4YAML.Scanner.atDocumentStart -->
<g id="edge20" class="edge">
<title>L4YAML.Scanner.collectSingleQuotedLoop.eq_def&#45;&gt;L4YAML.Scanner.atDocumentStart</title>
<path fill="none" stroke="#4a90d9" stroke-width="2" d="M283.7,-631.6C295.6,-565.15 340.33,-368.13 464.05,-277 476.03,-268.17 490.84,-262.22 505.1,-258.22"/>
<polygon fill="#4a90d9" stroke="#4a90d9" stroke-width="2" points="505.89,-260.54 512.04,-256.4 504.65,-255.8 505.89,-260.54"/>
<text text-anchor="middle" x="441.55" y="-308.6" font-family="Times-Roman" font-size="8.00" fill="#4a90d9">about</text>
</g>
<!-- L4YAML.Scanner.collectSingleQuotedLoop.eq_def&#45;&gt;L4YAML.Scanner.ScannerState.col -->
<g id="edge1" class="edge">
<title>L4YAML.Scanner.collectSingleQuotedLoop.eq_def&#45;&gt;L4YAML.Scanner.ScannerState.col</title>
<path fill="none" stroke="#4a90d9" stroke-width="2" d="M287.2,-631.66C306.41,-572.26 362.5,-406.19 429.05,-277 442.14,-251.57 441.09,-240.06 464.05,-223 475.99,-214.12 490.79,-208.16 505.05,-204.15"/>
<polygon fill="#4a90d9" stroke="#4a90d9" stroke-width="2" points="505.84,-206.48 511.99,-202.34 504.6,-201.74 505.84,-206.48"/>
<text text-anchor="middle" x="441.55" y="-279.6" font-family="Times-Roman" font-size="8.00" fill="#4a90d9">about</text>
</g>
<!-- L4YAML.Scanner.collectSingleQuotedLoop.eq_def&#45;&gt;L4YAML.ScanError.invalidControlChar -->
<g id="edge7" class="edge">
<title>L4YAML.Scanner.collectSingleQuotedLoop.eq_def&#45;&gt;L4YAML.ScanError.invalidControlChar</title>
<path fill="none" stroke="#4a90d9" stroke-width="2" d="M285.27,-631.77C301,-566.02 352.09,-367.76 429.05,-218 441.28,-194.2 442.21,-184.47 464.05,-169 468.88,-165.58 474.14,-162.58 479.62,-159.97"/>
<polygon fill="#4a90d9" stroke="#4a90d9" stroke-width="2" points="480.75,-162.15 486.15,-157.07 478.76,-157.67 480.75,-162.15"/>
<text text-anchor="middle" x="441.55" y="-220.6" font-family="Times-Roman" font-size="8.00" fill="#4a90d9">about</text>
</g>
<!-- L4YAML.Scanner.collectSingleQuotedLoop.eq_def&#45;&gt;L4YAML.YamlPos -->
<g id="edge11" class="edge">
<title>L4YAML.Scanner.collectSingleQuotedLoop.eq_def&#45;&gt;L4YAML.YamlPos</title>
<path fill="none" stroke="#4a90d9" stroke-width="2" d="M284.23,-631.55C297.84,-560.29 345.37,-333.89 429.05,-164 440.87,-139.99 442.21,-130.47 464.05,-115 480.4,-103.41 501.68,-96.76 519.76,-92.96"/>
<polygon fill="#4a90d9" stroke="#4a90d9" stroke-width="2" points="520.37,-95.34 526.77,-91.6 519.43,-90.53 520.37,-95.34"/>
<text text-anchor="middle" x="441.55" y="-166.6" font-family="Times-Roman" font-size="8.00" fill="#4a90d9">about</text>
</g>
<!-- L4YAML.Scanner.collectSingleQuotedLoop.eq_def&#45;&gt;L4YAML.ScanError -->
<g id="edge15" class="edge">
<title>L4YAML.Scanner.collectSingleQuotedLoop.eq_def&#45;&gt;L4YAML.ScanError</title>
<path fill="none" stroke="#4a90d9" stroke-width="2" d="M283.32,-631.77C294.85,-555.79 338.45,-300.58 429.05,-110 440.54,-85.83 442.21,-76.47 464.05,-61 480.4,-49.41 501.68,-42.76 519.76,-38.96"/>
<polygon fill="#4a90d9" stroke="#4a90d9" stroke-width="2" points="520.37,-41.34 526.77,-37.6 519.43,-36.53 520.37,-41.34"/>
<text text-anchor="middle" x="441.55" y="-112.6" font-family="Times-Roman" font-size="8.00" fill="#4a90d9">about</text>
</g>
<!-- Nat.brecOn.eq -->
<g id="node26" class="node">
<title>Nat.brecOn.eq</title>
<g id="a_node26"><a xlink:href="../../../api/Init/Prelude.html#Nat.brecOn.eq" xlink:title="Nat.brecOn.eq" target="_blank">
<ellipse fill="#fdebd0" stroke="#e67e22" cx="63.09" cy="-654" rx="47.19" ry="18"/>
<text text-anchor="middle" x="63.09" y="-651.5" font-family="Helvetica" font-size="10.00">Nat.brecOn.eq</text>
</a>
</g>
</g>
<!-- Nat.brecOn.eq&#45;&gt;L4YAML.Scanner.collectSingleQuotedLoop.eq_def -->
<g id="edge25" class="edge">
<title>Nat.brecOn.eq&#45;&gt;L4YAML.Scanner.collectSingleQuotedLoop.eq_def</title>
<path fill="none" stroke="#e67e22" stroke-width="2" d="M110.27,-654C119.36,-654 129.32,-654 139.71,-654"/>
<polygon fill="#e67e22" stroke="#e67e22" stroke-width="2" points="139.97,-656.45 146.97,-654 139.97,-651.55 139.97,-656.45"/>
</g>
</g>
</svg>
