<?xml version="1.0" encoding="UTF-8" standalone="no"?>
<!DOCTYPE svg PUBLIC "-//W3C//DTD SVG 1.1//EN"
 "http://www.w3.org/Graphics/SVG/1.1/DTD/svg11.dtd">
<!-- Generated by graphviz version 2.44.0 (0)
 -->
<!-- Title: chain_SchemaResolution.isNull_empty Pages: 1 -->
<svg width="1112pt" height="201pt"
 viewBox="0.00 0.00 1112.00 200.92" xmlns="http://www.w3.org/2000/svg" xmlns:xlink="http://www.w3.org/1999/xlink">
<g id="graph0" class="graph" transform="scale(1 1) rotate(0) translate(4 196.92)">
<title>chain_SchemaResolution.isNull_empty</title>
<polygon fill="white" stroke="transparent" points="-4,4 -4,-196.92 1108,-196.92 1108,4 -4,4"/>
<text text-anchor="middle" x="552" y="-178.52" font-family="Helvetica Bold" font-size="13.00">Structural theorem: SchemaResolution.isNull_empty\nProof is a witness / injection — no fibration depth\n5.6 Schema resolution correctness (§10.3 bundle representative)</text>
<g id="clust1" class="cluster">
<title>cluster_direct</title>
<polygon fill="none" stroke="#4a90d9" stroke-dasharray="5,2" points="395.5,-8 395.5,-82 708.5,-82 708.5,-8 395.5,-8"/>
<text text-anchor="middle" x="552" y="-67.6" font-family="Helvetica Bold" font-size="13.00" fill="#4a90d9">About (no chain extends — proof is structural)</text>
</g>
<!-- L4YAML.Proofs.SchemaResolution.isNull_empty -->
<g id="node1" class="node">
<title>L4YAML.Proofs.SchemaResolution.isNull_empty</title>
<polygon fill="#fff3cd" stroke="#d4a017" points="672.36,-134.46 672.36,-153.46 601.56,-166.89 501.44,-166.89 430.64,-153.46 430.64,-134.46 501.44,-121.03 601.56,-121.03 672.36,-134.46"/>
<polygon fill="none" stroke="#d4a017" points="676.36,-131.16 676.36,-156.77 601.94,-170.88 501.06,-170.88 426.64,-156.77 426.64,-131.16 501.06,-117.04 601.94,-117.04 676.36,-131.16"/>
<text text-anchor="middle" x="551.5" y="-146.96" font-family="Helvetica" font-size="10.00">SchemaResolution.isNull_empty</text>
<text text-anchor="middle" x="551.5" y="-135.96" font-family="Helvetica" font-size="10.00">(structural)</text>
</g>
<!-- L4YAML.Schema.isNull -->
<g id="node2" class="node">
<title>L4YAML.Schema.isNull</title>
<g id="a_node2"><a xlink:href="../../../api/L4YAML/Schema/Schema.html#L4YAML.Schema.isNull" xlink:title="Schema.isNull" target="_blank">
<polygon fill="#dce9f7" stroke="#4a90d9" points="591.5,-52 511.5,-52 511.5,-16 591.5,-16 591.5,-52"/>
<text text-anchor="middle" x="551.5" y="-31.5" font-family="Helvetica" font-size="10.00">Schema.isNull</text>
</a>
</g>
</g>
<!-- L4YAML.Proofs.SchemaResolution.isNull_empty&#45;&gt;L4YAML.Schema.isNull -->
<g id="edge1" class="edge">
<title>L4YAML.Proofs.SchemaResolution.isNull_empty&#45;&gt;L4YAML.Schema.isNull</title>
<path fill="none" stroke="#4a90d9" stroke-width="2" d="M551.5,-116.83C551.5,-99.4 551.5,-76.64 551.5,-59.55"/>
<polygon fill="#4a90d9" stroke="#4a90d9" stroke-width="2" points="553.95,-59.14 551.5,-52.14 549.05,-59.14 553.95,-59.14"/>
<text text-anchor="middle" x="564" y="-92.6" font-family="Times-Roman" font-size="8.00" fill="#4a90d9">about</text>
</g>
</g>
</svg>
