<?xml version="1.0" encoding="UTF-8" standalone="no"?>
<!DOCTYPE svg PUBLIC "-//W3C//DTD SVG 1.1//EN"
 "http://www.w3.org/Graphics/SVG/1.1/DTD/svg11.dtd">
<!-- Generated by graphviz version 2.44.0 (0)
 -->
<!-- Title: chain_StreamAccum.block_dispatch_deferred Pages: 1 -->
<svg width="994pt" height="201pt"
 viewBox="0.00 0.00 994.00 200.92" xmlns="http://www.w3.org/2000/svg" xmlns:xlink="http://www.w3.org/1999/xlink">
<g id="graph0" class="graph" transform="scale(1 1) rotate(0) translate(4 196.92)">
<title>chain_StreamAccum.block_dispatch_deferred</title>
<polygon fill="white" stroke="transparent" points="-4,4 -4,-196.92 990,-196.92 990,4 -4,4"/>
<text text-anchor="middle" x="493" y="-178.52" font-family="Helvetica Bold" font-size="13.00">Structural theorem: StreamAccum.block_dispatch_deferred\nProof is a witness / injection — no fibration depth\n(heuristic: used by 6 proofs)</text>
<g id="clust1" class="cluster">
<title>cluster_direct</title>
<polygon fill="none" stroke="#4a90d9" stroke-dasharray="5,2" points="8,-8 8,-82 978,-82 978,-8 8,-8"/>
<text text-anchor="middle" x="493" y="-67.6" font-family="Helvetica Bold" font-size="13.00" fill="#4a90d9">About (no chain extends — proof is structural)</text>
</g>
<!-- L4YAML.Proofs.StreamAccum.block_dispatch_deferred -->
<g id="node1" class="node">
<title>L4YAML.Proofs.StreamAccum.block_dispatch_deferred</title>
<polygon fill="#fff3cd" stroke="#d4a017" points="683.78,-134.46 683.78,-153.46 599.56,-166.89 480.44,-166.89 396.22,-153.46 396.22,-134.46 480.44,-121.03 599.56,-121.03 683.78,-134.46"/>
<polygon fill="none" stroke="#d4a017" points="687.78,-131.06 687.78,-156.87 599.87,-170.88 480.13,-170.88 392.22,-156.87 392.22,-131.06 480.13,-117.04 599.87,-117.04 687.78,-131.06"/>
<text text-anchor="middle" x="540" y="-146.96" font-family="Helvetica" font-size="10.00">StreamAccum.block_dispatch_deferred</text>
<text text-anchor="middle" x="540" y="-135.96" font-family="Helvetica" font-size="10.00">(structural)</text>
</g>
<!-- L4YAML.Proofs.StreamAccum.PendingNode -->
<g id="node2" class="node">
<title>L4YAML.Proofs.StreamAccum.PendingNode</title>
<g id="a_node2"><a xlink:href="../../../api/L4YAML/Proofs/Production/StreamAccum.html#L4YAML.Proofs.StreamAccum.PendingNode" xlink:title="StreamAccum.PendingNode" target="_blank">
<polygon fill="#dce9f7" stroke="#4a90d9" points="156,-52 16,-52 16,-16 156,-16 156,-52"/>
<text text-anchor="middle" x="86" y="-31.5" font-family="Helvetica" font-size="10.00">StreamAccum.PendingNode</text>
</a>
</g>
</g>
<!-- L4YAML.Proofs.StreamAccum.block_dispatch_deferred&#45;&gt;L4YAML.Proofs.StreamAccum.PendingNode -->
<g id="edge1" class="edge">
<title>L4YAML.Proofs.StreamAccum.block_dispatch_deferred&#45;&gt;L4YAML.Proofs.StreamAccum.PendingNode</title>
<path fill="none" stroke="#4a90d9" stroke-width="2" d="M392.08,-131.84C321.72,-123.32 237.37,-108.33 165,-82 147.55,-75.65 129.64,-65.36 115.29,-56.03"/>
<polygon fill="#4a90d9" stroke="#4a90d9" stroke-width="2" points="116.56,-53.93 109.37,-52.1 113.85,-58.01 116.56,-53.93"/>
<text text-anchor="middle" x="227.5" y="-92.6" font-family="Times-Roman" font-size="8.00" fill="#4a90d9">about</text>
</g>
<!-- L4YAML.Proofs.StreamAccum.BlockStack -->
<g id="node3" class="node">
<title>L4YAML.Proofs.StreamAccum.BlockStack</title>
<g id="a_node3"><a xlink:href="../../../api/L4YAML/Proofs/Production/StreamAccum.html#L4YAML.Proofs.StreamAccum.BlockStack" xlink:title="StreamAccum.BlockStack" target="_blank">
<polygon fill="#dce9f7" stroke="#4a90d9" points="306,-52 174,-52 174,-16 306,-16 306,-52"/>
<text text-anchor="middle" x="240" y="-31.5" font-family="Helvetica" font-size="10.00">StreamAccum.BlockStack</text>
</a>
</g>
</g>
<!-- L4YAML.Proofs.StreamAccum.block_dispatch_deferred&#45;&gt;L4YAML.Proofs.StreamAccum.BlockStack -->
<g id="edge2" class="edge">
<title>L4YAML.Proofs.StreamAccum.block_dispatch_deferred&#45;&gt;L4YAML.Proofs.StreamAccum.BlockStack</title>
<path fill="none" stroke="#4a90d9" stroke-width="2" d="M442.06,-123.09C401.78,-113.22 355.23,-99.59 315,-82 299.13,-75.06 282.69,-65.12 269.26,-56.16"/>
<polygon fill="#4a90d9" stroke="#4a90d9" stroke-width="2" points="270.49,-54.03 263.32,-52.13 267.74,-58.09 270.49,-54.03"/>
<text text-anchor="middle" x="369.5" y="-92.6" font-family="Times-Roman" font-size="8.00" fill="#4a90d9">about</text>
</g>
<!-- L4YAML.Proofs.CouplingBridge.ScannerSurfCorr -->
<g id="node4" class="node">
<title>L4YAML.Proofs.CouplingBridge.ScannerSurfCorr</title>
<g id="a_node4"><a xlink:href="../../../api/L4YAML/Proofs/Coupling/CouplingBridge.html#L4YAML.Proofs.CouplingBridge.ScannerSurfCorr" xlink:title="CouplingBridge.ScannerSurfCorr" target="_blank">
<polygon fill="#dce9f7" stroke="#4a90d9" points="483.5,-52 324.5,-52 324.5,-16 483.5,-16 483.5,-52"/>
<text text-anchor="middle" x="404" y="-31.5" font-family="Helvetica" font-size="10.00">CouplingBridge.ScannerSurfCorr</text>
</a>
</g>
</g>
<!-- L4YAML.Proofs.StreamAccum.block_dispatch_deferred&#45;&gt;L4YAML.Proofs.CouplingBridge.ScannerSurfCorr -->
<g id="edge3" class="edge">
<title>L4YAML.Proofs.StreamAccum.block_dispatch_deferred&#45;&gt;L4YAML.Proofs.CouplingBridge.ScannerSurfCorr</title>
<path fill="none" stroke="#4a90d9" stroke-width="2" d="M507.08,-116.83C483.84,-98.38 453.08,-73.96 431.23,-56.61"/>
<polygon fill="#4a90d9" stroke="#4a90d9" stroke-width="2" points="432.6,-54.57 425.59,-52.14 429.55,-58.41 432.6,-54.57"/>
<text text-anchor="middle" x="496.5" y="-92.6" font-family="Times-Roman" font-size="8.00" fill="#4a90d9">about</text>
</g>
<!-- L4YAML.Scanner.ScannerState -->
<g id="node5" class="node">
<title>L4YAML.Scanner.ScannerState</title>
<g id="a_node5"><a xlink:href="../../../api/L4YAML/Scanner/State.html#L4YAML.Scanner.ScannerState" xlink:title="ScannerState" target="_blank">
<polygon fill="#dce9f7" stroke="#4a90d9" points="578,-52 502,-52 502,-16 578,-16 578,-52"/>
<text text-anchor="middle" x="540" y="-31.5" font-family="Helvetica" font-size="10.00">ScannerState</text>
</a>
</g>
</g>
<!-- L4YAML.Proofs.StreamAccum.block_dispatch_deferred&#45;&gt;L4YAML.Scanner.ScannerState -->
<g id="edge4" class="edge">
<title>L4YAML.Proofs.StreamAccum.block_dispatch_deferred&#45;&gt;L4YAML.Scanner.ScannerState</title>
<path fill="none" stroke="#4a90d9" stroke-width="2" d="M540,-116.83C540,-99.4 540,-76.64 540,-59.55"/>
<polygon fill="#4a90d9" stroke="#4a90d9" stroke-width="2" points="542.45,-59.14 540,-52.14 537.55,-59.14 542.45,-59.14"/>
<text text-anchor="middle" x="552.5" y="-92.6" font-family="Times-Roman" font-size="8.00" fill="#4a90d9">about</text>
</g>
<!-- L4YAML.Surface.SLYamlStream -->
<g id="node6" class="node">
<title>L4YAML.Surface.SLYamlStream</title>
<g id="a_node6"><a xlink:href="../../../api/L4YAML/Surface/Document.html#L4YAML.Surface.SLYamlStream" xlink:title="Surface.SLYamlStream" target="_blank">
<polygon fill="#dce9f7" stroke="#4a90d9" points="715.5,-52 596.5,-52 596.5,-16 715.5,-16 715.5,-52"/>
<text text-anchor="middle" x="656" y="-31.5" font-family="Helvetica" font-size="10.00">Surface.SLYamlStream</text>
</a>
</g>
</g>
<!-- L4YAML.Proofs.StreamAccum.block_dispatch_deferred&#45;&gt;L4YAML.Surface.SLYamlStream -->
<g id="edge5" class="edge">
<title>L4YAML.Proofs.StreamAccum.block_dispatch_deferred&#45;&gt;L4YAML.Surface.SLYamlStream</title>
<path fill="none" stroke="#4a90d9" stroke-width="2" d="M568.08,-116.83C587.65,-98.62 613.47,-74.58 632.06,-57.28"/>
<polygon fill="#4a90d9" stroke="#4a90d9" stroke-width="2" points="634.13,-58.7 637.58,-52.14 630.79,-55.12 634.13,-58.7"/>
<text text-anchor="middle" x="606.5" y="-92.6" font-family="Times-Roman" font-size="8.00" fill="#4a90d9">about</text>
</g>
<!-- L4YAML.Surface.SurfPos -->
<g id="node7" class="node">
<title>L4YAML.Surface.SurfPos</title>
<g id="a_node7"><a xlink:href="../../../api/L4YAML/Surface/Combinators.html#L4YAML.Surface.SurfPos" xlink:title="Surface.SurfPos" target="_blank">
<polygon fill="#dce9f7" stroke="#4a90d9" points="824,-52 734,-52 734,-16 824,-16 824,-52"/>
<text text-anchor="middle" x="779" y="-31.5" font-family="Helvetica" font-size="10.00">Surface.SurfPos</text>
</a>
</g>
</g>
<!-- L4YAML.Proofs.StreamAccum.block_dispatch_deferred&#45;&gt;L4YAML.Surface.SurfPos -->
<g id="edge6" class="edge">
<title>L4YAML.Proofs.StreamAccum.block_dispatch_deferred&#45;&gt;L4YAML.Surface.SurfPos</title>
<path fill="none" stroke="#4a90d9" stroke-width="2" d="M628.68,-121.55C660.25,-111.94 695.31,-98.89 725,-82 736.74,-75.32 748.24,-65.84 757.6,-57.15"/>
<polygon fill="#4a90d9" stroke="#4a90d9" stroke-width="2" points="759.47,-58.75 762.84,-52.14 756.08,-55.2 759.47,-58.75"/>
<text text-anchor="middle" x="718.5" y="-92.6" font-family="Times-Roman" font-size="8.00" fill="#4a90d9">about</text>
</g>
<!-- L4YAML.Proofs.StreamAccum.FlowStack -->
<g id="node8" class="node">
<title>L4YAML.Proofs.StreamAccum.FlowStack</title>
<g id="a_node8"><a xlink:href="../../../api/L4YAML/Proofs/Production/StreamAccum.html#L4YAML.Proofs.StreamAccum.FlowStack" xlink:title="StreamAccum.FlowStack" target="_blank">
<polygon fill="#dce9f7" stroke="#4a90d9" points="970,-52 842,-52 842,-16 970,-16 970,-52"/>
<text text-anchor="middle" x="906" y="-31.5" font-family="Helvetica" font-size="10.00">StreamAccum.FlowStack</text>
</a>
</g>
</g>
<!-- L4YAML.Proofs.StreamAccum.block_dispatch_deferred&#45;&gt;L4YAML.Proofs.StreamAccum.FlowStack -->
<g id="edge7" class="edge">
<title>L4YAML.Proofs.StreamAccum.block_dispatch_deferred&#45;&gt;L4YAML.Proofs.StreamAccum.FlowStack</title>
<path fill="none" stroke="#4a90d9" stroke-width="2" d="M664.87,-127.35C718.01,-118.08 779.87,-103.75 833,-82 848.97,-75.46 865.25,-65.37 878.38,-56.22"/>
<polygon fill="#4a90d9" stroke="#4a90d9" stroke-width="2" points="879.89,-58.15 884.17,-52.09 877.05,-54.16 879.89,-58.15"/>
<text text-anchor="middle" x="822.5" y="-92.6" font-family="Times-Roman" font-size="8.00" fill="#4a90d9">about</text>
</g>
</g>
</svg>
