<?xml version="1.0" encoding="UTF-8" standalone="no"?>
<!DOCTYPE svg PUBLIC "-//W3C//DTD SVG 1.1//EN"
 "http://www.w3.org/Graphics/SVG/1.1/DTD/svg11.dtd">
<!-- Generated by graphviz version 2.44.0 (0)
 -->
<!-- Title: CouplingBridge.advance_indents Pages: 1 -->
<svg width="484pt" height="310pt"
 viewBox="0.00 0.00 483.86 310.00" xmlns="http://www.w3.org/2000/svg" xmlns:xlink="http://www.w3.org/1999/xlink">
<g id="graph0" class="graph" transform="scale(1 1) rotate(0) translate(4 306)">
<title>CouplingBridge.advance_indents</title>
<polygon fill="white" stroke="transparent" points="-4,4 -4,-306 479.86,-306 479.86,4 -4,4"/>
<text text-anchor="middle" x="237.93" y="-287.6" font-family="Helvetica Bold" font-size="13.00">CouplingBridge.advance_indents</text>
<text text-anchor="middle" x="237.93" y="-273.6" font-family="Helvetica Bold" font-size="13.00">(heuristic: used by 6 proofs)</text>
<text text-anchor="middle" x="237.93" y="-259.6" font-family="Helvetica Bold" font-size="13.00">(L4YAML.Proofs.Coupling.CouplingBridge)</text>
<g id="clust1" class="cluster">
<title>cluster_functions</title>
<polygon fill="none" stroke="#4a90d9" stroke-dasharray="5,2" points="336.86,-8 336.86,-244 467.86,-244 467.86,-8 336.86,-8"/>
<text text-anchor="middle" x="402.36" y="-229.6" font-family="Helvetica Bold" font-size="13.00" fill="#4a90d9">Functions</text>
</g>
<g id="clust2" class="cluster">
<title>cluster_key</title>
<polygon fill="none" stroke="#d4a017" stroke-dasharray="5,2" points="8,-84 8,-166 291.86,-166 291.86,-84 8,-84"/>
<text text-anchor="middle" x="149.93" y="-151.6" font-family="Helvetica Bold" font-size="13.00" fill="#d4a017">Key Theorem</text>
</g>
<!-- L4YAML.Scanner.ScannerState.advance -->
<g id="node1" class="node">
<title>L4YAML.Scanner.ScannerState.advance</title>
<g id="a_node1"><a xlink:href="../../../api/L4YAML/Scanner/State.html#L4YAML.Scanner.ScannerState.advance" xlink:title="ScannerState.advance\n(def)" target="_blank">
<polygon fill="#dce9f7" stroke="#4a90d9" points="459.86,-214 344.86,-214 344.86,-178 459.86,-178 459.86,-214"/>
<text text-anchor="middle" x="402.36" y="-199" font-family="Helvetica" font-size="10.00">ScannerState.advance</text>
<text text-anchor="middle" x="402.36" y="-188" font-family="Helvetica" font-size="10.00">(def)</text>
</a>
</g>
</g>
<!-- L4YAML.Scanner.ScannerState -->
<g id="node2" class="node">
<title>L4YAML.Scanner.ScannerState</title>
<g id="a_node2"><a xlink:href="../../../api/L4YAML/Scanner/State.html#L4YAML.Scanner.ScannerState" xlink:title="ScannerState\n(inductive)" target="_blank">
<polygon fill="#dce9f7" stroke="#4a90d9" points="440.36,-160 364.36,-160 364.36,-124 440.36,-124 440.36,-160"/>
<text text-anchor="middle" x="402.36" y="-145" font-family="Helvetica" font-size="10.00">ScannerState</text>
<text text-anchor="middle" x="402.36" y="-134" font-family="Helvetica" font-size="10.00">(inductive)</text>
</a>
</g>
</g>
<!-- L4YAML.Scanner.ScannerState.indents -->
<g id="node3" class="node">
<title>L4YAML.Scanner.ScannerState.indents</title>
<g id="a_node3"><a xlink:href="../../../api/L4YAML/Scanner/State.html#L4YAML.Scanner.ScannerState.indents" xlink:title="ScannerState.indents\n(def)" target="_blank">
<polygon fill="#dce9f7" stroke="#4a90d9" points="457.36,-106 347.36,-106 347.36,-70 457.36,-70 457.36,-106"/>
<text text-anchor="middle" x="402.36" y="-91" font-family="Helvetica" font-size="10.00">ScannerState.indents</text>
<text text-anchor="middle" x="402.36" y="-80" font-family="Helvetica" font-size="10.00">(def)</text>
</a>
</g>
</g>
<!-- L4YAML.Scanner.IndentEntry -->
<g id="node4" class="node">
<title>L4YAML.Scanner.IndentEntry</title>
<g id="a_node4"><a xlink:href="../../../api/L4YAML/Scanner/State.html#L4YAML.Scanner.IndentEntry" xlink:title="IndentEntry\n(inductive)" target="_blank">
<polygon fill="#dce9f7" stroke="#4a90d9" points="436.36,-52 368.36,-52 368.36,-16 436.36,-16 436.36,-52"/>
<text text-anchor="middle" x="402.36" y="-37" font-family="Helvetica" font-size="10.00">IndentEntry</text>
<text text-anchor="middle" x="402.36" y="-26" font-family="Helvetica" font-size="10.00">(inductive)</text>
</a>
</g>
</g>
<!-- L4YAML.Proofs.CouplingBridge.advance_indents -->
<g id="node5" class="node">
<title>L4YAML.Proofs.CouplingBridge.advance_indents</title>
<g id="a_node5"><a xlink:href="../../../api/L4YAML/Proofs/Coupling/CouplingBridge.html#L4YAML.Proofs.CouplingBridge.advance_indents" xlink:title="CouplingBridge.advance_indents" target="_blank">
<polygon fill="#fff3cd" stroke="#d4a017" points="279.79,-106.54 279.79,-121.46 203.72,-132 96.14,-132 20.07,-121.46 20.07,-106.54 96.14,-96 203.72,-96 279.79,-106.54"/>
<polygon fill="none" stroke="#d4a017" points="283.79,-103.06 283.79,-124.94 204,-136 95.86,-136 16.07,-124.94 16.07,-103.06 95.86,-92 204,-92 283.79,-103.06"/>
<text text-anchor="middle" x="149.93" y="-110.9" font-family="Helvetica" font-size="12.00">CouplingBridge.advance_indents</text>
</a>
</g>
</g>
<!-- L4YAML.Proofs.CouplingBridge.advance_indents&#45;&gt;L4YAML.Scanner.ScannerState.advance -->
<g id="edge2" class="edge">
<title>L4YAML.Proofs.CouplingBridge.advance_indents&#45;&gt;L4YAML.Scanner.ScannerState.advance</title>
<path fill="none" stroke="#4a90d9" stroke-width="2" d="M214.12,-134.69C252.45,-147.24 301.16,-163.19 339.28,-175.67"/>
<polygon fill="#4a90d9" stroke="#4a90d9" stroke-width="2" points="338.86,-178.11 346.28,-177.96 340.39,-173.46 338.86,-178.11"/>
<text text-anchor="middle" x="314.36" y="-171.6" font-family="Times-Roman" font-size="8.00" fill="#4a90d9">about</text>
</g>
<!-- L4YAML.Proofs.CouplingBridge.advance_indents&#45;&gt;L4YAML.Scanner.ScannerState -->
<g id="edge4" class="edge">
<title>L4YAML.Proofs.CouplingBridge.advance_indents&#45;&gt;L4YAML.Scanner.ScannerState</title>
<path fill="none" stroke="#4a90d9" stroke-width="2" d="M268.45,-127.14C300.02,-130.67 332.25,-134.27 357.07,-137.05"/>
<polygon fill="#4a90d9" stroke="#4a90d9" stroke-width="2" points="356.96,-139.5 364.19,-137.84 357.51,-134.63 356.96,-139.5"/>
<text text-anchor="middle" x="314.36" y="-134.6" font-family="Times-Roman" font-size="8.00" fill="#4a90d9">about</text>
</g>
<!-- L4YAML.Proofs.CouplingBridge.advance_indents&#45;&gt;L4YAML.Scanner.ScannerState.indents -->
<g id="edge3" class="edge">
<title>L4YAML.Proofs.CouplingBridge.advance_indents&#45;&gt;L4YAML.Scanner.ScannerState.indents</title>
<path fill="none" stroke="#4a90d9" stroke-width="2" d="M272.11,-101.42C295.67,-98.97 319.43,-96.51 340.03,-94.37"/>
<polygon fill="#4a90d9" stroke="#4a90d9" stroke-width="2" points="340.47,-96.78 347.18,-93.62 339.97,-91.91 340.47,-96.78"/>
<text text-anchor="middle" x="314.36" y="-99.6" font-family="Times-Roman" font-size="8.00" fill="#4a90d9">about</text>
</g>
<!-- L4YAML.Proofs.CouplingBridge.advance_indents&#45;&gt;L4YAML.Scanner.IndentEntry -->
<g id="edge1" class="edge">
<title>L4YAML.Proofs.CouplingBridge.advance_indents&#45;&gt;L4YAML.Scanner.IndentEntry</title>
<path fill="none" stroke="#4a90d9" stroke-width="2" d="M215.1,-93.5C261.07,-78.81 321.59,-59.48 360.97,-46.9"/>
<polygon fill="#4a90d9" stroke="#4a90d9" stroke-width="2" points="362.15,-49.1 368.07,-44.63 360.66,-44.43 362.15,-49.1"/>
<text text-anchor="middle" x="314.36" y="-66.6" font-family="Times-Roman" font-size="8.00" fill="#4a90d9">about</text>
</g>
</g>
</svg>
