<?xml version="1.0" encoding="UTF-8" standalone="no"?>
<!DOCTYPE svg PUBLIC "-//W3C//DTD SVG 1.1//EN"
 "http://www.w3.org/Graphics/SVG/1.1/DTD/svg11.dtd">
<!-- Generated by graphviz version 2.44.0 (0)
 -->
<!-- Title: CouplingBridge.CharsFromOffset_unique Pages: 1 -->
<svg width="972pt" height="296pt"
 viewBox="0.00 0.00 972.06 296.00" xmlns="http://www.w3.org/2000/svg" xmlns:xlink="http://www.w3.org/1999/xlink">
<g id="graph0" class="graph" transform="scale(1 1) rotate(0) translate(4 292)">
<title>CouplingBridge.CharsFromOffset_unique</title>
<polygon fill="white" stroke="transparent" points="-4,4 -4,-292 968.06,-292 968.06,4 -4,4"/>
<text text-anchor="middle" x="482.03" y="-273.6" font-family="Helvetica Bold" font-size="13.00">CouplingBridge.CharsFromOffset_unique</text>
<text text-anchor="middle" x="482.03" y="-259.6" font-family="Helvetica Bold" font-size="13.00">(heuristic: used by 7 proofs)</text>
<text text-anchor="middle" x="482.03" y="-245.6" font-family="Helvetica Bold" font-size="13.00">(L4YAML.Proofs.Coupling.CouplingBridge)</text>
<g id="clust1" class="cluster">
<title>cluster_functions</title>
<polygon fill="none" stroke="#4a90d9" stroke-dasharray="5,2" points="779.06,-93 779.06,-167 956.06,-167 956.06,-93 779.06,-93"/>
<text text-anchor="middle" x="867.56" y="-152.6" font-family="Helvetica Bold" font-size="13.00" fill="#4a90d9">Functions</text>
</g>
<g id="clust2" class="cluster">
<title>cluster_key</title>
<polygon fill="none" stroke="#d4a017" stroke-dasharray="5,2" points="392.9,-89 392.9,-171 734.06,-171 734.06,-89 392.9,-89"/>
<text text-anchor="middle" x="563.48" y="-156.6" font-family="Helvetica Bold" font-size="13.00" fill="#d4a017">Key Theorem</text>
</g>
<g id="clust3" class="cluster">
<title>cluster_proofs</title>
<polygon fill="none" stroke="#28a745" stroke-dasharray="5,2" points="8,-90 8,-230 371.9,-230 371.9,-90 8,-90"/>
<text text-anchor="middle" x="189.95" y="-215.6" font-family="Helvetica Bold" font-size="13.00" fill="#28a745">Proof Dependencies</text>
</g>
<g id="clust4" class="cluster">
<title>cluster_stdlib</title>
<polygon fill="none" stroke="#e67e22" stroke-dasharray="5,2" points="104.83,-8 104.83,-82 275.06,-82 275.06,-8 104.83,-8"/>
<text text-anchor="middle" x="189.95" y="-67.6" font-family="Helvetica Bold" font-size="13.00" fill="#e67e22">Stdlib Lemmas</text>
</g>
<!-- L4YAML.Proofs.CouplingBridge.CharsFromOffset -->
<g id="node1" class="node">
<title>L4YAML.Proofs.CouplingBridge.CharsFromOffset</title>
<g id="a_node1"><a xlink:href="../../../api/L4YAML/Proofs/Coupling/CouplingBridge.html#L4YAML.Proofs.CouplingBridge.CharsFromOffset" xlink:title="CouplingBridge.CharsFromOffset\n(inductive)" target="_blank">
<polygon fill="#dce9f7" stroke="#4a90d9" points="948.06,-137 787.06,-137 787.06,-101 948.06,-101 948.06,-137"/>
<text text-anchor="middle" x="867.56" y="-122" font-family="Helvetica" font-size="10.00">CouplingBridge.CharsFromOffset</text>
<text text-anchor="middle" x="867.56" y="-111" font-family="Helvetica" font-size="10.00">(inductive)</text>
</a>
</g>
</g>
<!-- L4YAML.Proofs.CouplingBridge.CharsFromOffset_unique -->
<g id="node2" class="node">
<title>L4YAML.Proofs.CouplingBridge.CharsFromOffset_unique</title>
<g id="a_node2"><a xlink:href="../../../api/L4YAML/Proofs/Coupling/CouplingBridge.html#L4YAML.Proofs.CouplingBridge.CharsFromOffset_unique" xlink:title="CouplingBridge.CharsFromOffset_unique" target="_blank">
<polygon fill="#fff3cd" stroke="#d4a017" points="722.14,-111.54 722.14,-126.46 629.2,-137 497.76,-137 404.82,-126.46 404.82,-111.54 497.76,-101 629.2,-101 722.14,-111.54"/>
<polygon fill="none" stroke="#d4a017" points="726.14,-107.97 726.14,-130.03 629.42,-141 497.53,-141 400.82,-130.03 400.82,-107.97 497.53,-97 629.42,-97 726.14,-107.97"/>
<text text-anchor="middle" x="563.48" y="-115.9" font-family="Helvetica" font-size="12.00">CouplingBridge.CharsFromOffset_unique</text>
</a>
</g>
</g>
<!-- L4YAML.Proofs.CouplingBridge.CharsFromOffset_unique&#45;&gt;L4YAML.Proofs.CouplingBridge.CharsFromOffset -->
<g id="edge1" class="edge">
<title>L4YAML.Proofs.CouplingBridge.CharsFromOffset_unique&#45;&gt;L4YAML.Proofs.CouplingBridge.CharsFromOffset</title>
<path fill="none" stroke="#4a90d9" stroke-width="2" d="M726.13,-119C744.54,-119 762.74,-119 779.63,-119"/>
<polygon fill="#4a90d9" stroke="#4a90d9" stroke-width="2" points="779.78,-121.45 786.78,-119 779.78,-116.55 779.78,-121.45"/>
<text text-anchor="middle" x="756.56" y="-121.6" font-family="Times-Roman" font-size="8.00" fill="#4a90d9">about</text>
</g>
<!-- L4YAML.Proofs.CouplingBridge.CharsFromOffset_unique._proof_1_1 -->
<g id="node3" class="node">
<title>L4YAML.Proofs.CouplingBridge.CharsFromOffset_unique._proof_1_1</title>
<g id="a_node3"><a xlink:href="../../../api/L4YAML/Proofs/Coupling/CouplingBridge.html#L4YAML.Proofs.CouplingBridge.CharsFromOffset_unique._proof_1_1" xlink:title="CouplingBridge.CharsFromOffset_unique._proof_1_1\n(Coupling.CouplingBridge)" target="_blank">
<ellipse fill="#d4edda" stroke="#28a745" cx="189.95" cy="-179" rx="173.9" ry="21.43"/>
<text text-anchor="middle" x="189.95" y="-182" font-family="Helvetica" font-size="10.00">CouplingBridge.CharsFromOffset_unique._proof_1_1</text>
<text text-anchor="middle" x="189.95" y="-171" font-family="Helvetica" font-size="10.00">(Coupling.CouplingBridge)</text>
</a>
</g>
</g>
<!-- L4YAML.Proofs.CouplingBridge.CharsFromOffset_unique._proof_1_1&#45;&gt;L4YAML.Proofs.CouplingBridge.CharsFromOffset_unique -->
<g id="edge3" class="edge">
<title>L4YAML.Proofs.CouplingBridge.CharsFromOffset_unique._proof_1_1&#45;&gt;L4YAML.Proofs.CouplingBridge.CharsFromOffset_unique</title>
<path fill="none" stroke="#28a745" d="M295.43,-162.13C343.09,-154.43 399.65,-145.3 448.42,-137.42"/>
<polygon fill="#28a745" stroke="#28a745" points="449.04,-139.8 455.56,-136.27 448.25,-134.96 449.04,-139.8"/>
</g>
<!-- L4YAML.Proofs.CouplingBridge.CharsFromOffset_unique._proof_1_2 -->
<g id="node4" class="node">
<title>L4YAML.Proofs.CouplingBridge.CharsFromOffset_unique._proof_1_2</title>
<g id="a_node4"><a xlink:href="../../../api/L4YAML/Proofs/Coupling/CouplingBridge.html#L4YAML.Proofs.CouplingBridge.CharsFromOffset_unique._proof_1_2" xlink:title="CouplingBridge.CharsFromOffset_unique._proof_1_2\n(Coupling.CouplingBridge)" target="_blank">
<ellipse fill="#d4edda" stroke="#28a745" cx="189.95" cy="-119" rx="173.9" ry="21.43"/>
<text text-anchor="middle" x="189.95" y="-122" font-family="Helvetica" font-size="10.00">CouplingBridge.CharsFromOffset_unique._proof_1_2</text>
<text text-anchor="middle" x="189.95" y="-111" font-family="Helvetica" font-size="10.00">(Coupling.CouplingBridge)</text>
</a>
</g>
</g>
<!-- L4YAML.Proofs.CouplingBridge.CharsFromOffset_unique._proof_1_2&#45;&gt;L4YAML.Proofs.CouplingBridge.CharsFromOffset_unique -->
<g id="edge2" class="edge">
<title>L4YAML.Proofs.CouplingBridge.CharsFromOffset_unique._proof_1_2&#45;&gt;L4YAML.Proofs.CouplingBridge.CharsFromOffset_unique</title>
<path fill="none" stroke="#28a745" d="M363.93,-119C373.84,-119 383.79,-119 393.67,-119"/>
<polygon fill="#28a745" stroke="#28a745" points="393.86,-121.45 400.86,-119 393.86,-116.55 393.86,-121.45"/>
</g>
<!-- Decidable.byContradiction -->
<g id="node5" class="node">
<title>Decidable.byContradiction</title>
<g id="a_node5"><a xlink:href="../../../api/Init/Core.html#Decidable.byContradiction" xlink:title="Decidable.byContradiction" target="_blank">
<ellipse fill="#fdebd0" stroke="#e67e22" cx="189.95" cy="-34" rx="77.23" ry="18"/>
<text text-anchor="middle" x="189.95" y="-31.5" font-family="Helvetica" font-size="10.00">Decidable.byContradiction</text>
</a>
</g>
</g>
<!-- Decidable.byContradiction&#45;&gt;L4YAML.Proofs.CouplingBridge.CharsFromOffset_unique -->
<g id="edge4" class="edge">
<title>Decidable.byContradiction&#45;&gt;L4YAML.Proofs.CouplingBridge.CharsFromOffset_unique</title>
<path fill="none" stroke="#e67e22" stroke-width="2" d="M245.77,-46.54C304.51,-59.98 398.79,-81.55 469.23,-97.67"/>
<polygon fill="#e67e22" stroke="#e67e22" stroke-width="2" points="469.03,-100.13 476.4,-99.31 470.13,-95.36 469.03,-100.13"/>
</g>
</g>
</svg>
