<?xml version="1.0" encoding="UTF-8" standalone="no"?>
<!DOCTYPE svg PUBLIC "-//W3C//DTD SVG 1.1//EN"
 "http://www.w3.org/Graphics/SVG/1.1/DTD/svg11.dtd">
<!-- Generated by graphviz version 2.44.0 (0)
 -->
<!-- Title: chain_CouplingBridge.next_byteIdx Pages: 1 -->
<svg width="332pt" height="98pt"
 viewBox="0.00 0.00 332.00 97.92" xmlns="http://www.w3.org/2000/svg" xmlns:xlink="http://www.w3.org/1999/xlink">
<g id="graph0" class="graph" transform="scale(1 1) rotate(0) translate(4 93.92)">
<title>chain_CouplingBridge.next_byteIdx</title>
<polygon fill="white" stroke="transparent" points="-4,4 -4,-93.92 328,-93.92 328,4 -4,4"/>
<text text-anchor="middle" x="162" y="-75.52" font-family="Helvetica Bold" font-size="13.00">Functorial Chains: CouplingBridge.next_byteIdx</text>
<text text-anchor="middle" x="162" y="-61.52" font-family="Helvetica Bold" font-size="13.00">(heuristic: used by 6 proofs)</text>
<!-- L4YAML.Proofs.CouplingBridge.next_byteIdx -->
<g id="node1" class="node">
<title>L4YAML.Proofs.CouplingBridge.next_byteIdx</title>
<polygon fill="#fff3cd" stroke="black" points="270.86,-17.46 270.86,-36.46 207.09,-49.89 116.91,-49.89 53.14,-36.46 53.14,-17.46 116.91,-4.03 207.09,-4.03 270.86,-17.46"/>
<polygon fill="none" stroke="black" points="274.86,-14.23 274.86,-39.7 207.51,-53.88 116.49,-53.88 49.14,-39.7 49.14,-14.23 116.49,-0.04 207.51,-0.04 274.86,-14.23"/>
<text text-anchor="middle" x="162" y="-29.96" font-family="Helvetica" font-size="10.00">CouplingBridge.next_byteIdx</text>
<text text-anchor="middle" x="162" y="-18.96" font-family="Helvetica" font-size="10.00">(no functorial chains found)</text>
</g>
</g>
</svg>
