<?xml version="1.0" encoding="UTF-8" standalone="no"?>
<!DOCTYPE svg PUBLIC "-//W3C//DTD SVG 1.1//EN"
 "http://www.w3.org/Graphics/SVG/1.1/DTD/svg11.dtd">
<!-- Generated by graphviz version 2.44.0 (0)
 -->
<!-- Title: chain_ParserWellBehaved.ParseState.advance_tokens Pages: 1 -->
<svg width="976pt" height="201pt"
 viewBox="0.00 0.00 976.00 200.92" xmlns="http://www.w3.org/2000/svg" xmlns:xlink="http://www.w3.org/1999/xlink">
<g id="graph0" class="graph" transform="scale(1 1) rotate(0) translate(4 196.92)">
<title>chain_ParserWellBehaved.ParseState.advance_tokens</title>
<polygon fill="white" stroke="transparent" points="-4,4 -4,-196.92 972,-196.92 972,4 -4,4"/>
<text text-anchor="middle" x="484" y="-178.52" font-family="Helvetica Bold" font-size="13.00">Structural theorem: ParserWellBehaved.ParseState.advance_tokens\nProof is a witness / injection — no fibration depth\n(heuristic: used by 5 proofs)</text>
<g id="clust1" class="cluster">
<title>cluster_direct</title>
<polygon fill="none" stroke="#4a90d9" stroke-dasharray="5,2" points="155.5,-8 155.5,-82 812.5,-82 812.5,-8 155.5,-8"/>
<text text-anchor="middle" x="484" y="-67.6" font-family="Helvetica Bold" font-size="13.00" fill="#4a90d9">About (no chain extends — proof is structural)</text>
</g>
<!-- L4YAML.Proofs.ParserWellBehaved.ParseState.advance_tokens -->
<g id="node1" class="node">
<title>L4YAML.Proofs.ParserWellBehaved.ParseState.advance_tokens</title>
<polygon fill="#fff3cd" stroke="#d4a017" points="581.47,-134.46 581.47,-153.46 479.56,-166.89 335.44,-166.89 233.53,-153.46 233.53,-134.46 335.44,-121.03 479.56,-121.03 581.47,-134.46"/>
<polygon fill="none" stroke="#d4a017" points="585.48,-130.96 585.48,-156.96 479.82,-170.88 335.18,-170.88 229.52,-156.96 229.52,-130.96 335.18,-117.04 479.82,-117.04 585.48,-130.96"/>
<text text-anchor="middle" x="407.5" y="-146.96" font-family="Helvetica" font-size="10.00">ParserWellBehaved.ParseState.advance_tokens</text>
<text text-anchor="middle" x="407.5" y="-135.96" font-family="Helvetica" font-size="10.00">(structural)</text>
</g>
<!-- L4YAML.Positioned -->
<g id="node2" class="node">
<title>L4YAML.Positioned</title>
<g id="a_node2"><a xlink:href="../../../api/L4YAML/Token/Token.html#L4YAML.Positioned" xlink:title="Positioned" target="_blank">
<polygon fill="#dce9f7" stroke="#4a90d9" points="225.5,-52 163.5,-52 163.5,-16 225.5,-16 225.5,-52"/>
<text text-anchor="middle" x="194.5" y="-31.5" font-family="Helvetica" font-size="10.00">Positioned</text>
</a>
</g>
</g>
<!-- L4YAML.Proofs.ParserWellBehaved.ParseState.advance_tokens&#45;&gt;L4YAML.Positioned -->
<g id="edge1" class="edge">
<title>L4YAML.Proofs.ParserWellBehaved.ParseState.advance_tokens&#45;&gt;L4YAML.Positioned</title>
<path fill="none" stroke="#4a90d9" stroke-width="2" d="M313.4,-119.79C286.51,-110.59 258.12,-98.24 234.5,-82 225.17,-75.59 216.73,-66.47 210.04,-57.96"/>
<polygon fill="#4a90d9" stroke="#4a90d9" stroke-width="2" points="211.87,-56.32 205.69,-52.21 207.96,-59.28 211.87,-56.32"/>
<text text-anchor="middle" x="273" y="-92.6" font-family="Times-Roman" font-size="8.00" fill="#4a90d9">about</text>
</g>
<!-- L4YAML.YamlToken -->
<g id="node3" class="node">
<title>L4YAML.YamlToken</title>
<g id="a_node3"><a xlink:href="../../../api/L4YAML/Token/Token.html#L4YAML.YamlToken" xlink:title="YamlToken" target="_blank">
<polygon fill="#dce9f7" stroke="#4a90d9" points="307.5,-52 243.5,-52 243.5,-16 307.5,-16 307.5,-52"/>
<text text-anchor="middle" x="275.5" y="-31.5" font-family="Helvetica" font-size="10.00">YamlToken</text>
</a>
</g>
</g>
<!-- L4YAML.Proofs.ParserWellBehaved.ParseState.advance_tokens&#45;&gt;L4YAML.YamlToken -->
<g id="edge2" class="edge">
<title>L4YAML.Proofs.ParserWellBehaved.ParseState.advance_tokens&#45;&gt;L4YAML.YamlToken</title>
<path fill="none" stroke="#4a90d9" stroke-width="2" d="M363.67,-116.94C348.12,-106.86 330.92,-94.69 316.5,-82 308.18,-74.68 299.96,-65.69 293.08,-57.55"/>
<polygon fill="#4a90d9" stroke="#4a90d9" stroke-width="2" points="294.91,-55.91 288.56,-52.08 291.13,-59.03 294.91,-55.91"/>
<text text-anchor="middle" x="351" y="-92.6" font-family="Times-Roman" font-size="8.00" fill="#4a90d9">about</text>
</g>
<!-- L4YAML.TokenParser.ParseState.advance -->
<g id="node4" class="node">
<title>L4YAML.TokenParser.ParseState.advance</title>
<g id="a_node4"><a xlink:href="../../../api/L4YAML/Parser/State.html#L4YAML.TokenParser.ParseState.advance" xlink:title="TokenParser.ParseState.advance" target="_blank">
<polygon fill="#dce9f7" stroke="#4a90d9" points="489,-52 326,-52 326,-16 489,-16 489,-52"/>
<text text-anchor="middle" x="407.5" y="-31.5" font-family="Helvetica" font-size="10.00">TokenParser.ParseState.advance</text>
</a>
</g>
</g>
<!-- L4YAML.Proofs.ParserWellBehaved.ParseState.advance_tokens&#45;&gt;L4YAML.TokenParser.ParseState.advance -->
<g id="edge3" class="edge">
<title>L4YAML.Proofs.ParserWellBehaved.ParseState.advance_tokens&#45;&gt;L4YAML.TokenParser.ParseState.advance</title>
<path fill="none" stroke="#4a90d9" stroke-width="2" d="M407.5,-116.83C407.5,-99.4 407.5,-76.64 407.5,-59.55"/>
<polygon fill="#4a90d9" stroke="#4a90d9" stroke-width="2" points="409.95,-59.14 407.5,-52.14 405.05,-59.14 409.95,-59.14"/>
<text text-anchor="middle" x="420" y="-92.6" font-family="Times-Roman" font-size="8.00" fill="#4a90d9">about</text>
</g>
<!-- L4YAML.TokenParser.ParseState.tokens -->
<g id="node5" class="node">
<title>L4YAML.TokenParser.ParseState.tokens</title>
<g id="a_node5"><a xlink:href="../../../api/L4YAML/Parser/State.html#L4YAML.TokenParser.ParseState.tokens" xlink:title="TokenParser.ParseState.tokens" target="_blank">
<polygon fill="#dce9f7" stroke="#4a90d9" points="662,-52 507,-52 507,-16 662,-16 662,-52"/>
<text text-anchor="middle" x="584.5" y="-31.5" font-family="Helvetica" font-size="10.00">TokenParser.ParseState.tokens</text>
</a>
</g>
</g>
<!-- L4YAML.Proofs.ParserWellBehaved.ParseState.advance_tokens&#45;&gt;L4YAML.TokenParser.ParseState.tokens -->
<g id="edge4" class="edge">
<title>L4YAML.Proofs.ParserWellBehaved.ParseState.advance_tokens&#45;&gt;L4YAML.TokenParser.ParseState.tokens</title>
<path fill="none" stroke="#4a90d9" stroke-width="2" d="M450.35,-116.83C480.97,-98.15 521.65,-73.34 550.15,-55.95"/>
<polygon fill="#4a90d9" stroke="#4a90d9" stroke-width="2" points="551.7,-57.88 556.4,-52.14 549.15,-53.69 551.7,-57.88"/>
<text text-anchor="middle" x="503" y="-92.6" font-family="Times-Roman" font-size="8.00" fill="#4a90d9">about</text>
</g>
<!-- L4YAML.TokenParser.ParseState -->
<g id="node6" class="node">
<title>L4YAML.TokenParser.ParseState</title>
<g id="a_node6"><a xlink:href="../../../api/L4YAML/Parser/State.html#L4YAML.TokenParser.ParseState" xlink:title="TokenParser.ParseState" target="_blank">
<polygon fill="#dce9f7" stroke="#4a90d9" points="804.5,-52 680.5,-52 680.5,-16 804.5,-16 804.5,-52"/>
<text text-anchor="middle" x="742.5" y="-31.5" font-family="Helvetica" font-size="10.00">TokenParser.ParseState</text>
</a>
</g>
</g>
<!-- L4YAML.Proofs.ParserWellBehaved.ParseState.advance_tokens&#45;&gt;L4YAML.TokenParser.ParseState -->
<g id="edge5" class="edge">
<title>L4YAML.Proofs.ParserWellBehaved.ParseState.advance_tokens&#45;&gt;L4YAML.TokenParser.ParseState</title>
<path fill="none" stroke="#4a90d9" stroke-width="2" d="M531.64,-123.82C576.8,-114.4 627.53,-100.9 671.5,-82 686.79,-75.43 702.36,-65.55 715.01,-56.54"/>
<polygon fill="#4a90d9" stroke="#4a90d9" stroke-width="2" points="716.75,-58.3 720.97,-52.21 713.87,-54.34 716.75,-58.3"/>
<text text-anchor="middle" x="663" y="-92.6" font-family="Times-Roman" font-size="8.00" fill="#4a90d9">about</text>
</g>
</g>
</svg>
