<?xml version="1.0" encoding="UTF-8" standalone="no"?>
<!DOCTYPE svg PUBLIC "-//W3C//DTD SVG 1.1//EN"
 "http://www.w3.org/Graphics/SVG/1.1/DTD/svg11.dtd">
<!-- Generated by graphviz version 2.44.0 (0)
 -->
<!-- Title: ParserWellBehaved.empty_scalar_scannable Pages: 1 -->
<svg width="721pt" height="364pt"
 viewBox="0.00 0.00 720.92 364.00" xmlns="http://www.w3.org/2000/svg" xmlns:xlink="http://www.w3.org/1999/xlink">
<g id="graph0" class="graph" transform="scale(1 1) rotate(0) translate(4 360)">
<title>ParserWellBehaved.empty_scalar_scannable</title>
<polygon fill="white" stroke="transparent" points="-4,4 -4,-360 716.92,-360 716.92,4 -4,4"/>
<text text-anchor="middle" x="356.46" y="-341.6" font-family="Helvetica Bold" font-size="13.00">ParserWellBehaved.empty_scalar_scannable</text>
<text text-anchor="middle" x="356.46" y="-327.6" font-family="Helvetica Bold" font-size="13.00">(heuristic: used by 11 proofs)</text>
<text text-anchor="middle" x="356.46" y="-313.6" font-family="Helvetica Bold" font-size="13.00">(L4YAML.Proofs.Parser.ParserWellBehaved)</text>
<g id="clust1" class="cluster">
<title>cluster_functions</title>
<polygon fill="none" stroke="#4a90d9" stroke-dasharray="5,2" points="582.92,-8 582.92,-298 704.92,-298 704.92,-8 582.92,-8"/>
<text text-anchor="middle" x="643.92" y="-283.6" font-family="Helvetica Bold" font-size="13.00" fill="#4a90d9">Functions</text>
</g>
<g id="clust2" class="cluster">
<title>cluster_key</title>
<polygon fill="none" stroke="#d4a017" stroke-dasharray="5,2" points="167.44,-112 167.44,-194 537.92,-194 537.92,-112 167.44,-112"/>
<text text-anchor="middle" x="352.68" y="-179.6" font-family="Helvetica Bold" font-size="13.00" fill="#d4a017">Key Theorem</text>
</g>
<g id="clust4" class="cluster">
<title>cluster_stdlib</title>
<polygon fill="none" stroke="#e67e22" stroke-dasharray="5,2" points="8,-62 8,-244 146.44,-244 146.44,-62 8,-62"/>
<text text-anchor="middle" x="77.22" y="-229.6" font-family="Helvetica Bold" font-size="13.00" fill="#e67e22">Stdlib Lemmas</text>
</g>
<!-- L4YAML.Scalar.mk -->
<g id="node1" class="node">
<title>L4YAML.Scalar.mk</title>
<g id="a_node1"><a xlink:href="../../../api/L4YAML/Spec/Types.html#L4YAML.Scalar.mk" xlink:title="Scalar.mk\n(ctor)" target="_blank">
<polygon fill="#dce9f7" stroke="#4a90d9" points="674.42,-268 613.42,-268 613.42,-232 674.42,-232 674.42,-268"/>
<text text-anchor="middle" x="643.92" y="-253" font-family="Helvetica" font-size="10.00">Scalar.mk</text>
<text text-anchor="middle" x="643.92" y="-242" font-family="Helvetica" font-size="10.00">(ctor)</text>
</a>
</g>
</g>
<!-- L4YAML.Grammar.Scannable -->
<g id="node2" class="node">
<title>L4YAML.Grammar.Scannable</title>
<g id="a_node2"><a xlink:href="../../../api/L4YAML/Spec/Grammar.html#L4YAML.Grammar.Scannable" xlink:title="Grammar.Scannable\n(inductive)" target="_blank">
<polygon fill="#dce9f7" stroke="#4a90d9" points="696.92,-214 590.92,-214 590.92,-178 696.92,-178 696.92,-214"/>
<text text-anchor="middle" x="643.92" y="-199" font-family="Helvetica" font-size="10.00">Grammar.Scannable</text>
<text text-anchor="middle" x="643.92" y="-188" font-family="Helvetica" font-size="10.00">(inductive)</text>
</a>
</g>
</g>
<!-- L4YAML.BlockScalarMeta -->
<g id="node3" class="node">
<title>L4YAML.BlockScalarMeta</title>
<g id="a_node3"><a xlink:href="../../../api/L4YAML/Spec/Types.html#L4YAML.BlockScalarMeta" xlink:title="BlockScalarMeta\n(inductive)" target="_blank">
<polygon fill="#dce9f7" stroke="#4a90d9" points="689.42,-160 598.42,-160 598.42,-124 689.42,-124 689.42,-160"/>
<text text-anchor="middle" x="643.92" y="-145" font-family="Helvetica" font-size="10.00">BlockScalarMeta</text>
<text text-anchor="middle" x="643.92" y="-134" font-family="Helvetica" font-size="10.00">(inductive)</text>
</a>
</g>
</g>
<!-- L4YAML.ScalarStyle.plain -->
<g id="node4" class="node">
<title>L4YAML.ScalarStyle.plain</title>
<g id="a_node4"><a xlink:href="../../../api/L4YAML/Spec/Types.html#L4YAML.ScalarStyle.plain" xlink:title="ScalarStyle.plain\n(ctor)" target="_blank">
<polygon fill="#dce9f7" stroke="#4a90d9" points="688.92,-106 598.92,-106 598.92,-70 688.92,-70 688.92,-106"/>
<text text-anchor="middle" x="643.92" y="-91" font-family="Helvetica" font-size="10.00">ScalarStyle.plain</text>
<text text-anchor="middle" x="643.92" y="-80" font-family="Helvetica" font-size="10.00">(ctor)</text>
</a>
</g>
</g>
<!-- L4YAML.YamlValue.scalar -->
<g id="node5" class="node">
<title>L4YAML.YamlValue.scalar</title>
<g id="a_node5"><a xlink:href="../../../api/L4YAML/Spec/Types.html#L4YAML.YamlValue.scalar" xlink:title="YamlValue.scalar\n(ctor)" target="_blank">
<polygon fill="#dce9f7" stroke="#4a90d9" points="689.92,-52 597.92,-52 597.92,-16 689.92,-16 689.92,-52"/>
<text text-anchor="middle" x="643.92" y="-37" font-family="Helvetica" font-size="10.00">YamlValue.scalar</text>
<text text-anchor="middle" x="643.92" y="-26" font-family="Helvetica" font-size="10.00">(ctor)</text>
</a>
</g>
</g>
<!-- L4YAML.Proofs.ParserWellBehaved.empty_scalar_scannable -->
<g id="node6" class="node">
<title>L4YAML.Proofs.ParserWellBehaved.empty_scalar_scannable</title>
<g id="a_node6"><a xlink:href="../../../api/L4YAML/Proofs/Parser/ParserWellBehaved.html#L4YAML.Proofs.ParserWellBehaved.empty_scalar_scannable" xlink:title="ParserWellBehaved.empty_scalar_scannable" target="_blank">
<polygon fill="#fff3cd" stroke="#d4a017" points="526.16,-134.54 526.16,-149.46 424.54,-160 280.83,-160 179.21,-149.46 179.21,-134.54 280.83,-124 424.54,-124 526.16,-134.54"/>
<polygon fill="none" stroke="#d4a017" points="530.16,-130.94 530.16,-153.06 424.74,-164 280.62,-164 175.2,-153.06 175.2,-130.94 280.62,-120 424.74,-120 530.16,-130.94"/>
<text text-anchor="middle" x="352.68" y="-138.9" font-family="Helvetica" font-size="12.00">ParserWellBehaved.empty_scalar_scannable</text>
</a>
</g>
</g>
<!-- L4YAML.Proofs.ParserWellBehaved.empty_scalar_scannable&#45;&gt;L4YAML.Scalar.mk -->
<g id="edge4" class="edge">
<title>L4YAML.Proofs.ParserWellBehaved.empty_scalar_scannable&#45;&gt;L4YAML.Scalar.mk</title>
<path fill="none" stroke="#4a90d9" stroke-width="2" d="M412.91,-164.12C471.16,-185.86 558.2,-218.36 606.79,-236.51"/>
<polygon fill="#4a90d9" stroke="#4a90d9" stroke-width="2" points="605.97,-238.82 613.39,-238.97 607.69,-234.23 605.97,-238.82"/>
<text text-anchor="middle" x="560.42" y="-223.6" font-family="Times-Roman" font-size="8.00" fill="#4a90d9">about</text>
</g>
<!-- L4YAML.Proofs.ParserWellBehaved.empty_scalar_scannable&#45;&gt;L4YAML.Grammar.Scannable -->
<g id="edge3" class="edge">
<title>L4YAML.Proofs.ParserWellBehaved.empty_scalar_scannable&#45;&gt;L4YAML.Grammar.Scannable</title>
<path fill="none" stroke="#4a90d9" stroke-width="2" d="M454.84,-160.89C497.76,-168.9 546.3,-177.96 583.32,-184.87"/>
<polygon fill="#4a90d9" stroke="#4a90d9" stroke-width="2" points="583.24,-187.35 590.57,-186.23 584.14,-182.53 583.24,-187.35"/>
<text text-anchor="middle" x="560.42" y="-183.6" font-family="Times-Roman" font-size="8.00" fill="#4a90d9">about</text>
</g>
<!-- L4YAML.Proofs.ParserWellBehaved.empty_scalar_scannable&#45;&gt;L4YAML.BlockScalarMeta -->
<g id="edge2" class="edge">
<title>L4YAML.Proofs.ParserWellBehaved.empty_scalar_scannable&#45;&gt;L4YAML.BlockScalarMeta</title>
<path fill="none" stroke="#4a90d9" stroke-width="2" d="M530.27,-142C552.19,-142 573.08,-142 590.78,-142"/>
<polygon fill="#4a90d9" stroke="#4a90d9" stroke-width="2" points="591.17,-144.45 598.17,-142 591.17,-139.55 591.17,-144.45"/>
<text text-anchor="middle" x="560.42" y="-144.6" font-family="Times-Roman" font-size="8.00" fill="#4a90d9">about</text>
</g>
<!-- L4YAML.Proofs.ParserWellBehaved.empty_scalar_scannable&#45;&gt;L4YAML.ScalarStyle.plain -->
<g id="edge5" class="edge">
<title>L4YAML.Proofs.ParserWellBehaved.empty_scalar_scannable&#45;&gt;L4YAML.ScalarStyle.plain</title>
<path fill="none" stroke="#4a90d9" stroke-width="2" d="M454.84,-123.11C501.16,-114.47 554.03,-104.6 591.89,-97.53"/>
<polygon fill="#4a90d9" stroke="#4a90d9" stroke-width="2" points="592.35,-99.93 598.79,-96.24 591.45,-95.12 592.35,-99.93"/>
<text text-anchor="middle" x="560.42" y="-107.6" font-family="Times-Roman" font-size="8.00" fill="#4a90d9">about</text>
</g>
<!-- L4YAML.Proofs.ParserWellBehaved.empty_scalar_scannable&#45;&gt;L4YAML.YamlValue.scalar -->
<g id="edge1" class="edge">
<title>L4YAML.Proofs.ParserWellBehaved.empty_scalar_scannable&#45;&gt;L4YAML.YamlValue.scalar</title>
<path fill="none" stroke="#4a90d9" stroke-width="2" d="M412.91,-119.88C465.27,-100.33 540.88,-72.1 590.94,-53.41"/>
<polygon fill="#4a90d9" stroke="#4a90d9" stroke-width="2" points="591.82,-55.7 597.52,-50.95 590.11,-51.11 591.82,-55.7"/>
<text text-anchor="middle" x="560.42" y="-70.6" font-family="Times-Roman" font-size="8.00" fill="#4a90d9">about</text>
</g>
<!-- String.length_empty -->
<g id="node7" class="node">
<title>String.length_empty</title>
<g id="a_node7"><a xlink:href="../../../api/Init/Data/String/Basic.html#String.length_empty" xlink:title="String.length_empty" target="_blank">
<ellipse fill="#fdebd0" stroke="#e67e22" cx="77.22" cy="-196" rx="61.44" ry="18"/>
<text text-anchor="middle" x="77.22" y="-193.5" font-family="Helvetica" font-size="10.00">String.length_empty</text>
</a>
</g>
</g>
<!-- String.length_empty&#45;&gt;L4YAML.Proofs.ParserWellBehaved.empty_scalar_scannable -->
<g id="edge6" class="edge">
<title>String.length_empty&#45;&gt;L4YAML.Proofs.ParserWellBehaved.empty_scalar_scannable</title>
<path fill="none" stroke="#e67e22" stroke-width="2" d="M128.38,-186.1C161.54,-179.55 206.24,-170.72 246.93,-162.68"/>
<polygon fill="#e67e22" stroke="#e67e22" stroke-width="2" points="247.56,-165.06 253.95,-161.3 246.61,-160.25 247.56,-165.06"/>
</g>
<!-- Nat.lt_irrefl._simp_1 -->
<g id="node8" class="node">
<title>Nat.lt_irrefl._simp_1</title>
<g id="a_node8"><a xlink:href="../../../api/Init/Data/Nat/Basic.html#Nat.lt_irrefl._simp_1" xlink:title="Nat.lt_irrefl._simp_1" target="_blank">
<ellipse fill="#fdebd0" stroke="#e67e22" cx="77.22" cy="-142" rx="61.44" ry="18"/>
<text text-anchor="middle" x="77.22" y="-139.5" font-family="Helvetica" font-size="10.00">Nat.lt_irrefl._simp_1</text>
</a>
</g>
</g>
<!-- Nat.lt_irrefl._simp_1&#45;&gt;L4YAML.Proofs.ParserWellBehaved.empty_scalar_scannable -->
<g id="edge7" class="edge">
<title>Nat.lt_irrefl._simp_1&#45;&gt;L4YAML.Proofs.ParserWellBehaved.empty_scalar_scannable</title>
<path fill="none" stroke="#e67e22" stroke-width="2" d="M138.57,-142C147.84,-142 157.79,-142 168.15,-142"/>
<polygon fill="#e67e22" stroke="#e67e22" stroke-width="2" points="168.39,-144.45 175.39,-142 168.39,-139.55 168.39,-144.45"/>
</g>
<!-- gt_iff_lt._simp_1 -->
<g id="node9" class="node">
<title>gt_iff_lt._simp_1</title>
<g id="a_node9"><a xlink:href="../../../api/Init/Core.html#gt_iff_lt._simp_1" xlink:title="gt_iff_lt._simp_1" target="_blank">
<ellipse fill="#fdebd0" stroke="#e67e22" cx="77.22" cy="-88" rx="51.43" ry="18"/>
<text text-anchor="middle" x="77.22" y="-85.5" font-family="Helvetica" font-size="10.00">gt_iff_lt._simp_1</text>
</a>
</g>
</g>
<!-- gt_iff_lt._simp_1&#45;&gt;L4YAML.Proofs.ParserWellBehaved.empty_scalar_scannable -->
<g id="edge8" class="edge">
<title>gt_iff_lt._simp_1&#45;&gt;L4YAML.Proofs.ParserWellBehaved.empty_scalar_scannable</title>
<path fill="none" stroke="#e67e22" stroke-width="2" d="M122.16,-96.68C155.84,-103.33 203.73,-112.79 247.07,-121.34"/>
<polygon fill="#e67e22" stroke="#e67e22" stroke-width="2" points="246.64,-123.76 253.98,-122.71 247.59,-118.95 246.64,-123.76"/>
</g>
</g>
</svg>
