<?xml version="1.0" encoding="UTF-8" standalone="no"?>
<!DOCTYPE svg PUBLIC "-//W3C//DTD SVG 1.1//EN"
 "http://www.w3.org/Graphics/SVG/1.1/DTD/svg11.dtd">
<!-- Generated by graphviz version 2.44.0 (0)
 -->
<!-- Title: chain_ParserWellBehaved.parseNodeWB_apply Pages: 1 -->
<svg width="1720pt" height="201pt"
 viewBox="0.00 0.00 1720.00 200.92" xmlns="http://www.w3.org/2000/svg" xmlns:xlink="http://www.w3.org/1999/xlink">
<g id="graph0" class="graph" transform="scale(1 1) rotate(0) translate(4 196.92)">
<title>chain_ParserWellBehaved.parseNodeWB_apply</title>
<polygon fill="white" stroke="transparent" points="-4,4 -4,-196.92 1716,-196.92 1716,4 -4,4"/>
<text text-anchor="middle" x="856" y="-178.52" font-family="Helvetica Bold" font-size="13.00">Structural theorem: ParserWellBehaved.parseNodeWB_apply\nProof is a witness / injection — no fibration depth\n(heuristic: used by 11 proofs)</text>
<g id="clust1" class="cluster">
<title>cluster_direct</title>
<polygon fill="none" stroke="#4a90d9" stroke-dasharray="5,2" points="8,-8 8,-82 1704,-82 1704,-8 8,-8"/>
<text text-anchor="middle" x="856" y="-67.6" font-family="Helvetica Bold" font-size="13.00" fill="#4a90d9">About (no chain extends — proof is structural)</text>
</g>
<!-- L4YAML.Proofs.ParserWellBehaved.parseNodeWB_apply -->
<g id="node1" class="node">
<title>L4YAML.Proofs.ParserWellBehaved.parseNodeWB_apply</title>
<polygon fill="#fff3cd" stroke="#d4a017" points="792.56,-134.46 792.56,-153.46 704.36,-166.89 579.64,-166.89 491.44,-153.46 491.44,-134.46 579.64,-121.03 704.36,-121.03 792.56,-134.46"/>
<polygon fill="none" stroke="#d4a017" points="796.55,-131.03 796.55,-156.89 704.67,-170.88 579.33,-170.88 487.45,-156.89 487.45,-131.03 579.33,-117.04 704.67,-117.04 796.55,-131.03"/>
<text text-anchor="middle" x="642" y="-146.96" font-family="Helvetica" font-size="10.00">ParserWellBehaved.parseNodeWB_apply</text>
<text text-anchor="middle" x="642" y="-135.96" font-family="Helvetica" font-size="10.00">(structural)</text>
</g>
<!-- L4YAML.TokenParser.ParseState.pos -->
<g id="node2" class="node">
<title>L4YAML.TokenParser.ParseState.pos</title>
<g id="a_node2"><a xlink:href="../../../api/L4YAML/Parser/State.html#L4YAML.TokenParser.ParseState.pos" xlink:title="TokenParser.ParseState.pos" target="_blank">
<polygon fill="#dce9f7" stroke="#4a90d9" points="159.5,-52 16.5,-52 16.5,-16 159.5,-16 159.5,-52"/>
<text text-anchor="middle" x="88" y="-31.5" font-family="Helvetica" font-size="10.00">TokenParser.ParseState.pos</text>
</a>
</g>
</g>
<!-- L4YAML.Proofs.ParserWellBehaved.parseNodeWB_apply&#45;&gt;L4YAML.TokenParser.ParseState.pos -->
<g id="edge1" class="edge">
<title>L4YAML.Proofs.ParserWellBehaved.parseNodeWB_apply&#45;&gt;L4YAML.TokenParser.ParseState.pos</title>
<path fill="none" stroke="#4a90d9" stroke-width="2" d="M487.38,-131.26C372.16,-121.01 225.42,-104.26 169,-82 151.66,-75.16 133.61,-65.02 118.96,-55.91"/>
<polygon fill="#4a90d9" stroke="#4a90d9" stroke-width="2" points="120.13,-53.75 112.91,-52.08 117.51,-57.89 120.13,-53.75"/>
<text text-anchor="middle" x="237.5" y="-92.6" font-family="Times-Roman" font-size="8.00" fill="#4a90d9">about</text>
</g>
<!-- L4YAML.Positioned -->
<g id="node3" class="node">
<title>L4YAML.Positioned</title>
<g id="a_node3"><a xlink:href="../../../api/L4YAML/Token/Token.html#L4YAML.Positioned" xlink:title="Positioned" target="_blank">
<polygon fill="#dce9f7" stroke="#4a90d9" points="240,-52 178,-52 178,-16 240,-16 240,-52"/>
<text text-anchor="middle" x="209" y="-31.5" font-family="Helvetica" font-size="10.00">Positioned</text>
</a>
</g>
</g>
<!-- L4YAML.Proofs.ParserWellBehaved.parseNodeWB_apply&#45;&gt;L4YAML.Positioned -->
<g id="edge2" class="edge">
<title>L4YAML.Proofs.ParserWellBehaved.parseNodeWB_apply&#45;&gt;L4YAML.Positioned</title>
<path fill="none" stroke="#4a90d9" stroke-width="2" d="M491.17,-130.46C398.53,-120.71 290.02,-104.93 249,-82 238.72,-76.25 229.89,-66.78 223.17,-57.83"/>
<polygon fill="#4a90d9" stroke="#4a90d9" stroke-width="2" points="225.12,-56.35 219.06,-52.08 221.13,-59.2 225.12,-56.35"/>
<text text-anchor="middle" x="306.5" y="-92.6" font-family="Times-Roman" font-size="8.00" fill="#4a90d9">about</text>
</g>
<!-- L4YAML.Grammar.Scannable -->
<g id="node4" class="node">
<title>L4YAML.Grammar.Scannable</title>
<g id="a_node4"><a xlink:href="../../../api/L4YAML/Spec/Grammar.html#L4YAML.Grammar.Scannable" xlink:title="Grammar.Scannable" target="_blank">
<polygon fill="#dce9f7" stroke="#4a90d9" points="364,-52 258,-52 258,-16 364,-16 364,-52"/>
<text text-anchor="middle" x="311" y="-31.5" font-family="Helvetica" font-size="10.00">Grammar.Scannable</text>
</a>
</g>
</g>
<!-- L4YAML.Proofs.ParserWellBehaved.parseNodeWB_apply&#45;&gt;L4YAML.Grammar.Scannable -->
<g id="edge3" class="edge">
<title>L4YAML.Proofs.ParserWellBehaved.parseNodeWB_apply&#45;&gt;L4YAML.Grammar.Scannable</title>
<path fill="none" stroke="#4a90d9" stroke-width="2" d="M516.22,-126.58C469.67,-117.44 417.44,-103.39 373,-82 359.42,-75.47 345.91,-65.7 334.97,-56.76"/>
<polygon fill="#4a90d9" stroke="#4a90d9" stroke-width="2" points="336.45,-54.8 329.51,-52.19 333.3,-58.56 336.45,-54.8"/>
<text text-anchor="middle" x="420.5" y="-92.6" font-family="Times-Roman" font-size="8.00" fill="#4a90d9">about</text>
</g>
<!-- L4YAML.YamlToken -->
<g id="node5" class="node">
<title>L4YAML.YamlToken</title>
<g id="a_node5"><a xlink:href="../../../api/L4YAML/Token/Token.html#L4YAML.YamlToken" xlink:title="YamlToken" target="_blank">
<polygon fill="#dce9f7" stroke="#4a90d9" points="446,-52 382,-52 382,-16 446,-16 446,-52"/>
<text text-anchor="middle" x="414" y="-31.5" font-family="Helvetica" font-size="10.00">YamlToken</text>
</a>
</g>
</g>
<!-- L4YAML.Proofs.ParserWellBehaved.parseNodeWB_apply&#45;&gt;L4YAML.YamlToken -->
<g id="edge4" class="edge">
<title>L4YAML.Proofs.ParserWellBehaved.parseNodeWB_apply&#45;&gt;L4YAML.YamlToken</title>
<path fill="none" stroke="#4a90d9" stroke-width="2" d="M545.25,-122.19C514.79,-112.9 482.06,-99.89 455,-82 445.46,-75.69 436.81,-66.59 429.95,-58.07"/>
<polygon fill="#4a90d9" stroke="#4a90d9" stroke-width="2" points="431.71,-56.34 425.49,-52.31 427.83,-59.34 431.71,-56.34"/>
<text text-anchor="middle" x="495.5" y="-92.6" font-family="Times-Roman" font-size="8.00" fill="#4a90d9">about</text>
</g>
<!-- L4YAML.ScanError -->
<g id="node6" class="node">
<title>L4YAML.ScanError</title>
<g id="a_node6"><a xlink:href="../../../api/L4YAML/Token/Token.html#L4YAML.ScanError" xlink:title="ScanError" target="_blank">
<polygon fill="#dce9f7" stroke="#4a90d9" points="524,-52 464,-52 464,-16 524,-16 524,-52"/>
<text text-anchor="middle" x="494" y="-31.5" font-family="Helvetica" font-size="10.00">ScanError</text>
</a>
</g>
</g>
<!-- L4YAML.Proofs.ParserWellBehaved.parseNodeWB_apply&#45;&gt;L4YAML.ScanError -->
<g id="edge5" class="edge">
<title>L4YAML.Proofs.ParserWellBehaved.parseNodeWB_apply&#45;&gt;L4YAML.ScanError</title>
<path fill="none" stroke="#4a90d9" stroke-width="2" d="M586.24,-116.89C568.33,-107.22 549,-95.31 533,-82 524.82,-75.19 517.05,-66.49 510.64,-58.43"/>
<polygon fill="#4a90d9" stroke="#4a90d9" stroke-width="2" points="512.23,-56.48 506.01,-52.44 508.35,-59.48 512.23,-56.48"/>
<text text-anchor="middle" x="567.5" y="-92.6" font-family="Times-Roman" font-size="8.00" fill="#4a90d9">about</text>
</g>
<!-- L4YAML.TokenParser.parseNode -->
<g id="node7" class="node">
<title>L4YAML.TokenParser.parseNode</title>
<g id="a_node7"><a xlink:href="../../../api/L4YAML/Parser/TokenParser.html#L4YAML.TokenParser.parseNode" xlink:title="TokenParser.parseNode" target="_blank">
<polygon fill="#dce9f7" stroke="#4a90d9" points="664,-52 542,-52 542,-16 664,-16 664,-52"/>
<text text-anchor="middle" x="603" y="-31.5" font-family="Helvetica" font-size="10.00">TokenParser.parseNode</text>
</a>
</g>
</g>
<!-- L4YAML.Proofs.ParserWellBehaved.parseNodeWB_apply&#45;&gt;L4YAML.TokenParser.parseNode -->
<g id="edge6" class="edge">
<title>L4YAML.Proofs.ParserWellBehaved.parseNodeWB_apply&#45;&gt;L4YAML.TokenParser.parseNode</title>
<path fill="none" stroke="#4a90d9" stroke-width="2" d="M632.56,-116.83C626.21,-99.24 617.9,-76.23 611.7,-59.09"/>
<polygon fill="#4a90d9" stroke="#4a90d9" stroke-width="2" points="613.87,-57.89 609.19,-52.14 609.27,-59.56 613.87,-57.89"/>
<text text-anchor="middle" x="637.5" y="-92.6" font-family="Times-Roman" font-size="8.00" fill="#4a90d9">about</text>
</g>
<!-- L4YAML.YamlValue -->
<g id="node8" class="node">
<title>L4YAML.YamlValue</title>
<g id="a_node8"><a xlink:href="../../../api/L4YAML/Spec/Types.html#L4YAML.YamlValue" xlink:title="YamlValue" target="_blank">
<polygon fill="#dce9f7" stroke="#4a90d9" points="744,-52 682,-52 682,-16 744,-16 744,-52"/>
<text text-anchor="middle" x="713" y="-31.5" font-family="Helvetica" font-size="10.00">YamlValue</text>
</a>
</g>
</g>
<!-- L4YAML.Proofs.ParserWellBehaved.parseNodeWB_apply&#45;&gt;L4YAML.YamlValue -->
<g id="edge7" class="edge">
<title>L4YAML.Proofs.ParserWellBehaved.parseNodeWB_apply&#45;&gt;L4YAML.YamlValue</title>
<path fill="none" stroke="#4a90d9" stroke-width="2" d="M659.19,-116.83C670.96,-98.93 686.42,-75.41 697.76,-58.18"/>
<polygon fill="#4a90d9" stroke="#4a90d9" stroke-width="2" points="699.93,-59.34 701.73,-52.14 695.83,-56.64 699.93,-59.34"/>
<text text-anchor="middle" x="687.5" y="-92.6" font-family="Times-Roman" font-size="8.00" fill="#4a90d9">about</text>
</g>
<!-- L4YAML.TokenParser.ParseState.tokens -->
<g id="node9" class="node">
<title>L4YAML.TokenParser.ParseState.tokens</title>
<g id="a_node9"><a xlink:href="../../../api/L4YAML/Parser/State.html#L4YAML.TokenParser.ParseState.tokens" xlink:title="TokenParser.ParseState.tokens" target="_blank">
<polygon fill="#dce9f7" stroke="#4a90d9" points="917.5,-52 762.5,-52 762.5,-16 917.5,-16 917.5,-52"/>
<text text-anchor="middle" x="840" y="-31.5" font-family="Helvetica" font-size="10.00">TokenParser.ParseState.tokens</text>
</a>
</g>
</g>
<!-- L4YAML.Proofs.ParserWellBehaved.parseNodeWB_apply&#45;&gt;L4YAML.TokenParser.ParseState.tokens -->
<g id="edge8" class="edge">
<title>L4YAML.Proofs.ParserWellBehaved.parseNodeWB_apply&#45;&gt;L4YAML.TokenParser.ParseState.tokens</title>
<path fill="none" stroke="#4a90d9" stroke-width="2" d="M689.68,-116.96C724.33,-98.07 770.57,-72.86 802.58,-55.4"/>
<polygon fill="#4a90d9" stroke="#4a90d9" stroke-width="2" points="803.81,-57.52 808.78,-52.02 801.46,-53.22 803.81,-57.52"/>
<text text-anchor="middle" x="747.5" y="-92.6" font-family="Times-Roman" font-size="8.00" fill="#4a90d9">about</text>
</g>
<!-- L4YAML.Proofs.ParserWellBehaved.parseNodeWB_apply._auto_1 -->
<g id="node10" class="node">
<title>L4YAML.Proofs.ParserWellBehaved.parseNodeWB_apply._auto_1</title>
<g id="a_node10"><a xlink:href="../../../api/L4YAML/Proofs/Parser/ParserWellBehaved.html#L4YAML.Proofs.ParserWellBehaved.parseNodeWB_apply._auto_1" xlink:title="ParserWellBehaved.parseNodeWB_apply._auto_1" target="_blank">
<polygon fill="#dce9f7" stroke="#4a90d9" points="1170,-52 936,-52 936,-16 1170,-16 1170,-52"/>
<text text-anchor="middle" x="1053" y="-31.5" font-family="Helvetica" font-size="10.00">ParserWellBehaved.parseNodeWB_apply._auto_1</text>
</a>
</g>
</g>
<!-- L4YAML.Proofs.ParserWellBehaved.parseNodeWB_apply&#45;&gt;L4YAML.Proofs.ParserWellBehaved.parseNodeWB_apply._auto_1 -->
<g id="edge9" class="edge">
<title>L4YAML.Proofs.ParserWellBehaved.parseNodeWB_apply&#45;&gt;L4YAML.Proofs.ParserWellBehaved.parseNodeWB_apply._auto_1</title>
<path fill="none" stroke="#4a90d9" stroke-width="2" d="M749.5,-123.83C803.27,-113.28 869.08,-98.9 927,-82 953.21,-74.35 981.77,-63.88 1005.06,-54.77"/>
<polygon fill="#4a90d9" stroke="#4a90d9" stroke-width="2" points="1006.19,-56.96 1011.8,-52.11 1004.39,-52.4 1006.19,-56.96"/>
<text text-anchor="middle" x="908.5" y="-92.6" font-family="Times-Roman" font-size="8.00" fill="#4a90d9">about</text>
</g>
<!-- L4YAML.Proofs.ParserWellBehaved.ParseNodeWB -->
<g id="node11" class="node">
<title>L4YAML.Proofs.ParserWellBehaved.ParseNodeWB</title>
<g id="a_node11"><a xlink:href="../../../api/L4YAML/Proofs/Parser/ParserWellBehaved.html#L4YAML.Proofs.ParserWellBehaved.ParseNodeWB" xlink:title="ParserWellBehaved.ParseNodeWB" target="_blank">
<polygon fill="#dce9f7" stroke="#4a90d9" points="1358,-52 1188,-52 1188,-16 1358,-16 1358,-52"/>
<text text-anchor="middle" x="1273" y="-31.5" font-family="Helvetica" font-size="10.00">ParserWellBehaved.ParseNodeWB</text>
</a>
</g>
</g>
<!-- L4YAML.Proofs.ParserWellBehaved.parseNodeWB_apply&#45;&gt;L4YAML.Proofs.ParserWellBehaved.ParseNodeWB -->
<g id="edge10" class="edge">
<title>L4YAML.Proofs.ParserWellBehaved.parseNodeWB_apply&#45;&gt;L4YAML.Proofs.ParserWellBehaved.ParseNodeWB</title>
<path fill="none" stroke="#4a90d9" stroke-width="2" d="M796.74,-139.69C905.6,-133.95 1053.63,-119.19 1179,-82 1199.88,-75.81 1221.72,-65.17 1239.09,-55.59"/>
<polygon fill="#4a90d9" stroke="#4a90d9" stroke-width="2" points="1240.37,-57.68 1245.27,-52.11 1237.97,-53.4 1240.37,-57.68"/>
<text text-anchor="middle" x="1148.5" y="-92.6" font-family="Times-Roman" font-size="8.00" fill="#4a90d9">about</text>
</g>
<!-- L4YAML.TokenParser.ParseState -->
<g id="node12" class="node">
<title>L4YAML.TokenParser.ParseState</title>
<g id="a_node12"><a xlink:href="../../../api/L4YAML/Parser/State.html#L4YAML.TokenParser.ParseState" xlink:title="TokenParser.ParseState" target="_blank">
<polygon fill="#dce9f7" stroke="#4a90d9" points="1500,-52 1376,-52 1376,-16 1500,-16 1500,-52"/>
<text text-anchor="middle" x="1438" y="-31.5" font-family="Helvetica" font-size="10.00">TokenParser.ParseState</text>
</a>
</g>
</g>
<!-- L4YAML.Proofs.ParserWellBehaved.parseNodeWB_apply&#45;&gt;L4YAML.TokenParser.ParseState -->
<g id="edge11" class="edge">
<title>L4YAML.Proofs.ParserWellBehaved.parseNodeWB_apply&#45;&gt;L4YAML.TokenParser.ParseState</title>
<path fill="none" stroke="#4a90d9" stroke-width="2" d="M796.95,-138.91C977.88,-132.62 1265.36,-117.31 1367,-82 1383.35,-76.32 1399.59,-66.01 1412.41,-56.48"/>
<polygon fill="#4a90d9" stroke="#4a90d9" stroke-width="2" points="1413.96,-58.38 1418.04,-52.19 1410.99,-54.48 1413.96,-58.38"/>
<text text-anchor="middle" x="1347.5" y="-92.6" font-family="Times-Roman" font-size="8.00" fill="#4a90d9">about</text>
</g>
<!-- L4YAML.Proofs.ScannerPlainScalarValid.flowNesting -->
<g id="node13" class="node">
<title>L4YAML.Proofs.ScannerPlainScalarValid.flowNesting</title>
<g id="a_node13"><a xlink:href="../../../api/L4YAML/Proofs/Production/ScannerPlainScalarValid.html#L4YAML.Proofs.ScannerPlainScalarValid.flowNesting" xlink:title="ScannerPlainScalarValid.flowNesting" target="_blank">
<polygon fill="#dce9f7" stroke="#4a90d9" points="1696,-52 1518,-52 1518,-16 1696,-16 1696,-52"/>
<text text-anchor="middle" x="1607" y="-31.5" font-family="Helvetica" font-size="10.00">ScannerPlainScalarValid.flowNesting</text>
</a>
</g>
</g>
<!-- L4YAML.Proofs.ParserWellBehaved.parseNodeWB_apply&#45;&gt;L4YAML.Proofs.ScannerPlainScalarValid.flowNesting -->
<g id="edge12" class="edge">
<title>L4YAML.Proofs.ParserWellBehaved.parseNodeWB_apply&#45;&gt;L4YAML.Proofs.ScannerPlainScalarValid.flowNesting</title>
<path fill="none" stroke="#4a90d9" stroke-width="2" d="M796.76,-136.04C943.09,-128.91 1168.71,-116.38 1364,-99 1428.63,-93.25 1446.68,-100.05 1509,-82 1530.63,-75.73 1553.39,-65.1 1571.53,-55.52"/>
<polygon fill="#4a90d9" stroke="#4a90d9" stroke-width="2" points="1572.98,-57.52 1577.99,-52.06 1570.66,-53.21 1572.98,-57.52"/>
<text text-anchor="middle" x="1488.5" y="-92.6" font-family="Times-Roman" font-size="8.00" fill="#4a90d9">about</text>
</g>
</g>
</svg>
