<?xml version="1.0" encoding="UTF-8" standalone="no"?>
<!DOCTYPE svg PUBLIC "-//W3C//DTD SVG 1.1//EN"
 "http://www.w3.org/Graphics/SVG/1.1/DTD/svg11.dtd">
<!-- Generated by graphviz version 2.44.0 (0)
 -->
<!-- Title: ParserWellBehaved.tryConsume_tokens Pages: 1 -->
<svg width="724pt" height="364pt"
 viewBox="0.00 0.00 724.49 364.00" xmlns="http://www.w3.org/2000/svg" xmlns:xlink="http://www.w3.org/1999/xlink">
<g id="graph0" class="graph" transform="scale(1 1) rotate(0) translate(4 360)">
<title>ParserWellBehaved.tryConsume_tokens</title>
<polygon fill="white" stroke="transparent" points="-4,4 -4,-360 720.49,-360 720.49,4 -4,4"/>
<text text-anchor="middle" x="358.25" y="-341.6" font-family="Helvetica Bold" font-size="13.00">ParserWellBehaved.tryConsume_tokens</text>
<text text-anchor="middle" x="358.25" y="-327.6" font-family="Helvetica Bold" font-size="13.00">(heuristic: used by 5 proofs)</text>
<text text-anchor="middle" x="358.25" y="-313.6" font-family="Helvetica Bold" font-size="13.00">(L4YAML.Proofs.Parser.ParserWellBehaved)</text>
<g id="clust1" class="cluster">
<title>cluster_functions</title>
<polygon fill="none" stroke="#4a90d9" stroke-dasharray="5,2" points="511.49,-8 511.49,-298 708.49,-298 708.49,-8 511.49,-8"/>
<text text-anchor="middle" x="609.99" y="-283.6" font-family="Helvetica Bold" font-size="13.00" fill="#4a90d9">Functions</text>
</g>
<g id="clust2" class="cluster">
<title>cluster_key</title>
<polygon fill="none" stroke="#d4a017" stroke-dasharray="5,2" points="131.99,-112 131.99,-194 466.49,-194 466.49,-112 131.99,-112"/>
<text text-anchor="middle" x="299.24" y="-179.6" font-family="Helvetica Bold" font-size="13.00" fill="#d4a017">Key Theorem</text>
</g>
<g id="clust4" class="cluster">
<title>cluster_stdlib</title>
<polygon fill="none" stroke="#e67e22" stroke-dasharray="5,2" points="0,-82 0,-210 110.99,-210 110.99,-82 0,-82"/>
<text text-anchor="middle" x="55.5" y="-195.6" font-family="Helvetica Bold" font-size="13.00" fill="#e67e22">Stdlib Lemmas</text>
</g>
<!-- L4YAML.Positioned -->
<g id="node1" class="node">
<title>L4YAML.Positioned</title>
<g id="a_node1"><a xlink:href="../../../api/L4YAML/Token/Token.html#L4YAML.Positioned" xlink:title="Positioned\n(inductive)" target="_blank">
<polygon fill="#dce9f7" stroke="#4a90d9" points="640.99,-268 578.99,-268 578.99,-232 640.99,-232 640.99,-268"/>
<text text-anchor="middle" x="609.99" y="-253" font-family="Helvetica" font-size="10.00">Positioned</text>
<text text-anchor="middle" x="609.99" y="-242" font-family="Helvetica" font-size="10.00">(inductive)</text>
</a>
</g>
</g>
<!-- L4YAML.YamlToken -->
<g id="node2" class="node">
<title>L4YAML.YamlToken</title>
<g id="a_node2"><a xlink:href="../../../api/L4YAML/Token/Token.html#L4YAML.YamlToken" xlink:title="YamlToken\n(inductive)" target="_blank">
<polygon fill="#dce9f7" stroke="#4a90d9" points="641.99,-214 577.99,-214 577.99,-178 641.99,-178 641.99,-214"/>
<text text-anchor="middle" x="609.99" y="-199" font-family="Helvetica" font-size="10.00">YamlToken</text>
<text text-anchor="middle" x="609.99" y="-188" font-family="Helvetica" font-size="10.00">(inductive)</text>
</a>
</g>
</g>
<!-- L4YAML.TokenParser.ParseState -->
<g id="node3" class="node">
<title>L4YAML.TokenParser.ParseState</title>
<g id="a_node3"><a xlink:href="../../../api/L4YAML/Parser/State.html#L4YAML.TokenParser.ParseState" xlink:title="TokenParser.ParseState\n(inductive)" target="_blank">
<polygon fill="#dce9f7" stroke="#4a90d9" points="671.99,-160 547.99,-160 547.99,-124 671.99,-124 671.99,-160"/>
<text text-anchor="middle" x="609.99" y="-145" font-family="Helvetica" font-size="10.00">TokenParser.ParseState</text>
<text text-anchor="middle" x="609.99" y="-134" font-family="Helvetica" font-size="10.00">(inductive)</text>
</a>
</g>
</g>
<!-- L4YAML.TokenParser.ParseState.tryConsume -->
<g id="node4" class="node">
<title>L4YAML.TokenParser.ParseState.tryConsume</title>
<g id="a_node4"><a xlink:href="../../../api/L4YAML/Parser/State.html#L4YAML.TokenParser.ParseState.tryConsume" xlink:title="TokenParser.ParseState.tryConsume\n(def)" target="_blank">
<polygon fill="#dce9f7" stroke="#4a90d9" points="700.49,-106 519.49,-106 519.49,-70 700.49,-70 700.49,-106"/>
<text text-anchor="middle" x="609.99" y="-91" font-family="Helvetica" font-size="10.00">TokenParser.ParseState.tryConsume</text>
<text text-anchor="middle" x="609.99" y="-80" font-family="Helvetica" font-size="10.00">(def)</text>
</a>
</g>
</g>
<!-- L4YAML.TokenParser.ParseState.tokens -->
<g id="node5" class="node">
<title>L4YAML.TokenParser.ParseState.tokens</title>
<g id="a_node5"><a xlink:href="../../../api/L4YAML/Parser/State.html#L4YAML.TokenParser.ParseState.tokens" xlink:title="TokenParser.ParseState.tokens\n(def)" target="_blank">
<polygon fill="#dce9f7" stroke="#4a90d9" points="687.49,-52 532.49,-52 532.49,-16 687.49,-16 687.49,-52"/>
<text text-anchor="middle" x="609.99" y="-37" font-family="Helvetica" font-size="10.00">TokenParser.ParseState.tokens</text>
<text text-anchor="middle" x="609.99" y="-26" font-family="Helvetica" font-size="10.00">(def)</text>
</a>
</g>
</g>
<!-- L4YAML.Proofs.ParserWellBehaved.tryConsume_tokens -->
<g id="node6" class="node">
<title>L4YAML.Proofs.ParserWellBehaved.tryConsume_tokens</title>
<g id="a_node6"><a xlink:href="../../../api/L4YAML/Proofs/Parser/ParserWellBehaved.html#L4YAML.Proofs.ParserWellBehaved.tryConsume_tokens" xlink:title="ParserWellBehaved.tryConsume_tokens" target="_blank">
<polygon fill="#fff3cd" stroke="#d4a017" points="454.74,-134.54 454.74,-149.46 363.65,-160 234.84,-160 143.75,-149.46 143.75,-134.54 234.84,-124 363.65,-124 454.74,-134.54"/>
<polygon fill="none" stroke="#d4a017" points="458.74,-130.98 458.74,-153.02 363.88,-164 234.6,-164 139.74,-153.02 139.74,-130.98 234.6,-120 363.88,-120 458.74,-130.98"/>
<text text-anchor="middle" x="299.24" y="-138.9" font-family="Helvetica" font-size="12.00">ParserWellBehaved.tryConsume_tokens</text>
</a>
</g>
</g>
<!-- L4YAML.Proofs.ParserWellBehaved.tryConsume_tokens&#45;&gt;L4YAML.Positioned -->
<g id="edge1" class="edge">
<title>L4YAML.Proofs.ParserWellBehaved.tryConsume_tokens&#45;&gt;L4YAML.Positioned</title>
<path fill="none" stroke="#4a90d9" stroke-width="2" d="M353.56,-164.08C395.97,-181.24 457.02,-205.06 511.49,-223 531.23,-229.5 553.54,-235.76 571.84,-240.61"/>
<polygon fill="#4a90d9" stroke="#4a90d9" stroke-width="2" points="571.51,-243.05 578.9,-242.46 572.75,-238.32 571.51,-243.05"/>
<text text-anchor="middle" x="488.99" y="-221.6" font-family="Times-Roman" font-size="8.00" fill="#4a90d9">about</text>
</g>
<!-- L4YAML.Proofs.ParserWellBehaved.tryConsume_tokens&#45;&gt;L4YAML.YamlToken -->
<g id="edge2" class="edge">
<title>L4YAML.Proofs.ParserWellBehaved.tryConsume_tokens&#45;&gt;L4YAML.YamlToken</title>
<path fill="none" stroke="#4a90d9" stroke-width="2" d="M401.34,-159.68C459.36,-169.83 528.83,-181.98 570.9,-189.34"/>
<polygon fill="#4a90d9" stroke="#4a90d9" stroke-width="2" points="570.6,-191.77 577.92,-190.56 571.44,-186.95 570.6,-191.77"/>
<text text-anchor="middle" x="488.99" y="-178.6" font-family="Times-Roman" font-size="8.00" fill="#4a90d9">about</text>
</g>
<!-- L4YAML.Proofs.ParserWellBehaved.tryConsume_tokens&#45;&gt;L4YAML.TokenParser.ParseState -->
<g id="edge5" class="edge">
<title>L4YAML.Proofs.ParserWellBehaved.tryConsume_tokens&#45;&gt;L4YAML.TokenParser.ParseState</title>
<path fill="none" stroke="#4a90d9" stroke-width="2" d="M458.69,-142C487.53,-142 516.18,-142 540.61,-142"/>
<polygon fill="#4a90d9" stroke="#4a90d9" stroke-width="2" points="540.71,-144.45 547.71,-142 540.71,-139.55 540.71,-144.45"/>
<text text-anchor="middle" x="488.99" y="-144.6" font-family="Times-Roman" font-size="8.00" fill="#4a90d9">about</text>
</g>
<!-- L4YAML.Proofs.ParserWellBehaved.tryConsume_tokens&#45;&gt;L4YAML.TokenParser.ParseState.tryConsume -->
<g id="edge3" class="edge">
<title>L4YAML.Proofs.ParserWellBehaved.tryConsume_tokens&#45;&gt;L4YAML.TokenParser.ParseState.tryConsume</title>
<path fill="none" stroke="#4a90d9" stroke-width="2" d="M401.34,-124.32C437.04,-118.08 477.06,-111.07 512.38,-104.9"/>
<polygon fill="#4a90d9" stroke="#4a90d9" stroke-width="2" points="512.9,-107.29 519.38,-103.67 512.06,-102.47 512.9,-107.29"/>
<text text-anchor="middle" x="488.99" y="-112.6" font-family="Times-Roman" font-size="8.00" fill="#4a90d9">about</text>
</g>
<!-- L4YAML.Proofs.ParserWellBehaved.tryConsume_tokens&#45;&gt;L4YAML.TokenParser.ParseState.tokens -->
<g id="edge4" class="edge">
<title>L4YAML.Proofs.ParserWellBehaved.tryConsume_tokens&#45;&gt;L4YAML.TokenParser.ParseState.tokens</title>
<path fill="none" stroke="#4a90d9" stroke-width="2" d="M353.56,-119.92C395.97,-102.76 457.02,-78.94 511.49,-61 518.65,-58.64 526.14,-56.32 533.65,-54.08"/>
<polygon fill="#4a90d9" stroke="#4a90d9" stroke-width="2" points="534.53,-56.38 540.55,-52.06 533.15,-51.68 534.53,-56.38"/>
<text text-anchor="middle" x="488.99" y="-72.6" font-family="Times-Roman" font-size="8.00" fill="#4a90d9">about</text>
</g>
<!-- eq_self -->
<g id="node7" class="node">
<title>eq_self</title>
<g id="a_node7"><a xlink:href="../../../api/Init/SimpLemmas.html#eq_self" xlink:title="eq_self" target="_blank">
<ellipse fill="#fdebd0" stroke="#e67e22" cx="55.5" cy="-162" rx="28.01" ry="18"/>
<text text-anchor="middle" x="55.5" y="-159.5" font-family="Helvetica" font-size="10.00">eq_self</text>
</a>
</g>
</g>
<!-- eq_self&#45;&gt;L4YAML.Proofs.ParserWellBehaved.tryConsume_tokens -->
<g id="edge6" class="edge">
<title>eq_self&#45;&gt;L4YAML.Proofs.ParserWellBehaved.tryConsume_tokens</title>
<path fill="none" stroke="#e67e22" stroke-width="2" d="M83.76,-159.74C99.37,-158.45 120.35,-156.72 143.09,-154.84"/>
<polygon fill="#e67e22" stroke="#e67e22" stroke-width="2" points="143.43,-157.27 150.2,-154.25 143.02,-152.38 143.43,-157.27"/>
</g>
<!-- of_eq_true -->
<g id="node8" class="node">
<title>of_eq_true</title>
<g id="a_node8"><a xlink:href="../../../api/Init/SimpLemmas.html#of_eq_true" xlink:title="of_eq_true" target="_blank">
<ellipse fill="#fdebd0" stroke="#e67e22" cx="55.5" cy="-108" rx="36.49" ry="18"/>
<text text-anchor="middle" x="55.5" y="-105.5" font-family="Helvetica" font-size="10.00">of_eq_true</text>
</a>
</g>
</g>
<!-- of_eq_true&#45;&gt;L4YAML.Proofs.ParserWellBehaved.tryConsume_tokens -->
<g id="edge7" class="edge">
<title>of_eq_true&#45;&gt;L4YAML.Proofs.ParserWellBehaved.tryConsume_tokens</title>
<path fill="none" stroke="#e67e22" stroke-width="2" d="M90.88,-112.84C113.66,-116.04 145.05,-120.45 176.52,-124.88"/>
<polygon fill="#e67e22" stroke="#e67e22" stroke-width="2" points="176.39,-127.34 183.66,-125.88 177.07,-122.48 176.39,-127.34"/>
</g>
</g>
</svg>
