<?xml version="1.0" encoding="UTF-8" standalone="no"?>
<!DOCTYPE svg PUBLIC "-//W3C//DTD SVG 1.1//EN"
 "http://www.w3.org/Graphics/SVG/1.1/DTD/svg11.dtd">
<!-- Generated by graphviz version 2.44.0 (0)
 -->
<!-- Title: EndToEndCorrectness.parse_deterministic Pages: 1 -->
<svg width="556pt" height="256pt"
 viewBox="0.00 0.00 556.49 256.00" xmlns="http://www.w3.org/2000/svg" xmlns:xlink="http://www.w3.org/1999/xlink">
<g id="graph0" class="graph" transform="scale(1 1) rotate(0) translate(4 252)">
<title>EndToEndCorrectness.parse_deterministic</title>
<polygon fill="white" stroke="transparent" points="-4,4 -4,-252 552.49,-252 552.49,4 -4,4"/>
<text text-anchor="middle" x="274.25" y="-233.6" font-family="Helvetica Bold" font-size="13.00">EndToEndCorrectness.parse_deterministic</text>
<text text-anchor="middle" x="274.25" y="-219.6" font-family="Helvetica Bold" font-size="13.00">4.3 parse_deterministic — parse is a function</text>
<text text-anchor="middle" x="274.25" y="-205.6" font-family="Helvetica Bold" font-size="13.00">(L4YAML.Proofs.EndToEndCorrectness)</text>
<g id="clust1" class="cluster">
<title>cluster_functions</title>
<polygon fill="none" stroke="#4a90d9" stroke-dasharray="5,2" points="403.49,-8 403.49,-190 540.49,-190 540.49,-8 403.49,-8"/>
<text text-anchor="middle" x="471.99" y="-175.6" font-family="Helvetica Bold" font-size="13.00" fill="#4a90d9">Functions</text>
</g>
<g id="clust2" class="cluster">
<title>cluster_key</title>
<polygon fill="none" stroke="#d4a017" stroke-dasharray="5,2" points="8,-58 8,-140 358.49,-140 358.49,-58 8,-58"/>
<text text-anchor="middle" x="183.25" y="-125.6" font-family="Helvetica Bold" font-size="13.00" fill="#d4a017">Key Theorem</text>
</g>
<!-- L4YAML.TokenParser.parseYaml -->
<g id="node1" class="node">
<title>L4YAML.TokenParser.parseYaml</title>
<polygon fill="#dce9f7" stroke="#4a90d9" points="532.49,-160 411.49,-160 411.49,-124 532.49,-124 532.49,-160"/>
<text text-anchor="middle" x="471.99" y="-145" font-family="Helvetica" font-size="10.00">TokenParser.parseYaml</text>
<text text-anchor="middle" x="471.99" y="-134" font-family="Helvetica" font-size="10.00">(def)</text>
</g>
<!-- L4YAML.ScanError -->
<g id="node2" class="node">
<title>L4YAML.ScanError</title>
<polygon fill="#dce9f7" stroke="#4a90d9" points="502.99,-106 440.99,-106 440.99,-70 502.99,-70 502.99,-106"/>
<text text-anchor="middle" x="471.99" y="-91" font-family="Helvetica" font-size="10.00">ScanError</text>
<text text-anchor="middle" x="471.99" y="-80" font-family="Helvetica" font-size="10.00">(inductive)</text>
</g>
<!-- L4YAML.YamlDocument -->
<g id="node3" class="node">
<title>L4YAML.YamlDocument</title>
<polygon fill="#dce9f7" stroke="#4a90d9" points="513.49,-52 430.49,-52 430.49,-16 513.49,-16 513.49,-52"/>
<text text-anchor="middle" x="471.99" y="-37" font-family="Helvetica" font-size="10.00">YamlDocument</text>
<text text-anchor="middle" x="471.99" y="-26" font-family="Helvetica" font-size="10.00">(inductive)</text>
</g>
<!-- L4YAML.Proofs.EndToEndCorrectness.parse_deterministic -->
<g id="node4" class="node">
<title>L4YAML.Proofs.EndToEndCorrectness.parse_deterministic</title>
<polygon fill="#fff3cd" stroke="#d4a017" points="346.73,-80.54 346.73,-95.46 250.96,-106 115.53,-106 19.76,-95.46 19.76,-80.54 115.53,-70 250.96,-70 346.73,-80.54"/>
<polygon fill="none" stroke="#d4a017" points="350.74,-76.96 350.74,-99.04 251.18,-110 115.31,-110 15.75,-99.04 15.75,-76.96 115.31,-66 251.18,-66 350.74,-76.96"/>
<text text-anchor="middle" x="183.25" y="-84.9" font-family="Helvetica" font-size="12.00">EndToEndCorrectness.parse_deterministic</text>
</g>
<!-- L4YAML.Proofs.EndToEndCorrectness.parse_deterministic&#45;&gt;L4YAML.TokenParser.parseYaml -->
<g id="edge1" class="edge">
<title>L4YAML.Proofs.EndToEndCorrectness.parse_deterministic&#45;&gt;L4YAML.TokenParser.parseYaml</title>
<path fill="none" stroke="#4a90d9" stroke-width="2" d="M282.93,-106.58C323.02,-114.13 368.3,-122.66 404.38,-129.46"/>
<polygon fill="#4a90d9" stroke="#4a90d9" stroke-width="2" points="404.14,-131.9 411.47,-130.79 405.04,-127.09 404.14,-131.9"/>
<text text-anchor="middle" x="380.99" y="-128.6" font-family="Times-Roman" font-size="8.00" fill="#4a90d9">about</text>
</g>
<!-- L4YAML.Proofs.EndToEndCorrectness.parse_deterministic&#45;&gt;L4YAML.ScanError -->
<g id="edge3" class="edge">
<title>L4YAML.Proofs.EndToEndCorrectness.parse_deterministic&#45;&gt;L4YAML.ScanError</title>
<path fill="none" stroke="#4a90d9" stroke-width="2" d="M350.63,-88C381.71,-88 411.3,-88 433.37,-88"/>
<polygon fill="#4a90d9" stroke="#4a90d9" stroke-width="2" points="433.55,-90.45 440.55,-88 433.55,-85.55 433.55,-90.45"/>
<text text-anchor="middle" x="380.99" y="-90.6" font-family="Times-Roman" font-size="8.00" fill="#4a90d9">about</text>
</g>
<!-- L4YAML.Proofs.EndToEndCorrectness.parse_deterministic&#45;&gt;L4YAML.YamlDocument -->
<g id="edge2" class="edge">
<title>L4YAML.Proofs.EndToEndCorrectness.parse_deterministic&#45;&gt;L4YAML.YamlDocument</title>
<path fill="none" stroke="#4a90d9" stroke-width="2" d="M282.93,-69.42C330.51,-60.46 385.39,-50.12 423.54,-42.94"/>
<polygon fill="#4a90d9" stroke="#4a90d9" stroke-width="2" points="424.03,-45.34 430.46,-41.63 423.13,-40.52 424.03,-45.34"/>
<text text-anchor="middle" x="380.99" y="-55.6" font-family="Times-Roman" font-size="8.00" fill="#4a90d9">about</text>
</g>
</g>
</svg>
