<?xml version="1.0" encoding="UTF-8" standalone="no"?>
<!DOCTYPE svg PUBLIC "-//W3C//DTD SVG 1.1//EN"
 "http://www.w3.org/Graphics/SVG/1.1/DTD/svg11.dtd">
<!-- Generated by graphviz version 2.44.0 (0)
 -->
<!-- Title: Soundness.nodeToValue_deterministic Pages: 1 -->
<svg width="895pt" height="362pt"
 viewBox="0.00 0.00 894.55 362.00" xmlns="http://www.w3.org/2000/svg" xmlns:xlink="http://www.w3.org/1999/xlink">
<g id="graph0" class="graph" transform="scale(1 1) rotate(0) translate(4 358)">
<title>Soundness.nodeToValue_deterministic</title>
<polygon fill="white" stroke="transparent" points="-4,4 -4,-358 890.55,-358 890.55,4 -4,4"/>
<text text-anchor="middle" x="443.28" y="-339.6" font-family="Helvetica Bold" font-size="13.00">Soundness.nodeToValue_deterministic</text>
<text text-anchor="middle" x="443.28" y="-325.6" font-family="Helvetica Bold" font-size="13.00">5.4 nodeToValue is deterministic</text>
<text text-anchor="middle" x="443.28" y="-311.6" font-family="Helvetica Bold" font-size="13.00">(L4YAML.Proofs.Soundness)</text>
<g id="clust1" class="cluster">
<title>cluster_functions</title>
<polygon fill="none" stroke="#4a90d9" stroke-dasharray="5,2" points="472.63,-114 472.63,-296 878.55,-296 878.55,-114 472.63,-114"/>
<text text-anchor="middle" x="675.59" y="-281.6" font-family="Helvetica Bold" font-size="13.00" fill="#4a90d9">Functions</text>
</g>
<g id="clust2" class="cluster">
<title>cluster_key</title>
<polygon fill="none" stroke="#d4a017" stroke-dasharray="5,2" points="375.71,-8 375.71,-90 699.55,-90 699.55,-8 375.71,-8"/>
<text text-anchor="middle" x="537.63" y="-75.6" font-family="Helvetica Bold" font-size="13.00" fill="#d4a017">Key Theorem</text>
</g>
<g id="clust3" class="cluster">
<title>cluster_proofs</title>
<polygon fill="none" stroke="#28a745" stroke-dasharray="5,2" points="8,-131 8,-211 333.71,-211 333.71,-131 8,-131"/>
<text text-anchor="middle" x="170.86" y="-196.6" font-family="Helvetica Bold" font-size="13.00" fill="#28a745">Proof Dependencies</text>
</g>
<!-- L4YAML.YamlValue -->
<g id="node1" class="node">
<title>L4YAML.YamlValue</title>
<g id="a_node1"><a xlink:href="../../../api/L4YAML/Spec/Types.html#L4YAML.YamlValue" xlink:title="YamlValue\n(inductive)" target="_blank">
<polygon fill="#dce9f7" stroke="#4a90d9" points="842.55,-266 780.55,-266 780.55,-230 842.55,-230 842.55,-266"/>
<text text-anchor="middle" x="811.55" y="-251" font-family="Helvetica" font-size="10.00">YamlValue</text>
<text text-anchor="middle" x="811.55" y="-240" font-family="Helvetica" font-size="10.00">(inductive)</text>
</a>
</g>
</g>
<!-- L4YAML.Grammar.ValidNode -->
<g id="node2" class="node">
<title>L4YAML.Grammar.ValidNode</title>
<g id="a_node2"><a xlink:href="../../../api/L4YAML/Spec/Grammar.html#L4YAML.Grammar.ValidNode" xlink:title="Grammar.ValidNode\n(inductive)" target="_blank">
<polygon fill="#dce9f7" stroke="#4a90d9" points="863.55,-212 759.55,-212 759.55,-176 863.55,-176 863.55,-212"/>
<text text-anchor="middle" x="811.55" y="-197" font-family="Helvetica" font-size="10.00">Grammar.ValidNode</text>
<text text-anchor="middle" x="811.55" y="-186" font-family="Helvetica" font-size="10.00">(inductive)</text>
</a>
</g>
</g>
<!-- L4YAML.Grammar.NodeToValue -->
<g id="node3" class="node">
<title>L4YAML.Grammar.NodeToValue</title>
<g id="a_node3"><a xlink:href="../../../api/L4YAML/Spec/Grammar.html#L4YAML.Grammar.NodeToValue" xlink:title="Grammar.NodeToValue\n(inductive)" target="_blank">
<polygon fill="#dce9f7" stroke="#4a90d9" points="870.55,-158 752.55,-158 752.55,-122 870.55,-122 870.55,-158"/>
<text text-anchor="middle" x="811.55" y="-143" font-family="Helvetica" font-size="10.00">Grammar.NodeToValue</text>
<text text-anchor="middle" x="811.55" y="-132" font-family="Helvetica" font-size="10.00">(inductive)</text>
</a>
</g>
</g>
<!-- L4YAML.Grammar.toYamlValue -->
<g id="node4" class="node">
<title>L4YAML.Grammar.toYamlValue</title>
<g id="a_node4"><a xlink:href="../../../api/L4YAML/Spec/Grammar.html#L4YAML.Grammar.toYamlValue" xlink:title="Grammar.toYamlValue\n(def)" target="_blank">
<polygon fill="#dce9f7" stroke="#4a90d9" points="594.63,-266 480.63,-266 480.63,-230 594.63,-230 594.63,-266"/>
<text text-anchor="middle" x="537.63" y="-251" font-family="Helvetica" font-size="10.00">Grammar.toYamlValue</text>
<text text-anchor="middle" x="537.63" y="-240" font-family="Helvetica" font-size="10.00">(def)</text>
</a>
</g>
</g>
<!-- L4YAML.Proofs.Soundness.nodeToValue_deterministic -->
<g id="node5" class="node">
<title>L4YAML.Proofs.Soundness.nodeToValue_deterministic</title>
<g id="a_node5"><a xlink:href="../../../api/L4YAML/Proofs/Soundness.html#L4YAML.Proofs.Soundness.nodeToValue_deterministic" xlink:title="Soundness.nodeToValue_deterministic" target="_blank">
<polygon fill="#fff3cd" stroke="#d4a017" points="687.47,-30.54 687.47,-45.46 599.7,-56 475.57,-56 387.79,-45.46 387.79,-30.54 475.57,-20 599.7,-20 687.47,-30.54"/>
<polygon fill="none" stroke="#d4a017" points="691.47,-27 691.47,-49 599.94,-60 475.33,-60 383.79,-49 383.79,-27 475.33,-16 599.94,-16 691.47,-27"/>
<text text-anchor="middle" x="537.63" y="-34.9" font-family="Helvetica" font-size="12.00">Soundness.nodeToValue_deterministic</text>
</a>
</g>
</g>
<!-- L4YAML.Proofs.Soundness.nodeToValue_deterministic&#45;&gt;L4YAML.YamlValue -->
<g id="edge3" class="edge">
<title>L4YAML.Proofs.Soundness.nodeToValue_deterministic&#45;&gt;L4YAML.YamlValue</title>
<path fill="none" stroke="#4a90d9" stroke-width="2" d="M611.89,-58.6C641.88,-69.91 675.19,-86.54 699.55,-110 705.88,-116.1 730.8,-173.04 734.55,-181 742.86,-198.63 738.85,-207.13 752.55,-221 758.53,-227.05 766.11,-231.9 773.82,-235.72"/>
<polygon fill="#4a90d9" stroke="#4a90d9" stroke-width="2" points="772.9,-237.99 780.28,-238.69 774.94,-233.54 772.9,-237.99"/>
<text text-anchor="middle" x="722.05" y="-183.6" font-family="Times-Roman" font-size="8.00" fill="#4a90d9">about</text>
</g>
<!-- L4YAML.Proofs.Soundness.nodeToValue_deterministic&#45;&gt;L4YAML.Grammar.ValidNode -->
<g id="edge1" class="edge">
<title>L4YAML.Proofs.Soundness.nodeToValue_deterministic&#45;&gt;L4YAML.Grammar.ValidNode</title>
<path fill="none" stroke="#4a90d9" stroke-width="2" d="M626.25,-56.88C663.8,-68.87 705.59,-87.99 734.55,-118 750.66,-134.69 736.85,-149.92 752.55,-167 754,-168.57 755.55,-170.06 757.19,-171.47"/>
<polygon fill="#4a90d9" stroke="#4a90d9" stroke-width="2" points="756.01,-173.65 763.06,-175.95 758.98,-169.75 756.01,-173.65"/>
<text text-anchor="middle" x="722.05" y="-120.6" font-family="Times-Roman" font-size="8.00" fill="#4a90d9">about</text>
</g>
<!-- L4YAML.Proofs.Soundness.nodeToValue_deterministic&#45;&gt;L4YAML.Grammar.NodeToValue -->
<g id="edge2" class="edge">
<title>L4YAML.Proofs.Soundness.nodeToValue_deterministic&#45;&gt;L4YAML.Grammar.NodeToValue</title>
<path fill="none" stroke="#4a90d9" stroke-width="2" d="M691.52,-40.76C706.5,-44.34 721.11,-49.28 734.55,-56 761.17,-69.31 782.88,-96.24 796.18,-116.03"/>
<polygon fill="#4a90d9" stroke="#4a90d9" stroke-width="2" points="794.15,-117.41 800.03,-121.93 798.25,-114.73 794.15,-117.41"/>
<text text-anchor="middle" x="722.05" y="-58.6" font-family="Times-Roman" font-size="8.00" fill="#4a90d9">about</text>
</g>
<!-- L4YAML.Proofs.Soundness.nodeToValue_implies_toYamlValue -->
<g id="node6" class="node">
<title>L4YAML.Proofs.Soundness.nodeToValue_implies_toYamlValue</title>
<g id="a_node6"><a xlink:href="../../../api/L4YAML/Proofs/Soundness.html#L4YAML.Proofs.Soundness.nodeToValue_implies_toYamlValue" xlink:title="Soundness.nodeToValue_implies_toYamlValue\n(Soundness)" target="_blank">
<ellipse fill="#d4edda" stroke="#28a745" cx="170.86" cy="-160" rx="154.71" ry="21.43"/>
<text text-anchor="middle" x="170.86" y="-163" font-family="Helvetica" font-size="10.00">Soundness.nodeToValue_implies_toYamlValue</text>
<text text-anchor="middle" x="170.86" y="-152" font-family="Helvetica" font-size="10.00">(Soundness)</text>
</a>
</g>
</g>
<!-- L4YAML.Proofs.Soundness.nodeToValue_implies_toYamlValue&#45;&gt;L4YAML.YamlValue -->
<g id="edge8" class="edge">
<title>L4YAML.Proofs.Soundness.nodeToValue_implies_toYamlValue&#45;&gt;L4YAML.YamlValue</title>
<path fill="none" stroke="#6f42c1" stroke-width="2" stroke-dasharray="5,2" d="M292.02,-173.21C319.52,-176.17 348.62,-179.24 375.71,-182 519.56,-196.65 557.86,-184.21 699.55,-213 725.51,-218.27 753.99,-227.32 775.6,-234.9"/>
<polygon fill="#6f42c1" stroke="#6f42c1" stroke-width="2" points="775.08,-236.57 780.38,-236.59 776.25,-233.27 775.08,-236.57"/>
<text text-anchor="middle" x="537.63" y="-215.4" font-family="Times-Roman" font-size="7.00" fill="#6f42c1">about</text>
</g>
<!-- L4YAML.Proofs.Soundness.nodeToValue_implies_toYamlValue&#45;&gt;L4YAML.Grammar.ValidNode -->
<g id="edge5" class="edge">
<title>L4YAML.Proofs.Soundness.nodeToValue_implies_toYamlValue&#45;&gt;L4YAML.Grammar.ValidNode</title>
<path fill="none" stroke="#6f42c1" stroke-width="2" stroke-dasharray="5,2" d="M325.23,-157.94C430.75,-158.03 573.97,-161.1 699.55,-174 717.38,-175.83 736.65,-178.91 754.05,-182.11"/>
<polygon fill="#6f42c1" stroke="#6f42c1" stroke-width="2" points="754.15,-183.91 759.39,-183.11 754.79,-180.47 754.15,-183.91"/>
<text text-anchor="middle" x="537.63" y="-176.4" font-family="Times-Roman" font-size="7.00" fill="#6f42c1">about</text>
</g>
<!-- L4YAML.Proofs.Soundness.nodeToValue_implies_toYamlValue&#45;&gt;L4YAML.Grammar.NodeToValue -->
<g id="edge7" class="edge">
<title>L4YAML.Proofs.Soundness.nodeToValue_implies_toYamlValue&#45;&gt;L4YAML.Grammar.NodeToValue</title>
<path fill="none" stroke="#6f42c1" stroke-width="2" stroke-dasharray="5,2" d="M265.93,-143.22C300.35,-137.86 339.68,-132.64 375.71,-130 534.77,-118.36 575.41,-119.58 734.55,-130 738.75,-130.28 743.07,-130.63 747.42,-131.05"/>
<polygon fill="#6f42c1" stroke="#6f42c1" stroke-width="2" points="747.38,-132.81 752.54,-131.57 747.74,-129.33 747.38,-132.81"/>
<text text-anchor="middle" x="537.63" y="-132.4" font-family="Times-Roman" font-size="7.00" fill="#6f42c1">about</text>
</g>
<!-- L4YAML.Proofs.Soundness.nodeToValue_implies_toYamlValue&#45;&gt;L4YAML.Grammar.toYamlValue -->
<g id="edge6" class="edge">
<title>L4YAML.Proofs.Soundness.nodeToValue_implies_toYamlValue&#45;&gt;L4YAML.Grammar.toYamlValue</title>
<path fill="none" stroke="#6f42c1" stroke-width="2" stroke-dasharray="5,2" d="M223.44,-179.99C257.22,-192.44 302.57,-207.94 343.71,-218 387.2,-228.64 437.16,-236.28 475.34,-241.19"/>
<polygon fill="#6f42c1" stroke="#6f42c1" stroke-width="2" points="475.23,-242.94 480.41,-241.84 475.67,-239.47 475.23,-242.94"/>
<text text-anchor="middle" x="354.71" y="-224.4" font-family="Times-Roman" font-size="7.00" fill="#6f42c1">about</text>
</g>
<!-- L4YAML.Proofs.Soundness.nodeToValue_implies_toYamlValue&#45;&gt;L4YAML.Proofs.Soundness.nodeToValue_deterministic -->
<g id="edge4" class="edge">
<title>L4YAML.Proofs.Soundness.nodeToValue_implies_toYamlValue&#45;&gt;L4YAML.Proofs.Soundness.nodeToValue_deterministic</title>
<path fill="none" stroke="#28a745" d="M229.9,-140.33C263.2,-129.06 305.79,-114.69 343.71,-102 383.72,-88.61 428.44,-73.77 464.74,-61.75"/>
<polygon fill="#28a745" stroke="#28a745" points="465.54,-64.07 471.42,-59.54 464,-59.42 465.54,-64.07"/>
</g>
</g>
</svg>
