<?xml version="1.0" encoding="UTF-8" standalone="no"?>
<!DOCTYPE svg PUBLIC "-//W3C//DTD SVG 1.1//EN"
 "http://www.w3.org/Graphics/SVG/1.1/DTD/svg11.dtd">
<!-- Generated by graphviz version 2.44.0 (0)
 -->
<!-- Title: chain_Soundness.validYaml_construct Pages: 1 -->
<svg width="417pt" height="98pt"
 viewBox="0.00 0.00 417.00 97.92" xmlns="http://www.w3.org/2000/svg" xmlns:xlink="http://www.w3.org/1999/xlink">
<g id="graph0" class="graph" transform="scale(1 1) rotate(0) translate(4 93.92)">
<title>chain_Soundness.validYaml_construct</title>
<polygon fill="white" stroke="transparent" points="-4,4 -4,-93.92 413,-93.92 413,4 -4,4"/>
<text text-anchor="middle" x="204.5" y="-75.52" font-family="Helvetica Bold" font-size="13.00">Functorial Chains: Soundness.validYaml_construct</text>
<text text-anchor="middle" x="204.5" y="-61.52" font-family="Helvetica Bold" font-size="13.00">5.1 Constructing ValidYaml from a parse result is well&#45;defined</text>
<!-- L4YAML.Proofs.Soundness.validYaml_construct -->
<g id="node1" class="node">
<title>L4YAML.Proofs.Soundness.validYaml_construct</title>
<polygon fill="#fff3cd" stroke="black" points="323.26,-17.46 323.26,-36.46 253.69,-49.89 155.31,-49.89 85.74,-36.46 85.74,-17.46 155.31,-4.03 253.69,-4.03 323.26,-17.46"/>
<polygon fill="none" stroke="black" points="327.26,-14.17 327.26,-39.75 254.08,-53.88 154.92,-53.88 81.74,-39.75 81.74,-14.17 154.92,-0.04 254.08,-0.04 327.26,-14.17"/>
<text text-anchor="middle" x="204.5" y="-29.96" font-family="Helvetica" font-size="10.00">Soundness.validYaml_construct</text>
<text text-anchor="middle" x="204.5" y="-18.96" font-family="Helvetica" font-size="10.00">(no functorial chains found)</text>
</g>
</g>
</svg>
