<?xml version="1.0" encoding="UTF-8" standalone="no"?>
<!DOCTYPE svg PUBLIC "-//W3C//DTD SVG 1.1//EN"
 "http://www.w3.org/Graphics/SVG/1.1/DTD/svg11.dtd">
<!-- Generated by graphviz version 2.44.0 (0)
 -->
<!-- Title: ParserAnchorProofs.parseDocument_aliases_resolve Pages: 1 -->
<svg width="1321pt" height="684pt"
 viewBox="0.00 0.00 1320.98 684.00" xmlns="http://www.w3.org/2000/svg" xmlns:xlink="http://www.w3.org/1999/xlink">
<g id="graph0" class="graph" transform="scale(1 1) rotate(0) translate(4 680)">
<title>ParserAnchorProofs.parseDocument_aliases_resolve</title>
<polygon fill="white" stroke="transparent" points="-4,4 -4,-680 1316.98,-680 1316.98,4 -4,4"/>
<text text-anchor="middle" x="656.49" y="-661.6" font-family="Helvetica Bold" font-size="13.00">ParserAnchorProofs.parseDocument_aliases_resolve</text>
<text text-anchor="middle" x="656.49" y="-647.6" font-family="Helvetica Bold" font-size="13.00">3.6 All aliases in a parsed document resolve</text>
<text text-anchor="middle" x="656.49" y="-633.6" font-family="Helvetica Bold" font-size="13.00">(L4YAML.Proofs.Parser.ParserAnchorProofs)</text>
<g id="clust1" class="cluster">
<title>cluster_functions</title>
<polygon fill="none" stroke="#4a90d9" stroke-dasharray="5,2" points="753.76,-135 753.76,-533 1304.98,-533 1304.98,-135 753.76,-135"/>
<text text-anchor="middle" x="1029.37" y="-518.6" font-family="Helvetica Bold" font-size="13.00" fill="#4a90d9">Functions</text>
</g>
<g id="clust2" class="cluster">
<title>cluster_key</title>
<polygon fill="none" stroke="#d4a017" stroke-dasharray="5,2" points="640.54,-45 640.54,-127 1066.98,-127 1066.98,-45 640.54,-45"/>
<text text-anchor="middle" x="853.76" y="-112.6" font-family="Helvetica Bold" font-size="13.00" fill="#d4a017">Key Theorem</text>
</g>
<g id="clust3" class="cluster">
<title>cluster_proofs</title>
<polygon fill="none" stroke="#28a745" stroke-dasharray="5,2" points="134.05,-456 134.05,-536 472.49,-536 472.49,-456 134.05,-456"/>
<text text-anchor="middle" x="303.27" y="-521.6" font-family="Helvetica Bold" font-size="13.00" fill="#28a745">Proof Dependencies</text>
</g>
<g id="clust4" class="cluster">
<title>cluster_stdlib</title>
<polygon fill="none" stroke="#e67e22" stroke-dasharray="5,2" points="8,-8 8,-244 598.54,-244 598.54,-8 8,-8"/>
<text text-anchor="middle" x="303.27" y="-229.6" font-family="Helvetica Bold" font-size="13.00" fill="#e67e22">Stdlib Lemmas</text>
</g>
<!-- L4YAML.YamlDocument.anchors -->
<g id="node1" class="node">
<title>L4YAML.YamlDocument.anchors</title>
<g id="a_node1"><a xlink:href="../../../api/L4YAML/Spec/Types.html#L4YAML.YamlDocument.anchors" xlink:title="YamlDocument.anchors\n(def)" target="_blank">
<polygon fill="#dce9f7" stroke="#4a90d9" points="1268.98,-287 1147.98,-287 1147.98,-251 1268.98,-251 1268.98,-287"/>
<text text-anchor="middle" x="1208.48" y="-272" font-family="Helvetica" font-size="10.00">YamlDocument.anchors</text>
<text text-anchor="middle" x="1208.48" y="-261" font-family="Helvetica" font-size="10.00">(def)</text>
</a>
</g>
</g>
<!-- L4YAML.YamlToken.documentEnd -->
<g id="node2" class="node">
<title>L4YAML.YamlToken.documentEnd</title>
<g id="a_node2"><a xlink:href="../../../api/L4YAML/Token/Token.html#L4YAML.YamlToken.documentEnd" xlink:title="YamlToken.documentEnd\n(ctor)" target="_blank">
<polygon fill="#dce9f7" stroke="#4a90d9" points="917.26,-341 790.26,-341 790.26,-305 917.26,-305 917.26,-341"/>
<text text-anchor="middle" x="853.76" y="-326" font-family="Helvetica" font-size="10.00">YamlToken.documentEnd</text>
<text text-anchor="middle" x="853.76" y="-315" font-family="Helvetica" font-size="10.00">(ctor)</text>
</a>
</g>
</g>
<!-- L4YAML.TokenParser.ParseState -->
<g id="node3" class="node">
<title>L4YAML.TokenParser.ParseState</title>
<g id="a_node3"><a xlink:href="../../../api/L4YAML/Parser/State.html#L4YAML.TokenParser.ParseState" xlink:title="TokenParser.ParseState\n(inductive)" target="_blank">
<polygon fill="#dce9f7" stroke="#4a90d9" points="1270.48,-449 1146.48,-449 1146.48,-413 1270.48,-413 1270.48,-449"/>
<text text-anchor="middle" x="1208.48" y="-434" font-family="Helvetica" font-size="10.00">TokenParser.ParseState</text>
<text text-anchor="middle" x="1208.48" y="-423" font-family="Helvetica" font-size="10.00">(inductive)</text>
</a>
</g>
</g>
<!-- L4YAML.TokenParser.parseNode -->
<g id="node4" class="node">
<title>L4YAML.TokenParser.parseNode</title>
<g id="a_node4"><a xlink:href="../../../api/L4YAML/Parser/TokenParser.html#L4YAML.TokenParser.parseNode" xlink:title="TokenParser.parseNode\n(def)" target="_blank">
<polygon fill="#dce9f7" stroke="#4a90d9" points="914.76,-503 792.76,-503 792.76,-467 914.76,-467 914.76,-503"/>
<text text-anchor="middle" x="853.76" y="-488" font-family="Helvetica" font-size="10.00">TokenParser.parseNode</text>
<text text-anchor="middle" x="853.76" y="-477" font-family="Helvetica" font-size="10.00">(def)</text>
</a>
</g>
</g>
<!-- L4YAML.TokenParser.parseDocument -->
<g id="node5" class="node">
<title>L4YAML.TokenParser.parseDocument</title>
<g id="a_node5"><a xlink:href="../../../api/L4YAML/Parser/TokenParser.html#L4YAML.TokenParser.parseDocument" xlink:title="TokenParser.parseDocument\n(def)" target="_blank">
<polygon fill="#dce9f7" stroke="#4a90d9" points="1280.48,-233 1136.48,-233 1136.48,-197 1280.48,-197 1280.48,-233"/>
<text text-anchor="middle" x="1208.48" y="-218" font-family="Helvetica" font-size="10.00">TokenParser.parseDocument</text>
<text text-anchor="middle" x="1208.48" y="-207" font-family="Helvetica" font-size="10.00">(def)</text>
</a>
</g>
</g>
<!-- L4YAML.TokenParser.ParseState.anchors -->
<g id="node6" class="node">
<title>L4YAML.TokenParser.ParseState.anchors</title>
<g id="a_node6"><a xlink:href="../../../api/L4YAML/Parser/State.html#L4YAML.TokenParser.ParseState.anchors" xlink:title="TokenParser.ParseState.anchors\n(def)" target="_blank">
<polygon fill="#dce9f7" stroke="#4a90d9" points="934.76,-449 772.76,-449 772.76,-413 934.76,-413 934.76,-449"/>
<text text-anchor="middle" x="853.76" y="-434" font-family="Helvetica" font-size="10.00">TokenParser.ParseState.anchors</text>
<text text-anchor="middle" x="853.76" y="-423" font-family="Helvetica" font-size="10.00">(def)</text>
</a>
</g>
</g>
<!-- L4YAML.YamlToken.streamEnd -->
<g id="node7" class="node">
<title>L4YAML.YamlToken.streamEnd</title>
<g id="a_node7"><a xlink:href="../../../api/L4YAML/Token/Token.html#L4YAML.YamlToken.streamEnd" xlink:title="YamlToken.streamEnd\n(ctor)" target="_blank">
<polygon fill="#dce9f7" stroke="#4a90d9" points="910.76,-287 796.76,-287 796.76,-251 910.76,-251 910.76,-287"/>
<text text-anchor="middle" x="853.76" y="-272" font-family="Helvetica" font-size="10.00">YamlToken.streamEnd</text>
<text text-anchor="middle" x="853.76" y="-261" font-family="Helvetica" font-size="10.00">(ctor)</text>
</a>
</g>
</g>
<!-- L4YAML.TokenParser.parseDocument.match_1 -->
<g id="node8" class="node">
<title>L4YAML.TokenParser.parseDocument.match_1</title>
<g id="a_node8"><a xlink:href="../../../api/L4YAML/Parser/TokenParser.html#L4YAML.TokenParser.parseDocument.match_1" xlink:title="TokenParser.parseDocument.match_1\n(def)" target="_blank">
<polygon fill="#dce9f7" stroke="#4a90d9" points="945.76,-233 761.76,-233 761.76,-197 945.76,-197 945.76,-233"/>
<text text-anchor="middle" x="853.76" y="-218" font-family="Helvetica" font-size="10.00">TokenParser.parseDocument.match_1</text>
<text text-anchor="middle" x="853.76" y="-207" font-family="Helvetica" font-size="10.00">(def)</text>
</a>
</g>
</g>
<!-- L4YAML.YamlToken -->
<g id="node9" class="node">
<title>L4YAML.YamlToken</title>
<g id="a_node9"><a xlink:href="../../../api/L4YAML/Token/Token.html#L4YAML.YamlToken" xlink:title="YamlToken\n(inductive)" target="_blank">
<polygon fill="#dce9f7" stroke="#4a90d9" points="885.76,-179 821.76,-179 821.76,-143 885.76,-143 885.76,-179"/>
<text text-anchor="middle" x="853.76" y="-164" font-family="Helvetica" font-size="10.00">YamlToken</text>
<text text-anchor="middle" x="853.76" y="-153" font-family="Helvetica" font-size="10.00">(inductive)</text>
</a>
</g>
</g>
<!-- L4YAML.YamlValue -->
<g id="node10" class="node">
<title>L4YAML.YamlValue</title>
<g id="a_node10"><a xlink:href="../../../api/L4YAML/Spec/Types.html#L4YAML.YamlValue" xlink:title="YamlValue\n(inductive)" target="_blank">
<polygon fill="#dce9f7" stroke="#4a90d9" points="884.76,-395 822.76,-395 822.76,-359 884.76,-359 884.76,-395"/>
<text text-anchor="middle" x="853.76" y="-380" font-family="Helvetica" font-size="10.00">YamlValue</text>
<text text-anchor="middle" x="853.76" y="-369" font-family="Helvetica" font-size="10.00">(inductive)</text>
</a>
</g>
</g>
<!-- L4YAML.ScanError -->
<g id="node11" class="node">
<title>L4YAML.ScanError</title>
<g id="a_node11"><a xlink:href="../../../api/L4YAML/Token/Token.html#L4YAML.ScanError" xlink:title="ScanError\n(inductive)" target="_blank">
<polygon fill="#dce9f7" stroke="#4a90d9" points="1239.48,-395 1177.48,-395 1177.48,-359 1239.48,-359 1239.48,-395"/>
<text text-anchor="middle" x="1208.48" y="-380" font-family="Helvetica" font-size="10.00">ScanError</text>
<text text-anchor="middle" x="1208.48" y="-369" font-family="Helvetica" font-size="10.00">(inductive)</text>
</a>
</g>
</g>
<!-- L4YAML.YamlDocument.value -->
<g id="node12" class="node">
<title>L4YAML.YamlDocument.value</title>
<g id="a_node12"><a xlink:href="../../../api/L4YAML/Spec/Types.html#L4YAML.YamlDocument.value" xlink:title="YamlDocument.value\n(def)" target="_blank">
<polygon fill="#dce9f7" stroke="#4a90d9" points="1262.48,-179 1154.48,-179 1154.48,-143 1262.48,-143 1262.48,-179"/>
<text text-anchor="middle" x="1208.48" y="-164" font-family="Helvetica" font-size="10.00">YamlDocument.value</text>
<text text-anchor="middle" x="1208.48" y="-153" font-family="Helvetica" font-size="10.00">(def)</text>
</a>
</g>
</g>
<!-- L4YAML.Proofs.ParserGrammable.AllAliasesResolve -->
<g id="node13" class="node">
<title>L4YAML.Proofs.ParserGrammable.AllAliasesResolve</title>
<g id="a_node13"><a xlink:href="../../../api/L4YAML/Proofs/Parser/ParserGrammableBase.html#L4YAML.Proofs.ParserGrammable.AllAliasesResolve" xlink:title="ParserGrammable.AllAliasesResolve\n(inductive)" target="_blank">
<polygon fill="#dce9f7" stroke="#4a90d9" points="1296.98,-503 1119.98,-503 1119.98,-467 1296.98,-467 1296.98,-503"/>
<text text-anchor="middle" x="1208.48" y="-488" font-family="Helvetica" font-size="10.00">ParserGrammable.AllAliasesResolve</text>
<text text-anchor="middle" x="1208.48" y="-477" font-family="Helvetica" font-size="10.00">(inductive)</text>
</a>
</g>
</g>
<!-- L4YAML.YamlDocument -->
<g id="node14" class="node">
<title>L4YAML.YamlDocument</title>
<g id="a_node14"><a xlink:href="../../../api/L4YAML/Spec/Types.html#L4YAML.YamlDocument" xlink:title="YamlDocument\n(inductive)" target="_blank">
<polygon fill="#dce9f7" stroke="#4a90d9" points="1249.98,-341 1166.98,-341 1166.98,-305 1249.98,-305 1249.98,-341"/>
<text text-anchor="middle" x="1208.48" y="-326" font-family="Helvetica" font-size="10.00">YamlDocument</text>
<text text-anchor="middle" x="1208.48" y="-315" font-family="Helvetica" font-size="10.00">(inductive)</text>
</a>
</g>
</g>
<!-- L4YAML.Proofs.ParserAnchorProofs.parseDocument_aliases_resolve -->
<g id="node15" class="node">
<title>L4YAML.Proofs.ParserAnchorProofs.parseDocument_aliases_resolve</title>
<g id="a_node15"><a xlink:href="../../../api/L4YAML/Proofs/Parser/ParserAnchorProofs.html#L4YAML.Proofs.ParserAnchorProofs.parseDocument_aliases_resolve" xlink:title="ParserAnchorProofs.parseDocument_aliases_resolve" target="_blank">
<polygon fill="#fff3cd" stroke="#d4a017" points="1055.2,-67.54 1055.2,-82.46 937.2,-93 770.32,-93 652.31,-82.46 652.31,-67.54 770.32,-57 937.2,-57 1055.2,-67.54"/>
<polygon fill="none" stroke="#d4a017" points="1059.21,-63.89 1059.21,-86.11 937.38,-97 770.14,-97 648.31,-86.11 648.31,-63.89 770.14,-53 937.38,-53 1059.21,-63.89"/>
<text text-anchor="middle" x="853.76" y="-71.9" font-family="Helvetica" font-size="12.00">ParserAnchorProofs.parseDocument_aliases_resolve</text>
</a>
</g>
</g>
<!-- L4YAML.Proofs.ParserAnchorProofs.parseDocument_aliases_resolve&#45;&gt;L4YAML.YamlDocument.anchors -->
<g id="edge2" class="edge">
<title>L4YAML.Proofs.ParserAnchorProofs.parseDocument_aliases_resolve&#45;&gt;L4YAML.YamlDocument.anchors</title>
<path fill="none" stroke="#4a90d9" stroke-width="2" d="M1003.5,-91.1C1027.41,-99.73 1049.87,-112.44 1066.98,-131 1084.12,-149.59 1066.67,-163.92 1076.98,-187 1089.64,-215.33 1094.43,-224.4 1119.98,-242 1126.4,-246.42 1133.56,-250.14 1140.96,-253.26"/>
<polygon fill="#4a90d9" stroke="#4a90d9" stroke-width="2" points="1140.38,-255.67 1147.79,-255.96 1142.19,-251.11 1140.38,-255.67"/>
<text text-anchor="middle" x="1089.48" y="-229.6" font-family="Times-Roman" font-size="8.00" fill="#4a90d9">about</text>
</g>
<!-- L4YAML.Proofs.ParserAnchorProofs.parseDocument_aliases_resolve&#45;&gt;L4YAML.TokenParser.ParseState -->
<g id="edge7" class="edge">
<title>L4YAML.Proofs.ParserAnchorProofs.parseDocument_aliases_resolve&#45;&gt;L4YAML.TokenParser.ParseState</title>
<path fill="none" stroke="#4a90d9" stroke-width="2" d="M1009.03,-90.65C1031.39,-99.45 1051.9,-112.32 1066.98,-131 1082.15,-149.78 1068.7,-325.33 1076.98,-348 1087.76,-377.47 1094.22,-386.08 1119.98,-404 1126.08,-408.24 1132.86,-411.83 1139.88,-414.87"/>
<polygon fill="#4a90d9" stroke="#4a90d9" stroke-width="2" points="1138.97,-417.14 1146.38,-417.51 1140.81,-412.6 1138.97,-417.14"/>
<text text-anchor="middle" x="1089.48" y="-391.6" font-family="Times-Roman" font-size="8.00" fill="#4a90d9">about</text>
</g>
<!-- L4YAML.Proofs.ParserAnchorProofs.parseDocument_aliases_resolve&#45;&gt;L4YAML.TokenParser.parseDocument -->
<g id="edge4" class="edge">
<title>L4YAML.Proofs.ParserAnchorProofs.parseDocument_aliases_resolve&#45;&gt;L4YAML.TokenParser.parseDocument</title>
<path fill="none" stroke="#4a90d9" stroke-width="2" d="M982.87,-92.96C1012.34,-101.24 1042.26,-113.33 1066.98,-131 1073.5,-135.66 1071.87,-139.83 1076.98,-146 1094.04,-166.56 1097.02,-174.35 1119.98,-188 1123.57,-190.13 1127.35,-192.11 1131.23,-193.95"/>
<polygon fill="#4a90d9" stroke="#4a90d9" stroke-width="2" points="1130.46,-196.29 1137.85,-196.91 1132.46,-191.82 1130.46,-196.29"/>
<text text-anchor="middle" x="1089.48" y="-176.6" font-family="Times-Roman" font-size="8.00" fill="#4a90d9">about</text>
</g>
<!-- L4YAML.Proofs.ParserAnchorProofs.parseDocument_aliases_resolve&#45;&gt;L4YAML.ScanError -->
<g id="edge3" class="edge">
<title>L4YAML.Proofs.ParserAnchorProofs.parseDocument_aliases_resolve&#45;&gt;L4YAML.ScanError</title>
<path fill="none" stroke="#4a90d9" stroke-width="2" d="M1008.52,-90.74C1031.01,-99.52 1051.7,-112.37 1066.98,-131 1090,-159.06 1064.27,-260.01 1076.98,-294 1087.98,-323.39 1094.22,-332.08 1119.98,-350 1134.83,-360.32 1153.76,-366.8 1170.21,-370.82"/>
<polygon fill="#4a90d9" stroke="#4a90d9" stroke-width="2" points="1169.72,-373.22 1177.09,-372.39 1170.81,-368.44 1169.72,-373.22"/>
<text text-anchor="middle" x="1089.48" y="-337.6" font-family="Times-Roman" font-size="8.00" fill="#4a90d9">about</text>
</g>
<!-- L4YAML.Proofs.ParserAnchorProofs.parseDocument_aliases_resolve&#45;&gt;L4YAML.YamlDocument.value -->
<g id="edge5" class="edge">
<title>L4YAML.Proofs.ParserAnchorProofs.parseDocument_aliases_resolve&#45;&gt;L4YAML.YamlDocument.value</title>
<path fill="none" stroke="#4a90d9" stroke-width="2" d="M943.31,-96.59C1007.01,-112.12 1091.23,-132.66 1147.27,-146.32"/>
<polygon fill="#4a90d9" stroke="#4a90d9" stroke-width="2" points="1146.92,-148.76 1154.31,-148.03 1148.09,-144 1146.92,-148.76"/>
<text text-anchor="middle" x="1089.48" y="-135.6" font-family="Times-Roman" font-size="8.00" fill="#4a90d9">about</text>
</g>
<!-- L4YAML.Proofs.ParserAnchorProofs.parseDocument_aliases_resolve&#45;&gt;L4YAML.Proofs.ParserGrammable.AllAliasesResolve -->
<g id="edge6" class="edge">
<title>L4YAML.Proofs.ParserAnchorProofs.parseDocument_aliases_resolve&#45;&gt;L4YAML.Proofs.ParserGrammable.AllAliasesResolve</title>
<path fill="none" stroke="#4a90d9" stroke-width="2" d="M1009.44,-90.64C1031.68,-99.45 1052.04,-112.33 1066.98,-131 1085.81,-154.53 1066.77,-373.65 1076.98,-402 1087.62,-431.52 1094.22,-440.08 1119.98,-458 1122.85,-459.99 1125.87,-461.84 1129,-463.56"/>
<polygon fill="#4a90d9" stroke="#4a90d9" stroke-width="2" points="1128.19,-465.9 1135.54,-466.9 1130.42,-461.54 1128.19,-465.9"/>
<text text-anchor="middle" x="1089.48" y="-445.6" font-family="Times-Roman" font-size="8.00" fill="#4a90d9">about</text>
</g>
<!-- L4YAML.Proofs.ParserAnchorProofs.parseDocument_aliases_resolve&#45;&gt;L4YAML.YamlDocument -->
<g id="edge1" class="edge">
<title>L4YAML.Proofs.ParserAnchorProofs.parseDocument_aliases_resolve&#45;&gt;L4YAML.YamlDocument</title>
<path fill="none" stroke="#4a90d9" stroke-width="2" d="M1007.24,-90.83C1030.09,-99.57 1051.23,-112.38 1066.98,-131 1082.69,-149.57 1068.12,-217.35 1076.98,-240 1088.42,-269.22 1094.22,-278.08 1119.98,-296 1131.77,-304.19 1146.12,-309.96 1159.76,-314"/>
<polygon fill="#4a90d9" stroke="#4a90d9" stroke-width="2" points="1159.42,-316.45 1166.82,-315.96 1160.73,-311.73 1159.42,-316.45"/>
<text text-anchor="middle" x="1089.48" y="-283.6" font-family="Times-Roman" font-size="8.00" fill="#4a90d9">about</text>
</g>
<!-- L4YAML.Proofs.ParserAnchorProofs.parseNode_aliases_resolve -->
<g id="node16" class="node">
<title>L4YAML.Proofs.ParserAnchorProofs.parseNode_aliases_resolve</title>
<g id="a_node16"><a xlink:href="../../../api/L4YAML/Proofs/Parser/ParserAnchorProofs.html#L4YAML.Proofs.ParserAnchorProofs.parseNode_aliases_resolve" xlink:title="ParserAnchorProofs.parseNode_aliases_resolve\n(Parser.ParserAnchorProofs)" target="_blank">
<ellipse fill="#d4edda" stroke="#28a745" cx="303.27" cy="-485" rx="161.44" ry="21.43"/>
<text text-anchor="middle" x="303.27" y="-488" font-family="Helvetica" font-size="10.00">ParserAnchorProofs.parseNode_aliases_resolve</text>
<text text-anchor="middle" x="303.27" y="-477" font-family="Helvetica" font-size="10.00">(Parser.ParserAnchorProofs)</text>
</a>
</g>
</g>
<!-- L4YAML.Proofs.ParserAnchorProofs.parseNode_aliases_resolve&#45;&gt;L4YAML.TokenParser.ParseState -->
<g id="edge18" class="edge">
<title>L4YAML.Proofs.ParserAnchorProofs.parseNode_aliases_resolve&#45;&gt;L4YAML.TokenParser.ParseState</title>
<path fill="none" stroke="#6f42c1" stroke-width="2" stroke-dasharray="5,2" d="M372.8,-504.15C434.05,-520.34 526.52,-542.53 608.54,-553 662.95,-559.95 1060.21,-604.55 1101.98,-569 1140.05,-536.61 1087.18,-495.7 1119.98,-458 1125.88,-451.22 1133.45,-446.12 1141.65,-442.28"/>
<polygon fill="#6f42c1" stroke="#6f42c1" stroke-width="2" points="1142.37,-443.88 1146.26,-440.28 1140.98,-440.67 1142.37,-443.88"/>
<text text-anchor="middle" x="853.76" y="-584.4" font-family="Times-Roman" font-size="7.00" fill="#6f42c1">about</text>
</g>
<!-- L4YAML.Proofs.ParserAnchorProofs.parseNode_aliases_resolve&#45;&gt;L4YAML.TokenParser.parseNode -->
<g id="edge15" class="edge">
<title>L4YAML.Proofs.ParserAnchorProofs.parseNode_aliases_resolve&#45;&gt;L4YAML.TokenParser.parseNode</title>
<path fill="none" stroke="#6f42c1" stroke-width="2" stroke-dasharray="5,2" d="M464.76,-485C572.41,-485 708.5,-485 787.57,-485"/>
<polygon fill="#6f42c1" stroke="#6f42c1" stroke-width="2" points="787.7,-486.75 792.7,-485 787.7,-483.25 787.7,-486.75"/>
<text text-anchor="middle" x="619.54" y="-487.4" font-family="Times-Roman" font-size="7.00" fill="#6f42c1">about</text>
</g>
<!-- L4YAML.Proofs.ParserAnchorProofs.parseNode_aliases_resolve&#45;&gt;L4YAML.TokenParser.ParseState.anchors -->
<g id="edge14" class="edge">
<title>L4YAML.Proofs.ParserAnchorProofs.parseNode_aliases_resolve&#45;&gt;L4YAML.TokenParser.ParseState.anchors</title>
<path fill="none" stroke="#6f42c1" stroke-width="2" stroke-dasharray="5,2" d="M432.86,-472.34C536.04,-462.18 677.95,-448.21 767.51,-439.39"/>
<polygon fill="#6f42c1" stroke="#6f42c1" stroke-width="2" points="767.73,-441.13 772.54,-438.9 767.39,-437.65 767.73,-441.13"/>
<text text-anchor="middle" x="619.54" y="-456.4" font-family="Times-Roman" font-size="7.00" fill="#6f42c1">about</text>
</g>
<!-- L4YAML.Proofs.ParserAnchorProofs.parseNode_aliases_resolve&#45;&gt;L4YAML.YamlValue -->
<g id="edge16" class="edge">
<title>L4YAML.Proofs.ParserAnchorProofs.parseNode_aliases_resolve&#45;&gt;L4YAML.YamlValue</title>
<path fill="none" stroke="#6f42c1" stroke-width="2" stroke-dasharray="5,2" d="M373.99,-465.83C441.67,-447.79 547.51,-421.07 640.54,-404 702.49,-392.63 775.51,-384.48 817.73,-380.27"/>
<polygon fill="#6f42c1" stroke="#6f42c1" stroke-width="2" points="817.92,-382.01 822.73,-379.77 817.58,-378.52 817.92,-382.01"/>
<text text-anchor="middle" x="619.54" y="-411.4" font-family="Times-Roman" font-size="7.00" fill="#6f42c1">about</text>
</g>
<!-- L4YAML.Proofs.ParserAnchorProofs.parseNode_aliases_resolve&#45;&gt;L4YAML.ScanError -->
<g id="edge13" class="edge">
<title>L4YAML.Proofs.ParserAnchorProofs.parseNode_aliases_resolve&#45;&gt;L4YAML.ScanError</title>
<path fill="none" stroke="#6f42c1" stroke-width="2" stroke-dasharray="5,2" d="M420.68,-499.55C629.72,-524.4 1051.67,-568.38 1101.98,-525 1143.16,-489.5 1084.56,-445.25 1119.98,-404 1132.86,-389.01 1153.86,-382.21 1172.07,-379.18"/>
<polygon fill="#6f42c1" stroke="#6f42c1" stroke-width="2" points="1172.43,-380.9 1177.12,-378.42 1171.91,-377.44 1172.43,-380.9"/>
<text text-anchor="middle" x="853.76" y="-545.4" font-family="Times-Roman" font-size="7.00" fill="#6f42c1">about</text>
</g>
<!-- L4YAML.Proofs.ParserAnchorProofs.parseNode_aliases_resolve&#45;&gt;L4YAML.Proofs.ParserGrammable.AllAliasesResolve -->
<g id="edge17" class="edge">
<title>L4YAML.Proofs.ParserAnchorProofs.parseNode_aliases_resolve&#45;&gt;L4YAML.Proofs.ParserGrammable.AllAliasesResolve</title>
<path fill="none" stroke="#6f42c1" stroke-width="2" stroke-dasharray="5,2" d="M346.85,-505.63C404.57,-532.42 511.59,-578.01 608.54,-597 812.97,-637.04 868.69,-609.44 1076.98,-613 1088.09,-613.19 1091.93,-617.74 1101.98,-613 1147.97,-591.31 1180.71,-538.66 1196.6,-508.06"/>
<polygon fill="#6f42c1" stroke="#6f42c1" stroke-width="2" points="1198.29,-508.6 1199,-503.35 1195.17,-507.01 1198.29,-508.6"/>
<text text-anchor="middle" x="853.76" y="-620.4" font-family="Times-Roman" font-size="7.00" fill="#6f42c1">about</text>
</g>
<!-- L4YAML.Proofs.ParserAnchorProofs.parseNode_aliases_resolve&#45;&gt;L4YAML.Proofs.ParserAnchorProofs.parseDocument_aliases_resolve -->
<g id="edge8" class="edge">
<title>L4YAML.Proofs.ParserAnchorProofs.parseNode_aliases_resolve&#45;&gt;L4YAML.Proofs.ParserAnchorProofs.parseDocument_aliases_resolve</title>
<path fill="none" stroke="#28a745" d="M378.86,-466.19C456.38,-442.32 574.12,-392.99 630.54,-303 650.87,-270.56 616.3,-160.64 640.54,-131 654.3,-114.16 672.48,-102.05 692.41,-93.39"/>
<polygon fill="#28a745" stroke="#28a745" points="693.41,-95.63 698.95,-90.7 691.54,-91.1 693.41,-95.63"/>
</g>
<!-- Prod.mk.inj -->
<g id="node17" class="node">
<title>Prod.mk.inj</title>
<g id="a_node17"><a xlink:href="../../../api/Init/Core.html#Prod.mk.inj" xlink:title="Prod.mk.inj" target="_blank">
<ellipse fill="#fdebd0" stroke="#e67e22" cx="303.27" cy="-88" rx="38.7" ry="18"/>
<text text-anchor="middle" x="303.27" y="-85.5" font-family="Helvetica" font-size="10.00">Prod.mk.inj</text>
</a>
</g>
</g>
<!-- Prod.mk.inj&#45;&gt;L4YAML.Proofs.ParserAnchorProofs.parseDocument_aliases_resolve -->
<g id="edge9" class="edge">
<title>Prod.mk.inj&#45;&gt;L4YAML.Proofs.ParserAnchorProofs.parseDocument_aliases_resolve</title>
<path fill="none" stroke="#e67e22" stroke-width="2" d="M342.4,-87.1C404.03,-85.64 529.88,-82.65 641.18,-80.01"/>
<polygon fill="#e67e22" stroke="#e67e22" stroke-width="2" points="641.54,-82.46 648.48,-79.84 641.43,-77.56 641.54,-82.46"/>
</g>
<!-- _private.L4YAML.Proofs.Parser.ParserAnchorProofs.0.L4YAML.TokenParser.parseDocument.match_1.eq_4 -->
<g id="node18" class="node">
<title>_private.L4YAML.Proofs.Parser.ParserAnchorProofs.0.L4YAML.TokenParser.parseDocument.match_1.eq_4</title>
<g id="a_node18"><a xlink:href="../../../api/L4YAML/Proofs/Parser/ParserAnchorProofs.html#_private.L4YAML.Proofs.Parser.ParserAnchorProofs.0.L4YAML.TokenParser.parseDocument.match_1.eq_4" xlink:title="_private.L4YAML.Proofs.Parser.ParserAnchorProofs.0.L4YAML.TokenParser.parseDocument.match_1.eq_4" target="_blank">
<ellipse fill="#fdebd0" stroke="#e67e22" cx="303.27" cy="-196" rx="287.04" ry="18"/>
<text text-anchor="middle" x="303.27" y="-193.5" font-family="Helvetica" font-size="10.00">_private.L4YAML.Proofs.Parser.ParserAnchorProofs.0.L4YAML.TokenParser.parseDocument.match_1.eq_4</text>
</a>
</g>
</g>
<!-- _private.L4YAML.Proofs.Parser.ParserAnchorProofs.0.L4YAML.TokenParser.parseDocument.match_1.eq_4&#45;&gt;L4YAML.YamlToken.documentEnd -->
<g id="edge21" class="edge">
<title>_private.L4YAML.Proofs.Parser.ParserAnchorProofs.0.L4YAML.TokenParser.parseDocument.match_1.eq_4&#45;&gt;L4YAML.YamlToken.documentEnd</title>
<path fill="none" stroke="#6f42c1" stroke-width="2" stroke-dasharray="5,2" d="M354.59,-213.77C419.77,-236.13 537.28,-274.23 640.54,-296 688.38,-306.09 743.14,-312.94 785.05,-317.22"/>
<polygon fill="#6f42c1" stroke="#6f42c1" stroke-width="2" points="784.95,-318.97 790.1,-317.73 785.3,-315.48 784.95,-318.97"/>
<text text-anchor="middle" x="619.54" y="-293.4" font-family="Times-Roman" font-size="7.00" fill="#6f42c1">about</text>
</g>
<!-- _private.L4YAML.Proofs.Parser.ParserAnchorProofs.0.L4YAML.TokenParser.parseDocument.match_1.eq_4&#45;&gt;L4YAML.YamlToken.streamEnd -->
<g id="edge22" class="edge">
<title>_private.L4YAML.Proofs.Parser.ParserAnchorProofs.0.L4YAML.TokenParser.parseDocument.match_1.eq_4&#45;&gt;L4YAML.YamlToken.streamEnd</title>
<path fill="none" stroke="#6f42c1" stroke-width="2" stroke-dasharray="5,2" d="M422.11,-212.4C486.61,-221.3 567.95,-232.42 640.54,-242 691.31,-248.7 748.96,-256.02 791.35,-261.34"/>
<polygon fill="#6f42c1" stroke="#6f42c1" stroke-width="2" points="791.26,-263.09 796.44,-261.98 791.7,-259.62 791.26,-263.09"/>
<text text-anchor="middle" x="619.54" y="-241.4" font-family="Times-Roman" font-size="7.00" fill="#6f42c1">about</text>
</g>
<!-- _private.L4YAML.Proofs.Parser.ParserAnchorProofs.0.L4YAML.TokenParser.parseDocument.match_1.eq_4&#45;&gt;L4YAML.TokenParser.parseDocument.match_1 -->
<g id="edge20" class="edge">
<title>_private.L4YAML.Proofs.Parser.ParserAnchorProofs.0.L4YAML.TokenParser.parseDocument.match_1.eq_4&#45;&gt;L4YAML.TokenParser.parseDocument.match_1</title>
<path fill="none" stroke="#6f42c1" stroke-width="2" stroke-dasharray="5,2" d="M555.24,-204.69C626.7,-207.17 700.29,-209.72 756.41,-211.66"/>
<polygon fill="#6f42c1" stroke="#6f42c1" stroke-width="2" points="756.38,-213.41 761.44,-211.84 756.5,-209.91 756.38,-213.41"/>
<text text-anchor="middle" x="619.54" y="-209.4" font-family="Times-Roman" font-size="7.00" fill="#6f42c1">about</text>
</g>
<!-- _private.L4YAML.Proofs.Parser.ParserAnchorProofs.0.L4YAML.TokenParser.parseDocument.match_1.eq_4&#45;&gt;L4YAML.YamlToken -->
<g id="edge19" class="edge">
<title>_private.L4YAML.Proofs.Parser.ParserAnchorProofs.0.L4YAML.TokenParser.parseDocument.match_1.eq_4&#45;&gt;L4YAML.YamlToken</title>
<path fill="none" stroke="#6f42c1" stroke-width="2" stroke-dasharray="5,2" d="M505.39,-183.17C620.18,-175.84 753.41,-167.34 816.31,-163.33"/>
<polygon fill="#6f42c1" stroke="#6f42c1" stroke-width="2" points="816.57,-165.06 821.44,-163 816.34,-161.57 816.57,-165.06"/>
<text text-anchor="middle" x="619.54" y="-178.4" font-family="Times-Roman" font-size="7.00" fill="#6f42c1">about</text>
</g>
<!-- _private.L4YAML.Proofs.Parser.ParserAnchorProofs.0.L4YAML.TokenParser.parseDocument.match_1.eq_4&#45;&gt;L4YAML.Proofs.ParserAnchorProofs.parseDocument_aliases_resolve -->
<g id="edge10" class="edge">
<title>_private.L4YAML.Proofs.Parser.ParserAnchorProofs.0.L4YAML.TokenParser.parseDocument.match_1.eq_4&#45;&gt;L4YAML.Proofs.ParserAnchorProofs.parseDocument_aliases_resolve</title>
<path fill="none" stroke="#e67e22" stroke-width="2" d="M547.16,-186.41C564.89,-181.88 582.21,-176.16 598.54,-169 621.59,-158.89 618.4,-143 640.54,-131 668.8,-115.68 701.48,-104.37 732.61,-96.1"/>
<polygon fill="#e67e22" stroke="#e67e22" stroke-width="2" points="733.48,-98.41 739.64,-94.28 732.25,-93.67 733.48,-98.41"/>
</g>
<!-- Except.ok.injEq -->
<g id="node19" class="node">
<title>Except.ok.injEq</title>
<g id="a_node19"><a xlink:href="../../../api/Init/Core.html#Except.ok.injEq" xlink:title="Except.ok.injEq" target="_blank">
<ellipse fill="#fdebd0" stroke="#e67e22" cx="303.27" cy="-34" rx="49.4" ry="18"/>
<text text-anchor="middle" x="303.27" y="-31.5" font-family="Helvetica" font-size="10.00">Except.ok.injEq</text>
</a>
</g>
</g>
<!-- Except.ok.injEq&#45;&gt;L4YAML.Proofs.ParserAnchorProofs.parseDocument_aliases_resolve -->
<g id="edge11" class="edge">
<title>Except.ok.injEq&#45;&gt;L4YAML.Proofs.ParserAnchorProofs.parseDocument_aliases_resolve</title>
<path fill="none" stroke="#e67e22" stroke-width="2" d="M351.98,-37.57C421.54,-42.77 554.66,-52.72 666.17,-61.05"/>
<polygon fill="#e67e22" stroke="#e67e22" stroke-width="2" points="666.31,-63.52 673.48,-61.6 666.68,-58.63 666.31,-63.52"/>
</g>
<!-- implies_congr -->
<g id="node20" class="node">
<title>implies_congr</title>
<g id="a_node20"><a xlink:href="../../../api/Init/SimpLemmas.html#implies_congr" xlink:title="implies_congr" target="_blank">
<ellipse fill="#fdebd0" stroke="#e67e22" cx="303.27" cy="-142" rx="45.15" ry="18"/>
<text text-anchor="middle" x="303.27" y="-139.5" font-family="Helvetica" font-size="10.00">implies_congr</text>
</a>
</g>
</g>
<!-- implies_congr&#45;&gt;L4YAML.Proofs.ParserAnchorProofs.parseDocument_aliases_resolve -->
<g id="edge12" class="edge">
<title>implies_congr&#45;&gt;L4YAML.Proofs.ParserAnchorProofs.parseDocument_aliases_resolve</title>
<path fill="none" stroke="#e67e22" stroke-width="2" d="M348.24,-138.86C405.84,-134.53 509.95,-126.02 598.54,-115 642.53,-109.53 690.61,-102.29 733.01,-95.47"/>
<polygon fill="#e67e22" stroke="#e67e22" stroke-width="2" points="733.51,-97.87 740.03,-94.34 732.73,-93.03 733.51,-97.87"/>
</g>
</g>
</svg>
