<?xml version="1.0" encoding="UTF-8" standalone="no"?>
<!DOCTYPE svg PUBLIC "-//W3C//DTD SVG 1.1//EN"
 "http://www.w3.org/Graphics/SVG/1.1/DTD/svg11.dtd">
<!-- Generated by graphviz version 2.44.0 (0)
 -->
<!-- Title: ParserAnchorProofs.parseNode_anchors_grow Pages: 1 -->
<svg width="971pt" height="401pt"
 viewBox="0.00 0.00 970.53 401.00" xmlns="http://www.w3.org/2000/svg" xmlns:xlink="http://www.w3.org/1999/xlink">
<g id="graph0" class="graph" transform="scale(1 1) rotate(0) translate(4 397)">
<title>ParserAnchorProofs.parseNode_anchors_grow</title>
<polygon fill="white" stroke="transparent" points="-4,4 -4,-397 966.53,-397 966.53,4 -4,4"/>
<text text-anchor="middle" x="481.26" y="-378.6" font-family="Helvetica Bold" font-size="13.00">ParserAnchorProofs.parseNode_anchors_grow</text>
<text text-anchor="middle" x="481.26" y="-364.6" font-family="Helvetica Bold" font-size="13.00">3.4 Parsing a node monotonically grows the anchor environment</text>
<text text-anchor="middle" x="481.26" y="-350.6" font-family="Helvetica Bold" font-size="13.00">(L4YAML.Proofs.Parser.ParserAnchorProofs)</text>
<g id="clust1" class="cluster">
<title>cluster_functions</title>
<polygon fill="none" stroke="#4a90d9" stroke-dasharray="5,2" points="776.53,-45 776.53,-335 954.53,-335 954.53,-45 776.53,-45"/>
<text text-anchor="middle" x="865.53" y="-320.6" font-family="Helvetica Bold" font-size="13.00" fill="#4a90d9">Functions</text>
</g>
<g id="clust2" class="cluster">
<title>cluster_key</title>
<polygon fill="none" stroke="#d4a017" stroke-dasharray="5,2" points="349.06,-8 349.06,-90 731.53,-90 731.53,-8 349.06,-8"/>
<text text-anchor="middle" x="540.29" y="-75.6" font-family="Helvetica Bold" font-size="13.00" fill="#d4a017">Key Theorem</text>
</g>
<g id="clust3" class="cluster">
<title>cluster_proofs</title>
<polygon fill="none" stroke="#28a745" stroke-dasharray="5,2" points="8,-158 8,-238 328.06,-238 328.06,-158 8,-158"/>
<text text-anchor="middle" x="168.03" y="-223.6" font-family="Helvetica Bold" font-size="13.00" fill="#28a745">Proof Dependencies</text>
</g>
<!-- L4YAML.TokenParser.ParseState -->
<g id="node1" class="node">
<title>L4YAML.TokenParser.ParseState</title>
<g id="a_node1"><a xlink:href="../../../api/L4YAML/Parser/State.html#L4YAML.TokenParser.ParseState" xlink:title="TokenParser.ParseState\n(inductive)" target="_blank">
<polygon fill="#dce9f7" stroke="#4a90d9" points="927.53,-305 803.53,-305 803.53,-269 927.53,-269 927.53,-305"/>
<text text-anchor="middle" x="865.53" y="-290" font-family="Helvetica" font-size="10.00">TokenParser.ParseState</text>
<text text-anchor="middle" x="865.53" y="-279" font-family="Helvetica" font-size="10.00">(inductive)</text>
</a>
</g>
</g>
<!-- L4YAML.YamlValue -->
<g id="node2" class="node">
<title>L4YAML.YamlValue</title>
<g id="a_node2"><a xlink:href="../../../api/L4YAML/Spec/Types.html#L4YAML.YamlValue" xlink:title="YamlValue\n(inductive)" target="_blank">
<polygon fill="#dce9f7" stroke="#4a90d9" points="896.53,-143 834.53,-143 834.53,-107 896.53,-107 896.53,-143"/>
<text text-anchor="middle" x="865.53" y="-128" font-family="Helvetica" font-size="10.00">YamlValue</text>
<text text-anchor="middle" x="865.53" y="-117" font-family="Helvetica" font-size="10.00">(inductive)</text>
</a>
</g>
</g>
<!-- L4YAML.TokenParser.parseNode -->
<g id="node3" class="node">
<title>L4YAML.TokenParser.parseNode</title>
<g id="a_node3"><a xlink:href="../../../api/L4YAML/Parser/TokenParser.html#L4YAML.TokenParser.parseNode" xlink:title="TokenParser.parseNode\n(def)" target="_blank">
<polygon fill="#dce9f7" stroke="#4a90d9" points="926.53,-197 804.53,-197 804.53,-161 926.53,-161 926.53,-197"/>
<text text-anchor="middle" x="865.53" y="-182" font-family="Helvetica" font-size="10.00">TokenParser.parseNode</text>
<text text-anchor="middle" x="865.53" y="-171" font-family="Helvetica" font-size="10.00">(def)</text>
</a>
</g>
</g>
<!-- L4YAML.TokenParser.ParseState.anchors -->
<g id="node4" class="node">
<title>L4YAML.TokenParser.ParseState.anchors</title>
<g id="a_node4"><a xlink:href="../../../api/L4YAML/Parser/State.html#L4YAML.TokenParser.ParseState.anchors" xlink:title="TokenParser.ParseState.anchors\n(def)" target="_blank">
<polygon fill="#dce9f7" stroke="#4a90d9" points="946.53,-251 784.53,-251 784.53,-215 946.53,-215 946.53,-251"/>
<text text-anchor="middle" x="865.53" y="-236" font-family="Helvetica" font-size="10.00">TokenParser.ParseState.anchors</text>
<text text-anchor="middle" x="865.53" y="-225" font-family="Helvetica" font-size="10.00">(def)</text>
</a>
</g>
</g>
<!-- L4YAML.ScanError -->
<g id="node5" class="node">
<title>L4YAML.ScanError</title>
<g id="a_node5"><a xlink:href="../../../api/L4YAML/Token/Token.html#L4YAML.ScanError" xlink:title="ScanError\n(inductive)" target="_blank">
<polygon fill="#dce9f7" stroke="#4a90d9" points="896.53,-89 834.53,-89 834.53,-53 896.53,-53 896.53,-89"/>
<text text-anchor="middle" x="865.53" y="-74" font-family="Helvetica" font-size="10.00">ScanError</text>
<text text-anchor="middle" x="865.53" y="-63" font-family="Helvetica" font-size="10.00">(inductive)</text>
</a>
</g>
</g>
<!-- L4YAML.Proofs.ParserAnchorProofs.parseNode_anchors_grow -->
<g id="node6" class="node">
<title>L4YAML.Proofs.ParserAnchorProofs.parseNode_anchors_grow</title>
<g id="a_node6"><a xlink:href="../../../api/L4YAML/Proofs/Parser/ParserAnchorProofs.html#L4YAML.Proofs.ParserAnchorProofs.parseNode_anchors_grow" xlink:title="ParserAnchorProofs.parseNode_anchors_grow" target="_blank">
<polygon fill="#fff3cd" stroke="#d4a017" points="719.76,-30.54 719.76,-45.46 614.63,-56 465.95,-56 360.82,-45.46 360.82,-30.54 465.95,-20 614.63,-20 719.76,-30.54"/>
<polygon fill="none" stroke="#d4a017" points="723.77,-26.93 723.77,-49.07 614.83,-60 465.75,-60 356.82,-49.07 356.82,-26.93 465.75,-16 614.83,-16 723.77,-26.93"/>
<text text-anchor="middle" x="540.29" y="-34.9" font-family="Helvetica" font-size="12.00">ParserAnchorProofs.parseNode_anchors_grow</text>
</a>
</g>
</g>
<!-- L4YAML.Proofs.ParserAnchorProofs.parseNode_anchors_grow&#45;&gt;L4YAML.TokenParser.ParseState -->
<g id="edge5" class="edge">
<title>L4YAML.Proofs.ParserAnchorProofs.parseNode_anchors_grow&#45;&gt;L4YAML.TokenParser.ParseState</title>
<path fill="none" stroke="#4a90d9" stroke-width="2" d="M672.98,-54.35C695.45,-62.87 716.39,-75.47 731.53,-94 748.04,-114.21 732.51,-186.51 741.53,-211 750.78,-236.11 754.81,-244.36 776.53,-260 782.68,-264.43 789.58,-268.15 796.74,-271.27"/>
<polygon fill="#4a90d9" stroke="#4a90d9" stroke-width="2" points="795.96,-273.59 803.37,-273.96 797.8,-269.05 795.96,-273.59"/>
<text text-anchor="middle" x="754.03" y="-254.6" font-family="Times-Roman" font-size="8.00" fill="#4a90d9">about</text>
</g>
<!-- L4YAML.Proofs.ParserAnchorProofs.parseNode_anchors_grow&#45;&gt;L4YAML.YamlValue -->
<g id="edge4" class="edge">
<title>L4YAML.Proofs.ParserAnchorProofs.parseNode_anchors_grow&#45;&gt;L4YAML.YamlValue</title>
<path fill="none" stroke="#4a90d9" stroke-width="2" d="M621.19,-59.51C687.08,-77.24 777.55,-101.59 827.55,-115.05"/>
<polygon fill="#4a90d9" stroke="#4a90d9" stroke-width="2" points="826.93,-117.42 834.33,-116.87 828.21,-112.69 826.93,-117.42"/>
<text text-anchor="middle" x="754.03" y="-98.6" font-family="Times-Roman" font-size="8.00" fill="#4a90d9">about</text>
</g>
<!-- L4YAML.Proofs.ParserAnchorProofs.parseNode_anchors_grow&#45;&gt;L4YAML.TokenParser.parseNode -->
<g id="edge3" class="edge">
<title>L4YAML.Proofs.ParserAnchorProofs.parseNode_anchors_grow&#45;&gt;L4YAML.TokenParser.parseNode</title>
<path fill="none" stroke="#4a90d9" stroke-width="2" d="M651.49,-56.5C679.41,-64.79 708.1,-76.75 731.53,-94 737.98,-98.75 736.77,-102.55 741.53,-109 756.16,-128.83 756.09,-138.24 776.53,-152 782.92,-156.31 790.03,-159.95 797.36,-163.02"/>
<polygon fill="#4a90d9" stroke="#4a90d9" stroke-width="2" points="796.72,-165.41 804.13,-165.69 798.52,-160.85 796.72,-165.41"/>
<text text-anchor="middle" x="754.03" y="-146.6" font-family="Times-Roman" font-size="8.00" fill="#4a90d9">about</text>
</g>
<!-- L4YAML.Proofs.ParserAnchorProofs.parseNode_anchors_grow&#45;&gt;L4YAML.TokenParser.ParseState.anchors -->
<g id="edge2" class="edge">
<title>L4YAML.Proofs.ParserAnchorProofs.parseNode_anchors_grow&#45;&gt;L4YAML.TokenParser.ParseState.anchors</title>
<path fill="none" stroke="#4a90d9" stroke-width="2" d="M669.98,-54.52C693.27,-62.98 715.28,-75.51 731.53,-94 750.24,-115.3 730.78,-130.77 741.53,-157 751.67,-181.77 754.81,-190.36 776.53,-206 779.3,-208 782.22,-209.85 785.25,-211.56"/>
<polygon fill="#4a90d9" stroke="#4a90d9" stroke-width="2" points="784.27,-213.81 791.6,-214.9 786.55,-209.48 784.27,-213.81"/>
<text text-anchor="middle" x="754.03" y="-200.6" font-family="Times-Roman" font-size="8.00" fill="#4a90d9">about</text>
</g>
<!-- L4YAML.Proofs.ParserAnchorProofs.parseNode_anchors_grow&#45;&gt;L4YAML.ScanError -->
<g id="edge1" class="edge">
<title>L4YAML.Proofs.ParserAnchorProofs.parseNode_anchors_grow&#45;&gt;L4YAML.ScanError</title>
<path fill="none" stroke="#4a90d9" stroke-width="2" d="M723.54,-40.11C738.12,-41.36 752.59,-42.96 766.53,-45 786.98,-47.99 809.29,-53.71 827.44,-59.02"/>
<polygon fill="#4a90d9" stroke="#4a90d9" stroke-width="2" points="827.03,-61.45 834.44,-61.11 828.43,-56.76 827.03,-61.45"/>
<text text-anchor="middle" x="754.03" y="-47.6" font-family="Times-Roman" font-size="8.00" fill="#4a90d9">about</text>
</g>
<!-- L4YAML.Proofs.ParserNodeProofs.parseNode_anchors_grow -->
<g id="node7" class="node">
<title>L4YAML.Proofs.ParserNodeProofs.parseNode_anchors_grow</title>
<g id="a_node7"><a xlink:href="../../../api/L4YAML/Proofs/Parser/ParserNodeProofs.html#L4YAML.Proofs.ParserNodeProofs.parseNode_anchors_grow" xlink:title="ParserNodeProofs.parseNode_anchors_grow\n(Parser.ParserNodeProofs)" target="_blank">
<ellipse fill="#d4edda" stroke="#28a745" cx="168.03" cy="-187" rx="152.06" ry="21.43"/>
<text text-anchor="middle" x="168.03" y="-190" font-family="Helvetica" font-size="10.00">ParserNodeProofs.parseNode_anchors_grow</text>
<text text-anchor="middle" x="168.03" y="-179" font-family="Helvetica" font-size="10.00">(Parser.ParserNodeProofs)</text>
</a>
</g>
</g>
<!-- L4YAML.Proofs.ParserNodeProofs.parseNode_anchors_grow&#45;&gt;L4YAML.TokenParser.ParseState -->
<g id="edge11" class="edge">
<title>L4YAML.Proofs.ParserNodeProofs.parseNode_anchors_grow&#45;&gt;L4YAML.TokenParser.ParseState</title>
<path fill="none" stroke="#6f42c1" stroke-width="2" stroke-dasharray="5,2" d="M203.42,-207.63C238.62,-227.53 295.57,-256.41 349.06,-269 506.62,-306.08 698.68,-299.77 797.96,-292.86"/>
<polygon fill="#6f42c1" stroke="#6f42c1" stroke-width="2" points="798.34,-294.59 803.2,-292.49 798.09,-291.1 798.34,-294.59"/>
<text text-anchor="middle" x="540.29" y="-300.4" font-family="Times-Roman" font-size="7.00" fill="#6f42c1">about</text>
</g>
<!-- L4YAML.Proofs.ParserNodeProofs.parseNode_anchors_grow&#45;&gt;L4YAML.YamlValue -->
<g id="edge10" class="edge">
<title>L4YAML.Proofs.ParserNodeProofs.parseNode_anchors_grow&#45;&gt;L4YAML.YamlValue</title>
<path fill="none" stroke="#6f42c1" stroke-width="2" stroke-dasharray="5,2" d="M314.71,-181.39C436,-175.56 613.04,-164.33 766.53,-144 787.42,-141.23 810.57,-136.81 829.12,-132.93"/>
<polygon fill="#6f42c1" stroke="#6f42c1" stroke-width="2" points="829.69,-134.59 834.22,-131.85 828.97,-131.17 829.69,-134.59"/>
<text text-anchor="middle" x="540.29" y="-181.4" font-family="Times-Roman" font-size="7.00" fill="#6f42c1">about</text>
</g>
<!-- L4YAML.Proofs.ParserNodeProofs.parseNode_anchors_grow&#45;&gt;L4YAML.TokenParser.parseNode -->
<g id="edge9" class="edge">
<title>L4YAML.Proofs.ParserNodeProofs.parseNode_anchors_grow&#45;&gt;L4YAML.TokenParser.parseNode</title>
<path fill="none" stroke="#6f42c1" stroke-width="2" stroke-dasharray="5,2" d="M316.69,-191.6C432.29,-194.97 597.13,-199.23 741.53,-201 752.64,-201.14 755.49,-202.22 766.53,-201 777.27,-199.81 788.56,-197.9 799.5,-195.7"/>
<polygon fill="#6f42c1" stroke="#6f42c1" stroke-width="2" points="799.96,-197.39 804.5,-194.67 799.25,-193.97 799.96,-197.39"/>
<text text-anchor="middle" x="540.29" y="-202.4" font-family="Times-Roman" font-size="7.00" fill="#6f42c1">about</text>
</g>
<!-- L4YAML.Proofs.ParserNodeProofs.parseNode_anchors_grow&#45;&gt;L4YAML.TokenParser.ParseState.anchors -->
<g id="edge8" class="edge">
<title>L4YAML.Proofs.ParserNodeProofs.parseNode_anchors_grow&#45;&gt;L4YAML.TokenParser.ParseState.anchors</title>
<path fill="none" stroke="#6f42c1" stroke-width="2" stroke-dasharray="5,2" d="M267.19,-203.12C380.94,-220.88 574.18,-248.23 741.53,-258 752.62,-258.65 755.5,-259.38 766.53,-258 777.03,-256.68 788.02,-254.6 798.68,-252.18"/>
<polygon fill="#6f42c1" stroke="#6f42c1" stroke-width="2" points="799.08,-253.89 803.55,-251.05 798.29,-250.48 799.08,-253.89"/>
<text text-anchor="middle" x="540.29" y="-259.4" font-family="Times-Roman" font-size="7.00" fill="#6f42c1">about</text>
</g>
<!-- L4YAML.Proofs.ParserNodeProofs.parseNode_anchors_grow&#45;&gt;L4YAML.ScanError -->
<g id="edge7" class="edge">
<title>L4YAML.Proofs.ParserNodeProofs.parseNode_anchors_grow&#45;&gt;L4YAML.ScanError</title>
<path fill="none" stroke="#6f42c1" stroke-width="2" stroke-dasharray="5,2" d="M228.43,-167.47C263.24,-156.71 308.25,-143.96 349.06,-136 516.9,-103.25 562.2,-117.92 731.53,-94 764.81,-89.3 802.55,-82.65 829.3,-77.7"/>
<polygon fill="#6f42c1" stroke="#6f42c1" stroke-width="2" points="829.91,-79.37 834.5,-76.74 829.27,-75.93 829.91,-79.37"/>
<text text-anchor="middle" x="540.29" y="-138.4" font-family="Times-Roman" font-size="7.00" fill="#6f42c1">about</text>
</g>
<!-- L4YAML.Proofs.ParserNodeProofs.parseNode_anchors_grow&#45;&gt;L4YAML.Proofs.ParserAnchorProofs.parseNode_anchors_grow -->
<g id="edge6" class="edge">
<title>L4YAML.Proofs.ParserNodeProofs.parseNode_anchors_grow&#45;&gt;L4YAML.Proofs.ParserAnchorProofs.parseNode_anchors_grow</title>
<path fill="none" stroke="#28a745" d="M204.29,-166.23C239.91,-145.85 296.98,-114.89 349.06,-94 380.83,-81.25 416.61,-69.96 448.51,-60.92"/>
<polygon fill="#28a745" stroke="#28a745" points="449.17,-63.27 455.25,-59.02 447.85,-58.56 449.17,-63.27"/>
</g>
</g>
</svg>
