<?xml version="1.0" encoding="UTF-8" standalone="no"?>
<!DOCTYPE svg PUBLIC "-//W3C//DTD SVG 1.1//EN"
 "http://www.w3.org/Graphics/SVG/1.1/DTD/svg11.dtd">
<!-- Generated by graphviz version 2.44.0 (0)
 -->
<!-- Title: Emit.contentEq.eq_def Pages: 1 -->
<svg width="1010pt" height="1022pt"
 viewBox="0.00 0.00 1010.40 1022.33" xmlns="http://www.w3.org/2000/svg" xmlns:xlink="http://www.w3.org/1999/xlink">
<g id="graph0" class="graph" transform="scale(1 1) rotate(0) translate(4 1018.33)">
<title>Emit.contentEq.eq_def</title>
<polygon fill="white" stroke="transparent" points="-4,4 -4,-1018.33 1006.4,-1018.33 1006.4,4 -4,4"/>
<text text-anchor="middle" x="501.2" y="-999.93" font-family="Helvetica Bold" font-size="13.00">Emit.contentEq.eq_def</text>
<text text-anchor="middle" x="501.2" y="-985.93" font-family="Helvetica Bold" font-size="13.00">(heuristic: used by 5 proofs)</text>
<text text-anchor="middle" x="501.2" y="-971.93" font-family="Helvetica Bold" font-size="13.00">(L4YAML.Proofs.Output.EmitterScannability)</text>
<g id="clust1" class="cluster">
<title>cluster_functions</title>
<polygon fill="none" stroke="#4a90d9" stroke-dasharray="5,2" points="603.12,-288.33 603.12,-956.33 994.4,-956.33 994.4,-288.33 603.12,-288.33"/>
<text text-anchor="middle" x="798.76" y="-941.93" font-family="Helvetica Bold" font-size="13.00" fill="#4a90d9">Functions</text>
</g>
<g id="clust2" class="cluster">
<title>cluster_key</title>
<polygon fill="none" stroke="#d4a017" stroke-dasharray="5,2" points="562.83,-162.33 562.83,-244.33 769.4,-244.33 769.4,-162.33 562.83,-162.33"/>
<text text-anchor="middle" x="666.12" y="-229.93" font-family="Helvetica Bold" font-size="13.00" fill="#d4a017">Key Theorem</text>
</g>
<g id="clust3" class="cluster">
<title>cluster_proofs</title>
<polygon fill="none" stroke="#28a745" stroke-dasharray="5,2" points="178.63,-636.33 178.63,-716.33 350.2,-716.33 350.2,-636.33 178.63,-636.33"/>
<text text-anchor="middle" x="264.42" y="-701.93" font-family="Helvetica Bold" font-size="13.00" fill="#28a745">Proof Dependencies</text>
</g>
<g id="clust4" class="cluster">
<title>cluster_stdlib</title>
<polygon fill="none" stroke="#e67e22" stroke-dasharray="5,2" points="8,-143.33 8,-217.33 520.83,-217.33 520.83,-143.33 8,-143.33"/>
<text text-anchor="middle" x="264.42" y="-202.93" font-family="Helvetica Bold" font-size="13.00" fill="#e67e22">Stdlib Lemmas</text>
</g>
<!-- L4YAML.Emit.contentEq.match_1 -->
<g id="node1" class="node">
<title>L4YAML.Emit.contentEq.match_1</title>
<g id="a_node1"><a xlink:href="../../../api/L4YAML/Output/Emitter.html#L4YAML.Emit.contentEq.match_1" xlink:title="Emit.contentEq.match_1\n(def)" target="_blank">
<polygon fill="#dce9f7" stroke="#4a90d9" points="966.4,-386.33 842.4,-386.33 842.4,-350.33 966.4,-350.33 966.4,-386.33"/>
<text text-anchor="middle" x="904.4" y="-371.33" font-family="Helvetica" font-size="10.00">Emit.contentEq.match_1</text>
<text text-anchor="middle" x="904.4" y="-360.33" font-family="Helvetica" font-size="10.00">(def)</text>
</a>
</g>
</g>
<!-- L4YAML.YamlValue.below_1 -->
<g id="node2" class="node">
<title>L4YAML.YamlValue.below_1</title>
<g id="a_node2"><a xlink:href="../../../api/L4YAML/Spec/Types.html#L4YAML.YamlValue.below_1" xlink:title="YamlValue.below_1\n(def)" target="_blank">
<polygon fill="#dce9f7" stroke="#4a90d9" points="716.62,-710.33 615.62,-710.33 615.62,-674.33 716.62,-674.33 716.62,-710.33"/>
<text text-anchor="middle" x="666.12" y="-695.33" font-family="Helvetica" font-size="10.00">YamlValue.below_1</text>
<text text-anchor="middle" x="666.12" y="-684.33" font-family="Helvetica" font-size="10.00">(def)</text>
</a>
</g>
</g>
<!-- L4YAML.CollectionStyle -->
<g id="node3" class="node">
<title>L4YAML.CollectionStyle</title>
<g id="a_node3"><a xlink:href="../../../api/L4YAML/Spec/Types.html#L4YAML.CollectionStyle" xlink:title="CollectionStyle\n(inductive)" target="_blank">
<polygon fill="#dce9f7" stroke="#4a90d9" points="945.9,-440.33 862.9,-440.33 862.9,-404.33 945.9,-404.33 945.9,-440.33"/>
<text text-anchor="middle" x="904.4" y="-425.33" font-family="Helvetica" font-size="10.00">CollectionStyle</text>
<text text-anchor="middle" x="904.4" y="-414.33" font-family="Helvetica" font-size="10.00">(inductive)</text>
</a>
</g>
</g>
<!-- L4YAML.Scalar.content -->
<g id="node4" class="node">
<title>L4YAML.Scalar.content</title>
<g id="a_node4"><a xlink:href="../../../api/L4YAML/Spec/Types.html#L4YAML.Scalar.content" xlink:title="Scalar.content\n(def)" target="_blank">
<polygon fill="#dce9f7" stroke="#4a90d9" points="944.4,-548.33 864.4,-548.33 864.4,-512.33 944.4,-512.33 944.4,-548.33"/>
<text text-anchor="middle" x="904.4" y="-533.33" font-family="Helvetica" font-size="10.00">Scalar.content</text>
<text text-anchor="middle" x="904.4" y="-522.33" font-family="Helvetica" font-size="10.00">(def)</text>
</a>
</g>
</g>
<!-- L4YAML.YamlValue.scalar -->
<g id="node5" class="node">
<title>L4YAML.YamlValue.scalar</title>
<g id="a_node5"><a xlink:href="../../../api/L4YAML/Spec/Types.html#L4YAML.YamlValue.scalar" xlink:title="YamlValue.scalar\n(ctor)" target="_blank">
<polygon fill="#dce9f7" stroke="#4a90d9" points="712.12,-332.33 620.12,-332.33 620.12,-296.33 712.12,-296.33 712.12,-332.33"/>
<text text-anchor="middle" x="666.12" y="-317.33" font-family="Helvetica" font-size="10.00">YamlValue.scalar</text>
<text text-anchor="middle" x="666.12" y="-306.33" font-family="Helvetica" font-size="10.00">(ctor)</text>
</a>
</g>
</g>
<!-- L4YAML.Scalar -->
<g id="node6" class="node">
<title>L4YAML.Scalar</title>
<g id="a_node6"><a xlink:href="../../../api/L4YAML/Spec/Types.html#L4YAML.Scalar" xlink:title="Scalar\n(inductive)" target="_blank">
<polygon fill="#dce9f7" stroke="#4a90d9" points="935.4,-332.33 873.4,-332.33 873.4,-296.33 935.4,-296.33 935.4,-332.33"/>
<text text-anchor="middle" x="904.4" y="-317.33" font-family="Helvetica" font-size="10.00">Scalar</text>
<text text-anchor="middle" x="904.4" y="-306.33" font-family="Helvetica" font-size="10.00">(inductive)</text>
</a>
</g>
</g>
<!-- L4YAML.YamlValue.below_3 -->
<g id="node7" class="node">
<title>L4YAML.YamlValue.below_3</title>
<g id="a_node7"><a xlink:href="../../../api/L4YAML/Spec/Types.html#L4YAML.YamlValue.below_3" xlink:title="YamlValue.below_3\n(def)" target="_blank">
<polygon fill="#dce9f7" stroke="#4a90d9" points="716.62,-656.33 615.62,-656.33 615.62,-620.33 716.62,-620.33 716.62,-656.33"/>
<text text-anchor="middle" x="666.12" y="-641.33" font-family="Helvetica" font-size="10.00">YamlValue.below_3</text>
<text text-anchor="middle" x="666.12" y="-630.33" font-family="Helvetica" font-size="10.00">(def)</text>
</a>
</g>
</g>
<!-- L4YAML.YamlValue.brecOn.go -->
<g id="node8" class="node">
<title>L4YAML.YamlValue.brecOn.go</title>
<g id="a_node8"><a xlink:href="../../../api/L4YAML/Spec/Types.html#L4YAML.YamlValue.brecOn.go" xlink:title="YamlValue.brecOn.go\n(def)" target="_blank">
<polygon fill="#dce9f7" stroke="#4a90d9" points="721.12,-602.33 611.12,-602.33 611.12,-566.33 721.12,-566.33 721.12,-602.33"/>
<text text-anchor="middle" x="666.12" y="-587.33" font-family="Helvetica" font-size="10.00">YamlValue.brecOn.go</text>
<text text-anchor="middle" x="666.12" y="-576.33" font-family="Helvetica" font-size="10.00">(def)</text>
</a>
</g>
</g>
<!-- L4YAML.YamlValue.below_4 -->
<g id="node9" class="node">
<title>L4YAML.YamlValue.below_4</title>
<g id="a_node9"><a xlink:href="../../../api/L4YAML/Spec/Types.html#L4YAML.YamlValue.below_4" xlink:title="YamlValue.below_4\n(def)" target="_blank">
<polygon fill="#dce9f7" stroke="#4a90d9" points="716.62,-548.33 615.62,-548.33 615.62,-512.33 716.62,-512.33 716.62,-548.33"/>
<text text-anchor="middle" x="666.12" y="-533.33" font-family="Helvetica" font-size="10.00">YamlValue.below_4</text>
<text text-anchor="middle" x="666.12" y="-522.33" font-family="Helvetica" font-size="10.00">(def)</text>
</a>
</g>
</g>
<!-- L4YAML.YamlValue.below -->
<g id="node10" class="node">
<title>L4YAML.YamlValue.below</title>
<g id="a_node10"><a xlink:href="../../../api/L4YAML/Spec/Types.html#L4YAML.YamlValue.below" xlink:title="YamlValue.below\n(def)" target="_blank">
<polygon fill="#dce9f7" stroke="#4a90d9" points="711.62,-926.33 620.62,-926.33 620.62,-890.33 711.62,-890.33 711.62,-926.33"/>
<text text-anchor="middle" x="666.12" y="-911.33" font-family="Helvetica" font-size="10.00">YamlValue.below</text>
<text text-anchor="middle" x="666.12" y="-900.33" font-family="Helvetica" font-size="10.00">(def)</text>
</a>
</g>
</g>
<!-- L4YAML.YamlValue.below_2 -->
<g id="node11" class="node">
<title>L4YAML.YamlValue.below_2</title>
<g id="a_node11"><a xlink:href="../../../api/L4YAML/Spec/Types.html#L4YAML.YamlValue.below_2" xlink:title="YamlValue.below_2\n(def)" target="_blank">
<polygon fill="#dce9f7" stroke="#4a90d9" points="716.62,-872.33 615.62,-872.33 615.62,-836.33 716.62,-836.33 716.62,-872.33"/>
<text text-anchor="middle" x="666.12" y="-857.33" font-family="Helvetica" font-size="10.00">YamlValue.below_2</text>
<text text-anchor="middle" x="666.12" y="-846.33" font-family="Helvetica" font-size="10.00">(def)</text>
</a>
</g>
</g>
<!-- L4YAML.YamlValue.mapping -->
<g id="node12" class="node">
<title>L4YAML.YamlValue.mapping</title>
<g id="a_node12"><a xlink:href="../../../api/L4YAML/Spec/Types.html#L4YAML.YamlValue.mapping" xlink:title="YamlValue.mapping\n(ctor)" target="_blank">
<polygon fill="#dce9f7" stroke="#4a90d9" points="717.12,-494.33 615.12,-494.33 615.12,-458.33 717.12,-458.33 717.12,-494.33"/>
<text text-anchor="middle" x="666.12" y="-479.33" font-family="Helvetica" font-size="10.00">YamlValue.mapping</text>
<text text-anchor="middle" x="666.12" y="-468.33" font-family="Helvetica" font-size="10.00">(ctor)</text>
</a>
</g>
</g>
<!-- L4YAML.YamlValue -->
<g id="node13" class="node">
<title>L4YAML.YamlValue</title>
<g id="a_node13"><a xlink:href="../../../api/L4YAML/Spec/Types.html#L4YAML.YamlValue" xlink:title="YamlValue\n(inductive)" target="_blank">
<polygon fill="#dce9f7" stroke="#4a90d9" points="935.4,-494.33 873.4,-494.33 873.4,-458.33 935.4,-458.33 935.4,-494.33"/>
<text text-anchor="middle" x="904.4" y="-479.33" font-family="Helvetica" font-size="10.00">YamlValue</text>
<text text-anchor="middle" x="904.4" y="-468.33" font-family="Helvetica" font-size="10.00">(inductive)</text>
</a>
</g>
</g>
<!-- L4YAML.YamlValue.sequence -->
<g id="node14" class="node">
<title>L4YAML.YamlValue.sequence</title>
<g id="a_node14"><a xlink:href="../../../api/L4YAML/Spec/Types.html#L4YAML.YamlValue.sequence" xlink:title="YamlValue.sequence\n(ctor)" target="_blank">
<polygon fill="#dce9f7" stroke="#4a90d9" points="719.62,-440.33 612.62,-440.33 612.62,-404.33 719.62,-404.33 719.62,-440.33"/>
<text text-anchor="middle" x="666.12" y="-425.33" font-family="Helvetica" font-size="10.00">YamlValue.sequence</text>
<text text-anchor="middle" x="666.12" y="-414.33" font-family="Helvetica" font-size="10.00">(ctor)</text>
</a>
</g>
</g>
<!-- L4YAML.YamlValue.below_5 -->
<g id="node15" class="node">
<title>L4YAML.YamlValue.below_5</title>
<g id="a_node15"><a xlink:href="../../../api/L4YAML/Spec/Types.html#L4YAML.YamlValue.below_5" xlink:title="YamlValue.below_5\n(def)" target="_blank">
<polygon fill="#dce9f7" stroke="#4a90d9" points="716.62,-818.33 615.62,-818.33 615.62,-782.33 716.62,-782.33 716.62,-818.33"/>
<text text-anchor="middle" x="666.12" y="-803.33" font-family="Helvetica" font-size="10.00">YamlValue.below_5</text>
<text text-anchor="middle" x="666.12" y="-792.33" font-family="Helvetica" font-size="10.00">(def)</text>
</a>
</g>
</g>
<!-- L4YAML.YamlValue.brecOn -->
<g id="node16" class="node">
<title>L4YAML.YamlValue.brecOn</title>
<g id="a_node16"><a xlink:href="../../../api/L4YAML/Spec/Types.html#L4YAML.YamlValue.brecOn" xlink:title="YamlValue.brecOn\n(def)" target="_blank">
<polygon fill="#dce9f7" stroke="#4a90d9" points="714.62,-764.33 617.62,-764.33 617.62,-728.33 714.62,-728.33 714.62,-764.33"/>
<text text-anchor="middle" x="666.12" y="-749.33" font-family="Helvetica" font-size="10.00">YamlValue.brecOn</text>
<text text-anchor="middle" x="666.12" y="-738.33" font-family="Helvetica" font-size="10.00">(def)</text>
</a>
</g>
</g>
<!-- L4YAML.YamlValue.alias -->
<g id="node17" class="node">
<title>L4YAML.YamlValue.alias</title>
<g id="a_node17"><a xlink:href="../../../api/L4YAML/Spec/Types.html#L4YAML.YamlValue.alias" xlink:title="YamlValue.alias\n(ctor)" target="_blank">
<polygon fill="#dce9f7" stroke="#4a90d9" points="709.12,-386.33 623.12,-386.33 623.12,-350.33 709.12,-350.33 709.12,-386.33"/>
<text text-anchor="middle" x="666.12" y="-371.33" font-family="Helvetica" font-size="10.00">YamlValue.alias</text>
<text text-anchor="middle" x="666.12" y="-360.33" font-family="Helvetica" font-size="10.00">(ctor)</text>
</a>
</g>
</g>
<!-- L4YAML.Emit.contentEq -->
<g id="node18" class="node">
<title>L4YAML.Emit.contentEq</title>
<g id="a_node18"><a xlink:href="../../../api/L4YAML/Output/Emitter.html#L4YAML.Emit.contentEq" xlink:title="Emit.contentEq\n(def)" target="_blank">
<polygon fill="#dce9f7" stroke="#4a90d9" points="945.9,-710.33 862.9,-710.33 862.9,-674.33 945.9,-674.33 945.9,-710.33"/>
<text text-anchor="middle" x="904.4" y="-695.33" font-family="Helvetica" font-size="10.00">Emit.contentEq</text>
<text text-anchor="middle" x="904.4" y="-684.33" font-family="Helvetica" font-size="10.00">(def)</text>
</a>
</g>
</g>
<!-- L4YAML.Emit.contentEq.contentEqList -->
<g id="node19" class="node">
<title>L4YAML.Emit.contentEq.contentEqList</title>
<g id="a_node19"><a xlink:href="../../../api/L4YAML/Output/Emitter.html#L4YAML.Emit.contentEq.contentEqList" xlink:title="Emit.contentEq.contentEqList\n(def)" target="_blank">
<polygon fill="#dce9f7" stroke="#4a90d9" points="977.4,-656.33 831.4,-656.33 831.4,-620.33 977.4,-620.33 977.4,-656.33"/>
<text text-anchor="middle" x="904.4" y="-641.33" font-family="Helvetica" font-size="10.00">Emit.contentEq.contentEqList</text>
<text text-anchor="middle" x="904.4" y="-630.33" font-family="Helvetica" font-size="10.00">(def)</text>
</a>
</g>
</g>
<!-- L4YAML.Emit.contentEq.contentEqPairList -->
<g id="node20" class="node">
<title>L4YAML.Emit.contentEq.contentEqPairList</title>
<g id="a_node20"><a xlink:href="../../../api/L4YAML/Output/Emitter.html#L4YAML.Emit.contentEq.contentEqPairList" xlink:title="Emit.contentEq.contentEqPairList\n(def)" target="_blank">
<polygon fill="#dce9f7" stroke="#4a90d9" points="986.4,-602.33 822.4,-602.33 822.4,-566.33 986.4,-566.33 986.4,-602.33"/>
<text text-anchor="middle" x="904.4" y="-587.33" font-family="Helvetica" font-size="10.00">Emit.contentEq.contentEqPairList</text>
<text text-anchor="middle" x="904.4" y="-576.33" font-family="Helvetica" font-size="10.00">(def)</text>
</a>
</g>
</g>
<!-- L4YAML.Emit.contentEq.eq_def -->
<g id="node21" class="node">
<title>L4YAML.Emit.contentEq.eq_def</title>
<g id="a_node21"><a xlink:href="../../../api/L4YAML/Proofs/Output/EmitterScannability.html#L4YAML.Emit.contentEq.eq_def" xlink:title="Emit.contentEq.eq_def" target="_blank">
<polygon fill="#fff3cd" stroke="#d4a017" points="757.19,-184.88 757.19,-199.79 703.84,-210.33 628.39,-210.33 575.04,-199.79 575.04,-184.88 628.39,-174.33 703.84,-174.33 757.19,-184.88"/>
<polygon fill="none" stroke="#d4a017" points="761.18,-181.59 761.18,-203.08 704.23,-214.33 628,-214.33 571.05,-203.08 571.05,-181.59 628,-170.33 704.23,-170.33 761.18,-181.59"/>
<text text-anchor="middle" x="666.12" y="-189.23" font-family="Helvetica" font-size="12.00">Emit.contentEq.eq_def</text>
</a>
</g>
</g>
<!-- L4YAML.Emit.contentEq.eq_def&#45;&gt;L4YAML.Emit.contentEq.match_1 -->
<g id="edge5" class="edge">
<title>L4YAML.Emit.contentEq.eq_def&#45;&gt;L4YAML.Emit.contentEq.match_1</title>
<path fill="none" stroke="#4a90d9" stroke-width="2" d="M716.18,-172.69C750.13,-160.66 791.45,-149.61 804.4,-161.33 834.21,-188.31 797.3,-309.93 822.4,-341.33 826.19,-346.08 830.84,-349.99 835.98,-353.23"/>
<polygon fill="#4a90d9" stroke="#4a90d9" stroke-width="2" points="834.92,-355.44 842.22,-356.72 837.31,-351.16 834.92,-355.44"/>
<text text-anchor="middle" x="791.9" y="-163.93" font-family="Times-Roman" font-size="8.00" fill="#4a90d9">about</text>
</g>
<!-- L4YAML.Emit.contentEq.eq_def&#45;&gt;L4YAML.CollectionStyle -->
<g id="edge4" class="edge">
<title>L4YAML.Emit.contentEq.eq_def&#45;&gt;L4YAML.CollectionStyle</title>
<path fill="none" stroke="#4a90d9" stroke-width="2" d="M731.33,-175.6C757.06,-172.88 785.12,-175.56 804.4,-193.33 837.54,-223.87 794.45,-359.98 822.4,-395.33 830.62,-405.73 842.98,-412.16 855.59,-416.12"/>
<polygon fill="#4a90d9" stroke="#4a90d9" stroke-width="2" points="855.2,-418.56 862.6,-418.08 856.52,-413.84 855.2,-418.56"/>
<text text-anchor="middle" x="791.9" y="-195.93" font-family="Times-Roman" font-size="8.00" fill="#4a90d9">about</text>
</g>
<!-- L4YAML.Emit.contentEq.eq_def&#45;&gt;L4YAML.Scalar.content -->
<g id="edge3" class="edge">
<title>L4YAML.Emit.contentEq.eq_def&#45;&gt;L4YAML.Scalar.content</title>
<path fill="none" stroke="#4a90d9" stroke-width="2" d="M720.44,-211.18C754.46,-224.35 794.04,-242.21 804.4,-257.33 835.39,-302.55 788.75,-460.07 822.4,-503.33 830.92,-514.29 844.06,-520.85 857.28,-524.75"/>
<polygon fill="#4a90d9" stroke="#4a90d9" stroke-width="2" points="856.79,-527.16 864.18,-526.56 858.03,-522.42 856.79,-527.16"/>
<text text-anchor="middle" x="791.9" y="-259.93" font-family="Times-Roman" font-size="8.00" fill="#4a90d9">about</text>
</g>
<!-- L4YAML.Emit.contentEq.eq_def&#45;&gt;L4YAML.Scalar -->
<g id="edge6" class="edge">
<title>L4YAML.Emit.contentEq.eq_def&#45;&gt;L4YAML.Scalar</title>
<path fill="none" stroke="#4a90d9" stroke-width="2" d="M740.15,-177.36C751.21,-172.27 761.54,-165.46 769.4,-156.33 784.76,-138.5 761.25,-119.32 779.4,-104.33 787.97,-97.26 795.02,-98.38 804.4,-104.33 869.67,-145.72 892.7,-242.92 900.16,-289.1"/>
<polygon fill="#4a90d9" stroke="#4a90d9" stroke-width="2" points="897.74,-289.51 901.22,-296.06 902.58,-288.77 897.74,-289.51"/>
<text text-anchor="middle" x="791.9" y="-106.93" font-family="Times-Roman" font-size="8.00" fill="#4a90d9">about</text>
</g>
<!-- L4YAML.Emit.contentEq.eq_def&#45;&gt;L4YAML.YamlValue -->
<g id="edge7" class="edge">
<title>L4YAML.Emit.contentEq.eq_def&#45;&gt;L4YAML.YamlValue</title>
<path fill="none" stroke="#4a90d9" stroke-width="2" d="M761.21,-198.51C777.71,-203.8 793.17,-212.2 804.4,-225.33 836.86,-263.28 791.6,-410.02 822.4,-449.33 832.86,-462.69 850.17,-469.5 866.1,-472.95"/>
<polygon fill="#4a90d9" stroke="#4a90d9" stroke-width="2" points="865.96,-475.41 873.29,-474.31 866.87,-470.6 865.96,-475.41"/>
<text text-anchor="middle" x="791.9" y="-227.93" font-family="Times-Roman" font-size="8.00" fill="#4a90d9">about</text>
</g>
<!-- L4YAML.Emit.contentEq.eq_def&#45;&gt;L4YAML.Emit.contentEq -->
<g id="edge1" class="edge">
<title>L4YAML.Emit.contentEq.eq_def&#45;&gt;L4YAML.Emit.contentEq</title>
<path fill="none" stroke="#4a90d9" stroke-width="2" d="M722.39,-210.83C740.13,-219.48 758.1,-231.66 769.4,-248.33 779.7,-263.53 777.12,-312.12 779.4,-330.33 798.04,-479.28 727.04,-549.4 822.4,-665.33 830.82,-675.57 843.25,-681.95 855.85,-685.92"/>
<polygon fill="#4a90d9" stroke="#4a90d9" stroke-width="2" points="855.44,-688.35 862.84,-687.88 856.77,-683.63 855.44,-688.35"/>
<text text-anchor="middle" x="791.9" y="-639.93" font-family="Times-Roman" font-size="8.00" fill="#4a90d9">about</text>
</g>
<!-- L4YAML.Emit.contentEq.eq_def&#45;&gt;L4YAML.Emit.contentEq.contentEqList -->
<g id="edge2" class="edge">
<title>L4YAML.Emit.contentEq.eq_def&#45;&gt;L4YAML.Emit.contentEq.contentEqList</title>
<path fill="none" stroke="#4a90d9" stroke-width="2" d="M721.15,-211.07C739,-219.78 757.35,-231.94 769.4,-248.33 782.82,-266.6 768.29,-278.58 779.4,-298.33 786.8,-311.49 797.91,-307.7 804.4,-321.33 832.17,-379.63 783.04,-560.15 822.4,-611.33 823.55,-612.82 824.78,-614.23 826.08,-615.56"/>
<polygon fill="#4a90d9" stroke="#4a90d9" stroke-width="2" points="824.6,-617.52 831.46,-620.33 827.85,-613.86 824.6,-617.52"/>
<text text-anchor="middle" x="791.9" y="-323.93" font-family="Times-Roman" font-size="8.00" fill="#4a90d9">about</text>
</g>
<!-- L4YAML.Emit.contentEq.eq_def&#45;&gt;L4YAML.Emit.contentEq.contentEqPairList -->
<g id="edge8" class="edge">
<title>L4YAML.Emit.contentEq.eq_def&#45;&gt;L4YAML.Emit.contentEq.contentEqPairList</title>
<path fill="none" stroke="#4a90d9" stroke-width="2" d="M715.9,-212.03C734.22,-221.12 754.25,-233.28 769.4,-248.33 775.89,-254.78 773.74,-259.14 779.4,-266.33 788.74,-278.19 797.87,-275.72 804.4,-289.33 830.2,-343.16 785.89,-510.11 822.4,-557.33 823.55,-558.82 824.78,-560.23 826.09,-561.56"/>
<polygon fill="#4a90d9" stroke="#4a90d9" stroke-width="2" points="824.61,-563.52 831.48,-566.32 827.86,-559.85 824.61,-563.52"/>
<text text-anchor="middle" x="791.9" y="-291.93" font-family="Times-Roman" font-size="8.00" fill="#4a90d9">about</text>
</g>
<!-- L4YAML.YamlValue.brecOn.eq -->
<g id="node22" class="node">
<title>L4YAML.YamlValue.brecOn.eq</title>
<g id="a_node22"><a xlink:href="../../../api/L4YAML/Spec/Types.html#L4YAML.YamlValue.brecOn.eq" xlink:title="YamlValue.brecOn.eq\n(Spec.Types)" target="_blank">
<ellipse fill="#d4edda" stroke="#28a745" cx="264.42" cy="-665.33" rx="77.56" ry="21.43"/>
<text text-anchor="middle" x="264.42" y="-668.33" font-family="Helvetica" font-size="10.00">YamlValue.brecOn.eq</text>
<text text-anchor="middle" x="264.42" y="-657.33" font-family="Helvetica" font-size="10.00">(Spec.Types)</text>
</a>
</g>
</g>
<!-- L4YAML.YamlValue.brecOn.eq&#45;&gt;L4YAML.YamlValue.below_1 -->
<g id="edge17" class="edge">
<title>L4YAML.YamlValue.brecOn.eq&#45;&gt;L4YAML.YamlValue.below_1</title>
<path fill="none" stroke="#6f42c1" stroke-width="2" stroke-dasharray="5,2" d="M340.13,-670.38C418.52,-675.67 539.91,-683.87 610.02,-688.61"/>
<polygon fill="#6f42c1" stroke="#6f42c1" stroke-width="2" points="610.29,-690.38 615.39,-688.97 610.52,-686.89 610.29,-690.38"/>
<text text-anchor="middle" x="541.83" y="-686.73" font-family="Times-Roman" font-size="7.00" fill="#6f42c1">about</text>
</g>
<!-- L4YAML.YamlValue.brecOn.eq&#45;&gt;L4YAML.YamlValue.below_3 -->
<g id="edge13" class="edge">
<title>L4YAML.YamlValue.brecOn.eq&#45;&gt;L4YAML.YamlValue.below_3</title>
<path fill="none" stroke="#6f42c1" stroke-width="2" stroke-dasharray="5,2" d="M340.13,-660.29C418.52,-654.99 539.91,-646.79 610.02,-642.05"/>
<polygon fill="#6f42c1" stroke="#6f42c1" stroke-width="2" points="610.52,-643.77 615.39,-641.69 610.29,-640.28 610.52,-643.77"/>
<text text-anchor="middle" x="541.83" y="-648.73" font-family="Times-Roman" font-size="7.00" fill="#6f42c1">about</text>
</g>
<!-- L4YAML.YamlValue.brecOn.eq&#45;&gt;L4YAML.YamlValue.brecOn.go -->
<g id="edge14" class="edge">
<title>L4YAML.YamlValue.brecOn.eq&#45;&gt;L4YAML.YamlValue.brecOn.go</title>
<path fill="none" stroke="#6f42c1" stroke-width="2" stroke-dasharray="5,2" d="M327.43,-652.76C403.34,-637.38 530.98,-611.51 605.69,-596.37"/>
<polygon fill="#6f42c1" stroke="#6f42c1" stroke-width="2" points="606.43,-598.01 610.98,-595.3 605.73,-594.58 606.43,-598.01"/>
<text text-anchor="middle" x="541.83" y="-612.73" font-family="Times-Roman" font-size="7.00" fill="#6f42c1">about</text>
</g>
<!-- L4YAML.YamlValue.brecOn.eq&#45;&gt;L4YAML.YamlValue.below_4 -->
<g id="edge11" class="edge">
<title>L4YAML.YamlValue.brecOn.eq&#45;&gt;L4YAML.YamlValue.below_4</title>
<path fill="none" stroke="#6f42c1" stroke-width="2" stroke-dasharray="5,2" d="M309.33,-647.97C366.99,-625.51 471.61,-585.87 562.83,-557.33 578.11,-552.55 594.84,-547.9 610.26,-543.84"/>
<polygon fill="#6f42c1" stroke="#6f42c1" stroke-width="2" points="611.04,-545.44 615.43,-542.48 610.15,-542.06 611.04,-545.44"/>
<text text-anchor="middle" x="541.83" y="-566.73" font-family="Times-Roman" font-size="7.00" fill="#6f42c1">about</text>
</g>
<!-- L4YAML.YamlValue.brecOn.eq&#45;&gt;L4YAML.YamlValue.below -->
<g id="edge12" class="edge">
<title>L4YAML.YamlValue.brecOn.eq&#45;&gt;L4YAML.YamlValue.below</title>
<path fill="none" stroke="#6f42c1" stroke-width="2" stroke-dasharray="5,2" d="M287.43,-685.87C334.36,-728.58 449.26,-827.43 562.83,-881.33 579.22,-889.11 598.19,-894.91 615.31,-899.09"/>
<polygon fill="#6f42c1" stroke="#6f42c1" stroke-width="2" points="615.29,-900.88 620.56,-900.34 616.1,-897.48 615.29,-900.88"/>
<text text-anchor="middle" x="541.83" y="-874.73" font-family="Times-Roman" font-size="7.00" fill="#6f42c1">about</text>
</g>
<!-- L4YAML.YamlValue.brecOn.eq&#45;&gt;L4YAML.YamlValue.below_2 -->
<g id="edge16" class="edge">
<title>L4YAML.YamlValue.brecOn.eq&#45;&gt;L4YAML.YamlValue.below_2</title>
<path fill="none" stroke="#6f42c1" stroke-width="2" stroke-dasharray="5,2" d="M295.48,-684.91C347.86,-718.27 460.11,-786.49 562.83,-827.33 577.86,-833.31 594.65,-838.36 610.21,-842.43"/>
<polygon fill="#6f42c1" stroke="#6f42c1" stroke-width="2" points="610.16,-844.22 615.44,-843.77 611.03,-840.83 610.16,-844.22"/>
<text text-anchor="middle" x="541.83" y="-822.73" font-family="Times-Roman" font-size="7.00" fill="#6f42c1">about</text>
</g>
<!-- L4YAML.YamlValue.brecOn.eq&#45;&gt;L4YAML.YamlValue -->
<g id="edge19" class="edge">
<title>L4YAML.YamlValue.brecOn.eq&#45;&gt;L4YAML.YamlValue</title>
<path fill="none" stroke="#6f42c1" stroke-width="2" stroke-dasharray="5,2" d="M289.75,-645.05C345.97,-596.73 485.2,-468.44 552.83,-329.33 562.74,-308.95 545.31,-293.7 562.83,-279.33 598.33,-250.23 735.05,-248.88 769.4,-279.33 783.3,-291.66 774.1,-344.53 779.4,-362.33 791.71,-403.67 789.88,-421 822.4,-449.33 835.15,-460.44 852.63,-467.01 868.08,-470.88"/>
<polygon fill="#6f42c1" stroke="#6f42c1" stroke-width="2" points="867.97,-472.65 873.24,-472.09 868.77,-469.25 867.97,-472.65"/>
<text text-anchor="middle" x="666.12" y="-281.73" font-family="Times-Roman" font-size="7.00" fill="#6f42c1">about</text>
</g>
<!-- L4YAML.YamlValue.brecOn.eq&#45;&gt;L4YAML.YamlValue.below_5 -->
<g id="edge15" class="edge">
<title>L4YAML.YamlValue.brecOn.eq&#45;&gt;L4YAML.YamlValue.below_5</title>
<path fill="none" stroke="#6f42c1" stroke-width="2" stroke-dasharray="5,2" d="M309.33,-682.69C366.99,-705.16 471.61,-744.79 562.83,-773.33 578.11,-778.11 594.84,-782.77 610.26,-786.83"/>
<polygon fill="#6f42c1" stroke="#6f42c1" stroke-width="2" points="610.15,-788.61 615.43,-788.18 611.04,-785.22 610.15,-788.61"/>
<text text-anchor="middle" x="541.83" y="-769.73" font-family="Times-Roman" font-size="7.00" fill="#6f42c1">about</text>
</g>
<!-- L4YAML.YamlValue.brecOn.eq&#45;&gt;L4YAML.YamlValue.brecOn -->
<g id="edge18" class="edge">
<title>L4YAML.YamlValue.brecOn.eq&#45;&gt;L4YAML.YamlValue.brecOn</title>
<path fill="none" stroke="#6f42c1" stroke-width="2" stroke-dasharray="5,2" d="M327.43,-677.9C405.59,-693.74 538.59,-720.69 612.19,-735.61"/>
<polygon fill="#6f42c1" stroke="#6f42c1" stroke-width="2" points="612.14,-737.38 617.38,-736.66 612.83,-733.95 612.14,-737.38"/>
<text text-anchor="middle" x="541.83" y="-724.73" font-family="Times-Roman" font-size="7.00" fill="#6f42c1">about</text>
</g>
<!-- L4YAML.YamlValue.brecOn.eq&#45;&gt;L4YAML.Emit.contentEq.eq_def -->
<g id="edge9" class="edge">
<title>L4YAML.YamlValue.brecOn.eq&#45;&gt;L4YAML.Emit.contentEq.eq_def</title>
<path fill="none" stroke="#28a745" d="M277.32,-644.31C327.56,-555.64 520.21,-216.36 530.83,-209.33 540.82,-202.72 552.16,-198.06 563.92,-194.85"/>
<polygon fill="#28a745" stroke="#28a745" points="564.67,-197.19 570.88,-193.12 563.49,-192.43 564.67,-197.19"/>
</g>
<!-- _private.L4YAML.Proofs.Output.EmitterScannability.0.L4YAML.Emit.contentEq.match_1.eq_5 -->
<g id="node23" class="node">
<title>_private.L4YAML.Proofs.Output.EmitterScannability.0.L4YAML.Emit.contentEq.match_1.eq_5</title>
<g id="a_node23"><a xlink:href="../../../api/L4YAML/Proofs/Output/EmitterScannability.html#_private.L4YAML.Proofs.Output.EmitterScannability.0.L4YAML.Emit.contentEq.match_1.eq_5" xlink:title="_private.L4YAML.Proofs.Output.EmitterScannability.0.L4YAML.Emit.contentEq.match_1.eq_5" target="_blank">
<ellipse fill="#fdebd0" stroke="#e67e22" cx="264.42" cy="-169.33" rx="248.33" ry="18"/>
<text text-anchor="middle" x="264.42" y="-166.83" font-family="Helvetica" font-size="10.00">_private.L4YAML.Proofs.Output.EmitterScannability.0.L4YAML.Emit.contentEq.match_1.eq_5</text>
</a>
</g>
</g>
<!-- _private.L4YAML.Proofs.Output.EmitterScannability.0.L4YAML.Emit.contentEq.match_1.eq_5&#45;&gt;L4YAML.Emit.contentEq.match_1 -->
<g id="edge25" class="edge">
<title>_private.L4YAML.Proofs.Output.EmitterScannability.0.L4YAML.Emit.contentEq.match_1.eq_5&#45;&gt;L4YAML.Emit.contentEq.match_1</title>
<path fill="none" stroke="#6f42c1" stroke-width="2" stroke-dasharray="5,2" d="M298.81,-151.41C380.59,-109.94 596.81,-15.02 769.4,-70.33 787.6,-76.17 795.04,-78.67 804.4,-95.33 831.24,-143.12 788.75,-298.07 822.4,-341.33 826.53,-346.65 831.75,-350.93 837.54,-354.37"/>
<polygon fill="#6f42c1" stroke="#6f42c1" stroke-width="2" points="836.83,-355.98 842.06,-356.84 838.51,-352.91 836.83,-355.98"/>
<text text-anchor="middle" x="666.12" y="-72.73" font-family="Times-Roman" font-size="7.00" fill="#6f42c1">about</text>
</g>
<!-- _private.L4YAML.Proofs.Output.EmitterScannability.0.L4YAML.Emit.contentEq.match_1.eq_5&#45;&gt;L4YAML.CollectionStyle -->
<g id="edge23" class="edge">
<title>_private.L4YAML.Proofs.Output.EmitterScannability.0.L4YAML.Emit.contentEq.match_1.eq_5&#45;&gt;L4YAML.CollectionStyle</title>
<path fill="none" stroke="#6f42c1" stroke-width="2" stroke-dasharray="5,2" d="M306.39,-151.5C395.05,-115.7 609.59,-44.26 769.4,-114.33 790.43,-123.55 795.27,-131.27 804.4,-152.33 825.94,-202.01 789.14,-352.61 822.4,-395.33 831,-406.37 844.27,-412.94 857.6,-416.84"/>
<polygon fill="#6f42c1" stroke="#6f42c1" stroke-width="2" points="857.22,-418.55 862.5,-418.16 858.13,-415.17 857.22,-418.55"/>
<text text-anchor="middle" x="666.12" y="-116.73" font-family="Times-Roman" font-size="7.00" fill="#6f42c1">about</text>
</g>
<!-- _private.L4YAML.Proofs.Output.EmitterScannability.0.L4YAML.Emit.contentEq.match_1.eq_5&#45;&gt;L4YAML.YamlValue.scalar -->
<g id="edge20" class="edge">
<title>_private.L4YAML.Proofs.Output.EmitterScannability.0.L4YAML.Emit.contentEq.match_1.eq_5&#45;&gt;L4YAML.YamlValue.scalar</title>
<path fill="none" stroke="#6f42c1" stroke-width="2" stroke-dasharray="5,2" d="M466.81,-179.85C498.99,-189.81 529.36,-205.41 552.83,-229.33 569.62,-246.45 546.9,-264.42 562.83,-282.33 576,-297.14 595.91,-305.16 614.68,-309.48"/>
<polygon fill="#6f42c1" stroke="#6f42c1" stroke-width="2" points="614.68,-311.27 619.93,-310.61 615.41,-307.85 614.68,-311.27"/>
<text text-anchor="middle" x="541.83" y="-231.73" font-family="Times-Roman" font-size="7.00" fill="#6f42c1">about</text>
</g>
<!-- _private.L4YAML.Proofs.Output.EmitterScannability.0.L4YAML.Emit.contentEq.match_1.eq_5&#45;&gt;L4YAML.Scalar -->
<g id="edge26" class="edge">
<title>_private.L4YAML.Proofs.Output.EmitterScannability.0.L4YAML.Emit.contentEq.match_1.eq_5&#45;&gt;L4YAML.Scalar</title>
<path fill="none" stroke="#6f42c1" stroke-width="2" stroke-dasharray="5,2" d="M289.98,-151.17C338.85,-116.32 453.05,-41.25 562.83,-15.33 652.18,5.76 679.69,4.2 769.4,-15.33 885.9,-40.7 901.46,-224.98 903.27,-290.93"/>
<polygon fill="#6f42c1" stroke="#6f42c1" stroke-width="2" points="901.53,-291.25 903.39,-296.21 905.03,-291.17 901.53,-291.25"/>
<text text-anchor="middle" x="666.12" y="-17.73" font-family="Times-Roman" font-size="7.00" fill="#6f42c1">about</text>
</g>
<!-- _private.L4YAML.Proofs.Output.EmitterScannability.0.L4YAML.Emit.contentEq.match_1.eq_5&#45;&gt;L4YAML.YamlValue.mapping -->
<g id="edge21" class="edge">
<title>_private.L4YAML.Proofs.Output.EmitterScannability.0.L4YAML.Emit.contentEq.match_1.eq_5&#45;&gt;L4YAML.YamlValue.mapping</title>
<path fill="none" stroke="#6f42c1" stroke-width="2" stroke-dasharray="5,2" d="M279.26,-187.62C318.12,-237.65 433.86,-377.75 562.83,-449.33 577.31,-457.37 594.28,-463.09 610.19,-467.14"/>
<polygon fill="#6f42c1" stroke="#6f42c1" stroke-width="2" points="609.82,-468.85 615.09,-468.34 610.65,-465.45 609.82,-468.85"/>
<text text-anchor="middle" x="541.83" y="-439.73" font-family="Times-Roman" font-size="7.00" fill="#6f42c1">about</text>
</g>
<!-- _private.L4YAML.Proofs.Output.EmitterScannability.0.L4YAML.Emit.contentEq.match_1.eq_5&#45;&gt;L4YAML.YamlValue -->
<g id="edge27" class="edge">
<title>_private.L4YAML.Proofs.Output.EmitterScannability.0.L4YAML.Emit.contentEq.match_1.eq_5&#45;&gt;L4YAML.YamlValue</title>
<path fill="none" stroke="#6f42c1" stroke-width="2" stroke-dasharray="5,2" d="M336.64,-152.09C436.07,-131.25 620.95,-104.32 769.4,-150.33 787.42,-155.92 795.07,-157.94 804.4,-174.33 834.7,-227.55 784.99,-400.85 822.4,-449.33 833.23,-463.37 851.63,-470.18 868.15,-473.46"/>
<polygon fill="#6f42c1" stroke="#6f42c1" stroke-width="2" points="867.98,-475.21 873.21,-474.37 868.6,-471.76 867.98,-475.21"/>
<text text-anchor="middle" x="666.12" y="-152.73" font-family="Times-Roman" font-size="7.00" fill="#6f42c1">about</text>
</g>
<!-- _private.L4YAML.Proofs.Output.EmitterScannability.0.L4YAML.Emit.contentEq.match_1.eq_5&#45;&gt;L4YAML.YamlValue.sequence -->
<g id="edge22" class="edge">
<title>_private.L4YAML.Proofs.Output.EmitterScannability.0.L4YAML.Emit.contentEq.match_1.eq_5&#45;&gt;L4YAML.YamlValue.sequence</title>
<path fill="none" stroke="#6f42c1" stroke-width="2" stroke-dasharray="5,2" d="M325.43,-186.86C401.13,-210.24 524.83,-253.13 552.83,-291.33 566.56,-310.06 547.8,-377.64 562.83,-395.33 573.99,-408.46 590.7,-415.59 607.4,-419.36"/>
<polygon fill="#6f42c1" stroke="#6f42c1" stroke-width="2" points="607.32,-421.13 612.57,-420.43 608.03,-417.7 607.32,-421.13"/>
<text text-anchor="middle" x="541.83" y="-293.73" font-family="Times-Roman" font-size="7.00" fill="#6f42c1">about</text>
</g>
<!-- _private.L4YAML.Proofs.Output.EmitterScannability.0.L4YAML.Emit.contentEq.match_1.eq_5&#45;&gt;L4YAML.YamlValue.alias -->
<g id="edge24" class="edge">
<title>_private.L4YAML.Proofs.Output.EmitterScannability.0.L4YAML.Emit.contentEq.match_1.eq_5&#45;&gt;L4YAML.YamlValue.alias</title>
<path fill="none" stroke="#6f42c1" stroke-width="2" stroke-dasharray="5,2" d="M414.51,-183.75C465.63,-196.27 518.54,-219.08 552.83,-260.33 576.02,-288.23 538.97,-314.01 562.83,-341.33 576.53,-357.02 598.16,-364.11 618.01,-367.14"/>
<polygon fill="#6f42c1" stroke="#6f42c1" stroke-width="2" points="617.82,-368.88 623.01,-367.82 618.29,-365.41 617.82,-368.88"/>
<text text-anchor="middle" x="541.83" y="-262.73" font-family="Times-Roman" font-size="7.00" fill="#6f42c1">about</text>
</g>
<!-- _private.L4YAML.Proofs.Output.EmitterScannability.0.L4YAML.Emit.contentEq.match_1.eq_5&#45;&gt;L4YAML.Emit.contentEq.eq_def -->
<g id="edge10" class="edge">
<title>_private.L4YAML.Proofs.Output.EmitterScannability.0.L4YAML.Emit.contentEq.match_1.eq_5&#45;&gt;L4YAML.Emit.contentEq.eq_def</title>
<path fill="none" stroke="#e67e22" stroke-width="2" d="M475.8,-178.82C501.75,-180.21 527.9,-181.73 552.83,-183.33 556.4,-183.56 560.03,-183.8 563.7,-184.06"/>
<polygon fill="#e67e22" stroke="#e67e22" stroke-width="2" points="563.63,-186.51 570.78,-184.56 563.97,-181.62 563.63,-186.51"/>
</g>
</g>
</svg>
