<?xml version="1.0" encoding="UTF-8" standalone="no"?>
<!DOCTYPE svg PUBLIC "-//W3C//DTD SVG 1.1//EN"
 "http://www.w3.org/Graphics/SVG/1.1/DTD/svg11.dtd">
<!-- Generated by graphviz version 2.44.0 (0)
 -->
<!-- Title: StreamAccum.absorb_stacks Pages: 1 -->
<svg width="470pt" height="310pt"
 viewBox="0.00 0.00 470.21 310.00" xmlns="http://www.w3.org/2000/svg" xmlns:xlink="http://www.w3.org/1999/xlink">
<g id="graph0" class="graph" transform="scale(1 1) rotate(0) translate(4 306)">
<title>StreamAccum.absorb_stacks</title>
<polygon fill="white" stroke="transparent" points="-4,4 -4,-306 466.21,-306 466.21,4 -4,4"/>
<text text-anchor="middle" x="231.1" y="-287.6" font-family="Helvetica Bold" font-size="13.00">StreamAccum.absorb_stacks</text>
<text text-anchor="middle" x="231.1" y="-273.6" font-family="Helvetica Bold" font-size="13.00">(heuristic: used by 5 proofs)</text>
<text text-anchor="middle" x="231.1" y="-259.6" font-family="Helvetica Bold" font-size="13.00">(L4YAML.Proofs.Production.StreamAccum)</text>
<g id="clust1" class="cluster">
<title>cluster_functions</title>
<polygon fill="none" stroke="#4a90d9" stroke-dasharray="5,2" points="306.21,-8 306.21,-244 454.21,-244 454.21,-8 306.21,-8"/>
<text text-anchor="middle" x="380.21" y="-229.6" font-family="Helvetica Bold" font-size="13.00" fill="#4a90d9">Functions</text>
</g>
<g id="clust2" class="cluster">
<title>cluster_key</title>
<polygon fill="none" stroke="#d4a017" stroke-dasharray="5,2" points="8,-84 8,-166 261.21,-166 261.21,-84 8,-84"/>
<text text-anchor="middle" x="134.6" y="-151.6" font-family="Helvetica Bold" font-size="13.00" fill="#d4a017">Key Theorem</text>
</g>
<!-- L4YAML.Proofs.StreamAccum.BlockStack -->
<g id="node1" class="node">
<title>L4YAML.Proofs.StreamAccum.BlockStack</title>
<g id="a_node1"><a xlink:href="../../../api/L4YAML/Proofs/Production/StreamAccum.html#L4YAML.Proofs.StreamAccum.BlockStack" xlink:title="StreamAccum.BlockStack\n(inductive)" target="_blank">
<polygon fill="#dce9f7" stroke="#4a90d9" points="446.21,-214 314.21,-214 314.21,-178 446.21,-178 446.21,-214"/>
<text text-anchor="middle" x="380.21" y="-199" font-family="Helvetica" font-size="10.00">StreamAccum.BlockStack</text>
<text text-anchor="middle" x="380.21" y="-188" font-family="Helvetica" font-size="10.00">(inductive)</text>
</a>
</g>
</g>
<!-- L4YAML.Proofs.StreamAccum.FlowStack -->
<g id="node2" class="node">
<title>L4YAML.Proofs.StreamAccum.FlowStack</title>
<g id="a_node2"><a xlink:href="../../../api/L4YAML/Proofs/Production/StreamAccum.html#L4YAML.Proofs.StreamAccum.FlowStack" xlink:title="StreamAccum.FlowStack\n(inductive)" target="_blank">
<polygon fill="#dce9f7" stroke="#4a90d9" points="444.21,-160 316.21,-160 316.21,-124 444.21,-124 444.21,-160"/>
<text text-anchor="middle" x="380.21" y="-145" font-family="Helvetica" font-size="10.00">StreamAccum.FlowStack</text>
<text text-anchor="middle" x="380.21" y="-134" font-family="Helvetica" font-size="10.00">(inductive)</text>
</a>
</g>
</g>
<!-- L4YAML.Surface.SurfPos -->
<g id="node3" class="node">
<title>L4YAML.Surface.SurfPos</title>
<g id="a_node3"><a xlink:href="../../../api/L4YAML/Surface/Combinators.html#L4YAML.Surface.SurfPos" xlink:title="Surface.SurfPos\n(inductive)" target="_blank">
<polygon fill="#dce9f7" stroke="#4a90d9" points="425.21,-106 335.21,-106 335.21,-70 425.21,-70 425.21,-106"/>
<text text-anchor="middle" x="380.21" y="-91" font-family="Helvetica" font-size="10.00">Surface.SurfPos</text>
<text text-anchor="middle" x="380.21" y="-80" font-family="Helvetica" font-size="10.00">(inductive)</text>
</a>
</g>
</g>
<!-- L4YAML.Surface.SLYamlStream -->
<g id="node4" class="node">
<title>L4YAML.Surface.SLYamlStream</title>
<g id="a_node4"><a xlink:href="../../../api/L4YAML/Surface/Document.html#L4YAML.Surface.SLYamlStream" xlink:title="Surface.SLYamlStream\n(inductive)" target="_blank">
<polygon fill="#dce9f7" stroke="#4a90d9" points="439.71,-52 320.71,-52 320.71,-16 439.71,-16 439.71,-52"/>
<text text-anchor="middle" x="380.21" y="-37" font-family="Helvetica" font-size="10.00">Surface.SLYamlStream</text>
<text text-anchor="middle" x="380.21" y="-26" font-family="Helvetica" font-size="10.00">(inductive)</text>
</a>
</g>
</g>
<!-- L4YAML.Proofs.StreamAccum.absorb_stacks -->
<g id="node5" class="node">
<title>L4YAML.Proofs.StreamAccum.absorb_stacks</title>
<g id="a_node5"><a xlink:href="../../../api/L4YAML/Proofs/Production/StreamAccum.html#L4YAML.Proofs.StreamAccum.absorb_stacks" xlink:title="StreamAccum.absorb_stacks" target="_blank">
<polygon fill="#fff3cd" stroke="#d4a017" points="249.31,-106.54 249.31,-121.46 182.12,-132 87.09,-132 19.9,-121.46 19.9,-106.54 87.09,-96 182.12,-96 249.31,-106.54"/>
<polygon fill="none" stroke="#d4a017" points="253.31,-103.12 253.31,-124.88 182.43,-136 86.78,-136 15.9,-124.88 15.9,-103.12 86.78,-92 182.43,-92 253.31,-103.12"/>
<text text-anchor="middle" x="134.6" y="-110.9" font-family="Helvetica" font-size="12.00">StreamAccum.absorb_stacks</text>
</a>
</g>
</g>
<!-- L4YAML.Proofs.StreamAccum.absorb_stacks&#45;&gt;L4YAML.Proofs.StreamAccum.BlockStack -->
<g id="edge1" class="edge">
<title>L4YAML.Proofs.StreamAccum.absorb_stacks&#45;&gt;L4YAML.Proofs.StreamAccum.BlockStack</title>
<path fill="none" stroke="#4a90d9" stroke-width="2" d="M195.2,-134.06C232.72,-146.69 281.02,-162.95 318.72,-175.64"/>
<polygon fill="#4a90d9" stroke="#4a90d9" stroke-width="2" points="318.21,-178.05 325.63,-177.96 319.78,-173.41 318.21,-178.05"/>
<text text-anchor="middle" x="283.71" y="-169.6" font-family="Times-Roman" font-size="8.00" fill="#4a90d9">about</text>
</g>
<!-- L4YAML.Proofs.StreamAccum.absorb_stacks&#45;&gt;L4YAML.Proofs.StreamAccum.FlowStack -->
<g id="edge4" class="edge">
<title>L4YAML.Proofs.StreamAccum.absorb_stacks&#45;&gt;L4YAML.Proofs.StreamAccum.FlowStack</title>
<path fill="none" stroke="#4a90d9" stroke-width="2" d="M243.87,-126.44C265.92,-128.98 288.58,-131.58 308.89,-133.92"/>
<polygon fill="#4a90d9" stroke="#4a90d9" stroke-width="2" points="308.73,-136.37 315.97,-134.73 309.29,-131.5 308.73,-136.37"/>
<text text-anchor="middle" x="283.71" y="-134.6" font-family="Times-Roman" font-size="8.00" fill="#4a90d9">about</text>
</g>
<!-- L4YAML.Proofs.StreamAccum.absorb_stacks&#45;&gt;L4YAML.Surface.SurfPos -->
<g id="edge3" class="edge">
<title>L4YAML.Proofs.StreamAccum.absorb_stacks&#45;&gt;L4YAML.Surface.SurfPos</title>
<path fill="none" stroke="#4a90d9" stroke-width="2" d="M247.07,-102.1C275.34,-99.09 304.36,-95.99 327.97,-93.47"/>
<polygon fill="#4a90d9" stroke="#4a90d9" stroke-width="2" points="328.42,-95.88 335.12,-92.71 327.9,-91.01 328.42,-95.88"/>
<text text-anchor="middle" x="283.71" y="-101.6" font-family="Times-Roman" font-size="8.00" fill="#4a90d9">about</text>
</g>
<!-- L4YAML.Proofs.StreamAccum.absorb_stacks&#45;&gt;L4YAML.Surface.SLYamlStream -->
<g id="edge2" class="edge">
<title>L4YAML.Proofs.StreamAccum.absorb_stacks&#45;&gt;L4YAML.Surface.SLYamlStream</title>
<path fill="none" stroke="#4a90d9" stroke-width="2" d="M196.13,-94.12C233.01,-82.01 280.02,-66.57 317.17,-54.37"/>
<polygon fill="#4a90d9" stroke="#4a90d9" stroke-width="2" points="318.1,-56.65 323.99,-52.13 316.58,-51.99 318.1,-56.65"/>
<text text-anchor="middle" x="283.71" y="-71.6" font-family="Times-Roman" font-size="8.00" fill="#4a90d9">about</text>
</g>
</g>
</svg>
