<?xml version="1.0" encoding="UTF-8" standalone="no"?>
<!DOCTYPE svg PUBLIC "-//W3C//DTD SVG 1.1//EN"
 "http://www.w3.org/Graphics/SVG/1.1/DTD/svg11.dtd">
<!-- Generated by graphviz version 2.44.0 (0)
 -->
<!-- Title: StreamAccum.ssl_comments_extend_stream Pages: 1 -->
<svg width="950pt" height="372pt"
 viewBox="0.00 0.00 950.18 372.00" xmlns="http://www.w3.org/2000/svg" xmlns:xlink="http://www.w3.org/1999/xlink">
<g id="graph0" class="graph" transform="scale(1 1) rotate(0) translate(4 368)">
<title>StreamAccum.ssl_comments_extend_stream</title>
<polygon fill="white" stroke="transparent" points="-4,4 -4,-368 946.18,-368 946.18,4 -4,4"/>
<text text-anchor="middle" x="471.09" y="-349.6" font-family="Helvetica Bold" font-size="13.00">StreamAccum.ssl_comments_extend_stream</text>
<text text-anchor="middle" x="471.09" y="-335.6" font-family="Helvetica Bold" font-size="13.00">(heuristic: used by 5 proofs)</text>
<text text-anchor="middle" x="471.09" y="-321.6" font-family="Helvetica Bold" font-size="13.00">(L4YAML.Proofs.Production.StreamAccum)</text>
<g id="clust1" class="cluster">
<title>cluster_functions</title>
<polygon fill="none" stroke="#4a90d9" stroke-dasharray="5,2" points="507.1,-124 507.1,-306 934.18,-306 934.18,-124 507.1,-124"/>
<text text-anchor="middle" x="720.64" y="-291.6" font-family="Helvetica Bold" font-size="13.00" fill="#4a90d9">Functions</text>
</g>
<g id="clust2" class="cluster">
<title>cluster_key</title>
<polygon fill="none" stroke="#d4a017" stroke-dasharray="5,2" points="387.03,-8 387.03,-90 752.18,-90 752.18,-8 387.03,-8"/>
<text text-anchor="middle" x="569.6" y="-75.6" font-family="Helvetica Bold" font-size="13.00" fill="#d4a017">Key Theorem</text>
</g>
<g id="clust3" class="cluster">
<title>cluster_proofs</title>
<polygon fill="none" stroke="#28a745" stroke-dasharray="5,2" points="8,-131 8,-211 345.03,-211 345.03,-131 8,-131"/>
<text text-anchor="middle" x="176.51" y="-196.6" font-family="Helvetica Bold" font-size="13.00" fill="#28a745">Proof Dependencies</text>
</g>
<!-- L4YAML.Surface.SLComment -->
<g id="node1" class="node">
<title>L4YAML.Surface.SLComment</title>
<g id="a_node1"><a xlink:href="../../../api/L4YAML/Surface/Basic.html#L4YAML.Surface.SLComment" xlink:title="Surface.SLComment\n(inductive)" target="_blank">
<polygon fill="#dce9f7" stroke="#4a90d9" points="624.1,-276 515.1,-276 515.1,-240 624.1,-240 624.1,-276"/>
<text text-anchor="middle" x="569.6" y="-261" font-family="Helvetica" font-size="10.00">Surface.SLComment</text>
<text text-anchor="middle" x="569.6" y="-250" font-family="Helvetica" font-size="10.00">(inductive)</text>
</a>
</g>
</g>
<!-- L4YAML.Surface.SurfPos -->
<g id="node2" class="node">
<title>L4YAML.Surface.SurfPos</title>
<g id="a_node2"><a xlink:href="../../../api/L4YAML/Surface/Combinators.html#L4YAML.Surface.SurfPos" xlink:title="Surface.SurfPos\n(inductive)" target="_blank">
<polygon fill="#dce9f7" stroke="#4a90d9" points="910.68,-276 820.68,-276 820.68,-240 910.68,-240 910.68,-276"/>
<text text-anchor="middle" x="865.68" y="-261" font-family="Helvetica" font-size="10.00">Surface.SurfPos</text>
<text text-anchor="middle" x="865.68" y="-250" font-family="Helvetica" font-size="10.00">(inductive)</text>
</a>
</g>
</g>
<!-- L4YAML.Surface.SLYamlStream -->
<g id="node3" class="node">
<title>L4YAML.Surface.SLYamlStream</title>
<g id="a_node3"><a xlink:href="../../../api/L4YAML/Surface/Document.html#L4YAML.Surface.SLYamlStream" xlink:title="Surface.SLYamlStream\n(inductive)" target="_blank">
<polygon fill="#dce9f7" stroke="#4a90d9" points="925.18,-168 806.18,-168 806.18,-132 925.18,-132 925.18,-168"/>
<text text-anchor="middle" x="865.68" y="-153" font-family="Helvetica" font-size="10.00">Surface.SLYamlStream</text>
<text text-anchor="middle" x="865.68" y="-142" font-family="Helvetica" font-size="10.00">(inductive)</text>
</a>
</g>
</g>
<!-- L4YAML.Surface.GStar -->
<g id="node4" class="node">
<title>L4YAML.Surface.GStar</title>
<g id="a_node4"><a xlink:href="../../../api/L4YAML/Surface/Combinators.html#L4YAML.Surface.GStar" xlink:title="Surface.GStar\n(inductive)" target="_blank">
<polygon fill="#dce9f7" stroke="#4a90d9" points="609.6,-222 529.6,-222 529.6,-186 609.6,-186 609.6,-222"/>
<text text-anchor="middle" x="569.6" y="-207" font-family="Helvetica" font-size="10.00">Surface.GStar</text>
<text text-anchor="middle" x="569.6" y="-196" font-family="Helvetica" font-size="10.00">(inductive)</text>
</a>
</g>
</g>
<!-- L4YAML.Surface.SSLComments -->
<g id="node5" class="node">
<title>L4YAML.Surface.SSLComments</title>
<g id="a_node5"><a xlink:href="../../../api/L4YAML/Surface/Basic.html#L4YAML.Surface.SSLComments" xlink:title="Surface.SSLComments\n(inductive)" target="_blank">
<polygon fill="#dce9f7" stroke="#4a90d9" points="926.18,-222 805.18,-222 805.18,-186 926.18,-186 926.18,-222"/>
<text text-anchor="middle" x="865.68" y="-207" font-family="Helvetica" font-size="10.00">Surface.SSLComments</text>
<text text-anchor="middle" x="865.68" y="-196" font-family="Helvetica" font-size="10.00">(inductive)</text>
</a>
</g>
</g>
<!-- L4YAML.Proofs.StreamAccum.ssl_comments_extend_stream -->
<g id="node6" class="node">
<title>L4YAML.Proofs.StreamAccum.ssl_comments_extend_stream</title>
<g id="a_node6"><a xlink:href="../../../api/L4YAML/Proofs/Production/StreamAccum.html#L4YAML.Proofs.StreamAccum.ssl_comments_extend_stream" xlink:title="StreamAccum.ssl_comments_extend_stream" target="_blank">
<polygon fill="#fff3cd" stroke="#d4a017" points="740.25,-30.54 740.25,-45.46 640.29,-56 498.92,-56 398.95,-45.46 398.95,-30.54 498.92,-20 640.29,-20 740.25,-30.54"/>
<polygon fill="none" stroke="#d4a017" points="744.25,-26.94 744.25,-49.06 640.5,-60 498.71,-60 394.95,-49.06 394.95,-26.94 498.71,-16 640.5,-16 744.25,-26.94"/>
<text text-anchor="middle" x="569.6" y="-34.9" font-family="Helvetica" font-size="12.00">StreamAccum.ssl_comments_extend_stream</text>
</a>
</g>
</g>
<!-- L4YAML.Proofs.StreamAccum.ssl_comments_extend_stream&#45;&gt;L4YAML.Surface.SurfPos -->
<g id="edge2" class="edge">
<title>L4YAML.Proofs.StreamAccum.ssl_comments_extend_stream&#45;&gt;L4YAML.Surface.SurfPos</title>
<path fill="none" stroke="#4a90d9" stroke-width="2" d="M669.11,-57.02C697.48,-65.42 727.42,-77.31 752.18,-94 772.6,-107.78 776.76,-114.67 787.18,-137 805.15,-175.55 778.86,-197.58 805.18,-231 807.83,-234.37 810.99,-237.33 814.46,-239.93"/>
<polygon fill="#4a90d9" stroke="#4a90d9" stroke-width="2" points="813.37,-242.15 820.56,-243.98 816.08,-238.07 813.37,-242.15"/>
<text text-anchor="middle" x="774.68" y="-139.6" font-family="Times-Roman" font-size="8.00" fill="#4a90d9">about</text>
</g>
<!-- L4YAML.Proofs.StreamAccum.ssl_comments_extend_stream&#45;&gt;L4YAML.Surface.SLYamlStream -->
<g id="edge1" class="edge">
<title>L4YAML.Proofs.StreamAccum.ssl_comments_extend_stream&#45;&gt;L4YAML.Surface.SLYamlStream</title>
<path fill="none" stroke="#4a90d9" stroke-width="2" d="M645.41,-16.49C689.29,-8.2 744.34,-5.57 787.18,-29 824.46,-49.39 846.44,-96.22 856.97,-125.28"/>
<polygon fill="#4a90d9" stroke="#4a90d9" stroke-width="2" points="854.67,-126.1 859.29,-131.9 859.29,-124.48 854.67,-126.1"/>
<text text-anchor="middle" x="774.68" y="-31.6" font-family="Times-Roman" font-size="8.00" fill="#4a90d9">about</text>
</g>
<!-- L4YAML.Proofs.StreamAccum.ssl_comments_extend_stream&#45;&gt;L4YAML.Surface.SSLComments -->
<g id="edge3" class="edge">
<title>L4YAML.Proofs.StreamAccum.ssl_comments_extend_stream&#45;&gt;L4YAML.Surface.SSLComments</title>
<path fill="none" stroke="#4a90d9" stroke-width="2" d="M744.35,-35.19C760.18,-40.94 774.86,-49.26 787.18,-61 824.94,-96.99 773.63,-135.45 805.18,-177 806.29,-178.46 807.49,-179.85 808.78,-181.16"/>
<polygon fill="#4a90d9" stroke="#4a90d9" stroke-width="2" points="807.25,-183.07 814.12,-185.87 810.49,-179.4 807.25,-183.07"/>
<text text-anchor="middle" x="774.68" y="-63.6" font-family="Times-Roman" font-size="8.00" fill="#4a90d9">about</text>
</g>
<!-- L4YAML.Proofs.PreprocessProduction.SSLComments_to_GStar -->
<g id="node7" class="node">
<title>L4YAML.Proofs.PreprocessProduction.SSLComments_to_GStar</title>
<g id="a_node7"><a xlink:href="../../../api/L4YAML/Proofs/Production/PreprocessProduction.html#L4YAML.Proofs.PreprocessProduction.SSLComments_to_GStar" xlink:title="PreprocessProduction.SSLComments_to_GStar\n(Production.PreprocessProduction)" target="_blank">
<ellipse fill="#d4edda" stroke="#28a745" cx="176.51" cy="-160" rx="160.53" ry="21.43"/>
<text text-anchor="middle" x="176.51" y="-163" font-family="Helvetica" font-size="10.00">PreprocessProduction.SSLComments_to_GStar</text>
<text text-anchor="middle" x="176.51" y="-152" font-family="Helvetica" font-size="10.00">(Production.PreprocessProduction)</text>
</a>
</g>
</g>
<!-- L4YAML.Proofs.PreprocessProduction.SSLComments_to_GStar&#45;&gt;L4YAML.Surface.SLComment -->
<g id="edge5" class="edge">
<title>L4YAML.Proofs.PreprocessProduction.SSLComments_to_GStar&#45;&gt;L4YAML.Surface.SLComment</title>
<path fill="none" stroke="#6f42c1" stroke-width="2" stroke-dasharray="5,2" d="M228.42,-180.12C270.38,-196 331.78,-217.64 387.03,-231 427.48,-240.78 473.9,-247.61 509.68,-251.95"/>
<polygon fill="#6f42c1" stroke="#6f42c1" stroke-width="2" points="509.71,-253.71 514.88,-252.57 510.13,-250.24 509.71,-253.71"/>
<text text-anchor="middle" x="366.03" y="-230.4" font-family="Times-Roman" font-size="7.00" fill="#6f42c1">about</text>
</g>
<!-- L4YAML.Proofs.PreprocessProduction.SSLComments_to_GStar&#45;&gt;L4YAML.Surface.SurfPos -->
<g id="edge6" class="edge">
<title>L4YAML.Proofs.PreprocessProduction.SSLComments_to_GStar&#45;&gt;L4YAML.Surface.SurfPos</title>
<path fill="none" stroke="#6f42c1" stroke-width="2" stroke-dasharray="5,2" d="M315.49,-149.32C460.49,-140.36 677.68,-133.97 752.18,-169 784.98,-184.43 776.2,-209.21 805.18,-231 808.56,-233.55 812.23,-235.93 816.02,-238.13"/>
<polygon fill="#6f42c1" stroke="#6f42c1" stroke-width="2" points="815.31,-239.74 820.52,-240.64 817.01,-236.68 815.31,-239.74"/>
<text text-anchor="middle" x="569.6" y="-171.4" font-family="Times-Roman" font-size="7.00" fill="#6f42c1">about</text>
</g>
<!-- L4YAML.Proofs.PreprocessProduction.SSLComments_to_GStar&#45;&gt;L4YAML.Surface.GStar -->
<g id="edge7" class="edge">
<title>L4YAML.Proofs.PreprocessProduction.SSLComments_to_GStar&#45;&gt;L4YAML.Surface.GStar</title>
<path fill="none" stroke="#6f42c1" stroke-width="2" stroke-dasharray="5,2" d="M299.38,-173.71C375.82,-182.31 469.86,-192.89 524.15,-199"/>
<polygon fill="#6f42c1" stroke="#6f42c1" stroke-width="2" points="524.11,-200.76 529.28,-199.58 524.5,-197.28 524.11,-200.76"/>
<text text-anchor="middle" x="366.03" y="-184.4" font-family="Times-Roman" font-size="7.00" fill="#6f42c1">about</text>
</g>
<!-- L4YAML.Proofs.PreprocessProduction.SSLComments_to_GStar&#45;&gt;L4YAML.Surface.SSLComments -->
<g id="edge8" class="edge">
<title>L4YAML.Proofs.PreprocessProduction.SSLComments_to_GStar&#45;&gt;L4YAML.Surface.SSLComments</title>
<path fill="none" stroke="#6f42c1" stroke-width="2" stroke-dasharray="5,2" d="M261.43,-141.9C374.36,-120.64 580.86,-92.7 752.18,-130 768.89,-133.64 774.51,-134.51 787.18,-146 798.98,-156.7 793.36,-166.31 805.18,-177 807.55,-179.15 810.12,-181.15 812.82,-183.01"/>
<polygon fill="#6f42c1" stroke="#6f42c1" stroke-width="2" points="812.01,-184.57 817.16,-185.83 813.92,-181.64 812.01,-184.57"/>
<text text-anchor="middle" x="569.6" y="-132.4" font-family="Times-Roman" font-size="7.00" fill="#6f42c1">about</text>
</g>
<!-- L4YAML.Proofs.PreprocessProduction.SSLComments_to_GStar&#45;&gt;L4YAML.Proofs.StreamAccum.ssl_comments_extend_stream -->
<g id="edge4" class="edge">
<title>L4YAML.Proofs.PreprocessProduction.SSLComments_to_GStar&#45;&gt;L4YAML.Proofs.StreamAccum.ssl_comments_extend_stream</title>
<path fill="none" stroke="#28a745" d="M236.57,-140.3C271.04,-128.9 315.42,-114.4 355.03,-102 398.85,-88.28 447.92,-73.53 487.97,-61.65"/>
<polygon fill="#28a745" stroke="#28a745" points="488.81,-63.96 494.83,-59.62 487.42,-59.26 488.81,-63.96"/>
</g>
</g>
</svg>
