<?xml version="1.0" encoding="UTF-8" standalone="no"?>
<!DOCTYPE svg PUBLIC "-//W3C//DTD SVG 1.1//EN"
 "http://www.w3.org/Graphics/SVG/1.1/DTD/svg11.dtd">
<!-- Generated by graphviz version 2.44.0 (0)
 -->
<!-- Title: chain_Grammar.extractHeaderChars.eq_def Pages: 1 -->
<svg width="382pt" height="98pt"
 viewBox="0.00 0.00 382.00 97.92" xmlns="http://www.w3.org/2000/svg" xmlns:xlink="http://www.w3.org/1999/xlink">
<g id="graph0" class="graph" transform="scale(1 1) rotate(0) translate(4 93.92)">
<title>chain_Grammar.extractHeaderChars.eq_def</title>
<polygon fill="white" stroke="transparent" points="-4,4 -4,-93.92 378,-93.92 378,4 -4,4"/>
<text text-anchor="middle" x="187" y="-75.52" font-family="Helvetica Bold" font-size="13.00">Functorial Chains: Grammar.extractHeaderChars.eq_def</text>
<text text-anchor="middle" x="187" y="-61.52" font-family="Helvetica Bold" font-size="13.00">(heuristic: used by 5 proofs)</text>
<!-- L4YAML.Grammar.extractHeaderChars.eq_def -->
<g id="node1" class="node">
<title>L4YAML.Grammar.extractHeaderChars.eq_def</title>
<polygon fill="#fff3cd" stroke="black" points="325.56,-17.46 325.56,-36.46 244.39,-49.89 129.61,-49.89 48.44,-36.46 48.44,-17.46 129.61,-4.03 244.39,-4.03 325.56,-17.46"/>
<polygon fill="none" stroke="black" points="329.56,-14.08 329.56,-39.84 244.72,-53.88 129.28,-53.88 44.44,-39.84 44.44,-14.08 129.28,-0.04 244.72,-0.04 329.56,-14.08"/>
<text text-anchor="middle" x="187" y="-29.96" font-family="Helvetica" font-size="10.00">Grammar.extractHeaderChars.eq_def</text>
<text text-anchor="middle" x="187" y="-18.96" font-family="Helvetica" font-size="10.00">(no functorial chains found)</text>
</g>
</g>
</svg>
