<?xml version="1.0" encoding="UTF-8" standalone="no"?>
<!DOCTYPE svg PUBLIC "-//W3C//DTD SVG 1.1//EN"
 "http://www.w3.org/Graphics/SVG/1.1/DTD/svg11.dtd">
<!-- Generated by graphviz version 2.44.0 (0)
 -->
<!-- Title: ScannerDocument.with_docStart_flags_preserves_wellFormed Pages: 1 -->
<svg width="734pt" height="1066pt"
 viewBox="0.00 0.00 734.41 1066.00" xmlns="http://www.w3.org/2000/svg" xmlns:xlink="http://www.w3.org/1999/xlink">
<g id="graph0" class="graph" transform="scale(1 1) rotate(0) translate(4 1062)">
<title>ScannerDocument.with_docStart_flags_preserves_wellFormed</title>
<polygon fill="white" stroke="transparent" points="-4,4 -4,-1062 730.41,-1062 730.41,4 -4,4"/>
<text text-anchor="middle" x="363.21" y="-1043.6" font-family="Helvetica Bold" font-size="13.00">ScannerDocument.with_docStart_flags_preserves_wellFormed</text>
<text text-anchor="middle" x="363.21" y="-1029.6" font-family="Helvetica Bold" font-size="13.00">2.9 Document&#45;marker scanners preserve WellFormed (bundle representative)</text>
<text text-anchor="middle" x="363.21" y="-1015.6" font-family="Helvetica Bold" font-size="13.00">(L4YAML.Proofs.Scanner.ScannerDocument)</text>
<g id="clust1" class="cluster">
<title>cluster_functions</title>
<polygon fill="none" stroke="#4a90d9" stroke-dasharray="5,2" points="547.41,-8 547.41,-1000 718.41,-1000 718.41,-8 547.41,-8"/>
<text text-anchor="middle" x="632.91" y="-985.6" font-family="Helvetica Bold" font-size="13.00" fill="#4a90d9">Functions</text>
</g>
<g id="clust2" class="cluster">
<title>cluster_key</title>
<polygon fill="none" stroke="#d4a017" stroke-dasharray="5,2" points="8,-462 8,-544 502.41,-544 502.41,-462 8,-462"/>
<text text-anchor="middle" x="255.21" y="-529.6" font-family="Helvetica Bold" font-size="13.00" fill="#d4a017">Key Theorem</text>
</g>
<!-- L4YAML.Scanner.ScannerState.simpleKey -->
<g id="node1" class="node">
<title>L4YAML.Scanner.ScannerState.simpleKey</title>
<g id="a_node1"><a xlink:href="../../../api/L4YAML/Scanner/State.html#L4YAML.Scanner.ScannerState.simpleKey" xlink:title="ScannerState.simpleKey\n(def)" target="_blank">
<polygon fill="#dce9f7" stroke="#4a90d9" points="694.91,-970 570.91,-970 570.91,-934 694.91,-934 694.91,-970"/>
<text text-anchor="middle" x="632.91" y="-955" font-family="Helvetica" font-size="10.00">ScannerState.simpleKey</text>
<text text-anchor="middle" x="632.91" y="-944" font-family="Helvetica" font-size="10.00">(def)</text>
</a>
</g>
</g>
<!-- L4YAML.Scanner.ScannerState.input -->
<g id="node2" class="node">
<title>L4YAML.Scanner.ScannerState.input</title>
<g id="a_node2"><a xlink:href="../../../api/L4YAML/Scanner/State.html#L4YAML.Scanner.ScannerState.input" xlink:title="ScannerState.input\n(def)" target="_blank">
<polygon fill="#dce9f7" stroke="#4a90d9" points="682.91,-916 582.91,-916 582.91,-880 682.91,-880 682.91,-916"/>
<text text-anchor="middle" x="632.91" y="-901" font-family="Helvetica" font-size="10.00">ScannerState.input</text>
<text text-anchor="middle" x="632.91" y="-890" font-family="Helvetica" font-size="10.00">(def)</text>
</a>
</g>
</g>
<!-- L4YAML.Scanner.ScannerState.line -->
<g id="node3" class="node">
<title>L4YAML.Scanner.ScannerState.line</title>
<g id="a_node3"><a xlink:href="../../../api/L4YAML/Scanner/State.html#L4YAML.Scanner.ScannerState.line" xlink:title="ScannerState.line\n(def)" target="_blank">
<polygon fill="#dce9f7" stroke="#4a90d9" points="679.91,-862 585.91,-862 585.91,-826 679.91,-826 679.91,-862"/>
<text text-anchor="middle" x="632.91" y="-847" font-family="Helvetica" font-size="10.00">ScannerState.line</text>
<text text-anchor="middle" x="632.91" y="-836" font-family="Helvetica" font-size="10.00">(def)</text>
</a>
</g>
</g>
<!-- L4YAML.Scanner.ScannerState.flowLevel -->
<g id="node4" class="node">
<title>L4YAML.Scanner.ScannerState.flowLevel</title>
<g id="a_node4"><a xlink:href="../../../api/L4YAML/Scanner/State.html#L4YAML.Scanner.ScannerState.flowLevel" xlink:title="ScannerState.flowLevel\n(def)" target="_blank">
<polygon fill="#dce9f7" stroke="#4a90d9" points="692.41,-808 573.41,-808 573.41,-772 692.41,-772 692.41,-808"/>
<text text-anchor="middle" x="632.91" y="-793" font-family="Helvetica" font-size="10.00">ScannerState.flowLevel</text>
<text text-anchor="middle" x="632.91" y="-782" font-family="Helvetica" font-size="10.00">(def)</text>
</a>
</g>
</g>
<!-- L4YAML.Scanner.ScannerState.explicitKeyLine -->
<g id="node5" class="node">
<title>L4YAML.Scanner.ScannerState.explicitKeyLine</title>
<g id="a_node5"><a xlink:href="../../../api/L4YAML/Scanner/State.html#L4YAML.Scanner.ScannerState.explicitKeyLine" xlink:title="ScannerState.explicitKeyLine\n(def)" target="_blank">
<polygon fill="#dce9f7" stroke="#4a90d9" points="704.91,-754 560.91,-754 560.91,-718 704.91,-718 704.91,-754"/>
<text text-anchor="middle" x="632.91" y="-739" font-family="Helvetica" font-size="10.00">ScannerState.explicitKeyLine</text>
<text text-anchor="middle" x="632.91" y="-728" font-family="Helvetica" font-size="10.00">(def)</text>
</a>
</g>
</g>
<!-- L4YAML.Scanner.ScannerState.mk -->
<g id="node6" class="node">
<title>L4YAML.Scanner.ScannerState.mk</title>
<g id="a_node6"><a xlink:href="../../../api/L4YAML/Scanner/State.html#L4YAML.Scanner.ScannerState.mk" xlink:title="ScannerState.mk\n(ctor)" target="_blank">
<polygon fill="#dce9f7" stroke="#4a90d9" points="678.91,-700 586.91,-700 586.91,-664 678.91,-664 678.91,-700"/>
<text text-anchor="middle" x="632.91" y="-685" font-family="Helvetica" font-size="10.00">ScannerState.mk</text>
<text text-anchor="middle" x="632.91" y="-674" font-family="Helvetica" font-size="10.00">(ctor)</text>
</a>
</g>
</g>
<!-- L4YAML.Scanner.ScannerState -->
<g id="node7" class="node">
<title>L4YAML.Scanner.ScannerState</title>
<g id="a_node7"><a xlink:href="../../../api/L4YAML/Scanner/State.html#L4YAML.Scanner.ScannerState" xlink:title="ScannerState\n(inductive)" target="_blank">
<polygon fill="#dce9f7" stroke="#4a90d9" points="670.91,-646 594.91,-646 594.91,-610 670.91,-610 670.91,-646"/>
<text text-anchor="middle" x="632.91" y="-631" font-family="Helvetica" font-size="10.00">ScannerState</text>
<text text-anchor="middle" x="632.91" y="-620" font-family="Helvetica" font-size="10.00">(inductive)</text>
</a>
</g>
</g>
<!-- L4YAML.Scanner.ScannerState.indents -->
<g id="node8" class="node">
<title>L4YAML.Scanner.ScannerState.indents</title>
<g id="a_node8"><a xlink:href="../../../api/L4YAML/Scanner/State.html#L4YAML.Scanner.ScannerState.indents" xlink:title="ScannerState.indents\n(def)" target="_blank">
<polygon fill="#dce9f7" stroke="#4a90d9" points="687.91,-592 577.91,-592 577.91,-556 687.91,-556 687.91,-592"/>
<text text-anchor="middle" x="632.91" y="-577" font-family="Helvetica" font-size="10.00">ScannerState.indents</text>
<text text-anchor="middle" x="632.91" y="-566" font-family="Helvetica" font-size="10.00">(def)</text>
</a>
</g>
</g>
<!-- L4YAML.Scanner.ScannerState.needIndentCheck -->
<g id="node9" class="node">
<title>L4YAML.Scanner.ScannerState.needIndentCheck</title>
<g id="a_node9"><a xlink:href="../../../api/L4YAML/Scanner/State.html#L4YAML.Scanner.ScannerState.needIndentCheck" xlink:title="ScannerState.needIndentCheck\n(def)" target="_blank">
<polygon fill="#dce9f7" stroke="#4a90d9" points="710.41,-538 555.41,-538 555.41,-502 710.41,-502 710.41,-538"/>
<text text-anchor="middle" x="632.91" y="-523" font-family="Helvetica" font-size="10.00">ScannerState.needIndentCheck</text>
<text text-anchor="middle" x="632.91" y="-512" font-family="Helvetica" font-size="10.00">(def)</text>
</a>
</g>
</g>
<!-- L4YAML.Scanner.ScannerState.tokens -->
<g id="node10" class="node">
<title>L4YAML.Scanner.ScannerState.tokens</title>
<g id="a_node10"><a xlink:href="../../../api/L4YAML/Scanner/State.html#L4YAML.Scanner.ScannerState.tokens" xlink:title="ScannerState.tokens\n(def)" target="_blank">
<polygon fill="#dce9f7" stroke="#4a90d9" points="686.41,-484 579.41,-484 579.41,-448 686.41,-448 686.41,-484"/>
<text text-anchor="middle" x="632.91" y="-469" font-family="Helvetica" font-size="10.00">ScannerState.tokens</text>
<text text-anchor="middle" x="632.91" y="-458" font-family="Helvetica" font-size="10.00">(def)</text>
</a>
</g>
</g>
<!-- L4YAML.Scanner.ScannerState.definedAnchors -->
<g id="node11" class="node">
<title>L4YAML.Scanner.ScannerState.definedAnchors</title>
<g id="a_node11"><a xlink:href="../../../api/L4YAML/Scanner/State.html#L4YAML.Scanner.ScannerState.definedAnchors" xlink:title="ScannerState.definedAnchors\n(def)" target="_blank">
<polygon fill="#dce9f7" stroke="#4a90d9" points="706.41,-430 559.41,-430 559.41,-394 706.41,-394 706.41,-430"/>
<text text-anchor="middle" x="632.91" y="-415" font-family="Helvetica" font-size="10.00">ScannerState.definedAnchors</text>
<text text-anchor="middle" x="632.91" y="-404" font-family="Helvetica" font-size="10.00">(def)</text>
</a>
</g>
</g>
<!-- L4YAML.Scanner.ScannerState.comments -->
<g id="node12" class="node">
<title>L4YAML.Scanner.ScannerState.comments</title>
<g id="a_node12"><a xlink:href="../../../api/L4YAML/Scanner/State.html#L4YAML.Scanner.ScannerState.comments" xlink:title="ScannerState.comments\n(def)" target="_blank">
<polygon fill="#dce9f7" stroke="#4a90d9" points="695.41,-376 570.41,-376 570.41,-340 695.41,-340 695.41,-376"/>
<text text-anchor="middle" x="632.91" y="-361" font-family="Helvetica" font-size="10.00">ScannerState.comments</text>
<text text-anchor="middle" x="632.91" y="-350" font-family="Helvetica" font-size="10.00">(def)</text>
</a>
</g>
</g>
<!-- L4YAML.Scanner.ScannerState.col -->
<g id="node13" class="node">
<title>L4YAML.Scanner.ScannerState.col</title>
<g id="a_node13"><a xlink:href="../../../api/L4YAML/Scanner/State.html#L4YAML.Scanner.ScannerState.col" xlink:title="ScannerState.col\n(def)" target="_blank">
<polygon fill="#dce9f7" stroke="#4a90d9" points="678.91,-322 586.91,-322 586.91,-286 678.91,-286 678.91,-322"/>
<text text-anchor="middle" x="632.91" y="-307" font-family="Helvetica" font-size="10.00">ScannerState.col</text>
<text text-anchor="middle" x="632.91" y="-296" font-family="Helvetica" font-size="10.00">(def)</text>
</a>
</g>
</g>
<!-- L4YAML.Scanner.ScannerState.simpleKeyStack -->
<g id="node14" class="node">
<title>L4YAML.Scanner.ScannerState.simpleKeyStack</title>
<g id="a_node14"><a xlink:href="../../../api/L4YAML/Scanner/State.html#L4YAML.Scanner.ScannerState.simpleKeyStack" xlink:title="ScannerState.simpleKeyStack\n(def)" target="_blank">
<polygon fill="#dce9f7" stroke="#4a90d9" points="707.41,-268 558.41,-268 558.41,-232 707.41,-232 707.41,-268"/>
<text text-anchor="middle" x="632.91" y="-253" font-family="Helvetica" font-size="10.00">ScannerState.simpleKeyStack</text>
<text text-anchor="middle" x="632.91" y="-242" font-family="Helvetica" font-size="10.00">(def)</text>
</a>
</g>
</g>
<!-- L4YAML.Scanner.ScannerState.offset -->
<g id="node15" class="node">
<title>L4YAML.Scanner.ScannerState.offset</title>
<g id="a_node15"><a xlink:href="../../../api/L4YAML/Scanner/State.html#L4YAML.Scanner.ScannerState.offset" xlink:title="ScannerState.offset\n(def)" target="_blank">
<polygon fill="#dce9f7" stroke="#4a90d9" points="684.41,-214 581.41,-214 581.41,-178 684.41,-178 684.41,-214"/>
<text text-anchor="middle" x="632.91" y="-199" font-family="Helvetica" font-size="10.00">ScannerState.offset</text>
<text text-anchor="middle" x="632.91" y="-188" font-family="Helvetica" font-size="10.00">(def)</text>
</a>
</g>
</g>
<!-- L4YAML.Scanner.ScannerState.flowStack -->
<g id="node16" class="node">
<title>L4YAML.Scanner.ScannerState.flowStack</title>
<g id="a_node16"><a xlink:href="../../../api/L4YAML/Scanner/State.html#L4YAML.Scanner.ScannerState.flowStack" xlink:title="ScannerState.flowStack\n(def)" target="_blank">
<polygon fill="#dce9f7" stroke="#4a90d9" points="693.91,-160 571.91,-160 571.91,-124 693.91,-124 693.91,-160"/>
<text text-anchor="middle" x="632.91" y="-145" font-family="Helvetica" font-size="10.00">ScannerState.flowStack</text>
<text text-anchor="middle" x="632.91" y="-134" font-family="Helvetica" font-size="10.00">(def)</text>
</a>
</g>
</g>
<!-- L4YAML.Scanner.ScannerState.inputEnd -->
<g id="node17" class="node">
<title>L4YAML.Scanner.ScannerState.inputEnd</title>
<g id="a_node17"><a xlink:href="../../../api/L4YAML/Scanner/State.html#L4YAML.Scanner.ScannerState.inputEnd" xlink:title="ScannerState.inputEnd\n(def)" target="_blank">
<polygon fill="#dce9f7" stroke="#4a90d9" points="691.41,-106 574.41,-106 574.41,-70 691.41,-70 691.41,-106"/>
<text text-anchor="middle" x="632.91" y="-91" font-family="Helvetica" font-size="10.00">ScannerState.inputEnd</text>
<text text-anchor="middle" x="632.91" y="-80" font-family="Helvetica" font-size="10.00">(def)</text>
</a>
</g>
</g>
<!-- L4YAML.Scanner.ScannerState.WellFormed -->
<g id="node18" class="node">
<title>L4YAML.Scanner.ScannerState.WellFormed</title>
<g id="a_node18"><a xlink:href="../../../api/L4YAML/Scanner/State.html#L4YAML.Scanner.ScannerState.WellFormed" xlink:title="ScannerState.WellFormed\n(def)" target="_blank">
<polygon fill="#dce9f7" stroke="#4a90d9" points="698.41,-52 567.41,-52 567.41,-16 698.41,-16 698.41,-52"/>
<text text-anchor="middle" x="632.91" y="-37" font-family="Helvetica" font-size="10.00">ScannerState.WellFormed</text>
<text text-anchor="middle" x="632.91" y="-26" font-family="Helvetica" font-size="10.00">(def)</text>
</a>
</g>
</g>
<!-- L4YAML.Proofs.ScannerDocument.with_docStart_flags_preserves_wellFormed -->
<g id="node19" class="node">
<title>L4YAML.Proofs.ScannerDocument.with_docStart_flags_preserves_wellFormed</title>
<g id="a_node19"><a xlink:href="../../../api/L4YAML/Proofs/Scanner/ScannerDocument.html#L4YAML.Proofs.ScannerDocument.with_docStart_flags_preserves_wellFormed" xlink:title="ScannerDocument.with_docStart_flags_preserves_wellFormed" target="_blank">
<polygon fill="#fff3cd" stroke="#d4a017" points="490.62,-484.54 490.62,-499.46 352.72,-510 157.7,-510 19.8,-499.46 19.8,-484.54 157.7,-474 352.72,-474 490.62,-484.54"/>
<polygon fill="none" stroke="#d4a017" points="494.62,-480.84 494.62,-503.16 352.87,-514 157.54,-514 15.79,-503.16 15.79,-480.84 157.54,-470 352.87,-470 494.62,-480.84"/>
<text text-anchor="middle" x="255.21" y="-488.9" font-family="Helvetica" font-size="12.00">ScannerDocument.with_docStart_flags_preserves_wellFormed</text>
</a>
</g>
</g>
<!-- L4YAML.Proofs.ScannerDocument.with_docStart_flags_preserves_wellFormed&#45;&gt;L4YAML.Scanner.ScannerState.simpleKey -->
<g id="edge18" class="edge">
<title>L4YAML.Proofs.ScannerDocument.with_docStart_flags_preserves_wellFormed&#45;&gt;L4YAML.Scanner.ScannerState.simpleKey</title>
<path fill="none" stroke="#4a90d9" stroke-width="2" d="M270.69,-514.24C309.34,-573.48 418.38,-739.81 512.41,-876 527.62,-898.02 525.79,-909.23 547.41,-925 552.53,-928.73 558.18,-931.96 564.07,-934.75"/>
<polygon fill="#4a90d9" stroke="#4a90d9" stroke-width="2" points="563.14,-937.02 570.53,-937.61 565.13,-932.54 563.14,-937.02"/>
<text text-anchor="middle" x="524.91" y="-917.6" font-family="Times-Roman" font-size="8.00" fill="#4a90d9">about</text>
</g>
<!-- L4YAML.Proofs.ScannerDocument.with_docStart_flags_preserves_wellFormed&#45;&gt;L4YAML.Scanner.ScannerState.input -->
<g id="edge13" class="edge">
<title>L4YAML.Proofs.ScannerDocument.with_docStart_flags_preserves_wellFormed&#45;&gt;L4YAML.Scanner.ScannerState.input</title>
<path fill="none" stroke="#4a90d9" stroke-width="2" d="M266.99,-514.15C299.72,-579.06 404.49,-770.59 547.41,-871 555.91,-876.97 565.8,-881.67 575.75,-885.35"/>
<polygon fill="#4a90d9" stroke="#4a90d9" stroke-width="2" points="575.21,-887.76 582.63,-887.74 576.82,-883.13 575.21,-887.76"/>
<text text-anchor="middle" x="524.91" y="-865.6" font-family="Times-Roman" font-size="8.00" fill="#4a90d9">about</text>
</g>
<!-- L4YAML.Proofs.ScannerDocument.with_docStart_flags_preserves_wellFormed&#45;&gt;L4YAML.Scanner.ScannerState.line -->
<g id="edge17" class="edge">
<title>L4YAML.Proofs.ScannerDocument.with_docStart_flags_preserves_wellFormed&#45;&gt;L4YAML.Scanner.ScannerState.line</title>
<path fill="none" stroke="#4a90d9" stroke-width="2" d="M269.93,-514.22C307.15,-572.64 416.1,-731.96 547.41,-817 556.94,-823.17 567.99,-828.03 578.88,-831.81"/>
<polygon fill="#4a90d9" stroke="#4a90d9" stroke-width="2" points="578.22,-834.17 585.64,-834.03 579.75,-829.52 578.22,-834.17"/>
<text text-anchor="middle" x="524.91" y="-805.6" font-family="Times-Roman" font-size="8.00" fill="#4a90d9">about</text>
</g>
<!-- L4YAML.Proofs.ScannerDocument.with_docStart_flags_preserves_wellFormed&#45;&gt;L4YAML.Scanner.ScannerState.flowLevel -->
<g id="edge14" class="edge">
<title>L4YAML.Proofs.ScannerDocument.with_docStart_flags_preserves_wellFormed&#45;&gt;L4YAML.Scanner.ScannerState.flowLevel</title>
<path fill="none" stroke="#4a90d9" stroke-width="2" d="M273.85,-514.06C315.86,-565.18 427.3,-692.73 547.41,-763 553.39,-766.5 559.88,-769.6 566.52,-772.34"/>
<polygon fill="#4a90d9" stroke="#4a90d9" stroke-width="2" points="565.78,-774.68 573.19,-774.96 567.57,-770.12 565.78,-774.68"/>
<text text-anchor="middle" x="524.91" y="-753.6" font-family="Times-Roman" font-size="8.00" fill="#4a90d9">about</text>
</g>
<!-- L4YAML.Proofs.ScannerDocument.with_docStart_flags_preserves_wellFormed&#45;&gt;L4YAML.Scanner.ScannerState.explicitKeyLine -->
<g id="edge9" class="edge">
<title>L4YAML.Proofs.ScannerDocument.with_docStart_flags_preserves_wellFormed&#45;&gt;L4YAML.Scanner.ScannerState.explicitKeyLine</title>
<path fill="none" stroke="#4a90d9" stroke-width="2" d="M280.03,-514.18C327.49,-557.29 438.63,-653.08 547.41,-709 551.65,-711.18 556.09,-713.22 560.63,-715.13"/>
<polygon fill="#4a90d9" stroke="#4a90d9" stroke-width="2" points="559.93,-717.49 567.34,-717.84 561.76,-712.95 559.93,-717.49"/>
<text text-anchor="middle" x="524.91" y="-701.6" font-family="Times-Roman" font-size="8.00" fill="#4a90d9">about</text>
</g>
<!-- L4YAML.Proofs.ScannerDocument.with_docStart_flags_preserves_wellFormed&#45;&gt;L4YAML.Scanner.ScannerState.mk -->
<g id="edge12" class="edge">
<title>L4YAML.Proofs.ScannerDocument.with_docStart_flags_preserves_wellFormed&#45;&gt;L4YAML.Scanner.ScannerState.mk</title>
<path fill="none" stroke="#4a90d9" stroke-width="2" d="M290.45,-514.18C343.73,-547.97 450.43,-612.87 547.41,-655 557.71,-659.47 568.99,-663.59 579.86,-667.18"/>
<polygon fill="#4a90d9" stroke="#4a90d9" stroke-width="2" points="579.15,-669.53 586.56,-669.35 580.66,-664.87 579.15,-669.53"/>
<text text-anchor="middle" x="524.91" y="-649.6" font-family="Times-Roman" font-size="8.00" fill="#4a90d9">about</text>
</g>
<!-- L4YAML.Proofs.ScannerDocument.with_docStart_flags_preserves_wellFormed&#45;&gt;L4YAML.Scanner.ScannerState -->
<g id="edge11" class="edge">
<title>L4YAML.Proofs.ScannerDocument.with_docStart_flags_preserves_wellFormed&#45;&gt;L4YAML.Scanner.ScannerState</title>
<path fill="none" stroke="#4a90d9" stroke-width="2" d="M312.55,-514.02C371,-536.65 465.17,-572.49 547.41,-601 560.55,-605.55 574.92,-610.25 588.04,-614.43"/>
<polygon fill="#4a90d9" stroke="#4a90d9" stroke-width="2" points="587.35,-616.78 594.76,-616.56 588.83,-612.11 587.35,-616.78"/>
<text text-anchor="middle" x="524.91" y="-597.6" font-family="Times-Roman" font-size="8.00" fill="#4a90d9">about</text>
</g>
<!-- L4YAML.Proofs.ScannerDocument.with_docStart_flags_preserves_wellFormed&#45;&gt;L4YAML.Scanner.ScannerState.indents -->
<g id="edge5" class="edge">
<title>L4YAML.Proofs.ScannerDocument.with_docStart_flags_preserves_wellFormed&#45;&gt;L4YAML.Scanner.ScannerState.indents</title>
<path fill="none" stroke="#4a90d9" stroke-width="2" d="M356.4,-513.87C424.7,-528.77 512.94,-548.03 570.92,-560.69"/>
<polygon fill="#4a90d9" stroke="#4a90d9" stroke-width="2" points="570.47,-563.1 577.84,-562.2 571.52,-558.31 570.47,-563.1"/>
<text text-anchor="middle" x="524.91" y="-554.6" font-family="Times-Roman" font-size="8.00" fill="#4a90d9">about</text>
</g>
<!-- L4YAML.Proofs.ScannerDocument.with_docStart_flags_preserves_wellFormed&#45;&gt;L4YAML.Scanner.ScannerState.needIndentCheck -->
<g id="edge15" class="edge">
<title>L4YAML.Proofs.ScannerDocument.with_docStart_flags_preserves_wellFormed&#45;&gt;L4YAML.Scanner.ScannerState.needIndentCheck</title>
<path fill="none" stroke="#4a90d9" stroke-width="2" d="M450.94,-506.51C485.07,-509.06 518.9,-511.58 547.91,-513.74"/>
<polygon fill="#4a90d9" stroke="#4a90d9" stroke-width="2" points="548.02,-516.2 555.18,-514.28 548.38,-511.32 548.02,-516.2"/>
<text text-anchor="middle" x="524.91" y="-514.6" font-family="Times-Roman" font-size="8.00" fill="#4a90d9">about</text>
</g>
<!-- L4YAML.Proofs.ScannerDocument.with_docStart_flags_preserves_wellFormed&#45;&gt;L4YAML.Scanner.ScannerState.tokens -->
<g id="edge1" class="edge">
<title>L4YAML.Proofs.ScannerDocument.with_docStart_flags_preserves_wellFormed&#45;&gt;L4YAML.Scanner.ScannerState.tokens</title>
<path fill="none" stroke="#4a90d9" stroke-width="2" d="M458.08,-478.03C499.79,-475.14 540.57,-472.32 572.14,-470.14"/>
<polygon fill="#4a90d9" stroke="#4a90d9" stroke-width="2" points="572.32,-472.58 579.14,-469.65 571.99,-467.69 572.32,-472.58"/>
<text text-anchor="middle" x="524.91" y="-475.6" font-family="Times-Roman" font-size="8.00" fill="#4a90d9">about</text>
</g>
<!-- L4YAML.Proofs.ScannerDocument.with_docStart_flags_preserves_wellFormed&#45;&gt;L4YAML.Scanner.ScannerState.definedAnchors -->
<g id="edge16" class="edge">
<title>L4YAML.Proofs.ScannerDocument.with_docStart_flags_preserves_wellFormed&#45;&gt;L4YAML.Scanner.ScannerState.definedAnchors</title>
<path fill="none" stroke="#4a90d9" stroke-width="2" d="M357.88,-470.35C418.94,-457.35 495.51,-441.04 552.18,-428.98"/>
<polygon fill="#4a90d9" stroke="#4a90d9" stroke-width="2" points="553.01,-431.31 559.34,-427.45 551.99,-426.51 553.01,-431.31"/>
<text text-anchor="middle" x="524.91" y="-437.6" font-family="Times-Roman" font-size="8.00" fill="#4a90d9">about</text>
</g>
<!-- L4YAML.Proofs.ScannerDocument.with_docStart_flags_preserves_wellFormed&#45;&gt;L4YAML.Scanner.ScannerState.comments -->
<g id="edge8" class="edge">
<title>L4YAML.Proofs.ScannerDocument.with_docStart_flags_preserves_wellFormed&#45;&gt;L4YAML.Scanner.ScannerState.comments</title>
<path fill="none" stroke="#4a90d9" stroke-width="2" d="M313.96,-469.95C372.53,-447.78 465.9,-412.98 547.41,-385 553.86,-382.79 560.6,-380.53 567.34,-378.32"/>
<polygon fill="#4a90d9" stroke="#4a90d9" stroke-width="2" points="568.18,-380.62 574.08,-376.12 566.66,-375.96 568.18,-380.62"/>
<text text-anchor="middle" x="524.91" y="-398.6" font-family="Times-Roman" font-size="8.00" fill="#4a90d9">about</text>
</g>
<!-- L4YAML.Proofs.ScannerDocument.with_docStart_flags_preserves_wellFormed&#45;&gt;L4YAML.Scanner.ScannerState.col -->
<g id="edge2" class="edge">
<title>L4YAML.Proofs.ScannerDocument.with_docStart_flags_preserves_wellFormed&#45;&gt;L4YAML.Scanner.ScannerState.col</title>
<path fill="none" stroke="#4a90d9" stroke-width="2" d="M290.94,-469.86C344.41,-436.45 450.87,-372.64 547.41,-331 557.72,-326.56 569,-322.45 579.88,-318.86"/>
<polygon fill="#4a90d9" stroke="#4a90d9" stroke-width="2" points="580.68,-321.18 586.58,-316.69 579.17,-316.51 580.68,-321.18"/>
<text text-anchor="middle" x="524.91" y="-347.6" font-family="Times-Roman" font-size="8.00" fill="#4a90d9">about</text>
</g>
<!-- L4YAML.Proofs.ScannerDocument.with_docStart_flags_preserves_wellFormed&#45;&gt;L4YAML.Scanner.ScannerState.simpleKeyStack -->
<g id="edge4" class="edge">
<title>L4YAML.Proofs.ScannerDocument.with_docStart_flags_preserves_wellFormed&#45;&gt;L4YAML.Scanner.ScannerState.simpleKeyStack</title>
<path fill="none" stroke="#4a90d9" stroke-width="2" d="M280.44,-469.71C328.17,-426.86 439.14,-332.36 547.41,-277 551.84,-274.73 556.5,-272.61 561.26,-270.63"/>
<polygon fill="#4a90d9" stroke="#4a90d9" stroke-width="2" points="562.21,-272.89 567.8,-268.02 560.39,-268.34 562.21,-272.89"/>
<text text-anchor="middle" x="524.91" y="-297.6" font-family="Times-Roman" font-size="8.00" fill="#4a90d9">about</text>
</g>
<!-- L4YAML.Proofs.ScannerDocument.with_docStart_flags_preserves_wellFormed&#45;&gt;L4YAML.Scanner.ScannerState.offset -->
<g id="edge6" class="edge">
<title>L4YAML.Proofs.ScannerDocument.with_docStart_flags_preserves_wellFormed&#45;&gt;L4YAML.Scanner.ScannerState.offset</title>
<path fill="none" stroke="#4a90d9" stroke-width="2" d="M274.2,-469.73C316.53,-418.75 427.88,-292.64 547.41,-223 555.76,-218.13 565.1,-214.03 574.44,-210.61"/>
<polygon fill="#4a90d9" stroke="#4a90d9" stroke-width="2" points="575.42,-212.86 581.22,-208.24 573.8,-208.24 575.42,-212.86"/>
<text text-anchor="middle" x="524.91" y="-241.6" font-family="Times-Roman" font-size="8.00" fill="#4a90d9">about</text>
</g>
<!-- L4YAML.Proofs.ScannerDocument.with_docStart_flags_preserves_wellFormed&#45;&gt;L4YAML.Scanner.ScannerState.flowStack -->
<g id="edge10" class="edge">
<title>L4YAML.Proofs.ScannerDocument.with_docStart_flags_preserves_wellFormed&#45;&gt;L4YAML.Scanner.ScannerState.flowStack</title>
<path fill="none" stroke="#4a90d9" stroke-width="2" d="M269.97,-469.93C307.28,-411.86 416.42,-253.55 547.41,-169 552.83,-165.5 558.73,-162.43 564.82,-159.73"/>
<polygon fill="#4a90d9" stroke="#4a90d9" stroke-width="2" points="565.97,-161.91 571.48,-156.95 564.08,-157.39 565.97,-161.91"/>
<text text-anchor="middle" x="524.91" y="-191.6" font-family="Times-Roman" font-size="8.00" fill="#4a90d9">about</text>
</g>
<!-- L4YAML.Proofs.ScannerDocument.with_docStart_flags_preserves_wellFormed&#45;&gt;L4YAML.Scanner.ScannerState.inputEnd -->
<g id="edge7" class="edge">
<title>L4YAML.Proofs.ScannerDocument.with_docStart_flags_preserves_wellFormed&#45;&gt;L4YAML.Scanner.ScannerState.inputEnd</title>
<path fill="none" stroke="#4a90d9" stroke-width="2" d="M267.02,-469.97C299.84,-405.41 404.84,-214.9 547.41,-115 553.59,-110.67 560.5,-107.01 567.64,-103.92"/>
<polygon fill="#4a90d9" stroke="#4a90d9" stroke-width="2" points="568.67,-106.14 574.24,-101.24 566.83,-101.6 568.67,-106.14"/>
<text text-anchor="middle" x="524.91" y="-140.6" font-family="Times-Roman" font-size="8.00" fill="#4a90d9">about</text>
</g>
<!-- L4YAML.Proofs.ScannerDocument.with_docStart_flags_preserves_wellFormed&#45;&gt;L4YAML.Scanner.ScannerState.WellFormed -->
<g id="edge3" class="edge">
<title>L4YAML.Proofs.ScannerDocument.with_docStart_flags_preserves_wellFormed&#45;&gt;L4YAML.Scanner.ScannerState.WellFormed</title>
<path fill="none" stroke="#4a90d9" stroke-width="2" d="M270.63,-469.77C309.12,-410.58 417.8,-244.42 512.41,-109 527.53,-87.36 526,-76.45 547.41,-61 551.53,-58.03 556,-55.37 560.65,-53"/>
<polygon fill="#4a90d9" stroke="#4a90d9" stroke-width="2" points="561.81,-55.16 567.08,-49.94 559.71,-50.73 561.81,-55.16"/>
<text text-anchor="middle" x="524.91" y="-111.6" font-family="Times-Roman" font-size="8.00" fill="#4a90d9">about</text>
</g>
</g>
</svg>
