<?xml version="1.0" encoding="UTF-8" standalone="no"?>
<!DOCTYPE svg PUBLIC "-//W3C//DTD SVG 1.1//EN"
 "http://www.w3.org/Graphics/SVG/1.1/DTD/svg11.dtd">
<!-- Generated by graphviz version 2.44.0 (0)
 -->
<!-- Title: chain_TokenParser.parseBlockSequence.eq_def Pages: 1 -->
<svg width="1877pt" height="540pt"
 viewBox="0.00 0.00 1877.00 540.00" xmlns="http://www.w3.org/2000/svg" xmlns:xlink="http://www.w3.org/1999/xlink">
<g id="graph0" class="graph" transform="scale(1 1) rotate(0) translate(4 536)">
<title>chain_TokenParser.parseBlockSequence.eq_def</title>
<polygon fill="white" stroke="transparent" points="-4,4 -4,-536 1873,-536 1873,4 -4,4"/>
<text text-anchor="middle" x="934.5" y="-517.6" font-family="Helvetica Bold" font-size="13.00">Functorial Chains: TokenParser.parseBlockSequence.eq_def</text>
<text text-anchor="middle" x="934.5" y="-503.6" font-family="Helvetica Bold" font-size="13.00">(heuristic: used by 9 proofs)</text>
<g id="clust1" class="cluster">
<title>cluster_fns</title>
<polygon fill="none" stroke="#4a90d9" stroke-dasharray="5,2" points="8,-8 8,-379 970,-379 970,-8 8,-8"/>
<text text-anchor="middle" x="489" y="-364.6" font-family="Helvetica Bold" font-size="13.00" fill="#4a90d9">Functions (Call Chain)</text>
</g>
<g id="clust2" class="cluster">
<title>cluster_thms</title>
<polygon fill="none" stroke="#28a745" stroke-dasharray="5,2" points="978,-143 978,-488 1842,-488 1842,-143 978,-143"/>
<text text-anchor="middle" x="1410" y="-473.6" font-family="Helvetica Bold" font-size="13.00" fill="#28a745">Theorems (Proof Chain)</text>
</g>
<!-- L4YAML.TokenParser.parseBlockSequenceLoop -->
<g id="node1" class="node">
<title>L4YAML.TokenParser.parseBlockSequenceLoop</title>
<g id="a_node1"><a xlink:href="../../../api/L4YAML/Parser/TokenParser.html#L4YAML.TokenParser.parseBlockSequenceLoop" xlink:title="TokenParser.parseBlockSequenceLoop" target="_blank">
<polygon fill="#dce9f7" stroke="#4a90d9" points="926,-349 738,-349 738,-313 926,-313 926,-349"/>
<text text-anchor="middle" x="832" y="-328.5" font-family="Helvetica" font-size="10.00">TokenParser.parseBlockSequenceLoop</text>
</a>
</g>
</g>
<!-- L4YAML.TokenParser.parseNodeContent._mutual -->
<g id="node9" class="node">
<title>L4YAML.TokenParser.parseNodeContent._mutual</title>
<g id="a_node9"><a xlink:href="../../../api/L4YAML/Parser/TokenParser.html#L4YAML.TokenParser.parseNodeContent._mutual" xlink:title="TokenParser.parseNodeContent._mutual" target="_blank">
<polygon fill="#dce9f7" stroke="#4a90d9" points="656,-241 462,-241 462,-205 656,-205 656,-241"/>
<text text-anchor="middle" x="559" y="-220.5" font-family="Helvetica" font-size="10.00">TokenParser.parseNodeContent._mutual</text>
</a>
</g>
</g>
<!-- L4YAML.TokenParser.parseBlockSequenceLoop&#45;&gt;L4YAML.TokenParser.parseNodeContent._mutual -->
<g id="edge19" class="edge">
<title>L4YAML.TokenParser.parseBlockSequenceLoop&#45;&gt;L4YAML.TokenParser.parseNodeContent._mutual</title>
<path fill="none" stroke="#4a90d9" stroke-width="2" d="M737.76,-320.96C690.63,-315.17 639.37,-306.56 619,-295 599.17,-283.75 582.96,-263.3 572.41,-247.23"/>
<polygon fill="#4a90d9" stroke="#4a90d9" stroke-width="2" points="574.33,-245.69 568.51,-241.09 570.19,-248.31 574.33,-245.69"/>
<text text-anchor="middle" x="628.5" y="-275.1" font-family="Times-Roman" font-size="8.00">calls</text>
</g>
<!-- L4YAML.TokenParser.ParseState.advance -->
<g id="node2" class="node">
<title>L4YAML.TokenParser.ParseState.advance</title>
<g id="a_node2"><a xlink:href="../../../api/L4YAML/Parser/State.html#L4YAML.TokenParser.ParseState.advance" xlink:title="TokenParser.ParseState.advance" target="_blank">
<polygon fill="#dce9f7" stroke="#4a90d9" points="809.5,-295 646.5,-295 646.5,-259 809.5,-259 809.5,-295"/>
<text text-anchor="middle" x="728" y="-274.5" font-family="Helvetica" font-size="10.00">TokenParser.ParseState.advance</text>
</a>
</g>
</g>
<!-- L4YAML.TokenParser.ParseState.anchors -->
<g id="node7" class="node">
<title>L4YAML.TokenParser.ParseState.anchors</title>
<g id="a_node7"><a xlink:href="../../../api/L4YAML/Parser/State.html#L4YAML.TokenParser.ParseState.anchors" xlink:title="TokenParser.ParseState.anchors" target="_blank">
<polygon fill="#dce9f7" stroke="#4a90d9" points="962,-133 800,-133 800,-97 962,-97 962,-133"/>
<text text-anchor="middle" x="881" y="-112.5" font-family="Helvetica" font-size="10.00">TokenParser.ParseState.anchors</text>
</a>
</g>
</g>
<!-- L4YAML.TokenParser.ParseState.advance&#45;&gt;L4YAML.TokenParser.ParseState.anchors -->
<g id="edge9" class="edge">
<title>L4YAML.TokenParser.ParseState.advance&#45;&gt;L4YAML.TokenParser.ParseState.anchors</title>
<path fill="none" stroke="#4a90d9" stroke-width="2" d="M720.51,-258.89C707.09,-226.97 681.7,-160.01 697,-143 711.05,-127.38 770.22,-136.06 791,-133 791.53,-132.92 792.06,-132.84 792.6,-132.76"/>
<polygon fill="#4a90d9" stroke="#4a90d9" stroke-width="2" points="793.07,-135.17 799.61,-131.68 792.32,-130.33 793.07,-135.17"/>
<text text-anchor="middle" x="722.5" y="-221.1" font-family="Times-Roman" font-size="8.00">calls</text>
</g>
<!-- L4YAML.YamlPos.line -->
<g id="node3" class="node">
<title>L4YAML.YamlPos.line</title>
<g id="a_node3"><a xlink:href="../../../api/L4YAML/Spec/Types.html#L4YAML.YamlPos.line" xlink:title="YamlPos.line" target="_blank">
<polygon fill="#dce9f7" stroke="#4a90d9" points="444,-241 370,-241 370,-205 444,-205 444,-241"/>
<text text-anchor="middle" x="407" y="-220.5" font-family="Helvetica" font-size="10.00">YamlPos.line</text>
</a>
</g>
</g>
<!-- L4YAML.YamlPos -->
<g id="node8" class="node">
<title>L4YAML.YamlPos</title>
<g id="a_node8"><a xlink:href="../../../api/L4YAML/Spec/Types.html#L4YAML.YamlPos" xlink:title="YamlPos" target="_blank">
<polygon fill="#dce9f7" stroke="#4a90d9" points="127,-133 71,-133 71,-97 127,-97 127,-133"/>
<text text-anchor="middle" x="99" y="-112.5" font-family="Helvetica" font-size="10.00">YamlPos</text>
</a>
</g>
</g>
<!-- L4YAML.YamlPos.line&#45;&gt;L4YAML.YamlPos -->
<g id="edge5" class="edge">
<title>L4YAML.YamlPos.line&#45;&gt;L4YAML.YamlPos</title>
<path fill="none" stroke="#4a90d9" stroke-width="2" d="M369.99,-220.21C328.5,-217.16 259.85,-208.96 205,-187 175.12,-175.03 145,-153.77 124.55,-137.62"/>
<polygon fill="#4a90d9" stroke="#4a90d9" stroke-width="2" points="126.04,-135.68 119.04,-133.22 122.97,-139.5 126.04,-135.68"/>
<text text-anchor="middle" x="214.5" y="-167.1" font-family="Times-Roman" font-size="8.00">calls</text>
</g>
<!-- L4YAML.YamlValue -->
<g id="node4" class="node">
<title>L4YAML.YamlValue</title>
<g id="a_node4"><a xlink:href="../../../api/L4YAML/Spec/Types.html#L4YAML.YamlValue" xlink:title="YamlValue" target="_blank">
<polygon fill="#dce9f7" stroke="#4a90d9" points="207,-133 145,-133 145,-97 207,-97 207,-133"/>
<text text-anchor="middle" x="176" y="-112.5" font-family="Helvetica" font-size="10.00">YamlValue</text>
</a>
</g>
</g>
<!-- L4YAML.TokenParser.ParseState -->
<g id="node5" class="node">
<title>L4YAML.TokenParser.ParseState</title>
<g id="a_node5"><a xlink:href="../../../api/L4YAML/Parser/State.html#L4YAML.TokenParser.ParseState" xlink:title="TokenParser.ParseState" target="_blank">
<polygon fill="#dce9f7" stroke="#4a90d9" points="962,-52 838,-52 838,-16 962,-16 962,-52"/>
<text text-anchor="middle" x="900" y="-31.5" font-family="Helvetica" font-size="10.00">TokenParser.ParseState</text>
</a>
</g>
</g>
<!-- L4YAML.TokenParser.ParseState.trackPositions -->
<g id="node6" class="node">
<title>L4YAML.TokenParser.ParseState.trackPositions</title>
<g id="a_node6"><a xlink:href="../../../api/L4YAML/Parser/State.html#L4YAML.TokenParser.ParseState.trackPositions" xlink:title="TokenParser.ParseState.trackPositions" target="_blank">
<polygon fill="#dce9f7" stroke="#4a90d9" points="608.5,-133 419.5,-133 419.5,-97 608.5,-97 608.5,-133"/>
<text text-anchor="middle" x="514" y="-112.5" font-family="Helvetica" font-size="10.00">TokenParser.ParseState.trackPositions</text>
</a>
</g>
</g>
<!-- L4YAML.TokenParser.ParseState.anchors&#45;&gt;L4YAML.TokenParser.ParseState -->
<g id="edge11" class="edge">
<title>L4YAML.TokenParser.ParseState.anchors&#45;&gt;L4YAML.TokenParser.ParseState</title>
<path fill="none" stroke="#4a90d9" stroke-width="2" d="M885.12,-96.86C887.79,-85.78 891.29,-71.21 894.23,-58.99"/>
<polygon fill="#4a90d9" stroke="#4a90d9" stroke-width="2" points="896.63,-59.49 895.89,-52.11 891.87,-58.34 896.63,-59.49"/>
<text text-anchor="middle" x="900.5" y="-72.6" font-family="Times-Roman" font-size="8.00">calls</text>
</g>
<!-- L4YAML.TokenParser.parseNodeContent._mutual&#45;&gt;L4YAML.YamlValue -->
<g id="edge28" class="edge">
<title>L4YAML.TokenParser.parseNodeContent._mutual&#45;&gt;L4YAML.YamlValue</title>
<path fill="none" stroke="#4a90d9" stroke-width="2" d="M461.92,-206.24C414.71,-198.41 365.82,-190 355,-187 291.13,-169.31 277.39,-157.96 216,-133 215.3,-132.72 214.6,-132.43 213.89,-132.14"/>
<polygon fill="#4a90d9" stroke="#4a90d9" stroke-width="2" points="214.81,-129.87 207.4,-129.46 212.94,-134.4 214.81,-129.87"/>
<text text-anchor="middle" x="364.5" y="-167.1" font-family="Times-Roman" font-size="8.00">calls</text>
</g>
<!-- L4YAML.TokenParser.parseNodeContent._mutual&#45;&gt;L4YAML.TokenParser.ParseState -->
<g id="edge24" class="edge">
<title>L4YAML.TokenParser.parseNodeContent._mutual&#45;&gt;L4YAML.TokenParser.ParseState</title>
<path fill="none" stroke="#4a90d9" stroke-width="2" d="M462,-206.14C458.96,-205.74 455.96,-205.36 453,-205 357.81,-193.4 332.39,-203.87 238,-187 215.87,-183.04 56.61,-150.89 43,-133 33.31,-120.27 32.1,-108.71 43,-97 96.22,-39.79 636.46,-34.69 830.81,-34.73"/>
<polygon fill="#4a90d9" stroke="#4a90d9" stroke-width="2" points="830.86,-37.18 837.86,-34.74 830.86,-32.28 830.86,-37.18"/>
<text text-anchor="middle" x="52.5" y="-113.1" font-family="Times-Roman" font-size="8.00">calls</text>
</g>
<!-- L4YAML.TokenParser.parseNodeContent._mutual&#45;&gt;L4YAML.TokenParser.ParseState.trackPositions -->
<g id="edge30" class="edge">
<title>L4YAML.TokenParser.parseNodeContent._mutual&#45;&gt;L4YAML.TokenParser.ParseState.trackPositions</title>
<path fill="none" stroke="#4a90d9" stroke-width="2" d="M551.77,-204.97C544.3,-187.38 532.59,-159.78 524.18,-139.99"/>
<polygon fill="#4a90d9" stroke="#4a90d9" stroke-width="2" points="526.35,-138.83 521.36,-133.34 521.84,-140.74 526.35,-138.83"/>
<text text-anchor="middle" x="552.5" y="-167.1" font-family="Times-Roman" font-size="8.00">calls</text>
</g>
<!-- L4YAML.TokenParser.parseNodeContent._mutual&#45;&gt;L4YAML.TokenParser.ParseState.anchors -->
<g id="edge32" class="edge">
<title>L4YAML.TokenParser.parseNodeContent._mutual&#45;&gt;L4YAML.TokenParser.ParseState.anchors</title>
<path fill="none" stroke="#4a90d9" stroke-width="2" d="M604.66,-204.92C614.87,-199.99 625.25,-194 634,-187 653.3,-171.56 646.28,-154.78 668,-143 692.11,-129.92 763.82,-136.66 791,-133 791.53,-132.93 792.07,-132.86 792.6,-132.78"/>
<polygon fill="#4a90d9" stroke="#4a90d9" stroke-width="2" points="793.05,-135.19 799.63,-131.77 792.35,-130.34 793.05,-135.19"/>
<text text-anchor="middle" x="677.5" y="-167.1" font-family="Times-Roman" font-size="8.00">calls</text>
</g>
<!-- L4YAML.TokenParser.ParseState.tagHandles -->
<g id="node10" class="node">
<title>L4YAML.TokenParser.ParseState.tagHandles</title>
<g id="a_node10"><a xlink:href="../../../api/L4YAML/Parser/State.html#L4YAML.TokenParser.ParseState.tagHandles" xlink:title="TokenParser.ParseState.tagHandles" target="_blank">
<polygon fill="#dce9f7" stroke="#4a90d9" points="401,-133 225,-133 225,-97 401,-97 401,-133"/>
<text text-anchor="middle" x="313" y="-112.5" font-family="Helvetica" font-size="10.00">TokenParser.ParseState.tagHandles</text>
</a>
</g>
</g>
<!-- L4YAML.TokenParser.parseNodeContent._mutual&#45;&gt;L4YAML.TokenParser.ParseState.tagHandles -->
<g id="edge21" class="edge">
<title>L4YAML.TokenParser.parseNodeContent._mutual&#45;&gt;L4YAML.TokenParser.ParseState.tagHandles</title>
<path fill="none" stroke="#4a90d9" stroke-width="2" d="M519.48,-204.97C475.85,-186.17 405.7,-155.94 359.47,-136.03"/>
<polygon fill="#4a90d9" stroke="#4a90d9" stroke-width="2" points="360.23,-133.68 352.83,-133.16 358.29,-138.18 360.23,-133.68"/>
<text text-anchor="middle" x="481.5" y="-167.1" font-family="Times-Roman" font-size="8.00">calls</text>
</g>
<!-- L4YAML.TokenParser.ParseState.tokens -->
<g id="node12" class="node">
<title>L4YAML.TokenParser.ParseState.tokens</title>
<g id="a_node12"><a xlink:href="../../../api/L4YAML/Parser/State.html#L4YAML.TokenParser.ParseState.tokens" xlink:title="TokenParser.ParseState.tokens" target="_blank">
<polygon fill="#dce9f7" stroke="#4a90d9" points="781.5,-133 626.5,-133 626.5,-97 781.5,-97 781.5,-133"/>
<text text-anchor="middle" x="704" y="-112.5" font-family="Helvetica" font-size="10.00">TokenParser.ParseState.tokens</text>
</a>
</g>
</g>
<!-- L4YAML.TokenParser.parseNodeContent._mutual&#45;&gt;L4YAML.TokenParser.ParseState.tokens -->
<g id="edge26" class="edge">
<title>L4YAML.TokenParser.parseNodeContent._mutual&#45;&gt;L4YAML.TokenParser.ParseState.tokens</title>
<path fill="none" stroke="#4a90d9" stroke-width="2" d="M566.83,-204.97C575.94,-187.01 592.63,-159.12 615,-143 618.36,-140.58 621.93,-138.38 625.65,-136.37"/>
<polygon fill="#4a90d9" stroke="#4a90d9" stroke-width="2" points="626.87,-138.49 632.03,-133.16 624.68,-134.12 626.87,-138.49"/>
<text text-anchor="middle" x="624.5" y="-167.1" font-family="Times-Roman" font-size="8.00">calls</text>
</g>
<!-- L4YAML.TokenParser.ParseState.currentLine -->
<g id="node11" class="node">
<title>L4YAML.TokenParser.ParseState.currentLine</title>
<g id="a_node11"><a xlink:href="../../../api/L4YAML/Parser/State.html#L4YAML.TokenParser.ParseState.currentLine" xlink:title="TokenParser.ParseState.currentLine" target="_blank">
<polygon fill="#dce9f7" stroke="#4a90d9" points="657.5,-349 482.5,-349 482.5,-313 657.5,-313 657.5,-349"/>
<text text-anchor="middle" x="570" y="-328.5" font-family="Helvetica" font-size="10.00">TokenParser.ParseState.currentLine</text>
</a>
</g>
</g>
<!-- L4YAML.TokenParser.ParseState.currentLine&#45;&gt;L4YAML.YamlPos.line -->
<g id="edge2" class="edge">
<title>L4YAML.TokenParser.ParseState.currentLine&#45;&gt;L4YAML.YamlPos.line</title>
<path fill="none" stroke="#4a90d9" stroke-width="2" d="M543.81,-312.97C515.38,-294.48 469.94,-264.93 439.31,-245.01"/>
<polygon fill="#4a90d9" stroke="#4a90d9" stroke-width="2" points="440.6,-242.93 433.39,-241.16 437.93,-247.03 440.6,-242.93"/>
<text text-anchor="middle" x="521.5" y="-275.1" font-family="Times-Roman" font-size="8.00">calls</text>
</g>
<!-- L4YAML.TokenParser.parseNodeContent._mutual._proof_32 -->
<g id="node13" class="node">
<title>L4YAML.TokenParser.parseNodeContent._mutual._proof_32</title>
<g id="a_node13"><a xlink:href="../../../api/L4YAML/Parser/TokenParser.html#L4YAML.TokenParser.parseNodeContent._mutual._proof_32" xlink:title="TokenParser.parseNodeContent._mutual._proof_32" target="_blank">
<ellipse fill="#d4edda" stroke="#28a745" cx="1127" cy="-169" rx="140.88" ry="18"/>
<text text-anchor="middle" x="1127" y="-166.5" font-family="Helvetica" font-size="10.00">TokenParser.parseNodeContent._mutual._proof_32</text>
</a>
</g>
</g>
<!-- L4YAML.TokenParser.parseNodeContent._mutual._proof_32&#45;&gt;L4YAML.TokenParser.ParseState -->
<g id="edge17" class="edge">
<title>L4YAML.TokenParser.parseNodeContent._mutual._proof_32&#45;&gt;L4YAML.TokenParser.ParseState</title>
<path fill="none" stroke="#6f42c1" stroke-width="2" stroke-dasharray="5,2" d="M1098.25,-151.16C1056.78,-126.86 980.22,-82 935.35,-55.71"/>
<polygon fill="#6f42c1" stroke="#6f42c1" stroke-width="2" points="936.51,-53.55 929.23,-52.13 934.03,-57.78 936.51,-53.55"/>
<text text-anchor="middle" x="1077.5" y="-113.1" font-family="Times-Roman" font-size="8.00" fill="#6f42c1">about</text>
</g>
<!-- L4YAML.TokenParser.parseNodeContent._mutual._proof_34 -->
<g id="node14" class="node">
<title>L4YAML.TokenParser.parseNodeContent._mutual._proof_34</title>
<g id="a_node14"><a xlink:href="../../../api/L4YAML/Parser/TokenParser.html#L4YAML.TokenParser.parseNodeContent._mutual._proof_34" xlink:title="TokenParser.parseNodeContent._mutual._proof_34" target="_blank">
<ellipse fill="#d4edda" stroke="#28a745" cx="1127" cy="-223" rx="140.88" ry="18"/>
<text text-anchor="middle" x="1127" y="-220.5" font-family="Helvetica" font-size="10.00">TokenParser.parseNodeContent._mutual._proof_34</text>
</a>
</g>
</g>
<!-- L4YAML.TokenParser.parseNodeContent._mutual._proof_34&#45;&gt;L4YAML.YamlPos -->
<g id="edge7" class="edge">
<title>L4YAML.TokenParser.parseNodeContent._mutual._proof_34&#45;&gt;L4YAML.YamlPos</title>
<path fill="none" stroke="#6f42c1" stroke-width="2" stroke-dasharray="5,2" d="M1027.06,-210.3C1009.4,-208.4 991.17,-206.55 974,-205 945.49,-202.42 741.35,-202.05 717,-187 697.68,-175.06 710.63,-154.43 691,-143 664.35,-127.48 166.07,-139.86 136,-133 135.37,-132.86 134.73,-132.7 134.09,-132.53"/>
<polygon fill="#6f42c1" stroke="#6f42c1" stroke-width="2" points="134.68,-130.15 127.27,-130.39 133.22,-134.83 134.68,-130.15"/>
<text text-anchor="middle" x="729.5" y="-167.1" font-family="Times-Roman" font-size="8.00" fill="#6f42c1">about</text>
</g>
<!-- L4YAML.TokenParser.parseNodeContent._mutual._proof_27 -->
<g id="node15" class="node">
<title>L4YAML.TokenParser.parseNodeContent._mutual._proof_27</title>
<g id="a_node15"><a xlink:href="../../../api/L4YAML/Parser/TokenParser.html#L4YAML.TokenParser.parseNodeContent._mutual._proof_27" xlink:title="TokenParser.parseNodeContent._mutual._proof_27" target="_blank">
<ellipse fill="#d4edda" stroke="#28a745" cx="1413" cy="-169" rx="140.88" ry="18"/>
<text text-anchor="middle" x="1413" y="-166.5" font-family="Helvetica" font-size="10.00">TokenParser.parseNodeContent._mutual._proof_27</text>
</a>
</g>
</g>
<!-- L4YAML.TokenParser.parseNodeContent._mutual._proof_27&#45;&gt;L4YAML.TokenParser.ParseState -->
<g id="edge13" class="edge">
<title>L4YAML.TokenParser.parseNodeContent._mutual._proof_27&#45;&gt;L4YAML.TokenParser.ParseState</title>
<path fill="none" stroke="#6f42c1" stroke-width="2" stroke-dasharray="5,2" d="M1353.65,-152.61C1258,-127.81 1070.24,-79.14 968.85,-52.85"/>
<polygon fill="#6f42c1" stroke="#6f42c1" stroke-width="2" points="969.39,-50.46 962,-51.07 968.16,-55.2 969.39,-50.46"/>
<text text-anchor="middle" x="1285.5" y="-113.1" font-family="Times-Roman" font-size="8.00" fill="#6f42c1">about</text>
</g>
<!-- L4YAML.TokenParser.parseNodeContent._mutual._proof_1 -->
<g id="node16" class="node">
<title>L4YAML.TokenParser.parseNodeContent._mutual._proof_1</title>
<g id="a_node16"><a xlink:href="../../../api/L4YAML/Parser/TokenParser.html#L4YAML.TokenParser.parseNodeContent._mutual._proof_1" xlink:title="TokenParser.parseNodeContent._mutual._proof_1" target="_blank">
<ellipse fill="#d4edda" stroke="#28a745" cx="1696" cy="-169" rx="137.99" ry="18"/>
<text text-anchor="middle" x="1696" y="-166.5" font-family="Helvetica" font-size="10.00">TokenParser.parseNodeContent._mutual._proof_1</text>
</a>
</g>
</g>
<!-- L4YAML.TokenParser.parseNodeContent._mutual._proof_1&#45;&gt;L4YAML.TokenParser.ParseState -->
<g id="edge15" class="edge">
<title>L4YAML.TokenParser.parseNodeContent._mutual._proof_1&#45;&gt;L4YAML.TokenParser.ParseState</title>
<path fill="none" stroke="#6f42c1" stroke-width="2" stroke-dasharray="5,2" d="M1620.93,-153.89C1541.73,-139.14 1413.23,-115.6 1302,-97 1185.37,-77.5 1049.33,-56.98 969.16,-45.12"/>
<polygon fill="#6f42c1" stroke="#6f42c1" stroke-width="2" points="969.34,-42.67 962.06,-44.07 968.62,-47.52 969.34,-42.67"/>
<text text-anchor="middle" x="1513.5" y="-113.1" font-family="Times-Roman" font-size="8.00" fill="#6f42c1">about</text>
</g>
<!-- L4YAML.TokenParser.parseNodeContent._mutual._proof_19 -->
<g id="node17" class="node">
<title>L4YAML.TokenParser.parseNodeContent._mutual._proof_19</title>
<g id="a_node17"><a xlink:href="../../../api/L4YAML/Parser/TokenParser.html#L4YAML.TokenParser.parseNodeContent._mutual._proof_19" xlink:title="TokenParser.parseNodeContent._mutual._proof_19" target="_blank">
<ellipse fill="#d4edda" stroke="#28a745" cx="1426" cy="-223" rx="140.88" ry="18"/>
<text text-anchor="middle" x="1426" y="-220.5" font-family="Helvetica" font-size="10.00">TokenParser.parseNodeContent._mutual._proof_19</text>
</a>
</g>
</g>
<!-- L4YAML.TokenParser.parseNodeContent._mutual._proof_19&#45;&gt;L4YAML.YamlValue -->
<g id="edge29" class="edge">
<title>L4YAML.TokenParser.parseNodeContent._mutual._proof_19&#45;&gt;L4YAML.YamlValue</title>
<path fill="none" stroke="#6f42c1" stroke-width="2" stroke-dasharray="5,2" d="M1329.52,-209.87C1312.06,-208 1294.01,-206.26 1277,-205 1248.39,-202.87 784.69,-203.17 761,-187 743.41,-174.99 759.69,-154.87 742,-143 717.73,-126.71 244.58,-139.11 216,-133 215.35,-132.86 214.71,-132.71 214.06,-132.56"/>
<polygon fill="#6f42c1" stroke="#6f42c1" stroke-width="2" points="214.48,-130.13 207.07,-130.54 213.12,-134.83 214.48,-130.13"/>
<text text-anchor="middle" x="773.5" y="-167.1" font-family="Times-Roman" font-size="8.00" fill="#6f42c1">about</text>
</g>
<!-- L4YAML.TokenParser.parseNodeContent._mutual._proof_19&#45;&gt;L4YAML.TokenParser.ParseState -->
<g id="edge25" class="edge">
<title>L4YAML.TokenParser.parseNodeContent._mutual._proof_19&#45;&gt;L4YAML.TokenParser.ParseState</title>
<path fill="none" stroke="#6f42c1" stroke-width="2" stroke-dasharray="5,2" d="M1564.22,-219.52C1678.2,-216 1824.14,-207.51 1843,-187 1856.24,-172.61 1855.78,-157.8 1843,-143 1785.95,-76.95 1177.46,-46.25 969.34,-37.63"/>
<polygon fill="#6f42c1" stroke="#6f42c1" stroke-width="2" points="969.2,-35.18 962.11,-37.34 969,-40.07 969.2,-35.18"/>
<text text-anchor="middle" x="1841.5" y="-113.1" font-family="Times-Roman" font-size="8.00" fill="#6f42c1">about</text>
</g>
<!-- L4YAML.TokenParser.parseNodeContent._mutual._proof_19&#45;&gt;L4YAML.TokenParser.ParseState.trackPositions -->
<g id="edge31" class="edge">
<title>L4YAML.TokenParser.parseNodeContent._mutual._proof_19&#45;&gt;L4YAML.TokenParser.ParseState.trackPositions</title>
<path fill="none" stroke="#6f42c1" stroke-width="2" stroke-dasharray="5,2" d="M1329.11,-209.94C1311.78,-208.07 1293.87,-206.32 1277,-205 1230.43,-201.35 895.47,-213.49 857,-187 839.46,-174.92 855.53,-155.1 838,-143 817.86,-129.1 642.34,-135.53 618,-133 617.23,-132.92 616.45,-132.84 615.67,-132.75"/>
<polygon fill="#6f42c1" stroke="#6f42c1" stroke-width="2" points="615.83,-130.3 608.6,-131.94 615.27,-135.17 615.83,-130.3"/>
<text text-anchor="middle" x="869.5" y="-167.1" font-family="Times-Roman" font-size="8.00" fill="#6f42c1">about</text>
</g>
<!-- L4YAML.TokenParser.parseNodeContent._mutual._proof_19&#45;&gt;L4YAML.TokenParser.ParseState.anchors -->
<g id="edge33" class="edge">
<title>L4YAML.TokenParser.parseNodeContent._mutual._proof_19&#45;&gt;L4YAML.TokenParser.ParseState.anchors</title>
<path fill="none" stroke="#6f42c1" stroke-width="2" stroke-dasharray="5,2" d="M1328.3,-210.03C1311.22,-208.17 1293.6,-206.41 1277,-205 1240.96,-201.95 981.46,-207.98 952,-187 934.79,-174.74 948.31,-158.55 934,-143 932.18,-141.02 930.18,-139.17 928.06,-137.43"/>
<polygon fill="#6f42c1" stroke="#6f42c1" stroke-width="2" points="929.28,-135.29 922.2,-133.11 926.38,-139.23 929.28,-135.29"/>
<text text-anchor="middle" x="964.5" y="-167.1" font-family="Times-Roman" font-size="8.00" fill="#6f42c1">about</text>
</g>
<!-- L4YAML.TokenParser.parseNodeContent._mutual._proof_19&#45;&gt;L4YAML.TokenParser.ParseState.tagHandles -->
<g id="edge23" class="edge">
<title>L4YAML.TokenParser.parseNodeContent._mutual._proof_19&#45;&gt;L4YAML.TokenParser.ParseState.tagHandles</title>
<path fill="none" stroke="#6f42c1" stroke-width="2" stroke-dasharray="5,2" d="M1329.12,-209.88C1311.79,-208.01 1293.87,-206.29 1277,-205 1251.06,-203.02 830.46,-201.71 809,-187 791.43,-174.96 807.64,-154.94 790,-143 772.55,-131.2 431.96,-135.08 411,-133 410.08,-132.91 409.16,-132.81 408.23,-132.72"/>
<polygon fill="#6f42c1" stroke="#6f42c1" stroke-width="2" points="408.3,-130.26 401.07,-131.9 407.74,-135.13 408.3,-130.26"/>
<text text-anchor="middle" x="821.5" y="-167.1" font-family="Times-Roman" font-size="8.00" fill="#6f42c1">about</text>
</g>
<!-- L4YAML.TokenParser.parseNodeContent._mutual._proof_19&#45;&gt;L4YAML.TokenParser.ParseState.tokens -->
<g id="edge27" class="edge">
<title>L4YAML.TokenParser.parseNodeContent._mutual._proof_19&#45;&gt;L4YAML.TokenParser.ParseState.tokens</title>
<path fill="none" stroke="#6f42c1" stroke-width="2" stroke-dasharray="5,2" d="M1328.71,-209.97C1311.5,-208.11 1293.74,-206.36 1277,-205 1235.75,-201.65 939.02,-210.56 905,-187 887.49,-174.87 903.16,-155.62 886,-143 868.9,-130.42 811.99,-136.15 791,-133 790.24,-132.89 789.47,-132.77 788.71,-132.65"/>
<polygon fill="#6f42c1" stroke="#6f42c1" stroke-width="2" points="789.03,-130.22 781.73,-131.54 788.26,-135.06 789.03,-130.22"/>
<text text-anchor="middle" x="917.5" y="-167.1" font-family="Times-Roman" font-size="8.00" fill="#6f42c1">about</text>
</g>
<!-- L4YAML.TokenParser.parseNodeContent._mutual.eq_def -->
<g id="node18" class="node">
<title>L4YAML.TokenParser.parseNodeContent._mutual.eq_def</title>
<g id="a_node18"><a xlink:href="../../../api/L4YAML/Parser/TokenParser.html#L4YAML.TokenParser.parseNodeContent._mutual.eq_def" xlink:title="TokenParser.parseNodeContent._mutual.eq_def" target="_blank">
<ellipse fill="#d4edda" stroke="#28a745" cx="1426" cy="-331" rx="133.08" ry="18"/>
<text text-anchor="middle" x="1426" y="-328.5" font-family="Helvetica" font-size="10.00">TokenParser.parseNodeContent._mutual.eq_def</text>
</a>
</g>
</g>
<!-- L4YAML.TokenParser.parseNodeContent._mutual.eq_def&#45;&gt;L4YAML.YamlPos.line -->
<g id="edge4" class="edge">
<title>L4YAML.TokenParser.parseNodeContent._mutual.eq_def&#45;&gt;L4YAML.YamlPos.line</title>
<path fill="none" stroke="#6f42c1" stroke-width="2" stroke-dasharray="5,2" d="M1295.62,-327.25C1199.49,-323.56 1065.85,-314.98 950,-295 890.5,-284.74 878.62,-268.54 819,-259 658.18,-233.27 612.57,-273.61 453,-241 452.36,-240.87 451.72,-240.73 451.08,-240.59"/>
<polygon fill="#6f42c1" stroke="#6f42c1" stroke-width="2" points="451.52,-238.17 444.13,-238.8 450.3,-242.92 451.52,-238.17"/>
<text text-anchor="middle" x="962.5" y="-275.1" font-family="Times-Roman" font-size="8.00" fill="#6f42c1">about</text>
</g>
<!-- L4YAML.TokenParser.parseNodeContent._mutual.eq_def&#45;&gt;L4YAML.TokenParser.ParseState.anchors -->
<g id="edge10" class="edge">
<title>L4YAML.TokenParser.parseNodeContent._mutual.eq_def&#45;&gt;L4YAML.TokenParser.ParseState.anchors</title>
<path fill="none" stroke="#6f42c1" stroke-width="2" stroke-dasharray="5,2" d="M1553.73,-325.96C1597.82,-321.22 1646.73,-312.11 1689,-295 1775.83,-259.86 1900.84,-209.63 1835,-143 1826.89,-134.79 1015.51,-133.86 1004,-133 992.78,-132.16 981.03,-130.96 969.43,-129.57"/>
<polygon fill="#6f42c1" stroke="#6f42c1" stroke-width="2" points="969.47,-127.11 962.23,-128.69 968.88,-131.97 969.47,-127.11"/>
<text text-anchor="middle" x="1856.5" y="-221.1" font-family="Times-Roman" font-size="8.00" fill="#6f42c1">about</text>
</g>
<!-- L4YAML.TokenParser.parseNodeContent._mutual.eq_def&#45;&gt;L4YAML.TokenParser.parseNodeContent._mutual -->
<g id="edge20" class="edge">
<title>L4YAML.TokenParser.parseNodeContent._mutual.eq_def&#45;&gt;L4YAML.TokenParser.parseNodeContent._mutual</title>
<path fill="none" stroke="#6f42c1" stroke-width="2" stroke-dasharray="5,2" d="M1342.33,-316.94C1300.48,-310.39 1249.06,-302.32 1203,-295 1103.42,-279.18 1079.24,-269.95 979,-259 842.25,-244.07 806.81,-255.43 670,-241 667.72,-240.76 665.42,-240.51 663.1,-240.24"/>
<polygon fill="#6f42c1" stroke="#6f42c1" stroke-width="2" points="663.33,-237.8 656.09,-239.41 662.75,-242.67 663.33,-237.8"/>
<text text-anchor="middle" x="1215.5" y="-275.1" font-family="Times-Roman" font-size="8.00" fill="#6f42c1">about</text>
</g>
<!-- L4YAML.TokenParser.parseNodeContent._mutual.eq_def&#45;&gt;L4YAML.TokenParser.parseNodeContent._mutual._proof_32 -->
<g id="edge16" class="edge">
<title>L4YAML.TokenParser.parseNodeContent._mutual.eq_def&#45;&gt;L4YAML.TokenParser.parseNodeContent._mutual._proof_32</title>
<path fill="none" stroke="#28a745" stroke-width="2" d="M1472.29,-313.92C1530.19,-291.46 1617.04,-248.54 1576,-205 1552.79,-180.38 1305.71,-189.97 1272,-187 1258.67,-185.82 1244.67,-184.41 1230.85,-182.91"/>
<polygon fill="#28a745" stroke="#28a745" stroke-width="2" points="1230.86,-180.45 1223.64,-182.11 1230.33,-185.32 1230.86,-180.45"/>
<text text-anchor="middle" x="1579" y="-275.1" font-family="Times-Roman" font-size="8.00">uses</text>
</g>
<!-- L4YAML.TokenParser.parseNodeContent._mutual.eq_def&#45;&gt;L4YAML.TokenParser.parseNodeContent._mutual._proof_34 -->
<g id="edge6" class="edge">
<title>L4YAML.TokenParser.parseNodeContent._mutual.eq_def&#45;&gt;L4YAML.TokenParser.parseNodeContent._mutual._proof_34</title>
<path fill="none" stroke="#28a745" stroke-width="2" d="M1380.91,-314.02C1326.83,-294.84 1236.33,-262.76 1179.25,-242.52"/>
<polygon fill="#28a745" stroke="#28a745" stroke-width="2" points="1179.87,-240.14 1172.45,-240.11 1178.23,-244.76 1179.87,-240.14"/>
<text text-anchor="middle" x="1330" y="-275.1" font-family="Times-Roman" font-size="8.00">uses</text>
</g>
<!-- L4YAML.TokenParser.parseNodeContent._mutual.eq_def&#45;&gt;L4YAML.TokenParser.parseNodeContent._mutual._proof_27 -->
<g id="edge12" class="edge">
<title>L4YAML.TokenParser.parseNodeContent._mutual.eq_def&#45;&gt;L4YAML.TokenParser.parseNodeContent._mutual._proof_27</title>
<path fill="none" stroke="#28a745" stroke-width="2" d="M1534.86,-320.52C1567.27,-315.3 1596.87,-307.28 1607,-295 1617.18,-282.66 1609.3,-274.83 1607,-259 1603.41,-234.23 1609.51,-221.85 1591,-205 1580.11,-195.09 1553.43,-187.75 1523.95,-182.42"/>
<polygon fill="#28a745" stroke="#28a745" stroke-width="2" points="1524.12,-179.97 1516.81,-181.18 1523.28,-184.79 1524.12,-179.97"/>
<text text-anchor="middle" x="1622" y="-275.1" font-family="Times-Roman" font-size="8.00">uses</text>
</g>
<!-- L4YAML.TokenParser.parseNodeContent._mutual.eq_def&#45;&gt;L4YAML.TokenParser.parseNodeContent._mutual._proof_1 -->
<g id="edge14" class="edge">
<title>L4YAML.TokenParser.parseNodeContent._mutual.eq_def&#45;&gt;L4YAML.TokenParser.parseNodeContent._mutual._proof_1</title>
<path fill="none" stroke="#28a745" stroke-width="2" d="M1536.29,-320.86C1578.13,-315.5 1619.63,-307.29 1636,-295 1668.83,-270.34 1684.54,-223.06 1691.38,-194.24"/>
<polygon fill="#28a745" stroke="#28a745" stroke-width="2" points="1693.79,-194.71 1692.93,-187.34 1689.01,-193.63 1693.79,-194.71"/>
<text text-anchor="middle" x="1675" y="-275.1" font-family="Times-Roman" font-size="8.00">uses</text>
</g>
<!-- L4YAML.TokenParser.parseNodeContent._mutual.eq_def&#45;&gt;L4YAML.TokenParser.parseNodeContent._mutual._proof_19 -->
<g id="edge22" class="edge">
<title>L4YAML.TokenParser.parseNodeContent._mutual.eq_def&#45;&gt;L4YAML.TokenParser.parseNodeContent._mutual._proof_19</title>
<path fill="none" stroke="#28a745" stroke-width="2" d="M1426,-312.97C1426,-295.53 1426,-268.26 1426,-248.51"/>
<polygon fill="#28a745" stroke="#28a745" stroke-width="2" points="1428.45,-248.34 1426,-241.34 1423.55,-248.34 1428.45,-248.34"/>
<text text-anchor="middle" x="1436" y="-275.1" font-family="Times-Roman" font-size="8.00">uses</text>
</g>
<!-- L4YAML.TokenParser.parseBlockSequence.eq_def -->
<g id="node19" class="node">
<title>L4YAML.TokenParser.parseBlockSequence.eq_def</title>
<g id="a_node19"><a xlink:href="../../../api/L4YAML/Parser/TokenParser.html#L4YAML.TokenParser.parseBlockSequence.eq_def" xlink:title="TokenParser.parseBlockSequence.eq_def" target="_blank">
<polygon fill="#fff3cd" stroke="#d4a017" points="1244.37,-428.54 1244.37,-443.46 1169.76,-454 1064.24,-454 989.63,-443.46 989.63,-428.54 1064.24,-418 1169.76,-418 1244.37,-428.54"/>
<polygon fill="none" stroke="#d4a017" points="1248.37,-425.07 1248.37,-446.93 1170.04,-458 1063.96,-458 985.63,-446.93 985.63,-425.07 1063.96,-414 1170.04,-414 1248.37,-425.07"/>
<text text-anchor="middle" x="1117" y="-433.5" font-family="Helvetica" font-size="10.00">TokenParser.parseBlockSequence.eq_def</text>
</a>
</g>
</g>
<!-- L4YAML.TokenParser.parseBlockSequence.eq_def&#45;&gt;L4YAML.TokenParser.parseBlockSequenceLoop -->
<g id="edge18" class="edge">
<title>L4YAML.TokenParser.parseBlockSequence.eq_def&#45;&gt;L4YAML.TokenParser.parseBlockSequenceLoop</title>
<path fill="none" stroke="#6f42c1" stroke-width="2" stroke-dasharray="5,2" d="M1043.71,-416.72C1022.03,-410.74 998.38,-403.65 977,-396 941.38,-383.25 902.2,-365.74 873.56,-352.26"/>
<polygon fill="#6f42c1" stroke="#6f42c1" stroke-width="2" points="874.25,-349.87 866.88,-349.09 872.16,-354.3 874.25,-349.87"/>
<text text-anchor="middle" x="989.5" y="-389.6" font-family="Times-Roman" font-size="8.00" fill="#6f42c1">about</text>
</g>
<!-- L4YAML.TokenParser.parseBlockSequence.eq_def&#45;&gt;L4YAML.TokenParser.ParseState.advance -->
<g id="edge8" class="edge">
<title>L4YAML.TokenParser.parseBlockSequence.eq_def&#45;&gt;L4YAML.TokenParser.ParseState.advance</title>
<path fill="none" stroke="#6f42c1" stroke-width="2" stroke-dasharray="5,2" d="M1093.08,-413.79C1060.04,-385.78 997.43,-337.19 935,-313 886.78,-294.31 869.56,-303.35 816.9,-295.25"/>
<polygon fill="#6f42c1" stroke="#6f42c1" stroke-width="2" points="817.25,-292.83 809.95,-294.12 816.46,-297.66 817.25,-292.83"/>
<text text-anchor="middle" x="1083.5" y="-389.6" font-family="Times-Roman" font-size="8.00" fill="#6f42c1">about</text>
</g>
<!-- L4YAML.TokenParser.parseBlockSequence.eq_def&#45;&gt;L4YAML.TokenParser.ParseState.currentLine -->
<g id="edge1" class="edge">
<title>L4YAML.TokenParser.parseBlockSequence.eq_def&#45;&gt;L4YAML.TokenParser.ParseState.currentLine</title>
<path fill="none" stroke="#6f42c1" stroke-width="2" stroke-dasharray="5,2" d="M1001.62,-422.76C924.04,-413.46 819.75,-398.85 729,-379 694.88,-371.54 657.39,-360.59 627.39,-351.14"/>
<polygon fill="#6f42c1" stroke="#6f42c1" stroke-width="2" points="628.13,-348.8 620.71,-349.02 626.65,-353.47 628.13,-348.8"/>
<text text-anchor="middle" x="825.5" y="-389.6" font-family="Times-Roman" font-size="8.00" fill="#6f42c1">about</text>
</g>
<!-- L4YAML.TokenParser.parseBlockSequence.eq_def&#45;&gt;L4YAML.TokenParser.parseNodeContent._mutual.eq_def -->
<g id="edge3" class="edge">
<title>L4YAML.TokenParser.parseBlockSequence.eq_def&#45;&gt;L4YAML.TokenParser.parseNodeContent._mutual.eq_def</title>
<path fill="none" stroke="#28a745" stroke-width="2" d="M1177.31,-414.9C1233.74,-396.09 1317.26,-368.25 1371.67,-350.11"/>
<polygon fill="#28a745" stroke="#28a745" stroke-width="2" points="1372.62,-352.38 1378.48,-347.84 1371.07,-347.73 1372.62,-352.38"/>
<text text-anchor="middle" x="1262" y="-389.6" font-family="Times-Roman" font-size="8.00">uses</text>
</g>
</g>
</svg>
