<?xml version="1.0" encoding="UTF-8" standalone="no"?>
<!DOCTYPE svg PUBLIC "-//W3C//DTD SVG 1.1//EN"
 "http://www.w3.org/Graphics/SVG/1.1/DTD/svg11.dtd">
<!-- Generated by graphviz version 2.44.0 (0)
 -->
<!-- Title: collectTagHandleDirectiveLoop.eq_def Pages: 1 -->
<svg width="708pt" height="472pt"
 viewBox="0.00 0.00 708.36 472.00" xmlns="http://www.w3.org/2000/svg" xmlns:xlink="http://www.w3.org/1999/xlink">
<g id="graph0" class="graph" transform="scale(1 1) rotate(0) translate(4 468)">
<title>collectTagHandleDirectiveLoop.eq_def</title>
<polygon fill="white" stroke="transparent" points="-4,4 -4,-468 704.36,-468 704.36,4 -4,4"/>
<text text-anchor="middle" x="350.18" y="-449.6" font-family="Helvetica Bold" font-size="13.00">collectTagHandleDirectiveLoop.eq_def</text>
<text text-anchor="middle" x="350.18" y="-435.6" font-family="Helvetica Bold" font-size="13.00">(heuristic: used by 8 proofs)</text>
<text text-anchor="middle" x="350.18" y="-421.6" font-family="Helvetica Bold" font-size="13.00">(L4YAML.Proofs.Coupling.StructureCoupling)</text>
<g id="clust1" class="cluster">
<title>cluster_functions</title>
<polygon fill="none" stroke="#4a90d9" stroke-dasharray="5,2" points="505.36,-8 505.36,-406 692.36,-406 692.36,-8 505.36,-8"/>
<text text-anchor="middle" x="598.86" y="-391.6" font-family="Helvetica Bold" font-size="13.00" fill="#4a90d9">Functions</text>
</g>
<g id="clust2" class="cluster">
<title>cluster_key</title>
<polygon fill="none" stroke="#d4a017" stroke-dasharray="5,2" points="139.19,-166 139.19,-248 460.36,-248 460.36,-166 139.19,-166"/>
<text text-anchor="middle" x="299.77" y="-233.6" font-family="Helvetica Bold" font-size="13.00" fill="#d4a017">Key Theorem</text>
</g>
<g id="clust4" class="cluster">
<title>cluster_stdlib</title>
<polygon fill="none" stroke="#e67e22" stroke-dasharray="5,2" points="8,-170 8,-244 118.19,-244 118.19,-170 8,-170"/>
<text text-anchor="middle" x="63.09" y="-229.6" font-family="Helvetica Bold" font-size="13.00" fill="#e67e22">Stdlib Lemmas</text>
</g>
<!-- L4YAML.Scanner.collectDirectiveNameLoop.match_3 -->
<g id="node1" class="node">
<title>L4YAML.Scanner.collectDirectiveNameLoop.match_3</title>
<g id="a_node1"><a xlink:href="../../../api/L4YAML/Scanner/Document.html#L4YAML.Scanner.collectDirectiveNameLoop.match_3" xlink:title="collectDirectiveNameLoop.match_3\n(def)" target="_blank">
<polygon fill="#dce9f7" stroke="#4a90d9" points="684.36,-376 513.36,-376 513.36,-340 684.36,-340 684.36,-376"/>
<text text-anchor="middle" x="598.86" y="-361" font-family="Helvetica" font-size="10.00">collectDirectiveNameLoop.match_3</text>
<text text-anchor="middle" x="598.86" y="-350" font-family="Helvetica" font-size="10.00">(def)</text>
</a>
</g>
</g>
<!-- L4YAML.Scanner.ScannerState.advance -->
<g id="node2" class="node">
<title>L4YAML.Scanner.ScannerState.advance</title>
<g id="a_node2"><a xlink:href="../../../api/L4YAML/Scanner/State.html#L4YAML.Scanner.ScannerState.advance" xlink:title="ScannerState.advance\n(def)" target="_blank">
<polygon fill="#dce9f7" stroke="#4a90d9" points="656.36,-322 541.36,-322 541.36,-286 656.36,-286 656.36,-322"/>
<text text-anchor="middle" x="598.86" y="-307" font-family="Helvetica" font-size="10.00">ScannerState.advance</text>
<text text-anchor="middle" x="598.86" y="-296" font-family="Helvetica" font-size="10.00">(def)</text>
</a>
</g>
</g>
<!-- L4YAML.Scanner.ScannerState.peek? -->
<g id="node3" class="node">
<title>L4YAML.Scanner.ScannerState.peek?</title>
<g id="a_node3"><a xlink:href="../../../api/L4YAML/Scanner/State.html#L4YAML.Scanner.ScannerState.peek?" xlink:title="ScannerState.peek?\n(def)" target="_blank">
<polygon fill="#dce9f7" stroke="#4a90d9" points="650.86,-268 546.86,-268 546.86,-232 650.86,-232 650.86,-268"/>
<text text-anchor="middle" x="598.86" y="-253" font-family="Helvetica" font-size="10.00">ScannerState.peek?</text>
<text text-anchor="middle" x="598.86" y="-242" font-family="Helvetica" font-size="10.00">(def)</text>
</a>
</g>
</g>
<!-- L4YAML.Scanner.ScannerState -->
<g id="node4" class="node">
<title>L4YAML.Scanner.ScannerState</title>
<g id="a_node4"><a xlink:href="../../../api/L4YAML/Scanner/State.html#L4YAML.Scanner.ScannerState" xlink:title="ScannerState\n(inductive)" target="_blank">
<polygon fill="#dce9f7" stroke="#4a90d9" points="636.86,-214 560.86,-214 560.86,-178 636.86,-178 636.86,-214"/>
<text text-anchor="middle" x="598.86" y="-199" font-family="Helvetica" font-size="10.00">ScannerState</text>
<text text-anchor="middle" x="598.86" y="-188" font-family="Helvetica" font-size="10.00">(inductive)</text>
</a>
</g>
</g>
<!-- L4YAML.Scanner.collectTagHandleDirectiveLoop -->
<g id="node5" class="node">
<title>L4YAML.Scanner.collectTagHandleDirectiveLoop</title>
<g id="a_node5"><a xlink:href="../../../api/L4YAML/Scanner/Document.html#L4YAML.Scanner.collectTagHandleDirectiveLoop" xlink:title="collectTagHandleDirectiveLoop\n(def)" target="_blank">
<polygon fill="#dce9f7" stroke="#4a90d9" points="674.36,-160 523.36,-160 523.36,-124 674.36,-124 674.36,-160"/>
<text text-anchor="middle" x="598.86" y="-145" font-family="Helvetica" font-size="10.00">collectTagHandleDirectiveLoop</text>
<text text-anchor="middle" x="598.86" y="-134" font-family="Helvetica" font-size="10.00">(def)</text>
</a>
</g>
</g>
<!-- L4YAML.CharPredicates.isWordCharBool -->
<g id="node6" class="node">
<title>L4YAML.CharPredicates.isWordCharBool</title>
<g id="a_node6"><a xlink:href="../../../api/L4YAML/Spec/CharPredicates.html#L4YAML.CharPredicates.isWordCharBool" xlink:title="CharPredicates.isWordCharBool\n(def)" target="_blank">
<polygon fill="#dce9f7" stroke="#4a90d9" points="677.86,-106 519.86,-106 519.86,-70 677.86,-70 677.86,-106"/>
<text text-anchor="middle" x="598.86" y="-91" font-family="Helvetica" font-size="10.00">CharPredicates.isWordCharBool</text>
<text text-anchor="middle" x="598.86" y="-80" font-family="Helvetica" font-size="10.00">(def)</text>
</a>
</g>
</g>
<!-- L4YAML.Scanner.collectDirectiveNameLoop.match_1 -->
<g id="node7" class="node">
<title>L4YAML.Scanner.collectDirectiveNameLoop.match_1</title>
<g id="a_node7"><a xlink:href="../../../api/L4YAML/Scanner/Document.html#L4YAML.Scanner.collectDirectiveNameLoop.match_1" xlink:title="collectDirectiveNameLoop.match_1\n(def)" target="_blank">
<polygon fill="#dce9f7" stroke="#4a90d9" points="684.36,-52 513.36,-52 513.36,-16 684.36,-16 684.36,-52"/>
<text text-anchor="middle" x="598.86" y="-37" font-family="Helvetica" font-size="10.00">collectDirectiveNameLoop.match_1</text>
<text text-anchor="middle" x="598.86" y="-26" font-family="Helvetica" font-size="10.00">(def)</text>
</a>
</g>
</g>
<!-- L4YAML.Scanner.collectTagHandleDirectiveLoop.eq_def -->
<g id="node8" class="node">
<title>L4YAML.Scanner.collectTagHandleDirectiveLoop.eq_def</title>
<g id="a_node8"><a xlink:href="../../../api/L4YAML/Proofs/Coupling/StructureCoupling.html#L4YAML.Scanner.collectTagHandleDirectiveLoop.eq_def" xlink:title="collectTagHandleDirectiveLoop.eq_def" target="_blank">
<polygon fill="#fff3cd" stroke="#d4a017" points="448.44,-188.54 448.44,-203.46 361.35,-214 238.19,-214 151.1,-203.46 151.1,-188.54 238.19,-178 361.35,-178 448.44,-188.54"/>
<polygon fill="none" stroke="#d4a017" points="452.45,-185 452.45,-207 361.6,-218 237.95,-218 147.1,-207 147.1,-185 237.95,-174 361.6,-174 452.45,-185"/>
<text text-anchor="middle" x="299.77" y="-192.9" font-family="Helvetica" font-size="12.00">collectTagHandleDirectiveLoop.eq_def</text>
</a>
</g>
</g>
<!-- L4YAML.Scanner.collectTagHandleDirectiveLoop.eq_def&#45;&gt;L4YAML.Scanner.collectDirectiveNameLoop.match_3 -->
<g id="edge2" class="edge">
<title>L4YAML.Scanner.collectTagHandleDirectiveLoop.eq_def&#45;&gt;L4YAML.Scanner.collectDirectiveNameLoop.match_3</title>
<path fill="none" stroke="#4a90d9" stroke-width="2" d="M328.31,-218.09C366.18,-247.52 437.4,-299.53 505.36,-331 510.27,-333.27 515.41,-335.4 520.66,-337.39"/>
<polygon fill="#4a90d9" stroke="#4a90d9" stroke-width="2" points="519.93,-339.73 527.34,-339.83 521.61,-335.13 519.93,-339.73"/>
<text text-anchor="middle" x="482.86" y="-327.6" font-family="Times-Roman" font-size="8.00" fill="#4a90d9">about</text>
</g>
<!-- L4YAML.Scanner.collectTagHandleDirectiveLoop.eq_def&#45;&gt;L4YAML.Scanner.ScannerState.advance -->
<g id="edge1" class="edge">
<title>L4YAML.Scanner.collectTagHandleDirectiveLoop.eq_def&#45;&gt;L4YAML.Scanner.ScannerState.advance</title>
<path fill="none" stroke="#4a90d9" stroke-width="2" d="M352.83,-218.16C393.88,-235.26 452.78,-258.96 505.36,-277 514.74,-280.22 524.75,-283.4 534.57,-286.38"/>
<polygon fill="#4a90d9" stroke="#4a90d9" stroke-width="2" points="533.93,-288.74 541.34,-288.41 535.34,-284.05 533.93,-288.74"/>
<text text-anchor="middle" x="482.86" y="-275.6" font-family="Times-Roman" font-size="8.00" fill="#4a90d9">about</text>
</g>
<!-- L4YAML.Scanner.collectTagHandleDirectiveLoop.eq_def&#45;&gt;L4YAML.Scanner.ScannerState.peek? -->
<g id="edge7" class="edge">
<title>L4YAML.Scanner.collectTagHandleDirectiveLoop.eq_def&#45;&gt;L4YAML.Scanner.ScannerState.peek?</title>
<path fill="none" stroke="#4a90d9" stroke-width="2" d="M398.05,-213.68C444.82,-222.18 499.33,-232.09 539.58,-239.41"/>
<polygon fill="#4a90d9" stroke="#4a90d9" stroke-width="2" points="539.35,-241.86 546.68,-240.7 540.23,-237.03 539.35,-241.86"/>
<text text-anchor="middle" x="482.86" y="-232.6" font-family="Times-Roman" font-size="8.00" fill="#4a90d9">about</text>
</g>
<!-- L4YAML.Scanner.collectTagHandleDirectiveLoop.eq_def&#45;&gt;L4YAML.Scanner.ScannerState -->
<g id="edge3" class="edge">
<title>L4YAML.Scanner.collectTagHandleDirectiveLoop.eq_def&#45;&gt;L4YAML.Scanner.ScannerState</title>
<path fill="none" stroke="#4a90d9" stroke-width="2" d="M452.36,-196C489.39,-196 526.17,-196 553.49,-196"/>
<polygon fill="#4a90d9" stroke="#4a90d9" stroke-width="2" points="553.58,-198.45 560.58,-196 553.58,-193.55 553.58,-198.45"/>
<text text-anchor="middle" x="482.86" y="-198.6" font-family="Times-Roman" font-size="8.00" fill="#4a90d9">about</text>
</g>
<!-- L4YAML.Scanner.collectTagHandleDirectiveLoop.eq_def&#45;&gt;L4YAML.Scanner.collectTagHandleDirectiveLoop -->
<g id="edge5" class="edge">
<title>L4YAML.Scanner.collectTagHandleDirectiveLoop.eq_def&#45;&gt;L4YAML.Scanner.collectTagHandleDirectiveLoop</title>
<path fill="none" stroke="#4a90d9" stroke-width="2" d="M398.05,-178.32C436.13,-171.4 479.32,-163.55 515.79,-156.92"/>
<polygon fill="#4a90d9" stroke="#4a90d9" stroke-width="2" points="516.54,-159.27 522.99,-155.61 515.66,-154.45 516.54,-159.27"/>
<text text-anchor="middle" x="482.86" y="-166.6" font-family="Times-Roman" font-size="8.00" fill="#4a90d9">about</text>
</g>
<!-- L4YAML.Scanner.collectTagHandleDirectiveLoop.eq_def&#45;&gt;L4YAML.CharPredicates.isWordCharBool -->
<g id="edge6" class="edge">
<title>L4YAML.Scanner.collectTagHandleDirectiveLoop.eq_def&#45;&gt;L4YAML.CharPredicates.isWordCharBool</title>
<path fill="none" stroke="#4a90d9" stroke-width="2" d="M352.83,-173.84C393.88,-156.74 452.78,-133.04 505.36,-115 512,-112.72 518.96,-110.46 525.94,-108.28"/>
<polygon fill="#4a90d9" stroke="#4a90d9" stroke-width="2" points="526.96,-110.53 532.93,-106.12 525.52,-105.85 526.96,-110.53"/>
<text text-anchor="middle" x="482.86" y="-129.6" font-family="Times-Roman" font-size="8.00" fill="#4a90d9">about</text>
</g>
<!-- L4YAML.Scanner.collectTagHandleDirectiveLoop.eq_def&#45;&gt;L4YAML.Scanner.collectDirectiveNameLoop.match_1 -->
<g id="edge4" class="edge">
<title>L4YAML.Scanner.collectTagHandleDirectiveLoop.eq_def&#45;&gt;L4YAML.Scanner.collectDirectiveNameLoop.match_1</title>
<path fill="none" stroke="#4a90d9" stroke-width="2" d="M328.31,-173.91C366.18,-144.48 437.4,-92.47 505.36,-61 510.27,-58.73 515.41,-56.6 520.66,-54.61"/>
<polygon fill="#4a90d9" stroke="#4a90d9" stroke-width="2" points="521.61,-56.87 527.34,-52.17 519.93,-52.27 521.61,-56.87"/>
<text text-anchor="middle" x="482.86" y="-77.6" font-family="Times-Roman" font-size="8.00" fill="#4a90d9">about</text>
</g>
<!-- Nat.brecOn.eq -->
<g id="node9" class="node">
<title>Nat.brecOn.eq</title>
<g id="a_node9"><a xlink:href="../../../api/Init/Prelude.html#Nat.brecOn.eq" xlink:title="Nat.brecOn.eq" target="_blank">
<ellipse fill="#fdebd0" stroke="#e67e22" cx="63.09" cy="-196" rx="47.19" ry="18"/>
<text text-anchor="middle" x="63.09" y="-193.5" font-family="Helvetica" font-size="10.00">Nat.brecOn.eq</text>
</a>
</g>
</g>
<!-- Nat.brecOn.eq&#45;&gt;L4YAML.Scanner.collectTagHandleDirectiveLoop.eq_def -->
<g id="edge8" class="edge">
<title>Nat.brecOn.eq&#45;&gt;L4YAML.Scanner.collectTagHandleDirectiveLoop.eq_def</title>
<path fill="none" stroke="#e67e22" stroke-width="2" d="M110.46,-196C119.47,-196 129.37,-196 139.77,-196"/>
<polygon fill="#e67e22" stroke="#e67e22" stroke-width="2" points="140.05,-198.45 147.05,-196 140.05,-193.55 140.05,-198.45"/>
</g>
</g>
</svg>
