<?xml version="1.0" encoding="UTF-8" standalone="no"?>
<!DOCTYPE svg PUBLIC "-//W3C//DTD SVG 1.1//EN"
 "http://www.w3.org/Graphics/SVG/1.1/DTD/svg11.dtd">
<!-- Generated by graphviz version 2.44.0 (0)
 -->
<!-- Title: chain_ScannerCorrectness.ScanHelpers.collectTagHandleLoop_preserves_tokens Pages: 1 -->
<svg width="759pt" height="324pt"
 viewBox="0.00 0.00 759.00 324.00" xmlns="http://www.w3.org/2000/svg" xmlns:xlink="http://www.w3.org/1999/xlink">
<g id="graph0" class="graph" transform="scale(1 1) rotate(0) translate(4 320)">
<title>chain_ScannerCorrectness.ScanHelpers.collectTagHandleLoop_preserves_tokens</title>
<polygon fill="white" stroke="transparent" points="-4,4 -4,-320 755,-320 755,4 -4,4"/>
<text text-anchor="middle" x="375.5" y="-301.6" font-family="Helvetica Bold" font-size="13.00">Functorial Chains: ScannerCorrectness.ScanHelpers.collectTagHandleLoop_preserves_tokens</text>
<text text-anchor="middle" x="375.5" y="-287.6" font-family="Helvetica Bold" font-size="13.00">(heuristic: used by 7 proofs)</text>
<g id="clust1" class="cluster">
<title>cluster_fns</title>
<polygon fill="none" stroke="#4a90d9" stroke-dasharray="5,2" points="488,-8 488,-163 743,-163 743,-8 488,-8"/>
<text text-anchor="middle" x="615.5" y="-148.6" font-family="Helvetica Bold" font-size="13.00" fill="#4a90d9">Functions (Call Chain)</text>
</g>
<g id="clust2" class="cluster">
<title>cluster_thms</title>
<polygon fill="none" stroke="#28a745" stroke-dasharray="5,2" points="8,-89 8,-272 480,-272 480,-89 8,-89"/>
<text text-anchor="middle" x="244" y="-257.6" font-family="Helvetica Bold" font-size="13.00" fill="#28a745">Theorems (Proof Chain)</text>
</g>
<!-- L4YAML.Scanner.collectTagHandleLoop -->
<g id="node1" class="node">
<title>L4YAML.Scanner.collectTagHandleLoop</title>
<g id="a_node1"><a xlink:href="../../../api/L4YAML/Scanner/NodeProperties.html#L4YAML.Scanner.collectTagHandleLoop" xlink:title="collectTagHandleLoop" target="_blank">
<polygon fill="#dce9f7" stroke="#4a90d9" points="609.5,-133 496.5,-133 496.5,-97 609.5,-97 609.5,-133"/>
<text text-anchor="middle" x="553" y="-112.5" font-family="Helvetica" font-size="10.00">collectTagHandleLoop</text>
</a>
</g>
</g>
<!-- L4YAML.Scanner.ScannerState -->
<g id="node2" class="node">
<title>L4YAML.Scanner.ScannerState</title>
<g id="a_node2"><a xlink:href="../../../api/L4YAML/Scanner/State.html#L4YAML.Scanner.ScannerState" xlink:title="ScannerState" target="_blank">
<polygon fill="#dce9f7" stroke="#4a90d9" points="581,-52 505,-52 505,-16 581,-16 581,-52"/>
<text text-anchor="middle" x="543" y="-31.5" font-family="Helvetica" font-size="10.00">ScannerState</text>
</a>
</g>
</g>
<!-- L4YAML.Scanner.collectTagHandleLoop&#45;&gt;L4YAML.Scanner.ScannerState -->
<g id="edge2" class="edge">
<title>L4YAML.Scanner.collectTagHandleLoop&#45;&gt;L4YAML.Scanner.ScannerState</title>
<path fill="none" stroke="#4a90d9" stroke-width="2" d="M550.83,-96.86C549.44,-85.88 547.62,-71.48 546.08,-59.33"/>
<polygon fill="#4a90d9" stroke="#4a90d9" stroke-width="2" points="548.48,-58.75 545.17,-52.11 543.61,-59.36 548.48,-58.75"/>
<text text-anchor="middle" x="557.5" y="-72.6" font-family="Times-Roman" font-size="8.00">calls</text>
</g>
<!-- L4YAML.Scanner.ScannerState.tokens -->
<g id="node3" class="node">
<title>L4YAML.Scanner.ScannerState.tokens</title>
<g id="a_node3"><a xlink:href="../../../api/L4YAML/Scanner/State.html#L4YAML.Scanner.ScannerState.tokens" xlink:title="ScannerState.tokens" target="_blank">
<polygon fill="#dce9f7" stroke="#4a90d9" points="734.5,-133 627.5,-133 627.5,-97 734.5,-97 734.5,-133"/>
<text text-anchor="middle" x="681" y="-112.5" font-family="Helvetica" font-size="10.00">ScannerState.tokens</text>
</a>
</g>
</g>
<!-- L4YAML.Scanner.ScannerState.tokens&#45;&gt;L4YAML.Scanner.ScannerState -->
<g id="edge6" class="edge">
<title>L4YAML.Scanner.ScannerState.tokens&#45;&gt;L4YAML.Scanner.ScannerState</title>
<path fill="none" stroke="#4a90d9" stroke-width="2" d="M651.06,-96.86C629.9,-84.75 601.43,-68.45 579.03,-55.63"/>
<polygon fill="#4a90d9" stroke="#4a90d9" stroke-width="2" points="580.18,-53.46 572.89,-52.11 577.74,-57.71 580.18,-53.46"/>
<text text-anchor="middle" x="625.5" y="-72.6" font-family="Times-Roman" font-size="8.00">calls</text>
</g>
<!-- L4YAML.Proofs.ScannerCorrectness.ScanHelpers.collectTagHandleLoop_preserves_tokens -->
<g id="node4" class="node">
<title>L4YAML.Proofs.ScannerCorrectness.ScanHelpers.collectTagHandleLoop_preserves_tokens</title>
<g id="a_node4"><a xlink:href="../../../api/L4YAML/Proofs/Scanner/ScannerCorrectness.html#L4YAML.Proofs.ScannerCorrectness.ScanHelpers.collectTagHandleLoop_preserves_tokens" xlink:title="ScannerCorrectness.ScanHelpers.collectTagHandleLoop_preserves_tokens" target="_blank">
<polygon fill="#fff3cd" stroke="#d4a017" points="468.19,-212.54 468.19,-227.46 338.62,-238 155.38,-238 25.81,-227.46 25.81,-212.54 155.38,-202 338.62,-202 468.19,-212.54"/>
<polygon fill="none" stroke="#d4a017" points="472.19,-208.86 472.19,-231.14 338.78,-242 155.22,-242 21.81,-231.14 21.81,-208.86 155.22,-198 338.78,-198 472.19,-208.86"/>
<text text-anchor="middle" x="247" y="-217.5" font-family="Helvetica" font-size="10.00">ScannerCorrectness.ScanHelpers.collectTagHandleLoop_preserves_tokens</text>
</a>
</g>
</g>
<!-- L4YAML.Proofs.ScannerCorrectness.ScanHelpers.collectTagHandleLoop_preserves_tokens&#45;&gt;L4YAML.Scanner.collectTagHandleLoop -->
<g id="edge1" class="edge">
<title>L4YAML.Proofs.ScannerCorrectness.ScanHelpers.collectTagHandleLoop_preserves_tokens&#45;&gt;L4YAML.Scanner.collectTagHandleLoop</title>
<path fill="none" stroke="#6f42c1" stroke-width="2" stroke-dasharray="5,2" d="M364.58,-200.1C403.58,-191.52 446.57,-179.49 484,-163 498.93,-156.42 514.08,-146.54 526.36,-137.53"/>
<polygon fill="#6f42c1" stroke="#6f42c1" stroke-width="2" points="528.01,-139.36 532.14,-133.2 525.07,-135.43 528.01,-139.36"/>
<text text-anchor="middle" x="471.5" y="-173.6" font-family="Times-Roman" font-size="8.00" fill="#6f42c1">about</text>
</g>
<!-- L4YAML.Proofs.ScannerCorrectness.ScanHelpers.collectTagHandleLoop_preserves_tokens&#45;&gt;L4YAML.Scanner.ScannerState.tokens -->
<g id="edge5" class="edge">
<title>L4YAML.Proofs.ScannerCorrectness.ScanHelpers.collectTagHandleLoop_preserves_tokens&#45;&gt;L4YAML.Scanner.ScannerState.tokens</title>
<path fill="none" stroke="#6f42c1" stroke-width="2" stroke-dasharray="5,2" d="M449.89,-207.01C506.22,-198.77 566.34,-185.2 619,-163 633.2,-157.01 647.06,-147.02 658.06,-137.79"/>
<polygon fill="#6f42c1" stroke="#6f42c1" stroke-width="2" points="659.85,-139.49 663.54,-133.06 656.64,-135.78 659.85,-139.49"/>
<text text-anchor="middle" x="602.5" y="-173.6" font-family="Times-Roman" font-size="8.00" fill="#6f42c1">about</text>
</g>
<!-- L4YAML.Proofs.ScannerCorrectness.advance_preserves_tokens -->
<g id="node5" class="node">
<title>L4YAML.Proofs.ScannerCorrectness.advance_preserves_tokens</title>
<g id="a_node5"><a xlink:href="../../../api/L4YAML/Proofs/Scanner/ScannerCorrectness.html#L4YAML.Proofs.ScannerCorrectness.advance_preserves_tokens" xlink:title="ScannerCorrectness.advance_preserves_tokens" target="_blank">
<ellipse fill="#d4edda" stroke="#28a745" cx="150" cy="-115" rx="133.75" ry="18"/>
<text text-anchor="middle" x="150" y="-112.5" font-family="Helvetica" font-size="10.00">ScannerCorrectness.advance_preserves_tokens</text>
</a>
</g>
</g>
<!-- L4YAML.Proofs.ScannerCorrectness.ScanHelpers.collectTagHandleLoop_preserves_tokens&#45;&gt;L4YAML.Proofs.ScannerCorrectness.advance_preserves_tokens -->
<g id="edge3" class="edge">
<title>L4YAML.Proofs.ScannerCorrectness.ScanHelpers.collectTagHandleLoop_preserves_tokens&#45;&gt;L4YAML.Proofs.ScannerCorrectness.advance_preserves_tokens</title>
<path fill="none" stroke="#28a745" stroke-width="2" d="M226.9,-197.66C210.51,-180.25 187.43,-155.74 170.84,-138.13"/>
<polygon fill="#28a745" stroke="#28a745" stroke-width="2" points="172.49,-136.31 165.91,-132.89 168.93,-139.67 172.49,-136.31"/>
<text text-anchor="middle" x="220" y="-173.6" font-family="Times-Roman" font-size="8.00">uses</text>
</g>
<!-- L4YAML.Scanner.collectTagHandleLoop.eq_def -->
<g id="node6" class="node">
<title>L4YAML.Scanner.collectTagHandleLoop.eq_def</title>
<g id="a_node6"><a xlink:href="../../../api/L4YAML/Proofs/Coupling/StructureCoupling.html#L4YAML.Scanner.collectTagHandleLoop.eq_def" xlink:title="collectTagHandleLoop.eq_def" target="_blank">
<ellipse fill="#d4edda" stroke="#28a745" cx="387" cy="-115" rx="85.21" ry="18"/>
<text text-anchor="middle" x="387" y="-112.5" font-family="Helvetica" font-size="10.00">collectTagHandleLoop.eq_def</text>
</a>
</g>
</g>
<!-- L4YAML.Proofs.ScannerCorrectness.ScanHelpers.collectTagHandleLoop_preserves_tokens&#45;&gt;L4YAML.Scanner.collectTagHandleLoop.eq_def -->
<g id="edge7" class="edge">
<title>L4YAML.Proofs.ScannerCorrectness.ScanHelpers.collectTagHandleLoop_preserves_tokens&#45;&gt;L4YAML.Scanner.collectTagHandleLoop.eq_def</title>
<path fill="none" stroke="#28a745" stroke-width="2" d="M275.67,-197.91C299.86,-180.11 334.31,-154.77 358.46,-137"/>
<polygon fill="#28a745" stroke="#28a745" stroke-width="2" points="360.18,-138.77 364.37,-132.65 357.28,-134.83 360.18,-138.77"/>
<text text-anchor="middle" x="318" y="-173.6" font-family="Times-Roman" font-size="8.00">uses</text>
</g>
<!-- L4YAML.Proofs.ScannerCorrectness.advance_preserves_tokens&#45;&gt;L4YAML.Scanner.ScannerState -->
<g id="edge4" class="edge">
<title>L4YAML.Proofs.ScannerCorrectness.advance_preserves_tokens&#45;&gt;L4YAML.Scanner.ScannerState</title>
<path fill="none" stroke="#6f42c1" stroke-width="2" stroke-dasharray="5,2" d="M221.17,-99.69C301.52,-83.54 429.86,-57.74 497.64,-44.12"/>
<polygon fill="#6f42c1" stroke="#6f42c1" stroke-width="2" points="498.43,-46.46 504.81,-42.68 497.46,-41.66 498.43,-46.46"/>
<text text-anchor="middle" x="370.5" y="-72.6" font-family="Times-Roman" font-size="8.00" fill="#6f42c1">about</text>
</g>
<!-- L4YAML.Scanner.collectTagHandleLoop.eq_def&#45;&gt;L4YAML.Scanner.ScannerState -->
<g id="edge8" class="edge">
<title>L4YAML.Scanner.collectTagHandleLoop.eq_def&#45;&gt;L4YAML.Scanner.ScannerState</title>
<path fill="none" stroke="#6f42c1" stroke-width="2" stroke-dasharray="5,2" d="M418.19,-98.2C442.54,-85.87 476.54,-68.66 502.9,-55.31"/>
<polygon fill="#6f42c1" stroke="#6f42c1" stroke-width="2" points="504.29,-57.35 509.43,-52 502.08,-52.98 504.29,-57.35"/>
<text text-anchor="middle" x="481.5" y="-72.6" font-family="Times-Roman" font-size="8.00" fill="#6f42c1">about</text>
</g>
</g>
</svg>
