<?xml version="1.0" encoding="UTF-8" standalone="no"?>
<!DOCTYPE svg PUBLIC "-//W3C//DTD SVG 1.1//EN"
 "http://www.w3.org/Graphics/SVG/1.1/DTD/svg11.dtd">
<!-- Generated by graphviz version 2.44.0 (0)
 -->
<!-- Title: chain_ScannerCorrectness.ScanHelpers.collectTagHandleDirectiveLoop_preserves_tokens Pages: 1 -->
<svg width="842pt" height="324pt"
 viewBox="0.00 0.00 842.00 324.00" xmlns="http://www.w3.org/2000/svg" xmlns:xlink="http://www.w3.org/1999/xlink">
<g id="graph0" class="graph" transform="scale(1 1) rotate(0) translate(4 320)">
<title>chain_ScannerCorrectness.ScanHelpers.collectTagHandleDirectiveLoop_preserves_tokens</title>
<polygon fill="white" stroke="transparent" points="-4,4 -4,-320 838,-320 838,4 -4,4"/>
<text text-anchor="middle" x="417" y="-301.6" font-family="Helvetica Bold" font-size="13.00">Functorial Chains: ScannerCorrectness.ScanHelpers.collectTagHandleDirectiveLoop_preserves_tokens</text>
<text text-anchor="middle" x="417" y="-287.6" font-family="Helvetica Bold" font-size="13.00">(heuristic: used by 6 proofs)</text>
<g id="clust1" class="cluster">
<title>cluster_fns</title>
<polygon fill="none" stroke="#4a90d9" stroke-dasharray="5,2" points="533,-8 533,-163 826,-163 826,-8 533,-8"/>
<text text-anchor="middle" x="679.5" y="-148.6" font-family="Helvetica Bold" font-size="13.00" fill="#4a90d9">Functions (Call Chain)</text>
</g>
<g id="clust2" class="cluster">
<title>cluster_thms</title>
<polygon fill="none" stroke="#28a745" stroke-dasharray="5,2" points="8,-89 8,-272 525,-272 525,-89 8,-89"/>
<text text-anchor="middle" x="266.5" y="-257.6" font-family="Helvetica Bold" font-size="13.00" fill="#28a745">Theorems (Proof Chain)</text>
</g>
<!-- L4YAML.Scanner.ScannerState -->
<g id="node1" class="node">
<title>L4YAML.Scanner.ScannerState</title>
<g id="a_node1"><a xlink:href="../../../api/L4YAML/Scanner/State.html#L4YAML.Scanner.ScannerState" xlink:title="ScannerState" target="_blank">
<polygon fill="#dce9f7" stroke="#4a90d9" points="636,-52 560,-52 560,-16 636,-16 636,-52"/>
<text text-anchor="middle" x="598" y="-31.5" font-family="Helvetica" font-size="10.00">ScannerState</text>
</a>
</g>
</g>
<!-- L4YAML.Scanner.collectTagHandleDirectiveLoop -->
<g id="node2" class="node">
<title>L4YAML.Scanner.collectTagHandleDirectiveLoop</title>
<g id="a_node2"><a xlink:href="../../../api/L4YAML/Scanner/Document.html#L4YAML.Scanner.collectTagHandleDirectiveLoop" xlink:title="collectTagHandleDirectiveLoop" target="_blank">
<polygon fill="#dce9f7" stroke="#4a90d9" points="692.5,-133 541.5,-133 541.5,-97 692.5,-97 692.5,-133"/>
<text text-anchor="middle" x="617" y="-112.5" font-family="Helvetica" font-size="10.00">collectTagHandleDirectiveLoop</text>
</a>
</g>
</g>
<!-- L4YAML.Scanner.collectTagHandleDirectiveLoop&#45;&gt;L4YAML.Scanner.ScannerState -->
<g id="edge2" class="edge">
<title>L4YAML.Scanner.collectTagHandleDirectiveLoop&#45;&gt;L4YAML.Scanner.ScannerState</title>
<path fill="none" stroke="#4a90d9" stroke-width="2" d="M612.88,-96.86C610.21,-85.78 606.71,-71.21 603.77,-58.99"/>
<polygon fill="#4a90d9" stroke="#4a90d9" stroke-width="2" points="606.13,-58.34 602.11,-52.11 601.37,-59.49 606.13,-58.34"/>
<text text-anchor="middle" x="617.5" y="-72.6" font-family="Times-Roman" font-size="8.00">calls</text>
</g>
<!-- L4YAML.Scanner.ScannerState.tokens -->
<g id="node3" class="node">
<title>L4YAML.Scanner.ScannerState.tokens</title>
<g id="a_node3"><a xlink:href="../../../api/L4YAML/Scanner/State.html#L4YAML.Scanner.ScannerState.tokens" xlink:title="ScannerState.tokens" target="_blank">
<polygon fill="#dce9f7" stroke="#4a90d9" points="817.5,-133 710.5,-133 710.5,-97 817.5,-97 817.5,-133"/>
<text text-anchor="middle" x="764" y="-112.5" font-family="Helvetica" font-size="10.00">ScannerState.tokens</text>
</a>
</g>
</g>
<!-- L4YAML.Scanner.ScannerState.tokens&#45;&gt;L4YAML.Scanner.ScannerState -->
<g id="edge6" class="edge">
<title>L4YAML.Scanner.ScannerState.tokens&#45;&gt;L4YAML.Scanner.ScannerState</title>
<path fill="none" stroke="#4a90d9" stroke-width="2" d="M727.98,-96.86C702.2,-84.59 667.41,-68.03 640.31,-55.14"/>
<polygon fill="#4a90d9" stroke="#4a90d9" stroke-width="2" points="641.32,-52.9 633.95,-52.11 639.22,-57.33 641.32,-52.9"/>
<text text-anchor="middle" x="694.5" y="-72.6" font-family="Times-Roman" font-size="8.00">calls</text>
</g>
<!-- L4YAML.Scanner.collectTagHandleDirectiveLoop.eq_def -->
<g id="node4" class="node">
<title>L4YAML.Scanner.collectTagHandleDirectiveLoop.eq_def</title>
<g id="a_node4"><a xlink:href="../../../api/L4YAML/Proofs/Coupling/StructureCoupling.html#L4YAML.Scanner.collectTagHandleDirectiveLoop.eq_def" xlink:title="collectTagHandleDirectiveLoop.eq_def" target="_blank">
<ellipse fill="#d4edda" stroke="#28a745" cx="124" cy="-115" rx="107.95" ry="18"/>
<text text-anchor="middle" x="124" y="-112.5" font-family="Helvetica" font-size="10.00">collectTagHandleDirectiveLoop.eq_def</text>
</a>
</g>
</g>
<!-- L4YAML.Scanner.collectTagHandleDirectiveLoop.eq_def&#45;&gt;L4YAML.Scanner.ScannerState -->
<g id="edge8" class="edge">
<title>L4YAML.Scanner.collectTagHandleDirectiveLoop.eq_def&#45;&gt;L4YAML.Scanner.ScannerState</title>
<path fill="none" stroke="#6f42c1" stroke-width="2" stroke-dasharray="5,2" d="M184.96,-100.11C202.67,-96.28 222.07,-92.28 240,-89 352,-68.5 484.75,-49.98 552.81,-40.89"/>
<polygon fill="#6f42c1" stroke="#6f42c1" stroke-width="2" points="553.37,-43.29 559.98,-39.94 552.72,-38.43 553.37,-43.29"/>
<text text-anchor="middle" x="359.5" y="-72.6" font-family="Times-Roman" font-size="8.00" fill="#6f42c1">about</text>
</g>
<!-- L4YAML.Proofs.ScannerCorrectness.advance_preserves_tokens -->
<g id="node5" class="node">
<title>L4YAML.Proofs.ScannerCorrectness.advance_preserves_tokens</title>
<g id="a_node5"><a xlink:href="../../../api/L4YAML/Proofs/Scanner/ScannerCorrectness.html#L4YAML.Proofs.ScannerCorrectness.advance_preserves_tokens" xlink:title="ScannerCorrectness.advance_preserves_tokens" target="_blank">
<ellipse fill="#d4edda" stroke="#28a745" cx="383" cy="-115" rx="133.75" ry="18"/>
<text text-anchor="middle" x="383" y="-112.5" font-family="Helvetica" font-size="10.00">ScannerCorrectness.advance_preserves_tokens</text>
</a>
</g>
</g>
<!-- L4YAML.Proofs.ScannerCorrectness.advance_preserves_tokens&#45;&gt;L4YAML.Scanner.ScannerState -->
<g id="edge4" class="edge">
<title>L4YAML.Proofs.ScannerCorrectness.advance_preserves_tokens&#45;&gt;L4YAML.Scanner.ScannerState</title>
<path fill="none" stroke="#6f42c1" stroke-width="2" stroke-dasharray="5,2" d="M426.77,-97.92C463.52,-84.41 515.84,-65.19 552.95,-51.55"/>
<polygon fill="#6f42c1" stroke="#6f42c1" stroke-width="2" points="553.97,-53.79 559.69,-49.07 552.28,-49.19 553.97,-53.79"/>
<text text-anchor="middle" x="508.5" y="-72.6" font-family="Times-Roman" font-size="8.00" fill="#6f42c1">about</text>
</g>
<!-- L4YAML.Proofs.ScannerCorrectness.ScanHelpers.collectTagHandleDirectiveLoop_preserves_tokens -->
<g id="node6" class="node">
<title>L4YAML.Proofs.ScannerCorrectness.ScanHelpers.collectTagHandleDirectiveLoop_preserves_tokens</title>
<g id="a_node6"><a xlink:href="../../../api/L4YAML/Proofs/Scanner/ScannerCorrectness.html#L4YAML.Proofs.ScannerCorrectness.ScanHelpers.collectTagHandleDirectiveLoop_preserves_tokens" xlink:title="ScannerCorrectness.ScanHelpers.collectTagHandleDirectiveLoop_preserves_tokens" target="_blank">
<polygon fill="#fff3cd" stroke="#d4a017" points="513.12,-212.54 513.12,-227.46 369.53,-238 166.47,-238 22.88,-227.46 22.88,-212.54 166.47,-202 369.53,-202 513.12,-212.54"/>
<polygon fill="none" stroke="#d4a017" points="517.12,-208.83 517.12,-231.17 369.68,-242 166.32,-242 18.88,-231.17 18.88,-208.83 166.32,-198 369.68,-198 517.12,-208.83"/>
<text text-anchor="middle" x="268" y="-217.5" font-family="Helvetica" font-size="10.00">ScannerCorrectness.ScanHelpers.collectTagHandleDirectiveLoop_preserves_tokens</text>
</a>
</g>
</g>
<!-- L4YAML.Proofs.ScannerCorrectness.ScanHelpers.collectTagHandleDirectiveLoop_preserves_tokens&#45;&gt;L4YAML.Scanner.collectTagHandleDirectiveLoop -->
<g id="edge1" class="edge">
<title>L4YAML.Proofs.ScannerCorrectness.ScanHelpers.collectTagHandleDirectiveLoop_preserves_tokens&#45;&gt;L4YAML.Scanner.collectTagHandleDirectiveLoop</title>
<path fill="none" stroke="#6f42c1" stroke-width="2" stroke-dasharray="5,2" d="M392.49,-199.64C436.38,-190.9 485.59,-178.89 529,-163 547.81,-156.11 567.58,-145.86 583.61,-136.68"/>
<polygon fill="#6f42c1" stroke="#6f42c1" stroke-width="2" points="584.96,-138.73 589.79,-133.09 582.5,-134.49 584.96,-138.73"/>
<text text-anchor="middle" x="513.5" y="-173.6" font-family="Times-Roman" font-size="8.00" fill="#6f42c1">about</text>
</g>
<!-- L4YAML.Proofs.ScannerCorrectness.ScanHelpers.collectTagHandleDirectiveLoop_preserves_tokens&#45;&gt;L4YAML.Scanner.ScannerState.tokens -->
<g id="edge5" class="edge">
<title>L4YAML.Proofs.ScannerCorrectness.ScanHelpers.collectTagHandleDirectiveLoop_preserves_tokens&#45;&gt;L4YAML.Scanner.ScannerState.tokens</title>
<path fill="none" stroke="#6f42c1" stroke-width="2" stroke-dasharray="5,2" d="M456.1,-204.34C552.09,-194.95 657.75,-181.11 702,-163 716.26,-157.16 730.13,-147.19 741.12,-137.93"/>
<polygon fill="#6f42c1" stroke="#6f42c1" stroke-width="2" points="742.91,-139.62 746.59,-133.18 739.7,-135.92 742.91,-139.62"/>
<text text-anchor="middle" x="687.5" y="-173.6" font-family="Times-Roman" font-size="8.00" fill="#6f42c1">about</text>
</g>
<!-- L4YAML.Proofs.ScannerCorrectness.ScanHelpers.collectTagHandleDirectiveLoop_preserves_tokens&#45;&gt;L4YAML.Scanner.collectTagHandleDirectiveLoop.eq_def -->
<g id="edge7" class="edge">
<title>L4YAML.Proofs.ScannerCorrectness.ScanHelpers.collectTagHandleDirectiveLoop_preserves_tokens&#45;&gt;L4YAML.Scanner.collectTagHandleDirectiveLoop.eq_def</title>
<path fill="none" stroke="#28a745" stroke-width="2" d="M238.51,-197.91C213.53,-180.04 177.9,-154.55 153.04,-136.77"/>
<polygon fill="#28a745" stroke="#28a745" stroke-width="2" points="154.4,-134.73 147.28,-132.65 151.55,-138.72 154.4,-134.73"/>
<text text-anchor="middle" x="223" y="-173.6" font-family="Times-Roman" font-size="8.00">uses</text>
</g>
<!-- L4YAML.Proofs.ScannerCorrectness.ScanHelpers.collectTagHandleDirectiveLoop_preserves_tokens&#45;&gt;L4YAML.Proofs.ScannerCorrectness.advance_preserves_tokens -->
<g id="edge3" class="edge">
<title>L4YAML.Proofs.ScannerCorrectness.ScanHelpers.collectTagHandleDirectiveLoop_preserves_tokens&#45;&gt;L4YAML.Proofs.ScannerCorrectness.advance_preserves_tokens</title>
<path fill="none" stroke="#28a745" stroke-width="2" d="M291.55,-197.91C311.13,-180.37 338.9,-155.5 358.69,-137.78"/>
<polygon fill="#28a745" stroke="#28a745" stroke-width="2" points="360.46,-139.47 364.04,-132.98 357.19,-135.82 360.46,-139.47"/>
<text text-anchor="middle" x="328" y="-173.6" font-family="Times-Roman" font-size="8.00">uses</text>
</g>
</g>
</svg>
