<?xml version="1.0" encoding="UTF-8" standalone="no"?>
<!DOCTYPE svg PUBLIC "-//W3C//DTD SVG 1.1//EN"
 "http://www.w3.org/Graphics/SVG/1.1/DTD/svg11.dtd">
<!-- Generated by graphviz version 2.44.0 (0)
 -->
<!-- Title: chain_ScannerCorrectness.ScanHelpers.dispatchFlowIndicators_tokens_mono Pages: 1 -->
<svg width="1995pt" height="405pt"
 viewBox="0.00 0.00 1995.00 405.00" xmlns="http://www.w3.org/2000/svg" xmlns:xlink="http://www.w3.org/1999/xlink">
<g id="graph0" class="graph" transform="scale(1 1) rotate(0) translate(4 401)">
<title>chain_ScannerCorrectness.ScanHelpers.dispatchFlowIndicators_tokens_mono</title>
<polygon fill="white" stroke="transparent" points="-4,4 -4,-401 1991,-401 1991,4 -4,4"/>
<text text-anchor="middle" x="993.5" y="-382.6" font-family="Helvetica Bold" font-size="13.00">Functorial Chains: ScannerCorrectness.ScanHelpers.dispatchFlowIndicators_tokens_mono</text>
<text text-anchor="middle" x="993.5" y="-368.6" font-family="Helvetica Bold" font-size="13.00">(heuristic: used by 5 proofs)</text>
<g id="clust1" class="cluster">
<title>cluster_fns</title>
<polygon fill="none" stroke="#4a90d9" stroke-dasharray="5,2" points="1434,-8 1434,-244 1979,-244 1979,-8 1434,-8"/>
<text text-anchor="middle" x="1706.5" y="-229.6" font-family="Helvetica Bold" font-size="13.00" fill="#4a90d9">Functions (Call Chain)</text>
</g>
<g id="clust2" class="cluster">
<title>cluster_thms</title>
<polygon fill="none" stroke="#28a745" stroke-dasharray="5,2" points="8,-89 8,-353 1426,-353 1426,-89 8,-89"/>
<text text-anchor="middle" x="717" y="-338.6" font-family="Helvetica Bold" font-size="13.00" fill="#28a745">Theorems (Proof Chain)</text>
</g>
<!-- L4YAML.Scanner.scanFlowSequenceEnd -->
<g id="node1" class="node">
<title>L4YAML.Scanner.scanFlowSequenceEnd</title>
<g id="a_node1"><a xlink:href="../../../api/L4YAML/Scanner/Scanner.html#L4YAML.Scanner.scanFlowSequenceEnd" xlink:title="scanFlowSequenceEnd" target="_blank">
<polygon fill="#dce9f7" stroke="#4a90d9" points="1970.5,-133 1851.5,-133 1851.5,-97 1970.5,-97 1970.5,-133"/>
<text text-anchor="middle" x="1911" y="-112.5" font-family="Helvetica" font-size="10.00">scanFlowSequenceEnd</text>
</a>
</g>
</g>
<!-- L4YAML.Scanner.ScannerState.tokens -->
<g id="node7" class="node">
<title>L4YAML.Scanner.ScannerState.tokens</title>
<g id="a_node7"><a xlink:href="../../../api/L4YAML/Scanner/State.html#L4YAML.Scanner.ScannerState.tokens" xlink:title="ScannerState.tokens" target="_blank">
<polygon fill="#dce9f7" stroke="#4a90d9" points="1782.5,-52 1675.5,-52 1675.5,-16 1782.5,-16 1782.5,-52"/>
<text text-anchor="middle" x="1729" y="-31.5" font-family="Helvetica" font-size="10.00">ScannerState.tokens</text>
</a>
</g>
</g>
<!-- L4YAML.Scanner.scanFlowSequenceEnd&#45;&gt;L4YAML.Scanner.ScannerState.tokens -->
<g id="edge5" class="edge">
<title>L4YAML.Scanner.scanFlowSequenceEnd&#45;&gt;L4YAML.Scanner.ScannerState.tokens</title>
<path fill="none" stroke="#4a90d9" stroke-width="2" d="M1875.11,-96.85C1857.41,-88.53 1835.69,-78.51 1816,-70 1804.15,-64.88 1791.29,-59.57 1779.18,-54.68"/>
<polygon fill="#4a90d9" stroke="#4a90d9" stroke-width="2" points="1779.96,-52.35 1772.55,-52.01 1778.13,-56.9 1779.96,-52.35"/>
<text text-anchor="middle" x="1843.5" y="-72.6" font-family="Times-Roman" font-size="8.00">calls</text>
</g>
<!-- L4YAML.Scanner.scanNextToken_dispatchFlowIndicators -->
<g id="node2" class="node">
<title>L4YAML.Scanner.scanNextToken_dispatchFlowIndicators</title>
<g id="a_node2"><a xlink:href="../../../api/L4YAML/Scanner/Scanner.html#L4YAML.Scanner.scanNextToken_dispatchFlowIndicators" xlink:title="scanNextToken_dispatchFlowIndicators" target="_blank">
<polygon fill="#dce9f7" stroke="#4a90d9" points="1727.5,-214 1536.5,-214 1536.5,-178 1727.5,-178 1727.5,-214"/>
<text text-anchor="middle" x="1632" y="-193.5" font-family="Helvetica" font-size="10.00">scanNextToken_dispatchFlowIndicators</text>
</a>
</g>
</g>
<!-- L4YAML.Scanner.scanNextToken_dispatchFlowIndicators&#45;&gt;L4YAML.Scanner.scanFlowSequenceEnd -->
<g id="edge2" class="edge">
<title>L4YAML.Scanner.scanNextToken_dispatchFlowIndicators&#45;&gt;L4YAML.Scanner.scanFlowSequenceEnd</title>
<path fill="none" stroke="#4a90d9" stroke-width="2" d="M1692.2,-177.96C1736.99,-165.27 1798.13,-147.96 1844.39,-134.86"/>
<polygon fill="#4a90d9" stroke="#4a90d9" stroke-width="2" points="1845.32,-137.14 1851.39,-132.88 1843.99,-132.43 1845.32,-137.14"/>
<text text-anchor="middle" x="1788.5" y="-153.6" font-family="Times-Roman" font-size="8.00">calls</text>
</g>
<!-- L4YAML.Scanner.scanFlowMappingStart -->
<g id="node3" class="node">
<title>L4YAML.Scanner.scanFlowMappingStart</title>
<g id="a_node3"><a xlink:href="../../../api/L4YAML/Scanner/Scanner.html#L4YAML.Scanner.scanFlowMappingStart" xlink:title="scanFlowMappingStart" target="_blank">
<polygon fill="#dce9f7" stroke="#4a90d9" points="1690.5,-133 1573.5,-133 1573.5,-97 1690.5,-97 1690.5,-133"/>
<text text-anchor="middle" x="1632" y="-112.5" font-family="Helvetica" font-size="10.00">scanFlowMappingStart</text>
</a>
</g>
</g>
<!-- L4YAML.Scanner.scanNextToken_dispatchFlowIndicators&#45;&gt;L4YAML.Scanner.scanFlowMappingStart -->
<g id="edge22" class="edge">
<title>L4YAML.Scanner.scanNextToken_dispatchFlowIndicators&#45;&gt;L4YAML.Scanner.scanFlowMappingStart</title>
<path fill="none" stroke="#4a90d9" stroke-width="2" d="M1632,-177.86C1632,-166.88 1632,-152.48 1632,-140.33"/>
<polygon fill="#4a90d9" stroke="#4a90d9" stroke-width="2" points="1634.45,-140.11 1632,-133.11 1629.55,-140.11 1634.45,-140.11"/>
<text text-anchor="middle" x="1641.5" y="-153.6" font-family="Times-Roman" font-size="8.00">calls</text>
</g>
<!-- L4YAML.Scanner.scanFlowSequenceStart -->
<g id="node6" class="node">
<title>L4YAML.Scanner.scanFlowSequenceStart</title>
<g id="a_node6"><a xlink:href="../../../api/L4YAML/Scanner/Scanner.html#L4YAML.Scanner.scanFlowSequenceStart" xlink:title="scanFlowSequenceStart" target="_blank">
<polygon fill="#dce9f7" stroke="#4a90d9" points="1833,-133 1709,-133 1709,-97 1833,-97 1833,-133"/>
<text text-anchor="middle" x="1771" y="-112.5" font-family="Helvetica" font-size="10.00">scanFlowSequenceStart</text>
</a>
</g>
</g>
<!-- L4YAML.Scanner.scanNextToken_dispatchFlowIndicators&#45;&gt;L4YAML.Scanner.scanFlowSequenceStart -->
<g id="edge8" class="edge">
<title>L4YAML.Scanner.scanNextToken_dispatchFlowIndicators&#45;&gt;L4YAML.Scanner.scanFlowSequenceStart</title>
<path fill="none" stroke="#4a90d9" stroke-width="2" d="M1662.16,-177.86C1683.47,-165.75 1712.14,-149.45 1734.71,-136.63"/>
<polygon fill="#4a90d9" stroke="#4a90d9" stroke-width="2" points="1736.02,-138.7 1740.9,-133.11 1733.6,-134.44 1736.02,-138.7"/>
<text text-anchor="middle" x="1714.5" y="-153.6" font-family="Times-Roman" font-size="8.00">calls</text>
</g>
<!-- L4YAML.Scanner.scanFlowMappingEnd -->
<g id="node8" class="node">
<title>L4YAML.Scanner.scanFlowMappingEnd</title>
<g id="a_node8"><a xlink:href="../../../api/L4YAML/Scanner/Scanner.html#L4YAML.Scanner.scanFlowMappingEnd" xlink:title="scanFlowMappingEnd" target="_blank">
<polygon fill="#dce9f7" stroke="#4a90d9" points="1555.5,-133 1442.5,-133 1442.5,-97 1555.5,-97 1555.5,-133"/>
<text text-anchor="middle" x="1499" y="-112.5" font-family="Helvetica" font-size="10.00">scanFlowMappingEnd</text>
</a>
</g>
</g>
<!-- L4YAML.Scanner.scanNextToken_dispatchFlowIndicators&#45;&gt;L4YAML.Scanner.scanFlowMappingEnd -->
<g id="edge13" class="edge">
<title>L4YAML.Scanner.scanNextToken_dispatchFlowIndicators&#45;&gt;L4YAML.Scanner.scanFlowMappingEnd</title>
<path fill="none" stroke="#4a90d9" stroke-width="2" d="M1603.14,-177.86C1582.84,-165.8 1555.55,-149.59 1534,-136.79"/>
<polygon fill="#4a90d9" stroke="#4a90d9" stroke-width="2" points="1535.07,-134.58 1527.8,-133.11 1532.57,-138.79 1535.07,-134.58"/>
<text text-anchor="middle" x="1578.5" y="-153.6" font-family="Times-Roman" font-size="8.00">calls</text>
</g>
<!-- L4YAML.Scanner.ScannerState.advance -->
<g id="node4" class="node">
<title>L4YAML.Scanner.ScannerState.advance</title>
<g id="a_node4"><a xlink:href="../../../api/L4YAML/Scanner/State.html#L4YAML.Scanner.ScannerState.advance" xlink:title="ScannerState.advance" target="_blank">
<polygon fill="#dce9f7" stroke="#4a90d9" points="1557.5,-52 1442.5,-52 1442.5,-16 1557.5,-16 1557.5,-52"/>
<text text-anchor="middle" x="1500" y="-31.5" font-family="Helvetica" font-size="10.00">ScannerState.advance</text>
</a>
</g>
</g>
<!-- L4YAML.Scanner.scanFlowMappingStart&#45;&gt;L4YAML.Scanner.ScannerState.advance -->
<g id="edge27" class="edge">
<title>L4YAML.Scanner.scanFlowMappingStart&#45;&gt;L4YAML.Scanner.ScannerState.advance</title>
<path fill="none" stroke="#4a90d9" stroke-width="2" d="M1587.85,-96.96C1580.26,-94.2 1572.43,-91.44 1565,-89 1549.63,-83.95 1543.12,-88.47 1530,-79 1522.62,-73.67 1516.48,-65.94 1511.72,-58.43"/>
<polygon fill="#4a90d9" stroke="#4a90d9" stroke-width="2" points="1513.72,-57.01 1508.04,-52.24 1509.51,-59.51 1513.72,-57.01"/>
<text text-anchor="middle" x="1539.5" y="-72.6" font-family="Times-Roman" font-size="8.00">calls</text>
</g>
<!-- L4YAML.Scanner.ScannerState -->
<g id="node5" class="node">
<title>L4YAML.Scanner.ScannerState</title>
<g id="a_node5"><a xlink:href="../../../api/L4YAML/Scanner/State.html#L4YAML.Scanner.ScannerState" xlink:title="ScannerState" target="_blank">
<polygon fill="#dce9f7" stroke="#4a90d9" points="1652,-52 1576,-52 1576,-16 1652,-16 1652,-52"/>
<text text-anchor="middle" x="1614" y="-31.5" font-family="Helvetica" font-size="10.00">ScannerState</text>
</a>
</g>
</g>
<!-- L4YAML.Scanner.scanFlowMappingStart&#45;&gt;L4YAML.Scanner.ScannerState -->
<g id="edge25" class="edge">
<title>L4YAML.Scanner.scanFlowMappingStart&#45;&gt;L4YAML.Scanner.ScannerState</title>
<path fill="none" stroke="#4a90d9" stroke-width="2" d="M1614.58,-96.91C1610.28,-91.62 1606.27,-85.46 1604,-79 1601.79,-72.7 1602.16,-65.72 1603.63,-59.22"/>
<polygon fill="#4a90d9" stroke="#4a90d9" stroke-width="2" points="1606.02,-59.8 1605.6,-52.39 1601.31,-58.44 1606.02,-59.8"/>
<text text-anchor="middle" x="1613.5" y="-72.6" font-family="Times-Roman" font-size="8.00">calls</text>
</g>
<!-- L4YAML.Scanner.scanFlowMappingStart&#45;&gt;L4YAML.Scanner.ScannerState.tokens -->
<g id="edge28" class="edge">
<title>L4YAML.Scanner.scanFlowMappingStart&#45;&gt;L4YAML.Scanner.ScannerState.tokens</title>
<path fill="none" stroke="#4a90d9" stroke-width="2" d="M1681.05,-96.93C1690.41,-92.14 1699.59,-86.22 1707,-79 1712.81,-73.34 1717.34,-65.83 1720.73,-58.62"/>
<polygon fill="#4a90d9" stroke="#4a90d9" stroke-width="2" points="1723,-59.54 1723.54,-52.14 1718.51,-57.59 1723,-59.54"/>
<text text-anchor="middle" x="1722.5" y="-72.6" font-family="Times-Roman" font-size="8.00">calls</text>
</g>
<!-- L4YAML.Scanner.scanFlowSequenceStart&#45;&gt;L4YAML.Scanner.ScannerState.advance -->
<g id="edge30" class="edge">
<title>L4YAML.Scanner.scanFlowSequenceStart&#45;&gt;L4YAML.Scanner.ScannerState.advance</title>
<path fill="none" stroke="#4a90d9" stroke-width="2" d="M1726.28,-96.98C1717.64,-94.05 1708.6,-91.24 1700,-89 1674.69,-82.41 1666.94,-86.89 1642,-79 1633.09,-76.18 1631.75,-73.29 1623,-70 1611.79,-65.78 1588.2,-58.91 1564.64,-52.36"/>
<polygon fill="#4a90d9" stroke="#4a90d9" stroke-width="2" points="1565.08,-49.94 1557.68,-50.44 1563.77,-54.66 1565.08,-49.94"/>
<text text-anchor="middle" x="1651.5" y="-72.6" font-family="Times-Roman" font-size="8.00">calls</text>
</g>
<!-- L4YAML.Scanner.scanFlowSequenceStart&#45;&gt;L4YAML.Scanner.ScannerState -->
<g id="edge29" class="edge">
<title>L4YAML.Scanner.scanFlowSequenceStart&#45;&gt;L4YAML.Scanner.ScannerState</title>
<path fill="none" stroke="#4a90d9" stroke-width="2" d="M1761.06,-96.67C1754.95,-87.47 1746.31,-76.71 1736,-70 1709.44,-52.71 1697.43,-60.84 1667,-52 1664.44,-51.26 1661.81,-50.47 1659.16,-49.67"/>
<polygon fill="#4a90d9" stroke="#4a90d9" stroke-width="2" points="1659.55,-47.23 1652.14,-47.51 1658.11,-51.91 1659.55,-47.23"/>
<text text-anchor="middle" x="1755.5" y="-72.6" font-family="Times-Roman" font-size="8.00">calls</text>
</g>
<!-- L4YAML.Scanner.scanFlowSequenceStart&#45;&gt;L4YAML.Scanner.ScannerState.tokens -->
<g id="edge11" class="edge">
<title>L4YAML.Scanner.scanFlowSequenceStart&#45;&gt;L4YAML.Scanner.ScannerState.tokens</title>
<path fill="none" stroke="#4a90d9" stroke-width="2" d="M1786.52,-96.88C1792.13,-88.57 1795.99,-78.55 1791,-70 1787.95,-64.78 1783.81,-60.28 1779.1,-56.41"/>
<polygon fill="#4a90d9" stroke="#4a90d9" stroke-width="2" points="1780.43,-54.35 1773.34,-52.16 1777.52,-58.29 1780.43,-54.35"/>
<text text-anchor="middle" x="1802.5" y="-72.6" font-family="Times-Roman" font-size="8.00">calls</text>
</g>
<!-- L4YAML.Scanner.scanFlowMappingEnd&#45;&gt;L4YAML.Scanner.ScannerState.advance -->
<g id="edge19" class="edge">
<title>L4YAML.Scanner.scanFlowMappingEnd&#45;&gt;L4YAML.Scanner.ScannerState.advance</title>
<path fill="none" stroke="#4a90d9" stroke-width="2" d="M1484.32,-96.96C1479.2,-89.01 1475.33,-79.27 1478,-70 1479.15,-66.02 1480.89,-62.06 1482.91,-58.31"/>
<polygon fill="#4a90d9" stroke="#4a90d9" stroke-width="2" points="1485.05,-59.51 1486.5,-52.23 1480.83,-57.01 1485.05,-59.51"/>
<text text-anchor="middle" x="1487.5" y="-72.6" font-family="Times-Roman" font-size="8.00">calls</text>
</g>
<!-- L4YAML.Scanner.scanFlowMappingEnd&#45;&gt;L4YAML.Scanner.ScannerState -->
<g id="edge16" class="edge">
<title>L4YAML.Scanner.scanFlowMappingEnd&#45;&gt;L4YAML.Scanner.ScannerState</title>
<path fill="none" stroke="#4a90d9" stroke-width="2" d="M1523.95,-96.86C1541.28,-84.95 1564.5,-69.01 1583.01,-56.29"/>
<polygon fill="#4a90d9" stroke="#4a90d9" stroke-width="2" points="1584.71,-58.09 1589.1,-52.11 1581.94,-54.05 1584.71,-58.09"/>
<text text-anchor="middle" x="1568.5" y="-72.6" font-family="Times-Roman" font-size="8.00">calls</text>
</g>
<!-- L4YAML.Scanner.scanFlowMappingEnd&#45;&gt;L4YAML.Scanner.ScannerState.tokens -->
<g id="edge21" class="edge">
<title>L4YAML.Scanner.scanFlowMappingEnd&#45;&gt;L4YAML.Scanner.ScannerState.tokens</title>
<path fill="none" stroke="#4a90d9" stroke-width="2" d="M1538.96,-96.95C1547.43,-93.88 1556.41,-91.02 1565,-89 1608.48,-78.78 1623.06,-94.36 1665,-79 1679.02,-73.87 1692.88,-64.95 1704.1,-56.47"/>
<polygon fill="#4a90d9" stroke="#4a90d9" stroke-width="2" points="1705.69,-58.34 1709.71,-52.1 1702.68,-54.47 1705.69,-58.34"/>
<text text-anchor="middle" x="1691.5" y="-72.6" font-family="Times-Roman" font-size="8.00">calls</text>
</g>
<!-- L4YAML.Proofs.ScannerCorrectness.scanFlowSequenceStart_adds_one_token -->
<g id="node9" class="node">
<title>L4YAML.Proofs.ScannerCorrectness.scanFlowSequenceStart_adds_one_token</title>
<g id="a_node9"><a xlink:href="../../../api/L4YAML/Proofs/Scanner/ScannerCorrectness.html#L4YAML.Proofs.ScannerCorrectness.scanFlowSequenceStart_adds_one_token" xlink:title="ScannerCorrectness.scanFlowSequenceStart_adds_one_token" target="_blank">
<ellipse fill="#d4edda" stroke="#28a745" cx="536" cy="-196" rx="171.78" ry="18"/>
<text text-anchor="middle" x="536" y="-193.5" font-family="Helvetica" font-size="10.00">ScannerCorrectness.scanFlowSequenceStart_adds_one_token</text>
</a>
</g>
</g>
<!-- L4YAML.Proofs.ScannerCorrectness.scanFlowSequenceStart_adds_one_token&#45;&gt;L4YAML.Scanner.scanFlowSequenceStart -->
<g id="edge10" class="edge">
<title>L4YAML.Proofs.ScannerCorrectness.scanFlowSequenceStart_adds_one_token&#45;&gt;L4YAML.Scanner.scanFlowSequenceStart</title>
<path fill="none" stroke="#6f42c1" stroke-width="2" stroke-dasharray="5,2" d="M653.72,-182.84C674.78,-180.98 696.52,-179.26 717,-178 852.58,-169.64 1195.12,-188.17 1328,-160 1338.33,-157.81 1339.69,-153.3 1350,-151 1502.01,-117.03 1545.83,-155.23 1700,-133 1700.54,-132.92 1701.08,-132.84 1701.63,-132.76"/>
<polygon fill="#6f42c1" stroke="#6f42c1" stroke-width="2" points="1702.28,-135.14 1708.79,-131.58 1701.48,-130.3 1702.28,-135.14"/>
<text text-anchor="middle" x="1362.5" y="-153.6" font-family="Times-Roman" font-size="8.00" fill="#6f42c1">about</text>
</g>
<!-- L4YAML.Proofs.ScannerCorrectness.advance_preserves_tokens -->
<g id="node12" class="node">
<title>L4YAML.Proofs.ScannerCorrectness.advance_preserves_tokens</title>
<g id="a_node12"><a xlink:href="../../../api/L4YAML/Proofs/Scanner/ScannerCorrectness.html#L4YAML.Proofs.ScannerCorrectness.advance_preserves_tokens" xlink:title="ScannerCorrectness.advance_preserves_tokens" target="_blank">
<ellipse fill="#d4edda" stroke="#28a745" cx="1249" cy="-115" rx="133.75" ry="18"/>
<text text-anchor="middle" x="1249" y="-112.5" font-family="Helvetica" font-size="10.00">ScannerCorrectness.advance_preserves_tokens</text>
</a>
</g>
</g>
<!-- L4YAML.Proofs.ScannerCorrectness.scanFlowSequenceStart_adds_one_token&#45;&gt;L4YAML.Proofs.ScannerCorrectness.advance_preserves_tokens -->
<g id="edge12" class="edge">
<title>L4YAML.Proofs.ScannerCorrectness.scanFlowSequenceStart_adds_one_token&#45;&gt;L4YAML.Proofs.ScannerCorrectness.advance_preserves_tokens</title>
<path fill="none" stroke="#28a745" stroke-width="2" d="M649.37,-182.44C784.86,-167.43 1009.84,-142.5 1142.3,-127.82"/>
<polygon fill="#28a745" stroke="#28a745" stroke-width="2" points="1142.64,-130.25 1149.32,-127.04 1142.1,-125.38 1142.64,-130.25"/>
<text text-anchor="middle" x="923" y="-153.6" font-family="Times-Roman" font-size="8.00">uses</text>
</g>
<!-- L4YAML.Proofs.ScannerCorrectness.scanFlowSequenceEnd_adds_one_token -->
<g id="node10" class="node">
<title>L4YAML.Proofs.ScannerCorrectness.scanFlowSequenceEnd_adds_one_token</title>
<g id="a_node10"><a xlink:href="../../../api/L4YAML/Proofs/Scanner/ScannerCorrectness.html#L4YAML.Proofs.ScannerCorrectness.scanFlowSequenceEnd_adds_one_token" xlink:title="ScannerCorrectness.scanFlowSequenceEnd_adds_one_token" target="_blank">
<ellipse fill="#d4edda" stroke="#28a745" cx="1249" cy="-196" rx="168.89" ry="18"/>
<text text-anchor="middle" x="1249" y="-193.5" font-family="Helvetica" font-size="10.00">ScannerCorrectness.scanFlowSequenceEnd_adds_one_token</text>
</a>
</g>
</g>
<!-- L4YAML.Proofs.ScannerCorrectness.scanFlowSequenceEnd_adds_one_token&#45;&gt;L4YAML.Scanner.scanFlowSequenceEnd -->
<g id="edge4" class="edge">
<title>L4YAML.Proofs.ScannerCorrectness.scanFlowSequenceEnd_adds_one_token&#45;&gt;L4YAML.Scanner.scanFlowSequenceEnd</title>
<path fill="none" stroke="#6f42c1" stroke-width="2" stroke-dasharray="5,2" d="M1330.46,-180.21C1386.86,-170.49 1463.77,-158.27 1532,-151 1669.23,-136.38 1705.54,-153.59 1842,-133 1842.76,-132.88 1843.53,-132.77 1844.3,-132.64"/>
<polygon fill="#6f42c1" stroke="#6f42c1" stroke-width="2" points="1844.82,-135.04 1851.3,-131.42 1843.98,-130.21 1844.82,-135.04"/>
<text text-anchor="middle" x="1544.5" y="-153.6" font-family="Times-Roman" font-size="8.00" fill="#6f42c1">about</text>
</g>
<!-- L4YAML.Proofs.ScannerCorrectness.scanFlowSequenceEnd_adds_one_token&#45;&gt;L4YAML.Proofs.ScannerCorrectness.advance_preserves_tokens -->
<g id="edge6" class="edge">
<title>L4YAML.Proofs.ScannerCorrectness.scanFlowSequenceEnd_adds_one_token&#45;&gt;L4YAML.Proofs.ScannerCorrectness.advance_preserves_tokens</title>
<path fill="none" stroke="#28a745" stroke-width="2" d="M1249,-177.86C1249,-166.88 1249,-152.48 1249,-140.33"/>
<polygon fill="#28a745" stroke="#28a745" stroke-width="2" points="1251.45,-140.11 1249,-133.11 1246.55,-140.11 1251.45,-140.11"/>
<text text-anchor="middle" x="1259" y="-153.6" font-family="Times-Roman" font-size="8.00">uses</text>
</g>
<!-- L4YAML.Proofs.ScannerCorrectness.scanFlowMappingStart_adds_one_token -->
<g id="node11" class="node">
<title>L4YAML.Proofs.ScannerCorrectness.scanFlowMappingStart_adds_one_token</title>
<g id="a_node11"><a xlink:href="../../../api/L4YAML/Proofs/Scanner/ScannerCorrectness.html#L4YAML.Proofs.ScannerCorrectness.scanFlowMappingStart_adds_one_token" xlink:title="ScannerCorrectness.scanFlowMappingStart_adds_one_token" target="_blank">
<ellipse fill="#d4edda" stroke="#28a745" cx="894" cy="-196" rx="167.54" ry="18"/>
<text text-anchor="middle" x="894" y="-193.5" font-family="Helvetica" font-size="10.00">ScannerCorrectness.scanFlowMappingStart_adds_one_token</text>
</a>
</g>
</g>
<!-- L4YAML.Proofs.ScannerCorrectness.scanFlowMappingStart_adds_one_token&#45;&gt;L4YAML.Scanner.scanFlowMappingStart -->
<g id="edge24" class="edge">
<title>L4YAML.Proofs.ScannerCorrectness.scanFlowMappingStart_adds_one_token&#45;&gt;L4YAML.Scanner.scanFlowMappingStart</title>
<path fill="none" stroke="#6f42c1" stroke-width="2" stroke-dasharray="5,2" d="M1011.53,-183.09C1031.37,-181.26 1051.76,-179.49 1071,-178 1207.72,-167.44 1242.76,-175.5 1379,-160 1402.74,-157.3 1408.38,-154.6 1432,-151 1490.97,-142.01 1506.44,-144.35 1565,-133 1565.42,-132.92 1565.85,-132.83 1566.27,-132.75"/>
<polygon fill="#6f42c1" stroke="#6f42c1" stroke-width="2" points="1566.9,-135.12 1573.26,-131.31 1565.91,-130.32 1566.9,-135.12"/>
<text text-anchor="middle" x="1444.5" y="-153.6" font-family="Times-Roman" font-size="8.00" fill="#6f42c1">about</text>
</g>
<!-- L4YAML.Proofs.ScannerCorrectness.scanFlowMappingStart_adds_one_token&#45;&gt;L4YAML.Proofs.ScannerCorrectness.advance_preserves_tokens -->
<g id="edge26" class="edge">
<title>L4YAML.Proofs.ScannerCorrectness.scanFlowMappingStart_adds_one_token&#45;&gt;L4YAML.Proofs.ScannerCorrectness.advance_preserves_tokens</title>
<path fill="none" stroke="#28a745" stroke-width="2" d="M963.29,-179.58C1024.49,-165.96 1113.45,-146.16 1175.8,-132.29"/>
<polygon fill="#28a745" stroke="#28a745" stroke-width="2" points="1176.58,-134.62 1182.89,-130.71 1175.52,-129.84 1176.58,-134.62"/>
<text text-anchor="middle" x="1092" y="-153.6" font-family="Times-Roman" font-size="8.00">uses</text>
</g>
<!-- L4YAML.Proofs.ScannerCorrectness.advance_preserves_tokens&#45;&gt;L4YAML.Scanner.ScannerState.advance -->
<g id="edge20" class="edge">
<title>L4YAML.Proofs.ScannerCorrectness.advance_preserves_tokens&#45;&gt;L4YAML.Scanner.ScannerState.advance</title>
<path fill="none" stroke="#6f42c1" stroke-width="2" stroke-dasharray="5,2" d="M1268.76,-97.18C1280.81,-87.79 1296.94,-76.67 1313,-70 1351.75,-53.91 1398.09,-45.17 1434.94,-40.45"/>
<polygon fill="#6f42c1" stroke="#6f42c1" stroke-width="2" points="1435.53,-42.84 1442.18,-39.55 1434.93,-37.98 1435.53,-42.84"/>
<text text-anchor="middle" x="1325.5" y="-72.6" font-family="Times-Roman" font-size="8.00" fill="#6f42c1">about</text>
</g>
<!-- L4YAML.Proofs.ScannerCorrectness.advance_preserves_tokens&#45;&gt;L4YAML.Scanner.ScannerState -->
<g id="edge18" class="edge">
<title>L4YAML.Proofs.ScannerCorrectness.advance_preserves_tokens&#45;&gt;L4YAML.Scanner.ScannerState</title>
<path fill="none" stroke="#6f42c1" stroke-width="2" stroke-dasharray="5,2" d="M1290.44,-97.78C1319.31,-86.72 1355.34,-73.48 1371,-70 1456.39,-51.01 1481.62,-71.03 1567,-52 1567.63,-51.86 1568.26,-51.71 1568.9,-51.56"/>
<polygon fill="#6f42c1" stroke="#6f42c1" stroke-width="2" points="1569.63,-53.9 1575.76,-49.73 1568.37,-49.17 1569.63,-53.9"/>
<text text-anchor="middle" x="1383.5" y="-72.6" font-family="Times-Roman" font-size="8.00" fill="#6f42c1">about</text>
</g>
<!-- L4YAML.Proofs.ScannerCorrectness.advance_preserves_tokens&#45;&gt;L4YAML.Scanner.ScannerState.tokens -->
<g id="edge7" class="edge">
<title>L4YAML.Proofs.ScannerCorrectness.advance_preserves_tokens&#45;&gt;L4YAML.Scanner.ScannerState.tokens</title>
<path fill="none" stroke="#6f42c1" stroke-width="2" stroke-dasharray="5,2" d="M1307.82,-98.83C1347.24,-89.2 1400.43,-77.24 1448,-70 1541.92,-55.71 1567.28,-67.57 1661,-52 1663.34,-51.61 1665.72,-51.18 1668.12,-50.72"/>
<polygon fill="#6f42c1" stroke="#6f42c1" stroke-width="2" points="1668.97,-53.05 1675.35,-49.26 1668,-48.25 1668.97,-53.05"/>
<text text-anchor="middle" x="1460.5" y="-72.6" font-family="Times-Roman" font-size="8.00" fill="#6f42c1">about</text>
</g>
<!-- L4YAML.Proofs.ScannerCorrectness.scanFlowMappingEnd_adds_one_token -->
<g id="node13" class="node">
<title>L4YAML.Proofs.ScannerCorrectness.scanFlowMappingEnd_adds_one_token</title>
<g id="a_node13"><a xlink:href="../../../api/L4YAML/Proofs/Scanner/ScannerCorrectness.html#L4YAML.Proofs.ScannerCorrectness.scanFlowMappingEnd_adds_one_token" xlink:title="ScannerCorrectness.scanFlowMappingEnd_adds_one_token" target="_blank">
<ellipse fill="#d4edda" stroke="#28a745" cx="181" cy="-196" rx="165.33" ry="18"/>
<text text-anchor="middle" x="181" y="-193.5" font-family="Helvetica" font-size="10.00">ScannerCorrectness.scanFlowMappingEnd_adds_one_token</text>
</a>
</g>
</g>
<!-- L4YAML.Proofs.ScannerCorrectness.scanFlowMappingEnd_adds_one_token&#45;&gt;L4YAML.Scanner.scanFlowMappingEnd -->
<g id="edge15" class="edge">
<title>L4YAML.Proofs.ScannerCorrectness.scanFlowMappingEnd_adds_one_token&#45;&gt;L4YAML.Scanner.scanFlowMappingEnd</title>
<path fill="none" stroke="#6f42c1" stroke-width="2" stroke-dasharray="5,2" d="M293.22,-182.74C313.75,-180.87 335,-179.17 355,-178 456.85,-172.04 1172.56,-177.91 1273,-160 1285.04,-157.85 1287.11,-153.85 1299,-151 1356.16,-137.32 1372.28,-144.04 1430,-133 1431.75,-132.67 1433.52,-132.31 1435.31,-131.95"/>
<polygon fill="#6f42c1" stroke="#6f42c1" stroke-width="2" points="1435.9,-134.33 1442.25,-130.48 1434.89,-129.53 1435.9,-134.33"/>
<text text-anchor="middle" x="1311.5" y="-153.6" font-family="Times-Roman" font-size="8.00" fill="#6f42c1">about</text>
</g>
<!-- L4YAML.Proofs.ScannerCorrectness.scanFlowMappingEnd_adds_one_token&#45;&gt;L4YAML.Proofs.ScannerCorrectness.advance_preserves_tokens -->
<g id="edge17" class="edge">
<title>L4YAML.Proofs.ScannerCorrectness.scanFlowMappingEnd_adds_one_token&#45;&gt;L4YAML.Proofs.ScannerCorrectness.advance_preserves_tokens</title>
<path fill="none" stroke="#28a745" stroke-width="2" d="M297.49,-183.16C316.69,-181.34 336.4,-179.55 355,-178 628.54,-155.16 949.66,-134.35 1122.86,-123.63"/>
<polygon fill="#28a745" stroke="#28a745" stroke-width="2" points="1123.14,-126.06 1129.98,-123.19 1122.84,-121.17 1123.14,-126.06"/>
<text text-anchor="middle" x="708" y="-153.6" font-family="Times-Roman" font-size="8.00">uses</text>
</g>
<!-- L4YAML.Proofs.ScannerCorrectness.ScanHelpers.dispatchFlowIndicators_tokens_mono -->
<g id="node14" class="node">
<title>L4YAML.Proofs.ScannerCorrectness.ScanHelpers.dispatchFlowIndicators_tokens_mono</title>
<g id="a_node14"><a xlink:href="../../../api/L4YAML/Proofs/Scanner/ScannerCorrectness.html#L4YAML.Proofs.ScannerCorrectness.ScanHelpers.dispatchFlowIndicators_tokens_mono" xlink:title="ScannerCorrectness.ScanHelpers.dispatchFlowIndicators_tokens_mono" target="_blank">
<polygon fill="#fff3cd" stroke="#d4a017" points="1106.35,-293.54 1106.35,-308.46 981.96,-319 806.04,-319 681.65,-308.46 681.65,-293.54 806.04,-283 981.96,-283 1106.35,-293.54"/>
<polygon fill="none" stroke="#d4a017" points="1110.35,-289.87 1110.35,-312.13 982.13,-323 805.87,-323 677.65,-312.13 677.65,-289.87 805.87,-279 982.13,-279 1110.35,-289.87"/>
<text text-anchor="middle" x="894" y="-298.5" font-family="Helvetica" font-size="10.00">ScannerCorrectness.ScanHelpers.dispatchFlowIndicators_tokens_mono</text>
</a>
</g>
</g>
<!-- L4YAML.Proofs.ScannerCorrectness.ScanHelpers.dispatchFlowIndicators_tokens_mono&#45;&gt;L4YAML.Scanner.scanNextToken_dispatchFlowIndicators -->
<g id="edge1" class="edge">
<title>L4YAML.Proofs.ScannerCorrectness.ScanHelpers.dispatchFlowIndicators_tokens_mono&#45;&gt;L4YAML.Scanner.scanNextToken_dispatchFlowIndicators</title>
<path fill="none" stroke="#6f42c1" stroke-width="2" stroke-dasharray="5,2" d="M1074.34,-286.79C1178.68,-277.75 1312.24,-263.77 1430,-244 1473.79,-236.65 1522.27,-225.47 1560.76,-215.86"/>
<polygon fill="#6f42c1" stroke="#6f42c1" stroke-width="2" points="1561.63,-218.17 1567.82,-214.09 1560.44,-213.42 1561.63,-218.17"/>
<text text-anchor="middle" x="1384.5" y="-254.6" font-family="Times-Roman" font-size="8.00" fill="#6f42c1">about</text>
</g>
<!-- L4YAML.Proofs.ScannerCorrectness.ScanHelpers.dispatchFlowIndicators_tokens_mono&#45;&gt;L4YAML.Proofs.ScannerCorrectness.scanFlowSequenceStart_adds_one_token -->
<g id="edge9" class="edge">
<title>L4YAML.Proofs.ScannerCorrectness.ScanHelpers.dispatchFlowIndicators_tokens_mono&#45;&gt;L4YAML.Proofs.ScannerCorrectness.scanFlowSequenceStart_adds_one_token</title>
<path fill="none" stroke="#28a745" stroke-width="2" d="M820.69,-278.91C755.39,-260.12 660.86,-232.92 598.93,-215.1"/>
<polygon fill="#28a745" stroke="#28a745" stroke-width="2" points="599.32,-212.67 591.92,-213.09 597.96,-217.38 599.32,-212.67"/>
<text text-anchor="middle" x="767" y="-254.6" font-family="Times-Roman" font-size="8.00">uses</text>
</g>
<!-- L4YAML.Proofs.ScannerCorrectness.ScanHelpers.dispatchFlowIndicators_tokens_mono&#45;&gt;L4YAML.Proofs.ScannerCorrectness.scanFlowSequenceEnd_adds_one_token -->
<g id="edge3" class="edge">
<title>L4YAML.Proofs.ScannerCorrectness.ScanHelpers.dispatchFlowIndicators_tokens_mono&#45;&gt;L4YAML.Proofs.ScannerCorrectness.scanFlowSequenceEnd_adds_one_token</title>
<path fill="none" stroke="#28a745" stroke-width="2" d="M966.7,-278.91C1031.45,-260.12 1125.18,-232.92 1186.6,-215.1"/>
<polygon fill="#28a745" stroke="#28a745" stroke-width="2" points="1187.51,-217.39 1193.55,-213.09 1186.15,-212.68 1187.51,-217.39"/>
<text text-anchor="middle" x="1060" y="-254.6" font-family="Times-Roman" font-size="8.00">uses</text>
</g>
<!-- L4YAML.Proofs.ScannerCorrectness.ScanHelpers.dispatchFlowIndicators_tokens_mono&#45;&gt;L4YAML.Proofs.ScannerCorrectness.scanFlowMappingStart_adds_one_token -->
<g id="edge23" class="edge">
<title>L4YAML.Proofs.ScannerCorrectness.ScanHelpers.dispatchFlowIndicators_tokens_mono&#45;&gt;L4YAML.Proofs.ScannerCorrectness.scanFlowMappingStart_adds_one_token</title>
<path fill="none" stroke="#28a745" stroke-width="2" d="M894,-278.66C894,-261.95 894,-238.71 894,-221.29"/>
<polygon fill="#28a745" stroke="#28a745" stroke-width="2" points="896.45,-221.22 894,-214.22 891.55,-221.22 896.45,-221.22"/>
<text text-anchor="middle" x="904" y="-254.6" font-family="Times-Roman" font-size="8.00">uses</text>
</g>
<!-- L4YAML.Proofs.ScannerCorrectness.ScanHelpers.dispatchFlowIndicators_tokens_mono&#45;&gt;L4YAML.Proofs.ScannerCorrectness.scanFlowMappingEnd_adds_one_token -->
<g id="edge14" class="edge">
<title>L4YAML.Proofs.ScannerCorrectness.ScanHelpers.dispatchFlowIndicators_tokens_mono&#45;&gt;L4YAML.Proofs.ScannerCorrectness.scanFlowMappingEnd_adds_one_token</title>
<path fill="none" stroke="#28a745" stroke-width="2" d="M703.35,-287.68C599.74,-279.11 469.7,-265.31 355,-244 315.94,-236.74 272.82,-225.12 239.28,-215.25"/>
<polygon fill="#28a745" stroke="#28a745" stroke-width="2" points="239.68,-212.82 232.27,-213.18 238.29,-217.52 239.68,-212.82"/>
<text text-anchor="middle" x="467" y="-254.6" font-family="Times-Roman" font-size="8.00">uses</text>
</g>
</g>
</svg>
