<?xml version="1.0" encoding="UTF-8" standalone="no"?>
<!DOCTYPE svg PUBLIC "-//W3C//DTD SVG 1.1//EN"
 "http://www.w3.org/Graphics/SVG/1.1/DTD/svg11.dtd">
<!-- Generated by graphviz version 2.44.0 (0)
 -->
<!-- Title: chain_ScannerCorrectness.ScanHelpers.parseBlockHeaderLoop_preserves_tokens Pages: 1 -->
<svg width="773pt" height="324pt"
 viewBox="0.00 0.00 773.00 324.00" xmlns="http://www.w3.org/2000/svg" xmlns:xlink="http://www.w3.org/1999/xlink">
<g id="graph0" class="graph" transform="scale(1 1) rotate(0) translate(4 320)">
<title>chain_ScannerCorrectness.ScanHelpers.parseBlockHeaderLoop_preserves_tokens</title>
<polygon fill="white" stroke="transparent" points="-4,4 -4,-320 769,-320 769,4 -4,4"/>
<text text-anchor="middle" x="382.5" y="-301.6" font-family="Helvetica Bold" font-size="13.00">Functorial Chains: ScannerCorrectness.ScanHelpers.parseBlockHeaderLoop_preserves_tokens</text>
<text text-anchor="middle" x="382.5" y="-287.6" font-family="Helvetica Bold" font-size="13.00">(heuristic: used by 6 proofs)</text>
<g id="clust1" class="cluster">
<title>cluster_fns</title>
<polygon fill="none" stroke="#4a90d9" stroke-dasharray="5,2" points="496,-8 496,-163 757,-163 757,-8 496,-8"/>
<text text-anchor="middle" x="626.5" y="-148.6" font-family="Helvetica Bold" font-size="13.00" fill="#4a90d9">Functions (Call Chain)</text>
</g>
<g id="clust2" class="cluster">
<title>cluster_thms</title>
<polygon fill="none" stroke="#28a745" stroke-dasharray="5,2" points="8,-89 8,-272 488,-272 488,-89 8,-89"/>
<text text-anchor="middle" x="248" y="-257.6" font-family="Helvetica Bold" font-size="13.00" fill="#28a745">Theorems (Proof Chain)</text>
</g>
<!-- L4YAML.ChompStyle -->
<g id="node1" class="node">
<title>L4YAML.ChompStyle</title>
<g id="a_node1"><a xlink:href="../../../api/L4YAML/Spec/Types.html#L4YAML.ChompStyle" xlink:title="ChompStyle" target="_blank">
<polygon fill="#dce9f7" stroke="#4a90d9" points="575.5,-52 504.5,-52 504.5,-16 575.5,-16 575.5,-52"/>
<text text-anchor="middle" x="540" y="-31.5" font-family="Helvetica" font-size="10.00">ChompStyle</text>
</a>
</g>
</g>
<!-- L4YAML.Scanner.ScannerState -->
<g id="node2" class="node">
<title>L4YAML.Scanner.ScannerState</title>
<g id="a_node2"><a xlink:href="../../../api/L4YAML/Scanner/State.html#L4YAML.Scanner.ScannerState" xlink:title="ScannerState" target="_blank">
<polygon fill="#dce9f7" stroke="#4a90d9" points="670,-52 594,-52 594,-16 670,-16 670,-52"/>
<text text-anchor="middle" x="632" y="-31.5" font-family="Helvetica" font-size="10.00">ScannerState</text>
</a>
</g>
</g>
<!-- L4YAML.Scanner.parseBlockHeaderLoop -->
<g id="node3" class="node">
<title>L4YAML.Scanner.parseBlockHeaderLoop</title>
<g id="a_node3"><a xlink:href="../../../api/L4YAML/Scanner/Scalar.html#L4YAML.Scanner.parseBlockHeaderLoop" xlink:title="parseBlockHeaderLoop" target="_blank">
<polygon fill="#dce9f7" stroke="#4a90d9" points="623.5,-133 504.5,-133 504.5,-97 623.5,-97 623.5,-133"/>
<text text-anchor="middle" x="564" y="-112.5" font-family="Helvetica" font-size="10.00">parseBlockHeaderLoop</text>
</a>
</g>
</g>
<!-- L4YAML.Scanner.parseBlockHeaderLoop&#45;&gt;L4YAML.ChompStyle -->
<g id="edge9" class="edge">
<title>L4YAML.Scanner.parseBlockHeaderLoop&#45;&gt;L4YAML.ChompStyle</title>
<path fill="none" stroke="#4a90d9" stroke-width="2" d="M558.79,-96.86C555.43,-85.78 551,-71.21 547.29,-58.99"/>
<polygon fill="#4a90d9" stroke="#4a90d9" stroke-width="2" points="549.58,-58.09 545.2,-52.11 544.89,-59.52 549.58,-58.09"/>
<text text-anchor="middle" x="561.5" y="-72.6" font-family="Times-Roman" font-size="8.00">calls</text>
</g>
<!-- L4YAML.Scanner.parseBlockHeaderLoop&#45;&gt;L4YAML.Scanner.ScannerState -->
<g id="edge2" class="edge">
<title>L4YAML.Scanner.parseBlockHeaderLoop&#45;&gt;L4YAML.Scanner.ScannerState</title>
<path fill="none" stroke="#4a90d9" stroke-width="2" d="M578.75,-96.86C588.65,-85.37 601.78,-70.11 612.52,-57.63"/>
<polygon fill="#4a90d9" stroke="#4a90d9" stroke-width="2" points="614.56,-59.01 617.27,-52.11 610.85,-55.82 614.56,-59.01"/>
<text text-anchor="middle" x="609.5" y="-72.6" font-family="Times-Roman" font-size="8.00">calls</text>
</g>
<!-- L4YAML.Scanner.ScannerState.tokens -->
<g id="node4" class="node">
<title>L4YAML.Scanner.ScannerState.tokens</title>
<g id="a_node4"><a xlink:href="../../../api/L4YAML/Scanner/State.html#L4YAML.Scanner.ScannerState.tokens" xlink:title="ScannerState.tokens" target="_blank">
<polygon fill="#dce9f7" stroke="#4a90d9" points="748.5,-133 641.5,-133 641.5,-97 748.5,-97 748.5,-133"/>
<text text-anchor="middle" x="695" y="-112.5" font-family="Helvetica" font-size="10.00">ScannerState.tokens</text>
</a>
</g>
</g>
<!-- L4YAML.Scanner.ScannerState.tokens&#45;&gt;L4YAML.Scanner.ScannerState -->
<g id="edge6" class="edge">
<title>L4YAML.Scanner.ScannerState.tokens&#45;&gt;L4YAML.Scanner.ScannerState</title>
<path fill="none" stroke="#4a90d9" stroke-width="2" d="M681.33,-96.86C672.17,-85.37 660,-70.11 650.04,-57.63"/>
<polygon fill="#4a90d9" stroke="#4a90d9" stroke-width="2" points="651.92,-56.05 645.64,-52.11 648.09,-59.11 651.92,-56.05"/>
<text text-anchor="middle" x="674.5" y="-72.6" font-family="Times-Roman" font-size="8.00">calls</text>
</g>
<!-- L4YAML.Scanner.parseBlockHeaderLoop.eq_def -->
<g id="node5" class="node">
<title>L4YAML.Scanner.parseBlockHeaderLoop.eq_def</title>
<g id="a_node5"><a xlink:href="../../../api/L4YAML/Proofs/Coupling/ScalarCoupling.html#L4YAML.Scanner.parseBlockHeaderLoop.eq_def" xlink:title="parseBlockHeaderLoop.eq_def" target="_blank">
<ellipse fill="#d4edda" stroke="#28a745" cx="105" cy="-115" rx="88.78" ry="18"/>
<text text-anchor="middle" x="105" y="-112.5" font-family="Helvetica" font-size="10.00">parseBlockHeaderLoop.eq_def</text>
</a>
</g>
</g>
<!-- L4YAML.Scanner.parseBlockHeaderLoop.eq_def&#45;&gt;L4YAML.ChompStyle -->
<g id="edge10" class="edge">
<title>L4YAML.Scanner.parseBlockHeaderLoop.eq_def&#45;&gt;L4YAML.ChompStyle</title>
<path fill="none" stroke="#6f42c1" stroke-width="2" stroke-dasharray="5,2" d="M157.31,-100.35C172.07,-96.58 188.14,-92.55 203,-89 240.65,-79.99 249.91,-76.89 288,-70 361.12,-56.77 446.96,-45.82 497.23,-39.86"/>
<polygon fill="#6f42c1" stroke="#6f42c1" stroke-width="2" points="497.72,-42.27 504.38,-39.01 497.14,-37.4 497.72,-42.27"/>
<text text-anchor="middle" x="300.5" y="-72.6" font-family="Times-Roman" font-size="8.00" fill="#6f42c1">about</text>
</g>
<!-- L4YAML.Scanner.parseBlockHeaderLoop.eq_def&#45;&gt;L4YAML.Scanner.ScannerState -->
<g id="edge8" class="edge">
<title>L4YAML.Scanner.parseBlockHeaderLoop.eq_def&#45;&gt;L4YAML.Scanner.ScannerState</title>
<path fill="none" stroke="#6f42c1" stroke-width="2" stroke-dasharray="5,2" d="M153.77,-99.93C169.39,-95.87 186.82,-91.78 203,-89 251.38,-80.68 264.13,-83.65 313,-79 373.47,-73.25 525.76,-65.43 585,-52 585.63,-51.86 586.26,-51.71 586.9,-51.55"/>
<polygon fill="#6f42c1" stroke="#6f42c1" stroke-width="2" points="587.63,-53.89 593.76,-49.71 586.36,-49.16 587.63,-53.89"/>
<text text-anchor="middle" x="436.5" y="-72.6" font-family="Times-Roman" font-size="8.00" fill="#6f42c1">about</text>
</g>
<!-- L4YAML.Proofs.ScannerCorrectness.ScanHelpers.parseBlockHeaderLoop_preserves_tokens -->
<g id="node6" class="node">
<title>L4YAML.Proofs.ScannerCorrectness.ScanHelpers.parseBlockHeaderLoop_preserves_tokens</title>
<g id="a_node6"><a xlink:href="../../../api/L4YAML/Proofs/Scanner/ScannerCorrectness.html#L4YAML.Proofs.ScannerCorrectness.ScanHelpers.parseBlockHeaderLoop_preserves_tokens" xlink:title="ScannerCorrectness.ScanHelpers.parseBlockHeaderLoop_preserves_tokens" target="_blank">
<polygon fill="#fff3cd" stroke="#d4a017" points="475.84,-212.54 475.84,-227.46 344.13,-238 157.87,-238 26.16,-227.46 26.16,-212.54 157.87,-202 344.13,-202 475.84,-212.54"/>
<polygon fill="none" stroke="#d4a017" points="479.84,-208.85 479.84,-231.15 344.29,-242 157.71,-242 22.16,-231.15 22.16,-208.85 157.71,-198 344.29,-198 479.84,-208.85"/>
<text text-anchor="middle" x="251" y="-217.5" font-family="Helvetica" font-size="10.00">ScannerCorrectness.ScanHelpers.parseBlockHeaderLoop_preserves_tokens</text>
</a>
</g>
</g>
<!-- L4YAML.Proofs.ScannerCorrectness.ScanHelpers.parseBlockHeaderLoop_preserves_tokens&#45;&gt;L4YAML.Scanner.parseBlockHeaderLoop -->
<g id="edge1" class="edge">
<title>L4YAML.Proofs.ScannerCorrectness.ScanHelpers.parseBlockHeaderLoop_preserves_tokens&#45;&gt;L4YAML.Scanner.parseBlockHeaderLoop</title>
<path fill="none" stroke="#6f42c1" stroke-width="2" stroke-dasharray="5,2" d="M369.76,-200.02C409.57,-191.42 453.58,-179.4 492,-163 507.6,-156.34 523.53,-146.34 536.43,-137.27"/>
<polygon fill="#6f42c1" stroke="#6f42c1" stroke-width="2" points="537.87,-139.25 542.13,-133.18 535.01,-135.27 537.87,-139.25"/>
<text text-anchor="middle" x="479.5" y="-173.6" font-family="Times-Roman" font-size="8.00" fill="#6f42c1">about</text>
</g>
<!-- L4YAML.Proofs.ScannerCorrectness.ScanHelpers.parseBlockHeaderLoop_preserves_tokens&#45;&gt;L4YAML.Scanner.ScannerState.tokens -->
<g id="edge5" class="edge">
<title>L4YAML.Proofs.ScannerCorrectness.ScanHelpers.parseBlockHeaderLoop_preserves_tokens&#45;&gt;L4YAML.Scanner.ScannerState.tokens</title>
<path fill="none" stroke="#6f42c1" stroke-width="2" stroke-dasharray="5,2" d="M461.31,-207.35C518.58,-199.09 579.53,-185.42 633,-163 647.21,-157.04 661.07,-147.05 672.07,-137.82"/>
<polygon fill="#6f42c1" stroke="#6f42c1" stroke-width="2" points="673.86,-139.51 677.55,-133.08 670.65,-135.81 673.86,-139.51"/>
<text text-anchor="middle" x="615.5" y="-173.6" font-family="Times-Roman" font-size="8.00" fill="#6f42c1">about</text>
</g>
<!-- L4YAML.Proofs.ScannerCorrectness.ScanHelpers.parseBlockHeaderLoop_preserves_tokens&#45;&gt;L4YAML.Scanner.parseBlockHeaderLoop.eq_def -->
<g id="edge7" class="edge">
<title>L4YAML.Proofs.ScannerCorrectness.ScanHelpers.parseBlockHeaderLoop_preserves_tokens&#45;&gt;L4YAML.Scanner.parseBlockHeaderLoop.eq_def</title>
<path fill="none" stroke="#28a745" stroke-width="2" d="M221.1,-197.91C195.77,-180.04 159.65,-154.55 134.44,-136.77"/>
<polygon fill="#28a745" stroke="#28a745" stroke-width="2" points="135.74,-134.69 128.6,-132.65 132.91,-138.69 135.74,-134.69"/>
<text text-anchor="middle" x="205" y="-173.6" font-family="Times-Roman" font-size="8.00">uses</text>
</g>
<!-- L4YAML.Proofs.ScannerCorrectness.advance_preserves_tokens -->
<g id="node7" class="node">
<title>L4YAML.Proofs.ScannerCorrectness.advance_preserves_tokens</title>
<g id="a_node7"><a xlink:href="../../../api/L4YAML/Proofs/Scanner/ScannerCorrectness.html#L4YAML.Proofs.ScannerCorrectness.advance_preserves_tokens" xlink:title="ScannerCorrectness.advance_preserves_tokens" target="_blank">
<ellipse fill="#d4edda" stroke="#28a745" cx="346" cy="-115" rx="133.75" ry="18"/>
<text text-anchor="middle" x="346" y="-112.5" font-family="Helvetica" font-size="10.00">ScannerCorrectness.advance_preserves_tokens</text>
</a>
</g>
</g>
<!-- L4YAML.Proofs.ScannerCorrectness.ScanHelpers.parseBlockHeaderLoop_preserves_tokens&#45;&gt;L4YAML.Proofs.ScannerCorrectness.advance_preserves_tokens -->
<g id="edge3" class="edge">
<title>L4YAML.Proofs.ScannerCorrectness.ScanHelpers.parseBlockHeaderLoop_preserves_tokens&#45;&gt;L4YAML.Proofs.ScannerCorrectness.advance_preserves_tokens</title>
<path fill="none" stroke="#28a745" stroke-width="2" d="M270.68,-197.66C286.74,-180.25 309.34,-155.74 325.59,-138.13"/>
<polygon fill="#28a745" stroke="#28a745" stroke-width="2" points="327.47,-139.7 330.42,-132.89 323.87,-136.38 327.47,-139.7"/>
<text text-anchor="middle" x="302" y="-173.6" font-family="Times-Roman" font-size="8.00">uses</text>
</g>
<!-- L4YAML.Proofs.ScannerCorrectness.advance_preserves_tokens&#45;&gt;L4YAML.Scanner.ScannerState -->
<g id="edge4" class="edge">
<title>L4YAML.Proofs.ScannerCorrectness.advance_preserves_tokens&#45;&gt;L4YAML.Scanner.ScannerState</title>
<path fill="none" stroke="#6f42c1" stroke-width="2" stroke-dasharray="5,2" d="M406.69,-98.94C466.01,-84.1 552.04,-62.21 585,-52 585.73,-51.78 586.46,-51.55 587.19,-51.31"/>
<polygon fill="#6f42c1" stroke="#6f42c1" stroke-width="2" points="587.99,-53.63 593.88,-49.12 586.47,-48.97 587.99,-53.63"/>
<text text-anchor="middle" x="528.5" y="-72.6" font-family="Times-Roman" font-size="8.00" fill="#6f42c1">about</text>
</g>
</g>
</svg>
