<?xml version="1.0" encoding="UTF-8" standalone="no"?>
<!DOCTYPE svg PUBLIC "-//W3C//DTD SVG 1.1//EN"
 "http://www.w3.org/Graphics/SVG/1.1/DTD/svg11.dtd">
<!-- Generated by graphviz version 2.44.0 (0)
 -->
<!-- Title: ScannerCorrectness.ScanHelpers.scanDocumentEnd_adds_tokens Pages: 1 -->
<svg width="1357pt" height="1218pt"
 viewBox="0.00 0.00 1357.13 1217.58" xmlns="http://www.w3.org/2000/svg" xmlns:xlink="http://www.w3.org/1999/xlink">
<g id="graph0" class="graph" transform="scale(1 1) rotate(0) translate(4 1213.58)">
<title>ScannerCorrectness.ScanHelpers.scanDocumentEnd_adds_tokens</title>
<polygon fill="white" stroke="transparent" points="-4,4 -4,-1213.58 1353.13,-1213.58 1353.13,4 -4,4"/>
<text text-anchor="middle" x="674.56" y="-1195.18" font-family="Helvetica Bold" font-size="13.00">ScannerCorrectness.ScanHelpers.scanDocumentEnd_adds_tokens</text>
<text text-anchor="middle" x="674.56" y="-1181.18" font-family="Helvetica Bold" font-size="13.00">(heuristic: used by 5 proofs)</text>
<text text-anchor="middle" x="674.56" y="-1167.18" font-family="Helvetica Bold" font-size="13.00">(L4YAML.Proofs.Scanner.ScannerCorrectness)</text>
<g id="clust1" class="cluster">
<title>cluster_functions</title>
<polygon fill="none" stroke="#4a90d9" stroke-dasharray="5,2" points="830.6,-807.58 830.6,-1151.58 1341.13,-1151.58 1341.13,-807.58 830.6,-807.58"/>
<text text-anchor="middle" x="1085.86" y="-1137.18" font-family="Helvetica Bold" font-size="13.00" fill="#4a90d9">Functions</text>
</g>
<g id="clust2" class="cluster">
<title>cluster_key</title>
<polygon fill="none" stroke="#d4a017" stroke-dasharray="5,2" points="644.07,-717.58 644.07,-799.58 1173.13,-799.58 1173.13,-717.58 644.07,-717.58"/>
<text text-anchor="middle" x="908.6" y="-785.18" font-family="Helvetica Bold" font-size="13.00" fill="#d4a017">Key Theorem</text>
</g>
<g id="clust3" class="cluster">
<title>cluster_proofs</title>
<polygon fill="none" stroke="#28a745" stroke-dasharray="5,2" points="40.35,-317.58 40.35,-577.58 569.71,-577.58 569.71,-317.58 40.35,-317.58"/>
<text text-anchor="middle" x="305.03" y="-563.18" font-family="Helvetica Bold" font-size="13.00" fill="#28a745">Proof Dependencies</text>
</g>
<g id="clust4" class="cluster">
<title>cluster_stdlib</title>
<polygon fill="none" stroke="#e67e22" stroke-dasharray="5,2" points="8,-746.58 8,-982.58 602.07,-982.58 602.07,-746.58 8,-746.58"/>
<text text-anchor="middle" x="305.03" y="-968.18" font-family="Helvetica Bold" font-size="13.00" fill="#e67e22">Stdlib Lemmas</text>
</g>
<!-- L4YAML.Scanner.ScannerState.advanceN -->
<g id="node1" class="node">
<title>L4YAML.Scanner.ScannerState.advanceN</title>
<g id="a_node1"><a xlink:href="../../../api/L4YAML/Scanner/State.html#L4YAML.Scanner.ScannerState.advanceN" xlink:title="ScannerState.advanceN\n(def)" target="_blank">
<polygon fill="#dce9f7" stroke="#4a90d9" points="969.6,-959.58 847.6,-959.58 847.6,-923.58 969.6,-923.58 969.6,-959.58"/>
<text text-anchor="middle" x="908.6" y="-944.58" font-family="Helvetica" font-size="10.00">ScannerState.advanceN</text>
<text text-anchor="middle" x="908.6" y="-933.58" font-family="Helvetica" font-size="10.00">(def)</text>
</a>
</g>
</g>
<!-- L4YAML.Scanner.ScannerState.emit -->
<g id="node2" class="node">
<title>L4YAML.Scanner.ScannerState.emit</title>
<g id="a_node2"><a xlink:href="../../../api/L4YAML/Scanner/State.html#L4YAML.Scanner.ScannerState.emit" xlink:title="ScannerState.emit\n(def)" target="_blank">
<polygon fill="#dce9f7" stroke="#4a90d9" points="957.6,-905.58 859.6,-905.58 859.6,-869.58 957.6,-869.58 957.6,-905.58"/>
<text text-anchor="middle" x="908.6" y="-890.58" font-family="Helvetica" font-size="10.00">ScannerState.emit</text>
<text text-anchor="middle" x="908.6" y="-879.58" font-family="Helvetica" font-size="10.00">(def)</text>
</a>
</g>
</g>
<!-- L4YAML.Positioned -->
<g id="node3" class="node">
<title>L4YAML.Positioned</title>
<g id="a_node3"><a xlink:href="../../../api/L4YAML/Token/Token.html#L4YAML.Positioned" xlink:title="Positioned\n(inductive)" target="_blank">
<polygon fill="#dce9f7" stroke="#4a90d9" points="1310.63,-851.58 1248.63,-851.58 1248.63,-815.58 1310.63,-815.58 1310.63,-851.58"/>
<text text-anchor="middle" x="1279.63" y="-836.58" font-family="Helvetica" font-size="10.00">Positioned</text>
<text text-anchor="middle" x="1279.63" y="-825.58" font-family="Helvetica" font-size="10.00">(inductive)</text>
</a>
</g>
</g>
<!-- L4YAML.Scanner.unwindIndents -->
<g id="node4" class="node">
<title>L4YAML.Scanner.unwindIndents</title>
<g id="a_node4"><a xlink:href="../../../api/L4YAML/Scanner/Indent.html#L4YAML.Scanner.unwindIndents" xlink:title="unwindIndents\n(def)" target="_blank">
<polygon fill="#dce9f7" stroke="#4a90d9" points="948.6,-851.58 868.6,-851.58 868.6,-815.58 948.6,-815.58 948.6,-851.58"/>
<text text-anchor="middle" x="908.6" y="-836.58" font-family="Helvetica" font-size="10.00">unwindIndents</text>
<text text-anchor="middle" x="908.6" y="-825.58" font-family="Helvetica" font-size="10.00">(def)</text>
</a>
</g>
</g>
<!-- L4YAML.Scanner.ScannerState -->
<g id="node5" class="node">
<title>L4YAML.Scanner.ScannerState</title>
<g id="a_node5"><a xlink:href="../../../api/L4YAML/Scanner/State.html#L4YAML.Scanner.ScannerState" xlink:title="ScannerState\n(inductive)" target="_blank">
<polygon fill="#dce9f7" stroke="#4a90d9" points="1317.63,-1013.58 1241.63,-1013.58 1241.63,-977.58 1317.63,-977.58 1317.63,-1013.58"/>
<text text-anchor="middle" x="1279.63" y="-998.58" font-family="Helvetica" font-size="10.00">ScannerState</text>
<text text-anchor="middle" x="1279.63" y="-987.58" font-family="Helvetica" font-size="10.00">(inductive)</text>
</a>
</g>
</g>
<!-- L4YAML.YamlToken -->
<g id="node6" class="node">
<title>L4YAML.YamlToken</title>
<g id="a_node6"><a xlink:href="../../../api/L4YAML/Token/Token.html#L4YAML.YamlToken" xlink:title="YamlToken\n(inductive)" target="_blank">
<polygon fill="#dce9f7" stroke="#4a90d9" points="1311.63,-959.58 1247.63,-959.58 1247.63,-923.58 1311.63,-923.58 1311.63,-959.58"/>
<text text-anchor="middle" x="1279.63" y="-944.58" font-family="Helvetica" font-size="10.00">YamlToken</text>
<text text-anchor="middle" x="1279.63" y="-933.58" font-family="Helvetica" font-size="10.00">(inductive)</text>
</a>
</g>
</g>
<!-- L4YAML.Scanner.scanDocumentEnd.match_1 -->
<g id="node7" class="node">
<title>L4YAML.Scanner.scanDocumentEnd.match_1</title>
<g id="a_node7"><a xlink:href="../../../api/L4YAML/Scanner/Document.html#L4YAML.Scanner.scanDocumentEnd.match_1" xlink:title="scanDocumentEnd.match_1\n(def)" target="_blank">
<polygon fill="#dce9f7" stroke="#4a90d9" points="978.6,-1013.58 838.6,-1013.58 838.6,-977.58 978.6,-977.58 978.6,-1013.58"/>
<text text-anchor="middle" x="908.6" y="-998.58" font-family="Helvetica" font-size="10.00">scanDocumentEnd.match_1</text>
<text text-anchor="middle" x="908.6" y="-987.58" font-family="Helvetica" font-size="10.00">(def)</text>
</a>
</g>
</g>
<!-- L4YAML.Scanner.scanDocumentEnd -->
<g id="node8" class="node">
<title>L4YAML.Scanner.scanDocumentEnd</title>
<g id="a_node8"><a xlink:href="../../../api/L4YAML/Scanner/Document.html#L4YAML.Scanner.scanDocumentEnd" xlink:title="scanDocumentEnd\n(def)" target="_blank">
<polygon fill="#dce9f7" stroke="#4a90d9" points="1329.63,-1067.58 1229.63,-1067.58 1229.63,-1031.58 1329.63,-1031.58 1329.63,-1067.58"/>
<text text-anchor="middle" x="1279.63" y="-1052.58" font-family="Helvetica" font-size="10.00">scanDocumentEnd</text>
<text text-anchor="middle" x="1279.63" y="-1041.58" font-family="Helvetica" font-size="10.00">(def)</text>
</a>
</g>
</g>
<!-- L4YAML.ScanError -->
<g id="node9" class="node">
<title>L4YAML.ScanError</title>
<g id="a_node9"><a xlink:href="../../../api/L4YAML/Token/Token.html#L4YAML.ScanError" xlink:title="ScanError\n(inductive)" target="_blank">
<polygon fill="#dce9f7" stroke="#4a90d9" points="1310.63,-1121.58 1248.63,-1121.58 1248.63,-1085.58 1310.63,-1085.58 1310.63,-1121.58"/>
<text text-anchor="middle" x="1279.63" y="-1106.58" font-family="Helvetica" font-size="10.00">ScanError</text>
<text text-anchor="middle" x="1279.63" y="-1095.58" font-family="Helvetica" font-size="10.00">(inductive)</text>
</a>
</g>
</g>
<!-- L4YAML.Scanner.ScannerState.tokens -->
<g id="node10" class="node">
<title>L4YAML.Scanner.ScannerState.tokens</title>
<g id="a_node10"><a xlink:href="../../../api/L4YAML/Scanner/State.html#L4YAML.Scanner.ScannerState.tokens" xlink:title="ScannerState.tokens\n(def)" target="_blank">
<polygon fill="#dce9f7" stroke="#4a90d9" points="1333.13,-905.58 1226.13,-905.58 1226.13,-869.58 1333.13,-869.58 1333.13,-905.58"/>
<text text-anchor="middle" x="1279.63" y="-890.58" font-family="Helvetica" font-size="10.00">ScannerState.tokens</text>
<text text-anchor="middle" x="1279.63" y="-879.58" font-family="Helvetica" font-size="10.00">(def)</text>
</a>
</g>
</g>
<!-- L4YAML.Proofs.ScannerCorrectness.ScanHelpers.scanDocumentEnd_adds_tokens -->
<g id="node11" class="node">
<title>L4YAML.Proofs.ScannerCorrectness.ScanHelpers.scanDocumentEnd_adds_tokens</title>
<g id="a_node11"><a xlink:href="../../../api/L4YAML/Proofs/Scanner/ScannerCorrectness.html#L4YAML.Proofs.ScannerCorrectness.ScanHelpers.scanDocumentEnd_adds_tokens" xlink:title="ScannerCorrectness.ScanHelpers.scanDocumentEnd_adds_tokens" target="_blank">
<polygon fill="#fff3cd" stroke="#d4a017" points="1161.16,-740.13 1161.16,-755.04 1013.21,-765.58 803.98,-765.58 656.04,-755.04 656.04,-740.13 803.98,-729.58 1013.21,-729.58 1161.16,-740.13"/>
<polygon fill="none" stroke="#d4a017" points="1165.16,-736.4 1165.16,-758.77 1013.35,-769.58 803.84,-769.58 652.04,-758.77 652.04,-736.4 803.84,-725.58 1013.35,-725.58 1165.16,-736.4"/>
<text text-anchor="middle" x="908.6" y="-744.48" font-family="Helvetica" font-size="12.00">ScannerCorrectness.ScanHelpers.scanDocumentEnd_adds_tokens</text>
</a>
</g>
</g>
<!-- L4YAML.Proofs.ScannerCorrectness.ScanHelpers.scanDocumentEnd_adds_tokens&#45;&gt;L4YAML.Positioned -->
<g id="edge3" class="edge">
<title>L4YAML.Proofs.ScannerCorrectness.ScanHelpers.scanDocumentEnd_adds_tokens&#45;&gt;L4YAML.Positioned</title>
<path fill="none" stroke="#4a90d9" stroke-width="2" d="M1038.02,-727.32C1111.85,-716.89 1192.93,-708 1208.13,-716.58 1242.77,-736.16 1262.29,-780.33 1271.62,-808.45"/>
<polygon fill="#4a90d9" stroke="#4a90d9" stroke-width="2" points="1269.32,-809.3 1273.78,-815.23 1273.99,-807.82 1269.32,-809.3"/>
<text text-anchor="middle" x="1195.63" y="-719.18" font-family="Times-Roman" font-size="8.00" fill="#4a90d9">about</text>
</g>
<!-- L4YAML.Proofs.ScannerCorrectness.ScanHelpers.scanDocumentEnd_adds_tokens&#45;&gt;L4YAML.Scanner.ScannerState -->
<g id="edge5" class="edge">
<title>L4YAML.Proofs.ScannerCorrectness.ScanHelpers.scanDocumentEnd_adds_tokens&#45;&gt;L4YAML.Scanner.ScannerState</title>
<path fill="none" stroke="#4a90d9" stroke-width="2" d="M1101.88,-763.4C1128.04,-772.36 1152.82,-785.24 1173.13,-803.58 1201.7,-829.4 1201.22,-939.21 1226.13,-968.58 1228.85,-971.79 1232.04,-974.66 1235.49,-977.22"/>
<polygon fill="#4a90d9" stroke="#4a90d9" stroke-width="2" points="1234.31,-979.38 1241.49,-981.25 1237.04,-975.31 1234.31,-979.38"/>
<text text-anchor="middle" x="1195.63" y="-919.18" font-family="Times-Roman" font-size="8.00" fill="#4a90d9">about</text>
</g>
<!-- L4YAML.Proofs.ScannerCorrectness.ScanHelpers.scanDocumentEnd_adds_tokens&#45;&gt;L4YAML.YamlToken -->
<g id="edge4" class="edge">
<title>L4YAML.Proofs.ScannerCorrectness.ScanHelpers.scanDocumentEnd_adds_tokens&#45;&gt;L4YAML.YamlToken</title>
<path fill="none" stroke="#4a90d9" stroke-width="2" d="M1093.64,-763.98C1122.27,-772.69 1149.98,-785.35 1173.13,-803.58 1194.6,-820.5 1207.09,-894.97 1226.13,-914.58 1230.44,-919.02 1235.64,-922.87 1241.06,-926.16"/>
<polygon fill="#4a90d9" stroke="#4a90d9" stroke-width="2" points="1240.19,-928.48 1247.5,-929.76 1242.59,-924.21 1240.19,-928.48"/>
<text text-anchor="middle" x="1195.63" y="-879.18" font-family="Times-Roman" font-size="8.00" fill="#4a90d9">about</text>
</g>
<!-- L4YAML.Proofs.ScannerCorrectness.ScanHelpers.scanDocumentEnd_adds_tokens&#45;&gt;L4YAML.Scanner.scanDocumentEnd -->
<g id="edge2" class="edge">
<title>L4YAML.Proofs.ScannerCorrectness.ScanHelpers.scanDocumentEnd_adds_tokens&#45;&gt;L4YAML.Scanner.scanDocumentEnd</title>
<path fill="none" stroke="#4a90d9" stroke-width="2" d="M1113.72,-762.5C1136.29,-771.89 1156.93,-785.13 1173.13,-803.58 1191.65,-824.7 1176.01,-902.41 1183.13,-929.58 1194.66,-973.64 1194.61,-989.72 1226.13,-1022.58 1227.72,-1024.25 1229.44,-1025.83 1231.26,-1027.33"/>
<polygon fill="#4a90d9" stroke="#4a90d9" stroke-width="2" points="1229.86,-1029.34 1236.93,-1031.58 1232.8,-1025.42 1229.86,-1029.34"/>
<text text-anchor="middle" x="1195.63" y="-1001.18" font-family="Times-Roman" font-size="8.00" fill="#4a90d9">about</text>
</g>
<!-- L4YAML.Proofs.ScannerCorrectness.ScanHelpers.scanDocumentEnd_adds_tokens&#45;&gt;L4YAML.ScanError -->
<g id="edge6" class="edge">
<title>L4YAML.Proofs.ScannerCorrectness.ScanHelpers.scanDocumentEnd_adds_tokens&#45;&gt;L4YAML.ScanError</title>
<path fill="none" stroke="#4a90d9" stroke-width="2" d="M1115.23,-762.43C1137.34,-771.87 1157.45,-785.15 1173.13,-803.58 1188.12,-821.21 1175.93,-989.59 1183.13,-1011.58 1193.9,-1044.51 1200.33,-1053.47 1226.13,-1076.58 1230.95,-1080.9 1236.59,-1084.74 1242.34,-1088.06"/>
<polygon fill="#4a90d9" stroke="#4a90d9" stroke-width="2" points="1241.28,-1090.27 1248.61,-1091.46 1243.62,-1085.97 1241.28,-1090.27"/>
<text text-anchor="middle" x="1195.63" y="-1060.18" font-family="Times-Roman" font-size="8.00" fill="#4a90d9">about</text>
</g>
<!-- L4YAML.Proofs.ScannerCorrectness.ScanHelpers.scanDocumentEnd_adds_tokens&#45;&gt;L4YAML.Scanner.ScannerState.tokens -->
<g id="edge1" class="edge">
<title>L4YAML.Proofs.ScannerCorrectness.ScanHelpers.scanDocumentEnd_adds_tokens&#45;&gt;L4YAML.Scanner.ScannerState.tokens</title>
<path fill="none" stroke="#4a90d9" stroke-width="2" d="M1073.85,-729.89C1131.44,-727.43 1187.05,-730.57 1208.13,-748.58 1246.45,-781.35 1196.52,-819.77 1226.13,-860.58 1227.11,-861.93 1228.17,-863.22 1229.31,-864.44"/>
<polygon fill="#4a90d9" stroke="#4a90d9" stroke-width="2" points="1227.91,-866.49 1234.71,-869.44 1231.24,-862.89 1227.91,-866.49"/>
<text text-anchor="middle" x="1195.63" y="-751.18" font-family="Times-Roman" font-size="8.00" fill="#4a90d9">about</text>
</g>
<!-- L4YAML.Proofs.ScannerProofs.emit_tokens_size -->
<g id="node12" class="node">
<title>L4YAML.Proofs.ScannerProofs.emit_tokens_size</title>
<g id="a_node12"><a xlink:href="../../../api/L4YAML/Proofs/Scanner/ScannerProofs.html#L4YAML.Proofs.ScannerProofs.emit_tokens_size" xlink:title="ScannerProofs.emit_tokens_size\n(Scanner.ScannerProofs)" target="_blank">
<ellipse fill="#d4edda" stroke="#28a745" cx="305.03" cy="-466.58" rx="112.36" ry="21.43"/>
<text text-anchor="middle" x="305.03" y="-469.58" font-family="Helvetica" font-size="10.00">ScannerProofs.emit_tokens_size</text>
<text text-anchor="middle" x="305.03" y="-458.58" font-family="Helvetica" font-size="10.00">(Scanner.ScannerProofs)</text>
</a>
</g>
</g>
<!-- L4YAML.Proofs.ScannerProofs.emit_tokens_size&#45;&gt;L4YAML.Scanner.ScannerState.emit -->
<g id="edge16" class="edge">
<title>L4YAML.Proofs.ScannerProofs.emit_tokens_size&#45;&gt;L4YAML.Scanner.ScannerState.emit</title>
<path fill="none" stroke="#6f42c1" stroke-width="2" stroke-dasharray="5,2" d="M380.57,-450.82C447.82,-441.35 544.72,-440.33 602.07,-496.58 603.39,-497.88 633.86,-759.74 634.07,-761.58 636.5,-783.56 628.44,-844.94 644.07,-860.58 698.51,-915.11 794.57,-909.83 854.45,-899.67"/>
<polygon fill="#6f42c1" stroke="#6f42c1" stroke-width="2" points="854.79,-901.39 859.41,-898.81 854.18,-897.94 854.79,-901.39"/>
<text text-anchor="middle" x="623.07" y="-763.98" font-family="Times-Roman" font-size="7.00" fill="#6f42c1">about</text>
</g>
<!-- L4YAML.Proofs.ScannerProofs.emit_tokens_size&#45;&gt;L4YAML.Positioned -->
<g id="edge17" class="edge">
<title>L4YAML.Proofs.ScannerProofs.emit_tokens_size&#45;&gt;L4YAML.Positioned</title>
<path fill="none" stroke="#6f42c1" stroke-width="2" stroke-dasharray="5,2" d="M417.22,-468.32C474.04,-465.99 543.39,-458.11 602.07,-436.58 618.27,-430.64 620.51,-425.27 634.07,-414.58 638.76,-410.88 638.48,-407.73 644.07,-405.58 753.83,-363.46 1058.25,-380.57 1173.13,-405.58 1189.84,-409.22 1197.7,-408.03 1208.13,-421.58 1255.66,-483.37 1273.06,-731.63 1277.43,-809.85"/>
<polygon fill="#6f42c1" stroke="#6f42c1" stroke-width="2" points="1275.7,-810.29 1277.72,-815.19 1279.2,-810.1 1275.7,-810.29"/>
<text text-anchor="middle" x="908.6" y="-407.98" font-family="Times-Roman" font-size="7.00" fill="#6f42c1">about</text>
</g>
<!-- L4YAML.Proofs.ScannerProofs.emit_tokens_size&#45;&gt;L4YAML.Scanner.ScannerState -->
<g id="edge19" class="edge">
<title>L4YAML.Proofs.ScannerProofs.emit_tokens_size&#45;&gt;L4YAML.Scanner.ScannerState</title>
<path fill="none" stroke="#6f42c1" stroke-width="2" stroke-dasharray="5,2" d="M405.43,-476.22C462.91,-481.9 536.6,-489.37 602.07,-496.58 620.75,-498.64 625.37,-499.68 644.07,-501.58 702.76,-507.57 1128.83,-507.62 1173.13,-546.58 1228.44,-595.24 1197.78,-635.65 1208.13,-708.58 1216.26,-765.93 1194.27,-920.22 1226.13,-968.58 1229,-972.95 1232.82,-976.65 1237.08,-979.77"/>
<polygon fill="#6f42c1" stroke="#6f42c1" stroke-width="2" points="1236.34,-981.38 1241.47,-982.7 1238.29,-978.47 1236.34,-981.38"/>
<text text-anchor="middle" x="908.6" y="-548.98" font-family="Times-Roman" font-size="7.00" fill="#6f42c1">about</text>
</g>
<!-- L4YAML.Proofs.ScannerProofs.emit_tokens_size&#45;&gt;L4YAML.YamlToken -->
<g id="edge18" class="edge">
<title>L4YAML.Proofs.ScannerProofs.emit_tokens_size&#45;&gt;L4YAML.YamlToken</title>
<path fill="none" stroke="#6f42c1" stroke-width="2" stroke-dasharray="5,2" d="M417.6,-466.4C645.35,-466.53 1144.81,-469.57 1173.13,-493.58 1234.29,-545.45 1197.38,-591.12 1208.13,-670.58 1215.41,-724.46 1196.12,-869.25 1226.13,-914.58 1230.26,-920.83 1236.32,-925.72 1242.86,-929.5"/>
<polygon fill="#6f42c1" stroke="#6f42c1" stroke-width="2" points="1242.22,-931.14 1247.45,-931.95 1243.87,-928.05 1242.22,-931.14"/>
<text text-anchor="middle" x="908.6" y="-495.98" font-family="Times-Roman" font-size="7.00" fill="#6f42c1">about</text>
</g>
<!-- L4YAML.Proofs.ScannerProofs.emit_tokens_size&#45;&gt;L4YAML.Scanner.ScannerState.tokens -->
<g id="edge15" class="edge">
<title>L4YAML.Proofs.ScannerProofs.emit_tokens_size&#45;&gt;L4YAML.Scanner.ScannerState.tokens</title>
<path fill="none" stroke="#6f42c1" stroke-width="2" stroke-dasharray="5,2" d="M409.25,-458.58C606.6,-444.26 1030.51,-418.53 1173.13,-449.58 1189.84,-453.22 1198.56,-451.41 1208.13,-465.58 1257.29,-538.41 1178.66,-786.64 1226.13,-860.58 1227.31,-862.43 1228.66,-864.15 1230.15,-865.76"/>
<polygon fill="#6f42c1" stroke="#6f42c1" stroke-width="2" points="1229.02,-867.11 1233.83,-869.32 1231.45,-864.59 1229.02,-867.11"/>
<text text-anchor="middle" x="908.6" y="-451.98" font-family="Times-Roman" font-size="7.00" fill="#6f42c1">about</text>
</g>
<!-- L4YAML.Proofs.ScannerProofs.emit_tokens_size&#45;&gt;L4YAML.Proofs.ScannerCorrectness.ScanHelpers.scanDocumentEnd_adds_tokens -->
<g id="edge7" class="edge">
<title>L4YAML.Proofs.ScannerProofs.emit_tokens_size&#45;&gt;L4YAML.Proofs.ScannerCorrectness.ScanHelpers.scanDocumentEnd_adds_tokens</title>
<path fill="none" stroke="#28a745" d="M397.72,-454.49C460.39,-451.03 542.55,-456.42 602.07,-496.58 609.98,-501.92 606.88,-507.58 612.07,-515.58 620.68,-528.86 628.45,-528.79 634.07,-543.58 640.7,-561.07 631.36,-697.87 644.07,-711.58 650.88,-718.94 658.44,-725.31 666.56,-730.8"/>
<polygon fill="#28a745" stroke="#28a745" points="665.65,-733.13 672.87,-734.83 668.29,-729 665.65,-733.13"/>
</g>
<!-- L4YAML.Proofs.ScannerCorrectness.unwindIndents_adds_tokens -->
<g id="node13" class="node">
<title>L4YAML.Proofs.ScannerCorrectness.unwindIndents_adds_tokens</title>
<g id="a_node13"><a xlink:href="../../../api/L4YAML/Proofs/Scanner/ScannerCorrectness.html#L4YAML.Proofs.ScannerCorrectness.unwindIndents_adds_tokens" xlink:title="ScannerCorrectness.unwindIndents_adds_tokens\n(Scanner.ScannerCorrectness)" target="_blank">
<ellipse fill="#d4edda" stroke="#28a745" cx="305.03" cy="-406.58" rx="164.1" ry="21.43"/>
<text text-anchor="middle" x="305.03" y="-409.58" font-family="Helvetica" font-size="10.00">ScannerCorrectness.unwindIndents_adds_tokens</text>
<text text-anchor="middle" x="305.03" y="-398.58" font-family="Helvetica" font-size="10.00">(Scanner.ScannerCorrectness)</text>
</a>
</g>
</g>
<!-- L4YAML.Proofs.ScannerCorrectness.unwindIndents_adds_tokens&#45;&gt;L4YAML.Positioned -->
<g id="edge23" class="edge">
<title>L4YAML.Proofs.ScannerCorrectness.unwindIndents_adds_tokens&#45;&gt;L4YAML.Positioned</title>
<path fill="none" stroke="#6f42c1" stroke-width="2" stroke-dasharray="5,2" d="M392.84,-424.51C459.61,-432.76 549.13,-430.85 602.07,-376.58 622.45,-355.69 595.78,-269.82 612.07,-245.58 620.94,-232.39 628.59,-233.24 644.07,-229.58 872.91,-175.56 943.37,-179.56 1173.13,-229.58 1189.84,-233.22 1198.04,-231.77 1208.13,-245.58 1275.44,-337.78 1279.02,-712.43 1278.79,-810.17"/>
<polygon fill="#6f42c1" stroke="#6f42c1" stroke-width="2" points="1277.04,-810.41 1278.77,-815.41 1280.54,-810.42 1277.04,-810.41"/>
<text text-anchor="middle" x="908.6" y="-231.98" font-family="Times-Roman" font-size="7.00" fill="#6f42c1">about</text>
</g>
<!-- L4YAML.Proofs.ScannerCorrectness.unwindIndents_adds_tokens&#45;&gt;L4YAML.Scanner.unwindIndents -->
<g id="edge26" class="edge">
<title>L4YAML.Proofs.ScannerCorrectness.unwindIndents_adds_tokens&#45;&gt;L4YAML.Scanner.unwindIndents</title>
<path fill="none" stroke="#6f42c1" stroke-width="2" stroke-dasharray="5,2" d="M404.96,-389.75C468.61,-384.78 549.05,-390.29 602.07,-436.58 647.86,-476.58 625.62,-509.38 634.07,-569.58 635.88,-582.47 635.2,-794.06 644.07,-803.58 699.52,-863.1 803.94,-854.76 863.34,-843.87"/>
<polygon fill="#6f42c1" stroke="#6f42c1" stroke-width="2" points="864,-845.53 868.59,-842.88 863.35,-842.09 864,-845.53"/>
<text text-anchor="middle" x="623.07" y="-571.98" font-family="Times-Roman" font-size="7.00" fill="#6f42c1">about</text>
</g>
<!-- L4YAML.Proofs.ScannerCorrectness.unwindIndents_adds_tokens&#45;&gt;L4YAML.Scanner.ScannerState -->
<g id="edge25" class="edge">
<title>L4YAML.Proofs.ScannerCorrectness.unwindIndents_adds_tokens&#45;&gt;L4YAML.Scanner.ScannerState</title>
<path fill="none" stroke="#6f42c1" stroke-width="2" stroke-dasharray="5,2" d="M445.74,-395.61C495.27,-390.88 551.29,-384.57 602.07,-376.58 620.93,-373.62 625.08,-369.6 644.07,-367.58 760.98,-355.2 1082.63,-292.53 1173.13,-367.58 1237.87,-421.28 1198.5,-470.02 1208.13,-553.58 1213.41,-599.44 1201.24,-929.72 1226.13,-968.58 1229.05,-973.14 1233,-976.97 1237.43,-980.18"/>
<polygon fill="#6f42c1" stroke="#6f42c1" stroke-width="2" points="1236.48,-981.65 1241.62,-982.95 1238.41,-978.73 1236.48,-981.65"/>
<text text-anchor="middle" x="908.6" y="-369.98" font-family="Times-Roman" font-size="7.00" fill="#6f42c1">about</text>
</g>
<!-- L4YAML.Proofs.ScannerCorrectness.unwindIndents_adds_tokens&#45;&gt;L4YAML.YamlToken -->
<g id="edge24" class="edge">
<title>L4YAML.Proofs.ScannerCorrectness.unwindIndents_adds_tokens&#45;&gt;L4YAML.YamlToken</title>
<path fill="none" stroke="#6f42c1" stroke-width="2" stroke-dasharray="5,2" d="M404.37,-423.5C468.19,-428.62 549.03,-423.25 602.07,-376.58 616.8,-363.62 599.92,-348.99 612.07,-333.58 621.91,-321.1 628.59,-321.24 644.07,-317.58 701.28,-304.08 1127.79,-280.17 1173.13,-317.58 1236.32,-369.73 1198.55,-417.21 1208.13,-498.58 1213.53,-544.53 1201.18,-875.62 1226.13,-914.58 1230.21,-920.97 1236.32,-925.91 1242.94,-929.72"/>
<polygon fill="#6f42c1" stroke="#6f42c1" stroke-width="2" points="1242.34,-931.39 1247.58,-932.18 1243.98,-928.3 1242.34,-931.39"/>
<text text-anchor="middle" x="908.6" y="-319.98" font-family="Times-Roman" font-size="7.00" fill="#6f42c1">about</text>
</g>
<!-- L4YAML.Proofs.ScannerCorrectness.unwindIndents_adds_tokens&#45;&gt;L4YAML.Scanner.ScannerState.tokens -->
<g id="edge22" class="edge">
<title>L4YAML.Proofs.ScannerCorrectness.unwindIndents_adds_tokens&#45;&gt;L4YAML.Scanner.ScannerState.tokens</title>
<path fill="none" stroke="#6f42c1" stroke-width="2" stroke-dasharray="5,2" d="M395.35,-424.31C461.46,-431.81 548.93,-429.01 602.07,-376.58 615.92,-362.92 600.91,-305.53 612.07,-289.58 621.19,-276.56 628.59,-277.24 644.07,-273.58 705.09,-259.18 1173.41,-237.37 1208.13,-289.58 1243.27,-342.44 1192.21,-806.93 1226.13,-860.58 1227.3,-862.44 1228.64,-864.17 1230.11,-865.78"/>
<polygon fill="#6f42c1" stroke="#6f42c1" stroke-width="2" points="1228.98,-867.12 1233.78,-869.36 1231.42,-864.61 1228.98,-867.12"/>
<text text-anchor="middle" x="908.6" y="-275.98" font-family="Times-Roman" font-size="7.00" fill="#6f42c1">about</text>
</g>
<!-- L4YAML.Proofs.ScannerCorrectness.unwindIndents_adds_tokens&#45;&gt;L4YAML.Proofs.ScannerCorrectness.ScanHelpers.scanDocumentEnd_adds_tokens -->
<g id="edge8" class="edge">
<title>L4YAML.Proofs.ScannerCorrectness.unwindIndents_adds_tokens&#45;&gt;L4YAML.Proofs.ScannerCorrectness.ScanHelpers.scanDocumentEnd_adds_tokens</title>
<path fill="none" stroke="#28a745" d="M420.28,-391.48C508.73,-381.12 618.71,-371.69 634.07,-386.58 660,-411.74 619.9,-684.73 644.07,-711.58 650.71,-718.97 658.1,-725.37 666.07,-730.89"/>
<polygon fill="#28a745" stroke="#28a745" points="665.07,-733.16 672.27,-734.95 667.75,-729.06 665.07,-733.16"/>
</g>
<!-- L4YAML.Proofs.ScannerCorrectness.advanceN_preserves_tokens -->
<g id="node14" class="node">
<title>L4YAML.Proofs.ScannerCorrectness.advanceN_preserves_tokens</title>
<g id="a_node14"><a xlink:href="../../../api/L4YAML/Proofs/Scanner/ScannerCorrectness.html#L4YAML.Proofs.ScannerCorrectness.advanceN_preserves_tokens" xlink:title="ScannerCorrectness.advanceN_preserves_tokens\n(Scanner.ScannerCorrectness)" target="_blank">
<ellipse fill="#d4edda" stroke="#28a745" cx="305.03" cy="-526.58" rx="165.43" ry="21.43"/>
<text text-anchor="middle" x="305.03" y="-529.58" font-family="Helvetica" font-size="10.00">ScannerCorrectness.advanceN_preserves_tokens</text>
<text text-anchor="middle" x="305.03" y="-518.58" font-family="Helvetica" font-size="10.00">(Scanner.ScannerCorrectness)</text>
</a>
</g>
</g>
<!-- L4YAML.Proofs.ScannerCorrectness.advanceN_preserves_tokens&#45;&gt;L4YAML.Scanner.ScannerState.advanceN -->
<g id="edge31" class="edge">
<title>L4YAML.Proofs.ScannerCorrectness.advanceN_preserves_tokens&#45;&gt;L4YAML.Scanner.ScannerState.advanceN</title>
<path fill="none" stroke="#6f42c1" stroke-width="2" stroke-dasharray="5,2" d="M351.42,-546.97C417.21,-578.92 538.18,-647.16 602.07,-742.58 623.96,-775.28 614.4,-888.74 644.07,-914.58 697.84,-961.43 783.16,-961.43 842.08,-954.15"/>
<polygon fill="#6f42c1" stroke="#6f42c1" stroke-width="2" points="842.61,-955.85 847.34,-953.47 842.16,-952.38 842.61,-955.85"/>
<text text-anchor="middle" x="623.07" y="-900.98" font-family="Times-Roman" font-size="7.00" fill="#6f42c1">about</text>
</g>
<!-- L4YAML.Proofs.ScannerCorrectness.advanceN_preserves_tokens&#45;&gt;L4YAML.Positioned -->
<g id="edge28" class="edge">
<title>L4YAML.Proofs.ScannerCorrectness.advanceN_preserves_tokens&#45;&gt;L4YAML.Positioned</title>
<path fill="none" stroke="#6f42c1" stroke-width="2" stroke-dasharray="5,2" d="M401.47,-543.83C461.66,-553.91 541.15,-565.76 612.07,-571.58 860.63,-591.99 929.92,-526.36 1173.13,-581.58 1268.08,-603.15 1278.59,-752.2 1279.03,-810.39"/>
<polygon fill="#6f42c1" stroke="#6f42c1" stroke-width="2" points="1277.28,-810.41 1279.04,-815.4 1280.78,-810.4 1277.28,-810.41"/>
<text text-anchor="middle" x="908.6" y="-583.98" font-family="Times-Roman" font-size="7.00" fill="#6f42c1">about</text>
</g>
<!-- L4YAML.Proofs.ScannerCorrectness.advanceN_preserves_tokens&#45;&gt;L4YAML.Scanner.ScannerState -->
<g id="edge30" class="edge">
<title>L4YAML.Proofs.ScannerCorrectness.advanceN_preserves_tokens&#45;&gt;L4YAML.Scanner.ScannerState</title>
<path fill="none" stroke="#6f42c1" stroke-width="2" stroke-dasharray="5,2" d="M341,-547.44C400.71,-581.83 527.22,-649.42 644.07,-677.58 701.3,-691.38 1130.16,-665.35 1173.13,-705.58 1186.85,-718.43 1175.4,-772.45 1183.13,-789.58 1189.99,-804.79 1201.27,-802.38 1208.13,-817.58 1235.92,-879.19 1187.56,-913.08 1226.13,-968.58 1229.07,-972.81 1232.87,-976.42 1237.1,-979.49"/>
<polygon fill="#6f42c1" stroke="#6f42c1" stroke-width="2" points="1236.31,-981.07 1241.44,-982.39 1238.25,-978.16 1236.31,-981.07"/>
<text text-anchor="middle" x="908.6" y="-707.98" font-family="Times-Roman" font-size="7.00" fill="#6f42c1">about</text>
</g>
<!-- L4YAML.Proofs.ScannerCorrectness.advanceN_preserves_tokens&#45;&gt;L4YAML.YamlToken -->
<g id="edge29" class="edge">
<title>L4YAML.Proofs.ScannerCorrectness.advanceN_preserves_tokens&#45;&gt;L4YAML.YamlToken</title>
<path fill="none" stroke="#6f42c1" stroke-width="2" stroke-dasharray="5,2" d="M356.6,-546.78C421.85,-571.87 539.44,-613.76 644.07,-633.58 759.85,-655.52 1067.21,-617.94 1173.13,-669.58 1194.06,-679.79 1198.86,-687.22 1208.13,-708.58 1226.41,-750.74 1200.51,-876.44 1226.13,-914.58 1230.31,-920.81 1236.38,-925.68 1242.93,-929.46"/>
<polygon fill="#6f42c1" stroke="#6f42c1" stroke-width="2" points="1242.28,-931.1 1247.52,-931.91 1243.93,-928.01 1242.28,-931.1"/>
<text text-anchor="middle" x="908.6" y="-671.98" font-family="Times-Roman" font-size="7.00" fill="#6f42c1">about</text>
</g>
<!-- L4YAML.Proofs.ScannerCorrectness.advanceN_preserves_tokens&#45;&gt;L4YAML.Scanner.ScannerState.tokens -->
<g id="edge27" class="edge">
<title>L4YAML.Proofs.ScannerCorrectness.advanceN_preserves_tokens&#45;&gt;L4YAML.Scanner.ScannerState.tokens</title>
<path fill="none" stroke="#6f42c1" stroke-width="2" stroke-dasharray="5,2" d="M391.84,-544.7C453.04,-557.24 537.38,-573.73 612.07,-585.58 858.97,-624.77 930.8,-564.13 1173.13,-625.58 1189.71,-629.79 1198.3,-627.59 1208.13,-641.58 1236.18,-681.55 1199,-819.98 1226.13,-860.58 1227.34,-862.41 1228.72,-864.11 1230.23,-865.71"/>
<polygon fill="#6f42c1" stroke="#6f42c1" stroke-width="2" points="1229.13,-867.07 1233.96,-869.24 1231.53,-864.53 1229.13,-867.07"/>
<text text-anchor="middle" x="908.6" y="-627.98" font-family="Times-Roman" font-size="7.00" fill="#6f42c1">about</text>
</g>
<!-- L4YAML.Proofs.ScannerCorrectness.advanceN_preserves_tokens&#45;&gt;L4YAML.Proofs.ScannerCorrectness.ScanHelpers.scanDocumentEnd_adds_tokens -->
<g id="edge10" class="edge">
<title>L4YAML.Proofs.ScannerCorrectness.advanceN_preserves_tokens&#45;&gt;L4YAML.Proofs.ScannerCorrectness.ScanHelpers.scanDocumentEnd_adds_tokens</title>
<path fill="none" stroke="#28a745" d="M332.36,-547.73C383.07,-587.2 499.28,-671.58 612.07,-710.58 637.97,-719.54 665.82,-726.38 693.69,-731.58"/>
<polygon fill="#28a745" stroke="#28a745" points="693.45,-734.03 700.78,-732.87 694.33,-729.21 693.45,-734.03"/>
</g>
<!-- L4YAML.Proofs.ScannerCorrectness.ScanHelpers.scanDocumentEnd_adds_tokens._proof_1_3 -->
<g id="node15" class="node">
<title>L4YAML.Proofs.ScannerCorrectness.ScanHelpers.scanDocumentEnd_adds_tokens._proof_1_3</title>
<g id="a_node15"><a xlink:href="../../../api/L4YAML/Proofs/Scanner/ScannerCorrectness.html#L4YAML.Proofs.ScannerCorrectness.ScanHelpers.scanDocumentEnd_adds_tokens._proof_1_3" xlink:title="ScannerCorrectness.ScanHelpers.scanDocumentEnd_adds_tokens._proof_1_3\n(Scanner.ScannerCorrectness)" target="_blank">
<ellipse fill="#d4edda" stroke="#28a745" cx="305.03" cy="-346.58" rx="256.86" ry="21.43"/>
<text text-anchor="middle" x="305.03" y="-349.58" font-family="Helvetica" font-size="10.00">ScannerCorrectness.ScanHelpers.scanDocumentEnd_adds_tokens._proof_1_3</text>
<text text-anchor="middle" x="305.03" y="-338.58" font-family="Helvetica" font-size="10.00">(Scanner.ScannerCorrectness)</text>
</a>
</g>
</g>
<!-- L4YAML.Proofs.ScannerCorrectness.ScanHelpers.scanDocumentEnd_adds_tokens._proof_1_3&#45;&gt;L4YAML.Positioned -->
<g id="edge33" class="edge">
<title>L4YAML.Proofs.ScannerCorrectness.ScanHelpers.scanDocumentEnd_adds_tokens._proof_1_3&#45;&gt;L4YAML.Positioned</title>
<path fill="none" stroke="#6f42c1" stroke-width="2" stroke-dasharray="5,2" d="M325.53,-325.35C371.71,-275.9 492.86,-151.08 612.07,-69.58 721.42,5.17 1131.49,38.45 1208.13,-69.58 1252.03,-131.47 1273.63,-688.47 1277.85,-810.17"/>
<polygon fill="#6f42c1" stroke="#6f42c1" stroke-width="2" points="1276.11,-810.37 1278.03,-815.3 1279.6,-810.25 1276.11,-810.37"/>
<text text-anchor="middle" x="908.6" y="-52.98" font-family="Times-Roman" font-size="7.00" fill="#6f42c1">about</text>
</g>
<!-- L4YAML.Proofs.ScannerCorrectness.ScanHelpers.scanDocumentEnd_adds_tokens._proof_1_3&#45;&gt;L4YAML.Scanner.unwindIndents -->
<g id="edge36" class="edge">
<title>L4YAML.Proofs.ScannerCorrectness.ScanHelpers.scanDocumentEnd_adds_tokens._proof_1_3&#45;&gt;L4YAML.Scanner.unwindIndents</title>
<path fill="none" stroke="#6f42c1" stroke-width="2" stroke-dasharray="5,2" d="M552.59,-352.39C570.08,-358.5 586.8,-366.42 602.07,-376.58 626.9,-393.12 626.34,-406.77 634.07,-435.58 639.37,-455.34 630.24,-788.51 644.07,-803.58 699.06,-863.53 803.66,-855.03 863.2,-844"/>
<polygon fill="#6f42c1" stroke="#6f42c1" stroke-width="2" points="863.89,-845.65 868.47,-842.99 863.23,-842.21 863.89,-845.65"/>
<text text-anchor="middle" x="623.07" y="-437.98" font-family="Times-Roman" font-size="7.00" fill="#6f42c1">about</text>
</g>
<!-- L4YAML.Proofs.ScannerCorrectness.ScanHelpers.scanDocumentEnd_adds_tokens._proof_1_3&#45;&gt;L4YAML.Scanner.ScannerState -->
<g id="edge35" class="edge">
<title>L4YAML.Proofs.ScannerCorrectness.ScanHelpers.scanDocumentEnd_adds_tokens._proof_1_3&#45;&gt;L4YAML.Scanner.ScannerState</title>
<path fill="none" stroke="#6f42c1" stroke-width="2" stroke-dasharray="5,2" d="M336.31,-325.3C393.29,-286.7 521.78,-206.45 644.07,-177.58 701.28,-164.08 1128.86,-138.9 1173.13,-177.58 1185.62,-188.5 1180.35,-235.23 1183.13,-251.58 1192.39,-306.15 1201.71,-318.61 1208.13,-373.58 1211.96,-406.43 1208.48,-940.62 1226.13,-968.58 1229.02,-973.16 1232.95,-977 1237.37,-980.21"/>
<polygon fill="#6f42c1" stroke="#6f42c1" stroke-width="2" points="1236.42,-981.68 1241.56,-982.99 1238.36,-978.76 1236.42,-981.68"/>
<text text-anchor="middle" x="908.6" y="-179.98" font-family="Times-Roman" font-size="7.00" fill="#6f42c1">about</text>
</g>
<!-- L4YAML.Proofs.ScannerCorrectness.ScanHelpers.scanDocumentEnd_adds_tokens._proof_1_3&#45;&gt;L4YAML.YamlToken -->
<g id="edge34" class="edge">
<title>L4YAML.Proofs.ScannerCorrectness.ScanHelpers.scanDocumentEnd_adds_tokens._proof_1_3&#45;&gt;L4YAML.YamlToken</title>
<path fill="none" stroke="#6f42c1" stroke-width="2" stroke-dasharray="5,2" d="M338.07,-325.47C393.16,-289.48 509.79,-214.59 612.07,-157.58 625.96,-149.84 628.59,-145.24 644.07,-141.58 701.28,-128.08 1127.81,-104.15 1173.13,-141.58 1236.63,-194.04 1199.07,-241.71 1208.13,-323.58 1211.74,-356.23 1208.59,-886.81 1226.13,-914.58 1230.17,-920.99 1236.26,-925.95 1242.87,-929.76"/>
<polygon fill="#6f42c1" stroke="#6f42c1" stroke-width="2" points="1242.28,-931.43 1247.52,-932.22 1243.92,-928.34 1242.28,-931.43"/>
<text text-anchor="middle" x="908.6" y="-143.98" font-family="Times-Roman" font-size="7.00" fill="#6f42c1">about</text>
</g>
<!-- L4YAML.Proofs.ScannerCorrectness.ScanHelpers.scanDocumentEnd_adds_tokens._proof_1_3&#45;&gt;L4YAML.Scanner.ScannerState.tokens -->
<g id="edge32" class="edge">
<title>L4YAML.Proofs.ScannerCorrectness.ScanHelpers.scanDocumentEnd_adds_tokens._proof_1_3&#45;&gt;L4YAML.Scanner.ScannerState.tokens</title>
<path fill="none" stroke="#6f42c1" stroke-width="2" stroke-dasharray="5,2" d="M330.67,-325.26C381.22,-282.1 501.26,-182.62 612.07,-113.58 625.56,-105.18 628.59,-101.24 644.07,-97.58 758.49,-70.57 1058.25,-72.57 1173.13,-97.58 1189.84,-101.22 1198.71,-99.31 1208.13,-113.58 1253.84,-182.89 1182.03,-790.24 1226.13,-860.58 1227.29,-862.44 1228.63,-864.18 1230.1,-865.8"/>
<polygon fill="#6f42c1" stroke="#6f42c1" stroke-width="2" points="1228.96,-867.13 1233.75,-869.37 1231.4,-864.63 1228.96,-867.13"/>
<text text-anchor="middle" x="908.6" y="-99.98" font-family="Times-Roman" font-size="7.00" fill="#6f42c1">about</text>
</g>
<!-- L4YAML.Proofs.ScannerCorrectness.ScanHelpers.scanDocumentEnd_adds_tokens._proof_1_3&#45;&gt;L4YAML.Proofs.ScannerCorrectness.ScanHelpers.scanDocumentEnd_adds_tokens -->
<g id="edge9" class="edge">
<title>L4YAML.Proofs.ScannerCorrectness.ScanHelpers.scanDocumentEnd_adds_tokens._proof_1_3&#45;&gt;L4YAML.Proofs.ScannerCorrectness.ScanHelpers.scanDocumentEnd_adds_tokens</title>
<path fill="none" stroke="#28a745" d="M390.17,-326.52C465.49,-314.1 573.16,-311.02 634.07,-375.58 659.69,-402.76 619.09,-683.81 644.07,-711.58 650.71,-718.97 658.1,-725.37 666.06,-730.9"/>
<polygon fill="#28a745" stroke="#28a745" points="665.06,-733.17 672.26,-734.96 667.74,-729.07 665.06,-733.17"/>
</g>
<!-- _private.L4YAML.Proofs.Scanner.ScannerCorrectness.0.L4YAML.Scanner.scanDocumentEnd.match_1.eq_2 -->
<g id="node16" class="node">
<title>_private.L4YAML.Proofs.Scanner.ScannerCorrectness.0.L4YAML.Scanner.scanDocumentEnd.match_1.eq_2</title>
<g id="a_node16"><a xlink:href="../../../api/L4YAML/Proofs/Scanner/ScannerCorrectness.html#_private.L4YAML.Proofs.Scanner.ScannerCorrectness.0.L4YAML.Scanner.scanDocumentEnd.match_1.eq_2" xlink:title="_private.L4YAML.Proofs.Scanner.ScannerCorrectness.0.L4YAML.Scanner.scanDocumentEnd.match_1.eq_2" target="_blank">
<ellipse fill="#fdebd0" stroke="#e67e22" cx="305.03" cy="-934.58" rx="289.07" ry="18"/>
<text text-anchor="middle" x="305.03" y="-932.08" font-family="Helvetica" font-size="10.00">_private.L4YAML.Proofs.Scanner.ScannerCorrectness.0.L4YAML.Scanner.scanDocumentEnd.match_1.eq_2</text>
</a>
</g>
</g>
<!-- _private.L4YAML.Proofs.Scanner.ScannerCorrectness.0.L4YAML.Scanner.scanDocumentEnd.match_1.eq_2&#45;&gt;L4YAML.Scanner.scanDocumentEnd.match_1 -->
<g id="edge21" class="edge">
<title>_private.L4YAML.Proofs.Scanner.ScannerCorrectness.0.L4YAML.Scanner.scanDocumentEnd.match_1.eq_2&#45;&gt;L4YAML.Scanner.scanDocumentEnd.match_1</title>
<path fill="none" stroke="#6f42c1" stroke-width="2" stroke-dasharray="5,2" d="M430.98,-950.82C486.4,-957.73 552.43,-965.56 612.07,-971.58 687.26,-979.18 773.41,-985.96 833.22,-990.36"/>
<polygon fill="#6f42c1" stroke="#6f42c1" stroke-width="2" points="833.44,-992.13 838.56,-990.75 833.7,-988.64 833.44,-992.13"/>
<text text-anchor="middle" x="623.07" y="-974.98" font-family="Times-Roman" font-size="7.00" fill="#6f42c1">about</text>
</g>
<!-- _private.L4YAML.Proofs.Scanner.ScannerCorrectness.0.L4YAML.Scanner.scanDocumentEnd.match_1.eq_2&#45;&gt;L4YAML.Proofs.ScannerCorrectness.ScanHelpers.scanDocumentEnd_adds_tokens -->
<g id="edge11" class="edge">
<title>_private.L4YAML.Proofs.Scanner.ScannerCorrectness.0.L4YAML.Scanner.scanDocumentEnd.match_1.eq_2&#45;&gt;L4YAML.Proofs.ScannerCorrectness.ScanHelpers.scanDocumentEnd_adds_tokens</title>
<path fill="none" stroke="#e67e22" stroke-width="2" d="M374.08,-952.12C448.58,-966.81 566.42,-976.02 634.07,-909.58 650.95,-893.01 628.33,-821.25 644.07,-803.58 658.88,-786.96 677.29,-774.58 697.45,-765.45"/>
<polygon fill="#e67e22" stroke="#e67e22" stroke-width="2" points="698.6,-767.62 704.06,-762.59 696.66,-763.12 698.6,-767.62"/>
</g>
<!-- _private.L4YAML.Proofs.Scanner.ScannerCorrectness.0.L4YAML.Scanner.scanDocumentEnd.match_1.eq_3 -->
<g id="node17" class="node">
<title>_private.L4YAML.Proofs.Scanner.ScannerCorrectness.0.L4YAML.Scanner.scanDocumentEnd.match_1.eq_3</title>
<g id="a_node17"><a xlink:href="../../../api/L4YAML/Proofs/Scanner/ScannerCorrectness.html#_private.L4YAML.Proofs.Scanner.ScannerCorrectness.0.L4YAML.Scanner.scanDocumentEnd.match_1.eq_3" xlink:title="_private.L4YAML.Proofs.Scanner.ScannerCorrectness.0.L4YAML.Scanner.scanDocumentEnd.match_1.eq_3" target="_blank">
<ellipse fill="#fdebd0" stroke="#e67e22" cx="305.03" cy="-880.58" rx="289.07" ry="18"/>
<text text-anchor="middle" x="305.03" y="-878.08" font-family="Helvetica" font-size="10.00">_private.L4YAML.Proofs.Scanner.ScannerCorrectness.0.L4YAML.Scanner.scanDocumentEnd.match_1.eq_3</text>
</a>
</g>
</g>
<!-- _private.L4YAML.Proofs.Scanner.ScannerCorrectness.0.L4YAML.Scanner.scanDocumentEnd.match_1.eq_3&#45;&gt;L4YAML.Scanner.scanDocumentEnd.match_1 -->
<g id="edge20" class="edge">
<title>_private.L4YAML.Proofs.Scanner.ScannerCorrectness.0.L4YAML.Scanner.scanDocumentEnd.match_1.eq_3&#45;&gt;L4YAML.Scanner.scanDocumentEnd.match_1</title>
<path fill="none" stroke="#6f42c1" stroke-width="2" stroke-dasharray="5,2" d="M561.43,-888.93C575.6,-893.94 589.26,-900.09 602.07,-907.58 630.48,-924.21 615.75,-951.8 644.07,-968.58 701.2,-1002.44 777.72,-1006.69 833.58,-1003.97"/>
<polygon fill="#6f42c1" stroke="#6f42c1" stroke-width="2" points="833.68,-1005.72 838.58,-1003.7 833.5,-1002.22 833.68,-1005.72"/>
<text text-anchor="middle" x="623.07" y="-961.98" font-family="Times-Roman" font-size="7.00" fill="#6f42c1">about</text>
</g>
<!-- _private.L4YAML.Proofs.Scanner.ScannerCorrectness.0.L4YAML.Scanner.scanDocumentEnd.match_1.eq_3&#45;&gt;L4YAML.Proofs.ScannerCorrectness.ScanHelpers.scanDocumentEnd_adds_tokens -->
<g id="edge12" class="edge">
<title>_private.L4YAML.Proofs.Scanner.ScannerCorrectness.0.L4YAML.Scanner.scanDocumentEnd.match_1.eq_3&#45;&gt;L4YAML.Proofs.ScannerCorrectness.ScanHelpers.scanDocumentEnd_adds_tokens</title>
<path fill="none" stroke="#e67e22" stroke-width="2" d="M557.61,-871.73C573.05,-866.91 588,-860.93 602.07,-853.58 627.79,-840.14 619.19,-818.52 644.07,-803.58 671.77,-786.95 703.71,-775.22 735.59,-766.95"/>
<polygon fill="#e67e22" stroke="#e67e22" stroke-width="2" points="736.2,-769.32 742.39,-765.24 735,-764.57 736.2,-769.32"/>
</g>
<!-- implies_congr -->
<g id="node18" class="node">
<title>implies_congr</title>
<g id="a_node18"><a xlink:href="../../../api/Init/SimpLemmas.html#implies_congr" xlink:title="implies_congr" target="_blank">
<ellipse fill="#fdebd0" stroke="#e67e22" cx="305.03" cy="-826.58" rx="45.15" ry="18"/>
<text text-anchor="middle" x="305.03" y="-824.08" font-family="Helvetica" font-size="10.00">implies_congr</text>
</a>
</g>
</g>
<!-- implies_congr&#45;&gt;L4YAML.Proofs.ScannerCorrectness.ScanHelpers.scanDocumentEnd_adds_tokens -->
<g id="edge13" class="edge">
<title>implies_congr&#45;&gt;L4YAML.Proofs.ScannerCorrectness.ScanHelpers.scanDocumentEnd_adds_tokens</title>
<path fill="none" stroke="#e67e22" stroke-width="2" d="M349.79,-823.66C407.66,-819.55 512.77,-811.24 602.07,-799.58 663.47,-791.57 731.4,-780.26 787.59,-770.22"/>
<polygon fill="#e67e22" stroke="#e67e22" stroke-width="2" points="788.28,-772.59 794.74,-768.94 787.41,-767.77 788.28,-772.59"/>
</g>
<!-- Decidable.byContradiction -->
<g id="node19" class="node">
<title>Decidable.byContradiction</title>
<g id="a_node19"><a xlink:href="../../../api/Init/Core.html#Decidable.byContradiction" xlink:title="Decidable.byContradiction" target="_blank">
<ellipse fill="#fdebd0" stroke="#e67e22" cx="305.03" cy="-772.58" rx="77.23" ry="18"/>
<text text-anchor="middle" x="305.03" y="-770.08" font-family="Helvetica" font-size="10.00">Decidable.byContradiction</text>
</a>
</g>
</g>
<!-- Decidable.byContradiction&#45;&gt;L4YAML.Proofs.ScannerCorrectness.ScanHelpers.scanDocumentEnd_adds_tokens -->
<g id="edge14" class="edge">
<title>Decidable.byContradiction&#45;&gt;L4YAML.Proofs.ScannerCorrectness.ScanHelpers.scanDocumentEnd_adds_tokens</title>
<path fill="none" stroke="#e67e22" stroke-width="2" d="M382.29,-772.29C448.8,-771.77 547.86,-770.37 634.07,-766.58 655.31,-765.65 677.46,-764.47 699.57,-763.15"/>
<polygon fill="#e67e22" stroke="#e67e22" stroke-width="2" points="699.9,-765.58 706.74,-762.71 699.61,-760.69 699.9,-765.58"/>
</g>
</g>
</svg>
