<?xml version="1.0" encoding="UTF-8" standalone="no"?>
<!DOCTYPE svg PUBLIC "-//W3C//DTD SVG 1.1//EN"
 "http://www.w3.org/Graphics/SVG/1.1/DTD/svg11.dtd">
<!-- Generated by graphviz version 2.44.0 (0)
 -->
<!-- Title: ScannerCorrectness.ScanHelpers.scanDocumentStart_adds_tokens Pages: 1 -->
<svg width="1305pt" height="1165pt"
 viewBox="0.00 0.00 1304.82 1165.14" xmlns="http://www.w3.org/2000/svg" xmlns:xlink="http://www.w3.org/1999/xlink">
<g id="graph0" class="graph" transform="scale(1 1) rotate(0) translate(4 1161.14)">
<title>ScannerCorrectness.ScanHelpers.scanDocumentStart_adds_tokens</title>
<polygon fill="white" stroke="transparent" points="-4,4 -4,-1161.14 1300.82,-1161.14 1300.82,4 -4,4"/>
<text text-anchor="middle" x="648.41" y="-1142.74" font-family="Helvetica Bold" font-size="13.00">ScannerCorrectness.ScanHelpers.scanDocumentStart_adds_tokens</text>
<text text-anchor="middle" x="648.41" y="-1128.74" font-family="Helvetica Bold" font-size="13.00">(heuristic: used by 5 proofs)</text>
<text text-anchor="middle" x="648.41" y="-1114.74" font-family="Helvetica Bold" font-size="13.00">(L4YAML.Proofs.Scanner.ScannerCorrectness)</text>
<g id="clust1" class="cluster">
<title>cluster_functions</title>
<polygon fill="none" stroke="#4a90d9" stroke-dasharray="5,2" points="784.63,-809.14 784.63,-1099.14 1288.82,-1099.14 1288.82,-809.14 784.63,-809.14"/>
<text text-anchor="middle" x="1036.72" y="-1084.74" font-family="Helvetica Bold" font-size="13.00" fill="#4a90d9">Functions</text>
</g>
<g id="clust2" class="cluster">
<title>cluster_key</title>
<polygon fill="none" stroke="#d4a017" stroke-dasharray="5,2" points="586.43,-719.14 586.43,-801.14 1120.82,-801.14 1120.82,-719.14 586.43,-719.14"/>
<text text-anchor="middle" x="853.63" y="-786.74" font-family="Helvetica Bold" font-size="13.00" fill="#d4a017">Key Theorem</text>
</g>
<g id="clust3" class="cluster">
<title>cluster_proofs</title>
<polygon fill="none" stroke="#28a745" stroke-dasharray="5,2" points="8,-319.14 8,-579.14 544.43,-579.14 544.43,-319.14 8,-319.14"/>
<text text-anchor="middle" x="276.22" y="-564.74" font-family="Helvetica Bold" font-size="13.00" fill="#28a745">Proof Dependencies</text>
</g>
<g id="clust4" class="cluster">
<title>cluster_stdlib</title>
<polygon fill="none" stroke="#e67e22" stroke-dasharray="5,2" points="191.1,-756.14 191.1,-830.14 361.33,-830.14 361.33,-756.14 191.1,-756.14"/>
<text text-anchor="middle" x="276.22" y="-815.74" font-family="Helvetica Bold" font-size="13.00" fill="#e67e22">Stdlib Lemmas</text>
</g>
<!-- L4YAML.Scanner.ScannerState.advanceN -->
<g id="node1" class="node">
<title>L4YAML.Scanner.ScannerState.advanceN</title>
<g id="a_node1"><a xlink:href="../../../api/L4YAML/Scanner/State.html#L4YAML.Scanner.ScannerState.advanceN" xlink:title="ScannerState.advanceN\n(def)" target="_blank">
<polygon fill="#dce9f7" stroke="#4a90d9" points="914.63,-907.14 792.63,-907.14 792.63,-871.14 914.63,-871.14 914.63,-907.14"/>
<text text-anchor="middle" x="853.63" y="-892.14" font-family="Helvetica" font-size="10.00">ScannerState.advanceN</text>
<text text-anchor="middle" x="853.63" y="-881.14" font-family="Helvetica" font-size="10.00">(def)</text>
</a>
</g>
</g>
<!-- L4YAML.Scanner.ScannerState.emit -->
<g id="node2" class="node">
<title>L4YAML.Scanner.ScannerState.emit</title>
<g id="a_node2"><a xlink:href="../../../api/L4YAML/Scanner/State.html#L4YAML.Scanner.ScannerState.emit" xlink:title="ScannerState.emit\n(def)" target="_blank">
<polygon fill="#dce9f7" stroke="#4a90d9" points="902.63,-961.14 804.63,-961.14 804.63,-925.14 902.63,-925.14 902.63,-961.14"/>
<text text-anchor="middle" x="853.63" y="-946.14" font-family="Helvetica" font-size="10.00">ScannerState.emit</text>
<text text-anchor="middle" x="853.63" y="-935.14" font-family="Helvetica" font-size="10.00">(def)</text>
</a>
</g>
</g>
<!-- L4YAML.Positioned -->
<g id="node3" class="node">
<title>L4YAML.Positioned</title>
<g id="a_node3"><a xlink:href="../../../api/L4YAML/Token/Token.html#L4YAML.Positioned" xlink:title="Positioned\n(inductive)" target="_blank">
<polygon fill="#dce9f7" stroke="#4a90d9" points="1258.32,-907.14 1196.32,-907.14 1196.32,-871.14 1258.32,-871.14 1258.32,-907.14"/>
<text text-anchor="middle" x="1227.32" y="-892.14" font-family="Helvetica" font-size="10.00">Positioned</text>
<text text-anchor="middle" x="1227.32" y="-881.14" font-family="Helvetica" font-size="10.00">(inductive)</text>
</a>
</g>
</g>
<!-- L4YAML.Scanner.scanDocumentStart -->
<g id="node4" class="node">
<title>L4YAML.Scanner.scanDocumentStart</title>
<g id="a_node4"><a xlink:href="../../../api/L4YAML/Scanner/Document.html#L4YAML.Scanner.scanDocumentStart" xlink:title="scanDocumentStart\n(def)" target="_blank">
<polygon fill="#dce9f7" stroke="#4a90d9" points="1279.32,-1069.14 1175.32,-1069.14 1175.32,-1033.14 1279.32,-1033.14 1279.32,-1069.14"/>
<text text-anchor="middle" x="1227.32" y="-1054.14" font-family="Helvetica" font-size="10.00">scanDocumentStart</text>
<text text-anchor="middle" x="1227.32" y="-1043.14" font-family="Helvetica" font-size="10.00">(def)</text>
</a>
</g>
</g>
<!-- L4YAML.Scanner.unwindIndents -->
<g id="node5" class="node">
<title>L4YAML.Scanner.unwindIndents</title>
<g id="a_node5"><a xlink:href="../../../api/L4YAML/Scanner/Indent.html#L4YAML.Scanner.unwindIndents" xlink:title="unwindIndents\n(def)" target="_blank">
<polygon fill="#dce9f7" stroke="#4a90d9" points="893.63,-853.14 813.63,-853.14 813.63,-817.14 893.63,-817.14 893.63,-853.14"/>
<text text-anchor="middle" x="853.63" y="-838.14" font-family="Helvetica" font-size="10.00">unwindIndents</text>
<text text-anchor="middle" x="853.63" y="-827.14" font-family="Helvetica" font-size="10.00">(def)</text>
</a>
</g>
</g>
<!-- L4YAML.Scanner.ScannerState -->
<g id="node6" class="node">
<title>L4YAML.Scanner.ScannerState</title>
<g id="a_node6"><a xlink:href="../../../api/L4YAML/Scanner/State.html#L4YAML.Scanner.ScannerState" xlink:title="ScannerState\n(inductive)" target="_blank">
<polygon fill="#dce9f7" stroke="#4a90d9" points="1265.32,-961.14 1189.32,-961.14 1189.32,-925.14 1265.32,-925.14 1265.32,-961.14"/>
<text text-anchor="middle" x="1227.32" y="-946.14" font-family="Helvetica" font-size="10.00">ScannerState</text>
<text text-anchor="middle" x="1227.32" y="-935.14" font-family="Helvetica" font-size="10.00">(inductive)</text>
</a>
</g>
</g>
<!-- L4YAML.YamlToken -->
<g id="node7" class="node">
<title>L4YAML.YamlToken</title>
<g id="a_node7"><a xlink:href="../../../api/L4YAML/Token/Token.html#L4YAML.YamlToken" xlink:title="YamlToken\n(inductive)" target="_blank">
<polygon fill="#dce9f7" stroke="#4a90d9" points="1259.32,-1015.14 1195.32,-1015.14 1195.32,-979.14 1259.32,-979.14 1259.32,-1015.14"/>
<text text-anchor="middle" x="1227.32" y="-1000.14" font-family="Helvetica" font-size="10.00">YamlToken</text>
<text text-anchor="middle" x="1227.32" y="-989.14" font-family="Helvetica" font-size="10.00">(inductive)</text>
</a>
</g>
</g>
<!-- L4YAML.Scanner.ScannerState.tokens -->
<g id="node8" class="node">
<title>L4YAML.Scanner.ScannerState.tokens</title>
<g id="a_node8"><a xlink:href="../../../api/L4YAML/Scanner/State.html#L4YAML.Scanner.ScannerState.tokens" xlink:title="ScannerState.tokens\n(def)" target="_blank">
<polygon fill="#dce9f7" stroke="#4a90d9" points="1280.82,-853.14 1173.82,-853.14 1173.82,-817.14 1280.82,-817.14 1280.82,-853.14"/>
<text text-anchor="middle" x="1227.32" y="-838.14" font-family="Helvetica" font-size="10.00">ScannerState.tokens</text>
<text text-anchor="middle" x="1227.32" y="-827.14" font-family="Helvetica" font-size="10.00">(def)</text>
</a>
</g>
</g>
<!-- L4YAML.Proofs.ScannerCorrectness.ScanHelpers.scanDocumentStart_adds_tokens -->
<g id="node9" class="node">
<title>L4YAML.Proofs.ScannerCorrectness.ScanHelpers.scanDocumentStart_adds_tokens</title>
<g id="a_node9"><a xlink:href="../../../api/L4YAML/Proofs/Scanner/ScannerCorrectness.html#L4YAML.Proofs.ScannerCorrectness.ScanHelpers.scanDocumentStart_adds_tokens" xlink:title="ScannerCorrectness.ScanHelpers.scanDocumentStart_adds_tokens" target="_blank">
<polygon fill="#fff3cd" stroke="#d4a017" points="1109.01,-741.68 1109.01,-756.59 959.41,-767.14 747.84,-767.14 598.24,-756.59 598.24,-741.68 747.84,-731.14 959.41,-731.14 1109.01,-741.68"/>
<polygon fill="none" stroke="#d4a017" points="1113.02,-737.95 1113.02,-760.32 959.55,-771.14 747.7,-771.14 594.24,-760.32 594.24,-737.95 747.7,-727.14 959.55,-727.14 1113.02,-737.95"/>
<text text-anchor="middle" x="853.63" y="-746.04" font-family="Helvetica" font-size="12.00">ScannerCorrectness.ScanHelpers.scanDocumentStart_adds_tokens</text>
</a>
</g>
</g>
<!-- L4YAML.Proofs.ScannerCorrectness.ScanHelpers.scanDocumentStart_adds_tokens&#45;&gt;L4YAML.Positioned -->
<g id="edge2" class="edge">
<title>L4YAML.Proofs.ScannerCorrectness.ScanHelpers.scanDocumentStart_adds_tokens&#45;&gt;L4YAML.Positioned</title>
<path fill="none" stroke="#4a90d9" stroke-width="2" d="M1019.53,-731.32C1077.93,-728.77 1134.46,-731.87 1155.82,-750.14 1194.14,-782.9 1144.22,-821.33 1173.82,-862.14 1177.97,-867.86 1183.7,-872.46 1189.85,-876.13"/>
<polygon fill="#4a90d9" stroke="#4a90d9" stroke-width="2" points="1188.78,-878.33 1196.11,-879.49 1191.1,-874.01 1188.78,-878.33"/>
<text text-anchor="middle" x="1143.32" y="-752.74" font-family="Times-Roman" font-size="8.00" fill="#4a90d9">about</text>
</g>
<!-- L4YAML.Proofs.ScannerCorrectness.ScanHelpers.scanDocumentStart_adds_tokens&#45;&gt;L4YAML.Scanner.scanDocumentStart -->
<g id="edge5" class="edge">
<title>L4YAML.Proofs.ScannerCorrectness.ScanHelpers.scanDocumentStart_adds_tokens&#45;&gt;L4YAML.Scanner.scanDocumentStart</title>
<path fill="none" stroke="#4a90d9" stroke-width="2" d="M1060.94,-764.03C1083.65,-773.44 1104.44,-786.69 1120.82,-805.14 1137.42,-823.82 1124.99,-892.84 1130.82,-917.14 1142.78,-966.97 1139.3,-986.25 1173.82,-1024.14 1175.25,-1025.7 1176.78,-1027.18 1178.4,-1028.6"/>
<polygon fill="#4a90d9" stroke="#4a90d9" stroke-width="2" points="1177.16,-1030.74 1184.19,-1033.11 1180.18,-1026.87 1177.16,-1030.74"/>
<text text-anchor="middle" x="1143.32" y="-1001.74" font-family="Times-Roman" font-size="8.00" fill="#4a90d9">about</text>
</g>
<!-- L4YAML.Proofs.ScannerCorrectness.ScanHelpers.scanDocumentStart_adds_tokens&#45;&gt;L4YAML.Scanner.ScannerState -->
<g id="edge4" class="edge">
<title>L4YAML.Proofs.ScannerCorrectness.ScanHelpers.scanDocumentStart_adds_tokens&#45;&gt;L4YAML.Scanner.ScannerState</title>
<path fill="none" stroke="#4a90d9" stroke-width="2" d="M1027.69,-766.34C1060.35,-774.77 1092.96,-787.12 1120.82,-805.14 1142.99,-819.47 1144.24,-829.41 1155.82,-853.14 1168.6,-879.3 1155.35,-893.62 1173.82,-916.14 1176.59,-919.52 1179.9,-922.52 1183.49,-925.18"/>
<polygon fill="#4a90d9" stroke="#4a90d9" stroke-width="2" points="1182.13,-927.22 1189.31,-929.07 1184.86,-923.15 1182.13,-927.22"/>
<text text-anchor="middle" x="1143.32" y="-855.74" font-family="Times-Roman" font-size="8.00" fill="#4a90d9">about</text>
</g>
<!-- L4YAML.Proofs.ScannerCorrectness.ScanHelpers.scanDocumentStart_adds_tokens&#45;&gt;L4YAML.YamlToken -->
<g id="edge3" class="edge">
<title>L4YAML.Proofs.ScannerCorrectness.ScanHelpers.scanDocumentStart_adds_tokens&#45;&gt;L4YAML.YamlToken</title>
<path fill="none" stroke="#4a90d9" stroke-width="2" d="M1048.56,-764.98C1075.02,-773.93 1100.15,-786.81 1120.82,-805.14 1138.91,-821.17 1148.56,-885.08 1155.82,-908.14 1164.44,-935.5 1155.58,-947.99 1173.82,-970.14 1177.99,-975.19 1183.34,-979.4 1189.03,-982.88"/>
<polygon fill="#4a90d9" stroke="#4a90d9" stroke-width="2" points="1188,-985.11 1195.3,-986.37 1190.38,-980.82 1188,-985.11"/>
<text text-anchor="middle" x="1143.32" y="-910.74" font-family="Times-Roman" font-size="8.00" fill="#4a90d9">about</text>
</g>
<!-- L4YAML.Proofs.ScannerCorrectness.ScanHelpers.scanDocumentStart_adds_tokens&#45;&gt;L4YAML.Scanner.ScannerState.tokens -->
<g id="edge1" class="edge">
<title>L4YAML.Proofs.ScannerCorrectness.ScanHelpers.scanDocumentStart_adds_tokens&#45;&gt;L4YAML.Scanner.ScannerState.tokens</title>
<path fill="none" stroke="#4a90d9" stroke-width="2" d="M984.2,-728.82C1058.68,-718.37 1140.49,-709.47 1155.82,-718.14 1190.46,-737.71 1209.98,-781.88 1219.32,-810"/>
<polygon fill="#4a90d9" stroke="#4a90d9" stroke-width="2" points="1217.02,-810.85 1221.47,-816.78 1221.69,-809.37 1217.02,-810.85"/>
<text text-anchor="middle" x="1143.32" y="-720.74" font-family="Times-Roman" font-size="8.00" fill="#4a90d9">about</text>
</g>
<!-- L4YAML.Proofs.ScannerProofs.emit_tokens_size -->
<g id="node10" class="node">
<title>L4YAML.Proofs.ScannerProofs.emit_tokens_size</title>
<g id="a_node10"><a xlink:href="../../../api/L4YAML/Proofs/Scanner/ScannerProofs.html#L4YAML.Proofs.ScannerProofs.emit_tokens_size" xlink:title="ScannerProofs.emit_tokens_size\n(Scanner.ScannerProofs)" target="_blank">
<ellipse fill="#d4edda" stroke="#28a745" cx="276.22" cy="-528.14" rx="112.36" ry="21.43"/>
<text text-anchor="middle" x="276.22" y="-531.14" font-family="Helvetica" font-size="10.00">ScannerProofs.emit_tokens_size</text>
<text text-anchor="middle" x="276.22" y="-520.14" font-family="Helvetica" font-size="10.00">(Scanner.ScannerProofs)</text>
</a>
</g>
</g>
<!-- L4YAML.Proofs.ScannerProofs.emit_tokens_size&#45;&gt;L4YAML.Scanner.ScannerState.emit -->
<g id="edge12" class="edge">
<title>L4YAML.Proofs.ScannerProofs.emit_tokens_size&#45;&gt;L4YAML.Scanner.ScannerState.emit</title>
<path fill="none" stroke="#6f42c1" stroke-width="2" stroke-dasharray="5,2" d="M313.71,-548.4C371.78,-582.59 484.76,-657.37 544.43,-752.14 584.52,-815.81 529.4,-867.06 586.43,-916.14 645.05,-966.58 740,-962.83 799.24,-954.04"/>
<polygon fill="#6f42c1" stroke="#6f42c1" stroke-width="2" points="799.83,-955.73 804.5,-953.24 799.29,-952.27 799.83,-955.73"/>
<text text-anchor="middle" x="565.43" y="-906.54" font-family="Times-Roman" font-size="7.00" fill="#6f42c1">about</text>
</g>
<!-- L4YAML.Proofs.ScannerProofs.emit_tokens_size&#45;&gt;L4YAML.Positioned -->
<g id="edge13" class="edge">
<title>L4YAML.Proofs.ScannerProofs.emit_tokens_size&#45;&gt;L4YAML.Positioned</title>
<path fill="none" stroke="#6f42c1" stroke-width="2" stroke-dasharray="5,2" d="M346.97,-544.71C402.84,-557.56 483.35,-575.15 554.43,-587.14 803.27,-629.09 876.19,-565.19 1120.82,-627.14 1137.4,-631.33 1145.99,-629.14 1155.82,-643.14 1183.88,-683.1 1146.7,-821.53 1173.82,-862.14 1178.17,-868.64 1184.6,-873.67 1191.47,-877.53"/>
<polygon fill="#6f42c1" stroke="#6f42c1" stroke-width="2" points="1191.04,-879.27 1196.29,-880.01 1192.65,-876.16 1191.04,-879.27"/>
<text text-anchor="middle" x="853.63" y="-629.54" font-family="Times-Roman" font-size="7.00" fill="#6f42c1">about</text>
</g>
<!-- L4YAML.Proofs.ScannerProofs.emit_tokens_size&#45;&gt;L4YAML.Scanner.ScannerState -->
<g id="edge15" class="edge">
<title>L4YAML.Proofs.ScannerProofs.emit_tokens_size&#45;&gt;L4YAML.Scanner.ScannerState</title>
<path fill="none" stroke="#6f42c1" stroke-width="2" stroke-dasharray="5,2" d="M321.49,-547.66C380.59,-572.75 489.14,-615.39 586.43,-635.14 703.08,-658.81 1013.82,-619.01 1120.82,-671.14 1141.76,-681.34 1146.55,-688.77 1155.82,-710.14 1174.11,-752.29 1148.2,-877.99 1173.82,-916.14 1176.74,-920.47 1180.57,-924.16 1184.85,-927.27"/>
<polygon fill="#6f42c1" stroke="#6f42c1" stroke-width="2" points="1184.12,-928.89 1189.25,-930.2 1186.06,-925.97 1184.12,-928.89"/>
<text text-anchor="middle" x="853.63" y="-673.54" font-family="Times-Roman" font-size="7.00" fill="#6f42c1">about</text>
</g>
<!-- L4YAML.Proofs.ScannerProofs.emit_tokens_size&#45;&gt;L4YAML.YamlToken -->
<g id="edge14" class="edge">
<title>L4YAML.Proofs.ScannerProofs.emit_tokens_size&#45;&gt;L4YAML.YamlToken</title>
<path fill="none" stroke="#6f42c1" stroke-width="2" stroke-dasharray="5,2" d="M308.49,-548.75C362.52,-583.11 477.99,-651.06 586.43,-679.14 643.99,-694.04 1077.41,-666.51 1120.82,-707.14 1134.55,-719.98 1123.09,-774 1130.82,-791.14 1137.68,-806.34 1148.96,-803.93 1155.82,-819.14 1183.61,-880.74 1135.26,-914.63 1173.82,-970.14 1178.05,-976.22 1184.08,-981.02 1190.55,-984.78"/>
<polygon fill="#6f42c1" stroke="#6f42c1" stroke-width="2" points="1189.86,-986.39 1195.09,-987.22 1191.51,-983.31 1189.86,-986.39"/>
<text text-anchor="middle" x="853.63" y="-709.54" font-family="Times-Roman" font-size="7.00" fill="#6f42c1">about</text>
</g>
<!-- L4YAML.Proofs.ScannerProofs.emit_tokens_size&#45;&gt;L4YAML.Scanner.ScannerState.tokens -->
<g id="edge11" class="edge">
<title>L4YAML.Proofs.ScannerProofs.emit_tokens_size&#45;&gt;L4YAML.Scanner.ScannerState.tokens</title>
<path fill="none" stroke="#6f42c1" stroke-width="2" stroke-dasharray="5,2" d="M353.62,-543.56C409.09,-554.02 486.08,-567.02 554.43,-573.14 805.2,-595.59 875.3,-527.4 1120.82,-583.14 1215.78,-604.69 1226.28,-753.75 1226.72,-811.94"/>
<polygon fill="#6f42c1" stroke="#6f42c1" stroke-width="2" points="1224.97,-811.96 1226.73,-816.95 1228.47,-811.95 1224.97,-811.96"/>
<text text-anchor="middle" x="853.63" y="-585.54" font-family="Times-Roman" font-size="7.00" fill="#6f42c1">about</text>
</g>
<!-- L4YAML.Proofs.ScannerProofs.emit_tokens_size&#45;&gt;L4YAML.Proofs.ScannerCorrectness.ScanHelpers.scanDocumentStart_adds_tokens -->
<g id="edge6" class="edge">
<title>L4YAML.Proofs.ScannerProofs.emit_tokens_size&#45;&gt;L4YAML.Proofs.ScannerCorrectness.ScanHelpers.scanDocumentStart_adds_tokens</title>
<path fill="none" stroke="#28a745" d="M300.32,-549.05C345.41,-588.5 449.89,-673.41 554.43,-712.14 578.9,-721.2 605.2,-728.13 631.67,-733.43"/>
<polygon fill="#28a745" stroke="#28a745" points="631.44,-735.88 638.77,-734.81 632.37,-731.07 631.44,-735.88"/>
</g>
<!-- L4YAML.Proofs.ScannerCorrectness.unwindIndents_adds_tokens -->
<g id="node11" class="node">
<title>L4YAML.Proofs.ScannerCorrectness.unwindIndents_adds_tokens</title>
<g id="a_node11"><a xlink:href="../../../api/L4YAML/Proofs/Scanner/ScannerCorrectness.html#L4YAML.Proofs.ScannerCorrectness.unwindIndents_adds_tokens" xlink:title="ScannerCorrectness.unwindIndents_adds_tokens\n(Scanner.ScannerCorrectness)" target="_blank">
<ellipse fill="#d4edda" stroke="#28a745" cx="276.22" cy="-408.14" rx="164.1" ry="21.43"/>
<text text-anchor="middle" x="276.22" y="-411.14" font-family="Helvetica" font-size="10.00">ScannerCorrectness.unwindIndents_adds_tokens</text>
<text text-anchor="middle" x="276.22" y="-400.14" font-family="Helvetica" font-size="10.00">(Scanner.ScannerCorrectness)</text>
</a>
</g>
</g>
<!-- L4YAML.Proofs.ScannerCorrectness.unwindIndents_adds_tokens&#45;&gt;L4YAML.Positioned -->
<g id="edge17" class="edge">
<title>L4YAML.Proofs.ScannerCorrectness.unwindIndents_adds_tokens&#45;&gt;L4YAML.Positioned</title>
<path fill="none" stroke="#6f42c1" stroke-width="2" stroke-dasharray="5,2" d="M378.43,-424.75C434.8,-427.89 501.96,-420.5 544.43,-378.14 558.21,-364.39 543.27,-307.08 554.43,-291.14 563.55,-278.11 570.96,-278.79 586.43,-275.14 648.03,-260.59 1120.78,-238.43 1155.82,-291.14 1190.97,-343.99 1139.91,-808.48 1173.82,-862.14 1178.13,-868.95 1184.75,-874.13 1191.85,-878.03"/>
<polygon fill="#6f42c1" stroke="#6f42c1" stroke-width="2" points="1191.07,-879.59 1196.32,-880.3 1192.65,-876.47 1191.07,-879.59"/>
<text text-anchor="middle" x="853.63" y="-277.54" font-family="Times-Roman" font-size="7.00" fill="#6f42c1">about</text>
</g>
<!-- L4YAML.Proofs.ScannerCorrectness.unwindIndents_adds_tokens&#45;&gt;L4YAML.Scanner.unwindIndents -->
<g id="edge20" class="edge">
<title>L4YAML.Proofs.ScannerCorrectness.unwindIndents_adds_tokens&#45;&gt;L4YAML.Scanner.unwindIndents</title>
<path fill="none" stroke="#6f42c1" stroke-width="2" stroke-dasharray="5,2" d="M392.12,-393.09C444.4,-392.65 503.57,-402.06 544.43,-438.14 590.01,-478.37 567.98,-510.93 576.43,-571.14 578.24,-584.02 577.56,-795.62 586.43,-805.14 642.59,-865.34 748.37,-856.63 808.29,-845.52"/>
<polygon fill="#6f42c1" stroke="#6f42c1" stroke-width="2" points="808.65,-847.23 813.23,-844.58 807.99,-843.8 808.65,-847.23"/>
<text text-anchor="middle" x="565.43" y="-573.54" font-family="Times-Roman" font-size="7.00" fill="#6f42c1">about</text>
</g>
<!-- L4YAML.Proofs.ScannerCorrectness.unwindIndents_adds_tokens&#45;&gt;L4YAML.Scanner.ScannerState -->
<g id="edge19" class="edge">
<title>L4YAML.Proofs.ScannerCorrectness.unwindIndents_adds_tokens&#45;&gt;L4YAML.Scanner.ScannerState</title>
<path fill="none" stroke="#6f42c1" stroke-width="2" stroke-dasharray="5,2" d="M390.9,-423.3C443.54,-423.94 503.36,-414.67 544.43,-378.14 559.09,-365.09 542.28,-350.54 554.43,-335.14 564.28,-322.65 570.96,-322.79 586.43,-319.14 644.22,-305.49 1075.04,-281.32 1120.82,-319.14 1184.33,-371.59 1146.23,-419.32 1155.82,-501.14 1161.19,-546.98 1148.93,-877.27 1173.82,-916.14 1176.74,-920.7 1180.69,-924.52 1185.12,-927.73"/>
<polygon fill="#6f42c1" stroke="#6f42c1" stroke-width="2" points="1184.18,-929.2 1189.31,-930.5 1186.11,-926.28 1184.18,-929.2"/>
<text text-anchor="middle" x="853.63" y="-321.54" font-family="Times-Roman" font-size="7.00" fill="#6f42c1">about</text>
</g>
<!-- L4YAML.Proofs.ScannerCorrectness.unwindIndents_adds_tokens&#45;&gt;L4YAML.YamlToken -->
<g id="edge18" class="edge">
<title>L4YAML.Proofs.ScannerCorrectness.unwindIndents_adds_tokens&#45;&gt;L4YAML.YamlToken</title>
<path fill="none" stroke="#6f42c1" stroke-width="2" stroke-dasharray="5,2" d="M410.09,-395.85C453.08,-391.17 500.89,-385.23 544.43,-378.14 563.27,-375.07 567.45,-371.15 586.43,-369.14 704.52,-356.62 1029.41,-293.32 1120.82,-369.14 1185.57,-422.83 1146.2,-471.57 1155.82,-555.14 1161.1,-600.99 1148.93,-931.27 1173.82,-970.14 1177.91,-976.52 1184.01,-981.46 1190.63,-985.27"/>
<polygon fill="#6f42c1" stroke="#6f42c1" stroke-width="2" points="1190.04,-986.94 1195.27,-987.73 1191.68,-983.85 1190.04,-986.94"/>
<text text-anchor="middle" x="853.63" y="-371.54" font-family="Times-Roman" font-size="7.00" fill="#6f42c1">about</text>
</g>
<!-- L4YAML.Proofs.ScannerCorrectness.unwindIndents_adds_tokens&#45;&gt;L4YAML.Scanner.ScannerState.tokens -->
<g id="edge16" class="edge">
<title>L4YAML.Proofs.ScannerCorrectness.unwindIndents_adds_tokens&#45;&gt;L4YAML.Scanner.ScannerState.tokens</title>
<path fill="none" stroke="#6f42c1" stroke-width="2" stroke-dasharray="5,2" d="M375.1,-425.09C432.46,-429.02 501.8,-422.31 544.43,-378.14 564.7,-357.13 538.15,-271.37 554.43,-247.14 563.3,-233.94 570.96,-234.79 586.43,-231.14 817.58,-176.57 888.75,-180.61 1120.82,-231.14 1137.53,-234.77 1145.74,-233.32 1155.82,-247.14 1223.13,-339.33 1226.72,-713.98 1226.48,-811.72"/>
<polygon fill="#6f42c1" stroke="#6f42c1" stroke-width="2" points="1224.73,-811.96 1226.47,-816.96 1228.23,-811.97 1224.73,-811.96"/>
<text text-anchor="middle" x="853.63" y="-233.54" font-family="Times-Roman" font-size="7.00" fill="#6f42c1">about</text>
</g>
<!-- L4YAML.Proofs.ScannerCorrectness.unwindIndents_adds_tokens&#45;&gt;L4YAML.Proofs.ScannerCorrectness.ScanHelpers.scanDocumentStart_adds_tokens -->
<g id="edge7" class="edge">
<title>L4YAML.Proofs.ScannerCorrectness.unwindIndents_adds_tokens&#45;&gt;L4YAML.Proofs.ScannerCorrectness.ScanHelpers.scanDocumentStart_adds_tokens</title>
<path fill="none" stroke="#28a745" d="M389.55,-392.71C468.69,-383.16 562.88,-375 576.43,-388.14 602.37,-413.29 562.24,-686.3 586.43,-713.14 593.02,-720.45 600.34,-726.8 608.22,-732.3"/>
<polygon fill="#28a745" stroke="#28a745" points="607.15,-734.54 614.35,-736.35 609.85,-730.45 607.15,-734.54"/>
</g>
<!-- L4YAML.Proofs.ScannerCorrectness.advanceN_preserves_tokens -->
<g id="node12" class="node">
<title>L4YAML.Proofs.ScannerCorrectness.advanceN_preserves_tokens</title>
<g id="a_node12"><a xlink:href="../../../api/L4YAML/Proofs/Scanner/ScannerCorrectness.html#L4YAML.Proofs.ScannerCorrectness.advanceN_preserves_tokens" xlink:title="ScannerCorrectness.advanceN_preserves_tokens\n(Scanner.ScannerCorrectness)" target="_blank">
<ellipse fill="#d4edda" stroke="#28a745" cx="276.22" cy="-468.14" rx="165.43" ry="21.43"/>
<text text-anchor="middle" x="276.22" y="-471.14" font-family="Helvetica" font-size="10.00">ScannerCorrectness.advanceN_preserves_tokens</text>
<text text-anchor="middle" x="276.22" y="-460.14" font-family="Helvetica" font-size="10.00">(Scanner.ScannerCorrectness)</text>
</a>
</g>
</g>
<!-- L4YAML.Proofs.ScannerCorrectness.advanceN_preserves_tokens&#45;&gt;L4YAML.Scanner.ScannerState.advanceN -->
<g id="edge25" class="edge">
<title>L4YAML.Proofs.ScannerCorrectness.advanceN_preserves_tokens&#45;&gt;L4YAML.Scanner.ScannerState.advanceN</title>
<path fill="none" stroke="#6f42c1" stroke-width="2" stroke-dasharray="5,2" d="M379.65,-451.55C435.71,-448.63 502.16,-456.23 544.43,-498.14 545.74,-499.44 576.23,-760.3 576.43,-762.14 577.66,-773.23 578.54,-854.23 586.43,-862.14 638.07,-913.85 726.78,-912.2 787.49,-903.24"/>
<polygon fill="#6f42c1" stroke="#6f42c1" stroke-width="2" points="787.86,-904.96 792.54,-902.47 787.33,-901.5 787.86,-904.96"/>
<text text-anchor="middle" x="565.43" y="-764.54" font-family="Times-Roman" font-size="7.00" fill="#6f42c1">about</text>
</g>
<!-- L4YAML.Proofs.ScannerCorrectness.advanceN_preserves_tokens&#45;&gt;L4YAML.Positioned -->
<g id="edge22" class="edge">
<title>L4YAML.Proofs.ScannerCorrectness.advanceN_preserves_tokens&#45;&gt;L4YAML.Positioned</title>
<path fill="none" stroke="#6f42c1" stroke-width="2" stroke-dasharray="5,2" d="M419.08,-457.32C623.72,-443.08 991.37,-422.95 1120.82,-451.14 1137.53,-454.77 1146.25,-452.96 1155.82,-467.14 1204.98,-539.96 1126.36,-788.19 1173.82,-862.14 1178.05,-868.72 1184.43,-873.78 1191.3,-877.64"/>
<polygon fill="#6f42c1" stroke="#6f42c1" stroke-width="2" points="1190.86,-879.39 1196.11,-880.12 1192.47,-876.28 1190.86,-879.39"/>
<text text-anchor="middle" x="853.63" y="-453.54" font-family="Times-Roman" font-size="7.00" fill="#6f42c1">about</text>
</g>
<!-- L4YAML.Proofs.ScannerCorrectness.advanceN_preserves_tokens&#45;&gt;L4YAML.Scanner.ScannerState -->
<g id="edge24" class="edge">
<title>L4YAML.Proofs.ScannerCorrectness.advanceN_preserves_tokens&#45;&gt;L4YAML.Scanner.ScannerState</title>
<path fill="none" stroke="#6f42c1" stroke-width="2" stroke-dasharray="5,2" d="M442.05,-468.19C680.31,-469.02 1095.42,-473.58 1120.82,-495.14 1181.96,-547.03 1145.07,-592.67 1155.82,-672.14 1163.11,-726.01 1143.81,-870.8 1173.82,-916.14 1176.71,-920.49 1180.53,-924.19 1184.79,-927.31"/>
<polygon fill="#6f42c1" stroke="#6f42c1" stroke-width="2" points="1184.06,-928.92 1189.19,-930.24 1186,-926.01 1184.06,-928.92"/>
<text text-anchor="middle" x="853.63" y="-497.54" font-family="Times-Roman" font-size="7.00" fill="#6f42c1">about</text>
</g>
<!-- L4YAML.Proofs.ScannerCorrectness.advanceN_preserves_tokens&#45;&gt;L4YAML.YamlToken -->
<g id="edge23" class="edge">
<title>L4YAML.Proofs.ScannerCorrectness.advanceN_preserves_tokens&#45;&gt;L4YAML.YamlToken</title>
<path fill="none" stroke="#6f42c1" stroke-width="2" stroke-dasharray="5,2" d="M401.97,-481.97C446.88,-486.99 497.94,-492.76 544.43,-498.14 563.1,-500.3 567.73,-501.24 586.43,-503.14 645.71,-509.16 1076.06,-508.8 1120.82,-548.14 1176.15,-596.76 1145.47,-637.2 1155.82,-710.14 1163.96,-767.48 1141.96,-921.77 1173.82,-970.14 1177.94,-976.39 1184,-981.28 1190.54,-985.07"/>
<polygon fill="#6f42c1" stroke="#6f42c1" stroke-width="2" points="1189.89,-986.71 1195.13,-987.52 1191.54,-983.62 1189.89,-986.71"/>
<text text-anchor="middle" x="853.63" y="-550.54" font-family="Times-Roman" font-size="7.00" fill="#6f42c1">about</text>
</g>
<!-- L4YAML.Proofs.ScannerCorrectness.advanceN_preserves_tokens&#45;&gt;L4YAML.Scanner.ScannerState.tokens -->
<g id="edge21" class="edge">
<title>L4YAML.Proofs.ScannerCorrectness.advanceN_preserves_tokens&#45;&gt;L4YAML.Scanner.ScannerState.tokens</title>
<path fill="none" stroke="#6f42c1" stroke-width="2" stroke-dasharray="5,2" d="M437.05,-463.07C473.16,-458.42 510.75,-450.7 544.43,-438.14 560.6,-432.1 562.88,-426.82 576.43,-416.14 581.13,-412.43 580.85,-409.28 586.43,-407.14 697.3,-364.59 1004.79,-381.87 1120.82,-407.14 1137.53,-410.77 1145.39,-409.58 1155.82,-423.14 1203.35,-484.92 1220.76,-733.18 1225.13,-811.4"/>
<polygon fill="#6f42c1" stroke="#6f42c1" stroke-width="2" points="1223.4,-811.84 1225.42,-816.74 1226.89,-811.65 1223.4,-811.84"/>
<text text-anchor="middle" x="853.63" y="-409.54" font-family="Times-Roman" font-size="7.00" fill="#6f42c1">about</text>
</g>
<!-- L4YAML.Proofs.ScannerCorrectness.advanceN_preserves_tokens&#45;&gt;L4YAML.Proofs.ScannerCorrectness.ScanHelpers.scanDocumentStart_adds_tokens -->
<g id="edge9" class="edge">
<title>L4YAML.Proofs.ScannerCorrectness.advanceN_preserves_tokens&#45;&gt;L4YAML.Proofs.ScannerCorrectness.ScanHelpers.scanDocumentStart_adds_tokens</title>
<path fill="none" stroke="#28a745" d="M430.01,-460.27C470,-464.62 511.18,-475.43 544.43,-498.14 552.31,-503.52 549.24,-509.13 554.43,-517.14 563.04,-530.41 570.82,-530.34 576.43,-545.14 583.07,-562.62 573.71,-699.43 586.43,-713.14 593.25,-720.49 600.81,-726.86 608.93,-732.37"/>
<polygon fill="#28a745" stroke="#28a745" points="608.03,-734.7 615.25,-736.41 610.67,-730.57 608.03,-734.7"/>
</g>
<!-- L4YAML.Proofs.ScannerCorrectness.ScanHelpers.scanDocumentStart_adds_tokens._proof_1_1 -->
<g id="node13" class="node">
<title>L4YAML.Proofs.ScannerCorrectness.ScanHelpers.scanDocumentStart_adds_tokens._proof_1_1</title>
<g id="a_node13"><a xlink:href="../../../api/L4YAML/Proofs/Scanner/ScannerCorrectness.html#L4YAML.Proofs.ScannerCorrectness.ScanHelpers.scanDocumentStart_adds_tokens._proof_1_1" xlink:title="ScannerCorrectness.ScanHelpers.scanDocumentStart_adds_tokens._proof_1_1\n(Scanner.ScannerCorrectness)" target="_blank">
<ellipse fill="#d4edda" stroke="#28a745" cx="276.22" cy="-348.14" rx="260.43" ry="21.43"/>
<text text-anchor="middle" x="276.22" y="-351.14" font-family="Helvetica" font-size="10.00">ScannerCorrectness.ScanHelpers.scanDocumentStart_adds_tokens._proof_1_1</text>
<text text-anchor="middle" x="276.22" y="-340.14" font-family="Helvetica" font-size="10.00">(Scanner.ScannerCorrectness)</text>
</a>
</g>
</g>
<!-- L4YAML.Proofs.ScannerCorrectness.ScanHelpers.scanDocumentStart_adds_tokens._proof_1_1&#45;&gt;L4YAML.Positioned -->
<g id="edge27" class="edge">
<title>L4YAML.Proofs.ScannerCorrectness.ScanHelpers.scanDocumentStart_adds_tokens._proof_1_1&#45;&gt;L4YAML.Positioned</title>
<path fill="none" stroke="#6f42c1" stroke-width="2" stroke-dasharray="5,2" d="M298.79,-326.89C343.66,-283.43 451.45,-182.8 554.43,-115.14 567.72,-106.4 570.96,-102.79 586.43,-99.14 702.01,-71.85 1004.79,-73.87 1120.82,-99.14 1137.53,-102.77 1146.4,-100.86 1155.82,-115.14 1201.53,-184.44 1129.72,-791.79 1173.82,-862.14 1178.1,-868.97 1184.71,-874.15 1191.81,-878.05"/>
<polygon fill="#6f42c1" stroke="#6f42c1" stroke-width="2" points="1191.03,-879.62 1196.28,-880.32 1192.61,-876.5 1191.03,-879.62"/>
<text text-anchor="middle" x="853.63" y="-101.54" font-family="Times-Roman" font-size="7.00" fill="#6f42c1">about</text>
</g>
<!-- L4YAML.Proofs.ScannerCorrectness.ScanHelpers.scanDocumentStart_adds_tokens._proof_1_1&#45;&gt;L4YAML.Scanner.unwindIndents -->
<g id="edge30" class="edge">
<title>L4YAML.Proofs.ScannerCorrectness.ScanHelpers.scanDocumentStart_adds_tokens._proof_1_1&#45;&gt;L4YAML.Scanner.unwindIndents</title>
<path fill="none" stroke="#6f42c1" stroke-width="2" stroke-dasharray="5,2" d="M505.81,-358.18C519.41,-363.48 532.43,-370.05 544.43,-378.14 569.17,-394.8 568.7,-408.32 576.43,-437.14 581.73,-456.89 572.6,-790.07 586.43,-805.14 642.27,-865.94 748.66,-856.84 808.65,-845.55"/>
<polygon fill="#6f42c1" stroke="#6f42c1" stroke-width="2" points="809.02,-847.26 813.59,-844.6 808.35,-843.83 809.02,-847.26"/>
<text text-anchor="middle" x="565.43" y="-439.54" font-family="Times-Roman" font-size="7.00" fill="#6f42c1">about</text>
</g>
<!-- L4YAML.Proofs.ScannerCorrectness.ScanHelpers.scanDocumentStart_adds_tokens._proof_1_1&#45;&gt;L4YAML.Scanner.ScannerState -->
<g id="edge29" class="edge">
<title>L4YAML.Proofs.ScannerCorrectness.ScanHelpers.scanDocumentStart_adds_tokens._proof_1_1&#45;&gt;L4YAML.Scanner.ScannerState</title>
<path fill="none" stroke="#6f42c1" stroke-width="2" stroke-dasharray="5,2" d="M305.52,-326.95C354.76,-290.53 460,-214.59 554.43,-159.14 568.14,-151.08 570.96,-146.79 586.43,-143.14 644.22,-129.49 1075.04,-105.32 1120.82,-143.14 1184.33,-195.59 1146.76,-243.26 1155.82,-325.14 1159.43,-357.78 1156.29,-888.36 1173.82,-916.14 1176.71,-920.71 1180.64,-924.55 1185.07,-927.76"/>
<polygon fill="#6f42c1" stroke="#6f42c1" stroke-width="2" points="1184.12,-929.23 1189.25,-930.53 1186.05,-926.31 1184.12,-929.23"/>
<text text-anchor="middle" x="853.63" y="-145.54" font-family="Times-Roman" font-size="7.00" fill="#6f42c1">about</text>
</g>
<!-- L4YAML.Proofs.ScannerCorrectness.ScanHelpers.scanDocumentStart_adds_tokens._proof_1_1&#45;&gt;L4YAML.YamlToken -->
<g id="edge28" class="edge">
<title>L4YAML.Proofs.ScannerCorrectness.ScanHelpers.scanDocumentStart_adds_tokens._proof_1_1&#45;&gt;L4YAML.YamlToken</title>
<path fill="none" stroke="#6f42c1" stroke-width="2" stroke-dasharray="5,2" d="M304.59,-326.88C356.2,-288.31 472.92,-208.13 586.43,-179.14 643.96,-164.44 1076.11,-140.06 1120.82,-179.14 1133.32,-190.06 1128.04,-236.78 1130.82,-253.14 1140.09,-307.7 1149.41,-320.16 1155.82,-375.14 1159.65,-407.98 1156.17,-942.17 1173.82,-970.14 1177.87,-976.54 1183.95,-981.5 1190.57,-985.31"/>
<polygon fill="#6f42c1" stroke="#6f42c1" stroke-width="2" points="1189.97,-986.98 1195.21,-987.77 1191.61,-983.89 1189.97,-986.98"/>
<text text-anchor="middle" x="853.63" y="-181.54" font-family="Times-Roman" font-size="7.00" fill="#6f42c1">about</text>
</g>
<!-- L4YAML.Proofs.ScannerCorrectness.ScanHelpers.scanDocumentStart_adds_tokens._proof_1_1&#45;&gt;L4YAML.Scanner.ScannerState.tokens -->
<g id="edge26" class="edge">
<title>L4YAML.Proofs.ScannerCorrectness.ScanHelpers.scanDocumentStart_adds_tokens._proof_1_1&#45;&gt;L4YAML.Scanner.ScannerState.tokens</title>
<path fill="none" stroke="#6f42c1" stroke-width="2" stroke-dasharray="5,2" d="M294.43,-326.71C335.32,-276.87 443.2,-151.27 554.43,-71.14 662.86,6.99 1078.5,37.86 1155.82,-71.14 1199.73,-133.02 1221.33,-690.02 1225.54,-811.72"/>
<polygon fill="#6f42c1" stroke="#6f42c1" stroke-width="2" points="1223.8,-811.92 1225.72,-816.85 1227.3,-811.8 1223.8,-811.92"/>
<text text-anchor="middle" x="853.63" y="-53.54" font-family="Times-Roman" font-size="7.00" fill="#6f42c1">about</text>
</g>
<!-- L4YAML.Proofs.ScannerCorrectness.ScanHelpers.scanDocumentStart_adds_tokens._proof_1_1&#45;&gt;L4YAML.Proofs.ScannerCorrectness.ScanHelpers.scanDocumentStart_adds_tokens -->
<g id="edge8" class="edge">
<title>L4YAML.Proofs.ScannerCorrectness.ScanHelpers.scanDocumentStart_adds_tokens._proof_1_1&#45;&gt;L4YAML.Proofs.ScannerCorrectness.ScanHelpers.scanDocumentStart_adds_tokens</title>
<path fill="none" stroke="#28a745" d="M372.66,-328.38C439.65,-320.62 525.97,-324.01 576.43,-378.14 601.82,-405.37 561.51,-685.46 586.43,-713.14 593.02,-720.45 600.33,-726.81 608.21,-732.31"/>
<polygon fill="#28a745" stroke="#28a745" points="607.14,-734.54 614.34,-736.35 609.84,-730.45 607.14,-734.54"/>
</g>
<!-- Decidable.byContradiction -->
<g id="node14" class="node">
<title>Decidable.byContradiction</title>
<g id="a_node14"><a xlink:href="../../../api/Init/Core.html#Decidable.byContradiction" xlink:title="Decidable.byContradiction" target="_blank">
<ellipse fill="#fdebd0" stroke="#e67e22" cx="276.22" cy="-782.14" rx="77.23" ry="18"/>
<text text-anchor="middle" x="276.22" y="-779.64" font-family="Helvetica" font-size="10.00">Decidable.byContradiction</text>
</a>
</g>
</g>
<!-- Decidable.byContradiction&#45;&gt;L4YAML.Proofs.ScannerCorrectness.ScanHelpers.scanDocumentStart_adds_tokens -->
<g id="edge10" class="edge">
<title>Decidable.byContradiction&#45;&gt;L4YAML.Proofs.ScannerCorrectness.ScanHelpers.scanDocumentStart_adds_tokens</title>
<path fill="none" stroke="#e67e22" stroke-width="2" d="M352.25,-779.08C412.78,-776.51 500.11,-772.55 576.43,-768.14 596.37,-766.98 617.11,-765.7 637.87,-764.37"/>
<polygon fill="#e67e22" stroke="#e67e22" stroke-width="2" points="638.08,-766.81 644.91,-763.92 637.77,-761.92 638.08,-766.81"/>
</g>
</g>
</svg>
