<?xml version="1.0" encoding="UTF-8" standalone="no"?>
<!DOCTYPE svg PUBLIC "-//W3C//DTD SVG 1.1//EN"
 "http://www.w3.org/Graphics/SVG/1.1/DTD/svg11.dtd">
<!-- Generated by graphviz version 2.44.0 (0)
 -->
<!-- Title: chain_ScannerSimpleKey.saveSimpleKey_preserves_wellFormed Pages: 1 -->
<svg width="1731pt" height="391pt"
 viewBox="0.00 0.00 1731.00 391.00" xmlns="http://www.w3.org/2000/svg" xmlns:xlink="http://www.w3.org/1999/xlink">
<g id="graph0" class="graph" transform="scale(1 1) rotate(0) translate(4 387)">
<title>chain_ScannerSimpleKey.saveSimpleKey_preserves_wellFormed</title>
<polygon fill="white" stroke="transparent" points="-4,4 -4,-387 1727,-387 1727,4 -4,4"/>
<text text-anchor="middle" x="861.5" y="-368.6" font-family="Helvetica Bold" font-size="13.00">Functorial Chains: ScannerSimpleKey.saveSimpleKey_preserves_wellFormed\n2.7 Simple&#45;key save preserves WellFormed (bundle representative)</text>
<g id="clust1" class="cluster">
<title>cluster_fns</title>
<polygon fill="none" stroke="#4a90d9" stroke-dasharray="5,2" points="1201,-8 1201,-244 1715,-244 1715,-8 1201,-8"/>
<text text-anchor="middle" x="1458" y="-229.6" font-family="Helvetica Bold" font-size="13.00" fill="#4a90d9">Functions (Call Chain)</text>
</g>
<g id="clust2" class="cluster">
<title>cluster_thms</title>
<polygon fill="none" stroke="#28a745" stroke-dasharray="5,2" points="8,-89 8,-353 1193,-353 1193,-89 8,-89"/>
<text text-anchor="middle" x="600.5" y="-338.6" font-family="Helvetica Bold" font-size="13.00" fill="#28a745">Theorems (Proof Chain)</text>
</g>
<!-- L4YAML.Scanner.IndentEntry.column -->
<g id="node1" class="node">
<title>L4YAML.Scanner.IndentEntry.column</title>
<g id="a_node1"><a xlink:href="../../../api/L4YAML/Scanner/State.html#L4YAML.Scanner.IndentEntry.column" xlink:title="IndentEntry.column" target="_blank">
<polygon fill="#dce9f7" stroke="#4a90d9" points="1706.5,-133 1605.5,-133 1605.5,-97 1706.5,-97 1706.5,-133"/>
<text text-anchor="middle" x="1656" y="-112.5" font-family="Helvetica" font-size="10.00">IndentEntry.column</text>
</a>
</g>
</g>
<!-- L4YAML.Scanner.IndentEntry -->
<g id="node3" class="node">
<title>L4YAML.Scanner.IndentEntry</title>
<g id="a_node3"><a xlink:href="../../../api/L4YAML/Scanner/State.html#L4YAML.Scanner.IndentEntry" xlink:title="IndentEntry" target="_blank">
<polygon fill="#dce9f7" stroke="#4a90d9" points="1371,-52 1303,-52 1303,-16 1371,-16 1371,-52"/>
<text text-anchor="middle" x="1337" y="-31.5" font-family="Helvetica" font-size="10.00">IndentEntry</text>
</a>
</g>
</g>
<!-- L4YAML.Scanner.IndentEntry.column&#45;&gt;L4YAML.Scanner.IndentEntry -->
<g id="edge14" class="edge">
<title>L4YAML.Scanner.IndentEntry.column&#45;&gt;L4YAML.Scanner.IndentEntry</title>
<path fill="none" stroke="#4a90d9" stroke-width="2" d="M1618.64,-96.88C1611.55,-93.99 1604.11,-91.22 1597,-89 1521.35,-65.37 1430.05,-49.12 1378.24,-41"/>
<polygon fill="#4a90d9" stroke="#4a90d9" stroke-width="2" points="1378.49,-38.56 1371.2,-39.91 1377.74,-43.4 1378.49,-38.56"/>
<text text-anchor="middle" x="1571.5" y="-72.6" font-family="Times-Roman" font-size="8.00">calls</text>
</g>
<!-- L4YAML.Scanner.ScannerState -->
<g id="node2" class="node">
<title>L4YAML.Scanner.ScannerState</title>
<g id="a_node2"><a xlink:href="../../../api/L4YAML/Scanner/State.html#L4YAML.Scanner.ScannerState" xlink:title="ScannerState" target="_blank">
<polygon fill="#dce9f7" stroke="#4a90d9" points="1285,-52 1209,-52 1209,-16 1285,-16 1285,-52"/>
<text text-anchor="middle" x="1247" y="-31.5" font-family="Helvetica" font-size="10.00">ScannerState</text>
</a>
</g>
</g>
<!-- L4YAML.Scanner.ScannerState.indents -->
<g id="node4" class="node">
<title>L4YAML.Scanner.ScannerState.indents</title>
<g id="a_node4"><a xlink:href="../../../api/L4YAML/Scanner/State.html#L4YAML.Scanner.ScannerState.indents" xlink:title="ScannerState.indents" target="_blank">
<polygon fill="#dce9f7" stroke="#4a90d9" points="1319,-133 1209,-133 1209,-97 1319,-97 1319,-133"/>
<text text-anchor="middle" x="1264" y="-112.5" font-family="Helvetica" font-size="10.00">ScannerState.indents</text>
</a>
</g>
</g>
<!-- L4YAML.Scanner.ScannerState.indents&#45;&gt;L4YAML.Scanner.ScannerState -->
<g id="edge5" class="edge">
<title>L4YAML.Scanner.ScannerState.indents&#45;&gt;L4YAML.Scanner.ScannerState</title>
<path fill="none" stroke="#4a90d9" stroke-width="2" d="M1260.31,-96.86C1257.93,-85.78 1254.79,-71.21 1252.16,-58.99"/>
<polygon fill="#4a90d9" stroke="#4a90d9" stroke-width="2" points="1254.55,-58.44 1250.68,-52.11 1249.76,-59.47 1254.55,-58.44"/>
<text text-anchor="middle" x="1265.5" y="-72.6" font-family="Times-Roman" font-size="8.00">calls</text>
</g>
<!-- L4YAML.Scanner.ScannerState.simpleKeyStack -->
<g id="node5" class="node">
<title>L4YAML.Scanner.ScannerState.simpleKeyStack</title>
<g id="a_node5"><a xlink:href="../../../api/L4YAML/Scanner/State.html#L4YAML.Scanner.ScannerState.simpleKeyStack" xlink:title="ScannerState.simpleKeyStack" target="_blank">
<polygon fill="#dce9f7" stroke="#4a90d9" points="1587.5,-133 1438.5,-133 1438.5,-97 1587.5,-97 1587.5,-133"/>
<text text-anchor="middle" x="1513" y="-112.5" font-family="Helvetica" font-size="10.00">ScannerState.simpleKeyStack</text>
</a>
</g>
</g>
<!-- L4YAML.Scanner.IndentEntry.mk -->
<g id="node6" class="node">
<title>L4YAML.Scanner.IndentEntry.mk</title>
<g id="a_node6"><a xlink:href="../../../api/L4YAML/Scanner/State.html#L4YAML.Scanner.IndentEntry.mk" xlink:title="IndentEntry.mk" target="_blank">
<polygon fill="#dce9f7" stroke="#4a90d9" points="1420.5,-133 1337.5,-133 1337.5,-97 1420.5,-97 1420.5,-133"/>
<text text-anchor="middle" x="1379" y="-112.5" font-family="Helvetica" font-size="10.00">IndentEntry.mk</text>
</a>
</g>
</g>
<!-- L4YAML.Scanner.saveSimpleKey -->
<g id="node7" class="node">
<title>L4YAML.Scanner.saveSimpleKey</title>
<g id="a_node7"><a xlink:href="../../../api/L4YAML/Scanner/SimpleKey.html#L4YAML.Scanner.saveSimpleKey" xlink:title="saveSimpleKey" target="_blank">
<polygon fill="#dce9f7" stroke="#4a90d9" points="1295.5,-214 1212.5,-214 1212.5,-178 1295.5,-178 1295.5,-214"/>
<text text-anchor="middle" x="1254" y="-193.5" font-family="Helvetica" font-size="10.00">saveSimpleKey</text>
</a>
</g>
</g>
<!-- L4YAML.Scanner.saveSimpleKey&#45;&gt;L4YAML.Scanner.ScannerState.indents -->
<g id="edge20" class="edge">
<title>L4YAML.Scanner.saveSimpleKey&#45;&gt;L4YAML.Scanner.ScannerState.indents</title>
<path fill="none" stroke="#4a90d9" stroke-width="2" d="M1256.17,-177.86C1257.56,-166.88 1259.38,-152.48 1260.92,-140.33"/>
<polygon fill="#4a90d9" stroke="#4a90d9" stroke-width="2" points="1263.39,-140.36 1261.83,-133.11 1258.52,-139.75 1263.39,-140.36"/>
<text text-anchor="middle" x="1268.5" y="-153.6" font-family="Times-Roman" font-size="8.00">calls</text>
</g>
<!-- L4YAML.Scanner.saveSimpleKey&#45;&gt;L4YAML.Scanner.ScannerState.simpleKeyStack -->
<g id="edge21" class="edge">
<title>L4YAML.Scanner.saveSimpleKey&#45;&gt;L4YAML.Scanner.ScannerState.simpleKeyStack</title>
<path fill="none" stroke="#4a90d9" stroke-width="2" d="M1295.61,-180.61C1298.77,-179.68 1301.93,-178.79 1305,-178 1347.46,-167.04 1359.87,-172.14 1402,-160 1424.46,-153.53 1448.67,-144.22 1468.73,-135.84"/>
<polygon fill="#4a90d9" stroke="#4a90d9" stroke-width="2" points="1469.87,-138.01 1475.36,-133.03 1467.96,-133.5 1469.87,-138.01"/>
<text text-anchor="middle" x="1435.5" y="-153.6" font-family="Times-Roman" font-size="8.00">calls</text>
</g>
<!-- L4YAML.Scanner.ScannerState.WellFormed -->
<g id="node8" class="node">
<title>L4YAML.Scanner.ScannerState.WellFormed</title>
<g id="a_node8"><a xlink:href="../../../api/L4YAML/Scanner/State.html#L4YAML.Scanner.ScannerState.WellFormed" xlink:title="ScannerState.WellFormed" target="_blank">
<polygon fill="#dce9f7" stroke="#4a90d9" points="1444.5,-214 1313.5,-214 1313.5,-178 1444.5,-178 1444.5,-214"/>
<text text-anchor="middle" x="1379" y="-193.5" font-family="Helvetica" font-size="10.00">ScannerState.WellFormed</text>
</a>
</g>
</g>
<!-- L4YAML.Scanner.ScannerState.WellFormed&#45;&gt;L4YAML.Scanner.IndentEntry.column -->
<g id="edge12" class="edge">
<title>L4YAML.Scanner.ScannerState.WellFormed&#45;&gt;L4YAML.Scanner.IndentEntry.column</title>
<path fill="none" stroke="#4a90d9" stroke-width="2" d="M1439.16,-177.95C1482.95,-165.53 1543.66,-148.27 1597,-133 1597.52,-132.85 1598.04,-132.7 1598.56,-132.55"/>
<polygon fill="#4a90d9" stroke="#4a90d9" stroke-width="2" points="1599.42,-134.86 1605.47,-130.57 1598.07,-130.15 1599.42,-134.86"/>
<text text-anchor="middle" x="1540.5" y="-153.6" font-family="Times-Roman" font-size="8.00">calls</text>
</g>
<!-- L4YAML.Scanner.ScannerState.WellFormed&#45;&gt;L4YAML.Scanner.ScannerState.indents -->
<g id="edge2" class="edge">
<title>L4YAML.Scanner.ScannerState.WellFormed&#45;&gt;L4YAML.Scanner.ScannerState.indents</title>
<path fill="none" stroke="#4a90d9" stroke-width="2" d="M1354.05,-177.86C1336.72,-165.95 1313.5,-150.01 1294.99,-137.29"/>
<polygon fill="#4a90d9" stroke="#4a90d9" stroke-width="2" points="1296.06,-135.05 1288.9,-133.11 1293.29,-139.09 1296.06,-135.05"/>
<text text-anchor="middle" x="1333.5" y="-153.6" font-family="Times-Roman" font-size="8.00">calls</text>
</g>
<!-- L4YAML.Scanner.ScannerState.WellFormed&#45;&gt;L4YAML.Scanner.IndentEntry.mk -->
<g id="edge24" class="edge">
<title>L4YAML.Scanner.ScannerState.WellFormed&#45;&gt;L4YAML.Scanner.IndentEntry.mk</title>
<path fill="none" stroke="#4a90d9" stroke-width="2" d="M1379,-177.86C1379,-166.88 1379,-152.48 1379,-140.33"/>
<polygon fill="#4a90d9" stroke="#4a90d9" stroke-width="2" points="1381.45,-140.11 1379,-133.11 1376.55,-140.11 1381.45,-140.11"/>
<text text-anchor="middle" x="1388.5" y="-153.6" font-family="Times-Roman" font-size="8.00">calls</text>
</g>
<!-- L4YAML.Proofs.ScannerSimpleKey.saveSimpleKey_preserves_monotone._proof_1 -->
<g id="node9" class="node">
<title>L4YAML.Proofs.ScannerSimpleKey.saveSimpleKey_preserves_monotone._proof_1</title>
<g id="a_node9"><a xlink:href="../../../api/L4YAML/Proofs/Scanner/ScannerSimpleKey.html#L4YAML.Proofs.ScannerSimpleKey.saveSimpleKey_preserves_monotone._proof_1" xlink:title="ScannerSimpleKey.saveSimpleKey_preserves_monotone._proof_1" target="_blank">
<ellipse fill="#d4edda" stroke="#28a745" cx="1005" cy="-115" rx="179.58" ry="18"/>
<text text-anchor="middle" x="1005" y="-112.5" font-family="Helvetica" font-size="10.00">ScannerSimpleKey.saveSimpleKey_preserves_monotone._proof_1</text>
</a>
</g>
</g>
<!-- L4YAML.Proofs.ScannerSimpleKey.saveSimpleKey_preserves_monotone._proof_1&#45;&gt;L4YAML.Scanner.ScannerState -->
<g id="edge7" class="edge">
<title>L4YAML.Proofs.ScannerSimpleKey.saveSimpleKey_preserves_monotone._proof_1&#45;&gt;L4YAML.Scanner.ScannerState</title>
<path fill="none" stroke="#6f42c1" stroke-width="2" stroke-dasharray="5,2" d="M1024.35,-96.99C1035.97,-87.65 1051.47,-76.65 1067,-70 1110.49,-51.38 1164.13,-42.58 1201.5,-38.48"/>
<polygon fill="#6f42c1" stroke="#6f42c1" stroke-width="2" points="1202.04,-40.89 1208.74,-37.72 1201.53,-36.01 1202.04,-40.89"/>
<text text-anchor="middle" x="1079.5" y="-72.6" font-family="Times-Roman" font-size="8.00" fill="#6f42c1">about</text>
</g>
<!-- L4YAML.Proofs.ScannerSimpleKey.saveSimpleKey_preserves_monotone._proof_1&#45;&gt;L4YAML.Scanner.IndentEntry -->
<g id="edge17" class="edge">
<title>L4YAML.Proofs.ScannerSimpleKey.saveSimpleKey_preserves_monotone._proof_1&#45;&gt;L4YAML.Scanner.IndentEntry</title>
<path fill="none" stroke="#6f42c1" stroke-width="2" stroke-dasharray="5,2" d="M1083.25,-98.73C1154.85,-84.48 1255.32,-63.71 1294,-52 1294.73,-51.78 1295.46,-51.55 1296.2,-51.32"/>
<polygon fill="#6f42c1" stroke="#6f42c1" stroke-width="2" points="1297.06,-53.62 1302.91,-49.06 1295.5,-48.97 1297.06,-53.62"/>
<text text-anchor="middle" x="1230.5" y="-72.6" font-family="Times-Roman" font-size="8.00" fill="#6f42c1">about</text>
</g>
<!-- L4YAML.Proofs.ScannerSimpleKey.saveSimpleKey_preserves_sentinel -->
<g id="node10" class="node">
<title>L4YAML.Proofs.ScannerSimpleKey.saveSimpleKey_preserves_sentinel</title>
<g id="a_node10"><a xlink:href="../../../api/L4YAML/Proofs/Scanner/ScannerSimpleKey.html#L4YAML.Proofs.ScannerSimpleKey.saveSimpleKey_preserves_sentinel" xlink:title="ScannerSimpleKey.saveSimpleKey_preserves_sentinel" target="_blank">
<ellipse fill="#d4edda" stroke="#28a745" cx="715" cy="-196" rx="150.22" ry="18"/>
<text text-anchor="middle" x="715" y="-193.5" font-family="Helvetica" font-size="10.00">ScannerSimpleKey.saveSimpleKey_preserves_sentinel</text>
</a>
</g>
</g>
<!-- L4YAML.Proofs.ScannerSimpleKey.saveSimpleKey_preserves_sentinel&#45;&gt;L4YAML.Scanner.IndentEntry.mk -->
<g id="edge26" class="edge">
<title>L4YAML.Proofs.ScannerSimpleKey.saveSimpleKey_preserves_sentinel&#45;&gt;L4YAML.Scanner.IndentEntry.mk</title>
<path fill="none" stroke="#6f42c1" stroke-width="2" stroke-dasharray="5,2" d="M809.56,-181.97C881.43,-172.41 982.8,-159.63 1072,-151 1185.53,-140.02 1216.12,-155.21 1328,-133 1328.88,-132.83 1329.76,-132.64 1330.64,-132.45"/>
<polygon fill="#6f42c1" stroke="#6f42c1" stroke-width="2" points="1331.26,-134.82 1337.48,-130.79 1330.1,-130.06 1331.26,-134.82"/>
<text text-anchor="middle" x="1084.5" y="-153.6" font-family="Times-Roman" font-size="8.00" fill="#6f42c1">about</text>
</g>
<!-- L4YAML.Scanner.ScannerState.WellFormed._proof_2 -->
<g id="node11" class="node">
<title>L4YAML.Scanner.ScannerState.WellFormed._proof_2</title>
<g id="a_node11"><a xlink:href="../../../api/L4YAML/Scanner/State.html#L4YAML.Scanner.ScannerState.WellFormed._proof_2" xlink:title="ScannerState.WellFormed._proof_2" target="_blank">
<ellipse fill="#d4edda" stroke="#28a745" cx="117" cy="-196" rx="100.82" ry="18"/>
<text text-anchor="middle" x="117" y="-193.5" font-family="Helvetica" font-size="10.00">ScannerState.WellFormed._proof_2</text>
</a>
</g>
</g>
<!-- L4YAML.Scanner.ScannerState.WellFormed._proof_2&#45;&gt;L4YAML.Scanner.ScannerState.indents -->
<g id="edge9" class="edge">
<title>L4YAML.Scanner.ScannerState.WellFormed._proof_2&#45;&gt;L4YAML.Scanner.ScannerState.indents</title>
<path fill="none" stroke="#6f42c1" stroke-width="2" stroke-dasharray="5,2" d="M186.68,-183C200.03,-181.05 213.92,-179.26 227,-178 434.2,-158.07 487.2,-172.05 695,-160 746.62,-157.01 759.39,-154.2 811,-151 982.41,-140.36 1027.12,-158.25 1197,-133 1198.59,-132.76 1200.2,-132.51 1201.82,-132.23"/>
<polygon fill="#6f42c1" stroke="#6f42c1" stroke-width="2" points="1202.53,-134.59 1208.97,-130.9 1201.64,-129.77 1202.53,-134.59"/>
<text text-anchor="middle" x="823.5" y="-153.6" font-family="Times-Roman" font-size="8.00" fill="#6f42c1">about</text>
</g>
<!-- L4YAML.Scanner.ScannerState.WellFormed._proof_1 -->
<g id="node16" class="node">
<title>L4YAML.Scanner.ScannerState.WellFormed._proof_1</title>
<g id="a_node16"><a xlink:href="../../../api/L4YAML/Scanner/State.html#L4YAML.Scanner.ScannerState.WellFormed._proof_1" xlink:title="ScannerState.WellFormed._proof_1" target="_blank">
<ellipse fill="#d4edda" stroke="#28a745" cx="224" cy="-115" rx="100.82" ry="18"/>
<text text-anchor="middle" x="224" y="-112.5" font-family="Helvetica" font-size="10.00">ScannerState.WellFormed._proof_1</text>
</a>
</g>
</g>
<!-- L4YAML.Scanner.ScannerState.WellFormed._proof_2&#45;&gt;L4YAML.Scanner.ScannerState.WellFormed._proof_1 -->
<g id="edge10" class="edge">
<title>L4YAML.Scanner.ScannerState.WellFormed._proof_2&#45;&gt;L4YAML.Scanner.ScannerState.WellFormed._proof_1</title>
<path fill="none" stroke="#28a745" stroke-width="2" d="M139.43,-178.44C155.73,-166.41 177.91,-150.03 195.47,-137.07"/>
<polygon fill="#28a745" stroke="#28a745" stroke-width="2" points="197.05,-138.94 201.23,-132.81 194.14,-135 197.05,-138.94"/>
<text text-anchor="middle" x="184" y="-153.6" font-family="Times-Roman" font-size="8.00">uses</text>
</g>
<!-- L4YAML.Proofs.ScannerSimpleKey.saveSimpleKey_preserves_monotone._proof_2 -->
<g id="node12" class="node">
<title>L4YAML.Proofs.ScannerSimpleKey.saveSimpleKey_preserves_monotone._proof_2</title>
<g id="a_node12"><a xlink:href="../../../api/L4YAML/Proofs/Scanner/ScannerSimpleKey.html#L4YAML.Proofs.ScannerSimpleKey.saveSimpleKey_preserves_monotone._proof_2" xlink:title="ScannerSimpleKey.saveSimpleKey_preserves_monotone._proof_2" target="_blank">
<ellipse fill="#d4edda" stroke="#28a745" cx="628" cy="-115" rx="179.58" ry="18"/>
<text text-anchor="middle" x="628" y="-112.5" font-family="Helvetica" font-size="10.00">ScannerSimpleKey.saveSimpleKey_preserves_monotone._proof_2</text>
</a>
</g>
</g>
<!-- L4YAML.Proofs.ScannerSimpleKey.saveSimpleKey_preserves_monotone._proof_2&#45;&gt;L4YAML.Scanner.ScannerState -->
<g id="edge18" class="edge">
<title>L4YAML.Proofs.ScannerSimpleKey.saveSimpleKey_preserves_monotone._proof_2&#45;&gt;L4YAML.Scanner.ScannerState</title>
<path fill="none" stroke="#6f42c1" stroke-width="2" stroke-dasharray="5,2" d="M730.92,-100.17C758.55,-96.5 788.41,-92.56 816,-89 956.56,-70.85 1123.03,-50.25 1201.61,-40.57"/>
<polygon fill="#6f42c1" stroke="#6f42c1" stroke-width="2" points="1202.29,-42.96 1208.94,-39.67 1201.69,-38.09 1202.29,-42.96"/>
<text text-anchor="middle" x="970.5" y="-72.6" font-family="Times-Roman" font-size="8.00" fill="#6f42c1">about</text>
</g>
<!-- L4YAML.Proofs.ScannerSimpleKey.saveSimpleKey_preserves_monotone._proof_2&#45;&gt;L4YAML.Scanner.IndentEntry -->
<g id="edge16" class="edge">
<title>L4YAML.Proofs.ScannerSimpleKey.saveSimpleKey_preserves_monotone._proof_2&#45;&gt;L4YAML.Scanner.IndentEntry</title>
<path fill="none" stroke="#6f42c1" stroke-width="2" stroke-dasharray="5,2" d="M722.48,-99.63C752.33,-95.58 785.49,-91.58 816,-89 938.31,-78.68 969.79,-90.5 1092,-79 1118.41,-76.52 1124.73,-73.66 1151,-70 1214.45,-61.17 1231.95,-67.9 1294,-52 1294.74,-51.81 1295.48,-51.61 1296.23,-51.4"/>
<polygon fill="#6f42c1" stroke="#6f42c1" stroke-width="2" points="1297.01,-53.73 1302.99,-49.34 1295.58,-49.04 1297.01,-53.73"/>
<text text-anchor="middle" x="1163.5" y="-72.6" font-family="Times-Roman" font-size="8.00" fill="#6f42c1">about</text>
</g>
<!-- L4YAML.Proofs.ScannerSimpleKey.saveSimpleKey_preserves_monotone -->
<g id="node13" class="node">
<title>L4YAML.Proofs.ScannerSimpleKey.saveSimpleKey_preserves_monotone</title>
<g id="a_node13"><a xlink:href="../../../api/L4YAML/Proofs/Scanner/ScannerSimpleKey.html#L4YAML.Proofs.ScannerSimpleKey.saveSimpleKey_preserves_monotone" xlink:title="ScannerSimpleKey.saveSimpleKey_preserves_monotone" target="_blank">
<ellipse fill="#d4edda" stroke="#28a745" cx="391" cy="-196" rx="155.31" ry="18"/>
<text text-anchor="middle" x="391" y="-193.5" font-family="Helvetica" font-size="10.00">ScannerSimpleKey.saveSimpleKey_preserves_monotone</text>
</a>
</g>
</g>
<!-- L4YAML.Proofs.ScannerSimpleKey.saveSimpleKey_preserves_monotone&#45;&gt;L4YAML.Scanner.IndentEntry.column -->
<g id="edge13" class="edge">
<title>L4YAML.Proofs.ScannerSimpleKey.saveSimpleKey_preserves_monotone&#45;&gt;L4YAML.Scanner.IndentEntry.column</title>
<path fill="none" stroke="#6f42c1" stroke-width="2" stroke-dasharray="5,2" d="M497.86,-182.85C517.19,-180.98 537.18,-179.25 556,-178 820.87,-160.39 888.27,-179.63 1153,-160 1186.92,-157.49 1195.1,-153.83 1229,-151 1392.18,-137.36 1435.47,-159.85 1597,-133 1597.43,-132.93 1597.86,-132.86 1598.29,-132.78"/>
<polygon fill="#6f42c1" stroke="#6f42c1" stroke-width="2" points="1598.92,-135.15 1605.32,-131.41 1597.98,-130.34 1598.92,-135.15"/>
<text text-anchor="middle" x="1241.5" y="-153.6" font-family="Times-Roman" font-size="8.00" fill="#6f42c1">about</text>
</g>
<!-- L4YAML.Proofs.ScannerSimpleKey.saveSimpleKey_preserves_monotone&#45;&gt;L4YAML.Scanner.ScannerState.indents -->
<g id="edge4" class="edge">
<title>L4YAML.Proofs.ScannerSimpleKey.saveSimpleKey_preserves_monotone&#45;&gt;L4YAML.Scanner.ScannerState.indents</title>
<path fill="none" stroke="#6f42c1" stroke-width="2" stroke-dasharray="5,2" d="M500.56,-183.21C519.06,-181.36 538.07,-179.55 556,-178 591.57,-174.92 1161.75,-138.66 1197,-133 1198.59,-132.74 1200.19,-132.47 1201.81,-132.18"/>
<polygon fill="#6f42c1" stroke="#6f42c1" stroke-width="2" points="1202.55,-134.53 1208.95,-130.8 1201.62,-129.72 1202.55,-134.53"/>
<text text-anchor="middle" x="960.5" y="-153.6" font-family="Times-Roman" font-size="8.00" fill="#6f42c1">about</text>
</g>
<!-- L4YAML.Proofs.ScannerSimpleKey.saveSimpleKey_preserves_monotone&#45;&gt;L4YAML.Proofs.ScannerSimpleKey.saveSimpleKey_preserves_monotone._proof_1 -->
<g id="edge6" class="edge">
<title>L4YAML.Proofs.ScannerSimpleKey.saveSimpleKey_preserves_monotone&#45;&gt;L4YAML.Proofs.ScannerSimpleKey.saveSimpleKey_preserves_monotone._proof_1</title>
<path fill="none" stroke="#28a745" stroke-width="2" d="M475.35,-180.84C531.77,-171.64 607.71,-159.78 675,-151 739.78,-142.55 811.92,-134.72 872.18,-128.62"/>
<polygon fill="#28a745" stroke="#28a745" stroke-width="2" points="872.75,-131.02 879.47,-127.88 872.26,-126.15 872.75,-131.02"/>
<text text-anchor="middle" x="685" y="-153.6" font-family="Times-Roman" font-size="8.00">uses</text>
</g>
<!-- L4YAML.Proofs.ScannerSimpleKey.saveSimpleKey_preserves_monotone&#45;&gt;L4YAML.Proofs.ScannerSimpleKey.saveSimpleKey_preserves_monotone._proof_2 -->
<g id="edge15" class="edge">
<title>L4YAML.Proofs.ScannerSimpleKey.saveSimpleKey_preserves_monotone&#45;&gt;L4YAML.Proofs.ScannerSimpleKey.saveSimpleKey_preserves_monotone._proof_2</title>
<path fill="none" stroke="#28a745" stroke-width="2" d="M439.53,-178.82C477.94,-166.02 531.62,-148.13 571.87,-134.71"/>
<polygon fill="#28a745" stroke="#28a745" stroke-width="2" points="572.85,-136.97 578.72,-132.43 571.3,-132.32 572.85,-136.97"/>
<text text-anchor="middle" x="526" y="-153.6" font-family="Times-Roman" font-size="8.00">uses</text>
</g>
<!-- L4YAML.Proofs.ScannerSimpleKey.saveSimpleKey_preserves_wellFormed -->
<g id="node14" class="node">
<title>L4YAML.Proofs.ScannerSimpleKey.saveSimpleKey_preserves_wellFormed</title>
<g id="a_node14"><a xlink:href="../../../api/L4YAML/Proofs/Scanner/ScannerSimpleKey.html#L4YAML.Proofs.ScannerSimpleKey.saveSimpleKey_preserves_wellFormed" xlink:title="ScannerSimpleKey.saveSimpleKey_preserves_wellFormed" target="_blank">
<polygon fill="#fff3cd" stroke="#d4a017" points="1031.84,-293.54 1031.84,-308.46 930.59,-319 787.41,-319 686.16,-308.46 686.16,-293.54 787.41,-283 930.59,-283 1031.84,-293.54"/>
<polygon fill="none" stroke="#d4a017" points="1035.84,-289.94 1035.84,-312.06 930.8,-323 787.2,-323 682.16,-312.06 682.16,-289.94 787.2,-279 930.8,-279 1035.84,-289.94"/>
<text text-anchor="middle" x="859" y="-298.5" font-family="Helvetica" font-size="10.00">ScannerSimpleKey.saveSimpleKey_preserves_wellFormed</text>
</a>
</g>
</g>
<!-- L4YAML.Proofs.ScannerSimpleKey.saveSimpleKey_preserves_wellFormed&#45;&gt;L4YAML.Scanner.saveSimpleKey -->
<g id="edge19" class="edge">
<title>L4YAML.Proofs.ScannerSimpleKey.saveSimpleKey_preserves_wellFormed&#45;&gt;L4YAML.Scanner.saveSimpleKey</title>
<path fill="none" stroke="#6f42c1" stroke-width="2" stroke-dasharray="5,2" d="M1030.01,-289.3C1085.13,-281.28 1145.29,-267.52 1197,-244 1210.2,-238 1222.86,-228.13 1232.88,-218.98"/>
<polygon fill="#6f42c1" stroke="#6f42c1" stroke-width="2" points="1234.75,-220.58 1238.16,-214 1231.39,-217.02 1234.75,-220.58"/>
<text text-anchor="middle" x="1183.5" y="-254.6" font-family="Times-Roman" font-size="8.00" fill="#6f42c1">about</text>
</g>
<!-- L4YAML.Proofs.ScannerSimpleKey.saveSimpleKey_preserves_wellFormed&#45;&gt;L4YAML.Scanner.ScannerState.WellFormed -->
<g id="edge1" class="edge">
<title>L4YAML.Proofs.ScannerSimpleKey.saveSimpleKey_preserves_wellFormed&#45;&gt;L4YAML.Scanner.ScannerState.WellFormed</title>
<path fill="none" stroke="#6f42c1" stroke-width="2" stroke-dasharray="5,2" d="M1017.58,-288.03C1123.96,-278.49 1253.66,-263.51 1305,-244 1321.41,-237.76 1338.05,-227.61 1351.39,-218.33"/>
<polygon fill="#6f42c1" stroke="#6f42c1" stroke-width="2" points="1352.99,-220.2 1357.27,-214.14 1350.15,-216.2 1352.99,-220.2"/>
<text text-anchor="middle" x="1289.5" y="-254.6" font-family="Times-Roman" font-size="8.00" fill="#6f42c1">about</text>
</g>
<!-- L4YAML.Proofs.ScannerSimpleKey.saveSimpleKey_preserves_wellFormed&#45;&gt;L4YAML.Proofs.ScannerSimpleKey.saveSimpleKey_preserves_sentinel -->
<g id="edge25" class="edge">
<title>L4YAML.Proofs.ScannerSimpleKey.saveSimpleKey_preserves_wellFormed&#45;&gt;L4YAML.Proofs.ScannerSimpleKey.saveSimpleKey_preserves_sentinel</title>
<path fill="none" stroke="#28a745" stroke-width="2" d="M829.51,-278.91C804.68,-261.15 769.33,-235.86 744.5,-218.1"/>
<polygon fill="#28a745" stroke="#28a745" stroke-width="2" points="745.86,-216.06 738.74,-213.98 743.01,-220.04 745.86,-216.06"/>
<text text-anchor="middle" x="814" y="-254.6" font-family="Times-Roman" font-size="8.00">uses</text>
</g>
<!-- L4YAML.Proofs.ScannerSimpleKey.saveSimpleKey_preserves_wellFormed&#45;&gt;L4YAML.Scanner.ScannerState.WellFormed._proof_2 -->
<g id="edge8" class="edge">
<title>L4YAML.Proofs.ScannerSimpleKey.saveSimpleKey_preserves_wellFormed&#45;&gt;L4YAML.Scanner.ScannerState.WellFormed._proof_2</title>
<path fill="none" stroke="#28a745" stroke-width="2" d="M682.17,-299.16C554.06,-294.98 377.64,-281.84 227,-244 201.92,-237.7 175.21,-226.41 154.39,-216.47"/>
<polygon fill="#28a745" stroke="#28a745" stroke-width="2" points="155.22,-214.15 147.85,-213.3 153.08,-218.56 155.22,-214.15"/>
<text text-anchor="middle" x="304" y="-254.6" font-family="Times-Roman" font-size="8.00">uses</text>
</g>
<!-- L4YAML.Proofs.ScannerSimpleKey.saveSimpleKey_preserves_wellFormed&#45;&gt;L4YAML.Proofs.ScannerSimpleKey.saveSimpleKey_preserves_monotone -->
<g id="edge3" class="edge">
<title>L4YAML.Proofs.ScannerSimpleKey.saveSimpleKey_preserves_wellFormed&#45;&gt;L4YAML.Proofs.ScannerSimpleKey.saveSimpleKey_preserves_monotone</title>
<path fill="none" stroke="#28a745" stroke-width="2" d="M751.56,-282.7C693.4,-272.69 620.45,-259.1 556,-244 520.41,-235.66 481.03,-224.52 449.66,-215.17"/>
<polygon fill="#28a745" stroke="#28a745" stroke-width="2" points="450.1,-212.75 442.69,-213.09 448.69,-217.44 450.1,-212.75"/>
<text text-anchor="middle" x="640" y="-254.6" font-family="Times-Roman" font-size="8.00">uses</text>
</g>
<!-- L4YAML.Proofs.ScannerSimpleKey.saveSimpleKey_preserves_sk_sync -->
<g id="node15" class="node">
<title>L4YAML.Proofs.ScannerSimpleKey.saveSimpleKey_preserves_sk_sync</title>
<g id="a_node15"><a xlink:href="../../../api/L4YAML/Proofs/Scanner/ScannerSimpleKey.html#L4YAML.Proofs.ScannerSimpleKey.saveSimpleKey_preserves_sk_sync" xlink:title="ScannerSimpleKey.saveSimpleKey_preserves_sk_sync" target="_blank">
<ellipse fill="#d4edda" stroke="#28a745" cx="1034" cy="-196" rx="151.07" ry="18"/>
<text text-anchor="middle" x="1034" y="-193.5" font-family="Helvetica" font-size="10.00">ScannerSimpleKey.saveSimpleKey_preserves_sk_sync</text>
</a>
</g>
</g>
<!-- L4YAML.Proofs.ScannerSimpleKey.saveSimpleKey_preserves_wellFormed&#45;&gt;L4YAML.Proofs.ScannerSimpleKey.saveSimpleKey_preserves_sk_sync -->
<g id="edge22" class="edge">
<title>L4YAML.Proofs.ScannerSimpleKey.saveSimpleKey_preserves_wellFormed&#45;&gt;L4YAML.Proofs.ScannerSimpleKey.saveSimpleKey_preserves_sk_sync</title>
<path fill="none" stroke="#28a745" stroke-width="2" d="M894.84,-278.91C925.36,-260.94 968.96,-235.28 999.19,-217.49"/>
<polygon fill="#28a745" stroke="#28a745" stroke-width="2" points="1000.64,-219.48 1005.43,-213.82 998.16,-215.25 1000.64,-219.48"/>
<text text-anchor="middle" x="946" y="-254.6" font-family="Times-Roman" font-size="8.00">uses</text>
</g>
<!-- L4YAML.Proofs.ScannerSimpleKey.saveSimpleKey_preserves_sk_sync&#45;&gt;L4YAML.Scanner.ScannerState.simpleKeyStack -->
<g id="edge23" class="edge">
<title>L4YAML.Proofs.ScannerSimpleKey.saveSimpleKey_preserves_sk_sync&#45;&gt;L4YAML.Scanner.ScannerState.simpleKeyStack</title>
<path fill="none" stroke="#6f42c1" stroke-width="2" stroke-dasharray="5,2" d="M1062.57,-178.15C1080.68,-168.37 1104.95,-156.85 1128,-151 1258.32,-117.91 1296.69,-150.53 1430,-133 1430.43,-132.94 1430.87,-132.89 1431.3,-132.83"/>
<polygon fill="#6f42c1" stroke="#6f42c1" stroke-width="2" points="1431.85,-135.22 1438.43,-131.8 1431.15,-130.37 1431.85,-135.22"/>
<text text-anchor="middle" x="1140.5" y="-153.6" font-family="Times-Roman" font-size="8.00" fill="#6f42c1">about</text>
</g>
<!-- L4YAML.Scanner.ScannerState.WellFormed._proof_1&#45;&gt;L4YAML.Scanner.ScannerState -->
<g id="edge11" class="edge">
<title>L4YAML.Scanner.ScannerState.WellFormed._proof_1&#45;&gt;L4YAML.Scanner.ScannerState</title>
<path fill="none" stroke="#6f42c1" stroke-width="2" stroke-dasharray="5,2" d="M303.29,-103.84C343.84,-98.88 394,-93.12 439,-89 728.99,-62.47 1078.65,-43.52 1201.6,-37.25"/>
<polygon fill="#6f42c1" stroke="#6f42c1" stroke-width="2" points="1201.81,-39.69 1208.67,-36.89 1201.56,-34.8 1201.81,-39.69"/>
<text text-anchor="middle" x="672.5" y="-72.6" font-family="Times-Roman" font-size="8.00" fill="#6f42c1">about</text>
</g>
</g>
</svg>
