<?xml version="1.0" encoding="UTF-8" standalone="no"?>
<!DOCTYPE svg PUBLIC "-//W3C//DTD SVG 1.1//EN"
 "http://www.w3.org/Graphics/SVG/1.1/DTD/svg11.dtd">
<!-- Generated by graphviz version 2.44.0 (0)
 -->
<!-- Title: chain_ScalarProduction.scNbCommentText_irrefl Pages: 1 -->
<svg width="418pt" height="98pt"
 viewBox="0.00 0.00 418.00 97.92" xmlns="http://www.w3.org/2000/svg" xmlns:xlink="http://www.w3.org/1999/xlink">
<g id="graph0" class="graph" transform="scale(1 1) rotate(0) translate(4 93.92)">
<title>chain_ScalarProduction.scNbCommentText_irrefl</title>
<polygon fill="white" stroke="transparent" points="-4,4 -4,-93.92 414,-93.92 414,4 -4,4"/>
<text text-anchor="middle" x="205" y="-75.52" font-family="Helvetica Bold" font-size="13.00">Functorial Chains: ScalarProduction.scNbCommentText_irrefl</text>
<text text-anchor="middle" x="205" y="-61.52" font-family="Helvetica Bold" font-size="13.00">(heuristic: used by 7 proofs)</text>
<!-- L4YAML.Proofs.ScalarProduction.scNbCommentText_irrefl -->
<g id="node1" class="node">
<title>L4YAML.Proofs.ScalarProduction.scNbCommentText_irrefl</title>
<polygon fill="#fff3cd" stroke="black" points="360.24,-17.46 360.24,-36.46 269.3,-49.89 140.7,-49.89 49.76,-36.46 49.76,-17.46 140.7,-4.03 269.3,-4.03 360.24,-17.46"/>
<polygon fill="none" stroke="black" points="364.24,-14.02 364.24,-39.91 269.6,-53.88 140.4,-53.88 45.76,-39.91 45.76,-14.02 140.4,-0.04 269.6,-0.04 364.24,-14.02"/>
<text text-anchor="middle" x="205" y="-29.96" font-family="Helvetica" font-size="10.00">ScalarProduction.scNbCommentText_irrefl</text>
<text text-anchor="middle" x="205" y="-18.96" font-family="Helvetica" font-size="10.00">(no functorial chains found)</text>
</g>
</g>
</svg>
