<?xml version="1.0" encoding="UTF-8" standalone="no"?>
<!DOCTYPE svg PUBLIC "-//W3C//DTD SVG 1.1//EN"
 "http://www.w3.org/Graphics/SVG/1.1/DTD/svg11.dtd">
<!-- Generated by graphviz version 2.44.0 (0)
 -->
<!-- Title: collectAnchorNameLoop.eq_def Pages: 1 -->
<svg width="664pt" height="580pt"
 viewBox="0.00 0.00 663.72 580.00" xmlns="http://www.w3.org/2000/svg" xmlns:xlink="http://www.w3.org/1999/xlink">
<g id="graph0" class="graph" transform="scale(1 1) rotate(0) translate(4 576)">
<title>collectAnchorNameLoop.eq_def</title>
<polygon fill="white" stroke="transparent" points="-4,4 -4,-576 659.72,-576 659.72,4 -4,4"/>
<text text-anchor="middle" x="327.86" y="-557.6" font-family="Helvetica Bold" font-size="13.00">collectAnchorNameLoop.eq_def</text>
<text text-anchor="middle" x="327.86" y="-543.6" font-family="Helvetica Bold" font-size="13.00">(heuristic: used by 8 proofs)</text>
<text text-anchor="middle" x="327.86" y="-529.6" font-family="Helvetica Bold" font-size="13.00">(L4YAML.Proofs.Coupling.StructureCoupling)</text>
<g id="clust1" class="cluster">
<title>cluster_functions</title>
<polygon fill="none" stroke="#4a90d9" stroke-dasharray="5,2" points="458.72,-8 458.72,-514 647.72,-514 647.72,-8 458.72,-8"/>
<text text-anchor="middle" x="553.22" y="-499.6" font-family="Helvetica Bold" font-size="13.00" fill="#4a90d9">Functions</text>
</g>
<g id="clust2" class="cluster">
<title>cluster_key</title>
<polygon fill="none" stroke="#d4a017" stroke-dasharray="5,2" points="139.19,-220 139.19,-302 413.72,-302 413.72,-220 139.19,-220"/>
<text text-anchor="middle" x="276.45" y="-287.6" font-family="Helvetica Bold" font-size="13.00" fill="#d4a017">Key Theorem</text>
</g>
<g id="clust4" class="cluster">
<title>cluster_stdlib</title>
<polygon fill="none" stroke="#e67e22" stroke-dasharray="5,2" points="8,-224 8,-298 118.19,-298 118.19,-224 8,-224"/>
<text text-anchor="middle" x="63.09" y="-283.6" font-family="Helvetica Bold" font-size="13.00" fill="#e67e22">Stdlib Lemmas</text>
</g>
<!-- L4YAML.CharPredicates.isLineBreakBool -->
<g id="node1" class="node">
<title>L4YAML.CharPredicates.isLineBreakBool</title>
<g id="a_node1"><a xlink:href="../../../api/L4YAML/Spec/CharPredicates.html#L4YAML.CharPredicates.isLineBreakBool" xlink:title="CharPredicates.isLineBreakBool\n(def)" target="_blank">
<polygon fill="#dce9f7" stroke="#4a90d9" points="632.22,-484 474.22,-484 474.22,-448 632.22,-448 632.22,-484"/>
<text text-anchor="middle" x="553.22" y="-469" font-family="Helvetica" font-size="10.00">CharPredicates.isLineBreakBool</text>
<text text-anchor="middle" x="553.22" y="-458" font-family="Helvetica" font-size="10.00">(def)</text>
</a>
</g>
</g>
<!-- L4YAML.Scanner.ScannerState.advance -->
<g id="node2" class="node">
<title>L4YAML.Scanner.ScannerState.advance</title>
<g id="a_node2"><a xlink:href="../../../api/L4YAML/Scanner/State.html#L4YAML.Scanner.ScannerState.advance" xlink:title="ScannerState.advance\n(def)" target="_blank">
<polygon fill="#dce9f7" stroke="#4a90d9" points="610.72,-430 495.72,-430 495.72,-394 610.72,-394 610.72,-430"/>
<text text-anchor="middle" x="553.22" y="-415" font-family="Helvetica" font-size="10.00">ScannerState.advance</text>
<text text-anchor="middle" x="553.22" y="-404" font-family="Helvetica" font-size="10.00">(def)</text>
</a>
</g>
</g>
<!-- L4YAML.Scanner.ScannerState.peek? -->
<g id="node3" class="node">
<title>L4YAML.Scanner.ScannerState.peek?</title>
<g id="a_node3"><a xlink:href="../../../api/L4YAML/Scanner/State.html#L4YAML.Scanner.ScannerState.peek?" xlink:title="ScannerState.peek?\n(def)" target="_blank">
<polygon fill="#dce9f7" stroke="#4a90d9" points="605.22,-376 501.22,-376 501.22,-340 605.22,-340 605.22,-376"/>
<text text-anchor="middle" x="553.22" y="-361" font-family="Helvetica" font-size="10.00">ScannerState.peek?</text>
<text text-anchor="middle" x="553.22" y="-350" font-family="Helvetica" font-size="10.00">(def)</text>
</a>
</g>
</g>
<!-- L4YAML.Scanner.collectAnchorNameLoop -->
<g id="node4" class="node">
<title>L4YAML.Scanner.collectAnchorNameLoop</title>
<g id="a_node4"><a xlink:href="../../../api/L4YAML/Scanner/NodeProperties.html#L4YAML.Scanner.collectAnchorNameLoop" xlink:title="collectAnchorNameLoop\n(def)" target="_blank">
<polygon fill="#dce9f7" stroke="#4a90d9" points="614.72,-322 491.72,-322 491.72,-286 614.72,-286 614.72,-322"/>
<text text-anchor="middle" x="553.22" y="-307" font-family="Helvetica" font-size="10.00">collectAnchorNameLoop</text>
<text text-anchor="middle" x="553.22" y="-296" font-family="Helvetica" font-size="10.00">(def)</text>
</a>
</g>
</g>
<!-- L4YAML.Scanner.ScannerState -->
<g id="node5" class="node">
<title>L4YAML.Scanner.ScannerState</title>
<g id="a_node5"><a xlink:href="../../../api/L4YAML/Scanner/State.html#L4YAML.Scanner.ScannerState" xlink:title="ScannerState\n(inductive)" target="_blank">
<polygon fill="#dce9f7" stroke="#4a90d9" points="591.22,-268 515.22,-268 515.22,-232 591.22,-232 591.22,-268"/>
<text text-anchor="middle" x="553.22" y="-253" font-family="Helvetica" font-size="10.00">ScannerState</text>
<text text-anchor="middle" x="553.22" y="-242" font-family="Helvetica" font-size="10.00">(inductive)</text>
</a>
</g>
</g>
<!-- L4YAML.Scanner.collectAnchorNameLoop.match_1 -->
<g id="node6" class="node">
<title>L4YAML.Scanner.collectAnchorNameLoop.match_1</title>
<g id="a_node6"><a xlink:href="../../../api/L4YAML/Scanner/NodeProperties.html#L4YAML.Scanner.collectAnchorNameLoop.match_1" xlink:title="collectAnchorNameLoop.match_1\n(def)" target="_blank">
<polygon fill="#dce9f7" stroke="#4a90d9" points="635.22,-214 471.22,-214 471.22,-178 635.22,-178 635.22,-214"/>
<text text-anchor="middle" x="553.22" y="-199" font-family="Helvetica" font-size="10.00">collectAnchorNameLoop.match_1</text>
<text text-anchor="middle" x="553.22" y="-188" font-family="Helvetica" font-size="10.00">(def)</text>
</a>
</g>
</g>
<!-- L4YAML.Scanner.collectAnchorNameLoop.match_3 -->
<g id="node7" class="node">
<title>L4YAML.Scanner.collectAnchorNameLoop.match_3</title>
<g id="a_node7"><a xlink:href="../../../api/L4YAML/Scanner/NodeProperties.html#L4YAML.Scanner.collectAnchorNameLoop.match_3" xlink:title="collectAnchorNameLoop.match_3\n(def)" target="_blank">
<polygon fill="#dce9f7" stroke="#4a90d9" points="635.22,-160 471.22,-160 471.22,-124 635.22,-124 635.22,-160"/>
<text text-anchor="middle" x="553.22" y="-145" font-family="Helvetica" font-size="10.00">collectAnchorNameLoop.match_3</text>
<text text-anchor="middle" x="553.22" y="-134" font-family="Helvetica" font-size="10.00">(def)</text>
</a>
</g>
</g>
<!-- L4YAML.CharPredicates.isFlowIndicatorBool -->
<g id="node8" class="node">
<title>L4YAML.CharPredicates.isFlowIndicatorBool</title>
<g id="a_node8"><a xlink:href="../../../api/L4YAML/Spec/CharPredicates.html#L4YAML.CharPredicates.isFlowIndicatorBool" xlink:title="CharPredicates.isFlowIndicatorBool\n(def)" target="_blank">
<polygon fill="#dce9f7" stroke="#4a90d9" points="639.72,-106 466.72,-106 466.72,-70 639.72,-70 639.72,-106"/>
<text text-anchor="middle" x="553.22" y="-91" font-family="Helvetica" font-size="10.00">CharPredicates.isFlowIndicatorBool</text>
<text text-anchor="middle" x="553.22" y="-80" font-family="Helvetica" font-size="10.00">(def)</text>
</a>
</g>
</g>
<!-- L4YAML.CharPredicates.isWhiteSpaceBool -->
<g id="node9" class="node">
<title>L4YAML.CharPredicates.isWhiteSpaceBool</title>
<g id="a_node9"><a xlink:href="../../../api/L4YAML/Spec/CharPredicates.html#L4YAML.CharPredicates.isWhiteSpaceBool" xlink:title="CharPredicates.isWhiteSpaceBool\n(def)" target="_blank">
<polygon fill="#dce9f7" stroke="#4a90d9" points="636.72,-52 469.72,-52 469.72,-16 636.72,-16 636.72,-52"/>
<text text-anchor="middle" x="553.22" y="-37" font-family="Helvetica" font-size="10.00">CharPredicates.isWhiteSpaceBool</text>
<text text-anchor="middle" x="553.22" y="-26" font-family="Helvetica" font-size="10.00">(def)</text>
</a>
</g>
</g>
<!-- L4YAML.Scanner.collectAnchorNameLoop.eq_def -->
<g id="node10" class="node">
<title>L4YAML.Scanner.collectAnchorNameLoop.eq_def</title>
<g id="a_node10"><a xlink:href="../../../api/L4YAML/Proofs/Coupling/StructureCoupling.html#L4YAML.Scanner.collectAnchorNameLoop.eq_def" xlink:title="collectAnchorNameLoop.eq_def" target="_blank">
<polygon fill="#fff3cd" stroke="#d4a017" points="401.49,-242.54 401.49,-257.46 328.24,-268 224.66,-268 151.41,-257.46 151.41,-242.54 224.66,-232 328.24,-232 401.49,-242.54"/>
<polygon fill="none" stroke="#d4a017" points="405.48,-239.08 405.48,-260.92 328.53,-272 224.37,-272 147.42,-260.92 147.42,-239.08 224.37,-228 328.53,-228 405.48,-239.08"/>
<text text-anchor="middle" x="276.45" y="-246.9" font-family="Helvetica" font-size="12.00">collectAnchorNameLoop.eq_def</text>
</a>
</g>
</g>
<!-- L4YAML.Scanner.collectAnchorNameLoop.eq_def&#45;&gt;L4YAML.CharPredicates.isLineBreakBool -->
<g id="edge5" class="edge">
<title>L4YAML.Scanner.collectAnchorNameLoop.eq_def&#45;&gt;L4YAML.CharPredicates.isLineBreakBool</title>
<path fill="none" stroke="#4a90d9" stroke-width="2" d="M292.64,-272.3C320.75,-311.85 384.79,-394.31 458.72,-439 462.24,-441.13 465.93,-443.09 469.74,-444.91"/>
<polygon fill="#4a90d9" stroke="#4a90d9" stroke-width="2" points="468.85,-447.2 476.24,-447.83 470.86,-442.73 468.85,-447.2"/>
<text text-anchor="middle" x="436.22" y="-433.6" font-family="Times-Roman" font-size="8.00" fill="#4a90d9">about</text>
</g>
<!-- L4YAML.Scanner.collectAnchorNameLoop.eq_def&#45;&gt;L4YAML.Scanner.ScannerState.advance -->
<g id="edge1" class="edge">
<title>L4YAML.Scanner.collectAnchorNameLoop.eq_def&#45;&gt;L4YAML.Scanner.ScannerState.advance</title>
<path fill="none" stroke="#4a90d9" stroke-width="2" d="M301.09,-272.06C334.02,-301.71 396.68,-354.21 458.72,-385 468.15,-389.68 478.54,-393.69 488.85,-397.06"/>
<polygon fill="#4a90d9" stroke="#4a90d9" stroke-width="2" points="488.19,-399.42 495.61,-399.19 489.67,-394.75 488.19,-399.42"/>
<text text-anchor="middle" x="436.22" y="-381.6" font-family="Times-Roman" font-size="8.00" fill="#4a90d9">about</text>
</g>
<!-- L4YAML.Scanner.collectAnchorNameLoop.eq_def&#45;&gt;L4YAML.Scanner.ScannerState.peek? -->
<g id="edge9" class="edge">
<title>L4YAML.Scanner.collectAnchorNameLoop.eq_def&#45;&gt;L4YAML.Scanner.ScannerState.peek?</title>
<path fill="none" stroke="#4a90d9" stroke-width="2" d="M322.17,-272.08C358.43,-289.47 411.13,-313.59 458.72,-331 469.99,-335.12 482.21,-339.04 493.98,-342.54"/>
<polygon fill="#4a90d9" stroke="#4a90d9" stroke-width="2" points="493.44,-344.94 500.85,-344.56 494.82,-340.24 493.44,-344.94"/>
<text text-anchor="middle" x="436.22" y="-329.6" font-family="Times-Roman" font-size="8.00" fill="#4a90d9">about</text>
</g>
<!-- L4YAML.Scanner.collectAnchorNameLoop.eq_def&#45;&gt;L4YAML.Scanner.collectAnchorNameLoop -->
<g id="edge8" class="edge">
<title>L4YAML.Scanner.collectAnchorNameLoop.eq_def&#45;&gt;L4YAML.Scanner.collectAnchorNameLoop</title>
<path fill="none" stroke="#4a90d9" stroke-width="2" d="M364.01,-267.01C402.8,-274.63 447.87,-283.49 484.19,-290.63"/>
<polygon fill="#4a90d9" stroke="#4a90d9" stroke-width="2" points="483.99,-293.09 491.33,-292.03 484.93,-288.28 483.99,-293.09"/>
<text text-anchor="middle" x="436.22" y="-285.6" font-family="Times-Roman" font-size="8.00" fill="#4a90d9">about</text>
</g>
<!-- L4YAML.Scanner.collectAnchorNameLoop.eq_def&#45;&gt;L4YAML.Scanner.ScannerState -->
<g id="edge6" class="edge">
<title>L4YAML.Scanner.collectAnchorNameLoop.eq_def&#45;&gt;L4YAML.Scanner.ScannerState</title>
<path fill="none" stroke="#4a90d9" stroke-width="2" d="M405.58,-250C442.31,-250 479.93,-250 507.87,-250"/>
<polygon fill="#4a90d9" stroke="#4a90d9" stroke-width="2" points="508.12,-252.45 515.12,-250 508.12,-247.55 508.12,-252.45"/>
<text text-anchor="middle" x="436.22" y="-252.6" font-family="Times-Roman" font-size="8.00" fill="#4a90d9">about</text>
</g>
<!-- L4YAML.Scanner.collectAnchorNameLoop.eq_def&#45;&gt;L4YAML.Scanner.collectAnchorNameLoop.match_1 -->
<g id="edge2" class="edge">
<title>L4YAML.Scanner.collectAnchorNameLoop.eq_def&#45;&gt;L4YAML.Scanner.collectAnchorNameLoop.match_1</title>
<path fill="none" stroke="#4a90d9" stroke-width="2" d="M364.01,-232.99C395.75,-226.75 431.69,-219.69 463.61,-213.42"/>
<polygon fill="#4a90d9" stroke="#4a90d9" stroke-width="2" points="464.38,-215.76 470.77,-212.01 463.43,-210.95 464.38,-215.76"/>
<text text-anchor="middle" x="436.22" y="-221.6" font-family="Times-Roman" font-size="8.00" fill="#4a90d9">about</text>
</g>
<!-- L4YAML.Scanner.collectAnchorNameLoop.eq_def&#45;&gt;L4YAML.Scanner.collectAnchorNameLoop.match_3 -->
<g id="edge3" class="edge">
<title>L4YAML.Scanner.collectAnchorNameLoop.eq_def&#45;&gt;L4YAML.Scanner.collectAnchorNameLoop.match_3</title>
<path fill="none" stroke="#4a90d9" stroke-width="2" d="M322.17,-227.92C358.43,-210.53 411.13,-186.41 458.72,-169 465.14,-166.65 471.88,-164.37 478.66,-162.19"/>
<polygon fill="#4a90d9" stroke="#4a90d9" stroke-width="2" points="479.51,-164.49 485.45,-160.05 478.03,-159.82 479.51,-164.49"/>
<text text-anchor="middle" x="436.22" y="-182.6" font-family="Times-Roman" font-size="8.00" fill="#4a90d9">about</text>
</g>
<!-- L4YAML.Scanner.collectAnchorNameLoop.eq_def&#45;&gt;L4YAML.CharPredicates.isFlowIndicatorBool -->
<g id="edge4" class="edge">
<title>L4YAML.Scanner.collectAnchorNameLoop.eq_def&#45;&gt;L4YAML.CharPredicates.isFlowIndicatorBool</title>
<path fill="none" stroke="#4a90d9" stroke-width="2" d="M301.09,-227.94C334.02,-198.29 396.68,-145.79 458.72,-115 463.3,-112.73 468.1,-110.62 473.01,-108.66"/>
<polygon fill="#4a90d9" stroke="#4a90d9" stroke-width="2" points="474.09,-110.87 479.75,-106.08 472.34,-106.29 474.09,-110.87"/>
<text text-anchor="middle" x="436.22" y="-134.6" font-family="Times-Roman" font-size="8.00" fill="#4a90d9">about</text>
</g>
<!-- L4YAML.Scanner.collectAnchorNameLoop.eq_def&#45;&gt;L4YAML.CharPredicates.isWhiteSpaceBool -->
<g id="edge7" class="edge">
<title>L4YAML.Scanner.collectAnchorNameLoop.eq_def&#45;&gt;L4YAML.CharPredicates.isWhiteSpaceBool</title>
<path fill="none" stroke="#4a90d9" stroke-width="2" d="M292.64,-227.7C320.75,-188.15 384.79,-105.69 458.72,-61 462.24,-58.87 465.93,-56.91 469.74,-55.09"/>
<polygon fill="#4a90d9" stroke="#4a90d9" stroke-width="2" points="470.86,-57.27 476.24,-52.17 468.85,-52.8 470.86,-57.27"/>
<text text-anchor="middle" x="436.22" y="-87.6" font-family="Times-Roman" font-size="8.00" fill="#4a90d9">about</text>
</g>
<!-- Nat.brecOn.eq -->
<g id="node11" class="node">
<title>Nat.brecOn.eq</title>
<g id="a_node11"><a xlink:href="../../../api/Init/Prelude.html#Nat.brecOn.eq" xlink:title="Nat.brecOn.eq" target="_blank">
<ellipse fill="#fdebd0" stroke="#e67e22" cx="63.09" cy="-250" rx="47.19" ry="18"/>
<text text-anchor="middle" x="63.09" y="-247.5" font-family="Helvetica" font-size="10.00">Nat.brecOn.eq</text>
</a>
</g>
</g>
<!-- Nat.brecOn.eq&#45;&gt;L4YAML.Scanner.collectAnchorNameLoop.eq_def -->
<g id="edge10" class="edge">
<title>Nat.brecOn.eq&#45;&gt;L4YAML.Scanner.collectAnchorNameLoop.eq_def</title>
<path fill="none" stroke="#e67e22" stroke-width="2" d="M110.22,-250C119.48,-250 129.66,-250 140.26,-250"/>
<polygon fill="#e67e22" stroke="#e67e22" stroke-width="2" points="140.29,-252.45 147.29,-250 140.29,-247.55 140.29,-252.45"/>
</g>
</g>
</svg>
