<?xml version="1.0" encoding="UTF-8" standalone="no"?>
<!DOCTYPE svg PUBLIC "-//W3C//DTD SVG 1.1//EN"
 "http://www.w3.org/Graphics/SVG/1.1/DTD/svg11.dtd">
<!-- Generated by graphviz version 2.44.0 (0)
 -->
<!-- Title: chain_ScannerBound.BoundInv.input_eq Pages: 1 -->
<svg width="901pt" height="201pt"
 viewBox="0.00 0.00 901.00 200.92" xmlns="http://www.w3.org/2000/svg" xmlns:xlink="http://www.w3.org/1999/xlink">
<g id="graph0" class="graph" transform="scale(1 1) rotate(0) translate(4 196.92)">
<title>chain_ScannerBound.BoundInv.input_eq</title>
<polygon fill="white" stroke="transparent" points="-4,4 -4,-196.92 897,-196.92 897,4 -4,4"/>
<text text-anchor="middle" x="446.5" y="-178.52" font-family="Helvetica Bold" font-size="13.00">Structural theorem: ScannerBound.BoundInv.input_eq\nProof is a witness / injection — no fibration depth\n(heuristic: used by 29 proofs)</text>
<g id="clust1" class="cluster">
<title>cluster_direct</title>
<polygon fill="none" stroke="#4a90d9" stroke-dasharray="5,2" points="269.5,-8 269.5,-82 623.5,-82 623.5,-8 269.5,-8"/>
<text text-anchor="middle" x="446.5" y="-67.6" font-family="Helvetica Bold" font-size="13.00" fill="#4a90d9">About (no chain extends — proof is structural)</text>
</g>
<!-- L4YAML.Proofs.ScannerBound.BoundInv.input_eq -->
<g id="node1" class="node">
<title>L4YAML.Proofs.ScannerBound.BoundInv.input_eq</title>
<polygon fill="#fff3cd" stroke="#d4a017" points="585.04,-134.46 585.04,-153.46 511.5,-166.89 407.5,-166.89 333.96,-153.46 333.96,-134.46 407.5,-121.03 511.5,-121.03 585.04,-134.46"/>
<polygon fill="none" stroke="#d4a017" points="589.04,-131.13 589.04,-156.79 511.86,-170.88 407.14,-170.88 329.96,-156.79 329.96,-131.13 407.14,-117.04 511.86,-117.04 589.04,-131.13"/>
<text text-anchor="middle" x="459.5" y="-146.96" font-family="Helvetica" font-size="10.00">ScannerBound.BoundInv.input_eq</text>
<text text-anchor="middle" x="459.5" y="-135.96" font-family="Helvetica" font-size="10.00">(structural)</text>
</g>
<!-- L4YAML.Proofs.ScannerBound.BoundInv -->
<g id="node2" class="node">
<title>L4YAML.Proofs.ScannerBound.BoundInv</title>
<g id="a_node2"><a xlink:href="../../../api/L4YAML/Proofs/Scanner/ScannerBound.html#L4YAML.Proofs.ScannerBound.BoundInv" xlink:title="ScannerBound.BoundInv" target="_blank">
<polygon fill="#dce9f7" stroke="#4a90d9" points="403,-52 278,-52 278,-16 403,-16 403,-52"/>
<text text-anchor="middle" x="340.5" y="-31.5" font-family="Helvetica" font-size="10.00">ScannerBound.BoundInv</text>
</a>
</g>
</g>
<!-- L4YAML.Proofs.ScannerBound.BoundInv.input_eq&#45;&gt;L4YAML.Proofs.ScannerBound.BoundInv -->
<g id="edge1" class="edge">
<title>L4YAML.Proofs.ScannerBound.BoundInv.input_eq&#45;&gt;L4YAML.Proofs.ScannerBound.BoundInv</title>
<path fill="none" stroke="#4a90d9" stroke-width="2" d="M430.69,-116.83C410.62,-98.62 384.13,-74.58 365.06,-57.28"/>
<polygon fill="#4a90d9" stroke="#4a90d9" stroke-width="2" points="366.22,-55.03 359.39,-52.14 362.93,-58.66 366.22,-55.03"/>
<text text-anchor="middle" x="424" y="-92.6" font-family="Times-Roman" font-size="8.00" fill="#4a90d9">about</text>
</g>
<!-- L4YAML.Scanner.ScannerState -->
<g id="node3" class="node">
<title>L4YAML.Scanner.ScannerState</title>
<g id="a_node3"><a xlink:href="../../../api/L4YAML/Scanner/State.html#L4YAML.Scanner.ScannerState" xlink:title="ScannerState" target="_blank">
<polygon fill="#dce9f7" stroke="#4a90d9" points="497.5,-52 421.5,-52 421.5,-16 497.5,-16 497.5,-52"/>
<text text-anchor="middle" x="459.5" y="-31.5" font-family="Helvetica" font-size="10.00">ScannerState</text>
</a>
</g>
</g>
<!-- L4YAML.Proofs.ScannerBound.BoundInv.input_eq&#45;&gt;L4YAML.Scanner.ScannerState -->
<g id="edge2" class="edge">
<title>L4YAML.Proofs.ScannerBound.BoundInv.input_eq&#45;&gt;L4YAML.Scanner.ScannerState</title>
<path fill="none" stroke="#4a90d9" stroke-width="2" d="M459.5,-116.83C459.5,-99.4 459.5,-76.64 459.5,-59.55"/>
<polygon fill="#4a90d9" stroke="#4a90d9" stroke-width="2" points="461.95,-59.14 459.5,-52.14 457.05,-59.14 461.95,-59.14"/>
<text text-anchor="middle" x="472" y="-92.6" font-family="Times-Roman" font-size="8.00" fill="#4a90d9">about</text>
</g>
<!-- L4YAML.Scanner.ScannerState.input -->
<g id="node4" class="node">
<title>L4YAML.Scanner.ScannerState.input</title>
<g id="a_node4"><a xlink:href="../../../api/L4YAML/Scanner/State.html#L4YAML.Scanner.ScannerState.input" xlink:title="ScannerState.input" target="_blank">
<polygon fill="#dce9f7" stroke="#4a90d9" points="615.5,-52 515.5,-52 515.5,-16 615.5,-16 615.5,-52"/>
<text text-anchor="middle" x="565.5" y="-31.5" font-family="Helvetica" font-size="10.00">ScannerState.input</text>
</a>
</g>
</g>
<!-- L4YAML.Proofs.ScannerBound.BoundInv.input_eq&#45;&gt;L4YAML.Scanner.ScannerState.input -->
<g id="edge3" class="edge">
<title>L4YAML.Proofs.ScannerBound.BoundInv.input_eq&#45;&gt;L4YAML.Scanner.ScannerState.input</title>
<path fill="none" stroke="#4a90d9" stroke-width="2" d="M485.16,-116.83C503.04,-98.62 526.64,-74.58 543.62,-57.28"/>
<polygon fill="#4a90d9" stroke="#4a90d9" stroke-width="2" points="545.52,-58.85 548.67,-52.14 542.02,-55.42 545.52,-58.85"/>
<text text-anchor="middle" x="521" y="-92.6" font-family="Times-Roman" font-size="8.00" fill="#4a90d9">about</text>
</g>
</g>
</svg>
