<?xml version="1.0" encoding="UTF-8" standalone="no"?>
<!DOCTYPE svg PUBLIC "-//W3C//DTD SVG 1.1//EN"
 "http://www.w3.org/Graphics/SVG/1.1/DTD/svg11.dtd">
<!-- Generated by graphviz version 2.44.0 (0)
 -->
<!-- Title: chain_ScannerBound.BoundInv.isValid Pages: 1 -->
<svg width="887pt" height="201pt"
 viewBox="0.00 0.00 887.00 200.92" xmlns="http://www.w3.org/2000/svg" xmlns:xlink="http://www.w3.org/1999/xlink">
<g id="graph0" class="graph" transform="scale(1 1) rotate(0) translate(4 196.92)">
<title>chain_ScannerBound.BoundInv.isValid</title>
<polygon fill="white" stroke="transparent" points="-4,4 -4,-196.92 883,-196.92 883,4 -4,4"/>
<text text-anchor="middle" x="439.5" y="-178.52" font-family="Helvetica Bold" font-size="13.00">Structural theorem: ScannerBound.BoundInv.isValid\nProof is a witness / injection — no fibration depth\n(heuristic: used by 29 proofs)</text>
<g id="clust1" class="cluster">
<title>cluster_direct</title>
<polygon fill="none" stroke="#4a90d9" stroke-dasharray="5,2" points="202,-8 202,-82 677,-82 677,-8 202,-8"/>
<text text-anchor="middle" x="439.5" y="-67.6" font-family="Helvetica Bold" font-size="13.00" fill="#4a90d9">About (no chain extends — proof is structural)</text>
</g>
<!-- L4YAML.Proofs.ScannerBound.BoundInv.isValid -->
<g id="node1" class="node">
<title>L4YAML.Proofs.ScannerBound.BoundInv.isValid</title>
<polygon fill="#fff3cd" stroke="#d4a017" points="562.76,-134.46 562.76,-153.46 493.19,-166.89 394.81,-166.89 325.24,-153.46 325.24,-134.46 394.81,-121.03 493.19,-121.03 562.76,-134.46"/>
<polygon fill="none" stroke="#d4a017" points="566.76,-131.17 566.76,-156.75 493.58,-170.88 394.42,-170.88 321.24,-156.75 321.24,-131.17 394.42,-117.04 493.58,-117.04 566.76,-131.17"/>
<text text-anchor="middle" x="444" y="-146.96" font-family="Helvetica" font-size="10.00">ScannerBound.BoundInv.isValid</text>
<text text-anchor="middle" x="444" y="-135.96" font-family="Helvetica" font-size="10.00">(structural)</text>
</g>
<!-- L4YAML.Proofs.ScannerBound.BoundInv -->
<g id="node2" class="node">
<title>L4YAML.Proofs.ScannerBound.BoundInv</title>
<g id="a_node2"><a xlink:href="../../../api/L4YAML/Proofs/Scanner/ScannerBound.html#L4YAML.Proofs.ScannerBound.BoundInv" xlink:title="ScannerBound.BoundInv" target="_blank">
<polygon fill="#dce9f7" stroke="#4a90d9" points="335.5,-52 210.5,-52 210.5,-16 335.5,-16 335.5,-52"/>
<text text-anchor="middle" x="273" y="-31.5" font-family="Helvetica" font-size="10.00">ScannerBound.BoundInv</text>
</a>
</g>
</g>
<!-- L4YAML.Proofs.ScannerBound.BoundInv.isValid&#45;&gt;L4YAML.Proofs.ScannerBound.BoundInv -->
<g id="edge1" class="edge">
<title>L4YAML.Proofs.ScannerBound.BoundInv.isValid&#45;&gt;L4YAML.Proofs.ScannerBound.BoundInv</title>
<path fill="none" stroke="#4a90d9" stroke-width="2" d="M400.47,-116.91C382.84,-106.23 362.36,-93.67 344,-82 330.92,-73.69 316.64,-64.3 304.35,-56.11"/>
<polygon fill="#4a90d9" stroke="#4a90d9" stroke-width="2" points="305.67,-54.05 298.48,-52.2 302.95,-58.12 305.67,-54.05"/>
<text text-anchor="middle" x="381.5" y="-92.6" font-family="Times-Roman" font-size="8.00" fill="#4a90d9">about</text>
</g>
<!-- L4YAML.Scanner.ScannerState.offset -->
<g id="node3" class="node">
<title>L4YAML.Scanner.ScannerState.offset</title>
<g id="a_node3"><a xlink:href="../../../api/L4YAML/Scanner/State.html#L4YAML.Scanner.ScannerState.offset" xlink:title="ScannerState.offset" target="_blank">
<polygon fill="#dce9f7" stroke="#4a90d9" points="456.5,-52 353.5,-52 353.5,-16 456.5,-16 456.5,-52"/>
<text text-anchor="middle" x="405" y="-31.5" font-family="Helvetica" font-size="10.00">ScannerState.offset</text>
</a>
</g>
</g>
<!-- L4YAML.Proofs.ScannerBound.BoundInv.isValid&#45;&gt;L4YAML.Scanner.ScannerState.offset -->
<g id="edge2" class="edge">
<title>L4YAML.Proofs.ScannerBound.BoundInv.isValid&#45;&gt;L4YAML.Scanner.ScannerState.offset</title>
<path fill="none" stroke="#4a90d9" stroke-width="2" d="M434.56,-116.83C428.21,-99.24 419.9,-76.23 413.7,-59.09"/>
<polygon fill="#4a90d9" stroke="#4a90d9" stroke-width="2" points="415.87,-57.89 411.19,-52.14 411.27,-59.56 415.87,-57.89"/>
<text text-anchor="middle" x="439.5" y="-92.6" font-family="Times-Roman" font-size="8.00" fill="#4a90d9">about</text>
</g>
<!-- L4YAML.Scanner.ScannerState -->
<g id="node4" class="node">
<title>L4YAML.Scanner.ScannerState</title>
<g id="a_node4"><a xlink:href="../../../api/L4YAML/Scanner/State.html#L4YAML.Scanner.ScannerState" xlink:title="ScannerState" target="_blank">
<polygon fill="#dce9f7" stroke="#4a90d9" points="551,-52 475,-52 475,-16 551,-16 551,-52"/>
<text text-anchor="middle" x="513" y="-31.5" font-family="Helvetica" font-size="10.00">ScannerState</text>
</a>
</g>
</g>
<!-- L4YAML.Proofs.ScannerBound.BoundInv.isValid&#45;&gt;L4YAML.Scanner.ScannerState -->
<g id="edge3" class="edge">
<title>L4YAML.Proofs.ScannerBound.BoundInv.isValid&#45;&gt;L4YAML.Scanner.ScannerState</title>
<path fill="none" stroke="#4a90d9" stroke-width="2" d="M460.7,-116.83C472.14,-98.93 487.17,-75.41 498.18,-58.18"/>
<polygon fill="#4a90d9" stroke="#4a90d9" stroke-width="2" points="500.34,-59.36 502.05,-52.14 496.21,-56.72 500.34,-59.36"/>
<text text-anchor="middle" x="488.5" y="-92.6" font-family="Times-Roman" font-size="8.00" fill="#4a90d9">about</text>
</g>
<!-- L4YAML.Scanner.ScannerState.input -->
<g id="node5" class="node">
<title>L4YAML.Scanner.ScannerState.input</title>
<g id="a_node5"><a xlink:href="../../../api/L4YAML/Scanner/State.html#L4YAML.Scanner.ScannerState.input" xlink:title="ScannerState.input" target="_blank">
<polygon fill="#dce9f7" stroke="#4a90d9" points="669,-52 569,-52 569,-16 669,-16 669,-52"/>
<text text-anchor="middle" x="619" y="-31.5" font-family="Helvetica" font-size="10.00">ScannerState.input</text>
</a>
</g>
</g>
<!-- L4YAML.Proofs.ScannerBound.BoundInv.isValid&#45;&gt;L4YAML.Scanner.ScannerState.input -->
<g id="edge4" class="edge">
<title>L4YAML.Proofs.ScannerBound.BoundInv.isValid&#45;&gt;L4YAML.Scanner.ScannerState.input</title>
<path fill="none" stroke="#4a90d9" stroke-width="2" d="M497.17,-117.69C517.33,-107.42 540.19,-94.93 560,-82 571.66,-74.39 583.81,-65 594.03,-56.61"/>
<polygon fill="#4a90d9" stroke="#4a90d9" stroke-width="2" points="595.68,-58.43 599.5,-52.07 592.55,-54.66 595.68,-58.43"/>
<text text-anchor="middle" x="556.5" y="-92.6" font-family="Times-Roman" font-size="8.00" fill="#4a90d9">about</text>
</g>
</g>
</svg>
