<?xml version="1.0" encoding="UTF-8" standalone="no"?>
<!DOCTYPE svg PUBLIC "-//W3C//DTD SVG 1.1//EN"
 "http://www.w3.org/Graphics/SVG/1.1/DTD/svg11.dtd">
<!-- Generated by graphviz version 2.44.0 (0)
 -->
<!-- Title: chain_CharPredicates.canStartPlainScalar_iff Pages: 1 -->
<svg width="2282pt" height="324pt"
 viewBox="0.00 0.00 2282.00 324.00" xmlns="http://www.w3.org/2000/svg" xmlns:xlink="http://www.w3.org/1999/xlink">
<g id="graph0" class="graph" transform="scale(1 1) rotate(0) translate(4 320)">
<title>chain_CharPredicates.canStartPlainScalar_iff</title>
<polygon fill="white" stroke="transparent" points="-4,4 -4,-320 2278,-320 2278,4 -4,4"/>
<text text-anchor="middle" x="1137" y="-301.6" font-family="Helvetica Bold" font-size="13.00">Functorial Chains: CharPredicates.canStartPlainScalar_iff</text>
<text text-anchor="middle" x="1137" y="-287.6" font-family="Helvetica Bold" font-size="13.00">(heuristic: used by 7 proofs)</text>
<g id="clust1" class="cluster">
<title>cluster_fns</title>
<polygon fill="none" stroke="#4a90d9" stroke-dasharray="5,2" points="820,-8 820,-163 2266,-163 2266,-8 820,-8"/>
<text text-anchor="middle" x="1543" y="-148.6" font-family="Helvetica Bold" font-size="13.00" fill="#4a90d9">Functions (Call Chain)</text>
</g>
<g id="clust2" class="cluster">
<title>cluster_thms</title>
<polygon fill="none" stroke="#28a745" stroke-dasharray="5,2" points="8,-89 8,-272 812,-272 812,-89 8,-89"/>
<text text-anchor="middle" x="410" y="-257.6" font-family="Helvetica Bold" font-size="13.00" fill="#28a745">Theorems (Proof Chain)</text>
</g>
<!-- L4YAML.CharPredicates.isLineBreakBool -->
<g id="node1" class="node">
<title>L4YAML.CharPredicates.isLineBreakBool</title>
<g id="a_node1"><a xlink:href="../../../api/L4YAML/Spec/CharPredicates.html#L4YAML.CharPredicates.isLineBreakBool" xlink:title="CharPredicates.isLineBreakBool" target="_blank">
<polygon fill="#dce9f7" stroke="#4a90d9" points="1710,-52 1552,-52 1552,-16 1710,-16 1710,-52"/>
<text text-anchor="middle" x="1631" y="-31.5" font-family="Helvetica" font-size="10.00">CharPredicates.isLineBreakBool</text>
</a>
</g>
</g>
<!-- L4YAML.CharPredicates.isLineBreakProp -->
<g id="node2" class="node">
<title>L4YAML.CharPredicates.isLineBreakProp</title>
<g id="a_node2"><a xlink:href="../../../api/L4YAML/Spec/CharPredicates.html#L4YAML.CharPredicates.isLineBreakProp" xlink:title="CharPredicates.isLineBreakProp" target="_blank">
<polygon fill="#dce9f7" stroke="#4a90d9" points="1886,-52 1728,-52 1728,-16 1886,-16 1886,-52"/>
<text text-anchor="middle" x="1807" y="-31.5" font-family="Helvetica" font-size="10.00">CharPredicates.isLineBreakProp</text>
</a>
</g>
</g>
<!-- L4YAML.CharPredicates.canStartPlainScalarBool -->
<g id="node3" class="node">
<title>L4YAML.CharPredicates.canStartPlainScalarBool</title>
<g id="a_node3"><a xlink:href="../../../api/L4YAML/Spec/CharPredicates.html#L4YAML.CharPredicates.canStartPlainScalarBool" xlink:title="CharPredicates.canStartPlainScalarBool" target="_blank">
<polygon fill="#dce9f7" stroke="#4a90d9" points="1182,-133 988,-133 988,-97 1182,-97 1182,-133"/>
<text text-anchor="middle" x="1085" y="-112.5" font-family="Helvetica" font-size="10.00">CharPredicates.canStartPlainScalarBool</text>
</a>
</g>
</g>
<!-- L4YAML.CharPredicates.canStartPlainScalarBool&#45;&gt;L4YAML.CharPredicates.isLineBreakBool -->
<g id="edge6" class="edge">
<title>L4YAML.CharPredicates.canStartPlainScalarBool&#45;&gt;L4YAML.CharPredicates.isLineBreakBool</title>
<path fill="none" stroke="#4a90d9" stroke-width="2" d="M1133.97,-96.92C1163.68,-87.31 1202.58,-76.06 1238,-70 1371.85,-47.1 1408.27,-68.91 1543,-52 1543.64,-51.92 1544.29,-51.84 1544.93,-51.75"/>
<polygon fill="#4a90d9" stroke="#4a90d9" stroke-width="2" points="1545.33,-54.17 1551.92,-50.79 1544.66,-49.32 1545.33,-54.17"/>
<text text-anchor="middle" x="1247.5" y="-72.6" font-family="Times-Roman" font-size="8.00">calls</text>
</g>
<!-- L4YAML.CharPredicates.isIndicatorBool -->
<g id="node8" class="node">
<title>L4YAML.CharPredicates.isIndicatorBool</title>
<g id="a_node8"><a xlink:href="../../../api/L4YAML/Spec/CharPredicates.html#L4YAML.CharPredicates.isIndicatorBool" xlink:title="CharPredicates.isIndicatorBool" target="_blank">
<polygon fill="#dce9f7" stroke="#4a90d9" points="980,-52 828,-52 828,-16 980,-16 980,-52"/>
<text text-anchor="middle" x="904" y="-31.5" font-family="Helvetica" font-size="10.00">CharPredicates.isIndicatorBool</text>
</a>
</g>
</g>
<!-- L4YAML.CharPredicates.canStartPlainScalarBool&#45;&gt;L4YAML.CharPredicates.isIndicatorBool -->
<g id="edge15" class="edge">
<title>L4YAML.CharPredicates.canStartPlainScalarBool&#45;&gt;L4YAML.CharPredicates.isIndicatorBool</title>
<path fill="none" stroke="#4a90d9" stroke-width="2" d="M1045.73,-96.86C1017.5,-84.54 979.36,-67.89 949.76,-54.97"/>
<polygon fill="#4a90d9" stroke="#4a90d9" stroke-width="2" points="950.59,-52.66 943.2,-52.11 948.63,-57.15 950.59,-52.66"/>
<text text-anchor="middle" x="1008.5" y="-72.6" font-family="Times-Roman" font-size="8.00">calls</text>
</g>
<!-- L4YAML.CharPredicates.isFlowIndicatorBool -->
<g id="node9" class="node">
<title>L4YAML.CharPredicates.isFlowIndicatorBool</title>
<g id="a_node9"><a xlink:href="../../../api/L4YAML/Spec/CharPredicates.html#L4YAML.CharPredicates.isFlowIndicatorBool" xlink:title="CharPredicates.isFlowIndicatorBool" target="_blank">
<polygon fill="#dce9f7" stroke="#4a90d9" points="1171.5,-52 998.5,-52 998.5,-16 1171.5,-16 1171.5,-52"/>
<text text-anchor="middle" x="1085" y="-31.5" font-family="Helvetica" font-size="10.00">CharPredicates.isFlowIndicatorBool</text>
</a>
</g>
</g>
<!-- L4YAML.CharPredicates.canStartPlainScalarBool&#45;&gt;L4YAML.CharPredicates.isFlowIndicatorBool -->
<g id="edge9" class="edge">
<title>L4YAML.CharPredicates.canStartPlainScalarBool&#45;&gt;L4YAML.CharPredicates.isFlowIndicatorBool</title>
<path fill="none" stroke="#4a90d9" stroke-width="2" d="M1085,-96.86C1085,-85.88 1085,-71.48 1085,-59.33"/>
<polygon fill="#4a90d9" stroke="#4a90d9" stroke-width="2" points="1087.45,-59.11 1085,-52.11 1082.55,-59.11 1087.45,-59.11"/>
<text text-anchor="middle" x="1094.5" y="-72.6" font-family="Times-Roman" font-size="8.00">calls</text>
</g>
<!-- L4YAML.CharPredicates.isWhiteSpaceBool -->
<g id="node10" class="node">
<title>L4YAML.CharPredicates.isWhiteSpaceBool</title>
<g id="a_node10"><a xlink:href="../../../api/L4YAML/Spec/CharPredicates.html#L4YAML.CharPredicates.isWhiteSpaceBool" xlink:title="CharPredicates.isWhiteSpaceBool" target="_blank">
<polygon fill="#dce9f7" stroke="#4a90d9" points="2071.5,-52 1904.5,-52 1904.5,-16 2071.5,-16 2071.5,-52"/>
<text text-anchor="middle" x="1988" y="-31.5" font-family="Helvetica" font-size="10.00">CharPredicates.isWhiteSpaceBool</text>
</a>
</g>
</g>
<!-- L4YAML.CharPredicates.canStartPlainScalarBool&#45;&gt;L4YAML.CharPredicates.isWhiteSpaceBool -->
<g id="edge12" class="edge">
<title>L4YAML.CharPredicates.canStartPlainScalarBool&#45;&gt;L4YAML.CharPredicates.isWhiteSpaceBool</title>
<path fill="none" stroke="#4a90d9" stroke-width="2" d="M1162.55,-96.95C1210.06,-87.25 1272.25,-75.9 1328,-70 1578.73,-43.47 1644.3,-78.74 1895,-52 1895.78,-51.92 1896.55,-51.83 1897.34,-51.74"/>
<polygon fill="#4a90d9" stroke="#4a90d9" stroke-width="2" points="1897.78,-54.16 1904.43,-50.88 1897.19,-49.29 1897.78,-54.16"/>
<text text-anchor="middle" x="1337.5" y="-72.6" font-family="Times-Roman" font-size="8.00">calls</text>
</g>
<!-- L4YAML.CharPredicates.isWhiteSpaceProp -->
<g id="node4" class="node">
<title>L4YAML.CharPredicates.isWhiteSpaceProp</title>
<g id="a_node4"><a xlink:href="../../../api/L4YAML/Spec/CharPredicates.html#L4YAML.CharPredicates.isWhiteSpaceProp" xlink:title="CharPredicates.isWhiteSpaceProp" target="_blank">
<polygon fill="#dce9f7" stroke="#4a90d9" points="2258,-52 2090,-52 2090,-16 2258,-16 2258,-52"/>
<text text-anchor="middle" x="2174" y="-31.5" font-family="Helvetica" font-size="10.00">CharPredicates.isWhiteSpaceProp</text>
</a>
</g>
</g>
<!-- L4YAML.CharPredicates.canStartPlainScalarProp -->
<g id="node5" class="node">
<title>L4YAML.CharPredicates.canStartPlainScalarProp</title>
<g id="a_node5"><a xlink:href="../../../api/L4YAML/Spec/CharPredicates.html#L4YAML.CharPredicates.canStartPlainScalarProp" xlink:title="CharPredicates.canStartPlainScalarProp" target="_blank">
<polygon fill="#dce9f7" stroke="#4a90d9" points="1544,-133 1350,-133 1350,-97 1544,-97 1544,-133"/>
<text text-anchor="middle" x="1447" y="-112.5" font-family="Helvetica" font-size="10.00">CharPredicates.canStartPlainScalarProp</text>
</a>
</g>
</g>
<!-- L4YAML.CharPredicates.canStartPlainScalarProp&#45;&gt;L4YAML.CharPredicates.isLineBreakProp -->
<g id="edge17" class="edge">
<title>L4YAML.CharPredicates.canStartPlainScalarProp&#45;&gt;L4YAML.CharPredicates.isLineBreakProp</title>
<path fill="none" stroke="#4a90d9" stroke-width="2" d="M1524.67,-96.96C1582.87,-84.18 1662.44,-66.72 1722.27,-53.59"/>
<polygon fill="#4a90d9" stroke="#4a90d9" stroke-width="2" points="1723.16,-55.91 1729.47,-52.01 1722.11,-51.12 1723.16,-55.91"/>
<text text-anchor="middle" x="1646.5" y="-72.6" font-family="Times-Roman" font-size="8.00">calls</text>
</g>
<!-- L4YAML.CharPredicates.canStartPlainScalarProp&#45;&gt;L4YAML.CharPredicates.isWhiteSpaceProp -->
<g id="edge21" class="edge">
<title>L4YAML.CharPredicates.canStartPlainScalarProp&#45;&gt;L4YAML.CharPredicates.isWhiteSpaceProp</title>
<path fill="none" stroke="#4a90d9" stroke-width="2" d="M1544.24,-107.02C1668.92,-97.49 1891.66,-78.52 2081,-52 2081.64,-51.91 2082.28,-51.82 2082.93,-51.73"/>
<polygon fill="#4a90d9" stroke="#4a90d9" stroke-width="2" points="2083.33,-54.14 2089.9,-50.7 2082.62,-49.3 2083.33,-54.14"/>
<text text-anchor="middle" x="1933.5" y="-72.6" font-family="Times-Roman" font-size="8.00">calls</text>
</g>
<!-- L4YAML.CharPredicates.isFlowIndicatorProp -->
<g id="node6" class="node">
<title>L4YAML.CharPredicates.isFlowIndicatorProp</title>
<g id="a_node6"><a xlink:href="../../../api/L4YAML/Spec/CharPredicates.html#L4YAML.CharPredicates.isFlowIndicatorProp" xlink:title="CharPredicates.isFlowIndicatorProp" target="_blank">
<polygon fill="#dce9f7" stroke="#4a90d9" points="1533.5,-52 1360.5,-52 1360.5,-16 1533.5,-16 1533.5,-52"/>
<text text-anchor="middle" x="1447" y="-31.5" font-family="Helvetica" font-size="10.00">CharPredicates.isFlowIndicatorProp</text>
</a>
</g>
</g>
<!-- L4YAML.CharPredicates.canStartPlainScalarProp&#45;&gt;L4YAML.CharPredicates.isFlowIndicatorProp -->
<g id="edge19" class="edge">
<title>L4YAML.CharPredicates.canStartPlainScalarProp&#45;&gt;L4YAML.CharPredicates.isFlowIndicatorProp</title>
<path fill="none" stroke="#4a90d9" stroke-width="2" d="M1447,-96.86C1447,-85.88 1447,-71.48 1447,-59.33"/>
<polygon fill="#4a90d9" stroke="#4a90d9" stroke-width="2" points="1449.45,-59.11 1447,-52.11 1444.55,-59.11 1449.45,-59.11"/>
<text text-anchor="middle" x="1456.5" y="-72.6" font-family="Times-Roman" font-size="8.00">calls</text>
</g>
<!-- L4YAML.CharPredicates.isIndicatorProp -->
<g id="node7" class="node">
<title>L4YAML.CharPredicates.isIndicatorProp</title>
<g id="a_node7"><a xlink:href="../../../api/L4YAML/Spec/CharPredicates.html#L4YAML.CharPredicates.isIndicatorProp" xlink:title="CharPredicates.isIndicatorProp" target="_blank">
<polygon fill="#dce9f7" stroke="#4a90d9" points="1342,-52 1190,-52 1190,-16 1342,-16 1342,-52"/>
<text text-anchor="middle" x="1266" y="-31.5" font-family="Helvetica" font-size="10.00">CharPredicates.isIndicatorProp</text>
</a>
</g>
</g>
<!-- L4YAML.CharPredicates.canStartPlainScalarProp&#45;&gt;L4YAML.CharPredicates.isIndicatorProp -->
<g id="edge2" class="edge">
<title>L4YAML.CharPredicates.canStartPlainScalarProp&#45;&gt;L4YAML.CharPredicates.isIndicatorProp</title>
<path fill="none" stroke="#4a90d9" stroke-width="2" d="M1407.73,-96.86C1379.5,-84.54 1341.36,-67.89 1311.76,-54.97"/>
<polygon fill="#4a90d9" stroke="#4a90d9" stroke-width="2" points="1312.59,-52.66 1305.2,-52.11 1310.63,-57.15 1312.59,-52.66"/>
<text text-anchor="middle" x="1370.5" y="-72.6" font-family="Times-Roman" font-size="8.00">calls</text>
</g>
<!-- L4YAML.CharPredicates.isLineBreak_iff -->
<g id="node11" class="node">
<title>L4YAML.CharPredicates.isLineBreak_iff</title>
<g id="a_node11"><a xlink:href="../../../api/L4YAML/Spec/CharPredicates.html#L4YAML.CharPredicates.isLineBreak_iff" xlink:title="CharPredicates.isLineBreak_iff" target="_blank">
<ellipse fill="#d4edda" stroke="#28a745" cx="507" cy="-115" rx="88.78" ry="18"/>
<text text-anchor="middle" x="507" y="-112.5" font-family="Helvetica" font-size="10.00">CharPredicates.isLineBreak_iff</text>
</a>
</g>
</g>
<!-- L4YAML.CharPredicates.isLineBreak_iff&#45;&gt;L4YAML.CharPredicates.isLineBreakBool -->
<g id="edge8" class="edge">
<title>L4YAML.CharPredicates.isLineBreak_iff&#45;&gt;L4YAML.CharPredicates.isLineBreakBool</title>
<path fill="none" stroke="#6f42c1" stroke-width="2" stroke-dasharray="5,2" d="M529.55,-97.5C544.69,-87.45 565.54,-75.52 586,-70 688.68,-42.3 1437.23,-63.13 1543,-52 1543.64,-51.93 1544.29,-51.86 1544.94,-51.79"/>
<polygon fill="#6f42c1" stroke="#6f42c1" stroke-width="2" points="1545.29,-54.22 1551.94,-50.94 1544.7,-49.35 1545.29,-54.22"/>
<text text-anchor="middle" x="598.5" y="-72.6" font-family="Times-Roman" font-size="8.00" fill="#6f42c1">about</text>
</g>
<!-- L4YAML.CharPredicates.isLineBreak_iff&#45;&gt;L4YAML.CharPredicates.isLineBreakProp -->
<g id="edge18" class="edge">
<title>L4YAML.CharPredicates.isLineBreak_iff&#45;&gt;L4YAML.CharPredicates.isLineBreakProp</title>
<path fill="none" stroke="#6f42c1" stroke-width="2" stroke-dasharray="5,2" d="M557.39,-100.11C572.61,-96.19 589.42,-92.14 605,-89 660.94,-77.71 675.13,-74.75 732,-70 1169.22,-33.46 1282.66,-97.78 1719,-52 1719.64,-51.93 1720.29,-51.86 1720.94,-51.79"/>
<polygon fill="#6f42c1" stroke="#6f42c1" stroke-width="2" points="1721.29,-54.22 1727.94,-50.94 1720.7,-49.35 1721.29,-54.22"/>
<text text-anchor="middle" x="744.5" y="-72.6" font-family="Times-Roman" font-size="8.00" fill="#6f42c1">about</text>
</g>
<!-- L4YAML.CharPredicates.isWhiteSpace_iff -->
<g id="node12" class="node">
<title>L4YAML.CharPredicates.isWhiteSpace_iff</title>
<g id="a_node12"><a xlink:href="../../../api/L4YAML/Spec/CharPredicates.html#L4YAML.CharPredicates.isWhiteSpace_iff" xlink:title="CharPredicates.isWhiteSpace_iff" target="_blank">
<ellipse fill="#d4edda" stroke="#28a745" cx="709" cy="-115" rx="94.55" ry="18"/>
<text text-anchor="middle" x="709" y="-112.5" font-family="Helvetica" font-size="10.00">CharPredicates.isWhiteSpace_iff</text>
</a>
</g>
</g>
<!-- L4YAML.CharPredicates.isWhiteSpace_iff&#45;&gt;L4YAML.CharPredicates.isWhiteSpaceProp -->
<g id="edge22" class="edge">
<title>L4YAML.CharPredicates.isWhiteSpace_iff&#45;&gt;L4YAML.CharPredicates.isWhiteSpaceProp</title>
<path fill="none" stroke="#6f42c1" stroke-width="2" stroke-dasharray="5,2" d="M763.49,-100.18C780.26,-96.22 798.83,-92.13 816,-89 879.51,-77.42 895.62,-74.75 960,-70 1208.47,-51.67 1833.06,-76.48 2081,-52 2081.64,-51.94 2082.29,-51.87 2082.94,-51.8"/>
<polygon fill="#6f42c1" stroke="#6f42c1" stroke-width="2" points="2083.26,-54.23 2089.94,-51.01 2082.71,-49.36 2083.26,-54.23"/>
<text text-anchor="middle" x="972.5" y="-72.6" font-family="Times-Roman" font-size="8.00" fill="#6f42c1">about</text>
</g>
<!-- L4YAML.CharPredicates.isWhiteSpace_iff&#45;&gt;L4YAML.CharPredicates.isWhiteSpaceBool -->
<g id="edge14" class="edge">
<title>L4YAML.CharPredicates.isWhiteSpace_iff&#45;&gt;L4YAML.CharPredicates.isWhiteSpaceBool</title>
<path fill="none" stroke="#6f42c1" stroke-width="2" stroke-dasharray="5,2" d="M730.59,-97.27C744.89,-87.26 764.52,-75.46 784,-70 902.88,-36.67 1772.14,-64.14 1895,-52 1895.78,-51.92 1896.55,-51.84 1897.34,-51.76"/>
<polygon fill="#6f42c1" stroke="#6f42c1" stroke-width="2" points="1897.77,-54.18 1904.44,-50.94 1897.21,-49.31 1897.77,-54.18"/>
<text text-anchor="middle" x="796.5" y="-72.6" font-family="Times-Roman" font-size="8.00" fill="#6f42c1">about</text>
</g>
<!-- L4YAML.CharPredicates.canStartPlainScalar_iff -->
<g id="node13" class="node">
<title>L4YAML.CharPredicates.canStartPlainScalar_iff</title>
<g id="a_node13"><a xlink:href="../../../api/L4YAML/Spec/CharPredicates.html#L4YAML.CharPredicates.canStartPlainScalar_iff" xlink:title="CharPredicates.canStartPlainScalar_iff" target="_blank">
<polygon fill="#fff3cd" stroke="#d4a017" points="687.29,-212.54 687.29,-227.46 617.41,-238 518.59,-238 448.71,-227.46 448.71,-212.54 518.59,-202 617.41,-202 687.29,-212.54"/>
<polygon fill="none" stroke="#d4a017" points="691.3,-209.1 691.3,-230.9 617.71,-242 518.29,-242 444.7,-230.9 444.7,-209.1 518.29,-198 617.71,-198 691.3,-209.1"/>
<text text-anchor="middle" x="568" y="-217.5" font-family="Helvetica" font-size="10.00">CharPredicates.canStartPlainScalar_iff</text>
</a>
</g>
</g>
<!-- L4YAML.CharPredicates.canStartPlainScalar_iff&#45;&gt;L4YAML.CharPredicates.canStartPlainScalarBool -->
<g id="edge5" class="edge">
<title>L4YAML.CharPredicates.canStartPlainScalar_iff&#45;&gt;L4YAML.CharPredicates.canStartPlainScalarBool</title>
<path fill="none" stroke="#6f42c1" stroke-width="2" stroke-dasharray="5,2" d="M649.63,-202.74C742.86,-184.16 895.05,-153.84 992.57,-134.41"/>
<polygon fill="#6f42c1" stroke="#6f42c1" stroke-width="2" points="993.11,-136.81 999.49,-133.04 992.15,-132 993.11,-136.81"/>
<text text-anchor="middle" x="807.5" y="-173.6" font-family="Times-Roman" font-size="8.00" fill="#6f42c1">about</text>
</g>
<!-- L4YAML.CharPredicates.canStartPlainScalar_iff&#45;&gt;L4YAML.CharPredicates.canStartPlainScalarProp -->
<g id="edge1" class="edge">
<title>L4YAML.CharPredicates.canStartPlainScalar_iff&#45;&gt;L4YAML.CharPredicates.canStartPlainScalarProp</title>
<path fill="none" stroke="#6f42c1" stroke-width="2" stroke-dasharray="5,2" d="M691.31,-211.27C817.27,-202.59 1018.3,-186.56 1191,-163 1246.8,-155.39 1308.93,-144.05 1358.02,-134.41"/>
<polygon fill="#6f42c1" stroke="#6f42c1" stroke-width="2" points="1358.77,-136.76 1365.16,-133.01 1357.82,-131.96 1358.77,-136.76"/>
<text text-anchor="middle" x="1135.5" y="-173.6" font-family="Times-Roman" font-size="8.00" fill="#6f42c1">about</text>
</g>
<!-- L4YAML.CharPredicates.canStartPlainScalar_iff&#45;&gt;L4YAML.CharPredicates.isLineBreak_iff -->
<g id="edge7" class="edge">
<title>L4YAML.CharPredicates.canStartPlainScalar_iff&#45;&gt;L4YAML.CharPredicates.isLineBreak_iff</title>
<path fill="none" stroke="#28a745" stroke-width="2" d="M555.36,-197.66C545.23,-180.55 531.04,-156.59 520.65,-139.04"/>
<polygon fill="#28a745" stroke="#28a745" stroke-width="2" points="522.68,-137.67 517.01,-132.89 518.46,-140.17 522.68,-137.67"/>
<text text-anchor="middle" x="554" y="-173.6" font-family="Times-Roman" font-size="8.00">uses</text>
</g>
<!-- L4YAML.CharPredicates.canStartPlainScalar_iff&#45;&gt;L4YAML.CharPredicates.isWhiteSpace_iff -->
<g id="edge13" class="edge">
<title>L4YAML.CharPredicates.canStartPlainScalar_iff&#45;&gt;L4YAML.CharPredicates.isWhiteSpace_iff</title>
<path fill="none" stroke="#28a745" stroke-width="2" d="M596.87,-197.91C621.24,-180.11 655.93,-154.77 680.26,-137"/>
<polygon fill="#28a745" stroke="#28a745" stroke-width="2" points="682,-138.76 686.2,-132.65 679.11,-134.8 682,-138.76"/>
<text text-anchor="middle" x="640" y="-173.6" font-family="Times-Roman" font-size="8.00">uses</text>
</g>
<!-- L4YAML.CharPredicates.isIndicator_iff -->
<g id="node14" class="node">
<title>L4YAML.CharPredicates.isIndicator_iff</title>
<g id="a_node14"><a xlink:href="../../../api/L4YAML/Spec/CharPredicates.html#L4YAML.CharPredicates.isIndicator_iff" xlink:title="CharPredicates.isIndicator_iff" target="_blank">
<ellipse fill="#d4edda" stroke="#28a745" cx="101" cy="-115" rx="85.21" ry="18"/>
<text text-anchor="middle" x="101" y="-112.5" font-family="Helvetica" font-size="10.00">CharPredicates.isIndicator_iff</text>
</a>
</g>
</g>
<!-- L4YAML.CharPredicates.canStartPlainScalar_iff&#45;&gt;L4YAML.CharPredicates.isIndicator_iff -->
<g id="edge3" class="edge">
<title>L4YAML.CharPredicates.canStartPlainScalar_iff&#45;&gt;L4YAML.CharPredicates.isIndicator_iff</title>
<path fill="none" stroke="#28a745" stroke-width="2" d="M444.43,-210.27C370.72,-202.66 276.01,-188.62 195,-163 173.77,-156.29 151.43,-145.3 133.85,-135.63"/>
<polygon fill="#28a745" stroke="#28a745" stroke-width="2" points="134.91,-133.41 127.6,-132.14 132.52,-137.69 134.91,-133.41"/>
<text text-anchor="middle" x="264" y="-173.6" font-family="Times-Roman" font-size="8.00">uses</text>
</g>
<!-- L4YAML.CharPredicates.isFlowIndicator_iff -->
<g id="node15" class="node">
<title>L4YAML.CharPredicates.isFlowIndicator_iff</title>
<g id="a_node15"><a xlink:href="../../../api/L4YAML/Spec/CharPredicates.html#L4YAML.CharPredicates.isFlowIndicator_iff" xlink:title="CharPredicates.isFlowIndicator_iff" target="_blank">
<ellipse fill="#d4edda" stroke="#28a745" cx="302" cy="-115" rx="97.94" ry="18"/>
<text text-anchor="middle" x="302" y="-112.5" font-family="Helvetica" font-size="10.00">CharPredicates.isFlowIndicator_iff</text>
</a>
</g>
</g>
<!-- L4YAML.CharPredicates.canStartPlainScalar_iff&#45;&gt;L4YAML.CharPredicates.isFlowIndicator_iff -->
<g id="edge10" class="edge">
<title>L4YAML.CharPredicates.canStartPlainScalar_iff&#45;&gt;L4YAML.CharPredicates.isFlowIndicator_iff</title>
<path fill="none" stroke="#28a745" stroke-width="2" d="M508.71,-199.3C478.64,-189.02 441.66,-175.9 409,-163 386.96,-154.29 362.76,-143.75 342.96,-134.85"/>
<polygon fill="#28a745" stroke="#28a745" stroke-width="2" points="343.81,-132.55 336.42,-131.91 341.79,-137.02 343.81,-132.55"/>
<text text-anchor="middle" x="462" y="-173.6" font-family="Times-Roman" font-size="8.00">uses</text>
</g>
<!-- L4YAML.CharPredicates.isIndicator_iff&#45;&gt;L4YAML.CharPredicates.isIndicatorProp -->
<g id="edge4" class="edge">
<title>L4YAML.CharPredicates.isIndicator_iff&#45;&gt;L4YAML.CharPredicates.isIndicatorProp</title>
<path fill="none" stroke="#6f42c1" stroke-width="2" stroke-dasharray="5,2" d="M149.02,-99.94C163.69,-96 179.92,-91.98 195,-89 258.76,-76.4 275.19,-74.92 340,-70 712.79,-41.67 809.37,-92.82 1181,-52 1181.53,-51.94 1182.07,-51.88 1182.6,-51.82"/>
<polygon fill="#6f42c1" stroke="#6f42c1" stroke-width="2" points="1183.01,-54.24 1189.64,-50.93 1182.39,-49.38 1183.01,-54.24"/>
<text text-anchor="middle" x="352.5" y="-72.6" font-family="Times-Roman" font-size="8.00" fill="#6f42c1">about</text>
</g>
<!-- L4YAML.CharPredicates.isIndicator_iff&#45;&gt;L4YAML.CharPredicates.isIndicatorBool -->
<g id="edge16" class="edge">
<title>L4YAML.CharPredicates.isIndicator_iff&#45;&gt;L4YAML.CharPredicates.isIndicatorBool</title>
<path fill="none" stroke="#6f42c1" stroke-width="2" stroke-dasharray="5,2" d="M131.92,-97.99C152.81,-88.01 181.34,-75.97 208,-70 322.26,-44.43 661.6,-37.52 820.36,-35.67"/>
<polygon fill="#6f42c1" stroke="#6f42c1" stroke-width="2" points="820.81,-38.11 827.78,-35.58 820.75,-33.21 820.81,-38.11"/>
<text text-anchor="middle" x="220.5" y="-72.6" font-family="Times-Roman" font-size="8.00" fill="#6f42c1">about</text>
</g>
<!-- L4YAML.CharPredicates.isFlowIndicator_iff&#45;&gt;L4YAML.CharPredicates.isFlowIndicatorProp -->
<g id="edge20" class="edge">
<title>L4YAML.CharPredicates.isFlowIndicator_iff&#45;&gt;L4YAML.CharPredicates.isFlowIndicatorProp</title>
<path fill="none" stroke="#6f42c1" stroke-width="2" stroke-dasharray="5,2" d="M357.57,-100.14C404.09,-89.32 472.4,-75.29 533,-70 895.27,-38.39 989.12,-87.81 1351,-52 1351.78,-51.92 1352.56,-51.84 1353.35,-51.76"/>
<polygon fill="#6f42c1" stroke="#6f42c1" stroke-width="2" points="1353.8,-54.17 1360.48,-50.95 1353.25,-49.31 1353.8,-54.17"/>
<text text-anchor="middle" x="545.5" y="-72.6" font-family="Times-Roman" font-size="8.00" fill="#6f42c1">about</text>
</g>
<!-- L4YAML.CharPredicates.isFlowIndicator_iff&#45;&gt;L4YAML.CharPredicates.isFlowIndicatorBool -->
<g id="edge11" class="edge">
<title>L4YAML.CharPredicates.isFlowIndicator_iff&#45;&gt;L4YAML.CharPredicates.isFlowIndicatorBool</title>
<path fill="none" stroke="#6f42c1" stroke-width="2" stroke-dasharray="5,2" d="M329.6,-97.59C348.01,-87.57 373.12,-75.64 397,-70 525.09,-39.73 858.08,-65.51 989,-52 989.78,-51.92 990.56,-51.84 991.35,-51.75"/>
<polygon fill="#6f42c1" stroke="#6f42c1" stroke-width="2" points="991.81,-54.16 998.47,-50.92 991.24,-49.3 991.81,-54.16"/>
<text text-anchor="middle" x="409.5" y="-72.6" font-family="Times-Roman" font-size="8.00" fill="#6f42c1">about</text>
</g>
</g>
</svg>
