<?xml version="1.0" encoding="UTF-8" standalone="no"?>
<!DOCTYPE svg PUBLIC "-//W3C//DTD SVG 1.1//EN"
 "http://www.w3.org/Graphics/SVG/1.1/DTD/svg11.dtd">
<!-- Generated by graphviz version 2.44.0 (0)
 -->
<!-- Title: CharPredicates.canStartPlainScalar_iff Pages: 1 -->
<svg width="941pt" height="798pt"
 viewBox="0.00 0.00 940.77 798.00" xmlns="http://www.w3.org/2000/svg" xmlns:xlink="http://www.w3.org/1999/xlink">
<g id="graph0" class="graph" transform="scale(1 1) rotate(0) translate(4 794)">
<title>CharPredicates.canStartPlainScalar_iff</title>
<polygon fill="white" stroke="transparent" points="-4,4 -4,-794 936.77,-794 936.77,4 -4,4"/>
<text text-anchor="middle" x="466.39" y="-775.6" font-family="Helvetica Bold" font-size="13.00">CharPredicates.canStartPlainScalar_iff</text>
<text text-anchor="middle" x="466.39" y="-761.6" font-family="Helvetica Bold" font-size="13.00">(heuristic: used by 7 proofs)</text>
<text text-anchor="middle" x="466.39" y="-747.6" font-family="Helvetica Bold" font-size="13.00">(L4YAML.Spec.CharPredicates)</text>
<g id="clust1" class="cluster">
<title>cluster_functions</title>
<polygon fill="none" stroke="#4a90d9" stroke-dasharray="5,2" points="412.69,-280 412.69,-732 924.77,-732 924.77,-280 412.69,-280"/>
<text text-anchor="middle" x="668.73" y="-717.6" font-family="Helvetica Bold" font-size="13.00" fill="#4a90d9">Functions</text>
</g>
<g id="clust2" class="cluster">
<title>cluster_key</title>
<polygon fill="none" stroke="#d4a017" stroke-dasharray="5,2" points="344.6,-190 344.6,-272 669.77,-272 669.77,-190 344.6,-190"/>
<text text-anchor="middle" x="507.19" y="-257.6" font-family="Helvetica Bold" font-size="13.00" fill="#d4a017">Key Theorem</text>
</g>
<g id="clust3" class="cluster">
<title>cluster_proofs</title>
<polygon fill="none" stroke="#28a745" stroke-dasharray="5,2" points="8,-252 8,-632 302.6,-632 302.6,-252 8,-252"/>
<text text-anchor="middle" x="155.3" y="-617.6" font-family="Helvetica Bold" font-size="13.00" fill="#28a745">Proof Dependencies</text>
</g>
<g id="clust4" class="cluster">
<title>cluster_stdlib</title>
<polygon fill="none" stroke="#e67e22" stroke-dasharray="5,2" points="89.61,-8 89.61,-244 220.99,-244 220.99,-8 89.61,-8"/>
<text text-anchor="middle" x="155.3" y="-229.6" font-family="Helvetica Bold" font-size="13.00" fill="#e67e22">Stdlib Lemmas</text>
</g>
<!-- L4YAML.CharPredicates.isLineBreakBool -->
<g id="node1" class="node">
<title>L4YAML.CharPredicates.isLineBreakBool</title>
<g id="a_node1"><a xlink:href="../../../api/L4YAML/Spec/CharPredicates.html#L4YAML.CharPredicates.isLineBreakBool" xlink:title="CharPredicates.isLineBreakBool\n(def)" target="_blank">
<polygon fill="#dce9f7" stroke="#4a90d9" points="586.19,-702 428.19,-702 428.19,-666 586.19,-666 586.19,-702"/>
<text text-anchor="middle" x="507.19" y="-687" font-family="Helvetica" font-size="10.00">CharPredicates.isLineBreakBool</text>
<text text-anchor="middle" x="507.19" y="-676" font-family="Helvetica" font-size="10.00">(def)</text>
</a>
</g>
</g>
<!-- L4YAML.CharPredicates.isLineBreakProp -->
<g id="node2" class="node">
<title>L4YAML.CharPredicates.isLineBreakProp</title>
<g id="a_node2"><a xlink:href="../../../api/L4YAML/Spec/CharPredicates.html#L4YAML.CharPredicates.isLineBreakProp" xlink:title="CharPredicates.isLineBreakProp\n(def)" target="_blank">
<polygon fill="#dce9f7" stroke="#4a90d9" points="586.19,-648 428.19,-648 428.19,-612 586.19,-612 586.19,-648"/>
<text text-anchor="middle" x="507.19" y="-633" font-family="Helvetica" font-size="10.00">CharPredicates.isLineBreakProp</text>
<text text-anchor="middle" x="507.19" y="-622" font-family="Helvetica" font-size="10.00">(def)</text>
</a>
</g>
</g>
<!-- L4YAML.CharPredicates.canStartPlainScalarBool -->
<g id="node3" class="node">
<title>L4YAML.CharPredicates.canStartPlainScalarBool</title>
<g id="a_node3"><a xlink:href="../../../api/L4YAML/Spec/CharPredicates.html#L4YAML.CharPredicates.canStartPlainScalarBool" xlink:title="CharPredicates.canStartPlainScalarBool\n(def)" target="_blank">
<polygon fill="#dce9f7" stroke="#4a90d9" points="916.77,-324 722.77,-324 722.77,-288 916.77,-288 916.77,-324"/>
<text text-anchor="middle" x="819.77" y="-309" font-family="Helvetica" font-size="10.00">CharPredicates.canStartPlainScalarBool</text>
<text text-anchor="middle" x="819.77" y="-298" font-family="Helvetica" font-size="10.00">(def)</text>
</a>
</g>
</g>
<!-- L4YAML.CharPredicates.isWhiteSpaceProp -->
<g id="node4" class="node">
<title>L4YAML.CharPredicates.isWhiteSpaceProp</title>
<g id="a_node4"><a xlink:href="../../../api/L4YAML/Spec/CharPredicates.html#L4YAML.CharPredicates.isWhiteSpaceProp" xlink:title="CharPredicates.isWhiteSpaceProp\n(def)" target="_blank">
<polygon fill="#dce9f7" stroke="#4a90d9" points="591.19,-540 423.19,-540 423.19,-504 591.19,-504 591.19,-540"/>
<text text-anchor="middle" x="507.19" y="-525" font-family="Helvetica" font-size="10.00">CharPredicates.isWhiteSpaceProp</text>
<text text-anchor="middle" x="507.19" y="-514" font-family="Helvetica" font-size="10.00">(def)</text>
</a>
</g>
</g>
<!-- L4YAML.CharPredicates.canStartPlainScalarProp -->
<g id="node5" class="node">
<title>L4YAML.CharPredicates.canStartPlainScalarProp</title>
<g id="a_node5"><a xlink:href="../../../api/L4YAML/Spec/CharPredicates.html#L4YAML.CharPredicates.canStartPlainScalarProp" xlink:title="CharPredicates.canStartPlainScalarProp\n(def)" target="_blank">
<polygon fill="#dce9f7" stroke="#4a90d9" points="916.77,-378 722.77,-378 722.77,-342 916.77,-342 916.77,-378"/>
<text text-anchor="middle" x="819.77" y="-363" font-family="Helvetica" font-size="10.00">CharPredicates.canStartPlainScalarProp</text>
<text text-anchor="middle" x="819.77" y="-352" font-family="Helvetica" font-size="10.00">(def)</text>
</a>
</g>
</g>
<!-- L4YAML.CharPredicates.isFlowIndicatorProp -->
<g id="node6" class="node">
<title>L4YAML.CharPredicates.isFlowIndicatorProp</title>
<g id="a_node6"><a xlink:href="../../../api/L4YAML/Spec/CharPredicates.html#L4YAML.CharPredicates.isFlowIndicatorProp" xlink:title="CharPredicates.isFlowIndicatorProp\n(def)" target="_blank">
<polygon fill="#dce9f7" stroke="#4a90d9" points="593.69,-378 420.69,-378 420.69,-342 593.69,-342 593.69,-378"/>
<text text-anchor="middle" x="507.19" y="-363" font-family="Helvetica" font-size="10.00">CharPredicates.isFlowIndicatorProp</text>
<text text-anchor="middle" x="507.19" y="-352" font-family="Helvetica" font-size="10.00">(def)</text>
</a>
</g>
</g>
<!-- L4YAML.CharPredicates.isIndicatorProp -->
<g id="node7" class="node">
<title>L4YAML.CharPredicates.isIndicatorProp</title>
<g id="a_node7"><a xlink:href="../../../api/L4YAML/Spec/CharPredicates.html#L4YAML.CharPredicates.isIndicatorProp" xlink:title="CharPredicates.isIndicatorProp\n(def)" target="_blank">
<polygon fill="#dce9f7" stroke="#4a90d9" points="583.19,-486 431.19,-486 431.19,-450 583.19,-450 583.19,-486"/>
<text text-anchor="middle" x="507.19" y="-471" font-family="Helvetica" font-size="10.00">CharPredicates.isIndicatorProp</text>
<text text-anchor="middle" x="507.19" y="-460" font-family="Helvetica" font-size="10.00">(def)</text>
</a>
</g>
</g>
<!-- L4YAML.CharPredicates.isIndicatorBool -->
<g id="node8" class="node">
<title>L4YAML.CharPredicates.isIndicatorBool</title>
<g id="a_node8"><a xlink:href="../../../api/L4YAML/Spec/CharPredicates.html#L4YAML.CharPredicates.isIndicatorBool" xlink:title="CharPredicates.isIndicatorBool\n(def)" target="_blank">
<polygon fill="#dce9f7" stroke="#4a90d9" points="583.19,-432 431.19,-432 431.19,-396 583.19,-396 583.19,-432"/>
<text text-anchor="middle" x="507.19" y="-417" font-family="Helvetica" font-size="10.00">CharPredicates.isIndicatorBool</text>
<text text-anchor="middle" x="507.19" y="-406" font-family="Helvetica" font-size="10.00">(def)</text>
</a>
</g>
</g>
<!-- L4YAML.CharPredicates.isFlowIndicatorBool -->
<g id="node9" class="node">
<title>L4YAML.CharPredicates.isFlowIndicatorBool</title>
<g id="a_node9"><a xlink:href="../../../api/L4YAML/Spec/CharPredicates.html#L4YAML.CharPredicates.isFlowIndicatorBool" xlink:title="CharPredicates.isFlowIndicatorBool\n(def)" target="_blank">
<polygon fill="#dce9f7" stroke="#4a90d9" points="593.69,-324 420.69,-324 420.69,-288 593.69,-288 593.69,-324"/>
<text text-anchor="middle" x="507.19" y="-309" font-family="Helvetica" font-size="10.00">CharPredicates.isFlowIndicatorBool</text>
<text text-anchor="middle" x="507.19" y="-298" font-family="Helvetica" font-size="10.00">(def)</text>
</a>
</g>
</g>
<!-- L4YAML.CharPredicates.isWhiteSpaceBool -->
<g id="node10" class="node">
<title>L4YAML.CharPredicates.isWhiteSpaceBool</title>
<g id="a_node10"><a xlink:href="../../../api/L4YAML/Spec/CharPredicates.html#L4YAML.CharPredicates.isWhiteSpaceBool" xlink:title="CharPredicates.isWhiteSpaceBool\n(def)" target="_blank">
<polygon fill="#dce9f7" stroke="#4a90d9" points="590.69,-594 423.69,-594 423.69,-558 590.69,-558 590.69,-594"/>
<text text-anchor="middle" x="507.19" y="-579" font-family="Helvetica" font-size="10.00">CharPredicates.isWhiteSpaceBool</text>
<text text-anchor="middle" x="507.19" y="-568" font-family="Helvetica" font-size="10.00">(def)</text>
</a>
</g>
</g>
<!-- L4YAML.CharPredicates.canStartPlainScalar_iff -->
<g id="node11" class="node">
<title>L4YAML.CharPredicates.canStartPlainScalar_iff</title>
<g id="a_node11"><a xlink:href="../../../api/L4YAML/Spec/CharPredicates.html#L4YAML.CharPredicates.canStartPlainScalar_iff" xlink:title="CharPredicates.canStartPlainScalar_iff" target="_blank">
<polygon fill="#fff3cd" stroke="#d4a017" points="657.85,-212.54 657.85,-227.46 569.59,-238 444.78,-238 356.52,-227.46 356.52,-212.54 444.78,-202 569.59,-202 657.85,-212.54"/>
<polygon fill="none" stroke="#d4a017" points="661.86,-208.99 661.86,-231.01 569.83,-242 444.54,-242 352.51,-231.01 352.51,-208.99 444.54,-198 569.83,-198 661.86,-208.99"/>
<text text-anchor="middle" x="507.19" y="-216.9" font-family="Helvetica" font-size="12.00">CharPredicates.canStartPlainScalar_iff</text>
</a>
</g>
</g>
<!-- L4YAML.CharPredicates.canStartPlainScalar_iff&#45;&gt;L4YAML.CharPredicates.canStartPlainScalarBool -->
<g id="edge1" class="edge">
<title>L4YAML.CharPredicates.canStartPlainScalar_iff&#45;&gt;L4YAML.CharPredicates.canStartPlainScalarBool</title>
<path fill="none" stroke="#4a90d9" stroke-width="2" d="M582.58,-240.6C632.37,-254.39 697.56,-272.44 746.83,-286.08"/>
<polygon fill="#4a90d9" stroke="#4a90d9" stroke-width="2" points="746.27,-288.47 753.67,-287.98 747.58,-283.75 746.27,-288.47"/>
<text text-anchor="middle" x="692.27" y="-275.6" font-family="Times-Roman" font-size="8.00" fill="#4a90d9">about</text>
</g>
<!-- L4YAML.CharPredicates.canStartPlainScalar_iff&#45;&gt;L4YAML.CharPredicates.canStartPlainScalarProp -->
<g id="edge2" class="edge">
<title>L4YAML.CharPredicates.canStartPlainScalar_iff&#45;&gt;L4YAML.CharPredicates.canStartPlainScalarProp</title>
<path fill="none" stroke="#4a90d9" stroke-width="2" d="M589.83,-239.77C616.6,-248.42 645.64,-260.27 669.77,-276 673.39,-278.36 719.08,-330.75 722.77,-333 726.27,-335.14 729.95,-337.11 733.74,-338.93"/>
<polygon fill="#4a90d9" stroke="#4a90d9" stroke-width="2" points="732.82,-341.21 740.21,-341.86 734.84,-336.74 732.82,-341.21"/>
<text text-anchor="middle" x="692.27" y="-314.6" font-family="Times-Roman" font-size="8.00" fill="#4a90d9">about</text>
</g>
<!-- L4YAML.CharPredicates.isLineBreak_iff -->
<g id="node12" class="node">
<title>L4YAML.CharPredicates.isLineBreak_iff</title>
<g id="a_node12"><a xlink:href="../../../api/L4YAML/Spec/CharPredicates.html#L4YAML.CharPredicates.isLineBreak_iff" xlink:title="CharPredicates.isLineBreak_iff\n(Spec.CharPredicates)" target="_blank">
<ellipse fill="#d4edda" stroke="#28a745" cx="155.3" cy="-581" rx="106.55" ry="21.43"/>
<text text-anchor="middle" x="155.3" y="-584" font-family="Helvetica" font-size="10.00">CharPredicates.isLineBreak_iff</text>
<text text-anchor="middle" x="155.3" y="-573" font-family="Helvetica" font-size="10.00">(Spec.CharPredicates)</text>
</a>
</g>
</g>
<!-- L4YAML.CharPredicates.isLineBreak_iff&#45;&gt;L4YAML.CharPredicates.isLineBreakBool -->
<g id="edge14" class="edge">
<title>L4YAML.CharPredicates.isLineBreak_iff&#45;&gt;L4YAML.CharPredicates.isLineBreakBool</title>
<path fill="none" stroke="#6f42c1" stroke-width="2" stroke-dasharray="5,2" d="M197.27,-600.57C234.82,-617.77 292.34,-642.28 344.6,-657 369.75,-664.09 397.66,-669.56 423.11,-673.67"/>
<polygon fill="#6f42c1" stroke="#6f42c1" stroke-width="2" points="422.96,-675.42 428.17,-674.48 423.51,-671.96 422.96,-675.42"/>
<text text-anchor="middle" x="323.6" y="-655.4" font-family="Times-Roman" font-size="7.00" fill="#6f42c1">about</text>
</g>
<!-- L4YAML.CharPredicates.isLineBreak_iff&#45;&gt;L4YAML.CharPredicates.isLineBreakProp -->
<g id="edge13" class="edge">
<title>L4YAML.CharPredicates.isLineBreak_iff&#45;&gt;L4YAML.CharPredicates.isLineBreakProp</title>
<path fill="none" stroke="#6f42c1" stroke-width="2" stroke-dasharray="5,2" d="M243.24,-593.18C298.14,-600.86 368.67,-610.74 422.86,-618.33"/>
<polygon fill="#6f42c1" stroke="#6f42c1" stroke-width="2" points="422.86,-620.1 428.05,-619.06 423.34,-616.63 422.86,-620.1"/>
<text text-anchor="middle" x="323.6" y="-607.4" font-family="Times-Roman" font-size="7.00" fill="#6f42c1">about</text>
</g>
<!-- L4YAML.CharPredicates.isLineBreak_iff&#45;&gt;L4YAML.CharPredicates.canStartPlainScalar_iff -->
<g id="edge8" class="edge">
<title>L4YAML.CharPredicates.isLineBreak_iff&#45;&gt;L4YAML.CharPredicates.canStartPlainScalar_iff</title>
<path fill="none" stroke="#28a745" d="M244.23,-592.87C277.15,-592.22 312,-584.53 334.6,-560 355.99,-536.78 325.84,-301.4 344.6,-276 356.88,-259.37 374.44,-247.65 393.49,-239.39"/>
<polygon fill="#28a745" stroke="#28a745" points="394.45,-241.64 400,-236.72 392.59,-237.1 394.45,-241.64"/>
</g>
<!-- L4YAML.CharPredicates.isWhiteSpace_iff -->
<g id="node13" class="node">
<title>L4YAML.CharPredicates.isWhiteSpace_iff</title>
<g id="a_node13"><a xlink:href="../../../api/L4YAML/Spec/CharPredicates.html#L4YAML.CharPredicates.isWhiteSpace_iff" xlink:title="CharPredicates.isWhiteSpace_iff\n(Spec.CharPredicates)" target="_blank">
<ellipse fill="#d4edda" stroke="#28a745" cx="155.3" cy="-521" rx="113.69" ry="21.43"/>
<text text-anchor="middle" x="155.3" y="-524" font-family="Helvetica" font-size="10.00">CharPredicates.isWhiteSpace_iff</text>
<text text-anchor="middle" x="155.3" y="-513" font-family="Helvetica" font-size="10.00">(Spec.CharPredicates)</text>
</a>
</g>
</g>
<!-- L4YAML.CharPredicates.isWhiteSpace_iff&#45;&gt;L4YAML.CharPredicates.isWhiteSpaceProp -->
<g id="edge15" class="edge">
<title>L4YAML.CharPredicates.isWhiteSpace_iff&#45;&gt;L4YAML.CharPredicates.isWhiteSpaceProp</title>
<path fill="none" stroke="#6f42c1" stroke-width="2" stroke-dasharray="5,2" d="M269.41,-521.32C317.57,-521.46 372.9,-521.62 417.96,-521.75"/>
<polygon fill="#6f42c1" stroke="#6f42c1" stroke-width="2" points="418.12,-523.5 423.12,-521.76 418.13,-520 418.12,-523.5"/>
<text text-anchor="middle" x="323.6" y="-523.4" font-family="Times-Roman" font-size="7.00" fill="#6f42c1">about</text>
</g>
<!-- L4YAML.CharPredicates.isWhiteSpace_iff&#45;&gt;L4YAML.CharPredicates.isWhiteSpaceBool -->
<g id="edge16" class="edge">
<title>L4YAML.CharPredicates.isWhiteSpace_iff&#45;&gt;L4YAML.CharPredicates.isWhiteSpaceBool</title>
<path fill="none" stroke="#6f42c1" stroke-width="2" stroke-dasharray="5,2" d="M242.79,-534.6C296.21,-542.99 364.56,-553.74 418.25,-562.18"/>
<polygon fill="#6f42c1" stroke="#6f42c1" stroke-width="2" points="418.19,-563.94 423.4,-562.99 418.73,-560.48 418.19,-563.94"/>
<text text-anchor="middle" x="323.6" y="-550.4" font-family="Times-Roman" font-size="7.00" fill="#6f42c1">about</text>
</g>
<!-- L4YAML.CharPredicates.isWhiteSpace_iff&#45;&gt;L4YAML.CharPredicates.canStartPlainScalar_iff -->
<g id="edge5" class="edge">
<title>L4YAML.CharPredicates.isWhiteSpace_iff&#45;&gt;L4YAML.CharPredicates.canStartPlainScalar_iff</title>
<path fill="none" stroke="#28a745" d="M267.86,-517.54C294.51,-510.76 319.56,-498.02 334.6,-475 358.82,-437.93 318.03,-311.42 344.6,-276 357.01,-259.46 374.62,-247.78 393.69,-239.53"/>
<polygon fill="#28a745" stroke="#28a745" points="394.65,-241.79 400.2,-236.87 392.8,-237.25 394.65,-241.79"/>
</g>
<!-- L4YAML.CharPredicates.not_and_bool_iff_imp_not -->
<g id="node14" class="node">
<title>L4YAML.CharPredicates.not_and_bool_iff_imp_not</title>
<g id="a_node14"><a xlink:href="../../../api/L4YAML/Spec/CharPredicates.html#L4YAML.CharPredicates.not_and_bool_iff_imp_not" xlink:title="CharPredicates.not_and_bool_iff_imp_not\n(Spec.CharPredicates)" target="_blank">
<ellipse fill="#d4edda" stroke="#28a745" cx="155.3" cy="-341" rx="139.1" ry="21.43"/>
<text text-anchor="middle" x="155.3" y="-344" font-family="Helvetica" font-size="10.00">CharPredicates.not_and_bool_iff_imp_not</text>
<text text-anchor="middle" x="155.3" y="-333" font-family="Helvetica" font-size="10.00">(Spec.CharPredicates)</text>
</a>
</g>
</g>
<!-- L4YAML.CharPredicates.not_and_bool_iff_imp_not&#45;&gt;L4YAML.CharPredicates.canStartPlainScalar_iff -->
<g id="edge4" class="edge">
<title>L4YAML.CharPredicates.not_and_bool_iff_imp_not&#45;&gt;L4YAML.CharPredicates.canStartPlainScalar_iff</title>
<path fill="none" stroke="#28a745" d="M266.17,-327.96C279.04,-323.73 291.51,-318.21 302.6,-311 309.01,-306.83 307.09,-302.3 312.6,-297 324.86,-285.21 329.34,-283.51 344.6,-276 370.63,-263.19 400.34,-252 427.11,-243.06"/>
<polygon fill="#28a745" stroke="#28a745" points="427.97,-245.36 433.85,-240.84 426.44,-240.71 427.97,-245.36"/>
</g>
<!-- L4YAML.CharPredicates.isIndicator_iff -->
<g id="node15" class="node">
<title>L4YAML.CharPredicates.isIndicator_iff</title>
<g id="a_node15"><a xlink:href="../../../api/L4YAML/Spec/CharPredicates.html#L4YAML.CharPredicates.isIndicator_iff" xlink:title="CharPredicates.isIndicator_iff\n(Spec.CharPredicates)" target="_blank">
<ellipse fill="#d4edda" stroke="#28a745" cx="155.3" cy="-461" rx="102.56" ry="21.43"/>
<text text-anchor="middle" x="155.3" y="-464" font-family="Helvetica" font-size="10.00">CharPredicates.isIndicator_iff</text>
<text text-anchor="middle" x="155.3" y="-453" font-family="Helvetica" font-size="10.00">(Spec.CharPredicates)</text>
</a>
</g>
</g>
<!-- L4YAML.CharPredicates.isIndicator_iff&#45;&gt;L4YAML.CharPredicates.isIndicatorProp -->
<g id="edge17" class="edge">
<title>L4YAML.CharPredicates.isIndicator_iff&#45;&gt;L4YAML.CharPredicates.isIndicatorProp</title>
<path fill="none" stroke="#6f42c1" stroke-width="2" stroke-dasharray="5,2" d="M257.5,-463.02C311.06,-464.1 375.91,-465.39 425.96,-466.39"/>
<polygon fill="#6f42c1" stroke="#6f42c1" stroke-width="2" points="426.03,-468.15 431.06,-466.5 426.1,-464.65 426.03,-468.15"/>
<text text-anchor="middle" x="323.6" y="-466.4" font-family="Times-Roman" font-size="7.00" fill="#6f42c1">about</text>
</g>
<!-- L4YAML.CharPredicates.isIndicator_iff&#45;&gt;L4YAML.CharPredicates.isIndicatorBool -->
<g id="edge18" class="edge">
<title>L4YAML.CharPredicates.isIndicator_iff&#45;&gt;L4YAML.CharPredicates.isIndicatorBool</title>
<path fill="none" stroke="#6f42c1" stroke-width="2" stroke-dasharray="5,2" d="M241.89,-449.5C297.94,-441.97 370.73,-432.2 425.72,-424.81"/>
<polygon fill="#6f42c1" stroke="#6f42c1" stroke-width="2" points="426.26,-426.5 430.98,-424.1 425.79,-423.03 426.26,-426.5"/>
<text text-anchor="middle" x="323.6" y="-440.4" font-family="Times-Roman" font-size="7.00" fill="#6f42c1">about</text>
</g>
<!-- L4YAML.CharPredicates.isIndicator_iff&#45;&gt;L4YAML.CharPredicates.canStartPlainScalar_iff -->
<g id="edge3" class="edge">
<title>L4YAML.CharPredicates.isIndicator_iff&#45;&gt;L4YAML.CharPredicates.canStartPlainScalar_iff</title>
<path fill="none" stroke="#28a745" d="M249.6,-452.41C268.13,-447.87 286.74,-441.09 302.6,-431 322.7,-418.21 326.11,-410.26 334.6,-388 343.51,-364.65 329.22,-295.69 344.6,-276 357.49,-259.5 375.54,-247.84 394.93,-239.61"/>
<polygon fill="#28a745" stroke="#28a745" points="395.97,-241.83 401.55,-236.94 394.15,-237.28 395.97,-241.83"/>
</g>
<!-- L4YAML.CharPredicates.isFlowIndicator_iff -->
<g id="node16" class="node">
<title>L4YAML.CharPredicates.isFlowIndicator_iff</title>
<g id="a_node16"><a xlink:href="../../../api/L4YAML/Spec/CharPredicates.html#L4YAML.CharPredicates.isFlowIndicator_iff" xlink:title="CharPredicates.isFlowIndicator_iff\n(Spec.CharPredicates)" target="_blank">
<ellipse fill="#d4edda" stroke="#28a745" cx="155.3" cy="-401" rx="117.26" ry="21.43"/>
<text text-anchor="middle" x="155.3" y="-404" font-family="Helvetica" font-size="10.00">CharPredicates.isFlowIndicator_iff</text>
<text text-anchor="middle" x="155.3" y="-393" font-family="Helvetica" font-size="10.00">(Spec.CharPredicates)</text>
</a>
</g>
</g>
<!-- L4YAML.CharPredicates.isFlowIndicator_iff&#45;&gt;L4YAML.CharPredicates.isFlowIndicatorProp -->
<g id="edge19" class="edge">
<title>L4YAML.CharPredicates.isFlowIndicator_iff&#45;&gt;L4YAML.CharPredicates.isFlowIndicatorProp</title>
<path fill="none" stroke="#6f42c1" stroke-width="2" stroke-dasharray="5,2" d="M254.23,-389.52C304.75,-383.6 365.98,-376.43 415.43,-370.63"/>
<polygon fill="#6f42c1" stroke="#6f42c1" stroke-width="2" points="415.72,-372.36 420.48,-370.04 415.32,-368.89 415.72,-372.36"/>
<text text-anchor="middle" x="323.6" y="-383.4" font-family="Times-Roman" font-size="7.00" fill="#6f42c1">about</text>
</g>
<!-- L4YAML.CharPredicates.isFlowIndicator_iff&#45;&gt;L4YAML.CharPredicates.isFlowIndicatorBool -->
<g id="edge20" class="edge">
<title>L4YAML.CharPredicates.isFlowIndicator_iff&#45;&gt;L4YAML.CharPredicates.isFlowIndicatorBool</title>
<path fill="none" stroke="#6f42c1" stroke-width="2" stroke-dasharray="5,2" d="M252.44,-388.92C269.7,-384.65 287.1,-378.85 302.6,-371 325.06,-359.63 321.94,-343.96 344.6,-333 366.35,-322.48 391.46,-315.97 415.31,-311.96"/>
<polygon fill="#6f42c1" stroke="#6f42c1" stroke-width="2" points="415.72,-313.67 420.37,-311.15 415.16,-310.21 415.72,-313.67"/>
<text text-anchor="middle" x="323.6" y="-365.4" font-family="Times-Roman" font-size="7.00" fill="#6f42c1">about</text>
</g>
<!-- L4YAML.CharPredicates.isFlowIndicator_iff&#45;&gt;L4YAML.CharPredicates.canStartPlainScalar_iff -->
<g id="edge6" class="edge">
<title>L4YAML.CharPredicates.isFlowIndicator_iff&#45;&gt;L4YAML.CharPredicates.canStartPlainScalar_iff</title>
<path fill="none" stroke="#28a745" d="M264.49,-393.08C278.55,-388.17 291.8,-381.09 302.6,-371 314.74,-359.67 306.17,-350.31 312.6,-335 320.16,-317.01 325.51,-314.27 334.6,-297 339.42,-287.85 336.9,-282.89 344.6,-276 362.22,-260.23 384.51,-248.86 406.87,-240.66"/>
<polygon fill="#28a745" stroke="#28a745" points="407.7,-242.97 413.49,-238.33 406.07,-238.35 407.7,-242.97"/>
</g>
<!-- L4YAML.CharPredicates.not_bool_iff_not -->
<g id="node17" class="node">
<title>L4YAML.CharPredicates.not_bool_iff_not</title>
<g id="a_node17"><a xlink:href="../../../api/L4YAML/Spec/CharPredicates.html#L4YAML.CharPredicates.not_bool_iff_not" xlink:title="CharPredicates.not_bool_iff_not\n(Spec.CharPredicates)" target="_blank">
<ellipse fill="#d4edda" stroke="#28a745" cx="155.3" cy="-281" rx="109.7" ry="21.43"/>
<text text-anchor="middle" x="155.3" y="-284" font-family="Helvetica" font-size="10.00">CharPredicates.not_bool_iff_not</text>
<text text-anchor="middle" x="155.3" y="-273" font-family="Helvetica" font-size="10.00">(Spec.CharPredicates)</text>
</a>
</g>
</g>
<!-- L4YAML.CharPredicates.not_bool_iff_not&#45;&gt;L4YAML.CharPredicates.canStartPlainScalar_iff -->
<g id="edge7" class="edge">
<title>L4YAML.CharPredicates.not_bool_iff_not&#45;&gt;L4YAML.CharPredicates.canStartPlainScalar_iff</title>
<path fill="none" stroke="#28a745" d="M237.45,-266.85C285.56,-258.46 347.1,-247.74 399.15,-238.66"/>
<polygon fill="#28a745" stroke="#28a745" points="399.62,-241.07 406.1,-237.45 398.78,-236.24 399.62,-241.07"/>
</g>
<!-- Bool.false_eq_true -->
<g id="node18" class="node">
<title>Bool.false_eq_true</title>
<g id="a_node18"><a xlink:href="../../../api/Init/Data/Bool.html#Bool.false_eq_true" xlink:title="Bool.false_eq_true" target="_blank">
<ellipse fill="#fdebd0" stroke="#e67e22" cx="155.3" cy="-88" rx="57.88" ry="18"/>
<text text-anchor="middle" x="155.3" y="-85.5" font-family="Helvetica" font-size="10.00">Bool.false_eq_true</text>
</a>
</g>
</g>
<!-- Bool.false_eq_true&#45;&gt;L4YAML.CharPredicates.canStartPlainScalar_iff -->
<g id="edge9" class="edge">
<title>Bool.false_eq_true&#45;&gt;L4YAML.CharPredicates.canStartPlainScalar_iff</title>
<path fill="none" stroke="#e67e22" stroke-width="2" d="M209.74,-94.02C237.88,-98.15 272.66,-104.77 302.6,-115 361.72,-135.21 424.94,-170.15 464.97,-194.14"/>
<polygon fill="#e67e22" stroke="#e67e22" stroke-width="2" points="463.94,-196.37 471.2,-197.89 466.47,-192.18 463.94,-196.37"/>
</g>
<!-- iff_self -->
<g id="node19" class="node">
<title>iff_self</title>
<g id="a_node19"><a xlink:href="../../../api/Init/SimpLemmas.html#iff_self" xlink:title="iff_self" target="_blank">
<ellipse fill="#fdebd0" stroke="#e67e22" cx="155.3" cy="-34" rx="27" ry="18"/>
<text text-anchor="middle" x="155.3" y="-31.5" font-family="Helvetica" font-size="10.00">iff_self</text>
</a>
</g>
</g>
<!-- iff_self&#45;&gt;L4YAML.CharPredicates.canStartPlainScalar_iff -->
<g id="edge10" class="edge">
<title>iff_self&#45;&gt;L4YAML.CharPredicates.canStartPlainScalar_iff</title>
<path fill="none" stroke="#e67e22" stroke-width="2" d="M182.52,-35.09C212.69,-37.17 263.15,-43.25 302.6,-61 374.72,-93.44 444.07,-156.63 480.26,-192.81"/>
<polygon fill="#e67e22" stroke="#e67e22" stroke-width="2" points="478.68,-194.7 485.35,-197.95 482.16,-191.25 478.68,-194.7"/>
</g>
<!-- Bool.and_eq_true -->
<g id="node20" class="node">
<title>Bool.and_eq_true</title>
<g id="a_node20"><a xlink:href="../../../api/Init/SimpLemmas.html#Bool.and_eq_true" xlink:title="Bool.and_eq_true" target="_blank">
<ellipse fill="#fdebd0" stroke="#e67e22" cx="155.3" cy="-196" rx="54.31" ry="18"/>
<text text-anchor="middle" x="155.3" y="-193.5" font-family="Helvetica" font-size="10.00">Bool.and_eq_true</text>
</a>
</g>
</g>
<!-- Bool.and_eq_true&#45;&gt;L4YAML.CharPredicates.canStartPlainScalar_iff -->
<g id="edge11" class="edge">
<title>Bool.and_eq_true&#45;&gt;L4YAML.CharPredicates.canStartPlainScalar_iff</title>
<path fill="none" stroke="#e67e22" stroke-width="2" d="M208.68,-199.59C245.11,-202.09 295.79,-205.57 345.01,-208.94"/>
<polygon fill="#e67e22" stroke="#e67e22" stroke-width="2" points="345.11,-211.41 352.26,-209.44 345.45,-206.52 345.11,-211.41"/>
</g>
<!-- of_eq_true -->
<g id="node21" class="node">
<title>of_eq_true</title>
<g id="a_node21"><a xlink:href="../../../api/Init/SimpLemmas.html#of_eq_true" xlink:title="of_eq_true" target="_blank">
<ellipse fill="#fdebd0" stroke="#e67e22" cx="155.3" cy="-142" rx="36.49" ry="18"/>
<text text-anchor="middle" x="155.3" y="-139.5" font-family="Helvetica" font-size="10.00">of_eq_true</text>
</a>
</g>
</g>
<!-- of_eq_true&#45;&gt;L4YAML.CharPredicates.canStartPlainScalar_iff -->
<g id="edge12" class="edge">
<title>of_eq_true&#45;&gt;L4YAML.CharPredicates.canStartPlainScalar_iff</title>
<path fill="none" stroke="#e67e22" stroke-width="2" d="M190.12,-147.62C219.85,-152.71 264.24,-160.66 302.6,-169 342.49,-177.67 386.45,-188.52 423.29,-197.98"/>
<polygon fill="#e67e22" stroke="#e67e22" stroke-width="2" points="422.69,-200.35 430.08,-199.73 423.91,-195.61 422.69,-200.35"/>
</g>
</g>
</svg>
